<?xml version="1.0" encoding="utf-8"?>
<!-- Generator: Adobe Illustrator 21.0.0, SVG Export Plug-In . SVG Version: 6.00 Build 0)  -->
<svg version="1.1" id="Layer_1" xmlns="http://www.w3.org/2000/svg" xmlns:xlink="http://www.w3.org/1999/xlink" x="0px" y="0px"
	 width="171.7px" height="555.3px" viewBox="0 0 171.7 555.3" enable-background="new 0 0 171.7 555.3" xml:space="preserve">
<path id="skin_neck" fill="#C49E72" d="M92,183.8c0,4.4-2.1,8-4.7,8l0,0c-2.6,0-4.7-3.6-4.7-8v-20.5c0-4.4,2.1-8,4.7-8l0,0
	c2.6,0,4.7,3.6,4.7,8V183.8z"/>
<path id="skin_leg_1" fill="#C49E72" d="M70.1,509.3C70.1,509.3,70.1,509.3,70.1,509.3c-1.7,0-2.9-1.4-2.8-2.9l2.6-86.6
	c0-1.6,1.3-2.8,2.9-2.8c1.6,0,2.8,1.4,2.7,2.9L73,506.6C72.9,508.1,71.7,509.3,70.1,509.3z"/>
<path id="skin_leg_2" fill="#C49E72" d="M110.5,509.3c-1.6,0-2.8-1.3-2.8-2.8l-0.7-86.6c0-1.6,1.2-2.8,2.8-2.9c0,0,0,0,0,0
	c1.6,0,2.8,1.3,2.8,2.8l0.7,86.6C113.4,508,112.1,509.3,110.5,509.3C110.6,509.3,110.6,509.3,110.5,509.3z"/>
<path id="skin_hand_1" fill="#C49E72" d="M12.6,353.7c0.1-0.4,0.4-1.1,0.8-1.6c2.5-4.5,5-3.2,8.1-2.5c3.9,0.9,7.5,7.1,7.7,7.4
	l6.1,16.4c0.5,0.7,0.3,1.7-0.5,2.2c-0.7,0.5-1.7,0.3-2.2-0.5l-5.8-15.9l-0.9-0.3l0.9,30.2c0.1,0.9-0.5,1.6-1.4,1.7
	c-0.5,0.1-1-0.2-1.3-0.5c-0.2-0.2-0.4-0.5-0.4-0.9l-1.2-31.2c0-0.2,0-0.4,0.1-0.6c-0.4-0.2-0.8-0.4-1.1-0.5l-0.7,36.4
	c0,0.9-0.7,1.6-1.6,1.5c-0.4,0-0.8-0.2-1.1-0.5c-0.3-0.3-0.4-0.7-0.4-1.1l0.7-36.2c-1.2,0.9-0.4-0.2-0.6,0.5l-2.3,29.7
	c-0.1,0.9-0.8,1.6-1.6,1.5c-0.4,0-0.7-0.2-1-0.5c-0.3-0.3-0.5-0.8-0.4-1.3l2.5-28.2l-0.7-0.2l-4,20.4c-0.2,0.8-0.5,1-1.3,0.7
	c-0.2-0.1-0.5-0.2-0.6-0.4c-0.3-0.4-0.5-0.9-0.3-1.4l4.5-23.8c0-0.1,0-0.1,0.1-0.2L12.6,353.7z"/>
<path id="skin_hand_2" fill="#C49E72" d="M163.5,353.1c-0.2-0.4-0.5-1-0.9-1.5c-2.8-4.3-5.3-2.8-8.2-1.9c-3.8,1.2-7,7.6-7.1,7.9
	l-4.9,16.8c-0.4,0.8-0.1,1.7,0.6,2.1c0.8,0.4,1.7,0.1,2.1-0.6l4.6-16.3l0.9-0.4l1.4,30.1c0,0.9,0.7,1.6,1.5,1.6c0.5,0,1-0.2,1.3-0.6
	c0.2-0.3,0.3-0.6,0.3-0.9l-1.2-31.2c0-0.2,0-0.4-0.1-0.6c0.4-0.2,0.8-0.4,1.1-0.6l3.4,36.2c0.1,0.9,0.8,1.5,1.7,1.4
	c0.4,0,0.8-0.3,1.1-0.6c0.2-0.3,0.4-0.7,0.3-1.1l-3.4-36c1.3,0.8,0.4-0.2,0.6,0.5l4.6,29.5c0.2,0.8,0.9,1.5,1.7,1.4
	c0.4-0.1,0.7-0.3,0.9-0.6c0.3-0.4,0.4-0.8,0.3-1.3l-4.6-28l0.7-0.3l5.5,20.1c0.3,0.7,0.6,0.9,1.3,0.6c0.2-0.1,0.4-0.3,0.6-0.4
	c0.3-0.4,0.4-0.9,0.2-1.4l-6.2-23.4c0-0.1-0.1-0.1-0.1-0.2L163.5,353.1z"/>
<path fill="#A8500F" d="M52.3,326.3c-1.6-0.1-2.5-0.3-2.5-0.5c-0.1,2.3-0.8,4.2-0.5,6.5c0.4,2.8,1,5.5,0.8,8.4
	c-1.1,17.6-3.2,35-4.2,52.7c-0.4,8.3-0.9,30-1.8,32.4c2,0.4,39,1.5,42.6,1.6c4.7,0.2,5.9-0.4,6.4-3.5c1.1-6.2,0.3-11.9,1.3-7.4
	c0.7,3.4,1,7.6,2.4,10.9c7.9-1,45-1.7,48.5-0.9c0.3-2.9,0.2-5.7-0.1-8.6c-4.1-44.6-15.1-89.3-14.6-92.4
	C130.9,324.9,64.9,327.1,52.3,326.3z"/>
<path fill="#2AB209" d="M109.3,503.9c8.7-0.9,19.2,3.6,26.8,6.2c10.5,3.6,19.8,8,25,15.4c3.3,4.7,6.6,12.7,3.6,17.7
	c-4,6.7-11.2,9.2-21.3,10.7c-16.6,2.5-37.5,2.2-47.9-8.6C81.3,530.6,109.3,503.9,109.3,503.9z"/>
<path fill="#2AB209" d="M69.9,502.2c11.4,6.7,24,28.2,19.1,39.6c-6.7,15.4-35.7,14.2-51.4,11.4c-18.5-3.3-27.8-18.5-19.6-31
	C25.2,511.2,69.9,502.2,69.9,502.2z"/>
<g>
	<path fill="#155E00" d="M65.9,523.2c-2.1-1.5-5.4-1.9-9.3-2l0,0c-0.2,0-0.4,0-0.7,0l0,0c-2.7,0-6.6,0.5-7.8,1.2l0,0l0,0
		c-1.2,0.6-2.9,0.5-3.8-0.4l0,0c-0.9-0.8-0.7-2,0.5-2.7l0,0c3.2-1.6,7.6-1.9,11-2l0,0c0.3,0,0.7,0,1.1,0l0,0c4,0.1,8.9,0.5,12.7,3.1
		l0,0c1.1,0.7,1.1,1.9,0,2.7l0,0c-0.5,0.4-1.2,0.6-1.9,0.6l0,0C67.1,523.7,66.4,523.6,65.9,523.2L65.9,523.2z"/>
</g>
<g>
	<path fill="#155E00" d="M63.2,534.9c-1.3-1-6.4-2-9.5-2.2l0,0c-1.2-0.1-2.5-0.2-3.8-0.2l0,0c-2.2,0-4.3,0.3-5.9,0.9l0,0
		c-1.3,0.5-2.9,0.1-3.6-0.8l0,0c-0.7-0.9-0.2-2.1,1.2-2.6l0,0c2.7-1,5.6-1.3,8.4-1.3l0,0c1.6,0,3.2,0.1,4.6,0.3l0,0
		c3.4,0.4,8.8,1,12.3,3.3l0,0c1.1,0.7,1.1,1.9,0.1,2.7l0,0c-0.5,0.4-1.2,0.6-1.9,0.6l0,0C64.4,535.4,63.7,535.2,63.2,534.9
		L63.2,534.9z"/>
</g>
<g>
	<path fill="#155E00" d="M109.9,523.5c-1.3-0.6-1.7-1.7-0.9-2.6l0,0c1.8-2,4.7-2.9,7.9-3.7l0,0c3.2-0.7,6.7-1.1,9.8-1.1l0,0
		c2.1,0,4,0.1,5.7,0.7l0,0c1.4,0.4,2,1.6,1.3,2.5l0,0c-0.6,1-2.2,1.4-3.5,1l0,0c-0.4-0.2-1.8-0.3-3.5-0.3l0,0
		c-2.5,0-5.6,0.3-8.2,0.9l0,0c-2.6,0.6-4.6,1.5-4.9,2l0,0l0,0c-0.5,0.6-1.4,0.9-2.3,0.9l0,0C110.8,523.7,110.3,523.6,109.9,523.5
		L109.9,523.5z"/>
</g>
<g>
	<path fill="#155E00" d="M113.7,532.9c-1.1-0.7-1.1-1.9-0.1-2.7l0,0c3.9-2.8,10.9-4.4,17.1-4.4l0,0c1.9,0,3.8,0.2,5.5,0.6l0,0
		c1.4,0.4,2.1,1.5,1.6,2.5l0,0c-0.5,1-2.1,1.5-3.5,1.1l0,0c-0.9-0.2-2.2-0.4-3.6-0.4l0,0c-4.7-0.1-11.2,1.6-13.3,3.3l0,0
		c-0.5,0.4-1.2,0.6-1.9,0.6l0,0C114.9,533.5,114.2,533.3,113.7,532.9L113.7,532.9z"/>
</g>
<line fill="none" stroke="#7C3708" stroke-width="2" stroke-miterlimit="10" x1="94.5" y1="414.6" x2="94.4" y2="379.6"/>
<path id="skin_arm_1" fill="#C49E72" d="M18.9,351.2c0,0-0.1,0-0.1,0c-1.2-0.1-2.1-1.1-2-2.2c0.1-1.4,1.8-35.6,3.2-46.7
	c1.7-13.6,17.5-79.9,18.1-82.7c0.3-1.1,1.4-1.8,2.6-1.6c1.1,0.3,1.8,1.4,1.6,2.6c-0.2,0.7-16.4,68.9-18,82.3
	c-1.4,10.9-3.1,46-3.2,46.3C20.9,350.3,20,351.2,18.9,351.2z"/>
<path id="skin_arm_2" fill="#C49E72" d="M156.8,351.2c-1.1,0-2-0.8-2.1-1.9c0-0.3-2.8-33.5-4.2-44.4c-1.7-13.4-8.4-53.8-8.4-54.2
	c-0.2-1.2,0.6-2.3,1.8-2.4c1.1-0.2,2.3,0.6,2.4,1.7c0.1,0.4,6.8,40.8,8.5,54.4c1.4,11,4.1,44.2,4.2,44.6c0.1,1.2-0.8,2.2-1.9,2.3
	C156.9,351.2,156.9,351.2,156.8,351.2z"/>
<circle id="skin_face" fill="#C49E72" cx="88.8" cy="101.4" r="69.7"/>
<path fill-rule="evenodd" clip-rule="evenodd" d="M171.5,55.8c-1.5-5.5-5-8.4-6.5-10.4c-0.7-0.9,4.4-1.8,4.4-1.8
	c-13.7-18.8-15-21.1-31.2-29.5c4.5-2.5-3-2.5-10.5-7.1c3.3-0.3-22.6-11.3-43.7-4.3c3.5-4.5-18.9-3-23.3,2c-2.5-3-10.7,0.6-9.3,2.1
	C40.8,9.4,29,18,33.6,16.2c-11.7,8.4-3.2,8.4-17.9,17.2c-4.3,2.7-9.8,23.9-6.5,21.4c-1.8,3-4.8,2.3-6.1,8.7c0.9-2.1,4-1.4,3.7,2.6
	C6.4,69.4,0,82,0,82s4-1.9,4.2,3.1c0.3,5.8-2.8,10.2,1.6,17.8c5.5,9.5,7.2,6.9,7.4,9.5c0.5,7.1,7.1,7.9,9.5,7.9
	c-4-6.3-1.9-21-2-24.5c0-3.2,0.2-6.1,0.8-8.8c0.5,3.5,1.6,8.8,2.3,9.8c-0.6-4.2,1.3-17.7,3.1-20.9c4.5-7.4,10.4-10.6,23.3-18.5
	c-5.1,7.1-8.3,11.7-9.2,18.7c3.8-7.5,10.2-12.3,17.6-17.8c-3.1,4.8-6.6,6.6-8,12.1c9.4-9.2,18.5-16.2,34.8-19.9
	c-5.3,5.8-6.4,12.2-6.9,18.7c3-5.1,6.1-10.1,11.5-13.9c-1.5,4.9-0.4,8.6,1.1,12.2c2.4-4.8,5.3-9.4,11.3-12.9
	c-1.8,4.2-1.6,7.5-0.4,10.5c1.4-4.8,3.9-8.6,8.9-10.2c9,5.4,18.1,10,26.4,19.5c0.7-5.3-1.4-10.2-4.9-14.8c5.8,3.9,9.9,9.4,12.2,16.5
	c1.3-2.1,1.7-4.8,1.3-8c5.7,8.4,5.7,7.5,7,12.6c-1.5,7.4,3,8.4,1.5,16.4c0.3-0.2-1.2,5.3-1,5c0,0.5,3.5,3.7,3.5,4
	c-0.3,1.8-0.8-1.6,1.6-0.3c0,0.1,0,0.3,0,0.4c-0.2,3.6-0.8,11.8-2.4,14.1c3.4-5.2,8.5-13.2,9.3-17.4c1.8-9.3,5.3-4.1,5-7.5
	c-0.6-8.7,3.4-25.6-1.1-34.1C169.4,61,170.2,53.7,171.5,55.8z"/>
<g>
	<ellipse fill="#000100" stroke="#000100" stroke-width="3" cx="109.1" cy="87.3" rx="3.1" ry="3.1"/>
	<circle fill="#000100" stroke="#000100" stroke-width="3" cx="69.9" cy="87.3" r="3.1"/>
	<g>
		<path fill="#000100" d="M80.6,152.6c-26.3-7.3-33-28.3-34.8-33.5l0,0c-0.4-1-0.1-2.2,0.6-2.7l0,0c0.7-0.5,1.6-0.1,1.9,0.9l0,0
			c1.8,5.1,7.4,24,32.8,31.3l0,0c2.5,0.7,5.1,1.1,7.8,1.1l0,0c15.4,0,32.6-11.6,38.4-34.9l0,0c0.3-1.1,1.1-1.6,1.8-1.2l0,0
			c0.7,0.4,1.1,1.5,0.9,2.6l0,0c-6.4,25.4-24.8,37.6-41.1,37.6l0,0C86.1,153.8,83.3,153.4,80.6,152.6L80.6,152.6z"/>
	</g>
</g>
<path fill="#9D35F9" d="M82.5,183.5c-4.4,2.2-33.5,7.9-41.2,13.6c-8.5,6.3-19.6,50.9-21.6,53.4c6.7,2.2,21.1,8.5,27.2,11.4
	c4-9.9,3.9-16.3,3.9-16.3c0.5,1.5-0.9,12.6-1.2,16.6c-2.9,37.2-3.2,78.8-3.6,78.8c17.9,0.6,26,0.6,44,0.9
	c22.3,0.4,41.8,1.5,45.6-1.4c-0.9-3.4-5.3-40.5-7.4-77.5c-0.1-1.9-0.5-12.7-0.6-13.6c-0.5-3.9,1.7,7.4,4.6,11.5
	c10.2-6,10.7-5.6,21.7-10.9c-2.5-1.9-12.5-51.8-32.9-57.5c-5.8-1.6-18.8-6.5-29-8.5C89.7,194.6,81.8,188.3,82.5,183.5z"/>
</svg>
