<?xml version="1.0" encoding="utf-8"?>
<svg version="1.1" id="Layer_1" xmlns="http://www.w3.org/2000/svg" xmlns:xlink="http://www.w3.org/1999/xlink" x="0px" y="0px"
	 width="162.2px" height="540.8px" viewBox="0 0 162.2 540.8" enable-background="new 0 0 162.2 540.8" xml:space="preserve">
<path id="skin_leg_1" fill="#C49E72" d="M62.3,494.8C62.3,494.8,62.3,494.8,62.3,494.8c-1.6,0-2.9-1.3-2.8-2.9L62,361.8
	c0-1.5,1.3-2.8,2.8-2.8c0,0,0,0,0.1,0c1.6,0,2.8,1.3,2.8,2.9l-2.5,130.1C65.1,493.6,63.8,494.8,62.3,494.8z"/>
<path id="skin_leg_2" fill="#C49E72" d="M102.7,494.8c-1.6,0-2.8-1.3-2.8-2.8l-0.8-125.9c0-1.6,1.3-2.8,2.8-2.9c0,0,0,0,0,0
	c1.6,0,2.8,1.3,2.8,2.8l0.8,125.9C105.5,493.5,104.3,494.8,102.7,494.8C102.7,494.8,102.7,494.8,102.7,494.8z"/>
<path id="skin_hand_1" fill="#C49E72" d="M4.7,339.1c0.1-0.4,0.4-1.1,0.8-1.6c2.5-4.5,5-3.2,8.1-2.5c3.9,0.9,7.5,7.1,7.7,7.4
	l6.1,16.4c0.5,0.7,0.3,1.7-0.5,2.2c-0.7,0.5-1.7,0.3-2.2-0.5l-5.8-15.9l-0.9-0.3l0.9,30.2c0.1,0.9-0.5,1.6-1.4,1.7
	c-0.5,0.1-1-0.2-1.3-0.5c-0.2-0.2-0.4-0.5-0.4-0.9l-1.2-31.2c0-0.2,0-0.4,0.1-0.6c-0.4-0.2-0.8-0.4-1.1-0.5l-0.7,36.4
	c0,0.9-0.7,1.6-1.6,1.5c-0.4,0-0.8-0.2-1.1-0.5s-0.4-0.7-0.4-1.1l0.7-36.2c-1.2,0.9-0.4-0.2-0.6,0.5l-2.3,29.7
	c-0.1,0.9-0.8,1.6-1.6,1.5c-0.4,0-0.7-0.2-1-0.5s-0.5-0.8-0.4-1.3L7,344.4l-0.7-0.2l-4,20.4c-0.2,0.8-0.5,1-1.3,0.7
	c-0.2-0.1-0.5-0.2-0.6-0.4c-0.3-0.4-0.5-0.9-0.3-1.4l4.5-23.8c0-0.1,0-0.1,0.1-0.2L4.7,339.1z"/>
<path id="skin_hand_2" fill="#C49E72" d="M155.6,338.5c-0.2-0.4-0.5-1-0.9-1.5c-2.8-4.3-5.3-2.8-8.2-1.9c-3.8,1.2-7,7.6-7.1,7.9
	l-4.9,16.8c-0.4,0.8-0.1,1.7,0.6,2.1c0.8,0.4,1.7,0.1,2.1-0.6l4.6-16.3l0.9-0.4l1.4,30.1c0,0.9,0.7,1.6,1.5,1.6c0.5,0,1-0.2,1.3-0.6
	c0.2-0.3,0.3-0.6,0.3-0.9l-1.2-31.2c0-0.2,0-0.4-0.1-0.6c0.4-0.2,0.8-0.4,1.1-0.6l3.4,36.2c0.1,0.9,0.8,1.5,1.7,1.4
	c0.4,0,0.8-0.3,1.1-0.6c0.2-0.3,0.4-0.7,0.3-1.1l-3.4-36c1.3,0.8,0.4-0.2,0.6,0.5l4.6,29.5c0.2,0.8,0.9,1.5,1.7,1.4
	c0.4-0.1,0.7-0.3,0.9-0.6c0.3-0.4,0.4-0.8,0.3-1.3l-4.6-28l0.7-0.3l5.5,20.1c0.3,0.7,0.6,0.9,1.3,0.6c0.2-0.1,0.4-0.3,0.6-0.4
	c0.3-0.4,0.4-0.9,0.2-1.4l-6.2-23.4c0-0.1-0.1-0.1-0.1-0.2L155.6,338.5z"/>
<path fill="#4B68F9" d="M101.4,489.4c8.7-0.9,19.2,3.6,26.8,6.2c10.5,3.6,19.8,8,25,15.4c3.3,4.7,6.6,12.7,3.6,17.7
	c-4,6.7-11.2,9.2-21.3,10.7c-16.6,2.5-37.5,2.2-47.9-8.6C73.4,516.1,101.4,489.4,101.4,489.4z"/>
<path fill="#4B68F9" d="M62,487.6c11.4,6.7,24,28.2,19.1,39.6c-6.7,15.4-35.7,14.2-51.4,11.4c-18.5-3.3-27.8-18.5-19.6-31
	C17.3,496.6,62,487.6,62,487.6z"/>
<g>
	<path fill="#274FE0" d="M58,508.7c-2.1-1.5-5.4-1.9-9.3-2l0,0c-0.2,0-0.4,0-0.7,0l0,0c-2.7,0-6.6,0.5-7.8,1.2l0,0l0,0
		c-1.2,0.6-2.9,0.5-3.8-0.4l0,0c-0.9-0.8-0.7-2,0.5-2.7l0,0c3.2-1.6,7.6-1.9,11-2l0,0c0.3,0,0.7,0,1.1,0l0,0c4,0.1,8.9,0.5,12.7,3.1
		l0,0c1.1,0.7,1.1,1.9,0,2.7l0,0c-0.5,0.4-1.2,0.6-1.9,0.6l0,0C59.2,509.2,58.5,509,58,508.7L58,508.7z"/>
</g>
<g>
	<path fill="#274FE0" d="M55.3,520.3c-1.3-1-6.4-2-9.5-2.2l0,0c-1.2-0.1-2.5-0.2-3.8-0.2l0,0c-2.2,0-4.3,0.3-5.9,0.9l0,0
		c-1.3,0.5-2.9,0.1-3.6-0.8l0,0c-0.7-0.9-0.2-2.1,1.2-2.6l0,0c2.7-1,5.6-1.3,8.4-1.3l0,0c1.6,0,3.2,0.1,4.6,0.3l0,0
		c3.4,0.4,8.8,1,12.3,3.3l0,0c1.1,0.7,1.1,1.9,0.1,2.7l0,0c-0.5,0.4-1.2,0.6-1.9,0.6l0,0C56.5,520.9,55.8,520.7,55.3,520.3
		L55.3,520.3z"/>
</g>
<g>
	<path fill="#274FE0" d="M102,508.9c-1.3-0.6-1.7-1.7-0.9-2.6l0,0c1.8-2,4.7-2.9,7.9-3.7l0,0c3.2-0.7,6.7-1.1,9.8-1.1l0,0
		c2.1,0,4,0.1,5.7,0.7l0,0c1.4,0.4,2,1.6,1.3,2.5l0,0c-0.6,1-2.2,1.4-3.5,1l0,0c-0.4-0.2-1.8-0.3-3.5-0.3l0,0
		c-2.5,0-5.6,0.3-8.2,0.9l0,0c-2.6,0.6-4.6,1.5-4.9,2l0,0l0,0c-0.5,0.6-1.4,0.9-2.3,0.9l0,0C102.9,509.2,102.5,509.1,102,508.9
		L102,508.9z"/>
</g>
<g>
	<path fill="#274FE0" d="M105.8,518.4c-1.1-0.7-1.1-1.9-0.1-2.7l0,0c3.9-2.8,10.9-4.4,17.1-4.4l0,0c1.9,0,3.8,0.2,5.5,0.6l0,0
		c1.4,0.4,2.1,1.5,1.6,2.5l0,0c-0.5,1-2.1,1.5-3.5,1.1l0,0c-0.9-0.2-2.2-0.4-3.6-0.4l0,0c-4.7-0.1-11.2,1.6-13.3,3.3l0,0
		c-0.5,0.4-1.2,0.6-1.9,0.6l0,0C107,518.9,106.4,518.8,105.8,518.4L105.8,518.4z"/>
</g>
<path id="skin__arm_1" fill="#C49E72" d="M11,336.6c0,0-0.1,0-0.1,0c-1.2-0.1-2.1-1.1-2-2.2c0.1-1.4,1.8-35.6,3.2-46.7
	c1.7-13.5,12.9-68.7,13.4-71.1c0.2-1.1,1.4-1.9,2.5-1.7c1.2,0.2,1.9,1.4,1.7,2.5c-0.1,0.6-11.7,57.4-13.4,70.7
	c-1.4,10.9-3.2,46-3.2,46.3C13.1,335.7,12.1,336.6,11,336.6z"/>
<path id="skin_arm_2" fill="#C49E72" d="M149,336.6c-1.1,0-2-0.8-2.1-1.9c0-0.3-2.8-33.5-4.2-44.4c-1.7-13.3-15.4-68.3-15.6-68.8
	c-0.3-1.1,0.4-2.3,1.5-2.6c1.1-0.3,2.3,0.4,2.6,1.5c0.6,2.3,14,55.8,15.6,69.4c1.4,11,4.2,44.3,4.2,44.6c0.1,1.2-0.8,2.2-1.9,2.3
	C149.1,336.6,149.1,336.6,149,336.6z"/>
<path id="skin_neck" fill="#C49E72" d="M80.4,174.7c-2.7,0-5-2.3-5-5.1c0-4-0.1-8-0.3-12c0-1.3-0.1-2.6-0.1-4
	c-0.1-2.8-0.2-5.6-0.2-8.5c0-2.8,2.2-5.1,5-5.1c2.7,0,5,2.3,5,5.1c0,1.3,0,5.4,0.3,12c0,1.3,0.1,2.6,0.1,3.9
	c0.1,2.8,0.2,5.7,0.2,8.5C85.4,172.4,83.1,174.7,80.4,174.7z"/>
<path fill="#FF6700" d="M115.6,236.6c-1.1-5.1-2.5-11.7-1.2-11.6c0.7,0.1,3,6.8,4.4,6.3s3.1-1.6,5.2-4c15.5-11.4,16.9-9.8,18-14.8
	c-2.4-2-7.7-24.7-28.1-36.5c-5.2-3-18.7-9.7-28.9-11.8c-2.4,10.5-10.3,4.2-9.5-0.6c-4.4,2.1-29.5,10.5-37.4,16.1
	c-8.6,6.2-18.4,31.6-20.4,34c7,8.7,20.7,18.4,26.8,21.3c5.7-3.5,4.5-9.7,4.5-9.7c0.4,1.5,0.6,17.8,0,21.8
	c-4.7,32.4-4.9,134.1-5.7,136.5c2,0.4,68,4.7,91.1,0.3c0.3-2.9-3.2-31.2-3.4-34.1C128,316.1,122.2,266.8,115.6,236.6z"/>
<path fill="#000100" d="M101.3,224.2c-1.8,0-1.1-1.6-3.8-2.8C90,218,93,214.1,93,209.9s-6.4-12.3-2.1-19.1c-1-2.2-8.3-10-2.9-11.3
	c-3.5-5-2.4-4.7-0.8-8.7c0.7-1.9-0.8-8.2,0-10.5c1.6-3.6-1.2-15.2,6.9-22c3.1-2.6-5.4-12.8-8.1-10.3c1.4-4.2,18.6,3.4,23.3,1.7
	c-2.8,4.9-9.6,10.7-9.6,10.7l8.8,12.7c0.7,6.5,9,4.2,8.3,14.3c-0.2,2.2,1.8,6.1,0.6,8.5c-4.4,9.1-10.8-4.3-5.1,8.6
	c0.6,1.3-14.1,5.7-1.2,12.5c7.1,3.8-0.8,9.6-1.5,10.6c-5.3,6.7,3.7,17.7,3.9,18.1c7.2,12.7-6.6,9.6-9.9,14.5
	c-0.8,1.1-5.8,4.5,2.3,3.8c2.8-0.2,5,11,2.3,12.6c-2,1.2-6.6,9.7,1.2,8c5.2-1.2,4.5,11.7,2.9,11.1c-0.6-0.2-7.6-2.4-9.8-4.2
	c-3.9-1.5-5.8-16-0.3-21.5c0.7-5.8-9.1,0.6-7.4-11.6c10.7-9.8,5.6-5.6,3.9-7.3C92.1,224.9,100.7,225.1,101.3,224.2z"/>
<circle id="skin_face" fill="#C49E72" cx="82" cy="88.6" r="66.6"/>
<g>
	<ellipse fill="#000100" stroke="#000100" stroke-width="3" cx="100.6" cy="78.9" rx="2.9" ry="3"/>
	<circle fill="#000100" stroke="#000100" stroke-width="3" cx="63.6" cy="78.9" r="2.9"/>
	<g>
		<path fill="#000100" d="M73.7,140.6c-24.8-6.9-31.2-26.7-32.8-31.7l0,0c-0.3-1-0.1-2.1,0.6-2.6l0,0c0.7-0.5,1.5-0.1,1.8,0.9l0,0
			c1.7,4.8,6.9,22.7,30.9,29.6l0,0c2.4,0.7,4.8,1,7.4,1l0,0c14.5,0,30.7-11,36.2-32.9l0,0c0.2-1,1-1.5,1.7-1.2l0,0
			c0.7,0.4,1.1,1.5,0.8,2.5l0,0c-6,24-23.4,35.5-38.8,35.5l0,0C78.9,141.6,76.3,141.3,73.7,140.6L73.7,140.6z"/>
	</g>
</g>
<path fill="#000100" d="M12,38.5c-1.2,2.1-6.8,5.3-5,8.5c-9.9,6.8-3,16.2-3.2,18.3c-0.6,3-0.9,5.7-0.9,7.8c0,2.1-2.4,7.3-1.7,15
	c0.7,8.3,9.1,7.3,7.2,12.7C4.3,113,12,113,16.2,114c-2.3,3.3-2.5,2.8-0.5,6.8c2.6,5.4,5.7,4.8,6.2,5.9c1.4,3.3-4.7,1-2.1,6.3
	c1.5,3.1,4.5,3.6,5.1,5.1c2,4.6-3.1,7.1,2.1,7.6c1.6,0.2,3.9-6.6,4.7-8.3c0.8-1.9-4.6-3-4.6-4.9c-0.1-2.4,2.9-3.9,1-4.4
	c2.1-0.9-1.1-4.6-2.1-8.3c-1.2-4.6-1-14.2-5.2-11.7c7.2-5.9,1.2-8.6,2.1-8.8c2.1-4.2,4.7-3.9,3.6-10.7c-0.2-1.4-5.2-0.7-4.7-2.9
	c0.5-2.2,2.6,2.9,3.6-1c2.3-13.9,2.6-14,1.6-17.6c7.8-2,9.3-9.5,5.7-13.2c4.1,4.5,11.2-1.7,14-3.9c2.8-1.7,3.3,2.8,27.9-10.7
	c16-8.8,32.8-6,34.1-2.9c-1.5,6.8,10.9,12.7,15,11.7c2-0.5,3,1.1,4.7,2.9c6.2,6.8,8.8-2.9,7.1,9.8c-0.2,1.2,13.8,1.4,4.2,10.7
	c-5.3,5.1,1.5,9,2.4,9.6c6.4,4.5,0.3,13,0.2,13.3c-2.6,6.8-1.6,15.1,2.6,18.6c1,0.8,6.2,2.4-1,3.9c-2.5,0.5-0.7,10.6,2.1,11.2
	c2.1,0.5,8.3,6.8,1,7.3c-4.9,0.3-1.8,11.7-0.5,10.7c0.4-0.3,1.6-2.8,3.1-4.9c3-2.3,3.6-16.1-2.6-19.5c-2.1-4.9,12.4-3.4,7.8-13.7
	c-11.9-5.9-0.1-1.5,1-3.4c4.1-7.3-1.3-10.6-2.1-11.2c1.5-0.5,0.6-1.7,2.6-3.4c5.7-4.9,2.1-7.6,1-11.2c-1.1-3.7,4.1-13.2-1.4-18
	c0.3-2.2,4.7-10.9-0.4-10.6c1.8-5.3-3.4-6.5-5.8-9.6c-1.1-1.5-1.4-7.4-2.7-9.1c-2.3-2.8-5.8-5.6-8.6-8s-5.8-6.9-8.9-6.5
	c-2.7-4-6.7-5.4-12.7-5.2c0.1-6.3-10.9-8.7-19.5-8.9c-1.8,0-2.5,0-4.2-0.4c-2.3-0.1-6-2.5-8.3-2.4c-3.4,0.1-4.4,3-7.8,3.4
	c-3.4,0.3-9-4.3-11-0.2c-2-1.5-10.6-1.2-11.3,0.2c-2.4,0.2-17.1,2.8-17,10c1-0.6-4.4-3.3-6.2,1.6c-4.6,0.2-8.7,6.1-10,6.7
	C11.6,24.5,13.6,35.8,12,38.5z"/>
</svg>
