<?xml version="1.0" encoding="utf-8"?>
<!-- Generator: Adobe Illustrator 16.0.0, SVG Export Plug-In . SVG Version: 6.00 Build 0)  -->
<!DOCTYPE svg PUBLIC "-//W3C//DTD SVG 1.1//EN" "http://www.w3.org/Graphics/SVG/1.1/DTD/svg11.dtd">
<svg version="1.1" id="Layer_1" xmlns="http://www.w3.org/2000/svg" xmlns:xlink="http://www.w3.org/1999/xlink" x="0px" y="0px"
	 width="126.604px" height="336.262px" viewBox="0 0 126.604 336.262" enable-background="new 0 0 126.604 336.262"
	 xml:space="preserve">
<g>
	
		<path fill="#50A547" stroke="#000000" stroke-width="0.75" stroke-linecap="round" stroke-linejoin="round" stroke-miterlimit="10" d="
		M89.505,215.28c0,0-5.074,8.458-12.686,10.995s-7.611,13.531-7.611,13.531l-0.775,5.425c-0.025-0.695-0.049-1.367-0.069-2
		c-0.058-1.833,0.034-132.245-1.718-132.245s-3.172,1.487-3.172,3.321c0,0-0.775,145.868,0.66,194.461
		c0.424,14.339-2.854,23.157,4.229,26.569c1.592,0.767,5.919,0.949,5.919-0.886c0,0-3.879-50.714-5.402-79.6
		c7.519-2.783,10.351-8.414,13.438-13.354C86.546,234.732,89.505,215.28,89.505,215.28z"/>
	<path fill="#3D8A41" d="M87.392,220.354c0,0-7.188,14.8-12.262,20.72c-3.691,4.308-7.611,7.611-7.611,7.611
		s-0.627,7.017-0.846,9.726c-1.497,18.49,5.496,73.999,5.496,73.999c0-0.001-5.552-78.219-4.228-78.65
		c1.604-0.523,6.138-3.464,9.302-7.188C84.433,238.114,87.392,220.354,87.392,220.354z"/>
</g>
<path fill="#FCAF17" stroke="#010101" stroke-linecap="round" stroke-linejoin="round" stroke-miterlimit="10" d="M66.366,0.998
	c-6.016-1.735-13.579,1.55-15.495,2.454c0,0-10.431-0.304-15.774,4.568c-23.382,21.316,14.454,41.8,17.898,43.505
	c4.978,2.473,9.366,11.296,9.366,11.296l3.62-0.847c0,0,0.164-9.624,3.542-14.036C71.858,44.884,96.759,9.796,66.366,0.998z"/>
<path fill="#FCAF17" stroke="#010101" stroke-linecap="round" stroke-linejoin="round" stroke-miterlimit="10" d="M4.683,43.84
	c-3.514,5.186-2.729,13.392-2.457,15.499c0,0-3.506,9.831-0.523,16.414c13.041,28.817,44.215-0.839,46.904-3.584
	c3.883-3.97,13.631-5.413,13.631-5.413l0.322-3.712c0,0-9.109-3.124-12.261-7.698C48.115,52.177,22.438,17.66,4.683,43.84z"/>
<path fill="#FCAF17" stroke="#010101" stroke-linecap="round" stroke-linejoin="round" stroke-miterlimit="10" d="M25.565,115.723
	c3.843,4.944,11.893,6.73,13.979,7.122c0,0,8.262,6.378,15.449,5.578c31.441-3.504,12.87-42.317,11.082-45.716
	c-2.573-4.926-0.938-14.642-0.938-14.642l-3.426-1.449c0,0-5.784,7.691-11.113,9.278C46.916,76.989,6.147,90.745,25.565,115.723z"/>
<path fill="#FCAF17" stroke="#010101" stroke-linecap="round" stroke-linejoin="round" stroke-miterlimit="10" d="M100.378,118.075
	c5.89-2.131,10.078-9.234,11.092-11.095c0,0,8.623-5.882,10.082-12.965c6.384-30.983-36.266-25.32-40.055-24.673
	c-5.477,0.928-14.215-3.63-14.215-3.63l-2.435,2.809c0,0,5.53,7.879,5.392,13.436C70.138,85.799,70.624,128.821,100.378,118.075z"/>
<path fill="#FCAF17" stroke="#010101" stroke-linecap="round" stroke-linejoin="round" stroke-miterlimit="10" d="M126.085,47.199
	c-0.203-6.261-5.665-12.438-7.118-13.981c0,0-2.94-10.014-9.221-13.592C82.253,3.98,74.461,46.295,73.904,50.096
	c-0.809,5.499-7.847,12.395-7.847,12.395l1.923,3.189c0,0,9.203-2.826,14.442-0.98C86.048,65.982,127.115,78.815,126.085,47.199z"/>
<path fill="#010101" d="M61.493,58.97c-7.86-29.517-9.489-43.561-9.489-43.561S56.554,31.006,61.493,58.97z"/>
<path fill="#010101" d="M58.849,63.639c-30.501-1.645-44.368-4.442-44.368-4.442S30.724,59.694,58.849,63.639z"/>
<path fill="#010101" d="M61.767,69.103c-10.989,28.502-17.932,40.823-17.932,40.823S49.318,94.632,61.767,69.103z"/>
<path fill="#010101" d="M67.861,68.023c23.716,19.258,33.29,29.668,33.29,29.668S88.296,87.742,67.861,68.023z"/>
<path fill="#010101" d="M69.071,61.433c25.643-16.599,38.502-22.481,38.502-22.481S94.141,48.098,69.071,61.433z"/>
<circle fill="#ED1C24" stroke="#010101" stroke-linecap="round" stroke-linejoin="round" stroke-miterlimit="10" cx="65.266" cy="65.914" r="17.991"/>
<path opacity="0.62" fill="#B91319" d="M51.949,74.9c0,0,7.606,6.711,18.793,1.343c11.184-5.369,5.814-21.924,5.814-21.924
	s10.847,13.139-0.445,22.818C63.583,87.875,51.949,74.9,51.949,74.9z"/>
</svg>
