<?xml version="1.0" encoding="utf-8"?>
<!-- Generator: Adobe Illustrator 16.0.0, SVG Export Plug-In . SVG Version: 6.00 Build 0)  -->
<!DOCTYPE svg PUBLIC "-//W3C//DTD SVG 1.1//EN" "http://www.w3.org/Graphics/SVG/1.1/DTD/svg11.dtd">
<svg version="1.1" id="Layer_1" xmlns="http://www.w3.org/2000/svg" xmlns:xlink="http://www.w3.org/1999/xlink" x="0px" y="0px"
	 width="158.895px" height="157.145px" viewBox="0 0 158.895 157.145" enable-background="new 0 0 158.895 157.145"
	 xml:space="preserve">
<path fill="#ED1C24" stroke="#010101" stroke-linecap="round" stroke-linejoin="round" stroke-miterlimit="10" d="M92.047,1.871
	c-7.123-3.053-16.916-0.173-19.406,0.645c0,0-12.766-1.967-20.076,3.199C20.59,28.322,63.93,59.266,67.9,61.887
	c5.736,3.797,9.777,15.305,9.777,15.305l4.578-0.486c0,0,1.67-11.795,6.492-16.699C92.084,56.612,128.031,17.322,92.047,1.871z"/>
<path fill="#ED1C24" stroke="#010101" stroke-linecap="round" stroke-linejoin="round" stroke-miterlimit="10" d="M9.734,45.062
	c-5.107,5.833-5.396,16.031-5.385,18.66c0,0-5.811,11.539-3.154,20.08c11.613,37.389,54.436,5.729,58.158,2.768
	c5.377-4.283,17.572-4.565,17.572-4.565l0.961-4.51c0,0-10.711-5.229-13.881-11.329C61.807,61.941,35.545,15.619,9.734,45.062z"/>
<path fill="#ED1C24" stroke="#010101" stroke-linecap="round" stroke-linejoin="round" stroke-miterlimit="10" d="M24.395,136.545
	c3.967,6.66,13.582,10.084,16.082,10.883c0,0,9.172,9.098,18.123,9.213c39.152,0.502,22.277-50.008,20.6-54.457
	c-2.408-6.443,1.086-18.127,1.086-18.127l-3.986-2.304c0,0-8.279,8.563-15.068,9.699C56.541,92.233,4.365,102.896,24.395,136.545z"
	/>
<path fill="#ED1C24" stroke="#010101" stroke-linecap="round" stroke-linejoin="round" stroke-miterlimit="10" d="M115.926,150.869
	c7.561-1.717,13.789-9.801,15.32-11.932c0,0,11.49-5.906,14.365-14.383c12.576-37.079-40.674-36.643-45.426-36.428
	c-6.871,0.303-16.906-6.632-16.906-6.632l-3.418,3.079c0,0,5.586,10.521,4.566,17.327C83.717,106.604,77.738,159.52,115.926,150.869
	z"/>
<path fill="#ED1C24" stroke="#010101" stroke-linecap="round" stroke-linejoin="round" stroke-miterlimit="10" d="M158.334,67.745
	c0.709-7.722-5.057-16.144-6.605-18.261c0,0-2.08-12.749-9.246-18.104c-31.377-23.42-47.416,27.363-48.682,31.946
	c-1.834,6.63-11.531,14.024-11.531,14.024l1.873,4.211c0,0,11.734-2.064,17.889,1.003
	C106.287,84.695,154.768,106.735,158.334,67.745z"/>
<path fill="#010101" d="M77.199,72.328c-5.143-37.455-4.996-54.953-4.996-54.953S75.408,37.228,77.199,72.328z"/>
<path fill="#010101" d="M73.238,77.66c-37.211-6.682-53.816-12.238-53.816-12.238S39.297,68.515,73.238,77.66z"/>
<path fill="#010101" d="M75.986,84.816c-17.854,33.328-28.264,47.4-28.264,47.4S56.795,114.271,75.986,84.816z"/>
<path fill="#010101" d="M83.639,84.422c26.186,27.279,36.352,41.529,36.352,41.529S105.723,111.766,83.639,84.422z"/>
<path fill="#010101" d="M86.131,76.513c34.033-16.468,50.727-21.728,50.727-21.728S118.961,63.966,86.131,76.513z"/>
<circle fill="#FFE100" stroke="#010101" stroke-linecap="round" stroke-linejoin="round" stroke-miterlimit="10" cx="80.771" cy="81.435" r="22.267"/>
<path fill="#E7C51F" d="M62.99,91.863c0,0,9.873,9.625,24.392,2.831c14.519-6.794,7.55-27.743,7.55-27.743s12.059,17,0,28.309
	C78.851,110.342,62.99,91.863,62.99,91.863z"/>
</svg>
