<?xml version="1.0" encoding="utf-8"?>
<!-- Generator: Adobe Illustrator 16.0.0, SVG Export Plug-In . SVG Version: 6.00 Build 0)  -->
<!DOCTYPE svg PUBLIC "-//W3C//DTD SVG 1.1//EN" "http://www.w3.org/Graphics/SVG/1.1/DTD/svg11.dtd">
<svg version="1.1" id="Layer_1" xmlns="http://www.w3.org/2000/svg" xmlns:xlink="http://www.w3.org/1999/xlink" x="0px" y="0px"
	 width="284.027px" height="239px" viewBox="0 0 284.027 239" enable-background="new 0 0 284.027 239" xml:space="preserve">
<path id="complete" fill="#ED1C24" stroke="#231F20" stroke-width="3" stroke-linecap="round" stroke-linejoin="round" stroke-miterlimit="10" d="
	M268.153,1.5H29.847C14.191,1.5,1.5,14.191,1.5,29.847v179.307c0,15.654,12.691,28.347,28.349,28.347h10.679
	c0.533-23.837,20.009-43,43.975-43s43.441,19.163,43.977,43h86.051c0.457-20.414,14.808-37.388,33.975-41.845
	c3.214-0.747,6.561-1.155,10-1.155c8.857,0,17.099,2.626,24,7.129V116.5V29.847C282.5,14.191,283.809,1.5,268.153,1.5z M84.5,130.5
	h-68v-88h68V130.5z M170.5,130.5h-68v-88h68V130.5z M256.5,130.5h-68v-88h68V130.5z"/>
<g id="dotted" display="none">
	<g display="inline">
		<g>
			<path fill="none" stroke="#747474" stroke-width="3" stroke-linecap="round" stroke-linejoin="round" d="M35.526,237.501h5
				c0.038-1.687,0.17-3.351,0.393-4.983"/>
			
				<path fill="none" stroke="#747474" stroke-width="3" stroke-linecap="round" stroke-linejoin="round" stroke-dasharray="9.7058,9.7058" d="
				M43.278,223.119c6.235-16.715,22.334-28.618,41.223-28.618c20.589,0,37.864,14.144,42.662,33.243"/>
			<path fill="none" stroke="#747474" stroke-width="3" stroke-linecap="round" stroke-linejoin="round" d="M128.084,232.518
				c0.223,1.635,0.355,3.297,0.394,4.983h5"/>
			
				<line fill="none" stroke="#747474" stroke-width="3" stroke-linecap="round" stroke-linejoin="round" stroke-dasharray="10.8644,10.8644" x1="144.341" y1="237.501" x2="204.094" y2="237.501"/>
			<path fill="none" stroke="#747474" stroke-width="3" stroke-linecap="round" stroke-linejoin="round" d="M209.527,237.501h5
				c0.038-1.687,0.17-3.351,0.393-4.985"/>
			
				<path fill="none" stroke="#747474" stroke-width="3" stroke-linecap="round" stroke-linejoin="round" stroke-dasharray="9.2747,9.2747" d="
				M217.133,223.52c5.02-13.859,16.804-24.477,31.369-27.862c3.214-0.747,6.561-1.155,10-1.155c5.428,0,10.622,0.986,15.421,2.785"
				/>
			<path fill="none" stroke="#747474" stroke-width="3" stroke-linecap="round" stroke-linejoin="round" d="M278.169,199.141
				c1.495,0.75,2.941,1.582,4.333,2.489v-5"/>
			
				<path fill="none" stroke="#747474" stroke-width="3" stroke-linecap="round" stroke-linejoin="round" stroke-dasharray="10.0851,10.0851" d="
				M282.502,186.545V116.5V29.847C282.5,14.191,283.809,1.5,268.153,1.5H29.847C14.191,1.5,1.5,14.191,1.5,29.847v179.307
				c0,15.654,12.691,28.347,28.349,28.347h0.636"/>
		</g>
		<g>
			<polyline fill="none" stroke="#747474" stroke-width="3" stroke-linecap="round" stroke-linejoin="round" points="84.5,125.5 
				84.5,130.5 79.5,130.5 			"/>
			
				<line fill="none" stroke="#747474" stroke-width="3" stroke-linecap="round" stroke-linejoin="round" stroke-dasharray="11.6,11.6" x1="67.9" y1="130.5" x2="27.3" y2="130.5"/>
			<polyline fill="none" stroke="#747474" stroke-width="3" stroke-linecap="round" stroke-linejoin="round" points="21.5,130.5 
				16.5,130.5 16.5,125.5 			"/>
			
				<line fill="none" stroke="#747474" stroke-width="3" stroke-linecap="round" stroke-linejoin="round" stroke-dasharray="11.1429,11.1429" x1="16.5" y1="114.357" x2="16.5" y2="53.071"/>
			<polyline fill="none" stroke="#747474" stroke-width="3" stroke-linecap="round" stroke-linejoin="round" points="16.5,47.5 
				16.5,42.5 21.5,42.5 			"/>
			
				<line fill="none" stroke="#747474" stroke-width="3" stroke-linecap="round" stroke-linejoin="round" stroke-dasharray="11.6,11.6" x1="33.1" y1="42.5" x2="73.7" y2="42.5"/>
			<polyline fill="none" stroke="#747474" stroke-width="3" stroke-linecap="round" stroke-linejoin="round" points="79.5,42.5 
				84.5,42.5 84.5,47.5 			"/>
			
				<line fill="none" stroke="#747474" stroke-width="3" stroke-linecap="round" stroke-linejoin="round" stroke-dasharray="11.1429,11.1429" x1="84.5" y1="58.643" x2="84.5" y2="119.929"/>
		</g>
		<g>
			<polyline fill="none" stroke="#747474" stroke-width="3" stroke-linecap="round" stroke-linejoin="round" points="170.5,125.5 
				170.5,130.5 165.5,130.5 			"/>
			
				<line fill="none" stroke="#747474" stroke-width="3" stroke-linecap="round" stroke-linejoin="round" stroke-dasharray="11.6,11.6" x1="153.9" y1="130.5" x2="113.3" y2="130.5"/>
			<polyline fill="none" stroke="#747474" stroke-width="3" stroke-linecap="round" stroke-linejoin="round" points="107.5,130.5 
				102.5,130.5 102.5,125.5 			"/>
			
				<line fill="none" stroke="#747474" stroke-width="3" stroke-linecap="round" stroke-linejoin="round" stroke-dasharray="11.1429,11.1429" x1="102.5" y1="114.357" x2="102.5" y2="53.071"/>
			<polyline fill="none" stroke="#747474" stroke-width="3" stroke-linecap="round" stroke-linejoin="round" points="102.5,47.5 
				102.5,42.5 107.5,42.5 			"/>
			
				<line fill="none" stroke="#747474" stroke-width="3" stroke-linecap="round" stroke-linejoin="round" stroke-dasharray="11.6,11.6" x1="119.1" y1="42.5" x2="159.7" y2="42.5"/>
			<polyline fill="none" stroke="#747474" stroke-width="3" stroke-linecap="round" stroke-linejoin="round" points="165.5,42.5 
				170.5,42.5 170.5,47.5 			"/>
			
				<line fill="none" stroke="#747474" stroke-width="3" stroke-linecap="round" stroke-linejoin="round" stroke-dasharray="11.1429,11.1429" x1="170.5" y1="58.643" x2="170.5" y2="119.929"/>
		</g>
		<g>
			<polyline fill="none" stroke="#747474" stroke-width="3" stroke-linecap="round" stroke-linejoin="round" points="256.5,125.5 
				256.5,130.5 251.5,130.5 			"/>
			
				<line fill="none" stroke="#747474" stroke-width="3" stroke-linecap="round" stroke-linejoin="round" stroke-dasharray="11.6,11.6" x1="239.9" y1="130.5" x2="199.3" y2="130.5"/>
			<polyline fill="none" stroke="#747474" stroke-width="3" stroke-linecap="round" stroke-linejoin="round" points="193.5,130.5 
				188.5,130.5 188.5,125.5 			"/>
			
				<line fill="none" stroke="#747474" stroke-width="3" stroke-linecap="round" stroke-linejoin="round" stroke-dasharray="11.1429,11.1429" x1="188.5" y1="114.357" x2="188.5" y2="53.071"/>
			<polyline fill="none" stroke="#747474" stroke-width="3" stroke-linecap="round" stroke-linejoin="round" points="188.5,47.5 
				188.5,42.5 193.5,42.5 			"/>
			
				<line fill="none" stroke="#747474" stroke-width="3" stroke-linecap="round" stroke-linejoin="round" stroke-dasharray="11.6,11.6" x1="205.099" y1="42.5" x2="245.7" y2="42.5"/>
			<polyline fill="none" stroke="#747474" stroke-width="3" stroke-linecap="round" stroke-linejoin="round" points="251.5,42.5 
				256.5,42.5 256.5,47.5 			"/>
			
				<line fill="none" stroke="#747474" stroke-width="3" stroke-linecap="round" stroke-linejoin="round" stroke-dasharray="11.1429,11.1429" x1="256.5" y1="58.643" x2="256.5" y2="119.929"/>
		</g>
	</g>
</g>
</svg>
