<?xml version="1.0" encoding="utf-8"?>
<!-- Generator: Adobe Illustrator 16.0.0, SVG Export Plug-In . SVG Version: 6.00 Build 0)  -->
<!DOCTYPE svg PUBLIC "-//W3C//DTD SVG 1.1//EN" "http://www.w3.org/Graphics/SVG/1.1/DTD/svg11.dtd">
<svg version="1.1" id="Layer_1" xmlns="http://www.w3.org/2000/svg" xmlns:xlink="http://www.w3.org/1999/xlink" x="0px" y="0px"
	 width="67.5px" height="102.07px" viewBox="0 0 67.5 102.07" enable-background="new 0 0 67.5 102.07" xml:space="preserve">
<path fill="none" stroke="#010101" stroke-width="7.0866" stroke-miterlimit="10" d="M61.189,77.761c0,0-4.317-6.215-2.862-9.597
	c2.178-5.062,5.766,7.528,5.766,7.528"/>
<line fill="none" stroke="#010101" stroke-width="5.6693" stroke-linecap="round" stroke-linejoin="round" stroke-miterlimit="10" x1="21.536" y1="49.549" x2="19.505" y2="53.686"/>
<path fill="none" stroke="#010101" stroke-width="3" stroke-miterlimit="10" d="M32.926,71.169c0,0,5.645,4.909,10.168,5.515
	c4.523,0.606,20.652-4.473,20.652-4.473"/>
<path fill="#0371B0" stroke="#020202" stroke-miterlimit="10" d="M13.832,53.783c1.787-0.589,4.221,0.476,7.479,0.843
	c1.842,0.209,3.795,1.365,5.646,2.911c4.604,3.845,9.297,9.412,9.297,9.412s-5.021,7.399-6.679,8.345
	c-0.646,0.365-1.811-1.305-1.811-1.305l5.99,16.552c0,0-8.241,3.942-13.445,6.311c-6.334,2.885-11.404,4.526-11.404,4.526
	s0.382-14.458,1.294-27.092c0.304-4.216,0.579-14.949,2.191-18.331C13.098,54.464,13.212,53.988,13.832,53.783z"/>
<line fill="none" stroke="#010101" stroke-width="2.5" stroke-linecap="round" stroke-linejoin="round" x1="25.132" y1="70.534" x2="27.677" y2="76.511"/>
<path id="colour" fill="#EFC7B1" stroke="#010101" stroke-linecap="round" stroke-linejoin="round" d="M20.821,12.867
	c10.376-4.42,22.371,0.407,26.792,10.782c1.148,2.697,1.669,5.501,1.632,8.254c1.188-0.37,2.481,0.199,2.979,1.368
	c0.529,1.244-0.049,2.688-1.291,3.211c-0.754,0.322-1.576,0.229-2.229-0.166c-1.438,6.108-5.66,11.479-11.875,14.125
	c-10.375,4.42-22.375-0.401-26.793-10.778C5.617,29.284,10.445,17.288,20.821,12.867z"/>
<path fill="#010101" d="M44.043,10.402C44.038,10.264,44.043,10.402,44.043,10.402S43.284,11.159,44.043,10.402
	c-0.828,2.252,5.5,7.81,4.143,9.657c-0.08,0.11-1.33,2.535-1.223,2.51c0.154,1.241-0.504-0.674-0.76-0.939
	c-0.479-0.499-1.475-0.962-2.125-1.088C43.833,20.494,41,21.69,39.592,20.98c-0.758,0.479-0.725-0.82-0.758,0.479
	c-0.064,2.531-1.906,0.504-3.896,2.148c-0.985,0.819-3.188-1.334-3.789-1.103c-0.89,0.345,0.589,1.837-0.249,1.618
	c0.32,1.654-2.518,1.372-3.149,1.721c-0.383,0.21-1.422,0.929-2.454,1.259c-0.856,0.274-2.807,1.07-3.259,1.807
	c0.062-0.01-0.099,0.742-0.04,0.736c1.067,0.824-2.042,2.386-2.67,2.852c0.469,0.498-0.373,1.083-0.783,1.394
	c-0.954,0.721-1.542-1.006-1.176,0.043c1.865,1.696-1.433,2.271-1.343,1.854c-0.191,0.873,0.1,0.854,0.133,0.564
	c0.512,0.887-1.729,0.377-0.882,1.062c0.232,0.188-0.203,0.376,0.026,0.624c0.312,0.336-0.489,1.083-0.389,1.479
	c0.206,0.812,0.797,0.813,1.102,1.568c0.549,1.372-0.764,1.998-0.825,3.075c0.556,0.084,0.322,1.146,0.04,1.928
	c-0.2,0.56-1.367,0.521-1.87,0.543c-1.847,0.091-4.969,1.125-5.851-1.634c-0.149-0.472-1.43-0.299-1.627-0.712
	c-0.253-0.531-0.75-1.242-1.177-1.647c-0.833-0.793-1.773,0.039-2.393-1.635c-0.504-1.357,1.401-3.096,0.274-4.039
	c-1.52-1.271,5.555-17.585,5.689-18.228"/>
<path fill="#010101" d="M44.113,26.562c0.193,1.077-0.522,2.106-1.602,2.298c-1.08,0.192-2.104-0.526-2.297-1.604
	c-0.191-1.077,0.521-2.105,1.602-2.298C42.895,24.767,43.92,25.485,44.113,26.562z"/>
<path fill="#086AB4" stroke="#050605" stroke-miterlimit="10" d="M48.016,18.543c-10.24,0.652-8.699,3.047-44.672,15.608
	l-1.648-2.427c-2.613-6.433-0.13-13.943-0.13-13.943C5.158,5.279,24.852,0.918,24.852,0.918C32.161-0.578,36.07,2.036,41.02,7.229
	c3.023,3.174,3.023,3.174,3.023,3.174s12.396,1.219,13.936,2.43c1.314,1.035-0.047,3.533-0.047,3.533L48.016,18.543z"/>
<path fill="#010101" d="M41.609,48.323c0.228-0.098,1.791-1.87,1.877-1.946c0.406-0.355,0.832-0.072,0.479-0.479
	c-0.336-0.383-0.002-0.825-0.403-0.533c-0.104,0.042-1.886,0.719-4.127-0.494c-2.851-1.534-4.188-4.77-4.201-4.801
	c-0.203-0.5-0.771-0.738-1.271-0.536c-0.521,0.206-0.74,0.77-0.537,1.269c0.062,0.159,2.859,4.906,6.34,6.782
	C42.443,49.035,40.887,48.631,41.609,48.323z"/>
</svg>
