<?xml version="1.0" encoding="utf-8"?>
<!-- Generator: Adobe Illustrator 16.0.0, SVG Export Plug-In . SVG Version: 6.00 Build 0)  -->
<!DOCTYPE svg PUBLIC "-//W3C//DTD SVG 1.1//EN" "http://www.w3.org/Graphics/SVG/1.1/DTD/svg11.dtd">
<svg version="1.1" id="Layer_1" xmlns="http://www.w3.org/2000/svg" xmlns:xlink="http://www.w3.org/1999/xlink" x="0px" y="0px"
	 width="49.45px" height="57.574px" viewBox="0 0 49.45 57.574" enable-background="new 0 0 49.45 57.574" xml:space="preserve">
<path fill="#3D3D3D" d="M29.796,57.483c0,0-7.209-25.254-13.618-21.103c-6.409,4.146-3.205,20.19-3.205,20.19L29.796,57.483z"/>
<path fill="#F6AF5C" d="M26.388,45.543c0.033,0.008,0.066,0.016,0.098,0.022c0.102,0.112,0.204,0.228,0.312,0.342
	C26.656,45.787,26.521,45.664,26.388,45.543L26.388,45.543z"/>
<path fill="#1D1D1B" d="M19.02,57.483c0,0-7.209-25.254-13.619-21.103c-6.409,4.146-3.205,20.19-3.205,20.19L19.02,57.483z"/>
<path fill="#030303" d="M26.892,49.436c0.045-0.691,0.118-1.396,0.19-2.078c0.071-0.688,0.145-1.401,0.192-2.111l0,0
	c0.018-0.268-0.202-0.498-0.492-0.517c-0.29-0.021-0.537,0.181-0.556,0.448l0,0c-0.046,0.688-0.119,1.396-0.19,2.078
	c-0.072,0.688-0.147,1.397-0.194,2.106l0,0c-0.017,0.271,0.203,0.499,0.494,0.521C26.625,49.903,26.874,49.701,26.892,49.436
	L26.892,49.436z"/>
<path fill="#030303" d="M26.706,50.797c-0.567-0.037-1.002-0.513-0.965-1.06c0.046-0.692,0.116-1.375,0.194-2.129
	c0.07-0.673,0.143-1.37,0.19-2.062c0.036-0.543,0.527-0.959,1.096-0.92c0.568,0.033,1.003,0.512,0.965,1.059
	c-0.046,0.699-0.118,1.396-0.189,2.07l-0.005,0.06c-0.071,0.675-0.143,1.371-0.188,2.06C27.768,50.422,27.273,50.836,26.706,50.797z
	"/>
<path id="colour" fill="#967348" stroke="#010101" stroke-miterlimit="10" d="M28.854,47.572c-1.579,0.125-3.18,0.068-4.76-0.165
	c-8.933-1.333-13.277-6.721-15.349-11.006C6.19,31.115,6.117,25.688,6.435,23.559c1.45-9.729,9.3-17.062,19.089-17.83
	c1.577-0.124,3.18-0.067,4.757,0.168c5.544,0.826,10.435,3.761,13.771,8.267c3.336,4.504,4.719,10.038,3.891,15.581
	C46.494,39.471,38.645,46.803,28.854,47.572z"/>
<path fill="#030303" d="M28.223,22.52l-0.048,0.003c-0.769,0.034-1.421-0.562-1.454-1.333c-0.035-0.756,0.529-1.393,1.282-1.452
	l0.049-0.003c0.373-0.018,0.729,0.113,1.002,0.365c0.275,0.25,0.436,0.596,0.453,0.969C29.539,21.822,28.975,22.461,28.223,22.52z"
	/>
<path fill="#030303" d="M38.764,23.271l-0.048,0.002c-0.769,0.032-1.422-0.564-1.456-1.331c-0.033-0.756,0.531-1.395,1.284-1.454
	l0.047-0.002c0.769-0.034,1.421,0.562,1.456,1.332C40.083,22.571,39.52,23.211,38.764,23.271z"/>
<path fill="#030303" d="M20.536,34.131L20.536,34.131c-0.08-0.25,0.016-0.531,0.211-0.627l0,0c0.197-0.097,0.421,0.025,0.502,0.275
	l0,0c5.947,12.146,18.031,6.826,20.076,0.636l0,0c0.087-0.239,0.314-0.346,0.509-0.233l0,0c0.192,0.115,0.28,0.4,0.194,0.646l0,0
	c-2.084,5.778-7.242,7.855-10.881,7.688C24.935,42.219,21.5,37.276,20.536,34.131z"/>
<path fill="#030303" d="M5.867,32.686L5.867,32.686c-0.734,0.058-1.494-0.241-2.254-0.891c-0.084-0.07-0.143-0.164-0.171-0.271
	c-0.077-0.112-0.255-0.336-0.379-0.491c-0.359-0.447-0.56-0.697-0.64-0.912C2.305,29.98,2.2,29.866,2.104,29.766
	c-0.352-0.385-0.627-0.688-0.903-1.467c-0.22-0.627-0.507-1.115-0.208-1.438c0.01-0.011,0.02-0.022,0.03-0.034
	c-0.018-0.003-0.036-0.007-0.058-0.012c-0.145-0.037,0.424-0.028,0.23-0.018c-0.378,0.021-0.11,0.051-0.616-0.25
	c-0.412-0.246,0.814-0.556,0.731-0.925c-0.123-0.549-0.577-1.056-0.354-1.388c0.182-0.27-1.106-0.512-0.942-0.725
	c0.192-0.25,0.453-0.586,0.497-0.737c-0.058-0.052,0.469-0.191-0.199-0.354c-0.252-0.061,0.312-0.293,0.326-0.554
	c0.011-0.26-0.53-0.472-0.273-0.509c0.463-0.064-0.275-0.064-0.288-0.646c-0.004-0.117-0.005-0.246-0.002-0.384
	c0-0.071,0.619-7.318,2.463-8.218l0.057-0.027c1.991-0.969,3.428-1.67,3.533-1.968c-0.005-0.057-0.11-0.236-0.314-0.521L5.771,9.53
	C5.413,9.051,5.302,8.586,5.446,8.146c0.251-0.763,1.165-1.119,2.066-1.399C7.529,6.585,7.58,6.427,7.664,6.28
	c0.441-0.792,1.703-1.089,2.625-1.307c0.176-0.042,0.335-0.08,0.458-0.115c0.735-0.211,1.805-1.206,2.663-2.004
	c0.353-0.328,0.684-0.637,0.976-0.877c0.578-0.478,3.574-0.858,4.327-0.918c0.11-0.008,0.213-0.015,0.311-0.021
	c0.439-0.02,0.821,0.12,1.127,0.231c0.189,0.069,0.369,0.136,0.484,0.134c0.111-0.014,0.427-0.23,0.598-0.346
	c0.183-0.125,0.359-0.247,0.527-0.322c0.967-0.442,2.018-0.599,3.053-0.454c0.315,0.044,0.603,0.178,0.854,0.295
	c0.178,0.083,0.362-0.569,0.476-0.56c0.018,0.002,0.04,0.74,0.059,0.739l0.738-0.739c0.211-0.017-0.207,0.574,0.073,0.442
	c0.197-0.092,0.401-0.188,0.595-0.252c0.89-0.292,1.801-0.273,2.639,0.052c0.256,0.1,0.424,0.195,0.547,0.262
	c0.178,0.101,0.225,0.128,0.478,0.134c0.255,0.006,0.502-0.028,0.748-0.058c0.157-0.018,0.312-0.037,0.47-0.05
	c0.415-0.033,0.751-0.009,1.079,0.077c0.536,0.138,0.898,0.406,1.22,0.643c0.163,0.124,0.319,0.238,0.491,0.333
	c0.07,0.038,0.207,0.113,0.271,0.139c0.032-0.007,0.07-0.02,0.121-0.031c0.077-0.021,0.17-0.047,0.291-0.075
	c0.201-0.045,0.396-0.075,0.576-0.09c1.34-0.104,2.103,0.653,2.728,1.446c0.021-0.003,0.043-0.006,0.063-0.009
	c0.764-0.059,1.424,0.79,2.271,1.997c0.162,0.229,0.36,0.513,0.444,0.6c0.274,0.157,0.779,0.254,1.269,0.35
	c0.89,0.172,1.804,0.352,2.278,0.981c0.357,0.471,0.548,0.977,0.729,1.468c0.238,0.637,0.443,1.188,0.988,1.513
	c0.948,0.565,0.775,1.281,0.662,1.753c-0.059,0.235-0.109,0.457-0.093,0.72c0.024,0.383,0.081,1.177,0.279,1.533
	c0.028,0.06,0.049,0.078,0.049,0.078c0.123,0.062,0.247,0.142,0.422,0.313c1,1.011,0.91,1.558,0.646,2.519
	c-0.1,0.359-0.223,0.812-0.307,1.442c-0.08,0.601-1,1.874-1.877,1.943c-0.105,0.009-0.212,0-0.312-0.021
	c-0.385-0.1-0.668-0.344-0.799-0.688c-0.16-0.424-0.062-0.915,0.104-1.312c-0.299-0.145-0.372-0.248-0.585-0.588
	c-0.064-0.111-0.162-0.262-0.299-0.472c-0.262-0.396-0.708-0.875-1.104-1.296c-0.164-0.174-0.32-0.342-0.461-0.497
	c0.01,0.013-0.037,0.003-0.072-0.005c-0.183-0.04-0.668-0.146-0.754-0.74c-0.049-0.352,0.103-0.593,0.188-0.736
	c0.015-0.018,0.022-0.037,0.035-0.058c-0.023-0.163-0.32-0.553-1.343-1.007c-0.271-0.122-0.358-0.294-0.383-0.44
	c-0.265-0.551-0.703,0.182-1.271-0.036c-0.229-0.087-1.086-0.483-2.474-1.123c-1.439-0.667-3.233,0.072-3.69-0.102
	c-0.223-0.084-0.361-0.304-0.348-0.538c-0.391-0.238-0.967-0.353-1.594-0.304c-0.214,0.018-0.428-0.733-0.633-0.682
	c-0.183,0.048-0.451,0.088-0.738,0.11c-1.009,0.079-1.581,0.716-1.897,0.482c-0.828,0.374-2.365,1.263-3.92,2.068
	c-3.314,1.718-4.148,0.465-4.371,0.481l-0.052,0.003c-0.097,0.009-0.139,0.029-0.285,0.104c-0.108,0.057-0.233,0.12-0.403,0.188
	c-0.601,0.232-1.273,0.211-1.833,0.075c-0.354,0.82-1.055,1.578-1.902,1.644c-0.198,0.016-0.455-0.002-0.736-0.124
	c-0.237,0.574,1.847,2.011,1.051,2.431c-0.198,0.104-0.364,0.164-0.486,0.211c-0.054,0.021-0.12,0.043-0.149,0.061
	c0.004,0.008-0.014,0.059-0.033,0.161c-0.051,0.289-0.043,0.569-0.037,0.873c0.016,0.666,0.033,1.422-0.627,2.225
	c-0.376,0.455-0.574,0.675-0.768,1.597c-0.156,0.738-0.316,1.512-0.588,2.121c-0.113,0.252-0.806,0.426-0.708,0.731
	c0.125,0.396,0.31,0.246-0.244,0.896c-0.304,0.358-0.791,0.859-0.349,1.188c0,0-1.295,0.38-1.242,0.562
	c0.099,0.322,0.281,0.935-0.073,1.562c-0.147,0.267-0.369,0.401-0.53,0.507c-0.034,0.021-0.076,0.053-0.102,0.068
	c-0.032,0.139,0.041,0.521,0.085,0.761c0.11,0.576,0.233,1.229-0.127,1.688C9.644,32.994,6.606,32.627,5.867,32.686z"/>
<path fill="#FED600" stroke="#010101" stroke-linecap="round" stroke-linejoin="round" d="M31.497,51.129
	c-0.951-0.494-2.057-0.121-3.199-0.406c-0.661-0.164-1.334,0.127-1.996,0.084c-0.479-0.027-0.953-0.431-1.411-0.379
	c-0.796,0.086-1.545,0.31-2.2,0.697c-1.844,1.102-5.587,5.917-5.587,5.917h22.625C41.657,57.483,35.752,53.34,31.497,51.129z"/>
</svg>
