<?xml version="1.0" encoding="utf-8"?>
<!-- Generator: Adobe Illustrator 16.0.0, SVG Export Plug-In . SVG Version: 6.00 Build 0)  -->
<!DOCTYPE svg PUBLIC "-//W3C//DTD SVG 1.1//EN" "http://www.w3.org/Graphics/SVG/1.1/DTD/svg11.dtd">
<svg version="1.1" id="Layer_1" xmlns="http://www.w3.org/2000/svg" xmlns:xlink="http://www.w3.org/1999/xlink" x="0px" y="0px"
	 width="101px" height="101px" viewBox="0 0 101 101" enable-background="new 0 0 101 101" xml:space="preserve">
<rect id="hidden" x="0" fill="#FFFFFF" stroke="#000000" stroke-miterlimit="10" width="100" height="100"/>
<g>
	<path fill="#FFFFFF" d="M55.131,9.629c0.047,0.216,17.649,51.918,23.894,73.088c1.076,3.654-17.789,9.041-22.253,10.04
		c-4.004,0.899-35.281,7.601-36.095,1.902c-3.44-24.062-6.382-75.548-6.427-75.762c0,0-2.941-5.056,2.831-8.891
		c4.494-2.983,18.439-6.148,24.056-6.004c5.617,0.143,11.279,0.05,12.248,1.769C54.355,7.489,55.131,9.629,55.131,9.629z"/>
	<path fill="#D5D6D5" d="M20.308,94.667c-0.346-1.903,2.954-3.521,4.257-4.237c2.273-1.256,4.644-2.317,7.055-3.278
		c4.725-1.874,9.583-3.302,14.552-4.368c5.121-1.096,10.318-1.766,15.526-2.27c4.834-0.468,10.06-1.095,14.875-0.194
		c1.513,0.28,4.005,1.177,2.982,3.208c-0.951,1.892-3.429,3.089-5.224,3.99c-4.527,2.278-9.408,3.869-14.276,5.233
		c-9.907,2.779-20.32,4.593-30.638,4.324C27.463,97.027,20.927,97.311,20.308,94.667C20.177,93.947,20.475,95.389,20.308,94.667z
		 M20.465,94.637c0.408,1.664,3.614,1.762,4.904,1.854c2.542,0.179,5.122-0.02,7.648-0.288c5.154-0.546,10.283-1.468,15.363-2.47
		c5.113-1.01,10.203-2.221,15.201-3.694c4.553-1.341,9.527-2.782,13.512-5.446c1.599-1.072,2.584-2.484,0.236-3.302
		c-2.225-0.776-4.716-0.795-7.043-0.789c-5.147,0.013-10.285,0.775-15.326,1.784c-5.121,1.029-10.211,2.236-15.267,3.55
		c-4.884,1.265-9.886,2.497-14.478,4.634C23.896,91.082,20.125,92.688,20.465,94.637C20.614,95.251,20.354,94.007,20.465,94.637z"/>
	<path fill="#020202" d="M20.577,95.165c0.523,1.537,4.444,1.394,5.667,1.438c2.563,0.096,5.135-0.029,7.69-0.232
		c5.594-0.443,11.145-1.398,16.617-2.607c5.289-1.164,10.516-2.637,15.629-4.42c2.449-0.849,4.873-1.772,7.227-2.856
		c0.41-0.189,5.78-2.958,5.309-3.474c-0.283-0.305-0.287-1.182,0.479-1.264c-0.184,0.316-0.361,0.635-0.543,0.951
		C70.19,57.068,61.877,31.416,53.043,5.905c0.184,0.083,0.396,0.196,0.557,0.321c-0.533,0.044-0.555-0.21-0.889-0.541
		c-0.574-0.57-1.41-0.842-2.172-1.044c-1.809-0.477-3.734-0.553-5.594-0.538c-4.367,0.029-8.722,0.703-12.976,1.658
		c-3.857,0.864-7.688,1.99-11.303,3.609c-1.678,0.751-3.375,1.605-4.802,2.778c-0.563,0.461-1.176,1.013-1.442,1.711
		c-0.192,0.498-0.186,0.95-0.812,1.074c0.218-0.3,0.436-0.598,0.654-0.896c1.669,19.385,3.23,38.77,4.549,58.18
		c0.509,7.516,1.092,15.024,1.679,22.536c-0.034-0.026-0.068-0.05-0.1-0.077C20.825,94.602,20.512,94.854,20.577,95.165
		C20.771,95.742,20.547,95.028,20.577,95.165z M20.416,95.201c0.026-0.17,0.051-0.342,0.075-0.51
		c0.032,0.037,0.063,0.076,0.095,0.115c-0.481,0.084-0.674-4.42-0.736-5.082c-0.255-2.729-0.512-5.457-0.781-8.186
		c-0.267-2.708-0.559-5.417-0.846-8.125c-0.493-4.693-0.986-9.388-1.482-14.08c-1.128-10.728-2.094-21.468-3.03-32.214
		c-0.266-3.054-0.532-6.111-0.797-9.166c-0.071-0.83-0.957-4.455,0.406-4.687c-0.22,0.247-0.438,0.493-0.654,0.741
		c0.5-3.231,4.92-5.05,7.528-6.173c3.677-1.581,7.556-2.683,11.466-3.512c3.954-0.839,8.021-1.358,12.065-1.406
		c2.867-0.035,8.344-0.277,10.094,2.613c-0.173-0.07-0.363-0.144-0.523-0.241c1.004-0.27,1.963,4.301,2.229,5.117
		c0.844,2.608,1.681,5.217,2.526,7.824c1.633,5.012,3.291,10.014,4.979,15.007c1.795,5.313,3.629,10.611,5.487,15.902
		c1.538,4.371,3.074,8.738,4.609,13.108c1.013,2.872,2.029,5.737,3.021,8.614c0.822,2.394,1.637,4.788,2.454,7.182
		c0.303,0.885,2.399,4.987,0.729,5.174c0.106-0.424,0.217-0.849,0.322-1.271c3.141,2.85-8.646,7.021-10.211,7.588
		c-5.488,1.994-11.172,3.443-16.889,4.607c-5.743,1.172-11.551,1.982-17.393,2.451c-2.779,0.225-5.576,0.356-8.366,0.264
		C25.332,96.807,21.074,96.984,20.416,95.201C20.381,95.025,20.681,95.919,20.416,95.201z"/>
	<path fill="#020202" d="M50.986,6.281c0.441,2.015-5.967,3.977-7.298,4.461c-3.122,1.136-6.344,1.961-9.588,2.66
		c-3.25,0.655-6.53,1.187-9.841,1.394c-1.429,0.089-8.049,0.856-8.476-1.173c0.684,1.757,6.99,0.473,8.384,0.283
		c3.247-0.444,6.481-1.022,9.689-1.7c3.21-0.658,6.405-1.421,9.558-2.313C44.752,9.511,51.08,8.153,50.986,6.281
		C51.073,6.688,51.006,6.69,50.986,6.281z"/>
	<path fill="#020202" d="M77.844,77.546c-3.897,2.274-8.185,3.744-12.436,5.198c-4.619,1.577-9.335,2.852-14.102,3.904
		c-4.971,1.095-10.018,1.904-15.08,2.404c-5.044,0.496-10.221,0.957-15.275,0.362c4.597,0.09,9.354-0.767,13.889-1.455
		c5-0.759,9.996-1.596,14.943-2.646c4.758-0.973,9.469-2.149,14.16-3.387C68.568,80.707,73.487,79.553,77.844,77.546
		C73.619,80.01,75.651,78.555,77.844,77.546z"/>
	
		<line fill="none" stroke="#020202" stroke-width="0.75" stroke-linecap="round" stroke-linejoin="round" stroke-miterlimit="3.8637" x1="83.635" y1="14.868" x2="83.635" y2="58.833"/>
	
		<line fill="none" stroke="#020202" stroke-width="0.75" stroke-linecap="round" stroke-linejoin="round" stroke-miterlimit="3.8637" x1="87.434" y1="7.813" x2="87.434" y2="51.778"/>
	
		<line fill="none" stroke="#020202" stroke-width="0.75" stroke-linecap="round" stroke-linejoin="round" stroke-miterlimit="3.8637" x1="79.838" y1="3.47" x2="79.838" y2="47.435"/>
</g>
</svg>
