<?xml version="1.0" encoding="utf-8"?>
<!-- Generator: Adobe Illustrator 16.0.0, SVG Export Plug-In . SVG Version: 6.00 Build 0)  -->
<!DOCTYPE svg PUBLIC "-//W3C//DTD SVG 1.1//EN" "http://www.w3.org/Graphics/SVG/1.1/DTD/svg11.dtd">
<svg version="1.1" id="Layer_1" xmlns="http://www.w3.org/2000/svg" xmlns:xlink="http://www.w3.org/1999/xlink" x="0px" y="0px"
	 width="101px" height="101px" viewBox="0 0 101 101" enable-background="new 0 0 101 101" xml:space="preserve">
<rect id="hidden" fill="#FFFFFF" stroke="#000000" stroke-miterlimit="10" width="100" height="100"/>
<g>
	<path fill="#F79421" stroke="#000000" stroke-miterlimit="10" d="M43.511,71.542c1.441,1.521,2.532,3.445,3.559,5.254
		c1.263,2.232,2.489,4.588,3.183,7.068c0.208,0.74,0.426,1.592,0.266,2.363c-0.206,0.979-1.747,1.102-2.562,1.311
		c-1.47,0.379-5.973,0.861-5.972,3.039c3.947-0.688,7.979-1.375,11.89-0.307c3.152,0.857,6.317,2.294,9.571,2.711
		c-0.935-1.921-3.485-3.169-5.364-3.924c2.604-0.051,5.208,0.32,7.812,0.148c-0.514-0.99-2.243-1.273-3.2-1.486
		c-1.692-0.373-3.421-0.572-5.14-0.756c-1.131-0.119-2.354-0.121-3.457-0.416c-1.654-0.438-2.162-3.119-2.418-4.518
		c-0.664-3.646-0.72-7.477-1.618-11.072c-0.286-1.146-2.74-0.695-3.502-0.576C46.332,70.419,43.168,71.181,43.511,71.542
		C45.969,74.132,42.964,70.964,43.511,71.542z"/>
	<path fill="#FBAA38" d="M45.212,73.279c1.189,1.256,2.035,2.928,2.821,4.452c1.001,1.937,1.924,3.968,2.471,6.083
		c0.189,0.729,0.352,1.5,0.295,2.258c-0.074,0.961-0.582,1.133-1.447,1.396c-1.673,0.507-5.332,0.705-6.239,2.481
		c3.361-0.581,7.06-1.618,10.402-0.543c2.935,0.947,5.916,2.612,8.994,3.005c-0.433-0.882-1.613-1.488-2.416-1.963
		c-1.168-0.686-2.396-1.307-3.656-1.809c2.709-0.465,5.457,0.393,8.168,0.209c-0.756-0.807-2.312-0.959-3.326-1.119
		c-1.562-0.25-3.143-0.375-4.719-0.494c-0.601-0.044-2.123,0.113-2.621-0.291c-1.521-1.238-2.141-2.406-2.461-4.271
		c-0.55-3.205-0.858-6.451-1.425-9.656c-0.215-1.217-1.172-1.152-2.255-0.939C47.591,72.117,44.866,72.919,45.212,73.279
		C47.203,75.38,44.768,72.814,45.212,73.279z"/>
	<path fill="#EAEAEA" stroke="#000000" stroke-miterlimit="10" d="M52.932,71.738c-1.76,2.188-5.665,3.812-7.467,3.016
		C39.835,71.49,51.702,71.02,52.932,71.738z"/>
	<path fill="#FFFFFF" stroke="#000000" stroke-width="0.75" stroke-miterlimit="10" d="M76.742,37.887
		c1.516,4.093,1.648,8.991,1.128,13.27c-0.657,5.411-2.918,10.729-7.619,13.798c-4.411,2.877-9.657,4.661-14.698,6.068
		c-5.845,1.63-12.068,2.8-18.159,2.35c-2.478-0.18-5.271-0.578-7.353-2.037c-2.445-1.713-4.073-4.506-5.126-7.246
		c-1.167-3.035-1.282-5.848-1.162-9.057c0.124-3.249,0.122-10.902,2.559-13.431c1.811-0.281,6.295-4.276,9.07-5.217
		c2.727-0.925,5.621-1.504,8.505-1.13c2.709,0.353,4.44-1.724,5.691-3.831c0.659-1.11,1.157-2.424,2.212-3.226
		c0.988-0.748,2.248-0.997,3.458-1.058c4.066-0.21,7.576,0.88,11.229,2.58C70.055,31.388,75.264,33.897,76.742,37.887
		C78.342,42.208,74.76,32.542,76.742,37.887z"/>
	<path fill="#FAFAFA" stroke="#000000" stroke-miterlimit="10" d="M19.4,40.861c0-0.837,1.502-1.899,2.063-2.348
		c0.759-0.604,2.146-1.741,3.213-1.408c1.299,0.406,0.292,3.018,0.671,3.955c0.361,0.903,1.36,1.138,2.234,0.94"/>
	<path fill="#F79421" stroke="#000000" stroke-miterlimit="10" d="M36.295,73.589c1.609,1.694,2.826,3.844,3.971,5.863
		c1.4,2.477,2.758,5.092,3.526,7.844c0.234,0.834,0.492,1.826,0.27,2.692c-0.259,1.007-1.979,1.154-2.834,1.374
		c-1.635,0.42-6.629,0.96-6.627,3.377c4.294-0.754,8.763-1.543,13.024-0.395c3.568,0.961,7.141,2.591,10.819,3.064
		c-1.039-2.136-3.873-3.523-5.959-4.359c2.892-0.055,5.786,0.357,8.68,0.162c-0.571-1.105-2.514-1.42-3.583-1.653
		c-1.889-0.415-3.816-0.636-5.738-0.839c-1.237-0.131-2.604-0.121-3.808-0.463c-1.858-0.525-2.399-3.545-2.684-5.127
		c-0.721-4.017-0.791-8.232-1.78-12.189c-0.317-1.279-3.055-0.773-3.905-0.637C39.416,72.347,35.919,73.193,36.295,73.589
		C39.029,76.47,35.688,72.955,36.295,73.589z"/>
	<path fill="#FBB03C" d="M38.184,75.526c1.315,1.382,2.249,3.226,3.116,4.901c1.147,2.22,2.218,4.558,2.813,6.99
		c0.194,0.789,0.361,1.631,0.27,2.443c-0.121,1.053-0.83,1.197-1.763,1.473c-1.824,0.537-5.777,0.771-6.763,2.709
		c3.855-0.672,7.964-1.787,11.788-0.522c3.171,1.044,6.425,2.834,9.762,3.259c-0.478-0.984-1.802-1.662-2.699-2.189
		c-1.293-0.763-2.651-1.445-4.047-2.004c3.008-0.516,6.063,0.437,9.075,0.23c-0.803-0.855-2.426-1.029-3.504-1.211
		c-1.77-0.293-3.561-0.438-5.346-0.571c-0.684-0.052-2.433,0.132-3.003-0.329c-1.709-1.396-2.384-2.705-2.741-4.801
		c-0.602-3.514-0.951-7.068-1.56-10.582c-0.237-1.377-1.166-1.395-2.447-1.15C40.894,74.212,37.796,75.118,38.184,75.526
		C40.398,77.854,37.691,75.005,38.184,75.526z"/>
	<path fill="#D42027" stroke="#000000" stroke-miterlimit="10" d="M75.303,10.528c-1.349-2.325-3.223-4.429-5.388-6.02
		c-0.922-0.679-1.931-1.282-3.022-1.639c-0.435-0.141-2.947-0.721-2.484,0.36c0.164,0.381,1.232,1.302,0.617,1.632
		c-0.727,0.384-1.688,0.449-2.483,0.591c-1.519,0.271-4.623,0.414-5.547,1.9c-0.868,1.394,3.45,2.006,0.819,2.411
		c-0.941,0.146-1.913,0.361-2.652,1c-0.438,0.376-1.682,2.07-0.678,2.419c0.921,0.32,4.398-0.937,4.874-0.116
		c0.593,1.025-3.892,2.547-3.062,4.45c0.342,0.776,2.354,0.498,2.988,0.493c1.236-0.007,2.193,0.236,3.355,0.479
		c0.976,0.204,2.14-0.273,3.039-0.589c1.358-0.478,2.68-1.058,4.019-1.594c1.183-0.475,2.106-0.798,3.353-0.285
		c1.004,0.416,2.479,1.437,3.277,0.152C77.014,12.728,76.176,12.028,75.303,10.528z"/>
	<path fill="#EC2227" d="M75.444,15.563c0.997-1.606-0.525-4.149-1.358-5.487c-1.354-2.185-3.156-4.271-5.322-5.683
		c-0.791-0.515-1.694-0.984-2.655-1.051c-1.505-0.104,0.584,1.238,0.29,1.672c-0.266,0.393-1.301,0.455-1.709,0.535
		c-1.143,0.229-2.295,0.421-3.434,0.679c-1.08,0.245-4.848,1.203-2.404,2.565c0.276,0.156,1.771,0.84,0.787,1.021
		c-0.957,0.178-1.932,0.189-2.85,0.556c-0.597,0.237-2.031,1.202-1.658,2.045c0.27,0.605,1.926,0.188,2.377,0.118
		c0.728-0.111,1.756-0.458,2.485-0.238c0.821,0.245-0.918,1.991-1.127,2.185c-0.658,0.61-3.618,3.35-0.989,3.071
		c1.735-0.185,4.285-1.395,5.989-0.785c1.793,0.642,4.291-0.928,5.926-1.586c1.079-0.434,1.812-0.667,2.899-0.086
		C73.405,15.478,74.789,16.617,75.444,15.563C77.221,12.7,74.531,17.034,75.444,15.563z"/>
	<path fill="#FAFAFA" stroke="#000000" stroke-miterlimit="10" d="M78.062,22.958c0.328-5.597-4.285-10.866-10.196-9.91
		c-1.968,0.319-3.836,1.479-5.458,2.573c-2.312,1.561-4.432,3.419-6.314,5.471c-1.92,2.091-3.647,4.436-4.785,7.05
		c-0.494,1.136-0.873,2.329-1.051,3.556c-0.038,0.283-0.256,3.086,0.161,3c0.509-0.104,1.059-1.536,1.424-1.906
		c0.868-0.89,1.442-0.171,1.701,0.756c0.221,0.794,0.346,2.158,1.209,2.55c1.229,0.559,1.578-0.955,1.833-1.769
		c0.733-2.342,2.507-0.513,3.112,0.797c0.298,0.645,0.564,1.56,1.165,1.996c0.801,0.578,1.937-0.552,2.444-1.06
		c1.115-1.105,2.987-2.956,4.021-0.844c0.685,1.397,1.093,3.834,2.972,4.086c1.202,0.162,2.358-0.19,3.373-0.825
		c0.324-0.202,1.223-1.103,1.658-0.922c0.385,0.16,0.402,0.997,0.828,1.27c0.436,0.28,1.177,0.537,1.32-0.062
		c0.137-0.575,0.111-1.1-0.1-1.651c-0.555-1.456-1.32-2.74-1.477-4.327c-0.146-1.498,0.324-2.806,0.734-4.215
		C77.176,26.72,77.637,24.839,78.062,22.958z"/>
	<path fill="#FFFFFF" stroke="#000000" stroke-width="0.5" stroke-miterlimit="10" d="M72.355,18.729
		c0.449,1.418,0.012,3.33-1.557,3.829c-1.57,0.499-3.029-0.806-3.482-2.224c-0.45-1.419-0.014-3.33,1.554-3.83
		C70.441,16.004,71.902,17.31,72.355,18.729C72.885,20.402,71.821,17.058,72.355,18.729z"/>
	<path fill="#010101" d="M71.906,20.07c0.673,2.111-2.112,2.996-2.784,0.886C68.452,18.848,71.235,17.961,71.906,20.07
		C72.201,20.994,71.612,19.146,71.906,20.07z"/>
	<path fill="#FFFFFF" d="M71.182,21.431c0,0.477-0.666,0.477-0.666,0C70.518,20.95,71.182,20.953,71.182,21.431z"/>
	<path fill="#FFFFFF" d="M30.893,69.128c-0.039,3.562,5.212,6.502,8.315,6.719c3.392,0.236,8.332-2.598,8.581-6.367"/>
	<path fill="#010101" d="M30.893,69.128c0.241,3.36,5.088,6.039,8.07,6.383c3.417,0.396,8.333-2.346,8.827-6.034
		c0,3.706-4.717,6.657-8.021,6.692C36.507,76.205,30.545,73.02,30.893,69.128C30.909,69.368,30.872,69.368,30.893,69.128z"/>
	<path fill="#D42027" stroke="#000000" stroke-miterlimit="10" d="M74.704,28.736c-2.81,0.727-5.457,3.706-6.479,6.331
		c-0.387,1-0.617,2.365,0.354,3.114c1.259,0.967,3.181,1.488,4.606,0.625c1.191-0.719,1.629,0.505,2.779,0.916
		c1.743,0.628,2.774-1.625,2.316-2.968c-0.559-1.643-1.518-3.07-1.893-4.792c-0.222-1.02-0.106-2.238-0.496-3.203
		C75.682,28.215,75.084,28.637,74.704,28.736C70.997,29.694,75.555,28.515,74.704,28.736z"/>
	<path fill="#EC2227" d="M74.812,29.005c-2.479,0.641-4.571,3.611-5.301,5.924c-0.319,1.019-0.439,2.286,0.479,3.034
		c1.146,0.931,3.215,0.756,4.062-0.505c0.324,0.865,1.86,1.956,2.801,1.478c1.438-0.731,0.91-2.182,0.375-3.371
		c-0.502-1.116-1.199-2.101-1.441-3.322C75.672,31.68,75.842,28.739,74.812,29.005C71.846,29.772,75.494,28.83,74.812,29.005z"/>
	<path fill="#FEE70C" stroke="#000000" stroke-width="0.5" stroke-miterlimit="10" d="M74.391,29.536
		c2.1,0.693,3.797-0.252,5.369-1.585c0.521-0.441,1.082-1.042,1.752-1.246c0.881-0.27,2.265,0.346,3.146,0.465
		c-0.477-1.489-2.803-2.617-4.062-3.262c-1.529-0.787-4.137-2.027-5.838-1.047C71.741,24.836,71.018,28.424,74.391,29.536z"/>
	<path fill="#010101" d="M84.695,27.158c-1.553-0.359-3.413-0.731-5.081-0.342c-0.726,0.082-5.853,0.981-5.853-0.245
		c0.055,1.241,6.416-0.118,7.233-0.087C82.055,26.312,84.042,26.568,84.695,27.158z"/>
	<path fill="#FAFAFA" stroke="#000000" stroke-miterlimit="10" d="M21.987,43.554c-1.037-0.999-1.951-4.193-3.678-3.848
		c-1.355,0.271-2.373,1.892-3.005,3.008c2.171,0.062,4.283,1.229,5.592,2.951"/>
	<path fill="#FFFFFF" d="M26.785,60.8c-0.846-0.539-3.31-0.436-4.222-2.064c-0.154-0.175,0.743-1.843,0.886-2.064
		c-0.775-0.383-2.13-0.41-2.261-1.369c-0.165-1.182,2.239-2.658,3.078-3.258c-0.693,0.051-2.585,0.183-2.739-0.787
		c-0.822-1.718,1.619-3.044,2.475-3.727c-1.087-0.459-3.097-1.336-3.255-2.682c-0.13-1.119,1.726-2.413,2.471-2.954
		c2.292-1.538,8.438-3.873,10.105-4.591C37.708,35.41,33.916,60.314,26.785,60.8z"/>
	<path fill="#010101" d="M61.312,44.436C58.792,54.757,48.913,60.33,38.945,61.255c-2.294,0.213-20.137,1.428-16.312-4.49
		c-3.004-0.541-1.576-3.041-0.029-4.42c-0.872-0.389-2.284-1.102-1.897-2.29c0.348-1.069,1.451-1.907,2.209-2.681
		c-1.807-0.785-3.312-1.823-2.092-3.819c0.881-1.438,2.898-2.396,4.321-3.152c4.333-2.3,10.738-4.905,15.634-2.969
		c-2.667-0.61-5.605-0.041-8.2,0.649c-2.923,0.777-5.842,1.9-8.408,3.516c-0.996,0.629-3.57,2.224-2.865,3.765
		c0.305,0.666,1.335,1.174,1.994,1.353c2.07,0.566,4.678-0.138,6.77-0.312c-2.288,0.324-4.733,0.856-6.704,2.125
		c-0.701,0.45-2.061,1.501-1.52,2.506c0.639,1.188,2.192,0.61,3.088,0.286c2.729-0.986,5.786-1.167,8.64-1.569
		c-3.082,0.525-6.296,1.264-9.056,2.791c-0.739,0.41-2.826,1.578-2.312,2.74c0.708,1.605,2.941-0.051,3.868-0.443
		c3.436-1.448,7.096-2.568,10.802-3.024c-3.359,0.985-6.747,2.03-9.938,3.487c-1.249,0.568-3.085,1.301-3.8,2.58
		c-1.174,2.103,4.277,2.524,5.229,2.609c4.317,0.389,8.744,0.121,13.022-0.52c5.523-0.826,10.453-2.706,14.473-6.758
		C58.286,50.773,60.336,47.763,61.312,44.436C59.455,52.039,59.71,49.897,61.312,44.436z"/>
</g>
</svg>
