<?xml version="1.0" encoding="utf-8"?>
<!-- Generator: Adobe Illustrator 16.0.0, SVG Export Plug-In . SVG Version: 6.00 Build 0)  -->
<!DOCTYPE svg PUBLIC "-//W3C//DTD SVG 1.1//EN" "http://www.w3.org/Graphics/SVG/1.1/DTD/svg11.dtd">
<svg version="1.1" id="Layer_1" xmlns="http://www.w3.org/2000/svg" xmlns:xlink="http://www.w3.org/1999/xlink" x="0px" y="0px"
	 width="101px" height="101px" viewBox="0 0 101 101" enable-background="new 0 0 101 101" xml:space="preserve">
<rect id="hidden" x="1" fill="#FFFFFF" stroke="#000000" stroke-miterlimit="10" width="100" height="100"/>
<g>
	<path fill="#010101" d="M27.404,48.827c-2.221,6.114-13.598,29.258-5.773,32.331c8.313,3.266,16.91,5.953,25.469,8.492
		c6.25,1.853,10.016,4.489,13.191-2.107c3.574-7.428,6.068-15.438,8.571-23.273c2.027-6.345,3.646-6.666-2.663-8.685
		c-7.896-2.526-15.793-5.054-23.69-7.581C37.651,46.449,32.403,48.161,27.404,48.827z"/>
	<path fill="#D6D6D5" d="M72.782,54.986c-1.516,5.488-34.27-5.549-38.253-7.136c-8.681-2.391-3.492-11.073-1.842-17.061
		c1.426-5.172,2.21-16.474,5.684-20.617c1.51-5.49,34.271,5.548,38.252,7.134c8.682,2.393,3.493,11.075,1.843,17.062
		C76.571,41.241,74.678,48.114,72.782,54.986z"/>
	<path fill="#CC2427" d="M84.032,18.695c0.916-3.322,3.804-8.92,2.871-12.41c-1.119-4.192-6.571-3.378-7.6,0.353
		c-0.605,2.203-1.213,4.405-1.818,6.607C68.53,9.794,58.648,7.981,49.401,5.432c-13.878-3.826-17.755,7.03-20.709,17.742
		c-2.366,8.581-4.732,17.161-7.097,25.741c-2.658,9.641-11.38,27.136-2.997,35.749c6.614,6.798,22.107,7.988,30.799,10.385
		c12.02,3.314,18.581-2.044,21.706-13.377c3.063-11.111,6.129-22.223,9.192-33.333C82.632,39.856,89.098,26.908,84.032,18.695z
		 M37.598,21.675c1.397-5.082,28.333,5.042,32.14,6.091c4.138,1.141,7.289,1.63,5.873,6.768c-0.968,3.509-1.799,12.306-4.203,15.241
		c-1.325,4.831-23.756-3.778-28.569-5.106c-4.203-1.159-11.21-1.347-9.607-7.155C34.685,32.235,36.141,26.955,37.598,21.675z
		 M54.371,13.877c2.666,0.735,5.335,1.471,8.001,2.207c0.618,0.17,2.962,0.43,3.438,0.947c2.188,0.604,1.255,3.984-0.933,3.381
		c-1.693,0.506-6.305-1.738-8.002-2.207c-0.619-0.17-2.965-0.43-3.439-0.948C51.252,16.652,52.189,13.276,54.371,13.877z
		 M57.359,63.658c0.388-1.4,0.963-6.812,2.082-7.54c0.965-0.632,6.771,1.866,8.058,2.222c-0.386,1.4-0.964,6.812-2.081,7.541
		C64.451,66.512,58.646,64.013,57.359,63.658z M64.068,70.771c-0.387,1.399-0.963,6.811-2.08,7.539
		c-0.967,0.631-6.772-1.867-8.059-2.222c0.387-1.401,0.965-6.808,2.08-7.537C56.976,67.921,62.781,70.417,64.068,70.771z
		 M40.087,72.271c0.386-1.401,0.963-6.808,2.079-7.537c0.966-0.631,6.775,1.867,8.062,2.223c-0.387,1.4-0.963,6.808-2.08,7.537
		C47.182,75.124,41.373,72.626,40.087,72.271z M47.064,78.428c-0.693,2.512-1.385,5.025-2.078,7.537
		c-2.572-0.708-5.144-1.418-7.714-2.126c-0.739-0.204,1.432-6.549,1.731-7.634C41.69,76.945,44.377,77.688,47.064,78.428z
		 M43.515,59.841c0.386-1.401,0.963-6.812,2.08-7.54c0.966-0.632,6.776,1.869,8.063,2.223c-0.387,1.4-0.963,6.811-2.08,7.541
		C50.61,62.693,44.801,60.195,43.515,59.841z M29.67,56.021c0.386-1.399,0.963-6.811,2.08-7.54c0.966-0.631,6.776,1.869,8.062,2.223
		c-0.387,1.4-0.963,6.812-2.08,7.541C36.767,58.877,30.956,56.378,29.67,56.021z M36.385,63.138c-0.386,1.401-0.963,6.81-2.08,7.54
		c-0.966,0.631-6.776-1.869-8.062-2.223c0.693-2.514,1.387-5.027,2.08-7.541C31.01,61.656,33.698,62.396,36.385,63.138z
		 M25.161,72.386c2.571,0.708,5.142,1.418,7.714,2.127c0.737,0.204-1.433,6.55-1.732,7.634c-2.571-0.709-5.142-1.418-7.713-2.127
		C22.69,79.816,24.861,73.471,25.161,72.386z M52.849,80.023c2.57,0.709,5.14,1.418,7.71,2.125c0.738,0.205-1.433,6.549-1.73,7.635
		c-2.571-0.709-5.141-1.42-7.711-2.127C50.379,87.453,52.55,81.107,52.849,80.023z"/>
	<path fill="#EE3024" d="M84.032,18.695c0.916-3.322,3.804-8.92,2.871-12.41c-1.119-4.192-6.571-3.378-7.6,0.353
		c-0.605,2.203-1.213,4.405-1.818,6.607c-5.504-2.122-11.556-3.256-17.229-4.821c-6.525-1.799-15.174-5.811-21.81-2.756
		c-7.457,3.434-8.425,12.686-10.365,19.723c-1.799,6.525-3.598,13.051-5.397,19.576c5.783-0.178,11.562-0.524,17.322-1.08
		c-2.162-0.596-8.214-1.15-7.219-4.763c-0.407-2.174,1.827-6.625,2.407-8.725c1.739-6.303,1.74-11.681,9.172-9.631
		c7.585,2.092,15.171,4.184,22.76,6.276c6.765,1.866,9.992,2.03,7.831,9.862c2.386-0.847,9.196-2.563,9.909-5.156
		C86.11,27.234,86.639,22.92,84.032,18.695z M64.878,20.412c-2.667-0.735-5.333-1.471-8-2.207c-0.619-0.171-2.963-0.43-3.438-0.948
		c-2.186-0.604-1.25-3.982,0.934-3.379c1.691-0.507,6.304,1.738,8.001,2.207c0.618,0.17,2.964,0.43,3.438,0.948
		C67.998,17.637,67.062,21.014,64.878,20.412z"/>
	<path fill="#010101" d="M83.973,18.681c0.909-3.518,2.38-7.322,2.772-10.954c0.302-2.387-2.113-4.612-4.475-3.873
		c-2.742,0.632-2.979,4.184-3.582,6.42c-1.881,6.987-11.23,0.646-16.624-0.836c-4.5-1.211-8.996-2.427-13.496-3.642
		C34.145,1.903,31.175,15.648,28.17,26.262c-3.225,11.388-6.395,22.787-9.478,34.215c-3.161,11.715-6.751,23.812,8.676,27.957
		c9.074,2.438,18.346,5.935,27.623,7.366c12.125,1.87,14.503-10.767,16.927-19.469c2.689-9.666,5.47-19.308,8.215-28.957
		c1.275-4.49,2.561-8.978,3.831-13.468c0.535-1.892,1.212-3.789,1.603-5.718C86.214,24.98,83.475,21.046,83.973,18.681z
		 M84.098,18.69c4.28,7.045,0.333,15.763-1.61,23.042c-3.643,13.635-7.297,27.266-10.985,40.889
		c-1.972,7.277-5.309,14.185-13.936,14.604c-4.47,0.311-9.661-1.943-13.984-3.152c-6.784-1.896-14.246-3.266-20.751-5.965
		c-12.458-4.994-7.304-18.418-4.67-27.777c2.569-9.126,5.108-18.26,7.565-27.417c1.811-6.751,2.864-14.815,5.879-21.092
		c3.644-7.584,11.182-8.734,18.488-6.769c9.2,2.474,18.432,5.001,27.527,7.824c-1.354-0.902,3-14.447,8.285-8.722
		C89.22,6.979,85.067,15.377,84.098,18.69z"/>
	<path fill="#010101" d="M37.539,21.655c-0.815-0.516,2.565-2.056,2.175-1.991c2.489-0.549,7.085,1.529,9.486,2.112
		c6.712,1.631,13.395,3.374,20.012,5.367c3.654,1.1,8.341,1.354,6.941,6.297c-1.162,4.09-2.043,15.062-5.227,17.813
		c-2.562,2.498-10.049-1.041-12.638-1.73c-5.987-1.594-11.962-3.224-17.933-4.878c-5.68-1.608-9.068-2.336-7.136-8.609
		C34.707,31.255,36.149,26.465,37.539,21.655z M37.657,21.695c-1.272,4.84-2.489,9.69-3.661,14.555
		c-1.392,5.765,1.404,5.742,6.703,7.171c5.974,1.64,11.942,3.3,17.899,5c2.227,0.635,9.524,4.386,11.821,2.301
		c3.218-2.711,4.204-13.374,5.285-17.408c1.216-4.554-3.397-4.446-6.739-5.284c-6.702-1.68-13.332-3.608-19.932-5.648
		c-2.381-0.736-4.756-1.486-7.15-2.176C41.715,20.161,36.318,20.721,37.657,21.695z"/>
	<path fill="#010101" d="M54.387,13.816c3.607,0.875,7.164,1.32,10.667,2.658c5.309,2.239-0.046,4.399-3.442,3.607
		c-1.944-0.454-10.244-1.224-9.732-4.529C51.915,14.79,53.941,12.811,54.387,13.816z M54.354,13.938
		c-6.658,1.118,6.518,4.755,7.547,5.084c3.645,1.164,7.161-0.973,2.974-1.901C61.181,16.471,57.9,15.035,54.354,13.938z"/>
</g>
</svg>
