<?xml version="1.0" encoding="utf-8"?>
<!-- Generator: Adobe Illustrator 16.0.0, SVG Export Plug-In . SVG Version: 6.00 Build 0)  -->
<!DOCTYPE svg PUBLIC "-//W3C//DTD SVG 1.1//EN" "http://www.w3.org/Graphics/SVG/1.1/DTD/svg11.dtd">
<svg version="1.1" id="Layer_1" xmlns="http://www.w3.org/2000/svg" xmlns:xlink="http://www.w3.org/1999/xlink" x="0px" y="0px"
	 width="101px" height="101px" viewBox="0 0 101 101" enable-background="new 0 0 101 101" xml:space="preserve">
<rect id="hidden" x="1" fill="#FFFFFF" stroke="#000000" stroke-miterlimit="10" width="100" height="100"/>
<g>
	<path fill="#93C13E" stroke="#000000" stroke-miterlimit="10" d="M64.591,49.324c6.312-9.208,6.93-23.648,0.313-32.795
		c-3.555-4.912-9.136-7.758-15.025-8.754c-5.725-0.966-12.338-0.594-17.493,2.266c-2.073,1.149-3.933,2.739-5.269,4.708
		c-0.228,0.334-0.686,1.655-1.08,1.732c-3.023,0.585-5.989,1.777-8.672,3.265C6.899,25.556,0.613,39.174,7.279,50.172
		c2.02,3.331,5.076,6.312,8.549,8.125c-0.027-1.17,0.063-2.393,0.42-3.51c0.193-0.612,1.748-3.021,2.627-2.15
		c2.385,2.361,5.836,2.951,9.045,2.543c1.592-0.199,3.199-0.557,4.672-1.211c0.836-0.369,0.816-0.082,1.643,0.459
		c2.879,1.887,6.495,3.371,9.963,3.605c-0.59,4.029,0.486,8.55,3.204,11.623c2.274,2.574,5.507,4.466,8.736,5.594
		c13.907,0.794,18.349,5.712,18.68,6.328c1.435,2.673,2.911,5.365,4.673,7.835c0.555,0.778,1.25,1.921,2.238,2.185
		c1.234,0.327,1.445-1.223,1.396-2.095c1.037,1.09,2.205,2.313,3.574,2.972c1.647,0.793,1.986-1.478,2.033-2.643
		c1.256,0.959,3.233,2.708,4.903,2.646c1.596-0.057,0.637-4.119,0.438-5.02c0.885,0.53,3.346,1.758,3.389-0.148
		c0.035-1.715-0.973-3.545-1.807-4.996c0.2,0.205,1.416,1.375,1.519,0.621c0.099-0.728-0.438-1.416-0.837-1.963
		c-1.369-1.896-2.979-3.63-4.551-5.354c-1.613-1.77-3.264-3.51-4.926-5.234c-0.469-0.482-1.217-0.992-1.447-1.644
		c-3.229-9.119-11.031-16.757-20.391-19.306C64.879,49.4,64.736,49.362,64.591,49.324z"/>
	<path fill="#010101" d="M15.716,20.738c1.933-0.917,3.866-1.834,5.798-2.751c1.518-0.72,3.031-1.096,4.662-1.532
		c-4.229,5.476-4.869,13.474-3.46,19.996c0.909,4.212,2.407,9.186,5.312,12.512c1.567,1.79,3.557,3.244,5.442,4.664
		c-2.351,1.132-5.085,1.68-7.685,1.622c-1.908-0.041-3.594-0.417-5.229-1.397c-0.646-0.39-1.271-0.812-1.9-1.227
		c-0.705-0.462-1.646,0.867-2.021,1.28c-0.818,0.907-0.779,2.499-0.784,3.643c-0.003,0.988-0.267,0.896-1.003,0.29
		c-2.491-2.042-5.532-4.056-7.24-6.833c-3.158-5.129-3.82-12.181-1.753-17.801c1.737-4.723,4.731-9.579,9.226-12.137
		C15.285,20.948,15.498,20.837,15.716,20.738z"/>
	<path fill="#C0D72F" d="M75.797,81.341c1.3,3.168,2.783,7.005,5.285,9.448c0.619,0.604,1.57,0.536,1.707-0.445
		c0.129-0.914-0.129-1.912-0.392-2.785c1.123,1.633,2.526,3.687,4.347,4.582c1.854,0.911,1.813-2.109,1.724-3.195
		c1.174,1.123,2.688,2.684,4.315,3.063c2.447,0.573,1.155-4.228,0.877-5.257c1.217,1.167,4.362,2.219,3.457-0.607
		c-0.502-1.562-1.272-3.064-1.988-4.539c0.209,0.207,1.615,1.715,1.863,1.297c0.412-0.698-0.769-1.76-1.201-2.221
		c-1.781-1.887-3.596-3.744-5.375-5.633c1.596,2.467,3.084,4.913,4.185,7.645c0.104,0.256,1.272,3.063,0.604,3.1
		c-1.146,0.059-2.866-1.492-3.77-2.125c0.54,1.582,1.582,4.074,1.005,5.738c-0.702,2.019-5.091-3.27-5.625-4.057
		c-0.021,0.619-0.198,4.948-1.311,4.14c-1.749-1.274-3.194-3.126-4.63-4.732c0.216,0.974,0.486,2.056,0.385,3.056
		c-0.119,1.123-1.229-0.494-1.456-0.779C78.373,85.214,77.059,83.281,75.797,81.341z"/>
	<path fill="#FCEE21" stroke="#000000" stroke-miterlimit="10" d="M25.883,16.496c-3.314,4.436-5.121,11.113-5.024,16.687
		c0.097,5.418,2.773,10.967,5.724,15.419c-2.652,0.633-5.6,1.5-7.959,2.86c-2.489,1.438-3.063,3.513-3.189,6.177
		C8.039,53.436,3.793,44.88,5.099,36.487c0.774-4.984,3.229-9.652,6.958-13.057C16.162,19.683,20.524,17.452,25.883,16.496z"/>
	<path fill="#010101" d="M26.314,16.467c-3.21,4.367-4.912,10.368-5.23,15.814c-0.336,5.742,2.709,11.744,5.759,16.423
		c-2.562,0.616-5.306,1.435-7.667,2.625c-2.794,1.383-3.487,3.601-3.628,6.524c-8.511-5.012-12.69-14.847-9.829-24.376
		c1.291-4.344,3.938-8.28,7.505-11.076C17.275,19.22,21.339,17.374,26.314,16.467z M13.258,22.443
		c-3.287,2.602-5.782,6.179-7.135,10.145c-3.267,9.58,0.668,19.805,9.369,24.938c-0.062,0.035-0.125,0.072-0.188,0.106
		c0.131-2.765,0.802-4.92,3.348-6.352c2.361-1.332,5.274-2.188,7.893-2.84c-0.031,0.084-0.065,0.166-0.096,0.25
		c-2.996-4.609-5.783-10.238-5.791-15.854c0.148-5.567,2.039-11.909,5.226-16.424C24.841,16.6,17.08,19.417,13.258,22.443z"/>
	<path fill="#FCEE21" d="M19.293,52.03c2.361-1.44,4.891-2.152,7.603-2.589c0.31-0.051,1.666,1.807,1.933,2.066
		c0.778,0.752,1.711,1.339,2.586,1.974C27.494,55.443,22.414,55.43,19.293,52.03z"/>
	<path fill="#C0D72F" stroke="#000000" stroke-miterlimit="10" d="M67.115,70.861c2.633,0.012,5.354-0.51,7.916-1.086
		c-2.748-2.646-5.636-5.246-8.143-8.129c-3.523-4.047-8.467-9.004-14.359-7.41c-7.01,1.895-5.58,10.514-0.673,13.945
		C55.97,71.057,62.279,70.861,67.115,70.861C69.877,70.873,66.918,70.861,67.115,70.861z"/>
	<path fill="#010101" d="M67.115,70.835c2.651-0.024,5.317-0.583,7.89-1.183c-0.019,0.068-0.035,0.138-0.056,0.207
		c-2.039-1.879-4.052-3.782-5.996-5.758c-1.922-1.955-3.602-4.146-5.625-6c-3.502-3.217-8.953-5.933-13.271-2.438
		c-4.108,3.321-1.924,9.453,1.701,12.149C55.83,70.839,62.264,70.777,67.115,70.835C68.449,70.821,65.824,70.818,67.115,70.835z
		 M67.115,70.885c-4.934,0.029-11.447,0.399-15.619-2.668c-3.785-2.781-6.076-9.039-1.984-12.623
		c4.382-3.839,10.212-0.914,13.896,2.305c2.09,1.826,3.883,3.951,5.842,5.908c2.015,2.01,4.025,4.021,6.029,6.041
		C72.609,70.366,69.84,70.891,67.115,70.885C65.822,70.891,68.453,70.889,67.115,70.885z"/>
	<path fill="#B17F4A" stroke="#000000" stroke-miterlimit="10" d="M74.994,79.641c-0.752-1.389-1.521-2.719-2.481-3.97
		c-0.188-0.246-0.799-1.354-1.131-1.333c-0.681,0.041-1.359,0.086-2.039,0.145c-0.785,0.065-1.593,0.119-2.362,0.287
		c-1.158,0.015-7.396,0.487-7.404,0.615c-0.803-0.102-1.603-0.203-2.398-0.305c-0.42-0.057-1.01,0.377-1.393,0.549
		c-1.817,0.814-3.654,1.592-5.49,2.363c-4.273,1.797-8.562,3.574-12.9,5.209c-3.064,1.152-5.787,1.482-9.02,1.189
		c-0.653-0.058-2.646-0.714-3.186-0.397c-0.412,0.243-0.71,0.583-1.152,0.807c-1.73,0.88-3.498,1.679-5.24,2.531
		c-1.151,0.565-2.301,1.133-3.418,1.759c-0.451,0.252-1.301,0.598-1.557,1.088c-0.438,0.848,5.19,1.719,5.645,1.791
		c3.271,0.512,6.615,1.037,9.919,0.527c2.794-0.426,5.514-1.434,8.274-2.062c5.533-1.261,11.01-2.254,16.375-4.131
		c3.746-1.309,11.045-3.504,15.114-5.027c0.774-0.182,1.568-0.508,2.229-0.684C72.58,80.275,73.787,79.959,74.994,79.641z"/>
	<path fill="#FFFFFF" stroke="#000000" stroke-miterlimit="10" d="M42.854,33.112c-1.295,6.039-6.438,13.224-13.467,12.038
		c-7.418-1.252-9.412-10.423-8.074-16.656c1.296-6.038,6.438-13.224,13.468-12.038C42.197,17.71,44.19,26.881,42.854,33.112
		C41.164,40.999,44.545,25.229,42.854,33.112z"/>
	<path fill="#1D1D1B" d="M32.85,30.804c0,2.975-4.609,2.975-4.609,0C28.24,27.831,32.85,27.831,32.85,30.804z"/>
	<path fill="#F7B132" stroke="#000000" stroke-miterlimit="10" d="M66.763,74.709c-2.231,0.188-4.465,0.374-6.696,0.561
		c0.928,0.869,1.84,1.758,2.731,2.666c0.575,0.592,1.157,1.188,1.675,1.834c0.677,0.851,0.82,1.863,1.154,2.864
		c0.525,1.574,1.852-0.61,2.176-1.252C68.951,79.109,68.379,76.6,66.763,74.709z"/>
	<path fill="#EB2227" d="M19.688,50.492c-3.255,1.439-4.284,3.85-4.437,7.146c-2.611-1.742-4.941-4.074-6.754-6.625
		c-1.57-2.207-2.762-4.714-3.211-7.398c-0.291-1.735-0.492-3.529-0.403-5.289c0.036-0.785,0.083-2.123,0.722-2.542
		c0.864-0.413,1.786-0.704,2.729-0.874C17.842,33.188,20.488,43.124,19.688,50.492z"/>
</g>
</svg>
