<?xml version="1.0" encoding="utf-8"?>
<!-- Generator: Adobe Illustrator 16.0.0, SVG Export Plug-In . SVG Version: 6.00 Build 0)  -->
<!DOCTYPE svg PUBLIC "-//W3C//DTD SVG 1.1//EN" "http://www.w3.org/Graphics/SVG/1.1/DTD/svg11.dtd">
<svg version="1.1" id="Layer_1" xmlns="http://www.w3.org/2000/svg" xmlns:xlink="http://www.w3.org/1999/xlink" x="0px" y="0px"
	 width="101px" height="101px" viewBox="0 0 101 101" enable-background="new 0 0 101 101" xml:space="preserve">
<rect id="hidden" x="1" fill="#FFFFFF" stroke="#000000" stroke-miterlimit="10" width="100" height="100"/>
<g>
	<path fill="#0087C4" stroke="#231F20" stroke-linecap="round" stroke-linejoin="round" stroke-miterlimit="10" d="M80.076,60.803
		c5.775,20.59-11.844,36.389-29.545,36.389c-17.717,0-33.458-15.51-28.943-36.389C26.271,39.182,45.24,29.308,50.531,2.811
		C55.262,28.896,74.021,39.182,80.076,60.803z"/>
	
		<linearGradient id="SVGID_1_" gradientUnits="userSpaceOnUse" x1="-523.8223" y1="1380.6797" x2="-472.082" y2="1380.6797" gradientTransform="matrix(1 0 0 1 546 -1310.4688)">
		<stop  offset="0" style="stop-color:#FFFFFF;stop-opacity:0"/>
		<stop  offset="1" style="stop-color:#FFFFFF;stop-opacity:0.58"/>
	</linearGradient>
	<path fill="url(#SVGID_1_)" d="M66.962,91.086c3.511-1.914,4.937-3.419,6.956-5.868c-2.256,1.95-5.498,4.808-8.695,5.75
		c-12.365,3.597-24.611,0.8-33.437-9.575c-9.169-10.762-5.632-27.311-1.945-36.151c-7.369,11.597-9.566,21.087-5.97,31.789
		C29.074,92.527,49.482,100.609,66.962,91.086z"/>
	
		<linearGradient id="SVGID_2_" gradientUnits="userSpaceOnUse" x1="-3309.3853" y1="2251.4404" x2="-3280.6477" y2="2235.4104" gradientTransform="matrix(-0.0623 -1.7191 1.0254 0.22 -2451.8513 -6092.04)">
		<stop  offset="0" style="stop-color:#FFFFFF;stop-opacity:0.56"/>
		<stop  offset="1" style="stop-color:#FFFFFF;stop-opacity:0"/>
	</linearGradient>
	<path opacity="0.71" fill="url(#SVGID_2_)" enable-background="new    " d="M52.537,38.858c9.871-0.986,26.054,6.323,27.378,29.001
		c0.868,14.828-11.919,24.816-28.677,22.547c-10.539-1.416-19.559-6.1-22.873-20.289C24.064,51.709,39.641,40.155,52.537,38.858z"/>
	<path fill="#FFFFFF" d="M75.29,60.406c-0.976,0.086-1.636,1.5-1.489,3.184c0.145,1.661,1.061,2.947,2.03,2.855
		c0.991-0.074,1.651-1.506,1.491-3.185C77.176,61.596,76.262,60.314,75.29,60.406z"/>
	<path fill="#FFFFFF" d="M74.363,58.177c-0.049,0.251,0.305,0.647,0.777,0.868c0.471,0.234,0.897,0.209,0.926-0.055
		c0.049-0.27-0.308-0.664-0.776-0.891C74.818,57.865,74.406,57.898,74.363,58.177z"/>
	<path fill="#FFFFFF" d="M74.245,56.922c-0.091,0.117,0,0.312,0.204,0.445c0.203,0.117,0.438,0.117,0.547,0.017
		c0.085-0.118-0.018-0.312-0.227-0.444C74.566,56.805,74.331,56.805,74.245,56.922z"/>
	<path fill="#FFFFFF" d="M73.843,56.146c-0.06,0.068-0.016,0.188,0.103,0.277c0.119,0.104,0.234,0.118,0.303,0.059
		c0.053-0.059,0.011-0.189-0.105-0.276C74.036,56.113,73.9,56.087,73.843,56.146z"/>
	<path fill="#FFFFFF" d="M62.702,41.527c-0.118,0.295-0.647,0.381-1.179,0.177c-0.549-0.209-0.887-0.605-0.77-0.916
		c0.118-0.295,0.646-0.368,1.182-0.177C62.482,40.82,62.82,41.216,62.702,41.527z"/>
	<path fill="#FFFFFF" d="M64.621,43.103c-0.15,0.176-0.531,0.118-0.842-0.135c-0.327-0.249-0.457-0.59-0.312-0.767
		c0.135-0.176,0.521-0.118,0.842,0.135C64.621,42.572,64.766,42.926,64.621,43.103z"/>
</g>
</svg>
