<?xml version="1.0" encoding="utf-8"?>
<!-- Generator: Adobe Illustrator 16.0.0, SVG Export Plug-In . SVG Version: 6.00 Build 0)  -->
<!DOCTYPE svg PUBLIC "-//W3C//DTD SVG 1.1//EN" "http://www.w3.org/Graphics/SVG/1.1/DTD/svg11.dtd">
<svg version="1.1" id="Layer_1" xmlns="http://www.w3.org/2000/svg" xmlns:xlink="http://www.w3.org/1999/xlink" x="0px" y="0px"
	 width="101px" height="101px" viewBox="0 0 101 101" enable-background="new 0 0 101 101" xml:space="preserve">
<rect id="hidden" fill="#FFFFFF" stroke="#000000" stroke-miterlimit="10" width="100" height="100"/>
<g>
	<path fill="#F8991D" d="M91.248,23.631c-0.699-0.984-2.349-1.027-3.482-1.583c0.098-1.175,1.678-0.858,1.586-2.215
		c-2.428-0.104-3.623-3.703-4.318-5.542c7.668-0.658,2.287-13.896-3.27-6.273c-0.576-1.717-4.685-6.309-7-6.392
		c-1.604-0.06,0.852,1.741-2.312,0.896c-3.428-0.914,0.494,1.086-2.539,1.652c-2.381,0.446-3.002,1.016-6.021,2.805
		c-6.651-7.207-13.192,9.875-2.849,9.494c-0.955,1.365-4.341,4.713-6.744,4.629c0.158,1.422,1.041,2.12,2.213,2.529
		c-0.909,1.584-2.433,1.3-4.111,1.584c-0.209,1.368,2.215,0.104,2.529,0.949c-0.943,1.375-2.107,2.535-2.851,4.115
		c1.279,0.709,2.271-1.213,4.115-0.948c-0.149,1.243-1.535,2.502-0.633,3.798c0.6,1.076,1.108-0.542,1.897-0.316
		c-0.186,1.238,0.273,1.838,0.635,2.533c2.433-0.256,2.334-1.21,4.75-0.314c1.938-0.338,0.66-2.053,2.65-0.631
		c4.24,3.008-0.824,5.455-2.85,6.328c-2.688,1.16-9.074,1.256-9.18,1.268c-5.342,0.438-11.564,1.268-17.408,0.314
		c-4.266-0.716-8.479,1.896-8.479,1.897c-1.605,0.836-2.23,1.041-2.814,0.03c-4.002-6.854,8.318-4.918,12.177-11.358
		c3.833-6.394-0.244-14.299-5.319-17.717c-7.824-5.276-16.908,0.416-19.764,4.085c-1.789,2.298-5.167,7.302-0.745,9.79
		c5.188,2.084,7.708-10.771,14.254-8.831c2.272,0.674,3.947,2.917,4.688,5.119c3.182,9.488-15.289,5.039-14.185,15.859
		c0.011,3.562,2.847,7.799,6.054,10.254c-0.095-0.021-0.181-0.037-0.273-0.057c-1.129,3.438-2.4,5.346-1.464,10.061
		c0.948,4.787,4.177,7.354,6.057,11.244c-0.455,1.549-2.286,1.723-2.53,3.481c3.021,2.994,1.521,9.233,3.48,14.246
		c0.418,1.062,2.305,2.022,2.85,3.479c0.159,0.422-0.227,1.194,0,1.584c0.758,1.274,2.308,2.685,3.17,2.846
		c1.948,0.367,8.726-2.032,9.49-4.748c0.389-1.362-0.035-2.856-0.314-4.113c-1.728-2.227-5.562-0.682-8.86-0.95
		c-2.104-3.177-2.298-8.253-2.215-13.606c2.958-1.26,4.594-3.846,6.647-6.019c1.951-0.054,3.099,0.698,4.431,1.269
		c0.56,3.774-2.496,4.199-2.532,5.064c-0.062,1.662,1.143,1.721,2.216,3.799c1.67,3.227,1.636,10.379,3.479,12.979
		c1.801,2.522,5.945,2.661,8.229,0.95c0.529,7.244,9.894,3.473,13.293,1.58c0.084-1.396,0.972-1.982,0.636-3.799
		c1.006,1.84,1.442,2.949,3.53,3.707c3.476,1.642,6.046,0.311,8.812-0.858c5.654-2.396,2.447-10.358-4.113-9.179
		c1.656-14.767,11.146-31.052,4.539-44.053c0.648-0.958-2.199-2.449-1.281-3.134c4.817-1.438,5.783-2.983,6.674-5.989
		c0.971-0.229,0.932,0.547,1.898,0.315c0.326-0.833,0.377-1.941,0.314-3.165c0.971,0.021,1.649,1.166,2.532,0.316
		c0.334-1.918-0.729-2.436-0.95-3.8C89.356,23.64,91.435,24.767,91.248,23.631z M53.78,85.986c-3.079,1.896-6.349-7.592-6.331-9.182
		c0.021-2.098,1.92-3.406,2.532-4.746c1.743,0.161,2.983-0.184,4.429-0.316C54.727,76.802,53.799,82.311,53.78,85.986z
		 M71.821,67.626c-1,7.548-2.724,14.372-4.114,21.526c-0.371-0.055-0.269-0.582-0.314-0.953c-0.535-1.789-4.066-0.816-4.434-2.53
		c-0.021-0.101-0.3-4.765,0-6.017c0.795-3.336,1.26-5.912,0.95-9.812c2.461,0.034,2.981-0.127,4.257-1.413
		C69.569,67.015,73.317,63.304,71.821,67.626z"/>
	<g>
		<path fill="#010101" d="M91.221,23.643c-0.773-1.052-2.379-1.033-3.469-1.557c-0.32-0.844,1.61-1.235,1.551-2.248
			c-2.267,0.521-3.758-4.023-4.361-5.596c3.254-0.26,4.6-3.328,3.328-6.176c-1.543-3.403-4.709-2.358-6.537,0.164
			c-0.639-1.707-2.061-3.188-3.383-4.397c-0.832-0.761-1.756-1.509-2.82-1.914c-0.312-0.118-0.693-0.218-1.033-0.157
			c-0.498,0.092,0.061,0.818-0.404,1.051c-0.672,0.336-1.771-0.207-2.453-0.33c-1.125-0.207,0.021,0.635-0.491,1.291
			c-0.578,0.738-2.035,0.688-2.861,0.983c-1.08,0.394-2.062,1.004-3.028,1.606c-0.193,0.119-1.293,0.957-1.451,0.787
			c-0.699-0.752-1.551-1.449-2.574-1.68c-2.203-0.498-3.943,1.396-4.74,3.229c-0.766,1.765-0.994,4.021,0.104,5.701
			c1.08,1.653,3.091,1.908,4.904,1.82c-1.488,2.148-4.357,5.172-7.209,5.12c0.082-0.09,0.166-0.18,0.25-0.271
			c0.156,1.351,1.143,2.021,2.344,2.42c-0.94,1.83-2.676,1.67-4.44,1.98c0.071-0.07,0.146-0.146,0.217-0.22
			c-0.11,0.854,2.377-0.238,2.574,0.95c0.055,0.332-1.076,1.451-1.291,1.729c-0.601,0.773-1.188,1.568-1.604,2.463
			c-0.039-0.125-0.078-0.248-0.117-0.371c1.039,0.58,2.736-1.172,4.021-0.994c0.8,0.396-0.674,2.312-0.676,3.146
			c0,1.67,0.831,0.482,1.553,0.328c0.619-0.135,0.522,0.05,0.646,0.344c-0.129,0.907,0.193,1.569,0.602,2.352
			c-0.098-0.055-0.199-0.104-0.297-0.157c1.816-0.187,3.037-0.974,4.885-0.3c-0.051-0.006-0.102-0.01-0.154-0.014
			c0.771-0.141,0.951-1.123,1.588-1.188c0.709-0.072,1.605,0.802,2.068,1.251c1.717,1.659,0.783,3.521-0.918,4.718
			c-3.369,2.37-7.648,2.645-11.637,2.751c-3.559,0.099-7.092,0.673-10.655,0.75c-4.604,0.103-9.161-1.301-13.577,0.486
			c-1.197,0.485-3.759,2.596-4.914,1.21c-1.418-1.702-1.422-4.055,0.461-5.334c3.453-2.35,8.141-2.387,10.918-5.842
			c5.525-6.866-0.691-17.776-8.275-19.828c-4.895-1.326-10.212,0.658-13.969,3.836c-2.715,2.299-7.406,8.763-2.678,11.268
			c2.617,1.146,4.827-2.296,6.149-4.007c1.506-1.942,3.28-4.462,5.879-4.933c5.196-0.939,10.164,7.638,5.386,10.938
			c-3.884,2.681-11.633,2.56-12.556,8.349c-0.798,5,2.638,9.65,6.394,12.521c-0.271-0.059-0.547-0.113-0.819-0.169
			c0.05-0.028,0.097-0.062,0.145-0.089c-0.76,2.348-1.797,4.557-1.791,7.076c0.007,2.639,0.778,5.199,2.104,7.467
			c1.244,2.128,2.863,4.014,4.009,6.204c0.819,1.565-2.079,2.45-2.287,4.011c0.888,0.41,1.524,2.555,1.755,3.667
			c0.407,1.962,0.459,3.979,0.7,5.963c0.2,1.63,0.351,3.966,1.491,5.246c1.033,1.157,2.615,2.005,2.361,3.749
			c-0.19,1.182,1.537,2.532,2.418,3.084c1.424,0.893,3.687-0.061,5.094-0.609c1.629-0.635,3.498-1.521,4.554-2.978
			c1.047-1.392,0.261-3.462,0.085-4.752c-0.966-1.247-2.711-1.205-4.128-1.112c-1.192,0.082-3.716,0.78-4.754,0.166
			c-1.822-2.797-2.125-6.373-2.239-9.621c-0.027-0.777-0.039-1.557-0.039-2.336c0-0.365-0.188-1.578,0.014-1.873
			c0.185-0.268,1.113-0.547,1.418-0.738c0.693-0.442,1.328-0.978,1.916-1.553c1.193-1.177,2.205-2.519,3.354-3.732
			c1.036-0.479,2.861,0.392,3.815,0.832c1.149,0.529,1.201,0.709,0.992,2.15c-0.112,0.771-0.451,1.479-0.979,2.049
			c-0.354,0.388-1.438,0.899-1.561,1.412c-0.271,1.193,1.275,2.244,1.832,3.104c0.955,1.475,1.313,3.274,1.636,4.978
			c0.524,2.764,0.516,7.101,2.72,9.174c2.104,2.008,5.577,1.692,7.748,0.01c0.375,7.129,8.991,4.021,12.939,1.852
			c-0.045,0.07-0.09,0.141-0.133,0.211c0.057-1.328,0.894-2.359,0.644-3.74c-0.065-0.51-0.187-1.016-0.278-1.521
			c0.98,1.78,1.768,3.938,3.748,4.801c2.652,1.155,4.932,1.015,7.596-0.077c2.627-1.078,5.182-2.844,3.906-6.106
			c-1.054-2.702-4.035-3.785-6.729-3.214c1.189-11.146,6.504-21.547,6.914-32.811c0.096-2.682-0.146-5.378-0.893-7.963
			c-0.347-1.197-0.795-2.363-1.355-3.477c-0.092-0.312,0.152-0.476-0.098-0.859c-0.33-0.523-0.812-0.93-1.162-1.441
			c-0.474-0.697-0.051-0.967,0.559-1.16c1.328-0.418,2.658-0.922,3.771-1.775c1.021-0.78,1.638-1.875,2.056-3.064
			c0.072-0.203,0.18-0.857,0.356-0.963c0.729-0.146,1.19,0.504,1.897,0.324c0.139-0.811,0.312-2.096,0.267-3.154
			c0.872,0.031,1.761,1.096,2.562,0.346c0.222-1.368-0.729-2.396-0.948-3.75C89.323,23.658,91.401,24.672,91.221,23.643
			C90.836,23.12,91.254,23.835,91.221,23.643z M91.278,23.625c0.213,0.836-1.076,0.51-1.459,0.742
			c-0.502,0.309,0.295,1.658,0.42,1.902c0.272,0.533,0.854,1.885,0.412,2.469c-0.873,0.828-1.646-0.274-2.572-0.289
			c0.246,0.438,0.091,1.891-0.081,2.604c-0.318,1.316-1.195,0.025-2.113,0.264c0.123,1.131-1.279,3.215-2.322,4.021
			c-1.232,0.956-2.928,1.604-4.297,1.979c-0.687,0.446,1.941,2.191,1.32,3.111c0.002-0.043,0.004-0.087,0.006-0.132
			c3.485,6.711,2.479,14.565,0.838,21.642c-1.738,7.492-4.438,14.812-5.283,22.49c-0.084-0.072-0.162-0.148-0.244-0.222
			c3.938-0.726,8.945,2.864,6.863,7.224c-0.918,1.928-3.154,2.682-5.023,3.363c-2.209,0.806-4.443,0.895-6.605-0.119
			c-1.84-0.63-2.715-2.139-3.649-3.812c0.112-0.072,0.338-0.154,0.474-0.166c0.174,0.884,0.015,1.687-0.289,2.52
			c-0.101,0.275-0.193,1.391-0.403,1.518c-1.595,0.979-3.472,1.687-5.269,2.193c-3.695,1.048-8.093,0.732-8.476-3.95
			c0.129,0.03,0.31,0.111,0.414,0.19c-2.16,1.574-5.519,1.628-7.647-0.037c-2.445-1.911-2.541-6.021-3.027-8.819
			c-0.274-1.581-0.531-3.241-1.182-4.727c-0.525-1.208-1.525-1.963-2.158-3.066c-0.637-1.116-0.146-1.741,0.733-2.422
			c1.282-0.985,1.742-2.305,1.526-3.896c0.041,0.055,0.082,0.105,0.123,0.16c-1.432-0.617-2.736-1.291-4.344-1.259
			c0.047-0.021,0.094-0.043,0.143-0.062c-2.08,2.195-3.828,4.835-6.717,6.052c0.039-0.062,0.076-0.112,0.117-0.172
			c-0.072,4.376-0.326,9.679,2.164,13.521c-0.041-0.026-0.082-0.054-0.125-0.076c2.519,0.203,5.727-1.045,8.051,0.242
			c1.615,0.896,1.836,3.979,1.062,5.5c-1.023,2.019-3.877,3.135-5.888,3.781c-1.115,0.358-2.358,0.727-3.542,0.583
			c-1.082-0.219-2.047-1.271-2.705-2.095c-0.665-0.824-0.575-1.219-0.555-2.204c0.072-0.894-1.271-1.875-1.83-2.397
			c-1.817-1.721-1.971-4.689-2.188-7.045c-0.225-2.44-0.206-5.215-1.476-7.396c-0.563-0.971-1.226-1.102-0.44-2.217
			c0.622-0.883,1.819-1.33,2.117-2.438c-0.919-1.325-2.045-3.271-3.104-4.8c-1.323-1.905-2.418-3.917-2.929-6.195
			c-0.511-2.287-0.495-4.578,0.196-6.83c0.195-0.641,0.835-3.856,1.634-3.523c-0.034,0.078-0.069,0.158-0.104,0.236
			c-3.217-2.476-5.871-6.26-6.123-10.348c-0.447-4.756,3.188-6.878,7.125-8.306c3.623-1.312,8.713-2.664,6.998-7.599
			c-1.358-3.914-5.482-6.793-9.135-3.656c-1.551,1.332-2.691,3.065-3.959,4.65c-1.233,1.545-2.957,3.629-5.197,3.12
			C9.834,29.033,8.68,27.225,8.7,25.527c0.024-2.141,1.287-4.166,2.517-5.836c5.069-6.895,15.606-9.494,22.267-3.405
			c6.284,5.743,7.688,16.547-1.054,20.646c-1.982,0.93-4.135,1.471-6.09,2.459c-2.043,1.033-2.511,2.584-1.4,4.581
			c0.876,1.582,3.367-0.521,4.514-0.989c2.139-0.869,4.428-1.287,6.723-0.941c4.887,0.729,9.797,0.343,14.689-0.104
			c3.139-0.285,6.327-0.272,9.43-0.854c1.939-0.362,3.969-1.179,5.469-2.491c1.832-1.604,0.812-3.445-1.129-4.382
			c-0.324-0.181-0.479,0.476-0.709,0.675c-0.625,0.539-1.051,0.443-1.74,0.241c-1.059-0.312-1.805,0.034-2.807,0.294
			c-0.553,0.148-1.146,0.354-1.545,0.066c-0.465-0.896-0.812-1.676-0.662-2.713c0.072,0.111,0.146,0.224,0.215,0.334
			c-0.85-0.25-1.194,1.487-2.08,0.17c-0.959-1.282,0.429-2.627,0.605-3.979c0.09,0.083,0.195,0.221,0.252,0.328
			c-0.6-0.096-4.18,1.855-4.441,0.77c-0.104-0.444,0.928-1.646,1.178-1.986c0.588-0.812,1.244-1.567,1.812-2.391
			c-0.014,0.082-0.022,0.166-0.031,0.25c-0.082-0.666-2.771,0.666-2.522-1.185c0.043-0.324,1.642-0.286,1.938-0.321
			c0.906-0.109,1.742-0.41,2.207-1.256c0.047,0.123,0.092,0.246,0.138,0.366c-1.406-0.493-2.298-1.515-2.401-3.021
			c2.625,0.155,5.409-2.525,6.825-4.507c0.074,0.093,0.164,0.246,0.196,0.36c-4.309,0.142-6.481-3.36-5.243-7.326
			c1.241-3.893,5.142-5.84,8.222-2.521c-0.08-0.015-0.158-0.029-0.234-0.043c0.994-0.592,1.977-1.224,2.996-1.768
			c1.217-0.645,2.555-0.695,3.768-1.236c0.979-0.435-0.365-1.559,0.75-1.672c0.496,0.036,2.857,0.959,2.732,0.072
			c-0.195-1.402,1.979-0.375,2.479-0.079c2.099,1.238,4.433,3.552,5.336,5.849c-0.062-0.011-0.118-0.021-0.181-0.027
			c1.921-2.565,5.205-3.409,6.74,0.038c0.58,1.305,0.707,2.862,0.103,4.185c-0.511,1.108-2.373,2.521-3.435,2.09
			c0.646,1.75,1.33,4.012,2.984,5.088c0.529,0.344,1.451,0.102,1.305,0.842c-0.188,0.912-1.502,0.881-1.567,1.854
			C88.774,22.381,90.551,22.625,91.278,23.625z"/>
		<path fill="#010101" d="M53.793,86.011c-2.045,1.425-4.033-2.122-4.756-3.517c-1.037-1.995-2.523-4.946-1.549-7.196
			c0.387-0.896,1.057-1.608,1.661-2.36c0.647-0.808,0.418-1.074,1.394-1.008c1.327,0.092,2.644-0.146,3.955-0.298
			C54.864,76.443,54.396,81.249,53.793,86.011z M53.75,85.964c-0.32-4.751,0.834-9.479,0.565-14.22
			c0.034,0.029,0.071,0.061,0.104,0.092c-1.494,0.122-2.943,0.495-4.457,0.4c0.062-0.032,0.123-0.068,0.185-0.104
			c-0.521,1.188-1.552,2.063-2.081,3.259c-0.666,1.51,0.018,3.151,0.547,4.604C49.186,81.517,51.168,87.346,53.75,85.964
			C53.67,84.779,53.428,86.134,53.75,85.964z"/>
		<path fill="#010101" d="M71.85,67.633c-0.541,4.395-1.189,8.771-2.082,13.107c-0.465,2.26-0.957,4.512-1.432,6.77
			c-0.066,0.311-0.201,1.945-0.537,1.926c-0.646-0.041-0.705-0.787-0.66-1.16c-0.404-1.629-3.32-0.817-4.168-2.143
			c-0.479-0.744-0.226-2.203-0.242-3.059c-0.018-1.032-0.062-2.102,0.084-3.123c0.178-1.26,0.543-2.489,0.717-3.754
			c0.295-2.205,0.27-4.403,0.094-6.614c0.871-0.03,1.775,0.073,2.633-0.144c1.074-0.271,1.803-1.225,2.605-1.918
			c0.779-0.688,1.652-1.604,2.662-1.937C72.719,65.191,72.006,67.188,71.85,67.633C71.627,69.445,72.01,67.173,71.85,67.633z
			 M71.793,67.615c0.209-0.648,0.772-2.479-0.548-1.762c-0.87,0.555-1.616,1.312-2.321,2.059c-0.394,0.417-0.773,0.854-1.201,1.238
			c-1.066,0.963-2.457,0.989-3.814,0.953c0.092-0.097,0.178-0.189,0.27-0.285c0.201,2.521-0.041,5.009-0.567,7.479
			c-0.343,1.595-0.692,3.057-0.681,4.707c0.011,1.23,0.086,2.462,0.211,3.688c0.263,0.939,1.804,0.953,2.558,1.105
			c0.828,0.167,1.668,0.477,1.959,1.35c0.123,0.375,0.183,0.797-0.215,0.95C68.737,81.923,70.788,74.842,71.793,67.615z"/>
	</g>
	<path fill="#FFFFFF" d="M72.215,21.712c-2.677,2.004-2.638-0.39-8.183-0.812c-2.524-0.16-3.795,0.431-6.217,1.412
		c0.647,0.512,2.153,0.178,2.61,0.881c-1.807,1.975-4.766,3.049-6.271,5.518c1.34-0.04,2.688-1.73,3.799-0.95
		c-0.193,1.603-1.613,1.97-1.578,3.8c0.637,0.721,1.049-1.464,2.213-1.267c0.644,1.206-0.26,2.098,0,3.8
		c1.729,0.352,1.101-1.648,2.217-1.902c0.642,0.733,1.052,1.692,2.22,1.902c1.274-0.521,1.078-2.51,2.532-2.85
		c2.337,1.354,1.589,3.385,3.918,4.746c-0.975,0.72-0.975,0.72-0.633,1.898c2.144,0.245,3.388-0.408,5.062-0.634
		c-0.104,1.058-0.379,0.569-0.094,2.017c2.043-0.064,1.69-2.556,3.551-2.809c-0.144,2.965,1.123,1.251,1.992-0.201
		c-1.658-0.594,1.319-0.006,1.856-0.02c0.572-0.799,0.543-0.016,0.41-1.521c0.734,0.099,1.305,0.621,1.898,0
		c0.762-1.752,0.365-2.771-0.178-4.018c0.821-1.185,1.78-0.285,2.393-1.683c1.123-0.17,0,0,1.123-0.17
		c-0.178-0.459,1.146-0.516,0.461-0.463c0.188-0.656-0.396-2.08,0.314-2.214c1.153,0.004,1.42,0.897,2.215,1.267
		c-0.676-2.487-2.209-2.58-3.699-4.254c-0.135-0.875,0.449-1.424,0.533-2.08c-1.607-0.283-2.082-0.03-3.117-0.897
		c-3.146,0.144-1.264,1.424-4.295,1.34C75.478,21.451,73.012,21.976,72.215,21.712z"/>
	<path fill="#241B17" d="M57.493,12.794c1.324,3.13,2.263,2.442,3.918,1.946c-0.102-2.204,0.688-4.702,1.658-6.485
		C61.217,5.281,56.37,6.658,57.493,12.794z"/>
	<path fill="#1D1D1C" d="M86.685,7.213c3.051,4.1-0.354,6.182-2.013,5.611c-0.199-1.072-0.67-1.985-1.903-3.584
		C83.649,8.247,85.018,4.977,86.685,7.213z"/>
	<path fill="#F8991D" d="M52.19,86.794c0.558-0.873,2.348,0.742,1.264,1.584C52.758,88.128,53.043,86.888,52.19,86.794z"/>
	<path fill="#010101" d="M73.082,65.174c1.733-3.618,6.26-2.868,7.396-0.342c-0.299,1.926-0.674,3.185-0.809,2.521
		C79.269,65.406,75.834,63.876,73.082,65.174z"/>
	<path fill="#010101" d="M55.866,76.982c1.752-2.478,6.656-3.051,7.793-0.524c-0.303,1.925-0.676,3.184-0.812,2.521
		C62.452,77.033,58.166,76.507,55.866,76.982z"/>
	<path fill="#010101" d="M54.411,71.742c-0.844-1.377-3.505-2.389-3.448-4.56c1.043,0.095,3.176,3.04,2.815,0.351
		c-1.655-12.479,7.631-24.069,8.336-24.172c0.399-0.06-10.933,16.297-5.444,22.945c1.006,1.225,5.444,0.783,5.444,1.205
		C58.448,67.292,57.014,69.861,54.411,71.742z"/>
	<path fill="#010101" d="M54.387,76.982c0.373-0.937-0.127-2.308,0.08-3.957c2.658-1.242,5.283-1.765,8.1-0.479
		C58.879,72.748,56.469,74.134,54.387,76.982z"/>
	<path fill="#010101" d="M45.858,72.551c-1.046-0.447-3.756,0.163-3.136,3.208c0.662,0.944,2.389-0.817,3.798,0.099
		c-2.134,0.799-3.067,1.774-3.017,2.674c0.401,1.899-0.229,1.279-0.172,3.127c-0.607-2.282-3.146-4.678-3.479-6.436
		C41.58,72.413,44.153,71.031,45.858,72.551z"/>
	<path fill="#010101" d="M69.731,79.99c0.42-1.479,0.575-3.875,0.778-4.907c3.142,0.366,6.576,2.782,5.101,6.015
		C73.754,77.566,71.394,79.638,69.731,79.99z"/>
	<path fill="#010101" d="M75.928,84.576c-0.656,1.263-2.482,1.516-3.482,1.584c-0.254,1.203,1.492,1.16,2.213,1.391
		c3.984,5.68-5.221,8.727-6.953,3.184c-0.084-0.562-0.096-1.092-0.059-1.584c0.195-2.549,1.707-4.338,1.508-7.017
		C71.512,80.501,74.377,83.529,75.928,84.576z"/>
	<path fill="#010101" d="M58.666,88.378c0.573,0.993-0.289,5.353-2.121,7.08c-2.06,0.266-0.938,0.8-1.992,0.055
		c-0.9-2.938-0.754-6.188-0.771-9.983c2.101-0.752,3.49-2.955,7.688-2.03c-5.2,2.282-2.909,3.051-1.854,4.249
		c0.572,1.033,1.16,0.084,2.531,0.312c1.444,1.699,1.594,4.94,0.315,6.968c-0.352,0.533-1.686,0.555-2.217,0
		C60.887,92.744,60.823,88.876,58.666,88.378z"/>
	<path fill="#010101" d="M81.309,61.414c-0.521-2.74-3.533-1.963-4.848-2.338c0.741-0.932,1.479-1.187,2.889-1.488
		c2.438,0,1.607,0.852,2.729,0.789C81.903,59.357,81.685,60.627,81.309,61.414z"/>
	<path fill="#010101" d="M31.411,77.652c-0.696-1.559-2.377-0.674-3.21-0.715c0.312-0.66,0.717-0.912,1.51-1.293
		c1.451-0.343,1.076,0.282,1.735,0.09C31.478,76.347,31.522,77.132,31.411,77.652z"/>
	<path fill="#010101" d="M31.903,83.158c-1.386-1.907-2.701-0.451-3.562-0.356c0.026-0.91,0.324-0.51,0.965-1.147
		c1.318-0.705,1.599-1.199,2.177-1.57C31.785,80.872,31.788,82.462,31.903,83.158z"/>
	<path fill="#010101" d="M48.383,81.082c-1.035-1.396-1.959-0.33-2.578-0.26c0.005-0.67,0.213-0.963,0.662-1.434
		c0.938-0.521,1.148-0.291,1.56-0.564C48.256,79.404,48.289,80.57,48.383,81.082z"/>
	<path fill="#010101" d="M32.867,87.789c-1.002-1.419-2.143-1.35-3.025,1.92c-0.043-0.646,0.885-3.266,1.237-3.688
		c0.774-0.427,0.974-0.193,1.312-0.43C32.633,86.17,32.744,87.292,32.867,87.789z"/>
	<path fill="#010101" d="M50.395,84.297c-0.999-1.418-2.604-0.501-3.131-0.475c-0.047-0.646,0.104-0.911,0.465-1.33
		c0.775-0.428,0.974-0.194,1.311-0.428C49.28,82.635,50.275,83.798,50.395,84.297z"/>
	<path fill="#010101" d="M77.401,76.854c-0.522-2.74-3.533-1.963-4.847-2.339c0.742-0.928,1.478-1.184,2.888-1.489
		c2.438,0,1.606,0.854,2.729,0.789C77.995,74.798,77.776,76.068,77.401,76.854z"/>
	<path fill="#010101" d="M62.881,84.297c-0.521-2.741-4.302-1.35-5.609-1.725c1.291-1.848,4.488-1.41,5.609-1.479
		C62.991,82.166,62.618,83.271,62.881,84.297z"/>
	<path fill="#010101" d="M51.301,61.414c0.707,3.064,2.867,7.088,3.108,10.326c-5.897,1.285-11.79-1.137-16.456-2.851
		c7.782-7.479,4.901-18.092,4.444-25.146c0.429,2.217,1.874,5.062,1.874,11.713c0.346,3.875-4.426,12.134,1.584,13.562
		c0.104-2.429-0.346-9.604-0.018-12.3c0.963-7.911,5.646-13.495,5.455-12.979c-1.367,3.841-4.205,6.248-4.652,13.611
		c-0.12,1.969,1.849,11.568,3.671,12.278c0.88-1.229-1.46-9.533-0.334-14.108c0.979-7.507,8.026-11.523,8.026-11.523
		S48.786,50.535,51.301,61.414z"/>
	<path fill="#010101" d="M63.68,69.849c-0.572-3.562-0.385-10.212,1.66-12.489c-0.597,3.047-0.199,8.353-0.199,10.236
		c1.354,1.479,4.375-1.604,6.025-1.749C69.437,67.594,66.873,70.085,63.68,69.849z"/>
	<path fill="#010101" d="M78.409,72.104c-1.725-0.703-3.555-2.024-7.274,0c0.422-1.135,0.545-2.932,0.686-4.479
		C74.346,67.338,78.769,68.938,78.409,72.104z"/>
	<path fill="#010101" d="M53.926,82.995c-0.041-0.988-0.029-2.714,0.498-3.159c1.545-1.305,5.424-1.857,7.688-0.86
		C58.934,78.633,56.469,80.968,53.926,82.995z"/>
	<path fill="#010101" d="M44.937,84.408c1.178-0.295,2.259-0.469,4.094-0.109c0.089,1.248-2.022,3.114-1.935,4.363
		c0.604,0.787,2.824-2,3.828-1.865c1.313,1.135,1.701,5.264,0.375,7.184c-8.397,2.332-8.062-10.785-9.233-14.955
		c2.524-0.931,5.364-1.679,4.45-0.931c-1.307,1.066-6.668,5.706,1.238,2.688C47.897,82.995,44.368,81.661,44.937,84.408z"/>
	<path fill="#010101" d="M80.678,92.177c0.254-2.132-0.697-6.067-1.904-7.705C82.981,83.628,82.885,91.082,80.678,92.177z"/>
	<path fill="#010101" d="M66,94.017c0.178-2.679-0.207-5.545-2.188-7.471C68.465,85.779,69.407,92.177,66,94.017z"/>
	<path fill="#010101" d="M75.362,84.297c0.849,0,1.412,0,2.252,0c1.901,1.668,2.961,8.482-0.735,8.514
		C76.575,91.38,75.672,85.609,75.362,84.297z"/>
	<circle fill="#010101" cx="72.252" cy="17.336" r="0.916"/>
	<path fill="#010101" d="M78.264,15.988c0.508,0,0.916,0.408,0.916,0.914s-0.408,0.916-0.916,0.916c-0.504,0-0.914-0.41-0.914-0.916
		C77.35,16.398,77.76,15.988,78.264,15.988z"/>
	<path fill="#FFFFFF" d="M68.407,40.939c0,0,0.658-1.002,1.293-1.399c0.634-0.4,1.354-0.438,1.604,0.534
		c0.246,0.973,0.166,1.875,0.758,1.498c0.59-0.375,3.336-2.061,5.492-1.354c2.154,0.709,2.789,1.307,3.246,2.938
		c0.453,1.636,0.758,3.801,0.758,3.801s-0.521-0.95-0.947-0.637c-0.432,0.316,0,1.543,0,1.543s0.533,3.701-0.607,4.789
		c-1.141,1.09-1.752,1.9-1.752,1.9s-0.774,3.778-3.926,5.951c-3.148,2.174-7.643,3.544-7.643,3.544s-0.789-2.995-0.631-4.917
		c0.156-1.92,0.322-4.229,0.322-4.229s-0.162-0.033-0.56,0.601c-0.397,0.632-1.826,2-1.351-0.778
		c0.479-2.777-0.092-1.307,0.479-2.777c0.567-1.463,2.031-3.582,2.031-3.582s0.405-1.646-0.31-1.397
		c-0.714,0.247-1.255,0.623-1.255,0.623s-0.603-1.131,0.956-2.808c1.807-1.941,2.794-2.317,2.837-3.125
		C69.245,40.855,68.407,40.939,68.407,40.939z"/>
	<path fill="none" d="M68.973,67.168c-1.869,2.174-2.604,2.255-5.062,2.221c0.309,3.895-0.791,6.383-0.951,9.811
		c-0.529,1.168-0.529,4.526,0,5.697c0,0.105,0.377,1.281,0.377,1.385c0.721,1.604,3.521-0.322,4.055,1.466
		c0.052,0.374-0.055,0.896,0.316,0.946c1.393-7.15,3.115-13.975,4.115-21.522C73.317,62.847,69.84,65.374,68.973,67.168z"/>
	<path fill="none" d="M49.982,71.602c-0.611,1.338-2.512,2.65-2.532,4.748c-0.021,1.592,3.249,11.075,6.331,9.18
		c0.02-3.678,0.945-9.183,0.633-14.241C52.967,71.422,51.728,71.765,49.982,71.602z"/>
	<path fill="#010101" d="M12.74,18.252c-0.375,0.572-4.843,6.097-3.286,9.264c0.319,0.65,2.349,2.359,3.911,1.523
		c2.838-1.523,2.667-3.379,3.227-2.9c2.227-1.869-1.619-9.269,0.563-11.07C15.103,16.003,13.455,17.158,12.74,18.252z"/>
	<path fill="#010101" d="M17.982,14.712c0.033-0.006,0.062-0.019,0.097-0.021c0.995,0.971,0.869,1.695,2.144,3.562
		c0.664,0.978,1.018,0.618,2.076,0.804c-0.021-1.518-0.584-3.455,0.871-5.029c7.172,1.039,2.629,5.571,6.269,7.529
		c0.743-0.875-2.286-6.828,0.907-7.072c-0.18-0.109-0.34-0.229-0.521-0.34C26.834,12.39,21.862,13.132,17.982,14.712z"/>
	<path fill="#010101" d="M17.982,14.712c-0.34,0.058-0.613,0.179-0.828,0.354C17.422,14.943,17.702,14.824,17.982,14.712z"/>
	<path fill="#010101" d="M30.344,14.484c0.511,0.324,0.996,0.658,1.457,1.006c-0.379-0.405-0.853-0.752-1.428-1.01
		C30.356,14.48,30.352,14.484,30.344,14.484z"/>
	<path fill="#010101" d="M31.799,15.49c6.637,4.726,0.666,8.925,0.024,10.261c2.099,1.067,6.614-7.499,5.334,2.554
		c-1.83,1.149-3.806,2.133-6.349,0.733c0.589,1.008,1.984,3.415,3.617,4.21c-2.01,1.607-5.355,1.087-5.491,0.402
		c0.905,7.735-4.771,2.68-5.688,0.93c-1.611-3.082,1.262,3.092-5.266,1.751c11.857,6.163,0.439,6.467,0,8.442
		c-0.246,1.101,2.703-2.521,3.191,0c0.315,1.631,0.959,3.592,1.859,4.037c0.405-1.49,3.688-3.812,4.539-4.607
		c0.509-0.477-1.92,1.848-2.094,0.684c-1.17-0.851-0.727-0.654-1.497-2.513c-1.474-3.554,5.667-4.252,7.272-5.254
		c1.25-0.778,5.817-3.722,5.674-4.245C39.762,29.345,38.887,20.896,31.799,15.49z"/>
	<path fill="#010101" d="M73.082,2.752l2.28,2.977c0,0-1.465-1.467-2.916-1.516c-2.84-0.096-5.002,0.975-5.541,0.977
		c-0.808,0.004,3.22-0.771,4.265-1.634c0.467-0.386-1.438,0.155-1.438-0.461C69.731,1.625,73.082,2.752,73.082,2.752z"/>
	<path fill="#010101" d="M81.762,27.979c-0.564,0.346-1.16,0.646-1.771,0.873c-0.606,0.217-1.271,0.385-1.856,0.266
		c-0.289-0.057-0.51-0.215-0.734-0.438c-0.223-0.214-0.412-0.459-0.576-0.724c-0.326-0.521-0.555-1.14-0.66-1.71l-0.789,0.16
		c0.076,0.259,0.18,0.49,0.285,0.723c-0.248,0.684-0.725,1.37-1.316,1.876c-0.312,0.274-0.657,0.506-1.037,0.692
		c-0.354,0.174-0.774,0.242-1.192,0.265c-0.854,0.03-1.729-0.124-2.576-0.335c-0.852-0.219-1.688-0.495-2.504-0.832
		c0.789,0.396,1.604,0.738,2.447,1.023c0.844,0.277,1.717,0.504,2.633,0.543c0.158,0.004,0.324-0.011,0.483-0.021
		c0.447,0.52,1.908,2.025,3.445,1.544c1.943-0.612,2.285-1.924,2.35-2.375c0.605-0.021,1.162-0.233,1.675-0.478
		C80.672,28.74,81.233,28.38,81.762,27.979z"/>
	<path fill="#010101" d="M71.17,3.554l2.641,2.929c0,0-3.084-1.908-4.975-1.931C65.409,4.507,71.17,3.554,71.17,3.554z"/>
	<path fill="#010101" d="M26.821,69.638c2.177-1.428,11.615-6.028,11.615-3.419c-3.927-0.472-9.285,2.961-9.036,6.648
		c0.747-0.836,2.671-0.497,3.801-0.948c-1.557,2.769-7.46-0.179-5.701,7.28c1.436-0.045,1.657-1.297,3.166-1.27
		c-2.058,3.163-3.295,2.674-3.642,5.062c0.163,0.471-0.033,1.115,1.176,1.41c2.397,0.582,2.302-1.104,3.099-0.461
		c-0.283,2.246-3.435,3.291-2.957,6.307c6.02,6.812,3.617-1.61,5.185-1.734c0.771,1.19,10.483-3.511,9.31,4.293
		c-0.449-2.127-3.377-4.251-5.689-3.484c2.512,0.567,3.257,4.336,1.438,6.336c0.668-4.254-2.35-5.254-4.287-5.951
		c0.853,1.81,1.592,2.889,1.097,5.273c-3.496,1.098-4.229,1.729-5.349-1.086c-0.707-1.787-2.557-2.586-3.162-4.387
		c-1.693-5.076-0.465-10.812-3.168-13.338c0.176-1.615,2.071-2.146,2.531-3.482c-2.041-5.781-10.037-8.052-4.592-21.301
		c0.79,1.014,0.451,2.258,0.984,4.069c5.097-1.741,4.687-6.331,9.107-10.283c2.281-2.036,4.155-2.375,6.678-0.914
		c-3.459-0.514-6.143,3.205-7.44,4.867c-2.64,3.374-6.075,8.479-6.646,12.343c1.604-0.812,3.352-2.568,4.748-4.429
		c3.334-4.435,9.98-9.405,10.905-9.323c1.554,1.564,1.556,4.799,1.207,5.995c-1.346-4.39-14.021,0.909-15.178,12.998
		c7.731-10.905,15.675-9.69,15.675-9.69S32.748,57.967,26.821,69.638z"/>
	<path fill="#241B17" d="M72.521,26.246c-1.322-0.889-4.623-4.291-2.312-5.922c2.307-1.631,7.654-1.952,9.902-0.637
		c2.248,1.312,0.826,3.199-0.035,4.354c-0.855,1.153-3.016,3.669-4.586,3.459C73.918,27.294,73.129,26.652,72.521,26.246z"/>
</g>
</svg>
