<?xml version="1.0" encoding="utf-8"?>
<!-- Generator: Adobe Illustrator 16.0.0, SVG Export Plug-In . SVG Version: 6.00 Build 0)  -->
<!DOCTYPE svg PUBLIC "-//W3C//DTD SVG 1.1//EN" "http://www.w3.org/Graphics/SVG/1.1/DTD/svg11.dtd">
<svg version="1.1" id="Layer_1" xmlns="http://www.w3.org/2000/svg" xmlns:xlink="http://www.w3.org/1999/xlink" x="0px" y="0px"
	 width="717px" height="589px" viewBox="0 0 717 589" enable-background="new 0 0 717 589" xml:space="preserve">
<g id="complete">
	<path id="back" fill="#3D929C" stroke="#231F20" stroke-width="3" stroke-miterlimit="10" d="M210.879,297.913l-56.112,74.815
		c0,0,10.071-25.897,10.071-63.307c0-9.771,21.898-18.665,31.653-25.897c14.698-10.896,6.125-48.437,17.265-57.551
		c15.827-12.949,26.873,10.058,46.041-4.317c5.755-4.316,13.608-35.247,25.898-35.969c12.764-0.751,17.721,11.252,35.969,20.143
		c16.72,8.146,31.653-24.459,44.604-18.704c6.767,3.007,15.826,18.704,25.896,28.775c5.838,5.838,20.144-1.438,34.532,4.316
		c14.171,5.668,35.969,37.408,35.969,37.408L210.879,297.913z"/>
	<path id="frame2" display="none" fill="#56B9C9" stroke="#231F20" stroke-width="3" stroke-miterlimit="10" d="M704.951,61.762
		c-0.579-15.585-7.245-26.269-18.76-31.343c-7.401-3.282-15.012-6.074-21.023-10.525C654.68,12.141,643.827,4.473,627.544,2.22
		c-20.366-0.633-35.375,4.508-50.334,9.95c-10.051,3.677-19.981,7.693-28.198,13.387c-17.864,12.373-30.995,29.764-38.304,52.917
		c-2.593,8.244-4.452,17.149-5.107,27.127c-1.859,27.934,5.341,53.068,7.089,75.513c1.91,24.541-8.622,40.653-17.097,50.885
		c-4.594,5.539-9.553,10.907-15.918,14.614c-11.41,6.665-26.972,10.57-44.623,9.695c-17.126-1.913-30.804-7.581-43.803-13.936
		c-17.562-9.838-37.464-17.715-65.326-16.587c-25.326,1-48.886,4.2-66.496,12.696c-7.487,3.594-13.623,8.598-19.805,13.499
		c-8.636,6.836-15.067,15.719-21.603,24.607c-8.039,10.936-14.997,23.031-22.343,34.558c-6.479,10.172-11.857,21.279-19.469,30.299
		c-7.868,9.259-71.202,86.755-138.349,109.775c-63.522,21.779-36.45,92.086,47.003,97.842c81.903,5.648,257.075,0,249.401,25.9
		c-2.164,7.303,87.29-6.715,93.045-15.348c2.778-10.904-90.269-26.572-90.168-25.9c2.878,19.186-160.19,11.512-202.397,0.959
		c-19.162-4.791-38.369-14.389-47.002-27.816c-6.447-10.028-3.896-27.969,12.47-37.409c24.94-14.39,44.368-21.896,67.146-31.656
		c20.144-8.633,46.973-17.354,65.371-20.274c-0.228,2.151-0.699,4.51-1.046,6.725l-3.341,32.498
		c-1.111,1.243-1.144,3.409-0.065,4.153c10.944,7.668,25.19,13.91,43.902,11.769c35.757-4.097,50.923-22.586,51.709-25.42
		l-1.835-8.177c-2.868-5.495-6.366-10.401-7.648-17.645c9.6,0.604,39.319-5.586,48.206-7.528c0.651-0.156-6.091,40.934,2.877,46.042
		c13.889,7.912,42.555,4.427,43.164,4.314c31.652-5.754,41.97-24.902,42.638-27.58c-0.262-4.523-14.158-38.32-17.534-42.649
		c-2.455-3.125-2.606-15.699,2.189-22.414c6.861-9.607,15.172-15.418,23.021-23.98c18.349-20.016,40.372-36.32,51.943-47.275
		c11.157-10.579,22.08-21.546,32.264-33.119c7.81-8.848,15.517-18.35,20.471-29.196c15.228-33.335,9.851-81.695,16.312-101.341
		c3.967-12.119,11.423-20.56,25.104-22.379c6.141,2.882,21.952,11.608,38.773,10.943c4.15-0.164-11.084-40.301-8.719-37.38
		c11.333,14,39.745,26.689,42.206,25.396c9.057-3.637,14.495-11.007,19.413-18.998C701.822,86.028,705.47,75.064,704.951,61.762z"/>
	<path id="frame1" fill="#56B9C9" stroke="#231F20" stroke-width="3" stroke-miterlimit="10" d="M704.671,61.387
		c-0.579-15.585-7.245-26.269-18.76-31.343c-7.401-3.282-15.011-6.074-21.023-10.525C654.4,11.767,643.547,4.098,627.264,1.846
		c-20.365-0.633-35.375,4.508-50.334,9.95c-10.051,3.677-19.98,7.693-28.197,13.387c-17.865,12.373-30.995,29.764-38.305,52.917
		c-2.593,8.244-4.452,17.149-5.106,27.127c-1.86,27.934,5.34,53.068,7.088,75.513c1.911,24.541-8.622,40.653-17.097,50.885
		c-4.594,5.539-9.553,10.907-15.918,14.614c-11.409,6.665-26.972,10.57-44.623,9.695c-17.126-1.913-30.804-7.581-43.803-13.936
		c-17.562-9.838-37.464-17.715-65.326-16.587c-25.325,1-48.886,4.2-66.496,12.696c-7.487,3.594-13.623,8.598-19.805,13.499
		c-8.636,6.836-15.067,15.719-21.603,24.607c-8.039,10.936-14.997,23.03-22.343,34.559c-6.479,10.172-11.857,21.279-19.469,30.299
		c-7.868,9.258-71.202,86.755-138.349,109.775c-63.522,21.779-36.45,92.086,47.003,97.842c81.903,5.648,257.075,0,249.401,25.899
		c-2.164,7.304,87.29-6.715,93.045-15.348c2.777-10.904-90.27-26.571-90.168-25.899c2.878,19.186-160.191,11.511-202.398,0.959
		c-19.162-4.791-38.369-14.389-47.002-27.816c-6.447-10.028-3.896-27.969,12.47-37.41c24.94-14.39,44.368-21.895,67.146-31.655
		c20.144-8.633,46.973-17.354,65.371-20.274c-0.228,2.151-0.699,4.509-1.046,6.724l-3.341,32.498
		c-1.111,1.245-1.144,3.411-0.065,4.154c10.944,7.668,25.19,13.91,43.902,11.769c35.757-4.096,50.923-22.587,51.709-25.42
		l-1.836-8.176c-2.867-5.497-6.365-10.402-7.648-17.646c9.6,0.604,39.32-5.586,48.206-7.528c0.651-0.158-6.09,40.933,2.877,46.041
		c13.889,7.913,42.555,4.427,43.164,4.315c31.653-5.755,41.97-24.902,42.638-27.58c-0.262-4.524-14.158-38.319-17.534-42.649
		c-2.455-3.125-2.606-15.699,2.189-22.414c6.862-9.607,15.172-15.418,23.021-23.98c18.35-20.016,40.372-36.32,51.943-47.275
		c11.157-10.58,22.08-21.547,32.264-33.119c7.81-8.848,15.518-18.35,20.472-29.196c15.227-33.335,9.85-81.695,16.312-101.341
		c3.967-12.119,11.423-20.56,25.105-22.379c11.353,5.329,64.703,2.931,72.261-1.042c9.057-3.637,14.495-11.007,19.413-18.998
		C701.542,85.654,705.189,74.69,704.671,61.387z"/>
	<path fill="#010101" d="M616.214,42.73c6.157-3.157,14.779-1.01,19.099,2.682c0.509,0.436,1.517,0.36,1.375-0.659
		c-0.2-1.431-2.264-2.583-3.826-3.243c2.247-1.653,3.28-4.709,3.942-7.823c0.859-4.159,0.646-9.094-1.137-12.293
		c-1.508-2.686-4.721-5.1-9.15-3.826c-4.653,2.516-6.661,9.247-5.104,16.136c0.476,2.05,0.812,3.847,1.93,5.423
		c-2.513,0.671-4.91,1.471-6.62,2.938C616.604,42.167,616.262,42.496,616.214,42.73L616.214,42.73z"/>
	<path fill="#FFFFFF" d="M623.155,26.058c-0.685,4.455,0.253,8.701,1.858,12.024c0.246,0.528,0.593,1.59,1.599,1.345
		c-2.175-3.371-1.564-9.5,1.461-11.608c2.059-1.442,5.938-1.325,7.173,0.369c0.183-4.025-1.671-7.34-4.729-8.664
		c-2.653-1.138-4.946,0.967-5.965,2.663C624.163,22.903,623.28,25.253,623.155,26.058L623.155,26.058z"/>
	<path fill="#010101" d="M689.12,58.137c0.075-1.084-0.035-2.566-1.553-3.479c1.396-3.06,0.938-7.823-1.831-8.979
		c-0.651-0.269-1.614-0.802-1.921-0.518c-1.376,1.167-2.766,2.535-3.011,4.536c-0.567,4.651,1.501,8.651,5.537,9.498
		c0.229,0.058,0.503,0.072,0.781,0.072C688.054,59.266,689.072,58.956,689.12,58.137z"/>
	<path fill="#010101" d="M682.431,50.838c-0.027,2.958,1.021,5.496,3.074,6.593c0.523,0.296,1.261,0.058,2.006,0.087
		c-2.006-1.804-1.587-5.426-0.967-7.807c0.306-1.212-1.491-2.708-2.175-2.271C683.229,48.201,682.439,49.401,682.431,50.838z"/>
	<path fill="#FFFFFF" d="M632.509,32.243c0.858,1.073,0.858,2.812,0,3.885c-0.855,1.073-2.249,1.073-3.104,0
		c-0.858-1.073-0.858-2.812,0-3.885C630.26,31.17,631.651,31.17,632.509,32.243z"/>
	<g>
		<path d="M538.343,40.264c-0.514,2.168,0.43,4.51,2.588,5.328c8.374,0.607,14.46-3.904,15.901-11.387
			c0.404-2.157-0.749-3.93-2.42-4.778c-8.221-0.296-13.075,3.777-15.692,9.711C538.613,39.349,538.402,40.039,538.343,40.264z"/>
		<path fill="#F6D429" d="M540.311,39.531c-0.808,1.41-0.437,3.058,0.833,4.312c6.812,1.03,11.311-3.142,13.646-7.877
			c1.095-2.196-0.205-4.494-2.083-5.146c-5.612,0.652-9.995,3.57-12.213,7.991C540.431,38.939,540.385,39.421,540.311,39.531z"/>
		<path d="M521.494,72.17c0,1.96,1.27,3.382,2.979,4.145c5.819-0.367,9.265-3.863,10.53-8.922c0.495-1.959-0.136-3.959-1.729-4.735
			c-5.24,0.056-8.364,3.594-10.384,6.849C522.253,70.522,521.502,71.241,521.494,72.17z"/>
		<path fill="#F6D429" stroke="#231F20" stroke-width="2" stroke-miterlimit="10" d="M511.154,90.266
			c-0.438,1.197-0.411,2.607-0.054,3.453c0.524,1.267,2.205,1.338,3.377,0.688c3.582-1.998,5.305-8.779,3.427-13.624
			c-2.221-0.805-5.277,0.124-5.465,2.521c-0.173,2.198-0.965,4.283-1.033,6.625C511.406,89.998,511.192,90.167,511.154,90.266z"/>
		<path fill="#F6D429" d="M523.108,71.409c-0.175,0.382,0.102,0.928,0.204,1.156c0.736,1.565,2.369,2.465,4.254,1.492
			c1.271-0.633,2.629-1.265,3.549-2.408c1.298-1.536,2.926-3.946,2.021-7.257c-4.566-0.394-7.013,2.731-8.833,5.338
			C524.097,70.072,523.281,70.973,523.108,71.409z"/>
		<path d="M536.334,54.61c-0.943,1.96,0.157,4.228,1.83,4.737c2.277,0.704,4.318-1.069,5.217-2.679
			c1.696-0.944,2.952-3.623,1.525-5.425c-0.376-0.479-0.793-0.706-0.951-1.114c-3.621,0.031-6.099,1.479-7.442,3.976
			C536.451,54.201,536.377,54.511,536.334,54.61z"/>
		<path fill="#F6D429" stroke="#231F20" stroke-width="2" stroke-miterlimit="10" d="M525.027,51.538
			c-0.188,1.171-0.467,3.609,0.63,3.44c4.247-0.664,7.932-3.862,8.048-8.385c0.015-1.057-1.292-1.942-2.387-1.647
			c-2.76,0.759-4.704,3.225-5.537,5.72C525.683,50.976,525.049,51.383,525.027,51.538z"/>
		<path fill="#F6D429" d="M537.562,55.853c-0.398,0.914,0.662,2.028,1.187,1.915c2.478-0.578,4.36-2.324,4.952-4.495
			c0.254-0.945-0.991-1.761-1.973-1.565c-1.765,0.382-3.259,1.776-3.841,3.367C537.833,55.247,537.627,55.698,537.562,55.853z"/>
	</g>
	<g>
		<path d="M293.151,250.316c0.589,4.351-2.173,7.015-4.464,9.27c-3.593,3.537-10.537,6.922-17.066,4.61
			c-2.145-1.593-2.107-6.119-1.021-8.682c2.405-5.706,8.744-8.03,15.539-9.469c1.886-0.396,4.472-0.636,5.472,0.07
			C293.137,247.2,292.983,249.104,293.151,250.316z"/>
		<path d="M332.048,241.284c-2.062,6.847-9.005,11.059-17.988,9.947c-1.637-0.874-2.719-2.186-3.979-3.987
			c0.335-5.174,4.554-7.697,8.76-9.428c1.982-0.848,4.081-1.54,6.525-1.593C328.854,236.137,331.959,237.42,332.048,241.284z"/>
		<path fill="#F6D429" d="M290.777,249.456c0.241,2.255-0.039,4.113-0.975,5.484c-3.212,4.703-9.196,9.043-16.905,7.352
			c-0.476-0.099-0.859-0.703-0.871-1.069c-0.292-6.85,4.021-9.88,8.938-11.681c2.587-0.946,5.532-1.946,8.438-1.734
			C290.383,247.906,290.696,248.681,290.777,249.456z"/>
		<path fill="#F6D429" stroke="#231F20" stroke-width="2" stroke-miterlimit="10" d="M271.554,239.718
			c0.907,3.239-1.004,5.59-2.895,7.157c-3.376,2.763-6.81,6.215-12.93,5.809c-1.075-0.059-2.294-0.55-2.654-1.635
			c-1.454-4.597,1.275-8.402,4.459-9.121c3.759-1.956,6.758-4.059,10.413-5.141C269.622,237.027,270.778,238.419,271.554,239.718z"
			/>
		<path d="M249.977,270.75c0.791,3.154-1.262,5.484-2.735,7.512c-0.47,0.65-2.095,2.355-2.692,2.831
			c-2.111,1.707-6.733,2.735-9.406,0.891c-0.992-0.693-1.066-2.099-0.869-3.115c1.238-6.176,6.207-10.12,12.268-10.781
			C247.995,267.927,249.52,268.942,249.977,270.75z"/>
		<path fill="#F6D429" d="M330.335,240.239c-0.705,5.609-5.069,8.677-11.068,9.276c-3.507,1.122-6.22-0.679-7.854-2.994
			c2.38-5.689,9.379-9.792,17.423-8.086C329.747,238.617,329.421,239.605,330.335,240.239z"/>
		<path d="M347.594,252.572c-0.647,3.958-3.961,6.366-7.438,8.119c-2.98,1.502-7.704,1.812-9.338-1.47
			c1.031-5.412,5.06-9.019,11.187-9.794c2.02-0.254,3.923,0.646,4.976,1.873C347.08,251.415,347.711,251.962,347.594,252.572z"/>
		<path d="M306.651,260.503c-0.031,4.495-3.557,7.104-7.438,8.568c-1.438,1.042-3.607,0.537-4.426-0.944
			c-0.377-0.692-1.059-1.424-1.117-2.423c-0.271-4.496,2.563-6.131,5.764-7.54c1.837-0.807,3.919-0.296,6.021,0.126
			C305.84,258.36,306.675,259.291,306.651,260.503z"/>
		<path d="M374.605,239.574c1.196,3.597-1.122,5.681-3.015,7.006c-1.722,0.564-3.459,1.663-5.563,1.778
			c-2.443,0.109-4.699-1.187-4.981-3.555c-0.364-3.183,1.961-4.931,4.19-5.933c2.715-1.224,7.429-1.352,9.317,0.623L374.605,239.574
			z"/>
		<path d="M351.766,237.42c0.519,3.96-2,6.159-4.785,7.33c-3.271,1.366-6.606-0.339-7.726-2.707
			c-0.631-0.014-1.234-0.607-1.234-1.21c0-1.061,0.528-2.029,1.041-2.792c2.107-3.188,8.542-4.228,12.009-1.449
			C351.266,236.746,351.73,237.056,351.766,237.42z"/>
		<path fill="#F6D429" stroke="#231F20" stroke-width="2" stroke-miterlimit="10" d="M313.77,228.287
			c0.43,3.244-1.91,4.649-3.98,5.665c-3.068,1.522-9.702,2.564-12.074-0.323c-0.963-1.154-1.208-3.144,0.063-4.268
			c4.885-0.875,10.222-1.311,15.348-1.749C313.451,227.599,313.719,227.991,313.77,228.287z"/>
		<path fill="#F6D429" d="M248.533,272.06c-1.457,4.678-4.111,8.792-9.963,9.29c-0.616,0.053-1.498-0.257-2.197-0.337
			c0-0.752-0.951-1.332-0.848-1.781c1.201-5.483,5.451-8.792,11.124-9.481c0.479-0.059,0.989,0.294,1.466,0.66
			C248.471,270.722,248.682,271.583,248.533,272.06z"/>
		<path fill="#F6D429" d="M345.725,252.385c-0.53,3.848-3.986,5.836-7.458,7.104c-0.857,0.284-1.663,0.845-2.712,0.765
			c-1.44-0.102-3.686-1.229-2.76-3.018c1.933-3.706,5.589-6.795,11.073-5.935C344.385,251.386,345.05,251.99,345.725,252.385z"/>
		<path d="M263.322,262.449c-0.602,2.736-2.753,5.807-6.37,5.692c-1.333-0.054-2.46-1.128-2.384-2.213
			c0.229-3.637,2.784-5.991,5.968-7.097c0.708-0.257,1.954,0.558,2.426,1.59C263.11,260.744,263.446,261.856,263.322,262.449z"/>
		<path fill="#F6D429" d="M304.552,259.814c0.871,2.196-0.489,4.04-1.57,5.211c-1.351,1.483-3.569,2.806-5.695,2.607
			c-1.395-0.108-2.025-1.605-1.998-2.747c0.095-2.496,1.641-4.073,3.729-4.848c1.466-0.535,3.021-1.085,5.013-0.689
			C304.154,259.362,304.459,259.574,304.552,259.814z"/>
		<path fill="#F6D429" d="M373.523,241.268c-0.375,3.057-3.515,4.436-6.551,5.184c-1.947,0.481-4.33-0.505-4.087-2.367
			c0.392-2.902,3.151-4.341,6.609-4.538c1.14-0.053,2.791-0.198,3.48,1.114C373.019,240.76,373.542,241.014,373.523,241.268z"/>
		<path fill="#F6D429" d="M350.052,238.563c0.021,2.549-1.679,4.099-3.833,4.69c-3.329,0.903-5.115-1.675-6.555-3.282
			c1.254-2.889,6.245-4.581,9.688-2.595C349.764,237.601,350.052,238.066,350.052,238.563z"/>
		<path fill="#F6D429" d="M261.866,262.027c-0.444,2.522-2.056,4.676-4.71,4.549c-1.459-0.054-1.279-1.786-0.889-2.547
			c0.806-1.563,2.431-3.001,4.206-3.541C261.045,260.322,261.977,261.404,261.866,262.027z"/>
	</g>
	<path fill="#F6D429" d="M341.6,535.758c0,0,13.109,11.99,13.109,19.186C354.709,562.138,339,576,339,576s38.958-2.173,63-8.5
		c9.5-2.5,24.723-6.376,25.291-8.08c1.279-3.838-19.78-11.076-33.253-14.069C381.476,542.559,341.6,535.758,341.6,535.758z"/>
	<path d="M674.779,115.491c-4.133-1.279-8.112-2.766-12.042-4.475c-3.909-1.725-7.759-3.653-11.279-6.147
		c-3.478-2.555-6.561-5.524-9.273-8.811c-2.684-3.295-5.045-6.882-6.671-10.794c1.823,3.819,4.354,7.253,7.163,10.367
		c2.838,3.086,6.026,5.898,9.521,8.13c3.541,2.176,7.416,3.812,11.343,5.244c3.93,1.413,7.979,2.625,12.002,3.585L674.779,115.491z"
		/>
	<path d="M638.711,82.066c-1.21,1.303-2.319,2.25-3.266,3.312c-0.476,0.525-0.91,1.055-1.311,1.654
		c-0.418,0.595-0.755,1.264-1.185,2.068c-0.837-1.637-0.228-3.753,1.009-5.065c0.611-0.673,1.357-1.192,2.163-1.539
		C636.936,82.163,637.802,81.953,638.711,82.066z"/>
	<path d="M337.83,533.546c3.794,2.396,7.256,5.305,10.369,8.592c1.557,1.648,2.984,3.438,4.189,5.435
		c0.598,1,1.104,2.072,1.473,3.229c0.354,1.156,0.571,2.438,0.352,3.758c-0.244,1.253-0.718,2.355-1.229,3.398
		c-0.521,1.045-1.104,2.039-1.734,2.988c-1.278,1.893-2.655,3.688-4.143,5.379c-2.955,3.395-6.165,6.545-9.639,9.381
		c2.885-3.426,5.745-6.84,8.425-10.363c1.316-1.772,2.632-3.549,3.761-5.416c1.126-1.83,2.217-3.807,2.589-5.709
		c0.32-1.807-0.484-3.873-1.495-5.715c-1.014-1.881-2.347-3.627-3.719-5.34C344.222,539.777,341.106,536.587,337.83,533.546
		L337.83,533.546z"/>
</g>
<path id="path_1" display="none" fill="none" stroke="#000000" stroke-width="3" d="M706.641,61.097
	c0.521,13.302-3.129,24.266-8.218,32.513c-4.918,7.991-10.354,15.361-19.413,18.998c-7.558,3.973-60.908,6.371-72.261,1.042
	c-13.68,1.819-21.136,10.26-25.104,22.379c-6.462,19.646-1.085,68.006-16.312,101.341c-4.954,10.846-12.662,20.348-20.471,29.196
	c-10.188,11.572-21.109,22.539-32.269,33.118c-11.566,10.955-33.592,27.26-51.938,47.274c-7.852,8.562-16.159,14.373-23.021,23.979
	c-4.795,6.715-4.643,19.287-2.188,22.412c3.376,4.33,17.27,38.125,17.53,42.65"/>
<path id="path_4" display="none" fill="none" stroke="#000000" stroke-width="3" d="M232.391,417.189
	c0.686-0.121,1.362-0.233,2.027-0.342c-0.228,2.152-0.699,4.513-1.046,6.728l-3.341,32.498c-1.111,1.244-1.144,3.41-0.065,4.151
	c10.944,7.668,25.19,13.91,43.902,11.771c35.757-4.096,50.923-22.586,51.709-25.42l-1.835-8.176
	c-2.868-5.496-6.366-10.402-7.649-17.646c9.601,0.604,39.32-5.586,48.206-7.528c0.652-0.154-6.09,40.936,2.877,46.04
	c13.892,7.914,42.558,4.431,43.164,4.316c31.653-5.756,41.971-24.902,42.639-27.58"/>
<path id="path_2" display="none" fill="none" stroke="#000000" stroke-width="3" d="M232.391,417.191
	c-18.301,3.213-43.928,11.613-63.344,19.938c-22.778,9.758-42.206,17.263-67.146,31.654c-16.366,9.438-18.917,27.383-12.47,37.41
	c8.633,13.425,27.84,23.021,47.002,27.812c42.207,10.553,205.276,18.229,202.398-0.959c-0.101-0.672,92.946,14.996,90.168,25.9"/>
<path id="path_3" display="none" fill="none" stroke="#000000" stroke-width="3" d="M155.658,365.904
	c-25.8,27.445-70.055,68.855-116.108,84.646c-63.522,21.779-36.45,92.086,47.003,97.846c81.903,5.646,257.075,0,249.401,25.896
	c-2.164,7.303,87.29-6.715,93.045-15.348"/>
<path id="path_5" display="none" fill="none" stroke="#000000" stroke-width="3" d="M155.66,365.902
	c0.43-0.455,0.854-0.908,1.273-1.355c2.983-10.518,7.378-30.201,7.378-54.916c0-9.771,21.898-18.666,31.653-25.897
	c14.699-10.897,6.125-48.437,17.265-57.551c15.827-12.949,26.873,10.058,46.041-4.317c5.754-4.316,13.608-35.246,25.898-35.969
	c12.764-0.751,17.721,11.252,35.969,20.143c16.721,8.146,31.654-24.459,44.604-18.704c6.765,3.006,15.827,18.704,25.896,28.775
	c5.84,5.838,20.145-1.439,34.532,4.316c11.138,4.455,26.981,25.006,33.255,33.604c8.316-1.668,15.746-4.464,21.943-8.084
	c6.364-3.707,11.324-9.075,15.918-14.614c8.474-10.232,19.007-26.344,17.096-50.885c-1.748-22.445-8.948-47.579-7.088-75.513
	c0.655-9.978,2.512-18.883,5.107-27.127c7.309-23.153,20.438-40.544,38.304-52.917c8.217-5.694,18.145-9.71,28.198-13.387
	c14.959-5.442,29.968-10.583,50.334-9.95c16.278,2.252,27.136,9.921,37.624,17.673c6.01,4.451,13.621,7.243,21.021,10.525
	c11.519,5.074,18.185,15.758,18.76,31.343"/>
</svg>
