<?xml version="1.0" encoding="utf-8"?>
<!-- Generator: Adobe Illustrator 16.0.0, SVG Export Plug-In . SVG Version: 6.00 Build 0)  -->
<!DOCTYPE svg PUBLIC "-//W3C//DTD SVG 1.1//EN" "http://www.w3.org/Graphics/SVG/1.1/DTD/svg11.dtd">
<svg version="1.1" id="Layer_1" xmlns="http://www.w3.org/2000/svg" xmlns:xlink="http://www.w3.org/1999/xlink" x="0px" y="0px"
	 width="119.761px" height="231.171px" viewBox="0 0 119.761 231.171" enable-background="new 0 0 119.761 231.171"
	 xml:space="preserve">
<path fill="#BFDBEA" stroke="#1D1E1C" stroke-linecap="round" stroke-linejoin="round" stroke-miterlimit="10" d="M80.397,90.408
	c0.849-0.283,17.063,9.198,30.984,17.485c-1.289-3.393-2.942-6.734-4.984-9.985c-2.647-4.217-2.274-8.547-5-15
	c-1.907-4.516-5.266-5.879-6.001-1.834c-0.319,1.756-1.488-1.828-2.5-0.5c-0.572,0.751-3.413,3.929-4.249,4.584
	c-2.006,1.572-4.486,1.36-8.533,2.091C79.959,89.251,80.018,90.535,80.397,90.408z"/>
<path fill="#BCDFF1" stroke="#1D1E1C" stroke-linecap="round" stroke-linejoin="round" stroke-miterlimit="10" d="M56.05,95.908
	c0,0-15.152,4-23.652,5s2-14.5,2-14.5S3.064,106.575,8.564,124.575s11.485,27.333,23.485,27.333"/>
<path fill="#FFFFFF" stroke="#1D1E1C" stroke-width="1.5" stroke-linecap="round" stroke-linejoin="round" stroke-miterlimit="10" d="
	M80.397,90.408c-0.38,0.127-0.438-1.157-0.283-3.159c-0.619,0.112-1.27,0.243-1.967,0.409c-5.357,1.275-11.417,4.416-12.75-4.25
	c-0.408-2.654-1.649-8.705-1-12c2.255-11.438,18.5-17.5,15.5-34c-4.989-27.442-17.146-34.534-29.5-36.5
	c-11-1.75-25.62,11.132-28.25,33.75c-1.25,10.75,3.021,16.16,6,20.75c5.48,8.448,10.64,12.104,4.25,26c-1.49,3.24-17.5,20-18.5,34
	c-1.221,17.092-0.203,27.701,8.5,38.5c11.002,13.652,14,29.5,43.894,28.503c22.285-0.743,29.396-11.109,37.261-21.76
	c11.145-15.092,14.713-34.65,7.83-52.758C97.461,99.606,81.246,90.125,80.397,90.408z"/>
<path fill="#F8971D" stroke="#010101" stroke-linecap="round" stroke-linejoin="round" stroke-miterlimit="10" d="M39.739,170.046
	c0,0,1.925,18.331,0.046,22.532c-0.297,0.666-2.984,1.742-5.896,3.168c-3.541,1.734-10.355,3.702-16.658,5.162
	c-10.892,2.521-22.388,7.434-13.639,10.867c4.17,1.641,4.938-0.395,6.602,3.758c2.424,6.043,12.916,1.35,15.942,1.766
	c3.761,0.521,2.498,3.367,6.446,3.718c9.902,0.877,11.419-6.747,13.226-9.357c5-7.222,7.655-14.772,5.353-17.975
	c-1.446-2.012-3.076-1.456-3.076-1.456l1.95-22.32L39.739,170.046z"/>
<path fill="#F8971D" stroke="#010101" stroke-linecap="round" stroke-linejoin="round" stroke-miterlimit="10" d="M81.147,177.408
	c0,0-0.43,18.635,1.81,22.615c0.357,0.631-0.625,0.08,2.383,1.225c3.656,1.393,12.717,5.61,19.764,9.566
	c4.812,2.703,16.689,3.99,10.729,9.178c-3.354,2.921-4.909-0.592-6.613,3.508c-2.891,6.967-8.16,2.192-11.111,2.882
	c-3.669,0.854-4.974,4.103-8.905,4.282c-5.618,0.256-10.134-6.713-12.174-9.112c-5.738-6.747-8.374-9.858-5.214-19.401
	c0.771-2.332,2.908-3.035,2.908-3.035l-2.825-20.957L81.147,177.408z"/>
<g>
	<path fill="none" d="M95.564,107.574"/>
</g>
<path fill="#D7F0FC" d="M25.647,152.408c7.237,8.927,12.202,17.139,27.583,12.833c8.334-2.333,4.584,7.417,8.917,9.417
	s7.917,2.917,7.917,2.917l1.083,3.083c0,0-14.75,2.25-24-2c-11.656-5.355-12.75-10.167-16.75-15.5s-6.552-9.527-9-12.5
	c-7-8.5-7.713-25.835-6.75-25.5C15.61,125.492,18.147,143.158,25.647,152.408z"/>
<g>
	<path fill="#D7F0FC" d="M36.731,171.242c0,0,1.507,7.059,6.666,8.916c6.25,2.25,12.766-1.662,14-3"/>
	<path d="M36.731,171.242c0.832,2.06,1.878,4.003,3.247,5.606c0.698,0.785,1.461,1.496,2.338,1.997
		c0.429,0.25,0.901,0.479,1.341,0.627c0.553,0.181,0.994,0.305,1.515,0.399c2.029,0.418,4.168,0.267,6.245-0.214
		c1.039-0.247,2.071-0.572,3.075-0.983c1.005-0.409,2.006-0.864,2.905-1.517c-0.679,0.903-1.625,1.564-2.571,2.174
		c-0.968,0.587-1.998,1.085-3.082,1.45c-2.157,0.753-4.548,1.01-6.865,0.561c-0.565-0.113-1.186-0.304-1.68-0.479
		c-0.601-0.222-1.128-0.479-1.635-0.817c-0.999-0.673-1.849-1.523-2.506-2.48C37.734,175.658,36.966,173.463,36.731,171.242z"/>
</g>
<path fill="#D7F0FC" d="M89.397,144.658c0,0,4.323,4.257,9.5,3.25c9-1.75-2.962,7.981-3.5,10.75c-1.75,9-6.5,13-6.5,13l-7,7.25
	c0,0,11-5.25,16.75-13s13.25-19.25,13.75-27.25s-13.75-7-14.5-6.25S89.397,144.658,89.397,144.658z"/>
<path fill="#FFFFFF" stroke="#1D1E1C" stroke-width="1.5" stroke-linecap="round" stroke-linejoin="round" stroke-miterlimit="10" d="
	M69.647,89.158c0,0,11.417-5.071,20.751-0.833c14.499,6.583,22.166-4.084,22.166-4.084s10.334,27.417,4.834,45.417
	s-19.334,15-31.334,15"/>
<g>
	<path fill="#FFFFFF" d="M65.897,175.408c0,0,11,12.75,23.25-4.25"/>
	<path d="M65.897,175.408c1.805,1.475,3.812,2.625,5.927,3.301c2.115,0.662,4.351,0.771,6.452,0.207
		c2.115-0.524,4.067-1.664,5.854-3.036c1.788-1.386,3.407-3.026,5.018-4.722c-1.105,2.061-2.517,3.977-4.257,5.611
		c-1.728,1.635-3.845,2.975-6.243,3.6c-2.394,0.617-5,0.401-7.227-0.566C69.19,178.852,67.259,177.317,65.897,175.408z"/>
</g>
<path fill="#D7F0FC" d="M35.947,69.712c0,0-0.717,2.058,3.222,5.262s13.604,3.432,16.469-1.373
	c2.865-4.806,14.322-15.33,14.322-15.33l3.938-8.695l-31.506,7.094l-7.161,4.119L35.947,69.712z"/>
<path fill="none" d="M38.089,30.799c0.226-0.299-0.317,0.01-1.917,1.211C37.438,31.061,38.021,30.713,38.089,30.799z"/>
<ellipse cx="39.897" cy="25.408" rx="3.197" ry="3.893"/>
<ellipse cx="53.397" cy="24.908" rx="3.197" ry="3.893"/>
<path fill="#FAA821" stroke="#010101" stroke-linecap="round" stroke-linejoin="round" stroke-miterlimit="10" d="M26.564,63.241
	c0,0-2.645,7.983,5.333,8.667c23.333,2,21.001-4.666,25.667-8.333s14.868-8.623,16.666-12.667c2.667-6-0.666-6.5-0.666-6.5
	l-3.834-0.5L26.564,63.241z"/>
<path fill="#FECF0A" stroke="#1D1E1C" stroke-linecap="round" stroke-linejoin="round" stroke-miterlimit="10" d="M74.064,45.075
	c-3.136-1.995-6.788-1.104-9.646-1.164c-3.396-0.071-5.72-2.853-9.402-5.728c-3.545-2.266-7.78-5.111-11.758-4.031
	c-3.914,0.898-6.627,3.95-11.693,8.423C23.056,49.21,6.72,49.443,5.897,50.908c-2.65,4.715,1.251,10.397,10,14
	c8.5,3.5,15.564,4.96,22.5,4.5c8.181-0.543,13.5-2,16-4.5c2.318-2.318,5.438-5.358,10.5-8"/>
<path fill="#1D1E1C" d="M59.897,59.741c-1.167,0.983-7.253,6.573-6.833,6.167c1.58-1.528,9.778-7.447,13.166-9
	c4-1.833,5.167-4.333,6.167-9c0,0,0.167-2.833-1.332-1.893c-0.428,0.269-1.232,1.446-2.418,5.143
	C67.23,55.575,64.647,55.741,59.897,59.741z"/>
<g>
	<path d="M51.147,42.658c-0.361-0.298-0.624-0.651-0.836-1.042c-0.113-0.194-0.189-0.403-0.264-0.642
		c-0.034-0.125-0.057-0.246-0.052-0.437c0.013-0.1,0.007-0.219,0.141-0.412c0.062-0.092,0.177-0.175,0.303-0.221
		c0.093-0.028,0.236-0.039,0.288-0.025c0.286,0.056,0.38,0.149,0.495,0.224c0.108,0.078,0.205,0.16,0.278,0.233
		c0.144,0.155,0.299,0.297,0.43,0.467c0.275,0.324,0.528,0.676,0.717,1.104c-0.455-0.108-0.847-0.293-1.216-0.506
		c-0.19-0.098-0.357-0.226-0.536-0.338c-0.089-0.059-0.152-0.114-0.22-0.151c-0.056-0.043-0.146-0.062-0.068-0.041
		c0.001-0.003,0.092,0.007,0.133-0.02c0.08-0.021,0.146-0.082,0.181-0.126c0.066-0.11,0.048-0.12,0.049-0.117
		c-0.01,0.02,0.002,0.107,0.006,0.188c0.005,0.173,0.053,0.366,0.072,0.568C51.108,41.77,51.164,42.192,51.147,42.658z"/>
</g>
<g>
	<path fill="#F47920" d="M33.397,210.408c-1.932,1.826-12.197,6.771-18.167,6.5c-3.666-0.167-3.438-2.878-2.5-4.167
		c1.732-2.381,5.733-4.776,8.931-6.345c-3.021,1.208-6.938,2.744-9.431,3.679c-5.333,2-10.667-0.334-10.667-0.334
		s3.334,2.167,6,2.167c1.167,0,2.5,1.5,2.5,1.5s1.646,4.357,4,4.5c5.5,0.333,10.758-1.721,11.666-1.667
		c2.833,0.166,3.252,1.7,4.167,2.5c1.799,1.572,9.027,3.792,13.167-4.5c0.666-1.334-3.129,3.265-6.303,4.271
		c-3.656,1.16-7.191,0.523-5.265-3.556c0.679-1.436,1.617-3.062,2.733-4.548C37.011,206.705,37.536,206.495,33.397,210.408z"/>
</g>
<g>
	<path fill="#F47920" d="M87.064,218.408c1.932,1.826,12.197,6.771,18.167,6.5c3.666-0.167,2.604-2.961,1.666-4.25
		c-1.732-2.381-4.899-4.693-8.097-6.262c3.021,1.208,6.938,2.744,9.431,3.679c5.333,2,8.666,0.083,8.666,0.083
		s-1.084,2.25-3.75,2.25c-1.167,0-3,0.25-3,0.25s-1.5,5.25-5,5.5c-5.496,0.393-5.925-1.054-6.833-1
		c-2.833,0.166-5.002,2.7-5.917,3.5c-1.799,1.572-8.86,1.875-13-6.417c-0.666-1.334,2.826,4.161,6,5.167
		c3.656,1.16,7.427,0.329,5.5-3.75c-0.679-1.436-3.55-3.764-4.666-5.25C83.451,214.705,82.926,214.495,87.064,218.408z"/>
</g>
<g>
	<path fill="#F47920" d="M41.147,193.158c0.371,0.492,0.81,0.71,1.271,0.84c0.46,0.136,0.962,0.176,1.486,0.2
		c0.532,0.03,1.068,0.012,1.57-0.094c0.492-0.112,1.007-0.306,1.292-0.827c0.04,0.628-0.515,1.174-1.063,1.444
		c-0.57,0.286-1.184,0.389-1.787,0.442c-0.608,0.033-1.268-0.052-1.851-0.386C41.495,194.455,41.021,193.796,41.147,193.158z"/>
</g>
<g>
	<path fill="#F47920" d="M75.897,200.408c0.371,0.492,0.81,0.71,1.271,0.84c0.46,0.136,0.962,0.176,1.486,0.2
		c0.532,0.03,1.068,0.012,1.57-0.094c0.492-0.112,1.007-0.306,1.292-0.827c0.04,0.628-0.515,1.174-1.063,1.444
		c-0.57,0.286-1.184,0.389-1.787,0.442c-0.608,0.033-1.268-0.052-1.851-0.386C76.245,201.705,75.771,201.046,75.897,200.408z"/>
</g>
<path fill="#D7F0FC" d="M106.397,124.408c0,0-18.892,6.883-11.5,8.5c16,3.5,26-15.5,22.5-22S106.397,124.408,106.397,124.408z"/>
<g>
	<path fill="#FFFFFF" d="M92.897,132.241c0.75,0,11.334-1,17.667-8c11.506-12.718,6.666-27.333,6.666-27.333
		s-0.332-4.666-3.666,0.667"/>
	<path fill="#1D1E1C" d="M92.897,132.241c4.073-0.408,8.066-1.641,11.657-3.568c1.789-0.977,3.463-2.168,4.916-3.586
		c1.43-1.429,2.703-3.051,3.808-4.75c2.212-3.41,3.674-7.29,4.254-11.298c0.572-3.99,0.374-8.165-0.743-11.984
		c-0.011-0.035-0.019-0.078-0.022-0.113c-0.043-0.43-0.159-0.931-0.353-1.234c-0.102-0.155-0.189-0.206-0.251-0.208
		c-0.068-0.013-0.23,0.039-0.395,0.151c-0.334,0.227-0.658,0.594-0.951,0.973c-0.294,0.384-0.567,0.796-0.829,1.217
		c-0.145,0.235-0.452,0.31-0.688,0.165s-0.309-0.453-0.164-0.688c0,0,0.003-0.006,0.004-0.006c0.279-0.439,0.573-0.873,0.902-1.292
		c0.336-0.416,0.686-0.83,1.197-1.175c0.256-0.16,0.587-0.338,1.031-0.295c0.457,0.049,0.782,0.382,0.943,0.652
		c0.331,0.572,0.418,1.099,0.479,1.674l-0.022-0.113c1.113,4.074,1.217,8.286,0.566,12.387c-0.666,4.097-2.233,8.035-4.543,11.464
		c-1.161,1.713-2.456,3.318-3.957,4.755c-1.513,1.414-3.235,2.585-5.062,3.533C101.01,130.771,96.981,131.918,92.897,132.241z"/>
</g>
<path fill="#D7F0FC" d="M96.397,111.908c0,0-11.892,6.383-4.5,8c16,3.5,28-16.5,24.5-23S96.397,111.908,96.397,111.908z"/>
<g>
	<path fill="#FFFFFF" d="M88.564,119.241c0.75,0,11.518-2.802,18.333-9.333c16-15.333,7.333-27.333,7.333-27.333
		s-1.666,2.333-5,5.666"/>
	<path fill="#1D1E1C" d="M88.564,119.241c2.082-0.507,4.078-1.313,6.039-2.152c1.964-0.837,3.875-1.794,5.698-2.886
		c1.831-1.075,3.594-2.268,5.186-3.653c1.574-1.38,3.041-2.97,4.413-4.565c2.724-3.227,4.932-6.967,5.854-11.085
		c0.967-4.072,0.494-8.576-1.644-12.238l0.238-0.001c-1.555,2.009-3.298,3.836-5.119,5.581c1.731-1.829,3.409-3.724,4.881-5.751
		l0.003-0.005c0.047-0.063,0.137-0.078,0.2-0.031c0.014,0.01,0.025,0.022,0.035,0.035c2.465,3.637,3.042,8.306,2.205,12.581
		c-0.88,4.314-3.152,8.2-5.899,11.543c-1.393,1.683-2.893,3.216-4.559,4.649c-1.672,1.403-3.49,2.612-5.387,3.659
		C96.882,116.931,92.817,118.556,88.564,119.241z"/>
</g>
</svg>
