<?xml version="1.0" encoding="utf-8"?>
<!-- Generator: Adobe Illustrator 16.0.0, SVG Export Plug-In . SVG Version: 6.00 Build 0)  -->
<!DOCTYPE svg PUBLIC "-//W3C//DTD SVG 1.1//EN" "http://www.w3.org/Graphics/SVG/1.1/DTD/svg11.dtd">
<svg version="1.1" id="Layer_1" xmlns="http://www.w3.org/2000/svg" xmlns:xlink="http://www.w3.org/1999/xlink" x="0px" y="0px"
	 width="56.17px" height="139.98px" viewBox="0 0 56.17 139.98" enable-background="new 0 0 56.17 139.98" xml:space="preserve">
<path fill="#96C93D" stroke="#000000" stroke-linecap="round" stroke-linejoin="round" stroke-miterlimit="10" d="M15.637,37.747
	C13.699,48.613,2.296,67.55,0.714,86.849c-1.513,18.457,5.258,35.057,12.338,43.362c4.303,5.049,10.938,9.269,10.938,9.269
	s7.96-0.095,17.57-11.481c9.96-11.802,19.833-47.559,10.134-73.379C40.048,23.613,17.122,0.5,17.122,0.5
	S18.302,22.806,15.637,37.747z"/>
<path opacity="0.88" fill="#659A38" d="M18.479,3.819c0,0,6.825,30.055,4.402,50.133c-2.423,20.078-7.165,35.054-6.074,53.216
	c0.754,12.546,7.199,32.119,7.199,32.119s8.245,0.161,16.249-13.733c8.003-13.895,13.154-41.586,11.419-55.518
	c-1.902-15.291-6.906-25.454-6.906-25.454s-7.664,16.517-9.15,17.125c-1.485,0.608,6.579-21.994,6.579-21.994
	S37.103,29.61,31.208,21.439C27.112,15.762,18.479,3.819,18.479,3.819z"/>
<g>
	<path d="M18.187,3.339c0,0,0.458,2.104,1.119,5.813c0.658,3.709,1.522,9.025,2.275,15.443c0.361,3.21,0.716,6.694,0.955,10.389
		c0.272,3.694,0.385,7.601,0.394,11.644c-0.057,4.035-0.24,8.236-0.74,12.44c-0.452,4.22-1.007,8.494-1.617,12.758
		c-1.199,8.529-2.69,17.022-3.352,25.043c-0.155,2.005-0.257,3.979-0.263,5.909c-0.021,1.926,0.108,3.816,0.18,5.67
		c0.242,3.674,0.556,7.146,1.071,10.321c0.951,6.361,2.415,11.538,3.71,15.037c0.645,1.752,1.228,3.098,1.667,3.986
		c0.436,0.895,0.696,1.328,0.696,1.329l0.004,0.007c0.142,0.236,0.065,0.544-0.171,0.686c-0.237,0.143-0.544,0.065-0.686-0.171
		l-0.002-0.004c0,0.001-0.291-0.491-0.733-1.415c-0.45-0.922-1.038-2.3-1.684-4.086c-1.298-3.568-2.75-8.815-3.673-15.238
		c-0.502-3.203-0.8-6.709-1.024-10.418c-0.061-1.845-0.18-3.749-0.149-5.71c0.017-1.955,0.131-3.946,0.298-5.965
		c0.711-8.074,2.25-16.558,3.494-25.072c0.632-4.256,1.21-8.52,1.684-12.726c0.515-4.214,0.756-8.354,0.849-12.388
		c0.032-4.029-0.041-7.929-0.275-11.619c-0.201-3.691-0.52-7.174-0.848-10.385c-0.688-6.419-1.497-11.742-2.118-15.457
		C18.624,5.448,18.187,3.339,18.187,3.339z"/>
</g>
</svg>
