<?xml version="1.0" encoding="utf-8"?>
<!-- Generator: Adobe Illustrator 16.0.0, SVG Export Plug-In . SVG Version: 6.00 Build 0)  -->
<!DOCTYPE svg PUBLIC "-//W3C//DTD SVG 1.1//EN" "http://www.w3.org/Graphics/SVG/1.1/DTD/svg11.dtd">
<svg version="1.1" id="Layer_1" xmlns="http://www.w3.org/2000/svg" xmlns:xlink="http://www.w3.org/1999/xlink" x="0px" y="0px"
	 width="37.834px" height="285.27px" viewBox="0 0 37.834 285.27" enable-background="new 0 0 37.834 285.27" xml:space="preserve">
<path fill="#FFCB05" stroke="#231F20" stroke-miterlimit="10" d="M23.914,28.114c-1.654-0.13-3.353-0.143-5.08-0.028
	c-0.186,0.014-0.369,0.038-0.552,0.053c-5.132,0.32-9.436,1.433-11.688,2.917c-0.137-0.716-0.201-1.448-0.163-2.189l0.311-6.015
	c0.276-5.379,5.316-9.017,11.716-9.195l2.677-0.077c6.931-0.193,13.438,2.571,13.304,9.697l0.215,6.796
	c0.004,0.16-0.011,0.316-0.013,0.475C32.417,29.274,28.526,28.365,23.914,28.114z"/>
<path fill="#FFCB05" stroke="#231F20" stroke-miterlimit="10" d="M27.925,2.564c-0.156-0.183-0.324-0.355-0.511-0.514
	c-0.048-0.042-0.087-0.086-0.14-0.126c-0.028-0.023-0.056-0.046-0.086-0.068c-0.021-0.015-0.042-0.027-0.062-0.043
	c-0.188-0.138-0.39-0.267-0.602-0.384c-0.077-0.042-0.157-0.079-0.235-0.118c-0.025-0.014-0.05-0.026-0.076-0.038
	c-0.039-0.021-0.077-0.043-0.119-0.061c-0.037-0.018-0.072-0.041-0.111-0.057v0.018c-0.029-0.012-0.06-0.021-0.088-0.032
	c-0.253-0.104-0.51-0.197-0.783-0.273c-0.132-0.036-0.266-0.066-0.401-0.096c-0.283-0.063-0.577-0.108-0.88-0.141
	c-0.08-0.009-0.157-0.031-0.236-0.039l-0.002,0.017c-0.167-0.013-0.328-0.042-0.5-0.046l-2.721-0.06
	c-1.559-0.033-2.923,0.181-3.984,0.788c-0.019,0.011-0.034,0.02-0.052,0.029c-0.23,0.136-0.448,0.289-0.649,0.465
	c-0.01,0.008-0.015,0.015-0.024,0.022c-0.196,0.178-0.381,0.375-0.546,0.596c-0.006,0.007-0.013,0.014-0.019,0.021
	c-0.156,0.213-0.296,0.451-0.419,0.708c-0.023,0.04-0.045,0.082-0.063,0.124c-0.117,0.254-0.22,0.529-0.302,0.826
	c-0.015,0.05-0.026,0.102-0.039,0.152c-0.081,0.316-0.152,0.65-0.197,1.016l-0.339,11.413c0.846-0.295,1.747-0.508,2.688-0.653l0,0
	c0.565-0.087,1.14-0.157,1.734-0.185l1.058-0.054l0,0l1.616-0.082c1.304-0.063,2.589-0.013,3.824,0.144
	c0.147,0.019,0.301,0.036,0.447,0.059c0.322,0.047,0.634,0.122,0.946,0.186c0.257,0.052,0.516,0.101,0.766,0.164
	c0.095,0.025,0.188,0.05,0.284,0.075c0.525,0.146,1.04,0.305,1.526,0.502l0.337-11.249c0.009-0.338-0.026-0.656-0.081-0.965
	c-0.016-0.084-0.032-0.165-0.053-0.246c-0.062-0.265-0.142-0.519-0.248-0.758c-0.016-0.036-0.026-0.074-0.042-0.108
	c-0.128-0.265-0.286-0.508-0.46-0.74c-0.028-0.037-0.05-0.076-0.077-0.111V2.64C27.98,2.613,27.949,2.591,27.925,2.564z"/>
<path fill="#FFF200" stroke="#231F20" stroke-width="0.5" stroke-miterlimit="10" d="M17.941,16.767
	c-3.822,0.355-7.343,1.346-10.34,2.792c1.729-3.522,5.875-5.763,10.855-5.903l2.677-0.077c5.567-0.157,10.861,1.601,12.656,5.992
	C29.53,17.328,23.925,16.216,17.941,16.767z"/>
<radialGradient id="SVGID_1_" cx="-55.4834" cy="216.5562" r="5.7616" gradientTransform="matrix(0.8873 -0.6058 0.6756 0.7956 -73.2238 38.0235)" gradientUnits="userSpaceOnUse">
	<stop  offset="0" style="stop-color:#000000"/>
	<stop  offset="0.1557" style="stop-color:#3D3D3D"/>
	<stop  offset="0.3239" style="stop-color:#777777"/>
	<stop  offset="0.4866" style="stop-color:#A8A8A8"/>
	<stop  offset="0.6395" style="stop-color:#CECECE"/>
	<stop  offset="0.7804" style="stop-color:#E9E9E9"/>
	<stop  offset="0.905" style="stop-color:#F9F9F9"/>
	<stop  offset="1" style="stop-color:#FFFFFF"/>
</radialGradient>
<path fill="url(#SVGID_1_)" d="M15.882,243.016c4.843,0.437,10.383-0.362,13.518-1.821c0.242-0.113,0.465-0.283,0.671-0.495
	l0.037,4.717c0.001,0.175-0.026,0.439-0.065,0.634c-2.541,1.152-5.598,1.945-8.931,2.201c-0.84,0.062-1.665,0.088-2.478,0.082
	C17.695,247.068,16.763,245.36,15.882,243.016z"/>
<path fill="#C3CCCF" stroke="#231F20" stroke-linecap="round" stroke-linejoin="round" stroke-miterlimit="10" d="M19.92,280.013
	L19.92,280.013c-0.46,0.092-0.94,0.147-1.438,0.16c-0.964,0.024-1.877-0.116-2.692-0.375l1.625,3.854
	c0.533,1.261,1.332,1.45,1.938,0.596c0.002,0.003,0,0.009,0.002,0.012c0.009-0.012,0.014-0.031,0.022-0.043
	c0.112-0.162,0.218-0.346,0.31-0.58l1.398-3.463c0.073-0.182,0.123-0.363,0.151-0.542C20.824,279.792,20.385,279.922,19.92,280.013z
	"/>
<path fill="#D0D2D3" stroke="#231F20" stroke-linecap="round" stroke-linejoin="round" stroke-miterlimit="10" d="M30.07,240.701
	c-0.206,0.212-0.429,0.381-0.671,0.495c-0.285,0.133-0.602,0.257-0.924,0.378c-0.171,0.063-0.351,0.126-0.535,0.186
	c-0.122,0.042-0.25,0.083-0.377,0.123c-0.563,0.173-1.16,0.333-1.789,0.475c-0.599,0.136-1.226,0.258-1.874,0.362
	c-0.142,0.021-0.285,0.043-0.429,0.062c-0.439,0.063-0.886,0.119-1.338,0.165c-0.142,0.014-0.286,0.031-0.429,0.043
	c-0.476,0.042-0.958,0.076-1.439,0.099c-0.115,0.006-0.231,0.015-0.346,0.02c-0.601,0.022-1.201,0.032-1.8,0.022
	c-0.01,0-0.023,0-0.035,0c-0.555-0.008-1.105-0.037-1.651-0.075c-0.142-0.01-0.282-0.023-0.42-0.035
	c-0.271-0.024-0.536-0.046-0.798-0.077c-0.232-0.027-0.458-0.061-0.684-0.093c-0.241-0.035-0.482-0.071-0.716-0.112
	c-0.231-0.042-0.458-0.087-0.683-0.137c-0.218-0.046-0.435-0.095-0.646-0.149c-0.071-0.017-0.138-0.038-0.208-0.056l0.003-0.099
	c-1.348-0.417-3.003-1.048-4.022-1.812c-0.155-0.131-0.324-0.254-0.46-0.396l-0.147,5.476c-0.002,0.046,0,0.1,0.003,0.156
	c0.001,0.001,0.003,0.002,0.003,0.002c0.007,0.186,0.026,0.4,0.057,0.55l6.812,32.848c0.033,0.156,0.18,0.281,0.346,0.323
	c0.096,0.045,0.2,0.078,0.299,0.12v0c0.004,0.002,0.01,0.002,0.012,0.005c0.158,0.067,0.315,0.137,0.479,0.194
	c0.082,0.026,0.167,0.044,0.248,0.068c0.02,0.004,0.036,0.009,0.055,0.015c0.113,0.032,0.229,0.064,0.346,0.094
	c0.071,0.017,0.141,0.042,0.214,0.058l-0.001,0c0.059,0.012,0.121,0.018,0.182,0.029c0.073,0.015,0.152,0.023,0.229,0.035
	c0.205,0.034,0.412,0.067,0.625,0.084c0.3,0.026,0.608,0.038,0.922,0.03c0.25-0.005,0.497-0.031,0.739-0.058v-0.002
	c0.456-0.05,0.894-0.135,1.31-0.251c0.004-0.002,0.012-0.002,0.017-0.004v-0.002c0.253-0.07,0.495-0.149,0.727-0.241
	c0.242-0.093,0.473-0.197,0.692-0.313c-0.042,0.014-0.086,0.024-0.127,0.025c0.219-0.005,0.437-0.167,0.481-0.357l7.71-32.847
	c0.003-0.019,0.007-0.049,0.01-0.071h0.002c0.005-0.028,0.01-0.062,0.014-0.091c0.012-0.074,0.023-0.139,0.033-0.218
	c0.013-0.118,0.02-0.233,0.019-0.324L30.07,240.701z"/>
<path fill="#4777FC" stroke="#231F20" stroke-width="1.5" stroke-linecap="round" stroke-linejoin="round" stroke-miterlimit="10" d="
	M6.913,238.823c-1.917-4.118-3.115-65.192-3.219-73.956c4.674,0.89,9.723,1.433,14.982,1.544c4.438,0.093,8.688-0.133,12.67-0.617
	c1.026-0.123,2.044-0.258,3.035-0.415c-0.715,11.676-0.085,73.538-4.982,75.816C23.58,243.903,9.485,244.347,6.913,238.823z"/>
<path fill="#4777FC" stroke="#231F20" stroke-width="1.5" stroke-linecap="round" stroke-linejoin="round" stroke-miterlimit="10" d="
	M19.268,159.179c-5.43-0.147-10.642-0.73-15.463-1.665c0,0,0.003,0.003,0,0.004l-0.015-0.003
	c-0.396-13.581-2.456-91.74,1.744-123.171c0.017-0.118,0.034-0.224,0.051-0.339c3.73-2.048,8.155-3.391,12.991-3.719
	c6.122-0.415,11.889,0.848,16.568,3.294v-0.002c0.261,0.096,0.406,0.15,0.406,0.15c0.201,0.075,0.374,0.24,0.381,0.527
	c0.262,10.6,3.188,86.622-1.443,124.11C29.784,159.025,24.657,159.324,19.268,159.179z"/>
<path fill="#2E4BB2" d="M33.61,166.263c-0.061,5.144-0.166,12.894-0.416,19.665c-0.208-5.771-0.938-16.026-0.993-19.46
	C32.673,166.403,33.146,166.337,33.61,166.263z"/>
<path fill="#315BBA" d="M32.2,157.826c0.283-21.434,1.896-102.984,1.729-123.962c0.159,0.077,0.323,0.156,0.479,0.237v-0.002
	c0.259,0.094,0.402,0.148,0.402,0.148c0.199,0.074,0.371,0.237,0.377,0.521c0.248,10.494,3.073,85.753-1.549,122.871
	C33.165,157.705,32.685,157.767,32.2,157.826z"/>
<path fill="#FCB316" stroke="#231F20" stroke-width="0.75" stroke-miterlimit="10" d="M3.608,164.848
	c-0.094-0.024-0.157-0.102-0.164-0.188c-0.001-0.001-0.004-0.005-0.007-0.005c0.004-0.009,0.006-0.017,0.008-0.026
	c0-0.008-0.001-0.018,0.003-0.027l0.048-0.136c0.286-0.891,0.477-1.86,0.523-2.893c0.07-1.385-0.122-2.682-0.49-3.818
	c0.002,0.002,0.005,0.001,0.005,0.001l-0.036-0.088c-0.027-0.115,0.056-0.194,0.185-0.173l0.122,0.025c0.003-0.001,0-0.004,0-0.004
	c4.821,0.934,10.033,1.517,15.463,1.665c5.399,0.145,10.537-0.157,15.253-0.815c-0.005,0.002-0.002,0.004-0.005,0.007
	c0.13-0.01,0.211,0.072,0.181,0.182l-0.078,0.205l-0.001,0c-0.235,0.785-0.396,1.629-0.458,2.519
	c-0.089,1.382,0.081,2.669,0.424,3.784l0.037,0.072c0.026,0.115-0.06,0.223-0.189,0.237l-0.072,0.005
	c-4.814,0.774-10.105,1.152-15.682,1.036c-5.272-0.11-10.336-0.655-15.02-1.552l-0.021-0.001c-0.007,0-0.01-0.004-0.016-0.006
	c-0.003,0.001-0.007-0.001-0.01,0C3.609,164.85,3.609,164.85,3.608,164.848z"/>
<path fill="#FFCB05" stroke="#231F20" stroke-width="0.5" stroke-miterlimit="10" d="M3.657,164.859l-0.021-0.001
	c-0.007,0-0.01-0.004-0.016-0.006c-0.003,0.001-0.007-0.001-0.01,0c-0.001-0.001-0.001-0.001-0.002-0.003
	c-0.094-0.024-0.157-0.102-0.164-0.188c-0.001-0.001-0.004-0.005-0.007-0.005c0.004-0.009,0.006-0.017,0.008-0.026
	c0-0.008-0.001-0.018,0.003-0.027l0.048-0.136c0.286-0.891,0.477-1.86,0.523-2.893c0.007-0.053,0-0.102,0.005-0.157
	c4.772,0.875,9.888,1.427,15.21,1.57c5.257,0.141,10.267-0.128,14.907-0.721c0.024,1.009,0.18,1.951,0.441,2.796l0.037,0.072
	c0.026,0.115-0.06,0.223-0.189,0.237l-0.072,0.005c-4.814,0.774-10.105,1.152-15.682,1.036
	C13.404,166.301,8.341,165.755,3.657,164.859z"/>
<path fill="#FCB316" stroke="#231F20" stroke-width="0.75" stroke-miterlimit="10" d="M5.541,34.178l0.001-0.147
	c-0.014,0.006-0.027,0.012-0.038,0.019l0.054-1.665l0.039-0.122l0.006-0.159l0.112-0.377c0.013-0.007,0.027-0.012,0.041-0.018
	c1.889-1.806,6.667-3.203,12.526-3.57c0.183-0.016,0.366-0.04,0.552-0.053c1.728-0.115,3.426-0.102,5.08,0.028
	c5.283,0.287,9.619,1.437,11.584,3.011l-0.001,0.002c0.459,0.431,0.825,1.789,0.648,2.544c0,0,0,0-0.002,0.001
	c-0.002,0.045-0.008,0.088-0.013,0.133c-0.012,0.085-0.023,0.167-0.049,0.242c-0.08,0.262-0.099,0.344-0.139,0.314
	c-0.003-0.001-0.005-0.001-0.005-0.001c-0.012-0.01-0.021-0.023-0.033-0.044c-0.084-0.115-0.256-0.424-0.803-0.727
	c0,0-0.687-0.359-1.096-0.562c-0.009-0.003-0.016-0.009-0.021-0.011c-0.015-0.006-0.033-0.013-0.046-0.021
	c-0.13-0.06-0.26-0.117-0.391-0.174c-0.12-0.053-0.242-0.108-0.361-0.161c-2.979-1.216-7.624-1.967-12.838-1.898
	c-4.938,0.069-9.337,0.856-12.282,2.04c-0.12,0.052-0.24,0.107-0.36,0.162c-0.221,0.098-0.444,0.193-0.662,0.298
	C6.464,33.55,5.952,33.856,5.541,34.178z"/>
<path fill="#FFCB05" stroke="#231F20" stroke-linecap="round" stroke-miterlimit="10" d="M1.608,117.293
	c0.59-3.904,1.914-25.922-0.409-45.564c-2.324-19.642,1.84-39.649,2.452-43.676c0,0,0.834-0.797,2.595-1.096
	c1.76-0.3,5.469-0.473,5.469-0.473c0.889-0.042,2.351-0.053,3.243-0.025c0,0,0.359,0.023,0.525,0.285l2.076,1.458l-2.416-0.153
	c-0.024,0.038-0.044,0.072-0.071,0.109c-4.162,5.777-2.558,40.589,1.097,56.161c3.448,14.708-1.358,27.612-1.358,27.612
	c-0.247,0.771-0.836,1.957-1.303,2.638l-1.225,1.781c-0.472,0.681-1.581,1.311-2.471,1.395
	C9.812,117.743,1.418,118.553,1.608,117.293z"/>
<path fill="#315BBA" d="M5.993,124.649l3.659-0.257c0.222-0.023,0.583-0.069,0.801-0.098l3.15-1.009
	c0.208-0.075,0.423-0.296,0.479-0.487l1.33-4.345c0.059-0.192,0.137-0.512,0.179-0.707c0,0,4.343-18.162,2.418-28.741
	c-2.973-16.334-6.322-50.313-1.978-57.23c0,0-1.531-0.693-1.87,0.735c-2.508,10.55-1.15,38.277,2.043,51.941
	c3.419,14.655-1.391,27.521-1.391,27.521c-0.249,0.769-0.837,1.952-1.304,2.63l-1.225,1.777c-0.47,0.679-1.577,1.308-2.466,1.393
	c0,0-3.35,0.332-5.774,0.231l1.456,6.318C5.548,124.517,5.77,124.664,5.993,124.649z"/>
<path fill="#FCB316" d="M11.232,105.14c3.035-10.873,0.436-24.772-0.989-31.503c-1.42-6.73-2.746-26.978-1.09-33.334
	c0,0,0.888,2.395,0.314,9.663C8.89,57.234,12.407,75.46,14.18,83.327c1.771,7.866,0.102,18.906-0.988,22.674
	c-0.694,2.393-1.582,7.021-2.141,10.088c-0.406,0.209-0.843,0.358-1.239,0.395c0,0-0.02,0.003-0.045,0.005
	C9.522,114.389,9.643,110.833,11.232,105.14z"/>
<polygon fill="#F1F1F2" points="11.546,243.562 10.399,246.719 16.466,278.476 17.265,278.723 15.792,247.525 14.641,244.089 "/>
<path fill="#FCB316" d="M27.054,11.723c0,0.696-0.63,1.26-1.405,1.26l0,0c-0.775,0-1.405-0.564-1.405-1.26v-7.98
	c0-0.696,0.63-1.26,1.405-1.26l0,0c0.775,0,1.405,0.564,1.405,1.26V11.723z"/>
</svg>
