<?xml version="1.0" encoding="utf-8"?>
<!-- Generator: Adobe Illustrator 16.0.0, SVG Export Plug-In . SVG Version: 6.00 Build 0)  -->
<!DOCTYPE svg PUBLIC "-//W3C//DTD SVG 1.1//EN" "http://www.w3.org/Graphics/SVG/1.1/DTD/svg11.dtd">
<svg version="1.1" id="Rulers" xmlns="http://www.w3.org/2000/svg" xmlns:xlink="http://www.w3.org/1999/xlink" x="0px" y="0px"
	 width="405.937px" height="94.584px" viewBox="0 0 405.937 94.584" enable-background="new 0 0 405.937 94.584"
	 xml:space="preserve">
<path fill="#FFA940" stroke="#231F20" stroke-width="2" stroke-linecap="round" stroke-linejoin="round" stroke-miterlimit="10" d="
	M5.166,1C4.1,1,3.03,1.407,2.222,2.222C1.407,3.03,1,4.1,1,5.163v85.014c0,0.873,0.334,1.743,0.999,2.405
	c0.665,0.668,1.535,1.002,2.408,1.002h400.529V1H5.166z M38.034,54.235c-3.835,0-6.94-3.108-6.94-6.946
	c0-3.835,3.105-6.94,6.94-6.94s6.943,3.105,6.943,6.94C44.978,51.127,41.869,54.235,38.034,54.235z"/>
<path fill="none" d="M38.034,40.349c-3.835,0-6.94,3.105-6.94,6.94c0,3.838,3.105,6.946,6.94,6.946s6.943-3.108,6.943-6.946
	C44.978,43.454,41.869,40.349,38.034,40.349z"/>
<path fill="#F7931E" d="M4.703,1.463c-0.949,0-1.898,0.36-2.622,1.084C1.363,3.268,1,4.217,1,5.166
	c2.493,28.532,2.493,56.476,0,85.011c0,0.753,0.287,1.509,0.861,2.08c0.577,0.574,1.327,0.864,2.083,0.864h400.992V1.463H4.703z
	 M38.034,54.235c-3.835,0-6.94-3.108-6.94-6.946c0-3.835,3.105-6.94,6.94-6.94s6.943,3.105,6.943,6.94
	C44.978,51.127,41.869,54.235,38.034,54.235z"/>
<path fill="#FFA940" d="M3.085,0.995l0.026,61.666h401.825V0.995H3.085z M38.49,54.235c-3.831,0-6.932-3.108-6.932-6.946
	c0-3.835,3.101-6.94,6.932-6.94c3.83,0,6.935,3.105,6.935,6.94C45.425,51.127,42.32,54.235,38.49,54.235z"/>
<g>
	<path fill="#231F20" d="M4.378,25.162c0,0.332,0.215,0.6,0.477,0.6c0.262,0,0.473-0.268,0.473-0.6V1.457H4.378V25.162z"/>
	<path fill="#231F20" d="M9.812,25.173c0,0.321,0.215,0.589,0.472,0.589c0.262,0,0.477-0.268,0.477-0.589V1.457H9.812V25.173z"/>
	<path fill="#231F20" d="M15.245,25.173c0,0.321,0.207,0.589,0.473,0.589c0.262,0,0.468-0.268,0.468-0.589V1.457h-0.941V25.173z"/>
	<path fill="#231F20" d="M20.67,25.173c0,0.321,0.214,0.589,0.481,0.589c0.253,0,0.468-0.268,0.468-0.589V1.457H20.67V25.173z"/>
	<path fill="#231F20" d="M26.103,33.458c0,0.332,0.21,0.594,0.473,0.594s0.477-0.263,0.477-0.594V1.457h-0.949V33.458z"/>
	<path fill="#231F20" d="M31.532,25.162c0,0.332,0.215,0.6,0.473,0.6c0.266,0,0.477-0.268,0.477-0.6V1.457h-0.949V25.162z"/>
	<path fill="#231F20" d="M36.957,25.162c0,0.332,0.219,0.6,0.481,0.6c0.257,0,0.468-0.268,0.468-0.6V1.457h-0.949V25.162z"/>
	<path fill="#231F20" d="M42.391,25.162c0,0.332,0.215,0.6,0.477,0.6c0.258,0,0.473-0.268,0.473-0.6V1.457h-0.949V25.162z"/>
	<path fill="#231F20" d="M48.292,25.762c0.262,0,0.481-0.273,0.481-0.604v-23.7h-0.966v23.7
		C47.807,25.489,48.021,25.762,48.292,25.762z"/>
	<path fill="#231F20" d="M53.232,40.625c0,0.332,0.219,0.6,0.485,0.6c0.271,0,0.485-0.268,0.485-0.6V1.457h-0.971V40.625z"/>
	<path fill="#231F20" d="M59.155,25.762c0.267,0,0.477-0.268,0.477-0.6V1.457h-0.949v23.705
		C58.683,25.494,58.897,25.762,59.155,25.762z"/>
	<path fill="#231F20" d="M64.584,25.762c0.267,0,0.477-0.268,0.477-0.6V1.457h-0.945v23.705
		C64.116,25.494,64.326,25.762,64.584,25.762z"/>
	<path fill="#231F20" d="M70.005,25.762c0.271,0,0.485-0.273,0.485-0.604v-23.7h-0.962v23.7
		C69.528,25.489,69.743,25.762,70.005,25.762z"/>
	<path fill="#231F20" d="M74.957,25.157c0,0.332,0.215,0.604,0.485,0.604c0.266,0,0.477-0.273,0.477-0.604v-23.7h-0.962V25.157z"/>
	<path fill="#231F20" d="M80.386,33.458c0,0.332,0.215,0.594,0.473,0.594c0.266,0,0.477-0.263,0.477-0.594V1.457h-0.949V33.458z"/>
	<path fill="#231F20" d="M85.815,25.162c0,0.332,0.21,0.6,0.477,0.6c0.258,0,0.473-0.268,0.473-0.6V1.457h-0.949V25.162z"/>
	<path fill="#231F20" d="M91.245,25.162c0,0.332,0.215,0.6,0.477,0.6c0.262,0,0.473-0.268,0.473-0.6V1.457h-0.949V25.162z"/>
	<path fill="#231F20" d="M97.627,25.162V1.457h-0.95v23.705c0,0.332,0.211,0.6,0.468,0.6C97.413,25.762,97.627,25.494,97.627,25.162
		z"/>
	<path fill="#231F20" d="M102.584,25.762c0.262,0,0.468-0.268,0.468-0.6V1.457h-0.945v23.705
		C102.107,25.494,102.317,25.762,102.584,25.762z"/>
	<path fill="#231F20" d="M107.536,40.63c0,0.332,0.215,0.594,0.473,0.594c0.262,0,0.477-0.262,0.477-0.594V1.457h-0.949V40.63z"/>
	<path fill="#231F20" d="M112.97,25.162c0,0.332,0.21,0.6,0.468,0.6c0.266,0,0.481-0.268,0.481-0.6V1.457h-0.949V25.162z"/>
	<path fill="#231F20" d="M118.395,25.162c0,0.332,0.21,0.6,0.477,0.6c0.257,0,0.472-0.268,0.472-0.6V1.457h-0.949V25.162z"/>
	<path fill="#231F20" d="M123.824,25.162c0,0.332,0.215,0.6,0.477,0.6c0.262,0,0.472-0.268,0.472-0.6V1.457h-0.949V25.162z"/>
	<path fill="#231F20" d="M129.257,25.162c0,0.332,0.21,0.6,0.472,0.6c0.262,0,0.477-0.268,0.477-0.6V1.457h-0.949V25.162z"/>
	<path fill="#231F20" d="M134.687,33.458c0,0.332,0.21,0.594,0.477,0.594c0.262,0,0.468-0.263,0.468-0.594V1.457h-0.945V33.458z"/>
	<path fill="#231F20" d="M140.116,25.162c0,0.332,0.214,0.6,0.472,0.6c0.267,0,0.477-0.268,0.477-0.6V1.457h-0.949V25.162z"/>
	<path fill="#231F20" d="M145.549,25.162c0,0.332,0.21,0.6,0.473,0.6s0.477-0.268,0.477-0.6V1.457h-0.949V25.162z"/>
	<path fill="#231F20" d="M151.923,25.162V1.457h-0.949v23.705c0,0.332,0.21,0.6,0.477,0.6
		C151.708,25.762,151.923,25.494,151.923,25.162z"/>
	<path fill="#231F20" d="M156.884,25.762c0.257,0,0.468-0.268,0.468-0.6V1.457h-0.95v23.705
		C156.403,25.494,156.622,25.762,156.884,25.762z"/>
	<path fill="#231F20" d="M161.841,40.63c0,0.332,0.206,0.594,0.468,0.594c0.262,0,0.477-0.262,0.477-0.594V1.457h-0.945V40.63z"/>
	<path fill="#231F20" d="M167.266,25.162c0,0.332,0.215,0.6,0.477,0.6c0.262,0,0.472-0.268,0.472-0.6V1.457h-0.949V25.162z"/>
	<path fill="#231F20" d="M172.695,25.173c0,0.321,0.215,0.589,0.481,0.589c0.258,0,0.468-0.268,0.468-0.589V1.457h-0.949V25.173z"/>
	<path fill="#231F20" d="M178.128,25.173c0,0.321,0.21,0.589,0.472,0.589c0.262,0,0.477-0.268,0.477-0.589V1.457h-0.949V25.173z"/>
	<path fill="#231F20" d="M183.558,25.173c0,0.321,0.21,0.589,0.472,0.589c0.267,0,0.473-0.268,0.473-0.589V1.457h-0.945V25.173z"/>
	<path fill="#231F20" d="M188.987,33.458c0,0.332,0.214,0.594,0.477,0.594c0.258,0,0.473-0.263,0.473-0.594V1.457h-0.949V33.458z"/>
	<path fill="#231F20" d="M194.42,25.162c0,0.332,0.215,0.6,0.473,0.6c0.262,0,0.473-0.268,0.473-0.6V1.457h-0.945V25.162z"/>
	<path fill="#231F20" d="M199.832,25.157c0,0.332,0.215,0.604,0.485,0.604c0.262,0,0.481-0.273,0.481-0.604v-23.7h-0.967V25.157z"/>
	<path fill="#231F20" d="M205.742,25.762c0.271,0,0.485-0.273,0.485-0.604v-23.7h-0.967v23.7
		C205.261,25.489,205.476,25.762,205.742,25.762z"/>
	<path fill="#231F20" d="M211.163,25.762c0.266,0,0.477-0.268,0.477-0.589V1.457h-0.949v23.716
		C210.69,25.494,210.905,25.762,211.163,25.762z"/>
	<path fill="#231F20" d="M216.124,40.63c0,0.332,0.21,0.594,0.468,0.594c0.267,0,0.481-0.262,0.481-0.594V1.457h-0.949V40.63z"/>
	<path fill="#231F20" d="M221.553,25.157c0,0.332,0.215,0.604,0.477,0.604c0.271,0,0.485-0.273,0.485-0.604v-23.7h-0.962V25.157z"/>
	<path fill="#231F20" d="M226.982,25.157c0,0.332,0.215,0.604,0.485,0.604c0.266,0,0.477-0.273,0.477-0.604v-23.7h-0.962V25.157z"/>
	<path fill="#231F20" d="M232.416,25.162c0,0.332,0.21,0.6,0.468,0.6c0.267,0,0.481-0.268,0.481-0.6V1.457h-0.949V25.162z"/>
	<path fill="#231F20" d="M237.841,25.162c0,0.332,0.21,0.6,0.477,0.6c0.258,0,0.473-0.268,0.473-0.6V1.457h-0.949V25.162z"/>
	<path fill="#231F20" d="M243.27,33.458c0,0.332,0.215,0.594,0.477,0.594c0.263,0,0.473-0.263,0.473-0.594V1.457h-0.949V33.458z"/>
	<path fill="#231F20" d="M248.703,25.162c0,0.332,0.21,0.6,0.468,0.6c0.267,0,0.481-0.268,0.481-0.6V1.457h-0.949V25.162z"/>
	<path fill="#231F20" d="M254.132,25.162c0,0.332,0.211,0.6,0.478,0.6c0.262,0,0.472-0.268,0.472-0.6V1.457h-0.949V25.162z"/>
	<path fill="#231F20" d="M260.511,25.162V1.457h-0.949v23.705c0,0.332,0.215,0.6,0.473,0.6
		C260.296,25.762,260.511,25.494,260.511,25.162z"/>
	<path fill="#231F20" d="M265.468,25.762c0.262,0,0.477-0.268,0.477-0.6V1.457h-0.949v23.705
		C264.995,25.494,265.205,25.762,265.468,25.762z"/>
	<path fill="#231F20" d="M270.42,40.63c0,0.332,0.21,0.594,0.477,0.594c0.258,0,0.473-0.262,0.473-0.594V1.457h-0.949V40.63z"/>
	<path fill="#231F20" d="M275.849,25.162c0,0.332,0.22,0.6,0.477,0.6c0.263,0,0.473-0.268,0.473-0.6V1.457h-0.949V25.162z"/>
	<path fill="#231F20" d="M281.287,25.162c0,0.332,0.206,0.6,0.468,0.6s0.477-0.268,0.477-0.6V1.457h-0.944V25.162z"/>
	<path fill="#231F20" d="M286.712,25.162c0,0.332,0.21,0.6,0.477,0.6c0.262,0,0.473-0.268,0.473-0.6V1.457h-0.949V25.162z"/>
	<path fill="#231F20" d="M292.141,25.162c0,0.332,0.215,0.6,0.473,0.6c0.267,0,0.477-0.268,0.477-0.6V1.457h-0.949V25.162z"/>
	<path fill="#231F20" d="M297.574,33.458c0,0.332,0.21,0.594,0.473,0.594c0.262,0,0.477-0.263,0.477-0.594V1.457h-0.949V33.458z"/>
	<path fill="#231F20" d="M302.999,25.162c0,0.332,0.215,0.6,0.477,0.6s0.473-0.268,0.473-0.6V1.457h-0.949V25.162z"/>
	<path fill="#231F20" d="M308.433,25.162c0,0.332,0.215,0.6,0.477,0.6c0.258,0,0.468-0.268,0.468-0.6V1.457h-0.944V25.162z"/>
	<path fill="#231F20" d="M314.811,25.162V1.457h-0.944v23.705c0,0.332,0.206,0.6,0.473,0.6
		C314.596,25.762,314.811,25.494,314.811,25.162z"/>
	<path fill="#231F20" d="M319.768,25.762c0.262,0,0.473-0.268,0.473-0.6V1.457h-0.949v23.705
		C319.291,25.494,319.506,25.762,319.768,25.762z"/>
	<path fill="#231F20" d="M324.725,40.63c0,0.332,0.21,0.594,0.468,0.594c0.267,0,0.481-0.262,0.481-0.594V1.457h-0.949V40.63z"/>
	<path fill="#231F20" d="M330.153,25.162c0,0.332,0.215,0.6,0.473,0.6c0.267,0,0.477-0.268,0.477-0.6V1.457h-0.949V25.162z"/>
	<path fill="#231F20" d="M335.587,25.173c0,0.321,0.21,0.589,0.468,0.589c0.267,0,0.473-0.268,0.473-0.589V1.457h-0.94V25.173z"/>
	<path fill="#231F20" d="M341.012,25.162c0,0.332,0.215,0.6,0.477,0.6c0.258,0,0.473-0.268,0.473-0.6V1.457h-0.949V25.162z"/>
	<path fill="#231F20" d="M346.445,25.173c0,0.321,0.215,0.589,0.473,0.589c0.262,0,0.477-0.268,0.477-0.589V1.457h-0.949V25.173z"/>
	<path fill="#231F20" d="M351.879,33.458c0,0.332,0.206,0.594,0.468,0.594s0.481-0.263,0.481-0.594V1.457h-0.949V33.458z"/>
	<path fill="#231F20" d="M357.286,25.157c0,0.332,0.219,0.604,0.481,0.604c0.267,0,0.485-0.273,0.485-0.604v-23.7h-0.967V25.157z"/>
	<path fill="#231F20" d="M362.716,25.173c0,0.321,0.219,0.589,0.472,0.589c0.267,0,0.478-0.268,0.478-0.589V1.457h-0.949V25.173z"/>
	<path fill="#231F20" d="M368.145,25.162c0,0.332,0.215,0.6,0.473,0.6c0.267,0,0.473-0.268,0.473-0.6V1.457h-0.945V25.162z"/>
	<path fill="#231F20" d="M374.055,25.762c0.254,0,0.473-0.268,0.473-0.589V1.457h-0.949v23.716
		C373.578,25.494,373.788,25.762,374.055,25.762z"/>
	<path fill="#231F20" d="M379.007,40.63c0,0.332,0.215,0.594,0.473,0.594c0.267,0,0.477-0.262,0.477-0.594V1.457h-0.949V40.63z"/>
	<path fill="#231F20" d="M384.44,25.173c0,0.321,0.206,0.589,0.469,0.589c0.266,0,0.473-0.268,0.473-0.589V1.457h-0.941V25.173z"/>
	<path fill="#231F20" d="M389.865,25.162c0,0.332,0.211,0.6,0.478,0.6c0.257,0,0.472-0.268,0.472-0.6V1.457h-0.949V25.162z"/>
	<path fill="#231F20" d="M395.295,25.162c0,0.332,0.219,0.6,0.477,0.6c0.262,0,0.473-0.268,0.473-0.6V1.457h-0.949V25.162z"/>
	<path fill="#231F20" d="M400.732,25.162c0,0.332,0.206,0.6,0.473,0.6c0.258,0,0.473-0.268,0.473-0.6V1.457h-0.945V25.162z"/>
</g>
</svg>
