<?xml version="1.0" encoding="utf-8"?>
<!-- Generator: Adobe Illustrator 16.0.0, SVG Export Plug-In . SVG Version: 6.00 Build 0)  -->
<!DOCTYPE svg PUBLIC "-//W3C//DTD SVG 1.1//EN" "http://www.w3.org/Graphics/SVG/1.1/DTD/svg11.dtd">
<svg version="1.1" id="Layer_1" xmlns="http://www.w3.org/2000/svg" xmlns:xlink="http://www.w3.org/1999/xlink" x="0px" y="0px"
	 width="44.025px" height="112.988px" viewBox="0 0 44.025 112.988" enable-background="new 0 0 44.025 112.988"
	 xml:space="preserve">
<g id="body">
	<path id="colour_3_" fill="#BCE50E" stroke="#1D1D1B" d="M24.084,0.958c7.322-0.742,10.533-0.386,13.82-0.273
		c0.234,4.433-0.455,47.208,1.086,53.104c1.541,5.896,8.281,14.747,1.707,20.706c-1.689,1.53-3.855,3.24-6.459,5.523
		c-7.539,6.608-11.558,24.271-13.667,26.333c-3.667,5.667-11.359,8.289-17.064,4.024c-3.315-2.479-4.434-9.749-0.526-16.973
		c5.283-8.566,17.454-30.949,16.925-36.053c-0.531-5.102-2.681-18.427-3.333-23.667c-0.779-6.241-4.694-22.628-3.622-30.25
		C12.949,3.434,17.488,1.625,24.084,0.958z"/>
</g>
<g id="patch_1">
	<path id="colour" fill="#00AFFC" d="M14.071,16.601c0,0-1.138-7.961-1.166-8.917c-0.03-1.016,0.249-4.125,0.249-4.125
		c4.25-1.375,5.438-1.985,12.001-2.542C32.53,0.393,37.6,0.923,37.779,0.934l-0.208,11.583c-1.25,0.333-2.98-0.651-10.667,0.542
		C20.435,14.065,15.501,16.347,14.071,16.601z"/>
</g>
<g id="patch_2">
	<path id="colour_1_" fill="#00AFFC" d="M3.237,94.851c0,0,2.687,5.771,7.167,6.333c6,0.75,12.417-0.417,12.417-0.417
		s-0.915,3.3-3,6.084c-1.602,2.14-3.911,3.749-6.917,4.708c-6.172,1.971-11.529-1.878-11.75-7.5
		C0.904,97.684,3.237,94.851,3.237,94.851z"/>
</g>
<g id="patch_3">
	<path id="colour_2_" fill="#00AFFC" d="M39.029,56.559c0,0-5.5,4-6.25,11.25s2.375,10.875,2.375,10.875s2.34-1.764,4.75-4.125
		c1.955-1.916,3.125-3.236,3.125-5.75c0-2.601-0.511-3.922-1.375-6.25C40.358,59.067,39.029,56.559,39.029,56.559z"/>
</g>
<path opacity="0.11" enable-background="new    " d="M31.404,1.934c-0.5-2.5,3.213-1.362,6.5-1.25
	c0.234,4.433-0.455,47.208,1.086,53.104c1.541,5.896,8.281,14.747,1.707,20.706c-1.689,1.53-3.855,3.24-6.459,5.523
	c-7.539,6.608-11.558,24.271-13.667,26.333c-2.628,4.062-10.867,6.321-12.588,5.809c-0.682-0.204,0.501-0.842,2.171-1.975
	c8.396-5.691,9.5-12,18-25.25c3.041-4.933,9.319-10.69,11.453-16.513c1.571-4.291-0.479-9.071-0.703-11.237
	c0.978,9.389-1.833-10.332-4.25-29.75C33.875,21.193,32.283,6.33,31.404,1.934z"/>
</svg>
