<?xml version="1.0" encoding="iso-8859-1"?>
<!-- Generator: Adobe Illustrator 21.1.0, SVG Export Plug-In . SVG Version: 6.00 Build 0)  -->
<svg version="1.1" id="cupboard" xmlns="http://www.w3.org/2000/svg" xmlns:xlink="http://www.w3.org/1999/xlink" x="0px" y="0px"
	 viewBox="0 0 135.316 202.12" style="enable-background:new 0 0 135.316 202.12;" xml:space="preserve">
<linearGradient id="SVGID_1_" gradientUnits="userSpaceOnUse" x1="10.5711" y1="180.0814" x2="125.2985" y2="181.3629">
	<stop  offset="0" style="stop-color:#4B4747"/>
	<stop  offset="1" style="stop-color:#D9D9DB"/>
</linearGradient>
<path style="fill-rule:evenodd;clip-rule:evenodd;fill:url(#SVGID_1_);stroke:#000000;" d="M12.644,172.443l110.345-0.197
	c1.589,1.258,2.407,2.58,2.407,3.903c0,7.533-25.734,13.648-57.459,13.648c-31.726,0-57.455-6.115-57.455-13.648
	C10.482,174.898,11.214,173.645,12.644,172.443z"/>
<linearGradient id="SVGID_2_" gradientUnits="userSpaceOnUse" x1="10.5742" y1="184.5771" x2="125.285" y2="185.9484">
	<stop  offset="0" style="stop-color:#777576"/>
	<stop  offset="1" style="stop-color:#EEEFF0"/>
</linearGradient>
<path style="fill-rule:evenodd;clip-rule:evenodd;fill:url(#SVGID_2_);stroke:#000000;" d="M125.396,176.194v5.63
	c0,7.278-25.734,13.176-57.459,13.176c-31.726,0-57.455-5.897-57.455-13.176v-5.63c0,7.278,25.729,13.177,57.455,13.177
	C99.662,189.371,125.396,183.473,125.396,176.194z"/>
<linearGradient id="SVGID_3_" gradientUnits="userSpaceOnUse" x1="10.5114" y1="183.4444" x2="125.4193" y2="182.9501">
	<stop  offset="0" style="stop-color:#C8C6C8"/>
	<stop  offset="1" style="stop-color:#FFFFFF"/>
</linearGradient>
<path style="fill-rule:evenodd;clip-rule:evenodd;fill:url(#SVGID_3_);" d="M10.487,176.508c-0.027-0.249,0.044-0.192,0.065,0
	c0,3.298,6.728,6.741,16.862,9.067c10.364,2.377,24.692,3.488,40.522,3.488c31.436,0,57.312-5.744,57.312-12.556
	c0.006-0.255,0.143-0.249,0.143,0c0,7.616-25.435,13.79-57.454,13.79c-15.895,0-30.295-1.477-40.725-3.873
	C16.555,183.983,10.487,180.482,10.487,176.508z"/>
<g>
	<path style="fill-rule:evenodd;clip-rule:evenodd;fill:#00C5FF;" d="M124.475,22.062c-1.229,4.02-25.643,8.868-56.789,8.956
		c-30.654-0.17-46.151-2.955-56.095-7.427l0.055,150.413c-0.065,5.45,25.315,12.238,56.084,12.03
		c18.932,0.787,55.397-5.073,55.871-12.238L124.475,22.062z"/>
	<path d="M124.521,22.08c-0.201,0.597-0.711,1.002-1.193,1.351c-0.498,0.346-1.034,0.627-1.578,0.886
		c-1.092,0.513-2.229,0.919-3.372,1.289c-2.294,0.729-4.634,1.297-6.985,1.796c-4.707,0.987-9.466,1.705-14.24,2.263
		c-9.554,1.084-19.167,1.588-28.779,1.669c-9.614-0.012-19.229-0.257-28.816-1.119c-4.791-0.441-9.574-1.046-14.307-1.986
		c-4.727-0.936-9.415-2.245-13.834-4.247l0.603-0.39l-0.225,104.968l0.07,26.242l0.035,13.121l0.009,3.28l0.005,1.64
		c0.02,0.538-0.041,1.125,0.056,1.572c0.263,0.931,1.139,1.67,1.993,2.27c0.882,0.604,1.845,1.103,2.827,1.554
		c3.963,1.767,8.213,2.871,12.462,3.814c4.263,0.921,8.576,1.609,12.907,2.14c8.675,1.069,17.384,1.441,26.15,1.412
		c8.701,0.228,17.437-0.566,26.068-1.786c4.315-0.631,8.613-1.402,12.853-2.398c4.218-1.026,8.473-2.169,12.301-4.114
		c0.939-0.499,1.855-1.062,2.588-1.768c0.363-0.35,0.675-0.742,0.851-1.16c0.087-0.198,0.145-0.443,0.152-0.609l0.004-0.82
		l0.035-6.561l0.069-13.12l0.147-26.242l0.482-52.481l0.245-26.241l0.32-26.24L124.521,22.08z M124.524,22.062l0.018,26.243
		l-0.057,26.241l-0.122,52.484l-0.156,26.241l-0.081,13.121l-0.041,6.561l-0.005,0.82c-0.018,0.381-0.104,0.672-0.229,0.977
		c-0.253,0.593-0.648,1.066-1.067,1.474c-0.85,0.812-1.822,1.398-2.81,1.924c-3.99,2.02-8.267,3.15-12.528,4.186
		c-4.276,1.001-8.598,1.773-12.937,2.402c-8.681,1.218-17.438,2.008-26.233,1.77c-8.725,0.021-17.525-0.445-26.212-1.565
		c-4.347-0.561-8.676-1.281-12.958-2.235c-4.271-0.98-8.535-2.113-12.561-3.939c-1-0.467-1.983-0.983-2.904-1.622
		c-0.887-0.651-1.844-1.39-2.2-2.605c-0.122-0.627-0.04-1.146-0.063-1.698l0.004-1.64l0.006-3.28l0.025-13.121l0.052-26.242
		L11.163,23.591c-0.001-0.235,0.19-0.427,0.426-0.428c0.061,0,0.124,0.015,0.178,0.038c4.351,1.936,8.979,3.204,13.655,4.176
		c4.686,0.957,9.44,1.584,14.209,2.049c9.542,0.91,19.148,1.207,28.738,1.269c9.593-0.028,19.191-0.481,28.729-1.512
		c4.769-0.515,9.528-1.148,14.234-2.073c2.352-0.466,4.692-0.999,6.985-1.694c1.144-0.354,2.279-0.741,3.369-1.235
		c0.542-0.248,1.076-0.521,1.57-0.853c0.479-0.337,0.976-0.723,1.17-1.285c0.01-0.025,0.037-0.039,0.063-0.03
		C124.512,22.02,124.524,22.041,124.524,22.062z"/>
</g>
<ellipse style="fill-rule:evenodd;clip-rule:evenodd;fill:#D2D3D4;stroke:#000000;" cx="67.493" cy="17.369" rx="57.457" ry="10.249"/>
<linearGradient id="SVGID_4_" gradientUnits="userSpaceOnUse" x1="10.0049" y1="23.5339" x2="124.746" y2="24.7652">
	<stop  offset="0" style="stop-color:#777576"/>
	<stop  offset="1" style="stop-color:#EEEFF0"/>
</linearGradient>
<path style="fill-rule:evenodd;clip-rule:evenodd;fill:url(#SVGID_4_);stroke:#000000;" d="M124.829,17.237v4.319
	c0,5.576-25.729,10.103-57.454,10.103c-31.731,0-57.455-4.526-57.455-10.103v-4.319c0,5.581,25.724,10.108,57.455,10.108
	C99.1,27.346,124.829,22.818,124.829,17.237z"/>
<linearGradient id="SVGID_5_" gradientUnits="userSpaceOnUse" x1="9.9354" y1="22.7425" x2="124.8427" y2="22.2842">
	<stop  offset="0" style="stop-color:#C8C6C8"/>
	<stop  offset="1" style="stop-color:#FFFFFF"/>
</linearGradient>
<path style="fill-rule:evenodd;clip-rule:evenodd;fill:url(#SVGID_5_);" d="M9.92,17.402c-0.027-0.191,0.044-0.147,0.071,0
	c0,2.533,6.721,5.17,16.855,6.951c10.364,1.823,24.693,2.681,40.528,2.681c31.435,0,57.307-4.314,57.307-9.632
	c0.005-0.197,0.142-0.191,0.142,0c0,5.842-25.435,10.576-57.448,10.576c-15.896,0-30.301-1.136-40.73-2.971
	C15.986,23.136,9.92,20.449,9.92,17.402z"/>
<linearGradient id="SVGID_6_" gradientUnits="userSpaceOnUse" x1="121.0348" y1="17.8319" x2="14.5732" y2="17.1202">
	<stop  offset="0" style="stop-color:#777576"/>
	<stop  offset="1" style="stop-color:#AEAEAF"/>
</linearGradient>
<ellipse style="fill-rule:evenodd;clip-rule:evenodd;fill:url(#SVGID_6_);" cx="67.373" cy="17.473" rx="54.383" ry="8.338"/>
<ellipse style="fill-rule:evenodd;clip-rule:evenodd;fill:none;" cx="67.373" cy="17.473" rx="54.383" ry="8.338"/>
<path style="fill-rule:evenodd;clip-rule:evenodd;" d="M67.375,8.741c14.923,0,28.443,0.934,38.233,2.446
	c9.588,1.481,15.655,3.582,16.124,5.99c-0.546-1.965-6.432-3.8-15.671-5.209c-10.487-1.597-24.226-2.436-38.686-2.436
	c-15.115,0-28.793,0.929-38.693,2.436c-9.239,1.409-15.125,3.244-15.671,5.209c0.47-2.408,6.541-4.51,16.124-5.99
	C38.926,9.675,52.445,8.741,67.375,8.741z"/>
<linearGradient id="SVGID_7_" gradientUnits="userSpaceOnUse" x1="33.0855" y1="18.0596" x2="113.1361" y2="20.0259">
	<stop  offset="0" style="stop-color:#D9D9DB"/>
	<stop  offset="1" style="stop-color:#888587"/>
</linearGradient>
<path style="fill-rule:evenodd;clip-rule:evenodd;fill:url(#SVGID_7_);" d="M67.375,25.926c-27.216,0-49.767-3.068-53.759-7.066
	l-0.07-0.087l0.377-0.268c6.061-3.795,27.504-6.612,53.025-6.635c26.467-0.021,48.587,2.981,53.726,6.979l0.229,0.201l-0.252,0.219
	C115.579,23.063,93.649,25.926,67.375,25.926z"/>
<linearGradient id="SVGID_8_" gradientUnits="userSpaceOnUse" x1="34.0959" y1="18.6247" x2="117.6442" y2="18.7016">
	<stop  offset="0" style="stop-color:#EEEFF0"/>
	<stop  offset="1" style="stop-color:#AEAEAF"/>
</linearGradient>
<path style="fill-rule:evenodd;clip-rule:evenodd;fill:url(#SVGID_8_);stroke:#000000;stroke-width:0.25;" d="M67.375,25.926
	c-27.216,0-49.767-3.068-53.759-7.066l-0.295-0.36l0.055-0.049c5.09-4.013,27.171-7.044,53.639-7.065
	c26.467-0.018,48.586,2.981,53.725,6.983l0.459,0.404l-0.071,0.087C117.142,22.858,94.584,25.926,67.375,25.926z"/>
<path style="fill-rule:evenodd;clip-rule:evenodd;fill:#959899;" d="M110.136,22.736l-0.76-0.529
	c-2.758-2.305-2.233-6.044-9.19-9.048c4.63,0.677,8.513,1.229,11.559,1.917c4.872,1.233,7.81,2.402,9.163,3.544l0.241,0.218
	l-0.022,0.021c-1.376,1.376-4.958,2.648-10.179,3.719L110.136,22.736z"/>
<linearGradient id="SVGID_9_" gradientUnits="userSpaceOnUse" x1="85.8684" y1="20.1961" x2="38.2501" y2="20.1521">
	<stop  offset="0" style="stop-color:#EEEFF0"/>
	<stop  offset="1" style="stop-color:#AEAEAF"/>
</linearGradient>
<path style="fill-rule:evenodd;clip-rule:evenodd;fill:url(#SVGID_9_);" d="M67.102,25.188c-17.238,0.011-31.239-2.223-31.261-4.985
	c-0.017-2.769,13.962-5.023,31.201-5.034c17.238-0.012,31.244,2.223,31.261,4.985C98.319,22.922,84.34,25.178,67.102,25.188z"/>
<path style="fill-rule:evenodd;clip-rule:evenodd;fill:#D2D3D4;" d="M67.102,24.807c-15.923,0.011-28.864-2.048-28.88-4.604
	c-0.017-2.556,12.897-4.642,28.82-4.652c15.928-0.011,28.868,2.047,28.885,4.604C95.943,22.709,83.03,24.795,67.102,24.807z"/>
<linearGradient id="SVGID_10_" gradientUnits="userSpaceOnUse" x1="94.2731" y1="18.5908" x2="25.3627" y2="18.527">
	<stop  offset="0" style="stop-color:#EEEFF0"/>
	<stop  offset="1" style="stop-color:#AEAEAF"/>
</linearGradient>
<path style="fill-rule:evenodd;clip-rule:evenodd;fill:url(#SVGID_10_);" d="M100.192,24.233l0.359-0.07
	c5.204-1.125,8.284-2.513,8.272-4.014c0-0.464-0.295-0.912-0.856-1.349c-3.915-3.047-20.772-5.335-40.938-5.318
	c-23.043,0.016-41.728,3.03-41.707,6.727c0.011,1.388,2.649,2.676,7.159,3.741l0.344,0.076l-0.044-0.006
	c-2.685-0.338-5.154-0.715-7.371-1.13l-0.596-0.114l-0.18-0.071c-1.78-0.775-2.752-1.616-2.758-2.49
	c-0.027-4.002,20.204-7.268,45.147-7.284c21.831-0.017,40.079,2.458,44.316,5.755c0.606,0.47,0.923,0.961,0.929,1.458
	c0.005,1.005-1.256,1.955-3.539,2.823l-0.163,0.061l-0.945,0.169c-1.752,0.295-3.647,0.573-5.662,0.824L100.192,24.233z"/>
<path style="fill-rule:evenodd;clip-rule:evenodd;fill:none;stroke:#2C2623;stroke-width:3;stroke-linecap:round;" d="M13.546,14.12
	"/>
<path style="fill:#BBEDE0;" d="M31.614,93.189v73.006c0,0,14.392,4.572,39.885,4c31.001-0.695,41.075-4,41.075-4V74.021
	C111.001,74.393,32.602,92.955,31.614,93.189z"/>
<g>
	<path style="fill:#00C5FF;" d="M90.303,149.561c0,0.005-1.944,0.033-1.996,0.029l-0.023,0.562l-0.011,2.385h0.028
		c0.003,0.003,2.228-0.033,2.29-0.038l-0.025-1.628c0,0,0.028-1.146,0.034-1.32L90.303,149.561z M93.723,149.499
		c-0.567-0.021-1.316-0.008-2.219,0.021c-0.006,0.181-0.057,1.344-0.057,1.344l-0.004,1.607c0.844-0.029,1.771-0.05,2.301-0.029
		l-0.037-2.365L93.723,149.499z M87.244,149.564l-2.129,0.005l-0.026,2.946c0.639-0.011,1.478-0.014,2.167-0.008l-0.027-2.35
		L87.244,149.564z M82.879,149.618L82.879,149.618l-1.143,0.005l-0.031,0.555l-0.033,2.388l1.205-0.005v-0.002l1.05-0.006
		l-0.023-2.935C83.74,149.618,83.303,149.618,82.879,149.618z M104.681,149.468l-0.031,0.558l-0.033,2.388l1.198-0.005l0.013-2.946
		L104.681,149.468z M101.306,149.413c-0.004,0.036-0.047,0.899-0.047,0.899l-0.017,2.043c0.703,0.012,2.363,0.061,2.363,0.061
		l-0.014-2.388l0.017-0.554C103.612,149.475,102.269,149.429,101.306,149.413z M97.048,149.561
		c-0.745,0.042-1.525,0.033-2.091-0.019l-0.021,0.451l-0.005,2.498l2.148,0.019l-0.04-2.514L97.048,149.561z M98.116,149.475
		l-0.028,2.975c0.204-0.023,1.578-0.099,2.314-0.099l-0.025-2.033c0,0,0.025-0.871,0.026-0.912
		C99.572,149.405,98.154,149.471,98.116,149.475z M65.401,149.351l-0.039,0.56l-0.067,2.384l0.031,0.003
		c0,0,2.216,0.025,2.278,0.025l0.023-1.628c0,0,0.065-1.146,0.073-1.319h-0.296C67.405,149.375,65.452,149.355,65.401,149.351z
		 M62.129,152.224c0.637-0.003,1.472,0.005,2.157,0.021l0.019-2.355l0.028-0.593l-2.138-0.021L62.129,152.224z M58.797,149.289
		l-0.033,0.555l-0.035,2.388l1.196,0.013v-0.003l1.045,0.006l0.003-2.933C60.809,149.312,58.797,149.289,58.797,149.289z
		 M68.512,150.715l-0.059,1.604c0.843,0,1.769,0.009,2.295,0.048l0.051-2.366l0.034-0.575c-0.567-0.038-1.315-0.051-2.222-0.054
		C68.598,149.553,68.512,150.715,68.512,150.715z M72.031,149.955l-0.099,2.499l2.155,0.073l0.038-2.515l0.023-0.432
		c-0.744,0.021-1.521-0.013-2.082-0.074L72.031,149.955z M78.383,149.52c-0.002,0.038-0.059,0.9-0.059,0.9l-0.045,2.042
		c0.705,0.025,2.378,0.107,2.378,0.107l-0.007-2.389l0.021-0.555C80.671,149.626,79.34,149.553,78.383,149.52z M75.218,149.52
		l-0.116,2.972c0.204-0.017,1.592-0.065,2.331-0.052l0.013-2.031c0,0,0.041-0.871,0.043-0.915
		C76.664,149.479,75.256,149.515,75.218,149.52z M41.323,149.479l-2.142,0.066l0.074,2.946c0.633-0.037,1.469-0.058,2.154-0.07
		l-0.088-2.35L41.323,149.479z M44.693,149.395l-0.296,0.013c0,0-1.954,0.062-2.004,0.066l-0.015,0.564l0.04,2.383h0.031
		c-0.004-0.005,2.212-0.073,2.276-0.078l-0.051-1.625C44.676,150.718,44.691,149.568,44.693,149.395z M47.825,149.312
		c-0.569-0.018-1.318,0.003-2.224,0.039c-0.005,0.182-0.04,1.349-0.04,1.349l0.014,1.603c0.843-0.037,1.767-0.07,2.295-0.045
		l-0.057-2.367L47.825,149.312z M36.925,149.68l0.143,2.934l1.035-0.044l-0.14-2.931C37.799,149.644,37.357,149.659,36.925,149.68z
		 M55.421,149.221c-0.001,0.036-0.047,0.898-0.047,0.898l-0.019,2.043c0.701,0.016,2.363,0.066,2.363,0.066l-0.012-2.388l0.02-0.555
		C57.727,149.286,56.388,149.236,55.421,149.221z M52.234,149.28l-0.032,2.973c0.2-0.023,1.577-0.095,2.312-0.095l-0.021-2.034
		c0,0,0.026-0.872,0.029-0.915C53.69,149.209,52.27,149.273,52.234,149.28z M51.161,149.367c-0.747,0.041-1.53,0.033-2.097-0.017
		l-0.02,0.452l0.008,2.499l2.142,0.013l-0.042-2.512L51.161,149.367z"/>
	<path style="fill:#00C5FF;" d="M73.562,156.863c-0.611-0.02-1.417-0.012-2.388,0.012c-0.011,0.179-0.075,1.342-0.075,1.342
		l-0.016,1.607c0.916-0.025,1.925-0.039,2.498-0.018l-0.037-2.362L73.562,156.863z M69.877,156.909
		c-0.001,0.008-2.101,0.026-2.15,0.008l-0.038,0.56l-0.053,2.383l0.033,0.004c0.001,0.016,2.42-0.008,2.487-0.016l-0.013-1.624
		c0,0,0.046-1.15,0.052-1.322L69.877,156.909z M64.174,159.754c0.693,0.007,1.608,0.028,2.355,0.052l0.023-2.352l0.028-0.591
		l-2.287-0.05L64.174,159.754z M60.637,156.764l-0.051,0.553l-0.114,2.388l1.292,0.036l0,0l1.141,0.021l0.082-2.93
		C62.809,156.826,60.637,156.764,60.637,156.764z M77.157,156.925c-0.807,0.041-1.651,0.038-2.262-0.013l-0.02,0.453l-0.002,2.498
		l2.325,0.008l-0.049-2.513L77.157,156.925z M85.423,156.785l-0.033,0.555l-0.036,2.388l1.294-0.008l0.021-2.942L85.423,156.785z
		 M84.262,156.792c0,0-1.457-0.043-2.504-0.056c-0.001,0.036-0.042,0.899-0.042,0.899l-0.003,2.043
		c0.758,0.013,2.551,0.055,2.551,0.055l-0.023-2.386L84.262,156.792z M80.782,156.732c-0.896,0.013-2.427,0.094-2.467,0.099
		l-0.024,2.974c0.222-0.022,1.714-0.116,2.512-0.126l-0.042-2.035C80.761,157.644,80.781,156.773,80.782,156.732z M45.332,156.634
		l-0.322,0.016c0-0.008-2.118,0.07-2.175,0.075l-0.014,0.562l0.044,2.384h0.032c-0.003-0.005,2.39-0.096,2.46-0.089l-0.049-1.625
		C45.309,157.957,45.328,156.806,45.332,156.634z M41.675,156.728l-2.322,0.096l0.099,2.941c0.685-0.037,1.582-0.081,2.322-0.091
		l-0.099-2.35V156.728z M36.896,156.995l0.2,2.93l1.111-0.065l-0.181-2.925C37.846,156.942,37.374,156.964,36.896,156.995z
		 M56.903,157.48l-0.067,2.043c0.755,0.039,2.547,0.148,2.547,0.148l0.054-2.389l0.039-0.555c0,0-1.452-0.094-2.5-0.148
		C56.971,156.619,56.903,157.48,56.903,157.48z M53.515,156.588l-0.086,2.972c0.218-0.017,1.706-0.07,2.498-0.058l0.021-2.033
		c0,0,0.047-0.873,0.051-0.914C55.097,156.543,53.556,156.585,53.515,156.588z M48.728,156.562c-0.615-0.023-1.43-0.004-2.409,0.032
		c-0.01,0.178-0.055,1.345-0.055,1.345l0.009,1.604c0.907-0.036,1.907-0.066,2.479-0.036l-0.039-2.364L48.728,156.562z
		 M50.074,156.614l-0.023,0.453l-0.021,2.495l2.31,0.033l-0.007-2.51l0.016-0.437C51.537,156.679,50.688,156.671,50.074,156.614z"/>
	<g>
		<g>
			<path style="fill:#00C5FF;" d="M42.643,144.227h-0.031l-0.016-2.383l0.021-0.564c0.052,0.005,2.124-0.041,2.124-0.02h0.316
				c-0.01,0.173-0.073,1.319-0.073,1.319l-0.016,1.626C44.903,144.181,42.643,144.223,42.643,144.227z M45.834,144.206l0.07-1.607
				c0,0,0.102-1.158,0.119-1.34c0.962,0,1.756,0.074,2.359,0.127l-0.062,0.577l-0.152,2.357
				C47.634,144.276,46.692,144.189,45.834,144.206z M39.391,144.339l-0.182-2.94l2.271-0.119l0.001,0.597l0.101,2.351
				C40.882,144.234,40.032,144.284,39.391,144.339z M49.392,144.441l0.214-2.492l0.061-0.451c0.566,0.065,1.357,0.096,2.116,0.074
				l-0.028,0.436l-0.072,2.51L49.392,144.441z M52.763,144.484l0.106-2.97c0.039-0.005,1.471-0.042,2.31-0.02
				c0,0.041-0.008,0.912-0.008,0.912l0.065,2.031C54.451,144.424,52.98,144.469,52.763,144.484z M37.202,144.588l-0.409-2.909
				c0.49-0.062,0.939-0.107,1.122-0.124l0.309,2.916L37.202,144.588z M60.824,144.395l-1.236,0.024l0.039-2.388l0.036-0.555
				l1.2-0.028L60.824,144.395z M56.107,144.432l-0.018-2.046c0,0,0.03-0.863,0.033-0.901c1.012-0.003,2.417,0.018,2.417,0.018
				l-0.018,0.555l0.022,2.388C58.545,144.444,56.831,144.43,56.107,144.432z"/>
		</g>
	</g>
</g>
<path style="fill:#00C5FF;" d="M84.671,50.895C65.086,48.82,47.465,63.066,45.391,82.65c-2.073,19.585,12.172,37.206,31.757,39.279
	c19.585,2.074,37.206-12.171,39.28-31.756C118.501,70.589,104.256,52.968,84.671,50.895z M94.418,95.209
	c4.789,5.918,4.8,13.845,4.8,13.845s-7.752-1.672-12.533-7.594c-1.088-1.341-1.93-2.791-2.574-4.227
	c0.229,1.559,0.314,3.229,0.132,4.95c-0.802,7.572-6.396,13.182-6.396,13.182s-4.297-6.657-3.495-14.229
	c0.182-1.722,0.61-3.338,1.169-4.813c-0.938,1.267-2.068,2.509-3.41,3.593c-5.915,4.79-13.845,4.802-13.845,4.802
	s1.675-7.749,7.594-12.533c1.341-1.085,2.787-1.927,4.224-2.576c-1.556,0.23-3.228,0.315-4.943,0.133
	c-7.568-0.802-13.183-6.398-13.183-6.398s6.661-4.291,14.229-3.489c1.717,0.182,3.334,0.606,4.806,1.162
	c-1.268-0.935-2.505-2.059-3.589-3.406c-4.786-5.916-4.802-13.842-4.802-13.842s7.752,1.672,12.533,7.591
	c1.084,1.344,1.93,2.79,2.583,4.227c-0.241-1.556-0.318-3.23-0.137-4.947c0.802-7.568,6.398-13.182,6.398-13.182
	s4.295,6.66,3.493,14.229c-0.182,1.717-0.613,3.337-1.166,4.809c0.932-1.269,2.059-2.505,3.403-3.593
	c5.915-4.786,13.845-4.798,13.845-4.798s-1.671,7.748-7.593,12.53c-1.342,1.091-2.791,1.93-4.228,2.579
	c1.559-0.234,3.23-0.312,4.95-0.13c7.564,0.802,13.179,6.393,13.179,6.393s-6.661,4.297-14.226,3.495
	c-1.721-0.182-3.337-0.613-4.813-1.165C92.093,92.74,93.332,93.867,94.418,95.209z M91.894,77.529c0,0-4.163,0.008-7.472,2.426
	c0.229-4.091-2.021-7.594-2.021-7.594s-2.939,2.953-3.572,7.001c-2.729-3.058-6.799-3.938-6.799-3.938s0.005,4.163,2.426,7.476
	c-4.094-0.232-7.594,2.021-7.594,2.021s2.949,2.941,7.001,3.572c-3.06,2.725-3.936,6.795-3.936,6.795s4.161-0.005,7.472-2.426
	c-0.23,4.097,2.026,7.594,2.026,7.594s2.933-2.947,3.566-7.001c2.729,3.061,6.798,3.938,6.798,3.938s-0.004-4.164-2.426-7.47
	c4.09,0.232,7.591-2.027,7.591-2.027s-2.95-2.937-6.998-3.566C91.017,81.599,91.894,77.529,91.894,77.529z"/>
<path style="opacity:0.19;fill-rule:evenodd;clip-rule:evenodd;fill:#2C2623;" d="M115.77,27.089
	C37.91,58.601,56.899,146.451,45.002,174.333c-3.297,7.727-20.667,5.334-33.08,0.334l0.011-150.382L115.77,27.089z"/>
</svg>
