<?xml version="1.0" encoding="iso-8859-1"?>
<!-- Generator: Adobe Illustrator 21.1.0, SVG Export Plug-In . SVG Version: 6.00 Build 0)  -->
<svg version="1.1" id="cupboard" xmlns="http://www.w3.org/2000/svg" xmlns:xlink="http://www.w3.org/1999/xlink" x="0px" y="0px"
	 viewBox="0 0 100.373 293.063" style="enable-background:new 0 0 100.373 293.063;" xml:space="preserve">
<g>
	<path style="fill:#42A32B;" d="M95.24,112.826c0-20.943-16.182-34.268-25.7-41.881c-9.52-7.615-2.856-48.547-2.856-48.547
		L52.53,21.69l-0.017-0.244l-2.434,0.123l-2.434-0.123l-0.017,0.244l-14.153,0.709c0,0,6.663,40.932-2.856,48.547
		c-9.519,7.613-25.7,20.938-25.7,41.881c0,0-0.952,160.729,2.855,165.485c2.747,3.435,28.293,8.4,42.305,8.113
		c20.754-0.925,39.558-4.678,42.305-8.113C96.192,273.556,95.24,112.826,95.24,112.826z"/>
	<path d="M95.14,112.827c-0.015-4.193-0.692-8.378-2.026-12.349c-1.322-3.975-3.272-7.725-5.641-11.176
		c-4.729-6.951-11.091-12.573-17.689-17.72c-0.845-0.604-1.67-1.448-2.236-2.357c-0.595-0.912-1.048-1.896-1.423-2.899
		c-0.744-2.013-1.188-4.103-1.512-6.197c-0.627-4.196-0.774-8.432-0.752-12.649c0.031-4.221,0.261-8.434,0.608-12.635
		c0.351-4.204,0.808-8.386,1.448-12.571l0.727,0.901l-14.156-0.651c-0.426-0.02-0.762-0.356-0.791-0.771v-0.007l-0.018-0.244
		l0.876,0.778l-2.433,0.133l-0.078,0.001l-0.008-0.001l-2.434-0.112l0.898-0.797l-0.016,0.243c-0.028,0.438-0.38,0.776-0.807,0.799
		h-0.006c-4.718,0.247-9.433,0.531-14.151,0.743l0.835-1.034c0.818,5.389,1.407,10.773,1.804,16.195
		c0.378,5.417,0.574,10.861,0.26,16.316c-0.174,2.726-0.47,5.456-1.06,8.157c-0.623,2.67-1.434,5.438-3.376,7.687
		c-0.247,0.274-0.515,0.534-0.804,0.773l-0.805,0.641l-1.581,1.261c-1.05,0.845-2.088,1.7-3.111,2.572
		c-2.046,1.744-4.027,3.56-5.909,5.473c-3.756,3.824-7.114,8.066-9.648,12.787c-2.533,4.708-4.211,9.903-4.669,15.245
		c-0.243,2.659-0.148,5.371-0.199,8.075l-0.056,8.11L5.129,141.77l0.084,32.443l0.358,32.44c0.152,10.812,0.339,21.624,0.614,32.431
		c0.304,10.8,0.575,21.628,1.4,32.36c0.112,1.337,0.238,2.674,0.419,3.981c0.093,0.648,0.196,1.308,0.348,1.881
		c0.038,0.139,0.08,0.275,0.12,0.368c0.019,0.052,0.037,0.078,0.036,0.079c0.016,0.013-0.059-0.07-0.009-0.016l0.085,0.094
		c0.104,0.107,0.358,0.301,0.601,0.447c1.025,0.618,2.284,1.093,3.524,1.521c1.252,0.425,2.532,0.799,3.823,1.143
		c5.175,1.361,10.479,2.337,15.797,3.108c5.319,0.749,10.685,1.307,16.016,1.356c0.656,0.002,1.353,0.003,1.972-0.026l2.016-0.107
		l4.028-0.268c2.684-0.2,5.362-0.458,8.036-0.751c5.345-0.592,10.677-1.364,15.911-2.493c2.609-0.572,5.212-1.225,7.668-2.125
		c1.202-0.452,2.448-0.987,3.289-1.666c0.099-0.083,0.189-0.167,0.257-0.245c0.117-0.141-0.007,0.028,0.07-0.117
		c0.078-0.203,0.154-0.512,0.216-0.812c0.125-0.613,0.218-1.268,0.3-1.922c0.601-5.29,0.806-10.715,1.038-16.099
		c0.214-5.395,0.357-10.796,0.493-16.198C94.607,199.353,95.326,156.084,95.14,112.827z M95.339,112.825l0.465,64.892
		c0.068,10.816,0.126,21.633,0.117,32.45c-0.04,10.817-0.117,21.635-0.293,32.455c-0.107,5.41-0.254,10.82-0.453,16.232
		c-0.226,5.418-0.413,10.812-1.021,16.273c-0.086,0.687-0.18,1.372-0.322,2.084c-0.076,0.36-0.152,0.713-0.312,1.144
		c-0.043,0.169-0.324,0.646-0.45,0.743c-0.155,0.176-0.314,0.321-0.474,0.457c-1.28,1.014-2.584,1.513-3.894,2.026
		c-2.623,0.967-5.279,1.631-7.947,2.225c-5.338,1.161-10.723,1.95-16.124,2.559c-2.7,0.303-5.408,0.535-8.117,0.729l-4.066,0.25
		l-2.034,0.098c-0.731,0.029-1.389,0.023-2.084,0.018c-5.486-0.079-10.9-0.673-16.283-1.457c-5.378-0.809-10.725-1.816-16.004-3.233
		c-1.319-0.358-2.634-0.749-3.94-1.199c-1.308-0.465-2.602-0.939-3.895-1.72c-0.329-0.213-0.635-0.408-1-0.789l-0.084-0.095
		c-0.01-0.006-0.134-0.157-0.165-0.214c-0.089-0.144-0.148-0.269-0.19-0.375c-0.088-0.219-0.142-0.408-0.193-0.595
		c-0.188-0.736-0.286-1.417-0.383-2.106c-0.183-1.372-0.303-2.729-0.41-4.086c-0.401-5.425-0.57-10.834-0.732-16.245
		c-0.151-5.411-0.254-10.82-0.335-16.23c-0.158-10.818-0.228-21.636-0.265-32.452l0.013-32.447l0.054-32.446l0.009-16.223
		l0.01-8.112c0.036-2.7-0.076-5.406,0.157-8.138c0.455-5.444,2.069-10.778,4.592-15.623c2.518-4.855,5.881-9.228,9.64-13.165
		c1.883-1.971,3.866-3.839,5.911-5.631c1.022-0.896,2.058-1.774,3.103-2.639l1.572-1.29l0.773-0.632
		c0.229-0.195,0.445-0.41,0.647-0.641c1.611-1.897,2.396-4.512,2.942-7.071c0.529-2.592,0.784-5.258,0.917-7.929
		c0.265-5.348,0.063-10.735-0.339-16.101c-0.415-5.362-1.028-10.734-1.856-16.034c-0.077-0.489,0.257-0.947,0.745-1.024l0.09-0.01
		c4.717-0.261,9.438-0.449,14.155-0.675l-0.812,0.798l0.018-0.243l0.001-0.008c0.033-0.464,0.434-0.814,0.896-0.79l2.434,0.134
		h-0.086l2.435-0.113l0.007-0.001c0.454-0.021,0.84,0.327,0.869,0.779l0.016,0.244l-0.791-0.777l14.15,0.767
		c0.43,0.023,0.76,0.392,0.736,0.821c-0.002,0.025-0.005,0.056-0.009,0.08c-1.27,8.254-2.217,16.613-2.446,24.975
		c-0.099,4.178-0.03,8.372,0.515,12.501c0.28,2.06,0.68,4.108,1.36,6.054c0.688,1.935,1.659,3.786,3.337,4.991
		c6.525,5.282,12.812,11.058,17.555,18.057c2.362,3.489,4.304,7.279,5.609,11.291C94.697,104.396,95.352,108.616,95.339,112.825z"/>
</g>
<path style="fill:#4CBB33;" d="M84.263,116.48c0-20.49-12.248-33.527-19.454-40.977c-7.204-7.451-2.16-47.498-2.16-47.498
	l-10.716-0.691l-0.012-0.242l-1.842,0.119l-1.842-0.119l-0.013,0.242l-10.716,0.691c0,0,5.044,40.047-2.161,47.498
	c-7.205,7.449-19.453,20.486-19.453,40.977c0,0-0.723,158.569,2.159,163.226c2.081,3.359,21.418,5.322,32.025,5.043
	c10.606,0.279,29.943-1.684,32.023-5.043C84.985,275.05,84.263,116.48,84.263,116.48z"/>
<path style="fill:#42A32B;" d="M93.833,115.479c0-20.489-13-35.5-26.5-45c-8.477-5.965-2.98-43.027-2.98-43.027l-5.838-0.379
	c-0.991,9.443-3.547,38.996,2.487,45.336c7.206,7.568,19.453,20.816,19.453,41.635c0,0,0.723,159.306-2.158,164.036
	c-0.05,0.082,0.105,2.821,0.035,2.899c2.957-0.482,12.5-0.5,13-6.5C91.788,269.022,93.833,115.479,93.833,115.479z"/>
<path style="fill:#62C646;" d="M24.554,277.706c-2.882-4.656-2.159-160.226-2.159-160.226c0-20.49,12.248-33.527,19.453-40.977
	c7.205-7.451,2.161-47.498,2.161-47.498l8.82-0.569l-1.896-0.122l-0.012-0.242l-1.842,0.119l-1.842-0.119l-0.013,0.242l-7.716,0.691
	c0,0,2.044,40.047-5.161,47.498c-7.205,7.449-19.453,20.486-19.453,40.977c0,0-0.723,155.569,2.159,160.226
	c2.081,3.359,21.418,6.322,32.025,6.043c1.156,0.03,2.42,0.02,3.75-0.023C41.957,283.376,26.409,280.699,24.554,277.706z"/>
<g>
	<path style="fill:#005138;" d="M30.837,13c0,0-1.07-6,6.416-6.5C44.739,6,66.661,5,68.8,8.5C70.94,12,66.127,18,57.037,18
		S30.837,13,30.837,13z"/>
	<path style="fill:#1D1D1B;" d="M30.788,13.009c-0.339-1.784,0.176-3.84,1.641-5.111c1.45-1.27,3.417-1.708,5.227-1.809
		c3.62-0.272,7.244-0.473,10.875-0.489c3.631-0.005,7.261,0.164,10.883,0.397c1.81,0.148,3.622,0.291,5.419,0.607
		c0.896,0.168,1.793,0.362,2.665,0.697c0.433,0.175,0.865,0.388,1.239,0.734c0.381,0.384,0.561,0.823,0.712,1.295
		c0.279,0.946,0.149,1.967-0.197,2.857c-0.348,0.899-0.905,1.694-1.558,2.377c-1.309,1.37-2.977,2.335-4.734,2.96
		c-1.762,0.629-3.621,0.934-5.478,0.992c-1.857,0.051-3.681-0.141-5.493-0.361c-3.624-0.45-7.182-1.226-10.71-2.083
		c-3.524-0.876-7.014-1.878-10.456-3.024l-0.03-0.01L30.788,13.009z M30.886,12.96c7.04,1.646,14.105,3.244,21.23,4.172
		c3.56,0.41,7.184,0.661,10.535-0.496c1.655-0.563,3.235-1.412,4.476-2.627c1.209-1.186,2.179-2.865,1.792-4.538
		c-0.099-0.39-0.273-0.821-0.528-1.09c-0.279-0.284-0.663-0.505-1.061-0.684c-0.804-0.359-1.683-0.576-2.563-0.749
		c-1.767-0.344-3.57-0.524-5.375-0.608c-3.612-0.203-7.234-0.043-10.846,0.087c-3.613,0.13-7.23,0.238-10.842,0.427
		c-1.766,0.066-3.57,0.353-4.939,1.443C31.403,9.353,30.751,11.187,30.886,12.96z"/>
</g>
<g>
	<path style="fill:#4CBB33;" d="M47.833,12c-7.5,0-13.536-3.223-13.536-3.223s-4.934-1.184-4.145,6.312
		c0.789,7.496,0.592,11.441,0.592,11.441S36.833,31,48.833,30.5c10.508-0.438,17.629-2.406,19.011-3.59
		c1.381-1.182,1.184-9.664,1.184-9.664s0.395-7.299-0.789-8.482C67.054,7.58,61.333,12,47.833,12z"/>
	<path d="M47.832,12.1c-2.346,0.007-4.689-0.271-7.007-0.706c-1.159-0.219-2.311-0.497-3.446-0.837
		c-1.142-0.346-2.25-0.721-3.378-1.225l0.149,0.057c-0.646-0.08-1.429,0.075-1.923,0.442c-0.521,0.354-0.861,0.942-1.043,1.642
		c-0.195,0.693-0.251,1.476-0.227,2.268c0.027,0.781,0.126,1.605,0.204,2.48c0.164,1.712,0.254,3.43,0.279,5.152
		c0.016,1.727,0.008,3.434-0.119,5.188l-0.235-0.495c1.513,1.095,3.364,1.979,5.227,2.601c1.878,0.636,3.837,1.05,5.812,1.273
		c3.959,0.484,7.96,0.071,11.91-0.446c3.926-0.571,7.905-1.243,11.538-2.522c0.443-0.166,0.879-0.35,1.248-0.551
		c0.178-0.099,0.343-0.211,0.401-0.274c-0.06,0.062,0.077-0.134,0.12-0.293c0.257-0.743,0.375-1.746,0.457-2.694
		c0.141-1.93,0.192-3.93,0.156-5.886v-0.062l0.001-0.021c0.089-2.361,0.196-4.9-0.193-7.061c-0.049-0.251-0.121-0.503-0.185-0.632
		l-0.028-0.057c0.015,0.011-0.032-0.031,0.046,0.039l-0.042-0.039c-0.011-0.01,0.03,0.029,0.047,0.037
		c0.127,0.07,0.101,0.03,0.052,0.03c-0.294-0.028-0.945,0.127-1.498,0.265c-1.16,0.307-2.367,0.652-3.581,0.918
		c-2.43,0.552-4.893,0.936-7.358,1.135C52.753,12.009,50.293,12.124,47.832,12.1z M47.834,11.9c2.45-0.023,4.903-0.205,7.307-0.665
		c2.405-0.444,4.761-1.078,7.049-1.891l3.458-1.26c0.621-0.194,1.156-0.444,2.098-0.462c0.254,0.018,0.543,0.031,0.929,0.272
		l0.142,0.103l0.044,0.036c0.133,0.124,0.139,0.139,0.2,0.21c0.095,0.117,0.162,0.225,0.222,0.329
		c0.227,0.414,0.322,0.76,0.415,1.103c0.317,1.352,0.367,2.6,0.423,3.863c0.036,1.262,0.047,2.497-0.023,3.764l0.001-0.082
		c0.021,2.055,0,4.072-0.233,6.138c-0.132,1.041-0.243,2.054-0.666,3.203c-0.138,0.306-0.217,0.575-0.621,1.005
		c-0.308,0.28-0.58,0.424-0.842,0.565c-0.521,0.264-1.019,0.452-1.52,0.624c-1.995,0.672-3.992,1.068-6.005,1.381
		c-2.01,0.315-4.026,0.526-6.047,0.639c-4.026,0.226-8.093,0.312-12.111-0.221c-2.006-0.265-3.996-0.651-5.949-1.21
		c-1.953-0.586-3.864-1.222-5.7-2.347c-0.149-0.092-0.232-0.249-0.235-0.411l-0.001-0.085c-0.018-1.658-0.141-3.368-0.293-5.05
		l-0.486-5.061c-0.185-1.631-0.422-3.549,0.174-5.42c0.304-0.925,0.914-1.892,1.865-2.436c0.966-0.533,1.995-0.607,3.018-0.369
		l0.016,0.004c0.048,0.011,0.094,0.03,0.134,0.053c0.957,0.557,2.021,1.06,3.082,1.501c1.066,0.442,2.16,0.829,3.273,1.161
		C43.176,11.551,45.502,11.883,47.834,11.9z"/>
</g>
<path style="fill:#62C646;" d="M33.35,10.979c0,0-1.187,13.787,1.421,14.917c4.972,2.153,17.758,1.088,17.758,1.088
	s-15.628-2.331-17.048-8.014C34.061,13.287,33.35,10.979,33.35,10.979z"/>
</svg>
