<?xml version="1.0" encoding="iso-8859-1"?>
<!-- Generator: Adobe Illustrator 16.0.0, SVG Export Plug-In . SVG Version: 6.00 Build 0)  -->
<!DOCTYPE svg PUBLIC "-//W3C//DTD SVG 1.1//EN" "http://www.w3.org/Graphics/SVG/1.1/DTD/svg11.dtd">
<svg version="1.1" id="Layer_1" xmlns="http://www.w3.org/2000/svg" xmlns:xlink="http://www.w3.org/1999/xlink" x="0px" y="0px"
	 width="444px" height="479px" viewBox="0 0 444 479" style="enable-background:new 0 0 444 479;" xml:space="preserve">
<path style="fill-rule:evenodd;clip-rule:evenodd;fill:#52AE32;" d="M97.106,235.256c1.237,74.934,1.209,149.898,3.711,224.801
	c0.155,4.636,6.426,6.386,14.845,4.771c84.963-16.293,170.715-46.854,252.901-67.864c10.792-2.759,17.998-7.162,16.436-20.146
	c-3.045-25.299,8.156-50.77,10.604-74.227c3.915-37.522,3.005-91.9,7.423-129.367C302.819,186.479,197.312,222.001,97.106,235.256
	L97.106,235.256z"/>
<path style="fill-rule:evenodd;clip-rule:evenodd;fill:#009034;" d="M178.627,203.28l-10.36,3.251l-2.032,16.657l0.406,45.707
	l5.282,9.344c8.421,29.777,43.311,12.906,36.769-9.953L178.627,203.28L178.627,203.28z"/>
<path style="fill-rule:evenodd;clip-rule:evenodd;fill:#006A34;" d="M21.222,114.434c-13.701,3.53,13.802,204.103,2.04,243.488
	c-12.121,40.587,8.595,55.772,21.428,64.932c10.637,7.594,20.833,16.341,25.973,29.869c5.185,13.646,14.718,17.748,32.466,11.038
	c12.8-81.413-14.694-170.249-4.545-233.105c-10.392-40.002-20.784-80.004-31.176-120.005
	C52.012,111.912,36.617,113.173,21.222,114.434L21.222,114.434z"/>
<path style="fill-rule:evenodd;clip-rule:evenodd;fill:#295234;" d="M97.106,235.256c0.084,5.119,0.163,10.237,0.236,15.356
	c11.954,11.137,27.33,10.729,42.515,8.408c82.495-12.603,163.629-32.898,245.444-49.349c5.588-1.387,10.66-2.994,15.206-4.882
	c0.604-11.254,1.387-21.965,2.519-31.566C302.819,186.479,197.312,222.001,97.106,235.256L97.106,235.256z"/>
<path style="fill-rule:evenodd;clip-rule:evenodd;fill:#295234;" d="M109.3,222.001c0.524,30.931,3.803,61.407,6.362,91.193
	c1.71,19.903,9.762,37.266,9.543,59.911c-0.312,32.249-1.843,69.801-8.173,81.613c-7.265,13.556-14.889,4.847-19.879-5.391
	c-3.535-73.873-11.358-141.789-14.893-215.663C91.274,229.777,100.287,225.89,109.3,222.001L109.3,222.001z"/>
<path style="fill-rule:evenodd;clip-rule:evenodd;fill:#2F402C;" d="M109.3,222.001c0.2,11.83,0.804,23.593,1.616,35.276
	c-10.101-2.89-19.099-9.981-25.633-24.916L109.3,222.001L109.3,222.001z"/>
<path style="fill-rule:evenodd;clip-rule:evenodd;fill:#268339;" d="M55.517,122.936l3.226,15.591l-1.075,41.936l6.452,84.409
	l5.376,50.537l7.527,48.388l1.613,40.86l-1.613,41.397l2.688,13.441l11.828,3.226l15.054-5.376
	c6.934-75.41-17.345-162.235-5.914-223.656L70.033,116.483L55.517,122.936L55.517,122.936z"/>
<path style="fill-rule:evenodd;clip-rule:evenodd;fill:#295234;" d="M98.324,251.947c0.499-6.296,1.263-12.395,2.354-18.259L73,86
	l-47.667,9.667c0,0-0.304,2.812-1,3.333c-1.333,1-1.667,3-1.667,3c0.656,2.007,3.284,9.348,11.877,15.918
	c9.428,7.21,26.215,14.697,26.664,17.042c5.315,27.74,11.437,55.045,18.213,82.464C83.786,235.087,90.402,245.753,98.324,251.947
	L98.324,251.947z"/>
<path style="fill:#FFCC00;" d="M54.262,119.186l0.008,0.005h0.008c6.331,4.019,6.165,19.44,6.006,34.153
	c-0.706,65.505,7.097,134.404,16.883,199.089c4.217,27.873,4.254,56.164,1.964,84.212c-1.292,15.812,1.155,21.089,5.486,22.776
	c4.409,1.718,10.407,1.816,17.31-2.673c1.85-1.694,4.831,0.721,2.153,3.314c-7.837,5.097-14.981,5.346-20.888,3.045
	c-5.983-2.331-9.478-8.814-8.011-26.772c2.267-27.765,2.242-55.722-1.933-83.313c-9.819-64.897-17.624-133.987-16.915-199.708
	c0.147-13.639,0.301-27.934-4.179-30.778l0.002-0.003l-0.002-0.002L54.262,119.186L54.262,119.186z"/>
<path style="fill-rule:evenodd;clip-rule:evenodd;fill:#1D1D1B;" d="M29.756,84.558c-5.48,3.19-5.089,8.942-4.422,12.609
	c0.418,2.301,14.177-1.722,20.936-2.74C40.142,89.707,33.151,82.581,29.756,84.558L29.756,84.558z"/>
<path style="fill-rule:evenodd;clip-rule:evenodd;fill:#009034;" d="M344.915,165.889l-12.179,2.634l-4.937,20.078l0.5,26.89
	L332,215l-0.5,6l-3,0.5l0.287,20.095l5.925,4.608c4.169,19.31,34.561,14.263,36.866-8.229L344.915,165.889L344.915,165.889z"/>
<path style="fill-rule:evenodd;clip-rule:evenodd;fill:#FFCC00;" d="M44.69,82.61c-4.978,0.649-9.139,1.003-14.117,1.653
	c2.041-0.432,10.175,5.597,17.889,11.947c3.6,2.963,7.108,5.996,9.864,8.476c6.633,5.971,7.459,14.862,9.09,23.376
	c5.315,27.739,11.437,55.044,18.213,82.464c10.747,43.485,35.139,44.561,59.057,40.907c82.494-12.603,163.628-32.899,245.443-49.349
	c34.85-8.654,49.745-25.79,40.907-66.88c-4.758-22.119-13.256-44.306-19.995-66.889c-1.279-4.29-7.987-9.697-12.471-11.68
	c-10.148-4.485-20.778-7.791-31.168-11.688c-3.03,0.434-6.061,0.866-9.091,1.299C253.771,62.312,149.23,75.101,44.69,82.61
	L44.69,82.61z"/>
<path style="fill-rule:evenodd;clip-rule:evenodd;fill:#D78F1A;" d="M328.336,214.561c10.751-2.326,21.461-4.11,32.223-6.377
	l-15.644-42.295l-12.179,2.634l-4.938,20.078L328.336,214.561L328.336,214.561z"/>
<path style="fill-rule:evenodd;clip-rule:evenodd;fill:#D78F1A;" d="M166.456,247.331c10.124-1.706,20.06-3.429,30.152-5.316
	l-17.981-38.734l-10.36,3.25l-2.032,16.658L166.456,247.331L166.456,247.331z"/>
<path style="fill-rule:evenodd;clip-rule:evenodd;fill:#00512A;" d="M70.014,100.791c6.926,6.276,8.682,14.436,10.389,24.024
	c5.686,31.943,10.414,64.213,21.232,94.801c6.883,19.465,26.011,22.976,43.05,19.816c81.013-15.024,161.77-32.408,242.846-47.088
	c20.941-3.791,38.516-17.096,32.466-59.737c-2.605-18.37-10.822-35.496-16.232-53.244c-2.292-6.438-4.329-16.449-14.285-19.479
	c-10.822-3.896-23.453-9.264-34.274-13.159c-107,10.782-211.644,22.906-314.146,36.358C49.933,88.495,61.14,95.38,70.014,100.791
	L70.014,100.791z"/>
<path style="fill-rule:evenodd;clip-rule:evenodd;fill:#76B82A;" d="M71.312,98.843c6.926,6.277,8.682,14.436,10.389,24.025
	c5.687,31.943,11.259,64.211,22.077,94.801c6.884,19.465,25.167,21.99,42.206,18.83c81.013-15.023,161.77-31.422,242.846-46.102
	c20.941-3.792,38.516-17.096,32.466-59.738c-2.605-18.37-10.822-35.495-16.233-53.243c-2.291-6.438-4.328-16.45-14.284-19.48
	c-10.822-3.896-21.645-7.791-32.466-11.688C251.312,57.03,147.193,69.157,44.69,82.61C53.564,88.021,62.438,93.432,71.312,98.843
	L71.312,98.843z"/>
<path style="fill-rule:evenodd;clip-rule:evenodd;fill:#FFCC00;" d="M309.886,65.903c23.921-2.854,43.748-5.965,67.745-8.084
	c3.766-0.333,14.338,0.385,18.369,1.847c-10.257-3.721-20.077-8.611-30.333-12.333c-20.03,2.762-43.163,5.968-63.193,8.729
	C303.256,60.79,303.7,65.808,309.886,65.903L309.886,65.903z"/>
<path style="fill-rule:evenodd;clip-rule:evenodd;fill:#D78F1A;" d="M302.956,31.254c2.348-0.425,7.016-0.664,5.63,6.497
	c-1.337,6.914-3.328,14.667-2.363,21.171c0.625,4.216,1.776,5.735,3.663,6.981c-4.801,0.957-12.701-3.108-20.357-6.063
	c-3.004-1.159-4.779-2.51-4.764-4.765c0.037-5.487,0.289-10.973,0.433-16.458C291.118,36.163,296.651,32.396,302.956,31.254
	L302.956,31.254z"/>
<path style="fill-rule:evenodd;clip-rule:evenodd;fill:#76B82A;" d="M158.82,37.558c43.111-11.851,89.585-16.979,137.759-18.705
	c12.592,0.126,12.275,24.736,3.037,24.293c-45.025-0.51-88.727,6.134-131.221,19.29C165.203,54.143,162.012,45.851,158.82,37.558
	L158.82,37.558z"/>
<ellipse transform="matrix(-0.4202 -0.9074 0.9074 -0.4202 185.5369 219.0513)" style="fill-rule:evenodd;clip-rule:evenodd;fill:#264534;stroke:#00853E;stroke-width:2.0001;stroke-miterlimit:2.4142;" cx="162.752" cy="50.249" rx="13.429" ry="8.953"/>
<path style="fill-rule:evenodd;clip-rule:evenodd;fill:#1D1D1B;" d="M156.734,41.356c3.348-2.207,8.61,0.485,11.753,6.014
	c3.143,5.528,2.978,11.799-0.37,14.006s-8.609-0.485-11.753-6.014S153.386,43.563,156.734,41.356z"/>
<path style="fill-rule:evenodd;clip-rule:evenodd;fill:#FFCC00;" d="M168.185,48.848c-1.609,4.943-2.475,11.457,0.714,16.84
	c3.604,6.082,9.133,12.103,2.807,16.84c-6.269,4.694-45.039,5.747-92.217,12.83c-4.009,0-6.949,1.069-8.821,3.208
	c-6.148-3.476-12.295-6.95-18.443-10.425c0.802-1.604,4.277-3.208,10.424-4.812c29.135-2.807,58.176-6.894,87.406-8.42
	c4.273-0.223,8.899-0.286,6.816-5.212c-2.856-6.755-8.04-11.494-4.009-17.24c0.118-5.224,5.871-6.689,12.429-7.618
	C168.365,45.641,168.319,46.978,168.185,48.848L168.185,48.848z"/>
<path style="fill-rule:evenodd;clip-rule:evenodd;fill:#00592E;" d="M299.684,43.146c-0.023,0-0.045,0.001-0.068,0
	c-41.933-0.475-82.717,5.256-122.447,16.672c11.482-13.428,41.237-22.997,76.128-22.997
	C270.544,36.82,286.533,39.159,299.684,43.146L299.684,43.146z"/>
<path style="fill-rule:evenodd;clip-rule:evenodd;fill:#295234;" d="M23.846,400.619c5.189,10.945,14.104,17.423,20.844,22.234
	c8.449,6.031,16.618,12.79,22.197,22.094C77.893,404.743,48.928,390.655,23.846,400.619L23.846,400.619z"/>
<path style="fill-rule:evenodd;clip-rule:evenodd;fill:#295234;" d="M20.85,212.709c2.893,43.711,6.322,91.977,5.193,122.116
	c6.656-13.849,11.547-27.981,11.896-41.706C38.637,265.567,29.026,248.098,20.85,212.709L20.85,212.709z"/>
<path style="fill-rule:evenodd;clip-rule:evenodd;fill:#009034;" d="M328.043,201.687c9.382-1.778,18.768-3.544,28.155-5.293
	l-11.283-30.504l-12.179,2.633l-4.937,20.078L328.043,201.687L328.043,201.687z"/>
<path style="fill-rule:evenodd;clip-rule:evenodd;fill:#009034;" d="M166.32,232.699c7.944-1.494,15.886-3,23.827-4.513
	l-11.52-24.906l-10.36,3.25l-2.031,16.658L166.32,232.699L166.32,232.699z"/>
<path style="fill-rule:evenodd;clip-rule:evenodd;fill:#919191;stroke:#000000;" d="M200.333,278.667
	c-7.405,3.385-10.822,6.891-14,4.667c-2.336-1.635-8.283-4.586-7.891-10.695l-8.656-11.591l-0.509-13.081l7.494-1.211l-0.603-23.501
	l2.521,0.763l1.722,45.91L201,268c-1.08,3.233-0.215,7.242-3.333,8.667L200.333,278.667z"/>
<g>
	<path style="fill-rule:evenodd;clip-rule:evenodd;fill:#D4D4D4;" d="M178.69,224.018l30.638-5.762l0.262,51.063
		c0.077,14.922-28.584,20.536-29.067,6.809L178.69,224.018L178.69,224.018z"/>
	<path d="M178.684,223.98c5.09-1.047,10.181-2.086,15.285-3.059l15.301-2.975l0.368-0.071l0.004,0.378
		c0.125,11.995-0.009,23.991,0.003,35.987c-0.021,2.999,0.033,5.997,0.059,8.996l0.047,4.498c0.001,0.751,0.032,1.495,0.003,2.259
		c-0.039,0.761-0.146,1.52-0.337,2.258c-0.75,2.98-2.718,5.525-5.104,7.384c-2.398,1.874-5.208,3.179-8.145,3.951
		c-2.935,0.759-6.056,1.003-9.071,0.333c-1.496-0.346-2.972-0.951-4.196-1.95c-1.229-0.986-2.13-2.397-2.508-3.93
		c-0.2-0.756-0.269-1.565-0.281-2.311l-0.076-2.248l-0.152-4.495l-0.304-8.991l-0.497-17.987l-0.246-8.993l-0.185-9.027
		L178.684,223.98z M178.729,224.049l0.447,8.954l0.387,8.988l0.768,17.978l0.328,8.99l0.165,4.495l0.082,2.248
		c0.019,0.752,0.073,1.447,0.25,2.146c0.334,1.385,1.121,2.635,2.225,3.538c1.1,0.912,2.467,1.492,3.881,1.829
		c2.853,0.663,5.884,0.436,8.748-0.254c2.869-0.708,5.632-1.94,7.991-3.729c2.345-1.775,4.294-4.204,5.044-7.077
		c0.191-0.711,0.304-1.443,0.349-2.18c0.036-0.734,0.013-1.49,0.02-2.238l0-4.499c-0.004-2.998,0.019-5.997-0.033-8.996
		c-0.112-11.995-0.369-23.989-0.367-35.984l0.372,0.307l-15.336,2.787C188.952,222.298,183.841,223.177,178.729,224.049z"/>
</g>
<polygon style="fill-rule:evenodd;clip-rule:evenodd;fill:#FFCC00;stroke:#000000;stroke-width:0.75;" points="178.69,224.018 
	180.785,197.569 212.732,190.236 209.329,218.256 178.69,224.018 "/>
<g>
	<polygon style="fill-rule:evenodd;clip-rule:evenodd;fill:#F2B300;" points="178.69,224.018 176.169,223.254 178.36,197.058 
		180.785,197.569 178.69,224.018 	"/>
	<path d="M178.712,224.049l-2.574-0.691l-0.082-0.021l0.005-0.091c0.268-4.374,0.583-8.745,1.02-13.104
		c0.222-2.18,0.462-4.358,0.651-6.541c0.189-2.182,0.327-4.369,0.493-6.554l0.011-0.151l0.153,0.029l2.432,0.476l0.147,0.028
		l-0.01,0.155c-0.271,4.414-0.598,8.824-0.967,13.23c-0.166,2.205-0.407,4.403-0.607,6.605c-0.204,2.202-0.418,4.402-0.669,6.601
		L178.712,224.049z M178.667,223.983c0.098-2.199,0.231-4.396,0.376-6.592c0.149-2.206,0.257-4.415,0.44-6.618
		c0.33-4.409,0.701-8.815,1.128-13.218l0.137,0.184l-2.417-0.548l0.164-0.122c-0.199,2.182-0.427,4.36-0.603,6.544
		c-0.177,2.184-0.302,4.371-0.445,6.558c-0.294,4.372-0.709,8.734-1.172,13.092l-0.077-0.112L178.667,223.983z"/>
</g>
<g>
	<polygon style="fill-rule:evenodd;clip-rule:evenodd;fill:#FFF482;" points="180.785,197.569 212.732,190.236 208.95,190.51 
		178.36,197.058 180.785,197.569 	"/>
	<path d="M180.785,197.544c2.642-0.69,5.292-1.348,7.945-1.991c2.66-0.62,5.312-1.274,7.981-1.857l8.013-1.722
		c2.67-0.578,5.327-1.209,7.983-1.851l0.034,0.229l-3.779,0.312l0.021-0.003c-5.083,1.159-10.171,2.3-15.273,3.376
		c-2.549,0.548-5.101,1.077-7.66,1.58l-7.671,1.524l0-0.168L180.785,197.544z M180.78,197.594l-2.437-0.452
		c-0.046-0.009-0.077-0.054-0.068-0.1c0.006-0.034,0.036-0.061,0.068-0.068l7.623-1.749c2.54-0.589,5.085-1.15,7.635-1.694
		c5.095-1.106,10.204-2.148,15.317-3.172l0.021-0.003l3.785-0.234c0.063-0.006,0.12,0.042,0.125,0.105
		c0.005,0.058-0.036,0.109-0.091,0.123c-2.669,0.581-5.336,1.172-7.991,1.815l-7.961,1.945c-2.656,0.64-5.328,1.207-7.993,1.809
		c-2.67,0.579-5.343,1.143-8.023,1.675C180.787,197.595,180.783,197.595,180.78,197.594z"/>
</g>
<path style="fill-rule:evenodd;clip-rule:evenodd;fill:#919191;stroke:#000000;" d="M364.334,242
	c-7.405,3.385-12.821,9.558-16,7.334c-2.336-1.635-7.946-4.158-7.554-10.268l-8.656-11.591l-0.508-12.675l7.494-1.472l-0.604-23.647
	l2.521,0.764l1.722,45.91L365,228c-1.08,3.233-3.549,13.909-6.666,15.334L364.334,242z"/>
<g>
	<path style="fill-rule:evenodd;clip-rule:evenodd;fill:#D4D4D4;" d="M341.028,190.444l30.638-5.761l0.262,51.063
		c0.076,14.922-28.584,20.536-29.067,6.809L341.028,190.444L341.028,190.444z"/>
	<path d="M341.021,190.407c5.09-1.047,10.181-2.086,15.286-3.059l15.301-2.974l0.368-0.071l0.005,0.378
		c0.125,11.995-0.01,23.992,0.002,35.987c-0.021,2.999,0.033,5.998,0.059,8.996l0.047,4.498c0.002,0.751,0.032,1.496,0.004,2.26
		c-0.039,0.761-0.146,1.519-0.337,2.258c-0.751,2.979-2.719,5.524-5.104,7.384c-2.399,1.874-5.209,3.178-8.146,3.95
		c-2.935,0.759-6.056,1.003-9.071,0.333c-1.496-0.346-2.972-0.952-4.195-1.951c-1.229-0.986-2.13-2.396-2.508-3.929
		c-0.2-0.757-0.269-1.565-0.281-2.311l-0.076-2.248l-0.152-4.496l-0.304-8.991l-0.497-17.987l-0.245-8.993l-0.185-9.027
		L341.021,190.407z M341.067,190.476l0.447,8.954l0.387,8.988l0.768,17.978l0.328,8.99l0.165,4.495l0.082,2.248
		c0.019,0.753,0.073,1.447,0.25,2.146c0.334,1.386,1.12,2.636,2.225,3.539c1.1,0.912,2.467,1.492,3.881,1.829
		c2.854,0.663,5.884,0.436,8.748-0.254c2.868-0.708,5.632-1.94,7.991-3.729c2.345-1.775,4.294-4.204,5.044-7.076
		c0.191-0.712,0.304-1.444,0.35-2.18c0.035-0.735,0.013-1.49,0.02-2.239l0.001-4.498c-0.005-2.999,0.019-5.998-0.033-8.997
		c-0.111-11.994-0.369-23.989-0.367-35.984l0.372,0.307l-15.336,2.787C351.289,188.725,346.179,189.604,341.067,190.476z"/>
</g>
<polygon style="fill-rule:evenodd;clip-rule:evenodd;fill:#FFCC00;stroke:#000000;stroke-width:0.75;" points="341.027,190.444 
	343.123,163.996 375.07,156.664 371.666,184.684 341.027,190.444 "/>
<g>
	<polygon style="fill-rule:evenodd;clip-rule:evenodd;fill:#F2B300;" points="341.027,190.444 338.506,189.682 340.697,163.485 
		343.123,163.996 341.027,190.444 	"/>
	<path d="M341.049,190.476l-2.574-0.69l-0.082-0.021l0.005-0.091c0.268-4.374,0.583-8.745,1.019-13.104
		c0.223-2.18,0.463-4.358,0.651-6.541c0.189-2.182,0.327-4.369,0.493-6.554l0.011-0.151l0.153,0.029l2.433,0.475l0.147,0.028
		l-0.01,0.155c-0.271,4.414-0.598,8.824-0.967,13.23c-0.166,2.205-0.407,4.403-0.607,6.605c-0.204,2.202-0.418,4.402-0.669,6.601
		L341.049,190.476z M341.004,190.41c0.098-2.199,0.231-4.396,0.376-6.592c0.149-2.206,0.258-4.415,0.441-6.618
		c0.329-4.409,0.701-8.815,1.128-13.218l0.137,0.184l-2.417-0.547l0.164-0.122c-0.199,2.182-0.427,4.36-0.602,6.544
		c-0.177,2.184-0.302,4.371-0.445,6.558c-0.294,4.372-0.709,8.734-1.172,13.092l-0.077-0.112L341.004,190.41z"/>
</g>
<g>
	<polygon style="fill-rule:evenodd;clip-rule:evenodd;fill:#FFF482;" points="343.123,163.996 375.07,156.664 371.287,156.938 
		340.697,163.485 343.123,163.996 	"/>
	<path d="M343.123,163.971c2.642-0.69,5.292-1.348,7.945-1.991c2.66-0.62,5.312-1.274,7.981-1.857l8.013-1.721
		c2.67-0.578,5.327-1.209,7.982-1.85l0.034,0.229l-3.779,0.312l0.021-0.003c-5.084,1.16-10.171,2.301-15.272,3.376
		c-2.549,0.548-5.102,1.077-7.66,1.58l-7.671,1.524l0-0.168L343.123,163.971z M343.117,164.021l-2.438-0.451
		c-0.046-0.009-0.077-0.054-0.068-0.1c0.006-0.034,0.036-0.061,0.068-0.068l7.623-1.749c2.54-0.589,5.086-1.15,7.635-1.694
		c5.096-1.107,10.204-2.148,15.317-3.171l0.021-0.003l3.785-0.235c0.064-0.005,0.12,0.042,0.125,0.106
		c0.005,0.058-0.036,0.109-0.091,0.123c-2.669,0.582-5.336,1.172-7.99,1.816l-7.961,1.945c-2.656,0.639-5.328,1.207-7.993,1.809
		c-2.67,0.578-5.343,1.142-8.023,1.674C343.125,164.021,343.121,164.021,343.117,164.021z"/>
</g>
<path style="fill-rule:evenodd;clip-rule:evenodd;fill:#FFCC00;" d="M22,102.667c-1.277,6.539-1.772,10.174,0.1,16.642
	c3.724,12.866,24.329,11.256,43.795,3.624c-0.739-3.995-1.596-7.928-3.25-11.455c-9.218,2.017-18.051,6.028-26.837,3.243
	c-5.988-1.898-13.007-8.013-13.141-14.221L22,102.667z"/>
<g>
	<path d="M27.403,86.405c-0.837,0.821-1.292,1.948-1.615,3.071c-0.317,1.135-0.483,2.312-0.558,3.489
		c-0.08,1.184-0.03,2.355,0.068,3.547c0.017,0.613-0.117,1.235-0.426,1.771c-0.299,0.551-0.796,0.931-1.151,1.379
		c-1.552,1.811-1.937,4.268-2.107,6.6c-0.167,2.362-0.189,4.74-0.285,7.114c-0.017,0.294-0.002,0.592-0.075,0.913
		c-0.067,0.314-0.229,0.606-0.419,0.847c-0.386,0.476-0.781,0.892-1.079,1.396c-0.607,0.994-0.956,2.134-1.221,3.278
		c-0.511,2.305-0.694,4.678-0.806,7.043c-0.201,4.736,0.024,9.489,0.07,14.238c0.162,9.499,0.341,18.997,0.677,28.489
		c0.334,9.493,0.906,18.972,1.607,28.444c1.396,18.945,3.153,37.864,4.741,56.802c0.793,9.469,1.547,18.943,2.171,28.43
		c0.614,9.486,1.135,18.986,1.274,28.508c0.067,4.76,0.048,9.526-0.154,14.295c-0.208,4.76-0.589,9.562-1.446,14.274
		c-1.569,9.357-3.009,18.739-3.975,28.156c-0.477,4.707-0.833,9.425-0.932,14.136c-0.08,4.701,0.024,9.435,0.897,13.98
		c0.448,2.257,1.092,4.487,2.192,6.396c0.277,0.472,0.578,0.925,0.914,1.34c0.367,0.45,0.747,0.901,1.125,1.332
		c0.768,0.876,1.564,1.727,2.388,2.553c3.298,3.307,7.021,6.192,10.855,8.951c3.836,2.762,7.79,5.419,11.605,8.313
		c3.816,2.887,7.49,6.026,10.78,9.559c3.421,3.618,5.572,8.092,7.5,12.436c1.942,4.348,3.621,8.811,6.25,12.54
		c1.315,1.845,2.913,3.451,4.836,4.481c1.916,1.042,4.124,1.479,6.364,1.448c2.245-0.025,4.513-0.469,6.729-1.109
		c1.109-0.322,2.208-0.695,3.296-1.109c0.544-0.205,1.085-0.422,1.624-0.646c0.54-0.229,1.196-0.476,1.822-0.633
		c1.263-0.35,2.786-0.392,4.111,0.089c1.323,0.463,2.324,1.185,3.302,1.65c0.973,0.483,1.952,0.756,3.005,0.806
		c0.525,0.025,1.059,0.001,1.601-0.062c0.598-0.067,1.148-0.145,1.734-0.23c4.624-0.708,9.24-1.812,13.843-2.92
		c9.205-2.262,18.38-4.739,27.571-7.145c9.19-2.417,18.392-4.801,27.613-7.107c18.432-4.576,36.779-9.493,55.108-14.486
		c36.643-10.04,73.218-20.351,109.719-30.908l13.678-3.989c4.541-1.395,9.201-2.459,13.195-4.827
		c1.993-1.166,3.803-2.634,5.234-4.42c1.439-1.779,2.477-3.867,3.11-6.08c0.639-2.215,0.899-4.543,0.909-6.873
		c0.007-1.166-0.054-2.334-0.158-3.5c-0.112-1.145-0.262-2.376-0.303-3.577c-0.19-4.821,0.369-9.593,1.107-14.301
		c0.759-4.71,1.746-9.37,2.796-14.008l3.236-13.88c1.052-4.625,2.076-9.26,2.734-13.937c0.35-2.335,0.474-4.68,0.615-7.059
		l0.422-7.111l0.818-14.227l1.603-28.456l3.153-56.914c0.007-0.125,0.088-0.229,0.198-0.269l0.009-0.003
		c5.872-2.14,11.442-5.23,16.418-9.03c4.957-3.815,9.314-8.506,12.251-14.033c1.467-2.756,2.568-5.704,3.243-8.75
		c0.688-3.046,0.905-6.18,0.829-9.309c-0.148-6.272-1.052-12.521-2.15-18.712c-2.281-12.38-5.504-24.581-9.194-36.618
		c-1.856-6.016-3.854-11.99-6.031-17.894c-2.193-5.893-4.514-11.758-7.335-17.345c-0.712-1.39-1.461-2.762-2.297-4.058
		c-0.418-0.646-0.858-1.275-1.34-1.841c-0.241-0.282-0.492-0.548-0.753-0.773c-0.13-0.115-0.263-0.208-0.393-0.294l-0.498-0.302
		c-2.665-1.568-5.524-2.896-8.393-4.15c-5.76-2.482-11.679-4.628-17.694-6.394c-3.009-0.874-6.048-1.648-9.111-2.217
		c-1.531-0.28-3.07-0.508-4.605-0.633c-1.527-0.129-3.067-0.108-4.627-0.038c-6.231,0.335-12.479,1.242-18.708,2.116l-18.713,2.775
		c-3.13,0.434-6.261,0.86-9.441,1.123c-0.796,0.063-1.596,0.114-2.408,0.135c-0.819,0.012-1.622,0.028-2.54-0.131
		c-0.234-0.046-0.476-0.1-0.771-0.235c-0.145-0.068-0.315-0.16-0.498-0.345c-0.186-0.144-0.357-0.605-0.348-0.663
		c-0.076-0.396-0.053-0.581-0.049-0.829c0.01-0.229,0.032-0.442,0.056-0.652c0.103-0.833,0.253-1.612,0.403-2.394
		c0.609-3.106,1.268-6.165,1.527-9.232c0.063-0.764,0.1-1.526,0.092-2.279c-0.005-0.369-0.019-0.767-0.051-1.102
		c-0.031-0.33-0.104-0.582-0.21-0.762c-0.104-0.173-0.227-0.276-0.546-0.455c-0.286-0.163-0.874-0.432-1.239-1.035
		c-0.651-1.202-0.214-2.22-0.32-2.732c-0.095-1.351-0.647-2.81-1.3-4.147c-0.669-1.341-1.488-2.645-2.465-3.713
		c-0.49-0.525-1.019-1-1.539-1.175c-0.607-0.229-1.361-0.365-2.103-0.468c-1.5-0.201-3.058-0.275-4.613-0.317
		c-6.241-0.121-12.537,0.271-18.807,0.716c-6.275,0.464-12.545,1.059-18.809,1.719c-12.527,1.329-25.03,2.923-37.503,4.708
		c-12.474,1.781-24.93,3.716-37.31,6.04c-6.195,1.169-12.34,2.434-18.458,4.006c-1.55,0.361-3.121,0.633-4.658,0.921
		c-0.758,0.15-1.54,0.299-2.167,0.569c-0.152,0.068-0.289,0.146-0.389,0.229c-0.112,0.099-0.284,0.26-0.374,0.367
		c-0.228,0.255-0.446,0.558-0.635,0.871c-0.752,1.278-1.202,2.776-1.499,4.28c-0.295,1.511-0.425,3.062-0.399,4.602
		c0.018,0.77,0.077,1.537,0.196,2.291l0.22,1.172c0.062,0.435,0.043,0.942-0.146,1.392c-0.185,0.45-0.452,0.771-0.619,1.074
		c-0.173,0.302-0.278,0.607-0.319,0.95c-0.083,0.684,0.05,1.44,0.237,2.173c0.404,1.462,0.992,2.96,1.537,4.417
		c0.562,1.468,1.195,2.869,1.964,4.241l0.559,1.05l0.27,0.533c0.021,0.038,0.065,0.15,0.073,0.167
		c0.006,0.084,0.116,0.206-0.019,0.476c-0.131,0.229-0.368,0.252-0.425,0.254c-0.116,0.013-0.146-0.002-0.224-0.004
		c-0.843-0.142-1.523-0.264-2.264-0.168l-4.665,0.716l-9.372,1.3c-12.501,1.672-25.019,3.195-37.531,4.767l-37.547,4.617
		L45.58,82.52c-3.125,0.422-6.279,0.651-9.406,0.985c-1.562,0.182-3.124,0.403-4.637,0.813
		C30.034,84.729,28.543,85.337,27.403,86.405z M27.264,86.262c1.175-1.106,2.698-1.729,4.217-2.149
		c1.53-0.419,3.101-0.645,4.667-0.833c3.14-0.344,6.277-0.58,9.402-1.01l18.772-2.319l37.533-4.717
		c12.508-1.596,25.007-3.263,37.493-5.012l9.354-1.369l4.678-0.754c0.831-0.123,1.728,0.032,2.434,0.148
		c0.021,0,0.089,0.008,0.071,0.003c0.035-0.003-0.084-0.003-0.175,0.136c-0.075,0.184-0.016,0.196-0.028,0.191
		c-0.032-0.073-0.019-0.055-0.045-0.104l-0.269-0.52l-0.559-1.033c-0.785-1.373-1.465-2.845-2.04-4.318
		c-0.569-1.491-1.153-2.927-1.602-4.501c-0.202-0.786-0.372-1.61-0.275-2.5c0.047-0.441,0.2-0.898,0.419-1.279
		c0.217-0.384,0.452-0.685,0.56-0.971c0.256-0.56-0.001-1.241-0.144-2.083c-0.133-0.803-0.2-1.609-0.225-2.416
		c-0.039-1.611,0.084-3.22,0.381-4.806c0.303-1.581,0.75-3.158,1.587-4.612c0.217-0.362,0.456-0.706,0.75-1.041
		c0.169-0.19,0.285-0.299,0.467-0.462c0.203-0.169,0.414-0.285,0.62-0.379c0.824-0.356,1.608-0.493,2.39-0.66
		c1.559-0.305,3.094-0.583,4.612-0.949c6.083-1.616,12.286-2.946,18.472-4.165c12.39-2.423,24.843-4.476,37.323-6.337
		c12.485-1.833,24.998-3.474,37.545-4.851c6.274-0.684,12.557-1.302,18.856-1.791c6.302-0.469,12.607-0.889,18.979-0.789
		c1.595,0.036,3.192,0.106,4.817,0.329c0.816,0.12,1.628,0.251,2.5,0.575c0.975,0.37,1.628,1.023,2.209,1.635
		c1.147,1.264,2.013,2.664,2.75,4.139c0.709,1.488,1.335,3.027,1.474,4.833c0.038,0.477-0.032,0.989-0.041,1.253
		c-0.014,0.314,0.04,0.567,0.102,0.66c0.045,0.09,0.195,0.201,0.591,0.412c0.37,0.194,0.91,0.574,1.199,1.094
		c0.296,0.502,0.402,1.038,0.447,1.49c0.041,0.449,0.051,0.84,0.057,1.259c0.007,0.824-0.034,1.637-0.102,2.443
		c-0.279,3.222-0.962,6.341-1.57,9.417c-0.148,0.766-0.296,1.535-0.387,2.267c-0.021,0.182-0.039,0.361-0.047,0.525
		c-0.011,0.146,0.003,0.358,0.003,0.35c0.043,0.135-0.05-0.136-0.094-0.142c-0.045-0.043-0.043-0.03-0.01-0.018
		c0.062,0.031,0.206,0.074,0.358,0.102c1.33,0.208,2.963,0.085,4.488-0.02c3.105-0.25,6.226-0.667,9.341-1.093l18.712-2.736
		c6.253-0.873,12.51-1.752,18.878-2.048c1.589-0.062,3.208-0.074,4.822,0.071c1.607,0.14,3.189,0.385,4.757,0.68
		c3.133,0.601,6.207,1.403,9.247,2.305c6.074,1.82,12.02,4.014,17.825,6.555c2.897,1.289,5.765,2.634,8.526,4.28l0.511,0.314
		c0.199,0.131,0.387,0.269,0.551,0.416c0.335,0.292,0.622,0.604,0.892,0.922c0.536,0.638,0.996,1.307,1.431,1.986
		c0.864,1.36,1.619,2.764,2.336,4.183c2.831,5.69,5.118,11.589,7.287,17.522c2.149,5.94,4.114,11.943,5.94,17.986
		c3.627,12.091,6.776,24.338,8.997,36.777c1.088,6.219,1.981,12.495,2.116,18.839c0.07,3.17-0.158,6.372-0.87,9.48
		c-0.696,3.109-1.83,6.117-3.333,8.923c-3.009,5.627-7.447,10.374-12.472,14.221c-5.054,3.834-10.647,6.925-16.627,9.086
		l0.207-0.271l-2.973,56.925l-1.508,28.461l-0.771,14.23l-0.397,7.115c-0.132,2.362-0.253,4.768-0.6,7.136
		c-0.652,4.736-1.667,9.392-2.707,14.03l-3.192,13.888c-1.032,4.63-2.003,9.272-2.732,13.947c-0.712,4.669-1.238,9.39-1.031,14.073
		c0.046,1.174,0.189,2.302,0.315,3.52c0.112,1.199,0.182,2.404,0.18,3.614c0.001,2.416-0.256,4.856-0.924,7.213
		c-0.661,2.354-1.767,4.611-3.309,6.536c-1.533,1.934-3.471,3.513-5.567,4.752c-2.101,1.244-4.353,2.169-6.638,2.929
		c-2.284,0.737-4.553,1.401-6.831,2.09l-13.664,4.056c-36.462,10.722-72.979,21.253-109.627,31.336
		c-18.325,5.034-36.676,9.995-55.117,14.615c-9.207,2.322-18.395,4.722-27.576,7.155c-9.185,2.423-18.351,4.917-27.594,7.207
		c-4.628,1.128-9.266,2.229-14.036,2.96c-0.589,0.086-1.215,0.172-1.797,0.236c-0.638,0.075-1.293,0.105-1.956,0.073
		c-1.323-0.056-2.678-0.442-3.827-1.023c-1.157-0.571-2.121-1.239-3.054-1.552c-0.924-0.327-1.881-0.314-2.905-0.046
		c-0.525,0.136-0.985,0.304-1.54,0.536c-0.558,0.231-1.12,0.456-1.687,0.67c-1.132,0.429-2.284,0.819-3.456,1.159
		c-2.342,0.674-4.779,1.158-7.292,1.187c-2.499,0.035-5.105-0.465-7.375-1.704c-2.28-1.224-4.106-3.094-5.538-5.106
		c-2.854-4.075-4.522-8.612-6.451-12.915c-1.903-4.303-3.965-8.544-7.113-11.866c-3.186-3.427-6.758-6.487-10.512-9.333
		c-3.752-2.854-7.686-5.502-11.558-8.293c-3.868-2.789-7.683-5.745-11.098-9.174c-0.853-0.855-1.68-1.74-2.477-2.651
		c-0.405-0.463-0.789-0.92-1.173-1.391c-0.411-0.509-0.768-1.048-1.091-1.6c-1.273-2.225-1.944-4.632-2.42-7.021
		c-0.911-4.8-1.013-9.626-0.914-14.411c0.125-4.787,0.51-9.549,1.015-14.29c1.022-9.481,2.516-18.885,4.137-28.256
		c0.867-4.636,1.265-9.326,1.497-14.053c0.226-4.722,0.27-9.46,0.227-14.199c-0.217-18.962-1.568-37.925-2.962-56.866
		c-1.414-18.944-3.032-37.88-4.272-56.845c-1.318-18.965-1.722-37.979-1.97-56.975c-0.029-4.749-0.241-9.499-0.031-14.258
		c0.117-2.375,0.305-4.759,0.828-7.096c0.272-1.161,0.627-2.327,1.264-3.366c0.31-0.522,0.738-0.974,1.1-1.418
		c0.388-0.444,0.437-0.981,0.439-1.593c0.104-2.372,0.134-4.747,0.311-7.123c0.096-1.186,0.234-2.379,0.554-3.538
		c0.312-1.159,0.853-2.27,1.632-3.192c0.386-0.477,0.859-0.836,1.132-1.343c0.288-0.494,0.415-1.076,0.4-1.648
		c-0.094-1.173-0.143-2.381-0.059-3.569c0.079-1.19,0.249-2.379,0.574-3.532C25.918,88.28,26.389,87.119,27.264,86.262z"/>
</g>
<g>
	<path d="M169.126,64.696c-0.284-0.263-0.565-0.695-0.353-1.115c0.218-0.399,0.67-0.49,0.962-0.732
		c0.641-0.461,1.199-1.041,1.712-1.643c0.009-0.011,0.022-0.019,0.034-0.022c18.533-5.024,37.127-10.003,56.122-13.106
		c9.501-1.523,19.067-2.485,28.634-3.355c9.572-0.832,19.151-1.524,28.755-1.958c0.128-0.005,0.236,0.093,0.242,0.221v0.019l0,0.006
		l-0.42,11.003c-0.006,0.156-0.129,0.281-0.279,0.299l-28.439,3.374c-9.481,1.111-18.965,2.199-28.455,3.241
		c-9.486,1.073-18.978,2.091-28.477,3.043c-9.5,0.95-19.001,1.879-28.49,2.931c-0.026,0.003-0.05-0.009-0.064-0.029L169.126,64.696z
		 M169.208,64.639l1.516,2.156l-0.064-0.029c9.484-1.087,18.955-2.297,28.427-3.486c9.473-1.186,18.953-2.308,28.439-3.374
		c9.483-1.097,18.971-2.147,28.462-3.175l28.477-3.043l-0.279,0.298l0.58-10.996l0.241,0.246
		c-9.591,0.279-19.181,0.922-28.735,1.854c-9.552,0.943-19.083,2.178-28.53,3.809c-9.449,1.647-18.843,3.62-28.221,5.671
		c-9.375,2.062-18.732,4.24-28.002,6.747l0.034-0.022c-0.525,0.609-1.086,1.188-1.746,1.658c-0.323,0.254-0.751,0.346-0.933,0.684
		c-0.186,0.337,0.056,0.744,0.327,0.995C169.203,64.632,169.206,64.636,169.208,64.639z"/>
</g>
</svg>
