<?xml version="1.0" encoding="iso-8859-1"?>
<!-- Generator: Adobe Illustrator 16.0.0, SVG Export Plug-In . SVG Version: 6.00 Build 0)  -->
<!DOCTYPE svg PUBLIC "-//W3C//DTD SVG 1.1//EN" "http://www.w3.org/Graphics/SVG/1.1/DTD/svg11.dtd">
<svg version="1.1" id="cupboard" xmlns="http://www.w3.org/2000/svg" xmlns:xlink="http://www.w3.org/1999/xlink" x="0px" y="0px"
	 width="221px" height="204px" viewBox="0 0 221 204" style="enable-background:new 0 0 221 204;" xml:space="preserve">
<path style="fill:#B9223B;" d="M110.185,68.913c53.189,0.639,96.143,72.076,95.934,89.25c-0.208,17.174-43.5,30.58-96.69,29.943
	c-53.188-0.641-96.141-15.08-95.934-32.253C13.705,138.68,56.994,68.276,110.185,68.913z M24.734,152.913
	c-0.212,13.027,37.807,24.192,84.913,24.941c47.11,0.75,85.47-9.203,85.679-22.227c0.208-13.025-37.809-81.192-84.917-81.941
	C63.301,72.938,24.944,139.89,24.734,152.913z"/>
<g>
	<path style="fill:#CFD600;" d="M16.371,152.048c-0.2,16.756,41.416,30.844,92.955,31.465c51.54,0.623,93.484-12.455,93.687-29.212
		V58.149L16.437,57.363L16.371,152.048z"/>
	<path style="fill:#1D1D1B;" d="M16.42,152.048c-0.047,3.188,1.542,6.149,3.613,8.48c2.089,2.361,4.646,4.265,7.321,5.919
		c5.387,3.29,11.293,5.64,17.281,7.597c12.024,3.857,24.517,6.083,37.05,7.478c12.547,1.365,25.188,1.825,37.798,1.497
		c12.608-0.309,25.219-1.344,37.638-3.566c6.205-1.115,12.363-2.522,18.382-4.389c6-1.886,11.928-4.175,17.278-7.482
		c2.651-1.665,5.175-3.604,7.133-6.04c0.973-1.215,1.783-2.565,2.294-4.028c0.256-0.729,0.434-1.487,0.519-2.254
		c0.097-0.762,0.054-1.55,0.067-2.343l0.051-18.953l-0.14-75.813l0.306,0.307L156.367,58.4l-46.644-0.175L63.079,58.05
		l-23.322-0.089l-23.321-0.193l0.406-0.404L16.42,152.048z M16.321,152.048l-0.288-94.685c-0.001-0.223,0.179-0.404,0.402-0.404
		h0.004l23.322,0.003l23.322,0.108l46.644,0.217l46.644,0.218l46.643,0.338c0.169,0,0.306,0.139,0.306,0.307l-0.14,75.813
		l0.051,18.953c-0.009,0.785,0.04,1.582-0.057,2.392c-0.084,0.803-0.266,1.595-0.528,2.356c-0.523,1.525-1.356,2.927-2.349,4.18
		c-1.998,2.513-4.553,4.492-7.229,6.193c-5.396,3.375-11.349,5.711-17.374,7.635c-6.042,1.906-12.219,3.349-18.443,4.499
		c-24.932,4.501-50.512,4.781-75.634,1.949c-12.553-1.492-25.058-3.805-37.09-7.748c-5.992-2.002-11.901-4.396-17.291-7.735
		c-2.676-1.681-5.235-3.609-7.325-6.003C17.841,158.274,16.252,155.265,16.321,152.048z"/>
</g>
<path style="fill:#9AC508;" d="M71.333,78c0,0-2.307,15.998,0,52.333c1.333,21,7,38.334,11,51.334c0,0-39.667-4.334-58.667-17.667
	c-4.822-3.384-5.699,2.144-6.333-9.667c-1.667-31-2.667-95.666-2.667-95.666L71.333,78z"/>
<path style="fill:#FDC504;stroke:#1D1D1B;stroke-miterlimit:10;" d="M205.565,45.971c0.02-0.245-0.435-0.486-1.016-0.542
	c-0.539-0.05-0.981,0.085-1.062,0.297l-0.013-0.002v0.024c-0.002,0.01-0.016,0.018-0.016,0.026
	c-0.001,0.012,0.014,0.025,0.014,0.037l-1.327,116.016l-14.287-97.86l-3.479,1.612l0.148,1.015l-3.335-1.008l-14.009,111.13
	L142.117,73.531l-3.043,1.808l-1.816-1.07l-23.294,109.845L88.179,76.417l-2.854,1.602l0.644-2.365l-3.21-3.18L54.302,177.108
	L38.424,62.242l-0.829,0.184l0.015-0.097l-3.6-1.295l-15.6,100.524L15.914,47.266l-0.014-0.002c0-0.006,0.013-0.014,0.013-0.02
	c0.004-0.246-0.465-0.454-1.05-0.469c-0.542-0.009-0.972,0.154-1.038,0.373H13.81v0.024c0,0.008-0.01,0.019-0.01,0.026
	c0,0.015,0.012,0.024,0.015,0.036l2.565,117.753l1.486,0.08l-0.266,1.71l3.601,1.29l14.5-93.444l15.313,110.789l2.615-0.583
	l2.086,2.064L84.338,81.646l26.465,110.353l2.547-1.463l3.75,2.207l23.112-108.995l25.339,104.316l3.835-2.281l-0.08-0.326
	l0.806,0.241l14.746-116.843l14.681,100.597l3.484-1.62l-0.213-1.457l1.378,0.176l1.378-120.557l-0.014-0.003
	C205.554,45.983,205.565,45.98,205.565,45.971z"/>
<g>
	<linearGradient id="SVGID_1_" gradientUnits="userSpaceOnUse" x1="109.8506" y1="184.7451" x2="109.8506" y2="160.3382">
		<stop  offset="0" style="stop-color:#86252F"/>
		<stop  offset="0.5449" style="stop-color:#B9223B"/>
		<stop  offset="1" style="stop-color:#DC3C5E"/>
	</linearGradient>
	<path style="fill:url(#SVGID_1_);" d="M109.476,187.16c-52.799-0.637-95.487-14.919-95.76-31.965h-0.012v9.435
		c-0.204,17.173,42.671,31.612,95.768,32.251c53.103,0.637,96.317-12.768,96.525-29.941v-9.685
		C205.724,174.41,162.535,187.797,109.476,187.16z"/>
	<path style="fill:#1D1D1B;" d="M109.475,187.26c-8.861-0.053-17.721-0.524-26.548-1.359c-8.83-0.812-17.631-2.056-26.332-3.877
		c-8.692-1.832-17.313-4.256-25.487-7.947c-4.063-1.87-8.066-4.021-11.569-6.971c-1.745-1.472-3.371-3.145-4.651-5.125
		c-1.273-1.968-2.161-4.317-2.194-6.769l1.024,1.008h-0.012l1.024-1.024l0.01,7.26c0.024,1.189-0.054,2.49,0.083,3.492
		c0.139,1.082,0.475,2.142,0.956,3.147c0.965,2.018,2.477,3.806,4.189,5.375c1.717,1.577,3.655,2.938,5.665,4.189
		c4.04,2.486,8.426,4.456,12.908,6.148c4.489,1.688,9.097,3.086,13.754,4.292c18.678,4.729,38.012,6.767,57.313,7.233
		c9.661,0.181,19.339-0.037,28.969-0.902c4.815-0.42,9.619-0.975,14.4-1.687c4.777-0.731,9.526-1.646,14.229-2.746
		c4.698-1.113,9.363-2.392,13.896-4.034c4.53-1.635,8.974-3.55,13.079-6.012c2.046-1.233,4.007-2.608,5.757-4.196
		c1.738-1.587,3.285-3.403,4.255-5.478c0.483-1.033,0.814-2.125,0.948-3.237c0.125-1.074,0.031-2.318,0.042-3.526l-0.029-7.26
		l1.688,0.014c-0.021,2.417-0.895,4.751-2.173,6.702c-1.284,1.964-2.925,3.618-4.687,5.066c-3.537,2.906-7.587,4.986-11.691,6.781
		c-8.257,3.54-16.948,5.792-25.7,7.427c-8.76,1.633-17.61,2.669-26.478,3.273C127.247,187.147,118.357,187.416,109.475,187.26z
		 M109.478,187.061c8.876,0.053,17.758-0.232,26.596-1.032c8.832-0.833,17.625-2.09,26.282-3.951
		c4.328-0.928,8.615-2.026,12.844-3.296c4.229-1.261,8.398-2.725,12.412-4.511c4.002-1.792,7.874-3.913,11.25-6.606
		c1.672-1.355,3.2-2.888,4.359-4.641c1.156-1.746,1.901-3.738,1.934-5.782c0.006-0.466,0.388-0.839,0.854-0.833
		c0.462,0.005,0.833,0.386,0.833,0.847l-0.029,7.26c-0.04,1.21,0.045,2.396-0.128,3.727c-0.181,1.289-0.589,2.533-1.154,3.68
		c-1.137,2.301-2.845,4.201-4.702,5.832c-1.871,1.629-3.921,3.004-6.044,4.223c-4.255,2.432-8.789,4.269-13.391,5.822
		c-4.612,1.532-9.293,2.83-14.026,3.894c-18.958,4.157-38.385,5.752-57.769,5.739c-9.698-0.027-19.404-0.476-29.059-1.526
		c-9.653-1.035-19.267-2.597-28.712-4.963c-4.72-1.186-9.4-2.566-13.985-4.254c-4.58-1.692-9.084-3.669-13.313-6.229
		c-2.112-1.28-4.137-2.738-5.988-4.437c-1.839-1.698-3.523-3.669-4.649-6.032c-0.559-1.178-0.963-2.453-1.129-3.774
		c-0.167-1.404-0.064-2.532-0.091-3.761l0.01-7.26c0-0.564,0.457-1.023,1.021-1.024h0.003h0.012h0.006
		c0.558,0.001,1.011,0.451,1.018,1.008c0.023,1.999,0.737,3.963,1.856,5.707c1.122,1.749,2.606,3.3,4.24,4.684
		c3.294,2.755,7.103,4.957,11.047,6.839c3.956,1.877,8.075,3.439,12.259,4.804c4.184,1.372,8.434,2.566,12.726,3.598
		c8.586,2.068,17.326,3.527,26.113,4.57C91.774,186.39,100.624,186.896,109.478,187.061z"/>
</g>
<path style="fill:#B9223B;" d="M207.292,160.51c0-0.024-0.002-0.052-0.002-0.076v0.114
	C207.29,160.535,207.292,160.522,207.292,160.51z"/>
<linearGradient id="SVGID_2_" gradientUnits="userSpaceOnUse" x1="930.5801" y1="300.7617" x2="930.5801" y2="462.4635" gradientTransform="matrix(0 1 -1 0 494.0156 -889.5732)">
	<stop  offset="0" style="stop-color:#86252F"/>
	<stop  offset="0.5449" style="stop-color:#B9223B"/>
	<stop  offset="1" style="stop-color:#DC3C5E"/>
</linearGradient>
<path style="fill:url(#SVGID_2_);" d="M110.706,13.314c49.64,0.585,89.729,13.458,89.541,28.751
	c-0.19,15.295-40.584,27.219-90.227,26.633C60.38,68.112,20.29,55.241,20.48,39.946C20.668,24.653,61.066,12.731,110.706,13.314z"/>
<g>
	<path style="fill:#B9223B;" d="M11.492,50.528c-0.208,17.174,43.337,31.611,97.262,32.25c53.93,0.637,97.818-12.77,98.03-29.94
		V42.81L11.492,41.093V50.528z"/>
	<path style="fill:#1D1D1B;" d="M11.592,50.528c-0.024,2.348,0.833,4.622,2.136,6.552c1.304,1.942,2.998,3.598,4.824,5.06
		c3.679,2.912,7.873,5.124,12.189,6.951c8.663,3.643,17.804,6.011,27.008,7.817c9.221,1.76,18.53,3.063,27.89,3.824
		c9.351,0.853,18.744,1.239,28.138,1.28c18.768,0.062,37.669-1.296,55.987-5.63c4.574-1.084,9.084-2.43,13.497-4.029
		c4.399-1.622,8.728-3.496,12.696-5.969c1.978-1.238,3.867-2.622,5.535-4.225c1.66-1.6,3.111-3.442,3.966-5.536
		c0.427-1.043,0.688-2.145,0.754-3.257c0.035-1.101-0.01-2.333-0.012-3.493l-0.071-7.064l0.648,0.654
		c-16.276,0.022-32.551-0.034-48.826-0.122L133.54,43.22l-24.411-0.238l-24.411-0.275c-8.136-0.157-16.273-0.259-24.409-0.46
		L35.9,41.68l-12.204-0.262l-12.205-0.174l0.152-0.151L11.592,50.528z M11.392,50.528l-0.051-9.436c0-0.083,0.066-0.151,0.15-0.151
		h0.003l12.206,0.04l12.208-0.046l24.414-0.138c8.139-0.058,16.276-0.017,24.414-0.03l24.412,0.153l24.412,0.191l24.411,0.307
		c16.274,0.198,32.547,0.428,48.82,0.736h0.013c0.355,0.007,0.639,0.3,0.635,0.654l-0.071,7.064
		c-0.023,1.193,0.002,2.317-0.062,3.568c-0.095,1.238-0.409,2.452-0.893,3.58c-0.973,2.265-2.545,4.171-4.293,5.8
		c-1.759,1.632-3.716,3.01-5.749,4.234c-4.076,2.442-8.435,4.334-12.88,5.93c-4.448,1.6-9.001,2.863-13.579,4.002
		c-9.164,2.271-18.506,3.715-27.875,4.819c-9.376,1.069-18.811,1.633-28.252,1.773c-9.442,0.116-18.892-0.248-28.304-1.073
		c-9.399-0.927-18.781-2.215-28.003-4.298c-9.209-2.08-18.341-4.712-26.961-8.607c-4.278-1.986-8.486-4.222-12.175-7.202
		c-1.83-1.494-3.53-3.186-4.836-5.173C12.199,55.257,11.344,52.916,11.392,50.528z"/>
</g>
<path style="fill:#EEECC7;" d="M110.104,21.604c48.188,0.569,87.118,11.889,86.952,25.283
	c-0.166,13.393-39.366,23.791-87.551,23.225c-48.188-0.57-87.114-11.889-86.949-25.281C22.718,31.434,61.919,21.038,110.104,21.604z
	"/>
<g>
	<path style="fill:#B9223B;" d="M109.858,10.865c54.11,0.638,97.806,15.075,97.594,32.249s-44.252,30.578-98.364,29.94
		c-54.109-0.638-97.805-15.076-97.594-32.25C11.708,23.631,55.747,10.228,109.858,10.865z M22.928,37.865
		c-0.215,13.028,38.461,24.191,86.383,24.94c47.925,0.75,86.949-9.205,87.161-22.23c0.212-13.023-38.463-24.188-86.387-24.938
		C62.162,14.889,23.143,24.841,22.928,37.865z"/>
	<g>
		<path style="fill:#1D1D1B;" d="M109.859,10.766c0,0,1.693,0.025,4.866,0.073c3.173,0.094,7.831,0.208,13.743,0.624
			c5.909,0.442,13.097,0.956,21.28,2.135c4.095,0.56,8.437,1.284,12.988,2.2c4.548,0.926,9.318,2.012,14.201,3.512
			c4.879,1.496,9.917,3.273,14.904,5.696c2.502,1.19,4.95,2.627,7.311,4.286c2.345,1.672,4.619,3.617,6.413,6.091l0.659,0.938
			c0.197,0.331,0.374,0.677,0.562,1.017c0.407,0.66,0.641,1.422,0.93,2.153c0.427,1.504,0.715,3.154,0.464,4.723l-0.053,0.558
			l-0.148,0.606c-0.105,0.403-0.204,0.813-0.324,1.209c-0.333,0.725-0.571,1.509-1.018,2.17l-0.611,1.029l-0.719,0.946
			c-0.456,0.654-1.031,1.195-1.562,1.78c-2.217,2.251-4.836,4.04-7.578,5.595c-2.75,1.551-5.646,2.861-8.613,4.04
			c-5.951,2.326-12.204,4.053-18.581,5.522c-6.379,1.478-12.924,2.525-19.535,3.416c-6.613,0.89-13.313,1.517-20.053,1.91
			c-6.739,0.429-13.52,0.628-20.301,0.606c-13.562-0.014-27.14-0.926-40.372-2.902c-6.613-0.994-13.143-2.245-19.508-3.869
			c-6.367-1.611-12.584-3.562-18.495-6.079c-2.943-1.281-5.824-2.676-8.535-4.345c-2.706-1.666-5.285-3.566-7.447-5.929
			c-0.52-0.61-1.077-1.182-1.518-1.863l-0.693-0.988l-0.584-1.068l-0.289-0.534c-0.082-0.186-0.151-0.38-0.226-0.569l-0.438-1.144
			l-0.276-1.201c-0.042-0.201-0.095-0.399-0.125-0.602l-0.043-0.616l-0.04-0.614l-0.019-0.308l-0.009-0.153
			c0.006-0.214,0.009-0.139,0.014-0.223l0.104-1.109c0.007-0.35,0.136-0.786,0.231-1.192c0.113-0.402,0.182-0.844,0.342-1.206
			c0.312-0.734,0.578-1.496,1.008-2.152c0.2-0.337,0.387-0.685,0.6-1.009l0.692-0.928c1.884-2.439,4.225-4.323,6.625-5.932
			c2.416-1.594,4.908-2.96,7.443-4.087c5.056-2.292,10.142-3.937,15.061-5.305c4.922-1.368,9.717-2.343,14.288-3.155
			c4.573-0.804,8.932-1.419,13.04-1.883c8.21-0.981,15.408-1.328,21.326-1.625c5.922-0.272,10.58-0.273,13.754-0.291
			C108.166,10.75,109.859,10.766,109.859,10.766z M109.856,10.965c0,0-1.691,0.003-4.864,0.009
			c-3.171,0.052-7.825,0.104-13.735,0.44c-5.911,0.306-13.077,0.954-21.23,2.12c-8.149,1.161-17.295,2.914-26.988,5.742
			c-4.833,1.437-9.815,3.149-14.695,5.466c-2.44,1.155-4.844,2.473-7.14,3.997c-2.28,1.533-4.46,3.318-6.129,5.499l-0.614,0.824
			c-0.185,0.285-0.341,0.585-0.515,0.877c-0.38,0.573-0.586,1.214-0.855,1.832c-0.141,0.312-0.166,0.615-0.261,0.921
			c-0.074,0.312-0.187,0.584-0.198,0.981l-0.101,1.109c-0.001,0.009-0.017,0.177-0.005,0.055l0.01,0.125l0.019,0.251l0.035,0.501
			l0.032,0.502c0.025,0.165,0.074,0.329,0.109,0.494l0.226,0.99l0.375,0.96c0.064,0.16,0.12,0.323,0.189,0.481l0.254,0.459
			l0.504,0.922l0.618,0.871c0.383,0.6,0.9,1.119,1.369,1.67c1.972,2.146,4.415,3.95,7.015,5.538c2.611,1.579,5.381,2.985,8.25,4.248
			c5.754,2.503,11.87,4.475,18.151,6.114c6.279,1.66,12.748,2.927,19.299,3.994c6.554,1.062,13.207,1.867,19.908,2.44
			c6.706,0.595,13.439,0.961,20.206,1.107c6.756,0.138,13.52,0.06,20.247-0.256c6.725-0.351,13.413-0.934,20.014-1.778
			c6.599-0.859,13.107-2.021,19.447-3.527c6.346-1.481,12.515-3.382,18.345-5.796c2.904-1.227,5.725-2.58,8.375-4.147
			c2.641-1.568,5.132-3.358,7.163-5.511c0.482-0.556,1.015-1.072,1.413-1.68l0.641-0.877L205.266,48
			c0.396-0.604,0.572-1.291,0.86-1.93l0.239-0.967l0.122-0.482l0.049-0.558c0.22-1.401-0.053-2.745-0.418-4.055
			c-0.264-0.634-0.456-1.29-0.83-1.878c-0.169-0.3-0.326-0.605-0.502-0.9l-0.604-0.844c-1.64-2.235-3.794-4.071-6.05-5.653
			c-2.273-1.574-4.655-2.939-7.072-4.149c-4.835-2.424-9.783-4.242-14.586-5.78c-9.632-3.036-18.735-5.003-26.856-6.351
			c-8.124-1.355-15.274-2.174-21.176-2.613c-5.902-0.473-10.552-0.631-13.721-0.755C111.548,11.007,109.856,10.965,109.856,10.965z"
			/>
		<path style="fill:#1D1D1B;" d="M23.028,37.857c0.104-0.036-0.273,1.594,1.19,3.937c1.37,2.376,4.586,4.995,9.126,7.331
			c4.558,2.343,10.486,4.355,17.398,6.104c6.923,1.734,14.863,3.135,23.574,4.233c8.709,1.117,18.201,1.864,28.255,2.306
			c2.512,0.111,5.068,0.171,7.643,0.221c2.592,0.059,5.205,0.091,7.843,0.1c5.286-0.001,10.688-0.133,16.176-0.423
			c10.97-0.562,22.301-1.862,33.558-4.401c5.604-1.341,11.214-2.959,16.521-5.338c2.635-1.209,5.202-2.619,7.435-4.429
			c0.581-0.427,1.058-0.961,1.583-1.441c0.453-0.542,0.952-1.053,1.306-1.655c0.767-1.16,1.275-2.479,1.289-3.832l-0.095-1.046
			c-0.054-0.348-0.174-0.631-0.249-0.949c-0.057-0.312-0.266-0.62-0.389-0.931c-0.124-0.318-0.313-0.608-0.509-0.896
			c-0.344-0.599-0.834-1.111-1.276-1.65c-0.517-0.482-0.981-1.014-1.554-1.443c-2.195-1.814-4.729-3.236-7.333-4.466
			c-5.223-2.467-10.776-4.189-16.329-5.636c-11.141-2.834-22.39-4.487-33.307-5.502c-10.924-1.004-21.53-1.478-31.597-1.42
			c-10.052,0.063-19.567,0.489-28.306,1.31c-8.741,0.804-16.722,1.953-23.695,3.465c-6.963,1.528-12.949,3.356-17.579,5.55
			c-4.611,2.188-7.91,4.7-9.357,7.028c-0.208,0.271-0.356,0.554-0.481,0.826c-0.128,0.271-0.267,0.515-0.362,0.754
			c-0.139,0.496-0.302,0.905-0.354,1.25c-0.081,0.695-0.123,1.055-0.123,1.055L23.028,37.857z M22.828,37.866v-0.003
			c0,0,0.039-0.37,0.112-1.089c0.051-0.356,0.211-0.779,0.35-1.294c0.095-0.247,0.233-0.501,0.362-0.78
			c0.125-0.282,0.274-0.574,0.483-0.854c1.458-2.407,4.774-4.989,9.396-7.255c4.657-2.216,10.576-4.342,17.547-6.067
			c6.968-1.72,14.946-3.238,23.728-4.24c4.39-0.503,8.976-0.914,13.73-1.223c4.756-0.308,9.677-0.423,14.745-0.47
			c10.115-0.059,20.808,0.274,31.802,1.397c10.988,1.125,22.313,2.862,33.557,5.86c5.602,1.551,11.206,3.378,16.532,5.991
			c2.648,1.324,5.236,2.85,7.524,4.829c0.591,0.467,1.091,1.057,1.631,1.588c0.477,0.604,0.991,1.172,1.369,1.858
			c0.21,0.326,0.413,0.656,0.553,1.027c0.141,0.372,0.349,0.692,0.429,1.107c0.092,0.395,0.221,0.811,0.267,1.188l0.073,1.149
			c-0.047,1.606-0.678,3.116-1.547,4.373c-0.409,0.659-0.95,1.195-1.452,1.767c-0.563,0.499-1.086,1.055-1.697,1.486
			c-2.368,1.842-5.013,3.216-7.707,4.395c-5.396,2.37-11.047,3.952-16.686,5.259c-11.297,2.593-22.637,3.979-33.627,4.873
			c-11.003,0.836-21.674,1.111-31.795,0.736c-5.056-0.182-9.976-0.412-14.718-0.855c-4.742-0.442-9.313-0.982-13.687-1.608
			c-8.748-1.252-16.674-3.017-23.585-4.946c-6.914-1.94-12.762-4.25-17.348-6.605c-4.549-2.405-7.783-5.088-9.164-7.54
			c-0.2-0.286-0.34-0.583-0.456-0.869c-0.12-0.283-0.25-0.54-0.337-0.791c-0.123-0.521-0.271-0.958-0.309-1.312
			c-0.05-0.709-0.076-1.075-0.076-1.075L22.828,37.866z"/>
	</g>
</g>
<g>
	<path style="fill:#231F20;" d="M12.667,156.19c0.15-1.527,0.4-2.985,0.787-4.44c0.197-0.723,0.43-1.438,0.745-2.122
		c0.315-0.673,0.708-1.353,1.301-1.795c-0.473,0.562-0.679,1.264-0.827,1.953c-0.143,0.695-0.204,1.406-0.23,2.116
		c-0.046,1.416,0.042,2.866,0.224,4.241l0.002,0.013c0.073,0.552-0.315,1.058-0.867,1.131c-0.551,0.073-1.058-0.314-1.131-0.866
		C12.661,156.345,12.661,156.264,12.667,156.19z"/>
</g>
<g>
	<path style="fill:#231F20;" d="M204.722,159.128c0.225-0.594,0.405-1.3,0.525-1.976c0.118-0.685,0.187-1.383,0.161-2.078
		c-0.021-0.696-0.136-1.391-0.383-2.051c-0.25-0.658-0.652-1.271-1.203-1.769c0.646,0.358,1.216,0.893,1.646,1.536
		c0.428,0.645,0.731,1.377,0.929,2.131c0.204,0.755,0.305,1.532,0.349,2.312c0.036,0.789,0.026,1.544-0.083,2.38
		c-0.071,0.552-0.577,0.94-1.128,0.869c-0.552-0.072-0.94-0.577-0.869-1.129C204.674,159.277,204.695,159.197,204.722,159.128z"/>
</g>
<ellipse transform="matrix(0.0487 -0.9988 0.9988 0.0487 5.8743 157.5153)" style="fill:#FDC504;stroke:#1D1D1B;stroke-linecap:round;stroke-linejoin:round;stroke-miterlimit:10;" cx="85.627" cy="75.674" rx="5.898" ry="6.419"/>
<ellipse transform="matrix(0.3466 -0.938 0.938 0.3466 -38.2171 77.4682)" style="fill:#FDC504;stroke:#1D1D1B;stroke-linecap:round;stroke-linejoin:round;stroke-miterlimit:10;" cx="36.499" cy="66.167" rx="5.38" ry="5.962"/>
<ellipse transform="matrix(0.6054 -0.7959 0.7959 0.6054 -125.7446 80.1194)" style="fill:#FDC504;stroke:#1D1D1B;stroke-linecap:round;stroke-linejoin:round;stroke-miterlimit:10;" cx="17.936" cy="166.885" rx="4.349" ry="4.884"/>
<ellipse transform="matrix(0.998 -0.0627 0.0627 0.998 -3.542 1.0246)" style="fill:#FDC504;stroke:#1D1D1B;stroke-linecap:round;stroke-linejoin:round;stroke-miterlimit:10;" cx="14.544" cy="56.91" rx="3.642" ry="5.2"/>
<ellipse style="fill:#FDC504;stroke:#1D1D1B;stroke-linecap:round;stroke-linejoin:round;stroke-miterlimit:10;" cx="139.919" cy="76.377" rx="6.935" ry="6.379"/>
<path style="fill:#FDC504;stroke:#1D1D1B;stroke-linecap:round;stroke-linejoin:round;stroke-miterlimit:10;" d="M185.229,60.876
	c3.059,0,5.542,2.561,5.542,5.721c0,3.157-2.482,5.716-5.542,5.716c-3.058,0-5.54-2.559-5.54-5.716
	C179.689,63.437,182.172,60.876,185.229,60.876z"/>
<ellipse transform="matrix(-0.0095 -1 1 -0.0095 34.6208 372.1656)" style="fill:#FDC504;stroke:#1D1D1B;stroke-linecap:round;stroke-linejoin:round;stroke-miterlimit:10;" cx="201.629" cy="168.937" rx="4.896" ry="3.718"/>
<path style="fill:#FDC504;stroke:#1D1D1B;stroke-linecap:round;stroke-linejoin:round;stroke-miterlimit:10;" d="M204.667,52
	c2.053,0,3.719,2.157,3.719,4.819c0,2.664-1.666,4.821-3.719,4.821c-2.051,0-3.715-2.157-3.715-4.821
	C200.952,54.157,202.616,52,204.667,52z"/>
<ellipse style="fill:#FDC504;stroke:#1D1D1B;stroke-linecap:round;stroke-linejoin:round;stroke-miterlimit:10;" cx="114.302" cy="191.084" rx="6.528" ry="6.005"/>
<path style="fill:#FDC504;stroke:#1D1D1B;stroke-linecap:round;stroke-linejoin:round;stroke-miterlimit:10;" d="M167.901,179.746
	c3.354-0.26,6.265,2.031,6.506,5.117c0.234,3.085-2.289,5.797-5.643,6.057c-3.355,0.26-6.267-2.031-6.505-5.119
	C162.021,182.715,164.549,180.004,167.901,179.746z"/>
<ellipse transform="matrix(0.2352 -0.972 0.972 0.2352 -138.6446 192.8349)" style="fill:#FDC504;stroke:#1D1D1B;stroke-linecap:round;stroke-linejoin:round;stroke-miterlimit:10;" cx="53.207" cy="184.514" rx="5.627" ry="6.117"/>
<path style="fill:#E1AC04;stroke:#1D1D1B;stroke-linecap:round;stroke-linejoin:round;stroke-miterlimit:10;" d="M194.139,22.138
	L66.354,33.575c-1.417-4.099-5.473-6.872-9.988-6.467c-5.317,0.475-9.242,5.173-8.766,10.489c0.476,5.317,5.172,9.242,10.49,8.766
	c4.514-0.403,8.014-3.853,8.68-8.139l127.785-11.439L194.139,22.138z"/>
<path style="fill:#E1AC04;stroke:#1D1D1B;stroke-linecap:round;stroke-linejoin:round;stroke-miterlimit:10;" d="M185.305,10.621
	L87.4,43.451c-2.449-3.579-7.093-5.184-11.341-3.603c-5.003,1.861-7.549,7.429-5.687,12.432c1.862,5.004,7.428,7.549,12.431,5.688
	c4.247-1.583,6.713-5.834,6.225-10.144l97.905-32.828L185.305,10.621z"/>
<path style="fill:#E18D04;" d="M79.5,55c-3.715,0-6.791-2.705-7.388-6.25C72.044,49.157,72,49.573,72,50c0,4.142,3.358,7.5,7.5,7.5
	S87,54.142,87,50c0-0.427-0.044-0.843-0.112-1.25C86.291,52.295,83.215,55,79.5,55z"/>
<path style="fill:#E18D04;" d="M57,42.5c-3.715,0-6.791-2.705-7.388-6.25c-0.068,0.407-0.112,0.823-0.112,1.25
	c0,4.142,3.358,7.5,7.5,7.5s7.5-3.358,7.5-7.5c0-0.427-0.044-0.843-0.112-1.25C63.791,39.795,60.715,42.5,57,42.5z"/>
</svg>
