<?xml version="1.0" encoding="iso-8859-1"?>
<!-- Generator: Adobe Illustrator 21.1.0, SVG Export Plug-In . SVG Version: 6.00 Build 0)  -->
<svg version="1.1" id="Layer_1" xmlns="http://www.w3.org/2000/svg" xmlns:xlink="http://www.w3.org/1999/xlink" x="0px" y="0px"
	 viewBox="0 0 543.027 177" style="enable-background:new 0 0 543.027 177;" xml:space="preserve">
<g>
	<path style="fill:#C9E1E5;" d="M10.394,77.675v3.594c0,50.567,116.886,87.965,261.072,87.965s261.071-37.397,261.071-87.965v-4.277
		L10.394,77.675z"/>
	<path style="fill:#1D1D1B;" d="M10.496,77.775c0.016,1.506,0.003,3.018,0.046,4.518c0.059,1.533,0.226,3.062,0.499,4.57
		c0.545,3.019,1.517,5.953,2.815,8.727c2.61,5.56,6.464,10.453,10.829,14.747c4.378,4.301,9.286,8.038,14.423,11.395
		c5.14,3.36,10.519,6.351,16.031,9.065c11.035,5.421,22.569,9.789,34.282,13.534c11.724,3.724,23.64,6.841,35.652,9.508
		c24.038,5.308,48.455,8.823,72.965,11.118c24.511,2.361,49.141,3.41,73.769,3.507c24.63,0.084,49.272-0.9,73.808-3.141
		c24.532-2.238,48.958-5.839,73.015-11.166c12.015-2.716,23.924-5.914,35.625-9.745c11.692-3.844,23.197-8.315,34.184-13.848
		c5.486-2.772,10.838-5.815,15.932-9.24c5.085-3.43,9.93-7.24,14.214-11.609c4.27-4.362,7.992-9.322,10.424-14.896
		c1.213-2.781,2.084-5.707,2.53-8.697c0.224-1.495,0.342-3.004,0.354-4.515l-0.012-4.616l0.658,0.658l-130.536,0.492l-65.268,0.165
		l-65.268,0.049c-43.512,0.089-87.024-0.095-130.537-0.155l-65.268-0.13L10.496,77.775z M10.295,77.576l65.367-0.466l65.268-0.301
		c43.512-0.175,87.023-0.472,130.535-0.497l65.268-0.122l65.268-0.006l130.536,0.15l0.661,0.001l-0.003,0.657l-0.018,4.629
		c-0.021,1.571-0.154,3.14-0.396,4.691c-0.483,3.104-1.407,6.129-2.676,8.989c-2.544,5.734-6.39,10.768-10.747,15.176
		c-4.372,4.417-9.285,8.245-14.429,11.681c-5.152,3.432-10.551,6.469-16.077,9.23c-11.065,5.51-22.626,9.943-34.363,13.744
		c-11.744,3.794-23.691,6.924-35.727,9.617c-24.066,5.449-48.52,9.02-73.059,11.502c-24.549,2.452-49.221,3.64-73.895,3.753
		c-49.322,0.109-98.835-3.92-147.076-14.64c-12.045-2.706-23.996-5.876-35.734-9.729c-11.732-3.852-23.285-8.329-34.342-13.869
		c-11.01-5.556-21.682-12.154-30.457-20.942c-4.349-4.392-8.182-9.391-10.747-15.047c-1.276-2.823-2.22-5.802-2.729-8.858
		c-0.256-1.527-0.404-3.071-0.443-4.618c-0.024-1.548,0.011-3.084,0.013-4.626L10.295,77.576z"/>
</g>
<g>
	<path style="fill:#E9F2F3;" d="M532.538,78.757c0,45.589-116.885,84.518-261.071,84.518S10.394,124.346,10.394,78.757
		c0-37.63,116.886-70.732,261.072-70.732S532.538,33.167,532.538,78.757z"/>
	<path style="fill:#1D1D1B;" d="M532.638,78.757c0.036,6.015-2.11,11.876-5.35,16.879c-3.245,5.038-7.472,9.365-12.041,13.2
		c-9.204,7.657-19.77,13.453-30.562,18.517c-10.839,5.02-22.066,9.162-33.45,12.761c-11.39,3.591-22.949,6.631-34.599,9.258
		c-23.301,5.271-46.97,8.796-70.727,11.201c-23.765,2.403-47.653,3.441-71.529,3.524c-47.74-0.023-95.557-4.141-142.326-13.782
		c-11.684-2.438-23.273-5.321-34.739-8.641c-11.459-3.335-22.784-7.184-33.787-11.844c-10.978-4.682-21.714-10.119-31.425-17.159
		c-4.832-3.532-9.406-7.485-13.281-12.1c-3.852-4.596-7.026-9.955-8.335-15.92c-0.627-2.966-0.902-6.047-0.394-9.099
		c0.506-3.038,1.742-5.903,3.355-8.477c3.269-5.16,7.854-9.255,12.684-12.802c4.864-3.541,10.086-6.534,15.437-9.226
		c5.357-2.685,10.86-5.058,16.437-7.222c11.161-4.32,22.61-7.83,34.166-10.873c11.561-3.038,23.25-5.551,34.994-7.736
		c47.016-8.616,94.848-12.129,142.591-12.222c23.873,0.001,47.754,0.597,71.581,2.178c23.82,1.587,47.608,3.961,71.188,7.763
		c11.788,1.895,23.525,4.134,35.15,6.86c11.62,2.735,23.143,5.951,34.369,10.031c11.181,4.13,22.231,8.953,32.03,15.842
		c4.86,3.457,9.41,7.472,12.898,12.353c1.733,2.437,3.18,5.093,4.167,7.922C532.132,72.77,532.646,75.764,532.638,78.757z
		 M532.438,78.756c-0.004-2.971-0.527-5.936-1.52-8.734c-0.99-2.802-2.435-5.43-4.166-7.842c-3.482-4.831-8.022-8.807-12.875-12.228
		c-4.874-3.419-10.107-6.302-15.482-8.858c-5.379-2.558-10.919-4.767-16.536-6.745c-11.239-3.955-22.767-7.046-34.388-9.656
		c-11.627-2.603-23.364-4.695-35.146-6.457c-23.574-3.481-47.318-5.747-71.105-7.163c-23.79-1.393-47.624-2.078-71.458-2.017
		c-23.828,0.047-47.651,1.038-71.4,2.934c-23.744,1.916-47.421,4.811-70.854,9.076c-11.715,2.134-23.361,4.639-34.892,7.585
		c-11.525,2.959-22.941,6.383-34.057,10.607c-5.554,2.116-11.03,4.438-16.353,7.065c-5.315,2.633-10.496,5.562-15.3,9.015
		c-4.771,3.456-9.271,7.445-12.437,12.38c-1.563,2.461-2.748,5.174-3.241,8.028c-0.496,2.842-0.257,5.818,0.33,8.672
		c1.231,5.742,4.284,10.975,8.047,15.502c3.781,4.545,8.282,8.473,13.055,11.993c9.592,7.019,20.258,12.483,31.178,17.195
		c21.925,9.345,45.032,15.711,68.358,20.53c23.349,4.825,47.014,8.031,70.76,10.064c23.75,2.038,47.592,2.895,71.42,2.739
		c23.831-0.097,47.648-1.341,71.365-3.592c23.715-2.275,47.322-5.749,70.627-10.703c11.647-2.499,23.21-5.406,34.606-8.876
		c11.392-3.475,22.633-7.494,33.494-12.393c5.428-2.451,10.756-5.132,15.891-8.15c5.134-3.015,10.097-6.341,14.678-10.144
		c4.565-3.804,8.787-8.096,12.03-13.091C530.303,90.531,532.451,84.73,532.438,78.756z"/>
</g>
<path style="fill:#FFFFFF;" d="M520.192,77.829c0,43.435-111.357,80.612-248.726,80.612S22.74,121.264,22.74,77.829
	c0-36.702,111.358-66.83,248.727-66.83S520.192,34.398,520.192,77.829z"/>
<path style="fill:#9CC9D3;" d="M453.279,85.576v-4.438c0-35.219-81.401-47.061-181.815-47.061
	c-100.411,0-181.81,11.843-181.81,47.061v4.914L453.279,85.576z"/>
<path style="fill:#C9E1E5;" d="M89.654,84.823c0-31.749,81.399-42.719,181.81-42.719c100.413,0,181.815,10.97,181.815,42.719
	c0,31.748-81.401,59.454-181.815,59.454C171.054,144.277,89.654,116.571,89.654,84.823z"/>
<path style="fill:#E28B8B;" d="M89.654,84.823c0-31.749,81.399-42.719,181.81-42.719c100.413,0,181.815,10.97,181.815,42.719
	c0,31.748-81.401,59.454-181.815,59.454C171.054,144.277,89.654,116.571,89.654,84.823z"/>
<path style="fill:#FFFFFF;" d="M89.298,78.995c0-31.467,81.559-42.339,182.167-42.339c100.61,0,182.17,10.872,182.17,42.339
	c0,31.463-81.56,58.923-182.17,58.923C170.857,137.918,89.298,110.458,89.298,78.995z"/>
<path style="fill:#E9F2F3;" d="M428.65,59.662c1.42,0.57,2.784,1.157,4.094,1.76C431.54,60.605,430.152,60.048,428.65,59.662z"/>
<path style="fill:#E28B8B;" d="M459.489,83.074v-4.438c0-35.219-81.401-47.062-181.814-47.062
	c-100.411,0-181.811,11.843-181.811,47.062v4.914L459.489,83.074z"/>
<path style="fill:#C9E1E5;" d="M95.864,82.321c0-31.749,81.399-42.719,181.811-42.719c100.413,0,181.814,10.97,181.814,42.719
	c0,31.748-81.401,59.454-181.814,59.454C177.264,141.775,95.864,114.069,95.864,82.321z"/>
<path style="fill:#E9F2F3;" d="M95.864,82.321c0-31.749,81.399-42.719,181.811-42.719c100.413,0,181.814,10.97,181.814,42.719
	c0,31.748-81.401,59.454-181.814,59.454C177.264,141.775,95.864,114.069,95.864,82.321z"/>
<path style="fill:#FFFFFF;" d="M95.507,76.493c0-31.467,81.56-42.339,182.168-42.339c100.61,0,182.17,10.872,182.17,42.339
	c0,31.463-81.56,58.923-182.17,58.923C177.066,135.416,95.507,107.956,95.507,76.493z"/>
<path style="fill:#F1AA4C;" d="M507.751,52.853C507.98,53.039,507.997,52.957,507.751,52.853L507.751,52.853z"/>
</svg>
