<?xml version="1.0" encoding="iso-8859-1"?>
<!-- Generator: Adobe Illustrator 21.1.0, SVG Export Plug-In . SVG Version: 6.00 Build 0)  -->
<svg version="1.1" id="cupboard" xmlns="http://www.w3.org/2000/svg" xmlns:xlink="http://www.w3.org/1999/xlink" x="0px" y="0px"
	 width="318.185px" height="212.475px" viewBox="0 0 318.185 212.475" style="enable-background:new 0 0 318.185 212.475;"
	 xml:space="preserve">
<polygon style="fill:#A8D1E2;" points="308.782,25.924 308.782,203.189 279.806,179.279 279.589,118.334 279.351,7.189 "/>
<path style="fill:#C3996B;stroke:#000000;stroke-width:0.75;stroke-linecap:round;stroke-linejoin:round;stroke-miterlimit:10;" d="
	M163.582,23.646v184.639h150.269l-0.032-184.639C313.819,23.646,163.582,23.646,163.582,23.646z M170.071,29.479h138.11V202.69
	h-138.11V29.479z"/>
<polygon style="fill:#A8D1E2;" points="8.753,25.924 8.753,203.189 37.729,179.279 37.946,118.334 38.185,7.189 "/>
<polygon style="fill:#DFF4F3;" points="177.685,179.285 280.189,179.189 279.851,10.167 177.685,9.818 177.685,9.689 158.768,9.754 
	139.851,9.689 139.851,9.818 37.685,10.167 37.347,179.189 139.851,179.285 139.851,179.32 158.768,179.303 177.685,179.32 "/>
<polygon style="fill:#C3996B;stroke:#000000;stroke-width:0.75;stroke-linecap:round;stroke-linejoin:round;stroke-miterlimit:10;" points="
	280.904,179.08 36.631,179.08 6.853,203.648 310.682,203.648 "/>
<polygon style="fill:#A87C4F;stroke:#231F20;stroke-width:0.75;stroke-miterlimit:10;" points="307.821,114.892 278.983,97.367 
	174.224,97.367 108.103,97.367 38.552,97.367 9.714,114.892 9.425,120.465 135.5,120.465 146.826,120.465 308.11,120.465 "/>
<polygon style="fill:#C3996B;stroke:#000000;stroke-width:0.75;stroke-linecap:round;stroke-linejoin:round;stroke-miterlimit:10;" points="
	278.983,91.867 38.552,91.867 9.425,114.965 308.11,114.965 "/>
<path style="fill:#C3996B;stroke:#000000;stroke-width:0.75;stroke-linecap:round;stroke-linejoin:round;stroke-miterlimit:10;" d="
	M3.717,23.646L3.685,208.285H314.5V23.646H3.717z M308.011,202.689H9.354V29.479h298.657L308.011,202.689L308.011,202.689z"/>
<polygon style="fill:#9F6C46;stroke:#000000;stroke-width:0.75;stroke-linecap:round;stroke-linejoin:round;stroke-miterlimit:10;" points="
	275.476,4.189 42.06,4.189 3.717,23.646 313.818,23.646 "/>
</svg>
