<?xml version="1.0" encoding="iso-8859-1"?>
<!-- Generator: Adobe Illustrator 21.1.0, SVG Export Plug-In . SVG Version: 6.00 Build 0)  -->
<svg version="1.1" id="cupboard" xmlns="http://www.w3.org/2000/svg" xmlns:xlink="http://www.w3.org/1999/xlink" x="0px" y="0px"
	 width="131.413px" height="117.309px" viewBox="0 0 131.413 117.309" style="enable-background:new 0 0 131.413 117.309;"
	 xml:space="preserve">
<g>
	<path style="fill:#1479E8;" d="M129.083,36L102.75,24c0,0-82.833,23.458-99.5,43.792C0.826,70.749,3.94,87.411,7.417,89
		c23.333,10.666,73.667,26,73.667,26L129.083,36z"/>
	<g>
		<path d="M129.028,36.018l-3.313-1.352l-3.316-1.446c-2.202-0.983-4.441-1.884-6.613-2.935l-6.532-3.111
			c-2.174-1.045-4.347-2.093-6.568-3.034l0.106,0.008c-16.807,4.929-33.448,10.463-49.788,16.763
			c-8.162,3.167-16.248,6.542-24.129,10.342c-3.94,1.898-7.828,3.908-11.596,6.117c-3.754,2.22-7.433,4.614-10.688,7.495
			c-0.809,0.723-1.59,1.476-2.316,2.276c-0.342,0.404-0.765,0.813-0.965,1.207c-0.218,0.431-0.337,0.949-0.42,1.467
			c-0.294,2.104-0.109,4.303,0.158,6.449c0.289,2.153,0.725,4.291,1.329,6.375c0.305,1.04,0.65,2.069,1.077,3.055
			c0.431,0.971,0.923,1.967,1.638,2.651c0.19,0.172,0.346,0.28,0.591,0.385l0.747,0.338l1.498,0.664l3.016,1.289
			c2.017,0.844,4.047,1.663,6.083,2.462c4.074,1.599,8.176,3.129,12.293,4.62c8.233,2.982,16.528,5.796,24.84,8.558
			c8.309,2.769,16.646,5.464,25.009,8.062l-0.333,0.127L129.028,36.018z M129.116,36.02l-47.784,79.131
			c-0.07,0.116-0.209,0.165-0.332,0.128c-16.766-5.115-33.445-10.513-49.929-16.488c-4.12-1.496-8.226-3.031-12.307-4.636
			c-2.041-0.803-4.074-1.625-6.097-2.473l-3.025-1.296l-1.505-0.668l-0.749-0.339c-0.261-0.108-0.567-0.306-0.776-0.509
			c-0.872-0.846-1.35-1.877-1.809-2.893c-0.442-1.025-0.794-2.077-1.105-3.139c-0.614-2.125-1.054-4.291-1.347-6.48
			c-0.269-2.189-0.464-4.405-0.152-6.649c0.093-0.56,0.213-1.126,0.489-1.677C3,67.452,3.4,67.103,3.758,66.672
			c0.747-0.822,1.545-1.591,2.37-2.326c3.316-2.929,7.024-5.334,10.803-7.566c3.792-2.22,7.696-4.234,11.65-6.135
			c7.92-3.78,16.04-7.109,24.228-10.239c8.192-3.122,16.466-6.021,24.787-8.772c8.322-2.749,16.686-5.366,25.112-7.782
			c0.035-0.011,0.075-0.006,0.106,0.008c2.167,1.06,4.383,2.012,6.599,2.966l6.634,2.889c2.218,0.949,4.367,2.048,6.554,3.064
			l3.267,1.554l3.231,1.632c0.019,0.009,0.027,0.031,0.019,0.05C129.117,36.017,129.116,36.019,129.116,36.02z"/>
	</g>
</g>
<g>
	<path style="fill:#26A9E0;" d="M81.25,114.917l48-78.5L102.75,24c0,0-51.25,10.417-45.25,35.667"/>
	<path d="M81.218,114.897l5.879-9.886l5.953-9.841l11.915-19.677c4.001-6.541,8.051-13.052,12.099-19.565
		c4.023-6.527,8.094-13.025,12.079-19.577l0.054,0.179l-26.562-12.284l0.169,0.02c-5.12,1.179-10.179,2.69-15.128,4.463
		c-4.936,1.806-9.796,3.854-14.365,6.44c-4.528,2.602-8.93,5.636-12.167,9.767c-1.601,2.056-2.872,4.396-3.509,6.933
		c-0.659,2.528-0.669,5.218-0.099,7.789c0.004,0.021-0.008,0.041-0.029,0.045c-0.02,0.004-0.039-0.008-0.044-0.027
		c-0.661-2.556-0.773-5.286-0.17-7.89c0.6-2.605,1.854-5.027,3.448-7.158c1.6-2.135,3.525-4.004,5.595-5.67
		c2.069-1.672,4.293-3.141,6.6-4.45c4.614-2.623,9.495-4.737,14.489-6.486c4.996-1.75,10.082-3.216,15.272-4.288
		c0.06-0.013,0.119-0.004,0.17,0.02l26.438,12.549c0.062,0.029,0.09,0.104,0.061,0.167l-0.007,0.013
		c-4.015,6.532-7.944,13.117-11.921,19.673c-3.952,6.571-7.903,13.143-11.901,19.686L93.45,95.414l-6.047,9.784l-6.121,9.739
		c-0.011,0.018-0.034,0.023-0.052,0.012C81.213,114.937,81.207,114.915,81.218,114.897z"/>
</g>
<path style="fill:#FFFBCE;" d="M9.083,85.667c2.589,2.046,6.7,3.773,9.121,4.581c8.215,2.741,17.009,4.781,33.081,10.273
	c11.816,4.038,23.126,9.379,26.798,8.813c1.042-0.16,5.333-14.667,5.333-14.667l-6.667-10c0,0-21.241-6.346-36-12
	c-6.5-2.49-28.194-8.062-33.366-4.938c-5.171,3.123-1.634,9.605-1.634,9.605S5.339,82.708,9.083,85.667z"/>
<g>
	<path style="fill:#EAE9DC;" d="M119.75,16.334L84.595,50.519L77.084,84c0,0-1.339,13.055,1,17.333c1.385,2.533,0,8,0,8
		l45.333-70.667c0,0-2.019-11.318-3.333-13C117.279,22.08,119.75,16.334,119.75,16.334z"/>
	<path d="M119.768,16.352l-17.495,17.178L84.738,50.666l0.057-0.102c-1.213,5.589-2.511,11.159-3.777,16.735l-3.821,16.726
		l0.002-0.013c-0.209,2.123-0.336,4.259-0.39,6.393c-0.043,2.134-0.032,4.276,0.208,6.397c0.124,1.058,0.293,2.115,0.598,3.132
		c0.154,0.51,0.347,0.996,0.604,1.466c0.251,0.488,0.382,1.025,0.471,1.557c0.293,2.153-0.021,4.312-0.479,6.409l-0.24-0.104
		l22.58-35.389L111.875,56.2l11.393-17.629l-0.025,0.127c-0.338-1.901-0.707-3.8-1.111-5.69c-0.412-1.886-0.835-3.776-1.421-5.609
		c-0.151-0.455-0.312-0.911-0.524-1.329c-0.209-0.389-0.562-0.779-0.769-1.228c-0.457-0.877-0.678-1.856-0.736-2.83
		c-0.104-1.955,0.324-3.895,1.046-5.689L119.768,16.352z M119.773,16.343c-0.678,1.8-1.058,3.743-0.911,5.657
		c0.077,0.954,0.321,1.895,0.765,2.733c0.206,0.433,0.526,0.762,0.782,1.22c0.229,0.443,0.393,0.902,0.552,1.363
		c0.607,1.849,1.045,3.738,1.473,5.626c0.419,1.891,0.804,3.788,1.158,5.693c0.008,0.045-0.002,0.091-0.025,0.127l-11.274,17.705
		l-11.343,17.66l-22.753,35.277c-0.04,0.062-0.122,0.08-0.184,0.04c-0.048-0.031-0.069-0.091-0.057-0.144
		c0.473-2.059,0.804-4.211,0.536-6.313c-0.081-0.521-0.203-1.037-0.438-1.505c-0.253-0.47-0.456-0.983-0.606-1.498
		c-0.304-1.036-0.468-2.1-0.587-3.165c-0.22-2.133-0.273-4.277-0.237-6.418c0.038-2.141,0.15-4.279,0.344-6.414l0.002-0.014
		l3.691-16.755c1.238-5.583,2.443-11.174,3.734-16.746c0.009-0.04,0.03-0.075,0.058-0.102l17.62-17.049l17.66-17.008
		c0.01-0.009,0.026-0.009,0.036,0.001C119.775,16.323,119.776,16.335,119.773,16.343z"/>
</g>
<path style="fill:#F5E4C8;" d="M70.75,94.667c0.311-0.585-24.867-9.132-35.421-11.703C24.49,80.5,19.083,76.667,10.75,78.334
	c6.333,2,13.608,3.144,24.114,6.254C45.037,87.765,70.447,95.294,70.75,94.667z"/>
<path style="fill:#F5E4C8;" d="M57.75,94c0.158-0.6-18.678-7.889-27.333-9.666c-8.863-1.652-12.667-4-19.333-3.334
	c6,1,11.303,2.688,20,5C39.529,88.404,57.604,94.64,57.75,94z"/>
<path style="fill:#F5E4C8;" d="M71.083,90.333c0.311-0.585-24.867-9.132-35.421-11.703c-10.839-2.464-14.156-4.835-25.579-4.964
	c7.667,2.667,14.608,3.478,25.114,6.587C45.37,83.432,70.78,90.96,71.083,90.333z"/>
<path style="fill:#F5E4C8;" d="M19.04,85.614c12.463,1.977,16.575,4.168,27.901,8.51C57.95,98.488,71.258,102.212,74.75,103
	c0.439-0.617-16.042-6.267-27.319-10.135C35.838,89.029,31.563,87.267,19.04,85.614z"/>
<g>
	<path style="fill:#26A9E0;" d="M55.279,10.855c0,0,5.89-8.113,11.041-8.549C71.472,1.87,76.612,2.778,83.417,5
		c6.805,2.223,10.667,2.667,21.333,4.666c10.576,1.983,21,8,21,8S109.153,37.726,104.417,46
		c-4.735,8.274-15.667,24.667-19.333,31.667c-1.75,3.341-8,10.667-8,10.667S32.642,72.706,21.864,70.948
		c-9.604-1.566-18.447-3.282-18.447-3.282l52.107-56.969"/>
	<path d="M55.249,10.833c1.901-2.538,4.051-4.928,6.643-6.805c1.301-0.907,2.755-1.715,4.396-1.891
		c1.585-0.147,3.194-0.151,4.783-0.048c3.187,0.216,6.319,0.899,9.379,1.763c1.532,0.426,3.045,0.933,4.554,1.394
		c1.513,0.46,3.039,0.872,4.579,1.232c6.167,1.444,12.473,2.159,18.688,3.651c6.173,1.645,12.054,4.181,17.639,7.26
		c0.152,0.084,0.207,0.275,0.123,0.428l-0.032,0.048l-0.005,0.006c-4.564,5.513-9.055,11.093-13.398,16.781
		c-2.163,2.85-4.304,5.72-6.293,8.689c-1.011,1.475-1.882,3.027-2.803,4.571c-0.921,1.538-1.864,3.061-2.812,4.581
		c-3.814,6.064-7.685,12.092-11.394,18.217c-0.927,1.531-1.845,3.067-2.73,4.621c-0.897,1.533-1.647,3.186-2.706,4.654
		c-2.05,2.954-4.299,5.747-6.591,8.507c-0.065,0.079-0.175,0.103-0.266,0.072c-6.036-2.087-12.087-4.134-18.149-6.146
		c-6.065-2-12.125-4.016-18.219-5.923c-3.046-0.956-6.098-1.891-9.163-2.776c-3.065-0.871-6.143-1.752-9.25-2.345
		c-6.296-1.031-12.597-2.147-18.875-3.347c-0.198-0.038-0.328-0.229-0.29-0.426c0.013-0.068,0.046-0.13,0.09-0.179l13.029-14.24
		l13.091-14.183L42.36,24.814l13.136-14.142c0.014-0.015,0.038-0.016,0.053-0.002c0.015,0.014,0.016,0.038,0.002,0.053
		L42.635,25.066L29.673,39.367L16.71,53.668L3.687,67.913l-0.2-0.604c6.271,1.205,12.551,2.323,18.862,3.363
		c3.17,0.609,6.242,1.495,9.318,2.373c3.071,0.892,6.126,1.831,9.175,2.791c12.193,3.841,24.273,8.014,36.322,12.269l-0.266,0.071
		c2.314-2.721,4.598-5.487,6.652-8.404c1.056-1.435,1.805-3.058,2.724-4.608c0.898-1.552,1.827-3.085,2.765-4.611
		c3.768-6.094,7.663-12.106,11.393-18.219c0.936-1.526,1.865-3.056,2.771-4.598c0.9-1.54,1.771-3.121,2.774-4.609
		c1.974-2.999,4.092-5.892,6.238-8.762c4.308-5.73,8.758-11.345,13.288-16.9l0.086,0.482c-5.528-3.026-11.4-5.528-17.485-7.183
		c-6.123-1.487-12.459-2.282-18.644-3.771c-1.547-0.374-3.082-0.802-4.601-1.275c-1.521-0.478-3.014-0.99-4.536-1.426
		c-3.035-0.88-6.133-1.579-9.281-1.815c-1.576-0.117-3.148-0.112-4.726,0.004c-1.543,0.134-2.986,0.887-4.282,1.758
		c-2.591,1.801-4.786,4.147-6.726,6.641c-0.012,0.017-0.035,0.021-0.052,0.009C55.241,10.874,55.237,10.849,55.249,10.833z"/>
</g>
<g>
	<path style="fill:#DCD4D9;" d="M41.75,50.667c2.91-0.486,5.861-0.391,8.772-0.072c2.912,0.345,5.795,0.994,8.587,1.947
		c1.394,0.482,2.767,1.033,4.101,1.672c0.659,0.32,1.339,0.663,1.958,1.012c0.618,0.336,1.22,0.655,1.852,0.976
		c2.508,1.281,5.118,2.458,7.73,3.798c-2.944-0.128-5.815-0.724-8.629-1.617c-0.696-0.227-1.411-0.486-2.09-0.769l-1.958-0.792
		c-1.3-0.51-2.611-0.994-3.936-1.443C52.834,53.551,47.396,52.174,41.75,50.667z"/>
</g>
<g>
	<path style="fill:#DCD4D9;" d="M44.145,55.31c2.009-0.312,4.004-0.241,5.972,0.006c1.965,0.26,3.903,0.724,5.778,1.383
		c1.87,0.653,3.698,1.521,5.365,2.571c1.604,1.031,3.248,2.013,4.878,3.236c-2.028-0.038-4.002-0.451-5.885-1.103l-5.354-1.875
		c-1.776-0.628-3.556-1.259-5.347-1.93C47.762,56.916,45.958,56.224,44.145,55.31z"/>
</g>
<path style="fill:#C5C3C2;" d="M97.821,63.449c-8.979,12.749-16.167,23.9-15.976,24.493c-0.039-0.155,7.167-10.789,16.15-23.546
	c8.969-12.823,16.252-23.123,16.22-23.341C114.166,40.728,106.796,50.618,97.821,63.449z"/>
<path style="fill:#C5C3C2;" d="M85.294,95.571c0.03,0.09,7.41-11.086,16.537-24.871c9.12-13.788,16.457-25.289,16.366-25.634
	c-0.036-0.131-7.444,10.935-16.57,24.733C92.504,83.575,85.188,95.198,85.294,95.571z"/>
<path style="fill:#C5C3C2;" d="M83.854,91.82c0.031,0.095,7.806-11.713,17.422-26.281c9.607-14.57,17.337-26.723,17.243-27.088
	c-0.038-0.138-7.843,11.557-17.456,26.136C91.451,79.145,83.744,91.426,83.854,91.82z"/>
<path style="fill:#C5C3C2;" d="M80.123,86.757c0.031,0.096,8.037-11.028,17.652-25.595c9.607-14.57,20.113-29.848,20.019-30.213
	c-0.038-0.137-10.849,13.996-20.462,28.577C87.72,74.083,80.012,86.364,80.123,86.757z"/>
<path style="fill:#C5C3C2;" d="M93.826,79.745c-0.032-0.155-2.922,3.912-6.458,9.083c-3.536,5.171-6.376,9.488-6.345,9.641
	c0.03,0.153,2.921-3.912,6.457-9.082C91.016,84.215,93.856,79.899,93.826,79.745z"/>
<path style="fill:#C5C3C2;" d="M109.329,56.183c3.536-5.172,6.377-9.49,6.347-9.644c-0.031-0.153-2.922,3.915-6.458,9.084
	c-3.535,5.17-6.375,9.487-6.346,9.642C102.903,65.418,105.794,61.352,109.329,56.183z"/>
<path style="fill:#FFFFFF;stroke:#DEE8D4;stroke-width:2;stroke-linecap:round;stroke-linejoin:round;stroke-miterlimit:10;" d="
	M106.6,29.987c0.338,0.137,0.89,0.246,1.743,0.105c-0.563-0.234-1.048-0.481-1.436-0.76c0.1-0.182,0.193-0.345,0.267-0.448
	c0.197-0.273-0.121-0.341-0.536-0.268c-0.288-0.702-1.109-1.329-2.684-1.758c-0.669-0.214-1.122-0.364-1.561-0.523
	c-0.155-0.056-0.31-0.113-0.47-0.174c-0.782-0.436-1.367-0.778-1.777-1.086c-0.022-0.016-0.052-0.035-0.073-0.051
	c-0.102-0.079-0.178-0.154-0.254-0.23c-0.027-0.026-0.065-0.055-0.09-0.081c-0.062-0.068-0.1-0.136-0.142-0.203
	c-0.02-0.032-0.052-0.064-0.067-0.097c-0.03-0.064-0.037-0.129-0.049-0.193c-0.007-0.037-0.025-0.073-0.027-0.11
	c-0.002-0.059,0.019-0.123,0.031-0.184c0.009-0.046,0.008-0.09,0.025-0.138c0.019-0.052,0.058-0.109,0.086-0.163
	c0.034-0.065,0.058-0.127,0.105-0.196c-0.635,0.094-1.166,0.303-1.581,0.573c-3.349-1.833-9.221-4.078-18.309-4.409
	c-4.152-0.151-18.053-2.927-18.053-2.927c-0.993-0.215-2.259,1.412-2.854,1.92l-4.951,6.022c-0.148,0.021-0.298,0.029-0.445,0.058
	l-2.067,2.584c-0.045-0.012-0.089-0.028-0.135-0.04l-0.921,1.36L49.5,29.667c0.018,0.036,0.049,0.062,0.069,0.097l-0.648,0.957
	l-0.657,0.8l-1.381,1.663c-0.302,0.266-0.664,0.649-0.828,0.996l-0.061,0.074l0.031,0.006c-0.038,0.099-0.055,0.191-0.047,0.275
	c-0.188,0.39-0.206,0.685,0.103,0.752c0,0,6.066,0.841,11.942,1.76l-0.263,0.224l0.74,0.16l0,0l0.851,0.184l0.117,0.025l0,0
	l0.186,0.04l0.371-0.316c2.939,0.474,5.64,0.945,7.27,1.312c2.507,0.565,8.07,2.145,11.585,3.161
	c-0.95,0.343-2.105,1.108-2.105,1.108s11.57,4.022,11.59,4.035c0.42-0.183,1.151-1.247,1.649-2.035
	c0.099,0.056,0.203,0.109,0.298,0.167c0.14,0.055,0.274,0.091,0.404,0.117c0.041,0.008,0.078,0.011,0.118,0.017
	c0.087,0.012,0.17,0.021,0.249,0.021c0.039,0.001,0.074,0,0.111-0.002c0.073-0.004,0.138-0.014,0.199-0.027
	c0.027-0.006,0.056-0.01,0.081-0.018c0.069-0.022,0.127-0.049,0.17-0.082c0.004-0.003,0.014-0.005,0.018-0.009
	c-0.002,0-0.003,0.001-0.005,0.001c0.124-0.102,0.119-0.244-0.091-0.385c-0.048-0.032-0.143-0.096-0.268-0.177
	c0.081-0.012,0.158-0.013,0.24-0.028c1.569-1.684,2.55-3.625,2.9-5.268c0.07-0.234,0.119-0.451,0.134-0.639
	c1.283,0.08,3.159,0.144,4.526-0.031c0.007,0,0.012,0.001,0.019,0c1.649-0.085,1.865-1.429,1.45-2.42
	c2.662-1.202,4.502-3.065,4.911-3.884c0.608-0.168,1.186-1.024,0.776-1.531c0.013-0.014,0.018-0.038,0.027-0.055
	c0.329,0.135,0.86,0.239,1.681,0.12c-0.547-0.249-1.013-0.51-1.375-0.802C106.591,30.013,106.595,30,106.6,29.987z M77.187,40.176
	c0.778,0.386,1.549,0.774,2.316,1.165c-0.046,0.019-0.091,0.036-0.135,0.054c-0.862-0.438-1.734-0.87-2.61-1.301L77.187,40.176z
	 M99.553,35.153c-0.178-0.045-0.366-0.035-0.557,0.038c0.005-0.002,0.011-0.007,0.017-0.01c-1.302,0.548-4.694,0.585-5.588,0.586
	c-0.153-0.064-0.319-0.112-0.504-0.135c-0.015-0.002-0.029,0-0.044-0.002c0.047-0.115,0.131-0.24,0.28-0.375
	c0.001-0.001,0.002-0.002,0.003-0.003c0.318-0.284,0.91-0.603,1.957-0.93c0.103-0.032,0.221-0.067,0.332-0.101
	c0.179,0.214,0.509,0.441,1.153,0.578c2.325,0.494,4.123-0.385,4.326-1.188c0.003,0.006,0.008,0.012,0.01,0.019
	c0.669-0.101,1.355-0.303,2.014-0.578C102.199,34.034,100.715,34.731,99.553,35.153z"/>
<g>
	<g>
		<path style="fill:#BDECDD;" d="M91.887,43.488c-0.595,0.507-1.893,0.747-2.887,0.533c0,0-16.409-5.568-22.054-6.745
			c-5.062-1.056-20.549-2.364-20.549-2.364c-0.993-0.214-0.052-1.274,0.542-1.781l11.956-14.544c0.595-0.508,1.861-2.135,2.854-1.92
			c0,0,13.901,2.776,18.053,2.927c15.697,0.573,21.853,6.861,21.853,6.861c0.993,0.214-9.931,10.131-10.526,10.639L91.887,43.488z"
			/>
		<g>
			<g>
				
					<linearGradient id="SVGID_1_" gradientUnits="userSpaceOnUse" x1="123.5542" y1="70.5878" x2="123.5542" y2="46.4644" gradientTransform="matrix(0.8803 0.4744 -0.4744 0.8803 -10.5802 -75.5985)">
					<stop  offset="0" style="stop-color:#BDECDD"/>
					<stop  offset="1" style="stop-color:#FFFFF5"/>
				</linearGradient>
				<path style="fill:url(#SVGID_1_);" d="M56.167,31.857c1.814,0.392,3.679,0.616,5.438,0.687c0.477,1.337,3.115,2.761,7.104,3.623
					c4.568,0.985,9.466,0.925,12.131-0.03c1.901,0.69,4.477,1.446,7.828,2.263l5.952-5.079c-2.11-0.387-4.069-0.695-5.856-0.93
					c0.191-0.115,0.364-0.236,0.514-0.364c2.294-1.959-1.26-4.715-7.94-6.156c-6.396-1.381-13.335-1.055-15.926,0.696
					c-0.715-0.225-1.484-0.434-2.324-0.615c-3.822-0.826-6.802-1.836-9.587-1.284l-4,5C50.128,30.955,52.344,31.03,56.167,31.857z"
					/>
			</g>
			<g>
				
					<linearGradient id="SVGID_2_" gradientUnits="userSpaceOnUse" x1="121.6826" y1="70.8041" x2="121.6826" y2="56.3875" gradientTransform="matrix(0.8803 0.4744 -0.4744 0.8803 -10.5802 -75.5985)">
					<stop  offset="0" style="stop-color:#BDECDD"/>
					<stop  offset="1" style="stop-color:#FFFFF5"/>
				</linearGradient>
				<path style="fill:url(#SVGID_2_);" d="M63.537,32.257c0.191-0.115,0.364-0.236,0.515-0.365c2.294-1.958-1.277-4.717-7.973-6.163
					c-1.094-0.236-1.227-0.675-2.329-0.812l-7.756,9.336l38.881,7.383l3.786-3.231c-2.676-1.273-7.509-2.756-14.418-4.248
					C70.223,33.289,66.626,32.663,63.537,32.257z"/>
			</g>
		</g>
		<g>
			
				<linearGradient id="SVGID_3_" gradientUnits="userSpaceOnUse" x1="136.7216" y1="49.5942" x2="134.1259" y2="60.7402" gradientTransform="matrix(0.8803 0.4744 -0.4744 0.8803 -10.5802 -75.5985)">
				<stop  offset="0" style="stop-color:#A2CF26"/>
				<stop  offset="1" style="stop-color:#6B942A"/>
			</linearGradient>
			<path style="fill:url(#SVGID_3_);" d="M81.613,42.425L89,44.021c0.994,0.214,2.292-0.026,2.887-0.533l-0.757-6.393
				c0.049-0.042,0.168-0.146,0.343-0.305c-7.746-0.911-15.355-1.056-22.983-0.705C72.964,38.062,77.407,40.224,81.613,42.425z"/>
			
				<linearGradient id="SVGID_4_" gradientUnits="userSpaceOnUse" x1="119.8315" y1="66.8943" x2="119.8315" y2="104.8446" gradientTransform="matrix(0.8803 0.4744 -0.4744 0.8803 -10.5802 -75.5985)">
				<stop  offset="0" style="stop-color:#A2CF26"/>
				<stop  offset="1" style="stop-color:#6B942A"/>
			</linearGradient>
			<path style="fill:url(#SVGID_4_);" d="M68.864,36.399c-6.845-3.026-11.323-7.551-17.567-9.188l-3.239,4.785
				c-0.594,0.507-2.971,3.076-1.977,3.29c0,0,16.03,2.222,21.214,3.39c3.812,0.859,14.691,4.066,14.691,4.066
				C77.781,40.539,73.338,38.378,68.864,36.399z"/>
		</g>
	</g>
	<g>
		
			<linearGradient id="SVGID_5_" gradientUnits="userSpaceOnUse" x1="113.7076" y1="56.6554" x2="123.1752" y2="56.6554" gradientTransform="matrix(0.8803 0.4744 -0.4744 0.8803 -10.5802 -75.5985)">
			<stop  offset="0" style="stop-color:#C97600"/>
			<stop  offset="1" style="stop-color:#DEAE52"/>
		</linearGradient>
		<polygon style="fill:url(#SVGID_5_);" points="59.469,37.639 57.761,37.27 74.143,23.289 75.852,23.658 		"/>
		
			<linearGradient id="SVGID_6_" gradientUnits="userSpaceOnUse" x1="114.4352" y1="56.5241" x2="123.3578" y2="56.5241" gradientTransform="matrix(0.8803 0.4744 -0.4744 0.8803 -10.5802 -75.5985)">
			<stop  offset="0" style="stop-color:#E8A425"/>
			<stop  offset="1" style="stop-color:#F9D286"/>
		</linearGradient>
		<polygon style="fill:url(#SVGID_6_);" points="59.655,37.679 58.501,37.43 74.883,23.448 76.037,23.698 		"/>
		<g>
			
				<linearGradient id="SVGID_7_" gradientUnits="userSpaceOnUse" x1="430.8859" y1="48.7833" x2="446.9065" y2="48.7833" gradientTransform="matrix(-0.8803 -0.4744 -0.4744 0.8803 485.5375 191.919)">
				<stop  offset="0" style="stop-color:#D67800"/>
				<stop  offset="1" style="stop-color:#EEB84F"/>
			</linearGradient>
			<polygon style="fill:url(#SVGID_7_);" points="67.075,26.391 67.698,26.643 79.831,28.755 84.489,27.847 83.154,25.918 
				82.531,25.668 			"/>
			<g>
				
					<linearGradient id="SVGID_8_" gradientUnits="userSpaceOnUse" x1="430.5258" y1="47.4221" x2="435.9586" y2="47.4221" gradientTransform="matrix(-0.8803 -0.4744 -0.4744 0.8803 485.5375 191.919)">
					<stop  offset="0" style="stop-color:#A84A00"/>
					<stop  offset="1" style="stop-color:#C08921"/>
				</linearGradient>
				<polygon style="fill:url(#SVGID_8_);" points="79.79,28.747 78.516,28.237 82.766,27.189 84.465,27.852 79.831,28.755 				"/>
				
					<linearGradient id="SVGID_9_" gradientUnits="userSpaceOnUse" x1="432.6237" y1="50.6115" x2="448.9712" y2="50.6115" gradientTransform="matrix(-0.8803 -0.4744 -0.4744 0.8803 485.5375 191.919)">
					<stop  offset="0" style="stop-color:#A84A00"/>
					<stop  offset="1" style="stop-color:#C08921"/>
				</linearGradient>
				<polygon style="fill:url(#SVGID_9_);" points="79.322,28.038 78.516,28.237 79.79,28.747 67.459,26.592 67.075,26.391 
					70.316,26.24 78.79,27.72 				"/>
			</g>
			
				<linearGradient id="SVGID_10_" gradientUnits="userSpaceOnUse" x1="439.2302" y1="46.14" x2="439.2302" y2="52.6669" gradientTransform="matrix(-0.8803 -0.4744 -0.4744 0.8803 485.5375 191.919)">
				<stop  offset="0" style="stop-color:#E8A425"/>
				<stop  offset="1" style="stop-color:#F9D286"/>
			</linearGradient>
			<polygon style="fill:url(#SVGID_10_);" points="67.075,26.391 79.209,28.503 83.866,27.595 82.531,25.668 69.166,24.608 			"/>
		</g>
		<g>
			
				<linearGradient id="SVGID_11_" gradientUnits="userSpaceOnUse" x1="108.9944" y1="56.5865" x2="122.9664" y2="56.5865" gradientTransform="matrix(0.8803 0.4744 -0.4744 0.8803 -10.5802 -75.5985)">
				<stop  offset="0" style="stop-color:#D67800"/>
				<stop  offset="1" style="stop-color:#EEB84F"/>
			</linearGradient>
			<polygon style="fill:url(#SVGID_11_);" points="71.234,31.785 70.393,31.72 59.208,28.799 58.129,26.653 62.531,25.964 
				63.373,26.027 			"/>
			<g>
				
					<linearGradient id="SVGID_12_" gradientUnits="userSpaceOnUse" x1="108.7367" y1="57.6585" x2="112.5736" y2="57.6585" gradientTransform="matrix(0.8803 0.4744 -0.4744 0.8803 -10.5802 -75.5985)">
					<stop  offset="0" style="stop-color:#A84A00"/>
					<stop  offset="1" style="stop-color:#C08921"/>
				</linearGradient>
				<polygon style="fill:url(#SVGID_12_);" points="59.248,28.809 60.96,28.943 60.388,26.854 58.134,26.664 59.208,28.799 				"/>
				
					<linearGradient id="SVGID_13_" gradientUnits="userSpaceOnUse" x1="109.086" y1="57.1106" x2="124.9729" y2="57.1106" gradientTransform="matrix(0.8803 0.4744 -0.4744 0.8803 -10.5802 -75.5985)">
					<stop  offset="0" style="stop-color:#A84A00"/>
					<stop  offset="1" style="stop-color:#C08921"/>
				</linearGradient>
				<polygon style="fill:url(#SVGID_13_);" points="60.852,28.547 60.96,28.943 59.248,28.809 70.631,31.772 71.234,31.785 
					69.586,30.578 61.764,28.54 				"/>
			</g>
			
				<linearGradient id="SVGID_14_" gradientUnits="userSpaceOnUse" x1="116.8634" y1="54.0218" x2="116.8634" y2="58.36" gradientTransform="matrix(0.8803 0.4744 -0.4744 0.8803 -10.5802 -75.5985)">
				<stop  offset="0" style="stop-color:#E8A425"/>
				<stop  offset="1" style="stop-color:#F9D286"/>
			</linearGradient>
			<polygon style="fill:url(#SVGID_14_);" points="71.234,31.785 60.05,28.864 58.971,26.717 63.373,26.027 73.325,30.001 			"/>
		</g>
	</g>
	<g>
		<path style="fill:#674025;" d="M106.156,29.709c0,0,0.543,0.654,2.187,0.383c-0.914-0.38-1.66-0.782-2.032-1.33
			C105.94,28.215,106.156,29.709,106.156,29.709z"/>
		
			<linearGradient id="SVGID_15_" gradientUnits="userSpaceOnUse" x1="150.9008" y1="36.2909" x2="158.4818" y2="40.5962" gradientTransform="matrix(0.8803 0.4744 -0.4744 0.8803 -10.5802 -75.5985)">
			<stop  offset="0" style="stop-color:#F5E3C4"/>
			<stop  offset="1" style="stop-color:#F9C45C"/>
		</linearGradient>
		<path style="fill:url(#SVGID_15_);" d="M105.74,31.779c0,0,1.001-2.291,1.435-2.895c0.369-0.513-1.066-0.318-1.58,0.219
			C105.083,29.638,105.74,31.779,105.74,31.779z"/>
		<g>
			<g>
				
					<linearGradient id="SVGID_16_" gradientUnits="userSpaceOnUse" x1="823.1103" y1="-69.9865" x2="830.6968" y2="-62.0029" gradientTransform="matrix(-0.9053 -0.4248 -0.4248 0.9053 802.2538 456.1725)">
					<stop  offset="0" style="stop-color:#30A9DA"/>
					<stop  offset="1" style="stop-color:#176D8A"/>
				</linearGradient>
				<path style="fill:url(#SVGID_16_);" d="M76.775,42.944c0,0,1.473-0.977,2.46-1.219c-0.022-0.002-0.035-0.003-0.035-0.003
					s0.926-0.35,1.732-0.54c6.858,0.635,9.61,2.892,9.61,2.892s-1.498,2.608-2.178,2.905C88.345,46.966,76.775,42.944,76.775,42.944
					z"/>
				<path style="fill:#0A536C;" d="M83.188,42.356l0.091-0.062c0.03-0.01,0.062-0.021,0.093-0.03
					c-0.013-0.002-0.028-0.005-0.041-0.006l0.308-0.216c0.104-0.073,0.044-0.175-0.141-0.223c-0.477-0.124-0.73-0.178-1.256-0.267
					c-0.204-0.034-0.46,0.001-0.565,0.075l-0.449,0.315c-0.066,0.045-0.067,0.102-0.014,0.151c-0.128,0.046-0.265,0.099-0.407,0.157
					c-0.198-0.08-0.242-0.211-0.1-0.312l0.697-0.489c0.132-0.091,0.405-0.145,0.667-0.137c0.418,0.063,0.82,0.132,1.198,0.205
					c0.265,0.057,0.526,0.121,0.861,0.208c0.276,0.071,0.358,0.228,0.195,0.343c-0.279,0.195-0.418,0.294-0.698,0.489
					c-0.164,0.114-0.55,0.171-0.854,0.12c-0.091-0.015-0.176-0.029-0.257-0.044c0.121-0.069,0.249-0.134,0.383-0.194
					C83.021,42.426,83.129,42.398,83.188,42.356z"/>
				
					<linearGradient id="SVGID_17_" gradientUnits="userSpaceOnUse" x1="826.3211" y1="-69.4415" x2="833.8829" y2="-63.5313" gradientTransform="matrix(-0.9053 -0.4248 -0.4248 0.9053 802.2538 456.1725)">
					<stop  offset="0" style="stop-color:#129AD1"/>
					<stop  offset="1" style="stop-color:#367185"/>
				</linearGradient>
				<path style="fill:url(#SVGID_17_);" d="M81.622,41.931c0.586,0.12,1.157,0.243,1.698,0.368
					c-0.706,0.198-2.234,1.164-2.613,1.493l-1.963-0.424C79.426,42.945,81.104,42.1,81.622,41.931z"/>
				<path style="fill:#207E9E;" d="M80.706,43.792c0,0,1.43-0.977,1.84-1.165c-0.72,0.322-1.914,1.149-1.914,1.149L80.706,43.792z"
					/>
				<path style="fill:#8A5D3B;" d="M91.566,44.743c-0.441-0.297-4.152-2.876-10.943-3.486c-0.802,0.19-1.422,0.464-1.422,0.464
					s7.01,0.908,11.112,3.389C91.287,45.495,92.114,45.11,91.566,44.743z"/>
				<path style="fill:#754F32;" d="M90.414,45.049c-3.934-2.379-10.54-3.312-11.077-3.384c-0.087,0.035-0.137,0.057-0.137,0.057
					s7.01,0.908,11.112,3.389c0.604,0.239,1.152,0.181,1.35,0.016C91.414,45.24,90.934,45.254,90.414,45.049z"/>
				<g>
					<path style="fill:#5E300C;" d="M84.312,42.672c0.102,0.057,0.202,0.113,0.303,0.17c1.686,0.462,3.497,1.083,5.023,1.889
						c0.07,0,0.14-0.001,0.211-0.003C88.18,43.826,86.147,43.153,84.312,42.672z"/>
				</g>
				<path style="fill:#007DAD;" d="M90.021,43.8c0,0-0.549,0.515-1.061,0.683c-0.25-0.095-0.912-0.374-0.912-0.374
					s1.066-0.538,1.184-0.655C89.734,43.683,90.021,43.8,90.021,43.8z"/>
				<path style="fill:#007DAD;" d="M87.231,42.595c0,0-0.437,0.558-0.918,0.764c-0.276-0.079-1.021-0.317-1.021-0.317
					s0.957-0.619,1.05-0.745C86.911,42.496,87.231,42.595,87.231,42.595z"/>
				<g>
					<g>
						<path style="fill:#24657C;" d="M80.808,42.25c0.142-0.058,0.279-0.111,0.407-0.157c0.032,0.028,0.084,0.055,0.154,0.072
							c0.477,0.124,0.731,0.177,1.256,0.266c0.088,0.015,0.185,0.017,0.275,0.008c-0.134,0.061-0.262,0.125-0.383,0.194
							c-0.62-0.107-0.987-0.188-1.614-0.352C80.867,42.272,80.836,42.261,80.808,42.25z"/>
					</g>
					
						<linearGradient id="SVGID_18_" gradientUnits="userSpaceOnUse" x1="79.3406" y1="56.2017" x2="82.7207" y2="55.8659" gradientTransform="matrix(0.9964 -0.0843 0.0843 0.9964 -3.0965 -7.0493)">
						<stop  offset="0" style="stop-color:#B3B3B3"/>
						<stop  offset="1" style="stop-color:#E6E6E6"/>
					</linearGradient>
					<path style="fill:url(#SVGID_18_);" d="M81.513,41.35l-0.697,0.49c-0.163,0.115-0.081,0.271,0.195,0.343
						c0.709,0.185,1.086,0.264,1.871,0.396c0.305,0.05,0.691-0.006,0.855-0.121c0.278-0.195,0.418-0.294,0.697-0.489
						c0.164-0.115,0.081-0.271-0.195-0.343c-0.708-0.185-1.086-0.265-1.872-0.396C82.063,41.178,81.676,41.236,81.513,41.35z
						 M81.785,41.528c0.104-0.074,0.359-0.109,0.564-0.075c0.526,0.089,0.779,0.143,1.257,0.266
						c0.185,0.048,0.245,0.149,0.139,0.224l-0.448,0.315c-0.104,0.074-0.36,0.109-0.564,0.074c-0.527-0.089-0.78-0.142-1.257-0.266
						c-0.184-0.048-0.245-0.15-0.14-0.223L81.785,41.528z"/>
					<path style="fill:#FFFFFF;" d="M81.148,41.829l0.488-0.346c0.113-0.081,0.386-0.121,0.603-0.083
						c0.035,0.005,0.063,0.011,0.096,0.016c-0.194,0.011-0.405,0.039-0.506,0.108c-0.189,0.131-0.795,0.416-0.435,0.574
						c-0.034-0.008-0.067-0.017-0.103-0.026C81.095,42.022,81.034,41.91,81.148,41.829z"/>
					
						<linearGradient id="SVGID_19_" gradientUnits="userSpaceOnUse" x1="79.8309" y1="55.9983" x2="82.599" y2="55.9983" gradientTransform="matrix(0.9964 -0.0843 0.0843 0.9964 -3.0965 -7.0493)">
						<stop  offset="0" style="stop-color:#9C9C9C"/>
						<stop  offset="1" style="stop-color:#E6E6E6"/>
					</linearGradient>
					<path style="fill:url(#SVGID_19_);" d="M83.72,41.71c-0.525-0.136-0.806-0.196-1.385-0.293
						c-0.225-0.038-0.506,0.001-0.624,0.083l-0.494,0.347c-0.115,0.082-0.049,0.194,0.155,0.247
						c0.526,0.136,0.805,0.195,1.386,0.293c0.227,0.038,0.507,0,0.623-0.083l0.495-0.347C83.992,41.874,83.926,41.762,83.72,41.71z
						 M83.853,41.973l-0.449,0.314c-0.104,0.074-0.359,0.108-0.564,0.075c-0.526-0.089-0.779-0.143-1.257-0.266
						c-0.185-0.048-0.245-0.149-0.14-0.224l0.448-0.315c0.106-0.074,0.361-0.109,0.565-0.074c0.526,0.089,0.78,0.143,1.255,0.265
						C83.897,41.797,83.956,41.898,83.853,41.973z"/>
					<g>
						
							<linearGradient id="SVGID_20_" gradientUnits="userSpaceOnUse" x1="-494.5722" y1="-232.9111" x2="-491.0789" y2="-231.3183" gradientTransform="matrix(1.024 0.1597 -0.4062 0.9132 492.479 332.3902)">
							<stop  offset="0" style="stop-color:#DA9D30"/>
							<stop  offset="1" style="stop-color:#8A5D3B"/>
						</linearGradient>
						<path style="fill:url(#SVGID_20_);" d="M82.427,41.809c-0.051,0.054-0.191,0.087-0.312,0.075
							c-0.122-0.012-0.177-0.066-0.124-0.122c0.052-0.053,0.193-0.087,0.312-0.074C82.424,41.7,82.481,41.755,82.427,41.809z"/>
					</g>
					<g>
						<polygon style="fill:#724929;" points="82.249,41.872 82.252,41.904 83.416,42.173 83.52,42.094 						"/>
						
							<linearGradient id="SVGID_21_" gradientUnits="userSpaceOnUse" x1="137.9545" y1="58" x2="137.9688" y2="58.9193" gradientTransform="matrix(0.8803 0.4744 -0.4744 0.8803 -10.5802 -75.5985)">
							<stop  offset="0" style="stop-color:#BFBFBF"/>
							<stop  offset="1" style="stop-color:#7A7A7A"/>
						</linearGradient>
						<path style="fill:url(#SVGID_21_);" d="M83.89,42.35c0.187-0.131,0.322-0.225,0.544-0.381
							c0.164-0.115,0.081-0.271-0.195-0.343c-0.708-0.185-1.086-0.265-1.872-0.396c-0.304-0.052-0.691,0.006-0.854,0.12
							l-0.109,0.077l0.114,0.027c0,0,0.16,0.029,0.401,0.088c0.117-0.063,0.349-0.092,0.537-0.06
							c0.496,0.083,0.752,0.138,1.18,0.246c0.16,0.051,0.209,0.145,0.109,0.214l-0.232,0.164
							C83.652,42.181,83.781,42.262,83.89,42.35z"/>
						<path style="fill:#515151;" d="M83.416,42.173c0,0,0.191,0.025,0.258-0.038c0.066-0.063-0.103-0.086-0.103-0.086
							L83.416,42.173z"/>
						<path style="fill:#C7C7C7;" d="M82.239,41.401c-0.213-0.037-0.481,0-0.596,0.079c0.021,0.005,0.046,0.01,0.074,0.017
							c0.118-0.079,0.395-0.118,0.617-0.08C82.303,41.412,82.274,41.405,82.239,41.401z"/>
						<g>
							
								<linearGradient id="SVGID_22_" gradientUnits="userSpaceOnUse" x1="825.3386" y1="-81.6103" x2="826.9798" y2="-81.6103" gradientTransform="matrix(-0.9406 -0.3746 -0.4447 0.8861 823.7402 423.7205)">
								<stop  offset="0" style="stop-color:#9C9C9C"/>
								<stop  offset="1" style="stop-color:#E6E6E6"/>
							</linearGradient>
							<path style="fill:url(#SVGID_22_);" d="M82.107,41.772c-0.059,0.046-0.011,0.102,0.107,0.123l1.254,0.231
								c0.119,0.022,0.26,0.001,0.319-0.045l0,0c0.059-0.047,0.009-0.102-0.108-0.123l-1.255-0.231
								C82.306,41.705,82.164,41.725,82.107,41.772L82.107,41.772z"/>
						</g>
					</g>
				</g>
			</g>
			<g>
				<g>
					<g>
						<g>
							<g>
								<g>
									<g>
										<path style="fill:#5C5C5C;" d="M90.321,36.28c0,0,1.137-0.829,2.6-0.648c2.701,0.334,2.033,5.239-1.383,8.906
											c-4.404,0.811-7.32-3.583-13.006-2.833C80.956,40.926,90.321,36.28,90.321,36.28z"/>
										<g>
											<g>
												<g>
													<path style="fill:#434343;" d="M88.402,38.312c0.065-0.107-0.055-0.132-0.281-0.058
														c-0.317,0.104-0.48,0.156-0.815,0.257c-0.237,0.07-0.613,0.107-0.832,0.081c-0.312-0.037-0.468-0.056-0.787-0.093
														c-0.224-0.027-0.409,0.027-0.402,0.121c0.011,0.135,0.021,0.203,0.053,0.342c0.022,0.098-0.13,0.25-0.35,0.337
														c-0.31,0.122-0.467,0.183-0.787,0.304c-0.223,0.086-0.157,0.157,0.145,0.157c0.427,0,0.638-0.002,1.048-0.005
														c0.289-0.002,0.63,0.067,0.768,0.158c0.197,0.129,0.301,0.193,0.517,0.327c0.152,0.093,0.356,0.078,0.449-0.035
														c0.131-0.159,0.199-0.239,0.337-0.397c0.098-0.112,0.388-0.236,0.636-0.278c0.351-0.061,0.52-0.091,0.848-0.156
														c0.232-0.045,0.268-0.129,0.091-0.185c-0.253-0.08-0.376-0.119-0.622-0.197c-0.173-0.055-0.276-0.189-0.224-0.299
														C88.27,38.539,88.312,38.463,88.402,38.312z"/>
												</g>
											</g>
											<g>
												<g>
													<path style="fill:#5C5C5C;" d="M87.935,38.567c0.047-0.075-0.04-0.093-0.199-0.041
														c-0.225,0.073-0.341,0.11-0.578,0.181c-0.167,0.052-0.434,0.077-0.588,0.059c-0.222-0.026-0.333-0.039-0.559-0.066
														c-0.158-0.019-0.289,0.02-0.283,0.086c0.007,0.096,0.014,0.144,0.036,0.243c0.016,0.069-0.093,0.178-0.247,0.238
														c-0.22,0.087-0.332,0.13-0.558,0.216c-0.158,0.061-0.111,0.111,0.102,0.111c0.303,0,0.451-0.001,0.742-0.004
														c0.206-0.002,0.446,0.048,0.545,0.112c0.141,0.091,0.213,0.138,0.366,0.231c0.107,0.067,0.252,0.056,0.318-0.024
														c0.093-0.113,0.141-0.17,0.239-0.282c0.069-0.079,0.277-0.167,0.452-0.197c0.249-0.043,0.369-0.065,0.601-0.112
														c0.165-0.031,0.19-0.091,0.065-0.131c-0.178-0.056-0.268-0.083-0.441-0.139c-0.123-0.038-0.196-0.134-0.158-0.211
														C87.842,38.729,87.871,38.674,87.935,38.567z"/>
												</g>
											</g>
										</g>
										<path style="fill:#434343;" d="M89.796,37.939c1.955,0.698,5.264-2.076,2.818-2.204
											C91.525,35.679,87.842,37.241,89.796,37.939z"/>
										
											<linearGradient id="SVGID_23_" gradientUnits="userSpaceOnUse" x1="121.35" y1="60.6511" x2="130.6607" y2="66.6491" gradientTransform="matrix(0.859 0.5121 -0.5121 0.859 14.3031 -85.6716)">
											<stop  offset="0" style="stop-color:#FEF3E0"/>
											<stop  offset="1" style="stop-color:#FDBB3B"/>
										</linearGradient>
										<path style="fill:url(#SVGID_23_);" d="M90.374,37.57c1.458,0.521,3.93-1.55,2.104-1.645
											C91.665,35.883,88.915,37.05,90.374,37.57z"/>
										
											<linearGradient id="SVGID_24_" gradientUnits="userSpaceOnUse" x1="1275.6554" y1="63.0777" x2="1278.7775" y2="69.2116" gradientTransform="matrix(-0.859 -0.5121 -0.5121 0.859 1222.1838 634.2603)">
											<stop  offset="0" style="stop-color:#EBD6B3"/>
											<stop  offset="1" style="stop-color:#EA9C06"/>
										</linearGradient>
										<path style="fill:url(#SVGID_24_);" d="M91.669,36.071c-0.956,0.371-1.874,1.011-0.894,1.36
											c0.342,0.122,0.741,0.101,1.127-0.004c-0.498,0.211-1.065,0.309-1.528,0.143C89.255,37.172,90.608,36.394,91.669,36.071z"
											/>
									</g>
								</g>
							</g>
						</g>
					</g>
				</g>
			</g>
			<g>
				<g>
					<g>
						<g>
							<g>
								<g>
									<g>
										
											<linearGradient id="SVGID_25_" gradientUnits="userSpaceOnUse" x1="136.5052" y1="40.2167" x2="150.0422" y2="46.9675" gradientTransform="matrix(0.8803 0.4744 -0.4744 0.8803 -10.5802 -75.5985)">
											<stop  offset="0" style="stop-color:#F5E3C4"/>
											<stop  offset="1" style="stop-color:#F9C45C"/>
										</linearGradient>
										<path style="fill:url(#SVGID_25_);" d="M95.118,34.322c3.356-1.046,10.867-2.781,10.006-5.266
											c-0.861-2.486-8.606-4.345-12.3-2.593c0,0-4.225,1.831-6.462,3.927c-0.309,0.247-1.052,1.131-1.203,1.591
											c-0.048,0.121-0.09,0.244-0.115,0.363c-0.036,0.579-0.119,1.103,1.427,2.451c2.197,1.562,5.955,2.084,5.955,2.084
											l0.659-0.545C93.085,36.335,91.762,35.37,95.118,34.322z"/>
										
											<linearGradient id="SVGID_26_" gradientUnits="userSpaceOnUse" x1="137.9981" y1="46.5623" x2="137.4546" y2="46.0965" gradientTransform="matrix(0.8803 0.4744 -0.4744 0.8803 -10.5802 -75.5985)">
											<stop  offset="0" style="stop-color:#E8A425"/>
											<stop  offset="1" style="stop-color:#F9D286"/>
										</linearGradient>
										<path style="fill:url(#SVGID_26_);" d="M87.335,30.603c0,0,1.237,0.458,2.605-0.391
											C88.469,31.348,87.335,30.603,87.335,30.603z"/>
										
											<linearGradient id="SVGID_27_" gradientUnits="userSpaceOnUse" x1="136.2791" y1="48.3944" x2="135.6917" y2="51.3315" gradientTransform="matrix(0.8803 0.4744 -0.4744 0.8803 -10.5802 -75.5985)">
											<stop  offset="0" style="stop-color:#E8A425"/>
											<stop  offset="1" style="stop-color:#F9D286"/>
										</linearGradient>
										<path style="fill:url(#SVGID_27_);" d="M85.107,33.139l1.132-0.437l-1.205-0.184
											C85.024,32.709,85.028,32.906,85.107,33.139z"/>
										<g>
											
												<linearGradient id="SVGID_28_" gradientUnits="userSpaceOnUse" x1="135.6898" y1="38.7058" x2="150.7146" y2="46.1985" gradientTransform="matrix(0.8803 0.4744 -0.4744 0.8803 -10.5802 -75.5985)">
												<stop  offset="0" style="stop-color:#F5E3C4"/>
												<stop  offset="1" style="stop-color:#F9C45C"/>
											</linearGradient>
											<path style="fill:url(#SVGID_28_);" d="M100.487,32.845c-1.468-0.765-3.525-0.151-3.525-0.151l-1.715,0.995
												c0,0-0.126,0.796,1.355,1.111C99.759,35.47,101.955,33.61,100.487,32.845z"/>
											
												<linearGradient id="SVGID_29_" gradientUnits="userSpaceOnUse" x1="153.1973" y1="100.8483" x2="154.8044" y2="101.435" gradientTransform="matrix(0.7846 0.62 -0.62 0.7846 39.6966 -140.8504)">
												<stop  offset="0" style="stop-color:#E8A425"/>
												<stop  offset="1" style="stop-color:#F9D286"/>
											</linearGradient>
											<path style="fill:url(#SVGID_29_);" d="M96.663,33.415c-0.05-0.109,1.481-0.456,2.29,0.061
												c0.887,0.566-0.617,1.082-1.27,1.052c-1.439-0.067-1.451-0.673-1.451-0.673S96.838,33.795,96.663,33.415z"/>
										</g>
										<g>
											<path style="fill:#FFFFFF;" d="M96.209,29.33c1.326,0.037,2.25,1.024,0.903,2.076c-1.345,1.051-2.773,1.445-4.844,0.481
												C90.196,30.921,94.585,29.286,96.209,29.33z"/>
											<g>
												<path style="fill:#808080;" d="M91.899,31.122c-0.349,0.298,0.108,0.54,0.64,0.654c0.53,0.115,1.245-0.034,1.593-0.332
													c0.35-0.298,0.202-0.632-0.33-0.747C93.272,30.583,92.249,30.824,91.899,31.122z"/>
												<path d="M92.415,31.313c-0.152,0.13,0.047,0.234,0.277,0.285c0.231,0.05,0.541-0.015,0.693-0.144
													c0.152-0.129,0.088-0.275-0.144-0.325C93.012,31.079,92.567,31.183,92.415,31.313z"/>
												<path style="fill:#E6E6E6;" d="M92.675,31.09c-0.121,0.104,0.038,0.189,0.225,0.23c0.185,0.039,0.434-0.012,0.558-0.117
													c0.121-0.104,0.07-0.221-0.116-0.261C93.156,30.902,92.798,30.986,92.675,31.09z"/>
											</g>
										</g>
										<g>
											<path style="fill:#FFFFFF;" d="M90.861,28.022c0.96-0.033,0.881,0.58-0.308,1.567c-1.189,0.988-2.231,1.38-3.55,0.636
												C87.546,29.398,89.687,28.062,90.861,28.022z"/>
											<g>
												<path style="fill:#808080;" d="M87.301,29.9c-0.288,0.255,0.05,0.444,0.453,0.526c0.404,0.083,0.964-0.058,1.251-0.311
													c0.288-0.255,0.193-0.528-0.211-0.611C88.391,29.421,87.588,29.644,87.301,29.9z"/>
												<path d="M87.687,30.045c-0.125,0.11,0.022,0.193,0.198,0.228c0.176,0.036,0.418-0.024,0.543-0.135
													c0.125-0.111,0.084-0.23-0.091-0.266C88.161,29.837,87.812,29.934,87.687,30.045z"/>
												<path style="fill:#E6E6E6;" d="M87.901,29.854c-0.099,0.089,0.018,0.156,0.159,0.184
													c0.141,0.029,0.337-0.02,0.437-0.109c0.101-0.089,0.068-0.185-0.073-0.213C88.283,29.687,88.002,29.765,87.901,29.854z"
													/>
											</g>
										</g>
									</g>
								</g>
								<path style="fill:#6C4434;" d="M95.669,28.673c1.427-0.018,3.83,0.379,2.9,2.248c1.542-2.018-0.91-2.847-2.97-2.516
									C94.856,28.525,95.058,28.68,95.669,28.673z"/>
								<path style="fill:#6C4434;" d="M93.057,27.737c-0.403-0.344-1.626-0.703-3.726,0.473c2.107-1.396,3.893-1.247,4.087-0.594
									C93.487,27.851,93.229,27.884,93.057,27.737z"/>
								
									<linearGradient id="SVGID_30_" gradientUnits="userSpaceOnUse" x1="138.1526" y1="46.4109" x2="139.4939" y2="46.4109" gradientTransform="matrix(0.8803 0.4744 -0.4744 0.8803 -10.5802 -75.5985)">
									<stop  offset="0" style="stop-color:#E8A425"/>
									<stop  offset="1" style="stop-color:#F9D286"/>
								</linearGradient>
								<path style="fill:url(#SVGID_30_);" d="M89.723,30.659c0,0-1.107,0.521,0.383,0.945
									C87.879,31.301,89.256,30.634,89.723,30.659z"/>
							</g>
						</g>
					</g>
				</g>
				<path style="fill:#674025;" d="M98.768,24.969c0,0-4.651-0.252-6.845,1.942c1.645-0.683,2.13-0.861,3.05-1.002
					c1.264-0.194,3.373,0.057,3.578,0.069C98.756,25.99,98.768,24.969,98.768,24.969z"/>
				<path style="fill:#674025;" d="M96.509,32.738c0,0,4.008-1.338,4.035-2.402c1.955-0.76,2.36-3.563-2.725-3.654
					c-1.508-0.821-0.586-2.889,1.873-3.253c-0.68,0.996,0.026,1.503,2.232,2.731c0.614,0.234,1.125,0.408,2.031,0.697
					c6.007,1.634,1.124,6.15-3.018,6.772C100.555,32.382,96.723,32.61,96.509,32.738z"/>
				
					<linearGradient id="SVGID_31_" gradientUnits="userSpaceOnUse" x1="98.086" y1="38.8694" x2="102.1834" y2="43.0236" gradientTransform="matrix(0.9964 -0.0843 0.0843 0.9964 -3.0965 -7.0493)">
					<stop  offset="0" style="stop-color:#956B45"/>
					<stop  offset="1" style="stop-color:#674025"/>
				</linearGradient>
				<path style="fill:url(#SVGID_31_);" d="M102.449,26.356c-0.173-0.062-0.345-0.126-0.525-0.195
					c-2.196-1.223-2.904-1.73-2.242-2.718c-0.774,0.272-2.05,0.928-1.019,2.071c0.974,1.08,3.703,1.54,4.442,2.747
					C103.082,27.45,102.781,26.814,102.449,26.356z"/>
				
					<linearGradient id="SVGID_32_" gradientUnits="userSpaceOnUse" x1="140.6133" y1="38.8214" x2="141.1301" y2="39.3454" gradientTransform="matrix(0.8803 0.4744 -0.4744 0.8803 -10.5802 -75.5985)">
					<stop  offset="0" style="stop-color:#956B45"/>
					<stop  offset="1" style="stop-color:#674025"/>
				</linearGradient>
				<path style="fill:url(#SVGID_32_);" d="M97.232,24.997c0,0-2.884,0.153-4.665,1.358c2.539-1.061,4.614-0.839,4.614-0.839
					S97.043,25.127,97.232,24.997z"/>
			</g>
		</g>
		
			<linearGradient id="SVGID_33_" gradientUnits="userSpaceOnUse" x1="141.494" y1="46.0756" x2="140.4554" y2="45.1854" gradientTransform="matrix(0.8803 0.4744 -0.4744 0.8803 -10.5802 -75.5985)">
			<stop  offset="0" style="stop-color:#E8A425"/>
			<stop  offset="1" style="stop-color:#F9D286"/>
		</linearGradient>
		<path style="fill:url(#SVGID_33_);" d="M92.068,30.534c0,0-1.354,0.884,0.115,1.424C90.221,31.307,92.068,30.534,92.068,30.534z"
			/>
		
			<linearGradient id="SVGID_34_" gradientUnits="userSpaceOnUse" x1="144.6245" y1="45.1071" x2="143.9393" y2="44.5198" gradientTransform="matrix(0.8803 0.4744 -0.4744 0.8803 -10.5802 -75.5985)">
			<stop  offset="0" style="stop-color:#E8A425"/>
			<stop  offset="1" style="stop-color:#F9D286"/>
		</linearGradient>
		<path style="fill:url(#SVGID_34_);" d="M93.473,32.399c0,0,1.561,0.578,3.285-0.492C94.903,33.339,93.473,32.399,93.473,32.399z"
			/>
		
			<linearGradient id="SVGID_35_" gradientUnits="userSpaceOnUse" x1="192.4363" y1="53.9242" x2="193.6009" y2="53.9242" gradientTransform="matrix(0.8743 0.4705 -0.3953 0.9311 -60.0891 -107.9406)">
			<stop  offset="0" style="stop-color:#E8A425"/>
			<stop  offset="1" style="stop-color:#F9D286"/>
		</linearGradient>
		<path style="fill:url(#SVGID_35_);" d="M87.903,33.202c-0.169,0.177-0.554,0.268-0.858,0.203c-0.305-0.066-0.414-0.263-0.245-0.44
			c0.169-0.177,0.553-0.268,0.857-0.203C87.96,32.827,88.07,33.025,87.903,33.202z"/>
		<path style="fill:#434343;" d="M98.968,35.197c-0.828,0.344-2.702,3.549,0.148,3.402C101.964,38.452,100.549,34.544,98.968,35.197
			z"/>
		<path style="fill:#714B23;" d="M105.82,30.401c0,0,0.483,0.667,2.141,0.427c-0.877-0.399-1.584-0.817-1.906-1.375
			C105.731,28.896,105.82,30.401,105.82,30.401z"/>
		
			<linearGradient id="SVGID_36_" gradientUnits="userSpaceOnUse" x1="146.8697" y1="41.2514" x2="154.5771" y2="44.74" gradientTransform="matrix(0.8803 0.4744 -0.4744 0.8803 -10.5802 -75.5985)">
			<stop  offset="0" style="stop-color:#F5E3C4"/>
			<stop  offset="1" style="stop-color:#F9C45C"/>
		</linearGradient>
		<path style="fill:url(#SVGID_36_);" d="M97.943,35.645c0,0,4.627-1.064,5.389-3.267c0,0-1.222-0.439-0.961-1.012
			c0.26-0.573,0.055-0.952-0.689-0.965c-0.459-0.009-0.516-0.491,0.532-0.535c1.05-0.043,1.528,0.396,1.641,0.734
			c0.202,0.297,0.865,0.15,0.943,0.043c0.589-0.804,0.255-1.379,0.18-1.713c-0.085-0.377,1.565-0.811,1.308-0.089
			c-0.223,0.625,0.229,1.649-0.033,1.922c0.41,0.507-0.168,1.363-0.776,1.531c-0.567,1.136-3.879,4.29-8.335,4.886
			C93.587,37.656,97.943,35.645,97.943,35.645z"/>
		
			<linearGradient id="SVGID_37_" gradientUnits="userSpaceOnUse" x1="147.3935" y1="46.6814" x2="150.3207" y2="48.0064" gradientTransform="matrix(0.8803 0.4744 -0.4744 0.8803 -10.5802 -75.5985)">
			<stop  offset="0" style="stop-color:#E8A425"/>
			<stop  offset="1" style="stop-color:#F9D286"/>
		</linearGradient>
		<path style="fill:url(#SVGID_37_);" d="M97.142,37.18c0.587-0.079,1.153-0.202,1.697-0.359c-0.006-0.514,0.261-1.13,0.589-1.622
			c-0.844,0.298-1.485,0.446-1.485,0.446S93.587,37.656,97.142,37.18z"/>
		<path style="fill:#5C5C5C;" d="M99.013,35.181c-1.505,0.634-5.811,0.585-5.811,0.585l1.015,0.859l-1.084,1.892
			c0,0,3.982,0.404,6.22,0.048C96.468,38.722,98.172,35.532,99.013,35.181z"/>
		<path style="fill:#535353;" d="M93.791,38.244c0,0-0.92,3.646-5.814,3.26c-4.894-0.386-6.978-0.142-6.978-0.142
			s3.954,0.109,6.238,1.645c-1.545-0.631-2.911-0.94-2.911-0.94l-0.333,0.141c0,0,1.848,0.871,3.253,1.497
			c1.405,0.625,3.391,0.756,3.987,0.661c1.538-1.603,3.244-4.386,3.34-5.754L93.791,38.244z M97.621,37.831
			c-0.921,0.099-2.969,0.294-3.606,0.139c0.42,0.512,0.56,0.642,0.56,0.642c1.624-0.056,3.037-0.082,3.717-0.092
			C97.891,38.396,97.688,38.144,97.621,37.831z"/>
		
			<linearGradient id="SVGID_38_" gradientUnits="userSpaceOnUse" x1="131.8383" y1="49.1051" x2="136.4033" y2="57.9752" gradientTransform="matrix(0.8803 0.4744 -0.4744 0.8803 -10.5802 -75.5985)">
			<stop  offset="0" style="stop-color:#F5E3C4"/>
			<stop  offset="1" style="stop-color:#F9C45C"/>
		</linearGradient>
		<path style="fill:url(#SVGID_38_);" d="M83.107,37.96c-2.763,0.221-4.637-0.896-1.498-2.521c0.554,0.07,1.861-0.088,2.25-0.287
			c0.22,0.316,1.175,0.104,1.44-0.358c0.265-0.462,0.135-1.299-0.704-1.458c-0.839-0.159-0.839-0.159-0.839-0.159
			s1.104-0.367,1.994-0.351c0.891,0.015,0.909-0.787-0.693-0.569c-1.604,0.217-5.151,1.616-5.004,2.686
			c-2.309,1.149-4.906,4.217,3.972,4.156C84.231,38.271,83.107,37.96,83.107,37.96z"/>
		<path style="fill:#5C5C5C;" d="M83.869,39.394c3.177-1.489,5.928-2.826,5.928-2.826s-4.355,0.513-6.494,0.377
			C82.629,37.932,83.278,38.843,83.869,39.394z"/>
		<path style="fill:#535353;" d="M83.869,39.394c1.819-0.853,3.496-1.655,4.6-2.185c-1.165,0.355-3.334,0.945-5.361,1.113
			C83.259,38.746,83.57,39.116,83.869,39.394z"/>
		<path style="fill:#434343;" d="M80.587,41.288c0,0,4.33-0.08,6.695,1.69C84.158,41.253,80.587,41.288,80.587,41.288z"/>
		<path style="fill:#434343;" d="M93.141,39.51c0,0-1.167,2.309-5.432,1.945C91.999,41.865,92.505,40.261,93.141,39.51z"/>
	</g>
</g>
</svg>
