<?xml version="1.0" encoding="iso-8859-1"?>
<!-- Generator: Adobe Illustrator 21.1.0, SVG Export Plug-In . SVG Version: 6.00 Build 0)  -->
<svg version="1.1" id="cupboard" xmlns="http://www.w3.org/2000/svg" xmlns:xlink="http://www.w3.org/1999/xlink" x="0px" y="0px"
	 width="130.913px" height="116.976px" viewBox="0 0 130.913 116.976" style="enable-background:new 0 0 130.913 116.976;"
	 xml:space="preserve">
<g>
	<path style="fill:#C03985;" d="M128.833,35.834l-26.333-12c0,0-82.833,23.458-99.5,43.791c-2.424,2.957,0.69,19.619,4.167,21.209
		c23.333,10.666,73.667,26,73.667,26L128.833,35.834z"/>
	<g>
		<path d="M128.778,35.852l-3.313-1.352l-3.316-1.446c-2.202-0.983-4.441-1.884-6.613-2.935l-6.532-3.111
			c-2.174-1.045-4.347-2.093-6.568-3.034l0.106,0.008c-16.807,4.929-33.448,10.463-49.788,16.763
			c-8.162,3.168-16.248,6.543-24.129,10.342c-3.94,1.898-7.828,3.908-11.596,6.117c-3.754,2.22-7.433,4.614-10.688,7.495
			c-0.809,0.723-1.59,1.475-2.316,2.276c-0.342,0.404-0.765,0.813-0.965,1.207c-0.218,0.431-0.337,0.949-0.42,1.467
			c-0.294,2.104-0.109,4.303,0.158,6.449c0.289,2.153,0.725,4.291,1.329,6.374c0.305,1.04,0.65,2.069,1.077,3.055
			c0.431,0.971,0.923,1.967,1.638,2.651c0.19,0.172,0.346,0.28,0.591,0.385l0.747,0.338l1.498,0.664l3.016,1.289
			c2.017,0.844,4.047,1.663,6.083,2.462c4.074,1.599,8.176,3.129,12.293,4.62c8.233,2.982,16.528,5.796,24.84,8.558
			c8.309,2.769,16.646,5.464,25.009,8.062l-0.333,0.127L128.778,35.852z M128.866,35.853l-47.784,79.131
			c-0.07,0.116-0.209,0.165-0.332,0.127c-16.766-5.115-33.445-10.513-49.929-16.488c-4.12-1.496-8.227-3.031-12.307-4.636
			c-2.041-0.803-4.074-1.625-6.097-2.473l-3.025-1.296L7.887,89.55l-0.75-0.339c-0.261-0.108-0.567-0.306-0.776-0.509
			c-0.872-0.846-1.35-1.877-1.809-2.893c-0.442-1.025-0.794-2.077-1.105-3.139c-0.614-2.125-1.054-4.291-1.347-6.48
			c-0.269-2.189-0.464-4.405-0.152-6.649c0.093-0.56,0.213-1.126,0.489-1.677c0.313-0.578,0.713-0.927,1.072-1.358
			c0.747-0.822,1.545-1.591,2.37-2.326c3.316-2.929,7.024-5.334,10.803-7.566c3.792-2.22,7.696-4.234,11.65-6.135
			c7.92-3.78,16.04-7.109,24.228-10.239c8.192-3.122,16.466-6.021,24.787-8.772c8.322-2.749,16.686-5.366,25.112-7.782
			c0.035-0.011,0.075-0.006,0.106,0.008c2.167,1.06,4.383,2.012,6.599,2.966l6.634,2.889c2.218,0.949,4.367,2.048,6.554,3.064
			l3.267,1.554l3.231,1.632c0.019,0.009,0.027,0.031,0.019,0.05C128.867,35.85,128.866,35.852,128.866,35.853z"/>
	</g>
</g>
<g>
	<path style="fill:#E54890;" d="M81,114.75l48-78.5l-26.5-12.417c0,0-51.25,10.417-45.25,35.667"/>
	<path d="M80.968,114.73l5.879-9.886l5.953-9.841l11.915-19.677c4.001-6.541,8.051-13.052,12.099-19.565
		c4.023-6.527,8.094-13.025,12.079-19.577l0.054,0.179L102.385,24.08l0.169,0.02c-5.12,1.179-10.179,2.69-15.128,4.463
		c-4.936,1.806-9.796,3.854-14.365,6.44c-4.528,2.602-8.93,5.636-12.167,9.767c-1.601,2.056-2.872,4.396-3.509,6.933
		c-0.659,2.528-0.669,5.218-0.099,7.789c0.004,0.021-0.008,0.041-0.029,0.045c-0.02,0.004-0.039-0.008-0.044-0.027
		c-0.661-2.556-0.773-5.286-0.17-7.89c0.6-2.605,1.854-5.027,3.448-7.158c1.6-2.135,3.525-4.004,5.595-5.67
		c2.069-1.672,4.293-3.141,6.6-4.45c4.614-2.624,9.495-4.737,14.489-6.486c4.996-1.75,10.082-3.216,15.272-4.288
		c0.06-0.013,0.119-0.004,0.17,0.02l26.438,12.549c0.062,0.029,0.09,0.104,0.061,0.167l-0.007,0.013
		c-4.016,6.532-7.944,13.117-11.921,19.673c-3.952,6.571-7.903,13.143-11.901,19.685L93.2,95.247l-6.047,9.784l-6.121,9.739
		c-0.011,0.018-0.034,0.023-0.052,0.012C80.963,114.771,80.957,114.748,80.968,114.73z"/>
</g>
<path style="fill:#FFFBCE;" d="M8.833,85.5c2.589,2.046,6.7,3.773,9.121,4.581c8.215,2.741,17.009,4.781,33.081,10.273
	c11.816,4.038,23.126,9.379,26.798,8.813c1.042-0.16,5.333-14.667,5.333-14.667l-6.667-10c0,0-21.241-6.346-36-12
	c-6.5-2.49-28.194-8.062-33.366-4.938C1.962,70.685,5.5,77.167,5.5,77.167S5.089,82.542,8.833,85.5z"/>
<g>
	<path style="fill:#EAE9DC;" d="M119.5,16.167L84.345,50.353l-7.512,33.481c0,0-1.339,13.055,1,17.333c1.385,2.533,0,8,0,8
		L123.167,38.5c0,0-2.019-11.318-3.333-13C117.029,21.914,119.5,16.167,119.5,16.167z"/>
	<path d="M119.518,16.185l-17.495,17.178L84.488,50.5l0.057-0.102c-1.213,5.589-2.511,11.159-3.777,16.735l-3.821,16.726
		l0.002-0.013c-0.209,2.123-0.336,4.259-0.39,6.393c-0.043,2.134-0.032,4.276,0.208,6.397c0.124,1.058,0.293,2.115,0.598,3.132
		c0.154,0.51,0.347,0.996,0.604,1.466c0.251,0.488,0.382,1.025,0.471,1.557c0.293,2.153-0.021,4.312-0.479,6.409l-0.24-0.104
		l22.58-35.389l11.323-17.673l11.393-17.629l-0.025,0.127c-0.338-1.901-0.707-3.8-1.111-5.689c-0.412-1.886-0.835-3.776-1.421-5.609
		c-0.151-0.455-0.312-0.911-0.524-1.329c-0.209-0.389-0.562-0.779-0.769-1.228c-0.457-0.877-0.678-1.856-0.736-2.83
		c-0.104-1.955,0.324-3.895,1.046-5.689L119.518,16.185z M119.523,16.177c-0.678,1.8-1.058,3.743-0.911,5.657
		c0.077,0.954,0.321,1.895,0.765,2.733c0.206,0.433,0.526,0.762,0.782,1.22c0.229,0.443,0.393,0.902,0.552,1.363
		c0.607,1.849,1.045,3.738,1.473,5.627c0.419,1.891,0.804,3.788,1.158,5.693c0.008,0.045-0.002,0.091-0.025,0.127l-11.274,17.705
		l-11.343,17.66l-22.753,35.277c-0.04,0.062-0.122,0.08-0.184,0.04c-0.048-0.031-0.069-0.091-0.057-0.144
		c0.473-2.059,0.804-4.211,0.536-6.313c-0.081-0.521-0.203-1.037-0.438-1.505c-0.253-0.47-0.456-0.983-0.606-1.498
		c-0.304-1.036-0.468-2.1-0.587-3.165c-0.22-2.133-0.273-4.277-0.237-6.418c0.038-2.141,0.15-4.279,0.344-6.414l0.002-0.014
		l3.691-16.755c1.238-5.584,2.443-11.174,3.734-16.746c0.009-0.039,0.03-0.075,0.058-0.102l17.62-17.049l17.66-17.008
		c0.01-0.009,0.026-0.009,0.036,0.001C119.525,16.157,119.526,16.168,119.523,16.177z"/>
</g>
<path style="fill:#F5E4C8;" d="M70.5,94.5c0.311-0.585-24.867-9.132-35.421-11.703c-10.839-2.464-16.246-6.297-24.579-4.63
	c6.333,2,13.608,3.144,24.114,6.254C44.787,87.599,70.197,95.127,70.5,94.5z"/>
<path style="fill:#F5E4C8;" d="M57.5,93.834c0.158-0.6-18.678-7.889-27.333-9.667c-8.863-1.652-12.667-4-19.333-3.333
	c6,1,11.303,2.688,20,5C39.279,88.237,57.354,94.474,57.5,93.834z"/>
<path style="fill:#F5E4C8;" d="M70.833,90.166c0.311-0.585-24.867-9.132-35.421-11.703C24.573,76,21.256,73.629,9.833,73.5
	c7.667,2.667,14.608,3.478,25.114,6.587C45.12,83.265,70.53,90.794,70.833,90.166z"/>
<path style="fill:#F5E4C8;" d="M18.79,85.447c12.463,1.977,16.575,4.168,27.901,8.51c11.008,4.364,24.317,8.088,27.809,8.876
	c0.439-0.617-16.042-6.267-27.319-10.135C35.588,88.863,31.313,87.101,18.79,85.447z"/>
<g>
	<path style="fill:#FF5FB6;" d="M55.029,10.688c0,0,5.89-8.113,11.041-8.549c5.151-0.436,10.292,0.472,17.097,2.694
		C89.972,7.057,93.834,7.5,104.5,9.5c10.576,1.983,21,8,21,8s-16.597,20.059-21.333,28.333C99.432,54.108,88.5,70.5,84.834,77.5
		c-1.75,3.341-8,10.667-8,10.667S32.392,72.539,21.614,70.782C12.01,69.216,3.167,67.5,3.167,67.5l52.107-56.969"/>
	<path d="M54.999,10.666c1.901-2.538,4.051-4.928,6.643-6.805c1.301-0.907,2.755-1.715,4.396-1.891
		c1.585-0.147,3.194-0.151,4.783-0.048c3.187,0.216,6.319,0.899,9.379,1.763c1.532,0.426,3.045,0.933,4.554,1.395
		c1.513,0.459,3.039,0.872,4.579,1.232c6.167,1.444,12.473,2.159,18.688,3.651c6.173,1.645,12.054,4.181,17.639,7.26
		c0.152,0.084,0.207,0.275,0.123,0.428l-0.032,0.048l-0.005,0.006c-4.564,5.513-9.055,11.093-13.398,16.781
		c-2.163,2.85-4.304,5.72-6.293,8.689c-1.011,1.475-1.882,3.027-2.803,4.571c-0.921,1.538-1.864,3.061-2.812,4.581
		c-3.814,6.064-7.685,12.092-11.394,18.217c-0.927,1.531-1.845,3.067-2.73,4.621c-0.897,1.533-1.647,3.186-2.706,4.654
		c-2.05,2.954-4.299,5.747-6.591,8.507c-0.065,0.079-0.175,0.103-0.266,0.072c-6.036-2.087-12.087-4.134-18.149-6.146
		c-6.065-2-12.125-4.016-18.219-5.923c-3.046-0.956-6.098-1.891-9.163-2.776c-3.065-0.871-6.143-1.752-9.25-2.345
		c-6.296-1.031-12.597-2.147-18.875-3.347C2.9,67.82,2.77,67.629,2.808,67.432c0.013-0.068,0.046-0.13,0.09-0.179l13.029-14.24
		l13.091-14.183L42.11,24.648l13.136-14.142c0.014-0.015,0.038-0.016,0.053-0.002c0.015,0.014,0.016,0.038,0.002,0.053
		L42.385,24.899L29.423,39.2L16.46,53.502L3.437,67.746l-0.2-0.604c6.271,1.205,12.551,2.323,18.862,3.363
		c3.17,0.609,6.241,1.495,9.318,2.373c3.071,0.892,6.126,1.831,9.175,2.791c12.193,3.841,24.273,8.014,36.322,12.27l-0.266,0.071
		c2.314-2.721,4.598-5.487,6.652-8.404c1.056-1.435,1.805-3.058,2.724-4.608c0.898-1.552,1.827-3.084,2.765-4.611
		c3.768-6.094,7.663-12.106,11.393-18.219c0.936-1.526,1.865-3.056,2.771-4.598c0.9-1.54,1.771-3.121,2.774-4.609
		c1.974-2.999,4.092-5.892,6.238-8.762c4.308-5.729,8.758-11.345,13.288-16.9l0.086,0.482c-5.528-3.026-11.4-5.528-17.485-7.183
		c-6.123-1.487-12.459-2.282-18.644-3.772c-1.547-0.375-3.082-0.802-4.601-1.275c-1.521-0.478-3.014-0.99-4.536-1.426
		c-3.035-0.88-6.133-1.579-9.281-1.815c-1.576-0.117-3.148-0.112-4.726,0.004c-1.543,0.133-2.986,0.886-4.282,1.758
		C59.195,5.871,57,8.217,55.06,10.71c-0.012,0.017-0.035,0.021-0.052,0.009C54.991,10.707,54.987,10.683,54.999,10.666z"/>
</g>
<g>
	<path d="M39.167,52.833c2.896-0.275,5.817-0.088,8.696,0.318c2.885,0.402,5.729,1.102,8.501,2.03
		c1.378,0.49,2.742,1.024,4.073,1.635c0.658,0.312,1.324,0.649,1.956,0.979l1.892,0.942c2.563,1.205,5.214,2.293,7.882,3.429
		c-2.888-0.333-5.719-1.018-8.477-1.986c-0.688-0.237-1.384-0.505-2.05-0.803c-0.664-0.293-1.299-0.564-1.959-0.825
		c-1.304-0.537-2.624-1.038-3.964-1.48c-2.666-0.934-5.396-1.693-8.152-2.395C44.802,53.995,42.013,53.385,39.167,52.833z"/>
</g>
<g>
	<path d="M41.562,57.477c1.977-0.108,3.94,0.065,5.876,0.392c1.936,0.329,3.85,0.811,5.708,1.468c1.857,0.646,3.668,1.48,5.361,2.46
		c1.654,0.961,3.352,1.85,5.049,2.875c-1.962-0.235-3.881-0.742-5.714-1.463c-1.792-0.705-3.564-1.35-5.359-1.986
		c-1.793-0.63-3.596-1.243-5.417-1.845C45.243,58.776,43.408,58.187,41.562,57.477z"/>
</g>
<g>
	<path d="M37.561,61.708c2.455-0.051,4.907,0.229,7.311,0.713c2.411,0.466,4.771,1.18,7.075,2.064
		c1.138,0.467,2.28,0.973,3.369,1.529c1.044,0.565,2.129,1.036,3.212,1.55l6.641,2.937c-2.451-0.213-4.85-0.746-7.197-1.479
		c-1.179-0.351-2.332-0.812-3.47-1.298c-1.094-0.495-2.173-0.956-3.288-1.379c-2.205-0.887-4.464-1.659-6.738-2.419L37.561,61.708z"
		/>
</g>
<path style="fill:#C5C3C2;" d="M97.571,63.283c-8.979,12.749-16.167,23.9-15.976,24.493c-0.039-0.155,7.167-10.789,16.15-23.546
	c8.969-12.823,16.252-23.124,16.22-23.341C113.916,40.562,106.546,50.451,97.571,63.283z"/>
<path style="fill:#C5C3C2;" d="M85.044,95.405c0.03,0.09,7.41-11.086,16.537-24.871c9.12-13.788,16.457-25.289,16.366-25.634
	c-0.036-0.131-7.444,10.935-16.57,24.733C92.254,83.408,84.938,95.031,85.044,95.405z"/>
<path style="fill:#C5C3C2;" d="M83.604,91.653c0.031,0.095,7.806-11.713,17.422-26.281c9.607-14.57,17.337-26.723,17.243-27.088
	c-0.038-0.138-7.843,11.557-17.456,26.136C91.201,78.978,83.494,91.26,83.604,91.653z"/>
<path style="fill:#C5C3C2;" d="M79.873,86.591c0.031,0.096,8.037-11.028,17.652-25.595c9.607-14.57,20.113-29.848,20.019-30.213
	c-0.038-0.137-10.849,13.996-20.462,28.577C87.47,73.916,79.762,86.198,79.873,86.591z"/>
<path style="fill:#C5C3C2;" d="M93.576,79.579c-0.032-0.155-2.922,3.912-6.458,9.083c-3.536,5.171-6.376,9.488-6.345,9.641
	c0.03,0.153,2.921-3.912,6.457-9.082C90.766,84.048,93.606,79.732,93.576,79.579z"/>
<path style="fill:#C5C3C2;" d="M109.079,56.016c3.536-5.172,6.377-9.49,6.347-9.644c-0.031-0.153-2.922,3.914-6.458,9.084
	c-3.535,5.17-6.375,9.487-6.346,9.642C102.653,65.251,105.544,61.186,109.079,56.016z"/>
<g>
	<path d="M6.681,68.745c-0.411-0.052-0.954,0.212-1.247,0.686c-0.317,0.475-0.483,1.102-0.565,1.738
		c-0.157,1.288-0.03,2.64,0.172,3.966c0.196,1.345,0.405,2.688,0.648,4.026c0.257,1.333,0.488,2.68,0.937,3.965
		c-0.545-1.252-0.878-2.584-1.236-3.899c-0.343-1.321-0.656-2.649-0.95-3.983c-0.27-1.349-0.475-2.729-0.372-4.158
		c0.062-0.71,0.198-1.45,0.605-2.138c0.403-0.685,1.177-1.266,2.148-1.192c0.275,0.021,0.482,0.261,0.461,0.537
		c-0.021,0.275-0.261,0.482-0.537,0.461c-0.008,0-0.016-0.002-0.024-0.003L6.681,68.745z"/>
</g>
</svg>
