<?xml version="1.0" encoding="iso-8859-1"?>
<!-- Generator: Adobe Illustrator 21.1.0, SVG Export Plug-In . SVG Version: 6.00 Build 0)  -->
<svg version="1.1" id="cupboard" xmlns="http://www.w3.org/2000/svg" xmlns:xlink="http://www.w3.org/1999/xlink" x="0px" y="0px"
	 width="78.753px" height="120.952px" viewBox="0 0 78.753 120.952" style="enable-background:new 0 0 78.753 120.952;"
	 xml:space="preserve">
<g>
	<path style="fill:#45BC19;" d="M67.849,29.616c-4.93-7.197-8.775-8.184-11.833-7.592c-1.842,0.356-2.562,0.817-3.599,1.677
		c-0.312,0.274-0.532-0.369-0.532-0.369S51.042,7.641,51.042,5.076c0-0.694-0.754-1.232-1.125-1.375
		c-2.255-1.012-9.133,0.5-19.125,0.5c-9.231,0-12.208-1.772-15.125-0.875c-0.787,0.242-3.632-0.387-4.625-0.125
		C8.993,3.738,4.058,5.54,4.167,6.076c0.232,1.133,1.672,1.366,2.484,2.695c0.168,0.305,0.261,0.599,0.26,0.985
		c-0.002,0.889-0.006,1.936-0.006,3.3c0.001,25.516-5.229,92.68-5.238,97.395c-0.008,5.564,14.392,8.74,27.25,8.75
		c12.555,0.011,28.048-3.155,28.262-9.919c0.113-3.581-1.271-6.865-2.512-28.831c-0.02-0.344,0.138-0.476,0.482-0.553
		c0.786-0.138,1.058-0.49,1.795-1.967c1.479-2.957,4.1-6.803,8.538-8.973C69.919,66.791,75.659,61,76.919,54.168
		C78.595,45.098,72.778,36.814,67.849,29.616z M67.751,59.494c-6.51,6.408-9.834,3.943-11.51,3.351
		c-0.748-0.264-0.887-0.485-1.699-0.645c-0.475-0.1-0.696-0.818-0.696-0.818l-1.304-24.182c0,0,0.2-0.253,0.305-0.253
		c0.284-0.001,1.018-0.692,1.32-1.247c1.435-2.65,1.051-5.531,1.356-6.676c0.394-1.479,2.071-1.775,3.648-0.689
		c1.578,1.084,5.168,4.851,8.777,11.733C71.102,46.083,74.258,53.084,67.751,59.494z"/>
	<g>
		<path style="fill:#1D1D1B;" d="M67.817,29.638c-0.936-1.35-1.933-2.658-3.064-3.846c-1.131-1.182-2.393-2.267-3.857-3.002
			c-1.452-0.747-3.141-1.03-4.746-0.721c-0.802,0.152-1.604,0.35-2.321,0.731c-0.359,0.188-0.691,0.424-1.013,0.675
			c-0.183,0.113-0.264,0.285-0.541,0.368c-0.31-0.041-0.374-0.302-0.463-0.486l-0.004-0.007l-0.001-0.015l-0.575-10.164l-0.26-5.085
			L50.87,5.541c-0.012-0.217,0.006-0.428-0.024-0.614c-0.029-0.156-0.117-0.335-0.236-0.478c-0.248-0.301-0.566-0.523-0.959-0.649
			C48.9,3.56,48.032,3.548,47.2,3.553c-0.841,0.011-1.685,0.065-2.528,0.125l-5.073,0.407c-3.388,0.261-6.787,0.42-10.192,0.38
			c-1.705-0.023-3.408-0.113-5.107-0.281c-1.696-0.16-3.387-0.431-5.055-0.642c-0.832-0.104-1.661-0.186-2.462-0.106
			c-0.2,0.022-0.398,0.05-0.594,0.092c-0.203,0.034-0.359,0.105-0.64,0.153c-0.495,0.055-0.911,0.006-1.344-0.027
			c-0.853-0.074-1.696-0.195-2.507-0.201c-0.199,0.001-0.4,0.012-0.559,0.049l-0.6,0.167L9.338,4.047
			C7.759,4.594,6.113,5.153,4.705,5.944C4.531,6.031,4.399,6.228,4.481,6.066c0.026,0.117,0.062,0.18,0.089,0.241
			c0.042,0.069,0.083,0.147,0.143,0.213C4.934,6.802,5.279,7.035,5.62,7.296c0.669,0.511,1.447,1.175,1.567,2.203
			c0.016,3.453-0.016,6.809-0.113,10.216C6.673,33.29,5.831,46.839,4.976,60.386l-2.528,40.642l-0.305,5.08l-0.137,2.539
			c-0.014,0.838-0.145,1.72,0.013,2.461c0.386,1.545,1.831,2.628,3.246,3.429c1.456,0.807,3.04,1.396,4.647,1.883
			c3.227,0.966,6.57,1.528,9.923,1.923c3.356,0.381,6.739,0.551,10.117,0.509c3.377-0.047,6.755-0.306,10.096-0.792
			c3.335-0.497,6.657-1.201,9.799-2.382c1.561-0.598,3.09-1.315,4.41-2.301c1.304-0.968,2.428-2.303,2.548-3.883
			c0.093-1.618-0.189-3.313-0.393-4.99c-0.221-1.682-0.432-3.37-0.617-5.059c-0.375-3.379-0.671-6.764-0.926-10.15l-0.352-5.082
			l-0.151-2.542l-0.062-1.297c-0.001-0.12,0.041-0.384,0.19-0.529c0.147-0.159,0.308-0.216,0.438-0.26
			c0.291-0.073,0.402-0.081,0.554-0.156c0.267-0.125,0.487-0.441,0.692-0.791c0.205-0.354,0.39-0.727,0.587-1.108
			c0.398-0.765,0.833-1.506,1.308-2.224c0.948-1.436,2.061-2.77,3.344-3.923c1.275-1.157,2.75-2.118,4.294-2.839
			c1.474-0.768,2.846-1.767,4.097-2.884c2.494-2.244,4.588-4.984,5.9-8.084c1.332-3.093,1.658-6.573,1.087-9.893
			c-0.558-3.336-1.907-6.493-3.529-9.458C71.639,35.25,69.722,32.444,67.817,29.638z M67.88,29.595
			c1.93,2.789,3.874,5.579,5.535,8.547c1.654,2.96,3.044,6.123,3.641,9.495c0.61,3.355,0.313,6.909-1.016,10.076
			c-1.309,3.17-3.397,5.981-5.915,8.297c-1.265,1.156-2.645,2.189-4.172,3.008c-1.522,0.734-2.908,1.664-4.136,2.802
			c-1.229,1.13-2.292,2.436-3.197,3.842c-0.453,0.702-0.869,1.432-1.245,2.176c-0.19,0.374-0.375,0.765-0.592,1.147
			c-0.22,0.37-0.473,0.815-0.977,1.079c-0.228,0.123-0.544,0.173-0.662,0.208c-0.157,0.083-0.091,0.003-0.113,0.111l0.075,1.244
			l0.158,2.538l0.346,5.074c0.25,3.38,0.542,6.758,0.911,10.125c0.184,1.684,0.392,3.364,0.609,5.046
			c0.199,1.686,0.491,3.364,0.391,5.145c-0.075,0.918-0.44,1.796-0.961,2.524c-0.521,0.734-1.177,1.343-1.875,1.868
			c-1.407,1.045-2.985,1.779-4.587,2.392c-3.219,1.205-6.578,1.91-9.949,2.41c-3.375,0.488-6.779,0.745-10.187,0.789
			c-3.408,0.039-6.816-0.136-10.203-0.522c-3.384-0.393-6.754-1-10.027-2c-1.633-0.507-3.246-1.117-4.755-1.967
			c-0.75-0.43-1.478-0.92-2.113-1.535c-0.628-0.612-1.178-1.377-1.383-2.283c-0.108-0.46-0.089-0.914-0.071-1.337l0.064-1.275
			l0.158-2.543l0.346-5.079c0.956-13.54,1.913-27.078,2.771-40.624c0.761-13.55,1.495-27.106,1.81-40.67
			c0.076-3.377,0.081-6.81,0.05-10.142C6.535,8.849,5.913,8.253,5.26,7.774C4.931,7.521,4.554,7.284,4.24,6.9
			C4.159,6.808,4.095,6.698,4.029,6.586C3.966,6.455,3.914,6.324,3.894,6.233L3.866,6.125C3.852,6.023,3.881,5.903,3.908,5.867
			c0.063-0.128,0.115-0.159,0.169-0.216c0.104-0.098,0.201-0.158,0.299-0.223c1.552-0.875,3.147-1.404,4.765-1.974l1.223-0.389
			l0.627-0.176c0.255-0.06,0.481-0.067,0.705-0.069c0.889,0.003,1.728,0.125,2.566,0.193c0.41,0.032,0.846,0.068,1.195,0.026
			c0.139-0.02,0.38-0.11,0.596-0.149c0.219-0.05,0.441-0.082,0.663-0.108c0.89-0.093,1.764-0.012,2.612,0.09
			c1.696,0.235,3.355,0.52,5.036,0.699c1.677,0.186,3.363,0.294,5.052,0.336c3.381,0.077,6.769-0.057,10.149-0.285l5.077-0.363
			c0.849-0.053,1.699-0.101,2.555-0.105c0.857,0.008,1.717,0.009,2.59,0.294c0.413,0.136,0.825,0.411,1.108,0.771
			c0.147,0.186,0.262,0.396,0.308,0.657c0.034,0.233,0.012,0.449,0.022,0.655l0.072,2.541l0.201,5.085l0.464,10.169l-0.005-0.021
			c0.061,0.167,0.185,0.387,0.31,0.384c0.117-0.028,0.298-0.225,0.455-0.333c0.326-0.253,0.667-0.494,1.038-0.686
			c0.739-0.39,1.557-0.585,2.365-0.735c1.633-0.309,3.355-0.012,4.821,0.751c1.479,0.75,2.743,1.848,3.874,3.039
			C65.953,26.924,66.948,28.241,67.88,29.595z"/>
		<path style="fill:#1D1D1B;" d="M67.777,59.521c-0.939,0.938-1.938,1.825-3.036,2.583c-1.098,0.748-2.284,1.42-3.614,1.723
			c-1.321,0.323-2.764,0.159-4.02-0.352c-0.315-0.118-0.625-0.251-0.921-0.352c-0.315-0.097-0.66-0.265-0.937-0.394
			c-0.304-0.145-0.512-0.166-0.936-0.286c-0.482-0.248-0.618-0.6-0.769-0.968l-0.01-0.024l-0.004-0.052
			c-0.271-4.027-0.41-8.062-0.546-12.097c-0.061-2.018-0.143-4.034-0.243-6.049c-0.08-2.017-0.223-4.03-0.337-6.045L52.4,37.135
			l0.034-0.019c0.979-0.534,1.57-1.247,1.925-2.238c0.374-0.939,0.571-1.94,0.666-2.952c0.05-0.506,0.072-1.016,0.095-1.531
			c0.036-0.517,0.014-1.037,0.193-1.602c0.162-0.56,0.621-1.064,1.189-1.269c0.566-0.21,1.177-0.174,1.714-0.01
			c1.108,0.332,1.902,1.115,2.654,1.821c0.752,0.732,1.444,1.515,2.104,2.321c1.316,1.616,2.505,3.328,3.567,5.113
			c1.069,1.783,2.03,3.618,2.934,5.486c0.88,1.88,1.648,3.843,2.039,5.908c0.384,2.057,0.341,4.229-0.346,6.208
			C70.487,56.35,69.269,58.094,67.777,59.521z M67.725,59.468c1.441-1.456,2.665-3.19,3.219-5.166
			c0.579-1.966,0.506-4.057,0.027-6.022c-0.464-1.978-1.271-3.861-2.173-5.696c-0.901-1.84-1.866-3.658-2.928-5.407
			c-1.071-1.744-2.202-3.454-3.473-5.053c-0.635-0.798-1.302-1.572-2.018-2.289c-0.723-0.702-1.465-1.421-2.353-1.711
			c-0.438-0.149-0.914-0.181-1.322-0.042c-0.407,0.137-0.733,0.462-0.874,0.887c-0.154,0.417-0.165,0.949-0.211,1.456
			c-0.037,0.514-0.076,1.034-0.142,1.553c-0.128,1.036-0.365,2.073-0.786,3.04c-0.211,0.472-0.447,0.97-0.827,1.362
			c-0.182,0.196-0.375,0.379-0.604,0.536c-0.057,0.039-0.116,0.076-0.185,0.108c-0.056,0.035-0.19,0.064-0.224,0.066
			c-0.007-0.003-0.144,0.116-0.203,0.196l0.029-0.092c0.104,2.015,0.178,4.032,0.315,6.046c0.116,2.015,0.252,4.028,0.408,6.041
			c0.299,4.025,0.594,8.052,0.758,12.085l-0.014-0.076c0.069,0.242,0.266,0.537,0.391,0.588c0.209,0.064,0.664,0.162,0.956,0.319
			c0.319,0.159,0.571,0.286,0.885,0.401c0.326,0.13,0.62,0.276,0.921,0.405c1.177,0.544,2.482,0.764,3.767,0.519
			c1.279-0.235,2.5-0.805,3.596-1.537C65.762,61.253,66.77,60.387,67.725,59.468z"/>
	</g>
</g>
<g>
	<path style="fill:#FFFFFF;" d="M50.542,4.035c-2.15,0.893-9.514,1.906-20.703,1.906c-10.522,0-17.57-0.471-20.172-1.323
		c-0.266-0.067-0.5-0.082-0.815,0.075c-0.828,0.44-2.265,0.793-3.31,1.317C4.089,6.74,3.931,5.938,4.311,5.654
		c0.361-0.268,1.128-0.527,1.696-0.702c0.896-0.273,2.003-0.874,2.815-1.191C9.191,3.617,9.632,3.473,9.94,3.384
		c2.86-0.817,9.83-1.635,19.898-1.635c11.154,0,18.503,1.003,20.681,1.895C50.768,3.756,50.776,3.928,50.542,4.035z"/>
	<g>
		<path style="fill:#1D1D1B;" d="M50.557,4.069c-1.871,0.69-3.858,0.932-5.816,1.209c-1.966,0.248-3.941,0.421-5.919,0.551
			C34.869,6.117,30.9,6.25,26.937,6.286c-3.965,0.031-7.934,0.041-11.914-0.234c-0.994-0.078-1.99-0.173-2.989-0.311
			c-0.499-0.07-1-0.151-1.504-0.256c-0.252-0.052-0.506-0.113-0.761-0.183C9.46,5.207,9.374,5.189,9.294,5.204
			c-0.039,0.007-0.087,0.02-0.152,0.054C9.051,5.305,8.924,5.369,8.786,5.431C8.537,5.542,8.297,5.635,8.059,5.725l-1.385,0.51
			C6.206,6.401,5.893,6.601,5.293,6.838C4.981,6.917,4.698,7.072,4.114,6.9C3.827,6.827,3.452,6.429,3.463,6.029
			c-0.01-0.381,0.16-0.667,0.389-0.866C4.471,4.725,4.93,4.624,5.43,4.442c0.531-0.16,0.891-0.281,1.341-0.48
			c0.862-0.373,1.823-0.854,2.822-1.13c2.005-0.553,3.976-0.773,5.964-0.993c3.972-0.367,7.946-0.447,11.914-0.429
			c3.968,0.025,7.933,0.184,11.886,0.481c1.977,0.138,3.951,0.32,5.916,0.584c0.982,0.134,1.962,0.287,2.934,0.486
			c0.486,0.1,0.97,0.21,1.448,0.346c0.239,0.066,0.476,0.143,0.709,0.23c0.117,0.053,0.241,0.071,0.34,0.19
			C50.83,3.864,50.666,4.041,50.557,4.069z M50.527,4.001c0.105-0.045,0.195-0.143,0.114-0.225
			c-0.062-0.083-0.199-0.119-0.306-0.161c-0.231-0.084-0.467-0.158-0.705-0.223c-0.476-0.13-0.959-0.236-1.444-0.332
			c-0.97-0.19-1.949-0.334-2.93-0.459c-1.964-0.247-3.937-0.412-5.911-0.533c-3.951-0.237-7.912-0.299-11.869-0.247
			c-3.957,0.059-7.916,0.233-11.85,0.661C13.666,2.714,11.691,2.959,9.796,3.5C8.846,3.77,7.969,4.222,7.06,4.625
			c-0.896,0.438-1.93,0.57-2.723,1.107c-0.169,0.134-0.175,0.413,0.04,0.471C4.578,6.275,4.83,6.209,5.053,6.139
			C5.5,5.968,5.946,5.718,6.415,5.556l1.398-0.502C8.045,4.97,8.275,4.882,8.5,4.784c0.218-0.088,0.435-0.245,0.707-0.275
			C9.475,4.471,9.734,4.565,9.96,4.635c0.237,0.065,0.475,0.126,0.717,0.177c0.481,0.104,0.968,0.188,1.456,0.261
			c0.978,0.145,1.962,0.246,2.946,0.333c3.943,0.33,7.904,0.421,11.861,0.467c3.959,0.043,7.919,0.008,11.871-0.22
			c1.976-0.112,3.949-0.268,5.914-0.5C46.681,4.894,48.669,4.669,50.527,4.001z"/>
	</g>
</g>
<g>
	<path style="fill:#1D1D1B;" d="M47.501,73.451c0.374,0.587,0.787,1.132,1.211,1.668c0.433,0.53,0.863,1.059,1.321,1.563
		c0.911,1.016,1.856,1.986,2.979,2.808c-0.663-0.229-1.265-0.612-1.819-1.038c-0.561-0.425-1.062-0.919-1.532-1.437
		c-0.46-0.527-0.894-1.079-1.261-1.675C48.032,74.748,47.688,74.128,47.501,73.451z"/>
</g>
<path style="fill:#006838;" d="M9.394,91.567c-1.055,0-1.958,0.627-2.375,1.524c1.586,0.382,3.255,0.726,4.99,1.024
	C11.969,92.702,10.816,91.567,9.394,91.567z"/>
<path style="fill:#006838;" d="M6.769,94.191c0,1.449,1.174,2.624,2.624,2.624c1.128,0,2.082-0.717,2.454-1.717
	c-1.765-0.301-3.454-0.649-5.064-1.038C6.781,94.105,6.769,94.146,6.769,94.191z"/>
<path style="fill:#006838;" d="M14.972,92.552c-1.103,0-2.044,0.684-2.432,1.649c1.621,0.27,3.297,0.5,5.026,0.689
	C17.422,93.577,16.323,92.552,14.972,92.552z"/>
<path style="fill:#006838;" d="M14.972,97.799c1.203,0,2.208-0.814,2.516-1.92c-1.769-0.19-3.484-0.424-5.139-0.696
	C12.352,96.628,13.524,97.799,14.972,97.799z"/>
<path style="fill:#006838;" d="M20.551,93.043c-1.195,0-2.19,0.805-2.509,1.896c1.659,0.173,3.359,0.311,5.1,0.406
	C22.979,94.05,21.888,93.043,20.551,93.043z"/>
<path style="fill:#006838;" d="M20.551,98.291c1.219,0,2.235-0.836,2.528-1.964c-1.751-0.093-3.46-0.229-5.127-0.399
	C18.085,97.254,19.19,98.291,20.551,98.291z"/>
<path style="fill:#006838;" d="M26.129,98.619c1.282,0,2.346-0.921,2.574-2.136c-1.753-0.005-3.475-0.052-5.162-0.135
	C23.715,97.629,24.801,98.619,26.129,98.619z"/>
<path style="fill:#006838;" d="M26.129,93.371c-1.231,0-2.255,0.851-2.538,1.992c1.673,0.085,3.379,0.131,5.112,0.136
	C28.471,94.287,27.408,93.371,26.129,93.371z"/>
<path style="fill:#006838;" d="M31.706,98.701c1.353,0,2.452-1.025,2.596-2.339c-1.693,0.079-3.419,0.124-5.177,0.125
	C29.322,97.74,30.398,98.701,31.706,98.701z"/>
<path style="fill:#006838;" d="M31.706,93.453c-1.25,0-2.292,0.878-2.556,2.049c1.72-0.001,3.411-0.045,5.074-0.123
	C33.917,94.271,32.912,93.453,31.706,93.453z"/>
<path style="fill:#006838;" d="M37.285,93.125c-1.314,0-2.393,0.971-2.585,2.232c1.732-0.09,3.426-0.22,5.078-0.387
	C39.445,93.904,38.462,93.125,37.285,93.125z"/>
<path style="fill:#006838;" d="M37.285,98.372c1.378,0,2.495-1.064,2.603-2.413c-1.674,0.167-3.395,0.296-5.152,0.384
	C35.004,97.505,36.041,98.372,37.285,98.372z"/>
<path style="fill:#006838;" d="M42.865,97.717c1.399,0,2.533-1.1,2.608-2.481c-1.64,0.264-3.34,0.489-5.091,0.672
	C40.726,96.955,41.701,97.717,42.865,97.717z"/>
<path style="fill:#006838;" d="M42.865,92.47c-1.391,0-2.517,1.085-2.607,2.452c1.746-0.185,3.439-0.411,5.077-0.677
	C44.98,93.214,44.014,92.47,42.865,92.47z"/>
<path style="fill:#006838;" d="M48.442,96.815c1.449,0,2.624-1.175,2.624-2.624c0-0.021-0.006-0.04-0.007-0.061
	c-1.608,0.382-3.296,0.721-5.056,1.016C46.388,96.122,47.331,96.815,48.442,96.815z"/>
<path style="fill:#006838;" d="M48.442,91.567c-1.44,0-2.607,1.162-2.621,2.599c1.75-0.295,3.43-0.633,5.03-1.012
	C50.449,92.221,49.522,91.567,48.442,91.567z"/>
<path style="fill:#006838;" d="M6.428,92.943c0.002-0.036,0.012-0.068,0.012-0.104c0-1.448-1.175-2.624-2.625-2.624
	c-0.296,0-0.572,0.064-0.838,0.155l-0.105,1.556C4.008,92.285,5.182,92.631,6.428,92.943z"/>
<path style="fill:#006838;" d="M3.814,95.462c1.063,0,1.972-0.634,2.385-1.54c-1.187-0.298-2.307-0.627-3.395-0.971l-0.149,2.229
	C3.007,95.355,3.397,95.462,3.814,95.462z"/>
<path style="fill:#006838;" d="M54.02,90.255c-1.449,0-2.623,1.175-2.623,2.625c0,0.047,0.012,0.093,0.014,0.141
	c1.22-0.3,2.368-0.633,3.483-0.978l-0.098-1.66C54.551,90.305,54.293,90.255,54.02,90.255z"/>
<path style="fill:#006838;" d="M51.651,93.99c0.42,0.892,1.319,1.512,2.369,1.512c0.38,0,0.737-0.084,1.065-0.229l-0.13-2.202
	C53.894,93.396,52.802,93.707,51.651,93.99z"/>
<path style="opacity:0.28;fill:#FFFFFF;" d="M7.917,7.576c0.084,0.891,1.584,0.958,1.584,3.208s-6,100.334-6,100.334
	s4.978,5.315,11.5,4.666c1.666-0.166,2.5-108,2.5-108s-4.828-0.524-6.167-0.833C9.167,6.451,7.835,6.712,7.917,7.576z"/>
</svg>
