<?xml version="1.0" encoding="iso-8859-1"?>
<!-- Generator: Adobe Illustrator 21.1.0, SVG Export Plug-In . SVG Version: 6.00 Build 0)  -->
<svg version="1.1" id="Layer_1" xmlns="http://www.w3.org/2000/svg" xmlns:xlink="http://www.w3.org/1999/xlink" x="0px" y="0px"
	 viewBox="0 0 293.735 32.069" style="enable-background:new 0 0 293.735 32.069;" xml:space="preserve">
<g>
	<polygon style="fill:#FFD5C7;" points="51.973,1.8 1.782,15.967 51.973,30.133 65.782,23.362 60.449,5.696 	"/>
	<path style="fill:#1D1D1B;" d="M51.964,1.907L1.952,16.567v-1.201l25.155,6.869l12.585,3.412c4.188,1.159,8.388,2.28,12.56,3.497
		l-0.73,0.066l6.926-3.343l6.954-3.282l-0.447,1.026c-0.835-2.961-1.712-5.908-2.509-8.881l-2.437-8.902l0.248,0.285
		C57.493,4.71,54.714,3.341,51.964,1.907z M52.015,1.709c2.89,1.157,5.75,2.381,8.626,3.569c0.117,0.048,0.201,0.144,0.238,0.255
		l0.01,0.03l2.896,8.764c0.98,2.916,1.882,5.857,2.824,8.785c0.129,0.401-0.058,0.828-0.422,1.014l-0.025,0.013l-6.854,3.488
		l-6.883,3.428c-0.23,0.114-0.484,0.133-0.715,0.07l-0.017-0.004c-4.192-1.144-8.358-2.384-12.535-3.586l-12.511-3.671L1.612,16.567
		l-0.011-0.003c-0.33-0.096-0.52-0.441-0.424-0.771c0.064-0.216,0.233-0.372,0.435-0.427L51.946,1.703
		C51.969,1.697,51.995,1.701,52.015,1.709z"/>
</g>
<polygon style="fill:#575756;stroke:#1D1D1B;" points="1.782,15.967 16.782,11.732 15.782,20.2 "/>
<path style="fill:#F8B133;" d="M55.639,23.362c2.108,8.68,201.809,0.596,201.809,0.596s1.705-12.884,0-12.929
	c-2.166-0.058-201.309-0.833-201.309-0.833S55.073,21.03,55.639,23.362z"/>
<path style="fill:#F9CF5F;" d="M56.139,11.029c8.928,0.262,201.309,0,201.309,0s1.334-10.234,0-9.172
	C256.114,2.92,51.973,1.8,51.973,1.8S54.616,10.984,56.139,11.029z"/>
<line style="fill:#9C9B9B;stroke:#1D1D1B;stroke-linecap:round;stroke-linejoin:round;stroke-miterlimit:10;" x1="56.139" y1="11.029" x2="260.614" y2="11.029"/>
<line style="fill:#9C9B9B;stroke:#1D1D1B;stroke-linecap:round;stroke-linejoin:round;stroke-miterlimit:10;" x1="55.639" y1="23.362" x2="266.115" y2="23.362"/>
<polygon style="fill:#F89233;" points="55.639,23.362 51.973,30.133 257.448,30.133 257.448,23.958 "/>
<g>
	<path style="fill:#1D1D1B;" d="M287.233,30.232l-29.407,0.373l-29.407,0.264c-19.605,0.096-39.211,0.27-58.815,0.277
		c-19.604,0.007-39.21,0.094-58.814-0.006c-19.605-0.055-39.21-0.106-58.815-0.266h-0.011c-0.408-0.003-0.736-0.337-0.733-0.745
		c0.001-0.125,0.035-0.246,0.091-0.349l4.049-7.411l-0.081,0.325l0.073-11l0.044,0.229l-3.934-9.922l-0.003-0.008
		c-0.109-0.276,0.026-0.589,0.303-0.698c0.066-0.026,0.136-0.039,0.202-0.038c19.605,0.155,39.21,0.255,58.814,0.217
		c19.606-0.023,39.211-0.236,58.815-0.399c9.803-0.106,19.605-0.124,29.407-0.148c9.803-0.052,19.605,0.002,29.408,0.033
		l29.407,0.111l29.407,0.241h0.011c0.265,0.002,0.478,0.219,0.475,0.482V1.8l-0.386,28.333
		C287.333,30.188,287.288,30.232,287.233,30.232z M287.132,30.031L286.748,1.8l0.485,0.485l-29.407,0.241l-29.407,0.111
		c-9.803,0.031-19.605,0.085-29.408,0.033c-9.803-0.023-19.604-0.042-29.407-0.148c-19.604-0.163-39.21-0.377-58.815-0.399
		C91.183,2.086,71.579,2.186,51.973,2.341l0.502-0.744l4.066,9.869c0.029,0.071,0.044,0.146,0.045,0.22l-0.001,0.01l0.073,11
		c0.001,0.113-0.026,0.221-0.075,0.315l-0.006,0.011l-3.951,7.464l-0.653-1.094c19.605-0.159,39.21-0.211,58.815-0.266
		c19.605-0.1,39.21-0.013,58.814-0.006c19.605,0.008,39.21,0.182,58.815,0.277l29.407,0.264L287.132,30.031z"/>
</g>
<g>
	<path style="fill:#EA9494;" d="M293.233,24.464c0,3.131-2.538,5.669-5.669,5.669h-6.662c-3.131,0-5.669-2.538-5.669-5.669V7.469
		c0-3.131,2.538-5.669,5.669-5.669h6.662c3.131,0,5.669,2.538,5.669,5.669V24.464z"/>
	<path style="fill:#1D1D1B;" d="M293.283,24.465c0.014,1.744-0.809,3.475-2.18,4.592c-0.68,0.566-1.499,0.973-2.373,1.181
		c-0.893,0.212-1.774,0.157-2.628,0.209c-1.727,0.065-3.455,0.118-5.184,0.126c-1.869,0.041-3.709-0.904-4.823-2.382
		c-0.563-0.737-0.925-1.616-1.091-2.518c-0.165-0.926-0.053-1.8-0.05-2.653c0.056-1.729,0.097-3.456,0.105-5.184
		c0.051-3.456-0.021-6.911-0.101-10.367c-0.054-1.81,0.774-3.664,2.241-4.804c0.721-0.579,1.582-0.986,2.491-1.187
		c0.45-0.101,0.937-0.137,1.376-0.137l1.296-0.013l5.184-0.051c1.892-0.039,3.764,0.902,4.903,2.401
		c0.579,0.744,0.975,1.627,1.163,2.549c0.094,0.456,0.126,0.946,0.12,1.39l-0.024,1.296c-0.043,1.727-0.068,3.455-0.147,5.183
		C293.432,17.553,293.279,21.009,293.283,24.465z M293.183,24.463c0.004-3.455-0.15-6.91-0.279-10.366
		c-0.079-1.728-0.105-3.455-0.148-5.183l-0.024-1.296c0.001-0.421-0.028-0.797-0.109-1.188c-0.164-0.769-0.498-1.502-0.986-2.118
		c-0.964-1.256-2.517-1.983-4.089-1.991l-5.184-0.051l-1.296-0.013c-0.424-0.008-0.804,0.016-1.202,0.086
		c-0.782,0.145-1.537,0.468-2.181,0.949c-1.296,0.954-2.145,2.521-2.179,4.176c-0.08,3.456-0.151,6.911-0.101,10.367
		c0.009,1.728,0.05,3.455,0.105,5.184c0.043,0.868-0.011,1.739,0.179,2.514c0.186,0.789,0.556,1.526,1.06,2.149
		c0.989,1.277,2.574,2.001,4.169,2.011c1.729,0.008,3.456,0.061,5.184,0.126c0.869,0.011,1.732,0.124,2.541-0.015
		c0.818-0.136,1.615-0.46,2.3-0.954C292.334,27.874,293.189,26.183,293.183,24.463z"/>
</g>
<g>
	<rect x="257.448" y="0.8" style="fill:#D9D9D9;" width="24" height="30.333"/>
	<path style="fill:#1D1D1B;" d="M281.448,31.232c-4,0.248-8,0.414-12,0.542c-4,0.169-8,0.2-12,0.294
		c-0.504,0.013-0.922-0.386-0.935-0.889l-0.001-0.047c-0.066-2.527-0.079-5.056-0.089-7.583l-0.037-7.583
		c0.04-5.056,0.073-10.111,0.262-15.167l0.001-0.039c0.017-0.429,0.372-0.766,0.799-0.761l24,0.265h0.014
		c0.291,0.004,0.524,0.242,0.522,0.533V0.8l-0.436,30.333C281.548,31.186,281.501,31.23,281.448,31.232z M281.346,31.028
		L280.913,0.8l0.535,0.535l-24,0.265l0.8-0.8c0.189,5.056,0.222,10.111,0.262,15.167l-0.037,7.583
		c-0.01,2.527-0.022,5.056-0.089,7.583l-0.936-0.935c4,0.094,8,0.125,12,0.294C273.414,30.618,277.381,30.784,281.346,31.028z"/>
</g>
<g>
	<polygon style="fill:#1D1D1B;" points="265.698,1.133 265.198,29.445 264.698,1.133 	"/>
</g>
<g>
	<polygon style="fill:#1D1D1B;" points="270.948,1.133 270.448,29.445 269.948,1.133 	"/>
</g>
<g>
	<polygon style="fill:#1D1D1B;" points="276.733,1.133 276.233,29.445 275.733,1.133 	"/>
</g>
</svg>
