<?xml version="1.0" encoding="iso-8859-1"?>
<!-- Generator: Adobe Illustrator 21.1.0, SVG Export Plug-In . SVG Version: 6.00 Build 0)  -->
<svg version="1.1" id="cupboard" xmlns="http://www.w3.org/2000/svg" xmlns:xlink="http://www.w3.org/1999/xlink" x="0px" y="0px"
	 width="125.314px" height="198.12px" viewBox="0 0 125.314 198.12" style="enable-background:new 0 0 125.314 198.12;"
	 xml:space="preserve">
<linearGradient id="SVGID_1_" gradientUnits="userSpaceOnUse" x1="5.5701" y1="178.0814" x2="120.2975" y2="179.3629">
	<stop  offset="0" style="stop-color:#4B4747"/>
	<stop  offset="1" style="stop-color:#D9D9DB"/>
</linearGradient>
<path style="fill-rule:evenodd;clip-rule:evenodd;fill:url(#SVGID_1_);stroke:#000000;" d="M7.644,170.443l110.345-0.197
	c1.589,1.258,2.407,2.58,2.407,3.903c0,7.533-25.734,13.648-57.459,13.648c-31.726,0-57.455-6.115-57.455-13.648
	C5.481,172.898,6.213,171.645,7.644,170.443z"/>
<linearGradient id="SVGID_2_" gradientUnits="userSpaceOnUse" x1="5.5732" y1="182.5771" x2="120.284" y2="183.9484">
	<stop  offset="0" style="stop-color:#777576"/>
	<stop  offset="1" style="stop-color:#EEEFF0"/>
</linearGradient>
<path style="fill-rule:evenodd;clip-rule:evenodd;fill:url(#SVGID_2_);stroke:#000000;" d="M120.396,174.194v5.63
	c0,7.278-25.734,13.176-57.459,13.176c-31.726,0-57.455-5.897-57.455-13.176v-5.63c0,7.278,25.729,13.177,57.455,13.177
	C94.661,187.371,120.396,181.473,120.396,174.194z"/>
<linearGradient id="SVGID_3_" gradientUnits="userSpaceOnUse" x1="5.5104" y1="181.4444" x2="120.4183" y2="180.9501">
	<stop  offset="0" style="stop-color:#C8C6C8"/>
	<stop  offset="1" style="stop-color:#FFFFFF"/>
</linearGradient>
<path style="fill-rule:evenodd;clip-rule:evenodd;fill:url(#SVGID_3_);" d="M5.486,174.508c-0.027-0.249,0.044-0.192,0.065,0
	c0,3.298,6.727,6.741,16.862,9.067c10.364,2.377,24.692,3.488,40.522,3.488c31.436,0,57.312-5.744,57.312-12.556
	c0.006-0.255,0.143-0.249,0.143,0c0,7.616-25.435,13.79-57.454,13.79c-15.895,0-30.295-1.477-40.725-3.873
	C11.554,181.983,5.486,178.482,5.486,174.508z"/>
<g>
	<path style="fill-rule:evenodd;clip-rule:evenodd;fill:#C20000;" d="M119.474,20.062c-1.229,4.02-25.643,8.868-56.789,8.956
		c-30.654-0.17-46.151-2.955-56.095-7.427l0.055,150.413c-0.065,5.45,25.314,12.238,56.084,12.03
		c18.932,0.787,55.396-5.073,55.871-12.238L119.474,20.062z"/>
	<path d="M119.521,20.08c-0.201,0.597-0.711,1.002-1.193,1.351c-0.498,0.346-1.034,0.627-1.578,0.886
		c-1.092,0.513-2.228,0.919-3.372,1.289c-2.294,0.729-4.634,1.297-6.985,1.796c-4.707,0.987-9.466,1.705-14.24,2.263
		c-9.554,1.084-19.167,1.588-28.779,1.669c-9.614-0.012-19.23-0.257-28.816-1.119c-4.791-0.441-9.574-1.046-14.307-1.986
		c-4.727-0.936-9.415-2.245-13.834-4.247l0.603-0.39L6.793,126.559l0.07,26.242l0.035,13.121l0.009,3.28l0.005,1.64
		c0.02,0.538-0.041,1.125,0.056,1.572c0.263,0.931,1.139,1.67,1.993,2.27c0.882,0.604,1.845,1.103,2.827,1.554
		c3.964,1.767,8.213,2.871,12.462,3.814c4.263,0.921,8.576,1.609,12.907,2.14c8.675,1.069,17.384,1.441,26.151,1.412
		c8.7,0.228,17.436-0.566,26.067-1.786c4.315-0.631,8.613-1.402,12.854-2.398c4.218-1.026,8.473-2.169,12.301-4.114
		c0.939-0.499,1.855-1.062,2.588-1.768c0.363-0.35,0.675-0.742,0.851-1.16c0.087-0.198,0.144-0.443,0.152-0.609l0.004-0.82
		l0.035-6.561l0.069-13.12l0.146-26.242l0.483-52.481l0.245-26.241l0.32-26.24L119.521,20.08z M119.523,20.062l0.018,26.243
		l-0.057,26.241l-0.122,52.484l-0.156,26.241l-0.081,13.121l-0.041,6.561l-0.005,0.82c-0.017,0.381-0.104,0.672-0.229,0.977
		c-0.253,0.593-0.647,1.066-1.067,1.474c-0.85,0.812-1.822,1.398-2.809,1.924c-3.991,2.02-8.268,3.15-12.529,4.186
		c-4.276,1.001-8.598,1.773-12.937,2.402c-8.681,1.218-17.436,2.008-26.233,1.77c-8.725,0.021-17.525-0.445-26.212-1.565
		c-4.347-0.561-8.676-1.281-12.958-2.235c-4.271-0.98-8.535-2.113-12.562-3.939c-1-0.467-1.983-0.983-2.904-1.622
		c-0.887-0.651-1.844-1.39-2.2-2.605c-0.122-0.627-0.041-1.146-0.063-1.698l0.004-1.64l0.006-3.28l0.026-13.121l0.051-26.242
		L6.162,21.591c-0.001-0.235,0.19-0.427,0.426-0.428c0.062,0,0.125,0.015,0.178,0.038c4.351,1.936,8.979,3.204,13.656,4.176
		c4.684,0.957,9.439,1.584,14.208,2.049c9.542,0.91,19.148,1.207,28.738,1.269c9.593-0.028,19.191-0.481,28.73-1.512
		c4.769-0.515,9.528-1.148,14.234-2.073c2.352-0.466,4.692-0.999,6.985-1.694c1.144-0.354,2.279-0.741,3.368-1.235
		c0.543-0.248,1.077-0.521,1.571-0.853c0.479-0.337,0.976-0.723,1.17-1.285c0.01-0.025,0.038-0.039,0.063-0.03
		C119.511,20.02,119.523,20.041,119.523,20.062z"/>
</g>
<path style="fill-rule:evenodd;clip-rule:evenodd;fill:#959899;" d="M105.135,20.736l-0.76-0.529
	c-2.758-2.305-2.233-6.044-9.189-9.048c4.63,0.677,8.513,1.229,11.559,1.917c4.872,1.233,7.81,2.402,9.163,3.544l0.241,0.218
	l-0.022,0.021c-1.376,1.376-4.958,2.648-10.179,3.719L105.135,20.736z"/>
<path style="fill-rule:evenodd;clip-rule:evenodd;fill:#D2D3D4;" d="M62.101,22.807c-15.923,0.011-28.864-2.048-28.88-4.604
	c-0.017-2.556,12.897-4.642,28.82-4.652c15.928-0.011,28.868,2.047,28.885,4.604C90.942,20.709,78.029,22.795,62.101,22.807z"/>
<g>
	<path style="fill:#F2B300;" d="M46.464,101.789l-0.022,1.396c0.376-0.013,1.033,0,1.632,0.016l-0.007-0.947
		c0,0-0.039-0.687-0.045-0.794c-0.639-0.014-1.169-0.021-1.57-0.012L46.464,101.789z M48.664,101.477
		c0.005,0.102,0.029,0.78,0.029,0.78l-0.015,0.961c0.044,0.002,1.622,0.022,1.622,0.022l0.021-0.001l-0.012-1.408l-0.02-0.329
		c-0.035,0.001-1.414-0.016-1.414-0.018L48.664,101.477z M51.057,101.833l-0.016,1.39c0.487-0.005,1.082-0.005,1.534,0.002
		l-0.021-1.739l-1.509-0.002L51.057,101.833z M53.415,101.515l-0.015,1.732l0.743,0.005l0,0l0.853,0.003l-0.023-1.409l-0.022-0.328
		C54.951,101.518,53.531,101.517,53.415,101.515z M37.875,101.433l0.007,1.736l0.849,0.003l-0.022-1.409l-0.022-0.328
		L37.875,101.433z M44.101,101.746l-0.022,1.481l1.522-0.012l-0.011-1.475l-0.016-0.267c-0.399,0.031-0.952,0.036-1.482,0.015
		L44.101,101.746z M39.445,101.438l0.014,0.327l-0.01,1.409c0,0,1.178-0.029,1.676-0.036l-0.014-1.205c0,0-0.032-0.51-0.033-0.531
		C40.395,101.41,39.445,101.438,39.445,101.438z M41.716,101.395c0.001,0.026,0.02,0.54,0.02,0.54l-0.014,1.201
		c0.521,0,1.496,0.044,1.64,0.056l-0.027-1.754C43.308,101.433,42.304,101.396,41.716,101.395z M65.118,101.384h-0.21
		c0.006,0.102,0.046,0.778,0.046,0.778l0.007,0.961c0.045,0,1.618-0.012,1.618-0.012l0.021-0.003l-0.038-1.406l-0.026-0.33
		C66.502,101.374,65.118,101.384,65.118,101.384z M68.809,101.332l-1.515,0.011l0.018,0.35l0.006,1.389
		c0.485-0.009,1.078-0.014,1.529-0.012L68.809,101.332z M69.672,101.353l-0.004,1.732l0.741-0.003l0,0l0.851-0.005l-0.024-1.409
		l-0.022-0.327C71.214,101.341,69.79,101.353,69.672,101.353z M64.264,101.382c-0.641,0-1.172,0.006-1.573,0.026l0.021,0.343
		l0.018,1.394c0.374-0.021,1.031-0.026,1.627-0.024l-0.029-0.946C64.329,102.174,64.273,101.488,64.264,101.382z M61.815,101.454
		c-0.398,0.039-0.949,0.056-1.478,0.044l0.014,0.255l0.013,1.484l1.526-0.041l-0.052-1.475L61.815,101.454z M55.708,101.519
		l0.013,0.329l-0.005,1.409c0,0,1.184-0.046,1.684-0.061l-0.028-1.208c0,0-0.036-0.507-0.039-0.53
		C56.652,101.478,55.708,101.519,55.708,101.519z M57.968,101.442c0,0.025,0.027,0.54,0.027,0.54l0.003,1.2
		c0.523-0.009,1.504,0.023,1.648,0.033l-0.065-1.754C59.552,101.459,58.553,101.435,57.968,101.442z M83.594,101.786l-0.043,1.391
		c0.486,0.005,1.079,0.016,1.528,0.035l0.023-1.738l-1.515-0.036L83.594,101.786z M81.221,102.175l-0.024,0.958
		c0.044,0.003,1.617,0.041,1.617,0.047l0.021-0.002l0.01-1.407l-0.015-0.333c-0.036,0-1.418-0.034-1.418-0.034l-0.211-0.009
		C81.203,101.496,81.221,102.175,81.221,102.175z M85.966,101.524l-0.066,1.73l0.737,0.026l0.063-1.734
		C86.394,101.536,86.084,101.527,85.966,101.524z M78.994,101.689l-0.028,1.397c0.374-0.015,1.031,0.002,1.628,0.024l0.001-0.946
		c0,0-0.031-0.688-0.036-0.795c-0.642-0.022-1.172-0.032-1.574-0.02L78.994,101.689z M71.971,101.337l0.015,0.328l-0.01,1.41
		c0,0,1.18-0.029,1.678-0.039l-0.016-1.206c0,0-0.033-0.509-0.035-0.531C72.921,101.309,71.971,101.337,71.971,101.337z
		 M76.629,101.642l-0.021,1.481l1.518-0.007l-0.004-1.475l-0.016-0.268c-0.4,0.029-0.953,0.034-1.484,0.01L76.629,101.642z
		 M74.242,101.292c0.001,0.024,0.021,0.54,0.021,0.54l-0.013,1.199c0.521,0,1.497,0.044,1.64,0.056l-0.028-1.754
		C75.834,101.33,74.83,101.292,74.242,101.292z"/>
	<path style="fill:#F2B300;" d="M57.138,105.903l0.005,0.959c0,0-0.027,0.678-0.031,0.78l0.198-0.005
		c0-0.004,1.302-0.015,1.334-0.005l0.022-0.33l0.031-1.408l-0.02-0.002C58.677,105.884,57.179,105.898,57.138,105.903z
		 M55.014,105.928l0.021,1.395l-0.011,0.342c0.38,0.012,0.879,0.007,1.482-0.006c0.006-0.106,0.046-0.793,0.046-0.793l0.011-0.948
		C55.995,105.933,55.371,105.939,55.014,105.928z M48.406,107.37l-0.013,0.329c0,0,0.903,0.025,1.55,0.034
		c0.002-0.023,0.027-0.533,0.027-0.533l0.004-1.205c-0.469-0.008-1.582-0.034-1.582-0.034L48.406,107.37z M50.563,107.195
		c0,0-0.015,0.515-0.015,0.54c0.555-0.006,1.504-0.052,1.53-0.057l0.018-1.754c-0.135,0.014-1.062,0.066-1.556,0.07L50.563,107.195z
		 M46.904,107.708l0.77-0.006l0.021-0.327l0.021-1.409l-0.802,0.002L46.904,107.708z M59.373,107.314l-0.018,0.35l1.421,0.026
		l0.066-1.736c-0.431-0.004-0.996-0.015-1.46-0.029L59.373,107.314z M52.802,107.368l-0.007,0.257
		c0.5-0.024,1.023-0.021,1.403,0.008l0.013-0.267l0.004-1.474l-1.441-0.007L52.802,107.368z M70.407,106.087l0.022,1.396
		l-0.011,0.341c0.382,0.016,0.885,0.005,1.493-0.017c0.004-0.106,0.035-0.793,0.035-0.793l-0.001-0.948
		C71.381,106.087,70.761,106.103,70.407,106.087z M74.736,105.996l0.053,1.39l-0.002,0.349l1.438-0.048l-0.046-1.738
		C75.754,105.968,75.196,105.991,74.736,105.996z M74.041,105.995c0,0.004-1.484,0.052-1.527,0.048l0.025,0.962
		c0,0-0.015,0.678-0.017,0.779l0.199-0.007c0,0.003,1.314-0.04,1.347-0.042l0.012-0.331l-0.02-1.408L74.041,105.995z
		 M77.643,105.859l-0.691,0.037l0.094,1.728c0.111-0.006,0.405-0.017,0.698-0.032L77.643,105.859z M62.333,105.959l-0.706-0.012
		l-0.04,1.731c0.111,0.002,1.457,0.036,1.457,0.036l0.03-0.327l0.06-1.409l-0.801-0.022V105.959z M68.187,107.514l-0.011,0.257
		c0.503-0.017,1.029-0.009,1.409,0.022l0.016-0.268l0.014-1.475l-1.434-0.019L68.187,107.514z M63.784,107.404l-0.021,0.327
		c0,0,0.9,0.054,1.549,0.083c0.002-0.021,0.043-0.531,0.043-0.531l0.038-1.205c-0.471-0.021-1.582-0.083-1.582-0.083L63.784,107.404
		z M65.955,106.09l-0.009,1.2c0,0-0.027,0.515-0.029,0.539c0.558,0.008,1.513-0.017,1.537-0.022l0.051-1.753
		C67.371,106.065,66.448,106.098,65.955,106.09z"/>
	<g>
		<g>
			<path style="fill:#F2B300;" d="M58.581,98.176l-0.018-0.001l-0.007-1.406l0.012-0.332c0.031,0.002,1.258-0.024,1.258-0.013h0.185
				c-0.005,0.102-0.041,0.778-0.041,0.778l-0.008,0.961C59.924,98.151,58.581,98.175,58.581,98.176z M60.475,98.16l0.04-0.945
				c0,0,0.059-0.688,0.067-0.791c0.569-0.003,1.039,0.039,1.395,0.067l-0.035,0.34l-0.079,1.393
				C61.545,98.197,60.986,98.153,60.475,98.16z M56.649,98.233l-0.093-1.734l1.341-0.062v0.349l0.055,1.388
				C57.535,98.178,57.032,98.204,56.649,98.233z M62.588,98.29l0.117-1.471l0.033-0.268c0.338,0.039,0.808,0.057,1.257,0.044
				l-0.016,0.257l-0.038,1.482L62.588,98.29z M64.579,98.313l0.062-1.751c0.023-0.005,0.874-0.027,1.372-0.018
				c0,0.024-0.007,0.538-0.007,0.538l0.036,1.201C65.577,98.277,64.708,98.304,64.579,98.313z M55.347,98.369l-0.219-1.72
				c0.289-0.034,0.555-0.059,0.663-0.065l0.165,1.722L55.347,98.369z M69.355,98.265l-0.732,0.015l0.023-1.409l0.019-0.327
				l0.712-0.016L69.355,98.265z M66.557,98.281l-0.007-1.208c0,0,0.02-0.509,0.021-0.53c0.599,0,1.431,0.012,1.431,0.012
				l-0.011,0.329l0.014,1.407C68.004,98.291,66.988,98.281,66.557,98.281z"/>
		</g>
	</g>
	<path style="fill:#F2B300;" d="M93.074,118.724c0,0-0.349-5.965-0.417-7.137c-1.704,0.848-3.344,1.465-4.767,1.919
		c0.452,0.966,1.05,2.253,1.697,3.655l1.486,3.192c0.34,0.652,0.699,1.403,1.083,2.324c0.075,0.172,0.143,0.563,0.051,0.831
		c-0.19,0.571-0.811,1.062-1.85,1.455c-0.45,0.171-0.941,0.304-1.416,0.432c-0.739,0.197-1.669,0.44-1.81,0.748
		c-0.038,0.08,0.018,0.214,0.024,0.23c0.183,0.467,0.902,0.443,1.774,0.249c0.517-0.116,1.691-0.475,1.691-0.475
		c1.819-0.559,5.009-1.694,8.287-3.14C97.869,122.243,93.074,118.724,93.074,118.724z M35.884,125.396
		c-0.475-0.128-0.965-0.261-1.417-0.432c-1.038-0.393-1.66-0.884-1.85-1.455c-0.09-0.268-0.023-0.659,0.051-0.831
		c0.383-0.921,0.744-1.672,1.084-2.324l1.484-3.192c0.65-1.402,1.246-2.689,1.699-3.655c-1.425-0.454-3.064-1.071-4.767-1.919
		c-0.069,1.172-0.417,7.137-0.417,7.137s-4.792,3.52-5.834,4.285c3.277,1.445,6.465,2.581,8.286,3.14c0,0,1.173,0.358,1.69,0.475
		c0.874,0.194,1.593,0.218,1.776-0.249c0.006-0.017,0.06-0.15,0.022-0.23C37.552,125.836,36.625,125.593,35.884,125.396z
		 M90.668,121.689c-0.724-1.557-4.306-9.225-4.306-9.225c-0.263-0.576-0.845-0.949-1.555-0.996c-0.877-0.06-1.705,0.392-2.212,1.195
		c-0.353,0.56-0.99,1.062-1.988,1.579c-3.57,1.853-10.96,3.406-17.733,3.536l-0.461,0.008l-0.461-0.008
		c-6.774-0.13-14.164-1.684-17.733-3.536c-0.999-0.518-1.635-1.02-1.99-1.579c-0.505-0.804-1.333-1.255-2.21-1.195
		c-0.71,0.047-1.292,0.42-1.556,0.996c0,0-3.58,7.668-4.306,9.225c0.736-0.186,1.447,0.005,1.447,0.005
		c0.859,0.191,1.48,0.327,2.616,1.443c0.704,0.693,3.748,1.951,8.771,3.079c3.058,0.687,8.208,1.699,15.412,1.699h0.02
		c7.204,0,12.353-1.013,15.413-1.699c5.021-1.128,8.068-2.386,8.771-3.079c1.136-1.116,1.756-1.252,2.614-1.443
		C89.221,121.694,89.933,121.504,90.668,121.689z M46.215,120.943l-0.11,0.31l-0.838-0.217l0.498-1.666l0.854,0.223L46.215,120.943z
		 M48.721,121.427c0,0-0.15,0.486-0.158,0.508c-0.703-0.194-1.675-0.479-1.675-0.479l0.099-0.312l0.353-1.365
		c0,0,1.177,0.339,1.675,0.478L48.721,121.427z M50.927,122.396c-0.027-0.005-1.091-0.152-1.707-0.284
		c0.008-0.022,0.142-0.519,0.142-0.519l0.251-1.175c0.529,0.112,1.539,0.245,1.687,0.264L50.927,122.396z M53.343,122.548
		l-0.058,0.26c-0.416-0.109-0.993-0.226-1.554-0.31l0.056-0.251l0.25-1.461c0.534,0.081,1.081,0.19,1.548,0.308L53.343,122.548z
		 M56.012,122.366c0,0-0.119,0.677-0.137,0.782c-0.68-0.064-1.243-0.122-1.668-0.185l0.062-0.336l0.175-1.385
		c0.385,0.058,1.064,0.126,1.683,0.182L56.012,122.366z M58.333,123.028l-0.045,0.33c-0.04,0.028-1.506-0.129-1.506-0.129
		l-0.224-0.02c0.016-0.1,0.111-0.773,0.111-0.773l0.082-0.956c0.047,0.006,1.672,0.177,1.675,0.143l0.022,0.001L58.333,123.028z
		 M60.707,123.465l-1.613-0.06l0.033-0.348l0.064-1.388c0.505,0.024,1.12,0.047,1.589,0.059L60.707,123.465z M63.287,123.144
		l-0.017,0.328l-0.865,0.032v-0.002c-0.324-0.013-0.652-0.024-0.777-0.03l0.007-1.731l0.77,0.027v-0.002l0.883-0.031L63.287,123.144
		z M65.818,123.423c-0.729,0.015-1.742,0.021-1.741,0.021l0.005-0.328l-0.05-1.409c0,0,1.225-0.012,1.744-0.021l0.048,1.205
		C65.825,122.89,65.819,123.4,65.818,123.423z M66.498,123.405c-0.001-0.025-0.013-0.54-0.013-0.54l-0.089-1.196
		c0.542-0.004,1.545-0.193,1.693-0.21l0.124,1.751C68.185,123.204,67.127,123.395,66.498,123.405z M69.015,123.078l-0.017-0.256
		l-0.171-1.474l1.572-0.146l0.176,1.462l0.017,0.268C70.161,122.946,69.575,122.998,69.015,123.078z M71.523,122.844l-0.035-0.34
		l-0.219-1.378c0.384-0.056,1.055-0.186,1.664-0.308l0.153,0.934c0,0,0.078,0.685,0.088,0.792
		C72.504,122.677,71.948,122.781,71.523,122.844z M74.067,122.362l-0.22,0.045c-0.014-0.102-0.111-0.774-0.111-0.774l-0.189-0.939
		c0.045-0.014,1.652-0.31,1.648-0.324l0.021-0.005l0.285,1.38l0.051,0.328C75.518,122.09,74.067,122.358,74.067,122.362z
		 M76.34,121.889l-0.068-0.344l-0.33-1.349c0.491-0.121,1.086-0.275,1.539-0.396l0.424,1.685L76.34,121.889z M78.789,121.229
		l-0.488-1.662l0.745-0.194l0.496,1.663C79.229,121.114,78.908,121.197,78.789,121.229z"/>
	<path style="fill:#F2B300;" d="M33.753,88.424c-0.339-0.652-0.699-1.404-1.082-2.326c-0.075-0.17-0.142-0.562-0.051-0.829
		c0.19-0.573,0.81-1.062,1.85-1.456c0.452-0.171,0.942-0.303,1.417-0.432c0.737-0.197,1.667-0.44,1.807-0.747
		c0.04-0.082-0.016-0.216-0.022-0.231c-0.182-0.467-0.901-0.442-1.774-0.249c-0.518,0.115-1.691,0.474-1.691,0.474
		c-1.819,0.56-5.009,1.695-8.287,3.142c1.042,0.764,5.835,4.283,5.835,4.283s0.349,5.967,0.417,7.139
		c1.704-0.85,3.343-1.465,4.766-1.919c-0.452-0.968-1.047-2.253-1.697-3.655L33.753,88.424z M90.623,82.627
		c0,0-1.172-0.358-1.69-0.474c-0.873-0.193-1.591-0.218-1.775,0.249c-0.006,0.016-0.061,0.149-0.023,0.231
		c0.143,0.307,1.069,0.55,1.809,0.747c0.476,0.129,0.966,0.261,1.418,0.432c1.037,0.394,1.66,0.883,1.85,1.456
		c0.091,0.267,0.024,0.659-0.05,0.829c-0.385,0.922-0.745,1.674-1.083,2.326l-1.487,3.192c-0.649,1.402-1.244,2.688-1.698,3.655
		c1.425,0.454,3.064,1.069,4.767,1.919c0.069-1.172,0.417-7.139,0.417-7.139s4.794-3.52,5.834-4.283
		C95.633,84.322,92.444,83.187,90.623,82.627z M89.224,87.082c-0.859-0.19-1.48-0.328-2.616-1.444
		c-0.703-0.692-3.749-1.949-8.77-3.077c-3.059-0.687-8.21-1.699-15.414-1.699h-0.02c-7.204,0-12.353,1.013-15.411,1.699
		c-5.024,1.128-8.07,2.385-8.772,3.077c-1.135,1.116-1.758,1.254-2.615,1.444c0,0-0.71,0.19-1.447,0.005
		c0.724,1.558,4.305,9.226,4.305,9.226c0.263,0.575,0.844,0.948,1.555,0.994c0.878,0.059,1.705-0.391,2.212-1.193
		c0.353-0.56,0.989-1.06,1.989-1.579c3.569-1.853,10.959-3.408,17.731-3.536l0.462-0.008l0.46,0.008
		c6.774,0.128,14.164,1.684,17.732,3.536c1,0.52,1.637,1.02,1.991,1.579c0.505,0.803,1.332,1.252,2.211,1.193
		c0.71-0.046,1.291-0.419,1.556-0.994c0,0,3.58-7.668,4.306-9.226C89.935,87.272,89.224,87.082,89.224,87.082z M45.764,89.554
		l-0.496-1.661c0.312-0.08,0.633-0.162,0.752-0.193l0.487,1.661L45.764,89.554z M47.33,89.127l-0.424-1.686l1.564-0.403l0.067,0.343
		l0.331,1.35C48.377,88.851,47.782,89.005,47.33,89.127z M49.614,88.558l-0.021,0.005l-0.285-1.381l-0.051-0.328
		c0.035-0.017,1.485-0.286,1.485-0.29l0.219-0.043c0.015,0.102,0.112,0.772,0.112,0.772l0.189,0.939
		C51.218,88.246,49.611,88.543,49.614,88.558z M51.877,88.108l-0.153-0.935c0,0-0.078-0.685-0.088-0.79
		c0.67-0.133,1.227-0.237,1.651-0.3l0.035,0.339l0.219,1.378C53.158,87.856,52.486,87.985,51.877,88.108z M54.411,87.726
		l-0.175-1.464l-0.018-0.266c0.431-0.015,1.017-0.068,1.577-0.148l0.017,0.257l0.171,1.474L54.411,87.726z M56.72,87.469
		l-0.124-1.752c0.029,0.005,1.087-0.184,1.716-0.196c0.001,0.025,0.013,0.54,0.013,0.54l0.089,1.196
		C57.871,87.262,56.868,87.451,56.72,87.469z M59.033,87.241l-0.048-1.205c0,0,0.005-0.511,0.007-0.533
		c0.729-0.014,1.742-0.019,1.741-0.019l-0.005,0.327l0.05,1.41C60.778,87.222,59.552,87.233,59.033,87.241z M63.175,87.187
		l-0.771-0.026l0,0l-0.883,0.031l0.001-1.408l0.017-0.328l0.864-0.031v0.002c0.324,0.013,0.652,0.024,0.778,0.029L63.175,87.187z
		 M65.683,85.87l-0.064,1.387c-0.505-0.023-1.12-0.048-1.589-0.06l0.074-1.734l1.613,0.058L65.683,85.87z M68.141,86.489
		l-0.082,0.956c-0.047-0.004-1.672-0.177-1.675-0.142l-0.022-0.002l0.114-1.403l0.045-0.329c0.039-0.029,1.506,0.128,1.506,0.127
		l0.224,0.021C68.236,85.816,68.141,86.489,68.141,86.489z M70.541,86.299l-0.175,1.386c-0.385-0.059-1.064-0.127-1.683-0.182
		l0.114-0.942c0,0,0.119-0.678,0.137-0.783c0.68,0.065,1.243,0.124,1.668,0.185L70.541,86.299z M73.023,86.679l-0.25,1.461
		c-0.534-0.079-1.081-0.188-1.548-0.308l0.241-1.453l0.059-0.261c0.416,0.11,0.994,0.228,1.554,0.31L73.023,86.679z M75.447,87.335
		l-0.251,1.174c-0.529-0.111-1.539-0.245-1.686-0.265l0.373-1.713c0.027,0.005,1.092,0.153,1.707,0.283
		C75.582,86.837,75.447,87.335,75.447,87.335z M77.823,87.784l-0.352,1.364c0,0-1.177-0.339-1.675-0.478L76.09,87.5
		c0,0,0.15-0.486,0.157-0.507c0.703,0.193,1.675,0.478,1.675,0.478L77.823,87.784z M79.046,89.557l-0.854-0.223l0.403-1.352
		l0.11-0.308l0.838,0.216L79.046,89.557z"/>
</g>
<ellipse style="fill-rule:evenodd;clip-rule:evenodd;fill:#D2D3D4;stroke:#000000;" cx="62.492" cy="15.369" rx="57.458" ry="10.249"/>
<linearGradient id="SVGID_4_" gradientUnits="userSpaceOnUse" x1="5.0039" y1="21.5339" x2="119.745" y2="22.7652">
	<stop  offset="0" style="stop-color:#777576"/>
	<stop  offset="1" style="stop-color:#EEEFF0"/>
</linearGradient>
<path style="fill-rule:evenodd;clip-rule:evenodd;fill:url(#SVGID_4_);stroke:#000000;" d="M119.828,15.237v4.319
	c0,5.576-25.729,10.103-57.454,10.103c-31.731,0-57.455-4.526-57.455-10.103v-4.319c0,5.581,25.724,10.108,57.455,10.108
	C94.099,25.346,119.828,20.818,119.828,15.237z"/>
<linearGradient id="SVGID_5_" gradientUnits="userSpaceOnUse" x1="4.9344" y1="20.7425" x2="119.8418" y2="20.2842">
	<stop  offset="0" style="stop-color:#C8C6C8"/>
	<stop  offset="1" style="stop-color:#FFFFFF"/>
</linearGradient>
<path style="fill-rule:evenodd;clip-rule:evenodd;fill:url(#SVGID_5_);" d="M4.919,15.402c-0.027-0.191,0.044-0.148,0.071,0
	c0,2.533,6.721,5.17,16.855,6.951c10.364,1.823,24.693,2.681,40.528,2.681c31.436,0,57.307-4.314,57.307-9.632
	c0.005-0.197,0.142-0.191,0.142,0c0,5.842-25.435,10.576-57.448,10.576c-15.895,0-30.301-1.136-40.729-2.971
	C10.985,21.136,4.919,18.449,4.919,15.402z"/>
<linearGradient id="SVGID_6_" gradientUnits="userSpaceOnUse" x1="116.0338" y1="15.8319" x2="9.5722" y2="15.1202">
	<stop  offset="0" style="stop-color:#777576"/>
	<stop  offset="1" style="stop-color:#AEAEAF"/>
</linearGradient>
<ellipse style="fill-rule:evenodd;clip-rule:evenodd;fill:url(#SVGID_6_);" cx="62.372" cy="15.473" rx="54.383" ry="8.338"/>
<ellipse style="fill-rule:evenodd;clip-rule:evenodd;fill:none;" cx="62.372" cy="15.473" rx="54.383" ry="8.338"/>
<path style="fill-rule:evenodd;clip-rule:evenodd;" d="M62.374,6.741c14.923,0,28.443,0.934,38.233,2.446
	c9.588,1.481,15.655,3.582,16.124,5.99c-0.546-1.965-6.432-3.8-15.671-5.209C90.573,8.372,76.834,7.533,62.374,7.533
	c-15.115,0-28.793,0.929-38.693,2.436c-9.239,1.409-15.125,3.244-15.671,5.209c0.47-2.408,6.541-4.51,16.124-5.99
	C33.925,7.675,47.444,6.741,62.374,6.741z"/>
<linearGradient id="SVGID_7_" gradientUnits="userSpaceOnUse" x1="28.0846" y1="16.0596" x2="108.1351" y2="18.0259">
	<stop  offset="0" style="stop-color:#D9D9DB"/>
	<stop  offset="1" style="stop-color:#888587"/>
</linearGradient>
<path style="fill-rule:evenodd;clip-rule:evenodd;fill:url(#SVGID_7_);" d="M62.374,23.926c-27.216,0-49.767-3.068-53.759-7.066
	l-0.07-0.087l0.377-0.268c6.061-3.795,27.504-6.612,53.025-6.635c26.467-0.021,48.587,2.981,53.726,6.979l0.229,0.201l-0.252,0.219
	C110.578,21.063,88.648,23.926,62.374,23.926z"/>
<linearGradient id="SVGID_8_" gradientUnits="userSpaceOnUse" x1="29.095" y1="16.6247" x2="112.6433" y2="16.7016">
	<stop  offset="0" style="stop-color:#EEEFF0"/>
	<stop  offset="1" style="stop-color:#AEAEAF"/>
</linearGradient>
<path style="fill-rule:evenodd;clip-rule:evenodd;fill:url(#SVGID_8_);stroke:#000000;stroke-width:0.25;" d="M62.374,23.926
	c-27.216,0-49.767-3.068-53.759-7.066l-0.295-0.36l0.055-0.049c5.09-4.013,27.171-7.044,53.639-7.065
	c26.467-0.018,48.586,2.981,53.725,6.983l0.459,0.404l-0.071,0.087C112.141,20.858,89.583,23.926,62.374,23.926z"/>
<linearGradient id="SVGID_9_" gradientUnits="userSpaceOnUse" x1="80.8675" y1="18.1961" x2="33.2491" y2="18.1521">
	<stop  offset="0" style="stop-color:#EEEFF0"/>
	<stop  offset="1" style="stop-color:#AEAEAF"/>
</linearGradient>
<path style="fill-rule:evenodd;clip-rule:evenodd;fill:url(#SVGID_9_);" d="M62.101,23.188c-17.238,0.011-31.239-2.223-31.261-4.985
	c-0.017-2.769,13.962-5.023,31.201-5.034c17.238-0.012,31.244,2.223,31.261,4.985C93.318,20.922,79.339,23.178,62.101,23.188z"/>
<linearGradient id="SVGID_10_" gradientUnits="userSpaceOnUse" x1="89.2721" y1="16.5908" x2="20.3618" y2="16.527">
	<stop  offset="0" style="stop-color:#EEEFF0"/>
	<stop  offset="1" style="stop-color:#AEAEAF"/>
</linearGradient>
<path style="fill-rule:evenodd;clip-rule:evenodd;fill:url(#SVGID_10_);" d="M95.191,22.233l0.359-0.07
	c5.204-1.125,8.284-2.513,8.272-4.014c0-0.464-0.295-0.912-0.856-1.349c-3.915-3.047-20.772-5.335-40.937-5.318
	c-23.043,0.016-41.729,3.03-41.707,6.727c0.011,1.388,2.648,2.676,7.159,3.741l0.344,0.076l-0.044-0.006
	c-2.686-0.338-5.154-0.715-7.371-1.13l-0.596-0.114l-0.18-0.071c-1.78-0.775-2.752-1.616-2.758-2.49
	c-0.027-4.002,20.204-7.268,45.147-7.284c21.831-0.017,40.079,2.458,44.316,5.755c0.607,0.47,0.923,0.961,0.929,1.458
	c0.005,1.005-1.256,1.955-3.539,2.823l-0.163,0.061l-0.945,0.169c-1.752,0.295-3.647,0.573-5.662,0.824L95.191,22.233z"/>
<path style="fill-rule:evenodd;clip-rule:evenodd;fill:none;stroke:#2C2623;stroke-width:3;stroke-linecap:round;" d="M8.545,12.12"
	/>
<path style="opacity:0.19;fill-rule:evenodd;clip-rule:evenodd;fill:#2C2623;" d="M110.77,25.089
	c-77.86,31.512-58.871,119.362-70.769,147.244c-3.297,7.727-20.667,5.334-33.08,0.334L6.932,22.285L110.77,25.089z"/>
</svg>
