<?xml version="1.0" encoding="iso-8859-1"?>
<!-- Generator: Adobe Illustrator 21.1.0, SVG Export Plug-In . SVG Version: 6.00 Build 0)  -->
<svg version="1.1" id="Layer_1" xmlns="http://www.w3.org/2000/svg" xmlns:xlink="http://www.w3.org/1999/xlink" x="0px" y="0px"
	 width="604px" height="561px" viewBox="0 0 604 561" style="enable-background:new 0 0 604 561;" xml:space="preserve">
<rect x="-395" y="-391" style="fill:#F6FFE0;" width="1000" height="1000"/>
<g>
	<path style="fill:#D8D900;" d="M476.428,35.736c-2.453-4.668-7.993-9.149-11.176-11.468c-5.005,10.729-1.425,23.579,8.447,30.165
		C480.775,50.209,479.814,42.182,476.428,35.736z M506.935,48.035c-3.617-1.558-10.294-4.043-15.56-3.776
		c-7.273,0.368-14.669,3.628-14.701,11.871C487.369,61.271,500.251,57.808,506.935,48.035z M509.552,49.239
		c0,0-0.289-0.146-0.804-0.389c-6.963,10.482-20.447,14.429-31.912,9.506c0.014,0.083,0.022,0.167,0.036,0.25
		c-0.551,0.174-1.092,0.391-1.62,0.65c-6.152,3.026-5.486,9.38-2.83,14.436c2.656,5.056,10.147,9.82,10.147,9.82
		s4.782-8.021,6.061-14.112c1.25,0.002,2.582-0.175,3.989-0.561C499.972,66.827,509.552,49.239,509.552,49.239z M471.532,55.499
		c0.057-0.023,0.112-0.048,0.169-0.071c-10.076-7.358-13.547-20.973-8.074-32.304c-0.47-0.319-0.743-0.493-0.743-0.493
		s-10.256,17.202-8.243,24.554c0.395,1.441,0.937,2.705,1.596,3.799c-4.579,4.212-9.022,12.37-9.022,12.37s7.915,4.02,13.618,3.731
		c5.705-0.289,11.512-2.952,10.982-9.788C471.767,56.685,471.672,56.083,471.532,55.499z"/>
	
		<ellipse transform="matrix(0.4953 -0.8687 0.8687 0.4953 209.4776 440.5541)" style="fill:#D8D900;" cx="483.907" cy="39.988" rx="4.665" ry="4.665"/>
</g>
<g>
	<ellipse style="fill:#C2C76C;" cx="55.808" cy="211.686" rx="39.655" ry="39.653"/>
	<ellipse style="fill:#C2C76C;" cx="55.808" cy="294.633" rx="23.866" ry="23.869"/>
	<g>
		<polygon style="fill:#C2C76C;" points="53.706,332.41 53.706,223.143 57.916,223.143 57.916,332.41 53.706,332.41 		"/>
	</g>
</g>
<g>
	<circle style="fill:#F7D98F;" cx="189.3" cy="197.991" r="46.702"/>
	<circle style="fill:#F7D98F;" cx="189.3" cy="270.612" r="19.866"/>
	<g>
		<polygon style="fill:#F7D98F;" points="187.191,339.459 187.191,212.57 191.401,212.57 191.401,339.459 187.191,339.459 		"/>
	</g>
</g>
<g>
	<g>
		<ellipse style="fill:#C2C76C;" cx="299.396" cy="160.027" rx="46.701" ry="46.704"/>
		<ellipse style="fill:#C2C76C;" cx="299.398" cy="287.586" rx="21.443" ry="21.446"/>
		<g>
			<polygon style="fill:#C2C76C;" points="297.29,340.668 297.29,178.531 301.5,178.531 301.5,340.668 297.29,340.668 			"/>
		</g>
	</g>
	<g>
		<ellipse style="fill:#8F323C;" cx="410.427" cy="228.76" rx="37.889" ry="37.891"/>
		<circle style="fill:#8F323C;" cx="410.426" cy="286.474" r="14.209"/>
		<g>
			<polygon style="fill:#8F323C;" points="408.323,344.197 408.323,238.453 412.529,238.453 412.529,344.197 408.323,344.197 			"/>
		</g>
	</g>
	<g>
		<ellipse style="fill:#FFB03B;" cx="511.763" cy="175.888" rx="46.701" ry="46.704"/>
		<path style="fill:#FFB03B;" d="M534.783,280.075c0,12.72-10.306,23.027-23.022,23.027c-12.717,0-23.022-10.308-23.022-23.027
			c0-12.711,10.306-23.018,23.022-23.018C524.477,257.058,534.783,267.364,534.783,280.075z"/>
		<g>
			<polygon style="fill:#FFB03B;" points="509.659,349.481 509.659,197.917 513.864,197.917 513.864,349.481 509.659,349.481 			"/>
		</g>
	</g>
	<g>
		<path style="fill:#FFCA5F;" d="M607,220.014c-2.568-0.612-5.244-0.946-8-0.946c-18.983,0-34.366,15.388-34.366,34.362
			c0,18.98,15.383,34.371,34.366,34.371c2.756,0,5.432-0.334,8-0.946V220.014z"/>
		<g>
			<polygon style="fill:#FFCA5F;" points="596.888,356.53 596.888,252.549 601.102,252.549 601.102,356.53 596.888,356.53 			"/>
		</g>
	</g>
</g>
<g>
	<g>
		<g>
			<g>
				<g>
					<g>
						<g>
							<g>
								<path style="fill:#80BDDB;" d="M398.81,149.091c-7.935,32.461-41.082,52.236-74.057,44.187
									c-32.967-8.059-53.255-40.895-45.327-73.356c7.936-32.453,41.091-52.236,74.049-44.178
									C386.45,83.801,406.739,116.638,398.81,149.091z"/>
							</g>
							<g>
								<path style="fill:#80BDDB;" d="M475.687,185.504c0,0-62.43,76.005-120.085,62.698
									c-87.435-20.182-84.103-95.819-76.176-128.281c7.936-32.453,111.032-35.052,118.569-1.964
									C409.435,168.141,475.687,185.504,475.687,185.504z"/>
							</g>
						</g>
						<g>
							
								<ellipse transform="matrix(0.2374 -0.9714 0.9714 0.2374 143.3654 399.2743)" style="fill:#FFFFFF;" cx="325.989" cy="108.325" rx="12.514" ry="12.511"/>
						</g>
						<g>
							<path style="fill:#80BDDB;" d="M332.78,101.646c-1.223,4.995-6.258,8.05-11.244,6.827c-4.995-1.213-8.059-6.257-6.837-11.244
								c1.223-4.995,6.258-8.042,11.244-6.828C330.938,91.623,334.002,96.659,332.78,101.646z"/>
						</g>
					</g>
					<g>
						<path style="fill:#FFFFFF;" d="M436.268,191.428c0,0-39.844,37.383-84.16,10.331c-21.088-12.881-28.429-35.639-13.868-53.344
							c14.56-17.698,42.736-16.785,53.1,5.654C404.531,182.62,436.268,191.428,436.268,191.428z"/>
					</g>
				</g>
				<g>
					<path style="fill:#80BDDB;" d="M435.013,168.98c7.643,3.854,22.089,6.706,24.745,1.426c3.853-7.65,26.041-20.06,25.039-2.469
						c17.705-7.568,30.058,4.042,16.703,10.022c7.292-5.483,22.871-1.679,24.33,8.588c1.45,10.259-12.051,16.866-20.599,19.409
						c-19.889,5.703-44.838-3.031-60.458-14.781L435.013,168.98z"/>
				</g>
			</g>
			<g>
				<path style="fill:#80BDDB;" d="M284.927,87.598l23.621,25.129c-15.775,6.51-25.739,9.117-25.739,9.117
					c-17.176-12.809-17.176-12.809-17.176-12.809c8.963-1.206,19.652-2.444,19.652-2.444
					C283.632,91.762,284.927,87.598,284.927,87.598z"/>
			</g>
		</g>
		<g>
			<rect x="331.786" y="227.091" style="fill:#80BDDB;" width="5.418" height="362.499"/>
		</g>
		<g>
			<rect x="377.26" y="227.091" style="fill:#80BDDB;" width="5.41" height="362.499"/>
		</g>
	</g>
	<g>
		<g>
			<g>
				<g>
					<g>
						<g>
							<g>
								<path style="fill:#4189AB;" d="M131.42,153.589c5.092,27.979,32.266,46.467,60.678,41.293
									c28.412-5.174,47.323-32.045,42.23-60.025c-5.101-27.972-32.258-46.46-60.678-41.286
									C145.23,98.745,126.327,125.617,131.42,153.589z"/>
							</g>
							<g>
								<path style="fill:#4189AB;" d="M64.256,180.632c0,0,55.707,64.98,105.369,56.604
									c75.311-12.719,69.796-74.398,64.703-102.379c-5.101-27.972-92.56-35.411-100.643-7.684
									C121.43,169.232,64.256,180.632,64.256,180.632z"/>
							</g>
						</g>
						<g>
							<path style="fill:#FFFFFF;" d="M184.878,124.549c1.052,5.785,6.592,9.623,12.385,8.572c5.785-1.06,9.623-6.6,8.564-12.385
								c-1.051-5.785-6.591-9.623-12.376-8.572C187.665,113.224,183.827,118.764,184.878,124.549z"/>
						</g>
						<g>
							<path style="fill:#4189AB;" d="M195.112,121.298c0.782,4.302,4.905,7.154,9.207,6.38c4.302-0.79,7.153-4.913,6.372-9.215
								c-0.783-4.303-4.905-7.154-9.216-6.372C197.182,112.873,194.33,116.996,195.112,121.298z"/>
						</g>
					</g>
					<g>
						<path style="fill:#FFFFFF;" d="M97.45,187.663c0,0,31.965,33.781,70.978,13.037c18.569-9.875,25.967-28.836,14.486-44.61
							c-11.472-15.782-35.459-16.427-45.4,2.11C124.852,181.78,97.45,187.663,97.45,187.663z"/>
					</g>
				</g>
				<g>
					<path style="fill:#4189AB;" d="M99.658,168.654c-6.689,2.876-19.114,4.579-21.103-0.05c-2.885-6.69-21.104-18.357-21.145-3.364
						c-14.658-7.325-25.747,1.915-14.707,7.675c-5.907-5.027-19.343-2.582-21.095,6.063c-1.752,8.645,9.378,14.943,16.508,17.526
						c16.613,5.858,38.246-0.302,52.122-9.484L99.658,168.654z"/>
				</g>
			</g>
			<g>
				<path style="fill:#4189AB;" d="M241.319,109.916l-27.997,8.832c9.012,11.399,15.327,17.485,15.327,17.485
					c18.08-2.371,18.08-2.371,18.08-2.371c-6.151-4.62-13.574-9.989-13.574-9.989C240.553,113.549,241.319,109.916,241.319,109.916z
					"/>
			</g>
		</g>
		<g>
			<rect x="136.683" y="229.267" style="fill:#4189AB;" width="5.321" height="360.323"/>
		</g>
		<g>
			<rect x="181.301" y="229.267" style="fill:#4189AB;" width="5.312" height="360.323"/>
		</g>
	</g>
</g>
<g>
	<path style="fill:#D65872;" d="M-84.765,609c0.766-170.548,139.604-308.23,310.175-307.539
		C395.144,302.152,532.328,439.598,533.064,609h25.318c-0.736-183.341-149.189-332.113-332.872-332.857
		C40.927,275.392-109.317,424.417-110.087,609H-84.765z"/>
	<path style="fill:#CD6A31;" d="M-59.439,609c0.762-156.518,128.198-282.852,284.745-282.217
		c155.785,0.632,281.7,126.756,282.433,282.217h25.326c-0.736-169.402-137.921-306.848-307.654-307.539
		C54.839,300.77-83.999,438.452-84.765,609H-59.439z"/>
	<path style="fill:#FFE69F;" d="M-34.121,609c0.766-142.485,116.792-257.471,259.327-256.895
		C367.033,352.682,481.685,467.474,482.42,609h25.318c-0.732-155.461-126.647-281.585-282.433-282.217
		C68.759,326.148-58.677,452.482-59.439,609H-34.121z"/>
	<path style="fill:#AAAB50;" d="M-8.795,609c0.763-128.459,105.386-232.094,233.896-231.572
		C352.979,377.944,456.361,481.407,457.098,609h25.322c-0.735-141.526-115.387-256.318-257.214-256.895
		C82.671,351.529-33.355,466.515-34.121,609H-8.795z"/>
	<path style="fill:#31B2E1;" d="M16.531,609c0.758-114.424,93.979-206.715,208.466-206.251
		C338.931,403.211,431.04,495.346,431.776,609h25.321c-0.736-127.593-104.118-231.056-231.996-231.572
		C96.591,376.906-8.032,480.541-8.795,609H16.531z"/>
	<path style="fill:#313F52;" d="M41.853,609c0.759-100.393,82.57-181.333,183.047-180.932
		c99.977,0.405,180.82,81.212,181.558,180.932h25.318c-0.736-113.654-92.846-205.789-206.779-206.251
		C110.511,402.285,17.29,494.576,16.531,609H41.853z"/>
	<path style="fill:#523E4D;" d="M67.179,608.272c0.751-86.357,71.163-155.96,157.618-155.606
		c86.026,0.346,155.602,69.828,156.342,155.606h25.319c-0.737-99.72-81.581-180.526-181.558-180.932
		C124.423,426.94,42.612,507.88,41.853,608.272H67.179z"/>
</g>
<g>
	<g>
		<path style="fill:#402238;" d="M604,464.046V292.311c-3.776,2.374-7.905,5.455-12.333,9.318
			c17.805-41.81-3.046-52.491-26.334-13.646c3.918-45.046-19.139-48.685-29.285-4.628c-10.177-44.04-33.236-40.378-29.266,4.668
			c-23.29-38.77-44.107-28.154-26.419,13.457c-34.175-29.722-50.679-13.093-20.802,21.131c-41.817-17.797-52.49,3.056-13.653,26.336
			c-45.046-3.92-48.668,19.154-4.612,29.283c-44.056,10.186-40.383,33.254,4.645,29.275c-38.754,23.288-28.131,44.098,13.473,26.409
			c-29.729,34.177-13.11,50.694,21.131,20.819c-17.804,41.8,3.048,52.48,26.336,13.636c-3.92,45.046,19.154,48.686,29.283,4.628
			c10.18,44.042,33.254,40.378,29.268-4.66c23.289,38.754,44.105,28.156,26.417-13.456C596.206,458.672,600.275,461.704,604,464.046
			z"/>
		<path style="fill:#D90B42;" d="M604,329.171c-15.213-21.038-39.944-34.739-67.891-34.739c-46.251,0-83.745,37.493-83.745,83.745
			c0,46.252,37.494,83.745,83.745,83.745c27.946,0,52.678-13.701,67.891-34.739V329.171z"/>
		<path style="fill:#FAAF40;" d="M604,412.048c-0.705-0.219-1.465-0.345-2.263-0.345c-1.398,0-2.689,0.373-3.743,0.999
			l-51.779-28.479l39.748-4.415c0-0.022-0.001-0.043-0.003-0.066c1.036,1.803,3.247,3.052,5.817,3.052
			c3.559,0,6.443-2.392,6.443-5.344c0-2.953-2.885-5.345-6.443-5.345c-2.542,0-4.735,1.223-5.785,2.994l-40.523,4.502l51.239-48.558
			c0.817,0.312,1.726,0.49,2.686,0.49c1.807,0,3.437-0.618,4.606-1.61v-7.467c-1.17-0.993-2.8-1.611-4.606-1.611
			c-3.562,0-6.446,2.393-6.446,5.345c0,0.406,0.058,0.8,0.162,1.181l-51.874,49.157v-62.739c1.656-0.858,2.761-2.38,2.761-4.117
			c0-2.685-2.622-4.86-5.858-4.86s-5.862,2.175-5.862,4.86c0,1.93,1.365,3.595,3.334,4.377v65.457l-57.547-15.779
			c-0.364-2.935-3.357-5.227-6.994-5.227c-3.884,0-7.031,2.61-7.031,5.831c0,3.22,3.147,5.83,7.031,5.83
			c2.107,0,3.993-0.772,5.282-1.99L530.432,383l-52.001,18.2c-0.87-0.425-1.884-0.673-2.969-0.673c-3.236,0-5.857,2.175-5.857,4.858
			c0,2.683,2.621,4.858,5.857,4.858c3.238,0,5.861-2.176,5.861-4.858c0-0.043-0.008-0.087-0.009-0.131l51.305-17.958l-31.409,53.568
			c-0.087-0.002-0.172-0.011-0.259-0.011c-3.56,0-6.445,2.393-6.445,5.346c0,2.951,2.886,5.344,6.445,5.344
			c3.561,0,6.446-2.393,6.446-5.344c0-1.17-0.46-2.249-1.227-3.129l31.508-53.733l16.82,51.138c-0.865,0.813-1.397,1.88-1.397,3.051
			c0,2.549,2.492,4.616,5.566,4.616c3.073,0,5.566-2.067,5.566-4.616c0-2.211-1.878-4.058-4.383-4.509l-16.747-50.908l52.198,28.71
			c-0.002,0.076-0.013,0.151-0.013,0.228c0,2.953,2.886,5.345,6.446,5.345c0.798,0,1.558-0.126,2.263-0.346V412.048z"/>
	</g>
	<g>
		<path style="fill:#402238;" d="M287.026,508.552c24.428-5.643,22.4-18.429-2.575-16.232c21.487-12.908,15.605-24.446-7.46-14.639
			c16.473-18.952,7.26-28.107-11.727-11.542c9.872-23.182-1.688-29.103-14.601-7.565c2.172-24.975-10.611-26.994-16.237-2.566
			c-5.643-24.418-18.428-22.388-16.227,2.589c-12.913-21.496-24.455-15.61-14.647,7.461c-18.949-16.479-28.1-7.26-11.534,11.716
			c-23.186-9.867-29.104,1.694-7.57,14.603c-24.975-2.174-26.983,10.62-2.557,16.236c-24.427,5.647-22.391,18.438,2.575,16.231
			c-21.487,12.912-15.598,24.45,7.47,14.643c-16.483,18.949-7.269,28.107,11.716,11.543c-9.871,23.177,1.691,29.099,14.603,7.561
			c-2.174,24.976,10.62,26.994,16.235,2.566c5.645,24.419,18.438,22.388,16.228-2.584c12.913,21.487,24.455,15.611,14.647-7.461
			c18.949,16.479,28.108,7.26,11.533-11.721c23.187,9.871,29.113-1.694,7.57-14.597
			C309.444,526.961,311.464,514.173,287.026,508.552z"/>
		<circle style="fill:#D90B42;" cx="234.461" cy="508.581" r="46.433"/>
		<path style="fill:#FAAF40;" d="M270.849,527.17c-0.775,0-1.491,0.207-2.075,0.554l-28.71-15.79l22.039-2.448
			c0-0.012-0.001-0.023-0.002-0.037c0.574,1,1.801,1.692,3.226,1.692c1.973,0,3.572-1.326,3.572-2.963
			c0-1.638-1.6-2.964-3.572-2.964c-1.409,0-2.626,0.679-3.208,1.66l-22.468,2.496l28.409-26.923
			c0.454,0.174,0.957,0.272,1.489,0.272c1.974,0,3.572-1.326,3.572-2.963c0-1.637-1.599-2.964-3.572-2.964
			c-1.975,0-3.574,1.327-3.574,2.964c0,0.225,0.032,0.443,0.09,0.654l-28.762,27.256v-34.786c0.919-0.477,1.531-1.32,1.531-2.283
			c0-1.489-1.454-2.694-3.248-2.694c-1.795,0-3.251,1.205-3.251,2.694c0,1.07,0.757,1.993,1.849,2.427v36.293l-31.907-8.749
			c-0.202-1.627-1.861-2.897-3.878-2.897c-2.153,0-3.898,1.447-3.898,3.232c0,1.785,1.745,3.233,3.898,3.233
			c1.169,0,2.214-0.429,2.929-1.103l29.985,8.222l-28.832,10.092c-0.482-0.235-1.044-0.373-1.645-0.373
			c-1.795,0-3.248,1.206-3.248,2.693s1.453,2.694,3.248,2.694c1.795,0,3.25-1.207,3.25-2.694c0-0.023-0.005-0.048-0.005-0.072
			l28.445-9.957l-17.415,29.701c-0.048-0.001-0.095-0.006-0.144-0.006c-1.973,0-3.573,1.326-3.573,2.964
			c0,1.637,1.6,2.963,3.573,2.963c1.975,0,3.574-1.326,3.574-2.963c0-0.648-0.255-1.247-0.68-1.734l17.47-29.793l9.326,28.354
			c-0.479,0.451-0.774,1.042-0.774,1.692c0,1.413,1.382,2.56,3.086,2.56c1.704,0,3.087-1.147,3.087-2.56
			c0-1.226-1.041-2.25-2.431-2.5l-9.285-28.227l28.941,15.919c-0.001,0.042-0.007,0.084-0.007,0.126c0,1.638,1.6,2.963,3.574,2.963
			c1.974,0,3.573-1.325,3.573-2.963C274.422,528.496,272.822,527.17,270.849,527.17z"/>
	</g>
	<g>
		<path style="fill:#FF9191;" d="M-39.959,358.333c21.693-39.675,2.037-52.275-24.955-15.996
			c8.378-44.426-14.218-50.34-28.667-7.505c-5.776-44.919-29.16-43.487-29.611,1.955c-19.391-41.098-41.232-32.626-27.702,10.597
			c-31.041-32.877-49.09-18.076-22.928,18.797c-39.662-21.681-52.259-2.021-15.972,24.963c-44.444-8.382-50.356,14.225-7.515,28.681
			c-44.923,5.765-43.476,29.148,1.952,29.588c-41.097,19.401-32.618,41.238,10.593,27.709
			c-32.879,31.04-18.053,49.087,18.806,22.915c-21.684,39.68-2.012,52.274,24.955,15.996c-8.373,44.431,14.233,50.333,28.684,7.497
			c5.761,44.929,29.148,43.499,29.601-1.94c19.384,41.091,41.226,32.617,27.696-10.606c31.04,32.879,49.101,18.065,22.927-18.795
			c39.664,21.68,52.27,2.009,15.979-24.96c44.432,8.372,50.356-14.223,7.514-28.679c44.923-5.767,43.487-29.159-1.959-29.593
			c41.103-19.397,32.63-41.252-10.585-27.702C11.726,350.208-3.08,332.152-39.959,358.333z"/>
		
			<ellipse transform="matrix(0.6649 -0.7469 0.7469 0.6649 -355.0693 66.9179)" style="fill:#FF4B4B;" cx="-102.955" cy="429.182" rx="83.745" ry="83.745"/>
		<path style="fill:#E81616;" d="M-34.277,402.454c-0.929,1.043-1.509,2.257-1.742,3.46l-55.701,19.739l23.131-32.625
			c-0.016-0.014-0.033-0.027-0.051-0.041c2.035,0.424,4.438-0.396,6.147-2.316c2.366-2.658,2.498-6.403,0.293-8.366
			c-2.206-1.963-5.91-1.398-8.276,1.26c-1.69,1.898-2.235,4.35-1.61,6.311l-23.582,33.262l-2.2-70.559
			c0.777-0.402,1.514-0.963,2.152-1.68c2.366-2.658,2.498-6.403,0.292-8.366s-5.91-1.398-8.276,1.26
			c-2.369,2.66-2.499,6.405-0.294,8.368c0.304,0.271,0.636,0.489,0.99,0.664l2.226,71.431l-46.862-41.715
			c0.46-1.808,0.058-3.644-1.24-4.8c-2.006-1.786-5.374-1.273-7.525,1.145c-2.152,2.417-2.273,5.824-0.268,7.61
			c1.441,1.282,3.593,1.37,5.486,0.42l48.892,43.523l-50.049,32.491c-2.434-1.679-6.136-0.967-8.554,1.749
			c-2.582,2.901-2.725,6.988-0.32,9.129c2.405,2.142,6.448,1.525,9.03-1.375c1.401-1.574,2.079-3.496,2.026-5.269l47.036-30.534
			l-20.981,50.942c-0.896,0.367-1.755,0.959-2.476,1.77c-2.152,2.418-2.27,5.821-0.266,7.605c2.004,1.784,5.372,1.272,7.523-1.145
			c2.153-2.419,2.272-5.824,0.269-7.608c-0.032-0.028-0.07-0.052-0.104-0.08l20.699-50.262l19.128,59.078
			c-0.059,0.063-0.122,0.121-0.18,0.187c-2.367,2.658-2.499,6.404-0.293,8.368c2.205,1.962,5.91,1.397,8.277-1.261
			c2.368-2.66,2.499-6.406,0.295-8.368c-0.874-0.778-1.986-1.152-3.153-1.164l-19.186-59.262l49.38,21.438
			c0.032,1.188,0.476,2.293,1.35,3.071c1.904,1.695,5.105,1.208,7.149-1.088c2.043-2.296,2.157-5.532,0.253-7.228
			c-1.651-1.47-4.279-1.295-6.282,0.276l-49.16-21.34l56.151-19.899c0.056,0.052,0.104,0.11,0.162,0.16
			c2.206,1.964,5.911,1.398,8.278-1.261c2.367-2.659,2.499-6.403,0.293-8.367C-28.206,399.23-31.91,399.795-34.277,402.454z"/>
	</g>
	<g>
		<path style="fill:#8E2800;" d="M42.572,495.748c10.853-19.848,1.019-26.151-12.484-8.002c4.192-22.226-7.113-25.184-14.341-3.755
			c-2.89-22.472-14.588-21.756-14.814,0.978c-9.701-20.56-20.627-16.322-13.858,5.301c-15.529-16.447-24.559-9.043-11.47,9.404
			c-19.842-10.847-26.144-1.012-7.991,12.488c-22.234-4.193-25.192,7.116-3.759,14.348c-22.474,2.884-21.75,14.582,0.977,14.803
			c-20.56,9.706-16.318,20.63,5.299,13.861c-16.448,15.529-9.031,24.558,9.408,11.464c-10.848,19.852-1.007,26.152,12.484,8.003
			c-4.188,22.227,7.121,25.181,14.35,3.751c2.882,22.477,14.582,21.761,14.809-0.972c9.697,20.558,20.624,16.318,13.855-5.306
			c15.528,16.449,24.564,9.038,11.47-9.402c19.843,10.846,26.149,1.005,7.994-12.486c22.228,4.188,25.192-7.115,3.759-14.348
			c22.474-2.885,21.755-14.588-0.98-14.805c20.562-9.704,16.324-20.638-5.296-13.858C68.429,491.684,61.021,482.65,42.572,495.748z"
			/>
		
			<ellipse transform="matrix(0.6649 -0.7469 0.7469 0.6649 -393.0584 186.2592)" style="fill:#FFB03B;" cx="11.056" cy="531.192" rx="41.896" ry="41.896"/>
		<path style="fill:#B64926;" d="M45.414,517.821c-0.465,0.521-0.755,1.129-0.872,1.731l-27.866,9.875l11.572-16.321
			c-0.008-0.007-0.016-0.014-0.025-0.021c1.018,0.212,2.22-0.198,3.075-1.159c1.184-1.329,1.25-3.203,0.147-4.185
			c-1.104-0.982-2.957-0.7-4.141,0.63c-0.845,0.95-1.118,2.176-0.805,3.157l-11.797,16.641l-1.101-35.299
			c0.389-0.201,0.757-0.482,1.076-0.841c1.184-1.33,1.25-3.203,0.146-4.186c-1.103-0.981-2.957-0.699-4.141,0.631
			c-1.185,1.33-1.25,3.204-0.147,4.186c0.152,0.135,0.318,0.244,0.495,0.332l1.114,35.734l-23.444-20.868
			c0.23-0.904,0.029-1.823-0.62-2.401c-1.003-0.893-2.688-0.638-3.765,0.572c-1.077,1.209-1.138,2.914-0.134,3.808
			c0.721,0.642,1.797,0.686,2.745,0.21l24.459,21.773l-25.038,16.254c-1.218-0.84-3.07-0.483-4.279,0.875
			c-1.292,1.452-1.363,3.496-0.16,4.567c1.204,1.071,3.226,0.763,4.518-0.688c0.701-0.788,1.04-1.749,1.014-2.636l23.531-15.276
			L0.474,560.403c-0.448,0.184-0.878,0.48-1.239,0.886c-1.076,1.21-1.135,2.912-0.133,3.805c1.002,0.893,2.688,0.637,3.764-0.572
			c1.078-1.21,1.137-2.914,0.135-3.807c-0.016-0.014-0.035-0.025-0.052-0.04l10.355-25.145l9.569,29.556
			c-0.03,0.031-0.061,0.061-0.09,0.093c-1.184,1.33-1.25,3.204-0.147,4.186c1.103,0.982,2.957,0.699,4.141-0.631
			c1.184-1.331,1.25-3.205,0.148-4.186c-0.438-0.389-0.994-0.576-1.578-0.582l-9.598-29.647l24.704,10.725
			c0.016,0.595,0.238,1.147,0.675,1.537c0.953,0.848,2.554,0.604,3.577-0.545c1.022-1.148,1.079-2.768,0.126-3.615
			c-0.826-0.735-2.141-0.648-3.143,0.138l-24.593-10.676l28.091-9.955c0.028,0.026,0.052,0.056,0.081,0.08
			c1.104,0.983,2.957,0.7,4.142-0.631c1.184-1.33,1.25-3.203,0.146-4.186C48.451,516.208,46.598,516.491,45.414,517.821z"/>
	</g>
	<g>
		<path style="fill:#FF7001;" d="M437.599,400.494c10.853-19.848,1.019-26.151-12.484-8.002c4.192-22.226-7.112-25.184-14.341-3.755
			c-2.891-22.472-14.588-21.756-14.814,0.979c-9.7-20.561-20.627-16.322-13.857,5.301c-15.529-16.447-24.559-9.043-11.471,9.404
			c-19.842-10.847-26.145-1.012-7.99,12.488c-22.234-4.193-25.192,7.116-3.76,14.348c-22.475,2.884-21.75,14.582,0.977,14.803
			c-20.561,9.706-16.318,20.63,5.299,13.861c-16.447,15.529-9.031,24.558,9.408,11.464c-10.848,19.852-1.006,26.152,12.484,8.003
			c-4.188,22.228,7.121,25.181,14.35,3.751c2.883,22.477,14.582,21.761,14.809-0.972c9.697,20.558,20.625,16.318,13.855-5.306
			c15.529,16.449,24.565,9.038,11.471-9.402c19.844,10.846,26.149,1.005,7.994-12.486c22.229,4.188,25.191-7.115,3.759-14.348
			c22.474-2.885,21.755-14.588-0.979-14.805c20.562-9.704,16.324-20.638-5.297-13.858
			C463.455,396.43,456.049,387.397,437.599,400.494z"/>
		
			<ellipse transform="matrix(0.6649 -0.7469 0.7469 0.6649 -189.5381 449.3969)" style="fill:#FFF94B;" cx="406.083" cy="435.938" rx="41.895" ry="41.896"/>
		<path style="fill:#E8A216;" d="M440.441,422.567c-0.465,0.521-0.756,1.129-0.872,1.73l-27.866,9.875l11.572-16.321
			c-0.008-0.007-0.016-0.014-0.025-0.02c1.018,0.212,2.221-0.198,3.075-1.159c1.184-1.329,1.249-3.203,0.147-4.185
			c-1.104-0.982-2.957-0.7-4.141,0.63c-0.845,0.95-1.118,2.176-0.806,3.157l-11.797,16.641l-1.101-35.299
			c0.389-0.201,0.757-0.482,1.076-0.841c1.185-1.33,1.249-3.203,0.147-4.186c-1.103-0.981-2.956-0.699-4.141,0.631
			c-1.185,1.33-1.25,3.204-0.148,4.186c0.152,0.135,0.318,0.244,0.496,0.332l1.113,35.734l-23.443-20.868
			c0.23-0.904,0.029-1.823-0.621-2.401c-1.003-0.894-2.688-0.638-3.764,0.572c-1.077,1.209-1.139,2.914-0.135,3.808
			c0.721,0.642,1.797,0.685,2.744,0.21l24.46,21.773l-25.038,16.254c-1.219-0.84-3.07-0.483-4.279,0.875
			c-1.293,1.452-1.363,3.496-0.16,4.567c1.203,1.071,3.225,0.763,4.518-0.688c0.701-0.788,1.039-1.749,1.014-2.636l23.53-15.276
			L395.5,465.149c-0.447,0.184-0.877,0.48-1.238,0.886c-1.076,1.21-1.136,2.912-0.133,3.805c1.002,0.893,2.688,0.637,3.764-0.572
			c1.077-1.21,1.137-2.914,0.135-3.807c-0.017-0.014-0.035-0.025-0.053-0.04l10.355-25.145l9.569,29.556
			c-0.03,0.031-0.061,0.061-0.091,0.093c-1.184,1.33-1.249,3.204-0.147,4.186c1.104,0.982,2.957,0.699,4.141-0.631
			c1.186-1.331,1.251-3.205,0.148-4.187c-0.438-0.389-0.994-0.576-1.578-0.582l-9.598-29.647l24.704,10.725
			c0.017,0.595,0.237,1.147,0.675,1.537c0.953,0.848,2.555,0.604,3.577-0.545c1.022-1.148,1.079-2.767,0.126-3.615
			c-0.826-0.735-2.141-0.648-3.143,0.138l-24.593-10.676l28.091-9.955c0.027,0.026,0.053,0.056,0.08,0.08
			c1.103,0.983,2.957,0.7,4.142-0.631c1.184-1.33,1.25-3.203,0.147-4.186C443.478,420.954,441.625,421.237,440.441,422.567z"/>
	</g>
</g>
<g>
	<path style="fill:#ADD1E1;stroke:#0063D4;" d="M-395,522.556V611H607V423.741c-15.834-3.913-32.673-6.023-50.135-6.023
		c-71.121,0-131.918,34.982-156.439,84.397c-10.342-2.369-21.272-3.642-32.578-3.642c-43.589,0-81.608,18.87-101.741,46.852
		c-18.143-7.179-38.611-11.226-60.274-11.226c-0.2,0-0.398,0.006-0.598,0.007c0.38-2.566,0.598-5.173,0.598-7.821
		c0-36.728-37.611-66.502-84.008-66.502c-46.396,0-84.007,29.774-84.007,66.502c0,10.773,3.256,20.939,9,29.94
		c-20.964-9.95-45.62-15.688-72.008-15.688c-7.306,0-14.478,0.443-21.477,1.291c-25.923-57.454-96.511-98.672-179.543-98.672
		c-6.598,0-13.116,0.261-19.541,0.77c2.004-5.303,3.099-10.905,3.099-16.708c0-32.794-34.328-59.379-76.674-59.379
		c-38.147,0-69.773,21.578-75.673,49.83v19.104c4.04,19.331,20.123,35.533,42.103,43.838
		C-369.999,492.453-384.316,506.655-395,522.556z"/>
	<ellipse style="fill:#ADD1E1;stroke:#0063D4;" cx="-16.192" cy="510.349" rx="33.003" ry="26.126"/>
</g>
</svg>
