<?xml version="1.0" encoding="iso-8859-1"?>
<!-- Generator: Adobe Illustrator 21.1.0, SVG Export Plug-In . SVG Version: 6.00 Build 0)  -->
<svg version="1.1" id="cupboard" xmlns="http://www.w3.org/2000/svg" xmlns:xlink="http://www.w3.org/1999/xlink" x="0px" y="0px"
	 width="138.74px" height="95.089px" viewBox="0 0 138.74 95.089" style="enable-background:new 0 0 138.74 95.089;"
	 xml:space="preserve">
<g>
	<g>
		<path style="fill:#6AC53F;" d="M132.713,43.191l-26.805-7.383c0,0-74.015,12.079-90.98,24.59c-1.091,0.805-1.168,0.026-0.509,2.6
			c0.83,3.242-11.134,10.72-9.161,11.265c20.028,5.534,63.625,13.859,76.343,16.248c2.364,0.444,3.562-2.383,3.562-2.383
			l0.764-0.433L132.713,43.191z"/>
		<g>
			<path d="M132.636,43.211l-3.323-0.767l-3.366-0.865c-2.238-0.598-4.501-1.108-6.72-1.778l-6.669-1.964
				c-2.22-0.663-4.44-1.329-6.691-1.881l0.066,0.004c-16.067,2.751-32.067,5.942-47.912,9.758
				c-7.919,1.919-15.795,4.024-23.552,6.494c-3.872,1.249-7.716,2.598-11.445,4.204c-1.86,0.808-3.697,1.675-5.446,2.684
				c-0.877,0.504-1.717,1.043-2.535,1.645c-0.222,0.162-0.509,0.303-0.674,0.397c-0.069,0.07,0.004-0.047-0.02,0.025
				c-0.003,0.062,0.019,0.186,0.043,0.298l0.377,1.488c0.132,0.623-0.084,1.219-0.322,1.694c-0.247,0.489-0.555,0.921-0.879,1.334
				c-0.652,0.821-1.378,1.557-2.118,2.269c-1.482,1.422-3.06,2.728-4.555,4.09c-0.37,0.342-0.738,0.688-1.063,1.049
				c-0.16,0.178-0.314,0.371-0.401,0.536c-0.055,0.082-0.017,0.145-0.054,0.035c-0.077-0.089-0.045-0.034,0.112-0.003l2.949,0.788
				c1.97,0.513,3.946,1.003,5.926,1.481c7.921,1.906,15.888,3.636,23.864,5.314c7.976,1.682,15.973,3.265,23.965,4.873l11.998,2.362
				l6.003,1.158l1.49,0.284c0.465,0.085,0.91,0.027,1.329-0.157c0.832-0.374,1.479-1.203,1.882-2.048l0.007-0.014
				c0.026-0.055,0.068-0.098,0.117-0.125l0.768-0.426l-0.055,0.041L132.636,43.211z M132.739,43.218l-46.617,44.68
				c-0.016,0.015-0.038,0.03-0.056,0.041l-0.76,0.44l0.124-0.139c-0.464,0.975-1.136,1.873-2.173,2.364
				c-0.51,0.235-1.121,0.309-1.66,0.21l-1.516-0.279l-6.011-1.125l-12.015-2.295c-8.008-1.539-15.997-3.179-23.979-4.853
				c-7.979-1.686-15.949-3.422-23.881-5.338c-1.982-0.48-3.962-0.974-5.937-1.489l-2.958-0.792
				c-0.077-0.042-0.336-0.021-0.547-0.341c-0.152-0.349-0.013-0.557,0.043-0.695c0.153-0.286,0.329-0.488,0.507-0.69
				c0.357-0.396,0.733-0.748,1.112-1.098c1.519-1.383,3.086-2.678,4.546-4.079c0.728-0.699,1.437-1.419,2.054-2.196
				c0.582-0.756,1.216-1.667,1.064-2.458c-0.112-0.454-0.257-0.962-0.372-1.476c-0.026-0.137-0.059-0.265-0.058-0.458
				c0.002-0.093,0.017-0.226,0.094-0.354c0.077-0.128,0.18-0.201,0.251-0.246c0.277-0.159,0.452-0.239,0.644-0.376
				c0.825-0.605,1.703-1.169,2.594-1.679c1.784-1.028,3.642-1.902,5.519-2.716c3.763-1.616,7.624-2.967,11.511-4.217
				c7.779-2.492,15.693-4.509,23.628-6.395c15.888-3.715,31.907-6.82,47.994-9.514c0.021-0.004,0.046-0.002,0.066,0.004
				c2.216,0.678,4.464,1.243,6.711,1.81l6.734,1.728c2.249,0.561,4.453,1.282,6.682,1.915l3.335,0.98l3.312,1.063
				c0.02,0.005,0.032,0.026,0.026,0.046C132.747,43.207,132.743,43.213,132.739,43.218z"/>
		</g>
	</g>
	<path style="fill:#FFFBCE;" d="M11.875,74.045c2.635,1.259,8.309,2.892,10.773,3.389c8.362,1.687,17.4,2.331,33.759,5.71
		c12.028,2.484,25.272,5.98,29.011,5.632c1.06-0.099,3.61-8.623,3.61-8.623L82.242,74c0,0-21.622-3.904-36.645-7.383
		c-6.616-1.532-28.699-4.96-33.964-3.038c-5.264,1.921-1.663,5.91-1.663,5.91S8.063,72.225,11.875,74.045z"/>
	<path style="fill:#F5E4C8;" d="M73.335,79.286c0.316-0.36-25.312-5.618-36.055-7.2c-11.033-1.516-16.537-3.874-25.019-2.849
		c6.446,1.231,13.852,1.935,24.546,3.848C47.162,75.04,73.027,79.672,73.335,79.286z"/>
	<path style="fill:#F5E4C8;" d="M60.103,78.877c0.161-0.369-19.012-4.854-27.822-5.948c-9.021-1.017-12.894-2.461-19.68-2.051
		c6.107,0.615,11.506,1.653,20.358,3.076C41.556,75.433,59.955,79.271,60.103,78.877z"/>
	<path style="fill:#F5E4C8;" d="M73.674,76.62c0.316-0.36-25.312-5.619-36.055-7.2c-11.033-1.517-14.409-2.975-26.036-3.054
		c7.803,1.641,14.869,2.14,25.563,4.053C47.5,72.374,73.366,77.006,73.674,76.62z"/>
	<path style="fill:#F5E4C8;" d="M20.7,73.716c12.687,1.217,16.872,2.565,28.401,5.236c11.205,2.685,24.752,4.976,28.307,5.461
		c0.447-0.379-16.329-3.856-27.808-6.236C37.798,75.818,33.447,74.734,20.7,73.716z"/>
	<g>
		<path style="fill:#8BC53F;" d="M57.587,27.719c0,0,5.995-4.991,11.239-5.26c5.243-0.268,10.476,0.29,17.403,1.658
			c6.927,1.368,24.467,3.42,35.324,4.651c7.444,0.844,10.07,7.359,10.98,11.298c0.405,1.756-0.038,2.566-0.038,2.566
			s-0.516,1.43-2.098,2.979c-4.108,4.021-11.98,11.76-15.46,15.436c-4.82,5.091-17.735,17.029-21.631,21.23
			c-3.817,4.116-12.384,9.586-9.925,8.016c2.037-1.3,0.509-15.165-2.799-14.948c0,0-46.038-9.57-57.008-10.651
			c-9.776-0.964-18.778-2.02-18.778-2.02l53.039-35.051"/>
		<path d="M57.563,27.69c1.377-1.127,2.851-2.134,4.398-3.018c1.549-0.875,3.185-1.631,4.929-2.067
			c0.865-0.222,1.786-0.321,2.666-0.344c0.89-0.042,1.784-0.056,2.674-0.042c1.783,0.019,3.563,0.136,5.335,0.321
			c3.544,0.35,7.054,1.035,10.535,1.673c3.497,0.587,7.017,1.061,10.537,1.522c7.043,0.911,14.1,1.723,21.159,2.514
			c0.877,0.105,1.772,0.177,2.658,0.328c0.909,0.162,1.782,0.417,2.626,0.777c1.689,0.712,3.174,1.868,4.34,3.268
			c1.164,1.406,2.024,3.032,2.647,4.724c0.314,0.847,0.567,1.713,0.773,2.591c0.186,0.905,0.346,1.829-0.061,2.85l0.02-0.044
			c-0.376,0.899-0.9,1.646-1.5,2.353c-0.612,0.704-1.283,1.289-1.917,1.923l-3.854,3.751l-7.656,7.553
			c-4.943,5.194-10.212,10.082-15.362,15.067c-2.573,2.497-5.156,4.986-7.668,7.539l-1.857,1.945
			c-0.634,0.644-1.299,1.252-1.979,1.841c-1.361,1.178-2.778,2.285-4.218,3.358l-2.181,1.582l-1.104,0.771l-0.277,0.191
			l-0.135,0.094l-0.015,0.01c0.004,0.289,0.095-0.431-0.22-0.331l0.028-0.018l0.07-0.044c0.178-0.121,0.414-0.24,0.484-0.36
			c0.45-0.647,0.542-1.602,0.615-2.459c0.06-0.882,0.045-1.773-0.008-2.66c-0.115-1.774-0.378-3.546-0.834-5.26
			c-0.233-0.854-0.512-1.699-0.908-2.474c-0.38-0.738-0.963-1.566-1.702-1.528c-0.021,0.002-0.045-0.001-0.066-0.004l-18.852-3.749
			l-18.873-3.626c-6.297-1.143-12.605-2.355-18.936-3.125c-6.374-0.629-12.75-1.312-19.118-2.046c-0.2-0.023-0.344-0.204-0.32-0.404
			c0.013-0.111,0.076-0.206,0.162-0.263l13.262-8.76l13.308-8.689l13.308-8.69l13.342-8.639c0.017-0.011,0.041-0.006,0.052,0.011
			c0.011,0.017,0.006,0.04-0.011,0.051l-13.178,8.887l-13.211,8.835l-13.212,8.836L4.998,62.979l-0.159-0.667
			c6.363,0.739,12.729,1.427,19.108,2.062c6.392,0.786,12.679,2.003,18.987,3.155c6.299,1.186,12.593,2.396,18.872,3.681
			l18.826,3.896l-0.065-0.004c0.56-0.037,1.043,0.285,1.366,0.63c0.333,0.354,0.577,0.757,0.788,1.168
			c0.416,0.826,0.696,1.695,0.931,2.57c0.456,1.755,0.712,3.549,0.82,5.353c0.05,0.902,0.061,1.808-0.006,2.715
			c-0.098,0.898-0.137,1.835-0.716,2.684c-0.201,0.247-0.396,0.311-0.582,0.444l-0.073,0.046l-0.043,0.026
			c-0.337,0.113-0.229-0.621-0.214-0.34l0.02-0.014l0.141-0.097l0.277-0.19l1.103-0.766l2.179-1.568
			c1.438-1.064,2.853-2.162,4.208-3.326c0.676-0.583,1.338-1.183,1.964-1.814c0.614-0.636,1.236-1.303,1.871-1.932
			c2.538-2.54,5.14-5.007,7.733-7.484c5.192-4.953,10.337-9.938,15.244-15.173c2.505-2.569,5.038-5.107,7.578-7.64l3.816-3.792
			c0.627-0.639,1.304-1.246,1.86-1.903c0.555-0.659,1.056-1.413,1.364-2.173l0.021-0.045c0.258-0.648,0.185-1.59-0.012-2.394
			c-0.202-0.852-0.451-1.692-0.757-2.51c-0.606-1.637-1.445-3.187-2.546-4.523c-1.103-1.332-2.493-2.421-4.082-3.097
			c-0.788-0.341-1.63-0.589-2.469-0.741c-0.864-0.15-1.742-0.225-2.628-0.335c-7.058-0.824-14.113-1.669-21.157-2.614
			c-3.522-0.478-7.042-0.968-10.55-1.574c-3.501-0.659-6.968-1.371-10.496-1.745c-1.76-0.197-3.527-0.327-5.296-0.359
			c-0.886-0.021-1.769-0.011-2.654,0.009c-0.896,0.007-1.751,0.085-2.614,0.285c-1.715,0.393-3.351,1.108-4.907,1.947
			c-1.554,0.848-3.044,1.823-4.438,2.918c-0.016,0.013-0.04,0.011-0.053-0.004C57.545,27.727,57.548,27.703,57.563,27.69z"/>
	</g>
	<g>
		<path d="M80.595,75.296c1.393,0.383,2.474,1.505,3.165,2.756c0.685,1.276,1.022,2.704,1.18,4.125
			c0.16,1.423,0.194,2.869-0.042,4.274c-0.241,1.402-0.622,2.774-1.214,4.07c-0.012,0.026-0.042,0.037-0.068,0.025
			c-0.019-0.009-0.03-0.029-0.03-0.049c0.061-1.421,0.221-2.795,0.319-4.169c0.099-1.368,0.283-2.727,0.236-4.093
			c-0.053-1.358-0.275-2.724-0.83-3.962c-0.531-1.225-1.447-2.384-2.742-2.881l-0.007-0.002c-0.025-0.01-0.039-0.039-0.029-0.065
			C80.544,75.302,80.571,75.29,80.595,75.296z"/>
	</g>
	<g>
		<path d="M10.066,63.512c0.141,0.727,0.185,1.404,0.195,2.103c0.006,0.693-0.038,1.384-0.134,2.064
			c-0.217,1.351-0.479,2.669-0.797,3.984c0.086-0.669,0.148-1.34,0.204-2.012c0.048-0.668,0.11-1.349,0.119-2.008
			c0.006-0.663-0.037-1.324-0.127-1.974c-0.091-0.644-0.228-1.308-0.422-1.887l-0.005-0.015c-0.088-0.263,0.054-0.547,0.317-0.635
			c0.263-0.088,0.547,0.054,0.635,0.316C10.056,63.468,10.062,63.491,10.066,63.512z"/>
	</g>
</g>
<path style="fill:#5BA72B;" d="M128.25,32.5c0,0-7.916,10.5-17,18.5c-7.144,6.292-28.084,24.167-28.084,24.167s5.834,5.167,2,13
	c-1.228,2.511,20.949-18.506,30.5-28.333C127.166,48.001,132,43,132,43s0.75-2.75-0.75-5.75S128.25,32.5,128.25,32.5z"/>
<g>
	<g>
		<path style="fill:#9D1E86;" d="M133.907,32.497l-25.911-8.096c0,0-83.438,8.101-100.719,18.294
			c-2.513,1.483,0.069,10.8,3.49,11.872C33.724,61.758,83.49,73.064,83.49,73.064L133.907,32.497z"/>
		<g>
			<path d="M133.825,32.514l-3.212-0.854l-3.256-0.955c-2.165-0.657-4.356-1.228-6.499-1.957l-6.441-2.141
				c-2.145-0.722-4.288-1.447-6.467-2.059l0.06,0.006c-15.866,1.638-31.704,3.596-47.476,5.963
				c-7.884,1.191-15.754,2.49-23.578,4.014c-7.812,1.542-15.639,3.179-23.17,5.715c-1.873,0.652-3.727,1.367-5.472,2.274
				L7.67,42.873c-0.119,0.07-0.195,0.106-0.301,0.181c-0.066,0.052-0.134,0.107-0.199,0.188c-0.258,0.303-0.4,0.748-0.476,1.2
				c-0.144,0.92-0.058,1.903,0.114,2.855c0.364,1.902,1.062,3.793,2.174,5.354c0.573,0.767,1.239,1.441,2.144,1.655l2.857,0.871
				c7.639,2.271,15.351,4.308,23.073,6.295c15.458,3.93,30.964,7.685,46.498,11.308l-0.246,0.057L133.825,32.514z M133.982,32.484
				L83.672,73.29l-0.109,0.088l-0.138-0.031c-15.566-3.515-31.097-7.177-46.551-11.164c-7.727-1.995-15.441-4.04-23.095-6.322
				l-2.864-0.876c-0.486-0.121-1.044-0.407-1.436-0.751c-0.414-0.345-0.76-0.745-1.068-1.164c-1.201-1.696-1.908-3.643-2.294-5.646
				c-0.177-1.006-0.276-2.04-0.113-3.096c0.091-0.522,0.244-1.071,0.633-1.539c0.092-0.114,0.214-0.223,0.347-0.32
				c0.098-0.069,0.243-0.148,0.34-0.204L7.991,41.9c1.798-0.932,3.677-1.653,5.57-2.31c7.603-2.55,15.439-4.186,23.27-5.717
				c7.846-1.483,15.729-2.737,23.626-3.885c15.798-2.27,31.645-4.159,47.525-5.741l0.033-0.003l0.028,0.01
				c2.14,0.737,4.314,1.362,6.489,1.989l6.514,1.907c2.176,0.621,4.303,1.399,6.457,2.092l3.221,1.069L133.982,32.484z"/>
		</g>
	</g>
	<g>
		<path style="fill:#BE1E86;" d="M83.659,73.027l50.401-40.292l-26.064-8.334c0,0-51.494,2.765-46.302,16.958"/>
		<path d="M83.635,72.998c4.133-3.442,8.287-6.857,12.459-10.25l12.556-10.128c4.203-3.354,8.434-6.673,12.676-9.978
			c4.243-3.304,8.462-6.638,12.658-10l0.038,0.208l-26.11-8.189l0.098,0.013c-4.423,0.33-8.846,0.789-13.246,1.359
			c-4.398,0.595-8.788,1.258-13.125,2.176c-4.323,0.943-8.658,1.974-12.722,3.719c-2.011,0.884-3.997,1.934-5.564,3.467
			c-0.768,0.768-1.434,1.669-1.741,2.72c-0.325,1.044-0.242,2.189,0.118,3.233l-0.07,0.025c-0.409-1.036-0.551-2.211-0.26-3.316
			c0.278-1.107,0.921-2.094,1.701-2.909c1.589-1.626,3.589-2.737,5.61-3.684c4.087-1.841,8.413-3.06,12.77-4
			c4.362-0.934,8.766-1.654,13.19-2.178c4.424-0.535,8.857-0.943,13.312-1.157l0.051-0.002l0.046,0.015l26.017,8.479l0.212,0.069
			l-0.174,0.139c-4.205,3.352-8.385,6.734-12.542,10.145c-4.158,3.411-8.327,6.807-12.524,10.168L96.423,63.16
			c-4.227,3.323-8.474,6.623-12.741,9.896L83.635,72.998z"/>
	</g>
	<path style="fill:#FFFBCE;" d="M12.536,52.834c2.52,1.271,6.57,2.455,8.96,3.037c8.115,1.977,16.83,3.601,32.702,7.538
		c11.669,2.894,22.792,6.474,26.476,6.375c1.045-0.028,5.788-7.737,5.788-7.737l-6.34-5.868c0,0-21.005-4.702-35.561-8.652
		c-6.41-1.739-27.893-6.043-33.155-4.627c-5.261,1.415-1.935,5.174-1.935,5.174S8.891,50.997,12.536,52.834z"/>
	<g>
		<path style="fill:#EAE9DC;" d="M125.21,21.174L89.033,37.901l-8.557,17.931c0,0-1.749,7.083,0.451,9.564
			c1.302,1.469-0.253,4.388-0.253,4.388l47.492-36.15c0,0-1.658-6.324-2.917-7.321C122.562,24.184,125.21,21.174,125.21,21.174z"/>
		<path d="M125.22,21.197l-18.038,8.471l-18.063,8.419l0.099-0.098c-1.391,3.005-2.859,5.974-4.299,8.956l-4.338,8.936l0.008-0.022
			c-0.278,1.165-0.478,2.357-0.596,3.553c-0.108,1.194-0.16,2.408,0.038,3.591c0.1,0.588,0.257,1.171,0.53,1.695
			c0.138,0.265,0.305,0.494,0.508,0.725c0.202,0.246,0.332,0.545,0.404,0.85c0.25,1.248-0.169,2.472-0.682,3.572l-0.197-0.167
			c15.752-12.153,31.542-24.256,47.464-36.186l-0.064,0.186c-0.289-1.104-0.609-2.204-0.964-3.29
			c-0.362-1.081-0.739-2.168-1.268-3.166c-0.135-0.245-0.283-0.487-0.461-0.686c-0.18-0.183-0.428-0.368-0.621-0.597
			c-0.396-0.442-0.655-1.015-0.708-1.605c-0.092-1.199,0.49-2.305,1.218-3.178L125.22,21.197z M125.229,21.191
			c-0.688,0.887-1.21,2.007-1.076,3.125c0.069,0.552,0.332,1.061,0.705,1.467c0.181,0.209,0.403,0.361,0.628,0.582
			c0.208,0.226,0.362,0.477,0.507,0.73c0.559,1.024,0.95,2.11,1.329,3.195c0.372,1.089,0.708,2.187,1.014,3.298
			c0.02,0.07-0.01,0.144-0.064,0.186c-15.739,12.171-31.61,24.167-47.519,36.114c-0.059,0.044-0.142,0.032-0.186-0.026
			c-0.031-0.042-0.033-0.098-0.011-0.142c0.513-1.043,0.936-2.25,0.719-3.402c-0.063-0.282-0.175-0.553-0.353-0.778
			c-0.192-0.225-0.383-0.487-0.519-0.761c-0.28-0.552-0.434-1.151-0.53-1.751c-0.178-1.205-0.169-2.426-0.067-3.633
			c0.104-1.208,0.289-2.405,0.556-3.592l0.008-0.022l4.219-8.994c1.413-2.995,2.796-6.003,4.258-8.975
			c0.021-0.044,0.059-0.078,0.099-0.098l18.114-8.308l18.138-8.255c0.012-0.006,0.027,0,0.033,0.012
			C125.236,21.173,125.234,21.184,125.229,21.191z"/>
	</g>
	<path style="fill:#F5E4C8;" d="M73.816,61.317c0.329-0.303-24.537-6.439-34.992-8.456c-10.743-1.975-16.02-4.388-24.392-3.953
		c6.259,1.461,13.486,2.507,23.877,4.817C48.363,56.053,73.494,61.644,73.816,61.317z"/>
	<path style="fill:#F5E4C8;" d="M60.858,60.204c0.177-0.319-18.397-5.4-26.982-6.874c-8.796-1.415-12.52-2.922-19.196-2.94
		c5.959,0.893,11.2,2.124,19.809,3.893C42.845,56.087,60.693,60.547,60.858,60.204z"/>
	<path style="fill:#F5E4C8;" d="M74.286,58.96c0.328-0.302-24.537-6.438-34.993-8.456c-10.743-1.975-13.979-3.466-25.379-4.194
		c7.569,1.904,14.474,2.748,24.864,5.058C48.833,53.696,73.963,59.286,74.286,58.96z"/>
	<path style="fill:#F5E4C8;" d="M22.478,53.378c12.38,1.801,16.416,3.24,27.586,6.272c10.852,3.027,24.021,5.835,27.482,6.468
		c0.459-0.314-15.817-4.359-26.953-7.13C39.14,56.217,34.928,55.005,22.478,53.378z"/>
	<g>
		<path style="fill:#BE1E86;" d="M61.02,14.461c0,0,6.136-4.11,11.292-4.053c5.157,0.057,10.26,0.85,16.983,2.461
			c6.724,1.61,10.564,2.075,21.15,3.786c10.496,1.696,20.712,5.596,20.712,5.596s-17.204,10.046-22.193,14.312
			c-4.989,4.266-16.421,12.627-20.302,16.255c-1.853,1.731-8.324,5.391-8.324,5.391S36.465,47.081,25.761,45.497
			c-9.538-1.411-18.313-2.861-18.313-2.861l53.821-28.247"/>
		<path d="M60.999,14.429c2.531-1.636,5.266-3.005,8.209-3.766c0.736-0.184,1.487-0.32,2.249-0.379
			c0.768-0.059,1.52-0.031,2.275-0.015c1.513,0.046,3.021,0.162,4.522,0.331c3.004,0.341,5.978,0.895,8.926,1.542
			c2.947,0.67,5.865,1.366,8.831,1.885c5.924,1.076,11.903,1.792,17.849,2.919c5.929,1.207,11.733,2.918,17.413,5.004
			c0.165,0.061,0.249,0.244,0.189,0.409c-0.027,0.072-0.08,0.131-0.142,0.167c-4.488,2.61-8.948,5.279-13.341,8.048
			c-2.193,1.389-4.376,2.797-6.491,4.295c-1.063,0.749-2.074,1.534-3.066,2.383c-1.005,0.828-2.024,1.635-3.048,2.437l-6.173,4.764
			c-2.046,1.602-4.093,3.203-6.114,4.834c-1.009,0.816-2.014,1.639-2.995,2.486c-0.493,0.424-0.968,0.854-1.447,1.299
			c-0.5,0.441-1.028,0.824-1.562,1.202c-2.148,1.486-4.375,2.829-6.624,4.145c-0.054,0.032-0.117,0.039-0.173,0.025l-0.006-0.001
			l-18.11-4.427l-18.136-4.314c-6.054-1.375-12.115-2.821-18.215-3.837c-6.149-0.909-12.292-1.868-18.429-2.869
			c-0.199-0.033-0.333-0.22-0.301-0.419c0.019-0.117,0.094-0.213,0.191-0.265l13.457-7.059l13.496-6.984l13.496-6.984l13.524-6.93
			c0.019-0.009,0.041-0.002,0.051,0.016c0.009,0.019,0.002,0.04-0.016,0.05L47.9,21.616l-13.414,7.14l-13.415,7.139L7.618,42.96
			l-0.11-0.683c6.131,1.006,12.269,1.971,18.416,2.885c6.163,1.034,12.202,2.485,18.266,3.869
			c6.054,1.418,12.102,2.857,18.131,4.369l18.079,4.574l-0.179,0.024c2.257-1.272,4.507-2.579,6.647-4.031
			c0.531-0.366,1.061-0.743,1.539-1.156c0.477-0.435,0.969-0.872,1.465-1.292c0.994-0.842,2.008-1.657,3.026-2.465
			c2.038-1.615,4.1-3.197,6.161-4.781l6.122-4.824c1.013-0.813,2.021-1.631,3.012-2.467c0.972-0.853,2.007-1.675,3.061-2.435
			c2.11-1.53,4.279-2.966,6.463-4.379c4.373-2.818,8.807-5.533,13.278-8.193l0.047,0.575c-5.639-2.052-11.438-3.731-17.314-4.961
			c-5.894-1.134-11.886-1.922-17.815-3.039c-2.969-0.543-5.911-1.268-8.835-1.958c-2.933-0.668-5.888-1.243-8.87-1.605
			c-1.491-0.182-2.99-0.301-4.489-0.368c-0.749-0.031-1.506-0.074-2.243-0.031c-0.742,0.042-1.481,0.161-2.21,0.328
			c-2.915,0.689-5.674,1.998-8.227,3.577c-0.017,0.012-0.041,0.007-0.052-0.01S60.982,14.441,60.999,14.429z"/>
	</g>
	<path style="fill:#C5C3C2;" d="M101.829,45.753c-9.367,6.476-16.895,12.178-16.724,12.515c-0.034-0.087,7.496-5.505,16.867-11.985
		c9.359-6.517,16.955-11.748,16.931-11.869C118.865,34.232,111.195,39.232,101.829,45.753z"/>
	<path style="fill:#C5C3C2;" d="M88.307,62.65c0.027,0.051,7.748-5.654,17.295-12.689c9.54-7.038,17.229-12.924,17.149-13.119
		c-0.031-0.074-7.777,5.569-17.324,12.612C95.884,56.485,88.214,62.439,88.307,62.65z"/>
	<path style="fill:#C5C3C2;" d="M86.988,60.51c0.028,0.054,8.164-5.975,18.224-13.412c10.051-7.438,18.153-13.659,18.07-13.865
		c-0.033-0.078-8.195,5.887-18.253,13.331C94.974,53.995,86.891,60.287,86.988,60.51z"/>
	<path style="fill:#C5C3C2;" d="M83.423,57.519c0.028,0.054,8.372-5.587,18.432-13.024c10.052-7.438,21.023-15.213,20.94-15.418
		c-0.033-0.078-11.273,7.052-21.331,14.496C91.409,51.004,83.325,57.296,83.423,57.519z"/>
	<path style="fill:#C5C3C2;" d="M97.326,54.461c-0.027-0.087-3.041,1.978-6.734,4.61c-3.693,2.632-6.666,4.837-6.639,4.923
		c0.025,0.086,3.041-1.978,6.733-4.61C94.379,56.751,97.351,54.547,97.326,54.461z"/>
	<path style="fill:#C5C3C2;" d="M113.547,42.43c3.694-2.633,6.666-4.837,6.641-4.924c-0.027-0.085-3.041,1.979-6.735,4.611
		c-3.692,2.632-6.664,4.836-6.64,4.922C106.84,47.125,109.854,45.062,113.547,42.43z"/>
	<g>
		<path d="M10.936,43.75c-0.668-0.096-1.442,0.087-1.756,0.653c-0.348,0.57-0.313,1.419-0.165,2.199
			c0.163,0.802,0.34,1.634,0.553,2.44c0.224,0.804,0.434,1.625,0.838,2.363c-0.499-0.685-0.817-1.483-1.146-2.261
			c-0.313-0.791-0.616-1.572-0.861-2.401C8.195,45.91,8.014,44.96,8.465,44.01c0.226-0.466,0.662-0.843,1.132-1.03
			c0.48-0.192,0.945-0.259,1.468-0.223c0.276,0.019,0.484,0.259,0.464,0.535c-0.019,0.276-0.258,0.484-0.534,0.464
			c-0.012-0.001-0.023-0.002-0.035-0.003L10.936,43.75z"/>
	</g>
</g>
<g>
	<g>
		<path style="fill:#231F20;" d="M91.099,82.247c-0.243-1.662-0.32-3.237-0.358-4.868c-0.008-1.632,0.07-3.265,0.434-4.895
			c0.379,1.626,0.493,3.25,0.554,4.873c0.034,0.805,0.022,1.644-0.067,2.462C91.567,80.639,91.416,81.462,91.099,82.247z"/>
	</g>
	<g>
		<path style="fill:#231F20;" d="M93.099,79.497c-0.243-1.662-0.32-3.237-0.358-4.868c-0.008-1.632,0.07-3.265,0.434-4.895
			c0.379,1.626,0.493,3.25,0.554,4.873c0.034,0.805,0.022,1.644-0.067,2.462C93.567,77.889,93.416,78.712,93.099,79.497z"/>
	</g>
	<g>
		<path style="fill:#231F20;" d="M95.349,75.997c-0.243-1.662-0.32-3.237-0.358-4.868c-0.008-1.632,0.07-3.265,0.434-4.895
			c0.379,1.626,0.493,3.25,0.554,4.873c0.034,0.805,0.022,1.644-0.067,2.462C95.817,74.389,95.666,75.212,95.349,75.997z"/>
	</g>
</g>
<g>
	<g>
		<g>
			<path style="fill:#214CD4;" d="M122.148,23.239l-18.19-7.038c0,0-60.142,2.691-72.988,9.568c-1.869,1-0.445,8.017,1.957,8.948
				c16.116,6.25,51.247,16.618,51.247,16.618L122.148,23.239z"/>
			<g>
				<path d="M122.066,23.253l-2.258-0.722l-2.295-0.824c-1.524-0.564-3.073-1.065-4.578-1.682c-1.517-0.583-2.992-1.276-4.499-1.885
					c-1.497-0.633-2.995-1.269-4.534-1.794l0.062,0.01c-11.468,0.593-22.927,1.427-34.352,2.572
					c-5.711,0.578-11.415,1.236-17.091,2.064c-5.667,0.843-11.352,1.759-16.833,3.353c-1.363,0.411-2.713,0.872-3.981,1.475
					c-0.296,0.147-0.697,0.324-0.775,0.469c-0.163,0.204-0.274,0.503-0.34,0.819c-0.132,0.638-0.114,1.339-0.042,2.023
					c0.165,1.369,0.56,2.751,1.239,3.924c0.343,0.571,0.779,1.114,1.316,1.31l2.01,0.761c5.373,2.001,10.815,3.832,16.268,5.625
					c10.917,3.555,21.881,6.98,32.872,10.308l-0.254,0.045l19.043-13.971L122.066,23.253z M122.221,23.232l-18.944,14.212
					l-18.93,14.125l-0.115,0.086l-0.14-0.041c-11.029-3.226-22.024-6.56-32.948-10.132c-5.461-1.788-10.912-3.612-16.307-5.613
					l-2.017-0.77c-0.828-0.328-1.315-1.011-1.704-1.648c-0.753-1.321-1.152-2.763-1.328-4.239c-0.074-0.74-0.099-1.494,0.061-2.266
					c0.085-0.382,0.214-0.781,0.5-1.141c0.381-0.424,0.704-0.479,1.033-0.665c1.33-0.626,2.708-1.088,4.095-1.502
					c5.564-1.594,11.26-2.49,16.949-3.311c5.697-0.786,11.413-1.4,17.135-1.934c11.445-1.047,22.911-1.811,34.389-2.347l0.035-0.002
					l0.027,0.012c1.492,0.647,3.027,1.185,4.561,1.725c1.525,0.564,3.082,1.043,4.596,1.634c1.527,0.557,3.01,1.228,4.518,1.837
					l2.252,0.936L122.221,23.232z"/>
			</g>
		</g>
		<g>
			<path style="fill:#1B75BB;" d="M84.297,51.315l37.95-27.894l-18.289-7.22c0,0-37.015,0.003-33.945,10.741"/>
			<path d="M84.275,51.285c3.098-2.412,6.217-4.796,9.354-7.155l9.446-7.03c3.165-2.321,6.356-4.605,9.559-6.875
				c3.203-2.269,6.384-4.568,9.543-6.899l0.027,0.208c-6.098-2.403-12.23-4.718-18.345-7.079l0.1,0.019
				c-3.202,0.085-6.411,0.258-9.605,0.513c-3.193,0.279-6.385,0.593-9.544,1.107c-3.148,0.536-6.313,1.113-9.291,2.251
				c-1.474,0.575-2.933,1.278-4.087,2.348c-0.569,0.534-1.063,1.165-1.317,1.907c-0.263,0.739-0.262,1.561-0.063,2.333l-0.072,0.021
				c-0.248-0.769-0.305-1.621-0.074-2.42c0.225-0.798,0.699-1.515,1.281-2.094c1.179-1.163,2.656-1.929,4.144-2.566
				c3.008-1.234,6.174-1.999,9.357-2.531c3.187-0.529,6.395-0.898,9.611-1.105c3.217-0.22,6.435-0.341,9.662-0.307l0.054,0.001
				l0.046,0.019c6.078,2.453,12.138,4.951,18.233,7.362l0.202,0.08l-0.175,0.128c-3.167,2.319-6.311,4.668-9.433,7.048
				c-3.123,2.379-6.255,4.743-9.416,7.071l-9.529,6.917c-3.188,2.29-6.395,4.554-9.622,6.791L84.275,51.285z"/>
		</g>
		<path style="fill:#FFFBCE;" d="M34.273,33.502c1.748,1.043,4.594,2.083,6.28,2.61c5.723,1.789,11.891,3.342,23.081,6.894
			c8.227,2.611,16.03,5.71,18.674,5.784c0.749,0.02,4.5-5.512,4.5-5.512l-4.273-4.606c0,0-14.832-4.325-25.078-7.835
			c-4.513-1.545-19.705-5.593-23.539-4.753c-3.834,0.841-1.623,3.763-1.623,3.763S31.746,31.993,34.273,33.502z"/>
		<g>
			<path style="fill:#EAE9DC;" d="M116.437,14.492L89.756,25.464l-6.951,12.965c0,0-1.578,5.186-0.116,7.114
				c0.866,1.142-0.381,3.246-0.381,3.246l35.676-24.935c0,0-0.898-4.759-1.754-5.55C114.402,16.619,116.437,14.492,116.437,14.492z"
				/>
			<path d="M116.446,14.515c-4.426,1.88-8.851,3.76-13.295,5.596l-13.317,5.543l0.103-0.093c-1.123,2.18-2.324,4.318-3.496,6.472
				l-3.534,6.451l0.009-0.021c-0.254,0.85-0.453,1.723-0.594,2.602c-0.132,0.878-0.234,1.772-0.142,2.654
				c0.045,0.439,0.127,0.878,0.302,1.276c0.082,0.206,0.196,0.375,0.33,0.562c0.138,0.197,0.219,0.429,0.258,0.66
				c0.124,0.946-0.229,1.835-0.647,2.64l-0.19-0.176c11.817-8.418,23.671-16.784,35.65-24.971l-0.073,0.178
				c-0.153-0.827-0.33-1.654-0.531-2.471c-0.207-0.814-0.424-1.635-0.753-2.395c-0.084-0.187-0.178-0.373-0.294-0.525
				c-0.115-0.139-0.292-0.294-0.421-0.477c-0.27-0.353-0.423-0.798-0.429-1.239c-0.001-0.895,0.469-1.685,1.038-2.305
				L116.446,14.515z M116.455,14.509c-0.53,0.637-0.941,1.443-0.894,2.263c0.025,0.406,0.188,0.788,0.437,1.104
				c0.119,0.162,0.271,0.28,0.43,0.462c0.143,0.182,0.243,0.377,0.337,0.573c0.357,0.788,0.588,1.608,0.813,2.428
				c0.218,0.822,0.41,1.648,0.58,2.482c0.014,0.069-0.019,0.14-0.073,0.179C106.28,32.436,94.35,40.692,82.384,48.898
				c-0.061,0.042-0.144,0.026-0.185-0.034c-0.03-0.043-0.029-0.099-0.005-0.142c0.416-0.749,0.773-1.621,0.676-2.474
				c-0.031-0.21-0.097-0.413-0.212-0.586c-0.124-0.179-0.259-0.385-0.339-0.598c-0.179-0.426-0.256-0.88-0.296-1.331
				c-0.128-1.811,0.206-3.601,0.671-5.338c0.001-0.006,0.006-0.016,0.009-0.021l3.417-6.514c1.146-2.168,2.262-4.351,3.456-6.493
				c0.022-0.042,0.062-0.075,0.103-0.093l13.363-5.43c4.45-1.821,8.918-3.598,13.386-5.376c0.013-0.005,0.027,0.001,0.032,0.014
				C116.463,14.491,116.46,14.502,116.455,14.509z"/>
		</g>
		<path style="fill:#F5E4C8;" d="M77.782,42.234c0.249-0.212-17.282-5.754-24.679-7.667c-7.605-1.893-11.274-3.893-17.292-3.904
			c4.417,1.333,9.546,2.397,16.883,4.524C59.791,37.316,77.537,42.464,77.782,42.234z"/>
		<path style="fill:#F5E4C8;" d="M68.552,40.893c0.141-0.23-12.932-4.74-19.014-6.174c-6.236-1.401-8.835-2.667-13.617-2.946
			c4.228,0.899,7.925,2.021,14.012,3.677C55.836,37.121,68.417,41.141,68.552,40.893z"/>
		<path style="fill:#F5E4C8;" d="M78.227,40.504c0.249-0.211-17.282-5.754-24.679-7.667c-7.606-1.893-9.856-3.128-17.989-4.121
			c5.335,1.713,10.242,2.614,17.58,4.742C60.234,35.585,77.98,40.733,78.227,40.504z"/>
		<path style="fill:#F5E4C8;" d="M41.37,34.301c8.787,1.83,11.612,3.057,19.475,5.751c7.636,2.678,16.94,5.285,19.391,5.892
			c0.342-0.214-11.131-3.864-18.982-6.362C53.176,37.07,50.214,36.003,41.37,34.301z"/>
		<g>
			<path style="fill:#26A9E0;" d="M70.762,6.956c0,0,4.583-2.806,8.275-2.559c3.691,0.248,7.31,1.039,12.053,2.502
				c4.743,1.463,7.473,1.961,14.978,3.651c7.441,1.676,14.582,4.976,14.582,4.976s-12.784,6.771-16.554,9.739
				c-3.77,2.966-12.341,8.716-15.288,11.254c-1.407,1.211-6.209,3.669-6.209,3.669s-30.92-10.003-38.515-11.605
				c-6.768-1.426-12.987-2.851-12.987-2.851l39.848-18.82"/>
			<path d="M70.742,6.924c1.862-1.108,3.863-2.02,6.004-2.483c1.063-0.247,2.202-0.248,3.271-0.139
				c1.086,0.091,2.164,0.236,3.236,0.418c2.144,0.369,4.255,0.895,6.342,1.49c2.087,0.612,4.143,1.243,6.246,1.745
				c4.199,1.031,8.455,1.79,12.677,2.866c4.205,1.133,8.289,2.632,12.267,4.406c0.165,0.073,0.239,0.267,0.166,0.431
				c-0.031,0.069-0.083,0.123-0.145,0.155l-0.005,0.002c-3.337,1.776-6.665,3.579-9.959,5.434c-1.644,0.933-3.273,1.894-4.857,2.918
				c-0.798,0.512-1.55,1.051-2.301,1.638c-0.759,0.572-1.525,1.127-2.296,1.679l-4.64,3.276l-4.586,3.345
				c-0.758,0.565-1.511,1.137-2.25,1.724c-0.37,0.295-0.727,0.593-1.089,0.904c-0.379,0.311-0.774,0.575-1.175,0.836
				c-1.608,1.023-3.266,1.939-4.942,2.834c-0.057,0.031-0.122,0.035-0.179,0.017l-0.007-0.002c-8.506-2.685-17.029-5.32-25.57-7.884
				c-4.273-1.252-8.555-2.559-12.869-3.545c-4.365-0.923-8.723-1.886-13.075-2.879c-0.208-0.048-0.339-0.255-0.292-0.464
				c0.027-0.12,0.11-0.215,0.212-0.265c6.638-3.145,13.304-6.229,19.973-9.307l10-4.626l10.025-4.57c0.019-0.009,0.041,0,0.05,0.019
				c0.008,0.019,0,0.04-0.018,0.049l-9.899,4.84l-9.925,4.784c-6.614,3.195-13.23,6.384-19.875,9.513l-0.079-0.728
				c4.348,0.986,8.704,1.938,13.068,2.857c4.38,1.026,8.632,2.35,12.912,3.628c8.543,2.589,17.032,5.336,25.511,8.117l-0.186,0.015
				c1.682-0.852,3.362-1.73,4.961-2.719c0.397-0.25,0.793-0.507,1.15-0.791c0.36-0.3,0.734-0.605,1.107-0.895
				c0.751-0.582,1.513-1.146,2.279-1.702l4.631-3.29l4.592-3.338c0.76-0.562,1.517-1.13,2.261-1.709
				c0.731-0.592,1.51-1.168,2.298-1.69c1.579-1.058,3.202-2.037,4.827-3.014c3.252-1.949,6.558-3.798,9.901-5.587l0.016,0.589
				c-3.934-1.744-8.011-3.224-12.161-4.371c-4.167-1.077-8.434-1.91-12.636-2.983c-2.105-0.525-4.185-1.188-6.246-1.817
				c-2.07-0.615-4.161-1.16-6.281-1.549c-1.06-0.194-2.129-0.343-3.199-0.453c-1.081-0.139-2.13-0.167-3.192,0.043
				c-2.11,0.393-4.133,1.245-6.014,2.294c-0.017,0.011-0.041,0.005-0.052-0.012C70.719,6.959,70.726,6.935,70.742,6.924z"/>
		</g>
		<path style="fill:#C5C3C2;" d="M98.562,31.799c-7.006,4.433-12.661,8.365-12.553,8.621c-0.02-0.066,5.622-3.787,12.632-8.222
			c7.003-4.463,12.684-8.042,12.672-8.133C111.294,23.929,105.57,27.334,98.562,31.799z"/>
		<path style="fill:#C5C3C2;" d="M88.102,43.8c0.017,0.038,5.809-3.888,12.971-8.729c7.156-4.842,12.933-8.904,12.885-9.051
			c-0.02-0.056-5.827,3.823-12.988,8.67C93.812,39.527,88.045,43.639,88.102,43.8z"/>
		<path style="fill:#C5C3C2;" d="M87.256,42.159c0.017,0.041,6.122-4.109,13.668-9.226c7.542-5.12,13.63-9.413,13.579-9.57
			c-0.02-0.059-6.14,4.042-13.686,9.165C93.274,37.643,87.196,41.99,87.256,42.159z"/>
		<path style="fill:#C5C3C2;" d="M84.838,39.798c0.018,0.042,6.253-3.812,13.8-8.93c7.541-5.119,15.756-10.452,15.707-10.608
			c-0.021-0.059-8.399,4.785-15.945,9.909C90.857,35.282,84.778,39.629,84.838,39.798z"/>
		<path style="fill:#C5C3C2;" d="M94.938,38.082c-0.016-0.066-2.269,1.347-5.035,3.153c-2.766,1.807-4.997,3.323-4.981,3.389
			c0.014,0.065,2.269-1.347,5.034-3.152C92.722,39.664,94.952,38.148,94.938,38.082z"/>
		<path style="fill:#C5C3C2;" d="M107.109,29.8c2.767-1.807,4.997-3.324,4.982-3.39c-0.015-0.065-2.269,1.348-5.035,3.155
			c-2.765,1.805-4.995,3.323-4.982,3.389C102.089,33.017,104.343,31.606,107.109,29.8z"/>
		<g>
			<path d="M33.518,26.823c-0.443-0.099-0.95-0.005-1.173,0.358c-0.254,0.373-0.281,0.986-0.219,1.559
				c0.068,0.596,0.139,1.22,0.24,1.825c0.108,0.605,0.205,1.221,0.447,1.792c-0.34-0.525-0.546-1.125-0.76-1.711
				c-0.202-0.595-0.399-1.181-0.548-1.804c-0.117-0.631-0.224-1.339,0.136-2.069c0.182-0.357,0.529-0.658,0.906-0.8
				c0.386-0.142,0.745-0.182,1.161-0.131c0.275,0.033,0.471,0.283,0.438,0.558s-0.283,0.471-0.558,0.438
				c-0.016-0.002-0.032-0.005-0.048-0.008L33.518,26.823z"/>
		</g>
	</g>
	<g>
		<path style="fill:#231F20;" d="M50.667,23.823c2.366,0.384,4.688,0.966,6.999,1.587c2.307,0.626,4.589,1.372,6.839,2.154
			c2.251,0.784,4.506,1.561,6.738,2.408c2.238,0.829,4.47,1.675,6.675,2.607c-2.328-0.559-4.623-1.218-6.911-1.902
			c-2.293-0.667-4.56-1.415-6.823-2.174L50.667,23.823z"/>
	</g>
	<g>
		<path style="fill:#231F20;" d="M53.167,21.634c2.366,0.384,4.688,0.966,6.999,1.587c2.307,0.626,4.589,1.372,6.839,2.154
			c2.251,0.784,4.506,1.561,6.738,2.408c2.238,0.829,4.47,1.675,6.675,2.607c-2.328-0.559-4.623-1.217-6.911-1.902
			c-2.293-0.668-4.56-1.415-6.823-2.174L53.167,21.634z"/>
	</g>
	<path style="opacity:0.21;fill:#FFFFFF;" d="M104.167,11.565c-0.75,0.438-23.25-6.13-26.25-5.473c-3,0.657-17.5,7.662-18.5,8.1
		c-1,0.438,25-2.408,22.75,12.259c-2.25,14.667,0.25,10.946,0.25,10.946s26.584-18.754,31-22.768
		C114.514,13.632,104.167,11.565,104.167,11.565z"/>
</g>
</svg>
