<?xml version="1.0" encoding="iso-8859-1"?>
<!-- Generator: Adobe Illustrator 21.1.0, SVG Export Plug-In . SVG Version: 6.00 Build 0)  -->
<svg version="1.1" id="cupboard" xmlns="http://www.w3.org/2000/svg" xmlns:xlink="http://www.w3.org/1999/xlink" x="0px" y="0px"
	 width="236.413px" height="349.606px" viewBox="0 0 236.413 349.606" style="enable-background:new 0 0 236.413 349.606;"
	 xml:space="preserve">
<g>
	<g>
		<path style="fill-rule:evenodd;clip-rule:evenodd;fill:#AF7415;" d="M154.395,6.857l0.455,0.035h0.176l8.742,0.456l7.76,1.264
			l7.512,1.722l8.461,2.141l8.531,1.826l9.094,1.299l7.584,0.421l2.07-5.056l0.771-0.525h0.037l0.139-0.106l0.809-0.632l1.791-0.142
			l8.531,1.721l1.123,1.264l0.246,0.633l0.352,1.58v0.631l-0.141,0.562l-2.984,7.479l-3.898,13.48l-1.613,6.881l-2.072,9.305
			l-3.055,16.991l-7.162,36.864l-2.598,15.201l-1.721,12.674l-1.824,17.344l-1.16,18.502l0.738,66.143l1.158,13.027l1.65,13.095
			l1.861,11.901l4.246,22.961l-0.279,0.422l-5.584,3.125l-8.424-0.703l-0.422-0.596l-0.281-0.246l-0.244-1.23l-0.352-2.176
			l-1.686-8.25l-1.967-11.059l-1.895-12.604l-1.51-12.921l-1.125-13.375l-0.352-7.653l-0.42-6.355l-0.422-13.763l-0.105-11.445
			l0.07-10.183l-0.035-0.069l-39.18,17.519l0.105,132.217l-0.738,0.773l-4.424,2.984l-6.424-0.912l-0.668-0.176l-0.771-0.879
			l-3.125-133.551l-31.527-2.703h-0.035l-0.246,35.283v23.172l-0.141,9.443l-0.387,12.078l-0.068,0.246l-1.09,0.701l-0.105,0.072
			l-0.455,0.314l-0.105,0.07l-0.105,0.07l-0.352,0.244l-0.105,0.072l-0.105,0.068l-0.104,0.07l-0.248,0.176l-0.105,0.07l-0.104,0.07
			l-0.105,0.07l-0.248,0.176l-0.104,0.07l-0.105,0.07l-0.105,0.07l-0.139,0.105l-0.107,0.07l-0.209,0.141l-0.105,0.07l-0.105-0.035
			v0.105l-0.738,0.49l-8.18-1.334l-0.211-0.246l-0.176-0.316l-0.07-0.104l-0.068-2.178l0.174-14.359l0.07-44.377l-0.105-21.977
			l-52.766-4.564l0.104,123.441l-0.176,0.104l-0.736,0.633l-4.775,2.527h-0.035l-0.141,0.106h-0.07l-6.389-0.914l-0.598-0.912
			l-0.141-3.053l-3.018-139.555v-0.247l0.666-0.913l1.088-0.351l9.129,0.702l2.07,0.141h0.105l79.17,6.214l0.455,0.035l0.492,0.035
			l0.457,0.035l20.75,1.579l0.279,0.035l1.51,0.105l10.217,0.808l1.861,0.104l2.105-0.035l0.457-0.034l1.264-0.21l1.158-0.422
			l7.549-3.123l26.543-11.236l10.951-4.811l0.982-0.422l0.914-0.49l0.666-0.702l0.281-1.931l-0.139-1.686l-0.178-0.808l-0.279-0.491
			l-0.105-0.246l-0.352-0.246l-0.352-0.456l-1.859-1.228l-1.617-0.809l-4.773-2l-0.281-0.106l0.422-6.53l1.686-17.343l0.736-5.231
			l0.281-2.773l0.844-6.18l0.771-4.283l1.439-9.234l1.299-6.529l-0.07-0.139l-8.25-0.422l-8.004-0.668l-19.766-2.281l-5.795-0.527
			l-6.318-0.351l-6.145-0.071h-1.299l-1.299,0.035l-1.334,0.036l-1.123,0.035h-0.141l-10.674,0.596l-7.793,0.247h-0.982
			l-0.668,0.034h-3.756l-0.703,0.036l-11.795-0.142l0.068,9.69l-0.176,23.593l0.107,16.29l0.141,4.564l-5.092,0.176l-0.668,0.035
			h-0.07l-4.389,0.175l-3.896,0.386l-0.35,0.035v-1.018l-0.035-0.422l-0.211-19.309l0.105-38.83l-0.072-10.006l-0.244-8.848
			l-0.527-10.217l-1.158-14.007l-0.352-6.601l-0.631-8.496l-0.105-6.424l-0.246-4.529l0.279-4.565l0.316-3.124l-0.068-0.949
			l0.246-0.35l0.945-1.053l8.287-1.475l1.299-0.316l0.633,0.42l1.229,1.194l0.771,1.616l0.211,0.842v2.002h0.104l9.061-0.422
			l9.865-1.299l9.197-1.896l15.517-3.756l7.514-1.299L154.395,6.857L154.395,6.857L154.395,6.857z M151.235,39.508l-7.479,0.142
			l-0.211,0.034h-0.281l-0.49,0.035l-5.406,0.385h-0.035l-14.852,1.617l-9.094,0.771h-0.209l-0.246,0.035h-0.352l-0.211,0.035
			l-0.562,0.035l-0.631,0.035l-0.631,0.035l-0.6,0.035l-0.631,0.035l-0.631,0.035l-0.598,0.033l-0.631,0.038l-0.598,0.034
			l-0.631,0.035l-0.633,0.033l-0.631,0.037l-0.635,0.036l-0.666,0.034l-8.777,0.105l0.352,6.318l1.23,15.765L97.31,79.25h9.197
			l8.602-0.525l7.619-0.912l11.445-1.826l6.039-0.633l7.195-0.104l0.354,0.034l0.631,0.035l0.492,0.035l0.49,0.035l0.492,0.035
			l0.525,0.035l2.002,0.14l0.527,0.036l0.49,0.035h0.035l1.967,0.141l6.109,0.912l13.445,2.774l5.723,1.017l8.564,1.124h0.037
			l0.527,0.036l0.561,0.034l0.598,0.036l0.562,0.033l0.596,0.036l0.562,0.036l0.631,0.033l0.562,0.037l0.598,0.035l1.156,0.07
			l0.598,0.033l0.562,0.036h0.07l3.16-13.868l4.07-20.467l0.809-3.336l-7.863-0.281l-9.234-0.808l-7.408-0.913l-14.184-1.967
			l-6.881-0.631L151.235,39.508L151.235,39.508z"/>
	</g>
	<g>
		<path style="fill:#1D1E1C;" d="M154.396,6.707l0.466,0.033l-0.012-0.001c1.503,0.05,2.978,0.13,4.469,0.194l4.46,0.203l0.011,0
			l0.013,0.002l5.213,0.813l2.623,0.413l2.575,0.572l5.156,1.151l5.122,1.267c3.404,0.905,6.841,1.523,10.29,2.269l1.291,0.27
			l1.278,0.178l2.613,0.36l5.227,0.719l-0.038-0.003l7.586,0.382l-0.482,0.305l2.044-5.066l0.058-0.143l0.131-0.09l0.769-0.529
			l0.131-0.09l0.164-0.001h0.037l-0.317,0.106l0.938-0.737l0.123-0.098l0.161-0.014l1.791-0.15l0.072-0.006l0.077,0.015l8.54,1.678
			l0.189,0.037l0.132,0.148l1.129,1.258l0.069,0.077l0.04,0.102l0.249,0.631l0.016,0.04l0.011,0.047l0.359,1.578l0.014,0.062
			l0,0.069l0.003,0.631l0.001,0.072l-0.018,0.076l-0.138,0.563l-0.009,0.037l-0.016,0.042l-2.946,7.493l0.021-0.06l-2.553,8.997
			l-1.279,4.498l-1.044,4.521c-0.719,3.036-1.348,6.072-2.028,9.122l-0.501,2.284c-0.142,0.702-0.273,1.517-0.41,2.27l-0.812,4.605
			l-1.625,9.21l-1.741,9.201L210.58,96.69l-1.753,9.187c-0.564,3.022-1.044,6.135-1.57,9.198l-0.773,4.612l-0.386,2.306
			c-0.114,0.702-0.208,1.526-0.313,2.283l-1.228,9.272c-0.71,6.13-1.286,12.385-1.936,18.572l-1.135,18.624l0.002-0.084
			l0.826,66.142l-0.004-0.095l0.693,7.678l0.346,3.839c0.062,0.619,0.105,1.327,0.184,1.872l0.243,1.912l0.974,7.647
			c0.169,1.257,0.31,2.589,0.503,3.784l0.601,3.808l1.201,7.579l1.412,7.579l2.824,15.157l0.096,0.517l-0.292,0.442l-0.279,0.422
			l-0.173,0.263l-0.278,0.156l-5.58,3.132l-0.35,0.196l-0.402-0.033l-8.425-0.692l-0.613-0.05l-0.359-0.505l-0.422-0.595
			l0.209,0.232l-0.281-0.246l-0.339-0.296l-0.089-0.445l-0.171-0.856l-0.092-0.475l-0.07-0.431l-0.272-1.668l-0.703-3.419
			l-0.704-3.419c-0.116-0.586-0.236-1.104-0.35-1.745l-0.308-1.718l-1.222-6.874l-0.304-1.719c-0.12-0.643-0.181-1.169-0.275-1.76
			l-0.515-3.453l-1.03-6.906c-0.341-2.391-0.556-4.646-0.839-6.975l-0.807-6.979l-0.578-6.958c-0.185-2.342-0.403-4.588-0.56-7.009
			l-0.313-6.975l-0.223-3.458c-0.068-1.182-0.166-2.276-0.212-3.53l-0.206-6.979l-0.192-7.006l-0.057-6.982l-0.028-3.491
			l0.023-3.511l0.056-6.982l0.135,0.573l-0.035-0.069l1.623,0.575l-39.227,17.414l0.671-1.036l-0.348,132.217l-0.001,0.275
			l-0.188,0.195l-0.741,0.771l-0.053,0.054l-0.059,0.039l-4.434,2.969l-0.212,0.142l-0.249-0.036l-6.42-0.935l-0.039-0.005
			l-0.034-0.009l-0.667-0.178l-0.189-0.051l-0.125-0.144l-0.769-0.881l-0.151-0.173l-0.005-0.227l-2.964-133.555l0.428,0.455
			l-31.53-2.67l0.043,0.001h-0.035l0.5-0.497l-0.119,19.996c-0.025,6.663-0.112,13.334-0.086,19.992l-0.001,20.005
			c-0.057,3.336-0.045,6.655-0.157,10.006l-0.292,9.994l-0.002,0.073l-0.02,0.073l-0.067,0.246l-0.062,0.227l-0.2,0.129
			l-0.961,0.622l-0.926,0.633l-0.951,0.658l-0.455,0.316l-0.252,0.171c-0.024,0.017-0.112,0.074-0.085,0.058l-0.113,0.087
			l-0.014,0.011l-0.023,0.016l-0.416,0.279l-0.256,0.172l-0.296-0.098l-0.105-0.035l0.836-0.603v0.105l0.001,0.339l-0.285,0.191
			l-0.737,0.492l-0.206,0.138l-0.249-0.04l-8.184-1.311l-0.237-0.038l-0.159-0.185l-0.211-0.245l-0.042-0.049l-0.034-0.061
			l-0.177-0.315l0.031,0.05l-0.07-0.103l-0.109-0.161l-0.005-0.192c-0.021-0.876-0.077-1.696-0.071-2.618l0.024-2.59l0.048-5.18
			c0.035-3.461,0.071-6.899,0.052-10.354l-0.025-20.723l-0.032-20.718l-0.154-20.723l0.814,0.884l-52.777-4.425l1.12-1.028
			l0.426,123.441l0.002,0.771l-0.669,0.396l-0.176,0.104l0.195-0.14l-0.735,0.633l-0.114,0.098l-0.136,0.072l-4.772,2.533
			l-0.297,0.158l-0.339,0h-0.035l0.816-0.272l-0.14,0.105l-0.361,0.271l-0.456,0.001h-0.07h-0.095l-0.098-0.014l-6.39-0.906
			l-0.611-0.087l-0.34-0.519l-0.599-0.911l-0.205-0.312l-0.018-0.376l-0.105-2.23l-0.026-0.558l-0.02-0.591l-0.025-1.116
			l-0.102-4.464l-0.204-8.928l-0.408-17.856l-0.815-35.713l-1.627-71.46l-0.011-0.487l0.308-0.423l0.665-0.914l0.295-0.405
			l0.48-0.155l1.087-0.352l0.288-0.093l0.305,0.023l5.652,0.428l2.826,0.214l2.708,0.183l0.446,0.03l-0.324-0.025l57.594,4.501
			l28.793,2.255l28.769,2.201l-0.113-0.002l1.282-0.021l0.641-0.01l0.16-0.002l0.02-0.001h0.001h0.001
			c-0.04,0.001,0.09-0.004-0.089,0.004h0.002l0.005-0.001l0.01-0.001l0.04-0.003l0.08-0.006l0.32-0.023l-0.138,0.017l1.263-0.21
			l-0.276,0.073l0.753-0.274l0.376-0.137l0.309-0.127l1.48-0.612l2.961-1.223l5.899-2.468l11.802-4.989l11.782-4.984l11.749-5.145
			l-0.119,0.057l0.914-0.49l-0.386,0.294l0.667-0.701l-0.403,0.83l0.282-1.93l-0.011,0.345l-0.138-1.686l0.03,0.203l-0.177-0.808
			l0.163,0.425l-0.279-0.491l-0.043-0.075l-0.033-0.078l-0.105-0.246l0.527,0.648l-0.352-0.246l-0.191-0.134l-0.142-0.184
			l-0.351-0.456l0.367,0.341l-1.858-1.229l0.158,0.091l-1.536-0.772l-1.68-0.705l-1.679-0.705c-0.539-0.222-1.165-0.499-1.634-0.675
			l-1.056-0.396l0.079-1.122c0.171-2.458,0.288-4.829,0.505-7.36l0.712-7.294l0.712-7.294l0.178-1.823l0.257-1.879l0.503-3.571
			l0.186-1.823l0.1-0.963l0.125-0.908l0.497-3.63l0.125-0.908l0.062-0.454l0.031-0.227l0.049-0.289l0.327-1.803l0.329-1.802
			l0.082-0.451l0.066-0.417l0.143-0.905l1.145-7.239l0.072-0.452l0.047-0.287l0.045-0.225l0.181-0.898l0.361-1.796l0.723-3.592
			l0.13,0.944l-0.07-0.139l1.226,0.796c-7.949-0.345-16.125-1.011-24.015-2.035l-11.927-1.402l-5.897-0.554l-5.995-0.346
			l-5.944-0.094l-1.485-0.008l-1.465,0.031l-2.962,0.084c-4.012,0.197-7.962,0.468-12.025,0.604l-6.002,0.177l-5.979,0.048
			l-12.088-0.155l1.264-1.258l0.033,6.768l0.01,3.401l-0.033,3.384l-0.13,13.535l-0.057,6.751l0.03,6.768l0.03,6.768l0.008,1.692
			l0.011,0.818l0.024,0.845l0.097,3.382l0.032,1.128l-1.124,0.038l-7.236,0.246l-1.81,0.065l-0.905,0.033l-0.226,0.008l-0.028,0.001
			h-0.007c0.128-0.009,0.034-0.002,0.061-0.004l-0.004,0.001l-0.014,0.001l-0.057,0.005l-0.113,0.011l-0.451,0.043l-3.605,0.345
			l-1.198,0.114l0.004-1.194l0.003-1.018l0.004,0.09l-0.034-0.422l-0.003-0.043v-0.035l-0.118-15.921
			c-0.059-5.335,0.041-10.622,0.054-15.935c0.041-10.61,0.188-21.237,0.144-31.834l-0.015-3.98l-0.085-3.962
			c-0.073-2.67-0.097-5.283-0.254-7.937l-0.391-7.927L81,53.729l-0.314-3.968l-0.152-2.005l-0.099-1.988l-0.198-3.975l-0.271-3.957
			l-0.277-3.971l-0.07-1.031l-0.011-0.995l-0.022-1.99c-0.024-1.316-0.01-2.678-0.065-3.955l-0.195-3.976l-0.002-0.038l0.002-0.032
			l0.255-3.849l0.032-0.481l0.018-0.264l0.025-0.24l0.102-0.958l0.204-1.918l-0.002,0.097l-0.063-0.949l-0.014-0.203l0.115-0.161
			l0.248-0.348l0.021-0.03l0.021-0.022l0.951-1.047l0.129-0.143l0.184-0.032l4.806-0.83l2.403-0.415
			c0.386-0.069,0.834-0.137,1.169-0.208l1.186-0.283l0.216-0.051l0.18,0.121l0.63,0.423l0.041,0.027l0.031,0.031l1.222,1.2
			l0.065,0.064l0.036,0.077l0.763,1.62l0.022,0.046l0.011,0.044l0.207,0.843l0.015,0.059v0.056l-0.01,2.002l-0.465-0.465
			l9.145-0.374l-0.035,0.003l9.871-1.248l-0.026,0.004l8.084-1.624c2.67-0.552,5.348-1.243,8.021-1.858l8.024-1.898
			c2.725-0.541,5.425-0.933,8.139-1.406l0.011-0.002l0.01-0.001L154.396,6.707z M154.395,7.008l-9.044,0.644l0.02-0.002
			c-2.695,0.498-5.436,0.927-8.094,1.483l-8.004,1.981c-2.676,0.644-5.316,1.356-8.023,1.945l-8.067,1.707l-0.011,0.003
			l-0.015,0.002l-9.858,1.35l-0.016,0.002l-0.02,0.001l-9.184,0.47l-0.462,0.023l-0.003-0.488l-0.01-2.002l0.014,0.115l-0.215-0.84
			l0.032,0.09l-0.78-1.612l0.1,0.14l-1.234-1.188l0.072,0.058l-0.635-0.417l0.396,0.069l-1.183,0.294
			c-0.459,0.101-0.816,0.154-1.229,0.233l-2.398,0.44l-4.797,0.879l0.313-0.174L81.12,13.27l0.041-0.051l-0.244,0.351l0.101-0.363
			l0.073,0.948l0.003,0.046l-0.005,0.052l-0.185,1.919l-0.092,0.96l-0.023,0.24l-0.012,0.217l-0.027,0.481l-0.216,3.851v-0.07
			l0.236,3.973c0.072,1.373,0.069,2.666,0.108,4.003l0.043,1.989l0.021,0.995l0.076,0.954l0.312,3.968l0.301,3.983l0.226,3.974
			l0.113,1.987l0.163,1.962l0.342,3.966l0.684,7.931l0.451,7.972c0.174,2.644,0.221,5.339,0.311,7.974l0.114,3.996l0.043,3.98
			c0.119,10.631,0.048,21.233,0.082,31.852c0.025,5.301-0.037,10.628,0.06,15.908l0.23,15.92l-0.004-0.078l0.037,0.422l0.003,0.041
			l0.001,0.049l0.003,1.018l-1.193-1.08l3.606-0.371l0.451-0.046l0.29-0.025l0.226-0.01l0.905-0.039l1.81-0.079l7.247-0.288
			l-1.092,1.165l-0.111-3.382l-0.028-0.846l-0.016-0.873l-0.015-1.692l-0.059-6.768l-0.06-6.768l0.028-6.784l0.072-13.535
			l0.018-3.384l-0.024-3.366l-0.062-6.768l-0.012-1.269l1.276,0.011l11.927,0.106l6.028-0.077l6.001-0.203
			c3.938-0.148,7.976-0.44,11.959-0.653l3.039-0.101l1.537-0.038l1.517,0.002c2.028,0.025,3.944,0.022,6.063,0.072l5.996,0.319
			l6.062,0.541l11.933,1.351c7.997,0.997,15.792,1.597,23.842,1.916l0.837,0.034l0.39,0.764l0.07,0.138l0.227,0.446l-0.098,0.498
			l-0.707,3.596l-0.354,1.798l-0.177,0.899l-0.044,0.225l-0.003,0.014c0.021-0.116,0.004-0.024,0.009-0.046l-0.004,0.028
			l-0.009,0.057l-0.018,0.113l-0.069,0.453l-1.113,7.244l-0.139,0.905l-0.076,0.487l-0.081,0.451l-0.321,1.804l-0.323,1.804
			l-0.02,0.113l-0.01,0.056l-0.005,0.028c0.019-0.121,0.004-0.025,0.008-0.049l-0.002,0.014l-0.031,0.227l-0.062,0.454l-0.124,0.907
			l-0.494,3.631l-0.124,0.908l-0.087,0.859l-0.184,1.823l-0.513,3.687l-0.241,1.751l-0.176,1.824l-0.706,7.295l-0.706,7.295
			c-0.199,2.336-0.325,4.848-0.491,7.263l-0.977-1.518c0.666,0.254,1.149,0.474,1.733,0.713l1.68,0.703l1.68,0.703l1.722,0.855
			l0.08,0.04l0.078,0.052l1.86,1.227l0.212,0.14l0.155,0.202l0.352,0.455l-0.333-0.318l0.352,0.246l0.355,0.249l0.172,0.399
			l0.105,0.246l-0.076-0.153l0.28,0.491l0.114,0.2l0.05,0.226l0.178,0.807l0.022,0.1l0.008,0.103l0.14,1.686l0.014,0.172
			l-0.025,0.172l-0.28,1.931l-0.069,0.479l-0.333,0.352l-0.666,0.702l-0.169,0.178l-0.217,0.117l-0.914,0.491l-0.052,0.028
			l-0.067,0.029l-11.722,5.146l-11.816,5.012l-11.798,5l-5.92,2.483l-2.96,1.226l-1.48,0.613l-0.433,0.176l-0.376,0.137L147.588,190
			l-0.134,0.049l-0.143,0.024l-1.263,0.21l-0.068,0.012l-0.07,0.005l-0.32,0.024l-0.249,0.015l-0.16,0.003l-0.641,0.011
			l-1.282,0.022l-0.068,0.002l-0.045-0.003l-28.833-2.178l-28.802-2.229l-57.591-4.539l0.122,0.005h-0.089l-0.194-0.009
			l-0.177-0.012l-0.354-0.024l-0.707-0.049l-1.427-0.105l-2.826-0.221l-5.651-0.441l0.593-0.07l-1.088,0.349l0.774-0.56
			l-0.667,0.912l0.296-0.91l1.452,71.397l0.729,35.715l0.365,17.857l0.182,8.929l0.091,4.464l0.023,1.116l0.017,0.524l0.025,0.558
			l0.1,2.23l-0.223-0.688l0.596,0.913l-0.951-0.605l6.388,0.922l-0.193-0.014h0.07l-0.816,0.272l0.141-0.105l0.364-0.272
			l0.452,0.001h0.035l-0.637,0.158l4.778-2.521l-0.249,0.169l0.737-0.632l0.093-0.079l0.103-0.061l0.176-0.103l-0.667,1.167
			l0.219-123.441l0.002-1.128l1.118,0.1l52.753,4.704l0.813,0.073l0.002,0.812l0.044,20.723l-0.081,20.728l-0.091,20.723
			c-0.001,3.453-0.056,6.922-0.11,10.369l-0.077,5.18l-0.039,2.59c-0.012,0.805,0.039,1.71,0.056,2.56l-0.114-0.352l0.07,0.104
			l0.018,0.026l0.013,0.025l0.175,0.316l-0.076-0.109l0.21,0.247l-0.396-0.222l8.176,1.356l-0.455,0.099l0.739-0.488l-0.284,0.529
			v-0.105l0.003-0.883l0.834,0.28l0.105,0.035l-0.553,0.074l0.427-0.283l-0.036,0.025l0.114-0.086l0.15-0.103l0.223-0.149
			l0.486-0.333l0.935-0.639l0.967-0.652l0.964-0.617l-0.262,0.356l0.069-0.246l-0.022,0.146l0.348-9.992
			c0.13-3.311,0.138-6.659,0.212-9.986l0.045-19.988c-0.012-6.673,0.088-13.332,0.127-19.999l0.16-19.996l0.004-0.497l0.496,0.001
			h0.035h0.022l0.021,0.001l31.524,2.736l0.417,0.036l0.011,0.419l3.286,133.547l-0.156-0.4l0.774,0.876l-0.314-0.195l0.669,0.173
			l-0.072-0.014l6.427,0.89l-0.461,0.106l4.414-3l-0.111,0.094l0.735-0.776l-0.188,0.47l-0.559-132.216l-0.003-0.732l0.674-0.304
			l39.133-17.623l1.083-0.488l0.54,1.063l0.035,0.069l0.137,0.268l-0.002,0.305l-0.04,6.982l-0.016,3.471l0.036,3.491l0.072,6.982
			l0.206,6.952l0.222,6.979c0.039,1.072,0.145,2.297,0.214,3.439l0.233,3.509l0.328,6.974c0.149,2.224,0.382,4.612,0.569,6.909
			l0.592,6.957l0.813,6.892c0.284,2.29,0.52,4.67,0.843,6.887l1.045,6.903l0.523,3.452c0.089,0.559,0.169,1.188,0.267,1.689
			l0.307,1.719l1.224,6.874l0.303,1.719c0.086,0.506,0.223,1.123,0.332,1.679l0.694,3.421l0.694,3.421l0.288,1.777l0.069,0.431
			l0.074,0.382l0.168,0.856l-0.428-0.741l0.281,0.246l0.12,0.105l0.089,0.127l0.421,0.596l-0.972-0.555l8.423,0.714l-0.752,0.163
			l5.588-3.118l-0.451,0.419l0.28-0.421l-0.195,0.958l-2.784-15.165l-1.392-7.582l-1.193-7.652l-0.59-3.809
			c-0.211-1.343-0.333-2.569-0.503-3.859l-0.954-7.65l-0.238-1.913c-0.096-0.728-0.124-1.304-0.189-1.964l-0.336-3.84l-0.673-7.68
			l-0.004-0.049l-0.001-0.046l-0.651-66.144l-0.001-0.044l0.002-0.04l1.22-18.711c0.693-6.211,1.298-12.372,2.063-18.622
			l1.289-9.264c0.115-0.786,0.198-1.512,0.338-2.348l0.401-2.304l0.803-4.607c0.549-3.078,1.038-6.126,1.638-9.229l1.813-9.175
			l3.627-18.35l1.795-9.167l1.685-9.2l0.842-4.6c0.147-0.78,0.265-1.504,0.437-2.329l0.516-2.281
			c0.697-3.031,1.353-6.097,2.091-9.124l1.091-4.585l1.319-4.487l2.644-8.971l0.01-0.034l0.011-0.026l3.022-7.463l-0.025,0.078
			l0.143-0.562l-0.018,0.147l0.003-0.631l0.015,0.131l-0.344-1.581l0.026,0.086l-0.243-0.634l0.109,0.179l-1.117-1.269l0.321,0.184
			l-8.522-1.764l0.149,0.009l-1.792,0.133l0.285-0.111l-0.956,0.736l-0.141,0.108l-0.177-0.001h-0.037l0.295-0.091l-0.774,0.521
			l0.188-0.233l-2.096,5.045l-0.136,0.326l-0.347-0.021l-7.581-0.459l-0.022-0.001l-0.018-0.002l-5.219-0.773l-2.609-0.387
			l-1.332-0.201l-1.288-0.282c-3.419-0.775-6.904-1.441-10.292-2.379l-5.108-1.321l-5.126-1.217l-2.567-0.606l-2.583-0.441
			l-5.202-0.883l0.023,0.003L159.3,7.299c-1.482-0.083-2.979-0.185-4.45-0.253l-0.015-0.001h0.003L154.395,7.008z"/>
		<path style="fill:#1D1E1C;" d="M151.234,39.658c-2.489,0.173-4.979,0.323-7.468,0.45l0.064-0.006l-0.209,0.042l-0.021,0.004
			l-0.054,0.002l-0.281,0.01l0.034-0.001l-5.882,0.63l-0.049,0.002l-0.035,0.001l0.074-0.004c-3.975,0.545-7.949,1.101-11.929,1.604
			l-3.009,0.385l-2.992,0.313l-5.988,0.59l-0.035,0.003l-0.066,0.001l-0.209,0.003l0.169-0.012l-0.246,0.039l-0.069,0.011
			l-0.101,0.001l-0.352,0.005l0.198-0.017l-0.21,0.038l-0.049,0.009l-0.074,0.005l-4.367,0.307l-4.428,0.276l-8.748,0.158
			l1.328-1.421l0.245,4.515c0.043,0.739,0.071,1.535,0.127,2.227l0.167,2.255c0.185,3.009,0.414,6.015,0.564,9.026l0.238,4.536
			l0.165,4.52l0.323,9.04l-0.749-0.706l5.394,0.132l2.697,0.047c0.434,0.001,0.933,0.027,1.314,0.006l1.347-0.062
			c1.796-0.077,3.592-0.169,5.387-0.276l1.346-0.075c0.395-0.013,0.879-0.092,1.314-0.135l2.679-0.307
			c3.58-0.39,7.088-0.989,10.647-1.606c1.788-0.292,3.51-0.63,5.352-0.884l5.354-0.668l0.017-0.002l0.044-0.001l7.193-0.247
			l0.039-0.001l0.053,0.005c0.42,0.04,0.999,0.037,1.483,0.07l1.502,0.071l3.009,0.142l-0.069-0.002l0.035-0.001h0.013l0.056,0.002
			l1.97,0.096l0.016,0.001l0.061,0.007l4.262,0.538l1.064,0.138l0.532,0.071l0.266,0.036l0.326,0.062l2.109,0.402l8.438,1.61
			l2.109,0.402l0.527,0.101l0.493,0.081l1.059,0.179l4.173,0.703l8.525,1.045l-0.191-0.012l7.621,0.392l-1.497,1.194l2.08-9.404
			l1.05-4.654l0.935-4.724l1.938-9.434l0.972-4.716l0.243-1.179l0.079-0.355l0.074-0.292l0.151-0.583l0.603-2.331l1.359,1.792
			l-6.735-0.344l-0.842-0.043l-0.21-0.011l-0.278-0.022l-0.42-0.044l-1.677-0.172l-3.354-0.345l-3.355-0.345
			c-1.199-0.144-2.251-0.306-3.383-0.458c-2.212-0.308-4.47-0.645-6.684-1.018l-6.656-1.093l-3.328-0.546l-1.664-0.273l-1.642-0.21
			l-3.347-0.422l-1.674-0.211c-0.51-0.071-1.107-0.091-1.657-0.138L151.234,39.658z M151.235,39.358l6.754,0.004
			c0.572,0.011,1.101-0.013,1.71,0.026l1.684,0.097l3.368,0.193c0.575,0.038,1.092,0.051,1.714,0.112l1.676,0.19l3.351,0.38
			l6.703,0.76c2.235,0.273,4.444,0.457,6.692,0.703l3.312,0.347l3.363,0.243l3.364,0.242l1.682,0.122l0.42,0.03l0.105,0.007
			l0.026,0.002c0.065,0.004-0.075-0.004-0.056-0.003l0.013,0l0.053,0.001l0.211,0.004l0.843,0.018l6.743,0.138l1.757,0.036
			l-0.397,1.757l-0.532,2.349l-0.249,1.114l-0.227,1.183l-0.906,4.729l-1.818,9.458l-0.944,4.722l-1.078,4.739l-2.199,9.377
			l-0.299,1.277l-1.198-0.082l-7.621-0.522l-0.2-0.014l0.009,0.001l-8.506-1.19l-4.285-0.795l-1.056-0.197l-0.563-0.109
			l-0.524-0.116l-2.097-0.466l-8.386-1.861l-2.096-0.465l-0.131-0.029l-0.065-0.015l-0.033-0.007l-0.017-0.003l-0.008-0.002
			c-0.059-0.011,0.07,0.012,0.054,0.009l-0.265-0.043l-0.53-0.087l-1.059-0.179l-4.233-0.73l0.077,0.008l-1.963-0.185l0.069,0.002
			l-0.035-0.001l-0.056-0.001l-0.013-0.001l-2.996-0.278l-1.5-0.139c-0.516-0.059-0.942-0.067-1.519-0.142l0.091,0.003l-7.197-0.038
			l0.061-0.003l-5.376,0.457c-1.729,0.168-3.543,0.5-5.311,0.743l-5.333,0.81l-1.332,0.207l-1.357,0.163l-2.679,0.311l-2.676,0.334
			c-0.459,0.049-0.864,0.125-1.367,0.153l-1.345,0.089c-1.794,0.113-3.588,0.24-5.381,0.382l-1.345,0.103
			c-0.516,0.038-0.917,0.022-1.381,0.036l-2.697,0.047l-5.394,0.132l-0.688,0.017l-0.061-0.722l-0.762-9.014l-0.378-4.507
			l-0.449-4.481c-0.319-2.999-0.559-6.003-0.843-9.005l-0.186-2.253c-0.068-0.81-0.095-1.52-0.144-2.286l-0.258-4.514l-0.081-1.413
			l1.409-0.008l8.75-0.052l8.676-0.402l-0.123,0.014l0.211-0.032l0.114-0.018l0.084,0.001l0.352,0.005l-0.169,0.012l0.247-0.032
			l0.1-0.013l0.069,0.001l0.209,0.003l-0.101,0.004l6.001-0.427l3.002-0.195l2.973-0.262c3.995-0.365,7.995-0.678,11.995-1.001
			l0.058-0.004l0.017,0l0.035,0.001l-0.049,0.002l5.911-0.209l0.034-0.001l0,0l0.281,0.01l-0.074,0.006l0.212-0.027l0.048-0.006
			h0.017c2.495,0.033,4.989,0.087,7.484,0.167H151.235z"/>
	</g>
</g>
<g>
	<polygon style="fill:#1D1D1B;" points="98.181,204.861 82.789,203.436 84.373,201.996 98.536,203.566 	"/>
</g>
<path style="fill-rule:evenodd;clip-rule:evenodd;fill:#965E0E;" d="M92,286.001c0,0,1.504-30.154-0.666-47.668
	c-1.143-9.223-6.667-8.55-6.667-12c0-10,0.667-22.667,0.667-22.667l12.847,1.195l-0.768,79.105L92,286.001z"/>
<path style="fill-rule:evenodd;clip-rule:evenodd;fill:#965E0E;" d="M30,197.334h-3c0,0-0.667,78.667-0.333,91
	c0.333,12.333-0.333,34.667-0.333,34.667l3.334-2.666L30,197.334z"/>
<path style="fill-rule:evenodd;clip-rule:evenodd;fill:#965E0E;" d="M15.5,176.5l1,8c0,0,105.5,8,117.5,11s16,2,26.5-3
	s35.321-25.163,35.321-25.163L32,165.5L15.5,176.5z"/>
<path style="fill-rule:evenodd;clip-rule:evenodd;fill:#965E0E;" d="M140,207l0.737,135.211l4.424-2.984
	c0,0-0.661-70.227-0.161-94.727s0.794-38.264,0.794-38.264L185.5,186.5c0,0-0.412,22.33-0.456,23.915
	C185,212,194.5,229.5,194.5,229.5s0.5,28,3.5,43s6.142,28.846,6.142,28.846l5.863-3.547c0,0-12.505-74.299-9.505-94.799
	c2.101-14.355-1.5-72,10-117.5c8.3-32.838,17.727-72.322,17.727-72.322s-0.511-2.115-1.369-1.897C226,11.5,209,60,204.5,95
	s-9.345,73.039-9.345,73.039S165.5,175.5,163.5,175.5S142,185,142,185L140,207z"/>
<g>
	<g>
		<path style="fill:#1D1E1C;" d="M154.396,6.757l0.462,0.034h-0.008c1.497,0.054,2.976,0.139,4.465,0.207l4.46,0.216l0.007,0.001
			l0.008,0.001l5.211,0.829l2.615,0.42l2.573,0.58l5.15,1.167l5.119,1.275c3.401,0.91,6.848,1.534,10.291,2.284l1.291,0.271
			l1.289,0.182l2.612,0.363l5.226,0.727l-0.024-0.002l7.585,0.394l-0.31,0.195l2.052-5.063l0.038-0.092l0.084-0.058l0.769-0.528
			l0.085-0.059l0.106,0h0.037l-0.206,0.069l0.941-0.738l0.081-0.064l0.104-0.008l1.79-0.148l0.048-0.004l0.049,0.01l8.538,1.689
			l0.124,0.024l0.086,0.097l1.128,1.259l0.045,0.051l0.026,0.066l0.248,0.632l0.011,0.026l0.007,0.03l0.357,1.579l0.009,0.042v0.045
			l0.002,0.631v0.048l-0.012,0.049l-0.138,0.563l-0.006,0.025l-0.01,0.027l-2.957,7.489l0.014-0.04l-2.565,8.994l-1.285,4.496
			l-1.052,4.531c-0.722,3.034-1.355,6.075-2.038,9.122l-0.503,2.284c-0.147,0.722-0.275,1.522-0.414,2.279l-0.818,4.604
			l-1.635,9.208l-1.749,9.195l-3.528,18.369l-1.764,9.185c-0.57,3.036-1.051,6.138-1.581,9.203l-0.778,4.611l-0.389,2.306
			c-0.119,0.724-0.21,1.532-0.317,2.293l-1.238,9.27c-0.72,6.15-1.3,12.39-1.957,18.581l-1.149,18.639l0.001-0.056l0.797,66.142
			l-0.003-0.063l0.689,7.678l0.345,3.839c0.063,0.626,0.103,1.312,0.184,1.888l0.243,1.912l0.971,7.647
			c0.17,1.262,0.307,2.577,0.503,3.796l0.599,3.808l1.2,7.591l1.409,7.579l2.817,15.159l0.064,0.345l-0.194,0.294l-0.279,0.422
			l-0.116,0.175l-0.185,0.104l-5.581,3.13l-0.233,0.131l-0.268-0.022l-8.424-0.695l-0.41-0.034l-0.239-0.337l-0.422-0.595
			l0.14,0.154l-0.282-0.246l-0.241-0.21l-0.044-0.283c-0.72-4.6-1.866-9.094-2.662-13.725l-1.222-6.874l-0.304-1.719
			c-0.116-0.619-0.181-1.163-0.273-1.749l-0.516-3.453l-1.033-6.905c-0.337-2.361-0.556-4.638-0.84-6.96l-0.808-6.964l-0.58-6.958
			c-0.185-2.334-0.406-4.604-0.561-6.992l-0.315-6.975c-0.138-2.302-0.317-4.604-0.436-6.981l-0.209-6.98l-0.195-6.997l-0.059-6.982
			c-0.076-4.651,0.031-9.335,0.045-13.978l0.09,0.382l-0.035-0.069l1.082,0.383l-39.211,17.449l0.447-0.69l-0.197,132.217
			l-0.001,0.183l-0.125,0.131l-0.74,0.771l-0.034,0.036l-0.04,0.026l-4.43,2.974l-0.141,0.095l-0.166-0.024l-6.422-0.927
			l-0.025-0.003l-0.023-0.006l-0.667-0.177l-0.126-0.033l-0.085-0.097l-0.769-0.88l-0.101-0.115l-0.003-0.152l-3.027-133.553
			l0.294,0.312l-31.531-2.664l0.031,0.001h-0.035l0.36-0.358l-0.115,19.996c-0.024,6.664-0.109,13.333-0.082,19.993l0.002,20.003
			c-0.062,3.335-0.055,6.658-0.172,10.004l-0.308,9.993l-0.001,0.055l-0.015,0.054l-0.068,0.246l-0.046,0.168l-0.147,0.095
			l-0.962,0.62l-0.933,0.635l-0.949,0.655l-0.46,0.318l-0.248,0.168c-0.028,0.02-0.104,0.068-0.094,0.064l-0.114,0.087l-0.011,0.008
			l-0.016,0.011l-0.418,0.279l-0.189,0.126l-0.217-0.072l-0.105-0.035l0.613-0.442v0.105v0.249l-0.208,0.139l-0.738,0.491
			l-0.152,0.102l-0.182-0.029l-8.181-1.324l-0.171-0.027l-0.114-0.133l-0.211-0.246l-0.031-0.036l-0.024-0.043l-0.176-0.316
			l0.022,0.036l-0.07-0.103l-0.08-0.117l-0.003-0.137c-0.134-6.944,0.142-13.831,0.087-20.736l0.007-20.724l-0.004-20.72
			l-0.136-20.723l0.543,0.589l-52.773-4.472l0.747-0.685l0.318,123.441l0.002,0.515l-0.446,0.263l-0.175,0.104l0.13-0.093
			l-0.736,0.633l-0.076,0.066l-0.09,0.048l-4.773,2.531l-0.198,0.105h-0.226h-0.035l0.544-0.181l-0.141,0.105L25.5,325.88h-0.303
			h-0.07l-0.064,0.001l-0.064-0.009l-6.389-0.909l-0.408-0.058l-0.227-0.346l-0.598-0.911l-0.137-0.208l-0.012-0.25l-0.104-2.23
			l-0.026-0.558l-0.02-0.58l-0.025-1.116l-0.101-4.464l-0.2-8.928l-0.4-17.857l-0.801-35.713l-1.597-71.45l-0.007-0.325l0.205-0.281
			l0.665-0.914l0.197-0.271l0.32-0.103l1.087-0.352l-0.392,0.231l13.259-12.533l0.36-0.34l0.491,0.065l7.5,0.999l-0.55,0.076
			l15-6.501l0.194-0.084l0.212-0.001l67-0.506l0.529-0.004l0.316,0.422l4.493,6.005l-0.187-0.191l9.493,7.509l-0.961-0.169
			c4.354-1.484,8.792-2.841,13.167-4.224l13.174-4.145l26.348-8.289l-0.704,0.898c0.171-2.451,0.288-4.845,0.503-7.344l0.711-7.294
			l0.712-7.295l0.178-1.824l0.254-1.858l0.505-3.59l0.186-1.822l0.099-0.946l0.126-0.907l0.502-3.63
			c0.09-0.623,0.153-1.17,0.266-1.855l0.328-1.803l0.328-1.803l0.082-0.451l0.068-0.43l0.143-0.905l1.142-7.239
			c0.44-2.484,0.951-4.815,1.422-7.23l0.084,0.614l-0.07-0.139l0.798,0.519c-7.966-0.343-16.075-1.001-23.983-2.023l-11.928-1.398
			l-5.926-0.554l-5.995-0.343l-5.966-0.092l-1.491-0.008l-1.478,0.031l-2.977,0.086c-4.006,0.198-7.973,0.472-12.013,0.608
			l-6.002,0.18l-5.988,0.051l-12.058-0.151l0.786-0.782c0.008,4.502,0.088,9.037,0.016,13.546l-0.126,13.535l-0.055,6.757
			l0.033,6.768c0.033,4.526-0.004,9.004,0.175,13.517l0.026,0.676l-0.683,0.024l-7.238,0.254c-1.189,0.062-2.455,0.057-3.579,0.173
			l-3.605,0.351l-0.721,0.07l0.001-0.721l0.002-1.018l0.002,0.054l-0.034-0.422l-0.002-0.025l0-0.022l-0.145-15.921
			c-0.069-5.323,0.022-10.619,0.025-15.93c0.023-10.611,0.151-21.234,0.088-31.837l-0.021-3.98l-0.093-3.968
			c-0.077-2.664-0.107-5.292-0.267-7.944l-0.406-7.935l-0.642-7.935c-0.193-2.634-0.479-5.303-0.579-7.953l-0.205-3.976
			l-0.277-3.961l-0.282-3.97l-0.07-1.018l-0.013-0.995l-0.026-1.99c-0.026-1.32-0.014-2.67-0.073-3.964l-0.203-3.976l-0.001-0.024
			l0.001-0.022l0.249-3.849c0.03-0.639,0.107-1.31,0.173-1.935l0.201-1.918l-0.001,0.063l-0.065-0.949l-0.009-0.132l0.075-0.107
			l0.247-0.349l0.014-0.019l0.014-0.016l0.949-1.049l0.084-0.093l0.121-0.021l4.805-0.838l2.402-0.419
			c0.39-0.071,0.822-0.137,1.179-0.213l1.186-0.284l0.141-0.034l0.119,0.08l0.631,0.422l0.026,0.018l0.021,0.021l1.225,1.198
			l0.042,0.041l0.024,0.051l0.766,1.619l0.014,0.03l0.007,0.03l0.208,0.842l0.01,0.039l0,0.038l-0.006,2.002l-0.305-0.305
			l9.151-0.391l-0.023,0.002l9.869-1.266l-0.017,0.003l8.081-1.638c2.677-0.559,5.348-1.253,8.022-1.873l8.021-1.913
			c2.714-0.544,5.421-0.941,8.131-1.419l0.007-0.002h0.007L154.396,6.757z M154.395,6.957l-9.049,0.628l0.013-0.002
			c-2.698,0.495-5.432,0.917-8.102,1.47l-8.007,1.966c-2.676,0.639-5.323,1.348-8.023,1.93l-8.07,1.692l-0.008,0.002l-0.01,0.001
			l-9.86,1.332l-0.011,0.001l-0.013,0l-9.177,0.453l-0.304,0.015l-0.001-0.32l-0.006-2.002l0.009,0.076l-0.214-0.841l0.021,0.059
			l-0.777-1.614l0.066,0.092l-1.232-1.19l0.047,0.038l-0.634-0.418l0.259,0.045l-1.184,0.293c-0.438,0.096-0.81,0.151-1.218,0.229
			l-2.399,0.435L81.713,12.2l0.206-0.114l-0.942,1.056l0.027-0.034l-0.245,0.351l0.066-0.238l0.072,0.949l0.002,0.031l-0.003,0.034
			l-0.188,1.919c-0.063,0.653-0.131,1.26-0.158,1.906l-0.223,3.851l0-0.046l0.229,3.974c0.069,1.356,0.064,2.662,0.1,3.995
			l0.04,1.99l0.02,0.995l0.075,0.967l0.308,3.969l0.295,3.979l0.219,3.974c0.108,2.655,0.4,5.266,0.604,7.923l0.67,7.933
			l0.436,7.964c0.17,2.646,0.212,5.326,0.297,7.967l0.107,3.989l0.036,3.98c0.1,10.625,0.011,21.231,0.025,31.848
			c0.016,5.303-0.056,10.623,0.032,15.913l0.203,15.92l-0.002-0.046l0.036,0.421l0.002,0.026v0.028l0.002,1.018l-0.719-0.65
			l3.606-0.364c1.279-0.131,2.434-0.123,3.656-0.191l7.245-0.28l-0.656,0.7c-0.195-4.505-0.176-9.053-0.224-13.549l-0.057-6.768
			l0.03-6.777l0.077-13.535c0.057-4.514-0.04-9.002-0.064-13.523l-0.004-0.79l0.79,0.007l11.957,0.11l6.019-0.074l6.001-0.201
			c3.96-0.147,7.983-0.438,11.971-0.649l3.025-0.099l1.523-0.037l1.511,0.002l6.042,0.073l5.996,0.322l6.033,0.541l11.932,1.355
			c7.978,0.999,15.84,1.607,23.873,1.928l0.545,0.021l0.253,0.497l0.07,0.138l0.147,0.289l-0.062,0.326
			c-0.457,2.381-0.979,4.828-1.382,7.156l-1.116,7.244l-0.14,0.905l-0.074,0.476l-0.081,0.451l-0.321,1.804l-0.322,1.804
			c-0.085,0.52-0.164,1.187-0.246,1.773l-0.489,3.632l-0.123,0.908l-0.087,0.877l-0.183,1.823l-0.512,3.667l-0.243,1.772
			l-0.177,1.824l-0.707,7.295l-0.707,7.294c-0.202,2.369-0.326,4.857-0.493,7.279l-0.048,0.691l-0.656,0.207l-26.343,8.305
			l-13.171,4.152c-4.403,1.395-8.771,2.732-13.131,4.223l-0.521,0.178l-0.44-0.347l-9.507-7.491l-0.105-0.083l-0.082-0.109
			l-4.506-5.995l0.845,0.418l-67,0.494l0.406-0.085l-15,6.499l-0.265,0.115l-0.286-0.038l-7.5-1.001l0.85-0.274l-13.27,12.523
			l-0.17,0.161l-0.222,0.071l-1.088,0.35l0.516-0.373l-0.667,0.912l0.198-0.606l1.481,71.408l0.744,35.715l0.372,17.857l0.186,8.929
			l0.093,4.465l0.023,1.116l0.018,0.536l0.025,0.558l0.101,2.23l-0.148-0.458l0.597,0.912l-0.634-0.403l6.388,0.919l-0.128-0.009
			h0.07l-0.544,0.181l0.141-0.105l0.243-0.182l0.302,0h0.035l-0.424,0.105l4.777-2.523l-0.166,0.113l0.737-0.632l0.062-0.053
			l0.069-0.04l0.175-0.104l-0.444,0.778l0.111-123.441l0.001-0.751l0.746,0.066l52.757,4.657l0.542,0.048l0.001,0.541l0.063,20.724
			l-0.053,20.727l-0.059,20.723c0.038,6.909-0.254,13.839-0.138,20.705l-0.083-0.253l0.07,0.104l0.012,0.018l0.01,0.019l0.175,0.316
			l-0.055-0.079l0.21,0.246l-0.285-0.16l8.178,1.344l-0.333,0.072l0.739-0.489l-0.208,0.388v-0.105l0.001-0.647l0.612,0.205
			l0.105,0.036l-0.405,0.054l0.425-0.283l-0.026,0.019l0.114-0.086l0.142-0.098l0.227-0.152l0.482-0.332l0.936-0.643l0.961-0.65
			l0.963-0.618l-0.194,0.263l0.068-0.246l-0.016,0.108l0.332-9.993c0.125-3.315,0.128-6.66,0.197-9.988l0.047-19.99
			c-0.011-6.671,0.091-13.332,0.131-19.998l0.164-19.996l0.003-0.358l0.357,0.001h0.035h0.016l0.015,0.001l31.524,2.742l0.287,0.025
			l0.007,0.288l3.223,133.548l-0.104-0.267l0.773,0.877l-0.21-0.13l0.669,0.174l-0.048-0.01l6.426,0.897l-0.307,0.071l4.417-2.995
			l-0.074,0.062l0.736-0.775l-0.126,0.313l-0.408-132.216l-0.001-0.489l0.449-0.202l39.148-17.588l0.723-0.325l0.359,0.708
			l0.035,0.069l0.09,0.178v0.205c-0.008,4.667-0.108,9.293-0.026,13.951l0.069,6.982l0.204,6.961l0.219,6.979
			c0.117,2.271,0.302,4.611,0.445,6.955l0.325,6.975c0.151,2.256,0.381,4.621,0.567,6.926l0.59,6.958l0.812,6.906
			c0.284,2.296,0.517,4.656,0.842,6.901l1.042,6.904l0.521,3.452c0.09,0.564,0.167,1.176,0.268,1.701l0.307,1.718l1.223,6.875
			c0.772,4.546,1.919,9.093,2.631,13.694l-0.285-0.494l0.281,0.246l0.08,0.07l0.06,0.085l0.421,0.596l-0.648-0.37l8.423,0.711
			l-0.501,0.108l5.587-3.12l-0.301,0.279l0.279-0.421l-0.13,0.639l-2.79-15.164l-1.395-7.582l-1.195-7.64l-0.592-3.809
			c-0.208-1.318-0.333-2.561-0.503-3.846l-0.957-7.65l-0.239-1.912c-0.093-0.697-0.123-1.296-0.188-1.948l-0.338-3.84l-0.676-7.68
			l-0.003-0.032l0-0.031l-0.68-66.143l-0.001-0.029l0.002-0.027l1.206-18.697c0.686-6.207,1.286-12.383,2.042-18.614l1.278-9.265
			c0.113-0.782,0.199-1.523,0.335-2.337l0.399-2.304l0.798-4.607c0.545-3.076,1.032-6.135,1.626-9.225l1.804-9.177l3.607-18.354
			l1.787-9.172l1.675-9.201l0.837-4.601c0.145-0.775,0.265-1.515,0.432-2.319l0.514-2.281c0.694-3.034,1.345-6.095,2.08-9.124
			l1.084-4.574l1.313-4.488l2.631-8.975l0.007-0.022l0.007-0.018l3.011-7.467l-0.017,0.051l0.143-0.562l-0.012,0.097l0.002-0.631
			l0.009,0.086l-0.346-1.581l0.017,0.057l-0.244-0.633l0.072,0.117l-1.118-1.268l0.21,0.121l-8.525-1.752l0.097,0.006l-1.791,0.135
			l0.184-0.071l-0.954,0.736l-0.09,0.069h-0.115h-0.037l0.191-0.059l-0.773,0.523l0.122-0.15l-2.089,5.048l-0.086,0.209
			l-0.224-0.014l-7.582-0.448l-0.014-0.001l-0.012-0.001l-5.22-0.765l-2.61-0.383l-1.322-0.197l-1.289-0.281
			c-3.424-0.772-6.899-1.429-10.29-2.363l-5.11-1.312l-5.133-1.202l-2.569-0.599l-2.591-0.435l-5.204-0.867l0.014,0.001
			l-4.458-0.249c-1.484-0.079-2.977-0.175-4.453-0.24h-0.009h0.001L154.395,6.957z"/>
		<path style="fill:#1D1E1C;" d="M151.234,39.608c-2.49,0.131-4.981,0.247-7.472,0.347l0.043-0.004l-0.21,0.039l-0.018,0.003
			l-0.032,0.001l-0.281,0.007L143.287,40l-5.886,0.56l-0.005,0l-0.027,0.001l-0.035,0.001l0.05-0.003l-11.942,1.49l-3.002,0.371
			l-2.993,0.3l-5.991,0.551l-0.028,0.002h-0.038l-0.209,0.001l0.11-0.008l-0.246,0.037l-0.05,0.008h-0.061l-0.352,0.002l0.129-0.011
			l-0.21,0.037l-0.038,0.006l-0.043,0.003l-8.774,0.548l-8.748,0.16l0.884-0.946c0.18,3.026,0.269,6,0.523,9.008
			c0.209,3.007,0.462,6.011,0.636,9.021l0.273,4.527l0.2,4.518l0.396,9.036l-0.499-0.47l5.394,0.088l2.697,0.025
			c0.439-0.004,0.922,0.02,1.325-0.006l1.346-0.073l5.386-0.294l1.347-0.073c0.412-0.015,0.884-0.091,1.323-0.134l2.68-0.304
			c3.58-0.386,7.094-1.018,10.654-1.598c1.785-0.28,3.524-0.61,5.346-0.849l5.357-0.633l0.015-0.002l0.027,0l7.193-0.2l0.029-0.001
			l0.032,0.003c0.446,0.046,1,0.045,1.489,0.082l1.501,0.082l3.006,0.164l-0.046-0.001l0.035,0l0.013-0.001l0.033,0.002l1.969,0.111
			l0.016,0.001l0.036,0.005l4.257,0.57c0.727,0.103,1.379,0.173,2.166,0.314l2.107,0.413l8.429,1.652l2.107,0.413l0.527,0.103
			l0.505,0.086l1.058,0.182l4.191,0.719l8.522,1.069l-0.127-0.009l7.621,0.414l-0.998,0.796l2.108-9.397l1.068-4.666l0.95-4.721
			l1.899-9.441l0.95-4.721l0.237-1.18c0.097-0.475,0.194-0.802,0.294-1.21l0.591-2.334l0.906,1.195l-6.737-0.31l-0.842-0.039
			l-0.211-0.01l-0.256-0.02l-0.419-0.041l-1.678-0.164l-3.356-0.328l-3.356-0.328l-3.371-0.44c-2.219-0.298-4.468-0.609-6.685-0.965
			l-6.664-1.037l-3.332-0.519l-1.666-0.259l-1.653-0.195l-3.35-0.389c-1.13-0.136-2.214-0.268-3.341-0.316L151.234,39.608z
			 M151.239,39.408l6.745,0.101c1.122-0.006,2.276,0.077,3.383,0.156l3.365,0.227c0.57,0.042,1.101,0.064,1.702,0.126l1.674,0.204
			l3.348,0.408l6.695,0.815c2.231,0.29,4.448,0.5,6.691,0.756l3.323,0.366l3.362,0.259l3.362,0.259l1.681,0.13l0.42,0.033
			l0.165,0.01l0.21,0.005l0.843,0.021l6.742,0.172l1.176,0.03l-0.27,1.165l-0.543,2.346l-0.259,1.133l-0.232,1.181l-0.929,4.725
			l-1.858,9.45l-0.929,4.725l-1.06,4.727l-2.172,9.383l-0.196,0.849l-0.802-0.053l-7.621-0.5l-0.128-0.009h0.001l-8.51-1.166
			l-4.266-0.779l-1.056-0.194l-0.552-0.104l-0.525-0.114l-2.099-0.455l-8.395-1.82l-2.099-0.455
			c-0.619-0.128-1.39-0.227-2.076-0.349l-4.238-0.698l0.051,0.006l-1.965-0.17l0.046,0.001l-0.035-0.001l-0.032-0.001l-0.014-0.001
			l-2.997-0.255l-1.501-0.127c-0.511-0.054-0.962-0.061-1.513-0.13l0.06,0.003l-7.196,0.009l0.041-0.002l-5.372,0.492
			c-1.748,0.182-3.546,0.524-5.316,0.778c-3.543,0.543-7.116,1.148-10.694,1.498l-2.676,0.337c-0.455,0.05-0.872,0.128-1.358,0.154
			l-1.345,0.091l-5.382,0.364l-1.345,0.091c-0.495,0.034-0.912,0.014-1.371,0.024l-2.697,0.025L97.31,79.75l-0.463,0.008
			L96.81,79.28l-0.688-9.018l-0.342-4.509l-0.414-4.49c-0.295-3-0.512-6.007-0.771-9.011l-0.188-2.253
			c-0.068-0.79-0.098-1.515-0.148-2.275l-0.267-4.514l-0.056-0.94l0.94-0.006l8.749-0.051l8.696-0.436l-0.08,0.009l0.211-0.034
			l0.069-0.011l0.06,0l0.352,0.002l-0.111,0.008l0.246-0.034l0.06-0.008l0.051,0l0.209,0.001l-0.066,0.002l5.998-0.466l3.001-0.209
			l2.979-0.276l11.982-1.115l0.033-0.003h0.017l0.035,0.001l-0.032,0.001l5.906-0.279l0.019-0.001h0.004l0.281,0.007l-0.05,0.004
			l0.212-0.029l0.028-0.004h0.015c2.494,0.006,4.988,0.027,7.482,0.064H151.239z"/>
	</g>
</g>
<g>
	<polygon style="fill-rule:evenodd;clip-rule:evenodd;fill:#F9418D;" points="92.112,149.994 92.78,149.959 97.872,149.783 
		101.591,149.713 111.247,149.817 124.097,150.238 134.839,150.766 146.811,151.504 156.642,152.275 168.614,153.539 
		168.825,153.574 169.105,153.609 173.634,154.311 174.091,154.383 174.3,154.418 174.513,154.453 174.722,154.487 174.968,154.523 
		175.179,154.557 175.39,154.593 175.599,154.629 175.847,154.664 176.058,154.697 176.267,154.732 176.477,154.769 
		176.689,154.805 176.935,154.838 177.145,154.873 177.356,154.908 177.565,154.944 177.811,154.979 178.023,155.014 
		179.954,155.295 185.114,156.91 186.167,157.331 186.448,157.438 191.222,159.438 192.839,160.246 194.698,161.474 195.05,161.93 
		195.401,162.176 195.507,162.422 195.786,162.913 195.964,163.721 196.102,165.406 195.821,167.337 195.155,168.039 
		194.241,168.529 193.259,168.951 182.308,173.762 155.765,184.998 148.216,188.121 147.058,188.543 145.794,188.753 
		145.337,188.787 143.231,188.822 141.37,188.718 131.153,187.91 129.644,187.805 129.364,187.77 108.614,186.191 108.157,186.155 
		107.665,186.12 107.21,186.085 28.04,179.871 27.935,179.871 25.864,179.73 16.735,179.028 12.065,178.607 9.784,178.22 
		8.837,177.764 8.521,176.711 8.31,175.025 8.31,173.025 8.415,172.041 8.976,170.953 10.696,169.478 12.804,168.39 14.419,167.793 
		14.489,167.758 14.595,167.723 14.7,167.686 14.771,167.652 14.876,167.617 14.944,167.582 15.05,167.512 15.155,167.479 
		15.226,167.442 15.333,167.408 15.507,167.337 15.964,167.162 16.069,167.125 19.263,165.896 26.706,163.264 33.343,161.018 
		42.47,158.455 53.985,155.541 63.64,153.469 75.542,151.434 83.407,150.59 83.757,150.555 87.653,150.169 92.042,149.994 
		92.112,149.994 	"/>
	<g>
		<path style="fill:#1D1E1C;" d="M92.112,149.994c3.667-0.213,7.33-0.435,11.013-0.465l5.508-0.024
			c1.834-0.019,3.685,0.002,5.515,0.048l11.021,0.229l11.017,0.408l11.015,0.557c3.672,0.275,7.306,0.472,11.008,0.812l10.981,1.085
			c3.678,0.516,7.317,1.113,10.916,1.602c0.048,0.006,0.096,0.017,0.141,0.03l0.023,0.007l5.173,1.573l0.072,0.025l0.008,0.003
			c0.636,0.255,1.333,0.507,1.976,0.777l1.948,0.797l1.948,0.797l0.243,0.1l0.308,0.146l0.473,0.231l0.945,0.463
			c0.035,0.017,0.069,0.036,0.101,0.057l0.021,0.014l1.869,1.212c0.107,0.069,0.198,0.153,0.272,0.248l0.015,0.02l0.355,0.453
			l-0.261-0.249l0.354,0.243c0.184,0.126,0.321,0.297,0.405,0.488l0.01,0.023l0.107,0.245l-0.06-0.121l0.283,0.489
			c0.058,0.1,0.099,0.206,0.124,0.312l0.005,0.025l0.184,0.806c0.011,0.045,0.018,0.09,0.023,0.135l0.002,0.026l0.153,1.685
			c0.008,0.085,0.006,0.17-0.005,0.252l-0.004,0.026l-0.265,1.933c-0.036,0.258-0.149,0.485-0.314,0.662l-0.014,0.015l-0.66,0.708
			c-0.087,0.094-0.187,0.171-0.294,0.229l-0.022,0.013l-0.91,0.498l-0.074,0.037l-0.024,0.011l-11.71,5.177l-11.801,5.037
			l-11.787,5.027l-5.913,2.496l-2.957,1.232l-1.478,0.616l-0.426,0.175l-0.376,0.138l-0.751,0.276
			c-0.078,0.029-0.157,0.05-0.236,0.064l-0.015,0.002l-1.263,0.213c-0.039,0.007-0.078,0.012-0.116,0.015l-0.01,0.001l-0.32,0.024
			l-0.241,0.015l-0.16,0.003l-0.641,0.012l-1.282,0.025h-0.016l-0.087-0.002l-28.835-2.112l-28.796-2.31l-57.58-4.68l0.099,0.004
			l-0.211-0.004l-0.125-0.009l-0.25-0.018l-0.499-0.038l-0.999-0.076l-2.007-0.169l-3.992-0.341l-4.006-0.351l-3.987-0.393
			l-0.019-0.002l-0.07-0.009l-2.278-0.407l-0.018-0.003c-0.098-0.017-0.194-0.05-0.279-0.091l-0.943-0.464l-0.017-0.008
			c-0.284-0.14-0.48-0.39-0.563-0.671l-0.308-1.055l-0.005-0.018c-0.015-0.052-0.026-0.11-0.033-0.163l-0.197-1.687l-0.002-0.018
			c-0.004-0.038-0.006-0.08-0.006-0.117l0.017-2v-0.018c0.001-0.032,0.002-0.065,0.006-0.096l0.114-0.983l0.002-0.018
			c0.015-0.127,0.054-0.248,0.11-0.355l0.569-1.083l0.008-0.016c0.061-0.117,0.146-0.219,0.242-0.3l1.732-1.461l0.014-0.011
			c0.057-0.048,0.122-0.09,0.185-0.123l2.117-1.07l0.015-0.008c0.031-0.016,0.066-0.031,0.098-0.043l1.62-0.583l-0.1,0.044
			l0.07-0.035l0.009-0.004c0.038-0.018,0.083-0.036,0.122-0.05l0.195-0.065l-0.094,0.038l0.071-0.032l0.015-0.007
			c0.03-0.014,0.065-0.027,0.095-0.037l0.106-0.034l-0.14,0.059l0.068-0.035l-0.096,0.057l0.106-0.069l0.014-0.009
			c0.075-0.048,0.158-0.086,0.238-0.111l0.106-0.032l-0.155,0.063l0.07-0.036l0.015-0.007c0.043-0.021,0.092-0.041,0.137-0.055
			l0.107-0.034l-0.075,0.027c1.596-0.59,3.064-1.171,4.678-1.733l4.672-1.609c1.552-0.543,3.14-1.07,4.695-1.577
			c1.588-0.506,3.078-1.05,4.746-1.525c3.191-0.852,6.331-1.755,9.563-2.564l9.614-2.294c3.257-0.724,6.468-1.316,9.704-1.98
			c3.278-0.595,6.516-1.045,9.776-1.575l2.441-0.383l0.61-0.096l0.633-0.062l1.23-0.115l4.921-0.447l4.927-0.407
			C88.822,150.035,90.464,150.037,92.112,149.994z M92.112,149.994c-1.642,0.102-3.296,0.162-4.927,0.312l-4.905,0.586
			c-3.279,0.453-6.534,0.696-9.763,1.393c-3.228,0.615-6.505,1.164-9.692,1.833c-3.198,0.747-6.452,1.442-9.605,2.234l-9.547,2.556
			c-3.138,0.866-6.321,1.819-9.479,2.725c-1.493,0.45-3.094,1.057-4.636,1.578c-1.567,0.54-3.098,1.077-4.646,1.647l-4.645,1.687
			c-1.489,0.545-3.075,1.201-4.559,1.777l-0.016,0.006l-0.06,0.021l-0.107,0.035l0.152-0.062l-0.07,0.037
			c-0.044,0.023-0.089,0.042-0.135,0.057l-0.021,0.006l-0.105,0.034l0.252-0.121l-0.105,0.071c-0.026,0.018-0.054,0.034-0.081,0.049
			l-0.016,0.008l-0.068,0.036c-0.039,0.021-0.079,0.038-0.12,0.052l-0.021,0.007l-0.105,0.036l0.11-0.044l-0.07,0.034
			c-0.029,0.014-0.058,0.026-0.087,0.036l-0.008,0.003l-0.226,0.08l0.13-0.054l-0.07,0.036l-0.084,0.038l-0.016,0.006l-1.61,0.61
			l0.113-0.05l-2.098,1.105l0.198-0.133l-1.708,1.49l0.25-0.316l-0.552,1.093l0.112-0.373l-0.097,0.985l0.006-0.114l0.017,2
			l-0.008-0.135l0.225,1.684l-0.038-0.179l0.325,1.05l-0.58-0.679l0.951,0.448l-0.297-0.095l2.285,0.369l-0.088-0.011l3.993,0.326
			l3.981,0.282l3.997,0.274l3.901,0.246l0.099,0.004l57.605,4.361l28.8,2.173l28.767,2.267l-0.103-0.002l1.282-0.018l0.641-0.009
			l0.16-0.003l0.02,0h0.001h0.001c-0.037,0.002,0.081-0.004-0.081,0.004h0.003l0.005-0.001l0.01,0l0.04-0.003l0.08-0.006l0.32-0.023
			l-0.125,0.016l1.264-0.207l-0.25,0.066l0.753-0.272l0.377-0.136l0.314-0.129l1.482-0.608l2.963-1.217l5.906-2.454l11.813-4.963
			l11.797-4.959l11.76-5.114l-0.098,0.047l0.918-0.482l-0.316,0.242l0.672-0.697l-0.329,0.676l0.297-1.928l-0.009,0.277
			l-0.125-1.687l0.024,0.161l-0.171-0.809l0.129,0.337l-0.275-0.494l-0.01-0.017c-0.019-0.034-0.036-0.069-0.05-0.104l-0.104-0.247
			l0.415,0.51l-0.35-0.249l-0.016-0.011c-0.094-0.067-0.178-0.151-0.246-0.238l-0.348-0.459l0.287,0.267l-1.849-1.243l0.122,0.07
			l-0.937-0.479l-0.469-0.239l-0.117-0.06l-0.059-0.03l-0.015-0.008l-0.007-0.004l-0.003-0.001l-0.002-0.001
			c-0.063-0.029,0.085,0.039,0.068,0.031l-0.03-0.013l-0.242-0.104l-1.934-0.829l-1.934-0.83c-0.646-0.284-1.267-0.517-1.929-0.795
			l0.08,0.028l-5.146-1.658l0.163,0.037c-3.669-0.562-7.266-1.212-10.853-1.778l-10.923-1.262c-3.604-0.393-7.301-0.656-10.947-0.99
			l-10.973-0.809l-10.986-0.706l-10.995-0.526C106.795,149.986,99.453,149.743,92.112,149.994z"/>
	</g>
</g>
</svg>
