<?xml version="1.0" encoding="iso-8859-1"?>
<!-- Generator: Adobe Illustrator 21.1.0, SVG Export Plug-In . SVG Version: 6.00 Build 0)  -->
<svg version="1.1" id="cupboard" xmlns="http://www.w3.org/2000/svg" xmlns:xlink="http://www.w3.org/1999/xlink" x="0px" y="0px"
	 width="407.641px" height="367.875px" viewBox="0 0 407.641 367.875" style="enable-background:new 0 0 407.641 367.875;"
	 xml:space="preserve">
<polygon style="fill:#9B5E40;stroke:#231F20;stroke-width:0.75;stroke-linejoin:round;stroke-miterlimit:10;" points="
	345.5,355.999 347.5,360 359.5,360 359.5,7.875 347,7.875 345.5,7.875 "/>
<rect x="347.5" y="8" style="fill:#B1724F;stroke:#231F20;stroke-width:0.75;stroke-linejoin:round;stroke-miterlimit:10;" width="16" height="352"/>
<g>
	<ellipse style="fill:#936944;" cx="355.5" cy="24.188" rx="4.25" ry="4.188"/>
	<g>
		<circle style="fill:#BCBCBC;" cx="355.5" cy="23.25" r="4.25"/>
		<path style="fill:#231F20;" d="M351.275,23.25c0.001,1.114,0.519,2.189,1.33,2.895c0.804,0.712,1.834,1.126,2.895,1.148
			c1.053,0.039,2.164-0.324,2.944-1.099c0.797-0.753,1.218-1.869,1.169-2.944c-0.028-1.083-0.52-2.109-1.274-2.839
			c-0.757-0.735-1.794-1.142-2.839-1.153c-1.048-0.002-2.084,0.394-2.889,1.104C351.797,21.062,351.281,22.138,351.275,23.25z
			 M351.225,23.25c-0.017-1.118,0.385-2.253,1.154-3.122c0.764-0.874,1.939-1.395,3.121-1.386c1.185-0.022,2.359,0.488,3.172,1.336
			c0.828,0.839,1.254,2.026,1.215,3.171c-0.062,2.308-2.004,4.386-4.387,4.457c-1.168,0.033-2.351-0.47-3.116-1.341
			C351.613,25.503,351.213,24.365,351.225,23.25z"/>
	</g>
	<circle style="fill:#D8D8D8;" cx="355.542" cy="23.25" r="3.583"/>
	<g>
		<path d="M354.916,19.917c0.543,0.285,0.752,0.916,0.978,1.434c0.216,0.541,0.356,1.12,0.473,1.678
			c0.11,0.576,0.188,1.153,0.189,1.739c0.001,0.582-0.027,1.177-0.223,1.733c-0.018-0.58-0.087-1.142-0.169-1.703
			c-0.085-0.559-0.18-1.119-0.285-1.67c-0.104-0.569-0.221-1.11-0.342-1.667c-0.062-0.276-0.138-0.547-0.229-0.813
			C355.22,20.385,355.134,20.102,354.916,19.917z"/>
	</g>
	<path style="opacity:0.27;fill:#FFFFFF;" d="M358.229,24.212c0-2.016-1.634-3.648-3.648-3.648c-0.77,0-1.48,0.24-2.067,0.646
		c0.657-0.956,1.756-1.584,3.004-1.584c2.016,0,3.648,1.633,3.648,3.648c0,1.246-0.626,2.343-1.581,3.001
		C357.99,25.688,358.229,24.978,358.229,24.212z"/>
</g>
<g>
	<ellipse style="fill:#936944;" cx="355.5" cy="107.521" rx="4.25" ry="4.188"/>
	<g>
		<circle style="fill:#BCBCBC;" cx="355.5" cy="106.584" r="4.25"/>
		<path style="fill:#231F20;" d="M351.275,106.583c0.001,1.114,0.519,2.189,1.33,2.895c0.804,0.712,1.834,1.126,2.895,1.149
			c1.053,0.039,2.164-0.324,2.944-1.099c0.797-0.752,1.218-1.868,1.169-2.944c-0.028-1.084-0.52-2.109-1.274-2.839
			c-0.757-0.735-1.794-1.142-2.839-1.153c-1.048-0.002-2.084,0.394-2.889,1.103C351.797,104.396,351.281,105.471,351.275,106.583z
			 M351.225,106.584c-0.017-1.117,0.385-2.254,1.154-3.122c0.764-0.873,1.939-1.395,3.121-1.386
			c1.185-0.022,2.359,0.488,3.172,1.336c0.828,0.839,1.254,2.026,1.215,3.171c-0.062,2.307-2.004,4.386-4.387,4.457
			c-1.168,0.033-2.351-0.47-3.116-1.341C351.613,108.836,351.213,107.699,351.225,106.584z"/>
	</g>
	<circle style="fill:#D8D8D8;" cx="355.542" cy="106.584" r="3.583"/>
	<g>
		<path d="M354.916,103.25c0.543,0.285,0.752,0.915,0.978,1.434c0.216,0.541,0.356,1.12,0.473,1.678
			c0.11,0.576,0.188,1.153,0.189,1.739c0.001,0.582-0.027,1.177-0.223,1.733c-0.018-0.58-0.087-1.142-0.169-1.703
			c-0.085-0.559-0.18-1.118-0.285-1.67c-0.104-0.569-0.221-1.11-0.342-1.667c-0.062-0.276-0.138-0.547-0.229-0.813
			C355.22,103.719,355.134,103.436,354.916,103.25z"/>
	</g>
	<path style="opacity:0.27;fill:#FFFFFF;" d="M358.229,107.545c0-2.016-1.634-3.648-3.648-3.648c-0.77,0-1.48,0.24-2.067,0.646
		c0.657-0.956,1.756-1.584,3.004-1.584c2.016,0,3.648,1.633,3.648,3.648c0,1.246-0.626,2.343-1.581,3.001
		C357.99,109.022,358.229,108.312,358.229,107.545z"/>
</g>
<g>
	<ellipse style="fill:#936944;" cx="355.5" cy="233.521" rx="4.25" ry="4.188"/>
	<g>
		<circle style="fill:#BCBCBC;" cx="355.5" cy="232.584" r="4.25"/>
		<path style="fill:#231F20;" d="M351.275,232.583c0.001,1.114,0.519,2.189,1.33,2.895c0.804,0.712,1.834,1.126,2.895,1.148
			c1.053,0.039,2.164-0.324,2.944-1.099c0.797-0.752,1.218-1.868,1.169-2.944c-0.028-1.083-0.52-2.109-1.274-2.839
			c-0.757-0.735-1.794-1.142-2.839-1.153c-1.048-0.002-2.084,0.394-2.889,1.103C351.797,230.396,351.281,231.471,351.275,232.583z
			 M351.225,232.584c-0.017-1.117,0.385-2.253,1.154-3.122c0.764-0.874,1.939-1.395,3.121-1.386
			c1.185-0.022,2.359,0.488,3.172,1.336c0.828,0.839,1.254,2.026,1.215,3.171c-0.062,2.307-2.004,4.386-4.387,4.457
			c-1.168,0.033-2.351-0.47-3.116-1.341C351.613,234.836,351.213,233.699,351.225,232.584z"/>
	</g>
	<circle style="fill:#D8D8D8;" cx="355.542" cy="232.584" r="3.583"/>
	<g>
		<path d="M354.916,229.25c0.543,0.285,0.752,0.915,0.978,1.434c0.216,0.541,0.356,1.12,0.473,1.678
			c0.11,0.576,0.188,1.153,0.189,1.739c0.001,0.583-0.027,1.177-0.223,1.733c-0.018-0.58-0.087-1.142-0.169-1.703
			c-0.085-0.559-0.18-1.118-0.285-1.67c-0.104-0.569-0.221-1.11-0.342-1.667c-0.062-0.276-0.138-0.547-0.229-0.813
			C355.22,229.719,355.134,229.436,354.916,229.25z"/>
	</g>
	<path style="opacity:0.27;fill:#FFFFFF;" d="M358.229,233.545c0-2.016-1.634-3.648-3.648-3.648c-0.77,0-1.48,0.24-2.067,0.646
		c0.657-0.956,1.756-1.584,3.004-1.584c2.016,0,3.648,1.633,3.648,3.648c0,1.246-0.626,2.343-1.581,3.001
		C357.99,235.022,358.229,234.312,358.229,233.545z"/>
</g>
<g>
	<ellipse style="fill:#936944;" cx="355.5" cy="334.521" rx="4.25" ry="4.188"/>
	<g>
		<circle style="fill:#BCBCBC;" cx="355.5" cy="333.584" r="4.25"/>
		<path style="fill:#231F20;" d="M351.275,333.583c0.001,1.114,0.519,2.19,1.33,2.895c0.804,0.712,1.834,1.126,2.895,1.148
			c1.053,0.039,2.164-0.324,2.944-1.099c0.797-0.752,1.218-1.868,1.169-2.944c-0.028-1.083-0.52-2.109-1.274-2.839
			c-0.757-0.735-1.794-1.142-2.839-1.153c-1.048-0.002-2.084,0.394-2.889,1.103C351.797,331.396,351.281,332.471,351.275,333.583z
			 M351.225,333.584c-0.017-1.117,0.385-2.253,1.154-3.122c0.764-0.874,1.939-1.395,3.121-1.386
			c1.185-0.022,2.359,0.488,3.172,1.336c0.828,0.839,1.254,2.026,1.215,3.171c-0.062,2.307-2.004,4.386-4.387,4.457
			c-1.168,0.033-2.351-0.47-3.116-1.341C351.613,335.836,351.213,334.699,351.225,333.584z"/>
	</g>
	<circle style="fill:#D8D8D8;" cx="355.542" cy="333.584" r="3.583"/>
	<g>
		<path d="M354.916,330.25c0.543,0.285,0.752,0.915,0.978,1.434c0.216,0.541,0.356,1.12,0.473,1.678
			c0.11,0.576,0.188,1.153,0.189,1.739c0.001,0.582-0.027,1.177-0.223,1.733c-0.018-0.58-0.087-1.142-0.169-1.703
			c-0.085-0.559-0.18-1.118-0.285-1.67c-0.104-0.569-0.221-1.11-0.342-1.667c-0.062-0.276-0.138-0.547-0.229-0.813
			C355.22,330.719,355.134,330.436,354.916,330.25z"/>
	</g>
	<path style="opacity:0.27;fill:#FFFFFF;" d="M358.229,334.545c0-2.016-1.634-3.648-3.648-3.648c-0.77,0-1.48,0.24-2.067,0.646
		c0.657-0.956,1.756-1.584,3.004-1.584c2.016,0,3.648,1.633,3.648,3.648c0,1.246-0.626,2.343-1.581,3.001
		C357.99,336.022,358.229,335.312,358.229,334.545z"/>
</g>
<polygon style="fill:#9B5E40;stroke:#231F20;stroke-width:0.75;stroke-linejoin:round;stroke-miterlimit:10;" points="62,355.999 
	60,360 48,360 48,7.875 60.5,7.875 62,7.875 "/>
<rect x="44" y="8" style="fill:#B1724F;stroke:#231F20;stroke-width:0.75;stroke-linejoin:round;stroke-miterlimit:10;" width="16" height="352"/>
<polygon style="fill:#EDBF94;stroke:#000000;stroke-width:0.75;stroke-linecap:round;stroke-linejoin:round;stroke-miterlimit:10;" points="
	363.781,36.414 43.979,36.414 8.537,56.179 201.334,62.179 399.223,56.179 "/>
<polygon style="fill:#EDBF94;stroke:#000000;stroke-width:0.75;stroke-linecap:round;stroke-linejoin:round;stroke-miterlimit:10;" points="
	363.662,148.492 43.859,148.492 8.418,178.258 399.103,178.258 "/>
<polygon style="fill:#EDBF94;stroke:#000000;stroke-width:0.75;stroke-linecap:round;stroke-linejoin:round;stroke-miterlimit:10;" points="
	363.662,270.158 43.859,270.158 8.418,304.923 399.103,304.923 "/>
<rect x="8.547" y="56.167" style="fill:#B1724F;stroke:#231F20;stroke-width:0.75;stroke-linejoin:round;stroke-miterlimit:10;" width="390.666" height="7.667"/>
<rect x="8.547" y="178.167" style="fill:#B1724F;stroke:#231F20;stroke-width:0.75;stroke-linejoin:round;stroke-miterlimit:10;" width="390.666" height="7.667"/>
<rect x="8.547" y="304.667" style="fill:#B1724F;stroke:#231F20;stroke-width:0.75;stroke-linejoin:round;stroke-miterlimit:10;" width="390.666" height="7.667"/>
<g>
	<ellipse style="fill:#936944;" cx="52" cy="24.188" rx="4.25" ry="4.188"/>
	<g>
		<circle style="fill:#BCBCBC;" cx="52" cy="23.25" r="4.25"/>
		<path style="fill:#231F20;" d="M56.275,23.25c0.012,1.115-0.389,2.252-1.159,3.116c-0.766,0.871-1.948,1.374-3.116,1.341
			c-2.383-0.071-4.324-2.149-4.387-4.457c-0.039-1.146,0.387-2.332,1.215-3.171c0.812-0.848,1.987-1.358,3.172-1.336
			c1.182-0.009,2.357,0.513,3.121,1.386C55.891,20.997,56.292,22.133,56.275,23.25z M56.225,23.25
			c-0.006-1.112-0.522-2.188-1.336-2.888c-0.805-0.71-1.841-1.106-2.889-1.104c-1.045,0.012-2.082,0.419-2.839,1.153
			c-0.755,0.73-1.246,1.755-1.274,2.839c-0.049,1.076,0.372,2.192,1.169,2.944c0.78,0.774,1.892,1.138,2.944,1.099
			c1.061-0.022,2.091-0.436,2.895-1.148C55.706,25.438,56.224,24.364,56.225,23.25z"/>
	</g>
	<circle style="fill:#D8D8D8;" cx="51.958" cy="23.25" r="3.583"/>
	<g>
		<path d="M52.584,19.917c-0.218,0.186-0.304,0.468-0.393,0.731c-0.091,0.266-0.167,0.537-0.229,0.813
			c-0.121,0.557-0.238,1.098-0.342,1.667c-0.106,0.552-0.2,1.112-0.285,1.67c-0.082,0.561-0.15,1.123-0.169,1.703
			c-0.195-0.556-0.224-1.151-0.223-1.733c0.002-0.586,0.079-1.163,0.189-1.739c0.116-0.558,0.257-1.137,0.473-1.678
			C51.832,20.832,52.041,20.201,52.584,19.917z"/>
	</g>
	<path style="opacity:0.27;fill:#FFFFFF;" d="M49.271,24.212c0-2.016,1.634-3.648,3.648-3.648c0.77,0,1.48,0.24,2.067,0.646
		c-0.657-0.956-1.756-1.584-3.004-1.584c-2.016,0-3.648,1.633-3.648,3.648c0,1.246,0.626,2.343,1.581,3.001
		C49.51,25.688,49.271,24.978,49.271,24.212z"/>
</g>
<g>
	<ellipse style="fill:#936944;" cx="52" cy="107.521" rx="4.25" ry="4.188"/>
	<g>
		<circle style="fill:#BCBCBC;" cx="52" cy="106.584" r="4.25"/>
		<path style="fill:#231F20;" d="M56.275,106.584c0.012,1.115-0.389,2.252-1.159,3.116c-0.766,0.871-1.948,1.374-3.116,1.341
			c-2.383-0.071-4.324-2.15-4.387-4.457c-0.039-1.146,0.387-2.332,1.215-3.171c0.812-0.848,1.987-1.358,3.172-1.336
			c1.182-0.009,2.357,0.513,3.121,1.386C55.891,104.33,56.292,105.467,56.275,106.584z M56.225,106.583
			c-0.006-1.112-0.522-2.188-1.336-2.889c-0.805-0.709-1.841-1.105-2.889-1.103c-1.045,0.012-2.082,0.419-2.839,1.153
			c-0.755,0.73-1.246,1.755-1.274,2.839c-0.049,1.076,0.372,2.192,1.169,2.944c0.78,0.775,1.892,1.138,2.944,1.099
			c1.061-0.023,2.091-0.437,2.895-1.149C55.706,108.772,56.224,107.697,56.225,106.583z"/>
	</g>
	<circle style="fill:#D8D8D8;" cx="51.958" cy="106.584" r="3.583"/>
	<g>
		<path d="M52.584,103.25c-0.218,0.186-0.304,0.469-0.393,0.731c-0.091,0.266-0.167,0.537-0.229,0.813
			c-0.121,0.557-0.238,1.098-0.342,1.667c-0.106,0.552-0.2,1.111-0.285,1.67c-0.082,0.561-0.15,1.123-0.169,1.703
			c-0.195-0.556-0.224-1.151-0.223-1.733c0.002-0.586,0.079-1.164,0.189-1.739c0.116-0.558,0.257-1.137,0.473-1.678
			C51.832,104.165,52.041,103.535,52.584,103.25z"/>
	</g>
	<path style="opacity:0.27;fill:#FFFFFF;" d="M49.271,107.545c0-2.016,1.634-3.648,3.648-3.648c0.77,0,1.48,0.24,2.067,0.646
		c-0.657-0.956-1.756-1.584-3.004-1.584c-2.016,0-3.648,1.633-3.648,3.648c0,1.246,0.626,2.343,1.581,3.001
		C49.51,109.022,49.271,108.312,49.271,107.545z"/>
</g>
<g>
	<ellipse style="fill:#936944;" cx="52" cy="233.521" rx="4.25" ry="4.188"/>
	<g>
		<circle style="fill:#BCBCBC;" cx="52" cy="232.584" r="4.25"/>
		<path style="fill:#231F20;" d="M56.275,232.584c0.012,1.115-0.389,2.252-1.159,3.116c-0.766,0.871-1.948,1.374-3.116,1.341
			c-2.383-0.071-4.324-2.15-4.387-4.457c-0.039-1.146,0.387-2.332,1.215-3.171c0.812-0.848,1.987-1.358,3.172-1.336
			c1.182-0.009,2.357,0.513,3.121,1.386C55.891,230.331,56.292,231.467,56.275,232.584z M56.225,232.583
			c-0.006-1.112-0.522-2.188-1.336-2.889c-0.805-0.709-1.841-1.105-2.889-1.103c-1.045,0.012-2.082,0.419-2.839,1.153
			c-0.755,0.73-1.246,1.755-1.274,2.839c-0.049,1.076,0.372,2.192,1.169,2.944c0.78,0.775,1.892,1.138,2.944,1.099
			c1.061-0.023,2.091-0.437,2.895-1.148C55.706,234.773,56.224,233.697,56.225,232.583z"/>
	</g>
	<circle style="fill:#D8D8D8;" cx="51.958" cy="232.584" r="3.583"/>
	<g>
		<path d="M52.584,229.25c-0.218,0.186-0.304,0.469-0.393,0.731c-0.091,0.266-0.167,0.537-0.229,0.813
			c-0.121,0.557-0.238,1.098-0.342,1.667c-0.106,0.552-0.2,1.111-0.285,1.67c-0.082,0.561-0.15,1.122-0.169,1.703
			c-0.195-0.556-0.224-1.151-0.223-1.733c0.002-0.586,0.079-1.163,0.189-1.739c0.116-0.558,0.257-1.137,0.473-1.678
			C51.832,230.165,52.041,229.535,52.584,229.25z"/>
	</g>
	<path style="opacity:0.27;fill:#FFFFFF;" d="M49.271,233.545c0-2.016,1.634-3.648,3.648-3.648c0.77,0,1.48,0.24,2.067,0.646
		c-0.657-0.956-1.756-1.584-3.004-1.584c-2.016,0-3.648,1.633-3.648,3.648c0,1.246,0.626,2.343,1.581,3.001
		C49.51,235.022,49.271,234.312,49.271,233.545z"/>
</g>
<g>
	<ellipse style="fill:#936944;" cx="52" cy="334.521" rx="4.25" ry="4.188"/>
	<g>
		<circle style="fill:#BCBCBC;" cx="52" cy="333.584" r="4.25"/>
		<path style="fill:#231F20;" d="M56.275,333.584c0.012,1.115-0.389,2.252-1.159,3.116c-0.766,0.871-1.948,1.374-3.116,1.341
			c-2.383-0.071-4.324-2.15-4.387-4.457c-0.039-1.146,0.387-2.332,1.215-3.171c0.812-0.848,1.987-1.358,3.172-1.336
			c1.182-0.009,2.357,0.513,3.121,1.386C55.891,331.331,56.292,332.467,56.275,333.584z M56.225,333.583
			c-0.006-1.112-0.522-2.188-1.336-2.889c-0.805-0.709-1.841-1.105-2.889-1.103c-1.045,0.012-2.082,0.419-2.839,1.153
			c-0.755,0.73-1.246,1.755-1.274,2.839c-0.049,1.076,0.372,2.192,1.169,2.944c0.78,0.775,1.892,1.138,2.944,1.099
			c1.061-0.022,2.091-0.436,2.895-1.148C55.706,335.773,56.224,334.697,56.225,333.583z"/>
	</g>
	<circle style="fill:#D8D8D8;" cx="51.958" cy="333.584" r="3.583"/>
	<g>
		<path d="M52.584,330.25c-0.218,0.186-0.304,0.469-0.393,0.731c-0.091,0.266-0.167,0.537-0.229,0.813
			c-0.121,0.557-0.238,1.098-0.342,1.667c-0.106,0.552-0.2,1.111-0.285,1.67c-0.082,0.561-0.15,1.122-0.169,1.703
			c-0.195-0.556-0.224-1.151-0.223-1.733c0.002-0.586,0.079-1.163,0.189-1.739c0.116-0.558,0.257-1.137,0.473-1.678
			C51.832,331.165,52.041,330.535,52.584,330.25z"/>
	</g>
	<path style="opacity:0.27;fill:#FFFFFF;" d="M49.271,334.545c0-2.016,1.634-3.648,3.648-3.648c0.77,0,1.48,0.24,2.067,0.646
		c-0.657-0.956-1.756-1.584-3.004-1.584c-2.016,0-3.648,1.633-3.648,3.648c0,1.246,0.626,2.343,1.581,3.001
		C49.51,336.022,49.271,335.312,49.271,334.545z"/>
</g>
</svg>
