<?xml version="1.0" encoding="iso-8859-1"?>
<!-- Generator: Adobe Illustrator 21.1.0, SVG Export Plug-In . SVG Version: 6.00 Build 0)  -->
<svg version="1.1" id="Layer_1" xmlns="http://www.w3.org/2000/svg" xmlns:xlink="http://www.w3.org/1999/xlink" x="0px" y="0px"
	 width="231.268px" height="619.661px" viewBox="0 0 231.268 619.661" style="enable-background:new 0 0 231.268 619.661;"
	 xml:space="preserve">
<line style="fill:none;stroke:#000100;stroke-width:5.6693;stroke-linecap:round;stroke-linejoin:round;" x1="101.715" y1="473.82" x2="99.16" y2="560.431"/>
<line style="fill:none;stroke:#000100;stroke-width:5.6693;stroke-linecap:round;stroke-linejoin:round;" x1="138.816" y1="473.803" x2="139.559" y2="560.448"/>
<path style="fill:#1D1E1C;" d="M41.625,407.628c0.127-0.393,0.426-1.058,0.791-1.574c2.51-4.458,5.039-3.153,8.059-2.462
	c3.869,0.886,7.5,7.077,7.689,7.375l6.09,16.352c0.473,0.726,0.268,1.697-0.459,2.166c-0.726,0.473-1.699,0.267-2.168-0.458
	l-5.795-15.898l-0.945-0.324l0.859,30.167c0.086,0.862-0.543,1.628-1.402,1.714c-0.514,0.051-0.99-0.15-1.316-0.507
	c-0.217-0.237-0.363-0.548-0.398-0.898l-1.166-31.23c-0.018-0.196,0.012-0.391,0.062-0.577c-0.408-0.189-0.791-0.355-1.137-0.485
	l-0.668,36.375c-0.02,0.867-0.734,1.551-1.6,1.536c-0.449-0.009-0.848-0.206-1.127-0.512c-0.262-0.284-0.418-0.668-0.41-1.087
	l0.666-36.169c-1.238,0.874-0.402-0.168-0.555,0.546l-2.348,29.708c-0.111,0.86-0.779,1.597-1.639,1.482
	c-0.381-0.048-0.713-0.232-0.953-0.498c-0.301-0.33-0.461-0.782-0.399-1.258l2.512-28.228l-0.721-0.224l-3.998,20.427
	c-0.246,0.759-0.502,0.958-1.262,0.712c-0.246-0.082-0.457-0.223-0.621-0.4c-0.334-0.37-0.471-0.909-0.305-1.42l4.486-23.836
	c0.027-0.067,0.043-0.13,0.068-0.199L41.625,407.628z"/>
<path style="fill:#1D1E1C;" d="M192.48,407.009c-0.158-0.383-0.506-1.023-0.906-1.511c-2.836-4.259-5.262-2.768-8.223-1.854
	c-3.791,1.171-6.951,7.616-7.117,7.927l-4.855,16.761c-0.416,0.759-0.139,1.711,0.621,2.126c0.758,0.418,1.713,0.14,2.127-0.617
	l4.596-16.287l0.918-0.395l1.391,30.148c-0.02,0.866,0.662,1.584,1.525,1.605c0.518,0.013,0.977-0.224,1.275-0.604
	c0.199-0.253,0.322-0.574,0.332-0.926l-1.166-31.229c0.004-0.197-0.041-0.39-0.105-0.571c0.393-0.22,0.764-0.413,1.098-0.567
	l3.377,36.224c0.084,0.861,0.848,1.492,1.709,1.411c0.447-0.042,0.832-0.267,1.086-0.594c0.238-0.302,0.367-0.697,0.328-1.115
	l-3.361-36.019c1.303,0.78,0.389-0.197,0.596,0.503l4.555,29.452c0.176,0.848,0.898,1.533,1.744,1.356
	c0.377-0.078,0.695-0.287,0.914-0.568c0.277-0.351,0.4-0.815,0.305-1.285l-4.609-27.963l0.701-0.275l5.51,20.071
	c0.303,0.738,0.572,0.918,1.311,0.617c0.24-0.101,0.439-0.257,0.59-0.447c0.307-0.393,0.402-0.941,0.199-1.438l-6.25-23.435
	c-0.033-0.065-0.053-0.127-0.084-0.193L192.48,407.009z"/>
<path style="fill:#C5003F;stroke:#000100;stroke-width:2.8347;stroke-linecap:round;stroke-linejoin:round;" d="M79.033,389.898
	c0,0,0.328,1.821,0.144,4.732c-1.119,17.59-3.226,35.024-4.17,52.686c-0.439,8.261-0.906,30.007-1.777,32.449
	c2,0.418,39.008,1.501,42.648,1.637c4.709,0.172,5.867-0.387,6.412-3.478c1.084-6.167,0.348-11.862,1.252-7.418
	c0.691,3.407,0.965,7.635,2.404,10.852c7.877-0.986,45.047-1.73,48.506-0.882c0.338-2.908,0.168-5.723-0.096-8.569
	c-4.129-44.588-13.471-79.88-12.975-82.932C161.492,388.325,79.033,389.898,79.033,389.898z"/>
<path style="fill:#FABB0C;stroke:#000100;stroke-width:4.252;stroke-linecap:round;stroke-linejoin:round;" d="M138.314,557.871
	c8.701-0.869,19.225,3.636,26.775,6.227c10.549,3.63,19.758,7.951,25.035,15.432c3.289,4.669,6.562,12.727,3.615,17.729
	c-3.973,6.728-11.223,9.201-21.293,10.715c-16.551,2.484-37.512,2.164-47.871-8.575
	C110.307,584.599,138.314,557.871,138.314,557.871z"/>
<path style="fill:#FABB0C;stroke:#000100;stroke-width:4.252;stroke-linecap:round;stroke-linejoin:round;" d="M98.92,556.117
	c11.369,6.674,24.043,28.184,19.07,39.626c-6.695,15.398-35.668,14.228-51.443,11.432c-18.502-3.285-27.754-18.46-19.568-31.02
	C54.172,565.106,98.92,556.117,98.92,556.117z"/>
<g>
	<path style="fill:#000100;stroke:#000100;stroke-width:3.5809;" d="M114.586,237.113c0-2.512-0.137-5.075-0.27-7.551
		c-0.131-2.511-0.271-5.105-0.271-7.68l0,0c0-0.97,1.205-1.754,2.684-1.754c1.482,0,2.682,0.784,2.682,1.754l0,0
		c0,2.516,0.137,5.08,0.27,7.558c0.135,2.508,0.27,5.1,0.27,7.673l0,0c0,0.969-1.199,1.754-2.682,1.754
		S114.586,238.083,114.586,237.113L114.586,237.113z"/>
</g>
<g>
	<path style="fill:#000100;stroke:#000100;" d="M94.871,577.142c-2.123-1.512-5.361-1.893-9.303-2.01l0,0
		c-0.17-0.016-0.422-0.019-0.74-0.019l0,0c-2.67-0.039-6.637,0.523-7.803,1.235l0,0l0.006,0.003c-1.19,0.635-2.869,0.459-3.758-0.38
		l0,0c-0.893-0.847-0.654-2.04,0.535-2.673l0,0c3.244-1.643,7.602-1.947,11.02-1.995l0,0c0.346,0,0.727,0,1.078,0.021l0,0
		c4.004,0.143,8.9,0.453,12.729,3.1l0,0c1.053,0.734,1.072,1.942,0.033,2.695l0,0c-0.529,0.38-1.227,0.57-1.92,0.57l0,0
		C96.068,577.688,95.391,577.507,94.871,577.142L94.871,577.142z"/>
</g>
<g>
	<path style="fill:#000100;stroke:#000100;" d="M92.197,588.806c-1.274-1.008-6.379-1.963-9.451-2.24l0,0
		c-1.215-0.143-2.504-0.225-3.773-0.225l0,0c-2.205,0-4.295,0.268-5.92,0.869l0,0c-1.309,0.483-2.934,0.116-3.613-0.816l0,0
		c-0.676-0.938-0.162-2.084,1.15-2.572l0,0c2.678-0.977,5.605-1.288,8.383-1.288l0,0c1.594,0,3.154,0.096,4.615,0.267l0,0
		c3.396,0.43,8.809,1.001,12.324,3.258l0,0c1.068,0.728,1.107,1.936,0.08,2.693l0,0c-0.527,0.391-1.232,0.59-1.936,0.59l0,0
		C93.389,589.341,92.721,589.165,92.197,588.806L92.197,588.806z"/>
</g>
<g>
	<path style="fill:#000100;stroke:#000100;" d="M138.92,577.411c-1.26-0.551-1.666-1.725-0.893-2.621l0,0
		c1.77-1.961,4.729-2.928,7.906-3.673l0,0c3.205-0.722,6.725-1.085,9.801-1.091l0,0c2.105,0.016,3.965,0.139,5.668,0.668l0,0
		c1.352,0.43,1.955,1.557,1.348,2.516l0,0c-0.609,0.96-2.195,1.389-3.547,0.96l0,0c-0.408-0.151-1.805-0.343-3.469-0.323l0,0
		c-2.457-0.006-5.586,0.316-8.182,0.9l0,0c-2.611,0.552-4.598,1.51-4.949,2.025l0,0l0.006,0.002
		c-0.502,0.589-1.389,0.914-2.293,0.914l0,0C139.838,577.688,139.355,577.598,138.92,577.411L138.92,577.411z"/>
</g>
<g>
	<path style="fill:#000100;stroke:#000100;" d="M142.74,586.901c-1.08-0.727-1.123-1.933-0.1-2.697l0,0
		c3.934-2.826,10.936-4.377,17.143-4.445l0,0c1.916,0.002,3.777,0.17,5.506,0.623l0,0c1.385,0.372,2.09,1.469,1.57,2.451l0,0
		c-0.525,0.986-2.066,1.484-3.455,1.114l0,0c-0.877-0.237-2.156-0.377-3.621-0.377l0,0c-4.73-0.06-11.242,1.629-13.256,3.261l0,0
		c-0.521,0.391-1.232,0.596-1.943,0.596l0,0C143.922,587.427,143.26,587.25,142.74,586.901L142.74,586.901z"/>
</g>
<circle id="skinface" style="fill:#23BF00;stroke:#000100;stroke-width:4.252;stroke-miterlimit:10;" cx="117.318" cy="132.45" r="87.679"/>
<ellipse style="fill:#000100;stroke:#000100;stroke-width:3;" cx="139.111" cy="113.704" rx="3.659" ry="3.662"/>
<path style="fill:#000100;stroke:#000100;stroke-width:3;" d="M89.489,113.705c0,2.021,1.641,3.661,3.659,3.661
	c2.026,0,3.665-1.641,3.665-3.661c0-2.022-1.639-3.663-3.665-3.663C91.13,110.042,89.489,111.682,89.489,113.705z"/>
<g>
	<path style="fill:#000100;" d="M105.716,190.28c-30.838-8.575-38.675-33.168-40.729-39.29l0,0
		c-0.412-1.183-0.073-2.626,0.751-3.213l0,0c0.834-0.591,1.839-0.108,2.253,1.077l0,0c2.136,5.916,8.626,28.163,38.372,36.718l0,0
		c2.922,0.824,6.01,1.246,9.171,1.246l0,0c18.051,0,38.164-13.624,44.971-40.892l0,0c0.312-1.246,1.271-1.897,2.145-1.448l0,0
		c0.874,0.446,1.324,1.814,1.015,3.067l0,0c-7.505,29.73-29.015,44.069-48.13,44.069l0,0
		C112.169,191.614,108.862,191.17,105.716,190.28L105.716,190.28z"/>
</g>
<path style="fill:#000100;" d="M21.5,65.566c-1.641,3.002-4.651,6.009-4.905,9.274c-2.755,2.96-6.265,5.572-3.918,10.122
	c-4.078,1.645-1.807,6.196-2.146,9.205c-0.796,4.347-1.187,8.212-1.232,11.157c-0.046,2.945,0.254,4.97,0.839,5.636
	c2.056,2.34,3.749,9.793-0.86,12.923c-2.683,8.942,0.475,14.975,3.578,22.803c1.864,4.706,4.102,8.445,7.677,9.796
	c4.843,1.83,8.121,9.878,11.101,9.878c6.556,2.038,9.483-3.929,1.283-6.441c6.274-3.006,3.104-6.493-0.389-7.39
	c6.938,0.897,1.788-6.289,2.994-6.534c2.818-6.015,2.02-6.553,1.03-10.933c-0.398-1.986-4.271-2.377-3.571-5.553
	c0.699-3.175,1.945-6.451,3.83-8.685c11.813-4.543,7.342-16.614,4.212-14.826c3.278,0.297,4.168-10.843,8.048-10.731
	c3.881,0.112,8.964-10.433,7.551-15.683c10.007,5.709,17.906-2.712,13.018-8.015c5.604,6.494,8.476-2.564,12.211-5.737
	c3.765-2.458,19.474,1.262,23.11-1.417c3.638-2.679,5.859,1.202,8.495-1.789c3.487-0.193,7.658,0.847,7.174-3.948
	c4.452,2.661,6.24-0.076,9.37-3.653c3.131-3.13,11.178-4.471,12.967,0c2.843,2.029-5.365,3.13,1.342,8.048
	c2.844,0.503,3.067,1.395,5.837,0.825c2.771-0.57,5.59-0.9,8.466-0.941c2.876-0.039,4.158,4.894,7.158,5.482
	c2.724,0.554,5.481,3.048,8.049,4.472c2.567,1.424,5.254,3.354,7.602,5.812c3.576,4.471,7.601,3.577,7.601,8.942
	c0,1.789-0.895,4.471-1.559,6.332c-0.225,2.969,4.02,1.198,5.688,3.44c-1.027,2.664-0.438,5.137,0.79,7.666
	c-0.83,2.478,0.278,5.117,0.479,7.651c1.207,1.619,2.461,2.963,3.629,4.041c2.332,2.154-0.133,7.266-0.084,7.833
	c0.446,5.067,1.959,5.227,3.129,6.408c1.23,1.212,0.455,4.086,0.448,5.812c-0.016,3.452,2.712,2.429,1.967,6.26
	c-0.222,1.142,4.071-0.576,7.63-3.249c3.557-2.673,6.381-6.299,3.222-8.972c1.487-5.665,6.259-3.876,7.151-7.453
	c2.982-9.24,0.82-14.084-0.633-19.338c-1.449-5.257,6.249-18.709-4.137-16.432c0.447-3.13,2.684-15.649-4.183-15.253
	c2.395-7.55-4.561-9.362-7.817-13.767c-1.509-2.188-3.117-4.42-4.867-6.92c-3.16-3.981-6.648-7.694-10.416-11.113
	c-3.768-3.419-7.878-9.912-12.09-9.351c-3.672-5.736-5.337-7.683-13.471-7.44c0.188-9.084-8.549-5.05-14.561-5.379
	c-1.058-1.685-0.258-7.085-11.883-7.383c-2.455-0.063-7.457,0.813-9.836,0.298c-3.054-0.209-4.088,1.139-7.155,1.192
	c-4.602,0.08-6.984-4.005-11.586-3.402c-4.67,0.471-11.16-3.514-13.751,2.508c-2.672-2.09-6.233-2.484-7.121-0.56
	c-3.301,0.341-21.547,2.959-17.133,11.614c-6.15,1.913-14.351-3.541-14.199,6.83c1.342-0.894-6.021-4.805-8.382,2.348
	c-6.222,0.335-6.819,6.595-7.714,7.49c-1.788,0.894-4.123,1.218-5.812,2.124c-2.292,0.201-6.261,8.607-8.951,9.569
	S23.751,61.675,21.5,65.566z"/>
<line style="fill:#8D3088;stroke:#000100;stroke-width:3;stroke-linecap:round;stroke-linejoin:round;" x1="123.543" y1="469.506" x2="123.369" y2="434.562"/>
<path style="fill:none;stroke:#000100;stroke-width:4.252;stroke-linecap:round;stroke-linejoin:round;" d="M61.508,305.239
	c0,0-8.748,37.648-10.445,51.275c-1.381,11.088-3.166,46.5-3.166,46.5"/>
<path style="fill:none;stroke:#000100;stroke-width:4.252;stroke-linecap:round;stroke-linejoin:round;" d="M173.207,304.239
	c0,0,6.746,40.648,8.443,54.276c1.381,11.087,4.168,44.499,4.168,44.499"/>
<path style="fill:none;stroke:#000100;stroke-width:2;stroke-miterlimit:10;" d="M76.955,427.044
	c9.207-0.737,24.217-1.42,28.084-5.802c3.867-4.384,5.018-32.189,0.938-32.048c-4.082,0.14-25.943,0.704-25.943,0.704
	L76.955,427.044z"/>
<path style="fill:none;stroke:#000100;stroke-width:2;stroke-miterlimit:10;" d="M167.691,425.697
	c-8.08-0.012-21.205,0.487-24.998-3.569c-3.793-4.059-7.514-31.634-3.949-31.819c3.562-0.177,22.639-1.334,22.639-1.334
	L167.691,425.697z"/>
<path style="fill:#FCEE21;stroke:#000100;stroke-width:2.8347;stroke-linecap:round;stroke-linejoin:round;" d="M112.43,232.089
	c-4.428,2.13-33.539,7.477-41.354,13.142c-8.563,6.212-26.865,50.55-28.887,53.035c6.643,2.277,33.672,8.881,39.775,11.857
	c4.119-9.847,4.119-16.227,4.119-16.227c0.441,1.458-0.812,12.58-1.391,16.556c-4.709,32.382-15.115,78.628-15.514,78.606
	c17.854,0.848,35.693,0.168,53.652,0.685c22.316,0.643,37.043-2.539,45.584-0.674c0.127-0.095,1.25-0.188,1.369-0.279
	c-2.381-4.46-8.658-49.553-15.318-79.725c-2.246-10.178-0.648-4.14,2.787,0.926c10.287-5.899,20.521-7.874,31.533-13.102
	c-2.441-1.971-17.594-49.508-37.959-55.427c-5.732-1.667-18.746-6.723-28.894-8.798C119.523,243.194,111.68,236.867,112.43,232.089z
	"/>
<line style="fill:#2FAAE1;stroke:#000100;stroke-width:2.8347;stroke-linecap:round;stroke-linejoin:round;" x1="153.432" y1="303.618" x2="150.428" y2="293.787"/>
</svg>
