<?xml version="1.0" encoding="iso-8859-1"?>
<!-- Generator: Adobe Illustrator 21.1.0, SVG Export Plug-In . SVG Version: 6.00 Build 0)  -->
<svg version="1.1" id="Layer_1" xmlns="http://www.w3.org/2000/svg" xmlns:xlink="http://www.w3.org/1999/xlink" x="0px" y="0px"
	 width="169.216px" height="564.232px" viewBox="0 0 169.216 564.232" style="enable-background:new 0 0 169.216 564.232;"
	 xml:space="preserve">
<line style="fill:none;stroke:#000100;stroke-width:5.6693;stroke-linecap:round;stroke-linejoin:round;" x1="69.369" y1="401.264" x2="66.814" y2="509.652"/>
<line style="fill:none;stroke:#000100;stroke-width:5.6693;stroke-linecap:round;stroke-linejoin:round;" x1="106.471" y1="401.247" x2="107.213" y2="509.67"/>
<path style="fill:#1D1E1C;" d="M9.279,356.849c0.127-0.393,0.426-1.058,0.791-1.574c2.51-4.458,5.039-3.153,8.059-2.462
	c3.869,0.886,7.5,7.077,7.689,7.375l6.09,16.352c0.473,0.726,0.268,1.697-0.459,2.166c-0.726,0.473-1.699,0.267-2.168-0.458
	l-5.795-15.898l-0.945-0.324l0.859,30.167c0.086,0.862-0.543,1.628-1.402,1.714c-0.514,0.051-0.99-0.15-1.316-0.507
	c-0.217-0.237-0.363-0.548-0.398-0.898l-1.166-31.23c-0.018-0.196,0.012-0.391,0.062-0.577c-0.408-0.189-0.791-0.355-1.137-0.485
	l-0.668,36.375c-0.02,0.867-0.734,1.551-1.6,1.536c-0.449-0.009-0.848-0.206-1.127-0.512c-0.262-0.284-0.418-0.668-0.41-1.087
	l0.666-36.17c-1.238,0.874-0.402-0.168-0.555,0.546l-2.348,29.708c-0.111,0.86-0.779,1.597-1.639,1.482
	c-0.381-0.048-0.713-0.232-0.953-0.498c-0.301-0.33-0.461-0.782-0.398-1.258l2.512-28.228l-0.721-0.224l-3.998,20.427
	c-0.246,0.759-0.502,0.958-1.262,0.712c-0.246-0.082-0.457-0.223-0.621-0.4c-0.334-0.37-0.471-0.909-0.305-1.42l4.486-23.836
	c0.027-0.067,0.043-0.13,0.068-0.199L9.279,356.849z"/>
<path style="fill:#8CC63F;stroke:#000100;stroke-width:4.252;stroke-linecap:round;stroke-linejoin:round;" d="M105.969,507.093
	c8.701-0.869,19.225,3.636,26.775,6.227c10.549,3.63,19.758,7.951,25.035,15.432c3.289,4.669,6.562,12.727,3.615,17.729
	c-3.973,6.727-11.223,9.201-21.293,10.715c-16.551,2.484-37.512,2.164-47.871-8.575C77.961,533.82,105.969,507.093,105.969,507.093z
	"/>
<path style="fill:#8CC63F;stroke:#000100;stroke-width:4.252;stroke-linecap:round;stroke-linejoin:round;" d="M66.574,505.339
	c11.369,6.674,24.043,28.184,19.07,39.626c-6.695,15.398-35.668,14.229-51.443,11.432c-18.502-3.285-27.754-18.46-19.568-31.02
	C21.826,514.328,66.574,505.339,66.574,505.339z"/>
<g>
	<path style="fill:#000100;stroke:#000100;stroke-width:4.0481;" d="M82.24,188.847c0-3.21-0.137-6.485-0.27-9.65
		c-0.131-3.208-0.271-6.523-0.271-9.814l0,0c0-1.24,1.205-2.242,2.684-2.242c1.482,0,2.682,1.001,2.682,2.242l0,0
		c0,3.215,0.137,6.491,0.27,9.658c0.135,3.206,0.27,6.518,0.27,9.806l0,0c0,1.239-1.199,2.242-2.682,2.242
		C83.439,191.089,82.24,190.086,82.24,188.847L82.24,188.847z"/>
</g>
<g>
	<path style="fill:#000100;stroke:#000100;" d="M62.525,526.363c-2.123-1.512-5.361-1.893-9.303-2.01l0,0
		c-0.17-0.016-0.422-0.019-0.74-0.019l0,0c-2.67-0.039-6.637,0.523-7.803,1.235l0,0l0.006,0.003
		c-1.189,0.635-2.869,0.459-3.758-0.38l0,0c-0.892-0.847-0.654-2.04,0.535-2.673l0,0c3.244-1.643,7.602-1.947,11.02-1.995l0,0
		c0.346,0,0.727,0,1.078,0.021l0,0c4.004,0.143,8.9,0.453,12.729,3.1l0,0c1.053,0.734,1.072,1.942,0.033,2.695l0,0
		c-0.529,0.38-1.227,0.57-1.92,0.57l0,0C63.723,526.91,63.045,526.728,62.525,526.363L62.525,526.363z"/>
</g>
<g>
	<path style="fill:#000100;stroke:#000100;" d="M59.851,538.027c-1.273-1.008-6.379-1.963-9.451-2.24l0,0
		c-1.215-0.143-2.504-0.225-3.773-0.225l0,0c-2.205,0-4.295,0.268-5.92,0.869l0,0c-1.309,0.483-2.934,0.116-3.613-0.816l0,0
		c-0.676-0.938-0.162-2.084,1.15-2.572l0,0c2.678-0.978,5.605-1.288,8.383-1.288l0,0c1.594,0,3.154,0.096,4.615,0.267l0,0
		c3.396,0.43,8.809,1.001,12.324,3.258l0,0c1.068,0.727,1.107,1.935,0.08,2.693l0,0c-0.527,0.391-1.232,0.59-1.936,0.59l0,0
		C61.043,538.562,60.375,538.387,59.851,538.027L59.851,538.027z"/>
</g>
<g>
	<path style="fill:#000100;stroke:#000100;" d="M106.574,526.633c-1.26-0.551-1.666-1.725-0.893-2.621l0,0
		c1.77-1.961,4.729-2.928,7.906-3.673l0,0c3.205-0.722,6.725-1.085,9.801-1.091l0,0c2.105,0.016,3.965,0.139,5.668,0.668l0,0
		c1.352,0.43,1.955,1.557,1.348,2.516l0,0c-0.609,0.96-2.195,1.389-3.547,0.96l0,0c-0.408-0.151-1.805-0.343-3.469-0.323l0,0
		c-2.457-0.006-5.586,0.316-8.182,0.9l0,0c-2.611,0.552-4.598,1.51-4.949,2.025l0,0l0.006,0.002
		c-0.502,0.589-1.389,0.914-2.293,0.914l0,0C107.492,526.91,107.01,526.819,106.574,526.633L106.574,526.633z"/>
</g>
<g>
	<path style="fill:#000100;stroke:#000100;" d="M110.394,536.123c-1.08-0.727-1.123-1.933-0.1-2.697l0,0
		c3.934-2.826,10.936-4.377,17.143-4.445l0,0c1.916,0.002,3.777,0.17,5.506,0.623l0,0c1.385,0.372,2.09,1.469,1.57,2.451l0,0
		c-0.525,0.986-2.066,1.484-3.455,1.114l0,0c-0.877-0.237-2.156-0.377-3.621-0.377l0,0c-4.73-0.06-11.242,1.629-13.256,3.261l0,0
		c-0.521,0.391-1.232,0.596-1.943,0.596l0,0C111.576,536.648,110.914,536.472,110.394,536.123L110.394,536.123z"/>
</g>
<circle id="skinface" style="fill:#E99600;stroke:#000100;stroke-width:3.5;stroke-miterlimit:10;" cx="84.525" cy="98.274" r="68.861"/>
<ellipse style="fill:#000100;stroke:#000100;stroke-width:3;" cx="101.639" cy="83.551" rx="2.873" ry="2.876"/>
<circle style="fill:#000100;stroke:#000100;stroke-width:3;" cx="65.544" cy="83.551" r="2.876"/>
<g>
	<path style="fill:#000100;" d="M75.412,143.691c-24.219-6.734-30.374-26.049-31.987-30.856l0,0
		c-0.323-0.93-0.058-2.063,0.591-2.524l0,0c0.655-0.464,1.444-0.085,1.769,0.846l0,0c1.679,4.646,6.775,22.118,30.137,28.836l0,0
		c2.295,0.648,4.72,0.979,7.202,0.979l0,0c14.177,0,29.975-10.7,35.319-32.115l0,0c0.243-0.979,0.998-1.489,1.684-1.137l0,0
		c0.687,0.35,1.04,1.424,0.797,2.408l0,0c-5.895,23.35-22.789,34.611-37.801,34.611l0,0
		C80.481,144.739,77.884,144.391,75.412,143.691L75.412,143.691z"/>
</g>
<path style="fill:none;stroke:#000100;stroke-width:4.252;stroke-linecap:round;stroke-linejoin:round;" d="M32.162,234.826
	c0,0-11.748,57.283-13.445,70.91c-1.381,11.088-3.166,46.5-3.166,46.5"/>
<path style="fill:#1D1E1C;" d="M159.431,356.849c-0.127-0.393-0.426-1.058-0.791-1.574c-2.51-4.458-5.039-3.153-8.059-2.462
	c-3.869,0.886-7.5,7.077-7.689,7.375l-6.09,16.352c-0.473,0.726-0.268,1.697,0.459,2.166c0.727,0.473,1.699,0.267,2.168-0.458
	l5.795-15.898l0.945-0.324l-0.859,30.167c-0.086,0.862,0.543,1.628,1.402,1.714c0.514,0.051,0.99-0.15,1.316-0.507
	c0.217-0.237,0.363-0.548,0.398-0.898l1.166-31.23c0.018-0.196-0.012-0.391-0.062-0.577c0.408-0.189,0.791-0.355,1.137-0.485
	l0.668,36.375c0.02,0.867,0.734,1.551,1.6,1.536c0.449-0.009,0.848-0.206,1.127-0.512c0.262-0.284,0.418-0.668,0.41-1.087
	l-0.666-36.17c1.238,0.874,0.402-0.168,0.555,0.546l2.348,29.708c0.111,0.86,0.779,1.597,1.639,1.482
	c0.381-0.048,0.713-0.232,0.953-0.498c0.301-0.33,0.461-0.782,0.398-1.258l-2.512-28.228l0.721-0.224l3.998,20.427
	c0.246,0.759,0.502,0.958,1.262,0.712c0.246-0.082,0.457-0.223,0.621-0.4c0.334-0.37,0.471-0.909,0.305-1.42l-4.486-23.836
	c-0.027-0.067-0.043-0.13-0.068-0.199L159.431,356.849z"/>
<path style="fill:none;stroke:#000100;stroke-width:4.252;stroke-linecap:round;stroke-linejoin:round;" d="M136.548,234.826
	c0,0,11.748,57.283,13.445,70.91c1.381,11.088,3.166,46.5,3.166,46.5"/>
<path style="fill:#8800FF;stroke:#000000;stroke-width:2.8347;stroke-linecap:round;stroke-linejoin:round;" d="M120.119,254.284
	c-0.616-10.404-0.034-4.446,7.453-9.361c15.539-11.425,18.767-12.204,19.79-17.176c-5.271-6.137-5.523-22.249-25.88-34.061
	c-5.163-2.996-21.746-9.725-31.895-11.799c-2.41,10.53-10.254,4.203-9.504-0.575c-4.428,2.13-30.537,9.479-38.352,15.143
	c-8.562,6.212-17.355,32.559-19.376,35.044c6.954,8.662,20.734,18.367,26.839,21.343c5.68-3.528,4.543-9.723,4.543-9.723
	c0.441,1.458-1.194,12.542-1.391,16.556c-1.753,35.758-10.592,166.872-11.463,169.314c2,0.418,56.811,1.665,92.819-0.259
	c0.338-2.908-0.8-32.801-1.064-35.648C129.511,359.273,122.12,288.08,120.119,254.284z"/>
<line style="fill:none;stroke:#000100;stroke-width:2.8347;stroke-linecap:round;stroke-linejoin:round;" x1="120.085" y1="249.838" x2="118.082" y2="243.009"/>
<path style="fill:#000100;" d="M9.672,138.327c0,0,9.003-40.329,14.519-54.654c2.438-6.333,16.296-19.706,37.196-22.722
	c64.364-9.287,54.9-22.279,54.9-22.279s29.385,21.404,33.36,42.386c5.074,26.773-0.709,44.271-0.709,44.271
	s14.865-26.173,14.85-55.829c-0.01-16.5-10.275-41.698-46.04-57.77C74.564-7.677,29.795,9.804,13.659,43
	C-2.706,76.662,9.672,138.327,9.672,138.327z"/>
<polygon style="fill:#FF00FF;stroke:#000100;stroke-width:2.8347;stroke-miterlimit:10;" points="10.29,66.135 31.772,81.355 
	38.522,72.585 13.643,62.619 "/>
</svg>
