<?xml version="1.0" encoding="iso-8859-1"?>
<!-- Generator: Adobe Illustrator 21.1.0, SVG Export Plug-In . SVG Version: 6.00 Build 0)  -->
<svg version="1.1" id="Layer_1" xmlns="http://www.w3.org/2000/svg" xmlns:xlink="http://www.w3.org/1999/xlink" x="0px" y="0px"
	 width="178.679px" height="573.609px" viewBox="0 0 178.679 573.609" style="enable-background:new 0 0 178.679 573.609;"
	 xml:space="preserve">
<path style="fill:#000100;" d="M93.833,189.75c0,2.577-2.089,4.667-4.667,4.667l0,0c-2.576,0-4.666-2.089-4.666-4.667v-12
	c0-2.577,2.09-4.666,4.666-4.666l0,0c2.578,0,4.667,2.089,4.667,4.666V189.75z"/>
<line style="fill:none;stroke:#000100;stroke-width:5.6693;stroke-linecap:round;stroke-linejoin:round;" x1="73.783" y1="428.82" x2="71.229" y2="515.431"/>
<line style="fill:none;stroke:#000100;stroke-width:5.6693;stroke-linecap:round;stroke-linejoin:round;" x1="110.885" y1="428.803" x2="111.627" y2="515.448"/>
<path style="fill:#1D1E1C;" d="M13.693,362.628c0.127-0.393,0.426-1.058,0.791-1.574c2.51-4.458,5.039-3.153,8.059-2.462
	c3.869,0.886,7.5,7.077,7.689,7.375l6.09,16.352c0.473,0.726,0.268,1.697-0.459,2.166c-0.727,0.473-1.699,0.267-2.168-0.458
	L27.9,368.129l-0.945-0.324l0.859,30.166c0.086,0.862-0.543,1.628-1.402,1.714c-0.514,0.051-0.99-0.15-1.316-0.507
	c-0.217-0.237-0.363-0.548-0.398-0.898l-1.166-31.23c-0.018-0.196,0.012-0.391,0.062-0.577c-0.408-0.189-0.791-0.355-1.137-0.485
	l-0.668,36.375c-0.02,0.867-0.734,1.551-1.6,1.536c-0.449-0.009-0.848-0.206-1.127-0.512c-0.262-0.284-0.418-0.668-0.41-1.087
	l0.666-36.169c-1.238,0.874-0.402-0.168-0.555,0.546l-2.348,29.708c-0.111,0.86-0.779,1.597-1.639,1.482
	c-0.381-0.048-0.713-0.232-0.953-0.498c-0.301-0.33-0.461-0.782-0.398-1.258l2.512-28.228l-0.721-0.224l-3.998,20.427
	c-0.246,0.759-0.502,0.958-1.262,0.712c-0.246-0.082-0.457-0.223-0.621-0.4c-0.334-0.37-0.471-0.909-0.305-1.42l4.486-23.836
	c0.027-0.067,0.043-0.13,0.068-0.199L13.693,362.628z"/>
<path style="fill:#1D1E1C;" d="M164.549,362.009c-0.158-0.383-0.506-1.023-0.906-1.511c-2.836-4.259-5.262-2.768-8.223-1.854
	c-3.791,1.171-6.951,7.616-7.117,7.927l-4.855,16.761c-0.416,0.759-0.139,1.711,0.621,2.126c0.758,0.417,1.713,0.14,2.127-0.617
	l4.596-16.287l0.918-0.395l1.391,30.148c-0.02,0.866,0.662,1.584,1.525,1.605c0.518,0.013,0.977-0.224,1.275-0.604
	c0.199-0.253,0.322-0.574,0.332-0.926l-1.166-31.229c0.004-0.197-0.041-0.39-0.105-0.571c0.393-0.22,0.764-0.413,1.098-0.567
	l3.377,36.224c0.084,0.861,0.848,1.492,1.709,1.411c0.447-0.042,0.832-0.267,1.086-0.594c0.238-0.302,0.367-0.697,0.328-1.115
	l-3.361-36.019c1.303,0.78,0.389-0.197,0.596,0.503l4.555,29.452c0.176,0.848,0.898,1.533,1.744,1.356
	c0.377-0.078,0.695-0.287,0.914-0.568c0.277-0.351,0.4-0.814,0.305-1.285l-4.609-27.963l0.701-0.275l5.51,20.071
	c0.303,0.738,0.572,0.918,1.311,0.617c0.24-0.101,0.439-0.257,0.59-0.447c0.307-0.394,0.402-0.941,0.199-1.438l-6.25-23.435
	c-0.033-0.065-0.053-0.127-0.084-0.193L164.549,362.009z"/>
<path style="fill:#C5003F;stroke:#000100;stroke-width:2.8347;stroke-linecap:round;stroke-linejoin:round;" d="M53.428,335.214
	c-1.633-0.114-2.547-0.264-2.535-0.458c-0.131,2.333-0.756,4.225-0.459,6.491c0.371,2.78,0.996,5.471,0.812,8.382
	c-1.119,17.59-3.227,35.024-4.17,52.685c-0.439,8.261-0.906,30.007-1.777,32.449c2,0.418,39.008,1.501,42.649,1.637
	c4.709,0.172,5.867-0.387,6.412-3.478c1.084-6.167,0.348-11.862,1.252-7.418c0.691,3.407,0.965,7.635,2.404,10.852
	c7.877-0.986,45.047-1.73,48.506-0.882c0.338-2.908,0.168-5.723-0.096-8.569c-4.129-44.588-15.055-89.313-14.559-92.365
	C131.977,333.891,65.943,336.086,53.428,335.214z"/>
<path style="fill:#FABB0C;stroke:#000100;stroke-width:4.252;stroke-linecap:round;stroke-linejoin:round;" d="M110.383,512.871
	c8.701-0.869,19.225,3.636,26.775,6.227c10.549,3.63,19.758,7.951,25.035,15.432c3.289,4.669,6.562,12.727,3.615,17.729
	c-3.973,6.728-11.223,9.201-21.293,10.715c-16.551,2.484-37.512,2.164-47.871-8.575C82.375,539.599,110.383,512.871,110.383,512.871
	z"/>
<path style="fill:#FABB0C;stroke:#000100;stroke-width:4.252;stroke-linecap:round;stroke-linejoin:round;" d="M70.988,511.117
	c11.369,6.674,24.043,28.184,19.07,39.626c-6.695,15.398-35.668,14.228-51.443,11.432c-18.502-3.285-27.754-18.46-19.568-31.02
	C26.24,520.106,70.988,511.117,70.988,511.117z"/>
<g>
	<path style="fill:#000100;stroke:#000100;" d="M66.939,532.142c-2.123-1.512-5.361-1.893-9.303-2.01l0,0
		c-0.17-0.016-0.422-0.019-0.74-0.019l0,0c-2.67-0.039-6.637,0.523-7.803,1.235l0,0l0.006,0.003
		c-1.189,0.635-2.869,0.459-3.758-0.38l0,0c-0.893-0.847-0.654-2.04,0.535-2.673l0,0c3.244-1.643,7.602-1.947,11.02-1.995l0,0
		c0.346,0,0.727,0,1.078,0.021l0,0c4.004,0.143,8.9,0.453,12.729,3.1l0,0c1.053,0.734,1.072,1.942,0.033,2.695l0,0
		c-0.529,0.38-1.226,0.57-1.92,0.57l0,0C68.137,532.688,67.459,532.507,66.939,532.142L66.939,532.142z"/>
</g>
<g>
	<path style="fill:#000100;stroke:#000100;" d="M64.266,543.806c-1.273-1.008-6.379-1.963-9.451-2.24l0,0
		c-1.215-0.143-2.504-0.225-3.773-0.225l0,0c-2.205,0-4.295,0.268-5.92,0.869l0,0c-1.309,0.483-2.934,0.116-3.613-0.816l0,0
		c-0.676-0.938-0.162-2.084,1.15-2.572l0,0c2.678-0.977,5.605-1.288,8.383-1.288l0,0c1.594,0,3.154,0.096,4.615,0.267l0,0
		c3.396,0.43,8.808,1.001,12.324,3.258l0,0c1.068,0.728,1.107,1.936,0.08,2.693l0,0c-0.527,0.391-1.232,0.59-1.936,0.59l0,0
		C65.457,544.341,64.789,544.165,64.266,543.806L64.266,543.806z"/>
</g>
<g>
	<path style="fill:#000100;stroke:#000100;" d="M110.988,532.411c-1.26-0.551-1.666-1.725-0.893-2.621l0,0
		c1.769-1.961,4.729-2.928,7.906-3.673l0,0c3.205-0.722,6.725-1.085,9.801-1.091l0,0c2.106,0.016,3.965,0.139,5.668,0.668l0,0
		c1.352,0.43,1.955,1.557,1.348,2.516l0,0c-0.609,0.96-2.195,1.389-3.547,0.96l0,0c-0.408-0.151-1.805-0.343-3.469-0.323l0,0
		c-2.457-0.006-5.586,0.316-8.182,0.9l0,0c-2.611,0.552-4.598,1.51-4.949,2.025l0,0l0.006,0.002
		c-0.502,0.589-1.389,0.914-2.293,0.914l0,0C111.906,532.688,111.424,532.598,110.988,532.411L110.988,532.411z"/>
</g>
<g>
	<path style="fill:#000100;stroke:#000100;" d="M114.809,541.901c-1.08-0.727-1.123-1.933-0.1-2.697l0,0
		c3.934-2.826,10.936-4.377,17.143-4.445l0,0c1.916,0.002,3.777,0.17,5.506,0.623l0,0c1.385,0.372,2.09,1.469,1.57,2.451l0,0
		c-0.525,0.986-2.066,1.484-3.455,1.114l0,0c-0.877-0.237-2.156-0.377-3.621-0.377l0,0c-4.73-0.06-11.242,1.629-13.256,3.261l0,0
		c-0.521,0.391-1.232,0.596-1.943,0.596l0,0C115.99,542.427,115.328,542.25,114.809,541.901L114.809,541.901z"/>
</g>
<circle id="skin" style="fill:#45AA00;stroke:#000100;stroke-width:3.5;stroke-miterlimit:10;" cx="90.573" cy="107.381" r="67.762"/>
<path style="fill:#000100;" d="M15.109,52.402c-1.291,2.367-3.667,4.739-3.868,7.313c-2.171,2.335-4.938,4.395-3.089,7.983
	c-3.215,1.296-1.425,4.886-1.691,7.258c-0.629,3.428-0.938,6.476-0.972,8.798c-0.038,2.321,0.198,3.919,0.66,4.443
	c1.622,1.845,2.958,7.722-0.677,10.189c-2.115,7.052,0.373,11.809,2.819,17.981c1.473,3.71,3.236,6.66,6.056,7.725
	c3.817,1.443,6.402,7.789,8.753,7.789c5.171,1.607,7.479-3.098,1.012-5.079c4.947-2.37,2.448-5.12-0.308-5.827
	c5.473,0.707,1.411-4.959,2.362-5.152c2.223-4.744,1.593-5.167,0.812-8.622c-0.313-1.566-3.369-1.874-2.815-4.378
	c0.551-2.504,1.532-5.087,3.019-6.848c9.315-3.582,5.788-13.101,3.319-11.69c2.587,0.234,3.288-8.55,6.348-8.462
	c3.062,0.088,7.068-8.227,5.955-12.366c7.89,4.502,14.12-2.139,10.264-6.32c4.42,5.122,6.685-2.021,9.63-4.523
	c2.969-1.938,15.355,0.994,18.223-1.118c2.869-2.112,4.62,0.947,6.699-1.411c2.749-0.151,6.038,0.668,5.656-3.113
	c3.511,2.099,4.921-0.06,7.389-2.88c2.469-2.468,8.815-3.527,10.226,0c2.24,1.599-4.233,2.467,1.057,6.346
	c2.245,0.398,2.419,1.101,4.604,0.651c2.185-0.45,4.406-0.711,6.675-0.742c2.268-0.032,3.278,3.858,5.645,4.322
	c2.148,0.437,4.322,2.403,6.346,3.525c2.026,1.124,4.143,2.645,5.993,4.583c2.821,3.526,5.995,2.821,5.995,7.053
	c0,1.409-0.705,3.525-1.23,4.992c-0.177,2.341,3.17,0.944,4.485,2.712c-0.811,2.101-0.345,4.05,0.621,6.045
	c-0.652,1.954,0.222,4.034,0.38,6.034c0.952,1.276,1.94,2.335,2.86,3.186c1.841,1.699-0.104,5.729-0.064,6.176
	c0.351,3.996,1.544,4.123,2.466,5.053c0.971,0.957,0.359,3.223,0.355,4.583c-0.013,2.722,2.139,1.916,1.551,4.936
	c-0.175,0.901,3.21-0.455,6.017-2.562c2.805-2.107,5.031-4.967,2.539-7.074c1.175-4.467,4.935-3.057,5.642-5.876
	c2.351-7.286,0.645-11.106-0.499-15.249c-1.145-4.146,4.927-14.752-3.264-12.956c0.354-2.469,2.116-12.34-3.299-12.028
	c1.89-5.954-3.596-7.382-6.162-10.856c-1.191-1.725-2.458-3.486-3.84-5.457c-2.492-3.14-5.241-6.068-8.213-8.763
	c-2.97-2.696-6.212-7.816-9.533-7.374c-2.895-4.522-4.209-6.058-10.623-5.867c0.148-7.163-6.74-3.982-11.482-4.242
	c-0.834-1.328-0.202-5.586-9.369-5.821c-1.937-0.05-5.88,0.641-7.756,0.235c-2.408-0.165-3.224,0.897-5.643,0.939
	c-3.626,0.063-5.508-3.158-9.135-2.683c-3.684,0.371-8.802-2.771-10.844,1.977C71.06,8.243,68.25,7.933,67.552,9.45
	c-2.604,0.269-16.992,2.333-13.512,9.158c-4.85,1.508-11.315-2.792-11.194,5.386c1.057-0.705-4.749-3.788-6.611,1.852
	c-4.906,0.265-5.377,5.2-6.082,5.905c-1.41,0.706-3.252,0.961-4.583,1.674c-1.807,0.16-4.937,6.788-7.058,7.547
	C16.39,41.73,16.887,49.334,15.109,52.402z"/>
<ellipse style="fill:#000100;stroke:#000100;stroke-width:3;" cx="107.416" cy="92.894" rx="2.827" ry="2.83"/>
<circle style="fill:#000100;stroke:#000100;stroke-width:3;" cx="71.895" cy="92.894" r="2.83"/>
<g>
	<path style="fill:#000100;" d="M81.605,152.074c-23.832-6.626-29.888-25.633-31.476-30.365l0,0c-0.319-0.913-0.058-2.03,0.58-2.483
		l0,0c0.646-0.457,1.42-0.083,1.74,0.832l0,0c1.651,4.572,6.669,21.765,29.655,28.376l0,0c2.26,0.638,4.646,0.964,7.09,0.964l0,0
		c13.949,0,29.494-10.53,34.754-31.604l0,0c0.24-0.963,0.981-1.466,1.657-1.12l0,0c0.676,0.346,1.022,1.402,0.785,2.371l0,0
		c-5.801,22.978-22.425,34.058-37.196,34.058l0,0C86.593,153.105,84.036,152.761,81.605,152.074L81.605,152.074z"/>
</g>
<line style="fill:#8D3088;stroke:#000100;stroke-width:3;stroke-linecap:round;stroke-linejoin:round;" x1="95.611" y1="424.506" x2="95.438" y2="389.562"/>
<path style="fill:none;stroke:#000100;stroke-width:4.252;stroke-linecap:round;stroke-linejoin:round;" d="M33.576,260.239
	c0,0-8.748,37.648-10.445,51.275c-1.381,11.088-3.166,46.5-3.166,46.5"/>
<path style="fill:none;stroke:#000100;stroke-width:4.252;stroke-linecap:round;stroke-linejoin:round;" d="M145.275,259.239
	c0,0,6.746,40.648,8.443,54.276c1.381,11.087,4.168,44.499,4.168,44.499"/>
<path style="fill:#FCEE21;stroke:#000100;stroke-width:2.8347;stroke-linecap:round;stroke-linejoin:round;" d="M84.498,187.089
	c-4.428,2.13-33.539,7.477-41.354,13.142c-8.562,6.212-26.865,50.55-28.887,53.035c6.643,2.277,33.672,8.881,39.775,11.857
	c4.119-9.847,4.119-16.227,4.119-16.227c0.441,1.458-0.812,12.58-1.391,16.556c-4.709,32.382-15.115,78.628-15.514,78.606
	c17.854,0.848,35.693,0.168,53.652,0.685c22.316,0.643,37.043-2.539,45.584-0.674c0.127-0.095,1.25-0.188,1.369-0.279
	c-2.381-4.461-8.658-49.553-15.318-79.725c-2.246-10.178-0.648-4.14,2.787,0.926c10.287-5.899,20.521-7.873,31.533-13.101
	c-2.441-1.971-17.594-49.508-37.959-55.427c-5.732-1.667-18.746-6.723-28.895-8.798C91.592,198.194,83.748,191.867,84.498,187.089z"
	/>
<line style="fill:#2FAAE1;stroke:#000100;stroke-width:2.8347;stroke-linecap:round;stroke-linejoin:round;" x1="125.5" y1="258.618" x2="122.496" y2="248.787"/>
</svg>
