<?xml version="1.0" encoding="iso-8859-1"?>
<!-- Generator: Adobe Illustrator 21.1.0, SVG Export Plug-In . SVG Version: 6.00 Build 0)  -->
<svg version="1.1" id="Layer_1" xmlns="http://www.w3.org/2000/svg" xmlns:xlink="http://www.w3.org/1999/xlink" x="0px" y="0px"
	 width="187.966px" height="560.052px" viewBox="0 0 187.966 560.052" style="enable-background:new 0 0 187.966 560.052;"
	 xml:space="preserve">
<line style="fill:none;stroke:#000100;stroke-width:5.6693;stroke-linecap:round;stroke-linejoin:round;" x1="78.417" y1="372.852" x2="75.862" y2="502.857"/>
<line style="fill:none;stroke:#000100;stroke-width:5.6693;stroke-linecap:round;stroke-linejoin:round;" x1="115.519" y1="376.989" x2="116.261" y2="502.875"/>
<path style="fill:#1D1E1C;" d="M18.327,350.055c0.127-0.394,0.426-1.058,0.791-1.574c2.51-4.458,5.039-3.153,8.059-2.462
	c3.869,0.886,7.5,7.077,7.689,7.375l6.09,16.352c0.473,0.726,0.267,1.697-0.459,2.166c-0.727,0.473-1.699,0.267-2.168-0.457
	l-5.795-15.898l-0.945-0.324l0.859,30.167c0.086,0.862-0.543,1.628-1.402,1.714c-0.514,0.051-0.99-0.15-1.316-0.507
	c-0.217-0.237-0.363-0.548-0.398-0.898l-1.166-31.23c-0.018-0.196,0.012-0.391,0.062-0.577c-0.408-0.189-0.791-0.355-1.137-0.485
	l-0.668,36.375c-0.02,0.867-0.734,1.551-1.6,1.536c-0.449-0.009-0.848-0.206-1.127-0.512c-0.262-0.284-0.418-0.668-0.41-1.087
	l0.666-36.17c-1.238,0.874-0.402-0.168-0.555,0.546l-2.348,29.708c-0.111,0.86-0.779,1.597-1.639,1.482
	c-0.381-0.048-0.713-0.232-0.953-0.498c-0.301-0.33-0.461-0.782-0.398-1.258l2.512-28.228l-0.721-0.224l-3.998,20.427
	c-0.246,0.759-0.502,0.958-1.262,0.712c-0.246-0.082-0.457-0.223-0.621-0.4c-0.334-0.37-0.471-0.909-0.305-1.42l4.486-23.836
	c0.027-0.067,0.043-0.13,0.068-0.199L18.327,350.055z"/>
<path style="fill:#FCEE21;stroke:#000100;stroke-width:4.252;stroke-linecap:round;stroke-linejoin:round;" d="M115.017,500.298
	c8.701-0.869,19.225,3.636,26.775,6.228c10.549,3.63,19.758,7.951,25.035,15.432c3.289,4.669,6.562,12.727,3.615,17.729
	c-3.973,6.728-11.223,9.201-21.293,10.715c-16.551,2.484-37.512,2.164-47.871-8.575C87.009,527.025,115.017,500.298,115.017,500.298
	z"/>
<path style="fill:#FCEE21;stroke:#000100;stroke-width:4.252;stroke-linecap:round;stroke-linejoin:round;" d="M75.622,498.544
	c11.369,6.674,24.043,28.184,19.07,39.626c-6.695,15.398-35.668,14.229-51.443,11.432c-18.502-3.285-27.754-18.46-19.568-31.02
	C30.874,507.533,75.622,498.544,75.622,498.544z"/>
<g>
	<path style="fill:#000100;stroke:#000100;stroke-width:4.0304;" d="M91.288,182.072c0-3.182-0.137-6.429-0.27-9.565
		c-0.131-3.18-0.271-6.466-0.271-9.729l0,0c0-1.23,1.205-2.222,2.684-2.222c1.482,0,2.682,0.993,2.682,2.222l0,0
		c0,3.187,0.137,6.435,0.27,9.574c0.135,3.178,0.27,6.461,0.27,9.72l0,0c0,1.228-1.199,2.223-2.682,2.223
		C92.487,184.294,91.288,183.3,91.288,182.072L91.288,182.072z"/>
</g>
<g>
	<path style="fill:#000100;stroke:#000100;" d="M71.573,519.568c-2.123-1.512-5.361-1.893-9.303-2.01l0,0
		c-0.17-0.016-0.422-0.02-0.74-0.02l0,0c-2.67-0.039-6.637,0.523-7.803,1.235l0,0l0.006,0.003c-1.189,0.635-2.869,0.459-3.758-0.38
		l0,0c-0.893-0.847-0.654-2.04,0.535-2.673l0,0c3.244-1.643,7.602-1.947,11.02-1.995l0,0c0.346,0,0.727,0,1.078,0.02l0,0
		c4.004,0.143,8.9,0.453,12.729,3.1l0,0c1.053,0.734,1.072,1.942,0.033,2.695l0,0c-0.529,0.38-1.227,0.57-1.92,0.57l0,0
		C72.771,520.115,72.093,519.934,71.573,519.568L71.573,519.568z"/>
</g>
<g>
	<path style="fill:#000100;stroke:#000100;" d="M68.899,531.232c-1.273-1.008-6.379-1.963-9.451-2.24l0,0
		c-1.215-0.143-2.504-0.225-3.773-0.225l0,0c-2.205,0-4.295,0.268-5.92,0.869l0,0c-1.309,0.483-2.934,0.116-3.613-0.816l0,0
		c-0.676-0.938-0.162-2.084,1.15-2.572l0,0c2.678-0.977,5.605-1.288,8.383-1.288l0,0c1.594,0,3.154,0.096,4.615,0.267l0,0
		c3.396,0.43,8.809,1.001,12.324,3.258l0,0c1.068,0.727,1.107,1.935,0.08,2.693l0,0c-0.527,0.391-1.232,0.59-1.936,0.59l0,0
		C70.091,531.768,69.423,531.592,68.899,531.232L68.899,531.232z"/>
</g>
<g>
	<path style="fill:#000100;stroke:#000100;" d="M115.622,519.838c-1.26-0.551-1.666-1.725-0.893-2.621l0,0
		c1.77-1.961,4.729-2.928,7.906-3.673l0,0c3.205-0.722,6.725-1.085,9.801-1.091l0,0c2.106,0.016,3.965,0.139,5.668,0.668l0,0
		c1.352,0.43,1.955,1.557,1.348,2.516l0,0c-0.609,0.96-2.195,1.389-3.547,0.96l0,0c-0.408-0.151-1.805-0.343-3.469-0.323l0,0
		c-2.457-0.006-5.586,0.316-8.182,0.9l0,0c-2.611,0.552-4.598,1.51-4.949,2.025l0,0l0.006,0.002
		c-0.502,0.589-1.389,0.914-2.293,0.914l0,0C116.54,520.115,116.058,520.024,115.622,519.838L115.622,519.838z"/>
</g>
<g>
	<path style="fill:#000100;stroke:#000100;" d="M119.442,529.328c-1.08-0.727-1.123-1.933-0.1-2.697l0,0
		c3.934-2.826,10.936-4.377,17.143-4.445l0,0c1.916,0.002,3.777,0.17,5.506,0.623l0,0c1.385,0.372,2.09,1.469,1.57,2.451l0,0
		c-0.525,0.986-2.066,1.484-3.455,1.114l0,0c-0.877-0.237-2.156-0.377-3.621-0.377l0,0c-4.73-0.06-11.242,1.629-13.256,3.261l0,0
		c-0.521,0.391-1.232,0.596-1.943,0.596l0,0C120.624,529.854,119.962,529.677,119.442,529.328L119.442,529.328z"/>
</g>
<path style="fill:none;stroke:#000100;stroke-width:4.252;stroke-linecap:round;stroke-linejoin:round;" d="M41.21,228.031
	c0,0-11.748,57.283-13.445,70.91c-1.381,11.088-3.166,46.5-3.166,46.5"/>
<path style="fill:none;stroke:#000100;stroke-width:4.252;stroke-linecap:round;stroke-linejoin:round;" d="M142.798,231.832
	c0,0,13.857,55.482,15.555,69.11c1.381,11.087,4.168,44.499,4.168,44.499"/>
<path style="fill:#FF00FF;stroke:#000000;stroke-width:2.8347;stroke-linecap:round;stroke-linejoin:round;" d="M129.167,247.489
	c-2.246-10.178,0,0,8.453-9.361c15.539-11.425,14.516-17.067,15.539-22.039c-2.442-1.971-5.271-17.387-25.629-29.199
	c-5.163-2.996-18.746-9.725-28.895-11.799c-2.41,10.53-10.254,4.203-9.504-0.575c-4.428,2.13-29.537,10.479-37.351,16.143
	c-8.562,6.212-18.355,31.559-20.376,34.043c6.954,8.662,20.734,18.367,26.839,21.343c5.68-3.528,4.543-9.723,4.543-9.723
	c0.441,1.458-0.812,12.58-1.391,16.556C56.687,285.26,50.804,391.75,49.933,394.192c2,0.419,97.764-0.137,101.223,0.711
	c0.338-2.908,0.168-5.723-0.096-8.569C147.93,352.527,135.827,277.662,129.167,247.489z"/>
<path style="fill:#1D1E1C;" d="M169.183,349.435c-0.158-0.383-0.506-1.023-0.906-1.511c-2.836-4.259-5.262-2.768-8.223-1.854
	c-3.791,1.171-6.951,7.616-7.117,7.927l-4.855,16.761c-0.416,0.759-0.139,1.711,0.621,2.126c0.758,0.417,1.713,0.14,2.127-0.617
	l4.596-16.287l0.918-0.395l1.391,30.148c-0.02,0.866,0.662,1.584,1.525,1.605c0.518,0.013,0.977-0.224,1.275-0.604
	c0.199-0.253,0.322-0.574,0.332-0.926L159.7,354.58c0.004-0.197-0.041-0.39-0.105-0.571c0.393-0.22,0.764-0.413,1.098-0.567
	l3.377,36.224c0.084,0.861,0.848,1.492,1.709,1.411c0.447-0.042,0.832-0.267,1.086-0.594c0.238-0.302,0.367-0.697,0.328-1.115
	l-3.361-36.019c1.303,0.78,0.389-0.197,0.596,0.503l4.555,29.452c0.176,0.848,0.898,1.533,1.744,1.356
	c0.377-0.078,0.695-0.287,0.914-0.568c0.277-0.351,0.4-0.814,0.305-1.285l-4.609-27.963l0.701-0.275l5.51,20.071
	c0.303,0.738,0.572,0.918,1.311,0.617c0.24-0.101,0.439-0.257,0.59-0.447c0.307-0.393,0.402-0.941,0.199-1.439l-6.25-23.435
	c-0.033-0.065-0.053-0.127-0.084-0.193L169.183,349.435z"/>
<g>
	<path style="fill:#000100;" d="M167.789,69.344c13.637,34.97-17.21,97.994-17.21,97.994s28.332-30.214,28.326-54.604
		C178.896,79.819,149.25,21.804,167.789,69.344z"/>
	<g>
		
			<circle id="skin" style="fill:#48BF00;stroke:#000100;stroke-width:3.5;stroke-miterlimit:10;" cx="93.193" cy="89.674" r="70.318"/>
		<ellipse style="fill:#000100;stroke:#000100;stroke-width:3;" cx="110.671" cy="74.64" rx="2.933" ry="2.937"/>
		<circle style="fill:#000100;stroke:#000100;stroke-width:3;" cx="73.812" cy="74.64" r="2.937"/>
		<g>
			<path style="fill:#000100;" d="M83.889,136.053c-24.732-6.876-31.016-26.6-32.664-31.509l0,0
				c-0.331-0.948-0.059-2.107,0.602-2.578l0,0c0.67-0.474,1.478-0.087,1.809,0.864l0,0c1.712,4.744,6.917,22.586,30.773,29.446l0,0
				c2.343,0.662,4.819,1.001,7.356,1.001l0,0c14.476,0,30.607-10.928,36.064-32.796l0,0c0.25-1,1.019-1.521,1.72-1.161l0,0
				c0.701,0.357,1.062,1.454,0.814,2.459l0,0c-6.019,23.844-23.271,35.343-38.599,35.343l0,0
				C89.063,137.123,86.412,136.766,83.889,136.053L83.889,136.053z"/>
		</g>
		<path style="fill:#000100;" d="M166.532,45.233c-14.494-19.967-39.581-38.982-73.27-38.982c-17.244,0-33.085,4.987-48.98,15.154
			C0.725,49.263,2.16,101.257,12.1,126.568c12.44,31.683,47.979,41.936,47.979,41.936l-12.887-25.915l-6.527-7.481
			c0.378-0.873-1.5-0.949-5.212-4.868c-1.333-1.407-1.153-3.126-2.834-4.974c-5.62-7.898-9.414-23.414-6.873-40.904
			c3.473-23.913,12.807-30.417,16.644-34.523c0,0-1.862,2.755-5.284,9.991c-2.325,4.915-3.748,11.872-3.748,11.872
			s29.989-16.184,57.404-18.285c16.726-1.282,30.724,0.281,39.678,2.712c2.409,0.653,28.421,23.617,21.827,57.23
			c-3.934,20.05-25.68,63.657-25.68,63.657s38.728-21.714,50.938-53.078C185.079,104.537,182.615,67.396,166.532,45.233z"/>
		<path style="fill:#000100;" d="M40.528,177.262c0,0-29.642-67.918-8.288-129.552C37.276,33.178,6.345,70.39,6.345,94.78
			C6.345,132.336,40.528,177.262,40.528,177.262z"/>
	</g>
</g>
</svg>
