<?xml version="1.0" encoding="iso-8859-1"?>
<!-- Generator: Adobe Illustrator 21.1.0, SVG Export Plug-In . SVG Version: 6.00 Build 0)  -->
<svg version="1.1" id="Layer_1" xmlns="http://www.w3.org/2000/svg" xmlns:xlink="http://www.w3.org/1999/xlink" x="0px" y="0px"
	 width="212.55px" height="603.374px" viewBox="0 0 212.55 603.374" style="enable-background:new 0 0 212.55 603.374;"
	 xml:space="preserve">
<line style="fill:none;stroke:#000100;stroke-width:5.6693;stroke-linecap:round;stroke-linejoin:round;" x1="93.048" y1="459.153" x2="90.494" y2="545.764"/>
<line style="fill:none;stroke:#000100;stroke-width:5.6693;stroke-linecap:round;stroke-linejoin:round;" x1="130.15" y1="459.136" x2="130.892" y2="545.782"/>
<path style="fill:#1D1E1C;" d="M32.958,392.961c0.127-0.394,0.426-1.058,0.791-1.574c2.51-4.458,5.039-3.153,8.059-2.462
	c3.869,0.886,7.5,7.077,7.689,7.375l6.09,16.352c0.473,0.726,0.268,1.697-0.459,2.166c-0.727,0.473-1.699,0.267-2.168-0.457
	l-5.795-15.898l-0.945-0.324l0.859,30.167c0.086,0.862-0.543,1.628-1.402,1.714c-0.514,0.051-0.99-0.15-1.316-0.507
	c-0.217-0.237-0.363-0.548-0.398-0.898l-1.166-31.23c-0.018-0.196,0.012-0.391,0.062-0.577c-0.408-0.189-0.791-0.355-1.137-0.485
	l-0.668,36.375c-0.02,0.867-0.734,1.551-1.6,1.536c-0.449-0.009-0.848-0.206-1.127-0.512c-0.262-0.284-0.418-0.668-0.41-1.087
	l0.666-36.169c-1.238,0.874-0.402-0.168-0.555,0.546L35.68,426.72c-0.111,0.86-0.779,1.597-1.639,1.482
	c-0.381-0.048-0.713-0.232-0.953-0.498c-0.301-0.33-0.461-0.782-0.398-1.258l2.512-28.228l-0.721-0.224l-3.998,20.427
	c-0.246,0.759-0.502,0.959-1.262,0.712c-0.246-0.082-0.457-0.223-0.621-0.4c-0.334-0.37-0.471-0.909-0.305-1.42l4.486-23.836
	c0.027-0.067,0.043-0.13,0.068-0.199L32.958,392.961z"/>
<path style="fill:#1D1E1C;" d="M183.814,392.342c-0.158-0.383-0.506-1.023-0.906-1.511c-2.836-4.259-5.262-2.768-8.223-1.854
	c-3.791,1.171-6.951,7.616-7.117,7.927l-4.855,16.761c-0.416,0.759-0.139,1.712,0.621,2.126c0.758,0.418,1.713,0.14,2.127-0.617
	l4.596-16.287l0.918-0.395l1.391,30.148c-0.02,0.866,0.662,1.584,1.525,1.605c0.518,0.013,0.977-0.224,1.275-0.604
	c0.199-0.253,0.322-0.574,0.332-0.926l-1.166-31.229c0.004-0.197-0.041-0.39-0.105-0.571c0.393-0.22,0.764-0.413,1.098-0.567
	l3.377,36.224c0.084,0.861,0.848,1.492,1.709,1.411c0.447-0.042,0.832-0.267,1.086-0.594c0.238-0.302,0.367-0.697,0.328-1.115
	l-3.361-36.019c1.303,0.78,0.389-0.197,0.596,0.503l4.555,29.452c0.176,0.848,0.898,1.533,1.744,1.356
	c0.377-0.078,0.695-0.287,0.914-0.568c0.277-0.351,0.4-0.815,0.305-1.285l-4.609-27.963l0.701-0.275l5.51,20.071
	c0.303,0.738,0.572,0.919,1.311,0.617c0.24-0.101,0.439-0.257,0.59-0.447c0.307-0.393,0.402-0.941,0.199-1.438l-6.25-23.435
	c-0.033-0.065-0.053-0.127-0.084-0.193L183.814,392.342z"/>
<path style="fill:#FABB0C;stroke:#000100;stroke-width:4.252;stroke-linecap:round;stroke-linejoin:round;" d="M129.648,543.204
	c8.701-0.869,19.225,3.636,26.775,6.228c10.549,3.63,19.758,7.951,25.035,15.432c3.289,4.669,6.562,12.727,3.615,17.729
	c-3.973,6.727-11.223,9.201-21.293,10.715c-16.551,2.484-37.512,2.164-47.871-8.575C101.64,569.932,129.648,543.204,129.648,543.204
	z"/>
<path style="fill:#FABB0C;stroke:#000100;stroke-width:4.252;stroke-linecap:round;stroke-linejoin:round;" d="M90.253,541.451
	c11.369,6.674,24.043,28.184,19.07,39.626c-6.695,15.398-35.668,14.229-51.443,11.432c-18.502-3.285-27.754-18.46-19.568-31.019
	C45.505,550.44,90.253,541.451,90.253,541.451z"/>
<g>
	<path style="fill:#000100;stroke:#000100;stroke-width:3.5809;" d="M105.919,222.447c0-2.512-0.137-5.075-0.27-7.551
		c-0.131-2.511-0.271-5.105-0.271-7.68l0,0c0-0.97,1.205-1.754,2.684-1.754c1.482,0,2.682,0.784,2.682,1.754l0,0
		c0,2.516,0.137,5.08,0.27,7.558c0.135,2.508,0.27,5.1,0.27,7.673l0,0c0,0.969-1.199,1.754-2.682,1.754
		C107.119,224.201,105.919,223.416,105.919,222.447L105.919,222.447z"/>
</g>
<g>
	<path style="fill:#000100;stroke:#000100;" d="M86.204,562.475c-2.123-1.512-5.361-1.893-9.303-2.01l0,0
		c-0.17-0.016-0.422-0.02-0.74-0.02l0,0c-2.67-0.039-6.637,0.523-7.803,1.235l0,0l0.006,0.003c-1.189,0.635-2.869,0.459-3.758-0.38
		l0,0c-0.893-0.847-0.654-2.04,0.535-2.673l0,0c3.244-1.643,7.602-1.947,11.02-1.995l0,0c0.346,0,0.727,0,1.078,0.021l0,0
		c4.004,0.143,8.9,0.453,12.729,3.1l0,0c1.053,0.734,1.072,1.942,0.033,2.695l0,0c-0.529,0.38-1.227,0.57-1.92,0.57l0,0
		C87.402,563.022,86.724,562.84,86.204,562.475L86.204,562.475z"/>
</g>
<g>
	<path style="fill:#000100;stroke:#000100;" d="M83.531,574.139c-1.273-1.008-6.379-1.963-9.451-2.24l0,0
		c-1.215-0.143-2.504-0.225-3.773-0.225l0,0c-2.205,0-4.295,0.268-5.92,0.869l0,0c-1.309,0.483-2.934,0.116-3.613-0.816l0,0
		c-0.676-0.938-0.162-2.084,1.15-2.572l0,0c2.678-0.978,5.605-1.288,8.383-1.288l0,0c1.594,0,3.154,0.096,4.615,0.267l0,0
		c3.396,0.43,8.809,1.001,12.324,3.258l0,0c1.068,0.728,1.107,1.936,0.08,2.693l0,0c-0.527,0.391-1.232,0.59-1.936,0.59l0,0
		C84.722,574.674,84.054,574.498,83.531,574.139L83.531,574.139z"/>
</g>
<g>
	<path style="fill:#000100;stroke:#000100;" d="M130.253,562.744c-1.26-0.551-1.666-1.725-0.893-2.621l0,0
		c1.77-1.961,4.729-2.928,7.906-3.673l0,0c3.205-0.722,6.725-1.085,9.801-1.091l0,0c2.105,0.016,3.965,0.139,5.668,0.668l0,0
		c1.352,0.43,1.955,1.557,1.348,2.516l0,0c-0.609,0.96-2.195,1.389-3.547,0.96l0,0c-0.408-0.151-1.805-0.343-3.469-0.323l0,0
		c-2.457-0.006-5.586,0.316-8.182,0.9l0,0c-2.611,0.552-4.598,1.51-4.949,2.025l0,0l0.006,0.002
		c-0.502,0.589-1.389,0.914-2.293,0.914l0,0C131.171,563.022,130.689,562.931,130.253,562.744L130.253,562.744z"/>
</g>
<g>
	<path style="fill:#000100;stroke:#000100;" d="M134.074,572.235c-1.08-0.727-1.123-1.933-0.1-2.697l0,0
		c3.934-2.826,10.936-4.377,17.143-4.445l0,0c1.916,0.002,3.777,0.17,5.506,0.623l0,0c1.385,0.372,2.09,1.469,1.57,2.451l0,0
		c-0.525,0.986-2.066,1.484-3.455,1.114l0,0c-0.877-0.237-2.156-0.377-3.621-0.377l0,0c-4.73-0.06-11.242,1.629-13.256,3.261l0,0
		c-0.521,0.391-1.232,0.596-1.943,0.596l0,0C135.255,572.76,134.593,572.583,134.074,572.235L134.074,572.235z"/>
</g>
<circle id="skin" style="fill:#A1FF7F;stroke:#000100;stroke-width:3.5;stroke-miterlimit:10;" cx="107.922" cy="118.02" r="87.442"/>
<ellipse style="fill:#000100;stroke:#000100;stroke-width:3;" cx="129.656" cy="99.326" rx="3.648" ry="3.652"/>
<circle style="fill:#000100;stroke:#000100;stroke-width:3;" cx="83.819" cy="99.326" r="3.652"/>
<g>
	<path style="fill:#000100;" d="M96.351,175.694c-30.755-8.551-38.57-33.078-40.618-39.183l0,0c-0.411-1.18-0.074-2.619,0.749-3.205
		l0,0c0.832-0.589,1.834-0.108,2.246,1.074l0,0c2.132,5.9,8.605,28.086,38.269,36.618l0,0c2.915,0.823,5.994,1.243,9.147,1.243l0,0
		c18.002,0,38.062-13.587,44.849-40.782l0,0c0.31-1.243,1.268-1.892,2.139-1.444l0,0c0.871,0.445,1.319,1.809,1.011,3.059l0,0
		c-7.483,29.651-28.937,43.95-47.998,43.95l0,0C102.786,177.024,99.49,176.582,96.351,175.694L96.351,175.694z"/>
</g>
<path style="fill:#8D3088;stroke:#000100;stroke-width:3;stroke-linecap:round;stroke-linejoin:round;" d="M114.702,419.895"/>
<path style="fill:#8D3088;stroke:#000100;stroke-width:3;stroke-linecap:round;stroke-linejoin:round;" d="M114.876,454.84"/>
<path style="fill:none;stroke:#000100;stroke-width:4.252;stroke-linecap:round;stroke-linejoin:round;" d="M52.841,290.572
	c0,0-8.748,37.648-10.445,51.275c-1.381,11.088-3.166,46.5-3.166,46.5"/>
<path style="fill:none;stroke:#000100;stroke-width:4.252;stroke-linecap:round;stroke-linejoin:round;" d="M164.54,289.572
	c0,0,6.746,40.648,8.443,54.276c1.381,11.087,4.168,44.499,4.168,44.499"/>
<path style="fill:#FCEE21;stroke:#000100;stroke-width:2.8347;stroke-linecap:round;stroke-linejoin:round;" d="M103.763,217.422
	c-4.428,2.13-33.539,7.477-41.353,13.142c-8.562,6.212-26.865,50.55-28.887,53.035c6.642,2.277,33.672,8.881,39.775,11.857
	c4.119-9.847,4.119-16.227,4.119-16.227c0.441,1.458-0.812,12.58-1.391,16.556c-4.709,32.382-12.531,164.559-12.93,164.538
	c17.853,0.848,35.693,0.168,53.652,0.685c22.316,0.643,37.043-2.539,45.584-0.674c0.127-0.095-8.119-86.909-8-87
	c-2-14-1.873-48.763-8.533-78.936c-2.246-10.178-0.648-4.14,2.787,0.926c10.287-5.899,20.521-7.874,31.533-13.102
	c-2.441-1.971-17.594-49.508-37.959-55.427c-5.732-1.668-18.746-6.723-28.895-8.798C110.857,228.528,103.013,222.2,103.763,217.422z
	"/>
<line style="fill:none;stroke:#000100;stroke-width:2.8347;stroke-linecap:round;stroke-linejoin:round;" x1="144.765" y1="288.952" x2="141.761" y2="279.12"/>
<path style="fill:#000100;" d="M18.168,62.408c-1.56,2.855-8.731,7.264-6.5,11.592c-12.667,9.333-3.611,12.752-3.934,15.614
	c-0.758,4.135-1.13,7.812-1.173,10.613c-0.043,2.801-3.112,9.936-2.227,20.44c0.952,11.293,11.69,9.965,9.333,17.333
	c-5.333,16.667,4.667,16.667,10,18.001c-2.95,4.56-3.165,3.837-0.667,9.333c3.333,7.333,7.412,6.516,8,8
	c1.775,4.476-6.001,1.333-2.666,8.667c1.938,4.261,5.813,4.917,6.642,6.95c2.575,6.321-3.977,9.716,2.688,10.383
	c2.091,0.209,5.023-9.036,6-11.333c1.079-2.535-5.915-4.096-5.998-6.667c-0.104-3.241,3.678-5.281,1.332-6.001
	c2.651-1.27-1.442-6.269-2.665-11.333c-1.53-6.335-1.334-19.333-6.667-16c9.332-8,1.521-11.768,2.667-12
	c2.68-5.722,5.999-5.333,4.666-14.666c-0.273-1.906-6.664-0.98-6-4c0.666-3.021,3.334,4,4.667-1.334c2.929-18.867,3.344-19.007,2-24
	c10-2.666,11.982-12.956,7.332-18c5.331,6.178,14.45-2.315,18.001-5.333c3.583-2.339,4.243,3.772,36-14.667
	C119.668,42,141.3,45.747,143,50c-2,9.334,14.001,17.334,19.335,16c2.565-0.642,3.893,1.544,5.998,4c8,9.333,11.333-4,9.186,13.429
	C177.311,85.119,195.361,85.275,183,98c-6.804,7.004,1.896,12.228,3.105,13.138c8.227,6.195,0.411,17.685,0.229,18.195
	c-3.335,9.333-2.002,20.666,3.333,25.333c1.236,1.081,8.001,3.333-1.333,5.333c-3.21,0.688-0.937,14.433,2.666,15.333
	c2.666,0.667,10.667,9.333,1.334,10c-6.309,0.451-2.36,15.938-0.667,14.667c0.564-0.424,2.108-3.788,4-6.667
	c3.895-3.121,4.667-22.001-3.333-26.667c-2.667-6.667,16-4.667,10-18.667c-15.335-8-0.072-2.036,1.331-4.667
	c5.334-10-1.663-14.485-2.665-15.333c2-0.666,0.739-2.307,3.334-4.666c7.331-6.667,2.716-10.336,1.333-15.334
	c-1.38-5,5.333-18-1.781-24.571c0.425-2.976,2.552-14.885-3.98-14.508c2.278-7.182-4.339-8.906-7.436-13.096
	c-1.435-2.081-1.806-10.114-3.471-12.492c-3.006-3.787-7.482-1.41-11.067-4.662c-3.584-3.252-7.492-9.428-11.498-8.894
	c-3.493-5.456-5.078-7.308-12.814-7.077c0.178-8.641-14.097-11.856-25.154-12.14c-2.336-0.06-3.2-0.068-5.465-0.56
	c-2.904-0.198-7.748-3.385-10.666-3.333c-4.377,0.076-5.625,4.093-10.002,4.666c-4.441,0.447-11.667-5.935-14.132-0.206
	c-2.542-1.988-13.692-1.624-14.535,0.206c-3.14,0.324-22.186,6.94-22.04,16.806c1.276-0.851-5.727-4.571-7.975,2.233
	c-5.918,0.319-11.26,8.283-12.865,9.143C17.666,43.333,20.312,58.706,18.168,62.408z"/>
</svg>
