<?xml version="1.0" encoding="iso-8859-1"?>
<!-- Generator: Adobe Illustrator 21.1.0, SVG Export Plug-In . SVG Version: 6.00 Build 0)  -->
<svg version="1.1" id="Layer_1" xmlns="http://www.w3.org/2000/svg" xmlns:xlink="http://www.w3.org/1999/xlink" x="0px" y="0px"
	 width="206.256px" height="578.213px" viewBox="0 0 206.256 578.213" style="enable-background:new 0 0 206.256 578.213;"
	 xml:space="preserve">
<line style="fill:none;stroke:#000100;stroke-width:5.6693;stroke-linecap:round;stroke-linejoin:round;" x1="88.409" y1="391.867" x2="85.855" y2="521.872"/>
<line style="fill:none;stroke:#000100;stroke-width:5.6693;stroke-linecap:round;stroke-linejoin:round;" x1="125.511" y1="396.004" x2="126.253" y2="521.89"/>
<path style="fill:#1D1E1C;" d="M28.319,369.07c0.127-0.394,0.426-1.058,0.791-1.574c2.51-4.458,5.039-3.153,8.059-2.462
	c3.869,0.886,7.5,7.077,7.689,7.375l6.09,16.352c0.473,0.726,0.268,1.697-0.459,2.166c-0.727,0.473-1.699,0.267-2.168-0.457
	l-5.795-15.898l-0.945-0.324l0.859,30.167c0.086,0.862-0.543,1.628-1.402,1.714c-0.514,0.051-0.99-0.15-1.316-0.507
	c-0.217-0.237-0.363-0.548-0.398-0.898l-1.166-31.23c-0.018-0.196,0.012-0.391,0.062-0.577c-0.408-0.189-0.791-0.355-1.137-0.485
	l-0.668,36.375c-0.02,0.867-0.734,1.551-1.6,1.536c-0.449-0.009-0.848-0.206-1.127-0.512c-0.262-0.284-0.418-0.668-0.41-1.087
	l0.666-36.169c-1.238,0.874-0.402-0.168-0.555,0.546l-2.348,29.708c-0.111,0.86-0.779,1.597-1.639,1.482
	c-0.381-0.048-0.713-0.232-0.953-0.498c-0.301-0.33-0.461-0.782-0.398-1.258l2.512-28.228l-0.721-0.224l-3.998,20.427
	c-0.246,0.759-0.502,0.958-1.262,0.712c-0.246-0.082-0.457-0.223-0.621-0.4c-0.334-0.37-0.471-0.909-0.305-1.42l4.486-23.837
	c0.027-0.067,0.043-0.13,0.068-0.199L28.319,369.07z"/>
<path style="fill:#E5007E;stroke:#000100;stroke-width:4.252;stroke-linecap:round;stroke-linejoin:round;" d="M125.009,519.313
	c8.701-0.869,19.225,3.636,26.775,6.228c10.549,3.63,19.758,7.951,25.035,15.432c3.289,4.669,6.563,12.727,3.615,17.728
	c-3.973,6.728-11.223,9.201-21.293,10.715c-16.551,2.484-37.512,2.164-47.871-8.575C97.001,546.04,125.009,519.313,125.009,519.313z
	"/>
<path style="fill:#E5007E;stroke:#000100;stroke-width:4.252;stroke-linecap:round;stroke-linejoin:round;" d="M85.614,517.559
	c11.369,6.674,24.043,28.184,19.07,39.626c-6.695,15.398-35.668,14.229-51.443,11.432c-18.502-3.285-27.754-18.46-19.568-31.019
	C40.866,526.548,85.614,517.559,85.614,517.559z"/>
<g>
	<path style="fill:#000100;stroke:#000100;stroke-width:4.0304;" d="M101.28,198.368c0-2.78-0.137-5.616-0.27-8.356
		c-0.131-2.778-0.271-5.65-0.271-8.499l0,0c0-1.074,1.205-1.941,2.684-1.941c1.482,0,2.682,0.867,2.682,1.941l0,0
		c0,2.784,0.137,5.621,0.27,8.364c0.135,2.776,0.27,5.645,0.27,8.492l0,0c0,1.073-1.199,1.942-2.682,1.942
		C102.48,200.309,101.28,199.441,101.28,198.368L101.28,198.368z"/>
</g>
<g>
	<path style="fill:#000100;stroke:#000100;" d="M81.566,538.583c-2.123-1.512-5.361-1.893-9.303-2.01l0,0
		c-0.17-0.016-0.422-0.02-0.74-0.02l0,0c-2.67-0.039-6.637,0.523-7.803,1.235l0,0l0.006,0.003c-1.189,0.635-2.869,0.459-3.758-0.38
		l0,0c-0.893-0.847-0.654-2.04,0.535-2.673l0,0c3.244-1.643,7.601-1.947,11.019-1.995l0,0c0.346,0,0.727,0,1.078,0.021l0,0
		c4.004,0.143,8.9,0.453,12.729,3.1l0,0c1.053,0.734,1.072,1.942,0.033,2.695l0,0c-0.529,0.38-1.227,0.57-1.92,0.57l0,0
		C82.763,539.13,82.085,538.949,81.566,538.583L81.566,538.583z"/>
</g>
<g>
	<path style="fill:#000100;stroke:#000100;" d="M78.892,550.247c-1.273-1.008-6.379-1.963-9.451-2.24l0,0
		c-1.215-0.143-2.504-0.225-3.773-0.225l0,0c-2.205,0-4.295,0.268-5.92,0.869l0,0c-1.309,0.483-2.934,0.116-3.613-0.816l0,0
		c-0.676-0.938-0.162-2.084,1.15-2.572l0,0c2.678-0.977,5.605-1.288,8.383-1.288l0,0c1.594,0,3.154,0.096,4.615,0.267l0,0
		c3.396,0.43,8.809,1.001,12.324,3.258l0,0c1.068,0.728,1.107,1.936,0.08,2.693l0,0c-0.527,0.391-1.232,0.59-1.936,0.59l0,0
		C80.083,550.783,79.415,550.607,78.892,550.247L78.892,550.247z"/>
</g>
<g>
	<path style="fill:#000100;stroke:#000100;" d="M125.614,538.853c-1.26-0.551-1.666-1.725-0.893-2.621l0,0
		c1.77-1.961,4.729-2.928,7.906-3.673l0,0c3.205-0.722,6.725-1.085,9.801-1.091l0,0c2.105,0.016,3.965,0.139,5.668,0.668l0,0
		c1.352,0.43,1.955,1.557,1.348,2.516l0,0c-0.609,0.96-2.195,1.389-3.547,0.96l0,0c-0.408-0.151-1.805-0.343-3.469-0.323l0,0
		c-2.457-0.006-5.586,0.316-8.182,0.9l0,0c-2.611,0.552-4.598,1.51-4.949,2.025l0,0l0.006,0.002
		c-0.502,0.589-1.389,0.914-2.293,0.914l0,0C126.532,539.13,126.05,539.039,125.614,538.853L125.614,538.853z"/>
</g>
<g>
	<path style="fill:#000100;stroke:#000100;" d="M129.435,548.343c-1.08-0.727-1.123-1.933-0.1-2.697l0,0
		c3.934-2.826,10.936-4.377,17.143-4.445l0,0c1.916,0.002,3.777,0.17,5.506,0.623l0,0c1.385,0.372,2.09,1.469,1.57,2.451l0,0
		c-0.525,0.986-2.066,1.484-3.455,1.114l0,0c-0.877-0.237-2.156-0.377-3.621-0.377l0,0c-4.73-0.06-11.242,1.629-13.256,3.261l0,0
		c-0.521,0.391-1.232,0.596-1.943,0.596l0,0C130.616,548.869,129.954,548.692,129.435,548.343L129.435,548.343z"/>
</g>
<path style="fill:none;stroke:#000100;stroke-width:4.252;stroke-linecap:round;stroke-linejoin:round;" d="M51.202,247.046
	c0,0-11.748,57.283-13.445,70.91c-1.381,11.088-3.166,46.5-3.166,46.5"/>
<path style="fill:none;stroke:#000100;stroke-width:4.252;stroke-linecap:round;stroke-linejoin:round;" d="M152.79,250.847
	c0,0,13.857,55.482,15.555,69.11c1.381,11.087,4.168,44.499,4.168,44.499"/>
<path style="fill:#BBFF00;stroke:#000000;stroke-width:2.8347;stroke-linecap:round;stroke-linejoin:round;" d="M139.159,266.504
	c-2.246-10.178,0,0,8.453-9.361c15.539-11.425,14.516-17.067,15.539-22.039c-2.442-1.971-5.271-17.387-25.629-29.199
	c-5.163-2.996-18.746-9.725-28.895-11.799c-2.41,10.53-10.254,4.203-9.504-0.575c-4.428,2.13-29.537,10.479-37.352,16.143
	c-8.562,6.212-18.355,31.559-20.376,34.043c6.954,8.662,20.734,18.367,26.839,21.343c5.68-3.528,4.543-9.723,4.543-9.723
	c0.441,1.458-0.812,12.58-1.391,16.556c-4.709,32.382-10.592,138.872-11.463,141.314c2,0.418,97.764-0.137,101.223,0.711
	c0.338-2.908,0.168-5.723-0.096-8.569C157.922,371.542,145.819,296.677,139.159,266.504z"/>
<g>
	
		<circle id="skin" style="fill:#1FAA00;stroke:#000100;stroke-width:4;stroke-miterlimit:10;" cx="102.038" cy="99.319" r="78.253"/>
	<ellipse style="fill:#000100;stroke:#000100;stroke-width:3;" cx="121.488" cy="82.588" rx="3.265" ry="3.268"/>
	<circle style="fill:#000100;stroke:#000100;stroke-width:3;" cx="80.469" cy="82.588" r="3.268"/>
	<g>
		<path style="fill:#000100;" d="M91.683,150.932c-27.522-7.653-34.516-29.603-36.35-35.066l0,0
			c-0.368-1.056-0.065-2.343,0.671-2.869l0,0c0.745-0.526,1.641-0.095,2.011,0.961l0,0c1.906,5.281,7.699,25.135,34.246,32.771l0,0
			c2.608,0.736,5.363,1.112,8.185,1.112l0,0c16.11,0,34.061-12.16,40.136-36.495l0,0c0.277-1.113,1.136-1.694,1.914-1.293l0,0
			c0.779,0.398,1.182,1.62,0.906,2.737l0,0c-6.698,26.534-25.895,39.331-42.956,39.331l0,0
			C97.442,152.121,94.492,151.725,91.683,150.932L91.683,150.932z"/>
	</g>
	<path style="fill:#000100;" d="M183.65,49.863c-16.127-22.22-44.048-44.466-81.535-44.466c-19.191,0-37.529,5.595-54.507,17.951
		c-8.965,6.526-28.679,25.623-35.356,49.785c-8.538,28.862-7.199,43.68-0.459,67.244c0.948,3.314,7.28,18.815,11.992,28.491
		c22.734,2.18,43.706,0,44.061,0l-16.999-10.663l-7.263-8.325c0.42-0.972-1.671-1.055-5.801-5.416
		c-1.483-1.566-1.284-3.48-3.154-5.536c-6.254-8.789-10.476-26.056-7.647-45.52c3.865-26.611,14.252-33.848,18.521-38.418
		c0,0-3.91,5.036-5.879,11.118c-1.864,5.756-3.769,10.314-3.769,10.314s32.97-15.113,63.478-17.452
		c31.125-2.385,55.319,7.826,55.319,7.826s19.052,24.081,13.127,58.882c-3.816,22.413-27.298,41.81-27.298,41.81
		s41.142,1.859,43.747-2.763c3.677-6.524,6.296-11.206,11.658-27.275C203.219,115.471,201.549,74.528,183.65,49.863z"/>
</g>
<path style="fill:#1D1E1C;" d="M179.175,368.451c-0.158-0.383-0.506-1.023-0.906-1.511c-2.836-4.259-5.262-2.768-8.223-1.854
	c-3.791,1.171-6.951,7.616-7.117,7.927l-4.855,16.761c-0.416,0.759-0.139,1.711,0.621,2.126c0.758,0.418,1.713,0.14,2.127-0.617
	l4.596-16.287l0.918-0.395l1.391,30.148c-0.02,0.866,0.662,1.584,1.525,1.605c0.518,0.013,0.977-0.224,1.275-0.604
	c0.199-0.253,0.322-0.574,0.332-0.926l-1.166-31.229c0.004-0.197-0.041-0.39-0.105-0.571c0.393-0.22,0.764-0.413,1.098-0.567
	l3.377,36.224c0.084,0.861,0.848,1.492,1.709,1.411c0.447-0.042,0.832-0.267,1.086-0.594c0.238-0.302,0.367-0.697,0.328-1.115
	l-3.361-36.019c1.303,0.78,0.389-0.197,0.596,0.503l4.555,29.452c0.176,0.848,0.898,1.533,1.744,1.356
	c0.377-0.078,0.695-0.287,0.914-0.568c0.277-0.351,0.4-0.814,0.305-1.285l-4.609-27.963l0.701-0.275l5.51,20.071
	c0.303,0.738,0.572,0.919,1.311,0.617c0.24-0.101,0.439-0.257,0.59-0.447c0.307-0.394,0.402-0.941,0.199-1.438l-6.25-23.435
	c-0.033-0.065-0.053-0.127-0.084-0.193L179.175,368.451z"/>
<line style="fill:#FF3F00;stroke:#000000;stroke-width:2.8347;stroke-linecap:round;stroke-linejoin:round;" x1="136.256" y1="251.213" x2="138.256" y2="262.213"/>
</svg>
