<?xml version="1.0" encoding="iso-8859-1"?>
<!-- Generator: Adobe Illustrator 21.1.0, SVG Export Plug-In . SVG Version: 6.00 Build 0)  -->
<svg version="1.1" id="cupboard" xmlns="http://www.w3.org/2000/svg" xmlns:xlink="http://www.w3.org/1999/xlink" x="0px" y="0px"
	 width="270.128px" height="222.201px" viewBox="0 0 270.128 222.201" style="enable-background:new 0 0 270.128 222.201;"
	 xml:space="preserve">
<g>
	<path style="fill:#FFFFFF;" d="M33.462,73.534c0,0-11.333-4.666-13.333-1.333c-2.435,4.057-10.667,0-8.573,13.649
		c0.581,3.788-3.427,2.851-3.998,8.645c-0.409,4.146-1.45,11.041,5.904,14.372c7.354,3.332,3.007-0.332,9.167,1.333
		c6.159,1.665,15.928,2.327,15.928,2.327l5.203-9.07c0,0,15.792-12.141,4.823-14.2C37.614,87.2,36.08,83.284,36.08,83.284
		L33.462,73.534z"/>
	<path d="M33.462,73.534c-1.667-0.6-3.368-1.092-5.08-1.512c-1.708-0.404-3.459-0.738-5.177-0.695
		c-0.842,0.03-1.721,0.171-2.308,0.621c-0.144,0.111-0.264,0.24-0.358,0.384c-0.092,0.149-0.228,0.38-0.392,0.578
		c-0.307,0.391-0.693,0.711-1.098,0.971c-1.652,1.005-3.471,1.227-4.835,2.128c-1.395,0.846-2.08,2.396-2.271,4.057
		c-0.204,1.665-0.056,3.403,0.196,5.115c0.144,0.804,0.348,1.982-0.189,3.015c-0.526,1.018-1.312,1.568-1.846,2.177
		c-1.138,1.162-1.608,2.664-1.726,4.349c-0.169,1.77-0.329,3.48-0.197,5.153c0.124,1.665,0.549,3.272,1.402,4.616
		c0.843,1.349,2.105,2.401,3.561,3.155c0.711,0.369,1.549,0.72,2.332,1.04c0.772,0.306,1.643,0.624,2.231,0.663
		c0.301-0.005,0.167,0.021,0.795-0.289c0.594-0.279,1.247-0.318,1.751-0.291c1.035,0.06,1.939,0.297,2.809,0.524
		c1.663,0.429,3.382,0.75,5.105,1.043c3.45,0.568,6.964,0.96,10.452,1.243l-0.889,0.475l5.279-9.025
		c0.058-0.1,0.137-0.187,0.223-0.255c2.168-1.705,4.304-3.575,6.094-5.662c0.881-1.044,1.708-2.165,2.173-3.352
		c0.229-0.59,0.346-1.193,0.254-1.715c-0.086-0.521-0.405-0.964-0.896-1.312c-1-0.723-2.39-0.897-3.804-1.237
		c-1.396-0.33-2.779-0.735-4.129-1.239c-1.348-0.503-2.67-1.1-3.903-1.862c-1.21-0.787-2.422-1.646-3.134-3.036l-0.005-0.014
		l-0.002-0.008L33.462,73.534z M33.462,73.534l2.817,9.696l-0.007-0.021c0.656,1.129,1.887,1.968,3.075,2.633
		c1.22,0.667,2.528,1.175,3.862,1.592c1.336,0.415,2.701,0.738,4.075,1.015c1.329,0.284,2.88,0.365,4.271,1.262
		c0.686,0.432,1.316,1.184,1.493,2.072c0.188,0.878,0.02,1.725-0.24,2.457c-0.539,1.478-1.409,2.689-2.315,3.835
		c-1.855,2.269-3.94,4.239-6.208,6.067l0.222-0.255l-5.126,9.114c-0.183,0.326-0.533,0.501-0.883,0.477l-0.007,0
		c-3.571-0.25-7.102-0.629-10.643-1.183c-1.769-0.279-3.533-0.619-5.294-1.09c-0.838-0.229-1.662-0.432-2.397-0.476
		c-0.375-0.019-0.633,0.01-0.846,0.109c-0.118,0.046-0.321,0.185-0.673,0.316c-0.35,0.128-0.734,0.157-1.034,0.137
		c-1.184-0.115-1.978-0.487-2.849-0.816c-0.852-0.356-1.649-0.691-2.508-1.139c-1.671-0.887-3.213-2.198-4.227-3.879
		c-1.028-1.673-1.486-3.605-1.596-5.462c-0.117-1.865,0.085-3.695,0.282-5.442c0.097-0.914,0.289-1.884,0.665-2.794
		c0.365-0.916,0.964-1.767,1.64-2.437c0.668-0.676,1.367-1.199,1.663-1.775c0.324-0.573,0.268-1.27,0.128-2.185
		c-0.213-1.789-0.331-3.618-0.057-5.469c0.144-0.921,0.401-1.854,0.877-2.711c0.474-0.855,1.196-1.593,2.025-2.084
		c1.658-1.003,3.518-1.177,4.928-1.991c0.346-0.205,0.659-0.448,0.911-0.745c0.127-0.138,0.219-0.289,0.371-0.507
		c0.16-0.219,0.358-0.405,0.573-0.553c0.884-0.58,1.865-0.633,2.769-0.629c1.831,0.055,3.572,0.494,5.277,0.993
		C30.182,72.183,31.84,72.824,33.462,73.534z"/>
</g>
<g>
	<path d="M131.022,189.475c-0.04,0.12-0.13,0.28-0.3,0.18c-1.59-0.939-3.56-1.43-5.4-1.98c-1.66-1.011-2.57-2.8-2.789-5.24
		c-0.201-2.32-0.16-5.09,0.1-7.43c0.029-0.311,0.449,0.019,0.52,0.069c2.109,1.46,5.91,1.16,7.609-0.23
		c0.111-0.09,0.341-0.21,0.461-0.011c0.64,1.051,0.93,2.671,1.07,4.101C132.652,182.695,131.952,186.426,131.022,189.475z
		 M79.331,191.355c-0.229,0.35-0.41,0.75-0.629,1.16c-1.291-1.19-2.98-2.021-4.631-2.69c-0.47-0.55-0.88-0.939-1.23-1.199
		c-1.67-2.791-1.819-7.211-1.43-11.16c0.141-1.441,0.301-2.83,0.5-4.191c3.99-0.85,6.98-2.649,9.25-5.08
		c0.78,1.44,1.291,3.311,1.45,5.05c0.13,1.34,0.03,2.7,0.07,4.011C82.852,182.966,81.612,187.876,79.331,191.355z M263.702,44.495
		c-0.011-0.1-0.021-0.359-0.041-0.449c-0.869-4.101-2.82-7.25-5.4-9.73c-2.989-2.89-7.059-4.67-11.649-5.96
		c-4.25-1.2-9.409-1.42-14.55-1.5c-5.71-0.1-10.971,0.09-16.26-0.44c-0.471-2.739-2.32-4.13-4.961-4.59l-1.879,0.061
		c0.619-1,1-2.15,1.14-3.54c0.271-2.96-1.091-4.72-3.309-5.431c-3.91-0.39-6.531,1.28-8.681,3.131c0.16-1.32,0.07-2.49-0.23-3.65
		c-0.541-2.07-1.65-3.79-4.19-3.97c-3.601,0.45-5.84,2.45-8.06,4.47c0.1-2.26-0.75-3.79-1.871-4.89c-2.17-1.38-5.279-0.46-6.829,0.8
		c-1.31,1.07-2.39,2.46-3.49,3.859c-0.2-1.76-1-2.939-1.87-3.97c-0.64-1.47-3.22-1.979-4.88-1.14c-2.101,1.82-3.941,3.89-5.33,6.58
		c-0.37-0.79-0.71-1.12-1.079-1.67c-0.881-1.29-3.07-2.61-5-1.641c-2.271,1.59-3.621,4.16-4.681,7.181
		c-1.24-1.681-2.899-2.83-5.25-3.21c-3.399,0.109-4.979,2.21-6.02,4.84c-0.379-0.67-0.6-1.24-1-1.75
		c-1.949-2.51-4.029-5.08-8.709-4.851c-3.82,0.731-5.9,3.33-7.281,6.66c-0.58-0.7-1.029-1.399-1.619-1.95
		c-3.12-2.859-10.1-1.63-11.95,1.471l-2.28,3.029c-1.189-1.91-2.6-3.54-4.83-4.3c-0.609-0.2-1.3-0.31-2-0.27
		c-3.56,0.18-6.029,1.729-7.9,3.739c-1.309,1.41-2.159,3.32-3.26,5.12c-2.06-2.89-6.729-5.6-11.209-3.63
		c-3.98,2.24-6.42,6.16-7.801,11.05c-0.34-0.29-0.859-0.47-1.27-0.79c-3.27-2.479-9.75-1.869-12.141,0.891
		c-2.75,2.58-4.549,6.25-5.029,11.22c-2.961-1.08-7.18-0.899-8.98,0.88c-3.65,3.62-6.13,10.79-4.34,17.721
		c-3.26-0.211-5.891,0.38-7.96,1.52c-1.42,0.78-2.61,1.86-3.23,3.47c-1.351,6.54,0.99,12.49,3.689,16.54
		c-4.699,1.01-7.65,4.09-9.12,8.45c-1.42,5.62,0.851,11.18,3.64,14.22c-1.149,0.76-2.299,1.801-3.189,2.84
		c-4.42,3.65-4.09,13.92,0.65,16.83c-0.451,0.36,7.166-2.044-0.311,8.131c0.851-1.158-0.59,3.27-0.33,4.869
		c0.2,1.261,0.53,2.511,0.961,3.631c1.529,4.029,5.52,6.609,11.209,6.05c-0.51,1.17-0.97,2.33-1.09,3.76
		c-0.311,3.43,1.051,5.63,3.641,6.25c3.49,0.84,6.74-0.27,9.189-1.55c-0.29,0.85-0.35,1.76-0.279,2.71
		c0.239,3.46,2.01,5.66,5.229,6.21c4.659,0.779,8.159-1.27,11.12-3.24c0.02,3.22,1.209,5.2,2.859,6.78
		c0.131,0.109,0.19,0.29,0.211,0.47c0.989,7.44-1.621,13.37-4.511,17.78c-1.851,2.819-3.649,5.64-4.659,9.33
		c-0.17,0.609-0.181,1.26,0.02,1.859c1.4,4.03,4.619,6.311,7.91,8.54c4.14,2.79,11.729,4.681,17.859,2.561
		c2.18-0.38,4.1-1.28,4.66-3.21c4.82,1.409,9.91-0.261,12.82-2.271c1.74-1.18,3.65-3.42,2.5-6.42c-0.04-0.109,0.09-0.359,0.02-0.59
		c-1.279-4.66-4.209-7.811-7.68-10.38c-3.391-1.84-5.63-4.89-6.17-9.5c0.15-1.37,0.15-2.94,0.15-4.53c1.75,0.4,3.6,0,4.91-0.53
		c2.68-1.1,4.609-3,6.719-4.77c0.141,2.149,1.011,3.64,1.99,4.94c1.35,1.779,3.92,3.31,7.041,2.459
		c3.34-0.92,5.449-3.149,7.719-5.35c0.281,1.59,1.011,2.891,1.041,4.61c0.81,4.59,0.24,9.79-1.74,12.83
		c-2.62,4.05-5.01,8.489-5.66,14.59c-0.17,1.61,0,3.22,0.73,4.28c0.67,0.979,1.549,1.81,2.469,2.55
		c4.621,3.739,13.98,6.01,21.531,3.58c2.85-0.57,5.069-1.74,5.939-4.17c4.63,0.21,8.13-1.16,10.95-2.931
		c2.59-1.62,4.909-3.58,5.46-7.01c-0.561-4.189-2.78-6.62-5.471-8.53c-2.609-1.859-6.319-2.67-9.76-3.739
		c-0.89-0.28-1.8-0.65-2.129-1.551c-0.681-1.84-0.91-4.229-1.07-6.41c-0.291-3.89,0.959-7.109,1.68-10.329
		c0.061-0.24,0.26-0.29,0.4-0.261c1.949,0.381,3.84-0.239,4.869-1.119l1.51,1.119c9.261,7.03,20.361,12.601,36.84,12.391
		c1.711-0.2,3.591-0.25,5.16-0.57c5.041-1.02,8.81-3.39,11.541-6.79l1.299-2.019c0.07-0.11,0.211-0.07,0.391-0.011
		c3.02,0.96,6.68,0.931,9.57-0.1c8.811-3.17,15.25-8.96,20.13-16.16c5.2-7.65,8.8-16.84,11.441-27.08
		c2.64-10.25,4.42-23.55,2.689-35.72c-1.37-9.601-3.641-18.34-6.98-26.101c-2.299-5.35-4.899-10.399-7.959-14.939l4.039,1.15
		c4.51,1.409,9.27,2.559,15.051,2.729c0.85,0.021,1.949,0.03,2.82-0.09c1.51-0.22,2.879-0.33,4.039-0.84
		C260.741,53.335,264.122,50.495,263.702,44.495z"/>
	<path style="fill:none;stroke:#000000;stroke-width:0.6982;stroke-linecap:round;stroke-linejoin:round;" d="M130.022,189.475
		c-0.04,0.12-0.13,0.28-0.3,0.18c-1.59-0.939-3.56-1.43-5.4-1.98c-1.66-1.011-2.57-2.8-2.789-5.24c-0.201-2.32-0.16-5.09,0.1-7.43
		c0.029-0.311,0.449,0.019,0.52,0.069c2.109,1.46,5.91,1.16,7.609-0.23c0.111-0.09,0.341-0.21,0.461-0.011
		c0.64,1.051,0.93,2.671,1.07,4.101C131.652,182.695,130.952,186.426,130.022,189.475z M78.331,191.355
		c-0.229,0.35-0.41,0.75-0.629,1.16c-1.291-1.19-2.98-2.021-4.631-2.69c-0.47-0.55-0.88-0.939-1.23-1.199
		c-1.67-2.791-1.819-7.211-1.43-11.16c0.141-1.441,0.301-2.83,0.5-4.191c3.99-0.85,6.98-2.649,9.25-5.08
		c0.78,1.44,1.291,3.311,1.45,5.05c0.13,1.34,0.03,2.7,0.07,4.011C81.852,182.966,80.612,187.876,78.331,191.355z"/>
	<path d="M202.828,34.058c-0.08,0-0.15,0.021-0.23,0.03c0.159-0.28,0.31-0.58,0.449-0.9c0.16,0.381,0.37,0.74,0.61,1.08
		C203.388,34.129,203.109,34.038,202.828,34.058z M190.769,34.739c0.069,0.069,0.129,0.129,0.189,0.18
		c-0.13,0.1-0.24,0.21-0.34,0.32C190.668,35.079,190.728,34.909,190.769,34.739z M193.398,37.038
		c-0.449-0.279-0.799-0.68-1.149-1.069c1.09,0.75,2.271,1.26,3.46,1.479c-0.21,0.03-0.4,0.051-0.6,0.051
		C194.519,37.499,193.939,37.368,193.398,37.038z M189.308,37.698c-0.09,0.141-0.189,0.271-0.3,0.4
		c-0.11,0.12-0.239,0.25-0.39,0.391C188.859,38.239,189.088,37.978,189.308,37.698z M177.849,36.788
		c0.199-0.289,0.399-0.569,0.6-0.829c0.42,1.26,1.02,2.25,1.72,2.979C179.239,38.188,178.418,37.379,177.849,36.788z
		 M181.939,40.159c1.52,0.64,3.23,0.489,4.77-0.28c-0.8,0.489-1.63,0.88-2.21,0.97c-0.11,0.01-0.229,0.019-0.34,0.019
		C183.468,40.868,182.708,40.589,181.939,40.159z M218.718,40.358c-0.91-0.71-1.29-1.8-1.97-2.63c-0.02-0.03-0.05-0.05-0.07-0.08
		c1.44,1.32,2.86,2.78,3.99,3.811C220.099,41.028,219.258,40.778,218.718,40.358z M177.489,37.308c-0.931,2.4-2.12,4.55-4.72,5.32
		c-0.03,0.01-0.061,0.019-0.091,0.019C174.808,41.598,176.138,39.329,177.489,37.308z M125.769,42.018
		c-0.11,0.061-0.211,0.13-0.32,0.2c0.16-0.181,0.279-0.351,0.35-0.5c0.13-0.26,0.16-0.58,0.141-0.95
		c0.029-0.029,0.06-0.05,0.09-0.08c-0.03-0.02-0.061-0.04-0.09-0.07c-0.061-1.01-0.381-2.299,0.029-3.379
		c0.811-2.141,1.471-2.23,3.481-2.971c2.42-0.91,1.66-0.67,2.16-2.85c0.33-1.46,0.42-3.59,1.809-4.62c0.4-0.29,0.87-0.351,1.36-0.31
		c-0.101,0.02-0.2,0.06-0.301,0.1c-1.619,0.67-2.949,2.39-2.47,4.79c0.15,0.69,0.431,1.34,0.72,1.95c0.051,0.1,0.061,0.5,0,0.649
		c-0.16,0.431-0.72,0.261-1.1,0.31c-0.91,0.131-1.98,0.041-2.73,0.4c-1.68,0.811-3.09,2.631-2.539,4.93
		c0.6,0.711,1.35,1.211,1.74,2.03c-0.181,0.091-0.371,0.04-0.371,0.04c-0.229,0.301-0.47,0.6-0.699,0.91
		c-0.021-0.07-0.051-0.13-0.07-0.19l0.7-0.931c-0.7,0.13-1.33,0.601-1.82,1.24C125.818,42.489,125.798,42.249,125.769,42.018z
		 M168.118,43.108c-1.18-0.25-2.44-2.02-3.721-1.75c-0.17,0.04-0.33,0.131-0.47,0.25c0.011-0.609-0.05-1.25-0.17-1.93
		c0.74,0.72,1.57,1.46,2.46,2.07c0.17,0.13,0.36,0.25,0.551,0.35c0.899,0.54,1.859,0.939,2.85,1.07c-0.2,0.02-0.391,0.02-0.58,0.02
		C168.698,43.188,168.378,43.169,168.118,43.108z M151.078,46.788c-0.04-0.109-0.08-0.219-0.13-0.34
		c0.16,0.131,0.32,0.25,0.49,0.371C151.318,46.808,151.198,46.788,151.078,46.788z M155.439,48.478c0.819,0.13,1.64,0.13,2.42,0.03
		c-0.4,0.16-0.78,0.23-1.141,0.23C156.279,48.739,155.859,48.638,155.439,48.478z M130.189,48.959c-1.541,0-2.52-0.25-3.15-0.7
		c1.15,0.25,2.49,0.05,3.56,0.42c-0.141,0.16-0.27,0.33-0.4,0.52C130.198,49.118,130.189,49.038,130.189,48.959z M145.148,53.579
		c1.66-0.16,3.291-0.83,4.461-1.86c-0.45,0.75-1.17,1.351-2.42,1.729c-0.45,0.131-0.871,0.19-1.28,0.19
		C145.648,53.638,145.398,53.618,145.148,53.579z M139.048,50.388c0.221,0.46,0.48,0.88,0.77,1.229
		c-0.579,3.271-2.76,6.051-5.609,6.971C136.888,57.499,138.248,52.518,139.048,50.388z M129.788,58.499
		c-0.02-0.03-0.04-0.061-0.07-0.09c-0.029-0.391-0.229-0.81-0.21-1.17l-0.14-0.99c0.38,0.77,0.949,1.439,1.779,1.93
		c0.86,0.51,1.631,0.68,2.33,0.6c-0.43,0.08-0.879,0.131-1.33,0.131C131.388,58.909,130.599,58.778,129.788,58.499z M122.448,64.118
		c1.27-2.899,2.72-5.709,4.57-8.209c0.539-0.73,1.22-1.681,1.819-2.7c-0.02,0.17-0.02,0.35-0.02,0.52
		c-1.67,1.521-2.76,4.32-3.84,6.32c-1.189,2.2-2.3,4.42-3.5,6.62c-0.119,0.229-0.25,0.46-0.369,0.689
		C121.558,66.288,121.998,65.198,122.448,64.118z M108.668,88.629c-0.2,0.36-0.36,0.71-0.46,1.06c-0.07,0.21-0.109,0.43-0.141,0.66
		c-1.159,1.46-2.829,2.65-4.479,3.77C105.368,92.358,107.068,90.509,108.668,88.629z M108.048,92.278
		c0.061,1.051,0.2,2.131,0.16,3.021c-0.02,0.399-0.03,0.79-0.05,1.18C108.048,95.118,107.958,93.608,108.048,92.278z
		 M72.529,101.358c-2.461-3.08-3.461-8.72-2.32-13.949c1.28-5.851,4.55-9.65,8.03-13.23c4.42-4.54,9.68-8.18,15.22-11.55
		c6.02-3.66,12.25-7.05,18.04-10.87c2.58-1.689,5.04-3.51,7.44-5.4h0.8c0.689-0.479,2.409-1.52,3.86-2.57
		c-0.32,0.36-0.601,0.73-0.83,1.11l-0.16,0.14c-3.12,2.57-6.25,5.091-9.681,7.36c-4.21,2.771-8.5,5.521-12.97,8.04
		c-4.85,2.73-9.561,5.61-13.9,8.86c-3.709,2.8-7.069,6.02-10.02,9.62c-3.05,3.75-5.641,9.71-4.311,16.529
		c0.49,2.481,1.601,4.42,3.2,5.871c-0.68-0.141-1.34-0.301-1.97-0.5l5.35,3.489c1.37-0.01,2.66,0.521,4.01,0.53
		c1.61,0,3.181-0.49,4.801-0.94c1.82-0.51,3.82-1.01,5.69-1.7c-0.27,0.24-0.539,0.481-0.8,0.73c0.24,0.18,0.54,0.34,0.86,0.48
		c-2.019,1.119-4.21,2.06-6.99,2.449c-0.859,0.12-1.689,0.18-2.51,0.18C78.668,106.038,74.728,104.108,72.529,101.358z
		 M182.439,139.938c-1.91-2.08-4.2-6.07-4.75-8.68l-0.69-0.18c-0.05,0.59,0.08,1.149,0.26,1.709c-0.239-0.649-0.47-1.329-0.68-2.02
		l0.31-0.449c-0.1-0.311,0.221-0.431,0.4-0.23c0.21,0.24,0.52,0.59,0.7,0.89c0.689,1.17,1.189,2.42,1.8,3.56
		c3.12,5.891,8.189,10.69,16.92,10.74c1.41,0,2.45-0.399,3.66-0.609c3.14-1.141,5.699-2.881,8.05-4.84
		c3.76-3.12,6.42-7.32,8.3-12.351c0.12-0.31,0.521-0.26,0.71-0.05c0.23,0.23,0.04,0.55-0.02,0.87c-0.03,0.2-0.07,0.399-0.12,0.6
		c-1.35,1.11-2.37,3.2-3.24,4.65c-1.4,2.34-2.57,3.899-4.59,5.739c-3.55,3.211-7.17,6.431-12.23,6.631
		c-0.23,0.01-0.459,0.01-0.689,0.01C191.349,145.929,185.968,143.788,182.439,139.938z M138.878,168.329
		c0.15,0.039,0.3,0.069,0.45,0.1c-0.07,0.01-0.13,0.03-0.2,0.061c-0.05,0.029-0.09,0.06-0.13,0.1
		C138.958,168.499,138.918,168.409,138.878,168.329z M180.828,71.888c-9.82,2.84-18.69,6.67-26.89,11.24
		c-7.181,4.37-13.92,9.17-19.33,15.38c-4.36,5.02-7.971,10.85-10.62,17.65c-2.351,5.97-4.601,12.649-4.261,21.08
		c2.461,4.369,5.16,8.58,8.25,12.449c4.4,5.521,9.631,10.23,15.101,14.73c5.89,4.82,12.34,9.18,20.31,11.99
		c6.2,2.189,14.77,3.6,22.711,2.6c6.649-0.82,10.829-4.45,13.789-9.24c0.02-3.3,0.24-6.23,0.24-9.56c0-3.74,0.13-7.4-0.3-10.761
		c0.6-0.1,1.18-0.23,1.76-0.379c0.7,5.92,0.34,12.699,0.21,19.09c-0.02,0.649-0.05,1.379,0.301,1.859
		c1.369,0.51,3.069,0.71,4.89,0.53c5.559-0.54,9.29-3.181,12.87-5.91c3.58-2.73,6.84-5.83,9.42-9.61
		c3.359-4.949,6.029-10.609,8.23-16.77c1.5-4.2,2.81-8.471,3.841-13.25c1.56-7.26,2.92-15.141,2.59-23.98
		c-0.25-6.449-1.19-12.3-2.44-17.939c-1.851-2.08-3.64-4.42-5.94-6.19c-5.819-4.479-13.14-7.56-22.459-8.61
		c-1.58-0.09-3.141-0.129-4.671-0.129C198.318,68.159,189.269,69.938,180.828,71.888z M146.128,168.509
		c-0.01-0.02-0.019-0.03-0.04-0.04l-1.489-1.101c-0.02-0.02-0.051-0.039-0.08-0.049c-0.141-0.181-0.33-0.36-0.4-0.58
		c-0.561-1.83-3.9-3.341-5.29-4.65c-2.61-2.44-5.011-5.11-7.45-7.67c-5.6-5.91-9.62-12.27-13.96-19.15
		c-2.31-3.65-3.12-6.96-4.66-10.88c-1.51-3.88-3.06-7.46-3.26-11.649c-0.06-1.141-0.149-2.28-0.24-3.42
		c0.14-1.221,0.32-2.44,0.53-3.641c1.24,11.53,4.68,21.48,9.13,30.12c-0.14-0.771-0.399-1.28-0.19-1.79
		c0.15-1.28,0.141-2.689,0.32-3.939c2.01-14.27,7.86-24.891,15.551-33.36c6.25-6.88,14.02-12.33,22.579-16.8
		c5.22-2.73,10.78-5.11,16.561-7.16c10.01-3.551,21.26-5.771,34.14-6.141c2.3-0.06,4.4,0.07,6.58,0.25l4.689,0.94
		c8.99,2.05,16.17,5.97,21.341,11.8c-0.04-0.29-0.061-0.59-0.14-0.85l-0.61-1.851c-2.33-8.42-5.9-15.569-9.99-22.35
		c-2.79-4.61-6.04-8.78-9.8-12.48c0.479,0.209,0.93,0.379,1.34,0.5c-0.01-0.341-0.13-0.601-0.311-0.83
		c2.82,2.72,4.101,6.89,7.42,9.049c0.41,0.261,0.871,0.471,1.36,0.65c-0.05,0.061-0.09,0.141-0.09,0.221c0,0.09,0.03,0.16,0.08,0.22
		c3.04,4.51,5.62,9.54,7.91,14.87c3.33,7.699,5.58,16.399,6.95,25.949l0,0c0,0.041,0.01,0.08,0.019,0.11
		c1.71,12.08-0.06,25.33-2.689,35.53c-2.631,10.199-6.211,19.34-11.36,26.939c-0.021,0.021-0.04,0.051-0.05,0.07
		c-4.86,7.13-11.23,12.86-19.94,15.99c-2.81,1-6.41,1.04-9.35,0.1l0,0l0,0v-0.01h-0.011c-0.08-0.02-0.18-0.061-0.31-0.07
		c-0.12-0.01-0.36,0.051-0.47,0.23l-1.29,2.01c-2.69,3.34-6.351,5.65-11.33,6.65c-1.521,0.309-3.39,0.369-5.12,0.559l0,0
		c-0.27,0.011-0.54,0.011-0.811,0.011C165.978,180.819,155.198,175.368,146.128,168.509z M117.609,176.219
		c0.229,2.64,0.64,5.12,0.1,7.76l-1.12,3.56c-0.069,0.211-0.39,0.511-0.09,0.681c0.88,0.521,2.229,0.68,3.64,0.56
		c0.49-0.06,0.99-0.09,1.57-0.33c0.24-0.09,0.73-0.27,0.87-0.6c-0.42-0.43-0.87-0.8-1.16-1.29c-1.11-1.89-1.16-4.729-1.29-7.55
		c-0.04-1.03-0.09-2.27-0.04-3.471c0.38,0,0.8-0.01,1.261-0.049c-0.301-2.051-1.08-2.82-2.031-4.681
		c-0.68-1.35-0.64-2.97-1.719-4.08c-0.481,0.12-0.86,0.431-1.121,0.89l-0.93,2.791c0.35,2.23,0.78,3.68,1.891,4.449
		C117.508,175.299,117.568,175.749,117.609,176.219z M78.958,192.688c0.27,0.6,0.92,1.061,1.35,1.49
		c2.94,2.91,5.53,6.48,4.94,12.641c0.59,0.079,1.12-0.011,1.64,0.219l2.86,0.041c1.71-0.17,3.2-0.541,4.61-1.101
		c0.319-0.13,0.58-0.34,0.67-0.64c0.229-0.75,0.199-1.74,0.16-2.66c-0.03-0.72-0.211-1.391-0.36-2.061
		c-0.24-1.049-0.851-1.799-1-2.93c0.12,0,0.41-0.04,0.479,0.01c0.16,0.09,0.381,0.23,0.48,0.4c1.07,1.73,1.87,3.98,1.561,6.83
		c0.239-0.141,0.51-0.2,0.689-0.35c0.359-0.291,0.6-0.771,1.061-1.01c0.76-0.371,1.219-1.451,0.969-2.69
		c-0.109-0.63-0.1-1.271-0.26-1.88c-1.459-5.36-5.359-8.48-9.479-11.211c-1.41,1.301-4.24,2.08-6.67,1.5
		c-0.601-0.149-1.19-0.289-1.54-0.779C80.599,190.069,79.818,191.358,78.958,192.688z M131.618,190.049
		c2.35,1.37,4.15,3.11,5.76,5.06c1.83,3.19,3.09,7.65,2.43,12.61c1.771-0.101,3.66-0.24,5.23-0.72c1.32-0.4,2.7-0.83,3.561-1.521
		c0.379-3.659-0.761-6.149-1.931-8.36c-0.271-0.51-0.79-0.959-0.72-1.789c0.01-0.131,0.439,0.06,0.57,0.22
		c1.979,2.2,3.819,4.899,3.5,9.1c1.01-0.86,2.049-1.53,2.75-2.51c0.67-0.93,1.539-2.06,1.14-3.7c-0.56-2.32-1.75-3.96-3.3-5.24
		c-2.24-1.859-5.2-2.959-8.5-3.779c-1.58-0.4-3.03-0.9-4.26-1.86c-1.23,0.98-4.16,1.58-5.761,0.45
		C131.928,188.598,131.618,189.368,131.618,190.049z M112.218,209.848L112.218,209.848L112.218,209.848
		c-0.91-0.73-1.76-1.54-2.41-2.48l0,0l0,0c-0.33-0.479-0.55-1.129-0.649-1.859c0.569,1.029,1.47,1.65,2.42,2.279
		c0.66,0.69,1.43,1.281,2.26,1.811c0.38,0.42,0.729,0.93,1.011,1.54l6.519,2.56c-0.69-0.289-1.43-0.869-2.17-1.6
		c3.55,1.061,7.96,1.43,11.83,0.561c0.55-1.82,0.73-3.851,0.439-5.82c-0.3-2.08-1.05-3.811-1.32-5.66
		c-0.02-0.15-0.109-0.8,0.211-0.46c0.529,0.59,0.89,1.31,1.269,2.13c1.13,2.46,1.83,6.221,0.91,9.42c1.109-0.41,2.359-0.6,3.29-1.18
		c0.53-0.32,1.08-0.61,1.399-1.15c0.931-1.559,1.08-3.939,0.91-6.189c-0.289-3.98-1.539-7.18-3.779-9.37
		c-2.801-2.75-6.391-4.71-11-5.73c-0.03-0.01-0.271,0.3-0.37,0.36c-1.61,1.15-5.32,1.4-7.28,0.37c-0.38,0.569-0.76,1.14-1.13,1.72
		c0.09-0.529,0.17-1.05,0.229-1.57c-0.26,0.11-0.529,0.301-0.8,0.541c0.24-0.4,0.49-0.791,0.74-1.171v-0.01v0.01
		c2.04-3.17,2.601-8.39,1.8-13.05c-0.04-1.79-0.779-3.109-1.04-4.6c-0.01-0.191-0.17-0.34-0.35-0.34c-0.101,0-0.19,0.05-0.261,0.109
		c-2.27,2.21-4.33,4.37-7.56,5.25c-2.94,0.811-5.35-0.63-6.649-2.31c-0.011-0.021-0.021-0.03-0.03-0.04
		c-0.95-1.27-1.771-2.68-1.91-4.73l0,0c-0.01-0.189-0.16-0.33-0.34-0.33c-0.101,0-0.19,0.04-0.25,0.11
		c-2.12,1.78-4.021,3.62-6.601,4.68c-1.26,0.52-3.05,0.9-4.699,0.52l0,0c-0.03,0-0.051-0.01-0.08-0.01c-0.03,0-0.051,0.01-0.08,0.01
		l-4.66-4.221c0.189,0.77,0.16,1.53,0.1,2.25c-0.22-1.619-0.71-3.3-1.439-4.64l0,0c-0.061-0.11-0.17-0.19-0.311-0.19
		c-0.109,0-0.199,0.051-0.26,0.131c-2.21,2.359-5.13,4.109-9.04,4.949c-0.16,0.02-0.29,0.17-0.29,0.34c0,0.011,0,0.011,0,0.02
		c-0.189,1.33-0.35,2.67-0.49,4.08c-0.01,0.03-0.02,0.06-0.02,0.101c0,0.01,0,0.02,0,0.039c-0.38,3.961-0.24,8.4,1.49,11.301l0,0
		c0.02,0.039,0.06,0.08,0.1,0.1v0.01c0.311,0.221,0.71,0.6,1.16,1.131l0,0c0.029,0.039,0.08,0.079,0.13,0.1l0,0
		c1.63,0.66,3.28,1.47,4.51,2.609c0.07,0.07,0.15,0.12,0.25,0.12c0.14,0,0.261-0.079,0.311-0.189h0.01
		c0.21-0.431,0.39-0.811,0.61-1.14c2.33-3.561,3.58-8.531,3.399-14.301l0,0l0,0c-0.02-0.689,0-1.39,0-2.109
		c0.14,0.319,0.36,0.609,0.69,0.869c0.029,0.021,0.05,0.041,0.08,0.051c0.05,2.399-0.061,4.899-0.32,7.039
		c-0.24,1.94-0.59,3.65-1.24,5.141c0.2,0.02,0.4-0.15,0.6-0.06c1.41,0.631,3.4,0.67,4.9,0.211c0.54-0.17,1.051-0.36,1.391-0.73
		c0.17-0.18-0.01-0.359-0.09-0.439l-0.07-0.131c-1.99-2.41-3.29-6.029-2.65-10.35c0.34-0.12,0.641-0.35,0.88-0.68
		c-0.01,1.18-0.03,2.33-0.14,3.359c-0.01,0.03-0.01,0.061-0.01,0.1c0,0.041,0,0.07,0.01,0.11c0.561,4.65,2.859,7.8,6.3,9.681
		c0.011,0,0.011,0.01,0.021,0.01c3.43,2.54,6.279,5.62,7.529,10.17c0.04,0.07-0.039,0.16-0.029,0.43c0,0.021,0,0.051,0,0.07
		c0,0.061,0.01,0.109,0.039,0.16c1.021,2.74-0.689,4.79-2.35,5.949c-0.02,0.011-0.04,0.03-0.06,0.051
		c-2.841,1.939-7.811,3.55-12.46,2.21c-0.04-0.021-0.09-0.03-0.141-0.03c-0.17,0-0.31,0.13-0.34,0.29
		c-0.52,1.69-2.23,2.54-4.34,2.92c-0.03,0.011-0.07,0.011-0.1,0.021l0,0c-5.961,2.08-13.48,0.22-17.53-2.51
		c-0.011-0.011-0.03-0.02-0.04-0.02c-1.29-0.88-2.561-1.75-3.7-2.73c1.67,1.18,3.49,2.09,4.79,2.52l2.51,0.91
		c0.26,0.14,0.51,0.229,0.75,0.26l-0.75-0.26c-0.21-0.12-0.42-0.271-0.64-0.441c3.101,1.521,6.8,2.5,11.319,1.941
		c0.25-0.03,0.291-0.58,0.33-0.93c0.551-3.921-0.31-7.69-1.22-11.211c0.8,1.15,1.311,2.16,2.091,2.971
		c0.75,2.439,0.979,5.77,0.529,8.789c0.301-0.02,0.54-0.289,0.77-0.34c1.641-0.34,2.94-0.959,3.701-1.819
		c0.319-1.671,0.399-3.61,0.18-5.11c-0.021-0.14-0.04-0.55-0.061-0.689c-0.789-3.891-3.31-6.181-5.689-8.541
		c-1.59-1.549-3.65-2.689-5.76-3.659c-1.771,1.59-5.74,2.399-8.471,1.39c-0.949-0.63-1.869-1.48-2.689-2.34
		c-0.211,0.359-0.42,0.71-0.62,1.05c0.26-0.91,0.55-1.809,0.83-2.67c-0.841,1.479-2.181,3.16-3.4,4.94
		c0.64-1.11,1.33-2.181,2.04-3.25c0.01-0.021,0.02-0.041,0.03-0.051c2.3-3.52,4.44-8.02,4.729-13.47
		c0.09,0.42,0.221,0.761,0.4,0.941c0.109,0.109,0.23,0.21,0.37,0.289c-0.39,4.381-1.75,7.811-3.53,10.961
		c-0.09,0.17,0.24,0.539,0.45,0.729c0.66,0.62,1.35,1.181,2.03,1.75c1.68,0.65,3.8,0.32,5.41-0.159l1.529-0.82
		c0.18-0.12,0.02-0.26-0.08-0.29l-0.08-0.07c-1.529-2.03-2.05-5.06-2.02-8.47c0.01-1,0.029-1.99,0.07-2.96
		c0.369,0.03,0.699,0.06,0.959,0.12c-0.049-1.66-0.39-4.17,0.271-5.561l-5.58-0.689c-0.11,0.08-0.2,0.369-0.26,0.779
		c-0.04-0.35-0.07-0.71-0.12-1.07h-0.01h0.01c-0.04-0.209-0.1-0.48-0.32-0.68l0,0l0,0c-1.6-1.539-2.72-3.399-2.75-6.52
		c0-0.19-0.16-0.35-0.35-0.35c-0.08,0-0.16,0.029-0.221,0.08c-2.939,1.949-6.31,3.909-10.789,3.17
		c-0.03-0.011-0.061-0.021-0.101-0.021c-3.05-0.56-4.63-2.53-4.89-5.88h-0.01h0.01c-0.08-0.91-0.01-1.77,0.25-2.551
		c0.02-0.039,0.02-0.079,0.02-0.129c0-0.19-0.149-0.351-0.35-0.351c-0.061,0-0.13,0.021-0.18,0.06c-2.4,1.25-5.561,2.311-8.92,1.5
		l0,0l0,0c-2.41-0.6-3.65-2.539-3.381-5.879l0,0l0,0c0.131-1.371,0.57-2.48,1.07-3.65l0,0c0.02-0.051,0.03-0.1,0.03-0.15
		c0-0.189-0.15-0.34-0.351-0.34c-0.01,0-0.029,0-0.039,0l0,0c-5.551,0.54-9.33-1.93-10.84-5.79c0-0.03-0.011-0.059-0.031-0.08
		c-0.399-1.08-0.719-2.29-0.92-3.52v0.01v-0.01c-0.25-1.54,4.591-9.261,5.5-10.53l-4.959-2.16c0.06-0.06,0.026-0.305,0.109-0.25
		c3.33,2.183-0.09-0.26-0.21-0.32c-2.191-1.359-3.441-4.539-3.55-7.83c-0.13-3.299,0.89-6.67,2.939-8.39
		c0.03-0.02,0.061-0.04,0.08-0.06l0,0c0.87-1.021,2.01-2.04,3.12-2.771v-0.01c0.101-0.059,0.16-0.17,0.16-0.29
		c0-0.09-0.04-0.17-0.09-0.23v-0.01c-2.71-2.939-4.931-8.38-3.58-13.84c0-0.01,0.01-0.02,0.01-0.029l0,0
		c1.45-4.271,4.28-7.221,8.87-8.221v-0.01c0.16-0.03,0.27-0.17,0.27-0.33c0-0.08-0.02-0.141-0.06-0.2l0,0
		c-2.659-3.979-4.95-9.84-3.649-16.22c0.58-1.51,1.689-2.52,3.059-3.29c0,0,0.01,0,0.021-0.01c1.989-1.091,4.56-1.671,7.76-1.46l0,0
		c0.01,0,0.01,0,0.019,0c0.191,0,0.35-0.15,0.35-0.351c0-0.05-0.01-0.1-0.029-0.14c-1.73-6.76,0.71-13.8,4.24-17.311
		c0.02-0.02,0.039-0.039,0.06-0.06c1.601-1.59,5.69-1.809,8.53-0.79c0.05,0.03,0.109,0.05,0.17,0.05c0.189,0,0.35-0.159,0.35-0.35
		c0-0.021,0-0.03,0-0.04c0.48-4.86,2.24-8.42,4.91-10.93l0,0c0.01,0,0.02-0.01,0.03-0.021l0,0l0,0c0-0.01,0-0.01,0.01-0.01
		c2.19-2.59,8.58-3.21,11.64-0.84l0,0c0,0.01,0.011,0.01,0.011,0.01s0,0,0.01,0c0,0.01,0.01,0.01,0.01,0.021
		c0.46,0.33,0.95,0.51,1.22,0.729c0.061,0.069,0.15,0.11,0.25,0.11c0.181,0,0.34-0.141,0.351-0.311
		c1.36-4.81,3.739-8.59,7.59-10.779v0.01c4.24-1.891,8.78,0.71,10.771,3.49c0.06,0.1,0.17,0.17,0.289,0.17
		c0.131,0,0.25-0.07,0.311-0.17l0,0c1.109-1.83,1.95-3.711,3.21-5.06l0,0l0,0c1.84-1.96,4.21-3.46,7.67-3.641l0,0l0,0
		c0.649-0.02,1.29,0.08,1.86,0.261c0,0.01,0.01,0.01,0.01,0.01c2.12,0.72,3.47,2.271,4.64,4.14h0.011
		c0.06,0.101,0.16,0.17,0.279,0.17c0.141,0,0.25-0.08,0.311-0.18l2.24-2.97c0.02-0.021,0.039-0.05,0.049-0.07
		c0.841-1.399,2.951-2.46,5.23-2.79c2.29-0.33,4.721,0.09,6.15,1.4c0.01,0.01,0.02,0.02,0.029,0.029c0.541,0.5,0.99,1.191,1.57,1.9
		h0.01c0.06,0.08,0.16,0.131,0.26,0.131c0.15,0,0.281-0.091,0.33-0.221l0,0c1.36-3.27,3.33-5.72,6.98-6.44
		c4.52-0.2,6.44,2.199,8.41,4.709c0.37,0.461,0.58,1.011,0.98,1.721v-0.01c0.06,0.109,0.17,0.18,0.299,0.18
		c0.15,0,0.281-0.1,0.33-0.24c1.041-2.58,2.471-4.48,5.691-4.6c2.21,0.38,3.75,1.44,4.95,3.04c0.061,0.1,0.17,0.18,0.3,0.18
		c0.15,0,0.28-0.101,0.33-0.24h0.01c1.04-2.989,2.351-5.479,4.521-7c1.67-0.85,3.729,0.351,4.529,1.54c0.4,0.58,0.7,0.86,1.041,1.62
		h0.01c0.05,0.12,0.17,0.2,0.32,0.2c0.129,0,0.25-0.08,0.299-0.189l0,0c1.371-2.631,3.17-4.66,5.221-6.451
		c0.75-0.359,1.71-0.439,2.56-0.25c0.86,0.19,1.561,0.65,1.811,1.24l0,0c0.01,0.03,0.03,0.06,0.05,0.09l0,0
		c0.85,1,1.6,2.101,1.79,3.78h0.01c0.021,0.181,0.16,0.31,0.34,0.31c0.12,0,0.22-0.06,0.28-0.14c1.1-1.399,2.16-2.77,3.43-3.8l0,0
		l0,0c1.44-1.19,4.44-2.05,6.391-0.79c1.05,1.05,1.83,2.45,1.74,4.601l0,0v0.01c0,0.189,0.149,0.35,0.35,0.35
		c0.09,0,0.17-0.04,0.23-0.1v0.01c2.219-2.02,4.379-3.939,7.84-4.38c2.34,0.2,3.3,1.7,3.84,3.7c0.289,1.13,0.38,2.25,0.22,3.529l0,0
		c0,0.01,0,0.021,0,0.03c0,0.191,0.16,0.36,0.351,0.36c0.109,0,0.199-0.051,0.26-0.12c2.119-1.81,4.6-3.37,8.359-3.011
		c2.061,0.711,3.25,2.221,3.01,5.041c-0.119,1.34-0.48,2.439-1.069,3.38c-0.04,0.05-0.06,0.13-0.06,0.2
		c0,0.19,0.149,0.359,0.34,0.359c0.01,0,0.01-0.01,0.02-0.01v0.01l1.87-0.07c2.5,0.48,4.13,1.721,4.61,4.261
		c0.01,0.17,0.15,0.3,0.31,0.319l0,0c5.33,0.53,10.59,0.351,16.29,0.44c5.12,0.09,10.25,0.31,14.43,1.479
		c0.021,0.011,0.051,0.021,0.07,0.021c4.55,1.29,8.529,3.05,11.46,5.86c0,0,0.01,0.01,0.021,0.02c2.52,2.439,4.42,5.5,5.279,9.51
		c0,0.01,0.01,0.021,0.01,0.03l0,0l0.03,0.399c0.38,5.841-2.8,8.5-6.75,10.261c-1.08,0.489-2.43,0.6-3.96,0.81
		c-0.82,0.131-1.91,0.12-2.76,0.09l0,0l0,0c-5.7-0.17-10.42-1.3-14.91-2.689c-0.03-0.02-0.061-0.03-0.09-0.03l-1.1-0.319
		c1.039,0.17,2.06,0.31,2.92,0.52c3.25,0.82,6.379,1.45,9.739,1.609c4.28,0.201,9.38,0.25,13.13-1.879c-0.77,0.01-1.52,0-2.25-0.03
		c2.881-1.431,4.99-3.761,4.75-8.191c-0.64-3.92-2.459-6.779-4.8-9.029c-3.13-3.021-7.409-4.791-12.35-6.07
		c-4.79-1.23-10.99-1.09-16.83-1.28c-3.59-0.11-6.97-0.16-10.351-0.43c-0.449-0.89-1.16-1.37-2.539-0.761
		c-0.19,0.091-2.7,2.86-2.78,3.061c-0.49,1.3,0.69,1.8,1.17,3.42l-0.23,1.63c0.039,0.021,0.079,0.03,0.109,0.05
		c-0.35,0.11-0.689,0.37-1.04,0.65c0.33-0.54,0.46-1.189,0.431-1.87c0.02-0.18,0.02-0.38-0.02-0.56
		c-0.04-0.211-0.101-0.4-0.181-0.58c-0.229-0.83-0.649-1.641-1.159-2.27c-0.04,0.24-0.091,0.47-0.14,0.7
		c-0.121-0.09-0.24-0.17-0.36-0.26l-0.011-0.57c0.721-0.84,1.681-1.46,2.48-2.24c0.46-0.439,0.93-1.149,0.689-2.06
		c-0.119-0.46-0.22-0.82-0.489-1.24c-0.89-1.38-2.99-1.93-5.181-1.409c-0.76,0.18-1.75,0.449-2.379-0.08
		c-0.19-0.16-0.051-0.57,0.129-0.77c1.051-1.16,2.051-2.431,2.301-4.41c0.18-1.55-0.34-3.08-1.44-3.66
		c-1.05-0.54-2.58-0.269-3.65,0.05c-1.131,0.33-2.16,0.931-3.15,1.49c-1.23,0.7-1.87,2.051-3.16,2.561
		c-0.33,0.13-0.68-0.18-0.98-0.2c0.101-0.46-0.109-0.89-0.039-1.351c0.17-1.42,0.47-2.959,0.17-4.369
		c-0.141-0.66-0.36-1.271-0.7-1.811c-0.47-0.76-1.56-0.939-2.601-0.66c-3.17,0.83-5.279,2.77-7.3,4.74
		c-0.18,0.17-0.37,0.16-0.479,0.221c-0.221,0.109-0.41,0.209-0.54,0.379c-0.13-0.069-0.261-0.119-0.41-0.16
		c-0.33-0.079-0.36-0.409-0.33-0.659c0.11-1.091,0.31-2.45,0.04-3.5c-0.23-0.851-0.561-1.63-1.26-2.06
		c-2.76-0.75-4.76,0.649-6.18,2.029c-1.201,1.17-2.36,2.55-3.23,3.65c-0.38,0.479-1.03-0.141-1.04-0.471
		c-0.16-2.34-1.01-4.229-2.51-5.359c-0.62-0.45-1.75-0.301-2.351,0.09c-1.699,1.09-2.899,2.77-4.14,4.38
		c-0.7,0.899-0.89,2.23-1.66,3.01c-0.22,0.22-0.739,0.05-0.86-0.21l-0.959-1.93c-0.66-1.1-1.41-2.189-3.23-2.29
		c-2.21,0.84-3.311,3.01-4.36,5.18l-1.12,3.05c-0.34-0.289-0.66-0.16-0.97-0.109c-0.62-1.04-1.36-2.061-2.37-2.75
		c-1.16-1.27-4.01-1.29-5.18-0.061c-1.689,1.771-2.66,4.65-2.46,8.03c0.35,0.479,0.41,1.44-0.04,2.021
		c-0.38,0.149-0.98,0.189-1.471-0.021c-0.23-0.1-0.459-0.2-0.699-0.29c0.18-0.029,0.35-0.08,0.5-0.17
		c0.859-0.54,0.96-4.79,0.74-5.85c-0.461-2.141-2.711-2.92-4.021-4.62c-0.05,0.04-0.11,0.069-0.17,0.11
		c-0.09-0.091-0.18-0.17-0.28-0.24c-1.279-1.471-5.029-2.54-7-1.01c-2.21,1.73-3.939,4-4.82,6.939c-0.689,0.32-1.289,0.18-1.709-0.5
		c-0.211-0.73-0.36-1.74-1.051-2.41c-1.369-2.4-6.41-2.199-8.38-0.51c-1.069,0.92-1.97,2.02-2.829,3.12
		c-0.61,0.78-1.471,1.69-1.351,2.85c0.04,0.351-0.351,0.591-0.729,0.62c-0.391,0.05-0.841-0.16-0.98-0.54
		c-0.95-2.479-2.311-4.64-4.561-5.67c-2.729-0.319-4.5,0.521-5.949,1.54c-1.15,0.811-2.391,1.68-3.11,2.93
		c-0.91,1.56-2.08,2.87-2.71,4.93c-0.359,0.32-1.35,0.101-1.71-0.39c-1.61-2.149-3.42-4.17-6.86-4.649
		c-3.21,0.41-5.14,2.309-6.789,4.46c-0.711,0.94-1.131,2.079-1.731,3.15c-0.75,1.36-1.24,2.95-1.76,4.381
		c-0.681,0.119-1.26,0.129-1.65-0.121c-1.78-1.129-3.49-2.33-6.109-2.609c-4.44,0.33-6.801,2.99-8.36,6.33
		c-0.99,2.14-2.011,4.48-1.82,7.64c-0.819,0.66-1.96,0.17-2.271-0.13c-2.31-1.09-5.909-0.96-7.199,0.49
		c-2.11,2.34-3.631,5.37-4.28,9.15c-0.479,2.81-0.12,6.149,0.38,8.51c-0.15,0.43-0.689,0.75-1.29,0.609
		c-3.72-0.85-7.519,0.471-9.319,2.601c-1.15,1.96-1.221,5.75-0.681,8.28c0.79,3.72,2.23,6.779,4.11,9.47
		c0.09,0.12-0.11,0.569-0.2,0.88c-0.149,0.02-0.33,0.14-0.601,0.17c-3.279,0.5-5.619,2.17-7.299,4.45
		c-2.931,2.989-2.061,10.189,0.149,13.229c0.58,1.221,1.479,2.44,2.91,2.631c0.489,0.52,0.6,1.129,0.22,1.59
		c-2.76,1.25-4.99,3.109-6.32,5.83c-1.83,2.729-1.289,7.569,0.48,9.899c1.42,1.88,3.58,3.06,6.061,3.92
		c0.159,0.06,0.369,0.07,0.529,0.05c0.641-0.06,1.15,0.48,1.231,0.971c0.05,0.31-0.021,0.64-0.34,0.869
		c-0.771,0.52-3.551,1.493-4.31,2.003c-2.949,2-2.91,6.997-0.75,11.138c1.15,3.09,3.81,4.89,7.68,5.27l3.9-0.14
		c0.46,0,0.9,0.72,0.67,1.021c-0.55,0.729-0.98,1.649-1.39,2.64c-0.64,1.489-1.061,3.84-0.07,5.25c0.11,0.149,0.51,0.58,0.64,0.659
		c0.51,0.27,1.041,0.561,1.66,0.671c3.5,0.61,6.29-0.66,8.65-1.761c0.59-0.27,1.18-0.81,1.93-0.649c0.36,0.08,0.28,0.52,0.42,0.79
		c-0.779,0.97-1.09,2.449-1.109,4.029c-0.041,2.621,1.319,4.23,3.49,4.61c5.459,0.95,9.18-1.69,12.02-4.13
		c0.359-0.32,1.02,0.49,0.9,0.95c-0.11,0.489-0.07,1.27-0.051,1.989c0.1,4.08,2.44,6.23,6.131,6.801
		c4.35,0.23,7.289-1.79,9.769-3.78c0.91-0.729,1.71-1.739,2.79-2.229c0.29,0.3,0.58,0.41,0.62,0.66c0.57,3.92,2.56,6.569,6.59,7.22
		c4.6-0.69,7.359-3.511,10.07-6.311c0.26-0.25,0.649-0.7,1.039-0.52c0.25,0.11,0.58,0.34,0.561,0.63
		c-0.18,2.37,0.311,4.49,1.34,5.87c1.02,1.399,2.67,2.809,5.02,2.409c0.23-0.039,0.53-0.01,0.841-0.119
		c2.84-0.971,5.02-2.74,6.939-4.801l2.79-4.14c0.75-0.3,1.391,0.24,1.53,0.7c0.521,1.72,1.44,3.12,2.41,4.38
		c1.06,1.37,2.25,2.59,4.45,2.84c4.63-0.25,6.88-3.09,8.8-6.159c0.19-0.291,0.3-0.641,0.42-0.971c0.42,0.21,0.88,0.42,1.37,0.62
		c0,0.01-0.01,0.03-0.01,0.04c-0.15,0.05-0.291,0.1-0.431,0.17c-1.83,0.96-2.19,3.91-4.36,4.91l-0.939,0.46
		c-0.25,0.16-0.25,0.51-0.13,0.96c-0.11,0.03-0.2,0.09-0.261,0.141c-0.029,0.02-0.06,0.039-0.079,0.069
		c-1.561,1.25-5.25,1.53-7.15,0.181l0,0l0,0v-0.011c-0.01,0-0.021,0-0.021-0.01c-0.06-0.04-0.17-0.12-0.31-0.19
		c-0.1-0.039-0.21-0.08-0.39-0.05c-0.21,0.04-0.35,0.28-0.35,0.431c-0.261,2.359-0.311,5.149-0.101,7.489
		c0.21,2.49,1.149,4.4,2.91,5.48c0.04,0.04,0.1,0.069,0.16,0.079c1.829,0.551,3.75,1.031,5.25,1.921c0.03,0.02,0.05,0.03,0.079,0.05
		c0.181,0.09,0.461,0.05,0.56-0.07c0.11-0.109,0.16-0.21,0.2-0.3c0.01-0.021,0.02-0.04,0.02-0.069
		c0.93-3.07,1.649-6.83,1.279-10.641l0,0l0,0c-0.05-0.53-0.12-1.08-0.23-1.63c0.341-0.21,0.701-0.36,1.061-0.49
		c0.17,0.64,0.29,1.3,0.34,2c0.2,3.12-0.07,6.12-0.66,8.58c1.16,1.36,4.01,1.2,5.04,0.11c-0.11-0.211-0.329-0.351-0.409-0.601
		c-0.931-2.64-1.17-5.989-1.141-9.489c0.11-0.65,0.231-1.291,0.37-1.91c0.44-0.43,1.09-1.441,1.649-2.54
		c-0.539,2.12-0.989,4.37-0.799,6.92c0.17,2.19,0.39,4.6,1.09,6.51c0.41,1.09,1.459,1.479,2.35,1.76c3.46,1.07,7.14,1.89,9.67,3.69
		c2.641,1.88,4.74,4.189,5.32,8.24c-0.54,3.25-2.73,5.119-5.28,6.72c-0.01,0.01-0.02,0.01-0.04,0.02
		c-2.76,1.719-6.18,3.069-10.73,2.859l0,0h-0.01c-0.15,0-0.279,0.1-0.33,0.24l0,0c-0.81,2.26-2.859,3.359-5.649,3.93
		c-0.03,0-0.05,0.01-0.08,0.02c-2.12,0.69-4.39,0.99-6.65,0.99C121.088,214.358,115.428,212.459,112.218,209.848z"/>
	<path d="M129.958,188.778c0.9-2.979,1.561-6.59,1.23-10.229c-0.011-0.03-0.011-0.06-0.011-0.09c0-0.021,0-0.03,0-0.04
		c-0.14-1.34-0.42-2.83-0.96-3.78c-1.89,1.49-5.729,1.8-8.029,0.25h0.01h-0.01l-0.011-0.01c-0.229,2.229-0.25,4.819-0.069,6.979
		c0.01,0.03,0.01,0.061,0.01,0.101c0,0.01,0,0.02,0,0.03c0.231,2.33,1.08,3.949,2.59,4.89
		C126.448,187.398,128.349,187.868,129.958,188.778z M129.818,189.508c-0.029-0.019-0.049-0.03-0.079-0.05
		c-1.5-0.89-3.421-1.37-5.25-1.921c-0.061-0.01-0.12-0.039-0.16-0.079c-1.761-1.08-2.7-2.99-2.91-5.48
		c-0.21-2.34-0.16-5.13,0.101-7.489c0-0.15,0.14-0.391,0.35-0.431c0.18-0.03,0.29,0.011,0.39,0.05c0.14,0.07,0.25,0.15,0.31,0.19
		c0,0.01,0.011,0.01,0.021,0.01v0.011l0,0l0,0c1.9,1.35,5.59,1.069,7.15-0.181c0.02-0.03,0.05-0.05,0.079-0.069
		c0.06-0.051,0.15-0.11,0.261-0.141c0.26,0.96,1.08,2.37,1.1,3.21c0.15-0.13,0.311-0.24,0.47-0.34c0.11,0.55,0.181,1.1,0.23,1.63
		l0,0l0,0c0.37,3.811-0.35,7.57-1.279,10.641c0,0.029-0.011,0.049-0.02,0.069c-0.04,0.09-0.09,0.19-0.2,0.3
		c-0.06,0.07-0.2,0.12-0.33,0.12C129.968,189.558,129.888,189.538,129.818,189.508z M77.828,191.478c0.14-0.27,0.28-0.53,0.44-0.79
		c2.239-3.41,3.47-8.25,3.299-13.9l0,0l0,0c-0.039-1.319,0.051-2.649-0.06-3.93c-0.01-0.029-0.01-0.06-0.01-0.09
		c0-0.01,0-0.029,0-0.04c-0.149-1.51-0.57-3.11-1.2-4.409c-2.22,2.25-5.109,3.92-8.84,4.76c-0.18,1.289-0.33,2.59-0.47,3.939
		c-0.39,3.9-0.22,8.25,1.36,10.9c0.35,0.27,0.739,0.64,1.159,1.13C75.008,189.679,76.558,190.419,77.828,191.478z M77.678,192.278
		c-1.229-1.14-2.88-1.949-4.51-2.609l0,0c-0.05-0.02-0.101-0.061-0.13-0.1l0,0c-0.45-0.531-0.85-0.91-1.16-1.131v-0.01
		c-0.04-0.02-0.08-0.061-0.1-0.1l0,0c-1.73-2.9-1.87-7.34-1.49-11.301c0-0.02,0-0.029,0-0.039c0-0.041,0.01-0.07,0.02-0.101
		c0.141-1.41,0.301-2.75,0.49-4.08c0-0.01,0-0.01,0-0.02c0-0.17,0.13-0.319,0.29-0.34c3.91-0.84,6.83-2.59,9.04-4.949
		c0.061-0.08,0.15-0.131,0.26-0.131c0.141,0,0.25,0.08,0.311,0.19l0,0c0.729,1.34,1.22,3.021,1.439,4.64
		c-0.08,0.91-0.18,1.75,0.12,2.461c0,0.72-0.02,1.42,0,2.109l0,0l0,0c0.181,5.77-1.069,10.74-3.399,14.301
		c-0.221,0.329-0.4,0.709-0.61,1.14h-0.01c-0.05,0.11-0.171,0.189-0.311,0.189C77.828,192.398,77.748,192.348,77.678,192.278z
		 M263.239,43.489L263.239,43.489L263.239,43.489z"/>
	<path style="fill:#FFFFFF;" d="M125.939,40.618c0.029,0.03,0.06,0.051,0.09,0.07c-0.03,0.03-0.061,0.051-0.09,0.08
		C125.939,40.719,125.939,40.669,125.939,40.618z M101.378,172.629c-1.029-1.38-1.52-3.5-1.34-5.87c0.02-0.29-0.311-0.52-0.561-0.63
		c-0.39-0.181-0.779,0.27-1.039,0.52c-2.711,2.8-5.471,5.62-10.07,6.311c-4.03-0.65-6.019-3.3-6.59-7.22
		c-0.04-0.25-0.33-0.36-0.62-0.66c-1.08,0.49-1.88,1.5-2.79,2.229c-2.48,1.99-5.42,4.011-9.769,3.78
		c-3.69-0.57-6.031-2.721-6.131-6.801c-0.019-0.719-0.059-1.5,0.051-1.989c0.119-0.46-0.541-1.271-0.9-0.95
		c-2.84,2.439-6.561,5.08-12.02,4.13c-2.171-0.38-3.531-1.989-3.49-4.61c0.02-1.58,0.33-3.06,1.109-4.029
		c-0.14-0.27-0.059-0.71-0.42-0.79c-0.75-0.16-1.34,0.38-1.93,0.649c-2.36,1.101-5.15,2.371-8.65,1.761
		c-0.619-0.11-1.15-0.4-1.66-0.671c-0.13-0.079-0.529-0.51-0.64-0.659c-0.99-1.41-0.569-3.761,0.07-5.25
		c0.409-0.99,0.84-1.91,1.39-2.64c0.23-0.301-0.21-1.021-0.67-1.021l-3.9,0.14c-3.869-0.38-6.529-2.18-7.68-5.27
		c-2.16-4.141-0.19-9.561,2.76-11.561c0.76-0.51,1.53-1.06,2.301-1.58c0.319-0.23,0.39-0.56,0.34-0.869
		c-0.08-0.49-0.59-1.03-1.231-0.971c-0.16,0.02-0.37,0.01-0.529-0.05c-2.48-0.86-4.641-2.04-6.061-3.92
		c-1.77-2.33-2.311-7.17-0.48-9.899c1.33-2.721,3.561-4.58,6.32-5.83c0.38-0.461,0.27-1.07-0.22-1.59
		c-1.431-0.19-2.33-1.41-2.91-2.631c-2.21-3.04-3.08-10.24-0.149-13.229c1.68-2.28,4.02-3.95,7.299-4.45
		c0.271-0.03,0.451-0.15,0.601-0.17c0.09-0.311,0.29-0.76,0.2-0.88c-1.88-2.69-3.32-5.75-4.11-9.47c-0.54-2.53-0.47-6.32,0.681-8.28
		c1.8-2.13,5.6-3.45,9.319-2.601c0.601,0.141,1.14-0.18,1.29-0.609c-0.5-2.36-0.859-5.7-0.38-8.51c0.649-3.78,2.17-6.811,4.28-9.15
		c1.29-1.45,4.89-1.58,7.199-0.49c0.311,0.3,1.451,0.79,2.271,0.13c-0.19-3.159,0.83-5.5,1.82-7.64c1.559-3.34,3.92-6,8.36-6.33
		c2.619,0.279,4.329,1.48,6.109,2.609c0.391,0.25,0.97,0.24,1.65,0.121c0.52-1.431,1.01-3.021,1.76-4.381
		c0.6-1.07,1.02-2.21,1.731-3.15c1.649-2.15,3.579-4.05,6.789-4.46c3.44,0.479,5.25,2.5,6.86,4.649c0.36,0.49,1.351,0.71,1.71,0.39
		c0.63-2.059,1.8-3.369,2.71-4.93c0.72-1.25,1.96-2.119,3.11-2.93c1.449-1.02,3.22-1.859,5.949-1.54
		c2.25,1.03,3.61,3.191,4.561,5.67c0.14,0.38,0.59,0.59,0.98,0.54c0.379-0.029,0.77-0.27,0.729-0.62
		c-0.12-1.159,0.74-2.069,1.351-2.85c0.859-1.101,1.76-2.2,2.829-3.12c1.97-1.689,7.011-1.891,8.38,0.51
		c0.69,0.67,0.84,1.68,1.051,2.41c0.42,0.68,1.02,0.82,1.709,0.5c0.881-2.939,2.61-5.21,4.82-6.939c1.971-1.53,5.721-0.461,7,1.01
		c0.101,0.07,0.19,0.149,0.28,0.24c-4.559,2.699-2.971,7.702-5.54,12.462c-1.141,2.131-12.46,17.178-10.05,17.657h0.36
		c-2.4,1.891-4.86,3.711-7.44,5.4c-5.79,3.82-12.021,7.21-18.04,10.87c-5.54,3.37-10.8,7.01-15.22,11.55
		c-3.48,3.58-6.75,7.38-8.03,13.23c-1.141,5.229-0.141,10.869,2.32,13.949c2.59,3.221,7.56,5.33,13.35,4.5
		c2.78-0.39,4.971-1.33,6.99-2.449c0.69,0.3,5.57-1.908,6.26-1.708c1.17,0.34,0.25,0.35,1,1c0.761,0.66,0.66,6.468,0.82,7.447
		c0.449,2.79,4.68,4.773,5.18,7.553c1.94,10.71,5.2,19.601,11.5,28.5c5.11,7.201,10.101,11.899,17.5,16.5
		c0.311,0.189-0.97,3.857-0.55,4.067c-0.12,0.33-0.23,0.68-0.42,0.971c-1.92,3.069-4.17,5.909-8.8,6.159
		c-2.2-0.25-3.391-1.47-4.45-2.84c-0.97-1.26-1.89-2.66-2.41-4.38c-0.14-0.46-0.78-1-1.53-0.7l-2.79,4.14
		c-1.92,2.061-4.1,3.83-6.939,4.801c-0.311,0.109-0.61,0.08-0.841,0.119c-0.279,0.041-0.549,0.07-0.81,0.07
		C103.668,175.108,102.279,173.858,101.378,172.629z"/>
	<path style="fill:#EFE1BD;" d="M163.388,176.409c-7.97-2.811-14.42-7.17-20.31-11.99c-5.47-4.5-10.7-9.21-15.101-14.73
		c-3.09-3.869-5.789-8.08-8.25-12.449c-0.34-8.431,1.91-15.11,4.261-21.08c2.649-6.801,6.26-12.631,10.62-17.65
		c5.41-6.21,12.149-11.01,19.33-15.38c8.199-4.57,17.069-8.4,26.89-11.24c9.72-2.24,20.25-4.271,32.27-3.601
		c9.319,1.051,16.64,4.131,22.459,8.61c2.301,1.771,4.09,4.11,5.94,6.19c1.25,5.64,2.19,11.49,2.44,17.939
		c0.33,8.84-1.03,16.721-2.59,23.98c-1.031,4.779-2.341,9.05-3.841,13.25c-2.2,6.16-4.87,11.82-8.23,16.77
		c-2.58,3.78-5.84,6.881-9.42,9.61c-3.58,2.729-7.311,5.37-12.87,5.91c-1.82,0.18-3.521-0.021-4.89-0.53
		c-0.351-0.48-0.32-1.21-0.301-1.859c0.13-6.391,0.49-13.17-0.21-19.09c3.42-0.91,6.5-2.701,9.271-5.421
		c2.1-2.05,4.199-4.97,5.199-7.73c0.66-1.83,1.87-5.34,1.57-7.27c-0.109,0.08-0.23,0.16-0.34,0.25c0.05-0.2,0.09-0.399,0.12-0.6
		c0.06-0.32,0.25-0.64,0.02-0.87c-0.189-0.21-0.59-0.26-0.71,0.05c-1.88,5.03-4.54,9.23-8.3,12.351
		c-2.35,1.959-4.91,3.699-8.05,4.84c-1.21,0.21-2.25,0.609-3.66,0.609c-8.73-0.05-13.8-4.85-16.92-10.74
		c-0.61-1.14-1.11-2.39-1.8-3.56c-0.181-0.3-0.49-0.649-0.7-0.89c-0.18-0.2-0.5-0.08-0.4,0.23l-0.31,0.449
		c0.21,0.69,0.44,1.37,0.68,2.02c0.19,0.591,0.431,1.181,0.57,1.781c0.54,2.369,0.97,4.789,1.989,7.01
		c2.49,5.41,9.551,7.949,15.181,8.17c1.68,0.07,3.29-0.03,4.83-0.301c0.43,3.36,0.3,7.02,0.3,10.761c0,3.329-0.22,6.26-0.24,9.56
		c-2.96,4.79-7.14,8.42-13.789,9.24c-1.781,0.23-3.591,0.33-5.4,0.33C174.428,179.339,168.198,178.108,163.388,176.409z"/>
	<path style="fill:#D1AD78;" d="M129.728,58.478c0-0.03,0-0.05-0.01-0.069c0.03,0.029,0.051,0.06,0.07,0.09
		C129.769,58.489,129.748,58.478,129.728,58.478z M109.788,105.679c1.41-7.88,3.138-17.734,8.007-24.144
		c2.9-3.82,3.03-6.276,5-10.666c0.82-1.8,2.877-2.838,3.666-4.667c0.481-1.11,2-6.667,3.557-3.843
		c-1.197-2.171,3.469-1.863,5.109-2.824c1.16-0.689,3.607-3.39,4.667-4c1.051-0.6,0.487,0.716,1.667,0.667
		c1.57-0.08,2.593-0.96,4.333-1c1.83-0.05,2.157,2.141,3.667,1c1.71-1.289,2.93-4.17,4-6c2.52,0.8,5.792-0.572,8.333-1.333
		c1.399-0.42,1.961,0.716,3-0.333c0.351-0.36,2.933-1.526,3.333-1.667c0.7-0.24,28.287-6.827,30.667-7.667
		c1.851-0.66,8.887-0.053,10.667-0.333c1.32-0.2,2.997,1.17,4.137,1.08c1.859-0.119,4.329,1.261,6.35,2.121
		c3.76,3.699,7.01,7.869,9.8,12.48c4.09,6.78,7.66,13.93,9.99,22.35l0.61,1.851c0.079,0.26,0.1,0.56,0.14,0.85
		c-5.171-5.83-12.351-9.75-21.341-11.8l-4.689-0.94c-2.18-0.18-4.28-0.31-6.58-0.25c-12.88,0.37-24.13,2.59-34.14,6.141
		c-5.78,2.05-11.341,4.43-16.561,7.16c-8.56,4.47-16.329,9.92-22.579,16.8c-7.69,8.47-13.541,19.09-15.551,33.36
		c-0.18,1.25-0.17,2.659-0.32,3.939c-0.209,0.51,0.051,1.02,0.19,1.79C114.468,127.159,111.029,117.209,109.788,105.679z"/>
	<path style="fill:#FFFFFF;" d="M211.898,32.419c0.08,0.18,0.141,0.369,0.181,0.58c0.04,0.18,0.04,0.38,0.02,0.56
		C212.078,33.188,212.008,32.799,211.898,32.419z M166.218,41.749c0.18,0.119,0.36,0.24,0.551,0.35
		C166.578,41.999,166.388,41.879,166.218,41.749z M134.158,47.098c-1.72,0.07-3.851,0.721-5.29-0.32c-1.37-1-1.37-2.899-1.84-4.18
		c0.229-0.311,0.47-0.609,0.699-0.91c0,0,0.19,0.051,0.371-0.04c-0.391-0.819-1.141-1.319-1.74-2.03
		c-0.551-2.299,0.859-4.119,2.539-4.93c0.75-0.359,1.82-0.27,2.73-0.4c0.38-0.049,0.94,0.121,1.1-0.31
		c0.061-0.149,0.051-0.55,0-0.649c-0.289-0.61-0.569-1.26-0.72-1.95c-0.48-2.4,0.851-4.12,2.47-4.79c0.101-0.04,0.2-0.08,0.301-0.1
		c0.81,0.06,1.67,0.359,2.34,0.279c0.24,0.09,0.47,0.19,0.699,0.29c0.49,0.21,1.091,0.17,1.471,0.021
		c0.45-0.58,0.39-1.541,0.04-2.021c-0.2-3.38,0.77-6.26,2.46-8.03c1.17-1.229,4.02-1.209,5.18,0.061c1.01,0.689,1.75,1.71,2.37,2.75
		c0.309-0.051,0.63-0.18,0.97,0.109l1.12-3.05c1.05-2.17,2.15-4.34,4.36-5.18c1.82,0.101,2.57,1.19,3.23,2.29l0.959,1.93
		c0.121,0.26,0.641,0.43,0.86,0.21c0.771-0.78,0.96-2.11,1.66-3.01c1.24-1.61,2.44-3.29,4.14-4.38c0.601-0.391,1.73-0.54,2.351-0.09
		c1.5,1.13,2.35,3.02,2.51,5.359c0.01,0.33,0.66,0.95,1.04,0.471c0.87-1.101,2.029-2.48,3.23-3.65c1.42-1.38,3.42-2.779,6.18-2.029
		c0.699,0.43,1.029,1.209,1.26,2.06c0.27,1.05,0.07,2.409-0.04,3.5c-0.03,0.25,0,0.58,0.33,0.659c0.149,0.041,0.28,0.091,0.41,0.16
		c0.13-0.17,0.319-0.27,0.54-0.379c0.109-0.061,0.3-0.051,0.479-0.221c2.021-1.97,4.13-3.91,7.3-4.74
		c1.041-0.279,2.131-0.1,2.601,0.66c0.34,0.54,0.56,1.15,0.7,1.811c0.3,1.41,0,2.949-0.17,4.369c-0.07,0.461,0.14,0.891,0.039,1.351
		c0.301,0.02,0.65,0.33,0.98,0.2c1.29-0.51,1.93-1.86,3.16-2.561c0.99-0.559,2.02-1.16,3.15-1.49c1.069-0.319,2.6-0.59,3.65-0.05
		c1.1,0.58,1.62,2.11,1.44,3.66c-0.25,1.979-1.25,3.25-2.301,4.41c-0.18,0.2-0.319,0.61-0.129,0.77
		c0.629,0.529,1.619,0.26,2.379,0.08c2.19-0.52,4.291,0.029,5.181,1.409c0.27,0.42,0.37,0.78,0.489,1.24
		c0.24,0.91-0.229,1.62-0.689,2.06c-0.8,0.78-1.76,1.4-2.48,2.24l0.011,0.57c0.12,0.09,0.239,0.17,0.36,0.26
		c-0.48,2.231-1.49,4.221-3.631,2.5c-2.54-2.04-1.359-4.94-4.89-2.16c-1.771,1.391-4.25,3.721-6.7,2.91
		c-2.17-0.72-3.439-3.42-4.88-4.99c-2.25,1.891-3.21,6.391-6.53,6.971c-3.22,0.55-3.85-2.76-5.81-4.4
		c-3.04,1.859-4.4,5.81-8.2,7.189c-3.17,1.141-6.141-3.379-7.92-2.539c-0.57,0.279-1.38,3.5-1.79,4.209
		c-0.78,1.351-1.97,3.15-3.5,3.69c-3.17,1.11-5.29-1.51-7.92-2.67c-2.021,1.86-0.846,6.709-3.367,8.31
		c-2.319,1.489-5.044-1.769-6.704-2.949c-1.54,1.779-2.29,5.05-5.01,5.46C132.439,50.929,134.058,48.719,134.158,47.098z"/>
	<path style="fill:#999999;" d="M111.578,207.788c0.771,0.52,1.569,1.041,2.26,1.811
		C113.008,209.069,112.239,208.478,111.578,207.788z M136.258,204.808c-0.12,1.55-0.43,5.36-1.63,6.33l2.33-1.63
		c1.55-3.15,1-8.73-1.29-11.38C136.269,200.329,136.448,202.618,136.258,204.808z M119.198,212.098
		c-1.62-1.609-3.221-3.92-4.12-5.32c-3.13-4.89-1.37-10.399-0.5-15.68c0.37-0.58,0.75-1.15,1.13-1.72c1.96,1.03,5.67,0.78,7.28-0.37
		c0.1-0.06,0.34-0.37,0.37-0.36c4.609,1.02,8.199,2.98,11,5.73c2.24,2.19,3.49,5.39,3.779,9.37c0.17,2.25,0.02,4.63-0.91,6.189
		c-0.319,0.54-0.869,0.83-1.399,1.15c-0.931,0.58-2.181,0.77-3.29,1.18c0.92-3.199,0.22-6.96-0.91-9.42
		c-0.38-0.82-0.74-1.54-1.269-2.13c-0.32-0.34-0.231,0.31-0.211,0.46c0.271,1.85,1.021,3.58,1.32,5.66c0.29,1.97,0.11,4-0.439,5.82
		c-1.49,0.33-3.051,0.48-4.62,0.48C123.898,213.138,121.388,212.749,119.198,212.098z"/>
	<path style="fill:#999999;" d="M81.109,207.419l1.39,0.23c0.67-2.03,0.41-4.81-0.71-6.63
		C81.818,203.138,81.748,205.459,81.109,207.419z M72.958,210.438l3.26,0.24c-1.05-3.34,1.12-7.88-1.58-10.92
		C74.338,203.459,74.318,206.909,72.958,210.438z M65.748,208.808c-1.89-1.51-3.92-4.989-4.899-6.34
		c-2.621-3.59-1.891-8.04-0.69-12.16c0.2-0.34,0.409-0.69,0.62-1.05c0.82,0.859,1.74,1.71,2.689,2.34c2.73,1.01,6.7,0.2,8.471-1.39
		c2.109,0.97,4.17,2.11,5.76,3.659c2.38,2.36,4.9,4.65,5.689,8.541c0.021,0.14,0.04,0.55,0.061,0.689c0.22,1.5,0.14,3.439-0.18,5.11
		c-0.761,0.86-2.061,1.479-3.701,1.819c-0.229,0.051-0.469,0.32-0.77,0.34c0.45-3.02,0.221-6.35-0.529-8.789
		c-0.78-0.811-1.291-1.82-2.091-2.971c0.91,3.521,1.771,7.29,1.22,11.211c-0.039,0.35-0.08,0.899-0.33,0.93
		c-0.879,0.109-1.729,0.16-2.549,0.16C71.128,210.909,68.239,210.038,65.748,208.808z"/>
	<path style="fill:#999999;" d="M96.698,204.388l0.699-1.17c3.041-0.92,0.53-7.181-1.01-8.82
		C97.318,198.228,97.748,200.778,96.698,204.388z M92.748,206.258l1.63-0.71c0.061-2.31-0.3-4.5-1.47-6.521
		C92.109,201.228,93.968,204.198,92.748,206.258z M86.888,207.038c-0.52-0.23-1.05-0.14-1.64-0.219c0.59-6.16-2-9.73-4.94-12.641
		c-0.43-0.43-1.08-0.891-1.35-1.49c0.859-1.33,1.641-2.619,2.16-4.18c0.35,0.49,0.94,0.63,1.54,0.779c2.43,0.58,5.26-0.199,6.67-1.5
		c4.12,2.73,8.021,5.851,9.479,11.211c0.16,0.609,0.15,1.25,0.26,1.88c0.25,1.239-0.209,2.319-0.969,2.69
		c-0.461,0.239-0.701,0.719-1.061,1.01c-0.18,0.149-0.45,0.209-0.689,0.35c0.31-2.85-0.49-5.1-1.561-6.83
		c-0.1-0.17-0.32-0.311-0.48-0.4c-0.069-0.05-0.359-0.01-0.479-0.01c0.149,1.131,0.76,1.881,1,2.93
		c0.149,0.67,0.33,1.341,0.36,2.061c0.039,0.92,0.069,1.91-0.16,2.66c-0.09,0.3-0.351,0.51-0.67,0.64
		c-1.41,0.56-2.9,0.931-4.61,1.101L86.888,207.038z"/>
	<path style="fill:#999999;" d="M150.918,202.299l1.17-0.94c2.55-2.88-0.15-6.68-3.17-8.13
		C149.859,196.169,151.989,199.079,150.918,202.299z M145.109,206.719l2.789-1.399c0.191-1.971-0.239-5.051-1.809-6.27
		C145.908,201.629,146.128,204.329,145.109,206.719z M137.378,195.108c-1.609-1.949-3.41-3.689-5.76-5.06
		c0-0.681,0.31-1.45,0.47-2.04c1.6,1.13,4.53,0.529,5.761-0.45c1.23,0.96,2.68,1.46,4.26,1.86c3.3,0.82,6.26,1.92,8.5,3.779
		c1.55,1.28,2.74,2.92,3.3,5.24c0.399,1.641-0.47,2.771-1.14,3.7c-0.701,0.979-1.74,1.649-2.75,2.51c0.319-4.2-1.521-6.899-3.5-9.1
		c-0.131-0.16-0.561-0.351-0.57-0.22c-0.07,0.83,0.449,1.279,0.72,1.789c1.17,2.211,2.31,4.701,1.931,8.36
		c-0.86,0.69-2.24,1.12-3.561,1.521c-1.57,0.479-3.46,0.619-5.23,0.72C140.468,202.758,139.208,198.299,137.378,195.108z"/>
	<path style="fill:#D1AD78;" d="M64.109,190.478c-0.681-0.569-1.37-1.13-2.03-1.75c-0.21-0.19-0.54-0.56-0.45-0.729
		c1.78-3.15,3.141-6.58,3.53-10.961c0.94,0.561,2.56,0.58,3.78,0.671c-0.041,0.97-0.061,1.96-0.07,2.96
		c-0.03,3.41,0.49,6.439,2.02,8.47l0.08,0.07c0.1,0.03,0.26,0.17,0.08,0.29l-1.529,0.82c-0.971,0.289-2.121,0.52-3.24,0.52
		C65.519,190.839,64.779,190.739,64.109,190.478z"/>
	<path style="fill:#D1AD78;" d="M135.948,167.388c0.02,0.01,0.04,0.02,0.05,0.02c-0.02,0.01-0.04,0.01-0.06,0.02
		C135.939,167.419,135.948,167.398,135.948,167.388z M132.388,186.888c0.59-2.46,0.86-5.46,0.66-8.58c-0.05-0.7-0.17-1.36-0.34-2
		c1.18-0.42,2.43-0.53,3.37-1.18c0.05-0.03,0.11-0.08,0.17-0.13c-0.14,0.619-0.26,1.26-0.37,1.91c-0.029,3.5,0.21,6.85,1.141,9.489
		c0.08,0.25,0.299,0.39,0.409,0.601c-0.52,0.55-1.51,0.859-2.5,0.859C133.948,187.858,132.968,187.558,132.388,186.888z"/>
	<path style="fill:#D1AD78;" d="M116.498,188.219c-0.3-0.17,0.021-0.47,0.09-0.681l1.12-3.56c0.54-2.64,0.13-5.12-0.1-7.76
		c-0.041-0.47-0.101-0.92-0.17-1.36c0.619,0.44,1.47,0.66,2.649,0.68c-0.05,1.201,0,2.44,0.04,3.471c0.13,2.82,0.18,5.66,1.29,7.55
		c0.29,0.49,0.74,0.86,1.16,1.29c-0.14,0.33-0.63,0.51-0.87,0.6c-0.58,0.24-1.08,0.27-1.57,0.33c-0.3,0.03-0.6,0.041-0.89,0.041
		C118.178,188.819,117.189,188.629,116.498,188.219z"/>
	<path style="fill:#D1AD78;" d="M82.068,187.698c-0.199-0.09-0.399,0.08-0.6,0.06c0.65-1.49,1-3.2,1.24-5.141
		c0.26-2.14,0.37-4.64,0.32-7.039c0.92,0.689,1.81,0.92,2.52,0.68c-0.64,4.32,0.66,7.939,2.65,10.35l0.07,0.131
		c0.08,0.08,0.26,0.26,0.09,0.439c-0.34,0.37-0.851,0.561-1.391,0.73c-0.66,0.199-1.42,0.31-2.18,0.31
		C83.818,188.219,82.859,188.049,82.068,187.698z"/>
	<path d="M127.678,49.329c-1.61-0.521-3-1.441-3.239-3.311v-1.57c0-0.449,0.41-0.789,0.41-1.3l-2.08,1.75
		c0.229-0.38,0.51-0.75,0.83-1.11c0.75-0.539,1.43-1.09,1.85-1.569c0.109-0.07,0.21-0.14,0.32-0.2c0.029,0.23,0.049,0.471,0.069,0.7
		c-0.87,1.12-1.29,2.75-0.81,3.89c0.439,1.051,1.17,1.471,2.01,1.65c0.63,0.45,1.609,0.7,3.15,0.7c0,0.079,0.01,0.159,0.01,0.239
		c-0.11,0.15-0.21,0.32-0.311,0.48C129.088,49.669,128.228,49.518,127.678,49.329z M127.178,54.528
		c0.601-0.899,1.261-1.75,1.86-2.67c-0.11,0.44-0.18,0.891-0.2,1.35c-0.6,1.02-1.28,1.97-1.819,2.7
		c-1.851,2.5-3.301,5.31-4.57,8.209C123.828,60.739,125.239,57.368,127.178,54.528z M82.318,104.839c-1.35-0.01-2.64-0.54-4.01-0.53
		l-5.35-3.489c0.63,0.199,1.29,0.359,1.97,0.5c0.94,0.85,2.07,1.539,3.341,2.069c1.539,0.64,3.629,0.92,5.619,0.78
		c6.051-0.44,9.971-3.25,13.83-6.08c7.46-5.46,13.73-12.24,18.26-20.78c0.551-1.021,1.101-2.021,1.66-3.03
		c-1.52,3.101-3.09,6.16-5.01,9.021c-1.04,1.53-2.98,3.51-3.96,5.33c-1.601,1.88-3.3,3.729-5.08,5.489
		c-0.97,0.66-1.93,1.291-2.76,1.951c-2.66,2.069-5.511,3.939-8.021,6.129c-1.869,0.69-3.869,1.19-5.69,1.7
		c-1.6,0.45-3.16,0.94-4.75,0.94C82.349,104.839,82.338,104.839,82.318,104.839z"/>
	<path d="M166.898,66.549c-1.08-2.61,0.851-4.511,2.58-5.2c1.7-0.68,3.381,0.33,4.03,1.51c0.22,0.381,0.25,0.83,0.33,1.31
		c0.35,2.109-0.9,3.56-2.42,4.13c-0.47,0.18-0.91,0.26-1.319,0.26C168.808,68.558,167.748,67.788,166.898,66.549z"/>
	<path d="M182.248,62.009c-1.07-2.61,0.87-4.51,2.59-5.2c1.7-0.67,3.38,0.33,4.04,1.5c0.21,0.39,0.231,0.84,0.311,1.32
		c0.35,2.11-0.9,3.559-2.41,4.14c-0.461,0.17-0.9,0.25-1.32,0.25C184.178,64.018,183.118,63.239,182.248,62.009z"/>
	<path d="M131.918,59.728l-2.08-1.03c0.011-0.069-0.01-0.14-0.05-0.199c1.279,0.449,2.529,0.51,3.689,0.279
		c0.25-0.029,0.49-0.1,0.73-0.189c2.85-0.92,5.03-3.7,5.609-6.971c1.31,1.591,3.341,2.15,5.33,1.961
		c0.641,0.1,1.32,0.08,2.041-0.131c1.25-0.379,1.97-0.979,2.42-1.729c1.41-1.229,2.149-2.97,1.47-4.931
		c0.12,0,0.239,0.021,0.36,0.031c1.27,0.899,2.65,1.439,4,1.659c0.75,0.29,1.52,0.39,2.42,0.03c3.319-0.45,6.019-2.939,6.069-6.9
		c0.14-0.119,0.3-0.21,0.47-0.25c1.28-0.27,2.541,1.5,3.721,1.75c0.4,0.09,0.93,0.1,1.5,0.06c0.83,0.109,1.68,0.04,2.54-0.29
		c0.18-0.07,0.35-0.14,0.52-0.231c0.03,0,0.061-0.01,0.091-0.019c2.6-0.771,3.789-2.92,4.72-5.32c0.12-0.18,0.239-0.35,0.36-0.521
		c0.569,0.591,1.39,1.4,2.319,2.15c0.54,0.551,1.14,0.95,1.77,1.221c0.9,0.5,1.789,0.8,2.56,0.69c0.58-0.09,1.41-0.481,2.21-0.97
		c0.68-0.341,1.33-0.81,1.91-1.39c0.15-0.141,0.279-0.271,0.39-0.391c0.11-0.13,0.21-0.26,0.3-0.4
		c0.541-0.709,0.99-1.529,1.311-2.459c0.1-0.11,0.21-0.221,0.34-0.32c0.41,0.39,0.84,0.74,1.29,1.05
		c0.351,0.39,0.7,0.79,1.149,1.069c0.721,0.44,1.5,0.521,2.311,0.41c2.62,0.5,5.25-0.439,6.891-3.359
		c0.079-0.01,0.149-0.03,0.23-0.03c0.28-0.021,0.56,0.07,0.83,0.21c1.43,2,4.13,3.23,6.61,2.27c0.649-0.25,1.109-0.629,1.399-1.109
		c0.351-0.28,0.691-0.54,1.04-0.65c1.2,0.49,2.6,1.61,3.97,2.87c0.021,0.03,0.05,0.05,0.07,0.08c0.68,0.83,1.06,1.92,1.97,2.63
		c0.54,0.42,1.381,0.67,1.95,1.1c0.03,0.03,0.05,0.05,0.07,0.069c0.079,0.07,0.159,0.141,0.239,0.211
		c0.181,0.229,0.301,0.489,0.311,0.83c-0.41-0.121-0.86-0.291-1.34-0.5c-1.21-1.19-2.48-2.33-3.801-3.421
		c0.131-0.25-0.18-0.229-0.25-0.3c-0.859-0.89-2.039-1.55-2.939-2.41c-0.189,0.41-0.5,0.62-0.76,0.83
		c-2.631,2.221-7.551,0.61-8.94-1.8c-0.39,0.569-0.93,1.05-1.3,1.569c-0.66,0.931-1.71,1.521-2.8,1.99
		c-2.92,1.291-6.48-0.35-8.101-2.119c-0.539,2.22-1.84,3.72-3.5,4.699c-3.539,2.09-8.029-0.34-9.229-3.41
		c-0.72,2.61-2.08,4.24-3.761,5.561c-2.629,2.05-8.34,1.65-10.09-1.05c-0.5,3.15-2.26,5.21-4.52,6.54
		c-0.2,0.109-0.26,0.18-0.41,0.24c-2.439,1.029-5.79,0.59-7.38-1.03c-0.09,1.939-0.87,3.15-1.62,4.31
		c-1.37,2.13-5.66,3.59-8.359,1.7c-0.791-0.56-1.641-0.97-2.2-1.75c-0.271,1.14-0.78,2.16-1.32,3.04
		c-1.399,2.279-2.99,4.47-6.66,4.47C131.978,59.728,131.948,59.728,131.918,59.728z M108.388,99.249
		c-0.039-0.74-0.14-1.711-0.229-2.771c0.02-0.39,0.03-0.78,0.05-1.18c0.04-0.89-0.1-1.97-0.16-3.021
		c0.08-1.149,0.29-2.18,0.75-2.859l-0.23,0.229c-0.149,0.24-0.319,0.48-0.5,0.7c0.031-0.23,0.07-0.45,0.141-0.66
		c0.1-0.35,0.26-0.699,0.46-1.06c0.62-0.74,1.229-1.49,1.82-2.24c3.6-4.59,6.71-8.86,8.84-14.42c0.58-1.51,1.16-3.04,1.76-4.56
		c0.011-0.021,0.011-0.041,0.021-0.051c0.119-0.229,0.25-0.46,0.369-0.689c1.2-2.2,2.311-4.42,3.5-6.62c1.08-2,2.17-4.8,3.84-6.32
		c0.011,0.88,0.181,1.75,0.551,2.521l0.14,0.99c-0.02,0.359,0.181,0.779,0.21,1.17c-0.13-0.15-0.32-0.28-0.38-0.471
		c-0.33-1.01-0.58-1.99-0.61-3.34c-1.709,3.41-3.33,6.92-4.85,10.55c-1.47,3.48-2.939,6.97-4.74,10.12
		c-2.949,5.18-5.71,10.42-9.609,14.551c-0.391,5.6-0.271,10.869,0.26,15.859c-0.21,1.2-0.391,2.42-0.53,3.641
		C108.968,105.969,108.558,102.618,108.388,99.249z"/>
	<path style="fill:#C4A074;" d="M109.529,89.819c3.899-4.131,6.66-9.371,9.609-14.551c1.801-3.15,3.271-6.64,4.74-10.12
		c1.52-3.63,3.141-7.14,4.85-10.55c0.03,1.35,0.28,2.33,0.61,3.34c0.059,0.191,0.25,0.32,0.38,0.471
		c0.01,0.02,0.01,0.039,0.01,0.069c0.02,0,0.041,0.011,0.061,0.021c0.04,0.06,0.061,0.13,0.05,0.199l2.08,1.03
		c3.729,0.03,5.34-2.17,6.75-4.47c0.54-0.88,1.05-1.9,1.32-3.04c0.559,0.78,1.409,1.19,2.2,1.75c2.699,1.89,6.989,0.43,8.359-1.7
		c0.75-1.16,1.53-2.37,1.62-4.31c1.59,1.62,4.941,2.06,7.38,1.03c0.15-0.061,0.21-0.131,0.41-0.24c2.26-1.33,4.02-3.391,4.52-6.54
		c1.75,2.7,7.461,3.1,10.09,1.05c1.681-1.32,3.041-2.95,3.761-5.561c1.2,3.07,5.69,5.5,9.229,3.41c1.66-0.979,2.961-2.479,3.5-4.699
		c1.62,1.77,5.181,3.41,8.101,2.119c1.09-0.47,2.14-1.06,2.8-1.99c0.37-0.52,0.91-1,1.3-1.569c1.39,2.41,6.31,4.021,8.94,1.8
		c0.26-0.21,0.57-0.42,0.76-0.83c0.9,0.86,2.08,1.521,2.939,2.41c0.07,0.07,0.381,0.05,0.25,0.3c1.32,1.091,2.591,2.231,3.801,3.421
		c-2.021-0.86-4.49-2.24-6.35-2.121c-1.141,0.09-2.141,1.25-3.461,1.45c-1.779,0.28-4.119-0.37-5.58-1.45
		c-1.189,1.24-1.819,2.66-3.67,3.32c-2.38,0.84-6.289,0.21-8.199-1.5c-2.28,4.721-8.59,5.98-12.91,3.13
		c-1.29,1.021-2.2,2.58-3.76,3.33c-1.57,0.771-3.881,0.75-5.57,0.47c-0.68-0.109-1.79-0.75-2.49-0.51
		c-0.4,0.141-1.29,1.84-1.641,2.2c-1.039,1.05-2.06,1.56-3.459,1.979c-2.541,0.761-5.181,0.981-7.7,0.181
		c-1.07,1.83-2.28,3.94-3.99,5.229c-1.51,1.141-3.09,1.521-4.92,1.57c-1.74,0.04-3.76-0.79-5.33-0.71
		c-1.18,0.05-0.22-0.26-1.271,0.34c-1.059,0.61-2.029,1.95-3.189,2.64c-1.641,0.961-4.87,2.66-6.439,0.74
		c-0.041,1.24-0.9,2.35-1.381,3.461c-0.789,1.829-1.31,3.81-2.13,5.609c-1.97,4.391-4.54,8.67-7.44,12.49
		c-4.869,6.41-7.869,13.88-9.279,21.76C109.258,100.688,109.138,95.419,109.529,89.819z"/>
	<path style="fill:#ACA594;" d="M121.099,67.368c0.01-0.01,0.01-0.01,0.01-0.01c-0.01,0.01-0.01,0.03-0.021,0.051
		C121.088,67.388,121.099,67.379,121.099,67.368z"/>
	<path d="M199.359,146.848c-1.34,0.25-2.881,0.33-4.53,0.24c-1.36-0.07-2.44-0.44-3.64-0.77c-7.061-2.011-11.461-6.91-13.931-13.531
		c-0.18-0.56-0.31-1.119-0.26-1.709l0.69,0.18c0.55,2.609,2.84,6.6,4.75,8.68c3.68,4.021,9.39,6.18,14.789,5.98
		c5.061-0.2,8.681-3.42,12.23-6.631c2.02-1.84,3.189-3.399,4.59-5.739c0.87-1.45,1.891-3.54,3.24-4.65
		c-1,4.64-3.48,7.82-6.24,10.671c-2.75,2.859-6.059,5.23-10.08,6.789l0.45,1.461c0.06,0.409,0.12,0.829,0.17,1.25
		c-0.58,0.149-1.16,0.279-1.76,0.379C199.718,148.558,199.558,147.688,199.359,146.848z"/>
	<path style="fill:#ACA594;" d="M201.418,147.819l-0.45-1.461c4.021-1.56,7.33-3.93,10.08-6.789c2.76-2.851,5.24-6.031,6.24-10.671
		c0.109-0.09,0.23-0.17,0.34-0.25c0.3,1.931-0.91,5.44-1.57,7.27c-1,2.76-3.1,5.68-5.199,7.73c-2.771,2.72-5.851,4.511-9.271,5.421
		C201.538,148.648,201.478,148.228,201.418,147.819z M194.998,149.749c-5.63-0.221-12.69-2.76-15.181-8.17
		c-1.02-2.221-1.449-4.641-1.989-7.01c-0.14-0.601-0.38-1.19-0.57-1.781c2.47,6.621,6.87,11.52,13.931,13.531
		c1.199,0.329,2.279,0.699,3.64,0.77c1.649,0.09,3.19,0.01,4.53-0.24c0.199,0.84,0.359,1.71,0.47,2.6
		c-1.24,0.221-2.511,0.32-3.83,0.32C195.668,149.768,195.338,149.768,194.998,149.749z"/>
	<path d="M210.599,30.848c0.049-0.23,0.1-0.46,0.14-0.7c0.51,0.63,0.93,1.44,1.159,2.27
		C211.618,31.749,211.128,31.249,210.599,30.848z M205.618,35.728c-0.58-0.35-1.25-1.09-1.96-1.46c-0.24-0.34-0.45-0.699-0.61-1.08
		c-0.14,0.32-0.29,0.62-0.449,0.9c-0.461,0.109-1,0.42-1.57,0.8c0.199-0.229,0.39-0.46,0.56-0.7c0.5-0.64,0.63-1.619,1.4-2
		c0.25-0.13,0.39,0.21,0.59,0.32c0.33,0.16,0.44,0.689,0.21,0.99c1.029,1.47,2.55,2.68,5.02,2.609
		c1.431-0.029,2.641-0.539,3.051-1.66c0.1-0.27,0.199-0.58,0.24-0.89c0.029,0.681-0.101,1.33-0.431,1.87
		c-0.569,0.48-1.149,1.04-1.819,1.23c-0.301,0.08-0.61,0.119-0.931,0.119C207.758,36.778,206.529,36.278,205.618,35.728z
		 M166.769,42.098c2.689,1.46,7.149,0.37,8.42-1.91c1.05-1.38,1.76-3.17,2.33-5.01c0.109-0.359,0.379-0.76,0.819-0.7
		c0.29,0.05,0.55,0.3,0.63,0.61c0.26,1.17,0.85,2.07,1.51,2.88c0.77,0.95,1.73,1.87,3.181,2.069c0.69,0.091,1.38,0.031,1.97-0.189
		c2.28-0.87,3.721-2.79,4.07-5.93c0.02-0.141,0.04-0.69,0.51-0.81c0.25-0.08,0.67-0.21,0.83,0.2c0.72,1.851,2.21,3.3,4.561,3.729
		c0.529,0.101,1.02,0.121,1.48,0.08c-0.45,0.15-0.92,0.28-1.37,0.33c-1.189-0.22-2.37-0.729-3.46-1.479
		c-0.38-0.42-0.76-0.82-1.29-1.05l0,0c-0.061-0.051-0.12-0.11-0.189-0.18c-0.041,0.17-0.101,0.34-0.15,0.5
		c-0.63,0.709-0.811,1.67-1.311,2.459c-0.22,0.28-0.449,0.541-0.689,0.791c-0.49,0.439-1.19,0.959-1.91,1.39
		c-1.54,0.769-3.25,0.92-4.77,0.28c-0.6-0.34-1.2-0.771-1.77-1.221c-0.7-0.729-1.3-1.72-1.72-2.979c-0.2,0.26-0.4,0.54-0.6,0.829
		c-0.041-0.039-0.08-0.079-0.121-0.119c-0.08,0.21-0.16,0.43-0.239,0.64c-1.351,2.021-2.681,4.29-4.811,5.34
		c-0.77,0.22-1.989,0.46-3.06,0.521C168.628,43.038,167.668,42.638,166.769,42.098z M125.838,42.719c0.49-0.64,1.12-1.11,1.82-1.24
		l-0.7,0.931c0.02,0.06,0.05,0.119,0.07,0.19c-0.51,0.68-0.961,1.4-1.12,2.33C125.898,44.249,125.898,43.499,125.838,42.719z
		 M131.148,58.179c-0.83-0.49-1.399-1.16-1.779-1.93l-0.38-2.67c-0.061,0.05-0.11,0.1-0.171,0.149c0-0.17,0-0.35,0.02-0.52
		c0.761-1.33,1.38-2.771,1.36-4.011c0.13-0.189,0.26-0.359,0.4-0.52c-1.07-0.37-2.41-0.17-3.56-0.42c-0.8-0.57-1.02-1.45-1.1-2.561
		c0.649,1.771,2.5,2.801,4.939,2.521c0.34-0.05,0.49,0.34,0.96,0.3c-0.92,1.6-1.62,3.25-1.84,5.4c-0.08,0.74-0.2,1.4,0.04,2.029
		c0.13,1.221,0.89,2.051,2.14,2.16c0.87,0.08,1.53-0.27,2.15-0.609c2.37-1.351,3.75-3.891,4.37-7.051
		c0.109-0.529,0.229-1.01,0.57-1.289c0.189-0.16,0.59,0.149,0.779,0.41c0.9,1.199,1.51,2.629,3.15,3.079
		c0.41,0.12,0.84,0.271,1.29,0.311c3.46,0.29,5.329-1.87,5.88-4.75c0.21-1.07-0.141-1.87-0.16-2.86c0.22-0.09,0.33-0.26,0.45-0.34
		c0.27-0.17,0.63,0.07,0.81,0.29c1.24,1.56,3.561,3.02,6.271,2.31c3.319-0.869,5.38-3.529,5.09-7.91
		c-0.03-0.47,0.88-1.01,1.12-0.689l1.8,2.311c0.14,0.159,0.3,0.299,0.47,0.43c-0.89-0.61-1.72-1.351-2.46-2.07
		c0.12,0.68,0.181,1.32,0.17,1.93c-0.68,0.61-0.96,2.08-1.6,2.9c-0.87,1.109-2.19,2.439-3.32,3.311
		c-0.409,0.319-0.79,0.539-1.149,0.689c-0.78,0.1-1.601,0.1-2.42-0.03c-1.23-0.479-2.41-1.46-4-1.659
		c-0.17-0.121-0.33-0.24-0.49-0.371c0.05,0.121,0.09,0.23,0.13,0.34c-0.021,0-0.05,0-0.07,0c-0.64,1.83-0.6,3.61-1.399,4.931
		c-1.17,1.03-2.801,1.7-4.461,1.86c-1.85-0.311-3.449-1.65-5.309-2.07c0,0.04-0.01,0.08-0.02,0.109
		c-0.289-0.35-0.549-0.769-0.77-1.229c-0.8,2.13-2.16,7.11-4.84,8.2c-0.24,0.07-0.49,0.14-0.73,0.189
		c-0.119,0.01-0.23,0.021-0.35,0.021C132.529,58.799,131.868,58.608,131.148,58.179z"/>
	<path style="fill:#D8D8D8;" d="M132.178,58.108c-1.25-0.109-2.01-0.94-2.14-2.16c-0.24-0.629-0.12-1.289-0.04-2.029
		c0.22-2.15,0.92-3.801,1.84-5.4c-0.47,0.04-0.62-0.35-0.96-0.3c-2.439,0.28-4.29-0.75-4.939-2.521
		c-0.011-0.25-0.021-0.51-0.03-0.77c0.159-0.93,0.61-1.65,1.12-2.33c0.47,1.28,0.47,3.18,1.84,4.18
		c1.439,1.041,3.57,0.391,5.29,0.32c-0.101,1.62-1.72,3.83-0.41,5.28c2.72-0.41,3.47-3.681,5.01-5.46
		c1.66,1.18,3.511,3.729,5.83,2.24c2.521-1.601,2.22-5.74,4.24-7.601c2.63,1.16,4.75,3.78,7.92,2.67c1.53-0.54,2.72-2.34,3.5-3.69
		c0.41-0.709,1.22-3.93,1.79-4.209c1.779-0.84,4.75,3.68,7.92,2.539c3.8-1.379,5.16-5.33,8.2-7.189c1.96,1.641,2.59,4.95,5.81,4.4
		c3.32-0.58,4.28-5.08,6.53-6.971c1.44,1.57,2.71,4.271,4.88,4.99c2.45,0.81,4.93-1.52,6.7-2.91c3.53-2.779,2.35,0.12,4.89,2.16
		c2.141,1.721,3.15-0.27,3.631-2.5c0.529,0.4,1.02,0.9,1.299,1.57c0.11,0.38,0.181,0.77,0.201,1.14
		c-0.041,0.31-0.141,0.62-0.24,0.89c-0.41,1.121-1.62,1.631-3.051,1.66c-2.47,0.07-3.99-1.14-5.02-2.609
		c0.23-0.301,0.12-0.83-0.21-0.99c-0.2-0.11-0.34-0.45-0.59-0.32c-0.771,0.381-0.9,1.36-1.4,2c-0.17,0.24-0.36,0.471-0.56,0.7
		c-0.93,0.62-1.91,1.42-2.61,1.72c-0.42,0.18-0.88,0.36-1.34,0.51c-0.46,0.041-0.95,0.02-1.48-0.08
		c-2.351-0.43-3.841-1.879-4.561-3.729c-0.16-0.41-0.58-0.28-0.83-0.2c-0.47,0.12-0.49,0.67-0.51,0.81
		c-0.35,3.14-1.79,5.06-4.07,5.93c-0.59,0.221-1.279,0.28-1.97,0.189c-1.45-0.199-2.41-1.119-3.181-2.069
		c-0.66-0.81-1.25-1.71-1.51-2.88c-0.08-0.311-0.34-0.561-0.63-0.61c-0.441-0.06-0.71,0.341-0.819,0.7
		c-0.57,1.84-1.28,3.63-2.33,5.01c-1.27,2.28-5.73,3.37-8.42,1.91c-0.19-0.109-0.371-0.231-0.551-0.35
		c-0.17-0.131-0.33-0.271-0.47-0.43l-1.8-2.311c-0.24-0.32-1.15,0.22-1.12,0.689c0.29,4.381-1.771,7.041-5.09,7.91
		c-2.71,0.711-5.03-0.75-6.271-2.31c-0.18-0.22-0.54-0.46-0.81-0.29c-0.12,0.08-0.23,0.25-0.45,0.34c0.02,0.99,0.37,1.79,0.16,2.86
		c-0.551,2.88-2.42,5.04-5.88,4.75c-0.45-0.04-0.88-0.19-1.29-0.311c-1.641-0.45-2.25-1.88-3.15-3.079
		c-0.189-0.261-0.59-0.57-0.779-0.41c-0.341,0.279-0.461,0.76-0.57,1.289c-0.62,3.16-2,5.7-4.37,7.051
		c-0.56,0.3-1.15,0.619-1.9,0.619C132.349,58.118,132.258,58.118,132.178,58.108z"/>
	<path d="M125.029,46.608c-0.48-1.14-0.061-2.77,0.81-3.89c0.06,0.78,0.06,1.53,0.07,2.21c-0.03,0.16-0.04,0.33-0.05,0.51
		c0.02,0.09,0.05,0.18,0.08,0.26c0.08,1.11,0.3,1.99,1.1,2.561C126.198,48.079,125.468,47.659,125.029,46.608z M129.038,51.858
		c0.4-0.619,0.76-1.27,1.061-2c0.06-0.15-0.08-0.18-0.131-0.18c-0.02,0-0.05,0-0.08,0c0.101-0.16,0.2-0.33,0.311-0.48
		c0.02,1.24-0.6,2.681-1.36,4.011C128.859,52.749,128.928,52.299,129.038,51.858z"/>
	<path style="fill:#7F7F7F;" d="M125.859,45.438c0.01-0.18,0.02-0.35,0.05-0.51c0.01,0.26,0.02,0.52,0.03,0.77
		C125.908,45.618,125.878,45.528,125.859,45.438z"/>
	<path d="M190.958,34.919L190.958,34.919c0.53,0.229,0.91,0.63,1.29,1.05C191.798,35.659,191.368,35.308,190.958,34.919z
		 M203.658,34.268c0.71,0.37,1.38,1.11,1.96,1.46c1.16,0.7,2.82,1.32,4.23,0.931c0.67-0.19,1.25-0.75,1.819-1.23
		c-0.29,0.48-0.75,0.859-1.399,1.109c-0.591,0.23-1.181,0.33-1.771,0.33C206.588,36.868,204.748,35.788,203.658,34.268z
		 M177.728,36.669c0.041,0.04,0.08,0.08,0.121,0.119c-0.121,0.171-0.24,0.341-0.36,0.521
		C177.568,37.098,177.648,36.879,177.728,36.669z M195.708,37.448c0.45-0.05,0.92-0.18,1.37-0.33c1.729-0.129,2.989-1.119,3.95-2.23
		c0.57-0.38,1.109-0.69,1.57-0.8c-1.371,2.439-3.421,3.49-5.58,3.49C196.578,37.579,196.138,37.538,195.708,37.448z M190.618,35.239
		c-0.32,0.93-0.77,1.75-1.311,2.459C189.808,36.909,189.989,35.948,190.618,35.239z M188.618,38.489
		c-0.58,0.58-1.23,1.049-1.91,1.39C187.428,39.448,188.128,38.929,188.618,38.489z M180.168,38.938c0.57,0.45,1.17,0.881,1.77,1.221
		C181.308,39.888,180.708,39.489,180.168,38.938z M169.618,43.169c1.07-0.06,2.29-0.301,3.06-0.521
		c-0.17,0.091-0.34,0.16-0.52,0.231c-0.62,0.239-1.23,0.34-1.841,0.34C170.088,43.219,169.859,43.198,169.618,43.169z
		 M151.439,46.819c1.59,0.199,2.77,1.18,4,1.659C154.088,48.259,152.708,47.719,151.439,46.819z M159.008,47.819
		c1.13-0.871,2.45-2.201,3.32-3.311c0.64-0.82,0.92-2.29,1.6-2.9c-0.05,3.961-2.75,6.45-6.069,6.9
		C158.218,48.358,158.599,48.138,159.008,47.819z M151.008,46.788c0.02,0,0.05,0,0.07,0c0.68,1.961-0.06,3.701-1.47,4.931
		C150.408,50.398,150.368,48.618,151.008,46.788z M139.818,51.618c0.011-0.029,0.02-0.069,0.02-0.109
		c1.86,0.42,3.46,1.76,5.309,2.07c-0.239,0.02-0.489,0.029-0.739,0.029C142.668,53.608,140.968,53.009,139.818,51.618z
		 M128.818,53.728c0.06-0.05,0.11-0.1,0.171-0.149l0.38,2.67C128.998,55.478,128.828,54.608,128.818,53.728z M134.208,58.589
		c-0.24,0.09-0.48,0.16-0.73,0.189C133.718,58.728,133.968,58.659,134.208,58.589z"/>
	<path style="fill:#7F7F7F;" d="M198.418,36.608c0.7-0.3,1.681-1.1,2.61-1.72c-0.961,1.11-2.221,2.101-3.95,2.23
		C197.538,36.969,197.998,36.788,198.418,36.608z"/>
	<path d="M245.678,54.288c-3.36-0.159-6.489-0.789-9.739-1.609c-0.86-0.21-1.881-0.35-2.92-0.52l-2.9-0.82
		c-0.03-0.01-0.061-0.02-0.1-0.02c-0.101,0-0.19,0.049-0.261,0.119c-0.489-0.18-0.95-0.39-1.36-0.65
		c-3.319-2.159-4.6-6.329-7.42-9.049c-0.09-0.101-0.189-0.19-0.31-0.28c-1.13-1.03-2.55-2.49-3.99-3.811
		c-0.29-0.35-0.72-0.86-1.2-1.35c3.42,2.45,6.32,5.43,9.2,8.39c1.46,1.49,2.69,3.221,3.88,4.79l10.551,2.99
		c4.309,1,10.059,1.97,14.899,0.91c0.89-0.28,1.75-0.61,2.55-1c0.73,0.03,1.48,0.04,2.25,0.03c-2.81,1.6-6.399,1.97-9.819,1.97
		C247.859,54.379,246.748,54.339,245.678,54.288z"/>
	<path d="M229.758,51.438c0.07-0.07,0.16-0.119,0.261-0.119c0.039,0,0.069,0.01,0.1,0.02v-0.01l2.9,0.83
		C231.898,51.989,230.758,51.778,229.758,51.438z"/>
	<path d="M213.298,34.728c-0.199-0.03-0.39-0.01-0.59,0.05c-0.03-0.02-0.07-0.029-0.109-0.05l0.23-1.63
		c-0.48-1.62-1.66-2.12-1.17-3.42c0.08-0.2,2.59-2.97,2.78-3.061c1.379-0.609,2.09-0.129,2.539,0.761
		c-0.689-0.05-1.39-0.12-2.09-0.2c-0.39,1.37-1.48,2.33-2.67,3.109c0.971,1.061,1.771,2.66,1.33,4.511
		C213.458,34.768,213.378,34.749,213.298,34.728z"/>
	<path d="M212.708,34.778c0.2-0.06,0.391-0.08,0.59-0.05c0.08,0.021,0.16,0.04,0.25,0.07c-0.01,0.06-0.029,0.11-0.04,0.17
		c0.28,0.2,0.57,0.38,0.86,0.569c0.38,0.24,0.75,0.5,1.109,0.761c0.48,0.489,0.91,1,1.2,1.35
		C215.308,36.388,213.908,35.268,212.708,34.778z M220.739,41.528c-0.021-0.02-0.04-0.039-0.07-0.069c0.12,0.09,0.22,0.18,0.31,0.28
		C220.898,41.669,220.818,41.598,220.739,41.528z"/>
	<path d="M139.618,168.438c-0.03-0.01-0.061-0.02-0.09-0.02c-0.061-0.01-0.131-0.01-0.2,0.01c-0.15-0.03-0.3-0.061-0.45-0.1
		c-0.47-0.78-1.5-1.101-2.42-1c-0.141-0.09-0.26-0.181-0.391-0.28c-0.039,0.12-0.079,0.229-0.119,0.34
		c-0.49-0.2-0.95-0.41-1.37-0.62c0.19-0.49,0.39-0.949,0.86-1.16c0.34-0.149,0.85-0.18,1.129,0.12c1.36,1.4,4.141,2.11,6.77,1.21
		c-0.15,0.061-0.01-0.13-0.18-0.27c-3.21-2.471-6.22-5.12-9.14-7.9c-11.891-11.35-20.711-25.859-24.771-44.68
		c-1.41-6.551-2.101-14.26-1.729-22.12c-3.511,3.69-7.351,7-11.701,9.68c-0.979,0.601-1.939,1.2-2.949,1.761
		c-0.32-0.141-0.62-0.301-0.86-0.48c0.261-0.25,0.53-0.49,0.8-0.73c1.631-0.6,3.16-1.34,4.41-2.35c2.17-1.76,4.32-3.689,6.37-5.73
		c1.65-1.119,3.32-2.31,4.479-3.77c-0.079,0.59-0.069,1.26-0.02,1.93c-0.09,1.33,0,2.84,0.11,4.2c-0.15,4.37-0.08,8.95,1.069,13.11
		c0.011-0.09,0.021-0.18,0.03-0.27c0.091,1.14,0.181,2.279,0.24,3.42c0.2,4.189,1.75,7.77,3.26,11.649
		c1.54,3.92,2.351,7.229,4.66,10.88c4.34,6.88,8.36,13.24,13.96,19.15c2.44,2.56,4.84,5.23,7.45,7.67
		c1.39,1.31,4.729,2.82,5.29,4.65c0.07,0.22,0.26,0.399,0.4,0.58c-0.041-0.02-0.08-0.02-0.121-0.02c-0.09,0-0.17,0.03-0.239,0.09
		l0,0c-0.73,0.63-2.03,1.149-3.46,1.149C140.349,168.538,139.989,168.499,139.618,168.438z"/>
	<path d="M139.328,168.429c0.069-0.02,0.14-0.02,0.2-0.01c0.029,0,0.06,0.01,0.09,0.02c1.83,0.34,3.63-0.26,4.54-1.05l0,0
		c0.069-0.06,0.149-0.09,0.239-0.09c0.041,0,0.08,0,0.121,0.02c0.029,0.039,0.06,0.079,0.08,0.129c-0.721,0.871-1.891,1.2-3.211,1.2
		C140.728,168.648,140.029,168.569,139.328,168.429z"/>
	<path style="fill:#D8D8D8;" d="M136.568,165.728c-0.279-0.3-0.789-0.27-1.129-0.12c-0.471,0.211-0.67,0.67-0.86,1.16
		c-0.42-0.21-0.79-0.42-1.101-0.609c-7.399-4.601-14.629-9.92-19.739-17.121c-6.3-8.899-9.46-19.81-11.4-30.52
		c-0.5-2.779-0.94-5.58-1.39-8.37c-0.16-0.979-0.26-4.489-1.021-5.149c-0.75-0.65-3.7-0.521-4.87-0.86c-0.69-0.2-1.5-0.43-2.19-0.73
		c1.01-0.56,1.97-1.16,2.949-1.761c4.351-2.68,8.19-5.989,11.701-9.68c-0.371,7.86,0.319,15.569,1.729,22.12
		c4.06,18.82,12.88,33.33,24.771,44.68c2.92,2.78,5.93,5.43,9.14,7.9c0.17,0.14,0.03,0.33,0.18,0.27c-0.81,0.28-1.63,0.4-2.41,0.4
		C139.138,167.339,137.508,166.698,136.568,165.728z"/>
	<path style="fill:#A88556;" d="M135.948,167.388c0.04-0.11,0.08-0.22,0.119-0.34c0.131,0.1,0.25,0.19,0.391,0.28
		c-0.16,0.02-0.311,0.039-0.46,0.08C135.989,167.409,135.968,167.398,135.948,167.388z"/>
	<path d="M100.828,96.069c0.83-0.66,1.79-1.291,2.76-1.951c-2.05,2.041-4.2,3.971-6.37,5.73c-1.25,1.01-2.779,1.75-4.41,2.35
		C95.318,100.009,98.168,98.138,100.828,96.069z"/>
	<path d="M108.068,90.348c0.181-0.22,0.351-0.46,0.5-0.7l0.23-0.229c-0.46,0.68-0.67,1.71-0.75,2.859
		C107.998,91.608,107.989,90.938,108.068,90.348z M108.158,96.478c0.09,1.06,0.19,2.03,0.229,2.771c0.17,3.369,0.58,6.72,0.87,10.07
		c-0.01,0.09-0.02,0.18-0.03,0.27C108.078,105.429,108.008,100.848,108.158,96.478z"/>
	<path d="M68.939,177.709c0.08-1.66,0.22-3.261,0.5-4.761c-0.65-0.17-1.261-0.1-1.811-0.25c-0.85-0.25-1.64-0.48-2.439-0.85
		c-0.021,1.07,0.109,2.23,0.08,3.21c-0.011,0.681-0.051,1.34-0.11,1.98c-0.14-0.079-0.261-0.18-0.37-0.289
		c-0.18-0.18-0.311-0.521-0.4-0.941c0.061-1.11,0.04-2.26-0.06-3.45c0.06-0.41,0.149-0.699,0.26-0.779l5.58,0.689
		c-0.66,1.391-0.319,3.9-0.271,5.561C69.638,177.768,69.308,177.739,68.939,177.709z"/>
	<path d="M64.328,172.358c0.1,1.19,0.12,2.34,0.06,3.45C64.168,174.788,64.178,173.278,64.328,172.358z"/>
	<path style="fill:#A88556;" d="M65.158,177.038c0.06-0.64,0.1-1.299,0.11-1.98c0.029-0.979-0.101-2.14-0.08-3.21
		c0.8,0.37,1.59,0.6,2.439,0.85c0.55,0.15,1.16,0.08,1.811,0.25c-0.28,1.5-0.42,3.101-0.5,4.761
		C67.718,177.618,66.099,177.598,65.158,177.038z"/>
	<path d="M85.558,176.129c0.101-0.62,0.2-1.74,0.08-2.021c-1.26-0.6-2.06-1.31-2.83-2.029c0.12,1.1,0.19,2.289,0.221,3.5
		c-0.03-0.01-0.051-0.03-0.08-0.051c-0.33-0.26-0.551-0.55-0.69-0.869c0.011-0.631,0-1.28-0.06-1.931l0,0l0,0
		c-0.021-0.18-0.04-0.35-0.061-0.53c0.061-0.72,0.09-1.48-0.1-2.25l4.66,4.221c-0.15,0.04-0.271,0.17-0.271,0.33
		c0,0.359,0,0.72,0,1.08c-0.239,0.33-0.54,0.56-0.88,0.68C85.548,176.219,85.558,176.169,85.558,176.129z"/>
	<path d="M82.138,172.198c0.021,0.181,0.04,0.351,0.061,0.53l0,0l0,0c0.06,0.65,0.07,1.3,0.06,1.931
		C81.958,173.948,82.058,173.108,82.138,172.198z M86.428,174.499c0-0.16,0.12-0.29,0.271-0.33l0.22,0.199
		c-0.101,0.49-0.271,0.9-0.49,1.211C86.428,175.219,86.428,174.858,86.428,174.499z"/>
	<path style="fill:#A88556;" d="M83.029,175.579c-0.03-1.211-0.101-2.4-0.221-3.5c0.771,0.72,1.57,1.43,2.83,2.029
		c0.12,0.28,0.021,1.4-0.08,2.021c0,0.04-0.01,0.09-0.01,0.13c-0.189,0.061-0.38,0.09-0.59,0.09
		C84.378,176.348,83.708,176.089,83.029,175.579z"/>
	<path d="M120.088,175.538c0.03-0.92,0.13-1.819,0.32-2.579c-0.58-0.73-1.15-1.61-1.79-2.41c-0.56-0.71-0.99-1.7-1.37-2.57
		l-1.13,2.05c0.46,1.62,1.01,3.101,1.32,4.83c-1.11-0.77-1.541-2.22-1.891-4.449l0.93-2.791c0.261-0.459,0.641-0.77,1.121-0.89
		c1.079,1.11,1.039,2.73,1.719,4.08c0.951,1.86,1.73,2.63,2.031,4.681c-0.391,0.029-0.74,0.049-1.08,0.049
		C120.208,175.538,120.148,175.538,120.088,175.538z"/>
	<path style="fill:#A88556;" d="M117.439,174.858c-0.311-1.729-0.86-3.21-1.32-4.83l1.13-2.05c0.38,0.87,0.81,1.86,1.37,2.57
		c0.64,0.8,1.21,1.68,1.79,2.41c-0.19,0.76-0.29,1.659-0.32,2.579C118.908,175.518,118.058,175.299,117.439,174.858z"/>
	<path d="M130.769,174.198c-0.011-0.01-0.011-0.02-0.011-0.029c-0.01,0-0.01,0-0.01,0l0,0l0,0c-0.11-0.23-0.431-0.301-0.59-0.26
		c-0.03,0.01-0.05,0.01-0.08,0.02c-0.12-0.45-0.12-0.8,0.13-0.96l0.939-0.46c2.17-1,2.53-3.95,4.36-4.91
		c0.14-0.07,0.28-0.12,0.431-0.17c-0.94,2.53-2.641,4.32-4.48,5.92c0.359,0.52,0.689,1.15,0.9,1.77
		c0.119,0.391,0.25,0.791,0.35,1.19c-0.359,0.13-0.72,0.28-1.061,0.49C131.468,175.848,131.198,174.929,130.769,174.198z"/>
	<path d="M130.078,173.929c0.03-0.01,0.05-0.01,0.08-0.02c0.159-0.041,0.48,0.029,0.59,0.26l0,0l0,0c0,0,0,0,0.01,0
		c0,0.01,0,0.02,0.011,0.029c0.43,0.73,0.699,1.65,0.879,2.601c-0.159,0.1-0.319,0.21-0.47,0.34
		C131.158,176.299,130.338,174.888,130.078,173.929z"/>
	<path d="M136.989,171.888c0.3-1.21,0.61-2.55,0.95-3.66c-0.19-0.11-0.371-0.21-0.551-0.31c0.49,0.16,0.99,0.3,1.49,0.41
		c0.04,0.08,0.08,0.17,0.12,0.26c-0.101,0.09-0.181,0.22-0.21,0.359c-0.26,1.15-0.59,2.311-0.891,3.511
		c-0.559,1.1-1.209,2.11-1.649,2.54C136.468,173.948,136.728,172.929,136.989,171.888z"/>
	<path d="M138.788,168.948c0.029-0.14,0.109-0.27,0.21-0.359c0.021,0.06,0.04,0.12,0.06,0.189c0.17,0.66-0.43,2.24-1.16,3.681
		C138.198,171.259,138.529,170.098,138.788,168.948z"/>
	<path style="fill:#A88556;" d="M132.359,175.118c-0.211-0.619-0.541-1.25-0.9-1.77c1.84-1.6,3.54-3.39,4.48-5.92
		c0.02-0.01,0.039-0.01,0.06-0.02c0.45,0.18,0.91,0.35,1.39,0.51c0.18,0.1,0.36,0.199,0.551,0.31c-0.34,1.11-0.65,2.45-0.95,3.66
		c-0.261,1.04-0.521,2.06-0.74,3.11c-0.06,0.05-0.12,0.1-0.17,0.13c-0.94,0.649-2.19,0.76-3.37,1.18
		C132.609,175.909,132.478,175.509,132.359,175.118z"/>
	<path d="M137.388,167.919c-0.34-0.2-0.649-0.391-0.93-0.59c0.92-0.101,1.95,0.22,2.42,1
		C138.378,168.219,137.878,168.079,137.388,167.919z"/>
	<path style="fill:#746B5E;" d="M135.998,167.409c0.149-0.041,0.3-0.061,0.46-0.08c0.28,0.199,0.59,0.39,0.93,0.59
		C136.908,167.759,136.448,167.589,135.998,167.409z"/>
	<path d="M125.248,39.698c0-0.489-0.38-0.93-0.3-1.479c0.47-3.399,2.59-5.26,6.229-5.37c-0.819-1.43-0.72-4.01-0.01-5.38
		c1.04-2.01,4.15-3.521,6.75-2.101c-0.23-1.199,0-2.5-0.05-3.379c-1.141-2.221-2.13-4.31-3.7-5.75c0.06-0.041,0.12-0.07,0.17-0.11
		c1.309,1.7,3.559,2.479,4.021,4.62c0.22,1.059,0.119,5.309-0.74,5.85c-0.15,0.09-0.32,0.141-0.5,0.17
		c-0.73-0.29-1.52-0.51-2.34-0.279c-0.49-0.041-0.961,0.02-1.36,0.31c-1.39,1.03-1.48,3.16-1.809,4.62
		c-0.5,2.18,0.26,1.94-2.16,2.85c-2.01,0.74-2.67,0.83-3.481,2.971c-0.41,1.08-0.09,2.369-0.029,3.379
		C125.529,40.299,125.239,39.948,125.248,39.698z M118.939,46.358c1.459-1.14,2.89-2.31,4.31-3.49c0.84-0.699,1.86-1.369,2.69-2.1
		c0.02,0.37-0.011,0.69-0.141,0.95c-0.07,0.149-0.189,0.319-0.35,0.5c-0.73,0.479-1.35,1.01-1.85,1.569
		c-1.451,1.051-3.171,2.091-3.86,2.57H118.939z"/>
	<path style="fill:#EAEAEA;" d="M118.578,46.358c-2.41-0.479,3.55-16.94,4.69-19.07c2.569-4.76,6.34-8.35,10.899-11.049
		c1.57,1.439,2.56,3.529,3.7,5.75c0.05,0.879-0.18,2.18,0.05,3.379c-2.6-1.42-5.71,0.091-6.75,2.101
		c-0.71,1.37-0.809,3.95,0.01,5.38c-3.64,0.11-5.76,1.971-6.229,5.37c-0.08,0.55,0.3,0.99,0.3,1.479
		c-0.01,0.25,0.28,0.601,0.69,0.92c0,0.051,0,0.101,0,0.15c-0.83,0.73-1.851,1.4-2.69,2.1c-1.42,1.181-2.851,2.351-4.31,3.49
		H118.578z"/>
	<path style="fill:#B4B4B4;" d="M134.779,26.489c0.82-0.23,1.609-0.011,2.34,0.279c-0.08,0.01-0.16,0.01-0.24,0.01
		C136.248,26.778,135.498,26.538,134.779,26.489z"/>
	<path d="M125.448,42.219c-0.42,0.479-1.1,1.03-1.85,1.569C124.099,43.228,124.718,42.698,125.448,42.219z"/>
	<path d="M114.849,211.138c-0.281-0.61-0.631-1.12-1.011-1.54c0.7,0.45,1.46,0.86,2.229,1.26c0.921,0.471,1.98,0.891,3.131,1.24
		c0.74,0.73,1.479,1.311,2.17,1.6L114.849,211.138z"/>
	<path style="fill:#B4B4B4;" d="M108.968,200.098c-0.16,0.7-0.29,1.42-0.4,2.17C108.609,201.688,108.748,200.938,108.968,200.098z"
		/>
	<path d="M109.158,205.508c-0.091-0.66-0.101-1.38-0.021-2.12c0.01-0.03,0.01-0.069,0.01-0.101c0-0.01,0-0.02,0-0.029
		c0.601-5.41,2.561-9.5,4.86-13.189c0.271-0.24,0.54-0.431,0.8-0.541c-0.06,0.521-0.14,1.041-0.229,1.57
		c-1.931,3.09-3.511,6.5-4.22,10.84c-0.26,1.6-0.32,3.32,0.25,4.65c0.289,0.439,0.619,0.83,0.97,1.199
		C110.628,207.159,109.728,206.538,109.158,205.508z"/>
	<path d="M108.568,202.348c0-0.029,0-0.05,0-0.08c0.11-0.75,0.24-1.47,0.4-2.17c0.86-3.359,2.99-8.24,5.04-10.029
		c-2.3,3.689-4.26,7.779-4.86,13.189c0,0.01,0,0.02,0,0.029c0,0.031,0,0.07-0.01,0.101c-0.08,0.74-0.07,1.46,0.021,2.12
		C108.739,204.749,108.498,203.749,108.568,202.348z"/>
	<path style="fill:#828282;" d="M116.068,210.858c-0.77-0.399-1.529-0.81-2.229-1.26c-0.69-0.77-1.489-1.29-2.26-1.811
		c-0.351-0.369-0.681-0.76-0.97-1.199c-0.57-1.33-0.51-3.051-0.25-4.65c0.709-4.34,2.289-7.75,4.22-10.84
		c-0.87,5.28-2.63,10.79,0.5,15.68c0.899,1.4,2.5,3.711,4.12,5.32C118.048,211.749,116.989,211.329,116.068,210.858z"/>
	<path d="M63.878,208.339c-1.3-0.43-3.12-1.34-4.79-2.52c-1.76-1.511-3.229-3.261-4.04-5.631h-0.01h0.01
		c-0.18-0.51-0.18-1.059-0.04-1.6c0.011-0.03,0.021-0.07,0.03-0.1c0.609-2.221,1.52-4.121,2.55-5.91c1.22-1.78,2.56-3.461,3.4-4.94
		c-0.28,0.86-0.57,1.76-0.83,2.67c-1.65,2.74-3.29,5.31-4.091,8.84c-0.049,0.24,0.171,0.77,0.33,1.15
		c1.061,2.66,3.11,4.51,5.301,6.06c1.22,0.87,2.57,1.721,4.05,2.45c0.22,0.17,0.43,0.32,0.64,0.441L63.878,208.339z M66.388,209.249
		l0.75,0.26C66.898,209.478,66.648,209.388,66.388,209.249z"/>
	<path d="M54.808,200.438c-0.399-2.689,1.08-5.38,2.78-7.859c-1.03,1.789-1.94,3.689-2.55,5.91c-0.01,0.029-0.02,0.069-0.03,0.1
		c-0.14,0.54-0.14,1.09,0.04,1.6h-0.01h0.01c0.811,2.37,2.28,4.12,4.04,5.631C56.978,204.329,55.099,202.398,54.808,200.438z"/>
	<path style="fill:#828282;" d="M61.698,206.358c-2.19-1.55-4.24-3.399-5.301-6.06c-0.159-0.38-0.379-0.91-0.33-1.15
		c0.801-3.53,2.44-6.1,4.091-8.84c-1.2,4.12-1.931,8.57,0.69,12.16c0.979,1.351,3.01,4.83,4.899,6.34
		C64.269,208.079,62.918,207.228,61.698,206.358z"/>
	<path style="fill:#B8B8B8;" d="M72.958,210.438c1.359-3.529,1.38-6.979,1.68-10.68c2.7,3.04,0.53,7.58,1.58,10.92L72.958,210.438z"
		/>
	<path style="fill:#B8B8B8;" d="M81.109,207.419c0.64-1.96,0.709-4.28,0.68-6.4c1.12,1.82,1.38,4.6,0.71,6.63L81.109,207.419z"/>
	<path style="fill:#B8B8B8;" d="M92.908,199.028c1.17,2.021,1.53,4.211,1.47,6.521l-1.63,0.71
		C93.968,204.198,92.109,201.228,92.908,199.028z"/>
	<path style="fill:#B8B8B8;" d="M136.258,204.808c0.19-2.19,0.011-4.479-0.59-6.68c2.29,2.649,2.84,8.229,1.29,11.38l-2.33,1.63
		C135.828,210.169,136.138,206.358,136.258,204.808z"/>
	<path style="fill:#B8B8B8;" d="M146.088,199.049c1.57,1.22,2,4.3,1.809,6.27l-2.789,1.399
		C146.128,204.329,145.908,201.629,146.088,199.049z"/>
	<path style="fill:#B8B8B8;" d="M96.388,194.398c1.54,1.64,4.051,7.9,1.01,8.82l-0.699,1.17
		C97.748,200.778,97.318,198.228,96.388,194.398z"/>
	<path style="fill:#B8B8B8;" d="M148.918,193.228c3.02,1.45,5.72,5.25,3.17,8.13l-1.17,0.94
		C151.989,199.079,149.859,196.169,148.918,193.228z"/>
</g>
<g>
	<path style="fill:#D1AD78;" d="M162.128,74.867c0,0,7.433-7.476,19.334-10c11-2.333,17.666,0,17.666,0"/>
	<path d="M162.128,74.867c2.26-2.457,4.999-4.445,7.88-6.152c2.909-1.666,6.035-2.983,9.292-3.827
		c3.263-0.827,6.592-1.294,9.945-1.352c3.336-0.057,6.73,0.242,9.883,1.33c-3.234-0.779-6.573-0.848-9.856-0.67
		c-3.283,0.226-6.559,0.771-9.72,1.629c-3.159,0.883-6.223,2.103-9.136,3.633c-1.465,0.749-2.895,1.575-4.271,2.486
		C164.759,72.844,163.408,73.805,162.128,74.867z"/>
</g>
</svg>
