<?xml version="1.0" encoding="iso-8859-1"?>
<!-- Generator: Adobe Illustrator 21.1.0, SVG Export Plug-In . SVG Version: 6.00 Build 0)  -->
<svg version="1.1" id="Layer_1" xmlns="http://www.w3.org/2000/svg" xmlns:xlink="http://www.w3.org/1999/xlink" x="0px" y="0px"
	 width="223.093px" height="609.805px" viewBox="0 0 223.093 609.805" style="enable-background:new 0 0 223.093 609.805;"
	 xml:space="preserve">
<line style="fill:none;stroke:#000100;stroke-width:5.6693;stroke-linecap:round;stroke-linejoin:round;" x1="97.715" y1="465.82" x2="95.16" y2="552.431"/>
<line style="fill:none;stroke:#000100;stroke-width:5.6693;stroke-linecap:round;stroke-linejoin:round;" x1="134.816" y1="465.803" x2="135.559" y2="552.448"/>
<path style="fill:#79C0FF;stroke:#000100;stroke-width:2.8347;stroke-linecap:round;stroke-linejoin:round;" d="M75.033,381.898
	c0,0,0.328,1.821,0.144,4.732c-1.119,17.59-3.226,35.024-4.17,52.686c-0.439,8.261-0.906,30.007-1.777,32.449
	c2,0.418,39.008,1.501,42.648,1.637c4.709,0.172,5.867-0.387,6.412-3.478c1.084-6.167,0.348-11.862,1.252-7.418
	c0.691,3.407,0.965,7.635,2.404,10.852c7.877-0.986,45.047-1.73,48.506-0.882c0.338-2.908,0.168-5.723-0.096-8.569
	c-4.129-44.588-13.471-79.88-12.975-82.932C157.492,380.325,75.033,381.898,75.033,381.898z"/>
<path style="fill:#00BFCA;stroke:#000100;stroke-width:4.252;stroke-linecap:round;stroke-linejoin:round;" d="M134.314,549.871
	c8.701-0.869,19.225,3.636,26.775,6.227c10.549,3.63,19.758,7.951,25.035,15.432c3.289,4.669,6.562,12.727,3.615,17.729
	c-3.973,6.728-11.223,9.201-21.293,10.715c-16.551,2.484-37.512,2.164-47.871-8.575
	C106.307,576.599,134.314,549.871,134.314,549.871z"/>
<path style="fill:#00BFCA;stroke:#000100;stroke-width:4.252;stroke-linecap:round;stroke-linejoin:round;" d="M94.92,548.117
	c11.369,6.674,24.043,28.184,19.07,39.626c-6.695,15.398-35.668,14.228-51.443,11.432c-18.502-3.285-27.754-18.46-19.568-31.02
	C50.172,557.106,94.92,548.117,94.92,548.117z"/>
<g>
	<path style="fill:#000100;stroke:#000100;stroke-width:3.5809;" d="M110.586,229.113c0-2.512-0.137-5.075-0.27-7.551
		c-0.131-2.511-0.271-5.105-0.271-7.68l0,0c0-0.97,1.205-1.754,2.684-1.754c1.482,0,2.682,0.784,2.682,1.754l0,0
		c0,2.516,0.137,5.08,0.27,7.558c0.135,2.508,0.27,5.1,0.27,7.673l0,0c0,0.969-1.199,1.754-2.682,1.754
		S110.586,230.083,110.586,229.113L110.586,229.113z"/>
</g>
<g>
	<path style="fill:#000100;stroke:#000100;" d="M90.871,569.142c-2.123-1.512-5.361-1.893-9.303-2.01l0,0
		c-0.17-0.016-0.422-0.019-0.74-0.019l0,0c-2.67-0.039-6.637,0.523-7.803,1.235l0,0l0.006,0.003c-1.19,0.635-2.869,0.459-3.758-0.38
		l0,0c-0.893-0.847-0.654-2.04,0.535-2.673l0,0c3.244-1.643,7.602-1.947,11.02-1.995l0,0c0.346,0,0.727,0,1.078,0.021l0,0
		c4.004,0.143,8.9,0.453,12.729,3.1l0,0c1.053,0.734,1.072,1.942,0.033,2.695l0,0c-0.529,0.38-1.227,0.57-1.92,0.57l0,0
		C92.068,569.688,91.391,569.507,90.871,569.142L90.871,569.142z"/>
</g>
<g>
	<path style="fill:#000100;stroke:#000100;" d="M88.197,580.806c-1.274-1.008-6.379-1.963-9.451-2.24l0,0
		c-1.215-0.143-2.504-0.225-3.773-0.225l0,0c-2.205,0-4.295,0.268-5.92,0.869l0,0c-1.309,0.483-2.934,0.116-3.613-0.816l0,0
		c-0.676-0.938-0.162-2.084,1.15-2.572l0,0c2.678-0.977,5.605-1.288,8.383-1.288l0,0c1.594,0,3.154,0.096,4.615,0.267l0,0
		c3.396,0.43,8.809,1.001,12.324,3.258l0,0c1.068,0.728,1.107,1.936,0.08,2.693l0,0c-0.527,0.391-1.232,0.59-1.936,0.59l0,0
		C89.389,581.341,88.721,581.165,88.197,580.806L88.197,580.806z"/>
</g>
<g>
	<path style="fill:#000100;stroke:#000100;" d="M134.92,569.411c-1.26-0.551-1.666-1.725-0.893-2.621l0,0
		c1.77-1.961,4.729-2.928,7.906-3.673l0,0c3.205-0.722,6.725-1.085,9.801-1.091l0,0c2.105,0.016,3.965,0.139,5.668,0.668l0,0
		c1.352,0.43,1.955,1.557,1.348,2.516l0,0c-0.609,0.96-2.195,1.389-3.547,0.96l0,0c-0.408-0.151-1.805-0.343-3.469-0.323l0,0
		c-2.457-0.006-5.586,0.316-8.182,0.9l0,0c-2.611,0.552-4.598,1.51-4.949,2.025l0,0l0.006,0.002
		c-0.502,0.589-1.389,0.914-2.293,0.914l0,0C135.838,569.688,135.355,569.598,134.92,569.411L134.92,569.411z"/>
</g>
<g>
	<path style="fill:#000100;stroke:#000100;" d="M138.74,578.901c-1.08-0.727-1.123-1.933-0.1-2.697l0,0
		c3.934-2.826,10.936-4.377,17.143-4.445l0,0c1.916,0.002,3.777,0.17,5.506,0.623l0,0c1.385,0.372,2.09,1.469,1.57,2.451l0,0
		c-0.525,0.986-2.066,1.484-3.455,1.114l0,0c-0.877-0.237-2.156-0.377-3.621-0.377l0,0c-4.73-0.06-11.242,1.629-13.256,3.261l0,0
		c-0.521,0.391-1.232,0.596-1.943,0.596l0,0C139.922,579.427,139.26,579.25,138.74,578.901L138.74,578.901z"/>
</g>
<circle id="skin" style="fill:#15FF17;stroke:#000100;stroke-width:4.252;stroke-miterlimit:10;" cx="113.573" cy="124.684" r="87.445"/>
<ellipse style="fill:#000100;stroke:#000100;stroke-width:3;" cx="135.307" cy="105.989" rx="3.648" ry="3.652"/>
<circle style="fill:#000100;stroke:#000100;stroke-width:3;" cx="89.47" cy="105.989" r="3.652"/>
<g>
	<path style="fill:#000100;" d="M102.001,182.359c-30.755-8.551-38.57-33.079-40.619-39.184l0,0
		c-0.411-1.18-0.073-2.619,0.749-3.205l0,0c0.833-0.589,1.834-0.107,2.247,1.074l0,0c2.131,5.9,8.604,28.087,38.27,36.62l0,0
		c2.914,0.822,5.994,1.243,9.146,1.243l0,0c18.003,0,38.062-13.588,44.851-40.783l0,0c0.31-1.243,1.268-1.892,2.139-1.444l0,0
		c0.871,0.445,1.32,1.81,1.012,3.059l0,0c-7.484,29.651-28.938,43.952-48.001,43.952l0,0
		C108.438,183.69,105.141,183.248,102.001,182.359L102.001,182.359z"/>
</g>
<path style="fill:#000100;" d="M17.135,58.23C6.575,76.257,4.342,100.595,6.678,103.252c2.051,2.334,2.265,11.996-2.332,15.118
	c11.286,6.313,1.948,12.705,5.043,20.512c3.72,9.386,11.12,10.983,16.739,17.051c10.056,4.688-2.299-11.225,2.881-11.225
	c1.44,0,2.987-6.517,2.987-6.517s-2.121-3.914-2.987-8.229c-1.059-5.28,1.784-18.283,8.473-20.323
	c8.115-2.476,16.407-24.715,16.407-24.715s0,13.377-7.488,17.411c-4.4,2.369,14.037,0.851,24.793-9.338
	C82.499,82.289,83.912,66.58,84.348,68.264c0,0,2.069,17.065-7.598,24.194c-0.221,0.134,16.865-6.669,28.334-15.915
	c18.232-14.697,25.541-26.415,28.811-26.549c-0.215,2.849,11.971,7.894,14.115,8.027c11.883,0.737,18.18,4.046,25.846,8.249
	c9.012,4.942,5.91,18.506,5.686,21.182c-1.665,19.9,12.773,29.207,14.462,29.431c12.662,1.679,7.015,10.79,5.528,18.431
	c-0.443,2.279,17.125-6.856,10.822-12.188c-3.865-3.27,9.469-10.427,8.324-12.188c-3.865-5.945-1.763-11.519-5.383-18.479
	c0,0,2.317-21.925-16.173-46.774c-1.143-1.536-20.527-28.614-51.791-35.674c-33.453-7.554-59.512-1.969-79.304,5.797
	c-2.604,1.022-25.392,10.041-27.77,9.446c-3.474-0.868-0.11,4.777-1.86,5.69c-4.714,2.456-7.412,4.558-10.269,4.511
	c-2.769-0.046,5.027,3.747,3.107,4.854c-8.61,4.961-11.373,4.93-11.373,4.93S21.54,50.71,17.135,58.23z"/>
<line style="fill:#8D3088;stroke:#000100;stroke-width:3;stroke-linecap:round;stroke-linejoin:round;" x1="119.543" y1="461.506" x2="119.369" y2="426.562"/>
<path style="fill:none;stroke:#000100;stroke-width:4.252;stroke-linecap:round;stroke-linejoin:round;" d="M177.001,293.333
	c0,0,5.333,8.667,12.999,19.667c6.388,9.166-8.999,7-8.999,7"/>
<path style="fill:none;stroke:#000100;stroke-width:2;stroke-miterlimit:10;" d="M72.955,419.044
	c9.207-0.737,24.217-1.42,28.084-5.802c3.867-4.384,5.018-32.189,0.938-32.048c-4.082,0.14-25.943,0.704-25.943,0.704
	L72.955,419.044z"/>
<path style="fill:none;stroke:#000100;stroke-width:2;stroke-miterlimit:10;" d="M163.691,417.697
	c-8.08-0.012-21.205,0.487-24.998-3.569c-3.793-4.059-7.514-31.634-3.949-31.819c3.562-0.177,22.639-1.334,22.639-1.334
	L163.691,417.697z"/>
<path style="fill:#FF8621;stroke:#000100;stroke-width:2.8347;stroke-linecap:round;stroke-linejoin:round;" d="M108.43,224.089
	c-4.428,2.13-33.539,7.477-41.354,13.142c-8.563,6.212-26.865,50.55-28.887,53.035c6.643,2.277,33.672,8.881,39.775,11.857
	c4.119-9.847,4.119-16.227,4.119-16.227c0.441,1.458-0.812,12.58-1.391,16.556c-4.709,32.382-15.115,78.628-15.514,78.606
	c17.854,0.848,35.693,0.168,53.652,0.685c22.316,0.643,37.043-2.539,45.584-0.674c0.127-0.095,1.25-0.188,1.369-0.279
	c-2.381-4.46-8.658-49.553-15.318-79.725c-2.246-10.178-0.648-4.14,2.787,0.926c10.287-5.899,20.521-7.874,31.533-13.102
	c-2.441-1.971-17.594-49.508-37.959-55.427c-5.732-1.667-18.746-6.723-28.894-8.798C115.523,235.194,107.68,228.867,108.43,224.089z
	"/>
<line style="fill:#2FAAE1;stroke:#000100;stroke-width:2.8347;stroke-linecap:round;stroke-linejoin:round;" x1="149.432" y1="295.618" x2="146.428" y2="285.787"/>
<g>
	<g>
		
			<ellipse transform="matrix(0.4465 -0.8948 0.8948 0.4465 -226.3336 317.5626)" style="fill:#F5F5F5;" cx="143.533" cy="341.737" rx="50.825" ry="51.021"/>
		<path d="M97.792,318.908c2.962-5.986,7.093-11.393,12.086-15.864c4.99-4.479,10.894-7.965,17.261-10.215
			c6.364-2.274,13.218-3.191,19.995-2.784c6.788,0.39,13.465,2.284,19.554,5.292c6.08,3.03,11.617,7.22,16.053,12.385
			c4.448,5.149,7.859,11.176,9.996,17.621c2.152,6.44,2.986,13.308,2.463,20.06c-0.496,6.758-2.442,13.374-5.523,19.361
			c-3.066,6.007-7.356,11.341-12.439,15.721c-5.101,4.368-11.059,7.695-17.408,9.862c-3.18,1.075-6.467,1.827-9.797,2.276
			c-3.328,0.465-6.706,0.604-10.07,0.41c-6.73-0.385-13.4-2.116-19.492-5.078c-6.062-3.007-11.601-7.158-16.021-12.311
			c-4.449-5.122-7.792-11.179-9.822-17.613c-2.041-6.434-2.806-13.246-2.229-19.924C92.967,331.43,94.797,324.88,97.792,318.908z
			 M97.97,318.999c-2.963,5.956-4.73,12.513-5.051,19.143c-0.333,6.626,0.667,13.289,2.896,19.487
			c4.449,12.402,13.646,22.94,25.393,28.843c11.637,6.037,25.792,7.419,38.403,3.217c6.312-2.016,12.183-5.38,17.165-9.737
			c5.015-4.332,9.036-9.751,11.919-15.678c2.877-5.941,4.526-12.432,4.921-18.98c0.386-6.552-0.545-13.16-2.662-19.351
			c-4.215-12.419-13.485-22.925-25.188-28.761c-11.685-5.895-25.631-7.025-38.214-3.103c-6.293,1.933-12.219,5.138-17.311,9.385
			C105.137,307.705,100.957,313.052,97.97,318.999z"/>
	</g>
	<path d="M94.11,351.58c0,0-2.137-12.292,1.229-16.7c-1.578-1.92-1.578-1.92-1.1-4.515C91.235,338.016,92.061,347.721,94.11,351.58z
		"/>
	<g>
		<g>
			<path d="M106.817,305.942c0.046,0.022-4.65,5.942-8.454,13.342c-1.913,3.685-3.353,7.371-4.104,10.179
				c-0.779,2.806-0.869,4.697-0.856,4.691l0,0c-0.019,0.009-0.07-2.092,0.614-5.059c0.649-2.964,2.02-6.743,3.776-10.117
				C101.24,312.15,106.841,305.934,106.817,305.942L106.817,305.942z"/>
		</g>
	</g>
	<path style="fill:#FFFFFF;" d="M98.375,358.33c21.495,23.165,53.755,20.147,60.496-19.643c6.74-39.79-35.033-42.151-51.19-29.753
		C96.133,317.796,89.761,349.046,98.375,358.33z"/>
	<path d="M151.706,364.748c0,0-2.006-16.217-3.374-20.311c0,0,8.236-3.629,18.15-10.878c4.15,4.302,8.93,7.341,13.186,13.531
		c-0.727,10.393-5.656,16.065-9.014,20.162C165.854,368.856,158.005,366.841,151.706,364.748z"/>
	<path d="M112.59,346.405c0,0,2.464-4.411,16.368-11.244c-2.739-12.122-1.587-15.22-1.434-21.045
		c-6.981-1.517-14.593-0.723-17.688,2.062c-3.093,2.784-8.123,14.44-8.227,17.534C101.507,336.809,109.23,344.728,112.59,346.405z"
		/>
	<path d="M165.262,313.142c0,0-6.146-7.133-19.637-9.014c0.309-7.19,0.567-9.814,0.567-9.814c5.616-4.15,25.878,0.716,29.405,13.622
		C171.111,309.436,167.332,310.175,165.262,313.142z"/>
	<path d="M137.133,388.167c-7.164,2.391-22.729-0.457-29.143-14.675c3.148-3.152,7.658-6.41,7.658-6.41s12.395,9.334,18.955,8.803
		C134.922,381.029,137.133,388.167,137.133,388.167z"/>
	<path d="M182.837,374.643c-2.018,4.96-20.717,17.599-25.548,15.187c7.87-2.63,13.85-7.516,15.579-10.981
		C176.753,378.952,179.324,376.826,182.837,374.643z"/>
	<path d="M193.933,348.895c2.362-0.79,2.607-20.734-4.062-27.081c4.628,12.279,2.638,16.793,0.749,19
		C194.871,342.935,194.352,345.954,193.933,348.895z"/>
	<path d="M106.891,305.784c0,0,1.783-1.469,4.016-1.339c1.468-2.154,5.033-6.144,7.314-6.908
		C113.263,299.195,106.891,305.784,106.891,305.784z"/>
	<g>
		<g>
			<path d="M138.401,388.769c0.008-0.039,4.052,1.221,8.673,1.673c4.617,0.55,8.811-0.084,8.791-0.163l0,0
				c0.062,0.108-4.558,1.364-8.864,0.804C142.694,390.704,138.39,388.74,138.401,388.769L138.401,388.769z"/>
		</g>
	</g>
	<g>
		<g>
			<path d="M95.907,358.981c-0.009-0.009,1.343,4.107,4.278,7.783c2.833,3.748,6.344,6.265,6.35,6.233l0,0
				c-0.008,0.078-4.237-2.296-6.862-5.842C96.865,363.719,95.849,358.953,95.907,358.981L95.907,358.981z"/>
		</g>
	</g>
	<path style="fill:none;stroke:#000000;stroke-miterlimit:10;" d="M159.923,389.392c0,0-7.937,3.023-17.888,0.572
		c-9.953-2.453-11.631-4.126-11.631-4.126l-15.66-10.052c0,0-7.939-1.448-12.415-5.917c-4.477-4.47-2.656-2.714-2.656-2.714"/>
	<path style="fill:none;stroke:#000000;stroke-miterlimit:10;" d="M132.855,377.002c0,0,18.441-9.517,22.239-14.328
		c3.798-4.81-3.255-16.433-3.255-16.433s-19.908-9.376-25.387-11.831c-5.481-2.456-13.081,0.457-13.75,2.917
		c-0.67,2.459-0.107,6.373-0.107,6.373s-0.209,20.012,4.716,26.94C122.236,377.568,132.855,377.002,132.855,377.002z"/>
	<path style="fill:none;stroke:#000000;stroke-miterlimit:10;" d="M178.003,347.005c0,0,11.736-5.041,14.082-6.941"/>
	<path style="fill:none;stroke:#000000;stroke-miterlimit:10;" d="M166.256,335.833c0,0,3.227-19.344-4.607-28.282"/>
	<path style="fill:none;stroke:#000000;stroke-miterlimit:10;" d="M124.761,315.963c0,0,18.663-12.2,23.358-12.651"/>
	<path style="fill:none;stroke:#000000;stroke-miterlimit:10;" d="M110.45,316.086c0,0-1.681-7.267,0.438-13.195"/>
	<path style="fill:none;stroke:#000000;stroke-miterlimit:10;" d="M93.806,334.881c0,0,8.384-1.684,9.728-1.014"/>
	<path style="fill:none;stroke:#000000;stroke-miterlimit:10;" d="M172.439,381.668c0,0,0.55-13.417-4.149-18.557"/>
	<path style="fill:none;stroke:#000000;stroke-miterlimit:10;" d="M190.954,323.293c0,0-8.954-13.411-19.132-17.093"/>
	<path style="fill:none;stroke:#000000;stroke-miterlimit:10;" d="M147.553,294.367c0,0-6.15-2.789-9.395-3.012"/>
</g>
<path style="fill:#1D1E1C;" d="M194.444,319.71c0.094-0.297,0.192-0.855,0.172-1.376c0.285-4.081-2.199-5.098-4.751-6.776
	c-3.269-2.148-8.899-1.303-9.181-1.272l-12.3,4.603c-0.694,0.068-1.007,0.725-0.697,1.469c0.307,0.744,1.12,1.293,1.812,1.224
	l11.866-4.56l0.85,0.466l-15.06,15.523c-0.474,0.403-0.381,1.236,0.211,1.864c0.354,0.376,0.801,0.59,1.211,0.621
	c0.273,0.021,0.529-0.046,0.724-0.208l15.792-15.883c0.107-0.092,0.179-0.217,0.229-0.351c0.391,0.175,0.753,0.348,1.067,0.512
	l-16.904,19.871c-0.4,0.475-0.202,1.326,0.442,1.902c0.334,0.3,0.723,0.467,1.073,0.491c0.327,0.024,0.627-0.073,0.822-0.303
	l16.807-19.762c0.494,1.308,0.376,0.183,0.148,0.668l-12.482,17.451c-0.328,0.534-0.189,1.381,0.496,1.901
	c0.305,0.232,0.637,0.359,0.94,0.38c0.38,0.029,0.712-0.107,0.896-0.401l11.652-16.772l0.635,0.369l-6.828,13.613
	c-0.181,0.572-0.089,0.852,0.587,1.234c0.222,0.124,0.444,0.191,0.649,0.207c0.423,0.029,0.781-0.166,0.904-0.551l8.1-15.764
	c0.012-0.055,0.03-0.099,0.045-0.153L194.444,319.71z"/>
<path style="fill:#1D1E1C;" d="M101.878,370.343c-0.242,0.075-0.712,0.141-1.172,0.1c-3.514,0.092-4.818-2.216-6.712-4.613
	c-2.425-3.072-2.634-8.174-2.654-8.43l1.948-11.031c-0.058-0.631,0.463-0.89,1.164-0.577c0.702,0.312,1.317,1.077,1.373,1.705
	l-1.984,10.636l0.551,0.795l11.014-13.099c0.271-0.417,1.016-0.295,1.664,0.27c0.387,0.338,0.65,0.755,0.745,1.13
	c0.062,0.25,0.048,0.481-0.062,0.65l-11.204,13.753c-0.062,0.094-0.159,0.154-0.267,0.195c0.22,0.364,0.429,0.7,0.626,0.995
	l14.498-14.602c0.348-0.346,1.124-0.129,1.736,0.482c0.318,0.317,0.526,0.677,0.608,0.999c0.077,0.301,0.041,0.569-0.126,0.737
	L99.206,364.96c1.222,0.504,0.223,0.351,0.607,0.162l13.13-10.667c0.411-0.279,1.173-0.117,1.743,0.531
	c0.254,0.286,0.42,0.595,0.489,0.873c0.087,0.347,0.028,0.646-0.2,0.8l-12.677,9.938l0.43,0.596l10.731-5.668
	c0.469-0.142,0.729-0.046,1.178,0.587c0.145,0.206,0.24,0.412,0.288,0.6c0.098,0.386-0.013,0.706-0.329,0.801l-12.396,6.739
	c-0.045,0.009-0.081,0.024-0.125,0.035L101.878,370.343z"/>
<path style="fill:none;stroke:#000100;stroke-width:4.252;stroke-linecap:round;stroke-linejoin:round;" d="M57.508,297.239
	c0,0-3.477,38.468-5.174,52.095c-1.381,11.088,44,14.667,44,14.667"/>
</svg>
