<?xml version="1.0" encoding="iso-8859-1"?>
<!-- Generator: Adobe Illustrator 21.1.0, SVG Export Plug-In . SVG Version: 6.00 Build 0)  -->
<svg version="1.1" id="cupboard" xmlns="http://www.w3.org/2000/svg" xmlns:xlink="http://www.w3.org/1999/xlink" x="0px" y="0px"
	 width="150.5px" height="32px" viewBox="0 0 150.5 32" style="enable-background:new 0 0 150.5 32;" xml:space="preserve">
<polygon style="fill:#C3996B;stroke:#000000;stroke-width:0.75;stroke-linecap:round;stroke-linejoin:round;stroke-miterlimit:10;" points="
	147.667,4.333 54,9.333 2.832,4.333 7.832,2.334 51.333,2.334 142.667,2.334 "/>
<polygon style="fill:#754C28;stroke:#000000;stroke-width:0.75;stroke-linecap:round;stroke-linejoin:round;stroke-miterlimit:10;" points="
	13.999,29.667 16.666,26 16.666,5.667 13.333,8 10.667,28 "/>
<g>
	<rect x="5.666" y="10.667" style="fill:#A87C4F;" width="8.333" height="19"/>
	<path d="M13.999,29.704c-2.777,0.155-5.556,0.25-8.333,0.269c-0.167,0.001-0.303-0.132-0.306-0.299v-0.007
		c-0.026-1.583-0.039-3.167-0.011-4.75c0.016-1.583,0.088-3.167,0.132-4.75c0.055-1.583,0.067-3.167,0.065-4.75
		c-0.006-1.584-0.039-3.167-0.086-4.75c-0.004-0.109,0.083-0.201,0.192-0.205h0.013c2.777-0.094,5.556-0.138,8.333-0.165
		c0.201-0.002,0.366,0.16,0.369,0.361v0.009c0.023,1.583,0.036,3.167,0.021,4.75c-0.012,1.583,0,3.166-0.043,4.75
		c-0.056,3.167-0.142,6.333-0.31,9.5C14.035,29.687,14.019,29.703,13.999,29.704z M13.96,29.628
		c-0.166-3.154-0.252-6.308-0.308-9.462c-0.043-1.583-0.031-3.167-0.043-4.75c-0.016-1.583-0.003-3.167,0.021-4.75l0.369,0.37
		c-2.777-0.026-5.556-0.071-8.333-0.165l0.205-0.205c-0.047,1.583-0.08,3.166-0.086,4.75C5.784,17,5.796,18.583,5.851,20.167
		c0.044,1.583,0.116,3.167,0.132,4.75c0.028,1.583,0.016,3.167-0.011,4.75l-0.306-0.306C8.431,29.38,11.196,29.474,13.96,29.628z"/>
</g>
<polygon style="fill:#754C28;stroke:#000000;stroke-width:0.75;stroke-linecap:round;stroke-linejoin:round;stroke-miterlimit:10;" points="
	136.167,29.667 133.5,26 133.5,5.667 136.833,8 139.499,28 "/>
<g>
	<rect x="136.167" y="10.667" style="fill:#A87C4F;" width="8.333" height="19"/>
	<path d="M136.206,29.628c2.765-0.154,5.529-0.249,8.294-0.268l-0.306,0.306c-0.026-1.583-0.039-3.167-0.011-4.75
		c0.016-1.583,0.088-3.167,0.132-4.75c0.055-1.583,0.067-3.167,0.065-4.75c-0.006-1.584-0.039-3.167-0.086-4.75l0.205,0.205
		c-2.777,0.094-5.556,0.138-8.333,0.165l0.369-0.37c0.023,1.583,0.036,3.167,0.021,4.75c-0.012,1.583,0,3.166-0.043,4.75
		C136.458,23.32,136.372,26.474,136.206,29.628z M136.13,29.667c-0.168-3.167-0.254-6.333-0.31-9.5
		c-0.043-1.583-0.031-3.167-0.043-4.75c-0.016-1.583-0.003-3.167,0.02-4.75v-0.009c0.003-0.201,0.168-0.362,0.369-0.361
		c2.777,0.026,5.556,0.071,8.333,0.165h0.013c0.11,0.004,0.196,0.096,0.192,0.205c-0.047,1.583-0.08,3.166-0.086,4.75
		c-0.002,1.583,0.011,3.166,0.065,4.75c0.044,1.583,0.116,3.167,0.132,4.75c0.028,1.583,0.016,3.167-0.011,4.75v0.007
		c-0.003,0.167-0.14,0.3-0.306,0.299c-2.777-0.019-5.556-0.114-8.333-0.269C136.147,29.703,136.131,29.687,136.13,29.667z"/>
</g>
<g>
	<rect x="2.832" y="4.334" style="fill:#A87C4F;" width="144.835" height="8.333"/>
	<path d="M147.667,12.704c-12.069,0.133-24.139,0.181-36.209,0.212c-12.069,0.027-24.139,0.129-36.208,0.049l-36.209-0.133
		c-12.069-0.08-24.14-0.024-36.209,0.014c-0.099,0-0.18-0.08-0.18-0.179v-0.001L2.627,4.334C2.626,4.221,2.719,4.129,2.832,4.129
		l36.209-0.136L75.249,3.97L93.354,3.96l18.105,0.074l36.209,0.192c0.059-0.001,0.107,0.047,0.107,0.105v0.002l-0.07,8.333
		C147.704,12.687,147.688,12.704,147.667,12.704z M147.629,12.629l-0.069-8.295l0.107,0.107l-36.209,0.192L93.354,4.708
		L75.249,4.697L39.041,4.674L2.832,4.539l0.205-0.205l-0.025,8.333l-0.18-0.18c12.069,0.038,24.14,0.095,36.209,0.014l36.209-0.133
		c12.069-0.081,24.139,0.022,36.208,0.049C123.516,12.448,135.573,12.496,147.629,12.629z"/>
</g>
</svg>
