<?xml version="1.0" encoding="iso-8859-1"?>
<!-- Generator: Adobe Illustrator 21.1.0, SVG Export Plug-In . SVG Version: 6.00 Build 0)  -->
<svg version="1.1" id="cupboard" xmlns="http://www.w3.org/2000/svg" xmlns:xlink="http://www.w3.org/1999/xlink" x="0px" y="0px"
	 width="126.716px" height="62.248px" viewBox="0 0 126.716 62.248" style="enable-background:new 0 0 126.716 62.248;"
	 xml:space="preserve">
<g>
	<path style="fill:#2C2623;" d="M34.696,44.498c-0.238,8.586-7.388,15.347-15.97,15.112c-8.58-0.237-15.349-7.383-15.116-15.964
		C3.848,35.064,11,28.299,19.58,28.533C28.158,28.764,34.924,35.916,34.696,44.498z"/>
	<path d="M34.733,44.499c-0.074,4.08-1.779,8.125-4.723,11.041c-2.921,2.939-7.118,4.598-11.293,4.457
		C14.536,59.928,10.436,58.058,7.608,55c-2.869-3.032-4.388-7.237-4.203-11.362c0.158-4.127,2.006-8.112,4.972-10.948
		c2.956-2.839,7.042-4.552,11.211-4.467c4.158,0.048,8.269,1.91,11.025,5.001C33.393,36.29,34.874,40.422,34.733,44.499z
		 M34.659,44.496c0.033-2.028-0.311-4.068-1.075-5.943c-0.765-1.873-1.899-3.583-3.313-5.006c-2.819-2.855-6.706-4.577-10.7-4.704
		c-3.981-0.182-8.076,1.244-11.016,4.035c-2.981,2.741-4.715,6.751-4.74,10.776c-0.08,4.024,1.541,7.999,4.305,10.86
		c2.751,2.886,6.649,4.596,10.618,4.709c3.975,0.125,7.959-1.351,10.934-4.043c1.491-1.339,2.719-2.983,3.585-4.811
		C34.122,48.541,34.58,46.525,34.659,44.496z"/>
</g>
<path style="fill:#525252;" d="M18.901,53.175c-5.015-0.139-8.988-4.336-8.853-9.352c0.139-5.02,4.337-8.997,9.356-8.855
	c5.015,0.137,8.99,4.336,8.849,9.353C28.118,49.338,23.921,53.315,18.901,53.175L18.901,53.175z"/>
<path style="fill:#B9BFC1;" d="M18.938,51.844c-4.279-0.117-7.673-3.701-7.555-7.985c0.117-4.282,3.701-7.674,7.982-7.555
	c4.281,0.113,7.675,3.7,7.557,7.984C26.806,48.567,23.224,51.959,18.938,51.844L18.938,51.844z"/>
<linearGradient id="SVGID_1_" gradientUnits="userSpaceOnUse" x1="-10.3446" y1="50.2265" x2="-10.3446" y2="36.899" gradientTransform="matrix(0.9996 0.0274 -0.0274 0.9996 30.6869 0.8121)">
	<stop  offset="0.0055" style="stop-color:#DFE1E5"/>
	<stop  offset="0.0932" style="stop-color:#DADCE0"/>
	<stop  offset="0.198" style="stop-color:#CBCED2"/>
	<stop  offset="0.3116" style="stop-color:#B3B7BA"/>
	<stop  offset="0.4304" style="stop-color:#929699"/>
	<stop  offset="0.5165" style="stop-color:#757A7D"/>
	<stop  offset="0.6062" style="stop-color:#696C6F"/>
	<stop  offset="0.7912" style="stop-color:#545558"/>
	<stop  offset="0.9066" style="stop-color:#4C4C50"/>
</linearGradient>
<path style="fill:url(#SVGID_1_);" d="M18.969,50.735c-3.674-0.1-6.578-3.174-6.475-6.849c0.098-3.668,3.168-6.573,6.838-6.474
	c3.674,0.1,6.582,3.17,6.478,6.843C25.714,47.928,22.643,50.835,18.969,50.735L18.969,50.735z"/>
<radialGradient id="SVGID_2_" cx="-10.346" cy="43.5608" r="2.7824" gradientTransform="matrix(0.9996 0.0274 -0.0274 0.9996 30.6869 0.8121)" gradientUnits="userSpaceOnUse">
	<stop  offset="0" style="stop-color:#444346"/>
	<stop  offset="0.0791" style="stop-color:#414042"/>
	<stop  offset="0.6464" style="stop-color:#2F2C2B"/>
	<stop  offset="1" style="stop-color:#282522"/>
</radialGradient>
<path style="fill:url(#SVGID_2_);" d="M19.075,46.849c-1.524-0.04-2.741-1.319-2.701-2.852c0.043-1.526,1.328-2.743,2.855-2.702
	c1.53,0.045,2.741,1.323,2.7,2.854C21.889,45.681,20.606,46.894,19.075,46.849L19.075,46.849z"/>
<path style="fill:#686868;" d="M9.542,33.792c3.277-3.105,7.514-4.593,11.706-4.496c-4.304-0.549-8.812,0.766-12.204,3.973
	c-3.39,3.207-4.943,7.64-4.637,11.967C4.545,41.041,6.263,36.9,9.542,33.792z"/>
<g>
	<polygon style="fill:#D41E2D;" points="5.111,7.539 37.629,39.881 78.493,32.752 87.275,8.059 	"/>
	<path d="M5.205,7.578l8.167,7.915l8.174,8.04c5.44,5.371,10.924,10.695,16.308,16.121l-0.279-0.088l20.455-3.43l10.228-1.721
		l10.209-1.817l-0.119,0.101l8.636-24.745l0.291,0.416C73.579,8.363,59.884,8.296,46.19,8.176L25.65,7.913
		C18.835,7.834,12.02,7.725,5.205,7.578z M5.111,7.501c6.848-0.061,13.695-0.084,20.543-0.076l20.541-0.003
		c13.694,0.054,27.389,0.16,41.082,0.326c0.171,0.001,0.309,0.139,0.309,0.311c0,0.035-0.008,0.074-0.018,0.106l-8.929,24.64
		c-0.02,0.055-0.067,0.092-0.12,0.102l-10.222,1.748l-10.205,1.844l-20.409,3.699c-0.104,0.019-0.209-0.02-0.28-0.088
		c-5.455-5.354-10.809-10.811-16.209-16.221l-8.085-8.13L5.085,7.565c-0.015-0.015-0.015-0.039,0-0.053
		C5.092,7.505,5.102,7.501,5.111,7.501z"/>
</g>
<circle style="fill:#F2B300;" cx="19.153" cy="44.071" r="8.434"/>
<path d="M16.718,37.115c0,0,4-0.695,4.174,0c0,0-2.608,2.782-2.435,3.826c0.174,1.043-0.088,0.783-0.088,0.783l-0.781-0.088
	C17.589,41.636,15.675,38.507,16.718,37.115z"/>
<path d="M17.415,51.181c0,0,3.999,0.695,4.173,0c0,0-2.608-2.782-2.435-3.826c0.174-1.043-0.087-0.782-0.087-0.782l-0.782,0.088
	C18.284,46.661,16.371,49.79,17.415,51.181z"/>
<path d="M11.492,46.707c0,0,1.979,3.544,2.629,3.241c0,0,0.518-3.778,1.438-4.3c0.92-0.522,0.553-0.561,0.553-0.561l-0.561-0.553
	C15.55,44.535,11.915,45.02,11.492,46.707z"/>
<path d="M13.238,39.19c0,0-2.42,3.26-1.877,3.728c0,0,3.658-1.078,4.512-0.455c0.853,0.625,0.738,0.275,0.738,0.275l0.274-0.739
	C16.885,41.999,14.95,38.883,13.238,39.19z"/>
<path d="M25.716,46.011c0,0-1.979,3.545-2.63,3.241c0,0-0.517-3.778-1.437-4.301c-0.92-0.521-0.553-0.561-0.553-0.561l0.561-0.552
	C21.658,43.84,25.294,44.325,25.716,46.011z"/>
<path d="M23.971,38.744c0,0,2.42,3.26,1.877,3.729c0,0-3.658-1.078-4.512-0.455c-0.854,0.625-0.738,0.275-0.738,0.275l-0.274-0.738
	C20.324,41.554,22.26,38.438,23.971,38.744z"/>
<polygon style="fill:#A91E2D;" points="85.667,11.417 87.042,7.917 5.417,7.667 9.667,11.792 "/>
<g>
	<path style="fill:#D41E2D;" d="M88.578,6.756c0,0.72-0.583,1.304-1.303,1.304H4.329c-0.721,0-1.305-0.584-1.305-1.304l0,0
		c0-0.721,0.584-1.305,1.305-1.305h82.946C87.995,5.451,88.578,6.035,88.578,6.756L88.578,6.756z"/>
	<path d="M88.615,6.757c0.004,0.463-0.253,0.93-0.663,1.163c-0.417,0.261-0.911,0.17-1.351,0.19l-2.72,0.012l-5.44,0.037
		l-10.88,0.137C60.307,8.394,53.054,8.406,45.8,8.37l-21.76-0.168c-3.627-0.043-7.254-0.017-10.881,0.005L7.72,8.236L5,8.25
		L4.31,8.253C4.083,8.252,3.784,8.185,3.572,8.051c-0.458-0.26-0.753-0.761-0.753-1.307C2.813,6.239,3.103,5.702,3.564,5.443
		C3.79,5.305,4.055,5.237,4.319,5.231l0.682-0.006l2.72-0.021l5.44-0.042l10.881-0.064l21.76-0.034
		c7.254-0.018,14.507,0.07,21.761,0.153l10.88,0.129l5.44,0.039l2.72,0.014c0.44,0.02,0.936-0.071,1.351,0.191
		C88.363,5.825,88.619,6.29,88.615,6.757z M88.541,6.755c-0.002-0.441-0.247-0.872-0.633-1.087
		c-0.383-0.241-0.856-0.152-1.306-0.165l-2.72,0.014l-5.44,0.039l-10.88,0.129c-7.254,0.083-14.507,0.171-21.761,0.153l-21.76-0.034
		L13.161,5.739L7.72,5.697l-2.72-0.02L4.322,5.672C4.133,5.675,3.944,5.718,3.781,5.815c-0.334,0.188-0.548,0.547-0.552,0.95
		C3.227,7.127,3.435,7.522,3.772,7.71C4.092,7.925,4.537,7.853,5,7.868L7.72,7.883l5.439,0.029
		c3.627,0.023,7.254,0.048,10.881,0.005L45.8,7.749c7.254-0.037,14.507-0.024,21.761,0.075l10.88,0.137l5.44,0.037l2.72,0.012
		c0.451-0.014,0.925,0.075,1.307-0.165C88.294,7.628,88.539,7.199,88.541,6.755z"/>
</g>
<g>
	<path style="fill:#754C28;" d="M121.733,2.321c-3.225,0.435-19.243,5.333-19.243,5.333c-5.364,1.459-7.188,4.174-7.188,4.174
		L81.39,29.448c-2.144,2.84-3.478,2.782-3.478,2.782l-55.958,9.593c-0.653-0.806-1.64-1.333-2.759-1.333
		c-1.969,0-3.564,1.597-3.564,3.565c0,1.968,1.596,3.564,3.564,3.564c1.742,0,3.188-1.252,3.498-2.903l27.296-4.678l8.39,16.941
		c0,0,0.869,2.087,3.825,2.087h0.522c2.955,0,3.825-2.087,3.825-2.087l7.745-21.109l5.006-0.857c0,0,1.334,0.057,3.479-2.783
		l13.911-17.621c0,0,1.783-2.698,7.188-4.174c0,0,14.663-3.879,19.242-5.332C123.865,4.868,124.748,1.916,121.733,2.321z
		 M70.501,36.5l-5.485,16.487c0,0-0.569,1.366-2.505,1.366H62.17c-1.937,0-2.506-1.366-2.506-1.366l-5.806-11.728l-0.905-1.729
		L70.501,36.5z"/>
	<g>
		<path d="M121.738,2.358c-2.326,0.417-4.602,1.102-6.884,1.726l-6.82,1.988l-6.782,2.1c-2.188,0.784-4.369,1.959-5.796,3.759
			l-0.009,0.012L87.14,22.588l-4.153,5.323c-0.712,0.889-1.347,1.772-2.104,2.663c-0.383,0.432-0.794,0.846-1.263,1.209
			c-0.234,0.181-0.483,0.349-0.756,0.492c-0.29,0.138-0.529,0.269-0.965,0.291l0.07-0.004l-55.994,9.379
			c-0.044,0.007-0.087-0.01-0.113-0.042c-0.491-0.604-1.185-1.04-1.943-1.201c-0.759-0.162-1.574-0.06-2.258,0.295
			c-1.407,0.68-2.188,2.397-1.77,3.897c0.353,1.513,1.863,2.643,3.404,2.558c1.556-0.018,2.962-1.246,3.218-2.765
			c0.014-0.077,0.078-0.135,0.15-0.148l27.275-4.8c0.137-0.024,0.27,0.049,0.328,0.168l5.7,11.434l2.831,5.695
			c0.497,0.821,1.382,1.387,2.346,1.581c0.489,0.109,0.97,0.111,1.516,0.106c0.523,0.002,0.996-0.054,1.476-0.197
			c0.924-0.267,1.789-0.948,2.131-1.782l1.098-2.999l2.196-5.999l4.393-11.997c0.047-0.128,0.158-0.214,0.283-0.236l5.006-0.861
			l0.017-0.002l0.062-0.003c0.113-0.006,0.408-0.1,0.613-0.213c0.224-0.116,0.442-0.26,0.652-0.421
			c0.421-0.322,0.808-0.705,1.171-1.111c0.702-0.82,1.392-1.752,2.101-2.613l4.22-5.27l8.44-10.542l-0.011,0.015
			c0.896-1.156,2.057-1.951,3.274-2.63c1.226-0.667,2.533-1.162,3.869-1.532l7.987-2.1l7.967-2.161l1.984-0.564l0.989-0.293
			c0.332-0.114,0.687-0.14,0.854-0.445c0.36-0.539,0.514-1.32,0.151-1.887C123.184,2.308,122.389,2.273,121.738,2.358z
			 M121.728,2.284c0.656-0.09,1.484-0.079,1.936,0.534c0.398,0.622,0.242,1.429-0.134,2.011c-0.094,0.14-0.243,0.295-0.421,0.345
			l-0.493,0.156l-0.986,0.304l-1.981,0.586l-7.945,2.248l-7.96,2.185c-1.311,0.379-2.589,0.878-3.773,1.544
			c-1.167,0.664-2.309,1.497-3.091,2.535l-0.011,0.015l-8.295,10.657l-4.147,5.328c-0.707,0.889-1.347,1.776-2.113,2.661
			c-0.387,0.431-0.802,0.844-1.276,1.207c-0.237,0.181-0.489,0.349-0.765,0.491c-0.296,0.137-0.532,0.269-0.984,0.293l0.078-0.005
			l-5.006,0.854l0.283-0.236l-4.409,11.991l-2.204,5.996l-1.103,2.998c-0.482,1.146-1.492,1.873-2.59,2.21
			c-0.541,0.166-1.138,0.229-1.679,0.225c-0.517,0.005-1.109,0.002-1.661-0.124c-1.117-0.228-2.184-0.892-2.794-1.906l-2.851-5.747
			l-5.64-11.464l0.328,0.167l-27.316,4.555l0.15-0.147c-0.294,1.684-1.867,3.023-3.566,3.032c-1.705,0.081-3.337-1.169-3.713-2.82
			c-0.443-1.637,0.42-3.492,1.943-4.214c0.748-0.378,1.624-0.481,2.434-0.302c0.816,0.18,1.555,0.653,2.074,1.3l-0.113-0.042
			l55.922-9.806l0.071-0.005c0.346-0.035,0.895-0.322,1.293-0.635c0.426-0.321,0.816-0.704,1.185-1.11
			c0.71-0.814,1.404-1.75,2.109-2.61l4.215-5.275l8.429-10.55l-0.009,0.012c1.565-1.918,3.778-3.023,6.018-3.8l6.823-2.002
			l6.834-1.95C117.112,3.362,119.387,2.69,121.728,2.284z"/>
		<path d="M70.536,36.511c-0.761,2.799-1.591,5.575-2.484,8.329c-0.436,1.381-0.881,2.759-1.362,4.125
			c-0.458,1.374-0.985,2.724-1.478,4.087l-0.004,0.012l-0.001,0.003c-0.477,0.908-1.435,1.342-2.35,1.411
			c-0.471,0.017-0.892,0.025-1.368-0.062c-0.455-0.09-0.891-0.283-1.261-0.566c-0.373-0.261-0.654-0.719-0.824-1.101l-0.604-1.193
			l-1.246-2.367c-0.842-1.573-1.669-3.153-2.485-4.738c-0.816-1.594-1.601-3.175-2.461-4.74c-0.104-0.187-0.035-0.421,0.151-0.524
			c0.039-0.021,0.079-0.035,0.12-0.042l0.009-0.001l4.389-0.749c1.462-0.255,2.929-0.48,4.396-0.702
			c2.932-0.461,5.874-0.865,8.822-1.231c0.021-0.002,0.041,0.013,0.044,0.034C70.538,36.502,70.538,36.507,70.536,36.511z
			 M70.442,36.55c-2.879,0.64-5.765,1.242-8.66,1.787c-1.457,0.283-2.914,0.563-4.377,0.813l-4.386,0.767l0.28-0.568
			c0.824,1.58,1.596,3.207,2.363,4.808c0.766,1.61,1.521,3.226,2.262,4.849l1.127,2.426l0.582,1.204
			c0.188,0.432,0.387,0.756,0.738,1.032c0.677,0.559,1.594,0.601,2.46,0.531c0.849-0.058,1.67-0.573,1.992-1.292l-0.005,0.014
			c0.423-1.385,0.81-2.783,1.266-4.157c0.433-1.382,0.901-2.752,1.381-4.119C68.392,41.925,69.383,39.227,70.442,36.55z"/>
	</g>
</g>
<path style="fill:#A87C4F;" d="M99.917,9.042L121.584,2.6c0,0,1.785-0.338,1.979,0.917c0,0-0.097-1.014-2.412-0.241L99.917,9.042z"
	/>
<path style="fill:#C1B49A;" d="M16.053,43.506c0,0,0.287-2.518,3.452-2.662C19.506,40.843,17.132,41.275,16.053,43.506z"/>
</svg>
