<?xml version="1.0" encoding="iso-8859-1"?>
<!-- Generator: Adobe Illustrator 21.1.0, SVG Export Plug-In . SVG Version: 6.00 Build 0)  -->
<svg version="1.1" id="Layer_1" xmlns="http://www.w3.org/2000/svg" xmlns:xlink="http://www.w3.org/1999/xlink" x="0px" y="0px"
	 width="186.215px" height="550.423px" viewBox="0 0 186.215 550.423" style="enable-background:new 0 0 186.215 550.423;"
	 xml:space="preserve">
<circle id="skinface" style="fill:#2DFF15;stroke:#000100;stroke-width:3;stroke-miterlimit:10;" cx="85.345" cy="89.975" r="69.202"/>
<g id="highlighgroup">
	
		<line style="fill:none;stroke:#000100;stroke-width:5.6693;stroke-linecap:round;stroke-linejoin:round;" x1="72.42" y1="412.868" x2="69.866" y2="499.479"/>
	
		<line style="fill:none;stroke:#000100;stroke-width:5.6693;stroke-linecap:round;stroke-linejoin:round;" x1="109.522" y1="412.851" x2="110.264" y2="499.496"/>
	<path style="fill:#1D1E1C;" d="M12.331,346.676c0.127-0.394,0.426-1.058,0.791-1.574c2.51-4.458,5.039-3.153,8.059-2.462
		c3.869,0.886,7.5,7.076,7.689,7.375l6.09,16.352c0.473,0.727,0.268,1.697-0.459,2.166c-0.726,0.473-1.699,0.267-2.168-0.457
		l-5.795-15.898l-0.945-0.324l0.859,30.167c0.086,0.862-0.543,1.628-1.402,1.714c-0.514,0.052-0.99-0.15-1.317-0.507
		c-0.217-0.237-0.363-0.548-0.398-0.897l-1.166-31.23c-0.018-0.196,0.012-0.391,0.062-0.576c-0.408-0.189-0.791-0.355-1.137-0.485
		l-0.668,36.374c-0.02,0.867-0.734,1.552-1.6,1.537c-0.449-0.01-0.848-0.206-1.127-0.513c-0.262-0.284-0.418-0.668-0.41-1.087
		l0.666-36.17c-1.238,0.873-0.402-0.168-0.555,0.546l-2.348,29.708c-0.111,0.86-0.779,1.598-1.639,1.482
		c-0.381-0.049-0.713-0.232-0.953-0.498c-0.301-0.33-0.461-0.782-0.399-1.258l2.512-28.229l-0.721-0.224l-3.998,20.427
		c-0.246,0.759-0.502,0.959-1.262,0.713c-0.246-0.082-0.457-0.224-0.621-0.4c-0.334-0.37-0.471-0.91-0.305-1.421l4.486-23.837
		c0.027-0.066,0.043-0.13,0.068-0.198L12.331,346.676z"/>
	<path style="fill:#1D1E1C;" d="M163.186,346.057c-0.158-0.383-0.506-1.023-0.906-1.511c-2.836-4.259-5.262-2.767-8.223-1.854
		c-3.791,1.171-6.951,7.616-7.117,7.927l-4.855,16.762c-0.416,0.759-0.139,1.711,0.621,2.125c0.758,0.418,1.713,0.141,2.127-0.617
		l4.596-16.286l0.918-0.395l1.391,30.147c-0.02,0.867,0.662,1.584,1.525,1.605c0.518,0.014,0.977-0.225,1.275-0.603
		c0.199-0.254,0.322-0.574,0.332-0.926l-1.166-31.229c0.004-0.197-0.041-0.39-0.105-0.571c0.393-0.219,0.764-0.412,1.098-0.566
		l3.377,36.223c0.084,0.861,0.848,1.492,1.709,1.411c0.447-0.042,0.832-0.267,1.086-0.594c0.238-0.302,0.367-0.697,0.328-1.115
		l-3.361-36.019c1.303,0.779,0.389-0.197,0.596,0.502l4.555,29.452c0.176,0.848,0.898,1.533,1.744,1.356
		c0.377-0.078,0.695-0.287,0.914-0.568c0.277-0.352,0.4-0.815,0.305-1.285l-4.609-27.963l0.701-0.275l5.51,20.071
		c0.303,0.738,0.572,0.919,1.311,0.616c0.24-0.1,0.439-0.257,0.59-0.447c0.307-0.393,0.402-0.94,0.199-1.438l-6.25-23.436
		c-0.033-0.064-0.053-0.127-0.084-0.193L163.186,346.057z"/>
	<path style="fill:#E805A3;stroke:#000100;stroke-width:2.8347;stroke-linecap:round;stroke-linejoin:round;" d="M49.739,328.946
		c0,0,0.328,1.82,0.145,4.733c-1.119,17.59-3.227,35.023-4.17,52.685c-0.439,8.261-0.906,30.006-1.777,32.449
		c2,0.418,26.436,3.234,52.717,1.593c23.72,0.975,45.047-1.73,48.506-0.882c0.338-2.908,0.168-5.723-0.096-8.57
		c-4.129-44.588-13.471-79.879-12.975-82.932C132.198,327.372,49.739,328.946,49.739,328.946z"/>
	<path style="fill:#FA9D0C;stroke:#000100;stroke-width:4.252;stroke-linecap:round;stroke-linejoin:round;" d="M109.02,496.919
		c8.701-0.869,19.225,3.636,26.775,6.228c10.549,3.63,19.758,7.951,25.035,15.432c3.289,4.669,6.562,12.727,3.615,17.729
		c-3.973,6.727-11.223,9.201-21.293,10.715c-16.551,2.484-37.512,2.164-47.871-8.575C81.012,523.646,109.02,496.919,109.02,496.919z
		"/>
	<path style="fill:#FA9D0C;stroke:#000100;stroke-width:4.252;stroke-linecap:round;stroke-linejoin:round;" d="M69.626,495.165
		c11.369,6.674,24.043,28.184,19.07,39.626c-6.695,15.398-35.668,14.229-51.443,11.432c-18.502-3.285-27.754-18.46-19.568-31.02
		C24.878,504.154,69.626,495.165,69.626,495.165z"/>
	<g>
		<path style="fill:#000100;stroke:#000100;stroke-width:3.5809;" d="M85.292,176.161c0-2.512-0.137-5.075-0.27-7.551
			c-0.131-2.511-0.271-5.104-0.271-7.68l0,0c0-0.97,1.205-1.754,2.684-1.754c1.482,0,2.682,0.784,2.682,1.754l0,0
			c0,2.516,0.137,5.08,0.27,7.558c0.135,2.508,0.269,5.1,0.269,7.673l0,0c0,0.969-1.199,1.754-2.682,1.754
			C86.491,177.916,85.292,177.13,85.292,176.161L85.292,176.161z"/>
	</g>
	<g>
		<path style="fill:#000100;stroke:#000100;" d="M65.577,516.19c-2.123-1.512-5.361-1.893-9.303-2.01l0,0
			c-0.17-0.016-0.422-0.019-0.74-0.019l0,0c-2.67-0.039-6.637,0.523-7.803,1.235l0,0l0.006,0.003
			c-1.189,0.635-2.869,0.459-3.758-0.38l0,0c-0.892-0.847-0.654-2.04,0.535-2.673l0,0c3.244-1.643,7.602-1.947,11.019-1.995l0,0
			c0.346,0,0.727,0,1.078,0.021l0,0c4.004,0.143,8.9,0.453,12.728,3.1l0,0c1.053,0.734,1.072,1.942,0.033,2.695l0,0
			c-0.529,0.38-1.227,0.57-1.92,0.57l0,0C66.774,516.736,66.096,516.555,65.577,516.19L65.577,516.19z"/>
	</g>
	<g>
		<path style="fill:#000100;stroke:#000100;" d="M62.903,527.854c-1.273-1.008-6.379-1.963-9.451-2.24l0,0
			c-1.215-0.142-2.504-0.225-3.773-0.225l0,0c-2.205,0-4.295,0.268-5.92,0.869l0,0c-1.309,0.483-2.934,0.116-3.613-0.816l0,0
			c-0.676-0.938-0.162-2.084,1.15-2.572l0,0c2.678-0.977,5.605-1.288,8.383-1.288l0,0c1.594,0,3.154,0.096,4.615,0.267l0,0
			c3.397,0.43,8.809,1.001,12.324,3.258l0,0c1.068,0.728,1.107,1.936,0.08,2.693l0,0c-0.527,0.391-1.232,0.59-1.936,0.59l0,0
			C64.094,528.389,63.426,528.213,62.903,527.854L62.903,527.854z"/>
	</g>
	<g>
		<path style="fill:#000100;stroke:#000100;" d="M109.626,516.459c-1.26-0.551-1.666-1.725-0.893-2.621l0,0
			c1.77-1.961,4.729-2.928,7.906-3.673l0,0c3.205-0.722,6.725-1.085,9.801-1.091l0,0c2.105,0.016,3.965,0.139,5.668,0.668l0,0
			c1.352,0.43,1.955,1.557,1.348,2.516l0,0c-0.609,0.96-2.195,1.389-3.547,0.96l0,0c-0.408-0.151-1.805-0.343-3.469-0.323l0,0
			c-2.457-0.006-5.586,0.316-8.182,0.9l0,0c-2.611,0.552-4.598,1.51-4.949,2.025l0,0l0.006,0.002
			c-0.502,0.589-1.389,0.914-2.293,0.914l0,0C110.544,516.736,110.061,516.646,109.626,516.459L109.626,516.459z"/>
	</g>
	<g>
		<path style="fill:#000100;stroke:#000100;" d="M113.446,525.949c-1.08-0.727-1.123-1.933-0.1-2.697l0,0
			c3.934-2.826,10.936-4.377,17.143-4.445l0,0c1.916,0.002,3.777,0.17,5.506,0.623l0,0c1.385,0.372,2.09,1.469,1.57,2.451l0,0
			c-0.525,0.986-2.066,1.484-3.455,1.114l0,0c-0.877-0.237-2.156-0.377-3.621-0.377l0,0c-4.73-0.06-11.242,1.629-13.256,3.261l0,0
			c-0.521,0.391-1.232,0.596-1.943,0.596l0,0C114.628,526.475,113.965,526.298,113.446,525.949L113.446,525.949z"/>
	</g>
	<ellipse style="fill:#000100;stroke:#000100;stroke-width:3;" cx="102.546" cy="75.18" rx="2.887" ry="2.89"/>
	<circle style="fill:#000100;stroke:#000100;stroke-width:3;" cx="66.27" cy="75.18" r="2.89"/>
	<g>
		<path style="fill:#000100;" d="M76.188,135.618c-24.338-6.768-30.524-26.178-32.145-31.009l0,0
			c-0.326-0.934-0.058-2.074,0.593-2.537l0,0c0.658-0.466,1.452-0.084,1.778,0.85l0,0c1.686,4.669,6.809,22.228,30.286,28.98l0,0
			c2.306,0.651,4.744,0.984,7.239,0.984l0,0c14.246,0,30.121-10.754,35.492-32.275l0,0c0.247-0.984,1.004-1.498,1.693-1.143l0,0
			c0.689,0.353,1.044,1.432,0.801,2.421l0,0c-5.924,23.465-22.901,34.782-37.986,34.782l0,0
			C81.281,136.671,78.672,136.321,76.188,135.618L76.188,135.618z"/>
	</g>
	<path style="fill:none;stroke:#000100;stroke-width:4.252;stroke-linecap:round;stroke-linejoin:round;" d="M32.213,244.286
		c0,0-8.748,37.648-10.445,51.275c-1.381,11.088-3.166,46.5-3.166,46.5"/>
	<path style="fill:none;stroke:#000100;stroke-width:4.252;stroke-linecap:round;stroke-linejoin:round;" d="M143.913,243.286
		c0,0,6.746,40.648,8.443,54.277c1.381,11.086,4.168,44.498,4.168,44.498"/>
	<path style="fill:#F7A603;stroke:#000100;stroke-width:2.8347;stroke-linecap:round;stroke-linejoin:round;" d="M83.135,171.137
		c-4.428,2.13-33.539,9.477-41.354,15.142c-8.562,6.212-14.721,51.285-16.743,53.77c6.643,2.277,21.528,6.146,27.631,9.122
		c4.119-9.847,4.119-16.227,4.119-16.227c0.441,1.458-0.813,12.579-1.391,16.556c-4.709,32.383-5.962,81.904-6.36,81.882
		c17.854,0.848,26.708,0.816,44.667,1.334c22.316,0.643,42.548-3.242,42.667-3.334c-2.381-4.46-4.54-51.097-11.2-81.268
		c-2.246-10.178-0.648-4.141,2.787,0.926c10.413-2.99,13.401-4.43,24.413-9.657c-2.441-1.971-4.667-47.333-26.839-56.871
		c-5.484-2.359-22.746-8.723-32.894-10.798C90.229,182.242,82.385,175.915,83.135,171.137z"/>
	
		<line style="fill:#2FAAE1;stroke:#000100;stroke-width:2.8347;stroke-linecap:round;stroke-linejoin:round;" x1="124.137" y1="242.666" x2="121.133" y2="232.835"/>
	<path style="fill:#000100;" d="M169.472,41.705C154.347,20.865,123.283,0,88.124,0c-18,0-35.197,5.248-51.12,16.836
		c-8.409,6.121-26.897,24.03-33.159,46.692c-8.007,27.069-2.468,50.773,7.099,66.937c1.647,2.783,9.841,17.736,20.307,21.07
		c21.321,2.045,24.401,1.78,24.732,1.78l-15.941-9.243l-6.812-8.565c0.392-0.912-1.566-0.99-5.44-5.08
		c-1.392-1.469-1.206-3.263-2.958-5.193c-5.865-8.243-11.072-24.4-8.67-42.69c3.777-28.737,26.396-43.632,35.47-49.272
		C52.572,58.869,107.033,61.8,107.033,61.8L96.04,49.659c0,0,6.214,6.157,12.84,10.045c7.582,4.448,18.224,5.446,18.224,5.446
		s-7-5.726-8.468-8.011c-0.984-1.534-4.066-5.806-4.066-5.806s7.615,9.482,12.907,11.678c24.373,10.11,21.742,32.392,19.887,44.22
		c-3.964,25.302-18.486,35.276-28.853,38.654c-9.688,3.157,31.44,9.139,36.333,8.232c16.78-3.115,26.665-27.329,29.275-41.874
		C188.837,85.949,186.26,64.836,169.472,41.705z"/>
	
		<line style="fill:none;stroke:#000000;stroke-width:2;stroke-linecap:round;stroke-linejoin:round;stroke-miterlimit:10;" x1="81.671" y1="77.145" x2="85.938" y2="77.145"/>
	
		<line style="fill:none;stroke:#000000;stroke-width:2;stroke-linecap:round;stroke-linejoin:round;stroke-miterlimit:10;" x1="125.192" y1="74.159" x2="149.086" y2="72.168"/>
	
		<line style="fill:none;stroke:#000000;stroke-width:2;stroke-linecap:round;stroke-linejoin:round;stroke-miterlimit:10;" x1="43.27" y1="74.159" x2="19.376" y2="72.168"/>
	<path style="fill:none;stroke:#000000;stroke-width:2.5;stroke-linecap:round;stroke-linejoin:round;stroke-miterlimit:10;" d="
		M80.022,81.102c0,6.769-5.488,12.256-12.256,12.256H55.526c-6.769,0-12.256-5.487-12.256-12.256v-7.915
		c0-6.769,5.487-12.256,12.256-12.256h12.239c6.768,0,12.256,5.487,12.256,12.256V81.102z"/>
	<path style="fill:none;stroke:#000000;stroke-width:2.5;stroke-linecap:round;stroke-linejoin:round;stroke-miterlimit:10;" d="
		M123.542,81.102c0,6.769-5.486,12.256-12.255,12.256H99.047c-6.77,0-12.256-5.487-12.256-12.256v-7.915
		c0-6.769,5.486-12.256,12.256-12.256h12.239c6.769,0,12.255,5.487,12.255,12.256V81.102z"/>
	<path style="fill:#E805A3;stroke:#000100;stroke-width:2.8347;stroke-linecap:round;stroke-linejoin:round;" d="M25.706,32.048
		c0,0,19.767,1.977,10,15c-12,16-22,3-22,3L25.706,32.048z"/>
	
		<line style="fill:#E805A3;stroke:#000100;stroke-width:7;stroke-linecap:round;stroke-linejoin:round;" x1="19.706" y1="42.048" x2="26.706" y2="44.048"/>
</g>
</svg>
