<?xml version="1.0" encoding="iso-8859-1"?>
<!-- Generator: Adobe Illustrator 21.1.0, SVG Export Plug-In . SVG Version: 6.00 Build 0)  -->
<svg version="1.1" id="Layer_1" xmlns="http://www.w3.org/2000/svg" xmlns:xlink="http://www.w3.org/1999/xlink" x="0px" y="0px"
	 width="171.703px" height="561.664px" viewBox="0 0 171.703 561.664" style="enable-background:new 0 0 171.703 561.664;"
	 xml:space="preserve">
<path id="skinface" style="fill:#4EBF00;stroke:#000100;stroke-width:3;stroke-miterlimit:10;" d="M20.517,99.065
	c0,36.92,27.013,66.848,63.935,66.848c36.917,0,69.763-29.928,69.763-66.848c0-36.92-29.931-66.851-66.847-66.851
	C50.446,32.214,20.517,62.145,20.517,99.065z"/>
<g id="highlightgroup">
	
		<line style="fill:none;stroke:#000100;stroke-width:5.6693;stroke-linecap:round;stroke-linejoin:round;" x1="70.165" y1="418.938" x2="67.61" y2="505.548"/>
	
		<line style="fill:none;stroke:#000100;stroke-width:5.6693;stroke-linecap:round;stroke-linejoin:round;" x1="107.267" y1="418.92" x2="108.009" y2="505.565"/>
	<path style="fill:#0071BC;stroke:#000100;stroke-width:2.8347;stroke-linecap:round;stroke-linejoin:round;" d="M47.483,335.016
		c0,0,0.328,1.82,0.145,4.732c-1.119,17.59-3.226,35.024-4.17,52.686c-0.439,8.261-0.906,30.006-1.777,32.449
		c2,0.418,39.008,1.5,42.648,1.637c4.709,0.172,5.867-0.387,6.412-3.479c1.084-6.167,0.348-11.861,1.252-7.418
		c0.691,3.408,0.965,7.635,2.404,10.853c7.877-0.986,45.047-1.729,48.506-0.882c0.338-2.908,0.168-5.723-0.096-8.57
		c-4.129-44.588-13.471-79.879-12.975-82.932C129.942,333.441,47.483,335.016,47.483,335.016z"/>
	<path style="fill:#FABB0C;stroke:#000100;stroke-width:4.252;stroke-linecap:round;stroke-linejoin:round;" d="M106.765,502.988
		c8.701-0.869,19.225,3.636,26.775,6.227c10.549,3.63,19.758,7.951,25.035,15.432c3.289,4.669,6.562,12.727,3.615,17.728
		c-3.973,6.728-11.223,9.201-21.293,10.715c-16.551,2.484-37.512,2.164-47.871-8.575
		C78.757,529.716,106.765,502.988,106.765,502.988z"/>
	<path style="fill:#FABB0C;stroke:#000100;stroke-width:4.252;stroke-linecap:round;stroke-linejoin:round;" d="M67.37,501.234
		c11.369,6.674,24.043,28.184,19.07,39.626c-6.695,15.398-35.668,14.229-51.443,11.432c-18.502-3.285-27.754-18.46-19.568-31.019
		C22.622,510.224,67.37,501.234,67.37,501.234z"/>
	<g>
		<path style="fill:#000100;stroke:#000100;stroke-width:3.5809;" d="M83.036,182.23c0-2.513-0.137-5.075-0.27-7.551
			c-0.131-2.511-0.271-5.105-0.271-7.68l0,0c0-0.971,1.205-0.754,2.684-0.754c1.482,0,2.682-0.217,2.682,0.754l0,0
			c0,2.516,0.137,5.08,0.27,7.558c0.135,2.508,0.27,5.099,0.27,7.673l0,0c0,0.969-1.199,1.754-2.682,1.754
			C84.235,183.984,83.036,183.2,83.036,182.23L83.036,182.23z"/>
	</g>
	<g>
		<path style="fill:#000100;stroke:#000100;" d="M63.321,522.259c-2.123-1.512-5.361-1.893-9.303-2.01l0,0
			c-0.17-0.016-0.422-0.02-0.74-0.02l0,0c-2.67-0.039-6.637,0.523-7.803,1.235l0,0l0.006,0.003c-1.189,0.635-2.869,0.459-3.758-0.38
			l0,0c-0.892-0.847-0.654-2.04,0.535-2.673l0,0c3.244-1.642,7.602-1.947,11.02-1.995l0,0c0.346,0,0.727,0,1.078,0.021l0,0
			c4.004,0.143,8.9,0.453,12.729,3.1l0,0c1.053,0.734,1.072,1.942,0.033,2.695l0,0c-0.529,0.38-1.227,0.57-1.92,0.57l0,0
			C64.519,522.806,63.841,522.624,63.321,522.259L63.321,522.259z"/>
	</g>
	<g>
		<path style="fill:#000100;stroke:#000100;" d="M60.647,533.923c-1.273-1.008-6.379-1.963-9.451-2.24l0,0
			c-1.215-0.143-2.504-0.225-3.773-0.225l0,0c-2.205,0-4.295,0.268-5.92,0.869l0,0c-1.309,0.483-2.934,0.116-3.613-0.816l0,0
			c-0.676-0.938-0.162-2.084,1.15-2.572l0,0c2.678-0.978,5.605-1.288,8.383-1.288l0,0c1.594,0,3.154,0.096,4.615,0.267l0,0
			c3.396,0.43,8.809,1.001,12.324,3.258l0,0c1.068,0.727,1.107,1.936,0.08,2.693l0,0c-0.527,0.391-1.232,0.59-1.936,0.59l0,0
			C61.839,534.458,61.171,534.282,60.647,533.923L60.647,533.923z"/>
	</g>
	<g>
		<path style="fill:#000100;stroke:#000100;" d="M107.37,522.528c-1.26-0.551-1.666-1.725-0.893-2.621l0,0
			c1.77-1.961,4.729-2.928,7.906-3.673l0,0c3.205-0.722,6.725-1.085,9.801-1.091l0,0c2.105,0.016,3.965,0.139,5.668,0.668l0,0
			c1.352,0.43,1.955,1.557,1.348,2.516l0,0c-0.609,0.96-2.195,1.389-3.547,0.96l0,0c-0.408-0.151-1.805-0.343-3.469-0.323l0,0
			c-2.457-0.006-5.586,0.316-8.182,0.9l0,0c-2.611,0.552-4.598,1.51-4.949,2.025l0,0l0.006,0.002
			c-0.502,0.589-1.389,0.914-2.293,0.914l0,0C108.288,522.806,107.806,522.715,107.37,522.528L107.37,522.528z"/>
	</g>
	<g>
		<path style="fill:#000100;stroke:#000100;" d="M111.19,532.019c-1.08-0.727-1.123-1.933-0.1-2.697l0,0
			c3.934-2.826,10.936-4.377,17.143-4.445l0,0c1.916,0.002,3.777,0.17,5.506,0.623l0,0c1.385,0.372,2.09,1.469,1.57,2.451l0,0
			c-0.525,0.986-2.066,1.484-3.455,1.114l0,0c-0.877-0.237-2.156-0.377-3.621-0.377l0,0c-4.73-0.06-11.242,1.629-13.256,3.261l0,0
			c-0.521,0.391-1.232,0.596-1.943,0.596l0,0C112.372,532.544,111.71,532.367,111.19,532.019L111.19,532.019z"/>
	</g>
	<ellipse style="fill:#000100;stroke:#000100;stroke-width:3;" cx="103.981" cy="84.772" rx="2.789" ry="2.792"/>
	<circle style="fill:#000100;stroke:#000100;stroke-width:3;" cx="68.94" cy="84.772" r="2.792"/>
	<g>
		<path style="fill:#000100;" d="M78.52,143.155c-23.511-6.538-29.486-25.288-31.052-29.955l0,0
			c-0.314-0.902-0.056-2.002,0.572-2.45l0,0c0.636-0.451,1.402-0.082,1.717,0.821l0,0c1.629,4.51,6.578,21.472,29.256,27.994l0,0
			c2.228,0.628,4.582,0.95,6.992,0.95l0,0c13.762,0,29.098-10.388,34.287-31.177l0,0c0.237-0.95,0.969-1.448,1.635-1.104l0,0
			c0.666,0.34,1.01,1.383,0.774,2.339l0,0c-5.723,22.667-22.122,33.6-36.695,33.6l0,0C83.44,144.173,80.919,143.835,78.52,143.155
			L78.52,143.155z"/>
	</g>
	
		<line style="fill:#8D3088;stroke:#000100;stroke-width:3;stroke-linecap:round;stroke-linejoin:round;" x1="91.993" y1="414.623" x2="91.819" y2="379.68"/>
	<path style="fill:none;stroke:#000100;stroke-width:2;stroke-miterlimit:10;" d="M45.405,372.161
		c9.207-0.737,24.217-1.42,28.084-5.802c3.867-4.384,5.017-32.19,0.938-32.048c-4.082,0.14-25.943,0.704-25.943,0.704
		L45.405,372.161z"/>
	<path style="fill:none;stroke:#000100;stroke-width:2;stroke-miterlimit:10;" d="M136.142,370.815
		c-8.08-0.012-21.205,0.486-24.998-3.569c-3.793-4.059-7.514-31.634-3.949-31.819c3.562-0.176,22.639-1.334,22.639-1.334
		L136.142,370.815z"/>
	<path style="fill:#FF0000;stroke:#000100;stroke-width:2.8347;stroke-linecap:round;stroke-linejoin:round;" d="M80.88,177.206
		c-4.428,2.13-33.539,7.477-41.353,13.142c-8.563,6.213-26.865,50.551-28.887,53.035c6.643,2.277,33.672,8.881,39.775,11.857
		c4.119-9.847,4.119-16.227,4.119-16.227c0.441,1.458-0.812,12.579-1.391,16.556c-4.709,32.383-15.115,78.628-15.514,78.605
		c17.853,0.848,35.693,0.168,53.652,0.686c22.316,0.643,37.043-2.539,45.584-0.674c0.127-0.095,1.25-0.188,1.369-0.279
		c-2.381-4.46-8.658-49.553-15.318-79.725c-2.246-10.178-0.648-4.141,2.787,0.926c10.287-5.898,20.521-7.873,31.533-13.102
		c-2.441-1.971-17.594-49.508-37.959-55.427c-5.732-1.667-18.746-6.724-28.895-8.798C87.974,188.311,80.13,181.984,80.88,177.206z"
		/>
	
		<line style="fill:#2FAAE1;stroke:#000100;stroke-width:2.8347;stroke-linecap:round;stroke-linejoin:round;" x1="121.882" y1="248.735" x2="118.878" y2="238.904"/>
	<path d="M162.086,86.376c-0.53-6.665,10.547-13.812-0.816-24.721c-0.244-0.234,0.196-11.051-1.306-9.149
		c-1.075,1.361-0.839,3.268-1.171,3.843c-0.3,0.892-0.554,0.963,0,0c0.512-1.516,1.15-5.392-1.84-10.604
		c-1.541-2.684-4.485-7.14-4.349-9.278c0.238-3.743-1.497-6.987-12.667-13.022c-3.58-5.369-16.605-5.442-11.788-4.196
		c-5.142-4.488-6.442-7.579-11.978-8.235c-20.506-6.521-35.432-9.251-56.146,0.749c-7.102,3.43-18.234,5.483-20.961,5.989
		c-2.996,0.557-11.238,11.2-8.234,8.983c-3.003,2.217-7.487,3.244-10.98,8.234c-1.717,2.454-3.683,8.9-1.497,7.986
		c-1.175,1.251-1.497,8.484-11.479,13.475c-1.289,0.644,1.904,10.053,1.881,16.068c-1.882,2.589-3.467,4.607-3.467,4.607
		s3.924-1.402,4.172,3.412c0.287,5.584-2.675,8.355,1.59,15.681c2.33,4.002,3.279,5.043,3.627,5.166
		c0.001,0.059,0.004,0.122,0.009,0.194c0.373,5.624,3.12,6.212,5.337,6.243c0.129,0.559,0.263,1.114,0.407,1.664l-0.327-1.663
		c0.451,0.004,0.878-0.014,1.257-0.014c-1.003-1.585-1.465-3.292-1.602-5.012c-0.011-0.887-0.004-1.76,0.012-2.625
		c0.318-3.93,1.787-7.608,1.778-9.643c-0.014-3.509,0.301-6.592,1.033-9.527c1.038-0.642,3.605-6.983,5.006-9.48
		c4.279-7.125,4.377-4.761,15.219-14.571c-4.896,6.762-4.6,5.216-5.49,11.979c3.68-7.153,23.048-10.541,27.949-8.984
		c19.116,6.077,43.661-7.7,53.4-14.473c-1.423,4.667,0,10.979,2.995,11.978c6.986,2.995,9.473-0.611,17.467,8.485
		c0.674-5.093-1.497-6.488-1.497-7.486c5.598,3.732,4.69,7.12,3.518,2.493c9.099,6.585,13.2,31.367,12.852,39.248
		c-0.149,3.407-1.002,11.6-2.484,13.871c3.236-4.96,8.502-14.705,9.26-18.721C162.465,86.381,162.517,91.805,162.086,86.376z"/>
	<path style="fill:none;stroke:#000100;stroke-width:4.252;stroke-linecap:round;stroke-linejoin:round;" d="M149,245.667
		c0,0,2.623,7.331,9.267,19.173c5.537,9.869-7.8,7.536-7.8,7.536"/>
	<g>
		<g>
			
				<ellipse transform="matrix(0.4465 -0.8948 0.8948 0.4465 -201.0238 262.9008)" style="fill:#F5F5F5;" cx="112.002" cy="293.946" rx="50.392" ry="50.587"/>
			<path d="M66.649,271.312c2.937-5.935,7.033-11.297,11.982-15.731c4.948-4.441,10.801-7.898,17.114-10.131
				c6.311-2.256,13.106-3.166,19.827-2.763c6.731,0.386,13.353,2.264,19.391,5.247c6.029,3.005,11.52,7.159,15.919,12.281
				c4.41,5.107,7.793,11.083,9.912,17.474c2.134,6.387,2.96,13.197,2.441,19.892c-0.493,6.702-2.423,13.263-5.479,19.199
				c-3.041,5.955-7.295,11.244-12.335,15.587c-5.059,4.331-10.966,7.63-17.261,9.778c-3.153,1.066-6.413,1.812-9.714,2.258
				c-3.3,0.461-6.65,0.6-9.986,0.407c-6.672-0.381-13.288-2.096-19.329-5.033c-6.01-2.982-11.503-7.098-15.887-12.207
				c-4.412-5.079-7.725-11.086-9.738-17.466c-2.022-6.381-2.779-13.135-2.207-19.756C61.866,283.728,63.679,277.233,66.649,271.312z
				 M66.828,271.402c-2.938,5.905-4.689,12.407-5.007,18.98c-0.329,6.568,0.664,13.175,2.874,19.319
				c4.413,12.294,13.53,22.74,25.175,28.592c11.535,5.986,25.569,7.359,38.072,3.193c6.258-1.998,12.079-5.334,17.019-9.653
				c4.971-4.295,8.958-9.669,11.815-15.544c2.852-5.891,4.486-12.325,4.876-18.817c0.382-6.495-0.542-13.045-2.641-19.183
				c-4.179-12.312-13.369-22.726-24.969-28.511c-11.583-5.843-25.408-6.965-37.883-3.079c-6.239,1.915-12.114,5.092-17.164,9.302
				C73.934,260.205,69.789,265.506,66.828,271.402z"/>
		</g>
		<path d="M63,303.707c0,0-2.118-12.188,1.218-16.558c-1.564-1.903-1.564-1.903-1.09-4.477C60.149,290.258,60.968,299.88,63,303.707
			z"/>
		<g>
			<g>
				<path d="M75.599,258.456c0.046,0.023-4.61,5.893-8.382,13.229c-1.896,3.654-3.325,7.309-4.069,10.093
					c-0.772,2.782-0.862,4.657-0.85,4.652l0,0c-0.019,0.008-0.069-2.074,0.609-5.016c0.644-2.939,2.002-6.687,3.744-10.031
					C70.069,264.613,75.622,258.449,75.599,258.456L75.599,258.456z"/>
			</g>
		</g>
		<path style="fill:#FFFFFF;" d="M67.229,310.399c21.312,22.967,53.297,19.975,59.98-19.476c6.683-39.452-34.734-41.794-50.754-29.5
			C65.005,270.211,58.688,301.194,67.229,310.399z"/>
		<path d="M120.105,316.763c0,0-1.989-16.079-3.346-20.138c0,0,8.166-3.599,17.996-10.786c4.115,4.265,8.854,7.279,13.073,13.415
			c-0.721,10.305-5.608,15.928-8.937,19.991C134.132,320.836,126.351,318.838,120.105,316.763z"/>
		<path d="M81.322,298.575c0,0,2.443-4.373,16.229-11.148c-2.716-12.018-1.574-15.091-1.422-20.866
			c-6.922-1.505-14.468-0.716-17.537,2.044c-3.067,2.761-8.054,14.317-8.156,17.385C70.334,289.06,77.992,296.913,81.322,298.575z"
			/>
		<path d="M133.545,265.596c0,0-6.094-7.072-19.47-8.936c0.306-7.13,0.563-9.731,0.563-9.731
			c5.568-4.115,25.657,0.709,29.155,13.506C139.345,261.922,135.598,262.653,133.545,265.596z"/>
		<path d="M105.656,339.982c-7.104,2.371-22.535-0.453-28.894-14.551c3.12-3.124,7.593-6.355,7.593-6.355s12.289,9.255,18.793,8.729
			C103.464,332.904,105.656,339.982,105.656,339.982z"/>
		<path d="M150.971,326.573c-2,4.918-20.54,17.449-25.33,15.058c7.803-2.607,13.732-7.452,15.446-10.888
			C144.939,330.845,147.488,328.737,150.971,326.573z"/>
		<path d="M161.972,301.043c2.342-0.783,2.585-20.557-4.028-26.85c4.588,12.175,2.615,16.65,0.743,18.838
			C162.903,295.134,162.387,298.129,161.972,301.043z"/>
		<path d="M75.671,258.3c0,0,1.768-1.457,3.982-1.328c1.455-2.135,4.99-6.091,7.252-6.849C81.989,251.768,75.671,258.3,75.671,258.3
			z"/>
		<g>
			<g>
				<path d="M106.914,340.58c0.008-0.04,4.018,1.21,8.599,1.657c4.578,0.546,8.736-0.084,8.716-0.161l0,0
					c0.062,0.106-4.519,1.352-8.789,0.797C111.17,342.498,106.902,340.55,106.914,340.58L106.914,340.58z"/>
			</g>
		</g>
		<g>
			<g>
				<path d="M64.782,311.044c-0.009-0.008,1.331,4.072,4.242,7.717c2.809,3.716,6.29,6.212,6.295,6.181l0,0
					c-0.008,0.077-4.201-2.277-6.804-5.792C65.731,315.742,64.724,311.017,64.782,311.044L64.782,311.044z"/>
			</g>
		</g>
		<path style="fill:none;stroke:#000000;stroke-miterlimit:10;" d="M128.252,341.197c0,0-7.87,2.997-17.736,0.566
			c-9.868-2.432-11.532-4.091-11.532-4.091l-15.527-9.967c0,0-7.872-1.436-12.309-5.866c-4.438-4.432-2.634-2.69-2.634-2.69"/>
		<path style="fill:none;stroke:#000000;stroke-miterlimit:10;" d="M101.415,328.912c0,0,18.285-9.437,22.05-14.206
			c3.766-4.77-3.227-16.293-3.227-16.293s-19.738-9.296-25.17-11.729c-5.435-2.436-12.97,0.452-13.633,2.892
			c-0.664,2.438-0.106,6.318-0.106,6.318s-0.207,19.841,4.675,26.711C90.887,329.474,101.415,328.912,101.415,328.912z"/>
		<path style="fill:none;stroke:#000000;stroke-miterlimit:10;" d="M146.178,299.171c0,0,11.636-4.997,13.962-6.883"/>
		<path style="fill:none;stroke:#000000;stroke-miterlimit:10;" d="M134.531,288.093c0,0,3.201-19.179-4.567-28.041"/>
		<path style="fill:none;stroke:#000000;stroke-miterlimit:10;" d="M93.389,268.393c0,0,18.505-12.096,23.16-12.542"/>
		<path style="fill:none;stroke:#000000;stroke-miterlimit:10;" d="M79.201,268.515c0,0-1.666-7.203,0.434-13.082"/>
		<path style="fill:none;stroke:#000000;stroke-miterlimit:10;" d="M62.698,287.149c0,0,8.312-1.669,9.645-1.005"/>
		<path style="fill:none;stroke:#000000;stroke-miterlimit:10;" d="M140.661,333.539c0,0,0.545-13.303-4.114-18.4"/>
		<path style="fill:none;stroke:#000000;stroke-miterlimit:10;" d="M159.019,275.66c0,0-8.878-13.297-18.969-16.947"/>
		<path style="fill:none;stroke:#000000;stroke-miterlimit:10;" d="M115.987,246.981c0,0-6.098-2.766-9.315-2.986"/>
	</g>
	<path style="fill:#1D1E1C;" d="M162.48,272.107c0.093-0.295,0.191-0.847,0.171-1.363c0.282-4.047-2.181-5.055-4.711-6.718
		c-3.241-2.131-8.823-1.294-9.102-1.262l-12.195,4.565c-0.689,0.066-0.999,0.72-0.691,1.456c0.304,0.736,1.11,1.281,1.797,1.213
		l11.765-4.52l0.842,0.462l-14.931,15.391c-0.47,0.399-0.378,1.226,0.208,1.849c0.351,0.373,0.794,0.585,1.201,0.616
		c0.271,0.02,0.525-0.046,0.718-0.206l15.657-15.748c0.107-0.093,0.177-0.216,0.228-0.348c0.387,0.174,0.746,0.344,1.058,0.507
		l-16.761,19.701c-0.396,0.472-0.2,1.315,0.438,1.887c0.332,0.298,0.717,0.464,1.064,0.487c0.324,0.023,0.622-0.073,0.815-0.3
		l16.664-19.594c0.489,1.297,0.373,0.182,0.146,0.663l-12.376,17.302c-0.325,0.529-0.186,1.369,0.492,1.885
		c0.302,0.23,0.631,0.356,0.933,0.377c0.376,0.029,0.706-0.106,0.888-0.398l11.553-16.628l0.629,0.365l-6.77,13.498
		c-0.18,0.566-0.088,0.844,0.582,1.224c0.22,0.121,0.441,0.189,0.644,0.205c0.419,0.028,0.774-0.165,0.896-0.547l8.031-15.629
		c0.012-0.056,0.03-0.099,0.045-0.152L162.48,272.107z"/>
	<path style="fill:#1D1E1C;" d="M70.702,322.31c-0.24,0.074-0.706,0.141-1.162,0.099c-3.484,0.092-4.777-2.197-6.654-4.573
		c-2.404-3.046-2.611-8.104-2.632-8.358l1.932-10.937c-0.057-0.626,0.459-0.882,1.155-0.571c0.696,0.31,1.306,1.067,1.361,1.69
		l-1.967,10.547l0.546,0.787l10.92-12.986c0.268-0.414,1.007-0.294,1.649,0.268c0.383,0.335,0.644,0.748,0.739,1.121
		c0.062,0.246,0.048,0.477-0.061,0.644l-11.109,13.636c-0.062,0.094-0.158,0.154-0.264,0.194c0.217,0.36,0.425,0.693,0.621,0.986
		l14.374-14.478c0.345-0.343,1.115-0.128,1.722,0.478c0.315,0.314,0.522,0.673,0.603,0.992c0.077,0.298,0.041,0.563-0.124,0.729
		l-14.296,14.397c1.212,0.499,0.221,0.347,0.603,0.16l13.018-10.577c0.408-0.276,1.163-0.115,1.728,0.527
		c0.252,0.284,0.416,0.59,0.485,0.865c0.087,0.344,0.028,0.642-0.198,0.793l-12.569,9.854l0.426,0.591l10.64-5.619
		c0.465-0.141,0.723-0.046,1.168,0.583c0.143,0.203,0.238,0.407,0.286,0.594c0.097,0.384-0.013,0.7-0.326,0.795l-12.29,6.681
		c-0.045,0.01-0.08,0.025-0.124,0.034L70.702,322.31z"/>
	<path style="fill:none;stroke:#000100;stroke-width:4.252;stroke-linecap:round;stroke-linejoin:round;" d="M26.709,249.828
		c0,0-7.36,33.661-9.042,47.172c-1.369,10.994,47.538,19.022,47.538,19.022"/>
</g>
</svg>
