<?xml version="1.0" encoding="iso-8859-1"?>
<!-- Generator: Adobe Illustrator 21.1.0, SVG Export Plug-In . SVG Version: 6.00 Build 0)  -->
<svg version="1.1" id="Layer_1" xmlns="http://www.w3.org/2000/svg" xmlns:xlink="http://www.w3.org/1999/xlink" x="0px" y="0px"
	 width="213.816px" height="599.543px" viewBox="0 0 213.816 599.543" style="enable-background:new 0 0 213.816 599.543;"
	 xml:space="preserve">
<circle id="skinface" style="fill:#11E900;stroke:#000100;stroke-width:3.5;stroke-miterlimit:10;" cx="108.353" cy="123.384" r="79.312"/>
<g id="highlightgroup">
	<path style="fill:#000100;" d="M20.027,59.034c-2.916,1.208-4.293,5.547-4.528,8.56c-2.541,2.733-5.779,5.143-3.615,9.343
		c-3.763,1.517-1.668,5.718-1.978,8.495c-0.736,4.013-1.1,7.579-1.138,10.298c-0.045,2.717,0.231,4.586,0.772,5.201
		c1.899,2.16,3.463,9.038-0.793,11.926c-2.477,8.254,0.437,13.821,3.299,21.046c1.725,4.343,3.789,7.794,7.089,9.041
		c4.469,1.689,7.494,9.117,10.245,9.117c6.052,1.881,8.754-3.626,1.185-5.945c5.79-2.773,2.865-5.993-0.36-6.82
		c6.405,0.827,1.651-5.805,2.766-6.03c2.601-5.552,1.863-6.047,0.95-10.091c-0.367-1.833-3.942-2.193-3.296-5.125
		c0.645-2.931,1.794-5.954,3.535-8.016c10.901-4.191,6.774-15.335,3.885-13.683c3.027,0.274,3.848-10.008,7.43-9.904
		c3.583,0.102,8.274-9.629,6.97-14.474c9.236,5.27,16.527-2.503,12.014-7.397c5.174,5.994,7.823-2.366,11.271-5.294
		c3.476-2.269,17.973,1.163,21.329-1.308c3.357-2.473,5.407,1.109,7.841-1.652c3.218-0.176,7.068,0.784,6.62-3.643
		c4.109,2.456,5.761-0.07,8.649-3.371c2.889-2.889,10.317-4.128,11.968,0c2.62,1.872-4.955,2.888,1.237,7.428
		c2.627,0.464,2.831,1.288,5.389,0.762c2.557-0.526,5.157-0.832,7.812-0.868c2.654-0.038,3.837,4.515,6.607,5.058
		c2.514,0.511,5.06,2.812,7.427,4.126c2.371,1.315,4.85,3.096,7.015,5.365c3.303,4.127,7.018,3.301,7.018,8.255
		c0,1.649-0.826,4.126-1.439,5.843c-0.207,2.74,3.71,1.105,5.249,3.173c-0.947,2.459-0.402,4.741,0.729,7.076
		c-0.765,2.287,0.26,4.722,0.443,7.063c1.114,1.494,2.272,2.732,3.349,3.728c2.155,1.989-0.121,6.706-0.076,7.229
		c0.412,4.677,1.809,4.826,2.887,5.915c1.138,1.119,0.42,3.771,0.415,5.364c-0.015,3.187,2.503,2.242,1.815,5.777
		c-0.204,1.055,3.756-0.532,7.042-2.999c3.282-2.466,5.888-5.812,2.972-8.279c1.374-5.229,5.775-3.577,6.604-6.878
		c2.75-8.529,0.754-13-0.586-17.848c-1.338-4.853,5.768-17.267-3.818-15.165c0.414-2.89,2.477-14.444-3.861-14.079
		c2.192-3.745,0.484-6.164-3.657-9.064c-5.318-3.722-6.086-9.983-7.704-12.29c-2.917-3.674-6.48-4.841-9.959-7.997
		c-3.476-3.155-7.271-9.148-11.157-8.63c-3.389-5.293-4.926-7.09-12.433-6.867c0.173-8.384-7.889-4.661-13.441-4.964
		c-0.977-1.554-0.237-6.539-10.967-6.814c-2.266-0.058-6.881,0.751-9.077,0.275c-2.818-0.193-3.773,1.05-6.604,1.099
		c-4.245,0.075-6.449-3.696-10.692-3.14C96.359,7.398,90.368,3.72,87.979,9.277c-2.466-1.929-5.753-2.292-6.571-0.516
		C78.36,9.076,61.519,11.492,65.593,19.48c-5.676,1.766-13.245-3.268-13.103,6.305c1.237-0.825-5.558-4.435-7.738,2.167
		c-5.743,0.309-6.293,6.086-7.119,6.912c-1.65,0.826-3.806,1.125-5.363,1.96C30.154,37.009,32,41,25,45
		C21.168,47.19,30.497,54.695,20.027,59.034z"/>
	<path style="fill:#000100;" d="M112.833,216.75c0,2.577-2.089,4.667-4.667,4.667l0,0c-2.576,0-4.666-2.089-4.666-4.667v-12
		c0-2.577,2.09-3.666,4.666-3.666l0,0c2.578,0,4.667,1.089,4.667,3.666V216.75z"/>
	
		<line style="fill:none;stroke:#000100;stroke-width:5.6693;stroke-linecap:round;stroke-linejoin:round;" x1="92.783" y1="455.82" x2="90.229" y2="542.431"/>
	
		<line style="fill:none;stroke:#000100;stroke-width:5.6693;stroke-linecap:round;stroke-linejoin:round;" x1="129.885" y1="455.803" x2="130.627" y2="542.448"/>
	<path style="fill:#1D1E1C;" d="M32.693,389.628c0.127-0.393,0.426-1.058,0.791-1.574c2.51-4.458,5.039-3.153,8.059-2.462
		c3.869,0.886,7.5,7.077,7.689,7.375l6.09,16.352c0.473,0.726,0.268,1.697-0.459,2.166c-0.727,0.473-1.699,0.267-2.168-0.458
		L46.9,395.129l-0.945-0.324l0.859,30.166c0.086,0.862-0.543,1.628-1.402,1.714c-0.514,0.051-0.99-0.15-1.316-0.507
		c-0.217-0.237-0.363-0.548-0.398-0.898l-1.166-31.23c-0.018-0.196,0.012-0.391,0.062-0.577c-0.408-0.189-0.791-0.355-1.137-0.485
		l-0.668,36.375c-0.02,0.867-0.734,1.551-1.6,1.536c-0.449-0.009-0.848-0.206-1.127-0.512c-0.262-0.284-0.418-0.668-0.41-1.087
		l0.666-36.169c-1.238,0.874-0.402-0.168-0.555,0.546l-2.348,29.708c-0.111,0.86-0.779,1.597-1.639,1.482
		c-0.381-0.048-0.713-0.232-0.953-0.498c-0.301-0.33-0.461-0.782-0.398-1.258l2.512-28.228l-0.721-0.224l-3.998,20.427
		c-0.246,0.759-0.502,0.958-1.262,0.712c-0.246-0.082-0.457-0.223-0.621-0.4c-0.334-0.37-0.471-0.909-0.305-1.42l4.486-23.836
		c0.027-0.067,0.043-0.13,0.068-0.199L32.693,389.628z"/>
	<path style="fill:#1D1E1C;" d="M183.549,389.009c-0.158-0.383-0.506-1.023-0.906-1.511c-2.836-4.259-5.262-2.768-8.223-1.854
		c-3.791,1.171-6.951,7.616-7.117,7.927l-4.855,16.761c-0.416,0.759-0.139,1.711,0.621,2.126c0.758,0.417,1.713,0.14,2.127-0.617
		l4.596-16.287l0.918-0.395l1.391,30.148c-0.02,0.866,0.662,1.584,1.525,1.605c0.518,0.013,0.977-0.224,1.275-0.604
		c0.199-0.253,0.322-0.574,0.332-0.926l-1.166-31.229c0.004-0.197-0.041-0.39-0.105-0.571c0.393-0.22,0.764-0.413,1.098-0.567
		l3.377,36.224c0.084,0.861,0.848,1.492,1.709,1.411c0.447-0.042,0.832-0.267,1.086-0.594c0.238-0.302,0.367-0.697,0.328-1.115
		l-3.361-36.019c1.303,0.78,0.389-0.197,0.596,0.503l4.555,29.452c0.176,0.848,0.898,1.533,1.744,1.356
		c0.377-0.078,0.695-0.287,0.914-0.568c0.277-0.351,0.4-0.814,0.305-1.285l-4.609-27.963l0.701-0.275l5.51,20.071
		c0.303,0.738,0.572,0.918,1.311,0.617c0.24-0.101,0.439-0.257,0.59-0.447c0.307-0.394,0.402-0.941,0.199-1.438l-6.25-23.435
		c-0.033-0.065-0.053-0.127-0.084-0.193L183.549,389.009z"/>
	<path style="fill:#7974CD;stroke:#000100;stroke-width:2.8347;stroke-linecap:round;stroke-linejoin:round;" d="M72.428,362.214
		c-1.633-0.114-2.547-0.264-2.535-0.458c-0.131,2.333-0.756,4.225-0.459,6.491c0.371,2.78,0.996,5.471,0.812,8.382
		c-1.119,17.59-3.227,35.024-4.17,52.685c-0.439,8.261-0.906,30.007-1.777,32.449c2,0.418,39.008,1.501,42.649,1.637
		c4.709,0.172,5.867-0.387,6.412-3.478c1.084-6.167,0.348-11.862,1.252-7.418c0.691,3.407,0.965,7.635,2.404,10.852
		c7.877-0.986,45.047-1.73,48.506-0.882c0.338-2.908,0.168-5.723-0.096-8.569c-4.129-44.588-15.055-89.313-14.559-92.365
		C150.977,360.891,84.943,363.086,72.428,362.214z"/>
	<path style="fill:#FABB0C;stroke:#000100;stroke-width:4.252;stroke-linecap:round;stroke-linejoin:round;" d="M129.383,539.871
		c8.701-0.869,19.225,3.636,26.775,6.227c10.549,3.63,19.758,7.951,25.035,15.432c3.289,4.669,6.562,12.727,3.615,17.729
		c-3.973,6.728-11.223,9.201-21.293,10.715c-16.551,2.484-37.512,2.164-47.871-8.575
		C101.375,566.599,129.383,539.871,129.383,539.871z"/>
	<path style="fill:#FABB0C;stroke:#000100;stroke-width:4.252;stroke-linecap:round;stroke-linejoin:round;" d="M89.988,538.117
		c11.369,6.674,24.043,28.184,19.07,39.626c-6.695,15.398-35.668,14.228-51.443,11.432c-18.502-3.285-27.754-18.46-19.568-31.02
		C45.24,547.106,89.988,538.117,89.988,538.117z"/>
	<g>
		<path style="fill:#000100;stroke:#000100;" d="M85.939,559.142c-2.123-1.512-5.361-1.893-9.303-2.01l0,0
			c-0.17-0.016-0.422-0.019-0.74-0.019l0,0c-2.67-0.039-6.637,0.523-7.803,1.235l0,0l0.006,0.003
			c-1.189,0.635-2.869,0.459-3.758-0.38l0,0c-0.893-0.847-0.654-2.04,0.535-2.673l0,0c3.244-1.643,7.602-1.947,11.02-1.995l0,0
			c0.346,0,0.727,0,1.078,0.021l0,0c4.004,0.143,8.9,0.453,12.729,3.1l0,0c1.053,0.734,1.072,1.942,0.033,2.695l0,0
			c-0.529,0.38-1.226,0.57-1.92,0.57l0,0C87.137,559.688,86.459,559.507,85.939,559.142L85.939,559.142z"/>
	</g>
	<g>
		<path style="fill:#000100;stroke:#000100;" d="M83.266,570.806c-1.273-1.008-6.379-1.963-9.451-2.24l0,0
			c-1.215-0.143-2.504-0.225-3.773-0.225l0,0c-2.205,0-4.295,0.268-5.92,0.869l0,0c-1.309,0.483-2.934,0.116-3.613-0.816l0,0
			c-0.676-0.938-0.162-2.084,1.15-2.572l0,0c2.678-0.977,5.606-1.288,8.383-1.288l0,0c1.594,0,3.154,0.096,4.615,0.267l0,0
			c3.396,0.43,8.808,1.001,12.324,3.258l0,0c1.068,0.728,1.107,1.936,0.08,2.693l0,0c-0.527,0.391-1.232,0.59-1.936,0.59l0,0
			C84.457,571.341,83.789,571.165,83.266,570.806L83.266,570.806z"/>
	</g>
	<g>
		<path style="fill:#000100;stroke:#000100;" d="M129.988,559.411c-1.26-0.551-1.666-1.725-0.893-2.621l0,0
			c1.77-1.961,4.729-2.928,7.906-3.673l0,0c3.205-0.722,6.725-1.085,9.801-1.091l0,0c2.105,0.016,3.965,0.139,5.668,0.668l0,0
			c1.352,0.43,1.955,1.557,1.348,2.516l0,0c-0.609,0.96-2.195,1.389-3.547,0.96l0,0c-0.408-0.151-1.805-0.343-3.469-0.323l0,0
			c-2.457-0.006-5.586,0.316-8.182,0.9l0,0c-2.611,0.552-4.598,1.51-4.949,2.025l0,0l0.006,0.002
			c-0.502,0.589-1.389,0.914-2.293,0.914l0,0C130.906,559.688,130.424,559.598,129.988,559.411L129.988,559.411z"/>
	</g>
	<g>
		<path style="fill:#000100;stroke:#000100;" d="M133.809,568.901c-1.08-0.727-1.123-1.933-0.1-2.697l0,0
			c3.934-2.826,10.936-4.377,17.143-4.445l0,0c1.916,0.002,3.777,0.17,5.506,0.623l0,0c1.385,0.372,2.09,1.469,1.57,2.451l0,0
			c-0.525,0.986-2.066,1.484-3.455,1.114l0,0c-0.877-0.237-2.156-0.377-3.621-0.377l0,0c-4.73-0.06-11.242,1.629-13.256,3.261l0,0
			c-0.521,0.391-1.232,0.596-1.943,0.596l0,0C134.99,569.427,134.328,569.25,133.809,568.901L133.809,568.901z"/>
	</g>
	<ellipse style="fill:#000100;stroke:#000100;stroke-width:3;" cx="128.066" cy="106.427" rx="3.309" ry="3.312"/>
	<circle style="fill:#000100;stroke:#000100;stroke-width:3;" cx="86.491" cy="106.427" r="3.312"/>
	<g>
		<path style="fill:#000100;" d="M97.857,175.694c-27.895-7.756-34.982-30.002-36.841-35.54l0,0
			c-0.375-1.069-0.067-2.376,0.679-2.906l0,0c0.755-0.535,1.662-0.098,2.037,0.974l0,0c1.932,5.352,7.805,25.475,34.709,33.213l0,0
			c2.646,0.746,5.439,1.128,8.299,1.128l0,0c16.327,0,34.522-12.326,40.677-36.99l0,0c0.282-1.127,1.149-1.716,1.94-1.311l0,0
			c0.791,0.405,1.197,1.642,0.918,2.775l0,0c-6.788,26.893-26.246,39.862-43.535,39.862l0,0
			C103.694,176.9,100.702,176.499,97.857,175.694L97.857,175.694z"/>
	</g>
	
		<line style="fill:#8D3088;stroke:#000100;stroke-width:3;stroke-linecap:round;stroke-linejoin:round;" x1="114.611" y1="451.506" x2="114.438" y2="416.562"/>
	<path style="fill:none;stroke:#000100;stroke-width:4.252;stroke-linecap:round;stroke-linejoin:round;" d="M52.576,287.239
		c0,0-8.748,37.648-10.445,51.275c-1.381,11.088-3.166,46.5-3.166,46.5"/>
	<path style="fill:none;stroke:#000100;stroke-width:4.252;stroke-linecap:round;stroke-linejoin:round;" d="M164.275,286.239
		c0,0,6.746,40.648,8.443,54.276c1.381,11.087,4.168,44.499,4.168,44.499"/>
	<path style="fill:#86FF00;stroke:#000100;stroke-width:2.8347;stroke-linecap:round;stroke-linejoin:round;" d="M103.498,214.089
		c-4.428,2.13-33.539,7.477-41.354,13.142c-8.562,6.212-26.865,50.55-28.887,53.035c6.643,2.277,33.672,8.881,39.775,11.857
		c4.119-9.847,4.119-16.227,4.119-16.227c0.442,1.458-0.812,12.58-1.391,16.556c-4.709,32.382-15.115,78.628-15.514,78.606
		c17.854,0.848,35.693,0.168,53.652,0.685c22.316,0.643,37.043-2.539,45.584-0.674c0.127-0.095,1.25-0.188,1.369-0.279
		c-2.381-4.461-8.658-49.553-15.318-79.725c-2.246-10.178-0.648-4.14,2.787,0.926c10.287-5.899,20.521-7.873,31.533-13.102
		c-2.441-1.971-17.594-49.508-37.959-55.427c-5.732-1.667-18.746-6.723-28.895-8.798
		C110.592,225.194,102.748,218.867,103.498,214.089z"/>
	
		<line style="fill:#2FAAE1;stroke:#000100;stroke-width:2.8347;stroke-linecap:round;stroke-linejoin:round;" x1="144.5" y1="285.618" x2="141.496" y2="275.787"/>
	<path style="fill:none;stroke:#000100;stroke-width:2;stroke-miterlimit:10;" d="M67.955,409.044
		c9.207-0.737,24.217-1.42,28.084-5.802c3.867-4.384,5.018-32.189,0.938-32.048c-4.082,0.14-25.943,0.704-25.943,0.704
		L67.955,409.044z"/>
	<path style="fill:none;stroke:#000100;stroke-width:2;stroke-miterlimit:10;" d="M158.691,407.697
		c-8.08-0.012-21.205,0.487-24.998-3.569c-3.793-4.059-7.514-31.634-3.949-31.819c3.562-0.177,22.639-1.334,22.639-1.334
		L158.691,407.697z"/>
</g>
</svg>
