<?xml version="1.0" encoding="iso-8859-1"?>
<!-- Generator: Adobe Illustrator 21.1.0, SVG Export Plug-In . SVG Version: 6.00 Build 0)  -->
<svg version="1.1" id="Layer_1" xmlns="http://www.w3.org/2000/svg" xmlns:xlink="http://www.w3.org/1999/xlink" x="0px" y="0px"
	 width="150.433px" height="392.609px" viewBox="0 0 150.433 392.609" style="enable-background:new 0 0 150.433 392.609;"
	 xml:space="preserve">
<g>
	<g>
		<path style="fill-rule:evenodd;clip-rule:evenodd;fill:#0089AA;" d="M26.273,243.348l-1.635,0.396l-1.515,0.406l-1.39,0.416
			l-1.258,0.421l-1.119,0.426l-0.734,0.32h111.079l-0.734-0.32l-1.118-0.426l-1.259-0.421l-1.389-0.416l-1.516-0.406l-1.635-0.396
			l-1.749-0.383l-1.858-0.368l-1.965-0.354l-2.064-0.341l-2.16-0.321l-2.252-0.306l-2.342-0.285l-2.425-0.268l-2.504-0.245
			l-2.58-0.229l-2.652-0.205l-2.721-0.186l-2.785-0.162l-2.844-0.14l-2.9-0.114l-2.953-0.091l-3.002-0.065l-3.046-0.04l-3.087-0.013
			l-3.087,0.013l-3.046,0.04l-3.002,0.065l-2.953,0.091l-2.901,0.114l-2.845,0.14l-2.784,0.162l-2.721,0.186l-2.652,0.205
			l-2.581,0.229l-2.504,0.245l-2.425,0.268l-2.34,0.285l-2.253,0.306l-2.161,0.321l-2.065,0.341l-1.963,0.354l-1.858,0.368
			L26.273,243.348L26.273,243.348z M48.107,227.141l0.183-0.017l0.182-0.016l0.367-0.031l0.188-0.017l0.184-0.015l0.187-0.017
			l0.189-0.016l0.451-0.038h0.001l0.102-0.008l0.187-0.015l0.188-0.015l0.186-0.015l0.191-0.016l0.189-0.014l0.187-0.015l0.264-0.02
			h0.001l0.11-0.008l0.189-0.015l0.19-0.014l0.187-0.014l0.19-0.014l0.19-0.015l0.19-0.014l0.195-0.014l0.184-0.014l0.194-0.012
			l0.19-0.013l0.189-0.014l0.194-0.013l0.192-0.013l0.194-0.014l0.196-0.012l0.185-0.013l0.197-0.013l0.192-0.011l0.192-0.012
			l0.196-0.013l0.194-0.011l0.195-0.011l0.197-0.011l0.188-0.013l0.199-0.011l0.388-0.021l0.196-0.013l0.196-0.011l0.198-0.01
			l0.199-0.01l0.19-0.011l0.2-0.01l0.196-0.01l0.196-0.011l0.198-0.009l0.196-0.01l0.2-0.011l0.202-0.009l0.193-0.009l0.201-0.01
			l0.198-0.009l0.197-0.009l0.198-0.01l0.198-0.009l0.203-0.01l0.204-0.007l0.196-0.008l0.203-0.01l0.2-0.008l0.2-0.009l0.203-0.006
			l0.201-0.009l0.203-0.008l0.202-0.007l0.196-0.008l0.206-0.007l0.201-0.006l0.201-0.007l0.202-0.006l0.203-0.007l0.208-0.006
			l0.203-0.008l0.199-0.007l0.208-0.005l0.203-0.006l0.202-0.005l0.207-0.008l0.204-0.006l0.205-0.005l0.205-0.005l0.201-0.005
			l0.209-0.006l0.204-0.005l0.204-0.004l0.207-0.006l0.206-0.005l0.209-0.004l0.213-0.004l0.198-0.005l0.208-0.005l0.207-0.002
			l0.206-0.004l0.208-0.005l0.208-0.004l0.208-0.002l0.222-0.004h0.002l0.19-0.004l0.21-0.002l0.209-0.003l0.207-0.002l0.209-0.004
			l0.209-0.003l0.21-0.003l0.212-0.001l0.205-0.001l0.21-0.003l0.21-0.002l0.208-0.001l0.211-0.003l0.214-0.001l0.419-0.002
			l0.209-0.002l0.211-0.001h0.213h0.21l0.212-0.001h1.272l0.212,0.001h0.21l0.425,0.001l0.207,0.002l0.21,0.001l0.211,0.001
			l0.214,0.001l0.211,0.003l0.208,0.001l0.421,0.005l0.204,0.001l0.212,0.001l0.421,0.006l0.21,0.002l0.208,0.004l0.207,0.003
			l0.21,0.002l0.189,0.004h0.002l0.221,0.004l0.418,0.006l0.207,0.003l0.206,0.004l0.417,0.007l0.201,0.006l0.209,0.004l0.414,0.009
			l0.412,0.01l0.413,0.011l0.2,0.005l0.205,0.005l0.205,0.005l0.205,0.006l0.206,0.008l0.203,0.005l0.41,0.011l0.198,0.007
			l0.206,0.008l0.206,0.006l0.201,0.007l0.203,0.006l0.201,0.007l0.407,0.014l0.198,0.008l0.201,0.007l0.201,0.008l0.202,0.009
			l0.202,0.006l0.2,0.009l0.403,0.018l0.197,0.008l0.198,0.007l0.204,0.01l0.2,0.009l0.198,0.01l0.199,0.009l0.197,0.009l0.201,0.01
			l0.195,0.009l0.199,0.009l0.2,0.011l0.196,0.01l0.197,0.009l0.197,0.011l0.396,0.02l0.191,0.011l0.196,0.01l0.396,0.021
			l0.391,0.023l0.193,0.011l0.197,0.011l0.191,0.013l0.195,0.011l0.195,0.011l0.193,0.011l0.389,0.025l0.388,0.024l0.188,0.013
			l0.193,0.012l0.387,0.026l0.383,0.026l0.19,0.013l0.193,0.014l0.184,0.013l0.195,0.014l0.19,0.014l0.19,0.015l0.189,0.014
			l0.188,0.014l0.38,0.029l0.177,0.014l0.197,0.014l0.187,0.015l0.191,0.014l0.189,0.016l0.186,0.015l0.188,0.015l0.187,0.015
			l0.242,0.019l0.311,0.026l0.19,0.016l0.184,0.017l0.185,0.015l0.188,0.017l0.186,0.015l0.171,0.016l0.192,0.016l0.183,0.017
			l0.188,0.018l0.184,0.017l0.182,0.017l0.186,0.018l0.182,0.016l0.165,0.016l0.192,0.018l0.366,0.035l0.181,0.019l0.18,0.016
			l0.186,0.019l0.179,0.018l0.163,0.017l0.191,0.019l0.18,0.018l0.18,0.019l0.178,0.019l0.181,0.019l0.179,0.019l0.177,0.019
			l0.168,0.019l0.183,0.02l0.18,0.018l0.175,0.02l0.35,0.039l0.174,0.019l0.18,0.02l0.169,0.02l0.179,0.019l0.179,0.021l0.173,0.02
			l0.345,0.041l0.349,0.04l0.166,0.021l0.174,0.02l0.173,0.021l0.172,0.02l0.172,0.021l0.169,0.022l0.171,0.02l0.172,0.022
			l0.151,0.019l0.184,0.022l0.169,0.021l0.172,0.023l0.171,0.022l0.167,0.023l0.168,0.021l0.167,0.022l0.03,0.005l0,0l0.301,0.04
			l0.165,0.023l0.168,0.021l0.163,0.024l0.169,0.023l0.168,0.022l0.162,0.024l0.146,0.02l0.181,0.026l0.164,0.022l0.165,0.025
			l0.161,0.023l0.164,0.022l0.163,0.025l0.163,0.024l0.152,0.024l0.167,0.024l0.163,0.025l0.159,0.024l0.161,0.024l0.159,0.025
			l0.158,0.024l0.164,0.025l0.151,0.025l0.161,0.025l0.159,0.025l0.159,0.025l0.157,0.025l0.157,0.025l0.157,0.025l0.157,0.026
			l0.135,0.021l0.173,0.029l0.312,0.053l0.153,0.025l0.154,0.025l0.159,0.029l0.153,0.026l0.131,0.021l0.169,0.029l0.154,0.029
			l0.153,0.026l0.149,0.026l0.152,0.026l0.152,0.028l0.15,0.027l0.141,0.025l0.155,0.027l0.152,0.029l0.148,0.026l0.149,0.027
			l0.146,0.029l0.147,0.026l0.15,0.029l0.136,0.025l0.156,0.03l0.145,0.028l0.147,0.027l0.146,0.029l0.144,0.029l0.148,0.029
			l0.143,0.029l0.285,0.057l0.286,0.058l0.141,0.029l0.146,0.029l0.143,0.03l0.141,0.028l0.128,0.026l0.148,0.032l0.283,0.06
			l0.278,0.059l0.137,0.03l0.142,0.03l0.129,0.029l0.142,0.031l0.138,0.031l0.138,0.03l0.138,0.032l0.134,0.03l0.136,0.031
			l0.133,0.03l0.133,0.03l0.134,0.031l0.133,0.03l0.137,0.033l0.132,0.031l0.134,0.031l0.135,0.031l0.132,0.032l0.115,0.029
			l0.136,0.032l0.136,0.033l0.129,0.031l0.258,0.065l0.128,0.031l0.135,0.033l0.116,0.03l0.132,0.034l0.126,0.033l0.127,0.033
			l0.13,0.033l0.126,0.034l0.251,0.066l0.098,0.026l0.143,0.036l0.126,0.034l0.125,0.034l0.121,0.034l0.123,0.034l0.123,0.033
			l0.123,0.035l0.107,0.03l0.127,0.035l0.124,0.035l0.119,0.034l0.237,0.068l0.117,0.035l0.119,0.035l0.09,0.026l0.14,0.04
			l0.114,0.034l0.121,0.036l0.114,0.034l0.116,0.035l0.119,0.036l0.113,0.035l0.097,0.03l0.124,0.039l0.117,0.036l0.111,0.035
			l0.11,0.034l0.114,0.038l0.11,0.035l0.113,0.037l0.101,0.034l0.111,0.037l0.108,0.035l0.113,0.038l0.11,0.037l0.106,0.036
			l0.112,0.038l0.105,0.038l0.074,0.025l0.133,0.045l0.108,0.038l0.106,0.038l0.103,0.036l0.106,0.037l0.103,0.038l0.106,0.038
			l0.091,0.034l0.107,0.037l0.102,0.039l0.104,0.036l0.103,0.041l0.099,0.036l0.205,0.078l0.066,0.025l0.124,0.048l0.101,0.039
			l0.1,0.041l0.096,0.038l0.102,0.04l0.096,0.04l0.094,0.036l0.085,0.035l0.105,0.042l0.093,0.039l0.094,0.039l0.1,0.042
			l0.092,0.039l0.095,0.04l0.092,0.04l0.057,0.025l0.118,0.05l0.186,0.083l0.088,0.039l0.095,0.043l0.089,0.04l0.09,0.041
			l0.076,0.035l0.091,0.042l0.087,0.041l0.091,0.041l0.088,0.042l0.085,0.04l0.092,0.045l0.081,0.04l0.03,0.015l0.13,0.064
			l0.086,0.044l0.093,0.045l0.08,0.042l0.079,0.04l0.082,0.042l0.086,0.045l0.068,0.038l0.084,0.044l0.079,0.043l0.082,0.043
			l0.081,0.044l0.079,0.044l0.085,0.048l0.074,0.042l0.04,0.023l0.107,0.061l0.081,0.046l0.078,0.046l0.071,0.043l0.071,0.041
			l0.074,0.045l0.085,0.051l0.059,0.038l0.07,0.042l0.072,0.046l0.085,0.053l0.071,0.046l0.069,0.044l0.077,0.051l0.068,0.045
			l0.052,0.034l0.077,0.052l0.08,0.055l0.071,0.049l0.068,0.047l0.063,0.045l0.064,0.046l0.075,0.055l0.047,0.034l0.072,0.054
			l0.065,0.05l0.074,0.054l0.064,0.05l0.066,0.051l0.062,0.05l0.062,0.048l0.052,0.043l0.073,0.06l0.069,0.058l0.063,0.052
			l0.058,0.05l0.059,0.05l0.066,0.06l0.061,0.053l0.035,0.031l0.076,0.07l0.062,0.058l0.059,0.055l0.11,0.106l0.061,0.059
			l0.071,0.07l0.036,0.039l0.061,0.061l0.061,0.063l0.063,0.066l0.054,0.061l0.053,0.055l0.062,0.07l0.053,0.061l0.028,0.035
			l0.063,0.071l0.062,0.076l0.053,0.065l0.048,0.059l0.048,0.061l0.055,0.072l0.051,0.066l0.046,0.062l0.046,0.064l0.053,0.073
			l0.061,0.087l0.043,0.066l0.045,0.063l0.046,0.074l0.052,0.082l0.03,0.05l0.046,0.075l0.044,0.074l0.058,0.1l0.043,0.079
			l0.035,0.063l0.048,0.095l0.044,0.085l0.02,0.04l0.05,0.101l0.047,0.103l0.043,0.095l0.038,0.09l0.037,0.091l0.035,0.09
			l0.031,0.08l0.028,0.075l0.033,0.093l0.033,0.098l0.035,0.105l0.054,0.181l0.03,0.107l0.025,0.095l0.023,0.091l0.022,0.09
			l0.025,0.113l0.025,0.122l0.017,0.093l0.019,0.104l0.018,0.117l0.016,0.102l0.012,0.093l0.011,0.093l0.012,0.121l0.011,0.12
			l0.006,0.095l0.007,0.118l0.004,0.125l0.003,0.105v0.118l-0.001,0.082v0.01v0.003l-0.002,0.08l-0.002,0.062l-0.003,0.068
			l-0.006,0.109l-0.004,0.053l-0.002,0.024l-0.001,0.022v15.926l0.012,0.093v0.042l-0.014-0.125l0.01,0.155l0.005,0.09l0.003,0.096
			l0.001,0.015l0.003,0.065v0.04v0.008l0.001,0.085v0.115l-0.003,0.108l-0.003,0.121l-0.008,0.122l-0.006,0.093l-0.011,0.12
			l-0.012,0.118l-0.011,0.096l-0.014,0.107l-0.016,0.105l-0.016,0.1l-0.018,0.093l-0.018,0.098l-0.024,0.126l-0.024,0.104
			l-0.023,0.101l-0.025,0.098l-0.023,0.088l-0.026,0.098l-0.026,0.088l-0.031,0.105l-0.035,0.105l-0.033,0.099l-0.738,2.017h-0.253
			l-0.342,0.664l-1.987,2.171l-2.165,1.601l-15.946,102.715l-0.503,2.038l-1.268,2.022l-1.638,1.528l-1.91,1.228l-2.192,1.048
			l-2.479,0.922l-2.754,0.814l-3.012,0.725l-3.246,0.632l-3.453,0.546l-3.634,0.463l-3.784,0.377l-3.905,0.296l-3.997,0.211
			l-4.059,0.13l-4.089,0.046l-4.088-0.037l-4.058-0.121l-3.997-0.203l-3.906-0.286l-3.784-0.372l-3.634-0.455l-3.454-0.541
			l-3.247-0.63l-3.012-0.724l-2.756-0.817l-2.48-0.925l-2.196-1.052l-1.913-1.238l-1.64-1.547l-1.294-2.09l-0.437-2.058
			L12.146,268.864l-2.157-1.589l-1.986-2.157l-0.342-0.662H7.372l-0.716-2.042l-0.031-0.093l-0.056-0.173l-0.031-0.107l-0.023-0.083
			l-0.052-0.195l-0.028-0.126l-0.019-0.085l-0.021-0.103l-0.022-0.118l-0.017-0.105l-0.015-0.091l-0.029-0.205l-0.014-0.126
			l-0.011-0.107l-0.008-0.105l-0.007-0.105l-0.005-0.109l-0.004-0.093l-0.002-0.11l-0.001-0.113l0.001-0.112l0-0.008v-0.045
			l0.001-0.023v0.035l0.002-0.093l0.003-0.091l0.005-0.09l0.005-0.083l0.002-0.035v-15.973l-0.002-0.016l-0.006-0.09l-0.005-0.103
			l-0.002-0.068l-0.003-0.062l-0.001-0.08v-0.003l0-0.01l-0.001-0.11l0.001-0.115l0.002-0.107l0.004-0.096l0.005-0.107l0.007-0.107
			l0.009-0.108l0.011-0.105l0.014-0.131l0.017-0.12l0.012-0.078l0.015-0.093l0.017-0.103l0.02-0.105l0.022-0.109l0.022-0.101
			l0.027-0.115l0.029-0.113l0.022-0.082l0.024-0.088l0.031-0.105l0.055-0.17l0.033-0.098l0.04-0.118l0.065-0.165l0.066-0.166
			l0.044-0.1l0.034-0.076l0.04-0.088l0.051-0.106l0.043-0.085l0.029-0.058l0.045-0.087l0.047-0.086l0.04-0.071l0.045-0.078
			l0.044-0.076l0.044-0.074l0.046-0.074l0.048-0.076l0.043-0.069l0.04-0.059l0.052-0.078l0.055-0.079l0.045-0.063l0.054-0.076
			l0.099-0.129l0.049-0.064l0.051-0.066l0.053-0.063l0.048-0.061l0.058-0.068l0.059-0.07l0.05-0.058l0.043-0.051l0.059-0.066
			l0.054-0.059l0.052-0.058l0.056-0.059l0.056-0.06l0.062-0.064l0.061-0.062l0.059-0.059l0.055-0.053l0.058-0.057l0.111-0.105
			l0.061-0.057l0.062-0.056l0.114-0.102l0.063-0.057l0.061-0.051l0.066-0.057l0.057-0.047l0.061-0.053l0.068-0.054l0.066-0.054
			l0.059-0.046l0.062-0.05l0.068-0.051l0.066-0.052l0.071-0.052l0.125-0.094l0.07-0.051l0.067-0.049l0.13-0.092l0.067-0.047
			l0.064-0.044l0.077-0.055l0.074-0.047l0.069-0.046l0.064-0.043l0.075-0.05l0.073-0.046l0.071-0.046l0.079-0.05l0.195-0.12
			l0.021-0.014l0.075-0.045l0.142-0.084l0.076-0.045l0.078-0.045l0.077-0.045l0.078-0.045l0.15-0.084l0.083-0.046l0.077-0.042
			l0.083-0.045l0.082-0.043l0.077-0.042l0.102-0.055l0.061-0.031l0.079-0.042l0.078-0.04l0.082-0.041l0.083-0.044l0.087-0.044
			l0.085-0.043l0.085-0.042l0.165-0.08l0.089-0.044l0.083-0.04l0.09-0.043l0.088-0.04l0.087-0.041l0.102-0.046l0.069-0.033
			l0.09-0.04l0.086-0.04l0.092-0.042l0.09-0.04l0.092-0.041l0.088-0.039l0.091-0.039l0.182-0.079l0.094-0.04l0.093-0.039
			l0.101-0.043l0.092-0.038l0.091-0.038l0.116-0.048l0.076-0.032l0.096-0.038l0.095-0.038l0.098-0.039l0.097-0.039l0.1-0.039
			l0.195-0.077l0.197-0.075l0.104-0.039l0.099-0.036l0.103-0.041l0.102-0.036l0.102-0.039l0.113-0.04l0.087-0.032l0.105-0.037
			l0.101-0.038l0.107-0.037l0.104-0.036l0.106-0.038l0.107-0.038l0.106-0.037l0.208-0.071l0.111-0.038l0.107-0.036l0.111-0.037
			l0.113-0.038l0.108-0.035l0.116-0.038l0.095-0.033l0.119-0.038l0.219-0.07l0.221-0.07l0.114-0.036l0.113-0.034l0.115-0.037
			l0.112-0.034l0.118-0.036l0.116-0.035l0.116-0.034l0.119-0.036l0.115-0.034l0.114-0.034l0.117-0.034l0.117-0.034l0.116-0.034
			l0.118-0.034l0.122-0.035l0.117-0.034l0.122-0.034l0.136-0.039l0.105-0.029l0.12-0.034l0.123-0.033l0.123-0.034l0.122-0.034
			l0.123-0.034l0.125-0.034l0.124-0.031l0.244-0.065l0.125-0.033l0.124-0.034l0.131-0.033l0.126-0.033l0.125-0.033l0.137-0.035
			l0.113-0.029l0.135-0.033l0.255-0.064l0.131-0.033l0.127-0.031l0.135-0.033l0.141-0.034l0.113-0.027l0.131-0.032l0.135-0.031
			l0.133-0.031l0.132-0.031l0.136-0.033l0.492-0.114h0.002l0.038-0.008l0.136-0.031l0.134-0.03l0.137-0.032l0.137-0.03l0.138-0.031
			l0.144-0.031l0.126-0.029l0.142-0.03l0.137-0.03l0.14-0.03l0.276-0.058l0.144-0.031l0.155-0.032l0.123-0.026l0.141-0.028
			l0.142-0.03l0.146-0.029l0.142-0.029l0.144-0.029l0.483-0.097h0.001l0.086-0.018l0.145-0.027l0.145-0.03l0.149-0.029l0.148-0.029
			l0.144-0.027l0.161-0.03l0.13-0.024l0.149-0.029l0.146-0.026l0.147-0.029l0.151-0.027l0.147-0.026l0.151-0.029l0.158-0.027
			l0.141-0.025l0.149-0.027l0.149-0.028l0.154-0.026l0.15-0.026l0.153-0.026l0.153-0.028l0.214-0.036l0.091-0.017l0.151-0.025
			l0.156-0.027l0.153-0.026l0.154-0.025l0.16-0.026l0.473-0.078h0.001l0.145-0.024l0.155-0.026l0.155-0.024l0.161-0.026l0.158-0.025
			l0.158-0.025l0.164-0.025l0.151-0.025l0.164-0.025l0.316-0.049l0.162-0.024l0.159-0.024l0.165-0.025l0.166-0.024l0.151-0.024
			l0.163-0.024l0.163-0.023l0.327-0.046l0.163-0.025l0.165-0.022l0.244-0.035l0.085-0.011l0.163-0.024l0.168-0.022l0.167-0.023
			l0.165-0.024l0.167-0.021l0.165-0.023l0.301-0.04h0.001l0.196-0.027l0.168-0.021l0.167-0.023l0.171-0.022l0.171-0.023l0.168-0.02
			l0.234-0.03l0.105-0.014l0.17-0.021l0.171-0.02l0.342-0.044l0.171-0.02l0.171-0.021l0.183-0.021l0.16-0.02l0.176-0.021
			l0.172-0.019l0.172-0.021l0.172-0.02l0.172-0.02l0.179-0.021l0.185-0.02l0.163-0.019l0.177-0.02l0.174-0.019l0.176-0.02
			l0.175-0.019l0.175-0.02l0.182-0.019l0.186-0.019l0.163-0.019l0.177-0.019l0.179-0.019l0.181-0.019l0.177-0.019l0.179-0.019
			l0.18-0.018l0.28-0.028h0.001l0.076-0.008l0.178-0.018l0.183-0.019l0.181-0.016l0.18-0.018l0.183-0.019l0.458-0.042h0.001
			l0.265-0.025l0.186-0.018l0.181-0.017l0.184-0.017L48.107,227.141L48.107,227.141z"/>
		<g>
			<path d="M26.295,243.445c-1.287,0.36-2.571,0.74-3.831,1.163c-0.64,0.203-1.247,0.438-1.882,0.671l-0.915,0.381
				c-0.279,0.112-0.598,0.277-0.895,0.414l-0.149-0.713c9.257-0.25,18.513-0.411,27.77-0.482c9.256-0.067,18.513-0.077,27.769,0.17
				l13.886,0.286c4.628,0.064,9.256,0.11,13.885,0.086c9.256-0.021,18.513-0.19,27.77-0.378l-0.276,1.323l-0.723-0.298l-0.767-0.275
				c-0.453-0.172-1.02-0.325-1.522-0.494l-1.523-0.433l-1.562-0.394c-2.087-0.501-4.237-0.907-6.349-1.25
				c-4.253-0.701-8.554-1.232-12.861-1.625c-8.635-0.787-17.281-1.128-25.957-1.296c-8.675-0.118-17.336-0.083-26,0.41
				c-4.34,0.212-8.654,0.502-12.975,0.948C34.874,242.085,30.567,242.647,26.295,243.445z M26.25,243.25
				c8.435-2.193,17.139-3.27,25.807-4.051c8.684-0.692,17.42-1.06,26.131-0.986c8.71,0.043,17.45,0.499,26.12,1.433
				c4.343,0.469,8.674,1.035,12.981,1.853c2.17,0.411,4.283,0.866,6.411,1.433l1.589,0.443l1.601,0.499
				c0.523,0.19,1.001,0.34,1.56,0.569l0.756,0.305l0.772,0.353l0.023,0.011c0.346,0.157,0.498,0.565,0.34,0.91
				c-0.117,0.258-0.373,0.407-0.639,0.402c-9.257-0.188-18.514-0.356-27.77-0.378c-4.629-0.024-9.257,0.021-13.885,0.086
				l-13.886,0.286c-9.256,0.247-18.513,0.237-27.769,0.17c-9.257-0.071-18.513-0.232-27.77-0.482l-0.026-0.001
				c-0.203-0.006-0.364-0.175-0.358-0.378c0.004-0.153,0.101-0.281,0.235-0.334c0.319-0.123,0.602-0.252,0.95-0.37l0.961-0.333
				c0.634-0.189,1.289-0.398,1.936-0.56C23.62,243.768,24.936,243.515,26.25,243.25z"/>
			<path d="M48.098,227.042l1.928-0.199c0.002,0,0.009,0,0.011,0h0.001l-0.01,0l1.491-0.144h0.006h0.006h0.001h-0.011
				c9.331-0.847,18.706-1.221,28.08-1.139c9.376,0.094,18.763,0.571,28.085,1.66c4.689,0.57,9.315,1.288,13.926,2.27
				c2.304,0.498,4.612,1.062,6.869,1.737c1.159,0.347,2.235,0.701,3.397,1.128c1.087,0.402,2.214,0.863,3.299,1.387
				c2.126,1.043,4.341,2.368,5.864,4.456c0.779,1.078,1.284,2.276,1.493,3.594c0.053,0.328,0.08,0.651,0.092,0.977
				c0.007,0.131,0.005,0.361,0.001,0.494l-0.012,0.258l-0.005,0.062c-0.001,0.017,0.003-0.049,0.001-0.008
				c-0.001,0.018,0.001-0.055,0-0.012l0.001,0.11l0.006,1.755l-0.034,14.041l-0.007-0.108l0.011,0.093
				c0.005,0.033,0.007,0.076,0.007,0.108v0.042c0.002,0.477-0.384,0.863-0.859,0.864c-0.443,0.002-0.811-0.341-0.86-0.771
				l-0.014-0.125l1.718-0.147c0.015,0.214,0.024,0.481,0.022,0.697c-0.003,0.233-0.018,0.524-0.042,0.728l-0.044,0.361l-0.059,0.344
				l-0.04,0.201l-0.037,0.155l-0.089,0.341c-0.148,0.508-0.307,0.878-0.451,1.286l-0.446,1.208
				c-0.124,0.343-0.452,0.555-0.796,0.557l-0.253-0.001l0.753-0.459l-0.344,0.663c-0.033,0.065-0.081,0.132-0.128,0.184
				l-1.993,2.165c-0.035,0.039-0.08,0.078-0.12,0.108l-2.169,1.595l0.326-0.54l-8.406,51.29l-4.074,25.665l-3.917,25.69
				l-0.007,0.032l-0.491,2.041c-0.009,0.039-0.024,0.074-0.044,0.107l-0.004,0.006l-1.252,2.031
				c-0.018,0.028-0.038,0.054-0.062,0.075l-0.005,0.006l-1.627,1.54c-0.017,0.016-0.034,0.029-0.052,0.042l-0.008,0.004l-1.9,1.242
				l-0.04,0.022l-0.008,0.004l-2.185,1.064l-0.003,0.002l-0.035,0.014c-2.978,1.254-6.225,2.084-9.405,2.767
				c-3.203,0.694-6.409,1.128-9.665,1.54c-6.477,0.736-12.966,1.091-19.506,1.157c-6.513,0.036-13.029-0.212-19.521-0.852
				c-1.67-0.188-3.213-0.349-4.883-0.593l-2.407-0.366c-0.865-0.146-1.613-0.302-2.425-0.452l-1.234-0.241l-1.185-0.28l-1.185-0.281
				l-0.639-0.154l-0.584-0.172l-1.168-0.342l-0.584-0.172l-0.292-0.085l-0.073-0.021l-0.132-0.046l-0.143-0.053l-2.284-0.844
				l-0.071-0.029l-0.007-0.004l-2.199-1.045c-0.034-0.016-0.066-0.033-0.097-0.053l-0.009-0.006l-1.916-1.232
				c-0.046-0.03-0.089-0.064-0.129-0.1l-0.008-0.008l-1.645-1.542c-0.06-0.056-0.111-0.118-0.153-0.185l-0.005-0.01l-1.301-2.085
				c-0.059-0.096-0.1-0.197-0.122-0.301l-0.002-0.01l-0.349-1.619l-0.087-0.405l-0.077-0.462l-0.129-0.817l-0.518-3.272
				l-1.037-6.544l-2.074-13.088l-4.041-26.191l-4.033-26.192l-3.917-26.211l0.335,0.554l-2.148-1.602l-0.008-0.006
				c-0.04-0.029-0.079-0.065-0.111-0.101l-1.974-2.168l-0.006-0.007c-0.047-0.053-0.088-0.112-0.119-0.172l-0.338-0.664l0.722,0.44
				l-0.289-0.002H7.361c-0.35-0.002-0.647-0.229-0.754-0.542l-0.775-2.267c-0.135-0.443-0.225-0.842-0.285-1.291
				c-0.06-0.433-0.082-0.889-0.07-1.311v-0.01c0.012-0.433,0.373-0.773,0.806-0.762c0.427,0.012,0.764,0.363,0.762,0.788v0.035
				l-1.567-0.021c0.044-1.321,0.026-2.716,0.042-4.07l0.031-4.091l0.076-8.183l0.003,0.061c-0.076-1.183,0.098-2.289,0.517-3.378
				c0.415-1.061,1.038-1.993,1.827-2.825c1.532-1.594,3.482-2.69,5.388-3.568c1.953-0.891,3.959-1.586,5.972-2.187
				c2.03-0.607,4.083-1.108,6.138-1.548l0.012-0.002c0.026-0.005,0.054-0.008,0.08-0.008h0.002l-0.082,0.008l1.653-0.34l1.662-0.317
				l0.008-0.002c0.02-0.004,0.043-0.005,0.063-0.005h0.001l-0.072,0.007c1.588-0.292,3.192-0.557,4.785-0.794l0.008-0.001
				l0.04-0.002h0.001l-0.048,0.004c1.719-0.261,3.428-0.486,5.152-0.692l0.006-0.001l0.024-0.001h0.001l-0.031,0.002
				c2.302-0.275,4.61-0.513,6.917-0.711l0.013-0.001h0.001l-0.014,0.001l1.442-0.121l0.011-0.001h0.001l-0.011,0.001L48.098,227.042
				z M48.117,227.241l-1.001,0.107l-0.011,0.001h-0.001l0.01,0l-1.434,0.159l-0.015,0.001h-0.001l0.013-0.001
				c-2.301,0.26-4.593,0.559-6.881,0.895c-0.008,0.001-0.023,0.002-0.031,0.002h-0.001l0.03-0.002
				c-1.706,0.25-3.421,0.523-5.116,0.828l-0.039,0.004H33.63h-0.001l0.048-0.004c-1.59,0.28-3.161,0.584-4.736,0.917
				c-0.021,0.004-0.042,0.007-0.063,0.007h-0.009h-0.001l0.071-0.007l-1.646,0.36l-1.645,0.384
				c-0.022,0.005-0.044,0.008-0.066,0.009h-0.016h-0.002l0.091-0.01c-2.035,0.496-4.048,1.043-6.03,1.668
				c-1.995,0.636-3.95,1.358-5.8,2.244c-1.872,0.908-3.629,1.952-4.991,3.423c-1.327,1.406-2.087,3.387-1.902,5.257l0.003,0.051
				v0.011l0.076,8.183l0.031,4.091c-0.001,1.373,0.035,2.707,0.005,4.111c-0.009,0.433-0.368,0.776-0.8,0.767
				c-0.425-0.009-0.764-0.355-0.767-0.777v-0.01v-0.035l1.567,0.018c-0.004,0.368,0.016,0.706,0.068,1.057
				c0.047,0.334,0.136,0.711,0.237,1.022l0.788,2.218l-0.765-0.542l0.289-0.002c0.311-0.002,0.582,0.173,0.717,0.431l0.005,0.009
				l0.345,0.66l-0.124-0.178l1.998,2.146l-0.119-0.106l2.166,1.576c0.185,0.136,0.299,0.332,0.333,0.542l0.002,0.012l4.214,26.164
				l4.098,26.183l4.091,26.184l1.991,13.101l0.996,6.55l0.498,3.275l0.125,0.818l0.054,0.356l0.085,0.405l0.338,1.621l-0.125-0.31
				l1.287,2.094l-0.158-0.193l1.635,1.552l-0.137-0.107l1.909,1.244l-0.106-0.059l2.192,1.059l-0.078-0.033l2.279,0.857l0.142,0.054
				l0.036,0.014l0.018,0.007c-0.116-0.039-0.022-0.008-0.043-0.015l0.073,0.021l0.292,0.088l0.583,0.175l1.166,0.35l0.583,0.175
				l0.544,0.134l1.183,0.288l1.183,0.288l1.154,0.231l2.358,0.457l2.403,0.388c1.538,0.249,3.223,0.449,4.775,0.646
				c6.422,0.724,12.895,1.059,19.365,1.111c6.443,0.024,12.941-0.239,19.376-0.883c3.188-0.358,6.429-0.754,9.582-1.391
				c3.168-0.638,6.257-1.363,9.29-2.585l-0.037,0.016l2.2-1.032l-0.048,0.026l1.919-1.213l-0.059,0.046l1.648-1.517l-0.066,0.08
				l1.283-2.013l-0.048,0.112l0.515-2.035l-0.007,0.031l4.056-25.668l3.899-25.691l7.54-51.425c0.032-0.222,0.151-0.409,0.317-0.533
				l0.009-0.007l2.161-1.606l-0.12,0.107l1.981-2.176l-0.128,0.184l0.34-0.665c0.148-0.29,0.448-0.458,0.753-0.459l0.253-0.001
				l-0.796,0.556l0.439-1.211c0.142-0.401,0.311-0.827,0.398-1.145l0.073-0.283l0.037-0.157l0.021-0.115l0.049-0.292l0.033-0.278
				c0.022-0.224,0.026-0.362,0.029-0.559c0-0.213-0.008-0.375-0.022-0.589c-0.033-0.476,0.324-0.888,0.8-0.921
				c0.462-0.032,0.864,0.307,0.916,0.762l0.002,0.011l0.014,0.125l-1.72,0.094v-0.042l0.007,0.108l-0.013-0.093
				c-0.004-0.033-0.006-0.076-0.007-0.108l-0.034-14.041l0.006-1.755l0.001-0.11l0.005-0.128l0.004-0.047l0.009-0.182
				c0.005-0.159,0.008-0.221,0.002-0.383c-0.006-0.259-0.028-0.52-0.066-0.77c-0.143-0.997-0.566-2.019-1.159-2.836
				c-0.618-0.872-1.401-1.589-2.308-2.25c-0.438-0.317-0.914-0.624-1.391-0.901c-0.275-0.16-0.456-0.262-0.758-0.422
				c-0.214-0.117-0.475-0.249-0.743-0.381c-4.131-1.983-8.617-3.18-13.147-4.209c-4.539-1.001-9.167-1.75-13.766-2.342
				c-9.259-1.216-18.586-1.867-27.926-2.113c-9.343-0.242-18.704-0.15-28.042,0.417h-0.011h-0.001h0.012l-1.495,0.091l-0.01,0.001
				h-0.001l0.011-0.001L48.117,227.241z"/>
		</g>
	</g>
	<path style="fill-rule:evenodd;clip-rule:evenodd;fill:#17A7D9;" d="M11.742,249.09h124.514l-18.891,121.68h-0.043
		c-0.24,13.914-86.447,14.107-86.688,0h-0.002L11.742,249.09L11.742,249.09z"/>
	<path style="fill-rule:evenodd;clip-rule:evenodd;fill:#45BEE6;" d="M54.213,380.25c-6.604-0.742-12.429-1.89-16.637-3.445
		L23.273,260.311l22.372,1.458L54.213,380.25L54.213,380.25z"/>
	<path style="fill-rule:evenodd;clip-rule:evenodd;fill:#0089AA;" d="M139.104,259.715l0.008,0.078l0.001,0.005l0,0v0.01h0.001
		l0.001,0.02v0.005l0.001,0.007l0,0l0.001,0.008v0.003v0.005l0,0l0.001,0.01v0.003l0.002,0.02v0.005l0.001,0.03v0.003v0.005v0.005
		l0.001,0.008v0.002v0.005l0.001,0.008v0.005l0,0v0.02l0.001,0.005v0.008v0.005v0.002v0.003l0.001,0.02v0.005v0.006v0.007v0.005
		v0.006l0,0l0,0c0,0.117-0.007,0.235-0.022,0.351l0,0c-0.015,0.117-0.035,0.235-0.063,0.351l0,0
		c-0.028,0.115-0.063,0.23-0.105,0.346l0,0c-6.337,19.553-123.534,19.436-129.871,0l0,0c-0.042-0.115-0.077-0.23-0.106-0.346l0,0
		c-0.028-0.115-0.049-0.233-0.063-0.351l0,0c-0.015-0.115-0.021-0.233-0.021-0.351v-0.006v-0.005v-0.007v-0.006v-0.005v-0.02
		l0-0.003v-0.002v-0.005v-0.008l0.001-0.005l0-0.02l0,0v-0.005l0.001-0.008v-0.005v-0.002l0.001-0.008v-0.005v-0.005v-0.003
		l0.002-0.03v-0.005l0.002-0.02v-0.003l0.001-0.01l0,0v-0.005l0-0.003l0-0.008l0,0l0.001-0.007l0-0.005l0.002-0.02h0l0-0.01l0,0
		v-0.005l0.008-0.078v-0.002v-16.359l0,0v-0.003v-0.003l0-0.005l-0.001-0.005l-0.001-0.008l0,0l-0.002-0.015l0-0.005l0,0
		l-0.004-0.038v-0.007l0-0.005l0-0.006v-0.002l-0.001-0.008l0,0v-0.005l-0.001-0.005l0-0.005l0,0l-0.001-0.008v-0.005l-0.001-0.008
		l0,0l-0.002-0.032v-0.008l-0.002-0.03v-0.002v-0.005v-0.005l-0.001-0.008v-0.003v-0.005l-0.001-0.005v-0.005V243.1l0-0.015v-0.005
		v-0.003l-0.001-0.002v-0.005v-0.008v-0.005h0v-0.02v-0.005v-0.008v-0.005v-0.005v-0.008c0-0.115,0.006-0.232,0.021-0.348l0,0
		c0.014-0.118,0.035-0.235,0.063-0.352l0,0c0.028-0.115,0.063-0.23,0.106-0.346l0,0c0.042-0.115,0.09-0.23,0.146-0.346h0
		c0.055-0.115,0.118-0.228,0.187-0.341l0,0c0.069-0.112,0.145-0.227,0.227-0.341h0c0.083-0.112,0.172-0.226,0.267-0.336l0,0
		c0.096-0.112,0.197-0.223,0.306-0.336l0,0c0.108-0.109,0.224-0.22,0.345-0.33h0c0.121-0.108,0.249-0.219,0.382-0.328l0,0
		c0.134-0.108,0.274-0.217,0.42-0.324h0.001c0.146-0.107,0.298-0.216,0.457-0.322h0c0.159-0.105,0.323-0.212,0.494-0.317h0
		c0.17-0.105,0.347-0.21,0.529-0.315h0.001c0.182-0.104,0.371-0.207,0.566-0.311l0,0c0.194-0.102,0.394-0.205,0.6-0.309h0
		c0.206-0.102,0.418-0.201,0.635-0.302l0,0c0.218-0.102,0.44-0.201,0.669-0.301h0c0.229-0.1,0.462-0.198,0.703-0.294l0,0
		c0.24-0.099,0.485-0.195,0.736-0.293l0,0c0.251-0.095,0.507-0.192,0.768-0.287h0c0.262-0.094,0.528-0.189,0.799-0.283h0
		c0.272-0.093,0.549-0.186,0.831-0.278h0c0.282-0.092,0.569-0.184,0.862-0.275h0c0.292-0.09,0.59-0.181,0.893-0.27h0.001
		c0.302-0.087,0.61-0.177,0.923-0.264l0,0c0.313-0.086,0.63-0.173,0.952-0.258h0c0.322-0.086,0.648-0.171,0.98-0.255l0,0
		c0.332-0.085,0.668-0.167,1.01-0.249l0,0c0.341-0.083,0.686-0.166,1.037-0.245h0c0.351-0.081,0.705-0.161,1.064-0.239h0.001
		c0.359-0.08,0.723-0.158,1.091-0.235l0,0c0.369-0.075,0.742-0.152,1.119-0.227l0,0c0.377-0.075,0.758-0.15,1.144-0.223h0
		c0.385-0.073,0.775-0.145,1.168-0.217h0.001c0.395-0.072,0.791-0.142,1.194-0.212l0,0c0.402-0.069,0.809-0.137,1.219-0.206l0,0
		c0.41-0.066,0.824-0.133,1.242-0.199l0,0c0.418-0.065,0.84-0.129,1.265-0.193h0c0.425-0.062,0.855-0.125,1.288-0.186h0
		c0.433-0.062,0.87-0.122,1.31-0.181h0c0.44-0.059,0.884-0.117,1.332-0.173h0c0.447-0.059,0.898-0.114,1.353-0.168h0
		c0.455-0.054,0.912-0.109,1.374-0.16h0.001c0.46-0.053,0.926-0.104,1.393-0.154h0.001c0.468-0.05,0.939-0.099,1.414-0.146h0
		c0.474-0.049,0.952-0.095,1.433-0.142l0,0c0.481-0.045,0.965-0.09,1.451-0.133h0c0.486-0.042,0.977-0.084,1.47-0.125h0
		c0.493-0.041,0.988-0.079,1.487-0.118h0c0.499-0.038,1-0.075,1.504-0.11h0c0.504-0.036,1.011-0.07,1.521-0.104h0
		c0.51-0.034,1.023-0.065,1.538-0.097h0c0.514-0.03,1.032-0.059,1.552-0.087h0c0.52-0.028,1.042-0.054,1.567-0.08h0
		c0.525-0.025,1.052-0.049,1.582-0.073h0.001c0.529-0.021,1.062-0.042,1.597-0.062l0,0c0.535-0.021,1.071-0.04,1.61-0.058h0
		c0.539-0.018,1.08-0.033,1.623-0.048h0.001c0.542-0.015,1.087-0.027,1.634-0.039h0c0.547-0.011,1.097-0.021,1.647-0.03h0
		c0.551-0.009,1.104-0.016,1.659-0.023h0c0.555-0.006,1.111-0.011,1.67-0.012h0.001c0.559-0.004,1.118-0.005,1.68-0.005H74
		c0.56,0,1.121,0.001,1.68,0.005h0.001c0.558,0.001,1.114,0.006,1.669,0.012h0.001c0.555,0.005,1.108,0.014,1.659,0.023l0,0
		c0.551,0.009,1.1,0.019,1.646,0.03h0.001c0.548,0.011,1.093,0.025,1.636,0.039l0,0c0.543,0.015,1.084,0.03,1.623,0.048l0,0
		c0.539,0.018,1.076,0.036,1.61,0.058h0.001c0.534,0.019,1.065,0.04,1.596,0.062l0,0c0.529,0.024,1.057,0.047,1.582,0.073h0.001
		c0.525,0.026,1.048,0.052,1.567,0.08l0,0c0.521,0.029,1.037,0.058,1.553,0.087l0,0c0.516,0.032,1.027,0.063,1.537,0.097l0,0
		c0.51,0.034,1.018,0.068,1.522,0.104l0,0c0.505,0.035,1.006,0.073,1.504,0.11l0,0c0.499,0.039,0.995,0.078,1.487,0.118h0.001
		c0.492,0.042,0.982,0.083,1.469,0.125l0,0c0.487,0.042,0.972,0.087,1.452,0.133h0.001c0.48,0.046,0.957,0.093,1.432,0.142h0.001
		c0.475,0.047,0.945,0.096,1.413,0.146h0.001c0.468,0.051,0.933,0.102,1.394,0.154l0,0c0.462,0.051,0.92,0.107,1.374,0.16l0,0
		c0.455,0.054,0.905,0.109,1.354,0.168l0,0c0.448,0.056,0.892,0.114,1.332,0.173l0,0c0.44,0.059,0.877,0.119,1.31,0.181l0,0
		c0.434,0.061,0.863,0.124,1.289,0.186l0,0c0.426,0.064,0.847,0.128,1.265,0.193l0,0c0.418,0.066,0.832,0.133,1.242,0.199l0,0
		c0.41,0.069,0.815,0.137,1.218,0.206h0.001c0.401,0.07,0.8,0.14,1.193,0.212h0.001c0.394,0.071,0.783,0.144,1.168,0.217h0.001
		c0.385,0.074,0.766,0.148,1.144,0.223l0,0c0.377,0.075,0.749,0.15,1.117,0.227l0,0c0.369,0.078,0.732,0.155,1.092,0.235h0.001
		c0.358,0.078,0.714,0.158,1.064,0.239l0,0c0.351,0.079,0.696,0.162,1.038,0.245l0,0c0.341,0.082,0.677,0.164,1.009,0.249l0,0
		c0.332,0.084,0.659,0.167,0.981,0.255l0,0c0.323,0.085,0.64,0.172,0.952,0.258h0.001c0.312,0.087,0.619,0.177,0.922,0.264l0,0
		c0.303,0.089,0.601,0.179,0.893,0.27l0,0c0.293,0.091,0.581,0.183,0.863,0.275l0,0c0.282,0.092,0.559,0.185,0.831,0.278l0,0
		c0.273,0.094,0.539,0.19,0.801,0.283l0,0c0.262,0.095,0.517,0.19,0.768,0.287l0,0c0.251,0.096,0.496,0.194,0.735,0.293H132
		c0.239,0.097,0.474,0.195,0.702,0.294l0,0c0.229,0.1,0.452,0.199,0.669,0.301h0.001c0.217,0.101,0.428,0.2,0.634,0.302h0.001
		c0.205,0.104,0.406,0.206,0.601,0.309l0,0c0.194,0.104,0.383,0.207,0.565,0.311l0,0c0.183,0.105,0.359,0.211,0.529,0.315h0.001
		c0.171,0.105,0.335,0.212,0.493,0.317l0,0c0.159,0.107,0.311,0.215,0.457,0.322l0,0c0.146,0.107,0.287,0.216,0.421,0.324l0,0
		c0.133,0.11,0.262,0.22,0.382,0.328h0.001c0.121,0.11,0.236,0.221,0.344,0.33h0.001c0.108,0.113,0.21,0.224,0.306,0.336l0,0
		c0.095,0.11,0.185,0.224,0.267,0.336l0,0c0.083,0.113,0.158,0.226,0.227,0.341h0.001c0.068,0.113,0.131,0.226,0.186,0.341h0.001
		c0.055,0.115,0.104,0.23,0.145,0.346l0,0c0.042,0.115,0.077,0.23,0.105,0.346l0,0c0.028,0.116,0.049,0.233,0.063,0.352l0,0
		c0.015,0.115,0.022,0.232,0.022,0.348l0,0l0,0v0.008v0.005v0.005v0.008v0.005l-0.001,0.02l0,0v0.005v0.008v0.005l-0.001,0.002
		v0.003v0.005v0.015v0.003v0.005l-0.001,0.005v0.005v0.003l-0.001,0.008v0.005v0.005v0.002l-0.001,0.03v0.008l-0.003,0.032l0,0
		l-0.001,0.008v0.005l-0.001,0.008l0,0v0.005v0.005v0.005l0,0l-0.001,0.008v0.002l-0.001,0.006v0.005l-0.001,0.007l-0.004,0.038l0,0
		v0.005l-0.002,0.015l0,0l-0.001,0.008l-0.001,0.005l-0.001,0.005v0.003v0.003h0.001v16.359V259.715L139.104,259.715z
		 M8.874,260.054L8.874,260.054L8.874,260.054L8.874,260.054z M8.874,243.007L8.874,243.007L8.874,243.007L8.874,243.007z"/>
	<ellipse style="fill-rule:evenodd;clip-rule:evenodd;fill:#632105;" cx="74.162" cy="246.255" rx="60.341" ry="10.378"/>
	<path style="fill-rule:evenodd;clip-rule:evenodd;fill:#45BEE6;" d="M120.656,252.908c-51.092,14.455-114.454,1.051-114.454-10.56
		c0-7.465,14.847-12.398,29.159-13.645c-20.082,4.042-38.841,14.457-7.619,21.955C49.102,255.788,86.107,259.361,120.656,252.908
		L120.656,252.908z"/>
</g>
<g>
	
		<path style="fill:#39A935;stroke:#000000;stroke-width:0.25;stroke-linecap:round;stroke-linejoin:round;stroke-miterlimit:10;" d="
		M103.334,245.334c-0.089-0.023,2.712-16.435,3.247-23.333c0.312-4.061,1.323-7.628,2.997-10.605
		c2.108-3.739,5.283-6.552,9.438-8.361l0.815,0.71c-9.082,3.954-11.562,12.237-12.045,18.49c-0.526,6.806-1.374,24.068-1.452,24.1
		C104.494,247.074,103.787,245.467,103.334,245.334z"/>
	
		<ellipse transform="matrix(0.2623 -0.965 0.965 0.2623 -109.663 260.0753)" style="fill:#A2008B;stroke:#000000;stroke-miterlimit:10;" cx="115.277" cy="201.766" rx="12.226" ry="12.225"/>
	<g>
		<g>
			<path style="fill:#95A236;" d="M129.595,183.762c-1.403-1.862-4.389-2.574-5.159-2.732c0,0-3.038-2.421-5.716-2.166
				c-11.721,1.12-5.037,15.668-4.394,16.945c0.931,1.848,0.266,5.455,0.266,5.455l1.265,0.557c0,0,2.199-2.828,4.189-3.385
				C121.426,198.048,136.674,193.169,129.595,183.762z"/>
			<path d="M129.555,183.793c-0.604-0.78-1.446-1.342-2.342-1.74c-0.896-0.408-1.859-0.655-2.818-0.82
				c-0.025-0.004-0.048-0.014-0.068-0.027l-0.02-0.014c-1.105-0.76-2.349-1.377-3.615-1.709c-0.633-0.169-1.279-0.243-1.892-0.188
				c-0.673,0.071-1.305,0.191-1.946,0.355c-1.267,0.338-2.426,0.992-3.267,1.971c-0.843,0.982-1.297,2.283-1.465,3.615
				c-0.308,2.7,0.376,5.451,1.336,7.994c0.252,0.636,0.523,1.264,0.818,1.878c0.144,0.314,0.311,0.585,0.462,0.944
				c0.139,0.346,0.228,0.697,0.295,1.051c0.25,1.423,0.172,2.827-0.025,4.237l-0.245-0.464l1.275,0.531l-0.538,0.136
				c0.721-0.91,1.494-1.736,2.404-2.475c0.457-0.364,0.949-0.703,1.522-0.955c0.144-0.063,0.294-0.118,0.449-0.166l0.385-0.123
				l0.771-0.27c2.051-0.751,4.057-1.676,5.858-2.88c0.905-0.592,1.763-1.261,2.484-2.05c0.732-0.775,1.343-1.676,1.663-2.699
				c0.314-1.02,0.319-2.143,0.025-3.202C130.77,185.662,130.208,184.687,129.555,183.793z M129.635,183.731
				c0.671,0.891,1.262,1.859,1.632,2.93c0.378,1.063,0.499,2.249,0.251,3.389c-0.243,1.14-0.808,2.2-1.532,3.102
				c-0.734,0.9-1.607,1.663-2.527,2.343c-1.872,1.322-3.935,2.305-6.069,3.062l-0.812,0.264l-0.413,0.12
				c-0.111,0.032-0.225,0.07-0.337,0.116c-0.452,0.185-0.896,0.468-1.316,0.788c-0.837,0.643-1.617,1.434-2.297,2.253l-0.016,0.019
				c-0.13,0.157-0.347,0.2-0.522,0.118l-1.253-0.582l-0.007-0.003c-0.18-0.083-0.272-0.275-0.239-0.461
				c0.235-1.302,0.37-2.679,0.232-3.987c-0.04-0.326-0.101-0.649-0.2-0.95c-0.095-0.285-0.269-0.615-0.393-0.936
				c-0.267-0.643-0.505-1.294-0.724-1.952c-0.451-1.31-0.824-2.648-1.08-4.011c-0.284-1.358-0.417-2.753-0.34-4.158
				c0.078-1.396,0.455-2.845,1.339-4.03c0.864-1.208,2.229-1.963,3.603-2.364c0.685-0.207,1.415-0.316,2.113-0.371
				c0.763-0.06,1.499,0.094,2.184,0.314c1.369,0.476,2.562,1.236,3.654,2.125l-0.087-0.041c0.981,0.247,1.919,0.612,2.814,1.062
				C128.173,182.353,129.028,182.926,129.635,183.731z"/>
		</g>
		<g>
			<path style="fill:#95A236;" d="M101.77,182.451c-2.205,0.758-3.805,3.376-4.191,4.064c0,0-3.24,2.143-3.824,4.767
				c-2.559,11.49,13.345,9.629,14.76,9.412c2.043-0.313,5.266,1.436,5.266,1.436l0.924-1.034c0,0-2.013-2.964-1.928-5.03
				C112.835,194.635,112.903,178.625,101.77,182.451z"/>
			<path d="M101.787,182.498c-0.929,0.334-1.724,0.961-2.379,1.69c-0.665,0.725-1.199,1.566-1.649,2.428
				c-0.012,0.023-0.028,0.042-0.047,0.057l-0.02,0.014c-1.063,0.817-2.035,1.809-2.741,2.912c-0.356,0.549-0.626,1.141-0.763,1.74
				c-0.14,0.662-0.222,1.3-0.264,1.961c-0.07,1.309,0.193,2.613,0.865,3.714c0.674,1.105,1.771,1.938,2.986,2.509
				c2.473,1.127,5.3,1.326,8.015,1.199c0.683-0.043,1.364-0.107,2.039-0.198c0.343-0.039,0.653-0.114,1.04-0.147
				c0.372-0.026,0.733-0.001,1.091,0.044c1.431,0.203,2.742,0.712,4.021,1.336l-0.518,0.09l0.902-1.053l-0.037,0.554
				c-0.644-0.966-1.19-1.956-1.612-3.05c-0.205-0.547-0.375-1.12-0.439-1.743c-0.015-0.156-0.021-0.315-0.02-0.478l0.003-0.405
				l-0.018-0.816c-0.082-2.182-0.342-4.376-0.931-6.461c-0.283-1.044-0.654-2.066-1.183-2.996c-0.511-0.936-1.179-1.795-2.053-2.416
				c-0.873-0.614-1.938-0.965-3.037-1.014C103.94,181.919,102.839,182.153,101.787,182.498z M101.754,182.404
				c1.055-0.363,2.158-0.626,3.29-0.648c1.128-0.031,2.293,0.22,3.301,0.809c1.009,0.583,1.842,1.447,2.477,2.416
				c0.629,0.976,1.085,2.042,1.447,3.126c0.68,2.189,0.977,4.454,1.037,6.719l0.001,0.854l-0.014,0.431
				c-0.005,0.116-0.003,0.235,0.006,0.356c0.037,0.487,0.169,0.997,0.343,1.495c0.354,0.995,0.866,1.98,1.436,2.88l0.013,0.02
				c0.109,0.172,0.084,0.392-0.049,0.535l-0.945,1.015l-0.005,0.005c-0.135,0.145-0.347,0.174-0.513,0.085
				c-1.165-0.628-2.432-1.182-3.719-1.456c-0.321-0.062-0.648-0.105-0.964-0.103c-0.301,0.002-0.669,0.065-1.012,0.085
				c-0.693,0.054-1.387,0.08-2.08,0.085c-1.385,0.023-2.771-0.034-4.147-0.212c-1.379-0.15-2.746-0.454-4.059-0.961
				c-1.304-0.505-2.565-1.311-3.419-2.517c-0.883-1.194-1.179-2.726-1.137-4.156c0.015-0.715,0.137-1.444,0.301-2.124
				c0.179-0.744,0.552-1.397,0.974-1.98c0.875-1.155,1.966-2.054,3.148-2.818l-0.065,0.071c0.535-0.859,1.174-1.639,1.879-2.35
				C99.99,183.367,100.801,182.731,101.754,182.404z"/>
		</g>
		<g>
			<path style="fill:#95A236;" d="M91.925,208.507c0.041,2.331,2.036,4.659,2.571,5.242c0,0,1.033,3.745,3.353,5.112
				c10.137,5.981,13.282-9.718,13.509-11.129c0.335-2.042,2.993-4.567,2.993-4.567l-0.694-1.196c0,0-3.443,0.997-5.383,0.278
				C106.935,201.751,91.728,196.737,91.925,208.507z"/>
			<path d="M91.975,208.506c0.031,0.987,0.383,1.936,0.874,2.785c0.484,0.856,1.119,1.623,1.8,2.319
				c0.018,0.018,0.03,0.04,0.039,0.062l0.008,0.022c0.446,1.265,1.089,2.495,1.92,3.507c0.412,0.509,0.892,0.948,1.42,1.263
				c0.586,0.338,1.168,0.612,1.783,0.857c1.224,0.471,2.545,0.623,3.801,0.325c1.259-0.299,2.391-1.085,3.31-2.064
				c1.836-2.004,2.898-4.631,3.616-7.252c0.17-0.663,0.319-1.331,0.441-2.001c0.068-0.337,0.092-0.656,0.181-1.035
				c0.091-0.362,0.227-0.698,0.38-1.024c0.635-1.298,1.523-2.388,2.512-3.412l-0.074,0.519l-0.719-1.182l0.516,0.207
				c-1.117,0.314-2.229,0.527-3.399,0.59c-0.583,0.026-1.181,0.011-1.793-0.121c-0.153-0.034-0.307-0.076-0.461-0.129l-0.385-0.128
				l-0.782-0.235c-2.101-0.597-4.267-1.028-6.433-1.112c-1.08-0.053-2.167-0.016-3.215,0.199c-1.049,0.196-2.072,0.566-2.933,1.205
				c-0.854,0.641-1.518,1.545-1.903,2.575C92.091,206.279,91.972,207.399,91.975,208.506z M91.875,208.509
				c-0.02-1.115,0.072-2.246,0.401-3.33c0.319-1.082,0.919-2.113,1.79-2.889c0.866-0.779,1.946-1.305,3.063-1.609
				c1.122-0.297,2.276-0.401,3.421-0.41c2.292,0.03,4.538,0.447,6.711,1.089l0.812,0.264l0.404,0.145
				c0.108,0.04,0.223,0.075,0.341,0.104c0.476,0.116,1.001,0.148,1.528,0.136c1.056-0.029,2.151-0.211,3.183-0.475l0.023-0.006
				c0.197-0.05,0.398,0.042,0.493,0.213l0.67,1.21l0.003,0.006c0.096,0.172,0.059,0.383-0.078,0.513
				c-0.956,0.915-1.874,1.949-2.533,3.088c-0.159,0.287-0.3,0.584-0.396,0.886c-0.092,0.287-0.144,0.655-0.231,0.988
				c-0.162,0.677-0.352,1.344-0.561,2.005c-0.405,1.325-0.889,2.626-1.483,3.879c-0.568,1.266-1.28,2.472-2.168,3.563
				c-0.884,1.083-2.04,2.035-3.451,2.474c-1.409,0.47-2.957,0.278-4.304-0.204c-0.676-0.235-1.331-0.576-1.928-0.942
				c-0.652-0.4-1.158-0.957-1.582-1.538c-0.828-1.189-1.347-2.505-1.707-3.867l0.047,0.084c-0.65-0.775-1.195-1.622-1.654-2.513
				C92.247,210.484,91.892,209.517,91.875,208.509z"/>
		</g>
		<g>
			<path style="fill:#95A236;" d="M113.665,225.921c2.229,0.682,5.061-0.497,5.779-0.823c0,0,3.881,0.174,5.896-1.607
				c8.822-7.793-5.135-15.636-6.407-16.29c-1.839-0.948-3.419-4.257-3.419-4.257l-1.354,0.292c0,0-0.114,3.58-1.397,5.204
				C111.876,209.561,102.41,222.471,113.665,225.921z"/>
			<path d="M113.679,225.873c0.948,0.275,1.959,0.235,2.918,0.03c0.964-0.196,1.89-0.563,2.763-0.993
				c0.022-0.012,0.047-0.017,0.07-0.018l0.024-0.001c1.341-0.034,2.709-0.265,3.929-0.742c0.611-0.235,1.178-0.555,1.641-0.96
				c0.502-0.453,0.943-0.921,1.365-1.432c0.826-1.018,1.38-2.227,1.483-3.514c0.104-1.29-0.293-2.609-0.94-3.785
				c-1.338-2.366-3.508-4.188-5.779-5.682c-0.577-0.366-1.166-0.715-1.766-1.038c-0.3-0.17-0.596-0.291-0.928-0.492
				c-0.316-0.198-0.595-0.431-0.857-0.677c-1.038-1.004-1.8-2.187-2.469-3.443l0.471,0.231l-1.347,0.32l0.355-0.427
				c-0.047,1.16-0.187,2.282-0.488,3.415c-0.156,0.563-0.355,1.127-0.669,1.668c-0.079,0.135-0.168,0.269-0.265,0.398l-0.241,0.326
				l-0.465,0.671c-1.217,1.813-2.296,3.74-3.046,5.773c-0.384,1.011-0.685,2.056-0.804,3.119c-0.138,1.058-0.103,2.145,0.24,3.161
				c0.346,1.009,1.001,1.921,1.86,2.605C111.598,225.075,112.626,225.534,113.679,225.873z M113.651,225.969
				c-1.067-0.326-2.114-0.763-3.043-1.41c-0.93-0.638-1.726-1.526-2.194-2.595c-0.474-1.064-0.64-2.254-0.583-3.41
				c0.064-1.159,0.322-2.29,0.667-3.38c0.736-2.17,1.827-4.177,3.109-6.045l0.502-0.691l0.264-0.339
				c0.071-0.091,0.141-0.189,0.204-0.292c0.257-0.416,0.449-0.906,0.602-1.411c0.298-1.013,0.464-2.111,0.531-3.173l0.002-0.024
				c0.013-0.204,0.163-0.366,0.354-0.403l1.359-0.264l0.007-0.001c0.193-0.038,0.382,0.063,0.464,0.233
				c0.574,1.192,1.274,2.385,2.154,3.363c0.223,0.24,0.463,0.466,0.72,0.651c0.244,0.175,0.579,0.339,0.868,0.525
				c0.593,0.364,1.169,0.75,1.732,1.154c1.135,0.795,2.223,1.657,3.231,2.609c1.027,0.932,1.954,1.982,2.718,3.164
				c0.758,1.175,1.305,2.568,1.286,4.046c0.012,1.485-0.648,2.898-1.523,4.03c-0.432,0.57-0.959,1.088-1.491,1.543
				c-0.582,0.496-1.269,0.806-1.952,1.029c-1.387,0.419-2.798,0.505-4.204,0.427l0.094-0.018c-0.938,0.377-1.912,0.633-2.9,0.794
				C115.644,226.226,114.614,226.264,113.651,225.969z"/>
		</g>
		<g>
			<path style="fill:#95A236;" d="M136.944,210.628c1.338-1.909,1.094-4.968,1.004-5.751c0,0,1.362-3.637,0.294-6.104
				c-4.688-10.799-16.46,0.054-17.474,1.06c-1.471,1.455-5.104,1.936-5.104,1.936l-0.14,1.379c0,0,3.37,1.214,4.516,2.934
				C120.832,207.273,130.186,220.267,136.944,210.628z"/>
			<path d="M136.903,210.6c0.555-0.816,0.829-1.79,0.932-2.766c0.111-0.978,0.05-1.971-0.092-2.934
				c-0.004-0.025-0.002-0.05,0.005-0.073l0.007-0.022c0.381-1.286,0.584-2.659,0.508-3.967c-0.034-0.653-0.164-1.291-0.405-1.857
				c-0.275-0.617-0.585-1.181-0.939-1.741c-0.713-1.1-1.692-2-2.884-2.496c-1.194-0.498-2.572-0.527-3.891-0.275
				c-2.663,0.542-5.067,2.042-7.189,3.74c-0.526,0.436-1.041,0.888-1.533,1.358c-0.254,0.233-0.461,0.477-0.755,0.73
				c-0.286,0.24-0.593,0.432-0.909,0.605c-1.275,0.677-2.636,1.037-4.037,1.284l0.365-0.377l-0.111,1.382l-0.296-0.47
				c1.089,0.402,2.113,0.882,3.098,1.519c0.487,0.322,0.962,0.685,1.38,1.152c0.104,0.117,0.203,0.243,0.297,0.376l0.235,0.329
				l0.495,0.65c1.348,1.718,2.847,3.339,4.549,4.681c0.843,0.678,1.743,1.287,2.718,1.729c0.963,0.458,2.008,0.76,3.08,0.749
				c1.066-0.017,2.136-0.358,3.053-0.965C135.501,212.333,136.255,211.497,136.903,210.6z M136.985,210.656
				c-0.64,0.914-1.378,1.775-2.281,2.458c-0.894,0.688-1.984,1.169-3.145,1.286c-1.158,0.121-2.341-0.088-3.423-0.499
				c-1.082-0.42-2.077-1.014-3.008-1.679c-1.836-1.372-3.408-3.029-4.788-4.826l-0.502-0.69l-0.242-0.356
				c-0.064-0.097-0.136-0.192-0.214-0.285c-0.316-0.373-0.723-0.707-1.156-1.008c-0.871-0.597-1.864-1.093-2.854-1.485l-0.021-0.009
				c-0.189-0.075-0.298-0.268-0.274-0.461l0.168-1.376l0.001-0.007c0.023-0.196,0.178-0.344,0.364-0.37
				c1.312-0.178,2.662-0.475,3.864-1.009c0.297-0.139,0.586-0.296,0.841-0.484c0.243-0.178,0.502-0.445,0.769-0.663
				c0.529-0.452,1.075-0.88,1.633-1.291c1.106-0.833,2.263-1.602,3.48-2.266c1.203-0.689,2.488-1.247,3.849-1.608
				c1.352-0.357,2.846-0.447,4.246,0.027c1.416,0.448,2.556,1.513,3.361,2.694c0.409,0.587,0.739,1.248,1.007,1.895
				c0.292,0.707,0.374,1.455,0.375,2.174c-0.03,1.449-0.384,2.817-0.892,4.131l0.012-0.096c0.07,1.01,0.013,2.015-0.141,3.005
				C137.847,208.84,137.564,209.831,136.985,210.656z"/>
		</g>
	</g>
	<g>
		<path d="M115.194,199.924c4.254-10.54,6.905-15.084,6.905-15.084S119.97,190.5,115.194,199.924z"/>
		<path d="M112.917,200.294c-8.711-7.303-12.214-11.234-12.214-11.234S105.427,192.836,112.917,200.294z"/>
		<path d="M112.564,202.572c-9.636,6.027-14.456,8.143-14.456,8.143S103.155,207.388,112.564,202.572z"/>
		<path d="M114.618,203.611c2.757,11.03,3.28,16.266,3.28,16.266S116.295,214.045,114.618,203.611z"/>
		<path d="M116.248,201.977c11.337,0.788,16.478,1.91,16.478,1.91S126.685,203.609,116.248,201.977z"/>
	</g>
	<g>
		
			<ellipse transform="matrix(0.2624 -0.965 0.965 0.2624 -111.3872 260.7725)" style="fill:#D9E021;" cx="114.876" cy="203.244" rx="6.694" ry="6.693"/>
		<path d="M121.382,205.014c-0.467,1.688-1.479,3.292-3.025,4.312c-1.524,1.045-3.559,1.344-5.357,0.775
			c-1.772-0.551-3.231-1.88-4.074-3.452c-0.868-1.571-1.176-3.441-0.771-5.241c0.37-1.775,1.541-3.435,3.162-4.383
			c1.604-0.97,3.63-1.276,5.456-0.756c1.821,0.503,3.424,1.8,4.198,3.485C121.777,201.425,121.846,203.321,121.382,205.014z
			 M121.286,204.986c0.473-1.691,0.062-3.536-0.887-4.905c-0.955-1.37-2.337-2.381-3.907-2.782
			c-1.558-0.417-3.273-0.243-4.708,0.543c-1.434,0.784-2.571,2.107-3.105,3.724c-0.532,1.583-0.36,3.455,0.527,4.923
			c0.889,1.482,2.412,2.461,4.032,2.816c1.585,0.369,3.292,0.188,4.807-0.523C119.554,208.071,120.848,206.691,121.286,204.986z"/>
	</g>
</g>
<g>
	
		<path style="fill:#39A935;stroke:#000000;stroke-width:0.25;stroke-linecap:round;stroke-linejoin:round;stroke-miterlimit:10;" d="
		M76,246c-1.231-19.303,5.742-108.568,2.518-125.512c-1.911-9.97-1.808-19.211,0.271-27.467c2.625-10.376,8.424-19.215,17.226-26.28
		l2.43,1.173c-19.261,15.448-19.805,36.996-16.883,52.348c3.188,16.715-1.808,125.681-2.022,125.706
		C78.868,246.018,76.075,247.18,76,246z"/>
	<ellipse style="fill:#1B4A11;stroke:#000000;stroke-miterlimit:10;" cx="86.198" cy="66.134" rx="30.474" ry="30.472"/>
	<g>
		<g>
			<path style="fill:#B8FF2B;" d="M108.863,13.47c-4.597-3.56-12.236-3.323-14.198-3.199c0,0-8.884-3.835-15.16-1.471
				c-27.461,10.36-1.866,40.98,0.511,43.631c3.449,3.834,4.208,12.945,4.208,12.945l3.408,0.51c0,0,3.437-8.236,7.864-10.881
				C98.554,53.171,132.04,31.468,108.863,13.47z"/>
			<path d="M108.803,13.55c-1.968-1.485-4.364-2.288-6.78-2.677c-2.423-0.408-4.905-0.402-7.331-0.19
				c-0.054,0.005-0.104-0.002-0.152-0.019l-0.037-0.014c-3.161-1.138-6.552-1.848-9.851-1.843c-1.647-0.003-3.276,0.23-4.75,0.774
				c-1.552,0.599-3.06,1.318-4.48,2.153c-2.823,1.688-5.268,4.004-6.632,6.979c-1.383,2.965-1.595,6.423-1.099,9.746
				c0.487,3.346,1.675,6.585,3.152,9.653c1.513,3.059,3.322,5.97,5.321,8.736c1.015,1.374,2.072,2.714,3.179,4.008
				c0.547,0.672,1.127,1.208,1.712,1.972c0.545,0.729,0.986,1.513,1.368,2.316c1.497,3.238,2.213,6.665,2.645,10.162l-0.719-0.767
				l3.417,0.454l-0.967,0.545c1.132-2.637,2.456-5.121,4.152-7.465c0.856-1.161,1.81-2.282,2.999-3.241
				c0.298-0.238,0.612-0.465,0.947-0.673l0.855-0.547c0.566-0.373,1.128-0.763,1.687-1.155c2.243-1.563,4.397-3.262,6.457-5.056
				c2.064-1.789,4.021-3.699,5.787-5.76c1.776-2.048,3.379-4.248,4.624-6.629c1.245-2.372,2.112-4.973,2.18-7.664
				c0.074-2.685-0.691-5.394-2.11-7.743C112.956,17.249,110.972,15.259,108.803,13.55z M108.924,13.391
				c2.202,1.695,4.237,3.655,5.812,5.986c1.583,2.313,2.626,5.078,2.741,7.959c0.146,2.879-0.558,5.759-1.71,8.377
				c-1.163,2.626-2.768,5.015-4.558,7.212c-3.63,4.371-7.938,8.065-12.558,11.277c-0.58,0.4-1.17,0.786-1.769,1.166l-0.91,0.558
				c-0.258,0.154-0.511,0.328-0.759,0.518c-0.991,0.765-1.88,1.753-2.688,2.809c-1.605,2.121-2.959,4.542-4.062,6.982l-0.017,0.038
				c-0.169,0.373-0.564,0.572-0.95,0.508l-3.399-0.566l-0.017-0.003c-0.389-0.064-0.671-0.387-0.701-0.764
				c-0.13-1.646-0.378-3.34-0.717-4.981c-0.343-1.645-0.763-3.277-1.395-4.808c-0.316-0.764-0.685-1.502-1.134-2.172
				c-0.42-0.63-1.068-1.306-1.573-1.989c-1.065-1.365-2.072-2.767-3.034-4.199c-1.946-2.848-3.728-5.811-5.229-8.919
				c-1.52-3.096-2.787-6.34-3.497-9.763c-0.702-3.399-0.718-7.101,0.638-10.479c1.315-3.396,4.011-6.13,7.062-7.934
				c1.523-0.929,3.145-1.651,4.807-2.253c1.761-0.631,3.605-0.757,5.382-0.683c3.569,0.221,6.939,1.231,10.141,2.626L94.639,9.86
				c2.511-0.067,5.006,0.169,7.449,0.659c1.222,0.247,2.418,0.608,3.58,1.055C106.826,12.026,107.941,12.63,108.924,13.391z"/>
		</g>
		<g>
			<path style="fill:#B8FF2B;" d="M41.082,28.512c-4.804,3.265-6.941,10.605-7.421,12.513c0,0-6.398,7.271-6.082,13.964
				c1.358,29.309,38.39,14.432,41.655,12.987c4.703-2.09,13.606,0.008,13.606,0.008l1.543-3.089c0,0-6.782-5.814-7.924-10.837
				C75.66,50.584,65.358,12.03,41.082,28.512z"/>
			<path d="M41.14,28.594c-2.021,1.411-3.525,3.441-4.641,5.619c-1.135,2.178-1.899,4.541-2.438,6.913
				c-0.012,0.053-0.035,0.1-0.066,0.141l-0.024,0.031c-2.059,2.654-3.782,5.66-4.797,8.798c-0.511,1.565-0.793,3.187-0.73,4.755
				c0.089,1.664,0.307,3.317,0.662,4.928c0.732,3.207,2.18,6.247,4.588,8.463c2.393,2.23,5.616,3.498,8.93,4.053
				c3.333,0.57,6.78,0.44,10.154-0.017c3.376-0.494,6.704-1.316,9.952-2.362c1.619-0.54,3.222-1.132,4.794-1.784
				c0.809-0.312,1.497-0.698,2.404-1.018c0.861-0.294,1.744-0.471,2.625-0.585c3.543-0.421,7.022-0.04,10.481,0.631l-0.951,0.445
				l1.492-3.114l0.22,1.089c-2.159-1.891-4.113-3.916-5.821-6.253c-0.84-1.172-1.611-2.427-2.156-3.854
				c-0.135-0.357-0.251-0.728-0.347-1.109l-0.257-0.98c-0.18-0.655-0.378-1.309-0.578-1.962c-0.794-2.617-1.744-5.191-2.814-7.703
				c-1.064-2.516-2.276-4.967-3.691-7.284c-1.399-2.322-2.996-4.526-4.877-6.446c-1.871-1.917-4.077-3.545-6.616-4.441
				c-2.53-0.9-5.343-1.009-8.017-0.386C45.94,25.786,43.435,27.059,41.14,28.594z M41.025,28.43
				c2.292-1.571,4.786-2.901,7.489-3.679c2.689-0.791,5.642-0.929,8.417-0.147c2.783,0.751,5.305,2.31,7.439,4.214
				c2.139,1.918,3.914,4.182,5.452,6.562c3.036,4.803,5.22,10.042,6.848,15.428c0.201,0.675,0.387,1.355,0.562,2.042l0.251,1.039
				c0.068,0.293,0.153,0.587,0.258,0.881c0.421,1.179,1.085,2.33,1.84,3.424c1.523,2.181,3.408,4.216,5.39,6.017l0.03,0.028
				c0.303,0.275,0.37,0.714,0.189,1.061l-1.594,3.063l-0.008,0.016c-0.182,0.35-0.576,0.518-0.943,0.43
				c-1.605-0.385-3.293-0.674-4.958-0.86c-1.67-0.184-3.353-0.289-5.004-0.162c-0.824,0.063-1.64,0.186-2.416,0.406
				c-0.728,0.205-1.572,0.612-2.378,0.881c-1.626,0.591-3.271,1.116-4.93,1.588c-3.31,0.971-6.678,1.749-10.098,2.217
				c-3.414,0.489-6.891,0.692-10.365,0.312c-3.45-0.382-6.976-1.51-9.77-3.842c-2.824-2.298-4.591-5.709-5.363-9.167
				c-0.412-1.735-0.597-3.504-0.656-5.267c-0.058-1.87,0.393-3.664,1.012-5.33c1.315-3.326,3.316-6.217,5.632-8.832l-0.09,0.172
				c0.705-2.412,1.701-4.71,2.921-6.883c0.611-1.086,1.325-2.112,2.109-3.078C39.08,30.002,39.998,29.128,41.025,28.43z"/>
		</g>
		<g>
			<path style="fill:#B8FF2B;" d="M34.444,97.617c1.623,5.578,7.941,9.876,9.604,10.927c0,0,4.938,8.332,11.404,10.104
				c28.3,7.756,25.599-32.058,25.223-35.598c-0.535-5.129,4.208-12.944,4.208-12.944l-2.453-2.423c0,0-7.625,4.649-12.764,4.189
				C66.125,71.553,26.277,69.437,34.444,97.617z"/>
			<path d="M34.54,97.588c0.717,2.358,2.184,4.415,3.91,6.149c1.72,1.753,3.73,3.207,5.818,4.458
				c0.046,0.028,0.083,0.064,0.112,0.105l0.022,0.034c1.888,2.778,4.214,5.346,6.885,7.281c1.331,0.971,2.786,1.74,4.297,2.166
				c1.608,0.428,3.25,0.733,4.891,0.892c3.276,0.294,6.615-0.143,9.468-1.748c2.861-1.586,5.065-4.258,6.618-7.238
				c1.572-2.993,2.516-6.311,3.124-9.661c0.573-3.364,0.82-6.783,0.829-10.196c-0.014-1.707-0.083-3.414-0.219-5.11
				c-0.047-0.864-0.204-1.64-0.228-2.602c-0.013-0.91,0.091-1.804,0.255-2.677c0.692-3.5,2.129-6.693,3.836-9.775l0.129,1.041
				l-2.493-2.382l1.104,0.128c-2.466,1.468-4.996,2.701-7.745,3.603c-1.375,0.436-2.805,0.784-4.33,0.863
				c-0.381,0.018-0.769,0.018-1.161-0.01l-1.016-0.061c-0.678-0.032-1.36-0.046-2.043-0.058c-2.733-0.055-5.475,0.053-8.196,0.294
				c-2.721,0.234-5.427,0.629-8.067,1.259c-2.641,0.613-5.23,1.451-7.637,2.646c-2.401,1.187-4.632,2.782-6.269,4.92
				c-1.638,2.127-2.612,4.77-2.845,7.504C33.354,92.155,33.79,94.931,34.54,97.588z M34.349,97.647
				c-0.785-2.666-1.279-5.448-1.183-8.26c0.08-2.802,0.861-5.652,2.462-8.05c1.574-2.414,3.836-4.331,6.307-5.772
				c2.485-1.442,5.186-2.431,7.926-3.157c5.505-1.403,11.162-1.861,16.789-1.742c0.704,0.018,1.408,0.052,2.116,0.098l1.061,0.085
				c0.3,0.027,0.607,0.035,0.919,0.026c1.252-0.038,2.553-0.316,3.826-0.696c2.545-0.774,5.063-1.938,7.389-3.265l0.035-0.021
				c0.357-0.203,0.795-0.13,1.069,0.149l2.413,2.463l0.012,0.012c0.276,0.282,0.313,0.707,0.117,1.029
				c-0.862,1.408-1.658,2.924-2.349,4.451c-0.69,1.531-1.311,3.099-1.699,4.709c-0.193,0.804-0.329,1.618-0.359,2.424
				c-0.031,0.756,0.099,1.682,0.106,2.533c0.061,1.73,0.052,3.456-0.012,5.181c-0.099,3.447-0.398,6.891-1.011,10.289
				c-0.59,3.398-1.472,6.768-2.909,9.954c-1.432,3.163-3.595,6.167-6.677,8.103c-3.06,1.974-6.849,2.601-10.377,2.267
				c-1.778-0.144-3.516-0.514-5.213-1.004c-1.796-0.523-3.362-1.507-4.755-2.611c-2.757-2.278-4.888-5.075-6.659-8.086l0.134,0.138
				c-2.071-1.42-3.95-3.077-5.638-4.908c-0.844-0.917-1.599-1.912-2.276-2.957C35.243,99.982,34.696,98.838,34.349,97.647z"/>
		</g>
		<g>
			<path style="fill:#B8FF2B;" d="M98.118,125.286c5.803,0.184,11.849-4.505,13.354-5.76c0,0,9.451-2.116,13.136-7.719
				c16.125-24.514-22.574-34.25-26.059-34.991c-5.043-1.08-11.013-8-11.013-8L84.48,70.4c0,0,2.06,8.685,0.039,13.428
				C83.112,87.106,68.79,124.347,98.118,125.286z"/>
			<path d="M98.12,125.186c2.463,0.047,4.873-0.712,7.055-1.818c2.197-1.095,4.202-2.558,6.033-4.158
				c0.04-0.036,0.087-0.061,0.136-0.075l0.038-0.011c3.227-0.935,6.388-2.352,9.055-4.293c1.334-0.965,2.517-2.111,3.388-3.417
				c0.905-1.397,1.701-2.864,2.361-4.375c1.292-3.024,1.908-6.335,1.265-9.544c-0.625-3.211-2.485-6.133-4.84-8.53
				c-2.36-2.421-5.225-4.343-8.223-5.958c-3.021-1.585-6.197-2.876-9.44-3.939c-1.628-0.515-3.272-0.977-4.927-1.373
				c-0.837-0.222-1.624-0.313-2.545-0.588c-0.869-0.27-1.688-0.645-2.467-1.07c-3.115-1.74-5.708-4.091-8.113-6.666l1.03,0.199
				l-3.029,1.635l0.463-1.009c0.633,2.799,1.022,5.586,1.029,8.479c-0.011,1.442-0.121,2.91-0.518,4.385
				c-0.101,0.368-0.222,0.736-0.369,1.101l-0.373,0.947c-0.24,0.634-0.465,1.279-0.688,1.925c-0.897,2.582-1.643,5.223-2.254,7.885
				c-0.618,2.66-1.078,5.356-1.296,8.062c-0.232,2.702-0.236,5.423,0.157,8.081c0.387,2.65,1.215,5.265,2.743,7.481
				c1.518,2.215,3.73,3.957,6.259,5.024C92.586,124.634,95.361,125.077,98.12,125.186z M98.116,125.386
				c-2.778-0.077-5.577-0.467-8.221-1.427c-2.641-0.941-5.11-2.564-6.897-4.828c-1.81-2.243-2.935-4.986-3.542-7.781
				c-0.604-2.809-0.71-5.684-0.554-8.514c0.367-5.67,1.68-11.191,3.532-16.505c0.235-0.665,0.485-1.323,0.748-1.982l0.409-0.982
				c0.118-0.276,0.22-0.566,0.309-0.866c0.351-1.202,0.488-2.525,0.521-3.853c0.05-2.66-0.278-5.415-0.819-8.037l-0.009-0.04
				c-0.083-0.401,0.121-0.795,0.471-0.969l3.082-1.535l0.016-0.008c0.353-0.176,0.77-0.08,1.015,0.206
				c1.073,1.255,2.271,2.479,3.509,3.607c1.244,1.129,2.544,2.203,3.955,3.07c0.704,0.433,1.437,0.813,2.194,1.092
				c0.71,0.264,1.63,0.427,2.441,0.683c1.664,0.478,3.303,1.019,4.923,1.612c3.248,1.16,6.431,2.51,9.474,4.142
				c3.049,1.612,5.981,3.492,8.567,5.843c2.565,2.338,4.754,5.324,5.643,8.854c0.933,3.52,0.357,7.317-1.052,10.569
				c-0.687,1.646-1.575,3.185-2.565,4.647c-1.053,1.546-2.473,2.732-3.953,3.714c-3.019,1.917-6.339,3.078-9.751,3.83l0.174-0.086
				c-1.987,1.535-4.144,2.809-6.406,3.85c-1.132,0.519-2.312,0.93-3.514,1.251C100.613,125.257,99.357,125.424,98.116,125.386z"/>
		</g>
		<g>
			<path style="fill:#B8FF2B;" d="M144.108,73.283c1.966-5.469-0.62-12.664-1.347-14.492c0,0,0.899-9.636-3.284-14.874
				C121.139,21.013,99.919,54.81,98.142,57.896c-2.585,4.46-11.01,7.991-11.01,7.991l0.563,3.408c0,0,8.9,0.715,12.784,4.104
				C103.161,75.746,134.158,100.882,144.108,73.283z"/>
			<path d="M144.014,73.251c0.806-2.33,0.828-4.858,0.451-7.276c-0.361-2.43-1.133-4.79-2.087-7.03
				c-0.02-0.049-0.029-0.101-0.028-0.151l0.001-0.04c0.105-3.357-0.268-6.801-1.29-9.937c-0.506-1.567-1.23-3.045-2.202-4.279
				c-1.049-1.29-2.199-2.501-3.433-3.595c-2.478-2.162-5.436-3.77-8.687-4.147c-3.247-0.398-6.6,0.469-9.607,1.967
				c-3.031,1.496-5.745,3.626-8.207,5.978c-2.44,2.384-4.65,5.004-6.663,7.76c-0.992,1.389-1.94,2.81-2.827,4.262
				c-0.471,0.728-0.799,1.446-1.346,2.238c-0.524,0.744-1.134,1.406-1.779,2.016c-2.618,2.423-5.656,4.162-8.85,5.651l0.508-0.918
				l0.619,3.399l-0.818-0.753c2.858,0.259,5.63,0.748,8.385,1.633c1.369,0.455,2.73,1.013,4.011,1.846
				c0.319,0.209,0.632,0.438,0.934,0.691l0.785,0.646c0.529,0.424,1.073,0.838,1.619,1.249c2.179,1.652,4.459,3.176,6.802,4.58
				c2.339,1.41,4.761,2.681,7.267,3.724c2.497,1.057,5.083,1.902,7.732,2.35c2.641,0.452,5.382,0.473,7.963-0.294
				c2.576-0.758,4.917-2.323,6.713-4.398C141.78,78.343,143.059,75.841,144.014,73.251z M144.203,73.316
				c-0.932,2.618-2.167,5.16-3.897,7.378c-1.71,2.22-4.019,4.066-6.724,5.065c-2.692,1.028-5.649,1.248-8.495,0.961
				c-2.856-0.295-5.624-1.083-8.268-2.106c-5.278-2.102-10.123-5.057-14.604-8.46c-0.56-0.429-1.108-0.871-1.654-1.324l-0.808-0.693
				c-0.227-0.197-0.471-0.384-0.729-0.561c-1.034-0.705-2.25-1.244-3.503-1.685c-2.515-0.869-5.236-1.405-7.897-1.697l-0.041-0.004
				c-0.407-0.045-0.72-0.361-0.777-0.749l-0.508-3.417l-0.002-0.017c-0.059-0.39,0.161-0.757,0.51-0.901
				c1.525-0.632,3.061-1.391,4.516-2.219c1.459-0.833,2.882-1.737,4.143-2.811c0.63-0.536,1.218-1.115,1.717-1.749
				c0.47-0.593,0.909-1.418,1.402-2.111c0.969-1.435,1.989-2.826,3.055-4.184c2.105-2.73,4.373-5.34,6.866-7.729
				c2.475-2.401,5.169-4.609,8.204-6.341c3.017-1.718,6.532-2.876,10.163-2.631c3.635,0.2,7.069,1.918,9.728,4.261
				c1.354,1.161,2.543,2.48,3.63,3.875c1.144,1.479,1.832,3.195,2.31,4.907c0.891,3.463,0.972,6.978,0.636,10.455l-0.027-0.19
				c0.841,2.367,1.387,4.813,1.676,7.288c0.143,1.238,0.17,2.487,0.104,3.731C144.852,70.899,144.623,72.147,144.203,73.316z"/>
		</g>
	</g>
	<g>
		<path d="M84.794,61.758c3.342-28.132,6.751-40.793,6.751-40.793S90.121,35.968,84.794,61.758z"/>
		<path d="M79.557,64.138C53.833,52.268,42.841,45.103,42.841,45.103S56.671,51.1,79.557,64.138z"/>
		<path d="M80.203,69.847c-19.24,20.797-29.446,29.035-29.446,29.035S60.723,87.583,80.203,69.847z"/>
		<path d="M85.822,71.005c13.842,24.726,18.525,36.977,18.525,36.977S96.675,95.002,85.822,71.005z"/>
		<path d="M88.672,66.008c27.783-5.518,40.879-6.182,40.879-6.182S114.842,63.109,88.672,66.008z"/>
	</g>
	<g>
		<circle style="fill:#F22C2C;" cx="86.199" cy="69.951" r="16.685"/>
		<path d="M102.984,69.953c-0.009,4.369-1.48,8.853-4.543,12.242c-2.997,3.433-7.641,5.434-12.254,5.273
			c-2.271-0.078-4.547-0.63-6.59-1.584c-2.047-0.96-3.879-2.309-5.428-3.905c-3.101-3.19-5.044-7.498-5.203-12.036
			c-0.222-4.5,1.523-9.167,4.77-12.457c1.606-1.655,3.546-2.998,5.679-3.917c2.137-0.926,4.453-1.371,6.799-1.37
			c2.291,0.035,4.638,0.493,6.742,1.444c2.119,0.927,4.003,2.344,5.508,4.045C101.514,61.096,102.999,65.577,102.984,69.953z
			 M102.785,69.952c-0.02-2.171-0.483-4.341-1.424-6.28c-0.934-1.938-2.245-3.667-3.828-5.054
			c-3.177-2.757-7.213-4.342-11.347-4.287c-4.063,0.006-8.161,1.598-11.12,4.484c-2.969,2.87-4.828,6.889-5.004,11.141
			c-0.069,2.096,0.234,4.263,1.031,6.25c0.777,1.995,1.999,3.819,3.534,5.313c3.096,3.01,7.424,4.458,11.58,4.284
			c4.139-0.113,8.183-1.714,11.346-4.497c1.577-1.396,2.89-3.127,3.823-5.068C102.316,74.296,102.774,72.125,102.785,69.952z"/>
	</g>
</g>
<g>
	
		<path style="fill:#39A935;stroke:#000000;stroke-width:0.25;stroke-linecap:round;stroke-linejoin:round;stroke-miterlimit:10;" d="
		M50.412,244.537c-0.153-0.006-1.893-23.022-4.073-34.475c-1.291-6.74-1.221-12.986,0.184-18.566
		c1.774-7.014,5.694-12.989,11.645-17.764l1.642,0.792c-13.02,10.442-13.388,25.007-11.413,35.385
		c2.155,11.299,4.554,34.588,4.408,34.606C52.352,244.549,51.213,244.549,50.412,244.537z"/>
	<circle style="fill:#FAAF40;stroke:#000000;stroke-miterlimit:10;" cx="51.531" cy="173.322" r="20.598"/>
	<g>
		<g>
			<path style="fill:#EDCD00;" d="M66.852,137.724c-3.107-2.407-8.272-2.246-9.598-2.162c0,0-6.004-2.592-10.248-0.995
				c-18.561,7.003-1.261,27.7,0.346,29.492c2.332,2.592,2.844,8.75,2.844,8.75l2.304,0.344c0,0,2.324-5.567,5.316-7.355
				C59.883,164.559,82.518,149.89,66.852,137.724z"/>
			<path d="M66.791,137.804c-1.328-0.997-2.942-1.536-4.574-1.778c-1.635-0.262-3.31-0.22-4.935-0.052
				c-0.049,0.005-0.096-0.001-0.139-0.015l-0.052-0.018c-2.13-0.727-4.425-1.158-6.61-1.118c-1.093,0.01-2.16,0.184-3.109,0.538
				c-1.032,0.402-2.032,0.889-2.977,1.438c-1.871,1.122-3.482,2.62-4.413,4.563c-0.939,1.938-1.119,4.235-0.817,6.469
				c0.293,2.249,1.083,4.438,2.074,6.507c1.008,2.067,2.236,4.03,3.612,5.876c0.694,0.918,1.417,1.815,2.172,2.678
				c0.374,0.446,0.761,0.804,1.177,1.329c0.388,0.505,0.693,1.042,0.964,1.59c1.058,2.215,1.562,4.535,1.874,6.93l-0.718-0.767
				l2.312,0.288l-0.966,0.545c0.769-1.814,1.66-3.503,2.821-5.124c0.587-0.801,1.243-1.58,2.078-2.26
				c0.21-0.169,0.434-0.33,0.671-0.48l0.567-0.368l1.128-0.779c1.506-1.049,2.949-2.193,4.333-3.394
				c1.39-1.194,2.705-2.47,3.892-3.842c1.199-1.36,2.282-2.816,3.137-4.386c0.857-1.563,1.47-3.276,1.549-5.065
				c0.082-1.783-0.391-3.605-1.324-5.199C69.584,140.311,68.251,138.961,66.791,137.804z M66.911,137.645
				c1.494,1.143,2.878,2.463,3.968,4.035c1.097,1.558,1.847,3.436,1.955,5.415c0.134,1.976-0.315,3.969-1.079,5.778
				c-0.772,1.815-1.857,3.459-3.069,4.97c-2.466,2.997-5.391,5.518-8.539,7.698c-0.395,0.271-0.799,0.532-1.209,0.789l-0.623,0.38
				c-0.162,0.097-0.323,0.204-0.482,0.325c-0.638,0.486-1.23,1.131-1.768,1.828c-1.07,1.398-1.99,3.023-2.73,4.641l-0.023,0.048
				c-0.169,0.369-0.563,0.564-0.944,0.498l-2.296-0.4l-0.021-0.003c-0.388-0.067-0.667-0.389-0.697-0.763
				c-0.183-2.207-0.563-4.502-1.344-6.556c-0.203-0.508-0.44-1.004-0.727-1.443c-0.269-0.413-0.701-0.882-1.042-1.35
				c-0.713-0.934-1.386-1.891-2.027-2.869c-2.544-3.905-4.874-8.024-5.939-12.675c-0.508-2.311-0.555-4.853,0.356-7.203
				c0.88-2.363,2.744-4.279,4.843-5.518c1.046-0.643,2.162-1.133,3.302-1.538c1.237-0.44,2.519-0.509,3.74-0.447
				c2.457,0.187,4.73,0.918,6.902,1.902l-0.19-0.033c1.711-0.021,3.399,0.177,5.055,0.521c0.827,0.173,1.635,0.431,2.423,0.734
				C65.49,136.714,66.248,137.127,66.911,137.645z"/>
		</g>
		<g>
			<path style="fill:#EDCD00;" d="M21.036,147.891c-3.247,2.207-4.692,7.169-5.016,8.458c0,0-4.325,4.915-4.111,9.439
				c0.918,19.812,25.95,9.755,28.156,8.778c3.179-1.413,9.197,0.005,9.197,0.005l1.043-2.087c0,0-4.584-3.931-5.357-7.326
				C44.408,162.811,37.445,136.751,21.036,147.891z"/>
			<path d="M21.093,147.973c-1.358,0.954-2.37,2.322-3.104,3.8c-0.753,1.472-1.232,3.08-1.569,4.677
				c-0.01,0.048-0.03,0.092-0.058,0.129l-0.032,0.043c-1.35,1.801-2.469,3.851-3.106,5.941c-0.328,1.042-0.491,2.11-0.448,3.121
				c0.064,1.109,0.217,2.208,0.448,3.276c0.488,2.127,1.415,4.122,2.975,5.607c1.552,1.491,3.682,2.371,5.9,2.773
				c2.229,0.416,4.555,0.341,6.829,0.037c2.278-0.32,4.523-0.881,6.704-1.62c1.088-0.376,2.165-0.788,3.218-1.238
				c0.54-0.218,1-0.476,1.627-0.709c0.601-0.212,1.205-0.337,1.811-0.424c2.434-0.32,4.795-0.081,7.168,0.363l-0.95,0.445
				l0.992-2.112l0.22,1.088c-1.488-1.292-2.82-2.66-4.004-4.265c-0.582-0.805-1.121-1.669-1.509-2.675
				c-0.096-0.252-0.18-0.514-0.25-0.787l-0.175-0.653l-0.393-1.313c-0.532-1.756-1.175-3.483-1.89-5.17
				c-0.707-1.69-1.513-3.336-2.452-4.889c-0.923-1.561-1.974-3.04-3.203-4.338c-1.223-1.298-2.662-2.41-4.339-3.039
				c-1.67-0.628-3.549-0.741-5.354-0.347C24.34,146.091,22.645,146.942,21.093,147.973z M20.978,147.809
				c1.549-1.068,3.232-1.976,5.064-2.527c1.82-0.562,3.838-0.695,5.755-0.186c1.92,0.484,3.677,1.527,5.162,2.812
				c1.487,1.296,2.717,2.836,3.779,4.455c2.089,3.271,3.583,6.831,4.684,10.499c0.136,0.461,0.259,0.924,0.377,1.394l0.168,0.711
				c0.042,0.184,0.094,0.37,0.16,0.559c0.265,0.756,0.696,1.518,1.192,2.245c1,1.449,2.263,2.826,3.573,4.029l0.039,0.036
				c0.299,0.275,0.362,0.71,0.181,1.053l-1.094,2.062l-0.01,0.019c-0.185,0.347-0.576,0.513-0.941,0.427
				c-2.154-0.51-4.456-0.859-6.649-0.753c-0.546,0.036-1.092,0.108-1.597,0.245c-0.476,0.128-1.056,0.394-1.605,0.574
				c-1.108,0.389-2.227,0.733-3.355,1.042c-4.5,1.213-9.136,2.156-13.89,1.734c-2.354-0.23-4.786-0.97-6.74-2.562
				c-1.976-1.567-3.222-3.932-3.751-6.311c-0.288-1.193-0.409-2.407-0.441-3.615c-0.039-1.312,0.293-2.553,0.729-3.695
				c0.937-2.279,2.334-4.214,3.941-5.976l-0.09,0.172c0.503-1.637,1.215-3.18,2.053-4.648c0.421-0.733,0.915-1.422,1.447-2.078
				C19.655,148.873,20.282,148.28,20.978,147.809z"/>
		</g>
		<g>
			<path style="fill:#EDCD00;" d="M16.549,194.603c1.097,3.77,5.367,6.676,6.491,7.386c0,0,3.338,5.632,7.708,6.83
				c19.129,5.243,17.303-21.67,17.049-24.062c-0.362-3.467,2.845-8.749,2.845-8.749l-1.658-1.638c0,0-5.154,3.143-8.628,2.832
				C37.963,176.985,11.028,175.554,16.549,194.603z"/>
			<path d="M16.644,194.573c0.487,1.586,1.476,2.972,2.654,4.126c1.167,1.172,2.548,2.123,3.962,2.941
				c0.042,0.025,0.077,0.057,0.103,0.094l0.032,0.045c1.295,1.84,2.899,3.538,4.69,4.79c0.89,0.634,1.855,1.12,2.831,1.392
				c1.072,0.282,2.166,0.475,3.253,0.587c2.173,0.192,4.357-0.073,6.252-1.097c1.898-1.015,3.394-2.768,4.463-4.752
				c1.085-1.992,1.733-4.227,2.147-6.483c0.4-2.265,0.56-4.574,0.531-6.876c-0.022-1.151-0.081-2.301-0.185-3.442
				c-0.041-0.58-0.146-1.099-0.173-1.767c-0.016-0.637,0.052-1.25,0.155-1.854c0.447-2.414,1.403-4.586,2.558-6.707l0.129,1.041
				l-1.697-1.598l1.104,0.129c-1.688,1.016-3.401,1.859-5.292,2.49c-0.946,0.304-1.934,0.55-3.009,0.609
				c-0.269,0.015-0.544,0.013-0.824-0.004l-0.679-0.037l-1.37-0.033c-1.834-0.037-3.675,0.04-5.5,0.198
				c-1.826,0.149-3.64,0.408-5.407,0.821c-1.77,0.396-3.501,0.938-5.115,1.705c-1.612,0.761-3.115,1.787-4.231,3.188
				c-1.113,1.395-1.802,3.146-1.985,4.984C15.858,190.903,16.144,192.778,16.644,194.573z M16.453,194.632
				c-0.537-1.803-0.879-3.685-0.837-5.597c0.029-1.905,0.526-3.865,1.602-5.53c1.054-1.677,2.588-3.025,4.269-4.04
				c1.692-1.014,3.536-1.707,5.404-2.217c3.756-0.976,7.604-1.297,11.433-1.209c0.479,0.013,0.959,0.04,1.442,0.073l0.725,0.06
				c0.188,0.017,0.382,0.024,0.581,0.02c0.802-0.02,1.66-0.195,2.504-0.442c1.688-0.503,3.387-1.278,4.936-2.152l0.047-0.026
				c0.354-0.2,0.788-0.125,1.059,0.155l1.617,1.678l0.016,0.016c0.271,0.282,0.308,0.706,0.113,1.025
				c-1.15,1.892-2.192,3.973-2.768,6.092c-0.134,0.531-0.233,1.071-0.261,1.595c-0.025,0.492,0.05,1.124,0.052,1.704
				c0.028,1.175,0.011,2.345-0.045,3.513c-0.235,4.655-0.772,9.357-2.645,13.746c-0.947,2.167-2.403,4.251-4.523,5.617
				c-2.101,1.394-4.735,1.848-7.161,1.616c-1.224-0.095-2.415-0.354-3.575-0.697c-1.26-0.37-2.337-1.069-3.288-1.837
				c-1.878-1.596-3.287-3.523-4.465-5.596l0.134,0.138c-1.398-0.987-2.647-2.14-3.783-3.391c-0.567-0.626-1.069-1.309-1.528-2.018
				C17.056,196.219,16.686,195.44,16.453,194.632z"/>
		</g>
		<g>
			<path style="fill:#EDCD00;" d="M59.588,213.305c3.923,0.124,8.01-3.046,9.027-3.894c0,0,6.388-1.43,8.879-5.217
				c10.9-16.57-15.259-23.151-17.614-23.652c-3.409-0.729-7.444-5.408-7.444-5.408l-2.066,1.071c0,0,1.395,5.871,0.027,9.077
				C49.445,187.497,39.765,212.67,59.588,213.305z"/>
			<path d="M59.59,213.205c1.659,0.027,3.282-0.486,4.744-1.249c1.475-0.749,2.805-1.769,4.018-2.861
				c0.037-0.033,0.078-0.056,0.123-0.07l0.051-0.016c2.15-0.663,4.262-1.662,6.007-2.978c0.878-0.65,1.639-1.418,2.198-2.261
				c0.6-0.933,1.122-1.914,1.563-2.913c0.855-2.007,1.278-4.167,0.889-6.285c-0.379-2.119-1.583-4.083-3.141-5.713
				c-1.559-1.648-3.484-2.954-5.503-4.045c-2.03-1.081-4.178-1.946-6.375-2.63c-1.102-0.335-2.214-0.635-3.332-0.889
				c-0.563-0.141-1.089-0.202-1.733-0.382c-0.61-0.182-1.173-0.436-1.714-0.721c-2.158-1.17-3.93-2.751-5.59-4.503l1.03,0.199
				l-2.04,1.121l0.463-1.01c0.443,1.92,0.716,3.81,0.73,5.804c-0.002,0.994-0.074,2.009-0.35,3.05
				c-0.07,0.26-0.156,0.521-0.26,0.782l-0.245,0.634l-0.454,1.292c-0.604,1.733-1.099,3.507-1.512,5.292
				c-0.423,1.783-0.738,3.588-0.891,5.396c-0.17,1.805-0.19,3.62,0.041,5.392c0.227,1.768,0.738,3.514,1.725,5.008
				c0.982,1.49,2.437,2.686,4.128,3.428C55.856,212.819,57.728,213.127,59.59,213.205z M59.586,213.405
				c-1.881-0.047-3.775-0.302-5.581-0.933c-1.803-0.616-3.514-1.694-4.765-3.232c-1.269-1.52-2.078-3.396-2.524-5.308
				c-0.442-1.923-0.531-3.891-0.439-5.825c0.233-3.874,1.117-7.633,2.385-11.247c0.161-0.452,0.334-0.9,0.516-1.35l0.281-0.671
				c0.074-0.173,0.142-0.355,0.199-0.547c0.229-0.768,0.328-1.638,0.354-2.519c0.043-1.76-0.168-3.616-0.521-5.36l-0.011-0.052
				c-0.08-0.398,0.125-0.788,0.474-0.958l2.092-1.021l0.02-0.009c0.353-0.172,0.767-0.076,1.011,0.208
				c1.445,1.678,3.104,3.311,4.94,4.514c0.464,0.292,0.946,0.554,1.437,0.741c0.46,0.177,1.084,0.301,1.636,0.479
				c1.126,0.336,2.233,0.715,3.327,1.129c4.353,1.664,8.659,3.627,12.255,6.764c1.769,1.571,3.302,3.599,3.945,6.037
				c0.677,2.429,0.295,5.075-0.676,7.31c-0.469,1.135-1.083,2.187-1.769,3.185c-0.741,1.084-1.738,1.892-2.763,2.559
				c-2.099,1.292-4.368,2.036-6.703,2.515l0.173-0.086c-1.369,1.026-2.851,1.857-4.391,2.552c-0.771,0.346-1.575,0.613-2.391,0.831
				C61.282,213.323,60.427,213.434,59.586,213.405z"/>
		</g>
		<g>
			<path style="fill:#EDCD00;" d="M90.676,178.154c1.328-3.697-0.42-8.56-0.911-9.796c0,0,0.608-6.514-2.219-10.053
				c-12.396-15.483-26.739,7.362-27.941,9.448c-1.747,3.015-7.441,5.401-7.441,5.401l0.38,2.304c0,0,6.016,0.483,8.642,2.774
				C62.997,179.819,83.95,196.81,90.676,178.154z"/>
			<path d="M90.581,178.122c0.538-1.57,0.552-3.273,0.277-4.9c-0.256-1.635-0.814-3.217-1.478-4.71
				c-0.02-0.044-0.028-0.091-0.027-0.136v-0.055c0.033-2.25-0.267-4.566-0.978-6.632c-0.347-1.036-0.843-1.997-1.471-2.791
				c-0.701-0.856-1.474-1.656-2.288-2.385c-1.646-1.432-3.568-2.501-5.703-2.785c-2.133-0.294-4.373,0.245-6.404,1.222
				c-2.048,0.973-3.886,2.4-5.548,3.982c-1.654,1.597-3.141,3.371-4.471,5.25c-0.659,0.944-1.287,1.909-1.875,2.893
				c-0.307,0.492-0.528,0.975-0.898,1.531c-0.361,0.525-0.776,0.98-1.215,1.408c-1.78,1.69-3.831,2.885-6.012,3.921l0.508-0.918
				l0.436,2.295l-0.818-0.753c1.965,0.17,3.846,0.494,5.747,1.094c0.944,0.309,1.888,0.691,2.794,1.275
				c0.225,0.147,0.447,0.31,0.664,0.489l0.526,0.428l1.089,0.832c1.462,1.108,2.996,2.128,4.566,3.073
				c1.565,0.953,3.184,1.81,4.857,2.515c1.664,0.72,3.383,1.3,5.14,1.628c1.752,0.332,3.57,0.386,5.297-0.091
				c1.721-0.473,3.308-1.485,4.535-2.865C89.06,181.553,89.932,179.868,90.581,178.122z M90.77,178.187
				c-0.626,1.774-1.454,3.499-2.611,5.02c-1.143,1.524-2.697,2.818-4.547,3.532c-1.839,0.737-3.872,0.925-5.828,0.758
				c-1.966-0.174-3.865-0.698-5.675-1.384c-3.613-1.42-6.914-3.421-9.959-5.744c-0.381-0.292-0.754-0.596-1.125-0.907l-0.551-0.475
				c-0.143-0.124-0.295-0.244-0.459-0.358c-0.66-0.456-1.457-0.818-2.285-1.114c-1.662-0.583-3.492-0.955-5.26-1.157l-0.052-0.006
				c-0.404-0.046-0.712-0.362-0.767-0.747l-0.324-2.314l-0.003-0.021c-0.055-0.389,0.165-0.752,0.511-0.897
				c2.043-0.854,4.109-1.925,5.82-3.3c0.421-0.35,0.82-0.729,1.148-1.137c0.31-0.384,0.621-0.937,0.961-1.408
				c0.666-0.967,1.369-1.903,2.101-2.815c2.927-3.626,6.124-7.114,10.22-9.564c2.04-1.196,4.442-2.027,6.959-1.887
				c2.519,0.106,4.917,1.286,6.744,2.899c0.934,0.796,1.745,1.704,2.483,2.665c0.801,1.04,1.261,2.238,1.579,3.419
				c0.581,2.394,0.588,4.782,0.324,7.151l-0.027-0.19c0.55,1.621,0.883,3.288,1.066,4.968c0.091,0.841,0.096,1.689,0.052,2.532
				C91.215,176.547,91.057,177.396,90.77,178.187z"/>
		</g>
	</g>
	<g>
		<path d="M50.583,170.364c2.258-19.016,4.561-27.574,4.561-27.574S54.184,152.932,50.583,170.364z"/>
		<path d="M47.041,171.973c-17.387-8.024-24.817-12.867-24.817-12.867S31.572,163.159,47.041,171.973z"/>
		<path d="M47.479,175.831c-13.005,14.058-19.904,19.626-19.904,19.626S34.311,187.82,47.479,175.831z"/>
		<path d="M51.277,176.615c9.356,16.713,12.522,24.994,12.522,24.994S58.613,192.835,51.277,176.615z"/>
		<path d="M53.203,173.237c18.78-3.73,27.633-4.179,27.633-4.179S70.893,171.277,53.203,173.237z"/>
	</g>
	<g>
		<circle style="fill:#E11E2D;" cx="51.532" cy="175.902" r="11.278"/>
		<path d="M62.91,175.904c-0.018,2.95-0.914,6.02-2.959,8.417c-2.005,2.425-5.225,3.841-8.441,3.69
			c-1.538-0.079-3.126-0.493-4.509-1.175c-1.393-0.689-2.626-1.636-3.675-2.731c-2.093-2.196-3.451-5.085-3.62-8.219
			c-0.084-1.514,0.113-3.131,0.664-4.61c0.541-1.49,1.415-2.864,2.522-4.017c2.208-2.322,5.37-3.749,8.667-3.704
			c1.552,0.036,3.216,0.355,4.659,1.035c1.465,0.656,2.749,1.67,3.754,2.871C62.005,169.878,62.916,172.944,62.91,175.904z
			 M62.711,175.901c-0.019-1.463-0.351-2.922-1.01-4.211c-0.645-1.295-1.588-2.406-2.659-3.298
			c-2.186-1.749-4.794-2.748-7.536-2.703c-2.618,0.017-5.328,1.023-7.284,2.901c-1.95,1.881-3.233,4.477-3.421,7.324
			c-0.068,1.374,0.098,2.843,0.622,4.173c0.507,1.341,1.327,2.566,2.361,3.56c1.039,0.993,2.307,1.721,3.642,2.161
			c1.346,0.452,2.71,0.617,4.125,0.539c2.698-0.123,5.35-1.139,7.51-2.914c1.066-0.902,2.01-2.015,2.654-3.313
			C62.375,178.828,62.701,177.37,62.711,175.901z"/>
	</g>
</g>
</svg>
