<?xml version="1.0" encoding="iso-8859-1"?>
<!-- Generator: Adobe Illustrator 21.1.0, SVG Export Plug-In . SVG Version: 6.00 Build 0)  -->
<svg version="1.1" id="Layer_1" xmlns="http://www.w3.org/2000/svg" xmlns:xlink="http://www.w3.org/1999/xlink" x="0px" y="0px"
	 width="378.437px" height="303.598px" viewBox="0 0 378.437 303.598" style="enable-background:new 0 0 378.437 303.598;"
	 xml:space="preserve">
<g>
	<path style="fill-rule:evenodd;clip-rule:evenodd;fill:#FF1FF0;" d="M260.906,44.069C234.808,1,149.828,1.086,141.808,16
		c-10.345,19.237,11.625,49.21-3,56C125.347,78.251,279.513,74.775,260.906,44.069z"/>
	<g>
		<path d="M260.906,44.069c-3.595-5.881-8.344-11.004-13.73-15.274c-5.394-4.278-11.431-7.679-17.701-10.464
			c-6.285-2.774-12.861-4.834-19.526-6.416c-6.672-1.57-13.456-2.627-20.271-3.21c-6.813-0.574-13.665-0.686-20.452-0.2
			c-3.392,0.245-6.767,0.645-10.082,1.261c-3.309,0.617-6.576,1.463-9.599,2.678c-1.499,0.615-2.943,1.342-4.14,2.24
			c-0.6,0.445-1.123,0.938-1.53,1.45c-0.203,0.26-0.359,0.514-0.503,0.788c-0.211,0.409-0.351,0.703-0.518,1.078
			c-1.292,2.885-1.846,6.085-1.975,9.338c-0.23,6.55,1.266,13.214,2.763,19.902c0.732,3.363,1.495,6.759,1.973,10.302
			c0.231,1.773,0.387,3.589,0.324,5.474c-0.07,1.874-0.359,3.864-1.253,5.773c-0.869,1.915-2.484,3.579-4.306,4.532
			c-0.227,0.121-0.455,0.237-0.685,0.343l-0.302,0.148c0.005-0.009,0.016-0.004,0.136-0.142c0.058-0.071,0.141-0.188,0.214-0.377
			c0.087-0.208,0.129-0.511,0.084-0.805c-0.12-0.612-0.407-0.807-0.472-0.875c-0.088-0.072-0.107-0.07-0.091-0.063
			c0.089,0.054,0.457,0.178,0.798,0.256c0.353,0.087,0.742,0.16,1.135,0.226c3.21,0.499,6.664,0.655,10.057,0.783
			c13.66,0.436,27.431-0.003,41.129-0.974c6.853-0.498,13.696-1.153,20.514-2.023c6.813-0.885,13.616-1.934,20.324-3.443
			c3.352-0.763,6.682-1.623,9.962-2.65c3.273-1.039,6.522-2.202,9.589-3.761c3.03-1.564,6.054-3.429,8.083-6.231
			c0.993-1.392,1.626-3.077,1.589-4.804C262.423,47.203,261.79,45.538,260.906,44.069z M260.906,44.069
			c0.894,1.462,1.543,3.125,1.578,4.86c0.051,1.735-0.575,3.439-1.565,4.848c-2.023,2.836-5.047,4.73-8.076,6.323
			c-6.16,3.126-12.815,5.129-19.49,6.82c-13.388,3.353-27.071,5.408-40.787,6.923c-6.862,0.746-13.743,1.334-20.639,1.763
			c-6.897,0.409-13.804,0.731-20.75,0.659c-3.485-0.06-6.931-0.124-10.54-0.602c-0.457-0.067-0.917-0.142-1.402-0.249
			c-0.495-0.117-0.967-0.213-1.653-0.537c-0.177-0.089-0.38-0.2-0.635-0.408c-0.228-0.204-0.663-0.575-0.818-1.402
			c-0.067-0.4-0.001-0.812,0.119-1.122c0.115-0.29,0.255-0.497,0.381-0.652c0.255-0.306,0.44-0.432,0.62-0.566
			c0.178-0.123,0.312-0.204,0.483-0.294l0.347-0.176c0.159-0.077,0.312-0.161,0.464-0.245c1.202-0.694,2.093-1.632,2.656-2.858
			c1.135-2.481,0.967-5.851,0.524-9.087c-0.461-3.281-1.238-6.607-1.982-9.966c-1.44-6.722-2.997-13.659-2.702-20.928
			c0.153-3.614,0.903-7.31,2.493-10.696c0.19-0.408,0.434-0.885,0.626-1.237c0.263-0.484,0.577-0.955,0.915-1.365
			c0.682-0.822,1.449-1.49,2.243-2.054c1.59-1.133,3.275-1.915,4.968-2.571c3.394-1.303,6.876-2.007,10.349-2.545
			c3.477-0.518,6.964-0.803,10.447-0.929c6.967-0.248,13.92,0.118,20.804,0.946c13.75,1.691,27.313,5.22,39.823,11.102
			c6.254,2.92,12.206,6.512,17.565,10.851C252.637,32.996,257.355,38.162,260.906,44.069z"/>
	</g>
</g>
<path style="fill-rule:evenodd;clip-rule:evenodd;fill:#FF1FF0;stroke:#000000;stroke-width:4;stroke-linecap:round;stroke-linejoin:round;stroke-miterlimit:10;" d="
	M360.662,201.045c2.015-3.206-0.918-5.635,1.033-9.96c1.948-4.324,9.773-10.348,9.861-13.498C372.808,133,368.808,87,298.808,51
	c-65.057-33.458-159-16-194.594,66.565c-1.771,4.106-5.073,0.435-5.073,0.435s-32-60.667-92-19.333
	c-6.57,4.526,65.085,67.122,37.333,88.667c-25.718,19.965-2.182,64.028,1.333,63.666c55.25-5.687,53.919-32.69,55.333-30.333
	c4.881,8.134,14,28.667,41.334,48.667C164.592,285.517,269.141,346.667,360.662,201.045z"/>
<g>
	<circle style="fill-rule:evenodd;clip-rule:evenodd;fill:#FFFFFF;" cx="321.543" cy="143.735" r="25.735"/>
	<path d="M347.478,143.736c-0.021,6.745-2.182,13.689-6.837,19.098c-2.325,2.668-5.259,4.889-8.569,6.32
		c-3.316,1.433-6.927,2.104-10.55,1.981c-3.544-0.129-7.1-1.053-10.252-2.599c-3.164-1.547-5.998-3.648-8.383-6.145
		c-4.779-4.97-7.844-11.596-8.174-18.67c-0.171-3.477,0.304-7.1,1.566-10.451c1.242-3.364,3.227-6.464,5.736-9.063
		c2.507-2.604,5.538-4.722,8.879-6.179c3.351-1.469,6.983-2.164,10.675-2.162c3.582,0.07,7.275,0.788,10.561,2.308
		c3.316,1.472,6.236,3.737,8.54,6.432C345.329,130.025,347.497,136.984,347.478,143.736z M347.078,143.734
		c-0.034-1.671-0.206-3.339-0.582-4.963c-0.403-1.615-0.925-3.202-1.676-4.677c-1.448-2.975-3.574-5.548-6.01-7.626
		c-4.945-4.09-11.03-6.436-17.294-6.335c-6.124,0.024-12.331,2.386-16.84,6.735c-4.494,4.342-7.406,10.38-7.773,16.881
		c-0.138,3.192,0.276,6.526,1.487,9.576c1.174,3.065,3.05,5.868,5.415,8.149c2.379,2.27,5.248,3.992,8.311,5.022
		c3.071,1.041,6.255,1.44,9.449,1.309c3.115-0.121,6.243-0.773,9.15-1.927c2.917-1.146,5.687-2.749,8.125-4.847
		c2.437-2.084,4.565-4.662,6.011-7.643C346.307,150.419,347.097,147.085,347.078,143.734z"/>
</g>
<circle style="fill-rule:evenodd;clip-rule:evenodd;fill:#171516;" cx="323.368" cy="144.431" r="14.607"/>
<circle style="fill-rule:evenodd;clip-rule:evenodd;fill:#FFFFFF;" cx="316.412" cy="136.084" r="6.956"/>
<path style="fill-rule:evenodd;clip-rule:evenodd;fill:#B61FF0;" d="M221.141,250.667l15.333-2c0,0-28.667,40.667-54,37.333
	c-9.277-1.221-20.667-6-20.667-6l31.333-22.666L221.141,250.667z"/>
<g>
	<path style="fill-rule:evenodd;clip-rule:evenodd;fill:#FF1FF0;" d="M237.085,246.797C191.808,298,90.62,275.224,116.695,256.738
		c19.869-14.085,18.208-37.356,41.638-35.901"/>
	<path d="M237.085,246.797c-5.287,6.67-11.867,12.333-19.096,16.953c-7.259,4.594-15.178,8.146-23.389,10.716
		c-16.446,5.132-33.932,6.695-51.094,4.876c-4.29-0.498-8.563-1.225-12.783-2.285c-4.21-1.082-8.406-2.414-12.357-4.593
		c-1.962-1.104-3.902-2.386-5.534-4.275c-0.8-0.948-1.528-2.088-1.89-3.464c-0.38-1.366-0.259-2.93,0.263-4.205
		c1.057-2.568,3.092-4.132,4.866-5.347c1.697-1.178,3.272-2.456,4.785-3.859c3.019-2.793,5.624-6.038,8.061-9.447
		c2.444-3.41,4.646-7.049,7.218-10.51c2.562-3.424,5.613-6.78,9.589-8.697c3.947-1.962,8.412-2.294,12.609-1.823
		c-4.232-0.077-8.537,0.657-12.107,2.762c-3.585,2.092-6.268,5.354-8.544,8.845c-2.292,3.501-4.343,7.224-6.664,10.842
		c-2.302,3.627-4.946,7.12-8.053,10.216c-1.546,1.541-3.226,3.003-4.973,4.308c-0.876,0.643-1.561,1.205-2.198,1.884
		c-0.623,0.656-1.114,1.368-1.369,2.066c-0.253,0.701-0.282,1.362-0.083,2.044c0.193,0.681,0.629,1.383,1.21,2.036
		c1.177,1.315,2.841,2.415,4.592,3.336c3.55,1.828,7.504,3.118,11.516,4.101c4.023,0.979,8.144,1.65,12.289,2.1
		c8.292,0.933,16.702,1.015,25.044,0.343c8.352-0.607,16.633-2.075,24.715-4.268c8.064-2.246,15.929-5.308,23.266-9.406
		C224.335,257.993,231.128,252.862,237.085,246.797z"/>
</g>
<path style="fill-rule:evenodd;clip-rule:evenodd;fill:#B61FF0;" d="M91.141,184c6.667,16.667-2.047,18.283-9.333,39.334
	c-7.52,21.723-34.667,25.333-34.667,25.333s24.667-2.666,35.333-10c14.843-10.205,18.082-18.521,18-24.667
	c-0.191-14.361-7.158-26.985-7.334-38c-0.436-27.335,6-44.879,6-55.333c0-0.666-4.666-6-12-14.667
	c-9.677-11.436-23.204-18.03-36.666-19.333c-20.667-2,57.536,10.743,38,54C79.141,161.334,88.556,177.538,91.141,184z"/>
<g>
	<path d="M104.986,119.439c-2.191,4.972-4.096,10.215-5.766,15.469c-1.663,5.271-3.078,10.628-4.154,16.058
		c-1.072,5.428-1.811,10.933-2.013,16.475c-0.194,5.535,0.144,11.126,1.421,16.56c-1.602-5.349-2.284-10.964-2.421-16.566
		c-0.131-5.61,0.283-11.232,1.04-16.798c0.761-5.569,1.871-11.089,3.241-16.545c1.387-5.466,2.972-10.83,4.962-16.195
		c0.384-1.036,1.536-1.565,2.573-1.181c1.036,0.385,1.564,1.536,1.18,2.573c-0.013,0.036-0.027,0.071-0.042,0.105L104.986,119.439z"
		/>
</g>
<g>
	<path d="M370.969,177.117c-2.18,3.86-4.897,7.377-7.844,10.689c-2.95,3.315-6.21,6.362-9.702,9.147
		c-3.505,2.766-7.308,5.189-11.355,7.139c-4.054,1.928-8.283,3.51-12.642,4.595c-4.353,1.1-8.843,1.68-13.324,1.666
		c-4.507-0.011-8.933-0.629-13.244-1.788c-8.597-2.384-16.41-6.862-23.171-12.405l0.242-0.318c7.11,5.01,14.998,9.001,23.407,10.781
		c8.37,1.886,17.125,1.459,25.241-1.021c4.063-1.23,7.972-2.948,11.673-5.027c3.711-2.063,7.29-4.361,10.778-6.824
		c6.98-4.931,13.472-10.643,19.618-16.867L370.969,177.117z"/>
</g>
<circle style="fill-rule:evenodd;clip-rule:evenodd;fill:#B61FF0;" cx="159.931" cy="88.462" r="16.499"/>
<circle style="fill-rule:evenodd;clip-rule:evenodd;fill:#B61FF0;" cx="228.928" cy="71.964" r="16.499"/>
<circle style="fill-rule:evenodd;clip-rule:evenodd;fill:#B61FF0;" cx="198.929" cy="127.461" r="16.499"/>
<circle style="fill-rule:evenodd;clip-rule:evenodd;fill:#B61FF0;" cx="258.926" cy="139.46" r="16.499"/>
<circle style="fill-rule:evenodd;clip-rule:evenodd;fill:#B61FF0;" cx="288.924" cy="80.963" r="16.499"/>
<circle style="fill-rule:evenodd;clip-rule:evenodd;fill:#B61FF0;" cx="194.429" cy="182.958" r="16.499"/>
<circle style="fill-rule:evenodd;clip-rule:evenodd;fill:#B61FF0;" cx="138.932" cy="148.459" r="16.499"/>
</svg>
