<?xml version="1.0" encoding="iso-8859-1"?>
<!-- Generator: Adobe Illustrator 21.1.0, SVG Export Plug-In . SVG Version: 6.00 Build 0)  -->
<svg version="1.1" id="cupboard" xmlns="http://www.w3.org/2000/svg" xmlns:xlink="http://www.w3.org/1999/xlink" x="0px" y="0px"
	 width="344.82px" height="330.762px" viewBox="0 0 344.82 330.762" style="enable-background:new 0 0 344.82 330.762;"
	 xml:space="preserve">
<g>
	<path style="fill-rule:evenodd;clip-rule:evenodd;fill:#696868;" d="M171.095,134.798l1,110.188l-3.175,13.698
		c0,0-0.022,37.908,2.949,47.862c4.38,14.669,20.294,19.423,34.62,10.905c14.324-8.518,11.453-31.037,7.581-36.071
		c-3.872-5.032-10.453-0.388-9.68,3.098c0.774,3.483,4.808,11.615-0.226,19.358c-5.033,7.744-21.455,5.42-23.391-3.485
		c-1.936-8.904-1.4-40.197-1.4-40.197l-2.798-15.804l0.208-109.555l-1.164-0.004C174.105,134.785,172.596,134.788,171.095,134.798z"
		/>
	<path style="fill:#1D1D1B;" d="M171.197,134.9l0.621,27.44l0.515,27.544l0.416,27.545l0.359,27.547l0.002,0.118l-0.027,0.12
		l-3.17,13.699l0.027-0.23c0.044,9.682,0.277,19.381,0.78,29.04c0.259,4.825,0.565,9.663,1.243,14.399
		c0.176,1.18,0.378,2.355,0.658,3.48c0.069,0.28,0.145,0.559,0.229,0.824c0.09,0.293,0.18,0.582,0.273,0.844
		c0.182,0.541,0.399,1.091,0.626,1.623c0.919,2.134,2.185,4.112,3.764,5.801c3.147,3.406,7.594,5.486,12.229,5.97
		c4.647,0.515,9.425-0.476,13.703-2.477c1.069-0.503,2.12-1.061,3.126-1.682c0.983-0.607,1.916-1.324,2.773-2.114
		c1.721-1.578,3.13-3.494,4.211-5.585c2.165-4.2,3.054-9.02,3.082-13.784c0.01-2.388-0.197-4.783-0.656-7.124
		c-0.229-1.17-0.527-2.326-0.918-3.44c-0.4-1.109-0.866-2.197-1.596-3.061c-0.711-0.855-1.68-1.512-2.763-1.709
		c-1.081-0.21-2.24,0.012-3.244,0.531c-1.001,0.52-1.888,1.328-2.392,2.316c-0.249,0.492-0.391,1.031-0.353,1.553
		c0.051,0.501,0.252,1.122,0.415,1.685c0.715,2.305,1.439,4.672,1.721,7.123c0.294,2.443,0.155,4.977-0.613,7.34
		c-0.379,1.181-0.907,2.312-1.553,3.367c-0.619,1.057-1.507,2.037-2.506,2.768c-2.027,1.484-4.495,2.213-6.948,2.416
		c-2.464,0.194-4.964-0.117-7.305-0.93c-2.325-0.815-4.553-2.167-6.063-4.214c-0.752-1.012-1.276-2.218-1.52-3.448
		c-0.249-1.215-0.404-2.424-0.555-3.637c-0.285-2.424-0.465-4.85-0.613-7.277c-0.29-4.855-0.441-9.712-0.542-14.568
		c-0.084-4.859-0.171-9.713-0.099-14.576l0.013,0.16l-2.809-15.801l-0.013-0.073v-0.077c-0.008-9.129-0.038-18.259,0.038-27.388
		l0.15-27.389l0.271-27.388c0.078-9.129,0.255-18.259,0.395-27.388l0.203,0.205L171.197,134.9z M170.995,134.7l5.789-0.109
		l0.202-0.003l0.002,0.208c0.105,9.13,0.247,18.26,0.29,27.389l0.166,27.389l0.047,27.389c0.041,9.129-0.023,18.259-0.065,27.389
		l-0.013-0.15l2.786,15.807l0.014,0.08l-0.001,0.08c-0.176,9.683-0.336,19.389-0.017,29.066c0.087,2.418,0.204,4.836,0.425,7.238
		c0.264,2.391,0.413,4.863,1.85,6.733c1.371,1.894,3.465,3.205,5.689,4.002c2.237,0.796,4.651,1.117,7.025,0.948
		c2.362-0.174,4.74-0.858,6.629-2.277c1.907-1.389,3.051-3.608,3.8-5.84c0.722-2.266,0.843-4.691,0.545-7.057
		c-0.287-2.377-1.002-4.674-1.736-6.992c-0.17-0.6-0.37-1.135-0.463-1.84c-0.06-0.693,0.116-1.371,0.403-1.962
		c0.588-1.188,1.573-2.101,2.707-2.716c1.134-0.609,2.483-0.902,3.799-0.67c1.322,0.223,2.491,0.994,3.337,1.984
		c0.855,0.99,1.373,2.172,1.81,3.328c0.429,1.169,0.754,2.363,1.01,3.57c0.511,2.414,0.755,4.873,0.78,7.336
		c0.035,4.91-0.8,9.92-3.03,14.406c-1.114,2.23-2.594,4.308-4.427,6.036c-0.916,0.866-1.903,1.648-2.975,2.331
		c-1.051,0.668-2.137,1.265-3.256,1.809c-4.463,2.164-9.522,3.307-14.556,2.822c-5.018-0.453-9.929-2.723-13.415-6.441
		c-3.52-3.674-5.523-8.672-6.141-13.562c-0.736-4.865-1.081-9.723-1.384-14.582c-0.536-9.721-0.693-19.431-0.722-29.156v-0.115
		l0.027-0.115l3.18-13.697l-0.025,0.238l-0.141-27.547l-0.084-27.549l0.015-27.549L170.995,134.7z"/>
</g>
<g>
	<path style="fill-rule:evenodd;clip-rule:evenodd;fill:#FFC000;" d="M8.426,135.181c0,0,49.612-56.024,72.561-68.511
		c22.949-12.488,60.074-21.6,82.348-21.938c22.274-0.338-32.395,4.587-48.611,39.149c-20.146,42.937-24.624,59.737-28.337,56.699
		c-3.713-3.037-21.262-8.438-44.887-8.1C17.876,132.818,8.426,135.181,8.426,135.181z"/>
	<g>
		<path style="fill:#1D1D1B;" d="M8.352,135.115c10.945-12.77,22.357-25.14,34.213-37.089c5.959-5.943,12.027-11.785,18.338-17.377
			c3.151-2.802,6.392-5.51,9.756-8.074c3.364-2.552,6.842-5.026,10.629-7.008c7.513-3.925,15.397-6.999,23.387-9.67
			c8.003-2.646,16.138-4.852,24.343-6.728c4.104-0.933,8.239-1.729,12.385-2.453c4.146-0.726,8.315-1.333,12.507-1.762
			c4.191-0.427,8.404-0.669,12.635-0.641c0.535,0.014,1.059,0.021,1.637,0.113c0.149,0.028,0.293,0.049,0.505,0.151
			c0.061,0.037,0.118,0.062,0.198,0.149c0.075,0.068,0.162,0.241,0.152,0.397c-0.04,0.334-0.174,0.394-0.24,0.477
			c-0.303,0.259-0.535,0.349-0.789,0.481c-0.992,0.459-1.975,0.814-2.961,1.19c-1.972,0.737-3.937,1.467-5.887,2.236
			c-7.795,3.065-15.352,6.751-22.285,11.375c-6.904,4.628-13.173,10.302-17.76,17.177c-1.142,1.717-2.178,3.502-3.083,5.35
			c-0.888,1.857-1.768,3.798-2.642,5.695c-1.751,3.817-3.479,7.644-5.184,11.481c-3.418,7.672-6.797,15.358-10.139,23.075
			c-1.689,3.853-3.348,7.715-5.213,11.532c-0.473,0.953-0.959,1.903-1.498,2.844c-0.551,0.94-1.106,1.876-1.946,2.778
			c-0.435,0.422-0.957,0.959-1.943,1.093c-0.486,0.055-1.003-0.096-1.355-0.318c-0.396-0.257-0.513-0.388-0.692-0.505
			c-0.764-0.53-1.684-0.984-2.607-1.396c-3.752-1.624-7.807-2.721-11.862-3.631c-4.07-0.897-8.2-1.557-12.351-2.029
			c-4.153-0.461-8.327-0.771-12.51-0.889c-4.18-0.116-8.382-0.044-12.576,0.051c-4.194,0.12-8.389,0.279-12.574,0.583
			c-4.18,0.32-8.376,0.695-12.486,1.505c-0.054,0.012-0.108-0.021-0.121-0.075C8.322,135.172,8.332,135.138,8.352,135.115z
			 M8.711,135.027c4.013-0.911,8.09-1.426,12.17-1.879c4.187-0.444,8.387-0.766,12.592-0.965c4.206-0.194,8.41-0.365,12.636-0.347
			c4.222,0.024,8.446,0.217,12.653,0.641c4.206,0.417,8.398,1.025,12.549,1.877c4.149,0.872,8.27,1.913,12.266,3.571
			c0.998,0.432,1.984,0.888,2.96,1.541c0.258,0.174,0.532,0.4,0.582,0.421c0.095,0.051,0.11,0.044,0.148,0.041
			c0.075,0.008,0.412-0.186,0.699-0.503c0.597-0.638,1.142-1.513,1.643-2.388c0.503-0.884,0.973-1.807,1.431-2.738
			c1.814-3.741,3.464-7.611,5.137-11.46c3.334-7.712,6.638-15.453,10.12-23.112c1.74-3.83,3.501-7.651,5.285-11.461
			c0.9-1.913,1.77-3.793,2.71-5.72c0.961-1.919,2.055-3.768,3.254-5.54c4.812-7.116,11.352-12.846,18.453-17.451
			c7.116-4.635,14.875-8.132,22.772-11.062c1.975-0.736,3.964-1.431,5.943-2.128c0.983-0.353,1.985-0.697,2.909-1.104
			c0.215-0.097,0.469-0.228,0.566-0.312c0.025-0.006-0.005-0.048-0.039,0.15c0.02,0.238,0.141,0.263,0.12,0.256
			c-0.023-0.015-0.141-0.051-0.249-0.069c-0.459-0.083-0.99-0.108-1.503-0.129c-4.176-0.128-8.37,0.091-12.542,0.491
			c-8.35,0.797-16.637,2.267-24.803,4.203c-8.176,1.902-16.239,4.283-24.132,7.113c-7.889,2.826-15.634,6.092-22.969,10.067
			c-3.654,1.943-7.04,4.385-10.349,6.932c-3.297,2.563-6.495,5.267-9.666,8.004c-6.32,5.503-12.422,11.272-18.416,17.149
			C31.707,110.782,20.127,122.826,8.711,135.027z"/>
	</g>
</g>
<g>
	<path style="fill-rule:evenodd;clip-rule:evenodd;fill:#EFFF00;" d="M88.591,142.678c0,0,22.274-53.659,30.374-65.473
		c8.101-11.812,30.713-31.725,54.337-32.062c23.625-0.337,36.449,24.637,42.188,38.137c5.736,13.5,25.986,57.711,22.273,57.035
		c-3.712-0.674-38.811-8.437-82.011-5.398C112.553,137.954,88.591,142.678,88.591,142.678z"/>
	<path style="fill:#1D1D1B;" d="M88.499,142.639c6.263-15.886,12.851-31.642,19.998-47.17c1.811-3.871,3.658-7.728,5.63-11.535
		c0.989-1.902,2.006-3.793,3.129-5.648c1.128-1.873,2.437-3.616,3.798-5.293c2.729-3.358,5.785-6.416,9.015-9.265
		c3.232-2.847,6.653-5.478,10.245-7.855c7.201-4.699,15.146-8.428,23.611-10.181c4.22-0.85,8.57-1.251,12.874-0.821
		c4.305,0.424,8.505,1.752,12.288,3.817c3.799,2.051,7.153,4.815,10.162,7.868c3.008,3.067,5.632,6.486,7.977,10.071
		c2.334,3.595,4.401,7.356,6.285,11.202c1.882,3.857,3.498,7.804,5.277,11.679c3.502,7.782,7.065,15.542,10.455,23.383
		c1.701,3.918,3.381,7.847,4.998,11.808c1.599,3.975,3.195,7.927,4.416,12.125c0.145,0.532,0.279,1.069,0.385,1.639
		c0.052,0.287,0.097,0.579,0.115,0.909c0.01,0.165,0.011,0.343-0.007,0.547c-0.035,0.212-0.037,0.456-0.296,0.843
		c-0.138,0.195-0.396,0.4-0.686,0.473c-0.249,0.074-0.561,0.026-0.614,0.013l-0.403-0.075l-0.788-0.152l-1.568-0.301
		c-2.089-0.396-4.183-0.768-6.28-1.115c-4.195-0.695-8.407-1.297-12.629-1.815c-8.445-1.024-16.922-1.811-25.421-2.207
		c-8.498-0.419-17.011-0.447-25.513-0.196c-4.256,0.123-8.492,0.37-12.752,0.663c-4.254,0.286-8.506,0.6-12.756,0.948
		c-8.498,0.698-16.994,1.453-25.47,2.408c-8.473,0.964-16.952,1.951-25.364,3.37c-0.055,0.01-0.107-0.027-0.117-0.081
		C88.489,142.675,88.492,142.656,88.499,142.639z M88.761,142.545c16.699-3.307,33.611-5.412,50.546-7.105
		c4.252-0.409,8.507-0.785,12.765-1.132c4.251-0.352,8.533-0.663,12.808-0.848c8.556-0.392,17.128-0.309,25.682,0.062
		c8.553,0.398,17.096,1.082,25.587,2.199c4.245,0.555,8.48,1.194,12.699,1.928c2.109,0.367,4.215,0.758,6.315,1.174l1.573,0.314
		l0.781,0.157l0.384,0.074c0.077,0.013-0.1-0.025-0.218,0.02c-0.16,0.037-0.309,0.157-0.366,0.247
		c-0.104,0.167-0.057,0.138-0.06,0.087c0.005-0.062,0.008-0.15,0.003-0.252c-0.009-0.203-0.041-0.439-0.083-0.678
		c-0.084-0.48-0.204-0.98-0.336-1.478c-1.123-4.014-2.711-8-4.238-11.962c-1.555-3.963-3.175-7.907-4.818-11.841l-9.999-23.565
		c-1.71-3.914-3.259-7.9-5.052-11.749c-1.784-3.859-3.796-7.616-6.099-11.189c-2.3-3.57-4.876-6.972-7.827-10.023
		c-2.946-3.049-6.318-5.7-10.049-7.689c-3.728-1.984-7.834-3.26-12.036-3.608c-4.206-0.323-8.448,0.165-12.562,1.091
		c-8.248,1.896-15.94,5.743-22.928,10.472c-7.012,4.72-13.396,10.414-18.824,16.856c-1.341,1.623-2.615,3.292-3.705,5.067
		c-1.103,1.787-2.125,3.648-3.121,5.523c-1.986,3.755-3.86,7.582-5.699,11.426C102.554,111.448,95.671,127.005,88.761,142.545z"/>
</g>
<g>
	<path style="fill-rule:evenodd;clip-rule:evenodd;fill:#EFFF00;" d="M178.602,45.48c0,0,40.307-1.35,84.467,23.963
		c44.16,25.311,70.096,65.811,72.899,65.811c2.804,0-36.1-8.775-60.983-5.062c-24.885,3.712-37.852,9.787-37.852,9.787
		s-21.73-56.023-34.348-74.247C190.169,47.506,178.602,45.48,178.602,45.48z"/>
	<g>
		<path style="fill:#1D1D1B;" d="M178.6,45.38c6.026-0.209,12.048,0.265,18.034,0.943c5.986,0.711,11.927,1.794,17.808,3.133
			c11.772,2.659,23.237,6.645,34.241,11.614c5.508,2.479,10.875,5.276,16.07,8.348c5.207,3.07,10.264,6.379,15.11,9.978
			c9.726,7.152,18.738,15.204,27.242,23.721c4.262,4.251,8.364,8.658,12.367,13.15c4.03,4.467,7.91,9.07,11.786,13.661
			c0.971,1.144,1.946,2.287,2.967,3.37c0.506,0.526,1.042,1.097,1.576,1.452c0.064,0.043,0.124,0.067,0.161,0.082
			c0.013,0.006,0.032,0.002-0.007,0.004c0.016-0.001,0.064-0.002,0.053-0.003c-0.041,0.039,0.064-0.091-0.225,0.13
			c-0.188,0.74,0.156,0.512,0.066,0.58c0.009,0.005-0.005-0.002-0.016-0.006l-0.103-0.039l-0.248-0.08
			c-0.346-0.102-0.708-0.193-1.068-0.281c-2.903-0.687-5.86-1.226-8.813-1.734c-5.914-1.001-11.867-1.778-17.833-2.345
			c-5.966-0.556-11.949-0.937-17.926-0.929c-5.987,0.003-11.91,0.395-17.796,1.478c-5.903,0.989-11.768,2.209-17.549,3.723
			c-2.89,0.757-5.759,1.589-8.594,2.514c-2.816,0.936-5.676,1.915-8.325,3.088l-0.019,0.008c-0.532,0.236-1.154-0.004-1.391-0.536
			l-0.018-0.044c-3.445-8.839-7.031-17.641-10.727-26.386c-3.706-8.741-7.436-17.475-11.476-26.06
			c-2.014-4.295-4.114-8.546-6.32-12.736c-2.218-4.194-4.564-8.271-7.41-12.056c-2.812-3.788-5.95-7.35-9.509-10.456
			c-1.781-1.548-3.675-2.971-5.69-4.205c-2.016-1.212-4.155-2.309-6.436-2.882l-0.006-0.002c-0.054-0.013-0.086-0.067-0.073-0.121
			C178.518,45.412,178.556,45.382,178.6,45.38z M178.62,45.382c2.356,0.508,4.538,1.538,6.626,2.697
			c2.082,1.178,4.05,2.554,5.908,4.061c3.726,3.01,7.003,6.545,9.936,10.323c2.963,3.752,5.475,7.881,7.794,12.033
			c2.334,4.164,4.471,8.424,6.564,12.701c4.158,8.569,8.098,17.237,11.834,25.988c3.73,8.756,7.346,17.551,10.832,26.414
			l-1.427-0.572c5.657-2.472,11.439-4.151,17.305-5.666c5.861-1.484,11.79-2.668,17.751-3.617c2.97-0.48,6.002-0.904,9.029-1.093
			c3.028-0.21,6.059-0.258,9.082-0.221c6.047,0.089,12.074,0.523,18.064,1.218c5.989,0.695,11.947,1.616,17.868,2.732
			c2.96,0.566,5.909,1.161,8.844,1.912c0.367,0.097,0.733,0.196,1.105,0.314l0.287,0.098l0.159,0.065
			c0.032,0.015,0.061,0.028,0.11,0.058c-0.059,0.09,0.355-0.106,0.137,0.678c-0.326,0.251-0.273,0.122-0.358,0.167l-0.088,0.003
			c-0.134-0.003-0.206-0.024-0.283-0.049c-0.139-0.051-0.248-0.111-0.34-0.172c-0.708-0.498-1.185-1.059-1.712-1.619
			c-1.016-1.128-1.979-2.283-2.949-3.434c-3.848-4.622-7.686-9.24-11.68-13.727c-4.006-4.475-8.161-8.813-12.443-13.02
			c-17.188-16.757-36.857-30.994-58.612-41.013c-10.849-5.06-22.216-8.972-33.821-11.934c-5.809-1.469-11.695-2.628-17.623-3.526
			c-5.928-0.89-11.913-1.511-17.913-1.599L178.62,45.382z"/>
	</g>
</g>
<path style="fill-rule:evenodd;clip-rule:evenodd;fill:#1D1D1B;" d="M168.536,45.193l1.485-2.26l1.153-34.119
	c0,0,0.673-0.675,1.729-0.579c1.058,0.097,1.635,0.675,1.635,0.675l1.633,33.734l2.076,2.591
	C174.894,45.175,171.658,45.162,168.536,45.193z"/>
</svg>
