<?xml version="1.0" standalone="no"?>
<!DOCTYPE svg PUBLIC "-//W3C//DTD SVG 1.0//EN" "http://www.w3.org/TR/2001/REC-SVG-20010904/DTD/svg10.dtd">
<svg xmlns="http://www.w3.org/2000/svg" xmlns:xlink="http://www.w3.org/1999/xlink" width="345px" height="331px" viewBox = "0 0 345 331">
<g transform="translate(0,331) scale(1,-1)">
	<g id="Layer 1" >
		<path id="" d="M171.1 196.2L172.1 86.01L168.9 72.32c0 0-0.022-37.9 2.95-47.9c4.38-14.7 20.3-19.4 34.6-10.9c14.3 8.52 11.5 31 7.58 36.1c-3.87 5.03-10.5 0.388-9.68-3.1c0.774-3.48 4.81-11.6-0.226-19.4c-5.03-7.74-21.5-5.42-23.4 3.48c-1.94 8.9-1.4 40.2-1.4 40.2L176.6 86.65L176.8 196.2L175.6 196.2c-1.51 0.00601-3.02 0.00302-4.52-0.00699Z" fill="rgb(41.2%,40.8%,40.8%)"  />
		<path id="" d="M171.2 196.1L171.8 168.7L172.3 141.1L172.7 113.6L173.1 86.02L173.1 85.91L173.1 85.79L169.9 72.09L169.9 72.32c0.044-9.68 0.277-19.4 0.78-29c0.259-4.83 0.565-9.66 1.24-14.4c0.176-1.18 0.378-2.36 0.658-3.48c0.069-0.28 0.145-0.559 0.229-0.824c0.09-0.293 0.18-0.582 0.273-0.844c0.182-0.541 0.399-1.09 0.626-1.62c0.919-2.13 2.18-4.11 3.76-5.8c3.15-3.41 7.59-5.49 12.2-5.97c4.65-0.515 9.43 0.476 13.7 2.48c1.07 0.503 2.12 1.06 3.13 1.68c0.983 0.607 1.92 1.32 2.77 2.11c1.72 1.58 3.13 3.49 4.21 5.58c2.16 4.2 3.05 9.02 3.08 13.8c0.00999 2.39-0.197 4.78-0.656 7.12c-0.229 1.17-0.527 2.33-0.918 3.44c-0.4 1.11-0.866 2.2-1.6 3.06c-0.711 0.855-1.68 1.51-2.76 1.71c-1.08 0.21-2.24-0.012-3.24-0.531c-1-0.52-1.89-1.33-2.39-2.32c-0.249-0.492-0.391-1.03-0.353-1.55c0.051-0.501 0.252-1.12 0.415-1.68c0.715-2.3 1.44-4.67 1.72-7.12c0.294-2.44 0.155-4.98-0.613-7.34c-0.379-1.18-0.907-2.31-1.55-3.37c-0.619-1.06-1.51-2.04-2.51-2.77c-2.03-1.48-4.49-2.21-6.95-2.42c-2.46-0.194-4.96 0.117-7.3 0.93c-2.32 0.815-4.55 2.17-6.06 4.21c-0.752 1.01-1.28 2.22-1.52 3.45c-0.249 1.21-0.404 2.42-0.555 3.64c-0.285 2.42-0.465 4.85-0.613 7.28c-0.29 4.86-0.441 9.71-0.542 14.6c-0.084 4.86-0.171 9.71-0.099 14.6L178.5 70.7L175.7 86.5L175.7 86.58L175.7 86.65c-0.008 9.13-0.038 18.3 0.038 27.4L175.9 141.4L176.2 168.8c0.078 9.13 0.255 18.3 0.395 27.4L176.8 196L171.2 196.1ZM171 196.3L176.8 196.4L177 196.4L177 196.2c0.105-9.13 0.247-18.3 0.29-27.4L177.4 141.4L177.5 114c0.041-9.13-0.023-18.3-0.065-27.4L177.4 86.8L180.2 70.99L180.2 70.91L180.2 70.83c-0.176-9.68-0.336-19.4-0.017-29.1c0.087-2.42 0.204-4.84 0.425-7.24c0.264-2.39 0.413-4.86 1.85-6.73c1.37-1.89 3.46-3.2 5.69-4c2.24-0.796 4.65-1.12 7.02-0.948c2.36 0.174 4.74 0.858 6.63 2.28c1.91 1.39 3.05 3.61 3.8 5.84c0.722 2.27 0.843 4.69 0.545 7.06c-0.287 2.38-1 4.67-1.74 6.99c-0.17 0.6-0.37 1.14-0.463 1.84c-0.06 0.693 0.116 1.37 0.403 1.96c0.588 1.19 1.57 2.1 2.71 2.72c1.13 0.609 2.48 0.902 3.8 0.67c1.32-0.223 2.49-0.994 3.34-1.98c0.855-0.99 1.37-2.17 1.81-3.33c0.429-1.17 0.754-2.36 1.01-3.57c0.511-2.41 0.755-4.87 0.78-7.34c0.035-4.91-0.8-9.92-3.03-14.4c-1.11-2.23-2.59-4.31-4.43-6.04c-0.916-0.866-1.9-1.65-2.98-2.33c-1.05-0.668-2.14-1.27-3.26-1.81c-4.46-2.16-9.52-3.31-14.6-2.82c-5.02 0.453-9.93 2.72-13.4 6.44c-3.52 3.67-5.52 8.67-6.14 13.6c-0.736 4.86-1.08 9.72-1.38 14.6c-0.536 9.72-0.693 19.4-0.722 29.2L167.9 72.43L167.9 72.55L171.1 86.24L171.1 86.01L170.9 113.6L170.9 141.1L170.9 168.7L171 196.3Z" fill="rgb(11.4%,11.4%,10.6%)"  />
		<path id="col2" d="M8.426 195.8c0 0 49.6 56 72.6 68.5c22.9 12.5 60.1 21.6 82.3 21.9c22.3 0.338-32.4-4.59-48.6-39.1c-20.1-42.9-24.6-59.7-28.3-56.7c-3.71 3.04-21.3 8.44-44.9 8.1c-23.6-0.338-33.1-2.7-33.1-2.7Z" fill="rgb(100%,75.3%,0%)"  />
		<path id="" d="M8.352 195.9c10.9 12.8 22.4 25.1 34.2 37.1c5.96 5.94 12 11.8 18.3 17.4c3.15 2.8 6.39 5.51 9.76 8.07c3.36 2.55 6.84 5.03 10.6 7.01c7.51 3.92 15.4 7 23.4 9.67c8 2.65 16.1 4.85 24.3 6.73c4.1 0.933 8.24 1.73 12.4 2.45c4.15 0.726 8.32 1.33 12.5 1.76c4.19 0.427 8.4 0.669 12.6 0.641c0.535-0.014 1.06-0.021 1.64-0.113c0.149-0.028 0.293-0.049 0.505-0.151c0.061-0.037 0.118-0.062 0.198-0.149c0.075-0.068 0.162-0.241 0.152-0.397c-0.04-0.334-0.174-0.394-0.24-0.477c-0.303-0.259-0.535-0.349-0.789-0.481c-0.992-0.459-1.98-0.814-2.96-1.19c-1.97-0.737-3.94-1.47-5.89-2.24c-7.79-3.06-15.4-6.75-22.3-11.4c-6.9-4.63-13.2-10.3-17.8-17.2c-1.14-1.72-2.18-3.5-3.08-5.35c-0.888-1.86-1.77-3.8-2.64-5.69c-1.75-3.82-3.48-7.64-5.18-11.5c-3.42-7.67-6.8-15.4-10.1-23.1c-1.69-3.85-3.35-7.71-5.21-11.5c-0.473-0.953-0.959-1.9-1.5-2.84c-0.551-0.94-1.11-1.88-1.95-2.78c-0.435-0.422-0.957-0.959-1.94-1.09c-0.486-0.055-1 0.096-1.36 0.318c-0.396 0.257-0.513 0.388-0.692 0.505c-0.764 0.53-1.68 0.984-2.61 1.4c-3.75 1.62-7.81 2.72-11.9 3.63c-4.07 0.897-8.2 1.56-12.4 2.03c-4.15 0.461-8.33 0.771-12.5 0.889c-4.18 0.116-8.38 0.044-12.6-0.051c-4.19-0.12-8.39-0.279-12.6-0.583c-4.18-0.32-8.38-0.695-12.5-1.51c-0.054-0.012-0.108 0.021-0.121 0.075c-0.011 0.031-0.000964 0.065 0.019 0.088ZM8.711 196c4.01 0.911 8.09 1.43 12.2 1.88c4.19 0.444 8.39 0.766 12.6 0.965c4.21 0.194 8.41 0.365 12.6 0.347c4.22-0.024 8.45-0.217 12.7-0.641c4.21-0.417 8.4-1.02 12.5-1.88c4.15-0.872 8.27-1.91 12.3-3.57c0.998-0.432 1.98-0.888 2.96-1.54c0.258-0.174 0.532-0.4 0.582-0.421c0.095-0.051 0.11-0.044 0.148-0.041c0.075-0.008 0.412 0.186 0.699 0.503c0.597 0.638 1.14 1.51 1.64 2.39c0.503 0.884 0.973 1.81 1.43 2.74c1.81 3.74 3.46 7.61 5.14 11.5c3.33 7.71 6.64 15.5 10.1 23.1c1.74 3.83 3.5 7.65 5.28 11.5c0.9 1.91 1.77 3.79 2.71 5.72c0.961 1.92 2.06 3.77 3.25 5.54c4.81 7.12 11.4 12.8 18.5 17.5c7.12 4.63 14.9 8.13 22.8 11.1c1.98 0.736 3.96 1.43 5.94 2.13c0.983 0.353 1.99 0.697 2.91 1.1c0.215 0.097 0.469 0.228 0.566 0.312c0.025 0.006-0.005 0.048-0.039-0.15c0.02-0.238 0.141-0.263 0.12-0.256c-0.023 0.015-0.141 0.051-0.249 0.069c-0.459 0.083-0.99 0.108-1.5 0.129c-4.18 0.128-8.37-0.091-12.5-0.491c-8.35-0.797-16.6-2.27-24.8-4.2c-8.18-1.9-16.2-4.28-24.1-7.11c-7.89-2.83-15.6-6.09-23-10.1c-3.65-1.94-7.04-4.39-10.3-6.93c-3.3-2.56-6.5-5.27-9.67-8c-6.32-5.5-12.4-11.3-18.4-17.1c-11.9-11.7-23.5-23.7-34.9-35.9Z" fill="rgb(11.4%,11.4%,10.6%)"  />
		<path id="col1-a" d="M88.59 188.3c0 0 22.3 53.7 30.4 65.5c8.1 11.8 30.7 31.7 54.3 32.1c23.6 0.337 36.4-24.6 42.2-38.1c5.74-13.5 26-57.7 22.3-57c-3.71 0.674-38.8 8.44-82 5.4c-43.2-3.04-67.2-7.76-67.2-7.76Z" fill="rgb(93.7%,100%,0%)"  />
		<path id="" d="M88.5 188.4c6.26 15.9 12.9 31.6 20 47.2c1.81 3.87 3.66 7.73 5.63 11.5c0.989 1.9 2.01 3.79 3.13 5.65c1.13 1.87 2.44 3.62 3.8 5.29c2.73 3.36 5.78 6.42 9.02 9.26c3.23 2.85 6.65 5.48 10.2 7.85c7.2 4.7 15.1 8.43 23.6 10.2c4.22 0.85 8.57 1.25 12.9 0.821c4.3-0.424 8.51-1.75 12.3-3.82c3.8-2.05 7.15-4.81 10.2-7.87c3.01-3.07 5.63-6.49 7.98-10.1c2.33-3.6 4.4-7.36 6.29-11.2c1.88-3.86 3.5-7.8 5.28-11.7c3.5-7.78 7.07-15.5 10.5-23.4c1.7-3.92 3.38-7.85 5-11.8c1.6-3.98 3.2-7.93 4.42-12.1c0.145-0.532 0.279-1.07 0.385-1.64c0.052-0.287 0.097-0.579 0.115-0.909c0.00999-0.165 0.011-0.343-0.007-0.547c-0.035-0.212-0.037-0.456-0.296-0.843c-0.138-0.195-0.396-0.4-0.686-0.473c-0.249-0.074-0.561-0.026-0.614-0.013L237.2 189.8L236.4 190L234.8 190.3c-2.09 0.396-4.18 0.768-6.28 1.12c-4.2 0.695-8.41 1.3-12.6 1.82c-8.45 1.02-16.9 1.81-25.4 2.21c-8.5 0.419-17 0.447-25.5 0.196c-4.26-0.123-8.49-0.37-12.8-0.663c-4.25-0.286-8.51-0.6-12.8-0.948c-8.5-0.698-17-1.45-25.5-2.41c-8.47-0.964-17-1.95-25.4-3.37c-0.055-0.00999-0.107 0.027-0.117 0.081c-0.00399 0.02-0.000992 0.039 0.00601 0.056ZM88.76 188.5c16.7 3.31 33.6 5.41 50.5 7.1c4.25 0.409 8.51 0.785 12.8 1.13c4.25 0.352 8.53 0.663 12.8 0.848c8.56 0.392 17.1 0.309 25.7-0.062c8.55-0.398 17.1-1.08 25.6-2.2c4.24-0.555 8.48-1.19 12.7-1.93c2.11-0.367 4.21-0.758 6.32-1.17L236.7 191.9L237.5 191.7L237.9 191.6c0.077-0.013-0.1 0.025-0.218-0.02c-0.16-0.037-0.309-0.157-0.366-0.247c-0.104-0.167-0.057-0.138-0.06-0.087c0.005 0.062 0.008 0.15 0.00301 0.252c-0.009 0.203-0.041 0.439-0.083 0.678c-0.084 0.48-0.204 0.98-0.336 1.48c-1.12 4.01-2.71 8-4.24 12c-1.55 3.96-3.18 7.91-4.82 11.8L217.8 241.1c-1.71 3.91-3.26 7.9-5.05 11.7c-1.78 3.86-3.8 7.62-6.1 11.2c-2.3 3.57-4.88 6.97-7.83 10c-2.95 3.05-6.32 5.7-10 7.69c-3.73 1.98-7.83 3.26-12 3.61c-4.21 0.323-8.45-0.165-12.6-1.09c-8.25-1.9-15.9-5.74-22.9-10.5c-7.01-4.72-13.4-10.4-18.8-16.9c-1.34-1.62-2.61-3.29-3.71-5.07c-1.1-1.79-2.12-3.65-3.12-5.52c-1.99-3.75-3.86-7.58-5.7-11.4c-7.33-15.3-14.2-30.9-21.1-46.4Z" fill="rgb(11.4%,11.4%,10.6%)"  />
		<path id="col1-b" d="M178.6 285.5c0 0 40.3 1.35 84.5-24c44.2-25.3 70.1-65.8 72.9-65.8c2.8 0-36.1 8.78-61 5.06c-24.9-3.71-37.9-9.79-37.9-9.79c0 0-21.7 56-34.3 74.2c-12.6 18.2-24.2 20.3-24.2 20.3Z" fill="rgb(93.7%,100%,0%)"  />
		<path id="" d="M178.6 285.6c6.03 0.209 12-0.265 18-0.943c5.99-0.711 11.9-1.79 17.8-3.13c11.8-2.66 23.2-6.65 34.2-11.6c5.51-2.48 10.9-5.28 16.1-8.35c5.21-3.07 10.3-6.38 15.1-9.98c9.73-7.15 18.7-15.2 27.2-23.7c4.26-4.25 8.36-8.66 12.4-13.2c4.03-4.47 7.91-9.07 11.8-13.7c0.971-1.14 1.95-2.29 2.97-3.37c0.506-0.526 1.04-1.1 1.58-1.45c0.064-0.043 0.124-0.067 0.161-0.082c0.013-0.006 0.032-0.002-0.00699-0.004c0.016 0.00101 0.064 0.002 0.053 0.00301c-0.041-0.039 0.064 0.091-0.225-0.13c-0.188-0.74 0.156-0.512 0.066-0.58c0.009-0.005-0.005 0.002-0.016 0.006L335.7 195.5L335.5 195.6c-0.346 0.102-0.708 0.193-1.07 0.281c-2.9 0.687-5.86 1.23-8.81 1.73c-5.91 1-11.9 1.78-17.8 2.35c-5.97 0.556-11.9 0.937-17.9 0.929c-5.99-0.00301-11.9-0.395-17.8-1.48c-5.9-0.989-11.8-2.21-17.5-3.72c-2.89-0.757-5.76-1.59-8.59-2.51c-2.82-0.936-5.68-1.91-8.32-3.09L237.6 190.1c-0.532-0.236-1.15 0.004-1.39 0.536L236.2 190.6c-3.45 8.84-7.03 17.6-10.7 26.4c-3.71 8.74-7.44 17.5-11.5 26.1c-2.01 4.29-4.11 8.55-6.32 12.7c-2.22 4.19-4.56 8.27-7.41 12.1c-2.81 3.79-5.95 7.35-9.51 10.5c-1.78 1.55-3.68 2.97-5.69 4.21c-2.02 1.21-4.15 2.31-6.44 2.88L178.6 285.4c-0.054 0.013-0.086 0.067-0.073 0.121c0.0149 0.044 0.0529 0.074 0.0969 0.076ZM178.6 285.6c2.36-0.508 4.54-1.54 6.63-2.7c2.08-1.18 4.05-2.55 5.91-4.06c3.73-3.01 7-6.54 9.94-10.3c2.96-3.75 5.48-7.88 7.79-12c2.33-4.16 4.47-8.42 6.56-12.7c4.16-8.57 8.1-17.2 11.8-26c3.73-8.76 7.35-17.6 10.8-26.4L236.7 192c5.66 2.47 11.4 4.15 17.3 5.67c5.86 1.48 11.8 2.67 17.8 3.62c2.97 0.48 6 0.904 9.03 1.09c3.03 0.21 6.06 0.258 9.08 0.221c6.05-0.089 12.1-0.523 18.1-1.22c5.99-0.695 11.9-1.62 17.9-2.73c2.96-0.566 5.91-1.16 8.84-1.91c0.367-0.097 0.733-0.196 1.11-0.314L336 196.3L336.2 196.2c0.032-0.015 0.061-0.028 0.11-0.058c-0.059-0.09 0.355 0.106 0.137-0.678c-0.326-0.251-0.273-0.122-0.358-0.167L336 195.3c-0.134 0.00301-0.206 0.024-0.283 0.049c-0.139 0.051-0.248 0.111-0.34 0.172c-0.708 0.498-1.18 1.06-1.71 1.62c-1.02 1.13-1.98 2.28-2.95 3.43c-3.85 4.62-7.69 9.24-11.7 13.7c-4.01 4.47-8.16 8.81-12.4 13c-17.2 16.8-36.9 31-58.6 41c-10.8 5.06-22.2 8.97-33.8 11.9c-5.81 1.47-11.7 2.63-17.6 3.53c-5.93 0.89-11.9 1.51-17.9 1.6L178.6 285.6Z" fill="rgb(11.4%,11.4%,10.6%)"  />
		<path id="" d="M168.5 285.8L170 288.1L171.2 322.2c0 0 0.673 0.675 1.73 0.579c1.06-0.097 1.63-0.675 1.63-0.675L176.2 288.4L178.2 285.8c-3.35 0.06-6.59 0.073-9.71 0.042Z" fill="rgb(11.4%,11.4%,10.6%)"  />
	</g>
</g>
</svg>
