<?xml version="1.0" encoding="utf-8"?>
<!-- Generator: Adobe Illustrator 16.0.4, SVG Export Plug-In . SVG Version: 6.00 Build 0)  -->
<!DOCTYPE svg PUBLIC "-//W3C//DTD SVG 1.1//EN" "http://www.w3.org/Graphics/SVG/1.1/DTD/svg11.dtd">
<svg version="1.1" id="Layer_1" xmlns="http://www.w3.org/2000/svg" xmlns:xlink="http://www.w3.org/1999/xlink" x="0px" y="0px"
	 width="181.626px" height="102.571px" viewBox="0 0 181.626 102.571" enable-background="new 0 0 181.626 102.571"
	 xml:space="preserve">
<path fill="#D6C5B3" d="M164.788,3.565c9.299,0,16.838,7.54,16.838,16.839v65.328c0,9.3-7.539,16.839-16.838,16.839H18.673
	c-9.299,0-16.839-7.539-16.839-16.839V20.404c0-9.299,7.54-16.839,16.839-16.839H164.788z"/>
<path fill="#BC9264" d="M162.954,0.899c9.299,0,16.838,7.54,16.838,16.839v65.328c0,9.298-7.538,16.839-16.838,16.839H16.839
	C7.54,99.905,0,92.366,0,83.066V17.738C0,8.439,7.54,0.899,16.839,0.899H162.954z"/>
<path fill="#D8AF87" d="M161.143,0c9.195,0,16.65,7.456,16.65,16.651v64.602c0,9.196-7.455,16.651-16.65,16.651H16.652
	c-9.196,0-16.651-7.455-16.651-16.651V16.651C0.001,7.456,7.456,0,16.652,0H161.143z"/>
</svg>
