<?xml version="1.0" encoding="utf-8"?>
<!-- Generator: Adobe Illustrator 16.0.4, SVG Export Plug-In . SVG Version: 6.00 Build 0)  -->
<!DOCTYPE svg PUBLIC "-//W3C//DTD SVG 1.1//EN" "http://www.w3.org/Graphics/SVG/1.1/DTD/svg11.dtd">
<svg version="1.1" id="Layer_1" xmlns="http://www.w3.org/2000/svg" xmlns:xlink="http://www.w3.org/1999/xlink" x="0px" y="0px"
	 width="295.333px" height="190.18px" viewBox="0 0 295.333 190.18" enable-background="new 0 0 295.333 190.18"
	 xml:space="preserve">
<g id="top">
	
		<polygon fill="#9B6A42" stroke="#875632" stroke-width="1.3893" stroke-linecap="round" stroke-linejoin="round" stroke-miterlimit="10" points="
		231.985,102.518 64.139,102.518 78.031,77.415 218.092,77.415 	"/>
	<polygon fill="#875632" points="79.61,103.372 65.804,101.153 79.801,80.415 	"/>
	<polygon fill="#875632" points="216.305,103.372 230.301,101.153 216.305,80.415 	"/>
	
		<path fill="#9B6A42" stroke="#875632" stroke-width="1.4" stroke-linecap="round" stroke-linejoin="round" stroke-miterlimit="10" d="
		M216.321,80.415l10.574,19.104H69.229l10.573-19.104H216.321 M218.092,77.415H78.031l-13.892,25.103h167.846L218.092,77.415
		L218.092,77.415z"/>
</g>
<g id="lid">
	<g id="lid_0">
		<polygon fill="#BC9264" points="232.472,103.607 64.296,103.607 79.489,78.186 217.247,78.186 		"/>
		<path fill="none" stroke="#AD7B57" stroke-width="0.75" stroke-miterlimit="10" d="M79.552,83.09
			c9.13,0.84,25.396-0.737,35.108-0.44c9.738,0.304,19.645,0.021,29.396,0.001c5.108-0.009,9.151,0.979,13.834,1.14
			c4.731,0.147,9.229-0.307,13.834-0.437c4.688-0.132,9.153-0.396,13.832-0.431c4.752-0.031,8.305,0.173,12.685,0.373
			c7.916,0.36,14.562,0.058,22.938,0.058"/>
		<g>
			<path fill="none" stroke="#AD7B57" stroke-width="0.75" stroke-miterlimit="10" d="M224.31,89.865
				c-9.772-1.938-23.224,1.977-33.269,0.188c-12.516-2.229-25.684,0.393-38.672,0.354c-7.686-0.021-15.266-0.969-23.021-1.173
				c-7.225-0.188-14.029,0.163-21.324,0.112c-11.767-0.082-23.451,0.32-34.948-0.018"/>
			<path fill="none" stroke="#AD7B57" stroke-width="0.75" stroke-miterlimit="10" d="M223.286,87.241
				c-8.312-1.895-19.761,0.671-28.771-0.429c-9.729-1.178-18.591-0.446-28.201,0.438c-9.84,0.913-19.338-0.17-28.773-0.799
				c-9.762-0.652-19.127,1.223-28.775,0.351c-9.53-0.854-22.741,0.69-32.773,1.054"/>
			<path fill="none" stroke="#AD7B57" stroke-width="0.75" stroke-miterlimit="10" d="M223.745,92.26
				c1.305,0.7-26.761-0.603-34.979-0.102c-8.875,0.542-17.229-2.228-26.637-1.136c-18.625,2.162-39.249,0.705-57.396-0.271
				c-8.198-0.443-17.23,0.199-25.308,0.703c-7.154,0.44-2.873,1.771-8.112,0.351"/>
		</g>
		<path fill="none" stroke="#AD7B57" stroke-width="0.75" stroke-miterlimit="10" d="M68.325,95.823
			c4.415-0.241,8.363,0.012,14.196-0.342c8.808-0.521,13.223,0.348,21.835,0.688c14.023,0.557,29.916-1.054,44.578-1.054
			c27.9,0,52.75,0.353,78.791,0.353"/>
		<path fill="none" stroke="#AD7B57" stroke-width="0.75" stroke-miterlimit="10" d="M66.146,98.577
			c5.217,1.069,12.152-0.779,18.196-0.703c6.967,0.088,13.3,1.059,20.923,1.055c15.143-0.006,29.033-1.141,43.67-1.406
			c15.239-0.271,28.565,1.191,43.67,1.773c7.963,0.311,36.226,1.785,39.121,0.688"/>
		<path fill="none" stroke="#9E6C3F" stroke-width="0.75" stroke-miterlimit="10" d="M65.236,102.093
			c18.78,0.164,38.244-1.051,56.406-1.055c12.535-0.004,26.014,0.539,38.004-0.437c12.756-1.024,20.728,1.185,33.871,1.836
			c13.269,0.66,26.155,0,38.955,0.076c-0.22,0.547,0.014,0.029-0.746,0.273"/>
		<path fill="#F7BC00" stroke="#F4A300" stroke-linecap="round" stroke-linejoin="round" stroke-miterlimit="10" d="M217.247,80.648
			l10.692,19.518H68.796l10.693-19.518H217.247 M219,77.648H77.732L63.753,103.16h169.229L219,77.648L219,77.648z"/>
	</g>
	<g id="lid_1" display="none">
		<polygon display="inline" fill="#BC9264" points="232.472,88.606 64.296,88.606 79.489,77.222 217.247,77.222 		"/>
		<path display="inline" fill="none" stroke="#AD7B57" stroke-width="0.75" stroke-miterlimit="10" d="M79.552,79.418
			c9.13,0.376,25.396-0.331,35.108-0.197c9.738,0.133,19.645,0.007,29.396,0c5.108-0.004,9.151,0.438,13.834,0.507
			c4.731,0.069,9.229-0.134,13.834-0.188c4.688-0.062,9.153-0.185,13.832-0.193c4.752-0.014,8.305,0.078,12.685,0.167
			c7.916,0.161,14.562,0.025,22.938,0.025"/>
		<g display="inline">
			<path fill="none" stroke="#AD7B57" stroke-width="0.75" stroke-miterlimit="10" d="M224.31,82.452
				c-9.772-0.867-23.224,0.885-33.269,0.084c-12.516-0.999-25.684,0.176-38.672,0.15c-7.686-0.01-15.266-0.431-23.021-0.521
				c-7.225-0.085-14.029,0.073-21.324,0.05c-11.767-0.037-23.451,0.146-34.948-0.008"/>
			<path fill="none" stroke="#AD7B57" stroke-width="0.75" stroke-miterlimit="10" d="M223.286,81.277
				c-8.312-0.845-19.761,0.307-28.771-0.188c-9.729-0.527-18.591-0.203-28.201,0.196c-9.84,0.402-19.338-0.076-28.773-0.357
				c-9.762-0.292-19.127,0.547-28.775,0.157c-9.53-0.386-22.741,0.309-32.773,0.472"/>
			<path fill="none" stroke="#AD7B57" stroke-width="0.75" stroke-miterlimit="10" d="M223.745,83.525
				c1.305,0.313-26.761-0.27-34.979-0.045c-8.875,0.243-17.229-0.995-26.637-0.506c-18.625,0.968-39.249,0.316-57.396-0.124
				c-8.198-0.199-17.23,0.089-25.308,0.315c-7.154,0.2-2.873,0.793-8.112,0.157"/>
		</g>
		<path display="inline" fill="none" stroke="#AD7B57" stroke-width="0.75" stroke-miterlimit="10" d="M68.325,85.12
			c4.415-0.108,8.363,0.005,14.196-0.15c8.808-0.234,13.223,0.152,21.835,0.306c14.023,0.25,29.916-0.472,44.578-0.472
			c27.9,0,52.75,0.158,78.791,0.158"/>
		<path display="inline" fill="none" stroke="#AD7B57" stroke-width="0.75" stroke-miterlimit="10" d="M66.146,86.354
			c5.217,0.482,12.152-0.349,18.196-0.312c6.967,0.039,13.3,0.474,20.923,0.472c15.143-0.003,29.033-0.511,43.67-0.63
			c15.239-0.124,28.565,0.534,43.67,0.794c7.963,0.139,36.226,0.799,39.121,0.308"/>
		<path display="inline" fill="none" stroke="#9E6C3F" stroke-width="0.75" stroke-miterlimit="10" d="M65.236,87.928
			c18.78,0.073,38.244-0.471,56.406-0.473c12.535-0.001,26.014,0.242,38.004-0.192c12.756-0.461,20.728,0.528,33.871,0.822
			c13.269,0.296,26.155,0,38.955,0.034c-0.22,0.245,0.014,0.013-0.746,0.123"/>
		
			<path display="inline" fill="#F7BC00" stroke="#F4A300" stroke-linecap="round" stroke-linejoin="round" stroke-miterlimit="10" d="
			M217.247,78.324l10.692,8.731H68.796l10.693-8.731H217.247 M219,76.981H77.732L63.753,88.406h169.229L219,76.981L219,76.981z"/>
	</g>
	
		<polygon id="lid_2" display="none" fill="#9B6A42" stroke="#875632" stroke-width="0.857" stroke-linecap="round" stroke-linejoin="round" stroke-miterlimit="10" points="
		226.012,60.391 70.23,60.391 77.867,77.868 218.256,77.868 	"/>
	
		<polygon id="lid_3" display="none" fill="#9B6A42" stroke="#875632" stroke-width="1.3" stroke-linecap="round" stroke-linejoin="round" stroke-miterlimit="10" points="
		225.524,37.651 70.23,37.651 77.867,77.868 218.256,77.868 	"/>
	
		<polygon id="lid_4" display="none" fill="#9B6A42" stroke="#875632" stroke-width="1.6931" stroke-linecap="round" stroke-linejoin="round" stroke-miterlimit="10" points="
		225.202,9.651 70.921,9.651 77.867,77.868 218.256,77.868 	"/>
</g>
<g id="glow" opacity="0">
	<polygon fill="#F9EC31" fill-opacity="0.4" points="231.985,102.518 64.139,102.518 78.031,77.415 218.092,77.415 	"/>
	
		<radialGradient id="SVGID_1_" cx="-2677.7446" cy="3197.7112" r="69.9797" gradientTransform="matrix(1.7626 0 0 1.3626 4867.4585 -4264.0566)" gradientUnits="userSpaceOnUse">
		<stop  offset="0" style="stop-color:#F9EC31"/>
		<stop  offset="0.2282" style="stop-color:#FAEE4B;stop-opacity:0.7718"/>
		<stop  offset="0.5373" style="stop-color:#FAF168;stop-opacity:0.4627"/>
		<stop  offset="0.8053" style="stop-color:#FBF27A;stop-opacity:0.1947"/>
		<stop  offset="1" style="stop-color:#FBF380;stop-opacity:0"/>
	</radialGradient>
	<rect x="-0.001" y="-1.171" fill="url(#SVGID_1_)" width="295.333" height="188.629"/>
</g>
<g id="front">
	<rect x="67.429" y="103.153" fill="#BC9264" width="164.176" height="85.532"/>
	<g>
		<path fill="none" stroke="#AD7B57" stroke-width="0.75" stroke-miterlimit="10" d="M139.923,180.74
			c2.236-7.323-8.031-69.033,6.482-64.583c7.158,2.188,4.07,32.062,4.736,39.834c0.473,5.513,2.232,10.396,4.529,15.092
			c1.479,3.023,5.104,6.646,5.094,10.262"/>
		<path fill="none" stroke="#AD7B57" stroke-width="0.75" stroke-miterlimit="10" d="M136.683,181.948
			c2.354-8.269,0.564-22.688,0-31.428c-0.629-9.722-1.977-20.964,0.449-30.146c2.879-10.896,11.93-9.445,14.73,1.207
			c2.291,8.719,2.01,19.229,3.355,28.37c0.93,6.307,1.66,21.277,6.01,24.749"/>
		<path fill="none" stroke="#AD7B57" stroke-width="0.75" stroke-miterlimit="10" d="M150.577,111.327
			c9.879,15.859,3.073,38.169,10.188,54.316"/>
		<path fill="none" stroke="#AD7B57" stroke-width="0.75" stroke-miterlimit="10" d="M153.584,111.327
			c8.119,7.604,5.408,33.746,7.181,44.062"/>
		<path fill="none" stroke="#AD7B57" stroke-width="0.75" stroke-miterlimit="10" d="M142.703,181.345
			c6.061-2.244,2.264-24.078,1.273-29.457c-1.084-5.903-2.537-27.281,0.012-27.229c8.804,0.166,1.988,24.821,3.244,36.016
			c0.844,7.521,2.925,15.303,5.66,20.674"/>
	</g>
	<g>
		<path fill="none" stroke="#AD7B57" stroke-width="0.75" stroke-miterlimit="10" d="M90.833,180.741
			c2.031-6.071-0.762-18.188-0.473-26.105c0.283-7.825,0.221-16.486,1.98-23.932c6.932,5.215,2.201,19.02,2.197,27.062
			c-0.002,4.456,0.094,9.271,1.506,13.327c1.352,3.896,3.764,5.369,3.588,10.249"/>
		<path fill="none" stroke="#AD7B57" stroke-width="0.75" stroke-miterlimit="10" d="M87.128,180.741
			c2.48-7.537,0.457-21.667,0.463-30.187c0.006-6.014-2.148-25.325,2.42-28.837c7.295-5.604,7.623,20.672,7.771,25.082
			c0.18,5.438,0.115,10.841,1.492,15.812c1.461,5.271,3.363,8.943,3.602,14.503c0.078,1.797,0,3.632,0,5.433"/>
		<path fill="none" stroke="#AD7B57" stroke-width="0.75" stroke-miterlimit="10" d="M83.886,181.347
			c2.15-7.805,0.533-21.256,0.465-30.812c-0.064-9.042-3.029-21.387,0.346-29.693c1.248-3.069,4.049-6.479,7.062-6.505
			c5.287-0.049,5.139,6.271,5.908,11.466c1.678,11.349,4.812,22.256,7.408,32.747c1.791,7.242,2.033,12.77,2.43,20.387"/>
		<path fill="none" stroke="#AD7B57" stroke-width="0.75" stroke-miterlimit="10" d="M95.927,110.12
			c5.479,3.758,6.318,13.553,7.385,20.553c0.873,5.724,3.777,13.312,3.924,18.697c0.621,0.647,0.729,1.771,0.732,1.795"/>
		<path fill="none" stroke="#AD7B57" stroke-width="0.75" stroke-miterlimit="10" d="M101.949,110.82
			c5.254,3.751,2.438,16.035,6.02,21.641"/>
	</g>
	<g>
		<g>
			<path fill="none" stroke="#AD7B57" stroke-width="0.75" stroke-miterlimit="10" d="M117.695,111.93
				c1.098,2.382,0.205,9.056-4.707,18.784c-3.639,7.209-1.629,19.688-5.02,34.937"/>
			<path fill="none" stroke="#AD7B57" stroke-width="0.75" stroke-miterlimit="10" d="M125.021,110.581
				c-1.18,5.724,0,18.251-6.584,28.015c-7.521,11.151-6.311,30.243-6.312,41.543"/>
			<path fill="none" stroke="#AD7B57" stroke-width="0.75" stroke-miterlimit="10" d="M134.697,112.533
				c-1.857,7.904-6.619,14.644-9.146,22.313c-3.613,10.979-12.121,33.187-9.812,45.895"/>
			<path fill="none" stroke="#AD7B57" stroke-width="0.75" stroke-miterlimit="10" d="M134.597,148.636
				c-4.453,5.836-2.814,23.654-2.711,32.104"/>
			<path fill="none" stroke="#AD7B57" stroke-width="0.75" stroke-miterlimit="10" d="M127.666,180.741
				c0-7.454-0.514-15.624,0.617-22.785c1.373-8.675,3.895-13.729,6.314-21.278"/>
		</g>
		<path fill="none" stroke="#AD7B57" stroke-width="0.75" stroke-miterlimit="10" d="M134.597,124.607
			c-5.248,8.378-10.234,18.534-12.631,29.104c-1.471,6.479-3.475,21.62-1.492,27.637"/>
		<path fill="none" stroke="#AD7B57" stroke-width="0.75" stroke-miterlimit="10" d="M112.125,111.93
			c2.406,9.015-1.842,15.854-3.691,24.748"/>
	</g>
	<g>
		<path fill="none" stroke="#AD7B57" stroke-width="0.75" stroke-miterlimit="10" d="M160.458,128.832
			c4.785,5.562,7.158,33.378,0.771,38.812"/>
		<path fill="none" stroke="#AD7B57" stroke-width="0.75" stroke-miterlimit="10" d="M185.562,181.345
			c-7.377-20.391,1.28-50.338-6.272-71.525"/>
		<path fill="none" stroke="#AD7B57" stroke-width="0.75" stroke-miterlimit="10" d="M161.228,114.331
			c6.474,10.062,8.608,27.672,9.157,40.454c0.316,7.402-1.522,8.601-4.399,14.052c-0.969,1.838,0.354,12.322,0.822,11.904"/>
		<path fill="none" stroke="#AD7B57" stroke-width="0.75" stroke-miterlimit="10" d="M166.323,110.12
			c3.04,15.14,12.256,29.438,9.62,45.873c-1.594,9.938-2.834,26.211-2.676,25.354"/>
		<path fill="none" stroke="#AD7B57" stroke-width="0.75" stroke-miterlimit="10" d="M172.804,110.12
			c5.103,12.729,7.35,28.004,7.407,42.268c0.021,6.528-3.866,25.867,0,29.223"/>
		<path fill="none" stroke="#AD7B57" stroke-width="0.75" stroke-miterlimit="10" d="M184.381,109.516
			c2.142,7.048-3.021,44.396,2.511,46.509"/>
	</g>
	<g>
		<path fill="none" stroke="#AD7B57" stroke-width="0.75" stroke-miterlimit="10" d="M197.159,181.347
			c1.213-0.896,0.625-19.093,2.151-23.021c0.237,1.648,0.323,4.176,1.293,5.569c5.104-4.108,0.724-19.755,5.521-22.312
			c2.104,11.756-0.08,29.092-0.785,39.763"/>
		
			<path fill="none" stroke="#AD7B57" stroke-width="0.75" stroke-linecap="round" stroke-linejoin="round" stroke-miterlimit="10" d="
			M192.855,180.741c0.431-0.221,0.849-0.461,1.258-0.739c0.025-6.938,0.897-14.129,1.326-21.153
			c0.261-4.291-0.015-10.771,3.022-13.188c0.229,1.312,0.697,1.271,0.588,3.017c2.914-2.559,1.992-10.558,4.447-14.544
			c4.854-7.885,5.854,2.639,6.232,7.979c0.932,12.817,0.771,26.08,0.771,39.236"/>
		
			<path fill="none" stroke="#AD7B57" stroke-width="0.75" stroke-linecap="round" stroke-linejoin="round" stroke-miterlimit="10" d="
			M190.271,180.741c1.979-3.242,2.199-20.771,2.248-27.312c0.049-6.759-0.276-24.001,0.604-23.782
			c0.967,0.239,2.715,3.068,2.711,4.104c3.004-3.784,4.117-29.77,10.688-18.078c4.771,8.479,5.133,22.099,6.994,32.476"/>
		
			<path fill="none" stroke="#AD7B57" stroke-width="0.75" stroke-linecap="round" stroke-linejoin="round" stroke-miterlimit="10" d="
			M208.782,110.12c2.372,3.152,4.323,12.983,4.305,16.896"/>
		
			<path fill="none" stroke="#AD7B57" stroke-width="0.75" stroke-linecap="round" stroke-linejoin="round" stroke-miterlimit="10" d="
			M197.588,111.327c-3.356-0.097-4.571,7.778-4.799,11.377c-3.565-0.282-5.129,9.802-5.897,10.648"/>
	</g>
	<g>
		
			<path fill="none" stroke="#AD7B57" stroke-width="0.75" stroke-linecap="round" stroke-linejoin="round" stroke-miterlimit="10" d="
			M68.142,102.622c-0.316,2.247,0.016,6.294-0.439,9.263c-0.689,4.483,0.449,6.73,0.9,11.115c0.736,7.139-1.389,15.228-1.389,22.688
			c0,14.203,0.465,28.895,0.465,42.146"/>
		
			<path fill="none" stroke="#AD7B57" stroke-width="0.75" stroke-linecap="round" stroke-linejoin="round" stroke-miterlimit="10" d="
			M70.457,103.549c1.416,2.655-1.025,6.187-0.926,9.263c0.115,3.546,1.393,6.771,1.389,10.651
			c-0.006,7.708-1.504,14.778-1.852,22.229c-0.361,7.766,1.57,14.542,2.34,22.229c0.404,4.055,2.35,18.438,0.902,19.914"/>
		
			<path fill="none" stroke="#AD7B57" stroke-width="0.75" stroke-linecap="round" stroke-linejoin="round" stroke-miterlimit="10" d="
			M75.087,103.086c0.217,9.56-1.385,19.468-1.389,28.713c-0.004,6.381,0.711,13.242-0.566,19.346
			c-1.359,6.493,1.555,10.551,2.418,17.24c0.873,6.755,0,13.825,0.104,20.34c0.719-0.104,0.037-0.502,0.361-0.89"/>
		
			<path fill="none" stroke="#AD7B57" stroke-width="0.75" stroke-linecap="round" stroke-linejoin="round" stroke-miterlimit="10" d="
			M78.33,103.549c0.885,0.321,0.34,16.757,0.463,19.916c0.309,7.936-2.781,15.312-2.314,22.69c0.41,6.481,2.113,13.669,2.766,20.391
			c0.699,7.174,0.475,14.268,0.475,21.753"/>
	</g>
	<g>
		
			<path fill="none" stroke="#AD7B57" stroke-width="0.75" stroke-linecap="round" stroke-linejoin="round" stroke-miterlimit="10" d="
			M228.107,102.622c0.315,2.247-0.019,6.294,0.438,9.263c0.688,4.483-0.448,6.73-0.899,11.115
			c-0.735,7.139,1.388,15.228,1.388,22.688c0,14.203-0.464,28.895-0.464,42.146"/>
		
			<path fill="none" stroke="#AD7B57" stroke-width="0.75" stroke-linecap="round" stroke-linejoin="round" stroke-miterlimit="10" d="
			M225.792,103.549c-1.416,2.655,1.026,6.187,0.934,9.263c-0.117,3.546-1.396,6.771-1.396,10.651
			c0.008,7.708,1.506,14.778,1.854,22.229c0.36,7.766-1.57,14.542-2.341,22.229c-0.405,4.055-2.352,18.438-0.901,19.914"/>
		
			<path fill="none" stroke="#AD7B57" stroke-width="0.75" stroke-linecap="round" stroke-linejoin="round" stroke-miterlimit="10" d="
			M221.161,103.086c-0.218,9.56,1.385,19.468,1.396,28.713c0.002,6.381-0.719,13.242,0.562,19.346
			c1.356,6.493-1.556,10.551-2.418,17.24c-0.873,6.755,0,13.825-0.104,20.34c-0.72-0.104-0.033-0.502-0.354-0.89"/>
		
			<path fill="none" stroke="#AD7B57" stroke-width="0.75" stroke-linecap="round" stroke-linejoin="round" stroke-miterlimit="10" d="
			M217.918,103.549c-0.885,0.321-0.342,16.757-0.465,19.916c-0.312,7.936,2.777,15.312,2.312,22.69
			c-0.412,6.481-2.113,13.669-2.771,20.391c-0.695,7.174-0.478,14.268-0.478,21.753"/>
	</g>
	
		<line fill="none" stroke="#875632" stroke-width="1.3893" stroke-miterlimit="10" x1="213.312" y1="103.748" x2="213.312" y2="188.74"/>
	<line fill="none" stroke="#875632" stroke-width="1.4" stroke-miterlimit="10" x1="81.601" y1="103.748" x2="81.601" y2="188.74"/>
	
		<line fill="none" stroke="#875632" stroke-width="1.4" stroke-miterlimit="10" x1="107.923" y1="111.229" x2="107.923" y2="180.963"/>
	
		<line fill="none" stroke="#875632" stroke-width="1.4" stroke-miterlimit="10" x1="134.248" y1="111.229" x2="134.248" y2="180.963"/>
	
		<line fill="none" stroke="#875632" stroke-width="1.4" stroke-miterlimit="10" x1="160.57" y1="111.229" x2="160.57" y2="180.963"/>
	
		<line fill="none" stroke="#875632" stroke-width="1.4" stroke-miterlimit="10" x1="186.892" y1="111.229" x2="186.892" y2="180.963"/>
	<rect x="63.57" y="102.818" fill="#F7BC00" stroke="#F4A300" stroke-miterlimit="10" width="8.01" height="86.018"/>
	<rect x="224.706" y="102.818" fill="#F7BC00" stroke="#F4A300" stroke-miterlimit="10" width="8.01" height="86.018"/>
	<rect x="63.57" y="181.17" fill="#F7BC00" stroke="#F4A300" stroke-miterlimit="10" width="168.688" height="8.01"/>
	<rect x="63.57" y="102.818" fill="#F7BC00" stroke="#F4A300" stroke-miterlimit="10" width="168.688" height="8.017"/>
	<path fill="#F7BC00" stroke="#F4A300" stroke-miterlimit="10" d="M85.248,102.818H63.57v24.396l5.775-6.501
		c1.053,0.435,2.205,0.677,3.414,0.677c4.951,0,8.965-4.014,8.965-8.964c0-1.585-0.416-3.071-1.137-4.363L85.248,102.818z"/>
	<path fill="#F7BC00" stroke="#F4A300" stroke-miterlimit="10" d="M63.57,167.175v21.678h24.396l-6.502-5.771
		c0.436-1.06,0.678-2.205,0.678-3.414c0-4.951-4.014-8.965-8.965-8.965c-1.584,0-3.07,0.416-4.363,1.137L63.57,167.175z"/>
	<path fill="#F7BC00" stroke="#F4A300" stroke-miterlimit="10" d="M211.101,102.818h21.678v24.396l-5.774-6.501
		c-1.053,0.435-2.205,0.677-3.414,0.677c-4.945,0-8.965-4.014-8.965-8.964c0-1.585,0.416-3.071,1.143-4.363L211.101,102.818z"/>
	<path fill="#F7BC00" stroke="#F4A300" stroke-miterlimit="10" d="M232.713,167.175v21.678h-24.396l6.502-5.771
		c-0.438-1.06-0.678-2.205-0.678-3.414c0-4.951,4.016-8.965,8.965-8.965c1.584,0,3.068,0.416,4.363,1.137L232.713,167.175z"/>
	<g display="none">
		<polygon display="inline" fill="#F7BC00" stroke="#F4A300" stroke-miterlimit="10" points="103.781,144.582 94.867,156.497 
			85.953,144.582 94.867,132.667 		"/>
		
			<line display="inline" fill="none" stroke="#FFD45A" stroke-width="2" stroke-linecap="round" stroke-linejoin="round" stroke-miterlimit="10" x1="88.884" y1="144.409" x2="94.923" y2="136.463"/>
	</g>
	<g display="none">
		<polygon display="inline" fill="#F7BC00" stroke="#F4A300" stroke-miterlimit="10" points="129.882,144.582 120.968,156.497 
			112.054,144.582 120.968,132.667 		"/>
		
			<line display="inline" fill="none" stroke="#FFD45A" stroke-width="2" stroke-linecap="round" stroke-linejoin="round" stroke-miterlimit="10" x1="114.986" y1="144.409" x2="121.025" y2="136.463"/>
	</g>
	<g display="none">
		<polygon display="inline" fill="#F7BC00" stroke="#F4A300" stroke-miterlimit="10" points="156.12,144.582 147.205,156.497 
			138.291,144.582 147.205,132.667 		"/>
		
			<line display="inline" fill="none" stroke="#FFD45A" stroke-width="2" stroke-linecap="round" stroke-linejoin="round" stroke-miterlimit="10" x1="141.222" y1="144.409" x2="147.261" y2="136.463"/>
	</g>
	<g display="none">
		<polygon display="inline" fill="#F7BC00" stroke="#F4A300" stroke-miterlimit="10" points="182.551,144.582 173.638,156.497 
			164.724,144.582 173.638,132.667 		"/>
		
			<line display="inline" fill="none" stroke="#FFD45A" stroke-width="2" stroke-linecap="round" stroke-linejoin="round" stroke-miterlimit="10" x1="167.657" y1="144.409" x2="173.695" y2="136.463"/>
	</g>
	<g display="none">
		<polygon display="inline" fill="#F7BC00" stroke="#F4A300" stroke-miterlimit="10" points="208.988,144.582 200.073,156.497 
			191.159,144.582 200.073,132.667 		"/>
		
			<line display="inline" fill="none" stroke="#FFD45A" stroke-width="2" stroke-linecap="round" stroke-linejoin="round" stroke-miterlimit="10" x1="194.088" y1="144.409" x2="200.127" y2="136.463"/>
	</g>
</g>
<rect id="mask_frame" x="63.57" y="99.84" display="none" fill="#FFFFFF" width="169.209" height="90.34"/>
<g id="gems">
	<g id="gem_5">
		<polygon fill="#107DFF" stroke="#006AD3" stroke-miterlimit="10" points="208.956,139.093 206.351,136.49 193.892,136.49 
			191.29,139.093 191.29,151.551 193.892,154.156 206.351,154.156 208.956,151.551 		"/>
		<polygon id="glow_2_3_" fill="#3399FF" fill-opacity="0" points="208.956,139.093 206.351,136.49 193.892,136.49 191.29,139.093 
			191.29,151.551 193.892,154.156 206.351,154.156 208.956,151.551 		"/>
		
			<polyline opacity="0.3" fill="none" stroke="#FFFFFF" stroke-width="2" stroke-linecap="round" stroke-linejoin="round" stroke-miterlimit="10" enable-background="new    " points="
			200.667,138.317 194.804,138.317 193.116,140.006 193.116,146.095 		"/>
		
			<radialGradient id="glow_1_5_" cx="-821.0356" cy="-1170.3621" r="25.3099" gradientTransform="matrix(1.0167 0 0 -1.0073 1035.6119 -1032.8098)" gradientUnits="userSpaceOnUse">
			<stop  offset="0" style="stop-color:#FFFFFF;stop-opacity:0.3"/>
			<stop  offset="0.3386" style="stop-color:#3399FF;stop-opacity:0.5"/>
			<stop  offset="1" style="stop-color:#3399FF;stop-opacity:0"/>
		</radialGradient>
		<ellipse id="glow_1_4_" fill="url(#glow_1_5_)" fill-opacity="0" cx="200.667" cy="146.096" rx="25.996" ry="25.754"/>
	</g>
	<g id="gem_4">
		
			<circle fill="#1EC900" stroke="#1BB500" stroke-linecap="round" stroke-linejoin="round" stroke-miterlimit="10" cx="174.19" cy="145.695" r="9.974"/>
		<circle id="glow_2_2_" fill="#29EF00" fill-opacity="0" cx="174.19" cy="145.695" r="9.974"/>
		
			<path opacity="0.3" fill="none" stroke="#FFFFFF" stroke-width="2" stroke-linecap="round" stroke-linejoin="round" stroke-miterlimit="10" enable-background="new    " d="
			M166.245,146c0-4.587,3.721-8.312,8.312-8.312"/>
		
			<radialGradient id="glow_1_11_" cx="-846.7163" cy="-1170.3611" r="25.31" gradientTransform="matrix(1.0167 0 0 -1.0073 1035.6119 -1032.8098)" gradientUnits="userSpaceOnUse">
			<stop  offset="0" style="stop-color:#FFFFFF;stop-opacity:0.3"/>
			<stop  offset="0.3382" style="stop-color:#29EF00;stop-opacity:0.5"/>
			<stop  offset="1" style="stop-color:#29EF00;stop-opacity:0"/>
		</radialGradient>
		<ellipse id="glow_1_3_" fill="url(#glow_1_11_)" fill-opacity="0" cx="174.553" cy="146.095" rx="25.996" ry="25.754"/>
	</g>
	<g id="gem_3">
		<polygon fill="#F7BC00" stroke="#F4A300" stroke-miterlimit="10" points="155.831,145.137 146.916,157.052 138.001,145.137 
			146.916,133.222 		"/>
		<polygon id="glow_2_4_" fill="#FFCB48" fill-opacity="0" points="155.831,145.137 146.916,157.052 138.001,145.137 
			146.916,133.222 		"/>
		
			<line opacity="0.3" fill="none" stroke="#FFFFFF" stroke-width="2" stroke-linecap="round" stroke-linejoin="round" stroke-miterlimit="10" enable-background="new    " x1="140.933" y1="144.964" x2="146.972" y2="137.018"/>
		
			<radialGradient id="glow_1_12_" cx="-873.7866" cy="-1169.1423" r="25.3108" gradientTransform="matrix(1.0167 0 0 -1.0073 1035.6119 -1032.8098)" gradientUnits="userSpaceOnUse">
			<stop  offset="0" style="stop-color:#FFFFFF;stop-opacity:0.3"/>
			<stop  offset="0.3386" style="stop-color:#FFCB48;stop-opacity:0.5"/>
			<stop  offset="1" style="stop-color:#FFCB48;stop-opacity:0"/>
		</radialGradient>
		<ellipse id="glow_1_2_" fill="url(#glow_1_12_)" fill-opacity="0" cx="147.03" cy="144.867" rx="25.996" ry="25.754"/>
	</g>
	<g id="gem_2">
		<polygon fill="#FF2F0D" stroke="#E20000" stroke-miterlimit="10" points="117.503,155.892 112.199,151.158 110.996,143.901 
			114.458,137.521 120.966,135.001 127.476,137.521 130.939,143.901 129.736,151.158 124.429,155.892 		"/>
		<polygon id="glow_2_1_" fill="#FF5745" fill-opacity="0" points="117.503,155.892 112.199,151.158 110.996,143.901 
			114.458,137.521 120.966,135.001 127.476,137.521 130.939,143.901 129.736,151.158 124.429,155.892 		"/>
		
			<polyline opacity="0.3" fill="none" stroke="#FFFFFF" stroke-width="2" stroke-linecap="round" stroke-linejoin="round" stroke-miterlimit="10" enable-background="new    " points="
			113.158,144.225 115.88,139.21 120.998,137.229 		"/>
		
			<radialGradient id="glow_1_13_" cx="-899.3564" cy="-1169.9607" r="25.3098" gradientTransform="matrix(1.0167 0 0 -1.0073 1035.6119 -1032.8098)" gradientUnits="userSpaceOnUse">
			<stop  offset="0" style="stop-color:#FFFFFF;stop-opacity:0.3"/>
			<stop  offset="0.3386" style="stop-color:#FF5745;stop-opacity:0.5"/>
			<stop  offset="1" style="stop-color:#FF5745;stop-opacity:0"/>
		</radialGradient>
		<ellipse id="glow_1_1_" fill="url(#glow_1_13_)" fill-opacity="0" cx="121.034" cy="145.692" rx="25.996" ry="25.754"/>
	</g>
	<g id="gem_1">
		<polygon fill="#D71AE2" stroke="#B700C6" stroke-miterlimit="10" points="89.337,153.974 85.655,142.64 95.295,133.703 
			104.936,142.64 101.253,153.974 		"/>
		<polygon id="glow_2" fill="#F466FF" fill-opacity="0" points="89.337,153.974 85.655,142.64 95.295,133.703 104.936,142.64 
			101.253,153.974 		"/>
		
			<line opacity="0.3" fill="none" stroke="#FFFFFF" stroke-width="2" stroke-linecap="round" stroke-linejoin="round" stroke-miterlimit="10" enable-background="new    " x1="88.322" y1="143.64" x2="95.463" y2="137.001"/>
		
			<radialGradient id="glow_1_14_" cx="-924.3853" cy="-1169.2722" r="25.3093" gradientTransform="matrix(1.0167 0 0 -1.0073 1035.6119 -1032.8098)" gradientUnits="userSpaceOnUse">
			<stop  offset="0" style="stop-color:#FFFFFF;stop-opacity:0.3"/>
			<stop  offset="0.3386" style="stop-color:#F466FF;stop-opacity:0.5"/>
			<stop  offset="1" style="stop-color:#F466FF;stop-opacity:0"/>
		</radialGradient>
		<ellipse id="glow_1" fill="url(#glow_1_14_)" fill-opacity="0" cx="95.584" cy="144.998" rx="25.996" ry="25.754"/>
	</g>
</g>
<g id="lid_glow_group" display="none">
	<g id="lid_glow" display="inline" opacity="0">
		<polygon display="none" fill="#F9EC31" fill-opacity="0.4" points="231.985,102.518 64.139,102.518 78.031,77.415 218.092,77.415 
					"/>
		
			<radialGradient id="SVGID_2_" cx="-2677.7446" cy="6613.248" r="69.9581" gradientTransform="matrix(1.7626 0 0 0.2978 4867.4585 -1872.2141)" gradientUnits="userSpaceOnUse">
			<stop  offset="0" style="stop-color:#F9EC31"/>
			<stop  offset="0.2282" style="stop-color:#FAEE4B;stop-opacity:0.7718"/>
			<stop  offset="0.5373" style="stop-color:#FAF168;stop-opacity:0.4627"/>
			<stop  offset="0.8053" style="stop-color:#FBF27A;stop-opacity:0.1947"/>
			<stop  offset="1" style="stop-color:#FBF380;stop-opacity:0"/>
		</radialGradient>
		<rect x="-0.001" y="76.597" fill="url(#SVGID_2_)" width="295.333" height="41.229"/>
	</g>
	<g id="lid_glow_overlay" display="inline">
		<polygon fill="#BC9264" points="232.472,94.343 64.296,94.343 79.489,77.341 217.247,77.341 		"/>
		<path fill="none" stroke="#AD7B57" stroke-width="0.9166" stroke-miterlimit="10" d="M79.552,80.621
			c9.13,0.562,25.396-0.495,35.108-0.295c9.738,0.195,19.645,0.01,29.396,0c5.108-0.01,9.151,0.651,13.834,0.757
			c4.731,0.104,9.229-0.2,13.834-0.285c4.688-0.092,9.153-0.271,13.832-0.289c4.752-0.021,8.305,0.117,12.685,0.25
			c7.916,0.24,14.562,0.038,22.938,0.038"/>
		<g>
			<path fill="none" stroke="#AD7B57" stroke-width="0.9166" stroke-miterlimit="10" d="M224.31,85.153
				c-9.772-1.295-23.224,1.321-33.269,0.125c-12.516-1.488-25.684,0.266-38.672,0.23c-7.686-0.014-15.266-0.643-23.021-0.777
				c-7.225-0.127-14.029,0.109-21.324,0.075c-11.767-0.056-23.451,0.219-34.948-0.012"/>
			<path fill="none" stroke="#AD7B57" stroke-width="0.9166" stroke-miterlimit="10" d="M223.286,83.397
				c-8.312-1.262-19.761,0.452-28.771-0.276c-9.729-0.788-18.591-0.308-28.201,0.293c-9.84,0.604-19.338-0.114-28.773-0.534
				c-9.762-0.438-19.127,0.812-28.775,0.231c-9.53-0.572-22.741,0.465-32.773,0.704"/>
			<path fill="none" stroke="#AD7B57" stroke-width="0.9166" stroke-miterlimit="10" d="M223.745,86.754
				c1.305,0.468-26.761-0.402-34.979-0.067c-8.875,0.363-17.229-1.482-26.637-0.755c-18.625,1.445-39.249,0.477-57.396-0.186
				c-8.198-0.297-17.23,0.133-25.308,0.471c-7.154,0.299-2.873,1.185-8.112,0.235"/>
		</g>
		<path fill="none" stroke="#AD7B57" stroke-width="0.9166" stroke-miterlimit="10" d="M68.325,89.137
			c4.415-0.162,8.363,0.007,14.196-0.225c8.808-0.354,13.223,0.228,21.835,0.457c14.023,0.374,29.916-0.705,44.578-0.705
			c27.9,0,52.75,0.232,78.791,0.232"/>
		<path fill="none" stroke="#AD7B57" stroke-width="0.9166" stroke-miterlimit="10" d="M66.146,90.98
			c5.217,0.725,12.152-0.521,18.196-0.465c6.967,0.062,13.3,0.708,20.923,0.705c15.143-0.004,29.033-0.763,43.67-0.941
			c15.239-0.185,28.565,0.802,43.67,1.188c7.963,0.207,36.226,1.193,39.121,0.459"/>
		<path fill="none" stroke="#9E6C3F" stroke-width="0.9166" stroke-miterlimit="10" d="M65.236,93.331
			c18.78,0.105,38.244-0.703,56.406-0.706c12.535-0.001,26.014,0.358,38.004-0.287c12.756-0.688,20.728,0.789,33.871,1.228
			c13.269,0.442,26.155,0,38.955,0.055c-0.22,0.362,0.014,0.019-0.746,0.185"/>
		
			<path fill="#F7BC00" stroke="#F4A300" stroke-width="1.2221" stroke-linecap="round" stroke-linejoin="round" stroke-miterlimit="10" d="
			M217.247,78.988l10.692,13.051H68.796L79.489,78.99L217.247,78.988 M219,76.981H77.732L63.753,94.045h169.229L219,76.981
			L219,76.981z"/>
	</g>
</g>
</svg>
