<?xml version="1.0" encoding="utf-8"?>
<!-- Generator: Adobe Illustrator 16.0.4, SVG Export Plug-In . SVG Version: 6.00 Build 0)  -->
<!DOCTYPE svg PUBLIC "-//W3C//DTD SVG 1.1//EN" "http://www.w3.org/Graphics/SVG/1.1/DTD/svg11.dtd">
<svg version="1.1" id="Layer_1" xmlns="http://www.w3.org/2000/svg" xmlns:xlink="http://www.w3.org/1999/xlink" x="0px" y="0px"
	 width="402.976px" height="245.854px" viewBox="0 0 402.976 245.854" enable-background="new 0 0 402.976 245.854"
	 xml:space="preserve">
<path fill="#FFFFFF" d="M395.976,130.421c0-15.368-8.36-28.774-20.775-35.945c1.465-3.226,2.287-6.806,2.287-10.579
	c0-13.098-9.83-23.895-22.515-25.431C351.576,45.775,340,36.427,326.238,36.427c-4.364,0-8.506,0.948-12.239,2.636
	c-4.259-1.694-8.898-2.636-13.761-2.636c-5.117,0-9.992,1.033-14.431,2.9c-6.891-12.361-20.087-20.727-35.243-20.727
	c-10.864,0-20.718,4.304-27.97,11.29c-8.559-11.219-22.061-18.464-37.261-18.464c-19.446,0-36.122,11.85-43.208,28.721
	c-7.194-11.254-19.79-18.721-34.138-18.721c-13.509,0-25.466,6.621-32.823,16.788c-6.898-4.898-15.322-7.788-24.427-7.788
	c-23.334,0-42.25,18.916-42.25,42.25c0,11.48,4.585,21.885,12.017,29.5c-7.404,7.139-12.017,17.153-12.017,28.25
	c0,13.953,7.287,26.197,18.257,33.157c-0.159,1.845-0.257,3.707-0.257,5.593c0,35.484,28.766,64.25,64.25,64.25
	c20.371,0,38.513-9.491,50.284-24.279c12.418,9.868,28.122,15.779,45.216,15.779c14.618,0,28.219-4.327,39.62-11.748
	c5.485,5.99,13.368,9.748,22.13,9.748c8.112,0,15.467-3.226,20.867-8.457c8.007,5.034,17.477,7.957,27.633,7.957
	c19.19,0,35.941-10.403,44.951-25.87c1.314,0.238,2.666,0.37,4.049,0.37c12.427,0,22.5-10.073,22.5-22.5
	c0-1.581-0.165-3.123-0.475-4.611C384.043,164.35,395.976,148.784,395.976,130.421z"/>
</svg>
