<?xml version="1.0" encoding="utf-8"?>
<!-- Generator: Adobe Illustrator 16.0.4, SVG Export Plug-In . SVG Version: 6.00 Build 0)  -->
<!DOCTYPE svg PUBLIC "-//W3C//DTD SVG 1.1//EN" "http://www.w3.org/Graphics/SVG/1.1/DTD/svg11.dtd">
<svg version="1.1" id="bg" xmlns="http://www.w3.org/2000/svg" xmlns:xlink="http://www.w3.org/1999/xlink" x="0px" y="0px"
	 width="301.419px" height="126.05px" viewBox="0 0 301.419 126.05" enable-background="new 0 0 301.419 126.05"
	 xml:space="preserve">
<g opacity="0.29">
	<g>
		<path fill-rule="evenodd" clip-rule="evenodd" fill="#005193" d="M189.277,57.58c-1.677,2.011,6.622,16.513,21.372,11.65
			c5.196,6.033,7.375,6.286,8.884,6.956c-4.022-3.854-5.614-7.041-5.614-7.041c4.86,0,7.039-0.335,7.039-0.335
			s-6.788-2.767-9.555-2.178C206.794,60.011,196.567,55.401,189.277,57.58z"/>
		<path fill-rule="evenodd" clip-rule="evenodd" fill="#008DBB" d="M163.21,49.703c3.018,0.25,11.818-3.521,12.489-8.047
			c3.771-0.504,5.28-1.76,5.28-1.76s-4.526,1.256-6.453-1.007c-2.013-2.179-3.017-4.441-3.017-4.441v3.938
			C166.479,37.716,157.512,42.41,163.21,49.703z"/>
		<path fill-rule="evenodd" clip-rule="evenodd" fill="#005193" d="M148.124,52.217c-1.257,2.263-2.262,2.766-3.771,2.766
			c1.257,6.453-1.256,9.471-5.783,9.471c-0.752-4.946-2.683-10.478,1.76-11.984c-2.765-2.766-1.005-4.527,0-6.706
			C142.845,50.204,141.335,54.228,148.124,52.217z"/>
		<path fill-rule="evenodd" clip-rule="evenodd" fill="#005193" d="M207.298,31.349c3.604,1.088,9.051-0.672,11.481-5.618
			c3.855-1.173,4.107-2.934,4.107-2.934l-4.274,0.923c0,0,3.352-11.314,3.352-14.919c4.275-2.429,3.855-4.943,3.855-4.943
			s-2.933,2.262-3.855,2.262C222.382,1.844,220.873,0,220.873,0s-2.514,5.868-2.765,8.381
			C212.493,11.734,207.548,27.073,207.298,31.349z"/>
		<path fill-rule="evenodd" clip-rule="evenodd" fill="#005193" d="M217.186,120.522c-3.351-5.53,17.518-3.185,19.864-2.765
			c-0.838-2.85-1.843-4.274,2.682-9.639c-1.172,7.291,0.503,10.309,8.634,8.131c-3.687,6.537-7.207,5.446-9.554,3.521
			C231.854,127.312,227.663,128.654,217.186,120.522z"/>
		<path fill-rule="evenodd" clip-rule="evenodd" fill="#008DBB" d="M146.114,1.929c-0.924,1.76,7.541,11.313,17.853,5.28
			c4.859,3.687,6.536,3.603,7.793,3.854c-3.604-2.263-5.364-4.441-5.364-4.441c3.688-0.754,5.195-1.341,5.195-1.341
			s-5.53-0.923-7.459-0.085C159.608,0.921,151.31-0.921,146.114,1.929z"/>
		<path fill-rule="evenodd" clip-rule="evenodd" fill="#005193" d="M197.993,103.509c-0.922,1.76,7.627,11.314,17.936,5.28
			c4.861,3.772,6.453,3.604,7.71,3.856c-3.602-2.262-5.279-4.442-5.279-4.442c3.604-0.67,5.198-1.341,5.198-1.341
			s-5.533-0.922-7.545-0.083C211.57,102.587,203.189,100.744,197.993,103.509z"/>
		<path fill-rule="evenodd" clip-rule="evenodd" fill="#0061A2" d="M182.068,81.466c0.756,1.76-6.369,11.23-14.919,5.281
			c-4.106,3.688-5.447,3.52-6.453,3.771c2.934-2.264,4.359-4.357,4.359-4.357c-3.018-0.756-4.275-1.425-4.275-1.425
			s4.61-0.924,6.286-0.085C170.754,80.46,177.71,78.618,182.068,81.466z"/>
		<path fill-rule="evenodd" clip-rule="evenodd" fill="#2C7EA6" d="M270.156,100.66c-3.353-5.531,17.517-3.186,19.948-2.765
			c-0.838-2.851-1.929-4.275,2.682-9.641c-1.174,7.21,0.419,10.309,8.633,8.13c-3.771,6.537-7.209,5.363-9.555,3.52
			C284.822,107.366,280.633,108.789,270.156,100.66z"/>
		<path fill-rule="evenodd" clip-rule="evenodd" fill="#2C7EA6" d="M115.772,24.81c-3.353-5.531,17.602-3.185,19.947-2.681
			c-0.838-2.936-1.927-4.275,2.682-9.641c-1.172,7.207,0.503,10.227,8.635,8.13c-3.771,6.539-7.209,5.363-9.556,3.521
			C130.524,31.597,126.333,33.022,115.772,24.81z"/>
		<path fill-rule="evenodd" clip-rule="evenodd" fill="#0075BE" d="M0.363,20.031c-3.353-5.531,17.516-3.185,19.946-2.767
			c-0.838-2.849-1.928-4.188,2.599-9.554c-1.09,7.208,0.503,10.226,8.716,8.13c-3.771,6.539-7.291,5.364-9.555,3.52
			C15.03,26.82,10.84,28.162,0.363,20.031z"/>
	</g>
	<path fill-rule="evenodd" clip-rule="evenodd" fill="#008DBB" d="M73.615,59.256c-6.62,0.504-25.814-7.711-27.405-17.6
		c-8.216-1.089-11.568-3.773-11.568-3.773s9.891,2.685,14.333-2.262c4.358-4.861,6.537-9.807,6.537-9.807v8.719
		C66.491,32.939,86.186,43.333,73.615,59.256z"/>
</g>
</svg>
