<?xml version="1.0" encoding="utf-8"?>
<!-- Generator: Adobe Illustrator 16.0.4, SVG Export Plug-In . SVG Version: 6.00 Build 0)  -->
<!DOCTYPE svg PUBLIC "-//W3C//DTD SVG 1.1//EN" "http://www.w3.org/Graphics/SVG/1.1/DTD/svg11.dtd">
<svg version="1.1" id="Layer_1" xmlns="http://www.w3.org/2000/svg" xmlns:xlink="http://www.w3.org/1999/xlink" x="0px" y="0px"
	 width="331.759px" height="236.437px" viewBox="0 0 331.759 236.437" enable-background="new 0 0 331.759 236.437"
	 xml:space="preserve">
<path fill="#07538C" d="M141.178,0c-16.353,38.023-39.689,42.772-35.864,91.394c3.812,48.628,26.077,86.529,49.711,84.667
	c0,0,17.046-41.972,17.184-58.131C172.449,87.024,141.178,0,141.178,0"/>
<path fill="#F15822" d="M33.66,111.71c0,0-8.73-6.046-19.389-8.413C4.944,109.71,0,123.707,0,123.707s11.339,9.553,24.628,4.848
	C29.135,125.003,33.248,120.014,33.66,111.71"/>
<path fill="#499CD6" d="M125.918,86.834c-19.697-10.22-31.49-43.953-50.103-53.808c-16.14-7.903-43.11-6.315-54.34,10.055
	c-21.477,31.304-5.439,59.013-7.08,60.124c-0.035,0.033-0.075,0.062-0.124,0.091c10.658,2.367,19.389,8.413,19.389,8.413
	c-0.412,8.304-4.525,13.293-9.033,16.845l0.008-0.004c-0.988,18.873,15.344,49.296,37.196,60.243
	c49.609,24.851,103.577,11.578,121.325,11.957c4.525,0.103,91.46,34.418,106.028,35.686c0,0,5.501-10.715-5.529-22.581
	c16.654,3.519,21.538-9.019,21.538-9.019C247.398,170.038,171.108,110.274,125.918,86.834"/>
<path fill="#086FB0" d="M331.759,72.911c-39.91,40.11-57.128,78.247-118.996,91.747c-61.879,13.535-97.011-5.993-105.06-42.826
	c0,0,18.42-33.496,39.32-33.948C219.549,86.332,331.759,72.911,331.759,72.911"/>
<path fill="#FFFFFF" d="M43.151,81.371c2.864,6.071,0.262,13.323-5.81,16.189c-6.078,2.863-13.339,0.259-16.195-5.809
	c-2.87-6.082-0.262-13.33,5.817-16.197C33.04,72.688,40.286,75.296,43.151,81.371"/>
<path fill="#010101" d="M39.195,87.118c1.924,4.079,0.171,8.945-3.9,10.868c-4.086,1.923-8.95,0.178-10.865-3.897
	c-1.924-4.079-0.179-8.938,3.9-10.861C32.41,81.305,37.272,83.046,39.195,87.118"/>
<path fill="#FFFFFF" d="M37.011,82.595c0,1.971-1.497,3.562-3.352,3.562c-1.846,0-3.345-1.591-3.345-3.562
	c0-1.974,1.499-3.569,3.345-3.569C35.514,79.026,37.011,80.621,37.011,82.595"/>
</svg>
