<?xml version="1.0" encoding="utf-8"?>
<!-- Generator: Adobe Illustrator 16.0.4, SVG Export Plug-In . SVG Version: 6.00 Build 0)  -->
<!DOCTYPE svg PUBLIC "-//W3C//DTD SVG 1.1//EN" "http://www.w3.org/Graphics/SVG/1.1/DTD/svg11.dtd">
<svg version="1.1" id="Layer_1" xmlns="http://www.w3.org/2000/svg" xmlns:xlink="http://www.w3.org/1999/xlink" x="0px" y="0px"
	 width="249.249px" height="259.468px" viewBox="5.11 0 249.249 259.468" enable-background="new 5.11 0 249.249 259.468"
	 xml:space="preserve">
<polygon fill="#5C5958" points="66.227,170.854 83.5,188.13 97.922,173.722 80.612,156.446 "/>
<path fill="#9E9E9E" d="M58.526,174.981l19.033,18.436c0.36,5.441-5.421,26.895-16.812,38.634
	c-13.83,14.255-40.328,0.524-53.621,27.373c-0.811,1.654-8.655-43.844,13.32-66.491C40.729,172.03,53.108,174.771,58.526,174.981"/>
<path fill="#772C16" d="M149.786,70.884C215.052,5.614,242.303-6.54,251.59,2.76c9.32,9.287-2.854,36.556-68.105,101.809
	c-41.28,41.262-53.489,47.463-79.182,64.018l-18.539-18.521C102.336,124.356,108.536,112.133,149.786,70.884"/>
<path fill="#D8092C" d="M46.6,190.597c-8.777,16.457,7.041,13.455,10.971,16.457c9.939,7.592-8.775,15.358-1.097,23.039
	c3.511,3.51-3.431,7.336-8.065,8.473c-13.91,3.408-31.311,0.721-41.279,20.858c-0.811,1.654-8.655-43.844,13.32-66.491
	C40.729,172.031,49.151,185.812,46.6,190.597"/>
</svg>
