<?xml version="1.0" encoding="utf-8"?>
<!-- Generator: Adobe Illustrator 16.0.4, SVG Export Plug-In . SVG Version: 6.00 Build 0)  -->
<!DOCTYPE svg PUBLIC "-//W3C//DTD SVG 1.1//EN" "http://www.w3.org/Graphics/SVG/1.1/DTD/svg11.dtd">
<svg version="1.1" id="Layer_1" xmlns="http://www.w3.org/2000/svg" xmlns:xlink="http://www.w3.org/1999/xlink" x="0px" y="0px"
	 width="407.184px" height="223.445px" viewBox="0 0 407.184 223.445" enable-background="new 0 0 407.184 223.445"
	 xml:space="preserve">
<g>
	<path fill="#F4F4F4" d="M30.667,222.411C20.445,174.975,10.222,127.542,0,80.108C125.505,53.061,251.011,26.013,376.517-1.034
		c10.225,47.434,20.445,94.868,30.668,142.302C281.679,168.313,156.173,195.361,30.667,222.411z"/>
	<path fill="#FFFFFF" stroke="#C2C2C1" stroke-width="0.75" stroke-miterlimit="10" d="M217.425,175.774
		c-26.01,5.604-52.018,11.211-78.027,16.814c-0.459,0.099-0.916,0.219-1.381,0.267c-1.309,0.138-2.365-0.614-2.703-1.893
		c-0.043-0.162-0.076-0.327-0.111-0.49c-1.646-7.643-3.293-15.284-4.939-22.928c-0.084-0.393-0.215-0.786-0.16-1.191
		c0.143-1.054,0.701-1.801,1.717-2.154c0.41-0.144,0.846-0.219,1.271-0.31c52.084-11.226,104.166-22.45,156.25-33.673
		c0.426-0.092,0.852-0.202,1.283-0.246c1.307-0.131,2.363,0.623,2.703,1.896c0.043,0.161,0.074,0.326,0.111,0.49
		c1.646,7.643,3.295,15.283,4.939,22.927c0.084,0.393,0.217,0.786,0.16,1.19c-0.145,1.052-0.697,1.805-1.719,2.154
		c-0.441,0.15-0.908,0.229-1.367,0.329C269.441,164.564,243.433,170.169,217.425,175.774z"/>
	<path fill="#D6D6D6" stroke="#C2C2C1" stroke-width="0.75" stroke-miterlimit="10" d="M356.382,45.525
		c6.756-1.456,13.514-2.908,20.27-4.373c0.775-0.168,1.512-0.258,2.217,0.247c0.572,0.412,0.928,0.962,1.141,1.612
		c0.105,0.317,0.166,0.65,0.236,0.979c1.57,7.28,3.141,14.562,4.707,21.844c0.105,0.491,0.232,0.979,0.213,1.49
		c-0.053,1.28-0.725,2.14-1.961,2.484c-0.162,0.045-0.326,0.078-0.49,0.114c-13.447,2.897-26.896,5.794-40.344,8.698
		c-0.887,0.19-1.719,0.217-2.494-0.361c-0.449-0.335-0.785-0.723-0.908-1.278c-0.074-0.326-0.15-0.653-0.221-0.981
		c-1.598-7.413-3.195-14.825-4.793-22.238c-0.027-0.132-0.049-0.265-0.086-0.394c-0.535-1.854,0.324-3.095,2.24-3.493
		C342.875,48.466,349.625,46.98,356.382,45.525z"/>
	<path fill="#D6D6D6" stroke="#C2C2C1" stroke-width="0.75" stroke-miterlimit="10" d="M363.804,38.163
		c-3.838,0.827-7.674,1.656-11.512,2.479c-1.902,0.408-2.871-0.198-3.281-2.093c-1.678-7.739-3.318-15.484-5.025-23.216
		c-0.379-1.72,0.508-3.106,2.26-3.476c7.615-1.6,15.221-3.264,22.83-4.897c0.357-0.077,0.729-0.125,1.096-0.122
		c1.031,0.009,1.793,0.452,2.223,1.429c0.203,0.464,0.357,0.938,0.465,1.432c1.588,7.38,3.182,14.759,4.766,22.14
		c0.084,0.391,0.148,0.794,0.154,1.192c0.02,1.101-0.613,2.287-2.064,2.581C371.734,36.419,367.771,37.306,363.804,38.163z"/>
	<path fill="#FFFFFF" stroke="#C2C2C1" stroke-width="0.75" stroke-miterlimit="10" d="M61.343,103.368
		c-3.834,0.825-7.67,1.656-11.506,2.478c-1.949,0.417-2.938-0.203-3.357-2.135c-1.674-7.734-3.305-15.479-5.029-23.203
		c-0.389-1.74,0.62-3.107,2.283-3.452c6.238-1.293,12.46-2.666,18.689-4.008c1.377-0.296,2.752-0.603,4.131-0.887
		c2.104-0.438,3.23,0.26,3.681,2.33c1.649,7.603,3.28,15.209,4.923,22.813c0.113,0.531,0.173,1.064,0.047,1.595
		c-0.227,0.954-0.768,1.632-1.766,1.854c-1.342,0.298-2.686,0.587-4.03,0.877C66.72,102.21,64.032,102.788,61.343,103.368z"/>
	<path fill="#FFFFFF" stroke="#C2C2C1" stroke-width="0.75" stroke-miterlimit="10" d="M95.033,96.103
		c-3.967,0.854-7.932,1.722-11.9,2.56c-1.455,0.307-2.5-0.36-2.896-1.781c-0.091-0.323-0.151-0.654-0.224-0.981
		c-1.08-5.016-2.162-10.03-3.242-15.046c-0.545-2.523-1.018-5.065-1.655-7.565c-0.462-1.811,0.655-3.145,2.241-3.478
		c7.646-1.604,15.277-3.279,22.918-4.916c2.029-0.435,3.168,0.291,3.605,2.31c1.65,7.603,3.285,15.208,4.92,22.813
		c0.07,0.325,0.121,0.663,0.121,0.995c-0.002,1.338-0.689,2.228-1.992,2.521c-2.191,0.493-4.389,0.954-6.586,1.428
		c-1.771,0.382-3.541,0.763-5.312,1.145C95.033,96.105,95.033,96.104,95.033,96.103z"/>
	<path fill="#FFFFFF" stroke="#C2C2C1" stroke-width="0.75" stroke-miterlimit="10" d="M128.564,88.881
		c-3.801,0.819-7.604,1.642-11.408,2.457c-2.012,0.431-3.133-0.271-3.576-2.306c-1.66-7.636-3.307-15.273-4.938-22.915
		c-0.418-1.954,0.334-3.095,2.305-3.521c7.67-1.665,15.346-3.292,23.008-4.979c1.531-0.339,3.043,0.447,3.408,2.213
		c1.609,7.749,3.311,15.478,4.979,23.214c0.098,0.46,0.189,0.918,0.084,1.393c-0.207,0.929-0.707,1.581-1.67,1.808
		c-0.326,0.076-0.654,0.149-0.98,0.221C136.039,87.269,132.302,88.076,128.564,88.881z"/>
	<path fill="#FFFFFF" stroke="#C2C2C1" stroke-width="0.75" stroke-miterlimit="10" d="M162.275,81.616
		c-3.836,0.825-7.67,1.655-11.506,2.478c-1.949,0.417-3.09-0.29-3.52-2.26c-1.67-7.667-3.322-15.338-4.959-23.012
		c-0.404-1.898,0.352-3.05,2.26-3.465c7.701-1.674,15.41-3.309,23.105-5.001c1.521-0.334,3.006,0.502,3.352,2.167
		c1.621,7.78,3.326,15.543,4.998,23.312c0.057,0.262,0.113,0.528,0.123,0.794c0.041,1.182-0.617,2.062-1.76,2.371
		c-0.322,0.087-0.652,0.15-0.98,0.222C169.683,80.018,165.98,80.817,162.275,81.616z"/>
	<path fill="#FFFFFF" stroke="#C2C2C1" stroke-width="0.75" stroke-miterlimit="10" d="M195.789,74.391
		c-3.936,0.849-7.865,1.705-11.803,2.539c-1.572,0.333-2.607-0.335-3.01-1.88c-0.018-0.065-0.031-0.131-0.047-0.196
		c-1.688-7.834-3.354-15.674-5.084-23.5c-0.326-1.477,0.607-2.911,2.008-3.185c1.283-0.25,2.559-0.549,3.836-0.825
		c6.326-1.364,12.654-2.729,18.98-4.089c2.535-0.545,3.527,0.098,4.078,2.641c1.584,7.344,3.166,14.687,4.746,22.028
		c0.07,0.328,0.146,0.656,0.184,0.989c0.152,1.318-0.502,2.645-2.086,2.95c-2.502,0.481-4.986,1.061-7.479,1.598
		c-1.441,0.311-2.885,0.622-4.326,0.933C195.789,74.392,195.789,74.392,195.789,74.391z"/>
	<path fill="#FFFFFF" stroke="#C2C2C1" stroke-width="0.75" stroke-miterlimit="10" d="M229.429,67.143
		c-3.703,0.798-7.43,1.51-11.104,2.425c-2.555,0.637-3.469-0.534-3.893-2.565c-1.541-7.419-3.111-14.835-4.801-22.223
		c-0.572-2.503,0.535-3.629,2.674-4.062c6.113-1.238,12.199-2.602,18.297-3.915c1.344-0.29,2.688-0.588,4.033-0.867
		c2.105-0.437,3.232,0.26,3.682,2.328c1.65,7.604,3.281,15.209,4.92,22.814c0.088,0.395,0.143,0.791,0.107,1.196
		c-0.1,1.208-0.736,1.989-1.92,2.271c-1.076,0.258-2.162,0.476-3.244,0.709C235.265,65.885,232.347,66.514,229.429,67.143z"/>
	<path fill="#FFFFFF" stroke="#C2C2C1" stroke-width="0.75" stroke-miterlimit="10" d="M75.694,171.125
		c-3.806,0.819-7.608,1.643-11.412,2.459c-2.078,0.444-3.172-0.25-3.634-2.354c-0.913-4.161-1.801-8.328-2.698-12.492
		c-0.687-3.181-1.371-6.361-2.056-9.543c-0.07-0.327-0.151-0.654-0.198-0.986c-0.244-1.685,0.506-2.782,2.178-3.146
		c7.345-1.59,14.69-3.169,22.036-4.752c0.525-0.112,1.047-0.24,1.576-0.33c1.449-0.249,2.494,0.431,2.875,1.853
		c0.044,0.162,0.076,0.326,0.111,0.49c1.641,7.607,3.279,15.217,4.918,22.823c0.029,0.131,0.059,0.263,0.082,0.395
		c0.302,1.639-0.356,2.678-1.976,3.034c-3.014,0.666-6.032,1.306-9.05,1.957C77.53,170.73,76.612,170.927,75.694,171.125z"/>
	<path fill="#FFFFFF" stroke="#C2C2C1" stroke-width="0.75" stroke-miterlimit="10" d="M109.33,163.877
		c-3.805,0.818-7.607,1.642-11.412,2.457c-2.025,0.435-3.154-0.258-3.594-2.279c-1.646-7.572-3.271-15.148-4.904-22.724
		c-0.1-0.463-0.16-0.93-0.076-1.397c0.186-1.049,0.729-1.787,1.813-2.041c0.261-0.061,0.522-0.119,0.785-0.176
		c7.478-1.611,14.954-3.223,22.431-4.834c0.164-0.035,0.328-0.072,0.492-0.104c1.781-0.352,2.834,0.319,3.223,2.114
		c1.676,7.738,3.338,15.479,5.01,23.217c0.123,0.568,0.17,1.124-0.027,1.686c-0.252,0.711-0.701,1.214-1.447,1.413
		c-0.324,0.087-0.652,0.159-0.979,0.229C116.873,162.252,113.101,163.063,109.33,163.877z"/>
	<path fill="#FFFFFF" stroke="#C2C2C1" stroke-width="0.75" stroke-miterlimit="10" d="M142.798,156.663
		c-3.902,0.842-7.803,1.69-11.709,2.52c-1.619,0.343-2.648-0.335-3.049-1.953c-0.072-0.293-0.131-0.59-0.193-0.885
		c-1.152-5.346-2.305-10.69-3.457-16.036c-0.479-2.229-0.979-4.456-1.432-6.69c-0.314-1.555,0.393-2.608,1.932-2.995
		c0.033-0.009,0.066-0.017,0.098-0.023c7.871-1.694,15.744-3.379,23.609-5.1c1.303-0.285,2.432,0.39,2.916,1.552
		c0.129,0.308,0.213,0.636,0.283,0.963c1.615,7.477,3.227,14.953,4.838,22.43c0.041,0.197,0.082,0.396,0.111,0.595
		c0.197,1.268-0.35,2.742-2.139,3.101C150.66,154.927,146.732,155.814,142.798,156.663z"/>
	<path fill="#FFFFFF" stroke="#C2C2C1" stroke-width="0.75" stroke-miterlimit="10" d="M263.005,59.907
		c-3.803,0.819-7.604,1.643-11.408,2.458c-2.016,0.433-3.145-0.266-3.586-2.291c-1.66-7.636-3.305-15.273-4.938-22.914
		c-0.42-1.961,0.326-3.104,2.293-3.531c7.668-1.666,15.34-3.309,23.01-4.968c0.859-0.188,1.66-0.149,2.393,0.4
		c0.416,0.313,0.727,0.694,0.855,1.203c0.082,0.324,0.154,0.652,0.227,0.98c1.611,7.474,3.223,14.947,4.832,22.422
		c0.043,0.197,0.088,0.393,0.125,0.59c0.324,1.702-0.328,2.736-2.002,3.103C270.875,58.219,266.939,59.058,263.005,59.907z"/>
	<path fill="#FFFFFF" stroke="#C2C2C1" stroke-width="0.75" stroke-miterlimit="10" d="M296.546,52.678
		c-3.836,0.826-7.67,1.657-11.508,2.479c-1.949,0.418-2.939-0.202-3.357-2.134c-1.676-7.733-3.305-15.479-5.029-23.203
		c-0.389-1.738,0.615-3.106,2.281-3.451c6.107-1.266,12.197-2.609,18.295-3.925c1.51-0.324,3.016-0.657,4.525-0.972
		c2.104-0.438,3.23,0.259,3.68,2.328c1.65,7.604,3.283,15.21,4.924,22.814c0.115,0.53,0.176,1.063,0.049,1.596
		c-0.227,0.955-0.768,1.631-1.766,1.853c-1.342,0.298-2.688,0.587-4.031,0.877C301.921,51.521,299.234,52.1,296.546,52.678z"/>
	<path fill="#FFFFFF" stroke="#C2C2C1" stroke-width="0.75" stroke-miterlimit="10" d="M330.201,45.426
		c-3.836,0.826-7.67,1.657-11.508,2.478c-1.949,0.417-2.938-0.201-3.355-2.135c-1.676-7.734-3.305-15.479-5.029-23.202
		c-0.389-1.74,0.619-3.105,2.283-3.451c6.238-1.293,12.461-2.665,18.688-4.009c1.377-0.297,2.752-0.602,4.131-0.888
		c2.104-0.437,3.23,0.26,3.682,2.33c1.648,7.603,3.281,15.209,4.922,22.814c0.115,0.53,0.174,1.063,0.047,1.595
		c-0.227,0.954-0.766,1.631-1.766,1.853c-1.344,0.297-2.688,0.587-4.029,0.877C335.578,44.268,332.888,44.847,330.201,45.426z"/>
	<path fill="#FFFFFF" stroke="#C2C2C1" stroke-width="0.75" stroke-miterlimit="10" d="M176.519,149.396
		c-3.836,0.826-7.672,1.657-11.51,2.479c-1.955,0.418-2.943-0.2-3.361-2.131c-1.67-7.704-3.33-15.41-4.982-23.118
		c-0.398-1.858,0.271-2.908,2.111-3.309c7.771-1.683,15.549-3.325,23.311-5.047c1.824-0.404,2.949,0.761,3.262,2.03
		c0.064,0.261,0.123,0.522,0.18,0.785c1.568,7.28,3.141,14.56,4.703,21.841c0.094,0.426,0.184,0.857,0.201,1.289
		c0.051,1.238-0.674,2.354-2.008,2.623c-2.729,0.55-5.445,1.164-8.166,1.751C179.011,148.86,177.765,149.128,176.519,149.396z"/>
	<path fill="#FFFFFF" stroke="#C2C2C1" stroke-width="0.75" stroke-miterlimit="10" d="M210.076,142.164
		c-3.805,0.82-7.607,1.645-11.412,2.459c-2.012,0.431-3.131-0.271-3.574-2.312c-1.646-7.572-3.27-15.149-4.902-22.725
		c-0.107-0.498-0.162-0.998-0.051-1.497c0.209-0.956,0.727-1.647,1.723-1.896c0.291-0.071,0.588-0.137,0.883-0.198
		c7.477-1.612,14.963-3.185,22.426-4.859c2.25-0.505,3.375,0.354,3.811,2.454c1.547,7.456,3.188,14.893,4.791,22.337
		c0.043,0.197,0.088,0.393,0.125,0.591c0.322,1.698-0.332,2.731-2.012,3.099C217.947,140.475,214.011,141.315,210.076,142.164z"/>
	<path fill="#FFFFFF" stroke="#C2C2C1" stroke-width="0.75" stroke-miterlimit="10" d="M243.777,134.902
		c-3.805,0.819-7.607,1.644-11.412,2.458c-2.078,0.446-3.17-0.246-3.633-2.354c-0.955-4.358-1.885-8.722-2.824-13.083
		c-0.637-2.951-1.271-5.902-1.908-8.854c-0.062-0.295-0.133-0.589-0.186-0.886c-0.328-1.853,0.406-2.968,2.242-3.365
		c7.379-1.595,14.758-3.182,22.137-4.771c0.459-0.1,0.916-0.21,1.379-0.289c1.449-0.246,2.492,0.431,2.875,1.854
		c0.043,0.162,0.076,0.326,0.111,0.49c1.639,7.608,3.279,15.216,4.918,22.824c0.029,0.132,0.059,0.262,0.082,0.394
		c0.301,1.64-0.357,2.679-1.977,3.034c-3.014,0.665-6.033,1.307-9.051,1.956C245.613,134.507,244.695,134.705,243.777,134.902z"/>
	<path fill="#FFFFFF" stroke="#C2C2C1" stroke-width="0.75" stroke-miterlimit="10" d="M277.318,127.67
		c-3.969,0.854-7.934,1.722-11.904,2.56c-1.457,0.309-2.5-0.361-2.898-1.782c-0.037-0.13-0.062-0.262-0.092-0.393
		c-1.668-7.739-3.342-15.477-5-23.218c-0.383-1.783,0.307-2.841,2.098-3.229c7.805-1.689,15.613-3.348,23.41-5.064
		c1.566-0.345,2.713,0.557,3.123,1.824c0.082,0.254,0.139,0.519,0.195,0.779c1.6,7.411,3.195,14.822,4.791,22.233
		c0.062,0.295,0.129,0.593,0.156,0.892c0.123,1.31-0.557,2.582-2.07,2.869c-2.076,0.393-4.137,0.879-6.199,1.324
		c-1.869,0.403-3.74,0.805-5.609,1.208C277.318,127.673,277.318,127.672,277.318,127.67z"/>
	<path fill="#FFFFFF" stroke="#C2C2C1" stroke-width="0.75" stroke-miterlimit="10" d="M311.13,120.386
		c-3.836,0.826-7.672,1.656-11.51,2.479c-1.963,0.421-3.115-0.273-3.541-2.229c-1.656-7.604-3.285-15.214-4.928-22.822
		c-0.107-0.498-0.156-1-0.045-1.497c0.213-0.955,0.736-1.643,1.732-1.886c0.26-0.063,0.521-0.122,0.785-0.178
		c7.51-1.619,15.027-3.199,22.521-4.879c2.189-0.49,3.355,0.305,3.803,2.47c1.543,7.456,3.186,14.894,4.789,22.336
		c0.049,0.23,0.104,0.459,0.145,0.689c0.277,1.578-0.389,2.615-1.949,2.967c-2.061,0.464-4.131,0.896-6.195,1.343
		C314.871,119.582,313,119.984,311.13,120.386z"/>
	<path fill="#FFFFFF" stroke="#C2C2C1" stroke-width="0.75" stroke-miterlimit="10" d="M27.845,110.587
		c-3.834,0.827-7.67,1.658-11.506,2.478c-1.947,0.416-3.089-0.291-3.519-2.263c-1.669-7.667-3.323-15.338-4.959-23.012
		c-0.404-1.897,0.354-3.047,2.262-3.462c7.701-1.676,15.41-3.311,23.106-5.001c1.517-0.334,3.002,0.5,3.35,2.168
		c1.621,7.779,3.325,15.543,4.999,23.312c0.035,0.164,0.072,0.328,0.095,0.494c0.172,1.356-0.504,2.368-1.832,2.692
		c-0.912,0.223-1.834,0.403-2.752,0.603C34.009,109.259,30.927,109.923,27.845,110.587z"/>
	<path fill="#FFFFFF" stroke="#C2C2C1" stroke-width="0.75" stroke-miterlimit="10" d="M378.251,105.922
		c-3.836,0.826-7.672,1.658-11.51,2.479c-1.947,0.417-2.936-0.206-3.355-2.141c-1.668-7.705-3.328-15.412-4.98-23.12
		c-0.396-1.852,0.275-2.9,2.121-3.3c7.771-1.683,15.549-3.328,23.312-5.046c1.768-0.392,2.885,0.703,3.227,1.945
		c0.078,0.291,0.143,0.586,0.207,0.881c1.568,7.279,3.139,14.56,4.703,21.841c0.092,0.425,0.182,0.857,0.199,1.29
		c0.045,1.233-0.678,2.344-2.018,2.615c-2.99,0.606-5.971,1.276-8.953,1.921C380.22,105.498,379.236,105.71,378.251,105.922z"/>
	<path fill="#FFFFFF" stroke="#C2C2C1" stroke-width="0.75" stroke-miterlimit="10" d="M344.503,113.194
		c-3.805,0.82-7.607,1.646-11.412,2.458c-1.955,0.418-2.941-0.199-3.359-2.135c-1.668-7.704-3.328-15.411-4.982-23.119
		c-0.396-1.855,0.271-2.905,2.115-3.305c7.77-1.683,15.549-3.328,23.311-5.047c1.771-0.392,2.887,0.693,3.232,1.938
		c0.08,0.291,0.143,0.588,0.205,0.883c1.57,7.279,3.141,14.56,4.705,21.841c0.092,0.425,0.182,0.856,0.199,1.29
		c0.049,1.235-0.676,2.352-2.01,2.621c-2.762,0.557-5.512,1.178-8.268,1.772C346.996,112.659,345.75,112.927,344.503,113.194z"/>
	<path fill="#FFFFFF" stroke="#C2C2C1" stroke-width="0.75" stroke-miterlimit="10" d="M269.812,79.2
		c-0.807-3.737-1.611-7.474-2.416-11.21c-0.07-0.328-0.152-0.655-0.193-0.987c-0.154-1.249,0.494-2.251,1.693-2.622
		c0.256-0.079,0.521-0.129,0.781-0.187c7.605-1.64,15.209-3.277,22.814-4.917c0.195-0.042,0.393-0.082,0.592-0.12
		c1.092-0.213,1.889,0.239,2.488,1.119c0.309,0.452,0.434,0.976,0.547,1.502c1.615,7.508,3.234,15.013,4.848,22.521
		c0.078,0.358,0.143,0.729,0.145,1.093c0.008,1.265-0.688,2.165-1.904,2.516c-0.193,0.055-0.393,0.094-0.588,0.137
		c-7.572,1.632-15.145,3.264-22.717,4.896c-0.525,0.114-1.055,0.247-1.59,0.108c-1.115-0.288-1.748-0.998-1.986-2.146
		C271.509,86.997,270.652,83.099,269.812,79.2z"/>
	<path fill="#FFFFFF" stroke="#C2C2C1" stroke-width="0.75" stroke-miterlimit="10" d="M247.429,68.99
		c3.803-0.82,7.605-1.643,11.408-2.457c2.01-0.432,3.133,0.271,3.574,2.307c1.658,7.635,3.307,15.271,4.938,22.912
		c0.418,1.958-0.344,3.1-2.293,3.521c-7.637,1.652-15.273,3.292-22.91,4.944c-0.85,0.184-1.654,0.217-2.408-0.318
		c-0.484-0.345-0.834-0.769-0.969-1.355c-0.066-0.294-0.135-0.588-0.199-0.883c-1.609-7.475-3.221-14.947-4.832-22.42
		c-0.02-0.1-0.035-0.199-0.062-0.296c-0.516-1.725,0.256-3.104,2.246-3.495C239.769,70.688,243.595,69.815,247.429,68.99z"/>
	<path fill="#FFFFFF" stroke="#C2C2C1" stroke-width="0.75" stroke-miterlimit="10" d="M113.107,97.936
		c3.771-0.812,7.539-1.628,11.311-2.436c1.965-0.421,3.121,0.27,3.545,2.218c1.67,7.666,3.314,15.338,4.963,23.01
		c0.068,0.324,0.105,0.665,0.098,0.996c-0.033,1.177-0.695,2.035-1.814,2.381c-0.223,0.069-0.455,0.114-0.686,0.163
		c-7.57,1.633-15.143,3.263-22.713,4.899c-0.84,0.182-1.65,0.27-2.42-0.248c-0.525-0.353-0.908-0.787-1.049-1.413
		c-0.068-0.295-0.137-0.589-0.199-0.884c-1.611-7.474-3.221-14.947-4.832-22.42c-0.029-0.131-0.057-0.263-0.084-0.395
		c-0.391-1.908,0.266-2.931,2.184-3.349C105.304,99.612,109.207,98.777,113.107,97.936z"/>
	<path fill="#FFFFFF" stroke="#C2C2C1" stroke-width="0.75" stroke-miterlimit="10" d="M45.913,112.418
		c3.802-0.82,7.604-1.644,11.407-2.457c1.953-0.418,3.104,0.283,3.531,2.242c1.668,7.666,3.322,15.336,4.959,23.009
		c0.408,1.913-0.35,3.072-2.227,3.479c-7.668,1.661-15.339,3.311-23.009,4.961c-0.263,0.057-0.526,0.112-0.793,0.129
		c-1.222,0.071-2.233-0.653-2.562-1.828c-0.098-0.355-0.166-0.72-0.242-1.08c-1.575-7.31-3.151-14.618-4.727-21.928
		c-0.042-0.196-0.085-0.394-0.126-0.591c-0.413-1.99,0.224-3,2.185-3.433c1.736-0.384,3.475-0.751,5.211-1.126
		C41.652,113.336,43.782,112.877,45.913,112.418z"/>
	<path fill="#FFFFFF" stroke="#C2C2C1" stroke-width="0.75" stroke-miterlimit="10" d="M135.378,108.149
		c-0.807-3.735-1.611-7.473-2.416-11.21c-0.078-0.359-0.168-0.722-0.203-1.086c-0.105-1.156,0.529-2.107,1.631-2.479
		c0.189-0.064,0.387-0.106,0.584-0.148c7.801-1.682,15.604-3.36,23.402-5.046c0.643-0.139,1.256-0.164,1.85,0.185
		c0.611,0.355,1.002,0.885,1.234,1.532c0.113,0.314,0.182,0.646,0.252,0.974c1.598,7.406,3.195,14.814,4.791,22.223
		c0.098,0.459,0.207,0.915,0.184,1.392c-0.059,1.174-0.713,2.031-1.834,2.372c-0.256,0.078-0.521,0.127-0.783,0.185
		c-7.473,1.611-14.945,3.222-22.42,4.832c-0.164,0.036-0.33,0.061-0.49,0.104c-1.471,0.417-2.967-0.528-3.281-2.121
		C137.107,115.941,136.22,112.05,135.378,108.149z"/>
	<path fill="#FFFFFF" stroke="#C2C2C1" stroke-width="0.75" stroke-miterlimit="10" d="M180.111,83.497
		c3.771-0.812,7.539-1.625,11.311-2.437c0.326-0.069,0.654-0.151,0.986-0.188c1.152-0.123,2.115,0.493,2.508,1.587
		c0.045,0.126,0.078,0.257,0.105,0.388c1.711,7.931,3.418,15.865,5.135,23.794c0.158,0.735,0.037,1.389-0.391,2.004
		c-0.342,0.493-0.795,0.811-1.361,0.974c-0.32,0.093-0.65,0.159-0.979,0.23c-7.375,1.589-14.75,3.179-22.125,4.77
		c-0.262,0.056-0.523,0.117-0.787,0.163c-1.426,0.24-2.514-0.387-3-1.747c-0.123-0.347-0.193-0.711-0.27-1.071
		c-1.584-7.342-3.168-14.684-4.748-22.026c-0.07-0.327-0.146-0.655-0.184-0.987c-0.148-1.34,0.531-2.641,2.094-2.946
		c2.896-0.567,5.771-1.229,8.656-1.852C178.08,83.934,179.095,83.716,180.111,83.497z"/>
	<path fill="#FFFFFF" stroke="#C2C2C1" stroke-width="0.75" stroke-miterlimit="10" d="M314.541,54.526
		c3.77-0.812,7.539-1.625,11.309-2.437c0.328-0.07,0.656-0.152,0.988-0.188c1.154-0.121,2.115,0.494,2.508,1.589
		c0.045,0.126,0.078,0.257,0.105,0.387c1.711,7.932,3.418,15.865,5.135,23.795c0.158,0.735,0.037,1.387-0.391,2.004
		c-0.342,0.492-0.797,0.81-1.361,0.972c-0.322,0.094-0.65,0.161-0.979,0.231c-7.375,1.59-14.75,3.179-22.125,4.768
		c-0.262,0.058-0.521,0.119-0.787,0.164c-1.426,0.241-2.514-0.386-2.998-1.747c-0.123-0.346-0.193-0.711-0.271-1.07
		c-1.584-7.343-3.166-14.685-4.746-22.026c-0.072-0.327-0.146-0.656-0.184-0.988c-0.148-1.339,0.531-2.64,2.096-2.945
		c2.895-0.566,5.77-1.229,8.654-1.852C312.509,54.964,313.523,54.745,314.541,54.526z"/>
	<path fill="#FFFFFF" stroke="#C2C2C1" stroke-width="0.75" stroke-miterlimit="10" d="M79.337,105.214
		c3.77-0.812,7.538-1.625,11.309-2.437c0.326-0.07,0.654-0.151,0.986-0.188c1.155-0.124,2.119,0.489,2.508,1.584
		c0.078,0.22,0.127,0.452,0.176,0.682c1.678,7.77,3.35,15.536,5.025,23.306c0.113,0.528,0.205,1.056-0.014,1.581
		c-0.324,0.784-0.854,1.358-1.691,1.594c-0.291,0.082-0.586,0.146-0.881,0.209c-7.474,1.612-14.947,3.223-22.42,4.832
		c-0.197,0.043-0.393,0.089-0.591,0.122c-1.427,0.241-2.515-0.384-3.001-1.744c-0.123-0.345-0.193-0.711-0.271-1.071
		c-1.584-7.342-3.166-14.684-4.746-22.025c-0.07-0.327-0.146-0.656-0.185-0.988c-0.149-1.345,0.539-2.634,2.093-2.948
		C71.542,106.928,75.437,106.055,79.337,105.214C79.337,105.215,79.337,105.215,79.337,105.214z"/>
	<path fill="#FFFFFF" stroke="#C2C2C1" stroke-width="0.75" stroke-miterlimit="10" d="M213.839,76.227
		c3.705-0.798,7.408-1.597,11.111-2.394c0.328-0.07,0.654-0.151,0.986-0.198c1.291-0.178,2.307,0.481,2.686,1.738
		c0.066,0.224,0.111,0.456,0.16,0.685c1.646,7.637,3.291,15.274,4.939,22.91c0.158,0.731,0.287,1.442-0.123,2.146
		c-0.355,0.607-0.832,1.049-1.512,1.242c-0.355,0.102-0.717,0.178-1.076,0.254c-7.342,1.583-14.684,3.165-22.027,4.747
		c-0.229,0.051-0.457,0.104-0.688,0.146c-1.615,0.301-2.75-0.4-3.209-1.984c-0.066-0.225-0.111-0.457-0.16-0.686
		c-1.598-7.408-3.193-14.815-4.789-22.224c-0.07-0.326-0.143-0.656-0.174-0.988c-0.125-1.326,0.586-2.564,2.072-2.866
		C205.978,77.955,209.908,77.077,213.839,76.227L213.839,76.227z"/>
	<path fill="#D6D6D6" stroke="#C2C2C1" stroke-width="0.75" stroke-miterlimit="10" d="M99.089,186.288
		c-0.826-3.836-1.652-7.673-2.482-11.51c-0.143-0.663-0.242-1.322,0.07-1.97c0.336-0.698,0.85-1.199,1.615-1.407
		c0.258-0.07,0.52-0.132,0.783-0.188c7.441-1.605,14.885-3.21,22.328-4.812c0.459-0.099,0.914-0.198,1.393-0.184
		c1.041,0.035,1.777,0.513,2.232,1.448c0.178,0.367,0.277,0.754,0.361,1.146c1.619,7.51,3.236,15.019,4.855,22.526
		c0.092,0.428,0.16,0.854,0.121,1.297c-0.1,1.135-0.736,1.942-1.822,2.279c-0.193,0.061-0.391,0.099-0.588,0.141
		c-7.607,1.64-15.213,3.279-22.82,4.92c-0.768,0.166-1.512,0.258-2.244-0.166c-0.719-0.415-1.119-1-1.289-1.813
		c-0.635-3.056-1.307-6.103-1.963-9.15C99.457,187.993,99.271,187.14,99.089,186.288z"/>
	<path fill="#FFFFFF" stroke="#C2C2C1" stroke-width="0.75" stroke-miterlimit="10" d="M368.126,128.271
		c-0.799-3.706-1.598-7.412-2.396-11.118c-0.062-0.296-0.135-0.589-0.184-0.887c-0.203-1.251,0.434-2.354,1.627-2.784
		c0.344-0.124,0.711-0.191,1.072-0.271c7.379-1.592,14.758-3.182,22.137-4.771c0.328-0.069,0.656-0.15,0.988-0.188
		c1.408-0.156,2.412,0.482,2.865,1.83c0.105,0.315,0.168,0.648,0.238,0.976c1.586,7.348,3.168,14.693,4.75,22.039
		c0.1,0.459,0.215,0.914,0.201,1.392c-0.033,1.227-0.693,2.103-1.865,2.45c-0.225,0.067-0.457,0.111-0.686,0.16
		c-7.543,1.627-15.086,3.252-22.631,4.877c-0.195,0.043-0.393,0.088-0.592,0.118c-1.514,0.23-2.641-0.511-2.977-2.019
		c-0.605-2.72-1.18-5.443-1.768-8.164C368.65,130.699,368.388,129.485,368.126,128.271z"/>
	<path fill="#FFFFFF" stroke="#C2C2C1" stroke-width="0.75" stroke-miterlimit="10" d="M334.47,135.53
		c-0.799-3.705-1.598-7.411-2.395-11.117c-0.064-0.296-0.137-0.59-0.186-0.888c-0.205-1.253,0.43-2.354,1.621-2.786
		c0.346-0.125,0.711-0.193,1.072-0.271c7.379-1.593,14.766-3.144,22.133-4.792c2.754-0.616,3.701,0.636,4.119,2.629
		c1.543,7.355,3.15,14.696,4.732,22.044c0.1,0.457,0.215,0.913,0.201,1.391c-0.031,1.222-0.693,2.105-1.861,2.454
		c-0.225,0.067-0.455,0.111-0.686,0.161c-7.543,1.625-15.086,3.251-22.629,4.877c-0.197,0.042-0.395,0.089-0.594,0.117
		c-1.516,0.232-2.643-0.507-2.979-2.013c-0.578-2.587-1.123-5.18-1.684-7.771C335.05,138.219,334.761,136.874,334.47,135.53z"/>
	<path fill="#FFFFFF" stroke="#C2C2C1" stroke-width="0.75" stroke-miterlimit="10" d="M329.566,136.584
		c0.801,3.707,1.6,7.412,2.396,11.119c0.062,0.295,0.135,0.588,0.184,0.886c0.201,1.251-0.441,2.354-1.639,2.776
		c-0.377,0.133-0.779,0.203-1.172,0.288c-7.346,1.585-14.691,3.168-22.037,4.751c-0.23,0.051-0.459,0.104-0.689,0.146
		c-1.619,0.302-2.756-0.397-3.215-1.981c-0.074-0.257-0.125-0.521-0.18-0.783c-1.584-7.347-3.168-14.692-4.748-22.039
		c-0.092-0.425-0.184-0.858-0.195-1.289c-0.031-1.172,0.508-1.988,1.59-2.438c0.34-0.14,0.703-0.221,1.062-0.299
		c7.51-1.622,15.021-3.239,22.531-4.857c0.131-0.029,0.264-0.05,0.395-0.083c1.43-0.387,2.924,0.554,3.215,2.093
		c0.543,2.866,1.209,5.71,1.824,8.562C329.115,134.486,329.341,135.536,329.566,136.584z"/>
	<path fill="#D6D6D6" stroke="#C2C2C1" stroke-width="0.75" stroke-miterlimit="10" d="M65.445,193.597
		c-0.807-3.738-1.613-7.477-2.416-11.216c-0.084-0.393-0.18-0.789-0.205-1.188c-0.07-1.095,0.546-2.058,1.568-2.449
		c0.373-0.145,0.773-0.224,1.166-0.308c7.412-1.6,14.822-3.195,22.233-4.793c0.197-0.043,0.394-0.088,0.591-0.125
		c1.569-0.287,2.699,0.382,3.188,1.898c0.102,0.317,0.164,0.649,0.234,0.979c1.569,7.279,3.139,14.56,4.707,21.84
		c0.113,0.523,0.244,1.045,0.203,1.592c-0.084,1.184-0.732,2.011-1.863,2.353c-0.096,0.029-0.195,0.053-0.293,0.073
		c-7.805,1.683-15.609,3.364-23.416,5.044c-0.639,0.138-1.256,0.121-1.855-0.204c-0.763-0.413-1.172-1.03-1.352-1.884
		C67.125,201.334,66.279,197.467,65.445,193.597z"/>
	<path fill="#090909" d="M360.476,62.851c0.416,0.094,0.699-0.032,0.986-0.094c3.74-0.801,7.479-1.606,11.217-2.415
		c1.111-0.241,1.125-0.106,0.85-1.381c-0.451-2.098-0.904-4.197-1.355-6.296c-0.057-0.262-0.115-0.524-0.154-0.79
		c-0.021-0.154-0.072-0.354,0.146-0.415c0.23-0.065,0.273,0.138,0.322,0.287c0.062,0.189,0.102,0.389,0.145,0.586
		c0.537,2.492,1.078,4.982,1.609,7.477c0.227,1.065,0.186,1.133-0.867,1.362c-3.803,0.825-7.607,1.642-11.412,2.461
		c-0.357,0.077-0.715,0.155-1.18,0.254c0.564,0.853,1.432,1.323,1.832,2.169c-0.309,0.342-0.598,0.247-0.896,0.04
		c-1.105-0.769-2.26-1.439-3.562-1.834c-0.422-0.128-0.475-0.375-0.143-0.653c1.02-0.854,1.766-1.921,2.457-3.034
		c0.172-0.275,0.361-0.481,0.811-0.391C361.312,61.131,360.769,61.922,360.476,62.851z"/>
	<path fill="#0A0A0A" d="M356.193,26.344c0.736,0.657,1.414,1.251,1.906,2.012c-0.256,0.336-0.541,0.321-0.811,0.139
		c-1.143-0.772-2.314-1.474-3.646-1.886c-0.395-0.122-0.426-0.407-0.105-0.675c1.018-0.852,1.756-1.925,2.445-3.04
		c0.188-0.305,0.4-0.542,0.848-0.372c-0.074,0.901-0.512,1.701-0.83,2.608c0.436,0.12,0.779-0.026,1.121-0.099
		c3.768-0.807,7.531-1.62,11.299-2.431c0.262-0.056,0.523-0.11,0.789-0.15c0.287-0.044,0.424,0.112,0.484,0.38
		c0.062,0.271,0.008,0.459-0.289,0.524c-0.262,0.06-0.521,0.121-0.783,0.178c-3.799,0.818-7.598,1.635-11.396,2.46
		C356.908,26.061,356.562,26.057,356.193,26.344z"/>
	<path fill="#080808" d="M55.683,93.371c0.324-0.23,0.267-0.567,0.322-0.846c0.332-1.675,0.641-3.354,0.959-5.03
		c0.043-0.23,0.078-0.463,0.131-0.69c0.074-0.318,0.25-0.536,0.592-0.604c0.35-0.07,0.576,0.081,0.764,0.351
		c0.497,0.714,0.998,1.427,1.499,2.138c0.769,1.092,1.539,2.183,2.403,3.408c0.104-0.372,0.18-0.599,0.229-0.832
		c0.365-1.735,0.725-3.474,1.086-5.212c0.034-0.164,0.061-0.329,0.102-0.491c0.162-0.639,0.479-0.914,0.931-0.818
		c0.407,0.086,0.604,0.448,0.485,1.053c-0.539,2.726-1.103,5.447-1.648,8.172c-0.07,0.355-0.212,0.646-0.58,0.743
		c-0.434,0.114-0.681-0.156-0.902-0.478c-1.049-1.514-2.097-3.026-3.16-4.53c-0.187-0.265-0.297-0.612-0.699-0.753
		c-0.362,1.951-0.723,3.891-1.082,5.828c-0.049,0.264-0.079,0.535-0.167,0.784c-0.242,0.679-0.81,0.789-1.321,0.268
		c-0.139-0.143-0.25-0.313-0.367-0.477c-1.468-2.038-2.934-4.076-4.4-6.115c-0.096-0.136-0.203-0.268-0.289-0.41
		c-0.273-0.457-0.239-0.852,0.083-1.069c0.339-0.229,0.752-0.16,1.059,0.206c0.216,0.256,0.402,0.536,0.599,0.807
		c0.963,1.328,1.924,2.657,2.889,3.984C55.349,92.965,55.519,93.164,55.683,93.371z"/>
	<path fill="#080808" d="M92.642,82.81c-0.981,0.212-1.961,0.443-2.947,0.627c-0.495,0.094-0.607,0.319-0.428,0.765
		c0.201,0.499,0.418,0.986,0.752,1.412c1.272,1.614,3.549,1.496,4.662-0.24c0.127-0.197,0.23-0.408,0.348-0.61
		c0.178-0.302,0.471-0.4,0.775-0.322c0.373,0.098,0.504,0.407,0.506,0.775c0.002,0.28-0.121,0.521-0.252,0.753
		c-1.289,2.284-4.004,3.124-6.344,1.392c-2.351-1.738-2.736-5.267-0.875-7.517c2.057-2.487,5.844-1.521,7.043,1
		c0.467,0.985,0.344,1.188-0.688,1.414C94.345,82.447,93.494,82.627,92.642,82.81z"/>
	<path fill="#080808" d="M122.931,72.883c1.252-1.16,2.6-1.584,4.158-1.247c0.598,0.13,1.133,0.403,1.6,0.803
		c0.312,0.27,0.473,0.606,0.205,0.97c-0.244,0.331-0.613,0.384-0.988,0.208c-0.18-0.085-0.334-0.228-0.512-0.314
		c-1.012-0.489-2.006-0.484-2.947,0.17c-0.818,0.569-1.186,1.343-0.971,2.345c0.309,1.442,0.619,2.883,0.928,4.323
		c0.051,0.229,0.115,0.458,0.131,0.69c0.025,0.391-0.201,0.641-0.559,0.726c-0.355,0.084-0.672-0.022-0.816-0.399
		c-0.072-0.188-0.117-0.385-0.16-0.58c-0.502-2.324-1.006-4.648-1.5-6.976c-0.088-0.416-0.271-0.888,0.232-1.167
		C122.248,72.147,122.63,72.401,122.931,72.883z"/>
	<path fill="#090909" d="M157.095,66.969c-0.135-0.622-0.264-1.245-0.402-1.867c-0.221-0.979-0.223-0.979-1.164-0.787
		c-0.229,0.047-0.457,0.114-0.688,0.143c-0.5,0.061-0.855-0.157-0.898-0.567c-0.045-0.42,0.137-0.713,0.568-0.812
		c0.359-0.082,0.717-0.178,1.08-0.234c0.424-0.066,0.562-0.276,0.467-0.693c-0.168-0.718-0.312-1.44-0.465-2.162
		c-0.049-0.229-0.105-0.458-0.131-0.69c-0.047-0.41,0.084-0.739,0.518-0.849c0.439-0.109,0.713,0.122,0.855,0.507
		c0.092,0.25,0.135,0.518,0.191,0.779c0.158,0.721,0.32,1.439,0.469,2.162c0.074,0.378,0.271,0.492,0.643,0.396
		c0.389-0.101,0.785-0.175,1.18-0.248c0.43-0.078,0.74,0.104,0.84,0.519c0.102,0.415-0.102,0.728-0.512,0.849
		c-0.385,0.113-0.777,0.202-1.176,0.265c-0.439,0.07-0.533,0.3-0.441,0.705c0.336,1.504,0.615,3.022,0.996,4.515
		c0.322,1.271,1.51,1.573,2.48,0.685c0.221-0.201,0.391-0.458,0.594-0.679c0.295-0.323,0.658-0.34,0.996-0.113
		c0.369,0.25,0.338,0.627,0.17,0.99c-0.471,1.017-1.939,1.811-3.195,1.736c-1.109-0.065-2.043-0.87-2.426-2.094
		c-0.021-0.063-0.041-0.128-0.055-0.194c-0.162-0.753-0.324-1.507-0.488-2.26C157.097,66.969,157.095,66.969,157.095,66.969z"/>
	<path fill="#080808" d="M193.494,63.579c0.273-0.224,0.242-0.548,0.307-0.829c0.457-2.027,0.906-4.057,1.357-6.084
		c0.051-0.229,0.088-0.463,0.164-0.685c0.162-0.464,0.533-0.709,0.908-0.583c0.404,0.138,0.566,0.444,0.492,0.869
		c-0.029,0.165-0.062,0.329-0.102,0.492c-1.164,5.235-2.328,10.47-3.496,15.705c-0.188,0.834-0.461,1.114-0.961,1.021
		c-0.492-0.09-0.648-0.495-0.469-1.318c0.42-1.933,0.834-3.866,1.291-5.79c0.119-0.504,0.041-0.875-0.273-1.288
		c-1.566-2.051-3.104-4.124-4.646-6.194c-0.197-0.266-0.438-0.511-0.516-0.854c-0.072-0.321-0.027-0.601,0.27-0.794
		s0.594-0.139,0.836,0.069c0.199,0.173,0.354,0.4,0.516,0.615c1.246,1.663,2.488,3.329,3.732,4.992
		C193.08,63.157,193.214,63.427,193.494,63.579z"/>
	<path fill="#090909" d="M230.056,57.565c-0.719,0.628-1.404,1.128-2.305,1.302c-2.035,0.391-4.086-0.757-4.625-2.745
		c-0.412-1.518-0.701-3.069-1.018-4.611c-0.121-0.6,0.072-0.938,0.494-1.049c0.459-0.119,0.85,0.131,0.992,0.747
		c0.346,1.467,0.637,2.947,0.971,4.417c0.23,1.018,0.908,1.621,1.904,1.841c0.967,0.214,1.791-0.105,2.426-0.85
		c0.586-0.688,0.695-1.505,0.514-2.366c-0.262-1.246-0.535-2.489-0.801-3.733c-0.051-0.229-0.105-0.458-0.133-0.689
		c-0.041-0.394,0.156-0.65,0.527-0.737c0.412-0.098,0.723,0.051,0.861,0.476c0.039,0.127,0.066,0.26,0.096,0.391
		c0.5,2.324,1,4.648,1.504,6.974c0.094,0.436,0.219,0.898-0.297,1.145C230.667,58.309,230.281,58.088,230.056,57.565z"/>
	<path fill="#080808" d="M73.939,154.783c-0.381,0.082-0.694,0.148-1.01,0.218c-1.179,0.254-2.355,0.519-3.539,0.756
		c-0.564,0.113-0.969-0.105-1.045-0.502c-0.07-0.363,0.191-0.729,0.682-0.839c2.027-0.451,4.061-0.878,6.091-1.322
		c0.325-0.071,0.59-0.015,0.815,0.235c0.283,0.312,0.158,0.621,0.008,0.93c-1.029,2.106-2.062,4.212-3.092,6.318
		c-0.219,0.447-0.43,0.899-0.631,1.324c0.231,0.314,0.471,0.141,0.674,0.1c1.183-0.242,2.359-0.503,3.541-0.756
		c0.229-0.05,0.457-0.104,0.689-0.133c0.352-0.042,0.585,0.143,0.688,0.458c0.115,0.359,0.008,0.672-0.338,0.849
		c-0.176,0.089-0.381,0.126-0.576,0.168c-1.834,0.397-3.668,0.794-5.504,1.188c-0.164,0.035-0.328,0.082-0.494,0.088
		c-0.572,0.019-0.889-0.338-0.764-0.889c0.06-0.256,0.192-0.497,0.311-0.737c1.042-2.138,2.089-4.272,3.13-6.411
		C73.714,155.536,73.91,155.26,73.939,154.783z"/>
	<path fill="#080808" d="M106.654,150.103c0.555-0.899,1.078-1.753,1.602-2.604c0.246-0.4,0.475-0.812,0.74-1.198
		c0.307-0.448,0.754-0.586,1.107-0.381c0.391,0.228,0.459,0.607,0.15,1.133c-0.594,1.011-1.213,2.011-1.828,3.011
		c-0.641,1.042-0.645,1.041,0.355,1.703c0.84,0.556,1.682,1.107,2.521,1.663c0.195,0.13,0.393,0.259,0.574,0.405
		c0.299,0.244,0.385,0.555,0.174,0.891c-0.225,0.356-0.549,0.486-0.949,0.289c-0.209-0.103-0.406-0.231-0.602-0.359
		c-0.959-0.617-1.93-1.219-2.865-1.87c-0.453-0.316-0.686-0.212-0.945,0.226c-0.6,1.009-1.23,1.999-1.861,2.988
		c-0.459,0.719-0.828,0.886-1.26,0.609c-0.43-0.272-0.432-0.676,0.018-1.403c0.6-0.97,1.211-1.933,1.818-2.897
		c0.621-0.991,0.502-0.85-0.271-1.378c-0.914-0.623-1.85-1.219-2.771-1.828c-0.195-0.13-0.408-0.244-0.574-0.406
		c-0.26-0.256-0.363-0.576-0.146-0.907c0.207-0.322,0.535-0.411,0.881-0.276c0.277,0.108,0.533,0.276,0.787,0.438
		C104.406,148.649,105.5,149.358,106.654,150.103z"/>
	<path fill="#090909" d="M139.794,139.125c1.033-0.23,2.162-0.042,3.201,0.616c0.543,0.343,0.658,0.652,0.447,1.062
		c-0.215,0.422-0.65,0.533-1.205,0.192c-1.594-0.983-3.236-0.397-4.1,0.787c-0.926,1.272-0.779,3.271,0.344,4.451
		c1.328,1.396,3.482,1.293,4.662-0.225c0.125-0.158,0.225-0.338,0.361-0.482c0.291-0.305,0.643-0.385,0.988-0.117
		c0.332,0.257,0.4,0.611,0.18,0.98c-0.154,0.258-0.322,0.513-0.52,0.739c-2.182,2.524-6.193,1.929-7.592-1.123
		c-0.904-1.974-0.59-4.14,0.812-5.618C138.042,139.689,138.667,139.347,139.794,139.125z"/>
	<path fill="#090909" d="M259.488,47.498c-0.246-1.145-0.492-2.287-0.738-3.431c-0.043-0.195-0.088-0.393-0.117-0.59
		c-0.07-0.437,0.145-0.736,0.541-0.829c0.396-0.092,0.717,0.1,0.859,0.508c0.055,0.155,0.09,0.32,0.125,0.483
		c0.51,2.353,1.016,4.704,1.521,7.057c0.027,0.131,0.062,0.261,0.076,0.394c0.055,0.521-0.131,0.837-0.531,0.928
		c-0.406,0.092-0.729-0.122-0.885-0.601c-0.062-0.19-0.092-0.391-0.135-0.586C259.966,49.719,259.728,48.609,259.488,47.498z"/>
	<path fill="#111111" d="M259.398,38.539c0.113,0.587-0.264,1.151-0.842,1.262c-0.574,0.109-1.166-0.279-1.279-0.84
		c-0.111-0.562,0.285-1.144,0.863-1.264C258.718,37.578,259.287,37.957,259.398,38.539z"/>
	<path fill="#080808" d="M298.476,39.214c0.543,2.534-1.006,4.995-3.463,5.501c-2.385,0.492-4.779-1.136-5.328-3.623
		c-0.553-2.508,1.01-5.061,3.41-5.568C295.509,35.013,297.933,36.676,298.476,39.214z"/>
	<path fill="#080808" d="M325.419,36.743c0.201,0.935,0.369,1.714,0.537,2.494c0.311,1.442,0.623,2.886,0.932,4.328
		c0.049,0.229,0.104,0.46,0.119,0.693c0.023,0.335-0.125,0.582-0.455,0.693c-0.375,0.125-0.672,0.003-0.852-0.332
		c-0.109-0.202-0.178-0.435-0.227-0.661c-1.016-4.688-2.023-9.376-3.035-14.064c-0.008-0.033-0.014-0.064-0.02-0.099
		c-0.133-0.744,0.012-1.163,0.439-1.291c0.393-0.118,0.684,0.13,1.014,0.863c0.012,0.024,0.049,0.038,0.143,0.106
		c0.951-1.076,2.115-1.8,3.623-1.744c1.041,0.039,1.959,0.418,2.744,1.104c1.77,1.543,2.246,4.219,1.119,6.233
		C330.345,37.142,328.404,37.712,325.419,36.743z"/>
	<path fill="#090909" d="M174.333,138.998c0.428-2.019,0.799-3.78,1.172-5.541c0.09-0.427,0.162-0.857,0.281-1.275
		c0.15-0.53,0.533-0.807,0.939-0.684c0.492,0.149,0.545,0.55,0.459,0.977c-0.428,2.133-0.867,4.265-1.301,6.396
		c-0.121,0.592-0.238,1.182-0.361,1.771c-0.078,0.369-0.184,0.726-0.615,0.834c-0.436,0.109-0.686-0.143-0.912-0.459
		c-1.607-2.225-3.219-4.447-4.828-6.671c-0.039-0.054-0.084-0.104-0.117-0.162c-0.252-0.456-0.203-0.831,0.141-1.067
		c0.328-0.228,0.703-0.143,1.053,0.257c0.131,0.149,0.232,0.326,0.352,0.488C171.794,135.509,172.994,137.158,174.333,138.998z"/>
	<path fill="#080808" d="M203.917,126.45c0.947-1.069,2.078-1.8,3.543-1.779c1.104,0.016,2.098,0.383,2.938,1.123
		c1.74,1.537,2.17,4.131,1.01,6.133c-1.199,2.068-3.219,2.638-5.947,1.678c-0.102,0.821-0.33,1.173-0.764,1.166
		c-0.434-0.006-0.67-0.291-0.842-1.087c-1.111-5.142-2.219-10.286-3.326-15.429c-0.016-0.066-0.031-0.131-0.041-0.197
		c-0.104-0.67,0.061-1.009,0.533-1.104c0.461-0.094,0.746,0.15,0.896,0.837c0.559,2.553,1.1,5.108,1.66,7.663
		C203.646,125.767,203.63,126.116,203.917,126.45z"/>
	<path fill="#080808" d="M237.753,119.163c1.881-1.785,4.047-1.619,5.691-0.349c0.557,0.429,0.967,0.945,1.121,1.617
		c0.385,1.665,0.752,3.335,1.088,5.011c0.115,0.58-0.25,0.965-0.76,0.892c-0.43-0.062-0.607-0.375-0.693-0.76
		c-0.145-0.655-0.285-1.312-0.428-1.967c-0.17-0.785-0.326-1.574-0.512-2.357c-0.326-1.382-1.578-2.184-2.951-1.906
		c-1.422,0.286-2.268,1.537-1.982,2.989c0.266,1.348,0.576,2.688,0.859,4.031c0.18,0.848,0.053,1.206-0.443,1.335
		c-0.51,0.13-0.793-0.138-0.979-0.98c-0.494-2.26-0.977-4.521-1.465-6.782c-0.021-0.098-0.041-0.196-0.059-0.296
		c-0.062-0.383-0.07-0.753,0.357-0.94c0.393-0.174,0.715-0.058,0.969,0.28C237.609,119.034,237.664,119.074,237.753,119.163z"/>
	<path fill="#080808" d="M274.162,112.209c0.697-1.291,1.672-2.073,3.074-2.303c1.838-0.301,3.602,0.649,4.303,2.379
		c0.139,0.34,0.234,0.699,0.314,1.059c0.266,1.178,0.516,2.359,0.768,3.54c0.049,0.229,0.107,0.46,0.117,0.692
		c0.02,0.423-0.174,0.713-0.613,0.778c-0.393,0.06-0.646-0.133-0.762-0.496c-0.082-0.255-0.131-0.52-0.188-0.78
		c-0.271-1.246-0.506-2.5-0.82-3.735c-0.393-1.541-1.658-2.31-3.109-1.957c-1.391,0.337-2.168,1.589-1.877,3.086
		c0.24,1.251,0.529,2.492,0.799,3.739c0.049,0.229,0.102,0.459,0.141,0.689c0.072,0.438-0.119,0.727-0.539,0.823
		c-0.424,0.097-0.719-0.082-0.832-0.516c-0.059-0.228-0.107-0.457-0.158-0.687c-0.275-1.278-0.531-2.562-0.836-3.834
		c-0.236-0.986-0.85-1.675-1.854-1.922c-0.992-0.244-1.865,0.028-2.562,0.773c-0.652,0.698-0.748,1.547-0.557,2.445
		c0.26,1.215,0.523,2.428,0.781,3.641c0.057,0.263,0.113,0.525,0.139,0.792c0.031,0.347-0.152,0.572-0.479,0.674
		c-0.324,0.103-0.588,0.002-0.799-0.265c-0.174-0.223-0.209-0.489-0.266-0.75c-0.48-2.229-0.963-4.459-1.441-6.689
		c-0.039-0.195-0.088-0.397-0.078-0.594c0.037-0.695,0.629-0.994,1.193-0.575c0.225,0.166,0.336,0.398,0.646,0.134
		C270.417,110.853,272.234,110.877,274.162,112.209z"/>
	<path fill="#0A0A0A" d="M308.671,114.33c-0.023-0.821-0.09-1.82-0.07-2.817c0.014-0.687,0.586-1.136,1.203-1.05
		c0.654,0.09,1.062,0.611,0.916,1.299c-0.223,1.05-0.635,2.035-1.217,2.944c-0.131,0.201-0.287,0.41-0.561,0.311
		C308.736,114.937,308.726,114.704,308.671,114.33z"/>
	<path fill="#080808" d="M27.615,100.606c-2.23,2.118-4.279,2.408-6.184,1.012c-1.914-1.406-2.588-4.218-1.512-6.312
		c1.123-2.188,3.077-2.827,5.989-1.955c0.185-0.207,0.021-0.448,0.062-0.67c0.062-0.34,0.263-0.528,0.592-0.593
		c0.35-0.07,0.598,0.099,0.748,0.379c0.106,0.202,0.147,0.443,0.197,0.671c1.041,4.814,2.08,9.628,3.113,14.444
		c0.178,0.828,0.049,1.242-0.4,1.378c-0.487,0.147-0.842-0.208-1.031-1.07c-0.451-2.062-0.893-4.126-1.336-6.188
		C27.783,101.384,27.714,101.067,27.615,100.606z"/>
	<path fill="#0A0A0A" d="M373.812,82.511c0.158,1.05,0.068,2.05,0.094,3.045c0.02,0.645-0.625,1.104-1.223,0.997
		c-0.678-0.12-1.025-0.597-0.883-1.291c0.207-1.019,0.617-1.963,1.15-2.854c0.131-0.22,0.264-0.521,0.586-0.432
		C373.798,82.051,373.773,82.349,373.812,82.511z"/>
	<path fill="#0A0A0A" d="M378.505,81.651c0.008,0.923,0.059,1.96,0.008,2.993c-0.031,0.629-0.629,1.021-1.203,0.913
		c-0.639-0.12-1.018-0.583-0.891-1.229c0.205-1.061,0.619-2.048,1.199-2.963c0.121-0.194,0.246-0.44,0.523-0.396
		C378.451,81.021,378.367,81.337,378.505,81.651z"/>
	<path fill="#0A0A0A" d="M341.107,89.76c0.002,0.931,0.041,1.93-0.012,2.924c-0.033,0.634-0.67,1.055-1.279,0.955
		c-0.738-0.121-1.07-0.603-0.885-1.372c0.246-1.011,0.68-1.945,1.258-2.812c0.127-0.19,0.266-0.43,0.529-0.396
		C341.083,89.109,340.974,89.47,341.107,89.76z"/>
	<path fill="#080808" d="M282.867,78.289c0.213,0.988,0.406,1.866,0.59,2.746c0.055,0.261,0.109,0.527,0.109,0.792
		c0.002,0.333-0.188,0.578-0.512,0.662c-0.373,0.095-0.662-0.072-0.826-0.405c-0.088-0.176-0.117-0.383-0.158-0.579
		c-1.104-5.11-2.205-10.219-3.305-15.329c-0.043-0.197-0.1-0.396-0.104-0.593c-0.004-0.37,0.158-0.652,0.543-0.741
		c0.381-0.087,0.668,0.064,0.805,0.423c0.107,0.279,0.174,0.577,0.236,0.87c0.625,2.882,1.244,5.765,1.865,8.647
		c0.07,0.322,0.141,0.646,0.201,0.936c0.375,0.128,0.48-0.14,0.627-0.291c0.918-0.93,1.82-1.874,2.734-2.806
		c0.562-0.574,1.035-0.686,1.373-0.347c0.35,0.352,0.268,0.783-0.287,1.389c-0.947,1.033-1.9,2.06-2.934,3.176
		c0.971,0.649,1.871,1.259,2.779,1.86c0.559,0.369,1.127,0.726,1.689,1.093c0.191,0.127,0.418,0.224,0.535,0.441
		c0.15,0.281,0.207,0.572-0.002,0.849c-0.215,0.28-0.5,0.332-0.809,0.188c-0.242-0.11-0.471-0.251-0.697-0.393
		c-1.225-0.761-2.441-1.528-3.666-2.289C283.462,78.47,283.287,78.305,282.867,78.289z"/>
	<path fill="#090909" d="M252.984,86.819c0.389,1.802,0.785,3.601,1.162,5.404c0.336,1.599-0.029,3.021-1.268,4.109
		c-1.363,1.198-2.955,1.478-4.684,0.876c-0.156-0.056-0.312-0.125-0.455-0.211c-0.516-0.311-0.672-0.685-0.455-1.062
		c0.223-0.391,0.57-0.489,1.129-0.244c0.629,0.277,1.26,0.425,1.947,0.298c1.719-0.318,2.719-1.743,2.355-3.458
		c-0.752-3.573-1.531-7.141-2.301-10.709c-0.057-0.263-0.127-0.523-0.156-0.788c-0.049-0.43,0.158-0.701,0.576-0.81
		c0.447-0.116,0.703,0.092,0.82,0.508c0.064,0.227,0.113,0.455,0.164,0.685C252.21,83.219,252.597,85.019,252.984,86.819
		C252.986,86.819,252.986,86.819,252.984,86.819z"/>
	<path fill="#0E0E0E" d="M250.964,75.762c0.139,0.579-0.221,1.149-0.812,1.286c-0.57,0.133-1.201-0.242-1.324-0.787
		c-0.119-0.534,0.293-1.182,0.834-1.308C250.226,74.823,250.83,75.198,250.964,75.762z"/>
	<path fill="#080808" d="M120.039,117.317c-2.283,1.795-4.717,1.977-6.49,0.484c-1.701-1.431-2.143-3.921-1.055-5.94
		c1.104-2.052,3.062-2.649,5.988-1.821c0.17-0.298,0.008-0.585-0.051-0.864c-0.543-2.556-1.096-5.109-1.646-7.664
		c-0.057-0.261-0.117-0.522-0.148-0.789c-0.039-0.333,0.084-0.595,0.424-0.705c0.359-0.116,0.66-0.023,0.883,0.288
		c0.162,0.227,0.189,0.498,0.246,0.758c1.104,5.108,2.203,10.216,3.305,15.324c0.027,0.132,0.057,0.263,0.078,0.396
		c0.066,0.39,0.016,0.765-0.354,0.967c-0.426,0.231-0.771,0.064-1.016-0.337C120.173,117.366,120.095,117.348,120.039,117.317z"/>
	<path fill="#080808" d="M52.692,131.877c-0.587,0.487-1.142,0.901-1.829,1.128c-2.859,0.935-5.443-0.922-6.03-3.72
		c-0.276-1.32-0.067-2.604,0.708-3.755c1.076-1.6,2.801-2.282,4.73-1.843c0.453,0.104,0.793,0.256,1.146-0.304
		c0.323-0.51,1.024-0.285,1.22,0.333c0.121,0.382,0.181,0.783,0.266,1.177c0.46,2.131,0.917,4.263,1.379,6.394
		c0.09,0.414,0.145,0.82-0.332,1.032c-0.426,0.189-0.783,0.087-1.036-0.325C52.884,131.949,52.804,131.934,52.692,131.877z"/>
	<path fill="#090909" d="M148.455,99.081c0.154,0.721,0.33,1.438,0.457,2.165c0.088,0.487,0.273,0.719,0.805,0.547
		c0.316-0.104,0.652-0.148,0.98-0.212c0.412-0.08,0.738,0.021,0.869,0.462c0.117,0.397-0.094,0.746-0.578,0.901
		c-0.316,0.104-0.648,0.183-0.979,0.22c-0.549,0.062-0.615,0.341-0.506,0.827c0.441,1.962,0.855,3.931,1.275,5.896
		c0.062,0.293,0.158,0.582,0.104,0.894c-0.066,0.392-0.312,0.564-0.688,0.615c-0.354,0.05-0.59-0.115-0.713-0.422
		c-0.1-0.246-0.152-0.513-0.209-0.773c-0.42-1.934-0.83-3.868-1.256-5.801c-0.164-0.746-0.18-0.743-0.928-0.602
		c-0.264,0.051-0.523,0.129-0.789,0.158c-0.502,0.056-0.846-0.167-0.896-0.581c-0.051-0.439,0.17-0.693,0.596-0.784
		c0.328-0.071,0.65-0.164,0.98-0.213c0.436-0.064,0.547-0.289,0.455-0.701c-0.266-1.177-0.512-2.358-0.764-3.539
		c-0.16-0.757-0.248-1.515-0.172-2.294c0.291-3.005,3.723-3.608,5.344-2.641c0.291,0.173,0.59,0.342,0.594,0.74
		c0.006,0.601-0.516,0.928-1.135,0.632c-0.543-0.261-1.055-0.353-1.645-0.223c-1.365,0.301-1.92,1.062-1.684,2.463
		C148.101,97.577,148.292,98.326,148.455,99.081C148.457,99.081,148.457,99.081,148.455,99.081z"/>
	<path fill="#080808" d="M187.267,102.599c-0.42,0.002-0.555,0.228-0.729,0.366c-2.318,1.857-5.354,0.942-6.693-1.26
		c-1.557-2.553-0.697-5.814,1.869-7.077c0.953-0.468,1.947-0.449,2.941-0.222c0.436,0.099,0.742,0.237,1.078-0.288
		c0.34-0.533,1.01-0.35,1.242,0.256c0.061,0.155,0.082,0.324,0.117,0.488c0.791,3.672,1.594,7.342,2.369,11.017
		c0.424,2.007-0.326,3.77-2.01,4.741c-1.289,0.744-2.646,0.884-4.039,0.297c-0.242-0.104-0.494-0.24-0.674-0.427
		c-0.219-0.229-0.275-0.54-0.092-0.834c0.176-0.282,0.43-0.428,0.768-0.312c0.189,0.063,0.369,0.157,0.557,0.229
		c1.125,0.437,2.188,0.3,3.117-0.458c0.939-0.769,1.252-1.768,0.951-2.974C187.75,104.974,187.523,103.789,187.267,102.599z"/>
	<path fill="#0A0A0A" d="M317.865,66.082c0.543,2.52,1.086,5.04,1.629,7.56c0.051,0.229,0.1,0.458,0.137,0.689
		c0.064,0.414-0.188,0.654-0.527,0.733c-0.336,0.078-0.68-0.015-0.814-0.403c-0.086-0.252-0.143-0.517-0.197-0.777
		c-1.094-5.072-2.189-10.145-3.279-15.217c-0.057-0.262-0.123-0.525-0.135-0.791c-0.016-0.385,0.209-0.654,0.572-0.707
		c0.35-0.05,0.67,0.084,0.783,0.473c0.064,0.225,0.111,0.455,0.16,0.685C316.751,60.912,317.308,63.497,317.865,66.082z"/>
	<path fill="#080808" d="M81.829,116.639c1.134-0.312,2.203-0.091,3.239,0.358c0.523,0.227,0.727,0.639,0.518,1.022
		c-0.228,0.416-0.593,0.499-1.033,0.34c-0.5-0.182-0.99-0.37-1.545-0.4c-0.744-0.04-1.384,0.216-2.002,0.554
		c-0.296,0.161-0.535,0.402-0.488,0.806c0.045,0.391,0.289,0.592,0.627,0.702c0.606,0.201,1.234,0.277,1.873,0.32
		c0.766,0.053,1.535,0.104,2.279,0.324c0.939,0.276,1.62,0.836,1.821,1.815c0.203,0.992-0.103,1.859-0.87,2.535
		c-0.539,0.475-1.175,0.789-1.875,0.909c-1.203,0.206-2.4,0.161-3.561-0.273c-0.729-0.272-0.963-0.591-0.809-1.054
		c0.155-0.465,0.531-0.575,1.262-0.345c1.045,0.33,2.092,0.424,3.162,0.114c0.365-0.105,0.686-0.271,0.943-0.545
		c0.557-0.59,0.389-1.409-0.363-1.711c-0.275-0.109-0.578-0.17-0.875-0.205c-0.662-0.079-1.33-0.136-1.996-0.189
		c-0.64-0.053-1.262-0.181-1.834-0.479c-1.406-0.735-1.68-2.397-0.584-3.551C80.294,117.083,81.021,116.763,81.829,116.639z"/>
	<path fill="#090909" d="M214.343,89.209c0.77-0.696,1.584-1.169,2.588-1.296c1.885-0.24,3.898,1.106,4.32,2.957
		c0.328,1.438,0.625,2.883,0.936,4.324c0.029,0.132,0.061,0.263,0.076,0.396c0.053,0.435-0.135,0.708-0.568,0.8
		c-0.438,0.094-0.711-0.104-0.842-0.511c-0.07-0.223-0.117-0.454-0.166-0.685c-0.25-1.146-0.49-2.295-0.746-3.438
		c-0.072-0.325-0.162-0.654-0.301-0.955c-0.51-1.11-1.646-1.661-2.82-1.393c-1.209,0.277-2.008,1.319-1.939,2.573
		c0.021,0.399,0.104,0.797,0.186,1.189c0.252,1.215,0.52,2.426,0.775,3.64c0.092,0.441,0.02,0.809-0.486,0.943
		c-0.453,0.121-0.791-0.092-0.967-0.629c-0.061-0.19-0.092-0.392-0.133-0.588c-1.068-4.949-2.135-9.897-3.199-14.847
		c-0.055-0.261-0.141-0.529-0.127-0.79c0.021-0.396,0.238-0.733,0.654-0.772c0.352-0.033,0.648,0.165,0.762,0.535
		c0.076,0.256,0.131,0.52,0.188,0.781c0.482,2.229,0.959,4.457,1.445,6.686C214.048,88.452,214.06,88.796,214.343,89.209z"/>
	<path fill="#0C0C0C" d="M121.376,181.413c0.217,0.254,0.549,0.215,0.816,0.322c1.211,0.483,1.596,1.589,1.082,2.796
		c-0.641,1.507-4.33,2.542-5.736,0.989c-0.293-0.322-0.582-0.65-0.688-1.089c-0.033-0.137,0.031-0.28,0.174-0.32
		c0.082-0.021,0.219,0.004,0.271,0.062c0.154,0.174,0.281,0.373,0.414,0.565c0.275,0.398,0.629,0.714,1.102,0.826
		c1.283,0.308,2.465,0.06,3.477-0.793c0.49-0.414,0.691-1.001,0.518-1.639c-0.164-0.595-0.678-0.79-1.223-0.906
		c-0.525-0.112-1.057-0.171-1.594-0.097c-0.166,0.021-0.334,0.062-0.498,0.057c-0.223-0.008-0.521,0.059-0.594-0.235
		c-0.072-0.307,0.207-0.383,0.432-0.442c0.424-0.113,0.828-0.271,1.209-0.485c0.26-0.146,0.533-0.285,0.766-0.472
		c1.029-0.815,0.854-2.01-0.377-2.516c-0.93-0.384-1.846-0.158-2.74,0.159c-0.943,0.335-1.471,1.009-1.547,2.021
		c-0.006,0.066-0.02,0.133-0.037,0.198c-0.049,0.2-0.107,0.41-0.379,0.347c-0.188-0.045-0.248-0.215-0.238-0.392
		c0.037-0.686,0.203-1.322,0.664-1.856c0.988-1.146,3.25-1.639,4.635-1.01c1.523,0.693,1.779,2.267,0.562,3.422
		C121.687,181.077,121.441,181.148,121.376,181.413z"/>
	<path fill="#0A0A0A" d="M110.937,187.602c1.273-0.273,2.543-0.562,3.822-0.812c0.311-0.061,0.818-0.391,0.914,0.165
		c0.076,0.438-0.473,0.367-0.766,0.435c-1.506,0.344-3.016,0.667-4.525,0.979c-0.271,0.055-0.621,0.289-0.818-0.072
		c-0.174-0.321,0.137-0.561,0.309-0.791c0.969-1.287,1.945-2.566,2.922-3.847c0.307-0.401,0.594-0.812,0.795-1.279
		c0.621-1.448-0.234-2.777-1.82-2.772c-1.809,0.007-2.891,0.931-2.861,2.522c0.002,0.034,0.002,0.067,0.002,0.101
		c-0.004,0.222-0.086,0.423-0.318,0.437c-0.242,0.013-0.332-0.187-0.348-0.406c-0.062-1.033,0.209-1.938,1.072-2.572
		c0.908-0.664,1.934-0.913,3.045-0.689c1.709,0.342,2.561,1.901,1.926,3.516c-0.225,0.566-0.562,1.065-0.932,1.548
		c-0.852,1.114-1.695,2.234-2.543,3.354C110.853,187.475,110.894,187.539,110.937,187.602z"/>
	<path fill="#131313" d="M105.648,181.894c-0.312,0.357-0.398,0.788-0.594,1.155c-0.117,0.222-0.264,0.425-0.539,0.302
		c-0.232-0.104-0.188-0.338-0.105-0.524c0.334-0.769,0.678-1.531,1.021-2.294c0.086-0.19,0.219-0.354,0.453-0.324
		c0.229,0.026,0.328,0.208,0.377,0.413c0.047,0.194,0.092,0.392,0.135,0.588c0.467,2.16,0.934,4.321,1.396,6.481
		c0.057,0.263,0.105,0.525,0.135,0.79c0.025,0.219-0.049,0.403-0.299,0.438c-0.258,0.035-0.354-0.143-0.406-0.346
		c-0.059-0.229-0.107-0.457-0.158-0.687c-0.359-1.67-0.715-3.34-1.082-5.008C105.912,182.568,105.914,182.225,105.648,181.894z"/>
	<path fill="#0F0F0F" d="M381.566,122.487c-0.396-1.834-0.793-3.667-1.184-5.502c-0.062-0.293-0.127-0.595-0.127-0.891
		c0.002-0.379,0.219-0.62,0.611-0.677c0.348-0.051,0.594,0.11,0.719,0.418c0.1,0.245,0.152,0.512,0.211,0.772
		c0.805,3.732,1.609,7.468,2.414,11.199c0.043,0.196,0.096,0.394,0.115,0.592c0.047,0.498-0.176,0.9-0.547,0.936
		c-0.471,0.044-0.748-0.225-0.869-0.661c-0.064-0.226-0.109-0.456-0.158-0.685C382.355,126.156,381.96,124.322,381.566,122.487z"/>
	<path fill="#0D0D0D" d="M385.523,132.464c0.109,0.6-0.285,1.18-0.859,1.261c-0.588,0.082-1.113-0.33-1.205-0.946
		c-0.084-0.574,0.258-1.066,0.824-1.186C384.882,131.468,385.41,131.837,385.523,132.464z"/>
	<path fill="#080808" d="M347.941,133.907c-0.141-0.656-0.303-1.31-0.42-1.97c-0.133-0.744,0.164-1.225,0.875-1.477
		c0.189-0.066,0.396-0.084,0.586-0.148c1.775-0.604,2.561-2.617,1.666-4.27c-0.795-1.471-2.307-2.156-3.869-1.886
		c-1.24,0.216-2.49,1.585-2.318,3.193c0.016,0.166,0.074,0.328,0.086,0.494c0.037,0.528-0.172,0.839-0.596,0.883
		c-0.488,0.051-0.75-0.21-0.85-0.663c-0.303-1.393-0.049-2.677,0.834-3.796c1.471-1.858,4.186-2.211,6.246-0.823
		c0.969,0.653,1.705,1.493,2.055,2.646c0.721,2.388-0.264,4.562-2.586,5.492c-0.525,0.211-0.654,0.425-0.521,0.942
		c0.221,0.879,0.391,1.77,0.578,2.654c0.051,0.23,0.098,0.461,0.133,0.692c0.062,0.419-0.105,0.73-0.498,0.878
		c-0.355,0.134-0.775-0.127-0.9-0.586c-0.16-0.581-0.266-1.179-0.395-1.769C348.011,134.234,347.974,134.07,347.941,133.907
		C347.939,133.907,347.941,133.907,347.941,133.907z"/>
	<path fill="#101010" d="M351.042,139.816c0.141,0.562-0.221,1.182-0.77,1.32c-0.551,0.141-1.154-0.227-1.303-0.793
		c-0.15-0.577,0.191-1.16,0.768-1.31C350.3,138.888,350.898,139.248,351.042,139.816z"/>
	<path fill="#0D0D0D" d="M318.093,146.975c0.121,0.604-0.258,1.178-0.84,1.276s-1.131-0.311-1.23-0.914
		c-0.094-0.563,0.254-1.082,0.805-1.21C317.419,145.992,317.97,146.36,318.093,146.975z"/>
	<path fill="#0B0B0B" d="M82.074,189.815c1.077,0.491,1.619,1.204,1.705,2.233c0.088,1.067-0.48,2.044-1.51,2.339
		c-1.157,0.331-2.352,0.534-3.528,0.803c-0.46,0.104-0.584-0.166-0.662-0.531c-0.271-1.279-0.552-2.557-0.827-3.834
		c-0.262-1.213-0.511-2.429-0.787-3.638c-0.111-0.484,0.004-0.762,0.524-0.862c0.922-0.178,1.836-0.392,2.756-0.58
		c0.161-0.033,0.333-0.017,0.5-0.023c0.903-0.044,1.699,0.232,2.144,1.037c0.47,0.852,0.617,1.774,0.016,2.664
		C82.328,189.534,82.23,189.629,82.074,189.815z"/>
	<path fill="#0A0A0A" d="M77.005,195.14c0.062,0.312-0.188,0.521-0.429,0.446c-0.208-0.065-0.313-0.244-0.437-0.397
		c-0.313-0.391-0.645-0.772-0.914-1.192c-0.305-0.472-0.676-0.556-1.198-0.431c-1.237,0.297-2.479,0.562-3.729,0.806
		c-0.498,0.097-0.744,0.345-0.847,0.835c-0.122,0.589-0.304,1.165-0.468,1.743c-0.069,0.244-0.215,0.449-0.496,0.385
		c-0.312-0.074-0.268-0.346-0.21-0.574c0.136-0.552,0.289-1.1,0.437-1.647c0.57-2.133,1.141-4.265,1.715-6.396
		c0.069-0.259,0.125-0.526,0.24-0.764c0.145-0.31,0.401-0.34,0.652-0.119c0.148,0.131,0.26,0.304,0.384,0.463
		c1.625,2.082,3.249,4.166,4.871,6.251C76.74,194.756,76.888,194.977,77.005,195.14z"/>
	<path fill="#0A0A0A" d="M90.396,192.681c-2.903,0.607-5.317-0.975-5.766-3.637c-0.306-1.812,0.641-3.646,2.383-4.604
		c1.479-0.812,2.992-0.89,4.535-0.196c0.123,0.055,0.246,0.114,0.354,0.191c0.231,0.166,0.623,0.31,0.413,0.67
		c-0.209,0.359-0.521,0.12-0.786-0.021c-1.599-0.855-3.157-0.815-4.624,0.28c-1.559,1.161-1.992,3.233-1.059,4.854
		c0.949,1.652,3.168,2.399,4.906,1.654c0.719-0.309,1.352-0.734,1.819-1.379c0.078-0.107,0.157-0.219,0.25-0.313
		c0.153-0.158,0.334-0.226,0.537-0.095c0.241,0.154,0.142,0.356,0.038,0.524c-0.567,0.919-1.372,1.548-2.387,1.903
		C90.759,192.603,90.493,192.657,90.396,192.681z"/>
	<path fill="#FDFDFD" d="M94.203,81.168c-1.613,0.348-3.23,0.696-4.867,1.049c0.23-1.238,1.086-2.094,2.221-2.267
		C92.662,79.782,93.775,80.298,94.203,81.168z"/>
	<path fill="#FFFFFF" d="M296.945,39.472c0.383,1.708-0.619,3.37-2.23,3.708c-1.568,0.327-3.146-0.754-3.518-2.407
		c-0.381-1.704,0.629-3.377,2.238-3.711C295.015,36.733,296.57,37.802,296.945,39.472z"/>
	<path fill="#FFFFFF" d="M330.478,31.885c0.35,1.553-0.295,2.914-1.656,3.593c-0.793,0.396-1.562,0.292-2.307-0.072
		c-1.797-0.882-2.383-3.388-1.186-4.994c0.637-0.854,1.516-1.213,2.543-1.076c1.232,0.164,2.041,0.922,2.496,2.062
		C330.429,31.55,330.443,31.722,330.478,31.885z"/>
	<path fill="#FFFFFF" d="M208.257,132.493c-1.629,0.364-3.264-0.756-3.615-2.503c-0.387-1.917,0.885-3.422,2.229-3.714
		c1.594-0.348,3.264,0.852,3.604,2.414C210.857,130.456,209.902,132.123,208.257,132.493z"/>
	<path fill="#FFFFFF" d="M26.726,97.083c0.091,0.324,0.086,0.688,0.045,1.058c-0.166,1.49-1.146,2.544-2.518,2.705
		c-1.285,0.151-2.662-0.735-3.121-2.045c-0.399-1.145-0.306-2.241,0.442-3.234c0.944-1.256,2.544-1.497,3.817-0.584
		C26.046,95.451,26.537,96.216,26.726,97.083z"/>
	<path fill="#FFFFFF" d="M119.289,113.68c0.352,1.685-0.633,3.218-2.277,3.548c-1.654,0.332-3.18-0.672-3.535-2.323
		c-0.371-1.734,0.668-3.425,2.311-3.754C117.382,110.83,118.923,111.944,119.289,113.68z"/>
	<path fill="#FFFFFF" d="M52.042,127.889c0.035,0.163,0.057,0.331,0.107,0.49c0.686,2.155-1.689,3.844-3.475,3.294
		c-1.279-0.396-2.295-1.529-2.449-2.891c-0.172-1.528,0.445-2.769,1.715-3.442c1.55-0.821,3.35-0.094,3.863,1.573
		c0.099,0.317,0.146,0.652,0.215,0.979C52.028,127.892,52.036,127.89,52.042,127.889z"/>
	<path fill="#FFFFFF" d="M186.38,98.557c0.043,0.196,0.082,0.394,0.127,0.588c0.258,1.083-0.023,1.98-0.914,2.67
		c-0.893,0.69-1.877,0.844-2.924,0.444c-2.232-0.852-2.875-4.02-1.162-5.674c1.621-1.564,4.031-0.951,4.676,1.194
		c0.078,0.255,0.117,0.521,0.172,0.782C186.363,98.56,186.373,98.559,186.38,98.557z"/>
	<path fill="#D5D5D5" d="M80.398,194.164c-1.588,0.354-1.588,0.354-1.938-1.262c-0.091-0.425-0.173-0.852-0.273-1.273
		c-0.084-0.347-0.014-0.592,0.373-0.669c0.885-0.176,1.746-0.478,2.656-0.487c0.896-0.011,1.521,0.438,1.738,1.211
		c0.293,1.047-0.117,1.827-1.188,2.177C81.326,194.005,80.855,194.064,80.398,194.164z"/>
	<path fill="#D6D6D6" d="M77.55,188.659c-0.078-0.359-0.141-0.722-0.236-1.075c-0.114-0.427,0.066-0.611,0.47-0.688
		c0.753-0.146,1.497-0.348,2.254-0.462c1.017-0.153,1.72,0.339,1.935,1.284c0.219,0.951-0.195,1.756-1.137,2.033
		c-0.798,0.235-1.627,0.366-2.439,0.552c-0.33,0.075-0.506-0.047-0.569-0.373c-0.084-0.425-0.181-0.848-0.271-1.271
		C77.552,188.658,77.552,188.658,77.55,188.659z"/>
	<path fill="#D5D5D5" d="M69.861,193.711c0.438-1.621,0.84-3.123,1.249-4.644c0.678,0.433,2.616,2.89,2.958,3.736
		C72.712,193.097,71.366,193.386,69.861,193.711z"/>
</g>
</svg>
