<?xml version="1.0" encoding="utf-8"?>
<!-- Generator: Adobe Illustrator 16.0.4, SVG Export Plug-In . SVG Version: 6.00 Build 0)  -->
<!DOCTYPE svg PUBLIC "-//W3C//DTD SVG 1.1//EN" "http://www.w3.org/Graphics/SVG/1.1/DTD/svg11.dtd">
<svg version="1.1" id="Layer_1" xmlns="http://www.w3.org/2000/svg" xmlns:xlink="http://www.w3.org/1999/xlink" x="0px" y="0px"
	 width="59px" height="59px" viewBox="0 0 59 59" enable-background="new 0 0 59 59" xml:space="preserve">
<g>
	<path fill="#FFFFFF" d="M37.883,44.068c0,3.3-2.2,4.435-4.889,2.522L13.857,32.978c-2.689-1.913-2.689-5.043,0-6.956L32.993,12.41
		c2.689-1.913,4.89-0.778,4.89,2.522V44.068z"/>
</g>
<path fill="none" stroke="#FFFFFF" stroke-width="8" stroke-linecap="round" stroke-linejoin="round" stroke-miterlimit="10" d="
	M55,47c0,4.418-3.582,8-8,8H12c-4.418,0-8-3.582-8-8V12c0-4.418,3.582-8,8-8h35c4.418,0,8,3.582,8,8"/>
<path fill="none" stroke="#6EBE44" stroke-width="18" stroke-linejoin="round" stroke-miterlimit="10" d="M30.702,29.5"/>
<path fill="#FFFFFF" d="M57.707,34.5c0,1.657-1.343,3-3,3h-24.5c-1.657,0-3-1.343-3-3v-10c0-1.657,1.343-3,3-3h24.5
	c1.657,0,3,1.343,3,3V34.5z"/>
</svg>
