<?xml version="1.0" encoding="utf-8"?>
<!-- Generator: Adobe Illustrator 16.0.4, SVG Export Plug-In . SVG Version: 6.00 Build 0)  -->
<!DOCTYPE svg PUBLIC "-//W3C//DTD SVG 1.1//EN" "http://www.w3.org/Graphics/SVG/1.1/DTD/svg11.dtd">
<svg version="1.1" id="Layer_1" xmlns="http://www.w3.org/2000/svg" xmlns:xlink="http://www.w3.org/1999/xlink" x="0px" y="0px"
	 width="84.566px" height="20.191px" viewBox="0 0 84.566 20.191" enable-background="new 0 0 84.566 20.191" xml:space="preserve">
<path id="colour" fill="#0F006C" d="M5.427,19.833c-3.657-1.03-5.713-3.396-5.395-7.261c0.337-4.08,2.849-6.378,6.882-6.486
	c6.965-0.193,13.938-0.056,20.904-0.19c1.364-0.024,3.096-0.232,4.014-1.065c7.132-6.462,16.052-6.446,23.707,0.088
	c0.866,0.741,2.374,1.002,3.592,1.021c5.809,0.097,11.618-0.079,17.424,0.059c4.968,0.118,8.059,2.977,8.013,7.037
	c-0.046,4.237-3.038,7.101-7.938,7.114C53.895,20.217,31.16,20.188,8.425,20.17C7.436,20.169,6.445,19.953,5.427,19.833z"/>
</svg>
