<?xml version="1.0" encoding="utf-8"?>
<!-- Generator: Adobe Illustrator 16.0.4, SVG Export Plug-In . SVG Version: 6.00 Build 0)  -->
<!DOCTYPE svg PUBLIC "-//W3C//DTD SVG 1.1//EN" "http://www.w3.org/Graphics/SVG/1.1/DTD/svg11.dtd">
<svg version="1.1" id="Layer_1" xmlns="http://www.w3.org/2000/svg" xmlns:xlink="http://www.w3.org/1999/xlink" x="0px" y="0px"
	 width="81.672px" height="87.332px" viewBox="0 0 81.672 87.332" enable-background="new 0 0 81.672 87.332" xml:space="preserve">
<path fill="#0F006C" d="M69.365,0.04c-9.498-0.074-18.998-0.02-28.496-0.02c-9.5,0-18.998-0.053-28.496,0.02
	C3.744,0.1-0.768,5.325,0.107,13.823c0.938,9.109,1.705,18.24,2.555,27.359c1.082,11.609,2.078,23.23,3.295,34.822
	c0.725,6.922,4.488,11.105,10.566,11.178c16.496,0.205,32.995,0.188,49.488,0.008c5.763-0.062,10.068-4.312,10.552-10.065
	c1.78-21.412,3.539-42.83,5.061-64.262C82.21,4.579,77.703,0.102,69.365,0.04z"/>
<path fill="#A2B4FF" d="M20.257,11.383c-4.398-0.084-5.734,3.035-5.717,7.115c0.074,15.822,0.064,31.645,0.004,47.473
	c-0.016,4.045,1.24,7.154,5.727,7.086c4.561-0.067,5.5-3.404,5.461-7.34c-0.08-7.828-0.023-15.658-0.027-23.484
	c0-7.828-0.084-15.658,0.035-23.486C25.798,14.741,24.687,11.465,20.257,11.383z"/>
<path fill="#A2B4FF" d="M45.562,42.557c0-8.162-0.021-16.32,0.008-24.48c0.014-3.898-1.605-6.719-5.682-6.701
	c-4.143,0.018-5.537,2.943-5.527,6.807c0.037,15.99,0.033,31.98-0.002,47.973c-0.008,3.781,1.145,6.84,5.383,6.912
	c4.465,0.076,5.863-2.978,5.838-7.021C45.533,58.213,45.566,50.385,45.562,42.557z"/>
<path fill="#A2B4FF" d="M59.742,11.391c-4.809-0.049-5.75,3.646-5.746,7.693c0.02,15.494-0.033,30.988,0.023,46.48
	c0.02,5.133,2.157,7.846,5.891,7.537c4.549-0.371,5.496-3.586,5.482-7.459c-0.023-7.828-0.009-15.656-0.009-23.486
	c0-7.664-0.047-15.328,0.021-22.99C65.439,15.09,64.503,11.44,59.742,11.391z"/>
</svg>
