<?xml version="1.0" encoding="utf-8"?>
<!-- Generator: Adobe Illustrator 16.0.0, SVG Export Plug-In . SVG Version: 6.00 Build 0)  -->
<!DOCTYPE svg PUBLIC "-//W3C//DTD SVG 1.1//EN" "http://www.w3.org/Graphics/SVG/1.1/DTD/svg11.dtd">
<svg version="1.1" id="Layer_1" xmlns="http://www.w3.org/2000/svg" xmlns:xlink="http://www.w3.org/1999/xlink" x="0px" y="0px"
	 width="273.791px" height="177.772px" viewBox="0 0 273.791 177.772" enable-background="new 0 0 273.791 177.772"
	 xml:space="preserve">
<g>
	<path d="M51.706,107.186c0,0-24.647,6.43-26.954,7.19c-2.3,0.761-7.158,1.031-9.647,2.013c-2.487,0.979-7.908,5.92-9.645,10.442
		c-1.733,4.524-1.418,7.039-1.418,7.039s-1.885,1.367-2.173,3.493c-0.289,2.122-0.289,2.122-0.289,2.122s-0.633,7.202-0.505,9.938
		c0.129,2.732,2.414,9.772,7.037,12.679c4.62,2.905,22.232,12.467,46.453,13.441c24.224,0.971,103.59,1.412,110.2,1.044
		s99.623-3.252,106.565-13.934c3.271-5.03,1.111-5.329,0.256-10.979c0,0-1.759-16.555-2.792-17.761
		c-1.034-1.208-1.646-1.808-1.646-1.808s1.447-10.62,0.302-22.362c-1.142-11.742-10.263-35.48-10.926-37.128
		c-0.663-1.65-1.95-4.109-1.95-4.109s-1.459-6.032-0.689-6.287c0.768-0.251,4.482-0.038,4.374-2.351
		c-0.109-2.314-2.724-8.07-2.983-13.538c-0.26-5.467,0.359-8.873-1.247-9.84c-1.607-0.965-6.11-1.347-6.11-1.347
		s-0.874-2.059-3.515-4.23c-2.638-2.172-6.062-4.515-6.062-4.515s-3.432-6.554-6.251-8.505c-2.823-1.951-7.076-5.299-11.415-6.321
		c-4.339-1.024-13.978-2.811-21.105-5.152c-7.13-2.343-18.52-4.033-20.265-3.936c-1.753,0.097-3.279,0.815-4.681,0.051
		c-1.4-0.764-12.604-2.676-17.613,2.664c-5.012,5.34-3.419,10.099-4.055,13.086c-0.641,2.986-2.838,10.065-4.17,10.772
		c-1.332,0.709-2.981,2.905-2.942,3.749c0.041,0.839,1.104,2.678,0.774,3.962c-0.33,1.281-1.285,5.761-1.186,7.864
		c0.102,2.104,0.2,4.206-1.101,5.543c-1.303,1.337-4.84,8.914-7.669,10.967c-2.824,2.055-12.472,8.281-13.405,9.178
		c-0.933,0.895-15.688,10.359-17.001,11.485c-1.31,1.127-10.251,5.841-15.082,6.742c-4.832,0.902-14.443,3.752-18.856,5.263
		c-4.41,1.512-11.834,5.297-15.037,7.583C54.077,103.684,51.706,107.186,51.706,107.186z"/>
	<path d="M51.799,107.32l-28.719,8.087c-2.456,0.504-4.954,0.755-7.198,1.462c-0.568,0.183-1.014,0.41-1.508,0.729
		c-0.49,0.312-0.97,0.665-1.436,1.039c-0.932,0.752-1.812,1.584-2.635,2.463c-1.631,1.759-3.115,3.725-3.978,5.862
		c-0.428,1.108-0.784,2.264-1.038,3.42c-0.125,0.579-0.227,1.161-0.289,1.739c-0.062,0.556-0.089,1.201-0.047,1.635l0.051,0.52
		l-0.422,0.337c-0.516,0.412-1.057,1.04-1.371,1.656c-0.165,0.313-0.284,0.639-0.352,0.966c-0.018,0.082-0.029,0.164-0.042,0.246
		l-0.04,0.317l-0.082,0.641l-0.152,1.234l-0.094,1.281l-0.164,2.565c-0.094,1.707-0.182,3.428-0.172,5.094
		c-0.004,0.852,0.085,1.519,0.275,2.332c0.182,0.783,0.424,1.569,0.709,2.337c1.146,3.045,2.931,6.005,5.465,7.713
		c2.8,1.756,5.897,3.292,8.99,4.667c12.471,5.483,26.006,8.424,39.647,8.62c13.747,0.338,27.527,0.637,41.3,0.815l41.325,0.62
		c6.887,0.081,13.776,0.165,20.657,0.171c1.728-0.006,3.424,0.004,5.141-0.082l5.166-0.169c3.442-0.118,6.885-0.221,10.324-0.384
		c13.758-0.632,27.514-1.398,41.229-2.627c6.854-0.644,13.7-1.385,20.512-2.335c3.406-0.479,6.803-1.009,10.178-1.64
		c3.371-0.637,6.734-1.351,9.995-2.347c1.627-0.499,3.236-1.063,4.736-1.79c0.746-0.364,1.467-0.775,2.081-1.264
		c0.305-0.243,0.583-0.508,0.795-0.79c0.094-0.127,0.201-0.297,0.32-0.49l0.32-0.533c0.409-0.717,0.773-1.453,0.958-2.184
		c0.194-0.731,0.156-1.431-0.043-2.205c-0.44-1.549-1.071-3.3-1.328-5.051c-0.429-3.49-0.839-6.85-1.344-10.261
		c-0.253-1.695-0.521-3.392-0.854-5.05c-0.084-0.413-0.173-0.823-0.272-1.22c-0.092-0.369-0.231-0.842-0.319-0.993l-0.727-0.81
		c-0.28-0.306-0.581-0.623-0.854-0.893l-0.324-0.317l0.053-0.475c0.591-5.357,0.747-10.836,0.532-16.243
		c-0.129-2.7-0.303-5.432-0.729-8.045c-0.437-2.641-1.065-5.28-1.764-7.902c-1.407-5.245-3.099-10.437-4.896-15.587
		c-0.9-2.575-1.834-5.141-2.797-7.691c-0.481-1.26-0.976-2.584-1.472-3.767c-0.521-1.19-1.138-2.414-1.756-3.594l-0.083-0.158
		l-0.037-0.16c-0.41-1.792-0.809-3.459-0.962-5.464c-0.01-0.268-0.021-0.533,0.023-0.91c0.026-0.175,0.049-0.43,0.259-0.831
		c0.082-0.139,0.185-0.271,0.297-0.386c0.186-0.165,0.383-0.295,0.666-0.383l0.084-0.023l0.188-0.043
		c0.628-0.105,0.976-0.118,1.391-0.182c0.765-0.085,1.511-0.349,1.621-0.511c0.044-0.067,0.03,0,0.039-0.152
		c0.006,0.044-0.013-0.204-0.02-0.233l-0.035-0.224c-0.029-0.176-0.071-0.368-0.115-0.562c-0.186-0.782-0.439-1.618-0.691-2.455
		c-0.51-1.682-1.031-3.409-1.439-5.188c-0.408-1.763-0.705-3.659-0.754-5.492c-0.08-1.81-0.054-3.609-0.089-5.314
		c-0.021-0.836-0.069-1.688-0.227-2.258c-0.075-0.285-0.179-0.42-0.194-0.426c0.009,0.004-0.04-0.022,0.015,0.006l-0.145-0.079
		l-0.06-0.026c-0.118-0.054-0.285-0.12-0.452-0.176c-1.416-0.452-3.198-0.693-4.833-0.851l-0.886-0.085l-0.395-0.842
		c-0.125-0.267-0.416-0.747-0.682-1.109c-0.278-0.388-0.589-0.764-0.919-1.124c-0.666-0.731-1.396-1.341-2.256-2.014
		c-1.674-1.313-3.439-2.587-5.199-3.797l-0.312-0.215l-0.193-0.354c-1.188-2.173-2.549-4.39-4.071-6.243
		c-0.382-0.458-0.778-0.893-1.177-1.247c-0.21-0.192-0.367-0.31-0.604-0.477l-0.811-0.565c-1.068-0.753-2.108-1.488-3.164-2.176
		c-2.101-1.369-4.287-2.566-6.507-3.171c-2.396-0.579-5.017-1.104-7.542-1.666c-2.547-0.561-5.098-1.146-7.643-1.798
		c-1.272-0.328-2.543-0.67-3.812-1.043c-1.257-0.356-2.57-0.809-3.732-1.162c-4.852-1.426-9.949-2.415-15.004-3.156
		c-0.631-0.088-1.263-0.17-1.886-0.238l-0.918-0.088c-0.288-0.022-0.607-0.039-0.734-0.025c-0.565,0.035-1.087,0.143-1.797,0.257
		c-0.678,0.104-1.536,0.232-2.527,0.021c-0.245-0.052-0.488-0.134-0.729-0.227l-0.347-0.164l-0.094-0.046
		c-0.025-0.011,0.02,0.012,0.005,0.004c-0.146-0.06-0.437-0.145-0.705-0.209c-0.557-0.135-1.157-0.24-1.759-0.324
		c-1.208-0.167-2.441-0.247-3.664-0.243c-2.437,0.013-4.887,0.36-6.958,1.299c-1.026,0.465-1.956,1.104-2.655,1.861
		c-0.471,0.508-0.773,0.883-1.14,1.372c-0.346,0.468-0.648,0.958-0.917,1.461c-1.105,2.031-1.367,4.254-1.384,6.863
		c-0.021,0.661-0.035,1.357-0.154,2.136c-0.027,0.186-0.072,0.412-0.11,0.579l-0.117,0.497l-0.252,0.979
		c-0.349,1.292-0.738,2.557-1.167,3.82c-0.433,1.263-0.894,2.513-1.489,3.782c-0.334,0.649-0.577,1.25-1.28,2.043
		c-0.162,0.198-0.65,0.519-0.7,0.531c-0.176,0.098-0.188,0.125-0.27,0.176c-0.19,0.146-0.387,0.316-0.578,0.506
		c-0.378,0.381-0.748,0.826-1.017,1.26c-0.132,0.207-0.254,0.445-0.281,0.542c0.008-0.008-0.012,0.041,0.001-0.019
		c0.005-0.027,0.004-0.057-0.001-0.085c-0.016-0.179-0.001-0.015-0.003-0.039l0.007,0.061c0.01,0.111,0.015,0.034,0.013,0.063
		l0.043,0.162c0.149,0.514,0.414,1.182,0.591,1.933c0.089,0.381,0.165,0.796,0.165,1.285c-0.003,0.245-0.021,0.504-0.084,0.783
		l-0.12,0.498c-0.293,1.218-0.55,2.478-0.759,3.719c-0.197,1.243-0.387,2.486-0.326,3.599c0.036,1.309,0.145,2.74-0.354,4.34
		c-0.136,0.396-0.316,0.795-0.554,1.172c-0.234,0.375-0.599,0.752-0.726,0.903c-0.263,0.326-0.646,0.928-0.963,1.446
		c-1.332,2.184-2.614,4.491-4.211,6.681c-0.403,0.548-0.83,1.091-1.313,1.62c-0.25,0.263-0.501,0.524-0.797,0.777
		c-0.14,0.127-0.305,0.25-0.464,0.372l-0.411,0.292c-1.087,0.759-2.17,1.477-3.256,2.198l-6.501,4.295
		c-1.059,0.708-2.201,1.45-3.126,2.15c-1.114,0.906-2.193,1.544-3.285,2.284c-4.351,2.857-8.763,5.631-13.051,8.502l-0.767,0.538
		l-0.394,0.305c-0.154,0.112-0.301,0.209-0.447,0.303c-0.582,0.37-1.156,0.694-1.737,1.013c-1.161,0.633-2.334,1.222-3.521,1.785
		c-2.377,1.117-4.791,2.155-7.34,2.943c-0.639,0.193-1.288,0.368-1.959,0.503c-0.669,0.124-1.269,0.235-1.904,0.372
		c-1.258,0.267-2.515,0.568-3.769,0.882c-2.513,0.62-5.016,1.297-7.509,2.006c-2.482,0.724-5.001,1.429-7.4,2.31
		c-2.406,0.912-4.767,1.99-7.086,3.137c-2.307,1.164-4.618,2.365-6.727,3.832c-2.066,1.505-3.855,3.429-5.38,5.499L51.799,107.32z
		 M51.615,107.049c1.486-2.13,3.211-4.096,5.287-5.702c2.119-1.562,4.402-2.828,6.697-4.069c2.306-1.221,4.647-2.372,7.075-3.37
		c2.454-0.979,4.928-1.743,7.412-2.544c2.484-0.783,4.979-1.532,7.494-2.229c1.26-0.342,2.523-0.671,3.803-0.968
		c0.633-0.149,1.308-0.288,1.914-0.413c0.601-0.133,1.205-0.307,1.805-0.502c2.405-0.793,4.761-1.856,7.062-2.993
		c1.15-0.573,2.289-1.173,3.397-1.806c0.553-0.316,1.104-0.643,1.611-0.98l0.355-0.25l0.37-0.299l0.817-0.598
		c4.292-2.995,8.628-5.838,12.909-8.771c1.044-0.734,2.189-1.461,3.071-2.219c1.131-0.891,2.164-1.575,3.248-2.335l6.452-4.381
		c1.069-0.729,2.144-1.461,3.18-2.202l0.379-0.276c0.097-0.079,0.193-0.148,0.292-0.242c0.198-0.171,0.395-0.381,0.59-0.591
		c0.389-0.435,0.762-0.918,1.122-1.421c1.445-2.029,2.673-4.286,4.017-6.555c0.361-0.588,0.647-1.104,1.189-1.801
		c0.293-0.343,0.385-0.434,0.497-0.611c0.104-0.175,0.193-0.371,0.267-0.59c0.284-0.899,0.25-2.122,0.18-3.395
		c-0.086-1.488,0.123-2.836,0.312-4.155c0.208-1.324,0.454-2.615,0.753-3.927c0.03-0.145,0.097-0.39,0.104-0.45
		c0.009-0.038,0.014-0.105,0.014-0.185c0-0.161-0.036-0.391-0.1-0.641c-0.124-0.515-0.346-1.057-0.574-1.786l-0.085-0.307
		c-0.03-0.132-0.073-0.365-0.076-0.416l-0.007-0.061l-0.014-0.16c0-0.109,0.006-0.219,0.016-0.328
		c0.022-0.222,0.062-0.327,0.102-0.494c0.166-0.525,0.363-0.859,0.568-1.206c0.412-0.674,0.873-1.238,1.401-1.787
		c0.267-0.271,0.556-0.533,0.88-0.785c0.184-0.136,0.432-0.305,0.541-0.363c0.235-0.144,0.016-0.009,0.078-0.047
		c0.168-0.178,0.497-0.768,0.729-1.281c0.497-1.089,0.927-2.285,1.321-3.483c0.393-1.202,0.753-2.427,1.067-3.647l0.223-0.91
		l0.101-0.453c0.032-0.149,0.048-0.243,0.067-0.378c0.073-0.508,0.088-1.114,0.098-1.751c0.017-1.277,0.031-2.697,0.281-4.12
		c0.245-1.423,0.722-2.842,1.404-4.129c0.341-0.644,0.724-1.262,1.148-1.841c0.404-0.556,0.929-1.186,1.343-1.629
		c1.062-1.158,2.331-1.999,3.665-2.614c2.682-1.211,5.503-1.572,8.243-1.603c1.376-0.008,2.742,0.077,4.109,0.263
		c0.685,0.094,1.366,0.21,2.073,0.378c0.361,0.091,0.699,0.173,1.158,0.354l0.228,0.102l0.126,0.062l0.093,0.046
		c0.064,0.02,0.128,0.046,0.202,0.06c0.562,0.176,1.887-0.229,3.404-0.353c0.521-0.035,0.854,0.001,1.212,0.022l1.022,0.095
		c0.668,0.071,1.326,0.155,1.981,0.245c5.226,0.756,10.363,1.732,15.491,3.222c1.324,0.401,2.469,0.797,3.713,1.146
		c1.225,0.356,2.464,0.687,3.709,1.004c2.491,0.633,5.008,1.203,7.537,1.753c2.549,0.562,5.028,1.044,7.686,1.68
		c2.814,0.756,5.212,2.165,7.45,3.627c1.117,0.737,2.193,1.511,3.244,2.262l0.784,0.555c0.295,0.206,0.654,0.485,0.92,0.735
		c0.568,0.517,1.041,1.051,1.488,1.592c1.758,2.183,3.104,4.434,4.395,6.822l-0.506-0.568c1.83,1.275,3.6,2.569,5.353,3.963
		c0.855,0.676,1.806,1.475,2.603,2.367c0.405,0.447,0.788,0.917,1.144,1.418c0.364,0.528,0.663,0.972,0.998,1.697l-1.28-0.927
		c1.865,0.202,3.604,0.415,5.551,1.036c0.25,0.086,0.494,0.18,0.775,0.312l0.237,0.119l0.144,0.081
		c0.242,0.146,0.373,0.247,0.545,0.399c0.639,0.596,0.907,1.3,1.062,1.858c0.287,1.141,0.287,2.068,0.316,2.989
		c0.023,1.819-0.013,3.545,0.051,5.259c0.036,1.692,0.28,3.297,0.651,4.97c0.368,1.659,0.854,3.312,1.355,5.007
		c0.248,0.852,0.505,1.704,0.721,2.638c0.053,0.236,0.104,0.476,0.146,0.734c0.021,0.118,0.042,0.271,0.059,0.43
		c0.019,0.19,0.02,0.162,0.029,0.426c0.051,0.729-0.289,1.693-0.883,2.241c-0.577,0.561-1.188,0.808-1.722,0.98
		c-0.543,0.17-1.051,0.256-1.531,0.321l-1.23,0.146l0.025-0.009l-0.075,0.021c0.235-0.063,0.386-0.163,0.524-0.298
		c0.08-0.07,0.149-0.159,0.199-0.253c0.114-0.204,0.08-0.242,0.086-0.197c-0.01,0.06-0.015,0.237-0.007,0.408
		c0.098,1.515,0.482,3.302,0.851,4.941l-0.12-0.317c0.638,1.255,1.242,2.485,1.806,3.811c0.548,1.35,0.994,2.6,1.476,3.904
		c0.942,2.584,1.852,5.179,2.73,7.785c1.75,5.215,3.397,10.468,4.768,15.822c0.678,2.68,1.298,5.382,1.714,8.154
		c0.404,2.804,0.526,5.555,0.611,8.326c0.12,5.542-0.13,11.045-0.837,16.567l-0.271-0.792c0.334,0.341,0.619,0.656,0.916,0.989
		l0.434,0.498l0.214,0.251l0.104,0.123c0.046,0.051,0.168,0.223,0.193,0.283c0.304,0.619,0.355,0.997,0.479,1.459
		c0.102,0.44,0.188,0.873,0.269,1.306c0.315,1.726,0.552,3.438,0.78,5.153c0.452,3.412,0.825,6.899,1.183,10.253
		c0.224,1.671,0.753,3.184,1.228,4.952c0.229,0.892,0.274,1.968-0.002,2.902c-0.256,0.939-0.688,1.751-1.14,2.521l-0.354,0.568
		c-0.11,0.172-0.233,0.366-0.397,0.584c-0.313,0.401-0.674,0.727-1.045,1.014c-0.744,0.572-1.54,1.003-2.346,1.382
		c-1.613,0.752-3.275,1.302-4.947,1.788c-6.705,1.873-13.539,2.936-20.375,3.876c-6.841,0.915-13.702,1.618-20.57,2.225
		c-13.732,1.25-27.489,2.182-41.256,2.898l-10.324,0.549l-5.159,0.267c-1.723,0.119-3.474,0.144-5.19,0.182
		c-6.897,0.124-13.787,0.174-20.68,0.219l-20.674,0.078c-6.892,0.023-13.783,0.012-20.674-0.061l-20.676-0.224
		c-6.894-0.087-13.785-0.216-20.686-0.482c-13.917-0.301-27.826-3.417-40.542-9.126c-3.187-1.451-6.274-2.995-9.3-4.923
		c-1.608-1.078-2.863-2.511-3.863-4.04c-1.002-1.536-1.777-3.178-2.376-4.879c-0.298-0.853-0.552-1.721-0.743-2.618
		c-0.198-0.865-0.309-1.92-0.279-2.792c0.021-1.779,0.142-3.499,0.268-5.23l0.211-2.588l0.117-1.293l0.186-1.327l0.094-0.64
		l0.047-0.322c0.021-0.131,0.043-0.262,0.073-0.39c0.116-0.515,0.309-1.001,0.552-1.445c0.505-0.898,1.112-1.604,1.951-2.254
		l-0.371,0.856c-0.061-0.803,0.002-1.4,0.078-2.074c0.082-0.652,0.205-1.291,0.354-1.921c0.301-1.258,0.699-2.472,1.184-3.666
		c1.049-2.452,2.664-4.472,4.419-6.308c0.887-0.914,1.827-1.772,2.839-2.561c0.507-0.393,1.032-0.767,1.594-1.11
		c0.555-0.343,1.232-0.658,1.854-0.831c2.517-0.711,4.992-0.871,7.399-1.302l14.371-3.639L51.615,107.049z"/>
</g>
<g>
	<path d="M145.032,58.077c-11.274-8.007,30.032,0.469,27.895,4.257c-3.847,6.825-84.419,61.539-109.352,58.751
		c-24.934-2.789-17.222-12.826-11.869-13.899C73.558,102.804,151.724,62.827,145.032,58.077z"/>
	<path fill="none" stroke="#FFFFFF" stroke-width="0.8048" stroke-miterlimit="10" stroke-dasharray="7.9894,1.5979" d="
		M145.032,58.077c-11.274-8.007,30.032,0.469,27.895,4.257c-3.847,6.825-84.419,61.539-109.352,58.751
		c-24.934-2.789-17.222-12.826-11.869-13.899C73.558,102.804,151.724,62.827,145.032,58.077z"/>
</g>
<path fill="#FFFFFF" stroke="#000000" stroke-width="1.5479" stroke-miterlimit="10" d="M61.504,108.259
	c0,0-2.558-7.448-2.144-9.579c0.42-2.13,5.905-4.264,6.296-4.286c0.39-0.021,1.482,1.043,1.482,1.043s-1.572-0.193-1.5,1.35
	c0.074,1.541,1.286,5.126,1.464,6.103c0.173,0.975,0.899,5.291,0.694,6.426c-0.209,1.135-2.093,2.505-3.695,1.611
	C62.501,110.031,61.504,108.259,61.504,108.259z"/>
<path fill="#FFFFFF" stroke="#000000" stroke-width="1.5479" stroke-miterlimit="10" d="M82.347,103.728
	c0,0-2.916-3.914-3.439-6.696c-0.519-2.781-1.704-5.81-0.985-7.112c0.717-1.305,3.344-0.749,3.836-1.338
	c0.491-0.591,2.551-0.983,2.967-0.444c0.418,0.535,2.768,8.98,2.807,9.822c0.04,0.84,0.433,3.63,0.078,4.352
	c-0.356,0.723-1.155,3.016-2.862,2.69C83.04,104.674,82.347,103.728,82.347,103.728z"/>
<path fill="#FFFFFF" stroke="#000000" stroke-width="1.5479" stroke-miterlimit="10" d="M101.382,96.768
	c0,0-5.725-5.587-6.633-8.347c-0.914-2.76,0.254-2.825,1.515-3.596c1.263-0.774,3.688-1.753,4.117-0.933
	c0.429,0.819,4.475,6.638,4.915,7.738c0.443,1.099,1.295,2.599,1.109,4.154c-0.186,1.555-2.32,3.221-3.264,2.429
	C102.192,97.425,101.382,96.768,101.382,96.768z"/>
<path fill="#FFFFFF" stroke="#000000" stroke-width="1.5479" stroke-miterlimit="10" d="M118.955,86.374c0,0-7.112-7.476-7.683-8.43
	c-0.562-0.95,0.41-2.409,1.434-2.748c1.022-0.341,3.255-2.569,4.311-2.208c1.061,0.363,6.422,9.34,6.585,10.035
	c0.165,0.695,0.764,2.345-0.485,3.398C121.866,87.478,118.955,86.374,118.955,86.374z"/>
<path fill="#FFFFFF" stroke="#000000" stroke-width="1.5479" stroke-miterlimit="10" d="M137.064,76.371
	c0,0-5.923-7.119-7.111-10.146c-1.183-3.025,0.626-3.268,1.513-3.738s4.105-3.884,4.787-3.216c0.682,0.664,5.271,9.824,5.729,11.207
	c0.458,1.379,1.184,5.695-0.598,6.496C139.603,77.778,137.064,76.371,137.064,76.371z"/>
<path fill="#FFFFFF" stroke="#000000" stroke-width="1.5479" stroke-miterlimit="10" d="M153.813,65.041
	c-0.908,0.05-9.207-2.298-11.056-2.899c-1.847-0.6-4.888-1.697-5.448-2.508c-0.561-0.812,2.817-6.341,3.561-7.084
	c0.747-0.746,3.092-0.594,4.162,0.048c1.073,0.645,7.828,3.362,9.34,5.104c1.516,1.743,3.264,3.052,2.957,4.756
	C157.019,64.16,153.813,65.041,153.813,65.041z"/>
<polygon fill="#FFFFFF" stroke="#000000" stroke-width="1.5479" stroke-miterlimit="10" points="175.696,27.335 169.749,27.463 
	166.679,21.962 169.546,16.332 175.486,16.202 178.562,21.704 "/>
<polygon fill="#FFFFFF" stroke="#000000" stroke-width="1.5479" stroke-miterlimit="10" points="175.329,45.835 169.39,46.112 
	166.2,40.688 168.945,34.987 174.885,34.713 178.075,40.133 "/>
<g>
	<path fill="#FFFFFF" d="M264.955,133.157c1.673-1.195,6.419,22.364,4.838,25.753c-5.406,11.584-89.417,15.39-156.665,14.889
		c-36.133-0.271-67.254-0.596-79.14-4.29c-36.218-11.268-28.032-16.635-28.775-19.854s-2.385-17.72,1.438-13.567
		C27.043,158.241,225.51,161.325,264.955,133.157z"/>
	<path d="M264.931,133.104c0.063-0.057,0.239-0.06,0.321,0.002c0.092,0.056,0.163,0.129,0.225,0.205
		c0.126,0.153,0.22,0.322,0.31,0.491c0.178,0.341,0.322,0.694,0.459,1.05c0.27,0.713,0.496,1.439,0.711,2.169
		c0.424,1.461,0.786,2.938,1.119,4.421c0.662,2.967,1.211,5.959,1.627,8.972c0.205,1.506,0.379,3.018,0.468,4.539
		c0.043,0.76,0.066,1.522,0.03,2.288c-0.039,0.742-0.111,1.588-0.594,2.225c-0.903,1.294-2.278,2.089-3.621,2.79
		c-1.363,0.69-2.792,1.236-4.234,1.725c-5.795,1.9-11.802,2.999-17.799,3.977c-6.008,0.951-12.046,1.686-18.093,2.316
		c-24.198,2.461-48.518,3.376-72.818,3.753c-24.308,0.39-48.612,0.088-72.91-0.399c-6.075-0.137-12.147-0.357-18.22-0.619
		c-6.07-0.281-12.143-0.641-18.186-1.378c-3.018-0.384-6.036-0.839-8.991-1.642c-2.928-0.867-5.809-1.813-8.687-2.809
		c-2.871-1.003-5.724-2.07-8.523-3.272c-2.795-1.211-5.562-2.526-8.122-4.231c-1.27-0.861-2.504-1.821-3.489-3.06
		c-0.486-0.619-0.901-1.322-1.136-2.104c-0.241-0.778-0.263-1.62-0.153-2.4c0.096-0.777,0.33-1.532,0.272-2.173
		c-0.134-0.663-0.296-1.489-0.401-2.223c-0.229-1.513-0.401-3.029-0.521-4.554c-0.116-1.524-0.191-3.054-0.12-4.602
		c0.044-0.774,0.105-1.552,0.344-2.351c0.144-0.383,0.27-0.85,0.823-1.168c0.285-0.15,0.636-0.12,0.872-0.027
		c0.247,0.091,0.438,0.222,0.605,0.358c2.097,2.268,4.73,3.631,7.501,4.842c5.553,2.337,11.469,3.793,17.384,5.054
		c5.932,1.23,11.919,2.215,17.929,3.03c12.023,1.628,24.126,2.667,36.243,3.393c12.118,0.718,24.258,1.099,36.398,1.203
		c12.142,0.12,24.283-0.115,36.417-0.513c12.134-0.415,24.26-1.127,36.35-2.258c12.084-1.147,24.148-2.663,36.062-5.015
		c5.955-1.177,11.864-2.613,17.65-4.451c5.753-1.875,11.496-4.076,16.488-7.549L264.931,133.104z M264.989,133.204
		c-4.996,3.51-10.74,5.741-16.495,7.646c-5.785,1.879-11.703,3.309-17.647,4.576c-11.902,2.494-23.965,4.156-36.056,5.418
		c-24.192,2.489-48.533,3.44-72.848,3.183c-12.159-0.117-24.315-0.511-36.454-1.241c-12.138-0.739-24.263-1.792-36.321-3.437
		c-6.026-0.834-12.041-1.797-17.997-3.084c-5.943-1.312-11.884-2.812-17.526-5.232c-1.404-0.616-2.786-1.299-4.103-2.114
		c-0.656-0.409-1.299-0.848-1.904-1.344c-0.306-0.246-0.596-0.503-0.883-0.783c-0.297-0.282-0.531-0.579-0.777-0.774
		c-0.254-0.221-0.516-0.306-0.598-0.238c-0.134,0.051-0.313,0.361-0.409,0.679c-0.204,0.658-0.278,1.407-0.323,2.146
		c-0.078,1.487-0.017,2.999,0.087,4.503c0.108,1.505,0.269,3.01,0.483,4.502c0.107,0.77,0.237,1.437,0.391,2.262
		c0.057,0.888-0.207,1.61-0.291,2.337c-0.256,1.44,0.201,2.855,1.122,3.999c0.902,1.152,2.087,2.097,3.319,2.943
		c2.492,1.679,5.23,3,8,4.216c2.776,1.208,5.612,2.286,8.471,3.299c2.858,1.006,5.746,1.969,8.64,2.842
		c2.907,0.806,5.911,1.275,8.914,1.672c12.048,1.464,24.218,1.778,36.356,2.01c24.295,0.334,48.598,0.481,72.885-0.041
		c12.146-0.238,24.283-0.697,36.416-1.222c12.132-0.54,24.256-1.291,36.348-2.376c6.045-0.559,12.082-1.218,18.086-2.099
		c5.994-0.906,12-1.935,17.782-3.758c1.438-0.469,2.862-0.995,4.217-1.661c1.332-0.676,2.685-1.471,3.542-2.691
		c0.459-0.602,0.518-1.357,0.566-2.109c0.038-0.753,0.02-1.51-0.021-2.266c-0.081-1.513-0.249-3.021-0.446-4.525
		c-0.404-3.008-0.94-5.998-1.588-8.964c-0.327-1.481-0.683-2.958-1.099-4.416c-0.211-0.729-0.434-1.454-0.699-2.162
		c-0.134-0.354-0.277-0.704-0.448-1.039c-0.088-0.165-0.179-0.33-0.295-0.472c-0.118-0.137-0.251-0.279-0.405-0.177L264.989,133.204
		z"/>
</g>
<g>
	<polygon points="189.759,66.348 179.976,86.17 158.102,89.349 173.931,104.778 170.194,126.564 189.759,116.278 209.324,126.564 
		205.588,104.778 221.417,89.349 199.543,86.17 	"/>
	<path fill="#FFFFFF" d="M189.759,66.535l-9.422,19.812l-0.089,0.187l-0.215,0.034l-21.827,3.497l0.401-1.235l15.66,15.603
		l0.184,0.183l-0.045,0.245l-3.974,21.745l-0.351-0.255l19.452-10.5l0.219-0.118l0.23,0.118l19.678,10.072l-1.051,0.764
		l-3.776-21.779l-0.068-0.395l0.288-0.282l15.802-15.458l0.446,1.373l-21.822-3.537l-0.237-0.039l-0.097-0.203L189.759,66.535z
		 M189.759,66.171l10.182,19.803l-0.334-0.242l21.926,2.82l1.643,0.212l-1.196,1.161l-15.856,15.401l0.22-0.677l3.696,21.792
		l0.248,1.466l-1.299-0.702l-19.453-10.499h0.449l-19.677,10.072l-0.426,0.218l0.075-0.473l3.499-21.826l0.139,0.427l-15.998-15.257
		l-1.091-1.041l1.492-0.194l21.921-2.86l-0.304,0.221L189.759,66.171z"/>
</g>
<g>
	<polygon points="144.937,102.788 138.959,114.9 125.59,116.844 135.263,126.275 132.979,139.589 144.937,133.301 156.894,139.589 
		154.612,126.275 164.286,116.844 150.917,114.9 	"/>
	<path fill="#FFFFFF" d="M144.937,102.902l-5.757,12.106l-0.054,0.114l-0.132,0.021l-13.341,2.139l0.246-0.755l9.569,9.537
		l0.112,0.111l-0.027,0.149l-2.429,13.288l-0.214-0.155l11.888-6.418l0.134-0.072l0.142,0.072l12.025,6.157l-0.643,0.466
		l-2.306-13.309l-0.041-0.241l0.176-0.173l9.656-9.449l0.273,0.839l-13.338-2.162l-0.145-0.023l-0.059-0.124L144.937,102.902z
		 M144.937,102.681l6.223,12.1l-0.203-0.147l13.4,1.725l1.004,0.129l-0.73,0.71l-9.691,9.413l0.135-0.413l2.257,13.317l0.151,0.896
		l-0.794-0.429l-11.888-6.418h0.273l-12.025,6.157l-0.26,0.133l0.046-0.289l2.138-13.338l0.085,0.261l-9.776-9.325l-0.666-0.637
		l0.912-0.119l13.397-1.748l-0.186,0.134L144.937,102.681z"/>
</g>
<g>
	<polygon points="109.617,118.99 105.731,126.867 97.039,128.13 103.328,134.262 101.843,142.919 109.617,138.832 117.392,142.919 
		115.907,134.262 122.197,128.13 113.505,126.867 	"/>
	<path fill="#FFFFFF" d="M109.617,119.064l-3.742,7.873l-0.035,0.074l-0.085,0.014l-8.674,1.39l0.159-0.491l6.222,6.2l0.073,0.073
		l-0.018,0.097l-1.58,8.642l-0.14-0.102l7.73-4.172l0.086-0.047l0.092,0.047l7.819,4.002l-0.417,0.304l-1.5-8.654l-0.027-0.157
		l0.114-0.112l6.278-6.143l0.178,0.545l-8.672-1.405l-0.094-0.015l-0.039-0.081L109.617,119.064z M109.617,118.92l4.046,7.869
		l-0.133-0.096l8.713,1.12l0.652,0.084l-0.475,0.462l-6.302,6.12l0.088-0.269l1.468,8.659l0.1,0.582l-0.517-0.278l-7.729-4.172
		h0.178l-7.818,4.002l-0.17,0.087l0.03-0.188l1.391-8.673l0.056,0.17l-6.356-6.063l-0.434-0.413l0.594-0.078l8.71-1.136l-0.12,0.088
		L109.617,118.92z"/>
</g>
<g>
	<g>
		<path fill="none" stroke="#000000" stroke-width="0.8048" stroke-miterlimit="10" d="M248.601,68.203
			c-0.439-0.104-0.966-0.21-1.572-0.32"/>
		<path fill="none" stroke="#000000" stroke-width="0.8048" stroke-miterlimit="10" stroke-dasharray="3.149,3.149" d="
			M243.922,67.383c-18.223-2.673-71.231-7.287-91.105-16.812"/>
		<path fill="none" stroke="#000000" stroke-width="0.8048" stroke-miterlimit="10" d="M151.405,49.855
			c-0.49-0.263-0.955-0.529-1.393-0.8"/>
	</g>
</g>
<g>
	<g>
		<path fill="none" stroke="#000000" stroke-width="0.8048" stroke-miterlimit="10" d="M249.057,66.172
			c-0.439-0.104-0.966-0.21-1.572-0.32"/>
		<path fill="none" stroke="#000000" stroke-width="0.8048" stroke-miterlimit="10" stroke-dasharray="3.149,3.149" d="
			M244.378,65.352c-18.223-2.673-71.231-7.287-91.106-16.812"/>
		<path fill="none" stroke="#000000" stroke-width="0.8048" stroke-miterlimit="10" d="M151.86,47.824
			c-0.49-0.263-0.955-0.529-1.393-0.8"/>
	</g>
</g>
<path fill="none" stroke="#000000" stroke-width="3.2192" stroke-linecap="round" stroke-miterlimit="10" d="M266.508,149.059
	c-9.769,11.808-198.675,29.368-258.311,2.026"/>
</svg>
