<?xml version="1.0" encoding="utf-8"?>
<!-- Generator: Adobe Illustrator 16.0.0, SVG Export Plug-In . SVG Version: 6.00 Build 0)  -->
<!DOCTYPE svg PUBLIC "-//W3C//DTD SVG 1.1//EN" "http://www.w3.org/Graphics/SVG/1.1/DTD/svg11.dtd">
<svg version="1.1" id="Layer_1" xmlns="http://www.w3.org/2000/svg" xmlns:xlink="http://www.w3.org/1999/xlink" x="0px" y="0px"
	 width="219.756px" height="192.841px" viewBox="0 0 219.756 192.841" enable-background="new 0 0 219.756 192.841"
	 xml:space="preserve">
<path stroke="#FFFFFF" stroke-linecap="round" stroke-linejoin="round" d="M0.969,152.85c0,0-0.066,1.556,3.344,2.124
	c3.411,0.569,7.453,0.626,12.979,1.705c6.438,1.258,17.236,5.314,19.983,6.642c2.748,1.326-6.436-6.492-18.306-9.297
	c-2.841-0.671-9.75-1.826-11.739-1.826S0.969,152.85,0.969,152.85z"/>
<g>
	<path d="M191.809,120.882c0,0-22.637,35.417-55.582,58.949c-12.573,8.981-23.02,11.228-30.749,11.72
		c-9.892,0.63-20-1.354-33.692-7.902s-39.801-25.501-53.247-29.168c-10.044-2.739-13.772-1.896-16.024-1.475
		c-0.877,0.164-1.879,0.568-1.582-0.622c0.298-1.19,42.218-45.143,45.946-49.435c1.933-2.225,8.761-9.89,8.761-9.89
		s29.023,6.64,42.417,11.104c13.395,4.465,39.878,11.5,49.397,13.023C169.777,120.758,191.809,120.882,191.809,120.882z"/>
	<g>
		<path fill="#FFFFFF" d="M191.935,120.963c-6.841,10.981-14.766,21.271-23.364,30.964c-8.596,9.693-17.998,18.736-28.369,26.604
			c-5.139,3.945-10.726,7.605-16.829,10.124c-6.071,2.587-12.683,4.021-19.265,4.167c-6.619,0.182-13.201-0.984-19.402-3.027
			c-3.107-1.016-6.135-2.229-9.097-3.568c-2.956-1.335-5.88-2.791-8.687-4.417c-11.224-6.47-21.924-13.712-33.238-19.895
			c-5.651-3.048-11.396-6.115-17.654-7.382c-3.113-0.698-6.283-1.248-9.402-1.189c-1.566,0.021-3.046,0.282-4.639,0.654
			c-0.234,0.038-0.466,0.11-0.912,0.054c-0.2-0.021-0.573-0.155-0.802-0.46c-0.24-0.314-0.258-0.589-0.274-0.801
			c-0.001-0.19,0.018-0.363,0.048-0.496l0.021-0.107c0.072-0.237,0.018-0.069,0.088-0.239c0.058-0.112,0.09-0.156,0.104-0.177
			l0.06-0.088c0.146-0.206,0.274-0.364,0.407-0.53c0.526-0.648,1.055-1.258,1.588-1.872c8.554-9.721,17.379-19.132,26.137-28.627
			l13.188-14.177l3.262-3.556c1.04-1.151,2.109-2.426,3.172-3.626l6.396-7.279c0.386-0.439,0.966-0.608,1.499-0.491l0.021,0.006
			c5.691,1.267,11.341,2.647,16.996,4.044c5.654,1.396,11.291,2.869,16.903,4.481c2.807,0.808,5.608,1.642,8.401,2.575
			c2.74,0.932,5.496,1.788,8.262,2.655c5.534,1.717,11.107,3.335,16.697,4.886c5.59,1.546,11.201,3.032,16.835,4.37
			c2.821,0.664,5.622,1.329,8.46,1.799c2.85,0.49,5.716,0.929,8.586,1.324c11.488,1.542,23.072,2.571,34.681,3.065
			c0.083,0.002,0.149,0.071,0.147,0.154C191.957,120.913,191.947,120.941,191.935,120.963z M191.514,121.03
			c-5.725,0.084-11.445-0.073-17.164-0.327c-5.819-0.252-11.63-0.712-17.43-1.317c-2.9-0.306-5.795-0.655-8.689-1.06
			c-2.912-0.395-5.797-0.964-8.647-1.568c-5.705-1.238-11.362-2.621-17.007-4.063c-5.644-1.448-11.268-2.964-16.872-4.583
			c-2.802-0.805-5.599-1.67-8.373-2.58c-2.728-0.885-5.507-1.687-8.294-2.461c-11.168-3.045-22.459-5.819-33.748-8.481l1.521-0.486
			l-6.466,7.202c-1.091,1.205-2.108,2.394-3.244,3.626l-3.323,3.545l-13.349,14.042c-8.921,9.328-17.903,18.622-26.724,28.007
			c-0.542,0.59-1.088,1.185-1.597,1.775c-0.124,0.145-0.252,0.299-0.344,0.419l-0.026,0.036c-0.016,0.021-0.01,0.02,0.022-0.049
			c0.046-0.127-0.032,0.088,0.03-0.101l-0.009,0.041c-0.019,0.063-0.016,0.093-0.021,0.104c-0.001-0.014,0.003-0.075-0.104-0.233
			c-0.108-0.141-0.282-0.187-0.284-0.182c-0.045,0.003,0.129,0.003,0.289-0.031c1.558-0.319,3.283-0.574,4.95-0.553
			c3.35,0.024,6.577,0.681,9.734,1.47c0.789,0.197,1.581,0.418,2.354,0.635c0.801,0.23,1.576,0.492,2.346,0.776
			c1.539,0.566,3.029,1.226,4.504,1.911c2.95,1.366,5.81,2.893,8.633,4.473c11.269,6.358,22.014,13.579,33.328,19.727
			c2.83,1.523,5.735,2.858,8.703,4.09c2.961,1.229,5.971,2.327,9.031,3.223c6.111,1.81,12.464,2.728,18.763,2.365
			c6.328-0.29,12.515-1.766,18.325-4.231c5.832-2.467,11.184-5.868,16.304-9.738c10.265-7.675,19.708-16.45,28.546-25.793
			c4.42-4.676,8.625-9.554,12.738-14.512C183.965,131.254,187.842,126.216,191.514,121.03z"/>
	</g>
</g>
<g>
	<path d="M216.518,111.858c0,0,5.43-29.461,0.025-57.55c-5.13-26.665-26.214-41.07-40.941-46.346
		c-10.975-3.932-19.503-5.653-27.897-6.643c-8.394-0.99-41.04,0.893-55.569,10.458c-14.527,9.563-19.932,21.916-23.16,32.47
		S55.092,93.06,55.092,93.06s48.824,14.622,60.089,18.359c20.241,6.716,46.774,9.344,60.335,10.333
		c13.559,0.99,20.096-0.413,28.931-2.911C213.709,116.223,216.518,111.858,216.518,111.858z"/>
	<g>
		<path fill="#FFFFFF" d="M216.373,111.797c1.656-12.362,2.141-24.869,1.518-37.272c-0.334-6.208-1.061-12.385-2.183-18.472
			c-1.063-6.07-3.014-11.931-5.899-17.333c-2.867-5.404-6.631-10.315-11.02-14.578c-4.357-4.299-9.355-7.943-14.703-10.941
			c-2.68-1.492-5.465-2.797-8.316-3.911c-2.889-1.099-5.826-2.116-8.789-3.023c-5.926-1.825-11.992-3.163-18.148-4.024
			c-3.033-0.484-6.133-0.497-9.244-0.482c-3.11,0.026-6.222,0.21-9.327,0.453c-6.211,0.489-12.396,1.383-18.479,2.702
			c-6.047,1.401-12.088,3.179-17.482,6.181c-5.309,3.124-10.046,7.303-13.888,12.104c-3.861,4.815-6.723,10.353-8.78,16.166
			c-1.046,2.903-1.877,5.886-2.719,8.896l-2.511,9.025L56.49,93.449l-0.982-1.78c13.402,3.949,26.807,7.882,40.166,11.982
			c6.687,2.034,13.353,4.105,20.014,6.305c6.551,2.186,13.284,3.846,20.079,5.27c13.603,2.809,27.472,4.457,41.335,5.68
			c3.457,0.267,6.92,0.402,10.369,0.274c3.451-0.118,6.877-0.56,10.273-1.241c1.699-0.342,3.39-0.743,5.078-1.17
			c1.699-0.426,3.358-0.865,4.975-1.476c1.617-0.599,3.186-1.334,4.66-2.228C213.908,114.174,215.327,113.125,216.373,111.797z
			 M216.644,111.939c-1.038,1.476-2.425,2.601-3.878,3.605c-1.465,0.993-3.047,1.803-4.676,2.487
			c-1.627,0.693-3.33,1.223-4.998,1.713c-1.679,0.5-3.369,0.978-5.08,1.396c-6.849,1.746-14.021,2.012-21.027,1.664
			c-7.006-0.359-13.98-0.929-20.945-1.734c-6.963-0.795-13.91-1.787-20.817-3.079c-6.903-1.287-13.78-2.898-20.497-5.093
			c-6.62-2.131-13.322-4.113-19.988-6.182L54.676,94.45l-0.016-0.005c-0.752-0.23-1.18-1.021-0.967-1.775
			c3.41-12.03,6.866-24.045,10.429-36.035c0.894-2.996,1.771-5.998,2.7-8.987c0.925-2.983,1.855-6.004,3.012-8.953
			c2.279-5.899,5.386-11.542,9.469-16.4c4.08-4.866,9.01-8.929,14.474-12.133c5.585-3.04,11.697-4.767,17.81-6.13
			c6.125-1.375,12.342-2.25,18.579-2.89c3.12-0.312,6.251-0.518,9.39-0.656c3.129-0.109,6.31-0.192,9.473,0.214
			c6.248,0.682,12.467,1.861,18.541,3.544c3.041,0.836,6.041,1.779,9.026,2.817c3.011,1.058,5.913,2.386,8.72,3.887
			c5.621,2.994,10.8,6.812,15.367,11.269c4.531,4.492,8.4,9.672,11.332,15.348c2.946,5.663,4.914,11.836,5.936,18.09
			c1.068,6.223,1.559,12.516,1.744,18.796c0.159,6.283,0.023,12.567-0.514,18.816c-0.534,6.247-1.272,12.476-2.515,18.62
			l-0.001,0.008C216.66,111.91,216.652,111.927,216.644,111.939z"/>
	</g>
</g>
<g>
	<path d="M180.555,111.378c4.213-33.699,6.27-58.495,2.659-73.519C178.076,16.482,158.283,2.46,149.727,1.32
		c-14.063-1.874-42.886,0.645-57.564,10.458c-10.793,7.217-18.124,16.435-22.861,32.47C66.168,54.852,55.119,93.06,55.119,93.06
		c41.537,13.935,41.447,14.099,57.91,18.962c29.639,8.758,51.223,9.448,65.107,9.73
		C179.345,121.776,179.716,118.085,180.555,111.378z"/>
	<g>
		<path fill="#FFFFFF" d="M180.406,111.359c1.418-11.432,2.617-22.899,3.242-34.394c0.614-11.465,0.91-23.06-0.778-34.268
			c-1.624-11.177-7.491-21.357-15.472-29.306c-3.998-3.95-8.531-7.514-13.609-9.84c-1.266-0.563-2.575-1.041-3.879-1.287
			c-1.363-0.225-2.789-0.379-4.205-0.499c-2.84-0.236-5.703-0.318-8.566-0.301c-5.729,0.03-11.465,0.514-17.137,1.375
			c-5.664,0.895-11.291,2.152-16.676,4.099c-2.692,0.966-5.327,2.091-7.826,3.454c-2.491,1.359-4.83,3.018-7.051,4.809
			c-4.436,3.584-8.249,7.893-11.18,12.749c-2.939,4.855-5.039,10.182-6.626,15.644l-4.672,16.623l-9.398,33.262l-0.973-1.855
			c10.927,3.57,21.825,7.239,32.712,10.911c5.44,1.852,10.868,3.69,16.336,5.392c5.481,1.688,10.953,3.437,16.453,4.956
			c11.015,3.052,22.222,5.528,33.604,6.942c5.688,0.714,11.408,1.245,17.146,1.486l4.305,0.176c0.693,0.017,1.488,0.072,2.1,0.044
			c0.209-0.054,0.412-0.378,0.539-0.679c0.135-0.314,0.233-0.654,0.322-0.995C179.75,117.084,180.01,114.2,180.406,111.359z
			 M180.703,111.396c-0.369,2.851-0.596,5.714-1.215,8.554c-0.088,0.354-0.186,0.708-0.332,1.057
			c-0.16,0.329-0.305,0.739-0.807,0.917c-0.455,0.062-0.744,0.007-1.125,0.018l-1.078-0.011l-4.314-0.066
			c-5.749-0.144-11.508-0.352-17.252-0.849c-11.482-0.988-22.934-2.773-34.156-5.547c-2.804-0.673-5.605-1.448-8.372-2.231
			c-2.767-0.785-5.535-1.573-8.293-2.412c-5.525-1.661-11.003-3.458-16.462-5.258c-10.906-3.648-21.789-7.337-32.659-11.072
			l-0.021-0.008c-0.764-0.262-1.179-1.082-0.952-1.849c3.28-11.046,6.509-22.106,9.847-33.137
			c1.676-5.519,3.309-11.025,5.041-16.551c1.799-5.539,4.131-10.959,7.321-15.875c3.161-4.93,7.22-9.267,11.845-12.798
			c2.321-1.745,4.689-3.451,7.279-4.814c2.574-1.371,5.266-2.487,8.005-3.439c5.488-1.88,11.142-3.192,16.845-4.143
			c5.705-0.96,11.47-1.538,17.259-1.791c2.896-0.115,5.8-0.131,8.709,0.013c1.456,0.075,2.901,0.179,4.39,0.373
			c1.539,0.238,2.969,0.72,4.352,1.278c2.759,1.133,5.312,2.629,7.74,4.291c2.42,1.673,4.713,3.527,6.842,5.558
			c4.252,4.058,7.939,8.744,10.746,13.949c2.842,5.174,4.693,10.946,5.461,16.772c0.795,5.821,0.855,11.649,0.658,17.436
			c-0.196,5.79-0.652,11.55-1.213,17.293C183.614,88.535,182.127,99.962,180.703,111.396z"/>
	</g>
</g>
<g>
	<path fill="#FFFFFF" d="M56.378,88.122c-0.021,0.053,0.006,0.112,0.059,0.133c2.361,0.925,10.884,3.778,20.753,7.082l11.108,3.727
		c14.114,4.751,42.268,13.319,58.263,15.302c11.316,1.401,23.118,2.183,36.078,2.387c23.086,0.363,34.623-10.445,34.736-10.555
		c0.041-0.039,0.043-0.104,0.004-0.146c-0.041-0.04-0.105-0.042-0.146-0.003c-0.113,0.109-11.595,10.859-34.592,10.498
		c-12.951-0.204-24.746-0.984-36.055-2.386c-15.979-1.979-44.116-10.544-58.222-15.293l-11.109-3.726
		c-9.866-3.304-18.387-6.156-20.744-7.078C56.458,88.043,56.398,88.069,56.378,88.122z"/>
</g>
</svg>
