<?xml version="1.0" encoding="utf-8"?>
<!-- Generator: Adobe Illustrator 16.0.0, SVG Export Plug-In . SVG Version: 6.00 Build 0)  -->
<!DOCTYPE svg PUBLIC "-//W3C//DTD SVG 1.1//EN" "http://www.w3.org/Graphics/SVG/1.1/DTD/svg11.dtd">
<svg version="1.1" id="Layer_1" xmlns="http://www.w3.org/2000/svg" xmlns:xlink="http://www.w3.org/1999/xlink" x="0px" y="0px"
	 width="222.854px" height="338.422px" viewBox="0 0 222.854 338.422" enable-background="new 0 0 222.854 338.422"
	 xml:space="preserve">
<g>
	<path fill-rule="evenodd" clip-rule="evenodd" fill="#C27339" d="M147.171,1.504l0.455,0.035h0.176l8.742,0.456l7.76,1.264
		l7.512,1.721l8.461,2.142l8.531,1.826l9.094,1.298l7.584,0.421l2.07-5.056l0.771-0.526h0.037l0.139-0.105l0.809-0.631l1.791-0.142
		l8.531,1.721l1.123,1.263l0.246,0.632l0.352,1.58v0.632l-0.141,0.562l-2.984,7.479l-3.898,13.48l-1.613,6.882l-2.072,9.304
		l-3.055,16.991l-7.162,36.864l-2.598,15.201l-1.721,12.674l-1.824,17.343l-1.16,18.502l0.738,66.143l1.158,13.027l1.65,13.094
		l1.861,11.901l4.246,22.961l-0.279,0.422l-5.584,3.125l-8.424-0.703l-0.422-0.596l-0.281-0.246l-0.244-1.229l-0.352-2.176
		l-1.686-8.251l-1.967-11.059l-1.895-12.604l-1.51-12.92l-1.125-13.376l-0.352-7.653l-0.42-6.355l-0.422-13.762l-0.105-11.445
		l0.07-10.182l-0.035-0.07l-39.18,17.519l0.105,132.217l-0.738,0.772l-4.424,2.984l-6.424-0.912l-0.668-0.176l-0.771-0.878
		l-3.125-133.551l-31.527-2.704h-0.035l-0.246,35.284v23.171l-0.141,9.443l-0.387,12.078l-0.068,0.246l-1.09,0.701l-0.105,0.072
		l-0.455,0.314l-0.105,0.07l-0.105,0.07l-0.352,0.245l-0.105,0.071l-0.105,0.069l-0.104,0.07l-0.248,0.175l-0.105,0.071l-0.104,0.07
		l-0.105,0.07l-0.248,0.175l-0.104,0.07l-0.105,0.07l-0.105,0.07l-0.139,0.105l-0.107,0.07l-0.209,0.141l-0.105,0.07l-0.105-0.035
		v0.105l-0.738,0.49l-8.18-1.333l-0.211-0.246l-0.176-0.316l-0.07-0.104l-0.068-2.178l0.174-14.359l0.07-44.377l-0.105-21.976
		l-52.766-4.564l0.104,123.44l-0.176,0.104l-0.736,0.633l-4.775,2.528h-0.035l-0.141,0.105h-0.07l-6.389-0.914l-0.598-0.912
		l-0.141-3.054L7.757,175.186v-0.248l0.666-0.914l1.088-0.35l9.129,0.702l2.07,0.141h0.105l79.17,6.214l0.455,0.035l0.492,0.035
		l0.457,0.035l20.75,1.579l0.279,0.035l1.51,0.105l10.217,0.808l1.861,0.104l2.105-0.035l0.457-0.035l1.264-0.21l1.158-0.421
		l7.549-3.124l26.543-11.235l10.951-4.811l0.982-0.423l0.914-0.49l0.666-0.702l0.281-1.931l-0.139-1.685l-0.178-0.808l-0.279-0.491
		l-0.105-0.246l-0.352-0.246l-0.352-0.457l-1.859-1.228l-1.617-0.808l-4.773-2l-0.281-0.106l0.422-6.53l1.686-17.343l0.736-5.231
		l0.281-2.774l0.844-6.179l0.771-4.283l1.439-9.234l1.299-6.53l-0.07-0.139l-8.25-0.422l-8.004-0.668l-19.766-2.281l-5.795-0.526
		l-6.318-0.351l-6.145-0.071h-1.299l-1.299,0.035l-1.334,0.036l-1.123,0.035h-0.141l-10.674,0.596l-7.793,0.247h-0.982l-0.668,0.035
		h-3.756l-0.703,0.037l-11.795-0.142l0.068,9.691l-0.176,23.592l0.107,16.291l0.141,4.563l-5.092,0.176l-0.668,0.036h-0.07
		l-4.389,0.174l-3.896,0.386l-0.35,0.035v-1.019l-0.035-0.421l-0.211-19.31l0.105-38.83L75.97,75.652l-0.244-8.848l-0.527-10.217
		L74.04,42.581l-0.352-6.6l-0.631-8.496l-0.105-6.425l-0.246-4.529l0.279-4.565l0.316-3.125l-0.068-0.948l0.246-0.351l0.945-1.053
		l8.287-1.475l1.299-0.316l0.633,0.42l1.229,1.194l0.771,1.617l0.211,0.841v2.002h0.104l9.061-0.422l9.865-1.299l9.197-1.897
		l15.518-3.756l7.514-1.298L147.171,1.504L147.171,1.504L147.171,1.504z M144.011,34.154l-7.479,0.141l-0.211,0.035h-0.281
		l-0.49,0.035l-5.406,0.385h-0.035l-14.852,1.617l-9.094,0.772h-0.209l-0.246,0.034h-0.352l-0.211,0.036l-0.562,0.036l-0.631,0.034
		l-0.631,0.035l-0.6,0.035l-0.631,0.036l-0.631,0.035l-0.598,0.034l-0.631,0.038l-0.598,0.035l-0.631,0.035l-0.633,0.034
		l-0.631,0.036l-0.635,0.037L96.438,37.7l-8.777,0.105l0.352,6.319l1.23,15.764l0.842,14.007h9.197l8.602-0.525l7.619-0.913
		l11.445-1.826L132.987,70l7.195-0.105l0.354,0.035l0.631,0.035L141.659,70l0.49,0.035l0.492,0.035l0.525,0.035l2.002,0.14
		l0.527,0.037l0.49,0.035h0.035l1.967,0.141l6.109,0.913l13.445,2.774l5.723,1.017l8.564,1.124h0.037l0.527,0.036l0.561,0.035
		l0.598,0.036l0.562,0.034l0.596,0.036l0.562,0.036l0.631,0.034l0.562,0.036l0.598,0.035l1.156,0.07l0.598,0.034l0.562,0.036h0.07
		l3.16-13.868l4.07-20.467l0.809-3.335l-7.863-0.282l-9.234-0.807l-7.408-0.913l-14.184-1.967l-6.881-0.632L144.011,34.154
		L144.011,34.154z"/>
	<g>
		<path fill="#1D1D1B" d="M147.172,1.354l0.466,0.033h-0.012c0.185-0.006,0.388,0.009,0.565,0.016l0.558,0.025l1.115,0.051
			l2.23,0.101l4.46,0.203l0.011,0l0.013,0.002l5.213,0.813l2.623,0.413l2.574,0.572l5.156,1.151l5.121,1.268l2.561,0.634
			c0.826,0.213,1.712,0.369,2.565,0.556l5.164,1.078l1.291,0.27l1.278,0.178l2.613,0.359l5.227,0.719l-0.038-0.004l7.586,0.383
			l-0.482,0.305l2.044-5.066l0.058-0.143l0.131-0.09l0.769-0.529l0.132-0.09l0.164-0.001l0.037,0l-0.317,0.107l0.938-0.738
			l0.124-0.097l0.161-0.014l1.79-0.15l0.073-0.006l0.076,0.015l8.54,1.678l0.188,0.037l0.133,0.147l1.129,1.258l0.069,0.077
			l0.04,0.102l0.25,0.631l0.016,0.04l0.011,0.047l0.359,1.578l0.015,0.062v0.069l0.003,0.632l0.001,0.072l-0.02,0.076l-0.138,0.562
			l-0.009,0.037l-0.016,0.041l-2.947,7.494l0.021-0.06l-2.553,8.998l-1.279,4.498l-1.044,4.521
			c-0.719,3.036-1.348,6.072-2.027,9.122l-0.501,2.284c-0.143,0.701-0.273,1.517-0.41,2.269l-0.812,4.605l-1.625,9.21l-1.74,9.201
			l-3.508,18.373l-1.754,9.187c-0.564,3.022-1.044,6.135-1.57,9.198l-0.772,4.612l-0.386,2.306
			c-0.115,0.702-0.209,1.525-0.313,2.282l-1.228,9.271c-0.395,3.029-0.654,6.183-0.988,9.268l-0.947,9.305l-1.136,18.624
			l0.002-0.084l0.826,66.142l-0.005-0.095l0.692,7.678l0.347,3.839c0.062,0.619,0.105,1.327,0.184,1.873l0.243,1.912l0.975,7.647
			c0.169,1.257,0.309,2.589,0.502,3.784l0.601,3.808l1.202,7.579l1.411,7.579l2.824,15.157l0.096,0.517l-0.291,0.442l-0.278,0.422
			l-0.174,0.263l-0.278,0.156l-5.579,3.132l-0.35,0.196l-0.402-0.033l-8.425-0.692l-0.613-0.05l-0.359-0.505l-0.422-0.595
			l0.209,0.232l-0.281-0.246l-0.34-0.296l-0.088-0.445l-0.172-0.855l-0.092-0.475l-0.07-0.431l-0.272-1.668l-0.703-3.42
			l-0.703-3.419c-0.116-0.585-0.236-1.104-0.35-1.745l-0.308-1.718l-1.223-6.875l-0.303-1.719c-0.12-0.643-0.182-1.17-0.275-1.76
			l-0.515-3.453l-1.03-6.906c-0.342-2.39-0.557-4.646-0.84-6.975l-0.807-6.978l-0.578-6.958c-0.185-2.342-0.402-4.588-0.561-7.009
			l-0.312-6.975l-0.223-3.458c-0.068-1.182-0.166-2.276-0.211-3.53l-0.207-6.979l-0.192-7.007l-0.057-6.982l-0.028-3.491
			l0.023-3.511l0.055-6.982l0.134,0.57l-0.035-0.07l1.625,0.578l-39.227,17.414l0.671-1.036l-0.348,132.218l-0.001,0.275
			l-0.188,0.195l-0.74,0.77l-0.053,0.055l-0.059,0.039l-4.434,2.969l-0.213,0.142l-0.248-0.036l-6.42-0.934l-0.039-0.006
			l-0.034-0.009l-0.667-0.178l-0.188-0.05l-0.126-0.144l-0.769-0.881l-0.151-0.173l-0.005-0.227l-2.964-133.554l0.428,0.455
			l-31.53-2.671l0.043,0.002h-0.035l0.5-0.497l-0.118,19.996c-0.025,6.664-0.112,13.334-0.086,19.992l0.01,9.998l0.005,4.999
			c-0.002,1.659,0.016,3.343-0.016,5.007l-0.061,4.999c-0.017,1.657-0.036,3.345-0.097,5.008l-0.291,9.994l-0.003,0.073
			l-0.021,0.074l-0.067,0.246l-0.062,0.227l-0.2,0.129l-0.961,0.622l-0.925,0.632l-0.948,0.657l-0.46,0.319l-0.25,0.17
			c-0.025,0.017-0.112,0.074-0.086,0.058l-0.113,0.087l-0.014,0.011l-0.023,0.015l-0.416,0.28l-0.257,0.172l-0.297-0.098
			l-0.104-0.035l0.836-0.603v0.105l0.001,0.339l-0.285,0.19l-0.737,0.492l-0.206,0.138l-0.249-0.04l-8.184-1.31l-0.236-0.038
			l-0.159-0.185l-0.212-0.245l-0.042-0.05l-0.034-0.06l-0.176-0.315l0.029,0.048l-0.07-0.104l-0.108-0.16l-0.005-0.19
			c-0.021-0.876-0.076-1.696-0.071-2.618l0.024-2.59l0.048-5.18l0.049-5.181l0.004-5.173l-0.025-20.723L75.76,218.1l-0.154-20.723
			l0.814,0.884l-52.777-4.425l1.12-1.028l0.425,123.44l0.003,0.772l-0.669,0.396l-0.176,0.104l0.195-0.14l-0.735,0.633l-0.114,0.098
			l-0.135,0.072l-4.772,2.534l-0.297,0.158l-0.34,0h-0.035l0.816-0.272l-0.141,0.105l-0.361,0.271l-0.455,0.001h-0.07h-0.095
			l-0.098-0.014l-6.391-0.906l-0.61-0.087l-0.341-0.518l-0.599-0.912l-0.204-0.312l-0.019-0.376l-0.105-2.23l-0.026-0.557
			l-0.02-0.591l-0.026-1.116l-0.102-4.464l-0.204-8.928l-0.408-17.856l-0.815-35.713l-1.626-71.46l-0.011-0.487l0.308-0.423
			l0.664-0.914l0.295-0.406l0.48-0.155l1.088-0.351l0.287-0.093l0.306,0.023l5.651,0.428l2.826,0.214l1.399,0.099l0.707,0.047
			l0.354,0.023l0.177,0.012l0.044,0.003l0.022,0.001h0.003c-0.047-0.001,0.107,0.004-0.104-0.003h0.006h0.011h0.089h0.06
			l0.062,0.005l57.594,4.501l28.793,2.254l14.4,1.103l7.203,0.57l3.6,0.286l1.764,0.139l1.803,0.102l-0.112-0.002l1.282-0.021
			l0.641-0.01l0.16-0.003h0.02h0.002l0,0c-0.041,0.002,0.092-0.004-0.091,0.004h0.003l0.004,0l0.011,0l0.04-0.003l0.08-0.006
			l0.319-0.024l-0.138,0.017l1.264-0.21l-0.274,0.072l0.753-0.273l0.376-0.136l0.308-0.127l1.48-0.612l2.96-1.223l5.899-2.468
			l11.803-4.99l11.782-4.984l11.748-5.145l-0.117,0.057l0.914-0.489l-0.387,0.295l0.666-0.702l-0.402,0.83l0.282-1.931l-0.011,0.345
			l-0.138-1.685l0.03,0.203l-0.178-0.808l0.163,0.425l-0.278-0.491l-0.043-0.075l-0.033-0.078l-0.105-0.246l0.528,0.649
			l-0.352-0.246l-0.192-0.134l-0.143-0.185l-0.351-0.457l0.367,0.341l-1.859-1.229l0.158,0.091l-0.814-0.407l-0.406-0.204
			l-0.204-0.102l-0.102-0.051l-0.051-0.025l-0.025-0.013l-0.013-0.006c-0.083-0.038,0.11,0.051,0.09,0.041l-0.002,0l-0.003-0.001
			l-0.007-0.002l-1.679-0.705l-1.679-0.705l-0.84-0.352l-0.42-0.176l-0.372-0.146l-1.052-0.411l0.071-1.108l0.238-3.657
			c0.093-1.24,0.13-2.391,0.268-3.704l0.712-7.294l0.713-7.294l0.178-1.823l0.258-1.879l0.502-3.571l0.187-1.823l0.1-0.963
			l0.124-0.908l0.498-3.63l0.124-0.908l0.062-0.454l0.03-0.227l0.05-0.289l0.327-1.803l0.329-1.803l0.082-0.451l0.066-0.417
			l0.143-0.905l1.145-7.239l0.071-0.452l0.048-0.287l0.045-0.225l0.181-0.898l0.361-1.796l0.723-3.593l0.13,0.944l-0.07-0.139
			l1.227,0.797l-5.996-0.32c-1.02-0.065-1.954-0.08-3.043-0.187l-2.991-0.256l-2.991-0.256l-1.54-0.14l-1.49-0.175l-5.964-0.701
			l-11.927-1.403l-5.897-0.553l-5.994-0.346l-5.944-0.093l-1.485-0.008l-1.465,0.031l-2.963,0.084l-5.995,0.321l-2.998,0.161
			l-1.531,0.077l-1.5,0.044l-6.002,0.177l-5.978,0.049l-0.188,0.009l-0.269,0.001l-0.376-0.005l-0.75-0.011l-1.501-0.021
			l-3.002-0.042l-6.004-0.085l1.264-1.258l0.033,6.768l0.01,3.401l-0.032,3.384l-0.13,13.535l-0.058,6.75l0.03,6.768l0.029,6.768
			l0.008,1.692l0.012,0.818l0.023,0.846l0.098,3.382l0.031,1.128l-1.124,0.039l-7.236,0.247l-1.811,0.065l-0.905,0.033l-0.227,0.008
			l-0.028,0.001h-0.007c0.129-0.009,0.033-0.002,0.062-0.004H80.53l-0.014,0.001l-0.057,0.005l-0.112,0.011l-0.451,0.043
			l-3.605,0.345l-1.197,0.115l0.004-1.194l0.004-1.019l0.004,0.09l-0.034-0.421l-0.003-0.043l-0.001-0.035l-0.117-15.921
			c-0.033-2.65-0.019-5.333,0.004-7.975l0.05-7.96l0.1-15.921l0.05-7.961c0.028-2.655-0.001-5.291-0.005-7.952l-0.016-3.98
			l-0.085-3.962c-0.073-2.67-0.098-5.283-0.253-7.937l-0.392-7.927l-0.628-7.936l-0.313-3.968l-0.152-2.005l-0.099-1.988
			l-0.197-3.976l-0.271-3.957l-0.277-3.971l-0.069-1.031l-0.011-0.995l-0.022-1.99c-0.024-1.316-0.01-2.678-0.065-3.956
			l-0.195-3.976L72.1,16.525l0.002-0.032l0.256-3.849l0.031-0.481l0.019-0.264l0.025-0.24l0.103-0.958l0.203-1.918l-0.001,0.098
			l-0.063-0.948L72.66,7.731l0.114-0.161l0.248-0.349l0.021-0.03l0.021-0.023l0.95-1.047l0.13-0.143l0.184-0.032l4.807-0.83
			l2.402-0.415l0.601-0.104c0.186-0.035,0.433-0.068,0.568-0.104l1.187-0.282l0.215-0.051l0.181,0.121l0.63,0.423l0.041,0.027
			l0.031,0.031l1.223,1.2l0.064,0.063l0.035,0.077l0.764,1.621l0.021,0.046l0.011,0.044l0.207,0.842l0.015,0.06l-0.001,0.056
			l-0.01,2.002l-0.465-0.465c0.148,0.003,0.37-0.013,0.552-0.018l0.572-0.024l1.146-0.047l2.291-0.095l4.583-0.19l-0.035,0.003
			l9.872-1.248l-0.026,0.004l8.084-1.624c0.685-0.133,1.335-0.267,2.004-0.434l2.006-0.475l4.013-0.949l8.023-1.898
			c0.661-0.178,1.378-0.265,2.04-0.384l2.033-0.341l4.065-0.681l0.012-0.002l0.01,0L147.172,1.354z M147.17,1.654l-9.045,0.644
			l0.021-0.002l-4.059,0.723l-2.029,0.361c-0.688,0.132-1.34,0.212-2.006,0.398l-8.004,1.981l-4.002,0.99l-2.001,0.495
			c-0.663,0.173-1.356,0.324-2.021,0.459l-8.066,1.708l-0.012,0.002l-0.015,0.002l-9.858,1.35l-0.016,0.002l-0.02,0.001
			l-4.581,0.237l-2.29,0.119l-1.146,0.059l-0.572,0.03c-0.201,0.008-0.36,0.024-0.595,0.025l-0.462,0.002l-0.003-0.467l-0.01-2.002
			l0.014,0.115l-0.215-0.84l0.032,0.09l-0.779-1.613l0.1,0.14l-1.234-1.188l0.071,0.058l-0.635-0.417l0.396,0.069L82.945,5.48
			c-0.258,0.064-0.416,0.081-0.629,0.124l-0.6,0.11l-2.398,0.439l-4.797,0.879l0.313-0.174l-0.939,1.057l0.041-0.052l-0.244,0.352
			l0.101-0.362L73.866,8.8l0.003,0.046l-0.004,0.052l-0.186,1.919l-0.092,0.96l-0.023,0.24l-0.012,0.218l-0.026,0.481l-0.216,3.851
			v-0.069l0.236,3.974c0.072,1.372,0.069,2.666,0.107,4.002l0.043,1.99l0.021,0.995l0.076,0.954l0.312,3.968l0.301,3.983
			l0.227,3.974l0.112,1.987l0.163,1.962l0.343,3.965l0.684,7.932l0.451,7.972c0.175,2.645,0.221,5.339,0.312,7.974l0.113,3.996
			l0.043,3.98c0.023,2.646,0.072,5.317,0.062,7.969l0.006,7.961l0.014,15.922l0.007,7.961c-0.003,2.666,0,5.29,0.053,7.946
			l0.23,15.92l-0.004-0.078l0.036,0.42l0.004,0.042v0.049l0.004,1.019l-1.193-1.08l3.605-0.371l0.451-0.046l0.29-0.025l0.226-0.01
			l0.905-0.04l1.81-0.078l3.626-0.156l3.621-0.134l-1.093,1.166l-0.111-3.382l-0.027-0.846l-0.017-0.873l-0.015-1.692l-0.059-6.768
			l-0.06-6.767l0.027-6.784l0.071-13.535l0.019-3.384l-0.024-3.366L89.258,90.3l-0.012-1.27l1.275,0.011l11.927,0.107l6.028-0.078
			l6.002-0.203l1.5-0.051l1.467-0.081l2.998-0.174l5.994-0.348l3.038-0.101l1.537-0.038l1.517,0.002l3.002,0.028l1.501,0.014
			l0.751,0.007l0.375,0.003l0.435,0.019l5.995,0.32l6.062,0.541l11.933,1.351l5.967,0.676l1.491,0.169l1.451,0.124l2.992,0.243
			l2.992,0.243c0.904,0.09,1.973,0.109,2.951,0.167l5.997,0.293l0.841,0.042l0.386,0.756l0.07,0.138l0.228,0.446l-0.098,0.498
			l-0.707,3.596l-0.354,1.798l-0.177,0.899l-0.044,0.225l-0.003,0.014c0.021-0.116,0.005-0.024,0.009-0.046l-0.005,0.028
			l-0.009,0.057l-0.018,0.113l-0.069,0.453l-1.113,7.244l-0.139,0.906l-0.076,0.487l-0.08,0.451l-0.321,1.804l-0.322,1.804
			l-0.021,0.112l-0.011,0.057l-0.004,0.028c0.019-0.122,0.004-0.025,0.008-0.049l-0.002,0.014l-0.031,0.227l-0.062,0.454
			l-0.124,0.908l-0.494,3.631l-0.123,0.908l-0.087,0.86l-0.184,1.823l-0.514,3.688l-0.241,1.751l-0.176,1.824l-0.705,7.295
			l-0.706,7.295c-0.121,1.117-0.168,2.41-0.256,3.606l-0.234,3.657l-0.98-1.519l0.476,0.186l0.42,0.176l0.84,0.352l1.68,0.703
			l1.68,0.703l1.723,0.854l0.08,0.04l0.078,0.052l1.859,1.227l0.212,0.14l0.156,0.202l0.352,0.457l-0.335-0.319l0.352,0.245
			l0.356,0.249l0.172,0.4l0.105,0.246l-0.076-0.153l0.28,0.491l0.113,0.2l0.05,0.226l0.178,0.808l0.022,0.1l0.008,0.103l0.14,1.685
			l0.015,0.172l-0.025,0.172l-0.28,1.931l-0.069,0.479l-0.334,0.352l-0.665,0.702l-0.169,0.178l-0.218,0.117l-0.913,0.49
			l-0.053,0.028l-0.065,0.029l-11.722,5.147l-11.816,5.011l-11.798,5l-5.92,2.482l-2.959,1.227l-1.479,0.613l-0.434,0.176
			l-0.377,0.137l-0.752,0.274l-0.134,0.048l-0.142,0.024l-1.264,0.211l-0.067,0.011l-0.07,0.005l-0.319,0.024l-0.252,0.015
			l-0.16,0.003l-0.641,0.011l-1.282,0.021l-0.056,0.001l-0.057-0.003l-1.803-0.101l-1.835-0.143l-3.6-0.283l-7.194-0.563
			l-14.401-1.089l-28.803-2.228l-57.591-4.54l0.122,0.005h-0.089l-0.194-0.009l-0.177-0.012l-0.353-0.024l-0.707-0.049l-1.428-0.104
			l-2.825-0.221l-5.65-0.442l0.592-0.07l-1.088,0.349l0.775-0.561l-0.667,0.913l0.296-0.91l1.452,71.397l0.729,35.715l0.364,17.858
			l0.183,8.929l0.091,4.464l0.023,1.116l0.017,0.524l0.024,0.558l0.101,2.23l-0.223-0.688l0.597,0.913l-0.951-0.604l6.387,0.921
			l-0.192-0.014h0.07l-0.816,0.272l0.141-0.105l0.364-0.272l0.452,0h0.035l-0.637,0.158l4.778-2.522l-0.249,0.169l0.737-0.632
			l0.093-0.08l0.103-0.06l0.176-0.103l-0.666,1.167L22.7,192.81l0.002-1.127l1.118,0.1l52.754,4.703l0.812,0.073l0.002,0.811
			l0.045,20.723l-0.082,20.729l-0.091,20.723l-0.034,5.188l-0.076,5.18l-0.078,5.18l-0.038,2.59c-0.012,0.805,0.039,1.71,0.056,2.56
			l-0.112-0.349l0.069,0.104l0.018,0.025l0.012,0.023l0.176,0.316l-0.076-0.109l0.21,0.247l-0.396-0.222l8.176,1.356l-0.455,0.098
			l0.739-0.488l-0.284,0.529v-0.105l0.003-0.883l0.834,0.28l0.104,0.036l-0.553,0.074l0.428-0.283l-0.037,0.025l0.114-0.086
			l0.15-0.104l0.224-0.15l0.482-0.331l0.937-0.641l0.968-0.653l0.964-0.616l-0.262,0.356l0.069-0.246l-0.023,0.146l0.349-9.992
			c0.069-1.667,0.098-3.312,0.124-4.987l0.088-4.998c0.042-1.668,0.023-3.317,0.03-4.99l0.005-4.999l0.01-9.998
			c-0.012-6.673,0.089-13.333,0.128-20l0.16-19.996l0.004-0.498l0.496,0h0.035h0.022l0.021,0.002l31.524,2.737l0.417,0.036
			l0.011,0.419l3.286,133.547l-0.156-0.4l0.774,0.875l-0.314-0.194l0.668,0.173l-0.072-0.014l6.428,0.89l-0.461,0.106l4.414-3
			l-0.111,0.093l0.735-0.775l-0.188,0.471l-0.559-132.217l-0.003-0.732l0.674-0.304l39.133-17.623l1.086-0.489l0.539,1.067
			l0.035,0.07l0.135,0.268l-0.001,0.303l-0.041,6.982l-0.016,3.471l0.035,3.491l0.072,6.982l0.206,6.952l0.222,6.979
			c0.039,1.072,0.145,2.297,0.215,3.438l0.232,3.509l0.328,6.975c0.148,2.223,0.381,4.611,0.568,6.909l0.593,6.957l0.812,6.892
			c0.284,2.291,0.521,4.67,0.843,6.887l1.046,6.904l0.522,3.452c0.09,0.559,0.169,1.188,0.267,1.688l0.308,1.718l1.223,6.874
			l0.304,1.719c0.086,0.506,0.224,1.123,0.332,1.678l0.694,3.421l0.694,3.421l0.287,1.778l0.069,0.431l0.074,0.382l0.168,0.856
			l-0.428-0.74l0.281,0.246l0.119,0.105l0.09,0.127l0.421,0.596l-0.972-0.555l8.423,0.714l-0.751,0.163l5.588-3.118l-0.451,0.419
			l0.279-0.421l-0.195,0.958l-2.783-15.165l-1.393-7.583l-1.193-7.652l-0.59-3.809c-0.211-1.344-0.332-2.569-0.503-3.859
			l-0.954-7.65l-0.238-1.912c-0.096-0.728-0.123-1.304-0.188-1.964l-0.336-3.84l-0.673-7.68l-0.004-0.049l-0.001-0.046l-0.65-66.144
			l-0.001-0.044l0.003-0.04l1.22-18.711l1.009-9.298c0.356-3.111,0.626-6.173,1.055-9.324l1.288-9.263
			c0.115-0.786,0.199-1.512,0.339-2.348l0.401-2.303l0.803-4.607c0.55-3.079,1.038-6.126,1.638-9.229l1.813-9.175l3.627-18.35
			l1.796-9.167l1.685-9.2l0.842-4.6c0.148-0.78,0.266-1.504,0.438-2.329l0.516-2.281c0.697-3.031,1.354-6.097,2.091-9.124
			l1.092-4.585l1.318-4.486l2.644-8.971l0.01-0.034l0.012-0.027l3.021-7.463l-0.024,0.078l0.144-0.561l-0.019,0.147l0.003-0.632
			l0.015,0.131l-0.344-1.582l0.026,0.087l-0.242-0.634l0.109,0.179l-1.117-1.269l0.321,0.184l-8.522-1.764l0.148,0.009l-1.791,0.133
			l0.285-0.111l-0.957,0.736l-0.141,0.108l-0.177,0l-0.037,0l0.296-0.091l-0.774,0.521l0.188-0.232l-2.097,5.045l-0.135,0.326
			l-0.348-0.021l-7.582-0.46l-0.021-0.001l-0.018-0.003l-5.219-0.771l-2.609-0.386l-1.332-0.201l-1.288-0.283l-5.153-1.13
			c-0.862-0.199-1.71-0.354-2.585-0.588l-2.555-0.66l-5.107-1.322l-5.126-1.216l-2.567-0.606l-2.584-0.441l-5.201-0.883l0.023,0.002
			l-4.457-0.262l-2.229-0.131l-1.114-0.065l-0.557-0.033c-0.193-0.009-0.361-0.026-0.55-0.023l-0.005,0l-0.007,0L147.17,1.654z"/>
		<path fill="#1D1D1B" d="M144.01,34.305c-2.489,0.173-4.979,0.322-7.469,0.449l0.065-0.006l-0.21,0.042l-0.021,0.004l-0.055,0.002
			l-0.281,0.01l0.033-0.001l-5.881,0.629l-0.049,0.002l-0.035,0.001l0.074-0.004c-3.976,0.545-7.949,1.101-11.929,1.604l-3.01,0.385
			l-2.992,0.314l-5.988,0.591l-0.034,0.003l-0.066,0.001l-0.209,0.003l0.164-0.012l-0.245,0.038l-0.066,0.01l-0.099,0.001
			l-0.352,0.004l0.2-0.017l-0.21,0.039l-0.051,0.009l-0.074,0.005l-4.368,0.307l-4.428,0.275l-8.748,0.158l1.328-1.421l0.244,4.515
			c0.043,0.739,0.071,1.535,0.127,2.227l0.167,2.255c0.186,3.009,0.414,6.015,0.563,9.027l0.238,4.536l0.165,4.52l0.323,9.041
			l-0.749-0.706l5.394,0.132l2.697,0.047c0.435,0,0.933,0.027,1.314,0.006l1.348-0.062c1.796-0.077,3.592-0.169,5.387-0.276
			l1.346-0.075c0.396-0.013,0.879-0.092,1.314-0.135l2.68-0.307l2.676-0.331l1.32-0.168l1.33-0.217l5.32-0.89l2.658-0.455
			l1.33-0.227l0.694-0.119l0.669-0.083l5.354-0.667l0.018-0.002l0.044-0.001l7.192-0.248l0.027-0.001l0.066,0.005l0.34,0.024
			l0.375,0.012l0.767,0.034l1.502,0.07l3.007,0.142l-0.067-0.002l0.035-0.001h0.013l0.057,0.002l1.969,0.096l0.017,0.001
			l0.062,0.007l4.262,0.538l1.064,0.138l0.532,0.071l0.267,0.036l0.325,0.062l2.109,0.402l8.438,1.61l2.109,0.402l0.527,0.101
			l0.493,0.081l1.059,0.179l4.173,0.704l8.525,1.044l-0.191-0.012l7.621,0.392l-1.497,1.194l2.08-9.404l1.05-4.654l0.935-4.724
			l1.938-9.434l0.972-4.716l0.244-1.179l0.078-0.354l0.074-0.292l0.151-0.583l0.603-2.331l1.359,1.792l-6.735-0.344l-0.843-0.043
			l-0.21-0.011l-0.278-0.022l-0.419-0.043l-1.677-0.172l-3.355-0.345l-3.354-0.345c-1.199-0.144-2.251-0.306-3.384-0.458
			l-3.337-0.484c-1.11-0.157-2.251-0.356-3.347-0.533l-6.656-1.093l-3.328-0.546l-1.664-0.273l-1.642-0.21l-3.347-0.422
			l-1.674-0.211c-0.51-0.071-1.107-0.09-1.656-0.138L144.01,34.305z M144.011,34.004l6.754,0.002
			c0.573,0.011,1.102-0.013,1.71,0.026l1.685,0.097l3.368,0.194c0.575,0.038,1.092,0.052,1.715,0.112l1.676,0.19l3.351,0.38
			l6.702,0.76c1.132,0.125,2.215,0.261,3.338,0.363l3.355,0.34l3.311,0.347l3.364,0.242l3.363,0.243l1.682,0.121l0.42,0.03
			l0.105,0.007l0.026,0.002c0.065,0.004-0.074-0.004-0.056-0.003h0.014l0.053,0.001l0.21,0.004L191,37.48l6.742,0.139l1.757,0.036
			l-0.397,1.757l-0.531,2.349l-0.249,1.114l-0.227,1.183l-0.906,4.729l-1.818,9.458l-0.944,4.722l-1.078,4.739l-2.199,9.376
			l-0.289,1.235l-1.208-0.04l-0.216-0.007l-0.119-0.008l-0.238-0.017l-0.467-0.032l-0.957-0.065l-1.894-0.13l-3.73-0.262
			l-0.191-0.012l-8.507-1.19l-4.284-0.795l-1.056-0.197l-0.563-0.109l-0.524-0.116l-2.096-0.465l-8.387-1.861l-2.096-0.465
			l-0.131-0.029l-0.066-0.015l-0.032-0.007l-0.017-0.003l-0.008-0.002c-0.059-0.01,0.069,0.012,0.054,0.009l-0.265-0.043
			l-0.53-0.087l-1.059-0.179l-4.233-0.73l0.077,0.008l-1.963-0.185l0.068,0.002l-0.035-0.001l-0.056-0.001l-0.013-0.001L143.122,71
			l-1.5-0.139l-0.735-0.066l-0.375-0.029l-0.41-0.047l0.093,0.004l-7.197-0.038l0.062-0.003l-5.376,0.456l-0.672,0.057l-0.637,0.093
			l-1.334,0.197l-2.668,0.396l-5.333,0.81l-1.332,0.208l-1.357,0.163l-2.679,0.311l-2.676,0.333
			c-0.459,0.05-0.863,0.125-1.367,0.153l-1.346,0.089c-1.794,0.113-3.588,0.24-5.38,0.382l-1.345,0.102
			c-0.516,0.039-0.918,0.022-1.382,0.036l-2.697,0.047l-5.394,0.132l-0.688,0.017l-0.061-0.722l-0.762-9.014l-0.378-4.507
			l-0.449-4.481c-0.319-2.999-0.56-6.003-0.843-9.005l-0.186-2.253c-0.068-0.81-0.095-1.521-0.145-2.286l-0.258-4.515l-0.08-1.413
			l1.408-0.008l8.75-0.052l8.675-0.402l-0.124,0.014l0.211-0.033l0.115-0.018l0.085,0.001l0.352,0.004l-0.165,0.011l0.246-0.031
			l0.098-0.012l0.067,0l0.209,0.003l-0.101,0.004l6.002-0.428l3.002-0.195l2.973-0.262c3.994-0.365,7.995-0.677,11.995-1
			l0.058-0.004l0.017,0l0.035,0.001l-0.049,0.002l5.911-0.209l0.034-0.001l0.281,0.01l-0.075,0.006l0.212-0.027l0.048-0.006h0.018
			c2.494,0.033,4.989,0.088,7.484,0.167H144.011z"/>
	</g>
</g>
<g>
	<polygon fill-rule="evenodd" clip-rule="evenodd" fill="#C27339" points="84.888,144.641 85.556,144.604 90.647,144.429 
		94.366,144.359 104.022,144.463 116.872,144.885 127.614,145.412 139.587,146.149 149.417,146.921 161.39,148.186 161.601,148.221 
		161.88,148.255 166.409,148.957 166.866,149.028 167.075,149.063 167.288,149.099 167.497,149.133 167.743,149.169 
		167.954,149.203 168.165,149.239 168.374,149.275 168.622,149.31 168.833,149.344 169.042,149.379 169.253,149.415 169.464,149.45 
		169.71,149.484 169.921,149.519 170.132,149.555 170.341,149.59 170.587,149.625 170.798,149.659 172.729,149.941 177.89,151.556 
		178.942,151.977 179.224,152.083 183.997,154.083 185.614,154.892 187.474,156.12 187.825,156.576 188.177,156.822 
		188.282,157.068 188.562,157.559 188.739,158.367 188.878,160.052 188.597,161.983 187.931,162.685 187.017,163.175 
		186.034,163.598 175.083,168.408 148.54,179.644 140.991,182.768 139.833,183.188 138.569,183.399 138.112,183.434 
		136.007,183.468 134.146,183.364 123.929,182.556 122.419,182.451 122.14,182.416 101.39,180.836 100.933,180.801 100.44,180.766 
		99.985,180.731 20.815,174.517 20.71,174.517 18.64,174.376 9.511,173.674 4.841,173.253 2.56,172.866 1.612,172.41 1.296,171.357 
		1.085,169.671 1.085,167.671 1.19,166.687 1.751,165.6 3.472,164.124 5.579,163.036 7.194,162.439 7.265,162.404 7.37,162.369 
		7.476,162.332 7.546,162.299 7.651,162.264 7.72,162.229 7.825,162.158 7.931,162.124 8.001,162.088 8.108,162.054 8.282,161.983 
		8.739,161.808 8.845,161.771 12.038,160.543 19.481,157.91 26.118,155.664 35.245,153.101 46.761,150.187 56.415,148.115 
		68.317,146.079 76.183,145.236 76.532,145.201 80.429,144.815 84.817,144.641 84.888,144.641 	"/>
	<path fill="#1D1D1B" d="M84.888,144.641c3.667-0.215,7.33-0.435,11.013-0.465l5.508-0.024c1.835-0.02,3.686,0.002,5.515,0.048
		l11.022,0.229l11.017,0.407l11.015,0.557c3.672,0.276,7.306,0.472,11.009,0.813l10.979,1.085c3.676,0.516,7.328,1.114,10.919,1.603
		l0.073,0.01l0.09,0.027l5.173,1.571l0.038,0.012l0.043,0.017c0.636,0.256,1.332,0.507,1.975,0.777l1.948,0.797l1.947,0.797
		l0.243,0.1l0.308,0.146l0.473,0.231l0.945,0.462l0.055,0.027l0.067,0.043l1.869,1.213l0.159,0.103l0.129,0.165l0.354,0.454
		l-0.262-0.25l0.354,0.242l0.273,0.188l0.142,0.323l0.107,0.245l-0.06-0.121l0.283,0.489l0.087,0.149l0.043,0.188l0.185,0.806
		l0.016,0.07l0.009,0.091l0.152,1.684l0.012,0.129l-0.021,0.149l-0.266,1.933l-0.052,0.381l-0.276,0.296l-0.66,0.708l-0.131,0.14
		l-0.187,0.102l-0.909,0.497l-0.037,0.021l-0.061,0.026l-11.711,5.178l-11.801,5.037l-11.787,5.027l-5.913,2.496l-2.956,1.233
		l-1.479,0.617l-0.428,0.175l-0.376,0.138l-0.752,0.275l-0.117,0.043l-0.132,0.022l-1.263,0.214l-0.059,0.01l-0.066,0.005
		l-0.319,0.025l-0.243,0.015l-0.16,0.003l-0.642,0.012l-1.281,0.024l-0.06,0.001l-0.043-0.003l-28.835-2.112l-28.796-2.31
		l-57.58-4.679l0.099,0.004l-0.211-0.004l-0.125-0.009l-0.25-0.018l-0.499-0.038l-0.999-0.076l-2.007-0.169l-3.992-0.341
		l-4.007-0.351l-3.986-0.394l-0.054-0.005l-0.035-0.006l-2.277-0.406l-0.165-0.029l-0.133-0.065l-0.943-0.464l-0.446-0.22
		l-0.134-0.459l-0.308-1.055l-0.028-0.098l-0.01-0.083l-0.197-1.687L0,169.73l0.001-0.059l0.017-2l0.001-0.066l0.005-0.048
		l0.114-0.983l0.023-0.205l0.088-0.167l0.569-1.083l0.1-0.189l0.15-0.126l1.732-1.461l0.099-0.083l0.1-0.051l2.116-1.07l0.063-0.032
		l0.051-0.018l1.619-0.583l-0.095,0.041l0.07-0.034l0.065-0.032l0.061-0.02l0.195-0.065l-0.094,0.039l0.07-0.032l0.062-0.029
		l0.049-0.016l0.105-0.034l-0.14,0.059l0.068-0.035l-0.097,0.057l0.106-0.069l0.121-0.08l0.123-0.039l0.105-0.033l-0.143,0.059
		l0.07-0.035l0.077-0.038l0.066-0.021l0.107-0.034l-0.068,0.025c1.592-0.586,3.063-1.17,4.676-1.732l4.672-1.609
		c1.552-0.543,3.14-1.07,4.695-1.578c1.587-0.506,3.077-1.05,4.745-1.525c3.191-0.852,6.331-1.755,9.563-2.564l9.614-2.293
		c3.257-0.724,6.468-1.316,9.704-1.98c3.277-0.595,6.516-1.046,9.775-1.576l2.44-0.383l0.61-0.096l0.633-0.062l1.229-0.115
		l4.922-0.446l4.927-0.407C81.597,144.681,83.239,144.683,84.888,144.641z M84.888,144.641c-1.642,0.103-3.297,0.162-4.927,0.312
		l-4.905,0.587c-3.279,0.453-6.534,0.695-9.764,1.392c-3.227,0.615-6.505,1.165-9.691,1.834c-3.198,0.748-6.451,1.442-9.604,2.234
		l-9.548,2.555c-3.138,0.866-6.32,1.82-9.479,2.726c-1.493,0.45-3.094,1.057-4.636,1.578c-1.567,0.541-3.098,1.077-4.646,1.648
		l-4.645,1.687c-1.49,0.545-3.073,1.201-4.562,1.777l-0.042,0.016l-0.028,0.009l-0.106,0.036l0.144-0.059l-0.07,0.036l-0.062,0.032
		l-0.081,0.027L8.131,163.1l0.243-0.118l-0.104,0.071l-0.04,0.027l-0.057,0.03l-0.067,0.036l-0.061,0.032l-0.08,0.027l-0.104,0.036
		l0.109-0.044l-0.07,0.034l-0.043,0.021l-0.051,0.018l-0.227,0.08l0.126-0.052l-0.07,0.035l-0.039,0.02l-0.057,0.021l-1.609,0.61
		l0.112-0.05l-2.098,1.105l0.198-0.133l-1.708,1.49l0.249-0.315l-0.552,1.092l0.111-0.373l-0.097,0.985l0.006-0.114l0.017,2
		l-0.008-0.134l0.225,1.684l-0.038-0.18l0.325,1.05l-0.58-0.679l0.951,0.448l-0.298-0.095l2.284,0.368l-0.087-0.011l3.993,0.327
		l3.98,0.282l3.997,0.274l3.901,0.246l0.286,0.018l-0.187-0.014l57.604,4.361l28.8,2.173l28.767,2.267l-0.103-0.002l1.282-0.018
		l0.641-0.009l0.16-0.002l0.021,0h0.001h0.001c-0.037,0.002,0.083-0.004-0.083,0.004h0.003l0.005,0l0.01,0l0.04-0.003l0.08-0.006
		l0.319-0.023l-0.125,0.015l1.265-0.207l-0.249,0.065l0.753-0.271l0.377-0.136l0.313-0.129l1.482-0.608l2.963-1.217l5.906-2.455
		l11.813-4.963l11.797-4.958l11.76-5.115l-0.098,0.047l0.918-0.482l-0.316,0.242l0.672-0.696l-0.328,0.677l0.297-1.929l-0.009,0.277
		l-0.125-1.686l0.024,0.161l-0.171-0.809l0.13,0.337l-0.275-0.493l-0.038-0.068l-0.022-0.053l-0.103-0.247l0.415,0.511l-0.35-0.248
		l-0.157-0.112l-0.105-0.139l-0.348-0.459l0.288,0.267l-1.85-1.243l0.122,0.07l-0.938-0.478l-0.469-0.239l-0.117-0.06l-0.059-0.03
		l-0.015-0.008l-0.007-0.003l-0.004-0.002l-0.002-0.001c-0.063-0.029,0.084,0.039,0.068,0.031l-0.03-0.013l-0.242-0.104l-1.934-0.83
		l-1.935-0.83c-0.646-0.284-1.268-0.517-1.929-0.795l0.081,0.028l-5.147-1.657l0.163,0.037c-3.677-0.565-7.262-1.212-10.851-1.778
		l-10.925-1.263c-3.604-0.393-7.301-0.656-10.947-0.991l-10.973-0.809l-10.985-0.705l-10.996-0.527
		C99.571,144.633,92.229,144.387,84.888,144.641z"/>
</g>
<g>
	<polygon fill="#1D1D1B" points="90.956,199.507 75.564,198.082 77.148,196.643 91.312,198.213 	"/>
</g>
</svg>
