<?xml version="1.0" encoding="utf-8"?>
<!-- Generator: Adobe Illustrator 16.0.0, SVG Export Plug-In . SVG Version: 6.00 Build 0)  -->
<!DOCTYPE svg PUBLIC "-//W3C//DTD SVG 1.1//EN" "http://www.w3.org/Graphics/SVG/1.1/DTD/svg11.dtd">
<svg version="1.1" id="Layer_1" xmlns="http://www.w3.org/2000/svg" xmlns:xlink="http://www.w3.org/1999/xlink" x="0px" y="0px"
	 width="171.039px" height="167.529px" viewBox="0 0 171.039 167.529" enable-background="new 0 0 171.039 167.529"
	 xml:space="preserve">
<g>
	<path fill="#C27339" d="M45.313,54.973c4.931-26.732,15.22-41.684,31.842-41.684c16.621,0,26.91,14.951,31.837,41.684h8.396
		c-1.931-10.884-5.374-20.874-10.153-29.183C99.304,11.998,88.62,4.399,77.155,4.399c-11.467,0-22.15,7.599-30.084,21.392
		c-4.778,8.309-8.223,18.299-10.152,29.183H45.313z"/>
	<g>
		<path fill="#1D1D1B" d="M45.272,54.923c1.61-9.349,3.983-18.742,8.707-27.124c2.392-4.145,5.47-8.012,9.472-10.779
			c1.99-1.381,4.199-2.463,6.525-3.162c2.328-0.696,4.761-1,7.178-0.998c2.416,0.014,4.847,0.324,7.164,1.042
			c2.318,0.711,4.515,1.801,6.49,3.188c3.974,2.778,7.016,6.649,9.375,10.792c2.385,4.152,4.153,8.619,5.576,13.169
			c1.457,4.545,2.561,9.196,3.451,13.881l-0.219-0.182l8.396-0.021l-0.238,0.284c-2.092-11.381-5.934-22.569-12.291-32.233
			c-3.174-4.804-7.031-9.218-11.729-12.519c-4.665-3.303-10.268-5.356-15.973-5.342c-5.727-0.036-11.321,2.026-15.98,5.342
			c-4.697,3.3-8.584,7.688-11.775,12.488c-6.393,9.665-10.155,20.874-12.378,32.24l-0.105-0.125L45.272,54.923z M45.354,55.023
			l-8.436,0.057l-0.126,0.001l0.021-0.126c0.94-5.741,2.343-11.418,4.309-16.909c1.95-5.495,4.456-10.801,7.616-15.729
			c3.175-4.896,7.044-9.448,11.859-12.875c4.777-3.423,10.605-5.591,16.551-5.566c2.976-0.005,5.934,0.5,8.733,1.471
			c2.799,0.974,5.429,2.385,7.829,4.093c4.813,3.427,8.711,7.953,11.902,12.846c6.338,9.879,10.004,21.198,12.014,32.643
			l0.051,0.285l-0.289,0l-8.396-0.021l-0.184,0l-0.033-0.181c-0.842-4.68-1.896-9.327-3.303-13.871
			c-1.451-4.524-3.238-8.961-5.646-13.052c-2.415-4.065-5.491-7.811-9.403-10.441c-3.889-2.655-8.584-3.962-13.27-3.931
			c-4.688-0.005-9.359,1.342-13.222,4.002c-3.884,2.643-6.923,6.391-9.306,10.455c-2.412,4.068-4.225,8.485-5.696,12.997
			c-1.478,4.516-2.636,9.14-3.567,13.81L45.354,55.023z"/>
	</g>
</g>
<g>
	<path fill="#C27339" d="M7.475,69.823c6.777-23.468,21.558-32.384,39-33.052c12.313-0.472,48.04-0.762,59.333-0.948
		c7.565-0.125,56.854-4,56.794,31.608c-0.025,14.961-14.494,18.558-10.794,35.413c0,0-105.163,46.372-124.667,61.175
		c-11.734,8.907-17.007-9.53-24.666-16.863c-5.07-4.854,0.642-25.029,0.666-29.131C3.338,86.611,2.684,86.409,7.475,69.823z"/>
	<g>
		<path fill="#1D1D1B" d="M7.426,69.809c1.299-4.534,3.006-8.972,5.322-13.096c2.307-4.12,5.244-7.92,8.832-11.021
			c3.578-3.107,7.796-5.464,12.295-6.958c4.5-1.508,9.257-2.163,13.979-2.269c18.866-0.566,37.732-0.708,56.595-1.031
			c2.349-0.023,4.704-0.166,7.071-0.201c2.364-0.045,4.731-0.037,7.098,0.045c4.73,0.164,9.463,0.604,14.13,1.479
			c4.661,0.875,9.272,2.209,13.58,4.277c4.29,2.063,8.294,4.937,11.235,8.765c2.967,3.802,4.709,8.478,5.268,13.226
			c0.274,2.382,0.378,4.762,0.084,7.179c-0.298,2.397-1.039,4.732-2.084,6.891c-2.082,4.343-5.257,7.946-7.229,12.145
			c-0.993,2.088-1.647,4.324-1.847,6.618c-0.203,2.294,0.021,4.619,0.516,6.884l0.082,0.378l-0.354,0.156
			c-9.592,4.223-19.141,8.553-28.706,12.84c-9.563,4.292-19.118,8.605-28.624,13.025c-9.502,4.428-19.014,8.842-28.371,13.567
			c-9.369,4.698-18.709,9.467-27.814,14.638c-2.271,1.3-4.527,2.628-6.73,4.029c-1.102,0.701-2.189,1.42-3.248,2.175
			c-1.037,0.743-2.086,1.619-3.309,2.225c-1.205,0.621-2.557,1.05-3.958,1.064c-1.399,0.025-2.786-0.393-3.975-1.07
			c-2.39-1.384-4.128-3.489-5.715-5.584c-1.579-2.123-2.983-4.343-4.443-6.511c-1.464-2.16-2.956-4.314-4.782-6.123
			c-1.049-0.961-1.582-2.335-1.883-3.631c-0.3-1.319-0.404-2.654-0.434-3.98c-0.047-2.655,0.212-5.286,0.555-7.894
			c0.346-2.608,0.803-5.196,1.273-7.776c0.233-1.29,0.475-2.578,0.684-3.864c0.102-0.642,0.201-1.288,0.253-1.92
			c0.042-0.604,0.026-1.296,0.042-1.94l0.172-15.726c0.103-5.239,0.154-10.5,0.824-15.713C4.471,79.889,5.973,74.839,7.426,69.809z
			 M7.521,69.837c-1.42,5.039-2.889,10.094-3.514,15.297c-0.609,5.202-0.541,10.454-0.557,15.691l0.037,15.727
			c-0.01,0.666,0.025,1.287-0.023,1.99c-0.053,0.674-0.152,1.326-0.254,1.978c-0.207,1.301-0.445,2.59-0.674,3.88
			c-0.463,2.579-0.909,5.156-1.246,7.746c-0.333,2.587-0.58,5.191-0.525,7.78c0.031,1.292,0.139,2.583,0.426,3.822
			c0.293,1.232,0.764,2.42,1.678,3.246c1.913,1.878,3.432,4.058,4.916,6.223c1.478,2.172,2.889,4.378,4.451,6.456
			c1.562,2.053,3.278,4.072,5.467,5.317c1.085,0.616,2.296,0.983,3.525,0.966c1.229-0.008,2.446-0.382,3.567-0.955
			c1.138-0.558,2.117-1.375,3.216-2.143c1.084-0.758,2.189-1.472,3.307-2.168c2.234-1.391,4.51-2.701,6.801-3.982
			c9.178-5.099,18.574-9.765,27.998-14.362c9.451-4.542,18.865-9.158,28.345-13.64c9.477-4.487,18.964-8.953,28.482-13.351
			c9.519-4.399,19.091-8.678,28.673-12.941l-0.271,0.534c-0.512-2.337-0.752-4.76-0.539-7.171c0.206-2.41,0.896-4.772,1.928-6.941
			c2.058-4.362,5.228-7.964,7.223-12.157c1.006-2.085,1.707-4.306,1.99-6.594c0.277-2.27,0.18-4.64-0.09-6.936
			c-0.547-4.606-2.225-9.089-5.076-12.742c-2.828-3.677-6.696-6.46-10.886-8.472c-4.206-2.018-8.738-3.318-13.331-4.218
			c-4.602-0.889-9.287-1.352-13.98-1.54c-2.348-0.094-4.699-0.115-7.051-0.083c-2.35,0.021-4.705,0.152-7.072,0.163
			c-18.867,0.221-37.736,0.261-56.59,0.725c-4.701,0.073-9.398,0.685-13.867,2.146c-4.463,1.445-8.652,3.747-12.225,6.801
			c-3.579,3.048-6.527,6.801-8.855,10.888C10.588,60.903,8.852,65.317,7.521,69.837z"/>
	</g>
</g>
<g>
	<path fill="#C27339" d="M15.808,118.025c-0.228,19.025-11.385,49.737,7.333,48.978L163.9,156.49
		c13.381-0.543,0.712-28.184-0.093-48l0.093-38.334c-3.169-34.465-37.864-30.559-43.426-30.333c0,0-44.667,2.382-63.334,2.333
		C31.931,42.089,19.729,58.889,17.58,84.42L15.808,118.025z"/>
	<g>
		<path fill="#1D1D1B" d="M15.908,118.028c-0.082,5.997-1.002,11.929-1.796,17.849c-0.79,5.915-1.677,11.863-1.494,17.812
			c0.12,2.944,0.485,5.969,1.837,8.534c0.678,1.267,1.643,2.364,2.859,3.08c1.211,0.727,2.625,1.076,4.057,1.172
			c0.715,0.047,1.449,0.041,2.162-0.026l2.234-0.186l4.469-0.373l8.938-0.746l35.758-2.91c11.92-0.962,23.842-1.905,35.768-2.787
			l35.772-2.702l17.886-1.351c0.605-0.065,1.242-0.216,1.773-0.475c0.535-0.264,0.992-0.629,1.367-1.094
			c0.758-0.93,1.137-2.263,1.322-3.631c0.34-2.779,0.021-5.74-0.388-8.648c-0.878-5.844-2.28-11.667-3.432-17.552
			c-0.581-2.944-1.12-5.904-1.521-8.898c-0.199-1.497-0.363-3.001-0.477-4.514c-0.053-0.772-0.105-1.48-0.116-2.312l0.018-2.242
			l0.507-35.874l0.002,0.045c-0.395-4.559-1.402-9.098-3.375-13.227c-1.945-4.132-4.936-7.764-8.662-10.418
			c-3.715-2.677-8.059-4.408-12.532-5.418c-4.485-1.011-9.112-1.345-13.717-1.229l-27.722,1.508
			c-9.244,0.522-18.49,1.005-27.748,1.365c-4.622,0.156-9.283,0.236-13.892,0.261c-4.532,0.113-9.083,0.811-13.321,2.36
			c-4.25,1.506-8.169,3.909-11.398,7.055c-3.246,3.137-5.775,6.984-7.671,11.111c-1.896,4.139-3.161,8.562-4.04,13.054
			c-0.434,2.25-0.762,4.522-1.002,6.807c-0.221,2.248-0.363,4.599-0.549,6.894l-1.037,13.849L15.908,118.028z M15.707,118.021
			l0.623-13.872l0.425-13.881l0.103-3.47c0.045-1.14,0.037-2.336,0.16-3.495c0.205-2.322,0.498-4.64,0.901-6.942
			c0.797-4.604,2.094-9.147,4.013-13.449c1.928-4.288,4.535-8.333,7.93-11.667c3.377-3.341,7.509-5.923,11.973-7.536
			c4.474-1.611,9.198-2.312,13.908-2.41c4.646,0.005,9.242-0.048,13.873-0.149c18.5-0.294,36.994-0.942,55.498-1.85
			c4.641-0.113,9.318,0.187,13.875,1.197c4.543,1.006,8.982,2.748,12.805,5.477c3.83,2.708,6.924,6.43,8.98,10.643
			c2.075,4.217,3.157,8.852,3.613,13.493l0.002,0.019v0.028l0.333,35.875l0.007,2.243c0.014,0.662,0.07,1.447,0.125,2.165
			c0.118,1.468,0.287,2.936,0.492,4.401c0.408,2.932,0.957,5.854,1.551,8.772c1.178,5.842,2.617,11.65,3.553,17.632
			c0.432,2.995,0.807,6.041,0.445,9.217c-0.213,1.569-0.615,3.252-1.74,4.681c-0.555,0.704-1.289,1.299-2.101,1.688
			c-0.817,0.39-1.658,0.586-2.537,0.675l-17.89,1.321l-35.777,2.642c-11.924,0.899-23.854,1.738-35.784,2.557l-35.793,2.434
			l-8.95,0.591l-4.475,0.295l-2.236,0.147c-0.777,0.059-1.544,0.043-2.318-0.025c-1.54-0.137-3.104-0.551-4.448-1.399
			c-1.353-0.834-2.401-2.093-3.099-3.474c-1.39-2.798-1.67-5.899-1.733-8.891C12.073,141.646,15.375,129.981,15.707,118.021z"/>
	</g>
</g>
<g>
	<path fill="#C27339" d="M133.249,49.498c-2.126-9.295-4.328-17.849-8.53-25.153c-8.324-14.476-20.537-23.451-32.57-23.451
		c-12.035,0-24.248,8.976-32.574,23.451c-4.73,8.226-7.196,18.031-9.276,28.702c-2.677,1.476-4.49,4.321-4.49,7.594
		c0,4.786,3.88,8.666,8.667,8.666c4.786,0,8.666-3.88,8.666-8.666c0-3.104-1.636-5.817-4.086-7.348
		c5.293-26.997,16.002-43.068,33.094-43.068c16.597,0,27.174,15.212,32.617,40.752c-1.91,1.59-3.128,3.984-3.128,6.664
		c0,4.786,3.88,8.666,8.667,8.666c4.786,0,8.666-3.88,8.666-8.666C138.971,53.888,136.583,50.704,133.249,49.498z"/>
	<g>
		<path fill="#1D1D1B" d="M133.151,49.52c-1.478-5.678-2.929-11.378-5.08-16.807c-2.054-5.458-5.05-10.501-8.644-15.066
			c-3.607-4.527-7.815-8.63-12.764-11.574c-4.906-2.95-10.609-4.676-16.27-4.218c-5.672,0.391-11.097,2.82-15.721,6.208
			c-4.682,3.362-8.669,7.687-11.999,12.445c-3.364,4.755-5.969,10.011-7.793,15.571c-1.841,5.548-3.162,11.271-4.282,17.025
			l-0.027,0.141l-0.126,0.07c-1.591,0.882-2.879,2.297-3.602,3.962c-0.731,1.655-0.882,3.574-0.45,5.32
			c0.424,1.759,1.456,3.359,2.866,4.485c1.413,1.124,3.192,1.76,4.986,1.779c1.794,0.036,3.579-0.536,5.005-1.601
			c1.433-1.053,2.5-2.585,2.981-4.281c0.479-1.693,0.406-3.546-0.244-5.167c-0.632-1.631-1.828-3.02-3.308-3.923l-0.405-0.248
			l0.088-0.484c0.866-4.762,1.999-9.484,3.45-14.124c1.461-4.632,3.268-9.188,5.691-13.458c2.416-4.251,5.473-8.268,9.465-11.305
			c3.959-3.059,8.926-4.888,13.943-5.077c4.99-0.248,10.129,0.979,14.391,3.663c4.285,2.655,7.651,6.484,10.287,10.621
			c2.659,4.152,4.605,8.674,6.194,13.271c1.581,4.606,2.79,9.316,3.761,14.062l0.099,0.48l-0.368,0.3
			c-1.336,1.086-2.303,2.623-2.694,4.306c-0.408,1.681-0.245,3.506,0.468,5.098c0.705,1.596,1.961,2.956,3.512,3.794
			c1.559,0.846,3.365,1.16,5.145,0.875c3.549-0.508,6.565-3.63,6.905-7.296c0.204-1.815-0.213-3.699-1.185-5.272
			c-0.96-1.58-2.466-2.832-4.213-3.503l-0.05-0.02L133.151,49.52z M133.336,49.426c1.791,0.623,3.387,1.838,4.449,3.439
			c1.086,1.608,1.617,3.6,1.475,5.558c-0.121,1.963-0.932,3.883-2.249,5.372c-1.317,1.491-3.149,2.53-5.126,2.893
			c-1.951,0.374-4.084,0.083-5.877-0.842c-1.807-0.913-3.305-2.44-4.182-4.284c-0.885-1.842-1.144-3.982-0.709-5.995
			c0.432-2.015,1.557-3.874,3.137-5.205l-0.27,0.781c-2.096-9.316-5.026-18.588-10.09-26.577c-2.539-3.955-5.73-7.526-9.676-9.948
			c-3.926-2.446-8.583-3.545-13.211-3.305c-4.623,0.161-9.133,1.752-12.836,4.555c-3.729,2.777-6.683,6.554-9.051,10.635
			c-4.708,8.242-7.406,17.566-9.376,26.925l-0.317-0.732c1.712,1.104,3.061,2.759,3.746,4.668c0.705,1.903,0.732,4.023,0.138,5.94
			c-0.601,1.918-1.841,3.62-3.474,4.767c-1.625,1.16-3.636,1.751-5.615,1.667c-4.003-0.085-7.648-3.115-8.514-6.975
			c-0.455-1.92-0.271-3.957,0.531-5.752c0.795-1.792,2.192-3.301,3.908-4.234l-0.152,0.21c1.133-5.762,2.344-11.531,4.158-17.146
			c0.917-2.801,1.936-5.579,3.184-8.264c1.242-2.693,2.729-5.262,4.354-7.737c3.266-4.936,7.229-9.48,12.005-13.103
			c4.779-3.56,10.469-6.194,16.565-6.669c6.112-0.468,12.158,1.485,17.244,4.608c5.113,3.146,9.473,7.369,13.021,12.124
			c1.781,2.376,3.385,4.877,4.818,7.468c1.439,2.603,2.615,5.333,3.61,8.115C130.891,37.956,132.189,43.686,133.336,49.426z"/>
	</g>
</g>
</svg>
