<?xml version="1.0" encoding="utf-8"?>
<!-- Generator: Adobe Illustrator 16.0.0, SVG Export Plug-In . SVG Version: 6.00 Build 0)  -->
<!DOCTYPE svg PUBLIC "-//W3C//DTD SVG 1.1//EN" "http://www.w3.org/Graphics/SVG/1.1/DTD/svg11.dtd">
<svg version="1.1" id="Layer_1" xmlns="http://www.w3.org/2000/svg" xmlns:xlink="http://www.w3.org/1999/xlink" x="0px" y="0px"
	 width="273.164px" height="176.797px" viewBox="0 0 273.164 176.797" enable-background="new 0 0 273.164 176.797"
	 xml:space="preserve">
<g>
	<path fill="#C27339" d="M221.832,106.63c0,0,24.647,6.43,26.954,7.19c2.3,0.761,7.158,1.031,9.647,2.013
		c2.487,0.979,7.908,5.92,9.645,10.442c1.733,4.524,1.417,7.039,1.417,7.039s1.885,1.367,2.174,3.493
		c0.289,2.122,0.289,2.122,0.289,2.122s0.633,7.202,0.505,9.938c-0.129,2.732-2.414,9.772-7.037,12.679
		c-4.62,2.905-22.232,12.467-46.453,13.441c-24.224,0.971-103.59,1.412-110.2,1.044S9.149,172.78,2.207,162.099
		c-3.271-5.03-1.111-5.329-0.256-10.979c0,0,1.759-16.555,2.792-17.761c1.034-1.208,1.646-1.808,1.646-1.808
		s-1.447-10.62-0.302-22.362c1.142-11.742,10.263-35.48,10.926-37.128c0.663-1.65,1.95-4.109,1.95-4.109s1.459-6.032,0.689-6.287
		c-0.768-0.251-4.482-0.038-4.374-2.351c0.109-2.314,2.724-8.07,2.983-13.538c0.26-5.467-0.359-8.873,1.247-9.84
		c1.607-0.965,6.11-1.347,6.11-1.347s0.874-2.059,3.515-4.23c2.638-2.172,6.062-4.515,6.062-4.515s3.432-6.554,6.251-8.505
		c2.823-1.951,7.076-5.299,11.415-6.321C57.2,9.994,66.839,8.208,73.967,5.866c7.13-2.343,18.52-4.033,20.265-3.936
		c1.753,0.097,3.279,0.815,4.681,0.051c1.4-0.764,12.604-2.676,17.613,2.664c5.012,5.34,3.419,10.099,4.055,13.086
		c0.641,2.986,2.838,10.065,4.17,10.772c1.332,0.709,2.981,2.905,2.942,3.749c-0.041,0.839-1.104,2.678-0.774,3.962
		c0.33,1.281,1.285,5.761,1.186,7.864c-0.102,2.104-0.2,4.206,1.101,5.543c1.303,1.337,4.84,8.914,7.669,10.967
		c2.824,2.055,12.472,8.281,13.405,9.178c0.933,0.895,15.688,10.359,17,11.485c1.311,1.127,10.252,5.841,15.083,6.742
		c4.832,0.902,14.443,3.752,18.856,5.263c4.41,1.512,11.834,5.297,15.037,7.583C219.46,103.128,221.832,106.63,221.832,106.63z"/>
	<g>
		<path d="M221.891,106.542l14.384,3.63l14.37,3.703c2.417,0.442,4.896,0.616,7.365,1.324c0.611,0.174,1.249,0.474,1.792,0.812
			c0.549,0.337,1.066,0.708,1.566,1.098c0.998,0.781,1.927,1.635,2.803,2.542c1.732,1.823,3.324,3.833,4.34,6.229
			c0.476,1.179,0.867,2.382,1.159,3.623c0.276,1.258,0.5,2.475,0.414,3.885l-0.239-0.553c0.781,0.608,1.377,1.299,1.848,2.148
			c0.229,0.421,0.409,0.879,0.518,1.36c0.104,0.515,0.135,0.88,0.204,1.325l0.181,1.311l0.113,1.292l0.202,2.583
			c0.12,1.727,0.235,3.447,0.251,5.206c0.023,0.869-0.082,1.855-0.279,2.711c-0.189,0.877-0.441,1.731-0.737,2.568
			c-0.594,1.673-1.362,3.286-2.347,4.786c-0.984,1.494-2.207,2.886-3.756,3.92c-2.985,1.897-6.074,3.44-9.244,4.877
			c-12.674,5.669-26.516,8.754-40.384,9.037c-6.896,0.252-13.786,0.382-20.679,0.48l-20.672,0.246
			c-13.781,0.148-27.562,0.113-41.344,0.095c-6.892-0.022-13.781-0.049-20.677-0.149c-3.454-0.023-6.907-0.27-10.341-0.413
			l-10.324-0.52c-13.766-0.702-27.521-1.604-41.252-2.85c-6.865-0.613-13.724-1.323-20.56-2.245
			c-6.829-0.949-13.662-2.009-20.339-3.895c-1.664-0.489-3.316-1.042-4.91-1.789c-0.795-0.376-1.577-0.804-2.299-1.361
			c-0.359-0.28-0.705-0.594-1.001-0.975c-0.302-0.409-0.485-0.732-0.731-1.129c-0.444-0.761-0.863-1.559-1.107-2.461
			c-0.262-0.899-0.217-1.908,0.006-2.779c0.469-1.729,1.017-3.285,1.246-4.97c0.369-3.377,0.749-6.842,1.211-10.253
			c0.233-1.712,0.479-3.421,0.798-5.135c0.081-0.429,0.169-0.857,0.271-1.29c0.118-0.445,0.186-0.84,0.45-1.374
			c0.026-0.056,0.115-0.181,0.157-0.229l0.104-0.123l0.214-0.248l0.432-0.492c0.294-0.329,0.582-0.644,0.906-0.972l-0.172,0.503
			c-0.682-5.493-0.909-10.991-0.767-16.508c0.097-2.757,0.229-5.505,0.641-8.272c0.42-2.747,1.037-5.438,1.716-8.107
			c1.372-5.335,3.022-10.579,4.776-15.783c0.88-2.602,1.791-5.191,2.735-7.771c0.48-1.297,0.934-2.561,1.471-3.88
			c0.555-1.302,1.16-2.532,1.794-3.773l-0.077,0.205c0.374-1.667,0.762-3.433,0.869-5.034c0.008-0.188,0.006-0.381-0.01-0.498
			c0-0.067-0.031-0.082,0.025,0.015c0.026,0.053,0.065,0.103,0.111,0.14c0.081,0.083,0.17,0.141,0.313,0.178l-0.077-0.021l-0.012,0
			c-0.31-0.052-0.811-0.09-1.26-0.153c-0.465-0.063-0.946-0.147-1.445-0.304c-0.494-0.158-1.034-0.385-1.518-0.857
			c-0.497-0.463-0.774-1.245-0.734-1.872c0.008-0.209,0.012-0.23,0.027-0.392c0.017-0.141,0.035-0.278,0.055-0.394
			c0.04-0.244,0.09-0.475,0.141-0.704c0.21-0.907,0.467-1.756,0.716-2.605c0.503-1.692,0.995-3.358,1.37-5.039
			c0.377-1.689,0.631-3.345,0.669-5.062c0.067-1.73,0.032-3.469,0.058-5.268c0.028-0.906,0.036-1.82,0.301-2.859
			c0.141-0.51,0.379-1.115,0.908-1.605c0.14-0.125,0.256-0.213,0.445-0.328l0.145-0.081l0.205-0.103
			c0.253-0.118,0.483-0.207,0.719-0.288c1.853-0.591,3.6-0.809,5.423-1.003l-0.826,0.599c0.573-1.202,1.258-2.071,2.046-2.959
			c0.773-0.865,1.685-1.629,2.541-2.305c1.739-1.379,3.508-2.669,5.325-3.934l-0.327,0.367c1.273-2.35,2.621-4.595,4.338-6.719
			c0.436-0.527,0.896-1.043,1.434-1.531c0.256-0.24,0.579-0.49,0.863-0.69l0.789-0.556c1.054-0.751,2.123-1.518,3.23-2.247
			c2.213-1.446,4.574-2.817,7.283-3.546c2.61-0.625,5.115-1.116,7.66-1.678C64.972,7.3,69.95,6.125,74.89,4.485
			c5.08-1.478,10.21-2.457,15.406-3.21c0.65-0.09,1.304-0.173,1.965-0.245c0.686-0.061,1.27-0.154,2.131-0.116
			c1.438,0.102,2.744,0.544,3.567,0.339c0.104-0.021,0.199-0.056,0.295-0.089c0.099-0.045,0.129-0.069,0.443-0.208
			c0.403-0.16,0.733-0.242,1.079-0.328c0.681-0.162,1.348-0.276,2.018-0.369c1.339-0.182,2.682-0.266,4.03-0.259
			c2.687,0.028,5.442,0.387,8.017,1.549c1.279,0.588,2.487,1.393,3.485,2.481c0.899,0.972,1.774,2.126,2.414,3.357
			c0.657,1.238,1.114,2.595,1.351,3.968c0.243,1.372,0.261,2.751,0.277,4.036c0.012,0.641,0.025,1.264,0.105,1.82
			c0.08,0.522,0.255,1.202,0.405,1.798c0.319,1.234,0.684,2.465,1.081,3.679c0.4,1.211,0.835,2.417,1.348,3.54
			c0.25,0.539,0.562,1.13,0.828,1.421c0.081,0.068-0.009,0.017,0.192,0.136c0.121,0.066,0.325,0.209,0.49,0.33
			c0.3,0.233,0.571,0.479,0.824,0.735c0.5,0.518,0.943,1.061,1.328,1.69c0.191,0.321,0.375,0.638,0.515,1.084
			c0.031,0.134,0.066,0.229,0.082,0.399l0.013,0.251l-0.01,0.124l-0.007,0.061c-0.004,0.062-0.041,0.238-0.064,0.35l-0.078,0.281
			c-0.215,0.688-0.444,1.254-0.579,1.812c-0.069,0.274-0.113,0.539-0.113,0.761c0.001,0.11,0.008,0.212,0.026,0.296
			c0.016,0.097,0.074,0.309,0.106,0.458c0.296,1.295,0.543,2.581,0.749,3.889c0.189,1.306,0.393,2.634,0.311,4.05
			c-0.065,1.279-0.116,2.542,0.208,3.576c0.085,0.253,0.19,0.489,0.32,0.703c0.136,0.215,0.28,0.362,0.54,0.668
			c0.487,0.625,0.792,1.158,1.144,1.733c1.339,2.253,2.575,4.521,4.048,6.585c0.753,1.033,1.492,1.977,2.499,2.639
			c1.044,0.746,2.119,1.476,3.191,2.205l6.457,4.37c1.081,0.749,2.137,1.444,3.226,2.295c0.93,0.788,2.062,1.495,3.117,2.229
			c4.298,2.913,8.651,5.738,12.945,8.704l0.809,0.585l0.375,0.3l0.373,0.26c0.521,0.343,1.078,0.668,1.637,0.985
			c1.119,0.631,2.266,1.228,3.423,1.797c2.317,1.13,4.685,2.187,7.117,2.976c0.608,0.194,1.22,0.368,1.833,0.5
			c0.619,0.124,1.28,0.257,1.913,0.403c1.276,0.29,2.539,0.613,3.798,0.948c2.516,0.683,5.012,1.419,7.498,2.189
			c2.483,0.787,4.965,1.542,7.41,2.502c2.424,0.983,4.769,2.121,7.076,3.329c2.297,1.228,4.586,2.482,6.703,4.027
			C218.658,102.458,220.396,104.419,221.891,106.542z M221.749,106.686c-1.52-2.084-3.299-4.019-5.369-5.544
			c-2.111-1.483-4.418-2.696-6.723-3.874c-2.316-1.16-4.673-2.251-7.083-3.178c-2.409-0.898-4.919-1.613-7.402-2.351
			c-2.491-0.723-4.993-1.412-7.507-2.045c-1.254-0.32-2.512-0.629-3.773-0.902c-0.635-0.14-1.248-0.257-1.904-0.382
			c-0.66-0.135-1.3-0.311-1.932-0.505c-2.521-0.792-4.922-1.838-7.284-2.961c-1.179-0.566-2.345-1.159-3.495-1.792
			c-0.575-0.319-1.145-0.644-1.713-1.008c-0.142-0.093-0.283-0.187-0.428-0.293l-0.39-0.304l-0.776-0.55
			c-4.285-2.899-8.68-5.691-13.014-8.567c-1.081-0.741-2.174-1.397-3.239-2.274c-0.966-0.74-2.085-1.471-3.148-2.19l-6.497-4.305
			c-1.083-0.722-2.165-1.441-3.242-2.195l-0.406-0.289c-0.146-0.113-0.298-0.226-0.43-0.346c-0.276-0.235-0.518-0.487-0.756-0.739
			c-0.466-0.509-0.882-1.04-1.277-1.579c-1.569-2.156-2.845-4.453-4.182-6.651c-0.326-0.532-0.691-1.117-1.008-1.514
			c-0.16-0.188-0.472-0.509-0.683-0.846c-0.212-0.338-0.376-0.698-0.499-1.06c-0.46-1.464-0.367-2.857-0.325-4.159
			c0.063-1.184-0.132-2.446-0.329-3.704c-0.21-1.256-0.466-2.521-0.761-3.757l-0.118-0.489c-0.053-0.234-0.068-0.457-0.071-0.671
			c-0.001-0.428,0.068-0.809,0.151-1.165c0.167-0.708,0.422-1.352,0.586-1.906l0.051-0.19c0.004-0.047,0.016-0.028,0.023-0.128
			c0.018-0.124-0.001-0.028,0.003-0.049c0.007,0.007-0.017-0.053-0.018-0.077c-0.054-0.176-0.189-0.432-0.335-0.664
			c-0.297-0.478-0.684-0.945-1.09-1.356c-0.205-0.205-0.419-0.392-0.634-0.556c-0.101-0.066-0.156-0.12-0.319-0.21
			c-0.085-0.037-0.443-0.274-0.587-0.442c-0.606-0.68-0.865-1.278-1.181-1.902c-0.579-1.236-1.036-2.476-1.463-3.727
			c-0.424-1.251-0.81-2.509-1.153-3.788c-0.171-0.662-0.337-1.239-0.466-1.999c-0.111-0.73-0.127-1.411-0.146-2.067
			c-0.01-2.6-0.278-4.982-1.44-7.108c-0.567-1.073-1.271-2.011-2.134-2.945c-0.764-0.829-1.754-1.503-2.834-1.995
			c-2.18-0.987-4.695-1.337-7.186-1.353c-1.25-0.004-2.507,0.077-3.742,0.247c-0.617,0.085-1.231,0.193-1.815,0.333
			c-0.284,0.069-0.585,0.154-0.785,0.235c0.016-0.014-0.239,0.119-0.438,0.207c-0.209,0.08-0.42,0.151-0.635,0.196
			c-0.866,0.185-1.654,0.077-2.318-0.028c-0.686-0.111-1.249-0.226-1.844-0.263c-0.438-0.025-1.149,0.051-1.755,0.114
			c-0.631,0.069-1.268,0.151-1.902,0.24c-5.085,0.744-10.19,1.73-15.091,3.168c-4.926,1.646-10.077,2.875-15.147,3.985
			c-2.529,0.562-5.124,1.08-7.566,1.668c-2.325,0.631-4.549,1.866-6.674,3.251c-1.066,0.696-2.113,1.439-3.178,2.191l-0.807,0.563
			c-0.247,0.174-0.439,0.32-0.66,0.522c-0.428,0.383-0.838,0.835-1.231,1.308c-1.564,1.912-2.922,4.135-4.128,6.345l-0.125,0.229
			l-0.202,0.139c-1.772,1.222-3.539,2.5-5.227,3.827c-0.859,0.673-1.628,1.315-2.317,2.076c-0.672,0.729-1.325,1.619-1.696,2.389
			l-0.261,0.543l-0.566,0.056c-1.675,0.165-3.45,0.401-4.959,0.883c-0.854,0.319-0.956,0.355-1.178,1.068
			c-0.181,0.671-0.221,1.536-0.242,2.387c-0.033,1.725-0.005,3.512-0.082,5.304c-0.047,1.809-0.335,3.653-0.736,5.4
			c-0.4,1.758-0.916,3.473-1.425,5.156c-0.251,0.84-0.505,1.679-0.696,2.488c-0.046,0.201-0.09,0.401-0.121,0.592l-0.038,0.26
			c-0.01,0.058-0.024,0.257-0.022,0.268c-0.001,0.254,0.048,0.369,0.188,0.521c0.304,0.323,1.113,0.551,1.91,0.651
			c0.423,0.063,0.803,0.082,1.362,0.176l0.15,0.033l0.082,0.023c0.192,0.061,0.328,0.151,0.455,0.263
			c0.078,0.082,0.15,0.175,0.21,0.272c0.152,0.294,0.177,0.497,0.197,0.649c0.038,0.321,0.03,0.571,0.021,0.822
			c-0.145,1.918-0.539,3.606-0.943,5.372l-0.023,0.102l-0.054,0.104c-0.622,1.192-1.237,2.416-1.768,3.63
			c-0.507,1.212-0.993,2.523-1.476,3.79c-0.963,2.557-1.894,5.126-2.793,7.706c-1.793,5.161-3.481,10.361-4.888,15.626
			c-0.696,2.632-1.328,5.283-1.761,7.949c-0.42,2.65-0.582,5.385-0.701,8.099c-0.192,5.433-0.013,10.916,0.604,16.303l0.035,0.298
			l-0.207,0.205c-0.284,0.282-0.581,0.6-0.864,0.911l-0.425,0.474l-0.21,0.24l-0.106,0.122c-0.025,0.036,0-0.002-0.024,0.038
			c-0.126,0.235-0.249,0.691-0.347,1.077c-0.1,0.405-0.188,0.819-0.271,1.236c-0.328,1.67-0.588,3.37-0.836,5.069
			c-0.496,3.412-0.899,6.793-1.314,10.259c-0.252,1.737-0.865,3.446-1.312,5.034c-0.204,0.795-0.243,1.561-0.034,2.329
			c0.197,0.767,0.573,1.517,0.99,2.243c0.202,0.337,0.45,0.762,0.66,1.046c0.229,0.303,0.522,0.578,0.839,0.829
			c0.638,0.503,1.371,0.918,2.128,1.284c1.52,0.732,3.139,1.293,4.773,1.791c3.277,0.988,6.645,1.701,10.021,2.335
			c3.38,0.629,6.78,1.156,10.188,1.631c6.817,0.944,13.666,1.678,20.522,2.316c13.719,1.232,27.475,2.028,41.234,2.674l10.323,0.414
			c3.451,0.102,6.877,0.305,10.314,0.286c6.884,0.017,13.773-0.043,20.662-0.102l41.328-0.507
			c13.775-0.175,27.555-0.426,41.311-0.796c13.689-0.215,27.291-3.187,39.807-8.71c3.109-1.389,6.205-2.926,9.045-4.712
			c2.653-1.798,4.442-4.827,5.602-7.926c0.558-1.583,1.023-3.173,0.991-4.801c0.005-1.686-0.089-3.407-0.188-5.117l-0.172-2.57
			l-0.099-1.284l-0.158-1.25c-0.058-0.407-0.106-0.901-0.173-1.23c-0.076-0.36-0.209-0.714-0.387-1.051
			c-0.349-0.666-0.901-1.308-1.474-1.762l-0.266-0.21l0.025-0.343c0.079-1.068-0.1-2.329-0.353-3.484
			c-0.262-1.175-0.627-2.339-1.064-3.463c-0.896-2.193-2.402-4.169-4.055-5.941c-0.836-0.885-1.727-1.722-2.672-2.479
			c-0.473-0.377-0.961-0.735-1.463-1.052c-0.504-0.323-0.992-0.566-1.568-0.748c-2.293-0.709-4.787-0.946-7.234-1.438l-14.349-3.992
			l-14.378-3.925L221.749,106.686z"/>
	</g>
</g>
<g>
	<path fill="#C27339" d="M128.506,57.521c11.274-8.007-30.032,0.469-27.895,4.257c3.847,6.825,84.419,61.539,109.352,58.751
		c24.934-2.789,17.222-12.826,11.869-13.899C199.98,102.248,121.814,62.271,128.506,57.521z"/>
	<path fill="none" stroke="#000000" stroke-width="0.8048" stroke-miterlimit="10" stroke-dasharray="7.9894,1.5979" d="
		M128.506,57.521c11.274-8.007-30.032,0.469-27.895,4.257c3.847,6.825,84.419,61.539,109.352,58.751
		c24.934-2.789,17.222-12.826,11.869-13.899C199.98,102.248,121.814,62.271,128.506,57.521z"/>
</g>
<path fill="#FFFFFF" stroke="#000000" stroke-width="1.5479" stroke-miterlimit="10" d="M212.034,107.703
	c0,0,2.558-7.448,2.144-9.579c-0.42-2.13-5.905-4.264-6.296-4.286c-0.39-0.021-1.482,1.043-1.482,1.043s1.572-0.193,1.5,1.35
	c-0.074,1.541-1.286,5.126-1.464,6.103c-0.173,0.975-0.899,5.291-0.694,6.426c0.209,1.135,2.093,2.505,3.695,1.611
	C211.037,109.476,212.034,107.703,212.034,107.703z"/>
<path fill="#FFFFFF" stroke="#000000" stroke-width="1.5479" stroke-miterlimit="10" d="M191.191,103.172
	c0,0,2.916-3.914,3.438-6.696c0.52-2.781,1.705-5.81,0.986-7.112c-0.717-1.305-3.344-0.749-3.836-1.338
	c-0.491-0.591-2.551-0.983-2.967-0.444c-0.418,0.535-2.768,8.98-2.807,9.822c-0.04,0.84-0.433,3.63-0.078,4.352
	c0.356,0.723,1.155,3.016,2.862,2.69C190.498,104.118,191.191,103.172,191.191,103.172z"/>
<path fill="#FFFFFF" stroke="#000000" stroke-width="1.5479" stroke-miterlimit="10" d="M172.156,96.212
	c0,0,5.724-5.587,6.633-8.347c0.914-2.76-0.254-2.825-1.515-3.596c-1.263-0.774-3.688-1.753-4.117-0.933
	c-0.429,0.819-4.475,6.638-4.915,7.738c-0.443,1.099-1.296,2.599-1.109,4.154c0.186,1.555,2.32,3.221,3.264,2.429
	C171.346,96.869,172.156,96.212,172.156,96.212z"/>
<path fill="#FFFFFF" stroke="#000000" stroke-width="1.5479" stroke-miterlimit="10" d="M154.583,85.818c0,0,7.111-7.476,7.683-8.43
	c0.562-0.95-0.41-2.409-1.434-2.748c-1.022-0.341-3.255-2.569-4.311-2.208c-1.062,0.363-6.422,9.34-6.585,10.035
	c-0.165,0.695-0.764,2.345,0.485,3.398C151.672,86.922,154.583,85.818,154.583,85.818z"/>
<path fill="#FFFFFF" stroke="#000000" stroke-width="1.5479" stroke-miterlimit="10" d="M136.474,75.815
	c0,0,5.923-7.119,7.111-10.146c1.183-3.025-0.626-3.268-1.513-3.738s-4.105-3.884-4.787-3.216
	c-0.682,0.664-5.271,9.824-5.729,11.207c-0.458,1.379-1.184,5.695,0.598,6.496C133.936,77.223,136.474,75.815,136.474,75.815z"/>
<path fill="#FFFFFF" stroke="#000000" stroke-width="1.5479" stroke-miterlimit="10" d="M119.725,64.485
	c0.908,0.05,9.207-2.298,11.056-2.899c1.847-0.6,4.888-1.697,5.448-2.508c0.561-0.812-2.817-6.341-3.561-7.084
	c-0.747-0.746-3.092-0.594-4.162,0.048c-1.073,0.645-7.828,3.362-9.34,5.104c-1.516,1.743-3.264,3.052-2.957,4.756
	C116.52,63.604,119.725,64.485,119.725,64.485z"/>
<polygon stroke="#000000" stroke-width="1.5479" stroke-miterlimit="10" points="97.842,26.779 103.789,26.907 106.859,21.406 
	103.992,15.776 98.052,15.646 94.977,21.148 "/>
<polygon stroke="#000000" stroke-width="1.5479" stroke-miterlimit="10" points="98.209,45.279 104.148,45.557 107.338,40.132 
	104.593,34.432 98.653,34.157 95.463,39.577 "/>
<g>
	<path fill="#C27339" d="M8.583,132.602c-1.673-1.195-6.419,22.364-4.838,25.753c5.406,11.584,89.417,15.39,156.665,14.889
		c36.133-0.271,67.253-0.596,79.14-4.29c36.218-11.268,28.032-16.635,28.775-19.854s2.385-17.72-1.438-13.567
		C246.495,157.686,48.028,160.77,8.583,132.602z"/>
	<g>
		<path d="M8.558,132.703l-0.017-0.011c-0.134-0.09-0.229,0.029-0.354,0.166c-0.112,0.137-0.203,0.301-0.289,0.465
			c-0.17,0.332-0.312,0.682-0.444,1.034c-0.264,0.708-0.485,1.432-0.695,2.16c-0.413,1.458-0.767,2.934-1.091,4.415
			c-0.644,2.964-1.175,5.955-1.574,8.96c-0.195,1.503-0.36,3.011-0.439,4.521c-0.039,0.754-0.057,1.51-0.018,2.257
			c0.052,0.755,0.106,1.48,0.556,2.068c0.841,1.194,2.186,1.989,3.515,2.656c1.352,0.658,2.773,1.176,4.211,1.638
			c5.777,1.796,11.782,2.798,17.774,3.679c6.004,0.855,12.04,1.487,18.084,2.019c12.092,1.019,24.21,1.762,36.339,2.275
			c12.131,0.496,24.264,0.967,36.406,1.196c12.14,0.292,24.285,0.475,36.431,0.505c12.148,0.025,24.3,0.026,36.444-0.203
			c12.137-0.231,24.307-0.545,36.344-2.006c3-0.396,6-0.865,8.896-1.667c2.883-0.879,5.77-1.856,8.621-2.872
			c2.852-1.023,5.68-2.112,8.445-3.328c2.758-1.223,5.484-2.554,7.948-4.229c1.22-0.841,2.386-1.78,3.258-2.901
			c0.89-1.123,1.307-2.429,1.062-3.817c-0.08-0.707-0.354-1.419-0.298-2.396c0.024-0.265,0.087-0.465,0.113-0.625l0.101-0.544
			l0.172-1.107c0.211-1.485,0.367-2.986,0.471-4.483c0.1-1.497,0.156-3.001,0.074-4.467c-0.044-0.725-0.123-1.465-0.314-2.072
			c-0.078-0.293-0.277-0.547-0.26-0.501c0.025,0.013,0.07,0.002-0.002,0.023c-0.06,0.022-0.17,0.086-0.277,0.181
			c-0.109,0.087-0.223,0.205-0.334,0.323c-0.148,0.157-0.26,0.279-0.42,0.434c-0.297,0.292-0.592,0.554-0.903,0.806
			c-0.617,0.507-1.269,0.954-1.933,1.371c-1.332,0.829-2.725,1.521-4.137,2.146c-5.676,2.45-11.625,3.967-17.578,5.297
			c-5.967,1.305-11.986,2.281-18.019,3.13c-24.148,3.29-48.501,4.531-72.827,4.736c-24.327,0.194-48.686-0.715-72.881-3.353
			c-12.089-1.345-24.151-3.055-36.05-5.6c-5.94-1.3-11.861-2.727-17.646-4.621C19.278,138.452,13.547,136.213,8.558,132.703z
			 M8.642,132.52c4.991,3.46,10.733,5.65,16.486,7.514c5.786,1.823,11.692,3.263,17.651,4.407
			c11.919,2.301,23.982,3.769,36.068,4.834c12.091,1.034,24.208,1.753,36.336,2.145c12.128,0.379,24.263,0.594,36.397,0.456
			c12.134-0.112,24.262-0.552,36.373-1.231c12.109-0.698,24.205-1.708,36.217-3.306c6.005-0.801,11.985-1.771,17.908-2.984
			c5.904-1.242,11.811-2.681,17.332-4.989c1.372-0.586,2.715-1.235,3.971-1.997c0.627-0.383,1.235-0.79,1.797-1.241
			c0.281-0.221,0.557-0.462,0.805-0.7l0.378-0.379c0.15-0.156,0.302-0.312,0.491-0.461c0.183-0.148,0.395-0.296,0.691-0.406
			c0.28-0.112,0.736-0.154,1.104,0.041c0.706,0.415,0.812,0.938,0.973,1.346c0.25,0.849,0.309,1.636,0.352,2.424
			c0.068,1.569-0.012,3.105-0.132,4.638c-0.125,1.531-0.302,3.052-0.535,4.571l-0.192,1.141l-0.113,0.575
			c-0.043,0.214-0.092,0.379-0.101,0.494c-0.058,0.552,0.165,1.317,0.265,2.114c0.113,0.802,0.089,1.689-0.166,2.504
			c-0.247,0.818-0.681,1.546-1.182,2.182c-1.016,1.269-2.268,2.235-3.551,3.101c-2.589,1.709-5.368,3.016-8.174,4.219
			c-2.811,1.193-5.67,2.251-8.549,3.243c-2.885,0.986-5.768,1.918-8.705,2.778c-2.967,0.807-5.988,1.262-9.01,1.646
			c-6.049,0.739-12.123,1.099-18.195,1.38c-6.072,0.263-12.146,0.483-18.223,0.621c-24.299,0.438-48.602,0.992-72.919,0.662
			c-24.307-0.384-48.635-1.31-72.837-3.879c-6.048-0.657-12.087-1.419-18.096-2.396c-5.998-1.004-12.006-2.127-17.805-4.056
			c-1.444-0.496-2.874-1.048-4.241-1.748c-1.347-0.709-2.729-1.505-3.648-2.826c-0.118-0.178-0.205-0.337-0.295-0.52
			c-0.085-0.195-0.141-0.391-0.18-0.585c-0.08-0.389-0.111-0.775-0.13-1.161c-0.035-0.77-0.011-1.535,0.034-2.296
			c0.091-1.524,0.268-3.037,0.474-4.544c0.422-3.014,0.976-6.006,1.642-8.974c0.336-1.483,0.701-2.96,1.127-4.422
			c0.216-0.73,0.443-1.457,0.716-2.171c0.137-0.357,0.283-0.711,0.462-1.054c0.092-0.171,0.187-0.341,0.315-0.498
			c0.063-0.079,0.138-0.154,0.236-0.215c0.083-0.072,0.31-0.059,0.36-0.003L8.642,132.52z"/>
	</g>
</g>
<g>
	<polygon fill="#C27339" points="83.779,65.792 93.562,85.614 115.437,88.793 99.607,104.223 103.344,126.009 83.779,115.723 
		64.214,126.009 67.95,104.223 52.121,88.793 73.995,85.614 	"/>
	<g>
		<path d="M83.779,65.575l10.231,19.818l-0.376-0.273l21.931,2.783l1.867,0.237l-1.368,1.298l-16.038,15.215l0.172-0.531
			l3.441,21.836l0.092,0.584l-0.527-0.268L83.5,116.254h0.559l-19.426,10.551l-1.615,0.877l0.31-1.826l3.687-21.794l0.273,0.841
			L51.423,89.509l-1.494-1.451l2.049-0.255l21.938-2.733l-0.414,0.301L83.779,65.575z M83.779,66.027l-9.291,19.831l-0.118,0.252
			l-0.296,0.049l-21.81,3.624l0.555-1.706l15.794,15.465l0.358,0.351l-0.085,0.49l-3.786,21.777l-1.306-0.949L83.5,115.191
			l0.288-0.146l0.271,0.146l19.425,10.552l-0.436,0.316l-4.031-21.735l-0.057-0.302l0.229-0.229l15.62-15.645l0.498,1.535
			l-21.815-3.575l-0.269-0.044l-0.108-0.229L83.779,66.027z"/>
	</g>
</g>
<g>
	<polygon fill="#C27339" points="128.602,102.232 134.579,114.345 147.948,116.288 138.275,125.72 140.559,139.033 128.602,132.745 
		116.645,139.033 118.926,125.72 109.252,116.288 122.621,114.345 	"/>
	<g>
		<path d="M128.603,102.02l6.425,12.104l-0.376-0.273l13.426,1.547l1.909,0.22l-1.41,1.315l-9.882,9.217l0.172-0.531l1.988,13.364
			l0.086,0.576l-0.521-0.259l-12.097-6.022h0.559l-11.817,6.553l-1.615,0.896l0.31-1.844l2.231-13.322l0.273,0.84l-9.709-9.396
			l-1.523-1.474l2.078-0.232l13.434-1.498l-0.414,0.301L128.603,102.02z M128.603,102.474l-5.488,12.114l-0.111,0.247l-0.303,0.055
			l-13.305,2.389l0.555-1.706l9.639,9.467l0.359,0.353l-0.086,0.488l-2.33,13.305l-1.307-0.948l12.097-6.022l0.294-0.147
			l0.265,0.147l11.817,6.553l-0.436,0.316l-2.578-13.263l-0.059-0.296l0.23-0.235l9.463-9.646l0.499,1.535l-13.312-2.339
			l-0.273-0.048l-0.103-0.226L128.603,102.474z"/>
	</g>
</g>
<g>
	<polygon fill="#C27339" points="163.921,118.435 167.807,126.312 176.499,127.574 170.21,133.706 171.694,142.363 163.921,138.276 
		156.146,142.363 157.63,133.706 151.341,127.574 160.033,126.312 	"/>
	<g>
		<path d="M163.921,118.229l4.334,7.861l-0.377-0.273l8.75,0.867l1.971,0.195l-1.471,1.34l-6.5,5.917l0.174-0.531l1.189,8.708
			l0.076,0.563l-0.512-0.247l-7.914-3.821h0.559l-7.635,4.352l-1.615,0.921l0.309-1.87l1.436-8.666l0.273,0.841l-6.325-6.096
			l-1.564-1.508l2.119-0.198l8.757-0.817l-0.414,0.301L163.921,118.229z M163.921,118.685l-3.395,7.87l-0.104,0.24l-0.311,0.062
			l-8.628,1.708l0.555-1.706l6.255,6.167l0.359,0.354l-0.086,0.486l-1.533,8.648l-1.307-0.949l7.914-3.821l0.303-0.146l0.256,0.146
			l7.635,4.353l-0.436,0.316l-1.781-8.606l-0.059-0.289l0.231-0.243l6.079-6.347l0.5,1.535l-8.635-1.659l-0.281-0.054l-0.096-0.22
			L163.921,118.685z"/>
	</g>
</g>
<g>
	<g>
		<path fill="none" stroke="#000000" stroke-width="0.8048" stroke-miterlimit="10" d="M24.938,67.647
			c0.439-0.104,0.966-0.21,1.572-0.32"/>
		<path fill="none" stroke="#000000" stroke-width="0.8048" stroke-miterlimit="10" stroke-dasharray="3.149,3.149" d="
			M29.616,66.828c18.223-2.673,71.231-7.288,91.105-16.813"/>
		<path fill="none" stroke="#000000" stroke-width="0.8048" stroke-miterlimit="10" d="M122.133,49.3
			c0.49-0.263,0.954-0.53,1.393-0.8"/>
	</g>
</g>
<g>
	<g>
		<path fill="none" stroke="#000000" stroke-width="0.8048" stroke-miterlimit="10" d="M24.481,65.616
			c0.439-0.104,0.966-0.21,1.572-0.32"/>
		<path fill="none" stroke="#000000" stroke-width="0.8048" stroke-miterlimit="10" stroke-dasharray="3.149,3.149" d="
			M29.16,64.796c18.223-2.673,71.231-7.288,91.106-16.813"/>
		<path fill="none" stroke="#000000" stroke-width="0.8048" stroke-miterlimit="10" d="M121.678,47.269
			c0.49-0.263,0.954-0.53,1.393-0.8"/>
	</g>
</g>
<path fill="none" stroke="#000000" stroke-width="3.2192" stroke-linecap="round" stroke-miterlimit="10" d="M7.03,148.503
	c9.769,11.808,198.675,29.368,258.311,2.026"/>
</svg>
