<?xml version="1.0" encoding="utf-8"?>
<!-- Generator: Adobe Illustrator 16.0.0, SVG Export Plug-In . SVG Version: 6.00 Build 0)  -->
<!DOCTYPE svg PUBLIC "-//W3C//DTD SVG 1.1//EN" "http://www.w3.org/Graphics/SVG/1.1/DTD/svg11.dtd">
<svg version="1.1" id="Layer_1" xmlns="http://www.w3.org/2000/svg" xmlns:xlink="http://www.w3.org/1999/xlink" x="0px" y="0px"
	 width="101.144px" height="180.178px" viewBox="0 0 101.144 180.178" enable-background="new 0 0 101.144 180.178"
	 xml:space="preserve">
<g>
	<polygon fill="#80DB45" points="70.148,0.1 22.243,26.258 13.419,123.512 100.243,43.998 	"/>
	<g>
		<path d="M70.116,0.233l-11.745,6.77c-3.942,2.272-7.92,4.478-11.878,6.72c-3.967,2.228-7.916,4.484-11.904,6.672l-11.94,6.604
			l0.437-0.665c-0.66,8.111-1.436,16.213-2.215,24.312c-0.792,8.1-1.678,16.19-2.52,24.285c-0.883,8.092-1.632,16.194-2.419,24.295
			c-0.711,8.106-1.45,16.21-2.075,24.324l-0.733-0.363l21.467-20.139l21.575-20.021l10.803-9.994l10.87-9.92
			c7.247-6.614,14.485-13.236,21.799-19.777l-0.134,1.17l-7.425-11.043l-7.377-11.075c-2.446-3.7-4.927-7.378-7.345-11.097
			L70.116,0.233z M70.23,0.043l7.758,10.814c2.597,3.598,5.133,7.236,7.702,10.853l7.671,10.874l7.622,10.906
			c0.256,0.367,0.197,0.859-0.12,1.156l-0.014,0.014c-7.157,6.712-14.39,13.341-21.613,19.979L68.4,74.598l-10.903,9.885
			L35.66,104.218l-21.944,19.617l-0.009,0.008c-0.18,0.161-0.456,0.146-0.616-0.034c-0.085-0.096-0.121-0.219-0.109-0.337
			c0.846-8.095,1.577-16.199,2.337-24.302c0.684-8.108,1.405-16.215,1.993-24.332c0.629-8.114,1.214-16.232,1.893-24.342
			c0.691-8.108,1.387-16.217,2.197-24.314l0.002-0.013c0.028-0.285,0.201-0.524,0.435-0.652l12.013-6.475
			c3.996-2.173,8.03-4.274,12.048-6.407c4.026-2.117,8.032-4.271,12.075-6.359l12.127-6.264C70.146-0.012,70.201,0.002,70.23,0.043z
			"/>
	</g>
</g>
<g>
	<path fill="#80DB45" d="M13.024,124.031c0,0-8.553,4.336-10.212,5.576c-0.588,0.439,4.119,12.732,4.119,12.732l12.509-8.951
		L13.024,124.031z"/>
	<g>
		<path d="M13.008,124.1c-1.77,1.096-3.576,2.115-5.366,3.159l-2.711,1.555c-0.448,0.26-0.893,0.529-1.323,0.8l-0.317,0.205
			l-0.151,0.104c-0.108,0.084,0.081-0.063,0.069-0.141c-0.012,0.071,0.037,0.389,0.081,0.61c0.438,1.983,1.026,4.019,1.646,6.005
			c0.651,1.983,1.398,3.938,2.223,5.856l-0.368-0.11c2.023-1.578,4.045-3.158,6.117-4.668c2.058-1.529,4.12-3.053,6.238-4.498
			l-0.123,0.699c-1.038-1.582-2.065-3.17-3.082-4.766C14.943,127.319,13.951,125.727,13.008,124.1z M13.065,124.003
			c1.188,1.478,2.325,2.991,3.459,4.507c1.122,1.523,2.233,3.054,3.334,4.592c0.157,0.221,0.109,0.524-0.105,0.687l-0.018,0.013
			c-2.052,1.538-4.158,2.999-6.271,4.453c-2.098,1.474-4.246,2.877-6.392,4.283l-0.018,0.012c-0.108,0.07-0.254,0.04-0.324-0.068
			c-0.012-0.017-0.021-0.035-0.026-0.054c-0.662-1.987-1.365-3.954-2.112-5.909c-0.749-1.96-1.597-3.86-2.155-5.938
			c-0.058-0.288-0.14-0.487-0.108-0.938c0.005-0.027,0.003-0.061,0.045-0.163c0.041-0.092,0.095-0.155,0.089-0.146l0.008-0.01
			l0.082-0.076l0.021-0.016l0.043-0.032l0.171-0.12l0.34-0.223c0.453-0.286,0.913-0.541,1.372-0.798
			c0.917-0.515,1.852-0.988,2.786-1.462c1.883-0.919,3.772-1.816,5.716-2.608C13.024,123.978,13.051,123.984,13.065,124.003z"/>
	</g>
</g>
<g>
	<path fill="#80DB45" d="M6.585,142.156c0,0-4.914,3.16-5.844,4.016c-0.328,0.303,3.74,8.027,3.74,8.027l6.574-6.77L6.585,142.156z"
		/>
	<g>
		<path d="M6.574,142.228c-1.012,0.857-2.055,1.664-3.11,2.445l-1.597,1.179l-0.758,0.591l-0.041,0.035l-0.02,0.019L1.043,146.5
			c0.139-0.161,0.037-0.043,0.067-0.078l-0.002,0.004l-0.007,0.012c0.038-0.049,0.063-0.126,0.065-0.18l0.001-0.021
			c-0.001-0.01,0.001,0.003,0.001,0.006c0.005,0.039,0.024,0.112,0.046,0.18c0.038,0.142,0.089,0.294,0.143,0.445
			c0.438,1.226,0.909,2.488,1.452,3.7c0.552,1.211,1.209,2.372,1.904,3.508l-0.421-0.061c1.016-1.205,2.052-2.392,3.128-3.538
			c1.063-1.161,2.138-2.31,3.271-3.401l-0.022,0.682c-0.716-0.904-1.422-1.816-2.119-2.736
			C7.874,144.105,7.202,143.186,6.574,142.228z M6.623,142.124c0.855,0.785,1.662,1.611,2.468,2.439
			c0.793,0.839,1.577,1.684,2.352,2.538c0.17,0.188,0.167,0.471,0.001,0.655l-0.024,0.026c-1.058,1.164-2.175,2.272-3.303,3.368
			c-1.115,1.109-2.271,2.181-3.446,3.231l-0.027,0.023c-0.103,0.092-0.26,0.083-0.352-0.02c-0.018-0.02-0.032-0.042-0.042-0.065
			c-0.542-1.223-1.101-2.432-1.739-3.604c-0.638-1.175-1.357-2.297-1.938-3.534c-0.07-0.158-0.139-0.317-0.201-0.492
			c-0.029-0.091-0.058-0.179-0.08-0.304c-0.005-0.037-0.011-0.066-0.013-0.118l0.001-0.082c0.005-0.074,0.035-0.172,0.078-0.241
			l0.009-0.015l0.002-0.004l0.071-0.084l0.007-0.006l0.026-0.023l0.053-0.048c0.274-0.24,0.547-0.433,0.825-0.627
			c0.551-0.39,1.114-0.75,1.684-1.102c1.139-0.701,2.31-1.348,3.523-1.924C6.58,142.104,6.605,142.108,6.623,142.124z"/>
	</g>
</g>
<g>
	<path fill="#80DB45" d="M4.646,154.299c0,0-3.566,3.434-4.199,4.297c-0.224,0.305,4.426,6.059,4.426,6.059l4.354-6.705
		L4.646,154.299z"/>
	<g>
		<path d="M4.65,154.372c-0.681,0.896-1.402,1.746-2.144,2.572l-1.126,1.246l-0.528,0.611l-0.028,0.035l-0.014,0.018l-0.003,0.004
			c-0.017,0.033,0.134-0.279,0.07-0.146l-0.001,0.003l-0.002,0.014l-0.004,0.023c0.01-0.02,0.018-0.043,0.021-0.066
			c0.009-0.044-0.005-0.105-0.015-0.125c0.014,0.033,0.033,0.077,0.064,0.134c0.052,0.108,0.119,0.227,0.186,0.343
			c0.554,0.948,1.137,1.935,1.78,2.857c0.651,0.92,1.395,1.772,2.169,2.594l-0.425,0.021c0.633-1.178,1.289-2.341,1.992-3.473
			c0.688-1.143,1.389-2.276,2.158-3.365l0.108,0.673c-0.739-0.639-1.471-1.287-2.195-1.944C6.014,155.742,5.313,155.08,4.65,154.372
			z M4.678,154.26c0.854,0.495,1.668,1.04,2.48,1.587c0.803,0.56,1.598,1.127,2.385,1.706c0.203,0.148,0.256,0.425,0.131,0.637
			l-0.021,0.036c-0.682,1.146-1.432,2.247-2.196,3.34c-0.748,1.103-1.543,2.175-2.362,3.231l-0.026,0.034
			c-0.084,0.108-0.238,0.128-0.347,0.044c-0.021-0.016-0.038-0.035-0.053-0.056c-0.64-0.937-1.296-1.854-2.025-2.72
			c-0.729-0.867-1.528-1.668-2.225-2.601c-0.085-0.121-0.169-0.241-0.253-0.38c-0.039-0.066-0.08-0.149-0.12-0.247
			c-0.021-0.053-0.042-0.149-0.043-0.227c0-0.041,0.002-0.081,0.008-0.118l0.004-0.027l0.002-0.014v-0.003
			c-0.062,0.132,0.087-0.184,0.072-0.152l0.005-0.006l0.019-0.024l0.037-0.049c0.19-0.249,0.387-0.453,0.588-0.66
			c0.396-0.415,0.808-0.805,1.226-1.188c0.839-0.764,1.717-1.482,2.649-2.142C4.632,154.248,4.658,154.248,4.678,154.26z"/>
	</g>
</g>
<g>
	<path fill="#80DB45" d="M4.827,164.707c0,0-0.954,4.031-1.009,4.926c-0.019,0.314,5.859,2.258,5.859,2.258l0.025-6.689
		L4.827,164.707z"/>
	<g>
		<path d="M4.871,164.768c-0.047,0.941-0.152,1.868-0.29,2.783l-0.219,1.387l-0.093,0.664l-0.004,0.035l-0.002,0.019v0.004
			c0.004,0.037-0.039-0.311-0.021-0.162l0.001,0.003l0.005,0.01l0.008,0.018c-0.004-0.023-0.011-0.047-0.022-0.069
			c-0.018-0.044-0.065-0.091-0.085-0.104c0.02,0.015,0.051,0.035,0.097,0.061c0.082,0.052,0.182,0.105,0.28,0.157
			c0.811,0.423,1.66,0.876,2.527,1.241c0.873,0.359,1.785,0.614,2.706,0.827l-0.345,0.249c-0.111-1.115-0.19-2.23-0.209-3.346
			c-0.041-1.115-0.066-2.229-0.01-3.345l0.456,0.506c-0.811-0.111-1.618-0.242-2.423-0.398
			C6.441,165.149,5.653,164.986,4.871,164.768z M4.832,164.657c0.827-0.062,1.648-0.06,2.469-0.056
			c0.82,0.008,1.638,0.043,2.453,0.096c0.25,0.016,0.443,0.217,0.454,0.461l0.002,0.045c0.048,1.115,0.015,2.229-0.035,3.345
			c-0.027,1.114-0.114,2.229-0.234,3.344l-0.005,0.052c-0.015,0.134-0.135,0.23-0.269,0.216c-0.025-0.003-0.05-0.01-0.072-0.019
			c-0.87-0.384-1.745-0.74-2.652-1.012c-0.91-0.272-1.842-0.452-2.763-0.784c-0.116-0.046-0.231-0.092-0.356-0.152
			c-0.059-0.029-0.129-0.07-0.205-0.124c-0.043-0.031-0.112-0.099-0.152-0.162c-0.021-0.032-0.04-0.066-0.055-0.1L3.4,169.785
			l-0.004-0.01l-0.002-0.003c0.019,0.146-0.026-0.202-0.021-0.168l0.001-0.007l0.002-0.025l0.004-0.053
			c0.021-0.267,0.067-0.499,0.116-0.737c0.092-0.472,0.209-0.933,0.335-1.391c0.253-0.916,0.562-1.816,0.947-2.696
			C4.788,164.673,4.81,164.659,4.832,164.657z"/>
	</g>
</g>
<g>
	<path fill="#80DB45" d="M10.031,172.252c0,0,0.254,2.779,0.41,3.361c0.057,0.205,4.227,0.186,4.227,0.186l-1.418-4.277
		L10.031,172.252z"/>
	<g>
		<path d="M10.096,172.299c0.223,0.6,0.387,1.203,0.512,1.808c0.064,0.311,0.123,0.621,0.175,0.926l0.082,0.432l0.005,0.021
			l0.002,0.011l0.001,0.001c-0.032-0.066,0.073,0.152-0.073-0.149l0.003,0.003l0.005,0.006c0.002,0.001,0.01,0.013,0.006,0.006
			c-0.013-0.021-0.03-0.043-0.05-0.062c-0.034-0.036-0.103-0.067-0.124-0.073l0.055,0.014c0.057,0.017,0.13,0.031,0.201,0.045
			c0.596,0.117,1.237,0.27,1.868,0.334c0.634,0.058,1.271,0.007,1.904-0.083l-0.249,0.346c-0.346-0.677-0.66-1.364-0.918-2.069
			c-0.28-0.698-0.545-1.402-0.731-2.131l0.594,0.334c-0.543,0.093-1.091,0.168-1.644,0.217
			C11.183,172.276,10.645,172.313,10.096,172.299z M10.021,172.203c0.504-0.263,1.022-0.464,1.542-0.662
			c0.52-0.194,1.045-0.363,1.575-0.514c0.235-0.067,0.479,0.055,0.569,0.276l0.024,0.059c0.286,0.696,0.494,1.418,0.687,2.146
			c0.215,0.72,0.373,1.459,0.5,2.208l0.013,0.076c0.021,0.127-0.064,0.247-0.191,0.269c-0.023,0.004-0.048,0.004-0.07,0.001
			c-0.639-0.087-1.273-0.145-1.912-0.108c-0.642,0.038-1.273,0.17-1.945,0.175c-0.086-0.003-0.171-0.005-0.271-0.017
			c-0.046-0.006-0.105-0.018-0.178-0.039c-0.04-0.011-0.126-0.052-0.179-0.096c-0.029-0.022-0.055-0.048-0.078-0.073l-0.014-0.016
			l-0.005-0.005l-0.003-0.003l-0.074-0.153v-0.002l-0.005-0.019l-0.01-0.037c-0.048-0.185-0.065-0.343-0.083-0.508
			c-0.041-0.325-0.059-0.646-0.066-0.967c-0.017-0.643,0.021-1.288,0.136-1.938C9.985,172.233,10.001,172.214,10.021,172.203z"/>
	</g>
</g>
<g>
	<path d="M15.158,175.896c-0.071,0.35,0.202,0.902,0.672,1.219c0.464,0.348,1.068,0.57,1.685,0.73
		c0.621,0.158,1.27,0.256,1.925,0.314c0.631,0.055,1.27-0.002,1.899-0.145c2.553-0.572,4.714-2.346,7.302-3.24
		c0.649-0.211,1.34-0.35,2.035-0.311c0.695,0.033,1.374,0.266,1.955,0.627c0.594,0.357,1.047,0.877,1.58,1.264
		c0.527,0.408,1.086,0.777,1.663,1.113c2.321,1.332,4.898,2.205,7.53,2.709c-2.641-0.461-5.234-1.293-7.595-2.596
		c-0.588-0.328-1.157-0.691-1.698-1.096c-0.554-0.398-1.013-0.895-1.59-1.211c-1.142-0.693-2.55-0.645-3.767-0.166
		c-2.466,0.936-4.55,2.795-7.269,3.52c-0.672,0.176-1.384,0.266-2.092,0.23c-0.685-0.029-1.372-0.096-2.06-0.232
		c-0.685-0.146-1.382-0.35-2.022-0.775c-0.622-0.416-1.25-1.131-1.135-2.152L15.158,175.896z"/>
</g>
<g>
	<polygon points="22.243,26.258 100.354,43.512 100.133,44.486 	"/>
</g>
<g>
	<polygon points="70.148,0.1 13.479,124.24 12.57,123.822 	"/>
</g>
</svg>
