<?xml version="1.0" encoding="utf-8"?>
<!-- Generator: Adobe Illustrator 16.0.0, SVG Export Plug-In . SVG Version: 6.00 Build 0)  -->
<!DOCTYPE svg PUBLIC "-//W3C//DTD SVG 1.1//EN" "http://www.w3.org/Graphics/SVG/1.1/DTD/svg11.dtd">
<svg version="1.1" id="Layer_1" xmlns="http://www.w3.org/2000/svg" xmlns:xlink="http://www.w3.org/1999/xlink" x="0px" y="0px"
	 width="255.744px" height="102.489px" viewBox="0 0 255.744 102.489" enable-background="new 0 0 255.744 102.489"
	 xml:space="preserve">
<g>
	<path fill="#1D1D1B" d="M161.086,0.248c0,0-63.259,30.409-82.515,43.084c-8.759,5.766-12.033,9.36-22.295,12.963
		c-3.699,1.297-13.689,4.442-18.746,5.019c-17.109,1.95-24.896,0.699-30.049,12.188C2.328,84.99,2.661,92.99,2.661,92.99
		s23.667,8.333,69,6.608c42.309-1.609,116.848,2,136.667,2c18.666,0,45.062-1,45.062-1s-6.784-15.411-3.396-21.238
		c7-12.037,3.227-37.827-5.618-52.704c-8.845-14.876-4.253-14.974-7.695-18.666c-1.344-1.441-4.668,2.064-7.225,4.154
		c-3.659,2.989-6.389,9.393-11.162,14.146c-8.931,8.894-25.099,8.668-35.958-0.976C167.376,12.027,161.086,0.248,161.086,0.248z"/>
	<path fill="#1D1D1B" d="M160.991,0.579l-21.216,11.055l-21.344,11.282c-7.097,3.787-14.167,7.622-21.158,11.57
		c-3.494,1.977-6.967,3.985-10.402,6.029c-3.441,2.057-6.784,4.146-9.993,6.487c-3.23,2.303-6.41,4.844-10.048,7.009
		c-3.618,2.174-7.54,3.831-11.433,5.141c-3.876,1.303-7.749,2.512-11.755,3.52c-1.998,0.49-4.066,0.968-6.242,1.206
		c-2.021,0.239-4.043,0.446-6.05,0.646c-3.998,0.415-8.017,0.717-11.585,1.575c-1.777,0.437-3.391,1.045-4.74,1.933
		c-1.349,0.883-2.482,2.049-3.438,3.494c-0.479,0.719-0.915,1.495-1.312,2.313c-0.204,0.414-0.378,0.807-0.59,1.284l-0.561,1.321
		C8.39,78.229,7.74,80.043,7.19,81.881s-1.004,3.7-1.335,5.569c-0.165,0.934-0.3,1.869-0.396,2.798
		c-0.048,0.464-0.086,0.927-0.112,1.382c-0.025,0.431-0.039,0.958-0.032,1.25l-1.772-2.396c1.072,0.36,2.353,0.737,3.561,1.064
		c1.229,0.334,2.472,0.645,3.72,0.938c2.499,0.583,5.024,1.099,7.563,1.557c5.079,0.913,10.213,1.611,15.367,2.139
		c10.312,1.054,20.712,1.439,31.109,1.325c2.604-0.027,5.189-0.1,7.811-0.162c2.637-0.062,5.262-0.101,7.891-0.123
		c5.255-0.044,10.505-0.024,15.752,0.032c10.493,0.115,20.975,0.491,31.449,0.869l31.413,1.262
		c10.468,0.412,20.937,0.796,31.404,1.091c20.924,0.817,41.842-0.363,62.75-1.366l-1.308,2.09
		c-1.703-3.871-3.108-7.772-4.054-11.948c-0.447-2.09-0.794-4.238-0.687-6.562c0.067-1.159,0.24-2.382,0.787-3.628
		c0.067-0.155,0.141-0.31,0.225-0.464l0.188-0.355c0.126-0.231,0.241-0.451,0.327-0.638c0.192-0.386,0.387-0.837,0.561-1.265
		c1.402-3.5,1.922-7.433,2.104-11.352c0.157-3.936-0.114-7.92-0.688-11.857c-1.131-7.872-3.366-15.674-6.888-22.709
		c-0.442-0.876-0.908-1.737-1.401-2.577c-0.518-0.881-1.053-1.813-1.553-2.728c-1.008-1.845-1.966-3.734-2.799-5.731
		c-0.826-1.981-1.546-4.15-1.848-6.422l-0.188-1.522c-0.06-0.434-0.124-0.695-0.222-0.921c-0.099-0.228-0.263-0.486-0.509-0.783
		l-0.194-0.224l-0.051-0.057c-0.116-0.116,0.13,0.127,0.091,0.089l-0.035-0.032l-0.071-0.065c-0.009-0.005,0.08,0.081,0.123,0.108
		c0.39,0.266,0.598,0.213,0.687,0.219c0.12-0.032-0.225,0.063-0.524,0.257c-0.319,0.188-0.685,0.447-1.049,0.724
		c-0.735,0.562-1.489,1.219-2.272,1.889l-1.22,1.025c-0.13,0.108-0.418,0.342-0.519,0.442c-0.135,0.116-0.301,0.28-0.455,0.433
		c-0.623,0.631-1.225,1.36-1.81,2.135c-2.339,3.124-4.499,6.8-7.479,9.991c-1.479,1.611-3.243,3.075-5.15,4.207
		c-1.913,1.138-3.978,1.988-6.097,2.567c-4.245,1.157-8.702,1.219-12.934,0.384c-4.233-0.856-8.246-2.62-11.727-5.096
		c-0.869-0.62-1.709-1.28-2.506-1.987c-0.801-0.725-1.521-1.417-2.275-2.143c-1.486-1.437-2.936-2.909-4.349-4.415
		c-2.824-3.013-5.5-6.161-7.989-9.447C165.138,7.52,162.897,4.154,160.991,0.579z M161.307,0.13
		c2.121,3.471,4.663,6.692,7.257,9.825c2.621,3.12,5.415,6.09,8.344,8.912c1.465,1.411,2.962,2.787,4.493,4.123
		c1.54,1.355,3.047,2.617,4.703,3.669c3.302,2.123,7.029,3.548,10.865,4.138c3.826,0.613,7.777,0.406,11.41-0.726
		c3.642-1.135,6.886-3.171,9.375-6.011c2.591-2.855,4.564-6.328,7.061-9.81c0.636-0.869,1.32-1.741,2.123-2.582
		c0.207-0.211,0.401-0.411,0.648-0.637c0.271-0.253,0.382-0.341,0.643-0.564l1.117-0.97c0.764-0.673,1.542-1.377,2.424-2.075
		c0.447-0.348,0.908-0.697,1.471-1.033c0.578-0.319,1.171-0.705,2.316-0.848c0.597-0.042,1.338-0.003,2.156,0.549
		c0.096,0.064,0.24,0.18,0.281,0.216l0.07,0.065l0.194,0.189l0.078,0.085l0.312,0.354c0.411,0.486,0.835,1.079,1.152,1.79
		c0.321,0.711,0.475,1.462,0.557,2.04l0.202,1.527c0.254,1.795,0.843,3.549,1.604,5.338c0.76,1.779,1.671,3.543,2.643,5.284
		c0.491,0.879,0.983,1.72,1.511,2.601c0.553,0.922,1.07,1.859,1.56,2.808c1.965,3.79,3.45,7.765,4.647,11.804
		c1.186,4.044,2.082,8.165,2.62,12.345c0.529,4.18,0.744,8.412,0.496,12.663c-0.252,4.243-1.001,8.541-2.767,12.622
		c-0.229,0.514-0.457,0.997-0.738,1.52c-0.142,0.272-0.272,0.502-0.398,0.716l-0.183,0.317c-0.043,0.069-0.081,0.146-0.119,0.224
		c-0.309,0.622-0.487,1.456-0.562,2.333c-0.148,1.774,0.071,3.725,0.423,5.646c0.729,3.85,1.986,7.743,3.457,11.421l0.028,0.072
		c0.302,0.754-0.065,1.611-0.819,1.913c-0.168,0.066-0.347,0.101-0.517,0.104c-10.487,0.214-20.964,0.344-31.45,0.37
		c-5.244,0.034-10.48,0.061-15.736-0.033c-5.249-0.104-10.484-0.256-15.721-0.429c-10.473-0.309-20.941-0.604-31.413-0.794
		c-10.472-0.175-20.944-0.258-31.414-0.298c-10.47-0.024-20.937,0.079-31.392,0.214c-5.228,0.068-10.452,0.175-15.669,0.345
		c-2.607,0.085-5.218,0.186-7.815,0.31c-2.611,0.134-5.262,0.231-7.894,0.291c-10.546,0.244-21.119-0.018-31.661-0.965
		c-5.271-0.475-10.533-1.124-15.774-2.002c-2.62-0.439-5.235-0.939-7.844-1.515c-1.304-0.29-2.606-0.598-3.909-0.935
		c-1.322-0.349-2.564-0.677-3.975-1.151c-1.062-0.354-1.742-1.338-1.772-2.396c-0.019-0.715,0.005-1.193,0.033-1.768
		c0.031-0.55,0.075-1.091,0.13-1.627c0.109-1.074,0.261-2.132,0.444-3.18c0.368-2.096,0.866-4.151,1.468-6.171
		c0.602-2.019,1.307-3.999,2.102-5.939l0.617-1.457c0.195-0.443,0.428-0.972,0.669-1.46c0.479-0.992,1.027-1.978,1.661-2.936
		c1.259-1.909,2.949-3.733,4.998-5.022c2.039-1.305,4.271-2.072,6.401-2.57c4.286-0.965,8.338-1.182,12.342-1.562
		c2-0.176,3.986-0.356,5.964-0.567c1.831-0.179,3.7-0.589,5.613-1.042c3.81-0.924,7.652-2.034,11.423-3.245
		c3.753-1.194,7.332-2.586,10.669-4.483c3.332-1.881,6.552-4.258,9.955-6.512c6.821-4.574,13.963-8.396,21.109-12.142
		c7.16-3.73,14.372-7.333,21.605-10.885l10.869-5.285l10.933-5.149c7.298-3.41,14.604-6.8,21.965-10.075
		c0.12-0.053,0.259-0.008,0.325,0.102L161.307,0.13z"/>
</g>
<path fill="#B1B1B1" d="M68.548,51.682c16.779,3.327,31.262-8.23,48.666-16.633c15.467-7.468,34.274-15.616,50.756-20.771
	c-2.559-3.688-5.031-7.514-7.732-11.113c-0.417-0.56-0.653-0.409-1.23-0.188c-5.034,1.928-10.158,4.143-15.34,6.55l3.406,4.206
	c0.992,1.225-0.672,2.961-1.665,1.736l-3.966-4.898c-3.471,1.644-6.968,3.367-10.48,5.145l3.213,3.969
	c0.993,1.225-0.672,2.961-1.662,1.734l-3.725-4.597c-3.426,1.75-6.864,3.544-10.308,5.358l2.798,3.455
	c0.992,1.227-0.673,2.961-1.665,1.736l-3.285-4.058l-10.25,5.429l2.302,2.844c0.992,1.225-0.672,2.961-1.663,1.736l-2.789-3.443
	c-3.44,1.814-6.877,3.613-10.299,5.369l1.854,2.289c0.992,1.226-0.674,2.961-1.664,1.736l-2.361-2.916
	c-3.506,1.781-6.996,3.514-10.461,5.169l1.589,1.963c0.993,1.226-0.673,2.96-1.663,1.735l-2.144-2.648
	c-5.792,3.407-6.457,4.576-12.231,8.105L68.548,51.682z"/>
<path fill="#B1B1B1" d="M19.26,64.299c0.078-0.727,0.443-1.414,1.161-2.035c-9.137,3.139-13.719,8.734-15.939,19.919
	c22.15,4.062,43.368,5.987,64.52,6.557c-6.137-14.02-16.822-15.324-30.017-16.933l-6.759-0.883v-0.001
	c-2.561-0.372-6.232-0.829-9.18-2.216l0.002-0.002C21.155,67.82,19.034,66.387,19.26,64.299L19.26,64.299z"/>
<path fill="#B1B1B1" d="M246.304,30.657c1.335,4.27,2.072,8.38,1.247,11.501c-0.991,3.748-3.02,7.393-5.2,11.309
	c-3.95,7.096-8.421,15.128-7.562,25.894c4.831-0.203,9.737-0.382,14.723-0.534C256.919,62.989,252.688,45.903,246.304,30.657
	L246.304,30.657z"/>
<path fill="#B1B1B1" d="M144.279,88.352c-0.287,0.18-0.539,0.11-0.831,0.06c-7.451,0.539-14.787,1.04-22.04,1.474
	c-0.091,0.064-0.195,0.114-0.311,0.143c-0.225,0.054-0.45,0.018-0.638-0.086c-19.621,1.159-29.642,1.821-48.695,1.415l-1.544-0.037
	c-21.681-0.528-43.43-2.46-66.18-6.632c-0.4,2.59-0.687,5.458-0.868,8.638c6.396,2.155,14.578,3.636,24.072,4.619
	c15.4,1.596,30.816,1.654,46.266,1.654H252.39c0,0-1.933-5.467-2.305-7.358c-0.526-2.674-0.928-10.86-0.928-10.86
	c-5.388,0.167-10.774,0.371-16.16,0.602c-26.992,1.173-44.8,3.058-68.256,4.839C157.811,87.347,150.998,87.864,144.279,88.352
	L144.279,88.352z"/>
<path fill="#B1B1B1" d="M108.522,42.154c-10.858,5.012-20.878,11.49-31.896,12.456c-4.549,0.398-4.633-0.415-12.743-2.372
	l-7.547,3.22c-5.022,2.01-11.473,4.526-14.806,4.855c-4.029,0.397-13.58,1.95-18.566,1.607c-0.513-0.035-1.283,2.632-1,3
	c0.396,0.512,1.183,1.024,2.168,1.486l0.001-0.002c2.601,1.224,6.046,1.617,8.461,1.998v-0.001
	c16.536,2.438,31.484,1.28,39.192,20.404c18.743,0.4,28.465-0.237,47.768-1.365L108.522,42.154L108.522,42.154z M129.146,32.469
	c-1.578,0.741-6.101,2.861-7.688,3.61l22.523,49.739c2.389-0.174,8.47-0.627,10.884-0.807L128.84,33.359L129.146,32.469z
	 M169.519,15.975c-10.329,3.358-20.07,7.329-29.707,11.62l37.662,55.708c19.413-1.451,32.829-2.872,54.765-3.833
	c-0.894-11.459,3.769-19.836,7.89-27.238c2.099-3.769,4.051-7.274,4.961-10.722c1.85-6.995-5.759-20.379-8.103-27.904
	c-2.226,1.542-4.242,5.393-5.935,8.16c-3.678,6.021-7.136,12.709-20.031,14.519c-10.186,1.429-14.241,0.716-21.967-3.315
	C181.631,29.097,175.751,22.855,169.519,15.975L169.519,15.975z"/>
<path fill="#B1B1B1" d="M118.283,37.572l-10.52,4.936l10.909,44.826c6.825-0.408,19.502-1.1,26.503-1.603L122.27,35.696
	L118.283,37.572z M136.339,29.156c-3.449,1.551-5.069,2.317-8.521,3.932l25.275,52.058l26.295-1.987l-37.765-56.365L136.339,29.156z
	"/>
<path fill="#B1B1B1" d="M236.531,11.78c0.67-0.387,0.785-1.285,0.305-2.628l-0.689-1.775c-9.765,1.681-12.377,22.424-27.537,25.135
	c-15.107,2.701-25.639-5.17-36.412-17.39c-0.273,0.085-0.546,0.171-0.818,0.257c5.919,6.519,11.555,12.391,18.498,16.014
	c7.358,3.84,11.479,5.648,21.725,3.161c11.929-2.896,15.062-8.896,19.396-16.133C232.814,15.39,234.145,13.17,236.531,11.78
	L236.531,11.78z"/>
</svg>
