<?xml version="1.0" encoding="utf-8"?>
<!-- Generator: Adobe Illustrator 16.0.0, SVG Export Plug-In . SVG Version: 6.00 Build 0)  -->
<!DOCTYPE svg PUBLIC "-//W3C//DTD SVG 1.1//EN" "http://www.w3.org/Graphics/SVG/1.1/DTD/svg11.dtd">
<svg version="1.1" id="Layer_1" xmlns="http://www.w3.org/2000/svg" xmlns:xlink="http://www.w3.org/1999/xlink" x="0px" y="0px"
	 width="89.334px" height="175.961px" viewBox="0 0 89.334 175.961" enable-background="new 0 0 89.334 175.961"
	 xml:space="preserve">
<g>
	<path fill="#47F0F4" d="M69.721,29.842c-1.496,7.092-3.47,14.036-6.48,20.777c-9.482,21.256-30.647,13.574-39.673-4.61
		c-3.673-7.458-5.198-15.482-5.916-23.714C20.182,34.845,47.605,63.641,69.721,29.842z"/>
	<g>
		<path fill="#1D1E1C" d="M69.818,29.864c-0.393,2.027-0.742,4.061-1.211,6.074l-0.736,3.021l-0.369,1.513l-0.461,1.484
			c-0.619,1.979-1.193,3.978-1.984,5.902l-1.111,2.916c-0.454,0.988-0.797,1.892-1.354,2.841c-1.009,1.89-2.203,3.651-3.682,5.224
			c-1.464,1.57-3.192,2.938-5.15,3.919c-1.952,0.977-4.121,1.59-6.315,1.681c-2.192,0.103-4.382-0.225-6.449-0.861
			c-4.16-1.271-7.776-3.777-10.812-6.729c-1.523-1.483-2.872-3.129-4.097-4.852c-1.217-1.729-2.307-3.544-3.233-5.438
			c-0.465-0.997-0.848-1.901-1.275-2.856c-0.387-0.976-0.742-1.979-1.113-2.966l-0.93-3l-0.773-3.037l-0.628-3.065l-0.497-3.083
			l-0.385-3.095l-0.29-3.1c-0.036-0.381,0.244-0.718,0.624-0.754c0.354-0.033,0.671,0.207,0.742,0.547l0.002,0.01
			c0.271,1.328,0.771,2.634,1.342,3.904c0.604,1.261,1.278,2.496,2.055,3.672c0.759,1.188,1.612,2.315,2.493,3.419
			c0.909,1.082,1.853,2.137,2.862,3.127c1.012,0.987,2.064,1.935,3.18,2.803c0.561,0.43,1.109,0.876,1.703,1.26
			c0.581,0.401,1.161,0.805,1.776,1.15c0.603,0.37,1.212,0.726,1.848,1.031l0.941,0.483l0.973,0.413
			c0.325,0.135,0.646,0.283,0.976,0.407l1.002,0.336c0.661,0.247,1.346,0.409,2.031,0.571c1.367,0.333,2.771,0.512,4.177,0.562
			c1.406,0.052,2.817-0.054,4.206-0.296c1.386-0.251,2.754-0.629,4.066-1.159c0.676-0.217,1.296-0.563,1.934-0.871
			c0.316-0.159,0.64-0.308,0.951-0.477l0.904-0.562c1.236-0.705,2.34-1.612,3.467-2.479c1.055-0.958,2.145-1.882,3.093-2.953
			c1.015-1.008,1.894-2.138,2.8-3.243c0.899-1.112,1.681-2.315,2.527-3.47c0.032-0.046,0.096-0.057,0.141-0.024
			C69.811,29.786,69.824,29.827,69.818,29.864z M69.805,29.896c-0.827,1.174-1.589,2.396-2.472,3.532
			c-0.891,1.129-1.753,2.283-2.757,3.319c-0.936,1.099-2.02,2.055-3.07,3.044c-1.125,0.902-2.229,1.844-3.476,2.588l-0.912,0.591
			c-0.314,0.179-0.642,0.337-0.963,0.506c-0.646,0.327-1.276,0.693-1.966,0.932c-1.338,0.569-2.74,0.986-4.168,1.273
			c-1.432,0.278-2.892,0.415-4.352,0.389c-1.459-0.022-2.92-0.181-4.344-0.499c-0.714-0.155-1.429-0.311-2.118-0.552l-1.044-0.329
			c-0.344-0.122-0.678-0.269-1.018-0.401l-1.016-0.409L35.149,43.4c-0.664-0.305-1.3-0.661-1.926-1.033
			c-0.641-0.35-1.244-0.756-1.85-1.161c-0.617-0.388-1.188-0.838-1.772-1.272c-1.16-0.878-2.258-1.836-3.312-2.837
			c-1.053-1.004-2.04-2.074-2.991-3.176c-0.925-1.124-1.821-2.273-2.625-3.493c-0.821-1.206-1.544-2.482-2.197-3.8
			c-0.622-1.334-1.177-2.712-1.503-4.196l1.368-0.196l0.33,3.057l0.423,3.041l0.531,3.019l0.656,2.988l0.797,2.948l0.955,2.894
			c0.373,0.937,0.722,1.873,1.11,2.81l1.296,2.771c1.854,3.58,4.242,6.885,7.132,9.658c2.883,2.765,6.298,4.99,10.033,6.193
			c1.866,0.591,3.815,0.893,5.747,0.816c1.931-0.076,3.838-0.528,5.591-1.357c1.755-0.823,3.347-2.007,4.73-3.415
			c1.391-1.396,2.576-3.052,3.554-4.773c0.51-0.818,0.975-1.822,1.417-2.688l1.222-2.815c0.865-1.858,1.521-3.803,2.222-5.731
			l0.522-1.449l0.458-1.469l0.92-2.942c0.588-1.973,1.071-3.984,1.636-5.969L69.805,29.896z"/>
	</g>
</g>
<g>
	<path fill="#47F0F4" d="M88.834,169.821c-13.254,4.668-38.531,5.631-52.436,5.354c-11.332-0.22-26.124-0.465-35.504-7.921
		c0.354-13.306,0.489-21.552,0.634-36.338c0.13-13.302-0.111-64.907,0.817-65.822c1.861-1.827,6.565-11.185,6.823-18.213
		C9.483,38.517,8.926,30.135,8.5,21.798C8.235,16.631,8.229,10.309,7.691,3.407c1.282-0.111,4.877,0.017,6.139-0.043
		c2.697,0.052,5.348,0.057,7.818-0.071l0.064,4.844c-0.085-0.008-0.212,0.031-0.205,0.102c0.949,16.385-1.362,28.076,7.178,42.953
		c4.678,8.13,15.001,11.985,22.199,8.312c7.453-3.804,9.91-13.583,11.753-22.955c2.145-10.908,1.601-23.782,3.019-35.39
		c3.174-0.447,10.941,0.516,12.135,0.275c0.022,18.936-3.372,37.478,2.42,53.683c0.438,1.123,3.298,6.904,4.12,7.722
		c-1.675,4.02-1.678,22.872-1.675,30.201C82.66,111.296,87.309,157.062,88.834,169.821z"/>
	<path fill="#1D1E1C" d="M88.864,169.917l-2.665,0.894l-2.719,0.76c-1.824,0.445-3.655,0.87-5.502,1.215
		c-1.845,0.355-3.697,0.676-5.557,0.944c-1.857,0.285-3.721,0.521-5.586,0.743c-7.47,0.81-14.973,1.255-22.484,1.428
		c-3.754,0.104-7.521,0.06-11.269-0.02c-3.755-0.078-7.524-0.222-11.288-0.614c-3.761-0.389-7.523-1.029-11.183-2.145
		c-3.65-1.117-7.21-2.759-10.274-5.168c-0.226-0.178-0.342-0.444-0.338-0.711l0.001-0.014l0.235-10.33
		c0.075-3.443,0.184-6.887,0.217-10.331l0.267-20.664c0.034-6.89,0.153-13.782,0.229-20.675l0.325-20.679l0.2-10.341
		c0.044-1.724,0.094-3.447,0.169-5.173c0.039-0.863,0.082-1.726,0.154-2.594c0.046-0.445,0.057-0.842,0.193-1.355
		c-0.002-0.052,0.135-0.251,0.15-0.25l0.107-0.12l0.215-0.241l0.367-0.489c1.893-2.801,3.288-5.996,4.387-9.223
		c0.544-1.621,0.998-3.273,1.287-4.952c0.317-1.677,0.349-3.362,0.38-5.098c0.129-6.872-0.259-13.754-0.653-20.633
		c-0.215-3.448-0.332-6.886-0.459-10.335L7.545,8.589L7.201,3.445L7.199,3.413C7.182,3.156,7.375,2.935,7.631,2.918l0.018-0.001
		c0.594-0.018,1.207-0.062,1.785-0.055l1.751-0.002c0.577-0.001,1.169,0.013,1.734-0.002l0.854-0.015l0.9,0.001l1.744,0.005
		c0.581-0.004,1.167,0.015,1.742-0.007l3.459-0.111h0.009c0.312-0.01,0.572,0.234,0.582,0.547l0.001,0.007l0.088,4.844l-0.64,0.592
		c0.069,0.003,0.075,0.001,0.134-0.017c0.028-0.014,0.069-0.024,0.146-0.096c0.025-0.022,0.101-0.113,0.119-0.184
		c0.048-0.049,0.033-0.314,0.036-0.207l0.014,0.258l0.027,0.518l0.056,1.034c0.038,0.688,0.074,1.378,0.095,2.073
		c0.055,1.389,0.096,2.773,0.124,4.154c0.068,2.765,0.093,5.526,0.199,8.272c0.107,2.747,0.287,5.482,0.637,8.189
		c0.373,2.703,0.939,5.368,1.721,7.968c0.777,2.604,1.865,5.101,3.061,7.538l0.975,1.791c0.161,0.29,0.326,0.616,0.484,0.876
		c0.182,0.289,0.361,0.604,0.544,0.856c0.725,1.071,1.581,2.109,2.532,3.017c1.903,1.831,4.186,3.266,6.652,4.18
		c2.464,0.896,5.136,1.275,7.684,0.865c1.266-0.186,2.519-0.611,3.615-1.174c0.641-0.344,1.119-0.639,1.654-1.029
		c0.518-0.383,1.018-0.794,1.477-1.251c1.867-1.808,3.236-4.126,4.302-6.575c1.06-2.463,1.833-5.071,2.476-7.721
		c0.635-2.665,1.184-5.327,1.627-8.05c0.417-2.664,0.699-5.406,0.903-8.136c0.208-2.736,0.335-5.485,0.479-8.241
		c0.283-5.51,0.516-11.056,1.189-16.598l0.002-0.016c0.059-0.476,0.434-0.834,0.888-0.891c1.126-0.141,2.159-0.134,3.198-0.119
		c1.034,0.023,2.058,0.074,3.076,0.133l3.036,0.195l1.496,0.084l0.725,0.022c0.228,0.002,0.458-0.009,0.546-0.017l0.123-0.011
		c0.562-0.049,1.057,0.367,1.105,0.93l0.004,0.089c-0.008,10.543-1.045,20.989-1.029,31.387c0.031,5.192,0.365,10.385,1.406,15.438
		c0.254,1.264,0.563,2.515,0.909,3.754c0.188,0.615,0.353,1.238,0.564,1.846l0.304,0.915c0.092,0.246,0.229,0.548,0.36,0.831
		c0.541,1.167,1.122,2.336,1.72,3.484c0.299,0.575,0.604,1.146,0.918,1.703c0.157,0.279,0.318,0.554,0.48,0.815
		c0.153,0.251,0.353,0.543,0.453,0.653l0.018,0.02c0.221,0.244,0.271,0.584,0.16,0.872c-0.342,0.874-0.526,1.996-0.684,3.065
		c-0.153,1.084-0.265,2.186-0.36,3.29c-0.188,2.211-0.306,4.437-0.397,6.664c-0.179,4.457-0.269,8.925-0.311,13.394
		c-0.031,2.242-0.029,4.462,0,6.7c0.054,2.231,0.105,4.451,0.215,6.686c0.182,4.463,0.467,8.926,0.752,13.387
		c0.613,8.922,1.316,17.841,2.08,26.754c0.774,8.913,1.594,17.823,2.555,26.718C88.938,169.857,88.908,169.901,88.864,169.917z
		 M88.726,169.749c-1.104-8.854-2.069-17.723-2.987-26.597l-1.317-13.36c-0.423-4.456-0.789-8.917-1.151-13.379
		c-0.335-4.465-0.672-8.929-0.904-13.404c-0.136-2.233-0.215-4.486-0.293-6.727c-0.054-2.234-0.084-4.488-0.085-6.721
		c-0.015-4.479-0.003-8.959,0.14-13.445c0.072-2.243,0.172-4.486,0.344-6.736c0.088-1.124,0.192-2.25,0.343-3.382
		c0.167-1.14,0.308-2.251,0.765-3.473l0.178,0.892c-0.342-0.373-0.49-0.641-0.688-0.941c-0.184-0.293-0.355-0.583-0.52-0.874
		c-0.333-0.581-0.646-1.163-0.954-1.749c-0.614-1.172-1.204-2.345-1.77-3.55c-0.144-0.311-0.283-0.604-0.422-0.97l-0.325-0.944
		c-0.227-0.627-0.405-1.269-0.605-1.903c-0.372-1.277-0.706-2.566-0.983-3.866c-1.13-5.2-1.528-10.508-1.618-15.778
		c-0.09-5.275,0.155-10.528,0.406-15.758c0.248-5.229,0.494-10.444,0.484-15.647l1.232,1.008c-0.415,0.063-0.691,0.056-0.97,0.06
		L76.23,2.479l-1.537-0.083l-3.028-0.188c-1.003-0.056-2.004-0.104-2.995-0.123c-0.984-0.015-1.982-0.009-2.868,0.105l0.89-0.905
		c-0.649,5.429-0.87,10.931-1.142,16.45c-0.131,2.761-0.295,5.528-0.516,8.299c-0.225,2.776-0.521,5.531-0.974,8.322
		c-0.46,2.726-1.039,5.475-1.7,8.177c-0.674,2.712-1.487,5.416-2.625,8.024c-1.147,2.593-2.642,5.127-4.766,7.165
		c-0.522,0.514-1.095,0.98-1.688,1.415c-0.579,0.424-1.285,0.846-1.864,1.147c-1.36,0.693-2.767,1.146-4.233,1.36
		c-2.923,0.452-5.894,0-8.601-1c-2.712-1.014-5.184-2.612-7.237-4.636c-1.033-1.013-1.936-2.125-2.742-3.35
		c-0.215-0.312-0.374-0.601-0.556-0.898c-0.197-0.333-0.338-0.626-0.509-0.941l-0.984-1.858c-1.207-2.532-2.301-5.129-3.074-7.832
		c-0.778-2.698-1.329-5.455-1.68-8.229c-0.326-2.776-0.476-5.559-0.553-8.331c-0.075-2.774-0.068-5.536-0.104-8.294
		c-0.013-1.38-0.037-2.756-0.075-4.128c-0.013-0.686-0.041-1.375-0.071-2.065L20.954,9.05l-0.022-0.518l-0.01-0.259
		c0,0.086-0.008-0.202,0.042-0.272c0.031-0.086,0.114-0.199,0.157-0.234c0.108-0.102,0.188-0.133,0.257-0.16
		c0.14-0.048,0.233-0.063,0.388-0.054l-0.639,0.592l-0.041-4.844l0.592,0.554l-3.519,0.077c-0.587,0.016-1.165-0.009-1.747-0.012
		l-1.745-0.022l-0.845-0.012l-0.891,0.007c-0.598,0.009-1.169-0.011-1.755-0.014L9.438,3.863C8.853,3.85,8.304,3.889,7.734,3.897
		l0.447-0.528l0.295,5.175l0.177,5.173c0.091,3.438,0.179,6.892,0.354,10.324c0.329,6.882,0.72,13.777,0.555,20.691
		c-0.035,1.708-0.079,3.48-0.414,5.195c-0.306,1.718-0.777,3.396-1.338,5.037c-0.56,1.643-1.213,3.251-1.944,4.823
		c-0.735,1.572-1.521,3.115-2.519,4.574l-0.406,0.546l-0.214,0.243L2.62,65.272c-0.062,0.076,0.017-0.031-0.015,0.022
		c-0.084,0.32-0.117,0.792-0.15,1.201c-0.063,0.851-0.099,1.71-0.13,2.568c-0.061,1.718-0.095,3.439-0.124,5.16
		c-0.048,3.443-0.094,6.889-0.081,10.334l0.127,20.674c0.043,6.892,0.159,13.783,0.147,20.678c0.012,6.901-0.131,13.79-0.189,20.687
		c-0.023,3.446-0.123,6.894-0.188,10.34l-0.229,10.341l-0.337-0.724c2.825,2.255,6.17,3.839,9.668,4.937
		c3.506,1.095,7.163,1.749,10.851,2.155c3.689,0.411,7.415,0.58,11.151,0.685c3.744,0.106,7.474,0.164,11.213,0.155
		c7.477-0.021,14.958-0.313,22.406-0.969c1.861-0.171,3.725-0.332,5.58-0.556c1.858-0.204,3.711-0.46,5.557-0.75
		c1.849-0.281,3.683-0.641,5.513-1.021l2.72-0.661L88.726,169.749z"/>
</g>
<path fill="#47F0F4" stroke="#1D1E1C" stroke-linecap="round" stroke-linejoin="round" stroke-miterlimit="10" d="M88.834,169.821
	c-13.254,4.668-38.531,5.631-52.436,5.354c-11.332-0.22-26.124-0.465-35.504-7.921c0.354-13.306,0.489-21.552,0.634-36.338
	c0.13-13.302-0.111-64.907,0.817-65.822c1.861-1.827,6.565-11.185,6.823-18.213C9.483,38.517,8.926,30.135,8.5,21.798
	C8.235,16.631,8.229,10.309,7.691,3.407c1.282-0.111,4.877,0.017,6.139-0.043c2.697,0.052,5.348,0.057,7.818-0.071l0.064,4.844
	c-0.085-0.008-0.212,0.031-0.205,0.102c0.949,16.385-1.362,28.076,7.178,42.953c4.678,8.13,15.001,11.985,22.199,8.312
	c7.453-3.804,9.91-13.583,11.753-22.955c2.145-10.908,1.601-23.782,3.019-35.39c3.174-0.447,10.941,0.516,12.135,0.275
	c0.022,18.936-3.372,37.478,2.42,53.683c0.438,1.123,3.298,6.904,4.12,7.722c-1.675,4.02-1.678,22.872-1.675,30.201
	C82.66,111.296,87.309,157.062,88.834,169.821z"/>
</svg>
