<?xml version="1.0" encoding="utf-8"?>
<!-- Generator: Adobe Illustrator 16.0.0, SVG Export Plug-In . SVG Version: 6.00 Build 0)  -->
<!DOCTYPE svg PUBLIC "-//W3C//DTD SVG 1.1//EN" "http://www.w3.org/Graphics/SVG/1.1/DTD/svg11.dtd">
<svg version="1.1" id="Layer_1" xmlns="http://www.w3.org/2000/svg" xmlns:xlink="http://www.w3.org/1999/xlink" x="0px" y="0px"
	 width="120.807px" height="120.693px" viewBox="0 0 120.807 120.693" enable-background="new 0 0 120.807 120.693"
	 xml:space="preserve">
<g>
	<g>
		<path fill="#F970A2" d="M83.928,6.335C79.24,2.7,71.427,2.944,69.423,3.069c0,0-9.078-3.92-15.492-1.502
			c-28.055,10.584-1.908,41.873,0.527,44.582c3.52,3.92,4.292,13.227,4.292,13.227l3.487,0.522c0,0,3.512-8.419,8.031-11.122
			C73.396,46.905,107.612,24.727,83.928,6.335z"/>
		<path d="M83.871,6.417l-0.779-0.538c-0.26-0.181-0.542-0.312-0.811-0.47c-0.266-0.162-0.557-0.283-0.841-0.414
			c-0.283-0.135-0.57-0.26-0.867-0.362c-0.296-0.104-0.583-0.232-0.887-0.313l-0.904-0.257c-0.611-0.146-1.224-0.281-1.843-0.38
			c-1.237-0.211-2.491-0.309-3.744-0.333c-1.252-0.024-2.506,0.014-3.746,0.132c-0.054,0.005-0.105-0.002-0.152-0.02l-0.037-0.014
			c-1.604-0.593-3.295-1.047-4.98-1.378c-1.688-0.332-3.399-0.515-5.085-0.51c-1.684-0.003-3.351,0.235-4.859,0.791
			c-0.726,0.296-1.585,0.686-2.371,1.024L49.75,4.547c-1.406,0.917-2.798,1.875-3.932,3.092c-1.191,1.165-2.113,2.565-2.831,4.062
			c-0.747,1.496-1.081,3.169-1.282,4.844c-0.207,1.688-0.057,3.411,0.157,5.115c0.232,1.71,0.705,3.385,1.226,5.041
			c0.57,1.642,1.235,3.253,1.996,4.822c0.77,1.563,1.616,3.09,2.533,4.574s1.865,2.95,2.899,4.354
			c1.038,1.402,2.115,2.775,3.246,4.095l0.857,0.977l0.217,0.236l0.231,0.276l0.421,0.505c0.556,0.769,1.031,1.573,1.407,2.39
			c0.771,1.643,1.326,3.357,1.759,5.091c0.416,1.744,0.734,3.479,0.94,5.285l-0.718-0.767l3.496,0.466l-0.967,0.545
			c0.576-1.363,1.205-2.644,1.906-3.92c0.701-1.27,1.465-2.512,2.333-3.702c0.873-1.186,1.851-2.327,3.062-3.306
			c0.302-0.245,0.642-0.459,0.964-0.688l0.874-0.563c0.576-0.38,1.151-0.779,1.723-1.179c2.295-1.595,4.49-3.338,6.6-5.166
			c1.048-0.922,2.083-1.858,3.066-2.843c0.991-0.978,1.944-1.993,2.842-3.049c0.919-1.04,1.765-2.136,2.566-3.26l1.147-1.72
			c0.332-0.599,0.707-1.182,1.009-1.796c0.285-0.622,0.64-1.219,0.868-1.864l0.384-0.954c0.112-0.323,0.199-0.653,0.302-0.979
			c0.421-1.308,0.591-2.67,0.677-4.04c-0.033-0.681-0.017-1.375-0.115-2.055c-0.133-0.673-0.174-1.374-0.414-2.026
			c-0.191-0.666-0.384-1.335-0.697-1.96L90.08,13.52c-0.167-0.307-0.357-0.601-0.538-0.901l-0.548-0.898l-0.643-0.835
			c-0.425-0.561-0.851-1.124-1.365-1.608c-0.946-1.051-2.048-1.939-3.119-2.862L83.871,6.417z M83.99,6.256
			c1.092,0.911,2.215,1.789,3.188,2.835c0.246,0.257,0.517,0.492,0.749,0.762l0.689,0.82l0.688,0.823l0.597,0.894l0.598,0.896
			l0.503,0.956c0.367,0.625,0.616,1.305,0.864,1.988c0.295,0.668,0.394,1.396,0.581,2.102c0.153,0.713,0.188,1.447,0.271,2.176
			c0.021,1.461-0.055,2.943-0.397,4.373c-0.082,0.357-0.151,0.72-0.246,1.075l-0.331,1.048c-0.2,0.71-0.509,1.373-0.785,2.053
			c-0.287,0.674-0.646,1.31-0.967,1.968c-0.368,0.627-0.722,1.269-1.117,1.88c-0.803,1.213-1.651,2.395-2.572,3.513
			c-0.917,1.123-1.894,2.19-2.904,3.22c-1.004,1.038-2.058,2.021-3.124,2.989c-2.161,1.903-4.432,3.669-6.794,5.311
			c-0.594,0.409-1.194,0.802-1.809,1.192l-0.925,0.571c-0.257,0.181-0.524,0.336-0.776,0.533c-1.014,0.785-1.926,1.792-2.75,2.873
			c-0.825,1.086-1.573,2.249-2.265,3.449c-0.688,1.195-1.332,2.453-1.885,3.691l-0.015,0.033c-0.167,0.375-0.564,0.576-0.952,0.512
			l-3.479-0.579l-0.016-0.002c-0.39-0.065-0.672-0.388-0.702-0.765c-0.135-1.683-0.39-3.413-0.734-5.091
			c-0.353-1.68-0.787-3.346-1.433-4.911c-0.318-0.794-0.708-1.521-1.138-2.201l-0.395-0.526l-0.179-0.237l-0.217-0.257l-0.833-1.037
			c-1.091-1.392-2.117-2.826-3.102-4.287c-0.988-1.458-1.945-2.938-2.84-4.456c-0.909-1.509-1.717-3.077-2.5-4.655
			c-0.796-1.574-1.459-3.211-2.1-4.859c-0.587-1.668-1.114-3.364-1.467-5.114c-0.318-1.75-0.573-3.542-0.454-5.355
			c0.115-1.798,0.387-3.639,1.119-5.337c0.701-1.693,1.651-3.331,2.943-4.649c0.59-0.718,1.316-1.281,2.006-1.889
			c0.71-0.58,1.497-1.044,2.244-1.569c0.809-0.428,1.618-0.899,2.434-1.285c0.831-0.338,1.573-0.664,2.476-1.012
			c1.795-0.644,3.678-0.774,5.491-0.7c1.821,0.088,3.594,0.435,5.318,0.893c1.728,0.469,3.398,1.046,5.039,1.779l-0.188-0.033
			c2.562-0.068,5.111,0.176,7.606,0.67c0.624,0.125,1.24,0.286,1.853,0.458l0.908,0.294c0.306,0.086,0.597,0.219,0.896,0.328
			c0.3,0.107,0.59,0.237,0.876,0.377c0.288,0.137,0.58,0.262,0.853,0.432c0.273,0.165,0.565,0.307,0.822,0.49l0.774,0.546
			L83.99,6.256z"/>
	</g>
	<g>
		<path fill="#F970A2" d="M14.672,21.705c-4.911,3.337-7.091,10.838-7.589,12.788c0,0-6.533,7.43-6.212,14.271
			C2.264,78.71,40.103,63.509,43.433,62.035c4.811-2.137,13.901,0.006,13.901,0.006l1.582-3.156c0,0-6.929-5.942-8.101-11.073
			C50.001,44.259,39.477,4.866,14.672,21.705z"/>
		<path d="M14.73,21.786l-0.75,0.574c-0.252,0.191-0.464,0.418-0.698,0.625c-0.236,0.203-0.441,0.442-0.654,0.672
			c-0.216,0.228-0.424,0.461-0.613,0.713c-0.19,0.249-0.401,0.482-0.573,0.746l-0.524,0.781c-0.328,0.536-0.646,1.077-0.932,1.635
			c-0.583,1.111-1.063,2.274-1.473,3.458c-0.41,1.183-0.761,2.389-1.03,3.604c-0.012,0.053-0.035,0.1-0.066,0.14l-0.024,0.03
			c-1.059,1.343-2.013,2.811-2.848,4.312c-0.837,1.504-1.539,3.074-2.056,4.679c-0.523,1.601-0.812,3.259-0.749,4.865
			c0.057,0.783,0.163,1.72,0.241,2.572l0.431,2.468c0.438,1.62,0.918,3.24,1.725,4.694c0.74,1.493,1.787,2.801,2.988,3.947
			c1.191,1.172,2.68,2.006,4.211,2.715c1.541,0.718,3.226,1.107,4.913,1.431c1.699,0.307,3.437,0.375,5.172,0.391
			c1.737-0.034,3.475-0.17,5.202-0.408c1.725-0.249,3.438-0.582,5.132-0.995c1.694-0.414,3.381-0.862,5.037-1.411
			c1.654-0.554,3.292-1.153,4.898-1.82l1.194-0.514l0.292-0.133l0.333-0.135l0.61-0.244c0.903-0.292,1.815-0.496,2.707-0.601
			c1.801-0.226,3.603-0.224,5.385-0.099c1.787,0.144,3.536,0.377,5.316,0.74l-0.95,0.444l1.531-3.181l0.219,1.089
			c-1.118-0.969-2.143-1.962-3.141-3.023c-0.992-1.059-1.938-2.168-2.801-3.362c-0.859-1.196-1.643-2.478-2.2-3.933
			c-0.139-0.362-0.238-0.753-0.356-1.129l-0.265-1.005c-0.183-0.666-0.385-1.336-0.589-2.003c-0.808-2.675-1.788-5.302-2.874-7.873
			c-0.553-1.281-1.124-2.555-1.757-3.795c-0.624-1.245-1.294-2.464-2.022-3.645c-0.705-1.195-1.486-2.338-2.307-3.448l-1.282-1.623
			c-0.467-0.501-0.905-1.038-1.396-1.516c-0.503-0.463-0.961-0.985-1.504-1.4l-0.789-0.66c-0.271-0.208-0.559-0.392-0.838-0.59
			c-1.113-0.805-2.356-1.388-3.633-1.893c-0.658-0.179-1.313-0.409-1.99-0.526c-0.681-0.082-1.36-0.259-2.055-0.232
			c-0.692-0.023-1.389-0.048-2.08,0.057l-1.043,0.105c-0.343,0.063-0.682,0.154-1.023,0.232l-1.024,0.243l-0.993,0.353
			c-0.664,0.231-1.332,0.461-1.952,0.802C17.123,20.281,15.939,21.053,14.73,21.786z M14.614,21.624
			c1.204-0.757,2.388-1.556,3.684-2.158c0.321-0.155,0.627-0.34,0.957-0.477l0.993-0.402l0.996-0.399l1.035-0.292l1.037-0.291
			l1.064-0.183c0.708-0.156,1.431-0.182,2.157-0.207c0.728-0.075,1.45,0.057,2.179,0.097c0.725,0.076,1.435,0.268,2.153,0.415
			c1.396,0.432,2.783,0.962,4.035,1.73c0.314,0.188,0.639,0.366,0.946,0.566l0.895,0.639c0.613,0.41,1.148,0.908,1.709,1.381
			c0.553,0.481,1.046,1.019,1.573,1.527c0.482,0.544,0.984,1.078,1.442,1.643c0.906,1.139,1.767,2.311,2.546,3.533
			c0.785,1.219,1.498,2.478,2.166,3.756c0.676,1.276,1.286,2.582,1.877,3.895c1.142,2.644,2.121,5.349,2.953,8.103
			c0.205,0.69,0.394,1.383,0.575,2.087l0.257,1.057c0.093,0.3,0.157,0.603,0.267,0.903c0.433,1.206,1.11,2.385,1.883,3.503
			c0.778,1.119,1.654,2.189,2.582,3.218c0.924,1.023,1.921,2.024,2.929,2.931l0.027,0.025c0.306,0.275,0.374,0.716,0.192,1.065
			l-1.633,3.13l-0.007,0.015c-0.183,0.35-0.576,0.518-0.943,0.43c-1.642-0.392-3.366-0.684-5.067-0.876
			c-1.707-0.184-3.425-0.286-5.113-0.155c-0.854,0.058-1.666,0.204-2.444,0.403l-0.622,0.213l-0.281,0.098l-0.312,0.127
			l-1.244,0.471c-1.661,0.606-3.341,1.139-5.035,1.624c-1.692,0.489-3.395,0.942-5.115,1.323c-1.716,0.397-3.457,0.682-5.2,0.939
			c-1.743,0.271-3.505,0.396-5.27,0.496c-1.768,0.043-3.543,0.021-5.316-0.185c-1.762-0.238-3.546-0.549-5.233-1.222
			c-1.674-0.665-3.342-1.491-4.73-2.713c-1.394-1.189-2.658-2.599-3.512-4.235c-0.5-0.783-0.812-1.647-1.177-2.491
			c-0.332-0.854-0.531-1.746-0.799-2.619c-0.157-0.902-0.355-1.816-0.47-2.711c-0.064-0.894-0.145-1.702-0.196-2.667
			c-0.058-1.907,0.399-3.737,1.03-5.438c0.646-1.704,1.523-3.283,2.492-4.782c0.979-1.498,2.043-2.909,3.247-4.244l-0.09,0.17
			c0.725-2.461,1.744-4.81,2.986-7.031c0.312-0.555,0.655-1.091,1.008-1.62l0.56-0.773c0.177-0.264,0.393-0.5,0.589-0.75
			c0.194-0.252,0.408-0.487,0.63-0.716c0.219-0.231,0.429-0.47,0.675-0.678c0.241-0.208,0.467-0.442,0.721-0.63L14.614,21.624z"/>
	</g>
	<g>
		<path fill="#F970A2" d="M7.888,92.32c1.654,5.703,8.118,10.094,9.817,11.168c0,0,5.041,8.512,11.651,10.322
			c28.914,7.926,26.154-32.758,25.771-36.377c-0.542-5.24,4.3-13.225,4.3-13.225l-2.509-2.475c0,0-7.787,4.748-13.036,4.279
			C40.255,65.689-0.463,63.525,7.888,92.32z"/>
		<path d="M7.983,92.29l0.314,0.892c0.104,0.299,0.254,0.57,0.378,0.857c0.12,0.287,0.284,0.556,0.437,0.829
			c0.15,0.275,0.308,0.546,0.488,0.803c0.178,0.259,0.335,0.531,0.533,0.775l0.581,0.74c0.408,0.478,0.824,0.946,1.267,1.392
			c0.877,0.897,1.834,1.714,2.834,2.469c0.999,0.756,2.038,1.462,3.11,2.093c0.047,0.027,0.085,0.064,0.113,0.106l0.021,0.032
			c0.949,1.423,2.05,2.784,3.219,4.042c1.171,1.262,2.447,2.415,3.814,3.402c1.36,0.992,2.849,1.779,4.395,2.216
			c0.761,0.188,1.686,0.377,2.521,0.565l2.48,0.353c1.676,0.085,3.366,0.128,4.998-0.189c1.648-0.242,3.217-0.833,4.677-1.622
			c1.483-0.771,2.737-1.929,3.884-3.165c1.159-1.244,2.051-2.726,2.88-4.23c0.817-1.521,1.419-3.152,1.971-4.798
			c0.504-1.663,0.913-3.358,1.22-5.074c0.295-1.717,0.508-3.45,0.638-5.189c0.13-1.738,0.225-3.481,0.213-5.227
			c-0.016-1.743-0.08-3.487-0.22-5.221l-0.121-1.293l-0.037-0.318l-0.025-0.361l-0.043-0.655c0.003-0.949,0.091-1.879,0.267-2.761
			c0.342-1.782,0.9-3.495,1.569-5.152c0.688-1.656,1.45-3.247,2.344-4.829l0.129,1.041l-2.548-2.435l1.104,0.128
			c-1.268,0.765-2.529,1.432-3.846,2.052c-1.313,0.616-2.661,1.172-4.063,1.624c-1.403,0.447-2.865,0.796-4.42,0.876
			c-0.388,0.021-0.789-0.006-1.184-0.01l-1.039-0.059c-0.689-0.031-1.39-0.047-2.087-0.059c-2.793-0.059-5.594,0.062-8.375,0.3
			c-1.389,0.13-2.777,0.279-4.152,0.498c-1.376,0.209-2.744,0.47-4.091,0.797c-1.355,0.302-2.683,0.691-3.993,1.129L18.2,70.371
			c-0.621,0.289-1.267,0.54-1.873,0.86c-0.596,0.335-1.234,0.61-1.797,0.997l-0.872,0.547c-0.281,0.194-0.545,0.41-0.82,0.615
			c-1.109,0.81-2.048,1.812-2.922,2.87c-0.374,0.57-0.795,1.122-1.116,1.729c-0.288,0.623-0.666,1.214-0.856,1.883
			c-0.236,0.651-0.475,1.306-0.588,1.995l-0.222,1.024c-0.045,0.346-0.064,0.696-0.095,1.045l-0.085,1.049l0.029,1.054
			c0.015,0.703,0.027,1.409,0.16,2.104C7.291,89.55,7.659,90.914,7.983,92.29z M7.793,92.35c-0.348-1.379-0.742-2.752-0.914-4.17
			c-0.048-0.353-0.129-0.702-0.158-1.058l-0.076-1.068l-0.072-1.07l0.042-1.073l0.043-1.077l0.155-1.068
			c0.07-0.722,0.269-1.417,0.469-2.115c0.154-0.715,0.502-1.361,0.765-2.043c0.296-0.666,0.699-1.281,1.06-1.919
			c0.841-1.194,1.774-2.35,2.892-3.304c0.277-0.24,0.545-0.494,0.831-0.725l0.885-0.653c0.58-0.457,1.218-0.812,1.842-1.199
			c0.628-0.378,1.292-0.681,1.939-1.024c0.667-0.291,1.329-0.603,2.008-0.864c1.362-0.51,2.744-0.967,4.146-1.33
			c1.401-0.369,2.819-0.658,4.242-0.898c1.422-0.249,2.853-0.426,4.284-0.582c2.867-0.269,5.742-0.363,8.618-0.304
			c0.72,0.019,1.437,0.053,2.163,0.099l1.083,0.082c0.314,0.004,0.622,0.036,0.941,0.024c1.281-0.039,2.611-0.318,3.914-0.708
			c1.305-0.394,2.594-0.896,3.858-1.459c1.259-0.562,2.519-1.202,3.693-1.879l0.032-0.018c0.356-0.206,0.797-0.134,1.073,0.146
			l2.469,2.515l0.011,0.012c0.276,0.281,0.314,0.708,0.118,1.029c-0.879,1.441-1.689,2.991-2.397,4.551
			c-0.701,1.566-1.329,3.17-1.727,4.815c-0.209,0.83-0.321,1.647-0.373,2.45l0.01,0.657l0.006,0.296l0.024,0.336l0.065,1.329
			c0.065,1.767,0.053,3.53-0.008,5.291c-0.058,1.761-0.152,3.521-0.321,5.273c-0.152,1.756-0.419,3.499-0.714,5.236
			c-0.281,1.741-0.707,3.456-1.157,5.165c-0.505,1.695-1.076,3.377-1.819,5c-0.771,1.603-1.619,3.202-2.78,4.599
			c-1.15,1.387-2.451,2.717-4.042,3.66c-1.562,0.957-3.293,1.725-5.113,2.031c-0.899,0.234-1.818,0.263-2.733,0.35
			c-0.915,0.052-1.825-0.034-2.738-0.05c-0.906-0.129-1.837-0.223-2.724-0.391c-0.871-0.215-1.663-0.388-2.598-0.638
			c-1.831-0.534-3.431-1.534-4.854-2.66c-1.421-1.142-2.651-2.465-3.777-3.849c-1.122-1.395-2.134-2.845-3.03-4.402l0.134,0.139
			c-2.117-1.448-4.036-3.144-5.765-5.012c-0.432-0.468-0.835-0.96-1.23-1.459l-0.562-0.771c-0.197-0.25-0.354-0.528-0.532-0.792
			c-0.18-0.263-0.337-0.54-0.487-0.821c-0.152-0.279-0.314-0.553-0.436-0.851c-0.124-0.294-0.276-0.581-0.376-0.881L7.793,92.35z"/>
	</g>
	<g>
		<path fill="#F970A2" d="M72.949,120.593c5.934,0.186,12.108-4.604,13.654-5.887c0,0,9.652-2.16,13.418-7.887
			c16.473-25.049-23.07-34.998-26.633-35.756c-5.148-1.1-11.247-8.174-11.247-8.174l-3.128,1.621c0,0,2.111,8.875,0.041,13.721
			C57.622,81.58,42.984,119.636,72.949,120.593z"/>
		<path d="M72.947,120.494l0.947-0.023c0.316-0.007,0.621-0.066,0.932-0.096c0.311-0.025,0.617-0.099,0.924-0.159
			c0.309-0.058,0.614-0.125,0.915-0.217c0.301-0.09,0.607-0.155,0.901-0.268l0.884-0.323c0.58-0.241,1.154-0.492,1.714-0.775
			c1.125-0.557,2.197-1.215,3.225-1.933c1.027-0.716,2.02-1.485,2.951-2.311c0.041-0.036,0.088-0.061,0.137-0.075l0.037-0.01
			c1.646-0.463,3.281-1.089,4.84-1.811c1.562-0.724,3.054-1.58,4.415-2.574c1.363-0.987,2.572-2.159,3.466-3.495
			c0.413-0.666,0.879-1.486,1.315-2.223l1.103-2.25c0.598-1.568,1.161-3.161,1.363-4.812c0.278-1.643,0.201-3.317-0.098-4.95
			c-0.274-1.648-0.988-3.198-1.811-4.672c-0.824-1.486-1.958-2.793-3.133-4.046c-1.193-1.247-2.56-2.324-3.954-3.357
			c-1.426-0.993-2.911-1.906-4.448-2.729c-1.542-0.812-3.124-1.55-4.737-2.211s-3.242-1.29-4.904-1.818
			c-1.664-0.524-3.342-1.003-5.033-1.405l-1.268-0.286l-0.314-0.063l-0.35-0.087l-0.638-0.161c-0.902-0.295-1.759-0.666-2.543-1.105
			c-1.59-0.876-3.047-1.936-4.416-3.084c-1.362-1.166-2.641-2.382-3.868-3.722l1.03,0.198l-3.102,1.672l0.463-1.011
			c0.335,1.441,0.58,2.848,0.763,4.292c0.18,1.439,0.292,2.894,0.289,4.366c-0.009,1.473-0.128,2.971-0.533,4.475
			c-0.101,0.375-0.25,0.749-0.376,1.123l-0.377,0.97c-0.243,0.646-0.475,1.307-0.701,1.966c-0.919,2.639-1.671,5.339-2.304,8.058
			c-0.306,1.361-0.593,2.728-0.809,4.103c-0.227,1.374-0.401,2.755-0.506,4.137c-0.132,1.382-0.172,2.766-0.16,4.146l0.084,2.065
			c0.083,0.681,0.122,1.372,0.239,2.047c0.135,0.67,0.199,1.362,0.394,2.018l0.25,0.997c0.098,0.328,0.222,0.646,0.332,0.97
			c0.427,1.306,1.091,2.508,1.826,3.667c0.427,0.531,0.822,1.103,1.3,1.596c0.503,0.466,0.949,1.009,1.526,1.396
			c0.546,0.426,1.095,0.855,1.716,1.177l0.905,0.527c0.315,0.15,0.643,0.276,0.965,0.413l0.972,0.405l1.011,0.298
			c0.673,0.204,1.349,0.41,2.05,0.499c1.384,0.294,2.797,0.365,4.205,0.482H72.947z M72.946,120.693
			c-1.419-0.095-2.844-0.145-4.246-0.419c-0.351-0.063-0.707-0.095-1.054-0.177l-1.04-0.258l-1.04-0.263l-1.009-0.372l-1.01-0.374
			l-0.969-0.478c-0.665-0.29-1.265-0.693-1.867-1.101c-0.632-0.367-1.139-0.898-1.706-1.359c-0.542-0.487-1.003-1.06-1.498-1.601
			c-0.876-1.17-1.686-2.414-2.248-3.771c-0.144-0.337-0.302-0.671-0.433-1.014l-0.348-1.043c-0.255-0.692-0.396-1.41-0.571-2.122
			c-0.165-0.715-0.248-1.439-0.375-2.161c-0.07-0.724-0.162-1.45-0.201-2.177c-0.063-1.453-0.071-2.908,0.017-4.354
			c0.082-1.446,0.245-2.885,0.457-4.312c0.202-1.43,0.477-2.845,0.77-4.254c0.63-2.81,1.429-5.573,2.375-8.291
			c0.24-0.679,0.495-1.35,0.763-2.026l0.413-1.005c0.101-0.298,0.227-0.58,0.315-0.888c0.359-1.23,0.505-2.581,0.537-3.94
			c0.028-1.363-0.05-2.744-0.196-4.121c-0.146-1.371-0.364-2.767-0.646-4.093l-0.007-0.036c-0.085-0.402,0.118-0.799,0.47-0.975
			l3.154-1.57l0.015-0.008c0.353-0.176,0.771-0.08,1.016,0.206c1.1,1.282,2.323,2.531,3.587,3.687
			c1.273,1.15,2.604,2.243,4.047,3.13c0.724,0.455,1.467,0.813,2.214,1.11l0.629,0.193l0.284,0.086l0.326,0.081l1.284,0.35
			c1.7,0.484,3.373,1.041,5.029,1.645c1.656,0.599,3.301,1.232,4.916,1.936c1.622,0.688,3.197,1.48,4.759,2.297
			c1.569,0.806,3.068,1.74,4.555,2.697c1.455,1.004,2.878,2.066,4.192,3.274c1.285,1.229,2.545,2.528,3.515,4.065
			c0.963,1.521,1.826,3.171,2.231,4.976c0.429,1.781,0.623,3.665,0.353,5.49c-0.056,0.928-0.312,1.811-0.512,2.707
			c-0.234,0.887-0.598,1.726-0.894,2.589c-0.403,0.822-0.78,1.679-1.213,2.47c-0.474,0.762-0.883,1.462-1.409,2.273
			c-1.074,1.576-2.52,2.789-4.03,3.794c-1.525,0.998-3.164,1.76-4.829,2.402c-1.673,0.635-3.364,1.149-5.123,1.52l0.174-0.085
			c-2.032,1.565-4.238,2.866-6.548,3.934c-0.579,0.266-1.172,0.497-1.768,0.719l-0.907,0.296c-0.299,0.109-0.612,0.173-0.918,0.261
			c-0.306,0.09-0.617,0.154-0.931,0.209c-0.313,0.059-0.623,0.129-0.944,0.152c-0.317,0.027-0.638,0.083-0.953,0.086l-0.947,0.013
			H72.946z"/>
	</g>
	<g>
		<path fill="#F970A2" d="M119.942,67.453c2.015-5.584-0.633-12.938-1.372-14.805c0,0,0.918-9.849-3.359-15.199
			C96.478,14.042,74.797,48.579,72.975,51.73c-2.638,4.559-11.25,8.168-11.25,8.168l0.576,3.482c0,0,9.093,0.732,13.062,4.193
			C78.105,69.972,109.777,95.656,119.942,67.453z"/>
		<path d="M119.847,67.421l0.271-0.906c0.092-0.302,0.13-0.61,0.197-0.915c0.072-0.304,0.098-0.617,0.135-0.928
			c0.041-0.312,0.071-0.623,0.077-0.937c0.008-0.313,0.04-0.626,0.024-0.94l-0.034-0.94c-0.05-0.626-0.11-1.25-0.207-1.87
			c-0.182-1.241-0.476-2.464-0.84-3.663s-0.789-2.38-1.284-3.522c-0.021-0.049-0.03-0.101-0.028-0.151l0.001-0.039
			c0.068-1.709-0.023-3.458-0.229-5.162c-0.207-1.708-0.562-3.392-1.087-4.994c-0.517-1.603-1.258-3.114-2.251-4.377
			c-0.506-0.599-1.143-1.295-1.707-1.938l-1.799-1.743c-1.307-1.054-2.648-2.082-4.155-2.784c-1.477-0.772-3.093-1.216-4.737-1.436
			c-1.653-0.249-3.348-0.048-5.003,0.278c-1.669,0.325-3.261,1-4.816,1.73c-1.555,0.75-3.001,1.716-4.414,2.724
			c-1.386,1.049-2.713,2.18-3.97,3.387c-1.248,1.216-2.439,2.492-3.566,3.823c-1.127,1.33-2.229,2.685-3.246,4.102
			c-1.012,1.42-1.985,2.869-2.892,4.353l-0.663,1.117l-0.158,0.279l-0.19,0.306l-0.351,0.556c-0.559,0.767-1.177,1.468-1.837,2.078
			c-1.324,1.241-2.782,2.299-4.298,3.246c-1.53,0.935-3.082,1.773-4.736,2.527l0.508-0.918l0.632,3.473l-0.818-0.753
			c1.475,0.127,2.888,0.328,4.318,0.6c1.424,0.273,2.842,0.614,4.242,1.072c1.397,0.462,2.785,1.038,4.091,1.888
			c0.326,0.211,0.636,0.469,0.952,0.704l0.806,0.658c0.539,0.431,1.097,0.854,1.653,1.274c2.226,1.689,4.562,3.238,6.951,4.681
			c1.2,0.711,2.41,1.406,3.651,2.037c1.236,0.641,2.495,1.233,3.777,1.761c1.273,0.553,2.577,1.018,3.894,1.434l1.99,0.559
			c0.673,0.132,1.343,0.309,2.021,0.405c0.679,0.079,1.356,0.232,2.04,0.25l1.026,0.07c0.342,0.008,0.682-0.012,1.024-0.016
			c1.374-0.003,2.722-0.263,4.052-0.604c0.638-0.241,1.302-0.44,1.919-0.743c0.599-0.335,1.252-0.59,1.799-1.02
			c0.573-0.389,1.151-0.777,1.648-1.269l0.782-0.698c0.24-0.253,0.461-0.525,0.69-0.79l0.686-0.799l0.596-0.869
			c0.401-0.577,0.807-1.156,1.107-1.796C118.797,70.044,119.301,68.725,119.847,67.421z M120.037,67.484
			c-0.528,1.32-1.017,2.662-1.711,3.911c-0.169,0.313-0.309,0.644-0.493,0.948l-0.567,0.908l-0.57,0.909l-0.665,0.844l-0.668,0.845
			l-0.754,0.773c-0.48,0.543-1.05,0.989-1.623,1.436c-0.545,0.488-1.206,0.806-1.819,1.203c-0.631,0.364-1.318,0.626-1.985,0.93
			c-1.383,0.471-2.816,0.856-4.281,0.972c-0.365,0.032-0.732,0.08-1.099,0.099l-1.1,0.009c-0.737,0.029-1.463-0.06-2.194-0.112
			c-0.73-0.064-1.445-0.209-2.171-0.312c-0.71-0.157-1.429-0.294-2.132-0.481c-1.402-0.389-2.788-0.831-4.136-1.361
			c-1.352-0.525-2.668-1.124-3.96-1.767c-1.297-0.635-2.558-1.332-3.808-2.048c-2.477-1.467-4.858-3.081-7.149-4.82
			c-0.572-0.438-1.132-0.888-1.692-1.352l-0.827-0.703c-0.252-0.188-0.482-0.395-0.747-0.573c-1.06-0.721-2.3-1.276-3.583-1.727
			c-1.287-0.447-2.625-0.799-3.979-1.085c-1.35-0.284-2.745-0.507-4.093-0.648l-0.036-0.004c-0.41-0.043-0.725-0.36-0.782-0.749
			l-0.521-3.491l-0.002-0.016c-0.058-0.391,0.162-0.758,0.51-0.903c1.56-0.648,3.125-1.426,4.615-2.271
			c1.487-0.855,2.938-1.783,4.228-2.88c0.656-0.548,1.228-1.144,1.74-1.763l0.378-0.538l0.17-0.244l0.178-0.286l0.729-1.113
			c0.986-1.467,2.033-2.886,3.118-4.274c1.082-1.391,2.193-2.758,3.36-4.077c1.155-1.331,2.396-2.584,3.655-3.816
			c1.251-1.243,2.603-2.38,3.972-3.498c1.405-1.074,2.855-2.099,4.41-2.976c1.565-0.843,3.191-1.64,4.952-2.087
			c1.745-0.446,3.58-0.757,5.422-0.585c1.826,0.143,3.678,0.54,5.331,1.361c0.864,0.339,1.625,0.855,2.416,1.324
			c0.771,0.496,1.456,1.101,2.186,1.649c0.658,0.638,1.356,1.261,1.975,1.917c0.578,0.686,1.117,1.291,1.727,2.042
			c1.166,1.509,1.872,3.259,2.361,5.006c0.479,1.759,0.696,3.552,0.794,5.333c0.088,1.787,0.057,3.555-0.133,5.342l-0.027-0.19
			c0.857,2.417,1.413,4.916,1.713,7.443c0.074,0.632,0.111,1.268,0.137,1.904l0.001,0.954c0.013,0.317-0.024,0.636-0.035,0.953
			c-0.01,0.318-0.045,0.635-0.089,0.95c-0.042,0.315-0.071,0.632-0.148,0.944c-0.072,0.311-0.118,0.632-0.213,0.933L120.037,67.484z
			"/>
	</g>
</g>
<g>
	<path d="M59.335,55.681c3.414-28.747,6.898-41.685,6.898-41.685S64.779,29.325,59.335,55.681z"/>
	<path d="M53.986,58.109c-26.285-12.128-37.518-19.45-37.518-19.45S30.6,44.786,53.986,58.109z"/>
	<path d="M54.641,63.943C34.982,85.195,24.554,93.615,24.554,93.615S34.739,82.068,54.641,63.943z"/>
	<path d="M60.388,65.126c14.141,25.266,18.924,37.785,18.924,37.785S71.478,89.648,60.388,65.126z"/>
	<path d="M63.294,60.021c28.395-5.638,41.778-6.315,41.778-6.315S90.041,57.058,63.294,60.021z"/>
</g>
<g>
	<circle fill="#F970A2" cx="60.773" cy="64.05" r="17.049"/>
	<path d="M77.922,64.055c0,0-0.018,0.418-0.05,1.202c0.002,0.392-0.062,0.875-0.151,1.443c-0.048,0.283-0.071,0.594-0.131,0.917
		c-0.072,0.321-0.148,0.663-0.229,1.023c-0.378,1.42-0.88,3.186-1.97,4.983c-1.062,1.794-2.57,3.712-4.705,5.261
		c-2.125,1.543-4.874,2.648-7.884,2.971c-0.766,0.05-1.49,0.082-2.321,0.058c-0.74-0.072-1.462-0.098-2.273-0.282
		c-1.599-0.258-3.091-0.815-4.559-1.507c-1.464-0.704-2.792-1.683-4.054-2.736c-1.229-1.102-2.327-2.359-3.278-3.741
		c-0.927-1.399-1.66-2.935-2.217-4.545c-0.542-1.618-0.827-3.324-0.924-5.051c-0.031-1.684,0.126-3.475,0.564-5.159
		c0.488-1.67,1.177-3.283,2.097-4.755c0.947-1.45,2.082-2.765,3.368-3.887c1.311-1.087,2.72-2.042,4.241-2.727
		c1.517-0.677,3.098-1.183,4.692-1.379c0.79-0.155,1.586-0.157,2.368-0.201c0.121-0.001,0.143-0.011,0.345-0.006l0.275,0.017
		l0.547,0.035c0.371,0.032,0.71,0.025,1.1,0.088c3.123,0.399,5.797,1.532,7.939,3.099c2.13,1.568,3.636,3.491,4.694,5.29
		c1.09,1.801,1.592,3.568,1.967,4.991c0.08,0.361,0.156,0.703,0.229,1.024c0.059,0.323,0.081,0.633,0.128,0.915
		c0.086,0.567,0.149,1.05,0.146,1.446c0.03,0.788,0.046,1.209,0.046,1.209V64.055z M77.723,64.05c0,0-0.026-0.415-0.076-1.193
		c-0.006-0.391-0.081-0.865-0.18-1.421c-0.065-0.562-0.245-1.187-0.458-1.879c-0.423-1.38-1.163-3.001-2.358-4.595
		c-1.182-1.598-2.828-3.153-4.876-4.386c-2.036-1.208-4.546-2.134-7.143-2.418c-2.779-0.26-5.611,0.108-8.345,1.26
		c-1.365,0.562-2.64,1.376-3.843,2.309c-1.185,0.964-2.218,2.125-3.14,3.386c-0.898,1.282-1.6,2.71-2.13,4.213
		c-0.519,1.516-0.793,3.064-0.903,4.726c-0.019,1.62,0.13,3.254,0.543,4.835c0.462,1.562,1.12,3.068,2.01,4.423
		c0.918,1.33,1.989,2.548,3.23,3.531c1.252,0.966,2.609,1.756,4.031,2.3c1.415,0.522,2.888,0.928,4.293,1.03
		c0.675,0.11,1.454,0.072,2.186,0.093c0.641-0.015,1.378-0.074,2.041-0.15c2.709-0.361,5.145-1.316,7.197-2.547
		c2.043-1.252,3.686-2.812,4.864-4.416c1.194-1.597,1.936-3.22,2.354-4.603c0.212-0.694,0.392-1.318,0.454-1.878
		c0.097-0.555,0.17-1.028,0.176-1.424c0.046-0.783,0.071-1.2,0.071-1.2V64.05z"/>
</g>
</svg>
