<?xml version="1.0" encoding="utf-8"?>
<!-- Generator: Adobe Illustrator 16.0.0, SVG Export Plug-In . SVG Version: 6.00 Build 0)  -->
<!DOCTYPE svg PUBLIC "-//W3C//DTD SVG 1.1//EN" "http://www.w3.org/Graphics/SVG/1.1/DTD/svg11.dtd">
<svg version="1.1" id="Layer_1" xmlns="http://www.w3.org/2000/svg" xmlns:xlink="http://www.w3.org/1999/xlink" x="0px" y="0px"
	 width="101.422px" height="180.208px" viewBox="0 0 101.422 180.208" enable-background="new 0 0 101.422 180.208"
	 xml:space="preserve">
<g>
	<polygon fill="#A866D3" points="70.146,0.128 22.241,26.287 13.417,123.541 100.241,44.028 	"/>
	<path d="M70.114,0.262l-11.745,6.77c-3.942,2.272-7.92,4.478-11.878,6.72c-3.967,2.227-7.916,4.484-11.904,6.671l-11.94,6.605
		l0.437-0.665c-0.659,8.111-1.436,16.212-2.215,24.312c-0.792,8.099-1.678,16.19-2.52,24.285
		c-0.883,8.091-1.632,16.194-2.419,24.293c-0.711,8.107-1.45,16.211-2.076,24.326l-0.732-0.363l21.467-20.14l21.575-20.021
		l10.803-9.994l10.87-9.92c7.247-6.614,14.485-13.237,21.799-19.777l-0.134,1.169l-7.425-11.042l-7.377-11.075
		c-2.446-3.701-4.926-7.378-7.346-11.098L70.114,0.262z M70.178,0l7.809,10.887c2.597,3.597,5.133,7.236,7.702,10.852l7.671,10.875
		l7.622,10.907l0.44,0.63l-0.574,0.539c-7.157,6.712-14.39,13.341-21.613,19.98l-10.836,9.958l-10.903,9.885l-21.837,19.735
		l-21.945,19.617l-0.851,0.761l0.118-1.124c0.845-8.094,1.576-16.199,2.336-24.302C16,91.09,16.722,82.984,17.31,74.866
		c0.629-8.114,1.214-16.232,1.893-24.342c0.691-8.108,1.386-16.216,2.197-24.314l0.046-0.455l0.391-0.211l12.013-6.474
		c3.996-2.173,8.03-4.275,12.048-6.408c4.026-2.118,8.033-4.272,12.075-6.359L70.178,0z"/>
</g>
<g>
	<path fill="#A866D3" d="M13.022,124.06c0,0-8.553,4.336-10.212,5.576c-0.588,0.439,4.119,12.732,4.119,12.732l12.509-8.95
		L13.022,124.06z"/>
	<path d="M13.006,124.128c-1.77,1.096-3.576,2.115-5.366,3.159l-2.711,1.555c-0.448,0.26-0.892,0.529-1.323,0.8l-0.318,0.205
		l-0.15,0.104c-0.108,0.084,0.081-0.063,0.069-0.141c-0.012,0.071,0.037,0.39,0.081,0.61c0.438,1.983,1.026,4.019,1.646,6.005
		c0.652,1.983,1.398,3.938,2.223,5.856l-0.367-0.11c2.022-1.578,4.044-3.158,6.116-4.668c2.058-1.529,4.12-3.052,6.238-4.497
		l-0.123,0.698c-1.038-1.581-2.065-3.17-3.082-4.765C14.941,127.349,13.949,125.755,13.006,124.128z M13.063,124.032
		c1.188,1.479,2.325,2.992,3.459,4.507c1.122,1.524,2.233,3.055,3.334,4.593l0.282,0.396l-0.405,0.304
		c-2.052,1.538-4.159,2.999-6.271,4.453c-2.098,1.474-4.246,2.877-6.392,4.282l-0.272,0.178l-0.096-0.288
		c-0.662-1.987-1.365-3.954-2.112-5.909c-0.749-1.96-1.597-3.86-2.155-5.938c-0.058-0.288-0.14-0.487-0.108-0.938
		c0.005-0.027,0.003-0.061,0.045-0.163c0.041-0.092,0.095-0.155,0.089-0.146l0.008-0.01l0.082-0.076l0.021-0.016l0.043-0.032
		l0.171-0.12l0.34-0.223c0.453-0.286,0.913-0.541,1.372-0.798c0.917-0.515,1.852-0.988,2.786-1.462
		c1.883-0.919,3.772-1.816,5.716-2.608L13.038,124L13.063,124.032z"/>
</g>
<g>
	<path fill="#A866D3" d="M6.583,142.186c0,0-4.914,3.16-5.844,4.015c-0.328,0.303,3.74,8.027,3.74,8.027l6.574-6.769L6.583,142.186z
		"/>
	<path d="M6.572,142.257c-1.012,0.857-2.055,1.664-3.11,2.445l-1.597,1.179l-0.758,0.591l-0.041,0.035l-0.021,0.018l-0.003,0.002
		c0.031-0.035-0.07,0.083,0.067-0.079l-0.004,0.007c-0.002,0.003-0.008,0.012-0.006,0.01c0.038-0.049,0.063-0.128,0.064-0.179
		l0.001-0.021c-0.001-0.008,0.001,0.003,0.001,0.007c0.005,0.039,0.024,0.112,0.046,0.181c0.038,0.142,0.09,0.293,0.143,0.444
		c0.438,1.226,0.909,2.488,1.451,3.7c0.553,1.211,1.21,2.372,1.905,3.508l-0.421-0.061c1.016-1.205,2.053-2.391,3.129-3.538
		c1.062-1.16,2.137-2.309,3.27-3.4l-0.022,0.682c-0.716-0.904-1.422-1.816-2.119-2.735C7.872,144.135,7.2,143.215,6.572,142.257z
		 M6.621,142.154c0.855,0.785,1.662,1.611,2.468,2.439c0.793,0.838,1.577,1.684,2.352,2.538l0.298,0.329l-0.321,0.353
		c-1.058,1.164-2.175,2.272-3.304,3.368c-1.115,1.109-2.27,2.18-3.445,3.23l-0.282,0.252l-0.139-0.313
		c-0.542-1.223-1.101-2.432-1.739-3.604c-0.638-1.175-1.357-2.297-1.938-3.534c-0.07-0.158-0.139-0.316-0.201-0.492
		c-0.029-0.091-0.058-0.178-0.08-0.303c-0.005-0.038-0.011-0.067-0.013-0.118l0.001-0.082c0.004-0.071,0.033-0.171,0.076-0.24
		l0.01-0.017l0.005-0.007l0.072-0.084l0.003-0.003l0.027-0.023l0.053-0.047c0.274-0.241,0.547-0.433,0.825-0.628
		c0.552-0.39,1.114-0.749,1.684-1.101c1.139-0.701,2.31-1.348,3.523-1.924l0.036-0.018L6.621,142.154z"/>
</g>
<g>
	<path fill="#A866D3" d="M4.645,154.329c0,0-3.566,3.434-4.199,4.296c-0.224,0.306,4.426,6.06,4.426,6.06l4.354-6.705L4.645,154.329
		z"/>
	<path d="M4.648,154.402c-0.681,0.896-1.402,1.746-2.144,2.572l-1.127,1.246l-0.528,0.611l-0.027,0.035l-0.014,0.018l-0.004,0.004
		c0.143-0.298,0.039-0.08,0.071-0.146l-0.001,0.004l-0.002,0.013c-0.001,0.007-0.004,0.021-0.003,0.022
		c0.01-0.021,0.017-0.043,0.021-0.067c0.01-0.043-0.006-0.106-0.014-0.122c0.014,0.032,0.033,0.077,0.063,0.134
		c0.052,0.108,0.119,0.227,0.187,0.343c0.553,0.947,1.136,1.935,1.779,2.857c0.651,0.92,1.395,1.772,2.169,2.594l-0.425,0.021
		c0.633-1.178,1.289-2.34,1.992-3.473c0.688-1.143,1.389-2.275,2.158-3.365l0.109,0.673c-0.74-0.638-1.472-1.287-2.195-1.944
		C6.012,155.772,5.312,155.11,4.648,154.402z M4.676,154.29c0.854,0.495,1.668,1.04,2.48,1.587c0.803,0.56,1.598,1.127,2.385,1.706
		l0.355,0.261l-0.246,0.412c-0.682,1.146-1.432,2.247-2.196,3.34c-0.748,1.103-1.544,2.175-2.362,3.232l-0.234,0.302l-0.191-0.28
		c-0.64-0.937-1.297-1.854-2.025-2.72c-0.729-0.868-1.528-1.668-2.225-2.601c-0.085-0.121-0.169-0.241-0.252-0.38
		c-0.039-0.066-0.081-0.149-0.121-0.247c-0.02-0.049-0.042-0.147-0.043-0.225c0-0.04,0.002-0.08,0.007-0.117l0.005-0.03l0.002-0.014
		v-0.003c0.032-0.067-0.071,0.146,0.072-0.152l0.005-0.007l0.019-0.024l0.036-0.049c0.191-0.249,0.388-0.452,0.589-0.66
		c0.396-0.414,0.807-0.804,1.226-1.187c0.839-0.764,1.716-1.482,2.649-2.142l0.033-0.022L4.676,154.29z"/>
</g>
<g>
	<path fill="#A866D3" d="M4.825,164.737c0,0-0.954,4.031-1.009,4.925c-0.019,0.315,5.859,2.259,5.859,2.259l0.025-6.689
		L4.825,164.737z"/>
	<path d="M4.869,164.797c-0.047,0.941-0.152,1.868-0.29,2.783l-0.219,1.387l-0.093,0.663l-0.004,0.036l-0.002,0.018v0.005
		c-0.042-0.328-0.011-0.09-0.02-0.162v0.002l0.005,0.011c0.003,0.004,0.007,0.019,0.008,0.015c-0.004-0.022-0.012-0.047-0.022-0.069
		c-0.018-0.043-0.068-0.091-0.085-0.101c0.021,0.014,0.052,0.034,0.098,0.06c0.082,0.053,0.182,0.105,0.28,0.158
		c0.81,0.423,1.66,0.876,2.527,1.241c0.872,0.359,1.784,0.614,2.705,0.827l-0.345,0.249c-0.111-1.115-0.19-2.23-0.209-3.346
		c-0.042-1.115-0.066-2.229-0.01-3.345l0.456,0.507c-0.811-0.112-1.618-0.243-2.423-0.399C6.439,165.179,5.65,165.016,4.869,164.797
		z M4.83,164.687c0.827-0.062,1.648-0.06,2.469-0.056c0.82,0.008,1.638,0.043,2.453,0.095l0.436,0.028l0.021,0.479
		c0.048,1.115,0.015,2.229-0.035,3.345c-0.027,1.114-0.114,2.229-0.234,3.344l-0.041,0.383l-0.305-0.134
		c-0.87-0.384-1.745-0.74-2.652-1.012c-0.91-0.272-1.842-0.452-2.763-0.785c-0.116-0.046-0.23-0.092-0.356-0.152
		c-0.059-0.029-0.128-0.07-0.205-0.124c-0.04-0.027-0.111-0.097-0.15-0.159c-0.022-0.032-0.04-0.066-0.056-0.1l-0.011-0.024
		l-0.005-0.01l-0.001-0.003c-0.01-0.074,0.02,0.163-0.022-0.167l0.001-0.007l0.001-0.026l0.004-0.052
		c0.021-0.268,0.068-0.499,0.117-0.737c0.092-0.472,0.209-0.933,0.335-1.391c0.253-0.916,0.562-1.816,0.947-2.696l0.016-0.035
		L4.83,164.687z"/>
</g>
<g>
	<path fill="#A866D3" d="M10.029,172.281c0,0,0.254,2.779,0.41,3.361c0.057,0.205,4.227,0.186,4.227,0.186l-1.418-4.277
		L10.029,172.281z"/>
	<path d="M10.094,172.328c0.223,0.6,0.387,1.203,0.512,1.808c0.064,0.311,0.123,0.621,0.175,0.926l0.083,0.432l0.004,0.021
		l0.002,0.011l0.001,0.001c-0.032-0.066,0.073,0.152-0.073-0.149l0.003,0.003l0.005,0.006c0.002,0.001,0.01,0.013,0.006,0.006
		c-0.013-0.021-0.03-0.043-0.05-0.062c-0.034-0.036-0.103-0.067-0.124-0.073l0.055,0.014c0.057,0.017,0.13,0.031,0.201,0.045
		c0.596,0.117,1.237,0.27,1.868,0.334c0.634,0.058,1.271,0.007,1.904-0.083l-0.249,0.346c-0.346-0.677-0.66-1.364-0.918-2.069
		c-0.28-0.698-0.545-1.402-0.731-2.132l0.594,0.335c-0.543,0.093-1.091,0.168-1.644,0.217
		C11.181,172.305,10.643,172.342,10.094,172.328z M10.019,172.232c0.504-0.263,1.022-0.464,1.542-0.662
		c0.52-0.194,1.045-0.363,1.575-0.514l0.408-0.116l0.186,0.451c0.286,0.696,0.494,1.418,0.687,2.146
		c0.215,0.72,0.373,1.459,0.5,2.208l0.065,0.389l-0.314-0.043c-0.639-0.087-1.274-0.145-1.912-0.108
		c-0.642,0.038-1.272,0.17-1.945,0.175c-0.086-0.003-0.171-0.005-0.271-0.017c-0.046-0.006-0.105-0.018-0.177-0.039
		c-0.041-0.011-0.127-0.052-0.18-0.096c-0.029-0.022-0.055-0.048-0.078-0.073l-0.014-0.016l-0.005-0.005l-0.003-0.003l-0.074-0.153
		v-0.002l-0.005-0.019l-0.01-0.037c-0.048-0.185-0.065-0.343-0.083-0.508c-0.041-0.325-0.059-0.646-0.066-0.967
		c-0.017-0.643,0.021-1.287,0.136-1.938l0.007-0.037L10.019,172.232z"/>
</g>
<g>
	<path d="M15.156,175.926c-0.071,0.35,0.202,0.901,0.672,1.218c0.464,0.348,1.068,0.571,1.685,0.731
		c0.621,0.157,1.27,0.255,1.925,0.313c0.631,0.056,1.27-0.002,1.899-0.144c2.553-0.572,4.714-2.346,7.302-3.241
		c0.649-0.211,1.34-0.35,2.035-0.31c0.695,0.033,1.374,0.265,1.955,0.626c0.594,0.358,1.047,0.877,1.58,1.265
		c0.527,0.408,1.086,0.777,1.663,1.113c2.321,1.331,4.898,2.204,7.53,2.709c-2.641-0.462-5.234-1.294-7.595-2.596
		c-0.588-0.329-1.157-0.692-1.698-1.097c-0.554-0.398-1.013-0.895-1.59-1.21c-1.142-0.693-2.55-0.645-3.767-0.167
		c-2.466,0.937-4.55,2.795-7.269,3.52c-0.672,0.177-1.384,0.267-2.092,0.23c-0.685-0.028-1.372-0.095-2.06-0.232
		c-0.685-0.146-1.382-0.35-2.022-0.774c-0.622-0.417-1.25-1.132-1.135-2.152L15.156,175.926z"/>
</g>
<g>
	<polygon points="22.241,26.287 100.352,43.541 100.131,44.515 	"/>
</g>
<g>
	<polygon points="70.146,0.128 13.477,124.269 12.568,123.851 	"/>
</g>
</svg>
