<?xml version="1.0" encoding="utf-8"?>
<!-- Generator: Adobe Illustrator 16.0.0, SVG Export Plug-In . SVG Version: 6.00 Build 0)  -->
<!DOCTYPE svg PUBLIC "-//W3C//DTD SVG 1.1//EN" "http://www.w3.org/Graphics/SVG/1.1/DTD/svg11.dtd">
<svg version="1.1" id="Layer_1" xmlns="http://www.w3.org/2000/svg" xmlns:xlink="http://www.w3.org/1999/xlink" x="0px" y="0px"
	 width="161.949px" height="230.267px" viewBox="0 0 161.949 230.267" enable-background="new 0 0 161.949 230.267"
	 xml:space="preserve">
<g>
	<path fill="#A866D3" d="M143.567,94.642c-3.014-16.992-13.742-47.621-21.2-60.59C109.983,12.518,90.967,1.21,73.068,1.21
		S38.492,13.07,26.107,34.604C18.648,47.573,11.913,71.507,8.899,88.5l8.466-8.342C25.061,38.427,47.121,8.21,73.068,8.21
		s48.007,30.217,55.701,71.947c0,0,4.543,13.07,3.015,16.562c-2.436,5.563-8.934-0.771-14.583-1.333s-14.409,114.666,5.678,128.666
		s38.052-8,37.849-18.297C160.337,185.955,143.567,94.642,143.567,94.642z"/>
	<g>
		<path d="M143.42,94.669c-0.909-4.987-2.176-9.903-3.558-14.781c-1.383-4.879-2.941-9.708-4.61-14.497
			c-1.671-4.787-3.434-9.544-5.376-14.226c-1.938-4.68-3.987-9.321-6.332-13.792c-4.727-8.888-11.088-16.962-18.93-23.197
			C96.806,7.949,87.389,3.655,77.537,2.638c-4.917-0.51-9.894-0.123-14.641,1.186c-4.75,1.297-9.249,3.469-13.341,6.244
			c-8.255,5.508-14.912,13.248-20.26,21.691c-1.341,2.125-2.616,4.273-3.737,6.494c-1.129,2.227-2.161,4.515-3.142,6.828
			c-1.95,4.635-3.65,9.391-5.198,14.197c-3.072,9.621-5.601,19.442-7.472,29.371l-1.451-0.764l8.511-8.295l-0.224,0.422
			c1.557-8.05,3.724-15.98,6.53-23.681c2.802-7.698,6.289-15.172,10.7-22.095c2.206-3.458,4.646-6.773,7.36-9.855
			c2.703-3.089,5.673-5.964,8.966-8.443c3.285-2.479,6.897-4.564,10.773-6.016c3.871-1.456,8.006-2.253,12.154-2.259
			c4.148-0.009,8.293,0.747,12.189,2.165c3.901,1.417,7.549,3.473,10.874,5.931c6.664,4.937,12.06,11.362,16.526,18.266
			c8.902,13.914,14.251,29.793,17.338,45.907l-0.048-0.183c1.114,3.305,2.091,6.604,2.809,10.046c0.336,1.731,0.653,3.458,0.595,5.4
			c-0.023,0.49-0.074,1.001-0.238,1.569c-0.042,0.142-0.095,0.29-0.158,0.44l-0.151,0.334c-0.133,0.265-0.256,0.493-0.412,0.724
			c-0.303,0.459-0.706,0.913-1.218,1.265c-0.506,0.359-1.111,0.587-1.691,0.689c-1.174,0.192-2.197-0.018-3.111-0.262
			c-0.917-0.255-1.755-0.583-2.566-0.915c-1.619-0.662-3.141-1.374-4.655-1.837c-0.377-0.115-0.751-0.215-1.121-0.293
			c-0.185-0.039-0.368-0.072-0.55-0.099l-0.271-0.035l-0.135-0.015c0.207,0.012-0.021,0.001,0.059,0.006
			c0.086,0.009,0.239-0.023,0.265-0.03c0.385-0.135,0.3-0.193,0.269-0.109c-0.05,0.065-0.127,0.196-0.197,0.339
			c-0.146,0.292-0.284,0.65-0.41,1.018c-0.5,1.495-0.855,3.152-1.178,4.794c-1.234,6.628-1.922,13.436-2.505,20.22
			c-0.562,6.794-0.941,13.61-1.174,20.428c-0.238,6.819-0.295,13.642-0.231,20.459c0.068,6.816,0.309,13.63,0.82,20.413
			c0.523,6.777,1.288,13.543,2.648,20.149c0.69,3.296,1.529,6.558,2.688,9.656c1.163,3.059,2.65,6.102,4.857,8.103
			c0.277,0.247,0.553,0.462,0.859,0.672c0.367,0.252,0.675,0.458,1.023,0.677c0.688,0.434,1.389,0.838,2.108,1.203
			c1.437,0.731,2.937,1.318,4.479,1.714c3.078,0.815,6.331,0.849,9.43,0.067c6.227-1.565,11.642-6.044,15.237-11.485
			c0.896-1.369,1.676-2.813,2.28-4.309c0.599-1.491,1.035-3.054,1.101-4.555c0.016-1.562-0.104-3.316-0.219-4.988
			c-0.119-1.692-0.27-3.389-0.434-5.085c-0.668-6.788-1.538-13.575-2.447-20.354c-1.834-13.559-3.915-27.091-6.046-40.615
			C148.133,121.643,145.809,108.149,143.42,94.669z M143.715,94.615c2.524,13.458,4.953,26.933,7.337,40.417
			c2.459,13.472,4.835,26.958,7.028,40.485c1.087,6.766,2.135,13.538,2.985,20.358c0.21,1.706,0.407,3.415,0.572,5.134
			c0.156,1.739,0.301,3.402,0.312,5.263c-0.062,1.928-0.56,3.712-1.205,5.401c-0.656,1.688-1.491,3.28-2.448,4.788
			c-1.92,3.01-4.32,5.7-7.122,7.936c-2.8,2.227-6.04,3.997-9.58,4.926c-3.53,0.942-7.339,0.971-10.889,0.059
			c-1.774-0.452-3.482-1.118-5.097-1.936c-0.809-0.407-1.592-0.856-2.354-1.335c-0.376-0.234-0.779-0.504-1.119-0.737
			c-0.399-0.271-0.801-0.583-1.162-0.904c-1.461-1.301-2.543-2.842-3.45-4.416c-0.902-1.582-1.626-3.219-2.254-4.875
			c-1.247-3.315-2.122-6.702-2.843-10.102c-1.42-6.806-2.208-13.673-2.756-20.54c-1.058-13.739-1.106-27.501-0.547-41.227
			c0.278-6.863,0.705-13.72,1.316-20.567c0.635-6.848,1.363-13.679,2.68-20.508c0.35-1.712,0.716-3.41,1.311-5.16
			c0.154-0.44,0.323-0.883,0.562-1.356c0.122-0.238,0.255-0.482,0.463-0.759c0.223-0.252,0.448-0.645,1.251-0.9
			c0.075-0.024,0.283-0.057,0.422-0.057c0.133,0.003-0.041-0.006,0.219,0.009l0.185,0.021l0.364,0.051
			c0.241,0.038,0.479,0.083,0.712,0.135c0.467,0.103,0.918,0.229,1.358,0.369c1.754,0.563,3.337,1.317,4.873,1.979
			c1.498,0.645,3.115,1.26,4.207,1.091c0.518-0.086,0.873-0.319,1.229-0.823c0.088-0.121,0.168-0.271,0.232-0.386l0.118-0.248
			c0.02-0.047,0.04-0.101,0.059-0.164c0.076-0.254,0.123-0.6,0.139-0.963c0.057-1.486-0.217-3.162-0.535-4.782
			c-0.67-3.263-1.631-6.545-2.696-9.727l-0.034-0.101l-0.014-0.083c-1.425-7.972-3.434-15.843-6.113-23.48
			c-2.673-7.634-6.025-15.051-10.286-21.921c-4.257-6.849-9.452-13.202-15.858-18.096c-3.197-2.437-6.703-4.481-10.457-5.907
			c-3.746-1.433-7.745-2.223-11.762-2.222c-4.015-0.016-8.023,0.733-11.796,2.128c-3.778,1.391-7.319,3.407-10.556,5.822
			c-6.5,4.837-11.758,11.202-16.061,18.063c-8.606,13.805-13.713,29.566-16.508,45.531l-0.042,0.242l-0.183,0.181l-8.419,8.389
			l-1.911,1.903l0.459-2.667c1.729-10.049,4.127-19.962,7.08-29.724c1.49-4.877,3.135-9.714,5.05-14.466
			c0.955-2.377,1.996-4.726,3.155-7.029c1.156-2.315,2.463-4.543,3.816-6.717c5.439-8.684,12.249-16.747,20.903-22.586
			C52.39,4.954,57.179,2.7,62.241,1.375c5.055-1.338,10.374-1.69,15.547-1.097c10.408,1.129,20.084,5.937,27.957,12.509
			c7.911,6.607,14.177,14.973,18.769,24.09c2.268,4.573,4.216,9.275,6.053,14.014c1.819,4.746,3.552,9.521,5.157,14.341
			C138.874,74.88,141.876,84.611,143.715,94.615z"/>
	</g>
</g>
<g>
	<path fill="#A866D3" d="M145.202,182.819c0.999,19.001,8.283,46.667-10.451,46.667L24.775,217.819
		c-13.392,0-23.393-17.168-23.393-37l4.631-62.993c0-19.832,10.857-35.908,24.249-35.908h86.205
		c13.392,0,17.499,12.046,20.682,37.469L145.202,182.819z"/>
	<g>
		<path d="M145.352,182.811c0.261,4.477,0.799,8.933,1.279,13.397c0.492,4.462,0.992,8.934,1.115,13.442
			c0.059,2.253,0.051,4.517-0.177,6.779c-0.23,2.257-0.656,4.53-1.559,6.68c-0.886,2.138-2.379,4.15-4.453,5.396
			c-2.062,1.263-4.484,1.721-6.807,1.761l-0.028,0l-0.054-0.005l-27.541-2.474c-9.179-0.844-18.352-1.742-27.522-2.651
			l-27.504-2.819l-27.494-2.913l0.168,0.009c-2.208-0.001-4.422-0.441-6.45-1.274c-2.033-0.826-3.886-2.005-5.52-3.388
			c-3.275-2.781-5.718-6.295-7.583-10.001c-1.86-3.721-3.153-7.674-4-11.698c-0.847-4.027-1.236-8.134-1.223-12.233l0.001-0.058
			l0.003-0.043l2.565-31.478l2.713-31.467l-0.002,0.054c0.061-5.169,0.837-10.338,2.434-15.253
			c1.568-4.911,3.946-9.629,7.386-13.535c1.716-1.945,3.705-3.673,5.962-4.991c2.25-1.319,4.775-2.203,7.383-2.489
			c1.317-0.149,2.606-0.092,3.873-0.109l3.827-0.011l7.653-0.042l61.233-0.747l7.654-0.055l3.847-0.009
			c1.303,0.004,2.723,0.116,4.062,0.41c2.719,0.55,5.344,1.944,7.315,3.917c1.977,1.977,3.368,4.354,4.445,6.771
			c2.14,4.869,3.198,9.97,4.089,15.031c0.889,5.067,1.416,10.175,1.967,15.243c2.22,20.293,4.32,40.601,6.939,60.843l0.001,0.005
			V182.811z M145.054,182.837c-2.522-20.254-5.562-40.443-8.484-60.647c-0.714-5.058-1.482-10.078-2.44-15.051
			c-0.99-4.949-2.162-9.896-4.164-14.378c-1.013-2.223-2.288-4.303-3.947-5.927c-1.646-1.633-3.702-2.744-5.986-3.221
			c-1.154-0.251-2.291-0.352-3.538-0.361l-3.808-0.01l-7.654-0.055l-61.233-0.747l-7.653-0.042l-3.827-0.011
			c-1.283,0.009-2.553-0.052-3.775,0.083c-4.991,0.492-9.443,3.459-12.689,7.229c-3.29,3.797-5.58,8.407-7.061,13.212
			c-1.452,4.828-2.097,9.884-2.045,14.916v0.018l-0.002,0.036l-1.918,31.526L2.762,180.92l0.004-0.101
			c0.023,3.912,0.433,7.821,1.271,11.629c0.837,3.805,2.097,7.517,3.854,10.949c1.758,3.419,4.034,6.585,6.908,8.973
			c2.854,2.395,6.367,3.871,9.976,3.853l0.081,0l0.088,0.009l27.493,2.921l27.483,3.015c9.158,1.035,18.314,2.082,27.465,3.183
			l27.447,3.36l-0.082-0.004c2.146,0.046,4.307-0.309,6.133-1.344c1.835-1.02,3.225-2.734,4.121-4.698
			c0.908-1.968,1.4-4.144,1.698-6.336c0.29-2.199,0.396-4.433,0.384-6.667c-0.039-4.471-0.425-8.946-0.857-13.411
			C145.784,191.788,145.279,187.325,145.054,182.837z"/>
	</g>
</g>
<g>
	<path fill="#A866D3" d="M139.565,133.629c-1.493,18.351-38.173,24.173-74.166,23.935c-33.451-0.222-60.139-20.489-60.139-32.361
		l2.485-29.816c0-11.873,9.819-18.877,22.395-18.902l82.272,1.674c13.656,0.025,18.012,1.803,21.401,11.622L139.565,133.629z"/>
	<g>
		<path d="M139.715,133.644c-0.221,3.286-1.757,6.405-3.979,8.803c-2.219,2.422-4.958,4.304-7.842,5.83
			c-5.794,3.053-12.104,4.966-18.455,6.428c-12.747,2.87-25.815,4.061-38.846,4.315c-3.26,0.065-6.503,0.106-9.838-0.078
			c-3.299-0.188-6.588-0.555-9.844-1.116c-6.517-1.112-12.889-3.031-18.975-5.617c-6.064-2.631-11.855-5.957-17.021-10.17
			c-2.572-2.114-4.996-4.453-7.05-7.165c-1.022-1.358-1.949-2.813-2.68-4.41c-0.725-1.591-1.257-3.359-1.247-5.26v-0.065
			l0.004-0.044l1.418-14.894l1.495-14.887l-0.003,0.074c0.053-3.076,0.773-6.185,2.275-8.893c1.484-2.718,3.721-4.968,6.293-6.589
			c5.167-3.305,11.458-4.213,17.353-3.827c11.831,0.281,23.668,0.294,35.505,0.281l17.756,0.022
			c5.917,0.04,11.834,0.132,17.75,0.252l8.852,0.236c2.98,0.051,5.987,0.185,9.017,0.685c1.509,0.276,3.028,0.657,4.489,1.283
			c1.457,0.62,2.842,1.516,3.953,2.665c2.246,2.32,3.367,5.257,4.276,8.086l0.022,0.067l0.005,0.048
			c0.853,7.322,1.636,14.653,2.551,21.967c0.867,7.32,1.831,14.628,2.765,21.939l0.002,0.015L139.715,133.644z M139.414,133.63
			c-0.982-7.299-1.935-14.602-2.983-21.892c-1.002-7.303-2.136-14.588-3.2-21.882l0.027,0.116c-1.036-2.711-2.312-5.401-4.351-7.241
			c-2.019-1.861-4.771-2.625-7.59-2.951c-2.832-0.357-5.76-0.35-8.691-0.333l-8.896-0.118c-5.916-0.121-11.832-0.269-17.746-0.47
			L68.242,78.16c-11.827-0.494-23.654-0.962-35.487-1.163c-1.49-0.014-2.95-0.08-4.399,0.026c-1.454,0.091-2.9,0.283-4.32,0.586
			c-2.833,0.612-5.592,1.654-7.973,3.272c-2.375,1.612-4.364,3.769-5.637,6.299c-1.29,2.522-1.852,5.373-1.786,8.205l0.001,0.021
			L8.637,95.46l-0.99,14.929l-1.067,14.923l0.004-0.11c0.078,2.745,1.64,5.558,3.508,7.97c1.898,2.441,4.204,4.617,6.668,6.585
			c4.95,3.933,10.567,7.054,16.428,9.517c5.856,2.498,12.014,4.277,18.277,5.422c3.133,0.576,6.299,0.964,9.478,1.181
			c3.144,0.216,6.396,0.193,9.622,0.214c6.459-0.009,12.917-0.168,19.36-0.579c6.442-0.396,12.877-1.052,19.229-2.2
			c6.327-1.188,12.656-2.753,18.458-5.587c2.871-1.438,5.637-3.191,7.834-5.547C137.64,139.852,139.16,136.847,139.414,133.63z"/>
	</g>
</g>
<g>
	<ellipse fill="#A866D3" cx="64.201" cy="158.737" rx="12" ry="12.64"/>
	<g>
		<path d="M76.351,158.739c-0.04,3.219-0.774,6.615-2.855,9.466c-1.043,1.396-2.428,2.604-4.053,3.379
			c-1.635,0.787-3.423,1.136-5.275,1.041c-1.721-0.096-3.511-0.643-5.002-1.499c-1.509-0.859-2.822-1.969-3.912-3.242
			c-2.202-2.53-3.588-5.701-3.873-9.168c-0.126-1.661,0.023-3.475,0.57-5.144c0.534-1.685,1.439-3.263,2.618-4.619
			c2.338-2.74,5.892-4.515,9.676-4.459c1.745,0.027,3.652,0.452,5.245,1.29c1.632,0.806,3,2.049,4.037,3.456
			C75.591,152.114,76.349,155.506,76.351,158.739z M76.052,158.735c-0.006-1.596-0.398-3.183-1.105-4.583
			c-0.698-1.409-1.732-2.606-2.884-3.557c-2.339-1.889-5.03-2.946-7.903-2.896c-2.693,0.009-5.498,1.155-7.51,3.182
			c-2.004,2.046-3.334,4.803-3.627,7.876c-0.304,2.985,0.738,6.267,2.941,8.471c1.098,1.096,2.442,1.926,3.879,2.388
			c1.449,0.471,2.886,0.61,4.392,0.513c2.804-0.211,5.562-1.296,7.858-3.221c1.146-0.963,2.179-2.164,2.877-3.576
			C75.688,161.928,76.057,160.338,76.052,158.735z"/>
	</g>
</g>
</svg>
