<?xml version="1.0" encoding="utf-8"?>
<!-- Generator: Adobe Illustrator 16.0.0, SVG Export Plug-In . SVG Version: 6.00 Build 0)  -->
<!DOCTYPE svg PUBLIC "-//W3C//DTD SVG 1.1//EN" "http://www.w3.org/Graphics/SVG/1.1/DTD/svg11.dtd">
<svg version="1.1" id="Layer_1" xmlns="http://www.w3.org/2000/svg" xmlns:xlink="http://www.w3.org/1999/xlink" x="0px" y="0px"
	 width="117.387px" height="108.641px" viewBox="0 0 117.387 108.641" enable-background="new 0 0 117.387 108.641"
	 xml:space="preserve">
<g>
	<path fill="#E81D28" d="M117.27,53.414c0.821,28.239-26.162,65.288-60.879,51.326c-7.125,2.339-34.617,10.074-51.208-24.652
		c-16.596-34.719,15.021-63.711,43.731-55.051C94.011-9.635,116.353,22.032,117.27,53.414z"/>
	<path fill="#1D1D1B" d="M117.369,53.411c0.219,7.848-1.565,15.65-4.495,22.918c-2.976,7.262-7.274,14.041-12.851,19.675
		c-5.551,5.621-12.604,9.999-20.448,11.764c-7.833,1.763-16.172,0.792-23.463-2.337l0.511,0.017
		c-6.134,1.948-12.695,2.762-19.094,1.899c-6.39-0.851-12.524-3.424-17.573-7.386c-5.055-3.963-9.136-9.035-12.359-14.543
		c-1.608-2.764-3.055-5.61-4.277-8.58c-1.207-2.969-2.126-6.065-2.688-9.234c-1.14-6.33-0.763-12.992,1.339-19.142
		c2.102-6.145,5.857-11.706,10.714-16.035c4.862-4.324,10.804-7.437,17.156-8.939c6.343-1.506,13.116-1.388,19.378,0.539
		L48.271,24.2c6.652-5.069,13.832-9.625,21.797-12.542c3.971-1.456,8.164-2.427,12.437-2.601c4.26-0.187,8.603,0.456,12.556,2.109
		c3.953,1.653,7.447,4.257,10.276,7.388c2.838,3.135,5.071,6.75,6.787,10.564C115.516,36.778,117.135,45.101,117.369,53.411z
		 M117.17,53.416c-0.289-8.273-1.988-16.593-5.65-24.013c-1.82-3.699-4.122-7.17-6.982-10.095
		c-2.849-2.926-6.275-5.273-10.056-6.691c-3.768-1.454-7.85-1.983-11.88-1.714c-4.036,0.268-8.012,1.264-11.84,2.653
		c-7.665,2.836-14.684,7.308-21.205,12.317l-0.428,0.329l-0.52-0.155c-5.913-1.771-12.281-2.02-18.32-0.626
		c-6.04,1.368-11.732,4.278-16.412,8.361c-4.695,4.061-8.383,9.313-10.494,15.177c-2.157,5.848-2.71,12.273-1.734,18.475
		c0.94,6.227,3.387,12.16,6.553,17.631c3.15,5.465,7.113,10.558,12.162,14.365c5,3.836,11.03,6.319,17.284,6.937
		c6.251,0.669,12.595-0.288,18.511-2.335l0.245-0.085l0.266,0.102c3.591,1.376,7.337,2.326,11.14,2.702
		c3.803,0.371,7.657,0.13,11.373-0.729c7.467-1.661,14.274-5.731,19.878-11.006c5.622-5.294,10.097-11.82,13.278-18.915
		C115.518,69.01,117.357,61.227,117.17,53.416z"/>
</g>
<path fill="#1D1D1B" stroke="#1D1D1B" stroke-miterlimit="10" d="M48.098,32.016c-0.493-1.029-5.168-11.993-5.509-20.963
	c-0.134-3.551,1.587-9.442,1.587-9.442s1.709-2.392,4.118-0.154c1.429,1.324,1.234,1.506,0.493,2.769
	c-0.743,1.26-2.145,6.365-2.321,10.167c-0.176,3.794,3.816,15.907,3.816,15.907L48.098,32.016z"/>
<path fill="#0E1514" d="M50.282,30.298c-0.161,0.062-3.851,1.718-12.438-0.887c3.098,1.351,6.933,5.805,11.772,3.95
	c4.839-1.857,9.43-5.905,10.836-8.984C57.947,27.003,54.588,28.644,50.282,30.298z"/>
</svg>
