<?xml version="1.0" encoding="utf-8"?>
<!-- Generator: Adobe Illustrator 16.0.0, SVG Export Plug-In . SVG Version: 6.00 Build 0)  -->
<!DOCTYPE svg PUBLIC "-//W3C//DTD SVG 1.1//EN" "http://www.w3.org/Graphics/SVG/1.1/DTD/svg11.dtd">
<svg version="1.1" id="Layer_1" xmlns="http://www.w3.org/2000/svg" xmlns:xlink="http://www.w3.org/1999/xlink" x="0px" y="0px"
	 width="151.987px" height="171.351px" viewBox="0 0 151.987 171.351" enable-background="new 0 0 151.987 171.351"
	 xml:space="preserve">
<g>
	<path fill="#E20613" d="M6.471,1.323c0,0,0.373,6.092-0.558,15.689c-1.21,12.467-0.468,37.41-2,56.036
		c-1.437,17.464-2.582,95.219-2.582,95.219s17.244-1.168,28.35-0.044c9.676,0.979,41.854,1.867,41.854,1.867l3.276-89.252
		l5.343,89.252c0,0,13.762,0,32.293,0c17.986,0,38.106-3.933,38.106-3.933S141.1,69.326,138.992,57.51
		c-2.783-15.61-4.797-30.137-6.58-41.097c-1.313-8.07-2.078-15.09-2.078-15.09H6.471z"/>
	<path d="M6.625,1.476C6.826,4.91,6.79,8.345,6.65,11.778c-0.142,3.496-0.547,6.951-0.651,10.415
		c-0.263,6.94-0.24,13.9-0.278,20.861c-0.043,6.962-0.125,13.93-0.388,20.902c-0.129,3.479-0.336,6.99-0.59,10.446
		c-0.208,3.453-0.331,6.93-0.444,10.402c-0.393,13.9-0.73,27.816-0.974,41.731l-0.663,41.75l-1.421-1.348
		c5.892-0.338,11.757-0.508,17.655-0.458c2.947,0.031,5.9,0.114,8.857,0.379l4.376,0.427l4.359,0.325
		c11.663,0.745,23.372,1.216,35.068,1.668l-0.832,0.781l1.012-22.307l0.907-22.31l0.896-22.31l0.767-22.315
		c0.01-0.278,0.243-0.497,0.522-0.487c0.261,0.009,0.47,0.22,0.486,0.476l1.399,22.31l1.494,22.303l3.023,44.605l-1.078-1.016
		l17.662-0.109c5.875-0.048,11.805-0.026,17.634-0.133c5.833-0.171,11.667-0.685,17.482-1.363
		c5.807-0.692,11.628-1.563,17.347-2.652l-1.15,1.544l-8.549-82.604c-0.743-6.876-1.488-13.759-2.343-20.603
		c-0.218-1.705-0.438-3.426-0.71-5.078l-0.887-5.113l-1.68-10.264c-1.097-6.844-2.088-13.699-3.103-20.538
		c-0.501-3.414-1.071-6.827-1.551-10.279c-0.481-3.445-0.916-6.882-1.289-10.352l1.315,1.18L99.368,2.473L68.402,2.204L37.437,1.885
		L6.625,1.476z M6.471,1.173l30.966-0.411l30.966-0.319l30.966-0.269L130.334,0c0.676-0.004,1.236,0.504,1.312,1.16l0.003,0.02
		c0.403,3.408,0.875,6.835,1.39,10.239c0.51,3.399,1.117,6.809,1.659,10.236l3.247,20.504l1.699,10.226l0.898,5.114
		c0.294,1.763,0.516,3.475,0.741,5.202c0.876,6.891,1.637,13.771,2.397,20.656c1.495,13.769,2.973,27.536,4.303,41.317l3.994,41.344
		l0.002,0.019c0.07,0.734-0.44,1.394-1.152,1.526c-5.855,1.073-11.694,1.905-17.583,2.569c-5.883,0.658-11.797,1.103-17.736,1.208
		c-5.946,0.038-11.791-0.045-17.692-0.061l-17.662-0.109h-0.016c-0.569-0.004-1.032-0.454-1.062-1.016l-2.319-44.646l-1.177-22.323
		l-1.272-22.316l1.009-0.012l-0.871,22.312l-0.743,22.315l-0.731,22.316l-0.626,22.319c-0.012,0.441-0.378,0.79-0.819,0.781h-0.013
		c-11.719-0.247-23.425-0.523-35.152-1.076l-4.405-0.255l-2.216-0.172c-0.727-0.065-1.438-0.117-2.16-0.161
		c-2.884-0.161-5.789-0.234-8.697-0.241c-5.814-0.001-11.663,0.218-17.461,0.6c-0.734,0.048-1.369-0.509-1.418-1.243L0,168.248
		c0.177-13.925,0.542-27.843,0.872-41.764c0.377-13.92,0.687-27.841,1.388-41.762c0.174-3.481,0.356-6.96,0.627-10.451
		C3.2,70.789,3.448,67.354,3.63,63.879c0.369-6.935,0.531-13.889,0.707-20.846c0.197-6.957,0.333-13.922,0.757-20.887
		c0.183-3.494,0.673-6.951,0.904-10.407c0.257-3.461,0.416-6.94,0.323-10.407C6.317,1.248,6.382,1.177,6.466,1.173H6.471z"/>
</g>
<g>
	<path d="M6.917,15.963c10.334,0.413,20.656,0.841,30.98,1.124c5.16,0.16,10.331,0.312,15.486,0.023
		c1.289-0.063,2.576-0.16,3.856-0.312c1.27-0.125,2.561-0.415,3.865-0.419c2.588-0.104,5.172-0.17,7.757-0.232
		c5.171-0.134,10.341-0.205,15.511-0.233c5.17-0.042,10.34-0.062,15.51-0.019c10.34,0.048,20.679,0.229,31.016,0.595
		c0.028,0.001,0.05,0.024,0.049,0.052c-0.001,0.026-0.023,0.047-0.049,0.048c-10.341,0.249-20.68,0.34-31.018,0.334
		c-5.17,0.018-10.339-0.019-15.508-0.06L68.867,16.73c-2.584-0.016-5.17-0.044-7.749,0.014c-1.289-0.011-2.539,0.26-3.843,0.374
		c-1.29,0.126-2.58,0.229-3.871,0.322c-5.168,0.311-10.344,0.46-15.521,0.461c-5.176-0.025-10.347-0.254-15.511-0.554
		c-5.163-0.314-10.321-0.716-15.464-1.285c-0.027-0.003-0.047-0.027-0.044-0.056C6.868,15.981,6.891,15.962,6.917,15.963z"/>
</g>
<g>
	<path fill="#E20613" d="M41.614,17.742c0,2.294-6.666,2.294-6.666,0V3.037c0-2.294,6.666-2.294,6.666,0V17.742z"/>
	<path d="M41.664,17.744c0.01,0.504-0.359,0.95-0.771,1.194c-0.412,0.271-0.886,0.414-1.355,0.543
		c-0.951,0.224-1.947,0.276-2.944,0.091c-0.495-0.1-1.009-0.252-1.465-0.62c-0.223-0.188-0.43-0.443-0.536-0.76
		c-0.058-0.152-0.068-0.333-0.078-0.477l-0.006-0.358c-0.021-0.955-0.005-1.909,0.023-2.864c0.071-1.909,0.217-3.818,0.254-5.728
		c0.029-1.91-0.026-3.819-0.111-5.729c-0.018-0.251,0.085-0.624,0.248-0.847c0.164-0.244,0.378-0.438,0.604-0.583
		c0.453-0.302,0.951-0.46,1.448-0.571c0.997-0.202,2.019-0.224,3.032,0.02c0.505,0.125,1.021,0.309,1.491,0.698
		c0.229,0.2,0.442,0.474,0.549,0.809c0.06,0.161,0.072,0.353,0.081,0.501l0.007,0.358c0.019,0.955,0.012,1.909,0.012,2.864
		c-0.022,1.909-0.052,3.818-0.204,5.728C41.813,13.924,41.66,15.835,41.664,17.744z M41.564,17.74
		c0.004-1.91-0.149-3.816-0.279-5.727c-0.152-1.909-0.182-3.818-0.204-5.728c0-0.955-0.007-1.909,0.012-2.864L41.1,3.063
		c-0.007-0.088-0.001-0.138-0.024-0.203c-0.032-0.122-0.111-0.246-0.235-0.366c-0.259-0.235-0.653-0.415-1.068-0.528
		c-0.838-0.227-1.77-0.272-2.651-0.149c-0.838,0.134-1.841,0.467-1.898,1.221c-0.085,1.909-0.141,3.818-0.111,5.729
		c0.037,1.909,0.183,3.818,0.254,5.728c0.028,0.955,0.044,1.909,0.023,2.864l-0.006,0.358c0.006,0.093,0.002,0.154,0.027,0.227
		c0.032,0.142,0.117,0.284,0.247,0.416c0.273,0.257,0.67,0.468,1.096,0.606c0.855,0.283,1.812,0.36,2.738,0.26
		c0.464-0.055,0.925-0.181,1.332-0.403C41.229,18.599,41.558,18.219,41.564,17.74z"/>
</g>
<g>
	<path fill="#E20613" d="M103.401,17.741c0,2.295-6.666,2.295-6.666,0V3.034c0-2.295,6.666-2.295,6.666,0V17.741z"/>
	<path d="M103.451,17.743c0.01,0.504-0.359,0.951-0.771,1.194c-0.412,0.272-0.886,0.414-1.355,0.544
		c-0.951,0.224-1.948,0.276-2.944,0.091c-0.495-0.101-1.01-0.252-1.465-0.621c-0.223-0.188-0.43-0.443-0.536-0.76
		c-0.058-0.152-0.068-0.333-0.078-0.478l-0.006-0.357c-0.021-0.955-0.005-1.91,0.023-2.864c0.071-1.91,0.217-3.819,0.254-5.729
		c0.029-1.909-0.026-3.818-0.111-5.729c-0.018-0.25,0.085-0.624,0.248-0.847c0.163-0.244,0.378-0.438,0.604-0.583
		c0.453-0.303,0.951-0.461,1.448-0.572c0.997-0.201,2.019-0.224,3.032,0.02c0.505,0.125,1.021,0.309,1.491,0.699
		c0.229,0.2,0.442,0.474,0.549,0.809c0.06,0.161,0.072,0.353,0.081,0.502l0.007,0.357c0.019,0.955,0.012,1.91,0.012,2.864
		c-0.022,1.91-0.052,3.819-0.204,5.729C103.601,13.922,103.447,15.834,103.451,17.743z M103.352,17.739
		c0.004-1.91-0.149-3.817-0.279-5.727c-0.152-1.91-0.182-3.819-0.204-5.729c0-0.954-0.007-1.909,0.012-2.864l0.007-0.357
		c-0.007-0.089-0.001-0.139-0.024-0.204c-0.032-0.122-0.111-0.247-0.235-0.366c-0.258-0.236-0.652-0.415-1.068-0.529
		c-0.838-0.226-1.77-0.271-2.651-0.149c-0.839,0.134-1.841,0.468-1.898,1.222c-0.085,1.91-0.141,3.819-0.111,5.729
		c0.037,1.91,0.183,3.819,0.254,5.729c0.028,0.954,0.044,1.909,0.023,2.864l-0.006,0.357c0.006,0.094,0.002,0.155,0.027,0.229
		c0.032,0.141,0.117,0.283,0.247,0.416c0.273,0.256,0.67,0.468,1.096,0.606c0.855,0.283,1.812,0.36,2.738,0.26
		c0.464-0.055,0.925-0.181,1.332-0.403C103.016,18.599,103.345,18.218,103.352,17.739z"/>
</g>
<g>
	<path d="M30.948,20.373c-1.11,4.42-2.435,8.787-3.924,13.101c-1.5,4.31-3.178,8.567-5.191,12.688
		c-1.014,2.057-2.093,4.084-3.36,6.026c-1.261,1.933-2.644,3.775-4.092,5.56c-2.913,3.564-6.038,6.906-9.396,10.088
		c-0.401,0.38-1.034,0.362-1.414-0.039c-0.38-0.4-0.362-1.034,0.038-1.414c0.008-0.007,0.017-0.015,0.024-0.021l0.021-0.02
		c3.367-2.963,6.602-6.174,9.58-9.561c1.485-1.699,2.906-3.455,4.203-5.294c1.292-1.828,2.433-3.79,3.506-5.781
		c2.137-3.994,3.961-8.166,5.611-12.403C28.195,29.059,29.678,24.748,30.948,20.373z"/>
</g>
<g>
	<path d="M109.971,20.857c1.636,4.267,3.476,8.452,5.467,12.558c2.003,4.098,4.172,8.118,6.646,11.93
		c1.239,1.902,2.554,3.751,3.996,5.487c1.441,1.74,2.99,3.397,4.593,5c3.211,3.192,6.645,6.21,10.189,8.989l0.018,0.014
		c0.436,0.342,0.512,0.97,0.17,1.405c-0.341,0.435-0.97,0.511-1.404,0.17c-0.009-0.007-0.021-0.017-0.029-0.024
		c-3.536-2.996-6.863-6.153-10.01-9.525c-1.566-1.688-3.077-3.433-4.483-5.267c-1.408-1.836-2.682-3.763-3.866-5.732
		c-2.364-3.945-4.398-8.06-6.26-12.241C113.146,29.435,111.454,25.181,109.971,20.857z"/>
</g>
</svg>
