<?xml version="1.0" encoding="utf-8"?>
<!-- Generator: Adobe Illustrator 16.0.0, SVG Export Plug-In . SVG Version: 6.00 Build 0)  -->
<!DOCTYPE svg PUBLIC "-//W3C//DTD SVG 1.1//EN" "http://www.w3.org/Graphics/SVG/1.1/DTD/svg11.dtd">
<svg version="1.1" id="Layer_1" xmlns="http://www.w3.org/2000/svg" xmlns:xlink="http://www.w3.org/1999/xlink" x="0px" y="0px"
	 width="368.807px" height="200.076px" viewBox="0 0 368.807 200.076" enable-background="new 0 0 368.807 200.076"
	 xml:space="preserve">
<circle fill="none" stroke="#1A1A1A" stroke-miterlimit="10" cx="297.401" cy="126.863" r="70.906"/>
<g>
	<path d="M123.279,157.916c0.689,0.435,0.043,1.315-0.671,2.457l0,0c-0.716,1.14-1.229,2.104-1.92,1.672l-2.149-1.346
		c-0.69-0.435-0.67-1.71,0.046-2.851l0,0c0.715-1.141,1.855-1.714,2.545-1.281L123.279,157.916z"/>
	<rect x="122.433" y="157.519" transform="matrix(-0.5315 0.847 -0.847 -0.5315 325.5206 141.8743)" width="2.188" height="6.874"/>
	<g>
		<line fill="none" stroke="#999999" stroke-width="2" stroke-miterlimit="10" x1="23.581" y1="82.546" x2="118.286" y2="175.737"/>
		<line fill="none" stroke="#999999" stroke-width="2" stroke-miterlimit="10" x1="6.628" y1="112.465" x2="135.24" y2="145.817"/>
		<line fill="none" stroke="#999999" stroke-width="2" stroke-miterlimit="10" x1="6.902" y1="146.854" x2="134.963" y2="111.431"/>
		<line fill="none" stroke="#999999" stroke-width="2" stroke-miterlimit="10" x1="24.337" y1="176.497" x2="117.529" y2="81.789"/>
		<line fill="none" stroke="#999999" stroke-width="2" stroke-miterlimit="10" x1="54.258" y1="193.45" x2="87.611" y2="64.835"/>
		<line fill="none" stroke="#999999" stroke-width="2" stroke-miterlimit="10" x1="88.646" y1="193.174" x2="53.223" y2="65.112"/>
	</g>
	<path fill="none" stroke="#1A1A1A" stroke-width="9" stroke-miterlimit="10" d="M117.529,81.789
		c23.533,23.157,29.11,65.133,0.757,93.948c-25.734,26.152-67.797,26.49-93.947,0.757c-26.152-25.734-26.492-67.796-0.758-93.948
		C49.314,56.394,91.376,56.054,117.529,81.789z"/>
	<circle cx="70.933" cy="129.143" r="5.669"/>
</g>
<path d="M115.087,10.691c0,0-3.065-8.687,3.256-8.687c2.442,0,12.452,2.698,7.641,8.686s-11.415,20.192-11.415,20.192l-2.547-11.27
	L115.087,10.691z"/>
<g>
	<path d="M230.753,35.531c0.225-1.636,0.564-3.236,0.938-4.825c0.371-1.59,0.801-3.162,1.264-4.723
		c0.441-1.567,0.971-3.107,1.593-4.618c0.615-1.513,1.281-3.01,1.849-4.538l0.127-0.341l0.304,0.105
		c0.753,0.262,1.521,0.469,2.294,0.656c0.773,0.186,1.562,0.319,2.352,0.445l0.459,0.073l-0.106,0.539
		c-0.326,1.65-0.603,3.313-0.97,4.952c-0.36,1.64-0.769,3.268-1.15,4.903c-0.383,1.635-0.807,3.258-1.288,4.866
		c-0.469,1.611-0.976,3.212-1.511,4.806l-0.318,0.947l-0.795-0.386c-1.693-0.821-3.359-1.717-4.977-2.737l-0.07-0.044
		L230.753,35.531z M230.989,35.491c1.843,0.344,3.641,0.806,5.408,1.341l-1.112,0.562c0.339-1.646,0.706-3.285,1.112-4.913
		c0.393-1.632,0.842-3.249,1.334-4.854s0.959-3.217,1.473-4.816c0.507-1.601,1.105-3.177,1.654-4.767l0.352,0.611
		c-0.746-0.288-1.494-0.567-2.256-0.795c-0.764-0.227-1.531-0.433-2.312-0.585l0.43-0.235c-0.413,1.577-0.729,3.185-1.094,4.776
		c-0.358,1.594-0.811,3.158-1.35,4.695c-0.518,1.543-1.07,3.076-1.68,4.591C232.354,32.584,231.724,34.054,230.989,35.491z"/>
</g>
<g>
	<polygon fill="#FFB000" points="299.64,122.442 237.728,37.504 238.794,31.436 231.492,29.875 228.179,33.175 205.543,33.786 
		115.647,35.971 113.357,44.588 193.192,128.947 196.171,125.964 128.042,47.945 129.781,43.296 201.792,41.213 223.577,42.059 
		224.632,44.446 200.774,122.687 205.423,124.896 208.298,124.28 232.297,52.679 236.958,51.776 290.998,121.321 290.724,123.188 
		284.118,125.392 206.313,127.021 209.47,132.942 297.354,130.826 302.032,126.112 	"/>
	<path d="M299.476,122.558l-15.516-21.203l-15.605-21.141l-31.432-42.123c-0.164-0.219-0.221-0.484-0.181-0.734l0.004-0.025
		l0.995-6.081l0.828,1.23l-7.319-1.475l1.06-0.312l-3.275,3.339c-0.219,0.223-0.504,0.34-0.793,0.352l-0.03,0.001l-28.127,1.064
		l-28.128,0.874l-28.131,0.756l-28.134,0.64l1.65-1.301l-2.332,8.606l-0.41-1.614c13.257,14.106,26.384,28.336,39.582,42.498
		l19.766,21.271c6.594,7.086,13.156,14.201,19.802,21.238l-1.098-0.016l2.988-2.971l-0.033,1.022l-16.961-19.565
		c-5.649-6.525-11.3-13.052-17.012-19.522L144.548,67.91l-17.112-19.435c-0.2-0.228-0.248-0.537-0.151-0.802l0.004-0.01l1.705-4.662
		c0.119-0.327,0.423-0.534,0.75-0.546h0.014l46.892-1.717l23.445-0.877l1.465-0.055l0.184-0.007l0.279,0.005l0.365,0.011
		l0.733,0.022l2.933,0.088l5.861,0.18l11.725,0.39c0.61,0.02,1.127,0.391,1.362,0.914l0.009,0.018l1.066,2.381
		c0.158,0.354,0.175,0.735,0.072,1.08l-0.006,0.019l-11.713,39.187l-11.801,39.159l-1.021-2.316l4.652,2.195l-1.246-0.146
		l2.875-0.621l-1.449,1.293l11.889-35.837l11.945-35.818c0.252-0.753,0.891-1.273,1.617-1.417l4.66-0.905
		c0.814-0.159,1.614,0.173,2.092,0.786l26.979,34.805l13.464,17.421c4.499,5.799,8.964,11.625,13.418,17.457l0.02,0.024
		c0.32,0.42,0.437,0.939,0.363,1.425l-0.289,1.865l-0.004,0.028c-0.111,0.721-0.623,1.282-1.271,1.495l-6.622,2.152l-0.026,0.008
		c-0.169,0.056-0.349,0.084-0.518,0.086l-19.455,0.262l-19.454,0.236l-38.912,0.328l0.896-1.525l3.084,5.959l-0.868-0.506
		l43.954-0.555l21.977-0.379l21.973-0.455l-0.156,0.067l4.688-4.702l-0.026,0.264L299.476,122.558z M299.808,122.333l2.401,3.663
		c0.056,0.085,0.042,0.194-0.026,0.265l-4.664,4.727c-0.043,0.043-0.102,0.065-0.158,0.068l-21.969,0.604l-21.968,0.679
		l-43.931,1.562c-0.366,0.014-0.691-0.186-0.857-0.485l-0.011-0.021l-3.228-5.885c-0.272-0.499-0.09-1.125,0.408-1.398
		c0.146-0.079,0.301-0.12,0.457-0.125l0.029-0.002l38.893-1.303l19.446-0.58l19.447-0.553l-0.544,0.094l6.589-2.25l-1.274,1.521
		l0.26-1.87l0.383,1.449c-4.553-5.759-9.096-11.523-13.604-17.315l-13.556-17.351l-27.062-34.74l2.092,0.786l-4.66,0.901
		l1.615-1.416L222.267,89.14l-12.11,35.763l-0.003,0.011c-0.229,0.676-0.795,1.144-1.445,1.283l-2.876,0.605l-0.011,0.003
		c-0.434,0.092-0.864,0.029-1.235-0.148l-4.642-2.221l-0.01-0.004c-0.877-0.418-1.291-1.412-1.014-2.312l12.055-39.082
		l12.146-39.054l0.066,1.099l-1.043-2.393l1.371,0.931l-11.719-0.521l-5.859-0.275l-2.93-0.139l-0.732-0.035l-0.364-0.018
		l-0.093-0.004l-0.045-0.002l-0.022-0.001c-0.094-0.001,0.101,0,0.072,0l-0.185,0.004l-1.466,0.03l-23.456,0.479l-46.912,0.997
		l0.764-0.547l-1.773,4.636l-0.147-0.812l16.952,19.575l16.979,19.551c5.644,6.531,11.348,13.009,17.053,19.486l17.104,19.443
		c0.261,0.297,0.244,0.741-0.028,1.018l-0.005,0.006l-2.969,2.994c-0.297,0.299-0.779,0.301-1.078,0.005
		c-0.006-0.005-0.014-0.015-0.02-0.021c-6.66-7.021-13.404-13.967-20.115-20.94l-20.152-20.907
		c-13.413-13.958-26.898-27.848-40.253-41.862c-0.42-0.44-0.557-1.048-0.415-1.597l0.005-0.017l2.248-8.628
		c0.2-0.768,0.883-1.282,1.638-1.302h0.013l28.133-0.727l28.135-0.612l28.137-0.493l28.138-0.424l-0.823,0.353l3.354-3.261
		l0.02-0.019c0.281-0.275,0.681-0.371,1.039-0.292l7.283,1.647l0.023,0.005c0.557,0.125,0.908,0.67,0.805,1.225l-1.138,6.055
		l-0.177-0.759l30.48,42.816l15.351,21.33l15.438,21.264C299.804,122.328,299.806,122.331,299.808,122.333z"/>
</g>
<path d="M132.502,6.345c-0.072,3.427-3.066,6.143-6.688,6.066c-3.621-0.077-6.497-2.917-6.425-6.345
	c0.073-3.426,3.066-6.142,6.688-6.064C129.699,0.079,132.575,2.917,132.502,6.345z"/>
<path d="M217.741,21.171c-4.288,1.093-1.771,6.066,5.208,4.225c7.638-2.015,21.959-0.519,27.831-0.37
	c8.338,0.211,19.537-6.543,13.664-13.609C256.979,2.437,230.043,18.036,217.741,21.171z"/>
<rect x="205.559" y="139.798" transform="matrix(-0.9524 0.3049 -0.3049 -0.9524 451.8519 233.4498)" fill="#FFFFFF" stroke="#000000" stroke-width="2" stroke-miterlimit="10" width="4.276" height="24.419"/>
<rect x="194.12" y="104.677" transform="matrix(-0.9523 0.3051 -0.3051 -0.9523 418.8206 168.3204)" fill="#FFFFFF" stroke="#000000" stroke-width="2" stroke-miterlimit="10" width="4.276" height="24.419"/>
<ellipse transform="matrix(-0.9998 -0.0212 0.0212 -0.9998 398.2834 269.4885)" cx="200.569" cy="132.634" rx="10.071" ry="9.954"/>
<g>
	<path fill="#FFB000" d="M112.5,21.732l6.525,1.543l-7.908,30.517l-0.957,0.917c0,0-12.68,57.149-40.521,77.146l-2.564-0.523
		l1.699-2.775c0,0,30.09-46.548,32.07-76.386l1.425-0.906l8.581-29.098L112.5,21.732z"/>
	<path d="M112.546,21.537c2.214,0.352,4.422,0.726,6.626,1.118l0.608,0.108l-0.139,0.672c-0.527,2.577-1.044,5.157-1.606,7.725
		c-0.562,2.568-1.101,5.142-1.695,7.702c-0.591,2.561-1.148,5.13-1.766,7.684l-1.827,7.668l-0.104,0.439l-0.36,0.355l-0.945,0.929
		l0.484-0.86c-1.648,7.325-3.679,14.46-6.27,21.453c-2.607,6.973-5.63,13.789-9.021,20.404c-3.4,6.609-7.052,13.081-11.229,19.236
		c-4.212,6.106-8.946,12.001-14.973,16.646l-0.378,0.291l-0.55-0.094l-2.582-0.437l-1.759-0.298l0.928-1.614
		c3.624-6.306,7.184-12.495,10.575-18.861c3.405-6.335,6.621-12.769,9.565-19.309c2.975-6.523,5.737-13.133,8.105-19.855
		c2.305-6.729,4.281-13.603,4.975-20.58l0.088-0.874l0.668-0.4l1.449-0.867l-0.672,0.893c1.543-4.816,3.207-9.597,4.805-14.397
		c0.797-2.4,1.615-4.795,2.467-7.18c0.849-2.385,1.663-4.781,2.539-7.158l0.067-0.182l0.151-0.03l1.724-0.337L112.546,21.537z
		 M112.503,21.941l-1.574,0.523l0.218-0.211c-0.554,2.473-1.169,4.927-1.751,7.391c-0.578,2.465-1.19,4.92-1.822,7.37
		c-1.264,4.899-2.46,9.817-3.776,14.701l-0.146,0.537l-0.527,0.356l-1.4,0.944l0.756-1.274c-0.146,3.734-0.7,7.413-1.47,11.021
		c-0.755,3.614-1.739,7.162-2.878,10.648c-2.239,6.988-5.069,13.738-8.189,20.325c-3.164,6.567-6.585,12.991-10.19,19.301
		c-1.812,3.15-3.671,6.271-5.615,9.343c-0.976,1.533-1.951,3.065-2.967,4.577l-1.514,2.238l-1.495,2.265l-0.831-1.912l2.547,0.612
		l-0.928,0.197c5.984-4.029,11.076-9.471,15.318-15.444c4.267-5.981,7.726-12.53,10.606-19.291
		c2.882-6.77,5.289-13.722,7.488-20.723c1.101-3.5,2.209-6.998,3.229-10.52c1.05-3.505,2.062-7.06,2.907-10.575l0.127-0.526
		l0.357-0.333l0.969-0.904l-0.465,0.793l2.127-7.59c0.701-2.532,1.461-5.049,2.188-7.575c0.724-2.526,1.502-5.038,2.259-7.556
		c0.756-2.518,1.558-5.024,2.348-7.533l0.47,0.78C116.749,23.264,114.623,22.614,112.503,21.941z"/>
</g>
<polygon points="108.13,17.891 106.931,19.272 107.832,20.929 123.201,25.237 125.576,23.648 "/>
<polygon points="97.865,49.062 97.557,52.57 113.403,56.42 115.087,54.346 "/>
<polygon points="182.642,106.204 185.073,112.049 204.372,107.772 203.374,100.553 "/>
<polygon points="199.771,161.687 202.201,167.532 221.949,161.876 220.502,156.036 "/>
<ellipse fill="#E6E6E6" cx="126.998" cy="6.647" rx="2.422" ry="3.043"/>
</svg>
