<?xml version="1.0" encoding="utf-8"?>
<!-- Generator: Adobe Illustrator 16.0.0, SVG Export Plug-In . SVG Version: 6.00 Build 0)  -->
<!DOCTYPE svg PUBLIC "-//W3C//DTD SVG 1.1//EN" "http://www.w3.org/Graphics/SVG/1.1/DTD/svg11.dtd">
<svg version="1.1" id="Layer_1" xmlns="http://www.w3.org/2000/svg" xmlns:xlink="http://www.w3.org/1999/xlink" x="0px" y="0px"
	 width="100.143px" height="186.096px" viewBox="0 0 100.143 186.096" enable-background="new 0 0 100.143 186.096"
	 xml:space="preserve">
<g id="Layer_2">
	<path fill="#29ABE2" stroke="#000000" stroke-width="2.8347" stroke-linecap="round" stroke-linejoin="round" d="M7.364,2.063
		c0,0-0.463,53.363-1.404,71.024c-0.439,8.261-3.67,103.006-4.541,105.448c2,0.418,45.994,9.33,45.994,2.552
		c0-6.883,3.404-122.528,3.887-129c0.975-13.159,2.221,126.282,3.66,129.5c19.162,7.617,39.955-1.348,43.414-0.5
		c0.338-2.907-4.951-72.648-5.154-75.5c-2.717-37.931-2.045-84.5-3.648-103.524C89.515,1.406,7.364,2.063,7.364,2.063z"/>
	<path fill="none" stroke="#000100" stroke-width="2" stroke-miterlimit="10" d="M90.853,43.491
		c-8.08-0.014-9.314,0.486-13.107-3.568c-3.793-4.059-4.693-24.109-5.949-36.818"/>
	<path fill="none" stroke="#000100" stroke-width="2" stroke-miterlimit="10" d="M6.522,43.491c8.08-0.014,9.316,0.486,13.109-3.568
		c3.793-4.059,4.693-24.109,5.949-36.818"/>
</g>
</svg>
