<?xml version="1.0" encoding="utf-8"?>
<!-- Generator: Adobe Illustrator 16.0.0, SVG Export Plug-In . SVG Version: 6.00 Build 0)  -->
<!DOCTYPE svg PUBLIC "-//W3C//DTD SVG 1.1//EN" "http://www.w3.org/Graphics/SVG/1.1/DTD/svg11.dtd">
<svg version="1.1" id="Layer_1" xmlns="http://www.w3.org/2000/svg" xmlns:xlink="http://www.w3.org/1999/xlink" x="0px" y="0px"
	 width="93.497px" height="70px" viewBox="0 0 93.497 70" enable-background="new 0 0 93.497 70" xml:space="preserve">
<g id="Layer_2">
	<path fill="#C69C6D" stroke="#000100" stroke-width="2.8347" stroke-linecap="round" stroke-linejoin="round" d="M6.22,2.494
		c0,0,0.328,1.312,0.145,3.41C5.245,18.576,4.353,26.83,3.409,39.551C2.97,45.504,2.288,65.479,1.417,67.238
		c2,0.304,34.008,1.082,37.648,1.181c4.709,0.125,5.867,0.722,6.412-1.506c1.084-4.443,1.252-6.345,1.252-6.345
		s0.965,5.5,2.404,7.817c7.877-0.711,39.047-1.245,42.506-0.635c0.338-2.096,0.168-4.123-0.096-6.174
		c-4.129-32.125-7.472-57.55-6.976-59.748C84.679,1.361,6.22,2.494,6.22,2.494z"/>
	
		<line fill="none" stroke="#000100" stroke-width="2.8347" stroke-linecap="round" stroke-linejoin="round" x1="46.729" y1="59.847" x2="46.556" y2="34.671"/>
	<g>
		<path fill="#000100" d="M7.147,43.484c2.514-0.224,5.023-0.315,7.531-0.334c2.506-0.011,5.014-0.015,7.516,0.206l0.074,0.007
			c0.262,0.022,0.463,0.234,0.482,0.488c0.137,1.767,0.143,3.507,0.1,5.256c-0.047,1.744-0.09,3.492-0.475,5.235
			c-0.182,0.883-0.584,1.736-1.115,2.474c-0.527,0.748-1.193,1.411-1.959,1.938c-1.553,1.039-3.441,1.502-5.283,1.472
			c-1.842-0.041-3.711-0.456-5.336-1.466c-0.812-0.494-1.562-1.151-2.113-2c-0.275-0.424-0.498-0.893-0.633-1.395
			c-0.037-0.128-0.061-0.244-0.09-0.388L5.8,54.657l-0.082-0.684c-0.152-1.803-0.096-3.579,0.17-5.319
			c0.248-1.741,0.627-3.452,1.186-5.112C7.085,43.51,7.116,43.487,7.147,43.484z M7.214,43.641
			c-0.348,3.416-0.596,6.873-0.08,10.145l0.119,0.603l0.07,0.315c0.02,0.068,0.039,0.164,0.066,0.242
			c0.102,0.332,0.266,0.648,0.473,0.945c0.422,0.59,1.01,1.093,1.664,1.51c1.334,0.809,2.926,1.311,4.537,1.396
			c1.609,0.078,3.256-0.192,4.67-0.971c1.402-0.75,2.641-2.037,3.115-3.625c0.924-3.291,0.361-6.861-0.24-10.186l0.557,0.494
			c-2.51,0.097-5.014-0.031-7.518-0.168C12.169,44.202,9.69,43.983,7.214,43.641z"/>
	</g>
</g>
</svg>
