<?xml version="1.0" encoding="utf-8"?>
<!-- Generator: Adobe Illustrator 16.0.0, SVG Export Plug-In . SVG Version: 6.00 Build 0)  -->
<!DOCTYPE svg PUBLIC "-//W3C//DTD SVG 1.1//EN" "http://www.w3.org/Graphics/SVG/1.1/DTD/svg11.dtd">
<svg version="1.1" id="Layer_1" xmlns="http://www.w3.org/2000/svg" xmlns:xlink="http://www.w3.org/1999/xlink" x="0px" y="0px"
	 width="120.994px" height="227.701px" viewBox="0 0 120.994 227.701" enable-background="new 0 0 120.994 227.701"
	 xml:space="preserve">
<path fill="#FF69A6" stroke="#000100" stroke-width="2.8347" stroke-linecap="round" stroke-linejoin="round" d="M95.585,74.39
	c-1.684-7.631-2.35-4.326,1.865-5.76c1.406-0.479,4.246-1.484,6.588-3.602c14.305-12.936,14.516-17.066,15.539-22.039
	c-2.443-1.971-5.271-17.387-25.629-29.199c-5.164-2.996-19.531-8.889-28.895-11.799C62.644,12.522,54.8,6.194,55.55,1.417
	C51.122,3.546,26.013,11.896,18.198,17.56C9.636,23.772,3.438,55.917,1.417,58.401c6.955,8.662,18.896,12.023,25,15
	c1.5-5,2.787-10.178,2.787-10.178c0.441,1.457-0.812,12.578-1.391,16.555c-4.709,32.383-10.592,137.871-11.463,140.314
	c0.939,0.197,20.676,6.178,42.766,6.191c24.947,0.016,52.621-5.93,54.457-5.48c0.338-2.908,0.168-13.723-0.096-16.57
	C110.347,170.427,102.245,104.562,95.585,74.39z"/>
<line fill="#FF69A6" stroke="#000100" stroke-width="2.8347" stroke-linecap="round" stroke-linejoin="round" x1="91.556" y1="57.772" x2="94.45" y2="68.63"/>
<g>
	<path fill="#FF0D98" d="M32.309,192.608c-2.771,2.429-6.203,6.472,0,14.743c6.204,8.271,12.407,11.635,12.407,11.635
		s15.854-3.714,18.61-13.189c2.757-9.475-4.136-15.523-9.649-13.188c-5.515,2.335-6.924,5.782-6.924,5.782
		S41.959,184.152,32.309,192.608z"/>
	<path fill="#000100" d="M32.358,192.664c-1.042,0.938-2.037,1.963-2.626,3.231c-0.315,0.618-0.506,1.29-0.613,1.967
		c-0.071,0.684-0.073,1.37,0.034,2.046c0.097,0.677,0.299,1.333,0.522,1.978c0.263,0.635,0.535,1.261,0.888,1.854
		c0.303,0.614,0.734,1.166,1.097,1.747c0.415,0.543,0.831,1.125,1.239,1.638l1.362,1.618c0.45,0.54,0.886,1.104,1.372,1.588
		l1.401,1.526c0.457,0.517,0.986,0.977,1.468,1.477c0.489,0.495,0.987,0.98,1.51,1.438c0.521,0.459,1.014,0.959,1.562,1.386
		c0.542,0.434,1.066,0.898,1.634,1.298c0.551,0.417,1.128,0.823,1.698,1.179l-0.281-0.038c2.135-0.462,4.265-1.134,6.302-1.979
		c1.017-0.431,2.027-0.884,2.989-1.425c0.493-0.249,0.962-0.54,1.431-0.829c0.477-0.277,0.939-0.575,1.382-0.903
		c0.918-0.606,1.745-1.337,2.534-2.088c0.371-0.399,0.763-0.779,1.115-1.19l0.971-1.298l0.776-1.405
		c0.24-0.475,0.368-0.996,0.559-1.486l0.122-0.348l0.082-0.408l0.172-0.815c0.148-0.554,0.144-1.06,0.208-1.582
		c0.093-1.041,0.021-2.115-0.153-3.142c-0.101-0.512-0.244-1.015-0.392-1.511c-0.215-0.47-0.349-0.979-0.636-1.409
		c-0.457-0.928-1.166-1.688-1.913-2.355c-0.775-0.649-1.691-1.086-2.637-1.339c-0.954-0.249-1.948-0.198-2.881,0.048l-0.654,0.211
		l-0.749,0.367c-0.478,0.257-1.046,0.46-1.449,0.752c-0.879,0.518-1.747,1.128-2.508,1.848l-0.561,0.545l-0.502,0.59
		c-0.324,0.383-0.63,0.847-0.824,1.216l-0.031,0.061c-0.182,0.346-0.609,0.479-0.956,0.298c-0.167-0.088-0.285-0.235-0.342-0.4
		c-0.237-0.703-0.538-1.451-0.864-2.155c-0.332-0.708-0.701-1.399-1.108-2.065c-0.821-1.319-1.829-2.555-3.141-3.378
		c-0.331-0.195-0.672-0.373-1.032-0.514c-0.36-0.131-0.731-0.243-1.115-0.299c-0.381-0.058-0.773-0.098-1.163-0.062
		c-0.394,0-0.777,0.1-1.165,0.174c-0.376,0.121-0.762,0.22-1.122,0.394c-0.374,0.142-0.72,0.343-1.066,0.542
		C33.612,191.66,32.978,192.151,32.358,192.664z M32.259,192.553c0.614-0.529,1.248-1.039,1.942-1.467
		c0.69-0.43,1.425-0.797,2.21-1.054c0.398-0.103,0.798-0.212,1.213-0.254c0.41-0.07,0.834-0.064,1.25-0.036
		c0.421,0.027,0.835,0.114,1.242,0.227c0.406,0.12,0.796,0.284,1.178,0.47c1.508,0.784,2.719,2.011,3.719,3.34
		c0.504,0.666,0.947,1.373,1.348,2.103c0.404,0.735,0.76,1.467,1.064,2.283l-1.328-0.042c0.287-0.632,0.595-1.104,0.96-1.591
		c0.184-0.233,0.368-0.469,0.561-0.693l0.621-0.63c0.841-0.823,1.782-1.521,2.81-2.145c0.506-0.356,0.996-0.533,1.498-0.796
		l0.75-0.365c0.366-0.141,0.613-0.208,0.927-0.312c1.201-0.314,2.502-0.383,3.701-0.035c1.19,0.341,2.302,0.92,3.219,1.721
		c0.886,0.819,1.69,1.749,2.201,2.833c0.316,0.512,0.467,1.094,0.694,1.641c0.157,0.568,0.308,1.145,0.403,1.723
		c0.151,1.171,0.182,2.332,0.032,3.501c-0.091,0.576-0.135,1.189-0.297,1.708l-0.209,0.808l-0.107,0.402
		c-0.062,0.191-0.114,0.286-0.172,0.434c-0.239,0.531-0.421,1.091-0.711,1.59c-0.31,0.488-0.607,0.983-0.927,1.459l-1.102,1.313
		c-0.392,0.412-0.819,0.786-1.227,1.18c-0.856,0.736-1.752,1.424-2.69,2.038c-0.458,0.326-0.936,0.62-1.425,0.894
		c-0.483,0.283-0.965,0.57-1.469,0.812c-0.993,0.516-2.001,0.999-3.024,1.447c-2.056,0.884-4.134,1.685-6.307,2.318
		c-0.092,0.026-0.185,0.014-0.262-0.027l-0.021-0.011c-0.651-0.349-1.254-0.717-1.854-1.112c-0.611-0.376-1.174-0.812-1.76-1.224
		c-0.592-0.404-1.124-0.88-1.689-1.318c-0.57-0.433-1.086-0.927-1.609-1.413c-0.519-0.492-1.065-0.95-1.544-1.489l-1.465-1.583
		c-0.5-0.525-0.914-1.089-1.354-1.642l-1.29-1.676c-0.438-0.613-0.815-1.199-1.197-1.816c-0.332-0.645-0.726-1.247-0.994-1.926
		c-0.315-0.65-0.548-1.34-0.768-2.031c-0.184-0.704-0.339-1.414-0.384-2.143c-0.056-0.726,0.006-1.456,0.14-2.167
		c0.183-0.699,0.394-1.393,0.755-2.016c0.327-0.639,0.777-1.198,1.229-1.745C31.21,193.505,31.73,193.015,32.259,192.553z"/>
</g>
</svg>
