<?xml version="1.0" encoding="utf-8"?>
<!-- Generator: Adobe Illustrator 16.0.0, SVG Export Plug-In . SVG Version: 6.00 Build 0)  -->
<!DOCTYPE svg PUBLIC "-//W3C//DTD SVG 1.1//EN" "http://www.w3.org/Graphics/SVG/1.1/DTD/svg11.dtd">
<svg version="1.1" id="Layer_1" xmlns="http://www.w3.org/2000/svg" xmlns:xlink="http://www.w3.org/1999/xlink" x="0px" y="0px"
	 width="127.84px" height="251.295px" viewBox="0 0 127.84 251.295" enable-background="new 0 0 127.84 251.295"
	 xml:space="preserve">
<path fill="#FBB03B" stroke="#000100" stroke-width="2.8347" stroke-linecap="round" stroke-linejoin="round" d="M99.179,74.392
	c-0.615-10.404-0.033-4.446,7.453-9.361c15.539-11.426,18.768-12.205,19.791-17.177c-5.271-6.138-5.523-22.249-25.881-34.062
	C95.38,10.796,78.796,4.067,68.647,1.993c-2.41,10.529-10.254,4.202-9.504-0.576c-4.428,2.131-30.537,9.479-38.352,15.144
	C12.229,22.772,3.437,49.12,1.417,51.604c6.953,8.662,20.734,18.366,26.838,21.342c5.68-3.527,4.543-9.723,4.543-9.723
	c0.441,1.459-1.193,12.543-1.391,16.557c-1.752,35.758-10.592,166.871-11.463,169.313c2,0.419,56.811,1.665,92.82-0.259
	c0.338-2.908-0.801-32.801-1.064-35.648C108.571,179.38,101.181,108.187,99.179,74.392z"/>
<g>
	<circle fill="#F7931E" cx="94.342" cy="232.046" r="14.048"/>
	<path fill="#000100" d="M108.466,232.047c-0.008,3.677-1.275,7.439-3.857,10.266c-2.529,2.859-6.42,4.525-10.268,4.405
		c-1.916-0.059-3.816-0.514-5.535-1.306c-1.721-0.796-3.266-1.922-4.57-3.261c-2.621-2.672-4.234-6.3-4.352-10.116
		c-0.168-3.767,1.307-7.673,4.025-10.422c2.688-2.782,6.514-4.456,10.453-4.415c1.895,0.026,3.875,0.41,5.633,1.2
		c1.775,0.772,3.357,1.947,4.629,3.364C107.196,224.604,108.476,228.362,108.466,232.047z M108.315,232.045
		c0.023-3.685-1.73-7.236-4.389-9.583c-2.672-2.354-6.084-3.705-9.605-3.664c-3.43,0.005-6.916,1.363-9.414,3.812
		c-2.514,2.439-4.07,5.844-4.203,9.445c-0.152,3.553,1.266,7.236,3.875,9.752c2.604,2.542,6.26,3.793,9.762,3.662
		c3.521-0.084,6.941-1.451,9.602-3.823C106.593,239.285,108.356,235.736,108.315,232.045z"/>
</g>
<g>
	<circle fill="#F7931E" cx="70.985" cy="207.724" r="9.43"/>
	<path fill="#000100" d="M80.491,207.724c-0.014,2.467-0.783,5.027-2.504,7c-1.684,2-4.35,3.168-7.018,3.053
		c-1.281-0.059-2.6-0.395-3.752-0.955c-1.164-0.564-2.195-1.348-3.072-2.258c-1.75-1.826-2.875-4.246-3-6.851
		c-0.162-2.556,0.814-5.26,2.674-7.156c1.836-1.923,4.459-3.098,7.188-3.063c1.289,0.027,2.666,0.291,3.865,0.85
		c1.217,0.541,2.287,1.373,3.131,2.363C79.716,202.694,80.495,205.251,80.491,207.724z M80.341,207.722
		c0.018-2.473-1.236-4.822-3.037-6.317c-1.818-1.493-4.027-2.347-6.338-2.312c-2.219,0.012-4.502,0.871-6.148,2.461
		c-1.652,1.586-2.713,3.789-2.852,6.18c-0.148,2.341,0.764,4.829,2.523,6.485c1.758,1.683,4.188,2.435,6.512,2.31
		c2.279-0.09,4.52-0.958,6.32-2.471C79.11,212.55,80.376,210.202,80.341,207.722z"/>
</g>
<g>
	<circle fill="#F7931E" cx="36.343" cy="205.2" r="8.828"/>
	<path fill="#000100" d="M45.245,205.201c-0.014,2.308-0.719,4.712-2.328,6.574c-1.57,1.888-4.08,2.989-6.59,2.876
		c-1.203-0.059-2.441-0.379-3.523-0.909c-1.09-0.535-2.055-1.272-2.875-2.128c-1.639-1.715-2.697-3.978-2.824-6.425
		c-0.16-2.397,0.75-4.944,2.498-6.73c1.715-1.81,4.211-2.92,6.74-2.886c2.518,0.013,5.029,1.129,6.592,3.035
		C44.534,200.485,45.249,202.886,45.245,205.201z M45.095,205.199c0.02-2.315-1.172-4.509-2.859-5.892
		c-1.697-1.381-3.779-2.17-5.893-2.135c-2.1,0.012-4.199,0.807-5.744,2.284c-1.539,1.474-2.533,3.521-2.674,5.753
		c-0.146,2.184,0.699,4.516,2.348,6.061c1.645,1.57,3.92,2.257,6.086,2.133c2.121-0.091,4.205-0.894,5.893-2.294
		C43.931,209.712,45.13,207.521,45.095,205.199z"/>
</g>
<g>
	<circle fill="#F7931E" cx="55.093" cy="190.67" r="8.828"/>
	<path fill="#000100" d="M63.995,190.671c-0.014,2.308-0.719,4.712-2.328,6.574c-1.57,1.887-4.08,2.99-6.59,2.877
		c-1.203-0.06-2.441-0.381-3.523-0.91c-1.09-0.535-2.055-1.272-2.875-2.128c-1.639-1.715-2.697-3.978-2.824-6.425
		c-0.16-2.397,0.75-4.945,2.498-6.73c1.715-1.811,4.211-2.92,6.74-2.887c2.518,0.014,5.029,1.129,6.592,3.037
		C63.284,185.955,63.999,188.356,63.995,190.671z M63.845,190.669c0.02-2.315-1.172-4.509-2.859-5.893
		c-1.697-1.38-3.779-2.17-5.893-2.135c-2.1,0.012-4.199,0.808-5.744,2.285c-1.539,1.475-2.533,3.521-2.674,5.754
		c-0.146,2.183,0.699,4.514,2.348,6.059c1.645,1.57,3.92,2.258,6.086,2.135c2.121-0.092,4.205-0.895,5.893-2.295
		C62.681,195.181,63.88,192.991,63.845,190.669z"/>
</g>
<g>
	<circle fill="#F7931E" cx="52.422" cy="165.554" r="6.747"/>
	<path fill="#000100" d="M59.245,165.556c-0.016,1.763-0.504,3.62-1.719,5.102c-1.188,1.5-3.156,2.379-5.121,2.268
		c-0.93-0.059-1.896-0.326-2.725-0.752c-0.838-0.431-1.572-1.014-2.201-1.676c-1.252-1.331-2.086-3.053-2.215-4.953
		c-0.16-1.854,0.52-3.863,1.889-5.26c1.34-1.423,3.266-2.309,5.289-2.277c1.932,0.016,3.932,0.908,5.1,2.428
		C58.747,161.931,59.247,163.784,59.245,165.556z M59.095,165.554c0.014-1.77-0.943-3.426-2.25-4.422
		c-1.324-0.992-2.836-1.557-4.443-1.525c-1.514,0.016-3.1,0.586-4.252,1.676c-1.143,1.094-1.92,2.596-2.064,4.281
		c-0.145,1.639,0.477,3.428,1.738,4.589c1.262,1.183,2.994,1.646,4.615,1.524c1.574-0.094,3.117-0.672,4.422-1.686
		C58.157,168.982,59.126,167.329,59.095,165.554z"/>
</g>
<g>
	<circle fill="#F7931E" cx="72.748" cy="179.762" r="6.747"/>
	<path fill="#000100" d="M79.569,179.763c-0.016,1.764-0.504,3.621-1.719,5.103c-1.188,1.499-3.156,2.378-5.119,2.267
		c-0.93-0.059-1.896-0.326-2.727-0.751c-0.838-0.431-1.572-1.015-2.201-1.677c-1.25-1.33-2.086-3.052-2.213-4.953
		c-0.16-1.853,0.518-3.863,1.887-5.26c1.342-1.422,3.266-2.308,5.291-2.276c1.932,0.016,3.932,0.907,5.1,2.427
		C79.073,176.138,79.571,177.992,79.569,179.763z M79.419,179.761c0.016-1.769-0.941-3.426-2.25-4.421
		c-1.322-0.993-2.834-1.558-4.441-1.525c-1.514,0.015-3.102,0.585-4.252,1.675c-1.145,1.095-1.922,2.596-2.064,4.282
		c-0.146,1.638,0.477,3.428,1.736,4.589c1.262,1.182,2.996,1.645,4.615,1.523c1.576-0.094,3.117-0.672,4.422-1.685
		C78.483,183.19,79.452,181.536,79.419,179.761z"/>
</g>
<g>
	<circle fill="#F7931E" cx="95.969" cy="178.136" r="7.319"/>
	<path fill="#000100" d="M103.362,178.137c-0.014,1.913-0.564,3.919-1.887,5.507c-1.293,1.606-3.41,2.547-5.523,2.436
		c-1.006-0.06-2.047-0.342-2.945-0.795c-0.906-0.461-1.705-1.086-2.387-1.802c-1.357-1.437-2.254-3.306-2.381-5.358
		c-0.16-2.002,0.588-4.156,2.055-5.663c1.447-1.528,3.52-2.477,5.695-2.444c2.08,0.015,4.23,0.969,5.504,2.595
		C102.806,174.214,103.364,176.216,103.362,178.137z M103.212,178.135c0.016-1.919-1.004-3.725-2.418-4.825
		c-1.428-1.1-3.088-1.727-4.846-1.693c-1.664,0.014-3.4,0.646-4.656,1.842c-1.26,1.196-2.092,2.852-2.232,4.688
		c-0.146,1.787,0.537,3.727,1.904,4.993c1.367,1.289,3.25,1.813,5.02,1.692c1.725-0.094,3.416-0.734,4.826-1.854
		C102.216,181.863,103.245,180.061,103.212,178.135z"/>
</g>
<g>
	<circle fill="#F7931E" cx="98.152" cy="202.907" r="9.812"/>
	<path fill="#000100" d="M108.038,202.908c-0.012,2.565-0.822,5.226-2.615,7.27c-1.752,2.07-4.52,3.279-7.287,3.165
		c-1.33-0.06-2.697-0.406-3.898-0.984c-1.209-0.585-2.283-1.396-3.195-2.342c-1.82-1.896-2.986-4.415-3.111-7.12
		c-0.162-2.655,0.855-5.458,2.785-7.426c1.898-1.993,4.648-3.209,7.438-3.175c2.775,0.012,5.543,1.234,7.285,3.324
		C107.222,197.679,108.044,200.335,108.038,202.908z M107.888,202.906c0.02-2.573-1.277-5.022-3.146-6.587
		c-1.881-1.564-4.219-2.459-6.588-2.424c-2.359,0.012-4.713,0.912-6.439,2.573c-1.723,1.655-2.824,3.958-2.963,6.448
		c-0.148,2.441,0.805,5.029,2.637,6.756c1.826,1.753,4.357,2.546,6.781,2.422c2.377-0.091,4.717-1,6.588-2.583
		C106.618,207.933,107.925,205.486,107.888,202.906z"/>
</g>
<g>
	<circle fill="#F7931E" cx="80.293" cy="153.829" r="4.7"/>
	<path fill="#000100" d="M85.069,153.83c-0.016,1.229-0.291,2.546-1.115,3.66c-0.818,1.108-2.248,1.773-3.676,1.663
		c-1.385-0.092-2.627-0.889-3.48-1.828c-0.869-0.953-1.484-2.143-1.615-3.507c-0.156-1.315,0.301-2.793,1.289-3.812
		c0.963-1.041,2.354-1.707,3.842-1.678c1.395,0.018,2.861,0.689,3.652,1.828C84.79,151.274,85.067,152.597,85.069,153.83z
		 M84.919,153.828c0.012-1.231-0.725-2.356-1.65-2.974c-0.945-0.611-1.924-0.955-2.996-0.926c-0.977,0.018-2.031,0.367-2.805,1.076
		c-0.762,0.717-1.318,1.685-1.465,2.834c-0.143,1.102,0.258,2.358,1.139,3.142c0.881,0.811,2.086,1.028,3.168,0.925
		c1.035-0.099,2.053-0.449,2.969-1.09C84.206,156.193,84.946,155.065,84.919,153.828z"/>
</g>
<g>
	<circle fill="#F7931E" cx="68.78" cy="235.396" r="9.072"/>
	<path fill="#000100" d="M77.927,235.397c-0.014,2.371-0.744,4.84-2.4,6.746c-1.615,1.934-4.189,3.062-6.764,2.948
		c-1.234-0.06-2.506-0.386-3.615-0.929c-1.119-0.547-2.111-1.303-2.955-2.182c-1.684-1.76-2.77-4.086-2.895-6.598
		c-0.162-2.462,0.775-5.072,2.568-6.903c1.762-1.855,4.32-2.991,6.914-2.958c2.582,0.014,5.158,1.156,6.764,3.109
		C77.19,230.554,77.931,233.018,77.927,235.397z M77.776,235.396c0.02-2.38-1.197-4.637-2.93-6.066
		c-1.744-1.426-3.889-2.242-6.066-2.207c-2.164,0.012-4.326,0.834-5.916,2.356c-1.586,1.519-2.607,3.63-2.746,5.927
		c-0.148,2.247,0.723,4.643,2.418,6.232c1.689,1.616,4.029,2.33,6.258,2.206c2.186-0.091,4.334-0.92,6.066-2.366
		C76.585,240.035,77.813,237.782,77.776,235.396z"/>
</g>
<g>
	<circle fill="#F7931E" cx="41.574" cy="231.239" r="14.06"/>
	<path fill="#000100" d="M55.71,231.24c-0.008,3.681-1.277,7.446-3.861,10.273c-2.537,2.862-6.408,4.529-10.289,4.409
		c-1.889-0.06-3.812-0.515-5.525-1.308c-1.723-0.797-3.268-1.923-4.572-3.263c-2.625-2.675-4.24-6.305-4.357-10.125
		c-0.166-3.77,1.309-7.678,4.029-10.43c2.682-2.784,6.539-4.459,10.441-4.418c1.938,0.026,3.891,0.41,5.658,1.201
		c1.775,0.771,3.359,1.948,4.633,3.367C54.44,223.79,55.72,227.554,55.71,231.24z M55.56,231.238
		c0.023-3.688-1.73-7.242-4.393-9.592c-2.664-2.354-6.107-3.709-9.592-3.667c-3.473,0.005-6.934,1.365-9.443,3.816
		c-2.514,2.44-4.074,5.849-4.207,9.453c-0.152,3.555,1.268,7.242,3.881,9.76c2.609,2.544,6.246,3.796,9.785,3.666
		c3.492-0.085,6.938-1.452,9.592-3.826C53.835,238.484,55.601,234.933,55.56,231.238z"/>
</g>
<line fill="#2FAAE1" stroke="#000100" stroke-width="2.8347" stroke-linecap="round" stroke-linejoin="round" x1="99.037" y1="73.45" x2="97.267" y2="61.175"/>
</svg>
