<?xml version="1.0" encoding="utf-8"?>
<!-- Generator: Adobe Illustrator 16.0.0, SVG Export Plug-In . SVG Version: 6.00 Build 0)  -->
<!DOCTYPE svg PUBLIC "-//W3C//DTD SVG 1.1//EN" "http://www.w3.org/Graphics/SVG/1.1/DTD/svg11.dtd">
<svg version="1.1" id="Layer_1" xmlns="http://www.w3.org/2000/svg" xmlns:xlink="http://www.w3.org/1999/xlink" x="0px" y="0px"
	 width="203.538px" height="224.386px" viewBox="0 0 203.538 224.386" enable-background="new 0 0 203.538 224.386"
	 xml:space="preserve">
<g>
	<path fill="#231F20" d="M126.786,221.97c-2.13,0.643-4.29,1.088-6.465,1.471c-2.176,0.365-4.368,0.628-6.581,0.797
		c-2.213,0.135-4.445,0.218-6.719,0.068c-1.137-0.075-2.285-0.203-3.456-0.436c-1.173-0.248-2.371-0.544-3.651-1.24l-0.07-0.038
		c-0.576-0.313-0.938-0.879-1.025-1.481c-0.03-0.214-0.022-0.21-0.027-0.287l-0.002-0.152l0.014-0.242
		c0.015-0.146,0.035-0.271,0.06-0.39c0.048-0.235,0.11-0.437,0.179-0.625c0.137-0.374,0.297-0.685,0.467-0.972
		c0.34-0.568,0.714-1.029,1.099-1.449c0.776-0.827,1.598-1.479,2.431-2.074c1.671-1.172,3.395-2.11,5.182-2.868l-0.791,1.045
		l1.197-3.249l0.037-0.102l0.009-0.025l0.005-0.013c0.038-0.157,0.012-0.047,0.021-0.083l0.002-0.006l0.022-0.05l0.118-0.255
		c0.133-0.28,0.266-0.435,0.404-0.593c0.28-0.312,0.584-0.527,0.889-0.7c0.614-0.334,1.212-0.556,1.824-0.698
		c1.219-0.287,2.431-0.409,3.713-0.276c0.641,0.071,1.314,0.221,1.984,0.623c0.328,0.204,0.655,0.48,0.896,0.841
		c0.193,0.256,0.359,0.449,0.537,0.644c1.478,1.598,3.138,2.83,4.726,4.279c1.632,1.4,3.399,2.74,5.165,4.204l0.302,0.25
		c0.362,0.301,0.418,0.835,0.131,1.205c-0.749,0.963-1.552,1.896-2.469,2.77l-0.039,0.037
		C126.869,221.934,126.828,221.957,126.786,221.97z M126.613,221.562c0.211-1.206,0.521-2.359,0.887-3.482l0.434,1.455
		c-2.25-0.757-4.393-1.855-6.347-3.325c-1.986-1.418-3.579-3.532-4.446-5.894c-0.12-0.296-0.223-0.61-0.308-0.856
		c-0.026-0.149-0.105-0.297-0.225-0.448c-0.236-0.309-0.688-0.536-1.171-0.666c-0.982-0.256-2.118-0.136-3.092,0.235
		c-0.959,0.347-1.885,1.134-1.678,1.68c-0.064,1.164-0.1,2.329-0.201,3.494c-0.032,0.362-0.229,0.67-0.509,0.858l-0.282,0.188
		c-1.521,1.006-3.037,1.986-4.344,3.1c-0.651,0.551-1.25,1.138-1.711,1.723c-0.229,0.288-0.424,0.579-0.546,0.828
		c-0.059,0.122-0.102,0.235-0.116,0.306c-0.008,0.035-0.009,0.059-0.004,0.054c0.002-0.003,0.007-0.013,0.011-0.042l0.006-0.066
		v-0.063c-0.005-0.047,0.006-0.015-0.021-0.2l-1.095-1.518c0.662,0.293,1.592,0.551,2.548,0.734
		c0.963,0.187,1.976,0.337,3.005,0.461c2.06,0.245,4.184,0.437,6.32,0.562c2.138,0.154,4.296,0.271,6.465,0.401
		C122.32,221.221,124.459,221.354,126.613,221.562z"/>
</g>
<g>
	<path fill="#231F20" d="M202.605,93.458c0.884,6.665,1.127,13.418,0.782,20.14c-0.307,6.729-1.306,13.422-2.831,20
		c-3.112,13.139-8.652,25.789-16.518,36.938c-7.823,11.159-17.955,20.833-29.732,27.937c-11.736,7.175-25.057,11.729-38.707,13.536
		c-13.66,1.744-27.715,0.686-40.913-3.27c-13.207-3.924-25.551-10.57-36.147-19.287c-10.627-8.693-19.442-19.526-25.897-31.577
		C6.128,145.838,2.181,132.527,0.68,119.017c-0.752-6.735-0.886-13.562-0.375-20.316c0.524-6.757,1.648-13.459,3.375-19.999
		c3.466-13.074,9.356-25.489,17.349-36.4c3.983-5.464,8.479-10.562,13.439-15.183c4.937-4.644,10.349-8.805,16.14-12.377
		c11.582-7.156,24.68-11.922,38.276-13.83c13.538-1.874,27.576-0.866,40.713,3.083c3.286,0.979,6.521,2.124,9.689,3.431
		c3.157,1.331,6.244,2.822,9.247,4.461c6.02,3.256,11.639,7.206,16.831,11.611c10.407,8.81,18.928,19.674,25.215,31.617
		c3.116,5.987,5.759,12.215,7.736,18.651C200.331,80.187,201.791,86.781,202.605,93.458z M202.109,93.519
		c-0.875-6.635-2.329-13.198-4.444-19.543c-2.149-6.33-4.851-12.478-8.209-18.243c-6.648-11.571-15.629-21.704-26.069-29.798
		c-5.226-4.05-10.852-7.538-16.704-10.537c-2.933-1.489-5.938-2.83-8.998-4.017c-3.051-1.212-6.162-2.269-9.317-3.165
		c-6.314-1.77-12.787-2.977-19.323-3.504c-6.541-0.501-13.11-0.441-19.665,0.333c-13.032,1.438-25.858,5.535-37.352,12.091
		c-5.752,3.268-11.18,7.133-16.179,11.506c-4.979,4.395-9.519,9.303-13.517,14.625C14.349,53.922,8.525,66.204,5.324,79.125
		c-3.259,12.921-3.767,26.437-1.926,39.565c0.943,6.542,2.492,13.013,4.631,19.256c2.15,6.242,4.855,12.281,8.087,18.016
		c6.481,11.463,15.166,21.627,25.387,29.839c10.229,8.201,22.066,14.373,34.64,17.936c6.287,1.771,12.736,2.952,19.244,3.458
		c6.508,0.512,13.062,0.321,19.543-0.475c6.483-0.787,12.887-2.229,19.078-4.314c6.192-2.086,12.166-4.815,17.843-8.072
		c2.835-1.636,5.589-3.417,8.247-5.334c2.672-1.9,5.252-3.935,7.726-6.096c4.935-4.335,9.513-9.11,13.571-14.323
		c8.11-10.417,14.285-22.463,17.84-35.32c1.816-6.418,2.906-13.041,3.414-19.706C203.123,106.882,202.907,100.167,202.109,93.519z"
		/>
</g>
</svg>
