<?xml version="1.0" encoding="iso-8859-1"?>
<!-- Generator: Adobe Illustrator 16.0.0, SVG Export Plug-In . SVG Version: 6.00 Build 0)  -->
<!DOCTYPE svg PUBLIC "-//W3C//DTD SVG 1.1//EN" "http://www.w3.org/Graphics/SVG/1.1/DTD/svg11.dtd">
<svg version="1.1" id="Layer_1" xmlns="http://www.w3.org/2000/svg" xmlns:xlink="http://www.w3.org/1999/xlink" x="0px" y="0px"
	 width="99.385px" height="102.024px" viewBox="0 0 99.385 102.024" style="enable-background:new 0 0 99.385 102.024;"
	 xml:space="preserve">
<g>
	<path style="fill-rule:evenodd;clip-rule:evenodd;fill:#1D1D1B;" d="M78.967,84.794c-8.562,5.1-10.889-9.84-10.034-17.705
		c0.221,7.842,4.517,14.363,7.581,15.268c3.064,0.902,3.059,0.334,4.605-0.199c0.555,4.621,1.117,9.309,1.698,14.051
		c-1.437-0.381-2.905-0.76-4.371-1.154C78.61,91.581,78.787,88.163,78.967,84.794L78.967,84.794z M51.438,102.024
		c-6.191-2.064-5.806-9.299-2.756-17.051c2.911-7.4,8.154-14.979,12.176-19.246c-7.349,10.002-10.478,24.088-8.879,29.395
		c1.598,5.307,2.199,4.609,4.108,5.947C54.549,101.376,53.004,101.702,51.438,102.024L51.438,102.024z M10.499,86.979
		c14.546,1.736,19.392-22.336,18.734-33.614c-0.946,11.759-8.447,24.19-13.905,27.704c-5.458,3.51-5.759,2.807-8.78,3.078
		C7.879,85.103,9.198,86.038,10.499,86.979L10.499,86.979z M50.503,0.67c4.644,2.959,4.433,7.584,2.177,12.215
		c-2.332,4.788-6.963,9.794-10.835,12.732c6.873-6.878,9.487-16.468,8.229-20.495C48.816,1.095,48.325,1.418,46.785,0
		C48.036,0.218,49.27,0.445,50.503,0.67L50.503,0.67z M92.409,35.891c-3.859-7.55-11.927-0.423-15.127,5.008
		c3.944-4.8,9.864-6.184,12.4-4.965c2.537,1.219,2.322,1.553,3.215,2.792c2.222-2.446,4.369-4.825,6.488-7.121
		c-1.146-0.566-2.291-1.141-3.434-1.724C94.799,31.839,93.613,33.839,92.409,35.891L92.409,35.891z M81.27,13.158
		c0.822,0.87,1.655,1.731,2.468,2.588c-1.7-0.32-1.665-0.981-4.963,0.674c-3.296,1.656-7.886,10.373-7.977,20.429
		c-0.561-4.955-0.264-12.082,1.405-17.323C73.817,14.443,76.697,11.154,81.27,13.158z"/>
	<path style="fill-rule:evenodd;clip-rule:evenodd;fill:#1D1D1B;" d="M85.396,58.228c-1.846,6.648-8.448,16.32-16.479,20.805
		c-4.248,2.371-9.087,3.936-14.282,4.525c-5.404,0.617-7.94,1.121-17.041-1.553c-9.102-2.672-22.121-11.854-27.532-21.996
		C7.365,54.95,5.834,49.525,5.698,44.116C5.564,38.761,5.564,35.682,9.47,28.67c3.905-7.012,14.454-14.892,24.841-16.97
		c4.897-0.979,10.035-1.156,15.128-0.518c4.892,0.615,7.678,1.012,14.4,4.184c6.721,3.172,15.388,10.721,19.104,18.15
		c1.864,3.729,3.051,7.753,3.508,11.875C86.912,49.563,87.243,51.58,85.396,58.228z"/>
	<g>
		<path style="fill-rule:evenodd;clip-rule:evenodd;fill:#E63A1E;" d="M35.643,84.657c-13.464-4.045-24.168-13.234-30.084-24.51
			c-4.725-9.024-6.091-18.942-3.384-28.131c0.167-0.565,0.583-1.006,1.188-1.285c0.606-0.281,1.228-0.138,1.891-0.109
			c18.368,0.822,36.872,4.739,55.622,14.176C44.389,32.872,27.267,25.953,9.712,22.46c-0.623-0.124-0.949-0.713-1.092-1.268
			c-0.144-0.554-0.019-1.062,0.372-1.508c5.84-6.652,14.031-10.773,22.933-12.384C37.193,6.348,42.71,6.26,48.162,7.062
			c5.232,0.771,10.444,2.385,15.373,4.837c18.864,9.434,23.213,28.761,18.705,45.044C77.243,74.983,60.487,92.163,35.643,84.657z"/>
		<path style="fill:#1D1D1B;" d="M35.614,84.753c-10.454-3.07-19.892-9.533-26.561-18.24c-3.308-4.363-5.939-9.293-7.507-14.604
			c-1.601-5.293-1.976-10.986-1.042-16.479c0.12-0.687,0.257-1.37,0.417-2.049c0.084-0.338,0.16-0.678,0.255-1.014
			c0.11-0.346,0.121-0.616,0.395-1.155c0.246-0.45,0.607-0.794,0.992-1.044c0.375-0.242,0.817-0.435,1.345-0.482
			c0.466-0.043,0.85,0.006,1.165,0.025l0.996,0.053c2.724,0.146,5.457,0.355,8.172,0.647c5.435,0.584,10.849,1.435,16.167,2.71
			c10.656,2.472,20.937,6.381,30.64,11.34l-0.389,0.641c-3.907-2.855-7.963-5.508-12.156-7.926
			c-4.211-2.387-8.56-4.527-13.015-6.414c-4.451-1.897-9.031-3.484-13.676-4.82c-2.323-0.668-4.664-1.271-7.019-1.811
			c-1.178-0.269-2.36-0.518-3.544-0.757c-0.61-0.122-1.147-0.213-1.817-0.36c-0.51-0.152-0.83-0.48-1.053-0.822
			c-0.217-0.343-0.344-0.701-0.41-1.055C7.88,20.685,7.945,20.257,8.12,19.86c0.175-0.398,0.468-0.693,0.64-0.895
			c0.391-0.451,0.833-0.924,1.258-1.361c0.863-0.885,1.771-1.727,2.723-2.518c1.9-1.587,3.97-2.965,6.144-4.146
			c4.35-2.355,9.129-3.912,13.987-4.71c9.776-1.583,19.963-0.231,29.024,3.762c2.257,0.987,4.473,2.152,6.557,3.524
			c2.076,1.377,4.024,2.958,5.791,4.725c3.544,3.525,6.312,7.826,8.086,12.492c1.779,4.666,2.592,9.664,2.545,14.627
			c-0.088,4.965-1.012,9.893-2.669,14.547c-1.646,4.66-4.068,9.033-7.13,12.891c-3.063,3.85-6.81,7.178-11.096,9.578
			c-4.279,2.41-9.087,3.811-13.95,4.17C45.156,86.905,40.252,86.188,35.614,84.753z M35.672,84.562
			c4.638,1.371,9.514,2.014,14.326,1.596c4.815-0.377,9.497-1.961,13.599-4.441c4.115-2.475,7.647-5.84,10.483-9.682
			c2.844-3.846,5.003-8.168,6.521-12.678c1.503-4.518,2.285-9.272,2.273-14.012c0.029-4.735-0.764-9.477-2.459-13.878
			c-1.691-4.399-4.306-8.428-7.654-11.737c-3.355-3.322-7.352-5.91-11.701-7.855c-8.664-3.918-18.486-5.305-27.893-3.871
			c-4.724,0.7-9.322,2.123-13.545,4.322c-2.107,1.102-4.109,2.4-5.975,3.873c-0.932,0.738-1.824,1.527-2.674,2.359
			c-0.431,0.422-0.828,0.825-1.243,1.281c-0.23,0.249-0.372,0.395-0.444,0.556c-0.079,0.152-0.105,0.353-0.084,0.496
			c0.062,0.488,0.353,0.898,0.544,0.948l1.744,0.387c1.188,0.27,2.373,0.549,3.554,0.848c2.362,0.592,4.708,1.248,7.034,1.969
			c4.652,1.441,9.214,3.152,13.686,5.07c4.467,1.928,8.817,4.121,13.036,6.54c4.237,2.387,8.341,5.011,12.298,7.841l-0.389,0.641
			c-9.716-4.815-20.051-8.326-30.629-10.541c-5.293-1.092-10.637-1.932-16.015-2.459c-2.691-0.268-5.381-0.452-8.086-0.577
			c-0.632-0.005-1.506-0.119-1.909-0.097c-0.316-0.003-0.828,0.318-0.966,0.598c-0.058,0.059-0.167,0.471-0.254,0.771
			c-0.096,0.316-0.171,0.639-0.257,0.959c-0.162,0.643-0.301,1.289-0.425,1.939c-0.994,5.219-0.628,10.646,0.7,15.813
			c1.342,5.175,3.74,10.081,6.86,14.476c3.142,4.373,6.974,8.297,11.409,11.41C25.558,80.554,30.483,82.97,35.672,84.562z"/>
	</g>
	<path style="fill-rule:evenodd;clip-rule:evenodd;fill:#C3C3C3;" d="M86.346,44.541c-0.266-0.082-0.608-0.214-1.064-0.418
		c-1.826-0.816-4.1-5.324-3.361-7.718c0.35-1.128,0.78-1.852,1.293-2.337C84.799,37.381,85.854,40.918,86.346,44.541L86.346,44.541z
		 M78.479,70.708c-2.552,3.123-5.614,5.979-8.939,7.963c-0.119-0.949-0.013-2.045,0.422-3.451c0.93-3.012,5.653-5.5,7.684-4.816
		C77.979,70.517,78.252,70.612,78.479,70.708z"/>
	<path style="fill-rule:evenodd;clip-rule:evenodd;fill:#1D1D1B;" d="M42.257,22.279c-0.896,2.194-3.799,3.155-6.504,2.063
		c-2.753-1.116-4.194-3.869-3.202-6.109c0.994-2.206,3.957-3.036,6.613-1.896C41.769,17.454,43.154,20.086,42.257,22.279
		L42.257,22.279z M29.268,54.253c-1.107,2.717-4.522,4.268-7.672,3.344c-3.174-0.924-4.801-4-3.546-6.792
		c1.217-2.74,4.713-4.122,7.794-3.128C28.832,48.644,30.375,51.537,29.268,54.253L29.268,54.253z M53.544,67.552
		c-1.436,4.539-6.473,7.41-11.296,6.148c-4.963-1.307-7.601-6.359-5.813-11.135c1.726-4.631,6.969-7.078,11.592-5.6
		C52.533,58.401,54.979,63.013,53.544,67.552L53.544,67.552z M66.277,27.545c-1.116,3.51-5.273,5.181-9.318,3.528
		c-4.14-1.696-6.442-6.124-5.083-9.774c1.334-3.551,5.644-4.881,9.554-3.108C65.25,19.938,67.392,24.036,66.277,27.545
		L66.277,27.545z M64.514,46.324c11.051-5.255,14.225-11.104,16.37-16.247c0.787,1.139,1.483,2.289,2.059,3.439
		c1.864,3.729,3.051,7.753,3.508,11.875c0.462,4.172,0.793,6.188-1.053,12.836c-1.846,6.648-8.448,16.32-16.479,20.805
		c-1.362,0.758-2.784,1.434-4.259,2.021c-0.239-1.531,0.079-3.957,1.023-7.414C67.289,67.759,68.809,56.062,64.514,46.324z"/>
	<g>
		<path style="fill-rule:evenodd;clip-rule:evenodd;fill:#1D1D1B;" d="M79.723,55.993c-0.885,2.99-1.086,6.014-0.64,8.355
			c0.447,2.34,1.55,3.99,3.109,4.42c1.558,0.43,3.255-0.4,4.744-1.988c1.464-1.564,2.725-3.895,3.433-6.605
			c0.708-2.713,0.764-5.342,0.326-7.502c-0.437-2.152-1.375-3.837-2.756-4.544c-1.379-0.707-2.999-0.257-4.457,1.113
			C81.978,50.655,80.608,53.002,79.723,55.993z"/>
		<path style="fill:#1D1D1B;" d="M79.771,56.007c-0.634,2.105-0.801,4.342-0.584,6.49c0.118,1.068,0.336,2.137,0.689,3.105
			c0.366,0.969,0.896,1.885,1.696,2.436c0.786,0.562,1.862,0.643,2.834,0.266c0.982-0.355,1.859-1.039,2.592-1.834
			c1.459-1.615,2.395-3.664,2.935-5.758c0.526-2.105,0.718-4.285,0.517-6.41c-0.105-1.055-0.323-2.105-0.706-3.074
			c-0.38-0.957-0.919-1.861-1.695-2.407c-0.199-0.148-0.374-0.239-0.623-0.346c-0.178-0.073-0.42-0.128-0.641-0.153
			c-0.455-0.045-0.927,0.039-1.386,0.207c-0.91,0.35-1.767,1.039-2.484,1.805C81.462,51.911,80.393,53.904,79.771,56.007z
			 M79.675,55.979c0.636-2.105,1.401-4.215,2.731-6.064c0.678-0.923,1.494-1.771,2.626-2.277c0.557-0.25,1.192-0.387,1.839-0.338
			c0.326,0.031,0.628,0.084,0.963,0.213c0.259,0.1,0.582,0.256,0.827,0.436c1.037,0.738,1.663,1.824,2.056,2.91
			c0.394,1.094,0.588,2.229,0.668,3.365c0.155,2.266-0.202,4.533-0.929,6.645c-0.729,2.111-1.764,4.115-3.219,5.818
			c-0.731,0.836-1.564,1.629-2.62,2.133c-1.033,0.516-2.415,0.584-3.496-0.08c-1.068-0.66-1.709-1.754-2.076-2.842
			c-0.383-1.109-0.494-2.24-0.488-3.369C78.58,60.272,79.073,58.095,79.675,55.979z"/>
	</g>
	<path style="fill-rule:evenodd;clip-rule:evenodd;fill:#FFFFFF;" d="M79.594,66.097c0.563,1.408,1.414,2.348,2.597,2.672
		c1.187,0.322,2.541-0.1,3.776-1.098c-0.166-1.492-0.92-2.76-2.335-3.281C82.214,63.868,80.458,64.56,79.594,66.097L79.594,66.097z
		 M90.355,51.378c-0.521-1.526-1.37-2.721-2.416-3.25c-1.046-0.524-2.125-0.426-3.225,0.2c-0.07,1.67,0.943,3.349,2.296,3.911
		C88.363,52.8,89.541,52.366,90.355,51.378z"/>
	<path style="fill-rule:evenodd;clip-rule:evenodd;fill:#1D1D1B;" d="M98.341,54.942c0.562-5.642-0.502-6.639-1.913-5.944
		c-1.491,0.734-3.265,2.812-5.126,5.156c1.361-0.872,2.57-1.176,3.511-0.433C95.746,54.458,96.442,56.155,98.341,54.942
		L98.341,54.942z M94.705,70.933c-2.085,5.748-3.488,5.691-4.367,3.705c-0.912-2.061-1.413-5.561-1.836-9.211
		c0.71,1.906,1.577,3.248,2.688,3.428C92.312,69.036,93.643,68.183,94.705,70.933z"/>
</g>
</svg>
