<?xml version="1.0" encoding="utf-8"?>
<!-- Generator: Adobe Illustrator 16.0.0, SVG Export Plug-In . SVG Version: 6.00 Build 0)  -->
<!DOCTYPE svg PUBLIC "-//W3C//DTD SVG 1.1//EN" "http://www.w3.org/Graphics/SVG/1.1/DTD/svg11.dtd">
<svg version="1.1" id="Layer_1" xmlns="http://www.w3.org/2000/svg" xmlns:xlink="http://www.w3.org/1999/xlink" x="0px" y="0px"
	 width="332.779px" height="331.123px" viewBox="0 0 332.779 331.123" enable-background="new 0 0 332.779 331.123"
	 xml:space="preserve">
<g>
	<g>
		<path fill="#64A3BC" d="M304.178,79.481c-1.471,4.784-3.032,9.535-4.549,14.303l-4.695,14.25l-1.893-0.672l5.354-14.017
			c1.833-4.655,3.621-9.326,5.5-13.964L304.178,79.481z"/>
		<path fill="#64A3BC" d="M291.762,117.52l-4.842,14.198c-1.608,4.735-3.222,9.468-4.896,14.179l-2.869-1.02
			c1.675-4.711,3.411-9.4,5.152-14.088l5.207-14.068L291.762,117.52z"/>
		<path fill="#64A3BC" d="M278.709,155.332c-3.375,9.413-6.798,18.81-10.241,28.199l-2.556-0.909
			c3.257-9.455,6.533-18.903,9.857-28.335L278.709,155.332z"/>
		<polygon fill="#64A3BC" points="265.034,192.923 254.772,221.114 252.811,220.417 262.646,192.074 		"/>
		<polygon fill="#64A3BC" points="251.356,230.513 241.107,258.708 239.679,258.201 249.527,229.863 		"/>
		<polygon fill="#64A3BC" points="237.672,268.101 227.357,296.273 226.632,296.015 236.415,267.653 		"/>
		<polygon fill="#64A3BC" points="223.919,305.664 218.784,319.688 218.501,319.587 223.371,305.469 		"/>
	</g>
</g>
<g>
	<g>
		<path fill="#64A3BC" d="M283.341,90.915c-1.472,4.784-3.032,9.535-4.549,14.303l-4.696,14.25l-1.891-0.672l5.353-14.017
			c1.833-4.655,3.622-9.326,5.5-13.964L283.341,90.915z"/>
		<path fill="#64A3BC" d="M270.925,128.954l-4.842,14.198c-1.608,4.735-3.222,9.468-4.896,14.179l-2.87-1.02
			c1.676-4.711,3.412-9.4,5.153-14.088l5.207-14.068L270.925,128.954z"/>
		<path fill="#64A3BC" d="M257.872,166.766c-3.376,9.413-6.798,18.81-10.241,28.199l-2.556-0.908
			c3.257-9.456,6.533-18.904,9.857-28.335L257.872,166.766z"/>
		<polygon fill="#64A3BC" points="244.197,204.357 233.936,232.548 231.975,231.851 241.811,203.508 		"/>
		<polygon fill="#64A3BC" points="230.52,241.947 220.271,270.143 218.842,269.635 228.691,241.297 		"/>
		<polygon fill="#64A3BC" points="216.836,279.535 206.521,307.707 205.795,307.449 215.578,279.087 		"/>
		<polygon fill="#64A3BC" points="203.082,317.098 197.947,331.123 197.664,331.022 202.534,316.903 		"/>
	</g>
</g>
<g>
	<g>
		<path fill="#64A3BC" d="M243.163,84.326c-1.472,4.784-3.032,9.535-4.549,14.303l-4.696,14.25l-1.891-0.672l5.353-14.017
			c1.833-4.655,3.622-9.326,5.5-13.964L243.163,84.326z"/>
		<path fill="#64A3BC" d="M230.747,122.364l-4.842,14.198c-1.608,4.735-3.222,9.468-4.896,14.179l-2.87-1.02
			c1.676-4.711,3.412-9.4,5.153-14.088l5.207-14.068L230.747,122.364z"/>
		<path fill="#64A3BC" d="M217.694,160.176c-3.376,9.413-6.798,18.81-10.241,28.199l-2.556-0.908
			c3.257-9.456,6.533-18.904,9.857-28.335L217.694,160.176z"/>
		<polygon fill="#64A3BC" points="204.02,197.768 193.758,225.959 191.797,225.261 201.633,196.919 		"/>
		<polygon fill="#64A3BC" points="190.342,235.357 180.094,263.553 178.664,263.045 188.514,234.708 		"/>
		<polygon fill="#64A3BC" points="176.658,272.945 166.343,301.118 165.617,300.86 175.4,272.498 		"/>
		<polygon fill="#64A3BC" points="162.904,310.508 157.77,324.533 157.486,324.433 162.356,310.313 		"/>
	</g>
</g>
<g>
	<g>
		<path fill="#64A3BC" d="M258.281,82.479c-1.471,4.784-3.032,9.535-4.549,14.303l-4.695,14.25l-1.893-0.672l5.354-14.017
			c1.833-4.655,3.621-9.326,5.5-13.964L258.281,82.479z"/>
		<path fill="#64A3BC" d="M245.865,120.517l-4.842,14.198c-1.608,4.735-3.222,9.468-4.896,14.179l-2.869-1.02
			c1.675-4.711,3.411-9.4,5.152-14.088l5.207-14.068L245.865,120.517z"/>
		<path fill="#64A3BC" d="M232.812,158.329c-3.375,9.413-6.798,18.81-10.241,28.199l-2.556-0.909
			c3.257-9.455,6.533-18.903,9.857-28.335L232.812,158.329z"/>
		<polygon fill="#64A3BC" points="219.138,195.92 208.876,224.112 206.914,223.414 216.75,195.072 		"/>
		<polygon fill="#64A3BC" points="205.46,233.51 195.211,261.706 193.782,261.198 203.631,232.86 		"/>
		<polygon fill="#64A3BC" points="191.775,271.098 181.461,299.271 180.735,299.013 190.519,270.651 		"/>
		<polygon fill="#64A3BC" points="178.022,308.661 172.888,322.686 172.604,322.585 177.475,308.466 		"/>
	</g>
</g>
<g>
	<g>
		<path fill="#64A3BC" d="M217.986,78.109c-1.471,4.784-3.032,9.535-4.549,14.303l-4.695,14.25l-1.893-0.672l5.354-14.017
			c1.833-4.655,3.621-9.326,5.5-13.964L217.986,78.109z"/>
		<path fill="#64A3BC" d="M205.57,116.148l-4.842,14.198c-1.608,4.735-3.222,9.468-4.896,14.179l-2.869-1.02
			c1.675-4.711,3.411-9.4,5.152-14.088l5.207-14.068L205.57,116.148z"/>
		<path fill="#64A3BC" d="M192.518,153.96c-3.375,9.413-6.798,18.81-10.241,28.199l-2.556-0.909
			c3.257-9.455,6.533-18.903,9.857-28.335L192.518,153.96z"/>
		<polygon fill="#64A3BC" points="178.843,191.551 168.581,219.743 166.619,219.045 176.455,190.703 		"/>
		<polygon fill="#64A3BC" points="165.165,229.141 154.916,257.337 153.487,256.829 163.336,228.491 		"/>
		<polygon fill="#64A3BC" points="151.48,266.729 141.166,294.901 140.44,294.644 150.224,266.282 		"/>
		<polygon fill="#64A3BC" points="137.728,304.292 132.593,318.316 132.31,318.216 137.18,304.097 		"/>
	</g>
</g>
<g>
	<g>
		<path fill="#64A3BC" d="M231.412,79.887c-1.471,4.784-3.032,9.535-4.549,14.303l-4.696,14.25l-1.892-0.672l5.354-14.017
			c1.833-4.655,3.621-9.326,5.5-13.964L231.412,79.887z"/>
		<path fill="#64A3BC" d="M218.996,117.925l-4.842,14.198c-1.609,4.735-3.222,9.468-4.896,14.179l-2.87-1.021
			c1.675-4.711,3.412-9.4,5.153-14.088l5.207-14.068L218.996,117.925z"/>
		<path fill="#64A3BC" d="M205.942,155.737c-3.375,9.413-6.798,18.81-10.24,28.199l-2.556-0.909
			c3.256-9.455,6.533-18.904,9.857-28.335L205.942,155.737z"/>
		<polygon fill="#64A3BC" points="192.268,193.328 182.006,221.52 180.045,220.822 189.881,192.479 		"/>
		<polygon fill="#64A3BC" points="178.59,230.918 168.342,259.114 166.912,258.606 176.762,230.268 		"/>
		<polygon fill="#64A3BC" points="164.906,268.506 154.591,296.678 153.865,296.42 163.648,268.059 		"/>
		<polygon fill="#64A3BC" points="151.152,306.069 146.018,320.094 145.734,319.993 150.604,305.875 		"/>
	</g>
</g>
<g>
	<g>
		<path fill="#64A3BC" d="M187.698,80.021c-1.472,4.784-3.032,9.535-4.549,14.303l-4.696,14.25l-1.891-0.672l5.353-14.017
			c1.833-4.655,3.622-9.326,5.5-13.964L187.698,80.021z"/>
		<path fill="#64A3BC" d="M175.282,118.059l-4.842,14.198c-1.608,4.735-3.222,9.468-4.896,14.179l-2.871-1.02
			c1.676-4.711,3.412-9.4,5.153-14.088l5.207-14.068L175.282,118.059z"/>
		<path fill="#64A3BC" d="M162.229,155.871c-3.375,9.414-6.798,18.81-10.241,28.199l-2.556-0.908
			c3.257-9.456,6.533-18.904,9.857-28.335L162.229,155.871z"/>
		<polygon fill="#64A3BC" points="148.555,193.462 138.293,221.654 136.332,220.957 146.168,192.614 		"/>
		<polygon fill="#64A3BC" points="134.877,231.052 124.629,259.249 123.199,258.74 133.049,230.402 		"/>
		<polygon fill="#64A3BC" points="121.193,268.64 110.878,296.812 110.152,296.555 119.936,268.193 		"/>
		<polygon fill="#64A3BC" points="107.439,306.203 102.305,320.229 102.021,320.128 106.893,306.008 		"/>
	</g>
</g>
<g>
	<g>
		<path fill="#64A3BC" d="M167.088,84.328c-1.471,4.784-3.032,9.535-4.549,14.303l-4.695,14.25l-1.893-0.672l5.354-14.017
			c1.833-4.655,3.621-9.326,5.5-13.964L167.088,84.328z"/>
		<path fill="#64A3BC" d="M154.672,122.366l-4.842,14.199c-1.608,4.734-3.222,9.468-4.896,14.179l-2.869-1.02
			c1.675-4.711,3.411-9.4,5.152-14.088l5.207-14.069L154.672,122.366z"/>
		<path fill="#64A3BC" d="M141.619,160.178c-3.375,9.414-6.798,18.81-10.24,28.199l-2.556-0.909
			c3.256-9.456,6.532-18.904,9.856-28.335L141.619,160.178z"/>
		<polygon fill="#64A3BC" points="127.945,197.77 117.684,225.961 115.722,225.264 125.558,196.921 		"/>
		<polygon fill="#64A3BC" points="114.268,235.359 104.019,263.556 102.59,263.047 112.438,234.709 		"/>
		<polygon fill="#64A3BC" points="100.583,272.947 90.269,301.12 89.543,300.862 99.326,272.5 		"/>
		<polygon fill="#64A3BC" points="86.83,310.511 81.695,324.535 81.412,324.435 86.282,310.316 		"/>
	</g>
</g>
<g>
	<g>
		<path fill="#64A3BC" d="M152.662,84.301c-1.46,4.788-3.019,9.54-4.525,14.311l-4.686,14.254l-1.959-0.696l5.363-14.013
			c1.843-4.651,3.634-9.321,5.523-13.956L152.662,84.301z"/>
		<polygon fill="#64A3BC" points="140.286,122.354 135.452,136.555 133.006,143.646 130.521,150.722 127.625,149.692 
			130.165,142.636 132.743,135.592 137.958,121.526 		"/>
		<polygon fill="#64A3BC" points="127.18,160.147 116.904,188.333 114.445,187.459 124.268,159.112 		"/>
		<polygon fill="#64A3BC" points="113.466,197.724 103.205,225.916 101.348,225.256 111.185,196.914 		"/>
		<polygon fill="#64A3BC" points="99.785,235.313 89.507,263.499 88.249,263.051 98.068,234.703 		"/>
		<polygon fill="#64A3BC" points="86.064,272.888 75.735,301.055 75.224,300.874 84.992,272.507 		"/>
		<polygon fill="#64A3BC" points="72.292,310.444 71.521,312.547 71.238,312.446 71.968,310.329 		"/>
	</g>
</g>
<g>
	<g>
		<path fill="#64A3BC" d="M104.93,91.923c-0.727,2.396-1.473,4.784-2.232,7.167l-2.271,7.153l-4.673,14.259l-2.069-0.737
			l5.396-14.001l2.764-6.977c0.918-2.327,1.85-4.649,2.802-6.963L104.93,91.923z"/>
		<polygon fill="#64A3BC" points="92.578,129.985 87.731,144.182 82.763,158.335 79.825,157.289 84.926,143.183 90.148,129.12 		"/>
		<polygon fill="#64A3BC" points="79.358,167.738 69.017,195.901 66.721,195.083 76.518,166.726 		"/>
		<polygon fill="#64A3BC" points="65.58,205.292 55.284,233.471 53.604,232.872 63.444,204.531 		"/>
		<polygon fill="#64A3BC" points="51.852,242.864 41.499,271.022 40.537,270.68 50.322,242.319 		"/>
		<polygon fill="#64A3BC" points="38.041,280.407 29.893,302.525 29.609,302.424 37.282,280.136 		"/>
	</g>
</g>
<g>
	<g>
		<path fill="#64A3BC" d="M137.401,80.445c-1.472,4.784-3.032,9.535-4.549,14.303l-4.696,14.25l-1.891-0.672l5.353-14.017
			c1.833-4.655,3.622-9.326,5.5-13.964L137.401,80.445z"/>
		<path fill="#64A3BC" d="M124.985,118.483l-4.842,14.199c-1.608,4.734-3.222,9.468-4.896,14.179l-2.87-1.02
			c1.675-4.711,3.411-9.4,5.152-14.088l5.207-14.069L124.985,118.483z"/>
		<path fill="#64A3BC" d="M111.933,156.295c-3.375,9.414-6.798,18.81-10.24,28.199l-2.556-0.909
			c3.256-9.456,6.533-18.904,9.856-28.335L111.933,156.295z"/>
		<polygon fill="#64A3BC" points="98.258,193.887 87.996,222.078 86.035,221.381 95.871,193.038 		"/>
		<polygon fill="#64A3BC" points="84.58,231.477 74.332,259.673 72.902,259.165 82.752,230.827 		"/>
		<polygon fill="#64A3BC" points="70.896,269.064 60.582,297.237 59.856,296.979 69.64,268.618 		"/>
		<polygon fill="#64A3BC" points="57.144,306.628 52.009,320.652 51.726,320.552 56.596,306.433 		"/>
	</g>
</g>
<g>
	<g>
		<path fill="#64A3BC" d="M121.516,76.183c-1.471,4.784-3.032,9.535-4.549,14.303l-4.695,14.25l-1.893-0.672l5.354-14.017
			c1.833-4.655,3.621-9.326,5.5-13.964L121.516,76.183z"/>
		<path fill="#64A3BC" d="M109.1,114.221l-4.842,14.199c-1.608,4.734-3.222,9.468-4.896,14.179l-2.869-1.02
			c1.675-4.711,3.411-9.4,5.152-14.088l5.207-14.069L109.1,114.221z"/>
		<path fill="#64A3BC" d="M96.047,152.033c-3.375,9.414-6.798,18.81-10.24,28.199l-2.556-0.909
			c3.256-9.456,6.532-18.904,9.856-28.335L96.047,152.033z"/>
		<polygon fill="#64A3BC" points="82.373,189.625 72.111,217.816 70.149,217.119 79.985,188.776 		"/>
		<polygon fill="#64A3BC" points="68.695,227.214 58.446,255.411 57.018,254.902 66.866,226.564 		"/>
		<polygon fill="#64A3BC" points="55.011,264.802 44.696,292.975 43.971,292.717 53.754,264.355 		"/>
		<polygon fill="#64A3BC" points="41.258,302.366 36.123,316.39 35.84,316.29 40.71,302.171 		"/>
	</g>
</g>
<g>
	<g>
		<path fill="#64A3BC" d="M201.443,86.848c-1.471,4.784-3.032,9.535-4.549,14.303l-4.695,14.25l-1.893-0.672l5.354-14.017
			c1.833-4.655,3.621-9.326,5.5-13.964L201.443,86.848z"/>
		<path fill="#64A3BC" d="M189.027,124.887l-4.842,14.198c-1.608,4.735-3.222,9.468-4.896,14.179l-2.869-1.02
			c1.675-4.711,3.411-9.4,5.152-14.088l5.207-14.068L189.027,124.887z"/>
		<path fill="#64A3BC" d="M175.975,162.699c-3.375,9.413-6.798,18.81-10.241,28.199l-2.556-0.909
			c3.257-9.455,6.533-18.903,9.857-28.335L175.975,162.699z"/>
		<polygon fill="#64A3BC" points="162.3,200.29 152.038,228.481 150.076,227.784 159.912,199.441 		"/>
		<polygon fill="#64A3BC" points="148.622,237.88 138.373,266.076 136.944,265.568 146.793,237.23 		"/>
		<polygon fill="#64A3BC" points="134.938,275.468 124.623,303.64 123.897,303.382 133.681,275.021 		"/>
		<polygon fill="#64A3BC" points="121.185,313.031 116.05,327.055 115.767,326.955 120.637,312.836 		"/>
	</g>
</g>
<g>
	<g>
		<path fill="#64A3BC" d="M273.467,71.33c-1.471,4.784-3.032,9.535-4.549,14.303l-4.695,14.25l-1.893-0.672l5.354-14.017
			c1.833-4.655,3.621-9.326,5.5-13.964L273.467,71.33z"/>
		<path fill="#64A3BC" d="M261.051,109.369l-4.842,14.199c-1.608,4.734-3.222,9.468-4.896,14.179l-2.869-1.02
			c1.675-4.711,3.411-9.4,5.152-14.088l5.207-14.069L261.051,109.369z"/>
		<path fill="#64A3BC" d="M247.998,147.181c-3.375,9.414-6.798,18.81-10.24,28.199l-2.557-0.908
			c3.257-9.456,6.533-18.904,9.857-28.335L247.998,147.181z"/>
		<polygon fill="#64A3BC" points="234.324,184.772 224.062,212.963 222.101,212.266 231.937,183.923 		"/>
		<polygon fill="#64A3BC" points="220.646,222.362 210.397,250.558 208.969,250.05 218.817,221.712 		"/>
		<polygon fill="#64A3BC" points="206.962,259.95 196.646,288.122 195.922,287.864 205.705,259.503 		"/>
		<polygon fill="#64A3BC" points="193.209,297.513 188.074,311.537 187.791,311.437 192.661,297.318 		"/>
	</g>
</g>
<g>
	<g>
		<path fill="#64A3BC" d="M67.66,67.866c-0.711,2.4-1.452,4.791-2.199,7.178c-0.75,2.387-1.471,4.784-2.254,7.159l-4.633,14.272
			l-2.209-0.785l5.416-13.995c0.891-2.336,1.846-4.65,2.771-6.975c0.928-2.324,1.861-4.645,2.825-6.956L67.66,67.866z"/>
		<path fill="#64A3BC" d="M55.402,105.961c-1.618,4.731-3.201,9.475-4.873,14.188l-2.479,7.078l-2.546,7.055l-2.866-1.019
			l2.479-7.079l2.545-7.055c1.678-4.71,3.444-9.389,5.177-14.08L55.402,105.961z"/>
		<polygon fill="#64A3BC" points="42.072,143.674 31.724,171.835 29.621,171.087 39.371,142.714 		"/>
		<polygon fill="#64A3BC" points="28.289,181.228 17.987,209.404 16.56,208.896 26.355,180.54 		"/>
		<polygon fill="#64A3BC" points="14.528,218.788 4.142,246.935 3.608,246.745 13.32,218.358 		"/>
		<polygon fill="#64A3BC" points="0.68,256.317 0.283,257.392 0,257.292 0.371,256.207 		"/>
	</g>
</g>
<g>
	<g>
		<path fill="#64A3BC" d="M83.928,69.83c-0.707,2.402-1.447,4.792-2.19,7.181c-0.743,2.389-1.468,4.785-2.249,7.161
			c-1.545,4.757-3.053,9.527-4.628,14.274l-2.245-0.798c1.773-4.676,3.615-9.328,5.42-13.993c0.895-2.335,1.844-4.651,2.775-6.973
			s1.865-4.643,2.834-6.952L83.928,69.83z"/>
		<path fill="#64A3BC" d="M71.688,107.931c-1.604,4.736-3.213,9.471-4.882,14.184l-2.486,7.076l-2.562,7.049l-2.837-1.009
			l2.463-7.084l2.538-7.058c1.681-4.709,3.421-9.397,5.167-14.083L71.688,107.931z"/>
		<polygon fill="#64A3BC" points="58.312,145.628 47.961,173.788 45.921,173.062 55.668,144.688 		"/>
		<polygon fill="#64A3BC" points="44.525,183.179 34.203,211.349 32.883,210.88 42.658,182.516 		"/>
		<polygon fill="#64A3BC" points="30.737,220.73 20.34,248.874 19.949,248.734 29.649,220.343 		"/>
	</g>
</g>
<g>
	<g>
		<path fill="#64A3BC" d="M99.57,63.967c-1.449,4.791-3,9.546-4.497,14.32l-4.661,14.262l-1.978-0.7l5.344-14.021
			c1.839-4.653,3.623-9.326,5.509-13.962L99.57,63.967z"/>
		<path fill="#64A3BC" d="M87.262,102.042l-4.812,14.208c-1.599,4.738-3.271,9.45-4.914,14.172l-2.904-1.027
			c1.691-4.705,3.354-9.421,5.091-14.11l5.193-14.074L87.262,102.042z"/>
		<polygon fill="#64A3BC" points="74.198,139.85 63.959,168.049 61.525,167.188 71.297,138.823 		"/>
		<polygon fill="#64A3BC" points="60.534,177.445 50.315,205.652 48.487,205.005 58.279,176.647 		"/>
		<polygon fill="#64A3BC" points="46.91,215.055 36.666,243.252 35.456,242.825 45.223,214.458 		"/>
		<polygon fill="#64A3BC" points="33.235,252.646 22.946,280.828 22.494,280.668 32.216,252.286 		"/>
	</g>
</g>
<g>
	<path fill-rule="evenodd" clip-rule="evenodd" fill="#64A3BC" d="M15.07,91.447c0,0-1.415-18.11,10.658-24.146
		s21.73-6.036,21.73-6.036s-2.414-9.658,10.865-18.109c13.279-8.452,22.939,0,22.939,0S84.66,29.12,99.373,19.788
		c22.001-13.955,38.631-5,38.631-5s8.451-15.093,41.049-13.886c32.596,1.207,41.045,13.886,41.045,13.886s28.975-5.43,50.705,0
		c21.731,5.43,32.803,18.642,31.597,31.353c0,0,12.903-1.882,22.561,6c9.657,7.882,11.104,31.334-3.452,39.307
		c0,0,8.076,18.694-5.205,31.975s-27.012,5-27.012,5s1.621,16.145-18.902,25.803c-20.522,9.658-73.228-8.451-73.228-8.451
		s-10.866,22.596-43.462,15.353s-36.218-28.633-36.218-28.633s-24.364,13.781-50.159,2.476
		c-25.814-11.314-16.241-20.585-16.241-20.585s-8.894,8.461-24.145-1C15.02,105.992,15.07,91.447,15.07,91.447z"/>
	<path d="M14.971,91.45c-0.207-4.223,0.25-8.484,1.49-12.535c1.238-4.023,3.482-7.893,6.967-10.404
		c1.732-1.259,3.705-2.075,5.626-2.941c1.941-0.836,3.927-1.573,5.944-2.204c4.042-1.246,8.199-2.138,12.461-2.333l-0.227,0.29
		c-0.709-4.01,0.738-8.034,3.009-11.244c2.308-3.243,5.447-5.78,8.812-7.819c3.39-2.03,7.306-3.353,11.33-3.322
		c4.014,0.035,7.993,1.298,11.24,3.809l-0.89,0.283c0.797-2.949,2.031-5.662,3.485-8.284c1.463-2.609,3.198-5.067,5.158-7.333
		c1.965-2.261,4.155-4.332,6.541-6.151c2.391-1.82,4.953-3.37,7.602-4.759c5.301-2.757,11.113-4.665,17.119-5.217
		c2.998-0.281,6.033-0.228,9.023,0.194c3.003,0.446,5.912,1.154,8.765,2.524l-1.201,0.35c1.112-1.785,2.45-3.109,3.914-4.391
		c1.461-1.257,3.044-2.351,4.692-3.318c3.305-1.928,6.876-3.322,10.526-4.331c7.322-2.007,14.933-2.509,22.435-2.249
		c7.495,0.274,15.008,1.208,22.27,3.252c3.623,1.032,7.181,2.355,10.537,4.115c1.676,0.883,3.301,1.873,4.829,3.01
		c1.527,1.161,2.963,2.367,4.183,4.005l-0.627-0.264c8.225-1.364,16.504-2.096,24.816-2.255c8.3-0.119,16.661,0.353,24.798,2.184
		c8.079,1.896,16.015,5.083,22.532,10.358c3.229,2.638,6.073,5.822,8.022,9.543c1.969,3.692,2.97,7.958,2.564,12.159l-0.364-0.347
		c2.914-0.34,5.824-0.243,8.706,0.154c2.876,0.408,5.714,1.175,8.378,2.364c2.651,1.211,5.164,2.762,7.223,4.898
		c2.014,2.16,3.42,4.797,4.405,7.54c1.929,5.512,2.25,11.575,0.862,17.272c-0.705,2.842-1.88,5.595-3.59,8.009
		c-1.699,2.417-3.955,4.458-6.552,5.894l0.254-0.738c1.029,2.554,1.68,5.163,2.104,7.841c0.411,2.672,0.541,5.397,0.311,8.106
		c-0.228,2.707-0.824,5.396-1.832,7.938c-1.01,2.538-2.428,4.917-4.18,7.014c-3.501,4.133-8.09,7.547-13.469,8.947
		c-2.669,0.698-5.475,0.878-8.213,0.545c-2.75-0.352-5.388-1.093-7.909-2.459l1.284-0.812c0.148,2.477-0.229,4.764-0.855,7.044
		c-0.636,2.263-1.602,4.426-2.818,6.429c-2.436,4.019-5.878,7.336-9.725,9.92c-1.927,1.303-3.947,2.415-6.054,3.412
		c-2.143,0.995-4.426,1.631-6.705,2.064c-4.576,0.848-9.2,0.945-13.774,0.764c-9.16-0.416-18.176-1.972-27.066-3.92
		c-8.895-1.978-17.655-4.401-26.318-7.283l1.288-0.538c-1.04,1.982-2.279,3.633-3.669,5.245c-1.389,1.59-2.926,3.046-4.582,4.351
		c-3.311,2.612-7.109,4.595-11.117,5.867c-8.058,2.572-16.702,2.277-24.776,0.525c-8.071-1.745-16.028-4.695-22.835-9.576
		c-3.391-2.429-6.469-5.332-8.986-8.684c-1.258-1.675-2.375-3.458-3.312-5.339c-0.929-1.9-1.71-3.811-2.159-5.988l1.215,0.578
		c-3.127,1.647-6.339,2.872-9.649,3.899c-3.305,1.018-6.685,1.783-10.104,2.276c-6.835,0.987-13.855,0.864-20.604-0.62
		c-3.372-0.735-6.672-1.797-9.832-3.17c-3.15-1.373-6.236-2.903-9.159-4.732c-2.893-1.842-5.727-3.956-7.733-6.847
		c-0.979-1.439-1.708-3.134-1.752-4.93c-0.045-1.792,0.6-3.568,1.842-4.896l0.375,0.392c-3.461,2.83-8.039,3.821-12.357,3.401
		c-4.357-0.43-8.455-2.194-12.117-4.489c-3.694-2.297-6.676-5.677-8.625-9.548C16.219,100.072,15.119,95.784,14.971,91.45z
		 M15.17,91.449c0.17,4.285,1.287,8.554,3.237,12.374c1.953,3.823,4.907,7.138,8.567,9.386c3.639,2.251,7.703,3.967,11.975,4.362
		c2.125,0.196,4.285,0.045,6.343-0.51c2.039-0.562,4.032-1.51,5.602-2.873l0.376,0.392c-1.084,1.183-1.693,2.863-1.624,4.488
		c0.057,1.644,0.743,3.219,1.692,4.582c1.938,2.739,4.73,4.794,7.595,6.574c5.829,3.464,12.159,6.234,18.804,7.549
		c6.643,1.348,13.518,1.355,20.192,0.28c6.655-1.088,13.24-3.183,19.147-6.274l0.98-0.513l0.235,1.091
		c0.396,1.829,1.17,3.741,2.061,5.495c0.904,1.771,1.983,3.457,3.197,5.039c2.429,3.168,5.396,5.913,8.672,8.212
		c6.583,4.595,14.29,7.436,22.166,9.14c7.845,1.69,16.125,1.93,23.725-0.513c3.784-1.208,7.349-3.079,10.456-5.538
		c1.554-1.229,2.996-2.599,4.295-4.091c1.281-1.478,2.494-3.138,3.351-4.782l0.429-0.823l0.86,0.285
		c8.549,2.828,17.295,5.227,26.091,7.233c8.805,1.963,17.729,3.532,26.697,3.97c4.476,0.195,8.979,0.109,13.332-0.683
		c2.172-0.406,4.293-0.992,6.27-1.901c1.994-0.934,3.964-2.003,5.798-3.233c3.68-2.447,6.929-5.562,9.222-9.304
		c1.143-1.867,2.053-3.876,2.67-5.972c0.607-2.072,0.967-4.328,0.863-6.384l-0.077-1.549l1.361,0.736
		c4.406,2.383,9.914,3.138,14.862,1.871c4.996-1.243,9.405-4.423,12.78-8.347c3.378-3.944,5.363-8.977,5.81-14.166
		c0.458-5.177-0.36-10.538-2.206-15.375l-0.19-0.499l0.444-0.24c2.459-1.327,4.599-3.225,6.238-5.5
		c1.646-2.272,2.804-4.894,3.513-7.627c1.4-5.477,1.156-11.398-0.662-16.771c-0.92-2.676-2.273-5.237-4.192-7.303
		c-1.932-2.029-4.407-3.581-6.976-4.759c-5.191-2.312-11.07-3.097-16.705-2.522l-0.402,0.041l0.038-0.388
		c0.405-4.066-0.546-8.208-2.46-11.819c-1.917-3.624-4.718-6.735-7.902-9.315c-6.429-5.161-14.287-8.284-22.289-10.125
		c-8.049-1.799-16.365-2.163-24.607-1.958c-8.247,0.245-16.508,1.067-24.611,2.5l-0.375,0.066l-0.252-0.331
		c-1.024-1.349-2.469-2.585-3.921-3.65c-1.476-1.074-3.054-2.014-4.686-2.853c-3.269-1.672-6.752-2.929-10.308-3.902
		c-7.127-1.942-14.537-2.742-21.934-3.002c-7.382-0.233-14.834,0.292-21.914,2.26c-3.528,0.987-6.958,2.343-10.094,4.187
		c-1.564,0.925-3.058,1.965-4.42,3.146c-0.682,0.589-1.33,1.213-1.932,1.872c-0.592,0.643-1.191,1.378-1.595,2.036l-0.441,0.721
		l-0.76-0.371c-2.464-1.204-5.346-1.959-8.165-2.381c-2.848-0.418-5.75-0.487-8.626-0.235c-5.762,0.496-11.382,2.296-16.55,4.945
		c-5.182,2.645-9.961,6.077-13.826,10.424c-1.936,2.164-3.658,4.521-5.122,7.033c-1.449,2.504-2.71,5.189-3.498,7.926l-0.231,0.806
		l-0.658-0.524c-2.907-2.314-6.745-3.637-10.531-3.699c-3.82-0.082-7.605,1.13-10.924,3.058c-3.324,1.954-6.425,4.399-8.702,7.514
		c-1.134,1.552-2.042,3.275-2.603,5.112c-0.549,1.823-0.794,3.808-0.459,5.656l0.051,0.282L47.459,61.5
		c-4.173,0.12-8.336,1.019-12.349,2.228c-2.009,0.618-3.985,1.341-5.92,2.163c-1.917,0.853-3.883,1.658-5.575,2.879
		c-3.425,2.443-5.66,6.241-6.907,10.224C15.459,83,14.983,87.25,15.17,91.44V91.449z"/>
</g>
</svg>
