<?xml version="1.0" encoding="utf-8"?>
<!-- Generator: Adobe Illustrator 16.0.0, SVG Export Plug-In . SVG Version: 6.00 Build 0)  -->
<!DOCTYPE svg PUBLIC "-//W3C//DTD SVG 1.1//EN" "http://www.w3.org/Graphics/SVG/1.1/DTD/svg11.dtd">
<svg version="1.1" id="Layer_1" xmlns="http://www.w3.org/2000/svg" xmlns:xlink="http://www.w3.org/1999/xlink" x="0px" y="0px"
	 width="72.152px" height="73.401px" viewBox="0 0 72.152 73.401" enable-background="new 0 0 72.152 73.401" xml:space="preserve">
<g>
	<circle fill="#990D1D" cx="36.303" cy="36.816" r="35.75"/>
	<path d="M72.152,36.817c0.018,9.369-3.514,18.813-10.127,25.722c-3.271,3.459-7.275,6.275-11.702,8.125
		c-4.42,1.88-9.225,2.795-14.031,2.734c-4.767-0.077-9.538-1.12-13.886-3.032c-4.354-1.915-8.298-4.681-11.611-8.042
		c-3.311-3.364-6.014-7.333-7.853-11.689C1.126,46.272,0.067,41.58,0.006,36.81c-0.084-4.732,0.731-9.545,2.528-13.98
		c1.774-4.444,4.443-8.544,7.824-11.957c3.372-3.421,7.423-6.18,11.862-8.054C26.662,0.934,31.475-0.002,36.316,0
		c4.787,0.034,9.629,0.981,14.039,2.892c4.426,1.882,8.422,4.714,11.691,8.181C68.647,17.999,72.193,27.441,72.152,36.817z
		 M71.953,36.815c-0.019-4.666-0.974-9.332-2.871-13.576c-1.889-4.244-4.617-8.086-7.966-11.236
		c-6.696-6.308-15.693-9.952-24.827-9.87c-9.062-0.02-18.122,3.633-24.601,10.069C8.449,15.407,5.808,19.231,4,23.437
		c-1.796,4.21-2.82,8.759-2.9,13.387c-0.23,9.214,3.504,18.546,10.153,25.043c6.614,6.56,15.904,10.069,25.061,9.868
		c9.138-0.086,18.143-3.749,24.824-10.083c3.343-3.161,6.071-7.005,7.959-11.252C70.994,46.152,71.943,41.484,71.953,36.815z"/>
</g>
<path fill="#990D1D" stroke="#FFFFFF" stroke-miterlimit="10" stroke-dasharray="5,1" d="M64.787,25.135
	c0-4.176-0.609-8.206-1.727-12.015c-0.596-0.673-1.218-1.322-1.863-1.949c0.892,3.431,1.37,7.03,1.37,10.744
	c0,23.287-18.655,42.166-41.667,42.166c-3.016,0-5.954-0.332-8.789-0.948c1.482,1.363,3.082,2.598,4.779,3.697
	c2.032,0.309,4.111,0.471,6.229,0.471C46.132,67.301,64.787,48.422,64.787,25.135z"/>
<path fill="#990D1D" stroke="#FFFFFF" stroke-miterlimit="10" stroke-dasharray="5,1" d="M59.886,19.234
	c0,23.287-18.655,42.166-41.667,42.166c-2.988,0-5.9-0.325-8.711-0.93c0.822,0.931,1.689,1.821,2.604,2.662
	c2.835,0.616,5.773,0.948,8.789,0.948c23.012,0,41.667-18.879,41.667-42.166c0-3.714-0.479-7.313-1.37-10.744
	c-0.822-0.798-1.682-1.557-2.577-2.273C59.443,12.205,59.886,15.667,59.886,19.234z"/>
<g>
	<path d="M72.152,36.817c0.018,9.369-3.514,18.813-10.127,25.722c-3.271,3.459-7.275,6.275-11.702,8.125
		c-4.42,1.88-9.225,2.795-14.031,2.734c-4.767-0.077-9.538-1.12-13.886-3.032c-4.354-1.915-8.298-4.681-11.611-8.042
		c-3.311-3.364-6.014-7.333-7.853-11.689C1.126,46.272,0.067,41.58,0.006,36.81c-0.084-4.732,0.731-9.545,2.528-13.98
		c1.774-4.444,4.443-8.544,7.824-11.957c3.372-3.421,7.423-6.18,11.862-8.054C26.662,0.934,31.475-0.002,36.316,0
		c4.787,0.034,9.629,0.981,14.039,2.892c4.426,1.882,8.422,4.714,11.691,8.181C68.647,17.999,72.193,27.441,72.152,36.817z
		 M71.953,36.815c-0.019-4.666-0.974-9.332-2.871-13.576c-1.889-4.244-4.617-8.086-7.966-11.236
		c-6.696-6.308-15.693-9.952-24.827-9.87c-9.062-0.02-18.122,3.633-24.601,10.069C8.449,15.407,5.808,19.231,4,23.437
		c-1.796,4.21-2.82,8.759-2.9,13.387c-0.23,9.214,3.504,18.546,10.153,25.043c6.614,6.56,15.904,10.069,25.061,9.868
		c9.138-0.086,18.143-3.749,24.824-10.083c3.343-3.161,6.071-7.005,7.959-11.252C70.994,46.152,71.943,41.484,71.953,36.815z"/>
</g>
</svg>
