<?xml version="1.0" encoding="utf-8"?>
<!-- Generator: Adobe Illustrator 16.0.0, SVG Export Plug-In . SVG Version: 6.00 Build 0)  -->
<!DOCTYPE svg PUBLIC "-//W3C//DTD SVG 1.1//EN" "http://www.w3.org/Graphics/SVG/1.1/DTD/svg11.dtd">
<svg version="1.1" id="Layer_1" xmlns="http://www.w3.org/2000/svg" xmlns:xlink="http://www.w3.org/1999/xlink" x="0px" y="0px"
	 width="85.115px" height="76.327px" viewBox="0 0 85.115 76.327" enable-background="new 0 0 85.115 76.327" xml:space="preserve">
<g>
	<path fill="#00BDFF" d="M83.899,4.031c-0.317-1.67-14.426-3.333-30.358-3.278c-15.933-0.055-30.04,0.608-30.358,2.278
		c-0.256,1.344-0.468,4.961-0.467,9.949C18.993,11.942,0.579,8.027,0.751,28.064C0.864,41.418,12.988,56.924,28.89,60.772
		c1.502,4.737,3.347,9.034,5.602,12.524c0.816,1.264,8.165,2.367,18.999,2.262c10.834,0.105,18.284-0.998,19.101-2.262
		C85.257,53.695,84.968,9.639,83.899,4.031z M23.312,53.333c-5.309-3.294-13.5-9.252-15.695-20.692
		c-2.354-12.252,5.446-18.646,11.428-14.992c2.463,1.505,2.574,4.04,3.947,5.717c0.459,9.039,1.561,19.773,3.795,29.594
		C26.424,54.695,24.122,53.836,23.312,53.333z"/>
	<g>
		<path fill="#1D1E1C" d="M83.828,4.054c-0.101-0.312-0.494-0.472-0.812-0.618c-0.337-0.143-0.691-0.252-1.047-0.353
			c-0.714-0.198-1.441-0.351-2.172-0.485c-1.463-0.268-2.938-0.465-4.416-0.633c-2.957-0.331-5.928-0.561-8.902-0.671
			C60.53,1.03,54.576,1.124,48.623,1.252l-8.922,0.263c-2.971,0.114-5.94,0.264-8.891,0.522c-1.472,0.14-2.946,0.267-4.387,0.495
			c-0.715,0.114-1.437,0.25-2.07,0.459c-0.154,0.053-0.304,0.111-0.422,0.173c-0.121,0.05-0.191,0.155-0.133,0.062
			c0.047-0.148,0.003,0.014-0.005,0.097l-0.043,0.276c-0.034,0.188-0.043,0.354-0.065,0.533c-0.154,1.425-0.223,2.926-0.277,4.399
			c-0.055,1.48-0.066,2.965-0.097,4.449l-0.016,0.781l-0.74-0.207c-3.064-0.859-6.315-1.266-9.489-0.977
			c-1.582,0.164-3.154,0.5-4.605,1.129c-1.449,0.63-2.776,1.537-3.852,2.698c-1.08,1.159-1.886,2.568-2.442,4.067
			c-0.556,1.506-0.85,3.102-1.017,4.705c-0.17,1.604-0.178,3.234-0.044,4.844c0.146,1.604,0.44,3.206,0.888,4.762
			c0.889,3.118,2.3,6.076,4.039,8.81c1.726,2.748,3.848,5.235,6.198,7.459c4.722,4.419,10.513,7.742,16.783,9.204l0.287,0.066
			l0.095,0.29c0.799,2.43,1.711,4.821,2.789,7.127c0.539,1.152,1.113,2.288,1.753,3.381c0.303,0.558,0.656,1.082,0.987,1.62
			l0.063,0.1l0.031,0.051l0.016,0.025c-0.012-0.017,0.048,0.07-0.022-0.029c0.052,0.066,0.114,0.137,0.107,0.11
			c0.006,0.006,0.149,0.101,0.25,0.148c0.232,0.115,0.511,0.217,0.793,0.309c2.346,0.679,4.939,0.91,7.469,1.109
			c2.548,0.18,5.109,0.25,7.671,0.253c2.56-0.022,5.154,0.009,7.698-0.094c2.555-0.1,5.11-0.254,7.631-0.558
			c1.254-0.159,2.514-0.349,3.697-0.655c0.573-0.148,1.201-0.354,1.533-0.583c0.044-0.026,0.053-0.046,0.074-0.058
			c-0.002-0.011-0.019,0.04,0.039-0.062l0.25-0.413l0.5-0.827c1.276-2.183,2.343-4.465,3.285-6.839
			c0.916-2.375,1.711-4.801,2.41-7.258c0.695-2.459,1.33-4.94,1.863-7.446c1.058-5.015,1.892-10.087,2.519-15.188
			c0.633-5.102,1.047-10.233,1.286-15.375c0.111-2.571,0.146-5.146,0.135-7.719c-0.035-2.569-0.046-5.158-0.398-7.696L83.828,4.054z
			 M83.973,4.013v0.005c0.392,2.562,0.434,5.144,0.503,7.72c0.054,2.578,0.026,5.156-0.017,7.733
			c-0.067,5.156-0.332,10.312-0.777,15.457c-0.219,2.572-0.496,5.142-0.835,7.705c-0.33,2.563-0.774,5.113-1.253,7.658
			c-0.486,2.543-1.074,5.069-1.728,7.581c-0.701,2.5-1.503,4.976-2.433,7.411c-0.947,2.418-2.059,4.819-3.377,7.087l-0.497,0.828
			l-0.249,0.414c-0.018,0.04-0.136,0.216-0.241,0.329c-0.098,0.095-0.204,0.191-0.295,0.252c-0.745,0.489-1.381,0.638-2.044,0.831
			c-1.309,0.343-2.604,0.538-3.901,0.709c-2.593,0.329-5.187,0.482-7.778,0.55c-2.605,0.08-5.163,0.025-7.755,0.026
			c-2.59-0.027-5.181-0.121-7.771-0.326c-2.593-0.234-5.17-0.465-7.776-1.239c-0.328-0.11-0.657-0.229-0.998-0.407
			c-0.183-0.105-0.322-0.171-0.556-0.38c-0.137-0.125-0.172-0.182-0.221-0.242c-0.083-0.115-0.031-0.047-0.055-0.079l-0.016-0.026
			l-0.031-0.053l-0.064-0.105c-0.333-0.564-0.689-1.117-0.99-1.698c-0.64-1.143-1.206-2.32-1.736-3.511
			c-1.058-2.382-1.938-4.831-2.699-7.309l0.382,0.355c-6.446-1.636-12.296-5.157-17.002-9.748c-2.34-2.314-4.436-4.876-6.178-7.665
			c-1.742-2.785-3.15-5.795-4.03-8.968c-0.441-1.585-0.778-3.199-0.938-4.847c-0.152-1.641-0.162-3.292-0.006-4.936
			c0.154-1.64,0.439-3.284,1-4.854c0.564-1.562,1.353-3.074,2.476-4.335c1.112-1.267,2.511-2.275,4.037-2.985
			c1.53-0.709,3.182-1.106,4.838-1.319c3.329-0.382,6.678-0.046,9.914,0.773L22.12,12.98c-0.017-1.495-0.012-2.99,0.033-4.488
			c0.044-1.503,0.097-2.982,0.251-4.521c0.022-0.191,0.036-0.397,0.067-0.576l0.041-0.276c0.026-0.1-0.012-0.128,0.11-0.448
			c0.235-0.426,0.494-0.534,0.697-0.659c0.212-0.111,0.411-0.188,0.607-0.258c0.781-0.263,1.529-0.401,2.283-0.53
			c1.502-0.244,2.996-0.408,4.492-0.513c2.99-0.218,5.977-0.323,8.962-0.395c2.984-0.077,5.969-0.088,8.952-0.049
			c5.962,0.07,11.934,0.164,17.885,0.614c2.975,0.23,5.947,0.464,8.908,0.834c1.48,0.186,2.957,0.399,4.424,0.685
			c0.732,0.145,1.463,0.305,2.183,0.514c0.359,0.106,0.717,0.221,1.063,0.373c0.324,0.164,0.738,0.301,0.891,0.722L83.973,4.013z"/>
		<path fill="#1D1E1C" d="M23.271,53.396c-1.027-0.626-2.034-1.294-3.041-1.961c-0.994-0.685-1.992-1.371-2.947-2.121
			c-0.952-0.752-1.89-1.534-2.76-2.393c-0.449-0.415-0.87-0.859-1.285-1.312c-0.433-0.437-0.811-0.921-1.193-1.402
			c-0.771-0.959-1.449-1.993-2.056-3.067c-0.326-0.524-0.572-1.092-0.839-1.648c-0.279-0.551-0.506-1.125-0.711-1.707
			c-0.225-0.574-0.426-1.156-0.576-1.755c-0.158-0.596-0.339-1.184-0.437-1.791c-0.107-0.612-0.254-1.185-0.326-1.827l-0.193-1.797
			c-0.054-1.233-0.063-2.473,0.067-3.687c0.116-1.215,0.344-2.424,0.711-3.591c0.146-0.595,0.438-1.143,0.648-1.719
			c0.264-0.552,0.571-1.09,0.899-1.609c0.384-0.484,0.713-1.016,1.187-1.424c0.229-0.211,0.422-0.462,0.675-0.646l0.755-0.561
			c1.062-0.661,2.285-1.137,3.584-1.192c1.285-0.025,2.598,0.256,3.735,0.887c1.116,0.582,2.12,1.696,2.699,2.809
			c0.62,1.109,1.01,2.245,1.673,3.031l0.141,0.166l0.02,0.249l0.598,7.418l0.377,3.699l0.169,1.853
			c0.062,0.616,0.097,1.236,0.184,1.85c0.162,1.229,0.305,2.459,0.442,3.691l0.37,3.708l0.53,3.688
			c0.188,1.228,0.346,2.465,0.559,3.691l0.007,0.041l-0.007,0.021c-0.056,0.179-0.11,0.356-0.22,0.516
			c-0.04,0.087-0.121,0.147-0.182,0.22c-0.061,0.075-0.153,0.114-0.228,0.172c-0.333,0.189-0.713,0.215-1.062,0.188
			C24.531,54.011,23.872,53.754,23.271,53.396z M23.352,53.27c0.581,0.331,1.239,0.567,1.9,0.62
			c0.328,0.023,0.669-0.021,0.926-0.194c0.261-0.168,0.405-0.456,0.465-0.767v0.062c-0.267-1.216-0.588-2.422-0.879-3.636
			l-0.908-3.641c-0.52-2.443-0.933-4.911-1.331-7.38c-0.101-0.618-0.148-1.24-0.226-1.86l-0.21-1.862l-0.381-3.729
			c-0.116-1.244-0.149-2.494-0.227-3.74l-0.2-3.741l0.16,0.414c-0.854-1.11-1.223-2.312-1.731-3.322
			c-0.507-1.033-1.123-1.817-2.111-2.431c-0.948-0.593-2.033-0.918-3.151-0.979c-1.128-0.037-2.239,0.323-3.249,0.863
			c-1.012,0.563-1.845,1.414-2.539,2.357c-0.322,0.487-0.628,0.995-0.895,1.519c-0.209,0.552-0.519,1.067-0.64,1.651
			c-0.345,1.133-0.542,2.312-0.587,3.496c-0.08,1.19,0.052,2.36,0.179,3.527l0.328,1.777c0.103,0.549,0.296,1.138,0.438,1.703
			c0.136,0.575,0.352,1.127,0.544,1.684l0.284,0.836l0.34,0.814c0.224,0.543,0.44,1.089,0.711,1.611
			c0.254,0.529,0.504,1.061,0.802,1.566c0.549,1.039,1.181,2.033,1.846,3.007c0.675,0.966,1.372,1.928,2.154,2.822
			c0.76,0.916,1.601,1.766,2.467,2.591c0.868,0.823,1.779,1.608,2.743,2.326C21.325,51.971,22.338,52.617,23.352,53.27z"/>
	</g>
</g>
<g>
	<path fill="#00BDFF" d="M53.669,0.596c13.096,0,17.278,0.508,21.772,0.876c3.906,0.319,8.462,1,8.458,2.56
		c-0.004,1.597-13.395,2.321-30.23,2.321c-11.716,0-25.853-1.006-28.991-2.539"/>
	<path fill="#1D1E1C" d="M53.669,0.596c3.784-0.122,7.571-0.177,11.361-0.103c3.791,0.073,7.581,0.314,11.355,0.633
		c1.896,0.19,3.794,0.397,5.679,0.966c0.47,0.153,0.941,0.326,1.4,0.616c0.228,0.148,0.461,0.327,0.648,0.603
		c0.096,0.133,0.167,0.305,0.207,0.484c0.011,0.109,0.029,0.141,0.017,0.319c0.021-0.013-0.079,0.321-0.137,0.356
		c-0.276,0.352-0.534,0.432-0.778,0.549c-0.245,0.103-0.486,0.18-0.725,0.246c-0.479,0.132-0.953,0.231-1.428,0.316
		c-3.791,0.621-7.577,0.808-11.367,0.984c-3.789,0.137-7.578,0.195-11.365,0.214c-3.785,0.019-7.579,0.017-11.367-0.154
		C43.383,6.47,39.599,6.248,35.826,5.88c-1.886-0.192-3.769-0.415-5.643-0.705c-1.86-0.316-3.77-0.583-5.506-1.361
		c0.872,0.372,1.809,0.542,2.736,0.711c0.93,0.162,1.865,0.291,2.804,0.4c1.876,0.219,3.761,0.37,5.646,0.492
		c3.771,0.253,7.549,0.408,11.327,0.472c7.551,0.092,15.125,0.003,22.671-0.313c3.766-0.174,7.562-0.312,11.249-0.894
		c0.457-0.078,0.91-0.17,1.346-0.285c0.216-0.059,0.428-0.126,0.619-0.204c0.185-0.067,0.377-0.196,0.39-0.226
		c-0.017,0.1-0.005-0.057-0.091-0.165c-0.077-0.117-0.221-0.242-0.389-0.351c-0.34-0.218-0.763-0.384-1.19-0.522
		c-1.741-0.536-3.629-0.759-5.491-0.951C68.79,1.137,61.242,0.819,53.669,0.596z"/>
</g>
</svg>
