<?xml version="1.0" encoding="utf-8"?>
<!-- Generator: Adobe Illustrator 16.0.0, SVG Export Plug-In . SVG Version: 6.00 Build 0)  -->
<!DOCTYPE svg PUBLIC "-//W3C//DTD SVG 1.1//EN" "http://www.w3.org/Graphics/SVG/1.1/DTD/svg11.dtd">
<svg version="1.1" id="Silverware" xmlns="http://www.w3.org/2000/svg" xmlns:xlink="http://www.w3.org/1999/xlink" x="0px" y="0px"
	 width="49.47px" height="452.062px" viewBox="0 0 49.47 452.062" enable-background="new 0 0 49.47 452.062" xml:space="preserve">
<g>
	<linearGradient id="SVGID_1_" gradientUnits="userSpaceOnUse" x1="24.415" y1="451.0283" x2="24.415" y2="0.8423">
		<stop  offset="0" style="stop-color:#B7B7B7"/>
		<stop  offset="0.1428" style="stop-color:#A9A9A9"/>
		<stop  offset="0.414" style="stop-color:#838383"/>
		<stop  offset="0.4356" style="stop-color:#808080"/>
		<stop  offset="0.5337" style="stop-color:#F2F2F2"/>
		<stop  offset="0.6653" style="stop-color:#EFEFEF"/>
		<stop  offset="0.771" style="stop-color:#E5E5E5"/>
		<stop  offset="0.8677" style="stop-color:#D4D4D4"/>
		<stop  offset="0.9585" style="stop-color:#BDBDBD"/>
		<stop  offset="1" style="stop-color:#AFAFAF"/>
	</linearGradient>
	<path fill="url(#SVGID_1_)" d="M48.446,219.445v-0.567c0.013-0.038,0.024-0.077,0.037-0.115h-0.037V12.929
		c-1.19-16.575-16.845-14.896-26.649-2.275C11.786,23.538,0.347,51.279,0.347,116.279c0,29.033,18.074,100.187,21.867,103.981
		c0.256,0.256,0.562,0.51,0.909,0.761c3.554,5.156,5.637,11.404,5.637,18.141c0,2.834-0.372,5.584-1.065,8.201h0.228
		c-0.994,1.334-1.575,2.89-1.575,4.558v190.217c0,4.913,4.946,8.892,11.05,8.892s11.05-3.979,11.05-8.892V251.92
		c0-1.668-0.581-3.224-1.575-4.558h0.216c-0.909-3.819-1.404-7.8-1.404-11.897c0-5.508,0.891-10.804,2.502-15.774
		C48.271,219.607,48.361,219.531,48.446,219.445z"/>
	<path d="M48.346,219.402l-0.004-0.524v-0.016l0.006-0.018l0.036-0.115l0.1,0.139h-0.037l-0.104,0.001l-0.001-0.106l-0.389-51.458
		l-0.238-51.458l-0.105-51.458l-0.033-51.458l0.002,0.062c-0.188-2.545-0.736-5.095-2.013-7.2c-1.244-2.117-3.344-3.598-5.756-3.97
		C37.4,1.419,34.846,1.968,32.525,2.97c-2.334,1.011-4.479,2.487-6.396,4.208c-1.932,1.713-3.597,3.711-5.109,5.844
		c-1.519,2.129-2.884,4.372-4.124,6.686c-2.479,4.631-4.463,9.533-6.129,14.537C7.455,44.27,5.372,54.691,3.88,65.168
		C2.411,75.656,1.532,86.232,1.101,96.824c-0.221,5.296-0.347,10.597-0.391,15.898c-0.022,2.655-0.052,5.297,0.09,7.937
		c0.129,2.642,0.347,5.281,0.616,7.916c1.082,10.542,2.965,20.994,5.022,31.393c2.086,10.397,4.44,20.741,7.047,31.019
		c1.308,5.137,2.677,10.259,4.167,15.343c0.748,2.54,1.522,5.073,2.373,7.573c0.426,1.249,0.87,2.493,1.367,3.701
		c0.25,0.601,0.514,1.202,0.816,1.742c0.075,0.136,0.155,0.26,0.234,0.375c0.09,0.12,0.127,0.16,0.27,0.293
		c0.225,0.208,0.459,0.393,0.718,0.581l0.073,0.053l0.052,0.075c2.664,3.839,4.485,8.262,5.297,12.871
		c0.406,2.301,0.562,4.658,0.467,6.983c-0.085,2.354-0.445,4.672-1.026,6.943l-0.599-0.777l0.228-0.001l1.229-0.005l-0.731,0.996
		c-0.604,0.822-1.057,1.75-1.273,2.729c-0.111,0.49-0.161,0.985-0.16,1.492l0.006,1.646l0.025,6.589l0.049,13.177l0.1,26.354
		L27.3,352.43l0.092,52.708l0.007,26.354l-0.004,6.588l-0.003,3.295c-0.03,1.105,0.037,1.984,0.375,2.89
		c0.638,1.791,2.083,3.29,3.82,4.26c1.742,0.984,3.778,1.468,5.81,1.47c2.031,0.001,4.069-0.479,5.813-1.462
		c1.74-0.969,3.19-2.467,3.833-4.262c0.161-0.446,0.272-0.907,0.332-1.375c0.026-0.234,0.043-0.47,0.046-0.706l0.002-0.814
		l0.002-3.295l0.005-6.588l0.021-26.354l0.206-52.708l0.206-52.708l0.104-26.354l0.073-13.177l0.049-6.589l0.012-1.646
		c0.003-0.539-0.047-1.039-0.162-1.56c-0.223-1.024-0.691-1.993-1.315-2.848l-0.364-0.5l0.612,0.005l0.216,0.002l-0.3,0.379
		c-1.055-4.581-1.492-9.303-1.27-13.991c0.22-4.688,1.094-9.339,2.569-13.784l0.009-0.026l0.018-0.016L48.346,219.402z
		 M48.546,219.488l-0.29,0.276l0.026-0.042c-1.405,4.449-2.204,9.083-2.354,13.736c-0.152,4.654,0.351,9.32,1.459,13.833
		l0.092,0.376l-0.392,0.003l-0.216,0.002l0.248-0.494c0.683,0.906,1.209,1.948,1.471,3.069c0.133,0.55,0.198,1.148,0.202,1.708
		l0.012,1.646l0.049,6.589l0.073,13.177l0.104,26.354l0.206,52.708l0.206,52.708l0.021,26.354l0.005,6.588l0.002,3.295l-0.001,0.832
		c-0.003,0.313-0.024,0.626-0.061,0.938c-0.076,0.622-0.225,1.234-0.436,1.82c-0.851,2.368-2.679,4.202-4.753,5.363
		c-2.089,1.177-4.468,1.731-6.823,1.734c-2.355,0-4.736-0.551-6.827-1.727c-2.078-1.16-3.91-2.993-4.766-5.365
		c-0.45-1.159-0.54-2.512-0.502-3.596l-0.003-3.295l-0.004-6.588l0.007-26.354l0.092-52.708l0.135-52.708l0.1-26.354l0.049-13.177
		l0.025-6.589l0.006-1.646c0.002-0.592,0.067-1.195,0.204-1.774c0.268-1.166,0.811-2.25,1.513-3.188l0.497,0.99l-0.228-0.001
		l-0.806-0.003l0.207-0.774c1.164-4.35,1.389-8.96,0.638-13.418c-0.745-4.454-2.483-8.739-5.043-12.467l0.125,0.127
		c-0.277-0.203-0.562-0.431-0.823-0.676c-0.103-0.091-0.295-0.291-0.396-0.443c-0.109-0.158-0.207-0.314-0.292-0.469
		c-0.343-0.62-0.606-1.239-0.863-1.863c-0.506-1.248-0.947-2.506-1.371-3.77c-0.844-2.527-1.608-5.073-2.345-7.626
		c-1.468-5.107-2.813-10.245-4.096-15.397c-2.556-10.307-4.858-20.674-6.893-31.095c-2.021-10.423-3.785-20.901-4.957-31.465
		c-0.28-2.642-0.51-5.291-0.649-7.948c-0.152-2.659-0.134-5.326-0.122-7.975c0.023-5.309,0.128-10.618,0.329-15.925
		c0.421-10.61,1.136-21.221,2.523-31.764c1.395-10.534,3.38-21.034,6.633-31.202c1.636-5.076,3.598-10.067,6.084-14.819
		c1.243-2.374,2.619-4.686,4.161-6.892c1.532-2.207,3.264-4.33,5.289-6.16c2.021-1.826,4.297-3.409,6.833-4.518
		c2.521-1.094,5.365-1.75,8.226-1.289c1.419,0.23,2.813,0.765,4.013,1.596c1.203,0.826,2.191,1.931,2.933,3.149
		c1.492,2.456,2.071,5.253,2.284,7.971l0.003,0.029l-0.001,0.034l-0.033,51.458l-0.105,51.458l-0.238,51.458l-0.389,51.458
		l-0.105-0.105h0.037l0.146,0.001l-0.046,0.138l-0.038,0.115l0.006-0.033L48.546,219.488z"/>
</g>
</svg>
