<?xml version="1.0" encoding="utf-8"?>
<!-- Generator: Adobe Illustrator 16.0.0, SVG Export Plug-In . SVG Version: 6.00 Build 0)  -->
<!DOCTYPE svg PUBLIC "-//W3C//DTD SVG 1.1//EN" "http://www.w3.org/Graphics/SVG/1.1/DTD/svg11.dtd">
<svg version="1.1" id="Layer_1" xmlns="http://www.w3.org/2000/svg" xmlns:xlink="http://www.w3.org/1999/xlink" x="0px" y="0px"
	 width="137.316px" height="42.481px" viewBox="0 0 137.316 42.481" enable-background="new 0 0 137.316 42.481"
	 xml:space="preserve">
<g>
	<path fill="#868686" d="M137.166,28.329c0,7.112-30.521,12.877-68.172,12.877c-37.651,0-68.173-5.765-68.173-12.877
		s30.521-5.877,68.173-5.877C106.645,22.452,137.166,21.217,137.166,28.329z"/>
	<g>
		<path fill="#1D1E1C" d="M137.316,28.334c0.006,0.782-0.367,1.523-0.847,2.101c-0.483,0.587-1.071,1.064-1.685,1.488
			c-1.233,0.846-2.587,1.471-3.947,2.052c-2.731,1.158-5.584,1.964-8.433,2.755c-5.719,1.525-11.549,2.589-17.397,3.473
			c-11.706,1.776-23.559,2.401-35.376,2.26c-11.822-0.196-23.618-1.115-35.333-2.552c-5.859-0.705-11.706-1.561-17.495-2.786
			c-2.895-0.616-5.771-1.346-8.603-2.299c-1.412-0.487-2.812-1.04-4.165-1.759c-0.675-0.362-1.339-0.768-1.966-1.264
			c-0.621-0.499-1.23-1.086-1.656-1.895c-0.433-0.797-0.576-1.88-0.184-2.819c0.387-0.938,1.108-1.553,1.796-2.007
			c1.411-0.896,2.896-1.352,4.365-1.75c2.95-0.758,5.914-1.147,8.875-1.437c5.922-0.559,11.832-0.783,17.735-0.889
			c11.807-0.211,23.586-0.187,35.355-0.159c11.769,0.082,23.552,0.006,35.349,0.552c5.896,0.267,11.798,0.552,17.68,1.147
			c2.937,0.327,5.881,0.638,8.778,1.265c1.444,0.323,2.895,0.672,4.266,1.275c0.682,0.306,1.352,0.67,1.917,1.19
			c0.565,0.507,0.987,1.258,0.97,2.052V28.334z M137.016,28.329c0.004-0.699-0.364-1.342-0.894-1.808
			c-0.528-0.473-1.174-0.815-1.837-1.102c-1.339-0.557-2.769-0.912-4.207-1.17c-2.887-0.496-5.818-0.755-8.753-0.861
			c-5.871-0.229-11.755-0.146-17.636,0.007c-5.883,0.163-11.768,0.356-17.656,0.455c-5.889,0.12-11.781,0.154-17.677,0.206
			c-11.79,0.036-23.57-0.252-35.324-0.244c-5.874,0.035-11.75,0.044-17.573,0.422c-2.903,0.212-5.814,0.455-8.605,1.035
			c-1.38,0.299-2.766,0.685-3.878,1.327c-1.145,0.647-1.648,1.556-1.137,2.601c0.501,1.043,1.695,1.925,2.89,2.632
			c1.223,0.714,2.549,1.302,3.899,1.827c2.707,1.056,5.543,1.821,8.393,2.497c5.714,1.324,11.544,2.166,17.387,2.78
			c5.85,0.587,11.726,0.877,17.601,1.014c5.875,0.148,11.75,0.115,17.62,0.001c11.739-0.203,23.461-0.661,35.162-1.596
			c5.846-0.503,11.684-1.209,17.437-2.376c2.877-0.576,5.717-1.352,8.458-2.38c1.365-0.525,2.696-1.155,3.907-1.958
			c0.6-0.406,1.171-0.862,1.63-1.409c0.456-0.545,0.792-1.197,0.794-1.905V28.329z"/>
	</g>
</g>
<g>
	<ellipse fill="#868686" cx="68.994" cy="27.329" rx="68.172" ry="12.877"/>
	<g>
		<path fill="#1D1E1C" d="M137.316,27.334c0.006,0.789-0.374,1.536-0.859,2.116c-0.489,0.591-1.086,1.069-1.705,1.496
			c-1.247,0.85-2.615,1.475-3.988,2.06c-2.758,1.161-5.637,1.972-8.513,2.766c-5.772,1.529-11.657,2.595-17.56,3.478
			c-11.815,1.771-23.773,2.376-35.699,2.205c-5.96-0.119-11.92-0.415-17.863-0.858c-5.942-0.46-11.87-1.065-17.78-1.799
			c-5.909-0.735-11.806-1.619-17.639-2.911c-2.912-0.665-5.813-1.417-8.649-2.472c-1.414-0.539-2.815-1.152-4.14-2.004
			c-0.657-0.431-1.304-0.919-1.864-1.566C0.506,29.212,0.014,28.34,0,27.329c-0.019-1.011,0.447-1.914,0.984-2.575
			c0.545-0.678,1.182-1.199,1.831-1.663c1.308-0.916,2.698-1.594,4.104-2.198c2.814-1.199,5.717-2.051,8.635-2.782
			c5.838-1.454,11.753-2.437,17.688-3.168c11.869-1.463,23.813-2.119,35.752-2.09c11.932,0.077,23.889,0.698,35.702,2.511
			c5.902,0.9,11.786,1.968,17.56,3.499c2.877,0.795,5.756,1.61,8.514,2.774c1.374,0.586,2.741,1.216,3.987,2.068
			c0.619,0.428,1.215,0.907,1.703,1.5c0.485,0.584,0.863,1.325,0.856,2.124V27.334z M137.016,27.329
			c-0.003-0.704-0.346-1.368-0.811-1.912c-0.465-0.55-1.045-1.005-1.651-1.411c-1.226-0.804-2.57-1.433-3.949-1.956
			c-2.768-1.031-5.636-1.8-8.539-2.376c-5.806-1.165-11.696-1.867-17.597-2.35c-5.902-0.476-11.814-0.751-17.727-0.985
			c-5.914-0.197-11.83-0.342-17.748-0.287c-11.831,0.052-23.676,0.453-35.428,1.694c-5.867,0.65-11.727,1.438-17.468,2.681
			c-2.861,0.64-5.707,1.37-8.418,2.366c-1.348,0.507-2.669,1.086-3.832,1.826c-1.143,0.721-2.188,1.715-2.206,2.71
			c-0.051,1.003,0.975,2.087,2.1,2.866c1.147,0.806,2.459,1.45,3.798,2.021c2.689,1.142,5.536,1.972,8.403,2.678
			c5.746,1.405,11.625,2.29,17.518,2.938c5.897,0.632,11.826,0.947,17.754,1.097c5.928,0.159,11.854,0.148,17.78,0.03
			c11.843-0.193,23.673-0.646,35.479-1.579c5.898-0.499,11.79-1.202,17.597-2.371c2.903-0.577,5.771-1.35,8.54-2.383
			c1.379-0.525,2.723-1.158,3.947-1.965c0.606-0.408,1.186-0.865,1.65-1.416c0.463-0.548,0.805-1.206,0.807-1.92V27.329z"/>
	</g>
</g>
<g>
	<path fill="#DC1622" d="M87.666,9.124c0,1.691-1.238,7.261-3.356,8.559c-3.468,2.124-9.293,2.518-15.894,2.518
		c-6.513,0-12.27-0.357-15.753-2.434c-2.203-1.313-3.497-6.915-3.497-8.643c0-4.46,8.618-8.075,19.25-8.075
		S87.666,4.664,87.666,9.124z"/>
	<path fill="#1D1D1B" d="M87.766,9.125c-0.017,1.02-0.225,2.009-0.434,2.993c-0.204,0.988-0.493,1.955-0.826,2.921
		c-0.359,0.954-0.765,1.922-1.576,2.731c-0.871,0.735-1.799,1.167-2.765,1.581c-1.935,0.792-3.976,1.212-6.001,1.429
		c-2.028,0.235-4.058,0.274-6.073,0.242c-4.022-0.124-8.062-0.407-12.047-1.138c-1.983-0.384-3.981-0.885-5.776-1.974
		c-0.927-0.694-1.442-1.608-1.936-2.521c-0.468-0.924-0.833-1.886-1.139-2.866c-0.305-0.986-0.567-1.966-0.697-3.048
		c-0.164-1.172,0.286-2.424,0.965-3.313c1.381-1.824,3.298-2.882,5.203-3.708c3.857-1.609,7.967-2.305,12.058-2.442
		c4.087-0.093,8.227,0.31,12.117,1.641c1.937,0.661,3.837,1.473,5.532,2.626c0.834,0.589,1.65,1.223,2.289,2.03
		C87.304,7.095,87.787,8.081,87.766,9.125z M87.566,9.123c-0.013-0.979-0.477-1.902-1.133-2.621
		c-0.668-0.715-1.473-1.302-2.35-1.746c-1.748-0.903-3.656-1.458-5.582-1.83c-3.865-0.693-7.793-0.954-11.704-0.781
		c-3.893,0.18-7.827,0.694-11.426,2.053c-1.76,0.701-3.519,1.593-4.651,2.932c-0.551,0.677-0.885,1.418-0.862,2.261
		c0.024,0.915,0.188,1.903,0.392,2.851c0.217,0.951,0.494,1.894,0.863,2.789c0.363,0.88,0.856,1.777,1.53,2.316
		c1.598,1.07,3.57,1.588,5.511,1.9c1.959,0.3,3.953,0.35,5.942,0.324c1.989-0.019,3.985-0.113,5.975-0.212
		c3.964-0.202,7.939-0.266,11.688-1.194c0.911-0.255,1.872-0.589,2.598-1.064c0.695-0.531,1.228-1.399,1.668-2.267
		C86.879,13.063,87.439,11.093,87.566,9.123z"/>
</g>
<path fill="#939393" d="M84.674,35.436c-37.904,0-68.631-5.188-68.631-11.587c0-0.094,0.028-0.185,0.04-0.276
	c-5.413,1.34-8.524,2.891-8.524,4.546c0,5.046,28.766,9.136,64.251,9.136c22.271,0,41.889-1.611,53.417-4.059
	C113.863,34.603,99.848,35.436,84.674,35.436z"/>
<g>
	<path fill="#1D1D1B" d="M50.34,7.285c-0.35,0.205-0.686,0.456-0.911,0.777c-0.253,0.326-0.179,0.73,0.144,0.953
		c0.62,0.456,1.444,0.624,2.221,0.785c1.585,0.286,3.203,0.438,4.822,0.528c3.242,0.168,6.494,0.194,9.748,0.2
		c3.257-0.008,6.501-0.039,9.742-0.215c1.619-0.079,3.238-0.187,4.842-0.408c0.8-0.119,1.604-0.221,2.394-0.4
		c0.778-0.193,1.59-0.368,2.269-0.821c-0.608,0.563-1.419,0.839-2.188,1.113c-0.781,0.258-1.576,0.484-2.383,0.642
		c-1.611,0.328-3.238,0.559-4.87,0.727c-3.264,0.31-6.546,0.375-9.81,0.336c-3.268-0.031-6.539-0.141-9.8-0.487
		c-1.628-0.183-3.264-0.371-4.862-0.801c-0.787-0.234-1.611-0.453-2.278-1.024c-0.157-0.148-0.302-0.349-0.321-0.589
		c-0.021-0.24,0.092-0.456,0.229-0.615C49.607,7.663,49.97,7.454,50.34,7.285z"/>
</g>
</svg>
