<?xml version="1.0" encoding="utf-8"?>
<!-- Generator: Adobe Illustrator 16.0.0, SVG Export Plug-In . SVG Version: 6.00 Build 0)  -->
<!DOCTYPE svg PUBLIC "-//W3C//DTD SVG 1.1//EN" "http://www.w3.org/Graphics/SVG/1.1/DTD/svg11.dtd">
<svg version="1.1" id="Layer_1" xmlns="http://www.w3.org/2000/svg" xmlns:xlink="http://www.w3.org/1999/xlink" x="0px" y="0px"
	 width="139.365px" height="133.805px" viewBox="0 0 139.365 133.805" enable-background="new 0 0 139.365 133.805"
	 xml:space="preserve">
<g>
	<path fill="#F16522" d="M120.287,20.265c8.379,9.554,15.512,20.716,17.664,36.229c3.232,23.443-6.664,44.446-17.515,55.664
		c-19.299,19.952-66.066,35.365-102.264-0.615C-9.333,84.201,3.096,42.139,8.96,31.625C19.87,12.066,36.122,1.246,60.604,0.438
		C97.415-0.776,109.956,10.043,120.287,20.265z"/>
	<path d="M120.362,20.199c5.9,6.681,11.414,13.944,14.847,22.371c0.844,2.102,1.557,4.256,2.165,6.44
		c0.588,2.19,0.988,4.426,1.312,6.665c0.661,4.48,0.838,9.026,0.538,13.537c-0.579,9.024-2.955,17.891-6.843,26.004
		c-3.904,8.075-9.188,15.628-16.208,21.297c-6.923,5.736-14.96,10.046-23.439,12.993c-8.48,2.959-17.496,4.481-26.521,4.28
		c-9.023-0.175-18.023-2.213-26.281-5.921c-8.276-3.689-15.745-9.058-22.194-15.377c-6.522-6.324-11.521-14.266-14.354-22.915
		C0.516,80.927-0.381,71.739,0.14,62.721c0.529-9.031,2.394-17.971,5.711-26.401c0.832-2.093,1.813-4.203,2.981-6.136
		c1.144-1.956,2.353-3.859,3.664-5.703c2.624-3.679,5.612-7.114,8.986-10.135c3.366-3.025,7.118-5.622,11.138-7.691
		c4.02-2.071,8.296-3.611,12.675-4.665c4.38-1.062,8.86-1.636,13.345-1.856c4.481-0.187,8.963-0.179,13.438,0.035
		c8.928,0.465,17.924,1.71,26.324,4.913c4.188,1.596,8.187,3.706,11.838,6.306c3.666,2.586,6.957,5.649,10.117,8.807l0.003,0.003
		L120.362,20.199z M120.214,20.333c-3.176-3.137-6.473-6.169-10.134-8.72c-3.647-2.564-7.631-4.638-11.804-6.2
		C89.911,2.279,80.95,1.065,72.054,0.764C63.154,0.539,54.138,0.688,45.53,2.935c-8.602,2.162-16.659,6.4-23.119,12.432
		c-3.244,2.995-6.108,6.39-8.618,10.024c-2.491,3.663-4.819,7.424-6.309,11.565C5.928,41.081,4.763,45.367,3.892,49.7
		c-0.885,4.331-1.479,8.724-1.719,13.135c-0.484,8.809,0.422,17.732,3.215,26.072c1.402,4.16,3.23,8.177,5.537,11.91
		c2.301,3.736,5.062,7.184,8.189,10.276c6.255,6.243,13.52,11.487,21.531,15.208c8.008,3.724,16.762,5.816,25.61,6.193
		c17.698,0.725,35.729-5.204,49.526-16.453c6.862-5.677,12.105-13.135,15.766-21.214c3.659-8.092,5.798-16.861,6.178-25.695
		c0.176-4.416-0.053-8.846-0.718-13.206c-0.341-2.18-0.808-4.336-1.356-6.469c-0.524-2.14-1.151-4.256-1.909-6.328
		c-1.489-4.152-3.336-8.204-5.63-12.021C125.87,27.258,123.104,23.732,120.214,20.333z"/>
</g>
<path d="M52.614,24.749c-16.244-3.176-22.865,5.244-25.249,6.075c-0.38,0.126,0.519-1.163,1.035-1.626
	c5.22-4.675,15.431-7.238,19.22-7.378c2.115-5.473,7.208-7.8,12.861-6.521c0.762,0.172,2.799,1.392,3.667,1.843
	c4.027-3.557,15.472-5.565,20.143-4.576c0.437,0.093-0.794,0.447-0.974,0.447c-8.183-0.328-15.695,3.371-20.464,6.733
	C60.739,21.243,58.314,25.863,52.614,24.749z"/>
<path fill="#F16522" d="M55.746,15.898c1.238-0.055,5.749,1.286,6.142,1.662c-1.086,0.901-4.168,5.018-8.518,4.833
	c-1.578-0.067-4.072-0.82-4.072-0.82C50.349,19.57,50.87,17.023,55.746,15.898z"/>
</svg>
