<?xml version="1.0" encoding="utf-8"?>
<!-- Generator: Adobe Illustrator 16.0.0, SVG Export Plug-In . SVG Version: 6.00 Build 0)  -->
<!DOCTYPE svg PUBLIC "-//W3C//DTD SVG 1.1//EN" "http://www.w3.org/Graphics/SVG/1.1/DTD/svg11.dtd">
<svg version="1.1" id="Layer_1" xmlns="http://www.w3.org/2000/svg" xmlns:xlink="http://www.w3.org/1999/xlink" x="0px" y="0px"
	 width="78.163px" height="78.756px" viewBox="0 0 78.163 78.756" enable-background="new 0 0 78.163 78.756" xml:space="preserve">
<g>
	<path fill-rule="evenodd" clip-rule="evenodd" fill="#E20613" d="M64.863,2.582c7.051,2.457,9.849,4.161,12.822,5.672
		c-1.684,4.176-16.86,32.988-17.97,39.068c-1.111,6.08,1.29,17.105-7.308,19.767c-2.209,0.683-6.588-0.218-9.96,0.766
		c-9.763,2.844-20.925,8.184-23.749,9.176c-3.797,1.339-15.085,2.743-17.411-3.614c-1.679-3.787,0.103-10.863,6.79-15.829
		c8.529-5.609,28.67-9.108,30.372-14.026c1.698-4.916,5.625-18.092,7.272-23.189c1.959-6.07,3.591-13.738,7.844-20.287
		C53.566,0.084,58.516,0.369,64.863,2.582z"/>
	<path fill="#1D1D1B" d="M64.889,2.511c1.101,0.398,2.21,0.766,3.304,1.189c1.106,0.388,2.189,0.835,3.287,1.252
		c1.089,0.438,2.173,0.898,3.239,1.391l3.181,1.488c0.224,0.104,0.323,0.367,0.228,0.592l-0.003,0.007
		c-1.808,4.259-3.882,8.284-5.86,12.403l-5.981,12.291c-0.987,2.051-1.945,4.116-2.894,6.181c-0.944,2.064-1.877,4.143-2.639,6.254
		c-0.822,2.06-0.867,4.313-0.997,6.592c-0.112,2.273-0.201,4.58-0.645,6.855c-0.445,2.245-1.253,4.578-2.986,6.227
		c-1.676,1.653-4.111,2.51-6.413,2.37c-2.283-0.006-4.579-0.138-6.756,0.378c-2.152,0.637-4.35,1.349-6.469,2.138
		c-4.266,1.576-8.452,3.376-12.618,5.222l-3.132,1.384c-1.055,0.447-2.121,0.927-3.277,1.207c-2.264,0.577-4.581,0.854-6.921,0.821
		c-2.323-0.053-4.744-0.378-6.9-1.618c-1.058-0.628-2.018-1.532-2.611-2.666c-0.565-1.083-0.949-2.316-1.006-3.544
		c-0.142-2.456,0.536-4.833,1.594-6.957c1.074-2.126,2.564-4.02,4.308-5.614c0.438-0.397,0.886-0.783,1.354-1.143l0.395-0.301
		l0.358-0.232l0.763-0.462c1.019-0.586,2.064-1.099,3.118-1.579c2.111-0.954,4.262-1.767,6.417-2.542
		c4.308-1.55,8.674-2.893,12.867-4.559c2.059-0.847,4.219-1.71,5.791-3.066c0.377-0.339,0.688-0.721,0.834-1.102l0.55-1.599
		l1.114-3.233l4.354-12.961c0.736-2.16,1.465-4.324,2.142-6.499l1.987-6.544c1.366-4.347,3.035-8.652,5.533-12.494
		c0.016-0.026,0.047-0.04,0.075-0.038c0.97,0.074,1.929,0.207,2.885,0.361c0.479,0.067,0.952,0.173,1.429,0.259
		c0.477,0.084,0.949,0.19,1.42,0.302c0.471,0.113,0.947,0.205,1.413,0.336l1.4,0.382c0.47,0.118,0.927,0.279,1.388,0.425
		L64.889,2.511z M64.838,2.653L63.46,2.21C63,2.066,62.544,1.906,62.076,1.789L60.679,1.41c-0.465-0.13-0.939-0.22-1.408-0.333
		c-0.47-0.11-0.941-0.215-1.416-0.298c-0.476-0.085-0.946-0.19-1.425-0.255c-0.952-0.153-1.91-0.283-2.868-0.355l0.075-0.038
		c-2.461,3.837-4.097,8.132-5.434,12.478l-1.947,6.558c-0.689,2.176-1.325,4.363-1.949,6.556l-3.733,13.176l-1.003,3.271
		l-0.514,1.651c-0.253,0.693-0.695,1.212-1.148,1.646c-0.924,0.861-1.955,1.458-2.989,2.01c-1.04,0.54-2.095,1.023-3.164,1.456
		c-4.28,1.718-8.636,3.073-12.903,4.628c-2.132,0.775-4.247,1.585-6.289,2.517c-1.02,0.468-2.021,0.966-2.977,1.52l-0.704,0.417
		l-0.361,0.229L8.235,58.46c-0.44,0.33-0.86,0.684-1.271,1.048c-1.637,1.461-3.031,3.196-4.037,5.131
		c-0.993,1.928-1.618,4.089-1.517,6.206c0.038,1.059,0.338,2.049,0.812,2.993c0.459,0.9,1.198,1.636,2.086,2.186
		c1.804,1.089,4.055,1.469,6.258,1.548c2.218,0.066,4.473-0.157,6.642-0.645c1.072-0.228,2.108-0.66,3.162-1.075l3.16-1.298
		c4.215-1.749,8.455-3.446,12.772-4.956c2.162-0.782,4.312-1.46,6.535-2.098c2.287-0.531,4.608-0.329,6.868-0.362
		c1.136-0.017,2.252-0.068,3.269-0.516c1.038-0.396,1.989-0.998,2.769-1.775c1.586-1.552,2.373-3.757,2.726-5.956
		c0.367-2.218,0.394-4.489,0.44-6.769c0.023-1.141,0.049-2.289,0.148-3.447c0.075-1.167,0.341-2.349,0.716-3.447
		c1.492-4.376,3.417-8.514,5.35-12.655c1.937-4.136,3.935-8.239,6.011-12.301l3.088-6.103c1.009-2.035,2.108-4.06,3.026-6.093
		l0.224,0.599l-3.053-1.738c-1.018-0.57-2.052-1.106-3.098-1.625c-1.049-0.514-2.121-0.977-3.201-1.42
		C67.044,3.438,65.931,3.068,64.838,2.653z"/>
</g>
<g>
	<path fill="#FFFFFF" d="M49.416,8.887l0.989-2.121c0.055,0.016,5.261,0.837,11.586,2.672c7.798,2.26,11.525,4.241,11.683,4.327
		l-1.341,2.497c-0.037-0.02-3.661-1.936-11.131-4.103C54.914,10.336,50.819,9.261,49.416,8.887z"/>
</g>
</svg>
