<?xml version="1.0" encoding="utf-8"?>
<!-- Generator: Adobe Illustrator 16.0.0, SVG Export Plug-In . SVG Version: 6.00 Build 0)  -->
<!DOCTYPE svg PUBLIC "-//W3C//DTD SVG 1.1//EN" "http://www.w3.org/Graphics/SVG/1.1/DTD/svg11.dtd">
<svg version="1.1" id="Layer_1" xmlns="http://www.w3.org/2000/svg" xmlns:xlink="http://www.w3.org/1999/xlink" x="0px" y="0px"
	 width="344.595px" height="52.225px" viewBox="0 0 344.595 52.225" enable-background="new 0 0 344.595 52.225"
	 xml:space="preserve">
<g>
	<path fill="#4582EF" d="M3.681,32.07c-4.131-0.089-3.954,11.337-2.942,13.464c2.392,5.017,10.223,4.632,14.958,4.888
		c22.062,1.194,44.71,2.459,66.675-0.449c15.945-2.11,31.433-6.65,47.308-9.174c14.449-2.299,29.166-2.628,43.422,0.143
		c16.063,3.121,137.697,4.941,159.959,0.667c2.833-0.544,7.094-0.844,9.406-2.809c7.318-6.213-12.252-11.776-15.228-12.147
		c-34.294-4.27-149.604-2.486-159.031-2.042c-10.423,0.917-21.304,2.27-31.72,5.532c-14.117,4.421-30.918,8.814-46.078,7.446
		c-3.528-0.317-3.904-2.148-6.837-3.688c-2.067-1.086-4.496-1.301-6.786-1.457c-11.495-0.791-23.586,0.489-35.162,0.363
		c-12.643-0.137-25.279-0.41-37.919-0.734C3.705,32.072,3.689,32.071,3.681,32.07z"/>
	<path d="M3.688,32.171L3.683,32.17c-0.922-0.037-1.663,0.646-2.092,1.428c-0.447,0.789-0.712,1.679-0.903,2.573
		c-0.37,1.799-0.466,3.652-0.404,5.489c0.106,1.817,0.158,3.768,1.45,5.125c1.18,1.391,2.935,2.148,4.691,2.595
		c3.573,0.879,7.314,0.666,11.004,0.927c3.693,0.193,7.387,0.371,11.082,0.512C43.282,51.4,58.1,51.668,72.8,50.338
		c14.73-1.185,29.047-4.831,43.528-7.983c7.239-1.566,14.558-2.965,21.978-3.695c7.408-0.752,14.891-0.94,22.337-0.399
		c3.723,0.27,7.435,0.723,11.113,1.376c3.588,0.751,7.216,0.993,10.904,1.283c7.354,0.524,14.741,0.809,22.125,1.108
		c14.771,0.559,29.558,0.878,44.345,1.062c14.786,0.156,29.576,0.229,44.359,0.049c7.392-0.101,14.783-0.259,22.161-0.589
		c3.688-0.169,7.376-0.377,11.045-0.707c1.832-0.169,3.664-0.364,5.466-0.655c1.809-0.347,3.681-0.559,5.443-0.931
		c1.758-0.385,3.52-0.9,4.777-2.076c0.613-0.564,1.122-1.273,1.196-2.016c0.081-0.744-0.281-1.511-0.831-2.16
		c-1.121-1.308-2.725-2.264-4.326-3.096c-1.623-0.827-3.325-1.519-5.054-2.131c-1.729-0.605-3.494-1.147-5.271-1.552
		c-1.744-0.339-3.635-0.483-5.454-0.685c-3.675-0.357-7.362-0.608-11.052-0.829c-14.761-0.847-29.555-1.185-44.346-1.318
		c-7.396-0.069-14.792-0.115-22.188-0.103l-22.188,0.159c-14.792,0.152-29.584,0.414-44.369,0.736l-5.542,0.127
		c-1.831,0.064-3.729,0.06-5.487,0.222c-3.673,0.338-7.34,0.73-10.985,1.233c-7.298,1.013-14.487,2.481-21.503,4.741
		c-7.096,2.153-14.282,4.085-21.61,5.401c-7.315,1.325-14.813,1.969-22.268,1.348c-0.903-0.063-1.938-0.17-2.882-0.546
		c-0.963-0.362-1.778-1.008-2.476-1.604c-1.372-1.218-2.85-2.131-4.591-2.559c-1.722-0.452-3.558-0.562-5.4-0.696
		c-1.832-0.121-3.677-0.192-5.52-0.229c-7.377-0.142-14.77,0.271-22.172,0.385c-3.703,0.069-7.408-0.013-11.104-0.064l-11.096-0.212
		L3.688,32.171z M3.687,31.971l22.184,0.437l11.094,0.148l5.547,0.047c1.847-0.005,3.693-0.046,5.541-0.103
		c7.387-0.23,14.771-0.762,22.193-0.737c1.856,0.008,3.709,0.05,5.57,0.143c1.842,0.105,3.725,0.179,5.598,0.635
		c0.921,0.219,1.878,0.577,2.713,1.042c0.852,0.464,1.634,1.065,2.344,1.653c0.714,0.588,1.389,1.094,2.172,1.373
		c0.789,0.296,1.621,0.376,2.558,0.427c7.317,0.508,14.672-0.318,21.892-1.651c7.229-1.354,14.344-3.322,21.383-5.518
		c3.512-1.143,7.138-2.162,10.771-2.95c3.645-0.781,7.318-1.391,11.002-1.886c3.685-0.494,7.377-0.874,11.071-1.199
		c1.927-0.166,3.734-0.146,5.599-0.206l5.551-0.104c29.6-0.39,59.193-0.191,88.786,0.181c14.795,0.27,29.593,0.518,44.378,1.303
		c3.695,0.203,7.391,0.451,11.082,0.779c1.855,0.188,3.666,0.295,5.557,0.64c1.834,0.4,3.617,0.93,5.384,1.528
		c1.763,0.605,3.502,1.292,5.185,2.128c1.666,0.854,3.34,1.796,4.66,3.293c0.639,0.738,1.188,1.756,1.083,2.888
		c-0.116,1.128-0.787,2.007-1.508,2.688c-1.475,1.39-3.427,1.956-5.238,2.374c-1.854,0.409-3.662,0.626-5.483,0.994
		c-1.848,0.318-3.694,0.533-5.542,0.723c-3.696,0.37-7.395,0.617-11.094,0.823c-7.397,0.407-14.799,0.641-22.199,0.816
		c-14.802,0.343-29.604,0.417-44.406,0.298c-14.802-0.113-29.602-0.364-44.401-0.854c-7.401-0.243-14.798-0.586-22.202-1.114
		c-1.852-0.138-3.703-0.291-5.561-0.487c-0.929-0.1-1.858-0.209-2.797-0.349c-0.972-0.143-1.862-0.335-2.76-0.493
		c-3.604-0.646-7.244-1.098-10.899-1.369c-7.311-0.544-14.676-0.372-21.984,0.356c-7.31,0.729-14.558,2.058-21.793,3.525
		c-7.234,1.478-14.453,3.126-21.741,4.509c-7.282,1.415-14.671,2.403-22.069,2.919c-14.812,1.064-29.648,0.561-44.418-0.261
		l-11.08-0.637c-3.671-0.286-7.421-0.091-11.065-1.01c-1.79-0.467-3.607-1.258-4.841-2.729c-0.604-0.714-1.092-1.594-1.221-2.534
		c-0.169-0.923-0.236-1.852-0.268-2.78c-0.049-1.857,0.059-3.725,0.446-5.549c0.2-0.907,0.474-1.813,0.945-2.634
		c0.236-0.406,0.534-0.79,0.923-1.079c0.381-0.291,0.879-0.453,1.354-0.438H3.687z"/>
</g>
<path fill-rule="evenodd" clip-rule="evenodd" fill="#E2E2F2" d="M89.755,39.447c0,0-1.353-32.665,1.096-37.355L77.198,3.007
	l0.094,12.388L75.329,2.211L54.223,2.367l-1.486,8.745L51.122,2.8L26.291,2.985l-1.47,10.977L23.188,3.415L2.704,3.57l2.088,30.035
	l81.059,5.479L89.755,39.447z"/>
<path fill-rule="evenodd" clip-rule="evenodd" fill="#9898AA" d="M90.409,37.589c0,0,2.094-22.108,0.488-29.404
	c-1.605-7.096-1.605-7.096-1.605-7.096s1.643,11.968-0.762,22.748c-2.4,10.984-2.993,14.438-2.993,14.438s-2.33-20.693-2.391-28.61
	c-0.058-7.717-0.064-8.529-0.064-8.529l-3.755,37.188c0,0-4.345,0.031-6.291-10.919C70.782,16.661,71.32,5.691,71.32,5.691
	s1.141,27.81-1.015,29.856c-1.848,2.045-7.743,2.495-8.12-6.232c-0.688-8.931-0.775-20.504-0.791-22.533
	c-0.013-2.029-3.821,28.253-8.183,26.255c-4.052-1.998-3.947-29.616-3.947-29.616s0.205,27.21-3.837,26.223
	c-4.043-0.983-2.384-27.798-2.384-27.798s-4.715,33.335-10.026,28.907C27.711,26.529,31.253,2.34,31.253,2.34
	s-1.934,31.894-10.342,28.302c-8.101-3.796-8.279-27.555-8.279-27.555S11.574,27.26,7.849,26.884
	C4.427,26.706,0.824,1.759,0.824,1.759l1.861,34.815c0,0,46.538,2.587,64.546,2.855C85.548,39.696,90.409,37.589,90.409,37.589z"/>
<path fill-rule="evenodd" clip-rule="evenodd" fill="#FFFFFF" d="M67.296,7.142c0,0,3.639,29.822,0.518,27.41
	C64.693,32.343,67.296,7.142,67.296,7.142z"/>
<path fill-rule="evenodd" clip-rule="evenodd" fill="#FFFFFF" d="M74.121,6.483c0,0,3.64,30.022,0.52,27.609
	C71.521,31.885,74.121,6.483,74.121,6.483z"/>
<path fill-rule="evenodd" clip-rule="evenodd" fill="#FFFFFF" d="M82.506,7.028c0,0,3.95,29.819,0.828,27.405
	C79.903,32.226,82.506,7.028,82.506,7.028z"/>
<path fill-rule="evenodd" clip-rule="evenodd" fill="#FFFFFF" d="M53.927,4.197c0,0,3.949,29.82,0.827,27.408
	C51.321,29.399,53.927,4.197,53.927,4.197z"/>
<path fill-rule="evenodd" clip-rule="evenodd" fill="#FFFFFF" d="M45.203,0c0,0,3.64,29.822,0.517,27.61
	C42.601,25.198,45.203,0,45.203,0z"/>
<path fill-rule="evenodd" clip-rule="evenodd" fill="#FFFFFF" d="M33.419,1.918c0,0,3.641,29.819,0.523,27.61
	C30.816,27.115,33.419,1.918,33.419,1.918z"/>
<path fill-rule="evenodd" clip-rule="evenodd" fill="#FFFFFF" d="M19.772,3.238c0,0,3.95,29.819,0.52,27.612
	C17.169,28.435,19.772,3.238,19.772,3.238z"/>
<path fill-rule="evenodd" clip-rule="evenodd" fill="#FFFFFF" d="M9.206,1.695c0,0,3.643,29.819,0.521,27.611
	C6.29,26.894,9.206,1.695,9.206,1.695z"/>
<path fill-rule="evenodd" clip-rule="evenodd" d="M89.396,6.983c0,0,2.406,16.338,1.928,28.194
	c-0.078,1.936-0.568,3.506-0.914,4.411c-0.239,0.625-11.917,1.18-15.904,1.242c-17.984,0.281-71.819-4.257-71.819-4.257L3.06,5.967
	l2.234,28.169l10.222,1.322l-1.253-25.124l4.492,25.24l11.555,0.232l-0.031-22.626l3.484,23.489l7.843-0.803l-0.142-20.546
	l2.86,20.897l10.566,0.475l3.459-23.909l1.073,23.434l9.666,0.67l0.773-18.258l2.236,17.306l6.05,0.626l3.158-21.542l1.369,21.505
	l5.132,0.147L89.396,6.983z"/>
<g>
	<path d="M2.686,36.574c7.364-0.259,14.714-0.26,22.061-0.164c7.347,0.077,14.687,0.315,22.025,0.587l21.976,0.95
		c7.327,0.278,14.646,0.639,22.008,0.736c-7.291,1.166-14.68,1.468-22.036,1.624c-3.682,0.096-7.362,0.037-11.042,0.015
		c-3.678-0.08-7.359-0.189-11.028-0.336c-7.338-0.333-14.674-0.709-22.002-1.265C17.317,38.183,9.992,37.541,2.686,36.574z"/>
</g>
</svg>
