<?xml version="1.0" encoding="utf-8"?>
<!-- Generator: Adobe Illustrator 16.0.0, SVG Export Plug-In . SVG Version: 6.00 Build 0)  -->
<!DOCTYPE svg PUBLIC "-//W3C//DTD SVG 1.1//EN" "http://www.w3.org/Graphics/SVG/1.1/DTD/svg11.dtd">
<svg version="1.1" id="Layer_1" xmlns="http://www.w3.org/2000/svg" xmlns:xlink="http://www.w3.org/1999/xlink" x="0px" y="0px"
	 width="177.191px" height="151.641px" viewBox="0 0 177.191 151.641" enable-background="new 0 0 177.191 151.641"
	 xml:space="preserve">
<path fill-rule="evenodd" clip-rule="evenodd" fill="#066DCD" d="M177.735,145.971c0,3.131-2.538,5.67-5.669,5.67H6.07
	c-3.131,0-5.669-2.539-5.669-5.67V5.67C0.401,2.539,2.939,0,6.07,0h165.996c3.131,0,5.669,2.539,5.669,5.67V145.971z"/>
<g opacity="0.37">
	<defs>
		<path id="SVGID_1_" opacity="0.37" d="M177.735,145.971c0,3.131-2.538,5.67-5.669,5.67H6.07c-3.131,0-5.669-2.539-5.669-5.67V5.67
			C0.401,2.539,2.939,0,6.07,0h165.996c3.131,0,5.669,2.539,5.669,5.67V145.971z"/>
	</defs>
	<clipPath id="SVGID_2_">
		<use xlink:href="#SVGID_1_"  overflow="visible"/>
	</clipPath>
	<g clip-path="url(#SVGID_2_)">
		<g>
			<circle fill="#69CEF7" cx="0" cy="90.367" r="16.108"/>
			<circle fill="#69CEF7" cx="32.216" cy="90.367" r="16.108"/>
			<circle fill="#69CEF7" cx="64.433" cy="90.367" r="16.109"/>
			<circle fill="#69CEF7" cx="96.649" cy="90.367" r="16.107"/>
			<path fill="#69CEF7" d="M144.974,90.367c0,8.896-7.213,16.109-16.106,16.109c-8.897,0-16.11-7.213-16.11-16.109
				c0-8.895,7.213-16.107,16.11-16.107C137.761,74.26,144.974,81.473,144.974,90.367z"/>
			<circle fill="#69CEF7" cx="161.083" cy="90.367" r="16.109"/>
			<circle fill="#69CEF7" cx="193.3" cy="90.367" r="16.108"/>
		</g>
		<g>
			<circle fill="#69CEF7" cx="16.106" cy="61.598" r="16.108"/>
			<circle fill="#69CEF7" cx="48.324" cy="61.598" r="16.109"/>
			<circle fill="#69CEF7" cx="80.541" cy="61.598" r="16.108"/>
			<circle fill="#69CEF7" cx="112.757" cy="61.598" r="16.107"/>
			<circle fill="#69CEF7" cx="144.973" cy="61.598" r="16.108"/>
			<path fill="#69CEF7" d="M193.298,61.598c0,8.896-7.213,16.109-16.106,16.109c-8.898,0-16.11-7.213-16.11-16.109
				c0-8.895,7.212-16.107,16.11-16.107C186.085,45.49,193.298,52.703,193.298,61.598z"/>
			<path fill="#69CEF7" d="M225.515,61.598c0,8.896-7.213,16.109-16.106,16.109c-8.897,0-16.11-7.213-16.11-16.109
				c0-8.895,7.213-16.107,16.11-16.107C218.302,45.49,225.515,52.703,225.515,61.598z"/>
		</g>
		<g>
			<path fill="#69CEF7" d="M16.108,33.074c0,8.898-7.213,16.111-16.108,16.111s-16.108-7.213-16.108-16.111
				c0-8.893,7.213-16.105,16.108-16.105S16.108,24.182,16.108,33.074z"/>
			<path fill="#69CEF7" d="M48.324,33.074c0,8.898-7.211,16.111-16.107,16.111c-8.896,0-16.108-7.213-16.108-16.111
				c0-8.893,7.213-16.105,16.108-16.105C41.113,16.969,48.324,24.182,48.324,33.074z"/>
			<path fill="#69CEF7" d="M80.542,33.074c0,8.898-7.212,16.111-16.108,16.111s-16.109-7.213-16.109-16.111
				c0-8.893,7.213-16.105,16.109-16.105S80.542,24.182,80.542,33.074z"/>
			<path fill="#69CEF7" d="M112.757,33.074c0,8.898-7.211,16.111-16.106,16.111s-16.108-7.213-16.108-16.111
				c0-8.893,7.213-16.105,16.108-16.105S112.757,24.182,112.757,33.074z"/>
			<path fill="#69CEF7" d="M144.974,33.074c0,8.898-7.213,16.111-16.106,16.111c-8.897,0-16.11-7.213-16.11-16.111
				c0-8.893,7.213-16.105,16.11-16.105C137.761,16.969,144.974,24.182,144.974,33.074z"/>
			<path fill="#69CEF7" d="M177.191,33.074c0,8.898-7.213,16.111-16.107,16.111c-8.897,0-16.11-7.213-16.11-16.111
				c0-8.893,7.213-16.105,16.11-16.105C169.979,16.969,177.191,24.182,177.191,33.074z"/>
			<path fill="#69CEF7" d="M209.408,33.074c0,8.898-7.213,16.111-16.107,16.111c-8.896,0-16.109-7.213-16.109-16.111
				c0-8.893,7.213-16.105,16.109-16.105C202.195,16.969,209.408,24.182,209.408,33.074z"/>
		</g>
		<g>
			<circle fill="#69CEF7" cx="16.106" cy="4.307" r="16.108"/>
			<circle fill="#69CEF7" cx="48.324" cy="4.307" r="16.109"/>
			<circle fill="#69CEF7" cx="80.541" cy="4.307" r="16.108"/>
			<circle fill="#69CEF7" cx="112.757" cy="4.307" r="16.107"/>
			<circle fill="#69CEF7" cx="144.973" cy="4.307" r="16.108"/>
			<path fill="#69CEF7" d="M193.298,4.307c0,8.896-7.213,16.109-16.106,16.109c-8.898,0-16.11-7.213-16.11-16.109
				c0-8.895,7.212-16.107,16.11-16.107C186.085-11.801,193.298-4.588,193.298,4.307z"/>
			<path fill="#69CEF7" d="M225.515,4.307c0,8.896-7.213,16.109-16.106,16.109c-8.897,0-16.11-7.213-16.11-16.109
				c0-8.895,7.213-16.107,16.11-16.107C218.302-11.801,225.515-4.588,225.515,4.307z"/>
		</g>
		<g>
			<circle fill="#69CEF7" cx="0" cy="147.711" r="16.108"/>
			<circle fill="#69CEF7" cx="32.216" cy="147.711" r="16.108"/>
			<circle fill="#69CEF7" cx="64.433" cy="147.711" r="16.109"/>
			<circle fill="#69CEF7" cx="96.649" cy="147.711" r="16.107"/>
			<path fill="#69CEF7" d="M144.974,147.711c0,8.896-7.213,16.109-16.106,16.109c-8.897,0-16.11-7.213-16.11-16.109
				c0-8.895,7.213-16.107,16.11-16.107C137.761,131.604,144.974,138.816,144.974,147.711z"/>
			<circle fill="#69CEF7" cx="161.083" cy="147.711" r="16.109"/>
			<circle fill="#69CEF7" cx="193.3" cy="147.711" r="16.108"/>
		</g>
		<g>
			<path fill="#69CEF7" d="M32.215,118.941c0,8.898-7.213,16.111-16.108,16.111s-16.108-7.213-16.108-16.111
				c0-8.895,7.213-16.107,16.108-16.107S32.215,110.047,32.215,118.941z"/>
			<path fill="#69CEF7" d="M64.433,118.941c0,8.898-7.214,16.111-16.108,16.111c-8.896,0-16.109-7.213-16.109-16.111
				c0-8.895,7.213-16.107,16.109-16.107C57.219,102.834,64.433,110.047,64.433,118.941z"/>
			<path fill="#69CEF7" d="M96.649,118.941c0,8.898-7.213,16.111-16.108,16.111c-8.896,0-16.108-7.213-16.108-16.111
				c0-8.895,7.212-16.107,16.108-16.107C89.437,102.834,96.649,110.047,96.649,118.941z"/>
			<path fill="#69CEF7" d="M128.864,118.941c0,8.898-7.212,16.111-16.107,16.111s-16.107-7.213-16.107-16.111
				c0-8.895,7.212-16.107,16.107-16.107S128.864,110.047,128.864,118.941z"/>
			<path fill="#69CEF7" d="M161.081,118.941c0,8.898-7.213,16.111-16.107,16.111c-8.897,0-16.109-7.213-16.109-16.111
				c0-8.895,7.212-16.107,16.109-16.107C153.868,102.834,161.081,110.047,161.081,118.941z"/>
			<path fill="#69CEF7" d="M193.298,118.941c0,8.898-7.213,16.111-16.106,16.111c-8.898,0-16.11-7.213-16.11-16.111
				c0-8.895,7.212-16.107,16.11-16.107C186.085,102.834,193.298,110.047,193.298,118.941z"/>
			<path fill="#69CEF7" d="M225.515,118.941c0,8.898-7.213,16.111-16.106,16.111c-8.897,0-16.11-7.213-16.11-16.111
				c0-8.895,7.213-16.107,16.11-16.107C218.302,102.834,225.515,110.047,225.515,118.941z"/>
		</g>
	</g>
</g>
</svg>
