<?xml version="1.0" encoding="utf-8"?>
<!-- Generator: Adobe Illustrator 16.0.0, SVG Export Plug-In . SVG Version: 6.00 Build 0)  -->
<!DOCTYPE svg PUBLIC "-//W3C//DTD SVG 1.1//EN" "http://www.w3.org/Graphics/SVG/1.1/DTD/svg11.dtd">
<svg version="1.1" id="Layer_1" xmlns="http://www.w3.org/2000/svg" xmlns:xlink="http://www.w3.org/1999/xlink" x="0px" y="0px"
	 width="219.552px" height="139.781px" viewBox="0 0 219.552 139.781" enable-background="new 0 0 219.552 139.781"
	 xml:space="preserve">
<path fill="#64CCF4" d="M0.876,37.163c0-14.216,28.086-36.992,108.833-36.992c80.746,0,108.832,22.776,108.832,36.992
	c0,17.261-28.086,43.704-108.832,43.704C28.962,80.867,0.876,54.423,0.876,37.163z"/>
<g>
	<path fill="#258BAF" d="M109.709,99.414c-62.842,0-84.699-19.579-84.699-32.359c0,12.781,3.339,71.89,84.699,71.89
		c81.358,0,84.698-59.109,84.698-71.89C194.407,79.835,172.55,99.414,109.709,99.414z"/>
	<path d="M109.709,99.563c-4.04,0.013-8.083-0.056-12.121-0.219c-4.04-0.136-8.078-0.366-12.11-0.704
		c-8.065-0.626-16.118-1.708-24.045-3.532c-7.901-1.854-15.768-4.368-22.921-8.537c-3.568-2.074-6.936-4.607-9.748-7.778
		c-1.395-1.589-2.646-3.351-3.565-5.324c-0.92-1.964-1.526-4.148-1.524-6.416h2.672c0.013,5.139,0.472,10.298,1.455,15.359
		c0.942,5.067,2.392,10.047,4.391,14.805c3.975,9.514,10.277,18.126,18.465,24.54c8.152,6.476,17.94,10.699,28.038,13.172
		c10.12,2.532,20.605,3.31,31.015,3.192c10.414-0.155,20.823-1.284,30.84-3.884c9.981-2.633,19.589-6.865,27.658-13.196
		c4.029-3.154,7.652-6.811,10.75-10.87c3.106-4.055,5.66-8.517,7.72-13.195c2.05-4.685,3.563-9.61,4.575-14.638
		c1.035-5.022,1.59-10.159,1.618-15.285h3.074c-0.011,2.303-0.64,4.51-1.578,6.484c-0.939,1.985-2.205,3.751-3.613,5.342
		c-2.837,3.174-6.226,5.694-9.804,7.763c-7.18,4.147-15.048,6.659-22.955,8.5c-7.932,1.813-15.984,2.899-24.052,3.521
		c-4.032,0.336-8.071,0.563-12.111,0.696C117.792,99.519,113.75,99.582,109.709,99.563z M109.709,99.264
		c4.037-0.019,8.073-0.118,12.104-0.312c4.029-0.217,8.053-0.54,12.062-0.978c8.008-0.943,15.969-2.32,23.71-4.448
		c7.721-2.139,15.281-5.001,22.007-9.14c3.328-2.094,6.47-4.502,8.957-7.42c2.455-2.885,4.335-6.38,4.321-9.91h3.074
		c0.021,10.679-2.03,21.379-6.343,31.206c-4.275,9.83-11.095,18.581-19.62,25.074c-8.513,6.543-18.542,10.808-28.834,13.277
		c-10.314,2.514-20.927,3.292-31.439,3.153c-10.518-0.134-21.054-1.264-31.265-3.844c-10.175-2.631-20.025-6.904-28.454-13.303
		c-4.197-3.202-8.037-6.899-11.342-11.046c-3.309-4.143-6.08-8.719-8.284-13.553c-4.408-9.68-6.643-20.312-6.689-30.966h2.672
		c0.015,3.604,1.946,7.106,4.422,9.997c2.514,2.922,5.677,5.316,9.016,7.405c6.75,4.117,14.313,6.977,22.04,9.103
		c7.746,2.118,15.708,3.498,23.717,4.437c4.01,0.436,8.033,0.756,12.063,0.97C101.636,99.156,105.672,99.25,109.709,99.264z"/>
</g>
<path fill="#2FA7D1" stroke="#000000" stroke-miterlimit="10" d="M181.959,93.981c0,13.406-24.268,20.774-72.982,20.774
	c-48.717,0-71.518-7.368-71.518-20.774c0-13.406,22.801-21.774,71.518-21.774C157.691,72.208,181.959,80.576,181.959,93.981z"/>
<g>
	<path fill="#35A8E0" d="M109.709,80.867c-80.747,0-108.833-26.443-108.833-43.704c0,17.261,4.291,95.855,108.833,95.855
		c104.541,0,108.832-78.595,108.832-95.855C218.541,54.423,190.455,80.867,109.709,80.867z"/>
	<path d="M109.709,80.967c-10.484,0.034-20.979-0.367-31.422-1.398c-10.444-0.976-20.856-2.575-31.048-5.199
		c-5.092-1.316-10.127-2.894-15.033-4.836c-4.907-1.933-9.679-4.267-14.151-7.122c-4.459-2.856-8.658-6.238-12.058-10.405
		c-1.687-2.083-3.183-4.363-4.253-6.866C0.673,42.648-0.004,39.934,0,37.163h1.752C1.74,43.947,2.379,50.741,3.623,57.416
		c1.224,6.679,3.06,13.253,5.6,19.557c5.044,12.601,13.051,24.107,23.584,32.786c5.243,4.35,11.036,8.028,17.156,11.037
		c6.121,3.015,12.589,5.295,19.181,7.045c13.206,3.515,26.932,4.702,40.565,4.63c13.636-0.097,27.318-1.481,40.446-5.071
		c13.093-3.575,25.652-9.439,36.08-18.096c5.207-4.315,9.859-9.288,13.81-14.771c3.959-5.479,7.201-11.46,9.795-17.706
		c5.147-12.52,7.631-26.12,7.69-39.664h2.021c-0.005,2.793-0.696,5.521-1.781,8.021c-1.084,2.509-2.585,4.794-4.282,6.879
		c-3.415,4.17-7.626,7.548-12.095,10.398c-4.481,2.848-9.26,5.172-14.169,7.105c-4.91,1.939-9.946,3.513-15.04,4.827
		c-10.195,2.618-20.607,4.219-31.052,5.192C130.688,80.61,120.194,81.006,109.709,80.967z M109.709,80.767
		c10.479-0.047,20.961-0.523,31.377-1.639c10.402-1.185,20.75-2.979,30.812-5.801c10.035-2.833,19.86-6.677,28.566-12.307
		c4.319-2.833,8.344-6.165,11.527-10.163c1.591-1.993,2.937-4.167,3.94-6.47c0.993-2.302,1.601-4.766,1.599-7.225h2.021
		c-0.034,13.805-2.524,27.644-7.762,40.467c-5.212,12.818-13.582,24.408-24.324,33.166c-5.356,4.39-11.26,8.087-17.476,11.097
		c-6.219,3.015-12.762,5.307-19.423,7.046c-13.347,3.474-27.15,4.695-40.858,4.627c-13.711-0.099-27.472-1.52-40.741-5.068
		c-13.223-3.57-25.982-9.422-36.641-18.158c-5.31-4.364-10.111-9.362-14.195-14.908c-4.093-5.54-7.477-11.597-10.149-17.949
		c-2.671-6.354-4.651-12.995-5.981-19.76C0.705,50.952,0.023,44.064,0,37.163h1.752c0.008,2.481,0.629,4.958,1.636,7.268
		c1.019,2.309,2.369,4.488,3.969,6.483c3.2,4.001,7.236,7.328,11.565,10.156c8.728,5.612,18.552,9.457,28.592,12.281
		c10.065,2.815,20.413,4.612,30.817,5.794C88.748,80.254,99.229,80.725,109.709,80.767z"/>
</g>
<g>
	<path d="M25.01,12.757C9.532,19.323,0.291,28.446,0.291,37.163c0,10.44,9.212,21.419,24.641,29.366
		c19.697,10.146,49.012,15.509,84.777,15.509c35.763,0,65.079-5.363,84.776-15.509c15.43-7.947,24.641-18.926,24.641-29.366
		c0-8.716-9.241-17.839-24.72-24.405C174.731,4.411,145.443,0,109.709,0C73.974,0,44.686,4.411,25.01,12.757z M23.986,14.208
		C37.509,8.472,64.951,1.17,109.709,1.17c44.756,0,70.271,8.007,83.793,13.743c14.587,6.188,23.297,14.505,23.297,22.249
		c0,17.098-34.492,43.545-113.062,43.545c-51.322,0-88.833-17.303-99.5-35C-6.764,27.458,18.927,16.354,23.986,14.208z"/>
</g>
</svg>
