<?xml version="1.0" encoding="utf-8"?>
<!-- Generator: Adobe Illustrator 16.0.0, SVG Export Plug-In . SVG Version: 6.00 Build 0)  -->
<!DOCTYPE svg PUBLIC "-//W3C//DTD SVG 1.1//EN" "http://www.w3.org/Graphics/SVG/1.1/DTD/svg11.dtd">
<svg version="1.1" id="Layer_1" xmlns="http://www.w3.org/2000/svg" xmlns:xlink="http://www.w3.org/1999/xlink" x="0px" y="0px"
	 width="106.636px" height="91.543px" viewBox="0 0 106.636 91.543" enable-background="new 0 0 106.636 91.543"
	 xml:space="preserve">
<g>
	<path fill="#EFEFEF" d="M61.054,8.049l0.074,64.078l24.421-1.48l20.511-1.631C106.06,69.016,65.987,9.069,61.054,8.049z"/>
	<path d="M61.092,8.107c0.09,5.32,0.179,10.641,0.196,15.961l0.111,16.02c0.101,10.679-0.057,21.359-0.096,32.039l-0.187-0.176
		l11.243-0.624l11.236-0.738c3.739-0.241,7.479-0.612,11.219-0.923l11.219-0.973l-0.244,0.502L95.071,53.524
		C91.485,48.31,87.893,43.1,84.249,37.926c-3.62-5.19-7.26-10.367-11.007-15.466c-1.874-2.549-3.771-5.08-5.734-7.559
		c-0.976-1.244-1.966-2.477-3.001-3.67c-0.519-0.596-1.048-1.183-1.604-1.741C62.35,8.97,61.799,8.374,61.092,8.107z M61.062,8.012
		c0.785,0.255,1.35,0.856,1.938,1.377c0.577,0.547,1.124,1.121,1.661,1.704c1.072,1.169,2.099,2.377,3.11,3.596
		c2.005,2.454,3.942,4.961,5.856,7.483c3.822,5.051,7.556,10.167,11.236,15.319c7.322,10.334,14.463,20.792,21.464,31.345
		l0.308,0.463l-0.551,0.039L94.854,70.15c-3.746,0.252-7.48,0.58-11.235,0.789l-11.243,0.625l-11.236,0.738l-0.186,0.012
		l-0.001-0.188c-0.063-10.68-0.245-21.359-0.17-32.039l0.074-16.02c0.005-5.34,0.082-10.68,0.16-16.02V7.998L61.062,8.012z"/>
</g>
<g>
	<path fill="#DDDDDD" d="M56.183,7.938c0,0-11.227,30.618-15.819,35.381c0,0-15.989,22.624-29.768,28.236l23.984,0.682l21.294-0.107
		L56.183,7.938z"/>
	<path d="M56.142,8.161c-1.055,2.983-2.141,5.956-3.25,8.921c-1.163,3.022-2.354,6.036-3.584,9.033
		c-1.232,2.997-2.501,5.98-3.864,8.925c-0.684,1.472-1.39,2.935-2.153,4.372c-0.787,1.427-1.535,2.875-2.686,4.14l0.032-0.039
		c-4.08,5.604-8.565,10.89-13.438,15.808c-2.439,2.454-4.989,4.805-7.716,6.939c-2.731,2.118-5.635,4.061-8.837,5.42L10.6,71.422
		l22.639,0.516c3.755,0.046,7.542-0.067,11.312-0.089l11.321-0.094l-0.373,0.373l0.064-16.048l0.133-16.048l0.193-16.047
		L56.142,8.161z M56.219,7.74l0.103,16.247l0.039,16.049l-0.021,16.048l-0.09,16.048l-0.002,0.372l-0.371,0.001l-11.322,0.021
		c-3.777-0.024-7.54,0.032-11.33-0.065l-22.632-0.771l-0.633-0.021l0.586-0.236c3.193-1.287,6.069-3.258,8.753-5.407
		c2.687-2.157,5.196-4.529,7.595-7.004c2.401-2.474,4.672-5.071,6.865-7.73c2.191-2.657,4.332-5.368,6.332-8.164l0.011-0.016
		l0.021-0.023c1.029-1.144,1.835-2.577,2.613-3.974c0.771-1.414,1.49-2.86,2.187-4.318c1.391-2.917,2.691-5.881,3.955-8.858
		c1.264-2.979,2.486-5.977,3.683-8.984c1.223-2.998,2.422-6.006,3.588-9.026L56.219,7.74z"/>
</g>
<g>
	<path fill="#683B11" d="M58.879,0.101c0,0,1.346,3.217,1.175,10.641c-0.169,7.422-0.937,66.352-0.937,66.352l-0.791-0.268
		C58.326,76.825,57.021,3.192,58.879,0.101z"/>
	<path d="M58.914,0.086c0.568,1.517,0.836,3.117,1.047,4.713c0.198,1.601,0.297,3.214,0.297,4.826l-0.091,9.641
		c-0.049,6.427-0.084,12.853-0.222,19.277l-0.43,19.274c-0.158,6.425-0.125,12.853-0.194,19.278l-0.003,0.277l-0.267-0.087
		l-0.793-0.262l-0.14-0.046l-0.003-0.149c-0.155-6.398-0.326-12.796-0.414-19.194c-0.101-6.399-0.183-12.799-0.188-19.198
		c-0.037-6.4,0.025-12.801,0.145-19.201c0.06-3.2,0.135-6.399,0.255-9.599c0.056-1.601,0.145-3.199,0.259-4.797
		c0.059-0.799,0.123-1.597,0.211-2.394c0.109-0.793,0.143-1.603,0.464-2.365L58.881,0L58.914,0.086z M58.875,0.242
		c-0.237,0.697-0.263,1.475-0.338,2.218c-0.061,0.797-0.1,1.595-0.131,2.394l-0.125,4.793c-0.062,3.197-0.08,6.396-0.083,9.595
		l0.089,19.191l0.249,38.389l-0.143-0.195l0.789,0.273l-0.27,0.19c0.099-6.426,0.302-12.85,0.315-19.276l0.095-19.279
		c0.039-6.426,0.185-12.851,0.33-19.276l0.224-9.635C59.875,6.48,59.797,3.27,58.875,0.242z"/>
</g>
<g>
	<path fill="#ED0A21" d="M0.057,73.013c0,0,50.35,8.613,103.822,0.092c0,0-11.323,16.586-14.222,17.385
		c-2.897,0.799-74.51,0.459-74.51,0.459l-2.796-0.369C12.352,90.579,0.275,76.51,0.057,73.013z"/>
	<path d="M0.064,72.963c4.295,0.628,8.614,1.074,12.933,1.494c4.317,0.425,8.644,0.766,12.973,1.039
		c8.655,0.605,17.329,0.847,26.002,0.94c8.672,0.053,17.352-0.075,26.016-0.605c4.329-0.29,8.655-0.651,12.968-1.132
		c4.311-0.501,8.612-1.081,12.892-1.794l0.464-0.077l-0.265,0.391c-2.272,3.354-4.603,6.664-7.046,9.9
		c-1.226,1.614-2.474,3.214-3.815,4.748c-0.677,0.764-1.362,1.52-2.16,2.204c-0.407,0.321-0.816,0.706-1.48,0.832
		c-0.544,0.079-1.039,0.105-1.552,0.139c-4.06,0.216-8.102,0.275-12.15,0.335l-12.141,0.126c-8.094,0.072-16.187,0.026-24.278,0.018
		c-8.093-0.028-16.185-0.15-24.276-0.241l-0.023-0.001l-0.02-0.002l-2.792-0.392l-0.12-0.018l-0.073-0.088
		c-2.309-2.766-4.56-5.571-6.706-8.464c-1.064-1.452-2.105-2.922-3.079-4.438c-0.486-0.759-0.955-1.529-1.38-2.326
		c-0.406-0.8-0.849-1.612-0.946-2.535L0,72.954L0.064,72.963z M0.121,73.072c0.132,0.851,0.575,1.633,0.991,2.391
		c0.445,0.776,0.935,1.528,1.441,2.268c1.015,1.479,2.096,2.912,3.2,4.326c2.202,2.833,4.485,5.609,6.831,8.322l-0.193-0.104
		l2.799,0.346l-0.041-0.003l24.274-0.106l24.273-0.033c8.086-0.019,16.189,0,24.253-0.226c0.497-0.024,1.014-0.048,1.472-0.107
		c0.349-0.041,0.755-0.346,1.126-0.646c0.75-0.622,1.441-1.356,2.116-2.096c1.346-1.49,2.614-3.063,3.859-4.651
		c2.48-3.186,4.868-6.453,7.188-9.762l0.198,0.313c-4.296,0.651-8.602,1.232-12.921,1.699c-4.316,0.491-8.642,0.906-12.974,1.227
		c-8.662,0.681-17.354,1.083-26.048,1.063c-8.694,0.021-17.385-0.409-26.052-1.049C17.278,75.539,8.655,74.58,0.121,73.072z"/>
</g>
<g>
	<path fill="#5FA0FF" d="M57.479,1.744c0.389-0.216-0.062,3.685-0.211,3.981c-0.147,0.295-2.739,1.629-4.961,1.48
		c-2.221-0.148-2.662-0.899-5.181-0.899c-2.518,0-5.302,1.993-4.815,0.358c1.187-3.987-2.133-7.455,0-5.605
		c2.223,1.93,5.838,0.048,8.652,0.27C53.777,1.552,54.146,3.595,57.479,1.744z"/>
	<path d="M57.474,1.72c0.175-0.001,0.143,0.194,0.171,0.282c0.012,0.113,0.018,0.226,0.02,0.339c0.005,0.226-0.003,0.45-0.013,0.675
		c-0.021,0.45-0.06,0.898-0.105,1.346c-0.045,0.45-0.074,0.89-0.176,1.351c-0.151,0.284-0.362,0.339-0.553,0.479
		c-0.196,0.117-0.398,0.224-0.603,0.324c-0.818,0.4-1.69,0.698-2.603,0.84c-0.917,0.165-1.862,0.062-2.75-0.149
		c-0.896-0.228-1.702-0.588-2.583-0.698c-0.878-0.137-1.773-0.138-2.64,0.076c-0.876,0.18-1.705,0.517-2.585,0.751
		c-0.223,0.038-0.457,0.123-0.726-0.011c-0.274-0.216-0.136-0.528-0.099-0.724c0.121-0.438,0.18-0.863,0.204-1.308
		c0.045-0.882-0.089-1.764-0.337-2.609c-0.126-0.424-0.277-0.839-0.446-1.251c-0.084-0.209-0.173-0.405-0.253-0.643
		c0.002-0.091-0.087-0.066,0.01-0.346c0.017-0.056,0.157-0.123,0.228-0.112c0.034,0.005,0.069,0.014,0.103,0.024
		c0.057,0.021,0.074,0.036,0.113,0.057c0.114,0.071,0.205,0.142,0.297,0.214c0.366,0.311,0.667,0.562,1.057,0.725
		c0.38,0.175,0.798,0.264,1.223,0.304c0.854,0.069,1.733-0.041,2.612-0.175c0.882-0.133,1.768-0.318,2.685-0.376
		c0.911-0.063,1.874,0.024,2.729,0.378c0.859,0.327,1.597,0.882,2.482,0.956c0.886,0.072,1.747-0.305,2.53-0.716l0.005-0.003H57.474
		z M57.485,1.769c-0.774,0.438-1.629,0.826-2.557,0.808c-0.942-0.019-1.751-0.547-2.583-0.787c-1.687-0.553-3.451-0.069-5.224,0.203
		c-0.89,0.146-1.809,0.273-2.746,0.167c-0.467-0.054-0.938-0.163-1.371-0.373c-0.442-0.193-0.832-0.535-1.142-0.81
		c-0.083-0.069-0.168-0.14-0.242-0.189l-0.035-0.021c0.007,0.003,0.015,0.003,0.021,0c0.048,0.021,0.148-0.05,0.158-0.077
		c0.055-0.172,0.017-0.033,0.042-0.018c0.056,0.19,0.142,0.408,0.217,0.618c0.156,0.425,0.296,0.86,0.409,1.303
		c0.223,0.884,0.327,1.807,0.242,2.719c-0.041,0.45-0.129,0.915-0.265,1.338c-0.061,0.203-0.114,0.451,0.015,0.527
		c0.14,0.082,0.386,0.038,0.592-0.006c0.859-0.206,1.703-0.548,2.584-0.755c0.881-0.226,1.807-0.255,2.71-0.182
		c0.917,0.065,1.8,0.372,2.646,0.564c0.859,0.186,1.734,0.253,2.596,0.145c0.865-0.118,1.725-0.354,2.549-0.679
		c0.205-0.083,0.408-0.172,0.604-0.272c0.178-0.095,0.429-0.221,0.49-0.335c0.115-0.411,0.177-0.869,0.244-1.308
		c0.056-0.444,0.103-0.891,0.133-1.337c0.015-0.224,0.026-0.447,0.027-0.67c0-0.112-0.003-0.224-0.013-0.334
		C57.576,1.917,57.562,1.744,57.485,1.769z"/>
</g>
</svg>
