<?xml version="1.0" encoding="utf-8"?>
<!-- Generator: Adobe Illustrator 16.0.0, SVG Export Plug-In . SVG Version: 6.00 Build 0)  -->
<!DOCTYPE svg PUBLIC "-//W3C//DTD SVG 1.1//EN" "http://www.w3.org/Graphics/SVG/1.1/DTD/svg11.dtd">
<svg version="1.1" id="Layer_1" xmlns="http://www.w3.org/2000/svg" xmlns:xlink="http://www.w3.org/1999/xlink" x="0px" y="0px"
	 width="181.525px" height="174.528px" viewBox="0 0 181.525 174.528" enable-background="new 0 0 181.525 174.528"
	 xml:space="preserve">
<path d="M28.289,51.586l0.01-0.013l0.053-0.084c0.694-1.111,1.523-2.332,2.346-3.544c3.021-4.459,5.95-8.781,5.286-13.457
	c-0.501-3.535-2.294-6.672-4.617-8.949c-1.566-1.533-3.359-2.662-5.14-3.24c-1.652-0.534-3.276-0.586-4.645-0.023
	c-1.038,0.426-1.971,1.234-2.702,2.486c-0.507,0.868-0.432,2.061-0.356,3.256c0.101,1.608,0.201,3.223-0.636,4.93
	c-0.466,0.944-1.181,1.577-2.047,1.877c-0.894,0.312-1.881,0.25-2.854-0.202c-0.79-0.361-1.583-0.994-2.291-1.893
	c-1.503-1.907-2.764-5.226-2.841-10.005C7.742,15.74,12.048,11.173,18.105,9.118c4.438-1.506,9.836-1.622,15.034-0.297
	c5.195,1.319,10.232,4.084,13.969,8.342c6.456,7.356,8.986,19.055,1.624,35.248c-0.834,1.833-1.317,3.69-1.435,5.485
	c-0.156,2.402,0.34,4.707,1.528,6.694c1.199,2.007,3.12,3.727,5.809,4.948c2.162,0.982,4.81,1.646,7.967,1.884l20.623-7.151
	c0.936-0.323,1.958,0.177,2.281,1.113c0.205,0.598,0.076,1.229-0.288,1.693l0.007,0.003L66.684,90.638
	c-0.372,0.474-0.936,0.71-1.495,0.686c-9.807,0.24-21.459-2.289-29.843-7.507c-3.31-2.061-6.135-4.552-8.173-7.473
	c-2.084-2.985-3.335-6.401-3.438-10.241c-0.116-4.347,1.247-9.194,4.557-14.516L28.289,51.586L28.289,51.586z"/>
<path fill-rule="evenodd" clip-rule="evenodd" fill="#F5659A" d="M29.826,52.531c3.79-6.093,8.887-11.608,7.94-18.288
	c-1.631-11.487-15.35-19.114-20.442-10.39c-1.511,2.584,0.245,5.667-1.05,8.303c-1.403,2.856-6.471,0.039-6.624-9.457
	C9.271-0.866,67.434,6.934,47.092,51.672c-4.453,9.791,0.103,20.553,15.736,21.57l20.979-7.273L65.269,89.526
	C44.201,90.092,14.306,77.466,29.826,52.531L29.826,52.531z"/>
<path d="M98.51,77.879c0.189-0.246,0.404-0.522,0.646-0.827c0.011-0.015,0.022-0.028,0.032-0.04
	c6.831-8.553,16.824-14.896,26.819-17.8c10.169-2.955,20.401-2.373,27.469,2.999c0.1,0.076,0.224,0.172,0.36,0.281
	c0.003,0.001,0.005,0.004,0.008,0.006c0.001,0,0.001,0.002,0.003,0.002c0.002,0.001,0.004,0.002,0.005,0.005
	c0.003,0.001,0.005,0.004,0.008,0.007c0.004,0.002,0.007,0.005,0.011,0.008c0.365,0.29,0.784,0.598,1.254,0.923
	c0.463,0.317,0.896,0.595,1.291,0.827c2.147,1.259,4.37,2.025,6.21,1.851c0.007,0,0.013-0.002,0.02-0.002
	c0.185-0.02,0.374-0.061,0.565-0.12c0.003-0.001,0.004-0.001,0.007-0.001c-0.002-0.001-0.002-0.003-0.002-0.004
	c0.213-0.067,0.432-0.159,0.651-0.272c1.279-0.661,2.56-2.001,3.445-3.788c0.005-0.011,0.012-0.022,0.017-0.033
	c0.883-1.783,2.595-5.237-0.38-8.62c-0.928-1.057-2.291-1.448-3.378-1.76c-1.142-0.326-2.087-0.596-2.745-1.421
	c-0.397-0.498-0.6-1.146-0.562-1.846c0.026-0.481,0.168-0.985,0.44-1.471c0.244-0.432,0.592-0.853,1.052-1.218
	c1.08-0.862,2.887-1.51,5.588-1.365c0.013,0,0.025,0.002,0.04,0.002c0.002,0,0.005,0,0.009,0c0,0,0,0,0-0.002
	c0.433,0.025,0.877,0.074,1.324,0.152c0.451,0.074,0.908,0.181,1.362,0.317c2.325,0.693,4.699,2.21,6.624,5.101
	c0-0.001,0-0.001,0-0.001c0.003,0.004,0.005,0.006,0.008,0.01c0.017,0.026,0.033,0.051,0.049,0.076
	c0.36,0.549,0.685,1.119,0.97,1.708c0.297,0.616,0.558,1.259,0.778,1.924c1.118,3.36,1.246,7.339,0.253,11.745
	c-1.055,4.672-2.547,7.819-4.17,10.109c-1.639,2.316-3.366,3.713-4.917,4.912l0.001,0.002c-0.005,0.004-0.009,0.006-0.014,0.01
	c-0.026,0.021-0.053,0.042-0.082,0.061c-0.889,0.677-1.893,1.239-2.98,1.689c-1.082,0.445-2.254,0.784-3.485,1.02
	c-6.113,1.176-13.856-0.203-19.354-3.385c-0.674-0.39-1.446-0.672-2.294-0.854c-4.097-0.879-9.816,0.521-15.275,3.39
	c-5.512,2.897-10.68,7.271-13.59,12.301c-0.974,1.685-1.688,3.43-2.068,5.199c-0.192,0.9-1.067,1.504-1.954,1.346
	c-0.279-0.049-0.525-0.168-0.727-0.334c-0.002,0.001-0.003,0.003-0.003,0.003c-0.003,0.001-0.003,0-0.004,0
	c-0.039-0.034-0.079-0.07-0.113-0.104c-0.678-0.572-1.414-1.263-2.161-2.036c-0.798-0.826-1.627-1.759-2.436-2.758
	c-4.404-5.446-8.301-13.085-4.628-17.916C98.507,77.883,98.509,77.882,98.51,77.879L98.51,77.879z"/>
<path fill-rule="evenodd" clip-rule="evenodd" fill="#F5659A" d="M99.797,78.859c13.12-17.262,39.615-25.706,52.997-15.047
	c3.103,2.473,6.855,4.251,9.921,3.958c2.131-0.202,4.591-2.173,6.065-5.146c1.048-2.116,3.131-6.257-0.58-10.478
	c-2.071-2.356-5.217-2.049-6.072-3.122c-0.755-0.946,0.296-3.429,5.063-3.171c2.673,0.145,5.78,1.329,8.146,4.891
	c2.39,3.597,3.107,8.479,1.82,14.18c-1.993,8.827-5.566,11.794-8.474,14.045c-5.554,4.301-16.844,3.412-24.059-0.762
	c-9.328-5.397-32.551,6.515-35.699,21.192C104.26,95.513,95.556,84.441,99.797,78.859L99.797,78.859z"/>
<path d="M60.067,48.927c0.739-6.444,1.73-12.706,4.576-19.037c2.948-6.568,7.856-13.108,16.472-19.813
	c8.144-6.339,15.583-8.97,22.275-9.781l0,0c6.654-0.805,12.489,0.196,17.55,1.126c0.224,0.042,0.445,0.083,0.665,0.129
	c-0.002,0-0.002,0-0.002,0c9.278,1.875,15.996,6.804,20.022,13.315c4.009,6.479,5.318,14.503,3.811,22.607
	c-0.03,0.166-0.074,0.383-0.126,0.638c-2.348,11.478-11.554,15.87-19.529,19.678c-3.418,1.63-6.592,3.146-8.647,5.021
	c-1.831,1.671-3.142,3.3-4.435,4.911c-2.421,3.012-4.798,5.964-10.152,9.174c0.538,0.134,1.07,0.276,1.594,0.422
	c2.077,0.586,4.031,1.275,5.862,2.053c9.482,4.023,15.673,10.371,18.946,16.501c0.524,0.98,0.757,1.405,0.986,1.828
	c2.184,4.017,4.36,8.022,8.295,18.301c1.155,3.022,3.805,5.191,6.909,6.483c2.389,0.994,5.022,1.469,7.466,1.422
	c2.358-0.046,4.512-0.573,6.043-1.583c1.096-0.723,1.854-1.713,2.078-2.966c0.171-0.956,0.262-1.765,0.278-2.449
	c0.017-0.654-0.028-1.225-0.124-1.727c-0.002,0-0.002,0-0.002,0c-0.001-0.006-0.002-0.011-0.003-0.017
	c-0.232-1.174-1.914-2.951-3.785-4.93c-3.328-3.518-7.16-7.568-6.771-12.41c0.002-0.01,0.002-0.019,0.003-0.028
	c0-0.002,0-0.005,0-0.006c0.042-0.499,0.138-1.049,0.297-1.627c0.151-0.561,0.361-1.153,0.638-1.757
	c1.379-3.025,4.431-6.442,10.073-7.837c2.482-0.611,4.466-0.735,6.025-0.563c1.722,0.188,2.985,0.741,3.874,1.413
	c1.021,0.773,1.575,1.735,1.784,2.574c0.104,0.413,0.128,0.814,0.089,1.174c0,0.003,0,0.005,0,0.008
	c-0.153,1.391-0.911,1.904-1.846,2.537c-0.561,0.379-1.282,0.87-1.495,2.174c0,0,0.001,0,0.003,0
	c-0.014,0.093-0.026,0.185-0.04,0.276c-0.002,0-0.003,0-0.003,0c-0.02,0.142-0.033,0.273-0.044,0.391
	c-0.011,0.108-0.02,0.241-0.025,0.393c-0.03,0.597,0,1.134,0.079,1.566c0,0.001,0,0.002,0,0.005
	c0.002,0.002,0.002,0.004,0.002,0.004l0.001,0.001c0.497,2.655,2.92,5.269,5.31,7.848c2.572,2.773,5.112,5.516,5.884,8.788
	c0.667,2.834,0.86,5.774,0.135,8.957c-0.714,3.132-2.314,6.447-5.232,10.049c-0.011,0.014-0.022,0.028-0.034,0.043
	c-0.003,0.001-0.004,0.004-0.007,0.006c-1.168,1.435-2.514,2.653-3.982,3.678c-1.462,1.021-3.043,1.853-4.695,2.52
	c-8.293,3.339-18.62,2.553-24.571,0.652c-0.001,0.002-0.001,0.004-0.001,0.006c-0.003-0.002-0.004-0.002-0.007-0.003
	c-0.002-0.003-0.005-0.005-0.008-0.008c-8.336-2.667-15.069-8.921-21.115-14.535c-7.796-7.238-14.324-13.3-20.887-7.401
	c-2.177,1.957-3.666,3.725-4.279,5.167c-0.247,0.578-0.324,1.044-0.209,1.372c0.101,0.292,0.414,0.568,0.966,0.82
	c1.27,0.578,3.386,0.868,6.479,0.794c2.712-0.067,5.246,0.121,7.597,0.527c7.412,1.286,13.195,4.743,17.174,9.396
	c3.983,4.661,6.137,10.516,6.286,16.588c0.047,1.849-0.091,3.699-0.41,5.524c-2.031,11.543-7.15,13.548-13.905,12.377
	c-2.679-0.467-5.562-1.482-8.613-2.56c-3.908-1.377-8.107-2.859-12.221-3.262c-1.509-0.146-3.183-0.275-4.855-0.228
	c-1.611,0.047-3.24,0.257-4.749,0.777c0,0.001,0,0.001,0.001,0.001c-1.159,0.399-1.816,2.418-2.351,4.06
	c-0.52,1.592-0.965,2.956-2.049,3.655c-0.512,0.33-1.112,0.457-1.74,0.375c-0.758-0.1-1.577-0.525-2.247-1.289
	c-0.535-0.611-1.015-1.474-1.3-2.585c-0.467-1.816-0.438-4.423,0.77-7.847c1.512-4.281,4.274-7.2,8.48-8.628
	c3.955-1.341,9.165-1.283,15.795,0.294c0.007,0.002,0.013,0.002,0.021,0.004c0.754,0.18,1.544,0.33,2.353,0.451
	c0.778,0.116,1.508,0.193,2.181,0.233c3.061,0.184,5.246-0.129,5.52-0.812c0.002,0,0.002,0,0.002,0
	c1.03-2.564-0.212-4.117-2.519-5.032c-6.177-2.452-18.585-1.273-23.433-0.813c-0.797,0.076-1.41,0.134-1.712,0.153
	c-8.52,0.556-12.543-4.864-14.373-11.958c-1.686-6.535-1.409-14.443-1.213-19.979l0,0c0.132-3.717-0.411-6.253-2.361-7.442
	c-0.003,0-0.005,0-0.007,0c-2.237-1.364-6.363-1.451-13.301-0.146c-5.041,0.948-9.394,1.043-13.321,1.128
	c-6.023,0.131-10.982,0.238-15.679,3.673c0,0,0-0.001-0.002-0.001c-0.001,0.001-0.001,0.002-0.002,0.004
	c-0.729,0.533-1.394,1.12-1.993,1.745c-0.6,0.623-1.138,1.29-1.613,1.981c-2.426,3.531-3.205,7.699-2.516,10.813
	c0.988,4.468,4.17,8.639,8.199,11.542c2.631,1.898,5.606,3.238,8.553,3.752c2.837,0.497,5.638,0.223,8.032-1.074
	c2.322-1.259,4.326-3.508,5.702-6.988c0.63-1.597,0.842-2.985,0.713-4.15c-0.104-0.94-0.439-1.734-0.954-2.372
	c-0.528-0.651-1.262-1.158-2.147-1.503c-1.247-0.485-2.783-0.653-4.486-0.469c-8.415,0.916-8.088,3.68-7.842,5.749
	c0.158,1.348,0.301,2.535-0.455,3.693c-1.489,2.281-3.044,2.995-4.872,2.074c-1.245-0.626-2.357-2.251-3.481-4.92
	c-0.32-0.757-0.59-1.517-0.812-2.273c-1.152-3.929-0.777-7.296,0.796-10.081c1.545-2.737,4.22-4.832,7.708-6.283
	c0.865-0.36,1.803-0.686,2.807-0.976c0-0.002,0-0.002,0-0.002c0.011-0.004,0.021-0.008,0.031-0.01c0.002,0,0.005,0,0.008,0
	c1.48-0.428,2.959-0.777,4.411-1.024c1.469-0.251,2.956-0.407,4.444-0.443c7.805-0.19,14.94,2.939,18.725,12.65
	c1.326,3.4,1.969,7.178,1.841,10.967c-0.156,4.664-1.476,9.361-4.119,13.422c-2.653,4.073-6.627,7.497-12.08,9.591
	c-4.014,1.543-8.825,2.359-14.491,2.173c-0.389-0.012-0.722-0.027-1.006-0.044c-9.024-0.521-18.324-4.048-25.263-10.71
	c-6.958-6.681-11.541-16.475-11.105-29.495c0.018-0.484,0.036-0.923,0.06-1.31c1.003-17.141,17.73-23.548,32.65-29.264
	c4.37-1.674,8.58-3.286,12.08-5.062c3.832-1.946,6.702-3.791,8.883-5.912c2.126-2.069,3.625-4.438,4.769-7.48
	c0.264-0.701,0.461-1.417,0.608-2.163c0.071-0.357,0.129-0.72,0.178-1.087c-0.175-0.093-0.347-0.189-0.518-0.293
	c-0.519-0.313-1.013-0.671-1.476-1.065c-2.351-2.005-3.861-4.965-3.913-8.288c0-0.005,0-0.009,0-0.014c0-0.044,0-0.088-0.001-0.133
	c0-0.004,0-0.01,0-0.013c-0.001-0.705,0.062-1.393,0.185-2.053c0.128-0.686,0.312-1.335,0.545-1.942
	C55.151,52.381,57.318,50.125,60.067,48.927L60.067,48.927z"/>
<path fill-rule="evenodd" clip-rule="evenodd" fill="#FA71A3" d="M61.364,49.818c1.454-13.089,3.709-25.325,20.296-38.325
	C97.239-0.72,109.999,1.38,119.782,3.189c18.043,3.336,25.959,18.841,22.764,34.57c-3.157,15.552-20.439,17.294-27.44,23.726
	c-6.042,5.552-6.401,10.341-18.517,16.192c15.963,2.455,25.591,10.954,29.88,19.037c2.516,4.741,4.674,8.212,9.124,19.918
	c4.15,10.926,24.197,12.036,25.799,3.033c0.363-2.04,0.381-3.597,0.145-4.831c-0.803-4.19-11.001-10.089-10.458-16.872
	c0.228-2.828,2.667-7.931,9.569-9.647c7.603-1.892,9.621,1.313,9.473,2.661c-0.159,1.436-2.764,1.188-3.308,4.655
	c-0.188,1.199-0.18,2.332-0.02,3.201c1.137,6.161,9.774,10.921,11.134,16.732c1.212,5.189,0.714,10.726-4.711,17.47
	c-7.482,9.301-23.3,8.83-31.117,6.312c-19.229-6.19-30.329-33.456-43.474-21.557c-7.151,6.474-7.674,11.569,4.184,11.277
	c20.737-0.511,31.235,14.946,28.617,29.929c-3.613,20.691-17.834,6.527-32.55,5.079c-3.104-0.306-6.915-0.534-10.304,0.642
	c-3.237,1.126-3.342,6.986-4.757,7.904c-1.1,0.715-4.336-2.041-1.809-9.246c2.621-7.475,9.518-10.17,21.995-7.18
	c6.057,1.452,11.3,0.773,12.088-1.201c4.996-12.502-25.376-8.409-29.252-8.156c-14.65,0.961-13.953-19.216-13.57-30.078
	c0.309-8.76-2.955-12.212-17.687-9.419c-12.913,2.447-21.313-0.938-29.532,5.117c-5.789,4.267-7.865,11.447-6.782,16.374
	c3.17,14.425,26.557,25.737,33.713,7.507c2.918-7.433-1.913-11.683-8.693-10.938c-13.789,1.513-8.059,7.938-9.558,10.253
	c-1.78,2.747-3.233,1.965-5.126-2.557c-3.748-8.947,0.738-14.716,9.271-17.201c9.913-2.888,20.493-2.186,25.246,10.096
	c5.375,13.888-1.347,34.561-26.919,33.709c-17.679-0.589-36.842-13.441-35.317-39.664C3.096,99.166,30.084,95,45.325,87.21
	c7.942-4.06,11.96-7.763,14.424-14.364c0.608-1.631,0.892-3.231,1.015-4.968c-3.45-1.332-5.925-4.655-5.986-8.582
	c-0.069-4.24,2.697-7.867,6.543-9.076C61.336,50.086,61.351,49.953,61.364,49.818L61.364,49.818z"/>
<g>
	<path fill-rule="evenodd" clip-rule="evenodd" fill="#FFFFFF" d="M83.156,53.196c4.507-0.071,8.219,3.525,8.29,8.031
		c0.072,4.507-3.524,8.22-8.032,8.291c-4.505,0.071-8.218-3.526-8.289-8.032C75.053,56.979,78.65,53.269,83.156,53.196
		L83.156,53.196z"/>
	<path d="M83.156,53.146c2.136-0.027,4.342,0.653,6.026,2.123c1.705,1.441,2.723,3.691,2.68,5.962
		c-0.029,2.241-1.053,4.396-2.599,5.918c-1.531,1.548-3.631,2.527-5.844,2.643c-2.208,0.146-4.502-0.672-6.14-2.235
		c-1.655-1.538-2.678-3.777-2.688-6.062c-0.03-2.275,0.924-4.558,2.596-6.046C78.835,53.933,81.016,53.176,83.156,53.146z
		 M83.156,53.246c-2.141,0.02-4.178,1.092-5.496,2.661c-1.319,1.574-2.061,3.566-2.002,5.571c0.037,1.997,0.845,3.976,2.276,5.402
		c1.423,1.429,3.403,2.308,5.477,2.364c2.067,0.067,4.187-0.783,5.62-2.321c1.446-1.54,2.116-3.66,1.999-5.7
		c-0.09-2.01-0.902-3.979-2.284-5.503C87.369,54.199,85.301,53.186,83.156,53.246z"/>
</g>
<path fill-rule="evenodd" clip-rule="evenodd" d="M81.544,58.373c1.335-0.021,2.436,1.044,2.458,2.381
	c0.021,1.336-1.046,2.436-2.381,2.456c-1.337,0.022-2.438-1.045-2.458-2.381C79.142,59.494,80.208,58.395,81.544,58.373
	L81.544,58.373z"/>
<g>
	<path fill-rule="evenodd" clip-rule="evenodd" fill="#FFFFFF" d="M64.735,51.995c4.01-0.063,7.312,3.137,7.376,7.146
		c0.064,4.01-3.136,7.313-7.146,7.377c-4.009,0.063-7.312-3.138-7.376-7.147C57.524,55.361,60.726,52.06,64.735,51.995
		L64.735,51.995z"/>
	<path d="M64.735,51.945c1.899-0.022,3.87,0.564,5.387,1.87c1.534,1.278,2.45,3.296,2.405,5.33
		c-0.034,2.005-0.965,3.925-2.345,5.277c-1.369,1.379-3.236,2.257-5.213,2.369c-1.972,0.141-4.03-0.584-5.5-1.982
		c-1.484-1.374-2.405-3.382-2.414-5.43c-0.025-2.039,0.835-4.087,2.343-5.405C60.882,52.628,62.831,51.972,64.735,51.945z
		 M64.735,52.045c-1.904,0.018-3.71,0.988-4.864,2.388c-1.155,1.404-1.803,3.161-1.749,4.931c0.034,1.761,0.741,3.507,2.003,4.771
		c1.254,1.264,2.999,2.049,4.836,2.11c1.832,0.069,3.719-0.68,4.988-2.048c1.282-1.371,1.859-3.256,1.746-5.06
		c-0.087-1.773-0.799-3.51-2.011-4.871C68.478,52.91,66.645,51.989,64.735,52.045z"/>
</g>
<path fill-rule="evenodd" clip-rule="evenodd" d="M63.301,56.602c1.188-0.02,2.167,0.929,2.187,2.118
	c0.019,1.188-0.931,2.167-2.118,2.186c-1.189,0.02-2.169-0.93-2.188-2.118S62.111,56.62,63.301,56.602L63.301,56.602z"/>
<path fill-rule="evenodd" clip-rule="evenodd" fill="#FF8CB6" d="M64.892,48.699c-0.428-11.004,2.442-19.796,10.606-28.409
	c13.674-14.426,37.183-22.489,55.479-7.501c-26.831-4.043-58.452,6.816-62.129,38.097L64.892,48.699L64.892,48.699z"/>
<path fill-rule="evenodd" clip-rule="evenodd" fill="#FF8CB6" d="M13.16,103.303c-8.102,5.146-11.578,12.825-8,28.739
	c1.175-10.197,3.548-16.649,7.345-20.098c19.721-17.906,41.73-8.007,50.325-38.701C47.56,96.971,33.211,90.567,13.16,103.303
	L13.16,103.303z"/>
<path fill-rule="evenodd" clip-rule="evenodd" fill="#FF8CB6" d="M48.136,25.464c-3.756-6.93-12.611-12.155-20.89-12.352
	c-9.38-0.222-17.846,5.701-14.175,17.198c-6.585-9.695,0.393-17.679,8.836-19.271C31.267,9.275,43.883,13.747,48.136,25.464
	L48.136,25.464z"/>
<path fill-rule="evenodd" clip-rule="evenodd" fill="#FF8CB6" d="M63.326,133.315c-1.321-3.874-3.495-8.679-7.147-10.625
	c-10.501-5.597-23.634-3.784-23.901,10.021c-4.074-7.231,0.433-13.164,6.72-15.384C57.31,110.857,64.983,128.665,63.326,133.315
	L63.326,133.315z"/>
<path fill-rule="evenodd" clip-rule="evenodd" fill="#FF8CB6" d="M151.457,127.638c15.098-0.906,18.469-7.518,16.49-13.358
	c-1.691-4.993-7.712-8.77-9.021-15.218c-0.728-3.589,1.185-6.834,7.601-9.819c-10.692-0.521-14.355,6.034-12.83,11.84
	c1.523,5.801,9.118,9.151,11.015,13.761C166.492,119.175,163.023,124.853,151.457,127.638L151.457,127.638z"/>
<path fill-rule="evenodd" clip-rule="evenodd" fill="#FF8CB6" d="M38.573,40.388c-5.125,9.343-11.093,15.69-11.654,26.57
	C31.507,58.059,36.833,49.914,38.573,40.388L38.573,40.388z"/>
<g>
	<path fill-rule="evenodd" clip-rule="evenodd" fill="#E63C7B" d="M39.668,101.896c2.131-0.441,4.029,0.026,4.241,1.047
		c0.212,1.02-1.344,2.205-3.476,2.647c-2.13,0.441-4.03-0.027-4.242-1.047S37.537,102.338,39.668,101.896L39.668,101.896z"/>
	<path fill-rule="evenodd" clip-rule="evenodd" fill="#E63C7B" d="M11.234,122.973c0.71-3.723,2.731-6.468,4.514-6.127
		c1.782,0.34,2.652,3.636,1.941,7.36c-0.71,3.722-2.731,6.467-4.514,6.126C11.394,129.992,10.524,126.697,11.234,122.973
		L11.234,122.973z"/>
	<path fill-rule="evenodd" clip-rule="evenodd" fill="#E63C7B" d="M16.736,143.841c-2.853-2.496-4.198-5.626-3.004-6.993
		c1.194-1.366,4.478-0.451,7.33,2.045c2.854,2.495,4.199,5.626,3.006,6.991C22.874,147.251,19.591,146.336,16.736,143.841
		L16.736,143.841z"/>
	<path fill-rule="evenodd" clip-rule="evenodd" fill="#E63C7B" d="M33.141,151.217c-2.162-0.286-3.804-1.357-3.666-2.394
		c0.137-1.034,2.001-1.642,4.163-1.355c2.161,0.288,3.804,1.359,3.667,2.396C37.168,150.896,35.302,151.505,33.141,151.217
		L33.141,151.217z"/>
	<path fill-rule="evenodd" clip-rule="evenodd" fill="#E63C7B" d="M50.414,150.259c-3.071,1.53-6.155,1.581-6.889,0.111
		c-0.731-1.472,1.163-3.905,4.234-5.435c3.071-1.53,6.155-1.58,6.888-0.11C55.381,146.296,53.484,148.729,50.414,150.259
		L50.414,150.259z"/>
	<path fill-rule="evenodd" clip-rule="evenodd" fill="#E63C7B" d="M58.592,136.272c-0.688,2.069-2.048,3.482-3.038,3.154
		c-0.991-0.328-1.238-2.272-0.553-4.343c0.687-2.071,2.048-3.483,3.038-3.154C59.03,132.258,59.277,134.203,58.592,136.272
		L58.592,136.272z"/>
	<path fill-rule="evenodd" clip-rule="evenodd" fill="#E63C7B" d="M23.553,108.478c1.755-1.287,3.677-1.649,4.294-0.811
		c0.617,0.841-0.306,2.565-2.061,3.853c-1.754,1.288-3.677,1.652-4.292,0.812C20.877,111.492,21.8,109.767,23.553,108.478
		L23.553,108.478z"/>
	<path fill-rule="evenodd" clip-rule="evenodd" fill="#E63C7B" d="M54.09,99.555c3.329-0.473,6.211,0.437,6.437,2.029
		c0.227,1.594-2.289,3.269-5.618,3.741c-3.328,0.473-6.211-0.438-6.437-2.03C48.245,101.701,50.762,100.026,54.09,99.555
		L54.09,99.555z"/>
	<path fill-rule="evenodd" clip-rule="evenodd" fill="#E63C7B" d="M90.916,112.894c2.322-2.168,5.048-3.025,6.085-1.914
		c1.037,1.112-0.003,3.771-2.325,5.938c-2.324,2.169-5.048,3.025-6.086,1.914C87.552,117.72,88.594,115.061,90.916,112.894
		L90.916,112.894z"/>
	<path fill-rule="evenodd" clip-rule="evenodd" fill="#E63C7B" d="M86.635,127.986c-0.88-3.054-0.407-5.87,1.054-6.291
		c1.462-0.421,3.359,1.712,4.24,4.765c0.879,3.054,0.406,5.87-1.056,6.291C89.412,133.173,87.515,131.038,86.635,127.986
		L86.635,127.986z"/>
	<path fill-rule="evenodd" clip-rule="evenodd" fill="#E63C7B" d="M101.538,134.118c-2.411,0.133-4.419-0.696-4.482-1.849
		c-0.064-1.155,1.84-2.2,4.253-2.333c2.411-0.132,4.419,0.696,4.482,1.851C105.855,132.942,103.95,133.985,101.538,134.118
		L101.538,134.118z"/>
	<path fill-rule="evenodd" clip-rule="evenodd" fill="#E63C7B" d="M104.764,112.402c-2.413,0.133-4.421-0.695-4.484-1.85
		c-0.062-1.155,1.841-2.198,4.253-2.333c2.411-0.132,4.42,0.697,4.483,1.852C109.079,111.227,107.175,112.27,104.764,112.402
		L104.764,112.402z"/>
	<path fill-rule="evenodd" clip-rule="evenodd" fill="#E63C7B" d="M109.74,162.263c-2.384-0.393-4.164-1.636-3.977-2.776
		c0.188-1.142,2.273-1.748,4.658-1.356c2.383,0.395,4.163,1.638,3.975,2.778C114.209,162.05,112.124,162.655,109.74,162.263
		L109.74,162.263z"/>
	<path fill-rule="evenodd" clip-rule="evenodd" fill="#E63C7B" d="M98.381,160.335c-2.384-0.393-4.164-1.636-3.977-2.778
		c0.188-1.141,2.274-1.746,4.658-1.354c2.383,0.394,4.163,1.637,3.976,2.776C102.85,160.121,100.765,160.728,98.381,160.335
		L98.381,160.335z"/>
	<path fill-rule="evenodd" clip-rule="evenodd" fill="#E63C7B" d="M89.345,161.181c-2.086,1.219-4.251,1.397-4.834,0.399
		c-0.584-0.998,0.635-2.797,2.721-4.016c2.085-1.217,4.25-1.396,4.834-0.397C92.648,158.165,91.43,159.964,89.345,161.181
		L89.345,161.181z"/>
	<path fill-rule="evenodd" clip-rule="evenodd" fill="#E63C7B" d="M20.164,20.148c-1.13,0.988-2.431,1.35-2.903,0.811
		c-0.474-0.543,0.06-1.782,1.191-2.771c1.13-0.989,2.431-1.351,2.903-0.809S21.295,19.162,20.164,20.148L20.164,20.148z"/>
	<path fill-rule="evenodd" clip-rule="evenodd" fill="#E63C7B" d="M126.778,107.465c-1.227-2.081-1.412-4.245-0.417-4.831
		c0.998-0.589,2.799,0.623,4.026,2.706c1.224,2.081,1.411,4.244,0.414,4.832C129.806,110.759,128.003,109.546,126.778,107.465
		L126.778,107.465z"/>
	<path fill-rule="evenodd" clip-rule="evenodd" fill="#E63C7B" d="M129.525,118.895c-1.693-2.688-2.021-5.526-0.734-6.334
		c1.287-0.812,3.702,0.711,5.395,3.4c1.692,2.688,2.021,5.525,0.734,6.336S131.217,121.583,129.525,118.895L129.525,118.895z"/>
	<path fill-rule="evenodd" clip-rule="evenodd" fill="#E63C7B" d="M138.67,126.482c-1.347-0.573-2.216-1.562-1.942-2.207
		c0.275-0.644,1.59-0.702,2.938-0.129c1.347,0.574,2.215,1.562,1.941,2.206C141.331,126.998,140.018,127.055,138.67,126.482
		L138.67,126.482z"/>
	<path fill-rule="evenodd" clip-rule="evenodd" fill="#E63C7B" d="M125.768,43.311c3.618-2.873,7.667-3.801,9.042-2.07
		c1.376,1.732-0.441,5.467-4.059,8.341c-3.618,2.875-7.668,3.801-9.044,2.068C120.334,49.919,122.15,46.184,125.768,43.311
		L125.768,43.311z"/>
	<path fill-rule="evenodd" clip-rule="evenodd" fill="#E63C7B" d="M113.579,53.483c1.974-1.568,4.183-2.074,4.933-1.13
		c0.752,0.945-0.24,2.984-2.214,4.551c-1.974,1.569-4.183,2.074-4.934,1.129C110.614,57.089,111.605,55.051,113.579,53.483
		L113.579,53.483z"/>
	<path fill-rule="evenodd" clip-rule="evenodd" fill="#E63C7B" d="M139.151,20.546c1.147,2.246,1.207,4.511,0.134,5.061
		c-1.075,0.55-2.878-0.824-4.025-3.07c-1.147-2.243-1.208-4.508-0.133-5.058C136.2,16.929,138.003,18.302,139.151,20.546
		L139.151,20.546z"/>
	<path fill-rule="evenodd" clip-rule="evenodd" fill="#E63C7B" d="M171.932,65.629c0.328-1.902,1.333-3.316,2.243-3.16
		c0.91,0.157,1.383,1.828,1.055,3.731c-0.329,1.901-1.333,3.317-2.244,3.16C172.075,69.202,171.603,67.532,171.932,65.629
		L171.932,65.629z"/>
	<path fill-rule="evenodd" clip-rule="evenodd" fill="#E63C7B" d="M42.298,79.278c1.808,1.214,2.802,2.898,2.22,3.764
		c-0.58,0.865-2.516,0.582-4.322-0.632c-1.807-1.212-2.801-2.897-2.22-3.763C38.556,77.782,40.492,78.065,42.298,79.278
		L42.298,79.278z"/>
	<path fill-rule="evenodd" clip-rule="evenodd" fill="#E63C7B" d="M36.045,70.241c0.936,2.389,0.767,4.687-0.377,5.135
		c-1.143,0.446-2.826-1.126-3.762-3.513c-0.935-2.388-0.766-4.687,0.378-5.135C33.427,66.282,35.11,67.854,36.045,70.241
		L36.045,70.241z"/>
	<path fill-rule="evenodd" clip-rule="evenodd" fill="#E63C7B" d="M41.854,27.806c0.345,2.546-0.363,4.746-1.581,4.914
		c-1.22,0.162-2.487-1.767-2.834-4.314c-0.345-2.546,0.364-4.746,1.583-4.911C40.24,23.332,41.509,25.26,41.854,27.806
		L41.854,27.806z"/>
	<path fill-rule="evenodd" clip-rule="evenodd" fill="#E63C7B" d="M34.72,19.489c1.083,0.86,1.628,1.976,1.218,2.494
		c-0.412,0.52-1.623,0.243-2.706-0.616c-1.083-0.86-1.628-1.976-1.216-2.495C32.426,18.354,33.638,18.63,34.72,19.489L34.72,19.489z
		"/>
	<path fill-rule="evenodd" clip-rule="evenodd" fill="#E63C7B" d="M26.592,16.461c1.772,0.369,3.066,1.358,2.89,2.208
		c-0.179,0.847-1.759,1.233-3.532,0.864c-1.771-0.371-3.065-1.36-2.888-2.207C23.239,16.477,24.82,16.089,26.592,16.461
		L26.592,16.461z"/>
	<path fill-rule="evenodd" clip-rule="evenodd" fill="#E63C7B" d="M165.633,72.962c1.989-1.58,4.214-2.089,4.971-1.138
		c0.755,0.952-0.243,3.005-2.231,4.585c-1.988,1.578-4.214,2.089-4.97,1.136C162.646,76.595,163.646,74.541,165.633,72.962
		L165.633,72.962z"/>
	<path fill-rule="evenodd" clip-rule="evenodd" fill="#E63C7B" d="M155.388,73.323c3.642,0.67,6.335,2.626,6.015,4.369
		c-0.32,1.744-3.533,2.615-7.176,1.945c-3.642-0.669-6.336-2.626-6.015-4.37C148.532,73.526,151.746,72.653,155.388,73.323
		L155.388,73.323z"/>
	<path fill-rule="evenodd" clip-rule="evenodd" fill="#E63C7B" d="M141.485,73.09c1.917-0.236,3.562,0.316,3.675,1.232
		c0.112,0.918-1.349,1.853-3.266,2.089c-1.916,0.236-3.561-0.314-3.675-1.232C138.107,74.262,139.569,73.326,141.485,73.09
		L141.485,73.09z"/>
	<path fill-rule="evenodd" clip-rule="evenodd" fill="#E63C7B" d="M161.213,97.261c0.187-2.531,1.321-4.512,2.534-4.423
		c1.212,0.089,2.043,2.215,1.856,4.748c-0.188,2.531-1.322,4.514-2.534,4.423C161.856,101.919,161.025,99.794,161.213,97.261
		L161.213,97.261z"/>
	<path fill-rule="evenodd" clip-rule="evenodd" fill="#E63C7B" d="M166.235,107.257c-1.327-1.415-1.854-3.078-1.179-3.713
		c0.678-0.637,2.305-0.005,3.633,1.411c1.327,1.415,1.855,3.077,1.178,3.713C169.19,109.303,167.564,108.672,166.235,107.257
		L166.235,107.257z"/>
	<path fill-rule="evenodd" clip-rule="evenodd" fill="#E63C7B" d="M171.487,113.895c-0.686-1.814-0.537-3.554,0.332-3.882
		c0.868-0.327,2.13,0.878,2.815,2.693s0.537,3.554-0.332,3.882C173.435,116.916,172.173,115.71,171.487,113.895L171.487,113.895z"/>
</g>
<path fill-rule="evenodd" clip-rule="evenodd" fill="#FF8CB6" d="M114.184,67.709l-3.356,5.18
	c17.138-8.202,26.189-12.847,44.215-5.804C139.991,56.11,130.396,60.388,114.184,67.709L114.184,67.709z"/>
<path fill-rule="evenodd" clip-rule="evenodd" fill="#FF8CB6" d="M111.829,113.129c18.467,13.831,27.9,25.896,49.891,25.424
	C140.668,143.372,129.333,131.728,111.829,113.129L111.829,113.129z"/>
</svg>
