<?xml version="1.0" encoding="utf-8"?>
<!-- Generator: Adobe Illustrator 16.0.0, SVG Export Plug-In . SVG Version: 6.00 Build 0)  -->
<!DOCTYPE svg PUBLIC "-//W3C//DTD SVG 1.1//EN" "http://www.w3.org/Graphics/SVG/1.1/DTD/svg11.dtd">
<svg version="1.1" id="Layer_1" xmlns="http://www.w3.org/2000/svg" xmlns:xlink="http://www.w3.org/1999/xlink" x="0px" y="0px"
	 width="196.768px" height="182.367px" viewBox="0 0 196.768 182.367" enable-background="new 0 0 196.768 182.367"
	 xml:space="preserve">
<g>
	<path fill-rule="evenodd" clip-rule="evenodd" fill="#93C01F" d="M126.578,89.193c0,0,16.788-23.669,7.43-54.498
		C124.649,3.869,92.997-1.085,72.353,2.768C51.71,6.62,46.479,20.658,46.479,20.658S10.698,26.714,2.715,59.743
		c-7.982,33.03,22.188,48.164,22.188,48.164s-0.263-7.58,2.477-10.181c2.558-2.428,3.853-1.651,3.853-1.651
		s6.053,6.191,15.545,5.642c9.493-0.552,14.308-3.439,14.308-3.439s4.952,3.989,12.107,6.467c7.152,2.477,10.867,2.613,10.867,2.613
		s-1.927,11.694,4.54,21.46c6.465,9.77,20.36,14.445,20.36,14.445s-22.571,10.076-39.089,16.133
		c-16.518,6.055-24.777-1.652-26.98,1.65c-2.2,3.305-41.845,14.867-11.562,18.169c30.284,3.306,21.473-0.549,46.251-4.955
		c24.775-4.404,50.1-15.152,50.1-15.152s1.378,4.129,3.853,1.376c2.478-2.753,3.304-3.577,3.304-3.577l11.938-2.579
		c0,0,10.889,20.992,14.878,22.778c3.989,1.788,3.576-4.126,3.576-4.126s6.055,6.467,8.806,6.603
		c2.753,0.137,2.889-5.916,2.889-5.916s8.528,6.604,10.869,5.367c2.337-1.238,0.274-10.318,0.274-10.318s6.467,3.99,7.017,0.275
		c0.55-3.716-3.716-11.007-3.716-11.007s3.989,4.127,3.027,0c-0.963-4.127-24.211-27.79-24.211-27.79S159.881,97.727,126.578,89.193
		L126.578,89.193z"/>
	<path d="M126.415,89.078c1.843-2.89,3.326-6.02,4.609-9.199c1.281-3.186,2.335-6.459,3.13-9.791
		c1.597-6.661,2.179-13.551,1.643-20.341c-0.261-3.396-0.768-6.769-1.557-10.076c-0.79-3.301-1.788-6.563-3.149-9.65
		c-2.686-6.186-6.783-11.717-12-15.912c-5.202-4.222-11.415-7.093-17.903-8.814c-6.506-1.71-13.316-2.283-20.046-1.889
		c-6.729,0.43-13.452,1.646-19.358,4.607c-2.95,1.466-5.688,3.334-8.045,5.59c-1.179,1.127-2.261,2.349-3.219,3.651
		c-0.479,0.65-0.925,1.322-1.331,2.01c-0.394,0.663-0.798,1.445-1.027,2.021l-0.377,0.946l-1.005,0.196
		c-2.245,0.439-4.643,1.107-6.915,1.87c-2.292,0.77-4.544,1.665-6.739,2.679c-4.393,2.022-8.543,4.548-12.315,7.531
		C13.248,40.455,7.53,48.641,4.771,57.889c-1.392,4.623-2.154,9.433-2.019,14.238c0.121,4.801,1.178,9.568,3.109,13.982
		c1.926,4.42,4.705,8.471,8.031,12.016c3.323,3.523,7.205,6.67,11.394,9.015l-1.243,0.797c-0.013-1.327,0.063-2.596,0.218-3.891
		c0.162-1.288,0.396-2.578,0.822-3.852c0.217-0.636,0.485-1.268,0.854-1.873c0.347-0.604,0.918-1.188,1.411-1.587
		c0.52-0.433,1.082-0.838,1.747-1.145c0.335-0.149,0.695-0.275,1.098-0.336c0.201-0.03,0.413-0.042,0.637-0.026
		c0.246,0.034,0.407,0.029,0.777,0.219l0.056,0.028l0.093,0.088c1.79,1.711,4.065,3.116,6.427,4.075
		c2.377,0.973,4.94,1.478,7.508,1.465c2.588-0.053,5.209-0.364,7.763-0.884c2.531-0.534,5.111-1.291,7.318-2.463l0.375-0.199
		l0.319,0.247c1.59,1.234,3.354,2.349,5.151,3.331c1.803,0.985,3.671,1.854,5.589,2.58c1.917,0.712,3.905,1.333,5.89,1.86
		c1.976,0.51,4.04,0.968,5.987,1.112l0.729,0.054l-0.092,0.726c-0.478,3.81-0.251,7.815,0.588,11.6
		c0.851,3.792,2.41,7.438,4.748,10.509c2.363,3.061,5.424,5.562,8.709,7.661c3.291,2.081,6.872,3.834,10.502,5.113l2.273,0.801
		l-2.188,0.992c-7.966,3.612-15.967,7.121-24.027,10.521c-4.032,1.694-8.081,3.354-12.165,4.946
		c-2.028,0.781-4.103,1.62-6.289,2.234c-2.171,0.625-4.407,1.07-6.675,1.297c-2.268,0.229-4.567,0.215-6.833-0.013
		c-2.26-0.213-4.509-0.698-6.587-1.108c-0.515-0.097-1.017-0.181-1.466-0.221c-0.441-0.044-0.836-0.014-0.968,0.041
		c-0.065,0.026-0.062,0.035-0.079,0.049c-0.005,0.002-0.008,0.015-0.016,0.018l-0.01,0.018l-0.061,0.083l-0.079,0.105
		c-0.056,0.07-0.127,0.153-0.179,0.208c-0.087,0.091-0.173,0.173-0.25,0.241c-0.62,0.529-1.119,0.803-1.64,1.107
		c-2.04,1.128-4.026,1.995-6.018,2.919c-3.946,1.824-7.957,3.589-11.436,5.812c-0.848,0.556-1.668,1.16-2.248,1.771
		c-0.288,0.295-0.499,0.61-0.545,0.756c-0.026,0.072-0.016,0.079-0.014,0.035c-0.001-0.041-0.021-0.091-0.008-0.068
		c0.015,0.044,0.255,0.274,0.592,0.458c0.334,0.192,0.758,0.372,1.201,0.53c0.896,0.319,1.895,0.562,2.908,0.766
		c2.045,0.408,4.143,0.647,6.312,0.864c2.161,0.221,4.323,0.427,6.48,0.602c4.304,0.329,8.64,0.623,12.758,0.282
		c2.061-0.174,4.013-0.58,6.032-1.191c2.019-0.607,4.125-1.329,6.259-1.948c4.271-1.259,8.627-2.211,12.952-2.997
		c8.494-1.556,16.866-3.782,25.141-6.356c8.264-2.565,16.49-5.48,24.445-8.762l2.102-0.867l0.761,2.158
		c0.055,0.153,0.214,0.498,0.333,0.675c0.121,0.2,0.264,0.319,0.219,0.28c-0.016-0.054-0.459-0.144-0.583-0.066
		c-0.125,0.052,0.018-0.001,0.172-0.169l1.663-1.829c0.594-0.645,1.143-1.246,1.812-1.932l0.434-0.443l0.628-0.134l11.944-2.545
		l1.571-0.335l0.745,1.424c2.618,5.011,5.38,10.02,8.359,14.786c0.748,1.188,1.515,2.36,2.31,3.484
		c0.792,1.11,1.633,2.226,2.468,3.062c0.203,0.2,0.409,0.379,0.56,0.486c0.077,0.059,0.127,0.079,0.134,0.088
		c-0.02-0.009,0.175,0.077,0.169,0.071l0.108,0.038c0.166,0.056,0.275,0.058,0.256,0.057c-0.013-0.005-0.15,0.048-0.169,0.081
		c-0.033,0.073,0.204-0.293,0.284-0.784c0.098-0.47,0.141-1.138,0.12-1.608l-0.232-5.408l3.669,3.91
		c0.98,1.045,2.061,2.106,3.14,3.076c1.08,0.964,2.223,1.902,3.311,2.54c0.534,0.312,1.052,0.493,1.071,0.427
		c-0.187,0.014-0.154,0.034-0.19,0.042c-0.021,0.015-0.016,0.013,0.011-0.008c0.054-0.048,0.171-0.199,0.276-0.411
		c0.446-0.879,0.702-2.405,0.763-3.662l0.176-3.609l2.825,2.18c1.45,1.118,3.013,2.221,4.569,3.189
		c0.782,0.482,1.574,0.938,2.356,1.316c0.75,0.372,1.63,0.688,2.041,0.705c0.091,0.009,0.103-0.016,0,0.025l-0.046,0.02
		l-0.102,0.059l0.039-0.023c0.014-0.009,0.078-0.045,0.051-0.031c-0.03,0.017-0.06,0.036-0.087,0.059
		c-0.058,0.044-0.058,0.06-0.062,0.062c0.01,0.014,0.144-0.268,0.202-0.598c0.138-0.686,0.155-1.575,0.116-2.454
		c-0.084-1.771-0.369-3.662-0.733-5.431l-0.791-3.837l3.344,2.012c1.224,0.737,2.775,1.467,3.92,1.621
		c0.271,0.037,0.501,0.019,0.558-0.003c0.063-0.035-0.062,0.062-0.036,0.053c0.007-0.01,0.028-0.058,0.046-0.142l0.006-0.031
		c-0.001,0.009,0.007-0.044-0.001,0.017l0.005-0.039l0.019-0.145l0.013-0.176c0.014-0.289-0.007-0.62-0.051-0.963
		c-0.191-1.392-0.716-2.911-1.318-4.373c-0.608-1.463-1.336-2.948-2.101-4.313l-5.887-10.515l8.358,8.64
		c0.503,0.52,1.205,1.131,1.636,1.358c0.078,0.06,0.184,0.034-0.116,0.022c-0.152-0.009-0.513,0.094-0.731,0.323
		c-0.217,0.228-0.245,0.38-0.263,0.436c-0.018,0.108,0.006-0.014-0.011-0.139c-0.012-0.133-0.039-0.302-0.076-0.477l-0.014-0.066
		l-0.004-0.017l-0.002-0.008c0.041,0.154,0.01,0.037,0.019,0.069l-0.012-0.04l-0.046-0.159c-0.025-0.036-0.005-0.013-0.048-0.103
		c-0.062-0.137-0.144-0.297-0.236-0.461c-0.185-0.328-0.405-0.673-0.639-1.017c-0.466-0.688-0.979-1.378-1.502-2.063
		c-2.113-2.74-4.418-5.406-6.736-8.044c-4.658-5.269-9.465-10.438-14.326-15.533l-0.184-0.192l-0.086-0.255
		c-1.601-4.739-3.966-9.392-6.678-13.707c-2.746-4.32-5.91-8.392-9.544-12.017c-3.625-3.63-7.703-6.82-12.145-9.42
		c-4.442-2.595-9.229-4.629-14.216-6.003l-0.265-0.072L126.415,89.078z M126.889,89.07c4.973,1.197,9.818,3.012,14.328,5.482
		c4.595,2.501,8.856,5.625,12.677,9.221c3.817,3.599,7.225,7.641,10.127,12.021c2.896,4.402,5.394,9.003,7.23,14.059l-0.27-0.447
		c5.004,5.012,9.932,10.076,14.748,15.281c2.402,2.612,4.781,5.238,7.046,8.04c0.564,0.705,1.121,1.419,1.654,2.188
		c0.268,0.383,0.53,0.777,0.785,1.215c0.128,0.219,0.253,0.448,0.375,0.713c0.056,0.107,0.145,0.343,0.204,0.51l0.048,0.158
		l0.044,0.164l0.021,0.096c0.057,0.256,0.108,0.523,0.141,0.829c0.024,0.312,0.064,0.639-0.056,1.179
		c-0.071,0.267-0.184,0.634-0.562,1.016c-0.374,0.389-0.96,0.564-1.331,0.562c-0.745-0.01-1.061-0.211-1.375-0.347
		c-1.124-0.618-1.734-1.224-2.483-1.94l2.472-1.875c0.886,1.533,1.647,3.039,2.345,4.646c0.681,1.608,1.309,3.253,1.609,5.168
		c0.069,0.482,0.113,0.987,0.098,1.532c-0.004,0.129-0.013,0.28-0.029,0.447l-0.02,0.166l-0.039,0.255
		c-0.062,0.325-0.163,0.68-0.348,1.042c-0.343,0.743-1.174,1.402-1.911,1.6c-0.743,0.228-1.367,0.202-1.921,0.148
		c-1.103-0.133-1.996-0.452-2.858-0.8c-0.865-0.363-1.634-0.745-2.469-1.236l2.553-1.825c0.438,1.998,0.76,3.926,0.894,6.004
		c0.053,1.042,0.078,2.095-0.137,3.307c-0.13,0.608-0.271,1.281-0.842,2.071c-0.146,0.197-0.319,0.384-0.562,0.582
		c-0.075,0.058-0.153,0.113-0.232,0.166l-0.102,0.064l-0.039,0.023l-0.131,0.07l-0.052,0.025l-0.212,0.094
		c-0.554,0.208-1.032,0.232-1.422,0.22c-0.782-0.038-1.364-0.21-1.917-0.389c-0.547-0.185-1.045-0.396-1.526-0.619
		c-0.959-0.448-1.845-0.945-2.71-1.462c-1.729-1.045-3.335-2.145-4.953-3.357l3.001-1.43c-0.03,0.922-0.115,1.708-0.269,2.58
		c-0.161,0.857-0.369,1.73-0.821,2.677c-0.233,0.471-0.532,0.974-1.024,1.462c-0.25,0.243-0.549,0.479-0.911,0.664
		c-0.373,0.189-0.714,0.317-1.278,0.381c-0.162,0.018-0.199,0.016-0.241,0.018l-0.144,0.003l-0.183-0.003l-0.067-0.006l-0.135-0.014
		l-0.268-0.033c-0.321-0.06-0.612-0.14-0.868-0.23c-0.511-0.184-0.936-0.397-1.339-0.617c-1.562-0.896-2.791-1.913-4.007-2.959
		c-1.208-1.058-2.325-2.123-3.453-3.291l3.437-1.498c0.048,0.958,0.01,1.729-0.162,2.664c-0.205,0.893-0.444,1.966-1.552,3.017
		c-0.554,0.508-1.38,0.86-2.106,0.914c-0.734,0.067-1.345-0.062-1.858-0.221c-0.124-0.039-0.256-0.085-0.397-0.141l-0.325-0.136
		c-0.314-0.147-0.576-0.307-0.789-0.458c-0.434-0.306-0.763-0.605-1.072-0.903c-1.191-1.188-2.07-2.377-2.951-3.584
		c-0.865-1.207-1.673-2.426-2.458-3.654c-3.119-4.921-5.92-9.927-8.637-15.041l2.315,1.089L135.286,159l1.061-0.577
		c-0.52,0.532-1.123,1.185-1.682,1.793l-1.777,1.945c-0.442,0.432-0.987,0.926-1.929,1.239c-0.462,0.151-1.042,0.216-1.595,0.129
		c-0.556-0.083-1.05-0.304-1.428-0.55c-0.761-0.507-1.169-1.064-1.506-1.577c-0.335-0.544-0.547-0.97-0.78-1.618l2.862,1.291
		c-8.192,3.37-16.447,6.281-24.862,8.888c-8.413,2.56-16.969,4.757-25.669,6.284c-4.27,0.741-8.461,1.627-12.578,2.805
		c-2.063,0.581-4.094,1.262-6.261,1.896c-2.162,0.642-4.51,1.115-6.805,1.285c-4.599,0.337-9.009-0.021-13.398-0.384
		c-2.193-0.194-4.376-0.42-6.556-0.66c-2.172-0.234-4.417-0.503-6.651-0.968c-1.123-0.236-2.251-0.512-3.411-0.933
		c-0.58-0.215-1.168-0.459-1.778-0.814c-0.599-0.364-1.271-0.798-1.839-1.688c-0.274-0.439-0.485-1.02-0.513-1.607
		c-0.036-0.589,0.093-1.129,0.267-1.562c0.361-0.873,0.85-1.426,1.315-1.914c0.948-0.954,1.923-1.619,2.903-2.251
		c3.927-2.426,7.978-4.111,11.97-5.899c1.981-0.884,4.01-1.75,5.803-2.713c0.428-0.232,0.88-0.51,1.091-0.691l0.046-0.04
		c-0.005,0.005-0.032,0.035-0.043,0.055c-0.012,0.021,0.032-0.041,0.045-0.058l0.173-0.229c0.086-0.096,0.166-0.193,0.262-0.282
		c0.375-0.367,0.86-0.643,1.312-0.787c0.915-0.28,1.638-0.221,2.277-0.168c0.638,0.067,1.211,0.177,1.768,0.288
		c2.196,0.465,4.219,0.929,6.307,1.155c2.075,0.24,4.162,0.271,6.243,0.104c2.08-0.165,4.151-0.532,6.188-1.072
		c2.032-0.524,4.03-1.282,6.089-2.028c4.084-1.495,8.148-3.065,12.2-4.67c8.103-3.213,16.16-6.572,24.16-10.033l0.085,1.793
		c-3.848-1.435-7.424-3.276-10.82-5.502c-3.365-2.237-6.52-4.899-8.973-8.194c-2.463-3.289-4.075-7.14-4.937-11.105
		c-0.846-3.985-1.063-8.045-0.524-12.125l0.637,0.778c-2.208-0.179-4.224-0.659-6.272-1.196c-2.036-0.556-4.023-1.19-6.005-1.94
		c-1.973-0.762-3.885-1.666-5.728-2.689c-1.844-1.037-3.618-2.142-5.327-3.45l0.694,0.048c-2.477,1.329-5.048,2.065-7.687,2.646
		c-2.636,0.548-5.302,0.879-8.012,0.947c-2.735,0.021-5.472-0.499-8.017-1.491c-2.552-1.012-4.903-2.389-6.975-4.313l0.147,0.116
		c0.09,0.045-0.066-0.015-0.132-0.008c-0.091-0.005-0.195,0.001-0.306,0.019c-0.221,0.036-0.46,0.119-0.697,0.229
		c-0.479,0.227-0.947,0.564-1.388,0.943c-0.474,0.406-0.79,0.74-1.075,1.231c-0.281,0.475-0.505,1.011-0.686,1.569
		c-0.361,1.121-0.567,2.324-0.688,3.537c-0.117,1.208-0.162,2.461-0.123,3.652l0.048,1.483l-1.291-0.687
		c-4.538-2.41-8.526-5.521-12.103-9.132c-3.548-3.616-6.572-7.808-8.723-12.456c-2.159-4.641-3.4-9.728-3.641-14.855
		c-0.256-5.13,0.453-10.275,1.818-15.188c1.378-4.925,3.503-9.677,6.369-13.949c2.861-4.275,6.404-8.078,10.38-11.31
		c3.971-3.246,8.388-5.894,13.005-8.047c2.312-1.074,4.68-2.022,7.095-2.84c2.437-0.812,4.825-1.519,7.461-2.01l-1.382,1.143
		c0.417-1.026,0.834-1.771,1.317-2.594c0.477-0.798,0.992-1.562,1.541-2.3c1.097-1.475,2.322-2.841,3.647-4.095
		c2.651-2.509,5.699-4.558,8.942-6.146c3.249-1.59,6.679-2.721,10.182-3.479c3.481-0.748,7.003-1.172,10.537-1.338
		c7.062-0.328,14.185,0.352,21.028,2.236c6.832,1.871,13.386,5.072,18.836,9.689c5.472,4.588,9.701,10.574,12.378,17.116
		c1.361,3.268,2.32,6.661,3.067,10.092c0.735,3.431,1.212,6.919,1.372,10.42c0.325,7.004-0.505,14.03-2.348,20.749
		C133.468,77.003,130.739,83.386,126.889,89.07z"/>
</g>
<path fill-rule="evenodd" clip-rule="evenodd" d="M24.669,29.587l14.998-7.113l6.812-1.815c0,0-14.659,18.165-5.754,47.302
	C46.663,87.388,51.52,89.419,54.27,92.252c1.25,1.288,7.416,5.917,7.416,5.917s-10.904,5.5-22.696,2.491
	c-2.293-0.585-6.239-3.298-8.191-4.581c-1.222-0.804-2.887,1.197-4.214,2.668c-2.142,2.375-1.479,8.966-1.682,9.16
	c-0.861,0.828-4.36-3.519-11.826-9.16C2.3,90.604-0.028,68.86,2.715,59.743C9.926,35.775,24.669,29.587,24.669,29.587z"/>
<path fill-rule="evenodd" clip-rule="evenodd" fill="#C1EF00" d="M149.947,155.956c1.785,4.354,4.307,10.054,6.544,13.446
	c3.989,6.054,5.091,7.842,7.152,6.878c2.064-0.961,0.07-7.359,0.07-7.359s5.64,8.323,9.562,9.769c3.919,1.443,3.095-6.88,3.095-6.88
	s6.431,6.226,9.458,6.465c3.027,0.243,2.751-3.574,2.304-6.465c-0.446-2.889-0.929-4.572-0.929-4.572s1.996,2.026,4.645,2.613
	c2.646,0.584,3.336-1.033,2.683-3.475c-0.655-2.442-4.267-9.871-4.267-9.871s2.903,2.933,3.579,2.891
	c0.675-0.045,0.514-1.515-0.654-3.131c-0.444-0.615-8.908-9.346-12.753-13.43c0,0,3.901,6.028,5,8
	c2.23,4.003,7.168,15.059,4.76,14.371c-2.406-0.688-7.635-4.403-7.635-4.403s5.089,14.653,0.138,12.728
	c-4.952-1.926-9.768-9.218-9.768-9.218s-0.274,10.179-2.478,8.804c-2.199-1.376-9.905-10.042-9.905-10.042s1.652,7.291,0.277,7.291
	C159.452,170.365,149.987,156.017,149.947,155.956L149.947,155.956z"/>
<g>
	<path fill-rule="evenodd" clip-rule="evenodd" fill="#FFF100" d="M47.325,22.002c0,0-10.508,13.701-11.859,30.995
		c-1.199,15.339,11.859,34.688,11.859,34.688s-4.881,1.099-13.757,4.608c-8.873,3.506-9.148,9.491-9.285,11.074
		c-0.138,1.581-0.207,3.163-0.207,3.163S4.27,95.683,2.166,73.401c-1.723-18.244,8.437-42.733,37.512-49.928
		C41.296,23.073,47.325,22.002,47.325,22.002z"/>
	<path d="M48.036,21.874l-0.313,0.432c-3.418,4.711-6.171,9.976-8.267,15.435c-2.062,5.468-3.466,11.258-3.646,17.082
		c-0.024,5.834,1.604,11.589,3.729,17.036c2.168,5.452,4.893,10.71,8.065,15.639l0.26,0.403l-0.465,0.113
		c-2.644,0.645-5.27,1.497-7.862,2.39c-1.297,0.451-2.588,0.921-3.872,1.407c-1.284,0.497-2.579,0.955-3.787,1.563
		c-2.419,1.197-4.637,2.934-5.966,5.282c-0.665,1.165-1.092,2.46-1.266,3.793c-0.151,1.345-0.239,2.729-0.31,4.094l-0.022,0.434
		l-0.363-0.217c-4.239-2.529-7.981-5.766-11.253-9.421c-3.256-3.666-5.964-7.84-7.843-12.375c-1.884-4.532-2.903-9.416-3.018-14.316
		c-0.121-4.9,0.572-9.811,1.979-14.499c2.791-9.389,8.616-17.852,16.458-23.712c3.905-2.945,8.267-5.261,12.844-6.961
		c2.293-0.843,4.632-1.559,7.011-2.111c2.389-0.505,4.794-0.93,7.196-1.362L48.036,21.874z M46.639,22.133
		c-2.173,0.395-4.348,0.782-6.508,1.242c-2.376,0.561-4.71,1.29-6.997,2.142c-4.565,1.721-8.909,4.055-12.791,7.011
		C12.548,38.411,6.791,46.868,4.06,56.221c-1.377,4.67-2.042,9.555-1.898,14.418c0.137,4.862,1.167,9.695,3.054,14.175
		c1.882,4.483,4.581,8.604,7.823,12.223c3.248,3.602,7.001,6.81,11.163,9.267l-0.386,0.217c0.066-1.384,0.146-2.749,0.295-4.141
		c0.176-1.396,0.62-2.768,1.314-3.997c1.392-2.483,3.703-4.299,6.186-5.542c1.251-0.635,2.556-1.103,3.835-1.604
		c1.287-0.495,2.581-0.972,3.882-1.432c2.607-0.91,5.221-1.774,7.924-2.446l-0.205,0.517c-3.235-4.977-5.989-10.235-8.209-15.736
		c-2.17-5.495-3.857-11.312-3.864-17.322c0.159-5.984,1.559-11.834,3.624-17.398C40.644,32.021,43.294,26.874,46.639,22.133z"/>
</g>
<path fill-rule="evenodd" clip-rule="evenodd" fill="#FFF100" d="M32.125,94.838c0,0,5.061-3.169,9.974-4.266
	c3.208-0.716,6.004-1.153,6.004-1.153s3.333,4.167,5.578,5.762c1.245,0.885,3.715,2.684,3.715,2.684S42.235,105.845,32.125,94.838
	L32.125,94.838z"/>
<g>
	<path fill-rule="evenodd" clip-rule="evenodd" fill="#C1EF00" d="M131.846,134.102c5.757,0.024,15.78-2.104,16.507-2.267
		c0,0-13.765-13.25-16.982-16.944c-2.825-3.243-14.087-16.621-25.436-16.13c-9.415,0.407-14.784,6.199-14.784,13.824
		c0,9,7.169,16.687,15.188,18.955C115.478,134.126,131.433,134.1,131.846,134.102z"/>
	<path d="M131.846,134.052c2.778-0.029,5.54-0.406,8.284-0.825c2.739-0.462,5.469-1.013,8.167-1.64l-0.12,0.431
		c-3.965-3.656-7.885-7.358-11.687-11.187c-1.89-1.927-3.806-3.82-5.566-5.898c-1.725-2.066-3.507-4.073-5.417-5.964
		c-3.815-3.739-8.146-7.164-13.21-8.973c-2.521-0.902-5.22-1.235-7.862-0.842c-2.633,0.333-5.213,1.188-7.372,2.672
		c-2.159,1.478-3.815,3.633-4.661,6.091c-0.854,2.457-0.928,5.158-0.441,7.721c0.977,5.161,4.319,9.737,8.673,12.676
		c4.349,3.079,9.825,3.818,15.106,4.624c2.664,0.361,5.346,0.614,8.032,0.812C126.459,133.918,129.152,134.019,131.846,134.052z
		 M131.846,134.151c-2.696,0.015-5.393-0.053-8.087-0.162c-2.696-0.087-5.392-0.24-8.084-0.481c-2.69-0.247-5.384-0.575-8.041-1.178
		c-2.671-0.555-5.292-1.627-7.565-3.179c-4.551-3.06-8.117-7.823-9.138-13.321c-0.494-2.723-0.38-5.596,0.574-8.231
		c0.933-2.638,2.776-4.935,5.108-6.439c2.325-1.536,5.053-2.301,7.763-2.553c1.354-0.127,2.734-0.157,4.089,0.046
		c1.354,0.189,2.674,0.549,3.952,1.005c2.562,0.921,4.911,2.313,7.14,3.84c2.229,1.536,4.287,3.302,6.276,5.132
		c1.982,1.839,3.849,3.809,5.641,5.826c1.805,1.965,3.732,3.857,5.635,5.758c3.826,3.789,7.629,7.608,11.42,11.439l0.338,0.341
		l-0.458,0.09c-2.741,0.532-5.487,0.978-8.247,1.35C137.406,133.817,134.634,134.158,131.846,134.151z"/>
</g>
<path fill-rule="evenodd" clip-rule="evenodd" fill="#B17F49" d="M116.118,143.538c0.047-0.653,3.058,2.271,4.642,3.921
	c1.58,1.651,6.327,6.397,6.672,7.36c0.342,0.965,1.672,2.349,1.672,2.349s-29.636,11.615-38.372,13.404
	c-8.737,1.787-25.728,5.365-29.475,6.672c-3.749,1.308-10.698,2.958-17.164,2.338c-6.466-0.619-23.815-2.774-23.423-5.091
	c0.304-1.793,21.498-11.074,22.735-12.104c1.238-1.032,0.757-1.307,3.165-0.688c2.407,0.619,9.354,0.962,9.354,0.962l1.472,0.098
	c0,0,2.176,0.248,7.403-1.163c5.228-1.41,39.138-15.409,45.971-18.743L116.118,143.538z M133.409,156.058
	c0.206-0.31,1.034-3.645,0.826-5.537c-0.206-1.891-3.324-7.283-3.406-7.944c-0.087-0.663,10.115-1.237,10.115-1.237
	s2.751,3.569,3.646,4.74c0.895,1.168,3.684,6.334,3.684,6.334l-13.864,3.645H133.409z"/>
<g>
	
		<ellipse transform="matrix(0.9778 0.2096 -0.2096 0.9778 11.9095 -11.2021)" fill-rule="evenodd" clip-rule="evenodd" fill="#FFFFFF" cx="58.798" cy="50.579" rx="22.968" ry="30.446"/>
	<path d="M81.354,55.415c-1.507,6.845-4.431,13.556-9.381,18.801c-2.458,2.604-5.457,4.806-8.887,6.108
		c-3.407,1.329-7.255,1.681-10.845,0.837c-3.596-0.84-6.837-2.832-9.321-5.438c-2.492-2.617-4.291-5.78-5.546-9.095
		c-2.506-6.661-2.885-13.99-1.569-20.979c1.303-6.982,4.47-13.775,9.599-18.931c2.555-2.562,5.603-4.709,9.05-6.037
		c3.441-1.334,7.285-1.714,10.968-0.91c3.609,0.797,6.994,2.737,9.54,5.375c2.583,2.625,4.401,5.874,5.572,9.263
		C82.879,41.234,82.809,48.555,81.354,55.415z M81.158,55.372c1.479-6.848,0.88-14.162-1.853-20.486
		c-1.371-3.15-3.281-6.04-5.698-8.369c-2.431-2.314-5.386-4.009-8.669-4.667c-1.581-0.327-3.268-0.443-4.908-0.301
		c-1.648,0.144-3.276,0.525-4.849,1.085c-3.145,1.142-6.015,3.065-8.459,5.426c-4.895,4.757-8.207,11.096-9.848,17.819
		c-1.618,6.72-1.469,14.025,1.104,20.514c1.288,3.225,3.217,6.2,5.724,8.538c2.493,2.345,5.591,3.988,8.888,4.604
		c3.293,0.654,6.718,0.288,9.881-0.858c3.161-1.167,6.08-3.035,8.621-5.354C76.163,68.654,79.721,62.233,81.158,55.372z"/>
</g>
<circle fill-rule="evenodd" clip-rule="evenodd" fill="#1D1D1B" cx="55.588" cy="50.579" r="4.807"/>
<g>
	<path fill-rule="evenodd" clip-rule="evenodd" fill="#F8B133" d="M131.107,142.852l-13.962,1.169c0,0,8.461,7.911,9.905,10.388
		c1.443,2.475,1.386,5.769,2.546,6.258C130.754,161.156,139.225,152.343,131.107,142.852L131.107,142.852z"/>
	<path d="M131.083,142.905c-2.304,0.357-4.613,0.648-6.924,0.921c-2.321,0.259-4.644,0.517-6.969,0.727l0.32-0.922
		c1.278,1.191,2.523,2.41,3.744,3.659c1.225,1.243,2.438,2.499,3.592,3.816c0.583,0.653,1.141,1.331,1.671,2.038
		c0.543,0.694,1.008,1.511,1.29,2.346c0.294,0.838,0.521,1.686,0.726,2.532c0.216,0.821,0.376,1.749,0.896,2.334
		c0.067,0.064,0.142,0.115,0.221,0.148c-0.023-0.005,0.041,0.011,0.053,0.013c0.01-0.007,0.004-0.003,0.023-0.006
		c0.035-0.005,0.076-0.017,0.118-0.03c0.171-0.066,0.347-0.18,0.511-0.305c0.331-0.252,0.622-0.565,0.898-0.886
		c0.548-0.648,1.013-1.367,1.403-2.118c0.768-1.511,1.27-3.137,1.447-4.801c0.189-1.668-0.065-3.36-0.599-4.968
		C132.96,145.805,132.094,144.31,131.083,142.905z M131.146,142.819c1.239,1.234,2.283,2.7,2.977,4.351
		c0.718,1.641,0.982,3.481,0.856,5.281c-0.139,1.806-0.751,3.562-1.713,5.069c-0.474,0.759-1.022,1.469-1.655,2.101
		c-0.316,0.315-0.655,0.609-1.029,0.868c-0.188,0.129-0.387,0.248-0.626,0.327c-0.062,0.018-0.127,0.033-0.201,0.038
		c-0.034,0.005-0.094-0.001-0.139-0.008c-0.04-0.013-0.031-0.004-0.103-0.035c-0.119-0.058-0.223-0.137-0.311-0.225
		c-0.342-0.364-0.481-0.802-0.622-1.219c-0.136-0.422-0.252-0.843-0.366-1.263c-0.23-0.838-0.451-1.677-0.803-2.457
		c-0.632-1.595-1.967-2.735-3.144-4.004c-2.427-2.471-4.972-4.845-7.486-7.233l-0.874-0.83l1.193-0.093
		c2.329-0.18,4.661-0.312,6.993-0.442c2.334-0.116,4.669-0.214,7.01-0.244h0.024L131.146,142.819z"/>
</g>
<g>
	<path fill="#1D1D1B" d="M100.196,139.125c3.055,1.649,6.347,2.844,9.725,3.494c1.688,0.345,3.404,0.442,5.135,0.479
		c1.728,0.035,3.457,0.089,5.183,0.052c1.732-0.012,3.426-0.16,5.155-0.33c1.725-0.156,3.448-0.339,5.171-0.536
		c3.445-0.389,6.884-0.869,10.324-1.306l0.196-0.024l0.119,0.129c1.453,1.573,2.684,3.267,3.852,5.02
		c1.155,1.756,2.208,3.576,3.162,5.445c0.947,1.872,1.839,3.774,2.506,5.771c0.341,0.994,0.63,2.005,0.879,3.021
		c0.268,1.01,0.417,2.054,0.867,3.001c-0.514-0.917-0.755-1.956-1.065-2.947c-0.301-0.998-0.64-1.982-1.027-2.946
		c-0.791-1.92-1.686-3.804-2.648-5.646c-0.972-1.839-2.04-3.626-3.206-5.344c-1.17-1.707-2.433-3.385-3.838-4.862L141,141.7
		c-3.429,0.6-6.874,1.06-10.324,1.506c-3.448,0.405-6.911,0.916-10.43,0.866c-3.488-0.022-6.99-0.175-10.436-0.921
		c-1.715-0.375-3.374-0.951-4.984-1.619C103.219,140.856,101.654,140.073,100.196,139.125z"/>
</g>
<path fill-rule="evenodd" clip-rule="evenodd" fill="#EC1C24" d="M33.192,92.294c-8.873,3.506-9.148,9.491-9.285,11.074
	c-0.138,1.581-0.207,3.163-0.207,3.163S5.266,94.562,2.79,76.401c-0.61-4.474-1.309-9.663-0.027-15.029
	c4.553-2.428,11.191-3.699,17.467-1.352C36.362,66.048,33.192,92.294,33.192,92.294L33.192,92.294z"/>
</svg>
