<?xml version="1.0" encoding="utf-8"?>
<!-- Generator: Adobe Illustrator 16.0.0, SVG Export Plug-In . SVG Version: 6.00 Build 0)  -->
<!DOCTYPE svg PUBLIC "-//W3C//DTD SVG 1.1//EN" "http://www.w3.org/Graphics/SVG/1.1/DTD/svg11.dtd">
<svg version="1.1" id="Layer_1" xmlns="http://www.w3.org/2000/svg" xmlns:xlink="http://www.w3.org/1999/xlink" x="0px" y="0px"
	 width="208.758px" height="141.537px" viewBox="0 0 208.758 141.537" enable-background="new 0 0 208.758 141.537"
	 xml:space="preserve">
<polygon fill="#925F36" stroke="#000000" stroke-linecap="round" stroke-linejoin="round" stroke-miterlimit="10" points="
	23.662,134.239 19.92,141.037 8.514,44.434 23.662,44.434 "/>
<rect x="4.771" y="44.449" fill="#B17F49" stroke="#000000" stroke-linecap="round" stroke-linejoin="round" stroke-miterlimit="10" width="15.148" height="96.572"/>
<polygon fill="#925F36" stroke="#000000" stroke-linecap="round" stroke-linejoin="round" stroke-miterlimit="10" points="
	182.662,134.239 178.92,141.037 167.514,44.434 182.662,44.434 "/>
<rect x="163.771" y="44.434" fill="#B17F49" stroke="#000000" stroke-linecap="round" stroke-linejoin="round" stroke-miterlimit="10" width="15.148" height="96.572"/>
<polygon fill="#683B11" stroke="#000000" stroke-linecap="round" stroke-linejoin="round" stroke-miterlimit="10" points="
	206.032,104.39 202.755,111.128 192.765,4.053 206.032,4.053 "/>
<rect x="189.487" y="4.053" fill="#925F36" stroke="#000000" stroke-linecap="round" stroke-linejoin="round" stroke-miterlimit="10" width="13.268" height="107.031"/>
<polygon fill="#683B11" stroke="#000000" stroke-linecap="round" stroke-linejoin="round" stroke-miterlimit="10" points="
	46.032,104.39 42.755,111.128 32.765,4.053 46.032,4.053 "/>
<rect x="29.487" y="4.053" fill="#925F36" stroke="#000000" stroke-linecap="round" stroke-linejoin="round" stroke-miterlimit="10" width="13.268" height="107.031"/>
<path fill="#B17F49" stroke="#000000" stroke-linecap="round" stroke-linejoin="round" stroke-miterlimit="10" d="M186.689,40.925
	c-1.335,2.258-3.538,4.396-6.669,4.396l-177.378-1c-3.131,0-2.056-11.989-1.538-13.109L29.996,6.815
	c0-1.876,7.538-3.396,10.669-3.396L206.55,1.904c3.131,0,1,8.035,1,9.911L186.689,40.925z"/>
<g>
	<path fill="#C99D66" d="M185.689,31.212c0,1.536-3.538,2.781-6.669,2.781H6.773c-3.131,0-5.669-1.245-5.669-2.781L29.996,3.281
		c0-1.536,7.538-2.781,10.669-2.781l162.216,1c3.131,0,4.669,0.245,4.669,1.781L185.689,31.212z"/>
	<path d="M185.736,31.233c-0.016,0.512-0.378,0.932-0.753,1.225c-0.391,0.303-0.83,0.534-1.28,0.725
		c-0.905,0.381-1.862,0.618-2.829,0.766c-0.969,0.158-1.956,0.151-2.925,0.157l-2.918,0.024l-11.673,0.099l-23.345,0.078
		l-23.345,0.077c-7.782,0.01-15.563,0.086-23.346,0.042L46.634,34.27l-23.346-0.085l-11.672-0.04
		c-1.951-0.016-3.879,0.057-5.849-0.03c-0.984-0.084-1.966-0.285-2.881-0.689c-0.456-0.204-0.899-0.458-1.275-0.812
		c-0.371-0.348-0.68-0.84-0.689-1.4c-0.001-0.05,0.022-0.099,0.056-0.131L29.792,3.07l-0.09,0.211
		c0.015-0.401,0.264-0.638,0.458-0.807c0.208-0.173,0.427-0.296,0.646-0.41c0.44-0.221,0.891-0.386,1.344-0.533
		c0.906-0.292,1.824-0.506,2.748-0.691c1.849-0.356,3.706-0.62,5.609-0.674l11.202,0.021l22.392,0.059l44.782,0.21l44.781,0.338
		l22.391,0.233l11.194,0.117l5.598,0.058c0.932,0.012,1.88,0.013,2.835,0.161c0.476,0.086,0.973,0.182,1.429,0.49
		c0.482,0.292,0.732,0.913,0.712,1.428l-0.001,0.013c-0.002,0.059-0.023,0.112-0.058,0.155L185.736,31.233z M185.65,31.181
		l21.685-28.067l-0.058,0.168c-0.005-0.415-0.147-0.759-0.479-0.968c-0.321-0.22-0.768-0.316-1.204-0.388
		c-0.892-0.13-1.817-0.126-2.75-0.129l-5.599-0.011L186.05,1.765l-22.392-0.042l-44.782-0.214L74.095,1.166L51.704,0.949
		L40.515,0.836c-1.828,0.037-3.683,0.284-5.497,0.621c-0.907,0.175-1.811,0.379-2.684,0.653c-0.435,0.138-0.864,0.293-1.259,0.488
		c-0.377,0.174-0.799,0.493-0.785,0.683c0.005,0.077-0.025,0.148-0.076,0.198L30.2,3.492L1.231,31.343l0.056-0.131
		c0.026,0.882,0.909,1.524,1.743,1.894c0.862,0.388,1.814,0.59,2.764,0.676c1.916,0.095,3.883,0.035,5.822,0.061l11.672-0.04
		l23.346-0.085l46.689-0.156c7.782-0.044,15.563,0.032,23.346,0.042l23.345,0.077l23.345,0.078l11.673,0.099l2.918,0.024
		c0.976,0.013,1.94,0.032,2.899-0.111c0.956-0.133,1.905-0.354,2.801-0.716c0.445-0.182,0.878-0.402,1.261-0.69
		c0.373-0.285,0.718-0.674,0.729-1.155C185.64,31.199,185.645,31.188,185.65,31.181z"/>
</g>
<path fill="#C99D66" stroke="#000000" stroke-linecap="round" stroke-linejoin="round" stroke-miterlimit="10" d="M179.021,33.993
	H6.773c-5.111,0-5.979-2.393-4.985-3.563C7.504,23.694,29.996,3.281,29.996,3.281C32.765,0.5,37.534,0.5,40.665,0.5l161.216,1
	c3.131,0,5.669,0.245,5.669,1.781c0,0-10.588,14.812-19.552,24.871C184.768,31.777,184.321,33.993,179.021,33.993z"/>
</svg>
