<?xml version="1.0" encoding="utf-8"?>
<!-- Generator: Adobe Illustrator 16.0.0, SVG Export Plug-In . SVG Version: 6.00 Build 0)  -->
<!DOCTYPE svg PUBLIC "-//W3C//DTD SVG 1.1//EN" "http://www.w3.org/Graphics/SVG/1.1/DTD/svg11.dtd">
<svg version="1.1" id="Layer_1" xmlns="http://www.w3.org/2000/svg" xmlns:xlink="http://www.w3.org/1999/xlink" x="0px" y="0px"
	 width="193.187px" height="208.198px" viewBox="0 0 193.187 208.198" enable-background="new 0 0 193.187 208.198"
	 xml:space="preserve">
<g>
	<path fill-rule="evenodd" clip-rule="evenodd" d="M62.435,10.408c2.204-2.029,1.739-0.144,4.828-0.392
		c3.604,3.027,4.949,3.119,7.769,4.44c0.284,3.817-1.074,1.827,2.22,3.718c-0.843,2.208-0.552,2.801,1.11,2.942
		c-0.688,3.012,0.03-0.056,3.33,1.109c-0.758,2.942-0.374,6.485,3.053,5.827c-0.791,1.891-1.028,1.437,0.832,2.22
		c0.132,2.854,1.271,1.77,3.052,2.499c0.48,1.899-2.087,2.683-3.328,3.605c-1.513,1.124,1.279-2.098,4.993,0
		c-1.631,3.178-1.905,2.379,1.943,3.053c-0.353,1.756,1.466,6.712,2.774,7.215c0.606,1.808,0.932,1.678,1.943,2.774
		c-0.734,2.228,3.15,10.556,4.716,11.378c0.899,1.478,0.333,0.977,1.665,1.942c1.089,1.177-0.768,0.363,1.089,1.177
		c1.214,1.243,2.31,2.051,1.687,2.983c6.975,1.554,13.366,4.224,19.7,2.278c4.222-1.296,7.617-3.482,14.152-4.438
		c5.856-0.856,7.712-0.342,11.377,1.329c4.681-2.063,11.018-5.729,16.371-9.712c3.654-2.718,9.955-8.357,8.95-13.991
		c-0.319-1.788-1.477-3.82-2.339-5.128c-2.253-3.422-10.71-6.509-13.218-10.937c0.07-0.649-3.071-4.583-2.775-7.493
		c2.414-0.008,0.022-3.234,0.555-5.827c2.056-0.008,5.602,6.848,4.441,3.607c1.457-0.633,2.243,1.079,2.774,2.22
		c0.715-0.209-0.204-2.052,0.831-1.942c1.905,1.979,7.328,7.935,7.215,4.718c2.308,0.197,2.824,3.317,3.607,4.995
		c0.963,2.063,1.777,5.627,2.433,8.174c1.312,5.105,1.289,4.755,1.122,9.949c-0.492,15.379-15,19.698-22.476,28.305
		c4.377,4.064,8.74,10.307,10.267,17.204c1.482,6.702,2.035,16.931,2.774,23.864c1.226,11.494,14.429,15.47,15.263,25.805
		c0.956,11.847,1.184,27.062,4.162,38.571c0.817,3.159,2.818,5.171,1.387,8.879c-0.615,0.495-1.128,1.094-2.498,0.832
		c-1.422,1.536-1.244,4.676-1.665,7.215c-4.863,3.094-11.708,5.999-17.758,2.775c-0.331-0.293-0.763-0.552-0.555-0.832
		c3.464-7.857,8.027-14.734,8.047-25.252c0.009-5.062-0.871-9.821-1.943-14.429c-1.479-6.36-3.81-12.137-7.769-16.094
		c-4.401-4.401-10.09-6.892-15.539-10.268c-1.302-0.803-1.491-0.967-2.176-1.58c-0.511,3.126-2.16,4.388-2.541,7.131
		c-0.673,4.831,3.961,8.963,3.885,12.764c-0.122,5.885-8.543,6.226-11.377,10.267c-2.073,5.152-2.762,4.638-5.828,5.272
		c0.141,2.357,1.617,3.376,2.498,4.994c0.175,6.465-2.983,8.547-6.045,12.08c-3.062,2.355-5.249,3.451-8.662,4.014
		c-1.45-4.498-2.226-10.03-1.943-15.538c0.047-0.886,0.223-2.182,0.556-3.053c2.327-6.08,9.369-11.884,12.21-16.927
		c4.577-8.129-6.412-14.003-3.885-24.419c-8.301,3.675-19.625,6.321-30.523,4.995c0.509,4.578,0.316,9.046,0.832,13.318
		c0.589,4.886,3.075,9.256,3.886,14.153c0.376,2.279,0.187,4.702,0.555,7.214c0.863,5.924,1.413,12.473,1.941,19.146
		c0.301,3.791,2.302,7.577,1.665,12.21c-1.535,0.638-1.492-0.438-3.33-0.556c-1.629,2.609,1.475,4.443,0.833,6.938
		c-0.918,3.572-12.32,6.074-16.649,3.329c-1.093-0.692-2.85-1.831-2.775-2.773c3.177-7.461,7.192-14.657,6.661-26.639
		c-0.142-3.185-0.54-6.069-1.11-8.881c-0.537-2.646-1.951-4.815-2.775-7.769c-0.962-3.45-0.754-7.001-1.941-10.268
		c-1.906-5.238-4.85-9.531-6.383-14.151c-5.835,4.621-9.249,11.845-15.262,15.539c-4.424,5.892-7.576,20.067,0.277,24.695
		c-0.122,1.82-1.992,1.893-3.053,2.775c0.004,1.385,1.248,1.528,2.221,1.942c0.91,1.07-5.896,10.524-7.208,12.297
		c-1.198,1.617-3.624,3.781-6.667,3.797c-3.785-5.516-4.413-12.937-4.717-19.978c-0.238-5.528-0.302-11.958,0-17.482
		c0.396-7.249,2.386-11.661,5.827-16.371c3.841-5.26,5.596-9.612,9.157-15.816c1.44-2.511,4.462-5.832,4.439-7.771
		c-0.029-2.575-3.618-5.266-3.884-8.879c-0.489-6.621,2.675-11.262,2.219-18.593c-0.576-9.276-3.707-20.376-7.492-26.418
		c-2.05,0.606-3.183,2.46-5.271,3.329c-4.022,1.679-8.087,2.633-13.598,2.11c-2.983-0.282-6.452,0.685-9.157,1.555
		c-0.797,0.257-0.914,0.976-1.664,1.389c-0.384,0.21-0.604-0.497-0.833-0.277c-0.553,0.531-1.039,1.036-1.664,1.387
		c-2.483,1.393-7.277,3.141-9.712,3.608C5.309,81.16-0.067,71.644,0.001,63.572c0.046-5.521,5.289-9.544,8.99-13.042
		c9.949-9.407,18.822-19.444,30.522-26.639c-0.626-2.335-3.601-3.318-3.886-5.994c1.879-1.553,2.312,0.819,3.053-0.666
		c2.621-1.418,4.17-4.252,4.996-3.884C40.839,9.626,40.515,3.4,45.062,1.415c2.354-0.039,4.844,0.222,5.596,1.783
		c0.292-1.749,1.376-2.305,2.451-2.893C59.833-1.522,64.251,5.231,62.435,10.408z"/>
	<path fill-rule="evenodd" clip-rule="evenodd" fill="#FFFFFF" d="M49.845,22.35c-7.269,10.06-19.135,17.429-30.248,24.974
		c-1.373,0.932-1.787,1.805-3.606,4.163c3.469-1.416,5.679-2.585,8.325-4.163c7.896-4.711,16.552-9.38,23.863-15.262
		c4.305-3.465,6.646-8.84,11.654-11.377c-2.967,11.05-15.479,16.387-16.095,28.858c-0.277,5.619,2.062,15.157-0.658,19.626
		c-1.562-3.155,0.764-7.387,0.104-11.024c-0.72-3.964-5.258-9.79-8.603-10.266c-2.276-0.325-5.747,1.159-8.603,1.941
		c-2.712,0.744-4.922,2.097-6.703,3.512c2.302,0.036,3.404-0.379,5.593-0.736c1.581-0.259,7.058-0.239,8.325,0
		c6.485,1.222,6.241,7.636,4.994,13.041c-1.865-2.818-1.476-6.626-5.271-7.492c-2.087-0.477-6.419,0.152-9.158,0.556
		c-2.054,0.303-4.317,0.745-4.717,1.943c3.008,0.496,11.095-1.277,13.319,2.773c0.542,2.564,1.427,4.598,0.556,7.215
		c-1.527,0.231-3.115,0.399-4.44,0.832c0.222-1.171,0.674-4.504,2.22-5.271c-0.585-1.265-1.951-1.749-3.605-1.942
		c-0.87,0.928-0.359,1.731,0,2.773c-1.165,5.396-4.648,7.493-9.99,9.436c-4.489,1.633-8.357,1.377-11.099-1.11
		c-2.67-2.42-6.505-10.107-3.163-15.262c2.066-3.186,6.669-7.674,9.822-10.544c3.979-3.623,14.373-14.469,18.371-16.322
		c-1.379,2.043-10.52,9.689-11.713,12.16c1.562-0.38,2.981-1.106,3.885-1.942c3.477-3.217,7.543-5.986,11.378-9.157
		C39.556,30.169,43.927,25.01,49.845,22.35z"/>
	<path fill-rule="evenodd" clip-rule="evenodd" fill="#FFFFFF" d="M43.339,39.111c0,0.166-0.152,0.303-0.338,0.303
		c-0.188,0-0.338-0.137-0.338-0.303"/>
	<path fill-rule="evenodd" clip-rule="evenodd" d="M12.875,62.74c0.755,4.262-7.277,4.221-5.827,0.276
		c1.326-0.745,1.533,0.967,2.774,1.111C11.461,64.242,11.197,61.756,12.875,62.74z"/>
	<path fill-rule="evenodd" clip-rule="evenodd" fill="#FFFFFF" d="M56.779,1.838c6.349,3.821,5.021,16.971-2.623,18.396
		C55.019,14.715,48.402,1.125,56.779,1.838z"/>
	<path fill-rule="evenodd" clip-rule="evenodd" fill="#FFFFFF" d="M46.436,10.572c-0.797-0.058-0.64,1.986-0.894,2.472
		C39.389,7.214,46,0.637,49.767,5.301c1.604,1.784,0.892,6.059-1.942,3.33C46.339,11.321,47.48,12.951,46.436,10.572z"/>
	<path fill-rule="evenodd" clip-rule="evenodd" fill="#FFFFFF" d="M48.157,67.984c1.477-12.304,5.872-22.313,12.487-28.858
		c3.423-3.388,8.764-5.324,11.1-10.268c4.849,2.812-0.741,9.078-3.607,12.209c-4.51,4.924-10.636,8.439-13.599,14.707
		C52.263,60.594,52.846,65.022,48.157,67.984z"/>
	<path fill-rule="evenodd" clip-rule="evenodd" fill="#FFFFFF" d="M79.775,40.346c-4.062,11.848-11.694,20.123-19.7,28.027
		c-0.522-0.683-1.147-1.258-1.388-2.221c1.926-1.662,6.516-4.541,4.164-7.77c-3.439,1.648-4.191,5.984-8.327,6.938
		c2.892-13.944,14.561-19.11,23.31-27.193C79.096,38.252,78.864,39.872,79.775,40.346z"/>
	<path fill-rule="evenodd" clip-rule="evenodd" fill="#FFFFFF" d="M82.843,46.062c1.564,1.211,2.113,4.258,2.891,5.909
		c-5.458,10.083-12.23,18.049-22.314,23.503c-0.713-1.934-2.125-3.415-1.942-5.271c0.206-2.098,4.371-4.529,6.382-6.383
		c4.862-4.48,12.089-11.656,14.43-16.927C82.491,46.437,82.549,46.38,82.843,46.062z"/>
	<path fill-rule="evenodd" clip-rule="evenodd" fill="#FFFFFF" d="M88.116,56.329c1.283,1.305,2.269,2.908,3.052,4.718
		c-6.451,10.105-14.251,18.862-25.252,24.419c-0.624-2.335-0.773-5.147-1.665-7.216C72.767,71.504,81.47,64.945,88.116,56.329z"/>
	<path fill-rule="evenodd" clip-rule="evenodd" fill="#FFFFFF" d="M65.085,22.753c1.571,0.186,2.248,1.268,3.052,2.221
		c-1.257,5.598-6.722,7.979-10.267,11.654c-3.679,3.812-8.035,12.175-9.676,18.389c-0.236,0.051,0.014-5.484,0-5.653
		c1.736-6.669,4.974-10.982,8.287-15.787C59.116,29.753,63.425,27.675,65.085,22.753z"/>
	<path fill-rule="evenodd" clip-rule="evenodd" fill="#FFFFFF" d="M96.329,66.056c-2.483,7.33-7.838,11.815-13.32,17.203
		c-3.869,3.804-7.879,7.997-11.653,11.1c-1.31,1.077-2.727,1.953-4.44,2.498c0.263-3.314-0.658-5.444-0.833-8.325
		c11.592-5.705,20.771-13.823,28.026-23.863C95.28,64.7,95.693,65.489,96.329,66.056z"/>
	<path fill-rule="evenodd" clip-rule="evenodd" fill="#FFFFFF" d="M104.377,69.386c-3.556,7.915-8.74,14.2-14.985,19.423
		c-5.96,7.083-11.423,14.66-17.48,21.645c-0.527-0.585-0.443-1.778-1.666-1.665c-2.207,0.66-1.109,4.625-2.22,6.382
		c-1.112-0.552-1.114-2.215-1.665-3.329c7.299-7.477,10.858-17.652,18.036-24.974c5.884-6.003,13.681-10.17,17.482-18.037
		C102.981,68.744,103.329,69.18,104.377,69.386z"/>
	<path fill-rule="evenodd" clip-rule="evenodd" fill="#FFFFFF" d="M76.369,93.472c0.494-0.078-6.349,10.116-10.823,13.874
		c-0.8-4.654,0.822-5.583,3.33-7.492C71.404,97.928,74.27,95.262,76.369,93.472z"/>
	<path fill-rule="evenodd" clip-rule="evenodd" fill="#FFFFFF" d="M106.524,76.456c-9.103,14.126-13.814,27.552-15.934,38.621
		c-0.276-1.019-0.994-5.049-1.311-6.761C85.733,91.807,100.313,86.154,106.524,76.456z"/>
	<path fill-rule="evenodd" clip-rule="evenodd" fill="#FFFFFF" d="M85.538,100.011c-0.267,1.956-0.812,7.705-0.836,10.828
		c-1.505-0.994-5.915-2.351-7.772-1.649C79.679,106.238,82.885,102.536,85.538,100.011z"/>
	<path fill-rule="evenodd" clip-rule="evenodd" fill="#FFFFFF" d="M128.044,72.258c3.772,20.652-6.644,35.36-8.323,54.109
		c-2.511,1.096-5.938,1.276-9.157,1.664c-1.689-18.623,8.51-40.501,11.992-55.753c0.194,15.934-8.154,35.82-8.939,49.648
		c1.167-0.778,2.216-3.77,2.774-5.549C120.642,102.838,127.692,88.1,128.044,72.258z"/>
	<path fill-rule="evenodd" clip-rule="evenodd" fill="#FFFFFF" d="M112.783,71.424c0.315,0.054,0.154,0.279,0,0.278
		c-3.612,14.657-10.877,25.92-12.487,43.564c-0.17,1.863,0.011,4.425,0.277,5.827c1.094-1.208,1.741-3.113,1.943-6.104
		c0.224-3.337,1.299-6.953,2.497-9.989c3.503-8.886,9.653-24.11,13.462-32.528c-2.429,17.488-13.909,35.608-14.85,55.559
		c-3.535-0.165-6.482-0.916-9.434-1.664c1.618-11.276,2.729-21.274,6.381-29.969C104.198,87.77,109.613,80.042,112.783,71.424z"/>
	<path fill-rule="evenodd" clip-rule="evenodd" fill="#FFFFFF" d="M135.974,67.625c0.476-0.635,3.902-0.43,4.837-0.604
		c5.363,4.339,5.912,13.412,11.057,18.667c4.015,4.103,8.491,7.417,14.983,9.435c-0.019,1.405,0.478,2.297,0.277,3.885
		C149.399,96.202,143.424,80.709,135.974,67.625z"/>
	<path fill-rule="evenodd" clip-rule="evenodd" fill="#FFFFFF" d="M147.633,69.18c1.211-0.008,3.109,1.468,4.146,2.418
		c1.321,4.877,3.121,8.745,5.638,12.426c2.516,2.849,7.343,3.385,8.603,7.491C155.982,89.894,151.161,78.234,147.633,69.18z"/>
	<path fill-rule="evenodd" clip-rule="evenodd" fill="#FFFFFF" d="M156.32,75.198c3.412,2.509,5.848,5.992,8.047,9.712
		C160.792,83.676,157.301,79.952,156.32,75.198z"/>
	<path fill-rule="evenodd" clip-rule="evenodd" fill="#FFFFFF" d="M137.679,81.371c1.708,1.808,3.438,3.59,4.717,5.827
		c-2.219,0.648-3.62,2.116-4.995,3.606C136.757,88.031,137.799,84.546,137.679,81.371z"/>
	<path fill-rule="evenodd" clip-rule="evenodd" fill="#FFFFFF" d="M149.924,94.012c-4.13-0.007-9.678,1.677-12.933,3.4
		c-0.472-2.826,1.178-4.239,3.498-5.62C144.056,91.46,147.87,92.05,149.924,94.012z"/>
	<path fill-rule="evenodd" clip-rule="evenodd" fill="#FFFFFF" d="M167.405,103.446c-6.188,3.089-12.808-3.629-20.255-3.607
		c-4.23,0.015-7.331,1.405-10.823,3.885c1.086,4.649,2.853,8.618,4.44,12.765c-1.867,1.575-5.111,3.187-7.215,3.607
		c0.312-5.885,0.378-12.015,1.665-16.927c3.733-5.047,10.258-8.316,17.205-6.104C157.589,98.71,163.532,101.635,167.405,103.446z"/>
	<path fill-rule="evenodd" clip-rule="evenodd" fill="#FFFFFF" d="M167.405,110.661c-7.748,0.866-12.646-4.318-21.089-2.497
		c-1.935,0.418-3.086,1.46-5.593,1.605c-0.777-1.9-1.449-3.176-1.344-4.936C149.739,101.179,159.386,107.123,167.405,110.661z"/>
	<path fill-rule="evenodd" clip-rule="evenodd" fill="#FFFFFF" d="M130.36,69.266c1.382-0.69,2.245-0.777,3.455-1.123
		c0.442,3.883,1.031,11.656,1.139,15.408c0.269,9.514-4.53,19.138-5.271,28.303c-0.155,1.909-0.251,4.944-0.278,7.215
		c-0.025,2.157,0.863,4.624-2.22,4.718c-1.727-10.474,2.381-18.689,3.052-26.639c0.438-5.183,0.995-9.793,1.333-14.582
		C131.86,78.427,130.36,69.544,130.36,69.266z"/>
	<path fill-rule="evenodd" clip-rule="evenodd" fill="#FFFFFF" d="M169.278,114.781c-1.618,1.297-3.791,0.443-6.104,0.556
		c-6.174,0.299-12.935,1.42-17.759,3.607c-1.411-2.179-3.287-3.971-3.742-6.843c7.618-3.663,15.985,1.511,22.611,2.125
		C166.119,114.396,167.781,113.263,169.278,114.781z"/>
	<path fill-rule="evenodd" clip-rule="evenodd" fill="#FFFFFF" d="M172.887,121.996c-5.012,0.142-9.708,1.131-13.875,2.775
		c-1.972,0.777-4.173,2.3-5.55,2.22c-0.852-0.05-4.178-2.242-4.162-3.054c0.022-1.188,5.271-3.521,6.938-4.162
		c4.861-1.87,10.705-1.88,14.429-1.108C171.666,119.338,172.831,121.304,172.887,121.996z"/>
	<path fill-rule="evenodd" clip-rule="evenodd" fill="#FFFFFF" d="M177.049,126.436c-7.08,0.776-12.221,1.812-16.372,5.549
		c-1.563-0.47-2.481-1.586-3.885-2.22C159.941,126.492,172.953,121.118,177.049,126.436z"/>
	<path fill-rule="evenodd" clip-rule="evenodd" fill="#FFFFFF" d="M184.916,142.739c0.251,1.656,0.153,2.079,0.276,3.605
		c-1.892-0.562-2.362-1.337-3.607-1.942c-3.769-0.854-9.106-0.141-10.544-3.329C175.048,138.177,181.214,140.873,184.916,142.739z"
		/>
	<path fill-rule="evenodd" clip-rule="evenodd" fill="#FFFFFF" d="M175.759,147.733c5.043-0.419,6.81,2.439,9.988,3.885
		c0.076,1.682,0.424,3.092,0.555,4.718c-3.247-0.822-5.015-3.125-9.155-3.054C177.077,151.038,176.012,149.792,175.759,147.733z"/>
	<path fill-rule="evenodd" clip-rule="evenodd" fill="#FFFFFF" d="M186.58,160.22c-0.121,2.158,0.493,3.576,0.278,5.827
		c-2.261-0.013-4.133-1.192-6.938-1.387c-0.428-1.793-0.9-3.538-1.111-5.55C181.019,156.813,183.532,160.662,186.58,160.22z"/>
	<path fill-rule="evenodd" clip-rule="evenodd" fill="#FFFFFF" d="M180.199,168.544c2.423,0.353,4.213,1.336,7.213,1.109
		c0.433,1.974,0.664,4.146,1.389,5.827c-2.461,2.075-6.351-0.093-8.326-1.109C180.463,172.729,180.112,170.964,180.199,168.544z"/>
	<path fill-rule="evenodd" clip-rule="evenodd" fill="#FFFFFF" d="M179.644,178.257c2.648,1.135,7.309,2.487,9.989,1.109
		c0.704,1.981,1.065,4.492,1.388,6.105c-4.086-0.022-3.982,5.016-4.44,7.77c-4.141-1.04-6.016-4.344-8.602-6.938
		C179.161,184.249,178.825,180.675,179.644,178.257z"/>
	<path fill-rule="evenodd" clip-rule="evenodd" fill="#FFFFFF" d="M184.819,135.677c-4.533,2.285-12.913-2.709-16.928,1.387
		c-1.561-1.493-3.257-2.034-4.541-3.803C169.655,129.72,182.749,128.459,184.819,135.677z"/>
	<path fill-rule="evenodd" clip-rule="evenodd" fill="#FFFFFF" d="M145.819,126.006c-3.707,1.997-10.186,1.159-13.82,3.79
		c-0.257-0.681-0.496-2.28-0.344-3.531c3.912-1.359,7.656-2.703,10.709-4.922C143.228,122.638,144.339,124.896,145.819,126.006z"/>
	<path fill-rule="evenodd" clip-rule="evenodd" fill="#FFFFFF" d="M148.744,128.921c-0.42,1.576-0.767,1.922-1.284,3.39
		c-5.317,0.836-9.916,2.268-15.642,1.05C135.798,129.872,142.505,129.506,148.744,128.921z"/>
	<path fill-rule="evenodd" clip-rule="evenodd" fill="#FFFFFF" d="M146.337,135.506c0.26,1.382-0.543,3.182-0.345,4.923
		c-2.771,1.346-6.114,1.066-10.011,0.979c-1.03-0.821-1.513-2.188-1.942-3.607C138.556,137.011,142.3,136.724,146.337,135.506z"/>
	<path fill-rule="evenodd" clip-rule="evenodd" fill="#FFFFFF" d="M147.081,150.009c-3.587,0.539-7.524-0.238-10.268-1.387
		c-0.014-1.28,0.124-2.713-0.277-3.607c2.416,0.216,7.404-0.563,9.801-1.477C147.982,144.572,148.15,148.633,147.081,150.009z"/>
	<path fill-rule="evenodd" clip-rule="evenodd" fill="#FFFFFF" d="M144.306,153.616c-1.135,3.577-7.331,6.327-11.377,2.775
		c0.477-1.375,1.598-2.102,2.219-3.33C138.555,152.027,141.733,154.458,144.306,153.616z"/>
	<path fill-rule="evenodd" clip-rule="evenodd" fill="#FFFFFF" d="M137.646,161.108c-1.594,3.511-6.052,3.329-9.713,2.221
		c0.051-1.391,2.045-3.1,3.053-4.44C133.698,159.137,134.887,160.909,137.646,161.108z"/>
	<path fill-rule="evenodd" clip-rule="evenodd" fill="#FFFFFF" d="M132.65,166.658c-0.201,0.85,0.301,1.32,0.278,1.664
		c-2.524,0.086-6.25,2.58-9.888,1.503c-0.097-0.583,0-2.623,1.847-3.789C127.368,165.696,130.468,165.698,132.65,166.658z"/>
	<path fill-rule="evenodd" clip-rule="evenodd" fill="#FFFFFF" d="M134.772,171.764c-2.278,3.361-7.098,4.186-11.653,5.271
		c-0.282-1.433-0.004-1.706,0-3.329c3.094-1.098,6.908-2.315,11.1-3.052C134.604,170.825,134.261,171.722,134.772,171.764z"/>
	<path fill-rule="evenodd" clip-rule="evenodd" fill="#FFFFFF" d="M97.23,131.487c-0.006,1.215-0.011,2.599,0.277,2.775
		c-3.275,2.701-10.658,2.195-14.429,0.276c1.383-1.764,3.2-3.09,4.439-4.994C90.662,130.285,94.074,130.757,97.23,131.487z"/>
	<path fill-rule="evenodd" clip-rule="evenodd" fill="#FFFFFF" d="M97.23,139.256c1.024,0.456,0.5,2.461,0.831,3.608
		c-4.522,1.95-12.524,3.305-13.873-2.776C87.625,140.258,94.182,141.56,97.23,139.256z"/>
	<path fill-rule="evenodd" clip-rule="evenodd" fill="#FFFFFF" d="M97.785,145.915c1.061,1.438,1.058,3.937,1.388,6.104
		c-2.443,1.506-6.058,2.06-9.156,0.833c-0.402-1.591-1.904-3.393-1.666-4.717C91.608,149.121,95.409,147.998,97.785,145.915z"/>
	<path fill-rule="evenodd" clip-rule="evenodd" fill="#FFFFFF" d="M100.005,155.628c1.566,1.116,1.736,3.629,1.665,6.382
		c-3.056,1.219-8.102,1.116-10.267-0.832c-0.537-1.221-0.546-2.968-0.832-4.44C93.702,158.009,97.649,156.807,100.005,155.628z"/>
	<path fill-rule="evenodd" clip-rule="evenodd" fill="#FFFFFF" d="M93.067,165.34c2.605,1.35,5.69,0.935,8.88,0.555
		c0.455,1.858,0.73,3.896,1.11,5.827c-2.244,1.141-6.459,1.563-8.879,0.278C93.971,169.616,93.169,167.829,93.067,165.34z"/>
	<path fill-rule="evenodd" clip-rule="evenodd" fill="#FFFFFF" d="M103.058,175.329c1.162,1.057,1.052,3.388,1.109,5.55
		c-2.894,1.072-6.773,0.895-9.435-0.278c0.344-1.376-0.188-2.996,0-4.993C96.919,176.637,101.163,176.781,103.058,175.329z"/>
	<path fill-rule="evenodd" clip-rule="evenodd" fill="#FFFFFF" d="M94.732,183.099c3.225,0.753,6.038,1.916,9.713,2.22
		c0,0.833,0,1.666,0,2.497c-2.972,1.465-7.166,1.01-9.989-0.277C94.248,185.76,94.779,184.718,94.732,183.099z"/>
	<path fill-rule="evenodd" clip-rule="evenodd" fill="#FFFFFF" d="M104.999,190.312c0.228,1.717,1.032,2.853,0.834,4.996
		c-1.055,0.124-1.975-0.72-2.775,0c-1.437,1.694-1.079,4.922-0.277,6.937c-3.572-1.484-7.632-2.289-10.268-5.272
		c0.064-1.785,0.925-2.775,0.831-4.718C97.747,192.125,100.837,190.683,104.999,190.312z"/>
	<path fill-rule="evenodd" clip-rule="evenodd" fill="#FFFFFF" d="M83.8,128.06c-1.662,1.39-3.205,3.854-5.171,4.941
		c-1.042-1.754-1.493-4.052-3.153-5.219c-2.42-1.7-6.064-1.673-7.771-4.162c3.056-0.754,10.806-1.851,13.875,1.387
		C82.688,126.005,83.033,126.61,83.8,128.06z"/>
	<path fill-rule="evenodd" clip-rule="evenodd" fill="#FFFFFF" d="M71.866,140.546c-0.999-4.64-4.834-6.448-8.323-8.603
		c0.518-1.702,1.772-2.665,2.221-4.439C70.868,128.619,79.647,137.164,71.866,140.546z"/>
	<path fill-rule="evenodd" clip-rule="evenodd" fill="#FFFFFF" d="M69.093,143.322c-1.148,1.996-2.732,3.557-4.717,4.716
		c-0.65-3.974-3.103-6.146-6.105-7.77c0.953-1.546,1.914-3.08,3.054-4.438C64.511,137.73,67.133,140.193,69.093,143.322z"/>
	<path fill-rule="evenodd" clip-rule="evenodd" fill="#FFFFFF" d="M55.656,143.019c2.692,1.932,5.918,4.029,6.778,7.795
		c-0.49,0.713-1.207,1.198-1.666,1.942c-2.771-1.669-4.855-4.024-9.436-3.884C52.345,146.829,54.103,145.006,55.656,143.019z"/>
	<path fill-rule="evenodd" clip-rule="evenodd" fill="#FFFFFF" d="M58.271,156.919c-0.117,1.269-0.422,2.353-0.277,3.884
		c-2.572-0.55-6.278-2.373-9.157-0.832c-1.361-1.994,0.454-4.662,0.556-6.938C53.416,152.387,56.305,154.649,58.271,156.919z"/>
	<path fill-rule="evenodd" clip-rule="evenodd" fill="#FFFFFF" d="M57.993,165.243c0,1.387,0,2.774,0,4.162
		c-2.284-0.948-6.916-1.255-9.434-0.278c0.019-2.021-0.273-3.087-0.277-5.55C51.623,162.367,55.834,163.591,57.993,165.243z"/>
	<path fill-rule="evenodd" clip-rule="evenodd" fill="#FFFFFF" d="M58.271,172.734c0.363,2.32,2.307,3.059,3.609,4.439
		c-0.12,0.622-1.369,0.112-1.943,0.278c-0.629,1.454,0.025,3.297,0.277,4.717c-3.035,1.59-7.232,2.018-10.822,3.052
		c-0.587-2.003-0.593-4.586-0.556-7.213c2.977-1.66,5.661-0.314,8.88-1.667c-1.486-2.581-6.071-1.738-9.156-1.387
		c-0.021-1.401-0.071-1.622,0-2.774C51.078,170.86,55.627,171.771,58.271,172.734z"/>
	<path fill-rule="evenodd" clip-rule="evenodd" fill="#FFFFFF" d="M86.116,125.631c-2.622-5.168-8.292-8.907-16.094-7.214
		c2.899-7.057,11.992-7.135,16.094-1.387C87.819,119.416,89.085,123.574,86.116,125.631z"/>
	<path fill-rule="evenodd" clip-rule="evenodd" fill="#FFFFFF" d="M173.099,57.44c-0.771,1.728-2.716,2.28-3.885,3.607
		c-0.745-0.458-0.998-1.407-1.666-1.942C168.591,58.355,171.768,53.857,173.099,57.44z"/>
	<path fill-rule="evenodd" clip-rule="evenodd" fill="#FFFFFF" d="M164.594,61.447c0.122,0.896,1.334,1.117,1.356,2.112
		c-1.433,0.83-2.604,2.352-4.229,2.762c-0.313-0.89-1.048-1.357-1.665-1.943C161.777,63.511,162.708,62.428,164.594,61.447z"/>
	<path fill-rule="evenodd" clip-rule="evenodd" fill="#FFFFFF" d="M157.277,66.426c0.418,0.876,1.751,1.556,1.734,2.865
		c-0.367,0.279-1.364,1.123-1.734,1.584c-1.235-0.614-2.01-1.675-2.947-2.588C154.726,67.295,155.92,67.028,157.277,66.426z"/>
	<path fill-rule="evenodd" clip-rule="evenodd" fill="#FFFFFF" d="M178.682,45.83c0.941,3.298-1.665,8.499-3.919,9.946
		c-0.065-0.86-0.772-1.078-1.11-1.665C174.885,51.644,176.962,51.267,178.682,45.83z"/>
</g>
<circle fill-rule="evenodd" clip-rule="evenodd" cx="39.604" cy="44.645" r="2.059"/>
</svg>
