<?xml version="1.0" encoding="utf-8"?>
<!-- Generator: Adobe Illustrator 16.0.0, SVG Export Plug-In . SVG Version: 6.00 Build 0)  -->
<!DOCTYPE svg PUBLIC "-//W3C//DTD SVG 1.1//EN" "http://www.w3.org/Graphics/SVG/1.1/DTD/svg11.dtd">
<svg version="1.1" id="Layer_1" xmlns="http://www.w3.org/2000/svg" xmlns:xlink="http://www.w3.org/1999/xlink" x="0px" y="0px"
	 width="608.305px" height="170px" viewBox="0 0 608.305 170" enable-background="new 0 0 608.305 170" xml:space="preserve">
<g>
	<g>
		<path fill="#75C7DC" d="M1,163C1,111,1,59,1,7c0.673-4.215,2.948-6.286,7.366-5.5c197.409,0,394.812,0,592.208,0
			c4.398-0.773,6.762,1.215,7.426,5.5c0,52,0,104,0,156c-1.031,1.016,0.232,3.999-2.822,3.281c-0.883-0.467-1.373-1.229-1.668-2.153
			c0.457-49.108,0.086-98.217,0.18-147.324c0.006-2.979,0.25-6.028-1.43-8.744c-1.092-2.577-2.85-3.953-5.818-3.588
			c-1.477,0.182-2.994,0.028-4.494,0.028c-191.795,0-383.591,0-575.386,0c-1.333,0-2.666-0.015-3.999,0.005
			C6.164,4.6,4.554,6.088,4.543,12.45C4.461,60.44,4.5,108.432,4.506,156.422c0,2.514,0.429,4.977,0.681,7.456
			c-0.105,0.961-0.453,1.791-1.299,2.339C0.752,167.104,2.036,164.007,1,163z"/>
		<path display="none" fill="#EBF6F9" d="M1,163c0.689,0.986,1.378,1.973,2.068,2.959c3.489,1.333,7.134,1.542,10.818,1.542
			c193.744,0.001,387.487,0.001,581.231,0c3.684,0,7.328-0.213,10.82-1.541c0.688-0.985,1.375-1.974,2.061-2.96c0,7,0,7-7,7
			c-197.666,0-395.333,0-593,0C1,170,1,170,1,163z"/>
		<path display="none" fill="#A1D9E7" d="M602.198,1.808c-2.164,0.063-4.326,0.185-6.49,0.185
			c-194.139,0.009-388.277,0.009-582.417,0c-2.163,0-4.327-0.121-6.49-0.185C6.575,1.466,6.626,1.193,7,1c198.333,0,396.667,0,595,0
			c0.262,0.126,0.379,0.287,0.35,0.484C602.319,1.699,602.268,1.808,602.198,1.808z"/>
		<path display="none" fill="#F1F9FB" d="M7,1C6.918,1.266,6.853,1.535,6.802,1.808C3.427,1.929,2.835,5.159,1,7
			C-0.129,1.871,1.871-0.129,7,1z"/>
		<path display="none" fill="#F1F9FB" d="M602.198,1.808C602.149,1.534,602.083,1.265,602,1c5.129-1.129,7.129,0.871,6,6
			C606.161,5.163,605.575,1.926,602.198,1.808z"/>
		<path fill="#FEFEFE" d="M605.067,6.912c1.166,1.805,0.928,3.839,0.928,5.824c0.006,48.454-0.002,96.909,0.029,145.362
			c0,2.363-0.244,4.639-1.055,6.854c-0.717,2.229-2.299,3.121-4.574,3.043c-1.33-0.045-2.666,0.006-3.998,0.006
			c-194.625,0-389.25,0.009-583.874-0.083c-2.77-0.001-6.642,1.849-7.999-2.772c-0.3-2.644-0.548-5.28-0.546-7.955
			c0.029-47.311,0.02-94.62,0.023-141.93c0-1.498-0.082-3.004,0.098-4.494c0.46-3.839,2.543-6.034,6.498-6.24
			c1.331-0.068,2.665-0.024,3.998-0.024C208.331,4.5,402.065,4.498,595.801,4.52C599.057,4.521,602.575,3.813,605.067,6.912z"/>
		<path fill="#CED1D2" d="M605.067,6.912c-2.225-0.92-4.566-0.812-6.898-0.812C403.717,6.101,209.266,6.099,14.815,6.105
			c-8.293,0-9.786,1.53-9.794,10.034C4.974,65.793,4.942,115.445,4.906,165.1c-0.35,0.349-0.648,0.309-0.896-0.117
			c-0.825-2.393-1.042-4.851-1.04-7.377c0.025-48.332,0.012-96.667,0.021-145c0.001-7.742,1.71-9.499,9.317-9.499
			C207.141,3.098,401.975,3.098,596.807,3.12C600.077,3.119,603.715,2.604,605.067,6.912z"/>
		<path fill="#7DCBDF" d="M4.01,164.98c0.297,0.05,0.596,0.09,0.896,0.119c1.032,1.576,2.566,1.974,4.336,1.908
			c1.331-0.048,2.666,0.001,3.998,0.001c194.272,0.001,388.545,0.002,582.817-0.008c3.113,0,6.402,0.63,8.912-2.051
			c0.322,0.336,0.646,0.673,0.969,1.01c-1.217,2.39-3.283,3.129-5.807,3.043c-1.164-0.04-2.332,0.006-3.498,0.006
			c-194.756,0-389.51,0.005-584.265-0.026c-3.361-0.002-7.198,1.031-9.302-3.023C3.382,165.633,3.696,165.307,4.01,164.98z"/>
	</g>
</g>
</svg>
