<?xml version="1.0" encoding="utf-8"?>
<!-- Generator: Adobe Illustrator 16.0.0, SVG Export Plug-In . SVG Version: 6.00 Build 0)  -->
<!DOCTYPE svg PUBLIC "-//W3C//DTD SVG 1.1//EN" "http://www.w3.org/Graphics/SVG/1.1/DTD/svg11.dtd">
<svg version="1.1" id="Layer_1" xmlns="http://www.w3.org/2000/svg" xmlns:xlink="http://www.w3.org/1999/xlink" x="0px" y="0px"
	 width="98.147px" height="98.504px" viewBox="0 0 98.147 98.504" enable-background="new 0 0 98.147 98.504" xml:space="preserve">
<g>
	<path fill="#F7A815" d="M45.745,82.559c0.333-3.664,1.702-6.478,3.055-6.282c1.352,0.194,2.177,3.321,1.841,6.984
		c-0.204,2.24-2.568,7.286-3.13,10.83c-0.356,2.256,4.282,3.29,3.756,3.215c-0.162-0.023-1.988-0.621-4.011-0.306
		c-0.635,0.099-2.289,0.188-2.917,0.254c-0.545,0.057-2.123,0.044-2.482-0.195c-0.565-0.377,3.991-0.75,3.922-1.638
		C45.491,91.765,45.543,84.77,45.745,82.559z"/>
	<path fill="#1D1E1C" d="M45.745,82.559c0.099-1.218,0.32-2.428,0.691-3.598c0.187-0.584,0.413-1.161,0.737-1.694
		c0.329-0.5,0.739-1.102,1.496-1.173c0.354-0.019,0.726,0.174,0.96,0.407c0.249,0.236,0.431,0.515,0.586,0.8
		c0.302,0.575,0.493,1.185,0.637,1.8c0.283,1.233,0.375,2.494,0.352,3.752c0.002,1.328-0.387,2.562-0.73,3.735
		c-0.349,1.185-0.756,2.335-1.125,3.488c-0.357,1.155-0.745,2.295-0.995,3.441c-0.056,0.271-0.132,0.606-0.152,0.819
		c-0.013,0.094,0.024,0.304,0.118,0.466c0.188,0.357,0.606,0.714,1.074,0.999c0.473,0.286,0.998,0.533,1.54,0.75l0.417,0.158
		l0.129,0.048c-0.019-0.009,0.12,0.047,0.174,0.094c0.416,0.017-0.749,1.795-0.383,1.031l-0.042-0.004l-0.085-0.013l-0.027-0.006
		l-0.253-0.066c-0.283-0.074-0.565-0.138-0.851-0.188c-0.569-0.102-1.147-0.156-1.719-0.147c-0.286,0.004-0.57,0.022-0.852,0.06
		c-0.293,0.04-0.645,0.075-0.939,0.097l-1.831,0.126c-0.605,0.065-1.287,0.058-1.911,0.007c-0.34-0.045-0.61-0.031-1.082-0.232
		l-0.051-0.027l-0.024-0.015c0.058,0.049-0.107-0.083-0.093-0.073l-0.021-0.02c-0.006-0.013,0.004,0.021-0.088-0.115
		c-0.064-0.104-0.086-0.257-0.071-0.34c0.013-0.074,0.042-0.154,0.083-0.22c0.079-0.115,0.104-0.116,0.166-0.171
		c0.15-0.096,0.242-0.123,0.329-0.152c0.176-0.056,0.331-0.093,0.486-0.128c0.615-0.135,1.21-0.236,1.789-0.375
		c0.287-0.07,0.574-0.145,0.83-0.244c0.263-0.08,0.48-0.279,0.414-0.223c-0.021-0.613-0.029-1.232-0.03-1.845
		c-0.001-1.228,0.025-2.452,0.064-3.676l0.104-3.668C45.601,85,45.636,83.776,45.745,82.559z M45.745,82.559
		c-0.164,2.439-0.127,4.887-0.041,7.329c0.062,1.221,0.137,2.44,0.238,3.655c0.051,0.609,0.108,1.209,0.18,1.816
		c0.007,0.015,0.008,0.134-0.007,0.218c-0.021,0.076-0.054,0.167-0.093,0.218c-0.077,0.121-0.164,0.198-0.244,0.258
		c-0.162,0.123-0.318,0.203-0.472,0.272c-0.308,0.14-0.608,0.236-0.91,0.33c-0.601,0.183-1.204,0.324-1.774,0.486
		c-0.141,0.041-0.28,0.084-0.394,0.129c-0.058,0.019-0.107,0.053-0.086,0.039c0.036-0.028,0.024-0.01,0.085-0.091
		c0.033-0.049,0.055-0.111,0.06-0.168c0.014-0.065,0.002-0.2-0.059-0.286c-0.09-0.116-0.063-0.07-0.056-0.07l0.021,0.019
		c0.021,0.018-0.135-0.11-0.069-0.057l0.001-0.001v-0.001c0.092,0.042,0.446,0.093,0.711,0.106c0.594,0.032,1.14,0.03,1.75-0.043
		l1.825-0.155c0.313-0.03,0.569-0.057,0.882-0.105c0.324-0.05,0.649-0.076,0.975-0.087c0.65-0.021,1.297,0.028,1.932,0.129
		c0.317,0.05,0.633,0.115,0.942,0.19l0.191,0.047l0.028,0.006c-0.009-0.001,0.039,0.007-0.016-0.002l-0.013-0.002l-0.014-0.001
		c0.373-0.761-0.773,1.013-0.363,1.025c0.036,0.039,0.159,0.086,0.121,0.071l-0.087-0.025l-0.453-0.135
		c-0.608-0.191-1.215-0.421-1.8-0.749c-0.577-0.331-1.178-0.729-1.615-1.434c-0.21-0.365-0.36-0.765-0.336-1.283
		c0.025-0.397,0.091-0.659,0.149-0.988c0.26-1.245,0.598-2.444,1.007-3.609c0.398-1.168,0.819-2.318,1.245-3.451
		c0.393-1.147,0.852-2.249,0.958-3.377c0.137-1.179,0.165-2.38,0.014-3.555c-0.077-0.585-0.202-1.167-0.42-1.701
		c-0.215-0.515-0.561-1.047-1.071-1.085c-0.518-0.023-1.006,0.452-1.331,0.932c-0.342,0.493-0.6,1.049-0.816,1.617
		C46.099,80.134,45.874,81.345,45.745,82.559z"/>
</g>
<g>
	<path fill="#D20A80" d="M56.053,24.308c0.006-0.153,1.868-12.199-8.123-19.517c-7.424-5.438-16.772-6.079-25.527,0.238
		C8.141,15.32,19.592,33.354,19.592,33.354s-9.118,16.336,1.549,33.332c11.068,17.636,25.662,19.659,38.667,17.335
		C91.141,78.42,95.022,40.55,95.022,40.55S74.484,44.998,56.053,24.308z"/>
	<path fill="#1D1E1C" d="M56.053,24.308c0.6-6.703-1.764-13.772-6.906-18.074c-2.542-2.136-5.525-3.78-8.728-4.611
		c-3.198-0.841-6.596-0.818-9.776,0.036C24.39,3.419,18.319,7.845,16.659,14.153c-0.855,3.111-0.696,6.451,0.055,9.626
		c0.755,3.167,2.062,6.297,3.73,9.032l0.3,0.491l-0.271,0.542c-1.219,2.446-2.095,5.242-2.646,7.999
		c-0.556,2.779-0.755,5.618-0.627,8.431c0.248,5.633,2.088,11.135,5.149,15.854c3.095,4.799,6.883,9.147,11.58,12.226
		c4.667,3.11,10.178,4.752,15.797,5.006c2.812,0.136,5.65-0.054,8.465-0.475c2.847-0.414,5.542-1.083,8.192-2.09
		c5.273-1.98,10.029-5.253,13.868-9.427c3.85-4.171,6.853-9.125,9.161-14.377c2.274-5.257,3.939-10.885,4.759-16.529l1.03,0.922
		c-3.829,0.61-7.549,0.397-11.245-0.202c-3.678-0.639-7.248-1.794-10.612-3.355c-3.364-1.562-6.521-3.537-9.414-5.822
		C61.026,29.731,58.425,27.103,56.053,24.308z M56.053,24.308c2.511,2.675,5.27,5.103,8.215,7.253
		c2.952,2.143,6.134,3.956,9.482,5.349c3.347,1.396,6.862,2.358,10.431,2.854c3.54,0.499,7.253,0.583,10.661-0.049l1.165-0.216
		l-0.135,1.138c-0.706,5.945-2.248,11.667-4.461,17.195c-2.224,5.505-5.258,10.761-9.305,15.231
		c-4.015,4.475-9.077,8.113-14.747,10.277c-2.807,1.09-5.816,1.84-8.751,2.279c-2.96,0.458-5.98,0.678-9.009,0.547
		c-6.055-0.208-12.138-2.088-17.2-5.497c-5.084-3.384-9.146-8.056-12.271-13.119c-3.238-5.124-5.155-11.113-5.345-17.175
		c-0.118-3.027,0.209-6.054,0.859-8.992c0.676-2.95,1.61-5.769,3.066-8.522l0.029,1.034c-1.781-3.078-3.027-6.301-3.774-9.726
		c-0.724-3.4-0.829-7.034,0.191-10.448c0.994-3.422,3.193-6.417,5.98-8.531c2.736-2.1,5.859-3.756,9.236-4.588
		c3.366-0.844,6.954-0.804,10.284,0.134c3.331,0.936,6.407,2.665,8.967,4.956c2.561,2.306,4.47,5.299,5.518,8.548
		C56.181,17.491,56.494,20.955,56.053,24.308z"/>
</g>
<g>
	<g>
		<circle fill="#FFFFFF" cx="32.051" cy="16.601" r="9.453"/>
		<path fill="#1D1E1C" d="M29.163,25.707c-2.354-0.763-4.604-2.221-6.07-4.46c-1.467-2.228-1.812-5.206-0.841-7.773
			c0.453-1.222,1.226-2.392,2.14-3.319c0.924-0.937,2.009-1.674,3.157-2.233c2.296-1.112,4.967-1.484,7.523-0.854
			c2.56,0.587,4.921,2.337,6.206,4.748c1.323,2.383,1.686,5.315,0.792,7.99c-0.43,1.24-1.12,2.518-2.05,3.504
			c-0.914,1.016-2.078,1.781-3.314,2.267C34.212,26.562,31.526,26.459,29.163,25.707z M29.226,25.518
			c1.173,0.352,2.422,0.449,3.611,0.231c1.191-0.203,2.302-0.699,3.264-1.34c1.901-1.336,3.311-3.128,3.953-5.299
			c0.629-2.045,0.532-4.419-0.445-6.428c-0.98-2-2.692-3.682-4.867-4.57c-2.162-0.891-4.798-0.804-6.894,0.385
			c-2.128,1.175-3.47,3.306-4.021,5.519c-0.548,2.152-0.436,4.48,0.398,6.644C25.022,22.832,26.845,24.806,29.226,25.518z"/>
	</g>
	<path fill="#000100" d="M32.112,15.757c-1.322-1.626-3.747-1.843-5.416-0.488c-1.672,1.357-1.957,3.778-0.638,5.401
		c1.322,1.627,3.748,1.844,5.419,0.487C33.148,19.801,33.432,17.382,32.112,15.757z"/>
	<circle fill="#FFFFFF" cx="27.636" cy="17.86" r="1.459"/>
	<circle fill="#FFFFFF" cx="28.185" cy="16.401" r="0.549"/>
</g>
<g>
	<polygon fill="#F7A815" points="0.068,28.152 15.312,18.961 23.596,25.066 19.644,33.761 	"/>
	<path fill="#1D1E1C" d="M0.032,28.092c4.906-3.353,9.915-6.537,14.966-9.652c0.21-0.129,0.468-0.114,0.657,0.018l0.019,0.013
		c0.703,0.491,1.401,0.988,2.082,1.511c0.676,0.529,1.322,1.096,1.971,1.661c1.291,1.139,2.591,2.266,4.001,3.243
		c0.086,0.06,0.115,0.171,0.075,0.263l-0.004,0.009c-0.638,1.458-1.1,2.998-1.669,4.487c-0.556,1.496-1.196,2.953-1.801,4.427
		c-0.14,0.342-0.513,0.519-0.86,0.422l-0.033-0.009c-3.27-0.908-6.515-1.905-9.746-2.949c-3.238-1.019-6.45-2.128-9.641-3.315
		c-0.038-0.014-0.058-0.055-0.045-0.093C0.009,28.113,0.02,28.1,0.032,28.092z M0.263,28.125c3.275,0.673,6.53,1.417,9.759,2.253
		c3.294,0.825,6.574,1.698,9.829,2.66l-0.893,0.412c0.713-1.424,1.39-2.865,2.151-4.268c0.748-1.408,1.604-2.768,2.283-4.208
		l0.07,0.271c-1.351-1.058-2.812-1.966-4.281-2.862c-0.731-0.453-1.466-0.902-2.171-1.392c-0.7-0.495-1.382-1.015-2.06-1.541
		l0.676,0.031C10.566,22.464,5.463,25.375,0.263,28.125z"/>
</g>
<g>
	<path fill="#961B80" d="M98.144,32.761c0,0,0.062,19.925-18.374,25.259c-20.055,5.803-22.339-32.475-22.339-32.475
		s8.117,6.68,16.384,8.469C82.079,35.803,98.144,32.761,98.144,32.761z"/>
	<g>
		<path fill="#1D1E1C" d="M98.144,32.761c0.102,6.534-1.855,13.31-6.162,18.582c-2.162,2.605-4.901,4.785-7.986,6.255
			c-1.547,0.747-3.117,1.341-4.808,1.793c-1.706,0.429-3.524,0.607-5.336,0.353c-1.808-0.25-3.564-0.932-5.078-1.92
			c-1.521-0.984-2.815-2.237-3.917-3.594c-2.209-2.727-3.691-5.844-4.869-8.997c-2.312-6.355-3.513-12.9-4.021-19.6l-0.251-3.316
			l2.646,2.097c2.68,2.122,5.641,4.13,8.705,5.756c3.078,1.624,6.301,2.992,9.742,3.334c3.473,0.391,7.056,0.326,10.619,0.166
			C90.997,33.48,94.574,33.181,98.144,32.761z M98.144,32.761c-3.494,0.853-7.036,1.524-10.614,2.004
			c-3.579,0.473-7.194,0.792-10.882,0.6c-3.75-0.167-7.4-1.33-10.732-2.881c-3.349-1.597-6.464-3.482-9.416-5.807l2.396-1.219
			c0.241,3.147,0.729,6.378,1.341,9.519c0.614,3.151,1.41,6.266,2.488,9.252c1.088,2.973,2.449,5.851,4.305,8.276
			c1.845,2.416,4.323,4.275,7.207,4.725c1.429,0.245,2.934,0.176,4.411-0.138c1.486-0.335,3.018-0.833,4.444-1.455
			c2.869-1.251,5.51-3.049,7.66-5.372c2.146-2.321,3.862-5.077,5.067-8.068C97.032,39.211,97.856,36.023,98.144,32.761z"/>
	</g>
</g>
<g>
	<path fill="#F7A815" d="M50.812,84.377c-0.706-3.579-0.456-5.381,1.042-5.848c1.497-0.464,4.225,0.483,4.932,4.063
		c0.53,2.685-0.743,7.536-1.137,11.694c-0.132,1.386,1.692,1.791,1.264,2.917c-0.061,0.158-2.555-0.18-3.105-0.02
		c-0.683,0.198-4.877,1.163-5.048,0.789c-0.155-0.339,1.179,0.518,2.507-0.668s2.65-2.413,2.47-2.918
		C52.534,91.02,51.21,86.387,50.812,84.377z"/>
	<g>
		<path fill="#1D1E1C" d="M50.812,84.377c-0.232-1.104-0.409-2.221-0.432-3.358c0.002-0.565,0.052-1.153,0.316-1.692
			c0.241-0.556,0.812-0.959,1.411-1.083c1.208-0.264,2.482,0.181,3.416,0.984c0.95,0.809,1.545,1.963,1.857,3.135
			c0.491,2.469,0.012,4.729-0.281,6.97l-0.533,3.326l-0.229,1.649c-0.064,0.336,0.059,0.574,0.427,1.003
			c0.171,0.209,0.387,0.432,0.582,0.781c0.212,0.338,0.268,0.933,0.078,1.305c-0.185,0.315-0.057,0.093-0.101,0.166
			c0.009-0.01-0.015,0.02-0.066,0.065c-0.064,0.068-0.242,0.134-0.248,0.129c-0.046,0.012-0.102,0.021-0.124,0.023l-0.157,0.011
			l-0.242-0.002l-0.44-0.024l-0.845-0.062c-0.277-0.02-0.554-0.037-0.817-0.042c-0.13-0.002-0.262-0.001-0.362,0.008l-0.061,0.007
			l-0.064,0.016l-0.218,0.055c-0.562,0.133-1.115,0.249-1.675,0.359c-0.56,0.109-1.12,0.211-1.691,0.292
			c-0.286,0.041-0.574,0.077-0.877,0.097c-0.154,0.008-0.304,0.017-0.494,0.001c-0.109-0.032-0.182,0.027-0.462-0.176
			c-0.081-0.057-0.159-0.25-0.145-0.224c-0.019,0.001-0.083-0.344,0.116-0.507c0.039-0.038,0.093-0.073,0.134-0.092l0.079-0.027
			c0.065-0.018,0.08-0.015,0.111-0.018c0.062-0.004,0.08,0,0.116,0.002c0.621,0.112,1.015,0.129,1.479-0.044
			c0.218-0.085,0.425-0.21,0.614-0.368l0.631-0.55c0.419-0.371,0.83-0.747,1.205-1.141c0.185-0.197,0.362-0.402,0.491-0.604
			c0.06-0.095,0.113-0.209,0.112-0.245c0.022,0.046-0.034-0.154-0.073-0.277c-0.324-1.088-0.623-2.179-0.906-3.274l-0.851-3.28
			C51.312,86.578,51.026,85.485,50.812,84.377z M50.812,84.377c0.482,2.204,1.156,4.362,1.909,6.487
			c0.387,1.06,0.787,2.114,1.211,3.154c0.04,0.144,0.136,0.202,0.139,0.533c-0.023,0.248-0.114,0.388-0.192,0.536
			c-0.167,0.278-0.356,0.505-0.55,0.727c-0.39,0.436-0.8,0.833-1.213,1.224l-0.627,0.582c-0.235,0.213-0.508,0.398-0.811,0.531
			c-0.585,0.284-1.367,0.254-1.85,0.174c0.001,0-0.018,0,0.011,0l0.059-0.01c0.019-0.005,0.036-0.012,0.054-0.02
			c0.034-0.015,0.08-0.043,0.112-0.076c0.173-0.139,0.111-0.442,0.104-0.409c0.023,0.062-0.031-0.105-0.088-0.136
			c-0.168-0.117-0.09-0.047-0.062-0.062c0.091,0.005,0.224-0.002,0.35-0.014c0.26-0.025,0.531-0.066,0.803-0.112
			c0.543-0.094,1.09-0.208,1.634-0.331c0.544-0.123,1.091-0.254,1.623-0.396l0.192-0.054l0.14-0.037l0.148-0.023
			c0.181-0.021,0.331-0.023,0.483-0.024c0.3,0,0.588,0.012,0.873,0.025l0.844,0.043l0.405,0.014l0.18-0.002l0.055-0.004
			c0.012-0.001-0.01,0-0.021,0.004c0.012-0.007-0.151,0.049-0.199,0.112c-0.042,0.042-0.058,0.068-0.045,0.05
			c-0.037,0.066,0.098-0.162-0.082,0.146c0.032-0.154,0.01-0.176-0.076-0.318c-0.095-0.137-0.286-0.313-0.494-0.52
			c-0.205-0.211-0.443-0.463-0.628-0.812c-0.092-0.174-0.166-0.372-0.205-0.58c-0.019-0.103-0.033-0.204-0.035-0.332
			c-0.002-0.142-0.003-0.128,0.006-0.27c0.043-0.574,0.091-1.146,0.167-1.712c0.146-1.132,0.314-2.252,0.486-3.364
			c0.184-1.109,0.363-2.213,0.479-3.306c0.127-1.086,0.218-2.185,0.045-3.171c-0.144-1.025-0.517-2.025-1.211-2.782
			c-0.677-0.75-1.708-1.265-2.752-1.167c-0.515,0.048-1,0.302-1.278,0.764c-0.273,0.462-0.369,1.028-0.408,1.582
			C50.425,82.145,50.622,83.269,50.812,84.377z"/>
	</g>
</g>
<g>
	<path fill="#1D1E1C" d="M37.047,8.311c0.5,0.005,0.898-0.115,1.27-0.267c0.366-0.164,0.711-0.361,1.042-0.608
		c0.686-0.468,1.306-1.08,2.15-1.619c-0.188,0.981-0.749,1.831-1.574,2.435c-0.419,0.286-0.914,0.513-1.45,0.551
		C37.961,8.849,37.384,8.706,37.047,8.311z"/>
</g>
<g>
	<path fill="#1D1E1C" d="M35.839,8.345c1.723,0.393,3.31,0.671,4.688,0.278c0.682-0.193,1.317-0.535,1.908-1.038
		c0.593-0.5,1.136-1.127,1.736-1.796c-0.059,0.897-0.365,1.775-0.917,2.54c-0.543,0.765-1.384,1.401-2.349,1.659
		c-0.962,0.269-1.97,0.173-2.839-0.133C37.194,9.546,36.411,9.047,35.839,8.345z"/>
</g>
</svg>
