<?xml version="1.0" encoding="utf-8"?>
<!-- Generator: Adobe Illustrator 16.0.0, SVG Export Plug-In . SVG Version: 6.00 Build 0)  -->
<!DOCTYPE svg PUBLIC "-//W3C//DTD SVG 1.1//EN" "http://www.w3.org/Graphics/SVG/1.1/DTD/svg11.dtd">
<svg version="1.1" id="Layer_1" xmlns="http://www.w3.org/2000/svg" xmlns:xlink="http://www.w3.org/1999/xlink" x="0px" y="0px"
	 width="170.098px" height="110.438px" viewBox="0 0 170.098 110.438" enable-background="new 0 0 170.098 110.438"
	 xml:space="preserve">
<g>
	<path fill="#29ABE2" d="M137.975,66.592c0,0,15.312,3.995,16.745,4.467c1.429,0.472,4.448,0.64,5.994,1.25
		c1.545,0.609,4.913,3.678,5.991,6.487c1.077,2.811,0.882,4.373,0.882,4.373s1.171,0.85,1.35,2.17c0.18,1.319,0.18,1.319,0.18,1.319
		s0.394,4.475,0.313,6.174c-0.08,1.697-1.5,6.071-4.372,7.877c-2.87,1.805-13.812,7.745-28.859,8.351
		c-15.05,0.604-64.357,0.877-68.464,0.649c-4.107-0.229-61.894-2.021-66.206-8.656c-2.032-3.126-0.69-3.312-0.159-6.82
		c0,0,1.093-10.286,1.734-11.036c0.643-0.75,1.022-1.123,1.022-1.123s-0.899-6.599-0.188-13.893
		c0.709-7.296,6.376-22.044,6.788-23.067c0.411-1.025,1.211-2.553,1.211-2.553s0.907-3.748,0.429-3.906
		c-0.477-0.156-2.785-0.023-2.718-1.46c0.068-1.438,1.692-5.015,1.854-8.41c0.162-3.397-0.223-5.513,0.775-6.114
		c0.998-0.599,3.796-0.836,3.796-0.836s0.543-1.278,2.184-2.628c1.639-1.349,3.766-2.804,3.766-2.804s2.132-4.072,3.884-5.284
		c1.754-1.212,4.396-3.292,7.092-3.927c2.695-0.637,8.684-1.745,13.112-3.201c4.43-1.456,11.506-2.505,12.59-2.445
		c1.089,0.061,2.037,0.507,2.907,0.031c0.87-0.475,7.831-1.661,10.943,1.656c3.113,3.317,2.124,6.275,2.52,8.13
		c0.397,1.855,1.763,6.253,2.59,6.693c0.828,0.439,1.853,1.805,1.828,2.329c-0.025,0.521-0.686,1.664-0.481,2.461
		c0.205,0.796,0.799,3.579,0.736,4.886c-0.062,1.306-0.124,2.612,0.685,3.443c0.809,0.831,3.007,5.538,4.764,6.813
		c1.756,1.277,7.749,5.146,8.329,5.703c0.579,0.555,9.746,6.436,10.562,7.135c0.813,0.7,6.369,3.629,9.37,4.188
		c3.002,0.561,8.973,2.332,11.715,3.27c2.74,0.939,7.353,3.291,9.343,4.711C136.501,64.416,137.975,66.592,137.975,66.592z"/>
	<path d="M138.029,66.506l8.938,2.206l8.932,2.25c1.496,0.267,3.034,0.365,4.598,0.805c0.387,0.109,0.807,0.3,1.151,0.515
		c0.35,0.213,0.676,0.446,0.991,0.69c0.628,0.489,1.212,1.023,1.763,1.59c1.091,1.141,2.094,2.396,2.745,3.919
		c0.297,0.734,0.552,1.5,0.735,2.278c0.179,0.798,0.322,1.548,0.27,2.481l-0.23-0.531c0.521,0.404,0.898,0.842,1.211,1.401
		c0.15,0.277,0.27,0.579,0.343,0.897c0.073,0.352,0.088,0.557,0.134,0.839c0.183,1.114,0.222,2.154,0.319,3.236
		c0.078,1.075,0.153,2.144,0.166,3.25c0.036,1.175-0.281,2.319-0.636,3.361c-0.758,2.083-1.883,4.164-3.876,5.542
		c-1.88,1.197-3.798,2.157-5.777,3.058c-7.9,3.547-16.541,5.483-25.188,5.669c-17.141,0.514-34.257,0.525-51.385,0.428
		c-4.282-0.028-8.562-0.059-12.849-0.136c-4.312-0.113-8.558-0.412-12.844-0.619c-8.553-0.445-17.099-1.024-25.631-1.801
		c-4.267-0.376-8.529-0.813-12.779-1.382c-4.247-0.584-8.493-1.244-12.658-2.408c-1.039-0.302-2.071-0.644-3.074-1.111
		c-0.5-0.235-0.994-0.503-1.457-0.859c-0.23-0.179-0.454-0.38-0.649-0.63c-0.203-0.275-0.306-0.459-0.466-0.716
		c-0.281-0.479-0.549-0.983-0.708-1.566c-0.172-0.581-0.143-1.25-0.002-1.803c0.296-1.099,0.625-2.039,0.764-3.077
		c0.222-2.084,0.454-4.25,0.734-6.37c0.143-1.066,0.292-2.129,0.489-3.201l0.168-0.811c0.077-0.287,0.109-0.521,0.297-0.904
		c0.018-0.039,0.09-0.141,0.121-0.177l0.065-0.076l0.131-0.152l0.271-0.311c0.184-0.207,0.361-0.402,0.569-0.614l-0.165,0.484
		c-0.434-3.43-0.584-6.849-0.503-10.29c0.056-1.721,0.133-3.43,0.387-5.169c0.259-1.72,0.64-3.399,1.059-5.063
		c0.847-3.327,1.865-6.592,2.948-9.833c0.543-1.62,1.106-3.232,1.689-4.839c0.297-0.808,0.576-1.594,0.911-2.421
		c0.353-0.834,0.724-1.592,1.12-2.375l-0.074,0.197c0.228-1.02,0.468-2.129,0.528-3.07c0.005-0.106,0.002-0.217-0.004-0.254
		c0.003-0.028-0.018-0.004,0.053,0.121c0.03,0.059,0.073,0.114,0.123,0.157c0.085,0.083,0.176,0.146,0.326,0.186l-0.047-0.013
		l0.016,0.005l-0.764-0.091c-0.589-0.107-1.276-0.145-2.021-0.808c-0.369-0.339-0.581-0.939-0.55-1.392
		c0.007-0.165,0.007-0.147,0.019-0.265l0.037-0.267c0.025-0.161,0.057-0.31,0.09-0.456c0.134-0.581,0.293-1.11,0.448-1.639
		c0.312-1.052,0.612-2.08,0.842-3.11c0.229-1.039,0.383-2.037,0.403-3.086c0.042-1.068,0.018-2.137,0.033-3.268
		c0.019-0.572,0.018-1.148,0.199-1.859c0.1-0.349,0.26-0.781,0.657-1.152c0.11-0.09,0.188-0.156,0.338-0.25
		c0.048-0.028,0.124-0.07,0.236-0.125c0.176-0.082,0.327-0.14,0.482-0.193c1.209-0.386,2.289-0.518,3.447-0.644l-0.794,0.576
		c0.391-0.82,0.822-1.355,1.33-1.935c0.496-0.552,1.084-1.052,1.617-1.471c1.089-0.865,2.188-1.669,3.324-2.461l-0.313,0.354
		c0.802-1.484,1.638-2.883,2.729-4.239c0.278-0.336,0.572-0.668,0.925-0.989c0.165-0.155,0.39-0.33,0.57-0.456l0.491-0.347
		c0.648-0.463,1.32-0.946,2.014-1.403c1.39-0.909,2.88-1.784,4.63-2.25c1.647-0.401,3.19-0.696,4.773-1.047
		c3.157-0.686,6.223-1.408,9.291-2.424c3.189-0.927,6.379-1.532,9.627-2.002l1.23-0.153c0.44-0.037,0.781-0.099,1.389-0.073
		c0.942,0.078,1.765,0.329,2.113,0.219c0.046-0.008,0.085-0.024,0.126-0.037l0.231-0.11c0.376-0.152,0.521-0.174,0.766-0.239
		c0.439-0.104,0.862-0.177,1.288-0.235C64.2,0.049,65.049-0.004,65.904,0c1.702,0.018,3.455,0.246,5.121,0.999
		c0.83,0.377,1.613,0.907,2.277,1.622c0.564,0.61,1.138,1.364,1.548,2.156c0.424,0.799,0.72,1.681,0.872,2.565
		c0.155,0.883,0.165,1.766,0.175,2.559c-0.01,0.825,0.083,1.355,0.304,2.17c0.195,0.758,0.419,1.519,0.663,2.266
		c0.244,0.745,0.512,1.488,0.82,2.165c0.144,0.319,0.349,0.686,0.453,0.796c0.04,0.025-0.1-0.061,0.047,0.028
		c0.067,0.036,0.223,0.142,0.337,0.226c0.202,0.157,0.381,0.32,0.547,0.488c0.329,0.341,0.615,0.691,0.871,1.11
		c0.127,0.215,0.25,0.423,0.353,0.75c0.024,0.104,0.05,0.169,0.063,0.307c0.019,0.11,0.003,0.333-0.003,0.341
		c-0.002,0.031-0.028,0.176-0.048,0.258l-0.052,0.191c-0.143,0.453-0.28,0.79-0.357,1.109c-0.04,0.155-0.062,0.298-0.062,0.399
		c0,0.049,0.003,0.09,0.009,0.114l0.064,0.279c0.186,0.815,0.339,1.617,0.468,2.439c0.117,0.82,0.247,1.658,0.193,2.582
		c-0.043,0.791-0.064,1.55,0.112,2.109c0.045,0.136,0.101,0.258,0.165,0.367c0.07,0.11,0.127,0.167,0.309,0.38
		c0.337,0.432,0.515,0.753,0.739,1.118c0.835,1.409,1.598,2.812,2.495,4.072c0.466,0.637,0.89,1.183,1.483,1.574l1.973,1.366
		l4.009,2.722c0.674,0.472,1.315,0.897,2.019,1.452c0.546,0.47,1.259,0.922,1.907,1.378c2.66,1.821,5.354,3.587,8.021,5.449
		c0.323,0.211,0.71,0.551,0.958,0.712c0.316,0.209,0.657,0.413,1.001,0.609c0.688,0.394,1.396,0.765,2.111,1.122
		c1.43,0.707,2.893,1.367,4.387,1.859c0.739,0.258,1.49,0.377,2.311,0.568c0.795,0.185,1.58,0.389,2.362,0.602
		c1.563,0.433,3.113,0.898,4.656,1.385c1.543,0.498,3.08,0.973,4.605,1.581c1.508,0.62,2.963,1.335,4.396,2.094
		c1.425,0.771,2.844,1.557,4.16,2.528C136.036,63.962,137.105,65.184,138.029,66.506z M137.895,66.646
		c-0.947-1.286-2.059-2.481-3.342-3.417c-1.31-0.911-2.746-1.657-4.179-2.38c-1.441-0.712-2.907-1.382-4.402-1.948
		c-1.491-0.547-3.056-0.985-4.598-1.435c-1.549-0.441-3.104-0.861-4.665-1.246c-0.779-0.195-1.561-0.383-2.342-0.548
		c-0.754-0.161-1.605-0.284-2.399-0.544c-1.584-0.489-3.084-1.134-4.561-1.828c-0.737-0.35-1.467-0.715-2.188-1.108
		c-0.361-0.198-0.718-0.4-1.08-0.629c-0.428-0.281-0.642-0.486-0.998-0.712c-2.664-1.784-5.405-3.507-8.108-5.282
		c-0.679-0.46-1.348-0.856-2.042-1.42c-0.573-0.434-1.283-0.896-1.94-1.335l-4.039-2.668l-2.025-1.367l-0.253-0.18
		c-0.099-0.076-0.202-0.152-0.288-0.231c-0.185-0.157-0.34-0.319-0.495-0.483c-0.301-0.329-0.565-0.666-0.816-1.006
		c-0.991-1.36-1.788-2.794-2.616-4.15c-0.197-0.322-0.435-0.696-0.598-0.899c-0.079-0.094-0.306-0.328-0.451-0.561
		c-0.147-0.235-0.26-0.482-0.344-0.728c-0.31-0.994-0.242-1.884-0.22-2.696c0.03-1.398-0.337-3.042-0.674-4.546l-0.075-0.31
		c-0.039-0.173-0.051-0.334-0.052-0.486c0-0.304,0.048-0.562,0.103-0.798c0.11-0.467,0.273-0.881,0.367-1.201l0.026-0.101
		c-0.001-0.018,0.002,0.03,0.008-0.039c0.012-0.092-0.006,0.03,0.002,0.039c0.008,0.037-0.004,0.006,0.001,0.012
		c-0.018-0.06-0.093-0.208-0.175-0.336c-0.167-0.27-0.396-0.547-0.631-0.783c-0.119-0.118-0.241-0.224-0.359-0.314
		c-0.051-0.031-0.058-0.048-0.167-0.109c-0.031-0.007-0.338-0.209-0.437-0.331c-0.437-0.493-0.587-0.865-0.795-1.269
		c-0.37-0.789-0.656-1.565-0.926-2.35c-0.266-0.784-0.508-1.571-0.725-2.373c-0.108-0.422-0.209-0.764-0.298-1.277
		c-0.073-0.484-0.083-0.917-0.096-1.327c-0.011-1.621-0.174-3.002-0.859-4.264c-0.341-0.64-0.747-1.186-1.278-1.76
		c-0.438-0.466-1.011-0.869-1.651-1.154c-1.286-0.583-2.808-0.802-4.321-0.809c-0.76-0.003-1.525,0.048-2.276,0.151
		c-0.373,0.051-0.747,0.118-1.092,0.201c-0.146,0.031-0.394,0.112-0.394,0.11l-0.315,0.148c-0.148,0.058-0.3,0.108-0.452,0.141
		c-0.616,0.132-1.149,0.053-1.57-0.012c-0.441-0.071-0.767-0.138-1.117-0.16c-0.2-0.013-0.664,0.031-1.026,0.07l-1.172,0.148
		c-3.139,0.46-6.309,1.075-9.319,1.96c-3.062,1.024-6.289,1.797-9.438,2.487c-1.569,0.351-3.197,0.671-4.686,1.039
		c-1.379,0.372-2.737,1.116-4.042,1.968c-0.657,0.427-1.301,0.882-1.969,1.352l-0.5,0.349c-0.149,0.105-0.245,0.177-0.376,0.297
		c-0.247,0.22-0.494,0.491-0.731,0.775c-0.946,1.151-1.791,2.529-2.529,3.878l-0.12,0.221l-0.193,0.133
		c-1.095,0.751-2.191,1.542-3.231,2.358c-0.535,0.417-0.984,0.798-1.4,1.251c-0.396,0.427-0.799,0.982-0.994,1.387l-0.254,0.524
		l-0.542,0.052c-1.016,0.098-2.123,0.248-3.003,0.528c-0.104,0.035-0.207,0.076-0.28,0.109c-0.012,0.004-0.057,0.025-0.127,0.066
		c0.037-0.016,0.009,0.004,0.01-0.003c-0.011,0.003-0.072,0.096-0.12,0.269c-0.099,0.35-0.13,0.879-0.142,1.399
		c-0.022,1.058-0.006,2.18-0.057,3.3c-0.029,1.142-0.215,2.318-0.468,3.414c-0.254,1.105-0.578,2.178-0.895,3.223
		c-0.156,0.521-0.314,1.04-0.43,1.525l-0.071,0.349l-0.021,0.139c-0.005,0.019-0.016,0.173-0.013,0.145
		c0.006,0.094-0.003,0.051,0.024,0.093c0.069,0.102,0.533,0.265,1.008,0.317c0.258,0.04,0.474,0.047,0.865,0.113l0.168,0.041
		c0.182,0.057,0.301,0.138,0.414,0.239c0.07,0.071,0.134,0.154,0.185,0.24c0.129,0.248,0.144,0.407,0.159,0.515
		c0.028,0.234,0.021,0.399,0.016,0.566c-0.097,1.246-0.344,2.281-0.6,3.395l-0.022,0.1l-0.052,0.098
		c-0.384,0.729-0.771,1.497-1.091,2.226c-0.314,0.746-0.619,1.56-0.92,2.345c-0.602,1.584-1.184,3.177-1.745,4.776
		c-1.121,3.199-2.177,6.422-3.056,9.681C5.455,63.62,5.06,65.26,4.789,66.902c-0.263,1.626-0.366,3.324-0.444,5.002
		c-0.129,3.361-0.026,6.765,0.346,10.094l0.033,0.289l-0.199,0.196c-0.169,0.167-0.355,0.365-0.529,0.555l-0.451,0.505
		c-0.056,0.096-0.142,0.389-0.198,0.619L3.178,84.92c-0.205,1.03-0.369,2.085-0.525,3.138c-0.313,2.12-0.568,4.207-0.835,6.375
		c-0.159,1.088-0.552,2.176-0.825,3.138c-0.291,0.934,0.04,1.819,0.568,2.727c0.273,0.474,0.493,0.834,0.892,1.126
		c0.382,0.303,0.829,0.559,1.293,0.785c0.932,0.452,1.932,0.802,2.942,1.112c4.068,1.207,8.311,1.863,12.533,2.477
		c4.231,0.59,8.484,1.051,12.743,1.451c8.521,0.763,17.066,1.239,25.614,1.632l6.414,0.239c2.146,0.057,4.271,0.175,6.402,0.156
		c4.275-0.004,8.556-0.056,12.835-0.106l25.674-0.385c8.557-0.111,17.117-0.296,25.658-0.507c8.475-0.122,16.884-1.949,24.632-5.355
		c1.921-0.854,3.846-1.809,5.585-2.899c1.574-1.062,2.684-2.9,3.396-4.792c0.345-0.971,0.629-1.925,0.611-2.901
		c0.007-1.035-0.048-2.104-0.106-3.164c-0.075-1.05-0.104-2.155-0.255-3.157c-0.069-0.582-0.103-0.956-0.321-1.348
		c-0.194-0.383-0.531-0.773-0.851-1.03l-0.255-0.205l0.024-0.327c0.046-0.605-0.055-1.396-0.21-2.096
		c-0.158-0.724-0.377-1.427-0.645-2.125c-0.535-1.328-1.457-2.55-2.471-3.642c-0.512-0.546-1.059-1.063-1.637-1.53
		c-0.6-0.464-1.156-0.89-1.829-1.1c-1.394-0.441-2.945-0.599-4.471-0.914l-8.911-2.528l-8.932-2.489L137.895,66.646z"/>
</g>
<g>
	<path fill="#0071BC" d="M79.993,36.083c7.005-4.974-18.657,0.291-17.33,2.645c2.391,4.24,52.447,38.233,67.938,36.5
		s10.699-7.968,7.374-8.635C124.399,63.87,75.837,39.034,79.993,36.083z"/>
	<path fill="none" stroke="#000000" stroke-width="0.5" stroke-miterlimit="10" stroke-dasharray="4.9633,0.9927" d="M79.993,36.083
		c7.005-4.974-18.657,0.291-17.33,2.645c2.391,4.24,52.447,38.233,67.938,36.5s10.699-7.968,7.374-8.635
		C124.399,63.87,75.837,39.034,79.993,36.083z"/>
</g>
<path fill="#FFFFFF" stroke="#000000" stroke-width="0.9616" stroke-miterlimit="10" d="M131.887,67.259c0,0,1.59-4.627,1.332-5.952
	c-0.261-1.323-3.669-2.648-3.911-2.662c-0.242-0.014-0.921,0.647-0.921,0.647s0.977-0.12,0.932,0.839
	c-0.046,0.957-0.799,3.185-0.909,3.791c-0.107,0.605-0.559,3.288-0.432,3.992c0.13,0.706,1.3,1.557,2.296,1.001
	C131.268,68.359,131.887,67.259,131.887,67.259z"/>
<path fill="#FFFFFF" stroke="#000000" stroke-width="0.9616" stroke-miterlimit="10" d="M118.938,64.444c0,0,1.812-2.432,2.137-4.16
	c0.322-1.729,1.059-3.609,0.612-4.419c-0.445-0.811-2.077-0.465-2.384-0.831c-0.305-0.367-1.584-0.611-1.843-0.276
	c-0.26,0.333-1.719,5.579-1.743,6.103c-0.025,0.521-0.27,2.255-0.049,2.703c0.221,0.449,0.718,1.874,1.778,1.671
	C118.507,65.031,118.938,64.444,118.938,64.444z"/>
<path fill="#FFFFFF" stroke="#000000" stroke-width="0.9616" stroke-miterlimit="10" d="M107.112,60.12c0,0,3.557-3.47,4.121-5.185
	c0.567-1.715-0.158-1.755-0.941-2.235c-0.784-0.48-2.292-1.088-2.558-0.579c-0.267,0.509-2.78,4.125-3.054,4.808
	c-0.275,0.683-0.805,1.614-0.689,2.581c0.115,0.966,1.441,2,2.027,1.508C106.608,60.527,107.112,60.12,107.112,60.12z"/>
<path fill="#FFFFFF" stroke="#000000" stroke-width="0.9616" stroke-miterlimit="10" d="M96.194,53.663c0,0,4.419-4.645,4.773-5.237
	c0.349-0.591-0.255-1.497-0.891-1.707c-0.636-0.211-2.022-1.596-2.679-1.373c-0.658,0.226-3.989,5.804-4.091,6.235
	c-0.103,0.432-0.475,1.457,0.302,2.112C94.387,54.348,96.194,53.663,96.194,53.663z"/>
<path fill="#FFFFFF" stroke="#000000" stroke-width="0.9616" stroke-miterlimit="10" d="M84.943,47.448c0,0,3.681-4.423,4.419-6.303
	c0.734-1.88-0.39-2.03-0.94-2.322c-0.551-0.293-2.551-2.414-2.975-1.999c-0.423,0.413-3.274,6.104-3.559,6.962
	c-0.284,0.857-0.735,3.538,0.371,4.036C83.367,48.322,84.943,47.448,84.943,47.448z"/>
<path fill="#FFFFFF" stroke="#000000" stroke-width="0.9616" stroke-miterlimit="10" d="M74.538,40.408
	c0.564,0.031,5.72-1.427,6.869-1.801c1.147-0.373,3.036-1.054,3.384-1.559c0.349-0.504-1.75-3.938-2.212-4.4
	c-0.464-0.463-1.921-0.369-2.586,0.03c-0.666,0.4-4.863,2.089-5.802,3.171c-0.941,1.083-2.028,1.896-1.838,2.954
	C72.547,39.861,74.538,40.408,74.538,40.408z"/>
<polygon stroke="#000000" stroke-width="0.9616" stroke-miterlimit="10" points="60.943,16.982 64.638,17.062 66.546,13.645 
	64.764,10.147 61.073,10.067 59.163,13.484 "/>
<polygon stroke="#000000" stroke-width="0.9616" stroke-miterlimit="10" points="61.171,28.477 64.861,28.648 66.843,25.279 
	65.138,21.738 61.447,21.567 59.465,24.935 "/>
<path fill="#022563" stroke="#000000" stroke-width="0.9616" stroke-miterlimit="10" d="M61.339,25.072
	c-0.053,1.118,0.742,2.07,1.775,2.127c1.035,0.058,1.917-0.801,1.969-1.919c0.054-1.118-0.741-2.071-1.776-2.129
	C62.274,23.094,61.393,23.954,61.339,25.072z"/>
<path fill="#022563" stroke="#000000" stroke-width="0.9616" stroke-miterlimit="10" d="M60.79,13.647
	c-0.053,1.117,0.743,2.07,1.777,2.127c1.035,0.058,1.914-0.802,1.968-1.919c0.054-1.118-0.74-2.072-1.775-2.129
	C61.726,11.669,60.844,12.529,60.79,13.647z"/>
<g>
	<path fill="#FFFFFF" d="M5.489,82.727c-1.039-0.742-3.988,13.895-3.006,16c3.359,7.196,55.552,9.561,97.332,9.25
		c22.447-0.167,41.782-0.37,49.166-2.667c22.502-7,17.416-10.333,17.878-12.333s1.481-11.009-0.894-8.429
		C153.297,98.311,29.995,100.227,5.489,82.727z"/>
	<path d="M5.475,82.76c-0.097-0.063-0.179,0.025-0.252,0.11c-0.071,0.088-0.128,0.191-0.183,0.293
		c-0.105,0.208-0.194,0.426-0.277,0.646c-0.164,0.44-0.301,0.892-0.432,1.344c-0.257,0.907-0.477,1.824-0.678,2.745
		c-0.399,1.842-0.729,3.701-0.977,5.569c-0.122,0.935-0.225,1.872-0.273,2.811c-0.023,0.469-0.035,0.939-0.011,1.405
		c0.032,0.468,0.067,0.927,0.35,1.296c0.527,0.749,1.366,1.24,2.19,1.659c0.839,0.415,1.722,0.743,2.614,1.036
		c3.587,1.139,7.317,1.785,11.039,2.356c3.729,0.555,7.479,0.97,11.234,1.324c7.511,0.698,15.046,1.141,22.583,1.468
		c7.539,0.312,15.079,0.606,22.624,0.752c15.089,0.324,30.188,0.233,45.281,0.025c7.541-0.144,15.103-0.339,22.588-1.25
		c1.865-0.246,3.731-0.538,5.538-1.039c1.797-0.542,3.592-1.141,5.367-1.765c3.53-1.282,7.101-2.617,10.232-4.668
		c0.767-0.526,1.502-1.112,2.062-1.828c0.572-0.71,0.856-1.589,0.697-2.484c-0.052-0.451-0.216-0.9-0.181-1.452
		c0.096-0.513,0.177-0.927,0.243-1.405c0.133-0.927,0.232-1.862,0.3-2.797c0.064-0.935,0.104-1.873,0.054-2.797
		c-0.027-0.458-0.073-0.924-0.2-1.333c-0.06-0.196-0.171-0.39-0.255-0.421c-0.051-0.042-0.213,0.011-0.371,0.147
		c-0.283,0.26-0.659,0.689-1.031,0.968c-0.376,0.308-0.775,0.58-1.183,0.835c-0.818,0.506-1.677,0.931-2.549,1.313
		c-3.506,1.504-7.196,2.436-10.889,3.251c-3.7,0.799-7.438,1.397-11.182,1.916c-14.99,2.003-30.11,2.732-45.213,2.906
		c-15.105,0.16-30.228-0.431-45.258-1.978c-7.511-0.79-15.007-1.806-22.405-3.341c-3.697-0.774-7.371-1.68-10.965-2.851
		c-3.574-1.189-7.142-2.582-10.241-4.768L5.475,82.76z M5.51,82.698c3.105,2.152,6.675,3.514,10.25,4.672
		c3.595,1.139,7.269,2.014,10.965,2.758c7.398,1.475,14.892,2.433,22.399,3.14c7.511,0.703,15.045,1.145,22.583,1.402
		c7.539,0.248,15.082,0.393,22.625,0.319c15.079-0.159,30.182-0.872,45.13-2.855c3.734-0.507,7.453-1.118,11.139-1.883
		c3.675-0.783,7.35-1.687,10.801-3.14c1.721-0.752,3.356-1.599,4.659-3.008c0.188-0.149,0.519-0.383,0.918-0.205
		c0.345,0.197,0.422,0.488,0.512,0.726c0.147,0.496,0.187,0.979,0.214,1.46c0.044,0.961-0.003,1.912-0.074,2.859
		c-0.075,0.947-0.183,1.889-0.324,2.829c-0.065,0.457-0.167,0.969-0.25,1.381c-0.035,0.398,0.109,0.867,0.169,1.35
		c0.178,0.985-0.174,2.052-0.801,2.798c-0.612,0.769-1.379,1.366-2.168,1.9c-3.21,2.078-6.79,3.389-10.342,4.662
		c-1.787,0.618-3.577,1.206-5.396,1.745c-1.836,0.5-3.711,0.782-5.586,1.021c-3.754,0.458-7.526,0.682-11.298,0.856
		c-3.772,0.163-7.545,0.3-11.319,0.385c-15.096,0.303-30.195,0.49-45.297,0.248c-15.099-0.213-30.203-0.845-45.238-2.348
		c-3.757-0.385-7.509-0.835-11.242-1.418c-3.728-0.601-7.461-1.275-11.066-2.45c-0.897-0.302-1.786-0.64-2.637-1.068
		c-0.837-0.437-1.692-0.934-2.259-1.747c-0.303-0.401-0.349-0.937-0.371-1.396c-0.021-0.477-0.007-0.952,0.021-1.424
		c0.057-0.946,0.166-1.885,0.295-2.821c0.263-1.872,0.606-3.73,1.021-5.573c0.209-0.921,0.436-1.838,0.7-2.746
		c0.135-0.453,0.275-0.904,0.444-1.347c0.085-0.221,0.176-0.44,0.286-0.652c0.057-0.105,0.115-0.21,0.193-0.305
		c0.06-0.085,0.21-0.214,0.339-0.128L5.51,82.698z"/>
</g>
<path fill="#0071BC" d="M14.12,41.76c1.007-2.585-14.135,37.628-6.473,40.94c14.312,6.188,17.881,6.094,27.896,7.777
	C55.426,93.818-3.296,86.477,14.12,41.76z"/>
<path fill="#0071BC" d="M142.508,71.811c-3.128-1.208,12.37-2.527,19.385,4.14c3.39,3.223,4.952,8.166-0.272,9.693
	c-10.022,2.93-32.367,9.167-26.818,4.667S159.77,78.477,142.508,71.811z"/>
<path fill="#058BD6" d="M22.034,20.144c-0.526-1.71-3.391,3.343-4.623,3.921c-1.233,0.579-2.774-0.912-3.083,0
	c-0.308,0.912-2.773,11.871-1.694,12.308c1.078,0.437,4.66,2.467,4.564,4.035s4.559-16.255,5.699-17.26s10.081-9.347,13.163-11.426
	s-2.004-3.899-4.624-1.656S22.343,21.144,22.034,20.144z"/>
<g>
	<polygon fill="#00FF00" points="52.206,41.221 58.284,53.536 71.874,55.51 62.04,65.096 64.361,78.631 52.206,72.241 
		40.051,78.631 42.372,65.096 32.538,55.51 46.128,53.536 	"/>
	<path d="M52.206,41.111l6.303,12.313l-0.188-0.137l13.618,1.777l0.928,0.121l-0.678,0.646l-9.939,9.479l0.087-0.266l2.173,13.561
		l0.048,0.293l-0.266-0.135l-12.225-6.258h0.279L40.261,79.03l-0.808,0.436l0.154-0.91l2.297-13.539l0.136,0.42l-9.851-9.568
		l-0.743-0.722l1.02-0.131l13.622-1.752l-0.206,0.15L52.206,41.111z M52.206,41.337l-5.831,12.32l-0.061,0.126l-0.147,0.024
		L32.61,56.005l0.276-0.853l9.816,9.604l0.18,0.175l-0.043,0.246l-2.346,13.531l-0.652-0.475l12.225-6.258l0.144-0.073l0.136,0.073
		l12.085,6.523l-0.217,0.158l-2.47-13.51l-0.027-0.152l0.114-0.114l9.729-9.693l0.25,0.768l-13.562-2.172l-0.133-0.021l-0.056-0.116
		L52.206,41.337z"/>
</g>
<g>
	<polygon fill="#FFFF00" points="80.053,63.859 83.767,71.386 92.072,72.593 86.062,78.451 87.481,86.723 80.053,82.817 
		72.624,86.723 74.042,78.451 68.032,72.593 76.338,71.386 	"/>
	<path d="M80.053,63.792l3.851,7.525l-0.114-0.083l8.322,1.086l0.567,0.074l-0.414,0.396l-6.074,5.792l0.053-0.162l1.328,8.287
		l0.029,0.18l-0.162-0.083l-7.471-3.825h0.17l-7.386,3.987l-0.493,0.267l0.094-0.556l1.403-8.274l0.083,0.257l-6.02-5.848
		l-0.454-0.441l0.623-0.08l8.325-1.071l-0.126,0.092L80.053,63.792z M80.053,63.931l-3.564,7.529l-0.036,0.078l-0.09,0.015
		l-8.286,1.343l0.169-0.521l5.999,5.869l0.11,0.107l-0.026,0.15l-1.433,8.269l-0.399-0.29l7.472-3.824l0.087-0.045l0.083,0.045
		l7.387,3.987l-0.134,0.096l-1.509-8.256l-0.017-0.093l0.069-0.069l5.945-5.924l0.152,0.469l-8.287-1.328l-0.082-0.013l-0.033-0.071
		L80.053,63.931z"/>
</g>
<g>
	<polygon fill="#ED1C24" points="101.996,73.926 104.41,78.82 109.811,79.604 105.903,83.414 106.826,88.792 101.996,86.252 
		97.166,88.792 98.088,83.414 94.181,79.604 99.581,78.82 	"/>
	<path d="M101.996,73.883l2.503,4.893l-0.074-0.054l5.411,0.706l0.369,0.048l-0.27,0.257l-3.949,3.767l0.034-0.105l0.864,5.388
		l0.019,0.117l-0.105-0.054l-4.857-2.487h0.111l-4.803,2.592l-0.32,0.173l0.062-0.362l0.911-5.379l0.055,0.167l-3.914-3.802
		l-0.295-0.287l0.405-0.052l5.413-0.696l-0.082,0.06L101.996,73.883z M101.996,73.973l-2.317,4.896l-0.023,0.05l-0.059,0.01
		l-5.388,0.873l0.11-0.339l3.9,3.816l0.071,0.07l-0.017,0.098l-0.932,5.376l-0.26-0.188l4.857-2.487l0.057-0.029l0.055,0.029
		l4.802,2.592l-0.086,0.062l-0.981-5.367l-0.012-0.061l0.046-0.045l3.865-3.852l0.1,0.305l-5.39-0.863l-0.053-0.008l-0.021-0.046
		L101.996,73.973z"/>
</g>
<g>
	<g>
		<path fill="none" stroke="#000000" stroke-width="0.5" stroke-miterlimit="10" d="M15.649,42.374
			c0.273-0.064,0.6-0.13,0.977-0.199"/>
		<path fill="none" stroke="#000000" stroke-width="0.5" stroke-miterlimit="10" stroke-dasharray="1.9563,1.9563" d="
			M18.554,41.864c11.318-1.661,44.256-4.528,56.604-10.446"/>
		<path fill="none" stroke="#000000" stroke-width="0.5" stroke-miterlimit="10" d="M76.034,30.974
			c0.305-0.164,0.593-0.329,0.865-0.497"/>
	</g>
</g>
<g>
	<g>
		<path fill="none" stroke="#000000" stroke-width="0.5" stroke-miterlimit="10" d="M15.366,41.112
			c0.273-0.064,0.6-0.13,0.977-0.199"/>
		<path fill="none" stroke="#000000" stroke-width="0.5" stroke-miterlimit="10" stroke-dasharray="1.9563,1.9563" d="
			M18.271,40.603c11.318-1.661,44.256-4.528,56.604-10.446"/>
		<path fill="none" stroke="#000000" stroke-width="0.5" stroke-miterlimit="10" d="M75.751,29.713
			c0.305-0.164,0.593-0.329,0.865-0.497"/>
	</g>
</g>
<path fill="none" stroke="#000000" stroke-width="2" stroke-linecap="round" stroke-miterlimit="10" d="M4.524,92.606
	c6.068,7.335,123.431,18.246,160.48,1.259"/>
</svg>
