<?xml version="1.0" encoding="utf-8"?>
<!-- Generator: Adobe Illustrator 16.0.0, SVG Export Plug-In . SVG Version: 6.00 Build 0)  -->
<!DOCTYPE svg PUBLIC "-//W3C//DTD SVG 1.1//EN" "http://www.w3.org/Graphics/SVG/1.1/DTD/svg11.dtd">
<svg version="1.1" id="Layer_1" xmlns="http://www.w3.org/2000/svg" xmlns:xlink="http://www.w3.org/1999/xlink" x="0px" y="0px"
	 width="119.982px" height="46.375px" viewBox="0 0 119.982 46.375" enable-background="new 0 0 119.982 46.375"
	 xml:space="preserve">
<g>
	<path fill="#FFFF00" d="M22.107,17.661c1.648,0.307,1.525-4.211,1.8-6.563c0.273-2.352-0.842-4.506-2.491-4.813
		c-1.65-0.307-3.211,1.351-3.485,3.703C17.656,12.338,20.456,17.355,22.107,17.661L22.107,17.661z"/>
	<path d="M22.124,17.562c0.579,0.115,0.845-0.547,0.892-1.068c0.072-0.556-0.002-1.139-0.057-1.711
		c-0.134-1.15-0.157-2.296,0.091-3.493l0.188-0.802c0.057-0.256,0.095-0.52,0.114-0.789c0.043-0.537-0.034-1.089-0.239-1.592
		c-0.21-0.497-0.573-0.932-1.018-1.183c-0.442-0.259-0.969-0.272-1.376-0.1c-0.82,0.37-1.308,1.254-1.586,2.157
		c-0.121,0.441-0.208,1-0.175,1.389c0.037,0.381,0.143,0.907,0.281,1.397c0.284,1.007,0.67,2.036,1.004,3.126
		c0.18,0.54,0.373,1.092,0.671,1.579C21.201,16.95,21.601,17.426,22.124,17.562z M22.082,17.756
		c-0.623-0.152-1.083-0.562-1.575-0.922c-0.474-0.388-0.956-0.79-1.392-1.24c-0.889-0.894-1.515-1.986-1.919-3.208
		c-0.193-0.625-0.35-1.248-0.327-2.035c0.039-0.777,0.221-1.374,0.491-2.027c0.272-0.629,0.652-1.231,1.188-1.709
		c0.525-0.479,1.231-0.817,1.967-0.867c0.74-0.056,1.434,0.218,1.957,0.61c0.526,0.401,0.904,0.917,1.218,1.457
		c0.317,0.54,0.567,1.124,0.758,1.742c0.093,0.31,0.162,0.63,0.208,0.956c0.043,0.33,0.046,0.685,0.051,0.94
		c0.027,1.125-0.074,2.312-0.481,3.478c-0.197,0.583-0.443,1.16-0.72,1.718c-0.152,0.274-0.304,0.55-0.524,0.787
		c-0.201,0.243-0.588,0.394-0.883,0.323L22.082,17.756z"/>
</g>
<g>
	<path fill="#FF00FF" d="M21.979,16.287c0.921,0.171,0.851-2.354,1.004-3.667c0.154-1.312-0.468-2.517-1.389-2.688
		c-0.923-0.171-1.796,0.754-1.948,2.067C19.492,13.313,21.056,16.115,21.979,16.287L21.979,16.287z"/>
	<path d="M21.988,16.187c0.297,0.065,0.411-0.29,0.39-0.587c-0.005-0.311-0.118-0.637-0.204-0.954
		c-0.195-0.639-0.233-1.27-0.038-1.954c0.011-0.042,0.025-0.087,0.042-0.129l0.011-0.032c-0.002,0.045,0.006-0.005,0.008-0.002
		l0.021-0.06c0.029-0.079,0.054-0.167,0.079-0.21c0.054-0.103,0.101-0.25,0.134-0.387c0.069-0.279,0.082-0.587-0.017-0.856
		c-0.094-0.27-0.297-0.49-0.523-0.601c-0.117-0.047-0.235-0.077-0.35-0.058c0.014,0.014-0.161,0.011-0.186,0.039l-0.105,0.08
		c-0.304,0.263-0.434,0.681-0.54,1.11c-0.035,0.199-0.062,0.502-0.028,0.633l0.147,0.641c0.132,0.515,0.295,1.076,0.359,1.728
		c0.069,0.62,0.239,1.41,0.81,1.603L21.988,16.187z M21.96,16.385c-1.251-0.559-2.76-1.402-3.176-2.907
		c-0.119-0.378-0.218-0.748-0.192-1.276c0.038-0.52,0.159-0.862,0.344-1.274c0.185-0.388,0.437-0.762,0.795-1.051
		c0.354-0.289,0.832-0.479,1.312-0.479c0.113-0.003,0.247,0.009,0.38,0.034c0.137,0.032,0.126,0.045,0.298,0.095
		c0.207,0.082,0.384,0.2,0.545,0.321c0.309,0.26,0.526,0.563,0.724,0.875c0.19,0.314,0.384,0.641,0.535,1.007
		c0.078,0.185,0.141,0.364,0.187,0.587c0.028,0.12,0.035,0.193,0.051,0.277l0.012,0.062c0,0.023,0.006-0.007,0.002,0.059
		l0.005,0.028c0.008,0.038,0.013,0.075,0.016,0.113c0.072,0.611-0.009,1.284-0.356,1.939c-0.165,0.328-0.373,0.649-0.573,0.961
		c-0.112,0.152-0.213,0.308-0.354,0.443c-0.124,0.14-0.378,0.23-0.544,0.187L21.96,16.385z"/>
</g>
<g>
	<path fill="#FF00FF" d="M113.771,36.041v0.812c0,0.827-0.502,1.517-1.153,1.591L97.696,40.13c-0.67,0.076-1.292-0.456-1.485-1.267
		l-0.182-0.753c0,0-23.865-1.58-31.88-0.122c-5.055,0.918-14.564,5.409-19.797,6.328C33.426,46.234,1.35,42.127,0.386,32.795
		c-1.351-13.057,27.575-16.523,27.575-16.523s12.498,5.641,26.545,3.57c21.022-3.098,49.75-14.917,58.907-18.845
		c1.566-0.673,3.246,0.532,3.579,2.58c0.971,5.964,2.657,13.634,2.371,18.346C118.849,30.402,113.771,36.041,113.771,36.041
		L113.771,36.041z"/>
	<path d="M113.873,36.073c-0.002,0.428,0.072,0.833-0.026,1.302c-0.101,0.452-0.364,0.902-0.821,1.138
		c-0.237,0.122-0.492,0.134-0.69,0.167l-0.646,0.092l-1.293,0.178l-5.173,0.71l-5.174,0.701l-1.295,0.167l-0.646,0.083
		c-0.23,0.016-0.372,0.086-0.789,0.04c-0.647-0.092-1.137-0.542-1.403-1.027c-0.137-0.231-0.231-0.543-0.279-0.745l-0.162-0.632
		l0.518,0.437c-5.618-0.271-11.252-0.401-16.87-0.493c-2.81-0.03-5.619-0.022-8.414,0.083c-2.791,0.137-5.59,0.242-8.169,1.005
		c-5.312,1.532-10.486,3.861-16.021,5.392c-2.847,0.77-5.76,0.815-8.593,0.807c-2.848-0.036-5.68-0.237-8.497-0.544
		c-2.816-0.311-5.619-0.73-8.399-1.269c-2.778-0.541-5.547-1.149-8.263-1.966c-2.71-0.82-5.396-1.796-7.88-3.22
		c-1.238-0.707-2.44-1.534-3.412-2.639c-0.479-0.553-0.896-1.184-1.158-1.894c-0.271-0.722-0.32-1.478-0.313-2.202
		c0.014-1.471,0.454-2.932,1.196-4.191c0.739-1.266,1.741-2.343,2.83-3.284c2.204-1.873,4.771-3.209,7.39-4.322
		c5.279-2.177,10.807-3.554,16.454-4.424l0.18-0.027l0.221,0.089c4.826,1.942,10.068,3.117,15.276,3.586
		c2.613,0.232,5.24,0.263,7.844,0.054c2.594-0.204,5.2-0.697,7.796-1.207c10.372-2.172,20.566-5.322,30.606-8.853
		c5.015-1.789,10.011-3.641,14.979-5.568c2.481-0.968,4.955-1.959,7.417-2.977l0.947-0.392c0.362-0.15,0.874-0.255,1.315-0.221
		c0.928,0.051,1.747,0.547,2.283,1.179c0.548,0.636,0.865,1.405,0.997,2.177l0.313,1.984c0.412,2.631,0.862,5.269,1.229,7.927
		c0.354,2.659,0.684,5.338,0.59,8.074C119.554,26.794,117.341,31.999,113.873,36.073z M113.697,35.974
		c3.253-4.186,5.134-9.436,5.214-14.652c0.004-2.611-0.404-5.247-0.843-7.862c-0.45-2.619-0.986-5.23-1.488-7.859l-0.356-1.965
		c-0.103-0.54-0.335-1.041-0.67-1.411c-0.333-0.373-0.767-0.593-1.183-0.605c-0.226-0.002-0.385,0.024-0.638,0.13l-0.896,0.393
		c-2.452,1.072-4.914,2.118-7.387,3.142c-4.942,2.053-9.93,4.001-14.976,5.793c-10.087,3.579-20.318,6.888-30.903,8.903
		c-2.646,0.488-5.305,0.962-8.04,1.147c-2.723,0.187-5.453,0.122-8.155-0.149c-5.412-0.578-10.684-1.878-15.727-4.019l0.4,0.062
		c-5.504,0.698-11.05,1.871-16.251,3.867c-2.586,1.018-5.114,2.257-7.262,3.988c-2.14,1.692-3.819,4.136-3.854,6.879
		c-0.012,0.679,0.027,1.357,0.253,1.962c0.221,0.617,0.585,1.188,1.022,1.701c0.884,1.027,2.027,1.84,3.224,2.536
		c2.429,1.359,5.093,2.286,7.78,3.062c5.393,1.54,10.981,2.356,16.567,2.794c2.795,0.211,5.598,0.321,8.388,0.268
		c2.786-0.073,5.574-0.231,8.169-1.006c5.332-1.505,10.445-3.947,15.982-5.508c1.404-0.393,2.886-0.621,4.31-0.736
		c1.432-0.125,2.854-0.187,4.273-0.226c2.84-0.071,5.669-0.043,8.495,0.022c5.653,0.117,11.285,0.485,16.919,0.914l0.427,0.033
		l0.091,0.404l0.144,0.636c0.049,0.222,0.081,0.331,0.156,0.481c0.138,0.274,0.37,0.467,0.595,0.503
		c0.017,0.03,0.309-0.006,0.51-0.025l0.649-0.063l1.3-0.126l5.199-0.472l5.201-0.462l1.3-0.116l0.651-0.054
		c0.23-0.021,0.422-0.02,0.58-0.094c0.339-0.145,0.594-0.493,0.703-0.878c0.112-0.37,0.068-0.839,0.099-1.265l0.002-0.037
		L113.697,35.974z"/>
</g>
<g>
	<path fill="#FFFF00" d="M22.004,16.515c0.283,2.073,3.646,0.518,5.503,0.117c1.854-0.404,3.13-2.411,2.849-4.484
		c-0.283-2.077-2.015-3.433-3.872-3.03C24.628,9.519,21.723,14.438,22.004,16.515L22.004,16.515z"/>
	<path d="M22.102,16.496c0.04,0.281,0.147,0.5,0.345,0.652c0.197,0.138,0.447,0.182,0.697,0.148c0.502-0.045,0.99-0.299,1.47-0.535
		c0.483-0.239,0.967-0.49,1.494-0.671c0.264-0.092,0.536-0.176,0.825-0.241c0.121-0.027,0.351-0.074,0.396-0.071
		c0.123-0.024,0.309-0.05,0.363-0.072c0.742-0.122,1.768-0.698,2.153-1.667c0.414-0.945,0.243-2.118-0.354-2.882
		c-0.597-0.769-1.427-1.151-2.172-1.155c-0.189,0-0.376,0.031-0.56,0.083c-0.178,0.054-0.198,0.09-0.371,0.211
		c-0.298,0.234-0.645,0.576-0.968,0.941c-0.656,0.741-1.282,1.572-1.998,2.388c-0.682,0.812-1.407,1.791-1.319,2.877L22.102,16.496z
		 M21.904,16.528c-0.046-2.24,0.273-4.813,1.888-6.673c0.395-0.474,0.829-0.935,1.457-1.311c0.288-0.182,0.776-0.389,1.146-0.428
		c0.361-0.05,0.731-0.05,1.094,0.003c0.724,0.1,1.408,0.414,1.922,0.882c0.523,0.461,0.858,1.069,1.062,1.671
		c0.38,1.229,0.307,2.44-0.02,3.579c-0.332,1.114-0.884,2.376-2.233,3.033c-0.198,0.094-0.287,0.116-0.429,0.173l-0.411,0.126
		c-0.246,0.073-0.506,0.144-0.773,0.208c-0.533,0.13-1.11,0.199-1.706,0.211c-0.596,0.007-1.214-0.036-1.817-0.197
		c-0.297-0.09-0.599-0.225-0.819-0.458c-0.214-0.225-0.325-0.55-0.358-0.814L21.904,16.528z"/>
</g>
<g>
	<path fill="#FFFF00" d="M22.16,16.773c0.222,2.086-3.356,1.871-5.223,2.185c-1.868,0.316-3.559-1.119-3.781-3.205
		c-0.221-2.087,1.112-4.035,2.979-4.351C18.001,11.087,21.938,14.686,22.16,16.773z"/>
	<path d="M22.26,16.769c0.031,0.261,0.001,0.59-0.12,0.861c-0.12,0.284-0.337,0.514-0.566,0.72
		c-0.479,0.387-1.026,0.671-1.574,0.894c-0.551,0.217-1.106,0.369-1.646,0.445c-0.27,0.039-0.535,0.068-0.792,0.088
		c-0.26,0.021-0.468,0.033-0.843,0.045c-0.714-0.009-1.376-0.267-1.899-0.652c-0.524-0.385-0.928-0.861-1.236-1.367
		c-0.312-0.505-0.552-1.042-0.703-1.614c-0.038-0.149-0.07-0.272-0.097-0.447c-0.022-0.138-0.055-0.262-0.071-0.413
		c-0.029-0.316-0.056-0.624-0.038-0.932c0.036-1.234,0.623-2.562,1.793-3.347c0.282-0.203,0.6-0.367,0.935-0.493
		c0.165-0.07,0.343-0.104,0.516-0.153l0.279-0.047c0.103-0.01,0.257-0.014,0.383-0.012c0.836,0.044,1.426,0.341,1.978,0.646
		c2.189,1.222,3.229,3.619,3.704,5.771V16.769z M22.061,16.784c-0.167-1.062-1.121-1.802-1.991-2.358
		c-0.898-0.553-1.733-1.131-2.555-1.569c-0.398-0.212-0.826-0.378-1.083-0.427c-0.009,0.001,0.009-0.01-0.024-0.016l-0.103,0.005
		l-0.051,0.002l-0.013,0c0.13-0.018,0.033-0.004,0.062-0.008l-0.004,0l-0.018,0.003c-0.09,0.02-0.186,0.018-0.274,0.048
		c-0.183,0.042-0.369,0.098-0.544,0.192c-0.7,0.359-1.341,1.053-1.714,1.945c-0.087,0.227-0.156,0.464-0.19,0.692
		c-0.02,0.122-0.022,0.27-0.032,0.403c-0.003,0.096,0.008,0.242,0.02,0.36c0.058,0.497,0.247,0.986,0.562,1.373
		c0.642,0.812,1.743,0.944,2.471,0.733c0.167-0.034,0.494-0.134,0.776-0.166c0.284-0.042,0.562-0.062,0.833-0.074
		c0.544-0.025,1.074,0.027,1.599,0.064c0.52,0.034,1.056,0.078,1.526-0.08c0.482-0.126,0.83-0.588,0.747-1.129V16.784z"/>
</g>
<g>
	<path fill="#FF00FF" d="M22.999,15.931c0.159,1.159,2.036,0.291,3.072,0.066c1.038-0.225,1.749-1.346,1.593-2.505
		c-0.158-1.159-1.125-1.916-2.164-1.69C24.465,12.025,22.842,14.772,22.999,15.931L22.999,15.931z"/>
	<path d="M23.098,15.912c0.027,0.311,0.294,0.444,0.551,0.344c0.258-0.071,0.502-0.278,0.744-0.459
		c0.244-0.184,0.494-0.364,0.787-0.477c0.288-0.127,0.667-0.183,0.879-0.19c0.281,0.054,0.957-0.118,1.186-0.627
		c0.121-0.241,0.155-0.525,0.102-0.789c-0.014-0.06-0.036-0.144-0.053-0.179c-0.03-0.068-0.061-0.158-0.094-0.207
		c-0.059-0.095-0.146-0.198-0.235-0.28c-0.385-0.331-0.78-0.372-1.033-0.336c-0.067,0.011-0.132,0.036-0.195,0.065
		c-0.056,0.032,0.036,0.021-0.035,0.07l-0.433,0.441c-0.345,0.365-0.703,0.781-1.217,1.152c-0.471,0.378-1.005,0.882-0.953,1.476
		V15.912z M22.9,15.945c-0.046-1.253-0.285-2.932,0.738-4.038c0.235-0.29,0.5-0.57,0.921-0.816c0.187-0.119,0.562-0.269,0.813-0.283
		c0.241-0.026,0.488-0.021,0.728,0.021c0.481,0.075,0.927,0.303,1.245,0.623c0.329,0.314,0.504,0.729,0.6,1.112
		c0.052,0.192,0.063,0.384,0.084,0.588c0.009,0.1-0.004,0.164-0.004,0.248c0.007,0.117-0.009,0.188-0.007,0.282
		c-0.021,0.354-0.083,0.692-0.166,1.034c-0.173,0.655-0.379,1.509-1.266,1.996c-0.374,0.189-0.608,0.241-0.906,0.308
		c-0.3,0.062-0.643,0.061-1,0.018c-0.358-0.047-0.733-0.136-1.093-0.272c-0.176-0.078-0.355-0.173-0.483-0.324
		c-0.123-0.143-0.186-0.347-0.204-0.491V15.945z"/>
</g>
<g>
	<path fill="#FF00FF" d="M21.072,16.593c0.125,1.165-1.874,1.044-2.916,1.22c-1.043,0.177-1.987-0.625-2.112-1.791
		c-0.122-1.165,0.621-2.253,1.664-2.43C18.751,13.417,20.949,15.426,21.072,16.593z"/>
	<path d="M21.172,16.587c0.052,0.319-0.093,0.715-0.37,0.983c-0.269,0.267-0.577,0.498-0.89,0.679
		c-0.313,0.177-0.629,0.307-0.93,0.361c-0.15,0.028-0.296,0.046-0.433,0.052c-0.068,0.003-0.135,0.007-0.196,0.004l-0.047-0.001
		c-0.111,0.013-0.063,0.003-0.104,0.004l-0.116-0.01c-1.028-0.062-1.59-0.827-1.92-1.412c-0.175-0.308-0.316-0.62-0.422-0.955
		l-0.137-0.501c-0.03-0.197-0.066-0.383-0.071-0.573c-0.055-0.765,0.262-1.646,1.02-2.178c0.181-0.138,0.388-0.252,0.607-0.342
		c0.108-0.049,0.226-0.077,0.341-0.112l0.19-0.037c0.075-0.009,0.197-0.013,0.295-0.011c0.592,0.029,0.958,0.22,1.3,0.412
		c1.392,0.726,1.639,2.424,1.882,3.631V16.587z M20.973,16.603c-0.087-0.582-0.731-0.919-1.279-1.128
		c-0.582-0.192-1.039-0.461-1.444-0.658c-0.189-0.097-0.391-0.164-0.408-0.188c0.021,0.002,0.067-0.007,0.066-0.013l-0.058,0
		l-0.028,0h-0.008c-0.016,0.002,0.126-0.017,0.065-0.009h-0.002l-0.006,0c-0.031,0.003-0.067-0.007-0.101,0
		c-0.068,0.004-0.144,0.012-0.218,0.04c-0.287,0.106-0.656,0.354-0.939,0.777c-0.064,0.108-0.124,0.226-0.157,0.333
		c-0.019,0.061-0.028,0.149-0.041,0.223c-0.008,0.036-0.01,0.123-0.009,0.183c0.011,0.263,0.11,0.523,0.287,0.711
		c0.356,0.419,1.013,0.294,1.208,0.128l0.11-0.036c-0.002-0.003,0.084-0.016,0.01-0.009l0.066-0.019
		c0.088-0.026,0.173-0.041,0.256-0.056c0.165-0.028,0.321-0.038,0.475-0.039c0.305-0.003,0.595,0.071,0.882,0.148
		c0.284,0.076,0.581,0.173,0.842,0.136c0.268-0.015,0.477-0.233,0.431-0.53V16.603z"/>
</g>
<path d="M96.764,37.065c0.75,0,15.176-1.46,15.938-1.531c0.312-0.029,0.9,1.12,0.189,1.652c-1.295,0.969-14.439,1.754-15.314,1.629
	S96.764,37.065,96.764,37.065z"/>
<g>
	<path fill="#FF00FF" d="M48.517,25.556c0.598,1.567,7.334,0.5,8.584-0.5s3.5-15.711,3.333-17.461S48.6,7.306,48.267,8.139
		S47.85,23.806,48.517,25.556z"/>
	<path d="M48.561,25.532c0.267,0.523,0.947,0.623,1.502,0.693c0.585,0.051,1.177,0.037,1.763-0.029
		c1.169-0.132,2.33-0.376,3.438-0.731c0.54-0.181,1.115-0.396,1.515-0.667l0.064-0.05c-0.031,0.027,0.047-0.046,0.041-0.047
		c-0.005-0.003,0.031-0.053,0.057-0.104c0.056-0.103,0.106-0.23,0.154-0.357c0.101-0.256,0.189-0.529,0.271-0.806
		c0.319-1.113,0.591-2.264,0.863-3.412c0.549-2.298,1.09-4.613,1.473-6.953c0.191-1.17,0.333-2.349,0.442-3.526
		c0.055-0.586,0.105-1.185,0.084-1.755c0.083-0.445-0.637-0.541-1.16-0.623c-2.3-0.178-4.677,0.144-6.989,0.469
		c-1.132,0.188-2.374,0.39-3.317,0.773c-0.041,0.021-0.094,0.051-0.088,0.051c0.001-0.007,0.015,0.002,0.07-0.091l0.012-0.03
		c0.024-0.067,0.005-0.011,0.009-0.022l-0.008,0.026c-0.007,0.021,0.001,0.008,0,0.013l-0.041,0.368l-0.057,0.866l-0.062,1.766
		l-0.229,7.103c-0.051,1.186-0.081,2.372-0.087,3.559c0.015,1.178,0.005,2.39,0.284,3.522L48.561,25.532z M48.47,25.574
		c-0.312-1.171-0.328-2.362-0.468-3.545c-0.115-1.185-0.205-2.373-0.294-3.561c-0.174-2.377-0.218-4.756-0.18-7.141
		c0.011-0.596,0.034-1.192,0.064-1.793l0.062-0.91c0.017-0.165,0.025-0.29,0.073-0.515l0.025-0.095l0.009-0.026l0.018-0.049
		l0.026-0.054c0.089-0.16,0.161-0.202,0.22-0.252c0.122-0.093,0.206-0.126,0.297-0.171C49.6,6.99,50.738,6.88,51.945,6.702
		c1.191-0.155,2.387-0.244,3.587-0.28c1.2-0.036,2.405-0.011,3.618,0.202c0.304,0.061,0.608,0.129,0.915,0.271
		c0.151,0.073,0.31,0.162,0.444,0.324c0.157,0.184,0.152,0.431,0.147,0.565C60.63,8.4,60.555,8.985,60.492,9.58l-0.471,3.537
		c-0.312,2.356-0.565,4.725-0.979,7.076c-0.22,1.174-0.463,2.344-0.838,3.502c-0.095,0.29-0.196,0.58-0.321,0.873
		c-0.068,0.146-0.136,0.292-0.231,0.445c-0.049,0.076-0.096,0.151-0.196,0.261c-0.055,0.054-0.03,0.033-0.119,0.106l-0.117,0.079
		c-0.611,0.36-1.197,0.471-1.794,0.614c-1.189,0.245-2.386,0.371-3.585,0.386c-0.6-0.006-1.199-0.003-1.794-0.096
		c-0.296-0.047-0.594-0.098-0.879-0.206c-0.273-0.1-0.578-0.291-0.694-0.576L48.47,25.574z"/>
</g>
<circle fill="#950599" stroke="#000000" stroke-miterlimit="10" cx="52.576" cy="22.262" r="1.542"/>
<path fill="#BA06BF" d="M114.238,2.928c-0.061-0.585,6.333,23.75,0.166,28.583s-26.167,3.667-25,2.75S117.571,35.086,114.238,2.928z
	"/>
<path fill="#BA06BF" d="M30.934,42.723c0.586,0.051-22.187-1.038-27.02-7.205c-4.834-6.167,0.948-10.974,1.865-9.807
	C6.695,26.878,0.34,40.056,30.934,42.723z"/>
<path fill="#C69C6D" stroke="#000000" stroke-miterlimit="10" d="M117.7,29.295C89.355,38.829,16.477,40.896,2.01,35.534
	c-2.534-0.939,0.417,3.933,6.174,7.19c13.986,7.915,108.156-1.342,108.906-3.282S121.69,27.953,117.7,29.295z"/>
</svg>
