<?xml version="1.0" encoding="utf-8"?>
<!-- Generator: Adobe Illustrator 16.0.0, SVG Export Plug-In . SVG Version: 6.00 Build 0)  -->
<!DOCTYPE svg PUBLIC "-//W3C//DTD SVG 1.1//EN" "http://www.w3.org/Graphics/SVG/1.1/DTD/svg11.dtd">
<svg version="1.1" id="Layer_1" xmlns="http://www.w3.org/2000/svg" xmlns:xlink="http://www.w3.org/1999/xlink" x="0px" y="0px"
	 width="120.806px" height="120.692px" viewBox="0 0 120.806 120.692" enable-background="new 0 0 120.806 120.692"
	 xml:space="preserve">
<circle fill="#A2008B" stroke="#000000" stroke-miterlimit="10" cx="60.771" cy="60.149" r="31.138"/>
<g>
	<path fill="#FC225B" d="M83.928,6.335C79.238,2.7,71.426,2.944,69.422,3.069c0,0-9.078-3.92-15.492-1.502
		c-28.055,10.584-1.908,41.873,0.527,44.582c3.52,3.92,4.293,13.226,4.293,13.226l3.486,0.523c0,0,3.512-8.419,8.031-11.123
		C73.395,46.905,107.611,24.727,83.928,6.335z"/>
	<path d="M83.87,6.417l-0.78-0.538c-0.259-0.181-0.541-0.312-0.81-0.47c-0.267-0.162-0.557-0.283-0.841-0.414
		c-0.283-0.134-0.57-0.26-0.867-0.362c-0.296-0.104-0.583-0.232-0.887-0.313L78.78,4.062c-0.61-0.146-1.223-0.281-1.843-0.38
		c-1.236-0.211-2.491-0.309-3.743-0.333c-1.252-0.025-2.507,0.014-3.747,0.131c-0.054,0.005-0.105-0.002-0.152-0.02l-0.037-0.014
		c-1.604-0.593-3.295-1.047-4.98-1.378c-1.688-0.332-3.399-0.515-5.085-0.51c-1.684-0.003-3.351,0.235-4.859,0.791
		c-0.726,0.296-1.585,0.686-2.37,1.024l-2.215,1.172c-1.405,0.917-2.798,1.875-3.932,3.092c-1.191,1.165-2.113,2.565-2.831,4.062
		c-0.747,1.495-1.08,3.169-1.282,4.844c-0.206,1.688-0.057,3.411,0.156,5.115c0.233,1.71,0.705,3.385,1.227,5.041
		c0.569,1.642,1.234,3.253,1.995,4.822c0.771,1.563,1.616,3.09,2.533,4.574c0.917,1.483,1.864,2.949,2.898,4.354
		c1.038,1.401,2.115,2.775,3.247,4.095l0.856,0.976l0.218,0.236l0.231,0.276l0.421,0.505c0.556,0.77,1.031,1.574,1.407,2.39
		c0.771,1.644,1.326,3.357,1.759,5.091c0.417,1.744,0.735,3.479,0.941,5.285l-0.718-0.767l3.494,0.468l-0.967,0.545
		c0.576-1.363,1.205-2.644,1.906-3.92c0.701-1.27,1.465-2.512,2.333-3.702c0.873-1.186,1.85-2.328,3.062-3.307
		c0.302-0.244,0.643-0.459,0.965-0.688l0.873-0.562c0.577-0.38,1.152-0.779,1.724-1.179c2.295-1.595,4.49-3.338,6.6-5.165
		c1.048-0.922,2.083-1.858,3.067-2.844c0.99-0.978,1.943-1.993,2.841-3.049c0.92-1.04,1.765-2.136,2.567-3.26l1.146-1.721
		c0.333-0.599,0.708-1.181,1.01-1.796c0.285-0.621,0.64-1.219,0.867-1.863l0.384-0.955c0.113-0.322,0.2-0.652,0.302-0.979
		c0.422-1.307,0.592-2.67,0.678-4.04c-0.033-0.681-0.017-1.375-0.115-2.055c-0.133-0.673-0.174-1.374-0.414-2.026
		c-0.191-0.666-0.383-1.335-0.697-1.96l-0.422-0.959c-0.167-0.307-0.357-0.601-0.538-0.901l-0.548-0.899l-0.643-0.835
		c-0.425-0.561-0.85-1.125-1.365-1.609c-0.946-1.051-2.048-1.939-3.119-2.862L83.87,6.417z M83.989,6.256
		c1.092,0.911,2.215,1.789,3.188,2.835c0.246,0.257,0.517,0.492,0.749,0.762l0.689,0.82l0.688,0.824l0.597,0.894l0.598,0.896
		l0.503,0.956c0.367,0.625,0.615,1.305,0.864,1.988c0.295,0.669,0.394,1.396,0.581,2.102c0.152,0.713,0.188,1.448,0.271,2.176
		c0.021,1.461-0.055,2.944-0.398,4.373c-0.082,0.357-0.15,0.721-0.245,1.075l-0.332,1.048c-0.2,0.71-0.508,1.373-0.785,2.053
		c-0.286,0.675-0.645,1.31-0.966,1.969c-0.369,0.627-0.722,1.269-1.117,1.879c-0.803,1.213-1.652,2.395-2.573,3.513
		c-0.917,1.122-1.894,2.189-2.904,3.22c-1.004,1.038-2.058,2.021-3.124,2.989c-2.161,1.903-4.432,3.669-6.794,5.312
		c-0.594,0.408-1.194,0.801-1.809,1.191l-0.925,0.571c-0.257,0.181-0.524,0.336-0.776,0.533c-1.014,0.785-1.926,1.792-2.751,2.873
		c-0.824,1.085-1.572,2.249-2.264,3.449c-0.688,1.195-1.332,2.453-1.885,3.691l-0.015,0.033c-0.167,0.375-0.565,0.576-0.952,0.512
		l-3.479-0.579l-0.016-0.002c-0.39-0.065-0.672-0.388-0.702-0.765c-0.135-1.683-0.391-3.413-0.733-5.09
		c-0.354-1.68-0.787-3.346-1.434-4.911c-0.318-0.794-0.709-1.521-1.139-2.201l-0.395-0.526l-0.179-0.237l-0.217-0.257l-0.833-1.038
		c-1.091-1.392-2.117-2.826-3.103-4.287c-0.988-1.458-1.945-2.938-2.84-4.456c-0.908-1.51-1.717-3.077-2.5-4.656
		c-0.796-1.574-1.459-3.211-2.1-4.859c-0.587-1.668-1.114-3.364-1.467-5.114c-0.318-1.75-0.573-3.542-0.454-5.355
		c0.115-1.798,0.387-3.639,1.119-5.337c0.701-1.693,1.651-3.331,2.943-4.649c0.59-0.718,1.316-1.281,2.006-1.889
		c0.71-0.58,1.497-1.044,2.244-1.569c0.81-0.428,1.618-0.899,2.434-1.285c0.83-0.338,1.573-0.664,2.476-1.012
		c1.796-0.644,3.679-0.774,5.491-0.7c1.82,0.088,3.594,0.435,5.318,0.893c1.728,0.469,3.398,1.046,5.039,1.779l-0.188-0.033
		c2.562-0.068,5.111,0.176,7.607,0.671c0.624,0.125,1.24,0.286,1.853,0.457l0.907,0.294c0.307,0.086,0.598,0.219,0.896,0.328
		c0.3,0.107,0.59,0.237,0.876,0.377c0.287,0.137,0.579,0.262,0.853,0.432c0.273,0.165,0.565,0.307,0.822,0.49l0.774,0.546
		L83.989,6.256z"/>
</g>
<g>
	<path fill="#FC225B" d="M14.672,21.705C9.76,25.042,7.58,32.543,7.082,34.493c0,0-6.533,7.43-6.211,14.271
		c1.393,29.946,39.23,14.747,42.561,13.27c4.811-2.137,13.902,0.006,13.902,0.006l1.582-3.155c0,0-6.93-5.942-8.102-11.073
		C50,44.259,39.477,4.866,14.672,21.705z"/>
	<path d="M14.73,21.786l-0.751,0.574c-0.252,0.191-0.465,0.418-0.698,0.625c-0.236,0.203-0.441,0.442-0.654,0.672
		c-0.216,0.228-0.424,0.461-0.612,0.712c-0.19,0.25-0.401,0.483-0.573,0.746l-0.524,0.781c-0.328,0.536-0.646,1.076-0.932,1.635
		c-0.583,1.111-1.063,2.274-1.474,3.458c-0.41,1.184-0.761,2.39-1.03,3.605c-0.012,0.053-0.034,0.1-0.065,0.14l-0.024,0.03
		c-1.06,1.343-2.013,2.811-2.848,4.312c-0.837,1.504-1.539,3.074-2.056,4.679c-0.522,1.6-0.811,3.259-0.748,4.864
		c0.058,0.783,0.163,1.72,0.242,2.572l0.431,2.468c0.438,1.621,0.918,3.24,1.725,4.694c0.739,1.493,1.786,2.802,2.987,3.946
		c1.192,1.173,2.681,2.006,4.211,2.715c1.541,0.718,3.227,1.107,4.913,1.431c1.698,0.307,3.437,0.375,5.172,0.391
		c1.737-0.034,3.476-0.17,5.202-0.408c1.725-0.25,3.438-0.583,5.132-0.996s3.381-0.862,5.037-1.411
		c1.653-0.554,3.292-1.153,4.897-1.821l1.193-0.513l0.292-0.133l0.334-0.135l0.61-0.244c0.903-0.292,1.814-0.495,2.707-0.601
		c1.801-0.226,3.603-0.224,5.386-0.099c1.787,0.143,3.535,0.377,5.316,0.739l-0.951,0.444l1.532-3.18l0.219,1.09
		c-1.118-0.969-2.143-1.962-3.141-3.023c-0.992-1.058-1.938-2.168-2.802-3.361c-0.858-1.196-1.644-2.478-2.2-3.933
		c-0.14-0.362-0.238-0.752-0.356-1.129l-0.266-1.005c-0.183-0.666-0.385-1.336-0.589-2.003c-0.808-2.675-1.787-5.302-2.873-7.873
		c-0.554-1.281-1.124-2.555-1.757-3.795c-0.624-1.245-1.295-2.464-2.022-3.645c-0.705-1.196-1.486-2.338-2.307-3.449l-1.282-1.622
		c-0.467-0.501-0.905-1.038-1.396-1.516c-0.503-0.463-0.961-0.985-1.504-1.401l-0.789-0.66c-0.271-0.208-0.559-0.392-0.838-0.59
		c-1.113-0.805-2.356-1.388-3.633-1.893c-0.658-0.179-1.312-0.409-1.99-0.526c-0.681-0.082-1.36-0.259-2.055-0.232
		c-0.692-0.023-1.389-0.048-2.08,0.057l-1.042,0.105c-0.344,0.063-0.683,0.154-1.023,0.232l-1.024,0.243l-0.993,0.353
		c-0.664,0.231-1.332,0.461-1.952,0.802C17.122,20.281,15.938,21.053,14.73,21.786z M14.613,21.624
		c1.204-0.757,2.388-1.556,3.684-2.158c0.321-0.155,0.628-0.34,0.957-0.477l0.993-0.402l0.995-0.399l1.034-0.292l1.038-0.291
		l1.064-0.183c0.708-0.156,1.431-0.182,2.157-0.207c0.728-0.075,1.449,0.057,2.179,0.097c0.725,0.076,1.435,0.268,2.152,0.415
		c1.396,0.432,2.783,0.962,4.036,1.73c0.314,0.189,0.639,0.366,0.946,0.566l0.895,0.64c0.613,0.41,1.148,0.908,1.709,1.381
		c0.553,0.481,1.047,1.019,1.573,1.528c0.483,0.544,0.984,1.078,1.442,1.643c0.906,1.139,1.768,2.311,2.546,3.532
		c0.784,1.219,1.498,2.478,2.165,3.757c0.677,1.276,1.286,2.582,1.878,3.895c1.142,2.643,2.12,5.349,2.952,8.103
		c0.205,0.691,0.394,1.383,0.574,2.088l0.258,1.056c0.093,0.3,0.157,0.603,0.267,0.903c0.434,1.206,1.11,2.385,1.884,3.502
		c0.778,1.119,1.654,2.189,2.582,3.218c0.925,1.023,1.922,2.024,2.93,2.931l0.027,0.024c0.306,0.276,0.374,0.717,0.191,1.066
		l-1.632,3.129l-0.008,0.014c-0.183,0.35-0.576,0.518-0.943,0.43c-1.643-0.392-3.366-0.684-5.067-0.876
		c-1.706-0.184-3.425-0.286-5.113-0.155c-0.854,0.057-1.665,0.204-2.443,0.403l-0.622,0.213l-0.281,0.098l-0.312,0.126l-1.244,0.471
		c-1.66,0.606-3.341,1.139-5.035,1.625c-1.692,0.489-3.395,0.942-5.114,1.324c-1.717,0.397-3.457,0.682-5.2,0.939
		c-1.743,0.271-3.504,0.396-5.27,0.496c-1.768,0.043-3.543,0.021-5.315-0.184c-1.763-0.238-3.546-0.549-5.233-1.222
		c-1.674-0.664-3.342-1.491-4.73-2.712c-1.394-1.189-2.658-2.599-3.512-4.235c-0.501-0.783-0.812-1.647-1.177-2.491
		c-0.332-0.854-0.531-1.747-0.799-2.619c-0.157-0.902-0.355-1.817-0.47-2.711c-0.064-0.894-0.146-1.702-0.196-2.667
		c-0.059-1.907,0.397-3.738,1.028-5.438c0.646-1.705,1.523-3.284,2.491-4.782c0.979-1.498,2.044-2.91,3.248-4.244l-0.09,0.17
		c0.725-2.461,1.744-4.81,2.986-7.031c0.312-0.555,0.655-1.091,1.008-1.621l0.561-0.772c0.177-0.265,0.394-0.5,0.589-0.75
		c0.194-0.252,0.409-0.488,0.631-0.716c0.219-0.231,0.429-0.47,0.675-0.678c0.241-0.209,0.467-0.442,0.721-0.63L14.613,21.624z"/>
</g>
<g>
	<path fill="#FC225B" d="M7.887,92.321c1.654,5.701,8.119,10.092,9.818,11.166c0,0,5.041,8.512,11.65,10.322
		c28.914,7.926,26.154-32.758,25.771-36.377c-0.543-5.24,4.299-13.223,4.299-13.223l-2.508-2.477c0,0-7.787,4.748-13.037,4.281
		C40.254,65.688-0.465,63.524,7.887,92.321z"/>
	<path d="M7.982,92.291l0.313,0.892c0.104,0.299,0.254,0.57,0.379,0.857c0.12,0.287,0.283,0.556,0.437,0.83
		c0.149,0.275,0.308,0.545,0.488,0.803c0.179,0.258,0.335,0.53,0.533,0.775l0.581,0.74c0.408,0.477,0.824,0.946,1.267,1.391
		c0.877,0.897,1.835,1.714,2.835,2.469c0.999,0.755,2.037,1.461,3.11,2.092c0.047,0.027,0.085,0.064,0.113,0.106l0.021,0.032
		c0.949,1.423,2.05,2.784,3.218,4.042c1.171,1.261,2.447,2.415,3.813,3.402c1.36,0.992,2.849,1.779,4.396,2.216
		c0.761,0.188,1.686,0.376,2.521,0.565l2.479,0.353c1.677,0.084,3.366,0.127,4.998-0.19c1.648-0.242,3.217-0.833,4.678-1.622
		c1.483-0.771,2.736-1.929,3.884-3.165c1.159-1.244,2.051-2.726,2.88-4.23c0.817-1.521,1.42-3.152,1.971-4.798
		c0.504-1.663,0.913-3.358,1.22-5.074c0.296-1.717,0.509-3.45,0.639-5.189c0.13-1.739,0.226-3.482,0.214-5.227
		c-0.016-1.744-0.08-3.488-0.22-5.221l-0.121-1.293l-0.037-0.318l-0.024-0.36l-0.044-0.656c0.002-0.949,0.091-1.879,0.266-2.76
		c0.342-1.783,0.899-3.496,1.568-5.153c0.688-1.656,1.45-3.247,2.345-4.829l0.129,1.041l-2.547-2.436l1.104,0.128
		c-1.268,0.764-2.528,1.431-3.846,2.052c-1.313,0.616-2.662,1.172-4.063,1.625c-1.403,0.447-2.864,0.796-4.42,0.877
		c-0.388,0.021-0.789-0.005-1.184-0.01l-1.039-0.059c-0.689-0.032-1.39-0.047-2.087-0.059c-2.794-0.059-5.595,0.061-8.376,0.299
		c-1.389,0.13-2.777,0.279-4.151,0.498c-1.377,0.208-2.744,0.47-4.092,0.797c-1.354,0.301-2.683,0.691-3.992,1.129l-1.939,0.718
		c-0.621,0.289-1.267,0.54-1.873,0.86c-0.596,0.335-1.233,0.61-1.797,0.998l-0.871,0.546c-0.281,0.195-0.545,0.411-0.82,0.615
		c-1.109,0.81-2.048,1.812-2.922,2.871C9.541,76.831,9.12,77.382,8.8,77.99c-0.288,0.623-0.667,1.214-0.856,1.883
		c-0.236,0.651-0.475,1.306-0.588,1.996l-0.223,1.024c-0.046,0.346-0.063,0.696-0.095,1.045l-0.085,1.049l0.029,1.054
		c0.015,0.703,0.027,1.409,0.159,2.104C7.29,89.551,7.657,90.915,7.982,92.291z M7.791,92.351c-0.348-1.378-0.741-2.751-0.913-4.17
		c-0.048-0.353-0.13-0.702-0.158-1.058l-0.076-1.068l-0.072-1.07l0.042-1.074l0.044-1.077l0.155-1.069
		c0.07-0.722,0.269-1.417,0.469-2.116c0.154-0.715,0.502-1.361,0.766-2.042c0.296-0.667,0.698-1.282,1.06-1.919
		c0.842-1.194,1.774-2.349,2.892-3.304c0.277-0.241,0.546-0.495,0.831-0.725l0.885-0.653c0.579-0.457,1.218-0.812,1.842-1.199
		c0.628-0.377,1.292-0.681,1.938-1.025c0.667-0.291,1.329-0.602,2.009-0.864c1.362-0.51,2.744-0.967,4.146-1.33
		c1.402-0.369,2.819-0.658,4.242-0.898c1.423-0.249,2.853-0.425,4.284-0.582c2.867-0.269,5.742-0.364,8.619-0.303
		c0.721,0.019,1.437,0.053,2.163,0.099l1.083,0.082c0.314,0.004,0.622,0.036,0.941,0.025c1.281-0.04,2.611-0.319,3.914-0.709
		c1.306-0.394,2.594-0.896,3.858-1.46c1.26-0.562,2.52-1.202,3.694-1.879l0.031-0.018c0.356-0.206,0.797-0.134,1.073,0.147
		l2.468,2.517l0.011,0.011c0.276,0.282,0.314,0.708,0.118,1.03c-0.88,1.441-1.689,2.991-2.397,4.55
		c-0.701,1.566-1.329,3.169-1.727,4.815c-0.209,0.83-0.32,1.647-0.372,2.449l0.01,0.658l0.006,0.296l0.024,0.336l0.065,1.329
		c0.064,1.767,0.053,3.53-0.009,5.291c-0.058,1.761-0.152,3.52-0.321,5.273c-0.152,1.755-0.42,3.499-0.714,5.236
		c-0.281,1.742-0.707,3.456-1.157,5.165c-0.505,1.695-1.076,3.376-1.818,4.999c-0.771,1.603-1.619,3.202-2.78,4.599
		c-1.15,1.387-2.451,2.717-4.043,3.66c-1.562,0.957-3.293,1.725-5.113,2.031c-0.898,0.234-1.817,0.263-2.732,0.35
		c-0.915,0.051-1.825-0.035-2.738-0.049c-0.906-0.129-1.837-0.223-2.724-0.391c-0.87-0.215-1.663-0.388-2.598-0.637
		c-1.831-0.534-3.431-1.535-4.854-2.661c-1.421-1.142-2.651-2.465-3.777-3.849c-1.121-1.395-2.134-2.844-3.029-4.401l0.134,0.138
		c-2.117-1.449-4.036-3.144-5.765-5.011c-0.432-0.468-0.836-0.96-1.23-1.459l-0.562-0.771c-0.197-0.25-0.354-0.528-0.532-0.792
		c-0.18-0.263-0.337-0.539-0.486-0.82c-0.152-0.28-0.314-0.553-0.436-0.851c-0.125-0.294-0.276-0.581-0.377-0.88L7.791,92.351z"/>
</g>
<g>
	<path fill="#FC225B" d="M72.947,120.592c5.934,0.186,12.109-4.604,13.654-5.885c0,0,9.652-2.162,13.418-7.887
		c16.473-25.051-23.07-35-26.633-35.758c-5.148-1.1-11.246-8.174-11.246-8.174l-3.129,1.621c0,0,2.111,8.875,0.041,13.721
		C57.621,81.579,42.982,119.635,72.947,120.592z"/>
	<path d="M72.945,120.492l0.947-0.023c0.316-0.006,0.621-0.065,0.932-0.095c0.311-0.026,0.617-0.098,0.924-0.159
		c0.309-0.058,0.614-0.125,0.915-0.217c0.3-0.09,0.607-0.155,0.901-0.267l0.884-0.324c0.579-0.241,1.154-0.492,1.714-0.775
		c1.125-0.556,2.197-1.214,3.225-1.931c1.026-0.716,2.02-1.485,2.951-2.31c0.041-0.036,0.088-0.061,0.137-0.075l0.037-0.01
		c1.646-0.463,3.281-1.089,4.84-1.811c1.562-0.724,3.053-1.581,4.415-2.575c1.363-0.987,2.572-2.159,3.466-3.495
		c0.413-0.666,0.879-1.487,1.315-2.223l1.103-2.25c0.598-1.568,1.161-3.162,1.363-4.812c0.278-1.643,0.201-3.317-0.098-4.95
		c-0.274-1.649-0.988-3.199-1.81-4.672c-0.825-1.486-1.959-2.792-3.133-4.046c-1.194-1.247-2.56-2.325-3.954-3.357
		c-1.426-0.994-2.911-1.906-4.448-2.729c-1.542-0.812-3.124-1.55-4.737-2.211c-1.614-0.661-3.242-1.291-4.905-1.819
		c-1.663-0.524-3.342-1.002-5.032-1.405l-1.268-0.286l-0.314-0.063l-0.35-0.087l-0.638-0.161c-0.902-0.295-1.76-0.666-2.544-1.105
		c-1.59-0.876-3.046-1.936-4.416-3.084c-1.361-1.166-2.64-2.383-3.867-3.722l1.03,0.199l-3.104,1.671l0.463-1.011
		c0.336,1.442,0.58,2.847,0.764,4.292c0.18,1.439,0.292,2.893,0.289,4.367c-0.009,1.472-0.128,2.97-0.533,4.474
		c-0.101,0.375-0.25,0.749-0.376,1.123l-0.377,0.969c-0.243,0.646-0.475,1.307-0.701,1.966c-0.919,2.639-1.67,5.339-2.303,8.058
		c-0.306,1.361-0.594,2.728-0.81,4.103c-0.227,1.374-0.401,2.755-0.506,4.137c-0.133,1.382-0.172,2.765-0.161,4.146l0.084,2.066
		c0.083,0.68,0.122,1.372,0.239,2.047c0.135,0.67,0.198,1.362,0.394,2.017l0.25,0.998c0.099,0.327,0.222,0.645,0.332,0.97
		c0.427,1.306,1.091,2.507,1.826,3.667c0.427,0.532,0.821,1.103,1.3,1.595c0.504,0.466,0.949,1.009,1.526,1.396
		c0.546,0.426,1.095,0.855,1.716,1.176l0.905,0.528c0.315,0.15,0.643,0.276,0.965,0.413l0.972,0.405l1.011,0.298
		c0.673,0.204,1.349,0.41,2.05,0.499c1.383,0.293,2.797,0.365,4.205,0.482H72.945z M72.944,120.692
		c-1.419-0.095-2.844-0.145-4.246-0.42c-0.351-0.063-0.707-0.094-1.054-0.176l-1.04-0.258l-1.04-0.262l-1.009-0.372l-1.01-0.374
		l-0.969-0.478c-0.664-0.29-1.265-0.694-1.867-1.101c-0.632-0.367-1.139-0.898-1.705-1.359c-0.543-0.487-1.003-1.061-1.498-1.602
		c-0.876-1.169-1.686-2.414-2.248-3.771c-0.144-0.337-0.302-0.671-0.433-1.014l-0.349-1.043c-0.255-0.692-0.396-1.41-0.571-2.122
		c-0.164-0.714-0.248-1.439-0.375-2.161c-0.07-0.724-0.162-1.45-0.201-2.177c-0.063-1.453-0.071-2.908,0.017-4.354
		c0.082-1.447,0.245-2.885,0.456-4.312c0.202-1.43,0.477-2.844,0.771-4.254c0.63-2.81,1.429-5.574,2.375-8.291
		c0.24-0.679,0.495-1.35,0.763-2.027l0.413-1.005c0.101-0.297,0.227-0.58,0.314-0.887c0.359-1.23,0.505-2.582,0.537-3.94
		c0.028-1.363-0.051-2.744-0.196-4.121c-0.146-1.372-0.364-2.767-0.646-4.093l-0.008-0.036c-0.086-0.403,0.118-0.8,0.471-0.975
		l3.154-1.571l0.015-0.007c0.354-0.176,0.771-0.081,1.016,0.206c1.1,1.282,2.323,2.531,3.587,3.686
		c1.273,1.151,2.604,2.244,4.047,3.13c0.724,0.455,1.467,0.814,2.214,1.11l0.629,0.193l0.284,0.086l0.326,0.081l1.284,0.35
		c1.7,0.484,3.373,1.042,5.029,1.645c1.656,0.599,3.3,1.233,4.916,1.936c1.622,0.688,3.197,1.48,4.759,2.297
		c1.569,0.806,3.067,1.74,4.555,2.697c1.455,1.004,2.878,2.067,4.191,3.275c1.286,1.229,2.545,2.529,3.515,4.065
		c0.964,1.522,1.826,3.171,2.231,4.976c0.429,1.781,0.623,3.665,0.353,5.491c-0.056,0.928-0.312,1.81-0.512,2.707
		c-0.234,0.887-0.598,1.725-0.894,2.589c-0.402,0.822-0.779,1.679-1.213,2.47c-0.474,0.762-0.883,1.462-1.409,2.274
		c-1.074,1.576-2.521,2.789-4.031,3.793c-1.524,0.998-3.163,1.759-4.828,2.402c-1.673,0.635-3.364,1.15-5.123,1.521l0.174-0.085
		c-2.033,1.564-4.238,2.865-6.549,3.932c-0.578,0.266-1.171,0.498-1.768,0.719l-0.907,0.295c-0.298,0.11-0.611,0.174-0.917,0.261
		c-0.306,0.09-0.617,0.154-0.931,0.209c-0.313,0.059-0.623,0.128-0.944,0.152c-0.317,0.027-0.638,0.083-0.953,0.086l-0.947,0.013
		H72.944z"/>
</g>
<g>
	<path fill="#FC225B" d="M119.941,67.452c2.014-5.584-0.633-12.937-1.373-14.804c0,0,0.918-9.849-3.359-15.199
		C96.477,14.042,74.797,48.579,72.975,51.73c-2.639,4.559-11.25,8.168-11.25,8.168l0.576,3.48c0,0,9.092,0.732,13.061,4.193
		C78.104,69.973,109.775,95.657,119.941,67.452z"/>
	<path d="M119.847,67.42l0.27-0.905c0.093-0.303,0.131-0.611,0.198-0.916c0.071-0.303,0.098-0.617,0.135-0.928
		c0.04-0.311,0.071-0.623,0.076-0.937c0.008-0.313,0.041-0.626,0.025-0.94l-0.035-0.94c-0.049-0.626-0.11-1.25-0.207-1.87
		c-0.181-1.241-0.476-2.464-0.84-3.663c-0.363-1.198-0.788-2.38-1.284-3.521c-0.021-0.05-0.03-0.102-0.028-0.152l0.001-0.039
		c0.068-1.709-0.023-3.458-0.229-5.162c-0.207-1.708-0.562-3.392-1.087-4.994c-0.517-1.603-1.258-3.114-2.251-4.377
		c-0.505-0.598-1.143-1.295-1.707-1.938l-1.799-1.743c-1.307-1.054-2.648-2.082-4.155-2.784c-1.476-0.773-3.093-1.216-4.737-1.437
		c-1.653-0.249-3.348-0.048-5.003,0.278c-1.668,0.325-3.261,1-4.816,1.73c-1.555,0.75-3.001,1.716-4.414,2.724
		c-1.385,1.049-2.712,2.18-3.969,3.387c-1.249,1.216-2.439,2.492-3.567,3.823c-1.127,1.33-2.229,2.685-3.245,4.103
		c-1.013,1.42-1.985,2.868-2.892,4.352l-0.663,1.117l-0.158,0.279l-0.19,0.306l-0.351,0.557c-0.56,0.766-1.177,1.467-1.837,2.077
		c-1.324,1.241-2.783,2.299-4.298,3.246c-1.53,0.935-3.082,1.774-4.736,2.527l0.508-0.918l0.632,3.471l-0.818-0.752
		c1.475,0.126,2.888,0.328,4.318,0.599c1.424,0.273,2.842,0.615,4.242,1.072c1.397,0.463,2.785,1.039,4.091,1.888
		c0.326,0.211,0.636,0.469,0.952,0.704l0.806,0.659c0.539,0.431,1.097,0.855,1.653,1.274c2.225,1.69,4.561,3.239,6.95,4.681
		c1.2,0.711,2.411,1.407,3.652,2.038c1.236,0.641,2.495,1.233,3.777,1.76c1.273,0.553,2.576,1.018,3.894,1.434l1.99,0.559
		c0.673,0.131,1.343,0.308,2.021,0.405c0.679,0.079,1.356,0.231,2.04,0.249l1.026,0.07c0.342,0.008,0.683-0.012,1.024-0.016
		c1.374-0.003,2.722-0.263,4.052-0.604c0.638-0.242,1.303-0.441,1.919-0.744c0.599-0.334,1.252-0.59,1.799-1.02
		c0.573-0.388,1.151-0.777,1.648-1.269l0.782-0.698c0.24-0.253,0.461-0.525,0.69-0.79l0.686-0.799l0.596-0.869
		c0.401-0.578,0.806-1.156,1.107-1.796C118.797,70.043,119.301,68.724,119.847,67.42z M120.036,67.483
		c-0.528,1.32-1.017,2.662-1.711,3.911c-0.169,0.313-0.309,0.644-0.493,0.948l-0.567,0.909l-0.57,0.909l-0.665,0.844l-0.668,0.845
		l-0.754,0.773c-0.48,0.543-1.05,0.989-1.623,1.436c-0.544,0.488-1.206,0.806-1.819,1.203c-0.631,0.365-1.318,0.626-1.985,0.93
		c-1.383,0.472-2.816,0.857-4.281,0.973c-0.365,0.032-0.731,0.08-1.099,0.099l-1.1,0.009c-0.737,0.029-1.462-0.06-2.194-0.113
		c-0.73-0.064-1.445-0.208-2.171-0.311c-0.71-0.157-1.429-0.294-2.133-0.481c-1.401-0.389-2.787-0.831-4.135-1.361
		c-1.352-0.525-2.668-1.125-3.96-1.767c-1.297-0.634-2.558-1.332-3.808-2.047c-2.478-1.468-4.858-3.081-7.15-4.821
		c-0.571-0.438-1.131-0.888-1.691-1.353l-0.828-0.703c-0.251-0.188-0.481-0.395-0.746-0.573c-1.06-0.721-2.3-1.277-3.583-1.726
		c-1.287-0.448-2.625-0.799-3.979-1.085c-1.35-0.285-2.745-0.508-4.093-0.649l-0.036-0.004c-0.41-0.043-0.725-0.359-0.782-0.749
		l-0.521-3.49l-0.002-0.016c-0.059-0.391,0.161-0.758,0.51-0.903c1.559-0.648,3.125-1.426,4.614-2.271
		c1.488-0.855,2.939-1.782,4.228-2.88c0.657-0.548,1.228-1.144,1.74-1.763l0.379-0.538l0.169-0.244l0.179-0.286l0.729-1.112
		c0.986-1.467,2.033-2.886,3.118-4.275c1.082-1.39,2.193-2.758,3.36-4.077c1.154-1.331,2.396-2.583,3.654-3.816
		c1.251-1.243,2.604-2.38,3.973-3.498c1.404-1.074,2.854-2.099,4.409-2.976c1.565-0.843,3.191-1.64,4.952-2.087
		c1.745-0.446,3.58-0.757,5.422-0.585c1.826,0.143,3.678,0.54,5.331,1.362c0.864,0.339,1.625,0.855,2.416,1.323
		c0.771,0.496,1.456,1.101,2.187,1.649c0.657,0.637,1.355,1.26,1.974,1.917c0.578,0.686,1.117,1.291,1.727,2.042
		c1.166,1.509,1.872,3.259,2.361,5.006c0.478,1.759,0.696,3.552,0.794,5.333c0.088,1.787,0.057,3.555-0.133,5.342l-0.027-0.19
		c0.858,2.417,1.414,4.916,1.714,7.442c0.073,0.632,0.111,1.268,0.137,1.903l0.001,0.954c0.012,0.318-0.024,0.635-0.036,0.953
		c-0.009,0.318-0.044,0.634-0.089,0.95c-0.041,0.316-0.07,0.633-0.147,0.945c-0.072,0.311-0.118,0.632-0.213,0.933L120.036,67.483z"
		/>
</g>
<g>
	<path d="M59.334,55.681c3.414-28.747,6.898-41.685,6.898-41.685S64.777,29.325,59.334,55.681z"/>
	<path d="M53.984,58.109c-26.285-12.128-37.518-19.45-37.518-19.45S30.6,44.786,53.984,58.109z"/>
	<path d="M54.641,63.942C34.98,85.194,24.553,93.614,24.553,93.614S34.738,82.067,54.641,63.942z"/>
	<path d="M60.387,65.127c14.141,25.264,18.924,37.783,18.924,37.783S71.477,89.647,60.387,65.127z"/>
	<path d="M63.293,60.022c28.395-5.638,41.779-6.316,41.779-6.316S90.039,57.058,63.293,60.022z"/>
</g>
<g>
	<circle fill="#F7C934" cx="60.772" cy="64.051" r="17.05"/>
	<path d="M77.922,64.055c0,0-0.018,0.418-0.051,1.203c0.002,0.391-0.062,0.875-0.15,1.443c-0.049,0.283-0.072,0.594-0.131,0.917
		c-0.072,0.321-0.149,0.662-0.23,1.022c-0.378,1.42-0.879,3.187-1.969,4.984c-1.062,1.793-2.571,3.711-4.706,5.26
		c-2.126,1.543-4.874,2.648-7.884,2.97c-0.766,0.05-1.49,0.083-2.321,0.059c-0.739-0.073-1.462-0.099-2.272-0.283
		c-1.599-0.258-3.091-0.815-4.559-1.507c-1.465-0.704-2.792-1.683-4.055-2.736c-1.229-1.102-2.326-2.359-3.277-3.741
		c-0.928-1.399-1.66-2.935-2.217-4.544c-0.543-1.619-0.826-3.325-0.924-5.051c-0.031-1.685,0.127-3.476,0.564-5.16
		c0.488-1.669,1.177-3.283,2.097-4.755c0.947-1.45,2.081-2.764,3.368-3.886c1.311-1.087,2.72-2.042,4.24-2.727
		c1.518-0.676,3.099-1.182,4.693-1.378c0.789-0.155,1.586-0.157,2.367-0.201c0.121-0.001,0.143-0.011,0.346-0.006l0.274,0.017
		l0.548,0.035c0.37,0.032,0.709,0.025,1.099,0.088c3.123,0.399,5.798,1.532,7.938,3.098c2.131,1.568,3.637,3.492,4.695,5.29
		c1.089,1.801,1.592,3.568,1.967,4.991c0.08,0.36,0.156,0.702,0.229,1.024c0.059,0.322,0.081,0.633,0.127,0.914
		c0.087,0.567,0.15,1.051,0.147,1.447c0.03,0.788,0.046,1.209,0.046,1.209V64.055z M77.722,64.051c0,0-0.026-0.416-0.075-1.193
		c-0.007-0.391-0.082-0.865-0.18-1.422c-0.066-0.562-0.246-1.186-0.459-1.879c-0.422-1.38-1.162-3.001-2.357-4.595
		c-1.182-1.598-2.828-3.153-4.876-4.386c-2.036-1.208-4.546-2.135-7.142-2.418c-2.78-0.26-5.611,0.108-8.346,1.259
		c-1.365,0.563-2.641,1.376-3.844,2.309c-1.185,0.964-2.219,2.125-3.14,3.386c-0.898,1.282-1.6,2.71-2.13,4.213
		c-0.52,1.516-0.793,3.064-0.903,4.727c-0.019,1.619,0.13,3.253,0.544,4.834c0.461,1.562,1.119,3.068,2.01,4.424
		c0.918,1.329,1.988,2.547,3.229,3.531c1.252,0.965,2.608,1.756,4.031,2.299c1.415,0.522,2.888,0.928,4.292,1.031
		c0.676,0.109,1.455,0.072,2.187,0.092c0.642-0.014,1.378-0.074,2.04-0.149c2.709-0.362,5.146-1.316,7.197-2.547
		c2.044-1.253,3.686-2.813,4.865-4.416c1.194-1.597,1.936-3.22,2.355-4.603c0.211-0.693,0.391-1.318,0.453-1.878
		c0.098-0.554,0.17-1.028,0.176-1.423c0.047-0.783,0.071-1.201,0.071-1.201V64.051z"/>
</g>
</svg>
