<?xml version="1.0" standalone="no"?>
<!DOCTYPE svg PUBLIC "-//W3C//DTD SVG 1.0//EN" "http://www.w3.org/TR/2001/REC-SVG-20010904/DTD/svg10.dtd">
<svg xmlns="http://www.w3.org/2000/svg" xmlns:xlink="http://www.w3.org/1999/xlink" width="276px" height="276px" viewBox = "0 0 276 276">
<g transform="translate(0,276) scale(1,-1)">
	<g id="inactive" visibility="hidden" >
		<path id="Rectangle1" d="M9.559 30.2L9.559 30.2c0-10.1 8.15-18.2 18.2-18.2L248.2 12L248.2 12c10.1 0 18.2 8.15 18.2 18.2L266.4 245.8L266.4 245.8c0 10.1-8.15 18.2-18.2 18.2L27.76 264L27.76 264c-10.1 0-18.2-8.15-18.2-18.2Z" stroke="rgb(11.4%,89%,96.3%)" stroke-width="5" fill="rgb(12.3%,95.1%,99.7%)"  />
		<path id="Circle1" d="M178 96.81c22.4 22.4 22.4 58.8 0 81.2c-22.4 22.4-58.8 22.4-81.2 0c-22.4-22.4-22.4-58.8 0-81.2c22.4-22.4 58.8-22.4 81.2 0" stroke="rgb(11.4%,89%,96.3%)" stroke-width="2" fill="rgb(73.7%,99%,99.7%)"  />
	</g>
	<g id="speaking" visibility="hidden" >
		<path id="Rectangle1" d="M9.559 30.2L9.559 30.2c0-10.1 8.15-18.2 18.2-18.2L248.2 12L248.2 12c10.1 0 18.2 8.15 18.2 18.2L266.4 245.8L266.4 245.8c0 10.1-8.15 18.2-18.2 18.2L27.76 264L27.76 264c-10.1 0-18.2-8.15-18.2-18.2Z" stroke="rgb(11.4%,89%,96.3%)" stroke-width="5" fill="rgb(12.3%,95.1%,99.7%)"  />
		<path id="Circle1" d="M178 96.81c22.4 22.4 22.4 58.8 0 81.2c-22.4 22.4-58.8 22.4-81.2 0c-22.4-22.4-22.4-58.8 0-81.2c22.4-22.4 58.8-22.4 81.2 0" stroke="rgb(99.7%,85%,4.19%)" stroke-width="2" fill="rgb(100%,100%,58.9%)"  />
	</g>
	<g id="normal" >
		<path id="Rectangle1" d="M9.559 30.2L9.559 30.2c0-10.1 8.15-18.2 18.2-18.2L248.2 12L248.2 12c10.1 0 18.2 8.15 18.2 18.2L266.4 245.8L266.4 245.8c0 10.1-8.15 18.2-18.2 18.2L27.76 264L27.76 264c-10.1 0-18.2-8.15-18.2-18.2Z" stroke="rgb(11.4%,89%,96.3%)" stroke-width="5" fill="rgb(12.3%,95.1%,99.7%)"  />
		<path id="Circle1" d="M178 96.81c22.4 22.4 22.4 58.8 0 81.2c-22.4 22.4-58.8 22.4-81.2 0c-22.4-22.4-22.4-58.8 0-81.2c22.4-22.4 58.8-22.4 81.2 0" stroke="rgb(99.7%,85%,4.19%)" stroke-width="2" fill="rgb(99.8%,99.8%,4.27%)"  />
	</g>
</g>
</svg>
