<?xml version="1.0" encoding="utf-8"?>
<!-- Generator: Adobe Illustrator 16.0.0, SVG Export Plug-In . SVG Version: 6.00 Build 0)  -->
<!DOCTYPE svg PUBLIC "-//W3C//DTD SVG 1.1//EN" "http://www.w3.org/Graphics/SVG/1.1/DTD/svg11.dtd">
<svg version="1.1" id="Layer_1" xmlns="http://www.w3.org/2000/svg" xmlns:xlink="http://www.w3.org/1999/xlink" x="0px" y="0px"
	 width="437px" height="558px" viewBox="0 0 437 558" enable-background="new 0 0 437 558" xml:space="preserve">
<g>
	<linearGradient id="SVGID_1_" gradientUnits="userSpaceOnUse" x1="218.5005" y1="557" x2="218.5005" y2="1.0005">
		<stop  offset="0" style="stop-color:#269AD0"/>
		<stop  offset="1" style="stop-color:#92D9F8"/>
	</linearGradient>
	<path fill="url(#SVGID_1_)" d="M436,547c0,5.5-4.5,10-10,10H11c-5.5,0-10-4.5-10-10V11C1,5.5,5.5,1,11,1h415c5.5,0,10,4.5,10,10
		V547z"/>
	<path fill="none" stroke="#000000" stroke-width="2" stroke-miterlimit="10" d="M436,547c0,5.5-4.5,10-10,10H11
		c-5.5,0-10-4.5-10-10V11C1,5.5,5.5,1,11,1h415c5.5,0,10,4.5,10,10V547z"/>
</g>
</svg>
