<?xml version="1.0" encoding="utf-8"?>
<!-- Generator: Adobe Illustrator 16.0.0, SVG Export Plug-In . SVG Version: 6.00 Build 0)  -->
<!DOCTYPE svg PUBLIC "-//W3C//DTD SVG 1.1//EN" "http://www.w3.org/Graphics/SVG/1.1/DTD/svg11.dtd">
<svg version="1.1" id="Layer_1" xmlns="http://www.w3.org/2000/svg" xmlns:xlink="http://www.w3.org/1999/xlink" x="0px" y="0px"
	 width="268.076px" height="146.032px" viewBox="0 0 268.076 146.032" enable-background="new 0 0 268.076 146.032"
	 xml:space="preserve">
<g>
	<path fill="#BB2250" d="M214.786,83.249l-0.668,0.064C199.783,61.04,157.121-3.448,148.703,4.579
		c-10.154,9.686-20.023,18.103-33.062-0.781c-11.428-16.552-45.73,71.971-54.034,94.104l-0.362,0.034L2.625,133.958
		c0,0,50.185,19.255,134.5,4.964c84.314-14.289,128-43.029,128-43.029L214.786,83.249z"/>
	<path d="M214.771,83.452l-0.633,0.079l-0.125,0.016l-0.079-0.115c-6.142-8.932-12.252-17.878-18.584-26.663
		c-6.256-8.835-12.638-17.582-19.324-26.066c-3.353-4.232-6.766-8.412-10.312-12.446c-1.78-2.009-3.599-3.978-5.487-5.851
		c-1.89-1.857-3.851-3.667-5.93-5.104c-1.024-0.694-2.129-1.35-3.075-1.588c-0.474-0.141-0.867-0.142-1.052-0.065
		c-0.096,0.039-0.173,0.078-0.258,0.153c-0.008-0.006-0.079,0.061-0.141,0.121l-0.184,0.176l-0.367,0.352
		c-1.976,1.885-4,3.764-6.227,5.495c-2.23,1.713-4.693,3.318-7.601,4.244c-1.448,0.456-3.008,0.711-4.579,0.666
		c-1.571-0.039-3.13-0.381-4.563-0.939c-5.718-2.391-9.356-7.312-12.419-11.545c-0.049-0.058-0.113-0.151-0.149-0.18l-0.1-0.078
		c-0.064-0.054-0.124-0.111-0.18-0.174c-0.167-0.074-0.309-0.243-0.469-0.27c-0.296-0.158-0.614-0.168-1.018-0.119
		c-0.812,0.12-1.843,0.686-2.777,1.434c-1.897,1.52-3.602,3.556-5.192,5.642c-3.158,4.237-5.969,8.834-8.615,13.516
		c-2.643,4.689-5.133,9.481-7.53,14.323c-2.4,4.841-4.713,9.73-6.963,14.65c-2.249,4.921-4.452,9.866-6.577,14.846
		c-4.251,9.959-8.264,20.022-12.092,30.152l-0.134,0.354l-0.373,0.034l-0.362,0.032l0.258-0.086l-29.234,18.133L3.221,134.928
		l-0.188-2.032c5.233,1.77,10.754,3.09,16.24,4.221l4.133,0.822l4.159,0.697c2.764,0.504,5.557,0.851,8.34,1.244
		c2.778,0.43,5.585,0.654,8.379,0.964c2.792,0.333,5.6,0.51,8.406,0.701l4.207,0.293c1.402,0.1,2.811,0.109,4.215,0.169
		c2.812,0.075,5.62,0.237,8.432,0.273c5.626-0.009,11.251,0.093,16.873-0.204c2.81-0.129,5.625-0.146,8.43-0.366l8.416-0.63
		c1.402-0.114,2.807-0.19,4.206-0.335l4.193-0.479l8.385-0.957c2.795-0.318,5.565-0.828,8.349-1.232l8.347-1.251
		c5.491-1.037,11.124-2.024,16.639-3.132l8.242-1.773l4.124-0.875c1.374-0.297,2.738-0.656,4.107-0.981l8.209-2
		c2.741-0.649,5.437-1.465,8.158-2.189c5.448-1.438,10.826-3.104,16.222-4.721c2.694-0.821,5.351-1.752,8.029-2.623l4.006-1.339
		l3.972-1.437c2.646-0.962,5.307-1.89,7.915-2.947c2.613-1.047,5.263-2.01,7.841-3.138c2.586-1.108,5.204-2.154,7.753-3.344
		l3.849-1.733l3.815-1.802c5.061-2.426,10.114-5.003,14.856-7.879l0.359,2.116c-8.357-2.239-16.726-4.431-25.069-6.726
		C231.436,88.027,223.094,85.78,214.771,83.452z M214.834,83.055c8.446,1.884,16.872,3.848,25.305,5.783
		c8.438,1.92,16.849,3.942,25.272,5.918l2.665,0.624l-2.306,1.492c-4.848,3.136-9.816,5.846-14.882,8.46l-3.804,1.934l-3.851,1.834
		c-2.557,1.249-5.177,2.351-7.77,3.517c-2.585,1.186-5.239,2.204-7.859,3.309c-2.616,1.114-5.282,2.099-7.936,3.116l-3.982,1.521
		l-4.018,1.423c-2.686,0.927-5.353,1.914-8.056,2.791c-5.414,1.726-10.809,3.525-16.299,4.998c-2.739,0.754-5.455,1.599-8.214,2.276
		l-8.265,2.085c-1.38,0.34-2.75,0.713-4.139,1.024l-4.17,0.921l-8.347,1.819c-5.58,1.112-11.096,2.071-16.724,3.126
		c-5.628,0.82-11.247,1.724-16.892,2.415l-8.488,0.884l-4.243,0.441c-1.416,0.132-2.838,0.195-4.256,0.296l-8.516,0.553
		c-2.837,0.194-5.687,0.184-8.529,0.286c-5.686,0.242-11.378,0.085-17.066,0.036c-2.844-0.068-5.686-0.246-8.527-0.382
		c-1.42-0.085-2.843-0.12-4.26-0.245l-4.253-0.371c-2.835-0.243-5.671-0.472-8.493-0.856c-2.823-0.363-5.655-0.64-8.463-1.124
		c-2.811-0.454-5.631-0.834-8.42-1.421l-4.191-0.817l-4.167-0.943c-5.557-1.305-11.033-2.756-16.472-4.757L0,134.204l2.03-1.216
		l29.516-17.675L60.93,97.425l0.12-0.073l0.138-0.013l0.362-0.035l-0.507,0.387c1.891-5.082,3.826-10.146,5.8-15.196
		c1.964-5.054,3.937-10.105,5.975-15.132c4.038-10.067,8.207-20.091,12.757-29.963c2.277-4.936,4.652-9.831,7.199-14.656
		c2.566-4.813,5.246-9.591,8.496-14.101c1.662-2.234,3.407-4.439,5.713-6.356c1.169-0.928,2.514-1.858,4.387-2.208
		c0.922-0.152,2.021-0.102,2.955,0.333c0.497,0.172,0.865,0.483,1.281,0.749c0.19,0.169,0.377,0.343,0.56,0.521l0.27,0.271
		c0.085,0.089,0.114,0.139,0.174,0.21l0.315,0.398l0.224,0.296l0.144,0.199l0.575,0.799c0.375,0.54,0.784,1.046,1.184,1.561
		c0.802,1.028,1.662,1.991,2.547,2.915c1.794,1.803,3.791,3.374,5.974,4.237c2.173,0.878,4.499,0.952,6.773,0.237
		c2.279-0.7,4.465-2.055,6.525-3.623c2.064-1.581,4.033-3.377,5.989-5.218l0.37-0.349l0.185-0.174
		c0.06-0.058,0.111-0.108,0.242-0.212c0.426-0.375,0.949-0.664,1.495-0.84c1.118-0.343,2.136-0.188,2.953,0.041
		c1.683,0.471,2.906,1.302,4.109,2.124c2.355,1.687,4.356,3.61,6.3,5.574c1.929,1.974,3.758,4.016,5.54,6.089
		c3.563,4.146,6.908,8.445,10.158,12.806c6.5,8.719,12.669,17.652,18.694,26.675c5.936,9.083,11.8,18.206,17.394,27.497l-0.205-0.1
		l0.705-0.048L214.834,83.055z"/>
</g>
<g>
	<path fill="#EBDD8E" d="M69.442,80.271l-6.574,17.933c0,0,47.26-3.258,77.783-5.972c30.522-2.712,71.388-9.533,71.388-9.533
		l-8.079-13.221L69.442,80.271z"/>
	<path d="M69.552,80.415c-0.95,3.008-1.937,6.002-2.932,8.992c-1.006,3.021-1.985,6.053-3.022,9.063l-0.784-1.044
		c6.221-0.638,12.446-1.22,18.67-1.795c6.226-0.553,12.452-1.11,18.682-1.606l9.345-0.752c3.117-0.223,6.23-0.484,9.351-0.674
		c6.235-0.434,12.481-0.737,18.725-1.095c3.128-0.129,6.204-0.462,9.334-0.721c3.114-0.281,6.231-0.526,9.342-0.837
		c3.11-0.311,6.229-0.564,9.329-0.953l9.286-1.253l9.277-1.323c3.094-0.425,6.174-0.959,9.254-1.487l9.241-1.57
		c3.082-0.518,6.148-1.107,9.222-1.659l-0.696,1.524c-2.796-4.345-5.534-8.724-8.288-13.094l1.171,0.597
		c-11.196,1.066-22.404,1.992-33.605,2.995c-5.6,0.51-11.207,0.939-16.811,1.4l-16.821,1.268
		c-5.607,0.426-11.221,0.761-16.831,1.146c-5.612,0.363-11.22,0.77-16.835,1.097l-16.845,0.975
		C80.726,79.881,75.143,80.194,69.552,80.415z M69.43,80.121c5.587-0.678,11.181-1.262,16.772-1.887l16.785-1.724
		c5.595-0.572,11.196-1.065,16.794-1.602c5.6-0.515,11.195-1.079,16.798-1.553l16.808-1.431c5.606-0.438,11.209-0.908,16.819-1.298
		c11.218-0.796,22.43-1.669,33.653-2.401l0.788-0.052l0.384,0.648c2.632,4.444,5.28,8.878,7.871,13.348l0.767,1.322l-1.463,0.202
		c-3.101,0.428-6.197,0.894-9.301,1.286l-9.301,1.247l-18.611,2.431l-9.298,1.28l-9.31,1.141c-3.104,0.371-6.201,0.807-9.302,1.207
		c-3.087,0.391-6.214,0.87-9.327,1.129c-6.225,0.6-12.445,1.253-18.677,1.776c-3.113,0.289-6.233,0.507-9.35,0.762l-9.356,0.684
		c-6.237,0.461-12.479,0.86-18.72,1.265c-6.242,0.383-12.485,0.758-18.73,1.076l-1.214,0.062l0.43-1.105
		c1.155-2.968,2.367-5.913,3.552-8.869c1.186-2.956,2.379-5.909,3.611-8.848l0.037-0.087L69.43,80.121z"/>
</g>
<path fill="#EBDD8E" stroke="#000000" stroke-width="3" stroke-miterlimit="10" d="M114.235,86.487c0,0-0.295,30.182-6.822,26.976
	c-6.526-3.208-20.384-9.194-19.167-13.641C89.462,95.379,114.235,86.487,114.235,86.487z"/>
<g>
	<path fill="#EBDD8E" d="M113.941,86.68c0,0-3.485-29.979,3.392-27.615c6.877,2.365,21.375,6.57,20.724,11.133
		C137.407,74.759,113.941,86.68,113.941,86.68z"/>
	<path d="M113.792,86.696c0,0-0.395-1.275-0.833-3.547c-0.221-1.135-0.466-2.519-0.664-4.116c-0.218-1.597-0.376-3.407-0.493-5.393
		c-0.065-1.985-0.155-4.152,0.089-6.454c0.12-1.15,0.295-2.335,0.608-3.54c0.317-1.201,0.696-2.438,1.451-3.635
		c0.365-0.578,0.896-1.219,1.707-1.516c0.2-0.079,0.399-0.145,0.615-0.135c0.207,0.006,0.43-0.046,0.616,0.016l0.568,0.144
		c0.169,0.054,0.3,0.115,0.452,0.173c1.167,0.478,2.378,0.89,3.605,1.289c2.448,0.819,4.978,1.53,7.515,2.314
		c2.528,0.814,5.076,1.655,7.428,3.212c0.592,0.382,1.165,0.846,1.709,1.41c0.529,0.567,1.078,1.289,1.297,2.311
		c0.051,0.255,0.092,0.512,0.075,0.782l-0.006,0.2l-0.005,0.101l-0.003,0.05c-0.017,0.094,0.035-0.141-0.04,0.224l-0.057,0.229
		l-0.06,0.234l-0.161,0.385c-0.112,0.25-0.256,0.532-0.355,0.661c-0.435,0.697-0.906,1.188-1.375,1.69
		c-0.936,0.976-1.927,1.752-2.901,2.493c-0.97,0.746-1.95,1.408-2.917,2.023c-1.934,1.232-3.821,2.27-5.568,3.204
		c-7.028,3.674-12.08,5.308-12.08,5.308l-0.165,0.053L113.792,86.696z M114.101,86.388c0.405-0.29,1.349-0.965,2.746-1.912
		c1.898-1.297,4.631-3.104,7.877-5.271c1.631-1.069,3.373-2.26,5.184-3.525c1.797-1.265,3.73-2.606,5.38-4.115
		c0.39-0.371,0.793-0.771,1.034-1.126c0.096-0.116,0.078-0.122,0.111-0.147c0.014-0.012,0.032-0.022,0.054-0.033l0.071-0.218
		l0.071-0.225c-0.07,0.345-0.02,0.091-0.036,0.165v-0.009v-0.018l0.003-0.036c0.021-0.045,0.008-0.1,0.003-0.156
		c-0.009-0.494-0.792-1.417-1.697-2.103c-1.875-1.415-4.17-2.685-6.485-3.837c-2.329-1.159-4.754-2.154-7.194-2.973
		c-1.218-0.42-2.437-0.805-3.662-1.141c-0.148-0.039-0.312-0.096-0.448-0.121l-0.354-0.05c-0.12-0.037-0.214,0.031-0.317,0.036
		c-0.105-0.001-0.193,0.06-0.276,0.115c-0.339,0.192-0.632,0.589-0.817,1.091c-0.398,0.979-0.545,2.137-0.65,3.251
		c-0.101,1.122-0.151,2.242-0.184,3.338c-0.062,2.189-0.172,4.283-0.165,6.225c-0.022,1.949-0.043,3.736-0.061,5.32
		c-0.007,1.588-0.039,2.979-0.064,4.127C114.191,84.729,114.128,85.891,114.101,86.388z"/>
</g>
<g>
	<path fill="#B9A924" d="M118.419,64.047c-1.024,1.624-2.91,17.158-2.91,17.158s5.149-14.275,5.529-16.283
		C121.363,63.205,119.252,62.727,118.419,64.047z"/>
	<path fill="#B9A924" d="M116.437,81.473c0.19-0.075,12.121-9.944,12.715-12.367c0.468-1.915-1.833-2.82-3.175-1.643
		C124.884,68.42,116.437,81.473,116.437,81.473z"/>
	<path fill="#B9A924" d="M98.264,99.235c0.924-1.684,13.592-10.865,13.592-10.865s-9.985,11.426-11.558,12.733
		C98.956,102.219,97.514,100.606,98.264,99.235z"/>
	<path fill="#B9A924" d="M112.539,89.052c0.027,0.202-2.815,15.422-4.646,17.116c-1.447,1.339-3.356-0.234-2.977-1.98
		C105.224,102.77,112.539,89.052,112.539,89.052z"/>
</g>
</svg>
