<?xml version="1.0" encoding="utf-8"?>
<!-- Generator: Adobe Illustrator 16.0.0, SVG Export Plug-In . SVG Version: 6.00 Build 0)  -->
<!DOCTYPE svg PUBLIC "-//W3C//DTD SVG 1.1//EN" "http://www.w3.org/Graphics/SVG/1.1/DTD/svg11.dtd">
<svg version="1.1" id="Layer_1" xmlns="http://www.w3.org/2000/svg" xmlns:xlink="http://www.w3.org/1999/xlink" x="0px" y="0px"
	 width="402.976px" height="245.853px" viewBox="0 0 402.976 245.853" enable-background="new 0 0 402.976 245.853"
	 xml:space="preserve">
<path opacity="0.3" fill="#FFFFFF" d="M27.893,124.814c10.284-35.328,43.698-61.225,83.361-61.225c0.022,0,0.043,0.002,0.065,0.002
	c1.333-25.522,23.06-45.817,49.666-45.817c8.868,0,17.188,2.265,24.396,6.216C200.844,9.161,222.082,0,245.527,0
	c39.265,0,72.333,25.682,82.431,60.689c2.39-0.38,4.841-0.586,7.343-0.586c24.918,0,45.116,19.62,45.116,43.823
	c0,7.331-1.862,14.235-5.139,20.308c16.683,10.688,27.697,29.046,27.697,49.908c0,33.004-27.545,59.76-61.522,59.76
	c-15.746,0-30.104-5.754-40.985-15.203c-12.746,11.613-29.88,18.74-48.736,18.74c-16.072,0-30.898-5.172-42.82-13.891
	c-11.277,13.597-28.551,22.305-47.926,22.305c-15.332,0-29.343-5.46-40.115-14.472c-3.159,0.339-6.364,0.528-9.616,0.528
	c-19.233,0-36.997-6.097-51.372-16.396c-3.277,0.66-6.672,1.01-10.15,1.01C22.266,216.523,0,194.897,0,168.218
	C0,149.151,11.377,132.669,27.893,124.814z"/>
</svg>
