<?xml version="1.0" encoding="iso-8859-1"?>
<!-- Generator: Adobe Illustrator 21.1.0, SVG Export Plug-In . SVG Version: 6.00 Build 0)  -->
<svg version="1.1" id="Layer_1" xmlns="http://www.w3.org/2000/svg" xmlns:xlink="http://www.w3.org/1999/xlink" x="0px" y="0px"
	 width="157.535px" height="155.524px" viewBox="0 0 157.535 155.524" style="enable-background:new 0 0 157.535 155.524;"
	 xml:space="preserve">
<path style="fill:#93278F;" d="M67.224,5.404c-4.355,1.991-24.154,5.018-31.839,10.312c-8.42,5.806-26.419,47.248-28.407,49.57
	c6.532,2.128,27.264,8.031,33.267,10.812c4.051-9.204,4.576-9.598,4.576-9.598c0.434,1.362,0.569,6.934,0,10.65
	c-4.631,30.267-10.909,73.017-11.301,72.996c17.558,0.792,35.101,0.157,52.762,0.64c21.946,0.601,36.428-2.373,44.827-0.629
	c0.125-0.089,1.23-0.176,1.347-0.261c-2.342-4.169-4.145-44.545-10.695-72.746c-2.209-9.513,1.127-5.005,4.506-0.27
	c10.116-5.514,14.047-7.995,24.876-12.881c-2.401-1.842-17.302-46.273-37.329-51.806c-5.637-1.559-8.454-4.345-18.435-6.284
	C93.5,17.501,67.5,17.001,67.224,5.404z"/>
<polygon style="fill:#8CC63F;" points="90.229,12.451 89.561,150.851 102.037,150.868 102.037,6.334 96.5,6.334 "/>
<polygon style="fill:#FFFF00;" points="104.312,7.774 104.312,150.385 106.704,150.456 106.704,8.42 "/>
<path style="fill:none;" d="M70,3.433c-4.428,2.13-27.83,4.198-35.645,9.862C25.793,19.508,7.49,63.846,5.469,66.33
	c6.643,2.277,28.672,6.792,34.775,9.768C44.363,66.251,43.167,67,43.167,67c0.441,1.458,1.908,9.357,1.33,13.334
	c-4.709,32.382-11.64,69.639-12.038,69.617c17.854,0.848,33.386-0.638,51.345-0.121c22.316,0.643,31.82-1.752,40.361,0.114
	c4.002,0.925,7.08,1.143,8.899-0.243c-2.381-4.46-4.833-44.106-11.493-74.279c-1.458-6.609-1.192-9.624,0.604-7.106
	c0.971,1.359,2.885,6.789,4.09,8.566c10.287-5.899,14.789-6.699,25.801-11.927c-2.441-1.971-17.889-46.841-38.254-52.76
	c-5.732-1.667-9.8-4.577-19.948-6.652C91.454,16.072,69.25,8.211,70,3.433z"/>
<path style="fill:none;stroke:#000100;stroke-width:2.8347;stroke-linecap:round;stroke-linejoin:round;" d="M67.224,5.404
	c-4.428,1.993-25.054,4.68-32.868,9.98C25.793,21.197,7.49,62.68,5.469,65.004c6.643,2.131,28.672,8.309,34.775,11.094
	c4.119-9.213,4.119-9.213,4.119-9.213C44.805,68.249,44.714,81.28,44.136,85c-4.709,30.297-11.278,64.971-11.677,64.951
	c17.854,0.793,35.693,0.157,53.652,0.641c22.316,0.601,37.043-2.376,45.584-0.63c0.127-0.089,1.25-0.176,1.369-0.261
	c-2.381-4.173-9.799-56.102-12.078-79.998c-0.929-9.74,1.844,2.438,5.279,7.178c10.287-5.52,14.789-8.272,25.801-13.164
	c-2.441-1.844-18.755-43.104-37.959-51.858c-4.834-2.204-2.771-2.923-18.339-5.901C92.533,19.184,65.748,14.202,67.224,5.404z"/>
</svg>
