<?xml version="1.0" encoding="iso-8859-1"?>
<!-- Generator: Adobe Illustrator 21.1.0, SVG Export Plug-In . SVG Version: 6.00 Build 0)  -->
<svg version="1.1" id="Layer_1" xmlns="http://www.w3.org/2000/svg" xmlns:xlink="http://www.w3.org/1999/xlink" x="0px" y="0px"
	 width="230.814px" height="148.344px" viewBox="0 0 230.814 148.344" style="enable-background:new 0 0 230.814 148.344;"
	 xml:space="preserve">
<g>
	<path style="fill:#39B54A;" d="M6.507,41.742C6.507,27.527,34.593,4.75,115.34,4.75c80.746,0,108.832,22.777,108.832,36.992
		c0,17.262-28.086,43.704-108.832,43.704C34.593,85.446,6.507,59.004,6.507,41.742z"/>
	<g>
		<path d="M6.432,41.741c-0.003-2.609,0.915-5.141,2.226-7.362c1.318-2.235,3.03-4.214,4.908-5.99
			c3.779-3.555,8.221-6.306,12.803-8.686c9.229-4.704,19.215-7.734,29.291-10.011c20.229-4.465,41.02-5.683,61.66-5.559
			c20.65,0.239,41.382,1.906,61.521,6.637c5.026,1.202,9.989,2.664,14.864,4.386c4.869,1.73,9.643,3.778,14.15,6.337
			c4.486,2.566,8.781,5.631,12.164,9.631c1.67,2,3.104,4.257,3.915,6.784c0.404,1.26,0.638,2.584,0.634,3.926
			c-0.004,1.316-0.164,2.639-0.457,3.921c-1.185,5.169-4.25,9.662-7.85,13.4c-3.633,3.755-7.888,6.839-12.367,9.467
			c-8.999,5.239-18.889,8.715-28.924,11.245c-20.143,5.001-40.962,6.457-61.61,6.347c-10.342-0.082-20.689-0.537-30.973-1.725
			C72.112,83.3,61.876,81.52,51.921,78.655c-9.925-2.874-19.688-6.696-28.331-12.431c-4.284-2.887-8.325-6.223-11.54-10.297
			c-1.599-2.033-2.987-4.247-3.996-6.636C7.046,46.909,6.425,44.339,6.432,41.741z M6.582,41.743
			c0.011,2.572,0.645,5.113,1.661,7.468c1.016,2.361,2.409,4.548,4.011,6.556c3.227,4.009,7.24,7.338,11.564,10.109
			c8.688,5.546,18.451,9.172,28.366,11.828c9.948,2.617,20.124,4.31,30.356,5.365c10.235,1.042,20.529,1.562,30.822,1.598
			c10.301,0.052,20.596-0.347,30.843-1.269c10.242-0.933,20.443-2.449,30.423-4.9c9.951-2.48,19.769-5.811,28.689-10.873
			c4.439-2.54,8.648-5.528,12.237-9.159c3.558-3.613,6.569-7.953,7.756-12.896c0.577-2.462,0.688-5.041-0.105-7.433
			c-0.752-2.404-2.115-4.602-3.73-6.562c-3.269-3.928-7.486-6.996-11.914-9.57c-8.93-5.12-18.83-8.379-28.842-10.729
			c-10.032-2.362-20.266-3.791-30.528-4.675c-10.267-0.889-20.575-1.227-30.876-1.225C107.009,5.337,96.71,5.723,86.443,6.49
			c-10.267,0.78-20.495,2.091-30.586,4.123c-10.065,2.078-20.049,4.921-29.313,9.439c-4.613,2.265-9.028,5.023-12.809,8.516
			c-1.876,1.753-3.587,3.706-4.906,5.911C7.516,36.673,6.595,39.165,6.582,41.743z"/>
	</g>
</g>
<g>
	<path style="fill:#009245;" d="M115.34,103.993c-62.842,0-84.699-19.578-84.699-32.359c0,12.781,3.339,71.891,84.699,71.891
		c81.358,0,84.698-59.109,84.698-71.891C200.038,84.415,178.181,103.993,115.34,103.993z"/>
	<g>
		<path d="M115.34,104.118c-4.04,0.011-8.082-0.06-12.12-0.226c-4.039-0.142-8.076-0.379-12.105-0.726
			c-8.062-0.652-16.107-1.759-24.019-3.607c-7.886-1.876-15.727-4.419-22.848-8.584c-3.549-2.075-6.899-4.597-9.687-7.747
			c-1.383-1.578-2.62-3.325-3.529-5.274c-0.909-1.94-1.507-4.094-1.505-6.32h2.227c0.012,5.155,0.484,10.327,1.476,15.399
			c0.958,5.078,2.424,10.067,4.44,14.832c4.011,9.523,10.344,18.147,18.571,24.532c4.094,3.204,8.583,5.901,13.307,8.096
			c4.726,2.199,9.702,3.832,14.756,5.1c10.128,2.537,20.618,3.343,31.035,3.247c10.423-0.131,20.85-1.23,30.891-3.822
			c10.008-2.62,19.65-6.855,27.756-13.204c4.048-3.162,7.692-6.831,10.806-10.904c3.122-4.069,5.693-8.547,7.761-13.245
			c2.058-4.704,3.578-9.646,4.594-14.692c1.034-5.041,1.587-10.193,1.612-15.338h2.561c-0.009,2.257-0.623,4.428-1.549,6.378
			c-0.925,1.96-2.18,3.707-3.576,5.283c-2.812,3.149-6.192,5.635-9.737,7.723c-7.124,4.173-14.975,6.702-22.865,8.571
			c-7.916,1.84-15.961,2.949-24.023,3.598c-4.03,0.345-8.067,0.58-12.107,0.72C123.422,104.067,119.38,104.132,115.34,104.118z
			 M115.34,103.868c8.074-0.021,16.15-0.383,24.172-1.258c8.013-0.917,15.981-2.269,23.738-4.371
			c7.738-2.111,15.316-4.955,22.097-9.068c3.361-2.076,6.512-4.518,9.024-7.461c2.472-2.917,4.394-6.451,4.387-10.076
			c-0.002-0.707,0.57-1.281,1.277-1.283c0.708-0.002,1.282,0.57,1.283,1.278v0.005c0.012,10.643-2.037,21.31-6.329,31.1
			c-4.259,9.792-11.035,18.515-19.525,24.99c-8.475,6.525-18.471,10.787-28.736,13.271c-10.29,2.521-20.885,3.328-31.39,3.214
			c-10.509-0.113-21.04-1.214-31.244-3.79c-5.096-1.3-10.078-3.046-14.871-5.221c-4.794-2.168-9.369-4.851-13.558-8.059
			c-4.176-3.219-8.001-6.916-11.288-11.063c-3.292-4.143-6.045-8.716-8.231-13.543c-4.372-9.668-6.573-20.277-6.619-30.899
			c-0.003-0.615,0.493-1.115,1.108-1.118c0.615-0.003,1.115,0.494,1.118,1.108v0.01c0.017,3.686,1.978,7.231,4.478,10.143
			c2.539,2.942,5.719,5.349,9.076,7.435c6.784,4.122,14.373,6.953,22.114,9.057c7.761,2.094,15.73,3.448,23.744,4.361
			c4.011,0.428,8.036,0.74,12.067,0.948C107.266,103.764,111.302,103.857,115.34,103.868z"/>
	</g>
</g>
<g>
	<path style="fill:#006837;" d="M187.59,98.561c0,13.406-24.268,20.773-72.982,20.773c-48.717,0-71.518-7.367-71.518-20.773
		c0-13.406,22.801-21.773,71.518-21.773C163.323,76.788,187.59,85.155,187.59,98.561z"/>
	<g>
		<path d="M187.64,98.562c0.013,1.679-0.395,3.365-1.176,4.855c-0.773,1.498-1.886,2.8-3.146,3.907
			c-2.533,2.229-5.59,3.737-8.681,5.013c-6.247,2.476-12.859,3.854-19.472,4.908c-13.266,2.032-26.703,2.509-40.089,2.502
			c-13.39-0.08-26.807-0.661-40.075-2.559c-6.608-1.026-13.234-2.306-19.498-4.771c-3.103-1.261-6.15-2.83-8.645-5.148
			c-1.234-1.16-2.308-2.524-3.024-4.082c-0.724-1.553-1.059-3.284-1.008-4.991c0.037-1.715,0.478-3.421,1.267-4.944
			c0.785-1.528,1.891-2.866,3.136-4.024c2.52-2.303,5.537-3.944,8.632-5.262c6.23-2.611,12.846-4.065,19.464-5.133
			c13.273-2.069,26.713-2.589,40.105-2.559c13.389,0.05,26.834,0.654,40.068,2.899c6.596,1.161,13.184,2.678,19.366,5.315
			c3.062,1.349,6.067,2.954,8.547,5.24c1.23,1.141,2.319,2.459,3.074,3.968C187.248,95.197,187.653,96.881,187.64,98.562z
			 M187.54,98.56c0-1.667-0.412-3.324-1.176-4.802c-0.756-1.484-1.843-2.78-3.069-3.901c-2.476-2.238-5.462-3.844-8.538-5.112
			c-6.193-2.511-12.774-3.902-19.363-4.921c-13.216-1.96-26.605-2.466-39.966-2.519c-6.683-0.014-13.365,0.155-20.035,0.503
			c-6.668,0.36-13.327,0.943-19.922,1.954c-6.576,1.041-13.152,2.41-19.312,4.911c-3.061,1.262-6.029,2.842-8.484,5.039
			c-1.214,1.104-2.283,2.374-3.046,3.818c-0.767,1.438-1.2,3.049-1.255,4.68c-0.061,1.635,0.245,3.276,0.923,4.765
			c0.673,1.492,1.694,2.815,2.886,3.952c2.407,2.274,5.403,3.854,8.47,5.126c6.189,2.5,12.795,3.844,19.4,4.793
			c6.617,0.947,13.292,1.459,19.971,1.747c6.68,0.293,13.367,0.368,20.053,0.326c6.686-0.013,13.369-0.205,20.043-0.525
			c6.674-0.331,13.337-0.881,19.956-1.77c6.604-0.925,13.21-2.18,19.467-4.53c3.105-1.196,6.141-2.71,8.668-4.894
			c1.256-1.089,2.363-2.369,3.138-3.844C187.128,101.887,187.541,100.23,187.54,98.56z"/>
	</g>
</g>
<g>
	<path style="fill:#22B573;" d="M115.34,85.446c-80.747,0-108.833-26.442-108.833-43.704c0,17.262,4.291,95.856,108.833,95.856
		c104.541,0,108.832-78.595,108.832-95.856C224.172,59.004,196.086,85.446,115.34,85.446z"/>
	<g>
		<path d="M115.34,85.546c-10.485,0.035-20.979-0.366-31.422-1.398c-10.444-0.975-20.857-2.574-31.048-5.199
			c-5.092-1.316-10.127-2.895-15.033-4.836c-4.908-1.933-9.68-4.267-14.151-7.121c-4.46-2.856-8.658-6.238-12.058-10.405
			c-1.688-2.084-3.184-4.363-4.253-6.866c-1.071-2.493-1.749-5.207-1.744-7.979h1.752C7.371,48.527,8.01,55.32,9.254,61.996
			c1.224,6.679,3.06,13.253,5.599,19.557c5.045,12.601,13.052,24.107,23.584,32.786c5.244,4.35,11.037,8.028,17.156,11.036
			c6.122,3.015,12.59,5.296,19.182,7.045c13.205,3.516,26.932,4.702,40.565,4.631c13.636-0.097,27.318-1.481,40.446-5.071
			c13.094-3.575,25.653-9.44,36.08-18.097c5.207-4.314,9.859-9.288,13.81-14.771c3.959-5.479,7.201-11.46,9.795-17.706
			c5.147-12.52,7.631-26.12,7.69-39.664h2.021c-0.005,2.793-0.696,5.521-1.781,8.021c-1.084,2.51-2.585,4.794-4.281,6.879
			c-3.416,4.171-7.627,7.549-12.096,10.399c-4.481,2.849-9.259,5.172-14.169,7.104c-4.909,1.939-9.946,3.514-15.04,4.827
			c-10.195,2.617-20.607,4.219-31.052,5.191C136.32,85.19,125.826,85.586,115.34,85.546z M115.34,85.346
			c10.479-0.047,20.961-0.523,31.376-1.639c10.403-1.186,20.751-2.979,30.812-5.801c10.035-2.834,19.86-6.677,28.566-12.308
			c4.32-2.833,8.344-6.165,11.528-10.162c1.59-1.993,2.937-4.167,3.939-6.47c0.993-2.303,1.601-4.767,1.599-7.226
			c-0.001-0.558,0.45-1.012,1.008-1.013c0.559-0.002,1.012,0.45,1.014,1.008v0.005c-0.033,13.806-2.524,27.644-7.762,40.468
			c-5.212,12.817-13.582,24.408-24.324,33.166c-5.356,4.391-11.259,8.087-17.476,11.098c-6.219,3.016-12.761,5.307-19.423,7.046
			c-13.346,3.474-27.15,4.695-40.858,4.627c-13.711-0.099-27.472-1.52-40.741-5.068c-13.223-3.57-25.983-9.422-36.642-18.158
			c-5.309-4.364-10.11-9.362-14.194-14.908c-4.093-5.539-7.477-11.597-10.149-17.948c-2.671-6.354-4.651-12.996-5.981-19.76
			c-1.296-6.772-1.979-13.66-2.001-20.562c-0.001-0.483,0.39-0.877,0.873-0.879c0.483-0.001,0.877,0.39,0.879,0.873l0,0v0.006
			c0.008,2.481,0.629,4.959,1.636,7.268c1.018,2.309,2.369,4.488,3.969,6.483c3.2,4.001,7.236,7.328,11.565,10.155
			c8.728,5.612,18.552,9.456,28.592,12.281c10.066,2.814,20.413,4.611,30.817,5.794C94.378,84.834,104.861,85.304,115.34,85.346z"/>
	</g>
</g>
<path style="fill:#FFFF00;" d="M115.267,90.544C34.836,90.544,6.861,62.019,6.861,51.68c0,16.171,4.275,57.413,108.406,57.413
	c104.131,0,108.405-40.283,108.405-57.074C223.672,63.06,195.697,90.544,115.267,90.544z"/>
<path style="fill:#F7DD1C;" d="M114.554,117.649c-65.824,0-94.334-23.492-98.175-31.031c6.329,12.424,19.282,45.504,98.175,46.212
	c79.279,0.712,93.279-33.538,97.654-43.159C208.468,97.896,180.377,117.649,114.554,117.649z"/>
<g>
	<path d="M30.641,17.338C15.163,23.903,5.922,33.026,5.922,41.742c0,14.29,16.844,25.351,24.641,29.366
		c19.697,10.146,49.012,15.51,84.777,15.51c35.763,0,65.079-5.363,84.776-15.51c15.43-7.946,24.641-18.925,24.641-29.366
		c0-8.716-9.241-17.839-24.72-24.404C180.363,8.991,151.075,4.58,115.34,4.58C79.605,4.58,50.317,8.991,30.641,17.338z
		 M29.618,18.787C43.14,13.051,70.582,5.75,115.34,5.75c44.756,0,70.27,8.008,83.793,13.744
		c14.587,6.188,23.297,14.504,23.297,22.248c0,17.098-34.492,43.546-113.063,43.546c-51.322,0-88.833-17.303-99.5-35.001
		C-1.132,32.037,24.558,20.933,29.618,18.787z"/>
</g>
<g>
	<g>
		<path d="M115.34,85.5c-10.484,0.024-20.978-0.386-31.417-1.427C73.485,83.072,63.08,81.448,52.905,78.8
			c-10.141-2.678-20.173-6.298-29.11-11.998c-4.443-2.853-8.621-6.228-11.996-10.374c-1.677-2.072-3.154-4.34-4.217-6.818
			c-1.064-2.471-1.734-5.154-1.731-7.89h1.315c-0.007,6.8,0.637,13.604,1.887,20.292c1.237,6.689,3.092,13.272,5.647,19.582
			c5.075,12.617,13.129,24.116,23.679,32.795c5.253,4.352,11.055,8.028,17.183,11.034c6.129,3.013,12.602,5.289,19.199,7.034
			c13.218,3.481,26.936,4.738,40.581,4.709c13.645-0.076,27.343-1.441,40.498-5.017c13.121-3.557,25.718-9.426,36.183-18.103
			c5.226-4.323,9.896-9.31,13.863-14.807c3.975-5.494,7.234-11.49,9.83-17.756c5.16-12.558,7.643-26.188,7.7-39.765h1.516
			c-0.004,2.752-0.685,5.446-1.758,7.921c-1.074,2.483-2.556,4.755-4.239,6.828c-3.387,4.149-7.574,7.521-12.024,10.369
			c-8.952,5.687-18.984,9.308-29.129,11.979c-10.178,2.643-20.582,4.268-31.021,5.268C136.318,85.123,125.825,85.528,115.34,85.5z
			 M115.34,85.349c10.48-0.036,20.963-0.502,31.382-1.606c10.408-1.158,20.764-2.929,30.843-5.725
			c10.051-2.811,19.905-6.622,28.648-12.26c4.338-2.836,8.385-6.173,11.598-10.192c1.604-2.005,2.97-4.192,3.982-6.521
			c1.005-2.327,1.623-4.824,1.622-7.325c-0.001-0.419,0.337-0.759,0.756-0.76c0.419-0.001,0.759,0.337,0.76,0.756v0.004
			c-0.037,13.772-2.526,27.581-7.753,40.367c-5.201,12.779-13.526,24.341-24.233,33.08c-10.685,8.794-23.506,14.692-36.797,18.138
			c-13.318,3.488-27.108,4.73-40.807,4.682c-13.699-0.058-27.469-1.407-40.726-4.99c-13.213-3.579-25.958-9.437-36.597-18.171
			c-5.303-4.361-10.086-9.365-14.152-14.91c-4.075-5.539-7.441-11.593-10.097-17.938C8.454,69.27,5.908,55.48,5.85,41.72
			c-0.001-0.362,0.292-0.658,0.654-0.659c0.363-0.002,0.658,0.291,0.66,0.654v0.005c0.006,2.518,0.634,5.024,1.649,7.356
			c1.024,2.333,2.392,4.525,4.004,6.531c3.225,4.021,7.281,7.355,11.627,10.186c8.757,5.625,18.611,9.438,28.666,12.24
			c10.081,2.792,20.437,4.563,30.846,5.72C94.376,84.855,104.86,85.317,115.34,85.349z"/>
	</g>
</g>
</svg>
