<?xml version="1.0" encoding="iso-8859-1"?>
<!-- Generator: Adobe Illustrator 21.1.0, SVG Export Plug-In . SVG Version: 6.00 Build 0)  -->
<svg version="1.1" id="Layer_1" xmlns="http://www.w3.org/2000/svg" xmlns:xlink="http://www.w3.org/1999/xlink" x="0px" y="0px"
	 width="138.57px" height="113.898px" viewBox="0 0 138.57 113.898" style="enable-background:new 0 0 138.57 113.898;"
	 xml:space="preserve">
<g>
	<polygon style="fill-rule:evenodd;clip-rule:evenodd;fill:#FFAA00;" points="3.202,88.382 79.165,112.908 79.268,54.221 
		2.051,36.253 	"/>
	<g>
		<path style="fill:#1D1D1B;" d="M3.277,88.327c6.351,1.919,12.718,3.791,19.048,5.777c6.358,1.958,12.709,3.936,19.044,5.965
			c6.336,2.025,12.691,3.991,19.005,6.087c6.329,2.049,12.635,4.166,18.937,6.298l-0.624,0.453l0.208-14.671l0.092-14.672
			l-0.038-14.672L78.824,54.22l0.343,0.434l-19.346-4.312l-19.329-4.385c-6.44-1.475-12.887-2.921-19.315-4.446L1.88,36.986
			l0.924-0.75l0.348,26.07l0.103,13.036L3.277,88.327z M3.126,88.384L2.573,75.357L2.101,62.329l-0.803-26.06
			c-0.013-0.413,0.312-0.758,0.725-0.771c0.064-0.002,0.128,0.004,0.188,0.018l0.011,0.003l19.311,4.46
			c6.441,1.47,12.864,3.017,19.294,4.538l19.279,4.6l19.262,4.672l0.008,0.003c0.202,0.049,0.337,0.231,0.335,0.431l-0.177,14.671
			l-0.09,14.672l0.04,14.672l0.156,14.672c0.002,0.261-0.207,0.475-0.468,0.478c-0.049,0-0.097-0.007-0.142-0.021l-0.014-0.004
			c-6.359-1.956-12.713-3.926-19.044-5.965c-6.347-1.992-12.652-4.113-18.977-6.176c-6.326-2.059-12.634-4.168-18.937-6.298
			c-6.314-2.096-12.59-4.307-18.881-6.47C3.148,88.443,3.128,88.415,3.126,88.384z"/>
	</g>
</g>
<g>
	<polygon style="fill-rule:evenodd;clip-rule:evenodd;fill:#F7C800;" points="136.097,87.492 136.006,29.186 79.292,53.189 
		79.434,113.116 	"/>
	<g>
		<path style="fill:#1D1D1B;" d="M136.021,87.443c-0.277-9.701-0.403-19.402-0.533-29.104l-0.1-14.576
			c-0.05-4.858-0.045-9.717-0.023-14.576l0.89,0.589c-9.463,3.974-19.008,7.757-28.494,11.677
			c-4.731,1.988-9.488,3.916-14.197,5.958c-4.718,2.019-9.439,4.03-14.138,6.097l0.211-0.319c0.151,9.987,0.323,19.976,0.406,29.963
			l0.114,14.981c0.05,4.994,0.064,9.987,0.057,14.981l-1.103-0.71l14.179-6.377l14.226-6.273l14.252-6.215
			C126.503,91.469,131.271,89.477,136.021,87.443z M136.128,87.56c-4.679,2.229-9.339,4.502-14.034,6.696l-14.079,6.598
			l-14.106,6.538l-14.153,6.436c-0.392,0.178-0.854,0.005-1.033-0.388c-0.046-0.102-0.069-0.217-0.07-0.322
			c-0.031-4.994-0.041-9.988-0.014-14.981l0.043-14.982c0.037-9.987,0.161-19.976,0.265-29.964v-0.01
			c0.002-0.141,0.089-0.26,0.212-0.31c4.754-1.934,9.485-3.923,14.219-5.904c4.744-1.959,9.439-4.032,14.16-6.044
			c9.418-4.081,18.779-8.299,28.219-12.326c0.325-0.139,0.701,0.013,0.839,0.337c0.034,0.079,0.05,0.162,0.051,0.243v0.009
			c0.038,4.858,0.058,9.718,0.022,14.576l-0.054,14.577c-0.099,9.718-0.195,19.436-0.443,29.153
			C136.171,87.522,136.153,87.547,136.128,87.56z"/>
	</g>
</g>
<g>
	<polygon style="fill-rule:evenodd;clip-rule:evenodd;fill:#FFAA00;" points="0.306,28.176 79.857,45.675 138.172,24.132 
		66.532,12.974 	"/>
	<g>
		<path style="fill:#1D1D1B;" d="M0.322,28.103c6.654,1.347,13.316,2.652,19.96,4.046l19.934,4.165l19.916,4.247l19.895,4.342
			l-0.444,0.03l14.594-5.344l14.602-5.323l29.256-10.504l0.076,0.761l-17.889-2.927l-8.951-1.424l-8.962-1.351
			c-5.971-0.921-11.957-1.749-17.938-2.611c-5.979-0.873-11.967-1.685-17.938-2.61l0.239-0.008
			c-5.515,1.283-11.024,2.594-16.553,3.814l-16.574,3.724l-16.597,3.621L0.323,28.25L0.322,28.103z M0.29,28.103l16.487-4.103
			l16.515-3.979l16.539-3.878c5.508-1.312,11.037-2.536,16.56-3.786c0.079-0.018,0.163-0.019,0.239-0.008
			c5.969,0.934,11.921,1.982,17.882,2.969c5.959,0.997,11.914,2.028,17.883,2.968l8.948,1.439l8.96,1.365l17.931,2.652
			c0.215,0.032,0.364,0.232,0.333,0.448c-0.022,0.146-0.121,0.261-0.25,0.31l-0.007,0.002L109.25,35.542L94.694,40.99l-14.563,5.427
			c-0.147,0.056-0.301,0.062-0.444,0.031l-19.88-4.408l-19.86-4.502l-19.841-4.584C13.491,31.43,6.895,29.819,0.29,28.25
			c-0.041-0.01-0.065-0.05-0.056-0.091C0.241,28.13,0.263,28.11,0.29,28.103z"/>
	</g>
</g>
<g>
	<polygon style="fill-rule:evenodd;clip-rule:evenodd;fill:#FFAA00;" points="0.089,28.176 0.327,35.97 79.288,54.343 
		79.469,45.066 	"/>
	<g>
		<path style="fill:#1D1D1B;" d="M0.17,28.273c0.184,2.562,0.318,5.125,0.474,7.688l-0.245-0.299
			c6.615,1.383,13.222,2.795,19.808,4.301c6.596,1.462,13.174,3.001,19.728,4.645c6.555,1.643,13.092,3.354,19.669,4.9
			c6.57,1.574,13.167,3.029,19.774,4.448l-0.489,0.38l0.017-9.28l0.446,0.562c-6.634-1.317-13.261-2.67-19.884-4.041
			c-6.63-1.335-13.235-2.788-19.848-4.209c-6.617-1.4-13.201-2.95-19.803-4.421l-9.88-2.308L0.17,28.273z M0.104,28.103l9.981,1.834
			l9.964,1.914c6.628,1.345,13.273,2.609,19.887,4.024c6.618,1.395,13.243,2.756,19.842,4.235
			c6.607,1.444,13.211,2.906,19.806,4.404l0.017,0.004c0.263,0.06,0.438,0.298,0.429,0.558l-0.346,9.274l-0.001,0.014
			c-0.008,0.217-0.19,0.386-0.407,0.378c-0.027-0.001-0.056-0.005-0.081-0.012c-6.554-1.644-13.116-3.251-19.706-4.738
			c-6.583-1.517-13.206-2.866-19.811-4.286c-6.606-1.419-13.188-2.941-19.752-4.542c-6.574-1.557-13.126-3.207-19.672-4.886
			l-0.016-0.004C0.102,36.24,0.01,36.116,0.01,35.98c-0.001-2.601-0.025-5.2,0.004-7.802c-0.001-0.042,0.034-0.076,0.076-0.076
			C0.095,28.102,0.1,28.102,0.104,28.103z"/>
	</g>
</g>
<g>
	<polygon style="fill-rule:evenodd;clip-rule:evenodd;fill:#F7C800;" points="79.71,45.197 79.533,54.314 137.631,31.18 
		137.884,24.132 	"/>
	<g>
		<path style="fill:#1D1D1B;" d="M79.785,45.252l-0.099,9.065l-0.21-0.145l57.929-23.56l-0.385,0.545l0.196-7.049l0.895,0.651
			l-14.508,5.364c-4.848,1.756-9.695,3.514-14.568,5.199c-4.872,1.689-9.728,3.421-14.618,5.059
			C89.553,42.042,84.679,43.674,79.785,45.252z M79.685,45.127c4.785-1.93,9.59-3.802,14.405-5.647
			c4.805-1.873,9.645-3.652,14.469-5.474c4.822-1.825,9.671-3.578,14.519-5.334l14.579-5.167l0.009-0.004
			c0.346-0.122,0.726,0.059,0.849,0.404c0.029,0.083,0.041,0.169,0.038,0.252l-0.31,7.045l-0.001,0.01
			c-0.011,0.246-0.168,0.452-0.384,0.536L79.589,54.456c-0.078,0.032-0.167-0.005-0.198-0.083c-0.008-0.019-0.011-0.042-0.011-0.061
			l0.255-9.116C79.636,45.165,79.658,45.137,79.685,45.127z"/>
	</g>
</g>
<g>
	<polygon style="fill-rule:evenodd;clip-rule:evenodd;fill:#961519;" points="30.323,97.538 39.317,100.451 39.169,36.28 
		29.173,34.282 	"/>
	<path style="fill:#1D1D1B;" d="M30.374,97.501c3.015,0.879,6.024,1.775,9.025,2.697l-0.348,0.253
		c-0.108-5.347-0.163-10.694-0.197-16.042c-0.032-2.674-0.038-5.348-0.022-8.021c-0.003-2.674,0.022-5.348,0.064-8.021
		c0.075-5.348,0.152-10.695,0.152-16.043c-0.003-5.348-0.062-10.695-0.154-16.042l0.221,0.269l-10.022-1.868l0.487-0.406
		l0.393,15.812c0.136,5.271,0.184,10.543,0.279,15.814l0.143,15.816C30.416,86.978,30.414,92.239,30.374,97.501z M30.273,97.539
		c-0.232-5.269-0.427-10.538-0.597-15.809l-0.433-15.812c-0.096-5.27-0.24-10.541-0.296-15.813L28.766,34.29v-0.009
		c-0.002-0.222,0.176-0.404,0.398-0.407c0.03,0,0.061,0.003,0.089,0.009l9.97,2.128l0.008,0.001
		c0.128,0.027,0.215,0.142,0.213,0.268c-0.066,5.349-0.101,10.696-0.08,16.043c0.025,5.348,0.126,10.695,0.226,16.043
		c0.055,2.674,0.092,5.347,0.101,8.021c0.028,2.674,0.034,5.348,0.015,8.021c-0.01,5.348-0.04,10.695-0.124,16.043v0.009
		c-0.002,0.146-0.122,0.262-0.268,0.26c-0.028-0.001-0.056-0.006-0.081-0.015c-2.983-1.016-5.958-2.059-8.927-3.118
		C30.288,97.578,30.274,97.559,30.273,97.539z"/>
</g>
<g>
	<polygon style="fill-rule:evenodd;clip-rule:evenodd;fill:#ED071E;" points="110.756,99.533 116.839,96.532 116.54,31.51 
		107.982,35.071 	"/>
	<path style="fill:#1D1D1B;" d="M110.804,99.451l5.937-3.118l-0.124,0.2c-0.12-5.418-0.225-10.836-0.266-16.255
		c-0.071-5.418-0.088-10.836-0.037-16.255c0.049-5.419,0.149-10.838,0.133-16.257c0.006-5.418-0.068-10.837-0.168-16.255l0.361,0.24
		l-8.508,3.678l0.239-0.375l0.81,16.11c0.281,5.37,0.466,10.743,0.695,16.115c0.226,5.372,0.372,10.748,0.554,16.122
		C110.582,88.751,110.714,94.1,110.804,99.451z M110.707,99.535c-0.373-5.365-0.702-10.733-1.011-16.102
		c-0.28-5.37-0.596-10.738-0.833-16.109c-0.233-5.372-0.51-10.742-0.692-16.115l-0.577-16.121l-0.001-0.008
		c-0.006-0.165,0.095-0.309,0.239-0.367l8.606-3.443l0.007-0.002c0.133-0.054,0.283,0.011,0.336,0.144
		c0.013,0.032,0.019,0.066,0.019,0.099c-0.05,5.419-0.075,10.837-0.019,16.256c0.035,5.418,0.184,10.836,0.283,16.254
		c0.101,5.418,0.134,10.837,0.112,16.256c0.009,5.418-0.046,10.837-0.116,16.256l-0.001,0.01c-0.001,0.084-0.052,0.157-0.124,0.19
		l-6.159,2.847c-0.025,0.012-0.056,0.001-0.067-0.025C110.708,99.547,110.707,99.541,110.707,99.535z"/>
</g>
<g>
	<polygon style="fill-rule:evenodd;clip-rule:evenodd;fill:#BD1622;" points="107.839,35.116 116.54,31.51 43.589,17.865 
		36.339,19.615 	"/>
	<path style="fill:#1D1D1B;" d="M107.834,35.063l8.609-3.784l0.05,0.479l-9.141-1.586l-9.128-1.656
		c-3.044-0.544-6.085-1.106-9.12-1.698c-3.039-0.572-6.073-1.172-9.103-1.79c-6.062-1.231-12.125-2.448-18.202-3.6
		c-6.079-1.138-12.168-2.22-18.263-3.277l0.121-0.003l-7.231,1.827l-0.008-0.721c5.975,1.214,11.939,2.479,17.903,3.744
		c5.969,1.244,11.918,2.576,17.875,3.872c5.958,1.291,11.892,2.698,17.839,4.042l8.916,2.037L107.834,35.063z M107.829,35.165
		l-8.977-1.758l-8.959-1.837c-5.97-1.24-11.953-2.416-17.911-3.709c-5.959-1.288-11.926-2.539-17.874-3.879
		c-5.953-1.318-11.905-2.637-17.847-4.006l-0.009-0.002c-0.198-0.046-0.322-0.244-0.276-0.442c0.032-0.142,0.144-0.246,0.276-0.276
		l7.269-1.673l0.007-0.001c0.039-0.009,0.079-0.009,0.115-0.002c6.064,1.217,12.133,2.409,18.212,3.546
		c6.082,1.123,12.176,2.179,18.273,3.223c3.049,0.52,6.094,1.057,9.134,1.621c3.044,0.545,6.083,1.12,9.118,1.713l9.109,1.755
		l9.096,1.826l0.009,0.002c0.135,0.027,0.223,0.158,0.195,0.294c-0.017,0.086-0.078,0.153-0.154,0.183l-8.777,3.42
		C107.849,35.166,107.838,35.167,107.829,35.165z"/>
</g>
<g>
	<polygon style="fill-rule:evenodd;clip-rule:evenodd;fill:#BD1622;" points="39.173,36.282 29.173,34.282 94.589,17.115 
		101.089,18.115 	"/>
	<path style="fill:#1D1D1B;" d="M39.163,36.331c-3.352-0.572-6.703-1.153-10.044-1.779c-0.149-0.027-0.248-0.171-0.219-0.32
		c0.02-0.105,0.098-0.186,0.195-0.213l0.008-0.003c5.426-1.528,10.87-2.985,16.314-4.445c5.444-1.459,10.908-2.842,16.383-4.179
		c5.477-1.333,10.945-2.7,16.396-4.136c5.448-1.441,10.882-2.938,16.312-4.452c0.04-0.012,0.081-0.014,0.121-0.009l0.01,0.002
		l6.512,0.92c0.22,0.031,0.373,0.234,0.341,0.454c-0.022,0.16-0.136,0.284-0.281,0.328l-0.008,0.003l-15.449,4.646
		c-5.147,1.557-10.321,3.02-15.48,4.536l-15.519,4.404c-5.181,1.441-10.369,2.86-15.567,4.242
		C39.179,36.332,39.17,36.332,39.163,36.331z M39.17,36.23c5.117-1.645,10.245-3.252,15.38-4.837l15.438-4.68
		c5.16-1.513,10.305-3.076,15.478-4.547l15.51-4.439l0.052,0.785l-6.487-1.08l0.131-0.007c-5.474,1.348-10.942,2.711-16.396,4.132
		c-5.453,1.426-10.888,2.919-16.313,4.447c-5.427,1.524-10.865,3.002-16.324,4.404c-5.459,1.401-10.917,2.806-16.395,4.139
		l-0.016-0.536C32.548,34.718,35.86,35.47,39.17,36.23z"/>
</g>
<path style="fill-rule:evenodd;clip-rule:evenodd;fill:#E2710D;" d="M71.503,26.481c-0.761-1.157-1.447-2.384-2.055-3.647
	c-3.34-6.946-5.396-18.399,2.231-20.148c2.965-0.681,9.742,1.404,10.664,5.468c1.078,4.76-5.305,10.342-6.928,16.444L71.503,26.481z
	"/>
<path style="fill-rule:evenodd;clip-rule:evenodd;fill:#961519;stroke:#1D1D1B;stroke-width:0.75;stroke-miterlimit:10;" d="
	M75.369,24.552l-3.846,1.851c-1.762-2.69-3.123-5.716-4.016-8.915c-1.396-5.001-2.262-13.263,4.182-14.74
	c3.16-0.726,9.723,1.565,10.598,5.425C83.344,12.838,77.021,18.406,75.369,24.552z"/>
<path style="fill-rule:evenodd;clip-rule:evenodd;fill:#E2710D;" d="M73.025,25.749c-1.293-4.877-0.475-10.652,1.075-14.85
	c1.903-5.178,5.467-5.411,6.389-4.269c1.185,1.471,2.264,4.634-1.985,11.346c4.559-4.721,7.541-14.74-2.167-15.172
	C73.055-0.603,69.141-0.6,66.469,1.91c-3.831,3.598-2.626,16.274,2.355,23.6c0.385,0.566,0.822,1.114,1.295,1.638L73.025,25.749z"/>
<g>
	<path style="fill-rule:evenodd;clip-rule:evenodd;fill:#ED071E;" d="M72.955,25.713l-2.82,1.358
		c-0.452-0.503-0.879-1.036-1.264-1.602c-1.231-1.811-2.194-3.885-2.92-6.015c-1.082-3.177-1.758-6.856-1.68-10.318
		c0.053-2.294,0.492-5.545,2.233-7.18c3.163-2.97,7.112-1.887,9.791,0.895l0.015,0.015l0.021,0.001
		c2.403,0.107,5.081,0.864,6.037,3.506c1.275,3.523-1.095,8.382-3.489,11.109c1.86-3.06,4.1-7.858,1.654-10.894
		c-0.656-0.814-2.03-0.64-2.89-0.251c-1.75,0.791-2.914,2.687-3.597,4.541C72.371,15.421,71.751,21.109,72.955,25.713z"/>
	<g>
		<path style="fill:#1D1D1B;" d="M73.012,25.74l-2.802,1.488l-0.109,0.059l-0.096-0.099c-1.126-1.147-2.015-2.507-2.776-3.913
			c-0.761-1.411-1.394-2.896-1.881-4.417c-0.968-3.056-1.588-6.246-1.508-9.476c0.026-1.611,0.217-3.237,0.749-4.79
			c0.27-0.771,0.615-1.534,1.133-2.197c0.524-0.667,1.181-1.168,1.893-1.585c1.431-0.819,3.184-1.028,4.747-0.576
			c1.567,0.44,2.945,1.379,4.067,2.513l-0.11-0.049c1.631,0.072,3.354,0.387,4.73,1.433c1.398,1.047,2.022,2.862,2.006,4.542
			c0.008,1.708-0.481,3.356-1.153,4.882c-0.68,1.53-1.571,2.959-2.667,4.24l-0.761-0.559c0.752-1.264,1.424-2.574,1.916-3.936
			c0.479-1.356,0.802-2.786,0.65-4.144c-0.084-0.673-0.287-1.322-0.65-1.878c-0.188-0.292-0.356-0.519-0.565-0.608
			c-0.224-0.115-0.525-0.157-0.836-0.146c-1.298,0.054-2.445,0.998-3.265,2.119c-0.837,1.137-1.359,2.52-1.804,3.919
			c-0.442,1.403-0.774,2.843-1.017,4.3c-0.447,2.911-0.533,5.922,0.101,8.839L73.012,25.74z M72.897,25.684
			c-0.848-2.868-0.972-5.929-0.638-8.91c0.165-1.502,0.454-2.991,0.872-4.448c0.416-1.451,0.911-2.924,1.81-4.234
			c0.86-1.281,2.24-2.484,3.997-2.586c0.432-0.018,0.896,0.024,1.344,0.244c0.486,0.227,0.762,0.644,0.979,0.969
			c0.459,0.694,0.718,1.507,0.821,2.311c0.2,1.627-0.194,3.191-0.732,4.625c-0.548,1.439-1.271,2.786-2.065,4.074l-0.761-0.559
			c1.045-1.184,1.924-2.536,2.618-3.966c0.683-1.433,1.177-2.975,1.248-4.542c0.081-1.551-0.403-3.178-1.628-4.173
			c-1.206-1.017-2.863-1.375-4.458-1.455L76.235,3.03l-0.043-0.046c-1.07-1.135-2.409-2.045-3.917-2.419
			c-1.493-0.401-3.129-0.176-4.411,0.663c-0.634,0.41-1.232,0.922-1.659,1.525c-0.432,0.609-0.719,1.323-0.937,2.054
			c-0.413,1.475-0.552,3.036-0.57,4.585c0.015,3.108,0.481,6.239,1.39,9.227c0.916,2.984,2.18,5.918,4.176,8.337l-0.205-0.04
			L72.897,25.684z"/>
	</g>
</g>
<path style="fill-rule:evenodd;clip-rule:evenodd;fill:#BD1622;" d="M72.062,25.478c-2.084-5.248-3.021-13.732,1.976-18.234
	C71.792,11.857,70.253,18.714,72.062,25.478z"/>
<path style="fill-rule:evenodd;clip-rule:evenodd;fill:#BD1622;" d="M69.182,25.286c-3.168-4.048-7.172-16.838-2.714-22.839
	C63.603,10.342,66.6,19.678,69.182,25.286z"/>
<path style="fill-rule:evenodd;clip-rule:evenodd;fill:#BD1622;" d="M68.209,13.594c-0.495-2.491-0.754-11.01,7.189-10.615
	C69.173,4.1,68.09,9.412,68.209,13.594z"/>
<linearGradient id="SVGID_1_" gradientUnits="userSpaceOnUse" x1="68.1309" y1="19.4158" x2="66.8949" y2="14.0622">
	<stop  offset="0" style="stop-color:#F4AE00"/>
	<stop  offset="1" style="stop-color:#FFCD00"/>
</linearGradient>
<path style="fill-rule:evenodd;clip-rule:evenodd;fill:url(#SVGID_1_);" d="M70.36,24.888c-1.223-1.056-2.335-3.194-3.075-5.351
	c-1.116-3.25-0.93-6.008-0.562-5.373c0.235,0.407,0.264,3.01,1.001,5.134C68.502,21.545,69.366,23.379,70.36,24.888z"/>
<linearGradient id="SVGID_2_" gradientUnits="userSpaceOnUse" x1="70.2767" y1="21.4482" x2="69.2831" y2="15.8127">
	<stop  offset="0" style="stop-color:#F4AE00"/>
	<stop  offset="1" style="stop-color:#FFCD00"/>
</linearGradient>
<path style="fill-rule:evenodd;clip-rule:evenodd;fill:url(#SVGID_2_);" d="M71.597,25.955c-1.019-1.146-1.445-2.354-1.87-4.651
	c-0.639-3.46-0.064-5.435,0.201-4.755c0.17,0.435-0.182,2.251,0.243,4.514C70.62,23.454,70.852,24.337,71.597,25.955z"/>
<path style="fill-rule:evenodd;clip-rule:evenodd;fill:#E2710D;" d="M65.197,18.523c-0.568-1.039-1.234-2.034-1.973-2.973
	c-4.058-5.155-12.575-10.615-18.078-4.455c-2.139,2.393-3.977,9.028-1.057,11.134c3.421,2.467,11.48-1.376,17.457-0.86
	L65.197,18.523z"/>
<path style="fill-rule:evenodd;clip-rule:evenodd;fill:#961519;stroke:#1D1D1B;stroke-width:0.75;stroke-miterlimit:10;" d="
	M61.534,21.313l3.586-2.797c-1.324-2.408-3.141-4.572-5.352-6.378c-3.456-2.823-9.926-6.219-14.575-1.016
	c-2.281,2.554-3.834,9.062-1.059,11.063C47.488,24.603,55.504,20.809,61.534,21.313z"/>
<path style="fill-rule:evenodd;clip-rule:evenodd;fill:#E2710D;" d="M63.777,19.629c-3.406-2.692-8.684-3.811-13.024-3.784
	c-5.35,0.026-7.431,3.09-6.96,4.266c0.607,1.512,2.688,3.47,10.566,1.867c-6.372,2.51-16.353,1.943-11.578-6.744
	c-1.121-3.976,0.953-7.422,4.472-8.976c5.044-2.228,15.038,2.874,18.545,9.595c0.271,0.519,0.5,1.08,0.688,1.663L63.777,19.629z"/>
<g>
	<path style="fill-rule:evenodd;clip-rule:evenodd;fill:#ED071E;" d="M63.785,19.557l2.631-2.051
		c-0.182-0.559-0.403-1.104-0.676-1.624c-0.866-1.661-2.097-3.171-3.498-4.488c-2.093-1.965-4.82-3.733-7.765-4.768
		c-1.953-0.685-4.911-1.333-7.203-0.321c-4.166,1.84-5.346,5.663-4.432,8.908l0.005,0.018l-0.01,0.019
		c-1.182,2.15-1.964,4.749-0.254,6.434c2.279,2.246,7.608,1.707,11.164,0.468c-3.55,0.663-8.76,1.107-10.013-2.016
		c-0.334-0.836,0.538-1.992,1.318-2.624c1.59-1.29,3.796-1.711,5.712-1.721C55.461,15.762,60.56,17.03,63.785,19.557z"/>
	<g>
		<path style="fill:#1D1D1B;" d="M63.783,19.494l2.518-2.136l-0.063,0.207c-1.008-2.696-3.004-4.889-5.191-6.708
			c-2.213-1.818-4.776-3.202-7.478-4.074c-1.358-0.4-2.767-0.677-4.16-0.616c-0.692,0.034-1.388,0.165-2.014,0.419
			c-0.67,0.282-1.278,0.605-1.854,1.029c-2.354,1.615-3.408,4.828-2.534,7.572l0.019,0.061l-0.032,0.061
			c-0.713,1.34-1.328,2.833-1.156,4.313c0.082,0.726,0.428,1.402,0.943,1.876c0.541,0.506,1.211,0.811,1.923,1.015
			c1.431,0.39,2.972,0.383,4.471,0.219c1.503-0.179,2.995-0.522,4.417-1.024l0.242,0.909c-1.405,0.273-2.832,0.478-4.288,0.519
			c-1.445,0.027-2.968-0.056-4.387-0.771c-0.696-0.357-1.35-0.924-1.729-1.66c-0.051-0.089-0.088-0.185-0.131-0.276l-0.032-0.07
			c-0.011-0.029,0.003,0.018-0.029-0.075l-0.01-0.032l-0.038-0.13c-0.071-0.325-0.042-0.545,0-0.779
			c0.103-0.449,0.303-0.815,0.53-1.141c0.922-1.301,2.349-2.06,3.771-2.442c1.427-0.398,2.938-0.445,4.351-0.362
			c1.435,0.07,2.861,0.26,4.258,0.578C58.869,16.594,61.597,17.676,63.783,19.494z M63.754,19.596
			c-2.309-1.634-5.045-2.492-7.781-2.984c-1.378-0.229-2.769-0.364-4.16-0.393c-1.407-0.037-2.759,0.06-4.054,0.46
			c-1.268,0.399-2.486,1.059-3.2,2.103c-0.178,0.252-0.311,0.525-0.363,0.768c-0.025,0.111-0.016,0.25-0.018,0.273l0.038,0.124
			l0.01,0.031c-0.026-0.071,0-0.005-0.003-0.015l0.024,0.051c0.033,0.066,0.059,0.138,0.097,0.201
			c0.277,0.525,0.741,0.93,1.297,1.214c1.133,0.558,2.526,0.69,3.887,0.685c1.373-0.014,2.759-0.185,4.133-0.428l0.242,0.909
			c-1.509,0.508-3.066,0.829-4.646,0.96c-1.574,0.124-3.198,0.087-4.745-0.423c-0.762-0.254-1.523-0.651-2.095-1.236
			c-0.607-0.601-0.96-1.41-1.022-2.23c-0.099-1.65,0.568-3.158,1.307-4.514l-0.013,0.121c-0.384-1.432-0.4-2.976,0.039-4.404
			c0.437-1.432,1.348-2.701,2.509-3.648c0.573-0.475,1.243-0.872,1.9-1.188c0.709-0.331,1.459-0.506,2.217-0.583
			c1.521-0.157,3.028,0.097,4.459,0.509c2.876,0.829,5.476,2.392,7.734,4.299c1.129,0.953,2.157,2.047,3.029,3.244
			c0.866,1.196,1.626,2.51,2.02,3.945l0.037,0.136l-0.101,0.071l-2.747,1.964L63.754,19.596z"/>
	</g>
</g>
<path style="fill-rule:evenodd;clip-rule:evenodd;fill:#BD1622;" d="M64.06,18.696c-3.298-3.508-9.919-7.036-16.338-4.07
	C52.779,14.117,59.345,14.947,64.06,18.696z"/>
<path style="fill-rule:evenodd;clip-rule:evenodd;fill:#BD1622;" d="M56.132,11.515c-1.827-1.231-8.834-4.173-12.708,2.949
	C47.659,9.338,52.687,10.078,56.132,11.515z"/>
<path style="fill-rule:evenodd;clip-rule:evenodd;fill:#E2710D;" d="M70.112,22.049c-1.86-0.322-3.729-0.51-5.574-0.575
	c-10.132-0.357-23.928,3.497-19.343,14.305c1.782,4.199,9.691,11.738,14.747,10.618c5.924-1.312,6.424-12.693,11.484-18.244
	L70.112,22.049z"/>
<path style="fill-rule:evenodd;clip-rule:evenodd;fill:#961519;stroke:#1D1D1B;stroke-width:0.75;stroke-miterlimit:10;" d="
	M71.339,28.118l-1.291-5.997c-4.318-0.74-8.653-0.776-12.776-0.11c-6.444,1.041-15.877,4.615-12.003,13.745
	c1.9,4.479,9.842,11.624,14.646,10.559C65.719,45.028,66.256,33.731,71.339,28.118z"/>
<path style="fill-rule:evenodd;clip-rule:evenodd;fill:#E2710D;" d="M70.623,24.423c-6.227,1.104-11.62,5.435-14.735,9.81
	c-3.85,5.387-1.093,10.104,0.887,10.642c2.548,0.689,6.79,0.284,10.279-8.992c-1.132,8.545-9.172,18.066-17.809,5.819
	c-6.355-2.29-9.649-7.327-9.258-12.19c0.562-6.971,14.93-12.612,26.844-10.358c0.921,0.174,1.868,0.426,2.817,0.737L70.623,24.423z"
	/>
<g>
	<path style="fill-rule:evenodd;clip-rule:evenodd;fill:#ED071E;" d="M70.527,24.353l-0.945-4.399
		c-0.91-0.297-1.832-0.543-2.754-0.717c-2.944-0.558-5.941-0.619-8.796-0.345c-4.258,0.41-8.704,1.628-12.285,3.693
		c-2.373,1.369-5.426,3.779-5.681,6.947c-0.463,5.756,4.007,10.223,9.193,12.092l0.028,0.011l0.019,0.025
		c2.138,3.031,5.191,6.047,8.78,5.778c4.786-0.357,8.147-7.112,9.002-11.741c-1.655,4.13-5.062,10.684-10.323,9.259
		c-1.409-0.383-2.385-2.25-2.7-3.576c-0.641-2.7,0.375-5.274,1.754-7.204C59.192,29.442,64.662,25.418,70.527,24.353z"/>
	<g>
		<path style="fill:#1D1D1B;" d="M70.466,24.314L69.4,19.993l0.124,0.138c-3.992-1.192-8.228-1.256-12.335-0.75
			c-4.093,0.541-8.143,1.765-11.685,3.844c-1.728,1.073-3.398,2.367-4.407,4.108c-0.507,0.874-0.767,1.822-0.779,2.861
			c-0.036,1.006,0.087,2.04,0.375,3.02c0.567,1.979,1.806,3.727,3.326,5.123c1.524,1.412,3.377,2.435,5.332,3.134l0.049,0.018
			l0.031,0.043c1.283,1.799,2.8,3.472,4.672,4.589c0.933,0.55,1.966,0.925,3.022,1.002c1.064,0.079,2.111-0.16,3.032-0.667
			c1.865-1.022,3.226-2.832,4.266-4.722c1.034-1.912,1.796-3.997,2.19-6.124l0.927,0.269c-0.707,1.786-1.529,3.541-2.592,5.179
			c-1.062,1.617-2.4,3.189-4.287,4.073c-0.935,0.435-2.01,0.626-3.046,0.508c-0.516-0.066-1.012-0.143-1.552-0.417
			c-0.517-0.276-0.898-0.663-1.226-1.072c-0.64-0.835-1.053-1.755-1.284-2.779c-0.216-0.958-0.217-2.029-0.046-3.006
			c0.342-1.988,1.38-3.767,2.596-5.248c1.2-1.516,2.575-2.88,4.081-4.076C63.166,26.654,66.707,24.904,70.466,24.314z
			 M70.536,24.402c-3.716,0.796-7.095,2.704-9.944,5.131c-1.418,1.229-2.713,2.598-3.845,4.082c-1.15,1.47-2.038,3.115-2.306,4.901
			c-0.273,1.769,0.128,3.636,1.193,5.003c0.263,0.329,0.575,0.623,0.9,0.793c0.306,0.165,0.766,0.254,1.188,0.301
			c0.855,0.092,1.717-0.064,2.503-0.432c1.589-0.741,2.824-2.183,3.854-3.697c1.027-1.539,1.848-3.231,2.559-4.967l0.927,0.269
			c-0.449,2.247-1.253,4.394-2.376,6.376c-1.136,1.949-2.591,3.852-4.697,4.942c-1.048,0.533-2.267,0.768-3.424,0.635
			c-1.168-0.126-2.265-0.576-3.231-1.183c-1.938-1.23-3.401-3.004-4.691-4.817l0.08,0.061c-1.985-0.72-3.834-1.824-5.425-3.221
			c-1.586-1.401-2.858-3.194-3.533-5.231c-0.339-1.02-0.51-2.086-0.512-3.174c-0.034-1.06,0.224-2.208,0.747-3.164
			c1.044-1.947,2.753-3.383,4.557-4.509c3.655-2.251,7.84-3.403,12.042-3.901c2.096-0.248,4.23-0.29,6.338-0.107
			c2.104,0.185,4.212,0.555,6.199,1.284l0.106,0.039l0.018,0.099l0.822,4.478L70.536,24.402z"/>
	</g>
</g>
<path style="fill-rule:evenodd;clip-rule:evenodd;fill:#BD1622;" d="M66.897,19.741c-6.934-1.779-23.782,0.324-26.346,9.466
	C46.454,21.041,58.813,19.599,66.897,19.741z"/>
<path style="fill-rule:evenodd;clip-rule:evenodd;fill:#BD1622;" d="M67.471,21.483c-2.142-0.974-5.331-1.192-8.228-0.921
	c-4.365,0.408-7.112,2.212-6.134,2.324c0.627,0.072,3.392-1.367,6.251-1.624C62.383,20.989,65.044,21.06,67.471,21.483z"/>
<path style="fill-rule:evenodd;clip-rule:evenodd;fill:#E2710D;" d="M72.384,22.119c0.609-1.212,1.335-2.371,2.148-3.464
	c4.471-5.997,14.127-12.292,20.86-4.986c2.617,2.839,5.101,10.653,1.802,13.087c-3.865,2.85-13.461-1.771-20.406-1.246
	L72.384,22.119z"/>
<path style="fill-rule:evenodd;clip-rule:evenodd;fill:#961519;stroke:#1D1D1B;stroke-width:0.75;stroke-miterlimit:10;" d="
	M76.799,25.444l-4.326-3.332c1.422-2.81,3.43-5.325,5.916-7.417c3.887-3.268,11.261-7.167,16.949-0.994
	c2.791,3.027,4.936,10.691,1.801,13.003C93.352,29.496,83.807,24.933,76.799,25.444z"/>
<path style="fill-rule:evenodd;clip-rule:evenodd;fill:#E2710D;" d="M74.097,23.437c3.835-3.115,9.933-4.358,14.997-4.268
	c6.242,0.103,8.826,3.728,8.337,5.103c-0.63,1.767-2.958,4.038-12.229,2.05c7.56,3.032,19.173,2.502,13.159-7.762
	c1.104-4.654-1.491-8.727-5.676-10.6c-5.997-2.683-17.393,3.172-21.141,11.017c-0.29,0.605-0.527,1.261-0.718,1.942L74.097,23.437z"
	/>
<g>
	<path style="fill-rule:evenodd;clip-rule:evenodd;fill:#ED071E;" d="M74.084,23.352l-3.174-2.443
		c0.184-0.653,0.414-1.291,0.704-1.897c0.927-1.939,2.284-3.694,3.852-5.223c2.339-2.278,5.431-4.318,8.812-5.492
		c2.242-0.778,5.66-1.5,8.386-0.281c4.952,2.217,6.525,6.721,5.625,10.519l-0.005,0.021l0.013,0.021
		c1.487,2.541,2.533,5.603,0.625,7.558c-2.544,2.607-8.787,1.901-12.997,0.399C90.1,27.359,96.2,27.95,97.502,24.302
		c0.348-0.978-0.729-2.347-1.673-3.101c-1.92-1.534-4.515-2.059-6.75-2.096C83.599,19.008,77.717,20.428,74.084,23.352z"/>
	<g>
		<path style="fill:#1D1D1B;" d="M74.084,23.414l-3.292-2.353l-0.099-0.071l0.031-0.133c0.394-1.681,1.231-3.23,2.208-4.639
			c0.986-1.412,2.161-2.685,3.466-3.805c2.606-2.227,5.644-4.023,8.999-4.912c1.668-0.447,3.431-0.675,5.179-0.419
			c1.771,0.237,3.35,1.135,4.684,2.213c1.327,1.112,2.378,2.564,2.935,4.201c0.559,1.635,0.628,3.418,0.249,5.097l-0.018-0.122
			c0.907,1.567,1.744,3.282,1.747,5.196c-0.008,0.946-0.361,1.93-1.038,2.635c-0.662,0.713-1.544,1.171-2.436,1.459
			c-1.808,0.574-3.702,0.577-5.534,0.405c-1.839-0.183-3.648-0.583-5.399-1.19l0.251-0.907c1.598,0.302,3.212,0.523,4.817,0.564
			c1.588,0.028,3.229-0.093,4.563-0.749c0.656-0.334,1.19-0.826,1.494-1.462l0.103-0.244c0.003,0.021,0.063-0.199,0.055-0.215
			c0.012-0.05-0.004-0.242-0.043-0.377c-0.081-0.304-0.258-0.626-0.477-0.925c-0.883-1.226-2.302-2.017-3.781-2.515
			c-1.504-0.501-3.101-0.646-4.728-0.629c-1.623,0.011-3.248,0.143-4.855,0.396c-1.607,0.255-3.192,0.656-4.724,1.213
			c-1.532,0.551-3.013,1.28-4.328,2.263L74.084,23.414z M74.085,23.288c2.532-2.134,5.735-3.345,8.964-4.014
			c1.629-0.343,3.291-0.528,4.958-0.58c1.656-0.062,3.387,0.038,5.029,0.536c1.634,0.486,3.245,1.377,4.32,2.832
			c0.266,0.363,0.506,0.766,0.645,1.258c0.06,0.262,0.115,0.484,0.062,0.843c-0.034,0.187-0.026,0.169-0.1,0.381l-0.135,0.325
			c-0.4,0.863-1.141,1.54-1.947,1.949c-1.639,0.821-3.404,0.887-5.077,0.836c-1.686-0.07-3.34-0.325-4.968-0.658l0.25-0.907
			c1.667,0.601,3.412,1.023,5.174,1.253c1.757,0.211,3.568,0.249,5.253-0.205c0.834-0.232,1.63-0.609,2.234-1.209
			c0.605-0.592,0.942-1.414,0.983-2.277c0.083-1.753-0.711-3.468-1.586-5.011l-0.034-0.062l0.016-0.061
			c0.856-3.243-0.491-6.886-3.174-8.835c-1.327-0.976-2.847-1.747-4.463-1.89c-1.621-0.152-3.274,0.103-4.864,0.536
			c-3.171,0.932-6.162,2.547-8.717,4.682c-2.522,2.138-4.795,4.755-5.812,7.95l-0.067-0.204L74.085,23.288z"/>
	</g>
</g>
<path style="fill-rule:evenodd;clip-rule:evenodd;fill:#BD1622;" d="M73.719,22.338c3.668-4.074,11.211-8.128,18.85-4.56
	C86.643,17.113,79.026,17.999,73.719,22.338z"/>
<path style="fill-rule:evenodd;clip-rule:evenodd;fill:#BD1622;" d="M71.996,19.268c1.797-4.767,11.447-13.577,20.173-11.112
	C82.676,8.038,75.68,14.545,71.996,19.268z"/>
<path style="fill-rule:evenodd;clip-rule:evenodd;fill:#BD1622;" d="M82.599,14.013c2.069-1.42,10.092-4.78,14.974,3.634
	C92.37,11.572,86.543,12.372,82.599,14.013z"/>
<path style="fill-rule:evenodd;clip-rule:evenodd;fill:#E2710D;" d="M76.271,25.195c1.138-0.503,2.318-0.914,3.516-1.237
	c6.572-1.773,16.685-1.192,16.563,6.96c-0.048,3.168-3.232,9.566-6.86,9.554c-4.25-0.014-7.629-7.795-12.447-10.864L76.271,25.195z"
	/>
<path style="fill-rule:evenodd;clip-rule:evenodd;fill:#961519;stroke:#1D1D1B;stroke-width:0.75;stroke-miterlimit:10;" d="
	M77.091,29.569l-0.758-4.334c2.644-1.163,5.487-1.841,8.38-2.002c4.521-0.253,11.686,0.793,11.583,7.68
	c-0.05,3.379-3.362,9.509-6.81,9.498C85.321,40.397,81.94,32.678,77.091,29.569z"/>
<path style="fill-rule:evenodd;clip-rule:evenodd;fill:#E2710D;" d="M76.572,26.911c4.394-0.176,9.104,2.001,12.327,4.552
	c3.978,3.139,3.428,6.812,2.269,7.481c-1.492,0.859-4.393,1.219-9.175-4.659c3.034,5.729,10.878,11.091,13.28,1.334
	c3.568-2.539,4.387-6.514,2.826-9.812c-2.238-4.727-13.206-6.457-20.443-3.105c-0.56,0.259-1.115,0.576-1.657,0.935L76.572,26.911z"
	/>
<g>
	<path style="fill-rule:evenodd;clip-rule:evenodd;fill:#ED071E;" d="M76.615,26.848l-0.556-3.18c0.52-0.343,1.06-0.651,1.62-0.911
		c1.789-0.828,3.744-1.322,5.697-1.562c2.912-0.359,6.164-0.188,9.074,0.697c1.93,0.588,4.584,1.792,5.602,3.939
		c1.847,3.905,0.102,7.662-2.811,9.734l-0.016,0.012l-0.006,0.021c-0.594,2.415-1.795,4.958-4.229,5.313
		c-3.245,0.475-7.349-3.563-9.152-6.63c2.195,2.602,6.275,6.492,9.356,4.717c0.824-0.477,0.967-1.913,0.818-2.876
		c-0.303-1.962-1.66-3.585-3.085-4.709C85.44,28.653,80.762,26.699,76.615,26.848z"/>
	<g>
		<path style="fill:#1D1D1B;" d="M76.584,26.885l-0.659-3.193l-0.018-0.083l0.077-0.055c1.204-0.863,2.586-1.457,3.992-1.899
			c1.411-0.447,2.875-0.723,4.347-0.851c2.941-0.243,5.963-0.024,8.779,0.964c1.405,0.493,2.773,1.179,3.879,2.228
			c0.545,0.524,1.026,1.141,1.321,1.851c0.297,0.68,0.508,1.415,0.606,2.154c0.194,1.486-0.069,3.018-0.734,4.346
			c-0.669,1.325-1.679,2.468-2.872,3.332l0.045-0.067c-0.385,1.528-0.929,3.111-2.071,4.316c-0.57,0.591-1.33,1.037-2.161,1.18
			c-0.825,0.152-1.689,0.014-2.459-0.254c-1.555-0.559-2.88-1.549-4.062-2.641c-1.182-1.104-2.218-2.356-3.063-3.75l0.581-0.412
			c0.898,1.048,1.867,2.039,2.925,2.906c1.057,0.854,2.216,1.626,3.473,1.965c0.625,0.155,1.272,0.192,1.862,0.008
			c0.149-0.038,0.291-0.102,0.431-0.166l0.183-0.092c0.072-0.048,0.157-0.104,0.174-0.131c0.166-0.144,0.309-0.431,0.393-0.716
			c0.34-1.227-0.013-2.591-0.673-3.725c-0.673-1.158-1.664-2.105-2.774-2.925c-1.103-0.826-2.282-1.557-3.513-2.188
			c-2.464-1.232-5.178-2.101-7.976-2.104H76.584z M76.648,26.811c2.802-0.164,5.609,0.564,8.158,1.736
			c1.287,0.587,2.514,1.305,3.667,2.13c1.153,0.808,2.259,1.801,3.026,3.053c0.77,1.238,1.192,2.8,0.79,4.307
			c-0.118,0.377-0.267,0.759-0.624,1.088c-0.105,0.1-0.17,0.136-0.242,0.187c-0.132,0.077-0.185,0.099-0.282,0.15
			c-0.175,0.082-0.356,0.162-0.545,0.213c-0.752,0.237-1.554,0.189-2.279,0.011c-1.462-0.382-2.677-1.226-3.77-2.136
			c-1.093-0.921-2.073-1.951-2.98-3.037l0.581-0.411c0.783,1.333,1.78,2.558,2.882,3.658c1.11,1.086,2.364,2.07,3.796,2.629
			c0.718,0.268,1.471,0.41,2.218,0.296c0.744-0.106,1.435-0.477,1.983-1.009c1.109-1.081,1.691-2.61,2.079-4.133l0.011-0.043
			l0.035-0.024c2.385-1.609,3.929-4.569,3.404-7.422c-0.258-1.402-0.849-2.77-1.93-3.671c-1.061-0.927-2.385-1.542-3.727-2.008
			c-2.729-0.887-5.65-1.19-8.526-0.985c-2.864,0.227-5.765,0.878-8.237,2.393l0.059-0.138L76.648,26.811z"/>
	</g>
</g>
<path style="fill-rule:evenodd;clip-rule:evenodd;fill:#BD1622;" d="M77.002,25.997c4.873-0.894,12.242,0.132,15,6.254
	C88.573,28.894,83.1,25.734,77.002,25.997z"/>
<path style="fill-rule:evenodd;clip-rule:evenodd;fill:#BD1622;" d="M77.77,23.116c4.086-2.274,15.738-3.36,19.876,2.564
	C91.572,20.932,83.051,21.8,77.77,23.116z"/>
<path style="fill-rule:evenodd;clip-rule:evenodd;fill:#BD1622;" d="M87.856,24.852c2.21,0.077,9.466,1.799,7.466,9.773
	C95.681,28.043,91.417,25.706,87.856,24.852z"/>
<path style="fill-rule:evenodd;clip-rule:evenodd;fill:#E2710D;" d="M69.697,30.393c1.153-1.628,0.516-4.706-0.131-6.793
	c-0.316-1.023-1.361-3.787-0.793-4.547c0.318-0.425,1.046-0.414,1.59-0.408c2.91,0.395,7.817,2.928,8.951,6.102
	c1.462,4.092-2.171,7.917-5.939,7.704c-1.306-0.072-2.629-0.456-3.624-1.613l-0.202-0.235L69.697,30.393z"/>
<g>
	<path style="fill-rule:evenodd;clip-rule:evenodd;fill:#BD1622;" d="M69.768,30.45c1.17-1.65,0.531-4.748-0.123-6.859
		c-0.284-0.917-1.348-3.75-0.802-4.479c0.303-0.404,1.024-0.39,1.528-0.384c2.751,0.372,7.72,2.823,8.866,6.031
		c1.503,4.205-2.353,7.808-5.875,7.608c-1.252-0.069-2.566-0.428-3.554-1.576l-0.155-0.182L69.768,30.45z"/>
	<path style="fill:#1D1D1B;" d="M69.747,30.436c0.619-0.933,0.672-2.109,0.552-3.189c-0.115-1.099-0.42-2.163-0.733-3.217
		c-0.34-1.04-0.736-2.098-0.954-3.21c-0.056-0.278-0.091-0.562-0.104-0.854c-0.001-0.29-0.012-0.601,0.177-0.912
		c0.079-0.11,0.108-0.113,0.166-0.175c0.063-0.049,0.149-0.096,0.225-0.137c0.147-0.059,0.295-0.095,0.442-0.115
		c0.293-0.039,0.578-0.025,0.855-0.016l0.011,0.001l0.004,0.001c2.216,0.425,4.264,1.397,6.121,2.649
		c0.911,0.651,1.77,1.414,2.405,2.376c0.648,0.956,0.938,2.137,0.897,3.301c-0.097,2.367-1.85,4.434-3.994,5.224
		c-1.072,0.427-2.283,0.46-3.375,0.204c-1.104-0.239-2.138-0.84-2.81-1.737l-0.014-0.019l0.012-0.017L69.747,30.436z M69.788,30.463
		l-0.112,0.163l-0.002-0.035c0.69,0.875,1.721,1.43,2.808,1.565c1.091,0.175,2.183,0.018,3.17-0.407
		c1.968-0.83,3.524-2.704,3.658-4.84c0.067-1.051-0.197-2.134-0.749-3.052c-0.552-0.925-1.35-1.704-2.213-2.38
		c-1.736-1.337-3.819-2.329-5.993-2.634l0.014,0.001c-0.525,0.009-1.17,0.021-1.408,0.388c-0.184,0.389-0.046,0.993,0.057,1.503
		c0.234,1.067,0.641,2.092,0.935,3.181c0.303,1.079,0.483,2.196,0.534,3.316C70.509,28.337,70.445,29.53,69.788,30.463z"/>
</g>
<path style="fill-rule:evenodd;clip-rule:evenodd;fill:#E20613;stroke:#1D1D1B;stroke-miterlimit:10;" d="M73.327,32.106
	c3.507,0.197,7.082-3.388,5.686-7.297c-1.058-2.958-5.775-5.436-8.616-5.82c-1.473-0.014-0.534,1.882,0.604,5.167
	c0.402,1.161,0.908,3.778,0.442,6.288C71.25,31.487,72.33,31.98,73.327,32.106z"/>
<g>
	<path style="fill-rule:evenodd;clip-rule:evenodd;fill:#E20613;" d="M79.559,26.144c-1.034-2.48-6.939-4.663-9.126-5.406
		c-1.761-0.599-8.217-2.351-9.846-2.035l-0.139,0.027l0.021-0.146c0.265-1.88,1.837-5.516,3.37-6.442
		c4.428-2.67,10.903-0.011,14.731,4.188c2.576,2.825,3.018,7.178,1.129,9.848l-0.08,0.112L79.559,26.144z"/>
	<g>
		<path style="fill:#1D1D1B;" d="M79.513,26.165c-0.362-0.794-1.045-1.384-1.757-1.874c-0.72-0.489-1.504-0.877-2.297-1.235
			c-1.591-0.71-3.252-1.246-4.897-1.808c-1.637-0.529-3.331-1-5.004-1.489c-0.841-0.233-1.686-0.453-2.537-0.638
			c-0.844-0.166-1.727-0.371-2.542-0.233l-0.228,0.039l0.036-0.22c0.241-1.464,0.758-2.845,1.413-4.159
			c0.324-0.66,0.687-1.307,1.169-1.895c0.243-0.292,0.512-0.573,0.869-0.797c0.297-0.188,0.643-0.384,0.993-0.535
			c1.393-0.628,2.963-0.784,4.461-0.626c1.504,0.164,2.957,0.615,4.317,1.24c1.357,0.633,2.627,1.45,3.758,2.426
			c0.565,0.487,1.107,1.006,1.602,1.565c0.492,0.562,0.938,1.228,1.273,1.898c1.329,2.719,1.256,6.109-0.481,8.496l-0.056,0.076
			l-0.035-0.087L79.513,26.165z M79.604,26.124l0.063,0.146l-0.09-0.01c0.856-1.168,1.19-2.652,1.091-4.063
			c-0.076-1.421-0.559-2.784-1.263-3.971c-0.361-0.604-0.764-1.129-1.262-1.628c-0.489-0.506-1.002-0.989-1.548-1.434
			c-1.092-0.889-2.274-1.669-3.534-2.289c-2.49-1.229-5.438-1.865-8.074-0.922c-0.326,0.112-0.625,0.251-0.957,0.425
			c-0.271,0.141-0.537,0.367-0.771,0.618c-0.475,0.506-0.872,1.107-1.227,1.727c-0.659,1.263-1.245,2.616-1.423,4.03l-0.191-0.182
			c0.923-0.182,1.806-0.009,2.685,0.076c0.878,0.114,1.749,0.265,2.616,0.434c1.737,0.332,3.446,0.74,5.133,1.336
			c1.667,0.595,3.275,1.358,4.811,2.244c0.769,0.44,1.509,0.934,2.207,1.479C78.55,24.689,79.242,25.3,79.604,26.124z"/>
	</g>
</g>
<path style="fill-rule:evenodd;clip-rule:evenodd;fill:#BD1622;" d="M79.632,26.122c0.153-0.217,0.289-0.439,0.409-0.669
	c-4.443-6.576-13.869-9.677-19.01-8.65c-0.25,0.716-0.435,1.4-0.497,1.845c0.577-0.038,1.222-0.044,2.519,0.118
	C68.054,19.389,78.246,22.799,79.632,26.122z"/>
<path style="fill-rule:evenodd;clip-rule:evenodd;fill:#BD1622;" d="M79.457,18.694c-2.574-3.827-7.689-7.617-14.062-6.121
	c-1.124,0.554-2.309,2.11-1.867,2.832c0.2,0.327,2.691-0.111,4.89,1.391c-4.049-1.043-6.209-0.225-6.545-0.604
	c0.133-1.516,1.491-3.431,2.742-4.065C69.421,9.689,76.583,13.419,79.457,18.694z"/>
</svg>
