<?xml version="1.0" encoding="iso-8859-1"?>
<!-- Generator: Adobe Illustrator 21.1.0, SVG Export Plug-In . SVG Version: 6.00 Build 0)  -->
<svg version="1.1" id="Layer_1" xmlns="http://www.w3.org/2000/svg" xmlns:xlink="http://www.w3.org/1999/xlink" x="0px" y="0px"
	 width="126.786px" height="393.12px" viewBox="0 0 126.786 393.12" style="enable-background:new 0 0 126.786 393.12;"
	 xml:space="preserve">
<path style="fill:#A05007;stroke:#1D1E1C;stroke-width:2;stroke-miterlimit:10;" d="M43.309,32.791
	c3.65,5.413,25.499,21.772,27.48,28.708c1.017,4.409,2.635,7.912,3.019,12.784c0.962,2.011,1.081,5.267,1.731,7.444
	c0.396,1.343,1.306,8.993,1.206,7.438c-0.188-3.177-0.115-3.096,0.025,0.976c0.158,5.118,0.175,6.003-1.351,9.413
	c-1.101,2.471-2.977,4.135-4.573,5.936c0.056,0.473-9.911,0.922-3.595,3.184c3.629,1.3-5.963,1.797-7.115,5.227
	c-1.21,3.578,0.236,1.119-0.738,4.773c-0.265,1.007-2.243,3.971-2.612,4.947c-1.406,4.934-4.404,28.184-5.534,33.387
	c-0.028,0.133,9.057,67.314,9.034,67.113c-2.966-26.219-2.466-38.553,0.5-69c2.927-30.051,20.4-75.721,20.8-90.113
	c0.044-1.6-5.316-6.668-4-6.668c1.333,0,3.602,0.398,3-1.332c-10.667-30.668-30.045-34.939-31-35.334
	C47.99,21.014,43.438,32.788,43.309,32.791z"/>
<path style="fill:#FFD571;" d="M92.232,327.815c0.27-2.508,0.431-7.75,0.45-8.348c0.306-6.33-0.182-8.389-0.523-14.428
	c-0.357-6.119-0.519-9.469-1.033-15.471c-0.246-2.868-0.511-7.065-1.066-11.017c1.907-1.805-2.681,0.966-6.099,2.431
	c-0.301-0.963-1.27,3.502-0.631,6.9c0.64,5.623,1.582,10.865,2.583,16.189l3.941,17.26c1.642,6.893,7.67,27.623,7.67,27.623
	l1.71,5.461l1.413,4.838c0.034,0.143-0.062,0.139-0.126,0.133c-0.021-0.003,0.083,0.18,0.075,0.18
	c-1.952,2.111-4.823,2.84-6.91,3.555c-2.845,0.977-7.248,1.146-10.737,0.653c-4.826-0.685-7.104-1.607-10.106-3.99l0.662-15.827
	c0.291-9.882,0.627-19.939,0.691-30.002l-0.45-17.934c-0.237-7.443-2.12-15.641-1.971-12.658c-0.312-0.01-7.698,0.869-14.645-4.96
	c-0.112-0.095-0.931-0.192-1.276-0.165c-0.216,1.34-0.848,5.886-0.419,11.807c0.428,5.893,1.672,23.574,1.672,23.574l1.798,32.414
	l0.524,14.715c0.004,0.154,0.175,0.617-0.218,0.649c-0.329,0.034-5.791,1.273-8.539,1.38c-4.999,0.193-8.653-0.827-11.631-3.01
	c0.977-3.701,1.804-7.468,2.558-11.314c2.016-10.24,3.213-20.528,3.954-31.988c0.341-5.344,0.843-10.652,0.596-15.891
	c-0.399-8.34-1.051-16.457-1.728-24.504c-1.2-9.305-2.513-18.596-3.408-28.2c-0.025-0.232-0.93-17.692-1.52-25.366
	c-1.379-17.92,0.571-100.66,1.889-105.393l3.712,0.453c3.523-0.038,6.569,0.163,9.772-0.459c4.399-0.852,4.893-5.298,8.339-7.121
	c2.219-1.166-7.744,6.947-5.919,5.135c-0.372,1.635-0.5,8.5-2.5,20c-3.307,19.016,4.916,87.193,6.927,86.969
	c2.85-0.318,7.278-0.572,10.592-0.219c3.989,0.425,7.168,1.656,10.064,3.207c2.419,1.29,5.844,3.768,7.144,4.715
	c2.045,1.491,3.954,3.305,5.403,5.545c8.46,6.267,11.112,14.014,12.925,19.217c0.574,1.645,1.74,6.309,3.553,8.411
	c0.338,0.39-0.755,2.482-1.606,1.361c-1.658-2.181-2.347-4.575-4.812-11.156c-2.15-5.75-7.114-9.947-7.85-10.505
	c0.117,0.834,1.462,16.432,1.474,16.59c0.403,5.07,0.734,9.578,0.86,14.461c0.15,6.123,2.958,33.696,4.287,41.714
	c1.306,7.872,6.517,31.248,6.517,31.248c-2.53,2.919-10.702,4.302-12.269,4.163"/>
<path style="fill:#D68132;" d="M54.286,160.62c0,0-8,6.987-8,16.5c0,13,6,19,8.5,20.5s3.5,3.5,3.5,3.5l-3-28.5L54.286,160.62z"/>
<path style="fill:#FFD571;stroke:#000000;stroke-width:2;stroke-miterlimit:10;" d="M7.924,27.831
	c-0.408,1.17,0.043,2.928,0.671,4.002c1.894,3.184,4.634,5.529,7.826,7.45c3.309,1.987,6.443,3.76,11.359,4.012
	c0.373,0.018,1.28,0.354,1.375-0.035c0.419-1.672,0.721-3.372,1.227-4.974c-0.373-0.557-0.923-1.746-1.265-2.309
	c-2.686-4.409-6.771-7.549-11.894-9.53c-2.453-0.946-6.227-1.259-8.302,0.052C8.412,26.808,8.168,27.128,7.924,27.831z"/>
<path style="fill:#FFFFFF;stroke:#1D1E1C;stroke-miterlimit:10;" d="M15.575,33.991c1.72,1.723,3.928,3.205,5.721,4.073
	c1.027,0.497,2.818,1.389,4.4,1.723c0.456,0.101,1.67,0.134,1.991-0.082c-0.884-2.444-2.653-4.106-4.584-5.534
	c-1.205-0.891-3.579-2.43-4.013-2.688c-2.025-1.216-3.632-1.464-4.592-0.726C13.97,31.165,14.727,33.142,15.575,33.991z"/>
<path style="fill:#FFD571;stroke:#000000;stroke-width:2;stroke-miterlimit:10;" d="M63.034,37.79
	c1.393,1.966,2.905,3.996,4.212,6.053c5.33-0.098,9.634-1.328,13.155-3.324c2.356-1.34,4.608-2.965,5.981-5.256
	c0.929-1.55,1.188-3.489,1.215-3.623c0.517-2.95-1.177-4.485-3.184-5.412c-1.079-0.496-2.468-0.833-4.008-0.709
	c-3.843,0.312-6.567,1.857-9.141,3.588c-1.888,1.27-2.808,2.268-4.056,3.561C65.722,34.21,64.318,35.833,63.034,37.79z"/>
<path style="fill:#FFFFFF;stroke:#1D1E1C;stroke-miterlimit:10;" d="M66.745,38.948c0.351,0.461,3.236,0.412,5.413-0.084
	c1.855-0.425,4.726-1.764,6.258-2.58c3.284-1.746,4.3-3.496,3.438-4.562c-0.344-0.424-0.966-0.621-1.612-0.615
	c-2.564,0.014-4.379,0.746-6.155,1.657C70.646,34.53,66.575,38.722,66.745,38.948z"/>
<path style="fill:#848585;" d="M66.452,361.7c0.48,0.844,1.554,1.601,2.441,2.243c0.631,0.454,2.744,1.462,3.416,1.85
	c0.176-4.619,1.199-10.828,1.32-15.145c-1.228-0.314-4.322-1.211-5.187-1.912c-0.107-0.079-0.238,3.701-0.641,6.344
	C67.549,356.751,66.452,361.7,66.452,361.7z"/>
<path style="fill:#FFD251;" d="M69.093,284.062c-0.053,1.005,1.417,24.047,1.088,32.568c-0.107,2.801-1.232,29.264-1.737,32.088
	c0.987,0.621,4.468,2.564,5.773,2.946c0.171-1.466,2.756-13.241,2.927-14.122c-0.04-0.036,0.068-35.961,0.061-36.348
	c-0.129-6.787-5.349-17.204-5.349-17.204C71.46,282.17,69.815,284.175,69.093,284.062z"/>
<path style="fill:#848585;" d="M97.63,349.683l3.69,15.316c0.036,0.101,1.959-0.033,2.065-0.053c6.779-1.25,10-4.684,10.542-5.558
	c-1.475-4.282-2.376-8.901-3.702-13.443c-1.083,1.13-3.132,2.058-4.594,2.704c-1.928,0.862-2.241,1.512-4.817,1.618L97.63,349.683z"
	/>
<path style="fill:#848585;" d="M70.943,377.878l-0.068,1.994c0.134,1.145,1.323,1.812,2.336,2.279
	c2.436,1.117,13.348,3.538,21.508,0.508c4.207-1.562,7.362-4.373,8.617-6.389c1.167-1.874,1.152-5.462,0.438-8.115
	c-0.828-3.076-1.861-7.004-2.778-10.183c-1.059,0.556-2.024,3.103-3.09,3.599c-1.216,0.557-2.525,1.008-3.914,1.411
	c-3.144,0.912-7.599,1.121-11.303,0.439c-3.948-0.726-7.197-2.019-9.828-3.872c-0.105-0.08-0.255,0.023-0.255,0.1
	c-0.099,3.597-0.254,6.672-0.555,10.052c-0.25,2.733-0.807,5.55-1.036,8.067L70.943,377.878z"/>
<path style="fill:#848585;" d="M34.367,375.834c1.659,2.302,8.947,7.431,21.693,3.95c3.021-0.824,4.495-3.66,4.479-3.768
	c-0.438-2.619-0.805-5.271-0.897-8.165c-0.067-2.302,0.893-4.177-0.204-6.239c-0.318-0.598-3.576,0.273-6.662,0.692
	c-3.553,0.481-5.602,0.622-8.638-0.376c-1.634-0.533-3.792-1.275-5.182-2.117C39.064,360.176,34.31,375.753,34.367,375.834z"/>
<path style="fill:#D6830D;" d="M73.881,303.239c-0.007,0.584-3.368-0.314-3.677-0.363c0,0,0.076-8.336-0.09-11.584
	c0.911-0.023,2.041,0.228,2.845,0.467C72.972,292.266,73.963,296.735,73.881,303.239z"/>
<g>
	<path style="fill:#D68132;" d="M48.733,135.173c-0.331-6.193,2.817-10.439,5.166-12c1.806-1.201,4.564-3.11,5.5-1.167
		c-2.112-4.386-3.154,6.684-4,14.167c-0.125,1.104-0.748,9.242-0.833,10C51.015,144.386,49.101,142.092,48.733,135.173z"/>
	<path style="fill:#D68132;" d="M49.286,200.62c1.428,4.14,0.988,8.9-2,16.5c-0.9,2.289-4.297,6.518-6.963,6.961
		c-0.037-0.37-1.587-10.812-1.732-18.02c-0.012-0.629,0.573-14.042,0.621-14.687C44.003,192.091,47.528,195.527,49.286,200.62z"/>
	<path style="fill:#D68132;" d="M56.259,239.049c4.059,2.23,15.23,9.532,1.926,22.958c-2.482,2.507-9.293,7.129-13.797,8.025
		c-0.799-6.178-2.118-14.66-2.71-21.02c-0.023-0.23-0.429-8.024-0.592-11.614C44.954,236.931,50.864,236.086,56.259,239.049z"/>
	<path style="fill:#D68132;" d="M73.166,244.753c-4.872-3.375-7.198-7.336-6.476-13.41c0.449-3.768,1.653-6.611,4.184-8.969
		c0.403,0.033,5.785-0.275,12.564,3.926c2.327,1.443,8.389,5.244,10.294,8.07c0.521,0.768,0.813,1.166,1.384,1.924
		c0.217,0.286,0.909,1.283,1.344,3.592c0.289,1.534,0.645,5.567,0.312,5.66C89.905,247.454,79.086,248.848,73.166,244.753z"/>
	<path style="fill:#D68132;" d="M49.573,297.94c2.514,2.608,3.991,7.308,4.098,10.888c0.188,6.201-3.885,11.009-8.361,12.949
		c0.173-1.692,0.394-4.562,0.503-6.307c0.345-5.344,0.773-8.404,0.522-13.644c-0.071-1.57-0.172-5.356-0.261-6.911
		C47.178,295.559,48.911,297.255,49.573,297.94z"/>
	<path style="fill:#D68132;" d="M48.732,345.381c0.786-3.528,4.536-11.261,9.117-12.592c0,0,0.271,5.62,0.857,13.815
		c0.257,3.6,0.849,14.545,0.461,14.576c-0.338,0.035-6.714,1.508-8.138,1.295C44.914,361.559,47.454,351.076,48.732,345.381z"/>
	<path style="fill:#D68132;" d="M95.814,306.091c-0.292-1.923-0.073-6.687,0.496-8.766c0.744-2.729,2.194-3.767,4.283-3.988
		c0.541,4.811,1.011,9.85,1.622,14.594C98.563,307.589,96.359,309.698,95.814,306.091z"/>
	<path style="fill:#D68132;" d="M102.558,321.171c1.695,4.327,2.088,13.582-1.128,16.783c-2.88,2.849-5.575,0.76-6.845-1.322
		c-1.154-3.895-1.328-5.107-2.485-9.063c0.309-0.158,1.249-4.909,1.023-8.779C93.018,316.98,100.288,315.384,102.558,321.171z"/>
	<path style="fill:#D68132;" d="M81.166,296.425c0.192,3.787-3.103,12.015-6.526,13.59l-0.386-10.119
		c-0.007-3.501-0.349-8.619-0.349-8.619S80.734,288.12,81.166,296.425z"/>
	<path style="fill:#D68132;" d="M80.687,256.648c11.648-2.194,14.785,17.256,3.104,18.785c-4.957,0.649-10.912-1.073-13.06-5.415
		c-0.967-1.949-0.275-6.105,0.468-7.682C73.589,257.257,80.687,256.648,80.687,256.648z"/>
	<path style="fill:#D68132;" d="M84.31,337.356c-2.837,2.729-6.832,5.787-9.757,4.787c0.163-5.486,0.427-13.58,0.549-19.137
		C82.356,323.672,90.876,330.185,84.31,337.356z"/>
	<path style="fill:#D68132;" d="M78.696,355.675c0.113-6.275-0.047-12.055,12.124-11.484c2.36,0.11,4.435,0.748,5.287,1.363
		c0,0,1.361,4.994,1.927,6.828c0.636,2.053,2.485,8.23,2.485,8.23c0.036,0.143-6.508,3.356-10.04,3.447
		c-5.279,0.137-9.271-0.391-10.543-0.707C79.542,361.835,78.63,359.427,78.696,355.675z"/>
	<path style="fill:#D68132;" d="M43.189,128.87c-1.227,0.553-2.089,0.612-3.779,0.57c0.553-3.461,0.667-6.394,1.35-9.836
		l4.048,0.158c0.762-0.009,1.528-0.012,2.292-0.021C47.466,123.306,46.642,127.315,43.189,128.87z"/>
	<path style="fill:#D68132;" d="M68.796,62.356c-0.507-3.06,1.125-5.662,2.576-7.287c0.49,1.073,1.604,4.812,2.029,5.949
		l0.991,4.476c0.379,1.595,0.595,3.143,0.935,4.728C72.146,68.884,69.454,66.364,68.796,62.356z"/>
	<path style="fill:#D68132;" d="M74.197,315.485c-0.056,3.883-0.14,8.642-0.229,12.565c-0.799,0.236-2.405-0.073-3.327-0.22
		c0.013-0.803,0.297-12.682,0.275-13.512C71.511,314.416,73.914,315.316,74.197,315.485z"/>
	<path style="fill:#D68132;" d="M71.349,344.735c0.764,1.314,1.014,6.184,1.014,6.184s-2.104-1.066-2.534-1.309
		c-0.952-0.539-1.15-0.971-1.15-0.971s0.666-4.936,0.75-8.105C69.397,341.738,70.217,342.788,71.349,344.735z"/>
</g>
<path style="fill:#FFDF80;" d="M95.669,247.29c0.001,0.05,0.002,0.1,0.004,0.15L95.669,247.29z"/>
<g>
	<path style="fill:#1D1E1C;" d="M96.718,246.555c0.005-0.706-0.017-1.34-0.066-2.031c-0.048-0.68-0.119-1.361-0.204-2.045
		c-0.16-1.366-0.416-2.737-0.527-4.122c0.357,1.337,0.851,2.629,1.261,3.963c0.208,0.665,0.405,1.338,0.581,2.02
		c0.175,0.671,0.333,1.406,0.45,2.076L96.718,246.555z"/>
</g>
<path style="fill:none;stroke:#000000;stroke-width:2;stroke-linecap:round;stroke-linejoin:round;stroke-miterlimit:10;" d="
	M64.066,105.339c0,0-6.279-0.219-9.333,35.334c-1.027,11.957,5.022,80.82,6.98,81.416c1.957,0.596,10.144-2.409,20.656,2.988
	c10.513,5.396,11.382,10.001,13.288,11.202c1.906,1.2,7.498,4.683,10.201,12.49c2.703,7.808,3.611,13.911,4.374,14.392
	c0.763,0.48-0.948,2.025-0.948,2.025s-1.853-3.953-2.953-7.801c-1.1-3.848-3.865-9.279-5.785-10.979
	c-1.92-1.701-3.188-2.419-3.188-2.419s0.431,6.992,0.983,13.855c0.553,6.863,1.785,30.339,3.338,42.053
	c1.553,11.714,3.354,23.296,7.006,38.832c3.653,15.536,5.243,20.662,5.243,20.662s-1.399,2.246-5.359,3.849
	c-3.96,1.604-5.584,1.646-5.584,1.646s1.982,7.472,0.511,10.115c-1.553,2.791-2.988,5.329-9.813,7.381
	c-6.73,2.024-17.551,0.94-20.482-0.602c-2.702-1.424-2.616-2.926-2.059-5.566c0.557-2.641,1.168-10.416,1.168-10.416
	s-2.094-1.189-3.882-2.643c-1.788-1.454-1.788-1.454-1.788-1.454s2.564-12.07,2.901-23.208c0.337-11.138,1.077-26.036,0.674-36.78
	c-0.402-10.742-1.228-18.474-1.228-18.474s-2.999,0.077-7.818-2.549c-4.819-2.626-5.315-2.446-5.315-2.446
	s-0.991,0.358,0.247,19.208c1.237,18.849,2.373,38.576,2.711,46.82c0.338,8.244,0.69,21.864,1.284,25.476
	c0.593,3.611,0.443,6.273,0.443,6.273s-1.527,5.008-12.918,4.553c-11.391-0.456-13.254-4.735-13.254-4.735
	s6.609-20.102,9.779-47.442c3.169-27.342,2.479-34.793,0.274-52.32c-2.206-17.528-4.846-47.096-4.965-61.347
	c-0.118-14.251-0.055-87.159,1.046-92.94c1.102-5.78,1.37-5.037,1.102-5.78C41.334,115.261,64.066,105.339,64.066,105.339z"/>
<path style="fill:#A05007;stroke:#1D1E1C;stroke-width:1.5;stroke-miterlimit:10;" d="M119.938,280.667
	c-2.359,0.256-3.483-7.961-2.365-11.933c0.925-3.29-5.339-6.769-7.513-5.067c-5.946,4.654-2.302,8.906-1.562,9.793
	c1.802,2.162,2.963,0.209,4.319,2.639C114.206,278.589,118.685,280.802,119.938,280.667z"/>
<path style="fill:none;stroke:#1D1E1C;stroke-width:1.5;stroke-linecap:round;stroke-linejoin:round;stroke-miterlimit:10;" d="
	M92.069,327.985c0.578-1.168,0.99-4.037,1.055-10.738c0.031-3.045,0.13-3.386-0.441-12.243c-0.627-9.737-2.193-26.827-2.203-27.202
	l-7.046,3.184c0,0-1.899,3.926,2.036,20.704c3.935,16.778,8.574,34.255,12.215,46.825c3.02,10.425,5.693,17.107,5.693,17.107"/>
<path style="fill:none;stroke:#000000;stroke-width:2;stroke-miterlimit:10;" d="M68.987,283.234
	c2.621-0.192,3.393,0.662,3.807,2.152c0.414,1.489,3.043,11.3,1.925,40.589c-1.118,29.289-2.577,40.58-2.577,40.58"/>
<g>
	<path style="fill:#1D1E1C;" d="M42.976,365.335c-0.397,2.392-0.656,4.809-0.679,7.197c0.005,1.182,0.049,2.395,0.11,3.591
		c0.067,1.189,0.156,2.413,0.312,3.536l-1.992,0.176c-0.019-1.292,0.046-2.491,0.126-3.724c0.093-1.225,0.174-2.434,0.367-3.667
		C41.609,370.007,42.229,367.647,42.976,365.335z"/>
</g>
<g>
	<path style="fill:#1D1E1C;" d="M79.015,366.378c0.337,2.784,0.716,5.562,1.154,8.319c0.22,1.367,0.469,2.762,0.651,4.178
		c0.18,1.439,0.355,2.778,0.37,4.389l-2.986-0.295c0.201-1.178,0.287-2.638,0.348-3.987c0.062-1.374,0.056-2.763,0.092-4.183
		C78.712,371.982,78.842,369.178,79.015,366.378z"/>
</g>
<path style="fill:#FFD571;stroke:#1D1E1C;stroke-width:1.5;stroke-miterlimit:10;" d="M76.919,72.673
	c0.287,0.339,0.479,0.566,0.511,0.604c-0.774-4.165-0.911-6.119-1.844-10.131c-2.04-8.773-4.2-13.687-6.937-18.239
	c-2.495-4.153-4.614-7.232-9.251-9.751c-0.165-0.09-0.55-0.372-0.47-0.322c-0.169-0.999-0.188-2.057-0.139-3.133
	c0.264-2.525,0.661-5.68,0.788-7.256c0.055-0.619,0.143-1.375,0.296-1.857c0.415-0.426,0.795-0.329,1.268-0.188
	c0.61,0.184,1.018,0.367,1.448,0.244c1.047-0.3,1.238-1.369,1.474-2.559c0.356-1.825,0.282-6.608,0.034-6.833
	c-0.686-0.615-6.115-2.315-9.254-2.127c-0.681,0.045-1.063,0.5-1.353,1.022c-0.903,1.632-1.14,4.064-1.568,6.164
	c-0.13,0.619-0.328,1.671-0.052,1.837c0.475,0.288,1.55,0.635,2.219,0.793c1.757,0.411,2.307,0.73,2.261,1.452
	c-0.186,2.948-1.353,6.759-2.583,9.694c-0.093,0.172-0.183,0.35-0.28,0.518c-5.034-1.643-9.915-1.925-14.64-1.494
	c-0.036-0.084-0.065-0.147-0.083-0.178c-1.513-2.646-1.948-6.42-2.035-10.388c-0.011-0.444,0.342-0.791,0.75-0.868
	c0.717-0.138,1.537-0.252,2.016-0.687c0.546-0.493,0.529-1.314,0.591-2.169c0.098-1.574,0.146-3.025-0.072-4.316
	c-0.301-1.709-1.329-2.95-3.552-2.867c-2.337,0.09-4.737,0.253-6.596,0.945c-0.321,0.123-0.643,0.389-0.829,0.633
	c-0.273,0.367-0.516,0.83-0.56,1.394c-0.166,1.899-0.318,3.95,0.191,5.59c0.035,0.103,0.221,0.543,0.269,0.571
	c1.048,0.551,2.47,0.484,3.727,0.79c0.509,0.124,0.688,0.798,0.726,1.009c0.518,2.848,0.699,8.006,0.459,12.188
	c-2.141,1.613-3.496,4.209-4.407,6.568c-1.015,2.631-2.225,8.578-2.751,11.998c-1.324,6.154-5.412,16.088-4.462,14.626
	c0.054-0.009,0.154-0.047,0.282-0.102c-1.263,0.976-10.259,10.825-9.592,26.159c0.493,11.342,8.708,19.117,18,27.666
	c8.333,7.666,17.667,8,24,4c14.011-8.85,21.773-15.459,25.666-28C83.585,86.007,79.21,76.944,76.919,72.673z"/>
<g>
	<g>
		<path style="fill:#917167;" d="M36.728,88.058c-2.099-2.62-4.942-3.58-6.346-2.14c-1.407,1.438-0.845,4.728,1.256,7.35
			c2.101,2.621,4.943,3.581,6.35,2.142C39.392,93.97,38.829,90.678,36.728,88.058z"/>
		<g>
			<path style="fill:#231F20;" d="M36.689,88.089c-0.794-1.012-1.907-1.771-3.072-2.161c-1.165-0.375-2.395-0.396-3.09,0.462
				c-0.705,0.804-0.822,2.224-0.516,3.426c0.304,1.232,0.993,2.361,1.84,3.279c0.867,0.922,1.865,1.698,2.965,2.161
				c1.093,0.464,2.33,0.449,2.935-0.391c0.619-0.788,0.63-2.108,0.445-3.31C37.99,90.33,37.496,89.093,36.689,88.089z
				 M36.767,88.026c0.803,1.013,1.571,2.09,2.063,3.354c0.475,1.232,0.695,2.791-0.247,4.15c-0.453,0.628-1.28,1.042-2.041,1.06
				c-0.769,0.029-1.478-0.178-2.107-0.476c-1.266-0.603-2.254-1.591-3.006-2.671c-0.764-1.099-1.338-2.284-1.731-3.543
				c-0.354-1.23-0.681-2.69,0.179-4.032c0.412-0.622,1.211-1.037,1.955-1.052c0.75-0.039,1.445,0.203,2.038,0.536
				C35.069,86.029,35.943,87.036,36.767,88.026z"/>
		</g>
	</g>
	<path style="fill:#231F20;stroke:#231F20;stroke-miterlimit:10;" d="M35.104,86.946c-2.19-1.674-4.348-2.104-4.817-0.963
		c-0.468,1.143,0.927,3.426,3.12,5.1c2.193,1.676,4.349,2.105,4.815,0.965C38.692,90.905,37.295,88.622,35.104,86.946z"/>
</g>
<g>
	<g>
		<path style="fill:#917167;" d="M49.111,88.126c2.377-2.37,5.308-3.01,6.545-1.424c1.238,1.586,0.315,4.793-2.064,7.166
			c-2.377,2.373-5.309,3.012-6.546,1.426C45.809,93.708,46.733,90.499,49.111,88.126z"/>
		<g>
			<path style="fill:#231F20;" d="M49.076,88.09c0.929-0.892,1.908-1.796,3.175-2.334c0.626-0.266,1.344-0.429,2.086-0.308
				c0.737,0.098,1.485,0.597,1.827,1.262c0.704,1.429,0.218,2.844-0.271,4.027c-0.53,1.207-1.232,2.322-2.112,3.329
				c-0.866,0.99-1.958,1.864-3.283,2.323c-0.659,0.226-1.387,0.354-2.147,0.238c-0.754-0.102-1.531-0.605-1.911-1.279
				c-0.786-1.455-0.395-2.979,0.215-4.152C47.283,89.993,48.167,89.009,49.076,88.09z M49.147,88.162
				c-0.914,0.908-1.541,2.083-1.881,3.278c-0.316,1.174-0.453,2.486,0.075,3.339c0.509,0.902,1.736,1.053,2.874,0.713
				c1.144-0.338,2.222-0.999,3.186-1.819c0.943-0.819,1.753-1.864,2.192-3.056c0.438-1.161,0.479-2.584-0.133-3.462
				c-0.596-0.929-1.821-1.044-3.02-0.801C51.239,86.612,50.049,87.244,49.147,88.162z"/>
		</g>
	</g>
	<path style="fill:#231F20;stroke:#231F20;stroke-miterlimit:10;" d="M50.848,87.202c2.364-1.421,4.556-1.609,4.896-0.424
		c0.339,1.188-1.301,3.303-3.665,4.724c-2.364,1.423-4.556,1.61-4.894,0.426C46.844,90.739,48.484,88.624,50.848,87.202z"/>
</g>
<ellipse transform="matrix(0.9997 -0.0259 0.0259 0.9997 -1.2893 1.326)" style="fill:#1D1E1C;" cx="50.52" cy="50.412" rx="2.883" ry="4.653"/>
<path d="M48.046,47.675c0.185,0.553,0.707,0.949,1.321,0.933c0.748-0.02,1.34-0.644,1.32-1.393c-0.02-0.749-0.643-1.344-1.39-1.324
	c-0.022,0.001-0.041,0.007-0.062,0.008c0.383-0.311,0.81-0.504,1.27-0.516c1.658-0.043,3.056,2.089,3.125,4.761
	c0.068,2.674-1.217,4.874-2.874,4.917c-1.654,0.043-3.054-2.089-3.122-4.761C47.609,49.335,47.765,48.438,48.046,47.675z"/>
<path style="fill:#FFFFFF;" d="M50.688,47.215c0.02,0.749-0.572,1.373-1.32,1.393c-0.614,0.017-1.137-0.38-1.321-0.933
	c0.281-0.762,0.693-1.374,1.189-1.776c0.021-0.001,0.041-0.007,0.062-0.008C50.045,45.871,50.668,46.466,50.688,47.215z"/>
<path d="M38.182,46.689c0.075,0.632,0.606,1.121,1.253,1.104c0.686-0.018,1.229-0.59,1.212-1.279
	c-0.018-0.686-0.591-1.229-1.275-1.211c-0.024,0-0.043,0.013-0.066,0.016c0.359-0.246,0.75-0.383,1.162-0.376
	c1.592,0.028,2.846,2.135,2.799,4.704c-0.045,2.57-1.373,4.63-2.964,4.602c-1.594-0.029-2.846-2.135-2.799-4.705
	C37.522,48.455,37.78,47.474,38.182,46.689z"/>
<path style="fill:#FFFFFF;" d="M40.647,46.513c0.018,0.689-0.526,1.262-1.212,1.279c-0.647,0.018-1.178-0.472-1.253-1.104
	c0.301-0.591,0.682-1.07,1.123-1.371c0.023-0.003,0.043-0.016,0.066-0.016C40.056,45.284,40.629,45.827,40.647,46.513z"/>
<path d="M48.587,108.076c-1.872,1.174-3.972,1.804-6.011,1.848c-2.036-0.007-3.266-0.257-5.263-1.627
	c-1.999-1.381-2.772,0.251-0.685,2.189c2.479,3.192,4.539,4.059,6.977,3.983c2.843-0.061,5.678-2.881,6.643-3.78
	C52.16,108.907,50.461,106.86,48.587,108.076z"/>
<g>
	<path style="fill:#FFD571;" d="M57.422,56.734c0,0-4.24-2.839-10.709-3.333c-9.808-0.75-13.681,2.848-13.681,2.848"/>
	<path style="fill:#1D1E1C;" d="M57.422,56.734c-1.972-0.853-3.989-1.466-6.024-1.925c-2.047-0.443-4.087-0.693-6.188-0.739
		c-2.076-0.082-4.164-0.004-6.217,0.297c-2.043,0.329-4.099,0.812-5.961,1.882c1.501-1.588,3.627-2.473,5.726-3.028
		c2.128-0.56,4.329-0.708,6.511-0.648c2.161,0.075,4.374,0.413,6.438,1.113C53.771,54.378,55.764,55.344,57.422,56.734z"/>
</g>
<path style="fill:#B18220;" d="M33.752,17.339c1.603-0.041,3.649,0.445,5.417,0.834c-0.054,0.102-0.175,0.404-0.25,0.5
	c-0.547,0.238-0.651,0.139-1.334,0.25c-0.387,0.063-0.908,0.224-1.155,0.479c-0.345,0.355-0.687,0.596-1.428,0.521
	c-0.833-0.084-1.183-0.223-1.25-0.416c-0.09-0.296-0.625-0.584-1.542-0.793c-1.107-0.252-1.572-0.111-2.541-0.457
	C30.976,17.714,32.301,17.377,33.752,17.339z"/>
<path style="fill:#B18220;" d="M57.002,19.026c1.364,0.309,4.839,1.178,6.062,1.812c0.218,0.108-0.271,1.168-0.854,1.084
	c-0.302-0.043-1.083-0.459-1.833-0.375c-0.621,0.069-1.108,0.748-1.25,0.791c-0.958,0.293-1.417,0.25-2.042-0.457
	c-0.029-0.033-0.291-0.875-1.208-1.168c-0.783-0.249-1.001-0.368-1.583-0.5c-0.82-0.184-1.084-0.291-1.792-0.582
	c-0.058-0.023,0.075-0.56,0.062-0.668C53.373,18.432,56.528,18.921,57.002,19.026z"/>
<path style="fill:#E5B961;" d="M39.585,120.839c4.618,1.153,12.5-0.5,18.5-4.5s15.5-13.333,15.5-25
	c0-11.666-8.333-20.999-5.833-30.666c3.913-15.131-9.167-25.334-9.167-25.334s3.202,0.807,8.5,7.834
	c8.167,10.833,9.167,28.5,9.167,28.5s8.344,16.979,3,27.666c-5.833,11.667-25,27.668-33,27c-8-0.666-12.999-4.666-18.333-9.333
	c-5.334-4.667-6-6.5-6-6.5S34.62,119.601,39.585,120.839z"/>
<path style="fill:none;stroke:#000000;stroke-width:2;stroke-miterlimit:10;" d="M76.919,72.673
	c0.287,0.339,0.479,0.566,0.511,0.604c-0.774-4.165-0.911-6.119-1.844-10.131c-2.04-8.773-4.2-13.687-6.937-18.239
	c-2.495-4.153-4.614-7.232-9.251-9.751c-0.165-0.09-0.55-0.372-0.47-0.322c-0.169-0.999-0.188-2.057-0.139-3.133
	c0.264-2.525,0.661-5.68,0.788-7.256c0.055-0.619,0.143-1.375,0.296-1.857c0.415-0.426,0.795-0.329,1.268-0.188
	c0.61,0.184,1.018,0.367,1.448,0.244c1.047-0.3,1.238-1.369,1.474-2.559c0.356-1.825,0.282-6.608,0.034-6.833
	c-0.686-0.615-6.115-2.315-9.254-2.127c-0.681,0.045-1.063,0.5-1.353,1.022c-0.903,1.632-1.14,4.064-1.568,6.164
	c-0.13,0.619-0.328,1.671-0.052,1.837c0.475,0.288,1.55,0.635,2.219,0.793c1.757,0.411,2.307,0.73,2.261,1.452
	c-0.186,2.948-1.353,6.759-2.583,9.694c-0.093,0.172-0.183,0.35-0.28,0.518c-5.034-1.643-9.915-1.925-14.64-1.494
	c-0.036-0.084-0.065-0.147-0.083-0.178c-1.513-2.646-1.948-6.42-2.035-10.388c-0.011-0.444,0.342-0.791,0.75-0.868
	c0.717-0.138,1.537-0.252,2.016-0.687c0.546-0.493,0.529-1.314,0.591-2.169c0.098-1.574,0.146-3.025-0.072-4.316
	c-0.301-1.709-1.329-2.95-3.552-2.867c-2.337,0.09-4.737,0.253-6.596,0.945c-0.321,0.123-0.643,0.389-0.829,0.633
	c-0.273,0.367-0.516,0.83-0.56,1.394c-0.166,1.899-0.318,3.95,0.191,5.59c0.035,0.103,0.221,0.543,0.269,0.571
	c1.048,0.551,2.47,0.484,3.727,0.79c0.509,0.124,0.688,0.798,0.726,1.009c0.518,2.848,0.699,8.006,0.459,12.188
	c-2.141,1.613-3.496,4.209-4.407,6.568c-1.015,2.631-2.225,8.578-2.751,11.998c-1.324,6.154-5.412,16.088-4.462,14.626
	c0.054-0.009,0.154-0.047,0.282-0.102c-1.263,0.976-10.259,10.825-9.592,26.159c0.493,11.342,8.708,19.117,18,27.666
	c8.333,7.666,17.667,8,24,4c14.011-8.85,21.773-15.459,25.666-28C83.585,86.007,79.21,76.944,76.919,72.673z"/>
<path style="fill:#D86609;stroke:#1D1E1C;stroke-width:1.5;stroke-miterlimit:10;" d="M40.919,22.339
	c1.063,2.585,0.823,5.861-0.334,9.334c0,0,1,4.666,4,4.333c1.365-0.151,5-5,5-5c-2.333-2.667,0.001-9.333,0.001-9.333
	S45.058,23.349,40.919,22.339z"/>
</svg>
