<?xml version="1.0" encoding="iso-8859-1"?>
<!-- Generator: Adobe Illustrator 21.1.0, SVG Export Plug-In . SVG Version: 6.00 Build 0)  -->
<svg version="1.1" id="Layer_1" xmlns="http://www.w3.org/2000/svg" xmlns:xlink="http://www.w3.org/1999/xlink" x="0px" y="0px"
	 width="106.103px" height="180.573px" viewBox="0 0 106.103 180.573" style="enable-background:new 0 0 106.103 180.573;"
	 xml:space="preserve">
<g>
	<path style="fill:#754C28;" d="M59.222,93.102c0.309-7.771,13.321-31.821,13.321-31.821l-1.728-2.985
		c0,0-9.423,23.532-11.759,23.248c-0.851-0.104-3.152-12.038-2.612-13.141c0.536-1.091,12.55-17.429,12.55-17.429l-2.323,0.72
		c0,0-8.489,14.176-10.653,14.896c-0.611,0.205-1.378-14.128-1.915-16.111c-0.502-1.842-1.214,0.667-1.214,0.667
		s3.089,25.979,2.008,25.86c-0.609-0.069-7.235-15.307-7.089-16.702c0.198-1.882,4.697-11.051,4.697-11.051l-1.288-0.647
		c0,0-4.09,10.297-4.96,9.9c-0.983-0.448-2.005-5.755-2.793-8.16c-0.98-2.989-1.804-0.487-1.804-0.487s9.348,19.271,7.71,20.538
		c-1.109,0.855-16.7-21.746-16.7-21.746l-3.244,0.24c0,0,12.711,15.949,19.223,24.39c4.617,5.984,6.067,10.307,6.407,12.135
		c0.749,4.012-3.451,56.386-4.005,82.419c-0.053,2.536,11.612,2.074,11.854-1.153C63.522,158.465,57.538,135.394,59.222,93.102z"/>
	<path style="fill:#1A171B;" d="M59.184,93.1c0.074-1.45,0.437-2.863,0.833-4.25c0.405-1.388,0.884-2.752,1.389-4.105
		c1.018-2.704,2.158-5.36,3.346-7.992c2.389-5.26,4.962-10.433,7.668-15.538l0.002,0.135l-1.736-2.98l0.266-0.019
		c-1.908,4.743-3.894,9.453-6.042,14.096c-1.087,2.315-2.19,4.625-3.507,6.836c-0.337,0.549-0.682,1.094-1.095,1.607
		c-0.211,0.255-0.427,0.507-0.732,0.717c-0.163,0.087-0.342,0.226-0.659,0.129c-0.198-0.123-0.198-0.186-0.263-0.271
		c-0.05-0.08-0.088-0.157-0.125-0.234c-0.52-1.228-0.789-2.47-1.094-3.72c-0.561-2.503-1.05-5.014-1.301-7.586
		c-0.026-0.323-0.047-0.647-0.042-0.984c0.005-0.171,0.008-0.336,0.063-0.547c0.09-0.244,0.18-0.338,0.267-0.487
		c0.354-0.543,0.719-1.066,1.085-1.591l2.218-3.129c2.98-4.153,5.972-8.294,8.999-12.411l0.367,0.516l-2.325,0.715l0.184-0.145
		c-1.61,2.652-3.263,5.271-4.985,7.851c-0.863,1.289-1.744,2.567-2.674,3.814c-0.467,0.623-0.943,1.239-1.457,1.834
		c-0.258,0.297-0.524,0.588-0.816,0.866c-0.148,0.138-0.298,0.274-0.474,0.398c-0.088,0.062-0.183,0.122-0.289,0.176l-0.087,0.037
		l-0.044,0.018l-0.011,0.004c0.084-0.011-0.127,0.021-0.108,0.017l-0.018-0.001c-0.002,0.006-0.155-0.027-0.208-0.085
		c-0.064-0.059-0.047-0.053-0.073-0.084c-0.037-0.052-0.041-0.074-0.06-0.11c-0.276-0.856-0.308-1.58-0.42-2.367l-0.238-2.315
		l-0.404-4.628c-0.132-1.542-0.26-3.084-0.421-4.618c-0.091-0.758-0.151-1.553-0.339-2.248c-0.044-0.157-0.136-0.345-0.18-0.372
		c-0.009,0.01,0.08-0.007,0.028,0.012c-0.033,0.023-0.085,0.084-0.128,0.152c-0.178,0.282-0.312,0.652-0.418,0.999l0.007-0.096
		c0.536,4.661,1.037,9.324,1.476,13.996c0.217,2.336,0.422,4.673,0.572,7.017c0.072,1.173,0.138,2.345,0.132,3.528
		c-0.005,0.297-0.013,0.593-0.047,0.898c-0.033,0.162-0.014,0.288-0.145,0.51c-0.031,0.033-0.042,0.06-0.097,0.09
		c-0.03,0.015-0.066,0.025-0.1,0.03c-0.037-0.002,0.01,0.014-0.093-0.007l-0.013-0.006c-0.02,0.003-0.158-0.104-0.157-0.119
		c-0.062-0.07-0.103-0.132-0.147-0.198c-0.328-0.514-0.583-1.038-0.849-1.565c-2.028-4.241-3.881-8.551-5.48-12.974
		c-0.188-0.559-0.381-1.111-0.497-1.709c-0.075-0.325,0.04-0.649,0.109-0.926c0.082-0.287,0.177-0.566,0.277-0.844
		c0.403-1.108,0.868-2.187,1.34-3.261c0.951-2.146,1.957-4.265,2.987-6.374l0.051,0.151l-1.289-0.645l0.159-0.061
		c-0.714,1.789-1.456,3.565-2.243,5.325c-0.395,0.878-0.801,1.753-1.243,2.612c-0.223,0.429-0.451,0.855-0.713,1.268
		c-0.133,0.206-0.269,0.41-0.451,0.599c-0.101,0.075-0.182,0.23-0.449,0.187c-0.147-0.061-0.252-0.173-0.335-0.274
		c-0.58-0.848-0.81-1.79-1.108-2.709c-0.274-0.926-0.517-1.858-0.763-2.788c-0.25-0.927-0.484-1.863-0.801-2.759
		c-0.16-0.408-0.375-0.932-0.69-1.061c-0.129-0.054-0.294,0.081-0.418,0.259c-0.124,0.177-0.224,0.395-0.297,0.603l-0.008-0.12
		c1.8,3.735,3.535,7.5,5.142,11.325c0.796,1.915,1.572,3.841,2.208,5.825c0.157,0.497,0.302,0.999,0.421,1.511
		c0.109,0.517,0.234,1.027,0.167,1.614c-0.024,0.144-0.062,0.317-0.219,0.465l-0.028,0.027c-0.108,0.06-0.043,0.022-0.073,0.037
		c-0.019,0.005-0.021,0.011-0.054,0.017c-0.07,0.014-0.193,0.002-0.222-0.016c-0.088-0.031-0.158-0.069-0.218-0.109
		c-0.247-0.16-0.434-0.342-0.627-0.526c-0.378-0.37-0.727-0.758-1.069-1.15c-2.694-3.172-5.128-6.527-7.581-9.869
		c-2.438-3.353-4.836-6.731-7.206-10.133l0.246,0.118l-3.243,0.248l0.201-0.46c5.584,6.988,11.178,13.969,16.681,21.023
		c1.366,1.774,2.775,3.501,4.075,5.351c1.29,1.844,2.469,3.775,3.435,5.821c0.481,1.023,0.911,2.075,1.242,3.168
		c0.156,0.556,0.318,1.085,0.369,1.708c0.042,0.581,0.043,1.141,0.043,1.705c-0.015,2.249-0.115,4.483-0.215,6.72
		c-0.9,17.875-2.166,35.718-3.06,53.582l-0.609,13.398c-0.088,2.222-0.17,4.491-0.22,6.675c-0.014,0.325,0.445,0.634,0.921,0.807
		c0.485,0.183,1.02,0.289,1.556,0.361c1.079,0.139,2.187,0.142,3.281,0.054c1.094-0.092,2.187-0.273,3.217-0.61
		c0.512-0.171,1.012-0.383,1.44-0.674c0.424-0.287,0.776-0.676,0.814-1.118c0.151-2.179-0.069-4.426-0.269-6.641l-1.468-13.334
		C58.94,128.914,58.396,110.974,59.184,93.1z M59.259,93.104c-0.675,17.875-0.033,35.797,2.03,53.56l1.572,13.327
		c0.217,2.231,0.461,4.458,0.321,6.748c-0.066,0.701-0.57,1.208-1.049,1.54c-0.496,0.341-1.036,0.571-1.581,0.759
		c-1.094,0.366-2.222,0.56-3.354,0.665c-1.132,0.099-2.274,0.107-3.415-0.031c-0.57-0.073-1.142-0.178-1.707-0.385
		c-0.281-0.106-0.564-0.235-0.828-0.443c-0.258-0.193-0.522-0.54-0.532-0.944c0.031-2.287,0.098-4.489,0.168-6.736
		c0.136-4.473,0.366-8.941,0.589-13.409c0.909-17.87,2.189-35.72,3.101-53.577c0.101-2.231,0.202-4.466,0.219-6.689
		c0-0.554-0.001-1.113-0.04-1.648c-0.035-0.494-0.193-1.047-0.341-1.563c-0.315-1.048-0.733-2.073-1.202-3.073
		c-0.943-2-2.101-3.902-3.372-5.722c-1.271-1.812-2.689-3.555-4.05-5.325L29.203,49.067c-0.098-0.123-0.078-0.301,0.044-0.399
		c0.046-0.037,0.103-0.057,0.157-0.062l3.244-0.231c0.101-0.008,0.193,0.041,0.247,0.118c2.348,3.41,4.728,6.8,7.145,10.163
		c2.43,3.349,4.849,6.721,7.504,9.88c0.336,0.389,0.678,0.775,1.04,1.13c0.18,0.174,0.369,0.353,0.558,0.476
		c0.048,0.032,0.092,0.054,0.126,0.067c0.029,0.01-0.025-0.009-0.032,0.018c-0.001,0.006,0.026-0.008,0.037-0.011
		c-0.015,0.01,0.066-0.034-0.027,0.02l0.006-0.009c0.037-0.028,0.077-0.121,0.091-0.229c0.065-0.931-0.283-1.975-0.563-2.942
		c-0.62-1.964-1.387-3.889-2.173-5.802c-1.588-3.82-3.308-7.59-5.09-11.326l-0.002-0.005c-0.018-0.037-0.019-0.079-0.006-0.115
		c0.088-0.244,0.191-0.468,0.343-0.686c0.136-0.191,0.397-0.482,0.767-0.377c0.317,0.117,0.453,0.364,0.584,0.576
		c0.125,0.222,0.22,0.449,0.307,0.683c0.321,0.92,0.551,1.855,0.798,2.786c0.243,0.931,0.482,1.862,0.75,2.782
		c0.283,0.903,0.537,1.87,1.048,2.619c0.067,0.085,0.136,0.149,0.208,0.187c-0.02,0.014,0.102-0.042,0.168-0.12
		c0.153-0.157,0.288-0.354,0.416-0.552c0.256-0.398,0.484-0.82,0.706-1.244c0.441-0.85,0.85-1.721,1.247-2.595
		c0.792-1.751,1.539-3.523,2.259-5.306c0.023-0.06,0.09-0.089,0.15-0.065l0.01,0.004l1.287,0.649
		c0.055,0.028,0.078,0.095,0.051,0.151c-1.022,2.108-2.015,4.233-2.954,6.378c-0.466,1.074-0.924,2.153-1.317,3.25
		c-0.167,0.539-0.436,1.129-0.366,1.629c0.11,0.554,0.306,1.113,0.494,1.663c1.611,4.389,3.489,8.701,5.527,12.908
		c0.263,0.519,0.528,1.048,0.833,1.521c0.038,0.056,0.079,0.115,0.115,0.155c0.049,0.038-0.038-0.01,0.01,0.02
		c-0.086-0.027-0.134,0.031-0.123,0.02c0.025-0.029,0.059-0.211,0.071-0.334c0.03-0.278,0.037-0.568,0.04-0.858
		c0-1.162-0.071-2.332-0.148-3.499c-0.161-2.336-0.377-4.67-0.605-7.002c-0.462-4.664-0.984-9.324-1.539-13.979l-0.001-0.005
		c-0.004-0.031,0-0.063,0.008-0.091c0.121-0.391,0.244-0.759,0.475-1.136c0.062-0.093,0.129-0.19,0.25-0.283
		c0.096-0.109,0.416-0.152,0.562-0.013c0.256,0.226,0.289,0.43,0.367,0.633c0.218,0.801,0.269,1.56,0.368,2.336
		c0.169,1.543,0.304,3.085,0.443,4.627l0.423,4.621l0.248,2.302c0.1,0.741,0.181,1.579,0.383,2.197
		c0.004,0.006,0.014,0.031,0.008,0.018l-0.029-0.028c-0.032-0.047-0.169-0.055-0.147-0.049l0.019,0.001
		c0.024-0.003-0.181,0.027-0.091,0.013l0.006-0.002l0.022-0.01l0.046-0.02c0.066-0.034,0.136-0.078,0.206-0.128
		c0.14-0.1,0.277-0.224,0.412-0.35c0.268-0.256,0.523-0.538,0.772-0.826c0.496-0.579,0.964-1.19,1.422-1.808
		c0.915-1.238,1.785-2.514,2.639-3.8c1.704-2.576,3.343-5.201,4.934-7.848c0.043-0.072,0.11-0.122,0.184-0.145l2.322-0.725
		c0.175-0.055,0.362,0.043,0.417,0.219c0.033,0.104,0.01,0.215-0.05,0.297l-9.06,12.36l-2.234,3.109
		c-0.367,0.52-0.737,1.042-1.084,1.567c-0.079,0.122-0.187,0.287-0.204,0.344c-0.028,0.098-0.041,0.255-0.044,0.402
		c-0.006,0.302,0.011,0.616,0.034,0.929c0.229,2.516,0.701,5.037,1.241,7.52c0.289,1.23,0.566,2.501,1.037,3.631
		c0.188,0.333,0.081,0.335,0.379,0.189c0.224-0.15,0.436-0.382,0.631-0.619c0.392-0.479,0.736-1.014,1.07-1.55
		c1.312-2.172,2.432-4.472,3.529-6.773c2.175-4.617,4.186-9.315,6.119-14.041c0.03-0.076,0.116-0.113,0.192-0.083
		c0.032,0.012,0.058,0.036,0.074,0.063l1.719,2.99c0.025,0.043,0.023,0.094,0.002,0.135c-2.731,5.082-5.335,10.238-7.751,15.479
		c-1.203,2.623-2.357,5.27-3.389,7.964c-0.512,1.348-0.998,2.707-1.41,4.089C59.71,90.26,59.341,91.665,59.259,93.104z"/>
</g>
<g>
	<path style="fill:#543619;" d="M55.017,66.59c0.204-0.068,0.464-0.255,0.767-0.539c-0.564-2.605-1.211-13.833-1.682-15.572
		c-0.326-1.198-0.74-0.557-0.991,0.039C53.648,52.622,54.409,66.794,55.017,66.59z"/>
	<path style="fill:#543619;" d="M61.509,59.842c-1.235,1.844-2.495,3.627-3.541,4.903c-1.376,1.924-2.379,3.359-2.525,3.657
		c-0.54,1.103,1.761,13.038,2.612,13.141c0.188,0.023,0.426-0.123,0.697-0.384c-0.99-2.052-2.794-11.767-2.31-12.757
		c0.536-1.091,12.55-17.429,12.55-17.429l-1.295,0.401C66.825,52.564,64.144,56.217,61.509,59.842z"/>
	<path style="fill:#543619;" d="M51.504,49.252c0,0-4.499,9.169-4.697,11.051c-0.146,1.395,6.479,16.633,7.089,16.702
		c0.143,0.016,0.212-0.438,0.226-1.22c-1.899-3.646-6.436-14.325-6.314-15.482c0.198-1.882,4.697-11.051,4.697-11.051l-1.288-0.647
		c0,0-0.061,0.153-0.168,0.418L51.504,49.252z"/>
	<path style="fill:#543619;" d="M48.369,70.396c0.108-0.083,0.165-0.25,0.184-0.48C45.114,66.689,32.669,48.65,32.669,48.65
		l-0.952,0.07C32.658,50.081,47.296,71.224,48.369,70.396z"/>
	<path style="fill:#543619;" d="M59.222,93.102c0.309-7.771,13.321-31.821,13.321-31.821l-1.728-2.985c0,0-0.148,0.37-0.412,1.017
		l1.139,1.969c0,0-14.012,24.051-14.321,31.821c-1.684,42.291,2.301,65.362,1.683,73.577c-0.131,1.747-0.609,2.682-3.765,2.771
		c3.37,0.103,7.62-0.836,7.765-2.771C63.522,158.465,57.538,135.394,59.222,93.102z"/>
	<path style="fill:#543619;" d="M42.463,50.345c0.253,0.772,0.531,1.844,0.823,2.958c0.668,1.442,1.473,3.208,2.283,5.059
		c0.081-0.08,0.171-0.191,0.268-0.326c-0.849-1.433-1.697-5.626-2.374-7.69c-0.619-1.887-1.174-1.585-1.5-1.107
		C42.122,49.467,42.289,49.817,42.463,50.345z"/>
</g>
<path style="fill:#6AA13A;" d="M98.016,41.951c0.077,0.135-1.618-2.444-2.798-3.598c0.444-0.4,2.199-1.199,2.199-1.199
	s-2.732-1.914-2.732-3.465c0-1.767,1.4-2.064,1.4-2.064s-3.51-0.856-4.397-1.334c-1.051-0.564-0.467-2.065-0.467-2.065
	s-3.029,0.648-3.73,0.866c-1.217,0.381-3.798,0-1.932-1.731c0.033-0.292-2.866,0.364-2.866,0.067c0-1.788,0.077-1.15-0.932-2.466
	c-0.902-1.175,0.665-1.599,0.665-1.599s-3.661-0.533-4.597-0.533c-1.013,0-4.531-2.332-1.465-2.799
	c-1.466-1.465-2.132,0.478-3.066-0.842c-0.426-0.604-5.928-3.621-3.264-4.622c-0.936-1.005-1.739,0.608-2.664-0.133
	c-0.59-0.469-1.733,0.533-1.533-1.398c-0.814-0.576-2.331,0.798-2.331,0.798s-0.333,1.335-1.066-1.064
	c-0.889,0.27-1.627,1.844-2.064,1.998c-1.067,0.374-2.467,0.934-2.999-1.066c-0.676,0.529-0.301,3.207-0.829,3.885
	c-0.832-1.468-3.301-5.618-3.301-5.618s-2.041,0.896-3.132,0.596c-0.685-0.189-0.666-1.46-0.666-1.46s-1.699,1.064-1.822,1.064
	c-0.041,0-0.736-1.067-0.778-1.064c-0.333,0.532-1.185,1.131-1.265,1.131c-1.051,0-2.505-1.017-3.465-0.732
	c-0.472-0.274,1.117,0.665,0.533,0.665c-1.233,0-4.263-0.221-4.797,0.801c-0.318-0.191,1.288,0.621,0.889,0.621
	c-1.176,0-4.553,0.576-4.553,0.576s1.064,1.025,1.066,1.066c-0.223,0.078-2.016-0.408-2.199-0.266
	c1.066,0.867,0.854,1.399,0.8,1.399c-1.294,0-1.599-0.599-2.798-0.267c-0.255-0.239,0.955,1.045,0.577,1.045
	c-0.784,0-2.909,1.753-2.909,1.753s1.616,0.274,1.798,0.513c-0.055,0.014-0.105,0.036-0.159,0.05
	c-0.265-0.117-4.237,0.171-4.237,0.171s1.465,0.199,1.666,0.866c0.025,0.088-2.277,2.91-2.266,2.998
	c1.933-0.532,1.533-0.148,1.533,0.799c0,0.314-3.321,1.299-3.265,1.6c1.798-0.068,1.913,0.563,1.501,1.288
	c-0.248-0.056-5.832,0.245-5.832,0.245s2.786,0.274,2.145,1.199c-0.979,0.188-6.061,1.868-6.81,2.464
	c2.864-0.133,2.838,0.111,2.442,0.997c-0.876,0.055-3.841,1.402-3.841,1.402s1.177,0.802,1.177,1.421
	c0,0.297-2.593-1.289-2.509-1.022c-0.617-0.52,1.248,1.032,0.377,1.022c-1.776-0.023-4.708,4.242-4.708,4.242
	s2.399-1.033,2.399-0.267c0,1.116,0.2,4.265,0.2,4.265s1.264-1.133,2.11-1.133c0.515,0,0.181,2.395,0.623,2.199
	c0.732-1.866,0.951-1.364,1.115-0.83c0.2,0.662,0.493,1.279,0.866,1.842c-0.446,0.531-2.382,3.037-2.581,3.717
	c-0.125,0.429,1.398-1.003,1.398-0.533c0,0.879,0.531,4.75,0.933,5.463c0.339,0.6,0.495-1.927,1.044-1.514
	c0.488,0.367,0.15,2.809,0.755,2.98c-0.043,0.3,0.932,3.063,0.932,3.063s0.745-1.065,1.062-0.616
	c0.204,0.289,1.003,3.014,1.003,3.014s0.395-1.557,0.804-1.298c0.487,0.308,1.795,2.232,1.795,2.232s0.985-1.245,1.622-1.245
	c0.098,0,1.309,2.71,1.643,2.376c0.733-2.264,2.598,0.467,2.598,0.467s0.421-1.466,0.781-1.544c0.248,2.913,3.395,3.66,4.75,4.607
	c0.9,0.63,2.864,3.333,2.864,3.333s-0.333-2.267,1.133-2.533c3.717-0.676,6.795,2.266,6.795,2.266s-1.954-5.897-1.066-8.128
	c0.495-1.243,3.33-1.666,3.33-1.666s-0.998-1.309-0.998-3.532c0-2.575,0.133-3.331,2.999-1.133c0.151-0.664,0.045-2.33,0.045-3.041
	c0-1.106,1.845,3.824,1.487,2.843c0.481-0.365,0.037-2.947,0.6-2.731c0.865,0.332,1.732,4.861,1.732,4.861s-0.153-3.597,2.398-3.597
	c0.689,0,2.877,4.336,3.464,4.065c-0.533-2.998,2.665-0.468,2.797-0.934c1.323,2.659,3.4,3.465,3.4,3.465s1.513-1.074,2.397-0.866
	c0.97,0.229,0.534,1.865,0.534,1.865s2.464-2,3.197-0.931c0.745,1.083-2.347,2.658-2.333,2.798c-1.129,0.961,5.13-1.387,5.13,0.066
	c0,1.309,2.532,2.932,2.532,2.932s0.503-3.732,2.465-3.732c2.039,0,2.399,1.533,2.399,1.533s-0.2-2.886-0.2-4.131
	c0-1.163,2.825,1.011,2.065,0.134c0.089-0.37-0.003-1.391,0.2-1.733c1.067-1.798,2.072,1.163,2.066,1.067
	c0.281,0.411,0.854-1.478,1.267-1.2c0.622,0.421,0.798,1.534,0.798,1.534s1.2-2.533,2.199-3.265
	c0.512-0.375,2.731,1.266,2.731,1.266s-0.399-3.465,0.133-3.798c0.933-0.733,1.998,1.066,1.998,1.066s0.178-3.797,1.534-4.796
	c1.244-0.918,2.21,1.251,2.21,1.251s0.544-1.904,0.544-2.94C98.44,46.583,93.619,41.353,98.016,41.951z M80.484,51.384
	c0.026,0.059,0.059,0.118,0.084,0.178c-0.061,0.035-0.126,0.062-0.185,0.101C80.422,51.571,80.45,51.475,80.484,51.384z
	 M78.572,38.531c-0.024-0.033-0.046-0.068-0.074-0.1c0.028-0.001,0.056-0.001,0.082-0.003
	C78.576,38.462,78.576,38.496,78.572,38.531z"/>
<path style="fill:#629535;" d="M95.837,46.193c0.077,0.134-1.355-1.381-2.534-2.535c0.444-0.4-1.613-1.613-1.613-1.613
	s-1.613,2.473-1.613,0.922c0-1.767,0,6.681,0,6.681s-1.185-2.288-2.073-2.764c-1.051-0.565-1.613,3.455-1.613,3.455
	s-0.22-2.521-0.922-2.304c-1.216,0.381-1.842,0.921-4.146,0.461c-1.382,3.225-2.073,2.602-2.073,2.303
	c0-1.786-5.441-0.986-6.451-2.303c-0.902-1.176-6.19,1.931-5.99,0c-3.225-3.916,2.073,3.917-5.76,2.764
	c-1.066,0.374-8.682-0.535-9.215-2.534c-0.675,0.53,0.051,1.824-7.142-2.073c-5.529-2.995-1.843,9.676-4.146,3.917
	c-0.391-0.976-0.924,4.795-0.922,4.838c-0.223,0.078-0.644-1.946-1.843-1.613c1.843,5.298,1.613,11.058-0.23,7.603
	c-0.369-0.692-1.563-1.621-1.382-1.382c-0.055,0.012-2.273-0.897-2.073-0.23c0.026,0.087-3.281-3.988-3.226-3.687
	c1.798-0.068-2.353-1.417-2.764-0.691c-0.248-0.056-2.304-3.457-2.304-3.457s-0.05,1.842-0.692,2.766
	c-0.978,0.187-3.917,0.38-3.917,0.691c0,0.785-3.661,3-3.661,3s0.745-1.065,1.062-0.616c0.204,0.289,1.003,3.014,1.003,3.014
	s0.395-1.557,0.804-1.298c0.487,0.308,1.795,2.232,1.795,2.232s0.985-1.245,1.622-1.245c0.098,0,1.309,2.71,1.643,2.376
	c0.733-2.264,2.598,0.467,2.598,0.467s0.421-1.466,0.781-1.544c0.248,2.913,3.395,3.66,4.75,4.607c0.9,0.63,2.864,3.333,2.864,3.333
	s-0.333-2.267,1.133-2.533c3.717-0.676,6.795,2.266,6.795,2.266s-1.954-5.897-1.066-8.128c0.495-1.243,3.33-1.666,3.33-1.666
	s-0.998-1.309-0.998-3.532c0-2.575,0.133-3.331,2.999-1.133c0.151-0.664,0.045-2.33,0.045-3.041c0-1.106,1.845,3.824,1.487,2.843
	c0.481-0.365,0.037-2.947,0.6-2.731c0.865,0.332,1.732,4.861,1.732,4.861s-0.153-3.597,2.398-3.597c0.689,0,2.877,4.336,3.464,4.065
	c-0.533-2.998,2.665-0.468,2.797-0.934c1.323,2.659,3.4,3.465,3.4,3.465s1.513-1.074,2.397-0.866
	c0.97,0.229,0.534,1.865,0.534,1.865s2.464-2,3.197-0.931c0.745,1.083-2.347,2.658-2.333,2.798c-1.129,0.961,5.13-1.387,5.13,0.066
	c0,1.309,2.532,2.932,2.532,2.932s0.503-3.732,2.465-3.732c2.039,0,2.399,1.533,2.399,1.533s-0.2-2.886-0.2-4.131
	c0-1.163,2.825,1.011,2.065,0.134c0.089-0.37-0.003-1.391,0.2-1.733c1.067-1.798,2.072,1.163,2.066,1.067
	c0.281,0.411,0.854-1.478,1.267-1.2c0.622,0.421,0.798,1.534,0.798,1.534s1.2-2.533,2.199-3.265
	c0.512-0.375,2.731,1.266,2.731,1.266s-0.399-3.465,0.133-3.798c0.933-0.733,1.998,1.066,1.998,1.066s0.178-3.797,1.534-4.796
	c1.244-0.918,2.21,1.251,2.21,1.251s0.544-1.904,0.544-2.94C98.44,46.583,91.441,45.594,95.837,46.193z M80.484,51.384
	c0.026,0.059,0.059,0.118,0.084,0.178c-0.061,0.035-0.126,0.062-0.185,0.101C80.422,51.571,80.45,51.475,80.484,51.384z
	 M78.572,38.531c-0.024-0.033-0.046-0.068-0.074-0.1c0.028-0.001,0.056-0.001,0.082-0.003
	C78.576,38.462,78.576,38.496,78.572,38.531z"/>
<g>
	<g>
		<path style="fill:#1A171B;" d="M98.039,41.981c-0.317-0.31-0.464-0.624-0.709-0.932l-0.681-0.917
			c-0.465-0.602-0.941-1.2-1.479-1.729c-0.028-0.025-0.03-0.067-0.005-0.095l0.007-0.007c0.338-0.279,0.711-0.466,1.081-0.667
			c0.372-0.195,0.748-0.38,1.128-0.559l-0.014,0.15c-0.497-0.354-0.962-0.742-1.4-1.165c-0.433-0.426-0.844-0.887-1.137-1.439
			c-0.142-0.276-0.254-0.582-0.263-0.912c0.001-0.307,0.035-0.628,0.139-0.932c0.203-0.61,0.709-1.11,1.351-1.287l-0.004,0.268
			c-1.123-0.272-2.241-0.557-3.349-0.903c-0.277-0.089-0.553-0.18-0.828-0.293c-0.269-0.102-0.574-0.279-0.761-0.57
			c-0.351-0.593-0.252-1.256-0.062-1.832l0.207,0.243c-1.313,0.294-2.624,0.565-3.924,0.929c-0.702,0.134-1.416,0.151-2.114-0.167
			c-0.169-0.089-0.348-0.219-0.447-0.432c-0.106-0.212-0.079-0.459-0.008-0.644c0.147-0.376,0.403-0.633,0.654-0.877l-0.064,0.126
			c-0.012,0.104,0.065,0.153,0.075,0.156c0.01,0.005,0.011,0.003-0.004,0.001c-0.018-0.003-0.054-0.007-0.089-0.007
			c-0.07-0.002-0.148,0.002-0.227,0.007l-0.479,0.047l-0.977,0.122l-0.502,0.046c-0.087,0.004-0.172,0.009-0.268,0.004
			c-0.049-0.003-0.098-0.006-0.162-0.021c-0.036-0.011-0.068-0.015-0.13-0.058c-0.034-0.03-0.059-0.04-0.088-0.106
			c-0.028-0.068-0.025-0.125-0.024-0.117c-0.002-0.326,0.005-0.662-0.008-0.972c-0.009-0.158-0.026-0.281-0.086-0.376
			c-0.061-0.103-0.178-0.226-0.285-0.349c-0.222-0.256-0.431-0.493-0.633-0.794c-0.21-0.294-0.312-0.81-0.04-1.167
			c0.253-0.337,0.584-0.495,0.938-0.61l0.027,0.439l-2.41-0.318c-0.825-0.105-1.563-0.171-2.447-0.237
			c-0.86-0.246-1.568-0.684-2.192-1.305c-0.149-0.163-0.293-0.343-0.387-0.582c-0.107-0.226-0.09-0.596,0.11-0.817
			c0.392-0.412,0.846-0.456,1.259-0.543l-0.14,0.426c-0.28-0.279-0.603-0.493-0.939-0.5c-0.348-0.037-0.684,0.22-1.261,0.223
			c-0.295-0.014-0.56-0.191-0.722-0.373c-0.186-0.222-0.228-0.294-0.415-0.43c-0.325-0.251-0.68-0.495-1.025-0.745
			c-0.694-0.503-1.392-1.011-2.017-1.644c-0.299-0.327-0.626-0.661-0.754-1.203c-0.067-0.271,0.029-0.63,0.237-0.831
			c0.199-0.206,0.427-0.313,0.646-0.4l-0.106,0.451c-0.27-0.295-0.522-0.31-0.932-0.132c-0.198,0.08-0.412,0.191-0.679,0.257
			c-0.262,0.073-0.617,0.045-0.87-0.117c-0.141-0.088-0.205-0.147-0.244-0.153c-0.061-0.023-0.146-0.032-0.243-0.034
			c-0.2-0.011-0.437,0.047-0.767-0.048c-0.167-0.052-0.337-0.19-0.417-0.342c-0.085-0.151-0.116-0.295-0.136-0.43
			c-0.035-0.268-0.02-0.513,0.002-0.752l0.123,0.27c-0.204-0.156-0.598-0.079-0.951,0.097c-0.355,0.171-0.708,0.422-1.009,0.685
			l0.09-0.15c-0.036,0.126-0.071,0.222-0.15,0.345c-0.041,0.059-0.093,0.126-0.19,0.187c-0.095,0.063-0.258,0.086-0.371,0.048
			c-0.396-0.184-0.408-0.384-0.53-0.559c-0.181-0.359-0.297-0.713-0.41-1.069l0.383,0.204c-0.387,0.132-0.758,0.57-1.086,0.994
			c-0.17,0.218-0.331,0.444-0.536,0.677c-0.102,0.107-0.232,0.26-0.457,0.341l-0.402,0.141c-0.535,0.169-1.18,0.379-1.865,0.108
			c-0.688-0.301-0.968-0.982-1.122-1.539l0.515,0.172c-0.104,0.073-0.209,0.414-0.249,0.711c-0.049,0.312-0.071,0.642-0.094,0.975
			c-0.022,0.334-0.041,0.673-0.08,1.021c-0.058,0.352-0.059,0.701-0.341,1.127c-0.098,0.147-0.296,0.188-0.443,0.091
			c-0.042-0.028-0.075-0.063-0.099-0.104l-0.016-0.027l-3.285-5.619l0.405,0.13c-0.796,0.323-1.591,0.588-2.481,0.667
			c-0.222,0.016-0.452,0.016-0.693-0.027c-0.072-0.014-0.091-0.015-0.211-0.052c-0.057-0.026-0.075-0.021-0.164-0.074
			c-0.17-0.098-0.253-0.198-0.336-0.311c-0.296-0.461-0.332-0.902-0.349-1.366l0.471,0.265c-0.49,0.303-0.975,0.601-1.482,0.891
			l-0.198,0.107l-0.113,0.056c-0.018,0.007-0.033,0.02-0.116,0.04l-0.05,0.008l-0.024,0.002l-0.122-0.025l-0.001,0l-0.001-0.001
			L47.5,12.443l-0.06-0.04c-0.158-0.142-0.101-0.112-0.147-0.161l-0.065-0.091l-0.124-0.179l-0.243-0.353l-0.121-0.172l-0.059-0.08
			l-0.025-0.033l-0.006-0.008c-0.051-0.041,0.114,0.114,0.215,0.077l0.236-0.14c-0.292,0.433-0.642,0.722-1.014,1.006
			c-0.098,0.071-0.182,0.133-0.315,0.206c-0.035,0.015-0.011,0.012-0.094,0.04c-0.038,0.01-0.083,0.017-0.115,0.015l-0.021-0.002
			l-0.083-0.005c-0.054-0.002-0.109-0.005-0.178-0.017c-0.267-0.035-0.477-0.099-0.701-0.167l-1.249-0.435
			c-0.4-0.127-0.814-0.214-1.133-0.127l-0.05,0.014c-0.063,0.017-0.128,0-0.174-0.04c-0.008-0.007-0.1-0.053-0.037-0.026l0.03,0.008
			c0.005-0.004,0.003,0.013,0.111,0.002c0.301-0.001,0.217-0.616,0.149-0.48l-0.026-0.022c0-0.001-0.001-0.001,0.003,0.002
			l0.018,0.013l0.041,0.028l0.167,0.115c0.111,0.079,0.221,0.161,0.333,0.256c0.056,0.048,0.112,0.098,0.173,0.169
			c0.032,0.044,0.063,0.071,0.103,0.17c0.014,0.048,0.043,0.129-0.002,0.248c-0.046,0.11-0.14,0.168-0.188,0.185
			c-0.208,0.06-0.233,0.024-0.304,0.033l-0.2-0.003c-0.527-0.011-1.046-0.026-1.563-0.018c-0.516,0.009-1.031,0.035-1.523,0.119
			c-0.476,0.08-1.004,0.246-1.169,0.547l-0.019,0.035c-0.063,0.114-0.206,0.156-0.32,0.093l-0.034-0.023
			c-0.033-0.026,0.006,0.019-0.104-0.08c-0.089-0.099-0.082-0.269-0.012-0.339c0.084-0.154,0.376-0.083,0.299-0.09L37.93,12.7
			l0.031,0.014l0.092,0.044l0.17,0.089l0.332,0.188c0.111,0.068,0.218,0.132,0.338,0.228c0.033,0.03,0.061,0.046,0.113,0.115
			c0.004,0.023,0.113,0.098,0.034,0.315c-0.052,0.095-0.141,0.137-0.159,0.139c-0.045,0.016-0.075,0.02-0.087,0.02l-0.208,0.006
			c-0.468,0.017-0.961,0.074-1.444,0.131c-0.97,0.12-1.943,0.267-2.909,0.426l0.131-0.428l0.541,0.529l0.269,0.268l0.134,0.137
			l0.068,0.072l0.038,0.042l0.02,0.023c0.028,0.032,0.064,0.107,0.068,0.163l0.002,0.029c0.006,0.105-0.066,0.196-0.167,0.216
			c-0.236,0.046-0.271,0.005-0.391,0.002l-0.285-0.046l-0.55-0.104l-0.54-0.097l-0.26-0.033c-0.055-0.021-0.228,0.023-0.107-0.031
			l0.004-0.377c0.304,0.257,0.605,0.536,0.81,0.933c0.05,0.1,0.091,0.21,0.114,0.333c0.01,0.063,0.017,0.128,0.011,0.201
			c-0.003,0.037-0.007,0.074-0.02,0.118c-0.029,0.05,0.012,0.074-0.141,0.201c-0.039,0.023-0.086,0.035-0.125,0.036l-0.017,0
			l-0.018,0l-0.036-0.001l-0.071-0.002l-0.147-0.007c-0.104-0.008-0.208-0.018-0.308-0.035c-0.404-0.055-0.783-0.205-1.121-0.279
			c-0.339-0.079-0.675-0.052-1.021,0.042l-0.014,0.003c-0.076,0.021-0.153-0.004-0.203-0.057l-0.007-0.007
			c0.005,0.003-0.012-0.009,0.011,0.007c0.018,0.005,0.014,0.024,0.117,0.036c0.196,0.031,0.28-0.313,0.221-0.293
			c-0.029-0.072-0.029-0.054-0.027-0.056l0.003,0.003l0.005,0.006l0.042,0.051l0.096,0.117l0.191,0.241
			c0.125,0.173,0.25,0.311,0.356,0.576c0.014,0.029,0.023,0.109,0.022,0.162c-0.011,0.115-0.116,0.235-0.198,0.241
			c-0.123,0.03-0.092,0.016-0.132,0.021c-0.029,0.001-0.042,0.005-0.056,0.008c-0.063,0.011-0.157,0.038-0.239,0.072
			c-0.17,0.065-0.342,0.155-0.51,0.25c-0.673,0.389-1.318,0.87-1.934,1.362l-0.1-0.375c0.315,0.057,0.624,0.119,0.936,0.194
			c0.155,0.038,0.311,0.078,0.468,0.129c0.165,0.069,0.297,0.063,0.523,0.274c0.075,0.07,0.08,0.188,0.01,0.263
			c-0.023,0.024-0.05,0.041-0.08,0.05l-0.043,0.014l-0.157,0.049l-0.016,0.001l-0.122-0.012c-0.042-0.004-0.292-0.016-0.442-0.011
			l-0.525,0.012l-1.056,0.046l-2.115,0.128l0.012-0.387c0.495,0.087,0.973,0.203,1.424,0.501c0.108,0.082,0.219,0.171,0.3,0.303
			c0.023,0.029,0.04,0.065,0.055,0.102l0.023,0.055l0.011,0.028l0.005,0.014l0.001,0.001c0.015,0.137,0.004,0.039,0.007,0.07
			l-0.001,0.003l-0.001,0.005c-0.001,0.014-0.026,0.097-0.047,0.124l-0.028,0.043l-0.054,0.078l-0.437,0.576l-0.885,1.125
			l-0.44,0.561l-0.216,0.281l-0.104,0.141l-0.048,0.068l-0.02,0.03c-0.013,0.005,0.002,0.039,0.004-0.073l-0.223-0.149
			c0.251-0.068,0.503-0.133,0.764-0.186c0.131-0.025,0.264-0.048,0.408-0.056c0.136,0.003,0.32-0.029,0.502,0.151
			c0.148,0.201,0.104,0.363,0.108,0.495l-0.027,0.385c-0.006,0.082,0.002,0.081-0.012,0.228c0.02-0.007-0.084,0.167-0.104,0.16
			c-0.036,0.033-0.066,0.052-0.098,0.074c-0.125,0.08-0.243,0.135-0.364,0.191c-0.481,0.217-0.964,0.395-1.444,0.584l-0.712,0.289
			L24.159,25.8c-0.054,0.028-0.106,0.057-0.153,0.087c-0.048,0.006-0.074,0.121-0.054-0.021l-0.162-0.129
			c0.453-0.006,0.917-0.015,1.384,0.178c0.231,0.085,0.471,0.337,0.472,0.632c0.001,0.277-0.104,0.506-0.218,0.71
			c-0.026,0.048-0.077,0.075-0.128,0.074l-0.036-0.001c-0.415-0.01-0.948,0.016-1.419,0.031l-1.457,0.061l-2.915,0.139l0.006-0.265
			c0.481,0.057,0.952,0.14,1.418,0.287c0.232,0.077,0.464,0.165,0.678,0.327c0.103,0.082,0.21,0.196,0.246,0.358
			c0.037,0.165-0.032,0.32-0.108,0.43c-0.018,0.026-0.044,0.043-0.073,0.05l-0.006,0.002c-1.155,0.275-2.312,0.671-3.453,1.055
			c-0.571,0.196-1.138,0.406-1.699,0.625c-0.55,0.226-1.142,0.443-1.607,0.755l-0.081-0.214c0.577-0.025,1.152-0.053,1.738-0.024
			c0.292,0.035,0.595,0.005,0.904,0.246c0.162,0.157,0.13,0.394,0.086,0.53c-0.044,0.153-0.105,0.285-0.164,0.419
			c-0.019,0.043-0.059,0.071-0.103,0.075l-0.007,0c-0.309,0.031-0.64,0.141-0.958,0.246c-0.32,0.109-0.638,0.229-0.955,0.354
			c-0.632,0.251-1.259,0.521-1.879,0.8l0.021-0.24c0.33,0.235,0.636,0.488,0.903,0.803c0.129,0.16,0.255,0.334,0.316,0.562
			c0.01,0.077,0.03,0.074,0.012,0.228c-0.005,0.012,0.004-0.002-0.014,0.031c-0.019,0.032-0.057,0.065-0.093,0.078
			c-0.049,0.015-0.06,0.01-0.092,0.013c-0.037-0.003-0.074-0.008-0.1-0.016c-0.113-0.029-0.204-0.067-0.298-0.106
			c-0.368-0.16-0.714-0.341-1.063-0.518l-0.521-0.261l-0.259-0.12l-0.124-0.048c-0.021-0.007-0.038-0.011-0.047-0.013
			c-0.01-0.002,0.012,0.003,0.021-0.003c0.087-0.024,0.114-0.112,0.094-0.16l-0.239,0.158l-0.098-0.082l-0.02-0.016l-0.001-0.001
			c0.054-0.012-0.13,0.02,0.169,0.006c0.106-0.388,0-0.149,0.035-0.22l-0.001-0.001l-0.002-0.003l0.01,0.01l0.046,0.044l0.185,0.186
			c0.122,0.127,0.24,0.257,0.348,0.405c0.054,0.075,0.106,0.152,0.148,0.251c0.036,0.074,0.101,0.286-0.081,0.419
			c-0.153,0.084-0.247,0.054-0.326,0.067c-0.092,0.001-0.159,0.019-0.228,0.033c-0.607,0.165-1.154,0.606-1.649,1.051
			c-0.987,0.919-1.847,1.993-2.63,3.097l-0.205-0.25c0.544-0.224,1.086-0.426,1.681-0.535c0.15-0.024,0.304-0.042,0.476-0.027
			c0.145-0.003,0.443,0.106,0.476,0.377l0.027,0.883c0.046,1.146,0.116,2.295,0.189,3.442l-0.308-0.126
			c0.319-0.277,0.647-0.525,1.008-0.745c0.374-0.21,0.719-0.424,1.26-0.438c0.013,0.001,0.055,0.003,0.135,0.043
			c0.054,0.033,0.088,0.065,0.112,0.098c0.056,0.068,0.078,0.128,0.102,0.188c0.043,0.118,0.063,0.226,0.081,0.333
			c0.034,0.214,0.048,0.42,0.062,0.625l0.046,0.6c0.011,0.096,0.024,0.192,0.045,0.27c0.01,0.038,0.025,0.072,0.029,0.077
			c0.022-0.006-0.102-0.048-0.105-0.025l-0.103,0.108c0.132-0.333,0.266-0.665,0.454-0.991c0.048-0.082,0.1-0.164,0.168-0.246
			c0.076-0.071,0.142-0.193,0.374-0.209c0.251,0.03,0.308,0.197,0.361,0.278c0.048,0.097,0.08,0.188,0.109,0.276
			c0.207,0.68,0.485,1.283,0.87,1.863c0.051,0.077,0.041,0.179-0.014,0.247c-0.526,0.649-1.037,1.331-1.525,2.016
			c-0.243,0.344-0.483,0.691-0.699,1.045c-0.106,0.175-0.213,0.358-0.281,0.526l-0.02,0.057c0.008-0.034-0.003,0.016-0.002,0.014
			c0.006-0.041,0.013-0.091-0.061-0.168c-0.168-0.09-0.138-0.027-0.143-0.045l0.044-0.02c0.075-0.039,0.163-0.098,0.249-0.155
			c0.173-0.116,0.347-0.24,0.539-0.357c0.101-0.058,0.19-0.116,0.339-0.163c0.04-0.01,0.079-0.024,0.154-0.02
			c0.059-0.007,0.201,0.05,0.249,0.149c0.078,0.206,0.032,0.204,0.046,0.266c0.019,0.4,0.068,0.828,0.118,1.243
			c0.105,0.836,0.232,1.672,0.392,2.497c0.082,0.41,0.169,0.825,0.289,1.209c0.03,0.096,0.064,0.188,0.1,0.263l0.013,0.026
			c-0.002-0.003,0.014,0.025-0.003-0.003l0.011,0.017c0.024,0.04,0.019,0.013-0.017-0.009c-0.028-0.039-0.162-0.032-0.189-0.004
			c-0.034,0.023-0.027,0.025-0.024,0.016c0.06-0.103,0.127-0.337,0.183-0.53c0.06-0.204,0.118-0.412,0.205-0.628
			c0.045-0.109,0.091-0.219,0.187-0.343c0.048-0.059,0.114-0.136,0.25-0.179c0.133-0.044,0.292,0.007,0.362,0.062
			c0.114,0.094,0.091,0.076,0.156,0.149c0.046,0.062,0.103,0.142,0.124,0.193c0.06,0.115,0.099,0.227,0.133,0.339
			c0.068,0.223,0.106,0.442,0.138,0.661c0.061,0.437,0.085,0.868,0.09,1.303c0.01,0.342,0.151,0.766,0.273,1.155
			c0.263,0.792,0.574,1.58,0.898,2.355l-0.481-0.051c0.125-0.173,0.25-0.324,0.402-0.475c0.161-0.14,0.299-0.316,0.661-0.372
			c0.212-0.026,0.423,0.151,0.484,0.272c0.076,0.139,0.098,0.209,0.139,0.309l0.197,0.55c0.246,0.729,0.47,1.458,0.69,2.191
			l-0.562,0.01c0.107-0.389,0.215-0.751,0.431-1.136c0.059-0.096,0.122-0.197,0.25-0.302c0.066-0.05,0.168-0.11,0.307-0.113
			c0.12-0.017,0.297,0.094,0.301,0.104c0.206,0.156,0.322,0.295,0.458,0.445c0.511,0.594,0.948,1.207,1.387,1.836l-0.495-0.018
			c0.286-0.349,0.579-0.665,0.94-0.954c0.184-0.141,0.377-0.281,0.651-0.368c0.065-0.024,0.147-0.035,0.229-0.042l0.03-0.003
			l0.007,0l0.004-0.001c0.054,0.011-0.118-0.024,0.121,0.024l0.001,0l0.009,0.005c0.038,0.004,0.169,0.131,0.162,0.139l0.056,0.087
			l0.162,0.29c0.202,0.376,0.395,0.747,0.604,1.103c0.104,0.178,0.211,0.353,0.324,0.511c0.056,0.077,0.114,0.154,0.167,0.208
			c0.023,0.024,0.053,0.047,0.048,0.042c0.003,0.003-0.024-0.015-0.065-0.014c-0.067-0.005-0.134,0.022-0.174,0.065l-0.079,0.129
			c0.108-0.309,0.235-0.649,0.573-0.92c0.358-0.298,0.899-0.222,1.194-0.05c0.636,0.347,1.027,0.83,1.417,1.348l-0.601,0.097
			c0.088-0.299,0.184-0.581,0.305-0.87c0.061-0.145,0.124-0.288,0.21-0.436c0.112-0.14,0.124-0.32,0.517-0.476
			c0.152-0.06,0.325,0.015,0.385,0.167c0.011,0.028,0.018,0.057,0.02,0.086l0.004,0.05c0.067,0.872,0.481,1.665,1.137,2.257
			c0.652,0.603,1.478,1.026,2.32,1.452c0.422,0.22,0.859,0.424,1.28,0.746c0.415,0.342,0.719,0.696,1.041,1.061
			c0.628,0.73,1.208,1.481,1.776,2.252l-0.618,0.252c-0.057-0.486-0.052-0.941,0.046-1.424c0.096-0.465,0.33-1.003,0.834-1.302
			c0.229-0.149,0.557-0.207,0.746-0.229c0.208-0.032,0.467-0.06,0.689-0.065c0.459-0.02,0.92,0.008,1.371,0.078
			c0.905,0.141,1.774,0.442,2.579,0.85c0.809,0.413,1.551,0.902,2.244,1.524l-0.572,0.361c-0.61-1.96-1.125-3.936-1.294-6.015
			c-0.032-0.521-0.039-1.05,0.038-1.591c0.042-0.274,0.102-0.537,0.224-0.828c0.133-0.298,0.361-0.529,0.584-0.707
			c0.934-0.677,1.952-0.915,2.992-1.113l-0.229,0.565c-0.489-0.713-0.748-1.457-0.92-2.247c-0.171-0.789-0.163-1.594-0.142-2.358
			c0.02-0.394,0.022-0.784,0.166-1.235c0.07-0.213,0.235-0.523,0.577-0.641c0.329-0.1,0.584-0.021,0.793,0.048
			c0.814,0.325,1.4,0.808,2.026,1.268l-0.568,0.205c0.087-0.47,0.073-1.068,0.065-1.623l-0.022-0.854l-0.009-0.436l0.004-0.136
			l0.002-0.027c0.004-0.032,0.011-0.065,0.021-0.098c0.009-0.032,0.021-0.064,0.035-0.094c0.027-0.055,0.106-0.141,0.185-0.177
			c0.12-0.091,0.393,0.007,0.394,0.03c0.039,0.026,0.1,0.078,0.11,0.094c0.04,0.045,0.077,0.091,0.098,0.125
			c0.35,0.562,0.543,1.069,0.781,1.607l0.33,0.797l0.161,0.4l0.079,0.198l0.019,0.045c0.006,0.015-0.003-0.01-0.02-0.037
			l-0.024-0.033c-0.015-0.01,0.003-0.011-0.088-0.08c-0.028-0.016-0.067-0.046-0.171-0.057c-0.103-0.022-0.295,0.075-0.339,0.183
			c-0.083,0.198-0.032,0.219-0.038,0.252c0.015,0.056,0.008,0.026,0.009,0.032l-0.004-0.011l-0.035-0.095l0.122-0.413
			c-0.041,0.058,0.048-0.102,0.058-0.235c0.024-0.144,0.038-0.304,0.046-0.468l0.038-1.024c0.013-0.181,0.021-0.358,0.075-0.577
			c0.042-0.108,0.038-0.246,0.271-0.434c0.14-0.096,0.333-0.092,0.436-0.052c0.158,0.07,0.086,0.035,0.188,0.099
			c0.447,0.38,0.512,0.685,0.685,1.024c0.535,1.326,0.83,2.659,1.114,4.017l-0.725,0.084c-0.003-0.926,0.122-1.829,0.583-2.687
			c0.23-0.421,0.593-0.812,1.055-1.042c0.229-0.118,0.479-0.188,0.725-0.222c0.124-0.022,0.246-0.024,0.369-0.029l0.023-0.001
			c0.03,0.002-0.051-0.006,0.071,0.005l0.01,0.001l0.04,0.007c0.015,0,0.118,0.033,0.17,0.06c0.11,0.058,0.152,0.093,0.21,0.14
			c0.724,0.7,1.112,1.42,1.618,2.131c0.239,0.355,0.478,0.708,0.726,1.043c0.124,0.167,0.251,0.33,0.38,0.472
			c0.064,0.073,0.129,0.134,0.187,0.183c0.046,0.063,0.126,0.002-0.094,0.052l-0.21,0.402c-0.059-0.368-0.115-0.753,0.01-1.213
			c0.063-0.228,0.254-0.5,0.522-0.613c0.261-0.116,0.506-0.109,0.713-0.086c0.416,0.057,0.76,0.194,1.092,0.326l0.477,0.195
			c0.075,0.029,0.15,0.056,0.205,0.069c0.029,0.008,0.047,0.008,0.037,0.009c0.003-0.009-0.194,0.013-0.251,0.211l0.692-0.064
			c0.353,0.706,0.804,1.361,1.348,1.927c0.272,0.283,0.565,0.543,0.879,0.775c0.307,0.228,0.661,0.444,0.975,0.581l-0.352,0.043
			c0.355-0.242,0.708-0.441,1.094-0.62c0.39-0.167,0.793-0.332,1.302-0.33c0.13,0.007,0.253,0.011,0.406,0.069
			c0.061,0.012,0.263,0.11,0.377,0.217c0.229,0.207,0.334,0.479,0.382,0.715c0.085,0.485,0.033,0.902-0.069,1.344l-0.57-0.369
			c0.527-0.407,1.063-0.762,1.683-1.042c0.313-0.133,0.642-0.256,1.04-0.272c0.197-0.005,0.425,0.025,0.635,0.145
			c0.199,0.1,0.385,0.344,0.446,0.507c0.201,0.534-0.058,0.944-0.255,1.224c-0.218,0.29-0.467,0.517-0.721,0.729
			c-0.255,0.21-0.519,0.4-0.784,0.582l-0.396,0.265l-0.191,0.128l-0.084,0.06l-0.027,0.021c-0.004,0.004,0.009-0.007,0.011-0.012
			c-0.026,0.038,0.089-0.099,0.062-0.223l-0.115,0.285l-0.055,0.051c-0.003-0.009,0.031-0.004,0.033-0.159
			c-0.022-0.185-0.188-0.241-0.18-0.233c-0.04-0.004,0.095,0.001,0.171-0.013c0.183-0.021,0.382-0.059,0.579-0.097l1.2-0.246
			c0.814-0.149,1.613-0.334,2.522-0.278c0.228,0.033,0.488,0.05,0.758,0.294c0.132,0.12,0.204,0.358,0.197,0.479
			c0.006,0.123,0.011,0.162,0.033,0.241c0.084,0.314,0.304,0.635,0.553,0.925c0.507,0.58,1.146,1.092,1.796,1.53l-0.453,0.21
			c0.109-0.682,0.28-1.328,0.536-1.967c0.265-0.624,0.602-1.274,1.24-1.708c0.316-0.21,0.728-0.322,1.103-0.29
			c0.309,0,0.721,0.072,1.046,0.191c0.69,0.25,1.274,0.799,1.495,1.553l-0.529,0.08c-0.073-1.157-0.14-2.312-0.175-3.475
			l-0.009-0.438c0.016-0.165-0.048-0.237,0.065-0.544c0.139-0.284,0.466-0.315,0.623-0.292c0.184,0.018,0.335,0.066,0.482,0.118
			c0.292,0.107,0.558,0.238,0.818,0.369l0.377,0.185l0.075,0.03c-0.021-0.002,0.043,0.001-0.047,0
			c-0.016,0.002-0.032,0.007-0.046,0.014c-0.045,0.013-0.108,0.064-0.128,0.122c-0.028,0.102-0.018,0.091-0.01,0.14
			c0.026,0.052-0.043-0.055-0.075-0.086c-0.05-0.049-0.07-0.118-0.059-0.183l0.006-0.034c0.058-0.326,0.034-0.777,0.078-1.199
			c0.02-0.199,0.059-0.485,0.213-0.69c0.119-0.179,0.279-0.387,0.522-0.516c0.255-0.146,0.619-0.087,0.818,0.067
			c0.215,0.144,0.358,0.324,0.488,0.504c0.128,0.182,0.233,0.371,0.33,0.562l0.136,0.289l0.063,0.146l0.03,0.071l0.014,0.033
			l0.006,0.013l-0.003-0.006l-0.002-0.003l-0.001-0.001c-0.024,0.002,0.042-0.037-0.169-0.104c-0.359,0.097-0.21,0.254-0.246,0.235
			c-0.058-0.029-0.081-0.101-0.052-0.159c0.025-0.05,0.081-0.074,0.133-0.061l0.332,0.082c0.005,0.001-0.03-0.041-0.098-0.041
			c-0.061,0.009-0.048,0.017-0.038,0.004c0.027-0.022,0.072-0.077,0.11-0.132c0.08-0.114,0.157-0.246,0.237-0.378
			c0.081-0.133,0.162-0.27,0.261-0.406c0.121-0.117,0.161-0.322,0.546-0.366c0.047,0.006,0.098,0.017,0.135,0.038
			c0.023,0.013,0.032,0.015,0.064,0.039l0.023,0.018l0.092,0.073c0.072,0.067,0.141,0.138,0.192,0.205
			c0.108,0.138,0.196,0.284,0.268,0.435c0.143,0.304,0.236,0.608,0.296,0.94l-0.404-0.058c0.264-0.538,0.546-1.057,0.855-1.567
			c0.313-0.507,0.642-1.008,1.069-1.457c0.117-0.116,0.203-0.207,0.376-0.327c0.205-0.12,0.424-0.072,0.573-0.04
			c0.319,0.083,0.588,0.221,0.856,0.362c0.53,0.289,1.022,0.617,1.506,0.969l-0.3,0.173c-0.067-0.647-0.115-1.292-0.132-1.943
			c-0.007-0.326-0.007-0.652,0.016-0.982c0.012-0.166,0.029-0.332,0.064-0.502c0.051-0.168,0.049-0.351,0.281-0.541l-0.015,0.01
			c0.194-0.154,0.475-0.248,0.731-0.199c0.255,0.042,0.468,0.166,0.648,0.306c0.362,0.287,0.63,0.634,0.867,1.014l-0.304,0.076
			c0.046-0.686,0.137-1.358,0.271-2.028c0.14-0.667,0.318-1.334,0.633-1.958c0.159-0.309,0.356-0.611,0.639-0.845
			c0.258-0.23,0.686-0.387,1.054-0.269c0.729,0.26,1.102,0.912,1.411,1.518l-0.208,0.015c0.245-0.886,0.476-1.792,0.552-2.701
			c0.063-0.445-0.168-0.86-0.36-1.274c-0.206-0.411-0.437-0.813-0.663-1.219c-0.441-0.812-0.931-1.619-1.156-2.541
			c-0.046-0.231-0.075-0.475-0.012-0.714c0.058-0.242,0.249-0.444,0.475-0.532c0.454-0.18,0.939-0.13,1.397-0.074L98.039,41.981z
			 M98.016,41.988l-0.005,0c-0.452-0.052-0.934-0.088-1.349,0.084c-0.452,0.168-0.508,0.712-0.392,1.137
			c0.228,0.887,0.725,1.688,1.176,2.492c0.231,0.402,0.467,0.802,0.682,1.217c0.197,0.408,0.456,0.859,0.397,1.36
			c-0.067,0.942-0.288,1.848-0.524,2.75c-0.016,0.059-0.075,0.094-0.134,0.078c-0.031-0.008-0.056-0.029-0.07-0.056l-0.004-0.007
			c-0.286-0.565-0.694-1.184-1.275-1.369c-0.604-0.162-1.116,0.438-1.382,0.999c-0.555,1.191-0.732,2.559-0.822,3.878
			c-0.006,0.09-0.085,0.159-0.176,0.153c-0.054-0.003-0.102-0.035-0.129-0.077c-0.215-0.338-0.484-0.67-0.793-0.909
			c-0.311-0.248-0.683-0.339-0.955-0.103l-0.016,0.011c-0.096,0.082-0.161,0.487-0.174,0.77c-0.02,0.312-0.018,0.63-0.008,0.948
			c0.021,0.636,0.073,1.277,0.143,1.91c0.012,0.104-0.063,0.197-0.167,0.209c-0.048,0.005-0.096-0.009-0.133-0.036
			c-0.469-0.336-0.961-0.658-1.466-0.929c-0.252-0.131-0.514-0.258-0.766-0.32c-0.13-0.027-0.231-0.04-0.284,0.002
			c-0.066,0.051-0.194,0.164-0.282,0.258c-0.754,0.835-1.315,1.896-1.827,2.927c-0.053,0.106-0.182,0.15-0.289,0.097
			c-0.062-0.031-0.104-0.091-0.116-0.155c-0.052-0.274-0.143-0.565-0.265-0.818c-0.1-0.245-0.354-0.508-0.415-0.557
			c0.063-0.026-0.094,0.074-0.155,0.187c-0.081,0.114-0.159,0.243-0.236,0.375c-0.079,0.132-0.156,0.268-0.252,0.407
			c-0.051,0.07-0.099,0.141-0.188,0.22c-0.048,0.036-0.103,0.093-0.242,0.103c-0.148,0.003-0.248-0.097-0.287-0.156l0.413-0.138
			c-0.037-0.018,0.112,0.139-0.248,0.236c-0.212-0.067-0.147-0.106-0.172-0.104l-0.003-0.006l-0.006-0.012l-0.012-0.024L84.799,59
			l-0.016-0.038l-0.031-0.071l-0.061-0.138l-0.129-0.269c-0.091-0.176-0.189-0.347-0.299-0.501
			c-0.217-0.314-0.516-0.555-0.715-0.418c-0.122,0.069-0.232,0.191-0.336,0.354c-0.099,0.129-0.11,0.273-0.135,0.479
			c-0.043,0.398-0.001,0.778-0.081,1.266l-0.053-0.216c0.057,0.081,0.094,0.079,0.175,0.266c0.008,0.067,0.032,0.076-0.008,0.192
			c-0.026,0.065-0.095,0.124-0.146,0.143c-0.023,0.007-0.048,0.013-0.073,0.016c-0.126,0.005-0.098-0.01-0.153-0.017
			c-0.049-0.016-0.092-0.033-0.128-0.048l-0.403-0.194c-0.257-0.127-0.512-0.25-0.765-0.339c-0.237-0.111-0.556-0.089-0.484-0.073
			c-0.012-0.041-0.016,0.192-0.01,0.311l0.012,0.429c0.043,1.148,0.119,2.303,0.199,3.454c0.01,0.147-0.101,0.276-0.249,0.286
			c-0.127,0.009-0.239-0.072-0.275-0.189l-0.005-0.017c-0.157-0.511-0.614-0.978-1.162-1.159c-0.293-0.095-0.536-0.149-0.883-0.152
			c-0.282-0.02-0.534,0.055-0.767,0.206c-0.463,0.312-0.781,0.878-1.013,1.453c-0.229,0.581-0.391,1.214-0.485,1.829l-0.001,0.01
			c-0.024,0.16-0.174,0.27-0.334,0.246c-0.043-0.007-0.084-0.023-0.119-0.046c-0.706-0.471-1.359-0.983-1.937-1.63
			c-0.28-0.327-0.553-0.687-0.689-1.166c-0.036-0.117-0.053-0.283-0.055-0.364c-0.004-0.083-0.007-0.05-0.02-0.077
			c-0.034-0.041-0.204-0.097-0.376-0.108c-0.729-0.045-1.549,0.13-2.334,0.285l-1.201,0.254c-0.204,0.04-0.407,0.081-0.63,0.109
			c-0.126,0.006-0.198,0.041-0.438-0.009c-0.039-0.004-0.258-0.092-0.285-0.329c-0.003-0.207,0.063-0.248,0.088-0.298
			c0.065-0.087,0.11-0.12,0.16-0.167l-0.115,0.284c-0.019-0.142,0.103-0.298,0.092-0.272l0.053-0.054l0.064-0.053l0.107-0.078
			l0.201-0.137l0.388-0.263c0.254-0.176,0.501-0.357,0.73-0.55c0.229-0.192,0.445-0.397,0.604-0.614
			c0.167-0.211,0.222-0.454,0.18-0.531c-0.087-0.19-0.197-0.248-0.438-0.247c-0.235,0.009-0.511,0.101-0.774,0.219
			c-0.529,0.241-1.052,0.59-1.518,0.957c-0.156,0.122-0.381,0.096-0.504-0.061c-0.07-0.088-0.091-0.2-0.068-0.302l0.002-0.007
			c0.077-0.327,0.112-0.717,0.051-1.013c-0.067-0.309-0.205-0.41-0.473-0.417c-0.29-0.004-0.648,0.121-0.979,0.271
			c-0.332,0.155-0.671,0.351-0.969,0.558l-0.012,0.009c-0.103,0.071-0.232,0.08-0.34,0.035c-0.444-0.189-0.792-0.417-1.149-0.676
			c-0.349-0.259-0.674-0.547-0.973-0.859c-0.599-0.625-1.092-1.344-1.475-2.113l0.692-0.064c-0.088,0.288-0.382,0.338-0.463,0.329
			c-0.098-0.002-0.166-0.018-0.221-0.032c-0.114-0.03-0.203-0.063-0.29-0.097l-0.49-0.2c-0.312-0.127-0.625-0.242-0.901-0.278
			c-0.136-0.018-0.254-0.006-0.312,0.023c-0.056,0.026-0.09,0.058-0.127,0.164c-0.062,0.215-0.045,0.544,0.013,0.858l0.002,0.011
			c0.031,0.167-0.062,0.328-0.212,0.391c-0.198,0.082-0.375,0.029-0.458-0.011c-0.103-0.044-0.155-0.089-0.22-0.134
			c-0.106-0.089-0.197-0.177-0.274-0.265c-0.159-0.176-0.295-0.353-0.427-0.53c-0.262-0.356-0.504-0.714-0.744-1.071
			c-0.476-0.689-0.956-1.481-1.472-1.975c-0.023-0.023-0.07-0.048-0.054-0.042c0.003,0.007,0.062,0.006,0.022,0l-0.04-0.007
			l-0.01-0.002c0.115,0.009,0.027,0.003,0.051,0.005l-0.018,0.001c-0.091,0.004-0.184,0.005-0.272,0.021
			c-0.178,0.024-0.348,0.072-0.501,0.152c-0.308,0.154-0.562,0.415-0.745,0.745c-0.365,0.656-0.497,1.513-0.491,2.294v0.007
			c0.002,0.203-0.161,0.368-0.363,0.37c-0.178,0.001-0.327-0.124-0.362-0.292c-0.271-1.312-0.575-2.66-1.064-3.869
			c-0.107-0.275-0.318-0.626-0.398-0.691c0.038,0.008-0.115-0.061-0.033-0.026c0.021,0.012,0.124,0.019,0.189-0.031
			c0.095-0.083,0.036-0.045,0.034,0.008c-0.029,0.113-0.043,0.278-0.053,0.438l-0.039,1.022c-0.01,0.178-0.024,0.358-0.057,0.551
			c-0.056,0.193-0.03,0.399-0.334,0.688l0.122-0.412l0.038,0.106l0.005,0.014l0.013,0.044c-0.005,0.036,0.046,0.058-0.036,0.258
			c-0.043,0.11-0.235,0.208-0.338,0.186c-0.104-0.009-0.142-0.039-0.17-0.053c-0.129-0.098-0.078-0.076-0.119-0.123l-0.03-0.061
			l-0.022-0.054l-0.08-0.2l-0.159-0.396l-0.325-0.787c-0.22-0.507-0.453-1.068-0.707-1.477l-0.032-0.044
			c-0.01-0.013,0.018,0.021,0.031,0.023c-0.006-0.007,0.034,0.025,0.108,0.041c0.07,0.011,0.121-0.004,0.188-0.028
			c0.067-0.023,0.13-0.099,0.147-0.14c0.008-0.013,0.015-0.027,0.02-0.042c0.004-0.016,0.006-0.031,0.006-0.046l-0.002,0.026
			l-0.003,0.054c0.001-0.036,0.001,0.02,0.001,0.025l0.008,0.42l0.023,0.859c0.002,0.585,0.034,1.14-0.086,1.796
			c-0.034,0.19-0.216,0.316-0.405,0.281c-0.055-0.01-0.104-0.032-0.146-0.063l-0.017-0.013c-0.592-0.444-1.218-0.925-1.826-1.163
			c-0.146-0.056-0.284-0.065-0.325-0.047c-0.031,0.007-0.084,0.058-0.135,0.199c-0.092,0.276-0.114,0.66-0.128,1.024
			c-0.02,0.755-0.027,1.487,0.126,2.192c0.143,0.696,0.413,1.414,0.787,1.96l0.004,0.006c0.113,0.164,0.071,0.389-0.094,0.501
			c-0.043,0.029-0.092,0.049-0.14,0.058c-0.935,0.167-1.949,0.438-2.66,0.967c-0.17,0.138-0.307,0.281-0.38,0.449
			c-0.073,0.176-0.135,0.409-0.167,0.635c-0.066,0.462-0.063,0.953-0.033,1.441c0.155,1.964,0.662,3.94,1.255,5.842
			c0.057,0.185-0.046,0.381-0.23,0.438c-0.122,0.038-0.253,0.003-0.341-0.077c-0.605-0.545-1.33-1.03-2.075-1.408
			c-0.75-0.381-1.551-0.658-2.372-0.786c-0.41-0.063-0.824-0.089-1.236-0.072c-0.383,0.029-0.884,0.052-1.112,0.198
			c-0.54,0.311-0.642,1.279-0.552,2.033l0.001,0.007c0.022,0.189-0.112,0.36-0.301,0.382c-0.127,0.015-0.247-0.042-0.317-0.138
			c-0.554-0.753-1.132-1.502-1.738-2.208c-0.301-0.346-0.625-0.707-0.941-0.968c-0.33-0.256-0.754-0.463-1.171-0.679
			c-0.84-0.428-1.726-0.873-2.473-1.561c-0.754-0.672-1.28-1.67-1.35-2.698l0.408,0.302c0.111-0.051-0.036,0.049-0.075,0.153
			c-0.062,0.106-0.119,0.232-0.173,0.358c-0.106,0.254-0.201,0.53-0.281,0.795c-0.055,0.179-0.244,0.28-0.422,0.226
			c-0.074-0.022-0.137-0.071-0.179-0.129c-0.318-0.442-0.727-0.91-1.157-1.137c-0.224-0.11-0.379-0.117-0.506-0.019
			c-0.141,0.103-0.267,0.345-0.35,0.598c-0.015,0.049-0.045,0.096-0.079,0.13c-0.081,0.08-0.196,0.127-0.319,0.122
			c-0.093-0.009-0.171-0.04-0.213-0.066C25.06,63.1,25.013,63.05,24.961,63c-0.095-0.099-0.163-0.192-0.23-0.286
			c-0.132-0.188-0.244-0.375-0.352-0.562c-0.216-0.375-0.412-0.755-0.608-1.126l-0.145-0.265l-0.029-0.047
			c-0.023-0.014,0.093,0.092,0.111,0.079l-0.008-0.005l-0.001,0c0.238,0.047,0.065,0.013,0.119,0.023l-0.001,0.001l-0.003,0
			l-0.009,0.002c-0.023,0.004-0.047,0.001-0.083,0.016c-0.131,0.038-0.294,0.141-0.444,0.257c-0.301,0.236-0.591,0.541-0.842,0.845
			l-0.003,0.004c-0.108,0.131-0.302,0.15-0.434,0.041c-0.022-0.019-0.042-0.041-0.058-0.063c-0.421-0.612-0.859-1.232-1.33-1.787
			c-0.114-0.132-0.25-0.277-0.346-0.35c-0.07-0.048,0.019,0.017,0.044,0.001c0.043-0.001,0.057-0.018,0.048-0.011
			c-0.019,0.014-0.067,0.071-0.105,0.136c-0.159,0.273-0.279,0.639-0.373,0.976l-0.001,0.006c-0.043,0.155-0.204,0.246-0.359,0.204
			c-0.101-0.028-0.175-0.106-0.202-0.199c-0.213-0.728-0.432-1.458-0.668-2.175l-0.186-0.527l-0.089-0.214
			c-0.038-0.038,0.011-0.004,0.021-0.01c-0.023-0.005-0.189,0.091-0.299,0.21c-0.12,0.115-0.239,0.259-0.338,0.394l-0.005,0.007
			c-0.089,0.123-0.261,0.149-0.384,0.06c-0.042-0.031-0.074-0.073-0.093-0.118c-0.324-0.792-0.631-1.585-0.897-2.405
			c-0.123-0.419-0.271-0.809-0.291-1.317c-0.001-0.413-0.022-0.831-0.076-1.234c-0.043-0.378-0.165-0.862-0.321-0.991
			c-0.015-0.008,0.031,0.016,0.063,0.001c0.032-0.014,0.017-0.013,0.001,0.011c-0.036,0.043-0.079,0.128-0.114,0.215
			c-0.072,0.177-0.131,0.377-0.191,0.58c-0.071,0.21-0.099,0.396-0.251,0.663c-0.025,0.035-0.052,0.08-0.13,0.131
			c-0.071,0.062-0.266,0.061-0.338-0.005c-0.077-0.054-0.118-0.122-0.121-0.127l-0.033-0.055l-0.023-0.045
			c-0.055-0.117-0.092-0.224-0.125-0.331c-0.13-0.427-0.213-0.845-0.295-1.267c-0.157-0.842-0.28-1.684-0.38-2.532
			c-0.048-0.427-0.095-0.842-0.113-1.29c0.006-0.042-0.019-0.156,0.015-0.047c0.107,0.121,0.158,0.062,0.115,0.081
			c-0.054,0.015-0.149,0.065-0.231,0.114c-0.171,0.102-0.344,0.223-0.524,0.341c-0.092,0.06-0.18,0.12-0.294,0.178
			c-0.028,0.015-0.061,0.03-0.101,0.044c-0.054-0.005-0.083,0.082-0.295-0.042c-0.095-0.097-0.088-0.174-0.083-0.242l0.014-0.064
			l0.033-0.093c0.093-0.226,0.206-0.407,0.319-0.594c0.229-0.368,0.474-0.718,0.723-1.065c0.501-0.692,1.012-1.366,1.559-2.031
			l-0.014,0.247c-0.196-0.308-0.374-0.623-0.528-0.954c-0.155-0.343-0.273-0.672-0.38-1.014c-0.021-0.149-0.182-0.338-0.097-0.277
			c0.05-0.033-0.132,0.124-0.189,0.258c-0.166,0.285-0.301,0.61-0.431,0.933c-0.011,0.029-0.03,0.052-0.053,0.07l-0.05,0.038
			c-0.099,0.074-0.34-0.01-0.372-0.105c-0.053-0.08-0.07-0.143-0.088-0.203c-0.031-0.119-0.043-0.225-0.056-0.331l-0.045-0.617
			c-0.013-0.201-0.026-0.401-0.055-0.589c-0.011-0.177-0.121-0.402-0.109-0.344c-0.279,0.011-0.689,0.183-1.008,0.383
			c-0.335,0.201-0.66,0.444-0.956,0.699c-0.076,0.068-0.192,0.062-0.261-0.013c-0.028-0.031-0.044-0.074-0.047-0.113
			c-0.068-1.151-0.132-2.3-0.173-3.453l-0.02-0.843c0.041-0.078-0.299-0.119-0.551-0.062c-0.538,0.095-1.084,0.292-1.603,0.504
			L7.8,39.311c-0.086,0.035-0.183-0.006-0.218-0.092c-0.022-0.055-0.013-0.116,0.019-0.161c0.805-1.124,1.671-2.197,2.694-3.141
			c0.52-0.456,1.069-0.917,1.794-1.116c0.098-0.02,0.199-0.039,0.279-0.039c0.089-0.004,0.178-0.009,0.175-0.016
			c-0.008,0.089-0.036-0.131-0.144-0.238c-0.093-0.129-0.205-0.254-0.319-0.375l-0.177-0.179l-0.046-0.045l-0.013-0.012
			l-0.014-0.015l-0.003-0.004c0.032-0.072-0.071,0.167,0.036-0.221c0.301-0.013,0.118,0.019,0.172,0.008l0.002,0.002l0.03,0.024
			l0.099,0.083l-0.239,0.158c-0.025-0.074,0.006-0.185,0.122-0.218c0.033-0.007,0.08-0.005,0.094-0.001
			c0.039,0.006,0.069,0.016,0.095,0.024l0.148,0.059l0.272,0.126l0.525,0.267c0.348,0.178,0.694,0.361,1.042,0.514
			c0.086,0.036,0.176,0.072,0.252,0.092c0.038,0.032,0.086-0.044-0.035,0.073c-0.017,0.059-0.008-0.045-0.021-0.062
			c-0.039-0.152-0.141-0.308-0.257-0.45c-0.236-0.284-0.536-0.536-0.841-0.754c-0.063-0.042-0.08-0.128-0.038-0.191
			c0.014-0.021,0.037-0.039,0.058-0.049c0.627-0.28,1.257-0.547,1.896-0.797c0.32-0.125,0.642-0.245,0.969-0.354
			c0.331-0.105,0.652-0.217,1.025-0.253l-0.109,0.076c0.109-0.244,0.256-0.564,0.133-0.665c-0.148-0.129-0.472-0.157-0.74-0.176
			c-0.564-0.031-1.14-0.006-1.712,0.017l-0.012,0c-0.064,0.002-0.119-0.048-0.122-0.112c-0.002-0.043,0.019-0.081,0.053-0.103
			c0.544-0.359,1.107-0.55,1.672-0.783c0.565-0.22,1.137-0.422,1.708-0.625c1.149-0.394,2.283-0.792,3.481-1.085l-0.079,0.051
			c0.123-0.17,0.083-0.316-0.09-0.447c-0.165-0.125-0.382-0.211-0.6-0.28c-0.438-0.136-0.906-0.217-1.366-0.268
			c-0.073-0.007-0.127-0.072-0.12-0.146c0.006-0.065,0.061-0.116,0.125-0.12l2.915-0.157l1.459-0.07
			c0.501-0.015,0.94-0.055,1.497-0.033l-0.163,0.072c0.102-0.18,0.178-0.377,0.175-0.548c-0.008-0.166-0.114-0.288-0.296-0.365
			c-0.36-0.15-0.814-0.155-1.243-0.142l-0.043,0.001c-0.064,0.002-0.118-0.049-0.12-0.113l0.001-0.017
			c0.033-0.275,0.141-0.233,0.19-0.302c0.062-0.04,0.122-0.074,0.182-0.105c0.12-0.063,0.24-0.117,0.36-0.17l0.721-0.298
			c0.479-0.192,0.964-0.375,1.422-0.585c0.113-0.053,0.228-0.109,0.32-0.169c0.021-0.015,0.045-0.031,0.056-0.042
			c0.028-0.047-0.027,0.076,0.003,0.005c-0.008,0.019-0.001-0.111,0.001-0.158c0.011-0.242,0.054-0.588-0.001-0.636
			c-0.029-0.056-0.363-0.032-0.582,0.021c-0.245,0.05-0.492,0.116-0.738,0.184l-0.03,0.008c-0.082,0.022-0.165-0.025-0.188-0.106
			c-0.004-0.017-0.006-0.035-0.005-0.051c0.01-0.142,0.041-0.133,0.043-0.153l0.029-0.044l0.054-0.078l0.108-0.147l0.218-0.287
			l0.438-0.566l0.876-1.127l0.424-0.566c0.089-0.173,0.065,0.053,0.018-0.1c-0.043-0.073-0.122-0.138-0.203-0.198
			c-0.346-0.232-0.818-0.355-1.256-0.426l-0.006-0.001c-0.106-0.018-0.178-0.117-0.161-0.223c0.015-0.091,0.091-0.157,0.179-0.163
			l2.121-0.142l1.064-0.053l0.536-0.015c0.202,0.009,0.31-0.028,0.614,0.043l-0.138-0.011l0.162-0.051l-0.113,0.327
			c-0.006-0.005-0.191-0.094-0.319-0.127c-0.142-0.044-0.29-0.083-0.44-0.118c-0.299-0.07-0.606-0.131-0.909-0.183
			c-0.116-0.018-0.195-0.127-0.176-0.243c0.008-0.053,0.038-0.1,0.076-0.132c0.633-0.512,1.274-0.997,1.987-1.416
			c0.18-0.102,0.364-0.201,0.567-0.281c0.104-0.042,0.202-0.075,0.336-0.1c0.035-0.006,0.072-0.012,0.093-0.012
			c0.009,0.002,0.091-0.012,0.016,0.001c-0.024,0.006-0.11,0.072-0.104,0.142c-0.01,0.004,0.003,0.032-0.004,0.015
			c-0.042-0.109-0.171-0.29-0.286-0.436l-0.185-0.229l-0.096-0.115l-0.053-0.065l-0.018-0.024l-0.008-0.012
			c0-0.004,0,0.013-0.028-0.061c-0.058,0.02,0.026-0.325,0.222-0.295c0.103,0.011,0.1,0.029,0.118,0.034l0.017,0.012l0.049,0.042
			l-0.217-0.054c0.387-0.111,0.832-0.15,1.238-0.056c0.405,0.09,0.742,0.223,1.095,0.268c0.089,0.015,0.175,0.021,0.26,0.029
			l0.138,0.006l0.071,0.002l0.036,0.001l0.018,0c0,0,0.014,0,0.001,0c-0.034-0.001-0.076,0.008-0.109,0.028
			c-0.118,0.097-0.059,0.072-0.076,0.077c0.001-0.002,0.002-0.012,0.003-0.023c0.002-0.022-0.001-0.052-0.006-0.083
			c-0.013-0.064-0.037-0.134-0.073-0.205c-0.146-0.284-0.411-0.542-0.688-0.771l-0.04-0.033c-0.087-0.072-0.1-0.201-0.028-0.288
			c0.02-0.024,0.045-0.043,0.072-0.056c0.292-0.135,0.315-0.056,0.442-0.07l0.293,0.036l0.557,0.096l0.545,0.1l0.265,0.041
			c0.064,0.013,0.215,0.011,0.164,0.02l-0.165,0.245c-0.005,0.042,0.022,0.105,0.042,0.123l-0.011-0.012l-0.025-0.028l-0.061-0.064
			l-0.13-0.131l-0.267-0.263l-0.54-0.523c-0.1-0.096-0.103-0.255-0.007-0.354c0.039-0.04,0.088-0.064,0.139-0.073
			c0.975-0.166,1.947-0.318,2.93-0.445c0.494-0.061,0.979-0.121,1.494-0.143l0.162-0.004c0.004,0.001-0.012,0.001-0.042,0.011
			c-0.002,0-0.081,0.031-0.122,0.114c-0.069,0.188,0.024,0.231,0.009,0.231c0.016,0.019-0.005-0.004-0.019-0.014
			c-0.072-0.057-0.176-0.123-0.276-0.181l-0.311-0.174l-0.158-0.082l-0.074-0.036l-0.011-0.005l0.008,0.002
			c-0.081-0.009,0.207,0.062,0.288-0.092c0.066-0.071,0.082-0.235-0.007-0.333c-0.086-0.08-0.02-0.02-0.026-0.03l-0.373,0.105
			c0.4-0.63,1.031-0.715,1.548-0.834c0.54-0.096,1.076-0.124,1.608-0.136c0.531-0.011,1.061,0.001,1.582,0.009l0.193,0.002
			c0.06,0.005,0.169-0.009,0.086,0.008c-0.019,0.005-0.083,0.042-0.117,0.122c-0.033,0.088-0.01,0.135-0.007,0.153
			c0.017,0.037,0.005,0.012-0.003,0.005c-0.024-0.028-0.066-0.068-0.109-0.104c-0.088-0.075-0.189-0.149-0.292-0.221l-0.158-0.108
			l-0.041-0.027L41.886,11.7l-0.017-0.012l-0.036-0.03c-0.068,0.135-0.152-0.48,0.147-0.483c0.108-0.011,0.103,0.004,0.11,0.002
			l0.036,0.011c0.121,0.057,0.086,0.046,0.134,0.071l-0.223-0.026c0.546-0.143,1.032-0.004,1.465,0.123l1.252,0.428
			c0.197,0.061,0.414,0.119,0.585,0.14c0.04,0.009,0.094,0.012,0.151,0.015l0.083,0.004l0.021,0.001
			c-0.018-0.001-0.05-0.002-0.075,0.006c-0.057,0.021-0.009,0.002-0.019,0.005c0.06-0.033,0.157-0.099,0.236-0.159
			c0.328-0.248,0.659-0.543,0.857-0.848c0.044-0.067,0.111-0.111,0.184-0.128l0.053-0.012c0.114-0.025,0.295,0.139,0.255,0.112
			l0.028,0.033l0.041,0.052l0.069,0.093l0.126,0.178l0.246,0.353l0.122,0.172l0.06,0.083c-0.003,0.008,0.095,0.097-0.016,0.008
			c-0.028-0.013-0.039-0.012-0.022-0.003l0.003,0.002l0.002,0.001l0,0c0.107,0.023-0.146-0.03-0.12-0.024l-0.012-0.001l-0.024,0.001
			c-0.048,0.012-0.031,0.009-0.017,0.001l0.079-0.039l0.178-0.099c0.485-0.281,0.973-0.584,1.454-0.886
			c0.144-0.09,0.334-0.046,0.424,0.098c0.03,0.049,0.045,0.103,0.046,0.157l0,0.011c0.005,0.349,0.076,0.767,0.241,0.998
			c0.058,0.183,0.49,0.231,0.851,0.196c0.755-0.067,1.545-0.327,2.269-0.628l0.005-0.002c0.149-0.062,0.319-0.003,0.399,0.132
			c1.113,1.868,2.231,3.725,3.318,5.616l-0.558-0.041c0.104-0.135,0.175-0.487,0.209-0.792c0.038-0.32,0.058-0.652,0.083-0.989
			c0.025-0.338,0.049-0.68,0.106-1.033c0.081-0.347,0.085-0.733,0.496-1.121c0.123-0.116,0.317-0.111,0.434,0.012
			c0.037,0.038,0.061,0.084,0.074,0.132l0.007,0.028c0.129,0.498,0.365,0.961,0.744,1.116c0.379,0.167,0.908,0.051,1.414-0.119
			l0.393-0.134c0.045-0.011,0.111-0.073,0.2-0.168c0.167-0.188,0.334-0.416,0.51-0.639c0.363-0.434,0.711-0.944,1.399-1.198
			c0.15-0.056,0.317,0.021,0.372,0.171l0.005,0.014l0.005,0.018c0.104,0.337,0.217,0.678,0.363,0.97
			c0.051,0.133,0.209,0.298,0.16,0.256c-0.089-0.025-0.153,0.054-0.109,0.008c0.021-0.028,0.053-0.105,0.066-0.153l0.003-0.012
			c0.015-0.056,0.046-0.104,0.087-0.138c0.359-0.309,0.726-0.567,1.158-0.776c0.215-0.102,0.448-0.188,0.712-0.223
			c0.259-0.035,0.579,0.002,0.833,0.184l0.011,0.008c0.086,0.062,0.126,0.165,0.112,0.263c-0.059,0.41-0.009,0.918,0.151,0.914
			c0.11,0.041,0.339,0.019,0.592,0.021c0.129,0.004,0.275,0.014,0.429,0.07c0.18,0.066,0.283,0.173,0.338,0.2
			c0.254,0.178,0.597,0.024,1.045-0.171c0.22-0.088,0.493-0.186,0.806-0.145c0.317,0.04,0.571,0.231,0.748,0.422
			c0.105,0.113,0.098,0.29-0.015,0.395c-0.027,0.025-0.059,0.044-0.091,0.056c-0.371,0.142-0.61,0.336-0.538,0.607
			c0.059,0.301,0.329,0.639,0.604,0.926c0.57,0.586,1.253,1.093,1.936,1.593c0.343,0.251,0.691,0.492,1.039,0.764
			c0.17,0.107,0.388,0.377,0.471,0.485c0.122,0.132,0.242,0.204,0.378,0.212c0.285,0.029,0.724-0.24,1.245-0.217
			c0.534,0.021,0.96,0.339,1.275,0.654c0.098,0.098,0.098,0.257,0,0.355c-0.039,0.039-0.089,0.063-0.14,0.071
			c-0.366,0.057-0.781,0.163-0.952,0.361c-0.163,0.147-0.003,0.482,0.253,0.752c0.513,0.53,1.24,0.976,1.938,1.173
			c0.731,0.049,1.614,0.138,2.398,0.242l2.418,0.333c0.122,0.017,0.208,0.13,0.192,0.252c-0.013,0.09-0.077,0.16-0.158,0.185
			l-0.008,0.002c-0.264,0.079-0.553,0.234-0.691,0.431c-0.142,0.19-0.105,0.436,0.045,0.676c0.161,0.245,0.383,0.505,0.59,0.745
			c0.105,0.126,0.221,0.238,0.331,0.417c0.114,0.189,0.133,0.404,0.142,0.571c0.013,0.346,0.003,0.666,0.004,0.995
			c-0.002,0.03,0.007-0.008-0.013-0.057c-0.027-0.043-0.028-0.045-0.048-0.062c-0.029-0.018-0.02-0.01-0.018-0.011
			c0.016,0.004,0.049,0.008,0.081,0.009c0.068,0.004,0.147,0.001,0.224-0.003l0.479-0.042l0.976-0.116l0.5-0.046
			c0.086-0.005,0.171-0.009,0.265-0.006c0.047,0.001,0.094,0.003,0.156,0.015c0.026,0.004,0.065,0.014,0.113,0.037
			c0.047,0.021,0.153,0.103,0.142,0.25c-0.004,0.048-0.025,0.09-0.058,0.121l-0.006,0.006c-0.23,0.218-0.457,0.462-0.554,0.718
			c-0.104,0.256-0.003,0.449,0.263,0.587c0.528,0.254,1.238,0.264,1.842,0.142c1.294-0.355,2.622-0.623,3.936-0.909
			c0.098-0.021,0.194,0.04,0.215,0.138c0.007,0.034,0.005,0.067-0.006,0.097l-0.003,0.008c-0.171,0.491-0.236,1.094,0.018,1.515
			c0.242,0.399,0.88,0.549,1.396,0.742c1.088,0.356,2.202,0.657,3.314,0.943c0.074,0.019,0.118,0.094,0.099,0.168
			c-0.013,0.05-0.052,0.087-0.098,0.099l-0.005,0.001c-0.524,0.138-0.992,0.566-1.172,1.101c-0.095,0.268-0.13,0.551-0.137,0.846
			c0.003,0.276,0.096,0.553,0.225,0.812c0.558,1.032,1.496,1.848,2.437,2.564c0.04,0.027,0.049,0.082,0.022,0.121
			c-0.009,0.012-0.023,0.023-0.036,0.029c-0.379,0.171-0.757,0.351-1.128,0.539c-0.366,0.192-0.748,0.381-1.06,0.632l0.002-0.102
			c0.542,0.548,1.009,1.153,1.468,1.764l0.669,0.928c0.193,0.304,0.492,0.646,0.589,0.925L98.016,41.988z"/>
	</g>
</g>
</svg>
