<?xml version="1.0" encoding="iso-8859-1"?>
<!-- Generator: Adobe Illustrator 21.1.0, SVG Export Plug-In . SVG Version: 6.00 Build 0)  -->
<svg version="1.1" id="Layer_1" xmlns="http://www.w3.org/2000/svg" xmlns:xlink="http://www.w3.org/1999/xlink" x="0px" y="0px"
	 width="179.171px" height="575.674px" viewBox="0 0 179.171 575.674" style="enable-background:new 0 0 179.171 575.674;"
	 xml:space="preserve">
<g>
	
		<circle id="skinface" style="fill:#2FFF00;stroke:#000100;stroke-width:3.5;stroke-miterlimit:10;" cx="92.428" cy="107.084" r="67.72"/>
	<ellipse style="fill:#000100;stroke:#000100;stroke-width:3;" cx="109.26" cy="92.606" rx="2.826" ry="2.828"/>
	<circle style="fill:#000100;stroke:#000100;stroke-width:3;" cx="73.762" cy="92.606" r="2.829"/>
	<g>
		<path style="fill:#000100;" d="M83.466,151.749c-23.816-6.623-29.869-25.617-31.457-30.345l0,0
			c-0.318-0.913-0.057-2.028,0.581-2.482l0,0c0.645-0.457,1.419-0.084,1.739,0.831l0,0c1.649,4.569,6.663,21.751,29.637,28.359l0,0
			c2.258,0.637,4.643,0.963,7.085,0.963l0,0c13.94,0,29.476-10.523,34.731-31.583l0,0c0.24-0.963,0.983-1.465,1.657-1.119l0,0
			c0.675,0.345,1.022,1.402,0.784,2.37l0,0c-5.797,22.963-22.412,34.037-37.173,34.037l0,0
			C88.45,152.78,85.896,152.437,83.466,151.749L83.466,151.749z"/>
	</g>
	<path style="fill-rule:evenodd;clip-rule:evenodd;" d="M172.785,62.839c-1.446-5.304-4.821-8.197-6.269-10.126
		c-0.689-0.919,4.247-1.752,4.247-1.752c-13.344-18.282-14.576-20.514-30.285-28.626c4.34-2.411-2.894-2.411-10.165-6.894
		c3.227-0.254-21.974-10.942-42.395-4.197c3.435-4.416-18.323-2.892-22.663,1.929c-2.412-2.893-10.377,0.606-8.985,1.994
		c-10.397,2.538-21.865,10.913-17.417,9.16c-11.407,8.121-3.104,8.158-17.416,16.725c-4.167,2.652-9.545,23.22-6.33,20.823
		c-1.783,2.897-4.703,2.204-5.939,8.439c0.865-2.039,3.874-1.361,3.556,2.573c-0.251,3.091-6.5,15.329-6.5,15.329
		s3.842-1.868,4.093,3.008c0.293,5.656-2.762,9.885,1.559,17.307c5.346,9.183,7.028,6.735,7.191,9.18
		c0.46,6.933,6.928,7.685,9.207,7.684c-3.88-6.128-1.89-20.428-1.904-23.836c-0.012-3.115,0.231-5.898,0.79-8.54
		c0.472,3.438,1.591,8.517,2.282,9.552c-0.605-4.113,1.299-17.154,3.047-20.268c4.333-7.217,10.115-10.252,22.659-17.928
		c-4.96,6.85-8.038,11.351-8.94,18.2c3.726-7.246,9.938-11.906,17.123-17.257c-3.051,4.686-6.395,6.417-7.723,11.732
		c9.084-8.902,17.959-15.763,33.779-19.289c-5.106,5.667-6.181,11.888-6.674,18.186c2.935-4.926,5.942-9.809,11.196-13.463
		c-1.44,4.728-0.365,8.349,1.079,11.809c2.362-4.645,5.157-9.136,10.98-12.518c-1.759,4.096-1.542,7.323-0.43,10.157
		c1.361-4.685,3.803-8.386,8.613-9.919c8.699,5.243,17.527,9.681,25.627,18.895c0.682-5.159-1.4-9.88-4.738-14.409
		c5.672,3.78,9.619,9.133,11.843,16.061c1.234-2.002,1.634-4.615,1.238-7.809c5.553,8.15,5.571,7.312,6.822,12.198
		c-1.445,7.233,2.895,8.198,1.447,15.913c0.274-0.177-1.152,5.133-0.965,4.822c0.044,0.515,3.437,3.549,3.375,3.857
		c-0.334,1.72-0.78-1.579,1.559-0.288c-0.005,0.136-0.007,0.278-0.013,0.413c-0.151,3.452-0.816,11.426-2.318,13.727
		c3.278-5.025,8.244-12.796,9.012-16.864c1.709-9.055,5.125-3.996,4.892-7.307c-0.593-8.487,3.265-24.882-1.074-33.08
		C170.697,67.841,171.496,60.749,172.785,62.839z"/>
</g>
<g id="highlightgroup">
	<path style="fill:#000100;" d="M94.004,190.424c0,2.577-2.089,4.667-4.667,4.667l0,0c-2.576,0-4.666-2.089-4.666-4.667v-12
		c0-2.577,2.09-4.667,4.666-4.667l0,0c2.578,0,4.667,2.089,4.667,4.667V190.424z"/>
	
		<line style="fill:none;stroke:#000100;stroke-width:5.6693;stroke-linecap:round;stroke-linejoin:round;" x1="73.954" y1="429.494" x2="71.4" y2="516.105"/>
	
		<line style="fill:none;stroke:#000100;stroke-width:5.6693;stroke-linecap:round;stroke-linejoin:round;" x1="111.056" y1="429.477" x2="111.798" y2="516.123"/>
	<path style="fill:#1D1E1C;" d="M13.865,363.302c0.127-0.393,0.426-1.058,0.791-1.574c2.51-4.459,5.039-3.153,8.059-2.462
		c3.869,0.886,7.5,7.077,7.689,7.375l6.09,16.352c0.473,0.726,0.268,1.697-0.459,2.166c-0.727,0.473-1.699,0.267-2.168-0.458
		l-5.795-15.898l-0.945-0.324l0.859,30.167c0.086,0.862-0.543,1.628-1.402,1.714c-0.514,0.051-0.99-0.15-1.316-0.507
		c-0.217-0.237-0.363-0.548-0.398-0.898l-1.166-31.23c-0.018-0.196,0.012-0.391,0.062-0.577c-0.408-0.189-0.791-0.355-1.137-0.485
		l-0.668,36.375c-0.02,0.867-0.734,1.551-1.6,1.536c-0.449-0.009-0.848-0.206-1.127-0.512c-0.262-0.284-0.418-0.668-0.41-1.087
		l0.666-36.169c-1.238,0.874-0.402-0.168-0.555,0.546l-2.348,29.708c-0.111,0.86-0.779,1.597-1.639,1.482
		c-0.381-0.048-0.713-0.232-0.953-0.498c-0.301-0.33-0.461-0.782-0.398-1.258l2.512-28.228l-0.721-0.224L11.39,388.76
		c-0.246,0.759-0.502,0.958-1.262,0.712c-0.246-0.082-0.457-0.223-0.621-0.4c-0.334-0.37-0.471-0.909-0.305-1.42l4.486-23.836
		c0.027-0.067,0.043-0.13,0.068-0.199L13.865,363.302z"/>
	<path style="fill:#1D1E1C;" d="M164.72,362.683c-0.158-0.383-0.506-1.023-0.906-1.511c-2.836-4.259-5.262-2.768-8.223-1.854
		c-3.791,1.171-6.951,7.616-7.117,7.927l-4.855,16.761c-0.416,0.759-0.139,1.711,0.621,2.126c0.758,0.418,1.713,0.14,2.127-0.617
		l4.596-16.287l0.918-0.395l1.391,30.148c-0.02,0.866,0.662,1.584,1.525,1.605c0.518,0.013,0.977-0.224,1.275-0.604
		c0.199-0.253,0.322-0.574,0.332-0.926l-1.166-31.229c0.004-0.197-0.041-0.39-0.105-0.571c0.393-0.22,0.764-0.413,1.098-0.567
		l3.377,36.224c0.084,0.861,0.848,1.492,1.709,1.411c0.447-0.041,0.832-0.267,1.086-0.594c0.238-0.302,0.367-0.697,0.328-1.115
		l-3.361-36.019c1.303,0.78,0.389-0.197,0.596,0.503l4.555,29.452c0.176,0.848,0.898,1.533,1.744,1.356
		c0.377-0.078,0.695-0.287,0.914-0.568c0.277-0.351,0.4-0.815,0.305-1.285l-4.609-27.963l0.701-0.275l5.51,20.071
		c0.303,0.738,0.572,0.919,1.311,0.617c0.24-0.101,0.439-0.257,0.59-0.447c0.307-0.393,0.402-0.941,0.199-1.438l-6.25-23.435
		c-0.033-0.065-0.053-0.127-0.084-0.193L164.72,362.683z"/>
	<path style="fill:#7F0040;stroke:#000100;stroke-width:2.8347;stroke-linecap:round;stroke-linejoin:round;" d="M53.599,335.889
		c-1.633-0.114-2.547-0.264-2.535-0.458c-0.131,2.334-0.756,4.225-0.459,6.491c0.371,2.78,0.996,5.471,0.812,8.382
		c-1.119,17.59-3.227,35.024-4.17,52.686c-0.439,8.261-0.906,30.007-1.777,32.449c2,0.418,39.008,1.501,42.649,1.637
		c4.709,0.172,5.867-0.387,6.412-3.478c1.084-6.167,0.348-11.862,1.252-7.418c0.691,3.407,0.965,7.635,2.404,10.852
		c7.877-0.986,45.047-1.73,48.506-0.882c0.338-2.908,0.168-5.723-0.096-8.569c-4.129-44.588-15.055-89.313-14.559-92.365
		C132.148,334.566,66.115,336.76,53.599,335.889z"/>
	<path style="fill:#FABB0C;stroke:#000100;stroke-width:4.252;stroke-linecap:round;stroke-linejoin:round;" d="M110.554,513.546
		c8.701-0.869,19.225,3.636,26.775,6.227c10.549,3.63,19.758,7.951,25.035,15.432c3.289,4.669,6.562,12.727,3.615,17.729
		c-3.973,6.727-11.223,9.201-21.293,10.715c-16.551,2.484-37.512,2.164-47.871-8.575
		C82.546,540.273,110.554,513.546,110.554,513.546z"/>
	<path style="fill:#FABB0C;stroke:#000100;stroke-width:4.252;stroke-linecap:round;stroke-linejoin:round;" d="M71.159,511.792
		c11.369,6.674,24.043,28.184,19.07,39.626c-6.695,15.398-35.668,14.229-51.443,11.432c-18.502-3.285-27.754-18.46-19.568-31.019
		C26.411,520.781,71.159,511.792,71.159,511.792z"/>
	<g>
		<path style="fill:#000100;stroke:#000100;" d="M67.111,532.816c-2.123-1.512-5.361-1.893-9.303-2.01l0,0
			c-0.17-0.016-0.422-0.02-0.74-0.02l0,0c-2.67-0.039-6.637,0.523-7.803,1.235l0,0l0.006,0.003c-1.189,0.635-2.869,0.459-3.758-0.38
			l0,0c-0.893-0.847-0.654-2.04,0.535-2.673l0,0c3.244-1.643,7.602-1.947,11.02-1.995l0,0c0.346,0,0.727,0,1.078,0.021l0,0
			c4.004,0.143,8.9,0.453,12.729,3.1l0,0c1.053,0.734,1.072,1.942,0.033,2.695l0,0c-0.529,0.38-1.226,0.57-1.92,0.57l0,0
			C68.308,533.363,67.63,533.181,67.111,532.816L67.111,532.816z"/>
	</g>
	<g>
		<path style="fill:#000100;stroke:#000100;" d="M64.437,544.48c-1.273-1.008-6.379-1.963-9.451-2.24l0,0
			c-1.215-0.143-2.504-0.225-3.773-0.225l0,0c-2.205,0-4.295,0.268-5.92,0.869l0,0c-1.309,0.483-2.934,0.116-3.613-0.816l0,0
			c-0.676-0.938-0.162-2.084,1.15-2.572l0,0c2.678-0.978,5.605-1.288,8.383-1.288l0,0c1.594,0,3.154,0.096,4.615,0.267l0,0
			c3.396,0.43,8.808,1.001,12.324,3.258l0,0c1.068,0.728,1.107,1.936,0.08,2.693l0,0c-0.527,0.391-1.232,0.59-1.936,0.59l0,0
			C65.628,545.015,64.96,544.839,64.437,544.48L64.437,544.48z"/>
	</g>
	<g>
		<path style="fill:#000100;stroke:#000100;" d="M111.159,533.086c-1.26-0.551-1.666-1.725-0.893-2.621l0,0
			c1.77-1.961,4.729-2.928,7.906-3.673l0,0c3.205-0.722,6.725-1.085,9.801-1.091l0,0c2.105,0.016,3.965,0.139,5.668,0.668l0,0
			c1.352,0.43,1.955,1.557,1.348,2.516l0,0c-0.609,0.96-2.195,1.389-3.547,0.96l0,0c-0.408-0.151-1.805-0.343-3.469-0.323l0,0
			c-2.457-0.006-5.586,0.316-8.182,0.9l0,0c-2.611,0.552-4.598,1.51-4.949,2.025l0,0l0.006,0.002
			c-0.502,0.589-1.389,0.914-2.293,0.914l0,0C112.077,533.363,111.595,533.272,111.159,533.086L111.159,533.086z"/>
	</g>
	<g>
		<path style="fill:#000100;stroke:#000100;" d="M114.98,542.576c-1.08-0.727-1.123-1.933-0.1-2.697l0,0
			c3.934-2.826,10.936-4.377,17.143-4.445l0,0c1.916,0.002,3.777,0.17,5.506,0.623l0,0c1.385,0.372,2.09,1.469,1.57,2.451l0,0
			c-0.525,0.986-2.066,1.484-3.455,1.114l0,0c-0.877-0.237-2.156-0.377-3.621-0.377l0,0c-4.73-0.06-11.242,1.629-13.256,3.261l0,0
			c-0.521,0.391-1.232,0.596-1.943,0.596l0,0C116.161,543.101,115.499,542.924,114.98,542.576L114.98,542.576z"/>
	</g>
	
		<line style="fill:#8D3088;stroke:#000100;stroke-width:3;stroke-linecap:round;stroke-linejoin:round;" x1="95.782" y1="425.181" x2="95.609" y2="390.236"/>
	<path style="fill:none;stroke:#000100;stroke-width:4.252;stroke-linecap:round;stroke-linejoin:round;" d="M33.747,260.913
		c0,0-8.748,37.648-10.445,51.275c-1.381,11.088-3.166,46.5-3.166,46.5"/>
	<path style="fill:none;stroke:#000100;stroke-width:4.252;stroke-linecap:round;stroke-linejoin:round;" d="M145.447,259.913
		c0,0,6.746,40.648,8.443,54.276c1.381,11.087,4.168,44.499,4.168,44.499"/>
	<path style="fill:#FF6047;stroke:#000100;stroke-width:2.8347;stroke-linecap:round;stroke-linejoin:round;" d="M84.669,187.763
		c-4.428,2.13-33.539,7.477-41.354,13.142c-8.562,6.212-26.865,50.55-28.887,53.035c6.643,2.277,33.672,8.881,39.775,11.857
		c4.119-9.847,4.119-16.227,4.119-16.227c0.441,1.458-0.812,12.58-1.391,16.556c-4.709,32.382-15.115,78.628-15.514,78.606
		c17.854,0.848,35.693,0.168,53.652,0.685c22.316,0.643,37.043-2.539,45.584-0.674c0.127-0.095,1.25-0.188,1.369-0.279
		c-2.381-4.46-8.658-49.553-15.318-79.725c-2.246-10.178-0.648-4.14,2.787,0.926c10.287-5.899,20.521-7.874,31.533-13.101
		c-2.441-1.971-17.594-49.508-37.959-55.427c-5.732-1.667-18.746-6.723-28.895-8.798C91.763,198.869,83.919,192.541,84.669,187.763z
		"/>
	
		<line style="fill:#2FAAE1;stroke:#000100;stroke-width:2.8347;stroke-linecap:round;stroke-linejoin:round;" x1="125.671" y1="259.293" x2="122.667" y2="249.462"/>
</g>
</svg>
