<?xml version="1.0" encoding="iso-8859-1"?>
<!-- Generator: Adobe Illustrator 21.1.0, SVG Export Plug-In . SVG Version: 6.00 Build 0)  -->
<svg version="1.1" id="Layer_1" xmlns="http://www.w3.org/2000/svg" xmlns:xlink="http://www.w3.org/1999/xlink" x="0px" y="0px"
	 width="184.963px" height="582.309px" viewBox="0 0 184.963 582.309" style="enable-background:new 0 0 184.963 582.309;"
	 xml:space="preserve">
<circle id="skinface" style="fill:#88FF3F;stroke:#000100;stroke-width:3.5;stroke-miterlimit:10;" cx="94.103" cy="110.004" r="71.551"/>
<g id="highlightgroup">
	
		<line style="fill:none;stroke:#000100;stroke-width:5.6693;stroke-linecap:round;stroke-linejoin:round;" x1="78.128" y1="436.246" x2="75.574" y2="522.857"/>
	
		<line style="fill:none;stroke:#000100;stroke-width:5.6693;stroke-linecap:round;stroke-linejoin:round;" x1="115.23" y1="436.229" x2="115.972" y2="522.874"/>
	<path style="fill:#1D1E1C;" d="M18.039,370.054c0.127-0.393,0.426-1.058,0.791-1.574c2.51-4.458,5.039-3.153,8.059-2.462
		c3.869,0.886,7.5,7.076,7.69,7.375l6.09,16.352c0.473,0.727,0.268,1.697-0.459,2.166c-0.727,0.473-1.699,0.267-2.168-0.457
		l-5.795-15.898l-0.945-0.324l0.859,30.167c0.086,0.862-0.543,1.628-1.402,1.714c-0.514,0.052-0.99-0.15-1.316-0.507
		c-0.217-0.237-0.363-0.548-0.398-0.897l-1.166-31.23c-0.018-0.196,0.012-0.391,0.062-0.576c-0.408-0.189-0.791-0.355-1.137-0.485
		l-0.668,36.374c-0.02,0.867-0.734,1.552-1.6,1.537c-0.449-0.01-0.848-0.206-1.127-0.513c-0.262-0.284-0.418-0.668-0.41-1.087
		l0.666-36.17c-1.238,0.873-0.402-0.168-0.555,0.546l-2.348,29.708c-0.111,0.86-0.779,1.598-1.639,1.482
		c-0.381-0.049-0.713-0.232-0.953-0.498c-0.301-0.33-0.461-0.782-0.399-1.258l2.512-28.229l-0.721-0.224l-3.998,20.427
		c-0.246,0.759-0.502,0.959-1.262,0.713c-0.246-0.082-0.457-0.224-0.621-0.4c-0.334-0.37-0.471-0.91-0.305-1.421l4.486-23.837
		c0.027-0.066,0.043-0.13,0.068-0.198L18.039,370.054z"/>
	<path style="fill:#1D1E1C;" d="M168.894,369.435c-0.158-0.383-0.506-1.023-0.906-1.511c-2.836-4.259-5.262-2.767-8.223-1.854
		c-3.791,1.171-6.951,7.616-7.117,7.927l-4.855,16.762c-0.416,0.759-0.139,1.711,0.621,2.125c0.758,0.418,1.713,0.141,2.127-0.617
		l4.596-16.286l0.918-0.395l1.391,30.147c-0.02,0.867,0.662,1.584,1.525,1.605c0.518,0.014,0.977-0.225,1.275-0.603
		c0.199-0.254,0.322-0.574,0.332-0.926l-1.166-31.229c0.004-0.197-0.041-0.39-0.105-0.571c0.393-0.219,0.764-0.412,1.098-0.566
		l3.377,36.223c0.084,0.861,0.848,1.492,1.709,1.411c0.447-0.042,0.832-0.267,1.086-0.594c0.238-0.302,0.367-0.697,0.328-1.115
		l-3.361-36.018c1.303,0.779,0.389-0.197,0.596,0.502l4.555,29.452c0.176,0.848,0.898,1.533,1.744,1.356
		c0.377-0.078,0.695-0.287,0.914-0.568c0.277-0.352,0.4-0.815,0.305-1.285l-4.609-27.963l0.701-0.275l5.51,20.071
		c0.303,0.738,0.572,0.919,1.311,0.616c0.24-0.1,0.439-0.257,0.59-0.447c0.307-0.393,0.402-0.94,0.199-1.438l-6.25-23.436
		c-0.033-0.064-0.053-0.127-0.084-0.193L168.894,369.435z"/>
	<path style="fill:#0071BC;stroke:#000100;stroke-width:2.8347;stroke-linecap:round;stroke-linejoin:round;" d="M55.447,352.324
		c0,0,0.328,1.82,0.145,4.732c-1.119,17.59-3.227,35.023-4.17,52.686c-0.439,8.261-0.906,30.006-1.777,32.449
		c2,0.418,39.008,1.5,42.648,1.637c4.709,0.172,5.867-0.387,6.412-3.478c1.084-6.167,0.348-11.861,1.252-7.418
		c0.691,3.408,0.965,7.635,2.404,10.853c7.877-0.986,45.047-1.729,48.506-0.882c0.338-2.908,0.168-5.723-0.096-8.57
		c-4.129-44.588-13.471-79.879-12.975-82.932C137.906,350.75,55.447,352.324,55.447,352.324z"/>
	<path style="fill:#FABB0C;stroke:#000100;stroke-width:4.252;stroke-linecap:round;stroke-linejoin:round;" d="M114.728,520.297
		c8.701-0.869,19.225,3.636,26.775,6.227c10.549,3.63,19.758,7.951,25.035,15.432c3.289,4.669,6.562,12.727,3.615,17.729
		c-3.973,6.727-11.223,9.201-21.293,10.715c-16.551,2.484-37.512,2.164-47.871-8.575C86.72,547.025,114.728,520.297,114.728,520.297
		z"/>
	<path style="fill:#FABB0C;stroke:#000100;stroke-width:4.252;stroke-linecap:round;stroke-linejoin:round;" d="M75.333,518.543
		c11.369,6.674,24.043,28.184,19.07,39.626c-6.695,15.398-35.668,14.229-51.443,11.432c-18.502-3.285-27.754-18.46-19.568-31.02
		C30.585,527.532,75.333,518.543,75.333,518.543z"/>
	<g>
		<path style="fill:#000100;stroke:#000100;stroke-width:3.5809;" d="M90.999,199.539c0-2.513-0.137-5.075-0.27-7.551
			c-0.131-2.511-0.271-5.104-0.271-7.68l0,0c0-0.971,1.205-1.754,2.684-1.754c1.482,0,2.682,0.783,2.682,1.754l0,0
			c0,2.516,0.137,5.08,0.27,7.558c0.135,2.508,0.269,5.099,0.269,7.673l0,0c0,0.969-1.199,1.754-2.682,1.754
			S90.999,200.509,90.999,199.539L90.999,199.539z"/>
	</g>
	<g>
		<path style="fill:#000100;stroke:#000100;" d="M71.285,539.568c-2.123-1.512-5.361-1.893-9.303-2.01l0,0
			c-0.17-0.016-0.422-0.019-0.74-0.019l0,0c-2.67-0.039-6.637,0.523-7.803,1.235l0,0l0.006,0.003
			c-1.189,0.635-2.869,0.459-3.758-0.38l0,0c-0.893-0.847-0.654-2.04,0.535-2.673l0,0c3.244-1.643,7.602-1.947,11.02-1.995l0,0
			c0.346,0,0.727,0,1.078,0.021l0,0c4.004,0.143,8.9,0.453,12.729,3.1l0,0c1.053,0.734,1.072,1.942,0.033,2.695l0,0
			c-0.529,0.38-1.227,0.57-1.92,0.57l0,0C72.482,540.115,71.804,539.933,71.285,539.568L71.285,539.568z"/>
	</g>
	<g>
		<path style="fill:#000100;stroke:#000100;" d="M68.611,551.232c-1.273-1.008-6.379-1.963-9.451-2.24l0,0
			c-1.215-0.143-2.504-0.225-3.773-0.225l0,0c-2.205,0-4.295,0.268-5.92,0.869l0,0c-1.309,0.483-2.934,0.116-3.613-0.816l0,0
			c-0.676-0.938-0.162-2.084,1.15-2.572l0,0c2.678-0.978,5.606-1.288,8.383-1.288l0,0c1.594,0,3.154,0.096,4.615,0.267l0,0
			c3.396,0.43,8.809,1.001,12.324,3.258l0,0c1.068,0.727,1.107,1.936,0.08,2.693l0,0c-0.527,0.391-1.232,0.59-1.936,0.59l0,0
			C69.802,551.767,69.134,551.591,68.611,551.232L68.611,551.232z"/>
	</g>
	<g>
		<path style="fill:#000100;stroke:#000100;" d="M115.333,539.837c-1.26-0.551-1.666-1.725-0.893-2.621l0,0
			c1.77-1.961,4.729-2.928,7.906-3.673l0,0c3.205-0.722,6.725-1.085,9.801-1.091l0,0c2.105,0.016,3.965,0.139,5.668,0.668l0,0
			c1.352,0.43,1.955,1.557,1.348,2.516l0,0c-0.609,0.96-2.195,1.389-3.547,0.96l0,0c-0.408-0.151-1.805-0.343-3.469-0.323l0,0
			c-2.457-0.006-5.586,0.316-8.182,0.9l0,0c-2.611,0.552-4.598,1.51-4.949,2.025l0,0l0.006,0.002
			c-0.502,0.589-1.389,0.914-2.293,0.914l0,0C116.251,540.115,115.769,540.024,115.333,539.837L115.333,539.837z"/>
	</g>
	<g>
		<path style="fill:#000100;stroke:#000100;" d="M119.154,549.327c-1.08-0.727-1.123-1.933-0.1-2.697l0,0
			c3.934-2.826,10.936-4.377,17.143-4.445l0,0c1.916,0.002,3.777,0.17,5.506,0.623l0,0c1.385,0.372,2.09,1.469,1.57,2.451l0,0
			c-0.525,0.986-2.066,1.484-3.455,1.114l0,0c-0.877-0.237-2.156-0.377-3.621-0.377l0,0c-4.73-0.06-11.242,1.629-13.256,3.261l0,0
			c-0.521,0.391-1.232,0.596-1.943,0.596l0,0C120.335,549.853,119.673,549.676,119.154,549.327L119.154,549.327z"/>
	</g>
	<ellipse style="fill:#000100;stroke:#000100;stroke-width:3;" cx="111.886" cy="95.707" rx="2.985" ry="2.989"/>
	<circle style="fill:#000100;stroke:#000100;stroke-width:3;" cx="74.38" cy="95.707" r="2.988"/>
	<g>
		<path style="fill:#000100;" d="M84.634,158.197c-25.165-6.998-31.56-27.066-33.236-32.062l0,0
			c-0.336-0.966-0.06-2.143,0.613-2.623l0,0c0.681-0.483,1.5-0.087,1.838,0.879l0,0c1.744,4.827,7.041,22.982,31.314,29.963l0,0
			c2.384,0.673,4.905,1.017,7.484,1.017l0,0c14.73,0,31.144-11.118,36.698-33.37l0,0c0.253-1.017,1.038-1.549,1.75-1.182l0,0
			c0.713,0.364,1.081,1.48,0.829,2.503l0,0c-6.125,24.261-23.678,35.963-39.276,35.963l0,0
			C89.9,159.286,87.202,158.923,84.634,158.197L84.634,158.197z"/>
	</g>
	
		<line style="fill:#8D3088;stroke:#000100;stroke-width:3;stroke-linecap:round;stroke-linejoin:round;" x1="99.957" y1="431.932" x2="99.783" y2="396.989"/>
	<path style="fill:none;stroke:#000100;stroke-width:4.252;stroke-linecap:round;stroke-linejoin:round;" d="M37.921,267.664
		c0,0-8.748,37.648-10.445,51.275c-1.381,11.088-3.166,46.5-3.166,46.5"/>
	<path style="fill:none;stroke:#000100;stroke-width:4.252;stroke-linecap:round;stroke-linejoin:round;" d="M149.621,266.664
		c0,0,6.746,40.648,8.443,54.277c1.381,11.086,4.168,44.498,4.168,44.498"/>
	<path style="fill:none;stroke:#000100;stroke-width:2;stroke-miterlimit:10;" d="M53.369,389.47
		c9.207-0.737,24.217-1.42,28.084-5.802c3.867-4.384,5.018-32.189,0.938-32.048c-4.082,0.14-25.943,0.704-25.943,0.704
		L53.369,389.47z"/>
	<path style="fill:none;stroke:#000100;stroke-width:2;stroke-miterlimit:10;" d="M144.105,388.123
		c-8.08-0.012-21.205,0.486-24.998-3.569c-3.793-4.059-7.514-31.634-3.949-31.819c3.562-0.176,22.639-1.334,22.639-1.334
		L144.105,388.123z"/>
	<path style="fill:#FF0000;stroke:#000100;stroke-width:2.8347;stroke-linecap:round;stroke-linejoin:round;" d="M88.843,194.515
		c-4.428,2.13-33.539,7.477-41.354,13.142c-8.562,6.213-26.865,50.551-28.887,53.035c6.643,2.277,33.672,8.881,39.775,11.857
		c4.119-9.847,4.119-16.227,4.119-16.227c0.441,1.458-0.812,12.579-1.391,16.556c-4.709,32.383-15.115,78.628-15.514,78.605
		c17.854,0.848,35.693,0.168,53.652,0.686c22.316,0.643,37.043-2.539,45.584-0.674c0.127-0.095,1.25-0.188,1.369-0.279
		c-2.381-4.46-8.658-49.553-15.318-79.725c-2.246-10.178-0.648-4.141,2.787,0.926c10.287-5.898,20.521-7.873,31.533-13.102
		c-2.441-1.971-17.594-49.508-37.959-55.427c-5.732-1.667-18.746-6.724-28.895-8.798C95.937,205.62,88.093,199.293,88.843,194.515z"
		/>
	
		<line style="fill:#2FAAE1;stroke:#000100;stroke-width:2.8347;stroke-linecap:round;stroke-linejoin:round;" x1="129.845" y1="266.044" x2="126.841" y2="256.213"/>
	<path d="M174.078,97.423c-0.567-7.133,11.29-14.784-0.874-26.459c-0.261-0.251,0.21-11.828-1.398-9.792
		c-1.15,1.457-0.898,3.497-1.253,4.113c-0.322,0.955-0.593,1.031,0,0c0.548-1.622,1.231-5.771-1.97-11.349
		c-1.649-2.873-4.8-7.642-4.654-9.931c0.254-4.006-1.603-7.478-13.558-13.938c-3.832-5.746-17.772-5.825-12.617-4.491
		c-5.503-4.804-6.895-8.111-12.82-8.814c-21.949-6.981-37.925-9.902-60.095,0.801c-7.603,3.671-19.517,5.869-22.436,6.411
		c-3.207,0.596-12.028,11.988-8.813,9.615c-3.214,2.373-8.013,3.472-11.753,8.814c-1.838,2.626-3.942,9.525-1.602,8.547
		c-1.258,1.339-1.602,9.081-12.287,14.422c-1.379,0.69,2.038,10.76,2.014,17.199c-2.015,2.771-3.711,4.931-3.711,4.931
		s4.2-1.501,4.465,3.651c0.307,5.976-2.863,8.943,1.702,16.784c2.494,4.283,3.51,5.398,3.883,5.53
		c0.001,0.062,0.004,0.13,0.009,0.207c0.4,6.02,3.34,6.649,5.713,6.682c0.139,0.598,0.281,1.192,0.435,1.781l-0.35-1.78
		c0.483,0.004,0.94-0.014,1.346-0.014c-1.074-1.696-1.567-3.524-1.715-5.365c-0.012-0.949-0.004-1.883,0.013-2.808
		c0.34-4.206,1.913-8.144,1.904-10.321c-0.015-3.757,0.321-7.056,1.106-10.198c1.11-0.688,3.859-7.475,5.358-10.147
		c4.58-7.625,4.685-5.095,16.289-15.596c-5.241,7.237-4.923,5.583-5.876,12.82c3.939-7.656,24.669-11.282,29.915-9.615
		c20.46,6.504,46.732-8.242,57.157-15.491c-1.524,4.995,0,11.751,3.205,12.82c7.478,3.205,10.139-0.655,18.696,9.082
		c0.721-5.452-1.602-6.945-1.602-8.013c5.992,3.995,5.02,7.621,3.766,2.669c9.739,7.048,14.128,33.572,13.756,42.008
		c-0.16,3.646-1.073,12.416-2.66,14.846c3.464-5.309,9.1-15.739,9.912-20.038C174.483,97.429,174.539,103.235,174.078,97.423z"/>
</g>
</svg>
