<?xml version="1.0" encoding="iso-8859-1"?>
<!-- Generator: Adobe Illustrator 21.1.0, SVG Export Plug-In . SVG Version: 6.00 Build 0)  -->
<svg version="1.1" id="Layer_1" xmlns="http://www.w3.org/2000/svg" xmlns:xlink="http://www.w3.org/1999/xlink" x="0px" y="0px"
	 width="189.369px" height="579.413px" viewBox="0 0 189.369 579.413" style="enable-background:new 0 0 189.369 579.413;"
	 xml:space="preserve">
<circle id="skinface" style="fill:#0FD400;stroke:#000100;stroke-width:3.5;stroke-miterlimit:10;" cx="96.108" cy="103.856" r="75.567"/>
<g id="highlightgroup">
	
		<line style="fill:none;stroke:#000100;stroke-width:5.6693;stroke-linecap:round;stroke-linejoin:round;" x1="82.083" y1="434.233" x2="79.529" y2="520.844"/>
	
		<line style="fill:none;stroke:#000100;stroke-width:5.6693;stroke-linecap:round;stroke-linejoin:round;" x1="119.185" y1="434.216" x2="119.927" y2="520.861"/>
	<path style="fill:#1D1E1C;" d="M21.994,368.041c0.127-0.394,0.426-1.058,0.791-1.574c2.51-4.458,5.039-3.153,8.059-2.462
		c3.869,0.886,7.5,7.077,7.69,7.375l6.09,16.352c0.473,0.726,0.268,1.697-0.459,2.166c-0.726,0.473-1.699,0.267-2.168-0.457
		l-5.795-15.898l-0.945-0.324l0.859,30.167c0.086,0.862-0.543,1.628-1.402,1.714c-0.514,0.051-0.99-0.15-1.317-0.507
		c-0.217-0.237-0.363-0.548-0.398-0.898l-1.166-31.23c-0.018-0.196,0.012-0.391,0.062-0.577c-0.408-0.189-0.791-0.355-1.137-0.485
		l-0.668,36.375c-0.019,0.867-0.734,1.551-1.6,1.536c-0.449-0.009-0.848-0.206-1.127-0.512c-0.262-0.284-0.418-0.668-0.41-1.087
		l0.666-36.169c-1.238,0.874-0.402-0.168-0.555,0.546l-2.348,29.708c-0.111,0.86-0.779,1.597-1.639,1.482
		c-0.381-0.048-0.713-0.232-0.953-0.498c-0.301-0.33-0.461-0.782-0.399-1.258l2.512-28.228l-0.721-0.224l-3.998,20.427
		c-0.246,0.759-0.502,0.958-1.262,0.712c-0.246-0.082-0.457-0.223-0.621-0.4c-0.334-0.37-0.471-0.909-0.305-1.42l4.486-23.836
		c0.027-0.067,0.043-0.13,0.068-0.199L21.994,368.041z"/>
	<path style="fill:#1D1E1C;" d="M172.849,367.422c-0.158-0.383-0.506-1.023-0.906-1.511c-2.836-4.259-5.262-2.768-8.223-1.854
		c-3.791,1.171-6.951,7.616-7.117,7.927l-4.855,16.761c-0.416,0.759-0.139,1.712,0.621,2.126c0.758,0.418,1.713,0.14,2.127-0.617
		l4.596-16.287l0.918-0.395l1.391,30.148c-0.02,0.866,0.662,1.584,1.525,1.605c0.518,0.013,0.977-0.224,1.275-0.604
		c0.199-0.253,0.322-0.574,0.332-0.926l-1.166-31.229c0.004-0.197-0.041-0.39-0.105-0.571c0.393-0.22,0.764-0.413,1.098-0.567
		l3.377,36.224c0.084,0.861,0.848,1.492,1.709,1.411c0.447-0.042,0.832-0.267,1.086-0.594c0.238-0.302,0.367-0.697,0.328-1.115
		l-3.361-36.019c1.303,0.78,0.389-0.197,0.596,0.503l4.555,29.452c0.176,0.848,0.898,1.533,1.744,1.356
		c0.377-0.078,0.695-0.287,0.914-0.568c0.277-0.351,0.4-0.814,0.305-1.285l-4.609-27.963l0.701-0.275l5.51,20.071
		c0.303,0.738,0.572,0.919,1.311,0.617c0.24-0.101,0.439-0.257,0.59-0.447c0.307-0.393,0.402-0.941,0.199-1.438l-6.25-23.435
		c-0.033-0.065-0.053-0.127-0.084-0.193L172.849,367.422z"/>
	<path style="fill:#FABB0C;stroke:#000100;stroke-width:4.252;stroke-linecap:round;stroke-linejoin:round;" d="M118.683,518.284
		c8.701-0.869,19.225,3.636,26.775,6.227c10.549,3.63,19.758,7.951,25.035,15.432c3.289,4.669,6.562,12.727,3.615,17.729
		c-3.973,6.727-11.223,9.201-21.293,10.715c-16.551,2.484-37.512,2.164-47.871-8.575
		C90.675,545.012,118.683,518.284,118.683,518.284z"/>
	<path style="fill:#FABB0C;stroke:#000100;stroke-width:4.252;stroke-linecap:round;stroke-linejoin:round;" d="M79.288,516.53
		c11.369,6.674,24.043,28.184,19.07,39.626c-6.695,15.398-35.668,14.229-51.443,11.432c-18.502-3.285-27.754-18.46-19.568-31.02
		C34.54,525.519,79.288,516.53,79.288,516.53z"/>
	<g>
		<path style="fill:#000100;stroke:#000100;stroke-width:3.5809;" d="M94.954,197.526c0-2.512-0.137-5.075-0.27-7.551
			c-0.131-2.511-0.271-5.104-0.271-7.68l0,0c0-0.97,1.205-1.754,2.684-1.754c1.482,0,2.682,0.784,2.682,1.754l0,0
			c0,2.516,0.137,5.08,0.27,7.558c0.135,2.508,0.27,5.1,0.27,7.673l0,0c0,0.969-1.199,1.754-2.682,1.754
			S94.954,198.495,94.954,197.526L94.954,197.526z"/>
	</g>
	<g>
		<path style="fill:#000100;stroke:#000100;" d="M75.24,537.555c-2.123-1.512-5.361-1.893-9.303-2.01l0,0
			c-0.17-0.016-0.422-0.019-0.74-0.019l0,0c-2.67-0.039-6.637,0.523-7.803,1.235l0,0l0.006,0.003
			c-1.189,0.635-2.869,0.459-3.758-0.38l0,0c-0.892-0.847-0.654-2.04,0.535-2.673l0,0c3.244-1.643,7.602-1.947,11.019-1.995l0,0
			c0.346,0,0.727,0,1.078,0.021l0,0c4.004,0.143,8.9,0.453,12.729,3.1l0,0c1.053,0.734,1.072,1.942,0.033,2.695l0,0
			c-0.529,0.38-1.227,0.57-1.92,0.57l0,0C76.437,538.101,75.759,537.92,75.24,537.555L75.24,537.555z"/>
	</g>
	<g>
		<path style="fill:#000100;stroke:#000100;" d="M72.566,549.219c-1.273-1.008-6.379-1.963-9.451-2.24l0,0
			c-1.215-0.142-2.504-0.225-3.773-0.225l0,0c-2.205,0-4.295,0.268-5.92,0.869l0,0c-1.309,0.483-2.934,0.116-3.613-0.816l0,0
			c-0.676-0.938-0.162-2.084,1.15-2.572l0,0c2.678-0.977,5.606-1.288,8.383-1.288l0,0c1.594,0,3.154,0.096,4.615,0.267l0,0
			c3.397,0.43,8.809,1.001,12.324,3.258l0,0c1.068,0.728,1.107,1.936,0.08,2.693l0,0c-0.527,0.391-1.232,0.59-1.936,0.59l0,0
			C73.757,549.754,73.089,549.578,72.566,549.219L72.566,549.219z"/>
	</g>
	<g>
		<path style="fill:#000100;stroke:#000100;" d="M119.288,537.824c-1.26-0.551-1.666-1.725-0.893-2.621l0,0
			c1.77-1.961,4.729-2.928,7.906-3.673l0,0c3.205-0.722,6.725-1.085,9.801-1.091l0,0c2.105,0.016,3.965,0.139,5.668,0.668l0,0
			c1.352,0.43,1.955,1.557,1.348,2.516l0,0c-0.609,0.96-2.195,1.389-3.547,0.96l0,0c-0.408-0.151-1.805-0.343-3.469-0.323l0,0
			c-2.457-0.006-5.586,0.316-8.182,0.9l0,0c-2.611,0.552-4.598,1.51-4.949,2.025l0,0l0.006,0.002
			c-0.502,0.589-1.389,0.914-2.293,0.914l0,0C120.206,538.101,119.724,538.011,119.288,537.824L119.288,537.824z"/>
	</g>
	<g>
		<path style="fill:#000100;stroke:#000100;" d="M123.109,546.314c-1.08-0.727-1.123-1.933-0.1-2.697l0,0
			c3.934-2.826,10.936-4.377,17.143-4.445l0,0c1.916,0.002,3.777,0.17,5.506,0.623l0,0c1.385,0.372,2.09,1.469,1.57,2.451l0,0
			c-0.525,0.986-2.066,1.484-3.455,1.114l0,0c-0.877-0.237-2.156-0.377-3.621-0.377l0,0c-4.731-0.06-11.242,1.629-13.256,3.261l0,0
			c-0.521,0.391-1.232,0.596-1.943,0.596l0,0C124.29,546.84,123.628,546.663,123.109,546.314L123.109,546.314z"/>
	</g>
	<ellipse style="fill:#000100;stroke:#000100;stroke-width:3;" cx="114.89" cy="87.701" rx="3.152" ry="3.156"/>
	<circle style="fill:#000100;stroke:#000100;stroke-width:3;" cx="75.278" cy="87.701" r="3.156"/>
	<g>
		<path style="fill:#000100;" d="M86.108,153.697c-26.578-7.39-33.332-28.586-35.102-33.861l0,0c-0.355-1.02-0.064-2.263,0.647-2.77
			l0,0c0.719-0.509,1.585-0.093,1.94,0.929l0,0c1.843,5.099,7.436,24.272,33.071,31.645l0,0c2.52,0.711,5.181,1.074,7.905,1.074l0,0
			c15.558,0,32.893-11.742,38.758-35.243l0,0c0.268-1.074,1.096-1.635,1.849-1.247l0,0c0.753,0.384,1.14,1.563,0.873,2.644l0,0
			c-6.467,25.624-25.007,37.981-41.479,37.981l0,0C91.669,154.847,88.821,154.465,86.108,153.697L86.108,153.697z"/>
	</g>
	<path style="fill:#8D3088;stroke:#000100;stroke-width:3;stroke-linecap:round;stroke-linejoin:round;" d="M103.738,394.975"/>
	<path style="fill:#8D3088;stroke:#000100;stroke-width:3;stroke-linecap:round;stroke-linejoin:round;" d="M103.912,429.919"/>
	<path style="fill:none;stroke:#000100;stroke-width:4.252;stroke-linecap:round;stroke-linejoin:round;" d="M41.876,265.652
		c0,0-8.748,37.648-10.445,51.275c-1.381,11.088-3.166,46.5-3.166,46.5"/>
	<path style="fill:none;stroke:#000100;stroke-width:4.252;stroke-linecap:round;stroke-linejoin:round;" d="M153.576,264.652
		c0,0,6.746,40.648,8.443,54.276c1.381,11.087,4.168,44.499,4.168,44.499"/>
	<path style="fill:#FCEE21;stroke:#000100;stroke-width:2.8347;stroke-linecap:round;stroke-linejoin:round;" d="M92.798,192.502
		c-4.428,2.13-33.539,7.477-41.354,13.142c-8.562,6.212-26.865,50.55-28.887,53.035c6.643,2.277,33.672,8.881,39.775,11.857
		c4.119-9.847,4.119-16.227,4.119-16.227c0.441,1.458-0.812,12.58-1.391,16.556c-4.709,32.382-12.531,164.56-12.93,164.538
		c17.854,0.848,35.693,0.168,53.652,0.685c22.316,0.643,37.043-2.539,45.584-0.674c0.127-0.095-8.119-86.909-8-87
		c-2-14-1.873-48.763-8.533-78.936c-2.246-10.178-0.648-4.14,2.787,0.926c10.287-5.899,20.521-7.874,31.533-13.102
		c-2.441-1.971-17.594-49.508-37.959-55.427c-5.732-1.667-18.746-6.723-28.895-8.798C99.892,203.607,92.048,197.28,92.798,192.502z"
		/>
	
		<line style="fill:#2FAAE1;stroke:#000100;stroke-width:2.8347;stroke-linecap:round;stroke-linejoin:round;" x1="133.8" y1="264.031" x2="130.796" y2="254.2"/>
	<path style="fill:#000100;" d="M18.543,55.796c-1.348,2.468-7.546,6.278-5.617,10.018C1.979,73.88,9.805,76.835,9.527,79.308
		c-0.655,3.574-0.977,6.751-1.014,9.171c-0.037,2.421-2.689,8.587-1.924,17.664c0.822,9.759,10.103,8.612,8.065,14.979
		c-4.609,14.403,4.033,14.404,8.642,15.556c-2.55,3.941-2.735,3.316-0.576,8.066c2.88,6.337,6.405,5.631,6.913,6.914
		c1.534,3.868-5.185,1.152-2.304,7.49c1.675,3.682,5.025,4.249,5.74,6.006c2.226,5.462-3.437,8.396,2.323,8.973
		c1.808,0.181,4.342-7.809,5.186-9.794c0.933-2.191-5.111-3.54-5.184-5.761c-0.09-2.801,3.179-4.564,1.151-5.186
		c2.291-1.098-1.247-5.417-2.304-9.794c-1.322-5.474-1.152-16.708-5.761-13.827c8.064-6.913,1.313-10.17,2.305-10.37
		c2.315-4.945,5.185-4.609,4.032-12.675c-0.235-1.647-5.759-0.847-5.186-3.457c0.576-2.61,2.882,3.457,4.033-1.152
		c2.531-16.305,2.89-16.426,1.729-20.741c8.642-2.304,10.355-11.196,6.336-15.555c4.607,5.338,12.488-2.001,15.557-4.609
		c3.097-2.021,3.667,3.26,31.111-12.675c17.859-10.37,36.554-7.132,38.023-3.457c-1.729,8.066,12.1,14.979,16.709,13.827
		c2.217-0.555,3.363,1.334,5.184,3.457c6.913,8.065,9.793-3.457,7.938,11.605c-0.18,1.46,15.419,1.596,4.737,12.592
		c-5.88,6.053,1.639,10.567,2.684,11.354c7.11,5.354,0.355,15.284,0.198,15.724c-2.882,8.065-1.73,17.86,2.881,21.893
		c1.068,0.935,6.914,2.881-1.152,4.609c-2.774,0.594-0.81,12.473,2.304,13.251c2.304,0.576,9.219,8.065,1.153,8.642
		c-5.452,0.39-2.04,13.774-0.577,12.675c0.488-0.366,1.822-3.273,3.457-5.761c3.366-2.697,4.033-19.012-2.88-23.045
		c-2.305-5.761,13.826-4.033,8.642-16.132c-13.253-6.913-0.062-1.759,1.15-4.033c4.609-8.642-1.438-12.519-2.304-13.251
		c1.728-0.576,0.64-1.993,2.882-4.033c6.335-5.761,2.347-8.932,1.151-13.251c-1.192-4.321,4.609-15.555-1.539-21.234
		c0.367-2.571,2.205-12.864-3.439-12.538c1.97-6.207-3.749-7.696-6.426-11.317c-1.24-1.798-1.561-8.74-3-10.795
		c-2.598-3.272-6.465-1.218-9.564-4.029c-3.097-2.81-6.475-8.147-9.936-7.686c-3.02-4.715-4.389-6.315-11.074-6.116
		c0.153-7.467-12.183-10.246-21.738-10.491c-2.019-0.051-2.766-0.059-4.723-0.483c-2.51-0.171-6.696-2.925-9.218-2.881
		c-3.782,0.065-4.861,3.537-8.644,4.033C87.44,12.045,81.196,6.53,79.065,11.48c-2.196-1.718-11.832-1.403-12.561,0.179
		c-2.713,0.28-19.173,5.998-19.047,14.523c1.103-0.735-4.949-3.95-6.892,1.93c-5.114,0.276-9.73,7.158-11.118,7.902
		C18.11,39.312,20.396,52.598,18.543,55.796z"/>
</g>
</svg>
