<?xml version="1.0" encoding="iso-8859-1"?>
<!-- Generator: Adobe Illustrator 16.0.0, SVG Export Plug-In . SVG Version: 6.00 Build 0)  -->
<!DOCTYPE svg PUBLIC "-//W3C//DTD SVG 1.1//EN" "http://www.w3.org/Graphics/SVG/1.1/DTD/svg11.dtd">
<svg version="1.1" id="Layer_1" xmlns="http://www.w3.org/2000/svg" xmlns:xlink="http://www.w3.org/1999/xlink" x="0px" y="0px"
	 width="196px" height="173px" viewBox="0 0 196 173" style="enable-background:new 0 0 196 173;" xml:space="preserve">
<linearGradient id="SVGID_1_" gradientUnits="userSpaceOnUse" x1="7.7412" y1="64.2432" x2="188.2402" y2="64.2432">
	<stop  offset="0.0056" style="stop-color:#B0BFC4;stop-opacity:0.6"/>
	<stop  offset="0.2191" style="stop-color:#EEF0F1;stop-opacity:0.6"/>
	<stop  offset="0.3587" style="stop-color:#F5F7F7;stop-opacity:0.6"/>
	<stop  offset="0.4663" style="stop-color:#FFFFFF;stop-opacity:0.6"/>
	<stop  offset="1" style="stop-color:#D1D4D4;stop-opacity:0.6"/>
</linearGradient>
<path style="opacity:0.4;fill:url(#SVGID_1_);" d="M182.251,74c-13.058,14.302-46.149,22.333-83.501,22.333
	c-43.987,0-80.715-12.517-89.25-27.25c-1.221-2.106-1.5-1.677-1.5-4c0-0.921-0.401-1.131-0.205-2.032
	c3.767-17.296,42.952-30.897,90.736-30.897c41.626,0,76.587,10.263,87.448,24.467C189.584,61.334,189.251,66.333,182.251,74z"/>
<path style="fill:none;stroke:#000000;stroke-miterlimit:3.8637;" d="M183.001,74C169.943,88.302,136.852,96.333,99.5,96.333
	c-43.987,0-80.715-12.517-89.25-27.25c-1.221-2.106-1.5-1.677-1.5-4c0-0.921-0.401-1.131-0.205-2.032
	c3.767-17.296,42.952-30.897,90.736-30.897c41.626,0,76.587,10.263,87.448,24.467C190.334,61.334,190.001,66.333,183.001,74z"/>
<g>
	<path style="fill:#00A960;" d="M116.802,91.314c0,0,8.995-2.266,12.369,7.25c2.716,7.658,4.797,18.179,12.089,26.171
		c8.995,9.854,15.646,6,16.305,15.744v0.396c0,12.48-25.989,22.598-58.052,22.598c-32.062,0-58.051-10.117-58.051-22.598v-0.396
		c0.658-9.744,7.312-5.891,16.306-15.744c7.29-7.992,9.373-18.513,12.088-26.171c3.374-9.516,12.369-7.25,12.369-7.25H116.802z"/>
	<path style="fill:#1D1D1B;" d="M116.802,91.314c2.751-0.562,5.77-0.158,8.136,1.42c1.181,0.781,2.168,1.838,2.922,3.033
		c0.769,1.191,1.275,2.527,1.714,3.865c1.786,5.352,3.263,10.829,5.722,15.918c2.4,5.088,5.874,9.74,10.425,13.069
		c1.135,0.829,2.335,1.564,3.576,2.224c1.24,0.664,2.527,1.237,3.783,1.903c1.245,0.661,2.485,1.503,3.282,2.738
		c0.808,1.222,1.15,2.666,1.327,4.075c0.201,1.428,0.062,2.893-0.378,4.274c-0.45,1.373-1.175,2.642-2.053,3.772
		c-1.768,2.268-4.056,4.045-6.459,5.553c-4.851,2.993-10.227,4.976-15.669,6.525c-10.932,3.047-22.305,4.199-33.616,4.254
		c-11.315,0.006-22.692-1.142-33.644-4.159c-5.452-1.536-10.843-3.505-15.72-6.494c-2.417-1.508-4.726-3.285-6.517-5.573
		c-0.888-1.144-1.622-2.429-2.08-3.824c-0.447-1.406-0.59-2.891-0.385-4.349c0.178-1.423,0.523-2.892,1.353-4.147
		c0.82-1.271,2.092-2.131,3.345-2.795c1.265-0.672,2.549-1.242,3.784-1.903c1.236-0.656,2.428-1.387,3.556-2.211
		c4.521-3.311,7.979-7.936,10.392-12.997c2.467-5.065,3.96-10.533,5.763-15.885c0.817-2.68,2.26-5.357,4.688-6.927
		c2.394-1.579,5.419-1.992,8.192-1.425l-0.016-0.002L116.802,91.314z M116.802,91.314l-34.577,0.066h-0.006l-0.011-0.002
		c-2.729-0.545-5.736-0.139-8.062,1.442c-1.162,0.781-2.13,1.83-2.866,3.018c-0.753,1.187-1.243,2.503-1.674,3.847
		c-1.746,5.354-3.188,10.851-5.626,15.984c-2.385,5.13-5.84,9.862-10.424,13.289c-1.144,0.853-2.357,1.612-3.607,2.291
		c-1.248,0.684-2.54,1.274-3.762,1.939c-1.218,0.661-2.354,1.46-3.067,2.593c-0.728,1.121-1.045,2.482-1.201,3.846
		c-0.178,1.341-0.031,2.735,0.392,4.013c0.436,1.284,1.132,2.48,1.983,3.557c1.71,2.159,3.948,3.885,6.315,5.345
		c4.776,2.904,10.109,4.836,15.511,6.334c5.419,1.478,10.969,2.473,16.554,3.129c5.584,0.67,11.212,0.989,16.84,1.003
		c11.246-0.001,22.543-1.15,33.419-4.037c5.411-1.484,10.759-3.401,15.562-6.303c2.38-1.46,4.639-3.185,6.372-5.365
		c0.861-1.088,1.567-2.302,2.011-3.609c0.431-1.301,0.58-2.715,0.399-4.085c-0.158-1.378-0.479-2.765-1.228-3.919
		c-0.736-1.168-1.904-1.985-3.129-2.65c-1.231-0.67-2.52-1.259-3.763-1.939c-1.244-0.676-2.45-1.431-3.587-2.278
		c-4.555-3.408-7.994-8.112-10.392-13.216c-2.446-5.11-3.903-10.598-5.667-15.951c-0.435-1.342-0.933-2.67-1.694-3.86
		c-0.746-1.194-1.725-2.25-2.898-3.032C122.568,91.18,119.555,90.764,116.802,91.314z"/>
</g>
<g>
	<path style="fill:#008868;" d="M99.417,162.812c-28.795,0-52.765-9.325-57.99-21.657c0.339,14.358,26.166,25.95,57.99,25.95
		c31.826,0,57.653-11.592,57.988-25.95C152.184,153.486,128.212,162.812,99.417,162.812z"/>
	<path style="fill:#1D1D1B;" d="M99.417,162.861c-10.758,0.051-21.578-1.106-31.978-4.031c-5.186-1.481-10.28-3.402-14.988-6.108
		c-2.348-1.355-4.595-2.916-6.6-4.776c-1.996-1.855-3.761-4.043-4.873-6.601l0.936-0.202c0.082,2.738,1.156,5.383,2.79,7.612
		c1.628,2.246,3.743,4.133,6.021,5.76c4.59,3.246,9.84,5.51,15.203,7.255c10.776,3.465,22.164,4.879,33.489,4.935
		c11.325,0.001,22.727-1.35,33.542-4.77c5.379-1.737,10.649-3.992,15.273-7.246c2.296-1.631,4.433-3.525,6.087-5.796
		c1.654-2.253,2.773-4.944,2.844-7.744l0.465,0.101c-1.087,2.519-2.824,4.688-4.8,6.534c-1.984,1.851-4.215,3.408-6.549,4.765
		c-4.68,2.707-9.759,4.635-14.929,6.13C120.983,161.649,110.174,162.859,99.417,162.861z M99.417,162.762
		c10.749-0.037,21.543-1.284,31.875-4.282c5.148-1.527,10.191-3.501,14.813-6.228c2.306-1.366,4.501-2.93,6.438-4.77
		c1.931-1.835,3.608-3.977,4.639-6.423l0.465,0.101c-0.045,2.919-1.212,5.722-2.899,8.043c-1.69,2.343-3.861,4.281-6.186,5.949
		c-4.682,3.324-9.99,5.62-15.405,7.396c-10.885,3.496-22.345,4.904-33.74,4.956c-11.396,0.005-22.869-1.341-33.793-4.793
		c-5.432-1.768-10.761-4.055-15.477-7.387c-2.341-1.672-4.534-3.619-6.252-5.985c-1.709-2.345-2.921-5.193-2.956-8.174l0.936-0.202
		c1.006,2.407,2.657,4.53,4.567,6.355c1.917,1.83,4.097,3.391,6.388,4.757c4.596,2.729,9.622,4.71,14.755,6.251
		C77.886,161.372,88.668,162.672,99.417,162.762z"/>
</g>
<g>
	<path style="fill:#FAF6CF;" d="M51.667,82.666c9.5-5,22.798-8.904,35.666-2.666c11,5.333,19.334,3.833,30.334,3.333
		S130.333,82,141.333,85c15.056,4.106,16.305,5.279,22.667,6c11.983,1.356,21.309-0.788,24,2c3.26,3.378-1.974,12.438-7.999,23.667
		c-3.346,6.235-13.908,17.927-29.01,26.717c-14.337,8.345-32.765,13.975-52.991,13.449c-38.5-1-67.986-19.484-80.75-42.833
		c-3.781-6.917-5.805-12.908-6.267-15.542c-0.791-4.506,2.987-3.04,10.35-7.458C31.511,84.894,42.167,87.666,51.667,82.666z"/>
	<path style="fill:#1D1D1B;" d="M51.644,82.622c3.854-2.047,7.93-3.71,12.175-4.771c4.231-1.091,8.658-1.558,13.041-1.131
		c2.189,0.209,4.36,0.644,6.467,1.298c1.051,0.332,2.093,0.702,3.104,1.146c1.021,0.447,1.976,0.937,2.975,1.349
		c3.975,1.704,8.238,2.666,12.555,2.891c4.321,0.247,8.667-0.125,13.026-0.38l6.537-0.32c2.177-0.112,4.357-0.262,6.561-0.266
		c4.434-0.058,8.771,0.984,12.971,2.135c4.21,1.161,8.4,2.398,12.564,3.708c2.084,0.644,4.156,1.325,6.268,1.81
		c2.11,0.488,4.276,0.736,6.442,0.923c4.339,0.374,8.699,0.309,13.064,0.278c2.179,0.021,4.387-0.035,6.553,0.482
		c0.536,0.138,1.069,0.331,1.553,0.632c0.485,0.302,0.89,0.737,1.159,1.237c0.545,1.021,0.564,2.199,0.436,3.288
		c-0.295,2.202-1.116,4.261-1.973,6.269c-0.876,2.006-1.856,3.96-2.859,5.899l-3.068,5.784c-0.524,0.959-1.005,1.929-1.572,2.881
		c-0.565,0.943-1.182,1.852-1.826,2.738c-2.596,3.535-5.592,6.747-8.765,9.758c-6.369,5.997-13.516,11.182-21.244,15.308
		c-15.454,8.262-33.119,12.328-50.651,11.74c-17.49-0.501-35.023-4.858-50.29-13.571c-7.616-4.351-14.589-9.86-20.459-16.379
		c-2.93-3.261-5.576-6.782-7.838-10.537c-2.257-3.762-4.153-7.716-5.729-11.8c-0.77-2.047-1.489-4.12-1.924-6.278
		c-0.098-0.542-0.173-1.095-0.125-1.662c0.04-0.563,0.28-1.134,0.694-1.531c0.853-0.776,1.943-1.073,2.95-1.471
		c2.056-0.728,4.071-1.559,5.972-2.624c1.863-1.121,3.822-2.144,5.889-2.856c4.131-1.482,8.512-1.976,12.824-2.558
		C43.406,85.464,47.774,84.674,51.644,82.622z M51.69,82.71c-3.884,2.067-8.267,2.866-12.573,3.45
		c-4.314,0.589-8.684,1.089-12.793,2.572c-2.061,0.718-3.993,1.721-5.859,2.86c-1.901,1.083-3.928,1.934-5.979,2.676
		c-1.002,0.398-2.09,0.72-2.863,1.44c-0.784,0.757-0.668,1.951-0.455,2.979c0.463,2.115,1.213,4.171,2.012,6.19
		c1.633,4.029,3.596,7.938,5.867,11.637c2.285,3.693,4.947,7.149,7.887,10.344c5.878,6.401,12.874,11.713,20.41,16.003
		c15.114,8.621,32.486,12.831,49.824,13.439c17.356,0.631,34.868-3.314,50.284-11.366c7.698-4.036,14.857-9.121,21.224-15.054
		c3.171-2.975,6.169-6.154,8.76-9.644c0.644-0.874,1.259-1.769,1.819-2.694c0.557-0.919,1.05-1.903,1.577-2.855l3.092-5.766
		c1.01-1.932,1.996-3.875,2.874-5.865c0.86-1.988,1.681-4.031,1.976-6.167c0.131-1.055,0.107-2.172-0.387-3.102
		c-0.482-0.954-1.479-1.476-2.518-1.717c-2.097-0.49-4.304-0.43-6.474-0.436c-4.357,0.056-8.736,0.146-13.101-0.205
		c-2.179-0.18-4.362-0.401-6.512-0.875c-2.149-0.469-4.235-1.131-6.325-1.752c-4.174-1.263-8.367-2.455-12.58-3.575
		c-4.204-1.112-8.464-2.092-12.791-1.997c-2.161,0.022-4.335,0.19-6.515,0.322l-6.534,0.366c-4.347,0.236-8.726,0.593-13.127,0.323
		c-4.397-0.248-8.771-1.255-12.812-3.01c-1.017-0.425-2.004-0.932-2.976-1.373c-0.983-0.443-1.986-0.841-3.008-1.188
		c-2.044-0.691-4.163-1.17-6.312-1.43c-4.301-0.527-8.697-0.171-12.933,0.814C59.635,79.075,55.557,80.7,51.69,82.71z"/>
</g>
<linearGradient id="SVGID_2_" gradientUnits="userSpaceOnUse" x1="3472.5186" y1="108.6592" x2="3655.3018" y2="108.6592" gradientTransform="matrix(-1 0 0 1 3663.3418 0)">
	<stop  offset="0" style="stop-color:#A8B8C9"/>
	<stop  offset="0.2697" style="stop-color:#EEF0F1"/>
	<stop  offset="0.4329" style="stop-color:#E7E9EB"/>
	<stop  offset="0.6784" style="stop-color:#D2D7DC"/>
	<stop  offset="0.9746" style="stop-color:#B0B8C2"/>
	<stop  offset="0.9775" style="stop-color:#B0B8C2"/>
</linearGradient>
<path style="opacity:0.24;fill:url(#SVGID_2_);" d="M8.096,80.225c0,42.074,40.903,76.183,91.363,76.183
	c50.459,0,91.363-34.108,91.363-76.183c0-4.463-0.604-13.321-1.541-19.317c-4.281,23.426-42.894,35.35-88.989,35.35
	C54.194,96.257,9,81.583,8.657,63.075C7.775,67.328,8.096,75.762,8.096,80.225z"/>
<path style="fill:#E2E1BA;" d="M95.75,82.75c0,0-0.294,5.438,6.5,8.25c7.25,3,10.583,1.584,12.083,2.334
	C117.805,95.069,124,94,126.667,91c5.925-6.665,11-7.333,4.333-7.666L95.75,82.75z"/>
<g>
	<path style="fill:#DBB372;" d="M116.56,90.942c2.377,1.562,5.107,1.867,7.069,1.001l36.361-78.603c0,0-0.7-2.043-4.564-4.172
		c-5.203-2.868-7.021-1.19-7.021-1.19l-35.561,76.866C112.822,86.988,114.177,89.378,116.56,90.942z"/>
	<path style="fill:#894C1F;" d="M137.89,30.714l-5.118,11.054c0.53,4.278,4.82,9.36,9.746,9.34l3.771-8.151
		C141.411,41.47,137.452,35.603,137.89,30.714z M129.341,49.182l-5.111,11.054c1.03,3.831,4.734,9.232,9.743,9.341l3.771-8.151
		C133.07,61.169,129.037,53.222,129.341,49.182z M146.431,12.246L141.316,23.3c0.432,4.354,4.582,8.905,9.746,9.339l3.771-8.15
		C149.857,23.078,145.719,17.154,146.431,12.246z M120.8,67.648l-5.115,11.056c0.035,4.808,4.271,8.404,9.745,9.34l3.771-8.15
		C124.303,78.979,120.08,72.348,120.8,67.648z"/>
	<g>
		<path d="M116.586,90.9c1.038,0.668,2.196,1.144,3.41,1.342c1.207,0.197,2.479,0.112,3.597-0.38l-0.044,0.044
			c2.992-6.568,5.887-13.181,8.83-19.771l4.478-9.856l4.58-9.809l9.296-19.556c3.075-6.529,6.084-13.089,9.06-19.665l-0.009,0.162
			c-0.438-0.949-1.284-1.782-2.143-2.473c-0.879-0.698-1.845-1.279-2.856-1.792c-1-0.501-2.051-0.936-3.13-1.17
			c-0.538-0.115-1.085-0.182-1.617-0.153c-0.512,0.019-1.095,0.169-1.4,0.407l0.078-0.108l-8.759,19.277
			c-2.928,6.422-5.878,12.834-8.864,19.229l-4.466,9.599l-4.541,9.564c-3.058,6.361-6.152,12.706-9.156,19.093l0.009-0.038
			c-0.012,1.221,0.411,2.423,1.068,3.454C114.667,89.336,115.563,90.215,116.586,90.9z M116.533,90.984
			c-1.042-0.681-1.963-1.56-2.647-2.606c-0.682-1.042-1.133-2.267-1.136-3.534v-0.02l0.009-0.019
			c2.923-6.425,5.755-12.891,8.624-19.34l4.35-9.652l4.424-9.618c2.94-6.416,5.917-12.815,8.916-19.204l9.021-19.156l0.036-0.077
			l0.042-0.031c0.618-0.454,1.22-0.518,1.837-0.558c0.611-0.021,1.207,0.064,1.783,0.198c1.153,0.273,2.225,0.741,3.257,1.281
			c1.017,0.537,2.01,1.159,2.908,1.9c0.887,0.758,1.734,1.574,2.24,2.721l0.032,0.075l-0.041,0.088
			c-3.085,6.524-6.136,13.065-9.121,19.637l-8.885,19.745l-4.51,9.842l-4.613,9.794c-3.117,6.51-6.282,12.998-9.351,19.53
			l-0.015,0.031l-0.03,0.013c-1.163,0.497-2.465,0.566-3.691,0.354C118.742,92.165,117.568,91.667,116.533,90.984z"/>
	</g>
</g>
<path style="fill:#EDEDC3;" d="M63.795,80.464C66.798,80.027,75.167,77,77.834,85c1.697,5.093,31.416,9,31.416,9S94,110,78.3,93.734
	c-6.289-6.516-13.392-16.155-16.785-10.901s-12.131,2.465-12.131,2.465s5.755,0.078,8.466-2.905
	C60.562,79.41,62.249,80.688,63.795,80.464z"/>
<path style="fill:#EDEDC3;" d="M125.167,99.833c9.632,0.584,4.5,1,12-6s24-1.5,23-0.75s-10.333,0.75-15,5.084
	c-2.229,2.069,4.333,6.083,4.333,6.083s-12.833-1.417-20.333-2.417s-11.25,0.75-13,1.5S116.917,99.333,125.167,99.833z"/>
<path style="fill:#EDEDC3;" d="M180,115c9.75-32-29.75-16.25-29.75-16.25S180.821,111.173,174,115s-41.574-6.781-52.5,13.25
	c-0.628,1.151,12.466-5.369,18-2c7.684,4.678-8.796,21.63-3.75,22c8.682,0.638,29.963-15.734,34.25-20.5
	C176.999,119.971,180,115,180,115z"/>
<path style="fill:#EDEDC3;" d="M17.75,95.667c0,0,13.001-5.667,21.334,1S55.334,130.167,64,128.5
	c3.401-0.654,10.736-6.144,5.75-12.75c-5.502-7.289,1.68,0.047,12.5,0.5c11.066,0.464,12.361,2.386,14,3
	c1.838,0.689-27.764,5.727-14.75,11.75c22.109,10.233-8.25,18.75,16.75,14.25c23.988-4.317,25-19.5,25-19.5s40.25-11.25,20.5,18.25
	c-3.286,4.908-21.5,9.5-21.5,9.5s-31,9.5-68-8c-16.845-7.967-36.833-40.5-39.166-43.833C12.75,98.334,17.75,95.667,17.75,95.667z"/>
<g>
	<g>
		<path style="fill:#D40042;" d="M96.314,64.173c1.392-2.655,3.605-7.021,10.265-6.193c6.659,0.826,15.732,6.899,18.662,10.38
			c2.93,3.479,5.19,8.666-0.685,14.953c-5.874,6.287-14.884,10.982-22.771,6.448c-7.889-4.532-8.379-13.256-8.225-16.162
			C93.812,68.861,95.176,66.347,96.314,64.173z"/>
		<g>
			<path d="M96.281,64.155c0.971-1.963,2.172-3.94,4.086-5.157c1.894-1.245,4.278-1.492,6.487-1.216
				c2.234,0.264,4.362,1.028,6.403,1.91c2.045,0.89,3.973,2.017,5.836,3.227c1.846,1.237,3.619,2.593,5.213,4.154
				c0.8,0.782,1.508,1.658,2.119,2.589c0.614,0.93,1.138,1.93,1.478,2.998c0.704,2.132,0.541,4.515-0.376,6.555
				c-0.901,2.054-2.354,3.807-3.925,5.364c-3.147,3.104-6.938,5.757-11.332,6.874c-2.183,0.551-4.507,0.663-6.734,0.183
				c-2.237-0.465-4.293-1.57-6.054-2.977c-1.762-1.42-3.226-3.221-4.215-5.251c-0.997-2.024-1.597-4.225-1.814-6.448
				C93.001,72.502,94.033,67.969,96.281,64.155z M96.348,64.19c-1.037,1.945-1.926,3.989-2.29,6.166
				c-0.375,2.167-0.453,4.384-0.117,6.543c0.618,4.307,2.616,8.471,6.025,11.156c1.687,1.345,3.646,2.351,5.737,2.817
				c2.094,0.476,4.298,0.399,6.4-0.105c4.223-1.028,8.035-3.478,11.213-6.482c1.587-1.507,3.082-3.166,3.97-5.177
				c0.917-1.979,1.103-4.302,0.37-6.368c-0.699-2.068-2.049-3.89-3.639-5.366c-1.611-1.481-3.412-2.758-5.263-3.935
				c-1.844-1.19-3.78-2.232-5.765-3.155c-1.987-0.909-4.057-1.668-6.204-2.036c-2.125-0.357-4.424-0.218-6.316,0.916
				C98.558,60.285,97.353,62.25,96.348,64.19z"/>
		</g>
	</g>
	<path style="fill:#8F0000;" d="M118.656,67.79c0.328,0.554,0.42,1.036,0.227,1.382c-0.571,0.998-3.365,0.456-6.239-1.209
		c-2.094-1.206-3.649-2.675-4.125-3.77c-0.54,1.205,1.564,3.74,4.821,5.764c3.35,2.08,6.649,2.828,7.369,1.671
		C121.208,70.829,120.342,69.33,118.656,67.79z"/>
	<path style="fill:#F183A1;" d="M111.866,73.205c-5.407-3.435-8.469-8.299-6.837-10.864c0.093-0.151,0.207-0.286,0.331-0.417
		c-1.775,0.176-3.104,0.821-3.657,1.964c-1.325,2.735,2.273,7.22,8.037,10.01c3.114,1.512,6.216,2.212,8.625,2.11
		C116.346,75.557,114.084,74.616,111.866,73.205z"/>
	<path style="fill:#380600;" d="M114.36,66.514c0,0,6.668-10.409,8.649-12.258c2.637-2.458,6.663-4.615,6.504-1.879
		c-0.079,1.397-3.935,1.33-6.592,4.426c-3.86,4.496-3.809,5.031-7.027,9.638C114.548,68.367,114.36,66.514,114.36,66.514z"/>
</g>
<path style="fill:#EDEDC3;" d="M102.5,111c3.169,0.353,10.75-3.25,12.75,0.25S112,121,110,124.5s6.25-9.5-0.75-9.75
	s-14.25-8-14.25-8S100.358,110.762,102.5,111z"/>
<linearGradient id="SVGID_3_" gradientUnits="userSpaceOnUse" x1="3472.5186" y1="109.7432" x2="3655.3018" y2="109.7432" gradientTransform="matrix(-1 0 0 1 3663.3418 0)">
	<stop  offset="0" style="stop-color:#A8B8C9"/>
	<stop  offset="0.2697" style="stop-color:#EEF0F1"/>
	<stop  offset="0.4329" style="stop-color:#E7E9EB"/>
	<stop  offset="0.6784" style="stop-color:#D2D7DC"/>
	<stop  offset="0.9746" style="stop-color:#B0B8C2"/>
	<stop  offset="0.9775" style="stop-color:#B0B8C2"/>
</linearGradient>
<path style="opacity:0.2;fill:url(#SVGID_3_);" d="M8.096,80.225c0,42.074,40.903,76.183,91.363,76.183
	c50.459,0,91.363-34.108,91.363-76.183c0-4.463-0.885-9.562-1.821-15.558c-6,18-42.613,31.59-88.709,31.59
	c-46.098,0-89.763-13.876-91.635-33.182C7.775,67.328,8.096,75.762,8.096,80.225z"/>
<path style="opacity:0.57;fill:#FFFFFF;" d="M12.278,71.489c0.016,1.373,0.026,2.651,0.026,3.753
	c0.006,10.903,2.484,21.275,7.008,30.771c6.778,14.233,18.193,26.489,32.688,35.182c14.493,8.69,32.04,13.805,50.971,13.803
	c3.177,0,6.313-0.144,9.401-0.423c-15.384-1.377-29.612-6.125-41.713-13.38c-14.495-8.692-25.911-20.948-32.69-35.182
	c-3.396-7.138-5.644-14.771-6.551-22.753c-6.357-2.587-11.865-5.608-16.27-9.166C14.123,73.262,13.181,72.388,12.278,71.489z"/>
<path style="opacity:0.38;fill:#FFFFFF;" d="M19.385,77.974c0.038,6.703,0.938,13.59,2.809,20.466
	c1.066,3.913,2.407,7.649,3.974,11.209l32.962,9.014c-2.322-4.61-4.24-9.566-5.672-14.829c-1.279-4.687-2.098-9.379-2.507-14.014
	C37.997,87.011,27.006,83.007,19.385,77.974z M61.62,123.181l-33.337-9.115c12.573,24.257,36.438,38.52,59.953,34.834
	C77.7,143.479,68.373,134.582,61.62,123.181z"/>
<path style="opacity:0.36;fill:#FFFFFF;" d="M157.045,130.772c-15.158,12.82-36.039,21.018-59.242,21.638
	c1.172,0.041,2.348,0.062,3.531,0.062c24.34,0.006,46.307-8.355,62.083-21.699c7.888-6.67,14.232-14.578,18.59-23.295
	c4.36-8.721,6.753-18.246,6.753-28.261c0.004-2.218-0.797-7.688-0.76-10.884c-1.887,1.771-3.136,5.935-5.56,7.6
	c-0.028,1.209-0.051,2.326-0.051,3.284c-0.002,10.015-2.395,19.54-6.757,28.261C171.274,116.194,164.936,124.103,157.045,130.772z"
	/>
<path style="fill:none;stroke:#1D1D1B;stroke-miterlimit:3.8637;" d="M8.096,80.225c0,42.074,39.195,75.868,91.154,76.275
	c50.457,0.396,91.572-34.201,91.572-76.275c0-4.463-0.604-13.321-1.541-19.317c-2.947,23.427-42.894,35.35-88.989,35.35
	c-46.098,0-89.763-13.876-91.635-33.182C7.775,67.328,8.096,75.762,8.096,80.225z"/>
</svg>
