<?xml version="1.0" encoding="iso-8859-1"?>
<!-- Generator: Adobe Illustrator 16.0.0, SVG Export Plug-In . SVG Version: 6.00 Build 0)  -->
<!DOCTYPE svg PUBLIC "-//W3C//DTD SVG 1.1//EN" "http://www.w3.org/Graphics/SVG/1.1/DTD/svg11.dtd">
<svg version="1.1" id="Layer_1" xmlns="http://www.w3.org/2000/svg" xmlns:xlink="http://www.w3.org/1999/xlink" x="0px" y="0px"
	 width="197px" height="191px" viewBox="0 0 197 191" style="enable-background:new 0 0 197 191;" xml:space="preserve">
<linearGradient id="SVGID_1_" gradientUnits="userSpaceOnUse" x1="7.3237" y1="81.4102" x2="187.8232" y2="81.4102">
	<stop  offset="0.0056" style="stop-color:#B0BFC4;stop-opacity:0.6"/>
	<stop  offset="0.2191" style="stop-color:#EEF0F1;stop-opacity:0.6"/>
	<stop  offset="0.3587" style="stop-color:#F5F7F7;stop-opacity:0.6"/>
	<stop  offset="0.4663" style="stop-color:#FFFFFF;stop-opacity:0.6"/>
	<stop  offset="1" style="stop-color:#D1D4D4;stop-opacity:0.6"/>
</linearGradient>
<path style="opacity:0.2;fill:url(#SVGID_1_);" d="M181.834,91.167c-13.058,14.302-46.149,22.333-83.501,22.333
	c-43.987,0-80.715-12.517-89.25-27.25c-1.221-2.106-1.5-1.677-1.5-4c0-0.921-0.401-1.131-0.205-2.032
	C11.145,62.922,50.33,49.32,98.114,49.32c41.626,0,76.587,10.263,87.448,24.467C189.167,78.501,188.834,83.5,181.834,91.167z"/>
<path style="fill:none;stroke:#000000;stroke-miterlimit:3.8637;" d="M182.334,91c-13.058,14.302-46.149,22.333-83.501,22.333
	c-43.987,0-80.715-12.517-89.25-27.25c-1.221-2.106-1.5-1.677-1.5-4c0-0.921-0.401-1.131-0.205-2.032
	c3.767-17.296,42.952-30.897,90.736-30.897c41.626,0,76.587,10.263,87.448,24.467C189.667,78.334,189.334,83.333,182.334,91z"/>
<g>
	<path style="fill:#DBB372;" d="M55.964,97.695c2.763,0.679,5.438,0.053,6.998-1.419l8.001-86.235c0,0-1.343-1.691-5.696-2.407
		c-5.862-0.963-7.016,1.225-7.016,1.225L50.425,93.19C51.12,95.218,53.195,97.018,55.964,97.695z"/>
	<path style="fill:#894C1F;" d="M55.939,33.802l-1.13,12.129c1.93,3.854,7.672,7.211,12.308,5.545l0.83-8.943
		C62.853,42.762,57.161,38.556,55.939,33.802z M54.054,54.064L52.931,66.19c2.251,3.267,7.548,7.12,12.305,5.548l0.83-8.943
		C61.575,64.116,55.118,57.974,54.054,54.064z M57.817,13.541l-1.126,12.128c1.862,3.959,7.295,6.861,12.307,5.544l0.83-8.941
		C64.667,22.605,58.786,18.405,57.817,13.541z M52.176,74.324L51.05,86.453c1.64,4.52,6.833,6.494,12.306,5.546l0.831-8.942
		C59.265,83.833,53.067,78.993,52.176,74.324z"/>
	<g>
		<path d="M55.975,97.646c1.202,0.283,2.452,0.344,3.663,0.125c1.203-0.217,2.374-0.722,3.264-1.56l-0.027,0.057
			c0.625-7.19,1.144-14.391,1.714-21.586l0.927-10.786l1.038-10.775l2.226-21.538c0.717-7.182,1.36-14.37,1.967-21.562l0.047,0.156
			c-0.731-0.749-1.807-1.25-2.846-1.615c-1.062-0.364-2.167-0.588-3.292-0.734c-1.11-0.138-2.246-0.196-3.34-0.056
			c-0.546,0.071-1.084,0.192-1.576,0.396c-0.476,0.188-0.976,0.524-1.185,0.851l0.038-0.128l-1.812,21.096
			c-0.612,7.031-1.251,14.06-1.929,21.085L53.85,61.611l-1.083,10.532c-0.756,7.018-1.552,14.032-2.248,21.056l-0.005-0.039
			c0.396,1.154,1.197,2.146,2.161,2.898C53.643,96.814,54.782,97.342,55.975,97.646z M55.953,97.744
			c-1.209-0.294-2.371-0.813-3.366-1.571c-0.99-0.755-1.825-1.759-2.251-2.952l-0.006-0.018l0.001-0.021
			c0.608-7.031,1.116-14.072,1.665-21.109l0.873-10.552l0.956-10.543c0.627-7.03,1.293-14.057,1.984-21.08l2.101-21.07l0.008-0.084
			l0.03-0.044c0.43-0.634,0.977-0.896,1.544-1.139c0.569-0.224,1.16-0.343,1.747-0.41c1.18-0.128,2.345-0.045,3.498,0.119
			c1.138,0.167,2.281,0.421,3.376,0.82c1.089,0.418,2.16,0.903,3.021,1.816l0.057,0.06l-0.01,0.097
			c-0.728,7.181-1.417,14.364-2.034,21.556l-1.774,21.579L66.41,63.979l-1.074,10.772c-0.763,7.178-1.577,14.351-2.286,21.532
			l-0.003,0.034l-0.024,0.022c-0.931,0.857-2.135,1.358-3.361,1.567C58.43,98.118,57.156,98.041,55.953,97.744z"/>
	</g>
</g>
<g>
	<path style="fill:#EA4E60;" d="M116.135,108.314c0,0,8.995-2.266,12.369,7.25c2.716,7.658,4.797,18.179,12.089,26.171
		c8.995,9.854,15.646,6,16.305,15.744v0.396c0,12.48-25.989,22.598-58.052,22.598c-32.062,0-58.051-10.117-58.051-22.598v-0.396
		c0.658-9.744,7.312-5.891,16.306-15.744c7.29-7.992,9.373-18.513,12.088-26.171c3.374-9.516,12.369-7.25,12.369-7.25H116.135z"/>
	<path style="fill:#1D1D1B;" d="M116.135,108.314c2.751-0.562,5.77-0.158,8.136,1.42c1.181,0.781,2.168,1.838,2.922,3.033
		c0.769,1.191,1.275,2.527,1.714,3.865c1.786,5.352,3.263,10.829,5.722,15.918c2.4,5.088,5.874,9.74,10.425,13.069
		c1.135,0.829,2.335,1.564,3.576,2.224c1.24,0.664,2.527,1.237,3.783,1.903c1.245,0.661,2.485,1.503,3.282,2.738
		c0.808,1.222,1.15,2.666,1.327,4.075c0.201,1.428,0.062,2.893-0.378,4.274c-0.45,1.373-1.175,2.642-2.053,3.772
		c-1.768,2.268-4.056,4.045-6.459,5.553c-4.851,2.993-10.227,4.976-15.669,6.525c-10.932,3.047-22.305,4.199-33.616,4.254
		c-11.315,0.006-22.692-1.142-33.644-4.159c-5.452-1.536-10.843-3.505-15.72-6.494c-2.417-1.508-4.726-3.285-6.517-5.573
		c-0.888-1.144-1.622-2.429-2.08-3.824c-0.447-1.406-0.59-2.891-0.385-4.349c0.178-1.423,0.523-2.892,1.353-4.147
		c0.82-1.271,2.092-2.131,3.345-2.795c1.265-0.672,2.549-1.242,3.784-1.903c1.236-0.656,2.428-1.387,3.556-2.211
		c4.521-3.311,7.979-7.936,10.392-12.997c2.467-5.065,3.96-10.533,5.763-15.884c0.817-2.681,2.26-5.358,4.688-6.928
		c2.394-1.579,5.419-1.992,8.192-1.425l-0.016-0.002L116.135,108.314z M116.135,108.314l-34.577,0.066h-0.006l-0.011-0.002
		c-2.729-0.545-5.736-0.139-8.062,1.442c-1.162,0.781-2.13,1.83-2.866,3.018c-0.753,1.187-1.243,2.503-1.674,3.847
		c-1.746,5.354-3.188,10.851-5.626,15.984c-2.385,5.13-5.84,9.862-10.424,13.289c-1.144,0.853-2.357,1.612-3.607,2.291
		c-1.248,0.685-2.54,1.274-3.762,1.939c-1.218,0.661-2.354,1.46-3.067,2.593c-0.728,1.121-1.045,2.482-1.201,3.846
		c-0.178,1.341-0.031,2.735,0.392,4.013c0.436,1.284,1.132,2.48,1.983,3.557c1.71,2.159,3.948,3.885,6.315,5.345
		c4.776,2.904,10.109,4.836,15.511,6.334c5.419,1.478,10.969,2.473,16.554,3.129c5.584,0.67,11.212,0.989,16.84,1.003
		c11.246-0.001,22.543-1.15,33.419-4.037c5.411-1.484,10.759-3.401,15.562-6.303c2.38-1.46,4.639-3.185,6.372-5.365
		c0.861-1.088,1.567-2.302,2.011-3.609c0.431-1.301,0.58-2.715,0.399-4.085c-0.158-1.378-0.479-2.764-1.228-3.92
		c-0.736-1.167-1.904-1.984-3.129-2.649c-1.231-0.67-2.52-1.259-3.763-1.939c-1.244-0.676-2.45-1.431-3.587-2.278
		c-4.555-3.408-7.994-8.112-10.392-13.216c-2.446-5.11-3.903-10.598-5.667-15.952c-0.435-1.341-0.933-2.669-1.694-3.859
		c-0.746-1.194-1.725-2.25-2.898-3.032C121.901,108.18,118.888,107.764,116.135,108.314z"/>
</g>
<g>
	<path style="fill:#E72D71;" d="M98.75,179.812c-28.795,0-52.765-9.325-57.99-21.657c0.339,14.358,26.166,25.95,57.99,25.95
		c31.826,0,57.653-11.592,57.988-25.95C151.517,170.486,127.545,179.812,98.75,179.812z"/>
	<path style="fill:#1D1D1B;" d="M98.75,179.861c-10.758,0.051-21.578-1.106-31.978-4.031c-5.186-1.481-10.28-3.402-14.988-6.108
		c-2.348-1.355-4.595-2.916-6.6-4.776c-1.996-1.855-3.761-4.043-4.873-6.601l0.936-0.202c0.082,2.738,1.156,5.383,2.79,7.612
		c1.628,2.246,3.743,4.133,6.021,5.76c4.59,3.246,9.84,5.51,15.203,7.255c10.776,3.465,22.164,4.878,33.489,4.935
		c11.325,0.001,22.727-1.35,33.542-4.77c5.379-1.737,10.649-3.992,15.273-7.246c2.296-1.631,4.433-3.525,6.087-5.796
		c1.654-2.253,2.773-4.944,2.844-7.744l0.465,0.101c-1.087,2.519-2.824,4.688-4.8,6.534c-1.984,1.851-4.215,3.408-6.549,4.765
		c-4.68,2.707-9.759,4.635-14.929,6.131C120.316,178.649,109.507,179.859,98.75,179.861z M98.75,179.762
		c10.749-0.037,21.543-1.284,31.875-4.282c5.148-1.527,10.191-3.501,14.813-6.228c2.306-1.366,4.501-2.93,6.438-4.77
		c1.931-1.835,3.608-3.977,4.639-6.423l0.465,0.101c-0.045,2.919-1.212,5.722-2.899,8.043c-1.69,2.343-3.861,4.281-6.186,5.949
		c-4.682,3.324-9.99,5.62-15.405,7.396c-10.885,3.496-22.345,4.903-33.74,4.956c-11.396,0.005-22.869-1.341-33.793-4.793
		c-5.432-1.768-10.761-4.055-15.477-7.387c-2.341-1.672-4.534-3.619-6.252-5.985c-1.709-2.345-2.921-5.193-2.956-8.174l0.936-0.202
		c1.006,2.407,2.657,4.53,4.567,6.355c1.917,1.83,4.097,3.391,6.388,4.757c4.596,2.729,9.622,4.71,14.755,6.251
		C77.219,178.372,88.001,179.672,98.75,179.762z"/>
</g>
<linearGradient id="SVGID_2_" gradientUnits="userSpaceOnUse" x1="3339.1855" y1="125.6592" x2="3521.9688" y2="125.6592" gradientTransform="matrix(-1 0 0 1 3529.3418 0)">
	<stop  offset="0" style="stop-color:#A8B8C9"/>
	<stop  offset="0.2697" style="stop-color:#EEF0F1"/>
	<stop  offset="0.4329" style="stop-color:#E7E9EB"/>
	<stop  offset="0.6784" style="stop-color:#D2D7DC"/>
	<stop  offset="0.9746" style="stop-color:#B0B8C2"/>
	<stop  offset="0.9775" style="stop-color:#B0B8C2"/>
</linearGradient>
<path style="opacity:0.24;fill:url(#SVGID_2_);" d="M7.429,97.225c0,42.074,40.903,76.183,91.363,76.183
	c50.459,0,91.363-34.108,91.363-76.183c0-4.463-0.604-13.321-1.541-19.317c-4.281,23.426-42.894,35.35-88.989,35.35
	c-46.098,0-91.292-14.674-91.635-33.182C7.108,84.328,7.429,92.762,7.429,97.225z"/>
<g>
	<path style="fill:#FAF6CF;" d="M16,83c3.572-2.369,5.834-2.666,15.334-7.666s34.5-23.167,46-14.667
		C80.475,62.988,101,58.834,112,58.334s28.209,6.712,32.667,8.333c14.666,5.333,18.804,21.445,25.166,22.166
		c26.5,3,20.501,24.334,9.501,44.834c-6.521,12.154-40.467,41.245-82.001,40.166c-38.5-1-65.833-17.999-79.333-41.499
		s-10.666-35.5-7.666-42C12.044,86.629,14.069,84.28,16,83z"/>
	<path style="fill:#1D1D1B;" d="M15.973,82.958c2.036-1.387,4.318-2.341,6.539-3.365c2.229-1.019,4.433-2.091,6.611-3.213
		c4.392-2.179,8.487-4.891,12.721-7.368c4.222-2.496,8.514-4.898,13.004-6.912c4.484-1.969,9.197-3.704,14.19-3.961
		c2.475-0.103,5.056,0.256,7.293,1.479c0.273,0.159,0.553,0.311,0.812,0.492c0.268,0.178,0.529,0.383,0.726,0.452
		c0.497,0.21,1.096,0.3,1.684,0.36c1.188,0.112,2.408,0.087,3.622,0.036c4.868-0.256,9.729-0.953,14.59-1.566
		c4.867-0.604,9.725-1.323,14.667-1.515c5.008-0.062,9.863,1.035,14.606,2.315c4.744,1.316,9.384,2.955,13.968,4.71l3.432,1.317
		c1.148,0.415,2.312,0.906,3.407,1.477c2.207,1.137,4.248,2.578,6.095,4.222c3.726,3.28,6.598,7.339,9.515,11.254
		c0.739,0.973,1.491,1.937,2.312,2.827c0.822,0.883,1.72,1.722,2.785,2.23c0.54,0.263,1.082,0.378,1.704,0.437
		c0.609,0.076,1.223,0.162,1.829,0.265c1.215,0.202,2.423,0.459,3.612,0.787c2.375,0.653,4.7,1.595,6.746,3.003
		c2.048,1.394,3.766,3.308,4.826,5.556c1.079,2.244,1.514,4.739,1.557,7.199c0.044,2.47-0.291,4.929-0.821,7.33
		c-1.078,4.809-2.891,9.409-4.938,13.867c-1.03,2.229-2.132,4.425-3.28,6.594c-1.125,2.204-2.62,4.194-4.196,6.078
		c-3.183,3.761-6.796,7.125-10.591,10.246c-3.803,3.116-7.816,5.972-11.992,8.569c-8.352,5.187-17.359,9.353-26.795,12.188
		c-9.438,2.81-19.314,4.229-29.178,3.942c-9.827-0.274-19.663-1.601-29.146-4.291c-9.47-2.687-18.61-6.72-26.759-12.293
		c-8.13-5.581-15.246-12.661-20.689-20.874c-1.361-2.051-2.606-4.182-3.776-6.339c-1.174-2.158-2.286-4.351-3.311-6.585
		c-2.042-4.467-3.764-9.107-4.776-13.928c-1.01-4.801-1.276-9.847-0.107-14.649c0.579-2.395,1.511-4.698,2.708-6.844
		C12.389,86.36,13.911,84.334,15.973,82.958z M16.027,83.042c-2.028,1.38-3.52,3.404-4.703,5.527
		c-1.169,2.146-2.078,4.436-2.632,6.814c-1.121,4.77-0.818,9.766,0.222,14.524c1.043,4.777,2.791,9.378,4.857,13.806
		c1.037,2.215,2.161,4.39,3.352,6.525c1.187,2.144,2.447,4.232,3.822,6.252c5.497,8.079,12.625,14.996,20.727,20.414
		c8.083,5.458,17.091,9.503,26.48,12.163c18.771,5.134,39.062,6.169,57.806,0.425c9.376-2.735,18.357-6.801,26.704-11.892
		c4.172-2.55,8.19-5.356,11.994-8.431c3.792-3.083,7.405-6.411,10.583-10.122c3.3-3.634,5.343-8.138,7.473-12.54
		c2.059-4.435,3.88-9.008,4.968-13.775c0.535-2.381,0.876-4.814,0.842-7.252c-0.037-2.431-0.491-4.877-1.551-7.061
		c-1.048-2.189-2.727-4.043-4.736-5.396c-2.007-1.367-4.298-2.283-6.645-2.917c-1.176-0.317-2.371-0.565-3.574-0.76
		c-0.604-0.099-1.205-0.18-1.812-0.253c-0.597-0.05-1.273-0.183-1.84-0.462c-1.161-0.547-2.093-1.417-2.942-2.312
		c-0.848-0.906-1.612-1.873-2.363-2.847c-2.958-3.91-5.833-7.904-9.52-11.102c-1.827-1.601-3.832-2.998-5.993-4.092
		c-1.084-0.554-2.187-1.013-3.346-1.424l-3.443-1.297c-4.583-1.723-9.212-3.325-13.928-4.602c-4.705-1.244-9.541-2.29-14.366-2.197
		c-4.859,0.232-9.73,0.864-14.594,1.456C93,60.8,88.136,61.47,83.205,61.698c-1.234,0.044-2.473,0.063-3.727-0.062
		c-0.626-0.071-1.259-0.158-1.895-0.428c-0.374-0.164-0.588-0.359-0.831-0.519c-0.241-0.173-0.502-0.315-0.755-0.468
		c-2.081-1.163-4.535-1.538-6.938-1.46c-4.849,0.201-9.546,1.867-14.016,3.785C50.561,64.5,46.247,66.837,42,69.279l-6.347,3.715
		c-2.105,1.256-4.254,2.453-6.45,3.545c-2.187,1.111-4.399,2.174-6.635,3.181C20.339,80.734,18.062,81.671,16.027,83.042z"/>
</g>
<path style="opacity:0.76;fill:#E2E1B5;" d="M50.062,90.803c0,0-4.932,2.857-1.062,4.531c6.024,2.605,16.08-0.579,16.313-2.887
	C66,85.667,84.16,98.948,87,74.334c1-8.667-26,3-26,3L50.062,90.803z"/>
<path style="opacity:0.78;fill:#EDEDC3;" d="M115.334,59.334c-6.333-0.334-17.896,5.877-15,11c4.333,7.666-7.167,5.333-9.667,7.333
	s11.917,2.917,14.167,0.417s1.75-8.75,7.5-11.75S135.667,64,135.667,64S118.832,59.519,115.334,59.334z"/>
<path style="opacity:0.78;fill:#EDEDC3;" d="M160.5,86.25c-1.724,2.151-3,7.75-9.25,8.25s-15.636,1.031-19.583-3.5
	c-9-10.333-31.667-1-41.333,1.667c-7.58,2.092,29.999-7.334,30.666,0c0.509,5.595,10.334,15,26.25,6.833
	c5.493-2.819,16.5-10.5,20-8.75S171,90,171,90s-5-2-6.5-3.75S161.047,85.567,160.5,86.25z"/>
<path style="opacity:0.78;fill:#EDEDC3;" d="M73.295,95.464C76.298,95.027,84.667,92,87.334,100c1.697,5.093,20.666,1,20.666,1
	s-13.417,13.733-20.2,7.734S74.408,92.579,71.015,97.833s-12.131,2.465-12.131,2.465s5.755,0.078,8.466-2.905
	C70.062,94.41,71.749,95.688,73.295,95.464z"/>
<path style="fill:#EDEDC3;" d="M104.667,147.333c9.632,0.584,4.5,1,12-6s24-1.5,23-0.75s-10.333,0.75-15,5.084
	c-2.229,2.069-1.75,8.666-1.75,8.666s-6.75-4-14.25-5s-11.25,0.75-13,1.5S96.417,146.833,104.667,147.333z"/>
<path style="fill:#EDEDC3;" d="M166.332,119.336c-4,1.667,7.335-15.336-15.665-6.335C141.438,116.612,122.001,145.998,122,152
	c-0.001,7.922,20.667,2.667,29,5c4.11,1.15,23-16,27-22c8.784-13.176,10.334-28.333,10.334-28.333s-9.206,1.077-11.001,4.668
	C172.667,120.668,166.332,119.336,166.332,119.336z"/>
<path style="opacity:0.78;fill:#EDEDC3;" d="M23.667,87.334C25,85.667,38,80.667,38,80.667s-12,6-8.333,8s8-2.333,7.333,3
	s-2.666-1.666-7.333-1.333s-8,3.334-8.333,0S23.667,87.334,23.667,87.334z"/>
<path style="fill:#EDEDC3;" d="M16.667,113.334c0,0,8.667-0.334,21.667-0.668c3.299-0.085,10,5.001,6,10.334
	s-1.667,5.001,1.666,7.334s12.334,0.333,12.667,1.333s-24.333,5-23-2.667s6.999-12.334,2.333-10.667S16.667,113.334,16.667,113.334z
	"/>
<path style="fill:#EDEDC3;" d="M34,141.667c0,0,13.001-5.667,21.334,1s18.334,11.334,27,9.667s16.332-0.667,21.666,1.333
	s16,4.999,17.667,5.333s18-5,18-5s-24.333,15.001-42,8.334s-35.333-12.666-37-7s48,13,48,13s-18.333,7.999-35-0.334
	s-40-17-42.333-20.333S34,141.667,34,141.667z"/>
<g>
	<g>
		<path style="fill:#D40042;" d="M53.949,65.054c0.323-2.979,0.786-7.853,7.286-9.52s17.166,0.666,21.166,2.833
			s8.001,6.167,4.834,14.167S77.401,88.2,68.401,86.867s-12.647-9.272-13.567-12.033C53.334,70.334,53.685,67.494,53.949,65.054z"/>
		<g>
			<path d="M53.912,65.05c0.185-2.182,0.58-4.462,1.915-6.295c1.308-1.852,3.436-2.955,5.593-3.505
				c2.176-0.572,4.437-0.64,6.657-0.565c2.229,0.081,4.436,0.424,6.612,0.868c2.171,0.477,4.316,1.089,6.372,1.959
				c1.029,0.436,2.01,0.992,2.919,1.635c0.912,0.641,1.765,1.38,2.472,2.25c1.436,1.727,2.155,4.003,2.049,6.237
				c-0.088,2.241-0.797,4.404-1.69,6.429c-1.794,4.04-4.352,7.896-8.032,10.543c-1.829,1.311-3.951,2.266-6.2,2.635
				c-2.265,0.383-4.549,0.114-6.723-0.557c-2.156-0.682-4.18-1.818-5.842-3.346c-1.671-1.519-3.031-3.35-4.049-5.338
				C53.911,74.018,53.214,69.42,53.912,65.05z M53.986,65.058c-0.254,2.19-0.334,4.418,0.124,6.576
				c0.443,2.154,1.182,4.246,2.286,6.132c2.15,3.783,5.536,6.921,9.688,8.18c2.04,0.632,4.265,0.856,6.37,0.522
				c2.122-0.322,4.146-1.2,5.918-2.439c3.554-2.502,6.206-6.177,8.063-10.135c0.927-1.982,1.71-4.074,1.801-6.271
				c0.13-2.178-0.548-4.406-1.985-6.062c-1.407-1.67-3.33-2.871-5.35-3.663c-2.042-0.79-4.185-1.319-6.337-1.736
				c-2.151-0.434-4.335-0.695-6.52-0.828c-2.183-0.119-4.386-0.068-6.519,0.374c-2.109,0.444-4.197,1.417-5.543,3.164
				C54.613,60.614,54.211,62.885,53.986,65.058z"/>
		</g>
	</g>
	<path style="fill:#8F0000;" d="M76.064,60.247c0.509,0.396,0.771,0.811,0.716,1.203c-0.166,1.138-2.964,1.655-6.248,1.158
		c-2.39-0.357-4.374-1.155-5.219-2c-0.061,1.319,2.825,2.908,6.596,3.6c3.88,0.711,7.224,0.2,7.471-1.141
		C79.552,62.142,78.197,61.062,76.064,60.247z"/>
	<path style="fill:#F183A1;" d="M71.727,67.771c-6.289-1.219-10.918-4.625-10.338-7.609c0.031-0.176,0.088-0.343,0.156-0.51
		c-1.589,0.812-2.589,1.9-2.686,3.166c-0.233,3.03,4.757,5.887,11.142,6.376c3.451,0.267,6.595-0.216,8.8-1.191
		C76.756,68.32,74.307,68.272,71.727,67.771z"/>
	<path style="fill:#380600;" d="M71.6,60.631c0,0,2.397-12.128,3.565-14.573c1.554-3.252,4.513-6.732,5.366-4.128
		c0.437,1.33-3.176,2.678-4.517,6.53c-1.947,5.597-1.703,6.076-3.015,11.541C72.452,62.287,71.6,60.631,71.6,60.631z"/>
</g>
<g>
	<path style="fill:#DBB372;" d="M56.535,95.192c2.778-0.611,4.903-2.354,5.652-4.363L31.285,9.924c0,0-1.952-0.924-6.174,0.356
		c-5.686,1.725-5.754,4.197-5.754,4.197l30.219,79.119C51.096,95.108,53.752,95.807,56.535,95.192z"/>
	<path style="fill:#894C1F;" d="M28.298,37.877l4.343,11.381c3.434,2.606,10.067,3.082,13.491-0.46l-3.205-8.391
		C38.458,42.863,31.493,41.603,28.298,37.877z M35.555,56.89l4.347,11.376c3.462,1.937,9.917,3.055,13.49-0.457l-3.205-8.391
		C46.741,62.587,38.235,59.927,35.555,56.89z M21.036,18.869l4.346,11.379c3.419,2.729,9.574,2.935,13.489-0.46l-3.204-8.39
		C31.185,23.978,24.053,22.806,21.036,18.869z M42.816,75.896l4.346,11.379c3.467,3.331,8.998,2.81,13.489-0.458l-3.203-8.391
		C53.375,81.297,45.678,79.691,42.816,75.896z"/>
	<g>
		<path d="M56.523,95.144c1.203-0.276,2.353-0.774,3.342-1.505c0.983-0.727,1.812-1.696,2.239-2.841v0.062
			c-2.614-6.727-5.328-13.416-7.993-20.124L50.179,60.65l-3.827-10.127l-7.514-20.308c-2.528-6.76-5.125-13.493-7.757-20.214
			l0.11,0.119c-0.986-0.349-2.173-0.324-3.267-0.192c-1.114,0.143-2.204,0.429-3.277,0.796c-1.058,0.366-2.102,0.815-3.022,1.424
			c-0.457,0.306-0.887,0.651-1.238,1.052c-0.344,0.379-0.645,0.901-0.687,1.287l-0.022-0.132l7.689,19.729
			c2.555,6.579,5.086,13.167,7.581,19.77l3.756,9.897l3.679,9.928c2.421,6.631,4.805,13.275,7.281,19.885l-0.021-0.033
			c0.865,0.86,2.021,1.397,3.219,1.646C54.064,95.427,55.319,95.397,56.523,95.144z M56.547,95.241
			c-1.215,0.271-2.486,0.316-3.714,0.076c-1.222-0.24-2.413-0.771-3.323-1.654l-0.014-0.014l-0.008-0.02
			c-2.56-6.577-5.213-13.119-7.828-19.675l-3.876-9.853l-3.799-9.882c-2.541-6.584-5.047-13.183-7.527-19.79L19.037,14.6
			l-0.029-0.079l0.007-0.053c0.106-0.759,0.481-1.234,0.884-1.704c0.411-0.452,0.889-0.819,1.386-1.139
			c1.002-0.636,2.085-1.075,3.191-1.438c1.095-0.353,2.232-0.629,3.391-0.756c1.162-0.106,2.338-0.143,3.513,0.295l0.076,0.028
			l0.034,0.091c2.519,6.763,5.072,13.514,7.694,20.238l7.938,20.146l3.898,10.1l3.793,10.14c2.485,6.776,4.922,13.571,7.457,20.329
			l0.013,0.031l-0.012,0.031c-0.456,1.181-1.315,2.161-2.324,2.891C58.935,94.482,57.758,94.977,56.547,95.241z"/>
	</g>
</g>
<linearGradient id="SVGID_3_" gradientUnits="userSpaceOnUse" x1="3339.1855" y1="127.4932" x2="3521.9688" y2="127.4932" gradientTransform="matrix(-1 0 0 1 3529.3418 0)">
	<stop  offset="0" style="stop-color:#A8B8C9"/>
	<stop  offset="0.2697" style="stop-color:#EEF0F1"/>
	<stop  offset="0.4329" style="stop-color:#E7E9EB"/>
	<stop  offset="0.6784" style="stop-color:#D2D7DC"/>
	<stop  offset="0.9746" style="stop-color:#B0B8C2"/>
	<stop  offset="0.9775" style="stop-color:#B0B8C2"/>
</linearGradient>
<path style="opacity:0.2;fill:url(#SVGID_3_);" d="M7.429,97.975c0,42.074,40.903,76.183,91.363,76.183
	c50.459,0,91.363-34.108,91.363-76.183c0-4.463-0.885-9.562-1.821-15.558c-6,18-42.613,31.59-88.709,31.59
	c-46.098,0-89.763-13.876-91.635-33.182C7.108,85.078,7.429,93.512,7.429,97.975z"/>
<path style="opacity:0.36;fill:#FFFFFF;" d="M156.378,147.772c-15.158,12.82-36.039,21.018-59.242,21.638
	c1.172,0.041,2.348,0.062,3.531,0.062c24.34,0.006,46.307-8.355,62.083-21.699c7.888-6.67,14.232-14.578,18.59-23.295
	c4.36-8.721,6.753-18.246,6.753-28.261c0.004-2.218-0.797-7.688-0.76-10.884c-1.887,1.771-3.136,5.935-5.56,7.6
	c-0.028,1.209-0.051,2.326-0.051,3.284c-0.002,10.015-2.395,19.54-6.757,28.261C170.607,133.194,164.269,141.103,156.378,147.772z"
	/>
<path style="opacity:0.57;fill:#FFFFFF;" d="M11.611,88.489c0.016,1.373,0.026,2.651,0.026,3.753
	c0.006,10.903,2.484,21.275,7.008,30.771c6.778,14.233,18.193,26.489,32.688,35.182c14.493,8.69,32.04,13.805,50.971,13.803
	c3.177,0,6.313-0.144,9.401-0.423c-15.384-1.377-29.612-6.125-41.713-13.38c-14.495-8.692-25.911-20.948-32.69-35.182
	c-3.396-7.138-5.644-14.771-6.551-22.753c-6.357-2.587-11.865-5.608-16.27-9.166C13.456,90.262,12.514,89.388,11.611,88.489z"/>
<path style="opacity:0.38;fill:#FFFFFF;" d="M18.718,94.974c0.038,6.703,0.938,13.59,2.809,20.466
	c1.066,3.913,2.407,7.649,3.974,11.209l32.962,9.014c-2.322-4.61-4.24-9.566-5.672-14.829c-1.279-4.687-2.098-9.379-2.507-14.014
	C37.33,104.011,26.339,100.007,18.718,94.974z M60.953,140.181l-33.337-9.115c12.573,24.257,36.438,38.52,59.953,34.834
	C77.033,160.479,67.706,151.582,60.953,140.181z"/>
<path style="fill:none;stroke:#1D1D1B;stroke-miterlimit:3.8637;" d="M7.429,97.225c0,42.074,40.903,76.183,91.363,76.183
	c50.459,0,91.363-34.108,91.363-76.183c0-4.463-0.604-13.321-1.541-19.317c-2.947,23.427-42.894,35.35-88.989,35.35
	c-46.098,0-89.763-13.876-91.635-33.182C7.108,84.328,7.429,92.762,7.429,97.225z"/>
</svg>
