<?xml version="1.0" encoding="iso-8859-1"?>
<!-- Generator: Adobe Illustrator 16.0.0, SVG Export Plug-In . SVG Version: 6.00 Build 0)  -->
<!DOCTYPE svg PUBLIC "-//W3C//DTD SVG 1.1//EN" "http://www.w3.org/Graphics/SVG/1.1/DTD/svg11.dtd">
<svg version="1.1" id="Plate" xmlns="http://www.w3.org/2000/svg" xmlns:xlink="http://www.w3.org/1999/xlink" x="0px" y="0px"
	 width="532px" height="414.273px" viewBox="0 0 532 414.273" style="enable-background:new 0 0 532 414.273;" xml:space="preserve"
	>
<g>
	<g>
		<path style="fill:#C9E1E5;" d="M4.582,316.064v3.594c0,50.567,116.885,87.965,261.07,87.965
			c144.187,0,261.071-37.397,261.071-87.965v-4.277L4.582,316.064z"/>
		<path style="fill:#1D1D1B;" d="M4.683,316.165c0.017,1.506,0.004,3.019,0.047,4.518c0.059,1.533,0.226,3.062,0.499,4.571
			c0.545,3.019,1.517,5.952,2.815,8.727c2.609,5.56,6.464,10.453,10.828,14.746c4.379,4.301,9.286,8.038,14.423,11.395
			c5.14,3.36,10.52,6.351,16.031,9.065c11.035,5.422,22.569,9.789,34.281,13.533c11.725,3.725,23.64,6.842,35.652,9.509
			c24.038,5.309,48.455,8.823,72.966,11.118c24.51,2.361,49.141,3.41,73.769,3.506c24.63,0.085,49.271-0.899,73.808-3.14
			c24.532-2.238,48.958-5.84,73.015-11.167c12.015-2.715,23.924-5.913,35.625-9.744c11.692-3.844,23.198-8.315,34.184-13.848
			c5.486-2.771,10.838-5.814,15.932-9.24c5.085-3.43,9.93-7.24,14.214-11.609c4.271-4.361,7.992-9.322,10.424-14.896
			c1.213-2.781,2.084-5.707,2.53-8.697c0.224-1.495,0.342-3.005,0.353-4.515l-0.011-4.616l0.658,0.657l-130.535,0.492l-65.268,0.165
			l-65.268,0.049c-43.512,0.089-87.024-0.095-130.536-0.155l-65.268-0.13L4.683,316.165z M4.482,315.965l65.366-0.466l65.268-0.301
			c43.512-0.175,87.023-0.472,130.535-0.497l65.268-0.122l65.268-0.006l130.536,0.15h0.661l-0.003,0.657l-0.018,4.629
			c-0.021,1.571-0.154,3.141-0.396,4.691c-0.483,3.104-1.407,6.13-2.676,8.989c-2.544,5.734-6.39,10.768-10.747,15.176
			c-4.371,4.417-9.285,8.245-14.429,11.681c-5.152,3.432-10.551,6.469-16.077,9.23c-11.065,5.51-22.626,9.942-34.362,13.743
			c-11.744,3.794-23.69,6.925-35.727,9.617c-24.066,5.449-48.521,9.021-73.06,11.502c-24.548,2.451-49.221,3.64-73.895,3.753
			c-49.321,0.109-98.834-3.92-147.075-14.64c-12.046-2.706-23.996-5.876-35.733-9.729c-11.732-3.852-23.285-8.329-34.342-13.868
			c-11.01-5.557-21.682-12.155-30.457-20.942c-4.349-4.393-8.182-9.391-10.746-15.048c-1.276-2.823-2.22-5.802-2.729-8.857
			c-0.256-1.527-0.405-3.071-0.443-4.618c-0.024-1.548,0.011-3.084,0.014-4.626V315.965z"/>
	</g>
	<g>
		<path style="fill:#E9F2F3;" d="M526.724,317.146c0,45.589-116.885,84.518-261.071,84.518c-144.186,0-261.07-38.929-261.07-84.518
			c0-37.63,116.885-70.732,261.07-70.732C409.839,246.414,526.724,271.557,526.724,317.146z"/>
		<path style="fill:#1D1D1B;" d="M526.823,317.147c0.036,6.015-2.109,11.876-5.35,16.879c-3.245,5.037-7.472,9.364-12.041,13.199
			c-9.204,7.657-19.77,13.454-30.562,18.517c-10.839,5.021-22.066,9.162-33.45,12.761c-11.39,3.592-22.949,6.632-34.598,9.258
			c-23.301,5.271-46.97,8.797-70.728,11.202c-23.765,2.402-47.652,3.44-71.528,3.524c-47.74-0.023-95.557-4.142-142.326-13.782
			c-11.683-2.438-23.273-5.32-34.739-8.641c-11.459-3.335-22.783-7.184-33.786-11.844c-10.978-4.683-21.714-10.119-31.426-17.159
			c-4.831-3.532-9.405-7.484-13.28-12.1c-3.853-4.596-7.026-9.954-8.335-15.921c-0.627-2.965-0.902-6.047-0.394-9.098
			c0.506-3.038,1.742-5.903,3.354-8.478c3.27-5.16,7.854-9.255,12.685-12.803c4.864-3.541,10.086-6.533,15.437-9.226
			c5.357-2.685,10.859-5.058,16.438-7.223c11.161-4.319,22.609-7.83,34.166-10.873c11.561-3.038,23.25-5.551,34.993-7.735
			c47.016-8.616,94.848-12.13,142.591-12.222c23.873,0,47.754,0.597,71.58,2.178c23.821,1.587,47.609,3.961,71.188,7.763
			c11.788,1.896,23.524,4.134,35.15,6.86c11.62,2.734,23.143,5.95,34.369,10.03c11.181,4.131,22.231,8.954,32.031,15.843
			c4.859,3.457,9.409,7.472,12.897,12.353c1.733,2.437,3.18,5.093,4.167,7.922C526.317,311.159,526.832,314.153,526.823,317.147z
			 M526.624,317.146c-0.004-2.971-0.527-5.936-1.52-8.733c-0.99-2.802-2.436-5.43-4.166-7.842
			c-3.482-4.831-8.022-8.807-12.875-12.228c-4.874-3.42-10.107-6.303-15.482-8.858c-5.379-2.558-10.919-4.767-16.536-6.745
			c-11.239-3.955-22.767-7.046-34.388-9.655c-11.627-2.604-23.363-4.696-35.146-6.458c-23.574-3.481-47.319-5.747-71.106-7.162
			c-23.789-1.394-47.623-2.078-71.457-2.017c-23.828,0.047-47.651,1.037-71.4,2.933c-23.744,1.917-47.421,4.812-70.854,9.076
			c-11.715,2.135-23.361,4.64-34.894,7.586c-11.525,2.959-22.94,6.383-34.056,10.606c-5.555,2.116-11.03,4.438-16.354,7.065
			c-5.315,2.633-10.495,5.562-15.299,9.015c-4.771,3.456-9.271,7.444-12.438,12.38c-1.562,2.461-2.747,5.174-3.24,8.028
			c-0.496,2.842-0.257,5.818,0.33,8.672c1.231,5.742,4.284,10.975,8.046,15.501c3.782,4.546,8.283,8.474,13.056,11.993
			c9.592,7.02,20.258,12.482,31.178,17.195c21.924,9.345,45.031,15.71,68.358,20.529c23.348,4.825,47.014,8.031,70.759,10.063
			c23.75,2.038,47.592,2.895,71.42,2.739c23.83-0.097,47.648-1.341,71.365-3.592c23.714-2.275,47.322-5.75,70.627-10.703
			c11.646-2.499,23.209-5.406,34.605-8.875c11.392-3.476,22.633-7.494,33.494-12.393c5.428-2.451,10.756-5.133,15.892-8.15
			c5.133-3.015,10.096-6.341,14.677-10.144c4.565-3.804,8.787-8.096,12.03-13.091C524.488,328.921,526.637,323.12,526.624,317.146z"
			/>
	</g>
	<path style="fill:#FFFFFF;" d="M514.379,316.219c0,43.435-111.358,80.612-248.727,80.612c-137.367,0-248.726-37.178-248.726-80.612
		c0-36.702,111.358-66.83,248.726-66.83C403.021,249.389,514.379,272.787,514.379,316.219z"/>
	<path style="fill:#9CC9D3;" d="M447.466,323.966v-4.438c0-35.219-81.401-47.062-181.814-47.062
		c-100.411,0-181.811,11.843-181.811,47.062v4.914L447.466,323.966z"/>
	<path style="fill:#C9E1E5;" d="M83.841,323.213c0-31.749,81.399-42.719,181.811-42.719c100.413,0,181.814,10.97,181.814,42.719
		c0,31.748-81.401,59.454-181.814,59.454C165.24,382.667,83.841,354.961,83.841,323.213z"/>
	<path style="fill:#E9F2F3;" d="M83.841,323.213c0-31.749,81.399-42.719,181.811-42.719c100.413,0,181.814,10.97,181.814,42.719
		c0,31.748-81.401,59.454-181.814,59.454C165.24,382.667,83.841,354.961,83.841,323.213z"/>
	<path style="fill:#FFFFFF;" d="M83.483,317.385c0-31.467,81.56-42.339,182.168-42.339c100.61,0,182.17,10.872,182.17,42.339
		c0,31.463-81.56,58.923-182.17,58.923C165.043,376.308,83.483,348.848,83.483,317.385z"/>
	<path style="fill:none;stroke:#FF7D3F;stroke-width:2;stroke-miterlimit:10;" d="M472.377,321.618
		c0,34.734-92.729,67.617-207.115,67.617c-114.388,0-207.115-32.883-207.115-67.617c0-34.735,92.728-56.593,207.115-56.593
		C379.647,265.025,472.377,286.883,472.377,321.618z"/>
</g>
<path style="fill:#C6C4BE;" d="M110.563,322.858c0,0-17.999,18,0,23.999s62.997,4.499,73.497,4.499
	c10.499,0,181.491-4.5,206.989-1.5s51.808-11.993,20.499-43.497s-257.487-13.5-257.487-13.5L110.563,322.858z"/>
<path style="fill:#D19657;" d="M145.04,327.337c7.276,5.589,40.73,16.354,73.755,14.145c32.993-2.248,37.22-2.979,117.291,1.479
	c80.087,4.458,66.031-1.479,74.471-4.458c8.424-2.98,6.319-29.021,7.723-49.858c1.402-20.838-4.211-39.439-1.403-51.337
	c2.806-11.896,4.212-12.667-2.107-32.745c-6.316-20.08-4.212-32.732-4.212-32.732c-137.175-22.978-136.358-23.056-197.914-31.411
	c-54.785-7.438-78.669-17.112-80.774,6.706c-2.121,23.805-8.438,43.885-3.51,75.873C133.271,254.998,133.602,318.576,145.04,327.337
	L145.04,327.337z"/>
<path style="fill:#A07442;" d="M411.304,340.068c-4.257,1.247-1.418,6.206-27.138,6.206c-0.957,0-1.943,0-2.973-0.015
	c-10.188-0.013-24.614-0.461-45.211-1.617c-42.254-2.364-63.373-3.251-78.668-3.251c-13.682,0-22.762,0.707-38.355,1.784
	c-3.047,0.194-6.122,0.284-9.17,0.284c-30.439-0.077-58.563-9.263-66.062-14.863v0.014c-6.796-5.64-9.109-23.433-11.44-44.591
	c-2.135-21.03-3.436-44.927-5.884-60.791c-1.33-8.685-1.852-16.496-1.852-23.728c0.013-19.746,3.822-35.253,5.362-52.52
	c0.716-11.908,8.468-16.982,20.835-16.674c13.531,0.025,33.621,4.561,62.207,8.428c55.254,7.5,204.83,31.424,197.976,31.424
	c1.03,0.166-2.267,1.014-2.417,1.9c0,0-0.3,1.863-0.3,5.484c0,5.447,4.719,14.658,8.468,26.58
	c3.301,10.445,4.555,15.79,4.555,20.375c0,4.213-1.09,7.49-2.42,13.131c-0.523,2.298-0.746,4.921-0.746,7.836
	c0,9.596,2.42,22.172,2.434,36.112c-0.014,2.349-0.089,4.727-0.238,7.156c-0.703,10.329-0.537,22.044-1.239,31.641
	C418.099,329.921,417.277,337.512,411.304,340.068L411.304,340.068z M408.258,177.544c0-1.875,0.074-3.34,0.163-4.342
	c-13.935-2.328-138.086-23.225-196.077-31.113c-28.724-3.919-49.02-8.39-61.596-8.363c-11.411,0.281-15.563,2.696-16.908,13.514
	c-1.568,17.575-5.332,32.9-5.318,52.262c0,7.09,0.509,14.748,1.793,23.277c2.479,16.123,3.794,40.005,5.915,60.945
	c1.927,20.836,5.496,39.208,10.126,42.33c5.767,4.571,34.114,14.105,63.434,14.015c2.959,0,5.914-0.103,8.856-0.296
	c15.549-1.053,24.81-1.785,38.669-1.785c15.49,0,36.653,0.913,78.921,3.264c20.567,1.157,34.905,1.605,44.958,1.605
	c29.617-0.399,20.521-2.825,28.602-5.936c2.466-0.411,4.795-7.323,5.289-16.777c0.7-9.379,0.521-21.107,1.223-31.604
	c0.149-2.336,0.225-4.677,0.225-6.962c0.016-13.605-2.404-26.054-2.419-36.112c0-3.059,0.224-5.91,0.836-8.491
	c1.375-5.795,2.346-8.841,2.329-12.476c0.017-3.994-1.119-9.095-4.422-19.488C409.02,192.794,408.258,183.248,408.258,177.544
	L408.258,177.544z"/>
<path style="fill:#C68346;" d="M173.885,271.046c3.98,0,9.103-0.271,14.844-0.54c5.783-0.277,12.194-0.556,18.71-0.556
	c10.437,0,21.138,0.711,29.938,3.265c4.439,1.289,8.979,1.777,13.562,1.777c7.202,0,14.511-1.207,21.685-2.406
	c7.181-1.21,14.222-2.415,20.894-2.415c5.751,0,11.226,0.897,16.269,3.468c5.324,2.713,10.562,3.646,15.7,3.646
	c5.687,0,11.251-1.145,16.666-2.285c5.414-1.142,10.677-2.281,15.759-2.281c2.908,0,5.758,0.373,8.541,1.332
	c6.972,2.403,15.014,3.109,22.06,3.109c10.058,0,18.088-1.44,18.088-1.44c0.651-0.387,1.196-0.568,1.649-0.568
	c6.368,0-5.902,36.213-4.801,45.172c1.195,9.584-5.123,12.076-14.562,14.581c-3.345,0.889-12.603,1.462-24.785,1.462
	c-22.218,0-54.142-1.909-77.527-7.294c-9.128-2.101-18.459-2.822-27.783-2.821c-10.293,0-20.579,0.88-30.57,1.755
	c-9.984,0.884-19.672,1.763-28.796,1.763c-6.27,0-12.277-0.416-17.923-1.531c-29.513-5.831-24.779-38.347-31.083-51.271
	c-3.496-7.179-0.43-9.336,4.267-9.336c3.748,0,8.535,1.375,11.851,2.669C167.959,270.852,170.514,271.046,173.885,271.046
	L173.885,271.046z M155.681,253.735c-5.887,0-11.401,1.479-15.425,2.644c1.661,13.861,4.119,30.228,4.129,37.313
	c-0.148,9.982,4.481,29.625,9.289,33.812c2.36,2.198,7.334,4.278,11.74,6.142c0.237,0.112,0.476,0.224,0.712,0.331
	c11.812,3.29,27.373,6.093,43.25,6.093c0.136,0,0.277-0.001,0.413-0.001c2.959,0,5.914-0.103,8.856-0.296
	c15.549-1.053,24.81-1.785,38.669-1.785c15.49,0,36.653,0.913,78.921,3.264c20.567,1.157,34.905,1.605,44.958,1.605
	c29.617-0.399,20.521-2.825,28.602-5.936c2.466-0.411,4.795-7.323,5.289-16.777c0.7-9.379,0.521-21.107,1.223-31.604
	c0.149-2.336,0.225-4.677,0.225-6.962c0.008-6.436-0.53-12.61-1.102-18.399c-3.164,0.092-9.836,0.255-17.453,0.255
	c-10.623,0-23.087-0.316-30.45-1.588c-2.091-0.361-4.351-0.505-6.74-0.505c-4.401,0-9.239,0.483-14.245,0.967
	c-4.981,0.48-10.129,0.959-15.17,0.959c-6.426,0-12.679-0.78-18.196-3.336c-5.406-2.499-11.659-3.256-18.181-3.256
	c-5.006,0-10.171,0.446-15.229,0.893c-5.053,0.444-10.003,0.89-14.597,0.89c-3.106,0-6.049-0.203-8.75-0.749
	c-6.879-1.376-13.143-2.039-19.612-2.039c-8.504,0-17.363,1.144-28.45,3.312c-4.339,0.848-8.469,1.193-12.405,1.193
	c-13.771,0-25.161-4.23-34.733-5.96C159.358,253.879,157.502,253.735,155.681,253.735L155.681,253.735z M164.324,235.16
	c-11.301,0-19.819,2.622-19.819,2.622c-2.193,1.186-4.088,1.902-5.718,2.227c0.088,3.247,0.468,7.516,0.993,12.258
	c3.891-1.464,13.843-3.302,22.852-3.302c4.074,0,7.955,0.373,10.997,1.331c8.688,2.718,19.99,5.437,30.058,5.437
	c2.256,0,4.448-0.136,6.535-0.439c9.879-1.443,20.614-3.502,29.703-3.502c1.425,0,2.808,0.051,4.141,0.163
	c6.676,0.574,15.159,2.478,24.964,2.478c4.652,0,9.601-0.428,14.796-1.631c3.97-0.926,7.819-1.296,11.477-1.296
	c11.19,0,20.558,3.465,25.895,5.035c3.897,1.143,11.12,1.786,18.533,1.786c6.078,0,12.285-0.432,16.894-1.375
	c2.67-0.544,4.67-0.773,6.369-0.773c4.814,0,7.229,1.851,15.662,3.702c3.432,0.748,7.038,1.011,10.586,1.011
	c8.267,0,16.217-1.422,20.897-1.422c2.283,0,3.785-0.922,4.697-2.284c-0.348-3.627-0.634-7.062-0.705-10.272
	c-1.347-1.1-3.877-1.303-7.232-1.303c-1.005,0-2.082,0.019-3.226,0.036c-1.152,0.021-2.369,0.041-3.643,0.041
	c-2.594,0-5.422-0.082-8.396-0.4c-1.244-0.132-2.446-0.188-3.62-0.188c-3.77,0-7.215,0.586-10.6,1.164
	c-3.372,0.579-6.68,1.163-10.182,1.163c-2.252,0-4.585-0.242-7.07-0.881c-2.698-0.692-5.508-0.964-8.36-0.964
	c-9.205,0-18.854,2.828-26.677,3.457c-1.369,0.114-3.117,0.167-5.148,0.167c-13.138,0-38.081-2.227-47.965-4.753
	c-7.232-1.846-13.191-3.193-19.784-3.193c-3.821,0-7.856,0.453-12.477,1.522c-5.55,1.284-12.697,2.246-20.671,2.246
	c-10.139,0-21.615-1.556-32.859-5.984C178.742,236.089,171.041,235.16,164.324,235.16L164.324,235.16z M187.432,174.197
	c4.069,0,7.805-0.833,11.888-1.663c4.089-0.832,8.529-1.664,14.012-1.664c5.005,0,10.878,0.693,18.144,2.718
	c11.452,3.188,16.85,3.764,21.462,3.764c1.278,0,2.497-0.044,3.766-0.089c1.292-0.047,2.638-0.092,4.156-0.092
	c5.681,0,13.773,0.644,30.436,4.344c12.138,2.695,19.967,3.521,25.918,3.521c4.688,0,8.209-0.513,11.75-1.028
	c3.54-0.508,7.105-1.018,11.888-1.018c5.027,0,11.399,0.564,20.494,2.289c23.489,4.447,31.594,5.274,34.375,5.274
	c1.645,0,1.426-0.29,1.426-0.29c0.765-0.522,1.421-0.769,1.992-0.769c4.439,0,3.714,14.903,8.238,30.792
	c2.957,10.338,2.113,13.186-0.642,13.186c-2.021,0-5.073-1.533-8.409-2.768c-2.314-0.86-5.896-1.141-10.012-1.141
	c-3.873,0-8.219,0.249-12.422,0.499c-4.172,0.249-8.193,0.491-11.473,0.491c-1.807,0-3.386-0.072-4.643-0.262
	c-2.209-0.338-3.884-0.527-5.607-0.527c-4.737,0-9.854,1.428-27.46,5.102c-7.8,1.624-13.604,2.502-18.804,2.502
	c-10.804,0-19.005-3.783-37.074-12.508c-7.463-3.603-13.644-4.869-19.137-4.869c-6.521,0-12.07,1.785-17.647,3.57
	c-5.562,1.776-11.153,3.561-17.782,3.561c-1.186,0-2.408-0.057-3.667-0.182c-21.269-2.08-16.922-5.833-40.147-5.833
	c-23.211,0-20.074-1.657-20.865-12.499c-0.777-10.83,1.18-24.178,0-34.609c-0.604-5.385,0.793-7.76,4.953-7.76
	c3.878,0,10.156,2.065,19.452,5.679C180.321,173.604,183.996,174.197,187.432,174.197L187.432,174.197z M150.812,149.614
	c-0.036,0-0.074,0.002-0.11,0.002c-3.554,0.192-4.523,0.795-5.661,4.535c-2.001,7.708-7.659,9.918-7.645,21.916
	c0,3.752,0.581,8.491,2.045,14.582c1.973,8.182,2.674,14.721,2.674,20.271c-0.008,6.775-1.027,11.966-1.94,16.647
	c5.95,0.413,17.148,2.868,28.84,3.099c15.921,0.32,23.138,2.544,29.723,4.777c4.108,1.389,12.848,3.263,22.045,3.263
	c5.615,0,11.404-0.698,16.414-2.632c2.553-0.984,5.838-1.386,9.518-1.386c15.349,0,37.587,6.976,42.43,7.745
	c3.65,0.575,13.699,1.86,24.521,1.86c7.029,0,14.381-0.542,20.525-2.17c4.344-1.151,7.967-1.54,11.095-1.54
	c3.218,0,5.913,0.41,8.338,0.821c2.403,0.402,4.535,0.804,6.635,0.804c1.121,0,2.233-0.114,3.372-0.406
	c3.878-0.988,7.59-1.633,12.836-1.633c4.921,0,11.188,0.568,20.201,1.954c5.043,0.777,8.794,1.06,11.582,1.06
	c2.896,0,4.753-0.305,5.943-0.68c0.112-1.951,0.348-3.803,0.757-5.53c1.375-5.795,2.346-8.841,2.329-12.476
	c0.017-3.994-1.119-9.095-4.422-19.488c-2.643-8.417-3.827-15.564-4.309-21.062c-2.649-0.076-5.631-0.652-9.027-1.766
	c-10.748-3.585-38.168-7.336-50.479-7.336c-0.039,0-0.083,0-0.124,0c-13.009-0.064-54.651-2.852-66.197-7.604
	c-9.36-4.122-56.19-7.287-64.898-7.287c-0.087,0-0.172,0.002-0.251,0.002c-3.211,0-7.663,0.359-13.098,0.359
	c-8.187,0-18.672-0.834-31.172-4.92C162.549,151.831,155.088,149.614,150.812,149.614L150.812,149.614z"/>
<path style="fill:#976635;" d="M417.014,263.13c-0.328,0.011-0.863,0.028-1.584,0.049c0.571,5.789,1.109,11.964,1.102,18.399
	c0,2.285-0.075,4.626-0.225,6.962c-0.701,10.496-0.522,22.225-1.223,31.604c-0.494,9.454-2.823,16.366-5.289,16.777
	c-8.081,3.11,1.016,5.536-28.602,5.936c-10.053,0-24.391-0.448-44.958-1.605c-42.268-2.351-63.431-3.264-78.921-3.264
	c-13.859,0-23.12,0.732-38.669,1.785c-2.942,0.193-5.897,0.296-8.856,0.296c-0.136,0-0.277,0.001-0.413,0.001
	c-15.877,0-31.438-2.803-43.25-6.093c2.635,1.203,5.206,2.112,6.821,3.605c10.741,2.421,23.44,4.194,36.448,4.194
	c2.989,0,5.996-0.094,8.996-0.295c15.572-1.061,24.739-1.784,38.487-1.784c15.391,0,36.527,0.908,78.82,3.263
	c20.567,1.145,34.925,1.604,45.049,1.604c29.297,0,23.145-3.848,29.405-6.062c8.424-2.98,6.333-29.021,7.736-49.858
	C418.5,279.596,417.786,270.97,417.014,263.13L417.014,263.13z M414.13,246.912c0.071,3.21,0.357,6.646,0.705,10.272
	c0.896-1.337,1.224-3.1,1.159-4.834c-0.021-0.275-0.042-0.551-0.062-0.823c-0.15-1.389-0.54-2.711-1.074-3.724
	C414.68,247.455,414.435,247.161,414.13,246.912L414.13,246.912z M410.117,183.937c-0.276,0.013-0.559,0.02-0.844,0.02
	c-0.051,0-0.101,0-0.15,0c-0.189,0-0.382-0.002-0.576-0.008c0.481,5.498,1.666,12.646,4.309,21.062
	c3.303,10.394,4.438,15.494,4.422,19.488c0.017,3.635-0.954,6.681-2.329,12.476c-0.409,1.728-0.645,3.579-0.757,5.53
	c0.823-0.258,1.327-0.55,1.636-0.799c0.123-1.551,0.333-3.021,0.659-4.399c2.81-11.896,4.213-12.667-2.104-32.745
	C411.779,196.312,410.602,189.315,410.117,183.937L410.117,183.937z"/>
<path style="fill:#754C28;" d="M309.667,136.94c0,0,45.342,2.785,65.714,15.425C395.752,165.007,419,162.902,419,169.607
	c0,6.693,2.807,10.143,0,15.333c-2.808,5.217-7.561-0.625-18.793-4.35c-11.247-3.712-38.656-7.439-51.29-7.439
	c-12.637,0-54.8-2.966-65.329-7.438c-10.53-4.457-57.593-7.438-66.033-7.438c-8.424,0-23.179,2.236-43.552-4.47
	c-20.373-6.681-28.797-8.929-30.903,0c-2.105,8.927-11.949,11.163-5.616,37.204c6.318,26.04-0.701,34.968-0.701,47.621
	c0,12.654,5.615,44.645,5.615,55.062c0,10.42,4.213,29.767,9.829,34.968c5.631,5.191,20.371,8.185,20.371,11.91
	c0,3.712-3.51,1.476-11.934,4.458c-4.212,1.49-7.019,0.564-10.366-0.374c-3.329-0.923-7.198-1.85-13.516-0.372
	c-12.651,2.981-24.599-0.745-25.987-11.149c-1.405-10.42,6.316-19.63,4.912-34.983c-1.403-15.353,6.319-49.845-2.104-69.193
	c-8.439-19.346-12.651-18.601-7.035-26.039s6.317-8.941,4.928-16.367c-1.403-7.45-0.716-13.41,1.39-15.621
	c2.121-2.235,8.454-2.235,6.334-16.38c-2.107-14.131-1.404-17.856,2.808-26.786c4.21-8.928,1.493-10.928,11.321-13.909
	c9.844-2.98,7.407,4.145,12.319,0.419c4.916-3.726,24.916-16.054,39.658-7.858c14.756,8.185,33.831,9.545,61.223,18.473
	c27.392,8.928,47.12,12.052,47.12,12.052H309.667z"/>
<path style="fill:#603813;" d="M161.426,346.595c-1.807,0.643-3.494,0.899-5.049,0.899c-5.197-0.116-8.138-2.364-13.321-2.312
	c-1.628,0.012-3.465,0.192-5.735,0.746c-2.987,0.707-5.931,1.027-8.753,1.027c-9.814,0.128-18.581-4.586-19.729-13.631
	c-0.135-0.978-0.166-1.9-0.166-2.813c0.075-9.186,5.318-17.111,5.274-28.623c0-1.155-0.075-2.35-0.21-3.584
	c-0.119-1.426-0.179-2.954-0.179-4.586c0-10.266,2.09-25.166,2.09-39.182c0-9.341-0.925-18.269-3.883-24.975
	c-5.705-13.246-9.499-16.586-9.708-21.197c0.015-2.12,1.074-3.995,2.867-6.371c4.077-5.436,5.213-7.221,5.213-10.342
	c0-1.26-0.194-2.789-0.583-4.83c-0.521-2.736-0.73-5.281-0.73-7.555c0.028-4.137,0.685-7.336,2.524-9.404
	c3-2.941,5.972-1.658,6.331-10.16c0-1.402-0.119-3.021-0.403-4.921c-0.762-5.113-1.18-8.917-1.18-12.142
	c0-5.807,1.404-9.775,4.107-15.506c4.511-9.172,1.151-11.147,12.488-14.885c9.737-2.969,12.74-4.946,17.624-8.595
	c3.137-2.352,5.77,1.299,12.685,1.286c6.125,0,14.801-2.033,22,2c14.458,8.005,34.857,7.426,62.25,16.354
	c27.093,8.839,11.734,3.354,27.083,10.979l28,4.667l3.334,0.667c15.333,2,49.895-1.603,70.862,11.372
	c9.903,6.154,19.676,10.971,31.012,15.056c11.263,4.421,11.216-2.772,12.126,2.906c0.195,3.43-0.712,5.714-1.998,7.899
	c-2.062,3.98-2.258,7.168-8.546,7.117c-2.793,0-5.959-0.58-9.604-1.773c-10.783-3.598-38.354-7.361-50.603-7.336
	c-13.009-0.064-54.651-2.852-66.197-7.604c-9.453-4.162-57.129-7.35-65.149-7.285c-3.211,0-7.663,0.359-13.098,0.359
	c-8.187,0-18.672-0.834-31.172-4.92c-10.844-3.597-18.341-5.819-22.6-5.781c-3.554,0.192-4.523,0.795-5.661,4.535
	c-2.001,7.708-7.659,9.918-7.645,21.916c0,3.752,0.581,8.491,2.045,14.582c1.973,8.182,2.674,14.721,2.674,20.271
	c-0.015,12.32-3.376,19.398-3.345,27.709c-0.018,12.398,5.6,44.348,5.615,55.062c-0.148,9.982,4.481,29.625,9.289,33.812
	c2.36,2.198,7.334,4.278,11.74,6.142c4.272,2.043,8.589,3.108,9.155,6.925c0.403,2.454-2.478,4.175-4.437,4.175
	C168.043,345.042,165.398,345.193,161.426,346.595L161.426,346.595z M169.463,341.405c0.746-0.09,1.015-0.219,1.104-0.257
	c0.03-0.077,0.075-0.271,0.075-0.578c0.014-0.038-0.195-0.539-1.555-1.311c-3.957-2.454-13.427-5.062-18.295-9.441
	c-6.408-6.231-10.217-25.283-10.365-36.126c0.015-10.136-5.602-42.176-5.617-55.062c0.045-9.171,3.36-15.992,3.346-27.709
	c0-5.293-0.643-11.601-2.585-19.565c-1.507-6.282-2.134-11.229-2.134-15.288c0-13.078,6.526-16.688,7.735-22.584
	c0.853-4.6,4.57-7.465,9.528-7.271c5.616,0.039,13.069,2.427,24.02,6.012c11.979,3.918,21.88,4.689,29.752,4.689
	c5.257,0,9.572-0.359,13.098-0.359c8.826,0.09,55.308,2.865,66.898,7.643c9.527,4.163,52.185,7.322,64.448,7.246
	c13.038,0.027,40.267,3.713,52.007,7.555c3.33,1.104,6.048,1.554,8.199,1.554c4.764-0.052,3.125-1.938,4.947-5.14
	c1.509-3.029,4.151-3.941,5.076-4.315c0.659-0.463,0.854,0.103,1.062-3.147c0.209-0.309-1.254-1.99-4.81-3.648
	c-10.44-5.152-25.485-0.847-41.169-10.56c-18.969-11.832-55.86-19.167-58.787-19.771c-2.374-0.025-43.52,1.004-69.583-7.5
	c-27.393-8.916-59.124-11.856-74.194-20.195c-6.588-3.687-9.942,7.333-15.333,7.333c-6.062-0.025-15.909,7.047-18,8.667
	c-4.944,3.776,5.647-9.806-4.328-6.814c-8.305,2.197-6.229,4.249-10.143,12.948c-2.643,5.689-3.794,8.889-3.808,14.232
	c0,2.994,0.389,6.654,1.134,11.69c0.329,2.042,0.464,3.829,0.435,5.372c0.372,9.544-6.528,11.381-7.199,12.293
	c-0.777,0.758-1.688,3.533-1.657,7.271c0,2.069,0.192,4.444,0.687,7.001c0.418,2.107,0.642,3.815,0.642,5.384
	c0.015,4.135-1.853,6.898-5.855,12.177c-1.702,2.276-2.225,3.47-2.225,4.536c-0.194,2.377,3.584,6.668,9.438,19.99
	c3.257,7.411,4.151,16.648,4.151,26.182c0,14.271-2.091,29.265-2.073,39.182c-0.018,1.579,0.028,3.02,0.147,4.303
	c0.151,1.287,0.21,2.595,0.21,3.867c-0.046,12.398-5.348,20.722-5.272,28.623c0,0.822,0.045,1.632,0.15,2.415
	c1.03,7.143,7.198,10.534,15.801,10.638c2.434,0,5.049-0.295,7.708-0.926c2.553-0.604,4.778-0.86,6.78-0.848
	c6.526,0.052,10.007,2.416,13.321,2.312c1.046,0,2.15-0.167,3.54-0.655C164.368,341.881,167.699,341.649,169.463,341.405
	L169.463,341.405z"/>
<path style="fill:#E9DCDA;" d="M416.296,241.142c0,0-1.013,3.842-19.635,0.983c-18.62-2.862-25.526-2.231-33.035-0.318
	c-7.509,1.914-13.811-3.827-29.434,0.318c-15.617,4.135-39.029,1.264-45.046,0.312c-6-0.949-38.742-11.444-51.956-6.356
	c-13.218,5.089-31.839,1.596-38.451-0.637c-6.588-2.229-13.803-4.46-29.721-4.773c-15.917-0.318-30.933-4.769-33.042-2.551
	c-2.092,2.232-4.196,28.954-1.799,29.593c2.4,0.636,14.714-5.727,27.033-3.502c12.311,2.224,27.628,8.591,47.145,4.774
	c19.519-3.817,32.14-4.463,48.059-1.272c15.917,3.182,40.24-5.41,56.761,2.225c16.521,7.634,39.648-0.631,54.354,1.913
	c14.721,2.545,49.85,1.262,49.85,1.262S419.277,255.008,416.296,241.142z"/>
<path style="fill:#603813;" d="M115.707,298.149c1.404,15.354-6.317,24.563-4.912,34.983c1.389,10.404,13.336,14.131,25.987,11.149
	c6.317-1.478,10.187-0.551,13.516,0.372c3.348,0.938,6.154,1.864,10.366,0.374c8.424-2.982,11.934-0.746,11.934-4.458
	c0-3.726-14.74-6.719-20.371-11.91c-5.616-5.201-9.829-24.548-9.829-34.968c0-6.833-2.405-22.919-4.062-36.754
	c5.153-1.491,13.996-4.329,22.882-2.725c12.307,2.222,27.617,8.581,47.139,4.767c19.52-3.814,32.143-4.458,48.062-1.272
	c6.692,1.349,14.877,0.605,23.347-0.141c11.649-1.027,23.852-2.057,33.41,2.363c9.843,4.56,22.031,3.47,33.366,2.377
	c7.723-0.745,15.041-1.49,20.985-0.462c14.727,2.542,49.856,1.271,49.856,1.271s1.896-8.106-1.09-21.98
	c0,0-1.018,3.853-19.627,0.988c-18.625-2.865-25.525-2.233-33.037-0.321c-3.271,0.835-6.318,0.22-10.007-0.397
	c-4.779-0.81-10.62-1.618-19.433,0.719c-15.607,4.137-39.027,1.26-45.047,0.31c-6.004-0.951-38.743-11.447-51.947-6.359
	c-13.218,5.099-31.841,1.605-38.459-0.631c-6.585-2.233-13.802-4.457-29.723-4.777c-13.188-0.259-25.749-3.354-30.857-3.148
	c1.645-8.568,3.72-18.396-0.673-36.51c-6.333-26.041,3.511-28.277,5.616-37.204c2.106-8.929,10.53-6.681,30.903,0
	c20.373,6.706,35.128,4.47,43.552,4.47c8.44,0,55.503,2.98,66.033,7.438c10.529,4.473,52.692,7.438,65.329,7.438
	c12.634,0,40.043,3.728,51.29,7.439c11.232,3.726,6.949,10.71,12.793,11.684c4,0.667,6.667-12.885,6.667-25.333
	c0-6.705-23.915-1.933-44.286-14.575c-20.372-12.641-63.048-15.425-63.048-15.425s-38.394-3.124-65.786-12.052
	c-27.392-8.928-49.458-7.764-64.214-15.948c-14.742-8.196-31.084,0.941-36,4.667c-4.912,3.726-3.143-2.733-12.986,0.247
	c-9.828,2.98-7.111,4.981-11.321,13.909c-4.212,8.93-4.915,12.655-2.808,26.786c2.12,14.145-4.213,14.145-6.334,16.38
	c-2.105,2.211-2.793,8.171-1.39,15.621c1.39,7.426,0.688,8.929-4.928,16.367s-1.404,6.693,7.035,26.039
	C122.026,248.305,114.304,282.797,115.707,298.149L115.707,298.149z M166.535,142.743c-14.951-9.583-21.239-5.408-14.547-14.17
	c6.689-8.748-26.079,1.917-7.186-5.997c18.894-7.926,14.952-14.594,32.664-9.186c17.7,5.422,34.982,4.251,73.158,17.188
	c38.176,12.91,87.101,10.964,102.815,18.871c13.561,6.823,38.23,13.153,46.894,14.823c8.662,1.656,12.497,0.565,14.08,3.905
	c0,0,3.526,6.668-5.915,5.82c-9.453-0.822-6.231,2.094-36.536-10.406c-16.519-6.821-24.614-4.714-34.247-2.607
	c-8.021,1.76-17.117,3.52-33.039,0.104c-35.024-7.504-32.275-7.914-76.351-10.42C184.264,148.165,181.501,152.327,166.535,142.743
	L166.535,142.743z M120.503,327.401c0.388-11.665,2.374-7.079,0.791-18.768c-1.568-11.667-2.359-31.244,1.97-45.428
	c4.318-14.169,0-32.502-5.898-45.438c-5.913-12.911-3.15-10.419,1.165-16.251c4.347-5.833-3.524-20.413,1.584-24.179
	c5.122-3.751,1.18-20.002,9.036-24.588c7.886-4.586-5.497,9.584-2.345,24.588c3.151,15.019,9.051,21.687,6.289,30.011
	c-2.749,8.337-10.218,42.112,11.41,30.433c0,0,21.656-6.668,41.716,1.26c20.088,7.914,40.925,6.653,53.53,3.738
	c12.589-2.916,20.835-1.246,32.261,1.671c11.412,2.916,42.896,5.435,53.113,4.586c10.244-0.822,23.627-5.423,35.037-2.493
	c6.348,1.633,11.711,0.669,17.252-0.282c4.437-0.758,8.977-1.529,14.22-0.976c4.437,0.477,8.543,0.424,12.038,0.359
	c5.824-0.09,9.977-0.194,11.187,2.158c1.972,3.739,1.972,11.665-4.721,11.665c-6.69,0-20.058,2.903-31.483,0.411
	c-11.411-2.504-11.8-5.011-22.031-2.929c-10.231,2.094-28.333,1.669-35.427-0.411c-7.081-2.082-21.256-7.503-37.371-3.739
	c-16.146,3.739-29.915,0-39.76-0.847c-9.841-0.823-22.418,1.669-33.844,3.339c-11.411,1.658-25.958-1.67-36.593-4.997
	c-10.62-3.34-31.485,0.397-35.025,2.505c-3.539,2.068-5.898,12.924-4.315,18.743c1.568,5.846,3.136,38.759,5.513,47.096
	c2.343,8.351-0.793,7.516,5.495,12.924c6.288,5.436-1.166,3.34-8.26,4.176C129.957,336.573,120.114,339.081,120.503,327.401
	L120.503,327.401z"/>
<path style="fill:#B2A9AD;" d="M209.324,130.962c0.008-0.001,0.055,0.004,0.135,0.011c0.007,0.009,0.011,0.017,0.018,0.026
	c-0.045-0.011-0.092-0.021-0.138-0.03C209.324,130.964,209.32,130.962,209.324,130.962L209.324,130.962z"/>
<rect x="173.196" y="125.119" style="fill:#694223;" width="0.008" height="0.003"/>
<g>
	<path style="fill:#BD2429;" d="M169.865,111.785c0,0-12.898-38.98,26.587-54.414c39.488-15.434,69.085,29.817,57.494,50.795
		C242.355,129.124,169.865,111.785,169.865,111.785L169.865,111.785z"/>
	<path style="fill:#9B1F21;" d="M256.026,109.32c-4.036,7.112-12.955,9.896-23.153,11.042c-26.073,2.735-63.431-6.268-63.56-6.273
		c-0.799-0.186-1.461-0.803-1.724-1.572c-0.033-0.124-1.214-3.727-1.802-9.222c-1.499-12.806,0.863-36.94,29.812-48.15
		c4.206-1.645,8.335-2.648,12.31-3.074c28.034-2.837,48.558,21.44,50.816,41.859C259.294,99.427,258.565,104.792,256.026,109.32
		L256.026,109.32z M253.98,94.438c-1.963-18.007-20.853-40.213-45.562-37.604c-3.562,0.381-7.252,1.265-11.077,2.761
		c-26.48,10.42-27.952,31.183-26.794,43.192c0.323,3.189,0.875,5.627,1.239,7.002c6.902,1.542,38.705,8.207,60.578,5.83
		c9.741-1.006,17.033-3.941,19.502-8.606C253.815,103.544,254.492,99.217,253.98,94.438L253.98,94.438z"/>
	<path style="fill:#A41418;" d="M221.027,57.644c18.301,4.375,31.34,22.001,32.953,36.794c0.171,1.597,0.209,3.145,0.111,4.625
		c-2.166-0.357-3.786-0.292-4.31-0.375c-1.266-1.349-3.898-5.974-8.873-5.931c-0.014,0.002-0.027,0.003-0.039,0.004
		c-2.061,0.221-3.721,1.822-4.739,3.91c-0.278,0.704-0.895,1.392-1.744,2.031C239.728,87.183,233.733,69.328,221.027,57.644
		L221.027,57.644z"/>
	<path style="fill:#871113;" d="M217.045,54.353c24.216,2.801,40.854,27.428,39.343,45.223c-0.81-0.23-1.583-0.395-2.296-0.513
		c0.098-1.48,0.06-3.028-0.111-4.625c-1.613-14.793-14.652-32.42-32.953-36.794C219.766,56.481,218.436,55.38,217.045,54.353
		L217.045,54.353z"/>
	<path style="fill:#5A3F1F;" d="M210.917,70.183c0.425-2.961-13.401-40.285,18.747-56.274c0,0,6.265,0.67,4.575-4.961
		c-1.71-5.666-5.455,0.112-9.766-6.144c-4.308-6.256-6.266-0.687-3.999,3.578c2.282,4.229-26.96,27.077-14.496,65.216
		C205.979,71.598,210.176,75.278,210.917,70.183L210.917,70.183z"/>
	<path style="fill:#BDB2A5;" d="M229.985,13.93c0.202,0.007,0.485,0.007,0.814-0.015C230.471,13.938,230.188,13.937,229.985,13.93
		L229.985,13.93z M232.322,13.635c-0.418,0.136-0.847,0.213-1.234,0.255l0,0C231.475,13.849,231.903,13.773,232.322,13.635
		L232.322,13.635z M234.507,10.258C234.507,10.259,234.507,10.258,234.507,10.258S234.507,10.259,234.507,10.258L234.507,10.258z"/>
	<path style="fill:#8C191B;" d="M209.089,72.861c-0.028,0.004-0.055,0.007-0.08,0.01l0,0
		C209.034,72.869,209.061,72.866,209.089,72.861L209.089,72.861z M206.254,71.818c0.328,0.246,0.909,0.64,1.558,0.873
		C207.164,72.458,206.582,72.064,206.254,71.818L206.254,71.818z M205.871,71.26c0.032,0.114,0.065,0.228,0.108,0.338
		C205.941,71.484,205.908,71.374,205.871,71.26L205.871,71.26z"/>
	<path style="fill:#432C14;" d="M231.223,6.137c1.262,0.101,2.297,0.498,3.016,2.811l0,0c0.019,0.06,0.038,0.119,0.053,0.178
		c0.112,0.412,0.183,0.788,0.215,1.133c0,0.001,0,0,0,0.001c0.193,2.057-0.958,2.975-2.186,3.376
		c-0.418,0.136-0.847,0.213-1.234,0.255c-0.098,0.01-0.196,0.019-0.289,0.025c-0.329,0.022-0.612,0.021-0.814,0.015
		c-0.202-0.008-0.321-0.021-0.321-0.021c-20.846,10.368-22.362,29.706-20.966,42.83c0.67,6.325,2.02,11.206,2.206,12.944
		c0.023,0.217,0.028,0.385,0.013,0.501c-0.271,1.864-1.007,2.555-1.828,2.678c-0.028,0.004-0.055,0.007-0.08,0.01
		c-0.396,0.043-0.808-0.04-1.198-0.18c-0.648-0.233-1.23-0.627-1.558-0.873c-0.173-0.131-0.275-0.22-0.275-0.22l0,0
		c-0.038-0.114-0.071-0.224-0.108-0.338c-0.062-0.227-0.116-0.454-0.197-0.662c0.182,0.025,0.363,0.031,0.542,0.012
		c0.851-0.091,1.619-0.748,1.907-2.664c0.429-2.942-13.419-40.283,18.731-56.271c0,0,0.634,0.068,1.44-0.018
		c1.74-0.187,4.29-1.09,3.135-4.944C231.354,6.504,231.28,6.331,231.223,6.137L231.223,6.137z"/>
	<path style="fill:#7E0406;" d="M218.751,67.535c0.191-0.021-0.771,1.902-2.664,3.924c-1.882,2.024-4.705,4.145-8.279,4.527
		c-2.564,0.274-5.515-0.347-8.783-2.539c-0.056-0.035-0.078-0.051-0.07-0.052c0.037-0.004,0.647,0.268,1.728,0.49
		c1.077,0.215,2.626,0.381,4.554,0.175c3.448-0.369,8.113-1.926,13.474-6.504C218.729,67.542,218.742,67.536,218.751,67.535
		L218.751,67.535z"/>
	<path style="fill:#F1EBEB;" d="M162.857,114.327c0,0,3.149-7.977,12.684-7.187c9.552,0.77,27.204-1.119,30.854-7.793
		c3.669-6.675,6.049,2.034,9.932,4.316c3.884,2.282,18.653,0.702,21.946-5.934c3.292-6.636,8.508,1.334,10.147,2.952
		c1.641,1.617,13.518-2.786,20.154,14.882c6.633,17.669-10.646,36.574-34.541,31.057c-23.895-5.519-27.546,1.137-44.697-5.991
		C172.188,133.501,150.029,130.494,162.857,114.327L162.857,114.327z"/>
	<path style="fill:#CBC6C9;" d="M272.262,120.763c1.521,14.215-9.784,27.195-26.088,28.976c-3.957,0.423-8.2,0.19-12.654-0.818
		c-23.107-5.422-26.912,1.322-45.089-6.112c-12.726-5.718-29.538-7.504-31.708-18.968c-0.342-3.37,1.074-6.888,4.083-10.741
		c0.704-1.542,3.896-7.407,11.696-8.314c1.019-0.109,2.123-0.136,3.272-0.042c3.125,0.263,7.339,0.21,11.563-0.241
		c7.913-0.684,15.83-3.505,16.979-6.308c1.066-1.888,2.28-3.412,4.403-3.694c5.749,0.579,6.596,6.465,8.819,7.115
		c0.553,0.412,3.662,0.892,6.895,0.475c5.079-0.435,10.672-2.825,11.699-5.418c1.022-2.099,2.698-3.709,4.777-3.915
		c4.975-0.043,7.607,4.582,8.873,5.931c1.712,0.271,15.153-1.041,21.019,16.04C271.574,116.71,272.064,118.757,272.262,120.763
		L272.262,120.763z M246.752,102.363c-1.248-1.678-4.535-4.983-5.232-4.909l-0.103,0.047c0.002,0.019-0.282-0.079-1.004,1.285
		c-2.865,5.376-9.644,7.332-15.473,8.046c-3.89,0.362-7.252,0.251-9.804-1.105c-2.135-1.348-3.395-3.294-4.547-4.746
		c-0.544-0.703-1.059-1.264-1.378-1.556c-0.177,0.201-0.413,0.551-0.703,1.054c-3.555,5.867-12.266,7.704-20.665,8.749
		c-4.53,0.484-8.941,0.558-12.467,0.265c-0.838-0.056-1.634-0.043-2.367,0.035c-2.94,0.278-4.905,1.702-6.138,3.047
		c-1.232,1.345-1.73,2.63-1.784,2.617l-2.232-0.883l1.877,1.482c-2.758,3.481-3.453,5.946-3.283,7.541
		c-0.35,5.541,15.121,9.842,28.792,15.079c16.144,6.856,19.659,0.287,44.341,5.886c3.952,0.898,7.665,1.08,11.086,0.713
		c14.067-1.522,23.055-12.479,21.867-23.743c-0.17-1.592-0.562-3.216-1.174-4.872c-3.192-8.348-7.141-10.896-10.487-12.041
		C252.188,102.903,250.249,104.561,246.752,102.363L246.752,102.363z"/>
	<path style="fill:#D8CDCE;" d="M250.158,103.571c0.037,0.113,0.068,0.226,0.092,0.337l0.127,0.512
		c0.572,20.107-19.446,32.332-31.719,37.508c2.408,0.14,5.097,0.403,8.189,0.881c15.727-6.7,25.936-28.669,24.644-35.087
		c-0.277-1.389-0.131-2.008,0.295-2.052c1.579-0.169,7.001,7.53,9.034,12.933c4.97,13.225-4.719,24.465-21.446,26.255
		c-0.334,0.036-0.67,0.066-1.011,0.095c2.558,0.302,4.998,0.306,7.304,0.059c14.067-1.522,23.055-12.479,21.867-23.743
		c-0.17-1.592-0.562-3.216-1.174-4.872c-3.192-8.348-7.141-10.896-10.487-12.041C253.549,103.441,251.921,103.761,250.158,103.571
		L250.158,103.571z M235.907,103.438c-3.217,1.996-7.28,2.946-10.966,3.396c-2.941,0.273-5.581,0.277-7.797-0.325
		c-0.819,2.208-8.173,19.829-32.722,22.456c-5.552,0.594-11.982,0.42-19.415-0.871c5.313,3.477,15.71,6.671,25.234,10.319
		c6.42,2.727,10.845,3.331,15.396,3.42c-7.694-1.522-23.7-7.333-23.748-7.343c1.208-0.019,2.387-0.092,3.537-0.215
		c21.095-2.257,32.427-21.042,34.604-24.76c1.078-1.856,4.146-2.2,7.302-2.538c0.064-0.007,0.129-0.014,0.193-0.021
		c3.456-0.37,6.981-0.747,8.129-3.062C235.734,103.735,235.818,103.584,235.907,103.438L235.907,103.438z M241.52,97.455
		l-0.103,0.047c0.002,0.019-0.282-0.079-1.004,1.285c-0.489,0.917-1.091,1.734-1.784,2.462c0.246-0.073,0.495-0.125,0.74-0.151
		c1.925-0.206,3.781,1.004,3.978,3.439c0.748,9.501-10.176,24.055-34.126,37.289c2.039-0.027,4.201-0.076,6.654-0.015
		c9.801-4.408,27.554-14.532,30.806-36.398l-0.197-1.845c-0.045-0.512,0.083-0.891,0.33-1.168c-0.021-0.013-0.04-0.026-0.061-0.038
		C245.504,100.686,242.217,97.38,241.52,97.455L241.52,97.455z M176.274,125.609c-0.159,0.017-0.312,0.031-0.454,0.042
		c-6.087,0.47-6.426-4.056-2.886-8.021c0,0,2.09-5.249,8.226-5.906c0.726-0.078,1.507-0.09,2.35-0.023
		c2.751,0.214,6.316,0.166,9.925-0.221c6.784-0.726,13.72-2.643,15.711-6.235c0.749-1.378,1.438-1.961,2.101-2.032
		c0.741-0.079,1.446,0.481,2.166,1.286C206.168,118.629,183.021,124.887,176.274,125.609L176.274,125.609z M209.21,99.427
		c-0.177,0.201-0.413,0.551-0.703,1.054c-3.555,5.867-12.266,7.704-20.665,8.749c-4.53,0.484-8.941,0.558-12.467,0.265
		c-0.838-0.056-1.634-0.043-2.367,0.035c-0.042,0.004-0.086,0.008-0.129,0.013c-2.87,0.307-4.795,1.709-6.009,3.034
		c-1.223,1.335-1.72,2.61-1.784,2.617l0,0l-2.224-0.881l0,0.003l1.87,1.478c-2.758,3.481-3.453,5.946-3.283,7.541
		c-0.092,1.454,0.907,2.824,2.675,4.147c0.471,0.027,0.98,0.052,1.522,0.075c3.198,0.13,7.6,0.131,12.484-0.391
		c12.894-1.38,29.159-6.414,35.526-22.383c0.02-0.045,0.038-0.089,0.058-0.132c-1.325-1.191-2.257-2.571-3.126-3.667
		C210.044,100.28,209.53,99.719,209.21,99.427L209.21,99.427z"/>
	<path style="fill:#B6ACB0;" d="M160.532,127.208c3.08,4.121,10.49,6.776,18.473,9.584c3.441,1.206,6.978,2.44,10.332,3.837
		c0.551,0.231,1.058,0.412,1.587,0.627c7.876,3.013,12.895,3.056,18.789,2.968c0.161-0.002,0.324-0.005,0.486-0.008
		c1.067-0.48,3.096-1.243,5.676-2.405c-2.454-0.062-4.615-0.013-6.654,0.015c-0.22,0.123-0.442,0.246-0.665,0.367
		c-0.708,0.012-1.709-0.121-2.918-0.36c-4.552-0.089-8.976-0.693-15.396-3.42c-9.524-3.648-19.921-6.842-25.234-10.319
		C163.551,127.841,162.063,127.546,160.532,127.208L160.532,127.208z M208.951,96.894c-0.8,0.086-1.638,0.795-2.554,2.473
		c-2.379,4.336-10.701,6.649-18.854,7.521c-4.36,0.466-8.673,0.52-12.002,0.252c-1.003-0.082-1.935-0.065-2.8,0.027
		c-7.365,0.788-9.902,7.162-9.902,7.162c-4.472,5.642-4.68,9.683-2.325,12.853c0.403,0.042,1.685,0.185,3.611,0.299
		c-1.768-1.323-2.767-2.693-2.675-4.147c-0.17-1.595,0.524-4.06,3.283-7.541l-1.87-1.478l-0.008-0.005l0.008,0.002l2.224,0.881l0,0
		c0.064-0.007,0.561-1.282,1.784-2.617c1.214-1.325,3.14-2.728,6.009-3.034c0.042-0.005,0.086-0.009,0.129-0.013
		c0.733-0.078,1.529-0.091,2.367-0.035c3.526,0.292,7.937,0.219,12.467-0.265c8.398-1.044,17.109-2.882,20.665-8.749
		c0.29-0.502,0.526-0.853,0.703-1.054c0.32,0.292,0.834,0.853,1.378,1.556c0.87,1.095,1.802,2.476,3.126,3.667
		c0.311-0.681,0.887-1.13,1.519-1.197c0.273-0.029,0.554,0.01,0.829,0.131c0.987,0.401,1.513,1.612,1.16,2.701
		c-0.004,0.014-0.029,0.091-0.08,0.226c2.216,0.602,4.856,0.598,7.797,0.325c3.686-0.45,7.75-1.4,10.966-3.396
		c0.705-1.162,1.694-1.881,2.722-2.188c0.693-0.728,1.295-1.546,1.784-2.462c0.722-1.364,1.006-1.267,1.004-1.285l0.103-0.047
		c0.697-0.075,3.984,3.231,5.232,4.909c0.021,0.011,0.04,0.025,0.061,0.038c0.282-0.316,0.72-0.5,1.238-0.594
		c0.027-0.004,0.054-0.009,0.08-0.012c0.864-0.092,1.701,0.829,2.027,1.776c1.763,0.189,3.391-0.13,5.716,0.786
		c3.347,1.145,7.295,3.692,10.487,12.041c0.611,1.655,1.004,3.279,1.174,4.872c1.188,11.264-7.8,22.221-21.867,23.743
		c-2.306,0.247-4.746,0.243-7.304-0.059c-1.455,0.12-2.959,0.171-4.512,0.147c-2.864-0.038-8.838-1.553-7.78-1.974
		c0.259-0.102,0.518-0.207,0.775-0.317c-3.092-0.478-5.781-0.741-8.189-0.881c-2.444,1.03-4.583,1.782-6.188,2.259
		c3.128-0.023,6.637,0.052,10.969,0.561c3.062,0.361,6.508,0.933,10.593,1.873c4.187,0.966,8.168,1.185,11.856,0.79
		c17.358-1.857,28.155-17.273,22.684-31.847c-4.382-11.662-11.028-13.686-15.517-14.201c-2.331-0.276-4.106-0.123-4.637-0.682
		c-0.605-0.586-1.726-2.079-3.058-3.367c-1.281-1.252-2.776-2.312-4.206-2.158c-1.028,0.11-2.023,0.848-2.881,2.591
		c-2.002,3.998-8.165,6.149-13.6,6.731c-0.809,0.087-1.601,0.138-2.358,0.156c-2.583,0.059-4.792-0.267-5.991-0.971
		c-0.636-0.367-1.221-0.919-1.794-1.547C212.493,99.9,210.821,96.693,208.951,96.894L208.951,96.894z"/>
	<path style="fill:#BEAFB1;" d="M213.715,104.649c0.428,0.384,0.898,0.751,1.421,1.08c0.622,0.331,1.293,0.586,2.007,0.78
		c-0.819,2.208-8.173,19.829-32.722,22.456c-5.552,0.594-11.982,0.42-19.415-0.871c-0.313-0.204-0.606-0.409-0.882-0.613
		c0.471,0.027,0.98,0.052,1.522,0.075c3.198,0.13,7.6,0.131,12.484-0.391c12.894-1.38,29.159-6.414,35.526-22.383
		C213.678,104.736,213.696,104.692,213.715,104.649L213.715,104.649z"/>
	<path style="fill:#A09398;" d="M160.514,127.182c0.007,0.009,0.011,0.017,0.018,0.026c1.532,0.339,3.019,0.633,4.475,0.886
		c-0.313-0.204-0.606-0.409-0.882-0.613C162.199,127.367,160.917,127.223,160.514,127.182L160.514,127.182z M215.234,103.452
		c-0.632,0.067-1.208,0.516-1.519,1.197c0.428,0.384,0.898,0.751,1.421,1.08c0.622,0.331,1.293,0.586,2.007,0.78
		c0.051-0.134,0.076-0.211,0.08-0.226c0.353-1.088-0.173-2.299-1.16-2.701C215.789,103.462,215.507,103.422,215.234,103.452
		L215.234,103.452z"/>
	<path style="fill:#BEAFB1;" d="M246.813,102.401c1.264,0.781,2.327,1.062,3.345,1.17c0.037,0.113,0.068,0.226,0.092,0.337
		l0.127,0.512c0.572,20.107-19.446,32.332-31.719,37.508c-0.971-0.057-1.897-0.093-2.784-0.116
		c9.801-4.408,27.554-14.532,30.806-36.398l-0.197-1.845C246.439,103.057,246.566,102.678,246.813,102.401L246.813,102.401z"/>
	<path style="fill:#A09398;" d="M215.875,141.812c-2.58,1.162-4.608,1.925-5.676,2.405c0.738-0.012,1.494-0.024,2.272-0.03
		c1.605-0.477,3.743-1.229,6.188-2.259C217.688,141.871,216.762,141.835,215.875,141.812L215.875,141.812z M248.131,101.795
		c-0.025,0.003-0.052,0.008-0.08,0.012c-0.518,0.094-0.956,0.278-1.238,0.594c1.264,0.781,2.327,1.062,3.345,1.17
		C249.832,102.624,248.995,101.703,248.131,101.795L248.131,101.795z"/>
	<path style="fill:#F9EAEA;" d="M187.393,70.552c0.856-0.092,1.633,0.079,2.237,0.55c1.854,1.431,1.348,5.161-1.119,8.321
		c-1.66,2.139-3.794,3.466-5.576,3.657c-0.851,0.091-1.621-0.078-2.221-0.541c-1.859-1.449-1.369-5.177,1.098-8.338
		C183.479,72.069,185.61,70.743,187.393,70.552L187.393,70.552z"/>
	<path style="fill:#F9EAEA;" d="M179.25,85.449c1.791-0.191,3.395,1.085,3.586,2.875c0.191,1.791-1.104,3.396-2.895,3.587
		c-1.791,0.191-3.396-1.103-3.588-2.894C176.163,87.229,177.46,85.641,179.25,85.449L179.25,85.449z"/>
</g>
</svg>
