<?xml version="1.0" encoding="iso-8859-1"?>
<!-- Generator: Adobe Illustrator 16.0.0, SVG Export Plug-In . SVG Version: 6.00 Build 0)  -->
<!DOCTYPE svg PUBLIC "-//W3C//DTD SVG 1.1//EN" "http://www.w3.org/Graphics/SVG/1.1/DTD/svg11.dtd">
<svg version="1.1" id="Plate" xmlns="http://www.w3.org/2000/svg" xmlns:xlink="http://www.w3.org/1999/xlink" x="0px" y="0px"
	 width="539px" height="414.691px" viewBox="0 0 539 414.691" style="enable-background:new 0 0 539 414.691;" xml:space="preserve"
	>
<g>
	<g>
		<path style="fill:#C9E1E5;" d="M9.979,315.482v3.594c0,50.567,116.885,87.965,261.071,87.965
			c144.187,0,261.072-37.397,261.072-87.965v-4.277L9.979,315.482z"/>
		<path style="fill:#1D1D1B;" d="M10.08,315.583c0.016,1.506,0.003,3.019,0.046,4.518c0.059,1.533,0.226,3.062,0.499,4.571
			c0.545,3.019,1.517,5.952,2.815,8.727c2.609,5.56,6.464,10.453,10.829,14.747c4.378,4.3,9.286,8.037,14.423,11.394
			c5.14,3.36,10.519,6.351,16.031,9.065c11.035,5.422,22.569,9.789,34.281,13.533c11.725,3.725,23.64,6.842,35.652,9.509
			c24.038,5.309,48.455,8.823,72.965,11.118c24.511,2.361,49.142,3.41,73.769,3.506c24.63,0.085,49.271-0.899,73.808-3.14
			c24.532-2.238,48.959-5.84,73.016-11.167c12.015-2.715,23.923-5.913,35.625-9.744c11.692-3.844,23.198-8.315,34.184-13.848
			c5.486-2.771,10.838-5.814,15.932-9.24c5.085-3.43,9.93-7.24,14.214-11.609c4.271-4.361,7.992-9.322,10.424-14.896
			c1.213-2.78,2.084-5.707,2.53-8.697c0.224-1.495,0.342-3.005,0.353-4.515l-0.011-4.616l0.658,0.657l-130.535,0.492l-65.268,0.165
			l-65.269,0.049c-43.512,0.089-87.024-0.095-130.536-0.155l-65.268-0.13L10.08,315.583z M9.879,315.383l65.367-0.466l65.268-0.301
			c43.512-0.175,87.023-0.472,130.536-0.497l65.267-0.122l65.269-0.006l130.536,0.15h0.661l-0.003,0.657l-0.018,4.629
			c-0.021,1.571-0.154,3.141-0.396,4.691c-0.483,3.104-1.407,6.13-2.676,8.989c-2.544,5.734-6.39,10.768-10.747,15.176
			c-4.372,4.418-9.285,8.245-14.429,11.681c-5.152,3.432-10.551,6.469-16.077,9.23c-11.065,5.511-22.626,9.942-34.362,13.743
			c-11.745,3.794-23.691,6.925-35.727,9.617c-24.066,5.449-48.521,9.021-73.06,11.502c-24.548,2.451-49.222,3.64-73.895,3.753
			c-49.321,0.109-98.835-3.92-147.076-14.64c-12.045-2.706-23.996-5.876-35.734-9.729c-11.732-3.852-23.285-8.329-34.342-13.868
			c-11.01-5.557-21.682-12.155-30.457-20.942c-4.349-4.393-8.182-9.391-10.747-15.048c-1.276-2.823-2.22-5.802-2.729-8.857
			c-0.256-1.527-0.404-3.071-0.443-4.618c-0.024-1.548,0.011-3.084,0.013-4.626L9.879,315.383z"/>
	</g>
	<g>
		<path style="fill:#E9F2F3;" d="M532.122,316.564c0,45.589-116.885,84.518-261.072,84.518
			c-144.186,0-261.071-38.929-261.071-84.518c0-37.63,116.885-70.732,261.071-70.732
			C415.237,245.832,532.122,270.975,532.122,316.564z"/>
		<path style="fill:#1D1D1B;" d="M532.222,316.565c0.036,6.015-2.11,11.876-5.35,16.879c-3.245,5.037-7.472,9.364-12.041,13.199
			c-9.204,7.658-19.77,13.454-30.562,18.517c-10.839,5.021-22.066,9.162-33.45,12.761c-11.39,3.592-22.949,6.632-34.599,9.259
			c-23.3,5.271-46.97,8.796-70.727,11.201c-23.765,2.402-47.653,3.441-71.529,3.524c-47.741-0.023-95.557-4.142-142.326-13.782
			c-11.684-2.438-23.274-5.32-34.739-8.641c-11.459-3.335-22.784-7.184-33.787-11.844c-10.978-4.683-21.714-10.119-31.426-17.159
			c-4.832-3.532-9.406-7.484-13.281-12.1c-3.852-4.596-7.026-9.954-8.335-15.921c-0.626-2.965-0.902-6.047-0.394-9.098
			c0.506-3.038,1.742-5.903,3.355-8.478c3.269-5.16,7.854-9.255,12.685-12.803c4.864-3.541,10.086-6.533,15.436-9.226
			c5.357-2.685,10.86-5.058,16.437-7.223c11.162-4.319,22.61-7.83,34.167-10.873c11.561-3.038,23.25-5.551,34.994-7.735
			c47.016-8.616,94.848-12.13,142.591-12.222c23.873,0,47.753,0.597,71.58,2.178c23.821,1.587,47.609,3.961,71.189,7.763
			c11.788,1.896,23.524,4.134,35.15,6.86c11.62,2.734,23.143,5.95,34.369,10.03c11.181,4.131,22.231,8.954,32.031,15.843
			c4.859,3.457,9.409,7.472,12.897,12.353c1.733,2.437,3.18,5.093,4.167,7.922C531.716,310.577,532.23,313.571,532.222,316.565z
			 M532.022,316.563c-0.004-2.971-0.527-5.936-1.52-8.733c-0.99-2.802-2.436-5.43-4.166-7.842
			c-3.482-4.831-8.022-8.807-12.875-12.229c-4.874-3.419-10.107-6.302-15.482-8.857c-5.379-2.559-10.919-4.767-16.536-6.745
			c-11.239-3.955-22.767-7.046-34.388-9.655c-11.627-2.604-23.364-4.696-35.146-6.458c-23.574-3.481-47.318-5.747-71.105-7.162
			c-23.79-1.394-47.624-2.078-71.458-2.017c-23.828,0.047-47.651,1.037-71.4,2.933c-23.745,1.917-47.421,4.812-70.854,9.076
			c-11.715,2.135-23.361,4.64-34.893,7.586c-11.525,2.959-22.941,6.383-34.056,10.606c-5.554,2.116-11.03,4.438-16.353,7.065
			c-5.315,2.633-10.496,5.562-15.3,9.015c-4.771,3.456-9.271,7.444-12.437,12.38c-1.563,2.461-2.748,5.174-3.241,8.028
			c-0.496,2.842-0.256,5.818,0.331,8.672c1.231,5.742,4.284,10.975,8.046,15.501c3.782,4.546,8.283,8.474,13.055,11.993
			c9.593,7.02,20.259,12.482,31.178,17.195c21.924,9.345,45.032,15.71,68.359,20.529c23.348,4.825,47.013,8.031,70.759,10.063
			c23.75,2.038,47.592,2.895,71.42,2.739c23.83-0.097,47.648-1.341,71.366-3.592c23.714-2.275,47.321-5.749,70.626-10.703
			c11.646-2.499,23.21-5.406,34.606-8.875c11.392-3.476,22.633-7.494,33.494-12.393c5.428-2.451,10.756-5.133,15.891-8.15
			c5.134-3.015,10.097-6.341,14.678-10.144c4.565-3.804,8.787-8.096,12.03-13.091C529.887,328.339,532.035,322.538,532.022,316.563z
			"/>
	</g>
	<path style="fill:#FFFFFF;" d="M519.776,315.637c0,43.435-111.357,80.612-248.726,80.612c-137.368,0-248.727-37.178-248.727-80.612
		c0-36.702,111.359-66.83,248.727-66.83C408.419,248.807,519.776,272.205,519.776,315.637z"/>
	<path style="fill:#9CC9D3;" d="M452.863,323.384v-4.438c0-35.219-81.401-47.062-181.814-47.062
		c-100.412,0-181.812,11.843-181.812,47.062v4.914L452.863,323.384z"/>
	<path style="fill:#C9E1E5;" d="M89.238,322.631c0-31.749,81.4-42.719,181.812-42.719c100.413,0,181.814,10.97,181.814,42.719
		c0,31.748-81.401,59.454-181.814,59.454C170.638,382.085,89.238,354.379,89.238,322.631z"/>
	<path style="fill:#E9F2F3;" d="M89.238,322.631c0-31.749,81.4-42.719,181.812-42.719c100.413,0,181.814,10.97,181.814,42.719
		c0,31.748-81.401,59.454-181.814,59.454C170.638,382.085,89.238,354.379,89.238,322.631z"/>
	<path style="fill:#FFFFFF;" d="M88.882,316.803c0-31.467,81.56-42.339,182.167-42.339c100.61,0,182.17,10.872,182.17,42.339
		c0,31.463-81.56,58.923-182.17,58.923C170.441,375.726,88.882,348.266,88.882,316.803z"/>
	<path style="fill:#E9F2F3;" d="M428.234,297.47c1.42,0.57,2.784,1.157,4.094,1.76C431.124,298.412,429.736,297.855,428.234,297.47z
		"/>
	<path style="fill:none;stroke:#008EA0;stroke-width:2;stroke-miterlimit:10;" d="M477.774,321.036
		c0,34.734-92.729,67.617-207.115,67.617S63.544,355.771,63.544,321.036c0-34.735,92.729-56.593,207.115-56.593
		S477.774,286.301,477.774,321.036z"/>
</g>
<path style="fill:#C6C4BE;" d="M102.6,322.276c0,0-17.999,18,0,23.999s62.997,4.499,73.497,4.499s181.492-4.5,206.99-1.5
	s101.615,3.011,70.307-28.493s-307.295-28.504-307.295-28.504L102.6,322.276z"/>
<path style="fill:#D19657;" d="M127.871,327.975c8.771,5.589,49.098,16.354,88.907,14.145c39.771-2.248,44.866-2.979,141.387,1.479
	c96.54,4.458,79.598-1.479,89.771-4.458c10.154-2.98,7.617-29.021,9.31-49.858c1.69-20.838-5.077-39.439-1.692-51.337
	c3.383-11.896,5.077-12.667-2.54-32.745c-7.614-20.08-5.077-32.732-5.077-32.732s-172.518-23.973-238.574-31.411
	c-66.04-7.438-94.83-17.112-97.369,6.706c-2.557,23.805-10.171,43.885-4.23,75.873C113.685,255.636,114.082,319.214,127.871,327.975
	L127.871,327.975z"/>
<path style="fill:#A07442;" d="M448.836,340.706c-5.132,1.247-1.709,6.206-32.713,6.206c-1.153,0-2.343,0-3.583-0.015
	c-12.28-0.013-29.671-0.461-54.499-1.617c-50.935-2.364-76.393-3.251-94.83-3.251c-16.492,0-27.438,0.707-46.235,1.784
	c-3.673,0.194-7.38,0.284-11.054,0.284c-36.693-0.077-70.595-9.263-79.635-14.863v0.014c-8.191-5.64-10.98-23.433-13.79-44.591
	c-2.574-21.03-4.142-44.927-7.093-60.791c-1.604-8.685-2.232-16.496-2.232-23.728c0.016-19.746,4.607-35.253,6.464-52.52
	c0.863-11.908,10.207-16.982,25.115-16.674c16.312,0.025,40.528,4.561,74.987,8.428c66.166,7.451,238.629,31.424,238.648,31.424
	c1.241,0.166,2.089,1.014,1.908,1.9c0,0-0.361,1.863-0.361,5.484c0,5.447,9.548-14.412,14.066-2.49
	c3.979,10.445-3.19,44.86-3.19,49.445c0,4.213-1.314,7.49-2.917,13.131c-0.631,2.298-0.9,4.921-0.9,7.836
	c0,9.596,2.917,22.172,2.935,36.112c-0.018,2.349-0.107,4.727-0.287,7.156c-0.849,10.329-0.648,22.044-1.494,31.641
	C457.027,330.559,456.037,338.149,448.836,340.706L448.836,340.706z M445.164,178.182c0-1.875,0.09-3.34,0.197-4.342
	c-19.932-2.762-174.66-24.15-236.36-31.113c-34.624-3.919-59.09-8.39-74.25-8.363c-13.755,0.281-18.761,2.696-20.382,13.514
	c-1.891,17.575-6.428,32.9-6.41,52.262c0,7.09,0.613,14.748,2.161,23.277c2.988,16.123,4.573,40.005,7.13,60.945
	c2.322,20.836,6.625,39.208,12.206,42.33c6.951,4.571,41.123,14.105,76.466,14.015c3.566,0,7.129-0.103,10.676-0.296
	c18.743-1.053,29.907-1.785,46.613-1.785c18.672,0,44.184,0.913,95.135,3.264c24.793,1.157,42.076,1.605,54.194,1.605
	c35.702-0.399,24.736-2.825,34.478-5.936c2.972-0.411,5.779-7.323,6.375-16.777c0.845-9.379,0.629-21.107,1.474-31.604
	c0.181-2.336,0.271-4.677,0.271-6.962c0.019-13.605-2.898-26.054-2.916-36.112c0-3.059,0.27-5.91,1.008-8.491
	c1.657-5.795,2.827-8.841,2.808-12.476c0.02-3.994-1.35-9.095-5.33-19.488C446.082,193.432,445.164,183.886,445.164,178.182
	L445.164,178.182z"/>
<path style="fill:#C68346;" d="M162.642,271.684c4.798,0,10.973-0.271,17.894-0.54c6.971-0.277,14.699-0.556,22.554-0.556
	c12.58,0,25.479,0.711,36.087,3.265c5.352,1.289,10.823,1.777,16.35,1.777c8.682,0,17.492-1.207,26.139-2.406
	c8.656-1.21,17.144-2.415,25.187-2.415c6.933,0,13.532,0.897,19.61,3.468c6.418,2.713,12.732,3.646,18.926,3.646
	c6.855,0,13.562-1.145,20.09-2.285c6.526-1.142,12.87-2.281,18.996-2.281c3.507,0,6.941,0.373,10.296,1.332
	c8.404,2.403,18.099,3.109,26.592,3.109c12.124,0,21.804-1.44,21.804-1.44c0.786-0.387,1.442-0.568,1.988-0.568
	c7.677,0-7.114,36.213-5.787,45.172c1.441,9.584-6.176,12.076-17.553,14.581c-4.031,0.889-15.191,1.462-29.877,1.462
	c-26.782,0-65.265-1.909-93.455-7.294c-11.003-2.101-22.251-2.822-33.491-2.821c-12.407,0-24.807,0.88-36.851,1.755
	c-12.035,0.884-23.713,1.763-34.711,1.763c-7.559,0-14.8-0.416-21.605-1.531c-35.576-5.831-29.87-38.347-37.469-51.271
	c-4.214-7.179-0.519-9.336,5.143-9.336c4.519,0,10.289,1.375,14.285,2.669C155.498,271.489,158.577,271.684,162.642,271.684
	L162.642,271.684z M140.697,254.373c-7.096,0-13.743,1.479-18.594,2.644c2.002,13.861,4.965,30.228,4.978,37.313
	c-0.179,9.982,5.401,29.625,11.197,33.812c2.845,2.198,8.841,4.278,14.152,6.142c0.286,0.112,0.573,0.224,0.857,0.331
	c14.239,3.29,32.997,6.093,52.136,6.093c0.164,0,0.334-0.001,0.498-0.001c3.566,0,7.129-0.103,10.676-0.296
	c18.743-1.053,29.907-1.785,46.613-1.785c18.672,0,44.184,0.913,95.135,3.264c24.793,1.157,42.076,1.605,54.194,1.605
	c35.702-0.399,24.736-2.825,34.478-5.936c2.972-0.411,5.779-7.323,6.375-16.777c0.845-9.379,0.629-21.107,1.474-31.604
	c0.181-2.336,0.271-4.677,0.271-6.962c0.009-6.436-0.64-12.61-1.328-18.399c-3.814,0.092-11.856,0.255-21.038,0.255
	c-12.806,0-27.83-0.316-36.706-1.588c-2.521-0.361-5.245-0.505-8.125-0.505c-5.306,0-11.138,0.483-17.172,0.967
	c-6.005,0.48-12.21,0.959-18.286,0.959c-7.747,0-15.284-0.78-21.936-3.336c-6.517-2.499-14.055-3.256-21.915-3.256
	c-6.034,0-12.261,0.446-18.358,0.893c-6.091,0.444-12.059,0.89-17.596,0.89c-3.744,0-7.291-0.203-10.547-0.749
	c-8.293-1.376-15.844-2.039-23.643-2.039c-10.25,0-20.93,1.144-34.295,3.312c-5.229,0.848-10.208,1.193-14.953,1.193
	c-16.602,0-30.33-4.23-41.869-5.96C145.131,254.517,142.893,254.373,140.697,254.373L140.697,254.373z M151.116,235.798
	c-13.622,0-23.891,2.622-23.891,2.622c-2.644,1.186-4.928,1.902-6.893,2.227c0.105,3.247,0.564,7.516,1.197,12.258
	c4.69-1.464,16.687-3.302,27.546-3.302c4.911,0,9.59,0.373,13.257,1.331c10.474,2.718,24.097,5.437,36.232,5.437
	c2.72,0,5.362-0.136,7.878-0.439c11.908-1.443,24.85-3.502,35.806-3.502c1.717,0,3.384,0.051,4.991,0.163
	c8.047,0.574,18.273,2.478,30.092,2.478c5.608,0,11.573-0.428,17.836-1.631c4.785-0.926,9.426-1.296,13.834-1.296
	c13.489,0,24.781,3.465,31.215,5.035c4.698,1.143,13.404,1.786,22.341,1.786c7.327,0,14.809-0.432,20.364-1.375
	c3.218-0.544,5.629-0.773,7.678-0.773c5.804,0,8.713,1.851,18.88,3.702c4.136,0.748,8.483,1.011,12.76,1.011
	c9.966,0,19.549-1.422,25.191-1.422c2.752,0,4.562-0.922,5.662-2.284c-0.419-3.627-0.764-7.062-0.85-10.272
	c-1.623-1.1-4.674-1.303-8.719-1.303c-1.211,0-2.51,0.019-3.888,0.036c-1.39,0.021-2.856,0.041-4.392,0.041
	c-3.127,0-6.535-0.082-10.12-0.4c-1.5-0.132-2.949-0.188-4.363-0.188c-4.544,0-8.698,0.586-12.777,1.164
	c-4.065,0.579-8.053,1.163-12.274,1.163c-2.714,0-5.526-0.242-8.521-0.881c-3.253-0.692-6.641-0.964-10.078-0.964
	c-11.097,0-22.729,2.828-32.158,3.457c-1.649,0.114-3.758,0.167-6.205,0.167c-15.837,0-45.905-2.227-57.819-4.753
	c-8.719-1.846-15.901-3.193-23.849-3.193c-4.606,0-9.471,0.453-15.04,1.522c-6.689,1.284-15.306,2.246-24.918,2.246
	c-12.221,0-26.056-1.556-39.609-5.984C168.497,236.727,159.213,235.798,151.116,235.798L151.116,235.798z M178.971,174.835
	c4.906,0,9.408-0.833,14.33-1.663c4.93-0.832,10.282-1.664,16.891-1.664c6.033,0,13.113,0.693,21.871,2.718
	c13.805,3.188,20.311,3.764,25.871,3.764c1.541,0,3.01-0.044,4.539-0.089c1.558-0.047,3.18-0.092,5.011-0.092
	c6.847,0,16.603,0.644,36.688,4.344c14.632,2.695,24.069,3.521,31.243,3.521c5.65,0,9.896-0.513,14.164-1.028
	c4.267-0.508,8.564-1.018,14.329-1.018c6.061,0,13.742,0.564,24.705,2.289c28.314,4.447,38.084,5.274,41.437,5.274
	c1.982,0,1.719-0.29,1.719-0.29c0.922-0.522,1.713-0.769,2.401-0.769c5.352,0,4.478,14.903,9.932,30.792
	c3.563,10.338,2.547,13.186-0.773,13.186c-2.436,0-6.115-1.533-10.138-2.768c-2.789-0.86-7.106-1.141-12.067-1.141
	c-4.669,0-9.908,0.249-14.975,0.499c-5.028,0.249-9.877,0.491-13.83,0.491c-2.177,0-4.081-0.072-5.596-0.262
	c-2.663-0.338-4.682-0.527-6.76-0.527c-5.71,0-11.878,1.428-33.102,5.102c-9.402,1.624-16.397,2.502-22.667,2.502
	c-13.022,0-22.908-3.783-44.689-12.508c-8.997-3.603-16.447-4.869-23.069-4.869c-7.86,0-14.55,1.785-21.272,3.57
	c-6.705,1.776-13.445,3.561-21.436,3.561c-1.43,0-2.903-0.057-4.42-0.182c-25.639-2.08-20.398-5.833-48.396-5.833
	c-27.979,0-24.199-1.657-25.152-12.499c-0.937-10.83,1.422-24.178,0-34.609c-0.728-5.385,0.956-7.76,5.971-7.76
	c4.675,0,12.243,2.065,23.448,5.679C170.4,174.242,174.83,174.835,178.971,174.835L178.971,174.835z M134.828,150.252
	c-0.044,0-0.09,0.002-0.133,0.002c-4.284,0.192-5.453,0.795-6.824,4.535c-2.412,7.708-9.233,9.918-9.216,21.916
	c0,3.752,0.701,8.491,2.465,14.582c2.378,8.182,3.224,14.721,3.224,20.271c-0.01,6.775-1.238,11.966-2.339,16.647
	c7.173,0.413,20.672,2.868,34.765,3.099c19.191,0.32,27.891,2.544,35.829,4.777c4.952,1.389,15.486,3.263,26.573,3.263
	c6.77,0,13.748-0.698,19.787-2.632c3.077-0.984,7.037-1.386,11.472-1.386c18.503,0,45.31,6.976,51.147,7.745
	c4.399,0.575,16.514,1.86,29.56,1.86c8.473,0,17.335-0.542,24.742-2.17c5.235-1.151,9.603-1.54,13.373-1.54
	c3.879,0,7.128,0.41,10.051,0.821c2.897,0.402,5.468,0.804,7.998,0.804c1.352,0,2.692-0.114,4.065-0.406
	c4.674-0.988,9.148-1.633,15.473-1.633c5.932,0,13.485,0.568,24.352,1.954c6.078,0.777,10.601,1.06,13.962,1.06
	c3.489,0,5.729-0.305,7.164-0.68c0.135-1.951,0.418-3.803,0.912-5.53c1.657-5.795,2.827-8.841,2.808-12.476
	c0.02-3.994,7.943-25.052,3.963-35.445c-3.186-8.417-13.907,0.393-14.487-5.105c-3.193-0.076-6.788-0.652-10.882-1.766
	c-12.956-3.585-46.01-7.336-60.849-7.336c-0.048,0-0.101,0-0.149,0c-15.682-0.064-65.88-2.852-79.797-7.604
	c-11.284-4.122-67.734-7.287-78.231-7.287c-0.105,0-0.207,0.002-0.303,0.002c-3.87,0-9.237,0.359-15.789,0.359
	c-9.868,0-22.507-0.834-37.575-4.92C148.977,152.469,139.982,150.252,134.828,150.252L134.828,150.252z"/>
<path style="fill:#976635;" d="M455.719,263.768c-0.395,0.011-1.041,0.028-1.909,0.049c0.688,5.789,1.337,11.964,1.328,18.399
	c0,2.285-0.091,4.626-0.271,6.962c-0.845,10.496-0.629,22.225-1.474,31.604c-0.596,9.454-3.403,16.366-6.375,16.777
	c-9.741,3.11,1.225,5.536-34.478,5.936c-12.118,0-29.401-0.448-54.194-1.605c-50.951-2.351-76.463-3.264-95.135-3.264
	c-16.706,0-27.87,0.732-46.613,1.785c-3.547,0.193-7.109,0.296-10.676,0.296c-0.164,0-0.334,0.001-0.498,0.001
	c-19.139,0-37.896-2.803-52.136-6.093c3.177,1.203,6.276,2.112,8.224,3.605c12.947,2.421,28.256,4.194,43.936,4.194
	c3.604,0,7.229-0.094,10.845-0.295c18.771-1.061,29.821-1.784,46.394-1.784c18.553,0,44.031,0.908,95.014,3.263
	c24.793,1.145,42.1,1.604,54.304,1.604c35.315,0,27.899-3.848,35.446-6.062c10.154-2.98,7.635-29.021,9.326-49.858
	C457.511,280.233,456.65,271.607,455.719,263.768L455.719,263.768z M452.243,247.55c0.086,3.21,0.431,6.646,0.85,10.272
	c1.08-1.337,1.475-3.1,1.397-4.834c-0.025-0.275-0.051-0.551-0.074-0.823c-0.182-1.389-0.65-2.711-1.295-3.724
	C452.905,248.093,452.61,247.799,452.243,247.55L452.243,247.55z"/>
<path style="fill:#754C28;" d="M414,138.691c24.557,12.642,49,27.295,49,34c0,6.693-7.617,6.81-11,12c-3.385,5.217,2.539-2.274-11-6
	c-13.558-3.712-52.138-4.903-67.367-4.903c-15.233,0-66.059-2.966-78.751-7.438c-12.693-4.457-69.425-7.438-79.599-7.438
	c-10.154,0-27.941,2.236-52.5-4.47c-24.558-6.681-34.712-8.929-37.252,0c-2.537,8.927-14.403,11.163-6.77,37.204
	c7.616,26.04-0.846,34.968-0.846,47.621c0,12.654,6.77,44.645,6.77,55.062c0,10.42,5.078,29.767,11.848,34.968
	c6.788,5.191,24.557,8.185,24.557,11.91c0,3.712-4.23,1.476-14.386,4.458c-5.077,1.49-8.46,0.564-12.495-0.374
	c-4.014-0.923-8.678-1.85-16.293-0.372c-15.25,2.981-29.652-0.745-31.326-11.149c-1.693-10.42,7.614-19.63,5.922-34.983
	c-1.691-15.353,7.617-49.845-2.537-69.193c-10.173-19.346-15.25-18.601-8.48-26.039s7.615-8.941,5.94-16.367
	c-1.692-7.45-0.863-13.41,1.675-15.621c2.557-2.235,10.191-2.235,7.635-16.38c-2.54-14.131-1.692-17.856,3.385-26.786
	c5.075-8.928,19.479-28.262,31.326-31.242c11.866-2.98,16.096-5.203,22.018-8.929C159.398,84.504,294.229,62.495,312,70.691
	c17.787,8.185,7.406,3.703,38,19C374,101.691,389.442,126.051,414,138.691z"/>
<path style="fill:#E9DCDA;" d="M454.854,241.779c0,0-1.221,3.842-23.668,0.983c-22.446-2.862-30.771-2.231-39.822-0.318
	c-9.052,1.914-16.647-3.827-35.48,0.318c-18.825,4.135-47.048,1.264-54.301,0.312c-7.232-0.949-46.701-11.444-62.63-6.356
	c-15.933,5.089-38.379,1.596-46.351-0.637c-7.941-2.229-16.638-4.46-35.826-4.773c-19.188-0.318-37.287-4.769-39.83-2.551
	c-2.521,2.232-5.059,28.954-2.169,29.593c2.894,0.636,17.737-5.727,32.587-3.502c14.84,2.224,33.305,8.591,56.83,4.774
	c23.529-3.817,38.743-4.463,57.932-1.272c19.188,3.182,48.508-5.41,68.422,2.225c19.916,7.634,47.794-0.631,65.521,1.913
	c17.745,2.545,60.091,1.262,60.091,1.262S458.448,255.646,454.854,241.779z"/>
<path style="fill:#603813;" d="M92.512,298.787c1.692,15.354-7.615,24.563-5.922,34.983c1.674,10.404,16.076,14.131,31.326,11.149
	c7.615-1.478,12.279-0.551,16.293,0.372c4.035,0.938,7.418,1.864,12.495,0.374c10.155-2.982,14.386-0.746,14.386-4.458
	c0-3.726-17.769-6.719-24.557-11.91c-6.77-5.201-11.848-24.548-11.848-34.968c0-6.833-2.899-22.919-4.897-36.754
	c6.212-1.491,16.871-4.329,27.583-2.725c14.835,2.222,33.291,8.581,56.822,4.767c23.53-3.814,38.746-4.458,57.938-1.272
	c8.066,1.349,17.933,0.605,28.143-0.141c14.042-1.027,28.752-2.057,40.273,2.363c11.865,4.56,26.558,3.47,40.222,2.377
	c9.309-0.745,18.131-1.49,25.297-0.462c17.752,2.542,60.099,1.271,60.099,1.271s2.286-8.106-1.314-21.98
	c0,0-1.226,3.853-23.658,0.988c-22.451-2.865-30.77-2.233-39.824-0.321c-3.944,0.835-7.617,0.22-12.063-0.397
	c-5.761-0.81-12.802-1.618-23.424,0.719c-18.814,4.137-47.046,1.26-54.302,0.31c-7.238-0.951-46.703-11.447-62.619-6.359
	c-15.934,5.099-38.383,1.605-46.36-0.631c-7.938-2.233-16.638-4.457-35.829-4.777c-15.898-0.259-31.039-3.354-37.197-3.148
	c1.982-8.568,4.484-18.396-0.811-36.51c-7.634-26.041,4.232-28.277,6.77-37.204c2.54-8.929,12.694-6.681,37.252,0
	c24.559,6.706,42.346,4.47,52.5,4.47c10.174,0,66.905,2.98,79.599,7.438c12.692,4.473,63.518,7.438,78.751,7.438
	c15.229,0,53.81,5.191,67.367,8.903c13.539,3.726,7.8,15.477,14,15c13-1,8-18.307,8-25c0-6.705-32.443-34.358-57-47
	c-24.558-12.641-46-44-94-55c-37.219-8.529-152.602,13.812-158.527,17.538c-5.922,3.726-10.151,5.948-22.018,8.929
	c-11.847,2.98-26.251,22.314-31.326,31.242c-5.077,8.93-5.925,12.655-3.385,26.786c2.557,14.145-5.078,14.145-7.635,16.38
	c-2.538,2.211-3.367,8.171-1.675,15.621c1.675,7.426,0.829,8.929-5.94,16.367s-1.692,6.693,8.48,26.039
	C100.129,248.942,90.82,283.435,92.512,298.787L92.512,298.787z M153.781,143.381c-18.022-9.583-25.603-5.408-17.535-14.17
	c8.064-8.748-13.757-15.416,9.018-23.33C168.039,97.955,283.648,72.283,305,77.691c21.336,5.422,25.277,6.397,62,37
	c12,10,19.914,10.581,37,21c17.068,10.432,21.125,24.365,31.567,26.035c10.442,1.656,19.931,3.75,21.839,7.09
	c0,0,4.25,6.668-7.131,5.82c-11.395-0.822-12.333,2.094-48.863-10.406c-19.912-6.821-29.671-4.714-41.283-2.607
	c-9.668,1.76-20.634,3.52-39.826,0.104c-42.221-7.504-38.907-7.914-92.037-10.42C175.152,148.803,171.822,152.965,153.781,143.381
	L153.781,143.381z M98.293,328.039c0.467-11.665,2.861-7.079,0.953-18.768c-1.891-11.667-2.844-31.244,2.375-45.428
	c5.205-14.169,0-32.502-7.111-45.438c-7.128-12.911-3.797-10.419,1.405-16.251c5.239-5.833-4.249-20.413,1.909-24.179
	c6.174-3.751,1.422-20.002,10.893-24.588c9.506-4.586-6.627,9.584-2.826,24.588c3.798,15.019,10.91,21.687,7.58,30.011
	c-3.313,8.337-12.316,42.112,13.755,30.433c0,0,26.105-6.668,50.286,1.26c24.215,7.914,49.332,6.653,64.527,3.738
	c15.176-2.916,25.115-1.246,38.889,1.671c13.756,2.916,51.709,5.435,64.024,4.586c12.35-0.822,28.481-5.423,42.236-2.493
	c7.651,1.633,14.116,0.669,20.796-0.282c5.348-0.758,10.82-1.529,17.141-0.976c5.348,0.477,10.298,0.424,14.512,0.359
	c7.021-0.09,12.026-0.194,13.484,2.158c2.377,3.739,2.377,11.665-5.69,11.665c-8.065,0-24.179,2.903-37.951,0.411
	c-13.756-2.504-14.225-5.011-26.558-2.929c-12.334,2.094-34.154,1.669-42.705-0.411c-8.536-2.082-25.623-7.503-45.049-3.739
	c-19.462,3.739-36.061,0-47.928-0.847c-11.863-0.823-27.023,1.669-40.797,3.339c-13.756,1.658-31.291-1.67-44.11-4.997
	c-12.802-3.34-37.954,0.397-42.222,2.505c-4.266,2.068-7.109,12.924-5.201,18.743c1.891,5.846,3.779,38.759,6.645,47.096
	c2.824,8.351-0.956,7.516,6.624,12.924c7.58,5.436-1.405,3.34-9.956,4.176C109.688,337.211,97.824,339.719,98.293,328.039
	L98.293,328.039z"/>
<g>
	<path style="fill:#BD2429;" d="M224.562,113.248c0,0-14.042-38.583,24.972-55.174c39.016-16.591,69.935,27.768,58.967,49.078
		C297.532,128.441,224.562,113.248,224.562,113.248L224.562,113.248z"/>
	<path style="fill:#9B1F21;" d="M310.612,108.244c-3.824,7.229-12.657,10.273-22.816,11.72c-25.981,3.503-63.589-4.395-63.717-4.396
		c-0.804-0.162-1.484-0.76-1.77-1.52c-0.037-0.124-1.323-3.69-2.073-9.165c-1.876-12.756-0.228-36.95,28.378-49.009
		c4.156-1.769,8.254-2.893,12.214-3.436c27.938-3.663,49.169,19.999,52.028,40.342C313.588,98.258,313.018,103.643,310.612,108.244
		L310.612,108.244z M308.13,93.428c-2.494-17.941-22.03-39.581-46.651-36.245c-3.55,0.486-7.212,1.478-10.991,3.086
		c-26.161,11.196-27.021,31.994-25.508,43.964c0.417,3.178,1.041,5.599,1.444,6.962c6.945,1.338,38.93,7.062,60.724,4.041
		c9.707-1.293,16.909-4.442,19.239-9.178C308.232,102.536,308.781,98.19,308.13,93.428L308.13,93.428z"/>
	<path style="fill:#A41418;" d="M274.105,57.622c18.423,3.833,31.975,21.067,34.024,35.807c0.218,1.591,0.301,3.137,0.247,4.621
		c-2.176-0.294-3.793-0.181-4.319-0.249c-1.305-1.311-4.072-5.856-9.043-5.667c-0.014,0.002-0.027,0.004-0.039,0.005
		c-2.053,0.281-3.665,1.931-4.621,4.048c-0.258,0.711-0.854,1.418-1.684,2.082C293.669,86.597,287.15,68.926,274.105,57.622
		L274.105,57.622z"/>
	<path style="fill:#871113;" d="M270.028,54.45c24.288,2.085,41.645,26.211,40.66,44.043c-0.816-0.207-1.595-0.348-2.311-0.444
		c0.054-1.483-0.029-3.029-0.247-4.621c-2.05-14.739-15.602-31.974-34.024-35.807C272.81,56.497,271.448,55.436,270.028,54.45
		L270.028,54.45z"/>
	<path style="fill:#5A3F1F;" d="M264.37,70.454c0.337-2.973-14.583-39.873,17.079-56.802c0,0,6.282,0.485,4.428-5.094
		c-1.877-5.613-5.449,0.273-9.943-5.853c-4.49-6.127-6.283-0.502-3.891,3.694c2.406,4.159-26.15,27.86-12.566,65.615
		C259.476,72.014,263.779,75.568,264.37,70.454L264.37,70.454z"/>
	<path style="fill:#BDB2A5;" d="M281.771,13.663c0.202,0.001,0.485-0.006,0.812-0.038C282.256,13.656,281.973,13.664,281.771,13.663
		L281.771,13.663z M284.098,13.299c-0.415,0.148-0.841,0.238-1.227,0.291l0,0C283.257,13.538,283.684,13.449,284.098,13.299
		L284.098,13.299z M286.182,9.859C286.183,9.86,286.182,9.859,286.182,9.859S286.183,9.86,286.182,9.859L286.182,9.859z"/>
	<path style="fill:#8C191B;" d="M262.621,73.185c-0.028,0.005-0.055,0.009-0.079,0.013l0,0
		C262.566,73.194,262.593,73.19,262.621,73.185L262.621,73.185z M259.757,72.226c0.335,0.237,0.928,0.613,1.583,0.827
		C260.685,72.839,260.092,72.462,259.757,72.226L259.757,72.226z M259.356,71.679c0.036,0.113,0.072,0.226,0.119,0.334
		C259.435,71.901,259.397,71.792,259.356,71.679L259.356,71.679z"/>
	<path style="fill:#432C14;" d="M282.777,5.837c1.265,0.063,2.312,0.43,3.099,2.72l0,0c0.021,0.059,0.04,0.118,0.059,0.176
		c0.124,0.408,0.205,0.783,0.247,1.126c0.001,0.001,0,0,0.001,0.001c0.254,2.05-0.87,3.002-2.085,3.439
		c-0.415,0.148-0.841,0.238-1.227,0.291c-0.098,0.013-0.195,0.025-0.288,0.034c-0.327,0.032-0.61,0.039-0.812,0.038
		c-0.202-0.001-0.322-0.011-0.322-0.011c-20.531,10.978-21.476,30.353-19.694,43.429c0.856,6.303,2.35,11.142,2.587,12.873
		c0.03,0.216,0.04,0.384,0.028,0.5c-0.217,1.872-0.932,2.583-1.749,2.731c-0.028,0.005-0.055,0.009-0.079,0.013
		c-0.395,0.054-0.808-0.016-1.202-0.145c-0.655-0.214-1.248-0.59-1.583-0.827c-0.177-0.125-0.281-0.212-0.281-0.212l0,0
		c-0.041-0.112-0.078-0.222-0.119-0.334c-0.068-0.225-0.128-0.45-0.216-0.656c0.182,0.02,0.363,0.02,0.542-0.004
		c0.848-0.116,1.596-0.796,1.828-2.719c0.343-2.954-14.601-39.869,17.064-56.799c0,0,0.635,0.05,1.439-0.06
		c1.733-0.238,4.255-1.216,2.987-5.035C282.919,6.2,282.841,6.029,282.777,5.837L282.777,5.837z"/>
	<path style="fill:#7E0406;" d="M272.122,67.575c0.19-0.026-0.714,1.924-2.547,4.001c-1.822,2.079-4.581,4.282-8.142,4.77
		c-2.555,0.35-5.522-0.184-8.854-2.279c-0.057-0.033-0.08-0.048-0.072-0.049c0.037-0.005,0.655,0.248,1.742,0.438
		c1.083,0.184,2.636,0.304,4.558,0.041c3.436-0.47,8.052-2.164,13.275-6.899C272.101,67.584,272.112,67.577,272.122,67.575
		L272.122,67.575z"/>
	<path style="fill:#F1EBEB;" d="M217.632,115.996c0,0,2.913-8.066,12.467-7.558c9.571,0.488,27.159-1.92,30.611-8.699
		c3.47-6.781,6.107,1.854,10.054,4.021c3.95,2.167,18.666,0.151,21.762-6.579c3.096-6.73,8.544,1.083,10.23,2.651
		s13.429-3.184,20.584,14.282c7.15,17.466-9.562,36.872-33.609,32.062c-24.047-4.812-27.501,1.948-44.854-4.67
		C227.524,134.886,205.286,132.534,217.632,115.996L217.632,115.996z"/>
	<path style="fill:#CBC6C9;" d="M327.179,119.203c1.939,14.164-8.978,27.472-25.222,29.732c-3.943,0.54-8.191,0.432-12.673-0.445
		c-23.256-4.738-26.861,2.115-45.25-4.78c-12.89-5.339-29.747-6.63-32.253-18.025c-0.441-3.358,0.87-6.917,3.765-10.856
		c0.658-1.562,3.676-7.519,11.445-8.656c1.015-0.139,2.118-0.198,3.27-0.138c3.131,0.171,7.342-0.006,11.551-0.582
		c7.889-0.917,15.72-3.971,16.785-6.806c1.01-1.918,2.178-3.477,4.292-3.822c5.763,0.409,6.784,6.268,9.024,6.852
		c0.565,0.395,3.687,0.783,6.907,0.271c5.062-0.585,10.584-3.139,11.534-5.761c0.96-2.128,2.587-3.788,4.66-4.054
		c4.971-0.189,7.738,4.356,9.043,5.667c1.72,0.22,15.116-1.487,21.482,15.414C326.372,115.171,326.924,117.204,327.179,119.203
		L327.179,119.203z M301.139,101.563c-1.297-1.64-4.681-4.847-5.375-4.752l-0.102,0.05c0.002,0.019-0.284-0.07-0.966,1.314
		c-2.705,5.458-9.424,7.614-15.229,8.5c-3.878,0.477-7.242,0.465-9.833-0.815c-2.174-1.284-3.491-3.192-4.685-4.61
		c-0.565-0.687-1.095-1.232-1.424-1.514c-0.171,0.206-0.396,0.563-0.671,1.074c-3.381,5.969-12.034,8.062-20.398,9.354
		c-4.514,0.618-8.92,0.821-12.453,0.633c-0.839-0.031-1.635,0.005-2.365,0.105c-2.931,0.365-4.853,1.845-6.046,3.227
		c-1.192,1.38-1.652,2.68-1.707,2.668l-2.256-0.817l1.92,1.427c-2.654,3.561-3.276,6.045-3.059,7.634
		c-0.187,5.549,15.404,9.393,29.223,14.224c16.34,6.377,19.659-0.293,44.496,4.576c3.977,0.781,7.693,0.853,11.102,0.386
		c14.017-1.936,22.678-13.153,21.158-24.377c-0.218-1.586-0.657-3.198-1.316-4.834c-3.438-8.25-7.46-10.681-10.839-11.726
		C306.588,101.942,304.697,103.656,301.139,101.563L301.139,101.563z"/>
	<path style="fill:#B2A9AD;" d="M215.534,128.907c0.008-0.001,0.056,0.002,0.135,0.007c0.007,0.009,0.011,0.016,0.019,0.025
		c-0.046-0.009-0.092-0.019-0.139-0.026C215.534,128.909,215.53,128.907,215.534,128.907L215.534,128.907z"/>
	<rect x="217.63" y="115.98" style="fill:#694223;" width="0.008" height="0.003"/>
	<path style="fill:#D8CDCE;" d="M304.578,102.67c0.04,0.112,0.075,0.224,0.102,0.334l0.143,0.508
		c1.165,20.081-18.483,32.891-30.599,38.426c2.411,0.069,5.107,0.253,8.212,0.64c15.522-7.162,25.079-29.422,23.599-35.798
		c-0.318-1.381-0.19-2.003,0.234-2.06c1.573-0.216,7.22,7.32,9.411,12.66c5.357,13.073-3.995,24.594-20.662,26.876
		c-0.333,0.046-0.668,0.086-1.008,0.125c2.565,0.226,5.004,0.159,7.302-0.156c14.017-1.936,22.678-13.153,21.158-24.377
		c-0.218-1.586-0.657-3.198-1.316-4.834c-3.438-8.25-7.46-10.681-10.839-11.726C307.964,102.44,306.346,102.808,304.578,102.67
		L304.578,102.67z M290.329,102.957c-3.157,2.09-7.19,3.159-10.861,3.718c-2.932,0.36-5.57,0.441-7.803-0.095
		c-0.754,2.231-7.584,20.061-32.046,23.411c-5.532,0.757-11.964,0.773-19.432-0.298c5.414,3.318,15.9,6.205,25.528,9.57
		c6.498,2.536,10.938,3.009,15.491,2.964c-7.735-1.294-23.906-6.63-23.954-6.639c1.207-0.055,2.384-0.163,3.529-0.32
		c21.02-2.878,31.792-21.989,33.859-25.77c1.023-1.887,4.079-2.321,7.223-2.751c0.064-0.009,0.129-0.018,0.193-0.026
		c3.443-0.472,6.956-0.953,8.035-3.301C290.165,103.259,290.245,103.106,290.329,102.957L290.329,102.957z M295.764,96.811
		l-0.102,0.05c0.002,0.019-0.284-0.07-0.966,1.314c-0.462,0.931-1.04,1.766-1.711,2.514c0.243-0.081,0.49-0.139,0.735-0.172
		c1.919-0.263,3.809,0.892,4.077,3.32c1.028,9.474-9.463,24.344-33.011,38.279c2.037-0.088,4.196-0.2,6.651-0.211
		c9.666-4.695,27.113-15.338,29.72-37.291l-0.252-1.838c-0.061-0.51,0.056-0.893,0.295-1.177c-0.021-0.012-0.041-0.025-0.062-0.036
		C299.842,99.923,296.458,96.716,295.764,96.811L295.764,96.811z M231.376,126.877c-0.159,0.022-0.311,0.041-0.453,0.056
		c-6.071,0.649-6.543-3.865-3.122-7.932c0,0,1.935-5.309,8.048-6.146c0.724-0.099,1.503-0.135,2.348-0.093
		c2.756,0.133,6.318-0.021,9.915-0.513c6.759-0.926,13.636-3.046,15.521-6.696c0.707-1.4,1.38-2.002,2.04-2.093
		c0.738-0.101,1.459,0.439,2.203,1.221C261.051,119.019,238.099,125.957,231.376,126.877L231.376,126.877z M263.526,99.735
		c-0.171,0.206-0.396,0.563-0.671,1.074c-3.381,5.969-12.034,8.062-20.398,9.354c-4.514,0.618-8.92,0.821-12.453,0.633
		c-0.839-0.031-1.635,0.005-2.365,0.105c-0.043,0.005-0.086,0.011-0.129,0.017c-2.859,0.392-4.743,1.85-5.917,3.21
		c-1.183,1.371-1.643,2.66-1.707,2.668l0,0l-2.249-0.815l0,0.003l1.913,1.422c-2.654,3.561-3.276,6.045-3.059,7.634
		c-0.049,1.456,0.99,2.796,2.796,4.066c0.472,0.013,0.981,0.023,1.524,0.03c3.2,0.036,7.601-0.092,12.467-0.759
		c12.848-1.759,28.957-7.271,34.851-23.421c0.018-0.046,0.035-0.09,0.054-0.134c-1.359-1.151-2.332-2.503-3.233-3.573
		C264.384,100.563,263.854,100.018,263.526,99.735L263.526,99.735z"/>
	<path style="fill:#B6ACB0;" d="M215.688,128.939c3.2,4.028,10.686,6.464,18.748,9.035c3.475,1.104,7.047,2.233,10.441,3.531
		c0.558,0.214,1.069,0.381,1.605,0.581c7.961,2.779,12.979,2.674,18.868,2.413c0.161-0.007,0.324-0.015,0.486-0.022
		c1.053-0.511,3.057-1.333,5.602-2.571c-2.455,0.011-4.614,0.123-6.651,0.211c-0.216,0.129-0.435,0.259-0.654,0.386
		c-0.707,0.033-1.712-0.07-2.928-0.274c-4.552,0.045-8.993-0.428-15.491-2.964c-9.627-3.366-20.114-6.252-25.528-9.57
		C218.724,129.483,217.229,129.233,215.688,128.939L215.688,128.939z M263.192,97.211c-0.797,0.109-1.613,0.843-2.48,2.546
		c-2.25,4.405-10.5,6.962-18.624,8.074c-4.344,0.595-8.653,0.776-11.99,0.606c-1.005-0.053-1.936-0.008-2.798,0.11
		c-7.339,1.005-9.686,7.451-9.686,7.451c-4.304,5.771-4.393,9.816-1.946,12.916c0.404,0.029,1.689,0.135,3.618,0.192
		c-1.806-1.271-2.845-2.61-2.796-4.066c-0.218-1.588,0.404-4.073,3.059-7.634l-1.913-1.422l-0.007-0.005l0.008,0.002l2.249,0.815
		l0,0c0.064-0.009,0.523-1.298,1.707-2.668c1.174-1.36,3.058-2.819,5.917-3.21c0.042-0.006,0.086-0.012,0.129-0.017
		c0.73-0.1,1.526-0.136,2.365-0.105c3.533,0.188,7.939-0.015,12.453-0.633c8.364-1.292,17.017-3.385,20.398-9.354
		c0.275-0.511,0.5-0.868,0.671-1.074c0.329,0.282,0.858,0.828,1.424,1.514c0.901,1.069,1.874,2.421,3.233,3.573
		c0.291-0.69,0.853-1.156,1.483-1.242c0.271-0.038,0.554-0.006,0.833,0.106c0.998,0.372,1.56,1.566,1.239,2.665
		c-0.004,0.015-0.027,0.092-0.073,0.228c2.233,0.536,4.872,0.455,7.803,0.095c3.671-0.559,7.704-1.628,10.861-3.718
		c0.67-1.182,1.638-1.93,2.656-2.267c0.671-0.748,1.249-1.583,1.711-2.514c0.682-1.384,0.968-1.295,0.966-1.314l0.102-0.05
		c0.694-0.095,4.078,3.112,5.375,4.752c0.021,0.011,0.04,0.024,0.062,0.036c0.272-0.324,0.704-0.521,1.22-0.63
		c0.027-0.005,0.054-0.01,0.079-0.014c0.861-0.118,1.725,0.778,2.079,1.715c1.768,0.138,3.386-0.23,5.736,0.617
		c3.379,1.045,7.401,3.476,10.839,11.726c0.659,1.636,1.099,3.248,1.316,4.834c1.52,11.224-7.142,22.441-21.158,24.377
		c-2.298,0.315-4.736,0.382-7.302,0.156c-1.45,0.163-2.953,0.258-4.506,0.28c-2.863,0.047-8.88-1.292-7.834-1.743
		c0.256-0.109,0.512-0.222,0.766-0.339c-3.104-0.387-5.801-0.571-8.212-0.64c-2.413,1.103-4.528,1.917-6.118,2.441
		c3.125-0.116,6.635-0.144,10.98,0.237c3.071,0.271,6.533,0.741,10.645,1.56c4.213,0.842,8.199,0.943,11.874,0.44
		c17.296-2.369,27.633-18.096,21.735-32.501c-4.725-11.528-11.427-13.354-15.93-13.737c-2.338-0.207-4.107-0.001-4.654-0.544
		c-0.622-0.568-1.787-2.027-3.156-3.275c-1.318-1.214-2.844-2.229-4.268-2.033c-1.025,0.14-1.997,0.907-2.804,2.674
		c-1.884,4.056-7.979,6.388-13.396,7.129c-0.806,0.11-1.596,0.185-2.353,0.226c-2.581,0.135-4.797-0.125-6.017-0.793
		c-0.646-0.348-1.247-0.883-1.838-1.494C266.821,100.111,265.056,96.955,263.192,97.211L263.192,97.211z"/>
	<path style="fill:#BEAFB1;" d="M268.183,104.822c0.439,0.371,0.92,0.724,1.452,1.037c0.631,0.312,1.311,0.548,2.03,0.721
		c-0.754,2.231-7.584,20.061-32.046,23.411c-5.532,0.757-11.964,0.773-19.432-0.298c-0.319-0.195-0.618-0.391-0.899-0.587
		c0.472,0.013,0.981,0.023,1.524,0.03c3.2,0.036,7.601-0.092,12.467-0.759c12.848-1.759,28.957-7.271,34.851-23.421
		C268.147,104.91,268.165,104.866,268.183,104.822L268.183,104.822z"/>
	<path style="fill:#A09398;" d="M215.669,128.914c0.007,0.009,0.011,0.016,0.019,0.025c1.542,0.294,3.036,0.544,4.499,0.754
		c-0.319-0.195-0.618-0.391-0.899-0.587C217.358,129.049,216.073,128.943,215.669,128.914L215.669,128.914z M269.666,103.581
		c-0.63,0.086-1.192,0.551-1.483,1.242c0.439,0.371,0.92,0.724,1.452,1.037c0.631,0.312,1.311,0.548,2.03,0.721
		c0.046-0.136,0.069-0.213,0.073-0.228c0.321-1.099-0.241-2.293-1.239-2.665C270.22,103.574,269.938,103.543,269.666,103.581
		L269.666,103.581z"/>
	<path style="fill:#BEAFB1;" d="M301.2,101.599c1.287,0.743,2.356,0.992,3.378,1.071c0.04,0.112,0.075,0.224,0.102,0.334
		l0.143,0.508c1.165,20.081-18.483,32.891-30.599,38.426c-0.972-0.027-1.899-0.036-2.786-0.033
		c9.666-4.695,27.113-15.338,29.72-37.291l-0.252-1.838C300.845,102.266,300.961,101.883,301.2,101.599L301.2,101.599z"/>
	<path style="fill:#A09398;" d="M271.438,141.905c-2.545,1.238-4.549,2.06-5.602,2.571c0.737-0.034,1.492-0.068,2.271-0.097
		c1.59-0.524,3.705-1.338,6.118-2.441C273.252,141.911,272.324,141.902,271.438,141.905L271.438,141.905z M302.499,100.955
		c-0.025,0.003-0.052,0.009-0.079,0.014c-0.516,0.109-0.947,0.306-1.22,0.63c1.287,0.743,2.356,0.992,3.378,1.071
		C304.224,101.733,303.36,100.837,302.499,100.955L302.499,100.955z"/>
	<path style="fill:#F9EAEA;" d="M240.867,71.517c0.854-0.117,1.634,0.03,2.252,0.484c1.896,1.375,1.5,5.119-0.873,8.351
		c-1.596,2.187-3.69,3.577-5.466,3.82c-0.848,0.116-1.623-0.03-2.235-0.475c-1.901-1.394-1.521-5.135,0.851-8.367
		C237,73.148,239.09,71.76,240.867,71.517L240.867,71.517z"/>
	<path style="fill:#F9EAEA;" d="M233.167,86.647c1.784-0.245,3.425,0.985,3.669,2.768c0.244,1.784-1.003,3.427-2.788,3.671
		c-1.784,0.244-3.427-1.002-3.671-2.787C230.132,88.517,231.383,86.892,233.167,86.647L233.167,86.647z"/>
</g>
</svg>
