<?xml version="1.0" encoding="iso-8859-1"?>
<!-- Generator: Adobe Illustrator 16.0.0, SVG Export Plug-In . SVG Version: 6.00 Build 0)  -->
<!DOCTYPE svg PUBLIC "-//W3C//DTD SVG 1.1//EN" "http://www.w3.org/Graphics/SVG/1.1/DTD/svg11.dtd">
<svg version="1.1" id="Layer_1" xmlns="http://www.w3.org/2000/svg" xmlns:xlink="http://www.w3.org/1999/xlink" x="0px" y="0px"
	 width="97px" height="108px" viewBox="0 0 97 108" style="enable-background:new 0 0 97 108;" xml:space="preserve">
<g>
	<path style="fill:#0BE1F7;" d="M89.317,33.874c-1.762-4.656-8.807-7.038-17.15-6.706c-2.188,0.087-3.517,0.525-4.54,0.751
		c-0.468,0.104-0.882-0.07-0.431-1.177c1.396-3.112-0.863-2.075-0.863-2.075c-6.246,0.042-19.062,0.595-29.5-5
		C28.025,14.946,25.188,11.021,19,13.833c-1.98,0.901-5.058,1.776-5.958,4.027c-1.201,3.003,2.812,2.588,2.812,2.588
		c1.995,0.085,11.265-0.339,13.98,6.357c1.764,4.35,2.783,9.729,3.003,19.52c0.427,19.13-12.39,20.396-12.388,34.078
		c0.004,10.217,6.318,13.037,8.205,15.886c1.654,2.499,8.87,4.315,18.391,4.259l0.084-0.002c9.521,0.059,16.584-1.863,18.393-4.259
		c1.98-2.622,7.586-5.378,8.152-14.386c0.027-0.487,0.282-0.679,0.773-0.686c1.162-0.02,2.389-1.092,2.533-3.917
		c0.252-4.909,0-7.678,6.042-19.385C88.729,46.859,91.081,38.531,89.317,33.874z M82.897,44.32
		c-4.219,10.752-10.951,17.118-12.966,18.251c-2.434,1.463-3.667,1.336-4.769-0.522c-2.455-4.333-3.823-9.529-2.539-19.734
		c0.055-0.354,0.258-0.365,0.484-0.333c1.795,0.178,3.986-5.411,4.938-7.101c1.133-2.014,2.517-1.887,4.404-1.762
		c1.889,0.125,6.561,0.807,9.818,1.133C84.787,34.503,86.8,34.377,82.897,44.32z"/>
	<g>
		<path style="fill:#1D1D1B;" d="M89.282,33.888c-0.431-1.138-1.191-2.123-2.106-2.914c-0.915-0.795-1.975-1.413-3.084-1.899
			c-2.228-0.972-4.638-1.469-7.051-1.7c-1.209-0.119-2.425-0.161-3.639-0.14c-0.611,0.009-1.209,0.023-1.816,0.089l-0.909,0.082
			l-0.89,0.155c-0.594,0.104-1.178,0.261-1.773,0.404c-0.15,0.035-0.29,0.077-0.45,0.106c-0.173,0.023-0.382,0.027-0.555-0.134
			c-0.281-0.38-0.104-0.727-0.036-1.021c0.225-0.591,0.48-1.127,0.514-1.696c0.012-0.283-0.073-0.5-0.302-0.533
			c-0.229-0.044-0.532,0.036-0.776,0.143l-0.037,0.016l-0.037,0.001c-2.59,0.038-5.188,0.097-7.786,0.016
			c-2.599-0.074-5.197-0.262-7.777-0.618c-1.291-0.177-2.573-0.409-3.851-0.668l-1.905-0.448l-1.884-0.533
			c-1.244-0.395-2.483-0.814-3.685-1.334c-0.612-0.234-1.2-0.521-1.787-0.812c-0.591-0.282-1.176-0.583-1.737-0.901
			c-2.284-1.261-4.469-2.677-6.675-4.019c-1.106-0.662-2.226-1.3-3.406-1.762c-1.177-0.465-2.433-0.698-3.681-0.569
			c-1.26,0.109-2.434,0.583-3.623,1.114c-1.203,0.502-2.412,0.953-3.473,1.641c-1.054,0.662-1.94,1.677-2.018,2.892
			c-0.033,0.58,0.378,1.021,0.957,1.204c0.566,0.193,1.219,0.23,1.829,0.188l0.017-0.002l0.014,0.001
			c2.067,0.031,4.188,0.131,6.236,0.605c2.039,0.469,4.061,1.288,5.644,2.716c0.789,0.708,1.438,1.569,1.918,2.512
			c0.238,0.477,0.425,0.975,0.595,1.46c0.18,0.488,0.367,0.974,0.506,1.48c0.647,1.995,1.036,4.05,1.351,6.11
			c0.608,4.129,0.821,8.297,0.88,12.465c-0.012,4.17-0.735,8.399-2.549,12.196c-1.755,3.833-4.558,7.019-6.748,10.512
			c-1.088,1.753-1.958,3.635-2.444,5.628c-0.472,2-0.603,4.051-0.439,6.112c0.156,2.042,0.618,4.066,1.482,5.911
			c0.864,1.849,2.118,3.484,3.58,4.932c0.724,0.734,1.497,1.425,2.23,2.198c0.362,0.367,0.719,0.854,1.001,1.246
			c0.279,0.332,0.682,0.658,1.096,0.918c1.708,1.044,3.741,1.588,5.744,2.011c4.048,0.815,8.205,0.997,12.354,0.937
			c4.127-0.062,8.298-0.433,12.242-1.586c1.931-0.625,3.941-1.335,5.088-3.016c0.742-0.821,1.515-1.486,2.256-2.215
			c0.74-0.717,1.438-1.467,2.068-2.266c0.639-0.796,1.161-1.669,1.641-2.563c0.428-0.919,0.833-1.854,1.089-2.842
			c0.146-0.488,0.267-0.982,0.347-1.488c0.108-0.499,0.181-1.005,0.223-1.516l0.083-0.764l0.025-0.215
			c0.012-0.07,0.044-0.193,0.083-0.28c0.077-0.185,0.25-0.351,0.429-0.435c0.181-0.081,0.351-0.104,0.505-0.109
			c0.106-0.009,0.275-0.011,0.35-0.035c0.194-0.037,0.412-0.119,0.593-0.241c0.755-0.501,1.118-1.505,1.274-2.474
			c0.142-0.979,0.137-2.051,0.219-3.085c0.113-2.091,0.491-4.189,1.139-6.184c1.309-3.988,3.211-7.717,5.119-11.413
			c1.908-3.691,3.672-7.468,5.02-11.4c0.665-1.966,1.225-3.974,1.534-6.027C89.915,37.993,89.992,35.851,89.282,33.888z
			 M89.353,33.86c0.737,1.976,0.681,4.137,0.409,6.191c-0.29,2.068-0.833,4.092-1.48,6.072c-1.312,3.961-3.042,7.767-4.917,11.485
			c-1.873,3.709-3.716,7.459-4.954,11.406c-0.612,1.975-0.952,4.008-1.038,6.075c-0.069,1.04-0.045,2.059-0.185,3.143
			c-0.165,1.043-0.51,2.208-1.514,2.916c-0.251,0.17-0.524,0.286-0.84,0.35c-0.179,0.039-0.272,0.033-0.425,0.048
			c-0.105,0.004-0.196,0.025-0.253,0.052c-0.1,0.072-0.129,0.087-0.151,0.376l-0.074,0.789c-0.037,0.527-0.105,1.053-0.211,1.573
			c-0.076,0.524-0.196,1.041-0.342,1.554c-0.256,1.031-0.657,2.025-1.116,2.986c-0.503,0.939-1.056,1.856-1.723,2.686
			c-1.287,1.686-2.979,3.049-4.343,4.49l-0.501,0.603c-0.184,0.224-0.393,0.412-0.605,0.592c-0.432,0.351-0.896,0.635-1.372,0.885
			c-0.955,0.496-1.955,0.861-2.966,1.166c-4.061,1.179-8.268,1.541-12.448,1.601c-4.167,0.055-8.378-0.131-12.498-0.967
			c-2.05-0.44-4.117-0.979-5.975-2.113c-0.462-0.299-0.889-0.622-1.278-1.09c-0.324-0.452-0.583-0.808-0.948-1.187
			c-0.697-0.739-1.477-1.438-2.214-2.187c-1.488-1.48-2.816-3.192-3.694-5.135c-0.886-1.938-1.343-4.042-1.484-6.146
			c-0.147-2.088,0.004-4.238,0.51-6.285c0.521-2.054,1.438-3.983,2.56-5.754c2.26-3.529,5.065-6.648,6.813-10.419
			c1.81-3.727,2.554-7.897,2.592-12.031c-0.032-4.151-0.219-8.318-0.799-12.431c-0.321-2.049-0.731-4.095-1.384-6.057
			c-0.141-0.497-0.332-0.981-0.516-1.469c-0.179-0.495-0.361-0.97-0.593-1.424c-0.473-0.906-1.103-1.729-1.868-2.406
			c-1.536-1.364-3.507-2.149-5.509-2.592c-2.021-0.449-4.083-0.531-6.173-0.547l0.03-0.001c-0.679,0.052-1.349,0.022-2.016-0.193
			c-0.328-0.112-0.662-0.286-0.91-0.579c-0.257-0.287-0.363-0.687-0.36-1.048c0.003-0.354,0.107-0.731,0.221-1.02
			c0.133-0.333,0.296-0.628,0.498-0.909c0.409-0.554,0.936-0.995,1.49-1.362c1.118-0.733,2.355-1.2,3.537-1.704
			c1.166-0.53,2.43-1.059,3.77-1.183c1.339-0.151,2.705,0.096,3.939,0.573c1.241,0.475,2.388,1.119,3.51,1.778
			c2.234,1.335,4.416,2.725,6.684,3.953c0.568,0.319,1.143,0.598,1.719,0.882c0.571,0.292,1.146,0.579,1.744,0.814
			c1.174,0.523,2.389,0.949,3.61,1.352l1.853,0.546l1.877,0.463c1.261,0.269,2.527,0.513,3.805,0.702
			c2.553,0.381,5.133,0.594,7.717,0.696c2.585,0.108,5.174,0.077,7.77,0.066l-0.073,0.017c0.312-0.122,0.624-0.219,0.999-0.152
			c0.186,0.035,0.381,0.171,0.466,0.355c0.088,0.18,0.097,0.361,0.09,0.527c-0.048,0.658-0.35,1.238-0.56,1.777
			c-0.092,0.258-0.165,0.599-0.043,0.727c0.113,0.137,0.451,0.031,0.742-0.036c0.59-0.133,1.187-0.283,1.793-0.381l0.912-0.143
			l0.91-0.069c0.604-0.055,1.227-0.063,1.832-0.062c1.221-0.002,2.44,0.056,3.655,0.178c2.424,0.245,4.844,0.757,7.082,1.746
			c1.114,0.496,2.18,1.125,3.101,1.933C88.157,31.706,88.924,32.712,89.353,33.86z"/>
		<path style="fill:#1D1D1B;" d="M82.932,44.335c0,0-0.527,1.227-1.45,3.373c-0.482,1.063-1.158,2.315-1.889,3.779
			c-0.402,0.711-0.865,1.446-1.335,2.234c-0.455,0.798-1.009,1.589-1.609,2.398c-1.152,1.654-2.598,3.31-4.271,4.915
			c-0.443,0.379-0.894,0.762-1.349,1.15c-0.506,0.344-1.025,0.702-1.562,0.957c-0.533,0.281-1.157,0.52-1.8,0.634
			c-0.672,0.09-1.399-0.144-1.882-0.618l-0.343-0.364l-0.271-0.408c-0.195-0.267-0.315-0.577-0.459-0.853
			c-0.276-0.572-0.587-1.131-0.811-1.746c-0.521-1.193-0.89-2.457-1.189-3.74c-0.627-2.571-0.761-5.272-0.744-7.948l0.052-2.011
			c0.034-0.669,0.106-1.334,0.157-1.999l0.085-0.997l0.042-0.498l0.021-0.249l0.006-0.062l0.022-0.094l0.01-0.029l0.036-0.119
			c0.01-0.076,0.248-0.356,0.373-0.34c0.169-0.052,0.262-0.026,0.374-0.022c0.015-0.027,0.333-0.016,0.358-0.092l0.142-0.071
			l0.169-0.132c0.118-0.076,0.22-0.195,0.325-0.302c0.827-0.913,1.438-2.082,2.016-3.211c0.597-1.146,1.035-2.292,1.727-3.447
			l0.256-0.393c0.105-0.132,0.239-0.266,0.36-0.396c0.118-0.14,0.252-0.257,0.404-0.348c0.151-0.092,0.285-0.215,0.452-0.274
			c0.646-0.326,1.337-0.336,1.958-0.341c1.243,0.02,2.398,0.222,3.54,0.34c2.28,0.257,4.432,0.546,6.418,0.811
			c0.987,0.17,1.952,0.153,2.899,0.536c0.467,0.197,0.862,0.639,0.964,1.104c0.143,0.456,0.132,0.899,0.112,1.316
			c-0.171,1.661-0.684,2.997-1.027,4.114c-0.382,1.106-0.703,1.967-0.938,2.548C83.054,44.023,82.932,44.335,82.932,44.335z
			 M82.863,44.306c0,0,0.114-0.312,0.33-0.899c0.222-0.585,0.525-1.45,0.883-2.561c0.34-1.107,0.739-2.493,0.832-4.083
			c0.029-0.768-0.139-1.701-0.93-1.963c-0.768-0.274-1.775-0.217-2.759-0.354c-1.992-0.193-4.15-0.402-6.43-0.671
			c-1.14-0.112-2.316-0.308-3.485-0.318c-0.57,0.007-1.144,0.027-1.605,0.273c-0.127,0.04-0.221,0.142-0.334,0.207
			c-0.117,0.063-0.217,0.148-0.3,0.249c-0.089,0.096-0.185,0.176-0.276,0.283l-0.262,0.389c-0.61,0.982-1.121,2.213-1.729,3.343
			c-0.615,1.144-1.219,2.325-2.189,3.342c-0.129,0.122-0.246,0.251-0.407,0.354l-0.228,0.162c-0.092,0.05-0.204,0.093-0.308,0.134
			c-0.264,0.104-0.295,0.07-0.604,0.092c-0.051-0.005-0.126-0.012-0.115-0.005c-0.017-0.007-0.006-0.002,0.02-0.019
			c0.018-0.004,0.01-0.088-0.007-0.017l-0.04,0.117l-0.01,0.029c0.004-0.019-0.023,0.083,0.006-0.034l-0.007,0.062l-0.028,0.246
			l-0.057,0.491l-0.114,0.985c-0.071,0.658-0.164,1.317-0.218,1.979l-0.112,1.99l-0.057,0.996l0.013,0.995
			c0.016,0.663,0,1.329,0.041,1.989c0.069,0.658,0.139,1.315,0.207,1.97c0.073,0.655,0.24,1.292,0.354,1.936
			c0.095,0.65,0.347,1.257,0.526,1.878c0.17,0.627,0.445,1.209,0.69,1.798c0.228,0.595,0.542,1.155,0.847,1.713
			c0.162,0.281,0.282,0.562,0.474,0.799l0.266,0.369l0.315,0.307c0.437,0.384,0.984,0.53,1.543,0.443
			c0.563-0.131,1.082-0.342,1.604-0.644c0.544-0.284,0.986-0.633,1.447-0.962c0.436-0.381,0.865-0.758,1.29-1.129
			c0.792-0.812,1.583-1.583,2.267-2.409c0.354-0.402,0.7-0.799,1.041-1.187c0.329-0.398,0.626-0.812,0.931-1.204
			c1.256-1.547,2.227-3.1,3.134-4.443c0.781-1.416,1.558-2.609,2.039-3.673C82.313,45.521,82.863,44.306,82.863,44.306z"/>
	</g>
</g>
<g>
	<path style="fill:#FFFFFF;" d="M36.987,21.348c-13.123-6.816-16.976-7.426-22.346-3.285c-1.542,1.085-2.009,1.004-1.634,0.049
		c0.877-2.098,2.463-3.769,4.351-4.588c6.075-2.634,10.625,0.183,19.943,4.983l0.33,0.181c9.363,5.123,21.957,5.816,29.285,5.898
		c1.058-0.061,1.102,0.265,0.044,0.438C60.002,26.17,47.576,26.846,36.987,21.348z"/>
	<g>
		<path style="fill:#1D1D1B;" d="M36.97,21.381c0,0-0.41-0.206-1.18-0.593c-0.767-0.393-1.901-0.945-3.35-1.642
			c-1.459-0.669-3.225-1.508-5.332-2.247c-1.055-0.358-2.186-0.726-3.407-0.949c-1.213-0.252-2.528-0.34-3.847-0.111
			c-1.322,0.219-2.606,0.814-3.814,1.622c-0.607,0.39-1.173,0.887-1.864,1.309c-0.169,0.106-0.351,0.204-0.549,0.295
			c-0.103,0.044-0.214,0.085-0.346,0.113c-0.133,0.013-0.351,0.07-0.589-0.151c-0.201-0.247-0.15-0.435-0.144-0.56
			c0.017-0.138,0.05-0.246,0.085-0.353c0.09-0.261,0.167-0.38,0.251-0.577c0.679-1.487,1.79-2.856,3.265-3.782
			c0.362-0.249,0.751-0.424,1.17-0.617c0.396-0.145,0.772-0.312,1.19-0.44c0.851-0.255,1.713-0.459,2.604-0.511
			c1.781-0.144,3.599,0.175,5.302,0.752c1.714,0.565,3.354,1.339,4.98,2.143c3.256,1.627,6.429,3.426,9.78,4.948
			c3.383,1.304,6.891,2.393,10.454,2.971c1.761,0.387,3.549,0.535,5.296,0.799c1.762,0.146,3.498,0.349,5.217,0.413
			c1.715,0.106,3.407,0.148,5.061,0.17c0.112,0.001,0.223,0.01,0.342,0.028c0.062,0.014,0.122,0.023,0.199,0.06
			c0.037,0.02,0.091,0.044,0.142,0.118c0.066,0.084,0.035,0.234-0.007,0.282c-0.157,0.178-0.256,0.173-0.369,0.225
			c-0.108,0.035-0.214,0.061-0.319,0.083c-0.408,0.062-0.814,0.125-1.219,0.187c-0.803,0.109-1.604,0.212-2.391,0.282
			c-3.152,0.311-6.152,0.359-8.909,0.207c-2.757-0.151-5.27-0.491-7.47-0.923c-2.193-0.47-4.079-0.998-5.592-1.549
			c-1.513-0.547-2.682-1.037-3.45-1.427C37.384,21.581,36.97,21.381,36.97,21.381z M37.005,21.314c0,0,0.414,0.197,1.191,0.566
			c0.769,0.385,1.938,0.866,3.449,1.403c1.512,0.541,3.396,1.058,5.584,1.514c2.195,0.423,4.704,0.743,7.453,0.844
			c2.748,0.111,5.733,0.019,8.863-0.337c0.784-0.081,1.569-0.196,2.37-0.312c0.396-0.064,0.795-0.129,1.196-0.193
			c0.169-0.024,0.43-0.13,0.44-0.143c-0.012,0.008-0.033,0.1,0.002,0.14c0.021,0.035,0.029,0.027,0.02,0.027
			c-0.016-0.009-0.058-0.018-0.097-0.026c-0.085-0.012-0.182-0.02-0.276-0.02c-1.66-0.008-3.356-0.037-5.08-0.132
			c-1.727-0.051-3.473-0.241-5.245-0.375c-1.76-0.251-3.559-0.387-5.337-0.763c-3.59-0.555-7.147-1.623-10.62-2.937
			c-3.358-1.486-6.603-3.281-9.834-4.856c-3.22-1.527-6.555-3.071-9.913-2.784c-0.831,0.046-1.641,0.243-2.409,0.47
			c-0.391,0.118-0.786,0.294-1.177,0.437c-0.337,0.16-0.716,0.326-1.035,0.55c-0.668,0.418-1.264,0.942-1.759,1.539
			c-0.517,0.598-0.927,1.208-1.263,1.915c-0.074,0.164-0.197,0.387-0.23,0.5c-0.028,0.078-0.052,0.158-0.06,0.215
			c-0.019,0.062,0.021,0.094-0.043-0.004c-0.098-0.074-0.095-0.037-0.042-0.048c0.059-0.014,0.13-0.036,0.206-0.066
			c0.154-0.068,0.313-0.148,0.471-0.244c0.629-0.365,1.216-0.858,1.864-1.262c1.267-0.827,2.671-1.408,4.079-1.601
			c1.407-0.199,2.773-0.06,4.006,0.234c1.244,0.268,2.375,0.672,3.428,1.066c2.095,0.817,3.845,1.69,5.3,2.376
			c1.438,0.72,2.565,1.291,3.326,1.695C36.598,21.102,37.005,21.314,37.005,21.314z"/>
	</g>
</g>
<g>
	<path style="fill:#1D1D1B;" d="M30.062,95.47c1.298,0.573,2.682,0.902,4.059,1.201c1.38,0.301,2.775,0.52,4.177,0.688
		c2.801,0.364,5.626,0.5,8.45,0.562c2.827,0.064,5.652-0.006,8.462-0.285c1.403-0.146,2.8-0.364,4.18-0.662
		c1.372-0.312,2.756-0.673,4.006-1.345c-2.482,1.402-5.345,1.956-8.145,2.352c-2.821,0.387-5.674,0.442-8.511,0.424
		c-2.841-0.03-5.682-0.238-8.498-0.639C35.444,97.313,32.612,96.736,30.062,95.47z"/>
</g>
<g>
	<path style="fill:#1D1D1B;" d="M65.086,68.487c0.097,1.19,0.335,2.353,0.656,3.487c0.331,1.132,0.729,2.243,1.233,3.304
		c0.498,1.062,1.101,2.074,1.837,2.981c0.739,0.898,1.648,1.682,2.762,2.127c-1.184-0.246-2.226-0.99-3.051-1.872
		c-0.837-0.887-1.478-1.935-2-3.023c-0.509-1.097-0.903-2.244-1.152-3.424C65.12,70.893,64.977,69.682,65.086,68.487z"/>
</g>
<path style="opacity:0.35;fill:#FFFFFF;" d="M21.333,18.835c0,0,9.81,2.035,12.167,13.166c3,14.167,0.788,22.457-1.833,28.167
	C27,70.335,21.5,71.835,23.5,83.835c1.276,7.656,9,11.333,16,12.166c3.655,0.435,11.5,0.334,11.5,0.334S25.166,84.168,33.333,66.168
	c6.745-14.866,4.226-25.423,3.5-30.833C34.666,19.168,21.333,18.835,21.333,18.835z"/>
</svg>
