<?xml version="1.0" standalone="no"?>
<!DOCTYPE svg PUBLIC "-//W3C//DTD SVG 1.0//EN" "http://www.w3.org/TR/2001/REC-SVG-20010904/DTD/svg10.dtd">
<svg xmlns="http://www.w3.org/2000/svg" xmlns:xlink="http://www.w3.org/1999/xlink" width="533px" height="190px" viewBox = "0 0 533 190">
<g transform="translate(0,190) scale(1,-1)">
	<g id="Layer 1" >
		<path id="" d="M5.811 97.44L5.811 93.84c0-50.6 117-88 261-88c144 0 261 37.4 261 88L528 98.12L5.811 97.44Z" fill="rgb(78.8%,88.2%,89.8%)"  />
		<path id="" d="M5.91 97.34c0.018-1.51 0.004-3.02 0.047-4.52c0.059-1.53 0.227-3.06 0.5-4.57c0.545-3.02 1.52-5.95 2.81-8.73c2.61-5.56 6.47-10.5 10.8-14.7c4.38-4.3 9.29-8.04 14.4-11.4c5.14-3.36 10.5-6.35 16-9.06c11-5.42 22.6-9.79 34.3-13.5c11.7-3.73 23.6-6.84 35.7-9.51c24-5.31 48.5-8.82 73-11.1c24.5-2.36 49.1-3.41 73.8-3.51c24.6-0.086 49.3 0.898 73.8 3.14c24.5 2.24 49 5.84 73 11.2c12 2.71 23.9 5.91 35.6 9.74c11.7 3.84 23.2 8.31 34.2 13.8c5.49 2.77 10.8 5.81 15.9 9.24c5.08 3.43 9.93 7.24 14.2 11.6c4.27 4.36 7.99 9.32 10.4 14.9c1.21 2.78 2.08 5.71 2.53 8.7c0.223 1.5 0.342 3.01 0.352 4.52L527.3 98.12L528 97.46L397.4 96.97L332.2 96.81L266.9 96.76c-43.5-0.088-87 0.096-131 0.156L71.08 97.04L5.91 97.34ZM5.711 97.53L71.08 98L136.3 98.3c43.5 0.174 87 0.471 131 0.496L332.1 98.92L397.4 98.93L528 98.78L528.6 98.78L528.6 98.12L528.6 93.49c-0.021-1.57-0.154-3.14-0.396-4.69c-0.484-3.1-1.41-6.13-2.68-8.99c-2.54-5.73-6.39-10.8-10.7-15.2c-4.37-4.42-9.29-8.25-14.4-11.7c-5.15-3.43-10.6-6.47-16.1-9.23c-11.1-5.51-22.6-9.94-34.4-13.7c-11.7-3.79-23.7-6.93-35.7-9.62c-24.1-5.45-48.5-9.02-73.1-11.5c-24.5-2.45-49.2-3.64-73.9-3.75c-49.3-0.109-98.8 3.92-147 14.6c-12 2.71-24 5.88-35.7 9.73c-11.7 3.85-23.3 8.33-34.3 13.9c-11 5.56-21.7 12.2-30.5 20.9c-4.35 4.39-8.18 9.39-10.7 15c-1.28 2.82-2.22 5.8-2.73 8.86c-0.256 1.53-0.406 3.07-0.443 4.62c-0.025 1.55 0.01 3.08 0.014 4.62L5.711 97.53L5.711 97.53Z" fill="rgb(11.4%,11.4%,10.6%)"  />
		<path id="" d="M528 96.35c0-45.6-117-84.5-261-84.5c-144 0-261 38.9-261 84.5c0 37.6 117 70.7 261 70.7c144 0 261-25.1 261-70.7Z" fill="rgb(91.4%,94.9%,95.3%)"  />
		<path id="" d="M528.1 96.35c0.037-6.02-2.11-11.9-5.35-16.9c-3.24-5.04-7.47-9.36-12-13.2c-9.2-7.66-19.8-13.5-30.6-18.5c-10.8-5.02-22.1-9.16-33.5-12.8c-11.4-3.59-22.9-6.63-34.6-9.26c-23.3-5.27-47-8.8-70.7-11.2c-23.8-2.4-47.7-3.44-71.5-3.52c-47.7 0.023-95.6 4.14-142 13.8c-11.7 2.44-23.3 5.32-34.7 8.64c-11.5 3.34-22.8 7.18-33.8 11.8c-11 4.68-21.7 10.1-31.4 17.2c-4.83 3.53-9.4 7.48-13.3 12.1c-3.85 4.6-7.03 9.95-8.34 15.9c-0.627 2.96-0.902 6.05-0.393 9.1c0.506 3.04 1.74 5.9 3.35 8.48c3.27 5.16 7.86 9.25 12.7 12.8c4.86 3.54 10.1 6.53 15.4 9.22c5.36 2.69 10.9 5.06 16.4 7.22c11.2 4.32 22.6 7.83 34.2 10.9c11.6 3.04 23.2 5.55 35 7.74c47 8.61 94.8 12.1 143 12.2c23.9 0 47.8-0.596 71.6-2.18c23.8-1.59 47.6-3.96 71.2-7.76c11.8-1.9 23.5-4.13 35.1-6.86c11.6-2.73 23.1-5.95 34.4-10c11.2-4.13 22.2-8.95 32-15.8c4.86-3.46 9.41-7.47 12.9-12.4c1.73-2.44 3.18-5.09 4.17-7.92c0.989-2.83 1.5-5.82 1.49-8.82ZM527.9 96.36c-0.00403 2.97-0.527 5.94-1.52 8.73c-0.99 2.8-2.44 5.43-4.17 7.84c-3.48 4.83-8.02 8.81-12.9 12.2c-4.87 3.42-10.1 6.3-15.5 8.86c-5.38 2.56-10.9 4.77-16.5 6.75c-11.2 3.95-22.8 7.05-34.4 9.65c-11.6 2.6-23.4 4.7-35.1 6.46c-23.6 3.48-47.3 5.75-71.1 7.16c-23.8 1.39-47.6 2.08-71.5 2.02c-23.8-0.047-47.6-1.04-71.4-2.93c-23.7-1.92-47.4-4.81-70.9-9.08c-11.7-2.13-23.4-4.64-34.9-7.59c-11.5-2.96-22.9-6.38-34.1-10.6c-5.56-2.12-11-4.44-16.4-7.06c-5.31-2.63-10.5-5.56-15.3-9.02c-4.77-3.46-9.27-7.44-12.4-12.4c-1.56-2.46-2.75-5.17-3.24-8.03c-0.496-2.84-0.256-5.82 0.33-8.67c1.23-5.74 4.28-11 8.05-15.5c3.78-4.55 8.28-8.47 13.1-12c9.59-7.02 20.3-12.5 31.2-17.2c21.9-9.34 45-15.7 68.4-20.5c23.3-4.82 47-8.03 70.8-10.1c23.8-2.04 47.6-2.9 71.4-2.74c23.8 0.098 47.6 1.34 71.4 3.59c23.7 2.27 47.3 5.75 70.6 10.7c11.6 2.5 23.2 5.41 34.6 8.88c11.4 3.48 22.6 7.49 33.5 12.4c5.43 2.45 10.8 5.13 15.9 8.15c5.13 3.02 10.1 6.34 14.7 10.1c4.57 3.8 8.79 8.1 12 13.1c3.24 4.96 5.39 10.8 5.37 16.7Z" fill="rgb(11.4%,11.4%,10.6%)"  />
		<path id="" d="M515.6 97.28c0-43.4-111-80.6-249-80.6c-137 0-249 37.2-249 80.6c0 36.7 111 66.8 249 66.8c137 0 249-23.4 249-66.8Z" fill="rgb(100%,100%,100%)"  />
		<path id="" d="M448.7 89.53L448.7 93.97c0 35.2-81.4 47.1-182 47.1c-100 0-182-11.8-182-47.1L85.07 89.06L448.7 89.53Z" fill="rgb(61.2%,78.8%,82.7%)"  />
		<path id="" d="M85.07 90.29c0 31.8 81.4 42.7 182 42.7c100 0 182-11 182-42.7c0-31.7-81.4-59.5-182-59.5c-100 0-182 27.7-182 59.5Z" fill="rgb(78.8%,88.2%,89.8%)"  />
		<path id="" d="M85.07 90.29c0 31.8 81.4 42.7 182 42.7c100 0 182-11 182-42.7c0-31.7-81.4-59.5-182-59.5c-100 0-182 27.7-182 59.5Z" fill="rgb(91.4%,94.9%,95.3%)"  />
		<path id="" d="M84.71 96.11c0 31.5 81.6 42.3 182 42.3c101 0 182-10.9 182-42.3c0-31.5-81.6-58.9-182-58.9c-101 0-182 27.5-182 58.9Z" fill="rgb(100%,100%,100%)"  />
		<path id="" d="M473.6 91.88c0-34.7-92.7-67.6-207-67.6c-114 0-207 32.9-207 67.6c0 34.7 92.7 56.6 207 56.6c114 0 207-21.9 207-56.6Z" stroke="rgb(100%,49%,24.7%)" stroke-width="2" fill="none"  />
		<path id="" d="M248.3 97.85L217.5 91.25L219.4 102L248.3 97.85Z" fill="rgb(0%,55.3%,21.2%)"  />
		<path id="" d="M260.9 87.64L237.8 76.83L237.1 81.85L260.9 87.64Z" fill="rgb(0%,55.3%,21.2%)"  />
		<path id="" d="M265.8 83.67L253.8 67.85L244.8 68.17L253.1 78.89L265.8 83.67Z" fill="rgb(0%,55.3%,21.2%)"  />
		<path id="" d="M304.3 76.47L300.7 52.84L312.5 50.48L313.9 52L304.3 76.47Z" fill="rgb(0%,55.3%,21.2%)"  />
		<path id="" d="M327.4 71.03L328.7 46.11L332.7 47.56L334 49.54L327.4 71.03Z" fill="rgb(0%,55.3%,21.2%)"  />
		<path id="" d="M344 67.35L346.1 41.74L350.1 43.36L357.7 45.39L344 67.35Z" fill="rgb(0%,55.3%,21.2%)"  />
		<path id="" d="M393.4 56.18L416.8 39.38L422.7 44.82L422.8 47.35L393.4 56.18Z" fill="rgb(0%,55.3%,21.2%)"  />
		<path id="" d="M351.5 149.2c-1.24 0.401-2.57 0.591-4.24 0.932c-2.61 0.531-4.03 1.75-6.42 2.56c-6.1 2.06-14.1 0.441-20.5 0.326c-7.18-0.134-14.4-0.184-21.5-0.104c-9.55 0.104-24.1-1.51-33 2.88c-9.02 4.46-33.6 0.863-39.9 3.53c-6.26 2.66-2.16 10.2-11.2 6.5c-9.09-3.71-13.3-8.6-10.4-11.2c2.99-2.6 2.28-5.02 0.554-6.09c-1.73-1.07-3.97 2.47-6.73 4.27c-2.77 1.8-6.46-4.35-5.06-9.17c1.4-4.81 1.02-7.69 0.279-8.62c-0.749-0.934-0.396 3.44-2.56 2.49c-2.16-0.956 2.7-9.97 4.38-12.2c1.68-2.28 1.84 6.24 3.78 1.67c1.94-4.57-3.77-8-0.00301-11.2c3.76-3.16 3.16-0.414 3.45 2.12c0.276 2.54 5.23 0.193 7.68-2.64c2.45-2.84-0.451-4.73-2.65-4.19c-2.19 0.543-4.79-0.305-0.275-2.54c4.52-2.23 2.27-5.02 2.77-8.12c0.497-3.11 0.656-5.75 3.65-8.35c2.99-2.6 6.75 0.559 6.72 2.06c-0.032 1.49-2.6 10.3 2.85 4.88c5.44-5.44 5.3-9.12 6.9-13.2c1.61-4.12 4.73-7.87 6.82-8.76c2.09-0.889 0.072 1.84 1.12 3.81c1.05 1.97 1.55-1.13 6.29-4.16c4.75-3.03 6.43-5.31 8.95-6.31c2.53-1-1.26-2.67-4.12-1.21c-2.86 1.45-5.64-1.58-4.53-2.6c1.12-1.03 4.68-4.88 13.1-8.09c8.46-3.21 9.24 7.95 10.3 6.93c1.11-1.02 7.88-5.43 11.6-7.09c3.74-1.67 5.19 2.59 4.48 4.99c-0.7 2.41 8.05-4.59 15.7-7.24c7.68-2.64 15.4-3.44 12.8-4.29c-2.6-0.848-14.7 2.88-11.6 0.625c3.1-2.25 14.9-5.18 18.3-4.89c3.37 0.279 7.97 4.72 11.5 3.85c3.51-0.867 1.81-3.42-0.686-3.92c-2.5-0.5-2.57-2.34 2.25-3.54c4.82-1.19 9.92 0.16 14.2 2.06c4.32 1.9 5.43 1.35 9.37 0.375c3.95-0.977-9.41-2.19-10.1-4.45c-0.456-1.55 8.79-4.87 18.8-5.86c10-0.994 21.6 9.2 21.2 7.81c-0.409-1.39 1.04-2.86-1.23-4.16c-2.26-1.3-2.21-4.29 4.33-4.43c6.55-0.119 12 5.6 14.6 4.95c2.62-0.648-6.17 4.39-1.93 4.45c4.25 0.068 12.4-2.16 18.1 1.27c5.71 3.42-0.691-3.93-3.06-5.57c-2.36-1.65 5.93-2.21 8.5 0.131c2.57 2.34 8.62 9.56 11.7 8.8c3.07-0.756-3.38-9 7.58-2.44c4.86 2.91-2.9 8.59 4.62 9.27c3.94 0.357 9.13 18.2 0.119 16.3c-9.01-1.87-8.21-3.92-17.3-1.31c-9.1 2.62-15.8 19.9-19.9 25c-4.14 5.11-22.2 14-31.5 22.3c-5.02 4.45-9.62 9.38-14 14.4c-4.23 4.92-7.53 11.8-13.2 15.4c-0.702 0.441-1.38 0.739-2.09 0.967Z" fill="rgb(0%,55.3%,21.2%)"  />
		<path id="" d="M339.1 72.13c0 0-0.298-7.46-0.768-10.4c-0.474-2.9-0.527-9.52-0.527-9.52c0 0-1.82 2.87-2.22 5.37c-0.403 2.51 0.012 3.92 0.757 6.44c0.744 2.53 2.76 8.06 2.76 8.06Z" fill="rgb(0%,55.3%,21.2%)"  />
		<path id="" d="M395.1 67.73c0 0 2.29-2.05 4.33-4.63c2.03-2.57 7.41-7.9 7.41-7.9c0 0-3.63 1.32-5.96 3.12c-2.33 1.8-1.16 2.14-2.7 4.55c-1.54 2.43-3.07 4.86-3.07 4.86Z" fill="rgb(0%,55.3%,21.2%)"  />
		<path id="" d="M249.4 96.4c0 0-6.76-0.543-9.24-0.33c-2.48 0.209-5.36-2.69-5.36-2.69L236 88.05c0 0 1.55 5.24 2.71 5.76c1.16 0.514 3.5 1.54 5.16 1.13c1.66-0.409 5.51 1.46 5.51 1.46Z" fill="rgb(0%,55.3%,21.2%)"  />
		<path id="" d="M367.1 83.22c1.07-0.951 2.14-1.94 3.24-2.92c6.45-5.73 14.5-9.95 23.3-8.28c4.07 0.77 7.75 3.33 12 3.66c0.162-4.75-0.371-9.83-4.59-12.9c-1.69-1.21-4.42-0.951-5.9-2.36c-1.94-1.84-0.857-4.11-2.24-6.03c-1.58-2.19-3.46-1.16-5.35-2.23c-2.65-1.49-1.99-1.68-3.16-4.44c-2.05-4.83-3.54-4.01-7.55-6.09c-2.71-1.4-7.83-9.29-11.2-7.79c-3.37 1.51-3.11 12.7-3.11 12.7L346.8 38.52c0 0-4.6-8.5-10.1-8.77c-5.48-0.256-11.7 4.96-13.9 4.85c-2.19-0.1-6.83-5.28-10.1-6.54c-3.23-1.27-3.99-11.3-13.4-10.6c-9.37 0.664-12.2 4.96-12.3 8.28c-0.164 3.32-3.1 7.05-4.73 6.98c-1.65-0.078-6.33-5.28-9.05-5.97c-2.71-0.682-5.95-1.96-7.67-0.373c-1.72 1.59-16.5 11.6-21.9 9.66c-5.4-1.92 3.63-11.8-5.79-10c-5.62 1.06-10.8 3.95-16.2 5.81c-4.22 1.45-9.01 2.12-10.8 7.62c-0.692 0.168-1.78 0.066-2.45-0.217c0.355-1.61-0.236-3-0.227-4.46c-4.75-0.559-2.74 6.17-3.38 9.74c-3.9 0.904-5.69-9.46-8.38-0.789c-0.97 3.12 1.56 10.5-2.86 11.2c-2.96 0.461-6.55-6.99-9.32-8.13c-8.23-3.34-10.3 6.42-11.5 9.69c-1.26 3.28-0.904 8.59-2.1 10.2c2.61-3.77 57 9.33 62.5 14c12.7 10.8 16 17.2 33 20.2c16.5 2.91 26-3.64 40.4-7.79c15.4-4.45 31.7-1.04 47.4-2.81c5.33-0.596 9.21-3.59 13.1-7.05Z" fill="rgb(56.5%,68.6%,18.8%)"  />
		<path id="" d="M269.7 131.9c-0.867 1.14-1.73 2.31-2.62 3.49c-5.22 6.87-12.3 12.6-21.3 12.6c-4.14 0.031-8.25-1.77-12.5-1.28c0.758 4.69 2.26 9.58 6.99 11.7c1.89 0.865 4.52 0.08 6.25 1.17c2.26 1.43 1.64 3.86 3.37 5.49c1.97 1.85 3.62 0.476 5.68 1.16c2.89 0.95 2.28 1.26 3.96 3.74c2.94 4.35 4.24 3.25 8.59 4.52c2.93 0.854 9.48 7.6 12.5 5.48c3.01-2.13 0.601-13 0.601-13L298.2 171.8c0 0 6.15 7.46 11.6 6.66c5.43-0.807 10.5-7.13 12.7-7.44c2.17-0.324 7.72 3.86 11.1 4.48c3.42 0.625 6.1 10.3 15.2 7.83c9.06-2.46 11-7.21 10.5-10.5c-0.479-3.29 1.68-7.52 3.3-7.76c1.63-0.241 7.23 3.96 10 4.11c2.8 0.145 6.22 0.769 7.6-1.12c1.38-1.89 14-14.6 19.7-13.7c5.67 0.843-1.29 12.2 7.61 8.69c5.31-2.13 9.79-5.95 14.8-8.83c3.86-2.24 8.43-3.82 9.08-9.55c0.647-0.299 1.73-0.408 2.44-0.26c-0.038 1.65 0.812 2.9 1.08 4.33c4.77-0.369 1.5-6.58 1.43-10.2c3.66-1.64 7.41 8.19 8.37-0.843c0.35-3.25-3.55-9.98 0.656-11.5c2.82-1.03 7.78 5.6 10.7 6.17c8.72 1.69 8.82-8.28 9.42-11.7c0.604-3.46-0.771-8.6 0.085-10.4c-1.83 4.2-57.7 1.84-64-1.69c-14.5-8.11-19-13.8-36.3-13.4c-16.8 0.332-24.8 8.59-38.1 15.4c-14.3 7.35-30.9 7.14-46 11.9c-5.12 1.61-8.34 5.3-11.5 9.45Z" fill="rgb(56.5%,68.6%,18.8%)"  />
		<path id="" d="M324.6 46.92c-0.26 2.54-3.14 4.4-6.44 4.15L302.7 49.92c-3.29-0.246-5.75-2.51-5.49-5.05c0.262-2.54 3.14-4.4 6.43-4.16L319.1 41.87c3.3 0.246 5.75 2.5 5.49 5.05Z" stroke="rgb(100%,94.9%,82.7%)" stroke-width="0.25" fill="rgb(100%,95.3%,87.1%)"  />
		<path id="" d="M300.5 64.43c-1.46 2.1-4.88 2.33-7.64 0.512L280 56.46c-2.76-1.81-3.81-4.98-2.35-7.08c1.46-2.1 4.88-2.33 7.64-0.512L298.2 57.35c2.76 1.81 3.81 4.98 2.35 7.08Z" stroke="rgb(100%,94.9%,82.7%)" stroke-width="0.25" fill="rgb(100%,95.3%,87.1%)"  />
		<path id="" d="M307.9 67.61c-2.04 1.54-5.36 0.703-7.43-1.87L290.8 53.68c-2.07-2.57-2.09-5.92-0.053-7.46c2.04-1.54 5.36-0.703 7.43 1.87L307.8 60.15c2.07 2.58 2.09 5.92 0.062 7.46Z" stroke="rgb(100%,94.9%,82.7%)" stroke-width="0.25" fill="rgb(100%,95.3%,87.1%)"  />
		<path id="" d="M316 77.62c-0.26 2.54-3.14 4.4-6.44 4.15L294.2 80.62c-3.29-0.244-5.75-2.51-5.49-5.05c0.264-2.54 3.14-4.4 6.43-4.16L310.5 72.57c3.3 0.244 5.75 2.5 5.5 5.05Z" stroke="rgb(100%,94.9%,82.7%)" stroke-width="0.25" fill="rgb(100%,95.3%,87.1%)"  />
		<path id="" d="M304.1 69.94c-0.262 2.54-3.14 4.4-6.44 4.15L282.2 72.95c-3.29-0.248-5.75-2.51-5.49-5.05c0.26-2.54 3.14-4.4 6.43-4.16L298.6 64.89c3.3 0.249 5.76 2.51 5.5 5.05Z" stroke="rgb(100%,94.9%,82.7%)" stroke-width="0.25" fill="rgb(100%,95.3%,87.1%)"  />
		<path id="" d="M324.6 46.92c-0.26 2.54-3.14 4.4-6.44 4.15L302.7 49.92c-3.29-0.246-5.75-2.51-5.49-5.05c0.262-2.54 3.14-4.4 6.43-4.16L319.1 41.87c3.3 0.246 5.75 2.5 5.49 5.05ZM304.1 69.94c-0.082 0.77-0.401 1.47-0.894 2.08L310.5 72.57c3.3 0.244 5.75 2.5 5.5 5.05c-0.26 2.54-3.14 4.4-6.44 4.15L294.2 80.62c-3.29-0.244-5.75-2.51-5.49-5.05c0.082-0.765 0.395-1.47 0.896-2.08L282.2 72.95c-3.29-0.248-5.75-2.51-5.49-5.05c0.26-2.54 3.14-4.4 6.43-4.16L292.1 64.41L280 56.46c-2.76-1.81-3.81-4.98-2.35-7.08c1.46-2.1 4.88-2.33 7.64-0.512L289.7 51.76c-0.842-2.13-0.487-4.36 1.06-5.54c2.04-1.54 5.36-0.703 7.43 1.87L307.8 60.15c2.07 2.58 2.09 5.92 0.062 7.46c-1.11 0.844-2.62 0.979-4.08 0.502c0.244 0.573 0.345 1.19 0.286 1.83Z" stroke="rgb(100%,97.3%,91%)" stroke-width="1" fill="none"  />
		<path id="" d="M251.4 77.47c-1.05 2.33 0.521 5.38 3.49 6.81L268.9 91c2.98 1.44 6.24 0.707 7.29-1.62c1.05-2.33-0.521-5.38-3.49-6.82L258.7 75.85c-2.98-1.43-6.24-0.705-7.28 1.63Z" stroke="rgb(100%,94.9%,82.7%)" stroke-width="0.25" fill="rgb(100%,99.2%,91.8%)"  />
		<path id="" d="M186.4 89.38c-1.69-0.294-2.81-1.91-2.52-3.59L184.2 84.07c0.3-1.69 1.91-2.81 3.59-2.51L201.6 83.97c1.69 0.294 2.81 1.91 2.52 3.59L203.8 89.28c-0.299 1.69-1.9 2.81-3.59 2.52L186.4 89.38Z" stroke="rgb(100%,94.9%,82.7%)" stroke-width="0.25" fill="rgb(100%,99.2%,91.8%)"  />
		<path id="" d="M192.7 87.37c-1.66-0.44-2.64-2.14-2.19-3.79L190.9 81.88c0.439-1.65 2.14-2.63 3.8-2.19L208.2 83.3c1.66 0.438 2.64 2.14 2.19 3.79L209.9 88.79c-0.442 1.65-2.14 2.63-3.8 2.19L192.7 87.37Z" stroke="rgb(100%,94.9%,82.7%)" stroke-width="0.25" fill="rgb(100%,99.2%,91.8%)"  />
		<path id="" d="M284.9 65.51c-0.601 2.22 1.23 4.72 4.08 5.58L302.4 75.11c2.85 0.856 5.66-0.249 6.26-2.48c0.606-2.23-1.22-4.72-4.08-5.58L291.2 63.03c-2.85-0.855-5.66 0.254-6.26 2.48Z" stroke="rgb(100%,94.9%,82.7%)" stroke-width="0.2256" fill="rgb(100%,99.2%,91.8%)"  />
		<path id="" d="M310.5 71.89c1.84 1.39 4.84 0.639 6.7-1.69L326 59.32c1.87-2.33 1.89-5.34 0.047-6.73c-1.84-1.4-4.84-0.639-6.7 1.69L310.6 65.16c-1.87 2.32-1.88 5.34-0.045 6.73Z" stroke="rgb(100%,94.9%,82.7%)" stroke-width="0.2256" fill="rgb(100%,99.2%,91.8%)"  />
		<path id="" d="M408 91.73c1.46 2.1 4.88 2.32 7.64 0.512L428.6 83.76c2.76-1.81 3.81-4.98 2.35-7.08c-1.46-2.1-4.88-2.33-7.64-0.513L410.4 84.65c-2.76 1.81-3.81 4.98-2.35 7.08Z" stroke="rgb(100%,94.9%,82.7%)" stroke-width="0.25" fill="rgb(100%,99.2%,91.8%)"  />
		<path id="" d="M236.5 109.5c-1.27-1.76-0.746-4.32 1.16-5.73L246.6 97.18c1.9-1.41 4.47-1.14 5.74 0.609c1.27 1.75 0.754 4.32-1.15 5.73L242.3 110.1c-1.9 1.41-4.47 1.14-5.74-0.609ZM249.8 113.1c-0.851-1.61-0.428-3.77 1.12-5.14L259.3 100.6c1.78-1.58 4.35-1.54 5.77 0.096c1.41 1.64 1.11 4.24-0.662 5.81L256 113.9c-1.36 1.21-3.18 1.47-4.6 0.797c0.981 1.84 0.224 4.24-1.74 5.45L240.3 125.9c-2.01 1.24-4.55 0.743-5.66-1.11c-1.11-1.86-0.366-4.38 1.64-5.61L245.7 113.4c1.33-0.818 2.89-0.876 4.12-0.285Z" stroke="rgb(98.8%,83.1%,68.2%)" stroke-width="0.25" fill="rgb(100%,94.5%,82.4%)"  />
		<path id="" d="M244.8 125.4c-1.44-2.06-0.528-5.31 2.04-7.28L258.8 109c2.57-1.96 5.82-1.87 7.26 0.19c1.44 2.06 0.532 5.32-2.03 7.27L252 125.6c-2.57 1.96-5.82 1.88-7.27-0.191Z" stroke="rgb(98.8%,83.1%,68.2%)" stroke-width="0.25" fill="rgb(100%,94.5%,82.4%)"  />
		<path id="" d="M251.1 96.78c-0.279-2.51 2.08-4.9 5.26-5.35L271.2 89.34c3.18-0.446 5.99 1.23 6.27 3.74c0.273 2.51-2.08 4.9-5.27 5.35L257.3 100.5c-3.18 0.444-5.99-1.23-6.27-3.74Z" stroke="rgb(98.8%,83.1%,68.2%)" stroke-width="0.25" fill="rgb(100%,94.5%,82.4%)"  />
		<path id="" d="M243.7 99.19c0.502-2.47 3.48-4.01 6.64-3.44L265.1 98.44c3.17 0.573 5.33 3.04 4.83 5.52c-0.497 2.48-3.47 4.01-6.64 3.44L248.5 104.7c-3.17-0.572-5.33-3.05-4.84-5.52Z" stroke="rgb(98.8%,83.1%,68.2%)" stroke-width="0.25" fill="rgb(100%,94.5%,82.4%)"  />
		<path id="" d="M231.3 97.03c-1.44-2.06-0.528-5.32 2.04-7.28L245.3 80.59c2.56-1.95 5.81-1.87 7.26 0.192c1.44 2.06 0.528 5.32-2.04 7.27L238.5 97.21c-2.57 1.96-5.82 1.88-7.26-0.182Z" stroke="rgb(98.8%,83.1%,68.2%)" stroke-width="0.25" fill="rgb(100%,94.5%,82.4%)"  />
		<path id="" d="M244.9 94.98c-1.44-2.06-0.53-5.32 2.04-7.28L259 78.54c2.56-1.96 5.82-1.87 7.26 0.189c1.44 2.06 0.531 5.32-2.03 7.28L252.2 95.17c-2.57 1.96-5.82 1.88-7.27-0.186Z" stroke="rgb(98.8%,83.1%,68.2%)" stroke-width="0.25" fill="rgb(100%,94.5%,82.4%)"  />
		<path id="" d="M244.9 94.98c-0.433-0.623-0.653-1.35-0.685-2.13L238.5 97.21c-2.57 1.96-5.82 1.88-7.26-0.183c-1.44-2.06-0.528-5.32 2.04-7.28L245.3 80.59c2.56-1.95 5.81-1.87 7.26 0.192c0.431 0.622 0.656 1.36 0.682 2.13L259 78.54c2.56-1.96 5.82-1.87 7.26 0.189c1.44 2.06 0.531 5.32-2.03 7.28L257.3 91.3L271.2 89.34c3.18-0.446 5.99 1.23 6.27 3.74c0.273 2.51-2.08 4.9-5.27 5.35L267.2 99.15c1.98 1.04 3.16 2.93 2.78 4.81c-0.497 2.48-3.47 4.01-6.64 3.44c1 0.277 2.08 0.811 2.76 1.78c1.44 2.06 0.532 5.32-2.03 7.27L252 125.6c-2.57 1.96-5.82 1.88-7.27-0.191c-0.383-0.551-0.603-1.19-0.666-1.86L240.3 125.9c-2.01 1.24-4.55 0.743-5.66-1.11c-1.11-1.86-0.366-4.38 1.64-5.61L245.7 113.4c1.33-0.817 2.89-0.876 4.12-0.285c-0.851-1.61-0.428-3.77 1.12-5.14L253.6 105.6L249.4 104.9L242.3 110.1c-1.9 1.41-4.47 1.14-5.74-0.609c-1.27-1.76-0.746-4.32 1.16-5.73L243.6 99.41c0.305-1.57 1.32-2.65 2.7-3.24c-0.547-0.268-1.02-0.661-1.38-1.18Z" stroke="rgb(98.8%,83.1%,68.2%)" stroke-width="1" fill="rgb(100%,94.5%,82.4%)"  />
		<path id="" d="M188.5 88.31c-1.27-1.75-0.754-4.32 1.16-5.73L198.5 75.96c1.9-1.42 4.48-1.14 5.74 0.606c1.27 1.75 0.748 4.32-1.15 5.73L194.2 88.92c-1.9 1.42-4.47 1.14-5.73-0.61ZM201.7 91.88c-0.85-1.61-0.428-3.77 1.12-5.15L211.2 79.35c1.78-1.58 4.36-1.53 5.77 0.096c1.41 1.64 1.12 4.24-0.662 5.82L208 92.65c-1.35 1.2-3.18 1.46-4.6 0.794c0.979 1.84 0.231 4.24-1.73 5.44L192.2 104.7c-2.02 1.24-4.56 0.738-5.66-1.12c-1.11-1.86-0.374-4.36 1.65-5.61L197.6 92.16c1.33-0.817 2.9-0.877 4.12-0.288Z" stroke="rgb(98.8%,83.1%,68.2%)" stroke-width="0.25" fill="rgb(100%,94.5%,82.4%)"  />
		<path id="" d="M196.7 104.2c-1.45-2.06-0.528-5.32 2.04-7.27L210.7 87.77c2.57-1.96 5.82-1.88 7.26 0.185c1.45 2.06 0.537 5.32-2.04 7.28L203.9 104.4c-2.56 1.96-5.82 1.87-7.26-0.189Z" stroke="rgb(98.8%,83.1%,68.2%)" stroke-width="0.25" fill="rgb(100%,94.5%,82.4%)"  />
		<path id="" d="M203 75.56c-0.28-2.51 2.07-4.91 5.26-5.35L223.2 68.12c3.19-0.449 5.99 1.23 6.27 3.73c0.279 2.51-2.08 4.91-5.26 5.35L209.3 79.3c-3.19 0.443-5.99-1.23-6.27-3.74Z" stroke="rgb(98.8%,83.1%,68.2%)" stroke-width="0.25" fill="rgb(100%,94.5%,82.4%)"  />
		<path id="" d="M195.6 77.96c0.499-2.47 3.47-4.01 6.64-3.44L217 77.22c3.16 0.574 5.32 3.04 4.82 5.52c-0.497 2.47-3.47 4.01-6.64 3.43L200.4 83.48c-3.17-0.577-5.33-3.04-4.84-5.52Z" stroke="rgb(98.8%,83.1%,68.2%)" stroke-width="0.25" fill="rgb(100%,94.5%,82.4%)"  />
		<path id="" d="M183.2 75.81c-1.44-2.07-0.53-5.32 2.04-7.28L197.3 59.37c2.57-1.96 5.82-1.88 7.26 0.186c1.45 2.06 0.528 5.32-2.04 7.28L190.5 76c-2.57 1.96-5.82 1.87-7.26-0.186Z" stroke="rgb(98.8%,83.1%,68.2%)" stroke-width="0.25" fill="rgb(100%,94.5%,82.4%)"  />
		<path id="" d="M196.9 73.76c-1.45-2.06-0.53-5.32 2.03-7.28L210.9 57.32c2.57-1.96 5.82-1.87 7.26 0.189c1.45 2.06 0.531 5.32-2.03 7.28L204.1 73.95c-2.57 1.96-5.82 1.87-7.26-0.189Z" stroke="rgb(98.8%,83.1%,68.2%)" stroke-width="0.25" fill="rgb(100%,94.5%,82.4%)"  />
		<path id="" d="M336.9 62.2c-1.72 1.83-1.17 5.08 1.22 7.27L343.5 74.35c-0.748 0.172-1.41 0.529-1.93 1.08c-0.431 0.455-0.717 1-0.874 1.6c-0.842-1.26-2.08-2.07-3.44-2.09L331.6 69.88c-1.73-1.63-4.32-1.66-5.76-0.076c-1.45 1.59-1.22 4.21 0.517 5.83L332.8 81.72L332.9 86.03L330.1 83.85c-1.63-1.28-3.8-1.3-5.19-0.148c0.334-1.33-0.028-2.88-1.07-4.06L316.4 71.32c-1.59-1.78-4.16-2.04-5.74-0.592c-1.58 1.46-1.57 4.08 0.02 5.86L313.7 79.96c-0.64 0.189-1.22 0.527-1.68 1.02c-1.71 1.82-1.17 5.08 1.23 7.27L324.5 98.5c2.39 2.19 5.72 2.49 7.43 0.662c0.808-0.859 1.12-2.04 0.964-3.27c0.289 3.44 2.35 6.11 4.83 6.15c1.9 0.025 3.5-1.5 4.12-3.67L343.5 103.3c1.05 3.09 3.81 4.98 6.19 4.23c2.37-0.749 3.44-3.86 2.4-6.95L347.5 87.04L353.9 92.96c2.39 2.19 5.73 2.49 7.43 0.659c1.72-1.82 1.17-5.08-1.22-7.27L354.8 81.46c0.747-0.17 1.41-0.529 1.93-1.08c1.72-1.83 1.17-5.08-1.22-7.27L344.3 62.86c-2.39-2.19-5.72-2.49-7.43-0.662Z" stroke="rgb(98.8%,83.1%,68.2%)" stroke-width="0.25" fill="rgb(100%,94.5%,82.4%)"  />
		<path id="" d="M383.5 49.14c1.32-2.15 0.206-5.34-2.48-7.15L368.4 33.54c-2.68-1.81-5.92-1.53-7.23 0.602c-0.397 0.65-0.577 1.4-0.551 2.17L354.7 32.28c-2.68-1.8-5.92-1.54-7.23 0.607c-1.32 2.14-0.206 5.34 2.48 7.15L357.2 44.92L343.1 43.77c-3.21-0.262-5.91 1.57-6.04 4.09c-0.123 2.52 2.38 4.78 5.58 5.04L347.8 53.32c-1.92 1.16-2.97 3.1-2.47 4.97c0.654 2.44 3.71 3.8 6.83 3.04c-0.983 0.34-2.03 0.934-2.65 1.94c-1.31 2.14-0.205 5.34 2.48 7.15L364.5 78.88c2.68 1.8 5.92 1.53 7.24-0.608c0.354-0.574 0.534-1.23 0.552-1.91L376.3 78.49c2.1 1.12 4.6 0.477 5.59-1.44c0.997-1.92 0.101-4.38-1.99-5.5L370.1 66.3c-1.39-0.742-2.95-0.711-4.13-0.051c0.751-1.66 0.194-3.79-1.43-5.07L361.7 59.01L365.9 58.01L373.3 62.86c1.99 1.3 4.54 0.883 5.69-0.938c1.16-1.82 0.482-4.35-1.5-5.66L371.3 52.22c-0.401-1.55-1.48-2.56-2.89-3.08c0.531-0.297 0.979-0.715 1.31-1.25c0.396-0.645 0.568-1.39 0.551-2.16L376.2 49.75c2.68 1.81 5.92 1.53 7.23-0.606Z" stroke="rgb(98.8%,83.1%,68.2%)" stroke-width="0.25" fill="rgb(100%,94.5%,82.4%)"  />
		<path id="" d="M275.6 131.6c0.382 2.13 2.58 3.52 4.9 3.1L291.3 132.8c2.32-0.423 3.89-2.49 3.52-4.63c-0.385-2.14-2.58-3.52-4.9-3.11L279.1 127c-2.32 0.423-3.9 2.49-3.52 4.63ZM282.2 119.4c0.572 1.74 2.4 2.91 4.45 2.72L297.6 121.2c2.36-0.215 4.11-2.14 3.91-4.3c-0.196-2.16-2.26-3.74-4.61-3.52L285.9 114.3c-1.8 0.162-3.24 1.32-3.73 2.82c-0.646-1.98-2.88-3.09-5.1-2.48L266.4 117.6c-2.28 0.626-3.67 2.83-3.11 4.93c0.562 2.09 2.87 3.28 5.15 2.65L279.1 122.3c1.51-0.407 2.62-1.51 3.04-2.82Z" stroke="rgb(98.8%,83.1%,68.2%)" stroke-width="0.25" fill="rgb(100%,94.5%,82.4%)"  />
		<path id="" d="M269.8 114.6c0.479 2.47 3.44 4.06 6.61 3.52L291.3 115.7c3.17-0.532 5.35-2.97 4.87-5.46c-0.479-2.48-3.44-4.06-6.61-3.52L274.7 109.2c-3.18 0.533-5.36 2.97-4.88 5.46Z" stroke="rgb(98.8%,83.1%,68.2%)" stroke-width="0.25" fill="rgb(100%,94.5%,82.4%)"  />
		<path id="" d="M294.7 129.8c1.6 1.94 4.94 1.86 7.45-0.172L313.9 120.1c2.51-2.02 3.25-5.24 1.64-7.17c-1.6-1.93-4.94-1.86-7.45 0.17L296.3 122.6c-2.51 2.03-3.25 5.24-1.65 7.18Z" stroke="rgb(98.8%,83.1%,68.2%)" stroke-width="0.25" fill="rgb(100%,94.5%,82.4%)"  />
		<path id="" d="M287.9 133.6c2.11 1.34 5.26 0.215 7.03-2.5L303.2 118.3c1.77-2.72 1.5-6.01-0.613-7.35c-2.12-1.34-5.27-0.222-7.04 2.5L287.3 126.2c-1.78 2.72-1.5 6.01 0.613 7.35Z" stroke="rgb(98.8%,83.1%,68.2%)" stroke-width="0.25" fill="rgb(100%,94.5%,82.4%)"  />
		<path id="" d="M280.9 144.1c0.476 2.48 3.43 4.06 6.61 3.52L302.3 145.1c3.17-0.534 5.35-2.98 4.87-5.46c-0.479-2.47-3.44-4.06-6.61-3.52L285.7 138.7c-3.17 0.533-5.36 2.97-4.87 5.46Z" stroke="rgb(98.8%,83.1%,68.2%)" stroke-width="0.25" fill="rgb(100%,94.5%,82.4%)"  />
		<path id="" d="M291.8 135.5c0.483 2.48 3.44 4.06 6.61 3.52L313.2 136.5c3.16-0.531 5.35-2.98 4.86-5.46c-0.477-2.48-3.44-4.06-6.61-3.53L296.6 130c-3.18 0.536-5.36 2.98-4.88 5.46Z" stroke="rgb(98.8%,83.1%,68.2%)" stroke-width="0.25" fill="rgb(100%,94.5%,82.4%)"  />
		<path id="" d="M233.9 133.1c-1.21 1.78-0.627 4.33 1.32 5.7L244.3 145.2c1.94 1.37 4.5 1.04 5.72-0.739c1.22-1.78 0.628-4.33-1.32-5.7L239.6 132.4c-1.94-1.37-4.5-1.04-5.72 0.738ZM247.1 129.3c-0.812 1.63-0.325 3.78 1.26 5.12L256.8 141.6c1.81 1.53 4.4 1.44 5.76-0.229c1.37-1.67 0.999-4.26-0.813-5.8L253.3 128.4c-1.38-1.17-3.21-1.39-4.61-0.688c0.931-1.86 0.113-4.25-1.88-5.41L237.2 116.7c-2.05-1.19-4.57-0.637-5.63 1.24c-1.06 1.88-0.26 4.37 1.79 5.57L242.9 129.1c1.36 0.789 2.91 0.813 4.13 0.196Z" stroke="rgb(98.8%,83.1%,68.2%)" stroke-width="0.25" fill="rgb(100%,94.5%,82.4%)"  />
		<path id="" d="M231.5 130.4c0.48 2.48 3.44 4.06 6.62 3.52L252.9 131.4c3.17-0.531 5.35-2.98 4.87-5.46c-0.48-2.47-3.44-4.06-6.61-3.53L236.3 124.9c-3.18 0.536-5.36 2.98-4.88 5.46Z" stroke="rgb(98.8%,83.1%,68.2%)" stroke-width="0.25" fill="rgb(100%,94.5%,82.4%)"  />
		<path id="" d="M210.2 117.8c0.197 2.16 2.26 3.74 4.61 3.53L225.8 120.3c2.35-0.212 4.09-2.14 3.9-4.3L229.7 116c-0.198-2.16-2.27-3.74-4.61-3.52L214.1 113.5c-2.35 0.215-4.1 2.14-3.9 4.3L210.2 117.8Z" stroke="rgb(98.8%,83.1%,68.2%)" stroke-width="0.25" fill="rgb(100%,94.5%,82.4%)"  />
		<path id="" d="M192.4 114.4c0.008 2.17 1.93 3.92 4.3 3.92L207.8 118.3c2.36-0.006 4.27-1.77 4.26-3.94L212 114.3c-0.009-2.17-1.93-3.93-4.3-3.92L196.7 110.4c-2.36 0.006-4.27 1.77-4.26 3.94L192.4 114.4Z" stroke="rgb(98.8%,83.1%,68.2%)" stroke-width="0.25" fill="rgb(100%,94.5%,82.4%)"  />
		<path id="" d="M327.1 105L327 101.6c0.564 0.233 1.19 0.356 1.85 0.347L338.1 101.8L333.9 106.1c-0.64-0.438-1.42-0.719-2.26-0.777L327.1 105ZM283.6 97.62c1.55-0.004 3.26-0.732 4.6-2.12L290.7 92.98c0.394 0.059 0.796 0.07 1.21 0.023L299.5 92.18c-0.239 0.74-0.268 1.51-0.039 2.27c0.733 2.42 3.84 3.67 6.93 2.8L310 96.23L308.3 97.96c-1.42-0.237-2.99 0.354-4.03 1.67L297.4 108.4c-0.975 1.23-1.24 2.8-0.823 4.11c-1.46-1.07-3.62-0.928-5.17 0.447L288.8 115.3L288.6 111L294.7 104.5c1.63-1.73 1.71-4.35 0.162-5.86c-1.54-1.5-4.12-1.32-5.75 0.412L284 104.4c-1.58 0.107-2.76 0.984-3.53 2.29c-0.191-0.586-0.505-1.11-0.965-1.55c-0.554-0.517-1.24-0.842-1.99-0.967L282.5 99.04c0.429-0.439 0.786-0.92 1.08-1.42ZM279 83.79L278.9 80.4c0.56 0.231 1.18 0.354 1.85 0.345L290.1 80.56L285.9 84.88c-0.64-0.438-1.41-0.718-2.27-0.779L279 83.79ZM277.1 66.02c-0.734-2.41-3.84-3.67-6.93-2.8L255.6 67.28c-3.09 0.865-5.01 3.53-4.28 5.94c0.726 2.42 3.84 3.67 6.93 2.8L261.9 75L260.3 76.74c-1.42-0.234-2.99 0.357-4.04 1.67L249.3 87.15c-0.982 1.23-1.24 2.8-0.826 4.11c-1.47-1.07-3.62-0.93-5.18 0.443L240.7 94.04L240.5 89.74L246.6 83.29c1.63-1.73 1.7-4.35 0.155-5.85c-1.54-1.5-4.12-1.32-5.75 0.409L235.9 83.22c-1.57 0.104-2.76 0.986-3.53 2.29c-0.182-0.584-0.502-1.11-0.962-1.55c-0.548-0.52-1.23-0.84-1.99-0.969L234.5 77.81c2.25-2.32 2.6-5.6 0.779-7.32c-1.82-1.72-5.13-1.24-7.38 1.09L217.3 82.45c-2.25 2.32-2.6 5.6-0.771 7.33c0.549 0.52 1.24 0.839 1.99 0.968L213.5 95.93c-2.26 2.32-2.6 5.6-0.779 7.32c1.82 1.73 5.13 1.24 7.38-1.09L226.2 95.89L222.5 109.7c-0.854 3.14 0.408 6.19 2.83 6.8c2.41 0.613 5.07-1.44 5.92-4.58L232.6 106.9c0.76 2.14 2.44 3.56 4.34 3.43c2.48-0.173 4.37-2.96 4.23-6.22c0.148 1.05 0.52 2.2 1.38 3.01c1.82 1.72 5.12 1.24 7.38-1.09L260.4 95.13c1.8-1.86 2.38-4.32 1.62-6.11L268.6 85.25c-0.316 0.509-0.52 1.09-0.554 1.71c-0.103 1.59 0.836 3.03 2.28 3.75L270.5 94.2c0.054 1.23 0.391 2.36 0.925 3.27L265.4 103.7c-2.25 2.32-2.6 5.6-0.78 7.32c0.558 0.521 1.24 0.839 1.99 0.97L261.6 117.1c-2.25 2.32-2.6 5.61-0.773 7.33c1.82 1.72 5.12 1.24 7.38-1.09L274.3 117.1L270.5 130.9c-0.854 3.15 0.408 6.19 2.82 6.8c2.41 0.609 5.07-1.44 5.92-4.58L280.6 128.1c0.752 2.13 2.45 3.56 4.34 3.42c2.48-0.174 4.38-2.96 4.23-6.22c0.14 1.04 0.52 2.21 1.38 3.02c1.82 1.72 5.13 1.24 7.38-1.09L308.5 116.3c1.8-1.86 2.39-4.31 1.62-6.11L316.7 106.5c-0.318 0.502-0.519 1.08-0.559 1.72c-0.1 1.59 0.842 3.03 2.29 3.74L318.6 115.4c0.14 3.26 2.27 5.76 4.75 5.59c2.48-0.174 4.38-2.96 4.24-6.22L327.5 112.9c-0.014 1.85 0.221 3.73 1.46 4.9c1.82 1.72 5.12 1.24 7.38-1.09L338.7 114.2c0.387 0.06 0.793 0.074 1.21 0.025L350.9 113c2.35-0.257 4.07-2.22 3.83-4.37c-0.234-2.15-2.32-3.69-4.68-3.44L347.1 105.5c2-2.3 2.25-5.38 0.5-7.03c-0.92-0.869-2.22-1.17-3.56-0.969c-0.147-2.08-2.06-3.7-4.36-3.65L328.6 94.11c-1.29 0.025-2.44 0.57-3.2 1.41c-0.865-1.06-2.04-1.67-3.32-1.58c-0.659 0.045-1.27 0.275-1.82 0.646c-0.676 0.065-1.37 0.246-2.05 0.535L317.2 94.21L320.9 93.18c3.1-0.863 5.01-3.53 4.28-5.94c-0.733-2.42-3.83-3.67-6.93-2.81L306.7 87.66c-0.251-2.38-2.35-3.92-4.69-3.67L299 84.32c2.01-2.3 2.25-5.38 0.499-7.03c-0.913-0.867-2.21-1.18-3.56-0.973c-0.151-2.08-2.05-3.7-4.35-3.65L280.6 72.89c-1.29 0.028-2.43 0.575-3.2 1.42c-0.865-1.06-2.05-1.68-3.32-1.59c-0.65 0.049-1.27 0.275-1.82 0.648c-0.677 0.07-1.37 0.244-2.06 0.537L269.1 72.99L272.8 71.97c3.1-0.864 5.02-3.53 4.29-5.94Z" stroke="rgb(98.8%,83.1%,68.2%)" stroke-width="0.25" fill="rgb(100%,94.5%,82.4%)"  />
		<path id="" d="M171.4 73.2c-1.61 0.441-3.26-0.523-3.7-2.16L167.3 69.38c-0.44-1.64 0.505-3.32 2.12-3.76L182.5 62.02c1.61-0.441 3.27 0.525 3.71 2.16L186.7 65.84c0.442 1.63-0.512 3.32-2.11 3.76L171.4 73.2Z" stroke="rgb(98.8%,83.1%,68.2%)" stroke-width="0.25" fill="rgb(100%,94.5%,82.4%)"  />
		<path id="" d="M194 137.4L193.9 129.5L213.6 129.5L213.6 137.3L194 137.4Z" stroke="rgb(98.8%,83.1%,68.2%)" stroke-width="0.25" fill="rgb(100%,94.5%,82.4%)"  />
		<path id="" d="M199.8 132.8c-1.64 0.303-3.2-0.811-3.51-2.47L196 128.6c-0.294-1.66 0.8-3.25 2.44-3.56L211.8 122.6c1.64-0.293 3.21 0.812 3.51 2.48L215.6 126.8c0.297 1.67-0.791 3.26-2.43 3.55L199.8 132.8Z" stroke="rgb(98.8%,83.1%,68.2%)" stroke-width="0.25" fill="rgb(100%,94.5%,82.4%)"  />
		<path id="" d="M333.8 73.34c0.02 2.17-1.89 3.93-4.25 3.93L318.5 77.29c-2.36 0.008-4.29-1.75-4.3-3.91c-0.009-2.17 1.9-3.93 4.26-3.94L329.5 69.42c2.36-0.00699 4.29 1.75 4.29 3.92ZM325.1 62.53c-0.242 1.81-1.83 3.3-3.89 3.49L310.2 67.01c-2.36 0.215-4.43-1.36-4.62-3.52c-0.197-2.16 1.55-4.09 3.9-4.3L320.5 58.2c1.8-0.162 3.43 0.715 4.18 2.1c0.276-2.07 2.27-3.56 4.56-3.36L340.3 57.89c2.35 0.199 4.12 2.11 3.95 4.27c-0.183 2.16-2.23 3.75-4.59 3.55L328.6 64.76c-1.56-0.134-2.85-1.01-3.51-2.23Z" stroke="rgb(98.8%,83.1%,68.2%)" stroke-width="0.25" fill="rgb(100%,94.5%,82.4%)"  />
		<path id="" d="M336.3 55.6c-0.03 2.52-2.65 4.61-5.87 4.66L315.4 60.49c-3.21 0.047-5.8-1.96-5.77-4.49c0.018-2.52 2.65-4.61 5.86-4.66L330.5 51.11c3.21-0.048 5.8 1.96 5.78 4.49Z" stroke="rgb(98.8%,83.1%,68.2%)" stroke-width="0.25" fill="rgb(100%,94.5%,82.4%)"  />
		<path id="" d="M314.6 74.96c-1.23 2.19-4.52 2.72-7.36 1.18L294 68.93c-2.84-1.54-4.15-4.56-2.92-6.76c1.23-2.19 4.53-2.72 7.37-1.18L311.7 68.2c2.84 1.54 4.15 4.57 2.92 6.76Z" stroke="rgb(98.8%,83.1%,68.2%)" stroke-width="0.25" fill="rgb(100%,94.5%,82.4%)"  />
		<path id="" d="M322 77.44c-1.83 1.7-5.13 1.17-7.36-1.19L304.2 65.24c-2.23-2.35-2.56-5.64-0.719-7.34c1.83-1.7 5.13-1.17 7.37 1.18L321.3 70.11c2.23 2.35 2.56 5.64 0.719 7.34Z" stroke="rgb(98.8%,83.1%,68.2%)" stroke-width="0.25" fill="rgb(100%,94.5%,82.4%)"  />
		<path id="" d="M330.8 86.57c-0.031 2.52-2.65 4.61-5.86 4.66L309.9 91.46c-3.21 0.047-5.8-1.96-5.77-4.49c0.02-2.52 2.65-4.61 5.86-4.66L325 82.08c3.21-0.049 5.8 1.96 5.78 4.49Z" stroke="rgb(98.8%,83.1%,68.2%)" stroke-width="0.25" fill="rgb(100%,94.5%,82.4%)"  />
		<path id="" d="M318.6 80.07c-0.032 2.52-2.66 4.61-5.87 4.66L297.6 84.96c-3.21 0.049-5.8-1.96-5.77-4.49c0.014-2.52 2.64-4.61 5.86-4.66L312.8 75.58c3.22-0.048 5.8 1.96 5.79 4.49Z" stroke="rgb(98.8%,83.1%,68.2%)" stroke-width="0.25" fill="rgb(100%,94.5%,82.4%)"  />
		<path id="" d="M231.1 89.45c0.346 1.93 2.32 3.18 4.42 2.8L245.3 90.46c2.1-0.381 3.52-2.25 3.18-4.18c-0.346-1.93-2.32-3.18-4.43-2.8L234.2 85.27c-2.1 0.378-3.52 2.25-3.18 4.18ZM237 78.43c0.508 1.57 2.16 2.63 4.01 2.46L251 79.99c2.12-0.193 3.7-1.93 3.52-3.88c-0.177-1.95-2.04-3.37-4.16-3.18L240.4 73.84c-1.61 0.146-2.92 1.19-3.37 2.55c-0.58-1.79-2.6-2.79-4.59-2.24L222.8 76.79c-2.06 0.563-3.31 2.56-2.8 4.44c0.506 1.89 2.59 2.96 4.64 2.4L234.3 80.99c1.36-0.374 2.37-1.37 2.75-2.55Z" stroke="rgb(98.8%,83.1%,68.2%)" stroke-width="0.2256" fill="rgb(100%,94.5%,82.4%)"  />
		<path id="" d="M260.6 101c0.431 2.24 3.1 3.66 5.96 3.18L280 101.9c2.87-0.479 4.84-2.68 4.4-4.92c-0.432-2.24-3.1-3.66-5.96-3.18L265 96.04c-2.86 0.48-4.83 2.68-4.39 4.92Z" stroke="rgb(98.8%,83.1%,68.2%)" stroke-width="0.2256" fill="rgb(100%,94.5%,82.4%)"  />
		<path id="" d="M318.9 72.58c-1.41 1.77-0.758 4.76 1.45 6.68L330.7 88.23c2.21 1.92 5.14 2.03 6.55 0.264c1.41-1.77 0.76-4.76-1.45-6.68L325.4 72.84c-2.2-1.91-5.14-2.04-6.55-0.266Z" stroke="rgb(98.8%,83.1%,68.2%)" stroke-width="0.2256" fill="rgb(100%,94.5%,82.4%)"  />
		<path id="" d="M387 93.04c0.429 2.24 3.1 3.66 5.97 3.18L406.3 93.97c2.86-0.479 4.83-2.68 4.4-4.92c-0.427-2.24-3.1-3.66-5.97-3.18L391.4 88.12c-2.86 0.485-4.83 2.69-4.4 4.92Z" stroke="rgb(98.8%,83.1%,68.2%)" stroke-width="0.2256" fill="rgb(100%,94.5%,82.4%)"  />
		<path id="" d="M247.8 73.07c-1.21 1.78-0.629 4.33 1.31 5.7L258.2 85.19c1.94 1.37 4.5 1.04 5.72-0.742c1.22-1.78 0.625-4.33-1.32-5.7L253.6 72.33c-1.94-1.37-4.5-1.04-5.72 0.738ZM261 69.21c-0.808 1.63-0.327 3.78 1.25 5.12L270.8 81.52c1.81 1.54 4.39 1.43 5.76-0.23c1.37-1.66 0.999-4.26-0.811-5.79L267.2 68.3c-1.39-1.17-3.22-1.39-4.62-0.689c0.935-1.86 0.118-4.25-1.88-5.41L251.1 56.61c-2.05-1.19-4.57-0.639-5.63 1.24c-1.06 1.88-0.258 4.38 1.8 5.57L256.9 69.01c1.35 0.789 2.91 0.814 4.13 0.195Z" stroke="rgb(98.8%,83.1%,68.2%)" stroke-width="0.25" fill="rgb(100%,94.5%,82.4%)"  />
		<path id="" d="M245.4 70.31c0.479 2.48 3.43 4.06 6.61 3.52L266.9 71.34c3.16-0.533 5.35-2.97 4.86-5.46c-0.477-2.47-3.43-4.05-6.61-3.52L250.3 64.86c-3.17 0.531-5.36 2.97-4.88 5.45Z" stroke="rgb(98.8%,83.1%,68.2%)" stroke-width="0.25" fill="rgb(100%,94.5%,82.4%)"  />
		<path id="" d="M262.7 85.48c-0.205 2.52 2.21 4.86 5.41 5.23L283.1 92.48c3.2 0.378 5.96-1.36 6.18-3.87c0.206-2.52-2.21-4.86-5.41-5.23L268.9 81.61c-3.2-0.371-5.96 1.36-6.17 3.87Z" stroke="rgb(98.8%,83.1%,68.2%)" stroke-width="0.25" fill="rgb(100%,94.5%,82.4%)"  />
		<path id="" d="M340.9 108.6L343.5 111c1.43 1.31 3.18 1.93 4.73 1.85c0.322 0.475 0.709 0.934 1.16 1.35L354.7 119.1c-0.748 0.17-1.41 0.527-1.93 1.08c-0.432 0.457-0.717 1-0.871 1.6c-0.852-1.26-2.08-2.07-3.44-2.09L342.9 114.6c-1.74-1.63-4.32-1.67-5.77-0.076c-1.44 1.59-1.21 4.2 0.522 5.84L344.1 126.5L344.2 130.8L341.4 128.6c-1.64-1.28-3.8-1.3-5.19-0.143c0.334-1.34-0.028-2.88-1.08-4.06L327.7 116.1c-1.12-1.25-2.73-1.75-4.13-1.43L321.8 113L325.5 113.8c3.14 0.686 6.17-0.744 6.75-3.2c0.183-0.762 0.109-1.53-0.18-2.26L339.7 108.7c0.415 0.025 0.82-0.012 1.2-0.092ZM351.9 95.39L352 98.79L347.4 99.36c-0.838 0.111-1.6 0.438-2.21 0.91L340.8 96.19L350.1 95.84c0.657-0.024 1.27-0.184 1.82-0.449ZM352.8 80.94c-0.585 2.45 1.5 5 4.64 5.69L361.2 87.43L360.2 88.41c-0.7-0.25-1.4-0.388-2.08-0.418c-0.576-0.341-1.2-0.533-1.86-0.541c-1.27-0.016-2.42 0.667-3.21 1.77c-0.816-0.798-1.99-1.28-3.29-1.23L338.7 88.41c-2.3 0.086-4.1 1.81-4.12 3.9c-1.36-0.126-2.63 0.252-3.5 1.17c-1.64 1.75-1.21 4.81 0.934 6.99L329.1 100.3c-2.36-0.115-4.36 1.54-4.46 3.71L312.9 101.7c-3.14-0.688-6.17 0.747-6.75 3.19c-0.586 2.46 1.49 5 4.64 5.69L314.5 111.4L313.5 112.4c-0.696-0.255-1.4-0.39-2.08-0.42c-0.567-0.338-1.2-0.534-1.85-0.541c-2.48-0.031-4.45 2.59-4.4 5.85L305.5 132.5c0.055 3.26 2.12 5.94 4.6 5.97c2.49 0.031 4.46-2.59 4.4-5.85L314.3 122.9L322.6 127c-0.651 1.83 0.08 4.26 1.99 6.01L335.8 143.2c2.39 2.19 5.72 2.48 7.43 0.659c0.808-0.86 1.12-2.03 0.959-3.27c0.288 3.45 2.36 6.12 4.84 6.15c1.9 0.024 3.5-1.5 4.12-3.67L354.8 148c1.05 3.09 3.82 4.98 6.2 4.23c2.37-0.748 3.44-3.86 2.4-6.95L358.8 131.8L365.2 137.7c2.39 2.19 5.71 2.49 7.43 0.66c1.72-1.83 1.17-5.08-1.22-7.27L366.1 126.2c0.745-0.174 1.41-0.529 1.93-1.08c1.71-1.82 1.17-5.08-1.22-7.27L360.4 112c0.474-0.944 0.742-2.08 0.723-3.32L361.1 105.2c1.4-0.797 2.25-2.29 2.05-3.87c-0.078-0.627-0.312-1.19-0.661-1.68L370.4 103.6L371.4 104L373 105.5c2.39 2.19 5.72 2.48 7.43 0.662c1.71-1.83 1.17-5.08-1.22-7.28L368.5 89.03L372.2 89.84c3.15 0.684 6.17-0.748 6.76-3.2c0.577-2.45-1.5-4.99-4.64-5.68L359.6 77.74c-3.14-0.688-6.16 0.745-6.75 3.2ZM284.4 117.4c-1.72 1.83-1.17 5.08 1.22 7.28L296.8 135c2.4 2.19 5.72 2.49 7.44 0.66c1.71-1.82 1.16-5.08-1.23-7.27L291.9 118.1c-2.39-2.19-5.72-2.49-7.42-0.666Z" stroke="rgb(98.8%,83.1%,68.2%)" stroke-width="0.25" fill="rgb(100%,94.5%,82.4%)"  />
		<path id="" d="M235.7 140c0.479 2.47 3.44 4.05 6.61 3.52L257.1 141c3.17-0.533 5.35-2.98 4.87-5.45c-0.482-2.48-3.44-4.06-6.61-3.52L240.6 134.5c-3.18 0.533-5.36 2.97-4.88 5.46Z" stroke="rgb(98.8%,83.1%,68.2%)" stroke-width="0.25" fill="rgb(100%,94.5%,82.4%)"  />
		<path id="" d="M209.6 131.1c1.6 1.94 4.94 1.86 7.45-0.169L228.8 121.4c2.51-2.03 3.25-5.24 1.64-7.17c-1.6-1.94-4.93-1.86-7.45 0.168L211.2 123.9c-2.51 2.03-3.25 5.24-1.64 7.18Z" stroke="rgb(98.8%,83.1%,68.2%)" stroke-width="0.25" fill="rgb(100%,94.5%,82.4%)"  />
		<path id="" d="M318.3 151c2.12 1.34 5.26 0.219 7.04-2.5L333.6 135.7c1.77-2.72 1.5-6.01-0.619-7.35c-2.11-1.34-5.26-0.221-7.03 2.5L317.7 143.6c-1.78 2.72-1.5 6.01 0.607 7.35Z" stroke="rgb(98.8%,83.1%,68.2%)" stroke-width="0.25" fill="rgb(100%,94.5%,82.4%)"  />
		<path id="" d="M317.8 70.98c0.479 2.48 3.44 4.05 6.61 3.52L339.2 72.01c3.17-0.537 5.35-2.98 4.87-5.46c-0.482-2.47-3.44-4.06-6.61-3.52L322.7 65.52c-3.18 0.539-5.36 2.98-4.88 5.46Z" stroke="rgb(98.8%,83.1%,68.2%)" stroke-width="0.25" fill="rgb(100%,94.5%,82.4%)"  />
		<path id="" d="M380.6 62.23c0.479 2.48 3.44 4.06 6.61 3.52L402 63.26c3.17-0.533 5.35-2.98 4.87-5.46c-0.48-2.48-3.44-4.06-6.61-3.52L385.4 56.78c-3.18 0.532-5.36 2.97-4.88 5.45Z" stroke="rgb(98.8%,83.1%,68.2%)" stroke-width="0.25" fill="rgb(100%,94.5%,82.4%)"  />
		<path id="" d="M374.4 100.9c0.456 2.36 3.27 3.85 6.28 3.35L394.8 101.9c3.02-0.505 5.08-2.83 4.62-5.18c-0.457-2.35-3.27-3.85-6.27-3.35L379 95.72c-3.02 0.506-5.09 2.82-4.63 5.18Z" stroke="rgb(98.8%,83.1%,68.2%)" stroke-width="0.2375" fill="rgb(100%,94.5%,82.4%)"  />
		<path id="" d="M226.8 107.4c1.52 1.83 4.69 1.77 7.08-0.155L245.1 98.23c2.39-1.93 3.09-4.98 1.57-6.82c-1.52-1.84-4.69-1.77-7.08 0.162L228.4 100.6c-2.39 1.93-3.09 4.98-1.56 6.81Z" stroke="rgb(98.8%,83.1%,68.2%)" stroke-width="0.2375" fill="rgb(100%,94.5%,82.4%)"  />
		<path id="" d="M228.7 90.94c2.01 1.27 5 0.208 6.68-2.38L243.3 76.48c1.68-2.58 1.42-5.71-0.585-6.98c-2.01-1.27-5-0.213-6.68 2.37L228.2 83.96c-1.68 2.58-1.42 5.71 0.586 6.98Z" stroke="rgb(98.8%,83.1%,68.2%)" stroke-width="0.2375" fill="rgb(100%,94.5%,82.4%)"  />
		<path id="" d="M387.5 119.9c0.457 2.35 3.27 3.85 6.28 3.35L407.9 120.8c3.02-0.507 5.08-2.83 4.63-5.18c-0.456-2.36-3.27-3.86-6.28-3.35L392.1 114.7c-3.02 0.505-5.09 2.82-4.64 5.18Z" stroke="rgb(98.8%,83.1%,68.2%)" stroke-width="0.2375" fill="rgb(100%,94.5%,82.4%)"  />
		<path id="" d="M219.2 105.7c0.457 2.35 3.26 3.85 6.28 3.34L239.6 106.6c3.01-0.505 5.08-2.82 4.63-5.18c-0.463-2.35-3.27-3.85-6.28-3.35L223.8 100.5c-3.01 0.506-5.08 2.83-4.63 5.19Z" stroke="rgb(98.8%,83.1%,68.2%)" stroke-width="0.2375" fill="rgb(100%,94.5%,82.4%)"  />
		<path id="" d="M200.4 83.11c2.11 1.34 5.26 0.22 7.04-2.5L215.7 67.89c1.77-2.71 1.5-6.01-0.619-7.35c-2.12-1.34-5.26-0.221-7.03 2.49L199.7 75.76c-1.78 2.72-1.5 6.01 0.613 7.35Z" stroke="rgb(98.8%,83.1%,68.2%)" stroke-width="0.25" fill="rgb(100%,94.5%,82.4%)"  />
		<path id="" d="M194 86.7c-0.804 2.39 0.988 5.25 4 6.4L212.1 98.48c3.02 1.15 6.11 0.146 6.91-2.24c0.803-2.39-0.987-5.25-4-6.4L200.9 84.46c-3.01-1.15-6.11-0.144-6.91 2.24Z" stroke="rgb(98.8%,83.1%,68.2%)" stroke-width="0.25" fill="rgb(100%,94.5%,82.4%)"  />
		<path id="" d="M204.2 85.07c0.479 2.48 3.43 4.06 6.61 3.52L225.7 86.1c3.17-0.534 5.35-2.98 4.87-5.46c-0.479-2.47-3.44-4.06-6.61-3.53L209.1 79.62c-3.17 0.532-5.36 2.97-4.87 5.45Z" stroke="rgb(98.8%,83.1%,68.2%)" stroke-width="0.25" fill="rgb(100%,94.5%,82.4%)"  />
		<path id="" d="M276.9 71.62c-0.121-0.429-0.277-0.864-0.453-1.29L276.9 71.62ZM306.9 31.75L305.9 29.03c-0.385 0.366-0.853 0.665-1.4 0.872L296.8 32.78L301.6 34.82c0.383-0.55 0.925-1.02 1.61-1.35L306.9 31.75ZM307.5 44.11c-1.27 0.503-2.9 0.483-4.44-0.172L300.3 42.75c-0.303 0.167-0.63 0.311-0.981 0.407L292.8 44.97c0.429 0.506 0.703 1.1 0.756 1.77c0.168 2.14-1.98 4.13-4.79 4.45L285.5 51.57L287.4 52.39c1.09-0.65 2.57-0.694 3.83 0.00301L299.7 57.03c1.2 0.646 1.91 1.79 1.98 2.96c0.859-1.32 2.68-1.9 4.38-1.33L308.9 59.65L307.7 56.21L300.7 53.11c-1.89-0.836-2.78-2.87-1.99-4.56c0.784-1.68 2.95-2.37 4.84-1.54L309.4 49.6c1.33-0.43 2.57-0.122 3.62 0.658c-0.037-0.521 0.061-1.04 0.295-1.53c0.287-0.587 0.745-1.06 1.32-1.4L308.9 44.87c-0.493-0.209-0.942-0.469-1.33-0.768ZM274.3 64.02L273.3 61.3c-0.384 0.369-0.856 0.669-1.4 0.874L264.2 65.04L269 67.08c0.384-0.551 0.938-1.02 1.61-1.34L274.3 64.02ZM357 28.01c0.636-0.768 1.42-1.34 2.23-1.65L354 24.14L355.1 25.58c0.372 0.312 0.676 0.691 0.87 1.13L357 28.01ZM375 133.2L374 130.5c-0.385 0.365-0.854 0.666-1.4 0.872L364.9 134.2L369.7 136.3c0.384-0.551 0.932-1.02 1.61-1.35L375 133.2ZM408.2 113.3c-1.27 0.502-2.91 0.482-4.45-0.173L401 111.9c-0.3 0.171-0.629 0.313-0.98 0.411L393.5 114.2c0.433 0.502 0.705 1.1 0.754 1.77c0.172 2.14-1.97 4.12-4.78 4.45L386.2 120.8L388.1 121.6c1.09-0.653 2.56-0.693 3.83 0L400.4 126.2c1.19 0.648 1.91 1.79 1.98 2.96c0.858-1.31 2.67-1.9 4.38-1.32L409.6 128.8L408.4 125.4L401.4 122.3c-1.89-0.831-2.78-2.87-1.99-4.55c0.783-1.68 2.95-2.37 4.84-1.54L410.1 118.8c1.33-0.428 2.57-0.12 3.62 0.66c-0.036-0.522 0.061-1.04 0.296-1.53c0.291-0.586 0.744-1.06 1.32-1.4L409.6 114.1c-0.49-0.213-0.939-0.47-1.33-0.769ZM407.1 99.56L406.6 98.23c-0.141 0.783-0.066 1.32-0.128 1.84L407.1 99.56ZM377.7 140.8c-0.121-0.427-0.28-0.861-0.457-1.28L377.7 140.8ZM404.8 83.41c0.303-0.276 0.653-0.527 1.03-0.742L404.6 82.35c0.129 0.345 0.199 0.705 0.21 1.06ZM437.3 64.45c0.26-0.712 0.757-1.36 1.45-1.83L437.1 62.82c-0.872 0.532-1.85 0.704-2.74 0.559L436.6 64.12L437.3 64.45ZM442.2 81.8L435.9 83.6L441 85.75c0.541-0.778 1.42-1.37 2.48-1.59L446.3 83.56L442.2 81.8ZM393.9 76.21L394.1 77.44c-0.153-0.406-0.223-0.822-0.209-1.24ZM374.1 67.56c0.739-1.14 2.09-2.07 3.73-2.42L380.9 64.47L385.6 58.38c-0.653-0.154-1.23-0.48-1.67-0.987c-1.42-1.61-0.866-4.45 1.24-6.33L387.7 48.85L385.6 49.31c-0.499 1.15-1.67 2.04-3.13 2.21L372.8 52.67c-0.966 0.115-1.89-0.104-2.61-0.562c-0.43 0.872-1.2 1.66-2.21 2.24c-0.387 0.292-0.838 0.526-1.34 0.676L365.6 55.34L363.8 55.99L366.7 57.96L374.3 56.39c2.04-0.424 3.98 0.695 4.35 2.5c0.37 1.8-0.987 3.61-3.03 4.03L369.3 64.22c-0.817 1.1-2.02 1.58-3.34 1.56c0.336 0.401 0.572 0.87 0.667 1.4c0.124 0.635 0.031 1.28-0.234 1.89L372.6 67.71c0.524-0.113 1.05-0.167 1.54-0.153ZM382.1 77.09c1.19-0.718 2.54-1.37 4.08-1.44L389.6 70.48L384.5 71.61c0.019 0.665-0.143 1.36-0.505 2.01L382.1 77.09ZM372.9 80.37L370.4 78.69c-0.875-0.586-1.53-1.33-1.95-2.14L365 77.31L357.6 85.91L364.8 83.2c2.65-1 5.46-0.21 6.28 1.76c0.229 0.543 0.278 1.11 0.186 1.68L376 84.08c-0.518 0.004-1.04-0.112-1.52-0.358c-1.21-0.642-1.81-1.98-1.65-3.35ZM388 86.69c1.47-1.17 3.23-1.56 4.61-1.14L388.4 84.02c-0.042 0.605-0.241 1.18-0.614 1.68c-0.343 0.46-0.805 0.811-1.34 1.04L388 86.69ZM386.7 98.33L383 101.6c-2.1 1.88-4.95 2.09-6.37 0.473c-1.42-1.61-0.864-4.45 1.24-6.33c0.562-0.892 0.35-1.1 0.162-1.31c-0.578 0.928-1.63 1.61-2.9 1.77L365.5 97.34c-0.969 0.116-1.89-0.107-2.61-0.563c-0.435 0.87-1.21 1.67-2.22 2.24c-0.385 0.287-0.837 0.523-1.34 0.674L358.3 100L356.5 100.7L359.4 102.6L367 101.1c2.04-0.42 3.99 0.699 4.35 2.5c0.367 1.8-0.988 3.61-3.03 4.03L362 108.9c-0.817 1.1-2.02 1.58-3.34 1.55c0.333 0.405 0.566 0.875 0.667 1.4c0.121 0.632 0.028 1.28-0.236 1.88L365.3 112.4c2.76-0.608 5.33 0.606 5.72 2.71c0.396 2.1-1.52 4.31-4.29 4.91L353.8 122.9c-2.77 0.603-5.32-0.61-5.73-2.71c-0.118-0.636-0.025-1.28 0.235-1.89L342.1 119.6c-2.77 0.607-5.33-0.607-5.72-2.71c-0.392-2.1 1.53-4.3 4.29-4.91L348.2 110.3L336.3 106.9c-2.7-0.775-4.33-3.06-3.63-5.11c0.698-2.04 3.46-3.07 6.16-2.29L341 100.2c0.206-0.618 0.576-1.21 1.09-1.73c-0.107-0.854 0.077-1.68 0.595-2.36c1.19-1.58 3.72-1.84 5.91-0.696c-0.351-0.58-0.771-1.22-0.917-1.98c-0.061-0.354-0.059-0.713-0.00601-1.06c-0.777 0.267-1.58 0.288-2.33 0.021L339.2 94.65c-1.94 0.764-4.05 0-4.73-1.71c-0.678-1.71 0.342-3.71 2.27-4.47L343.9 85.63L345.4 82.23L342.4 83.11c-1.73 0.515-3.51-0.137-4.28-1.48c-0.151 1.16-0.932 2.28-2.17 2.89L327.3 88.84c-1.86 0.923-4.05 0.338-4.88-1.3c-0.829-1.64 0.004-3.72 1.87-4.64L327.8 81.14c-0.461-0.352-0.828-0.795-1.05-1.32c-0.821-1.98 0.658-4.4 3.31-5.4L342.4 69.72c0.733-0.275 1.47-0.41 2.17-0.43c0.779-0.922 1.98-1.66 3.4-1.97L355.5 65.67L343.6 62.25c-2.7-0.776-4.33-3.06-3.63-5.1c0.701-2.04 3.46-3.06 6.16-2.28L348.3 55.49c0.205-0.615 0.577-1.21 1.09-1.73c-0.104-0.854 0.077-1.68 0.596-2.37c1.18-1.59 3.72-1.84 5.92-0.693c-0.354-0.582-0.775-1.22-0.918-1.98c-0.062-0.355-0.062-0.716-0.00699-1.06c-0.782 0.265-1.58 0.288-2.33 0.021L346.5 49.98c-1.93 0.763-4.06-0.005-4.73-1.72c-0.679-1.71 0.343-3.71 2.27-4.47L351.2 40.95L352.7 37.55L351.3 37.97c-0.389 0.448-0.879 0.788-1.46 0.973c-1.53 0.49-3.25-0.225-4.42-1.68c-0.237 1.04-0.983 2.01-2.11 2.57L334.6 44.16c-1.86 0.926-4.05 0.341-4.87-1.3c-0.832-1.64 0.004-3.72 1.87-4.65L332.7 37.62L325.7 34.64c-2.06-0.879-3.32-2.63-3.27-4.29L315.9 29.52c0.424 0.293 0.771 0.687 1.01 1.16c0.588 1.22 0.271 2.66-0.682 3.69L317.2 37.17c0.346 0.984 0.429 1.98 0.283 2.87L324.4 42.97c2.58 1.1 3.91 3.56 2.97 5.51c-0.289 0.59-0.753 1.06-1.32 1.4L331.8 52.33c2.59 1.1 3.91 3.56 2.97 5.51c-0.945 1.95-3.81 2.63-6.38 1.53L321.4 56.41L328.8 66.03c1.7 2.2 1.63 5-0.157 6.26c-1.78 1.27-4.6 0.512-6.3-1.69L319.7 67.11c0.054 1.93-0.87 3.59-2.46 4.1c-2.09 0.67-4.52-0.91-5.44-3.52c0.216 0.866 0.271 1.9-0.174 2.82c-0.941 1.94-3.8 2.63-6.39 1.54L293.1 66.9c-2.06-0.879-3.32-2.62-3.27-4.28L283.3 61.79c0.424 0.292 0.768 0.683 1 1.17c0.59 1.22 0.276 2.65-0.681 3.68L284.6 69.43c0.921 2.61-0.029 5.27-2.11 5.93c-2.09 0.67-4.52-0.907-5.44-3.52c0.211 0.83 0.282 1.88-0.173 2.82c-0.945 1.94-3.8 2.63-6.39 1.53L267.7 75.01c-0.294 0.17-0.626 0.312-0.979 0.41L257.3 78.04c-2.01 0.561-4.03-0.424-4.52-2.19c-0.489-1.77 0.731-3.66 2.73-4.22L258.1 70.91c-2.37-1.16-3.55-3.5-2.65-5.36c0.482-0.982 1.44-1.64 2.61-1.92c-0.538-1.68 0.508-3.57 2.41-4.28L269.6 55.94c1.06-0.396 2.18-0.338 3.07 0.073c0.377-1.11 1.14-1.98 2.22-2.32c0.548-0.174 1.13-0.195 1.69-0.081c0.576-0.166 1.2-0.252 1.85-0.243L275.6 52.7c-2.81 0.325-5.23-1.15-5.4-3.29c-0.166-2.14 1.98-4.13 4.79-4.45L285.5 43.77c-0.546-1.95 0.679-3.84 2.68-4.4L290.7 38.65c-2.36-1.16 0.027 21.2 0.933 19.3c0.477-0.982 1.44-1.65 2.61-1.92c-0.538-1.68 0.508-3.57 2.4-4.29L305.8 48.33c1.06-0.395 2.17-0.338 3.07 0.077c0.37-1.12 1.14-1.98 2.22-2.33c0.547-0.176 1.13-0.197 1.69-0.081c0.573-0.161 1.2-0.249 1.85-0.234L311.8 45.09c-2.81 0.318-5.23-1.15-5.4-3.29c-0.166-2.14 1.98-4.13 4.79-4.45L324.4 35.84c2.81-0.322 5.23 1.15 5.4 3.29c0.166 2.14-1.98 4.13-4.79 4.45L321.7 43.97L323.6 44.78c1.09-0.647 2.56-0.688 3.83 0.00301L332.3 24.77c1.19 0.654 1.91 1.8 1.98 2.96c0.855-1.32 2.67-1.9 4.38-1.33L341.5 27.38L340.3 23.94L333.3 20.84c-1.89-0.829 0.791 21.8 1.58 20.1c0.781-1.68 2.94-2.37 4.83-1.54L345.1 37.27c-2.58-1.1-3.91-3.56-2.96-5.52c0.945-1.94 3.81-2.63 6.39-1.53L358.8 20.94c2.58 1.1 5.56-0.867 5.56-0.867c2.58 1.09 3.91 3.56 2.96 5.51c-0.666 1.37-2.28 2.12-4.08 2.06c0.479 0.773 0.696 1.79 0.593 2.85L366.8 27.1c1.83-2.13 4.7-2.79 6.4-1.46c1.7 1.33 1.6 4.13-0.246 6.26L364.9 41.24L372.1 38.52c2.65-1 5.46-0.207 6.29 1.77c0.226 0.539 0.277 1.12 0.181 1.68L383.3 39.4c-0.518 0.008-1.04-0.11-1.51-0.36c-1.22-0.636-1.82-1.97-1.65-3.35L377.7 34.02c-2.31-1.57-3.14-4.24-1.83-5.98c1.3-1.74 4.23-1.88 6.55-0.316L383.8 28.63c-1.37-0.821-2.62-1.84-2.89-3.26c-0.389-2.1 4.62-1.68 4.62-1.68L395.9 33.22c1.3-1.61 3.54-1.99 5.01-0.854c1.47 1.14 3.64 7.76 4.02 9.78c0.201 1.06-0.194 2.14-0.979 3.04c1.45 1.04 0.675-18.7-0.453-17c0 0-3.45 12-2.03 13.6c1.42 1.62 0.86 4.45-1.24 6.33L392.4 55.11c1.62 1.25 1.75 3.47 0.452 5.07L391.2 62.22c2.63-0.435 4.99 0.761 5.37 2.78c0.197 1.06-0.193 2.14-0.983 3.04c1.45 1.04 1.73 3.17 0.603 4.82c0.746-0.035 2.22-0.196 3.72 0.193L412.6 76.36c2.51 0.651 4.21 2.63 4.05 4.57L421.5 80.38c2.81-0.322 5.23 1.15 5.4 3.28c0.165 2.14-1.98 4.14-4.79 4.46L418.8 88.49L420.7 89.31c1.09-0.648 2.56-0.688 3.83 0.007L433 93.95c1.19 0.655 1.9 1.8 1.98 2.96c0.859-1.32 2.67-1.9 4.38-1.32L442.2 96.58L441 93.13L434 90.03c-1.89-0.831-2.78-2.87-1.99-4.55c0.411-0.877 1.2-1.49 2.13-1.75c-1.3-0.195-2.4-1.02-2.76-2.25c-0.526-1.76 0.665-3.67 2.66-4.26L435.4 76.82L428.6 75.05c-2.73-0.705-4.5-2.98-3.98-5.06c0.247-0.983 0.964-1.75 1.93-2.22c-2.65 1.4-5.57 1.15-6.76-0.633c-0.913-1.36-0.553-3.23 0.739-4.69L416.1 63.53c-2.75 0.686-5.44-0.436-6.01-2.5c-0.564-2.07-5.05-7.07-5.73-8.78c-0.359-0.908-0.243-1.9 0.239-2.74c-1.16 0.18-2.28-0.135-3.07-0.783c-2.06-1.05-2.59-3.21-1.59-5.01L404.6 35.3c0.996-1.79 3.14-2.55 4.79-1.68c1.65 0.865 2.17 3.02 1.17 4.82L408.7 41.87L413 40.97c2.03-0.416 13.8 1.47 12.6 3.17c0 0 11.7-1.57 12.2-0.476c0.159 0.381 0.014-0.399 0 0c1.94-0.483 6.78 0.178 5.39 1.02L453.1 56.56c1.86-0.925 4.05-0.339 4.87 1.3c0.792 1.56 0.065 3.53-1.62 4.51c0.343 0.268 0.629 0.604 0.827 1c0.832 1.64-0.009 3.73-1.86 4.65c0.728 0.122 2.24 0.746 2.94 1.98c2.19-1.09 1.48-8.7 1.48-8.7c-0.351 0.176-0.715 0.294-1.08 0.362c0.378 1.4-0.304 2.98-1.7 3.86c0.902 0.108 1.72 0.516 2.27 1.15c-0.11-1.77 1.49 2.68 0.729 1.79c0.047 0.854-0.272 1.7-0.86 2.37c0 0 2.23 13.2 1.58 14.6c-0.288 0.585 4.43 3.85 4.43 3.85c2.58 1.1 3.91 3.57 2.96 5.51c-0.944 1.94-3.8 2.64-6.38 1.53L454.7 93.33L462.1 103c1.7 2.19 1.63 5-0.152 6.26c-1.78 1.26-4.6 0.504-6.3-1.69L453 104c0.059 1.92-0.869 3.59-2.46 4.1c-2.08 0.666-4.52-0.91-5.44-3.52c0.214 0.869 0.271 1.9-0.173 2.81c-0.941 1.95-3.8 2.64-6.38 1.54L426.4 103.8c-2.06-0.878-3.32-2.63-3.27-4.29L416.6 98.71c0.424 0.297 0.772 0.688 1.01 1.17L419.6 100.5c2.04 0.324 3.45 2.06 3.13 3.88c-0.32 1.82-2.23 3.04-4.28 2.71c-0.131 0.727-0.104 1.49-0.214 2.18L425.1 112.2c2.58 1.1 3.91 3.56 2.96 5.51c-0.289 0.588-0.75 1.06-1.32 1.41L432.5 121.5c2.59 1.1 3.91 3.57 2.96 5.51c-0.946 1.95-3.81 2.63-6.39 1.53L422.1 125.6L429.5 135.2c1.7 2.2 1.63 5-0.155 6.27c-1.78 1.26-4.6 0.511-6.3-1.69L420.4 136.3c0.052 1.93-0.873 3.59-2.46 4.1c-2.1 0.669-4.53-0.91-5.45-3.52c0.219 0.867 0.278 1.9-0.173 2.82c-0.942 1.94-3.8 2.63-6.39 1.53L393.8 136.1c-2.06-0.878-3.32-2.62-3.27-4.29L384 131c0.421 0.296 0.763 0.689 1 1.17c0.588 1.22 0.268 2.65-0.684 3.68L385.3 138.6c0.922 2.61-0.027 5.27-2.11 5.93c-2.09 0.667-4.53-0.908-5.44-3.52c0.21 0.828 0.278 1.88-0.176 2.81c-0.94 1.94-3.8 2.63-6.39 1.53L368.4 144.2c-0.298 0.174-0.628 0.315-0.979 0.413L358 147.2c-2 0.557-4.02-0.428-4.52-2.19c-0.49-1.77 0.737-3.67 2.74-4.22L358.8 140.1c-2.37-1.16-3.55-3.5-2.65-5.36c0.483-0.982 1.44-1.64 2.61-1.92c-0.535-1.69 0.511-3.58 2.41-4.29L370.3 125.1c1.06-0.402 2.18-0.342 3.07 0.075c0.376-1.12 1.14-1.98 2.21-2.32c0.553-0.179 1.13-0.198 1.69-0.083c0.579-0.166 1.21-0.252 1.86-0.245L376.3 121.9c-2.81 0.327-5.23-1.15-5.39-3.29c-0.166-2.14 1.98-4.13 4.79-4.45L386.2 113c-0.544-1.95 0.682-3.84 2.68-4.4L391.4 107.8c-2.36-1.16-3.55-3.51-2.64-5.37c0.328-0.68 0.893-1.21 1.6-1.56c-1.36-0.01-2.55-0.525-3.22-1.52c-0.236-0.336-0.376-0.698-0.455-1.07Z" stroke="rgb(100%,94.9%,82.7%)" stroke-width="0.25" fill="rgb(100%,98.8%,90.6%)"  />
		<path id="" d="M301.1 96.57c-0.948-1.87-0.01-4.2 2.09-5.22L313 86.58c2.11-1.02 4.58-0.336 5.53 1.53c0.952 1.87 0.02 4.2-2.09 5.22L306.6 98.1c-2.1 1.02-4.58 0.335-5.54-1.53ZM313.5 102.1c-0.568-1.67 0.207-3.63 1.95-4.67L324.9 91.88c2.01-1.2 4.53-0.728 5.65 1.05c1.11 1.78 0.394 4.19-1.61 5.38L319.5 103.9c-1.53 0.914-3.37 0.859-4.65-0.01c0.66 1.9-0.484 4.04-2.61 4.86L302 112.7c-2.19 0.844-4.59-0.051-5.37-1.99c-0.782-1.94 0.366-4.19 2.55-5.03L309.4 101.7c1.45-0.55 2.99-0.347 4.09 0.416Z" stroke="rgb(100%,94.9%,82.7%)" stroke-width="0.25" fill="rgb(100%,95.3%,87.1%)"  />
		<path id="" d="M306.5 113c-1.07-2.18 0.365-5.11 3.21-6.54L323.1 99.76c2.84-1.42 6.02-0.803 7.1 1.38c1.07 2.19-0.36 5.11-3.21 6.54L313.6 114.3c-2.85 1.43-6.03 0.807-7.1-1.38Z" stroke="rgb(100%,94.9%,82.7%)" stroke-width="0.25" fill="rgb(100%,95.3%,87.1%)"  />
		<path id="" d="M317.5 86.94c0.145-2.42 2.85-4.29 6.06-4.18L338.5 83.26c3.2 0.108 5.68 2.15 5.53 4.57c-0.146 2.41-2.85 4.29-6.06 4.18L323 91.51c-3.2-0.108-5.68-2.15-5.53-4.57Z" stroke="rgb(100%,94.9%,82.7%)" stroke-width="0.25" fill="rgb(100%,95.3%,87.1%)"  />
		<path id="" d="M309.8 87.98c0.904-2.25 4.08-3.21 7.09-2.15L331 90.84c3.01 1.07 4.73 3.76 3.83 6.01c-0.901 2.25-4.08 3.21-7.09 2.14L313.6 93.99c-3.02-1.06-4.73-3.76-3.83-6.01Z" stroke="rgb(100%,94.9%,82.7%)" stroke-width="0.25" fill="rgb(100%,95.3%,87.1%)"  />
		<path id="" d="M298 83.89c-1.07-2.19 0.364-5.11 3.21-6.54L314.5 70.69c2.84-1.42 6.02-0.803 7.1 1.39c1.07 2.18-0.364 5.11-3.21 6.53L305.1 85.27c-2.85 1.43-6.03 0.811-7.1-1.38Z" stroke="rgb(100%,94.9%,82.7%)" stroke-width="0.25" fill="rgb(100%,95.3%,87.1%)"  />
		<path id="" d="M311.8 84.23c-1.07-2.19 0.362-5.11 3.21-6.54L328.3 71.02c2.85-1.42 6.02-0.805 7.1 1.38c1.07 2.19-0.363 5.11-3.2 6.54L318.9 85.61c-2.85 1.42-6.03 0.81-7.11-1.38Z" stroke="rgb(100%,94.9%,82.7%)" stroke-width="0.25" fill="rgb(100%,95.3%,87.1%)"  />
		<path id="" d="M311.8 84.23c-0.322-0.664-0.414-1.39-0.315-2.13L305.1 85.27c-2.85 1.43-6.03 0.812-7.1-1.38c-1.07-2.19 0.364-5.11 3.21-6.54L314.5 70.69c2.84-1.42 6.02-0.803 7.1 1.39c0.322 0.66 0.42 1.39 0.316 2.12L328.3 71.02c2.85-1.42 6.02-0.805 7.1 1.38c1.07 2.19-0.363 5.11-3.2 6.54L324.5 82.79L338.5 83.26c3.2 0.108 5.68 2.15 5.53 4.57c-0.146 2.41-2.85 4.29-6.06 4.18L332.9 91.85c1.77 1.31 2.61 3.29 1.93 5.01c-0.901 2.25-4.08 3.21-7.09 2.14c0.938 0.428 1.91 1.11 2.42 2.14c1.07 2.19-0.36 5.11-3.21 6.54L313.6 114.3c-2.85 1.43-6.02 0.808-7.1-1.38c-0.282-0.585-0.394-1.22-0.343-1.87L302 112.7c-2.19 0.844-4.59-0.051-5.37-1.99c-0.782-1.94 0.366-4.19 2.55-5.03L309.4 101.7c1.45-0.551 2.98-0.348 4.09 0.416c-0.568-1.67 0.207-3.63 1.95-4.67L318.5 95.71L314.5 94.31L306.6 98.11c-2.1 1.02-4.58 0.334-5.54-1.53c-0.948-1.87-0.01-4.2 2.09-5.22L309.7 88.18c0.561-1.43 1.74-2.28 3.19-2.62c-0.491-0.345-0.888-0.794-1.16-1.34Z" stroke="rgb(100%,97.3%,91%)" stroke-width="1" fill="none"  />
		<path id="" d="M257.4 68.55c-0.95-1.87-0.021-4.21 2.09-5.22L269.4 58.56c2.1-1.02 4.58-0.336 5.53 1.52c0.948 1.87 0.014 4.2-2.09 5.22L262.9 70.08c-2.1 1.02-4.58 0.34-5.53-1.53ZM269.9 74.12c-0.568-1.67 0.207-3.63 1.96-4.68L281.2 63.85c2.01-1.19 4.54-0.725 5.64 1.05c1.12 1.79 0.394 4.19-1.62 5.39L275.8 75.88c-1.53 0.914-3.37 0.855-4.65-0.012c0.657 1.9-0.478 4.04-2.61 4.86L258.3 84.64c-2.19 0.837-4.6-0.057-5.37-2c-0.786-1.94 0.357-4.19 2.55-5.02L265.8 73.71c1.44-0.552 2.99-0.349 4.1 0.415Z" stroke="rgb(100%,94.9%,82.7%)" stroke-width="0.25" fill="rgb(100%,94.9%,82.7%)"  />
		<path id="" d="M262.8 84.93c-1.08-2.19 0.363-5.11 3.21-6.53L279.4 71.74c2.85-1.43 6.03-0.807 7.1 1.38c1.08 2.18-0.36 5.12-3.21 6.54L269.9 86.32c-2.84 1.42-6.02 0.807-7.1-1.38Z" stroke="rgb(100%,94.9%,82.7%)" stroke-width="0.25" fill="rgb(100%,94.9%,82.7%)"  />
		<path id="" d="M273.8 58.92c0.14-2.42 2.85-4.29 6.05-4.19L294.8 55.24c3.2 0.104 5.68 2.15 5.54 4.57c-0.143 2.42-2.85 4.29-6.05 4.18L279.3 63.49c-3.2-0.109-5.68-2.16-5.53-4.57Z" stroke="rgb(100%,94.9%,82.7%)" stroke-width="0.25" fill="rgb(100%,94.9%,82.7%)"  />
		<path id="" d="M266.1 59.96c0.9-2.26 4.08-3.22 7.09-2.15L287.3 62.82c3.01 1.07 4.72 3.76 3.82 6.01c-0.897 2.25-4.08 3.21-7.09 2.14L269.9 65.97c-3.01-1.07-4.73-3.76-3.83-6.01Z" stroke="rgb(100%,94.9%,82.7%)" stroke-width="0.25" fill="rgb(100%,94.9%,82.7%)"  />
		<path id="" d="M254.3 55.87c-1.08-2.19 0.364-5.12 3.21-6.54L270.9 42.67c2.85-1.43 6.03-0.807 7.1 1.38c1.08 2.19-0.364 5.11-3.21 6.54L261.4 57.25c-2.84 1.42-6.02 0.803-7.1-1.38Z" stroke="rgb(100%,94.9%,82.7%)" stroke-width="0.25" fill="rgb(100%,94.9%,82.7%)"  />
		<path id="" d="M268.1 56.2c-1.08-2.19 0.365-5.12 3.2-6.54L284.6 43c2.85-1.42 6.02-0.803 7.1 1.38c1.08 2.19-0.363 5.11-3.21 6.54L275.2 57.58c-2.85 1.42-6.03 0.805-7.1-1.38Z" stroke="rgb(100%,94.9%,82.7%)" stroke-width="0.25" fill="rgb(100%,94.9%,82.7%)"  />
		<path id="" d="M407.5 68.51c-1.99 1.44-1.99 4.61-0.008 7.07L411.9 81.07c-0.764 0.039-1.47 0.268-2.07 0.701c-0.496 0.358-0.87 0.83-1.12 1.37c-0.619-1.33-1.7-2.3-3.03-2.54L401 74.88c-1.43-1.83-3.96-2.29-5.65-1.03c-1.69 1.26-1.9 3.77-0.463 5.6L400.3 86.27L399.6 90.35L397.3 87.84c-1.39-1.48-3.51-1.86-5.07-1c0.548-1.2 0.449-2.72-0.382-4.01L385.9 73.73c-1.27-1.94-3.74-2.62-5.54-1.51c-1.8 1.11-2.23 3.59-0.96 5.54L381.8 81.44c-0.66 0.076-1.28 0.299-1.82 0.688c-1.98 1.44-1.99 4.6 0 7.07L389.3 100.7c1.98 2.47 5.2 3.3 7.18 1.86c0.935-0.678 1.44-1.74 1.49-2.93c-0.288 3.3 1.29 6.17 3.73 6.61c1.86 0.34 3.68-0.834 4.65-2.78L407.1 108.4c0.512 3.09 2.92 5.34 5.37 5.03c2.45-0.314 4.02-3.08 3.51-6.17L413.8 93.73L419.1 100.4c1.99 2.46 5.21 3.3 7.19 1.86c1.99-1.44 1.99-4.61 0.008-7.07L421.9 89.68c0.759-0.037 1.47-0.267 2.07-0.698c1.99-1.45 1.99-4.61 0.00699-7.07L414.7 70.36c-1.99-2.46-5.2-3.3-7.19-1.86Z" stroke="rgb(100%,94.9%,82.7%)" stroke-width="0.25" fill="rgb(100%,92.9%,76.1%)"  />
		<path id="" d="M335.7 123.9c0.021 2.08 1.95 3.76 4.3 3.74L351.1 127.6c2.35-0.014 4.24-1.71 4.23-3.79c-0.027-2.08-1.95-3.76-4.3-3.75L340 120.1c-2.35 0.014-4.24 1.71-4.23 3.79ZM344.3 113.5c0.272 1.74 1.88 3.15 3.91 3.31L359.1 117.7c2.35 0.187 4.39-1.34 4.55-3.41c0.164-2.07-1.6-3.91-3.95-4.09L348.8 109.3c-1.79-0.143-3.4 0.709-4.14 2.04c-0.302-1.98-2.31-3.4-4.6-3.19L329.1 109.2c-2.35 0.213-4.07 2.07-3.87 4.14c0.209 2.07 2.28 3.58 4.61 3.36L340.8 115.7c1.55-0.137 2.83-0.996 3.46-2.16Z" stroke="rgb(100%,94.9%,82.7%)" stroke-width="0.25" fill="rgb(100%,99.2%,91.8%)"  />
		<path id="" d="M333 106.9c0.058 2.42 2.7 4.4 5.91 4.42L353.9 111.5c3.2 0.023 5.74-1.92 5.69-4.35c-0.059-2.42-2.7-4.4-5.9-4.43L338.7 102.6c-3.21-0.022-5.76 1.92-5.7 4.35Z" stroke="rgb(100%,94.9%,82.7%)" stroke-width="0.25" fill="rgb(100%,99.2%,91.8%)"  />
		<path id="" d="M354.8 125.3c1.25 2.1 4.54 2.58 7.35 1.08L375.3 119.4c2.8-1.5 4.06-4.41 2.81-6.5c-1.25-2.1-4.54-2.58-7.35-1.08L357.7 118.8c-2.81 1.5-4.06 4.41-2.81 6.5Z" stroke="rgb(100%,94.9%,82.7%)" stroke-width="0.25" fill="rgb(100%,99.2%,91.8%)"  />
		<path id="" d="M347.5 127.8c1.85 1.61 5.13 1.08 7.32-1.19L365.1 115.9c2.19-2.27 2.47-5.43 0.619-7.04c-1.86-1.62-5.13-1.08-7.32 1.19L348.1 120.7c-2.2 2.27-2.47 5.43-0.619 7.04Z" stroke="rgb(100%,94.9%,82.7%)" stroke-width="0.25" fill="rgb(100%,99.2%,91.8%)"  />
		<path id="" d="M338.9 136.6c0.057 2.42 2.7 4.4 5.9 4.43L359.8 141.1c3.2 0.021 5.75-1.93 5.69-4.35c-0.059-2.42-2.7-4.4-5.9-4.43L344.6 132.3c-3.21-0.02-5.75 1.92-5.69 4.35Z" stroke="rgb(100%,94.9%,82.7%)" stroke-width="0.25" fill="rgb(100%,99.2%,91.8%)"  />
		<path id="" d="M351 130.3c0.06 2.42 2.7 4.4 5.91 4.42L371.9 134.8c3.2 0.021 5.75-1.93 5.69-4.35c-0.056-2.42-2.7-4.4-5.9-4.43L356.7 125.9c-3.21-0.019-5.76 1.92-5.7 4.35Z" stroke="rgb(100%,94.9%,82.7%)" stroke-width="0.25" fill="rgb(100%,99.2%,91.8%)"  />
		<path id="" d="M294.6 118.4c-1.49 1.48-1.34 3.99 0.344 5.61L302.8 131.6c1.68 1.61 4.25 1.73 5.74 0.252c1.49-1.48 1.34-3.99-0.343-5.61L300.3 118.7c-1.68-1.61-4.25-1.73-5.74-0.251ZM308.2 117c-1.06 1.41-0.946 3.51 0.383 5.04L315.7 130.2c1.53 1.75 4.08 2.09 5.69 0.742c1.62-1.35 1.69-3.86 0.165-5.61L314.4 117.1c-1.16-1.34-2.92-1.85-4.42-1.42c1.22-1.61 0.816-4-0.947-5.42L300.5 103.4c-1.81-1.47-4.38-1.36-5.73 0.24c-1.35 1.6-0.983 4.09 0.838 5.56L304.1 116.1c1.2 0.973 2.73 1.25 4.02 0.871Z" stroke="rgb(100%,94.9%,82.7%)" stroke-width="0.25" fill="rgb(100%,99.2%,91.8%)"  />
		<path id="" d="M292.6 115.4c0.058 2.42 2.7 4.4 5.91 4.43L313.5 120c3.2 0.021 5.75-1.93 5.69-4.35c-0.062-2.42-2.7-4.41-5.9-4.43L298.3 111.1c-3.2-0.02-5.75 1.92-5.69 4.35Z" stroke="rgb(100%,94.9%,82.7%)" stroke-width="0.25" fill="rgb(100%,99.2%,91.8%)"  />
		<path id="" d="M307.1 132.6c-0.62 2.34 1.36 4.96 4.44 5.84L325.9 142.6c3.08 0.884 6.08-0.302 6.7-2.64c0.624-2.35-1.36-4.95-4.44-5.84L313.8 130c-3.08-0.886-6.08 0.296-6.71 2.63Z" stroke="rgb(100%,94.9%,82.7%)" stroke-width="0.25" fill="rgb(100%,99.2%,91.8%)"  />
		<path id="" d="M307.2 136.3c1.85 1.61 5.14 1.08 7.33-1.19L324.8 124.4c2.19-2.27 2.47-5.43 0.616-7.05c-1.85-1.62-5.14-1.08-7.32 1.19L307.8 129.2c-2.2 2.28-2.47 5.43-0.622 7.05Z" stroke="rgb(100%,94.9%,82.7%)" stroke-width="0.25" fill="rgb(100%,100%,100%)"  />
		<path id="" d="M310.7 138.8c0.061 2.42 2.7 4.4 5.91 4.42L331.6 143.3c3.2 0.021 5.75-1.93 5.69-4.35c-0.058-2.42-2.7-4.4-5.9-4.43L316.4 134.4c-3.21-0.026-5.76 1.92-5.7 4.35Z" stroke="rgb(100%,94.9%,82.7%)" stroke-width="0.25" fill="rgb(100%,100%,100%)"  />
		<path id="" d="M231.7 64.36c-0.529 2.01 0.884 4.11 3.16 4.69L245.6 71.78c2.28 0.582 4.56-0.572 5.09-2.59L250.8 68.41L251.5 68.54c2.32 0.389 4.48-0.965 4.84-3.01c0.299-1.73-0.79-3.41-2.54-4.13c0.935-0.465 1.65-1.26 1.91-2.28c0.529-2.01-0.882-4.11-3.16-4.7L241.9 51.7c-2.28-0.584-4.56 0.576-5.09 2.59c-0.531 2.02 0.883 4.12 3.16 4.7L241 59.24c-1.76 0.057-3.29 1.1-3.77 2.63L236.8 61.77c-2.28-0.585-4.56 0.573-5.09 2.59Z" stroke="rgb(100%,94.9%,82.7%)" stroke-width="0.25" fill="rgb(100%,99.2%,91.8%)"  />
		<path id="" d="M273.8 99.97c-0.167 2.07 1.6 3.9 3.94 4.1L288.7 104.9c2.34 0.186 4.38-1.34 4.54-3.42L293.3 101.5c0.168-2.07-1.6-3.9-3.94-4.09L278.4 96.56c-2.34-0.187-4.38 1.34-4.54 3.42L273.8 99.97Z" stroke="rgb(100%,94.9%,82.7%)" stroke-width="0.25" fill="rgb(100%,95.3%,87.1%)"  />
		<path id="" d="M257 93.82c-0.352 2.05 1.25 4.03 3.57 4.41L271.4 100c2.32 0.386 4.48-0.962 4.84-3.01L276.2 97.03c0.354-2.06-1.24-4.03-3.57-4.42L261.8 90.8c-2.32-0.385-4.49 0.966-4.84 3.02L257 93.82Z" stroke="rgb(100%,94.9%,82.7%)" stroke-width="0.25" fill="rgb(100%,92.9%,76.1%)"  />
		<path id="" d="M389.7 106.1L390.2 102.9c0.515 0.314 1.11 0.535 1.76 0.635L401.1 104.9L396.3 108.3c-0.555-0.521-1.27-0.917-2.09-1.11L389.7 106.1ZM348.3 91.94c1.52 0.253 3.32-0.152 4.87-1.24L356 88.73c0.376 0.121 0.768 0.195 1.18 0.221L364.7 89.43c-0.361 0.66-0.516 1.39-0.417 2.14c0.318 2.4 3.16 4.1 6.34 3.8L374.4 95.01L372.5 96.37c-1.35-0.461-2.99-0.16-4.23 0.906L360 104.4c-1.16 1-1.68 2.44-1.49 3.75c-1.25-1.26-3.4-1.48-5.15-0.438L350.4 109.5L350.9 105.4L358 100.3c1.89-1.36 2.4-3.82 1.13-5.51c-1.27-1.67-3.83-1.93-5.72-0.563L347.5 98.45c-1.57-0.16-2.88 0.473-3.85 1.58c-0.091-0.589-0.311-1.14-0.688-1.62c-0.457-0.581-1.08-1-1.79-1.24L347 93.1c0.497-0.348 0.928-0.739 1.3-1.16ZM346.1 78.12L346.5 74.89c0.513 0.312 1.1 0.532 1.76 0.633L357.4 76.89L352.6 80.28c-0.552-0.52-1.27-0.914-2.1-1.11L346.1 78.12ZM347.1 61.01c-0.318-2.4-3.16-4.1-6.34-3.79L325.8 58.64c-3.18 0.307-5.51 2.5-5.19 4.91c0.312 2.4 3.16 4.1 6.34 3.8L330.7 66.98L328.8 68.35c-1.36-0.459-3-0.16-4.24 0.906L316.3 76.36c-1.17 1-1.69 2.44-1.49 3.75c-1.26-1.26-3.41-1.48-5.15-0.441L306.7 81.44L307.2 77.35L314.3 72.26c1.89-1.36 2.39-3.83 1.12-5.5c-1.26-1.68-3.82-1.93-5.72-0.568L303.8 70.42c-1.56-0.162-2.87 0.477-3.85 1.58c-0.084-0.582-0.308-1.14-0.688-1.62c-0.451-0.582-1.07-0.998-1.79-1.25L303.3 65.08c2.6-1.82 3.48-4.86 1.98-6.79c-1.51-1.93-4.83-2.02-7.43-0.197L285.7 66.62c-2.6 1.82-3.48 4.86-1.98 6.8c0.452 0.58 1.07 0.996 1.79 1.24L279.7 78.72c-2.6 1.82-3.49 4.86-1.98 6.79c1.51 1.94 4.83 2.02 7.42 0.196L292.2 80.78L286.2 93.18c-1.36 2.83-0.628 5.91 1.65 6.89c2.27 0.98 5.21-0.52 6.57-3.35L296.6 92.22c0.391 2.14 1.81 3.77 3.69 3.96c2.47 0.248 4.79-2.07 5.19-5.17c-0.029 1.01 0.145 2.17 0.856 3.08c1.5 1.93 4.83 2.02 7.42 0.197L325.9 85.74c2.07-1.46 3.05-3.68 2.6-5.51L335.6 77.77c-0.396 0.428-0.689 0.94-0.828 1.53c-0.366 1.49 0.316 3 1.62 3.92L335.9 86.54c-0.152 1.17-0.01 2.29 0.363 3.24L329.4 94.64c-2.59 1.82-3.49 4.86-1.98 6.79c0.458 0.581 1.07 0.995 1.79 1.24L323.4 106.7c-2.6 1.83-3.48 4.87-1.98 6.8c1.5 1.93 4.82 2.02 7.42 0.193L335.9 108.8L329.9 121.2c-1.36 2.83-0.624 5.92 1.64 6.9c2.27 0.977 5.22-0.52 6.58-3.35L340.3 120.2c0.382 2.14 1.81 3.77 3.69 3.95c2.47 0.248 4.79-2.07 5.19-5.18c-0.037 1.01 0.144 2.17 0.847 3.08c1.51 1.93 4.83 2.02 7.43 0.192L369.6 113.8c2.07-1.45 3.06-3.68 2.6-5.51L379.3 105.8c-0.395 0.422-0.689 0.938-0.837 1.53c-0.363 1.48 0.325 3 1.63 3.92L379.6 114.6c-0.406 3.11 1.27 5.82 3.73 6.07c2.46 0.246 4.79-2.07 5.2-5.17L388.8 113.7c-0.322 1.75-0.402 3.56 0.616 4.87c1.5 1.93 4.83 2.02 7.42 0.195L399.6 116.8c0.373 0.122 0.768 0.201 1.18 0.226L411.8 117.7c2.36 0.148 4.36-1.42 4.49-3.49c0.127-2.07-1.67-3.88-4.02-4.03L409.3 110c2.34-1.84 3.1-4.71 1.66-6.56c-0.759-0.976-1.98-1.48-3.33-1.51c0.199-1.99-1.41-3.84-3.67-4.18L393.1 96.09c-1.27-0.191-2.49 0.135-3.38 0.805c-0.673-1.14-1.73-1.92-2.99-2.04c-0.654-0.068-1.3 0.047-1.9 0.307c-0.676-0.051-1.39 0.004-2.1 0.166L381.8 94.29L385.6 93.93c3.19-0.301 5.51-2.5 5.2-4.9c-0.319-2.41-3.15-4.1-6.35-3.8L372.6 86.36c0.15-2.29-1.65-4.09-4-4.24L365.6 81.94c2.35-1.84 3.11-4.71 1.66-6.56c-0.752-0.971-1.98-1.48-3.33-1.51c0.2-1.99-1.4-3.83-3.66-4.17L349.4 68.07c-1.27-0.186-2.49 0.143-3.38 0.807c-0.675-1.14-1.73-1.92-3-2.05c-0.646-0.064-1.29 0.047-1.89 0.311c-0.675-0.045-1.38 0.004-2.11 0.166L338.1 66.27L341.9 65.91c3.19-0.305 5.52-2.5 5.2-4.91Z" stroke="rgb(100%,95.3%,87.1%)" stroke-width="0.25" fill="rgb(100%,99.2%,91.8%)"  />
		<path id="" d="M246.8 122.8c-1.65 0.151-3.12-1.04-3.27-2.65L243.4 118.5c-0.157-1.62 1.05-3.05 2.71-3.2L259.6 114c1.65-0.149 3.12 1.04 3.28 2.65L263 118.3c0.162 1.62-1.05 3.05-2.7 3.2L246.8 122.8Z" stroke="rgb(100%,94.9%,82.7%)" stroke-width="0.25" fill="rgb(100%,99.2%,91.8%)"  />
		<path id="" d="M235.2 76.29c0.203 2.07 2.27 3.58 4.61 3.36L250.8 78.65c2.34-0.211 4.07-2.06 3.86-4.14L254.7 74.51c-0.203-2.07-2.27-3.58-4.61-3.36L239.1 72.15c-2.35 0.209-4.08 2.06-3.87 4.14L235.2 76.29Z" stroke="rgb(100%,95.3%,87.1%)" stroke-width="0.25" fill="rgb(100%,99.2%,91.8%)"  />
		<path id="" d="M232.9 93.93c-1.61-0.412-2.58-2.02-2.16-3.59L231.1 88.74c0.42-1.57 2.06-2.51 3.67-2.1L247.9 89.99c1.61 0.414 2.58 2.02 2.16 3.59L249.6 95.18c-0.418 1.57-2.06 2.51-3.66 2.1L232.9 93.93Z" stroke="rgb(100%,94.9%,82.7%)" stroke-width="0.25" fill="rgb(100%,99.2%,91.8%)"  />
		<path id="" d="M242.5 52.68c-0.715 1.96 0.51 4.17 2.73 4.95L255.7 61.25c2.22 0.775 4.59-0.189 5.3-2.15L261.1 58.34L261.9 58.54c2.28 0.58 4.56-0.582 5.1-2.59c0.445-1.7-0.49-3.46-2.16-4.32c0.967-0.385 1.75-1.12 2.1-2.1c0.717-1.96-0.506-4.18-2.73-4.95L253.8 40.94c-2.22-0.777-4.59 0.188-5.3 2.15c-0.711 1.96 0.512 4.17 2.73 4.95L252.2 48.37c-1.76-0.09-3.37 0.818-3.99 2.3L247.8 50.53c-2.22-0.776-4.59 0.189-5.3 2.15Z" stroke="rgb(100%,94.9%,82.7%)" stroke-width="0.25" fill="rgb(100%,92.9%,76.1%)"  />
		<path id="" d="M254.7 115.8L255.9 108.4L275.2 111.6L273.9 119.1L254.7 115.8Z" stroke="rgb(100%,94.9%,82.7%)" stroke-width="0.25" fill="rgb(100%,99.2%,91.8%)"  />
		<path id="" d="M261.1 112.4c-1.66 0.015-3.01-1.3-3.03-2.92L258.1 107.9c-0.012-1.62 1.33-2.94 2.99-2.95L274.6 104.8c1.66-0.007 3.02 1.3 3.03 2.92L277.6 109.4c0.01 1.62-1.32 2.95-2.98 2.96L261.1 112.4Z" stroke="rgb(100%,94.9%,82.7%)" stroke-width="0.25" fill="rgb(100%,99.2%,91.8%)"  />
		<path id="" d="M237.4 67.5c0.021 2.08 1.94 3.76 4.29 3.75L252.7 71.18c2.35-0.014 4.24-1.71 4.23-3.79L257 67.39c-0.02-2.08-1.94-3.76-4.29-3.74L241.7 63.71c-2.36 0.013-4.25 1.71-4.23 3.79L237.4 67.5Z" stroke="rgb(100%,94.9%,82.7%)" stroke-width="0.25" fill="rgb(100%,99.2%,91.8%)"  />
		<path id="" d="M247 78.98c-0.166 2.07 1.6 3.9 3.94 4.1L261.9 83.95c2.35 0.188 4.39-1.34 4.55-3.41L266.4 80.54c0.165-2.07-1.6-3.91-3.94-4.09L251.5 75.57c-2.35-0.185-4.39 1.35-4.55 3.42L247 78.98Z" stroke="rgb(100%,95.3%,87.1%)" stroke-width="0.25" fill="rgb(100%,99.2%,91.8%)"  />
		<path id="" d="M402.6 78.51c-0.345 2.06-2.51 3.4-4.83 3.01L386.9 79.71c-2.32-0.385-3.92-2.36-3.57-4.41c0.354-2.05 2.52-3.4 4.84-3.01L399 74.1c2.32 0.386 3.92 2.36 3.57 4.41ZM395.9 66.86c-0.54 1.67-2.35 2.81-4.4 2.65L380.5 68.62c-2.35-0.189-4.12-2.02-3.95-4.09c0.166-2.08 2.2-3.6 4.55-3.41L392.1 62c1.79 0.145 3.25 1.24 3.76 2.68c0.615-1.91 2.83-2.99 5.04-2.42L411.5 64.99c2.27 0.582 3.69 2.68 3.16 4.7c-0.536 2.01-2.81 3.17-5.1 2.59L398.9 69.55c-1.51-0.386-2.64-1.43-3.07-2.68Z" stroke="rgb(100%,95.3%,87.1%)" stroke-width="0.25" fill="rgb(100%,99.2%,91.8%)"  />
		<path id="" d="M408.1 62.17c-0.452 2.38-3.38 3.91-6.54 3.43L386.7 63.32c-3.16-0.49-5.37-2.82-4.92-5.2c0.438-2.38 3.36-3.92 6.53-3.43L403.1 56.97c3.16 0.49 5.37 2.81 4.93 5.2Z" stroke="rgb(100%,95.3%,87.1%)" stroke-width="0.25" fill="rgb(100%,99.2%,91.8%)"  />
		<path id="" d="M383.5 76.87c-1.57 1.87-4.89 1.82-7.43-0.107L364.2 67.75c-2.53-1.92-3.31-5-1.75-6.87c1.57-1.87 4.9-1.82 7.43 0.107L381.8 69.99c2.54 1.93 3.31 5 1.75 6.88Z" stroke="rgb(100%,95.3%,87.1%)" stroke-width="0.25" fill="rgb(100%,99.2%,91.8%)"  />
		<path id="" d="M390.4 80.44c-2.08 1.3-5.23 0.249-7.04-2.35L374.9 65.95c-1.8-2.59-1.57-5.75 0.514-7.05c2.08-1.3 5.24-0.25 7.04 2.34L390.9 73.39c1.8 2.59 1.57 5.75-0.515 7.05Z" stroke="rgb(100%,95.3%,87.1%)" stroke-width="0.25" fill="rgb(100%,99.2%,91.8%)"  />
		<path id="" d="M397.5 90.52c-0.45 2.38-3.37 3.92-6.53 3.43L376.1 91.67c-3.16-0.488-5.37-2.82-4.92-5.19c0.436-2.38 3.37-3.92 6.53-3.43L392.6 85.32c3.17 0.487 5.37 2.81 4.93 5.2Z" stroke="rgb(100%,95.3%,87.1%)" stroke-width="0.25" fill="rgb(100%,99.2%,91.8%)"  />
		<path id="" d="M386.5 82.35c-0.451 2.38-3.38 3.91-6.54 3.43L365.2 83.5c-3.16-0.487-5.37-2.82-4.92-5.2c0.436-2.38 3.37-3.92 6.53-3.43L381.6 77.15c3.17 0.486 5.37 2.81 4.93 5.2Z" stroke="rgb(100%,94.9%,82.7%)" stroke-width="0.25" fill="rgb(100%,99.2%,91.8%)"  />
		<path id="" d="M299 76.69c0.018 1.88 1.75 3.39 3.87 3.38L312.9 80.01c2.13-0.014 3.83-1.54 3.81-3.42c-0.018-1.88-1.75-3.39-3.88-3.38L302.9 73.27c-2.13 0.009-3.83 1.55-3.82 3.42ZM306.7 67.27c0.237 1.56 1.68 2.84 3.53 2.99L320.2 71.06c2.11 0.17 3.95-1.21 4.1-3.08c0.15-1.87-1.44-3.52-3.56-3.69L310.8 63.49c-1.61-0.127-3.07 0.646-3.73 1.85c-0.274-1.79-2.09-3.07-4.14-2.88L293 63.36c-2.12 0.188-3.67 1.86-3.49 3.73c0.185 1.87 2.04 3.23 4.16 3.04L303.6 69.23c1.4-0.128 2.55-0.904 3.12-1.95Z" stroke="rgb(100%,94.9%,82.7%)" stroke-width="0.2256" fill="rgb(100%,99.2%,91.8%)"  />
		<path id="" d="M319.8 93.03c0.05 2.19 2.44 3.97 5.32 3.99L338.7 97.12c2.89 0.022 5.19-1.73 5.14-3.92c-0.049-2.19-2.44-3.97-5.33-3.99L325 89.11c-2.89-0.021-5.19 1.73-5.13 3.92Z" stroke="rgb(100%,94.9%,82.7%)" stroke-width="0.2256" fill="rgb(100%,99.2%,91.8%)"  />
		<path id="" d="M388.1 75.32c-1.67 1.44-1.54 4.37 0.312 6.55L397.1 92.06c1.85 2.18 4.71 2.77 6.39 1.33c1.68-1.43 1.54-4.37-0.312-6.55L394.5 76.66c-1.85-2.17-4.71-2.78-6.39-1.34Z" stroke="rgb(100%,94.9%,82.7%)" stroke-width="0.2256" fill="rgb(100%,99.2%,91.8%)"  />
		<path id="" d="M318.3 64c-1.49 1.48-1.34 3.98 0.34 5.61L326.5 77.18c1.68 1.62 4.25 1.73 5.74 0.247c1.49-1.47 1.33-3.98-0.344-5.6L324 64.25c-1.68-1.62-4.25-1.73-5.74-0.251ZM331.8 62.54c-1.07 1.41-0.951 3.51 0.38 5.04L339.4 75.79c1.52 1.75 4.07 2.08 5.7 0.738c1.62-1.34 1.69-3.86 0.164-5.61L338.1 62.71c-1.17-1.34-2.93-1.85-4.42-1.42c1.22-1.6 0.82-3.99-0.947-5.42L324.2 48.99c-1.81-1.47-4.38-1.36-5.74 0.238c-1.35 1.6-0.979 4.09 0.84 5.56L327.8 61.67c1.2 0.971 2.72 1.25 4.02 0.869Z" stroke="rgb(100%,94.9%,82.7%)" stroke-width="0.25" fill="rgb(100%,99.2%,91.8%)"  />
		<path id="" d="M316.3 61c0.058 2.42 2.7 4.4 5.9 4.42L337.2 65.53c3.2 0.02 5.75-1.93 5.69-4.35c-0.058-2.42-2.7-4.4-5.9-4.43L322 56.65c-3.21-0.022-5.76 1.92-5.7 4.35Z" stroke="rgb(100%,94.9%,82.7%)" stroke-width="0.25" fill="rgb(100%,100%,100%)"  />
		<path id="" d="M330.8 78.2c-0.622 2.35 1.36 4.96 4.44 5.84L349.6 88.18c3.08 0.888 6.08-0.297 6.71-2.64c0.623-2.34-1.36-4.96-4.44-5.84L337.5 75.56c-3.08-0.881-6.08 0.299-6.7 2.64Z" stroke="rgb(100%,94.9%,82.7%)" stroke-width="0.25" fill="rgb(100%,100%,100%)"  />
		<path id="" d="M402.4 103.7L404.6 106.4c1.19 1.47 2.8 2.35 4.34 2.53c0.237 0.501 0.54 1 0.916 1.47L414.3 115.9c-0.761 0.035-1.47 0.264-2.07 0.699c-0.5 0.361-0.868 0.826-1.12 1.36c-0.624-1.33-1.7-2.3-3.03-2.54L403.4 109.7c-1.43-1.83-3.96-2.29-5.65-1.03c-1.68 1.27-1.89 3.77-0.46 5.6L402.6 121.1L402 125.2L399.6 122.6c-1.39-1.48-3.52-1.85-5.07-0.994c0.549-1.21 0.451-2.73-0.387-4.01L388.2 108.5c-0.892-1.37-2.39-2.1-3.82-2.04L382.9 104.7L386.4 106c2.97 1.17 6.18 0.318 7.16-1.9c0.308-0.688 0.363-1.43 0.201-2.16L401.2 103.6c0.403 0.092 0.809 0.122 1.2 0.111ZM415.4 93.02L414.9 96.24L410.4 96.03c-0.84-0.035-1.64 0.148-2.32 0.492L404.4 91.93L413.6 93.15c0.646 0.084 1.28 0.038 1.86-0.123ZM418.7 79.52c-0.981 2.22 0.639 4.97 3.61 6.14L425.8 87.04L424.7 87.81c-0.647-0.354-1.31-0.6-1.98-0.74c-0.506-0.42-1.09-0.705-1.74-0.821c-1.25-0.226-2.48 0.229-3.45 1.15c-0.669-0.89-1.74-1.54-3.02-1.71L403.6 84.24c-2.27-0.3-4.33 1.03-4.7 3c-1.31-0.346-2.62-0.196-3.62 0.528c-1.91 1.38-1.99 4.35-0.249 6.76L392.1 93.88c-2.3-0.499-4.53 0.735-4.99 2.76L376.1 92.51c-2.97-1.17-6.18-0.316-7.16 1.9c-0.984 2.22 0.631 4.97 3.61 6.14L376 101.9L374.9 102.7c-0.638-0.356-1.31-0.603-1.97-0.742c-0.499-0.414-1.09-0.702-1.73-0.819c-2.43-0.441-4.8 1.71-5.29 4.8L363.6 120.4c-0.489 3.09 1.09 5.96 3.52 6.4c2.44 0.441 4.81-1.71 5.3-4.8L373.9 112.7L381.4 118c-0.944 1.62-0.631 4.04 0.953 6L391.6 135.6c1.98 2.46 5.2 3.29 7.19 1.85c0.936-0.68 1.44-1.74 1.48-2.93c-0.289 3.31 1.3 6.17 3.73 6.61c1.85 0.338 3.68-0.836 4.65-2.78L409.5 143.2c0.517 3.09 2.92 5.34 5.38 5.03c2.45-0.312 4.02-3.07 3.51-6.17L416.1 128.5L421.5 135.2c1.99 2.47 5.2 3.3 7.19 1.86c1.99-1.44 1.99-4.61 0.009-7.08L424.2 124.5c0.76-0.041 1.47-0.27 2.07-0.701c1.99-1.44 1.99-4.61 0.008-7.07L421 110.1c0.621-0.813 1.08-1.84 1.26-3.01L422.8 103.8c1.51-0.521 2.59-1.79 2.66-3.32c0.028-0.605-0.107-1.18-0.37-1.7L432.2 103.8L433.1 104.4L434.4 106c1.98 2.46 5.2 3.29 7.19 1.86c1.98-1.44 1.99-4.61 0.011-7.08L432.8 89.76L436.3 91.14c2.98 1.17 6.19 0.318 7.17-1.9c0.973-2.22-0.639-4.97-3.61-6.14L425.9 77.62c-2.97-1.17-6.17-0.318-7.16 1.9ZM345.5 102.7c-1.99 1.44-1.99 4.61-0.014 7.07L354.8 121.3c1.99 2.46 5.2 3.3 7.19 1.86c1.98-1.44 1.99-4.61 0.005-7.07L352.7 104.5c-1.98-2.47-5.2-3.3-7.18-1.86Z" stroke="rgb(100%,94.9%,82.7%)" stroke-width="0.25" fill="rgb(100%,95.3%,87.1%)"  />
		<path id="" d="M298.6 148.8c0.022 2.08 1.94 3.76 4.3 3.74L313.9 152.5c2.35-0.01 4.24-1.71 4.23-3.78c-0.017-2.08-1.94-3.76-4.29-3.75L302.8 145c-2.35 0.014-4.25 1.71-4.23 3.79ZM307.1 138.4c0.268 1.74 1.88 3.15 3.92 3.31L322 142.6c2.35 0.188 4.39-1.34 4.55-3.41c0.163-2.07-1.6-3.91-3.95-4.09L311.6 134.2c-1.79-0.146-3.4 0.707-4.14 2.04c-0.297-1.98-2.31-3.4-4.59-3.19L291.9 134.1c-2.34 0.21-4.07 2.06-3.87 4.13c0.204 2.07 2.27 3.58 4.61 3.37L303.6 140.6c1.55-0.14 2.83-0.994 3.46-2.16Z" stroke="rgb(100%,94.9%,82.7%)" stroke-width="0.25" fill="rgb(100%,99.2%,91.8%)"  />
		<path id="" d="M295.2 125.2c0.06 2.42 2.7 4.4 5.91 4.42L316.1 129.7c3.2 0.023 5.75-1.92 5.69-4.34c-0.061-2.42-2.7-4.41-5.9-4.43L300.9 120.9c-3.21-0.021-5.75 1.92-5.69 4.35Z" stroke="rgb(100%,94.9%,82.7%)" stroke-width="0.25" fill="rgb(100%,99.2%,91.8%)"  />
		<path id="" d="M271 112.5c1.26 2.1 4.54 2.57 7.35 1.08L291.5 106.5c2.81-1.5 4.06-4.41 2.81-6.5c-1.25-2.09-4.54-2.57-7.35-1.08L273.8 106c-2.8 1.5-4.06 4.41-2.81 6.51Z" stroke="rgb(100%,94.9%,82.7%)" stroke-width="0.25" fill="rgb(100%,99.2%,91.8%)"  />
		<path id="" d="M248.3 107.3c-1.85 1.6-1.7 4.85 0.352 7.26L258.3 125.9c2.05 2.41 5.22 3.08 7.08 1.48c1.86-1.59 1.71-4.84-0.347-7.26L255.4 108.8c-2.05-2.41-5.22-3.08-7.09-1.49Z" stroke="rgb(100%,94.9%,82.7%)" stroke-width="0.25" fill="rgb(100%,99.2%,91.8%)"  />
		<path id="" d="M387.3 73.63c0.059 2.42 2.7 4.4 5.91 4.43L408.2 78.17c3.2 0.019 5.75-1.93 5.69-4.35c-0.061-2.42-2.7-4.4-5.9-4.42L393 69.29c-3.21-0.022-5.75 1.92-5.7 4.34Z" stroke="rgb(100%,94.9%,82.7%)" stroke-width="0.25" fill="rgb(100%,100%,100%)"  />
		<path id="" d="M291.9 92.94c1.19 1.99 4.32 2.45 6.98 1.03L311.4 87.31c2.67-1.43 3.86-4.2 2.67-6.19c-1.19-1.99-4.31-2.44-6.98-1.02L294.6 86.76c-2.67 1.43-3.86 4.19-2.67 6.18Z" stroke="rgb(100%,94.9%,82.7%)" stroke-width="0.2375" fill="rgb(100%,99.2%,91.8%)"  />
		<path id="" d="M296.5 77.72c1.76 1.54 4.87 1.03 6.95-1.14L313.2 66.47c2.08-2.16 2.35-5.15 0.588-6.69c-1.76-1.54-4.87-1.03-6.95 1.13L297.1 71.03c-2.09 2.16-2.35 5.16-0.585 6.69Z" stroke="rgb(100%,94.9%,82.7%)" stroke-width="0.2375" fill="rgb(100%,99.2%,91.8%)"  />
		<path id="" d="M284.7 90.05c0.057 2.3 2.56 4.18 5.61 4.2L304.6 94.35c3.05 0.024 5.46-1.82 5.41-4.13c-0.061-2.3-2.57-4.18-5.61-4.2L290.1 85.92c-3.04-0.021-5.46 1.83-5.41 4.13Z" stroke="rgb(100%,94.9%,82.7%)" stroke-width="0.2375" fill="rgb(100%,99.2%,91.8%)"  />
		<path id="" d="M263.3 122.1c0.018 1.97 1.84 3.56 4.08 3.56L277.8 125.6c2.24-0.015 4.03-1.62 4.02-3.6c-0.016-1.98-1.85-3.56-4.08-3.55L267.3 118.5c-2.23 0.011-4.03 1.62-4.01 3.6ZM271.3 112.2c0.251 1.65 1.77 2.99 3.72 3.15L285.5 116.2c2.23 0.178 4.16-1.28 4.32-3.24c0.157-1.97-1.52-3.71-3.75-3.89L275.6 108.2c-1.7-0.135-3.23 0.678-3.93 1.94c-0.28-1.88-2.2-3.23-4.36-3.03L256.9 108.1c-2.23 0.203-3.87 1.96-3.68 3.93c0.194 1.97 2.16 3.4 4.39 3.2L268.1 114.2c1.47-0.136 2.69-0.952 3.29-2.06Z" stroke="rgb(100%,95.3%,87.1%)" stroke-width="0.2375" fill="rgb(100%,99.2%,91.8%)"  />
		<path id="" d="M259.8 135.4c-0.708 1.96 0.519 4.17 2.73 4.95L272.9 144c2.22 0.774 4.59-0.186 5.3-2.15c0.706-1.96-0.52-4.18-2.73-4.95L265.1 133.2c-2.22-0.775-4.59 0.191-5.3 2.15ZM266.6 124.3c-0.115 0.454-0.142 0.914-0.072 1.36c-2.24-0.272-4.29 1.06-4.62 3.04c-0.351 2.05 1.24 4.03 3.57 4.42L276.3 134.9c2.32 0.389 4.48-0.96 4.84-3.01c2.01 0.182 3.87-0.993 4.34-2.78c0.532-2.02-0.881-4.12-3.16-4.7L271.6 121.7c-2.28-0.585-4.56 0.572-5.09 2.59Z" stroke="rgb(100%,94.9%,82.7%)" stroke-width="0.25" fill="rgb(100%,92.9%,76.1%)"  />
		<path id="" d="M253.7 97.09c0.022 2.08 1.94 3.76 4.3 3.75L269 100.8c2.35-0.012 4.24-1.71 4.23-3.79c-0.021-2.08-1.94-3.76-4.3-3.75L257.9 93.3c-2.36 0.015-4.25 1.71-4.23 3.79ZM262.2 86.66c0.271 1.73 1.87 3.15 3.91 3.31L277.1 90.85c2.35 0.188 4.39-1.34 4.55-3.41c0.163-2.08-1.6-3.91-3.95-4.1L266.7 82.46c-1.79-0.145-3.4 0.713-4.14 2.05c-0.302-1.98-2.31-3.4-4.6-3.19L247 82.32c-2.35 0.209-4.07 2.06-3.87 4.14c0.204 2.07 2.27 3.58 4.61 3.36L258.8 88.82c1.55-0.137 2.83-0.996 3.46-2.16ZM253.7 76.87c0.796 0.79 1.94 1.28 3.22 1.27L258.6 78.13L260.8 78.67c1.33 0.341 2.65 0.09 3.63-0.576L268 78.08c2.35-0.011 4.24-1.71 4.23-3.79c-0.014-0.674-0.222-1.32-0.581-1.86c0.298-1.73-0.792-3.4-2.54-4.12c0.284-0.141 0.552-0.318 0.788-0.514L270.9 68.15c2.22 0.773 4.59-0.189 5.3-2.15L276.4 65.23L277.1 65.43c2.28 0.576 4.56-0.58 5.09-2.59c0.45-1.7-0.486-3.46-2.16-4.32c0.973-0.387 1.75-1.12 2.11-2.11c0.716-1.96-0.508-4.17-2.73-4.95c0.075-0.465 0.363-0.9 0.548-1.4c0.706-1.96-0.515-4.17-2.73-4.95L271.5 43.12c2.04-0.143 3.69-1.56 3.84-3.42c2.01 0.014 3.77-1.32 4.07-3.14c0.353-2.05-1.24-4.03-3.57-4.41L265 30.33c-2.32-0.383-4.49 0.965-4.84 3.02c-0.082 0.463-0.06 0.926 0.05 1.36c-2.26-0.08-4.17 1.42-4.34 3.43c-0.166 2.07 1.6 3.9 3.94 4.09L262.3 42.43L261.8 43.06L260.1 42.61c-2.28-0.582-4.56 0.578-5.09 2.59c-0.532 2.02 0.882 4.12 3.16 4.7L263.6 51.28c0.063 1.56 1.19 3.05 2.93 3.65L267.4 55.26c-0.556-0.021-1.09 0.045-1.58 0.197L255 52.68c-2.28-0.586-4.56 0.57-5.09 2.58c-0.514 1.92 0.753 3.92 2.85 4.61c-0.312 0.377-0.55 0.816-0.679 1.31c-0.531 2.01 0.882 4.12 3.16 4.7L256.2 66.13c-1.76 0.061-3.29 1.1-3.77 2.63L252 68.66c-2.28-0.586-4.56 0.572-5.09 2.59c-0.53 2.01 0.885 4.11 3.16 4.69L253.7 76.87Z" stroke="rgb(100%,94.9%,82.7%)" stroke-width="0.25" fill="rgb(100%,99.2%,91.8%)"  />
		<path id="" d="M270 65.61c1.85 1.61 5.13 1.08 7.32-1.19L287.5 53.77c2.19-2.27 2.47-5.43 0.617-7.04c-1.86-1.62-5.13-1.08-7.32 1.19L270.6 58.57c-2.19 2.28-2.47 5.43-0.618 7.05Z" stroke="rgb(100%,94.9%,82.7%)" stroke-width="0.25" fill="rgb(100%,99.2%,91.8%)"  />
		<path id="" d="M263.1 67.95c-1.19 2.12 0.097 5.13 2.86 6.71L278.9 82.08c2.77 1.59 5.98 1.15 7.17-0.971c1.18-2.12-0.099-5.13-2.86-6.71L270.3 66.98c-2.77-1.58-5.97-1.15-7.16 0.975Z" stroke="rgb(100%,94.9%,82.7%)" stroke-width="0.25" fill="rgb(100%,100%,100%)"  />
		<path id="" d="M273.4 68.11c0.057 2.42 2.7 4.4 5.9 4.42L294.3 72.64c3.2 0.021 5.75-1.93 5.69-4.35c-0.062-2.42-2.7-4.41-5.9-4.43L279.1 63.76c-3.2-0.022-5.76 1.92-5.7 4.34Z" stroke="rgb(100%,94.9%,82.7%)" stroke-width="0.25" fill="rgb(100%,100%,100%)"  />
		<path id="" d="M374.1 151.8c1.85 1.61 5.13 1.08 7.33-1.19L391.7 140c2.19-2.27 2.47-5.43 0.614-7.05c-1.85-1.62-5.13-1.08-7.32 1.19L374.7 144.8c-2.2 2.27-2.48 5.43-0.626 7.04Z" stroke="rgb(100%,94.9%,82.7%)" stroke-width="0.25" fill="rgb(100%,100%,100%)"  />
		<path id="" d="M407.7 63.21c1.72-8.27-21.2-19.9-50.8-25.3c-29.6-5.43-53.6-6.88-56.3 5.65c-1.81 8.24 24.1 19.7 53.5 26.1c25.6 5.57 51.6 3.5 53.7-6.44Z" fill="rgb(91.8%,65.9%,44.3%)"  />
		<path id="" d="M344.4 52.78c0 0-2.45 0.488-9.05-0.721c-6.6-1.21-12-2.19-14.5-2.3c-2.54-0.105-6.27-0.672-6.27-0.672c0 0 1.49-1.16 0.797-2.01c-0.7-0.85-1.62-2.82-0.229-3.4c1.39-0.586 5.09-2.19 7.19-2.04c2.11 0.146 7.25 0.00999 8.68-0.811c1.43-0.816 4.98-1.6 7.48-1.26c2.49 0.338 11.6 1.88 12.9 1.65c1.32-0.234 5.67 1.64 7.73 2.02c2.06 0.383 7.65 2 7.65 2c0 0 0.307 1.15-3.79 2.55c-4.09 1.41-10.1 4.86-10.1 4.86c0 0 2.2-3.43 1.57-4.63c-0.632-1.19-1.66-2.58-1.66-2.58c0 0-8.88-0.43-14.2 0.752c-5.33 1.18-11.2 3.22-11.2 3.22c0 0 4.13 0.762 7.02 1.29c2.89 0.53 10.1 2.11 10.1 2.11Z" fill="rgb(77.3%,9.02%,9.41%)"  />
		<path id="" d="M347.4 55.56c0 0-6.75-0.4-11.4-0.537c-4.67-0.137-9.83 0.117-12.5 0.711c-2.67 0.588-8.55 0.113-8.55 0.113c0 0 2.3 1.38 3.8 2.49c1.51 1.12 10.4 3.83 13.7 4.43c3.3 0.605 9.08 1.67 10.6 2.43c1.56 0.766 10.6 2.78 13.1 3.12c2.5 0.342 7.99 0.625 11 0.693c2.98 0.062 6.75 0.393 8.83 0.656c2.09 0.264 5.62-0.408 5.62-0.408c0 0-2.39-0.918-5.08-2.49c-2.69-1.57-3.7-3.08-6.83-4.61c-3.13-1.54-8.75-3.4-8.75-3.4c0 0 3.43 2.19 4.11 3.16c0.674 0.963 4.13 3.04 4.13 3.04c0 0-4.14-0.643-8.38-0.82c-4.23-0.172-7.99-0.623-12.9-1.88c-4.89-1.26-12.4-4.32-12.4-4.32c0 0 2.36-1.24 4.92-1.26c2.56-0.011 7.03-1.11 7.03-1.11Z" fill="rgb(77.3%,9.02%,9.41%)"  />
		<path id="" d="M363.1 53.76c0 0 6.05-0.447 9.98-0.928c3.92-0.482 6.52-0.727 8.39 0.701c1.87 1.42 0.466 2.12 2.01 3.01c1.55 0.885 2.59 2.15 2.46 2.85c-0.126 0.695-3.69 1.48-3.38 2.14c0.306 0.66-4.12-0.754-7.32-1.94c-3.19-1.18-7.28-2.17-8.54-2.29c-1.26-0.109-0.704 1.55 1.69 2.47c2.39 0.916 11.6 4.16 14.9 4.77c3.3 0.605 8.06 2.56 8.06 2.56c0 0 3.65-1.25 3.73-1.72c0.085-0.463 2.77-1.17 0.841-2.24c-1.94-1.08-0.094-1.81 1.19-1.83c1.28-0.002 2.49-1.94 0.967-2.94c-1.52-1-1.19-2.86-2.69-3.97c-1.5-1.12-4.78-1.84-7.54-3.07c-2.77-1.23-3.25-3.24-3.25-3.24c0 0-4.75 0.332-9.09 0.732c-4.34 0.406-9.28 1.78-11.6 2.79c-2.32 1.02-0.818 2.13-0.818 2.13Z" fill="rgb(77.3%,9.02%,9.41%)"  />
		<path id="" d="M337.3 59.82c0 0-7.27 0.1-4.49 1.22c2.78 1.11 4.49-1.22 4.49-1.22Z" fill="rgb(96.1%,64.3%,53.3%)"  />
		<path id="" d="M343.2 62.23c0 0 0.525 1.78-2.36 1.25c-2.89-0.528 2.36-1.25 2.36-1.25Z" fill="rgb(96.1%,64.3%,53.3%)"  />
		<path id="" d="M329 47.48c0 0-7.36-1.23-5.82-2.42c1.48-1.15 5.82 2.42 5.82 2.42Z" fill="rgb(96.1%,64.3%,53.3%)"  />
		<path id="" d="M339.3 44.85c0 0-7.21-2.52-4.61-2.77c2.6-0.242 4.61 2.77 4.61 2.77Z" fill="rgb(96.1%,64.3%,53.3%)"  />
		<path id="" d="M342.9 44.38c0 0-4.69-3.19-0.909-2.85c3.78 0.33 0.909 2.85 0.909 2.85Z" fill="rgb(96.1%,64.3%,53.3%)"  />
		<path id="" d="M381.7 52.48c0 0-0.382-2.59 2.86-1.64c3.24 0.952-2.86 1.64-2.86 1.64Z" fill="rgb(96.1%,64.3%,53.3%)"  />
		<path id="" d="M385.8 55.88c0 0 4.2-2 6.45-0.266c2.24 1.73-6.45 0.266-6.45 0.266Z" fill="rgb(96.1%,64.3%,53.3%)"  />
		<path id="" d="M388.1 59.01c0 0 5.54 2.51 6.95 1.81c1.41-0.707-6.95-1.81-6.95-1.81Z" fill="rgb(96.1%,64.3%,53.3%)"  />
		<path id="" d="M361 65.25c0 0-1.3 2.41 3.33 2.77c4.62 0.368-3.33-2.77-3.33-2.77Z" fill="rgb(96.1%,64.3%,53.3%)"  />
		<path id="" d="M300.4 44.17c2.82-10.4 26.1-9.62 56.3-4.08c30.3 5.55 51.1 14.1 50.7 23.9L410.2 56.9c1.78-9.71-21.3-22.3-51.5-27.9c-30.3-5.54-56.2-2.17-57.8 7.45L300.4 44.17Z" fill="rgb(68.2%,8.63%,7.45%)"  />
		<path id="" d="M232.8 101.3c3.78 3.78 3.78 9.9 0 13.7c-3.78 3.78-9.9 3.78-13.7 0c-3.78-3.78-3.78-9.9 0-13.7c3.78-3.78 9.9-3.78 13.7 0" fill="rgb(22.4%,66.3%,20.8%)"  />
		<path id="" d="M227.8 105.7c2.38 2.38 2.38 6.24 0 8.62c-2.38 2.38-6.24 2.38-8.62 0c-2.38-2.38-2.38-6.24 0-8.62c2.38-2.38 6.24-2.38 8.62 0" fill="rgb(34.1%,80.8%,31.8%)"  />
		<path id="" d="M221.4 107.8c0.647 0.647 0.647 1.7 0 2.34c-0.647 0.647-1.7 0.647-2.34 0c-0.647-0.647-0.647-1.7 0-2.34c0.647-0.647 1.7-0.647 2.34 0" fill="rgb(50.6%,82.7%,49%)"  />
		<path id="" d="M426.8 63.14c3.78 3.78 3.78 9.9 0 13.7c-3.78 3.78-9.9 3.78-13.7 0c-3.78-3.78-3.78-9.9 0-13.7c3.78-3.78 9.9-3.78 13.7 0" fill="rgb(22.4%,66.3%,20.8%)"  />
		<path id="" d="M421.8 67.59c2.38 2.38 2.38 6.24 0 8.62c-2.38 2.38-6.24 2.38-8.62 0c-2.38-2.38-2.38-6.24 0-8.62c2.38-2.38 6.24-2.38 8.62 0" fill="rgb(34.1%,80.8%,31.8%)"  />
		<path id="" d="M415.3 69.64c0.647 0.647 0.647 1.7 0 2.34c-0.647 0.647-1.7 0.647-2.34 0c-0.647-0.647-0.647-1.7 0-2.34c0.647-0.647 1.7-0.647 2.34 0" fill="rgb(50.6%,82.7%,49%)"  />
		<path id="" d="M277 52.65c3.78 3.78 3.78 9.9 0 13.7c-3.78 3.78-9.9 3.78-13.7 0c-3.78-3.78-3.78-9.9 0-13.7c3.78-3.78 9.9-3.78 13.7 0" fill="rgb(22.4%,66.3%,20.8%)"  />
		<path id="" d="M272 57.09c2.38 2.38 2.38 6.24 0 8.62c-2.38 2.38-6.24 2.38-8.62 0c-2.38-2.38-2.38-6.24 0-8.62c2.38-2.38 6.24-2.38 8.62 0" fill="rgb(34.1%,80.8%,31.8%)"  />
		<path id="" d="M265.6 59.14c0.647 0.647 0.647 1.7 0 2.34c-0.647 0.647-1.7 0.647-2.34 0c-0.647-0.647-0.647-1.7 0-2.34c0.647-0.647 1.7-0.647 2.34 0" fill="rgb(50.6%,82.7%,49%)"  />
		<path id="" d="M228.9 54.62c3.78 3.78 3.78 9.9 0 13.7c-3.78 3.78-9.9 3.78-13.7 0c-3.78-3.78-3.78-9.9 0-13.7c3.78-3.78 9.9-3.78 13.7 0" fill="rgb(22.4%,66.3%,20.8%)"  />
		<path id="" d="M223.9 59.06c2.38 2.38 2.38 6.24 0 8.62c-2.38 2.38-6.24 2.38-8.62 0c-2.38-2.38-2.38-6.24 0-8.62c2.38-2.38 6.24-2.38 8.62 0" fill="rgb(34.1%,80.8%,31.8%)"  />
		<path id="" d="M217.5 61.11c0.647 0.647 0.647 1.7 0 2.34c-0.647 0.647-1.7 0.647-2.34 0c-0.647-0.647-0.647-1.7 0-2.34c0.647-0.647 1.7-0.647 2.34 0" fill="rgb(50.6%,82.7%,49%)"  />
		<path id="" d="M165.9 65.62c3.78 3.78 3.78 9.9 0 13.7c-3.78 3.78-9.9 3.78-13.7 0c-3.78-3.78-3.78-9.9 0-13.7c3.78-3.78 9.9-3.78 13.7 0" fill="rgb(22.4%,66.3%,20.8%)"  />
		<path id="" d="M160.9 70.06c2.38 2.38 2.38 6.24 0 8.62c-2.38 2.38-6.24 2.38-8.62 0c-2.38-2.38-2.38-6.24 0-8.62c2.38-2.38 6.24-2.38 8.62 0" fill="rgb(34.1%,80.8%,31.8%)"  />
		<path id="" d="M154.5 72.11c0.647 0.647 0.647 1.7 0 2.34c-0.647 0.647-1.7 0.647-2.34 0c-0.647-0.647-0.647-1.7 0-2.34c0.647-0.647 1.7-0.647 2.34 0" fill="rgb(50.6%,82.7%,49%)"  />
		<path id="" d="M339.3 125.6L339.7 122.4c0.511 0.312 1.11 0.535 1.76 0.632L350.7 124.4L345.8 127.8c-0.557-0.52-1.27-0.914-2.09-1.11L339.3 125.6ZM297.8 111.4c1.52 0.254 3.33-0.154 4.87-1.24L305.5 108.2c0.374 0.116 0.771 0.197 1.18 0.219L314.3 108.9c-0.358 0.662-0.515 1.39-0.416 2.14c0.318 2.4 3.16 4.1 6.35 3.8L324 114.5L322.1 115.8c-1.35-0.463-2.99-0.163-4.23 0.904L309.6 123.8c-1.16 1-1.68 2.44-1.49 3.75c-1.26-1.26-3.4-1.48-5.15-0.436L300 128.9L300.5 124.8L307.6 119.7c1.89-1.36 2.4-3.82 1.14-5.5c-1.27-1.68-3.83-1.93-5.72-0.567L297.1 117.9c-1.57-0.159-2.88 0.469-3.85 1.58c-0.087-0.59-0.31-1.14-0.687-1.63c-0.457-0.581-1.08-1-1.79-1.24L296.5 112.6c0.496-0.346 0.93-0.741 1.3-1.16ZM295.6 97.57L296.1 94.34c0.516 0.312 1.11 0.532 1.76 0.632L307 96.34L302.2 99.73c-0.556-0.519-1.27-0.912-2.09-1.11L295.6 97.57ZM296.7 80.46c-0.318-2.4-3.16-4.1-6.34-3.79L275.4 78.09c-3.18 0.306-5.51 2.5-5.19 4.9c0.315 2.4 3.16 4.1 6.34 3.8L280.3 86.43L278.4 87.8c-1.36-0.46-3-0.163-4.24 0.904L265.9 95.81c-1.17 1.01-1.69 2.44-1.5 3.75c-1.26-1.26-3.41-1.48-5.15-0.438L256.3 100.9L256.8 96.79L263.9 91.71c1.88-1.36 2.39-3.83 1.13-5.5c-1.27-1.68-3.83-1.93-5.72-0.568L253.4 89.87c-1.56-0.162-2.87 0.473-3.85 1.58c-0.084-0.583-0.312-1.14-0.686-1.62c-0.452-0.582-1.07-0.998-1.79-1.25L252.9 84.53c2.6-1.82 3.48-4.86 1.99-6.79c-1.51-1.93-4.83-2.02-7.43-0.2L235.3 86.07c-2.6 1.82-3.48 4.86-1.98 6.79c0.456 0.58 1.07 0.999 1.8 1.24L229.3 98.17c-2.6 1.82-3.49 4.86-1.99 6.79c1.5 1.93 4.83 2.02 7.43 0.193L241.8 100.2L235.8 112.6c-1.36 2.83-0.627 5.91 1.65 6.89c2.27 0.979 5.21-0.521 6.57-3.35L246.2 111.7c0.393 2.14 1.81 3.77 3.7 3.96c2.46 0.251 4.79-2.07 5.19-5.17c-0.031 1.01 0.144 2.17 0.856 3.07c1.5 1.93 4.83 2.02 7.42 0.2L275.5 105.2c2.07-1.46 3.06-3.69 2.61-5.51L285.2 97.22c-0.395 0.429-0.691 0.944-0.825 1.53c-0.369 1.49 0.313 3 1.62 3.92L285.5 106c-0.152 1.17-0.008 2.29 0.362 3.24L278.9 114.1c-2.6 1.82-3.49 4.86-1.98 6.79c0.457 0.583 1.07 0.998 1.79 1.24L273 126.2c-2.6 1.82-3.48 4.86-1.98 6.8c1.5 1.93 4.82 2.02 7.42 0.195L285.4 128.3L279.5 140.6c-1.36 2.83-0.631 5.92 1.64 6.9c2.27 0.977 5.22-0.52 6.58-3.35L289.8 139.7c0.387 2.14 1.81 3.77 3.69 3.95c2.47 0.252 4.8-2.07 5.19-5.18c-0.037 1.01 0.143 2.17 0.846 3.08c1.51 1.93 4.83 2.02 7.43 0.195L319.2 133.2c2.08-1.46 3.06-3.69 2.61-5.51L328.8 125.2c-0.396 0.424-0.69 0.94-0.836 1.53c-0.364 1.49 0.325 3 1.63 3.92L329.2 134c-0.404 3.1 1.27 5.82 3.73 6.07c2.46 0.246 4.79-2.07 5.19-5.18L338.4 133.1c-0.318 1.75-0.4 3.56 0.618 4.88c1.51 1.93 4.83 2.02 7.43 0.194L349.2 136.2c0.373 0.119 0.769 0.197 1.18 0.223L361.4 137.1c2.36 0.145 4.36-1.42 4.49-3.49c0.129-2.08-1.67-3.88-4.02-4.03L358.9 129.4c2.34-1.84 3.1-4.71 1.66-6.56c-0.758-0.977-1.98-1.48-3.34-1.5c0.201-1.99-1.41-3.84-3.67-4.18L342.6 115.5c-1.28-0.19-2.49 0.139-3.39 0.809c-0.67-1.14-1.73-1.92-2.99-2.04c-0.656-0.07-1.3 0.045-1.9 0.305c-0.676-0.05-1.39 0.008-2.1 0.167L331.4 113.7L335.2 113.4c3.19-0.302 5.51-2.5 5.2-4.9c-0.322-2.41-3.16-4.1-6.35-3.8L322.2 105.8c0.149-2.29-1.65-4.09-3.99-4.24L315.2 101.4c2.35-1.84 3.11-4.71 1.66-6.56c-0.751-0.974-1.98-1.48-3.33-1.51c0.198-1.99-1.4-3.84-3.67-4.18L299 87.51c-1.27-0.188-2.49 0.14-3.38 0.81c-0.675-1.15-1.73-1.93-3-2.05c-0.651-0.062-1.29 0.051-1.89 0.312c-0.676-0.047-1.39 0-2.11 0.168L287.7 85.71L291.5 85.35c3.2-0.299 5.52-2.49 5.2-4.9Z" stroke="rgb(100%,94.9%,82.7%)" stroke-width="0.25" fill="rgb(100%,100%,100%)"  />
		<path id="" d="M195.1 108.4c-0.356 2.14 1.24 4.2 3.57 4.61L209.6 114.9c2.33 0.412 4.51-0.99 4.87-3.13c0.36-2.14-1.24-4.2-3.57-4.61L200 105.3c-2.33-0.414-4.51 0.991-4.87 3.12ZM199.9 95.84c-0.034 0.485 0.022 0.963 0.166 1.41c-2.26 0.109-4.05 1.83-4.04 3.93c0.015 2.17 1.93 3.92 4.3 3.92L211.3 105.1c2.36-0.004 4.27-1.77 4.26-3.93c2.02-0.158 3.65-1.69 3.81-3.61c0.175-2.17-1.59-4.08-3.95-4.28L204.5 92.29c-2.36-0.206-4.41 1.38-4.59 3.55Z" stroke="rgb(98.8%,83.1%,68.2%)" stroke-width="0.25" fill="rgb(100%,100%,100%)"  />
		<path id="" d="M228.1 139.4c2.91-8.88-20.9-24.5-52.8-34.1c-31.9-9.65-58.1-14.2-62.7-0.787c-3.01 8.84 24 24.7 55.6 35.3c27.5 9.32 56.3 10.3 59.8-0.413Z" fill="rgb(91.8%,65.9%,44.3%)"  />
		<path id="" d="M159.8 120.1c0 0-2.76 0.232-9.86-1.92c-7.11-2.15-12.9-3.9-15.7-4.34c-2.78-0.432-6.82-1.52-6.82-1.52c0 0 1.79-1.09 1.13-2.11c-0.666-1.02-1.43-3.3 0.168-3.77c1.6-0.474 5.87-1.77 8.17-1.35c2.3 0.421 7.97 0.911 9.65 0.187c1.67-0.721 5.68-1.14 8.38-0.461c2.7 0.682 12.5 3.51 14 3.41c1.48-0.091 6.03 2.51 8.25 3.18c2.22 0.676 8.16 3.14 8.16 3.14c0 0 0.196 1.3-4.48 2.34c-4.68 1.04-11.8 4.08-11.8 4.08c0 0 2.85-3.5 2.3-4.9c-0.547-1.39-1.5-3.05-1.5-3.05c0 0-9.71-1.57-15.7-0.938c-6.01 0.637-12.8 2.14-12.8 2.14c0 0 4.44 1.35 7.56 2.29c3.11 0.94 10.8 3.57 10.8 3.57Z" fill="rgb(77.3%,9.02%,9.41%)"  />
		<path id="" d="M162.8 123.5c0 0-7.38-1.28-12.5-2.01c-5.11-0.73-10.8-1.09-13.8-0.771c-3.01 0.315-9.42-0.938-9.42-0.938c0 0 2.36 1.81 3.87 3.21c1.52 1.42 10.9 5.5 14.5 6.58c3.55 1.08 9.78 2.96 11.4 4c1.62 1.03 11.3 4.37 14 5.05c2.71 0.686 8.71 1.68 12 2.12c3.26 0.438 7.38 1.27 9.63 1.82c2.26 0.549 6.23 0.25 6.23 0.25c0 0-2.52-1.31-5.28-3.37c-2.77-2.06-3.69-3.85-6.94-5.92c-3.25-2.08-9.2-4.83-9.2-4.83c0 0 3.51 2.84 4.13 3.98c0.62 1.14 4.16 3.85 4.16 3.85c0 0-4.48-1.22-9.11-1.94c-4.63-0.715-8.71-1.68-13.9-3.67c-5.22-1.99-13.1-6.29-13.1-6.29c0 0 2.75-1.08 5.57-0.771c2.82 0.31 7.87-0.346 7.87-0.346Z" fill="rgb(77.3%,9.02%,9.41%)"  />
		<path id="" d="M180.2 123.5c0 0 6.71 0.258 11.1 0.217c4.38-0.042 7.26 0.013 9.15 1.82c1.88 1.8 0.249 2.39 1.84 3.56c1.59 1.17 2.58 2.69 2.36 3.44c-0.227 0.75-4.24 1.17-3.98 1.93c0.254 0.762-4.44-1.34-7.81-3.05c-3.37-1.69-7.74-3.29-9.11-3.57c-1.37-0.276-0.967 1.62 1.54 2.93c2.51 1.31 12.2 6.02 15.8 7.1c3.55 1.08 8.55 3.81 8.55 3.81c0 0 4.16-0.925 4.31-1.43c0.15-0.499 3.2-0.939 1.2-2.36c-2-1.42 0.123-2.01 1.53-1.86c1.41 0.156 2.98-1.83 1.43-3.11c-1.55-1.29-0.949-3.29-2.46-4.7c-1.51-1.42-5.03-2.61-7.91-4.31c-2.89-1.69-3.17-3.96-3.17-3.96c0 0-5.26-0.226-10.1-0.325c-4.82-0.092-10.4 0.806-13.1 1.63c-2.68 0.829-1.16 2.24-1.16 2.24Z" fill="rgb(77.3%,9.02%,9.41%)"  />
		<path id="" d="M151.1 126.9c0 0-8.01-0.794-5.09 0.778c2.92 1.57 5.09-0.778 5.09-0.778Z" fill="rgb(96.1%,64.3%,53.3%)"  />
		<path id="" d="M157.3 130.3c0 0 0.358 2.03-2.75 1.08c-3.11-0.939 2.75-1.08 2.75-1.08Z" fill="rgb(96.1%,64.3%,53.3%)"  />
		<path id="" d="M143.5 112.3c0 0-7.95-2.26-6.1-3.38c1.77-1.08 6.1 3.38 6.1 3.38Z" fill="rgb(96.1%,64.3%,53.3%)"  />
		<path id="" d="M155.1 110.7c0 0-7.62-3.68-4.73-3.62c2.89 0.058 4.73 3.62 4.73 3.62Z" fill="rgb(96.1%,64.3%,53.3%)"  />
		<path id="" d="M159.2 110.6c0 0-4.76-4.09-0.646-3.25c4.11 0.832 0.646 3.25 0.646 3.25Z" fill="rgb(96.1%,64.3%,53.3%)"  />
		<path id="" d="M200.8 124.4c0 0-0.098-2.9 3.35-1.44c3.44 1.45-3.35 1.44-3.35 1.44Z" fill="rgb(96.1%,64.3%,53.3%)"  />
		<path id="" d="M204.9 128.6c0 0 4.87-1.67 7.12 0.51c2.25 2.18-7.12-0.51-7.12-0.51Z" fill="rgb(96.1%,64.3%,53.3%)"  />
		<path id="" d="M207.1 132.3c0 0 5.78 3.45 7.41 2.86c1.64-0.603-7.41-2.86-7.41-2.86Z" fill="rgb(96.1%,64.3%,53.3%)"  />
		<path id="" d="M176.5 135.8c0 0-1.73 2.48 3.32 3.46c5.04 0.978-3.32-3.46-3.32-3.46Z" fill="rgb(96.1%,64.3%,53.3%)"  />
		<path id="" d="M112.5 105.1c4.39-11.1 29.9-7.35 62.5 2.52c32.6 9.86 54.5 21.9 52.8 32.6L231.7 132.8c3.17-10.5-20.6-27.2-53.2-37.1c-32.6-9.85-61.6-9.37-64.5 1.01L112.5 105.1Z" fill="rgb(68.2%,8.63%,7.45%)"  />
		<path id="" d="M102 87.79c3.78 3.78 3.78 9.9 0 13.7c-3.78 3.78-9.9 3.78-13.7 0c-3.78-3.78-3.78-9.9 0-13.7c3.78-3.78 9.9-3.78 13.7 0" fill="rgb(22.4%,66.3%,20.8%)"  />
		<path id="" d="M97 92.23c2.38 2.38 2.38 6.24 0 8.62c-2.38 2.38-6.24 2.38-8.62 0c-2.38-2.38-2.38-6.24 0-8.62c2.38-2.38 6.24-2.38 8.62 0" fill="rgb(34.1%,80.8%,31.8%)"  />
		<path id="" d="M90.52 94.29c0.647 0.647 0.647 1.7 0 2.34c-0.647 0.647-1.7 0.647-2.34 0c-0.647-0.647-0.647-1.7 0-2.34c0.647-0.647 1.7-0.647 2.34 0" fill="rgb(50.6%,82.7%,49%)"  />
	</g>
</g>
</svg>
