<?xml version="1.0" encoding="iso-8859-1"?>
<!-- Generator: Adobe Illustrator 16.0.0, SVG Export Plug-In . SVG Version: 6.00 Build 0)  -->
<!DOCTYPE svg PUBLIC "-//W3C//DTD SVG 1.1//EN" "http://www.w3.org/Graphics/SVG/1.1/DTD/svg11.dtd">
<svg version="1.1" id="Layer_1" xmlns="http://www.w3.org/2000/svg" xmlns:xlink="http://www.w3.org/1999/xlink" x="0px" y="0px"
	 width="535px" height="178px" viewBox="0 0 535 178" style="enable-background:new 0 0 535 178;" xml:space="preserve">
<g>
	<g>
		<path style="fill:#C9E1E5;" d="M7,79.155v3.594c0,50.567,116.886,87.965,261.072,87.965s261.071-37.397,261.071-87.965v-4.277
			L7,79.155z"/>
		<path style="fill:#1D1D1B;" d="M7.101,79.256c0.017,1.506,0.004,3.019,0.047,4.518c0.059,1.533,0.226,3.062,0.499,4.57
			c0.545,3.019,1.517,5.953,2.815,8.727c2.609,5.56,6.465,10.453,10.829,14.747c4.378,4.301,9.285,8.038,14.422,11.395
			c5.141,3.36,10.52,6.351,16.032,9.065c11.034,5.421,22.568,9.789,34.281,13.534c11.725,3.724,23.64,6.841,35.652,9.508
			c24.037,5.308,48.455,8.823,72.965,11.118c24.511,2.361,49.142,3.41,73.77,3.507c24.63,0.084,49.271-0.9,73.808-3.141
			c24.532-2.238,48.959-5.839,73.015-11.166c12.015-2.716,23.924-5.914,35.626-9.745c11.692-3.844,23.197-8.315,34.184-13.848
			c5.486-2.771,10.838-5.814,15.932-9.24c5.085-3.43,9.93-7.24,14.214-11.609c4.271-4.362,7.992-9.322,10.424-14.896
			c1.213-2.781,2.084-5.707,2.53-8.697c0.224-1.495,0.342-3.004,0.354-4.515l-0.012-4.616l0.658,0.658l-130.535,0.492l-65.269,0.165
			l-65.268,0.049c-43.512,0.089-87.024-0.095-130.536-0.155l-65.269-0.13L7.101,79.256z M6.9,79.056l65.367-0.466l65.268-0.301
			c43.512-0.175,87.023-0.472,130.535-0.497l65.268-0.122l65.269-0.006l130.536,0.15l0.661,0.001l-0.003,0.657l-0.018,4.629
			c-0.021,1.571-0.154,3.14-0.396,4.691c-0.483,3.104-1.407,6.129-2.676,8.989c-2.544,5.734-6.39,10.768-10.747,15.176
			c-4.372,4.417-9.285,8.245-14.429,11.681c-5.152,3.432-10.551,6.469-16.077,9.23c-11.065,5.51-22.626,9.943-34.362,13.744
			c-11.745,3.794-23.691,6.924-35.728,9.617c-24.065,5.449-48.521,9.02-73.059,11.502c-24.549,2.452-49.222,3.64-73.896,3.753
			c-49.321,0.109-98.835-3.92-147.075-14.64c-12.046-2.706-23.996-5.876-35.734-9.729c-11.732-3.852-23.285-8.329-34.342-13.869
			c-11.01-5.556-21.682-12.154-30.457-20.942c-4.349-4.393-8.182-9.391-10.746-15.047c-1.276-2.823-2.22-5.802-2.729-8.857
			c-0.256-1.527-0.404-3.071-0.443-4.618c-0.024-1.548,0.011-3.083,0.014-4.626V79.056z"/>
	</g>
	<g>
		<path style="fill:#E9F2F3;" d="M529.144,80.237c0,45.589-116.885,84.518-261.071,84.518S7,125.826,7,80.237
			C7,42.607,123.886,9.505,268.072,9.505S529.144,34.647,529.144,80.237z"/>
		<path style="fill:#1D1D1B;" d="M529.243,80.238c0.036,6.015-2.11,11.876-5.35,16.879c-3.245,5.038-7.472,9.365-12.041,13.2
			c-9.204,7.657-19.77,13.453-30.562,18.517c-10.839,5.02-22.066,9.162-33.45,12.761c-11.39,3.591-22.949,6.631-34.599,9.258
			c-23.301,5.271-46.97,8.796-70.727,11.201c-23.765,2.403-47.653,3.441-71.529,3.524c-47.74-0.023-95.557-4.141-142.326-13.782
			c-11.684-2.438-23.273-5.321-34.739-8.641c-11.459-3.335-22.784-7.184-33.787-11.844c-10.978-4.682-21.714-10.119-31.425-17.159
			c-4.832-3.532-9.406-7.485-13.281-12.1c-3.852-4.596-7.026-9.955-8.335-15.92c-0.627-2.966-0.902-6.047-0.394-9.099
			c0.506-3.038,1.742-5.903,3.355-8.477c3.269-5.16,7.854-9.255,12.684-12.802c4.864-3.541,10.086-6.534,15.437-9.226
			c5.357-2.685,10.86-5.058,16.438-7.222c11.161-4.32,22.61-7.83,34.166-10.873c11.561-3.038,23.25-5.551,34.994-7.736
			c47.016-8.616,94.848-12.129,142.591-12.222c23.873,0,47.754,0.597,71.581,2.178c23.82,1.587,47.608,3.961,71.188,7.763
			c11.788,1.896,23.524,4.134,35.15,6.86c11.62,2.735,23.143,5.951,34.369,10.031c11.18,4.13,22.231,8.953,32.031,15.842
			c4.859,3.457,9.409,7.472,12.896,12.353c1.734,2.437,3.181,5.093,4.168,7.922C528.737,74.25,529.252,77.244,529.243,80.238z
			 M529.044,80.237c-0.004-2.971-0.527-5.936-1.52-8.734c-0.99-2.802-2.435-5.43-4.167-7.842
			c-3.481-4.831-8.021-8.807-12.875-12.228c-4.873-3.419-10.106-6.302-15.481-8.858c-5.379-2.558-10.919-4.767-16.536-6.745
			c-11.239-3.955-22.767-7.046-34.388-9.656c-11.627-2.603-23.364-4.696-35.146-6.458c-23.574-3.481-47.318-5.747-71.105-7.163
			c-23.79-1.393-47.624-2.078-71.458-2.017c-23.828,0.047-47.652,1.038-71.4,2.934c-23.744,1.916-47.421,4.811-70.854,9.076
			c-11.715,2.134-23.361,4.639-34.893,7.585c-11.525,2.959-22.941,6.383-34.057,10.607c-5.554,2.116-11.03,4.438-16.353,7.065
			c-5.315,2.633-10.496,5.562-15.3,9.015c-4.771,3.456-9.271,7.445-12.437,12.38c-1.563,2.461-2.748,5.174-3.241,8.028
			c-0.496,2.842-0.257,5.818,0.33,8.672c1.231,5.742,4.284,10.975,8.046,15.501c3.783,4.545,8.283,8.473,13.056,11.993
			c9.593,7.019,20.258,12.483,31.178,17.195c21.925,9.345,45.032,15.71,68.358,20.53c23.349,4.825,47.014,8.031,70.76,10.063
			c23.75,2.039,47.592,2.895,71.42,2.739c23.83-0.097,47.648-1.341,71.365-3.592c23.715-2.275,47.322-5.75,70.627-10.703
			c11.646-2.499,23.21-5.406,34.606-8.875c11.392-3.475,22.633-7.494,33.494-12.393c5.428-2.451,10.756-5.132,15.892-8.15
			c5.133-3.015,10.096-6.341,14.677-10.144c4.565-3.804,8.787-8.096,12.03-13.091C526.908,92.012,529.057,86.21,529.044,80.237z"/>
	</g>
	<path style="fill:#FFFFFF;" d="M516.798,79.31c0,43.435-111.357,80.612-248.726,80.612S19.346,122.744,19.346,79.31
		c0-36.702,111.358-66.83,248.727-66.83S516.798,35.878,516.798,79.31z"/>
	<path style="fill:#9CC9D3;" d="M449.885,87.057v-4.438c0-35.219-81.401-47.062-181.814-47.062
		c-100.411,0-181.811,11.843-181.811,47.062v4.914L449.885,87.057z"/>
	<path style="fill:#C9E1E5;" d="M86.26,86.304c0-31.749,81.399-42.719,181.811-42.719c100.413,0,181.814,10.97,181.814,42.719
		c0,31.748-81.401,59.454-181.814,59.454C167.659,145.758,86.26,118.052,86.26,86.304z"/>
	<path style="fill:#E9F2F3;" d="M86.26,86.304c0-31.749,81.399-42.719,181.811-42.719c100.413,0,181.814,10.97,181.814,42.719
		c0,31.748-81.401,59.454-181.814,59.454C167.659,145.758,86.26,118.052,86.26,86.304z"/>
	<path style="fill:#FFFFFF;" d="M85.903,80.476c0-31.467,81.56-42.339,182.167-42.339c100.61,0,182.17,10.872,182.17,42.339
		c0,31.463-81.56,58.923-182.17,58.923C167.463,139.398,85.903,111.938,85.903,80.476z"/>
	<path style="fill:#9CC9D3;" d="M456.095,84.555v-4.438c0-35.219-81.401-47.062-181.814-47.062
		c-100.411,0-181.811,11.843-181.811,47.062v4.914L456.095,84.555z"/>
	<path style="fill:#C9E1E5;" d="M92.47,83.802c0-31.749,81.399-42.719,181.811-42.719c100.413,0,181.814,10.97,181.814,42.719
		c0,31.748-81.401,59.454-181.814,59.454C173.869,143.256,92.47,115.55,92.47,83.802z"/>
	<path style="fill:#E9F2F3;" d="M92.47,83.802c0-31.749,81.399-42.719,181.811-42.719c100.413,0,181.814,10.97,181.814,42.719
		c0,31.748-81.401,59.454-181.814,59.454C173.869,143.256,92.47,115.55,92.47,83.802z"/>
	<path style="fill:#FFFFFF;" d="M92.112,77.974c0-31.467,81.56-42.339,182.168-42.339c100.61,0,182.17,10.872,182.17,42.339
		c0,31.463-81.56,58.923-182.17,58.923C173.672,136.896,92.112,109.437,92.112,77.974z"/>
</g>
<path style="fill:#FECD7E;" d="M311,91.333c2.666,0,156,9.333,190-9.333c5.621-3.086,3.333-20.667,3.333-20.667l-192.667,10
	L311,91.333z"/>
<path style="fill:#E9F2F3;" d="M425.256,61.143c1.42,0.57,2.784,1.157,4.094,1.76C428.146,62.085,426.758,61.528,425.256,61.143z"/>
<path style="fill:#BC2F2F;" d="M490.333,61.333l13.09-2.225c-0.109-0.117-0.228-0.231-0.339-0.348c0.09-1.05,0.138-2.105,0.13-3.167
	l-5.381-3.26c-32.512-29.622-120.59-43-229.5-43c-126.75,0-245.957,27.541-245.957,68.822c0,35.297,108.639,72.963,244.719,72.963
	c35.335,0,74.793-0.57,104.571-4.452l-11.125-15.281c3.408-0.126-60.381-43.672-56.875-44.053
	C373.449,79.769,486.855,96.95,490.333,61.333z"/>
<path style="fill:#FEE27E;" d="M311.666,82C320.364,61.021,466.999,106.248,485,62.667c9.5-23-72.244-50.898-96.667-38.833
	c-41.5,20.5-13.09-9-122-9c-19.46,0-49.696,9.943-67.5,10.5c-45.665,1.429-78.104,2.237-107.211,9.101
	c-33.462,7.89-53.289,20.212-53.289,38.899c0,35.297,77.42,40,213.5,40c35.335,0,91.661,22.38,95.167,22
	C416.783,127.769,300.333,109.333,311.666,82z"/>
<path style="fill:#BC2F2F;" d="M123.833,68.833c1.5-0.5,17-8,41.5-9s27.5,15,41.5,17s89.5-12.5,98-8.5c8.193,3.856,40.5,10,36,15.5
	s-41.5-5-53.5-10.5s-76.5,10-89.5,7.5s-25.5-14.5-39.5-7.5s-39.5,8-40.5,3S123.833,68.833,123.833,68.833z"/>
<path style="fill:#FFD739;" d="M62.333,64.333c-9,9,18,18,36,27s18,9,45,9s54,0,27-9s-36,0-63-9s-36-18-36-18s18,0,9-9s-18-9-18,0
	S62.333,64.333,62.333,64.333z"/>
<g>
	<ellipse style="fill:#12100D;" cx="247.507" cy="118.78" rx="17.507" ry="11.113"/>
	<path style="fill:#24211F;" d="M261.812,112.369c2.018,1.812,3.203,4.018,3.203,6.411c0,6.139-7.839,11.113-17.506,11.113
		c-6.299,0-11.819-2.115-14.904-5.28C248.812,131.424,262.791,120.715,261.812,112.369z"/>
	<path style="fill:#FFFFFF;" d="M237.424,113.618c-4.551,2.708-4.379,0.253-1.461-1.584
		C238.372,110.521,240.203,111.963,237.424,113.618z"/>
</g>
<g>
	<ellipse style="fill:#12100D;" cx="79.84" cy="89.22" rx="17.507" ry="11.113"/>
	<path style="fill:#24211F;" d="M94.145,82.809c2.018,1.812,3.203,4.018,3.203,6.411c0,6.139-7.839,11.113-17.506,11.113
		c-6.299,0-11.819-2.115-14.904-5.28C81.146,101.864,95.125,91.155,94.145,82.809z"/>
	<path style="fill:#FFFFFF;" d="M69.757,84.058c-4.551,2.708-4.379,0.253-1.46-1.584C70.706,80.961,72.536,82.403,69.757,84.058z"/>
</g>
<path style="fill:#FEE27E;" d="M123.833,20.333c-43.659,5.693-98.051,31.741-99.151,46.053
	C28.333,47.333,77.382,24.185,123.833,20.333z"/>
<path style="fill:#FEE27E;" d="M469.833,34.833c-28-9.5-89-22-156.799-26.491C374.833,9.833,455.333,24.333,469.833,34.833z"/>
<path style="fill:#FFD739;" d="M170.333,46.333c0,0,27,9,54,0s72,9,72,9s-9,9-45,9s-72.138,3.234-72.138,3.234
	s-53.862,5.766-44.862-3.234s0-27,18-18S170.333,46.333,170.333,46.333z"/>
<g>
	<path style="fill:#67892D;" d="M204.342,39.317l0.763,5.787c2,2.474,10.842,5.743,22.571,3.968
		c13.786-2.085,18.445-6.877,19.602-9.818c0.095-2.915-0.425-6.877-0.425-6.877s-8.195,7.885-19.479,10.532
		C214.386,45.957,204.342,39.317,204.342,39.317z"/>
	<path style="fill:#67892D;" d="M179.376,28.532l0.729,5.531c1.743,2.795,14.544,7.376,27.531,3.764
		c0.058-1.401,0.733-4.212,0.733-4.212L179.376,28.532z"/>
	<path style="fill:#67892D;" d="M263.943,16.13l0.866,6.588c-0.105,3.392-12.129,10.212-21.432,9.436
		c-0.552-1.293-2.079-3.694-2.079-3.694L263.943,16.13z"/>
	<path style="fill:#D5E2A1;" d="M240.414,29.479c-2.242-1.329-4.894-1.346-6.906-1.44c0.355,1.549,0.274,3.096,0.49,3.81
		c2.316,0.51,3.974,0.878,4.595,2.053L240.414,29.479z"/>
	<path style="fill:#D5E2A1;" d="M213.51,37.252c0.525-1.507,1.596-2.54,3.688-3.039l-0.488-3.71c0,0-5.961,2.475-6.536,4.261
		L213.51,37.252z"/>
	<path style="fill:#D5E2A1;" d="M193.653,29.399c-0.434-3.314,5.269-4.806,9.719-5.778c6.58-1.443,15.172-0.422,18.785,2.367
		c1.25-3.412,7.977-6.081,13.507-6.893c6.055-0.886,13.265-0.764,14.577,2.294c3.045-0.722,1.47-6.001-1.62-6.779
		c-4.599-1.159-14.379-0.591-20.406,1.472c-5.575,1.908-5.568,3.286-6.793,4.316c-3.67-1.835-12.935-2.157-18.618-1.098
		c-5.682,1.051-14.121,3.093-13.729,6.758C189.47,29.729,193.653,29.399,193.653,29.399z"/>
	<path style="fill:#8EB125;" d="M259.171,11.92c-13.385-4.578-32.893,1.702-38.479,6.745c-15.094-4.855-35.875,1.167-39.934,6.037
		c-6.432,7.726,10.019,11.898,26.731,9.197c-8.659,6.068,0.734,14.162,20.261,10.987c18.168-2.952,24.318-13.39,14.778-16.028
		C262.327,26.567,269.897,15.586,259.171,11.92L259.171,11.92z M227.385,40.34L227.385,40.34
		c-13.47,2.189-18.877-5.673-10.675-9.837c-11.934,3.77-28.795,0.381-23.495-5.675c2.657-3.028,22.034-7.433,28.605-1.411
		c-1.128-4.752,16.559-9.691,25.994-6.766c7.72,2.394-0.347,10.961-14.307,11.388C242.445,30.07,239.922,38.307,227.385,40.34z"/>
	<path style="fill:#D5E2A1;" d="M194.077,32.469c-22.755-4.709-2.705-13.148,8.727-13.168
		C187.582,21.245,181.236,28.258,194.077,32.469z"/>
	<path style="fill:#D5E2A1;" d="M232.762,15.289c27.921-8.796,33.189,2.709,17.762,8.446
		C263.856,15.723,251.571,10.441,232.762,15.289z"/>
	<path style="fill:#D5E2A1;" d="M243.014,34.347c-7.614,13.447-34.694,10.805-33.821,4.962
		C212.691,45.032,234.882,43.85,243.014,34.347z"/>
</g>
<g>
	<ellipse style="fill:#12100D;" cx="260.826" cy="30.446" rx="17.507" ry="11.113"/>
	<path style="fill:#24211F;" d="M275.13,24.036c2.018,1.812,3.203,4.018,3.203,6.411c0,6.139-7.839,11.113-17.506,11.113
		c-6.299,0-11.819-2.115-14.904-5.28C262.131,43.091,276.11,32.381,275.13,24.036z"/>
	<path style="fill:#FFFFFF;" d="M250.742,25.284c-4.551,2.708-4.379,0.253-1.46-1.584C251.691,22.188,253.521,23.629,250.742,25.284
		z"/>
</g>
<g>
	<ellipse style="fill:#12100D;" cx="133.84" cy="39.446" rx="17.507" ry="11.113"/>
	<path style="fill:#24211F;" d="M148.146,33.036c2.017,1.812,3.201,4.018,3.201,6.411c0,6.139-7.837,11.113-17.505,11.113
		c-6.299,0-11.819-2.115-14.904-5.28C135.146,52.091,149.125,41.381,148.146,33.036z"/>
	<path style="fill:#FFFFFF;" d="M123.757,34.284c-4.55,2.708-4.379,0.253-1.46-1.584C124.706,31.188,126.536,32.629,123.757,34.284z
		"/>
</g>
<g>
	<path style="fill:#EAA871;" d="M159.518,56.065c-1.127,6.714-21.747,8.731-45.588,4.159c-23.838-4.574-42.271-10.491-40.673-20.7
		c1.05-6.723,23.853-7.762,47.83-3.97C141.984,38.858,160.868,47.999,159.518,56.065z"/>
	<path style="fill:#C51718;" d="M108.944,45.426c0,0-1.698-1.082-7.009-2.102c-5.314-1.018-9.633-1.85-11.572-2.508
		c-1.938-0.662-4.909-1.328-4.909-1.328s0.783,1.31,0.013,1.744c-0.776,0.434-2.041,1.643-1.167,2.487
		c0.869,0.846,3.185,3.131,4.808,3.637c1.625,0.506,5.451,2.111,6.286,3.145c0.833,1.031,3.275,2.661,5.251,3.136
		c1.974,0.476,9.262,1.973,10.187,2.539c0.926,0.562,4.74,0.422,6.397,0.74c1.661,0.316,6.328,0.735,6.328,0.735
		s0.565-0.771-2.102-3.025c-2.663-2.256-6.197-6.612-6.197-6.612s0.652,3.222-0.176,3.936c-0.822,0.712-2,1.458-2,1.458
		s-6.795-2.272-10.458-4.719c-3.661-2.444-7.515-5.702-7.515-5.702s3.323,0.633,5.648,1.08
		C103.082,44.514,108.944,45.426,108.944,45.426z"/>
	<path style="fill:#C51718;" d="M112.02,44.216c0,0-5.189-1.673-8.736-2.934c-3.544-1.26-7.348-2.958-9.18-4.185
		c-1.831-1.221-6.391-2.583-6.391-2.583s2.135-0.364,3.585-0.762c1.457-0.401,8.924,0.159,11.581,0.67
		c2.656,0.509,7.308,1.399,8.707,1.282c1.396-0.119,8.759,1.003,10.732,1.477c1.979,0.474,6.186,1.865,8.438,2.682
		c2.252,0.822,5.187,1.677,6.828,2.088c1.645,0.411,4.104,1.948,4.104,1.948s-2.065-0.008-4.549,0.387
		c-2.482,0.395-3.684,1.232-6.481,1.472c-2.8,0.238-7.571,0-7.571,0s3.22-0.643,4.01-1.171c0.787-0.526,3.992-1.074,3.992-1.074
		s-3.302-0.729-6.535-1.832c-3.227-1.106-6.182-1.865-10.22-2.348c-4.04-0.487-10.599-0.386-10.599-0.386s1.408,1.625,3.329,2.381
		C108.983,42.083,112.02,44.216,112.02,44.216z"/>
	<path style="fill:#C51718;" d="M123.274,50.153c0,0,4.415,2.104,7.228,3.615c2.808,1.509,4.688,2.45,6.512,1.924
		c1.824-0.52,0.971-1.458,2.387-1.671c1.421-0.212,2.577-0.862,2.688-1.423c0.107-0.56-2.34-2.191-1.915-2.594
		c0.422-0.405-3.319-0.637-6.069-0.678c-2.742-0.045-6.104-0.494-7.082-0.778c-0.977-0.284-0.075-1.372,1.987-1.364
		c2.062,0.009,9.931,0.259,12.591,0.767c2.656,0.51,6.803,0.433,6.803,0.433s2.373,2.006,2.299,2.38
		c-0.072,0.374,1.742,1.688-0.024,1.933c-1.772,0.24-0.601,1.336,0.357,1.718c0.96,0.375,1.304,2.187-0.132,2.489
		c-1.438,0.306-1.727,1.802-3.179,2.2c-1.456,0.399-4.128-0.016-6.56,0.1c-2.435,0.114-3.386,1.484-3.386,1.484
		s-3.471-1.637-6.615-3.205c-3.139-1.573-6.455-4.05-7.897-5.489C121.821,50.552,123.274,50.153,123.274,50.153z"/>
	<path style="fill:#F5A488;" d="M105.627,38.048c0,0-5.433-2.199-3.017-2.224C105.023,35.803,105.627,38.048,105.627,38.048z"/>
	<path style="fill:#F5A488;" d="M110.803,37.979c0,0,0.917-1.185-1.408-1.631C107.071,35.902,110.803,37.979,110.803,37.979z"/>
	<path style="fill:#F5A488;" d="M95.841,44.914c0,0-5.891-1.233-5.08,0.115C91.537,46.324,95.841,44.914,95.841,44.914z"/>
	<path style="fill:#F5A488;" d="M102.743,49.873c0,0-6.155-0.209-4.274,0.733C100.354,51.55,102.743,49.873,102.743,49.873z"/>
	<path style="fill:#F5A488;" d="M105.349,51.292c0,0-4.452,1.024-1.517,1.876C106.767,54.024,105.349,51.292,105.349,51.292z"/>
	<path style="fill:#F5A488;" d="M136.855,56.535c0,0-1.044,1.834,1.67,2.064C141.236,58.831,136.855,56.535,136.855,56.535z"/>
	<path style="fill:#F5A488;" d="M140.902,55.177c0,0,2.577,2.725,4.767,2.081C147.857,56.612,140.902,55.177,140.902,55.177z"/>
	<path style="fill:#F5A488;" d="M143.606,53.517c0,0,4.896-0.27,5.75,0.667C150.21,55.127,143.606,53.517,143.606,53.517z"/>
	<path style="fill:#F5A488;" d="M125.047,40.902c0,0-0.271-2.186,3.313-1.109C131.94,40.868,125.047,40.902,125.047,40.902z"/>
	<path style="fill:#AE1613;" d="M73.375,39.043c-0.919,8.627,16.778,14.848,41.13,19.517c24.348,4.668,42.521,4.329,45.078-3.131
		l0.005,6.123c-1.499,7.817-22.495,10.578-46.847,5.914C88.393,62.789,69.867,52.67,71.476,44.978L73.375,39.043z"/>
</g>
<g>
	<path style="fill:#EAA871;" d="M211.021,111.108c0.172,6.806-19.686,12.715-43.961,12.768c-24.272,0.05-43.496-2.246-43.871-12.573
		c-0.251-6.799,21.937-12.163,46.197-13.009C190.53,97.557,210.809,102.933,211.021,111.108z"/>
	<path style="fill:#C51718;" d="M159.347,110.298c0,0-1.874-0.739-7.281-0.729c-5.412,0.013-9.81,0.02-11.839-0.257
		c-2.028-0.28-5.072-0.368-5.072-0.368s1.019,1.137,0.345,1.709c-0.68,0.574-1.689,2.001-0.671,2.664
		c1.015,0.665,3.722,2.467,5.413,2.655c1.69,0.187,1.742,2.505,2.759,3.36c1.016,0.853,7.732,0.517,9.762,0.607
		s9.469,0.172,10.484,0.552c1.017,0.374,4.733-0.489,6.421-0.492c1.691-0.006,6.354-0.484,6.354-0.484s0.408-0.865-2.64-2.57
		c-3.045-1.708-7.345-5.31-7.345-5.31s1.255,3.039,0.577,3.897c-0.671,0.856-1.685,1.812-1.685,1.812s-7.104-0.936-11.166-2.64
		c-4.06-1.702-8.463-4.167-8.463-4.167s3.384-0.011,5.751-0.016C153.417,110.52,159.347,110.298,159.347,110.298z"/>
	<path style="fill:#C51718;" d="M162.134,108.525c0,0-5.413-0.654-9.134-1.216s-7.777-1.504-9.81-2.359
		c-2.029-0.85-6.766-1.319-6.766-1.319s2.026-0.764,3.374-1.431c1.354-0.671,8.79-1.544,11.497-1.548
		c2.704-0.006,7.439-0.018,8.791-0.4c1.349-0.383,8.79-0.684,10.818-0.595c2.031,0.089,6.427,0.653,8.793,1.025
		c2.368,0.378,5.411,0.658,7.102,0.749c1.692,0.09,4.399,1.13,4.399,1.13s-2.029,0.386-4.393,1.247
		c-2.362,0.861-3.382,1.911-6.083,2.68c-2.703,0.767-7.432,1.443-7.432,1.443s3.039-1.245,3.714-1.914
		c0.672-0.666,3.713-1.815,3.713-1.815s-3.379-0.086-6.764-0.554c-3.379-0.471-6.424-0.653-10.48-0.357
		c-4.058,0.292-10.478,1.641-10.478,1.641s1.691,1.326,3.723,1.703C158.747,107.009,162.134,108.525,162.134,108.525z"/>
	<path style="fill:#C51718;" d="M174.314,112.208c0,0,4.734,1.225,7.783,2.172c3.043,0.946,5.069,1.512,6.76,0.648
		c1.691-0.858,0.674-1.616,2.024-2.095c1.354-0.479,2.366-1.337,2.366-1.909c-0.001-0.57-2.714-1.705-2.373-2.182
		c0.337-0.479-3.38,0.007-6.087,0.491c-2.702,0.479-6.086,0.678-7.102,0.585c-1.012-0.093-0.335-1.333,1.691-1.718
		c2.026-0.384,9.799-1.638,12.507-1.645c2.704-0.006,6.76-0.872,6.76-0.872s2.712,1.518,2.71,1.898
		c0.001,0.38,2.032,1.325,0.344,1.902c-1.693,0.573-0.335,1.426,0.679,1.618c1.014,0.186,1.696,1.898,0.345,2.469
		c-1.353,0.574-1.352,2.099-2.701,2.766c-1.353,0.669-4.056,0.771-6.42,1.348c-2.369,0.576-3.041,2.102-3.041,2.102
		s-3.72-0.945-7.104-1.886c-3.381-0.945-7.109-2.747-8.8-3.883C172.963,112.877,174.314,112.208,174.314,112.208z"/>
	<path style="fill:#F5A488;" d="M154.684,103.687c0,0-5.752-1.123-3.384-1.608C153.664,101.599,154.684,103.687,154.684,103.687z"/>
	<path style="fill:#F5A488;" d="M159.752,102.634c0,0,0.675-1.337-1.693-1.333C155.693,101.305,159.752,102.634,159.752,102.634z"/>
	<path style="fill:#F5A488;" d="M146.386,112.291c0,0-6.019-0.088-4.966,1.081C142.429,114.495,146.386,112.291,146.386,112.291z"/>
	<path style="fill:#F5A488;" d="M154.106,115.845c0,0-6.084,0.967-4.058,1.534C152.08,117.946,154.106,115.845,154.106,115.845z"/>
	<path style="fill:#F5A488;" d="M156.934,116.742c0,0-4.176,1.854-1.132,2.131C158.847,119.153,156.934,116.742,156.934,116.742z"/>
	<path style="fill:#F5A488;" d="M188.861,115.887c0,0-0.675,2,2.034,1.708C193.601,117.306,188.861,115.887,188.861,115.887z"/>
	<path style="fill:#F5A488;" d="M192.577,113.783c0,0,3.048,2.184,5.074,1.135C199.678,113.867,192.577,113.783,192.577,113.783z"/>
	<path style="fill:#F5A488;" d="M194.915,111.638c0,0,4.756-1.198,5.772-0.441C201.704,111.961,194.915,111.638,194.915,111.638z"/>
	<path style="fill:#F5A488;" d="M174.293,102.79c0,0-0.684-2.094,3.04-1.72C181.053,101.443,174.293,102.79,174.293,102.79z"/>
	<path style="fill:#AE1613;" d="M123.213,110.808c0.741,8.644,19.299,11.38,44.094,11.325c24.792-0.055,42.567-3.85,43.656-11.661
		l1.171,6.01c0.019,7.959-20.068,14.669-44.862,14.729c-24.794,0.047-44.907-6.357-44.794-14.215L123.213,110.808z"/>
</g>
<g>
	<path style="fill:#67892D;" d="M140.29,91.889l-1.109,5.73c1.114,2.979,8.466,8.88,20.153,10.911
		c13.737,2.387,19.674-0.683,21.702-3.106c1.013-2.735,1.774-6.658,1.774-6.658s-10.271,4.885-21.811,3.822
		C147.715,101.366,140.29,91.889,140.29,91.889z"/>
	<path style="fill:#67892D;" d="M120.023,73.752l-1.06,5.478c0.769,3.203,11.461,11.602,24.923,12.288
		c0.499-1.311,2.03-3.763,2.03-3.763L120.023,73.752z"/>
	<path style="fill:#67892D;" d="M204.167,88.767l-1.265,6.523c-1.174,3.184-14.738,5.846-23.316,2.164
		c-0.114-1.401-0.803-4.162-0.803-4.162L204.167,88.767z"/>
	<path style="fill:#D5E2A1;" d="M177.621,93.979c-1.706-1.971-4.216-2.826-6.095-3.553c-0.153,1.582-0.721,3.023-0.741,3.769
		c2.035,1.217,3.491,2.091,3.708,3.402L177.621,93.979z"/>
	<path style="fill:#D5E2A1;" d="M149.64,92.832c0.977-1.263,2.318-1.903,4.461-1.715l0.712-3.673c0,0-6.438,0.46-7.549,1.972
		L149.64,92.832z"/>
	<path style="fill:#D5E2A1;" d="M133.292,79.096c0.638-3.281,6.52-2.891,11.048-2.404c6.698,0.715,14.525,4.404,17.069,8.193
		c2.266-2.84,9.492-3.242,14.994-2.262c6.024,1.077,12.824,3.476,13.102,6.792c3.116,0.279,3.294-5.227,0.609-6.943
		c-3.995-2.556-13.452-5.114-19.822-5.065c-5.893,0.045-6.322,1.354-7.811,1.943c-2.899-2.903-11.586-6.141-17.312-6.937
		c-5.722-0.802-14.374-1.537-15.163,2.063C129.219,78.085,133.292,79.096,133.292,79.096z"/>
	<path style="fill:#8EB125;" d="M200.973,83.262c-11.246-8.581-31.739-8.801-38.634-5.786c-12.78-9.385-34.398-10.253-39.791-6.919
		c-8.547,5.292,5.736,14.458,22.444,17.188c-10.136,3.014-3.788,13.666,15.739,16.837c18.168,2.953,27.307-5,19.093-10.523
		C199.329,98.155,209.986,90.136,200.973,83.262L200.973,83.262z M161.823,100.154L161.823,100.154
		c-13.47-2.188-16.109-11.358-7.011-12.71c-12.513-0.203-27.434-8.756-20.489-12.823c3.479-2.031,23.254-0.074,27.58,7.72
		c0.436-4.865,18.775-3.949,26.8,1.812c6.564,4.715-3.8,10.288-17.177,6.272C179.36,95.182,174.359,102.196,161.823,100.154z"/>
	<path style="fill:#D5E2A1;" d="M132.722,82.142c-20.093-11.672,1.598-13.328,12.447-9.728
		C130.115,69.438,121.875,74.082,132.722,82.142z"/>
	<path style="fill:#D5E2A1;" d="M174.855,78.095c29.27,0.498,30.624,13.08,14.174,13.636
		C204.213,88.353,194.232,79.453,174.855,78.095z"/>
	<path style="fill:#D5E2A1;" d="M178.546,99.419c-11.48,10.344-36.331-0.737-33.652-6.002
		C146.4,99.953,167.823,105.857,178.546,99.419z"/>
</g>
<path style="fill:#FFD739;" d="M202.188,46.211C202.188,46.211,189,56,219,58s38.001,2.667,45.334,9.333s19.332,31.333,10.666,36
	s69.333,10,34-6C276.994,82.839,340.828,76.54,387,78c22.758,0.72-4.666-6.001-5.333-9.334s-6.667-29.333-70-23.333
	S202.708,47.09,202.188,46.211z"/>
<g>
	<path style="fill:#D5E2A1;" d="M357.644,21.491c-4.47-7.457-13.238-8.012-22.13-6.509c-10.414,3.935-19.116,5.931-15.273,13.739
		c-9.075,4.058-13.361,7.286-17.86,11.604c8.086,9.146,27.016,1.332,38.021-3.36c16.18,2.611,43.352-1.311,41.348-13.149
		C375.987,23.126,369.168,21.439,357.644,21.491L357.644,21.491z M370.433,31.601L370.433,31.601
		c-3.697,4.85-25.908,8.851-30.423,3.987c-2.543,5.017-22.562,10.826-30.513,7.795c-8.545-3.231,8.915-10.675,20.787-11.034
		c-0.099-0.707-0.504-2.434-0.754-2.964c-4.654-0.042-6.37-0.929-6.525-2.14c-0.42-3.261,5.003-6.469,14.735-8.328
		c5.267-1.004,13.624-0.707,14.847,2.536c0.379,0.999-1.716,2.427-5.076,4.029c0.146,0.669,0.615,2.409,0.754,2.974
		C359.188,24.137,374.955,25.671,370.433,31.601z"/>
	<path style="fill:#67892D;" d="M360.093,16.457l0.686,4.016c0,0,0.182,0.547-2.246,2.116c-2.427,1.564-3.162-1.098-3.162-1.098
		L360.093,16.457z"/>
	<path style="fill:#67892D;" d="M313.991,23.418l0.869,5.118c0,0,0.73,1.593,3.712,1.833c2.438,0.188,3.245-0.914,3.245-0.914
		L313.991,23.418z"/>
	<path style="fill:#67892D;" d="M294.182,41.712c0,0,1.001,3.707,1.339,5.833c0.297,1.777,8.13,5.151,19.892,3.676
		c11.858-1.485,23.089-5.571,25.165-8.63c4.419,2.823,16.793,1.728,24.639,0.165c10.321-2.055,19.069-5.691,21.117-10.204
		c-0.21-1.211-0.738-6.313-0.738-6.313s-7.517,7.329-21.578,10.211c-10.891,2.241-20.286,1.551-24.007-0.862
		c-3.474,3.572-11.485,7.743-25.428,9.41C299.271,46.816,294.182,41.712,294.182,41.712z"/>
	<path style="fill:#8EB125;" d="M383.99,30.026c7.426-8.762-12.272-10.906-25.566-8.863c7.64-9.622-11.778-12.466-24.274-9.976
		c-19.814,3.917-25.516,13.499-14.938,17.533c-16.468,1.734-33.179,11.891-20.8,16.585c11.526,4.388,37.661-1.871,41.49-7.617
		C350.282,43.218,378.05,37.044,383.99,30.026L383.99,30.026z M309.042,41.448L309.042,41.448
		c-8.543-3.24,8.606-11.709,20.488-12.063c-11.889-1.367-8.138-10.468,7.451-13.44c7.81-1.487,23.062,2.14,10.529,9.537
		c10.913-4.319,26.99-1.758,22.47,4.181c-3.697,4.845-25.908,8.856-30.431,3.983C337.01,38.661,316.991,44.47,309.042,41.448z"/>
	<path style="fill:#D5E2A1;" d="M319.201,22.539c5.388-12.386,30.306-11.794,33.216-7.539
		C344.03,10.896,325.885,14.282,319.201,22.539z"/>
	<path style="fill:#D5E2A1;" d="M369.403,22.919c27.736,3.226,1.97,14.629-15.422,13.562
		C376.207,34.904,385.558,25.968,369.403,22.919z"/>
	<path style="fill:#D5E2A1;" d="M327.081,42.375c-33.59,8.175-34.167-4.107-20.19-8.587
		C294.297,39.792,302.648,47.125,327.081,42.375z"/>
</g>
<g>
	<ellipse style="fill:#12100D;" cx="385.84" cy="35.22" rx="17.507" ry="11.113"/>
	<path style="fill:#24211F;" d="M400.144,28.809c2.019,1.812,3.203,4.018,3.203,6.411c0,6.139-7.839,11.113-17.506,11.113
		c-6.299,0-11.819-2.115-14.904-5.28C387.145,47.864,401.124,37.155,400.144,28.809z"/>
	<path style="fill:#FFFFFF;" d="M375.757,30.058c-4.551,2.708-4.38,0.253-1.462-1.584C376.705,26.961,378.535,28.403,375.757,30.058
		z"/>
</g>
<g>
	<path style="fill:#EAA871;" d="M358.729,37.177c0.172,6.806-19.686,12.715-43.961,12.768c-24.272,0.05-43.496-2.246-43.871-12.573
		c-0.251-6.799,21.937-12.163,46.197-13.009C338.238,23.626,358.517,29.001,358.729,37.177z"/>
	<path style="fill:#C51718;" d="M307.055,36.367c0,0-1.874-0.739-7.281-0.729c-5.412,0.013-9.81,0.02-11.839-0.257
		c-2.028-0.28-5.072-0.368-5.072-0.368s1.019,1.137,0.345,1.709c-0.68,0.574-1.689,2.001-0.671,2.664
		c1.015,0.665,3.722,2.467,5.413,2.655c1.69,0.187,5.752,1.034,6.769,1.89c1.016,0.853,3.723,1.988,5.752,2.078
		s9.469,0.172,10.484,0.552c1.017,0.374,4.733-0.489,6.421-0.492c1.691-0.006,6.354-0.484,6.354-0.484s0.408-0.865-2.64-2.57
		c-3.045-1.708-7.345-5.31-7.345-5.31s1.255,3.039,0.577,3.897c-0.671,0.856-1.685,1.812-1.685,1.812s-7.104-0.936-11.166-2.64
		c-4.06-1.702-8.463-4.167-8.463-4.167s3.384-0.011,5.751-0.016C301.125,36.588,307.055,36.367,307.055,36.367z"/>
	<path style="fill:#C51718;" d="M309.842,34.594c0,0-5.413-0.654-9.134-1.216s-7.777-1.504-9.81-2.359
		c-2.029-0.85-6.766-1.319-6.766-1.319s2.026-0.764,3.374-1.431c1.354-0.671,8.79-1.544,11.497-1.548
		c2.704-0.006,7.439-0.018,8.791-0.4c1.349-0.383,8.79-0.684,10.818-0.595c2.031,0.089,6.427,0.653,8.793,1.025
		c2.368,0.378,5.411,0.658,7.102,0.749c1.692,0.09,4.399,1.13,4.399,1.13s-2.029,0.386-4.393,1.247
		c-2.362,0.861-3.382,1.911-6.083,2.68C325.729,33.323,321,34,321,34s3.039-1.245,3.714-1.914c0.672-0.666,3.713-1.815,3.713-1.815
		s-3.379-0.086-6.764-0.554c-3.379-0.471-6.424-0.653-10.48-0.357C307.125,29.65,300.705,31,300.705,31s1.691,1.326,3.723,1.703
		C306.455,33.078,309.842,34.594,309.842,34.594z"/>
	<path style="fill:#C51718;" d="M322.022,38.277c0,0,4.734,1.225,7.783,2.172c3.043,0.946,5.069,1.512,6.76,0.648
		c1.691-0.858,0.674-1.616,2.024-2.095c1.354-0.479,2.366-1.337,2.366-1.909c-0.001-0.57-2.714-1.705-2.373-2.182
		c0.337-0.479-3.38,0.007-6.087,0.491c-2.702,0.479-6.086,0.678-7.102,0.585c-1.012-0.093-0.335-1.333,1.691-1.718
		c2.026-0.384,9.799-1.638,12.507-1.645c2.704-0.006,6.76-0.872,6.76-0.872s2.712,1.518,2.71,1.898
		c0.001,0.38,2.032,1.325,0.344,1.902c-1.693,0.573-0.335,1.426,0.679,1.618c1.014,0.186,1.696,1.898,0.345,2.469
		c-1.353,0.574-1.352,2.099-2.701,2.766c-1.353,0.669-4.056,0.771-6.42,1.348c-2.369,0.576-3.041,2.102-3.041,2.102
		s-3.72-0.945-7.104-1.886c-3.381-0.945-7.109-2.747-8.8-3.883C320.671,38.946,322.022,38.277,322.022,38.277z"/>
	<path style="fill:#F5A488;" d="M302.392,29.755c0,0-5.752-1.123-3.384-1.608C301.372,27.667,302.392,29.755,302.392,29.755z"/>
	<path style="fill:#F5A488;" d="M307.46,28.703c0,0,0.675-1.337-1.693-1.333C303.401,27.374,307.46,28.703,307.46,28.703z"/>
	<path style="fill:#F5A488;" d="M294.094,38.36c0,0-6.019-0.088-4.966,1.081C290.137,40.564,294.094,38.36,294.094,38.36z"/>
	<path style="fill:#F5A488;" d="M301.814,41.914c0,0-6.084,0.967-4.058,1.534C299.788,44.015,301.814,41.914,301.814,41.914z"/>
	<path style="fill:#F5A488;" d="M304.642,42.811c0,0-4.176,1.854-1.132,2.131C306.555,45.222,304.642,42.811,304.642,42.811z"/>
	<path style="fill:#F5A488;" d="M336.569,41.956c0,0-0.675,2,2.034,1.708C341.309,43.375,336.569,41.956,336.569,41.956z"/>
	<path style="fill:#F5A488;" d="M340.285,39.852c0,0,3.048,2.184,5.074,1.135C347.386,39.936,340.285,39.852,340.285,39.852z"/>
	<path style="fill:#F5A488;" d="M342.623,37.707c0,0,4.756-1.198,5.772-0.441C349.412,38.03,342.623,37.707,342.623,37.707z"/>
	<path style="fill:#F5A488;" d="M322.001,28.859c0,0-0.684-2.094,3.04-1.72C328.761,27.512,322.001,28.859,322.001,28.859z"/>
	<path style="fill:#AE1613;" d="M270.921,36.876c0.741,8.644,19.299,11.38,44.094,11.325c24.792-0.055,42.567-3.85,43.656-11.661
		l1.171,6.01c0.019,7.959-20.068,14.669-44.862,14.729c-24.794,0.047-44.907-6.357-44.794-14.215L270.921,36.876z"/>
</g>
<g style="opacity:0.76;">
	<path style="fill:#FFFFC0;" d="M188.414,52.865c-1.038,0.424-2.057,0.86-2.95,1.426c-0.89,0.519-1.674,1.327-1.579,1.911
		c0.044,0.588,0.731,1.374,1.528,1.964c0.784,0.617,1.713,1.191,2.638,1.712c1.841,1.086,3.773,1.99,5.788,2.671
		c2.021,0.646,4.133,1.125,6.368,1.017c-2.082,0.938-4.513,0.909-6.756,0.495c-2.272-0.419-4.421-1.325-6.403-2.454
		c-0.979-0.599-1.938-1.193-2.851-1.997c-0.445-0.405-0.876-0.854-1.248-1.402c-0.368-0.533-0.692-1.255-0.617-2.079
		c0.076-0.829,0.578-1.486,1.091-1.871c0.522-0.397,1.072-0.653,1.624-0.851C186.161,53.042,187.284,52.86,188.414,52.865z"/>
</g>
<g style="opacity:0.76;">
	<path style="fill:#FFFFC0;" d="M87.667,35.333c-2.947,0.523-5.938,1.041-8.546,2.145c-1.274,0.547-2.418,1.451-2.22,2.256
		c0.051,0.435,0.362,0.978,0.764,1.482c0.198,0.255,0.438,0.499,0.677,0.74c0.26,0.252,0.525,0.502,0.788,0.736
		c2.132,1.937,4.543,3.578,7.102,4.996c2.569,1.404,5.267,2.624,8.102,3.645c-3.024-0.177-5.999-1.004-8.806-2.207
		c-2.809-1.209-5.458-2.868-7.737-4.973c-0.29-0.27-0.562-0.538-0.833-0.812c-0.28-0.294-0.56-0.591-0.815-0.931
		c-0.504-0.664-1.013-1.461-1.081-2.535c-0.03-0.525,0.083-1.097,0.339-1.557c0.25-0.463,0.59-0.829,0.943-1.113
		c0.713-0.569,1.484-0.875,2.237-1.135c1.513-0.501,3.04-0.69,4.554-0.805C84.651,35.174,86.165,35.175,87.667,35.333z"/>
</g>
<g style="opacity:0.76;">
	<path style="fill:#FFFFC0;" d="M285,30c-1.384,0.519-2.737,1.073-4.036,1.709c-1.295,0.628-2.544,1.355-3.578,2.226
		c-1.03,0.878-1.726,1.974-1.521,2.995c0.19,1.051,1.049,2.095,2.094,3.013c2.041,1.852,4.515,3.228,7.197,4.085
		c2.688,0.854,5.557,1.287,8.511,1.307c-2.849,0.857-5.952,0.894-8.93,0.259c-2.982-0.643-5.853-2.07-8.123-4.205
		c-1.072-1.032-2.339-2.32-2.564-4.233c-0.108-0.94,0.174-1.923,0.658-2.655c0.488-0.74,1.121-1.287,1.768-1.744
		c1.301-0.912,2.729-1.458,4.154-1.903C282.065,30.43,283.523,30.126,285,30z"/>
</g>
<path style="fill:none;" d="M497.737,61.62c-0.261-0.211-0.795-0.767-1.523-2.027c-0.512-0.884-2.435-8.974-2.881-9.76
	c-19.285-15.803-61-27-115-31c-56.332-4.173-127.766-12.284-204.119-2.74c-41.168,5.147-135.837,15.677-145,55
	c-2.825,12.125,26.119,26.74,46.119,23.74c24.607-3.691,56.465,25.472,90,30.5c24.807,3.72,56.303,0.141,81.667,1.333
	c45.354,2.131,85.678,13.048,111.874-0.834L347,110l-18-32l156.23-9.798C493.372,60.719,496.94,61.284,497.737,61.62z"/>
<path style="fill:#F1AA4C;" d="M247,126.667c-25.364-1.192-56.86,2.386-81.667-1.333c-33.535-5.028-65.393-34.191-90-30.5
	c-20,3-48.944-11.615-46.119-23.74c9.163-39.323,103.832-49.853,145-55c76.354-9.544,147.787-1.433,204.119,2.74
	c54,4,99.93,16.88,110.667,33.833c-0.797-0.336-6,18,6.666,12c0,0,10.305-1.378,10.073-2.794c-0.654-4.004-3.177-7.865-5.406-10.027
	c-8.3-10.215-31.328-22.884-66-31.512c-24.588-6.119-55.219-6.745-83-13c-26.188-5.896-58.305-1.291-87-0.5
	c-43.328,1.193-82.73,0.043-118.055,5.616C70.705,24.372,19.449,45.991,18.177,75.909c-1.997,46.918,112.184,78.396,248.264,78.396
	c33.451,0,78.842-1.49,108.423-7.154c0,0-1.362-21.697-7.863-23.15C338.067,117.53,292.354,128.798,247,126.667z"/>
<path style="fill:#F1AA4C;" d="M497.737,61.62C497.967,61.806,497.984,61.724,497.737,61.62L497.737,61.62z"/>
<g>
	<path style="fill:#EAA871;" d="M446.479,55.599c0.172,6.806-19.686,12.715-43.961,12.768c-24.272,0.05-43.496-2.246-43.871-12.573
		c-0.251-6.799,21.937-12.163,46.197-13.009C425.988,42.047,446.267,47.423,446.479,55.599z"/>
	<path style="fill:#C51718;" d="M394.805,54.789c0,0-1.874-0.739-7.281-0.729c-5.412,0.013-9.81,0.02-11.839-0.257
		c-2.028-0.28-5.072-0.368-5.072-0.368s1.019,1.137,0.345,1.709c-0.68,0.574-1.689,2.001-0.671,2.664
		c1.015,0.665,3.722,2.467,5.413,2.655c1.69,0.187,5.752,1.034,6.769,1.89c1.016,0.853,3.723,1.988,5.752,2.078
		s9.469,0.172,10.484,0.552c1.017,0.374,4.733-0.489,6.421-0.492c1.691-0.006,6.354-0.484,6.354-0.484s0.408-0.865-2.64-2.57
		c-3.045-1.708-7.345-5.31-7.345-5.31s1.255,3.039,0.577,3.897c-0.671,0.856-1.685,1.812-1.685,1.812s-7.104-0.936-11.166-2.64
		c-4.06-1.702-8.463-4.167-8.463-4.167s3.384-0.011,5.751-0.016C388.875,55.01,394.805,54.789,394.805,54.789z"/>
	<path style="fill:#C51718;" d="M397.592,53.015c0,0-5.413-0.654-9.134-1.216s-7.777-1.504-9.81-2.359
		c-2.029-0.85-6.766-1.319-6.766-1.319s2.026-0.764,3.374-1.431c1.354-0.671,8.79-1.544,11.497-1.548
		c2.704-0.006,7.439-0.018,8.791-0.4c1.349-0.383,8.79-0.684,10.818-0.595c2.031,0.089,6.427,0.653,8.793,1.025
		c2.368,0.378,5.411,0.658,7.102,0.749c1.692,0.09,4.399,1.13,4.399,1.13s-2.029,0.386-4.393,1.247
		c-2.362,0.861-3.382,1.911-6.083,2.68c-2.703,0.767-7.432,1.443-7.432,1.443s3.039-1.245,3.714-1.914
		c0.672-0.666,3.713-1.815,3.713-1.815s-3.379-0.086-6.764-0.554c-3.379-0.471-6.424-0.653-10.48-0.357
		c-4.058,0.292-10.478,1.641-10.478,1.641s1.691,1.326,3.723,1.703C394.205,51.5,397.592,53.015,397.592,53.015z"/>
	<path style="fill:#C51718;" d="M409.772,56.699c0,0,4.734,1.225,7.783,2.172c3.043,0.946,5.069,1.512,6.76,0.648
		c1.691-0.858,0.674-1.616,2.024-2.095c1.354-0.479,2.366-1.337,2.366-1.909c-0.001-0.57-2.714-1.705-2.373-2.182
		c0.337-0.479-3.38,0.007-6.087,0.491c-2.702,0.479-6.086,0.678-7.102,0.585c-1.012-0.093-0.335-1.333,1.691-1.718
		c2.026-0.384,9.799-1.638,12.507-1.645c2.704-0.006,6.76-0.872,6.76-0.872s2.712,1.518,2.71,1.898
		c0.001,0.38,2.032,1.325,0.344,1.902c-1.693,0.573-0.335,1.426,0.679,1.618c1.014,0.186,1.696,1.898,0.345,2.469
		c-1.353,0.574-1.352,2.099-2.701,2.766c-1.353,0.669-4.056,0.771-6.42,1.348c-2.369,0.576-3.041,2.102-3.041,2.102
		s-3.72-0.945-7.104-1.886c-3.381-0.945-7.109-2.747-8.8-3.883C408.421,57.367,409.772,56.699,409.772,56.699z"/>
	<path style="fill:#F5A488;" d="M390.142,48.177c0,0-5.752-1.123-3.384-1.608C389.122,46.089,390.142,48.177,390.142,48.177z"/>
	<path style="fill:#F5A488;" d="M395.21,47.124c0,0,0.675-1.337-1.693-1.333C391.151,45.795,395.21,47.124,395.21,47.124z"/>
	<path style="fill:#F5A488;" d="M381.844,56.781c0,0-6.019-0.088-4.966,1.081C377.887,58.985,381.844,56.781,381.844,56.781z"/>
	<path style="fill:#F5A488;" d="M389.564,60.335c0,0-6.084,0.967-4.058,1.534C387.538,62.437,389.564,60.335,389.564,60.335z"/>
	<path style="fill:#F5A488;" d="M392.392,61.232c0,0-4.176,1.854-1.132,2.131C394.305,63.644,392.392,61.232,392.392,61.232z"/>
	<path style="fill:#F5A488;" d="M424.319,60.377c0,0-0.675,2,2.034,1.708C429.059,61.796,424.319,60.377,424.319,60.377z"/>
	<path style="fill:#F5A488;" d="M428.035,58.273c0,0,3.048,2.184,5.074,1.135C435.136,58.357,428.035,58.273,428.035,58.273z"/>
	<path style="fill:#F5A488;" d="M430.373,56.128c0,0,4.756-1.198,5.772-0.441C437.162,56.451,430.373,56.128,430.373,56.128z"/>
	<path style="fill:#F5A488;" d="M409.751,47.28c0,0-0.684-2.094,3.04-1.72C416.511,45.933,409.751,47.28,409.751,47.28z"/>
	<path style="fill:#AE1613;" d="M358.671,55.298c0.741,8.644,19.299,11.38,44.094,11.325c24.792-0.055,42.567-3.85,43.656-11.661
		l1.171,6.01c0.019,7.959-20.068,14.669-44.862,14.729c-24.794,0.047-44.907-6.357-44.794-14.215L358.671,55.298z"/>
</g>
<g>
	<path style="fill:#EAA871;" d="M267.85,58.778c-0.032,6.808-20.057,12.121-44.323,11.448c-24.263-0.675-43.408-3.545-43.475-13.878
		c-0.048-6.804,22.29-11.502,46.564-11.623C247.773,44.62,267.883,50.599,267.85,58.778z"/>
	<path style="fill:#C51718;" d="M216.223,56.424c0,0-1.851-0.794-7.255-0.946c-5.41-0.148-9.807-0.274-11.826-0.611
		c-2.019-0.341-5.06-0.52-5.06-0.52s0.984,1.167,0.295,1.719c-0.697,0.554-1.75,1.951-0.751,2.643
		c0.993,0.695,3.646,2.578,5.33,2.815c1.686,0.238,5.719,1.206,6.71,2.091c0.989,0.883,3.661,2.099,5.688,2.25
		c2.025,0.151,9.459,0.455,10.462,0.864c1.005,0.405,4.747-0.346,6.434-0.3c1.691,0.044,6.364-0.294,6.364-0.294
		s0.435-0.852-2.562-2.647c-2.992-1.798-7.181-5.527-7.181-5.527s1.162,3.075,0.46,3.912c-0.697,0.836-1.738,1.762-1.738,1.762
		s-7.073-1.147-11.083-2.973c-4.007-1.822-8.334-4.417-8.334-4.417s3.382,0.09,5.749,0.156
		C210.29,56.467,216.223,56.424,216.223,56.424z"/>
	<path style="fill:#C51718;" d="M219.063,54.734c0,0-5.392-0.815-9.096-1.488c-3.7-0.672-7.729-1.736-9.733-2.651
		c-2.004-0.91-6.724-1.52-6.724-1.52s2.048-0.704,3.415-1.33c1.374-0.63,8.833-1.28,11.539-1.204
		c2.703,0.074,7.437,0.204,8.799-0.137c1.359-0.343,8.807-0.421,10.831-0.271c2.027,0.149,6.404,0.844,8.758,1.288
		c2.356,0.449,5.39,0.819,7.076,0.96c1.689,0.141,4.363,1.261,4.363,1.261s-2.039,0.325-4.427,1.115
		c-2.387,0.79-3.438,1.809-6.16,2.496c-2.725,0.686-7.472,1.22-7.472,1.22s3.074-1.153,3.77-1.802
		c0.691-0.646,3.766-1.703,3.766-1.703s-3.375-0.187-6.744-0.755c-3.363-0.572-6.402-0.845-10.465-0.671
		c-4.066,0.17-10.523,1.327-10.523,1.327s1.651,1.376,3.671,1.813C215.723,53.118,219.063,54.734,219.063,54.734z"/>
	<path style="fill:#C51718;" d="M231.128,58.78c0,0,4.695,1.366,7.714,2.404c3.014,1.037,5.022,1.663,6.738,0.85
		c1.716-0.807,0.722-1.595,2.086-2.034c1.367-0.438,2.404-1.266,2.422-1.837c0.017-0.57-2.662-1.785-2.308-2.251
		c0.352-0.468-3.378-0.094-6.099,0.309c-2.714,0.398-6.104,0.495-7.115,0.373c-1.009-0.123-0.296-1.342,1.741-1.667
		c2.037-0.323,9.844-1.344,12.551-1.271c2.703,0.075,6.783-0.669,6.783-0.669s2.665,1.599,2.651,1.979
		c-0.01,0.38,1.992,1.385,0.288,1.911c-1.711,0.523-0.378,1.415,0.629,1.638c1.009,0.215,1.639,1.948,0.271,2.478
		c-1.369,0.533-1.414,2.057-2.783,2.684c-1.372,0.628-4.076,0.649-6.458,1.155c-2.384,0.505-3.102,2.009-3.102,2.009
		s-3.689-1.056-7.045-2.097c-3.352-1.046-7.023-2.958-8.68-4.145C229.757,59.408,231.128,58.78,231.128,58.78z"/>
	<path style="fill:#F5A488;" d="M211.761,49.676c0,0-5.717-1.294-3.336-1.709C210.804,47.558,211.761,49.676,211.761,49.676z"/>
	<path style="fill:#F5A488;" d="M216.857,48.775c0,0,0.715-1.317-1.652-1.382C212.84,47.326,216.857,48.775,216.857,48.775z"/>
	<path style="fill:#F5A488;" d="M203.208,58.028c0,0-6.013-0.268-4.995,0.931C199.188,60.113,203.208,58.028,203.208,58.028z"/>
	<path style="fill:#F5A488;" d="M210.819,61.811c0,0-6.109,0.785-4.102,1.413C208.731,63.851,210.819,61.811,210.819,61.811z"/>
	<path style="fill:#F5A488;" d="M213.619,62.792c0,0-4.229,1.728-1.195,2.096C215.458,65.26,213.619,62.792,213.619,62.792z"/>
	<path style="fill:#F5A488;" d="M245.559,62.892c0,0-0.734,1.979,1.981,1.769C250.253,64.452,245.559,62.892,245.559,62.892z"/>
	<path style="fill:#F5A488;" d="M249.335,60.9c0,0,2.981,2.274,5.038,1.286C256.431,61.196,249.335,60.9,249.335,60.9z"/>
	<path style="fill:#F5A488;" d="M251.735,58.825c0,0,4.79-1.055,5.782-0.268C258.513,59.351,251.735,58.825,251.735,58.825z"/>
	<path style="fill:#F5A488;" d="M231.387,49.365c0,0-0.62-2.114,3.091-1.628C238.184,48.221,231.387,49.365,231.387,49.365z"/>
	<path style="fill:#AE1613;" d="M180.09,55.853c0.482,8.663,18.951,11.951,43.736,12.638c24.782,0.686,42.664-2.577,43.984-10.351
		l0.991,6.042c-0.22,7.957-20.496,14.064-45.282,13.382c-24.783-0.694-44.696-7.696-44.349-15.547L180.09,55.853z"/>
</g>
<g style="opacity:0.76;">
	<path style="fill:#FFFFC0;" d="M370.206,52.667c-1.293,0.415-2.57,0.835-3.729,1.401c-0.576,0.274-1.121,0.612-1.518,0.983
		c-0.414,0.394-0.518,0.731-0.402,1.027c0.091,0.338,0.45,0.789,0.887,1.168c0.446,0.382,0.952,0.747,1.481,1.095
		c1.085,0.703,2.229,1.312,3.389,1.911c2.335,1.165,4.788,2.11,7.298,2.947c2.517,0.823,5.086,1.524,7.722,2.134
		c-2.712,0.158-5.436-0.151-8.105-0.698c-2.672-0.55-5.294-1.42-7.782-2.613c-1.248-0.583-2.448-1.291-3.601-2.069
		c-0.587-0.396-1.156-0.843-1.68-1.388c-0.505-0.551-1.063-1.177-1.251-2.17c-0.083-0.492,0.02-1.059,0.266-1.483
		c0.245-0.428,0.572-0.727,0.897-0.962c0.66-0.461,1.354-0.685,2.031-0.88C367.475,52.724,368.842,52.597,370.206,52.667z"/>
</g>
<g>
	<path style="fill:#67892D;" d="M243.183,86.308l0.868,5.771c2.046,2.437,10.946,5.543,22.641,3.554
		c13.745-2.338,18.315-7.215,19.418-10.176c0.041-2.916-0.551-6.868-0.551-6.868s-8.05,8.034-19.281,10.887
		C253.347,92.761,243.183,86.308,243.183,86.308z"/>
	<path style="fill:#67892D;" d="M218.022,75.982l0.831,5.517c1.794,2.763,14.678,7.108,27.596,3.258
		c0.032-1.402,0.656-4.225,0.656-4.225L218.022,75.982z"/>
	<path style="fill:#67892D;" d="M302.349,62.03l0.986,6.571c-0.043,3.393-11.939,10.433-21.255,9.827
		c-0.575-1.283-2.146-3.655-2.146-3.655L302.349,62.03z"/>
	<path style="fill:#D5E2A1;" d="M279.068,75.809c-2.267-1.288-4.918-1.256-6.932-1.313c0.384,1.542,0.33,3.091,0.561,3.8
		c2.324,0.467,3.988,0.805,4.631,1.968L279.068,75.809z"/>
	<path style="fill:#D5E2A1;" d="M252.311,84.074c0.498-1.517,1.55-2.568,3.632-3.106l-0.556-3.7c0,0-5.914,2.583-6.457,4.38
		L252.311,84.074z"/>
	<path style="fill:#D5E2A1;" d="M232.313,76.587c-0.494-3.306,5.18-4.902,9.611-5.956c6.552-1.563,15.162-0.701,18.825,2.021
		c1.187-3.434,7.864-6.227,13.378-7.14c6.038-0.998,13.249-1.007,14.617,2.026c3.03-0.778,1.359-6.027-1.744-6.748
		c-4.619-1.075-14.388-0.327-20.376,1.846c-5.539,2.01-5.507,3.387-6.713,4.44c-3.702-1.768-12.972-1.919-18.635-0.756
		c-5.661,1.155-14.062,3.352-13.604,7.009C228.137,76.995,232.313,76.587,232.313,76.587z"/>
	<path style="fill:#8EB125;" d="M297.499,57.909c-13.466-4.332-32.855,2.305-38.348,7.45c-15.181-4.578-35.848,1.824-39.816,6.768
		c-6.289,7.843,10.235,11.712,26.896,8.705c-8.547,6.227,0.993,14.146,20.459,10.614c18.11-3.285,24.068-13.833,14.481-16.296
		C300.924,72.495,308.291,61.377,297.499,57.909L297.499,57.909z M266.24,86.907L266.24,86.907
		c-13.427,2.437-18.978-5.325-10.854-9.639c-11.862,3.988-28.783,0.909-23.596-5.243c2.602-3.076,21.895-7.836,28.575-1.936
		c-1.215-4.73,16.378-9.993,25.866-7.243c7.762,2.252-0.146,10.966-14.096,11.649C281.109,76.363,278.738,84.645,266.24,86.907z"/>
	<path style="fill:#D5E2A1;" d="M232.794,79.648c-22.838-4.291-2.946-13.096,8.483-13.326
		C226.094,68.545,219.878,75.674,232.794,79.648z"/>
	<path style="fill:#D5E2A1;" d="M271.156,61.762c27.755-9.307,33.233,2.1,17.914,8.119C302.254,61.625,289.874,56.57,271.156,61.762
		z"/>
	<path style="fill:#D5E2A1;" d="M281.757,80.628c-7.366,13.584-34.491,11.44-33.725,5.582
		C251.636,91.868,273.8,90.278,281.757,80.628z"/>
</g>
<g>
	<path style="fill:#FEE27E;" d="M62.214,110.093c3.744-0.584,7.531-0.869,11.329-0.991c3.798-0.093,7.616-0.024,11.429,0.405
		c3.81,0.416,7.637,1.12,11.331,2.584c1.887,0.768,3.516,1.65,5.21,2.521l5.017,2.63c3.342,1.741,6.643,3.534,10.009,5.188
		c3.341,1.702,6.727,3.299,10.152,4.792c1.712,0.749,3.442,1.449,5.191,2.099c1.742,0.668,3.508,1.275,5.297,1.8
		c3.571,1.076,7.246,1.844,11.035,1.973c-3.763,0.573-7.641,0.198-11.396-0.493c-3.761-0.729-7.434-1.835-11.018-3.144
		c-3.589-1.3-7.079-2.833-10.524-4.438c-3.422-1.654-6.815-3.351-10.142-5.152l-4.979-2.692c-1.659-0.86-3.319-1.847-4.911-2.551
		c-1.64-0.721-3.382-1.282-5.158-1.742c-1.775-0.47-3.589-0.855-5.422-1.162C77.318,110.513,69.772,110.153,62.214,110.093z"/>
</g>
<g>
	<path style="fill:#FEE27E;" d="M193.214,141.093c6.798-1.183,13.649-2.083,20.532-2.71c6.882-0.652,13.8-1.008,20.75-0.982
		c6.949,0.052,13.96,0.691,20.791,1.782c6.849,1.049,13.609,2.278,20.371,3.229c3.382,0.472,6.769,0.842,10.157,1.124
		c3.388,0.301,6.782,0.481,10.179,0.535c3.397,0.06,6.794-0.037,10.189-0.19c1.699-0.084,3.393-0.201,5.093-0.345l5.159-0.42
		c6.886-0.498,13.777-0.92,20.679-1.156c6.9-0.235,13.811-0.376,20.719-0.126l-41.072,4.688l-5.129,0.585
		c-1.729,0.197-3.47,0.366-5.209,0.502c-3.481,0.287-6.978,0.375-10.472,0.357c-3.494-0.022-6.988-0.175-10.467-0.451
		c-3.479-0.292-6.939-0.726-10.379-1.231c-13.791-1.951-27.035-5.727-40.688-6.218c-6.829-0.366-13.702-0.295-20.575-0.108
		C206.971,140.192,200.09,140.541,193.214,141.093z"/>
</g>
<g>
	<path style="fill:#FFFFC0;" d="M241.667,137.333c9.897,1.75,19.845,3.137,29.812,4.181c9.966,0.991,19.983,1.657,29.943,1.227
		c2.5-0.1,4.938-0.351,7.462-0.588c2.509-0.227,5.02-0.425,7.531-0.599c5.023-0.354,10.055-0.551,15.084-0.694
		c10.061-0.251,20.128-0.126,30.167,0.474c-10.051,0.252-20.084,0.659-30.102,1.18c-5.01,0.253-10.012,0.597-15.009,0.971
		c-2.498,0.19-4.994,0.404-7.486,0.646c-2.475,0.265-5.04,0.479-7.562,0.575c-5.062,0.205-10.121,0.101-15.156-0.229
		c-5.037-0.312-10.053-0.83-15.046-1.497C261.323,141.646,251.419,139.781,241.667,137.333z"/>
</g>
<g style="opacity:0.76;">
	<path style="fill:#FFFFC0;" d="M136.333,106c-2.744,0.813-5.542,1.59-7.922,2.861c-0.576,0.319-1.11,0.713-1.447,1.108
		c-0.328,0.435-0.348,0.655-0.173,1.023c0.192,0.38,0.646,0.824,1.144,1.206c0.498,0.381,1.096,0.74,1.684,1.066
		c2.374,1.32,5.019,2.226,7.718,2.965c2.712,0.722,5.489,1.283,8.331,1.77c-2.87,0.372-5.79,0.25-8.666-0.212
		c-2.874-0.47-5.735-1.32-8.356-2.793c-0.651-0.382-1.275-0.771-1.904-1.269c-0.608-0.501-1.246-1.056-1.647-1.989
		c-0.194-0.459-0.29-1.056-0.148-1.606c0.127-0.555,0.436-0.982,0.744-1.315c0.637-0.658,1.359-1.002,2.055-1.317
		c1.404-0.605,2.84-0.909,4.271-1.154C133.449,106.127,134.888,105.988,136.333,106z"/>
</g>
<g>
	<path style="fill:#925F36;" d="M21.214,85.093c0.29,1.943,1.098,3.758,2.008,5.472c0.93,1.713,2.037,3.322,3.249,4.842
		c2.427,3.041,5.243,5.75,8.256,8.202c6.052,4.886,12.778,8.882,19.753,12.323c13.974,6.891,28.869,11.747,43.905,15.853
		c7.532,2.03,15.134,3.809,22.773,5.416c7.635,1.633,15.311,3.082,23.014,4.385c15.406,2.599,30.887,4.609,46.452,5.99
		c15.561,1.37,31.167,2.352,46.798,2.799c15.629,0.529,31.277,0.614,46.927,0.427c31.3-0.457,62.611-1.943,93.865-4.708
		c-15.487,2.558-31.103,4.289-46.737,5.758c-7.821,0.693-15.651,1.297-23.49,1.812c-7.84,0.48-15.688,0.864-23.539,1.159
		c-15.705,0.574-31.433,0.683-47.157,0.355c-15.72-0.414-31.447-1.171-47.12-2.674c-15.667-1.484-31.315-3.526-46.789-6.432
		c-7.741-1.419-15.458-2.986-23.137-4.739c-7.672-1.781-15.301-3.762-22.864-5.982c-7.563-2.217-15.058-4.698-22.412-7.565
		c-7.349-2.868-14.599-6.041-21.538-9.829c-6.923-3.792-13.641-8.077-19.535-13.375c-2.937-2.647-5.686-5.53-7.977-8.759
		c-1.14-1.616-2.167-3.313-3.005-5.101C22.095,88.934,21.389,87.054,21.214,85.093z"/>
</g>
<g>
	<path style="fill:#925F36;" d="M312.333,90.667c15.856-0.393,31.711-0.583,47.563-0.57c7.927-0.034,15.853,0.046,23.778,0.075
		l23.776,0.272l23.777,0.497c3.965,0.118,7.924,0.23,11.902,0.397c3.949,0.185,7.851,0.253,11.789,0.143
		c7.854-0.237,15.704-1.088,23.435-2.634C486.089,87.336,493.729,85.161,501,82c-3.479,1.912-7.163,3.442-10.904,4.788
		c-3.742,1.348-7.56,2.501-11.424,3.478c-7.741,1.908-15.672,3.093-23.653,3.536c-3.979,0.233-8.01,0.284-11.979,0.15
		c-3.942-0.095-7.908-0.137-11.867-0.183l-23.768-0.326l-23.77-0.432c-7.923-0.195-15.847-0.331-23.77-0.575
		C344.02,92.03,328.176,91.439,312.333,90.667z"/>
</g>
</svg>
