<?xml version="1.0" encoding="iso-8859-1"?>
<!-- Generator: Adobe Illustrator 21.1.0, SVG Export Plug-In . SVG Version: 6.00 Build 0)  -->
<svg version="1.1" id="Layer_1" xmlns="http://www.w3.org/2000/svg" xmlns:xlink="http://www.w3.org/1999/xlink" x="0px" y="0px"
	 viewBox="0 0 189.837 145.492" style="enable-background:new 0 0 189.837 145.492;" xml:space="preserve">
<g>
	<path style="fill:#9C9B9B;" d="M94.905,136.612c-28.795,0-52.765-8.627-57.99-20.037c0.339,13.284,26.166,26.196,57.99,26.196
		c31.826,0,57.653-12.912,57.988-26.196C146.822,125.885,123.7,136.612,94.905,136.612z"/>
	<path style="fill:#1D1D1B;" d="M94.905,136.662c-10.622,0.054-21.297-0.982-31.626-3.621c-5.152-1.338-10.231-3.076-14.985-5.548
		c-2.368-1.244-4.657-2.674-6.724-4.412c-2.053-1.736-3.917-3.8-5.098-6.303l0.93-0.216c0.097,2.716,1.294,5.312,2.983,7.489
		c1.69,2.195,3.819,4.05,6.096,5.672c4.589,3.227,9.78,5.561,15.104,7.384c10.688,3.622,22.028,5.211,33.32,5.264
		c11.292,0.004,22.647-1.521,33.374-5.1c5.34-1.814,10.551-4.142,15.172-7.373c2.293-1.626,4.442-3.487,6.158-5.704
		c1.71-2.197,2.955-4.837,3.042-7.625l0.444,0.138c-1.495,2.229-3.489,4.035-5.594,5.628c-2.117,1.59-4.383,2.961-6.72,4.186
		c-4.679,2.446-9.634,4.316-14.687,5.801C115.982,135.287,105.431,136.672,94.905,136.662z M94.905,136.562
		c10.517-0.026,21.049-1.446,31.132-4.44c5.031-1.516,9.953-3.432,14.586-5.904c2.312-1.238,4.551-2.621,6.63-4.212
		c2.067-1.592,4.014-3.396,5.439-5.562l0.462-0.704l-0.018,0.842c-0.062,2.928-1.365,5.675-3.104,7.937
		c-1.751,2.283-3.931,4.185-6.249,5.845c-4.672,3.299-9.919,5.667-15.294,7.52c-10.795,3.655-22.213,5.24-33.583,5.289
		c-11.37,0.008-22.804-1.515-33.638-5.127c-5.39-1.845-10.657-4.205-15.361-7.51c-2.335-1.663-4.535-3.571-6.312-5.876
		c-1.76-2.282-3.112-5.072-3.166-8.071l0.93-0.216c1.06,2.338,2.805,4.346,4.772,6.055c1.979,1.712,4.202,3.148,6.516,4.406
		c4.647,2.5,9.663,4.302,14.767,5.702C73.651,135.297,84.291,136.475,94.905,136.562z"/>
</g>
<linearGradient id="SVGID_1_" gradientUnits="userSpaceOnUse" x1="3.979" y1="37.9196" x2="184.4784" y2="37.9196">
	<stop  offset="0.0056" style="stop-color:#B0BFC4;stop-opacity:0.6"/>
	<stop  offset="0.2191" style="stop-color:#EEF0F1;stop-opacity:0.6"/>
	<stop  offset="0.3587" style="stop-color:#F5F7F7;stop-opacity:0.6"/>
	<stop  offset="0.4663" style="stop-color:#FFFFFF;stop-opacity:0.6"/>
	<stop  offset="1" style="stop-color:#D1D4D4;stop-opacity:0.6"/>
</linearGradient>
<path style="opacity:0.49;fill:url(#SVGID_1_);" d="M178.489,48.591c-13.058,15.643-46.149,24.428-83.501,24.428
	c-43.987,0-80.715-13.69-89.25-29.806c-1.221-2.305-1.5-1.834-1.5-4.375c0-1.008-0.401-1.237-0.205-2.224
	C7.8,17.697,46.985,2.82,94.769,2.82c41.626,0,76.587,11.226,87.448,26.762C185.822,34.737,185.489,40.206,178.489,48.591z"/>
<path style="fill:none;stroke:#000000;stroke-miterlimit:3.8637;" d="M178.489,48.591c-13.058,15.643-46.149,24.428-83.501,24.428
	c-43.987,0-80.715-13.69-89.25-29.806c-1.221-2.305-1.5-1.834-1.5-4.375c0-1.008-0.401-1.237-0.205-2.224
	C7.8,17.697,46.985,2.82,94.769,2.82c41.626,0,76.587,11.226,87.448,26.762C185.822,34.737,185.489,40.206,178.489,48.591z"/>
<g>
	<path style="fill:#BD1622;" d="M25.489,45.31c3.572-2.592,0.814-4.218,11.333-6.564c34.333-7.656,21.667,5.834,38,1.459
		c3.793-1.017,25.185,4.4,33.666-3.282c7.17-6.494,28.679-4.378,38.667-0.364c4.869,1.957,1.539,5.982,3,6.564
		c14.666,5.833,13.956,5.933,20.333,6.562c24,2.37,13.378,31.809,3.167,47.943c-10.5,16.59-38.633,42.197-80.167,41.018
		c-38.5-1.094-66.333-19.688-79.833-45.393S6.489,53.149,9.489,46.04C11.199,41.987,23.558,46.711,25.489,45.31z"/>
	<g>
		<path style="fill:#1D1D1B;" d="M25.459,45.27c0.495-0.361,0.952-0.769,1.348-1.233c0.4-0.461,0.724-0.982,1.101-1.475
			c0.741-1.012,1.853-1.673,2.981-2.151c2.283-0.95,4.699-1.488,7.096-2.021c4.804-1.036,9.651-1.982,14.589-2.226
			c2.46-0.099,4.973-0.037,7.389,0.661c1.204,0.347,2.358,0.896,3.399,1.584c1.047,0.678,1.999,1.451,3.094,1.883
			c2.21,0.874,4.726,0.418,7.065-0.116c0.604-0.121,1.14-0.345,1.841-0.418c0.648-0.06,1.271-0.044,1.893-0.019
			c1.242,0.055,2.468,0.167,3.693,0.275c4.891,0.447,9.787,0.888,14.66,0.613c4.825-0.299,9.813-1.228,13.388-4.683
			c2.093-1.5,4.543-2.262,6.97-2.777c2.443-0.501,4.923-0.715,7.397-0.781c4.951-0.108,9.894,0.361,14.748,1.278
			c2.426,0.466,4.833,1.052,7.187,1.834c0.588,0.196,1.172,0.407,1.75,0.636c0.574,0.218,1.188,0.505,1.708,0.904
			c0.529,0.395,0.992,0.934,1.246,1.572c0.261,0.637,0.309,1.325,0.266,1.964c-0.034,0.637-0.18,1.271-0.178,1.803
			c0.003,0.128,0.022,0.243,0.056,0.309c0.037,0.067,0.055,0.088,0.157,0.131l0.855,0.346l3.416,1.39
			c2.277,0.926,4.546,1.874,6.828,2.771c1.142,0.444,2.288,0.877,3.455,1.214c1.165,0.342,2.363,0.55,3.578,0.699
			c1.213,0.16,2.437,0.24,3.668,0.441c1.223,0.199,2.435,0.486,3.608,0.897c2.343,0.81,4.544,2.171,6.144,4.1
			c1.614,1.916,2.57,4.307,3.006,6.74c0.445,2.443,0.42,4.941,0.162,7.392c-0.254,2.456-0.755,4.879-1.4,7.257
			c-1.304,4.757-3.167,9.341-5.35,13.754c-2.202,4.401-4.695,8.68-7.686,12.605c-2.976,3.933-6.323,7.574-9.917,10.946
			c-14.357,13.48-32.94,22.646-52.598,25.037c-9.815,1.246-19.774,0.837-29.521-0.648c-9.752-1.515-19.323-4.376-28.213-8.708
			c-4.44-2.17-8.712-4.694-12.717-7.595c-3.992-2.917-7.734-6.177-11.136-9.76c-3.408-3.576-6.482-7.467-9.168-11.608
			c-2.696-4.138-4.959-8.537-6.913-13.06c-1.939-4.529-3.491-9.243-4.386-14.098c-0.896-4.846-1.11-9.846-0.366-14.728
			c0.366-2.438,0.965-4.841,1.766-7.171c0.398-1.166,0.845-2.314,1.318-3.449l0.727-1.7c0.281-0.59,0.841-0.985,1.421-1.208
			c1.186-0.438,2.453-0.427,3.678-0.369c1.232,0.07,2.453,0.238,3.668,0.426l3.64,0.581c0.607,0.086,1.216,0.164,1.827,0.199
			C24.292,45.528,24.952,45.575,25.459,45.27z M25.519,45.35c-0.567,0.339-1.223,0.279-1.83,0.271
			c-0.617-0.032-1.229-0.108-1.838-0.191l-3.644-0.562c-1.214-0.181-2.432-0.342-3.655-0.405c-1.214-0.052-2.472-0.052-3.604,0.376
			c-0.555,0.217-1.067,0.589-1.318,1.124l-0.71,1.695c-0.464,1.137-0.901,2.283-1.289,3.446c-0.781,2.324-1.358,4.715-1.705,7.14
			c-0.704,4.853-0.457,9.811,0.468,14.616c0.922,4.812,2.498,9.484,4.457,13.975c3.903,8.995,9.365,17.308,16.219,24.298
			c3.41,3.507,7.149,6.687,11.127,9.522c3.971,2.848,8.179,5.364,12.572,7.511c8.788,4.296,18.261,7.142,27.928,8.655
			c9.67,1.484,19.551,1.901,29.259,0.678c9.707-1.213,19.215-3.981,28.074-8.147c8.86-4.168,17.072-9.722,24.273-16.373
			c3.592-3.333,6.942-6.937,9.922-10.828c2.996-3.88,5.491-8.127,7.701-12.504c2.19-4.386,4.064-8.944,5.378-13.669
			c1.28-4.702,2.096-9.676,1.226-14.5c-0.44-2.39-1.386-4.713-2.96-6.562c-1.559-1.862-3.698-3.173-5.993-3.953
			c-1.149-0.396-2.338-0.673-3.542-0.863c-1.196-0.192-2.43-0.262-3.655-0.407c-1.225-0.136-2.46-0.334-3.659-0.671
			c-1.199-0.331-2.361-0.756-3.514-1.189c-2.303-0.876-4.581-1.794-6.867-2.696l-3.428-1.353l-0.858-0.337
			c-0.186-0.06-0.426-0.246-0.517-0.461c-0.102-0.212-0.12-0.41-0.127-0.588c0.002-0.698,0.146-1.272,0.171-1.864
			c0.109-1.171-0.302-2.27-1.248-2.932c-0.907-0.672-2.122-1.008-3.261-1.418c-2.315-0.759-4.698-1.327-7.1-1.778
			c-4.806-0.887-9.707-1.33-14.585-1.2c-2.437,0.075-4.873,0.298-7.246,0.795c-2.356,0.508-4.708,1.268-6.622,2.657
			c-0.458,0.323-0.903,0.775-1.413,1.164c-0.504,0.392-1.037,0.743-1.59,1.055c-1.11,0.616-2.29,1.083-3.492,1.438
			c-2.409,0.709-4.896,1.016-7.369,1.147c-4.957,0.248-9.888-0.229-14.774-0.708c-1.222-0.115-2.443-0.234-3.657-0.295
			c-0.605-0.028-1.214-0.046-1.791,0.006c-0.526,0.042-1.153,0.268-1.754,0.385c-1.21,0.273-2.441,0.492-3.698,0.557
			c-1.25,0.063-2.56-0.053-3.752-0.555c-1.198-0.493-2.167-1.31-3.173-1.973c-1.003-0.678-2.086-1.208-3.241-1.557
			c-2.315-0.697-4.789-0.802-7.226-0.743c-4.894,0.171-9.758,1.005-14.562,2.007c-2.397,0.517-4.811,1.037-7.08,1.965
			c-1.123,0.468-2.208,1.104-2.941,2.09c-0.374,0.48-0.705,1.005-1.114,1.471C26.488,44.579,26.018,44.991,25.519,45.35z"/>
	</g>
</g>
<path style="opacity:0.67;fill:#9D1622;" d="M15.322,49.412c3.572-2.592-6.333,27.982,3.166,22.514
	c9.5-5.47,10.667,6.745,23.667,23.151c2.558,3.229,25.5,9.298,36.5,8.751c11-0.547,26.833,9.479,27.833,17.5
	c2.108,16.913,27.305-10.268,33.667-9.479c26.5,3.281,46.333-40.104,35.333-17.683c-6.521,13.295-33.333,45.758-82.167,44.299
	c-38.499-1.15-65-19.688-78.5-43.024C1.142,71.796,3.489,53.879,6.489,46.769C8.199,42.716,13.391,50.812,15.322,49.412z"/>
<linearGradient id="SVGID_2_" gradientUnits="userSpaceOnUse" x1="4887.3413" y1="87.6866" x2="5070.1245" y2="87.6867" gradientTransform="matrix(-1 0 0 1 5073.6528 0)">
	<stop  offset="0" style="stop-color:#A8B8C9"/>
	<stop  offset="0.2697" style="stop-color:#EEF0F1"/>
	<stop  offset="0.4329" style="stop-color:#E7E9EB"/>
	<stop  offset="0.6784" style="stop-color:#D2D7DC"/>
	<stop  offset="0.9746" style="stop-color:#B0B8C2"/>
	<stop  offset="0.9775" style="stop-color:#B0B8C2"/>
</linearGradient>
<path style="opacity:0.2;fill:url(#SVGID_2_);" d="M3.584,55.4c0,46.019,40.903,83.327,91.363,83.327
	c50.459,0,91.363-37.308,91.363-83.327c0-4.882-0.885-10.459-1.821-17.017c-6,19.688-42.613,34.552-88.709,34.552
	c-46.098,0-89.763-15.177-91.635-36.293C3.264,41.294,3.584,50.518,3.584,55.4z"/>
<path style="opacity:0.36;fill:#FFFFFF;" d="M152.533,109.594c-15.158,14.022-36.039,22.988-59.242,23.667
	c1.172,0.045,2.348,0.067,3.531,0.067c24.34,0.006,46.307-9.139,62.083-23.734c7.888-7.295,14.232-15.945,18.59-25.479
	c4.36-9.539,6.753-19.957,6.753-30.911c0.004-2.426-0.797-8.41-0.76-11.904c-1.887,1.937-3.136,6.49-5.56,8.312
	c-0.028,1.323-0.051,2.545-0.051,3.593c-0.002,10.954-2.395,21.372-6.757,30.911C166.763,93.649,160.424,102.299,152.533,109.594z"
	/>
<path style="opacity:0.57;fill:#FFFFFF;" d="M7.766,46.939c0.016,1.502,0.026,0.712,0.026,1.917
	c0.006,11.926,2.484,23.27,7.008,33.656c6.778,15.568,18.193,28.974,32.688,38.481c14.493,9.505,32.04,15.1,50.971,15.097
	c3.177,0,6.313-0.156,9.401-0.462c-15.384-1.506-29.612-6.699-41.713-14.635c-14.495-9.508-25.911-22.913-32.69-38.481
	c-3.396-7.807-5.644-13.969-6.551-22.699c-6.357-2.829-11.865-6.134-16.27-10.025C9.611,48.878,8.669,47.922,7.766,46.939z"/>
<path style="opacity:0.38;fill:#FFFFFF;" d="M14.873,54.032c0.038,7.331,0.939,12.677,2.809,20.197
	c1.066,4.28,2.407,8.367,3.974,12.26l32.962,9.859c-2.322-5.043-4.24-10.464-5.672-16.22c-1.279-5.126-2.098-8.071-2.507-13.141
	C33.485,63.916,22.494,59.537,14.873,54.032z M57.108,101.291l-33.337-9.97c12.573,26.531,36.438,42.132,59.953,38.101
	C73.188,123.493,63.861,113.761,57.108,101.291z"/>
<g style="opacity:0.67;">
	<path style="fill:#9D1622;" d="M84.589,44.557c-0.983,0.074-1.83,0.585-2.516,1.196c-0.694,0.616-1.242,1.377-1.692,2.186
		c-0.931,1.607-1.465,3.426-1.917,5.246c-0.216,0.917-0.395,1.844-0.538,2.78c-0.081,0.472-0.11,0.908-0.243,1.493
		c-0.115,0.528-0.261,1.021-0.411,1.513c-0.61,1.951-1.373,3.812-2.252,5.637c-0.875,1.825-1.908,3.586-3.126,5.258
		c-1.22,1.668-2.623,3.265-4.378,4.605c-1.73,1.338-3.97,2.37-6.42,2.468c-2.454,0.115-4.804-0.776-6.649-1.998
		c-0.234-0.152-0.462-0.311-0.686-0.473l-0.375-0.283c-0.102-0.085-0.164-0.128-0.332-0.279c-0.545-0.496-0.897-0.916-1.247-1.382
		c-0.673-0.912-1.198-1.817-1.691-2.72c-0.973-1.804-1.789-3.601-2.608-5.368c-0.826-1.758-1.61-3.517-2.469-5.134
		c-0.43-0.796-0.898-1.571-1.371-2.134c-0.225-0.277-0.477-0.486-0.556-0.528c-0.039-0.023-0.006-0.007,0.07-0.013
		c0.077-0.004,0.151-0.042,0.139-0.044c-0.268,0.148-0.812,0.487-1.312,0.722c-0.491,0.234-0.993,0.454-1.515,0.636
		c-1.039,0.368-2.143,0.62-3.27,0.687c-2.267,0.179-4.528-0.546-6.311-1.704c-1.812-1.15-3.194-2.728-4.346-4.368
		c-1.121-1.672-2.027-3.455-2.628-5.331c1.073,1.642,2.282,3.165,3.628,4.508c1.321,1.358,2.837,2.488,4.429,3.251
		c1.605,0.755,3.308,0.995,4.927,0.736c0.812-0.128,1.608-0.391,2.375-0.75c0.384-0.176,0.759-0.386,1.127-0.607
		c0.362-0.222,0.639-0.408,1.201-0.769c0.409-0.243,0.962-0.43,1.527-0.436c0.565-0.011,1.078,0.141,1.477,0.327
		c0.799,0.389,1.271,0.863,1.695,1.306c0.819,0.9,1.382,1.792,1.922,2.682c1.062,1.775,1.921,3.554,2.76,5.316
		c0.843,1.755,1.669,3.495,2.571,5.108c0.451,0.801,0.924,1.575,1.419,2.223c0.235,0.312,0.515,0.64,0.689,0.8
		c0.008,0.018,0.14,0.123,0.224,0.195l0.208,0.158c0.169,0.125,0.339,0.247,0.512,0.363c1.379,0.932,2.86,1.469,4.327,1.423
		c1.471-0.028,2.951-0.662,4.344-1.619c2.803-1.967,5.007-5.11,6.875-8.325c0.926-1.627,1.762-3.333,2.433-5.061
		c0.167-0.431,0.318-0.865,0.45-1.279c0.118-0.356,0.241-0.885,0.385-1.36c0.277-0.966,0.592-1.925,0.948-2.87
		c0.711-1.89,1.664-3.726,2.956-5.328c0.667-0.782,1.435-1.498,2.328-2.017C82.562,44.696,83.609,44.365,84.589,44.557z"/>
</g>
<path style="fill:none;stroke:#1D1D1B;stroke-linecap:round;stroke-linejoin:round;stroke-miterlimit:3.8637;" d="M3.584,55.4
	c0,46.019,40.903,83.327,91.363,83.327c50.459,0,91.363-37.308,91.363-83.327c0-4.882-0.605-14.571-1.541-21.13
	c-2.947,25.624-42.894,38.665-88.989,38.665c-46.098,0-89.763-15.177-91.635-36.293C3.264,41.294,3.584,50.518,3.584,55.4z"/>
<g style="opacity:0.67;">
	<path style="fill:#9D1622;" d="M102.156,43.123c-1.474,0.9-2.879,1.873-4.147,2.936c-0.632,0.53-1.219,1.1-1.713,1.699
		c-0.502,0.585-0.913,1.218-1.108,1.823c-0.869,2.249,2.132,4.099,4.946,5.428c1.458,0.655,2.991,1.234,4.549,1.771l0.553,0.183
		c0.199,0.063,0.424,0.141,0.565,0.174c0.302,0.089,0.689,0.174,1.036,0.237c0.713,0.134,1.444,0.187,2.184,0.186
		c2.98,0.01,6.014-1.035,9.213-2.205c0.808-0.294,1.636-0.589,2.53-0.843c0.896-0.25,1.841-0.5,3.003-0.526
		c0.578-0.007,1.227,0.056,1.891,0.285c0.664,0.229,1.304,0.658,1.767,1.161c0.929,1.032,1.246,2.121,1.478,3.088
		c0.116,0.479,0.172,1,0.22,1.41c0.031,0.253,0.038,0.33,0.069,0.487c0.028,0.141,0.061,0.271,0.098,0.376
		c0.076,0.215,0.147,0.304,0.166,0.333c0.017,0.028,0.076,0.08,0.288,0.09c0.424,0.021,1.144-0.21,1.809-0.533
		c0.681-0.324,1.367-0.743,2.052-1.179c2.743-1.79,5.314-4.044,7.915-6.233c1.289-1.114,2.583-2.232,3.908-3.324
		c0.662-0.547,1.324-1.095,2.023-1.603c0.348-0.255,0.703-0.505,1.076-0.729c0.187-0.111,0.379-0.218,0.589-0.292
		c0.104-0.036,0.216-0.067,0.333-0.057c0.128,0.006,0.209,0.128,0.209,0.233c-0.058-0.26-0.335-0.167-0.49-0.062
		c-0.176,0.106-0.341,0.237-0.501,0.374c-0.317,0.276-0.617,0.577-0.911,0.883c-0.584,0.617-1.158,1.245-1.727,1.88
		c-1.132,1.276-2.258,2.562-3.42,3.823c-2.309,2.541-4.684,5.023-7.46,7.26c-0.7,0.559-1.443,1.08-2.272,1.552
		c-0.841,0.454-1.73,0.926-3.021,1.035c-0.636,0.046-1.456-0.075-2.149-0.532c-0.693-0.452-1.118-1.1-1.373-1.666
		c-0.13-0.288-0.223-0.567-0.3-0.839c-0.074-0.257-0.139-0.6-0.171-0.769c-0.081-0.433-0.156-0.756-0.253-1.103
		c-0.179-0.675-0.469-1.252-0.725-1.469c-0.236-0.2-0.424-0.263-1.002-0.24c-1.146,0.08-2.742,0.756-4.295,1.345
		c-3.144,1.241-6.669,2.584-10.568,2.583c-0.966-0.006-1.944-0.086-2.907-0.273c-0.49-0.096-0.938-0.195-1.454-0.35
		c-0.272-0.075-0.45-0.141-0.656-0.208c-0.279-0.092-0.433-0.159-0.655-0.24c-1.649-0.624-3.284-1.331-4.87-2.221
		c-1.574-0.9-3.183-1.875-4.515-3.438c-0.656-0.775-1.27-1.729-1.528-2.897c-0.283-1.168-0.015-2.449,0.518-3.375
		c1.082-1.88,2.693-2.871,4.258-3.699C98.799,44.047,100.458,43.476,102.156,43.123z"/>
</g>
</svg>
