<?xml version="1.0" encoding="iso-8859-1"?>
<!-- Generator: Adobe Illustrator 21.1.0, SVG Export Plug-In . SVG Version: 6.00 Build 0)  -->
<svg version="1.1" id="Layer_1" xmlns="http://www.w3.org/2000/svg" xmlns:xlink="http://www.w3.org/1999/xlink" x="0px" y="0px"
	 viewBox="0 0 189.837 145.492" style="enable-background:new 0 0 189.837 145.492;" xml:space="preserve">
<g>
	<path style="fill:#9C9B9B;" d="M94.905,136.612c-28.795,0-52.765-8.627-57.99-20.037c0.339,13.284,26.166,26.196,57.99,26.196
		c31.826,0,57.653-12.912,57.988-26.196C146.822,125.885,123.7,136.612,94.905,136.612z"/>
	<path style="fill:#1D1D1B;" d="M94.905,136.662c-10.622,0.054-21.297-0.982-31.626-3.621c-5.152-1.338-10.231-3.076-14.985-5.548
		c-2.368-1.244-4.657-2.674-6.724-4.412c-2.053-1.736-3.917-3.8-5.098-6.303l0.93-0.216c0.097,2.716,1.294,5.312,2.983,7.489
		c1.69,2.195,3.819,4.05,6.096,5.672c4.589,3.227,9.78,5.561,15.104,7.384c10.688,3.622,22.028,5.211,33.32,5.264
		c11.292,0.004,22.647-1.521,33.374-5.1c5.34-1.814,10.551-4.142,15.172-7.373c2.293-1.626,4.442-3.487,6.158-5.704
		c1.71-2.197,2.955-4.837,3.042-7.625l0.444,0.138c-1.495,2.229-3.489,4.035-5.594,5.628c-2.117,1.59-4.383,2.961-6.72,4.186
		c-4.679,2.446-9.634,4.316-14.687,5.801C115.982,135.287,105.431,136.672,94.905,136.662z M94.905,136.562
		c10.517-0.026,21.049-1.446,31.132-4.44c5.031-1.516,9.953-3.432,14.586-5.904c2.312-1.238,4.551-2.621,6.63-4.212
		c2.067-1.592,4.014-3.396,5.438-5.562l0.462-0.704l-0.018,0.842c-0.062,2.928-1.365,5.675-3.104,7.937
		c-1.751,2.283-3.931,4.185-6.25,5.845c-4.672,3.299-9.919,5.667-15.293,7.52c-10.795,3.655-22.213,5.24-33.583,5.289
		c-11.37,0.008-22.804-1.515-33.638-5.127c-5.39-1.845-10.657-4.205-15.361-7.51c-2.335-1.663-4.535-3.571-6.312-5.876
		c-1.76-2.282-3.112-5.072-3.166-8.071l0.93-0.216c1.06,2.338,2.805,4.346,4.772,6.055c1.979,1.712,4.202,3.148,6.516,4.406
		c4.647,2.5,9.663,4.302,14.768,5.702C73.651,135.297,84.291,136.475,94.905,136.562z"/>
</g>
<linearGradient id="SVGID_1_" gradientUnits="userSpaceOnUse" x1="3.979" y1="37.9196" x2="184.4784" y2="37.9196">
	<stop  offset="0.0056" style="stop-color:#B0BFC4;stop-opacity:0.6"/>
	<stop  offset="0.2191" style="stop-color:#EEF0F1;stop-opacity:0.6"/>
	<stop  offset="0.3587" style="stop-color:#F5F7F7;stop-opacity:0.6"/>
	<stop  offset="0.4663" style="stop-color:#FFFFFF;stop-opacity:0.6"/>
	<stop  offset="1" style="stop-color:#D1D4D4;stop-opacity:0.6"/>
</linearGradient>
<path style="opacity:0.49;fill:url(#SVGID_1_);stroke:#000000;stroke-miterlimit:3.8637;" d="M178.489,48.591
	c-13.058,15.643-46.149,24.428-83.501,24.428c-43.987,0-80.715-13.69-89.25-29.806c-1.221-2.305-1.5-1.834-1.5-4.375
	c0-1.008-0.401-1.237-0.205-2.224C7.8,17.697,46.985,2.82,94.769,2.82c41.626,0,76.587,11.226,87.448,26.762
	C185.822,34.737,185.489,40.206,178.489,48.591z"/>
<g>
	<path style="fill:#FFFF00;" d="M50.489,97c7.333,1.333,14.285,2.743,16.333,2.334c18.334-3.667,10.413,6.356,27,3.333
		c12-2.188,32.346-12.347,42.334-8.333c4.869,1.957,14.631,0.722,21,0c14.5-1.641,26.712-12.839,16.5,3.295
		c-10.5,16.59-38.633,42.197-80.167,41.018c-38.5-1.094-66.333-19.688-79.833-45.393s7.205,3.811,13.5,0.08
		C39.156,86.224,48.022,96.551,50.489,97z"/>
	<g>
		<path style="fill:#1D1D1B;" d="M50.498,96.951c3.986,0.703,7.959,1.492,11.963,2.06c1.001,0.135,2.006,0.256,3.011,0.295
			c1.008,0.086,1.973-0.222,2.983-0.378c1.996-0.346,4.02-0.615,6.064-0.561c2.033,0.027,4.132,0.544,5.854,1.7
			c0.867,0.551,1.667,1.169,2.532,1.643c0.862,0.48,1.791,0.813,2.759,0.989c1.941,0.355,3.961,0.206,5.938-0.063
			c1.988-0.273,3.951-0.691,5.893-1.217c3.889-1.047,7.717-2.359,11.566-3.617c3.848-1.26,7.728-2.459,11.685-3.409
			c3.949-0.908,8.028-1.676,12.157-1.225c1.026,0.121,2.049,0.344,3.032,0.701c0.958,0.394,1.856,0.643,2.852,0.821
			c1.961,0.338,3.979,0.407,5.99,0.385c8.034-0.338,16.229-0.865,23.799-3.807c1.915-0.651,3.787-1.418,5.734-2.021
			c0.489-0.145,0.984-0.279,1.501-0.354c0.258-0.036,0.523-0.058,0.799-0.028c0.267,0.029,0.585,0.122,0.784,0.385
			c0.364,0.556,0.18,1.136,0.064,1.624c-0.143,0.503-0.341,0.978-0.553,1.442c-0.866,1.853-1.93,3.582-2.999,5.305
			c-1.078,1.719-2.246,3.386-3.473,5.001c-4.938,6.449-10.812,12.153-17.255,17.09c-6.451,4.932-13.521,9.065-21.014,12.224
			c-7.487,3.172-15.406,5.329-23.472,6.406c-8.07,1.104-16.26,1.038-24.344,0.219c-16.152-1.639-32.11-6.898-45.504-16.231
			c-6.663-4.68-12.649-10.327-17.63-16.757c-5.004-6.431-8.913-13.612-11.956-21.154c-0.136-0.501-0.344-0.966-0.241-1.595
			c0.025-0.164,0.222-0.372,0.422-0.375c0.185-0.014,0.325,0.036,0.456,0.085c0.259,0.104,0.48,0.242,0.697,0.386
			c0.853,0.583,1.612,1.255,2.378,1.919c1.523,1.337,3.01,2.708,4.56,4.006c1.552,1.29,3.143,2.551,4.888,3.56
			c0.873,0.492,1.792,0.938,2.775,1.117c0.488,0.086,0.996,0.094,1.465-0.052c0.462-0.148,0.874-0.474,1.333-0.689
			c1.792-0.954,3.746-1.625,5.765-1.882c2.017-0.261,4.083-0.092,6.04,0.449c1.963,0.531,3.813,1.412,5.551,2.451
			c0.871,0.52,1.714,1.082,2.551,1.651C48.744,95.988,49.549,96.67,50.498,96.951z M50.48,97.048
			c-0.515-0.119-0.943-0.407-1.375-0.67l-1.266-0.84c-0.837-0.568-1.68-1.126-2.549-1.643c-1.734-1.032-3.576-1.904-5.526-2.428
			c-1.944-0.533-3.992-0.695-5.99-0.434c-1.999,0.259-3.936,0.928-5.711,1.878c-0.456,0.215-0.852,0.535-1.357,0.705
			c-0.5,0.159-1.034,0.152-1.54,0.066c-1.017-0.18-1.951-0.628-2.838-1.12c-1.769-1.009-3.373-2.264-4.939-3.549
			c-1.564-1.288-3.082-2.63-4.62-3.942c-0.772-0.648-1.545-1.309-2.372-1.855c-0.206-0.133-0.421-0.259-0.633-0.34
			c-0.103-0.039-0.213-0.064-0.282-0.056c-0.062,0.014-0.069,0.021-0.099,0.104c-0.065,0.382,0.112,0.912,0.259,1.367
			c3.135,7.394,7.11,14.547,12.139,20.836c5.01,6.315,11.002,11.826,17.635,16.379c6.614,4.59,13.889,8.203,21.491,10.849
			c7.606,2.653,15.542,4.307,23.55,5.173c8.012,0.843,16.125,0.936,24.112-0.125c7.986-1.047,15.834-3.139,23.286-6.212
			c7.454-3.07,14.505-7.117,20.956-11.966c6.448-4.848,12.317-10.499,17.263-16.879c1.23-1.601,2.396-3.245,3.479-4.949
			c1.077-1.707,2.151-3.427,3.014-5.237c0.21-0.453,0.406-0.915,0.543-1.386c0.13-0.453,0.233-0.994,0.005-1.311
			c-0.235-0.308-0.792-0.295-1.258-0.233c-0.486,0.066-0.972,0.193-1.454,0.332c-1.925,0.58-3.814,1.323-5.72,2.008
			c-3.806,1.375-7.726,2.562-11.78,3.011c-4.017,0.486-8.046,0.983-12.115,1.095c-2.033,0.05-4.08,0.006-6.116-0.318
			c-0.999-0.159-2.062-0.446-2.98-0.818c-0.922-0.328-1.892-0.532-2.875-0.642c-3.959-0.407-7.979,0.366-11.877,1.296
			c-7.824,1.949-15.377,4.914-23.241,7.001c-1.968,0.516-3.974,0.937-6.001,1.184c-2.026,0.226-4.107,0.339-6.153-0.084
			c-1.019-0.21-2.011-0.592-2.905-1.118c-0.899-0.522-1.691-1.168-2.521-1.72c-1.635-1.149-3.608-1.685-5.613-1.761
			c-2.004-0.095-4.025,0.112-6.017,0.433c-0.985,0.143-1.993,0.451-3.024,0.359c-1.018-0.045-2.024-0.172-3.027-0.312
			C58.429,98.586,54.462,97.774,50.48,97.048z"/>
	</g>
</g>
<path style="fill:#FCE300;" d="M27.489,100c4.667,1.667,20.667,3.334,26.667,4.922c3.981,1.054,8.5,8.203,19.5,7.656
	c11-0.547,19-5.834,20,2.188c2.108,16.913,19.138,1.399,25.5,2.188c26.5,3.281,67.333-45.209,56.333-22.787
	c-6.521,13.295-33.333,45.758-82.167,44.299c-38.499-1.15-65-19.688-78.5-43.024C1.142,71.796,20.267,97.42,27.489,100z"/>
<g>
	<path style="fill:#FCE300;" d="M123.656,96.171c-4.437,2.609-8.897,5.186-13.062,8.088c-1.035,0.727-2.06,1.463-2.995,2.256
		c-0.466,0.395-0.914,0.803-1.294,1.219c-0.37,0.386-0.71,0.912-0.696,1.041c0.001,0.02,0.024-0.022,0.013-0.117
		c-0.009-0.095-0.064-0.203-0.089-0.235c-0.061-0.067,0.072,0.022,0.263,0.068c0.396,0.109,0.975,0.163,1.547,0.174
		c1.164,0.022,2.404-0.08,3.638-0.22c4.913-0.534,9.682-2.053,14.483-3.766c2.398-0.857,4.818-1.712,7.282-2.55
		c2.474-0.82,4.976-1.636,7.73-2.109c1.385-0.208,2.843-0.348,4.475-0.084c0.81,0.135,1.68,0.401,2.498,0.903
		c0.824,0.486,1.532,1.239,1.999,2.043c0.478,0.808,0.727,1.643,0.876,2.432l0.097,0.625l0.026,0.265l0.021,0.376
		c0.011,0.456-0.026,0.931-0.126,1.402c-0.193,0.947-0.658,1.85-1.234,2.538c-0.574,0.7-1.236,1.217-1.894,1.635
		c-1.324,0.828-2.653,1.32-3.961,1.737c-1.31,0.407-2.608,0.717-3.899,0.989c-2.58,0.549-5.14,0.919-7.688,1.279
		c-5.083,0.75-10.135,1.398-15.067,2.574c-4.918,1.151-9.795,2.789-13.945,5.875c1.767-1.885,3.928-3.407,6.213-4.664
		c2.29-1.263,4.726-2.239,7.188-3.099c4.949-1.66,10.043-2.749,15.074-3.762c2.511-0.526,5.014-1.031,7.442-1.621
		c2.39-0.605,4.851-1.323,6.564-2.477c0.844-0.591,1.325-1.183,1.423-1.784c0.139-0.534-0.114-1.776-0.475-2.329
		c-0.36-0.577-0.847-0.881-1.786-1.037c-0.911-0.146-2.048-0.057-3.193,0.13c-2.318,0.365-4.734,1.1-7.138,1.87
		c-2.414,0.773-4.831,1.646-7.302,2.422c-2.47,0.779-4.974,1.527-7.543,2.134c-1.284,0.302-2.584,0.573-3.907,0.77
		c-1.331,0.198-2.67,0.31-3.979,0.381c-1.324,0.067-2.655,0.104-4.057-0.007c-0.707-0.065-1.418-0.143-2.248-0.424
		c-0.412-0.156-0.89-0.336-1.39-0.879c-0.242-0.268-0.46-0.667-0.525-1.079c-0.07-0.411-0.013-0.78,0.073-1.069
		c0.183-0.581,0.449-0.934,0.701-1.259c0.257-0.318,0.52-0.58,0.786-0.827c0.531-0.489,1.074-0.902,1.622-1.293
		c1.099-0.776,2.217-1.461,3.354-2.103C114.124,100.093,118.829,97.991,123.656,96.171z"/>
</g>
<path style="fill:none;stroke:#000000;stroke-miterlimit:3.8637;" d="M178.489,48.591c-13.058,15.643-46.149,24.428-83.501,24.428
	c-43.987,0-80.715-13.69-89.25-29.806c-1.221-2.305-1.5-1.834-1.5-4.375c0-1.008-0.401-1.237-0.205-2.224
	C7.8,17.697,46.985,2.82,94.769,2.82c41.626,0,76.587,11.226,87.448,26.762C185.822,34.737,185.489,40.206,178.489,48.591z"/>
<g>
	
		<linearGradient id="SVGID_2_" gradientUnits="userSpaceOnUse" x1="4009.3413" y1="87.6866" x2="4192.1245" y2="87.6866" gradientTransform="matrix(-1 0 0 1 4195.6528 0)">
		<stop  offset="0" style="stop-color:#A8B8C9"/>
		<stop  offset="0.2697" style="stop-color:#EEF0F1"/>
		<stop  offset="0.4329" style="stop-color:#E7E9EB"/>
		<stop  offset="0.6784" style="stop-color:#D2D7DC"/>
		<stop  offset="0.9746" style="stop-color:#B0B8C2"/>
		<stop  offset="0.9775" style="stop-color:#B0B8C2"/>
	</linearGradient>
	<path style="opacity:0.5;fill:url(#SVGID_2_);" d="M3.584,55.4c0,46.019,40.903,83.327,91.363,83.327
		c50.459,0,91.363-37.308,91.363-83.327c0-4.882-0.885-10.459-1.821-17.017c-6,19.688-42.613,34.552-88.709,34.552
		c-46.098,0-89.763-15.177-91.635-36.293C3.264,41.294,3.584,50.518,3.584,55.4z"/>
	<path style="opacity:0.36;fill:#FFFFFF;" d="M152.533,109.594c-15.158,14.022-36.039,22.988-59.242,23.667
		c1.172,0.045,2.348,0.067,3.531,0.067c24.34,0.006,46.307-9.139,62.083-23.734c7.888-7.295,14.232-15.945,18.59-25.479
		c4.36-9.539,6.753-19.957,6.753-30.911c0.004-2.426-0.797-8.41-0.76-11.904c-1.887,1.937-3.136,6.49-5.56,8.312
		c-0.028,1.323-0.051,2.545-0.051,3.593c-0.002,10.954-2.395,21.372-6.757,30.911C166.762,93.649,160.424,102.299,152.533,109.594z"
		/>
	<path style="opacity:0.57;fill:#FFFFFF;" d="M7.766,46.939c0.016,1.502,0.026,0.712,0.026,1.917
		c0.006,11.926,2.484,23.27,7.008,33.656c6.778,15.568,18.193,28.974,32.688,38.481c14.493,9.505,32.04,15.1,50.971,15.097
		c3.177,0,6.313-0.156,9.401-0.462c-15.384-1.506-29.612-6.699-41.713-14.635c-14.495-9.508-25.911-22.913-32.69-38.481
		c-3.396-7.807-5.644-13.969-6.551-22.699c-6.357-2.829-11.865-6.134-16.269-10.025C9.611,48.878,8.669,47.922,7.766,46.939z"/>
	<path style="opacity:0.38;fill:#FFFFFF;" d="M14.873,54.032c0.038,7.331,0.939,12.677,2.809,20.197
		c1.066,4.28,2.407,8.367,3.974,12.26l32.962,9.859c-2.322-5.043-4.24-10.464-5.672-16.22c-1.279-5.126-2.098-8.071-2.507-13.141
		C33.485,63.916,22.494,59.537,14.873,54.032z M57.108,101.291l-33.337-9.97c12.573,26.531,36.438,42.132,59.953,38.101
		C73.188,123.493,63.861,113.761,57.108,101.291z"/>
	<path style="fill:none;stroke:#1D1D1B;stroke-linecap:round;stroke-linejoin:round;stroke-miterlimit:3.8637;" d="M3.584,55.4
		c0,46.019,40.903,83.327,91.363,83.327c50.459,0,91.363-37.308,91.363-83.327c0-4.882-0.604-14.571-1.541-21.13
		c-2.947,25.624-42.894,38.665-88.989,38.665c-46.098,0-89.763-15.177-91.635-36.293C3.264,41.294,3.584,50.518,3.584,55.4z"/>
</g>
</svg>
