<?xml version="1.0" encoding="iso-8859-1"?>
<!-- Generator: Adobe Illustrator 21.1.0, SVG Export Plug-In . SVG Version: 6.00 Build 0)  -->
<svg version="1.1" id="Layer_1" xmlns="http://www.w3.org/2000/svg" xmlns:xlink="http://www.w3.org/1999/xlink" x="0px" y="0px"
	 viewBox="0 0 459.652 312.854" style="enable-background:new 0 0 459.652 312.854;" xml:space="preserve">
<g>
	<g>
		<path style="fill:#C9E1E5;" d="M8.664,228.556v3.043c0,42.828,98.996,74.501,221.113,74.501s221.111-31.673,221.111-74.501v-3.622
			L8.664,228.556z"/>
		<path style="fill:#1D1D1B;" d="M8.766,228.656c0.015,1.271,0.004,2.546,0.045,3.812c0.051,1.295,0.194,2.59,0.428,3.866
			c0.464,2.554,1.29,5.034,2.393,7.38c2.21,4.703,5.477,8.84,9.176,12.467c3.71,3.633,7.865,6.793,12.216,9.629
			c4.354,2.838,8.908,5.367,13.575,7.663c9.346,4.579,19.11,8.275,29.03,11.437c9.929,3.143,20.018,5.778,30.188,8.035
			c20.354,4.487,41.029,7.46,61.784,9.396c20.754,2.008,41.611,2.89,62.464,2.989c20.858,0.084,41.725-0.73,62.504-2.612
			c20.777-1.877,41.463-4.93,61.836-9.433c10.175-2.298,20.257-5.017,30.165-8.262c9.9-3.26,19.64-7.049,28.938-11.736
			c4.644-2.348,9.173-4.924,13.482-7.827c4.304-2.903,8.401-6.128,12.022-9.825c3.608-3.691,6.751-7.887,8.805-12.595
			c1.022-2.349,1.755-4.819,2.13-7.344c0.188-1.262,0.287-2.536,0.295-3.811l-0.009-3.908l0.658,0.657l-110.556,0.467l-55.278,0.151
			l-55.278,0.036c-36.852,0.08-73.704-0.112-110.557-0.182l-55.277-0.143L8.766,228.656z M8.564,228.456l55.377-0.452l55.277-0.288
			c36.853-0.166,73.704-0.455,110.557-0.471l55.277-0.109l55.278,0.007l110.557,0.177l0.662,0.001l-0.004,0.656l-0.02,3.922
			c-0.019,1.335-0.132,2.669-0.339,3.987c-0.412,2.637-1.196,5.207-2.275,7.635c-2.166,4.867-5.432,9.136-9.128,12.874
			c-3.708,3.747-7.876,6.989-12.237,9.897c-4.366,2.908-8.943,5.48-13.627,7.816c-9.377,4.667-19.173,8.416-29.116,11.633
			c-9.951,3.208-20.07,5.859-30.267,8.134c-20.383,4.626-41.096,7.648-61.879,9.769c-20.792,2.094-41.691,3.112-62.591,3.226
			c-41.781,0.12-83.725-3.303-124.591-12.4c-10.204-2.296-20.328-4.983-30.271-8.255c-9.938-3.269-19.723-7.074-29.09-11.771
			c-9.328-4.713-18.365-10.316-25.794-17.775c-3.684-3.727-6.929-7.969-9.094-12.768c-1.08-2.393-1.878-4.92-2.308-7.51
			c-0.216-1.295-0.34-2.604-0.372-3.917c-0.021-1.31,0.012-2.61,0.016-3.917V228.456z"/>
	</g>
	<g>
		<path style="fill:#E9F2F3;" d="M450.889,229.472c0,38.611-98.994,71.581-221.111,71.581S8.664,268.083,8.664,229.472
			c0-31.87,98.996-59.906,221.113-59.906S450.889,190.86,450.889,229.472z"/>
		<path style="fill:#1D1D1B;" d="M450.988,229.474c0.029,5.096-1.789,10.064-4.529,14.306c-2.751,4.269-6.328,7.938-10.201,11.187
			c-7.793,6.494-16.746,11.398-25.882,15.7c-9.179,4.261-18.686,7.776-28.327,10.835c-9.646,3.051-19.435,5.637-29.302,7.87
			c-19.733,4.49-39.785,7.478-59.909,9.525c-20.131,2.046-40.368,2.91-60.593,2.979c-40.442-0.039-80.939-3.576-120.552-11.748
			c-9.896-2.064-19.712-4.516-29.426-7.323c-9.708-2.819-19.303-6.075-28.625-10.022c-9.302-3.962-18.399-8.566-26.635-14.529
			c-4.094-2.994-7.977-6.34-11.264-10.256c-3.271-3.896-5.964-8.447-7.079-13.516c-0.279-1.261-0.459-2.546-0.529-3.838
			c-0.036-0.635-0.042-1.314-0.021-1.936c0.041-0.669,0.097-1.32,0.212-1.964c0.424-2.588,1.483-5.024,2.848-7.214
			c2.78-4.385,6.665-7.865,10.763-10.875c8.288-5.976,17.587-10.26,27.011-13.959c18.942-7.282,38.709-12.072,58.591-15.792
			c39.829-7.31,80.348-10.3,120.791-10.367c20.222,0.004,40.451,0.503,60.634,1.857c20.178,1.356,40.327,3.378,60.299,6.62
			c9.983,1.616,19.924,3.523,29.77,5.841c9.843,2.325,19.6,5.06,29.107,8.525c9.467,3.511,18.83,7.594,27.129,13.436
			c4.117,2.928,7.971,6.333,10.924,10.472C449.15,219.39,451.033,224.374,450.988,229.474z M450.789,229.472
			c0.018-5.054-1.867-9.971-4.82-14.025c-2.947-4.088-6.791-7.454-10.902-10.347c-4.127-2.891-8.556-5.336-13.11-7.495
			c-4.554-2.165-9.246-4.033-14.005-5.702c-9.52-3.34-19.283-5.95-29.126-8.149c-9.847-2.196-19.787-3.956-29.766-5.439
			c-19.966-2.922-40.072-4.835-60.216-6.02c-20.146-1.166-40.328-1.753-60.511-1.695c-20.177,0.039-40.35,0.886-60.458,2.485
			c-20.106,1.618-40.155,4.063-59.996,7.669c-9.92,1.804-19.781,3.923-29.545,6.413c-9.759,2.5-19.425,5.394-28.835,8.962
			c-9.376,3.599-18.621,7.787-26.791,13.59c-4.038,2.918-7.838,6.292-10.515,10.453c-1.315,2.077-2.322,4.361-2.733,6.766
			c-0.113,0.599-0.167,1.207-0.21,1.798c-0.024,0.64-0.023,1.225,0.007,1.851c0.059,1.23,0.22,2.455,0.478,3.662
			c1.039,4.845,3.609,9.27,6.791,13.097c3.193,3.847,7.004,7.167,11.039,10.149c8.116,5.94,17.142,10.572,26.387,14.565
			c18.559,7.922,38.127,13.32,57.883,17.391c19.772,4.086,39.815,6.785,59.926,8.491c20.112,1.711,40.303,2.42,60.48,2.277
			c20.18-0.083,40.347-1.152,60.43-3.047c20.081-1.918,40.071-4.854,59.809-9.026c9.863-2.106,19.657-4.56,29.31-7.487
			c9.648-2.936,19.17-6.328,28.371-10.468c4.597-2.072,9.113-4.335,13.46-6.892c4.349-2.549,8.55-5.366,12.43-8.584
			c3.868-3.218,7.44-6.852,10.188-11.078C448.975,239.435,450.796,234.53,450.789,229.472z"/>
	</g>
	<path style="fill:#FFFFFF;" d="M440.434,228.686c0,36.786-94.314,68.274-210.656,68.274S19.121,265.473,19.121,228.686
		c0-31.085,94.313-56.601,210.656-56.601S440.434,191.902,440.434,228.686z"/>
	<path style="fill:#9CC9D3;" d="M383.762,235.247v-3.759c0-29.828-68.942-39.858-153.986-39.858
		c-85.042,0-153.982,10.03-153.982,39.858v4.162L383.762,235.247z"/>
	<path style="fill:#C9E1E5;" d="M75.793,234.61c0-26.89,68.94-36.181,153.982-36.181c85.044,0,153.986,9.29,153.986,36.181
		c0,26.889-68.942,50.354-153.986,50.354C144.733,284.964,75.793,261.499,75.793,234.61z"/>
	<path style="fill:#E9F2F3;" d="M75.793,234.61c0-26.89,68.94-36.181,153.982-36.181c85.044,0,153.986,9.29,153.986,36.181
		c0,26.889-68.942,50.354-153.986,50.354C144.733,284.964,75.793,261.499,75.793,234.61z"/>
	<path style="fill:#FFFFFF;" d="M75.491,229.674c0-26.65,69.076-35.858,154.284-35.858c85.211,0,154.287,9.208,154.287,35.858
		c0,26.647-69.076,49.905-154.287,49.905C144.567,279.579,75.491,256.321,75.491,229.674z"/>
	<path style="fill:#E9F2F3;" d="M362.902,213.3c1.203,0.483,2.357,0.98,3.467,1.49C365.35,214.098,364.174,213.626,362.902,213.3z"
		/>
</g>
<path style="fill:#C6C4BE;" d="M42.089,236.126c0,0-11.019,11.02,0,14.692c11.018,3.673,38.566,2.754,44.993,2.754
	c6.429,0,137.805-5.297,153.414-3.46c15.609,1.837,128.5-24.714,109.333-44S68.718,217.761,68.718,217.761L42.089,236.126z"/>
<path style="fill:#D19657;" d="M57.56,239.615c5.37,3.422,30.058,10.013,54.429,8.659c24.348-1.376,27.467-1.823,86.556,0.905
	c59.102,2.73,48.73-0.905,54.957-2.729c6.217-1.825,4.663-17.767,5.699-30.523c1.035-12.757-3.108-56.145-1.036-63.428
	c2.071-7.282,3.108-7.755-1.555-20.047c-4.662-12.293-3.108-53.038-3.108-53.038S147.887,64.739,107.447,60.185
	C67.019,55.63,49.394,49.708,47.839,64.29c-1.566,14.572-6.227,59.865-2.59,79.448C48.875,163.33,49.118,234.251,57.56,239.615
	L57.56,239.615z"/>
<path style="fill:#A07442;" d="M254.053,247.41c-3.143,0.763-1.047,3.799-20.027,3.799c-0.706,0-1.434,0-2.193-0.009
	c-7.518-0.008-18.164-0.282-33.363-0.99c-31.182-1.447-46.768-1.99-58.055-1.99c-10.097,0-16.797,0.433-28.305,1.093
	c-2.249,0.118-4.519,0.174-6.768,0.174c-22.463-0.048-43.217-5.671-48.752-9.1v0.009c-5.015-3.453-6.722-14.346-8.441-27.299
	c-1.576-12.874-2.536-59.504-4.343-69.216c-0.981-5.316-1.366-10.099-1.366-14.525c0.01-12.089,2.82-54.582,3.957-65.152
	c0.528-7.29,6.248-10.396,15.375-10.207c9.986,0.015,24.812,2.791,45.906,5.159c40.507,4.562,146.088,19.237,146.1,19.237
	c0.76,0.102,1.279,0.62,1.168,1.163c0,0,89.316-44.676,90.884-43.109c4.667,4.667,2.667,83.881,2.667,85.667
	c0,5.874,2,82.887,2,86.667c0,6.345-30.667,16.667-46.667,24C298.48,235.231,258.461,245.844,254.053,247.41L254.053,247.41z
	 M251.805,82.913c0-1.147,0.055-2.044,0.121-2.657C239.723,78.564,145,65.47,107.227,61.208c-21.196-2.399-36.174-5.136-45.455-5.12
	c-8.42,0.173-11.485,1.65-12.478,8.273c-1.157,10.759-3.934,53.142-3.925,64.994c0,4.34,0.376,9.028,1.324,14.25
	c1.829,9.87,2.799,56.491,4.364,69.311c1.422,12.756,4.056,24.003,7.473,25.914c4.255,2.799,25.175,8.636,46.811,8.58
	c2.184,0,4.364-0.063,6.535-0.182c11.475-0.645,18.309-1.093,28.537-1.093c11.431,0,27.049,0.559,58.24,1.998
	c15.179,0.708,25.76,0.982,33.178,0.982c21.857-0.244,15.144-1.73,21.107-3.634c1.818-0.251,3.537-4.482,3.902-10.271
	c0.518-5.741,0.385-12.922,0.902-19.348c0.11-1.43,0.166-2.863,0.166-4.262c0.012-8.329-1.774-47.95-1.785-54.107
	c0-1.873,0.165-3.618,0.617-5.198c1.015-3.548,1.73-5.413,1.719-7.638c0.012-2.445-0.826-5.568-3.264-11.931
	C252.366,125.248,251.805,86.405,251.805,82.913L251.805,82.913z"/>
<path style="fill:#976635;" d="M351.162,208.78c-5.964,1.904-86.143,38.422-108,38.667c-7.418,0-29.329,1.395-44.508,0.687
	c-31.191-1.439-46.81-1.998-58.24-1.998c-10.228,0-17.062,0.448-28.537,1.093c-2.171,0.118-4.352,0.182-6.535,0.182
	c-0.1,0-0.204,0-0.305,0c-11.717,0-23.2-1.716-31.917-3.729c1.944,0.736,3.843,1.293,5.034,2.207
	c7.926,1.482,17.298,2.567,26.896,2.567c2.207,0,4.426-0.057,6.64-0.181c11.491-0.648,18.257-1.092,28.401-1.092
	c11.358,0,26.956,0.556,58.167,1.997c15.179,0.701,25.773,0.982,33.245,0.982c21.619,0,79.658-20.049,101.658-28.049
	C339.251,219.898,352.98,208.529,351.162,208.78z M256.139,158.379c0.053,1.966,0.264,4.068,0.52,6.289
	c0.661-0.818,0.902-1.898,0.855-2.959c-0.016-0.169-0.031-0.338-0.045-0.505c-0.111-0.85-0.398-1.659-0.793-2.279
	C256.543,158.712,256.363,158.532,256.139,158.379L256.139,158.379z"/>
<path style="fill:#754C28;" d="M336.496,32.446c15.033,7.739-73.772,43.001-73.772,47.106c0,4.098-4.663,4.168-6.734,7.346
	c-2.072,3.194,1.555-1.393-6.733-3.673c-8.301-2.272-31.919-3.002-41.242-3.002c-9.326,0-40.441-1.815-48.211-4.554
	c-7.771-2.729-42.502-4.553-48.73-4.553c-6.216,0-17.106,1.368-32.14-2.736c-15.034-4.09-21.25-5.467-22.806,0
	c-1.553,5.465-8.817,6.834-4.144,22.775c4.662,15.941-0.519,54.407-0.519,62.153c0,7.747,4.145,59.331,4.145,65.709
	c0,6.379,3.109,18.223,7.254,21.407c4.155,3.178,15.033,5.011,15.033,7.291c0,2.273-2.59,0.903-8.807,2.73
	c-3.109,0.912-5.18,0.346-7.65-0.23c-2.457-0.564-5.312-1.132-9.975-0.227c-9.336,1.825-18.152-0.456-19.178-6.825
	c-1.036-6.379,4.662-12.018,3.626-21.417c-1.036-9.398,4.663-62.515-1.554-74.359c-6.228-11.844-9.336-11.388-5.191-15.941
	c4.145-4.554,4.662-38.474,3.637-43.02c-1.036-4.561-0.528-8.21,1.025-9.563c1.565-1.368,6.239-1.368,4.674-10.027
	c-1.555-8.65-1.036-10.932,2.072-16.398c3.107-5.465,11.926-17.302,19.178-19.126c7.265-1.825,9.854-3.186,13.479-5.466
	c3.628-2.281,86.17-15.755,97.05-10.737c10.89,5.011,38.15-0.692,56.88,8.672C255.302,39.851,322.74,25.366,336.496,32.446z"/>
<path style="fill:#E9DCDA;" d="M346,127c0,0-68.171,23.78-84.171,31.78c-12.39,6.195-37.421-4.697-42.961-3.525
	c-5.542,1.172-10.191-2.343-21.722,0.194c-11.524,2.531-28.802,0.773-33.242,0.191c-4.428-0.581-28.59-7.006-38.342-3.892
	c-9.754,3.116-23.495,0.978-28.375-0.39c-4.861-1.364-10.186-2.73-21.933-2.922c-11.747-0.195-22.827-2.919-24.384-1.561
	c-1.543,1.366-3.097,17.726-1.328,18.116c1.771,0.39,10.859-3.506,19.949-2.144c9.086,1.361,20.39,5.259,34.791,2.923
	c14.405-2.337,23.719-2.732,35.466-0.779c11.747,1.948,29.696-3.311,41.888,1.362c12.192,4.673,66.673,2.868,77.525,4.426
	c10.863,1.558,87.334-30.667,87.334-30.667S348.201,135.488,346,127z"/>
<path style="fill:#603813;" d="M35.913,221.747c1.036,9.399-4.662,15.038-3.626,21.417c1.025,6.369,9.842,8.65,19.178,6.825
	c4.662-0.904,7.518-0.337,9.975,0.227c2.471,0.575,4.541,1.142,7.65,0.23c6.217-1.826,8.807-0.457,8.807-2.73
	c0-2.28-10.878-4.113-15.033-7.291c-4.145-3.185-7.254-15.028-7.254-21.407c0-4.183-1.775-46.03-2.998-54.5
	c3.803-0.913,10.328-2.65,16.887-1.668c9.082,1.359,20.38,5.253,34.785,2.918c14.406-2.335,23.721-2.729,35.47-0.779
	c4.939,0.825,10.978,0.371,17.229-0.086c8.597-0.629,17.602-1.259,24.655,1.446c7.264,2.792,64.494,7.101,72.859,6.431
	c3.094-0.248,15.2-2.386,28.184-5.997c10.939-3.041,22.5-7.126,29.816-12.003c9.135-6.09,36.666-12.667,36.666-12.667
	s1.537-7.507-0.666-16c0,0-11.095-3-20,4.334c-11.334,9.333-23.959,10.995-29.334,11.666c-13.748,1.718-41.122,14.829-46.666,16
	c-2.415,0.511-16.001-1.333-39.334-6.666c-3.472-0.794-9.514,2.572-16.017,4.002c-11.518,2.533-28.802,0.771-33.243,0.189
	c-4.432-0.582-28.592-7.008-38.336-3.893c-9.754,3.121-23.497,0.982-28.381-0.387c-4.859-1.367-10.186-2.729-21.935-2.925
	c-9.732-0.158-19.001-2.053-22.771-1.927c1.214-5.246,2.745-44.263-0.496-55.351c-4.674-15.941,2.591-17.311,4.144-22.775
	c1.556-5.467,7.771-4.09,22.806,0c15.034,4.104,25.924,2.736,32.14,2.736c6.228,0,40.959,1.824,48.73,4.553
	c7.77,2.738,38.885,4.554,48.211,4.554c9.323,0,24.848,1.952,33.148,4.223c8.288,2.281,12.868,10.702,16.664,10.411
	c7.958-0.612,18.67-16.979,18.67-21.077c0-1.292,11.599-1.332,22.666-6c8.546-3.604,15.488-11.431,24.544-15.585
	c16.499-7.567,29.443-14.99,22.79-18.415c-15.033-7.738-120.454-17.329-173.334-17.333c-23.376-0.002-96.302,9.118-99.93,11.399
	c-3.625,2.28-6.214,3.641-13.479,5.466c-7.252,1.824-16.07,13.661-19.178,19.126c-3.108,5.467-3.627,7.748-2.072,16.398
	c1.565,8.659-3.108,8.659-4.674,10.027c-1.554,1.354-2.062,5.003-1.025,9.563c1.025,4.546,0.508,38.466-3.637,43.02
	c-4.145,4.554-1.036,4.098,5.191,15.941C40.576,159.232,34.877,212.348,35.913,221.747L35.913,221.747z M73.422,61.608
	c-11.033-5.866-15.674-3.31-10.734-8.675c4.937-5.356-8.422-9.438,5.52-14.282c13.943-4.853,84.719-20.568,97.79-17.258
	c13.061,3.319,67.832,12.387,109.165,12.387c9.562,0,46.208-4.379,56.667,2c10.449,6.386-42,18.667-54.667,27.333
	c-5.342,3.655-19.031,12.022-17.863,14.066c0,0,2.602,4.082-4.365,3.563c-6.976-0.503-7.551,1.282-29.914-6.37
	c-12.189-4.177-18.164-2.887-25.273-1.597c-5.918,1.077-12.631,2.154-24.381,0.063c-25.848-4.594-23.818-4.845-56.345-6.379
	C86.505,64.927,84.467,67.475,73.422,61.608L73.422,61.608z M39.452,239.655c0.286-7.142,1.752-4.334,0.583-11.489
	c-1.156-7.143-1.74-51.128,1.455-59.811c3.186-8.675,0-19.897-4.354-27.816c-4.364-7.904-2.325-6.379,0.859-9.949
	c3.208-3.571-2.601-45.497,1.169-47.802c3.78-2.297,0.87-12.245,6.669-15.053c5.819-2.808-4.057,5.867-1.73,15.053
	c2.325,9.194,6.68,46.276,4.641,51.372c-2.029,5.104-7.54,25.781,8.42,18.631c0,0,15.982-4.082,30.785,0.771
	c14.824,4.845,30.201,4.072,39.504,2.288c9.29-1.785,15.375-0.763,23.807,1.023c8.422,1.785,31.656,3.326,39.195,2.807
	c7.561-0.503,17.437-3.319,25.857-1.526c4.684,1,8.642,0.41,12.73-0.172c3.273-0.465,24.908,3.68,28.786,3.464
	c12-0.667,17.333-10,32-12c4.259-0.581,55.107-20.774,56-19.334c1.455,2.289,0.939,10.667-4,10.667c-20.353,0-62.666,28-84,28.667
	c-8.556,0.267-36.579-6.196-44.129-4.92c-7.551,1.281-20.909,1.021-26.144-0.252c-5.227-1.274-15.686-4.594-27.579-2.289
	c-11.914,2.289-22.075,0-29.341-0.519c-7.263-0.504-16.543,1.021-24.976,2.044c-8.421,1.016-19.156-1.023-27.004-3.06
	c-7.837-2.044-23.235,0.244-25.848,1.534c-2.611,1.266-4.353,39.912-3.185,43.475c1.158,3.578,2.314,23.727,4.068,28.831
	c1.729,5.112-0.586,4.602,4.055,7.912c4.641,3.327-0.86,2.045-6.095,2.557C46.429,245.27,39.165,246.805,39.452,239.655
	L39.452,239.655z"/>
<path style="fill:#B2A9AD;" d="M113.369,53.383c0,0,0.033,0.006,0.081,0.016c0.003,0.006,0.005,0.011,0.009,0.017
	c-0.027-0.01-0.055-0.02-0.082-0.027c-0.008-0.004-0.011-0.005-0.011-0.005H113.369z"/>
<g>
	
		<ellipse transform="matrix(0.6227 -0.7824 0.7824 0.6227 11.0226 105.6275)" style="fill:#694223;" cx="115.047" cy="41.383" rx="0.003" ry="0.003"/>
	<path style="fill:#F1EBEB;" d="M62.515,39.725c0,0,1.045-4.731,6.433-5.144c5.397-0.425,15.075-3.059,16.514-7.106
		c1.449-4.052,3.558,0.592,5.927,1.518c2.37,0.926,10.468-1.277,11.71-5.272c1.242-3.997,4.864-0.019,5.924,0.737
		c1.061,0.757,7.291-2.764,12.574,6.497c5.28,9.264-2.666,21.355-16.488,20.416c-13.821-0.94-15.263,3.098-25.467,0.657
		C69.437,49.584,56.807,49.891,62.515,39.725L62.515,39.725z"/>
	<path style="fill:#CBC6C9;" d="M124.118,33.527c2.12,7.793-3.023,16.044-11.959,18.495c-2.169,0.591-4.558,0.841-7.133,0.676
		c-13.373-0.956-14.893,3.146-25.696,0.627c-7.611-2.053-17.149-1.543-19.385-7.745c-0.491-1.848-0.016-3.937,1.317-6.356
		c0.255-0.924,1.511-4.479,5.779-5.684c0.558-0.152,1.172-0.266,1.821-0.316c1.767-0.134,4.114-0.539,6.43-1.169
		c4.352-1.091,8.516-3.372,8.905-5.038c0.426-1.149,0.967-2.107,2.125-2.455c3.259-0.19,4.258,3.016,5.556,3.18
		c0.346,0.181,2.123,0.169,3.889-0.352c2.794-0.696,5.7-2.531,6.042-4.068c0.382-1.264,1.173-2.312,2.314-2.611
		c2.771-0.47,4.653,1.875,5.479,2.514c0.98-0.002,8.358-1.937,13.159,7.066C123.372,31.327,123.83,32.425,124.118,33.527
		L124.118,33.527z M108.242,25.546c-0.846-0.825-2.977-2.375-3.357-2.271l-0.053,0.037c0.002,0.008-0.164-0.02-0.445,0.806
		c-1.116,3.255-4.724,4.952-7.912,5.872c-2.137,0.551-4.021,0.79-5.566,0.262c-1.312-0.561-2.189-1.533-2.961-2.241
		c-0.367-0.343-0.703-0.609-0.908-0.745c-0.082,0.13-0.181,0.345-0.298,0.651c-1.458,3.591-6.153,5.396-10.743,6.73
		c-2.484,0.676-4.938,1.109-6.931,1.263c-0.474,0.043-0.916,0.123-1.317,0.232c-1.615,0.416-2.584,1.386-3.15,2.249
		c-0.568,0.859-0.731,1.621-0.762,1.619l-1.325-0.294l1.182,0.659c-1.229,2.188-1.396,3.626-1.158,4.499
		c0.302,3.123,9.316,4.138,17.41,5.835c9.618,2.38,10.991-1.599,25.26-0.685c2.285,0.148,4.372-0.084,6.248-0.594
		c7.709-2.107,11.744-9.023,10.072-15.199c-0.237-0.874-0.602-1.743-1.091-2.614c-2.526-4.37-4.957-5.438-6.926-5.776
		C111.324,25.36,110.389,26.458,108.242,25.546L108.242,25.546z"/>
	<path style="fill:#D8CDCE;" d="M110.25,25.915c0.03,0.059,0.059,0.119,0.082,0.18l0.117,0.272
		c2.118,11.166-7.954,19.776-14.338,23.761c1.355-0.138,2.881-0.23,4.647-0.241c8.172-5.146,11.901-18.311,10.607-21.776
		c-0.279-0.749-0.253-1.106-0.021-1.17c0.867-0.236,4.58,3.574,6.197,6.405c3.955,6.934-0.443,14.069-9.612,16.564
		c-0.183,0.05-0.368,0.097-0.557,0.142c1.454-0.059,2.815-0.276,4.08-0.62c7.709-2.107,11.744-9.023,10.072-15.199
		c-0.237-0.874-0.602-1.743-1.091-2.614c-2.526-4.37-4.957-5.438-6.926-5.776C112.131,25.539,111.25,25.862,110.25,25.915
		L110.25,25.915z M102.289,27.116c-1.617,1.399-3.799,2.295-5.814,2.874c-1.614,0.415-3.087,0.655-4.377,0.518
		c-0.26,1.306-2.784,11.791-16.243,15.453c-3.044,0.828-6.646,1.307-10.907,1.252c3.274,1.463,9.359,2.315,14.999,3.497
		c3.826,0.947,6.347,0.889,8.895,0.531c-4.428-0.16-13.877-1.97-13.903-1.972c0.672-0.119,1.323-0.265,1.953-0.436
		c11.564-3.147,16.204-14.64,17.086-16.909c0.437-1.131,2.116-1.597,3.847-2.067c0.034-0.01,0.071-0.02,0.106-0.028
		c1.894-0.516,3.827-1.042,4.262-2.437C102.22,27.296,102.252,27.204,102.289,27.116L102.289,27.116z M104.885,23.275l-0.053,0.037
		c0.002,0.008-0.164-0.02-0.445,0.806c-0.191,0.556-0.453,1.065-0.774,1.534c0.13-0.064,0.264-0.114,0.398-0.151
		c1.056-0.287,2.198,0.222,2.527,1.563c1.268,5.232-3.525,14.326-15.7,23.852c1.137-0.196,2.337-0.417,3.712-0.603
		c5.071-3.335,14.068-10.572,13.926-23.06l-0.275-1.013c-0.071-0.281-0.033-0.504,0.079-0.68c-0.012-0.005-0.023-0.011-0.037-0.015
		C107.396,24.721,105.266,23.171,104.885,23.275L104.885,23.275z M71.01,44.818c-0.087,0.023-0.172,0.045-0.249,0.063
		c-3.353,0.809-3.948-1.686-2.328-4.215c0,0,0.696-3.114,4.06-4.029c0.398-0.108,0.833-0.186,1.309-0.224
		c1.555-0.128,3.539-0.473,5.517-1.011c3.72-1.013,7.416-2.702,8.206-4.884c0.294-0.837,0.627-1.222,0.989-1.321
		c0.407-0.11,0.852,0.139,1.323,0.523C87.06,38.25,74.709,43.812,71.01,44.818L71.01,44.818z M87.039,27.265
		c-0.082,0.13-0.181,0.345-0.298,0.651c-1.458,3.591-6.153,5.396-10.743,6.73c-2.484,0.676-4.938,1.109-6.931,1.263
		c-0.474,0.043-0.916,0.123-1.317,0.232c-0.023,0.004-0.048,0.011-0.07,0.017c-1.574,0.429-2.523,1.383-3.08,2.232
		c-0.563,0.853-0.727,1.609-0.762,1.619l0,0l-1.319-0.293v0.002l1.176,0.656c-1.229,2.188-1.396,3.626-1.158,4.499
		c0.079,0.819,0.761,1.495,1.864,2.075c0.266-0.028,0.551-0.06,0.855-0.096c1.795-0.214,4.252-0.604,6.931-1.334
		c7.067-1.923,15.689-6.188,17.812-15.666c0.007-0.025,0.013-0.052,0.021-0.078c-0.846-0.545-1.49-1.23-2.072-1.766
		C87.58,27.667,87.244,27.401,87.039,27.265L87.039,27.265z"/>
	<path style="fill:#B6ACB0;" d="M62.372,47.118c2.087,2.023,6.458,2.842,11.162,3.693c2.026,0.365,4.11,0.736,6.106,1.217
		c0.327,0.079,0.627,0.136,0.941,0.207c4.663,0.976,7.466,0.552,10.745-0.025c0.091-0.017,0.182-0.032,0.271-0.048
		c0.552-0.364,1.615-0.97,2.951-1.85c-1.375,0.186-2.575,0.406-3.712,0.603c-0.111,0.089-0.224,0.177-0.338,0.265
		c-0.394,0.069-0.964,0.086-1.659,0.061c-2.548,0.357-5.068,0.416-8.895-0.531c-5.64-1.182-11.725-2.034-14.999-3.497
		C64.112,47.201,63.257,47.17,62.372,47.118L62.372,47.118z M86.668,25.876c-0.439,0.12-0.842,0.592-1.204,1.609
		c-0.938,2.631-5.374,4.665-9.844,5.881c-2.39,0.65-4.79,1.067-6.673,1.215c-0.566,0.044-1.084,0.138-1.559,0.267
		c-4.037,1.099-4.883,4.879-4.883,4.879c-1.988,3.548-1.744,5.821-0.146,7.379c0.228-0.014,0.955-0.049,2.041-0.156
		c-1.103-0.58-1.785-1.256-1.864-2.075c-0.237-0.873-0.07-2.311,1.158-4.499l-1.176-0.656l-0.006-0.003l0.006,0.001l1.319,0.293l0,0
		c0.035-0.01,0.198-0.766,0.762-1.619c0.557-0.85,1.506-1.804,3.08-2.232c0.022-0.006,0.047-0.013,0.07-0.017
		c0.401-0.109,0.844-0.19,1.317-0.232c1.993-0.153,4.446-0.587,6.931-1.263c4.59-1.335,9.285-3.14,10.743-6.73
		c0.117-0.307,0.216-0.521,0.298-0.651c0.205,0.136,0.541,0.402,0.908,0.745c0.582,0.535,1.226,1.221,2.072,1.766
		c0.112-0.408,0.394-0.708,0.74-0.803c0.149-0.04,0.309-0.045,0.474-0.002c0.585,0.136,0.988,0.765,0.89,1.401
		c-0.002,0.01-0.009,0.055-0.025,0.135c1.29,0.138,2.763-0.103,4.377-0.518c2.016-0.579,4.197-1.475,5.814-2.874
		c0.289-0.712,0.776-1.201,1.323-1.464c0.321-0.469,0.583-0.979,0.774-1.534c0.281-0.825,0.447-0.798,0.445-0.806l0.053-0.037
		c0.381-0.104,2.512,1.446,3.357,2.271c0.014,0.004,0.025,0.01,0.037,0.015c0.129-0.202,0.357-0.345,0.638-0.443
		c0.015-0.004,0.03-0.008,0.044-0.012c0.473-0.129,1.023,0.31,1.289,0.809c1-0.053,1.881-0.376,3.26-0.073
		c1.969,0.339,4.399,1.406,6.926,5.776c0.489,0.871,0.854,1.74,1.091,2.614c1.672,6.176-2.363,13.092-10.072,15.199
		c-1.265,0.344-2.626,0.562-4.08,0.62c-0.8,0.197-1.635,0.36-2.503,0.487c-1.601,0.235-5.068-0.076-4.517-0.405
		c0.136-0.081,0.271-0.162,0.404-0.247c-1.767,0.011-3.292,0.104-4.647,0.241c-1.271,0.794-2.395,1.404-3.248,1.814
		c1.742-0.293,3.707-0.564,6.169-0.669c1.739-0.073,3.714-0.062,6.075,0.098c2.422,0.162,4.662-0.072,6.685-0.622
		c9.516-2.589,14.159-12.152,9.804-19.794c-3.488-6.112-7.375-6.646-9.926-6.532c-1.325,0.055-2.302,0.3-2.648,0.035
		c-0.39-0.273-1.148-1.006-2.006-1.604c-0.826-0.584-1.757-1.041-2.539-0.828c-0.564,0.153-1.053,0.654-1.376,1.703
		c-0.759,2.408-4.005,4.16-6.983,4.971c-0.443,0.121-0.881,0.221-1.303,0.298c-1.435,0.264-2.695,0.28-3.427-0.005
		c-0.389-0.146-0.763-0.403-1.139-0.702C88.912,27.237,87.693,25.598,86.668,25.876L86.668,25.876z"/>
	<path style="fill:#BEAFB1;" d="M90.02,29.776c0.273,0.176,0.568,0.338,0.889,0.476c0.375,0.129,0.773,0.212,1.189,0.256
		c-0.26,1.306-2.784,11.791-16.243,15.453c-3.044,0.828-6.646,1.307-10.907,1.252c-0.193-0.085-0.375-0.174-0.547-0.263
		c0.266-0.028,0.551-0.06,0.855-0.096c1.795-0.214,4.252-0.604,6.931-1.334c7.067-1.923,15.689-6.188,17.812-15.666
		C90.006,29.829,90.012,29.802,90.02,29.776L90.02,29.776z"/>
	<path style="fill:#A09398;" d="M62.359,47.106c0.005,0.005,0.008,0.008,0.013,0.012c0.885,0.053,1.74,0.083,2.575,0.095
		c-0.193-0.085-0.375-0.174-0.547-0.263C63.314,47.057,62.588,47.092,62.359,47.106L62.359,47.106z M90.76,28.973
		c-0.347,0.095-0.628,0.395-0.74,0.803c0.273,0.176,0.568,0.338,0.889,0.476c0.375,0.129,0.773,0.212,1.189,0.256
		c0.017-0.08,0.023-0.125,0.025-0.135c0.099-0.637-0.305-1.266-0.89-1.401C91.068,28.928,90.909,28.933,90.76,28.973L90.76,28.973z"
		/>
	<path style="fill:#BEAFB1;" d="M108.279,25.561c0.775,0.322,1.394,0.385,1.971,0.354c0.03,0.059,0.059,0.119,0.082,0.18
		l0.117,0.272c2.118,11.166-7.954,19.776-14.338,23.761c-0.545,0.055-1.066,0.118-1.562,0.186
		c5.071-3.335,14.068-10.572,13.926-23.06l-0.275-1.013C108.129,25.959,108.167,25.737,108.279,25.561L108.279,25.561z"/>
	<path style="fill:#A09398;" d="M94.55,50.313c-1.336,0.88-2.399,1.485-2.951,1.85c0.409-0.074,0.83-0.148,1.265-0.221
		c0.854-0.41,1.978-1.021,3.248-1.814C95.566,50.182,95.045,50.246,94.55,50.313L94.55,50.313z M108.961,25.106
		c-0.014,0.004-0.029,0.008-0.044,0.012c-0.28,0.099-0.509,0.241-0.638,0.443c0.775,0.322,1.394,0.385,1.971,0.354
		C109.984,25.416,109.434,24.977,108.961,25.106L108.961,25.106z"/>
</g>
<g>
	
		<ellipse transform="matrix(0.6227 -0.7824 0.7824 0.6227 55.4448 168.426)" style="fill:#694223;" cx="202.38" cy="26.717" rx="0.003" ry="0.003"/>
	<path style="fill:#F1EBEB;" d="M149.848,25.059c0,0,1.045-4.731,6.433-5.144c5.397-0.425,15.075-3.059,16.514-7.106
		c1.449-4.052,3.558,0.592,5.927,1.518c2.37,0.926,10.468-1.277,11.71-5.272c1.242-3.997,4.864-0.019,5.924,0.737
		c1.06,0.757,7.291-2.764,12.574,6.497c5.28,9.264-2.666,21.355-16.488,20.416c-13.821-0.94-15.263,3.098-25.467,0.657
		C156.77,34.918,144.14,35.225,149.848,25.059L149.848,25.059z"/>
	<path style="fill:#CBC6C9;" d="M211.451,18.86c2.12,7.793-3.023,16.044-11.959,18.495c-2.169,0.591-4.558,0.841-7.133,0.676
		c-13.373-0.956-14.893,3.146-25.696,0.627c-7.611-2.053-17.148-1.543-19.385-7.745c-0.491-1.848-0.016-3.937,1.317-6.355
		c0.255-0.924,1.511-4.479,5.779-5.684c0.558-0.152,1.172-0.266,1.821-0.316c1.767-0.134,4.114-0.539,6.43-1.169
		c4.351-1.091,8.516-3.372,8.905-5.038c0.426-1.149,0.967-2.107,2.125-2.455c3.259-0.19,4.258,3.016,5.556,3.18
		c0.346,0.181,2.123,0.169,3.889-0.352c2.794-0.696,5.7-2.531,6.042-4.068c0.382-1.264,1.173-2.312,2.314-2.611
		c2.77-0.47,4.653,1.875,5.479,2.514c0.981-0.002,8.358-1.937,13.159,7.066C210.705,16.66,211.163,17.759,211.451,18.86
		L211.451,18.86z M195.575,10.88c-0.846-0.825-2.977-2.375-3.357-2.271l-0.053,0.037c0.002,0.008-0.164-0.019-0.445,0.806
		c-1.116,3.255-4.724,4.952-7.912,5.872c-2.137,0.551-4.021,0.79-5.566,0.262c-1.312-0.561-2.189-1.533-2.961-2.241
		c-0.367-0.343-0.703-0.609-0.908-0.745c-0.082,0.13-0.181,0.345-0.298,0.651c-1.458,3.591-6.153,5.396-10.743,6.73
		c-2.484,0.676-4.938,1.109-6.931,1.263c-0.474,0.043-0.916,0.123-1.317,0.232c-1.615,0.416-2.584,1.386-3.15,2.249
		c-0.568,0.859-0.73,1.621-0.762,1.619l-1.325-0.294l1.182,0.659c-1.229,2.188-1.395,3.626-1.158,4.499
		c0.302,3.123,9.316,4.138,17.41,5.835c9.618,2.38,10.991-1.599,25.26-0.685c2.285,0.148,4.372-0.084,6.248-0.594
		c7.709-2.107,11.744-9.023,10.072-15.199c-0.237-0.874-0.602-1.743-1.091-2.614c-2.526-4.37-4.957-5.437-6.926-5.776
		C198.657,10.693,197.722,11.792,195.575,10.88L195.575,10.88z"/>
	<path style="fill:#D8CDCE;" d="M197.583,11.248c0.03,0.059,0.059,0.119,0.082,0.18l0.117,0.273
		c2.118,11.166-7.954,19.776-14.338,23.761c1.355-0.138,2.881-0.23,4.647-0.241c8.172-5.145,11.901-18.312,10.607-21.776
		c-0.279-0.749-0.253-1.107-0.021-1.17c0.867-0.236,4.58,3.574,6.197,6.405c3.955,6.934-0.443,14.069-9.612,16.564
		c-0.183,0.05-0.368,0.097-0.557,0.142c1.454-0.059,2.816-0.276,4.08-0.62c7.709-2.107,11.744-9.023,10.072-15.199
		c-0.237-0.874-0.602-1.743-1.091-2.614c-2.526-4.37-4.957-5.437-6.926-5.776C199.464,10.872,198.583,11.195,197.583,11.248
		L197.583,11.248z M189.622,12.449c-1.617,1.399-3.799,2.295-5.814,2.874c-1.614,0.415-3.087,0.655-4.377,0.518
		c-0.26,1.306-2.784,11.791-16.243,15.453c-3.044,0.828-6.645,1.307-10.907,1.252c3.274,1.463,9.359,2.315,14.999,3.497
		c3.826,0.947,6.347,0.889,8.895,0.531c-4.428-0.16-13.877-1.97-13.903-1.972c0.672-0.119,1.323-0.265,1.953-0.436
		c11.564-3.147,16.204-14.64,17.086-16.909c0.436-1.131,2.116-1.597,3.847-2.067c0.034-0.01,0.071-0.02,0.105-0.028
		c1.895-0.516,3.827-1.042,4.262-2.437C189.553,12.63,189.585,12.537,189.622,12.449L189.622,12.449z M192.218,8.608l-0.053,0.037
		c0.002,0.008-0.164-0.019-0.445,0.806c-0.191,0.556-0.453,1.065-0.774,1.534c0.13-0.064,0.264-0.114,0.398-0.151
		c1.056-0.287,2.198,0.222,2.527,1.564c1.268,5.232-3.525,14.326-15.7,23.852c1.137-0.196,2.337-0.417,3.712-0.603
		c5.071-3.335,14.068-10.572,13.926-23.06l-0.275-1.013c-0.071-0.281-0.033-0.504,0.079-0.68c-0.012-0.005-0.023-0.011-0.037-0.015
		C194.73,10.055,192.599,8.505,192.218,8.608L192.218,8.608z M158.343,30.151c-0.087,0.023-0.172,0.045-0.249,0.063
		c-3.354,0.809-3.948-1.686-2.328-4.215c0,0,0.696-3.114,4.06-4.029c0.398-0.108,0.833-0.186,1.309-0.224
		c1.555-0.128,3.539-0.473,5.517-1.011c3.72-1.013,7.416-2.702,8.206-4.884c0.294-0.837,0.627-1.222,0.989-1.321
		c0.407-0.11,0.852,0.139,1.323,0.523C174.393,23.584,162.042,29.146,158.343,30.151L158.343,30.151z M174.372,12.599
		c-0.082,0.13-0.181,0.345-0.298,0.651c-1.458,3.591-6.153,5.396-10.743,6.73c-2.484,0.676-4.938,1.109-6.931,1.263
		c-0.474,0.043-0.916,0.123-1.317,0.232c-0.023,0.004-0.048,0.011-0.07,0.017c-1.574,0.429-2.523,1.383-3.08,2.232
		c-0.564,0.854-0.727,1.609-0.762,1.619l0,0l-1.319-0.293v0.002l1.176,0.656c-1.229,2.188-1.395,3.626-1.158,4.499
		c0.079,0.819,0.761,1.495,1.864,2.075c0.266-0.028,0.551-0.06,0.855-0.096c1.795-0.214,4.252-0.604,6.931-1.334
		c7.067-1.923,15.689-6.188,17.812-15.666c0.007-0.025,0.013-0.052,0.02-0.078c-0.846-0.545-1.49-1.23-2.072-1.766
		C174.913,13.001,174.577,12.734,174.372,12.599L174.372,12.599z"/>
	<path style="fill:#B6ACB0;" d="M149.705,32.451c2.087,2.023,6.458,2.842,11.162,3.693c2.026,0.365,4.11,0.736,6.106,1.217
		c0.327,0.079,0.627,0.136,0.941,0.207c4.663,0.976,7.466,0.552,10.745-0.025c0.091-0.017,0.182-0.032,0.271-0.048
		c0.552-0.364,1.615-0.97,2.951-1.85c-1.375,0.186-2.575,0.406-3.712,0.603c-0.111,0.089-0.224,0.177-0.338,0.265
		c-0.393,0.069-0.964,0.086-1.659,0.061c-2.548,0.357-5.068,0.416-8.895-0.531c-5.64-1.182-11.725-2.034-14.999-3.497
		C151.445,32.534,150.59,32.504,149.705,32.451L149.705,32.451z M174.001,11.21c-0.44,0.12-0.842,0.592-1.204,1.609
		c-0.939,2.631-5.374,4.665-9.844,5.881c-2.39,0.65-4.79,1.067-6.673,1.215c-0.566,0.044-1.084,0.138-1.559,0.267
		c-4.037,1.099-4.883,4.879-4.883,4.879c-1.988,3.548-1.744,5.821-0.146,7.379c0.229-0.014,0.955-0.049,2.041-0.156
		c-1.104-0.58-1.785-1.256-1.864-2.075c-0.237-0.873-0.07-2.311,1.158-4.499l-1.176-0.656l-0.006-0.003l0.006,0.001l1.319,0.293l0,0
		c0.035-0.01,0.198-0.766,0.762-1.619c0.557-0.85,1.506-1.804,3.08-2.232c0.023-0.006,0.047-0.013,0.07-0.017
		c0.401-0.109,0.844-0.189,1.317-0.232c1.993-0.153,4.446-0.587,6.931-1.263c4.59-1.335,9.285-3.14,10.743-6.73
		c0.117-0.307,0.216-0.521,0.298-0.651c0.205,0.136,0.541,0.402,0.908,0.745c0.582,0.535,1.227,1.221,2.072,1.766
		c0.112-0.408,0.394-0.708,0.74-0.803c0.149-0.04,0.309-0.045,0.474-0.002c0.585,0.136,0.988,0.765,0.89,1.401
		c-0.002,0.01-0.009,0.055-0.025,0.135c1.29,0.138,2.763-0.103,4.377-0.518c2.016-0.579,4.197-1.475,5.814-2.874
		c0.289-0.712,0.776-1.201,1.323-1.464c0.321-0.469,0.583-0.979,0.774-1.534c0.281-0.825,0.447-0.798,0.445-0.806l0.053-0.037
		c0.381-0.104,2.512,1.446,3.357,2.271c0.014,0.004,0.025,0.01,0.037,0.015c0.129-0.202,0.357-0.345,0.638-0.443
		c0.015-0.004,0.03-0.008,0.044-0.012c0.473-0.129,1.023,0.309,1.289,0.809c1-0.053,1.881-0.376,3.26-0.073
		c1.969,0.339,4.399,1.406,6.926,5.776c0.489,0.871,0.854,1.74,1.091,2.614c1.672,6.176-2.363,13.092-10.072,15.199
		c-1.265,0.344-2.626,0.562-4.08,0.62c-0.8,0.197-1.635,0.36-2.503,0.487c-1.601,0.235-5.068-0.076-4.517-0.405
		c0.136-0.081,0.27-0.162,0.404-0.247c-1.767,0.011-3.292,0.104-4.647,0.241c-1.271,0.794-2.395,1.404-3.248,1.814
		c1.742-0.293,3.707-0.564,6.169-0.669c1.739-0.073,3.714-0.062,6.075,0.098c2.422,0.162,4.662-0.072,6.685-0.622
		c9.516-2.589,14.159-12.152,9.804-19.794c-3.488-6.112-7.375-6.646-9.926-6.532c-1.325,0.055-2.302,0.3-2.648,0.035
		c-0.39-0.273-1.148-1.006-2.006-1.604c-0.826-0.584-1.757-1.041-2.539-0.828c-0.564,0.153-1.053,0.654-1.376,1.703
		c-0.759,2.408-4.005,4.16-6.983,4.971c-0.443,0.121-0.881,0.221-1.303,0.298c-1.435,0.264-2.695,0.28-3.427-0.005
		c-0.389-0.146-0.763-0.403-1.139-0.702C176.245,12.57,175.026,10.932,174.001,11.21L174.001,11.21z"/>
	<path style="fill:#BEAFB1;" d="M177.352,15.109c0.274,0.176,0.568,0.338,0.889,0.476c0.375,0.129,0.773,0.212,1.189,0.256
		c-0.26,1.306-2.784,11.791-16.243,15.453c-3.044,0.828-6.645,1.307-10.907,1.252c-0.193-0.085-0.375-0.174-0.547-0.263
		c0.266-0.028,0.551-0.06,0.855-0.096c1.795-0.214,4.252-0.604,6.931-1.334c7.067-1.923,15.689-6.188,17.812-15.666
		C177.339,15.162,177.345,15.136,177.352,15.109L177.352,15.109z"/>
	<path style="fill:#A09398;" d="M149.692,32.439c0.005,0.005,0.008,0.008,0.013,0.012c0.885,0.053,1.74,0.083,2.575,0.095
		c-0.193-0.085-0.375-0.174-0.547-0.263C150.648,32.391,149.921,32.426,149.692,32.439L149.692,32.439z M178.093,14.307
		c-0.347,0.095-0.628,0.395-0.74,0.803c0.274,0.176,0.568,0.338,0.889,0.476c0.375,0.129,0.773,0.212,1.189,0.256
		c0.017-0.08,0.023-0.125,0.025-0.135c0.099-0.637-0.305-1.266-0.89-1.401C178.401,14.262,178.242,14.267,178.093,14.307
		L178.093,14.307z"/>
	<path style="fill:#BEAFB1;" d="M195.612,10.894c0.775,0.322,1.394,0.385,1.971,0.354c0.03,0.059,0.059,0.119,0.082,0.18
		l0.117,0.273c2.118,11.166-7.954,19.776-14.338,23.761c-0.545,0.055-1.066,0.118-1.562,0.186
		c5.071-3.335,14.068-10.572,13.926-23.06l-0.275-1.013C195.462,11.293,195.5,11.07,195.612,10.894L195.612,10.894z"/>
	<path style="fill:#A09398;" d="M181.883,35.646c-1.336,0.88-2.399,1.485-2.951,1.85c0.409-0.074,0.83-0.148,1.265-0.221
		c0.854-0.41,1.977-1.02,3.248-1.814C182.899,35.516,182.378,35.579,181.883,35.646L181.883,35.646z M196.294,10.439
		c-0.014,0.004-0.029,0.008-0.044,0.012c-0.28,0.099-0.509,0.241-0.638,0.443c0.775,0.322,1.394,0.385,1.971,0.354
		C197.317,10.749,196.767,10.311,196.294,10.439L196.294,10.439z"/>
</g>
<g>
	
		<ellipse transform="matrix(0.6237 -0.7816 0.7816 0.6237 89.0551 243.7627)" style="fill:#694223;" cx="297.713" cy="29.384" rx="0.003" ry="0.003"/>
	<path style="fill:#F1EBEB;" d="M245.181,27.726c0,0,1.045-4.731,6.433-5.144c5.397-0.425,15.075-3.059,16.514-7.106
		c1.449-4.052,3.558,0.592,5.927,1.518c2.37,0.926,10.468-1.277,11.71-5.272c1.242-3.997,4.864-0.019,5.924,0.737
		c1.06,0.757,7.291-2.764,12.574,6.497c5.28,9.264-2.666,21.355-16.488,20.416c-13.821-0.94-15.263,3.098-25.467,0.657
		C252.102,37.585,239.473,37.892,245.181,27.726L245.181,27.726z"/>
	<path style="fill:#CBC6C9;" d="M306.784,21.527c2.12,7.793-3.023,16.044-11.959,18.495c-2.169,0.591-4.558,0.841-7.133,0.676
		c-13.373-0.956-14.893,3.146-25.696,0.627c-7.611-2.053-17.148-1.543-19.385-7.745c-0.491-1.848-0.016-3.937,1.317-6.355
		c0.255-0.924,1.511-4.479,5.779-5.684c0.558-0.152,1.172-0.266,1.821-0.316c1.767-0.134,4.114-0.539,6.43-1.169
		c4.351-1.091,8.516-3.372,8.905-5.038c0.426-1.149,0.967-2.107,2.125-2.455c3.259-0.19,4.258,3.016,5.556,3.18
		c0.346,0.181,2.123,0.169,3.889-0.352c2.794-0.696,5.7-2.531,6.042-4.068c0.382-1.264,1.173-2.312,2.314-2.611
		c2.77-0.47,4.653,1.875,5.479,2.514c0.98-0.002,8.358-1.936,13.159,7.066C306.038,19.327,306.496,20.426,306.784,21.527
		L306.784,21.527z M290.908,13.547c-0.846-0.825-2.977-2.375-3.357-2.271l-0.053,0.037c0.002,0.008-0.164-0.019-0.445,0.806
		c-1.116,3.255-4.724,4.952-7.912,5.872c-2.137,0.551-4.021,0.79-5.566,0.262c-1.312-0.561-2.189-1.533-2.961-2.241
		c-0.367-0.343-0.703-0.609-0.908-0.745c-0.082,0.13-0.181,0.345-0.298,0.651c-1.458,3.591-6.153,5.396-10.743,6.73
		c-2.484,0.676-4.938,1.109-6.931,1.263c-0.474,0.043-0.916,0.123-1.317,0.232c-1.615,0.416-2.584,1.386-3.15,2.249
		c-0.568,0.859-0.73,1.621-0.762,1.619l-1.325-0.294l1.182,0.659c-1.229,2.188-1.396,3.626-1.158,4.499
		c0.302,3.123,9.315,4.138,17.41,5.835c9.618,2.38,10.991-1.599,25.26-0.685c2.285,0.148,4.372-0.084,6.248-0.594
		c7.709-2.107,11.744-9.023,10.072-15.199c-0.237-0.874-0.602-1.743-1.091-2.614c-2.526-4.37-4.957-5.437-6.926-5.776
		C293.99,13.36,293.055,14.459,290.908,13.547L290.908,13.547z"/>
	<path style="fill:#D8CDCE;" d="M292.916,13.915c0.03,0.059,0.059,0.119,0.082,0.18l0.117,0.273
		c2.118,11.166-7.954,19.776-14.338,23.761c1.355-0.138,2.881-0.23,4.647-0.241c8.172-5.145,11.901-18.312,10.607-21.776
		c-0.279-0.749-0.253-1.106-0.021-1.17c0.867-0.236,4.58,3.574,6.197,6.405c3.955,6.934-0.443,14.069-9.612,16.564
		c-0.183,0.05-0.368,0.097-0.557,0.142c1.454-0.059,2.815-0.276,4.08-0.62c7.709-2.107,11.744-9.023,10.072-15.199
		c-0.237-0.874-0.602-1.743-1.091-2.614c-2.526-4.37-4.957-5.437-6.926-5.776C294.797,13.539,293.916,13.862,292.916,13.915
		L292.916,13.915z M284.955,15.116c-1.617,1.399-3.799,2.295-5.815,2.874c-1.614,0.415-3.087,0.655-4.377,0.518
		c-0.26,1.306-2.784,11.791-16.243,15.453c-3.044,0.828-6.646,1.307-10.907,1.252c3.274,1.463,9.359,2.315,14.999,3.497
		c3.826,0.947,6.347,0.889,8.895,0.531c-4.428-0.16-13.877-1.97-13.903-1.972c0.672-0.119,1.323-0.265,1.953-0.436
		c11.564-3.147,16.204-14.64,17.086-16.909c0.436-1.131,2.116-1.597,3.847-2.067c0.034-0.01,0.071-0.02,0.105-0.028
		c1.895-0.516,3.827-1.042,4.262-2.437C284.886,15.297,284.918,15.204,284.955,15.116L284.955,15.116z M287.551,11.275l-0.053,0.037
		c0.002,0.008-0.164-0.019-0.445,0.806c-0.191,0.556-0.453,1.065-0.774,1.534c0.13-0.064,0.264-0.114,0.398-0.151
		c1.056-0.287,2.198,0.222,2.527,1.563c1.268,5.232-3.525,14.326-15.7,23.852c1.137-0.196,2.337-0.417,3.712-0.603
		c5.071-3.335,14.068-10.572,13.926-23.06l-0.275-1.013c-0.071-0.281-0.033-0.504,0.079-0.68c-0.012-0.005-0.023-0.011-0.037-0.015
		C290.062,12.722,287.932,11.172,287.551,11.275L287.551,11.275z M253.676,32.818c-0.087,0.023-0.172,0.045-0.249,0.063
		c-3.354,0.809-3.948-1.686-2.328-4.215c0,0,0.696-3.114,4.06-4.029c0.398-0.108,0.833-0.186,1.309-0.224
		c1.555-0.128,3.539-0.473,5.517-1.011c3.72-1.013,7.416-2.702,8.206-4.884c0.294-0.837,0.627-1.222,0.989-1.321
		c0.407-0.11,0.852,0.139,1.323,0.523C269.726,26.251,257.375,31.812,253.676,32.818L253.676,32.818z M269.705,15.266
		c-0.082,0.13-0.181,0.345-0.298,0.651c-1.458,3.591-6.153,5.396-10.743,6.73c-2.484,0.676-4.938,1.109-6.931,1.263
		c-0.474,0.043-0.916,0.123-1.317,0.232c-0.023,0.004-0.048,0.011-0.07,0.017c-1.574,0.429-2.523,1.383-3.08,2.232
		c-0.563,0.854-0.727,1.609-0.762,1.619l0,0l-1.319-0.293v0.002l1.176,0.656c-1.229,2.188-1.396,3.626-1.158,4.499
		c0.079,0.819,0.761,1.495,1.864,2.075c0.266-0.028,0.551-0.06,0.855-0.096c1.795-0.214,4.252-0.604,6.931-1.334
		c7.067-1.923,15.689-6.188,17.813-15.666c0.007-0.025,0.013-0.052,0.02-0.078c-0.846-0.545-1.49-1.23-2.072-1.766
		C270.246,15.668,269.91,15.401,269.705,15.266L269.705,15.266z"/>
	<path style="fill:#B6ACB0;" d="M245.038,35.118c2.087,2.023,6.458,2.842,11.162,3.693c2.026,0.365,4.11,0.736,6.106,1.217
		c0.327,0.079,0.627,0.136,0.941,0.207c4.663,0.976,7.466,0.552,10.745-0.025c0.091-0.017,0.182-0.032,0.271-0.048
		c0.552-0.364,1.615-0.97,2.951-1.85c-1.375,0.186-2.575,0.406-3.712,0.603c-0.111,0.089-0.224,0.177-0.338,0.265
		c-0.393,0.069-0.964,0.086-1.659,0.061c-2.548,0.357-5.068,0.416-8.895-0.531c-5.64-1.182-11.725-2.034-14.999-3.497
		C246.778,35.201,245.923,35.171,245.038,35.118L245.038,35.118z M269.334,13.877c-0.44,0.12-0.842,0.592-1.204,1.609
		c-0.939,2.631-5.374,4.665-9.844,5.881c-2.39,0.65-4.79,1.067-6.673,1.215c-0.566,0.044-1.084,0.138-1.559,0.267
		c-4.037,1.099-4.883,4.879-4.883,4.879c-1.988,3.548-1.744,5.821-0.146,7.379c0.229-0.014,0.955-0.049,2.041-0.156
		c-1.104-0.58-1.785-1.256-1.864-2.075c-0.237-0.873-0.07-2.311,1.158-4.499l-1.176-0.656l-0.006-0.003l0.006,0.001l1.319,0.293l0,0
		c0.035-0.01,0.198-0.766,0.762-1.619c0.557-0.85,1.506-1.804,3.08-2.232c0.022-0.006,0.047-0.013,0.07-0.017
		c0.401-0.109,0.844-0.189,1.317-0.232c1.993-0.153,4.446-0.587,6.931-1.263c4.59-1.335,9.285-3.14,10.743-6.73
		c0.117-0.307,0.216-0.521,0.298-0.651c0.205,0.136,0.541,0.402,0.908,0.745c0.582,0.535,1.227,1.221,2.072,1.766
		c0.112-0.408,0.394-0.708,0.74-0.803c0.149-0.04,0.309-0.045,0.474-0.002c0.585,0.136,0.988,0.765,0.89,1.401
		c-0.002,0.01-0.009,0.055-0.025,0.135c1.29,0.138,2.763-0.103,4.377-0.518c2.016-0.579,4.197-1.475,5.815-2.874
		c0.289-0.712,0.776-1.201,1.323-1.464c0.321-0.469,0.583-0.978,0.774-1.534c0.281-0.825,0.447-0.798,0.445-0.806l0.053-0.037
		c0.381-0.104,2.512,1.446,3.357,2.271c0.014,0.004,0.025,0.01,0.037,0.015c0.129-0.202,0.357-0.345,0.638-0.443
		c0.015-0.004,0.03-0.008,0.044-0.012c0.473-0.129,1.023,0.31,1.289,0.809c1-0.053,1.881-0.376,3.26-0.073
		c1.969,0.339,4.399,1.406,6.926,5.776c0.489,0.871,0.854,1.74,1.091,2.614c1.672,6.176-2.363,13.092-10.072,15.199
		c-1.265,0.344-2.626,0.562-4.08,0.62c-0.8,0.197-1.635,0.36-2.503,0.487c-1.601,0.235-5.068-0.076-4.517-0.405
		c0.136-0.081,0.27-0.162,0.404-0.247c-1.767,0.011-3.292,0.104-4.647,0.241c-1.271,0.794-2.395,1.404-3.248,1.815
		c1.742-0.293,3.707-0.565,6.169-0.669c1.739-0.073,3.714-0.062,6.075,0.098c2.422,0.162,4.662-0.072,6.685-0.622
		c9.516-2.589,14.159-12.152,9.804-19.794c-3.488-6.112-7.375-6.646-9.926-6.532c-1.325,0.055-2.302,0.3-2.648,0.035
		c-0.39-0.273-1.148-1.006-2.006-1.604c-0.826-0.584-1.757-1.041-2.539-0.828c-0.565,0.153-1.053,0.654-1.376,1.703
		c-0.759,2.408-4.005,4.16-6.983,4.971c-0.443,0.121-0.881,0.221-1.303,0.298c-1.435,0.264-2.695,0.28-3.427-0.005
		c-0.389-0.146-0.763-0.403-1.139-0.702C271.578,15.237,270.359,13.599,269.334,13.877L269.334,13.877z"/>
	<path style="fill:#BEAFB1;" d="M272.685,17.776c0.274,0.176,0.568,0.338,0.889,0.476c0.375,0.129,0.773,0.212,1.19,0.256
		c-0.26,1.306-2.784,11.791-16.243,15.453c-3.044,0.828-6.646,1.307-10.907,1.252c-0.193-0.085-0.375-0.174-0.547-0.263
		c0.266-0.028,0.551-0.06,0.855-0.096c1.795-0.214,4.252-0.604,6.931-1.334c7.067-1.923,15.689-6.188,17.813-15.666
		C272.672,17.829,272.678,17.803,272.685,17.776L272.685,17.776z"/>
	<path style="fill:#A09398;" d="M245.025,35.106c0.005,0.005,0.008,0.008,0.013,0.012c0.885,0.053,1.74,0.083,2.575,0.095
		c-0.193-0.085-0.375-0.174-0.547-0.263C245.98,35.058,245.254,35.093,245.025,35.106L245.025,35.106z M273.426,16.974
		c-0.347,0.095-0.628,0.395-0.74,0.803c0.274,0.176,0.568,0.338,0.889,0.476c0.375,0.129,0.773,0.212,1.19,0.256
		c0.017-0.08,0.023-0.125,0.025-0.135c0.099-0.637-0.305-1.266-0.89-1.401C273.734,16.929,273.575,16.934,273.426,16.974
		L273.426,16.974z"/>
	<path style="fill:#BEAFB1;" d="M290.945,13.561c0.775,0.322,1.394,0.385,1.971,0.354c0.03,0.059,0.059,0.119,0.082,0.18
		l0.117,0.273c2.118,11.166-7.954,19.776-14.338,23.761c-0.545,0.055-1.066,0.118-1.562,0.186
		c5.071-3.335,14.068-10.572,13.926-23.06l-0.275-1.013C290.795,13.96,290.833,13.737,290.945,13.561L290.945,13.561z"/>
	<path style="fill:#A09398;" d="M277.216,38.313c-1.336,0.88-2.399,1.485-2.951,1.85c0.409-0.074,0.83-0.149,1.265-0.221
		c0.854-0.41,1.978-1.021,3.248-1.815C278.232,38.183,277.711,38.246,277.216,38.313L277.216,38.313z M291.627,13.106
		c-0.014,0.004-0.029,0.008-0.044,0.012c-0.28,0.099-0.509,0.241-0.638,0.443c0.775,0.322,1.394,0.385,1.971,0.354
		C292.65,13.416,292.1,12.977,291.627,13.106L291.627,13.106z"/>
</g>
</svg>
