<?xml version="1.0" encoding="iso-8859-1"?>
<!-- Generator: Adobe Illustrator 21.1.0, SVG Export Plug-In . SVG Version: 6.00 Build 0)  -->
<svg version="1.1" id="Layer_1" xmlns="http://www.w3.org/2000/svg" xmlns:xlink="http://www.w3.org/1999/xlink" x="0px" y="0px"
	 viewBox="0 0 145.02 173.263" style="enable-background:new 0 0 145.02 173.263;" xml:space="preserve">
<path style="fill:#39A935;" d="M76.667,164.333c-0.248-0.004-8.598-15.035-12.082-33.313c-2.051-10.757-1.947-20.727,0.305-29.634
	c2.83-11.191,9.081-20.729,18.579-28.35l2.62,1.266c-20.775,16.666-21.37,39.911-18.213,56.475
	c3.439,18.032,12.842,33.499,12.602,33.519C79.753,164.355,77.937,164.355,76.667,164.333z"/>
<circle style="fill:#A2008B;stroke:#000000;stroke-miterlimit:10;" cx="72.878" cy="72.38" r="32.875"/>
<g>
	<g>
		<path style="fill:#EB008B;" d="M97.327,15.565c-4.951-3.839-13.197-3.581-15.315-3.448c0,0-9.586-4.137-16.357-1.586
			c-29.617,11.175-2.013,44.208,0.558,47.068c3.716,4.139,4.533,13.964,4.533,13.964l3.684,0.553c0,0,3.706-8.887,8.478-11.741
			C86.207,58.398,122.329,34.982,97.327,15.565z"/>
		<path d="M97.267,15.645c-2.122-1.605-4.71-2.471-7.316-2.894c-2.614-0.442-5.292-0.445-7.913-0.222l-0.08,0.007l-0.11-0.039
			c-3.411-1.238-7.068-2.015-10.638-2.019c-1.782-0.006-3.548,0.241-5.148,0.83c-1.679,0.646-3.309,1.422-4.847,2.326
			c-3.054,1.826-5.701,4.341-7.17,7.567c-1.49,3.215-1.709,6.954-1.167,10.542c0.534,3.612,1.818,7.107,3.413,10.417
			c1.632,3.301,3.583,6.444,5.737,9.432c1.092,1.483,2.232,2.933,3.423,4.33c0.588,0.725,1.218,1.308,1.842,2.128
			c0.584,0.784,1.057,1.628,1.465,2.493c1.603,3.488,2.37,7.183,2.829,10.948l-0.718-0.767l3.692,0.497l-0.967,0.545
			c1.22-2.837,2.648-5.515,4.474-8.036c0.921-1.249,1.947-2.453,3.221-3.481c0.32-0.255,0.656-0.498,1.014-0.72l0.925-0.59
			c0.613-0.402,1.22-0.823,1.824-1.246c2.423-1.688,4.75-3.521,6.974-5.46c2.228-1.933,4.341-3.998,6.247-6.227
			c1.918-2.216,3.646-4.596,4.985-7.174c1.339-2.568,2.269-5.385,2.332-8.296c0.073-2.904-0.765-5.829-2.301-8.362
			C101.751,19.634,99.607,17.489,97.267,15.645z M97.388,15.486c2.374,1.829,4.567,3.945,6.261,6.461
			c1.701,2.497,2.816,5.477,2.933,8.578c0.149,3.098-0.616,6.195-1.862,9.009c-1.258,2.824-2.988,5.393-4.918,7.759
			c-3.913,4.705-8.557,8.686-13.535,12.147c-0.625,0.431-1.26,0.848-1.905,1.256l-0.979,0.601c-0.281,0.168-0.557,0.358-0.826,0.565
			c-1.077,0.834-2.038,1.906-2.911,3.049c-1.735,2.298-3.193,4.913-4.382,7.553l-0.296,0.656l-0.672-0.111l-3.675-0.608l-0.665-0.11
			l-0.053-0.656c-0.144-1.781-0.413-3.609-0.781-5.381c-0.372-1.776-0.83-3.54-1.517-5.194c-0.342-0.826-0.743-1.625-1.231-2.35
			c-0.458-0.685-1.155-1.407-1.703-2.144c-1.15-1.469-2.239-2.979-3.279-4.521c-2.101-3.068-4.024-6.263-5.645-9.614
			c-1.637-3.339-3.002-6.839-3.758-10.528c-0.749-3.665-0.757-7.648,0.706-11.276c1.419-3.646,4.319-6.579,7.601-8.521
			c1.639-0.999,3.385-1.777,5.173-2.426c1.888-0.677,3.87-0.817,5.78-0.739c3.84,0.231,7.475,1.308,10.928,2.802l-0.189-0.033
			c2.704-0.077,5.396,0.167,8.03,0.691c1.318,0.263,2.609,0.649,3.862,1.132C95.126,14.016,96.328,14.665,97.388,15.486z"/>
	</g>
	<g>
		<path style="fill:#EB008B;" d="M24.208,31.791c-5.185,3.523-7.487,11.443-8.014,13.503c0,0-6.896,7.843-6.556,15.066
			c1.469,31.616,41.419,15.569,44.934,14.009c5.08-2.255,14.679,0.008,14.679,0.008l1.667-3.332c0,0-7.311-6.273-8.551-11.69
			C61.51,55.603,50.396,14.014,24.208,31.791z"/>
		<path d="M24.265,31.873c-2.183,1.522-3.807,3.715-5.016,6.065c-1.229,2.35-2.06,4.897-2.655,7.458l-0.019,0.079l-0.071,0.092
			c-2.23,2.862-4.099,6.101-5.204,9.494c-0.556,1.693-0.866,3.449-0.798,5.153c0.096,1.798,0.33,3.587,0.715,5.329
			c0.792,3.468,2.366,6.762,4.981,9.156c2.598,2.41,6.086,3.772,9.667,4.364c3.6,0.607,7.32,0.465,10.961-0.029
			c3.644-0.532,7.235-1.417,10.742-2.542c1.749-0.58,3.479-1.216,5.176-1.918c0.872-0.335,1.621-0.753,2.593-1.093
			c0.926-0.313,1.875-0.503,2.824-0.624c3.812-0.446,7.563-0.031,11.285,0.697l-0.951,0.445l1.616-3.357l0.22,1.089
			c-2.322-2.037-4.427-4.222-6.262-6.736c-0.902-1.262-1.732-2.609-2.316-4.139c-0.145-0.383-0.271-0.778-0.373-1.187l-0.275-1.063
			c-0.193-0.707-0.405-1.414-0.621-2.119c-0.856-2.826-1.88-5.606-3.037-8.32c-1.15-2.716-2.461-5.363-3.992-7.866
			c-1.515-2.508-3.244-4.888-5.283-6.959c-2.029-2.067-4.421-3.822-7.17-4.782c-2.739-0.967-5.78-1.075-8.664-0.396
			C29.443,28.841,26.741,30.216,24.265,31.873z M24.15,31.709c2.473-1.693,5.164-3.125,8.08-3.958c2.9-0.846,6.08-0.985,9.064-0.137
			c2.993,0.816,5.701,2.5,7.993,4.556c2.297,2.069,4.206,4.508,5.859,7.075c3.266,5.175,5.617,10.822,7.371,16.628
			c0.216,0.728,0.417,1.46,0.606,2.201l0.268,1.116c0.073,0.319,0.169,0.641,0.283,0.96c0.46,1.281,1.184,2.527,2.001,3.71
			c1.651,2.359,3.688,4.554,5.831,6.501l0.534,0.484l-0.314,0.605l-1.717,3.306l-0.311,0.598l-0.641-0.153
			c-1.737-0.415-3.559-0.724-5.358-0.922c-1.804-0.196-3.622-0.306-5.408-0.165c-0.891,0.07-1.774,0.205-2.615,0.445
			c-0.793,0.225-1.696,0.664-2.565,0.956c-1.753,0.64-3.525,1.209-5.313,1.721c-3.567,1.05-7.199,1.892-10.887,2.398
			c-3.681,0.526-7.43,0.742-11.172,0.323c-3.716-0.419-7.508-1.641-10.507-4.152c-3.029-2.476-4.924-6.139-5.756-9.86
			c-0.443-1.867-0.644-3.769-0.708-5.668c-0.063-2.005,0.415-3.933,1.079-5.727c1.405-3.581,3.551-6.705,6.039-9.528l-0.09,0.17
			c0.76-2.597,1.825-5.082,3.138-7.426c0.658-1.171,1.425-2.28,2.271-3.323C22.053,33.405,23.042,32.463,24.15,31.709z"/>
	</g>
	<g>
		<path style="fill:#EB008B;" d="M17.043,106.345c1.749,6.02,8.572,10.656,10.366,11.791c0,0,5.322,8.986,12.301,10.898
			c30.528,8.367,27.614-34.585,27.211-38.408c-0.575-5.532,4.539-13.96,4.539-13.96l-2.649-2.614c0,0-8.223,5.013-13.764,4.519
			C51.219,78.227,8.229,75.943,17.043,106.345z"/>
		<path d="M17.139,106.315c0.773,2.547,2.357,4.769,4.218,6.644c1.856,1.895,4.021,3.471,6.274,4.828l0.069,0.041l0.066,0.097
			c2.031,3.007,4.533,5.786,7.417,7.887c1.438,1.052,3.012,1.891,4.654,2.354c1.738,0.464,3.513,0.795,5.289,0.967
			c3.544,0.318,7.164-0.161,10.249-1.907c3.095-1.725,5.471-4.621,7.141-7.843c1.691-3.236,2.706-6.819,3.362-10.434
			c0.62-3.63,0.889-7.319,0.902-11.002c-0.012-1.842-0.082-3.685-0.225-5.516c-0.05-0.933-0.217-1.774-0.24-2.804
			c-0.012-0.978,0.101-1.939,0.278-2.879c0.753-3.764,2.305-7.205,4.146-10.521l0.129,1.042l-2.688-2.574l1.104,0.128
			c-2.654,1.579-5.384,2.905-8.342,3.873c-1.479,0.468-3.016,0.841-4.651,0.924c-0.409,0.019-0.823,0.018-1.243-0.012l-1.097-0.066
			c-0.732-0.035-1.47-0.052-2.208-0.064c-2.952-0.059-5.913,0.056-8.851,0.318c-2.939,0.254-5.862,0.683-8.714,1.365
			c-2.854,0.665-5.651,1.575-8.251,2.874c-2.593,1.29-5.001,3.023-6.764,5.341c-1.766,2.306-2.808,5.165-3.054,8.118
			C15.856,100.453,16.329,103.448,17.139,106.315z M16.947,106.374c-0.846-2.876-1.377-5.877-1.267-8.907
			c0.091-3.02,0.942-6.087,2.67-8.664c1.701-2.594,4.141-4.649,6.803-6.194c2.677-1.545,5.587-2.606,8.54-3.385
			c5.931-1.507,12.028-1.997,18.091-1.872c0.759,0.019,1.518,0.055,2.28,0.104l1.144,0.09c0.326,0.029,0.661,0.037,1,0.027
			c1.361-0.042,2.77-0.345,4.147-0.756c2.754-0.84,5.471-2.099,7.985-3.536l0.627-0.358l0.478,0.486l2.609,2.654l0.472,0.48
			l-0.343,0.562c-0.931,1.525-1.787,3.162-2.531,4.812c-0.744,1.656-1.409,3.352-1.826,5.094c-0.209,0.87-0.353,1.751-0.384,2.625
			c-0.032,0.824,0.109,1.817,0.119,2.735c0.068,1.865,0.062,3.727-0.004,5.586c-0.103,3.717-0.425,7.432-1.084,11.096
			c-0.638,3.664-1.591,7.297-3.147,10.727c-1.548,3.404-3.883,6.632-7.199,8.707c-3.292,2.115-7.362,2.784-11.158,2.426
			c-1.913-0.156-3.784-0.552-5.61-1.078c-1.926-0.561-3.612-1.612-5.112-2.798c-2.971-2.444-5.278-5.453-7.192-8.692l0.134,0.138
			c-2.235-1.525-4.27-3.305-6.094-5.278c-0.911-0.988-1.729-2.059-2.458-3.186C17.913,108.893,17.322,107.66,16.947,106.374z"/>
	</g>
	<g>
		<path style="fill:#EB008B;" d="M85.734,136.194c6.263,0.197,12.784-4.859,14.416-6.214c0,0,10.191-2.282,14.165-8.327
			c17.394-26.446-24.356-36.95-28.117-37.749c-5.436-1.163-11.874-8.632-11.874-8.632l-3.303,1.713c0,0,2.228,9.369,0.044,14.485
			C69.552,95.005,54.098,135.185,85.734,136.194z"/>
		<path d="M85.736,136.094c2.661,0.052,5.263-0.768,7.621-1.958c2.374-1.179,4.544-2.751,6.53-4.473l0.061-0.053l0.113-0.032
			c3.487-1.002,6.904-2.521,9.793-4.615c1.445-1.042,2.729-2.281,3.676-3.699c0.979-1.51,1.841-3.096,2.554-4.731
			c1.398-3.272,2.06-6.863,1.353-10.336c-0.685-3.477-2.705-6.63-5.253-9.214c-2.555-2.609-5.648-4.681-8.884-6.422
			c-3.26-1.711-6.686-3.107-10.185-4.258c-1.755-0.559-3.529-1.06-5.315-1.49c-0.902-0.241-1.754-0.342-2.74-0.639
			c-0.934-0.291-1.813-0.696-2.651-1.155c-3.347-1.88-6.139-4.418-8.724-7.194l1.031,0.199l-3.276,1.763l0.462-1.01
			c0.681,3.013,1.1,6.018,1.105,9.131c-0.012,1.551-0.133,3.128-0.559,4.709c-0.108,0.394-0.238,0.789-0.396,1.179l-0.403,1.022
			c-0.26,0.686-0.504,1.382-0.744,2.079c-0.969,2.789-1.774,5.641-2.434,8.516c-0.666,2.874-1.162,5.786-1.395,8.71
			c-0.249,2.919-0.248,5.861,0.184,8.734c0.426,2.865,1.33,5.69,2.99,8.083c1.647,2.392,4.044,4.267,6.777,5.413
			C79.765,135.503,82.759,135.979,85.736,136.094z M85.732,136.294c-2.996-0.084-6.015-0.506-8.863-1.546
			c-2.844-1.02-5.497-2.776-7.414-5.217c-1.942-2.419-3.143-5.374-3.789-8.383c-0.643-3.024-0.752-6.119-0.581-9.168
			c0.4-6.106,1.817-12.056,3.811-17.783c0.253-0.716,0.522-1.427,0.804-2.137l0.439-1.06c0.129-0.301,0.24-0.617,0.336-0.943
			c0.381-1.308,0.528-2.74,0.562-4.178c0.052-2.878-0.305-5.851-0.895-8.686l-0.146-0.706l0.609-0.304l3.329-1.663l0.603-0.301
			l0.428,0.5c1.163,1.356,2.455,2.676,3.795,3.894c1.345,1.218,2.752,2.376,4.28,3.311c0.762,0.467,1.556,0.877,2.378,1.177
			c0.773,0.285,1.762,0.458,2.638,0.733c1.794,0.512,3.562,1.093,5.311,1.73c3.503,1.247,6.936,2.701,10.218,4.46
			c3.287,1.739,6.448,3.769,9.229,6.308c2.76,2.524,5.108,5.742,6.057,9.537c0.995,3.784,0.374,7.861-1.14,11.361
			c-0.739,1.771-1.694,3.428-2.758,5.002c-1.128,1.659-2.649,2.938-4.241,3.998c-3.243,2.07-6.817,3.333-10.49,4.152l0.173-0.085
			c-2.141,1.655-4.462,3.039-6.902,4.163c-1.221,0.561-2.492,1.008-3.79,1.354C88.426,136.155,87.072,136.335,85.732,136.294z"/>
	</g>
	<g>
		<path style="fill:#EB008B;" d="M135.349,80.091c2.127-5.896-0.667-13.659-1.45-15.63c0,0,0.971-10.398-3.544-16.046
			c-19.779-24.713-42.669,11.75-44.593,15.077c-2.784,4.815-11.878,8.624-11.878,8.624l0.61,3.675c0,0,9.599,0.775,13.789,4.429
			C91.178,82.751,124.617,109.867,135.349,80.091z"/>
		<path d="M135.254,80.058c0.873-2.514,0.898-5.242,0.497-7.853c-0.387-2.623-1.211-5.171-2.235-7.593l-0.031-0.074l0.004-0.117
			c0.123-3.626-0.268-7.345-1.367-10.741c-0.545-1.696-1.325-3.3-2.38-4.64c-1.133-1.397-2.375-2.708-3.71-3.89
			c-2.68-2.34-5.89-4.08-9.413-4.481c-3.518-0.423-7.142,0.524-10.387,2.15c-3.271,1.624-6.197,3.925-8.853,6.465
			c-2.635,2.572-5.021,5.399-7.197,8.371c-1.074,1.497-2.099,3.029-3.061,4.594c-0.508,0.784-0.868,1.562-1.454,2.409
			c-0.565,0.798-1.222,1.509-1.918,2.165c-2.822,2.603-6.1,4.473-9.539,6.072l0.508-0.919l0.666,3.665l-0.818-0.752
			c3.075,0.282,6.063,0.812,9.025,1.768c1.472,0.49,2.935,1.092,4.307,1.985c0.342,0.225,0.677,0.47,0.999,0.741l0.848,0.699
			c0.572,0.459,1.159,0.906,1.748,1.35c2.353,1.784,4.815,3.43,7.346,4.946c2.527,1.521,5.144,2.893,7.852,4.018
			c2.7,1.139,5.497,2.048,8.363,2.525c2.856,0.48,5.823,0.494,8.611-0.345c2.784-0.828,5.307-2.527,7.241-4.772
			C132.848,85.555,134.225,82.854,135.254,80.058z M135.443,80.123c-1.005,2.824-2.34,5.564-4.209,7.951
			c-1.849,2.39-4.339,4.371-7.252,5.439c-2.9,1.099-6.081,1.327-9.143,1.012c-3.074-0.324-6.052-1.176-8.898-2.281
			c-5.683-2.268-10.904-5.454-15.734-9.12c-0.603-0.462-1.195-0.937-1.784-1.424l-0.872-0.746c-0.247-0.215-0.513-0.418-0.793-0.61
			c-1.126-0.766-2.443-1.348-3.8-1.825c-2.722-0.938-5.66-1.516-8.538-1.831l-0.716-0.079l-0.102-0.673l-0.555-3.684l-0.1-0.666
			l0.608-0.252c1.649-0.686,3.305-1.507,4.877-2.404c1.575-0.902,3.11-1.882,4.472-3.047c0.68-0.581,1.314-1.21,1.853-1.898
			c0.509-0.648,0.981-1.535,1.513-2.283c1.042-1.548,2.141-3.05,3.287-4.516c2.269-2.947,4.713-5.762,7.399-8.339
			c2.67-2.589,5.577-4.968,8.851-6.828c3.253-1.845,7.039-3.084,10.942-2.814c3.906,0.223,7.592,2.073,10.454,4.594
			c1.456,1.25,2.736,2.67,3.906,4.17c1.227,1.586,1.973,3.428,2.488,5.269c0.967,3.723,1.065,7.513,0.711,11.259l-0.027-0.19
			c0.912,2.548,1.51,5.183,1.826,7.851c0.156,1.334,0.188,2.682,0.115,4.022C136.144,77.52,135.896,78.863,135.443,80.123z"/>
	</g>
</g>
<g>
	<path d="M71.362,67.661c3.603-30.349,7.283-44.009,7.283-44.009S77.108,39.836,71.362,67.661z"/>
	<path d="M65.713,70.226C37.962,57.422,26.105,49.692,26.105,49.692S41.024,56.16,65.713,70.226z"/>
	<path d="M66.404,76.385c-20.754,22.437-31.764,31.327-31.764,31.327S45.395,95.52,66.404,76.385z"/>
	<path d="M72.475,77.635c14.927,26.673,19.976,39.892,19.976,39.892S84.182,103.524,72.475,77.635z"/>
	<path d="M75.54,72.245c29.979-5.952,44.111-6.668,44.111-6.668S103.78,69.115,75.54,72.245z"/>
</g>
<g>
	<circle style="fill:#F8B133;" cx="72.878" cy="76.5" r="18"/>
	<path d="M90.979,76.501c-0.007,4.714-1.622,9.539-4.928,13.171c-3.239,3.677-8.224,5.822-13.183,5.66
		c-2.443-0.078-4.89-0.664-7.092-1.685c-2.207-1.026-4.184-2.473-5.855-4.19c-3.346-3.432-5.433-8.081-5.59-12.964
		c-0.225-4.845,1.663-9.854,5.154-13.386c1.729-1.777,3.813-3.217,6.104-4.203c2.29-0.993,4.798-1.472,7.289-1.471
		c2.49,0.035,4.989,0.526,7.258,1.544c2.279,0.993,4.308,2.506,5.935,4.329C89.366,66.957,90.994,71.78,90.979,76.501z
		 M90.778,76.499c-0.019-2.342-0.517-4.685-1.523-6.783c-0.999-2.097-2.41-3.972-4.114-5.479c-3.414-3.001-7.811-4.728-12.262-4.671
		c-4.435,0.005-8.854,1.74-12.063,4.871c-3.214,3.112-5.215,7.473-5.39,12.069c-0.069,2.268,0.27,4.606,1.133,6.753
		c0.844,2.154,2.164,4.123,3.821,5.739c3.338,3.254,8.008,4.845,12.509,4.67c4.482-0.111,8.868-1.856,12.273-4.884
		c1.699-1.519,3.108-3.395,4.107-5.495C90.276,81.188,90.769,78.844,90.778,76.499z"/>
</g>
</svg>
