<?xml version="1.0" encoding="iso-8859-1"?>
<!-- Generator: Adobe Illustrator 21.1.0, SVG Export Plug-In . SVG Version: 6.00 Build 0)  -->
<svg version="1.1" id="Layer_1" xmlns="http://www.w3.org/2000/svg" xmlns:xlink="http://www.w3.org/1999/xlink" x="0px" y="0px"
	 viewBox="0 0 55.247 96.873" style="enable-background:new 0 0 55.247 96.873;" xml:space="preserve">
<g>
	<path id="colour" style="fill:#94E01E;" d="M33.299,2.929c7.322-0.742,10.533-0.386,13.82-0.274
		c0.234,4.433-1.32,36.5,0.221,42.396s8.281,14.747,1.707,20.706c-1.689,1.53-5.977,2.551-8.58,4.834
		C32.928,77.2,25.18,86.622,23.071,88.685c-2.836,2.779-11.359,8.289-17.064,4.025c-3.316-2.48-4.434-9.749-0.527-16.973
		c5.283-8.566,21.822-20.084,21.293-25.187c-0.531-5.101-2.512-18.509-3.164-23.75c-0.779-6.241-2.516-13.772-1.443-21.394
		C22.164,5.404,26.703,3.596,33.299,2.929z"/>
	<path style="fill:#1D1D1B;" d="M33.294,2.879c2.294-0.242,4.598-0.424,6.907-0.48c1.154-0.029,2.309-0.024,3.464,0.01l3.458,0.121
		l0.117,0.004l0.003,0.114c0.119,4.511-0.036,8.997-0.058,13.494L47.1,29.619c0.003,2.245,0.022,4.49,0.08,6.73
		c0.057,2.237,0.113,4.484,0.345,6.686c0.146,2.189,1.087,4.181,1.947,6.265c0.879,2.062,1.796,4.148,2.391,6.377
		c0.588,2.2,0.851,4.675-0.017,6.951c-0.424,1.123-1.099,2.146-1.924,2.991c-0.393,0.414-0.88,0.843-1.396,1.146
		c-0.507,0.312-1.024,0.568-1.54,0.812c-2.053,0.961-4.15,1.76-5.854,3.084c-1.675,1.41-3.319,2.977-4.91,4.538
		c-3.192,3.144-6.249,6.431-9.263,9.762l-2.269,2.496c-0.756,0.823-1.545,1.676-2.445,2.383c-1.78,1.426-3.744,2.605-5.851,3.474
		c-2.098,0.852-4.402,1.397-6.699,1.094c-2.26-0.297-4.503-1.577-5.559-3.664c-1.094-2.033-1.382-4.377-1.271-6.63
		c0.133-2.265,0.687-4.494,1.565-6.58c0.818-2.125,2.265-3.945,3.7-5.66c1.466-1.715,3.016-3.352,4.597-4.954
		c3.155-3.207,6.464-6.264,9.494-9.551c1.473-1.652,3.007-3.362,3.854-5.312c0.194-0.483,0.315-0.987,0.274-1.444l-0.191-1.664
		l-0.433-3.338L23.936,32.25c-0.305-2.224-0.572-4.467-0.83-6.69l-0.89-6.684c-0.552-4.462-0.812-9.014-0.151-13.484l0.009-0.059
		l0.053-0.019c1.799-0.664,3.647-1.151,5.512-1.556C29.506,3.356,31.396,3.065,33.294,2.879z M33.304,2.978
		C31.41,3.18,29.53,3.487,27.672,3.902c-1.854,0.418-3.698,0.923-5.471,1.594l0.06-0.078c-0.595,4.455-0.196,8.963,0.449,13.391
		l1.056,6.658l0.954,6.675c0.628,4.449,1.32,8.891,1.876,13.354l0.414,3.351l0.185,1.687c0.053,0.669-0.119,1.283-0.342,1.837
		c-0.966,2.192-2.561,3.844-4.087,5.505c-3.125,3.267-6.485,6.253-9.695,9.391c-1.604,1.568-3.19,3.157-4.649,4.855
		c-1.448,1.71-2.862,3.452-3.687,5.542c-0.883,2.046-1.449,4.241-1.555,6.467c-0.099,2.21,0.204,4.502,1.266,6.443
		c1.01,1.983,3.137,3.164,5.303,3.413c2.191,0.257,4.411-0.299,6.441-1.161c2.036-0.876,3.948-2.062,5.654-3.471
		c0.859-0.696,1.591-1.511,2.342-2.353l2.23-2.525c2.972-3.374,5.977-6.73,9.163-9.924c1.605-1.596,3.206-3.146,4.959-4.642
		c1.858-1.458,4.021-2.281,6.017-3.238c0.498-0.239,0.987-0.487,1.435-0.768c0.452-0.272,0.812-0.596,1.192-0.996
		c0.737-0.767,1.317-1.665,1.682-2.648c0.734-1.979,0.542-4.212-0.018-6.316c-0.56-2.122-1.449-4.172-2.325-6.241
		c-0.438-1.036-0.879-2.08-1.257-3.163c-0.188-0.549-0.36-1.085-0.493-1.677c-0.122-0.581-0.195-1.15-0.257-1.719
		c-0.426-4.535-0.345-9.029-0.298-13.531c0.087-8.994,0.69-17.984,0.778-26.952l0.12,0.117c-2.308-0.118-4.606-0.256-6.911-0.211
		C37.901,2.6,35.599,2.759,33.304,2.978z"/>
</g>
<circle style="fill:#FFFFFF;" cx="29.027" cy="21.381" r="3.565"/>
<circle style="fill:#FFFFFF;" cx="39.562" cy="10.904" r="3.565"/>
<circle style="fill:#FFFFFF;" cx="39.562" cy="30.631" r="3.565"/>
<circle style="fill:#FFFFFF;" cx="32.592" cy="43.15" r="3.565"/>
<circle style="fill:#FFFFFF;" cx="43.633" cy="57.913" r="3.565"/>
<circle style="fill:#FFFFFF;" cx="11.231" cy="80.591" r="3.565"/>
<circle style="fill:#FFFFFF;" cx="25.462" cy="75.154" r="3.565"/>
<circle style="fill:#FFFFFF;" cx="30.027" cy="60.261" r="3.565"/>
</svg>
