<?xml version="1.0" encoding="iso-8859-1"?>
<!-- Generator: Adobe Illustrator 21.1.0, SVG Export Plug-In . SVG Version: 6.00 Build 0)  -->
<svg version="1.1" id="Silverware" xmlns="http://www.w3.org/2000/svg" xmlns:xlink="http://www.w3.org/1999/xlink" x="0px" y="0px"
	 viewBox="0 0 90.504 333.885" style="enable-background:new 0 0 90.504 333.885;" xml:space="preserve">
<g>
	<linearGradient id="SVGID_1_" gradientUnits="userSpaceOnUse" x1="127.4028" y1="118.2598" x2="-28.2913" y2="208.1498">
		<stop  offset="0" style="stop-color:#F2F2F2"/>
		<stop  offset="1" style="stop-color:#808080"/>
	</linearGradient>
	<path style="fill:url(#SVGID_1_);" d="M84.638,66c0-32.309-17.461-58.499-39-58.499c-21.54,0-39,26.19-39,58.499
		c0,23.71,9.408,44.109,22.926,53.297H29.54c0.034,0.017,0.066,0.036,0.101,0.053c0.997,0.674,2.015,1.289,3.055,1.838
		c4.922,3.547,8.393,9.23,8.393,15.663c0,3.976-1.217,7.655-3.263,10.737c-1.212,1.482-1.938,3.314-1.938,5.304v164.217
		c0,4.913,4.365,8.892,9.75,8.892c5.386,0,9.75-3.978,9.75-8.892V152.892c0-1.994-0.729-3.829-1.945-5.312
		c-2.042-3.081-3.255-6.757-3.255-10.729c0-6.432,3.47-12.114,8.39-15.662c1.042-0.55,2.062-1.167,3.062-1.843
		c0.031-0.015,0.062-0.033,0.094-0.049h-0.021C75.229,110.109,84.638,89.71,84.638,66z"/>
	<path d="M84.538,66.001c-0.036-8.94-1.379-17.897-4.263-26.357c-2.869-8.429-7.338-16.463-13.784-22.62
		c-3.211-3.06-6.946-5.594-11.064-7.184c-4.108-1.597-8.6-2.167-12.946-1.586c-4.354,0.565-8.512,2.271-12.146,4.725
		c-3.653,2.445-6.79,5.61-9.483,9.091c-5.371,7.013-8.9,15.341-10.98,23.93c-2.044,8.614-2.768,17.551-2.139,26.396
		c0.626,8.839,2.633,17.6,6.158,25.722c1.771,4.053,3.96,7.93,6.609,11.463c2.649,3.527,5.78,6.712,9.402,9.215l1.619,1.119
		l-1.959-0.013H29.54l0.265-1.149l0.1,0.053l0.054,0.028l0.021,0.015c0.964,0.661,1.96,1.273,2.987,1.825l0.038,0.021l0.03,0.021
		c4.118,3,7.208,7.493,8.178,12.53c0.486,2.513,0.429,5.11-0.101,7.591c-0.521,2.492-1.563,4.856-2.959,6.969l-0.011,0.018
		l-0.013,0.014c-1.175,1.417-1.868,3.226-1.863,5.065l-0.015,5.77l-0.03,11.539l-0.015,23.079l0.149,46.158l0.233,46.158
		l0.114,23.079l0.028,5.77l0.021,2.861c0.022,0.86,0.214,1.711,0.532,2.511c0.647,1.599,1.86,2.958,3.349,3.871
		c1.479,0.922,3.269,1.394,4.989,1.388c1.802-0.005,3.527-0.486,5.014-1.415c1.477-0.923,2.67-2.288,3.295-3.879
		c0.308-0.795,0.489-1.638,0.503-2.489l-0.001-2.859l-0.013-5.77l-0.053-23.079l-0.019-46.158l0.051-46.158l0.124-23.079
		l0.062-11.539l0.048-5.753c0.023-1.783-0.615-3.495-1.734-4.883l-0.025-0.032l-0.018-0.025c-2.817-4.307-3.931-9.706-2.876-14.741
		c1.054-5.042,4.21-9.47,8.34-12.393l0.027-0.019l0.024-0.013c1.043-0.539,2.056-1.142,3.038-1.793l0.021-0.014l0.035-0.019
		l0.089-0.045l0.178,0.773h-0.021l-1.324-0.011l1.096-0.733c4.125-2.761,7.645-6.392,10.568-10.427
		c2.936-4.036,5.273-8.501,7.1-13.155C82.805,86.057,84.499,76.012,84.538,66.001z M84.737,66
		c0.027,10.035-1.602,20.124-5.214,29.524c-1.816,4.688-4.125,9.201-7.011,13.339c-2.888,4.126-6.396,7.875-10.571,10.771
		l-0.229-0.744h0.021l1.668-0.014l-1.49,0.788l-0.098,0.052l0.055-0.031c-0.993,0.683-2.021,1.317-3.087,1.891l0.052-0.031
		c-3.924,2.869-6.843,7.156-7.74,11.904c-0.903,4.736,0.235,9.784,2.935,13.743l-0.043-0.057c1.333,1.572,2.149,3.664,2.156,5.738
		l0.048,5.787l0.062,11.539l0.124,23.079l0.051,46.158l-0.019,46.158l-0.053,23.079l-0.013,5.77l-0.014,2.91
		c-0.023,1.072-0.256,2.139-0.647,3.134c-0.797,1.993-2.277,3.653-4.063,4.758c-1.78,1.112-3.91,1.674-5.952,1.669
		c-2.125-0.002-4.191-0.57-5.981-1.685c-1.777-1.109-3.24-2.772-4.021-4.755c-0.384-0.99-0.608-2.048-0.627-3.111l0.008-2.908
		l0.028-5.77l0.114-23.079l0.233-46.158l0.149-46.158l-0.015-23.079l-0.03-11.539l-0.015-5.77c-0.017-2.019,0.739-4.017,2.012-5.563
		l-0.023,0.031c2.696-4.055,3.75-9.199,2.768-13.934c-0.979-4.758-3.969-8.986-7.909-11.777l0.068,0.042
		c-1.075-0.559-2.115-1.181-3.121-1.851l0.074,0.043l-0.102-0.052l-2.196-1.134l2.461-0.017h0.023l-0.341,1.106
		c-3.784-2.544-7.052-5.79-9.82-9.38c-2.769-3.598-5.061-7.543-6.928-11.669c-3.75-8.259-5.768-17.222-6.461-26.226
		c-0.655-9.01-0.037-18.149,2.169-26.937c2.194-8.765,5.863-17.266,11.457-24.458c2.79-3.585,6.127-6.782,9.958-9.269
		c3.821-2.488,8.196-4.2,12.748-4.711c4.543-0.531,9.2,0.15,13.408,1.864c4.22,1.709,7.992,4.367,11.205,7.528
		c3.221,3.166,5.92,6.82,8.159,10.714c2.246,3.894,4.073,8.019,5.494,12.276C83.461,48.047,84.753,57.043,84.737,66z"/>
</g>
<g>
	<ellipse style="fill:#808080;" cx="45.638" cy="66" rx="37.05" ry="55.575"/>
	<ellipse style="fill:#808080;" cx="45.536" cy="66.227" rx="36.807" ry="55.19"/>
	<path style="fill:#818181;" d="M45.336,11.65c20.194-0.041,36.608,24.462,36.661,54.73c0.054,30.268-16.271,54.838-36.466,54.879
		C25.338,121.3,8.924,96.796,8.87,66.528C8.816,36.26,25.143,11.691,45.336,11.65z"/>
	<path style="fill:#828282;" d="M45.185,12.263c20.06-0.061,36.386,24.253,36.467,54.309c0.08,30.056-16.114,54.469-36.174,54.53
		c-20.06,0.061-36.386-24.254-36.467-54.309C8.931,36.737,25.127,12.324,45.185,12.263z"/>
	<path style="fill:#838383;" d="M45.035,12.875c19.925-0.081,36.164,24.044,36.271,53.887c0.108,29.842-15.956,54.101-35.882,54.182
		C25.5,121.024,9.261,96.898,9.152,67.056C9.045,37.214,25.11,12.957,45.035,12.875z"/>
	<path style="fill:#848484;" d="M44.884,13.488c19.792-0.102,35.943,23.835,36.078,53.464c0.135,29.63-15.799,53.731-35.59,53.833
		C25.581,120.888,9.429,96.95,9.294,67.32C9.159,37.691,25.094,13.589,44.884,13.488z"/>
	<path style="fill:#858585;" d="M44.733,14.1c19.657-0.122,35.722,23.626,35.883,53.042c0.162,29.417-15.641,53.363-35.298,53.485
		C25.662,120.75,9.597,97.002,9.435,67.585C9.273,38.168,25.077,14.222,44.733,14.1z"/>
	<path style="fill:#868686;" d="M44.583,14.713c19.522-0.143,35.5,23.416,35.688,52.62s-15.483,52.994-35.006,53.137
		C25.743,120.612,9.765,97.053,9.576,67.849C9.388,38.645,25.06,14.855,44.583,14.713z"/>
	<path style="fill:#878787;" d="M44.432,15.325c19.389-0.163,35.279,23.207,35.494,52.198c0.216,28.992-15.325,52.626-34.714,52.788
		C25.825,120.475,9.934,97.104,9.718,68.113C9.502,39.121,25.044,15.488,44.432,15.325z"/>
	<path style="fill:#888888;" d="M44.281,15.938c19.254-0.183,35.058,22.998,35.3,51.776c0.242,28.778-15.168,52.257-34.422,52.439
		c-19.253,0.184-35.058-22.998-35.301-51.776C9.616,39.598,25.028,16.121,44.281,15.938z"/>
	<path style="fill:#898989;" d="M44.131,16.55c19.119-0.204,34.836,22.789,35.105,51.354c0.269,28.566-15.011,51.887-34.131,52.091
		C25.987,120.199,10.269,97.207,10,68.641C9.73,40.075,25.012,16.753,44.131,16.55z"/>
	<path style="fill:#8A8A8A;" d="M43.979,17.163c18.985-0.224,34.615,22.579,34.911,50.933c0.297,28.353-14.853,51.519-33.838,51.743
		c-18.984,0.224-34.615-22.58-34.911-50.933S24.995,17.386,43.979,17.163z"/>
	<path style="fill:#8B8B8B;" d="M43.829,17.775c18.851-0.244,34.394,22.37,34.717,50.511c0.323,28.14-14.695,51.15-33.547,51.394
		c-18.85,0.244-34.394-22.37-34.717-50.511C9.96,41.029,24.978,18.019,43.829,17.775z"/>
	<path style="fill:#8C8C8C;" d="M43.679,18.388C62.395,18.123,77.851,40.548,78.2,68.476c0.351,27.928-14.537,50.782-33.254,51.046
		c-18.716,0.264-34.172-22.161-34.522-50.089C10.074,41.505,24.962,18.652,43.679,18.388z"/>
	<path style="fill:#8D8D8D;" d="M43.527,19c18.583-0.285,33.951,21.952,34.328,49.667c0.377,27.714-14.38,50.413-32.963,50.698
		c-18.581,0.284-33.95-21.952-34.327-49.667C10.188,41.982,24.946,19.285,43.527,19z"/>
	<path style="fill:#8E8E8E;" d="M43.377,19.613c18.448-0.305,33.729,21.742,34.133,49.244c0.404,27.502-14.222,50.044-32.67,50.349
		c-18.447,0.305-33.729-21.743-34.134-49.245C10.303,42.459,24.93,19.918,43.377,19.613z"/>
	<path style="fill:#8F8F8F;" d="M43.227,20.225C61.54,19.9,76.734,41.758,77.165,69.047c0.431,27.289-14.064,49.675-32.379,50
		c-18.312,0.326-33.508-21.533-33.938-48.822C10.417,42.936,24.913,20.55,43.227,20.225z"/>
	<path style="fill:#909090;" d="M43.075,20.837c18.18-0.346,33.287,21.324,33.744,48.4c0.459,27.077-13.906,49.307-32.086,49.653
		c-18.179,0.346-33.287-21.324-33.745-48.401C10.531,43.413,24.896,21.183,43.075,20.837z"/>
	<path style="fill:#919191;" d="M42.925,21.45c18.045-0.366,33.065,21.114,33.55,47.978c0.485,26.865-13.75,48.938-31.795,49.304
		c-18.044,0.366-33.064-21.115-33.55-47.979C10.645,43.89,24.88,21.816,42.925,21.45z"/>
	<path style="fill:#929292;" d="M42.774,22.063c17.91-0.386,32.844,20.905,33.356,47.556c0.512,26.651-13.593,48.57-31.503,48.955
		c-17.91,0.387-32.844-20.905-33.356-47.557C10.76,44.367,24.864,22.449,42.774,22.063z"/>
	<path style="fill:#939393;" d="M42.623,22.675c17.776-0.407,32.623,20.696,33.161,47.134c0.539,26.439-13.435,48.201-31.211,48.607
		c-17.775,0.407-32.622-20.695-33.161-47.134C10.874,44.843,24.848,23.082,42.623,22.675z"/>
	<path style="fill:#949494;" d="M42.473,23.288C60.114,22.86,74.874,43.774,75.439,70c0.565,26.226-13.277,47.832-30.919,48.259
		c-17.642,0.427-32.401-20.487-32.967-46.713S24.831,23.714,42.473,23.288z"/>
	<path style="fill:#959595;" d="M42.322,23.9c17.507-0.447,32.18,20.277,32.772,46.29c0.593,26.013-13.119,47.463-30.626,47.911
		C26.96,118.548,12.287,97.822,11.694,71.81C11.102,45.797,24.814,24.347,42.322,23.9z"/>
	<path style="fill:#969696;" d="M42.171,24.513C59.544,24.045,74.13,44.581,74.749,70.38c0.619,25.8-12.962,47.094-30.335,47.562
		c-17.372,0.468-31.958-20.068-32.578-45.868C11.217,46.274,24.798,24.98,42.171,24.513z"/>
	<path style="fill:#979797;" d="M42.02,25.125c17.239-0.488,31.737,19.858,32.383,45.446c0.647,25.587-12.804,46.726-30.042,47.214
		c-17.238,0.487-31.737-19.859-32.384-45.447C11.331,46.751,24.781,25.613,42.02,25.125z"/>
	<path style="fill:#989898;" d="M41.87,25.737c17.105-0.508,31.516,19.649,32.189,45.024c0.674,25.375-12.646,46.357-29.751,46.866
		c-17.104,0.508-31.516-19.65-32.189-45.025C11.445,47.228,24.766,26.246,41.87,25.737z"/>
	<path style="fill:#999999;" d="M41.719,26.35c16.971-0.529,31.295,19.44,31.994,44.602c0.701,25.163-12.488,45.989-29.458,46.517
		c-16.97,0.529-31.295-19.44-31.995-44.602C11.56,47.705,24.749,26.878,41.719,26.35z"/>
	<path style="fill:#9A9A9A;" d="M41.568,26.962c16.836-0.549,31.073,19.231,31.8,44.18c0.728,24.949-12.331,45.619-29.167,46.168
		c-16.835,0.55-31.073-19.23-31.801-44.18C11.674,48.181,24.732,27.511,41.568,26.962z"/>
	<path style="fill:#9B9B9B;" d="M41.418,27.575c16.701-0.569,30.851,19.021,31.605,43.758c0.754,24.736-12.174,45.251-28.875,45.82
		c-16.701,0.569-30.852-19.022-31.606-43.759C11.788,48.658,24.716,28.144,41.418,27.575z"/>
	<path style="fill:#9C9C9C;" d="M41.267,28.188C57.834,27.598,71.896,47,72.678,71.523c0.781,24.523-12.016,44.882-28.583,45.472
		c-16.566,0.59-30.63-18.813-31.411-43.337C11.902,49.135,24.699,28.777,41.267,28.188z"/>
	<path style="fill:#9D9D9D;" d="M41.116,28.8c16.433-0.61,30.408,18.603,31.217,42.914c0.808,24.312-11.858,44.513-28.291,45.123
		c-16.433,0.61-30.409-18.604-31.218-42.914C12.017,49.612,24.684,29.41,41.116,28.8z"/>
	<path style="fill:#9E9E9E;" d="M40.965,29.413c16.299-0.631,30.188,18.394,31.023,42.492c0.836,24.098-11.7,44.145-27.999,44.774
		C27.69,117.31,13.801,98.285,12.966,74.187C12.131,50.088,24.667,30.043,40.965,29.413z"/>
	<path style="fill:#9F9F9F;" d="M40.814,30.025c16.164-0.651,29.966,18.184,30.828,42.07c0.862,23.886-11.543,43.775-27.707,44.427
		c-16.164,0.65-29.966-18.186-30.828-42.07C12.246,50.565,24.65,30.675,40.814,30.025z"/>
	<path style="fill:#A0A0A0;" d="M40.664,30.637c16.03-0.671,29.744,17.975,30.633,41.648c0.89,23.673-11.385,43.407-27.415,44.078
		c-16.029,0.671-29.744-17.976-30.634-41.648C12.36,51.042,24.634,31.308,40.664,30.637z"/>
	<path style="fill:#A1A1A1;" d="M40.513,31.25c15.897-0.691,29.523,17.766,30.439,41.226c0.916,23.46-11.228,43.038-27.123,43.729
		C27.934,116.897,14.306,98.44,13.39,74.979C12.475,51.519,24.617,31.941,40.513,31.25z"/>
	<path style="fill:#A2A2A2;" d="M40.362,31.862c15.762-0.712,29.302,17.557,30.244,40.804c0.943,23.248-11.069,42.67-26.831,43.382
		C28.015,116.759,14.474,98.49,13.53,75.243C12.589,51.996,24.601,32.574,40.362,31.862z"/>
	<path style="fill:#A3A3A3;" d="M40.212,32.475c15.627-0.732,29.08,17.348,30.05,40.382c0.97,23.034-10.912,42.301-26.539,43.033
		c-15.627,0.732-29.081-17.349-30.051-40.382C12.703,52.473,24.585,33.207,40.212,32.475z"/>
	<path style="fill:#A4A4A4;" d="M40.06,33.087c15.493-0.752,28.859,17.138,29.857,39.959c0.996,22.822-10.755,41.933-26.248,42.685
		c-15.491,0.753-28.858-17.139-29.855-39.96C12.817,52.95,24.568,33.839,40.06,33.087z"/>
	<path style="fill:#A5A5A5;" d="M39.91,33.7c15.358-0.772,28.638,16.929,29.661,39.538c1.024,22.609-10.597,41.563-25.955,42.336
		c-15.357,0.774-28.638-16.929-29.662-39.538C12.932,53.426,24.552,34.472,39.91,33.7z"/>
	<path style="fill:#A6A6A6;" d="M39.76,34.313c15.224-0.794,28.416,16.719,29.467,39.115c1.051,22.396-10.439,41.194-25.664,41.988
		c-15.223,0.793-28.416-16.721-29.467-39.117C13.046,53.903,24.535,35.105,39.76,34.313z"/>
	<path style="fill:#A7A7A7;" d="M39.608,34.925c15.09-0.813,28.195,16.51,29.273,38.693c1.078,22.184-10.281,40.826-25.371,41.64
		c-15.089,0.813-28.195-16.511-29.273-38.694C13.16,54.38,24.519,35.738,39.608,34.925z"/>
	<path style="fill:#A8A8A8;" d="M39.458,35.537c14.955-0.833,27.974,16.301,29.078,38.271S58.412,114.266,43.457,115.1
		c-14.955,0.834-27.975-16.301-29.079-38.271C13.274,54.857,24.503,36.371,39.458,35.537z"/>
	<path style="fill:#A9A9A9;" d="M39.308,36.15C54.129,35.295,67.06,52.241,68.19,73.999c1.132,21.759-9.966,40.089-24.787,40.942
		c-14.82,0.854-27.752-16.092-28.884-37.85C13.389,55.334,24.486,37.003,39.308,36.15z"/>
	<path style="fill:#AAAAAA;" d="M39.156,36.762c14.688-0.875,27.531,15.882,28.689,37.427c1.158,21.546-9.809,39.72-24.495,40.595
		C28.664,115.658,15.819,98.9,14.66,77.356C13.503,55.811,24.47,37.636,39.156,36.762z"/>
	<path style="fill:#ABABAB;" d="M39.006,37.375C53.559,36.48,66.315,53.048,67.5,74.381c1.186,21.332-9.65,39.351-24.203,40.245
		c-14.552,0.895-27.31-15.674-28.495-37.006C13.617,56.288,24.453,38.269,39.006,37.375z"/>
	<path style="fill:#ACACAC;" d="M38.855,37.987c14.418-0.915,27.088,15.463,28.3,36.583c1.213,21.121-9.493,38.982-23.911,39.897
		c-14.418,0.915-27.089-15.464-28.301-36.584C13.731,56.764,24.436,38.902,38.855,37.987z"/>
	<path style="fill:#ADADAD;" d="M38.704,38.6c14.284-0.936,26.867,15.254,28.106,36.162c1.239,20.906-9.336,38.613-23.62,39.549
		c-14.283,0.935-26.867-15.256-28.106-36.162C13.846,57.241,24.42,39.535,38.704,38.6z"/>
	<path style="fill:#AEAEAE;" d="M38.554,39.212c14.149-0.956,26.646,15.045,27.911,35.739c1.267,20.695-9.178,38.245-23.327,39.201
		c-14.149,0.956-26.646-15.046-27.912-35.74C13.96,57.718,24.404,40.168,38.554,39.212z"/>
	<path style="fill:#AFAFAF;" d="M38.403,39.825c14.015-0.976,26.424,14.836,27.717,35.318c1.293,20.481-9.021,37.875-23.036,38.852
		c-14.015,0.977-26.424-14.836-27.718-35.318C14.074,58.195,24.388,40.8,38.403,39.825z"/>
	<path style="fill:#B0B0B0;" d="M38.252,40.437c13.881-0.996,26.203,14.627,27.522,34.895c1.32,20.27-8.862,37.508-22.743,38.504
		C29.15,114.833,16.828,99.209,15.508,78.94C14.188,58.671,24.371,41.433,38.252,40.437z"/>
	<path style="fill:#B1B1B1;" d="M38.102,41.05c13.746-1.017,25.981,14.417,27.328,34.474c1.347,20.056-8.705,37.138-22.452,38.155
		c-13.746,1.017-25.981-14.419-27.328-34.474C14.303,59.148,24.354,42.066,38.102,41.05z"/>
	<path style="fill:#B2B2B2;" d="M37.951,41.662c13.611-1.037,25.76,14.208,27.133,34.051c1.374,19.844-8.547,36.771-22.159,37.808
		c-13.612,1.037-25.761-14.209-27.135-34.052C14.417,59.626,24.338,42.699,37.951,41.662z"/>
	<path style="fill:#B3B3B3;" d="M37.8,42.275c13.479-1.058,25.539,13.998,26.94,33.629c1.401,19.631-8.39,36.4-21.868,37.458
		c-13.477,1.058-25.538-13.999-26.939-33.63C14.532,60.102,24.322,43.332,37.8,42.275z"/>
	<path style="fill:#B4B4B4;" d="M37.649,42.887c13.344-1.078,25.317,13.79,26.744,33.206c1.429,19.419-8.233,36.033-21.575,37.11
		c-13.343,1.078-25.317-13.79-26.746-33.208C14.646,60.579,24.306,43.964,37.649,42.887z"/>
	<path style="fill:#B5B5B5;" d="M37.499,43.5c13.209-1.098,25.096,13.58,26.55,32.786c1.455,19.205-8.075,35.663-21.284,36.762
		c-13.208,1.098-25.096-13.581-26.551-32.786C14.761,61.056,24.289,44.597,37.499,43.5z"/>
	<path style="fill:#B6B6B6;" d="M37.348,44.112c13.075-1.119,24.875,13.371,26.355,32.362c1.482,18.993-7.917,35.296-20.991,36.414
		c-13.074,1.118-24.875-13.371-26.356-32.363C14.875,61.533,24.272,45.23,37.348,44.112z"/>
	<path style="fill:#B7B7B7;" d="M37.197,44.725c12.94-1.139,24.653,13.162,26.161,31.941c1.509,18.779-7.76,34.926-20.7,36.065
		c-12.939,1.139-24.653-13.162-26.162-31.941C14.989,62.009,24.256,45.863,37.197,44.725z"/>
	<path style="fill:#B8B8B8;" d="M37.047,45.337c12.806-1.159,24.432,12.953,25.967,31.519c1.535,18.568-7.603,34.558-20.408,35.718
		C29.8,113.732,18.174,99.619,16.638,81.053C15.103,62.486,24.24,46.496,37.047,45.337z"/>
	<path style="fill:#B9B9B9;" d="M36.895,45.95c12.672-1.18,24.211,12.743,25.773,31.097c1.562,18.354-7.444,34.188-20.116,35.368
		c-12.671,1.18-24.21-12.744-25.773-31.099C15.218,62.963,24.224,47.128,36.895,45.95z"/>
	<path style="fill:#BABABA;" d="M36.745,46.562c12.537-1.2,23.989,12.534,25.578,30.674c1.59,18.143-7.287,33.82-19.824,35.021
		c-12.537,1.2-23.989-12.534-25.579-30.676C15.332,63.44,24.207,47.761,36.745,46.562z"/>
	<path style="fill:#BBBBBB;" d="M36.595,47.175c12.402-1.22,23.768,12.324,25.383,30.253c1.617,17.929-7.129,33.451-19.532,34.671
		c-12.402,1.221-23.768-12.325-25.384-30.253C15.446,63.917,24.19,48.394,36.595,47.175z"/>
	<path style="fill:#BCBCBC;" d="M36.443,47.787c12.27-1.241,23.547,12.115,25.189,29.831c1.644,17.716-6.972,33.082-19.24,34.323
		c-12.269,1.24-23.547-12.116-25.19-29.832C15.56,64.394,24.174,49.027,36.443,47.787z"/>
	<path style="fill:#BDBDBD;" d="M36.293,48.399c12.135-1.261,23.325,11.906,24.994,29.409c1.671,17.504-6.814,32.714-18.947,33.975
		c-12.135,1.261-23.325-11.906-24.996-29.41C15.675,64.871,24.157,49.66,36.293,48.399z"/>
	<path style="fill:#BEBEBE;" d="M36.143,49.012c12-1.281,23.104,11.696,24.8,28.987c1.697,17.29-6.656,32.345-18.656,33.626
		c-12,1.281-23.104-11.697-24.801-28.987C15.789,65.347,24.142,50.293,36.143,49.012z"/>
	<path style="fill:#BFBFBF;" d="M35.991,49.625c11.866-1.302,22.883,11.487,24.606,28.565c1.725,17.078-6.498,31.976-18.363,33.277
		c-11.866,1.302-22.883-11.488-24.607-28.564C15.903,65.824,24.125,50.925,35.991,49.625z"/>
	<path style="fill:#C0C0C0;" d="M35.841,50.237c11.731-1.322,22.661,11.278,24.411,28.143c1.751,16.865-6.341,31.607-18.072,32.93
		c-11.732,1.321-22.661-11.279-24.412-28.144C16.018,66.301,24.108,51.559,35.841,50.237z"/>
	<path style="fill:#C1C1C1;" d="M35.69,50.85c11.597-1.342,22.44,11.069,24.217,27.721c1.778,16.652-6.184,31.238-17.78,32.581
		c-11.598,1.342-22.441-11.069-24.219-27.722C16.132,66.778,24.092,52.191,35.69,50.85z"/>
	<path style="fill:#C2C2C2;" d="M35.539,51.462C47.002,50.1,57.758,62.321,59.562,78.761c1.806,16.441-6.025,30.87-17.488,32.233
		c-11.462,1.363-22.218-10.86-24.023-27.3C16.246,67.255,24.075,52.824,35.539,51.462z"/>
	<path style="fill:#C3C3C3;" d="M35.389,52.075c11.328-1.383,21.997,10.65,23.828,26.877c1.832,16.226-5.868,30.501-17.196,31.884
		c-11.328,1.384-21.997-10.65-23.829-26.877C16.36,67.731,24.06,53.457,35.389,52.075z"/>
	<path style="fill:#C4C4C4;" d="M35.238,52.687c11.193-1.403,21.775,10.441,23.633,26.455c1.859,16.015-5.71,30.133-16.904,31.536
		c-11.193,1.403-21.775-10.441-23.635-26.455C16.475,68.209,24.043,54.09,35.238,52.687z"/>
	<path style="fill:#C5C5C5;" d="M35.087,53.299c11.06-1.423,21.555,10.232,23.44,26.033c1.886,15.802-5.553,29.764-16.612,31.188
		c-11.06,1.424-21.555-10.232-23.44-26.033C16.589,68.685,24.026,54.723,35.087,53.299z"/>
	<path style="fill:#C6C6C6;" d="M34.936,53.912c10.926-1.444,21.333,10.022,23.244,25.61c1.913,15.589-5.395,29.395-16.32,30.839
		c-10.925,1.444-21.333-10.023-23.246-25.611C16.703,69.162,24.01,55.356,34.936,53.912z"/>
	<path style="fill:#C7C7C7;" d="M34.786,54.524c10.791-1.464,21.111,9.813,23.05,25.188c1.941,15.377-5.237,29.026-16.028,30.491
		c-10.791,1.464-21.111-9.814-23.052-25.19C16.817,69.639,23.993,55.988,34.786,54.524z"/>
	<path style="fill:#C8C8C8;" d="M34.635,55.137c10.657-1.485,20.891,9.604,22.855,24.766c1.968,15.163-5.079,28.658-15.736,30.143
		c-10.656,1.484-20.89-9.604-22.856-24.768C16.933,70.116,23.977,56.621,34.635,55.137z"/>
	<path style="fill:#C9C9C9;" d="M34.484,55.75c10.522-1.505,20.669,9.394,22.661,24.344c1.994,14.951-4.922,28.289-15.444,29.794
		c-10.523,1.505-20.669-9.395-22.663-24.345C17.047,70.593,23.961,57.254,34.484,55.75z"/>
	<path style="fill:#CACACA;" d="M34.334,56.362c10.388-1.525,20.447,9.185,22.467,23.922c2.021,14.738-4.765,27.921-15.153,29.445
		C31.26,111.255,21.2,100.544,19.18,85.807C17.161,71.069,23.944,57.887,34.334,56.362z"/>
	<path style="fill:#CBCBCB;" d="M34.183,56.975c10.254-1.546,20.227,8.976,22.273,23.5c2.048,14.525-4.607,27.552-14.86,29.098
		c-10.254,1.545-20.226-8.977-22.274-23.502C17.275,71.546,23.928,58.52,34.183,56.975z"/>
	<path style="fill:#CCCCCC;" d="M34.032,57.587c10.119-1.566,20.005,8.767,22.078,23.078c2.074,14.313-4.449,27.183-14.569,28.749
		c-10.119,1.565-20.004-8.768-22.079-23.079C17.39,72.023,23.911,59.152,34.032,57.587z"/>
	<path style="fill:#CDCDCD;" d="M33.882,58.199c9.984-1.586,19.783,8.558,21.883,22.656c2.102,14.1-4.291,26.814-14.276,28.4
		c-9.985,1.587-19.783-8.559-21.885-22.656C17.504,72.5,23.894,59.785,33.882,58.199z"/>
	<path style="fill:#CECECE;" d="M33.73,58.812c9.851-1.607,19.562,8.348,21.689,22.235c2.129,13.887-4.134,26.444-13.985,28.051
		c-9.851,1.607-19.562-8.349-21.69-22.234C17.618,72.977,23.879,60.418,33.73,58.812z"/>
	<path style="fill:#CFCFCF;" d="M33.58,59.424c9.717-1.627,19.34,8.139,21.494,21.812c2.156,13.675-3.976,26.077-13.692,27.704
		c-9.717,1.627-19.341-8.14-21.496-21.813C17.732,73.453,23.862,61.051,33.58,59.424z"/>
	<path style="fill:#D0D0D0;" d="M33.429,60.037c9.583-1.648,19.119,7.929,21.301,21.391c2.183,13.461-3.818,25.707-13.401,27.354
		c-9.581,1.648-19.118-7.931-21.301-21.392C17.847,73.931,23.846,61.684,33.429,60.037z"/>
	<path style="fill:#D1D1D1;" d="M33.278,60.649c9.448-1.667,18.898,7.72,21.106,20.968c2.21,13.249-3.66,25.34-13.108,27.007
		c-9.447,1.668-18.897-7.721-21.107-20.969C17.961,74.407,23.829,62.316,33.278,60.649z"/>
	<path style="fill:#D2D2D2;" d="M33.128,61.262c9.313-1.688,18.676,7.511,20.911,20.547c2.236,13.035-3.503,24.97-12.816,26.658
		c-9.313,1.688-18.677-7.512-20.913-20.547C18.075,74.885,23.812,62.949,33.128,61.262z"/>
	<path style="fill:#D3D3D3;" d="M32.977,61.875c9.18-1.709,18.455,7.301,20.718,20.123c2.263,12.824-3.346,24.603-12.525,26.311
		c-9.179,1.708-18.455-7.303-20.719-20.125C18.189,75.361,23.796,63.582,32.977,61.875z"/>
	<path style="fill:#D4D4D4;" d="M32.826,62.487c9.045-1.729,18.233,7.092,20.522,19.703c2.29,12.609-3.188,24.232-12.232,25.961
		c-9.045,1.729-18.234-7.093-20.524-19.703C18.304,75.838,23.78,64.215,32.826,62.487z"/>
	<path style="fill:#D5D5D5;" d="M32.676,63.1c8.91-1.749,18.012,6.883,20.328,19.279c2.317,12.398-3.03,23.864-11.941,25.613
		c-8.91,1.749-18.012-6.884-20.329-19.281C18.418,76.315,23.764,64.848,32.676,63.1z"/>
	<path style="fill:#D6D6D6;" d="M32.524,63.712c8.776-1.769,17.791,6.674,20.134,18.858c2.345,12.185-2.873,23.495-11.648,25.265
		c-8.776,1.769-17.791-6.675-20.136-18.859C18.532,76.791,23.747,65.481,32.524,63.712z"/>
	<path style="fill:#D7D7D7;" d="M32.374,64.324c8.642-1.79,17.569,6.464,19.939,18.436c2.371,11.973-2.716,23.127-11.357,24.917
		c-8.642,1.79-17.569-6.466-19.94-18.437C18.646,77.269,23.73,66.113,32.374,64.324z"/>
	<path style="fill:#D8D8D8;" d="M32.224,64.937c8.508-1.81,17.348,6.255,19.744,18.014c2.398,11.76-2.558,22.758-11.065,24.567
		c-8.508,1.811-17.349-6.256-19.747-18.015C18.761,77.745,23.714,66.746,32.224,64.937z"/>
	<path style="fill:#D9D9D9;" d="M32.072,65.549c8.374-1.831,17.127,6.046,19.551,17.591c2.425,11.547-2.4,22.39-10.773,24.22
		c-8.373,1.831-17.127-6.046-19.552-17.593C18.875,78.223,23.698,67.379,32.072,65.549z"/>
	<path style="fill:#DADADA;" d="M31.922,66.162c8.239-1.851,16.905,5.837,19.355,17.17c2.452,11.334-2.242,22.021-10.48,23.871
		c-8.239,1.851-16.905-5.838-19.357-17.171C18.989,78.699,23.682,68.012,31.922,66.162z"/>
	<path style="fill:#DBDBDB;" d="M31.771,66.774c8.105-1.871,16.684,5.628,19.161,16.747c2.479,11.122-2.085,21.652-10.189,23.523
		c-8.104,1.871-16.684-5.628-19.163-16.748C19.103,79.176,23.665,68.645,31.771,66.774z"/>
	<path style="fill:#DCDCDC;" d="M31.62,67.387c7.971-1.891,16.463,5.418,18.967,16.326c2.507,10.908-1.927,21.283-9.897,23.174
		c-7.971,1.892-16.463-5.419-18.969-16.326C19.219,79.652,23.648,69.277,31.62,67.387z"/>
	<path style="fill:#DDDDDD;" d="M31.47,68c7.836-1.912,16.241,5.208,18.773,15.903c2.533,10.697-1.77,20.915-9.606,22.827
		c-7.836,1.911-16.241-5.21-18.774-15.905C19.333,80.129,23.632,69.91,31.47,68z"/>
	<path style="fill:#DEDEDE;" d="M31.319,68.612c7.701-1.932,16.02,4.999,18.578,15.482c2.56,10.483-1.612,20.545-9.313,22.478
		c-7.702,1.932-16.021-5.001-18.58-15.483C19.447,80.606,23.616,70.543,31.319,68.612z"/>
	<path style="fill:#DFDFDF;" d="M31.168,69.224c7.567-1.952,15.799,4.791,18.384,15.06c2.587,10.271-1.454,20.177-9.021,22.129
		c-7.566,1.952-15.798-4.791-18.385-15.061C19.561,81.083,23.6,71.176,31.168,69.224z"/>
	<path style="fill:#E0E0E0;" d="M31.018,69.837c7.433-1.973,15.577,4.581,18.189,14.638c2.613,10.058-1.297,19.808-8.73,21.78
		c-7.433,1.973-15.577-4.581-18.191-14.638C19.676,81.561,23.583,71.809,31.018,69.837z"/>
	<path style="fill:#E1E1E1;" d="M30.867,70.449c7.298-1.993,15.355,4.371,17.994,14.216c2.641,9.845-1.139,19.44-8.438,21.433
		c-7.298,1.993-15.355-4.373-17.996-14.217C19.79,82.037,23.566,72.441,30.867,70.449z"/>
	<path style="fill:#E2E2E2;" d="M30.716,71.062c7.165-2.013,15.135,4.163,17.801,13.794c2.667,9.633-0.981,19.07-8.146,21.084
		c-7.164,2.014-15.135-4.163-17.802-13.795C19.904,82.514,23.55,73.074,30.716,71.062z"/>
	<path style="fill:#E3E3E3;" d="M30.565,71.674c7.03-2.034,14.913,3.953,17.606,13.372c2.695,9.419-0.823,18.702-7.854,20.735
		c-7.029,2.034-14.913-3.954-17.607-13.373C20.019,82.99,23.533,73.707,30.565,71.674z"/>
	<path style="fill:#E4E4E4;" d="M30.415,72.287c6.895-2.054,14.691,3.743,17.411,12.949c2.722,9.207-0.666,18.333-7.562,20.387
		c-6.896,2.055-14.691-3.744-17.413-12.95C20.133,83.467,23.518,74.34,30.415,72.287z"/>
	<path style="fill:#E5E5E5;" d="M30.264,72.899c6.762-2.075,14.471,3.534,17.217,12.527c2.749,8.994-0.508,17.965-7.27,20.039
		c-6.761,2.074-14.47-3.536-17.219-12.528C20.247,83.943,23.501,74.973,30.264,72.899z"/>
	
		<ellipse transform="matrix(0.9535 -0.3013 0.3013 0.9535 -25.3057 14.7407)" style="fill:#E6E6E6;" cx="35.135" cy="89.409" rx="12.586" ry="16.672"/>
</g>
</svg>
