<?xml version="1.0" encoding="iso-8859-1"?>
<!-- Generator: Adobe Illustrator 21.1.0, SVG Export Plug-In . SVG Version: 6.00 Build 0)  -->
<svg version="1.1" id="Layer_2" xmlns="http://www.w3.org/2000/svg" xmlns:xlink="http://www.w3.org/1999/xlink" x="0px" y="0px"
	 viewBox="0 0 533.245 441.107" style="enable-background:new 0 0 533.245 441.107;" xml:space="preserve">
<g>
	<path style="fill:#FFE248;" d="M456.326,77.781c-3.069,5.557-22.378,28.947-30.326,45.969
		C356.848,271.842,207.255,347.273,53.431,277.047c-12.801-5.708-16.919-2.862-30.679,7.441c-6.89,5.159-13.384,22.904-8.173,37.971
		c40.524,83.769,122.874,104.098,202.694,105.807c188.7,7.239,341.664-196.404,290.336-313.409
		c-8.835-17.616-31.564-37.843-34.706-56.917c-2.347-14.245-9.317-39.402-13.859-46.781c-3.208-3.114-16.878,25.356-12.215,39.431
		C448.647,56.074,456.28,64.917,456.326,77.781z"/>
	<path style="fill:#010202;" d="M456.761,78.028c-1.505,2.713-3.276,5.157-4.973,7.675l-5.145,7.485
		c-3.424,4.984-6.804,9.991-9.982,15.104c-3.157,5.116-6.206,10.311-8.657,15.688c-2.441,5.529-5.031,11.074-7.744,16.519
		c-10.92,21.777-24.004,42.562-39.359,61.622c-15.286,19.107-32.876,36.444-52.378,51.384
		c-19.489,14.953-41.053,27.276-63.914,36.457c-11.423,4.614-23.232,8.264-35.218,11.12c-5.997,1.415-12.042,2.633-18.129,3.587
		c-6.089,0.941-12.21,1.659-18.348,2.157c-6.137,0.492-12.29,0.772-18.443,0.819c-6.153,0.022-12.303-0.182-18.434-0.596
		c-12.264-0.821-24.449-2.545-36.439-5.087c-11.994-2.529-23.796-5.858-35.332-9.886c-5.771-2.009-11.469-4.21-17.108-6.537
		c-2.819-1.167-5.619-2.378-8.401-3.624l-4.16-1.899l-2.069-0.971c-0.648-0.299-1.313-0.595-1.981-0.874
		c-2.667-1.11-5.372-1.966-7.983-1.992c-2.607-0.057-5.161,0.858-7.671,2.237c-2.508,1.373-4.953,3.1-7.392,4.845l-3.655,2.665
		c-1.023,0.752-1.966,1.761-2.812,2.866c-1.69,2.23-3.021,4.834-4.06,7.538c-1.047,2.708-1.782,5.551-2.216,8.433
		c-0.867,5.756-0.565,11.727,1.301,17.185l-0.07-0.17c7.534,15.824,17.397,30.545,29.374,43.308
		c11.959,12.782,26.101,23.44,41.465,31.761c15.385,8.32,31.944,14.341,48.917,18.528c16.982,4.21,34.376,6.659,51.839,7.957
		c8.736,0.645,17.496,1,26.263,1.122l6.626,0.108c2.155,0.035,4.345,0.036,6.516,0.012c4.35-0.048,8.697-0.208,13.036-0.482
		c17.354-1.115,34.595-3.869,51.392-8.341c33.641-8.837,65.435-24.185,93.974-44.034c14.285-9.923,27.73-21.04,40.292-33.06
		c12.573-12.01,24.209-25.003,34.704-38.847c10.48-13.848,19.973-28.459,27.913-43.875c7.962-15.394,14.39-31.566,18.849-48.232
		c4.417-16.657,6.706-33.911,5.795-51.011c-0.428-8.542-1.676-17.032-3.842-25.278c-1.087-4.121-2.404-8.18-3.954-12.146
		l-0.592-1.483l-0.523-1.261l-0.71-1.396l-0.744-1.365c-1.018-1.819-2.14-3.62-3.318-5.406c-4.749-7.141-10.248-14.07-15.426-21.373
		c-2.589-3.657-5.113-7.414-7.383-11.4c-2.256-3.986-4.293-8.209-5.596-12.823c-0.323-1.152-0.598-2.327-0.81-3.523l-0.531-3.285
		c-0.357-2.135-0.76-4.275-1.194-6.413c-0.869-4.275-1.855-8.543-2.931-12.784c-1.079-4.24-2.248-8.46-3.557-12.613
		c-0.656-2.076-1.348-4.135-2.104-6.148c-0.76-1.993-1.574-4.014-2.535-5.694l0.338,0.422c0.149,0.164,0.542,0.36,0.849,0.364
		c0.296,0.016,0.43-0.059,0.451-0.067c0.039-0.032-0.159,0.074-0.339,0.236c-0.386,0.332-0.828,0.84-1.235,1.373
		c-0.826,1.084-1.588,2.322-2.298,3.588c-1.418,2.547-2.643,5.255-3.711,8.016c-2.098,5.524-3.689,11.342-3.955,17.164
		c-0.098,2.901,0.159,5.795,1.307,8.362c1.173,2.666,2.722,5.345,4.003,8.135c1.301,2.788,2.424,5.691,3.173,8.698
		c0.755,3.003,1.128,6.104,1.056,9.188l-0.003,0.137L456.761,78.028z M455.817,77.64c-0.182-5.957-2.17-11.658-4.987-16.867
		c-1.392-2.664-3.008-5.183-4.423-8.012c-1.478-2.947-1.912-6.259-1.949-9.399c-0.014-6.345,1.426-12.468,3.386-18.357
		c1.004-2.945,2.169-5.836,3.59-8.657c0.719-1.411,1.49-2.801,2.448-4.176c0.49-0.689,1.004-1.371,1.735-2.068
		c0.381-0.346,0.79-0.714,1.526-1.051c0.368-0.159,0.881-0.326,1.557-0.286c0.688,0.03,1.44,0.402,1.862,0.831l0.205,0.208
		l0.133,0.214c1.316,2.109,2.224,4.177,3.111,6.276c0.871,2.094,1.66,4.197,2.409,6.309c1.494,4.223,2.834,8.477,4.083,12.757
		c1.246,4.281,2.401,8.586,3.444,12.934c0.52,2.174,1.013,4.36,1.461,6.567l0.622,3.238c0.202,0.973,0.459,1.944,0.76,2.91
		c1.208,3.867,3.128,7.621,5.326,11.248c2.208,3.632,4.715,7.149,7.331,10.626c5.229,6.971,10.969,13.704,16.163,21.176
		c1.297,1.871,2.558,3.793,3.743,5.802l0.876,1.525l0.828,1.539c-0.06-0.129,0.19,0.38,0.196,0.401l0.087,0.196l0.174,0.392
		l0.348,0.785l0.672,1.578c1.762,4.222,3.274,8.547,4.54,12.939c2.523,8.79,4.065,17.84,4.722,26.928
		c1.269,18.202-0.871,36.443-5.212,53.979c-4.327,17.571-10.991,34.45-19.086,50.514c-8.139,16.053-17.717,31.349-28.589,45.646
		c-10.87,14.299-22.898,27.693-35.89,40.071c-13.006,12.364-27.036,23.641-41.852,33.757
		c-29.619,20.223-62.671,35.608-97.526,44.329c-17.424,4.31-35.271,7.009-53.207,7.699c-4.482,0.182-8.968,0.245-13.451,0.192
		c-2.246-0.026-4.473-0.078-6.732-0.165l-6.618-0.263c-8.892-0.38-17.779-0.996-26.642-1.907
		c-17.718-1.826-35.362-4.843-52.564-9.614c-17.181-4.786-33.946-11.318-49.476-20.151c-7.756-4.417-15.228-9.345-22.242-14.867
		c-7.022-5.51-13.578-11.6-19.658-18.122c-12.153-13.074-22.051-28.121-29.878-44.1l-0.038-0.078l-0.032-0.092
		c-2.095-6.013-2.446-12.482-1.555-18.682c0.459-3.105,1.212-6.164,2.28-9.13c1.079-2.96,2.462-5.837,4.38-8.477
		c0.969-1.311,2.075-2.573,3.473-3.647l3.632-2.754c2.449-1.82,4.921-3.651,7.697-5.244c1.389-0.79,2.87-1.513,4.476-2.044
		c1.602-0.53,3.334-0.846,5.056-0.876c3.475-0.052,6.674,0.927,9.609,2.042c0.738,0.283,1.465,0.581,2.2,0.897l2.068,0.899
		l4.153,1.755c2.777,1.15,5.568,2.264,8.375,3.333c5.612,2.146,11.293,4.1,17.021,5.886c11.456,3.571,23.115,6.436,34.896,8.518
		c11.782,2.072,23.681,3.376,35.597,3.878c5.959,0.243,11.922,0.279,17.876,0.097c5.954-0.148,11.9-0.513,17.823-1.087
		c5.923-0.578,11.824-1.368,17.686-2.373c5.863-0.997,11.699-2.151,17.48-3.549c11.571-2.761,22.909-6.437,33.997-10.749
		c11.08-4.338,21.856-9.466,32.248-15.294c10.393-5.829,20.387-12.372,29.992-19.454c19.198-14.2,36.569-30.868,52.068-49.139
		c15.445-18.328,29.018-38.288,40.577-59.403c2.911-5.278,5.673-10.598,8.353-16.041c2.809-5.537,6.125-10.678,9.594-15.688
		c3.476-5.004,7.107-9.874,10.806-14.681l5.584-7.169C452.351,82.434,454.245,80.098,455.817,77.64z"/>
</g>
<path style="fill:#F6E949;" d="M474.403,95.24c-8.932-14.042-21.595,18.676-25.82,29.931c-6.936,34.258-10.311,41.878-28.405,71.299
	c-32.169,51.567-70.394,82.904-152.929,114.933c-5.922,1.839-11.186,4.411-17.15,6.391c-6.396,2.123-13.319,3.359-19.397,4.51
	c-8.303,1.574-16.561,3.536-24.966,5.129c-7.78,1.474-15.89,0.156-23.887,0.749c-10.29,0.764-19.232-0.772-29.171-2.543
	c-20.524-3.226-38.907-11.075-59.067-15.883c-12.289-5.915-22.386-6.714-35.379-2.082c-7.401,2.457-4.312,7.797-4.514,12.822
	c-0.263,6.543,13.24,19.344,17.237,23.49c26.935,33.971,93.787,55.819,180.239,49.059c79.446-7.008,111.924-26.579,149.47-70.664
	c37.982-36.101,71.305-89.113,84.219-141.153c-0.585-20.336,3.03-55.857-5.33-79.409C478.187,96.614,476.485,98.516,474.403,95.24z"
	/>
<path style="fill:#FFCC07;" d="M83.335,361.731c22.654,14.181,16.338,8.016,32.406,16.273
	c50.784,15.734,105.911,20.927,157.762,11.08c40.477-4.617,64.364-20.426,97.197-41.501c25.811-20.406,50.683-50.842,69.634-75.191
	c25.507-31.194,41.781-76.896,49.227-116.084c-0.53-17.109-0.109-27.427-2.473-44.542c-0.544-3.62-4.627-15.889-4.287-18.988
	c0.468-4.275,3.733,3.893,8.478,9.261c12.502,14.869,17.647,23.447,21.044,41.947c10.359,80.401-30.031,124.616-48.999,156.386
	c-57.337,85.004-152.577,117.89-214.2,122.156c-68.108,4.638-148.367-6.745-194.295-51.919c-9.73-9.572-17.264-19.82-25.163-31.547
	c-16.418-24.371-4.463-30.426,10.154-13.902C56.735,344.283,74.936,356.327,83.335,361.731z"/>
<path d="M458.868,88.794c-6.351,9.671-18.825,47.275-23.079,57.665c-20.134,60.803-60.799,101.648-95.591,122.404
	c-72.072,43.021-135.782,61.936-207.729,48.281c-84.994-16.132-79.875-17.935,8.833,4.846
	c101.056,21.739,201.584-49.067,207.178-52.601c29.605-21.109,44.979-27.635,76.419-87.063
	C433.529,166.016,456.631,98.754,458.868,88.794z"/>
<path d="M467.534,217.668c-21.184,54.461-60.39,94.586-103.39,132.022c-59.345,45.33-170.485,52.017-242.412,28.379
	c-32.592-12.134-44.236-20.766-68.769-46.12c7.15,15.006,31.271,34.299,58.847,46.75c27.732,12.242,73.574,16.752,103.861,16.829
	c51.572-3.106,103.883-6.907,145.847-39.002c49.407-35.85,81.383-80.5,108.408-131.6c3.746-7.054,4.219-7.607,10.744-22.547
	c7.419-19.682,11.35-34.027,11.922-62.109c-0.761-17.652-0.955-30.113-8.694-46.245
	C498.604,157.795,476.348,197.203,467.534,217.668z"/>
<path d="M450.588,32.451c-0.823,1.935-0.664,8.183-0.729,8.987c-0.259,3.19,2.152,5.862,2.928,7.975
	c1.111,3.027,1.263-6.604,1.894-9.906c0.621-3.247,1.815-6.907,2.476-10.365c0.628-3.281,0.912-6.413,1.311-9.446
	C457.791,9.749,451.289,30.706,450.588,32.451z"/>
<path d="M26.164,287.713c-2.165,1.032-3.59,6.191-2.997,13.63c0.466,5.848,10.54-4.528,15.81-6.791
	C43.896,273.169,31.812,284.264,26.164,287.713z"/>
<path style="fill:#FFCC07;" d="M450.976,53.787c1.334,3.778,3.43,10.13,4.231,14.99c0.519,3.15,1.125,5.239,0.775,8.433
	c-0.382,3.491,1.565-0.808,2.906-1.502c3.252-1.682,2.868,0.43,5.232,1.923c1.857,1.174,2.982,4.024,4.274,5.809
	c1.611,2.224,0.357-0.101,2.387-0.68c3.533-1.007-2.951-6.738-4.141-10.213c-0.627-1.834-1.284-3.675-1.81-5.519
	c-1.024-3.595-2.349-6.652-3.17-10.291c-0.954-4.225-5.353-6.392-6.292-10.551c-0.567-2.508,2.789-6.953,2.642-9.368
	c-0.153-2.489,1.039-4.116,0.684-6.275c-0.25-1.518,0.634-3.375,0.618-3.438c-1.134-4.4-4.165,7.181-5.252,11.592
	c-0.8,3.248-0.896,6.598-1.46,9.785C452.437,49.405,451.368,51.567,450.976,53.787z"/>
<path style="fill:#F6E949;" d="M46.881,281.533c3.69-0.17,11.461,3.012,16.553,5.403c40.835,17.084,86.879,26.219,138.981,21.993
	c-5.557,2.225-41.752,7.465-48.626,7.6c-25.4,0.498-59.204-13.151-86.732-18.764c-4.58-0.83-8.622-1.521-11.39-0.819
	c-2.571,0.651-8.438,2.601-9.812,4.869c-1.02,1.686-3.897,0.585-5.846,0.878c-4.392,0.659,5.484-7.08,7.373-11.101
	c0.829-1.766,1.085-3.621,1.697-5.543C49.625,284.338,47.471,282.744,46.881,281.533z"/>
<path style="fill:#F6E949;" d="M451.53,93.403c-3.961,1.629-8.68,10.253-11.652,16.249c-1.527,3.082-4.343,5.955-6.874,8.929
	c-2.756,3.238-4.334,9.357-6.16,12.929c-2.298,4.492-4.102,8.991-5.958,13.829c-1.932,5.044-4.609,10.212-7.054,14.833
	c-2.035,3.847-3.549,7.429-5.666,10.926c-1.474,2.433-3.147,5.161-4.279,7.019c-1.39,2.279,3.919-3.632,5.985-5.324
	c2.098-1.716,4.554-3.211,6.787-5.126c2.946-2.527,3.926-3.674,6.381-6.925c2.178-2.888,3.243-6.459,4.871-9.423
	c1.565-2.849,2.698-5.851,4.274-8.719c1.54-2.806,2.509-6.764,3.669-9.718c1.461-3.722,3.144-7.266,4.767-10.723
	c1.48-3.151,2.579-5.414,4.175-8.319c1.285-2.34,1.99-4.398,2.978-6.914c0.733-1.868,1.916-3.938,2.584-5.312
	C451.931,98.376,451.331,96.948,451.53,93.403z"/>
</svg>
