<?xml version="1.0" encoding="iso-8859-1"?>
<!-- Generator: Adobe Illustrator 21.1.0, SVG Export Plug-In . SVG Version: 6.00 Build 0)  -->
<svg version="1.1" id="Foreground" xmlns="http://www.w3.org/2000/svg" xmlns:xlink="http://www.w3.org/1999/xlink" x="0px" y="0px"
	 viewBox="0 0 80.37 135.024" style="enable-background:new 0 0 80.37 135.024;" xml:space="preserve">
<g>
	<g>
		<path style="fill:#3F1D1D;" d="M63.916,22.334C47.608,49.412,49.332,72.187,46.998,72.272
			c-13.582,0.491,7.347-33.16,11.418-53.188c0.674-3.313-1.555-8.759-0.272-10.195c1.577-1.765,6.902-0.383,7.396,1.583
			C65.713,11.165,66.094,18.717,63.916,22.334z"/>
		<path d="M63.959,22.359c-1.508,2.565-2.946,5.171-4.223,7.857c-1.274,2.686-2.433,5.425-3.48,8.202
			c-2.087,5.559-3.822,11.236-5.18,17.012c-0.694,2.885-1.291,5.794-1.812,8.721L48.49,68.55c-0.136,0.733-0.264,1.47-0.445,2.202
			c-0.094,0.365-0.194,0.731-0.364,1.093c-0.091,0.176-0.183,0.367-0.399,0.512c-0.094,0.071-0.289,0.099-0.358,0.091l-0.28,0.002
			c-0.764-0.011-1.54-0.137-2.236-0.495c-0.699-0.353-1.246-0.973-1.567-1.672c-0.633-1.426-0.589-2.996-0.449-4.477
			c0.35-2.985,1.175-5.873,2.082-8.714c3.707-11.349,8.896-22.137,12.285-33.493c0.413-1.42,0.788-2.849,1.095-4.289
			c0.332-1.363,0.165-2.804-0.008-4.265c-0.178-1.464-0.491-2.92-0.521-4.486c0.001-0.394,0.024-0.8,0.147-1.224
			c0.065-0.211,0.155-0.431,0.319-0.627c0.08-0.11,0.173-0.178,0.228-0.236c0.083-0.068,0.19-0.153,0.282-0.211
			c0.755-0.458,1.583-0.53,2.358-0.509c1.55,0.091,3.079,0.535,4.312,1.53c0.294,0.262,0.574,0.575,0.718,0.981
			c0.132,0.434,0.103,0.781,0.132,1.165c0.026,0.75,0.02,1.498-0.008,2.245c-0.065,1.492-0.172,2.984-0.435,4.456
			C65.11,19.591,64.732,21.066,63.959,22.359z M63.873,22.308c0.74-1.285,1.093-2.753,1.335-4.209
			c0.227-1.464,0.341-2.949,0.328-4.432c-0.004-0.741-0.028-1.482-0.084-2.219c-0.036-0.354-0.047-0.768-0.152-1.042
			c-0.116-0.296-0.356-0.553-0.624-0.771c-1.123-0.843-2.624-1.213-4.026-1.225c-0.698,0.005-1.417,0.132-1.928,0.483
			C58.659,8.937,58.621,8.97,58.56,9.02c-0.07,0.078-0.13,0.123-0.152,0.17c-0.073,0.093-0.125,0.226-0.166,0.37
			c-0.078,0.293-0.096,0.639-0.086,0.988c0.062,1.414,0.407,2.88,0.631,4.362c0.227,1.47,0.423,3.055,0.055,4.609
			c-0.307,1.473-0.682,2.926-1.093,4.366c-1.648,5.764-3.893,11.302-6.138,16.817c-2.238,5.519-4.617,10.974-6.62,16.565
			c-0.961,2.801-1.903,5.641-2.251,8.577c-0.154,1.451-0.198,2.982,0.38,4.311c0.289,0.656,0.791,1.206,1.432,1.518
			c0.636,0.319,1.37,0.432,2.089,0.432c0.185-0.007,0.397,0.011,0.452-0.045c0.101-0.062,0.191-0.217,0.263-0.369
			c0.144-0.315,0.239-0.671,0.324-1.026c0.166-0.715,0.293-1.446,0.404-2.18l0.631-4.42c0.431-2.949,0.925-5.895,1.554-8.815
			c1.271-5.836,3.058-11.569,5.404-17.062c1.173-2.746,2.444-5.446,3.83-8.085C60.878,27.457,62.315,24.845,63.873,22.308z"/>
	</g>
</g>
<g>
	<path style="fill:#9E000B;" d="M33.35,125.537C10.243,127.226,6.499,90.586,6.499,90.586c-1.024-34.898,29.225-26.938,34.466-23.53
		c0.835,0.542,1.661,0.947,2.478,1.247c0.87-0.002,1.785-0.1,2.755-0.324c6.091-1.41,37.135,0.874,24.339,33.9
		C70.536,101.879,54.651,134.26,33.35,125.537z"/>
	<path d="M33.325,125.689c-4.05,0.335-8.236-0.603-11.738-2.782c-3.535-2.161-6.381-5.342-8.605-8.826
		c-1.118-1.747-2.1-3.577-2.974-5.454c-0.845-1.891-1.594-3.821-2.226-5.787c-1.245-3.951-2.133-7.948-2.588-12.119l-0.005-0.051
		l-0.001-0.045c-0.075-4.738,0.477-9.579,2.157-14.107c0.85-2.251,2.022-4.407,3.575-6.263c1.555-1.849,3.455-3.405,5.588-4.497
		c2.126-1.103,4.435-1.802,6.781-2.127c2.344-0.362,4.723-0.367,7.073-0.163c2.351,0.209,4.679,0.653,6.961,1.31
		c1.141,0.341,2.265,0.731,3.373,1.278c0.582,0.29,1.053,0.62,1.527,0.846c0.486,0.247,0.989,0.455,1.502,0.628l-0.286-0.05
		c0.542-0.023,1.082-0.078,1.614-0.177c0.267-0.051,0.532-0.105,0.795-0.175c0.263-0.068,0.617-0.151,0.916-0.201
		c1.236-0.21,2.441-0.273,3.649-0.282c2.414-0.017,4.814,0.268,7.177,0.789c2.359,0.525,4.687,1.306,6.883,2.434
		c2.184,1.141,4.231,2.643,5.916,4.531c1.688,1.882,2.974,4.146,3.748,6.552c0.782,2.406,1.084,4.925,1.046,7.391
		c-0.132,4.948-1.42,9.678-3.19,14.103l-0.034,0.086l-0.021,0.038c-1.95,3.724-4.195,7.116-6.766,10.351
		c-2.58,3.203-5.497,6.164-8.812,8.632c-3.296,2.466-7.041,4.442-11.074,5.287C41.279,127.707,37.051,127.266,33.325,125.689z
		 M33.406,125.398c1.859,0.739,3.821,1.222,5.811,1.359c1.989,0.107,3.989-0.102,5.894-0.646c3.826-1.083,7.192-3.327,10.111-5.953
		c1.465-1.319,2.825-2.753,4.103-4.255c1.291-1.491,2.5-3.055,3.647-4.661c1.162-1.596,2.245-3.251,3.279-4.934
		c1.034-1.667,2.039-3.416,2.882-5.119l-0.055,0.124c1.565-4.253,2.806-8.65,2.919-13.047c0.19-4.369-0.949-8.735-3.766-11.982
		c-2.787-3.261-6.898-5.345-11.211-6.499c-2.168-0.573-4.412-0.918-6.658-1.062c-1.119-0.062-2.253-0.069-3.326,0.047
		c-0.278,0.03-0.494,0.065-0.8,0.124c-0.305,0.061-0.614,0.104-0.924,0.144c-0.619,0.074-1.245,0.102-1.868,0.087l-0.17-0.004
		l-0.116-0.047c-0.576-0.232-1.138-0.5-1.673-0.809c-0.559-0.311-1.027-0.676-1.476-0.925c-0.951-0.537-2.009-0.975-3.077-1.355
		c-2.144-0.769-4.397-1.263-6.67-1.531c-2.274-0.265-4.581-0.251-6.841,0.065c-2.249,0.354-4.459,1.021-6.426,2.138
		c-1.967,1.107-3.686,2.626-4.988,4.445c-1.318,1.81-2.265,3.867-2.915,6.012c-1.312,4.308-1.455,8.9-1.283,13.432l-0.006-0.094
		c0.257,1.914,0.598,3.91,1.022,5.846c0.416,1.946,0.866,3.887,1.422,5.796c0.54,1.914,1.134,3.812,1.843,5.666
		c0.68,1.865,1.466,3.692,2.386,5.449c1.846,3.489,4.229,6.796,7.497,9.108c1.62,1.159,3.459,2.011,5.39,2.547
		c1.941,0.506,3.968,0.653,5.979,0.522l0.033-0.003L33.406,125.398z"/>
</g>
<path style="fill:#C2000D;" d="M33.654,120.275c-21.969,1.35-22.812-29.695-22.812-29.695c-1.051-30.6,24.829-22.888,29.282-19.992
	c0.709,0.461,3.622,0.975,4.446,0.784c5.175-1.198,31.762,1.368,20.678,28.802C65.248,100.174,53.928,128.315,33.654,120.275z"/>
<path style="fill-rule:evenodd;clip-rule:evenodd;fill:#E0000F;" d="M37.49,75.562c-3.53-8.21-19.073-8.544-22.501,5.372
	c-2.927,11.884,6.129,30.818,13.221,28.511c7.092-2.308,2.164-11.981,4.536-19.282C35.457,81.819,39.873,81.092,37.49,75.562z"/>
<ellipse transform="matrix(0.1736 -0.9848 0.9848 0.1736 -57.3684 87.1626)" style="fill:#FFFFFF;" cx="23.253" cy="77.765" rx="2.885" ry="2.886"/>
</svg>
