<?xml version="1.0" encoding="iso-8859-1"?>
<!-- Generator: Adobe Illustrator 21.1.0, SVG Export Plug-In . SVG Version: 6.00 Build 0)  -->
<svg version="1.1" id="Layer_1" xmlns="http://www.w3.org/2000/svg" xmlns:xlink="http://www.w3.org/1999/xlink" x="0px" y="0px"
	 viewBox="0 0 53.667 97.667" style="enable-background:new 0 0 53.667 97.667;" xml:space="preserve">
<g>
	<path style="fill-rule:evenodd;clip-rule:evenodd;fill:#00C3FF;" d="M32.208,1.887c7.322-0.742,10.624,0.072,13.911,0.184
		c0.234,4.433-1.32,36.5,0.221,42.396c1.541,5.896,8.281,14.747,1.707,20.706c-1.689,1.53-5.977,2.551-8.58,4.834
		C31.928,76.616,24.18,86.038,22.071,88.1c-2.836,2.779-11.359,8.289-17.064,4.025c-3.316-2.48-4.434-9.749-0.527-16.973
		c5.283-8.566,21.822-20.084,21.293-25.188c-0.531-5.101-2.512-18.509-3.164-23.75c-0.779-6.241-2.516-13.772-1.443-21.395
		C21.164,4.821,25.613,2.554,32.208,1.887z"/>
	<path style="fill:#1D1D1B;" d="M32.203,1.838c2.311-0.244,4.639-0.378,6.966-0.326c1.164,0.024,2.326,0.097,3.484,0.194
		c1.159,0.092,2.314,0.219,3.47,0.241l0.117,0.002l0.003,0.115c0.119,4.511-0.036,8.997-0.059,13.494L46.1,29.035
		c0.003,2.245,0.022,4.49,0.079,6.73c0.059,2.237,0.114,4.484,0.346,6.686c0.146,2.189,1.087,4.181,1.947,6.265
		c0.879,2.062,1.796,4.149,2.391,6.377c0.588,2.2,0.851,4.675-0.017,6.951c-0.424,1.123-1.099,2.145-1.924,2.991
		c-0.393,0.414-0.88,0.843-1.396,1.146c-0.507,0.312-1.024,0.568-1.54,0.812c-2.052,0.961-4.15,1.76-5.854,3.084
		c-1.675,1.41-3.319,2.977-4.91,4.538c-3.191,3.144-6.249,6.431-9.263,9.762l-2.269,2.496c-0.756,0.823-1.545,1.676-2.445,2.383
		c-1.78,1.426-3.744,2.605-5.851,3.474c-2.098,0.852-4.402,1.397-6.699,1.094c-2.26-0.296-4.503-1.577-5.559-3.664
		c-1.094-2.033-1.382-4.377-1.27-6.63c0.133-2.265,0.688-4.494,1.566-6.58c0.818-2.125,2.265-3.945,3.7-5.66
		c1.466-1.715,3.016-3.352,4.597-4.954c3.155-3.207,6.464-6.264,9.495-9.551c1.472-1.652,3.006-3.362,3.854-5.312
		c0.194-0.483,0.315-0.987,0.274-1.444l-0.191-1.664l-0.433-3.338l-1.789-13.361c-0.305-2.224-0.572-4.467-0.831-6.69l-0.889-6.684
		c-0.552-4.462-0.812-9.014-0.151-13.484l0.008-0.053l0.045-0.021c1.745-0.821,3.572-1.417,5.428-1.899
		C28.404,2.357,30.297,2.024,32.203,1.838z M32.213,1.937c-1.899,0.202-3.783,0.55-5.629,1.04c-1.841,0.495-3.663,1.108-5.375,1.932
		l0.053-0.075c-0.594,4.455-0.196,8.963,0.449,13.391l1.056,6.658l0.954,6.674c0.628,4.45,1.32,8.891,1.876,13.355l0.414,3.351
		l0.185,1.687c0.053,0.669-0.119,1.283-0.342,1.837c-0.966,2.192-2.561,3.844-4.087,5.505c-3.125,3.267-6.485,6.253-9.695,9.391
		c-1.604,1.568-3.19,3.157-4.649,4.855c-1.448,1.71-2.862,3.452-3.687,5.542c-0.883,2.046-1.449,4.241-1.555,6.467
		c-0.099,2.21,0.205,4.502,1.266,6.443c1.01,1.982,3.137,3.164,5.303,3.413c2.19,0.256,4.411-0.299,6.441-1.161
		c2.036-0.876,3.948-2.062,5.654-3.471c0.859-0.696,1.591-1.511,2.342-2.353l2.23-2.525c2.972-3.374,5.977-6.73,9.163-9.924
		c1.605-1.596,3.206-3.146,4.959-4.643c1.858-1.458,4.021-2.281,6.017-3.238c0.498-0.239,0.987-0.487,1.435-0.768
		c0.452-0.272,0.812-0.596,1.192-0.996c0.737-0.767,1.317-1.665,1.682-2.648c0.734-1.979,0.542-4.212-0.018-6.316
		c-0.56-2.122-1.449-4.172-2.325-6.241c-0.438-1.036-0.879-2.08-1.257-3.164c-0.188-0.548-0.36-1.084-0.493-1.676
		c-0.122-0.581-0.195-1.15-0.257-1.719c-0.426-4.535-0.345-9.029-0.298-13.531c0.088-8.994,0.69-17.984,0.778-26.952l0.12,0.117
		c-2.333-0.128-4.629-0.464-6.95-0.516C36.846,1.605,34.525,1.715,32.213,1.937z"/>
</g>
<path style="fill-rule:evenodd;clip-rule:evenodd;fill:#FFFFFF;stroke:#000000;stroke-width:0.25;stroke-miterlimit:10;" d="
	M20.854,8.626c3.814-3.168,25.289-4.459,25.253-1.875c-0.021,1.543,0,4.375,0,4.375c-6.689-1.25-16.731-0.917-25.176,2.218
	C20.702,13.428,20.854,8.626,20.854,8.626z"/>
<path style="fill-rule:evenodd;clip-rule:evenodd;fill:#FFFFFF;stroke:#000000;stroke-width:0.25;stroke-miterlimit:10;" d="
	M21.09,15.301c2.658-2.886,24.837-3.884,24.837-1.697c0,1.542-0.083,4.324-0.083,4.324c-6.689-1.25-15.699-0.869-24.143,2.266
	C21.472,20.279,21.09,15.301,21.09,15.301z"/>
</svg>
