<?xml version="1.0" encoding="iso-8859-1"?>
<!-- Generator: Adobe Illustrator 21.1.0, SVG Export Plug-In . SVG Version: 6.00 Build 0)  -->
<svg version="1.1" id="Layer_3" xmlns="http://www.w3.org/2000/svg" xmlns:xlink="http://www.w3.org/1999/xlink" x="0px" y="0px"
	 viewBox="0 0 340 749" style="enable-background:new 0 0 340 749;" xml:space="preserve">
<path style="fill:#F2F2F2;stroke:#231F20;stroke-width:2;stroke-miterlimit:10;" d="M296.225,23.465
	c-20.975,23.138-62.367,72.58-95.576,127.594l0,0c-48.209,79.852-99.834,189.849-133.194,308.621l0,0
	C37.178,567.495,31.861,603.628,22.918,657.504l0,0c-5.254,31.641-6.741,51.351-6.658,63.542l0,0
	c0.05,11.265,1.514,16.092,2.405,17.954l0,0c6.098-7.401,13.946-29.371,17.868-67.108l0,0
	c4.278-40.398,58.033-324.065,152.546-489.343l0,0C253.457,69.997,276.381,48.343,296.307,23.84l0,0
	c1.335-1.642,2.541-3.123,3.631-4.462l0,0C298.77,20.661,297.525,22.029,296.225,23.465L296.225,23.465z"/>
<circle cx="300.056" cy="18.373" r="0.001"/>
<g>
	<path style="fill:#98E0F9;" d="M15.812,462.611c0.044-0.141,0.081-0.273,0.127-0.416C15.939,462.195,15.889,462.341,15.812,462.611
		z M25.001,599.62c0,6.027,0.8,13.003,1.9,18.517c1.163-6.559,2.383-13.195,3.724-20.105c-1.195-4.104-2.549-9.472-4.365-16.282
		C28.273,590.811,25.001,589.301,25.001,599.62z M322.414,82.951c4.833-14.014,7.248-29.96,1.933-35.276
		c-5.315-5.315-17.235-19.812-17.235-24.644c0-4.056-3.053-6.664-4.642-7.295c-0.496-2.278-7.173-5.011-15.953-6.108
		c-10.068-1.258-19.634-2.013-29.198,0c-9.566,2.013-21.144,8.306-25.675,12.837c-4.53,4.531-11.578,8.306-16.613,16.109
		c-5.034,7.802-9.311,13.593-16.358,18.375c-7.049,4.783-16.738,22.276-23.912,29.45c-7.175,7.173-9.247,10.724-9.564,19.38
		c-0.562,15.345,10.115,39.367,15.068,62.563c-2.285-9.22-5.953-19.179-9.53-27.576c-5.788-13.593-7.426-25.675-7.426-38.133
		c-3.397,3.397-18.752,21.772-22.024,27.31c-3.272,5.538-13.844,22.905-16.613,30.206c-2.768,7.3-10.696,19.003-14.85,23.157
		c-4.154,4.153-7.048,9.565-7.048,16.109c0,6.544-6.292,25.675-11.578,30.961c-5.286,5.285-5.161,19.003-11.579,25.421
		c-6.418,6.419-7.046,10.067-11.073,27.435c-4.028,17.368-8.055,10.068-12.334,23.912c-7.371,23.848,9.483,67.912,25.155,98.182
		c31.683-95.422,73.286-182.258,112.479-248.187c32.202-54.159,72.118-102.642,92.385-125.381
		c6.661-7.458,11.534-12.942,13.587-14.467c0.355-0.214,0.523-0.46,1.307-0.524c0.288-0.011,0.713,0.115,1.011,0.42
		c0.319,0.31,0.514,0.824,0.5,1.252c-0.033,0.817-0.349,1.333-0.796,2.099c-0.461,0.749-1.134,1.685-2.085,2.936
		c-1.904,2.497-4.928,6.25-9.513,11.981c-19.282,24.117-40.986,44.854-103.182,155.19C132.392,287.593,91.36,427.026,66.388,531.425
		c12.814-5.392,34.805-15.351,42.762-19.046c7.732-3.59-29.981,14.043-43.143,20.642c-0.318,1.339-0.635,2.672-0.949,3.999
		c8.538-4.012,25.019-11.575,27.501-12.883c2.468-1.299-18.435,10.273-27.957,14.812c-0.188,0.796-0.377,1.598-0.563,2.391
		c6.111-3.008,14.406-7.117,16.601-8.019c2.17-0.895-10.1,5.664-16.908,9.333c-4.404,18.824-8.258,36.363-11.541,52.105
		c6.6,0.758,14.042,2.457,23.134-10.217c10.631-14.818,24.966-18.524,31.571-25.128c6.604-6.604,11.929-21.261,21.262-27.383
		c54.837-35.973,37.476-44.18,59.571-70.064c-26.233,22.412-49.557,33.775-112.37,55.556c0,0,83.859-39.352,95.642-48.296
		c26.2-19.887,20.267-44.759,36.302-67.235c-9.665,3.222-19.498,27.565-30.935,30.304c-11.437,2.739-29.788,8.518-22.54,5.136
		c7.249-3.383,5.74-1.4,14.277-9.938c8.537-8.537,17.558-11.114,19.974-19.975c2.416-8.858,9.665-26.577,16.752-33.664
		c7.088-7.087,30.282-23.678,34.954-38.658c0,0-18.686,10.954-37.692,12.725c-19.007,1.772-41.558,5.96-55.411,14.819
		c18.524-12.403,30.444-17.879,41.236-22.39c10.792-4.509,25.369-15.06,32.698-22.39c7.329-7.329,16.43-20.295,17.719-23.839
		c1.289-3.543,12.886-32.699,12.886-44.779c0,0-25.61,31.248-45.906,41.396c20.457-17.235,51.704-46.067,57.665-56.215
		c5.959-10.148,14.335-27.383,18.201-33.182c-28.35,23.678-74.9,44.94-83.599,47.839c0,0,78.767-40.913,92.78-62.336
		c-24.161,15.141-61.531,31.731-72.323,35.759c43.49-21.101,64.833-39.061,71.679-45.907c6.846-6.846,15.624-12.725,18.363-15.463
		c-18.363,8.537-32.055,19.006-43.812,23.194c21.423-14.658,31.57-23.034,35.275-31.249c3.704-8.215,6.603-20.457,8.537-24
		c-6.122,4.51-16.914,14.657-25.129,17.234c0,0,25.129-19.49,30.283-30.604c5.154-11.115,5.154-15.786,6.604-19.169
		c-10.31,6.443-23.035,12.242-30.122,13.047C305.179,102.119,317.582,96.964,322.414,82.951z M80.809,406.98
		c-28.083-32.637-27.621-94.049-27.621-94.049c-9.061,19.885-1.636,32.345-13.592,59.657c-9.545,21.802-3.397,61.04-5.789,58.648
		c-2.391-2.391-1.761-23.913-1.761-36.246c-3.776,15.354-4.529,50.593,0.505,88.6c-7.299-10.572-7.047-69.222-7.047-69.222
		c-6.293,27.688-3.273,58.9-3.273,70.228c0,10.436,12.179,29.63,23.544,45.971c4.904-19.579,10.955-42.353,18.643-69.866
		C69.489,442.555,74.979,424.624,80.809,406.98z M21.477,492.147c-9.576-13.646-6.381-27.044-5.665-29.536
		c-6.796,21.57,2.12,28.902-1.131,47.408c-3.273,18.627,13.341,37.748,18.626,43.033c2.34,2.34,3.445,7.589,3.952,13.279
		c2.279-10.172,4.893-21.228,7.965-33.559C35.576,525.541,30.528,505.046,21.477,492.147z"/>
	<g>
		<path style="fill:#231F20;" d="M15.668,462.567c0.053-0.021-0.367-0.188-0.738-0.34c-0.376-0.153-0.45-0.214-0.252-0.19
			c0.197,0.018,0.669,0.125,0.767,0.116c0.113-0.003-0.031-0.088-0.287-0.212l1.557,0.522c0.269,0.11,0.477,0.215,0.541,0.264
			c0.1,0.063,0.205,0.126,0.149,0.142c-0.03,0.007-0.074,0.01-0.156,0.002c-0.087-0.01-0.256-0.043-0.461-0.086
			c-0.397-0.082-0.836-0.171-0.833-0.133L15.668,462.567z M15.668,462.57c0.023-0.031-0.396-0.19-0.773-0.342
			c-0.195-0.078-0.352-0.145-0.43-0.19c-0.072-0.042-0.105-0.074-0.125-0.102c-0.035-0.055,0.091-0.061,0.213-0.066
			c0.086-0.02,0.316,0.015,0.609,0.057l-4.002-0.574l5.559,1.097c-0.277-0.055-0.443-0.07-0.351-0.004
			c0.076,0.061,0.526,0.236,0.703,0.324c0.177,0.092,0.082,0.1-0.315,0.018c-0.392-0.082-0.833-0.18-0.801-0.132L15.668,462.57z"/>
		<path style="fill:#231F20;" d="M25.151,599.619c-0.005,1.556,0.122,3.1,0.379,4.636c0.238,1.536,0.606,3.056,0.951,4.566
			c0.348,1.512,0.683,3.017,0.944,4.527c0.274,1.51,0.485,3.026,0.694,4.545l-2.441,0.026c0.833-3.316,1.948-6.58,2.595-9.927
			c0.327-1.673,0.597-3.356,0.814-5.051c0.218-1.693,0.372-3.4,0.555-5.102l0.022,0.47c-0.515-1.323-0.998-2.655-1.422-4.001
			c-0.439-1.342-0.834-2.692-1.246-4.038c-0.807-2.695-1.616-5.385-2.276-8.111l3.097-0.757c0.308,1.531,0.552,3.11,0.525,4.775
			c-0.009,1.668-0.523,3.397-1.155,4.774c-0.622,1.39-1.195,2.731-1.525,4.2C25.306,596.607,25.162,598.115,25.151,599.619z
			 M24.852,599.621c-0.006-1.516-0.021-3.031,0.018-4.572c0.042-1.53,0.207-3.129,0.448-4.631c0.251-1.507,0.315-2.784,0.154-4.144
			c-0.136-1.356-0.43-2.763-0.769-4.179l3.097-0.757c0.787,2.703,1.401,5.449,2.024,8.188l0.92,4.107
			c0.309,1.366,0.573,2.743,0.841,4.117l0.064,0.323l-0.042,0.147c-0.463,1.645-0.952,3.285-1.369,4.94
			c-0.416,1.654-0.773,3.32-1.066,4.999c-0.594,3.354-0.69,6.799-1.048,10.193l-0.708,6.71l-1.733-6.684
			c-0.396-1.529-0.708-3.076-0.892-4.64c-0.195-1.562-0.249-3.14-0.225-4.719c0.021-1.578,0.132-3.156,0.189-4.722
			C24.835,602.735,24.858,601.172,24.852,599.621z"/>
		<path style="fill:#231F20;" d="M322.272,82.902c2.042-5.986,3.665-12.138,4.486-18.41c0.39-3.132,0.589-6.308,0.26-9.442
			c-0.171-1.562-0.482-3.118-1.076-4.562c-0.299-0.719-0.67-1.41-1.144-2.022c-0.463-0.608-1.074-1.133-1.609-1.721
			c-4.339-4.635-8.371-9.551-11.981-14.779c-0.892-1.314-1.749-2.654-2.522-4.048c-0.744-1.403-1.512-2.832-1.752-4.475
			c0.007-1.607-0.349-3.118-1.18-4.446c-0.811-1.299-1.977-2.456-3.363-3.065l-0.103-0.045l-0.025-0.106
			c-0.129-0.547-0.602-1.013-1.078-1.402c-0.494-0.389-1.043-0.717-1.608-1.014c-1.135-0.59-2.338-1.059-3.56-1.462
			c-2.448-0.803-4.979-1.365-7.528-1.769c-5.117-0.718-10.283-1.274-15.449-1.461c-5.165-0.178-10.359,0.1-15.417,1.147
			c-5.049,1.059-9.892,2.995-14.503,5.307c-4.592,2.361-9.041,5.063-12.646,8.813c-1.95,1.735-4.025,3.295-6.018,4.943
			c-1.997,1.641-3.92,3.367-5.652,5.272c-0.863,0.954-1.68,1.949-2.438,2.987c-0.763,1.031-1.433,2.134-2.152,3.221
			c-1.425,2.17-2.895,4.316-4.483,6.381c-3.144,4.141-6.938,7.861-11.275,10.739c-2.026,1.525-3.751,3.484-5.393,5.464
			c-1.636,1.997-3.178,4.077-4.694,6.174c-3.036,4.195-5.941,8.494-9.116,12.617c-1.578,2.056-3.292,4.07-5.15,5.877
			c-1.796,1.851-3.556,3.749-4.994,5.856c-1.454,2.097-2.457,4.462-2.928,6.965c-0.474,2.496-0.614,5.093-0.549,7.645
			c0.193,5.132,1.273,10.214,2.519,15.222c1.267,5.012,2.767,9.971,4.281,14.926c3.035,9.908,6.193,19.815,8.398,29.992l-1.129,0.26
			c-1.388-5.495-3.134-10.904-5.091-16.233c-0.98-2.665-2.012-5.311-3.089-7.938c-1.07-2.619-2.255-5.231-3.232-7.932
			c-1.993-5.377-3.477-10.95-4.4-16.614c-0.936-5.664-1.3-11.408-1.314-17.13l1.251,0.518c-2.376,2.492-4.646,5.22-6.906,7.892
			c-2.254,2.691-4.48,5.409-6.67,8.151c-2.184,2.745-4.352,5.511-6.386,8.345c-0.505,0.709-1.002,1.423-1.463,2.144
			c-0.449,0.703-0.89,1.49-1.341,2.239l-2.687,4.538c-3.558,6.057-7.1,12.135-10.282,18.361c-0.787,1.558-1.55,3.129-2.214,4.714
			c-0.322,0.769-0.623,1.631-0.991,2.458c-0.357,0.825-0.738,1.635-1.136,2.434c-1.598,3.192-3.418,6.239-5.354,9.21
			c-1.948,2.965-3.992,5.86-6.306,8.601c-0.574,0.677-1.21,1.371-1.829,1.988c-0.592,0.608-1.153,1.242-1.683,1.905
			c-1.06,1.321-1.977,2.749-2.72,4.258c-0.736,1.511-1.3,3.103-1.643,4.743c-0.174,0.819-0.296,1.65-0.368,2.485
			c-0.087,0.852-0.055,1.624-0.099,2.608c-0.289,3.695-1.215,7.114-2.195,10.539c-1.012,3.409-2.195,6.761-3.581,10.044
			c-0.695,1.641-1.445,3.264-2.285,4.855c-0.852,1.587-1.762,3.154-2.959,4.619c-0.279,0.351-0.672,0.753-0.94,1.033
			c-0.259,0.278-0.502,0.578-0.736,0.904c-0.466,0.646-0.867,1.365-1.229,2.114c-0.719,1.504-1.277,3.132-1.792,4.786
			c-1.03,3.315-1.872,6.764-3.181,10.14c-0.657,1.685-1.436,3.358-2.472,4.921c-0.519,0.78-1.101,1.531-1.764,2.221
			c-0.65,0.661-1.212,1.235-1.791,1.883c-1.136,1.267-2.147,2.601-2.964,4.052c-0.822,1.448-1.464,3.01-2.011,4.632
			c-1.082,3.252-1.87,6.675-2.679,10.087c-0.831,3.418-1.491,6.842-2.497,10.319c-0.511,1.724-1.103,3.445-1.91,5.119
			c-0.79,1.669-1.914,3.299-3.217,4.611c-1.299,1.312-2.454,2.404-3.327,3.787c-0.889,1.364-1.576,2.904-2.16,4.502
			c-2.401,6.397-2.705,13.418-2.229,20.313c0.5,6.918,1.826,13.792,3.528,20.559c1.714,6.77,3.837,13.445,6.213,20.029
			c4.772,13.164,10.513,25.989,16.951,38.434l-2.4,0.188c11.74-35.553,25.154-70.545,39.964-104.927
			c14.819-34.378,31.044-68.155,48.768-101.134c8.87-16.487,18.107-32.77,27.86-48.764c9.793-15.971,20.245-31.525,31.17-46.73
			c10.93-15.202,22.328-30.062,34.148-44.579c5.912-7.256,11.93-14.428,18.08-21.486c3.071-3.534,6.2-7.018,9.326-10.495
			c1.564-1.739,3.134-3.476,4.731-5.196c0.799-0.86,1.605-1.715,2.436-2.558c0.844-0.842,1.653-1.675,2.68-2.465l0.04-0.031
			l0.031-0.017c0.085-0.046,0.241-0.179,0.505-0.325c0.259-0.143,0.547-0.228,0.791-0.27c0.125-0.023,0.243-0.037,0.358-0.047
			c0.238-0.013,0.147-0.002,0.236-0.004c0.087,0.006,0.2,0.018,0.283,0.034c0.301,0.058,0.572,0.165,0.829,0.326
			c0.127,0.084,0.249,0.177,0.362,0.288c0.149,0.157,0.12,0.115,0.264,0.302c0.206,0.283,0.301,0.495,0.392,0.766
			c0.082,0.262,0.137,0.533,0.13,0.844l-0.026,0.335c-0.013,0.112-0.041,0.263-0.066,0.391c-0.108,0.49-0.318,0.913-0.515,1.266
			l-0.29,0.504l-0.324,0.508c-0.436,0.659-0.882,1.264-1.336,1.872c-1.821,2.411-3.702,4.732-5.571,7.071
			c-3.739,4.665-7.492,9.346-11.336,13.934c-7.68,9.178-15.222,18.437-22.327,28.047c-14.238,19.197-27.201,39.326-39.721,59.703
			c-12.497,20.396-24.473,41.117-36.201,61.967c-11.621,20.896-22,42.474-31.585,64.385c-19.14,43.853-35.159,89.019-49.422,134.684
			c-14.243,45.683-26.731,91.905-37.849,138.444l-0.767-0.65c7.428-3.149,14.806-6.435,22.172-9.737l11.035-4.991l5.506-2.521
			l2.748-1.269l1.372-0.638l0.688-0.319l0.175-0.081l0.055-0.024c0.045-0.838,1.257,1.541,0.545,1.144l-0.035,0.018l-0.09,0.044
			l-0.344,0.164L88.11,523.085c-7.283,3.485-14.576,6.962-21.788,10.565l0.37-0.467l-0.943,4l-0.994-0.808l14.149-6.61l7.07-3.306
			l3.525-1.666l1.75-0.845l0.857-0.429l0.217-0.113l0.07-0.035l0.081-0.036c0.002-0.343,1.272,2.526,0.705,1.328l-0.036,0.023
			l-0.135,0.081l-0.433,0.246c-4.556,2.545-9.128,5.026-13.721,7.488c-4.6,2.449-9.196,4.892-13.909,7.169l0.435-0.539l-0.559,2.39
			l-1.14-0.906l8.585-4.237l4.31-2.097l2.172-1.029l1.104-0.502l0.581-0.245l0.115-0.042l0.081-0.024
			c0.019-0.008,0.163-0.036,0.24-0.035c1.604,0.423,0.434,1.675,0.61,1.431c-0.035,0.037-0.106,0.099-0.113,0.102l-0.104,0.077
			l-0.293,0.188c-2.813,1.644-5.602,3.121-8.413,4.657l-8.421,4.55l0.429-0.56c-4.026,17.322-7.858,34.688-11.465,52.101
			l-0.806-1.116c2.055,0.237,4.043,0.522,6.002,0.509c1.956-0.006,3.874-0.324,5.664-1.035c3.6-1.416,6.566-4.225,9.057-7.324
			c0.632-0.784,1.208-1.575,1.817-2.417c0.611-0.837,1.257-1.671,1.918-2.472c1.326-1.608,2.748-3.139,4.252-4.58
			c3.008-2.887,6.345-5.404,9.814-7.653c3.459-2.264,7.077-4.239,10.474-6.411c1.688-1.094,3.325-2.246,4.709-3.596
			c1.384-1.356,2.596-2.955,3.742-4.604c4.571-6.626,8.157-14.221,14.226-20.203c0.763-0.735,1.568-1.437,2.425-2.082
			c0.87-0.661,1.751-1.2,2.59-1.767c1.697-1.127,3.389-2.271,5.066-3.43c3.356-2.317,6.666-4.699,9.9-7.171
			c6.448-4.953,12.681-10.24,17.948-16.351c2.625-3.056,4.964-6.334,6.906-9.846c1.961-3.505,3.503-7.245,5.116-11.025
			c1.607-3.779,3.389-7.562,5.559-11.118c2.157-3.565,4.646-6.915,7.333-10.069l1.693,1.692
			c-8.009,6.882-16.501,13.27-25.532,18.802c-9.019,5.554-18.498,10.295-28.138,14.586c-9.646,4.288-19.455,8.157-29.314,11.861
			c-9.86,3.703-19.78,7.226-29.721,10.68l-1.024-2.518c13.925-6.567,27.817-13.224,41.655-19.975
			c13.825-6.771,27.649-13.577,41.19-20.83c3.372-1.826,6.744-3.676,9.958-5.673c0.798-0.501,1.586-1.015,2.314-1.546
			c0.73-0.547,1.489-1.145,2.209-1.736c1.455-1.196,2.855-2.455,4.187-3.779c5.366-5.276,9.467-11.695,12.358-18.678
			c2.942-6.976,4.84-14.426,7.28-21.803c2.407-7.371,5.546-14.709,10.167-21.138l1.67,2.26c-1.676,0.574-3.294,1.857-4.758,3.284
			c-1.475,1.44-2.84,3.061-4.167,4.727c-2.65,3.344-5.141,6.89-7.827,10.344c-2.708,3.43-5.512,6.905-9.297,9.63
			c-0.95,0.671-1.98,1.273-3.1,1.75c-0.564,0.229-1.142,0.443-1.75,0.591l-1.583,0.392c-2.085,0.52-4.17,1.072-6.254,1.634
			c-4.174,1.122-8.325,2.309-12.552,3.406c-1.074,0.27-2.098,0.542-3.297,0.754c-0.153,0.025-0.322,0.049-0.52,0.067
			c-0.119,0.007-0.213,0.019-0.419,0.009c-0.048,0.003-0.304-0.028-0.473-0.083c-0.274-0.104-0.475-0.198-0.737-0.486
			c-0.45-0.504-0.408-1.287-0.318-1.432c0.1-0.349,0.271-0.56,0.288-0.574c0.06-0.077,0.128-0.152,0.195-0.218l0.21-0.176
			c0.095-0.068,0.204-0.144,0.276-0.186c0.166-0.103,0.302-0.178,0.44-0.252c0.54-0.288,1.05-0.519,1.543-0.748
			c1.004-0.462,2.021-0.9,3.028-1.318c1.01-0.423,1.962-0.804,2.755-1.274c1.586-0.944,3.128-2.48,4.665-3.951
			c1.553-1.49,3.005-3.037,4.684-4.57c3.283-3.016,6.96-5.501,10.33-8.066c1.676-1.292,3.264-2.631,4.552-4.146
			c1.294-1.511,2.257-3.21,2.804-5.081c1.16-4.199,2.674-8.365,4.324-12.403c1.667-4.05,3.507-8.029,5.627-11.893
			c1.062-1.932,2.199-3.831,3.463-5.674c1.259-1.828,2.682-3.652,4.342-5.223c3.243-3.067,6.568-5.777,9.823-8.628
			c3.257-2.828,6.462-5.694,9.524-8.686c3.058-2.993,5.991-6.104,8.586-9.437c2.571-3.327,4.868-6.911,6.091-10.749l2.318,1.843
			c-3.661,2.073-7.354,3.834-11.158,5.472c-3.799,1.623-7.68,3.063-11.645,4.268c-3.964,1.203-8.016,2.17-12.145,2.777
			c-1.032,0.152-2.069,0.28-3.111,0.381l-3.034,0.299c-2.016,0.211-4.028,0.442-6.037,0.702c-8.032,1.042-16.02,2.464-23.81,4.55
			c-7.758,2.107-15.434,4.82-22.123,9.044l-1.713-2.618c11.346-7.609,23.235-14.588,35.817-20.084
			c1.567-0.692,3.14-1.367,4.716-2.03c1.588-0.653,3.059-1.305,4.562-2.059c2.982-1.489,5.89-3.179,8.732-4.974
			c5.673-3.608,11.139-7.611,16.204-12.006c5.069-4.334,9.346-9.533,13.423-14.91c2.018-2.695,3.972-5.455,5.732-8.281
			c0.437-0.705,0.858-1.417,1.239-2.124c0.188-0.352,0.368-0.705,0.514-1.034c0.078-0.179,0.118-0.282,0.199-0.505l0.23-0.611
			l1.805-4.771c2.376-6.357,4.636-12.755,6.615-19.22c0.985-3.232,1.901-6.482,2.661-9.748c0.738-3.252,1.397-6.58,1.434-9.741
			l2.703,0.966c-3.354,4.029-6.811,7.894-10.367,11.705c-3.557,3.802-7.211,7.516-10.995,11.105
			c-3.786,3.586-7.698,7.055-11.82,10.294c-4.13,3.225-8.451,6.267-13.228,8.675l-11.482,5.79l9.835-8.294
			c7.532-6.353,14.933-12.878,22.222-19.518c7.275-6.653,14.476-13.396,21.399-20.386c3.449-3.501,6.854-7.056,9.99-10.777
			c1.559-1.881,3.04-3.734,4.191-5.798c1.228-2.113,2.421-4.267,3.597-6.428c2.352-4.327,4.641-8.7,6.958-13.067l3.521-6.544
			c1.207-2.177,2.398-4.341,3.812-6.491l2.035,1.827c-6.252,5.195-12.86,9.902-19.627,14.337
			c-6.771,4.431-13.715,8.579-20.764,12.528c-7.05,3.946-14.208,7.692-21.461,11.248c-3.628,1.776-7.279,3.505-10.964,5.169
			c-3.706,1.65-7.356,3.292-11.277,4.671l-0.962-2.274c8.273-4.326,16.484-8.831,24.621-13.436
			c8.137-4.611,16.21-9.335,24.16-14.251c7.945-4.921,15.789-10.011,23.34-15.485c3.768-2.742,7.467-5.581,10.978-8.616
			c3.477-3.044,6.9-6.257,9.424-9.99l1.353,1.38c-5.742,3.571-11.626,6.885-17.572,10.069c-5.948,3.181-11.964,6.227-18.025,9.176
			c-6.061,2.948-12.168,5.8-18.318,8.558c-6.161,2.742-12.322,5.45-18.657,7.855l-0.619-1.447
			c16.395-7.922,32.424-16.664,47.559-26.78c7.542-5.08,14.911-10.466,21.642-16.552c1.68-1.506,3.242-3.172,4.96-4.711
			c1.697-1.545,3.447-3.024,5.224-4.466c1.775-1.442,3.581-2.844,5.383-4.241c1.784-1.404,3.646-2.771,5.239-4.289l0.604,0.864
			c-7.488,3.455-14.69,7.502-21.828,11.669c-3.573,2.077-7.138,4.181-10.776,6.169c-3.639,1.981-7.358,3.863-11.292,5.269
			l-3.103,1.109l2.723-1.856c5.028-3.428,10.03-6.896,14.914-10.518c4.866-3.636,9.681-7.383,13.925-11.708
			c2.103-2.171,4.053-4.51,5.524-7.132c1.424-2.636,2.45-5.525,3.474-8.376c1.003-2.867,1.915-5.769,2.832-8.673
			c0.46-1.452,0.919-2.904,1.408-4.351c0.501-1.444,0.978-2.893,1.705-4.289l0.45,0.393c-2.039,1.51-4.005,3.138-5.989,4.741
			c-1.982,1.606-3.974,3.208-6.012,4.751c-2.038,1.543-4.121,3.034-6.299,4.389c-2.18,1.343-4.455,2.583-6.928,3.373l-1.47,0.469
			l1.216-0.955c4.162-3.267,8.226-6.675,12.182-10.193c3.947-3.527,7.801-7.169,11.358-11.083c1.77-1.961,3.473-3.991,4.945-6.174
			c1.509-2.157,2.477-4.627,3.521-7.059c1.01-2.444,1.908-4.932,2.649-7.468c0.374-1.268,0.701-2.547,1.026-3.833
			c0.331-1.282,0.646-2.584,1.175-3.831l0.318,0.273c-4.683,2.91-9.538,5.538-14.545,7.846c-2.505,1.15-5.049,2.219-7.65,3.142
			c-2.603,0.905-5.259,1.725-8.021,2.062l-1.119,0.137l1.015-0.496c3.26-1.594,6.537-3.147,9.771-4.784
			c3.23-1.639,6.423-3.363,9.434-5.37c3.005-2.004,5.823-4.321,8.147-7.088C319.313,89.519,321.102,86.318,322.272,82.902z
			 M322.556,83c-1.174,3.449-2.978,6.692-5.326,9.483c-2.344,2.801-5.185,5.143-8.203,7.165c-3.025,2.025-6.227,3.76-9.46,5.408
			c-3.236,1.646-6.513,3.206-9.767,4.804l-0.106-0.359c2.708-0.335,5.349-1.152,7.933-2.057c2.585-0.921,5.117-1.991,7.611-3.142
			c4.984-2.309,9.822-4.938,14.482-7.847l0.591-0.368l-0.271,0.642c-0.507,1.198-0.817,2.485-1.146,3.767
			c-0.322,1.285-0.649,2.574-1.023,3.85c-0.741,2.554-1.642,5.061-2.651,7.519c-1.038,2.431-2.018,4.941-3.554,7.149
			c-1.49,2.217-3.202,4.263-4.978,6.239c-3.569,3.941-7.427,7.6-11.377,11.143c-3.96,3.535-8.018,6.952-12.19,10.239l-0.254-0.485
			c2.395-0.769,4.64-1.992,6.792-3.326c2.153-1.344,4.222-2.83,6.247-4.37c2.027-1.541,4.01-3.142,5.988-4.751
			c1.982-1.605,3.943-3.238,6.003-4.769l1.067-0.793l-0.617,1.186c-0.68,1.308-1.163,2.765-1.654,4.194
			c-0.483,1.439-0.94,2.89-1.396,4.342c-0.912,2.904-1.82,5.814-2.823,8.697c-1.028,2.874-2.039,5.755-3.505,8.486
			c-1.509,2.699-3.491,5.081-5.614,7.282c-4.276,4.393-9.093,8.175-13.957,11.845c-4.883,3.654-9.875,7.151-14.893,10.605
			l-0.38-0.747c3.854-1.397,7.532-3.277,11.142-5.264c3.611-1.993,7.16-4.11,10.727-6.205c7.123-4.202,14.34-8.302,21.86-11.813
			l2.931-1.369l-2.327,2.233c-1.704,1.635-3.529,2.977-5.318,4.401c-1.797,1.405-3.587,2.809-5.345,4.249
			c-1.758,1.44-3.485,2.914-5.153,4.447c-1.675,1.511-3.229,3.184-4.939,4.733c-6.778,6.185-14.155,11.626-21.713,16.766
			c-15.159,10.234-31.204,19.072-47.608,27.104l-0.619-1.447c6.239-2.405,12.396-5.145,18.519-7.907
			c6.119-2.781,12.197-5.656,18.227-8.626c6.028-2.971,12.01-6.037,17.917-9.233c5.903-3.2,11.739-6.526,17.411-10.093l3.943-2.48
			l-2.59,3.86c-2.721,4.057-6.204,7.319-9.734,10.452c-3.561,3.108-7.284,5.996-11.073,8.782
			c-7.589,5.56-15.443,10.712-23.396,15.692c-7.959,4.973-16.027,9.76-24.17,14.413c-8.15,4.645-16.352,9.176-24.663,13.554
			l-0.963-2.274c3.676-1.303,7.381-2.972,11.023-4.61c3.651-1.661,7.275-3.39,10.876-5.167c7.2-3.556,14.309-7.303,21.303-11.245
			c6.992-3.944,13.873-8.084,20.568-12.494c6.69-4.413,13.209-9.088,19.334-14.208l7.136-5.966l-5.101,7.793
			c-1.297,1.982-2.489,4.15-3.669,6.296l-3.48,6.517c-2.3,4.366-4.58,8.752-6.934,13.113c-1.178,2.181-2.371,4.353-3.619,6.514
			c-1.255,2.258-2.869,4.29-4.453,6.21c-3.222,3.845-6.647,7.439-10.119,10.984c-6.963,7.067-14.158,13.868-21.468,20.543
			c-7.313,6.669-14.732,13.218-22.301,19.607l-1.647-2.504c4.483-2.261,8.685-5.206,12.708-8.355
			c4.023-3.164,7.87-6.577,11.602-10.115c3.73-3.542,7.343-7.217,10.861-10.981c3.51-3.764,6.959-7.627,10.231-11.561l2.761-3.32
			l-0.058,4.286c-0.049,3.659-0.752,7.054-1.508,10.43c-0.781,3.366-1.713,6.672-2.711,9.952
			c-2.004,6.556-4.279,13.004-6.666,19.402l-1.807,4.781l-0.219,0.584c-0.062,0.177-0.176,0.471-0.271,0.681
			c-0.198,0.45-0.406,0.855-0.619,1.253c-0.427,0.793-0.874,1.545-1.332,2.287c-1.839,2.955-3.824,5.755-5.884,8.512
			c-2.064,2.749-4.212,5.437-6.49,8.034c-2.26,2.601-4.754,5.098-7.363,7.354c-5.219,4.531-10.768,8.597-16.579,12.298
			c-2.912,1.841-5.897,3.58-9.006,5.134c-1.539,0.775-3.182,1.502-4.741,2.144c-1.562,0.658-3.117,1.326-4.663,2.01
			c-12.388,5.419-24.078,12.285-35.334,19.841l-1.713-2.618c7.141-4.505,15.049-7.272,22.993-9.441
			c7.972-2.137,16.081-3.583,24.221-4.644c2.036-0.264,4.074-0.5,6.115-0.713l3.053-0.302c0.988-0.096,1.975-0.218,2.961-0.364
			c3.94-0.58,7.846-1.513,11.684-2.68c7.654-2.352,15.165-5.572,22.117-9.453l3.542-1.978l-1.224,3.82
			c-1.422,4.439-3.912,8.248-6.608,11.755c-2.726,3.501-5.744,6.707-8.875,9.765c-3.134,3.055-6.39,5.958-9.674,8.802
			c-3.263,2.847-6.652,5.615-9.704,8.495c-2.934,2.809-5.182,6.452-7.253,10.147c-2.05,3.725-3.855,7.612-5.487,11.566
			c-1.627,3.973-3.084,7.956-4.236,12.103c-0.667,2.29-1.895,4.434-3.421,6.203c-1.523,1.783-3.278,3.239-5.026,4.586
			c-3.52,2.668-7.042,5.044-10.147,7.892c-1.522,1.383-3.043,2.988-4.614,4.495c-1.594,1.5-3.116,3.092-5.252,4.388
			c-1.075,0.63-2.146,1.042-3.13,1.457c-0.993,0.411-1.964,0.828-2.926,1.27c-0.489,0.226-0.965,0.443-1.38,0.665
			c-0.101,0.053-0.202,0.109-0.265,0.149l-0.062,0.039c0.02-0.013,0.038-0.028,0.054-0.046c0.044-0.04,0.091-0.091,0.128-0.142
			c-0.009,0.008,0.147-0.173,0.237-0.488c0.067-0.112,0.13-0.865-0.309-1.338c-0.239-0.265-0.405-0.348-0.651-0.434
			c-0.102-0.045-0.292-0.056-0.272-0.056c-0.07-0.002-0.029-0.002-0.013-0.003l0.285-0.038c0.934-0.162,2.007-0.435,3.032-0.694
			c4.154-1.073,8.33-2.26,12.52-3.381c2.096-0.562,4.196-1.116,6.312-1.641l1.568-0.386c0.445-0.105,0.886-0.27,1.323-0.446
			c0.874-0.37,1.727-0.86,2.544-1.437c3.279-2.339,6.03-5.659,8.663-9.006c2.635-3.377,5.128-6.918,7.858-10.357
			c1.373-1.717,2.801-3.415,4.426-5c1.632-1.561,3.45-3.108,5.891-3.964l4.414-1.548l-2.743,3.808
			c-4.4,6.108-7.419,13.1-9.796,20.343c-2.41,7.238-4.33,14.77-7.388,22.006c-1.522,3.613-3.333,7.137-5.508,10.438
			c-2.169,3.304-4.695,6.376-7.5,9.151c-1.401,1.389-2.87,2.706-4.392,3.954c-0.77,0.629-1.523,1.224-2.336,1.829
			c-0.828,0.604-1.656,1.139-2.489,1.66c-3.334,2.065-6.722,3.916-10.125,5.754c-13.63,7.278-27.466,14.066-41.318,20.831
			c-13.862,6.74-27.766,13.381-41.717,19.939l-1.024-2.518c9.931-3.44,19.838-6.941,29.681-10.6
			c9.838-3.666,19.615-7.492,29.202-11.723c9.582-4.234,18.969-8.899,27.881-14.353c8.925-5.434,17.314-11.705,25.273-18.507
			l1.693,1.692c-2.628,3.069-5.044,6.306-7.135,9.74c-2.105,3.43-3.833,7.067-5.438,10.812c-1.609,3.739-3.201,7.581-5.251,11.222
			c-2.03,3.648-4.48,7.061-7.197,10.204c-5.454,6.289-11.802,11.63-18.333,16.622c-3.276,2.489-6.62,4.881-10.005,7.205
			c-1.694,1.162-3.395,2.307-5.111,3.44c-0.859,0.575-1.726,1.105-2.486,1.684c-0.78,0.583-1.523,1.227-2.235,1.909
			c-2.848,2.742-5.181,6.062-7.386,9.463c-2.21,3.409-4.253,6.96-6.622,10.381c-1.193,1.704-2.464,3.385-4.01,4.893
			c-1.556,1.506-3.293,2.711-5.038,3.837c-3.507,2.227-7.089,4.168-10.486,6.379c-3.403,2.192-6.635,4.621-9.543,7.397
			c-1.454,1.386-2.828,2.854-4.109,4.4c-0.644,0.777-1.254,1.56-1.852,2.374c-0.593,0.815-1.224,1.677-1.879,2.483
			c-2.615,3.228-5.791,6.279-9.871,7.882c-2.021,0.798-4.212,1.149-6.346,1.148c-2.14,0.007-4.216-0.302-6.223-0.538l-1.015-0.119
			l0.21-0.997c3.658-17.418,7.54-34.787,11.617-52.11l0.089-0.378l0.34-0.183l8.433-4.526c2.792-1.515,5.646-3.021,8.347-4.589
			l0.212-0.135l0.017-0.012c0.015-0.011-0.041,0.032-0.057,0.054c0.194-0.259-0.954,0.959,0.615,1.38
			c0.053,0.006,0.172-0.021,0.167-0.021l0.009-0.003l-0.025,0.01l-0.521,0.219l-1.075,0.485l-2.155,1.014l-4.303,2.079l-8.593,4.21
			l-1.533,0.751l0.393-1.657l0.567-2.392l0.088-0.373l0.347-0.166c4.666-2.238,9.272-4.667,13.866-7.098
			c4.589-2.441,9.173-4.913,13.712-7.431l0.416-0.235l0.075-0.043l-0.01,0.007c-0.561-1.199,0.727,1.651,0.713,1.316l0.026-0.011
			l-0.039,0.02l-0.216,0.112l-0.889,0.441l-1.768,0.846l-3.538,1.66l-7.083,3.287l-14.163,6.566l-1.335,0.619l0.341-1.427
			l0.955-3.998l0.077-0.321l0.293-0.146c7.249-3.596,14.547-7.049,21.845-10.516l21.919-10.327l0.34-0.161l0.08-0.038
			c0.002-0.001,0.019-0.01,0.008-0.004c-0.687-0.409,0.512,1.974,0.539,1.145l-0.031,0.015l-0.169,0.076l-0.686,0.316l-1.376,0.636
			l-2.755,1.262l-5.517,2.506l-11.056,4.962c-7.382,3.283-14.771,6.548-22.224,9.683l-1.027,0.432l0.26-1.082
			c11.18-46.549,23.719-92.78,38.02-138.472c7.155-22.844,14.775-45.543,22.953-68.042c8.167-22.502,16.913-44.801,26.469-66.756
			c9.564-21.948,19.923-43.568,31.538-64.523c11.695-20.888,23.682-41.609,36.11-62.074c12.457-20.441,25.362-40.644,39.573-59.95
			c7.089-9.662,14.634-18.993,22.277-28.195c3.824-4.599,7.539-9.268,11.267-13.953c1.857-2.34,3.735-4.677,5.512-7.046
			c0.439-0.592,0.878-1.194,1.265-1.785l0.278-0.438l0.268-0.469c0.165-0.3,0.283-0.56,0.334-0.803l0.03-0.162l0.02-0.224
			c0.002-0.063-0.016-0.164-0.046-0.258c-0.022-0.085-0.097-0.212-0.111-0.231c0.041,0.03-0.122-0.144-0.104-0.121
			c-0.02-0.021-0.047-0.04-0.075-0.061c-0.061-0.038-0.144-0.069-0.21-0.081c-0.008,0,0.011,0.002,0.006-0.003
			c-0.004-0.001-0.19-0.002-0.045-0.003c-0.07,0.007-0.139,0.015-0.197,0.027c-0.273,0.06-0.204,0.047-0.701,0.374l0.07-0.047
			c-0.828,0.638-1.66,1.48-2.464,2.293c-0.807,0.826-1.602,1.675-2.391,2.529c-1.578,1.711-3.137,3.45-4.692,5.191
			c-3.113,3.488-6.219,6.972-9.27,10.506c-6.11,7.062-12.09,14.239-17.964,21.5c-11.744,14.527-23.067,29.395-33.917,44.598
			c-10.845,15.206-21.213,30.753-30.915,46.7c-9.657,15.977-18.829,32.266-27.674,48.716c-17.651,32.93-33.808,66.661-48.56,100.989
			c-14.745,34.332-28.055,69.278-39.892,104.715l-0.983,2.942l-1.418-2.754c-6.462-12.557-12.215-25.48-17.006-38.78
			c-2.385-6.652-4.518-13.405-6.243-20.278c-1.713-6.872-3.052-13.871-3.553-20.994c-0.243-3.559-0.274-7.15,0.062-10.737
			c0.327-3.584,1.081-7.171,2.351-10.571c0.627-1.7,1.377-3.396,2.414-4.981c1.014-1.605,2.442-2.949,3.614-4.129
			c2.353-2.301,3.591-5.45,4.581-8.75c0.959-3.28,1.648-6.77,2.483-10.185c0.822-3.428,1.616-6.871,2.761-10.295
			c0.58-1.707,1.28-3.414,2.199-5.025c0.913-1.614,2.045-3.095,3.259-4.442c0.594-0.664,1.264-1.345,1.848-1.936
			c0.557-0.577,1.059-1.219,1.515-1.902c0.912-1.369,1.638-2.899,2.266-4.484c1.254-3.182,2.106-6.58,3.175-9.976
			c0.54-1.699,1.128-3.408,1.934-5.076c0.406-0.832,0.867-1.654,1.433-2.433c0.279-0.386,0.592-0.771,0.935-1.134
			c0.342-0.353,0.567-0.579,0.84-0.912c2.063-2.564,3.583-5.765,4.964-8.922c1.364-3.191,2.543-6.477,3.547-9.807
			c0.974-3.318,1.892-6.741,2.162-10.069c0.041-0.771,0.018-1.763,0.115-2.662c0.082-0.917,0.222-1.829,0.416-2.729
			c0.386-1.801,1.014-3.547,1.826-5.193c0.818-1.643,1.822-3.187,2.969-4.603c0.572-0.709,1.18-1.39,1.818-2.039
			c0.629-0.623,1.183-1.224,1.751-1.885c2.238-2.624,4.275-5.477,6.201-8.38c1.917-2.913,3.724-5.907,5.289-8.999
			c0.39-0.773,0.761-1.554,1.107-2.341c0.352-0.778,0.632-1.578,0.992-2.43c0.702-1.656,1.486-3.247,2.291-4.824
			c3.251-6.287,6.827-12.354,10.421-18.41l2.71-4.529c0.459-0.754,0.88-1.501,1.38-2.28c0.49-0.758,1.002-1.485,1.521-2.206
			c2.082-2.872,4.269-5.634,6.476-8.383c2.212-2.744,4.456-5.458,6.731-8.148c2.295-2.687,4.538-5.364,7.028-7.952l1.255-1.305
			l-0.004,1.823c-0.012,5.663,0.322,11.327,1.22,16.909c0.885,5.581,2.319,11.072,4.262,16.384c0.948,2.662,2.105,5.246,3.179,7.903
			c1.071,2.646,2.097,5.311,3.07,7.996c1.944,5.369,3.678,10.822,5.056,16.378l-1.129,0.26c-2.144-10.113-5.247-20.01-8.24-29.938
			c-1.494-4.967-2.977-9.944-4.229-14.993c-1.23-5.046-2.301-10.177-2.476-15.425c-0.055-2.627,0.097-5.24,0.6-7.837
			c0.497-2.595,1.572-5.099,3.087-7.256c1.499-2.172,3.291-4.083,5.11-5.942c1.869-1.802,3.529-3.74,5.119-5.788
			c3.171-4.08,6.096-8.366,9.157-12.557c1.53-2.096,3.088-4.177,4.746-6.185c1.669-1.995,3.395-3.968,5.522-5.565
			c4.318-2.858,8.03-6.491,11.165-10.598c1.576-2.043,3.043-4.175,4.466-6.337c0.714-1.073,1.393-2.187,2.174-3.241
			c0.772-1.054,1.604-2.065,2.482-3.031c3.501-3.901,7.848-6.858,11.728-10.239c3.615-3.752,8.166-6.517,12.774-8.871
			c4.648-2.321,9.524-4.263,14.638-5.328c5.107-1.049,10.343-1.319,15.533-1.131c5.198,0.196,10.358,0.761,15.504,1.491
			c2.569,0.411,5.117,0.981,7.595,1.797c1.237,0.412,2.458,0.888,3.623,1.496c0.581,0.307,1.148,0.647,1.674,1.061
			c0.505,0.423,1.04,0.906,1.226,1.645l-0.128-0.151c2.99,1.38,4.907,4.653,4.79,7.858c0.215,1.512,0.965,2.95,1.698,4.327
			c0.761,1.38,1.61,2.713,2.496,4.021c3.583,5.208,7.605,10.128,11.919,14.75c0.529,0.585,1.131,1.098,1.631,1.752
			c0.496,0.643,0.88,1.362,1.188,2.104c0.609,1.492,0.922,3.077,1.093,4.661c0.328,3.177,0.12,6.373-0.276,9.521
			C326.251,70.836,324.613,77.002,322.556,83z"/>
		<path style="fill:#231F20;" d="M80.641,407.012c-5.551-6.194-9.921-13.392-13.475-20.914c-3.582-7.558-6.277-15.509-8.425-23.581
			c-2.144-8.079-3.726-16.298-4.872-24.575c-1.092-8.293-1.793-16.6-1.896-25.02l2.322,0.514c-1.322,2.936-2.396,5.974-3.175,9.091
			c-0.788,3.116-1.282,6.307-1.625,9.538c-0.676,6.456-0.879,13.117-2.109,19.688c-1.161,6.574-3.128,13.001-5.69,19.136
			c-0.64,1.558-1.336,3.018-1.877,4.508c-0.558,1.498-1.041,3.032-1.463,4.587c-0.857,3.107-1.493,6.291-1.971,9.505
			c-0.953,6.435-1.32,12.975-1.422,19.518c-0.049,3.273-0.027,6.551,0.032,9.832c0.047,3.285,0.181,6.555,0.152,9.886
			c-0.007,0.419-0.019,0.839-0.048,1.27c-0.015,0.216-0.034,0.434-0.065,0.663c-0.039,0.235-0.057,0.451-0.201,0.799
			c-0.05,0.095-0.084,0.192-0.239,0.347c-0.126,0.153-0.51,0.31-0.794,0.223c-0.235-0.063-0.364-0.175-0.438-0.241
			c-0.032-0.031-0.018-0.011-0.087-0.087l-0.025-0.029l-0.05-0.059c-0.192-0.236-0.331-0.499-0.419-0.707
			c-0.194-0.444-0.308-0.868-0.411-1.292c-0.379-1.686-0.515-3.339-0.635-4.995c-0.208-3.308-0.28-6.602-0.307-9.895
			c-0.05-6.585,0.095-13.161,0.131-19.729l0.964,0.117c-1.729,7.152-2.304,14.579-2.689,21.953
			c-0.352,7.39-0.378,14.797-0.19,22.195c0.463,14.797,1.762,29.565,3.845,44.211l0.569,4.004l-2.283-3.344
			c-0.923-1.353-1.473-2.777-1.961-4.202c-0.48-1.427-0.857-2.866-1.192-4.31c-0.664-2.887-1.149-5.791-1.566-8.698
			c-0.809-5.819-1.324-11.654-1.737-17.491c-0.804-11.679-1.175-23.354-1.221-35.062l2.781,0.318
			c-2.193,9.871-3.211,20.004-3.614,30.148c-0.408,10.156-0.106,20.327,0.275,30.532c0.094,2.555,0.2,5.108,0.246,7.696l0.02,1.917
			c0.016,0.549,0.069,1.133,0.151,1.718c0.162,1.169,0.439,2.352,0.774,3.526c1.386,4.71,3.61,9.279,5.987,13.725
			c4.82,8.9,10.513,17.37,16.264,25.784l-2.627,0.482c5.367-20.749,10.992-41.422,16.939-62.001
			c2.96-10.289,5.993-20.573,9.223-30.788C73.759,427.239,77.138,417.103,80.641,407.012z M80.952,407.027
			c-3.198,10.219-6.267,20.475-9.199,30.767c-2.97,10.282-5.804,20.594-8.536,30.948c-5.487,20.694-10.973,41.386-16.018,62.181
			l-0.761,3.138l-1.866-2.656c-5.889-8.385-11.588-16.936-16.557-25.998c-2.444-4.552-4.755-9.218-6.278-14.323
			c-0.368-1.281-0.683-2.592-0.876-3.954c-0.096-0.681-0.165-1.371-0.187-2.1l-0.025-1.916c-0.052-2.523-0.165-5.076-0.266-7.629
			c-0.456-10.22-0.636-20.509-0.157-30.785c0.484-10.271,1.588-20.56,3.905-30.643l2.84-12.364l-0.059,12.682
			c-0.027,5.806,0.054,11.637,0.188,17.453c0.131,5.819,0.338,11.636,0.668,17.442c0.334,5.805,0.779,11.604,1.494,17.353
			c0.355,2.873,0.779,5.737,1.368,8.548c0.297,1.403,0.635,2.796,1.059,4.143c0.424,1.338,0.932,2.667,1.64,3.741l-1.713,0.66
			c-1.792-14.752-2.864-29.585-3.089-44.434c-0.143-7.423-0.071-14.853,0.329-22.272c0.205-3.708,0.489-7.414,0.914-11.108
			c0.429-3.692,0.931-7.387,1.802-11.028l0.953-3.985l0.011,4.103c0.019,6.581-0.071,13.152,0.033,19.716
			c0.06,3.278,0.134,6.562,0.426,9.81c0.149,1.616,0.327,3.25,0.703,4.766c0.098,0.372,0.21,0.742,0.353,1.048
			c0.078,0.167,0.142,0.267,0.206,0.351l0.051,0.058l0.025,0.028l-0.031-0.034c-0.001,0.007-0.04-0.051-0.177-0.083
			c-0.181-0.062-0.459,0.053-0.514,0.133c-0.079,0.085-0.067,0.087-0.073,0.09c0.052-0.124,0.105-0.603,0.118-0.963
			c0.018-0.39,0.022-0.791,0.02-1.194c-0.04-3.244-0.242-6.543-0.358-9.829c-0.127-3.29-0.221-6.587-0.238-9.888
			c-0.031-6.601,0.205-13.226,1.045-19.822c0.426-3.296,1-6.586,1.843-9.832c0.429-1.62,0.922-3.229,1.501-4.814
			c0.573-1.604,1.285-3.121,1.882-4.607c2.463-6.011,4.327-12.245,5.412-18.63c0.547-3.193,0.916-6.418,1.232-9.67
			c0.312-3.252,0.549-6.539,0.928-9.842c0.376-3.301,0.916-6.621,1.766-9.874c0.84-3.255,1.993-6.431,3.394-9.477l2.303-5.005
			l0.02,5.518c0.029,8.213,0.677,16.515,1.666,24.718c0.975,8.218,2.383,16.39,4.35,24.429c1.971,8.035,4.509,15.939,7.789,23.538
			c3.299,7.582,7.442,14.837,12.715,21.258l0.053,0.065L80.952,407.027z"/>
		<path style="fill:#231F20;" d="M21.353,492.233c-1.51-2.111-2.788-4.389-3.874-6.752c-1.08-2.368-1.921-4.853-2.523-7.402
			c-0.58-2.554-0.939-5.175-0.975-7.819c-0.031-2.648,0.179-5.293,0.805-7.943l2.044,0.616c-1.187,4.377-2.053,8.812-2.238,13.278
			c-0.259,4.469,0.274,8.935,0.846,13.501c0.575,4.56,1.062,9.275,0.694,13.948c-0.158,2.33-0.545,4.657-0.971,6.914
			c-0.403,2.218-0.507,4.498-0.338,6.76c0.309,4.536,1.653,8.97,3.522,13.116c1.898,4.148,4.327,8.036,7.042,11.691
			c2.745,3.65,5.725,7.057,8.998,10.261c0.975,1.051,1.557,2.174,2.05,3.324c0.48,1.147,0.841,2.309,1.126,3.475
			c0.564,2.333,0.886,4.671,1.124,7.004l-2.823-0.186l1.825-8.438c0.624-2.81,1.227-5.624,1.902-8.421l2.017-8.394l2.14-8.361
			l0.565,1.588c-1.72-1.31-3.135-2.884-4.369-4.533c-1.243-1.646-2.303-3.383-3.26-5.155c-1.936-3.532-3.447-7.215-4.978-10.862
			c-1.508-3.657-2.974-7.317-4.617-10.899c-0.838-1.782-1.701-3.553-2.643-5.282C23.487,495.541,22.469,493.853,21.353,492.233z
			 M21.6,492.062c1.151,1.61,2.205,3.288,3.198,4.999c1.007,1.703,1.971,3.432,2.891,5.183c1.874,3.485,3.65,7.023,5.473,10.52
			c1.808,3.503,3.693,6.958,5.736,10.245c2.069,3.246,4.35,6.398,7.241,8.545l0.802,0.596l-0.237,0.992l-4.007,16.757l-4.04,16.746
			l-2.111,8.753l-0.712-8.939c-0.179-2.25-0.442-4.49-0.915-6.644c-0.238-1.074-0.512-2.133-0.888-3.123
			c-0.364-0.979-0.859-1.934-1.431-2.598c-3.209-3.337-6.103-7.062-8.662-10.935c-2.565-3.883-4.824-7.974-6.589-12.277
			c-1.778-4.292-3.061-8.817-3.463-13.476c-0.184-2.326-0.149-4.68,0.168-7.009c0.367-2.277,0.551-4.528,0.576-6.8
			c0.065-4.542-0.667-9.011-1.516-13.534c-0.429-2.264-0.782-4.569-1.033-6.908c-0.235-2.34-0.296-4.715-0.185-7.081
			c0.142-2.365,0.462-4.717,0.951-7.021c0.52-2.299,1.146-4.564,1.946-6.762l2.044,0.615c-0.758,2.338-1.178,4.869-1.348,7.389
			c-0.162,2.528-0.077,5.092,0.329,7.616c0.388,2.528,1.093,5.014,2.069,7.393C18.85,487.692,20.144,489.935,21.6,492.062z"/>
	</g>
</g>
</svg>
