<?xml version="1.0" encoding="iso-8859-1"?>
<!-- Generator: Adobe Illustrator 21.1.0, SVG Export Plug-In . SVG Version: 6.00 Build 0)  -->
<svg version="1.1" id="Layer_1" xmlns="http://www.w3.org/2000/svg" xmlns:xlink="http://www.w3.org/1999/xlink" x="0px" y="0px"
	 viewBox="0 0 219.084 475.236" style="enable-background:new 0 0 219.084 475.236;" xml:space="preserve">
<g>
	<g>
		<path style="fill:#16281E;stroke:#000000;stroke-width:0.6527;stroke-miterlimit:10;" d="M132.133,467.279
			c-0.368,0.204-2.493-13.234,1.306-34.069c1.721-10.394,4.747-22.483,8.843-35.533c3.818-13.212,10.457-26.525,13.05-42.113
			c6.14-32.062-8.046-59.252-16.828-76.32c-9.408-17.537-15.103-28.593-14.766-28.844c0.133-0.071,6.172,10.545,15.912,27.911
			c9.028,16.74,23.886,44.546,17.58,77.763c-2.725,16.156-9.451,29.435-13.282,42.422c-4.16,12.908-7.294,24.843-9.171,35.087
			C130.677,454.104,132.289,467.315,132.133,467.279z"/>
	</g>
</g>
<g>
	<path style="fill:#ED1F24;" d="M135.82,249.711c0,0-20.005,2.08-25.881-0.996c0,0-0.464-2.826,8.062-7.349
		c0,0,1.613-7.493,1.788-9.671c0.21-2.635,4.563-10.387,4.978-3.059c0.408,7.327,2.707,12.354,12.743,17.891L135.82,249.711z"/>
	<path style="fill:#231F20;" d="M135.841,249.91c-2.13,0.642-4.29,1.088-6.465,1.471c-2.176,0.364-4.368,0.628-6.581,0.797
		c-2.213,0.136-4.445,0.218-6.719,0.067c-1.137-0.074-2.285-0.202-3.457-0.436c-1.172-0.247-2.37-0.544-3.65-1.239l-0.07-0.038
		c-0.576-0.312-0.938-0.879-1.025-1.48c-0.03-0.215-0.022-0.211-0.027-0.288l-0.002-0.151l0.014-0.242
		c0.015-0.146,0.035-0.271,0.06-0.39c0.048-0.235,0.11-0.438,0.179-0.624c0.137-0.374,0.297-0.686,0.467-0.973
		c0.34-0.568,0.715-1.029,1.099-1.448c0.776-0.827,1.598-1.48,2.431-2.074c1.671-1.172,3.395-2.11,5.182-2.868l-0.791,1.046
		l1.592-5.27c0.258-0.88,0.502-1.763,0.707-2.646c0.104-0.44,0.209-0.883,0.271-1.31c0.024-0.169,0.068-0.511,0.134-0.748
		c0.062-0.251,0.137-0.489,0.219-0.721c0.334-0.923,0.715-1.792,1.196-2.625c0.498-0.829,0.958-1.654,1.829-2.386
		c0.231-0.173,0.506-0.357,0.927-0.425c0.425-0.083,0.956,0.143,1.2,0.423c0.511,0.559,0.641,1.075,0.795,1.573
		c0.292,0.998,0.352,1.966,0.56,2.809c0.386,1.75,0.934,3.403,1.641,4.889c0.705,1.487,1.53,2.857,2.565,4.156
		c2.081,2.59,4.924,4.775,7.811,7.009l0.208,0.161c0.312,0.241,0.373,0.688,0.139,1.004c-0.724,0.977-1.464,1.943-2.278,2.871
		l-0.01,0.011C135.947,249.861,135.895,249.894,135.841,249.91z M135.68,249.503c0.307-1.153,0.676-2.273,1.066-3.382l0.346,1.165
		c-3.505-1.33-6.936-3.229-9.666-6.234c-1.356-1.491-2.453-3.318-3.019-5.282c-0.573-1.964-0.678-3.961-0.614-5.866
		c0.027-0.983,0.106-1.866,0.011-2.67c-0.045-0.388-0.158-0.802-0.268-0.936c-0.06-0.064,0.003-0.042-0.031-0.061
		c-0.039-0.015-0.181,0.035-0.316,0.132c-0.585,0.407-1.117,1.186-1.527,1.939c-0.404,0.775-0.776,1.593-0.99,2.425
		c-0.053,0.207-0.098,0.413-0.128,0.612c-0.034,0.211-0.036,0.327-0.051,0.615l-0.107,1.42l-0.261,2.779
		c-0.186,1.849-0.357,3.691-0.604,5.533c-0.051,0.377-0.262,0.693-0.555,0.89l-0.236,0.156c-1.521,1.006-3.037,1.986-4.344,3.1
		c-0.651,0.551-1.25,1.139-1.711,1.724c-0.229,0.287-0.424,0.579-0.545,0.827c-0.06,0.122-0.103,0.235-0.117,0.306
		c-0.008,0.034-0.009,0.059-0.004,0.055c0.002-0.004,0.007-0.014,0.011-0.042l0.006-0.066v-0.064
		c-0.005-0.048,0.006-0.015-0.021-0.2l-1.095-1.518c0.662,0.293,1.592,0.552,2.548,0.734c0.963,0.187,1.976,0.338,3.005,0.461
		c2.06,0.246,4.184,0.438,6.32,0.562c2.138,0.154,4.296,0.271,6.465,0.401C131.379,249.161,133.52,249.294,135.68,249.503z"/>
</g>
<g>
	
		<ellipse transform="matrix(0.9921 -0.1256 0.1256 0.9921 -14.7017 14.7963)" style="fill:#ED1F24;" cx="109.968" cy="123.967" rx="100.959" ry="114.241"/>
	<path style="fill:#231F20;" d="M210.388,111.252c0.927,7.001,1.271,14.084,1.074,21.152c-0.152,7.073-0.963,14.126-2.231,21.105
		c-2.593,13.943-7.617,27.515-15.014,39.787c-7.378,12.259-17.273,23.198-29.256,31.352c-11.919,8.229-25.884,13.533-40.29,15.427
		c-14.415,1.853-29.287,0.23-42.933-4.7c-13.671-4.89-26.123-12.823-36.584-22.726c-10.5-9.89-18.967-21.808-25.162-34.733
		c-6.25-12.921-10.027-26.921-11.606-41.093c-3.178-28.296,2.919-57.62,18.072-81.714c3.776-6.017,8.107-11.697,12.979-16.897
		c4.848-5.222,10.252-9.952,16.131-14.04c11.746-8.191,25.448-13.704,39.791-15.705c14.271-1.986,29.123-0.422,42.698,4.498
		c3.398,1.218,6.727,2.625,9.968,4.204c3.229,1.606,6.366,3.383,9.399,5.316c6.083,3.845,11.678,8.406,16.798,13.401
		c10.236,10.014,18.484,21.899,24.473,34.751c2.967,6.438,5.517,13.062,7.431,19.871C208.086,97.3,209.529,104.239,210.388,111.252z
		 M209.868,111.316c-0.923-6.974-2.36-13.885-4.429-20.605c-2.107-6.704-4.697-13.265-7.973-19.47
		c-6.479-12.433-15.104-23.713-25.488-32.952c-5.184-4.629-10.82-8.707-16.737-12.266c-2.966-1.77-6.022-3.379-9.151-4.823
		c-3.115-1.47-6.308-2.771-9.561-3.89c-6.509-2.219-13.237-3.785-20.064-4.545c-6.832-0.734-13.721-0.782-20.589,0.031
		C82.222,14.293,68.85,19.054,57.19,26.594c-5.839,3.756-11.272,8.171-16.201,13.109c-4.904,4.962-9.296,10.447-13.099,16.318
		c-7.592,11.761-12.847,25.014-15.6,38.735c-0.689,3.431-1.232,6.891-1.624,10.366c-0.376,3.478-0.596,6.97-0.677,10.463
		c-0.161,6.99,0.269,13.97,1.243,20.891c1.961,13.801,6.248,27.227,12.487,39.599c6.272,12.359,14.678,23.606,24.798,32.971
		c10.124,9.346,22.068,16.724,35.03,21.176c6.477,2.217,13.18,3.754,19.973,4.49c6.793,0.742,13.665,0.653,20.447-0.182
		c6.784-0.821,13.472-2.441,19.885-4.821c6.414-2.38,12.546-5.518,18.301-9.255c2.874-1.875,5.646-3.912,8.305-6.094
		c2.673-2.165,5.237-4.473,7.674-6.914c4.861-4.895,9.303-10.242,13.177-16.005c7.775-11.513,13.317-24.582,16.496-38.231
		c1.626-6.822,2.507-13.818,2.88-20.835C211.021,125.353,210.704,118.304,209.868,111.316z"/>
</g>
<g>
	<g>
		<path style="fill:#FFFFFF;" d="M192.905,127.373c-3.057-0.135-1.265-27.306-14.854-53.942
			c-13.794-26.696-35.18-36.686-34.219-39.52c-0.346-3.079,25.049,2.717,41.722,34.206
			C201.388,100.109,194.632,128.69,192.905,127.373z"/>
	</g>
</g>
</svg>
