<?xml version="1.0" encoding="iso-8859-1"?>
<!-- Generator: Adobe Illustrator 21.1.0, SVG Export Plug-In . SVG Version: 6.00 Build 0)  -->
<svg version="1.1" id="_x2014_&#xCE;&#xD3;&#xC8;_1"
	 xmlns="http://www.w3.org/2000/svg" xmlns:xlink="http://www.w3.org/1999/xlink" x="0px" y="0px" viewBox="0 0 368.427 414.893"
	 style="enable-background:new 0 0 368.427 414.893;" xml:space="preserve">
<g>
	<path style="fill:#C1C1C1;" d="M345.038,39.976c0-0.019-0.003-0.037-0.005-0.055l0.005-0.029h-0.006
		C344.795,21.993,269.345,7.498,176.3,7.498C83.256,7.498,7.805,21.993,7.568,39.892H7.562l0.003,0.029
		c0,0.018-0.003,0.036-0.003,0.055c0,0.544,0.072,1.085,0.21,1.623l44.463,331.537c-0.002,0.035-0.015,0.07-0.015,0.105
		c0,13.189,55.553,33.742,124.079,33.742c68.528,0,124.08-20.553,124.08-33.742c0-0.035-0.014-0.07-0.014-0.105l44.462-331.537
		C344.965,41.062,345.038,40.52,345.038,39.976z"/>
	<path d="M344.889,39.984l-0.006-0.055l-0.001-0.014l0.003-0.019l0.005-0.029l0.148,0.175h-0.006h-0.148l-0.002-0.148
		c-0.023-1.814-0.888-3.516-2.039-4.906c-1.159-1.403-2.589-2.57-4.093-3.607c-3.028-2.063-6.368-3.639-9.763-5.028
		c-6.816-2.746-13.92-4.729-21.067-6.441c-14.319-3.367-28.893-5.594-43.511-7.218c-29.251-3.228-58.701-4.372-88.109-4.201
		c-29.403,0.269-58.828,1.582-88.001,5.112c-14.574,1.764-29.121,3.939-43.377,7.315c-7.112,1.708-14.178,3.689-20.91,6.407
		c-3.35,1.372-6.637,2.931-9.559,4.926c-1.452,0.997-2.816,2.11-3.886,3.397c-1.065,1.281-1.793,2.755-1.817,4.257l-0.02,1.172
		l-1.162-0.006H7.562l1.174-1.318l0.003,0.029l0.012,0.106l-0.004,0.031c-0.008,0.063,0.005,0.261,0.006,0.385l0.028,0.315
		c0.029,0.225,0.073,0.458,0.127,0.687l0.019,0.083l0.008,0.053l10.668,82.944c3.508,27.655,7.243,55.279,10.861,82.918
		l11.248,82.866l11.474,82.836l0.011,0.083l-0.004,0.099c-0.047,1.036,0.465,2.235,1.179,3.256c0.718,1.043,1.646,1.991,2.641,2.868
		c2.007,1.75,4.302,3.23,6.667,4.573c4.756,2.67,9.834,4.812,14.99,6.706c10.339,3.759,21.05,6.511,31.854,8.688
		c10.813,2.171,21.753,3.699,32.733,4.745c10.979,1.044,22.017,1.552,33.039,1.533c22.06-0.066,44.13-2.156,65.716-6.588
		c10.779-2.239,21.452-5.064,31.748-8.834c5.133-1.905,10.185-4.058,14.89-6.723c2.34-1.338,4.603-2.812,6.558-4.529
		c0.969-0.858,1.863-1.783,2.535-2.77c0.673-0.996,1.114-1.995,1.062-2.979l-0.004-0.075l0.017-0.133l11.183-82.875l11.541-82.827
		l11.717-82.804c1.971-13.798,3.856-27.607,5.742-41.417l5.673-41.427l0.001-0.009l0.003-0.008c0.133-0.519,0.208-1.051,0.209-1.585
		L344.889,39.984z M345.189,39.976c0.001,0.561-0.074,1.12-0.211,1.661l0.004-0.018l-5.442,41.458
		c-1.819,13.819-3.639,27.637-5.373,41.467l-10.515,82.965l-10.691,82.941l-11.048,82.893l0.014-0.207
		c0.044,0.855-0.163,1.798-0.455,2.577c-0.301,0.797-0.699,1.512-1.144,2.162c-0.89,1.304-1.945,2.376-3.043,3.355
		c-2.209,1.943-4.615,3.501-7.074,4.916c-4.935,2.802-10.107,5.007-15.349,6.963c-10.497,3.887-21.319,6.677-32.227,8.903
		c-21.834,4.396-44.099,6.413-66.331,6.396c-22.245-0.062-44.491-2.163-66.274-6.706c-10.883-2.287-21.668-5.151-32.122-9.05
		c-5.218-1.968-10.362-4.183-15.247-6.979c-2.434-1.41-4.811-2.963-6.966-4.872c-1.069-0.961-2.093-2.01-2.938-3.258
		c-0.825-1.244-1.546-2.705-1.479-4.462l0.007,0.182l-10.757-82.933l-10.984-82.902c-3.793-27.616-7.469-55.249-11.37-82.85
		L6.609,41.755l0.027,0.136c-0.081-0.321-0.146-0.643-0.191-0.979l-0.05-0.529c-0.003-0.158-0.016-0.244-0.012-0.462l0.008,0.137
		l-0.003-0.029l-0.16-1.312l1.334-0.007h0.006l-1.182,1.166c0.016-2.218,1.051-4.22,2.309-5.757c1.273-1.56,2.785-2.804,4.353-3.899
		c3.159-2.169,6.566-3.784,10.014-5.212c6.92-2.817,14.07-4.841,21.258-6.593c14.4-3.436,29.012-5.734,43.666-7.461
		c14.662-1.685,29.375-2.806,44.103-3.533c7.364-0.359,14.731-0.62,22.101-0.782c7.37-0.146,14.741-0.18,22.11-0.134
		c29.473,0.228,58.955,1.756,88.207,5.36c14.61,1.866,29.195,4.113,43.53,7.559c7.155,1.749,14.267,3.769,21.103,6.558
		c3.404,1.412,6.757,3.011,9.81,5.111c1.517,1.056,2.963,2.246,4.147,3.689c1.172,1.429,2.07,3.203,2.087,5.108l-0.15-0.148h0.006
		l0.178,0l-0.029,0.175l-0.005,0.029l0.002-0.032l0.004,0.055L345.189,39.976z"/>
</g>
<ellipse style="fill:#D1D1D1;" cx="176.3" cy="39.67" rx="168.738" ry="31.433"/>
<path style="opacity:0.75;fill:#D1D1D1;" d="M235,72l-12,330c0,0,8,0,34-7c15.088-4.061,31-11,31-11l46-332c0,0-16,8-45,14
	C261.005,71.792,235,72,235,72z"/>
<path style="fill:#C9C9C9;" d="M16,53l43,329c0,0,22.854,12.768,22,7C77,362,37,59,37,59L16,53z"/>
<path style="fill:#DBDBDB;" d="M316.253,59.747l-30.296,324.608c0,0-10.486,7.843-9.898,2c2.757-27.356,2.757-2.356,28-323.277
	L316.253,59.747z"/>
<path style="opacity:0.5;fill:#E8E8E8;" d="M132.545,10.1L129.333,66c-47.333,0.666-72-10-86-10l-5.322-31.071
	c0,0,9.419-4.959,49.411-10.407C93.051,13.756,132.545,10.1,132.545,10.1z"/>
<path style="opacity:0.8;fill:#E8E8E8;" d="M33.334,24.667L40,54l20.571,4.84L90,63.334c0,0-1.791-43.043-0.666-48.667
	C90,11.333,48.667,18.667,33.334,24.667z"/>
<g>
	<path style="fill:#F2F2F2;" d="M176.3,7.498c-93.19,0-168.737,14.54-168.737,32.478c0,17.938,75.547,32.479,168.737,32.479
		s168.738-14.541,168.738-32.479C345.038,22.039,269.49,7.498,176.3,7.498z M176.3,68.515c-91.222,0-165.173-13.505-165.173-30.166
		c0-16.66,73.951-30.166,165.173-30.166S341.473,21.69,341.473,38.35C341.473,55.01,267.521,68.515,176.3,68.515z"/>
	<g>
		<path d="M176.3,7.598c-14.727,0.059-29.457,0.414-44.157,1.285c-14.699,0.89-29.373,2.173-43.972,4.023
			c-14.585,1.899-29.144,4.156-43.413,7.617c-7.115,1.77-14.197,3.747-20.963,6.478c-3.367,1.381-6.674,2.95-9.629,4.978
			c-1.468,1.017-2.85,2.159-3.939,3.496c-1.084,1.316-1.838,2.918-1.836,4.474c-0.006,1.664,0.734,3.194,1.811,4.55
			c1.08,1.351,2.456,2.508,3.918,3.541c2.947,2.058,6.248,3.659,9.61,5.071c6.755,2.797,13.832,4.842,20.956,6.619
			c14.276,3.512,28.843,5.833,43.453,7.596c14.613,1.791,29.305,2.917,44.008,3.654c14.705,0.758,29.434,0.989,44.153,0.928
			c29.439-0.154,58.883-1.707,88.093-5.172c14.592-1.778,29.145-4.047,43.409-7.477c7.113-1.75,14.188-3.737,20.937-6.472
			c3.356-1.382,6.652-2.951,9.588-4.969c1.456-1.012,2.824-2.147,3.893-3.463c1.067-1.294,1.791-2.863,1.788-4.344
			c0.006-1.616-0.715-3.09-1.78-4.417c-1.068-1.32-2.436-2.458-3.891-3.473c-2.934-2.025-6.229-3.601-9.585-4.989
			c-6.746-2.748-13.819-4.747-20.93-6.524c-14.26-3.481-28.813-5.768-43.397-7.67c-14.596-1.862-29.27-3.146-43.968-4.038
			C205.757,8.026,191.027,7.662,176.3,7.598z M176.3,7.398c14.732-0.062,29.465,0.293,44.186,0.947
			c14.722,0.65,29.432,1.694,44.094,3.285c14.66,1.594,29.278,3.783,43.688,7.126c7.197,1.689,14.346,3.7,21.254,6.503
			c3.442,1.419,6.842,3.026,9.982,5.183c1.56,1.087,3.065,2.317,4.322,3.861c0.623,0.774,1.186,1.628,1.59,2.588
			c0.203,0.478,0.373,0.978,0.48,1.498c0.11,0.482,0.175,1.142,0.174,1.553c0.009,2.242-0.995,4.174-2.236,5.713
			c-1.256,1.548-2.759,2.781-4.318,3.872c-3.139,2.163-6.536,3.777-9.979,5.204c-6.906,2.815-14.054,4.838-21.247,6.554
			c-14.403,3.394-29.023,5.602-43.675,7.319c-14.656,1.711-29.374,2.799-44.102,3.494c-14.729,0.691-29.473,0.977-44.211,0.905
			c-29.477-0.19-58.95-1.67-88.244-4.989c-7.32-0.843-14.625-1.843-21.904-3.016c-7.28-1.161-14.536-2.51-21.727-4.185
			c-7.184-1.69-14.328-3.654-21.228-6.408c-3.438-1.395-6.83-2.978-9.957-5.101c-1.554-1.07-3.048-2.28-4.294-3.794
			c-0.615-0.758-1.172-1.594-1.571-2.529c-0.2-0.466-0.365-0.954-0.471-1.46c-0.108-0.476-0.171-1.096-0.171-1.517
			c-0.011-2.167,0.963-4.065,2.186-5.583c1.236-1.527,2.727-2.753,4.275-3.838c3.117-2.154,6.504-3.769,9.936-5.196
			c6.889-2.819,14.028-4.851,21.222-6.547c14.399-3.363,29.012-5.583,43.67-7.179c14.66-1.602,29.371-2.648,44.092-3.299
			C146.835,7.705,161.567,7.342,176.3,7.398z"/>
		<path d="M176.3,68.615c-14.367,0.056-28.735-0.279-43.093-0.875c-14.357-0.591-28.707-1.545-43.014-3.012
			c-14.305-1.459-28.571-3.502-42.653-6.594c-7.036-1.56-14.025-3.43-20.8-6.03c-3.377-1.316-6.717-2.801-9.826-4.792
			c-1.543-1.007-3.04-2.142-4.311-3.58c-1.254-1.41-2.31-3.282-2.305-5.383c0-2.102,1.067-3.966,2.331-5.36
			c1.278-1.423,2.78-2.542,4.329-3.534c3.117-1.96,6.463-3.414,9.844-4.698c6.784-2.534,13.779-4.336,20.806-5.89
			c7.034-1.537,14.122-2.778,21.232-3.843c7.108-1.079,14.239-1.997,21.384-2.774c28.588-3.051,57.33-4.426,86.075-4.614
			c14.374-0.073,28.752,0.186,43.117,0.817c14.364,0.635,28.721,1.63,43.023,3.207c14.3,1.581,28.571,3.611,42.658,6.734
			c7.036,1.579,14.033,3.439,20.824,6.035c3.386,1.315,6.735,2.799,9.865,4.798c1.554,1.012,3.064,2.152,4.355,3.609
			c1.271,1.443,2.363,3.307,2.359,5.548c-0.006,0.217-0.012,0.441-0.049,0.749c-0.035,0.282-0.075,0.53-0.142,0.788
			c-0.122,0.511-0.296,1.004-0.516,1.465c-0.436,0.927-1.019,1.743-1.661,2.469c-1.292,1.454-2.804,2.591-4.358,3.599
			c-3.132,1.993-6.482,3.47-9.869,4.778c-6.792,2.582-13.79,4.431-20.83,5.984c-14.092,3.072-28.362,5.084-42.669,6.541
			c-14.309,1.456-28.658,2.409-43.017,2.998C205.035,68.35,190.667,68.677,176.3,68.615z M176.3,68.415
			c14.363-0.064,28.728-0.4,43.065-1.214c14.337-0.831,28.652-2.023,42.898-3.751c14.234-1.766,28.444-3.876,42.395-7.09
			c6.958-1.642,13.886-3.481,20.524-6.016c3.305-1.281,6.558-2.732,9.488-4.606c1.453-0.942,2.83-1.999,3.924-3.238
			c1.096-1.245,1.853-2.644,1.848-4.186c0.001-1.399-0.758-2.897-1.855-4.108c-1.096-1.235-2.474-2.289-3.928-3.228
			c-2.932-1.868-6.186-3.312-9.491-4.587c-6.641-2.522-13.569-4.349-20.53-5.964c-13.955-3.163-28.164-5.255-42.407-6.898
			c-28.508-3.198-57.221-4.646-85.932-4.798c-14.356-0.062-28.72,0.141-43.061,0.84c-14.343,0.676-28.674,1.711-42.937,3.367
			c-14.26,1.627-28.481,3.771-42.448,7.015c-6.971,1.641-13.902,3.526-20.549,6.109c-3.31,1.305-6.568,2.779-9.513,4.687
			c-1.46,0.959-2.847,2.034-3.954,3.303c-1.105,1.259-1.888,2.758-1.883,4.296c0,1.539,0.795,3.03,1.909,4.273
			c1.116,1.255,2.508,2.314,3.972,3.258c2.953,1.876,6.217,3.319,9.531,4.592c6.656,2.518,13.593,4.335,20.555,5.97
			c13.961,3.193,28.176,5.273,42.411,7.037c14.248,1.716,28.563,2.908,42.9,3.737C147.572,68.029,161.936,68.357,176.3,68.415z"/>
	</g>
</g>
<path style="fill:#828282;" d="M28,109.75c-1.734-13.169,5.34-27.076,17.449-28.67c10.506-1.383,21.131,5.101,24.301,15.67
	c2.25,7.5,0.5,19.25-2,21.75"/>
<g>
	<path style="fill:#C1C1C1;" d="M30.25,119.5c-0.75-3.75-1.913-7.177-2.471-11.404c-1.764-13.403,6.146-25.497,17.67-27.016
		c11.525-1.516,22.297,8.119,24.061,21.521c0.828,6.289,0.74,9.649-1.51,16.899"/>
	<path d="M30.25,119.5c-1.078-4.038-2.568-7.983-3.125-12.219c-0.545-4.239-0.117-8.624,1.344-12.694
		c1.455-4.06,3.988-7.802,7.446-10.514c3.453-2.703,7.863-4.243,12.282-4.142c4.426,0.086,8.736,1.762,12.158,4.452
		c3.437,2.69,6.088,6.287,7.738,10.261c0.826,1.987,1.44,4.059,1.787,6.172c0.326,2.129,0.5,4.199,0.561,6.332
		c0.109,4.28-0.977,8.447-2.441,12.351c0.515-2.03,0.99-4.07,1.293-6.125c0.299-2.056,0.355-4.125,0.174-6.181
		c-0.174-2.044-0.454-4.144-0.866-6.133c-0.437-1.998-1.068-3.948-1.923-5.795c-1.715-3.68-4.237-6.993-7.461-9.394
		c-3.195-2.41-7.086-3.91-11.056-3.95c-3.964-0.085-7.921,1.233-11.077,3.67c-3.19,2.401-5.606,5.806-7.085,9.57
		c-1.503,3.766-2.062,7.916-1.765,11.998c0.169,2.054,0.467,4.109,0.873,6.158C29.508,115.368,29.971,117.42,30.25,119.5z"/>
</g>
<path style="opacity:0.26;fill:#828282;" d="M320.5,214.5c-9.114,6.833-17.75,12-29.25,14.75c-8.694,2.079-26.234,1.811-25.5,8.25
	c0.845,7.404-14.709,5.82-22.106,6.283c-8.073,0.471-16.168,0.49-24.246-0.027c-8.08-0.508-16.136-1.579-24.142-3.061
	c-8.009-1.467-15.959-3.427-23.806-5.887c-7.848-2.463-15.584-5.447-23.198-8.845c-3.802-1.717-7.565-3.563-11.282-5.546
	c-3.727-1.953-7.411-4.037-11.039-6.264c-7.237-4.489-14.315-9.413-21.041-15.025c-6.727-5.605-13.123-11.845-18.994-18.798
	c-5.869-6.946-11.209-14.631-15.627-23.107c-4.453-8.437-13.703-23.258-15.769-33.042c-0.486-2.337-2.666-21.014-8.834-16.848
	c-1.293,0.874,2.375,16.374,3.834,20.589c3.834,11.077,11.167,24.578,17.834,35.744c9.998,16.748,20.055,27.918,33.332,40.333
	c6.654,6.211,15.311,11.47,22.633,16.41c3.656,2.481,7.377,4.82,11.148,7.021c3.787,2.163,7.625,4.187,11.504,6.078
	c7.754,3.8,15.705,6.969,23.762,9.61c8.057,2.648,16.222,4.78,24.451,6.406c8.233,1.605,16.54,2.622,24.868,3.15
	c8.328,0.523,16.686,0.504,25.015-0.178c16.65-1.332,24.158-5.217,28.703,4.252c3,6.25,33.353-11.283,40.75-16.25
	c1.079-0.727,3.103-2.735,4.167-3.5L320.5,214.5z"/>
<g>
	<path style="fill:#737373;" d="M359.948,109.24c-1.06-4.709-2.489-9.287-4.198-13.701c-1.696-4.422-3.675-8.688-5.894-12.766
		c-2.703-4.953-5.712-9.662-8.965-14.125l-0.415,3.282c2.697,3.892,5.19,7.966,7.428,12.239c2.103,4.023,3.959,8.212,5.535,12.529
		c1.548,4.33,2.792,8.795,3.683,13.342c1.792,9.09,2.098,18.529,0.746,27.64c-1.348,9.114-4.338,17.823-8.585,25.599
		c-4.247,7.785-9.68,14.664-15.778,20.615c-12.255,11.901-26.973,20.202-42.285,25.876c-15.362,5.647-29.22,9.565-63.887,10.898
		C212.618,221.233,164,218.5,117,184.5c-23.148-16.746-41.816-38.459-46.731-46.091C65.5,131,56.566,116.652,54.5,107.5
		c-1.01-4.54-5.941-1.158-5,3.5c1.83,9.377,21.064,47.559,55.834,73c41,30,70.666,38.667,101.333,42.667
		c47.102,6.144,74.763-7.205,90.667-13.334c7.939-3.081,11.571-3.387,18.968-8.034c7.384-4.652,14.448-10.107,20.754-16.652
		c6.315-6.508,11.915-14.064,16.173-22.602c4.277-8.506,7.177-17.977,8.297-27.715C362.692,128.6,362.079,118.647,359.948,109.24z"
		/>
	<path d="M359.899,109.251c-0.841-3.667-1.897-7.281-3.16-10.823c-1.267-3.54-2.696-7.024-4.323-10.413
		c-3.243-6.785-7.216-13.208-11.638-19.284l0.252-0.065l-0.408,3.283l-0.024-0.102c5.354,7.682,9.822,16,13.043,24.814
		c3.165,8.815,5.061,18.124,5.301,27.509c0.266,9.38-1.15,18.819-4.241,27.69c-3.061,8.885-7.814,17.158-13.734,24.448
		c-5.91,7.312-12.982,13.634-20.673,19.014c-7.724,5.348-16.096,9.717-24.793,13.226c-8.715,3.442-17.652,6.397-26.859,8.237
		c-9.194,1.869-18.534,2.842-27.87,3.486c-4.672,0.316-9.344,0.544-14.024,0.707c-4.692,0.124-9.379-0.089-14.048-0.477
		c-9.337-0.792-18.599-2.352-27.701-4.551c-18.21-4.395-35.753-11.468-51.962-20.837c-16.25-9.339-30.9-21.274-44.091-34.543
		c-3.298-3.323-6.507-6.734-9.6-10.251c-3.081-3.526-6.099-7.114-8.778-10.977c-2.572-3.924-5.045-7.891-7.4-11.943
		c-2.344-4.055-4.575-8.184-6.453-12.491c-0.93-2.156-1.777-4.358-2.371-6.65c-0.156-0.588-0.24-1.146-0.484-1.606
		c-0.23-0.47-0.596-0.842-1.047-0.93c-0.939-0.179-1.918,0.667-2.428,1.584c-0.543,0.946-0.746,2.081-0.61,3.171
		c0.161,1.099,0.514,2.221,0.881,3.314c0.753,2.193,1.673,4.337,2.65,6.451c3.962,8.441,8.854,16.439,14.227,24.064
		c10.806,15.197,23.749,28.988,38.888,39.915c15.103,10.974,31.09,20.861,48.259,28.218c8.573,3.681,17.432,6.693,26.477,8.982
		c9.044,2.299,18.262,3.874,27.531,5.009c9.259,1.111,18.608,1.564,27.927,1.197c9.317-0.368,18.6-1.579,27.692-3.641
		c9.103-2.047,17.954-5.076,26.634-8.535l6.536-2.561c2.19-0.839,4.417-1.587,6.633-2.326c2.217-0.739,4.41-1.512,6.515-2.494
		c2.106-0.976,4.13-2.129,6.094-3.383c7.886-4.987,15.245-10.842,21.598-17.694c6.372-6.811,11.762-14.569,15.736-23.021
		c3.983-8.443,6.541-17.561,7.502-26.856C362.542,127.824,361.938,118.372,359.899,109.251z M359.997,109.229
		c2.079,9.124,2.725,18.588,1.771,27.909c-0.924,9.32-3.45,18.482-7.414,26.975c-3.955,8.503-9.334,16.317-15.71,23.19
		c-6.351,6.901-13.719,12.832-21.61,17.881c-1.97,1.274-4.01,2.458-6.143,3.462c-2.13,1.011-4.351,1.81-6.564,2.564
		c-4.446,1.454-8.76,3.2-13.103,4.957c-8.673,3.514-17.561,6.614-26.709,8.727c-18.293,4.333-37.352,4.753-55.95,2.501
		c-9.295-1.144-18.557-2.729-27.646-5.045c-9.092-2.305-17.999-5.339-26.614-9.042c-17.252-7.402-33.291-17.336-48.426-28.343
		c-15.212-11.013-28.264-24.848-39.038-40.173c-5.37-7.681-10.251-15.725-14.209-24.24c-0.977-2.134-1.896-4.298-2.655-6.532
		c-0.37-1.123-0.727-2.243-0.9-3.461c-0.146-1.229,0.082-2.513,0.71-3.598c0.313-0.541,0.724-1.036,1.251-1.413
		c0.517-0.37,1.203-0.639,1.915-0.489c0.721,0.146,1.235,0.724,1.507,1.292c0.299,0.586,0.385,1.205,0.527,1.743
		c0.572,2.24,1.4,4.422,2.314,6.561c1.845,4.277,4.053,8.4,6.373,12.451c2.332,4.044,4.791,8.029,7.338,11.934
		c2.645,3.832,5.65,7.425,8.713,10.947c3.077,3.515,6.271,6.928,9.555,10.252c13.137,13.278,27.727,25.223,43.924,34.587
		c16.148,9.422,33.732,16.34,51.899,20.692c9.088,2.165,18.333,3.691,27.642,4.451c4.653,0.371,9.326,0.567,13.986,0.429
		c4.667-0.178,9.338-0.425,13.998-0.755c9.317-0.675,18.627-1.678,27.769-3.568c9.145-1.858,18.034-4.832,26.698-8.285
		c8.638-3.514,16.938-7.882,24.588-13.207c7.652-5.304,14.694-11.542,20.585-18.764c5.9-7.199,10.645-15.374,13.722-24.174
		c3.105-8.786,4.554-18.143,4.332-27.464c-0.197-9.33-2.044-18.593-5.162-27.389c-3.169-8.779-7.592-17.096-12.901-24.779
		l-0.032-0.046l0.007-0.056l0.422-3.281l0.045-0.352l0.207,0.287c4.407,6.107,8.36,12.557,11.583,19.368
		c1.616,3.402,3.034,6.896,4.288,10.446C358.127,101.931,359.171,105.557,359.997,109.229z"/>
</g>
<path style="fill:#BABABA;stroke:#000000;stroke-miterlimit:10;" d="M48.977,112.813c-1.405,0.229-2.925,0.367-4.557,0.415
	c-8.657,0.253-11.366-6.914-11.849-9.875c-0.232-1.432,1.061-2.213,1.386-2.196c1.431,0.077,1.864,1.358,2.151,2.205
	c0.715,2.114,2.047,6.049,8.164,5.871c12.82-0.374,12.902-6.681,12.899-6.949c-0.012-1.089,0.826-1.996,1.883-2.021
	c1.059-0.023,1.947,0.81,2,1.899c0.016,0.323,0.078,3.25-2.457,6.07C56.483,110.582,53.258,112.115,48.977,112.813z"/>
<g>
	<path style="fill:#737373;" d="M43.834,95.334c-4.178,2.122-9.334,10-5.5,17.666c3.353,6.709,5.117,8.746,7.666,9.5
		c1.234,0.365,5-0.5,4.5-2.5s-8.166-13.833-3.166-16.833L49,108.834c0,0,1.889-0.031,2.5-0.167c0.785-0.175,3-1.167,3-1.167
		s-1.455-7.194-3-9.666C49.834,95.167,45.672,94.4,43.834,95.334z"/>
	<path d="M43.856,95.378c-2.078,1.146-3.679,3.03-4.767,5.103c-1.106,2.077-1.673,4.408-1.667,6.705
		c0.018,2.323,0.711,4.508,1.869,6.568c1.09,2.092,2.226,4.192,3.651,5.986c0.719,0.887,1.558,1.639,2.566,2.066
		c0.241,0.103,0.536,0.21,0.759,0.26c0.195,0.039,0.49,0.045,0.752,0.028c0.541-0.036,1.096-0.155,1.608-0.342
		c0.505-0.189,0.994-0.459,1.273-0.816c0.285-0.364,0.286-0.731,0.049-1.267c-0.444-1.062-0.995-2.137-1.481-3.222
		c-0.988-2.171-1.937-4.383-2.535-6.713c-0.296-1.161-0.517-2.365-0.421-3.585c0.056-0.606,0.186-1.218,0.467-1.776
		c0.281-0.557,0.731-1.031,1.262-1.358c0.084-0.052,0.194-0.025,0.246,0.059c0.008,0.014,0.016,0.031,0.02,0.045
		c0.562,1.887,1.195,3.753,1.797,5.628l-0.308-0.226c0.472-0.021,0.946-0.05,1.415-0.089c0.481-0.049,0.918-0.07,1.314-0.228
		c0.858-0.322,1.742-0.703,2.601-1.09l-0.243,0.474c-0.333-1.518-0.714-3.035-1.089-4.545c-0.399-1.502-0.827-3.007-1.418-4.413
		c-0.563-1.407-1.772-2.445-3.201-3.043C46.969,95.012,45.285,94.751,43.856,95.378z M43.81,95.289
		c0.722-0.358,1.539-0.42,2.324-0.393c0.793,0.029,1.575,0.192,2.334,0.439c0.755,0.254,1.482,0.621,2.123,1.125
		c0.644,0.497,1.189,1.17,1.549,1.892c0.746,1.434,1.215,2.95,1.664,4.463c0.457,1.514,0.806,3.047,1.113,4.6l0.002,0.009
		c0.039,0.197-0.067,0.39-0.246,0.465c-0.891,0.379-1.759,0.762-2.711,1.05c-0.509,0.168-1.044,0.168-1.511,0.191
		c-0.484,0.017-0.964,0.021-1.446,0.018H48.99c-0.141,0-0.258-0.097-0.293-0.227c-0.51-1.902-0.986-3.814-1.536-5.705l0.265,0.104
		c-1.002,0.559-1.555,1.692-1.604,2.85c-0.074,1.162,0.156,2.333,0.465,3.466c0.662,2.267,1.701,4.408,2.788,6.513
		c0.546,1.058,1.116,2.084,1.626,3.204c0.119,0.276,0.265,0.621,0.266,1.019c0,0.393-0.143,0.791-0.365,1.083
		c-0.447,0.599-1.055,0.913-1.647,1.153c-0.602,0.232-1.22,0.378-1.864,0.433c-0.33,0.023-0.637,0.037-1.027-0.03
		c-0.357-0.078-0.625-0.178-0.934-0.3c-1.203-0.486-2.197-1.364-2.984-2.307c-1.58-1.909-2.662-4.064-3.768-6.182
		c-0.538-1.042-1.103-2.185-1.413-3.38c-0.326-1.195-0.446-2.44-0.404-3.669c0.075-2.471,0.94-4.836,2.189-6.887
		C40.037,98.27,41.666,96.393,43.81,95.289z"/>
</g>
<ellipse cx="64" cy="101.334" rx="1.561" ry="2.181"/>
<ellipse cx="29.561" cy="104.334" rx="1.561" ry="2.181"/>
<g>
	<path style="fill:#664A2D;" d="M337.778,198.378c-0.143-0.756-0.35-1.518-0.622-2.277l-1.495-4.174
		c-2.169-6.047-7.691-9.601-12.335-7.935c0,0-0.01,0.01-0.013,0.013c-0.043,0.015-0.087,0.022-0.129,0.037
		c0,0-0.081,0.116-0.211,0.3c-0.891,0.878-3.245,3.159-4.291,3.794c-9.353,5.678-35.353,14.253-47.381,18.069
		c-0.465-0.1-0.921-0.214-1.363-0.349c-3.286-1.001-6.918-0.789-10.625,1.085c-3.963,1.421-3.845,5.408-2.376,10.307
		c0.252,0.84,2.412-0.8,2.73,0.085l2,4c1.833,5.167-1.984,3.744-1.787,4.245c2.012,5.112,4.31,8.131,8.781,7.434
		c8.056-1.25,6.152-4.531,7.412-5.379c5.63-3.81,16.967-8.574,28.091-12.358l19.978-5.642c0,0,6.357,0.767,8.391,0.482
		C336.923,209.497,338.835,203.839,337.778,198.378z"/>
	<path d="M337.729,198.387c-0.184-0.944-0.47-1.85-0.808-2.75l-0.983-2.704c-0.604-1.82-1.419-3.566-2.623-5.053
		c-1.193-1.477-2.712-2.709-4.452-3.431c-1.73-0.726-3.713-0.869-5.446-0.206l0.099-0.063l-0.013,0.013l-0.046,0.047l-0.058,0.018
		l-0.123,0.037l0.13-0.1l-0.208,0.304l-0.012,0.017l-0.02,0.02c-0.831,0.84-1.672,1.668-2.547,2.47
		c-0.441,0.4-0.881,0.796-1.37,1.166c-0.524,0.388-1.01,0.643-1.535,0.957c-2.07,1.165-4.21,2.175-6.364,3.145
		c-4.307,1.945-8.728,3.6-13.151,5.229c-4.434,1.605-8.903,3.099-13.382,4.564l-13.465,4.295l-0.042,0.014l-0.044-0.009
		c-1.021-0.213-1.992-0.588-2.991-0.749c-1.001-0.187-2.026-0.235-3.042-0.171c-2.034,0.124-4.025,0.723-5.84,1.652l-0.01,0.005
		l-0.011,0.004c-1.132,0.403-2.156,1.163-2.649,2.257c-0.512,1.081-0.564,2.332-0.46,3.536c0.112,1.213,0.393,2.413,0.729,3.595
		l0.131,0.442l0.066,0.221c-0.009-0.028,0.034,0.091,0.025,0.05c-0.008-0.012-0.003-0.008-0.001-0.005
		c0.046,0.049,0.407-0.006,0.67-0.099c0.287-0.087,0.58-0.198,0.909-0.275c0.167-0.036,0.343-0.07,0.56-0.048
		c0.216,0.004,0.518,0.203,0.588,0.452l-0.014-0.032l2.033,3.983l0.009,0.018l0.007,0.019c0.274,0.805,0.532,1.633,0.52,2.554
		c-0.012,0.45-0.115,0.973-0.482,1.372c-0.365,0.403-0.89,0.546-1.33,0.593l-0.605,0.05c-0.032-0.015-0.051,0.064,0.094-0.094
		c0.079-0.128,0.031-0.235,0.029-0.238l0.03,0.072l0.118,0.289c0.158,0.381,0.32,0.756,0.493,1.131
		c0.342,0.747,0.716,1.476,1.142,2.167c0.842,1.373,1.945,2.626,3.39,3.188c1.446,0.604,3.055,0.345,4.654-0.012
		c1.559-0.362,3.189-0.88,4.184-1.977c0.505-0.554,0.69-1.212,0.923-2.078c0.07-0.218,0.158-0.468,0.349-0.714
		c0.09-0.119,0.226-0.238,0.343-0.313l0.26-0.174c0.34-0.229,0.71-0.463,1.065-0.682c2.872-1.758,5.882-3.227,8.921-4.615
		c3.05-1.365,6.142-2.626,9.257-3.819c3.132-1.18,6.223-2.345,9.456-3.345c6.42-1.764,12.844-3.513,19.281-5.21l0.058-0.015
		l0.051,0.007c1.869,0.246,3.751,0.455,5.631,0.581c0.936,0.05,1.895,0.119,2.798,0.004c0.919-0.123,1.782-0.518,2.504-1.101
		c1.447-1.192,2.236-3.019,2.616-4.841C338.098,202.16,338.071,200.241,337.729,198.387z M337.827,198.368
		c0.365,1.861,0.415,3.796,0.057,5.669c-0.364,1.85-1.141,3.724-2.63,4.985c-0.73,0.627-1.64,1.074-2.597,1.228
		c-0.974,0.15-1.919,0.102-2.87,0.08c-1.9-0.074-3.788-0.235-5.679-0.422l0.107-0.008c-6.375,1.921-12.765,3.791-19.158,5.646
		c-6.265,2.046-12.505,4.467-18.55,7.167c-3.022,1.358-6.021,2.79-8.841,4.488c-0.355,0.216-0.69,0.423-1.042,0.656l-0.261,0.171
		c-0.058,0.038-0.081,0.058-0.118,0.104c-0.067,0.083-0.133,0.229-0.189,0.405c-0.195,0.726-0.48,1.73-1.135,2.412
		c-0.629,0.702-1.431,1.152-2.23,1.491c-0.807,0.336-1.637,0.565-2.468,0.746c-0.833,0.167-1.656,0.34-2.55,0.361
		c-0.88,0.027-1.786-0.116-2.615-0.462c-1.685-0.694-2.861-2.124-3.72-3.573c-0.435-0.733-0.809-1.494-1.146-2.267
		c-0.169-0.384-0.33-0.775-0.484-1.165l-0.114-0.291l-0.028-0.073c-0.015-0.051-0.083-0.213,0.03-0.386
		c0.209-0.239,0.306-0.178,0.373-0.211c0.267-0.033,0.443-0.027,0.638-0.052c0.377-0.039,0.708-0.148,0.911-0.374
		c0.209-0.219,0.3-0.567,0.31-0.938c0.018-0.751-0.21-1.549-0.471-2.312l0.016,0.037l-1.967-4.017l-0.058-0.119l0.044,0.086
		c-0.027-0.055-0.018-0.055-0.112-0.078c-0.093-0.012-0.228,0.003-0.363,0.032c-0.276,0.059-0.567,0.162-0.874,0.251
		c-0.154,0.044-0.313,0.088-0.49,0.114c-0.175,0.016-0.388,0.057-0.646-0.104c-0.059-0.044-0.112-0.092-0.159-0.172
		c-0.058-0.102-0.031-0.062-0.07-0.161l-0.063-0.226l-0.125-0.452c-0.321-1.206-0.586-2.437-0.681-3.697
		c-0.085-1.249-0.015-2.573,0.564-3.744c0.564-1.183,1.686-2.013,2.88-2.422l-0.02,0.009c1.856-0.935,3.898-1.535,5.981-1.649
		c1.041-0.064,2.087,0.009,3.113,0.183c1.041,0.161,2.01,0.527,3.009,0.724l-0.086,0.004c8.973-2.861,17.851-6.017,26.66-9.322
		c4.409-1.64,8.779-3.382,13.1-5.221c2.151-0.935,4.287-1.913,6.338-3.03c0.493-0.274,1.059-0.562,1.487-0.867
		c0.461-0.326,0.909-0.707,1.352-1.085c0.883-0.765,1.744-1.564,2.593-2.375l-0.031,0.037l0.214-0.295l0.058-0.08l0.072-0.02
		l0.134-0.037l-0.103,0.064l0.013-0.013l0.045-0.044l0.055-0.019c1.895-0.662,4-0.439,5.774,0.365
		c1.79,0.801,3.304,2.108,4.476,3.642c1.199,1.521,2.017,3.311,2.6,5.134l0.957,2.713
		C337.371,196.494,337.654,197.425,337.827,198.368z"/>
</g>
<path d="M260.667,219c-0.797-1.446-1.191-0.455-2.667-0.25c-1.174,0.163-2.194-1.899-2.03-7.226
	c0.023-0.766,3.287,3.773,5.546,8.572c1.484,3.154,1.12,5.175-0.016,5.154c-1.033-0.02-2.065,1.395,0.95,4.357
	C262.997,230.144,264.25,225.5,260.667,219z"/>
<path style="opacity:0.39;fill:#9E7754;" d="M329.092,208.623c-0.472-2.553,2.275-2.995,0.048-10.369
	c-2.198-7.293-4.869-12.421-4.869-12.421s4.295,4.976,6.205,10.309C334.805,208.212,329.092,208.623,329.092,208.623z"/>
<path style="opacity:0.39;fill:#9E7754;" d="M271.253,229.361c-0.473-2.557,2.273-2.996,0.048-10.372
	c-2.202-7.293-4.872-12.421-4.872-12.421s4.295,4.976,6.207,10.309C276.964,228.949,271.253,229.361,271.253,229.361z"/>
<path style="fill:#565656;" d="M47.625,103.125c0,0,1.959-1.5,2.625,0.5s1.5,4.625,1.5,4.625l-2.5,0.25L47.625,103.125z"/>
</svg>
