<?xml version="1.0" encoding="iso-8859-1"?>
<!-- Generator: Adobe Illustrator 21.1.0, SVG Export Plug-In . SVG Version: 6.00 Build 0)  -->
<svg version="1.1" id="Layer_1" xmlns="http://www.w3.org/2000/svg" xmlns:xlink="http://www.w3.org/1999/xlink" x="0px" y="0px"
	 viewBox="0 0 745.847 496.228" style="enable-background:new 0 0 745.847 496.228;" xml:space="preserve">
<g>
	<polygon style="fill:#DB712A;" points="6.275,163.384 12.436,331.391 268.756,484.091 720.906,257.484 739.308,103.139 
		476.193,9.629 	"/>
	<path style="fill:#231F20;" d="M6.586,163.601l3.989,83.742l3.746,83.978l-0.92-1.551l64.327,37.76l64.255,37.881l64.24,37.906
		l64.16,38.04l-3.053-0.11l113.061-56.605l113.183-56.362l113.256-56.215l113.397-55.935l-0.825,1.175l9.628-77.122l9.369-77.153
		l0.602,0.97l-65.806-23.301l-65.906-23.018L475.395,11.876l1.54,0.019l-58.654,19.48l-58.732,19.243L241.969,88.752l-58.835,18.93
		l-58.871,18.817L65.34,145.158C45.766,151.337,26.192,157.519,6.586,163.601z M6.182,163.099
		c19.481-6.709,38.995-13.316,58.508-19.928l58.557-19.78l58.608-19.621l58.645-19.509l117.38-38.743l58.747-19.196l58.825-18.959
		l0.026-0.008c0.513-0.165,1.043-0.143,1.514,0.028l131.22,47.704l65.65,23.737l65.752,23.454c0.409,0.146,0.65,0.556,0.602,0.97
		l-9.032,77.193l-8.773,77.224c-0.059,0.516-0.372,0.94-0.801,1.162l-0.024,0.013l-112.678,57.369l-112.819,57.088l-112.893,56.941
		l-113.014,56.697l-0.005,0.003c-0.998,0.5-2.153,0.413-3.048-0.114l-64-38.31l-63.92-38.443l-63.905-38.47L11.47,333.012
		l-0.023-0.015c-0.557-0.337-0.875-0.932-0.897-1.537l-2.415-84.028l-2.16-84.036C5.972,163.259,6.06,163.141,6.182,163.099z"/>
</g>
<g>
	<polygon style="fill:#A13E0A;" points="274.064,299.314 270.457,482.944 12.436,331.391 5.625,162.948 	"/>
</g>
<g>
	<polygon style="fill:#C55313;" points="739.563,102.774 720.906,257.484 270.457,482.944 274.064,299.314 	"/>
</g>
<path style="fill:#C64810;" d="M268.756,484.091l452.15-226.606L732,166c0,0-14,14-33,41c-39.904,56.706-119.492,102.013-134,109
	c-14.509,6.988-295,158-295,158L268.756,484.091z"/>
<path style="fill:#892802;" d="M12.436,331.391l256.32,152.7c0,0-0.361-10.162-4.148-10.162S98.666,367.91,55,336
	c-26-19-39-43-45-74C8.053,251.941,12.436,331.391,12.436,331.391z"/>
<g>
	<path style="fill:#231F20;" d="M6.275,163.384L73.561,196.7c22.433,11.097,44.799,22.324,67.176,33.531l67.131,33.618
		l67.016,33.847l-1.525-0.054l58.112-24.627c19.371-8.206,38.73-16.442,58.143-24.551l116.399-48.834
		c19.388-8.168,38.826-16.217,58.256-24.284l58.29-24.204c19.418-8.096,38.885-16.075,58.343-24.076
		c19.456-8.007,38.913-16.01,58.406-23.928c-19.277,8.43-38.591,16.774-57.905,25.116c-19.312,8.347-38.615,16.716-57.968,24.967
		l-58.021,24.84c-19.34,8.281-38.672,16.579-58.055,24.759l-116.223,49.255c-19.357,8.238-38.77,16.351-58.168,24.492l-58.2,24.417
		l-0.006,0.003c-0.507,0.213-1.064,0.173-1.52-0.057l-66.878-34.118l-66.762-34.346c-22.254-11.448-44.519-22.876-66.718-34.434
		L6.275,163.384z"/>
</g>
<g>
	<path style="fill:#231F20;" d="M276.062,299.371l-7.307,184.72l3.309-184.835c0.02-1.104,0.931-1.983,2.036-1.964
		c1.104,0.02,1.983,0.932,1.964,2.036C276.064,299.339,276.063,299.359,276.062,299.371z"/>
</g>
<g>
	<path style="fill:#6B1F05;" d="M309.4,189.468c0.045,23.971-27.612,41.76-61.929,41.816c-34.314,0.061-62.291-17.626-62.335-41.601
		c-0.039-23.971,27.743-43.454,62.059-43.515C281.511,146.11,309.357,165.494,309.4,189.468z"/>
	<path style="fill:#962E00;" d="M308.699,189.338c-0.037-20.13-29.446-42.236-46.408-38.221
		c-10.011,2.372-22.849,14.987-27.478,44.011c-2.881,18.062,2.598,35.955,12.659,36.155
		C286.897,232.066,308.727,204.645,308.699,189.338z"/>
	<g>
		<path d="M309.4,189.468c0.018,3.462-0.559,6.927-1.701,10.198c-1.141,3.275-2.826,6.349-4.898,9.127
			c-4.146,5.576-9.698,10.003-15.756,13.374c-12.181,6.767-26.24,9.718-40.149,9.862c-6.977,0.064-13.976-0.595-20.824-2.086
			c-6.838-1.5-13.556-3.802-19.759-7.205c-6.169-3.409-11.911-7.893-16.158-13.725c-2.106-2.912-3.82-6.144-4.943-9.596
			c-1.129-3.445-1.662-7.102-1.56-10.722c0.188-7.301,3.046-14.329,7.367-20.021c4.328-5.734,10.014-10.235,16.145-13.714
			c6.157-3.478,12.847-5.874,19.677-7.435c6.839-1.549,13.851-2.227,20.83-2.11c13.929,0.244,27.937,3.635,39.87,10.824
			c5.942,3.577,11.331,8.182,15.36,13.839C306.949,175.692,309.441,182.518,309.4,189.468z M309.4,189.468
			c0.002-6.95-2.525-13.748-6.592-19.322c-4.066-5.612-9.535-10.079-15.483-13.543c-5.977-3.46-12.513-5.875-19.206-7.458
			c-6.702-1.575-13.59-2.291-20.454-2.221c-13.703,0.142-27.481,3.396-39.211,10.279c-5.844,3.424-11.129,7.835-15.123,13.203
			c-4.002,5.333-6.537,11.771-6.684,18.369c-0.254,6.612,1.946,13.165,5.848,18.555c3.874,5.431,9.203,9.809,15.077,13.164
			c5.885,3.371,12.321,5.825,18.961,7.455c6.643,1.634,13.499,2.468,20.365,2.588c6.873,0.12,13.767-0.47,20.511-1.871
			c6.733-1.413,13.344-3.607,19.434-6.863c6.06-3.261,11.685-7.546,15.866-13.076c2.08-2.759,3.777-5.816,4.934-9.078
			C308.803,196.389,309.398,192.93,309.4,189.468z"/>
	</g>
</g>
<g>
	<path style="fill:#6B1F05;" d="M433.084,139.479c0.041,22.849-26.319,39.802-59.029,39.857
		c-32.705,0.06-59.371-16.801-59.415-39.65c-0.037-22.849,26.443-41.419,59.152-41.478
		C406.5,98.152,433.042,116.628,433.084,139.479z"/>
	<path style="fill:#962E00;" d="M432.411,139.355c-0.03-19.186-28.065-40.257-44.23-36.429c-9.543,2.26-21.78,14.284-26.19,41.948
		c-2.748,17.217,2.475,34.271,12.064,34.461C411.634,180.081,432.439,153.944,432.411,139.355z"/>
	<g>
		<path d="M433.084,139.479c0.066,6.622-2.315,13.15-6.289,18.421c-3.957,5.312-9.24,9.539-15.016,12.754
			c-11.611,6.452-25.007,9.281-38.275,9.424c-6.646,0.067-13.324-0.558-19.856-1.975c-6.521-1.431-12.933-3.614-18.852-6.862
			c-5.89-3.247-11.364-7.533-15.426-13.095c-2.004-2.785-3.653-5.865-4.72-9.165c-1.086-3.283-1.583-6.799-1.494-10.228
			c0.189-7.002,2.907-13.698,7.04-19.134c4.131-5.476,9.561-9.768,15.41-13.085c5.875-3.317,12.261-5.592,18.775-7.081
			c6.525-1.468,13.207-2.119,19.868-1.998c13.274,0.241,26.634,3.481,38.001,10.344c5.661,3.414,10.803,7.8,14.638,13.198
			C430.752,126.346,433.112,132.857,433.084,139.479z M433.084,139.479c-0.011-6.622-2.406-13.104-6.289-18.413
			c-3.871-5.353-9.092-9.6-14.759-12.902c-5.695-3.298-11.927-5.591-18.305-7.096c-6.389-1.497-12.947-2.172-19.493-2.102
			c-13.05,0.142-26.176,3.255-37.34,9.814c-5.563,3.262-10.593,7.463-14.389,12.573c-3.815,5.065-6.21,11.212-6.357,17.454
			c-0.243,6.316,1.853,12.521,5.558,17.659c3.69,5.162,8.751,9.339,14.346,12.534c5.601,3.216,11.73,5.551,18.054,7.111
			c6.329,1.56,12.854,2.36,19.402,2.477c6.543,0.123,13.116-0.442,19.542-1.769c6.415-1.346,12.719-3.426,18.524-6.528
			c5.777-3.105,11.136-7.189,15.125-12.456C430.694,152.6,433.112,146.101,433.084,139.479z"/>
	</g>
</g>
<g>
	<path style="fill:#6B1F05;" d="M554.595,92.212c0.04,22.425-25.833,39.066-57.939,39.12c-32.101,0.058-58.272-16.491-58.316-38.918
		c-0.037-22.427,25.955-40.653,58.059-40.71C528.502,51.649,554.552,69.785,554.595,92.212z"/>
	<path style="fill:#962E00;" d="M553.933,92.091c-0.029-18.831-27.546-39.514-43.411-35.756
		c-9.367,2.218-21.376,14.02-25.706,41.173c-2.698,16.898,2.429,33.638,11.84,33.825C533.54,132.064,553.962,106.41,553.933,92.091z
		"/>
	<g>
		<path d="M554.595,92.212c0.065,6.499-2.272,12.907-6.173,18.082c-3.883,5.213-9.068,9.364-14.737,12.521
			c-11.396,6.336-24.544,9.117-37.569,9.261c-6.525,0.067-13.081-0.545-19.493-1.934c-6.403-1.403-12.699-3.545-18.511-6.733
			c-5.783-3.188-11.16-7.395-15.151-12.858c-1.968-2.735-3.588-5.761-4.636-9.002c-1.067-3.225-1.556-6.681-1.469-10.047
			c0.185-6.88,2.856-13.457,6.916-18.796c4.057-5.378,9.391-9.591,15.135-12.848c5.768-3.257,12.04-5.488,18.435-6.948
			c6.407-1.439,12.967-2.077,19.506-1.956c13.03,0.239,26.145,3.424,37.301,10.163c5.556,3.352,10.603,7.658,14.365,12.957
			C552.306,79.322,554.622,85.713,554.595,92.212z M554.595,92.212c-0.011-6.499-2.363-12.862-6.175-18.072
			c-3.8-5.254-8.925-9.421-14.487-12.662c-5.59-3.236-11.706-5.485-17.966-6.96c-6.271-1.468-12.707-2.128-19.131-2.058
			c-12.806,0.143-25.686,3.201-36.638,9.639c-5.458,3.201-10.391,7.324-14.114,12.335c-3.74,4.969-6.089,10.997-6.232,17.116
			c-0.238,6.194,1.816,12.277,5.449,17.316c3.619,5.063,8.582,9.162,14.071,12.297c5.494,3.156,11.508,5.45,17.712,6.983
			c6.211,1.532,12.613,2.319,19.04,2.436c6.421,0.123,12.872-0.431,19.179-1.73c6.297-1.32,12.483-3.359,18.183-6.403
			c5.67-3.046,10.93-7.054,14.846-12.224C552.248,105.091,554.622,98.713,554.595,92.212z"/>
	</g>
</g>
<g>
	<path style="fill:#231F20;" d="M6.275,163.384l6.98,167.976l-0.395-0.672l129.557,77.714l129.405,77.966l-1.372-0.049
		l112.429-57.571l112.51-57.414l112.551-57.331l112.623-57.192l-0.406,0.584l19.152-154.256l-17.65,154.436
		c-0.029,0.256-0.185,0.468-0.397,0.579l-0.009,0.005l-112.284,57.853L496.61,373.727l-112.397,57.632l-112.478,57.474
		c-0.449,0.23-0.969,0.194-1.372-0.048l-129.252-78.22l-129.1-78.472l-0.005-0.003c-0.242-0.148-0.38-0.406-0.39-0.669
		L6.275,163.384z"/>
</g>
</svg>
