<?xml version="1.0" encoding="iso-8859-1"?>
<!-- Generator: Adobe Illustrator 21.1.0, SVG Export Plug-In . SVG Version: 6.00 Build 0)  -->
<svg version="1.1" id="Layer_1" xmlns="http://www.w3.org/2000/svg" xmlns:xlink="http://www.w3.org/1999/xlink" x="0px" y="0px"
	 viewBox="0 0 199.309 570.996" style="enable-background:new 0 0 199.309 570.996;" xml:space="preserve">
<circle id="skinface" style="fill:#36FF00;stroke:#000100;stroke-width:3.5;stroke-miterlimit:10;" cx="98.824" cy="96.035" r="74.039"/>
<g id="highlightgroup">
	
		<line style="fill:none;stroke:#000100;stroke-width:5.6693;stroke-linecap:round;stroke-linejoin:round;" x1="84.726" y1="381.848" x2="82.171" y2="511.853"/>
	
		<line style="fill:none;stroke:#000100;stroke-width:5.6693;stroke-linecap:round;stroke-linejoin:round;" x1="121.827" y1="385.985" x2="122.569" y2="511.871"/>
	<path style="fill:#1D1E1C;" d="M24.636,359.051c0.127-0.394,0.426-1.058,0.791-1.574c2.51-4.458,5.039-3.153,8.059-2.462
		c3.869,0.886,7.5,7.077,7.689,7.375l6.09,16.352c0.473,0.726,0.267,1.697-0.459,2.166c-0.727,0.473-1.699,0.267-2.168-0.458
		l-5.795-15.898l-0.945-0.324l0.859,30.167c0.086,0.862-0.543,1.628-1.402,1.714c-0.514,0.051-0.99-0.15-1.316-0.507
		c-0.217-0.237-0.363-0.548-0.398-0.898l-1.166-31.23c-0.018-0.196,0.012-0.391,0.062-0.577c-0.408-0.189-0.791-0.355-1.137-0.485
		l-0.668,36.375c-0.02,0.867-0.734,1.551-1.6,1.536c-0.449-0.009-0.848-0.206-1.127-0.512c-0.262-0.284-0.418-0.668-0.41-1.087
		l0.666-36.169c-1.238,0.874-0.402-0.168-0.555,0.546l-2.348,29.708c-0.111,0.86-0.779,1.597-1.639,1.482
		c-0.381-0.048-0.713-0.232-0.953-0.498c-0.301-0.33-0.461-0.782-0.398-1.258l2.512-28.228l-0.721-0.224l-3.998,20.427
		c-0.246,0.759-0.502,0.958-1.262,0.712c-0.246-0.082-0.457-0.223-0.621-0.4c-0.334-0.37-0.471-0.909-0.305-1.42l4.486-23.836
		c0.027-0.067,0.043-0.13,0.068-0.199L24.636,359.051z"/>
	<path style="fill:#FCEE21;stroke:#000100;stroke-width:4.252;stroke-linecap:round;stroke-linejoin:round;" d="M121.325,509.294
		c8.701-0.869,19.225,3.636,26.775,6.227c10.549,3.63,19.758,7.951,25.035,15.432c3.289,4.669,6.562,12.727,3.615,17.729
		c-3.973,6.728-11.223,9.201-21.293,10.715c-16.551,2.484-37.512,2.164-47.871-8.575
		C93.317,536.021,121.325,509.294,121.325,509.294z"/>
	<path style="fill:#FCEE21;stroke:#000100;stroke-width:4.252;stroke-linecap:round;stroke-linejoin:round;" d="M81.931,507.54
		c11.369,6.674,24.043,28.184,19.07,39.626c-6.695,15.398-35.668,14.229-51.443,11.432c-18.502-3.285-27.754-18.46-19.568-31.02
		C37.183,516.529,81.931,507.54,81.931,507.54z"/>
	<g>
		<path style="fill:#000100;stroke:#000100;stroke-width:4.0304;" d="M97.597,191.068c0-3.182-0.137-6.429-0.27-9.566
			c-0.131-3.18-0.271-6.466-0.271-9.728l0,0c0-1.23,1.205-1.222,2.684-1.222c1.482,0,2.682-0.007,2.682,1.222l0,0
			c0,3.187,0.137,6.435,0.27,9.574c0.135,3.178,0.27,6.461,0.27,9.72l0,0c0,1.228-1.199,2.223-2.682,2.223
			S97.597,192.296,97.597,191.068L97.597,191.068z"/>
	</g>
	<g>
		<path style="fill:#000100;stroke:#000100;" d="M77.882,528.564c-2.123-1.512-5.361-1.893-9.303-2.01l0,0
			c-0.17-0.016-0.422-0.019-0.74-0.019l0,0c-2.67-0.039-6.637,0.523-7.803,1.235l0,0l0.006,0.003
			c-1.189,0.635-2.869,0.459-3.758-0.38l0,0c-0.893-0.847-0.654-2.04,0.535-2.673l0,0c3.244-1.643,7.602-1.947,11.02-1.995l0,0
			c0.346,0,0.727,0,1.078,0.021l0,0c4.004,0.143,8.9,0.453,12.729,3.1l0,0c1.053,0.734,1.072,1.942,0.033,2.695l0,0
			c-0.529,0.38-1.227,0.57-1.92,0.57l0,0C79.079,529.111,78.401,528.93,77.882,528.564L77.882,528.564z"/>
	</g>
	<g>
		<path style="fill:#000100;stroke:#000100;" d="M75.208,540.228c-1.273-1.008-6.379-1.963-9.451-2.24l0,0
			c-1.215-0.143-2.504-0.225-3.773-0.225l0,0c-2.205,0-4.295,0.268-5.92,0.869l0,0c-1.309,0.483-2.934,0.116-3.613-0.816l0,0
			c-0.676-0.938-0.162-2.084,1.15-2.572l0,0c2.678-0.977,5.605-1.288,8.383-1.288l0,0c1.594,0,3.154,0.096,4.615,0.267l0,0
			c3.396,0.43,8.809,1.001,12.324,3.258l0,0c1.068,0.727,1.107,1.935,0.08,2.693l0,0c-0.527,0.391-1.232,0.59-1.936,0.59l0,0
			C76.399,540.764,75.731,540.588,75.208,540.228L75.208,540.228z"/>
	</g>
	<g>
		<path style="fill:#000100;stroke:#000100;" d="M121.931,528.834c-1.26-0.551-1.666-1.725-0.893-2.621l0,0
			c1.77-1.961,4.729-2.928,7.906-3.673l0,0c3.205-0.722,6.725-1.085,9.801-1.091l0,0c2.105,0.016,3.965,0.139,5.668,0.668l0,0
			c1.352,0.43,1.955,1.557,1.348,2.516l0,0c-0.609,0.96-2.195,1.389-3.547,0.96l0,0c-0.408-0.151-1.805-0.343-3.469-0.323l0,0
			c-2.457-0.006-5.586,0.316-8.182,0.9l0,0c-2.611,0.552-4.598,1.51-4.949,2.025l0,0l0.006,0.002
			c-0.502,0.589-1.389,0.914-2.293,0.914l0,0C122.849,529.111,122.366,529.02,121.931,528.834L121.931,528.834z"/>
	</g>
	<g>
		<path style="fill:#000100;stroke:#000100;" d="M125.751,538.324c-1.08-0.727-1.123-1.933-0.1-2.697l0,0
			c3.934-2.826,10.936-4.377,17.143-4.445l0,0c1.916,0.002,3.777,0.17,5.506,0.623l0,0c1.385,0.372,2.09,1.469,1.57,2.451l0,0
			c-0.525,0.986-2.066,1.484-3.455,1.114l0,0c-0.877-0.237-2.156-0.377-3.621-0.377l0,0c-4.73-0.06-11.242,1.629-13.256,3.261l0,0
			c-0.521,0.391-1.232,0.596-1.943,0.596l0,0C126.933,538.849,126.27,538.673,125.751,538.324L125.751,538.324z"/>
	</g>
	<ellipse style="fill:#000100;stroke:#000100;stroke-width:3;" cx="117.226" cy="80.206" rx="3.088" ry="3.093"/>
	<circle style="fill:#000100;stroke:#000100;stroke-width:3;" cx="78.415" cy="80.206" r="3.092"/>
	<g>
		<path style="fill:#000100;" d="M89.026,144.868c-26.04-7.24-32.657-28.007-34.393-33.176l0,0c-0.35-0.998-0.062-2.218,0.634-2.714
			l0,0c0.705-0.499,1.555-0.092,1.903,0.91l0,0c1.803,4.995,7.284,23.782,32.402,31.005l0,0c2.466,0.696,5.074,1.053,7.745,1.053
			l0,0c15.242,0,32.226-11.506,37.974-34.53l0,0c0.263-1.053,1.072-1.603,1.81-1.223l0,0c0.739,0.376,1.119,1.531,0.858,2.59l0,0
			c-6.339,25.106-24.503,37.213-40.642,37.213l0,0C94.475,145.995,91.683,145.619,89.026,144.868L89.026,144.868z"/>
	</g>
	<path style="fill:none;stroke:#000100;stroke-width:4.252;stroke-linecap:round;stroke-linejoin:round;" d="M47.519,237.027
		c0,0-11.748,57.283-13.445,70.91c-1.381,11.088-3.166,46.5-3.166,46.5"/>
	<path style="fill:none;stroke:#000100;stroke-width:4.252;stroke-linecap:round;stroke-linejoin:round;" d="M149.106,240.828
		c0,0,13.857,55.482,15.555,69.11c1.381,11.087,4.168,44.499,4.168,44.499"/>
	<path style="fill:#FF00FF;stroke:#000000;stroke-width:2.8347;stroke-linecap:round;stroke-linejoin:round;" d="M135.476,256.485
		c-2.246-10.178,0,0,8.453-9.361c15.539-11.425,14.516-17.067,15.539-22.039c-2.442-1.971-5.271-17.387-25.629-29.199
		c-5.163-2.996-18.746-9.725-28.895-11.799c-2.41,10.53-10.254,4.203-9.504-0.575c-4.428,2.13-29.537,10.479-37.352,16.143
		c-8.562,6.212-18.355,31.559-20.376,34.043c6.954,8.662,20.734,18.367,26.839,21.343c5.68-3.528,4.543-9.723,4.543-9.723
		c0.441,1.458-0.812,12.58-1.391,16.556c-4.709,32.382-10.592,138.872-11.463,141.314c2,0.418,97.764-0.137,101.223,0.711
		c0.338-2.908,0.168-5.723-0.096-8.569C154.238,361.523,142.136,286.658,135.476,256.485z"/>
	<path style="fill:#000100;" d="M176.042,49.243C160.781,28.219,134.366,8.199,98.894,8.199c-18.156,0-34.835,5.251-51.572,15.957
		c-45.86,29.331-44.35,84.077-33.885,110.727c13.098,33.359,50.519,44.154,50.519,44.154L50.389,151.75l-6.873-7.877
		c0.397-0.919-1.58-0.999-5.488-5.124c-1.403-1.481-1.215-3.292-2.983-5.238c-5.918-8.315-9.913-24.653-7.236-43.068
		c3.656-25.178,13.483-32.026,17.524-36.35c0,0-1.961,2.901-5.563,10.519c-2.448,5.175-3.947,12.5-3.947,12.5
		s31.576-17.04,60.442-19.253c17.611-1.35,32.35,0.295,41.777,2.855c2.537,0.688,29.925,24.868,22.982,60.26
		c-4.142,21.11-27.039,67.025-27.039,67.025s40.777-22.863,53.633-55.886C195.571,111.684,192.976,72.579,176.042,49.243z"/>
	<path style="fill:#1D1E1C;" d="M175.491,358.431c-0.158-0.383-0.506-1.023-0.906-1.511c-2.836-4.259-5.262-2.768-8.223-1.855
		c-3.791,1.171-6.951,7.616-7.117,7.927l-4.855,16.761c-0.416,0.759-0.139,1.711,0.621,2.126c0.758,0.417,1.713,0.14,2.127-0.617
		l4.596-16.287l0.918-0.395l1.391,30.148c-0.02,0.866,0.662,1.584,1.525,1.605c0.518,0.013,0.977-0.224,1.275-0.604
		c0.199-0.253,0.322-0.574,0.332-0.926l-1.166-31.229c0.004-0.197-0.041-0.39-0.106-0.571c0.393-0.22,0.764-0.413,1.098-0.567
		l3.377,36.224c0.084,0.861,0.848,1.492,1.709,1.411c0.447-0.042,0.832-0.267,1.086-0.594c0.238-0.302,0.367-0.697,0.328-1.115
		l-3.361-36.019c1.303,0.78,0.389-0.197,0.596,0.503l4.555,29.452c0.176,0.848,0.898,1.533,1.744,1.356
		c0.377-0.078,0.695-0.287,0.914-0.568c0.277-0.351,0.4-0.814,0.305-1.285l-4.609-27.963l0.701-0.275l5.51,20.071
		c0.303,0.738,0.572,0.918,1.311,0.617c0.24-0.101,0.439-0.257,0.59-0.447c0.307-0.394,0.402-0.941,0.199-1.439l-6.25-23.435
		c-0.033-0.065-0.053-0.127-0.084-0.193L175.491,358.431z"/>
	<path style="fill:#000100;" d="M177.366,74.63c14.358,36.819-18.121,103.179-18.121,103.179s29.832-31.814,29.825-57.493
		C189.061,85.659,157.846,24.574,177.366,74.63z"/>
	<path style="fill:#000100;" d="M43.371,188.258c0,0-31.21-71.512-8.727-136.407c5.303-15.3-27.266,23.88-27.266,49.561
		C7.379,140.955,43.371,188.258,43.371,188.258z"/>
</g>
</svg>
