<?xml version="1.0" standalone="no"?>
<!DOCTYPE svg PUBLIC "-//W3C//DTD SVG 1.0//EN" "http://www.w3.org/TR/2001/REC-SVG-20010904/DTD/svg10.dtd">
<svg xmlns="http://www.w3.org/2000/svg" xmlns:xlink="http://www.w3.org/1999/xlink" width="225px" height="146px" viewBox = "0 0 225 146">
<defs>
<linearGradient id="Gradient6_0" x1="-0.0577689" y1="0.924007" x2="1.05777" y2="0.0759934" >
	<stop offset="36.9917%" stop-color="rgb(100%,100%,100%)" stop-opacity="1"/>
	<stop offset="86.7152%" stop-color="rgb(91%,90.2%,91.6%)" stop-opacity="1"/>
	<stop offset="100%" stop-color="rgb(36.6%,36.6%,36.6%)" stop-opacity="1"/>
</linearGradient>
</defs>
<g transform="translate(0,146) scale(1,-1)">
	<g id="Layer 1" >
		<path id="" d="M216.3 108.6c-23.8-30.3-44.2-63.8-60.1-94.1c-1.33 2.18 0.035 6.85-0.75 9.75c-1.51 5.55-5.85 9.08-8.83 11.3c-2.93 1.83-7.91 3.3-12.5 3.89c-39.9 5.06-85.7 17.2-119 44.1c-0.002 0.097 0 0.182 0.004 0.251c41 15.4 73 34 102 56.9c20.8-11.9 46.1-15.4 70.4-15.1c7.53 0.106 14.8 1.4 22.2 1.73c2.74 0.125 5.29-0.326 7.12-2.33c3.91-4.28 3.07-11.1-0.482-16.4L216.3 108.6Z" fill="url(#Gradient6_0)"  />
		<path id="" d="M216.4 108.6c-5.73-7.34-11.3-14.8-16.6-22.5c-5.3-7.65-10.4-15.4-15.3-23.3c-4.94-7.89-9.68-15.9-14.3-24c-4.64-8.07-9.08-16.3-13.4-24.5L156.2 13.38L155.7 14.28c-0.623 1.09-0.657 2.21-0.689 3.26c-0.00999 1.05 0.063 2.08 0.104 3.09c0.039 1.01 0.062 2.01-0.082 2.95c-0.035 0.234-0.084 0.462-0.145 0.68c-0.07 0.246-0.141 0.493-0.218 0.716c-0.15 0.459-0.329 0.925-0.53 1.37c-0.797 1.8-1.95 3.44-3.31 4.9c-1.36 1.46-2.91 2.74-4.54 3.94L146.3 35.16c-2.43 1.49-5.26 2.4-8.09 3.1c-2.83 0.708-5.77 0.954-8.71 1.41c-5.86 0.847-11.7 1.83-17.5 2.98c-11.6 2.29-23.1 5.11-34.4 8.7c-11.3 3.57-22.4 7.82-33 13.1c-10.6 5.24-20.8 11.5-30.1 18.8L14.41 83.38L14.41 83.58c-0.001 0.092-0.001 0.186 0.003 0.286L14.42 84.14L14.69 84.24c18.3 6.96 36.1 15.1 53.2 24.6c17.1 9.51 33.4 20.4 48.8 32.5L117.1 141.5L117.5 141.3c8.65-4.96 18.1-8.44 27.8-10.8c9.71-2.38 19.7-3.65 29.7-4.21c5-0.254 10-0.375 15-0.227c5 0.191 9.99 0.823 15 1.22c1.25 0.103 2.51 0.183 3.76 0.249c1.25 0.078 2.53 0.114 3.79-0.101c1.25-0.204 2.49-0.669 3.49-1.47c1-0.801 1.77-1.85 2.34-2.98c1.13-2.29 1.3-4.94 0.859-7.42c-0.452-2.49-1.47-4.85-2.88-6.94ZM216.2 108.7c1.38 2.08 2.38 4.43 2.81 6.89c0.425 2.45 0.236 5.06-0.884 7.29c-0.563 1.1-1.32 2.12-2.29 2.89c-0.973 0.762-2.16 1.2-3.38 1.4c-1.23 0.202-2.48 0.16-3.73 0.075c-1.25-0.068-2.5-0.178-3.75-0.295c-4.99-0.474-9.97-1.18-15-1.45c-5.03-0.221-10.1-0.184-15.1-0.012c-10.1 0.366-20.1 1.53-29.9 3.85c-9.82 2.29-19.4 5.82-28.2 10.8L117.5 140.2c-7.72-6.06-15.7-11.8-23.8-17.3c-8.17-5.44-16.6-10.5-25.2-15.2c-8.6-4.73-17.4-9.12-26.3-13.1c-8.94-4.03-18-7.71-27.2-11.1L15.27 83.81L15.26 83.59L15.1 83.92c9.18-7.4 19.3-13.7 29.8-19c10.6-5.29 21.6-9.66 32.8-13.2c11.3-3.52 22.8-6.33 34.4-8.44c5.81-1.07 11.6-1.98 17.5-2.76c2.91-0.418 5.88-0.632 8.81-1.32c2.9-0.686 5.8-1.56 8.44-3.14L146.9 36.06L146.9 36.04c1.66-1.22 3.27-2.54 4.7-4.06c1.43-1.52 2.66-3.26 3.52-5.19c0.218-0.483 0.407-0.971 0.576-1.48c0.089-0.26 0.159-0.504 0.229-0.748c0.078-0.274 0.137-0.544 0.178-0.815c0.169-1.08 0.141-2.13 0.108-3.16c-0.038-1.03-0.103-2.04-0.089-3.03c0.021-0.972 0.112-1.97 0.534-2.67L155.7 14.85c4.33 8.26 8.88 16.4 13.6 24.5c4.69 8.06 9.59 16 14.6 23.8c5.05 7.83 10.3 15.6 15.7 23.1c5.37 7.61 10.9 15.1 16.7 22.4Z" fill="rgb(0%,0%,0%)"  />
		<path id="" d="M18.44 75.58L18.69 72.83L26.94 66.58L19.19 61.83L15.19 60.33c0 0-2-0.75-5.25-1.5c-1.16-0.269-4.25-3.25-4.25-3.25c0 0 24.8-6.22 33.2-7.76c35.5-6.49 70.1-26.4 70.1-26.4c0 0 24.3-12.9 35.7-12.5c8.62 0.285 11.7 4.17 12 9.17c0.229 3.43-3.35 15.7-12 18.9c-7.96 2.87-34.9 5.54-69.5 15.4c-29.5 8.39-57 28.5-57 28.5L18.44 75.58Z" fill="rgb(74.5%,74.5%,74.9%)"  />
		<path id="" d="M18.54 75.59L18.85 72.84L18.79 72.95L27.06 66.73c0.083-0.062 0.1-0.181 0.037-0.264c-0.014-0.019-0.034-0.036-0.053-0.047L19.32 61.62L19.29 61.61L19.28 61.6L15.81 60.09c-1.18-0.514-2.4-0.874-3.62-1.24c-0.611-0.178-1.23-0.344-1.84-0.501c-0.372-0.087-0.446-0.12-0.723-0.28c-0.24-0.141-0.486-0.314-0.727-0.495c-0.963-0.732-1.89-1.58-2.78-2.44L5.84 56.18L25.5 51.61c3.28-0.747 6.56-1.48 9.84-2.16c3.26-0.679 6.6-1.25 9.9-2.03c6.6-1.5 13.1-3.4 19.5-5.65c6.37-2.22 12.6-4.73 18.8-7.44c6.16-2.74 12.3-5.56 18.3-8.67c2.99-1.53 5.95-3.19 8.92-4.73c3-1.51 6.04-2.94 9.11-4.3c3.07-1.36 6.19-2.6 9.35-3.73c3.16-1.12 6.36-2.11 9.62-2.78c1.63-0.325 3.27-0.565 4.9-0.599c1.6-0.011 3.29 0.151 4.85 0.501c1.57 0.358 3.09 0.936 4.32 1.88c1.23 0.924 2.14 2.21 2.6 3.68c0.232 0.735 0.376 1.51 0.435 2.29c0.075 0.729-0.035 1.5-0.174 2.3c-0.296 1.58-0.787 3.15-1.39 4.67c-1.22 3.02-2.91 5.89-5.19 8.13c-1.14 1.11-2.43 2.05-3.85 2.7c-1.39 0.631-3.04 1.02-4.64 1.4c-3.24 0.737-6.55 1.33-9.86 1.93c-13.3 2.29-26.5 4.88-39.6 8.09c-6.56 1.59-13.1 3.36-19.5 5.4c-6.45 2.08-12.7 4.71-18.8 7.63c-6.08 2.93-12 6.14-17.8 9.6c-5.77 3.48-11.5 7.04-16.9 11L18.32 80.84L18.54 75.59ZM18.34 75.57L18.06 80.82c-0.004 0.072 0.052 0.134 0.124 0.138c0.03 0.002 0.062-0.009 0.085-0.025c11-7.71 22.8-14.3 35.1-19.7c6.14-2.7 12.4-5.09 18.8-7.05c3.19-0.967 6.46-1.8 9.7-2.65c3.25-0.819 6.5-1.67 9.77-2.45c6.53-1.57 13.1-2.99 19.7-4.3c6.59-1.3 13.2-2.52 19.8-3.76c3.31-0.631 6.62-1.25 9.94-2.03c1.66-0.417 3.31-0.805 4.99-1.57c1.64-0.767 3.1-1.85 4.35-3.1c2.51-2.51 4.26-5.6 5.5-8.82c0.614-1.62 1.11-3.28 1.4-5.01c0.137-0.86 0.258-1.77 0.153-2.72c-0.081-0.889-0.257-1.78-0.546-2.65c-0.564-1.73-1.71-3.32-3.2-4.38c-1.49-1.07-3.21-1.66-4.91-2.01c-1.73-0.337-3.42-0.463-5.18-0.41c-1.74 0.08-3.43 0.373-5.09 0.746c-6.64 1.55-12.9 4.2-19 6.93c-3.07 1.38-6.11 2.85-9.11 4.38c-1.51 0.753-2.96 1.63-4.44 2.42c-1.48 0.8-2.98 1.56-4.47 2.32c-6.01 3-12.1 5.86-18.3 8.39c-12.4 5.1-25.2 9.29-38.3 12.2c-1.63 0.36-3.28 0.696-4.92 1c-1.64 0.292-3.33 0.616-4.97 0.988c-3.3 0.728-6.57 1.51-9.85 2.3L15.31 52.43L5.541 54.98L5.523 54.98c-0.327 0.085-0.523 0.42-0.438 0.748c0.031 0.117 0.093 0.217 0.176 0.294c0.944 0.877 1.89 1.71 2.95 2.49c0.267 0.192 0.54 0.379 0.846 0.551c0.261 0.174 0.788 0.352 1.04 0.38c0.61 0.132 1.22 0.273 1.82 0.426c1.21 0.301 2.41 0.656 3.58 1.05L19.11 62.05L19.07 62.03L26.84 66.74L26.83 66.43L18.6 72.71c-0.036 0.026-0.057 0.069-0.061 0.109L18.34 75.57Z" fill="rgb(0%,0%,0%)"  />
		<path id="" d="M155.2 14.83c-6.55-9.83-21.5-3.52-31.5 0.417c-35.7 20.5-69.5 33.9-117 41c1.7 1.28 3.18 0.921 4.17 2.08c22.5-2.66 66.1-14 116-38.9c9.58-4.12 22.8-5.13 27.3 3.41c0.232 0.547 1.25-6.5 0.25-8ZM19.14 78.61c30.1-25.2 84.1-39.9 112-43.3c5.89-0.732 18.2-3.18 14.7-11.5c-2.7-3.53-5.63-3.73-8.92-2.99c-9.58 2.14-17.8 7.29-26.7 11.2c-31.2 13.7-69.2 25.1-93 27.8c2.99 1.66 6.56 3.5 10.1 6.04c-0.858-2.18-1.17-2.78-1.51-3.27c8.12-2.62 12.5-3.84 20.6-6.46c13.4-4.32 26.8-8.59 40.2-13.2c11.8-4.04 23.8-7.82 35.1-13.3c4.03-1.96 7.78-3.89 11.9-5.14c8.24-2.54 12.6 3.47 2.97 6.72c-5.06 1.71-10.3 2.16-15.3 3c-11.2 1.87-22.5 5.9-33.3 9.24c-11 3.39-21.9 7.11-32.7 11.2c-10.1 3.86-19.8 8.81-29.6 13.4c-2.91 2.14-2.74 3.04-5.65 5.18c-0.185 1.79-0.37 3.58-0.555 5.37L19.14 78.61Z" fill="rgb(91.8%,91.8%,91.8%)"  />
		<path id="" d="M77.91 102.6c-6.49-3.89-13.2-7.79-20.1-11.4c-7.15-3.73-14.6-7.2-22.2-10.6c3.86-2.62 7.81-5.19 12-7.69c7.19 3.8 14.2 7.62 21 11.7c6.64 3.98 13 8.17 19.2 12.3c-3.49 1.81-6.75 3.72-9.78 5.74L77.91 102.6Z" fill="rgb(58.4%,59.6%,60%)"  />
		<path id="" d="M93.18 94.42c-6.1-4.33-12.3-8.67-18.8-12.8c-6.57-4.21-13.4-8.22-20.4-12.2c1.57-0.755 3.16-1.49 4.74-2.23c6.86 4.11 13.5 8.25 20 12.6c6.37 4.27 12.5 8.71 18.5 13.1c-1.36 0.507-2.71 1.01-4.02 1.55L93.18 94.42Z" fill="rgb(58.4%,59.6%,60%)"  />
		<path id="" d="M103.6 90.72c-5.87-4.59-11.8-9.18-18-13.6c-6.26-4.49-12.8-8.82-19.4-13.1c1.71-0.664 3.46-1.29 5.2-1.92c6.45 4.43 12.8 8.87 18.9 13.5c6.05 4.55 11.9 9.24 17.7 13.9c-1.5 0.414-2.98 0.82-4.43 1.26L103.6 90.72Z" fill="rgb(58.4%,59.6%,60%)"  />
		<path id="" d="M126.9 85.43c-5.34-5.02-10.7-10.1-16.2-15c-5.56-4.99-11.2-9.88-17-14.8c1.94-0.425 3.9-0.85 5.83-1.26c5.59 4.99 11.1 9.97 16.5 15c5.36 5.04 10.6 10.2 15.8 15.3c-1.64 0.239-3.28 0.488-4.94 0.728L126.9 85.43Z" fill="rgb(58.4%,59.6%,60%)"  />
		<path id="" d="M114.9 87.73c-5.62-4.82-11.3-9.66-17.2-14.4c-5.93-4.75-12-9.38-18.2-14c1.83-0.544 3.7-1.07 5.57-1.59c6.03 4.72 12 9.46 17.8 14.3c5.74 4.82 11.3 9.74 16.8 14.7c-1.59 0.313-3.17 0.654-4.74 0.996L114.9 87.73Z" fill="rgb(58.4%,59.6%,60%)"  />
		<path id="" d="M139.4 83.76c-5.06-5.22-10.1-10.5-15.2-15.6c-5.17-5.19-10.4-10.3-15.7-15.5c1.99-0.351 3.98-0.692 5.96-1.03c5.13 5.24 10.2 10.5 15.2 15.8c4.98 5.25 9.89 10.6 14.8 15.9c-1.69 0.174-3.37 0.341-5.06 0.516L139.4 83.76Z" fill="rgb(58.4%,59.6%,60%)"  />
		<path id="" d="M187 120.6c-11.2-11.6-21.9-23.3-32.3-35.1c-10.4-11.8-20.8-23.6-31.3-35.3c1.99-0.305 3.97-0.609 5.96-0.904c10.2 12 20.2 24 30.4 35.9c10.2 12 20.8 23.7 32 35.5c-1.6-0.065-3.16-0.083-4.74-0.102L187 120.6Z" fill="rgb(58.4%,59.6%,60%)"  />
		<path id="" d="M198.9 121c-11.1-12-21.7-24-31.6-36.2c-9.86-12.2-19.4-24.5-29.1-36.8c1.96-0.305 3.82-0.683 5.61-1.19c9.36 12.6 18.7 25.3 28.4 37.7c9.76 12.5 20.3 24.7 31.5 36.9c-1.59-0.102-3.17-0.221-4.8-0.332L198.9 121Z" fill="rgb(58.4%,59.6%,60%)"  />
		<path id="" d="M210.2 121c-11.4-12.7-22-25.3-31.7-38.4c-9.59-12.9-18.6-26.2-27.6-39.4c1.34-1.08 2.59-2.3 3.49-3.98c8.5 13.2 17 26.4 26.2 39.3c9.29 13 19.6 25.5 30.8 38.1c0.405 2.56-0.194 3.76-1.15 4.46L210.2 121Z" fill="rgb(58.4%,59.6%,60%)"  />
		<path id="" d="M117.9 131.4c-5.01-4.11-10.2-8.28-15.7-12.3c-5.58-4.14-11.5-8.14-17.5-12.2c7.46-4.44 16.1-8.61 26-11.4c10.5-2.96 21.7-4.54 33.3-5.97c5.01 5.23 10 10.4 15.1 15.6c5.07 5.21 10.2 10.4 15.4 15.6c-10.9 0.553-21.4 1.26-31.5 2.98c-9.54 1.63-18.1 4.42-25.1 7.71L117.9 131.4Z" fill="rgb(58.4%,59.6%,60%)"  />
		<path id="" d="M26.69 67.08L21.69 63.58c0 0 13.5-3.5 27-8c13.5-4.5 73.9-25.8 84.6-31.1c7.93-3.93 14.9 7.07-1.57 7.57c-11.2 0.339-82 24-91.5 28c-9.5 4-13.5 7-13.5 7Z" fill="rgb(0%,0%,0%)"  />
	</g>
</g>
</svg>
