<?xml version="1.0" encoding="iso-8859-1"?>
<!-- Generator: Adobe Illustrator 16.0.0, SVG Export Plug-In . SVG Version: 6.00 Build 0)  -->
<!DOCTYPE svg PUBLIC "-//W3C//DTD SVG 1.1//EN" "http://www.w3.org/Graphics/SVG/1.1/DTD/svg11.dtd">
<svg version="1.1" id="Layer_3" xmlns="http://www.w3.org/2000/svg" xmlns:xlink="http://www.w3.org/1999/xlink" x="0px" y="0px"
	 width="361px" height="775.701px" viewBox="0 0 361 775.701" style="enable-background:new 0 0 361 775.701;" xml:space="preserve"
	>
<path style="fill:#D1D1D1;stroke:#231F20;stroke-width:2;stroke-miterlimit:10;" d="M313.225,30.465
	c-20.975,23.138-62.367,72.58-95.576,127.594l0,0c-48.209,79.852-99.834,189.849-133.194,308.621l0,0
	C54.178,574.495,48.861,610.628,39.918,664.504l0,0c-5.254,31.641-6.741,51.351-6.658,63.542l0,0
	c0.05,11.265,1.514,16.092,2.405,17.954l0,0c6.098-7.401,13.946-29.371,17.868-67.108l0,0
	c4.278-40.398,58.033-324.065,152.546-489.343l0,0C270.457,76.997,293.381,55.343,313.307,30.84l0,0
	c1.335-1.642,2.541-3.123,3.631-4.462l0,0C315.77,27.661,314.525,29.029,313.225,30.465L313.225,30.465z"/>
<rect x="317.056" y="25.373" width="0.002" height="0"/>
<g>
	<path style="fill:#FFFFFF;" d="M32.812,469.611c0.044-0.141,0.081-0.273,0.127-0.416C32.939,469.195,32.889,469.341,32.812,469.611
		z M42.001,606.62c0,6.027,0.8,13.003,1.9,18.517c1.164-6.559,2.383-13.195,3.724-20.105c-1.195-4.104-2.549-9.472-4.365-16.282
		C45.273,597.811,42.001,596.301,42.001,606.62z M339.414,89.951c4.833-14.014,7.248-29.96,1.933-35.276
		s-17.235-19.812-17.235-24.645c0-4.056-3.053-6.664-4.642-7.295c-0.496-2.278-7.173-5.011-15.953-6.108
		c-10.068-1.258-19.634-2.013-29.198,0c-9.565,2.013-21.144,8.306-25.675,12.837c-4.53,4.531-11.578,8.306-16.613,16.109
		c-5.034,7.802-9.311,13.593-16.358,18.375c-7.049,4.783-16.738,22.276-23.912,29.45c-7.175,7.173-9.247,10.724-9.564,19.38
		c-0.562,15.345,10.115,39.367,15.068,62.563c-2.285-9.22-5.953-19.179-9.53-27.576c-5.788-13.593-7.426-25.675-7.426-38.133
		c-3.397,3.397-18.752,21.772-22.024,27.31c-3.272,5.538-13.844,22.905-16.613,30.206c-2.769,7.3-10.696,19.003-14.85,23.157
		c-4.154,4.153-7.048,9.565-7.048,16.109c0,6.544-6.292,25.675-11.578,30.961c-5.286,5.285-5.161,19.002-11.58,25.421
		c-6.418,6.418-7.046,10.067-11.073,27.435c-4.028,17.368-8.055,10.068-12.334,23.912c-7.371,23.848,9.483,67.912,25.155,98.182
		c31.683-95.422,73.286-182.258,112.479-248.188c32.202-54.159,72.118-102.642,92.385-125.381
		c6.661-7.458,11.534-12.942,13.587-14.467c0.355-0.214,0.523-0.46,1.307-0.524c0.288-0.011,0.713,0.115,1.011,0.42
		c0.319,0.31,0.514,0.824,0.5,1.251c-0.033,0.817-0.349,1.333-0.796,2.099c-0.461,0.749-1.134,1.685-2.085,2.936
		c-1.904,2.497-4.928,6.25-9.513,11.981c-19.282,24.117-40.986,44.854-103.182,155.19
		c-54.663,96.951-95.694,236.384-120.667,340.782c12.814-5.392,34.805-15.351,42.762-19.046c7.732-3.59-29.981,14.043-43.143,20.642
		c-0.318,1.339-0.635,2.672-0.949,3.999c8.538-4.012,25.019-11.575,27.501-12.883c2.468-1.299-18.435,10.273-27.957,14.812
		c-0.188,0.796-0.377,1.598-0.563,2.391c6.111-3.008,14.406-7.117,16.601-8.02c2.17-0.895-10.1,5.664-16.908,9.333
		c-4.404,18.824-8.258,36.363-11.541,52.105c6.6,0.758,14.042,2.457,23.134-10.217c10.631-14.818,24.966-18.524,31.571-25.128
		c6.604-6.604,11.929-21.261,21.262-27.383c54.837-35.973,37.476-44.18,59.571-70.064c-26.233,22.412-49.557,33.775-112.37,55.556
		c0,0,83.859-39.353,95.642-48.296c26.2-19.887,20.267-44.759,36.302-67.235c-9.665,3.222-19.498,27.565-30.935,30.304
		c-11.437,2.739-29.788,8.518-22.54,5.136c7.249-3.383,5.74-1.4,14.277-9.938s17.558-11.114,19.974-19.975
		c2.416-8.858,9.665-26.577,16.752-33.664c7.088-7.087,30.282-23.678,34.954-38.658c0,0-18.686,10.954-37.692,12.725
		c-19.007,1.772-41.558,5.96-55.411,14.819c18.524-12.403,30.444-17.879,41.236-22.39c10.792-4.509,25.369-15.06,32.698-22.39
		c7.329-7.329,16.43-20.295,17.719-23.839s12.886-32.699,12.886-44.779c0,0-25.61,31.248-45.906,41.396
		c20.457-17.235,51.704-46.067,57.665-56.215c5.959-10.148,14.335-27.383,18.201-33.182c-28.35,23.678-74.9,44.94-83.599,47.839
		c0,0,78.767-40.913,92.78-62.336c-24.161,15.141-61.531,31.731-72.323,35.759c43.49-21.101,64.833-39.061,71.679-45.907
		c6.846-6.846,15.624-12.725,18.363-15.463c-18.363,8.537-32.055,19.006-43.812,23.194c21.423-14.658,31.57-23.034,35.275-31.249
		c3.704-8.215,6.604-20.457,8.537-24c-6.122,4.51-16.914,14.657-25.129,17.234c0,0,25.129-19.49,30.283-30.604
		c5.154-11.115,5.154-15.786,6.604-19.169c-10.31,6.443-23.035,12.242-30.122,13.047
		C322.179,109.119,334.582,103.964,339.414,89.951z M97.809,413.98c-28.083-32.637-27.621-94.049-27.621-94.049
		c-9.062,19.885-1.636,32.345-13.592,59.657c-9.545,21.802-3.397,61.04-5.789,58.648c-2.391-2.391-1.761-23.913-1.761-36.246
		c-3.776,15.354-4.529,50.593,0.505,88.601c-7.299-10.572-7.047-69.222-7.047-69.222c-6.293,27.688-3.273,58.9-3.273,70.228
		c0,10.437,12.179,29.63,23.544,45.971c4.904-19.579,10.955-42.354,18.643-69.866C86.489,449.555,91.979,431.624,97.809,413.98z
		 M38.477,499.147c-9.576-13.646-6.381-27.044-5.665-29.536c-6.796,21.57,2.12,28.902-1.131,47.408
		c-3.272,18.627,13.341,37.748,18.626,43.033c2.34,2.34,3.445,7.589,3.952,13.279c2.279-10.172,4.893-21.228,7.965-33.559
		C52.576,532.541,47.528,512.046,38.477,499.147z"/>
	<g>
		<path style="fill:#231F20;" d="M32.669,469.565c0.012-0.015-0.055-0.056-0.208-0.123l-0.528-0.226
			c-0.171-0.073-0.309-0.137-0.341-0.166c-0.039-0.031-0.004-0.039,0.091-0.027c0.196,0.024,0.666,0.136,0.763,0.129
			c0.113-0.002-0.031-0.086-0.289-0.206l1.559,0.518l0.348,0.169c0.102,0.051,0.138,0.079,0.189,0.111
			c0.101,0.064,0.205,0.128,0.149,0.141c-0.029,0.006-0.073,0.008-0.155-0.002c-0.087-0.012-0.255-0.047-0.459-0.092l-0.568-0.117
			c-0.167-0.03-0.25-0.036-0.265-0.021L32.669,469.565z M32.668,469.57c-0.004-0.021-0.076-0.061-0.233-0.126l-0.537-0.221
			c-0.194-0.079-0.351-0.149-0.428-0.195c-0.071-0.045-0.104-0.077-0.123-0.106c-0.034-0.057,0.092-0.062,0.213-0.067
			c0.062-0.002,0.109-0.009,0.222,0.007c0.094,0.01,0.254,0.043,0.38,0.065l1.559,0.518c-0.278-0.051-0.444-0.065-0.353,0.002
			c0.076,0.062,0.525,0.243,0.699,0.337c0.085,0.047,0.109,0.073,0.06,0.076c-0.043,0.006-0.192-0.022-0.374-0.062l-0.56-0.122
			c-0.164-0.032-0.241-0.038-0.239-0.019L32.668,469.57z"/>
		<path style="fill:#231F20;" d="M42.151,606.618c0.042,1.553,0.164,3.101,0.38,4.648c0.275,1.535,0.644,3.052,0.953,4.556
			c0.17,0.754,0.373,1.506,0.528,2.26c0.158,0.754,0.299,1.509,0.417,2.267c0.132,0.755,0.283,1.505,0.394,2.263
			c0.126,0.755,0.196,1.521,0.296,2.282l-2.441,0.026c0.426-1.657,0.92-3.301,1.401-4.946c0.464-1.648,0.907-3.3,1.234-4.974
			c0.327-1.673,0.594-3.356,0.805-5.052s0.354-3.403,0.524-5.107l0.021,0.47c-0.484-1.323-0.956-2.651-1.377-3.994l-1.253-4.033
			c-0.82-2.693-1.647-5.387-2.314-8.123l3.097-0.757c0.129,0.783,0.251,1.568,0.359,2.353c0.053,0.394,0.129,0.775,0.12,1.199
			l0.012,1.237c-0.004,0.41,0.012,0.818-0.09,1.242l-0.229,1.243c-0.076,0.41-0.246,0.781-0.374,1.167
			c-0.136,0.387-0.273,0.761-0.426,1.1c-0.315,0.702-0.607,1.39-0.854,2.081c-0.121,0.349-0.287,0.691-0.373,1.051l-0.27,1.083
			c-0.094,0.362-0.179,0.728-0.257,1.095c-0.056,0.37-0.083,0.744-0.124,1.117C42.239,605.118,42.19,605.867,42.151,606.618z
			 M41.852,606.622c0.022-0.757,0.036-1.517,0.025-2.277l-0.025-1.144c0.024-0.381,0.041-0.763,0.049-1.148l0.037-1.16
			c-0.002-0.392,0.066-0.772,0.097-1.162c0.071-0.785,0.165-1.556,0.28-2.302c0.066-0.384,0.103-0.743,0.133-1.093
			c0.021-0.353,0.092-0.705,0.091-1.046l-0.016-1.011c0.016-0.327-0.032-0.673-0.085-1.016l-0.12-1.022
			c-0.014-0.334-0.107-0.69-0.182-1.041c-0.156-0.701-0.298-1.403-0.434-2.105l3.097-0.757c0.788,2.691,1.416,5.426,2.051,8.159
			l0.929,4.108c0.307,1.37,0.562,2.756,0.806,4.146l0.059,0.336l-0.037,0.135c-0.45,1.647-0.928,3.289-1.338,4.945
			c-0.41,1.655-0.764,3.322-1.057,5.001c-0.293,1.678-0.471,3.377-0.627,5.079c-0.14,1.705-0.266,3.412-0.461,5.106l-0.812,7.061
			l-1.629-7.034c-0.355-1.533-0.687-3.078-0.888-4.64c-0.161-1.566-0.228-3.143-0.226-4.72c0.054-1.592,0.166-3.171,0.187-4.731
			C41.877,609.731,41.905,608.175,41.852,606.622z"/>
		<path style="fill:#231F20;" d="M339.271,89.903c0.501-1.503,0.999-3.006,1.442-4.522c0.446-1.516,0.88-3.039,1.248-4.576
			c0.392-1.532,0.722-3.08,1.032-4.629l0.42-2.333l0.344-2.345l0.251-2.356l0.146-2.363l0.016-2.365
			c-0.058-0.785-0.063-1.575-0.163-2.355c-0.114-0.777-0.177-1.565-0.39-2.321c-0.098-0.378-0.16-0.769-0.287-1.138l-0.401-1.1
			c-0.107-0.38-0.348-0.694-0.518-1.043l-0.278-0.512c-0.104-0.163-0.239-0.303-0.356-0.456c-0.46-0.612-1.031-1.176-1.584-1.741
			c-2.185-2.31-4.253-4.712-6.258-7.171c-1.999-2.462-3.929-4.983-5.72-7.606c-0.892-1.314-1.749-2.654-2.519-4.05
			c-0.382-0.699-0.751-1.406-1.057-2.149c-0.178-0.358-0.297-0.746-0.417-1.133c-0.06-0.193-0.129-0.383-0.18-0.58l-0.083-0.616
			c-0.062-0.422-0.086-0.768-0.126-1.181l-0.055-0.591c-0.028-0.193-0.099-0.369-0.146-0.554c-0.167-0.738-0.503-1.447-0.89-2.111
			c-0.803-1.309-1.98-2.439-3.354-3.074l-0.104-0.048l-0.024-0.103c-0.13-0.549-0.605-1.013-1.087-1.397
			c-0.483-0.398-1.043-0.715-1.603-1.018c-1.135-0.591-2.34-1.053-3.561-1.46c-2.446-0.811-4.979-1.358-7.526-1.769
			c-5.118-0.711-10.284-1.265-15.448-1.448c-5.164-0.173-10.357,0.099-15.416,1.138c-5.071,1.061-9.878,2.994-14.5,5.311
			c-1.154,0.578-2.27,1.231-3.406,1.843c-1.116,0.646-2.192,1.36-3.29,2.037l-1.564,1.133c-0.516,0.384-1.059,0.737-1.521,1.181
			l-1.441,1.27l-1.434,1.326c-3.903,3.463-8.233,6.361-11.645,10.246c-0.842,0.973-1.716,1.92-2.425,2.995l-1.125,1.568
			l-1.065,1.626c-1.409,2.174-2.915,4.304-4.476,6.384c-3.17,4.117-6.961,7.843-11.258,10.749c-2.062,1.551-3.746,3.471-5.409,5.458
			c-1.637,1.996-3.172,4.08-4.695,6.172c-3.032,4.197-5.948,8.487-9.116,12.614c-3.075,4.233-7.241,7.538-10.139,11.737
			c-1.418,2.12-2.414,4.473-2.924,6.967c-0.192,1.261-0.417,2.515-0.457,3.804c-0.029,0.634-0.113,1.293-0.099,1.906l0.019,1.944
			c0.013,1.296,0.188,2.55,0.279,3.828c0.195,1.272,0.342,2.551,0.577,3.818c0.46,2.537,1.018,5.058,1.651,7.563
			c1.264,5.012,2.758,9.971,4.272,14.926c3.04,9.906,6.171,19.818,8.397,29.989l-1.129,0.26l-1.147-4.095
			c-0.396-1.361-0.728-2.74-1.204-4.079l-1.341-4.04c-0.428-1.353-0.916-2.686-1.423-4.012l-1.492-3.989
			c-0.494-1.331-1.067-2.631-1.597-3.948l-1.618-3.961l-1.574-3.97c-0.498-1.339-0.922-2.723-1.385-4.083
			c-0.49-1.357-0.812-2.754-1.199-4.136l-0.558-2.079l-0.445-2.105c-0.299-1.403-0.612-2.805-0.803-4.227
			c-0.201-1.42-0.487-2.83-0.603-4.26c-0.134-1.427-0.334-2.85-0.413-4.28c-0.078-1.431-0.186-2.861-0.239-4.292l-0.085-4.294
			l1.25,0.518l-1.764,1.907l-1.727,1.981c-1.16,1.311-2.272,2.672-3.411,4.006c-2.252,2.692-4.479,5.408-6.667,8.152
			c-2.189,2.742-4.334,5.518-6.386,8.342c-1.979,2.787-3.687,5.916-5.496,8.919c-3.553,6.059-7.099,12.135-10.265,18.365
			l-1.166,2.342c-0.365,0.786-0.688,1.581-1.035,2.37l-1.048,2.437c-0.343,0.808-0.682,1.617-1.115,2.417l-1.233,2.402l-1.324,2.312
			c-0.873,1.548-1.853,3.025-2.792,4.529c-1.961,2.956-4.004,5.852-6.31,8.6l-1.794,1.979c-0.578,0.649-1.241,1.288-1.71,1.95
			l-0.767,0.983c-0.242,0.342-0.461,0.706-0.693,1.057c-0.489,0.692-0.854,1.451-1.244,2.196c-0.412,0.736-0.646,1.548-0.981,2.317
			c-0.246,0.799-0.481,1.606-0.673,2.42c-0.109,0.831-0.329,1.646-0.354,2.486l-0.134,2.594c-0.01,0.43-0.056,0.887-0.122,1.359
			c-0.062,0.46-0.105,0.944-0.194,1.377c-0.154,0.888-0.316,1.773-0.521,2.642c-0.379,1.749-0.854,3.463-1.347,5.172
			c-1.007,3.41-2.195,6.76-3.583,10.042c-0.706,1.637-1.435,3.267-2.292,4.852c-0.829,1.595-1.776,3.149-2.966,4.617l-0.872,1.007
			c-0.272,0.333-0.6,0.672-0.826,1l-0.615,0.959l-0.567,1.1c-0.71,1.509-1.286,3.124-1.797,4.781
			c-1.04,3.314-1.865,6.763-3.194,10.135c-0.638,1.689-1.448,3.354-2.479,4.915c-0.273,0.382-0.521,0.78-0.817,1.148l-0.942,1.074
			l-1.775,1.919c-0.646,0.637-1.062,1.308-1.585,1.959c-0.538,0.627-0.927,1.371-1.35,2.087c-0.199,0.366-0.447,0.703-0.609,1.092
			l-0.501,1.159l-0.504,1.158l-0.405,1.219c-1.117,3.231-1.872,6.674-2.701,10.073c-0.815,3.405-1.521,6.866-2.509,10.298
			c-0.268,0.869-0.511,1.747-0.852,2.594l-0.484,1.279l-0.578,1.261c-0.798,1.666-1.912,3.29-3.208,4.606
			c-1.299,1.318-2.443,2.414-3.318,3.8c-0.91,1.348-1.548,2.923-2.162,4.5c-0.26,0.799-0.577,1.644-0.791,2.406
			c-0.208,0.84-0.505,1.717-0.639,2.527c-0.346,1.623-0.606,3.331-0.754,5.038c-0.314,3.419-0.283,6.884-0.042,10.339
			c0.5,6.917,1.833,13.789,3.529,20.556c1.715,6.769,3.837,13.443,6.211,20.027c4.772,13.162,10.514,25.985,16.948,38.431
			l-2.4,0.188l9.213-26.524c2.955-8.884,6.423-17.58,9.737-26.333c3.351-8.739,6.584-17.524,10.262-26.132
			c3.596-8.641,7.104-17.319,10.772-25.928l11.41-25.654c1.855-4.297,3.905-8.505,5.915-12.73l6.037-12.674l3.018-6.337
			c1-2.116,2.005-4.228,3.086-6.304l6.361-12.515l6.361-12.515c2.149-4.157,4.435-8.242,6.646-12.367
			c4.487-8.213,8.805-16.521,13.586-24.572l7.027-12.155c1.182-2.03,2.318-4.042,3.538-6.087l3.701-5.956l7.403-11.912
			c1.202-2.002,2.561-3.92,3.844-5.878l3.901-5.847l3.9-5.847c1.294-1.954,2.595-3.902,3.968-5.797l8.117-11.459
			c2.667-3.848,5.489-7.582,8.288-11.333c2.811-3.743,5.569-7.524,8.421-11.235c5.767-7.373,11.463-14.801,17.429-22.015
			l4.428-5.447c1.485-1.808,3.013-3.582,4.517-5.375c3.027-3.57,6.01-7.176,9.125-10.672c3.08-3.524,6.168-7.049,9.305-10.511
			l4.732-5.196l2.447-2.552c0.791-0.859,1.782-1.65,2.668-2.473l0.071-0.048l0.187-0.125l0.322-0.2
			c0.248-0.115,0.549-0.237,0.777-0.257l0.367-0.058c0.33-0.013,0.172,0.002,0.281,0.002l0.152,0.015
			c0.174,0.033,0.364,0.078,0.52,0.138c0.135,0.062,0.269,0.129,0.398,0.202c0.124,0.091,0.246,0.189,0.362,0.291
			c0.169,0.171,0.098,0.11,0.158,0.177l0.088,0.109c0.109,0.134,0.355,0.558,0.403,0.784c0.092,0.254,0.125,0.547,0.133,0.844
			c-0.019,0.235-0.016,0.145-0.025,0.233l-0.019,0.139l-0.037,0.278c-0.062,0.243-0.149,0.518-0.239,0.758l-0.29,0.58l-0.29,0.503
			c-0.091,0.15-0.072,0.107-0.113,0.17l-0.081,0.114l-0.163,0.228l-1.303,1.827l-0.325,0.457l-0.195,0.271l-0.175,0.219
			l-0.699,0.877l-1.397,1.754l-2.797,3.509c-1.878,2.338-3.697,4.683-5.624,7.015l-5.695,6.935l-5.71,6.922l-2.856,3.46l-2.78,3.513
			l-5.555,7.031c-1.859,2.338-3.571,4.788-5.364,7.177l-5.322,7.209c-0.903,1.19-1.748,2.422-2.59,3.658l-2.537,3.695l-5.074,7.39
			c-1.67,2.478-3.436,4.891-5.014,7.431l-9.694,15.09c-1.606,2.521-3.254,5.016-4.825,7.56l-4.651,7.67l-9.3,15.342
			c-1.533,2.567-3.129,5.097-4.61,7.695l-4.481,7.773l-8.961,15.545l-4.48,7.772c-1.503,2.596-2.995,5.164-4.394,7.812
			l-8.539,15.786l-8.025,16.03c-1.368,2.656-2.619,5.372-3.877,8.084l-3.786,8.13c-1.252,2.714-2.546,5.41-3.764,8.14l-3.581,8.224
			l-3.581,8.224l-1.779,4.116l-1.698,4.151l-6.79,16.605c-4.292,11.164-8.695,22.286-12.707,33.556
			c-4.18,11.208-7.963,22.558-11.875,33.862c-3.721,11.369-7.513,22.714-11.017,34.152c-1.79,5.707-3.586,11.412-5.27,17.151
			l-5.118,17.197l-4.936,17.252c-1.652,5.748-3.184,11.53-4.781,17.294c-1.604,5.763-3.135,11.545-4.647,17.331
			c-1.517,5.786-3.071,11.562-4.513,17.367l-4.379,17.401l-4.241,17.435l-0.767-0.65l22.109-9.886l11.054-4.943l5.527-2.471
			l2.764-1.236l1.381-0.619l0.688-0.32l0.176-0.08l0.056-0.025c-0.073-0.274,1.127,2.11,0.54,1.147l-0.032,0.016l-0.09,0.043
			l-0.344,0.164l-21.887,10.391c-7.282,3.485-14.575,6.962-21.788,10.565l0.37-0.467l-0.943,4l-0.994-0.808l14.114-6.637
			l7.057-3.317l3.528-1.659l1.764-0.829l0.882-0.415l0.224-0.111l0.07-0.036l0.081-0.036c0.247-0.392,1.122,2.559,0.704,1.329
			l-0.036,0.023l-0.135,0.081l-0.433,0.246c-4.556,2.545-9.127,5.026-13.721,7.488c-4.599,2.449-9.195,4.892-13.909,7.169
			l0.435-0.539l-0.559,2.39l-1.14-0.906l8.638-4.188l4.32-2.093l2.16-1.047l1.08-0.523c0.187-0.086,0.344-0.176,0.556-0.26
			l0.116-0.041l0.081-0.024c0.03-0.01,0.156-0.036,0.254-0.035c0.202-0.033,0.656,0.187,0.762,0.492
			c0.112,0.3,0.072,0.32,0.059,0.507c-0.028,0.15-0.104,0.294-0.187,0.39l-0.04,0.044c-0.036,0.038-0.105,0.098-0.112,0.101
			l-0.104,0.076l-0.292,0.188c-1.416,0.844-2.801,1.591-4.206,2.367l-4.207,2.29l-8.421,4.55l0.429-0.561l-11.465,52.101
			l-0.806-1.116c2.052,0.238,4.041,0.514,6,0.501c1.956-0.002,3.875-0.315,5.665-1.028c1.796-0.695,3.437-1.786,4.936-3.05
			c1.523-1.242,2.845-2.746,4.119-4.279l1.844-2.425c0.628-0.811,1.228-1.629,1.88-2.434l2.075-2.377l2.193-2.228
			c3.008-2.887,6.351-5.396,9.816-7.646c3.457-2.268,7.072-4.248,10.464-6.423c1.673-1.106,3.34-2.233,4.708-3.597
			c1.415-1.406,2.585-2.95,3.748-4.6c2.28-3.323,4.325-6.869,6.559-10.335c2.22-3.468,4.644-6.89,7.671-9.863
			c1.524-1.462,3.315-2.762,4.985-3.863l5.072-3.457c3.435-2.252,6.613-4.76,9.907-7.15c1.644-1.196,3.172-2.541,4.763-3.805
			l2.365-1.923c0.782-0.648,1.507-1.356,2.264-2.031c3.042-2.683,5.903-5.552,8.537-8.598c1.271-1.56,2.614-3.066,3.703-4.754
			c0.562-0.831,1.176-1.628,1.695-2.485l1.521-2.596c1.943-3.517,3.537-7.227,5.138-11.013c1.647-3.767,3.389-7.557,5.582-11.104
			c0.497-0.917,1.106-1.761,1.689-2.622l1.759-2.578l3.86-4.884l1.693,1.692l-6.152,5l-3.077,2.5
			c-1.018,0.843-2.135,1.561-3.198,2.348l-6.454,4.62c-1.054,0.805-2.213,1.449-3.33,2.157l-3.377,2.087l-3.377,2.087l-1.688,1.044
			l-1.75,0.933l-7.003,3.724c-1.17,0.614-2.329,1.253-3.508,1.849L159,499.89l-7.187,3.326c-2.379,1.152-4.827,2.128-7.264,3.133
			l-7.311,3.016l-3.655,1.508c-1.224,0.489-2.461,0.938-3.69,1.409l-7.389,2.793l-7.389,2.794l-7.434,2.656l-14.877,5.283
			l-1.024-2.519c13.923-6.567,27.813-13.225,41.65-19.975c6.917-3.378,13.822-6.781,20.696-10.239
			c3.437-1.729,6.871-3.463,10.284-5.231c3.428-1.745,6.814-3.557,10.205-5.359l5.039-2.771c1.639-0.964,3.308-1.913,4.907-2.905
			l2.311-1.545l0.145-0.097l0.072-0.048l0.036-0.024c0.023-0.016-0.073,0.06-0.016,0.014l0.277-0.231l0.555-0.462l1.109-0.925
			l2.22-1.849c0.737-0.617,1.327-1.308,2-1.957l1.963-1.972c0.617-0.699,1.195-1.443,1.796-2.161
			c0.581-0.735,1.223-1.425,1.756-2.195l1.579-2.329l0.79-1.163c0.253-0.396,0.466-0.815,0.7-1.223l1.38-2.457
			c0.473-0.812,0.818-1.697,1.234-2.541c0.387-0.86,0.829-1.692,1.171-2.576c1.434-3.504,2.71-7.081,3.833-10.751
			c1.153-3.65,2.245-7.357,3.469-11.043c0.636-1.84,1.23-3.688,1.974-5.503c0.359-0.909,0.695-1.826,1.076-2.729l1.22-2.68
			l0.611-1.34c0.212-0.443,0.462-0.869,0.691-1.304l1.408-2.597c0.975-1.712,2.122-3.325,3.177-4.99l1.67,2.26
			c-1.676,0.589-3.29,1.861-4.758,3.287c-1.476,1.437-2.838,3.063-4.166,4.727c-2.651,3.342-5.142,6.887-7.828,10.34
			c-2.705,3.431-5.514,6.903-9.3,9.627c-0.954,0.666-1.974,1.281-3.103,1.743c-0.552,0.253-1.148,0.427-1.745,0.599l-1.582,0.395
			c-2.085,0.52-4.169,1.071-6.253,1.634c-4.174,1.122-8.325,2.308-12.551,3.406c-1.074,0.27-2.098,0.541-3.296,0.753
			c-0.153,0.026-0.322,0.05-0.519,0.068c-0.119,0.007-0.21,0.019-0.416,0.009c-0.046,0.004-0.3-0.027-0.46-0.077
			c-0.232-0.074-0.495-0.215-0.706-0.437c-0.461-0.426-0.475-1.321-0.377-1.448c0.08-0.33,0.275-0.596,0.29-0.604
			c0.06-0.077,0.126-0.151,0.196-0.22c0.074-0.068,0.14-0.122,0.213-0.18c0.098-0.07,0.205-0.146,0.278-0.188
			c0.166-0.104,0.302-0.179,0.44-0.252c0.274-0.147,0.531-0.272,0.789-0.396l0.772-0.353c1.91-0.918,4.162-1.699,5.757-2.603
			c1.604-0.946,3.13-2.497,4.675-3.944l2.295-2.269l0.573-0.568l0.61-0.586l1.183-1.122c3.333-3.049,6.97-5.518,10.35-8.09
			c1.674-1.293,3.259-2.634,4.548-4.149c1.293-1.511,2.259-3.209,2.802-5.081c0.59-2.021,1.267-4.215,1.99-6.261
			c0.742-2.063,1.508-4.115,2.349-6.137c1.656-4.053,3.511-8.027,5.629-11.892c1.055-1.935,2.201-3.83,3.465-5.673
			c1.231-1.844,2.709-3.632,4.346-5.228c3.205-3.043,6.566-5.79,9.809-8.626c3.257-2.827,6.457-5.698,9.516-8.693
			c3.053-2.996,5.987-6.104,8.592-9.431c2.576-3.327,4.853-6.917,6.096-10.75l2.318,1.843c-1.846,1.052-3.661,1.98-5.525,2.894
			c-1.855,0.908-3.736,1.76-5.636,2.572c-1.898,0.812-3.819,1.575-5.76,2.289c-1.942,0.708-3.898,1.382-5.886,1.972
			c-0.985,0.317-1.985,0.592-2.989,0.854c-1.001,0.271-2.002,0.543-3.021,0.755c-2.02,0.488-4.074,0.842-6.132,1.176l-3.111,0.38
			l-3.038,0.31c-2.026,0.217-4.018,0.431-6.031,0.703c-8.035,1.026-16.016,2.479-23.809,4.546c-1.939,0.542-3.883,1.079-5.788,1.716
			c-0.96,0.299-1.912,0.617-2.851,0.969c-0.941,0.346-1.896,0.661-2.815,1.054c-1.867,0.725-3.686,1.546-5.482,2.406l-2.641,1.379
			l-2.547,1.517l-1.713-2.618l8.665-5.504l4.339-2.741l4.482-2.519c3.004-1.65,5.93-3.445,9.052-4.88
			c3.092-1.48,6.125-3.105,9.291-4.406l4.708-2.05c1.471-0.629,3.066-1.411,4.593-2.109c1.514-0.742,2.92-1.572,4.386-2.351
			c1.445-0.823,2.871-1.736,4.308-2.6c2.832-1.812,5.618-3.706,8.324-5.711c2.707-2,5.343-4.097,7.873-6.294
			c1.284-1.082,2.447-2.265,3.678-3.392c1.089-1.181,2.369-2.445,3.426-3.696c1.078-1.267,2.181-2.496,3.218-3.834
			c1.06-1.308,2.104-2.627,3.102-3.986c2.039-2.68,3.956-5.461,5.732-8.272c0.409-0.705,0.861-1.422,1.237-2.116
			c0.31-0.689,0.671-1.298,0.954-2.149l1.806-4.779c2.374-6.356,4.635-12.754,6.609-19.219c0.988-3.231,1.908-6.481,2.654-9.748
			c0.739-3.25,1.414-6.578,1.448-9.741l2.703,0.966c-1.679,2.027-3.379,3.98-5.11,5.93c-1.729,1.947-3.479,3.874-5.262,5.77
			c-1.771,1.908-3.588,3.773-5.409,5.634c-1.84,1.845-3.688,3.681-5.589,5.467c-0.935,0.909-1.897,1.789-2.867,2.663
			c-0.974,0.869-1.912,1.775-2.916,2.614l-2.978,2.552c-1.008,0.833-2.044,1.638-3.064,2.458c-1.009,0.834-2.078,1.6-3.143,2.372
			c-1.065,0.77-2.105,1.569-3.233,2.264c-1.118,0.706-2.193,1.466-3.347,2.125l-3.492,1.931l-1.647-2.504
			c7.522-6.364,14.938-12.872,22.218-19.521c3.642-3.323,7.256-6.676,10.83-10.067c3.574-3.391,7.113-6.818,10.563-10.321
			c1.74-1.74,3.428-3.521,5.117-5.301c1.659-1.802,3.312-3.61,4.868-5.476c0.813-0.915,1.497-1.89,2.253-2.831
			c0.378-0.473,0.661-0.968,0.998-1.45l0.486-0.728c0.133-0.201,0.296-0.52,0.442-0.774l3.613-6.469
			c1.222-2.15,2.328-4.339,3.499-6.507l3.479-6.527l3.51-6.545l3.812-6.493l2.035,1.827l-4.763,3.795
			c-1.587,1.266-3.252,2.421-4.874,3.637c-1.617,1.224-3.295,2.355-4.963,3.503c-1.667,1.149-3.33,2.305-5.039,3.386
			c-1.702,1.092-3.384,2.219-5.104,3.281l-5.166,3.176l-5.224,3.076c-1.735,1.036-3.507,2.006-5.267,2.999
			c-1.757,0.996-3.523,1.976-5.307,2.924c-1.78,0.953-3.546,1.933-5.345,2.851c-1.796,0.924-3.577,1.876-5.384,2.778l-5.421,2.704
			c-3.631,1.769-7.276,3.509-10.965,5.166c-1.839,0.838-3.694,1.647-5.561,2.438c-1.869,0.787-3.749,1.549-5.713,2.241l-0.962-2.274
			c8.272-4.329,16.485-8.828,24.62-13.437c8.138-4.609,16.207-9.338,24.159-14.25c7.944-4.922,15.783-10.017,23.339-15.485
			c1.874-1.384,3.754-2.764,5.579-4.206c0.927-0.706,1.83-1.438,2.725-2.178c0.904-0.731,1.8-1.471,2.665-2.242
			c0.878-0.759,1.756-1.517,2.586-2.32c0.85-0.786,1.689-1.58,2.475-2.419c1.642-1.624,3.072-3.406,4.375-5.241l1.354,1.38
			l-8.719,5.163c-1.445,0.875-2.952,1.634-4.425,2.457l-4.443,2.422c-1.477,0.814-2.961,1.617-4.469,2.37l-4.502,2.304l-4.505,2.297
			l-4.547,2.208l-4.548,2.208c-1.509,0.749-3.051,1.43-4.575,2.148c-3.062,1.407-6.1,2.867-9.19,4.211
			c-3.083,1.362-6.148,2.76-9.266,4.05c-1.557,0.652-3.1,1.327-4.665,1.959l-4.72,1.861l-0.619-1.447l12.197-6.146l3.049-1.537
			l2.991-1.646l5.981-3.293c1.982-1.118,4.017-2.146,5.946-3.354l5.853-3.514c1.945-1.181,3.925-2.308,5.808-3.586l5.711-3.735
			c1.927-1.213,3.756-2.564,5.611-3.879l2.778-1.979c0.933-0.651,1.852-1.32,2.738-2.03c1.788-1.401,3.604-2.771,5.37-4.198
			c1.712-1.487,3.499-2.9,5.149-4.448l2.496-2.338l2.527-2.304l2.527-2.304c0.86-0.752,1.774-1.454,2.659-2.183
			c1.78-1.452,3.565-2.891,5.369-4.275c0.889-0.706,1.821-1.386,2.675-2.114l2.569-2.177l0.604,0.864l-5.557,2.712
			c-1.859,0.892-3.651,1.92-5.48,2.873c-1.83,0.951-3.616,1.989-5.415,3.001c-1.801,1.008-3.589,2.044-5.374,3.085l-5.37,3.107
			c-1.783,1.047-3.596,2.051-5.418,3.04c-0.915,0.488-1.802,1.023-2.744,1.464l-2.794,1.378c-0.469,0.224-0.924,0.473-1.403,0.675
			l-1.447,0.59l-2.894,1.18l-3.668,1.495l3.288-2.242c5.028-3.428,10.03-6.895,14.91-10.522c1.221-0.906,2.436-1.818,3.632-2.755
			c1.211-0.919,2.379-1.888,3.564-2.838c1.158-0.979,2.326-1.949,3.444-2.973c0.571-0.499,1.122-1.019,1.666-1.546
			c0.551-0.52,1.096-1.046,1.612-1.598c0.528-0.542,1.055-1.086,1.543-1.662c0.505-0.562,0.997-1.134,1.453-1.735
			c0.955-1.169,1.776-2.434,2.533-3.73c0.349-0.661,0.702-1.33,0.995-2.012l0.88-2.107c0.594-1.402,1.064-2.837,1.604-4.254
			c0.985-2.875,1.919-5.767,2.833-8.673l1.408-4.35l0.776-2.161c0.257-0.721,0.621-1.42,0.928-2.13l0.45,0.393
			c-2.036,1.514-4.005,3.138-5.989,4.74c-1.983,1.605-3.975,3.206-6.012,4.75c-2.036,1.545-4.122,3.034-6.301,4.386
			c-0.538,0.348-1.104,0.653-1.655,0.982c-0.549,0.332-1.135,0.604-1.7,0.909c-0.566,0.304-1.17,0.538-1.753,0.811
			c-0.593,0.253-1.212,0.449-1.817,0.676l-1.668,0.625l1.414-1.111c4.161-3.268,8.224-6.676,12.177-10.196
			c0.996-0.873,1.964-1.775,2.939-2.669c0.983-0.887,1.922-1.819,2.886-2.727c0.954-0.916,1.875-1.866,2.815-2.796
			c0.912-0.957,1.823-1.916,2.718-2.889c0.854-1.007,1.773-1.962,2.572-3.011l1.227-1.553c0.397-0.525,0.75-1.081,1.128-1.62
			l0.558-0.814c0.17-0.28,0.317-0.572,0.478-0.858c0.3-0.582,0.663-1.132,0.912-1.739l1.597-3.64
			c0.47-1.233,0.983-2.449,1.417-3.697c0.429-1.25,0.866-2.496,1.223-3.769c0.392-1.262,0.699-2.547,1.038-3.83
			c0.316-1.285,0.68-2.575,1.173-3.83l0.318,0.273l-3.547,2.124c-0.586,0.363-1.201,0.674-1.801,1.014l-1.809,0.999
			c-1.195,0.687-2.447,1.266-3.669,1.904c-0.618,0.305-1.221,0.64-1.851,0.919l-1.876,0.868l-1.879,0.863l-1.911,0.79l-1.911,0.789
			l-1.95,0.692c-0.652,0.225-1.295,0.477-1.955,0.678l-1.995,0.562c-0.662,0.197-1.328,0.38-2.018,0.479l-2.046,0.369l-1.333,0.241
			l1.229-0.6c3.26-1.592,6.535-3.149,9.767-4.788c1.617-0.817,3.224-1.655,4.796-2.551c0.792-0.439,1.577-0.888,2.344-1.369
			c0.777-0.463,1.544-0.943,2.287-1.458l1.127-0.754l1.085-0.811c0.737-0.525,1.431-1.103,2.113-1.693
			c0.708-0.564,1.34-1.209,1.987-1.837c0.672-0.606,1.224-1.325,1.832-1.99c0.606-0.669,1.095-1.433,1.648-2.144
			c0.517-0.738,0.958-1.527,1.441-2.289c0.421-0.797,0.811-1.611,1.218-2.416L339.271,89.903z M339.557,89.999l-0.999,2.545
			c-0.41,0.814-0.803,1.637-1.228,2.443c-0.486,0.771-0.932,1.568-1.452,2.316c-0.558,0.72-1.051,1.492-1.662,2.17
			c-0.613,0.673-1.171,1.4-1.847,2.013c-0.652,0.636-1.29,1.288-2.002,1.858c-0.688,0.597-1.387,1.181-2.127,1.711l-1.093,0.819
			l-1.132,0.761c-0.747,0.52-1.517,1.003-2.297,1.47c-0.77,0.484-1.558,0.937-2.352,1.379c-1.577,0.902-3.187,1.745-4.805,2.566
			c-3.234,1.648-6.508,3.212-9.763,4.809l-0.105-0.359l2.015-0.368c0.676-0.098,1.336-0.28,1.992-0.477l1.977-0.561
			c0.654-0.201,1.294-0.453,1.942-0.677l1.938-0.692l1.901-0.789l1.901-0.79l1.87-0.863l1.868-0.868
			c0.628-0.279,1.228-0.615,1.843-0.919c1.217-0.638,2.464-1.218,3.654-1.904l1.802-0.999c0.597-0.34,1.209-0.651,1.793-1.014
			l3.53-2.123l0.555-0.333l-0.235,0.606c-0.943,2.429-1.394,5.078-2.18,7.614c-0.355,1.282-0.794,2.537-1.223,3.796
			c-0.435,1.256-0.951,2.485-1.423,3.729l-1.59,3.645c-0.254,0.622-0.623,1.187-0.93,1.782c-0.163,0.292-0.315,0.592-0.487,0.878
			L328.645,126c-0.382,0.547-0.739,1.112-1.141,1.644l-1.234,1.569c-0.807,1.062-1.728,2.022-2.586,3.038
			c-0.896,0.98-1.811,1.945-2.726,2.907c-0.94,0.936-1.864,1.892-2.82,2.812c-0.964,0.912-1.904,1.85-2.888,2.74
			c-0.978,0.898-1.946,1.805-2.942,2.681c-3.958,3.537-8.016,6.954-12.187,10.242l-0.254-0.485c0.588-0.223,1.188-0.413,1.767-0.662
			c0.571-0.269,1.16-0.498,1.718-0.798c0.557-0.301,1.13-0.568,1.673-0.898c0.543-0.326,1.101-0.627,1.633-0.973
			c2.155-1.342,4.225-2.824,6.249-4.367c2.025-1.542,4.009-3.141,5.988-4.75c1.981-1.605,3.947-3.233,6.003-4.769l0.904-0.675
			l-0.454,1.068c-0.292,0.689-0.636,1.344-0.889,2.058l-0.765,2.138l-1.396,4.342c-0.908,2.904-1.839,5.808-2.823,8.695
			c-0.539,1.429-1.019,2.892-1.609,4.294l-0.876,2.109c-0.306,0.716-0.665,1.397-1.023,2.081c-0.774,1.333-1.615,2.63-2.585,3.822
			c-0.464,0.614-0.963,1.196-1.475,1.767c-0.495,0.587-1.027,1.138-1.56,1.688c-0.523,0.561-1.07,1.096-1.624,1.623
			c-0.547,0.535-1.101,1.063-1.674,1.568c-1.123,1.038-2.293,2.019-3.455,3.01c-1.186,0.96-2.357,1.939-3.567,2.867
			c-1.197,0.946-2.412,1.867-3.632,2.781c-4.878,3.66-9.872,7.154-14.89,10.609l-0.38-0.747l2.844-1.175l1.422-0.587
			c0.473-0.201,0.924-0.452,1.387-0.675l2.762-1.378c0.93-0.439,1.813-0.979,2.721-1.467c1.807-0.992,3.606-2,5.385-3.054
			l5.352-3.129c1.781-1.05,3.566-2.095,5.369-3.115c1.799-1.023,3.584-2.072,5.419-3.036c1.833-0.966,3.626-2.005,5.492-2.911
			l5.577-2.754l3.809-1.88l-3.205,2.744l-2.637,2.259c-0.879,0.755-1.789,1.424-2.682,2.14c-1.808,1.4-3.566,2.832-5.313,4.269
			c-0.871,0.725-1.766,1.416-2.618,2.167l-2.518,2.315l-2.517,2.315l-2.485,2.35c-1.668,1.578-3.457,3.006-5.181,4.517
			c-1.773,1.446-3.593,2.833-5.388,4.251c-0.891,0.72-1.811,1.397-2.745,2.056l-2.784,2.002c-1.859,1.331-3.693,2.698-5.622,3.925
			l-5.721,3.778c-1.886,1.293-3.867,2.433-5.814,3.627l-5.859,3.554c-1.934,1.221-3.969,2.262-5.953,3.393l-5.987,3.333
			l-2.994,1.665l-3.052,1.556l-12.206,6.227l-0.619-1.447l4.664-1.866c1.55-0.636,3.088-1.317,4.633-1.973
			c3.096-1.3,6.148-2.709,9.215-4.083c3.075-1.355,6.099-2.827,9.145-4.245c1.517-0.724,3.051-1.411,4.553-2.165l4.523-2.225
			l4.523-2.225l4.478-2.312l4.475-2.317c1.499-0.758,2.972-1.564,4.438-2.382l4.409-2.433c1.461-0.826,2.96-1.589,4.389-2.465
			l8.63-5.168l3.983-2.386l-2.63,3.767c-1.391,1.992-2.9,3.875-4.581,5.555c-0.812,0.875-1.669,1.694-2.534,2.503
			c-0.85,0.83-1.739,1.606-2.629,2.384c-0.88,0.791-1.785,1.547-2.698,2.292c-0.906,0.756-1.818,1.503-2.751,2.221
			c-1.842,1.47-3.731,2.872-5.616,4.278c-7.594,5.552-15.444,10.71-23.396,15.692c-7.96,4.969-16.025,9.761-24.17,14.412
			c-8.147,4.648-16.351,9.175-24.661,13.555l-0.963-2.274c1.833-0.653,3.686-1.407,5.524-2.189c1.84-0.786,3.673-1.591,5.496-2.429
			c3.653-1.654,7.272-3.395,10.877-5.163l5.382-2.704c1.793-0.902,3.562-1.854,5.344-2.778c1.786-0.918,3.538-1.897,5.306-2.85
			c1.77-0.948,3.522-1.927,5.266-2.922c1.744-0.992,3.503-1.96,5.223-2.995l5.177-3.069l5.117-3.166
			c1.702-1.059,3.363-2.18,5.048-3.267c1.691-1.077,3.333-2.225,4.978-3.367c1.646-1.14,3.305-2.264,4.896-3.477
			c1.597-1.204,3.24-2.352,4.798-3.602l4.675-3.747l5.812-4.659l-3.777,6.486l-3.668,6.299l-3.474,6.524l-3.472,6.559
			c-1.17,2.182-2.287,4.405-3.5,6.553l-3.593,6.479c-0.161,0.281-0.274,0.516-0.475,0.834l-0.538,0.815
			c-0.366,0.533-0.705,1.11-1.097,1.604c-0.785,0.988-1.524,2.038-2.35,2.973c-1.603,1.933-3.278,3.775-4.959,5.612
			c-1.706,1.808-3.41,3.617-5.158,5.375c-3.472,3.544-7.02,7.001-10.602,10.42c-3.578,3.423-7.208,6.788-10.861,10.125
			c-7.306,6.678-14.739,13.209-22.298,19.609l-1.647-2.504l3.305-1.832c1.096-0.625,2.138-1.364,3.21-2.04
			c1.08-0.664,2.093-1.445,3.127-2.192c1.031-0.75,2.068-1.492,3.056-2.309c0.997-0.803,2.008-1.587,2.994-2.404l2.92-2.505
			c0.984-0.822,1.91-1.718,2.867-2.573c0.954-0.86,1.901-1.728,2.823-2.625c1.873-1.762,3.698-3.577,5.516-5.4
			c1.8-1.841,3.597-3.687,5.349-5.576c1.764-1.878,3.496-3.787,5.205-5.714c1.707-1.923,3.406-3.879,5.03-5.841l2.76-3.333
			l-0.056,4.299c-0.047,3.661-0.765,7.049-1.521,10.426c-0.768,3.371-1.702,6.676-2.704,9.954
			c-1.999,6.558-4.274,13.004-6.66,19.402l-1.801,4.773c-0.252,0.769-0.714,1.657-1.115,2.514c-0.434,0.801-0.892,1.525-1.337,2.292
			c-1.856,2.943-3.808,5.771-5.889,8.511c-1.018,1.386-2.084,2.736-3.166,4.073c-1.048,1.354-2.217,2.663-3.346,3.986
			c-1.146,1.346-2.294,2.474-3.515,3.792c-1.276,1.174-2.506,2.419-3.824,3.532c-2.608,2.268-5.304,4.412-8.069,6.458
			c-2.763,2.05-5.607,3.986-8.508,5.843c-1.479,0.891-2.922,1.816-4.434,2.678c-1.536,0.821-3.071,1.715-4.612,2.47
			c-1.568,0.717-3.028,1.44-4.687,2.153l-4.652,2.029c-3.136,1.289-6.108,2.888-9.155,4.347c-3.07,1.411-5.956,3.186-8.916,4.813
			l-4.419,2.484l-4.291,2.715l-8.571,5.45l-1.713-2.618l2.708-1.614l2.781-1.454c1.881-0.903,3.78-1.759,5.715-2.512
			c0.958-0.408,1.94-0.734,2.913-1.092c0.972-0.364,1.952-0.692,2.939-1c1.963-0.656,3.952-1.208,5.939-1.764
			c7.974-2.12,16.078-3.596,24.22-4.641c2.028-0.275,4.092-0.498,6.12-0.716l3.047-0.312l2.96-0.363
			c1.967-0.322,3.934-0.66,5.879-1.131c0.979-0.203,1.945-0.466,2.912-0.729c0.97-0.252,1.936-0.518,2.891-0.827
			c1.923-0.571,3.823-1.228,5.712-1.917c1.886-0.695,3.756-1.439,5.606-2.231c1.85-0.792,3.685-1.624,5.491-2.51
			c1.799-0.88,3.613-1.813,5.311-2.782l3.583-2.045l-1.265,3.888c-1.439,4.43-3.912,8.25-6.613,11.755
			c-2.734,3.493-5.753,6.696-8.88,9.757c-3.131,3.058-6.382,5.966-9.666,8.81c-3.276,2.858-6.627,5.593-9.703,8.508
			c-1.459,1.426-2.763,2.984-3.939,4.738c-1.187,1.726-2.287,3.536-3.307,5.401c-2.047,3.724-3.866,7.604-5.489,11.562
			c-0.824,1.975-1.574,3.979-2.3,5.987c-0.72,2.035-1.324,3.979-1.95,6.11c-0.663,2.289-1.893,4.431-3.418,6.199
			c-1.522,1.783-3.274,3.242-5.021,4.591c-1.754,1.349-3.524,2.591-5.228,3.879c-1.7,1.281-3.372,2.619-4.895,3.994l-1.174,1.111
			l-0.562,0.537l-0.581,0.573l-2.325,2.293c-0.817,0.754-1.562,1.524-2.438,2.264c-0.442,0.366-0.842,0.749-1.321,1.102
			c-0.499,0.337-0.957,0.724-1.494,1.011c-1.062,0.623-2.146,1.053-3.111,1.465c-0.975,0.396-1.966,0.847-2.955,1.287l-0.704,0.321
			c-0.23,0.109-0.46,0.222-0.663,0.33c-0.101,0.054-0.202,0.11-0.265,0.15l-0.059,0.037c0.021-0.014,0.034-0.025,0.057-0.05
			c0.047-0.043,0.091-0.092,0.129-0.144c-0.011,0.016,0.172-0.218,0.241-0.517c0.074-0.096,0.088-0.96-0.365-1.354
			c-0.183-0.203-0.415-0.328-0.618-0.388c-0.093-0.04-0.281-0.052-0.259-0.051c-0.07-0.002-0.026-0.002-0.011-0.003l0.286-0.039
			c0.934-0.161,2.006-0.436,3.031-0.693c4.155-1.074,8.33-2.261,12.518-3.381c2.096-0.562,4.197-1.116,6.312-1.641l1.568-0.389
			c0.442-0.132,0.888-0.253,1.322-0.455c0.877-0.354,1.725-0.859,2.543-1.431c3.28-2.337,6.034-5.652,8.665-9.001
			c2.635-3.376,5.128-6.917,7.861-10.355c1.375-1.715,2.796-3.416,4.425-5c1.635-1.561,3.456-3.099,5.889-3.965l3.997-1.424
			l-2.326,3.684c-1.003,1.588-2.1,3.117-3.031,4.75l-1.348,2.479c-0.221,0.416-0.461,0.82-0.665,1.245l-0.588,1.288l-1.177,2.576
			c-0.369,0.87-0.696,1.763-1.047,2.643c-0.72,1.751-1.308,3.569-1.932,5.368c-1.209,3.622-2.298,7.305-3.47,10.997
			c-1.135,3.694-2.451,7.377-3.939,10.999c-0.355,0.912-0.817,1.786-1.222,2.681c-0.436,0.882-0.797,1.797-1.293,2.65l-1.451,2.578
			c-0.247,0.427-0.472,0.866-0.737,1.281l-0.833,1.227l-1.667,2.449c-0.564,0.811-1.237,1.539-1.852,2.312
			c-0.635,0.758-1.243,1.535-1.9,2.275l-2.114,2.121c-0.713,0.687-1.396,1.455-2.135,2.072l-2.222,1.846l-1.11,0.923l-0.556,0.462
			l-0.277,0.23l-0.088,0.068l-0.038,0.026l-0.078,0.052l-0.155,0.104l-2.492,1.666c-1.673,1.034-3.354,1.987-5.036,2.973
			l-5.089,2.791c-3.413,1.809-6.82,3.626-10.259,5.371c-3.428,1.771-6.871,3.504-10.317,5.231
			c-6.892,3.456-13.809,6.854-20.738,10.228c-13.861,6.74-27.763,13.382-41.712,19.94l-1.024-2.519l14.857-5.255l7.426-2.633
			l7.372-2.764l7.373-2.765c1.227-0.466,2.462-0.91,3.682-1.394l3.639-1.49l7.279-2.979c2.427-0.993,4.867-1.958,7.226-3.093
			l7.136-3.279l3.569-1.64c1.168-0.586,2.314-1.214,3.473-1.819l6.935-3.662l1.733-0.917l1.668-1.025l3.338-2.051l3.338-2.05
			c1.104-0.696,2.251-1.328,3.292-2.119l6.383-4.544c1.052-0.773,2.155-1.477,3.165-2.309l3.05-2.466l6.103-4.931l8.493-6.862
			l-6.8,8.555l-3.764,4.736l-1.706,2.489c-0.567,0.831-1.161,1.646-1.642,2.53c-2.126,3.416-3.821,7.077-5.462,10.8
			c-1.596,3.744-3.246,7.565-5.272,11.207l-1.59,2.696c-0.543,0.891-1.182,1.719-1.768,2.58c-1.143,1.753-2.529,3.306-3.85,4.913
			c-2.725,3.135-5.665,6.063-8.767,8.785c-0.772,0.686-1.516,1.406-2.311,2.062l-2.402,1.943c-1.616,1.275-3.169,2.634-4.838,3.842
			c-3.334,2.408-6.6,4.962-10.019,7.19l-5.082,3.442c-1.747,1.15-3.276,2.262-4.718,3.625c-2.829,2.763-5.191,6.052-7.385,9.463
			c-2.209,3.407-4.266,6.953-6.626,10.376c-1.195,1.691-2.514,3.415-4.013,4.888c-1.546,1.524-3.3,2.694-5.036,3.837
			c-3.505,2.231-7.083,4.177-10.478,6.392c-3.4,2.195-6.638,4.615-9.546,7.391l-2.12,2.141l-1.969,2.24
			c-0.638,0.782-1.251,1.613-1.878,2.418l-1.879,2.455c-1.341,1.606-2.74,3.189-4.394,4.536c-1.625,1.36-3.442,2.567-5.474,3.349
			c-2.021,0.802-4.214,1.148-6.346,1.143c-2.138,0.006-4.214-0.294-6.224-0.53l-1.028-0.121l0.222-0.995l11.617-52.11l0.084-0.375
			l0.345-0.186l8.432-4.526l4.206-2.275c1.39-0.762,2.814-1.527,4.142-2.313l0.212-0.135l0.018-0.012
			c0.014-0.011-0.038,0.03-0.055,0.052l-0.027,0.031c-0.08,0.091-0.153,0.229-0.178,0.373c-0.013,0.183-0.042,0.194,0.06,0.493
			c0.1,0.303,0.548,0.521,0.745,0.484c0.074,0.006,0.175-0.019,0.181-0.021l0.01-0.003l-0.025,0.01
			c-0.16,0.062-0.353,0.165-0.528,0.246l-1.075,0.518l-2.149,1.035l-4.299,2.069l-8.598,4.139l-1.529,0.736l0.389-1.643l0.567-2.392
			l0.088-0.373l0.347-0.166c4.666-2.238,9.272-4.667,13.866-7.098c4.588-2.441,9.173-4.912,13.712-7.431l0.416-0.235l0.075-0.044
			l-0.01,0.008c-0.412-1.231,0.481,1.703,0.713,1.316l0.025-0.011l-0.038,0.02c-0.068,0.036-0.14,0.072-0.213,0.104l-0.885,0.413
			l-1.771,0.827l-3.542,1.652l-7.082,3.306l-14.165,6.61l-1.336,0.623l0.342-1.431l0.955-3.998l0.077-0.321l0.293-0.146
			c7.249-3.596,14.547-7.049,21.844-10.515l21.919-10.328l0.34-0.161l0.081-0.038c0.003-0.001,0.016-0.008,0.011-0.005
			c-0.563-0.976,0.63,1.41,0.536,1.146l-0.031,0.014l-0.168,0.077l-0.686,0.316l-1.384,0.616l-2.77,1.229l-5.54,2.458l-11.079,4.915
			l-22.157,9.83l-1.039,0.461l0.272-1.111l4.265-17.438l4.399-17.405c1.449-5.806,3.01-11.583,4.534-17.37
			c1.519-5.788,3.057-11.571,4.668-17.334c1.604-5.766,3.143-11.549,4.802-17.298l4.957-17.255l5.14-17.201
			c1.69-5.74,3.494-11.447,5.291-17.155c3.518-11.44,7.325-22.789,11.06-34.159c3.919-11.309,7.738-22.654,11.904-33.875
			c3.998-11.283,8.388-22.42,12.668-33.599l6.772-16.63l1.693-4.157l1.775-4.124l3.572-8.237l3.573-8.237
			c1.215-2.735,2.507-5.436,3.756-8.155l3.779-8.146c1.255-2.718,2.503-5.438,3.871-8.104l8.022-16.079l8.517-15.799
			c1.392-2.646,2.901-5.252,4.393-7.837l4.472-7.783l8.943-15.566l4.473-7.783c1.479-2.602,3.072-5.136,4.603-7.707l9.26-15.384
			l4.628-7.693c1.562-2.552,3.204-5.056,4.803-7.586l9.653-15.146c1.571-2.549,3.332-4.975,4.996-7.463l5.058-7.424l2.529-3.712
			c0.839-1.241,1.681-2.479,2.582-3.676l5.312-7.249c1.789-2.402,3.498-4.866,5.354-7.218l5.547-7.072l2.776-3.534l2.844-3.471
			l5.687-6.944l5.67-6.956c1.877-2.286,3.718-4.675,5.578-7.008l2.783-3.519l1.392-1.759l0.696-0.88l0.174-0.22l0.131-0.185
			l0.323-0.458l1.296-1.831c0.376-0.466,0.813-1.323,0.879-1.605l0.037-0.278l0.018-0.139c0.002-0.004,0.021-0.187,0.01-0.044
			c-0.015-0.078-0.011-0.157-0.052-0.257c-0.01-0.061-0.027-0.077-0.034-0.093c-0.016-0.025,0.026-0.025-0.06-0.119l-0.089-0.109
			c-0.002-0.002-0.12-0.149-0.026-0.033c-0.029-0.016-0.054-0.035-0.075-0.061c-0.036-0.013-0.07-0.028-0.103-0.05
			c-0.02-0.004-0.013,0.001-0.019-0.02c-0.02-0.007-0.085-0.008-0.126-0.012c0.017-0.001-0.235-0.012,0.002-0.005l-0.186,0.033
			c-0.285,0.058-0.23,0.041-0.717,0.366l0.07-0.047l-1.236,1.127c-0.414,0.369-0.828,0.743-1.222,1.18l-2.397,2.518l-4.691,5.19
			c-3.129,3.478-6.188,6.997-9.25,10.524c-3.094,3.496-6.058,7.106-9.065,10.678c-1.494,1.794-3.012,3.568-4.487,5.378l-4.399,5.451
			c-5.929,7.219-11.587,14.651-17.314,22.028c-2.832,3.712-5.572,7.495-8.362,11.239c-2.78,3.752-5.582,7.487-8.229,11.334
			l-8.056,11.458c-1.364,1.896-2.652,3.84-3.933,5.79l-3.862,5.833l-3.863,5.833c-1.272,1.955-2.612,3.86-3.811,5.871l-7.361,11.938
			l-3.681,5.969c-1.168,1.975-2.325,4.037-3.488,6.051l-6.969,12.152c-4.747,8.045-9.057,16.335-13.522,24.538
			c-2.201,4.119-4.478,8.197-6.618,12.348l-6.334,12.497l-6.335,12.497c-1.077,2.072-2.078,4.182-3.073,6.295l-3.005,6.328
			l-6.01,12.656c-2.001,4.22-4.042,8.421-5.889,12.712l-11.36,25.617c-3.651,8.597-7.143,17.262-10.722,25.889
			c-3.662,8.596-6.878,17.367-10.212,26.092c-3.29,8.741-6.752,17.419-9.729,26.275l-9.249,26.45l-1.011,2.891l-1.39-2.702
			c-6.459-12.557-12.212-25.478-17.003-38.777c-2.383-6.653-4.515-13.404-6.242-20.276c-1.706-6.873-3.053-13.869-3.553-20.991
			c-0.24-3.559-0.268-7.149,0.069-10.735c0.161-1.794,0.43-3.571,0.824-5.385c0.166-0.925,0.443-1.718,0.659-2.583
			c0.264-0.93,0.574-1.731,0.859-2.604c0.663-1.691,1.354-3.402,2.416-4.979c1.011-1.601,2.433-2.955,3.598-4.135
			c1.172-1.194,2.068-2.504,2.8-4.003l0.524-1.135l0.451-1.187c0.319-0.785,0.546-1.604,0.799-2.415
			c0.966-3.325,1.676-6.761,2.505-10.193c0.845-3.428,1.601-6.871,2.787-10.291l0.431-1.282l0.549-1.26l0.551-1.259
			c0.178-0.422,0.452-0.805,0.674-1.209c0.471-0.796,0.908-1.612,1.516-2.33c0.574-0.721,1.123-1.534,1.737-2.131l1.811-1.949
			l0.8-0.907c0.254-0.315,0.472-0.668,0.711-0.999c0.907-1.37,1.659-2.882,2.271-4.478c1.271-3.171,2.11-6.58,3.188-9.97
			c0.534-1.699,1.145-3.405,1.94-5.073l0.649-1.24l0.825-1.25c0.282-0.389,0.572-0.682,0.858-1.027l0.859-0.983
			c1.028-1.257,1.94-2.713,2.736-4.233c0.823-1.505,1.54-3.086,2.233-4.674c1.366-3.189,2.549-6.474,3.549-9.804
			c0.489-1.667,0.961-3.342,1.334-5.029c0.203-0.842,0.361-1.686,0.511-2.53c0.09-0.429,0.122-0.823,0.182-1.233
			c0.062-0.398,0.109-0.815,0.122-1.265l0.152-2.673c0.036-0.919,0.273-1.819,0.403-2.729c0.213-0.894,0.474-1.78,0.751-2.655
			c0.365-0.842,0.637-1.73,1.085-2.531c0.426-0.812,0.834-1.636,1.364-2.383c0.254-0.381,0.492-0.77,0.76-1.144l0.86-1.093
			c0.564-0.765,1.182-1.343,1.775-2.005l1.759-1.92c2.229-2.631,4.262-5.48,6.202-8.375c0.929-1.473,1.903-2.925,2.764-4.437
			l1.309-2.259l1.188-2.285c0.413-0.744,0.758-1.555,1.105-2.365l1.048-2.403c0.363-0.819,0.708-1.652,1.087-2.459l1.196-2.375
			c3.238-6.296,6.816-12.36,10.406-18.418c1.835-3.01,3.509-6.063,5.614-9.01c2.096-2.856,4.266-5.637,6.478-8.381
			c2.21-2.745,4.456-5.458,6.729-8.15c1.15-1.335,2.27-2.692,3.447-4.01l1.748-1.988l1.828-1.957l1.224-1.309l0.027,1.827
			l0.064,4.246c0.047,1.414,0.146,2.825,0.217,4.238c0.072,1.413,0.263,2.814,0.389,4.222c0.106,1.411,0.383,2.799,0.575,4.199
			c0.181,1.402,0.483,2.782,0.771,4.166l0.429,2.075l0.54,2.049c0.375,1.361,0.687,2.745,1.16,4.07
			c0.449,1.336,0.852,2.681,1.339,4.012l1.557,3.977l1.595,3.953c0.526,1.327,1.096,2.636,1.587,3.977l1.483,4.019
			c0.504,1.335,0.989,2.678,1.414,4.043l1.331,4.073c0.474,1.348,0.802,2.743,1.195,4.117l1.14,4.135l-1.129,0.26
			c-2.165-10.107-5.241-20.009-8.239-29.934c-1.493-4.966-2.97-9.945-4.219-14.994c-0.627-2.523-1.178-5.068-1.632-7.635
			c-0.231-1.282-0.375-2.583-0.567-3.873c-0.09-1.307-0.261-2.63-0.268-3.926l-0.01-1.944c-0.011-0.684,0.076-1.314,0.11-1.974
			c0.046-1.308,0.282-2.607,0.488-3.908c0.539-2.59,1.602-5.071,3.083-7.257c3.043-4.347,7.173-7.564,10.223-11.735
			c3.166-4.085,6.101-8.361,9.159-12.554c1.537-2.091,3.087-4.177,4.746-6.183c1.661-1.978,3.432-3.982,5.523-5.547
			c4.309-2.908,7.998-6.533,11.162-10.619c1.554-2.064,3.046-4.167,4.461-6.34l1.067-1.625l1.144-1.589
			c0.725-1.093,1.611-2.053,2.469-3.039c3.465-3.932,7.851-6.859,11.695-10.262l1.423-1.312l1.478-1.298
			c0.477-0.454,1.024-0.81,1.548-1.199l1.587-1.145c1.109-0.681,2.197-1.4,3.324-2.05c1.146-0.615,2.271-1.271,3.435-1.852
			c4.635-2.319,9.542-4.276,14.636-5.332c5.108-1.041,10.342-1.305,15.531-1.123c5.197,0.193,10.356,0.754,15.503,1.479
			c2.566,0.417,5.117,0.974,7.593,1.797c1.235,0.416,2.458,0.885,3.623,1.494c0.577,0.314,1.152,0.639,1.67,1.066
			c0.508,0.417,1.046,0.898,1.232,1.638l-0.128-0.151c1.505,0.7,2.699,1.871,3.551,3.25c0.405,0.7,0.757,1.437,0.939,2.248
			c0.049,0.198,0.122,0.398,0.149,0.595l0.055,0.591c0.036,0.375,0.066,0.821,0.124,1.182c0.216,1.5,0.933,2.952,1.682,4.323
			c0.758,1.38,1.606,2.713,2.491,4.021c1.778,2.612,3.698,5.13,5.688,7.589c1.994,2.454,4.06,4.859,6.225,7.156
			c0.553,0.569,1.112,1.118,1.607,1.774c0.123,0.161,0.265,0.31,0.373,0.479l0.289,0.532c0.176,0.362,0.424,0.693,0.534,1.082
			l0.411,1.133c0.13,0.379,0.193,0.776,0.292,1.164c0.215,0.774,0.277,1.572,0.393,2.361c0.1,0.792,0.104,1.59,0.161,2.384
			l-0.02,2.386l-0.151,2.379l-0.257,2.369l-0.349,2.356l-0.426,2.342c-0.314,1.555-0.647,3.107-1.042,4.644
			c-0.373,1.542-0.81,3.068-1.26,4.589C340.561,86.994,340.059,88.497,339.557,89.999z"/>
		<path style="fill:#231F20;" d="M97.64,414.013c-1.321-1.571-2.68-3.104-3.888-4.783c-1.301-1.642-2.412-3.408-3.574-5.145
			c-1.084-1.782-2.187-3.559-3.161-5.407c-1.037-1.816-1.919-3.711-2.848-5.583c-0.866-1.9-1.742-3.799-2.515-5.741
			c-0.827-1.921-1.518-3.895-2.237-5.856c-0.674-1.978-1.351-3.955-1.947-5.958c-0.636-1.991-1.169-4.011-1.726-6.025
			c-2.131-8.081-3.735-16.296-4.874-24.574c-0.56-4.14-0.989-8.297-1.318-12.463c-0.154-2.084-0.299-4.169-0.396-6.258
			c-0.097-2.095-0.177-4.169-0.185-6.296l2.322,0.514c-1.243,2.966-2.428,5.963-3.152,9.099l-0.304,1.166l-0.238,1.184
			c-0.15,0.791-0.324,1.576-0.457,2.371c-0.234,1.599-0.486,3.193-0.638,4.814c-0.358,3.229-0.563,6.502-0.862,9.797
			c-0.132,1.645-0.322,3.298-0.51,4.946c-0.241,1.646-0.45,3.299-0.763,4.937c-0.313,1.639-0.606,3.281-1.029,4.897l-0.592,2.432
			l-0.709,2.399c-0.441,1.611-1.006,3.178-1.567,4.747c-0.523,1.583-1.169,3.116-1.808,4.652l-0.945,2.289
			c-0.333,0.769-0.626,1.489-0.901,2.231c-0.558,1.499-1.04,3.033-1.462,4.588c-0.857,3.106-1.493,6.29-1.972,9.504
			c-0.954,6.434-1.322,12.973-1.423,19.516c-0.048,3.273-0.028,6.551,0.032,9.831c0.047,3.285,0.181,6.555,0.152,9.886
			c-0.007,0.418-0.021,0.84-0.048,1.269c-0.016,0.217-0.035,0.436-0.065,0.664c-0.042,0.241-0.051,0.445-0.207,0.807
			c-0.018,0.062-0.122,0.229-0.239,0.344c-0.028,0.047-0.214,0.163-0.346,0.2c-0.153,0.054-0.273,0.046-0.407,0.021
			c-0.316-0.074-0.342-0.154-0.465-0.238c-0.045-0.045-0.007,0.01-0.119-0.119l-0.023-0.03l-0.047-0.062
			c-0.114-0.127-0.27-0.405-0.396-0.668c-0.195-0.458-0.31-0.874-0.415-1.301c-0.378-1.687-0.513-3.339-0.635-4.994
			c-0.21-3.309-0.28-6.602-0.308-9.896c-0.051-6.585,0.095-13.161,0.13-19.728l0.964,0.117l-1.056,5.42
			c-0.083,0.453-0.189,0.901-0.252,1.358l-0.163,1.375l-0.315,2.753c-0.179,1.839-0.473,3.664-0.535,5.515l-0.325,5.538l-0.16,2.769
			l-0.048,2.774l-0.095,5.549l-0.043,2.774l0.052,2.774l0.104,5.55c0.04,1.851,0.062,3.7,0.192,5.547l0.318,5.542l0.32,5.541
			l0.498,5.528l0.498,5.526l0.258,2.763l0.342,2.753l1.376,11.01l0.498,3.984l-2.211-3.324c-0.903-1.357-1.456-2.78-1.958-4.204
			c-0.236-0.714-0.44-1.432-0.654-2.148l-0.541-2.161c-0.327-1.443-0.617-2.892-0.875-4.342c-0.247-1.451-0.488-2.902-0.688-4.356
			c-0.812-5.818-1.327-11.654-1.739-17.49c-0.805-11.679-1.177-23.354-1.224-35.062l2.781,0.318
			c-0.481,2.482-1.052,4.944-1.412,7.452c-0.439,2.492-0.743,5.008-1.058,7.521c-0.163,1.256-0.254,2.522-0.385,3.783
			c-0.127,1.261-0.245,2.523-0.32,3.79l-0.257,3.798l-0.174,3.804c-0.091,2.538-0.168,5.077-0.182,7.619
			c-0.033,2.542-0.01,5.085,0.015,7.629c0.091,5.088,0.237,10.178,0.434,15.283c0.092,2.555,0.199,5.108,0.24,7.699l0.012,0.974
			l0.006,0.487l0.024,0.38c0.054,0.623,0.058,1.307,0.154,1.88l0.307,1.678c0.139,0.579,0.312,1.174,0.466,1.76
			c0.684,2.349,1.579,4.68,2.62,6.96c1.005,2.294,2.17,4.536,3.356,6.765c1.197,2.226,2.465,4.421,3.76,6.602
			c1.307,2.175,2.649,4.332,4.017,6.476c1.375,2.139,2.773,4.266,4.19,6.382l4.289,6.327l-2.627,0.481l8.488-30.998
			c2.83-10.331,5.645-20.666,8.534-30.979l2.154-7.739l2.338-7.693l4.682-15.363l1.187-3.836l1.274-3.812l2.553-7.621L97.64,414.013
			z M97.975,413.95l-4.652,15.453l-2.313,7.684l-1.153,3.842l-1.068,3.871l-4.334,15.466l-2.168,7.721l-1.987,7.778
			c-2.631,10.376-5.337,20.73-8.028,31.089l-8.074,31.07l-0.796,3.065l-1.831-2.584c-2.961-4.182-5.833-8.432-8.619-12.748
			c-1.388-2.161-2.752-4.34-4.083-6.543c-1.321-2.21-2.617-4.438-3.848-6.71c-1.221-2.278-2.421-4.573-3.476-6.958
			c-1.086-2.365-2.04-4.814-2.792-7.37c-0.172-0.648-0.358-1.282-0.518-1.944l-0.375-2.095c-0.106-0.687-0.105-1.288-0.164-1.937
			l-0.017-0.239l-0.016-0.338l-0.007-0.472l-0.014-0.942c-0.047-2.52-0.16-5.073-0.259-7.626l-0.28-7.676
			c-0.089-2.562-0.121-5.129-0.15-7.694c-0.007-2.568-0.011-5.136,0.041-7.705c0.033-2.569,0.128-5.14,0.24-7.708l0.205-3.854
			l0.289-3.85c0.086-1.284,0.214-2.565,0.353-3.846c0.142-1.28,0.246-2.564,0.42-3.842c0.339-2.556,0.667-5.112,1.133-7.652
			c0.386-2.551,0.986-5.069,1.498-7.6l2.781,0.317c-0.026,5.806,0.054,11.637,0.189,17.452c0.13,5.819,0.336,11.637,0.669,17.441
			c0.333,5.805,0.777,11.604,1.496,17.352c0.169,1.439,0.379,2.869,0.593,4.298c0.226,1.427,0.481,2.844,0.771,4.251l0.481,2.093
			c0.19,0.684,0.371,1.374,0.58,2.048c0.437,1.333,0.94,2.651,1.636,3.745l-1.713,0.66l-1.167-11.082l-0.293-2.77l-0.212-2.777
			l-0.406-5.556l-0.406-5.554l-0.227-5.564l-0.225-5.563c-0.104-1.854-0.081-3.711-0.109-5.566l-0.069-5.568l-0.035-2.783
			l0.06-2.784l0.13-5.568l0.065-2.783l0.178-2.78l0.361-5.561c0.074-1.856,0.38-3.697,0.572-5.546l0.318-2.771l0.153-1.386
			c0.06-0.462,0.164-0.918,0.243-1.377l1.026-5.502l0.964,0.117c0.019,6.581-0.072,13.151,0.034,19.714
			c0.06,3.278,0.133,6.562,0.426,9.81c0.151,1.616,0.327,3.249,0.702,4.765c0.098,0.37,0.217,0.743,0.35,1.039
			c0.062,0.103,0.074,0.202,0.237,0.385l0.048,0.061l0.024,0.03l-0.061-0.07c-0.04-0.025,0.005-0.021-0.203-0.088
			c-0.083-0.011-0.153-0.004-0.26,0.016c-0.09,0.01-0.216,0.124-0.216,0.124c-0.055,0.034-0.087,0.124-0.076,0.086
			c0.012-0.017,0.055-0.226,0.072-0.39c0.021-0.18,0.033-0.371,0.043-0.564c0.016-0.392,0.022-0.791,0.02-1.195
			c-0.04-3.243-0.242-6.541-0.358-9.827c-0.128-3.29-0.22-6.587-0.238-9.888c-0.031-6.6,0.205-13.225,1.046-19.82
			c0.427-3.296,1.001-6.586,1.843-9.831c0.429-1.62,0.922-3.229,1.501-4.813c0.29-0.801,0.613-1.604,0.929-2.345l0.922-2.274
			c0.614-1.503,1.236-3.004,1.734-4.547c0.536-1.53,1.077-3.059,1.493-4.624l0.674-2.333l0.559-2.362
			c0.401-1.568,0.673-3.165,0.967-4.757c0.547-3.193,0.932-6.414,1.241-9.669c0.321-3.25,0.553-6.538,0.946-9.84
			c0.168-1.651,0.44-3.303,0.697-4.954c0.145-0.824,0.331-1.644,0.495-2.466l0.258-1.231l0.327-1.217
			c0.786-3.273,2.048-6.405,3.371-9.484l2.347-5.461l-0.025,5.974c-0.008,2.031,0.054,4.113,0.133,6.172
			c0.08,2.065,0.206,4.129,0.342,6.193c0.287,4.126,0.698,8.245,1.193,12.353c0.968,8.219,2.397,16.386,4.352,24.427
			c0.512,2.003,1.002,4.015,1.592,5.998c0.551,1.994,1.183,3.963,1.812,5.935c0.32,0.982,0.676,1.953,1.012,2.932
			c0.325,0.982,0.685,1.951,1.057,2.916c0.706,1.946,1.515,3.849,2.314,5.757c0.862,1.879,1.679,3.784,2.65,5.611
			c0.909,1.861,1.946,3.651,2.968,5.453c1.098,1.751,2.154,3.541,3.364,5.215c1.139,1.726,2.46,3.341,3.731,4.984L97.975,413.95z"/>
		<path style="fill:#231F20;" d="M38.351,499.229l-1.063-1.622c-0.361-0.536-0.712-1.079-1.011-1.661l-0.942-1.711l-0.836-1.763
			c-0.295-0.581-0.542-1.184-0.767-1.795c-0.224-0.611-0.497-1.207-0.681-1.833l-0.597-1.866c-0.176-0.629-0.322-1.267-0.484-1.901
			c-0.179-0.633-0.258-1.284-0.389-1.928c-0.138-0.643-0.222-1.294-0.301-1.947c-0.097-0.651-0.161-1.307-0.197-1.965
			c-0.059-0.657-0.088-1.316-0.088-1.978c-0.024-0.661-0.004-1.322,0.02-1.984c0.006-0.663,0.084-1.323,0.127-1.986
			c0.138-1.325,0.329-2.641,0.646-3.972l2.044,0.616c-0.257,1.104-0.531,2.202-0.813,3.296c-0.28,1.094-0.434,2.212-0.657,3.313
			c-0.399,2.211-0.648,4.438-0.758,6.669c-0.06,1.115-0.054,2.234-0.064,3.352c0.063,1.121,0.069,2.237,0.177,3.362
			c0.133,2.246,0.475,4.503,0.723,6.786c0.263,2.291,0.564,4.592,0.691,6.932c0.103,1.161,0.091,2.338,0.119,3.506
			c0.004,1.17-0.073,2.343-0.118,3.509c-0.133,1.163-0.216,2.329-0.391,3.482c-0.195,1.132-0.408,2.336-0.552,3.408
			c-0.127,1.138-0.347,2.29-0.397,3.416c0.019,1.121-0.033,2.242,0.047,3.368c0.143,1.125,0.214,2.262,0.413,3.38
			c0.257,1.107,0.466,2.227,0.762,3.324c0.35,1.084,0.65,2.183,1.042,3.252c0.435,1.054,0.839,2.118,1.297,3.161
			c0.496,1.026,0.986,2.056,1.517,3.062c0.569,0.989,1.109,1.991,1.699,2.966c1.2,1.938,2.458,3.838,3.828,5.658
			c1.368,1.82,2.79,3.6,4.302,5.297c0.745,0.858,1.516,1.692,2.285,2.524l1.176,1.225l0.601,0.595l0.3,0.298l0.075,0.074
			l0.037,0.037l0.114,0.128l0.139,0.165l0.558,0.658c0.187,0.206,0.368,0.562,0.548,0.841c0.171,0.294,0.375,0.604,0.51,0.894
			l0.377,0.857c0.273,0.571,0.444,1.15,0.64,1.729c0.21,0.579,0.347,1.16,0.492,1.744c0.564,2.332,0.894,4.67,1.138,7.003
			l-2.823-0.187l1.901-8.419c0.641-2.805,1.25-5.617,1.924-8.414l1.989-8.4l2.068-8.38l0.565,1.588l-1.209-1.051
			c-0.409-0.347-0.808-0.698-1.141-1.102c-0.705-0.777-1.414-1.55-1.998-2.395l-0.918-1.24l-0.825-1.285
			c-0.562-0.853-1.04-1.74-1.525-2.623c-0.978-1.762-1.838-3.567-2.644-5.388c-0.819-1.814-1.587-3.643-2.344-5.469
			c-1.512-3.656-2.982-7.314-4.624-10.896c-0.835-1.783-1.712-3.546-2.641-5.282l-1.484-2.552l-1.604-2.478L38.351,499.229z
			 M38.599,499.062l1.658,2.462l1.538,2.538c0.993,1.71,1.972,3.431,2.889,5.184c1.873,3.485,3.653,7.021,5.48,10.516
			c0.909,1.75,1.825,3.491,2.781,5.2c0.479,0.854,0.947,1.715,1.458,2.543c0.495,0.839,0.97,1.69,1.504,2.493
			c0.518,0.816,1.033,1.635,1.604,2.398l0.821,1.175l0.888,1.104c0.57,0.761,1.229,1.413,1.875,2.074
			c0.31,0.351,0.653,0.647,1.006,0.93l1.038,0.876l0.777,0.656l-0.213,0.932l-1.914,8.399l-1.993,8.379
			c-0.654,2.796-1.372,5.577-2.058,8.365l-2.082,8.359l-2.11,8.478l-0.713-8.663c-0.185-2.248-0.455-4.485-0.926-6.638
			c-0.125-0.535-0.226-1.081-0.393-1.591c-0.154-0.518-0.286-1.051-0.498-1.526l-0.288-0.735c-0.099-0.236-0.216-0.408-0.318-0.619
			c-0.125-0.207-0.161-0.397-0.352-0.628l-0.532-0.68l-0.133-0.17l-0.017-0.021c0.029,0.032-0.09-0.102,0.062,0.066l-0.038-0.041
			l-0.075-0.08l-0.301-0.322l-0.602-0.644l-1.166-1.312c-0.759-0.888-1.524-1.769-2.229-2.698c-1.447-1.828-2.794-3.729-4.082-5.668
			c-1.283-1.941-2.479-3.938-3.599-5.976c-0.551-1.023-1.052-2.075-1.579-3.109l-1.414-3.188c-0.437-1.077-0.82-2.177-1.231-3.262
			c-0.359-1.105-0.675-2.227-1.016-3.338c-0.292-1.125-0.496-2.274-0.748-3.41c-0.201-1.146-0.304-2.311-0.46-3.466
			c-0.101-1.165-0.058-2.353-0.096-3.53c0.011-1.171,0.185-2.299,0.269-3.451l0.388-3.431c0.1-1.131,0.108-2.268,0.168-3.397
			c-0.029-1.134-0.024-2.265-0.099-3.394c-0.1-1.13-0.157-2.256-0.325-3.382c-0.257-2.249-0.691-4.496-1.09-6.758
			c-0.417-2.271-0.788-4.565-1.021-6.909c-0.16-1.162-0.148-2.353-0.23-3.528c0.001-1.182-0.012-2.368,0.043-3.55
			c0.163-2.363,0.469-4.713,0.961-7.017c0.292-1.141,0.516-2.299,0.864-3.419c0.343-1.121,0.695-2.238,1.063-3.348l2.044,0.615
			c-0.379,1.161-0.663,2.393-0.893,3.628c-0.09,0.622-0.216,1.242-0.272,1.871c-0.074,0.628-0.145,1.257-0.172,1.89
			c-0.05,0.632-0.075,1.266-0.072,1.9c-0.02,0.636-0.012,1.271,0.028,1.907c0.022,0.636,0.05,1.273,0.13,1.906
			c0.078,0.632,0.114,1.273,0.244,1.899c0.115,0.628,0.213,1.261,0.343,1.888l0.465,1.865c0.153,0.624,0.396,1.219,0.589,1.831
			c0.195,0.612,0.412,1.218,0.678,1.803c0.255,0.59,0.486,1.192,0.764,1.772l0.907,1.698c0.285,0.575,0.629,1.122,0.984,1.664
			l1.042,1.637L38.599,499.062z"/>
	</g>
</g>
</svg>
