<?xml version="1.0" encoding="iso-8859-1"?>
<!-- Generator: Adobe Illustrator 16.0.0, SVG Export Plug-In . SVG Version: 6.00 Build 0)  -->
<!DOCTYPE svg PUBLIC "-//W3C//DTD SVG 1.1//EN" "http://www.w3.org/Graphics/SVG/1.1/DTD/svg11.dtd">
<svg version="1.1" id="Layer_2" xmlns="http://www.w3.org/2000/svg" xmlns:xlink="http://www.w3.org/1999/xlink" x="0px" y="0px"
	 width="1175px" height="226px" viewBox="0 0 1175 226" style="enable-background:new 0 0 1175 226;" xml:space="preserve">
<rect x="17.667" y="121.5" style="fill:#CE181E;stroke:#231F20;stroke-linecap:round;stroke-linejoin:round;stroke-miterlimit:10;" width="823.333" height="9"/>
<rect x="834.625" y="115.5" style="fill:#231F20;stroke:#231F20;stroke-linecap:round;stroke-linejoin:round;stroke-miterlimit:10;" width="9.75" height="21"/>
<g>
	<rect x="17" y="166" style="fill:#534A29;" width="140" height="30"/>
	<path style="fill:#231F20;" d="M157,196.1c-5.833,0.171-11.667,0.249-17.5,0.376L122,196.7c-11.667,0.108-23.333,0.156-35,0.191
		l-17.5-0.085L52,196.574c-11.667-0.184-23.333-0.267-35-0.257c-0.174,0-0.315-0.143-0.316-0.316l-0.065-15l-0.166-15
		c-0.003-0.298,0.235-0.543,0.534-0.547H17c11.667-0.166,23.333-0.277,35-0.357l35-0.154l35,0.084
		c11.667,0.121,23.333,0.153,35,0.347l0.02,0c0.341,0.005,0.613,0.287,0.608,0.627l-0.225,15l-0.303,15
		C157.1,196.055,157.054,196.098,157,196.1z M156.898,195.898L156.597,181l-0.225-15l0.628,0.628
		c-11.667,0.194-23.333,0.226-35,0.347l-35,0.084l-35-0.154c-11.667-0.081-23.333-0.192-35-0.357L17.548,166l-0.166,15l-0.065,15
		L17,195.684c11.667,0.01,23.333-0.073,35-0.257l17.5-0.233l17.5-0.085c11.667,0.036,23.333,0.083,35,0.191l17.5,0.224
		C145.3,195.65,151.099,195.729,156.898,195.898z"/>
</g>
<rect x="225.001" y="166" style="fill:#534A29;stroke:#231F20;stroke-width:2;stroke-linecap:round;stroke-linejoin:round;stroke-miterlimit:10;" width="140" height="30"/>
<rect x="436.667" y="166" style="fill:#534A29;stroke:#231F20;stroke-width:2;stroke-linecap:round;stroke-linejoin:round;stroke-miterlimit:10;" width="140" height="30"/>
<rect x="644.667" y="166" style="fill:#534A29;stroke:#231F20;stroke-width:2;stroke-linecap:round;stroke-linejoin:round;stroke-miterlimit:10;" width="140" height="30"/>
<ellipse style="fill:#F99D3E;stroke:#231F20;stroke-width:2;stroke-linecap:round;stroke-linejoin:round;stroke-miterlimit:10;" cx="712.5" cy="84.422" rx="65.5" ry="53.5"/>
<rect x="223" y="36.922" style="fill:#EE2D25;stroke:#231F20;stroke-width:2;stroke-linecap:round;stroke-linejoin:round;stroke-miterlimit:10;" width="66" height="81"/>
<rect x="287" y="51.922" style="fill:#FBB040;stroke:#231F20;stroke-width:2;stroke-linecap:round;stroke-linejoin:round;stroke-miterlimit:10;" width="78" height="66"/>
<rect x="8.162" y="64.238" style="fill:#F99C1C;stroke:#231F20;stroke-width:2;stroke-linecap:round;stroke-linejoin:round;stroke-miterlimit:10;" width="157.84" height="118.208"/>
<g>
	<g>
		
			<circle style="fill:#89C765;stroke:#231F20;stroke-linecap:round;stroke-linejoin:round;stroke-miterlimit:10;" cx="132.19" cy="196.374" r="4.85"/>
		
			<rect x="129.997" y="177.093" style="fill:#89C765;stroke:#231F20;stroke-linecap:round;stroke-linejoin:round;stroke-miterlimit:10;" width="4.389" height="18.472"/>
		
			<rect x="136.642" y="179.989" transform="matrix(-0.7074 -0.7068 0.7068 -0.7074 103.3128 421.2142)" style="fill:#89C765;stroke:#231F20;stroke-linecap:round;stroke-linejoin:round;stroke-miterlimit:10;" width="4.386" height="18.472"/>
		
			<rect x="132.248" y="193.776" style="fill:#89C765;stroke:#231F20;stroke-linecap:round;stroke-linejoin:round;stroke-miterlimit:10;" width="18.474" height="4.388"/>
		
			<rect x="136.396" y="193.376" transform="matrix(0.7069 -0.7073 0.7073 0.7069 -102.6917 157.4171)" style="fill:#89C765;stroke:#231F20;stroke-linecap:round;stroke-linejoin:round;stroke-miterlimit:10;" width="4.386" height="18.475"/>
		
			<rect x="129.649" y="196.027" style="fill:#89C765;stroke:#231F20;stroke-linecap:round;stroke-linejoin:round;stroke-miterlimit:10;" width="4.389" height="18.473"/>
		
			<rect x="123.006" y="193.131" transform="matrix(0.707 0.7072 -0.7072 0.707 179.8018 -29.249)" style="fill:#89C765;stroke:#231F20;stroke-linecap:round;stroke-linejoin:round;stroke-miterlimit:10;" width="4.387" height="18.473"/>
		
			<rect x="113.314" y="193.429" style="fill:#89C765;stroke:#231F20;stroke-linecap:round;stroke-linejoin:round;stroke-miterlimit:10;" width="18.473" height="4.388"/>
		
			<rect x="123.251" y="179.741" transform="matrix(-0.7071 0.7071 -0.7071 -0.7071 347.7766 233.9033)" style="fill:#89C765;stroke:#231F20;stroke-linecap:round;stroke-linejoin:round;stroke-miterlimit:10;" width="4.388" height="18.475"/>
		<g>
			<path style="fill:#62A73B;stroke:#231F20;stroke-linecap:round;stroke-linejoin:round;stroke-miterlimit:10;" d="
				M132.134,217.949c11.896,0,21.575-9.679,21.575-21.575c0-11.898-9.68-21.577-21.575-21.577c-11.896,0-21.577,9.679-21.577,21.577
				C110.557,208.271,120.237,217.949,132.134,217.949z M115.176,196.374c0-9.352,7.608-16.959,16.958-16.959
				s16.958,7.607,16.958,16.959c0,9.35-7.608,16.956-16.958,16.956S115.176,205.724,115.176,196.374z"/>
		</g>
	</g>
	
		<circle style="fill:#F7941E;stroke:#231F20;stroke-linecap:round;stroke-linejoin:round;stroke-miterlimit:10;" cx="132.19" cy="196.374" r="7.088"/>
	
		<circle style="fill:#B52025;stroke:#231F20;stroke-linecap:round;stroke-linejoin:round;stroke-miterlimit:10;" cx="132.191" cy="196.374" r="3.566"/>
</g>
<g>
	<g>
		
			<circle style="fill:#89C765;stroke:#231F20;stroke-linecap:round;stroke-linejoin:round;stroke-miterlimit:10;" cx="42.088" cy="196.374" r="4.85"/>
		
			<rect x="39.894" y="177.093" style="fill:#89C765;stroke:#231F20;stroke-linecap:round;stroke-linejoin:round;stroke-miterlimit:10;" width="4.39" height="18.472"/>
		
			<rect x="46.539" y="179.989" transform="matrix(-0.7074 -0.7068 0.7068 -0.7074 -50.5319 357.5322)" style="fill:#89C765;stroke:#231F20;stroke-linecap:round;stroke-linejoin:round;stroke-miterlimit:10;" width="4.386" height="18.472"/>
		
			<rect x="42.146" y="193.776" style="fill:#89C765;stroke:#231F20;stroke-linecap:round;stroke-linejoin:round;stroke-miterlimit:10;" width="18.474" height="4.388"/>
		
			<rect x="46.293" y="193.376" transform="matrix(0.7071 -0.7071 0.7071 0.7071 -129.0678 93.6294)" style="fill:#89C765;stroke:#231F20;stroke-linecap:round;stroke-linejoin:round;stroke-miterlimit:10;" width="4.388" height="18.475"/>
		
			<rect x="39.548" y="196.027" style="fill:#89C765;stroke:#231F20;stroke-linecap:round;stroke-linejoin:round;stroke-miterlimit:10;" width="4.388" height="18.473"/>
		
			<rect x="32.905" y="193.131" transform="matrix(0.707 0.7072 -0.7072 0.707 153.4016 34.4725)" style="fill:#89C765;stroke:#231F20;stroke-linecap:round;stroke-linejoin:round;stroke-miterlimit:10;" width="4.387" height="18.473"/>
		
			<rect x="23.212" y="193.429" style="fill:#89C765;stroke:#231F20;stroke-linecap:round;stroke-linejoin:round;stroke-miterlimit:10;" width="18.472" height="4.388"/>
		
			<rect x="33.149" y="179.742" transform="matrix(-0.7071 0.7071 -0.7071 -0.7071 193.9627 297.6151)" style="fill:#89C765;stroke:#231F20;stroke-linecap:round;stroke-linejoin:round;stroke-miterlimit:10;" width="4.388" height="18.474"/>
		<g>
			<path style="fill:#62A73B;stroke:#231F20;stroke-linecap:round;stroke-linejoin:round;stroke-miterlimit:10;" d="M42.031,217.949
				c11.896,0,21.576-9.679,21.576-21.575c0-11.898-9.681-21.577-21.576-21.577c-11.897,0-21.576,9.679-21.576,21.577
				C20.455,208.271,30.134,217.949,42.031,217.949z M25.073,196.374c0-9.352,7.607-16.959,16.958-16.959
				c9.349,0,16.957,7.607,16.957,16.959c0,9.35-7.608,16.956-16.957,16.956C32.681,213.33,25.073,205.724,25.073,196.374z"/>
		</g>
	</g>
	
		<circle style="fill:#F7941E;stroke:#231F20;stroke-linecap:round;stroke-linejoin:round;stroke-miterlimit:10;" cx="42.088" cy="196.374" r="7.088"/>
	
		<circle style="fill:#B52025;stroke:#231F20;stroke-linecap:round;stroke-linejoin:round;stroke-miterlimit:10;" cx="42.088" cy="196.374" r="3.567"/>
</g>
<rect x="215.985" y="62.239" style="fill:#00A0BF;stroke:#231F20;stroke-width:2;stroke-linecap:round;stroke-linejoin:round;stroke-miterlimit:10;" width="157.841" height="118.208"/>
<g>
	<g>
		<g>
			
				<circle style="fill:#89C765;stroke:#231F20;stroke-linecap:round;stroke-linejoin:round;stroke-miterlimit:10;" cx="340.016" cy="196.375" r="4.849"/>
			
				<rect x="337.822" y="177.094" style="fill:#89C765;stroke:#231F20;stroke-linecap:round;stroke-linejoin:round;stroke-miterlimit:10;" width="4.388" height="18.474"/>
			
				<rect x="344.467" y="179.988" transform="matrix(-0.7071 -0.7071 0.7071 -0.7071 457.9827 568.1528)" style="fill:#89C765;stroke:#231F20;stroke-linecap:round;stroke-linejoin:round;stroke-miterlimit:10;" width="4.386" height="18.475"/>
			
				<rect x="340.073" y="193.777" style="fill:#89C765;stroke:#231F20;stroke-linecap:round;stroke-linejoin:round;stroke-miterlimit:10;" width="18.472" height="4.387"/>
			
				<rect x="344.22" y="193.378" transform="matrix(0.707 -0.7072 0.7072 0.707 -41.7917 304.3568)" style="fill:#89C765;stroke:#231F20;stroke-linecap:round;stroke-linejoin:round;stroke-miterlimit:10;" width="4.387" height="18.472"/>
			
				<rect x="337.476" y="196.028" style="fill:#89C765;stroke:#231F20;stroke-linecap:round;stroke-linejoin:round;stroke-miterlimit:10;" width="4.388" height="18.473"/>
			
				<rect x="330.831" y="193.133" transform="matrix(0.7069 0.7073 -0.7073 0.7069 240.7565 -176.2407)" style="fill:#89C765;stroke:#231F20;stroke-linecap:round;stroke-linejoin:round;stroke-miterlimit:10;" width="4.388" height="18.472"/>
			
				<rect x="321.138" y="193.431" style="fill:#89C765;stroke:#231F20;stroke-linecap:round;stroke-linejoin:round;stroke-miterlimit:10;" width="18.475" height="4.387"/>
			
				<rect x="331.076" y="179.742" transform="matrix(-0.7073 0.7069 -0.7069 -0.7073 702.5875 87.0673)" style="fill:#89C765;stroke:#231F20;stroke-linecap:round;stroke-linejoin:round;stroke-miterlimit:10;" width="4.388" height="18.475"/>
			<g>
				<path style="fill:#62A73B;stroke:#231F20;stroke-linecap:round;stroke-linejoin:round;stroke-miterlimit:10;" d="
					M339.957,217.949c11.898,0,21.576-9.679,21.576-21.574c0-11.897-9.678-21.577-21.576-21.577
					c-11.896,0-21.575,9.68-21.575,21.577C318.382,208.271,328.062,217.949,339.957,217.949z M322.999,196.375
					c0-9.351,7.608-16.959,16.958-16.959c9.352,0,16.958,7.608,16.958,16.959c0,9.349-7.606,16.957-16.958,16.957
					C330.607,213.332,322.999,205.724,322.999,196.375z"/>
			</g>
		</g>
		
			<circle style="fill:#F7941E;stroke:#231F20;stroke-linecap:round;stroke-linejoin:round;stroke-miterlimit:10;" cx="340.015" cy="196.375" r="7.089"/>
		
			<circle style="fill:#B52025;stroke:#231F20;stroke-linecap:round;stroke-linejoin:round;stroke-miterlimit:10;" cx="340.017" cy="196.375" r="3.566"/>
	</g>
	<g>
		<g>
			
				<circle style="fill:#89C765;stroke:#231F20;stroke-linecap:round;stroke-linejoin:round;stroke-miterlimit:10;" cx="249.913" cy="196.375" r="4.849"/>
			
				<rect x="247.719" y="177.094" style="fill:#89C765;stroke:#231F20;stroke-linecap:round;stroke-linejoin:round;stroke-miterlimit:10;" width="4.389" height="18.474"/>
			
				<rect x="254.362" y="179.989" transform="matrix(-0.7072 -0.707 0.707 -0.7072 304.2151 504.4322)" style="fill:#89C765;stroke:#231F20;stroke-linecap:round;stroke-linejoin:round;stroke-miterlimit:10;" width="4.387" height="18.473"/>
			
				<rect x="249.97" y="193.777" style="fill:#89C765;stroke:#231F20;stroke-linecap:round;stroke-linejoin:round;stroke-miterlimit:10;" width="18.474" height="4.387"/>
			
				<rect x="254.117" y="193.378" transform="matrix(0.7072 -0.707 0.707 0.7072 -68.204 240.5329)" style="fill:#89C765;stroke:#231F20;stroke-linecap:round;stroke-linejoin:round;stroke-miterlimit:10;" width="4.388" height="18.472"/>
			
				<rect x="247.373" y="196.028" style="fill:#89C765;stroke:#231F20;stroke-linecap:round;stroke-linejoin:round;stroke-miterlimit:10;" width="4.387" height="18.473"/>
			
				<rect x="240.729" y="193.133" transform="matrix(0.7069 0.7073 -0.7073 0.7069 214.346 -112.5085)" style="fill:#89C765;stroke:#231F20;stroke-linecap:round;stroke-linejoin:round;stroke-miterlimit:10;" width="4.388" height="18.472"/>
			
				<rect x="231.035" y="193.431" style="fill:#89C765;stroke:#231F20;stroke-linecap:round;stroke-linejoin:round;stroke-miterlimit:10;" width="18.474" height="4.387"/>
			
				<rect x="240.974" y="179.743" transform="matrix(-0.7072 0.707 -0.707 -0.7072 548.7476 150.7109)" style="fill:#89C765;stroke:#231F20;stroke-linecap:round;stroke-linejoin:round;stroke-miterlimit:10;" width="4.387" height="18.473"/>
			<g>
				<path style="fill:#62A73B;stroke:#231F20;stroke-linecap:round;stroke-linejoin:round;stroke-miterlimit:10;" d="
					M249.855,217.949c11.896,0,21.575-9.679,21.575-21.574c0-11.897-9.679-21.577-21.575-21.577s-21.577,9.68-21.577,21.577
					C228.278,208.271,237.959,217.949,249.855,217.949z M232.897,196.375c0-9.351,7.608-16.959,16.958-16.959
					s16.958,7.608,16.958,16.959c0,9.349-7.608,16.957-16.958,16.957S232.897,205.724,232.897,196.375z"/>
			</g>
		</g>
		
			<circle style="fill:#F7941E;stroke:#231F20;stroke-linecap:round;stroke-linejoin:round;stroke-miterlimit:10;" cx="249.912" cy="196.375" r="7.088"/>
		
			<circle style="fill:#B52025;stroke:#231F20;stroke-linecap:round;stroke-linejoin:round;stroke-miterlimit:10;" cx="249.913" cy="196.375" r="3.566"/>
	</g>
</g>
<path style="fill:#7B0000;stroke:#231F20;stroke-width:2;stroke-linecap:round;stroke-linejoin:round;stroke-miterlimit:10;" d="
	M570,108.059c0,15.656-12.691,28.348-28.347,28.348h-70.307c-15.656,0-28.347-12.691-28.347-28.348V62.752
	c0-15.655,12.691-28.346,28.347-28.346h70.307c15.656,0,28.347,12.69,28.347,28.346V108.059z"/>
<rect x="428.162" y="63.723" style="fill:#89C765;stroke:#231F20;stroke-width:2;stroke-linecap:round;stroke-linejoin:round;stroke-miterlimit:10;" width="157.84" height="118.207"/>
<g>
	<g>
		
			<circle style="fill:#89C765;stroke:#231F20;stroke-linecap:round;stroke-linejoin:round;stroke-miterlimit:10;" cx="552.19" cy="197.857" r="4.85"/>
		
			<rect x="549.997" y="178.576" style="fill:#89C765;stroke:#231F20;stroke-linecap:round;stroke-linejoin:round;stroke-miterlimit:10;" width="4.389" height="18.473"/>
		
			<rect x="556.642" y="181.473" transform="matrix(-0.7074 -0.7068 0.7068 -0.7074 819.3888 720.5933)" style="fill:#89C765;stroke:#231F20;stroke-linecap:round;stroke-linejoin:round;stroke-miterlimit:10;" width="4.386" height="18.472"/>
		
			<rect x="552.248" y="195.26" style="fill:#89C765;stroke:#231F20;stroke-linecap:round;stroke-linejoin:round;stroke-miterlimit:10;" width="18.474" height="4.389"/>
		
			<rect x="556.396" y="194.86" transform="matrix(0.707 -0.7072 0.7072 0.707 19.3275 454.8457)" style="fill:#89C765;stroke:#231F20;stroke-linecap:round;stroke-linejoin:round;stroke-miterlimit:10;" width="4.386" height="18.475"/>
		
			<rect x="549.649" y="197.512" style="fill:#89C765;stroke:#231F20;stroke-linecap:round;stroke-linejoin:round;stroke-miterlimit:10;" width="4.389" height="18.473"/>
		
			<rect x="543.007" y="194.614" transform="matrix(0.7071 0.7071 -0.7071 0.7071 303.8294 -325.808)" style="fill:#89C765;stroke:#231F20;stroke-linecap:round;stroke-linejoin:round;stroke-miterlimit:10;" width="4.386" height="18.472"/>
		
			<rect x="533.314" y="194.912" style="fill:#89C765;stroke:#231F20;stroke-linecap:round;stroke-linejoin:round;stroke-miterlimit:10;" width="18.473" height="4.389"/>
		
			<rect x="543.252" y="181.224" transform="matrix(-0.7072 0.707 -0.707 -0.7072 1065.8499 -60.4674)" style="fill:#89C765;stroke:#231F20;stroke-linecap:round;stroke-linejoin:round;stroke-miterlimit:10;" width="4.387" height="18.475"/>
		<g>
			<path style="fill:#62A73B;stroke:#231F20;stroke-linecap:round;stroke-linejoin:round;stroke-miterlimit:10;" d="
				M552.134,219.434c11.896,0,21.575-9.68,21.575-21.576c0-11.898-9.68-21.576-21.575-21.576c-11.896,0-21.577,9.678-21.577,21.576
				C530.557,209.754,540.237,219.434,552.134,219.434z M535.176,197.857c0-9.352,7.608-16.959,16.958-16.959
				s16.958,7.607,16.958,16.959c0,9.35-7.608,16.957-16.958,16.957S535.176,207.207,535.176,197.857z"/>
		</g>
	</g>
	
		<circle style="fill:#F7941E;stroke:#231F20;stroke-linecap:round;stroke-linejoin:round;stroke-miterlimit:10;" cx="552.19" cy="197.857" r="7.088"/>
	
		<circle style="fill:#B52025;stroke:#231F20;stroke-linecap:round;stroke-linejoin:round;stroke-miterlimit:10;" cx="552.191" cy="197.857" r="3.566"/>
</g>
<g>
	<g>
		
			<circle style="fill:#89C765;stroke:#231F20;stroke-linecap:round;stroke-linejoin:round;stroke-miterlimit:10;" cx="462.088" cy="197.857" r="4.85"/>
		
			<rect x="459.894" y="178.576" style="fill:#89C765;stroke:#231F20;stroke-linecap:round;stroke-linejoin:round;stroke-miterlimit:10;" width="4.39" height="18.473"/>
		
			<rect x="466.539" y="181.473" transform="matrix(-0.7074 -0.7068 0.7068 -0.7074 665.5441 656.9113)" style="fill:#89C765;stroke:#231F20;stroke-linecap:round;stroke-linejoin:round;stroke-miterlimit:10;" width="4.386" height="18.472"/>
		
			<rect x="462.146" y="195.26" style="fill:#89C765;stroke:#231F20;stroke-linecap:round;stroke-linejoin:round;stroke-miterlimit:10;" width="18.474" height="4.389"/>
		
			<rect x="466.293" y="194.86" transform="matrix(0.7072 -0.707 0.707 0.7072 -7.1317 390.9742)" style="fill:#89C765;stroke:#231F20;stroke-linecap:round;stroke-linejoin:round;stroke-miterlimit:10;" width="4.387" height="18.476"/>
		
			<rect x="459.548" y="197.512" style="fill:#89C765;stroke:#231F20;stroke-linecap:round;stroke-linejoin:round;stroke-miterlimit:10;" width="4.388" height="18.473"/>
		
			<rect x="452.905" y="194.614" transform="matrix(0.7071 0.7071 -0.7071 0.7071 277.4393 -262.0965)" style="fill:#89C765;stroke:#231F20;stroke-linecap:round;stroke-linejoin:round;stroke-miterlimit:10;" width="4.386" height="18.472"/>
		
			<rect x="443.212" y="194.912" style="fill:#89C765;stroke:#231F20;stroke-linecap:round;stroke-linejoin:round;stroke-miterlimit:10;" width="18.472" height="4.389"/>
		
			<rect x="453.15" y="181.225" transform="matrix(-0.7072 0.707 -0.707 -0.7072 912.0259 3.2344)" style="fill:#89C765;stroke:#231F20;stroke-linecap:round;stroke-linejoin:round;stroke-miterlimit:10;" width="4.387" height="18.475"/>
		<g>
			<path style="fill:#62A73B;stroke:#231F20;stroke-linecap:round;stroke-linejoin:round;stroke-miterlimit:10;" d="
				M462.031,219.434c11.896,0,21.576-9.68,21.576-21.576c0-11.898-9.681-21.576-21.576-21.576c-11.897,0-21.576,9.678-21.576,21.576
				C440.455,209.754,450.134,219.434,462.031,219.434z M445.073,197.857c0-9.352,7.607-16.959,16.958-16.959
				c9.349,0,16.957,7.607,16.957,16.959c0,9.35-7.608,16.957-16.957,16.957C452.681,214.814,445.073,207.207,445.073,197.857z"/>
		</g>
	</g>
	
		<circle style="fill:#F7941E;stroke:#231F20;stroke-linecap:round;stroke-linejoin:round;stroke-miterlimit:10;" cx="462.088" cy="197.857" r="7.088"/>
	
		<circle style="fill:#B52025;stroke:#231F20;stroke-linecap:round;stroke-linejoin:round;stroke-miterlimit:10;" cx="462.088" cy="197.857" r="3.567"/>
</g>
<rect x="635.985" y="62.239" style="fill:#FFDC2F;stroke:#231F20;stroke-width:2;stroke-linecap:round;stroke-linejoin:round;stroke-miterlimit:10;" width="157.841" height="118.208"/>
<g>
	<g>
		
			<circle style="fill:#89C765;stroke:#231F20;stroke-linecap:round;stroke-linejoin:round;stroke-miterlimit:10;" cx="760.016" cy="196.375" r="4.849"/>
		
			<rect x="757.822" y="177.094" style="fill:#89C765;stroke:#231F20;stroke-linecap:round;stroke-linejoin:round;stroke-miterlimit:10;" width="4.388" height="18.474"/>
		
			<rect x="764.467" y="179.988" transform="matrix(-0.7071 -0.7071 0.7071 -0.7071 1174.9675 865.1377)" style="fill:#89C765;stroke:#231F20;stroke-linecap:round;stroke-linejoin:round;stroke-miterlimit:10;" width="4.386" height="18.475"/>
		
			<rect x="760.073" y="193.777" style="fill:#89C765;stroke:#231F20;stroke-linecap:round;stroke-linejoin:round;stroke-miterlimit:10;" width="18.472" height="4.387"/>
		
			<rect x="764.22" y="193.378" transform="matrix(0.707 -0.7072 0.7072 0.707 81.2701 601.3884)" style="fill:#89C765;stroke:#231F20;stroke-linecap:round;stroke-linejoin:round;stroke-miterlimit:10;" width="4.387" height="18.472"/>
		
			<rect x="757.476" y="196.028" style="fill:#89C765;stroke:#231F20;stroke-linecap:round;stroke-linejoin:round;stroke-miterlimit:10;" width="4.388" height="18.473"/>
		
			<rect x="750.831" y="193.133" transform="matrix(0.7069 0.7073 -0.7073 0.7069 363.8651 -473.319)" style="fill:#89C765;stroke:#231F20;stroke-linecap:round;stroke-linejoin:round;stroke-miterlimit:10;" width="4.388" height="18.472"/>
		
			<rect x="741.138" y="193.431" style="fill:#89C765;stroke:#231F20;stroke-linecap:round;stroke-linejoin:round;stroke-miterlimit:10;" width="18.475" height="4.387"/>
		
			<rect x="751.076" y="179.742" transform="matrix(-0.7073 0.7069 -0.7069 -0.7073 1419.6658 -209.8241)" style="fill:#89C765;stroke:#231F20;stroke-linecap:round;stroke-linejoin:round;stroke-miterlimit:10;" width="4.388" height="18.475"/>
		<g>
			<path style="fill:#62A73B;stroke:#231F20;stroke-linecap:round;stroke-linejoin:round;stroke-miterlimit:10;" d="
				M759.957,217.949c11.898,0,21.576-9.679,21.576-21.574c0-11.897-9.678-21.577-21.576-21.577c-11.896,0-21.575,9.68-21.575,21.577
				C738.382,208.271,748.062,217.949,759.957,217.949z M742.999,196.375c0-9.351,7.608-16.959,16.958-16.959
				c9.352,0,16.958,7.608,16.958,16.959c0,9.349-7.606,16.957-16.958,16.957C750.607,213.332,742.999,205.724,742.999,196.375z"/>
		</g>
	</g>
	
		<circle style="fill:#F7941E;stroke:#231F20;stroke-linecap:round;stroke-linejoin:round;stroke-miterlimit:10;" cx="760.015" cy="196.375" r="7.089"/>
	
		<circle style="fill:#B52025;stroke:#231F20;stroke-linecap:round;stroke-linejoin:round;stroke-miterlimit:10;" cx="760.017" cy="196.375" r="3.566"/>
</g>
<g>
	<g>
		
			<circle style="fill:#89C765;stroke:#231F20;stroke-linecap:round;stroke-linejoin:round;stroke-miterlimit:10;" cx="669.913" cy="196.375" r="4.849"/>
		
			<rect x="667.719" y="177.094" style="fill:#89C765;stroke:#231F20;stroke-linecap:round;stroke-linejoin:round;stroke-miterlimit:10;" width="4.389" height="18.474"/>
		
			<rect x="674.362" y="179.989" transform="matrix(-0.7072 -0.707 0.707 -0.7072 1021.2468 801.3703)" style="fill:#89C765;stroke:#231F20;stroke-linecap:round;stroke-linejoin:round;stroke-miterlimit:10;" width="4.387" height="18.473"/>
		
			<rect x="669.97" y="193.777" style="fill:#89C765;stroke:#231F20;stroke-linecap:round;stroke-linejoin:round;stroke-miterlimit:10;" width="18.474" height="4.387"/>
		
			<rect x="674.117" y="193.378" transform="matrix(0.7072 -0.707 0.707 0.7072 54.7644 537.471)" style="fill:#89C765;stroke:#231F20;stroke-linecap:round;stroke-linejoin:round;stroke-miterlimit:10;" width="4.388" height="18.472"/>
		
			<rect x="667.373" y="196.028" style="fill:#89C765;stroke:#231F20;stroke-linecap:round;stroke-linejoin:round;stroke-miterlimit:10;" width="4.387" height="18.473"/>
		
			<rect x="660.729" y="193.133" transform="matrix(0.7069 0.7073 -0.7073 0.7069 337.4547 -409.5868)" style="fill:#89C765;stroke:#231F20;stroke-linecap:round;stroke-linejoin:round;stroke-miterlimit:10;" width="4.388" height="18.472"/>
		
			<rect x="651.035" y="193.431" style="fill:#89C765;stroke:#231F20;stroke-linecap:round;stroke-linejoin:round;stroke-miterlimit:10;" width="18.474" height="4.387"/>
		
			<rect x="660.974" y="179.743" transform="matrix(-0.7072 0.707 -0.707 -0.7072 1265.7791 -146.2272)" style="fill:#89C765;stroke:#231F20;stroke-linecap:round;stroke-linejoin:round;stroke-miterlimit:10;" width="4.387" height="18.473"/>
		<g>
			<path style="fill:#62A73B;stroke:#231F20;stroke-linecap:round;stroke-linejoin:round;stroke-miterlimit:10;" d="
				M669.855,217.949c11.896,0,21.575-9.679,21.575-21.574c0-11.897-9.679-21.577-21.575-21.577s-21.577,9.68-21.577,21.577
				C648.278,208.271,657.959,217.949,669.855,217.949z M652.897,196.375c0-9.351,7.608-16.959,16.958-16.959
				s16.958,7.608,16.958,16.959c0,9.349-7.608,16.957-16.958,16.957S652.897,205.724,652.897,196.375z"/>
		</g>
	</g>
	
		<circle style="fill:#F7941E;stroke:#231F20;stroke-linecap:round;stroke-linejoin:round;stroke-miterlimit:10;" cx="669.912" cy="196.375" r="7.088"/>
	
		<circle style="fill:#B52025;stroke:#231F20;stroke-linecap:round;stroke-linejoin:round;stroke-miterlimit:10;" cx="669.913" cy="196.375" r="3.566"/>
</g>
<path style="fill:#28A1DB;stroke:#231F20;stroke-width:2;stroke-linecap:round;stroke-linejoin:round;stroke-miterlimit:10;" d="
	M1137.932,158.324c0,0-0.734,5.385,0.734,8.079c1.469,2.691,29.623,41.128,29.623,41.128c-16.158,10.281-58.756,6.121-59.735,6.121
	s-4.162-50.921-4.162-50.921L1137.932,158.324z"/>
<g>
	<polygon style="fill:#2D3F99;" points="1158.105,207.206 1164.051,205.488 1137.164,165.452 1134.723,165.59 	"/>
	<path style="fill:#231F20;" d="M1158.155,207.081c0.938-0.367,1.884-0.712,2.832-1.05c0.974-0.346,1.94-0.713,2.92-1.038
		l-0.284,0.782c-2.408-3.224-4.743-6.496-7.017-9.811c-2.306-3.293-4.48-6.674-6.548-10.126l-3.141-5.152
		c-1.067-1.704-2.162-3.39-3.284-5.056c-2.237-3.338-4.623-6.578-6.997-9.824l0.562,0.279l-2.435,0.238l0.6-1.095l3.067,5.121
		l3.003,5.157c2.008,3.435,3.996,6.88,5.884,10.382c1.921,3.483,3.761,7.013,5.596,10.545
		C1154.697,199.963,1156.488,203.487,1158.155,207.081z M1158.019,207.255c-2.22-3.315-4.312-6.703-6.413-10.085
		c-2.062-3.404-4.119-6.812-6.096-10.264c-2.01-3.434-3.918-6.925-5.808-10.426l-2.842-5.247l-2.779-5.283l-0.023-0.044
		c-0.185-0.352-0.05-0.784,0.301-0.969c0.103-0.054,0.215-0.08,0.323-0.082l2.446-0.037l0.052-0.001
		c0.215-0.003,0.406,0.11,0.512,0.28c2.107,3.426,4.203,6.859,6.446,10.194c1.118,1.669,2.265,3.32,3.438,4.952l3.581,4.857
		c2.414,3.221,4.721,6.512,6.896,9.893c2.208,3.358,4.354,6.758,6.427,10.207l0.024,0.039c0.142,0.237,0.065,0.544-0.171,0.687
		c-0.044,0.026-0.092,0.045-0.139,0.057c-1.002,0.247-2.016,0.452-3.024,0.68c-1.008,0.226-2.019,0.444-3.036,0.64
		C1158.088,207.312,1158.043,207.291,1158.019,207.255z"/>
</g>
<polygon style="fill:#3E79BD;" points="1137.296,165.472 1164.184,205.488 1158.106,207.206 1157.66,206.412 1161.805,205.224 
	1136.167,165.47 "/>
<g>
	<polygon style="fill:#2D3F99;" points="1142.25,210.068 1148.268,209.366 1128.732,166.387 1126.383,166.251 	"/>
	<path style="fill:#231F20;" d="M1142.319,209.953c0.965-0.205,1.933-0.387,2.901-0.562c0.996-0.179,1.989-0.379,2.987-0.537
		l-0.41,0.727c-1.812-3.498-3.543-7.033-5.207-10.599c-1.699-3.549-3.253-7.165-4.69-10.832l-2.201-5.481
		c-0.756-1.818-1.542-3.621-2.359-5.41c-1.627-3.582-3.414-7.092-5.188-10.607l0.544,0.374l-2.355-0.036l0.737-0.988l2.137,5.422
		l2.07,5.445c1.386,3.629,2.751,7.264,4.008,10.939c1.291,3.662,2.497,7.355,3.696,11.053
		C1140.137,202.543,1141.295,206.225,1142.319,209.953z M1142.156,210.103c-1.614-3.546-3.091-7.142-4.578-10.733
		c-1.445-3.606-2.884-7.216-4.237-10.856c-1.388-3.628-2.667-7.294-3.926-10.969l-1.896-5.509l-1.829-5.533l-0.017-0.049
		c-0.124-0.376,0.08-0.781,0.456-0.906c0.098-0.032,0.2-0.042,0.297-0.033l2.344,0.235l0.053,0.005
		c0.227,0.023,0.411,0.172,0.491,0.369c1.481,3.648,2.95,7.302,4.579,10.883c0.811,1.793,1.652,3.57,2.524,5.335l2.683,5.263
		c1.818,3.496,3.521,7.043,5.077,10.657c1.592,3.599,3.116,7.227,4.561,10.892l0.018,0.045c0.101,0.257-0.025,0.547-0.282,0.648
		c-0.047,0.018-0.098,0.029-0.146,0.033c-1.008,0.076-2.021,0.109-3.03,0.165c-1.01,0.054-2.021,0.103-3.035,0.124
		C1142.216,210.17,1142.175,210.142,1142.156,210.103z"/>
</g>
<polygon style="fill:#3E79BD;" points="1128.859,166.301 1148.396,209.486 1142.25,210.167 1141.947,209.33 1146.141,208.849 
	1127.766,166.293 "/>
<g>
	<polygon style="fill:#2D3F99;" points="1125.234,210.938 1131.535,210.938 1118.75,166.444 1116.424,166.103 	"/>
	<path style="fill:#231F20;" d="M1125.32,210.831c1.021-0.098,2.043-0.167,3.064-0.233c1.05-0.07,2.101-0.148,3.15-0.193
		l-0.512,0.68c-1.25-3.654-2.428-7.33-3.524-11.028c-1.138-3.687-2.11-7.422-2.979-11.186c-0.889-3.759-1.764-7.521-2.867-11.218
		c-1.068-3.707-2.303-7.366-3.522-11.029l0.526,0.459l-2.341-0.241l0.841-0.882c0.856,3.712,1.666,7.434,2.448,11.16
		c0.8,3.724,1.577,7.451,2.241,11.201c0.701,3.742,1.314,7.502,1.92,11.264C1124.324,203.326,1124.891,207.064,1125.32,210.831z
		 M1125.137,210.957c-1.038-3.677-1.933-7.381-2.839-11.084c-0.863-3.711-1.718-7.424-2.485-11.153
		c-0.805-3.722-1.495-7.468-2.164-11.216c-0.686-3.746-1.345-7.497-1.957-11.258l-0.009-0.055c-0.063-0.395,0.204-0.766,0.598-0.83
		c0.085-0.014,0.172-0.012,0.252,0.003l2.312,0.442l0.054,0.01c0.239,0.045,0.418,0.228,0.473,0.449
		c0.911,3.753,1.808,7.509,2.87,11.218c1.027,3.718,2.283,7.372,3.525,11.028c1.261,3.652,2.42,7.332,3.413,11.061
		c1.034,3.717,1.987,7.457,2.868,11.218l0.012,0.048c0.064,0.277-0.107,0.555-0.384,0.619c-0.046,0.011-0.095,0.016-0.14,0.014
		c-1.05-0.045-2.101-0.123-3.15-0.193c-1.05-0.068-2.101-0.138-3.15-0.24C1125.188,211.033,1125.149,211,1125.137,210.957z"/>
</g>
<polygon style="fill:#3E79BD;" points="1118.75,166.444 1131.535,210.938 1125.234,210.938 1125.063,210.064 1129.207,209.946 
	1117.663,166.35 "/>
<g>
	<polygon style="fill:#2D3F99;" points="1109.893,211.152 1116.078,211.384 1108.566,164.461 1106.294,163.553 	"/>
	<path style="fill:#231F20;" d="M1109.99,211.049c1.003-0.055,2.006-0.086,3.008-0.11c1.033-0.024,2.066-0.069,3.1-0.071
		l-0.53,0.598c-0.823-3.878-1.561-7.771-2.227-11.674c-0.703-3.898-1.258-7.82-1.678-11.764c-0.454-3.938-0.86-7.883-1.517-11.788
		c-0.616-3.911-1.411-7.795-2.193-11.681l0.383,0.479l-2.311-0.813l0.989-0.726c0.438,3.957,0.816,7.917,1.166,11.88
		c0.368,3.962,0.717,7.925,0.949,11.896c0.268,3.969,0.446,7.944,0.614,11.921C1109.868,203.144,1110,207.091,1109.99,211.049z
		 M1109.793,211.16c-0.611-3.943-1.076-7.897-1.551-11.852c-0.433-3.956-0.854-7.914-1.186-11.877
		c-0.367-3.963-0.618-7.933-0.851-11.904c-0.25-3.971-0.472-7.943-0.633-11.92l-0.002-0.055c-0.016-0.389,0.286-0.717,0.675-0.732
		c0.111-0.004,0.221,0.02,0.316,0.062l2.234,1.003l0.046,0.021c0.191,0.085,0.312,0.264,0.337,0.458
		c0.47,3.936,0.927,7.872,1.562,11.781c0.596,3.914,1.441,7.789,2.239,11.672c0.832,3.878,1.529,7.776,2.078,11.699
		c0.586,3.916,1.101,7.844,1.529,11.786l0.005,0.047c0.03,0.274-0.168,0.521-0.442,0.551c-0.03,0.003-0.063,0.004-0.093,0.001
		c-1.029-0.08-2.057-0.201-3.086-0.303c-1.028-0.102-2.057-0.21-3.084-0.346C1109.839,211.246,1109.801,211.207,1109.793,211.16z"/>
</g>
<polygon style="fill:#3E79BD;" points="1108.678,164.534 1116.078,211.384 1109.893,211.152 1109.824,210.245 1114.096,210.292 
	1107.654,164.055 "/>
<g>
	<path style="fill:#28A1DB;" d="M1091.996,138.31l2.563,1.52c1.553,6.803,3.854,12.281,8.19,15.026
		c2.598,1.646,10.107,3.271,10.107,3.271h25.166v7.135h-25.166v-0.334c-5.688-0.564-11.354-2.893-14.863-6.338
		C1093.189,153.871,1091.996,146.952,1091.996,138.31z"/>
	<path style="fill:#231F20;" d="M1092.047,138.224c0.892,0.443,1.78,0.893,2.659,1.358c0.062,0.033,0.105,0.09,0.124,0.152
		l0.009,0.031c0.656,2.25,1.388,4.473,2.314,6.584c0.916,2.111,2.07,4.111,3.578,5.742c0.755,0.811,1.618,1.508,2.535,2.076
		c0.886,0.516,1.993,0.912,3.071,1.27c2.185,0.709,4.453,1.303,6.698,1.863l-0.179-0.02c2.098,0.04,4.194,0.14,6.292,0.206
		l6.291,0.229c4.194,0.13,8.389,0.127,12.583,0.058c0.19-0.003,0.349,0.149,0.352,0.341l0,0v0.011
		c0.035,2.378,0.131,4.757,0.193,7.135c0.008,0.291-0.222,0.534-0.513,0.544h-0.032l-6.292,0.21l-6.291,0.142l-12.583,0.162
		c-0.576,0.008-1.05-0.453-1.058-1.03l0,0v-0.027l-0.005-0.334l0.957,1.057c-3.284-0.327-6.518-1.175-9.5-2.618
		c-2.97-1.409-5.77-3.492-7.689-6.258c-0.959-1.375-1.707-2.879-2.259-4.431c-0.54-1.559-0.896-3.157-1.136-4.759
		c-0.481-3.207-0.464-6.426-0.271-9.608c0.003-0.058,0.052-0.101,0.109-0.097C1092.021,138.213,1092.035,138.218,1092.047,138.224z
		 M1092.113,138.51c0.199,3.109,0.507,6.209,1.166,9.201c0.693,3.043,1.833,5.979,3.69,8.363c1.833,2.411,4.383,4.141,7.158,5.418
		c2.788,1.246,5.789,2.062,8.834,2.378l0.018,0.001c0.543,0.057,0.945,0.521,0.94,1.056l-0.005,0.334l-1.058-1.058l12.583,0.162
		l6.291,0.142l6.292,0.21l-0.545,0.544c0.062-2.378,0.158-4.757,0.193-7.135l0.352,0.352c-4.194-0.069-8.389-0.072-12.583,0.058
		l-6.291,0.229c-2.098,0.066-4.194,0.166-6.292,0.206c-0.051,0-0.101-0.004-0.148-0.014l-0.03-0.006
		c-2.341-0.473-4.63-1.054-6.907-1.83c-1.139-0.408-2.263-0.809-3.402-1.494c-1.077-0.68-2.011-1.531-2.825-2.469
		c-1.634-1.885-2.714-4.107-3.533-6.354c-0.808-2.26-1.335-4.582-1.73-6.912l0.133,0.184
		C1093.64,139.566,1092.875,139.04,1092.113,138.51z"/>
</g>
<path style="fill:#534A29;stroke:#231F20;stroke-width:2;stroke-linecap:round;stroke-linejoin:round;stroke-miterlimit:10;" d="
	M1089.672,146.038v47.956h-61.29c-1.414-8.324-8.655-14.664-17.382-14.664c-8.728,0-15.969,6.34-17.383,14.664H868.121v-47.956
	H1089.672z"/>
<g>
	<rect x="1092.248" y="69.347" style="fill:#28A1DB;" width="3.369" height="7.927"/>
	<path style="fill:#231F20;" d="M1092.386,77.133c1.079-0.406,2.153-0.594,3.231-0.695l-0.836,0.836
		c-0.049-0.66-0.099-1.321-0.032-1.982c0.062-0.66,0.233-1.32,0.376-1.98c0.3-1.322,0.213-2.643-0.056-3.964l0.548,0.548
		c-0.562,0.105-1.123,0.224-1.685,0.293c-0.562,0.063-1.123,0.102-1.685,0.148l0.989-0.989c0.043,0.661,0.097,1.321,0.084,1.981
		c-0.011,0.661-0.053,1.321-0.134,1.982c-0.065,0.66-0.173,1.32-0.304,1.981C1092.757,75.905,1092.6,76.52,1092.386,77.133z
		 M1092.148,77.273c-0.242-0.66-0.399-1.321-0.536-1.981c-0.131-0.661-0.238-1.321-0.304-1.981
		c-0.081-0.661-0.123-1.321-0.134-1.982c-0.013-0.66,0.041-1.32,0.084-1.981l0.01-0.144c0.032-0.5,0.465-0.879,0.965-0.846h0.015
		c0.562,0.047,1.123,0.085,1.685,0.148c0.562,0.069,1.123,0.188,1.685,0.293l0.206,0.039c0.233,0.045,0.387,0.27,0.343,0.503
		l-0.001,0.006c-0.269,1.321-0.355,2.642-0.056,3.964c0.143,0.66,0.313,1.32,0.376,1.98c0.066,0.661,0.017,1.322-0.032,1.982
		l-0.01,0.139c-0.031,0.417-0.395,0.729-0.811,0.699l-0.016-0.002c-1.123-0.105-2.246-0.293-3.369-0.736
		C1092.201,77.356,1092.165,77.316,1092.148,77.273z"/>
</g>
<circle style="fill:#F9ED32;stroke:#231F20;stroke-linecap:round;stroke-linejoin:round;stroke-miterlimit:10;" cx="1100.769" cy="65.78" r="7.53"/>
<path style="fill:#28A1DB;stroke:#231F20;stroke-width:2;stroke-linecap:round;stroke-linejoin:round;stroke-miterlimit:10;" d="
	M1091.555,65.78c0.297,9.908,10.205,10.801,10.205,10.801V54.979C1101.76,54.979,1091.275,56.47,1091.555,65.78z"/>
<rect x="967.998" y="76.025" style="fill:#36C3E0;stroke:#231F20;stroke-width:2;stroke-linecap:round;stroke-linejoin:round;stroke-miterlimit:10;" width="129.204" height="71.604"/>
<path style="fill:#28A1DB;" d="M1094.256,138.548c-3.035-0.442-50.73,7.926-77.682-2.379c-41.197-15.751-46.91-37.462-46.992-36.767
	c-0.197,1.717,0.265,48.618,0.265,48.618s119.957-0.265,126.563-0.265L1094.256,138.548z"/>
<path style="fill:#28A1DB;stroke:#231F20;stroke-width:2;stroke-linecap:round;stroke-linejoin:round;stroke-miterlimit:10;" d="
	M1096.41,76.149c0.199,0,0.736-0.124,0.736-0.124l37.877,35.782l-37.365,35.379c-0.172,0.289-0.331,0.444-0.471,0.444
	c-1.443,0-5.271-15.728-5.271-35.608S1094.965,76.149,1096.41,76.149z"/>
<rect x="844.605" y="6.925" style="fill:#36C3E0;stroke:#231F20;stroke-width:2;stroke-linecap:round;stroke-linejoin:round;stroke-miterlimit:10;" width="126.299" height="134.754"/>
<g>
	<rect x="859.137" y="141.679" style="fill:#EF4136;" width="112.031" height="12.154"/>
	<path style="fill:#231F20;" d="M859.239,153.73c4.634-0.176,9.268-0.281,13.901-0.396l14.004-0.245
		c9.336-0.099,18.672-0.184,28.008-0.145c4.668,0.023,9.336,0.096,14.004,0.191l14.004,0.26c9.336,0.187,18.672,0.129,28.008,0.066
		l-0.37,0.37l-0.178-12.154l0.548,0.548c-9.336,0.177-18.672,0.303-28.008,0.373c-9.336,0.045-18.672,0.158-28.008,0.146
		c-9.336,0.008-18.672-0.058-28.008-0.179c-9.336-0.085-18.672-0.256-28.008-0.451l0.438-0.438L859.239,153.73z M859.037,153.833
		l-0.338-12.154c-0.007-0.235,0.179-0.431,0.413-0.437h0.001l0.023-0.001c9.336-0.195,18.672-0.366,28.008-0.451
		c9.336-0.121,18.672-0.187,28.008-0.179c9.336-0.012,18.672,0.102,28.008,0.146c9.336,0.07,18.672,0.196,28.008,0.373h0.019
		c0.297,0.006,0.533,0.251,0.529,0.548l-0.178,12.154v0.008c-0.003,0.202-0.169,0.364-0.37,0.362
		c-9.336-0.062-18.672-0.12-28.008,0.066l-14.004,0.26c-4.668,0.096-9.336,0.168-14.004,0.191
		c-9.336,0.039-18.672-0.046-28.008-0.145l-14.004-0.245c-4.668-0.115-9.336-0.22-14.004-0.397
		C859.082,153.932,859.039,153.887,859.037,153.833z"/>
</g>
<path style="fill:#E2F3F2;stroke:#231F20;stroke-width:2;stroke-linecap:round;stroke-linejoin:round;stroke-miterlimit:10;" d="
	M914.096,92.531c0,5.255,4.914,9.514,10.975,9.514h25.61c6.062,0,10.976-4.259,10.976-9.514V47.086
	c0-5.252-4.914-9.512-10.976-9.512h-25.61c-6.061,0-10.975,4.26-10.975,9.512V92.531z"/>
<path style="fill:#E2F3F2;stroke:#231F20;stroke-width:2;stroke-linecap:round;stroke-linejoin:round;stroke-miterlimit:10;" d="
	M860.723,129.593c0,5.287,4.259,9.575,9.513,9.575h22.194c5.254,0,9.512-4.288,9.512-9.575V47.148c0-5.288-4.258-9.574-9.512-9.574
	h-22.194c-5.254,0-9.513,4.286-9.513,9.574V129.593z"/>
<g>
	<g>
		
			<circle style="fill:#89C765;stroke:#231F20;stroke-linecap:round;stroke-linejoin:round;stroke-miterlimit:10;" cx="979.392" cy="180.915" r="8.323"/>
		
			<rect x="975.627" y="147.822" style="fill:#89C765;stroke:#231F20;stroke-linecap:round;stroke-linejoin:round;stroke-miterlimit:10;" width="7.529" height="31.706"/>
		
			<rect x="987.029" y="152.791" transform="matrix(-0.7072 -0.707 0.707 -0.7072 1572.2933 988.3854)" style="fill:#89C765;stroke:#231F20;stroke-linecap:round;stroke-linejoin:round;stroke-miterlimit:10;" width="7.531" height="31.707"/>
		
			<rect x="979.49" y="176.457" style="fill:#89C765;stroke:#231F20;stroke-linecap:round;stroke-linejoin:round;stroke-miterlimit:10;" width="31.707" height="7.529"/>
		
			<rect x="986.61" y="175.771" transform="matrix(0.7072 -0.707 0.707 0.7072 154.4713 756.2736)" style="fill:#89C765;stroke:#231F20;stroke-linecap:round;stroke-linejoin:round;stroke-miterlimit:10;" width="7.531" height="31.709"/>
		
			<rect x="975.032" y="180.32" style="fill:#89C765;stroke:#231F20;stroke-linecap:round;stroke-linejoin:round;stroke-miterlimit:10;" width="7.53" height="31.707"/>
		
			<rect x="963.629" y="175.351" transform="matrix(0.7072 0.707 -0.707 0.7072 418.4698 -627.9982)" style="fill:#89C765;stroke:#231F20;stroke-linecap:round;stroke-linejoin:round;stroke-miterlimit:10;" width="7.53" height="31.707"/>
		
			<rect x="946.992" y="175.861" style="fill:#89C765;stroke:#231F20;stroke-linecap:round;stroke-linejoin:round;stroke-miterlimit:10;" width="31.707" height="7.531"/>
		
			<rect x="964.05" y="152.371" transform="matrix(-0.7071 0.7071 -0.7071 -0.7071 1771.1158 -397.172)" style="fill:#89C765;stroke:#231F20;stroke-linecap:round;stroke-linejoin:round;stroke-miterlimit:10;" width="7.53" height="31.707"/>
		<g>
			<path style="fill:#62A73B;stroke:#231F20;stroke-linecap:round;stroke-linejoin:round;stroke-miterlimit:10;" d="
				M979.293,217.949c20.42,0,37.033-16.614,37.033-37.034c0-20.421-16.613-37.032-37.033-37.032s-37.033,16.611-37.033,37.032
				C942.26,201.335,958.873,217.949,979.293,217.949z M950.187,180.915c0-16.049,13.058-29.105,29.106-29.105
				s29.105,13.057,29.105,29.105s-13.057,29.106-29.105,29.106S950.187,196.964,950.187,180.915z"/>
		</g>
		<g>
			
				<circle style="fill:#ED1C24;stroke:#231F20;stroke-linecap:round;stroke-linejoin:round;stroke-miterlimit:10;" cx="979.392" cy="180.915" r="8.719"/>
			<path style="fill:#BE1E2D;stroke:#231F20;stroke-linecap:round;stroke-linejoin:round;stroke-miterlimit:10;" d="
				M988.611,180.915c0,5.091-4.128,9.218-9.219,9.218l0,0c-5.092,0-9.22-4.127-9.22-9.218l0,0c0-5.092,4.128-9.222,9.22-9.222l0,0
				C984.483,171.693,988.611,175.823,988.611,180.915L988.611,180.915z M987.613,180.915c-0.009-4.541-3.684-8.214-8.221-8.222l0,0
				c-4.539,0.008-8.211,3.681-8.22,8.222l0,0c0.009,4.539,3.679,8.21,8.22,8.218l0,0
				C983.932,189.125,987.604,185.452,987.613,180.915L987.613,180.915z"/>
		</g>
	</g>
	<g>
		
			<circle style="fill:#89C765;stroke:#231F20;stroke-linecap:round;stroke-linejoin:round;stroke-miterlimit:10;" cx="888.235" cy="180.915" r="8.323"/>
		
			<rect x="884.47" y="147.822" style="fill:#89C765;stroke:#231F20;stroke-linecap:round;stroke-linejoin:round;stroke-miterlimit:10;" width="7.53" height="31.706"/>
		
			<rect x="895.873" y="152.791" transform="matrix(-0.7072 -0.707 0.707 -0.7072 1416.5981 923.987)" style="fill:#89C765;stroke:#231F20;stroke-linecap:round;stroke-linejoin:round;stroke-miterlimit:10;" width="7.53" height="31.707"/>
		
			<rect x="888.334" y="176.457" style="fill:#89C765;stroke:#231F20;stroke-linecap:round;stroke-linejoin:round;stroke-miterlimit:10;" width="31.707" height="7.529"/>
		
			<rect x="895.453" y="175.771" transform="matrix(0.7072 -0.707 0.707 0.7072 127.8297 691.8983)" style="fill:#89C765;stroke:#231F20;stroke-linecap:round;stroke-linejoin:round;stroke-miterlimit:10;" width="7.53" height="31.708"/>
		
			<rect x="883.875" y="180.32" style="fill:#89C765;stroke:#231F20;stroke-linecap:round;stroke-linejoin:round;stroke-miterlimit:10;" width="7.53" height="31.707"/>
		
			<rect x="872.473" y="175.351" transform="matrix(0.7072 0.707 -0.707 0.7072 391.7766 -563.5469)" style="fill:#89C765;stroke:#231F20;stroke-linecap:round;stroke-linejoin:round;stroke-miterlimit:10;" width="7.53" height="31.707"/>
		
			<rect x="855.835" y="175.861" style="fill:#89C765;stroke:#231F20;stroke-linecap:round;stroke-linejoin:round;stroke-miterlimit:10;" width="31.707" height="7.531"/>
		
			<rect x="872.893" y="152.371" transform="matrix(-0.7071 0.7071 -0.7071 -0.7071 1615.5007 -332.7141)" style="fill:#89C765;stroke:#231F20;stroke-linecap:round;stroke-linejoin:round;stroke-miterlimit:10;" width="7.53" height="31.707"/>
		<g>
			<path style="fill:#62A73B;stroke:#231F20;stroke-linecap:round;stroke-linejoin:round;stroke-miterlimit:10;" d="
				M888.136,217.949c20.419,0,37.032-16.614,37.032-37.034c0-20.421-16.613-37.032-37.032-37.032
				c-20.421,0-37.033,16.611-37.033,37.032C851.103,201.335,867.715,217.949,888.136,217.949z M859.029,180.915
				c0-16.049,13.058-29.105,29.106-29.105c16.05,0,29.106,13.057,29.106,29.105s-13.057,29.106-29.106,29.106
				C872.087,210.021,859.029,196.964,859.029,180.915z"/>
		</g>
		<g>
			
				<circle style="fill:#ED1C24;stroke:#231F20;stroke-linecap:round;stroke-linejoin:round;stroke-miterlimit:10;" cx="887.938" cy="181.097" r="8.72"/>
			<path style="fill:#BE1E2D;stroke:#231F20;stroke-linecap:round;stroke-linejoin:round;stroke-miterlimit:10;" d="
				M897.158,181.097c0,5.092-4.129,9.218-9.22,9.218l0,0c-5.093,0-9.218-4.126-9.218-9.218l0,0c0-5.093,4.125-9.219,9.218-9.219l0,0
				C893.029,171.878,897.158,176.004,897.158,181.097L897.158,181.097z M896.158,181.097c-0.008-4.54-3.681-8.212-8.22-8.221l0,0
				c-4.539,0.009-8.212,3.681-8.22,8.221l0,0c0.008,4.539,3.681,8.209,8.22,8.218l0,0
				C892.478,189.306,896.15,185.636,896.158,181.097L896.158,181.097z"/>
		</g>
	</g>
</g>
<g>
	<g>
		
			<circle style="fill:#89C765;stroke:#231F20;stroke-linecap:round;stroke-linejoin:round;stroke-miterlimit:10;" cx="1083.982" cy="196.372" r="4.85"/>
		
			<rect x="1081.789" y="177.091" style="fill:#89C765;stroke:#231F20;stroke-linecap:round;stroke-linejoin:round;stroke-miterlimit:10;" width="4.388" height="18.474"/>
		
			<rect x="1088.432" y="179.987" transform="matrix(-0.7072 -0.707 0.707 -0.7072 1728.1565 1094.1128)" style="fill:#89C765;stroke:#231F20;stroke-linecap:round;stroke-linejoin:round;stroke-miterlimit:10;" width="4.387" height="18.472"/>
		
			<rect x="1084.04" y="193.773" style="fill:#89C765;stroke:#231F20;stroke-linecap:round;stroke-linejoin:round;stroke-miterlimit:10;" width="18.473" height="4.389"/>
		
			<rect x="1088.188" y="193.374" transform="matrix(0.7071 -0.7071 0.7071 0.7071 176.0975 830.3596)" style="fill:#89C765;stroke:#231F20;stroke-linecap:round;stroke-linejoin:round;stroke-miterlimit:10;" width="4.388" height="18.474"/>
		
			<rect x="1081.442" y="196.026" style="fill:#89C765;stroke:#231F20;stroke-linecap:round;stroke-linejoin:round;stroke-miterlimit:10;" width="4.388" height="18.473"/>
		
			<rect x="1074.799" y="193.13" transform="matrix(0.707 0.7072 -0.7072 0.707 458.6807 -702.3741)" style="fill:#89C765;stroke:#231F20;stroke-linecap:round;stroke-linejoin:round;stroke-miterlimit:10;" width="4.387" height="18.472"/>
		
			<rect x="1065.105" y="193.429" style="fill:#89C765;stroke:#231F20;stroke-linecap:round;stroke-linejoin:round;stroke-miterlimit:10;" width="18.473" height="4.386"/>
		
			<rect x="1075.044" y="179.742" transform="matrix(-0.7071 0.7071 -0.7071 -0.7071 1972.5879 -439.1156)" style="fill:#89C765;stroke:#231F20;stroke-linecap:round;stroke-linejoin:round;stroke-miterlimit:10;" width="4.388" height="18.472"/>
		<g>
			<path style="fill:#62A73B;stroke:#231F20;stroke-linecap:round;stroke-linejoin:round;stroke-miterlimit:10;" d="
				M1083.925,217.949c11.896,0,21.576-9.68,21.576-21.577c0-11.896-9.68-21.576-21.576-21.576c-11.897,0-21.576,9.68-21.576,21.576
				C1062.349,208.27,1072.027,217.949,1083.925,217.949z M1066.967,196.372c0-9.35,7.607-16.958,16.958-16.958
				s16.958,7.608,16.958,16.958s-7.607,16.958-16.958,16.958S1066.967,205.722,1066.967,196.372z"/>
		</g>
		<g>
			
				<circle style="fill:#ED1C24;stroke:#231F20;stroke-linecap:round;stroke-linejoin:round;stroke-miterlimit:10;" cx="1083.982" cy="196.372" r="7.088"/>
			
				<circle style="fill:#B52025;stroke:#231F20;stroke-linecap:round;stroke-linejoin:round;stroke-miterlimit:10;" cx="1083.983" cy="196.372" r="3.567"/>
		</g>
	</g>
	<g>
		
			<circle style="fill:#89C765;stroke:#231F20;stroke-linecap:round;stroke-linejoin:round;stroke-miterlimit:10;" cx="1038.941" cy="196.372" r="4.849"/>
		
			<rect x="1036.747" y="177.091" style="fill:#89C765;stroke:#231F20;stroke-linecap:round;stroke-linejoin:round;stroke-miterlimit:10;" width="4.388" height="18.474"/>
		
			<rect x="1043.391" y="179.987" transform="matrix(-0.7072 -0.707 0.707 -0.7072 1651.2616 1062.269)" style="fill:#89C765;stroke:#231F20;stroke-linecap:round;stroke-linejoin:round;stroke-miterlimit:10;" width="4.387" height="18.472"/>
		
			<rect x="1038.999" y="193.773" style="fill:#89C765;stroke:#231F20;stroke-linecap:round;stroke-linejoin:round;stroke-miterlimit:10;" width="18.473" height="4.389"/>
		
			<rect x="1043.146" y="193.374" transform="matrix(0.7071 -0.7071 0.7071 0.7071 162.9053 798.5107)" style="fill:#89C765;stroke:#231F20;stroke-linecap:round;stroke-linejoin:round;stroke-miterlimit:10;" width="4.388" height="18.474"/>
		
			<rect x="1036.4" y="196.026" style="fill:#89C765;stroke:#231F20;stroke-linecap:round;stroke-linejoin:round;stroke-miterlimit:10;" width="4.389" height="18.473"/>
		
			<rect x="1029.758" y="193.13" transform="matrix(0.707 0.7072 -0.7072 0.707 445.4834 -670.5203)" style="fill:#89C765;stroke:#231F20;stroke-linecap:round;stroke-linejoin:round;stroke-miterlimit:10;" width="4.387" height="18.472"/>
		
			<rect x="1020.064" y="193.429" style="fill:#89C765;stroke:#231F20;stroke-linecap:round;stroke-linejoin:round;stroke-miterlimit:10;" width="18.473" height="4.386"/>
		
			<rect x="1030.002" y="179.742" transform="matrix(-0.7071 0.7071 -0.7071 -0.7071 1895.6964 -407.2661)" style="fill:#89C765;stroke:#231F20;stroke-linecap:round;stroke-linejoin:round;stroke-miterlimit:10;" width="4.388" height="18.472"/>
		<g>
			<path style="fill:#62A73B;stroke:#231F20;stroke-linecap:round;stroke-linejoin:round;stroke-miterlimit:10;" d="
				M1038.883,217.949c11.898,0,21.576-9.68,21.576-21.577c0-11.896-9.678-21.576-21.576-21.576c-11.896,0-21.575,9.68-21.575,21.576
				C1017.308,208.27,1026.986,217.949,1038.883,217.949z M1021.925,196.372c0-9.35,7.608-16.958,16.958-16.958
				c9.352,0,16.957,7.608,16.957,16.958s-7.605,16.958-16.957,16.958C1029.533,213.33,1021.925,205.722,1021.925,196.372z"/>
		</g>
		<g>
			
				<circle style="fill:#ED1C24;stroke:#231F20;stroke-linecap:round;stroke-linejoin:round;stroke-miterlimit:10;" cx="1038.941" cy="196.372" r="7.088"/>
			
				<circle style="fill:#B52025;stroke:#231F20;stroke-linecap:round;stroke-linejoin:round;stroke-miterlimit:10;" cx="1038.941" cy="196.372" r="3.567"/>
		</g>
	</g>
</g>
<g>
	
		<rect x="1033.789" y="149.311" style="fill:#F178AE;stroke:#231F20;stroke-linecap:round;stroke-linejoin:round;stroke-miterlimit:10;" width="48.748" height="21.197"/>
	<path style="fill:#F178AE;stroke:#231F20;stroke-linecap:round;stroke-linejoin:round;stroke-miterlimit:10;" d="M1069.062,169.348
		c0,2.887,3.193,5.228,7.134,5.228l0,0c3.94,0,7.134-2.341,7.134-5.228v-18.876c0-2.887-3.193-5.227-7.134-5.227l0,0
		c-3.94,0-7.134,2.34-7.134,5.227V169.348z"/>
	<path style="fill:#F178AE;stroke:#231F20;stroke-linecap:round;stroke-linejoin:round;stroke-miterlimit:10;" d="M1033.789,169.348
		c0,2.887,3.193,5.228,7.135,5.228l0,0c3.939,0,7.133-2.341,7.133-5.228v-18.876c0-2.887-3.193-5.227-7.133-5.227l0,0
		c-3.941,0-7.135,2.34-7.135,5.227V169.348z"/>
	
		<rect x="1050.831" y="139.697" style="fill:#F178AE;stroke:#231F20;stroke-linecap:round;stroke-linejoin:round;stroke-miterlimit:10;" width="16.25" height="11.889"/>
	
		<rect x="1023.088" y="156.737" style="fill:#F178AE;stroke:#231F20;stroke-linecap:round;stroke-linejoin:round;stroke-miterlimit:10;" width="16.646" height="7.136"/>
	
		<rect x="976.733" y="167.888" transform="matrix(-0.9009 0.434 -0.434 -0.9009 1976.0342 -109.7796)" style="fill:#F178AE;stroke:#231F20;stroke-linecap:round;stroke-linejoin:round;stroke-miterlimit:10;" width="47.631" height="5.57"/>
	
		<rect x="887.13" y="178.312" transform="matrix(-1 0.0077 -0.0077 -1 1867.2487 354.9792)" style="fill:#F178AE;stroke:#231F20;stroke-linecap:round;stroke-linejoin:round;stroke-miterlimit:10;" width="91.617" height="5.57"/>
	
		<circle style="fill:#F178AE;stroke:#231F20;stroke-linecap:round;stroke-linejoin:round;stroke-miterlimit:10;" cx="1022.295" cy="160.702" r="4.359"/>
	
		<circle style="fill:#F178AE;stroke:#231F20;stroke-linecap:round;stroke-linejoin:round;stroke-miterlimit:10;" cx="979.392" cy="181.097" r="4.36"/>
	
		<circle style="fill:#F178AE;stroke:#231F20;stroke-linecap:round;stroke-linejoin:round;stroke-miterlimit:10;" cx="887.938" cy="181.097" r="4.359"/>
	
		<rect x="1053.605" y="136.922" style="fill:#F178AE;stroke:#231F20;stroke-linecap:round;stroke-linejoin:round;stroke-miterlimit:10;" width="10.701" height="3.766"/>
</g>
<polygon style="fill:#C4161C;stroke:#231F20;stroke-width:2;stroke-linecap:round;stroke-linejoin:round;stroke-miterlimit:10;" points="
	841.963,27.534 973.15,27.534 970.904,6.925 843.944,6.925 "/>
<rect x="1057.667" y="34.001" style="fill:#231F20;stroke:#231F20;stroke-linecap:round;stroke-linejoin:round;stroke-miterlimit:10;" width="18.666" height="41.333"/>
</svg>
