<?xml version="1.0" encoding="iso-8859-1"?>
<!-- Generator: Adobe Illustrator 16.0.0, SVG Export Plug-In . SVG Version: 6.00 Build 0)  -->
<!DOCTYPE svg PUBLIC "-//W3C//DTD SVG 1.1//EN" "http://www.w3.org/Graphics/SVG/1.1/DTD/svg11.dtd">
<svg version="1.1" id="Layer_2" xmlns="http://www.w3.org/2000/svg" xmlns:xlink="http://www.w3.org/1999/xlink" x="0px" y="0px"
	 width="758.667px" height="230px" viewBox="0 0 758.667 230" style="enable-background:new 0 0 758.667 230;" xml:space="preserve"
	>
<rect x="15" y="120.686" style="fill:#CE181E;stroke:#231F20;stroke-linecap:round;stroke-linejoin:round;stroke-miterlimit:10;" width="403.999" height="9"/>
<rect x="412.624" y="114.686" style="fill:#231F20;stroke:#231F20;stroke-linecap:round;stroke-linejoin:round;stroke-miterlimit:10;" width="9.75" height="21"/>
<rect x="14.667" y="166.188" style="fill:#534A29;stroke:#231F20;stroke-width:2;stroke-linecap:round;stroke-linejoin:round;stroke-miterlimit:10;" width="139.5" height="30"/>
<rect x="222.667" y="166.188" style="fill:#534A29;stroke:#231F20;stroke-width:2;stroke-linecap:round;stroke-linejoin:round;stroke-miterlimit:10;" width="140" height="30"/>
<ellipse style="fill:#F99D3E;stroke:#231F20;stroke-width:2;stroke-linecap:round;stroke-linejoin:round;stroke-miterlimit:10;" cx="290.499" cy="84.084" rx="65.5" ry="53.5"/>
<path style="fill:#7B0000;stroke:#231F20;stroke-width:2;stroke-linecap:round;stroke-linejoin:round;stroke-miterlimit:10;" d="
	M147.999,106.222c0,15.655-12.691,28.347-28.347,28.347H49.346c-15.656,0-28.347-12.691-28.347-28.347V60.915
	c0-15.656,12.691-28.347,28.347-28.347h70.307c15.656,0,28.347,12.691,28.347,28.347V106.222z"/>
<rect x="6.161" y="61.885" style="fill:#89C765;stroke:#231F20;stroke-width:2;stroke-linecap:round;stroke-linejoin:round;stroke-miterlimit:10;" width="157.84" height="118.208"/>
<g>
	<g>
		<g>
			
				<circle style="fill:#89C765;stroke:#231F20;stroke-linecap:round;stroke-linejoin:round;stroke-miterlimit:10;" cx="130.189" cy="196.021" r="4.85"/>
			
				<rect x="127.996" y="176.739" style="fill:#89C765;stroke:#231F20;stroke-linecap:round;stroke-linejoin:round;stroke-miterlimit:10;" width="4.389" height="18.472"/>
			
				<rect x="134.641" y="179.635" transform="matrix(-0.7074 -0.7068 0.7068 -0.7074 100.1461 419.1964)" style="fill:#89C765;stroke:#231F20;stroke-linecap:round;stroke-linejoin:round;stroke-miterlimit:10;" width="4.386" height="18.472"/>
			
				<rect x="130.247" y="193.423" style="fill:#89C765;stroke:#231F20;stroke-linecap:round;stroke-linejoin:round;stroke-miterlimit:10;" width="18.474" height="4.388"/>
			
				<rect x="134.395" y="193.022" transform="matrix(0.7069 -0.7073 0.7073 0.7069 -103.0282 155.8982)" style="fill:#89C765;stroke:#231F20;stroke-linecap:round;stroke-linejoin:round;stroke-miterlimit:10;" width="4.386" height="18.475"/>
			
				<rect x="127.648" y="195.674" style="fill:#89C765;stroke:#231F20;stroke-linecap:round;stroke-linejoin:round;stroke-miterlimit:10;" width="4.389" height="18.473"/>
			
				<rect x="121.005" y="192.777" transform="matrix(0.707 0.7072 -0.7072 0.707 178.9655 -27.9374)" style="fill:#89C765;stroke:#231F20;stroke-linecap:round;stroke-linejoin:round;stroke-miterlimit:10;" width="4.387" height="18.473"/>
			
				<rect x="111.313" y="193.075" style="fill:#89C765;stroke:#231F20;stroke-linecap:round;stroke-linejoin:round;stroke-miterlimit:10;" width="18.473" height="4.388"/>
			
				<rect x="121.251" y="179.388" transform="matrix(-0.7071 0.7071 -0.7071 -0.7071 344.1107 234.7147)" style="fill:#89C765;stroke:#231F20;stroke-linecap:round;stroke-linejoin:round;stroke-miterlimit:10;" width="4.388" height="18.475"/>
			<g>
				<path style="fill:#62A73B;stroke:#231F20;stroke-linecap:round;stroke-linejoin:round;stroke-miterlimit:10;" d="
					M130.133,217.596c11.896,0,21.575-9.679,21.575-21.575c0-11.898-9.68-21.577-21.575-21.577
					c-11.896,0-21.577,9.679-21.577,21.577C108.556,207.917,118.236,217.596,130.133,217.596z M113.175,196.021
					c0-9.352,7.608-16.959,16.958-16.959s16.958,7.607,16.958,16.959c0,9.35-7.608,16.956-16.958,16.956
					S113.175,205.37,113.175,196.021z"/>
			</g>
		</g>
		
			<circle style="fill:#F7941E;stroke:#231F20;stroke-linecap:round;stroke-linejoin:round;stroke-miterlimit:10;" cx="130.189" cy="196.021" r="7.088"/>
		
			<circle style="fill:#B52025;stroke:#231F20;stroke-linecap:round;stroke-linejoin:round;stroke-miterlimit:10;" cx="130.19" cy="196.021" r="3.566"/>
	</g>
	<g>
		<g>
			
				<circle style="fill:#89C765;stroke:#231F20;stroke-linecap:round;stroke-linejoin:round;stroke-miterlimit:10;" cx="40.087" cy="196.021" r="4.85"/>
			
				<rect x="37.893" y="176.739" style="fill:#89C765;stroke:#231F20;stroke-linecap:round;stroke-linejoin:round;stroke-miterlimit:10;" width="4.39" height="18.472"/>
			
				<rect x="44.538" y="179.635" transform="matrix(-0.7074 -0.7068 0.7068 -0.7074 -53.6986 355.5143)" style="fill:#89C765;stroke:#231F20;stroke-linecap:round;stroke-linejoin:round;stroke-miterlimit:10;" width="4.386" height="18.472"/>
			
				<rect x="40.145" y="193.423" style="fill:#89C765;stroke:#231F20;stroke-linecap:round;stroke-linejoin:round;stroke-miterlimit:10;" width="18.474" height="4.388"/>
			
				<rect x="44.292" y="193.022" transform="matrix(0.7071 -0.7071 0.7071 0.7071 -129.4039 92.111)" style="fill:#89C765;stroke:#231F20;stroke-linecap:round;stroke-linejoin:round;stroke-miterlimit:10;" width="4.388" height="18.475"/>
			
				<rect x="37.547" y="195.674" style="fill:#89C765;stroke:#231F20;stroke-linecap:round;stroke-linejoin:round;stroke-miterlimit:10;" width="4.388" height="18.473"/>
			
				<rect x="30.904" y="192.777" transform="matrix(0.707 0.7072 -0.7072 0.707 152.5653 35.784)" style="fill:#89C765;stroke:#231F20;stroke-linecap:round;stroke-linejoin:round;stroke-miterlimit:10;" width="4.387" height="18.473"/>
			
				<rect x="21.211" y="193.075" style="fill:#89C765;stroke:#231F20;stroke-linecap:round;stroke-linejoin:round;stroke-miterlimit:10;" width="18.472" height="4.388"/>
			
				<rect x="31.148" y="179.388" transform="matrix(-0.7071 0.7071 -0.7071 -0.7071 190.2969 298.4265)" style="fill:#89C765;stroke:#231F20;stroke-linecap:round;stroke-linejoin:round;stroke-miterlimit:10;" width="4.388" height="18.474"/>
			<g>
				<path style="fill:#62A73B;stroke:#231F20;stroke-linecap:round;stroke-linejoin:round;stroke-miterlimit:10;" d="M40.03,217.596
					c11.896,0,21.576-9.679,21.576-21.575c0-11.898-9.681-21.577-21.576-21.577c-11.897,0-21.576,9.679-21.576,21.577
					C18.454,207.917,28.133,217.596,40.03,217.596z M23.072,196.021c0-9.352,7.607-16.959,16.958-16.959
					c9.349,0,16.957,7.607,16.957,16.959c0,9.35-7.608,16.956-16.957,16.956C30.68,212.977,23.072,205.37,23.072,196.021z"/>
			</g>
		</g>
		
			<circle style="fill:#F7941E;stroke:#231F20;stroke-linecap:round;stroke-linejoin:round;stroke-miterlimit:10;" cx="40.087" cy="196.021" r="7.088"/>
		
			<circle style="fill:#B52025;stroke:#231F20;stroke-linecap:round;stroke-linejoin:round;stroke-miterlimit:10;" cx="40.087" cy="196.021" r="3.567"/>
	</g>
</g>
<rect x="213.984" y="61.886" style="fill:#FFDC2F;stroke:#231F20;stroke-width:2;stroke-linecap:round;stroke-linejoin:round;stroke-miterlimit:10;" width="157.841" height="118.208"/>
<g>
	<g>
		<g>
			
				<circle style="fill:#89C765;stroke:#231F20;stroke-linecap:round;stroke-linejoin:round;stroke-miterlimit:10;" cx="338.015" cy="196.021" r="4.849"/>
			
				<rect x="335.821" y="176.74" style="fill:#89C765;stroke:#231F20;stroke-linecap:round;stroke-linejoin:round;stroke-miterlimit:10;" width="4.388" height="18.474"/>
			
				<rect x="342.466" y="179.634" transform="matrix(-0.7071 -0.7071 0.7071 -0.7071 454.8168 566.1345)" style="fill:#89C765;stroke:#231F20;stroke-linecap:round;stroke-linejoin:round;stroke-miterlimit:10;" width="4.386" height="18.475"/>
			
				<rect x="338.072" y="193.424" style="fill:#89C765;stroke:#231F20;stroke-linecap:round;stroke-linejoin:round;stroke-miterlimit:10;" width="18.472" height="4.387"/>
			
				<rect x="342.219" y="193.025" transform="matrix(0.707 -0.7072 0.7072 0.707 -42.128 302.8381)" style="fill:#89C765;stroke:#231F20;stroke-linecap:round;stroke-linejoin:round;stroke-miterlimit:10;" width="4.387" height="18.472"/>
			
				<rect x="335.475" y="195.675" style="fill:#89C765;stroke:#231F20;stroke-linecap:round;stroke-linejoin:round;stroke-miterlimit:10;" width="4.388" height="18.473"/>
			
				<rect x="328.83" y="192.779" transform="matrix(0.7069 0.7073 -0.7073 0.7069 239.9199 -174.929)" style="fill:#89C765;stroke:#231F20;stroke-linecap:round;stroke-linejoin:round;stroke-miterlimit:10;" width="4.388" height="18.472"/>
			
				<rect x="319.137" y="193.077" style="fill:#89C765;stroke:#231F20;stroke-linecap:round;stroke-linejoin:round;stroke-miterlimit:10;" width="18.475" height="4.387"/>
			
				<rect x="329.075" y="179.389" transform="matrix(-0.7073 0.7069 -0.7069 -0.7073 698.9213 87.8781)" style="fill:#89C765;stroke:#231F20;stroke-linecap:round;stroke-linejoin:round;stroke-miterlimit:10;" width="4.388" height="18.475"/>
			<g>
				<path style="fill:#62A73B;stroke:#231F20;stroke-linecap:round;stroke-linejoin:round;stroke-miterlimit:10;" d="
					M337.956,217.596c11.898,0,21.576-9.679,21.576-21.574c0-11.897-9.678-21.577-21.576-21.577
					c-11.896,0-21.575,9.68-21.575,21.577C316.381,207.917,326.061,217.596,337.956,217.596z M320.998,196.021
					c0-9.351,7.608-16.959,16.958-16.959c9.352,0,16.958,7.608,16.958,16.959c0,9.349-7.606,16.957-16.958,16.957
					C328.606,212.979,320.998,205.37,320.998,196.021z"/>
			</g>
		</g>
		
			<circle style="fill:#F7941E;stroke:#231F20;stroke-linecap:round;stroke-linejoin:round;stroke-miterlimit:10;" cx="338.014" cy="196.021" r="7.089"/>
		
			<circle style="fill:#B52025;stroke:#231F20;stroke-linecap:round;stroke-linejoin:round;stroke-miterlimit:10;" cx="338.016" cy="196.021" r="3.566"/>
	</g>
	<g>
		<g>
			
				<circle style="fill:#89C765;stroke:#231F20;stroke-linecap:round;stroke-linejoin:round;stroke-miterlimit:10;" cx="247.912" cy="196.021" r="4.849"/>
			
				<rect x="245.718" y="176.74" style="fill:#89C765;stroke:#231F20;stroke-linecap:round;stroke-linejoin:round;stroke-miterlimit:10;" width="4.389" height="18.474"/>
			
				<rect x="252.361" y="179.635" transform="matrix(-0.7072 -0.707 0.707 -0.7072 301.049 502.414)" style="fill:#89C765;stroke:#231F20;stroke-linecap:round;stroke-linejoin:round;stroke-miterlimit:10;" width="4.387" height="18.473"/>
			
				<rect x="247.969" y="193.424" style="fill:#89C765;stroke:#231F20;stroke-linecap:round;stroke-linejoin:round;stroke-miterlimit:10;" width="18.474" height="4.387"/>
			
				<rect x="252.116" y="193.025" transform="matrix(0.7072 -0.707 0.707 0.7072 -68.5399 239.0147)" style="fill:#89C765;stroke:#231F20;stroke-linecap:round;stroke-linejoin:round;stroke-miterlimit:10;" width="4.388" height="18.472"/>
			
				<rect x="245.372" y="195.675" style="fill:#89C765;stroke:#231F20;stroke-linecap:round;stroke-linejoin:round;stroke-miterlimit:10;" width="4.387" height="18.473"/>
			
				<rect x="238.728" y="192.779" transform="matrix(0.7069 0.7073 -0.7073 0.7069 213.5094 -111.1968)" style="fill:#89C765;stroke:#231F20;stroke-linecap:round;stroke-linejoin:round;stroke-miterlimit:10;" width="4.388" height="18.472"/>
			
				<rect x="229.034" y="193.077" style="fill:#89C765;stroke:#231F20;stroke-linecap:round;stroke-linejoin:round;stroke-miterlimit:10;" width="18.474" height="4.387"/>
			
				<rect x="238.973" y="179.389" transform="matrix(-0.7072 0.707 -0.707 -0.7072 545.0815 151.522)" style="fill:#89C765;stroke:#231F20;stroke-linecap:round;stroke-linejoin:round;stroke-miterlimit:10;" width="4.387" height="18.473"/>
			<g>
				<path style="fill:#62A73B;stroke:#231F20;stroke-linecap:round;stroke-linejoin:round;stroke-miterlimit:10;" d="
					M247.854,217.596c11.896,0,21.575-9.679,21.575-21.574c0-11.897-9.679-21.577-21.575-21.577s-21.577,9.68-21.577,21.577
					C226.277,207.917,235.958,217.596,247.854,217.596z M230.896,196.021c0-9.351,7.608-16.959,16.958-16.959
					s16.958,7.608,16.958,16.959c0,9.349-7.608,16.957-16.958,16.957S230.896,205.37,230.896,196.021z"/>
			</g>
		</g>
		
			<circle style="fill:#F7941E;stroke:#231F20;stroke-linecap:round;stroke-linejoin:round;stroke-miterlimit:10;" cx="247.911" cy="196.021" r="7.088"/>
		
			<circle style="fill:#B52025;stroke:#231F20;stroke-linecap:round;stroke-linejoin:round;stroke-miterlimit:10;" cx="247.912" cy="196.021" r="3.566"/>
	</g>
</g>
<path style="fill:#FAC70F;stroke:#231F20;stroke-width:2;stroke-linecap:round;stroke-linejoin:round;stroke-miterlimit:10;" d="
	M715.931,157.971c0,0-0.734,5.385,0.734,8.079c1.469,2.691,29.623,41.128,29.623,41.128c-16.158,10.281-58.756,6.121-59.735,6.121
	s-4.162-50.921-4.162-50.921L715.931,157.971z"/>
<g>
	<polygon style="fill:#F99D3E;" points="736.104,206.853 742.05,205.135 715.163,165.099 712.722,165.236 	"/>
	<path style="fill:#231F20;" d="M736.154,206.728c0.938-0.367,1.884-0.712,2.832-1.05c0.974-0.346,1.94-0.712,2.92-1.038
		l-0.284,0.782c-2.408-3.224-4.743-6.497-7.017-9.811c-2.306-3.292-4.48-6.673-6.548-10.125l-3.141-5.152
		c-1.067-1.704-2.162-3.39-3.284-5.056c-2.237-3.338-4.623-6.577-6.997-9.824l0.562,0.28l-2.435,0.239l0.6-1.095l3.067,5.121
		l3.003,5.157c2.008,3.435,3.996,6.88,5.884,10.382c1.921,3.484,3.761,7.013,5.596,10.545
		C732.696,199.61,734.487,203.134,736.154,206.728z M736.018,206.901c-2.22-3.315-4.312-6.703-6.413-10.085
		c-2.062-3.404-4.119-6.811-6.096-10.263c-2.01-3.434-3.918-6.925-5.808-10.425l-2.842-5.248l-2.779-5.283l-0.023-0.044
		c-0.185-0.351-0.05-0.784,0.301-0.968c0.103-0.054,0.215-0.08,0.323-0.083l2.446-0.037l0.052-0.001
		c0.215-0.003,0.406,0.11,0.512,0.281c2.107,3.426,4.203,6.859,6.446,10.194c1.118,1.67,2.265,3.32,3.438,4.953l3.581,4.857
		c2.414,3.22,4.721,6.512,6.896,9.893c2.208,3.358,4.354,6.758,6.427,10.207l0.024,0.04c0.142,0.237,0.065,0.543-0.171,0.686
		c-0.044,0.026-0.092,0.045-0.139,0.057c-1.002,0.247-2.016,0.453-3.024,0.68c-1.008,0.225-2.019,0.445-3.036,0.639
		C736.087,206.958,736.042,206.937,736.018,206.901z"/>
</g>
<polygon style="fill:#FBB040;" points="715.295,165.118 742.183,205.135 736.105,206.853 735.659,206.059 739.804,204.87 
	714.166,165.116 "/>
<g>
	<polygon style="fill:#F99D3E;" points="720.249,209.715 726.267,209.013 706.731,166.033 704.382,165.897 	"/>
	<path style="fill:#231F20;" d="M720.318,209.6c0.965-0.205,1.933-0.387,2.901-0.562c0.996-0.179,1.989-0.379,2.987-0.537
		l-0.41,0.726c-1.812-3.498-3.543-7.033-5.207-10.598c-1.699-3.549-3.253-7.165-4.69-10.832l-2.201-5.482
		c-0.756-1.817-1.542-3.621-2.359-5.41c-1.627-3.582-3.414-7.091-5.188-10.606l0.544,0.374l-2.355-0.037l0.737-0.988l2.137,5.421
		l2.07,5.445c1.386,3.629,2.751,7.265,4.008,10.94c1.291,3.663,2.497,7.356,3.696,11.052
		C718.136,202.189,719.294,205.871,720.318,209.6z M720.155,209.749c-1.614-3.546-3.091-7.142-4.578-10.733
		c-1.445-3.606-2.884-7.216-4.237-10.856c-1.388-3.627-2.667-7.294-3.926-10.969l-1.896-5.509l-1.829-5.533l-0.017-0.049
		c-0.124-0.376,0.08-0.782,0.456-0.906c0.098-0.032,0.2-0.042,0.297-0.033l2.344,0.235l0.053,0.005
		c0.227,0.023,0.411,0.171,0.491,0.368c1.481,3.648,2.95,7.302,4.579,10.883c0.811,1.792,1.652,3.571,2.524,5.335l2.683,5.263
		c1.818,3.496,3.521,7.043,5.077,10.657c1.592,3.598,3.116,7.227,4.561,10.892l0.018,0.044c0.101,0.257-0.025,0.547-0.282,0.648
		c-0.047,0.019-0.098,0.03-0.146,0.034c-1.008,0.076-2.021,0.11-3.03,0.165c-1.01,0.054-2.021,0.103-3.035,0.124
		C720.215,209.816,720.174,209.788,720.155,209.749z"/>
</g>
<polygon style="fill:#FBB040;" points="706.858,165.947 726.395,209.133 720.249,209.813 719.946,208.977 724.14,208.495 
	705.765,165.939 "/>
<g>
	<polygon style="fill:#F99D3E;" points="703.233,210.584 709.534,210.584 696.749,166.091 694.423,165.749 	"/>
	<path style="fill:#231F20;" d="M703.319,210.478c1.021-0.098,2.043-0.167,3.064-0.234c1.05-0.07,2.101-0.148,3.15-0.192
		l-0.512,0.68c-1.25-3.655-2.428-7.33-3.524-11.029c-1.138-3.687-2.11-7.422-2.979-11.186c-0.889-3.759-1.764-7.521-2.867-11.218
		c-1.068-3.707-2.303-7.366-3.522-11.029l0.526,0.46l-2.341-0.242l0.841-0.882c0.856,3.712,1.666,7.434,2.448,11.16
		c0.8,3.724,1.577,7.451,2.241,11.201c0.701,3.743,1.314,7.502,1.92,11.264C702.323,202.972,702.89,206.711,703.319,210.478z
		 M703.136,210.604c-1.038-3.677-1.933-7.381-2.839-11.084c-0.863-3.711-1.718-7.423-2.485-11.153
		c-0.805-3.722-1.495-7.467-2.164-11.216c-0.686-3.746-1.345-7.497-1.957-11.257l-0.009-0.056c-0.063-0.394,0.204-0.766,0.598-0.83
		c0.085-0.014,0.172-0.011,0.252,0.003l2.312,0.442l0.054,0.01c0.239,0.045,0.418,0.228,0.473,0.45
		c0.911,3.752,1.808,7.508,2.87,11.217c1.027,3.718,2.283,7.372,3.525,11.028c1.261,3.652,2.42,7.333,3.413,11.061
		c1.034,3.717,1.987,7.457,2.868,11.217l0.012,0.048c0.064,0.277-0.107,0.554-0.384,0.619c-0.046,0.011-0.095,0.015-0.14,0.013
		c-1.05-0.044-2.101-0.122-3.15-0.192c-1.05-0.068-2.101-0.138-3.15-0.24C703.187,210.68,703.148,210.646,703.136,210.604z"/>
</g>
<polygon style="fill:#FBB040;" points="696.749,166.091 709.534,210.584 703.233,210.584 703.062,209.711 707.206,209.593 
	695.662,165.996 "/>
<g>
	<polygon style="fill:#F99D3E;" points="687.892,210.799 694.077,211.03 686.565,164.107 684.293,163.199 	"/>
	<path style="fill:#231F20;" d="M687.989,210.695c1.003-0.055,2.006-0.086,3.008-0.11c1.033-0.024,2.066-0.069,3.1-0.072
		l-0.53,0.599c-0.823-3.878-1.561-7.771-2.227-11.675c-0.703-3.898-1.258-7.819-1.678-11.763c-0.454-3.938-0.86-7.883-1.517-11.789
		c-0.616-3.912-1.411-7.795-2.193-11.68l0.383,0.478l-2.311-0.813l0.989-0.725c0.438,3.956,0.816,7.917,1.166,11.879
		c0.368,3.961,0.717,7.925,0.949,11.896c0.268,3.969,0.446,7.945,0.614,11.921C687.867,202.79,687.999,206.737,687.989,210.695z
		 M687.792,210.806c-0.611-3.943-1.076-7.897-1.551-11.851c-0.433-3.957-0.854-7.914-1.186-11.878
		c-0.367-3.962-0.618-7.932-0.851-11.904c-0.25-3.97-0.472-7.943-0.633-11.92l-0.002-0.055c-0.016-0.388,0.286-0.716,0.675-0.731
		c0.111-0.004,0.221,0.019,0.316,0.061l2.234,1.002l0.046,0.021c0.191,0.085,0.312,0.264,0.337,0.458
		c0.47,3.935,0.927,7.873,1.562,11.781c0.596,3.915,1.441,7.79,2.239,11.673c0.832,3.877,1.529,7.776,2.078,11.699
		c0.586,3.917,1.101,7.844,1.529,11.786l0.005,0.047c0.03,0.274-0.168,0.521-0.442,0.551c-0.03,0.003-0.063,0.004-0.093,0.001
		c-1.029-0.08-2.057-0.202-3.086-0.303c-1.028-0.102-2.057-0.21-3.084-0.345C687.838,210.893,687.8,210.853,687.792,210.806z"/>
</g>
<polygon style="fill:#FBB040;" points="686.677,164.181 694.077,211.03 687.892,210.799 687.823,209.892 692.095,209.938 
	685.653,163.701 "/>
<g>
	<path style="fill:#FAC70F;" d="M669.995,137.956l2.563,1.52c1.553,6.803,3.854,12.281,8.19,15.026
		c2.598,1.646,10.107,3.271,10.107,3.271h25.166v7.135h-25.166v-0.334c-5.688-0.564-11.354-2.893-14.863-6.338
		C671.188,153.518,669.995,146.599,669.995,137.956z"/>
	<path style="fill:#231F20;" d="M670.046,137.87c0.892,0.443,1.78,0.893,2.659,1.358c0.062,0.034,0.105,0.09,0.124,0.153
		l0.009,0.031c0.656,2.25,1.388,4.473,2.314,6.584c0.916,2.111,2.07,4.111,3.578,5.742c0.755,0.811,1.618,1.508,2.535,2.077
		c0.886,0.516,1.993,0.911,3.071,1.269c2.185,0.709,4.453,1.302,6.698,1.863l-0.179-0.019c2.098,0.04,4.194,0.139,6.292,0.206
		l6.291,0.229c4.194,0.13,8.389,0.126,12.583,0.058c0.19-0.003,0.349,0.149,0.352,0.34v0v0.011c0.035,2.378,0.131,4.756,0.193,7.135
		c0.008,0.291-0.222,0.534-0.513,0.543l-0.032,0.001l-6.292,0.209l-6.291,0.141l-12.583,0.163c-0.576,0.008-1.05-0.454-1.058-1.03
		l0,0v-0.027l-0.005-0.334l0.957,1.057c-3.284-0.327-6.518-1.175-9.5-2.619c-2.97-1.409-5.77-3.492-7.689-6.257
		c-0.959-1.376-1.707-2.879-2.259-4.431c-0.54-1.559-0.896-3.157-1.136-4.758c-0.481-3.207-0.464-6.427-0.271-9.609
		c0.003-0.057,0.052-0.101,0.109-0.097C670.02,137.859,670.034,137.864,670.046,137.87z M670.112,138.157
		c0.199,3.108,0.507,6.208,1.166,9.201c0.693,3.043,1.833,5.979,3.69,8.363c1.833,2.411,4.383,4.14,7.158,5.419
		c2.788,1.245,5.789,2.062,8.834,2.377l0.018,0.001c0.543,0.056,0.945,0.521,0.94,1.055l-0.005,0.334l-1.058-1.058l12.583,0.163
		l6.291,0.141l6.292,0.209l-0.545,0.544c0.062-2.378,0.158-4.756,0.193-7.135l0.352,0.352c-4.194-0.069-8.389-0.072-12.583,0.058
		l-6.291,0.229c-2.098,0.066-4.194,0.166-6.292,0.206c-0.051,0-0.101-0.004-0.148-0.013l-0.03-0.006
		c-2.341-0.472-4.63-1.054-6.907-1.83c-1.139-0.408-2.263-0.809-3.402-1.495c-1.077-0.679-2.011-1.531-2.825-2.469
		c-1.634-1.884-2.714-4.107-3.533-6.353c-0.808-2.26-1.335-4.582-1.73-6.912l0.133,0.183
		C671.639,139.213,670.874,138.687,670.112,138.157z"/>
</g>
<path style="fill:#534A29;stroke:#231F20;stroke-width:2;stroke-linecap:round;stroke-linejoin:round;stroke-miterlimit:10;" d="
	M667.671,145.685v47.956h-61.29c-1.414-8.324-8.655-14.664-17.382-14.664c-8.728,0-15.969,6.34-17.383,14.664H446.12v-47.956
	H667.671z"/>
<rect x="670.247" y="68.993" style="fill:#FAC70F;stroke:#231F20;stroke-width:2;stroke-linecap:round;stroke-linejoin:round;stroke-miterlimit:10;" width="3.369" height="7.927"/>
<circle style="fill:#F9ED32;stroke:#231F20;stroke-linecap:round;stroke-linejoin:round;stroke-miterlimit:10;" cx="678.768" cy="65.427" r="7.53"/>
<path style="fill:#FAC70F;stroke:#231F20;stroke-width:2;stroke-linecap:round;stroke-linejoin:round;stroke-miterlimit:10;" d="
	M669.554,65.427c0.297,9.908,10.205,10.801,10.205,10.801V54.626C679.759,54.626,669.274,56.116,669.554,65.427z"/>
<rect x="545.997" y="75.672" style="fill:#FFF200;stroke:#231F20;stroke-width:2;stroke-linecap:round;stroke-linejoin:round;stroke-miterlimit:10;" width="129.204" height="71.604"/>
<path style="fill:#FAC70F;" d="M672.255,138.194c-3.035-0.442-50.73,7.926-77.682-2.379c-41.197-15.751-46.91-37.462-46.992-36.767
	c-0.197,1.717,0.265,48.618,0.265,48.618s119.957-0.265,126.563-0.265L672.255,138.194z"/>
<path style="fill:#FAC70F;stroke:#231F20;stroke-width:2;stroke-linecap:round;stroke-linejoin:round;stroke-miterlimit:10;" d="
	M674.409,75.796c0.199,0,0.736-0.124,0.736-0.124l37.877,35.782l-37.365,35.379c-0.172,0.289-0.331,0.444-0.471,0.444
	c-1.443,0-5.271-15.728-5.271-35.608S672.964,75.796,674.409,75.796z"/>
<rect x="422.604" y="6.571" style="fill:#FFF200;stroke:#231F20;stroke-width:2;stroke-linecap:round;stroke-linejoin:round;stroke-miterlimit:10;" width="126.299" height="134.754"/>
<g>
	<rect x="437.136" y="141.325" style="fill:#81AFDE;" width="112.031" height="12.154"/>
	<path style="fill:#231F20;" d="M437.238,153.376c4.634-0.175,9.268-0.281,13.901-0.395l14.004-0.245
		c9.336-0.099,18.672-0.184,28.008-0.145c4.668,0.023,9.336,0.096,14.004,0.191l14.004,0.26c9.336,0.187,18.672,0.129,28.008,0.066
		l-0.37,0.37l-0.178-12.154l0.548,0.547c-9.336,0.177-18.672,0.303-28.008,0.374c-9.336,0.045-18.672,0.158-28.008,0.146
		c-9.336,0.008-18.672-0.058-28.008-0.179c-9.336-0.084-18.672-0.256-28.008-0.451l0.438-0.438L437.238,153.376z M437.036,153.479
		l-0.338-12.154c-0.007-0.235,0.179-0.431,0.413-0.437h0.001l0.023,0c9.336-0.195,18.672-0.367,28.008-0.451
		c9.336-0.121,18.672-0.187,28.008-0.179c9.336-0.012,18.672,0.102,28.008,0.146c9.336,0.071,18.672,0.196,28.008,0.374h0.019
		c0.297,0.006,0.533,0.25,0.529,0.547l-0.178,12.154v0.008c-0.003,0.202-0.169,0.364-0.37,0.362
		c-9.336-0.062-18.672-0.12-28.008,0.066l-14.004,0.26c-4.668,0.095-9.336,0.168-14.004,0.191
		c-9.336,0.039-18.672-0.045-28.008-0.145l-14.004-0.245c-4.668-0.115-9.336-0.221-14.004-0.398
		C437.081,153.578,437.038,153.533,437.036,153.479z"/>
</g>
<path style="fill:#E2F3F2;stroke:#231F20;stroke-width:2;stroke-linecap:round;stroke-linejoin:round;stroke-miterlimit:10;" d="
	M492.095,92.178c0,5.255,4.914,9.514,10.975,9.514h25.61c6.062,0,10.976-4.259,10.976-9.514V46.732
	c0-5.252-4.914-9.512-10.976-9.512h-25.61c-6.061,0-10.975,4.259-10.975,9.512V92.178z"/>
<path style="fill:#E2F3F2;stroke:#231F20;stroke-width:2;stroke-linecap:round;stroke-linejoin:round;stroke-miterlimit:10;" d="
	M438.722,129.239c0,5.287,4.259,9.575,9.513,9.575h22.194c5.254,0,9.512-4.288,9.512-9.575V46.795c0-5.288-4.258-9.574-9.512-9.574
	h-22.194c-5.254,0-9.513,4.286-9.513,9.574V129.239z"/>
<g>
	<g>
		
			<circle style="fill:#89C765;stroke:#231F20;stroke-linecap:round;stroke-linejoin:round;stroke-miterlimit:10;" cx="557.391" cy="180.562" r="8.323"/>
		
			<rect x="553.626" y="147.469" style="fill:#89C765;stroke:#231F20;stroke-linecap:round;stroke-linejoin:round;stroke-miterlimit:10;" width="7.529" height="31.706"/>
		
			<rect x="565.028" y="152.438" transform="matrix(-0.7072 -0.707 0.707 -0.7072 852.0878 689.4368)" style="fill:#89C765;stroke:#231F20;stroke-linecap:round;stroke-linejoin:round;stroke-miterlimit:10;" width="7.531" height="31.707"/>
		
			<rect x="557.489" y="176.104" style="fill:#89C765;stroke:#231F20;stroke-linecap:round;stroke-linejoin:round;stroke-miterlimit:10;" width="31.707" height="7.529"/>
		
			<rect x="564.609" y="175.417" transform="matrix(0.7072 -0.707 0.707 0.7072 31.1748 457.8251)" style="fill:#89C765;stroke:#231F20;stroke-linecap:round;stroke-linejoin:round;stroke-miterlimit:10;" width="7.531" height="31.709"/>
		
			<rect x="553.031" y="179.967" style="fill:#89C765;stroke:#231F20;stroke-linecap:round;stroke-linejoin:round;stroke-miterlimit:10;" width="7.53" height="31.707"/>
		
			<rect x="541.628" y="174.997" transform="matrix(0.7072 0.707 -0.707 0.7072 294.6459 -329.7292)" style="fill:#89C765;stroke:#231F20;stroke-linecap:round;stroke-linejoin:round;stroke-miterlimit:10;" width="7.53" height="31.707"/>
		
			<rect x="524.991" y="175.508" style="fill:#89C765;stroke:#231F20;stroke-linecap:round;stroke-linejoin:round;stroke-miterlimit:10;" width="31.707" height="7.531"/>
		
			<rect x="542.049" y="152.017" transform="matrix(-0.7071 0.7071 -0.7071 -0.7071 1050.4651 -99.3757)" style="fill:#89C765;stroke:#231F20;stroke-linecap:round;stroke-linejoin:round;stroke-miterlimit:10;" width="7.53" height="31.707"/>
		<g>
			<path style="fill:#62A73B;stroke:#231F20;stroke-linecap:round;stroke-linejoin:round;stroke-miterlimit:10;" d="
				M557.292,217.596c20.42,0,37.033-16.614,37.033-37.034c0-20.421-16.613-37.032-37.033-37.032s-37.033,16.611-37.033,37.032
				C520.259,200.981,536.872,217.596,557.292,217.596z M528.186,180.562c0-16.049,13.058-29.105,29.106-29.105
				s29.105,13.057,29.105,29.105s-13.057,29.106-29.105,29.106S528.186,196.61,528.186,180.562z"/>
		</g>
		<g>
			
				<circle style="fill:#ED1C24;stroke:#231F20;stroke-linecap:round;stroke-linejoin:round;stroke-miterlimit:10;" cx="557.391" cy="180.562" r="8.719"/>
			<path style="fill:#BE1E2D;stroke:#231F20;stroke-linecap:round;stroke-linejoin:round;stroke-miterlimit:10;" d="M566.61,180.562
				c0,5.091-4.128,9.218-9.219,9.218l0,0c-5.092,0-9.22-4.127-9.22-9.218l0,0c0-5.092,4.128-9.222,9.22-9.222l0,0
				C562.482,171.34,566.61,175.47,566.61,180.562L566.61,180.562z M565.612,180.562c-0.009-4.541-3.684-8.214-8.221-8.222l0,0
				c-4.539,0.008-8.211,3.681-8.22,8.222l0,0c0.009,4.539,3.679,8.21,8.22,8.218l0,0
				C561.931,188.771,565.604,185.099,565.612,180.562L565.612,180.562z"/>
		</g>
	</g>
	<g>
		
			<circle style="fill:#89C765;stroke:#231F20;stroke-linecap:round;stroke-linejoin:round;stroke-miterlimit:10;" cx="466.234" cy="180.562" r="8.323"/>
		
			<rect x="462.469" y="147.469" style="fill:#89C765;stroke:#231F20;stroke-linecap:round;stroke-linejoin:round;stroke-miterlimit:10;" width="7.53" height="31.706"/>
		
			<rect x="473.872" y="152.438" transform="matrix(-0.7072 -0.707 0.707 -0.7072 696.4199 625.0112)" style="fill:#89C765;stroke:#231F20;stroke-linecap:round;stroke-linejoin:round;stroke-miterlimit:10;" width="7.53" height="31.707"/>
		
			<rect x="466.333" y="176.104" style="fill:#89C765;stroke:#231F20;stroke-linecap:round;stroke-linejoin:round;stroke-miterlimit:10;" width="31.707" height="7.529"/>
		
			<rect x="473.452" y="175.418" transform="matrix(0.7072 -0.707 0.707 0.7072 4.5058 393.4224)" style="fill:#89C765;stroke:#231F20;stroke-linecap:round;stroke-linejoin:round;stroke-miterlimit:10;" width="7.53" height="31.708"/>
		
			<rect x="461.874" y="179.967" style="fill:#89C765;stroke:#231F20;stroke-linecap:round;stroke-linejoin:round;stroke-miterlimit:10;" width="7.53" height="31.707"/>
		
			<rect x="450.472" y="174.997" transform="matrix(0.7072 0.707 -0.707 0.7072 267.9528 -265.278)" style="fill:#89C765;stroke:#231F20;stroke-linecap:round;stroke-linejoin:round;stroke-miterlimit:10;" width="7.53" height="31.707"/>
		
			<rect x="433.834" y="175.508" style="fill:#89C765;stroke:#231F20;stroke-linecap:round;stroke-linejoin:round;stroke-miterlimit:10;" width="31.707" height="7.531"/>
		
			<rect x="450.892" y="152.017" transform="matrix(-0.7071 0.7071 -0.7071 -0.7071 894.85 -34.9178)" style="fill:#89C765;stroke:#231F20;stroke-linecap:round;stroke-linejoin:round;stroke-miterlimit:10;" width="7.53" height="31.707"/>
		<g>
			<path style="fill:#62A73B;stroke:#231F20;stroke-linecap:round;stroke-linejoin:round;stroke-miterlimit:10;" d="
				M466.135,217.596c20.419,0,37.032-16.614,37.032-37.034c0-20.421-16.613-37.032-37.032-37.032
				c-20.421,0-37.033,16.611-37.033,37.032C429.102,200.981,445.714,217.596,466.135,217.596z M437.028,180.562
				c0-16.049,13.058-29.105,29.106-29.105c16.05,0,29.106,13.057,29.106,29.105s-13.057,29.106-29.106,29.106
				C450.086,209.668,437.028,196.61,437.028,180.562z"/>
		</g>
		<g>
			
				<circle style="fill:#ED1C24;stroke:#231F20;stroke-linecap:round;stroke-linejoin:round;stroke-miterlimit:10;" cx="465.938" cy="180.743" r="8.72"/>
			<path style="fill:#BE1E2D;stroke:#231F20;stroke-linecap:round;stroke-linejoin:round;stroke-miterlimit:10;" d="
				M475.157,180.743c0,5.092-4.129,9.218-9.22,9.218l0,0c-5.093,0-9.218-4.126-9.218-9.218l0,0c0-5.093,4.125-9.219,9.218-9.219l0,0
				C471.028,171.524,475.157,175.65,475.157,180.743L475.157,180.743z M474.157,180.743c-0.008-4.54-3.681-8.212-8.22-8.221l0,0
				c-4.539,0.009-8.212,3.681-8.22,8.221l0,0c0.008,4.539,3.681,8.209,8.22,8.218l0,0
				C470.477,188.952,474.149,185.282,474.157,180.743L474.157,180.743z"/>
		</g>
	</g>
</g>
<g>
	<g>
		
			<circle style="fill:#89C765;stroke:#231F20;stroke-linecap:round;stroke-linejoin:round;stroke-miterlimit:10;" cx="661.981" cy="196.019" r="4.85"/>
		
			<rect x="659.788" y="176.737" style="fill:#89C765;stroke:#231F20;stroke-linecap:round;stroke-linejoin:round;stroke-miterlimit:10;" width="4.388" height="18.474"/>
		
			<rect x="666.432" y="179.634" transform="matrix(-0.7072 -0.707 0.707 -0.7072 1007.9587 795.1565)" style="fill:#89C765;stroke:#231F20;stroke-linecap:round;stroke-linejoin:round;stroke-miterlimit:10;" width="4.387" height="18.472"/>
		
			<rect x="662.039" y="193.42" style="fill:#89C765;stroke:#231F20;stroke-linecap:round;stroke-linejoin:round;stroke-miterlimit:10;" width="18.473" height="4.389"/>
		
			<rect x="666.187" y="193.021" transform="matrix(0.7071 -0.7071 0.7071 0.7071 52.7462 531.8562)" style="fill:#89C765;stroke:#231F20;stroke-linecap:round;stroke-linejoin:round;stroke-miterlimit:10;" width="4.388" height="18.474"/>
		
			<rect x="659.441" y="195.673" style="fill:#89C765;stroke:#231F20;stroke-linecap:round;stroke-linejoin:round;stroke-miterlimit:10;" width="4.388" height="18.473"/>
		
			<rect x="652.798" y="192.776" transform="matrix(0.707 0.7072 -0.7072 0.707 334.7824 -404.031)" style="fill:#89C765;stroke:#231F20;stroke-linecap:round;stroke-linejoin:round;stroke-miterlimit:10;" width="4.387" height="18.472"/>
		
			<rect x="643.104" y="193.075" style="fill:#89C765;stroke:#231F20;stroke-linecap:round;stroke-linejoin:round;stroke-miterlimit:10;" width="18.473" height="4.386"/>
		
			<rect x="653.043" y="179.389" transform="matrix(-0.7071 0.7071 -0.7071 -0.7071 1251.9373 -141.3194)" style="fill:#89C765;stroke:#231F20;stroke-linecap:round;stroke-linejoin:round;stroke-miterlimit:10;" width="4.388" height="18.472"/>
		<g>
			<path style="fill:#62A73B;stroke:#231F20;stroke-linecap:round;stroke-linejoin:round;stroke-miterlimit:10;" d="
				M661.924,217.596c11.896,0,21.576-9.68,21.576-21.577c0-11.896-9.68-21.576-21.576-21.576c-11.897,0-21.576,9.68-21.576,21.576
				C640.348,207.916,650.026,217.596,661.924,217.596z M644.966,196.019c0-9.35,7.607-16.958,16.958-16.958
				s16.958,7.608,16.958,16.958s-7.607,16.958-16.958,16.958S644.966,205.368,644.966,196.019z"/>
		</g>
		<g>
			
				<circle style="fill:#ED1C24;stroke:#231F20;stroke-linecap:round;stroke-linejoin:round;stroke-miterlimit:10;" cx="661.981" cy="196.019" r="7.088"/>
			
				<circle style="fill:#B52025;stroke:#231F20;stroke-linecap:round;stroke-linejoin:round;stroke-miterlimit:10;" cx="661.982" cy="196.019" r="3.567"/>
		</g>
	</g>
	<g>
		
			<circle style="fill:#89C765;stroke:#231F20;stroke-linecap:round;stroke-linejoin:round;stroke-miterlimit:10;" cx="616.94" cy="196.019" r="4.849"/>
		
			<rect x="614.746" y="176.737" style="fill:#89C765;stroke:#231F20;stroke-linecap:round;stroke-linejoin:round;stroke-miterlimit:10;" width="4.388" height="18.474"/>
		
			<rect x="621.391" y="179.634" transform="matrix(-0.7072 -0.707 0.707 -0.7072 931.0638 763.3127)" style="fill:#89C765;stroke:#231F20;stroke-linecap:round;stroke-linejoin:round;stroke-miterlimit:10;" width="4.387" height="18.472"/>
		
			<rect x="616.998" y="193.42" style="fill:#89C765;stroke:#231F20;stroke-linecap:round;stroke-linejoin:round;stroke-miterlimit:10;" width="18.473" height="4.389"/>
		
			<rect x="621.146" y="193.021" transform="matrix(0.7071 -0.7071 0.7071 0.7071 39.554 500.0074)" style="fill:#89C765;stroke:#231F20;stroke-linecap:round;stroke-linejoin:round;stroke-miterlimit:10;" width="4.388" height="18.474"/>
		
			<rect x="614.399" y="195.673" style="fill:#89C765;stroke:#231F20;stroke-linecap:round;stroke-linejoin:round;stroke-miterlimit:10;" width="4.389" height="18.473"/>
		
			<rect x="607.757" y="192.776" transform="matrix(0.707 0.7072 -0.7072 0.707 321.5852 -372.1772)" style="fill:#89C765;stroke:#231F20;stroke-linecap:round;stroke-linejoin:round;stroke-miterlimit:10;" width="4.387" height="18.472"/>
		
			<rect x="598.063" y="193.075" style="fill:#89C765;stroke:#231F20;stroke-linecap:round;stroke-linejoin:round;stroke-miterlimit:10;" width="18.473" height="4.386"/>
		
			<rect x="608.001" y="179.389" transform="matrix(-0.7071 0.7071 -0.7071 -0.7071 1175.0458 -109.4699)" style="fill:#89C765;stroke:#231F20;stroke-linecap:round;stroke-linejoin:round;stroke-miterlimit:10;" width="4.388" height="18.472"/>
		<g>
			<path style="fill:#62A73B;stroke:#231F20;stroke-linecap:round;stroke-linejoin:round;stroke-miterlimit:10;" d="
				M616.882,217.596c11.898,0,21.576-9.68,21.576-21.577c0-11.896-9.678-21.576-21.576-21.576c-11.896,0-21.575,9.68-21.575,21.576
				C595.307,207.916,604.985,217.596,616.882,217.596z M599.924,196.019c0-9.35,7.608-16.958,16.958-16.958
				c9.352,0,16.957,7.608,16.957,16.958s-7.605,16.958-16.957,16.958C607.532,212.977,599.924,205.368,599.924,196.019z"/>
		</g>
		<g>
			
				<circle style="fill:#ED1C24;stroke:#231F20;stroke-linecap:round;stroke-linejoin:round;stroke-miterlimit:10;" cx="616.94" cy="196.019" r="7.088"/>
			
				<circle style="fill:#B52025;stroke:#231F20;stroke-linecap:round;stroke-linejoin:round;stroke-miterlimit:10;" cx="616.94" cy="196.019" r="3.567"/>
		</g>
	</g>
</g>
<g>
	
		<rect x="611.788" y="148.957" style="fill:#ED1F24;stroke:#231F20;stroke-linecap:round;stroke-linejoin:round;stroke-miterlimit:10;" width="48.748" height="21.197"/>
	<path style="fill:#ED1F24;stroke:#231F20;stroke-linecap:round;stroke-linejoin:round;stroke-miterlimit:10;" d="M647.062,168.994
		c0,2.887,3.193,5.228,7.134,5.228l0,0c3.94,0,7.134-2.341,7.134-5.228v-18.876c0-2.887-3.193-5.227-7.134-5.227l0,0
		c-3.94,0-7.134,2.34-7.134,5.227V168.994z"/>
	<path style="fill:#ED1F24;stroke:#231F20;stroke-linecap:round;stroke-linejoin:round;stroke-miterlimit:10;" d="M611.788,168.994
		c0,2.887,3.193,5.228,7.135,5.228l0,0c3.939,0,7.133-2.341,7.133-5.228v-18.876c0-2.887-3.193-5.227-7.133-5.227l0,0
		c-3.941,0-7.135,2.34-7.135,5.227V168.994z"/>
	
		<rect x="628.83" y="139.344" style="fill:#ED1F24;stroke:#231F20;stroke-linecap:round;stroke-linejoin:round;stroke-miterlimit:10;" width="16.25" height="11.889"/>
	
		<rect x="601.087" y="156.384" style="fill:#ED1F24;stroke:#231F20;stroke-linecap:round;stroke-linejoin:round;stroke-miterlimit:10;" width="16.646" height="7.136"/>
	
		<rect x="554.732" y="167.534" transform="matrix(-0.9009 0.434 -0.434 -0.9009 1173.6892 72.6874)" style="fill:#ED1F24;stroke:#231F20;stroke-linecap:round;stroke-linejoin:round;stroke-miterlimit:10;" width="47.631" height="5.57"/>
	
		<rect x="465.129" y="177.958" transform="matrix(-1 0.0077 -0.0077 -1 1023.2565 357.5334)" style="fill:#ED1F24;stroke:#231F20;stroke-linecap:round;stroke-linejoin:round;stroke-miterlimit:10;" width="91.617" height="5.57"/>
	
		<circle style="fill:#ED1F24;stroke:#231F20;stroke-linecap:round;stroke-linejoin:round;stroke-miterlimit:10;" cx="600.294" cy="160.349" r="4.359"/>
	
		<circle style="fill:#ED1F24;stroke:#231F20;stroke-linecap:round;stroke-linejoin:round;stroke-miterlimit:10;" cx="557.391" cy="180.743" r="4.36"/>
	
		<circle style="fill:#ED1F24;stroke:#231F20;stroke-linecap:round;stroke-linejoin:round;stroke-miterlimit:10;" cx="465.937" cy="180.743" r="4.359"/>
	
		<rect x="631.604" y="136.568" style="fill:#ED1F24;stroke:#231F20;stroke-linecap:round;stroke-linejoin:round;stroke-miterlimit:10;" width="10.701" height="3.766"/>
</g>
<polygon style="fill:#1C75BC;stroke:#231F20;stroke-width:2;stroke-linecap:round;stroke-linejoin:round;stroke-miterlimit:10;" points="
	419.962,27.181 551.149,27.181 548.903,6.571 421.943,6.571 "/>
<rect x="635.666" y="34.001" style="fill:#231F20;stroke:#231F20;stroke-linecap:round;stroke-linejoin:round;stroke-miterlimit:10;" width="18.666" height="41.333"/>
</svg>
