<?xml version="1.0" encoding="iso-8859-1"?>
<!-- Generator: Adobe Illustrator 16.0.0, SVG Export Plug-In . SVG Version: 6.00 Build 0)  -->
<!DOCTYPE svg PUBLIC "-//W3C//DTD SVG 1.1//EN" "http://www.w3.org/Graphics/SVG/1.1/DTD/svg11.dtd">
<svg version="1.1" id="Layer_2" xmlns="http://www.w3.org/2000/svg" xmlns:xlink="http://www.w3.org/1999/xlink" x="0px" y="0px"
	 width="1393px" height="232px" viewBox="0 0 1393 232" style="enable-background:new 0 0 1393 232;" xml:space="preserve">
<rect x="23.667" y="125" style="fill:#CE181E;stroke:#231F20;stroke-linecap:round;stroke-linejoin:round;stroke-miterlimit:10;" width="1031.333" height="9"/>
<rect x="17.667" y="171.333" style="fill:#534A29;stroke:#231F20;stroke-width:2;stroke-linecap:round;stroke-linejoin:round;stroke-miterlimit:10;" width="140" height="30"/>
<rect x="231" y="171.333" style="fill:#534A29;stroke:#231F20;stroke-width:2;stroke-linecap:round;stroke-linejoin:round;stroke-miterlimit:10;" width="140" height="30"/>
<rect x="439.001" y="171.333" style="fill:#534A29;stroke:#231F20;stroke-width:2;stroke-linecap:round;stroke-linejoin:round;stroke-miterlimit:10;" width="140" height="30"/>
<rect x="650.667" y="171.333" style="fill:#534A29;stroke:#231F20;stroke-width:2;stroke-linecap:round;stroke-linejoin:round;stroke-miterlimit:10;" width="140" height="30"/>
<rect x="858.667" y="171.333" style="fill:#534A29;stroke:#231F20;stroke-width:2;stroke-linecap:round;stroke-linejoin:round;stroke-miterlimit:10;" width="139.333" height="30"/>
<ellipse style="fill:#F99D3E;stroke:#231F20;stroke-width:2;stroke-linecap:round;stroke-linejoin:round;stroke-miterlimit:10;" cx="926.5" cy="88.465" rx="65.5" ry="53.5"/>
<rect x="437" y="40.965" style="fill:#EE2D25;stroke:#231F20;stroke-width:2;stroke-linecap:round;stroke-linejoin:round;stroke-miterlimit:10;" width="66" height="81"/>
<rect x="501" y="55.965" style="fill:#FBB040;stroke:#231F20;stroke-width:2;stroke-linecap:round;stroke-linejoin:round;stroke-miterlimit:10;" width="78" height="66"/>
<rect x="222.162" y="68.281" style="fill:#F99C1C;stroke:#231F20;stroke-width:2;stroke-linecap:round;stroke-linejoin:round;stroke-miterlimit:10;" width="157.84" height="118.208"/>
<g>
	<g>
		
			<circle style="fill:#89C765;stroke:#231F20;stroke-linecap:round;stroke-linejoin:round;stroke-miterlimit:10;" cx="346.19" cy="200.417" r="4.85"/>
		
			<rect x="343.997" y="181.136" style="fill:#89C765;stroke:#231F20;stroke-linecap:round;stroke-linejoin:round;stroke-miterlimit:10;" width="4.389" height="18.472"/>
		
			<rect x="350.642" y="184.032" transform="matrix(-0.7074 -0.7068 0.7068 -0.7074 465.8477 579.3667)" style="fill:#89C765;stroke:#231F20;stroke-linecap:round;stroke-linejoin:round;stroke-miterlimit:10;" width="4.386" height="18.472"/>
		
			<rect x="346.248" y="197.819" style="fill:#89C765;stroke:#231F20;stroke-linecap:round;stroke-linejoin:round;stroke-miterlimit:10;" width="18.474" height="4.388"/>
		
			<rect x="350.396" y="197.419" transform="matrix(0.7069 -0.7073 0.7073 0.7069 -42.8246 309.9707)" style="fill:#89C765;stroke:#231F20;stroke-linecap:round;stroke-linejoin:round;stroke-miterlimit:10;" width="4.386" height="18.475"/>
		
			<rect x="343.649" y="200.07" style="fill:#89C765;stroke:#231F20;stroke-linecap:round;stroke-linejoin:round;stroke-miterlimit:10;" width="4.389" height="18.473"/>
		
			<rect x="337.006" y="197.174" transform="matrix(0.707 0.7072 -0.7072 0.707 245.364 -179.4091)" style="fill:#89C765;stroke:#231F20;stroke-linecap:round;stroke-linejoin:round;stroke-miterlimit:10;" width="4.387" height="18.473"/>
		
			<rect x="327.314" y="197.472" style="fill:#89C765;stroke:#231F20;stroke-linecap:round;stroke-linejoin:round;stroke-miterlimit:10;" width="18.473" height="4.388"/>
		
			<rect x="337.251" y="183.784" transform="matrix(-0.7071 0.7071 -0.7071 -0.7071 715.9562 89.4842)" style="fill:#89C765;stroke:#231F20;stroke-linecap:round;stroke-linejoin:round;stroke-miterlimit:10;" width="4.388" height="18.475"/>
		<g>
			<path style="fill:#62A73B;stroke:#231F20;stroke-linecap:round;stroke-linejoin:round;stroke-miterlimit:10;" d="
				M346.134,221.992c11.896,0,21.575-9.679,21.575-21.575c0-11.898-9.68-21.577-21.575-21.577c-11.896,0-21.577,9.679-21.577,21.577
				C324.557,212.313,334.237,221.992,346.134,221.992z M329.176,200.417c0-9.352,7.608-16.959,16.958-16.959
				s16.958,7.607,16.958,16.959c0,9.35-7.608,16.956-16.958,16.956S329.176,209.767,329.176,200.417z"/>
		</g>
	</g>
	
		<circle style="fill:#F7941E;stroke:#231F20;stroke-linecap:round;stroke-linejoin:round;stroke-miterlimit:10;" cx="346.19" cy="200.417" r="7.088"/>
	
		<circle style="fill:#B52025;stroke:#231F20;stroke-linecap:round;stroke-linejoin:round;stroke-miterlimit:10;" cx="346.191" cy="200.417" r="3.566"/>
</g>
<g>
	<g>
		
			<circle style="fill:#89C765;stroke:#231F20;stroke-linecap:round;stroke-linejoin:round;stroke-miterlimit:10;" cx="256.088" cy="200.417" r="4.85"/>
		
			<rect x="253.894" y="181.136" style="fill:#89C765;stroke:#231F20;stroke-linecap:round;stroke-linejoin:round;stroke-miterlimit:10;" width="4.39" height="18.472"/>
		
			<rect x="260.539" y="184.032" transform="matrix(-0.7074 -0.7068 0.7068 -0.7074 312.0029 515.6847)" style="fill:#89C765;stroke:#231F20;stroke-linecap:round;stroke-linejoin:round;stroke-miterlimit:10;" width="4.386" height="18.472"/>
		
			<rect x="256.146" y="197.819" style="fill:#89C765;stroke:#231F20;stroke-linecap:round;stroke-linejoin:round;stroke-miterlimit:10;" width="18.474" height="4.388"/>
		
			<rect x="260.293" y="197.419" transform="matrix(0.7071 -0.7071 0.7071 0.7071 -69.2474 246.1344)" style="fill:#89C765;stroke:#231F20;stroke-linecap:round;stroke-linejoin:round;stroke-miterlimit:10;" width="4.388" height="18.475"/>
		
			<rect x="253.548" y="200.07" style="fill:#89C765;stroke:#231F20;stroke-linecap:round;stroke-linejoin:round;stroke-miterlimit:10;" width="4.388" height="18.473"/>
		
			<rect x="246.905" y="197.174" transform="matrix(0.707 0.7072 -0.7072 0.707 218.9639 -115.6876)" style="fill:#89C765;stroke:#231F20;stroke-linecap:round;stroke-linejoin:round;stroke-miterlimit:10;" width="4.387" height="18.473"/>
		
			<rect x="237.212" y="197.472" style="fill:#89C765;stroke:#231F20;stroke-linecap:round;stroke-linejoin:round;stroke-miterlimit:10;" width="18.472" height="4.388"/>
		
			<rect x="247.149" y="183.785" transform="matrix(-0.7071 0.7071 -0.7071 -0.7071 562.1423 153.196)" style="fill:#89C765;stroke:#231F20;stroke-linecap:round;stroke-linejoin:round;stroke-miterlimit:10;" width="4.388" height="18.474"/>
		<g>
			<path style="fill:#62A73B;stroke:#231F20;stroke-linecap:round;stroke-linejoin:round;stroke-miterlimit:10;" d="
				M256.031,221.992c11.896,0,21.576-9.679,21.576-21.575c0-11.898-9.681-21.577-21.576-21.577
				c-11.897,0-21.576,9.679-21.576,21.577C234.455,212.313,244.134,221.992,256.031,221.992z M239.073,200.417
				c0-9.352,7.607-16.959,16.958-16.959c9.349,0,16.957,7.607,16.957,16.959c0,9.35-7.608,16.956-16.957,16.956
				C246.681,217.373,239.073,209.767,239.073,200.417z"/>
		</g>
	</g>
	
		<circle style="fill:#F7941E;stroke:#231F20;stroke-linecap:round;stroke-linejoin:round;stroke-miterlimit:10;" cx="256.088" cy="200.417" r="7.088"/>
	
		<circle style="fill:#B52025;stroke:#231F20;stroke-linecap:round;stroke-linejoin:round;stroke-miterlimit:10;" cx="256.088" cy="200.417" r="3.567"/>
</g>
<rect x="429.985" y="66.282" style="fill:#00A0BF;stroke:#231F20;stroke-width:2;stroke-linecap:round;stroke-linejoin:round;stroke-miterlimit:10;" width="157.841" height="118.208"/>
<g>
	<g>
		<g>
			
				<circle style="fill:#89C765;stroke:#231F20;stroke-linecap:round;stroke-linejoin:round;stroke-miterlimit:10;" cx="554.016" cy="200.418" r="4.849"/>
			
				<rect x="551.822" y="181.137" style="fill:#89C765;stroke:#231F20;stroke-linecap:round;stroke-linejoin:round;stroke-miterlimit:10;" width="4.388" height="18.474"/>
			
				<rect x="558.467" y="184.031" transform="matrix(-0.7071 -0.7071 0.7071 -0.7071 820.4448 726.3755)" style="fill:#89C765;stroke:#231F20;stroke-linecap:round;stroke-linejoin:round;stroke-miterlimit:10;" width="4.386" height="18.475"/>
			
				<rect x="554.073" y="197.82" style="fill:#89C765;stroke:#231F20;stroke-linecap:round;stroke-linejoin:round;stroke-miterlimit:10;" width="18.472" height="4.387"/>
			
				<rect x="558.22" y="197.421" transform="matrix(0.707 -0.7072 0.7072 0.707 18.052 456.8861)" style="fill:#89C765;stroke:#231F20;stroke-linecap:round;stroke-linejoin:round;stroke-miterlimit:10;" width="4.387" height="18.472"/>
			
				<rect x="551.476" y="200.071" style="fill:#89C765;stroke:#231F20;stroke-linecap:round;stroke-linejoin:round;stroke-miterlimit:10;" width="4.388" height="18.473"/>
			
				<rect x="544.831" y="197.176" transform="matrix(0.7069 0.7073 -0.7073 0.7069 306.343 -326.4241)" style="fill:#89C765;stroke:#231F20;stroke-linecap:round;stroke-linejoin:round;stroke-miterlimit:10;" width="4.388" height="18.472"/>
			
				<rect x="535.138" y="197.474" style="fill:#89C765;stroke:#231F20;stroke-linecap:round;stroke-linejoin:round;stroke-miterlimit:10;" width="18.475" height="4.387"/>
			
				<rect x="545.076" y="183.785" transform="matrix(-0.7073 0.7069 -0.7069 -0.7073 1070.8138 -57.3033)" style="fill:#89C765;stroke:#231F20;stroke-linecap:round;stroke-linejoin:round;stroke-miterlimit:10;" width="4.388" height="18.475"/>
			<g>
				<path style="fill:#62A73B;stroke:#231F20;stroke-linecap:round;stroke-linejoin:round;stroke-miterlimit:10;" d="
					M553.957,221.992c11.898,0,21.576-9.679,21.576-21.574c0-11.897-9.678-21.577-21.576-21.577
					c-11.896,0-21.575,9.68-21.575,21.577C532.382,212.313,542.062,221.992,553.957,221.992z M536.999,200.418
					c0-9.351,7.608-16.959,16.958-16.959c9.352,0,16.958,7.608,16.958,16.959c0,9.349-7.606,16.957-16.958,16.957
					C544.607,217.375,536.999,209.767,536.999,200.418z"/>
			</g>
		</g>
		
			<circle style="fill:#F7941E;stroke:#231F20;stroke-linecap:round;stroke-linejoin:round;stroke-miterlimit:10;" cx="554.015" cy="200.418" r="7.089"/>
		
			<circle style="fill:#B52025;stroke:#231F20;stroke-linecap:round;stroke-linejoin:round;stroke-miterlimit:10;" cx="554.017" cy="200.418" r="3.566"/>
	</g>
	<g>
		<g>
			
				<circle style="fill:#89C765;stroke:#231F20;stroke-linecap:round;stroke-linejoin:round;stroke-miterlimit:10;" cx="463.913" cy="200.418" r="4.849"/>
			
				<rect x="461.719" y="181.137" style="fill:#89C765;stroke:#231F20;stroke-linecap:round;stroke-linejoin:round;stroke-miterlimit:10;" width="4.389" height="18.474"/>
			
				<rect x="468.362" y="184.031" transform="matrix(-0.7072 -0.707 0.707 -0.7072 666.7015 662.6315)" style="fill:#89C765;stroke:#231F20;stroke-linecap:round;stroke-linejoin:round;stroke-miterlimit:10;" width="4.387" height="18.473"/>
			
				<rect x="463.97" y="197.82" style="fill:#89C765;stroke:#231F20;stroke-linecap:round;stroke-linejoin:round;stroke-miterlimit:10;" width="18.474" height="4.387"/>
			
				<rect x="468.117" y="197.421" transform="matrix(0.7072 -0.707 0.707 0.7072 -8.407 393.0137)" style="fill:#89C765;stroke:#231F20;stroke-linecap:round;stroke-linejoin:round;stroke-miterlimit:10;" width="4.388" height="18.472"/>
			
				<rect x="461.373" y="200.071" style="fill:#89C765;stroke:#231F20;stroke-linecap:round;stroke-linejoin:round;stroke-miterlimit:10;" width="4.387" height="18.473"/>
			
				<rect x="454.729" y="197.176" transform="matrix(0.7069 0.7073 -0.7073 0.7069 279.9325 -262.6919)" style="fill:#89C765;stroke:#231F20;stroke-linecap:round;stroke-linejoin:round;stroke-miterlimit:10;" width="4.388" height="18.472"/>
			
				<rect x="445.035" y="197.474" style="fill:#89C765;stroke:#231F20;stroke-linecap:round;stroke-linejoin:round;stroke-miterlimit:10;" width="18.474" height="4.387"/>
			
				<rect x="454.974" y="183.786" transform="matrix(-0.7072 0.707 -0.707 -0.7072 916.9506 6.3161)" style="fill:#89C765;stroke:#231F20;stroke-linecap:round;stroke-linejoin:round;stroke-miterlimit:10;" width="4.387" height="18.473"/>
			<g>
				<path style="fill:#62A73B;stroke:#231F20;stroke-linecap:round;stroke-linejoin:round;stroke-miterlimit:10;" d="
					M463.855,221.992c11.896,0,21.575-9.679,21.575-21.574c0-11.897-9.679-21.577-21.575-21.577s-21.577,9.68-21.577,21.577
					C442.278,212.313,451.959,221.992,463.855,221.992z M446.897,200.418c0-9.351,7.608-16.959,16.958-16.959
					s16.958,7.608,16.958,16.959c0,9.349-7.608,16.957-16.958,16.957S446.897,209.767,446.897,200.418z"/>
			</g>
		</g>
		
			<circle style="fill:#F7941E;stroke:#231F20;stroke-linecap:round;stroke-linejoin:round;stroke-miterlimit:10;" cx="463.912" cy="200.418" r="7.088"/>
		
			<circle style="fill:#B52025;stroke:#231F20;stroke-linecap:round;stroke-linejoin:round;stroke-miterlimit:10;" cx="463.913" cy="200.418" r="3.566"/>
	</g>
</g>
<path style="fill:#7B0000;stroke:#231F20;stroke-width:2;stroke-linecap:round;stroke-linejoin:round;stroke-miterlimit:10;" d="
	M784,112.102c0,15.656-12.691,28.348-28.347,28.348h-70.307c-15.656,0-28.347-12.691-28.347-28.348V66.795
	c0-15.655,12.691-28.346,28.347-28.346h70.307c15.656,0,28.347,12.69,28.347,28.346V112.102z"/>
<rect x="642.162" y="67.766" style="fill:#89C765;stroke:#231F20;stroke-width:2;stroke-linecap:round;stroke-linejoin:round;stroke-miterlimit:10;" width="157.84" height="118.207"/>
<g>
	<g>
		<g>
			
				<circle style="fill:#89C765;stroke:#231F20;stroke-linecap:round;stroke-linejoin:round;stroke-miterlimit:10;" cx="766.19" cy="201.9" r="4.85"/>
			
				<rect x="763.997" y="182.619" style="fill:#89C765;stroke:#231F20;stroke-linecap:round;stroke-linejoin:round;stroke-miterlimit:10;" width="4.389" height="18.473"/>
			
				<rect x="770.642" y="185.516" transform="matrix(-0.7074 -0.7068 0.7068 -0.7074 1181.9236 878.7457)" style="fill:#89C765;stroke:#231F20;stroke-linecap:round;stroke-linejoin:round;stroke-miterlimit:10;" width="4.386" height="18.472"/>
			
				<rect x="766.248" y="199.303" style="fill:#89C765;stroke:#231F20;stroke-linecap:round;stroke-linejoin:round;stroke-miterlimit:10;" width="18.474" height="4.389"/>
			
				<rect x="770.396" y="198.903" transform="matrix(0.707 -0.7072 0.7072 0.707 79.1713 607.375)" style="fill:#89C765;stroke:#231F20;stroke-linecap:round;stroke-linejoin:round;stroke-miterlimit:10;" width="4.386" height="18.475"/>
			
				<rect x="763.649" y="201.555" style="fill:#89C765;stroke:#231F20;stroke-linecap:round;stroke-linejoin:round;stroke-miterlimit:10;" width="4.389" height="18.473"/>
			
				<rect x="757.007" y="198.657" transform="matrix(0.7071 0.7071 -0.7071 0.7071 369.3674 -475.9446)" style="fill:#89C765;stroke:#231F20;stroke-linecap:round;stroke-linejoin:round;stroke-miterlimit:10;" width="4.386" height="18.472"/>
			
				<rect x="747.314" y="198.955" style="fill:#89C765;stroke:#231F20;stroke-linecap:round;stroke-linejoin:round;stroke-miterlimit:10;" width="18.473" height="4.389"/>
			
				<rect x="757.252" y="185.267" transform="matrix(-0.7072 0.707 -0.707 -0.7072 1434.0529 -204.8622)" style="fill:#89C765;stroke:#231F20;stroke-linecap:round;stroke-linejoin:round;stroke-miterlimit:10;" width="4.387" height="18.475"/>
			<g>
				<path style="fill:#62A73B;stroke:#231F20;stroke-linecap:round;stroke-linejoin:round;stroke-miterlimit:10;" d="
					M766.134,223.477c11.896,0,21.575-9.68,21.575-21.576c0-11.898-9.68-21.576-21.575-21.576c-11.896,0-21.577,9.678-21.577,21.576
					C744.557,213.797,754.237,223.477,766.134,223.477z M749.176,201.9c0-9.352,7.608-16.959,16.958-16.959
					s16.958,7.607,16.958,16.959c0,9.35-7.608,16.957-16.958,16.957S749.176,211.25,749.176,201.9z"/>
			</g>
		</g>
		
			<circle style="fill:#F7941E;stroke:#231F20;stroke-linecap:round;stroke-linejoin:round;stroke-miterlimit:10;" cx="766.19" cy="201.9" r="7.088"/>
		
			<circle style="fill:#B52025;stroke:#231F20;stroke-linecap:round;stroke-linejoin:round;stroke-miterlimit:10;" cx="766.191" cy="201.9" r="3.566"/>
	</g>
	<g>
		<g>
			
				<circle style="fill:#89C765;stroke:#231F20;stroke-linecap:round;stroke-linejoin:round;stroke-miterlimit:10;" cx="676.088" cy="201.9" r="4.85"/>
			
				<rect x="673.894" y="182.619" style="fill:#89C765;stroke:#231F20;stroke-linecap:round;stroke-linejoin:round;stroke-miterlimit:10;" width="4.39" height="18.473"/>
			
				<rect x="680.539" y="185.516" transform="matrix(-0.7074 -0.7068 0.7068 -0.7074 1028.0789 815.0637)" style="fill:#89C765;stroke:#231F20;stroke-linecap:round;stroke-linejoin:round;stroke-miterlimit:10;" width="4.386" height="18.472"/>
			
				<rect x="676.146" y="199.303" style="fill:#89C765;stroke:#231F20;stroke-linecap:round;stroke-linejoin:round;stroke-miterlimit:10;" width="18.474" height="4.389"/>
			
				<rect x="680.293" y="198.903" transform="matrix(0.7072 -0.707 0.707 0.7072 52.6653 543.455)" style="fill:#89C765;stroke:#231F20;stroke-linecap:round;stroke-linejoin:round;stroke-miterlimit:10;" width="4.387" height="18.476"/>
			
				<rect x="673.548" y="201.555" style="fill:#89C765;stroke:#231F20;stroke-linecap:round;stroke-linejoin:round;stroke-miterlimit:10;" width="4.388" height="18.473"/>
			
				<rect x="666.905" y="198.657" transform="matrix(0.7071 0.7071 -0.7071 0.7071 342.9772 -412.2332)" style="fill:#89C765;stroke:#231F20;stroke-linecap:round;stroke-linejoin:round;stroke-miterlimit:10;" width="4.386" height="18.472"/>
			
				<rect x="657.212" y="198.955" style="fill:#89C765;stroke:#231F20;stroke-linecap:round;stroke-linejoin:round;stroke-miterlimit:10;" width="18.472" height="4.389"/>
			
				<rect x="667.15" y="185.268" transform="matrix(-0.7072 0.707 -0.707 -0.7072 1280.229 -141.1604)" style="fill:#89C765;stroke:#231F20;stroke-linecap:round;stroke-linejoin:round;stroke-miterlimit:10;" width="4.387" height="18.475"/>
			<g>
				<path style="fill:#62A73B;stroke:#231F20;stroke-linecap:round;stroke-linejoin:round;stroke-miterlimit:10;" d="
					M676.031,223.477c11.896,0,21.576-9.68,21.576-21.576c0-11.898-9.681-21.576-21.576-21.576
					c-11.897,0-21.576,9.678-21.576,21.576C654.455,213.797,664.134,223.477,676.031,223.477z M659.073,201.9
					c0-9.352,7.607-16.959,16.958-16.959c9.349,0,16.957,7.607,16.957,16.959c0,9.35-7.608,16.957-16.957,16.957
					C666.681,218.857,659.073,211.25,659.073,201.9z"/>
			</g>
		</g>
		
			<circle style="fill:#F7941E;stroke:#231F20;stroke-linecap:round;stroke-linejoin:round;stroke-miterlimit:10;" cx="676.088" cy="201.9" r="7.088"/>
		
			<circle style="fill:#B52025;stroke:#231F20;stroke-linecap:round;stroke-linejoin:round;stroke-miterlimit:10;" cx="676.088" cy="201.9" r="3.567"/>
	</g>
</g>
<rect x="849.985" y="66.282" style="fill:#FFDC2F;stroke:#231F20;stroke-width:2;stroke-linecap:round;stroke-linejoin:round;stroke-miterlimit:10;" width="157.841" height="118.208"/>
<g>
	<g>
		<g>
			
				<circle style="fill:#89C765;stroke:#231F20;stroke-linecap:round;stroke-linejoin:round;stroke-miterlimit:10;" cx="974.016" cy="200.418" r="4.849"/>
			
				<rect x="971.822" y="181.137" style="fill:#89C765;stroke:#231F20;stroke-linecap:round;stroke-linejoin:round;stroke-miterlimit:10;" width="4.388" height="18.474"/>
			
				<rect x="978.467" y="184.031" transform="matrix(-0.7071 -0.7071 0.7071 -0.7071 1537.4296 1023.3604)" style="fill:#89C765;stroke:#231F20;stroke-linecap:round;stroke-linejoin:round;stroke-miterlimit:10;" width="4.386" height="18.475"/>
			
				<rect x="974.073" y="197.82" style="fill:#89C765;stroke:#231F20;stroke-linecap:round;stroke-linejoin:round;stroke-miterlimit:10;" width="18.472" height="4.387"/>
			
				<rect x="978.22" y="197.421" transform="matrix(0.707 -0.7072 0.7072 0.707 141.1139 753.9177)" style="fill:#89C765;stroke:#231F20;stroke-linecap:round;stroke-linejoin:round;stroke-miterlimit:10;" width="4.387" height="18.472"/>
			
				<rect x="971.476" y="200.071" style="fill:#89C765;stroke:#231F20;stroke-linecap:round;stroke-linejoin:round;stroke-miterlimit:10;" width="4.388" height="18.473"/>
			
				<rect x="964.831" y="197.176" transform="matrix(0.7069 0.7073 -0.7073 0.7069 429.4516 -623.5023)" style="fill:#89C765;stroke:#231F20;stroke-linecap:round;stroke-linejoin:round;stroke-miterlimit:10;" width="4.388" height="18.472"/>
			
				<rect x="955.138" y="197.474" style="fill:#89C765;stroke:#231F20;stroke-linecap:round;stroke-linejoin:round;stroke-miterlimit:10;" width="18.475" height="4.387"/>
			
				<rect x="965.076" y="183.785" transform="matrix(-0.7073 0.7069 -0.7069 -0.7073 1787.8921 -354.1946)" style="fill:#89C765;stroke:#231F20;stroke-linecap:round;stroke-linejoin:round;stroke-miterlimit:10;" width="4.388" height="18.475"/>
			<g>
				<path style="fill:#62A73B;stroke:#231F20;stroke-linecap:round;stroke-linejoin:round;stroke-miterlimit:10;" d="
					M973.957,221.992c11.898,0,21.576-9.679,21.576-21.574c0-11.897-9.678-21.577-21.576-21.577
					c-11.896,0-21.575,9.68-21.575,21.577C952.382,212.313,962.062,221.992,973.957,221.992z M956.999,200.418
					c0-9.351,7.608-16.959,16.958-16.959c9.352,0,16.958,7.608,16.958,16.959c0,9.349-7.606,16.957-16.958,16.957
					C964.607,217.375,956.999,209.767,956.999,200.418z"/>
			</g>
		</g>
		
			<circle style="fill:#F7941E;stroke:#231F20;stroke-linecap:round;stroke-linejoin:round;stroke-miterlimit:10;" cx="974.015" cy="200.418" r="7.089"/>
		
			<circle style="fill:#B52025;stroke:#231F20;stroke-linecap:round;stroke-linejoin:round;stroke-miterlimit:10;" cx="974.017" cy="200.418" r="3.566"/>
	</g>
	<g>
		<g>
			
				<circle style="fill:#89C765;stroke:#231F20;stroke-linecap:round;stroke-linejoin:round;stroke-miterlimit:10;" cx="883.913" cy="200.418" r="4.849"/>
			
				<rect x="881.719" y="181.137" style="fill:#89C765;stroke:#231F20;stroke-linecap:round;stroke-linejoin:round;stroke-miterlimit:10;" width="4.389" height="18.474"/>
			
				<rect x="888.362" y="184.031" transform="matrix(-0.7072 -0.707 0.707 -0.7072 1383.733 959.5696)" style="fill:#89C765;stroke:#231F20;stroke-linecap:round;stroke-linejoin:round;stroke-miterlimit:10;" width="4.387" height="18.473"/>
			
				<rect x="883.97" y="197.82" style="fill:#89C765;stroke:#231F20;stroke-linecap:round;stroke-linejoin:round;stroke-miterlimit:10;" width="18.474" height="4.387"/>
			
				<rect x="888.117" y="197.421" transform="matrix(0.7072 -0.707 0.707 0.7072 114.5614 689.9518)" style="fill:#89C765;stroke:#231F20;stroke-linecap:round;stroke-linejoin:round;stroke-miterlimit:10;" width="4.388" height="18.472"/>
			
				<rect x="881.373" y="200.071" style="fill:#89C765;stroke:#231F20;stroke-linecap:round;stroke-linejoin:round;stroke-miterlimit:10;" width="4.387" height="18.473"/>
			
				<rect x="874.729" y="197.176" transform="matrix(0.7069 0.7073 -0.7073 0.7069 403.0411 -559.7703)" style="fill:#89C765;stroke:#231F20;stroke-linecap:round;stroke-linejoin:round;stroke-miterlimit:10;" width="4.388" height="18.472"/>
			
				<rect x="865.035" y="197.474" style="fill:#89C765;stroke:#231F20;stroke-linecap:round;stroke-linejoin:round;stroke-miterlimit:10;" width="18.474" height="4.387"/>
			
				<rect x="874.974" y="183.786" transform="matrix(-0.7072 0.707 -0.707 -0.7072 1633.9822 -290.622)" style="fill:#89C765;stroke:#231F20;stroke-linecap:round;stroke-linejoin:round;stroke-miterlimit:10;" width="4.387" height="18.473"/>
			<g>
				<path style="fill:#62A73B;stroke:#231F20;stroke-linecap:round;stroke-linejoin:round;stroke-miterlimit:10;" d="
					M883.855,221.992c11.896,0,21.575-9.679,21.575-21.574c0-11.897-9.679-21.577-21.575-21.577s-21.577,9.68-21.577,21.577
					C862.278,212.313,871.959,221.992,883.855,221.992z M866.897,200.418c0-9.351,7.608-16.959,16.958-16.959
					s16.958,7.608,16.958,16.959c0,9.349-7.608,16.957-16.958,16.957S866.897,209.767,866.897,200.418z"/>
			</g>
		</g>
		
			<circle style="fill:#F7941E;stroke:#231F20;stroke-linecap:round;stroke-linejoin:round;stroke-miterlimit:10;" cx="883.912" cy="200.418" r="7.088"/>
		
			<circle style="fill:#B52025;stroke:#231F20;stroke-linecap:round;stroke-linejoin:round;stroke-miterlimit:10;" cx="883.913" cy="200.418" r="3.566"/>
	</g>
</g>
<path style="fill:#844589;stroke:#231F20;stroke-width:2;stroke-linecap:round;stroke-linejoin:round;stroke-miterlimit:10;" d="
	M1351.932,162.367c0,0-0.734,5.385,0.734,8.079c1.469,2.691,29.623,41.128,29.623,41.128c-16.158,10.281-58.756,6.121-59.735,6.121
	s-4.162-50.921-4.162-50.921L1351.932,162.367z"/>
<g>
	<polygon style="fill:#6F3975;" points="1372.105,211.249 1378.051,209.531 1351.164,169.495 1348.723,169.633 	"/>
	<g>
		<path style="fill:#231F20;" d="M1372.155,211.124c0.938-0.367,1.884-0.712,2.832-1.05c0.974-0.346,1.94-0.712,2.92-1.038
			l-0.284,0.782c-2.408-3.224-4.743-6.497-7.017-9.811c-2.306-3.293-4.48-6.674-6.548-10.126l-3.141-5.152
			c-1.067-1.704-2.162-3.39-3.284-5.056c-2.237-3.339-4.623-6.578-6.997-9.824l0.562,0.279l-2.435,0.238l0.6-1.095l3.067,5.121
			l3.003,5.156c2.008,3.436,3.996,6.881,5.884,10.383c1.921,3.483,3.761,7.013,5.596,10.545
			C1368.697,204.006,1370.488,207.53,1372.155,211.124z M1372.019,211.298c-2.22-3.315-4.312-6.703-6.413-10.085
			c-2.062-3.404-4.119-6.812-6.096-10.264c-2.01-3.434-3.918-6.925-5.808-10.426l-2.842-5.247l-2.779-5.283l-0.023-0.045
			c-0.185-0.35-0.05-0.783,0.301-0.968c0.103-0.054,0.215-0.08,0.323-0.082l2.446-0.037l0.052-0.001
			c0.215-0.003,0.406,0.11,0.512,0.281c2.107,3.426,4.203,6.859,6.446,10.193c1.118,1.67,2.265,3.32,3.438,4.953l3.581,4.856
			c2.414,3.22,4.721,6.512,6.896,9.893c2.208,3.358,4.354,6.758,6.427,10.207l0.024,0.04c0.142,0.236,0.065,0.543-0.171,0.686
			c-0.044,0.026-0.092,0.045-0.139,0.057c-1.002,0.247-2.016,0.453-3.024,0.68c-1.008,0.226-2.019,0.445-3.036,0.639
			C1372.088,211.354,1372.043,211.334,1372.019,211.298z"/>
	</g>
</g>
<polygon style="fill:#9B55A3;" points="1351.296,169.515 1378.184,209.531 1372.106,211.249 1371.66,210.455 1375.805,209.267 
	1350.167,169.513 "/>
<g>
	<polygon style="fill:#6F3975;" points="1356.25,214.111 1362.268,213.409 1342.732,170.43 1340.383,170.294 	"/>
	<g>
		<path style="fill:#231F20;" d="M1356.319,213.996c0.965-0.205,1.933-0.388,2.901-0.562c0.996-0.179,1.989-0.379,2.987-0.537
			l-0.41,0.727c-1.812-3.498-3.543-7.033-5.207-10.599c-1.699-3.549-3.253-7.164-4.69-10.832l-2.201-5.482
			c-0.756-1.817-1.542-3.62-2.359-5.409c-1.627-3.583-3.414-7.092-5.188-10.606l0.544,0.373l-2.355-0.037l0.737-0.987l2.137,5.421
			l2.07,5.446c1.386,3.628,2.751,7.264,4.008,10.939c1.291,3.662,2.497,7.356,3.696,11.052
			C1354.137,206.586,1355.295,210.267,1356.319,213.996z M1356.156,214.146c-1.614-3.546-3.091-7.142-4.578-10.733
			c-1.445-3.606-2.884-7.216-4.237-10.856c-1.388-3.627-2.667-7.295-3.926-10.969l-1.896-5.509l-1.829-5.533l-0.017-0.049
			c-0.124-0.376,0.08-0.782,0.456-0.906c0.098-0.032,0.2-0.042,0.297-0.032l2.344,0.234l0.053,0.006
			c0.227,0.022,0.411,0.171,0.491,0.368c1.481,3.647,2.95,7.302,4.579,10.883c0.811,1.792,1.652,3.57,2.524,5.335l2.683,5.263
			c1.818,3.496,3.521,7.043,5.077,10.657c1.592,3.598,3.116,7.227,4.561,10.892l0.018,0.045c0.101,0.257-0.025,0.547-0.282,0.648
			c-0.047,0.019-0.098,0.029-0.146,0.033c-1.008,0.076-2.021,0.109-3.03,0.165c-1.01,0.054-2.021,0.103-3.035,0.124
			C1356.216,214.212,1356.175,214.185,1356.156,214.146z"/>
	</g>
</g>
<polygon style="fill:#9B55A3;" points="1342.859,170.344 1362.396,213.529 1356.25,214.21 1355.947,213.373 1360.141,212.892 
	1341.766,170.336 "/>
<g>
	<polygon style="fill:#6F3975;" points="1339.234,214.98 1345.535,214.98 1332.75,170.487 1330.424,170.146 	"/>
	<g>
		<path style="fill:#231F20;" d="M1339.32,214.874c1.021-0.098,2.043-0.167,3.064-0.233c1.05-0.07,2.101-0.148,3.15-0.193
			l-0.512,0.681c-1.25-3.655-2.428-7.331-3.524-11.029c-1.138-3.688-2.11-7.422-2.979-11.186c-0.889-3.759-1.764-7.521-2.867-11.218
			c-1.068-3.707-2.303-7.366-3.522-11.029l0.526,0.46l-2.341-0.242l0.841-0.882c0.856,3.712,1.666,7.434,2.448,11.16
			c0.8,3.724,1.577,7.451,2.241,11.201c0.701,3.743,1.314,7.503,1.92,11.265C1338.324,207.368,1338.891,211.107,1339.32,214.874z
			 M1339.137,215c-1.038-3.677-1.933-7.382-2.839-11.084c-0.863-3.711-1.718-7.424-2.485-11.153
			c-0.805-3.723-1.495-7.467-2.164-11.216c-0.686-3.746-1.345-7.497-1.957-11.258l-0.009-0.055c-0.063-0.395,0.204-0.767,0.598-0.83
			c0.085-0.014,0.172-0.012,0.252,0.003l2.312,0.441l0.054,0.011c0.239,0.046,0.418,0.228,0.473,0.45
			c0.911,3.752,1.808,7.508,2.87,11.217c1.027,3.719,2.283,7.371,3.525,11.028c1.261,3.651,2.42,7.332,3.413,11.061
			c1.034,3.718,1.987,7.457,2.868,11.218l0.012,0.048c0.064,0.277-0.107,0.555-0.384,0.619c-0.046,0.011-0.095,0.015-0.14,0.014
			c-1.05-0.045-2.101-0.123-3.15-0.193c-1.05-0.068-2.101-0.138-3.15-0.24C1339.188,215.076,1339.149,215.042,1339.137,215z"/>
	</g>
</g>
<polygon style="fill:#9B55A3;" points="1332.75,170.487 1345.535,214.98 1339.234,214.98 1339.063,214.107 1343.207,213.989 
	1331.663,170.393 "/>
<g>
	<polygon style="fill:#6F3975;" points="1323.893,215.195 1330.078,215.427 1322.566,168.504 1320.294,167.596 	"/>
	<g>
		<path style="fill:#231F20;" d="M1323.99,215.092c1.003-0.055,2.006-0.086,3.008-0.11c1.033-0.024,2.066-0.068,3.1-0.072l-0.53,0.6
			c-0.823-3.879-1.561-7.771-2.227-11.675c-0.703-3.898-1.258-7.82-1.678-11.763c-0.454-3.938-0.86-7.884-1.517-11.789
			c-0.616-3.912-1.411-7.795-2.193-11.68l0.383,0.478l-2.311-0.813l0.989-0.726c0.438,3.956,0.816,7.917,1.166,11.88
			c0.368,3.962,0.717,7.925,0.949,11.896c0.268,3.969,0.446,7.944,0.614,11.921C1323.868,207.187,1324,211.134,1323.99,215.092z
			 M1323.793,215.203c-0.611-3.943-1.076-7.897-1.551-11.851c-0.433-3.957-0.854-7.914-1.186-11.879
			c-0.367-3.961-0.618-7.932-0.851-11.903c-0.25-3.971-0.472-7.943-0.633-11.92l-0.002-0.056c-0.016-0.388,0.286-0.715,0.675-0.731
			c0.111-0.004,0.221,0.02,0.316,0.062l2.234,1.003l0.046,0.021c0.191,0.086,0.312,0.264,0.337,0.458
			c0.47,3.935,0.927,7.872,1.562,11.78c0.596,3.915,1.441,7.791,2.239,11.673c0.832,3.878,1.529,7.776,2.078,11.699
			c0.586,3.916,1.101,7.845,1.529,11.786l0.005,0.047c0.03,0.274-0.168,0.521-0.442,0.551c-0.03,0.004-0.063,0.004-0.093,0.002
			c-1.029-0.081-2.057-0.202-3.086-0.304c-1.028-0.103-2.057-0.21-3.084-0.346C1323.839,215.289,1323.801,215.25,1323.793,215.203z"
			/>
	</g>
</g>
<polygon style="fill:#9B55A3;" points="1322.678,168.577 1330.078,215.427 1323.893,215.195 1323.824,214.288 1328.096,214.335 
	1321.654,168.098 "/>
<path style="fill:#844589;stroke:#231F20;stroke-width:2;stroke-linecap:round;stroke-linejoin:round;stroke-miterlimit:10;" d="
	M1305.996,142.353l2.563,1.52c1.553,6.803,3.854,12.281,8.19,15.026c2.598,1.646,10.107,3.271,10.107,3.271h25.166v7.135h-25.166
	v-0.334c-5.688-0.564-11.354-2.893-14.863-6.338C1307.189,157.914,1305.996,150.995,1305.996,142.353z"/>
<path style="fill:#534A29;stroke:#231F20;stroke-width:2;stroke-linecap:round;stroke-linejoin:round;stroke-miterlimit:10;" d="
	M1303.672,150.081v47.956h-61.29c-1.414-8.324-8.655-14.664-17.382-14.664c-8.728,0-15.969,6.34-17.383,14.664h-125.496v-47.956
	H1303.672z"/>
<rect x="1306.248" y="73.39" style="fill:#844589;stroke:#231F20;stroke-width:2;stroke-linecap:round;stroke-linejoin:round;stroke-miterlimit:10;" width="3.369" height="7.927"/>
<circle style="fill:#F9ED32;stroke:#231F20;stroke-linecap:round;stroke-linejoin:round;stroke-miterlimit:10;" cx="1314.769" cy="69.823" r="7.53"/>
<path style="fill:#844589;stroke:#231F20;stroke-width:2;stroke-linecap:round;stroke-linejoin:round;stroke-miterlimit:10;" d="
	M1305.555,69.823c0.297,9.908,10.205,10.801,10.205,10.801V59.022C1315.76,59.022,1305.275,60.513,1305.555,69.823z"/>
<rect x="1181.998" y="80.068" style="fill:#9C51A0;stroke:#231F20;stroke-width:2;stroke-linecap:round;stroke-linejoin:round;stroke-miterlimit:10;" width="129.204" height="71.604"/>
<path style="fill:#844589;" d="M1308.256,142.591c-3.035-0.442-50.73,7.926-77.682-2.379c-41.197-15.751-46.91-37.462-46.992-36.767
	c-0.197,1.717,0.265,48.618,0.265,48.618s119.957-0.265,126.563-0.265L1308.256,142.591z"/>
<path style="fill:#844589;stroke:#231F20;stroke-width:2;stroke-linecap:round;stroke-linejoin:round;stroke-miterlimit:10;" d="
	M1310.41,80.192c0.199,0,0.736-0.124,0.736-0.124l37.877,35.782l-37.365,35.379c-0.172,0.289-0.331,0.444-0.471,0.444
	c-1.443,0-5.271-15.728-5.271-35.608S1308.965,80.192,1310.41,80.192z"/>
<rect x="1058.605" y="10.968" style="fill:#9C51A0;stroke:#231F20;stroke-width:2;stroke-linecap:round;stroke-linejoin:round;stroke-miterlimit:10;" width="126.299" height="134.754"/>
<g>
	<rect x="1073.137" y="145.722" style="fill:#F99D3E;" width="112.031" height="12.154"/>
	<path style="fill:#231F20;" d="M1073.239,157.773c4.634-0.176,9.268-0.281,13.901-0.396l14.004-0.244
		c9.336-0.1,18.672-0.185,28.008-0.145c4.668,0.022,9.336,0.096,14.004,0.19l14.004,0.26c9.336,0.187,18.672,0.129,28.008,0.066
		l-0.37,0.37l-0.178-12.154l0.548,0.548c-9.336,0.177-18.672,0.303-28.008,0.373c-9.336,0.045-18.672,0.158-28.008,0.146
		c-9.336,0.008-18.672-0.058-28.008-0.179c-9.336-0.085-18.672-0.256-28.008-0.451l0.438-0.438L1073.239,157.773z M1073.037,157.876
		l-0.338-12.154c-0.007-0.234,0.179-0.431,0.413-0.437h0.001l0.023-0.001c9.336-0.195,18.672-0.366,28.008-0.451
		c9.336-0.121,18.672-0.187,28.008-0.179c9.336-0.012,18.672,0.102,28.008,0.146c9.336,0.07,18.672,0.196,28.008,0.373l0.019,0.001
		c0.297,0.005,0.533,0.25,0.529,0.547l-0.178,12.154v0.008c-0.003,0.202-0.169,0.364-0.37,0.362
		c-9.336-0.062-18.672-0.12-28.008,0.066l-14.004,0.26c-4.668,0.095-9.336,0.168-14.004,0.19c-9.336,0.04-18.672-0.045-28.008-0.145
		l-14.004-0.244c-4.668-0.115-9.336-0.221-14.004-0.398C1073.082,157.975,1073.039,157.93,1073.037,157.876z"/>
</g>
<path style="fill:#E2F3F2;stroke:#231F20;stroke-width:2;stroke-linecap:round;stroke-linejoin:round;stroke-miterlimit:10;" d="
	M1128.096,96.574c0,5.255,4.914,9.514,10.975,9.514h25.61c6.062,0,10.976-4.259,10.976-9.514V51.129
	c0-5.252-4.914-9.512-10.976-9.512h-25.61c-6.061,0-10.975,4.26-10.975,9.512V96.574z"/>
<path style="fill:#E2F3F2;stroke:#231F20;stroke-width:2;stroke-linecap:round;stroke-linejoin:round;stroke-miterlimit:10;" d="
	M1074.723,133.636c0,5.287,4.259,9.575,9.513,9.575h22.194c5.254,0,9.512-4.288,9.512-9.575V51.191c0-5.288-4.258-9.574-9.512-9.574
	h-22.194c-5.254,0-9.513,4.286-9.513,9.574V133.636z"/>
<g>
	<g>
		
			<circle style="fill:#89C765;stroke:#231F20;stroke-linecap:round;stroke-linejoin:round;stroke-miterlimit:10;" cx="1193.392" cy="184.958" r="8.323"/>
		
			<rect x="1189.627" y="151.865" style="fill:#89C765;stroke:#231F20;stroke-linecap:round;stroke-linejoin:round;stroke-miterlimit:10;" width="7.529" height="31.706"/>
		
			<rect x="1201.029" y="156.834" transform="matrix(-0.7072 -0.707 0.707 -0.7072 1934.7837 1146.5808)" style="fill:#89C765;stroke:#231F20;stroke-linecap:round;stroke-linejoin:round;stroke-miterlimit:10;" width="7.531" height="31.707"/>
		
			<rect x="1193.49" y="180.5" style="fill:#89C765;stroke:#231F20;stroke-linecap:round;stroke-linejoin:round;stroke-miterlimit:10;" width="31.707" height="7.529"/>
		
			<rect x="1200.61" y="179.814" transform="matrix(0.7072 -0.707 0.707 0.7072 214.2645 908.7503)" style="fill:#89C765;stroke:#231F20;stroke-linecap:round;stroke-linejoin:round;stroke-miterlimit:10;" width="7.531" height="31.709"/>
		
			<rect x="1189.032" y="184.363" style="fill:#89C765;stroke:#231F20;stroke-linecap:round;stroke-linejoin:round;stroke-miterlimit:10;" width="7.53" height="31.707"/>
		
			<rect x="1177.629" y="179.394" transform="matrix(0.7072 0.707 -0.707 0.7072 483.9935 -778.1212)" style="fill:#89C765;stroke:#231F20;stroke-linecap:round;stroke-linejoin:round;stroke-miterlimit:10;" width="7.53" height="31.707"/>
		
			<rect x="1160.992" y="179.904" style="fill:#89C765;stroke:#231F20;stroke-linecap:round;stroke-linejoin:round;stroke-miterlimit:10;" width="31.707" height="7.531"/>
		
			<rect x="1178.05" y="156.414" transform="matrix(-0.7071 0.7071 -0.7071 -0.7071 2139.2954 -541.5911)" style="fill:#89C765;stroke:#231F20;stroke-linecap:round;stroke-linejoin:round;stroke-miterlimit:10;" width="7.53" height="31.707"/>
		<g>
			<path style="fill:#62A73B;stroke:#231F20;stroke-linecap:round;stroke-linejoin:round;stroke-miterlimit:10;" d="
				M1193.293,221.992c20.42,0,37.033-16.614,37.033-37.034c0-20.421-16.613-37.032-37.033-37.032s-37.033,16.611-37.033,37.032
				C1156.26,205.378,1172.873,221.992,1193.293,221.992z M1164.187,184.958c0-16.049,13.058-29.105,29.106-29.105
				s29.105,13.057,29.105,29.105s-13.057,29.106-29.105,29.106S1164.187,201.007,1164.187,184.958z"/>
		</g>
		<g>
			
				<circle style="fill:#ED1C24;stroke:#231F20;stroke-linecap:round;stroke-linejoin:round;stroke-miterlimit:10;" cx="1193.392" cy="184.958" r="8.719"/>
			<path style="fill:#BE1E2D;stroke:#231F20;stroke-linecap:round;stroke-linejoin:round;stroke-miterlimit:10;" d="
				M1202.611,184.958c0,5.091-4.128,9.218-9.219,9.218l0,0c-5.092,0-9.22-4.127-9.22-9.218l0,0c0-5.092,4.128-9.222,9.22-9.222l0,0
				C1198.483,175.736,1202.611,179.866,1202.611,184.958L1202.611,184.958z M1201.613,184.958c-0.009-4.541-3.684-8.214-8.221-8.222
				l0,0c-4.539,0.008-8.211,3.681-8.22,8.222l0,0c0.009,4.539,3.679,8.21,8.22,8.218l0,0
				C1197.932,193.168,1201.604,189.495,1201.613,184.958L1201.613,184.958z"/>
		</g>
	</g>
	<g>
		
			<circle style="fill:#89C765;stroke:#231F20;stroke-linecap:round;stroke-linejoin:round;stroke-miterlimit:10;" cx="1102.235" cy="184.958" r="8.323"/>
		
			<rect x="1098.47" y="151.865" style="fill:#89C765;stroke:#231F20;stroke-linecap:round;stroke-linejoin:round;stroke-miterlimit:10;" width="7.53" height="31.706"/>
		
			<rect x="1109.873" y="156.834" transform="matrix(-0.7072 -0.707 0.707 -0.7072 1779.0742 1082.196)" style="fill:#89C765;stroke:#231F20;stroke-linecap:round;stroke-linejoin:round;stroke-miterlimit:10;" width="7.53" height="31.707"/>
		
			<rect x="1102.334" y="180.5" style="fill:#89C765;stroke:#231F20;stroke-linecap:round;stroke-linejoin:round;stroke-miterlimit:10;" width="31.707" height="7.529"/>
		
			<rect x="1109.453" y="179.814" transform="matrix(0.7072 -0.707 0.707 0.7072 187.6364 844.3891)" style="fill:#89C765;stroke:#231F20;stroke-linecap:round;stroke-linejoin:round;stroke-miterlimit:10;" width="7.53" height="31.708"/>
		
			<rect x="1097.875" y="184.363" style="fill:#89C765;stroke:#231F20;stroke-linecap:round;stroke-linejoin:round;stroke-miterlimit:10;" width="7.53" height="31.707"/>
		
			<rect x="1086.473" y="179.394" transform="matrix(0.7072 0.707 -0.707 0.7072 457.3004 -713.6699)" style="fill:#89C765;stroke:#231F20;stroke-linecap:round;stroke-linejoin:round;stroke-miterlimit:10;" width="7.53" height="31.707"/>
		
			<rect x="1069.835" y="179.904" style="fill:#89C765;stroke:#231F20;stroke-linecap:round;stroke-linejoin:round;stroke-miterlimit:10;" width="31.707" height="7.531"/>
		
			<rect x="1086.893" y="156.414" transform="matrix(-0.7071 0.7071 -0.7071 -0.7071 1983.6804 -477.1331)" style="fill:#89C765;stroke:#231F20;stroke-linecap:round;stroke-linejoin:round;stroke-miterlimit:10;" width="7.53" height="31.707"/>
		<g>
			<path style="fill:#62A73B;stroke:#231F20;stroke-linecap:round;stroke-linejoin:round;stroke-miterlimit:10;" d="
				M1102.136,221.992c20.419,0,37.032-16.614,37.032-37.034c0-20.421-16.613-37.032-37.032-37.032
				c-20.421,0-37.033,16.611-37.033,37.032C1065.103,205.378,1081.715,221.992,1102.136,221.992z M1073.029,184.958
				c0-16.049,13.058-29.105,29.106-29.105c16.05,0,29.106,13.057,29.106,29.105s-13.057,29.106-29.106,29.106
				C1086.087,214.064,1073.029,201.007,1073.029,184.958z"/>
		</g>
		<g>
			
				<circle style="fill:#ED1C24;stroke:#231F20;stroke-linecap:round;stroke-linejoin:round;stroke-miterlimit:10;" cx="1101.938" cy="185.14" r="8.72"/>
			<path style="fill:#BE1E2D;stroke:#231F20;stroke-linecap:round;stroke-linejoin:round;stroke-miterlimit:10;" d="
				M1111.158,185.14c0,5.092-4.129,9.218-9.22,9.218l0,0c-5.093,0-9.218-4.126-9.218-9.218l0,0c0-5.093,4.125-9.219,9.218-9.219l0,0
				C1107.029,175.921,1111.158,180.047,1111.158,185.14L1111.158,185.14z M1110.158,185.14c-0.008-4.54-3.681-8.212-8.22-8.221l0,0
				c-4.539,0.009-8.212,3.681-8.22,8.221l0,0c0.008,4.539,3.681,8.209,8.22,8.218l0,0
				C1106.478,193.349,1110.15,189.679,1110.158,185.14L1110.158,185.14z"/>
		</g>
	</g>
</g>
<g>
	<g>
		
			<circle style="fill:#89C765;stroke:#231F20;stroke-linecap:round;stroke-linejoin:round;stroke-miterlimit:10;" cx="1297.982" cy="200.415" r="4.85"/>
		
			<rect x="1295.789" y="181.134" style="fill:#89C765;stroke:#231F20;stroke-linecap:round;stroke-linejoin:round;stroke-miterlimit:10;" width="4.388" height="18.474"/>
		
			<rect x="1302.432" y="184.03" transform="matrix(-0.7072 -0.707 0.707 -0.7072 2090.6426 1252.3121)" style="fill:#89C765;stroke:#231F20;stroke-linecap:round;stroke-linejoin:round;stroke-miterlimit:10;" width="4.387" height="18.472"/>
		
			<rect x="1298.04" y="197.816" style="fill:#89C765;stroke:#231F20;stroke-linecap:round;stroke-linejoin:round;stroke-miterlimit:10;" width="18.473" height="4.389"/>
		
			<rect x="1302.188" y="197.417" transform="matrix(0.7071 -0.7071 0.7071 0.7071 235.9178 982.8645)" style="fill:#89C765;stroke:#231F20;stroke-linecap:round;stroke-linejoin:round;stroke-miterlimit:10;" width="4.388" height="18.474"/>
		
			<rect x="1295.442" y="200.069" style="fill:#89C765;stroke:#231F20;stroke-linecap:round;stroke-linejoin:round;stroke-miterlimit:10;" width="4.388" height="18.473"/>
		
			<rect x="1288.799" y="197.173" transform="matrix(0.707 0.7072 -0.7072 0.707 524.2429 -852.5342)" style="fill:#89C765;stroke:#231F20;stroke-linecap:round;stroke-linejoin:round;stroke-miterlimit:10;" width="4.387" height="18.472"/>
		
			<rect x="1279.105" y="197.472" style="fill:#89C765;stroke:#231F20;stroke-linecap:round;stroke-linejoin:round;stroke-miterlimit:10;" width="18.473" height="4.386"/>
		
			<rect x="1289.044" y="183.785" transform="matrix(-0.7071 0.7071 -0.7071 -0.7071 2340.7676 -583.5347)" style="fill:#89C765;stroke:#231F20;stroke-linecap:round;stroke-linejoin:round;stroke-miterlimit:10;" width="4.388" height="18.472"/>
		<g>
			<path style="fill:#62A73B;stroke:#231F20;stroke-linecap:round;stroke-linejoin:round;stroke-miterlimit:10;" d="
				M1297.925,221.992c11.896,0,21.576-9.68,21.576-21.577c0-11.896-9.68-21.576-21.576-21.576c-11.897,0-21.576,9.68-21.576,21.576
				C1276.349,212.312,1286.027,221.992,1297.925,221.992z M1280.967,200.415c0-9.35,7.607-16.958,16.958-16.958
				s16.958,7.608,16.958,16.958s-7.607,16.958-16.958,16.958S1280.967,209.765,1280.967,200.415z"/>
		</g>
		<g>
			
				<circle style="fill:#ED1C24;stroke:#231F20;stroke-linecap:round;stroke-linejoin:round;stroke-miterlimit:10;" cx="1297.982" cy="200.415" r="7.088"/>
			
				<circle style="fill:#B52025;stroke:#231F20;stroke-linecap:round;stroke-linejoin:round;stroke-miterlimit:10;" cx="1297.983" cy="200.415" r="3.567"/>
		</g>
	</g>
	<g>
		
			<circle style="fill:#89C765;stroke:#231F20;stroke-linecap:round;stroke-linejoin:round;stroke-miterlimit:10;" cx="1252.941" cy="200.415" r="4.849"/>
		
			<rect x="1250.747" y="181.134" style="fill:#89C765;stroke:#231F20;stroke-linecap:round;stroke-linejoin:round;stroke-miterlimit:10;" width="4.388" height="18.474"/>
		
			<rect x="1257.391" y="184.03" transform="matrix(-0.7072 -0.707 0.707 -0.7072 2013.7479 1220.4683)" style="fill:#89C765;stroke:#231F20;stroke-linecap:round;stroke-linejoin:round;stroke-miterlimit:10;" width="4.387" height="18.472"/>
		
			<rect x="1252.999" y="197.816" style="fill:#89C765;stroke:#231F20;stroke-linecap:round;stroke-linejoin:round;stroke-miterlimit:10;" width="18.473" height="4.389"/>
		
			<rect x="1257.146" y="197.417" transform="matrix(0.7071 -0.7071 0.7071 0.7071 222.7256 951.0157)" style="fill:#89C765;stroke:#231F20;stroke-linecap:round;stroke-linejoin:round;stroke-miterlimit:10;" width="4.388" height="18.474"/>
		
			<rect x="1250.4" y="200.069" style="fill:#89C765;stroke:#231F20;stroke-linecap:round;stroke-linejoin:round;stroke-miterlimit:10;" width="4.389" height="18.473"/>
		
			<rect x="1243.758" y="197.173" transform="matrix(0.707 0.7072 -0.7072 0.707 511.0457 -820.6804)" style="fill:#89C765;stroke:#231F20;stroke-linecap:round;stroke-linejoin:round;stroke-miterlimit:10;" width="4.387" height="18.472"/>
		
			<rect x="1234.064" y="197.472" style="fill:#89C765;stroke:#231F20;stroke-linecap:round;stroke-linejoin:round;stroke-miterlimit:10;" width="18.473" height="4.386"/>
		
			<rect x="1244.002" y="183.785" transform="matrix(-0.7071 0.7071 -0.7071 -0.7071 2263.876 -551.6852)" style="fill:#89C765;stroke:#231F20;stroke-linecap:round;stroke-linejoin:round;stroke-miterlimit:10;" width="4.388" height="18.472"/>
		<g>
			<path style="fill:#62A73B;stroke:#231F20;stroke-linecap:round;stroke-linejoin:round;stroke-miterlimit:10;" d="
				M1252.883,221.992c11.898,0,21.576-9.68,21.576-21.577c0-11.896-9.678-21.576-21.576-21.576c-11.896,0-21.575,9.68-21.575,21.576
				C1231.308,212.312,1240.986,221.992,1252.883,221.992z M1235.925,200.415c0-9.35,7.608-16.958,16.958-16.958
				c9.352,0,16.957,7.608,16.957,16.958s-7.605,16.958-16.957,16.958C1243.533,217.373,1235.925,209.765,1235.925,200.415z"/>
		</g>
		<g>
			
				<circle style="fill:#ED1C24;stroke:#231F20;stroke-linecap:round;stroke-linejoin:round;stroke-miterlimit:10;" cx="1252.941" cy="200.415" r="7.088"/>
			
				<circle style="fill:#B52025;stroke:#231F20;stroke-linecap:round;stroke-linejoin:round;stroke-miterlimit:10;" cx="1252.941" cy="200.415" r="3.567"/>
		</g>
	</g>
</g>
<g>
	
		<rect x="1247.789" y="153.354" style="fill:#F0CD78;stroke:#231F20;stroke-linecap:round;stroke-linejoin:round;stroke-miterlimit:10;" width="48.748" height="21.197"/>
	<path style="fill:#F0CD78;stroke:#231F20;stroke-linecap:round;stroke-linejoin:round;stroke-miterlimit:10;" d="M1283.062,173.391
		c0,2.887,3.193,5.228,7.134,5.228l0,0c3.94,0,7.134-2.341,7.134-5.228v-18.876c0-2.887-3.193-5.227-7.134-5.227l0,0
		c-3.94,0-7.134,2.34-7.134,5.227V173.391z"/>
	<path style="fill:#F0CD78;stroke:#231F20;stroke-linecap:round;stroke-linejoin:round;stroke-miterlimit:10;" d="M1247.789,173.391
		c0,2.887,3.193,5.228,7.135,5.228l0,0c3.939,0,7.133-2.341,7.133-5.228v-18.876c0-2.887-3.193-5.227-7.133-5.227l0,0
		c-3.941,0-7.135,2.34-7.135,5.227V173.391z"/>
	
		<rect x="1264.831" y="143.74" style="fill:#F0CD78;stroke:#231F20;stroke-linecap:round;stroke-linejoin:round;stroke-miterlimit:10;" width="16.25" height="11.889"/>
	
		<rect x="1237.088" y="160.78" style="fill:#F0CD78;stroke:#231F20;stroke-linecap:round;stroke-linejoin:round;stroke-miterlimit:10;" width="16.646" height="7.136"/>
	
		<rect x="1190.733" y="171.931" transform="matrix(-0.9009 0.434 -0.434 -0.9009 2384.5864 -194.9655)" style="fill:#F0CD78;stroke:#231F20;stroke-linecap:round;stroke-linejoin:round;stroke-miterlimit:10;" width="47.631" height="5.57"/>
	
		<rect x="1101.13" y="182.355" transform="matrix(-1 0.0077 -0.0077 -1 2295.2734 361.4113)" style="fill:#F0CD78;stroke:#231F20;stroke-linecap:round;stroke-linejoin:round;stroke-miterlimit:10;" width="91.617" height="5.57"/>
	
		<circle style="fill:#F0CD78;stroke:#231F20;stroke-linecap:round;stroke-linejoin:round;stroke-miterlimit:10;" cx="1236.295" cy="164.745" r="4.359"/>
	
		<circle style="fill:#F0CD78;stroke:#231F20;stroke-linecap:round;stroke-linejoin:round;stroke-miterlimit:10;" cx="1193.392" cy="185.14" r="4.36"/>
	
		<circle style="fill:#F0CD78;stroke:#231F20;stroke-linecap:round;stroke-linejoin:round;stroke-miterlimit:10;" cx="1101.938" cy="185.14" r="4.359"/>
	
		<rect x="1267.605" y="140.965" style="fill:#F0CD78;stroke:#231F20;stroke-linecap:round;stroke-linejoin:round;stroke-miterlimit:10;" width="10.701" height="3.766"/>
</g>
<polygon style="fill:#45B649;stroke:#231F20;stroke-width:2;stroke-linecap:round;stroke-linejoin:round;stroke-miterlimit:10;" points="
	1055.963,31.577 1187.15,31.577 1184.904,10.968 1057.944,10.968 "/>
<rect x="46.522" y="36.95" style="fill:#36459C;stroke:#231F20;stroke-width:2;stroke-linecap:round;stroke-linejoin:round;stroke-miterlimit:10;" width="110.999" height="85.499"/>
<rect x="8.506" y="66.767" style="fill:#B22F92;stroke:#231F20;stroke-width:2;stroke-linecap:round;stroke-linejoin:round;stroke-miterlimit:10;" width="157.841" height="118.208"/>
<g>
	<g>
		<g>
			
				<circle style="fill:#89C765;stroke:#231F20;stroke-linecap:round;stroke-linejoin:round;stroke-miterlimit:10;" cx="132.537" cy="200.902" r="4.849"/>
			
				<rect x="130.343" y="181.621" style="fill:#89C765;stroke:#231F20;stroke-linecap:round;stroke-linejoin:round;stroke-miterlimit:10;" width="4.388" height="18.474"/>
			
				<rect x="136.988" y="184.515" transform="matrix(-0.7071 -0.7071 0.7071 -0.7071 100.5926 429.1717)" style="fill:#89C765;stroke:#231F20;stroke-linecap:round;stroke-linejoin:round;stroke-miterlimit:10;" width="4.386" height="18.475"/>
			
				<rect x="132.594" y="198.305" style="fill:#89C765;stroke:#231F20;stroke-linecap:round;stroke-linejoin:round;stroke-miterlimit:10;" width="18.472" height="4.387"/>
			
				<rect x="136.741" y="197.906" transform="matrix(0.707 -0.7072 0.7072 0.707 -105.7858 158.9505)" style="fill:#89C765;stroke:#231F20;stroke-linecap:round;stroke-linejoin:round;stroke-miterlimit:10;" width="4.387" height="18.472"/>
			
				<rect x="129.997" y="200.556" style="fill:#89C765;stroke:#231F20;stroke-linecap:round;stroke-linejoin:round;stroke-miterlimit:10;" width="4.388" height="18.473"/>
			
				<rect x="123.352" y="197.66" transform="matrix(0.7069 0.7073 -0.7073 0.7069 183.1434 -28.1577)" style="fill:#89C765;stroke:#231F20;stroke-linecap:round;stroke-linejoin:round;stroke-miterlimit:10;" width="4.388" height="18.472"/>
			
				<rect x="113.659" y="197.958" style="fill:#89C765;stroke:#231F20;stroke-linecap:round;stroke-linejoin:round;stroke-miterlimit:10;" width="18.475" height="4.387"/>
			
				<rect x="123.597" y="184.27" transform="matrix(-0.7073 0.7069 -0.7069 -0.7073 351.5528 241.4605)" style="fill:#89C765;stroke:#231F20;stroke-linecap:round;stroke-linejoin:round;stroke-miterlimit:10;" width="4.388" height="18.475"/>
			<g>
				<path style="fill:#62A73B;stroke:#231F20;stroke-linecap:round;stroke-linejoin:round;stroke-miterlimit:10;" d="
					M132.478,222.477c11.898,0,21.576-9.679,21.576-21.574c0-11.897-9.678-21.577-21.576-21.577
					c-11.896,0-21.575,9.68-21.575,21.577C110.903,212.798,120.583,222.477,132.478,222.477z M115.52,200.902
					c0-9.351,7.608-16.959,16.958-16.959c9.352,0,16.958,7.608,16.958,16.959c0,9.349-7.606,16.957-16.958,16.957
					C123.128,217.859,115.52,210.251,115.52,200.902z"/>
			</g>
		</g>
		
			<circle style="fill:#F7941E;stroke:#231F20;stroke-linecap:round;stroke-linejoin:round;stroke-miterlimit:10;" cx="132.536" cy="200.902" r="7.089"/>
		
			<circle style="fill:#B52025;stroke:#231F20;stroke-linecap:round;stroke-linejoin:round;stroke-miterlimit:10;" cx="132.538" cy="200.902" r="3.566"/>
	</g>
	<g>
		<g>
			
				<circle style="fill:#89C765;stroke:#231F20;stroke-linecap:round;stroke-linejoin:round;stroke-miterlimit:10;" cx="42.434" cy="200.902" r="4.849"/>
			
				<rect x="40.24" y="181.621" style="fill:#89C765;stroke:#231F20;stroke-linecap:round;stroke-linejoin:round;stroke-miterlimit:10;" width="4.389" height="18.474"/>
			
				<rect x="46.883" y="184.516" transform="matrix(-0.7072 -0.707 0.707 -0.7072 -53.1975 365.4746)" style="fill:#89C765;stroke:#231F20;stroke-linecap:round;stroke-linejoin:round;stroke-miterlimit:10;" width="4.387" height="18.473"/>
			
				<rect x="42.491" y="198.305" style="fill:#89C765;stroke:#231F20;stroke-linecap:round;stroke-linejoin:round;stroke-miterlimit:10;" width="18.474" height="4.387"/>
			
				<rect x="46.638" y="197.905" transform="matrix(0.7072 -0.707 0.707 0.7072 -132.1509 95.1717)" style="fill:#89C765;stroke:#231F20;stroke-linecap:round;stroke-linejoin:round;stroke-miterlimit:10;" width="4.388" height="18.472"/>
			
				<rect x="39.894" y="200.556" style="fill:#89C765;stroke:#231F20;stroke-linecap:round;stroke-linejoin:round;stroke-miterlimit:10;" width="4.387" height="18.473"/>
			
				<rect x="33.25" y="197.66" transform="matrix(0.7069 0.7073 -0.7073 0.7069 156.7329 35.5745)" style="fill:#89C765;stroke:#231F20;stroke-linecap:round;stroke-linejoin:round;stroke-miterlimit:10;" width="4.388" height="18.472"/>
			
				<rect x="23.556" y="197.958" style="fill:#89C765;stroke:#231F20;stroke-linecap:round;stroke-linejoin:round;stroke-miterlimit:10;" width="18.474" height="4.387"/>
			
				<rect x="33.495" y="184.27" transform="matrix(-0.7072 0.707 -0.707 -0.7072 197.7365 305.1268)" style="fill:#89C765;stroke:#231F20;stroke-linecap:round;stroke-linejoin:round;stroke-miterlimit:10;" width="4.387" height="18.473"/>
			<g>
				<path style="fill:#62A73B;stroke:#231F20;stroke-linecap:round;stroke-linejoin:round;stroke-miterlimit:10;" d="
					M42.376,222.477c11.896,0,21.575-9.679,21.575-21.574c0-11.897-9.679-21.577-21.575-21.577s-21.577,9.68-21.577,21.577
					C20.799,212.798,30.48,222.477,42.376,222.477z M25.418,200.902c0-9.351,7.608-16.959,16.958-16.959s16.958,7.608,16.958,16.959
					c0,9.349-7.608,16.957-16.958,16.957S25.418,210.251,25.418,200.902z"/>
			</g>
		</g>
		
			<circle style="fill:#F7941E;stroke:#231F20;stroke-linecap:round;stroke-linejoin:round;stroke-miterlimit:10;" cx="42.433" cy="200.902" r="7.088"/>
		
			<circle style="fill:#B52025;stroke:#231F20;stroke-linecap:round;stroke-linejoin:round;stroke-miterlimit:10;" cx="42.434" cy="200.902" r="3.566"/>
	</g>
</g>
<rect x="1271.667" y="38.667" style="fill:#231F20;stroke:#231F20;stroke-linecap:round;stroke-linejoin:round;stroke-miterlimit:10;" width="18.666" height="41.333"/>
<rect x="1048.625" y="119" style="fill:#231F20;stroke:#231F20;stroke-linecap:round;stroke-linejoin:round;stroke-miterlimit:10;" width="9.75" height="21"/>
</svg>
