<?xml version="1.0" encoding="iso-8859-1"?>
<!-- Generator: Adobe Illustrator 16.0.0, SVG Export Plug-In . SVG Version: 6.00 Build 0)  -->
<!DOCTYPE svg PUBLIC "-//W3C//DTD SVG 1.1//EN" "http://www.w3.org/Graphics/SVG/1.1/DTD/svg11.dtd">
<svg version="1.1" id="Layer_1" xmlns="http://www.w3.org/2000/svg" xmlns:xlink="http://www.w3.org/1999/xlink" x="0px" y="0px"
	 width="440px" height="156px" viewBox="0 0 440 156" style="enable-background:new 0 0 440 156;" xml:space="preserve">
<path style="fill:#FFFF00;stroke:#000000;stroke-width:0.5197;" d="M434.359,76.804c2.146,0.104,3.069,15.993,0.597,15.814
	L434.359,76.804z"/>
<polygon style="fill:#383431;stroke:#1F1A17;stroke-width:0.4859;" points="291.446,89.066 383.269,89.066 404.269,135.355 
	291.446,135.355 "/>
<rect x="60.521" y="89.066" style="fill:#383431;stroke:#1F1A17;stroke-width:0.4859;" width="91.822" height="46.289"/>
<path style="fill:#D40000;" d="M9.273,73.564H4.542c-0.396,0-0.718,0.671-0.718,1.499v14.513c0,0.828,0.321,1.499,0.718,1.499h4.731
	c0.396,0,0.718-0.671,0.718-1.499V75.063C9.991,74.235,9.67,73.564,9.273,73.564z"/>
<g>
	<path style="fill:#A2D34C;" d="M410.51,4.618c5.331,0,9.063,4.417,9.707,9.708l1.433,11.712h-7.761
		c-1.304,0-1.934,2.157-1.146,3.723c1.981,11.191,2.942,21.92,5.298,32.703c0.216,0.989,1.191,2.313,2.176,2.549
		c1.463,0.35,4.07,0.225,6.186,0.143c0.516,2.96,5.397,3.778,7.36,6.959c1.102,1.406,1.139,14.767,1.317,28.206
		c0.179,13.441,0.506,26.957-1.747,30.04c-0.018,2.396-6.03,3.494-9.136,3.494H410.51h-26.851c0.454-1.853,0.688-3.793,0.688-5.784
		c0-13.355-10.843-24.17-24.198-24.17c-13.354,0-24.169,10.814-24.169,24.17c0,1.991,0.233,3.932,0.688,5.784h-26.785v1.604
		c0.001,0.731-0.613,1.346-1.346,1.346h-50.543c-0.731,0-1.317-0.614-1.317-1.346v-1.604h-68.613H127.21
		c0.454-1.853,0.716-3.793,0.716-5.784c0-13.355-10.843-24.17-24.197-24.17c-13.355,0-24.198,10.814-24.198,24.17
		c0,1.991,0.262,3.932,0.716,5.784h-5.812v1.604c0,0.731-0.586,1.346-1.317,1.346H22.572c-0.731,0-1.317-0.614-1.317-1.346v-1.604
		h-6.141c-5.33,0-9.679-4.349-9.679-9.679V14.326c0-5.331,4.349-9.708,9.679-9.708H410.51z"/>
	<path style="fill:#0A0B0C;" d="M410.511,4.518c2.26-0.02,4.522,0.855,6.183,2.398c1.681,1.525,2.801,3.6,3.348,5.784
		c0.283,1.099,0.365,2.225,0.514,3.329l0.414,3.33l0.826,6.661c0.01,0.081-0.047,0.153-0.127,0.164l-0.019,0.001l-6.137,0.011
		l-1.534,0.002c-0.475-0.035-0.863,0.266-1.091,0.685c-0.449,0.844-0.422,1.943,0.005,2.803c0.008,0.015,0.013,0.031,0.016,0.046
		c1.258,7.033,2.143,14.122,3.24,21.169c0.546,3.524,1.169,7.036,1.924,10.518c0.101,0.422,0.171,0.901,0.298,1.275
		c0.136,0.38,0.354,0.757,0.611,1.085c0.258,0.329,0.567,0.627,0.912,0.817c0.32,0.19,0.765,0.227,1.19,0.285
		c1.739,0.166,3.527,0.046,5.307-0.023c0.15-0.006,0.279,0.102,0.305,0.246c0.137,0.766,0.642,1.423,1.272,1.951
		c0.63,0.536,1.358,0.983,2.087,1.44c1.445,0.906,3.011,1.867,4.004,3.436l-0.022-0.031c0.255,0.371,0.301,0.67,0.389,0.987
		c0.073,0.312,0.126,0.62,0.174,0.927c0.093,0.615,0.159,1.228,0.215,1.84c0.112,1.225,0.184,2.447,0.246,3.669
		c0.12,2.445,0.189,4.887,0.249,7.331l0.274,14.648c0.089,4.881,0.201,9.766,0.169,14.661c-0.021,2.448-0.072,4.898-0.249,7.356
		c-0.091,1.229-0.211,2.461-0.417,3.695c-0.24,1.232-0.429,2.479-1.238,3.721l0.122-0.371c-0.005,0.802-0.491,1.443-0.957,1.837
		c-0.48,0.41-0.998,0.687-1.517,0.923c-1.041,0.458-2.106,0.743-3.178,0.964c-1.073,0.216-2.152,0.362-3.25,0.426
		c-1.127,0.054-2.144,0.025-3.218,0.041l-12.73,0.061l-25.461,0.103c-0.476,0.002-0.863-0.382-0.865-0.858
		c0-0.068,0.008-0.136,0.022-0.2l0.003-0.012c0.82-3.417,0.869-7.037,0.126-10.472c-0.734-3.441-2.287-6.695-4.457-9.461
		c-2.172-2.767-4.972-5.041-8.135-6.581c-3.159-1.549-6.673-2.354-10.195-2.356c-3.522-0.007-7.04,0.789-10.206,2.332
		c-3.168,1.535-5.976,3.808-8.153,6.576c-2.177,2.77-3.722,6.035-4.455,9.481c-0.738,3.442-0.688,7.065,0.137,10.487
		c0.11,0.448-0.163,0.901-0.611,1.013c-0.064,0.016-0.139,0.023-0.202,0.023l-26.785-0.047l0.79-0.79l-0.004,0.905l-0.001,0.453
		c-0.004,0.144,0.011,0.286-0.026,0.557c-0.156,1.001-0.984,1.735-1.961,1.805l-3.675-0.007l-7.243-0.025l-14.487-0.052
		l-14.487-0.053l-7.243-0.025l-3.653-0.019c-0.904-0.039-1.664-0.778-1.778-1.64c-0.019-0.104-0.021-0.224-0.023-0.314l0.001-0.227
		l0.002-0.453l0.003-0.905l0.581,0.581l-64.733-0.205l-64.733-0.051c-0.18,0-0.325-0.146-0.325-0.325
		c0-0.025,0.003-0.054,0.009-0.077c0.862-3.504,0.923-7.192,0.156-10.713c-0.754-3.521-2.34-6.854-4.568-9.679
		c-2.229-2.823-5.099-5.138-8.336-6.702c-3.231-1.571-6.831-2.381-10.413-2.371c-3.603,0.005-7.181,0.828-10.404,2.41
		c-3.225,1.574-6.077,3.895-8.287,6.717c-2.209,2.822-3.773,6.147-4.509,9.652c-0.749,3.505-0.673,7.168,0.197,10.645
		c0.066,0.266-0.095,0.535-0.361,0.602c-0.039,0.01-0.084,0.015-0.123,0.015l-5.812,0.012l0.509-0.51l0.002,0.905l0.001,0.452
		c-0.002,0.146,0.01,0.294-0.021,0.518c-0.113,0.852-0.843,1.544-1.708,1.586l-3.649,0.012l-7.241,0.015l-14.482,0.036
		l-14.482,0.041l-7.241,0.021l-3.654,0.005c-0.931-0.037-1.714-0.793-1.837-1.682c-0.02-0.106-0.022-0.231-0.025-0.324l0-0.227
		l-0.001-0.452l-0.002-0.905l0.656,0.655l-4.233,0.013l-2.133,0.001c-0.729-0.013-1.518-0.11-2.239-0.287
		c-2.949-0.701-5.52-2.773-6.857-5.494c-0.677-1.355-1.04-2.866-1.071-4.38l-0.017-4.246l-0.025-8.465L4.578,77.789L4.508,43.926
		L4.485,26.995l-0.012-8.465l-0.005-4.258C4.47,12.764,4.82,11.18,5.48,9.785c1.313-2.818,3.9-5.003,6.92-5.798
		c0.751-0.203,1.527-0.315,2.304-0.347c0.781-0.021,1.432-0.007,2.154-0.013l4.232-0.006l16.932-0.024l33.862-0.038l67.725,0.037
		l67.725,0.109l67.725,0.299l67.726,0.357L410.511,4.518z M410.509,4.718l-67.724,0.158L275.06,5.233l-67.725,0.299L139.61,5.641
		L71.885,5.678L38.022,5.64L21.091,5.616L16.858,5.61c-0.688,0.003-1.449-0.011-2.079,0.006c-0.632,0.023-1.263,0.112-1.874,0.276
		c-2.454,0.636-4.585,2.421-5.664,4.724c-0.542,1.158-0.831,2.39-0.837,3.705l-0.006,4.208l-0.012,8.465L6.363,43.926L6.293,77.789
		l-0.101,33.863l-0.025,8.465l-0.008,4.221c0.02,1.306,0.324,2.606,0.901,3.781c1.141,2.357,3.363,4.174,5.915,4.795
		c0.649,0.158,1.268,0.244,1.949,0.262l2.099,0.012l4.233,0.013c0.361-0.002,0.655,0.294,0.656,0.655l-0.002,0.905l-0.001,0.452
		l0,0.227c0.003,0.058,0,0.084,0.009,0.127c0.037,0.314,0.326,0.583,0.619,0.59l3.586,0.013l7.241,0.021l14.482,0.041l14.482,0.036
		l7.241,0.015l3.592,0.004c0.359-0.002,0.702-0.335,0.748-0.687c0.017-0.074,0.013-0.229,0.014-0.386l0.001-0.452l0.002-0.905
		c0-0.28,0.229-0.509,0.509-0.51l5.812,0.012l-0.484,0.616c-0.89-3.615-0.955-7.441-0.161-11.081
		c0.781-3.644,2.421-7.094,4.726-10.015c2.306-2.921,5.274-5.314,8.623-6.934c3.343-1.626,7.069-2.465,10.773-2.455
		c3.725,0.005,7.43,0.857,10.765,2.494c3.336,1.629,6.287,4.028,8.574,6.948c2.285,2.919,3.904,6.36,4.667,9.988
		c0.776,3.624,0.696,7.425-0.202,11.013l-0.316-0.402l64.733-0.051l64.733-0.205c0.319-0.001,0.58,0.262,0.581,0.581l0.003,0.905
		l0.002,0.453l0.001,0.227c0.004,0.059,0.002,0.09,0.012,0.136c0.045,0.342,0.36,0.628,0.679,0.631l3.591-0.011l7.243-0.025
		l14.487-0.053l14.487-0.052l7.243-0.025l3.567-0.016c0.239,0.001,0.497-0.263,0.516-0.465c0.013-0.028,0.01-0.189,0.009-0.347
		l-0.001-0.453l-0.004-0.905c-0.001-0.435,0.35-0.788,0.784-0.79h0.006l26.785-0.047l-0.813,1.036
		c-0.893-3.677-0.952-7.539-0.167-11.239c0.779-3.701,2.432-7.211,4.763-10.188c2.332-2.976,5.341-5.42,8.743-7.077
		c3.398-1.665,7.185-2.528,10.966-2.527c3.782-0.005,7.57,0.854,10.974,2.515c3.408,1.652,6.426,4.094,8.769,7.068
		c2.342,2.976,3.992,6.496,4.773,10.201c0.785,3.707,0.721,7.573-0.175,11.254l-0.84-1.07l25.461,0.103l12.73,0.061
		c1.048-0.004,2.153,0.033,3.146-0.007c1.021-0.049,2.052-0.177,3.061-0.37c1.007-0.195,2.005-0.458,2.911-0.846
		c0.886-0.368,1.748-1.001,1.728-1.575c-0.005-0.124,0.032-0.24,0.098-0.336l0.024-0.035c0.559-0.806,0.835-2.036,1.049-3.181
		c0.208-1.172,0.339-2.372,0.439-3.576c0.197-2.411,0.275-4.845,0.319-7.278c0.081-4.869,0.019-9.751-0.021-14.634l-0.132-14.646
		c-0.035-2.439-0.082-4.878-0.178-7.312c-0.05-1.216-0.11-2.432-0.208-3.64c-0.05-0.604-0.109-1.206-0.192-1.799
		c-0.043-0.296-0.091-0.59-0.155-0.874c-0.06-0.271-0.152-0.583-0.25-0.717l-0.011-0.016l-0.012-0.017
		c-0.856-1.394-2.314-2.339-3.757-3.255c-0.725-0.465-1.468-0.929-2.147-1.517c-0.674-0.574-1.293-1.363-1.453-2.318l0.305,0.246
		c-1.783,0.051-3.573,0.158-5.391-0.032c-0.449-0.068-0.927-0.098-1.387-0.361c-0.436-0.247-0.775-0.59-1.063-0.963
		c-0.287-0.376-0.521-0.782-0.682-1.245c-0.15-0.475-0.196-0.886-0.3-1.332c-0.727-3.501-1.304-7.028-1.848-10.557
		c-1.075-7.061-1.935-14.147-3.166-21.173l0.016,0.046c-0.469-0.968-0.503-2.142,0.011-3.113c0.242-0.478,0.797-0.896,1.374-0.844
		l1.534,0.002l6.137,0.011l-0.146,0.164l-0.803-6.664l-0.402-3.332c-0.146-1.111-0.224-2.229-0.497-3.301
		c-0.529-2.146-1.621-4.183-3.259-5.679C414.922,5.568,412.732,4.708,410.509,4.718z"/>
</g>
<path style="fill:#FFFB9C;stroke:#0A0B0C;stroke-width:0.1372;" d="M420.704,19.462l1.002,8.076h-7.731
	c-1.399,0-2.049,2.157-1.203,3.723c2.127,11.191,3.17,21.92,5.699,32.703c0.231,0.989,1.263,2.313,2.319,2.549
	c2.012,0.449,3.731,0.154,5.756,0.115l0.258,2.147H5.436V19.462H420.704z"/>
<line style="fill:none;stroke:#0A0B0C;stroke-linecap:round;stroke-linejoin:round;" x1="5.425" y1="19.453" x2="420.773" y2="19.419"/>
<rect x="23.187" y="19.453" style="fill:#FFFB9C;stroke:#0A0B0C;stroke-width:0.3464;" width="12.445" height="115.903"/>
<rect x="35.632" y="19.453" style="fill:#FFFB9C;stroke:#0A0B0C;stroke-width:0.3464;" width="12.444" height="115.903"/>
<rect x="48.076" y="19.453" style="fill:#FFFB9C;stroke:#0A0B0C;stroke-width:0.3464;" width="12.445" height="115.903"/>
<rect x="60.521" y="19.453" style="fill:#FFFB9C;stroke:#0A0B0C;stroke-width:0.3464;" width="12.445" height="115.903"/>
<rect x="23.345" y="19.431" style="fill:#FFFB9C;stroke:#0A0B0C;stroke-width:0.4859;" width="49.664" height="8.08"/>
<rect x="258.617" y="19.453" style="fill:#FFFB9C;stroke:#0A0B0C;stroke-width:0.3464;" width="12.444" height="115.903"/>
<rect x="271.062" y="19.453" style="fill:#FFFB9C;stroke:#0A0B0C;stroke-width:0.3464;" width="12.445" height="115.903"/>
<rect x="283.507" y="19.453" style="fill:#FFFB9C;stroke:#0A0B0C;stroke-width:0.3464;" width="12.445" height="115.903"/>
<rect x="295.952" y="19.453" style="fill:#FFFB9C;stroke:#0A0B0C;stroke-width:0.3464;" width="12.444" height="115.903"/>
<g>
	<rect x="25.387" y="29.268" style="fill:#E1F4FD;" width="7.915" height="37.131"/>
	<path style="fill:#000810;" d="M25.387,29.218c2.638-0.131,5.277-0.211,7.915-0.268c0.17-0.003,0.312,0.131,0.317,0.301l0,0.017
		c0.096,3.094,0.08,6.188,0.125,9.283c0.007,3.094-0.028,6.188-0.121,9.283l-0.12,4.641l-0.049,4.642
		c0.006,3.094,0.043,6.188,0.121,9.283c0.003,0.147-0.113,0.27-0.26,0.273l-0.014,0c-2.638,0.069-5.277,0.125-7.915,0.159
		c-0.236,0.003-0.43-0.186-0.433-0.421v-0.001v-0.01l-0.091-9.283l0.022-9.283l0.153-9.283c0.069-3.094,0.168-6.188,0.299-9.283
		C25.338,29.24,25.36,29.219,25.387,29.218z M25.438,29.319c0.129,3.077,0.229,6.154,0.297,9.231l0.153,9.283l0.022,9.283
		l-0.091,9.283l-0.433-0.433c2.638,0.034,5.277,0.09,7.915,0.159l-0.274,0.274c0.078-3.094,0.115-6.188,0.121-9.283L33.1,52.474
		l-0.12-4.641c-0.092-3.094-0.127-6.188-0.121-9.283c0.045-3.094,0.028-6.188,0.125-9.283l0.317,0.317
		C30.681,29.529,28.06,29.449,25.438,29.319z"/>
</g>
<g>
	<rect x="37.974" y="29.376" style="fill:#E1F4FD;" width="7.915" height="37.131"/>
	<g>
		<path style="fill:#000810;" d="M37.974,29.327c2.638-0.131,5.277-0.211,7.915-0.268c0.17-0.003,0.312,0.131,0.317,0.301l0,0.017
			c0.096,3.094,0.08,6.188,0.125,9.283c0.007,3.094-0.028,6.188-0.121,9.283l-0.12,4.641l-0.049,4.642
			c0.006,3.094,0.043,6.188,0.121,9.283c0.003,0.147-0.113,0.27-0.26,0.273l-0.014,0c-2.638,0.069-5.277,0.125-7.915,0.159
			c-0.236,0.003-0.43-0.186-0.433-0.421v-0.001v-0.01l-0.091-9.283l0.022-9.283l0.153-9.283c0.069-3.094,0.168-6.188,0.299-9.283
			C37.925,29.349,37.947,29.328,37.974,29.327z M38.025,29.428c0.129,3.077,0.229,6.154,0.297,9.231l0.153,9.283l0.022,9.283
			l-0.091,9.283l-0.433-0.433c2.638,0.034,5.277,0.09,7.915,0.159l-0.274,0.274c0.078-3.094,0.115-6.188,0.121-9.283l-0.049-4.642
			l-0.12-4.641c-0.092-3.095-0.127-6.189-0.121-9.283c0.045-3.094,0.028-6.188,0.125-9.283l0.317,0.317
			C43.268,29.638,40.646,29.558,38.025,29.428z"/>
	</g>
</g>
<g>
	<rect x="50.431" y="29.268" style="fill:#E1F4FD;" width="7.916" height="37.131"/>
	<g>
		<path style="fill:#000810;" d="M50.431,29.218c2.639-0.131,5.277-0.212,7.916-0.268c0.17-0.003,0.312,0.131,0.317,0.301l0,0.017
			c0.096,3.094,0.08,6.188,0.125,9.283c0.007,3.094-0.028,6.188-0.121,9.283l-0.12,4.641L58.5,57.116
			c0.006,3.094,0.043,6.188,0.121,9.283c0.003,0.147-0.113,0.27-0.26,0.273l-0.014,0c-2.639,0.069-5.277,0.125-7.916,0.159
			c-0.236,0.003-0.43-0.186-0.433-0.421v-0.001v-0.01l-0.091-9.283l0.022-9.283l0.153-9.283c0.069-3.094,0.168-6.188,0.299-9.283
			C50.382,29.24,50.404,29.219,50.431,29.218z M50.482,29.319c0.129,3.077,0.229,6.154,0.297,9.231l0.153,9.283l0.022,9.283
			l-0.091,9.283l-0.433-0.433c2.639,0.034,5.277,0.09,7.916,0.159l-0.274,0.274c0.078-3.094,0.115-6.188,0.121-9.283l-0.049-4.642
			l-0.12-4.641c-0.092-3.094-0.127-6.188-0.121-9.283c0.045-3.094,0.028-6.188,0.125-9.283l0.317,0.317
			C55.725,29.529,53.104,29.449,50.482,29.319z"/>
	</g>
</g>
<g>
	<rect x="63.147" y="29.268" style="fill:#E1F4FD;" width="7.916" height="37.131"/>
	<g>
		<path style="fill:#000810;" d="M63.147,29.218c2.639-0.131,5.277-0.212,7.916-0.268c0.17-0.003,0.312,0.131,0.317,0.301l0,0.017
			c0.096,3.094,0.08,6.188,0.125,9.283c0.007,3.094-0.028,6.188-0.121,9.283l-0.12,4.641l-0.049,4.642
			c0.006,3.094,0.043,6.188,0.121,9.283c0.003,0.147-0.113,0.27-0.26,0.273l-0.014,0c-2.639,0.069-5.277,0.125-7.916,0.159
			c-0.236,0.003-0.43-0.186-0.433-0.421v-0.001v-0.01l-0.091-9.283l0.022-9.283l0.153-9.283c0.069-3.094,0.168-6.188,0.299-9.283
			C63.099,29.24,63.121,29.219,63.147,29.218z M63.199,29.319c0.129,3.077,0.229,6.154,0.297,9.231l0.153,9.283l0.022,9.283
			l-0.091,9.283l-0.433-0.433c2.639,0.034,5.277,0.09,7.916,0.159l-0.274,0.274c0.078-3.094,0.115-6.188,0.121-9.283l-0.049-4.642
			l-0.12-4.641c-0.092-3.094-0.127-6.188-0.121-9.283c0.045-3.094,0.028-6.188,0.125-9.283l0.317,0.317
			C68.442,29.529,65.82,29.449,63.199,29.319z"/>
	</g>
</g>
<g>
	<g>
		<rect x="260.816" y="29.268" style="fill:#E1F4FD;" width="7.916" height="37.131"/>
		<path style="fill:#000810;" d="M260.816,29.218c2.639-0.131,5.277-0.212,7.916-0.268c0.17-0.003,0.312,0.131,0.316,0.301
			l0.001,0.017c0.097,3.094,0.08,6.188,0.125,9.283c0.006,3.094-0.029,6.188-0.121,9.283l-0.12,4.641l-0.049,4.642
			c0.006,3.094,0.044,6.188,0.121,9.283c0.004,0.147-0.112,0.27-0.26,0.273l-0.014,0c-2.639,0.069-5.277,0.125-7.916,0.159
			c-0.236,0.003-0.43-0.186-0.433-0.421v-0.001v-0.01l-0.091-9.283l0.021-9.283l0.153-9.283c0.069-3.094,0.168-6.188,0.299-9.283
			C260.768,29.24,260.79,29.219,260.816,29.218z M260.868,29.319c0.129,3.077,0.229,6.154,0.297,9.231l0.153,9.283l0.021,9.283
			l-0.091,9.283l-0.433-0.433c2.639,0.034,5.277,0.09,7.916,0.159l-0.273,0.274c0.077-3.094,0.115-6.188,0.121-9.283l-0.049-4.642
			l-0.12-4.641c-0.092-3.094-0.127-6.188-0.121-9.283c0.045-3.094,0.028-6.188,0.125-9.283l0.317,0.317
			C266.111,29.529,263.489,29.449,260.868,29.319z"/>
	</g>
	<g>
		<rect x="273.403" y="29.376" style="fill:#E1F4FD;" width="7.916" height="37.131"/>
		<path style="fill:#000810;" d="M273.403,29.327c2.639-0.131,5.277-0.211,7.916-0.268c0.17-0.003,0.312,0.131,0.316,0.301
			l0.001,0.017c0.097,3.094,0.08,6.188,0.125,9.283c0.006,3.094-0.029,6.188-0.121,9.283l-0.12,4.641l-0.049,4.642
			c0.006,3.094,0.044,6.188,0.121,9.283c0.004,0.147-0.112,0.27-0.26,0.273l-0.014,0c-2.639,0.069-5.277,0.125-7.916,0.159
			c-0.235,0.003-0.43-0.186-0.433-0.421v-0.001v-0.01l-0.091-9.283l0.021-9.283l0.153-9.283c0.069-3.094,0.168-6.188,0.299-9.283
			C273.354,29.349,273.377,29.328,273.403,29.327z M273.455,29.428c0.129,3.077,0.229,6.154,0.297,9.231l0.153,9.283l0.021,9.283
			l-0.091,9.283l-0.433-0.433c2.639,0.034,5.277,0.09,7.916,0.159l-0.273,0.274c0.077-3.094,0.115-6.188,0.121-9.283l-0.049-4.642
			l-0.12-4.641c-0.092-3.095-0.127-6.189-0.121-9.283c0.045-3.094,0.028-6.188,0.125-9.283l0.317,0.317
			C278.698,29.638,276.076,29.558,273.455,29.428z"/>
	</g>
	<g>
		<rect x="285.861" y="29.268" style="fill:#E1F4FD;" width="7.915" height="37.131"/>
		<path style="fill:#000810;" d="M285.861,29.218c2.639-0.131,5.276-0.211,7.915-0.268c0.17-0.003,0.312,0.131,0.316,0.301
			l0.001,0.017c0.097,3.094,0.08,6.188,0.125,9.283c0.006,3.094-0.029,6.188-0.121,9.283l-0.12,4.641l-0.049,4.642
			c0.006,3.094,0.044,6.188,0.121,9.283c0.004,0.147-0.112,0.27-0.26,0.273l-0.014,0c-2.639,0.069-5.276,0.125-7.915,0.159
			c-0.236,0.003-0.43-0.186-0.433-0.421v-0.001v-0.01l-0.091-9.283l0.021-9.283l0.153-9.283c0.069-3.094,0.168-6.188,0.299-9.283
			C285.812,29.24,285.835,29.219,285.861,29.218z M285.913,29.319c0.129,3.077,0.229,6.154,0.297,9.231l0.153,9.283l0.021,9.283
			l-0.091,9.283l-0.433-0.433c2.639,0.034,5.276,0.09,7.915,0.159l-0.273,0.274c0.077-3.094,0.115-6.188,0.121-9.283l-0.049-4.642
			l-0.12-4.641c-0.092-3.094-0.127-6.188-0.121-9.283c0.045-3.094,0.028-6.188,0.125-9.283l0.317,0.317
			C291.155,29.529,288.534,29.449,285.913,29.319z"/>
	</g>
	<g>
		<rect x="298.578" y="29.268" style="fill:#E1F4FD;" width="7.916" height="37.131"/>
		<path style="fill:#000810;" d="M298.578,29.218c2.639-0.131,5.277-0.212,7.916-0.268c0.17-0.003,0.312,0.131,0.316,0.301
			l0.001,0.017c0.097,3.094,0.08,6.188,0.125,9.283c0.006,3.094-0.029,6.188-0.121,9.283l-0.12,4.641l-0.049,4.642
			c0.006,3.094,0.044,6.188,0.121,9.283c0.004,0.147-0.112,0.27-0.26,0.273l-0.014,0c-2.639,0.069-5.277,0.125-7.916,0.159
			c-0.236,0.003-0.43-0.186-0.433-0.421v-0.001v-0.01l-0.091-9.283l0.021-9.283l0.153-9.283c0.069-3.094,0.168-6.188,0.299-9.283
			C298.529,29.24,298.552,29.219,298.578,29.218z M298.63,29.319c0.129,3.077,0.229,6.154,0.297,9.231l0.153,9.283l0.021,9.283
			l-0.091,9.283l-0.433-0.433c2.639,0.034,5.277,0.09,7.916,0.159l-0.273,0.274c0.077-3.094,0.115-6.188,0.121-9.283l-0.049-4.642
			l-0.12-4.641c-0.092-3.094-0.127-6.188-0.121-9.283c0.045-3.094,0.028-6.188,0.125-9.283l0.317,0.317
			C303.873,29.529,301.251,29.449,298.63,29.319z"/>
	</g>
</g>
<rect x="258.775" y="19.431" style="fill:#FFFB9C;stroke:#0A0B0C;stroke-width:0.4859;" width="49.664" height="8.08"/>
<path style="fill:#0A0B0C;" d="M192.213,21.869h-53.417v0.779h53.417l0,0V21.869z M195.27,24.471L195.27,24.471l-0.005-0.136
	l-0.012-0.136l-0.021-0.133l-0.028-0.132l-0.036-0.128l-0.043-0.126l-0.05-0.124l-0.059-0.12l-0.063-0.116l-0.069-0.114
	l-0.076-0.109l-0.082-0.105l-0.088-0.102l-0.092-0.097l-0.098-0.094l-0.102-0.087l-0.106-0.085l-0.111-0.079l-0.116-0.076
	l-0.119-0.071l-0.124-0.066l-0.127-0.061l-0.13-0.055l-0.134-0.051l-0.138-0.044l-0.139-0.039l-0.144-0.035l-0.145-0.027
	l-0.146-0.021l-0.15-0.018l-0.151-0.008l-0.152-0.004v0.779l0.122,0.001l0.118,0.008l0.116,0.012l0.116,0.018l0.112,0.022
	l0.109,0.025l0.108,0.03l0.104,0.036l0.103,0.038l0.1,0.043l0.097,0.046l0.093,0.05l0.089,0.053l0.087,0.055l0.082,0.061l0.08,0.062
	l0.074,0.066l0.07,0.066l0.067,0.07l0.061,0.071l0.058,0.075l0.052,0.076l0.049,0.077l0.044,0.08l0.038,0.08l0.034,0.082
	l0.028,0.083l0.023,0.086l0.02,0.085l0.013,0.088l0.009,0.087l0.002,0.091l0,0H195.27L195.27,24.471z M195.27,64.295V24.471h-0.778
	v39.824l0,0H195.27z M192.213,66.897L192.213,66.897l0.152-0.004l0.151-0.009l0.15-0.017l0.146-0.021l0.145-0.028l0.144-0.035
	l0.139-0.039l0.138-0.044l0.134-0.051l0.13-0.055l0.127-0.061l0.124-0.065l0.119-0.071l0.115-0.075l0.112-0.08l0.106-0.085
	l0.102-0.089l0.098-0.092l0.092-0.097l0.088-0.102l0.082-0.105l0.076-0.109l0.069-0.114l0.063-0.116l0.059-0.12l0.05-0.124
	l0.043-0.126l0.036-0.128l0.028-0.132l0.021-0.133l0.012-0.136l0.005-0.136h-0.778l-0.002,0.091l-0.009,0.087l-0.013,0.088
	l-0.02,0.085l-0.023,0.086l-0.028,0.083l-0.034,0.082l-0.038,0.081l-0.044,0.08l-0.049,0.077l-0.052,0.076l-0.058,0.074
	l-0.061,0.072l-0.067,0.07l-0.07,0.068l-0.074,0.064l-0.08,0.062l-0.081,0.059l-0.088,0.057l-0.089,0.053l-0.093,0.05l-0.097,0.046
	l-0.1,0.043l-0.103,0.039l-0.104,0.035l-0.108,0.03l-0.109,0.026l-0.112,0.021l-0.116,0.018l-0.116,0.011l-0.118,0.009l-0.122,0.001
	l0,0V66.897L192.213,66.897z M138.796,66.897h53.417v-0.779h-53.417l0,0V66.897z M135.739,64.295L135.739,64.295l0.005,0.136
	l0.012,0.136l0.021,0.133l0.028,0.132l0.036,0.128l0.044,0.126l0.049,0.124l0.059,0.12l0.063,0.116l0.069,0.114l0.076,0.109
	l0.082,0.105l0.088,0.102l0.092,0.097l0.098,0.092l0.103,0.089l0.106,0.085l0.111,0.08l0.115,0.075l0.119,0.071l0.124,0.065
	l0.127,0.061l0.13,0.055l0.134,0.051l0.138,0.044l0.139,0.039l0.144,0.035l0.146,0.028l0.146,0.021l0.15,0.017l0.151,0.009
	l0.152,0.004v-0.779l-0.122-0.001l-0.118-0.009l-0.116-0.011l-0.115-0.018l-0.112-0.021l-0.11-0.026l-0.108-0.03l-0.104-0.035
	l-0.103-0.039l-0.1-0.043l-0.097-0.046l-0.093-0.05l-0.089-0.053l-0.088-0.057l-0.081-0.059l-0.079-0.062l-0.075-0.064l-0.07-0.068
	l-0.067-0.07l-0.061-0.072l-0.058-0.074l-0.052-0.076l-0.049-0.077l-0.044-0.08l-0.038-0.081l-0.034-0.082l-0.028-0.083
	l-0.023-0.086l-0.02-0.085l-0.012-0.088l-0.009-0.087l-0.003-0.091l0,0H135.739L135.739,64.295z M135.739,24.471v39.824h0.778
	V24.471l0,0H135.739z M138.796,21.869L138.796,21.869l-0.152,0.004l-0.151,0.008l-0.15,0.018l-0.146,0.021l-0.146,0.027
	l-0.144,0.035l-0.139,0.039l-0.138,0.044l-0.134,0.051l-0.13,0.055l-0.127,0.061l-0.124,0.066l-0.119,0.071l-0.116,0.076
	l-0.11,0.079l-0.106,0.085l-0.103,0.087l-0.098,0.094l-0.092,0.097l-0.088,0.102l-0.082,0.105l-0.076,0.109l-0.069,0.114
	l-0.063,0.116l-0.059,0.12l-0.049,0.124l-0.044,0.126l-0.036,0.128l-0.028,0.132l-0.021,0.133l-0.012,0.136l-0.005,0.136h0.778
	l0.003-0.091l0.009-0.087l0.012-0.088l0.02-0.085l0.023-0.086l0.028-0.083l0.034-0.082l0.038-0.08l0.044-0.08l0.049-0.077
	l0.052-0.076l0.058-0.075l0.061-0.071l0.067-0.07l0.07-0.066l0.075-0.066l0.079-0.062l0.083-0.061l0.086-0.055l0.089-0.053
	l0.093-0.05l0.097-0.046l0.1-0.043l0.103-0.038l0.104-0.036l0.108-0.03l0.11-0.025l0.112-0.022l0.115-0.018l0.116-0.012l0.118-0.008
	l0.122-0.001l0,0V21.869L138.796,21.869z"/>
<path style="fill:#0A0B0C;" d="M130.936,21.869H77.519v0.779h53.417l0,0V21.869z M133.992,24.471L133.992,24.471l-0.005-0.136
	l-0.012-0.136l-0.021-0.133l-0.028-0.132l-0.036-0.128l-0.043-0.126l-0.05-0.124l-0.059-0.12l-0.063-0.116l-0.069-0.114
	l-0.076-0.109l-0.082-0.105l-0.088-0.102l-0.092-0.097l-0.098-0.094l-0.102-0.087l-0.107-0.085l-0.11-0.079l-0.116-0.076
	l-0.119-0.071l-0.124-0.066l-0.127-0.061l-0.13-0.055l-0.134-0.051l-0.138-0.044l-0.139-0.039l-0.143-0.035l-0.146-0.027
	l-0.146-0.021l-0.15-0.018l-0.151-0.008l-0.152-0.004v0.779l0.122,0.001l0.118,0.008l0.116,0.012l0.116,0.018l0.112,0.022
	l0.109,0.025l0.108,0.03l0.104,0.036l0.103,0.038l0.1,0.043l0.097,0.046l0.093,0.05l0.09,0.053l0.086,0.055l0.082,0.061l0.08,0.062
	l0.074,0.066l0.07,0.066l0.067,0.07l0.061,0.071l0.058,0.075l0.052,0.076l0.049,0.077l0.044,0.08l0.038,0.08l0.034,0.082
	l0.028,0.083l0.023,0.086l0.02,0.085l0.013,0.088l0.009,0.087l0.002,0.091l0,0H133.992L133.992,24.471z M133.992,64.295V24.471
	h-0.778v39.824l0,0H133.992z M130.936,66.897L130.936,66.897l0.152-0.004l0.151-0.009l0.15-0.017l0.146-0.021l0.146-0.028
	l0.143-0.035l0.139-0.039l0.138-0.044l0.134-0.051l0.13-0.055l0.127-0.061l0.124-0.065l0.119-0.071l0.115-0.075l0.111-0.08
	l0.107-0.085l0.102-0.089l0.098-0.092l0.092-0.097l0.088-0.102l0.082-0.105l0.076-0.109l0.069-0.114l0.063-0.116l0.059-0.12
	l0.05-0.124l0.043-0.126l0.036-0.128l0.028-0.132l0.021-0.133l0.012-0.136l0.005-0.136h-0.778l-0.002,0.091l-0.009,0.087
	l-0.013,0.088l-0.02,0.085l-0.023,0.086l-0.028,0.083l-0.034,0.082l-0.038,0.081l-0.044,0.08l-0.049,0.077l-0.052,0.076
	l-0.058,0.074l-0.061,0.072l-0.067,0.07l-0.07,0.068l-0.074,0.064l-0.08,0.062l-0.081,0.059l-0.087,0.057l-0.09,0.053l-0.093,0.05
	l-0.097,0.046l-0.1,0.043l-0.103,0.039l-0.104,0.035l-0.108,0.03l-0.109,0.026l-0.112,0.021l-0.116,0.018l-0.116,0.011l-0.118,0.009
	l-0.122,0.001l0,0V66.897L130.936,66.897z M77.519,66.897h53.417v-0.779H77.519l0,0V66.897z M74.462,64.295L74.462,64.295
	l0.005,0.136l0.012,0.136l0.021,0.133l0.028,0.132l0.036,0.128l0.044,0.126l0.05,0.124l0.059,0.12l0.062,0.116l0.069,0.114
	l0.077,0.109l0.081,0.105l0.089,0.102l0.091,0.097l0.098,0.092l0.103,0.089l0.106,0.085l0.112,0.08l0.114,0.075l0.12,0.071
	l0.123,0.065l0.127,0.061l0.131,0.055l0.133,0.051l0.138,0.044l0.139,0.039l0.144,0.035l0.146,0.028l0.146,0.021l0.15,0.017
	l0.151,0.009l0.152,0.004v-0.779l-0.121-0.001l-0.119-0.009l-0.116-0.011l-0.115-0.018l-0.112-0.021l-0.109-0.026l-0.108-0.03
	l-0.104-0.035l-0.103-0.039l-0.101-0.043l-0.097-0.046l-0.093-0.05l-0.089-0.053l-0.088-0.057l-0.081-0.059l-0.079-0.062
	l-0.075-0.064l-0.07-0.068l-0.066-0.07l-0.062-0.072l-0.058-0.074L75.5,65.135l-0.049-0.077l-0.044-0.08l-0.038-0.081l-0.033-0.082
	l-0.029-0.083l-0.023-0.086l-0.02-0.085l-0.012-0.088l-0.009-0.087l-0.003-0.091l0,0H74.462L74.462,64.295z M74.462,24.471v39.824
	h0.778V24.471l0,0H74.462z M77.519,21.869L77.519,21.869l-0.152,0.004l-0.151,0.008l-0.15,0.018l-0.146,0.021l-0.146,0.027
	l-0.144,0.035l-0.139,0.039l-0.138,0.044l-0.133,0.051l-0.131,0.055l-0.127,0.061l-0.123,0.066l-0.12,0.071l-0.116,0.076
	l-0.11,0.079l-0.106,0.085l-0.103,0.087l-0.098,0.094l-0.091,0.097l-0.089,0.102l-0.081,0.105l-0.077,0.109l-0.069,0.114
	l-0.062,0.116l-0.059,0.12l-0.05,0.124l-0.044,0.126l-0.036,0.128L74.5,24.065l-0.021,0.133l-0.012,0.136l-0.005,0.136h0.778
	l0.003-0.091l0.009-0.087l0.012-0.088l0.02-0.085l0.023-0.086l0.029-0.083l0.033-0.082l0.038-0.08l0.044-0.08l0.049-0.077
	l0.052-0.076l0.058-0.075l0.062-0.071l0.066-0.07l0.07-0.066l0.075-0.066l0.079-0.062l0.083-0.061l0.086-0.055l0.089-0.053
	l0.093-0.05l0.097-0.046l0.101-0.043l0.103-0.038l0.104-0.036l0.108-0.03l0.109-0.025l0.112-0.022l0.115-0.018l0.116-0.012
	l0.119-0.008l0.121-0.001l0,0V21.869L77.519,21.869z"/>
<path style="fill:#0A0B0C;" d="M253.821,21.869h-53.418v0.779h53.418l0,0V21.869z M256.878,24.471L256.878,24.471l-0.005-0.136
	l-0.013-0.136l-0.021-0.133l-0.027-0.132l-0.036-0.128l-0.044-0.126l-0.05-0.124l-0.059-0.12l-0.062-0.116l-0.069-0.114
	l-0.077-0.109l-0.081-0.105l-0.089-0.102l-0.091-0.097l-0.098-0.094l-0.103-0.087l-0.106-0.085l-0.11-0.079l-0.116-0.076
	l-0.12-0.071l-0.123-0.066l-0.127-0.061l-0.131-0.055l-0.133-0.051l-0.138-0.044l-0.139-0.039l-0.144-0.035l-0.146-0.027
	l-0.146-0.021l-0.15-0.018l-0.151-0.008l-0.152-0.004v0.779l0.121,0.001l0.119,0.008l0.116,0.012l0.115,0.018l0.112,0.022
	l0.109,0.025l0.108,0.03l0.104,0.036l0.103,0.038l0.101,0.043l0.097,0.046l0.093,0.05l0.089,0.053l0.086,0.055l0.083,0.061
	l0.079,0.062l0.075,0.066l0.07,0.066l0.066,0.07l0.062,0.071l0.058,0.075l0.052,0.076l0.049,0.077l0.044,0.08l0.037,0.08
	l0.034,0.082l0.029,0.083l0.023,0.086l0.019,0.085l0.013,0.088l0.009,0.087l0.002,0.091l0,0H256.878L256.878,24.471z
	 M256.878,64.295V24.471h-0.779v39.824l0,0H256.878z M253.821,66.897L253.821,66.897l0.152-0.004l0.151-0.009l0.15-0.017
	l0.146-0.021l0.146-0.028l0.144-0.035l0.139-0.039l0.138-0.044l0.133-0.051l0.131-0.055l0.127-0.061l0.123-0.065l0.12-0.071
	l0.114-0.075l0.112-0.08l0.106-0.085l0.103-0.089l0.098-0.092l0.091-0.097l0.089-0.102l0.081-0.105l0.077-0.109l0.069-0.114
	l0.062-0.116l0.059-0.12l0.05-0.124l0.044-0.126l0.036-0.128l0.027-0.132l0.021-0.133l0.013-0.136l0.005-0.136h-0.779l-0.002,0.091
	l-0.009,0.087l-0.013,0.088l-0.019,0.085l-0.023,0.086l-0.029,0.083l-0.034,0.082l-0.037,0.081l-0.044,0.08l-0.049,0.077
	l-0.052,0.076l-0.058,0.074l-0.062,0.072l-0.066,0.07l-0.07,0.068l-0.075,0.064l-0.079,0.062l-0.081,0.059l-0.088,0.057
	l-0.089,0.053l-0.093,0.05l-0.097,0.046l-0.101,0.043l-0.103,0.039l-0.104,0.035l-0.108,0.03l-0.109,0.026l-0.112,0.021
	l-0.115,0.018l-0.116,0.011l-0.119,0.009l-0.121,0.001l0,0V66.897L253.821,66.897z M200.403,66.897h53.418v-0.779h-53.418l0,0
	V66.897z M197.348,64.295L197.348,64.295l0.005,0.136l0.012,0.136l0.021,0.133l0.028,0.132l0.036,0.128l0.043,0.126l0.05,0.124
	l0.059,0.12l0.063,0.116l0.069,0.114l0.076,0.109l0.082,0.105l0.088,0.102l0.092,0.097l0.098,0.092l0.102,0.089l0.106,0.085
	l0.112,0.08l0.114,0.075l0.12,0.071l0.124,0.065l0.127,0.061l0.13,0.055l0.134,0.051l0.137,0.044l0.14,0.039l0.143,0.035
	l0.146,0.028l0.146,0.021l0.15,0.017l0.151,0.009l0.151,0.004v-0.779l-0.121-0.001l-0.118-0.009l-0.116-0.011l-0.116-0.018
	l-0.112-0.021l-0.109-0.026l-0.108-0.03l-0.104-0.035l-0.103-0.039l-0.1-0.043l-0.097-0.046l-0.093-0.05l-0.09-0.053l-0.087-0.057
	l-0.081-0.059l-0.08-0.062l-0.074-0.064l-0.07-0.068l-0.067-0.07l-0.061-0.072l-0.058-0.074l-0.052-0.076l-0.049-0.077l-0.044-0.08
	l-0.038-0.081l-0.034-0.082l-0.028-0.083l-0.023-0.086l-0.02-0.085l-0.013-0.088l-0.009-0.087l-0.002-0.091l0,0H197.348
	L197.348,64.295z M197.348,24.471v39.824h0.778V24.471l0,0H197.348z M200.403,21.869L200.403,21.869l-0.151,0.004l-0.151,0.008
	l-0.15,0.018l-0.146,0.021l-0.146,0.027l-0.143,0.035l-0.14,0.039l-0.137,0.044l-0.134,0.051l-0.13,0.055l-0.127,0.061l-0.124,0.066
	l-0.12,0.071l-0.115,0.076l-0.111,0.079l-0.106,0.085l-0.102,0.087l-0.098,0.094l-0.092,0.097l-0.088,0.102l-0.082,0.105
	l-0.076,0.109l-0.069,0.114l-0.063,0.116l-0.059,0.12l-0.05,0.124l-0.043,0.126l-0.036,0.128l-0.028,0.132l-0.021,0.133
	l-0.012,0.136l-0.005,0.136h0.778l0.002-0.091l0.009-0.087l0.013-0.088l0.02-0.085l0.023-0.086l0.028-0.083l0.034-0.082l0.038-0.08
	l0.044-0.08l0.049-0.077l0.052-0.076l0.058-0.075l0.061-0.071l0.067-0.07l0.07-0.066l0.074-0.066l0.08-0.062l0.082-0.061
	l0.086-0.055l0.09-0.053l0.093-0.05l0.097-0.046l0.1-0.043l0.103-0.038l0.104-0.036l0.108-0.03l0.109-0.025l0.112-0.022l0.116-0.018
	l0.116-0.012l0.118-0.008l0.121-0.001l0,0V21.869L200.403,21.869z"/>
<path style="fill:#0A0B0C;" d="M367.163,21.869h-53.417v0.779h53.417l0,0V21.869z M370.22,24.471L370.22,24.471l-0.005-0.136
	l-0.012-0.136l-0.021-0.133l-0.028-0.132l-0.036-0.128l-0.043-0.126l-0.05-0.124l-0.059-0.12l-0.063-0.116l-0.069-0.114
	l-0.076-0.109l-0.082-0.105l-0.088-0.102l-0.092-0.097l-0.098-0.094l-0.102-0.087l-0.106-0.085l-0.111-0.079l-0.116-0.076
	l-0.119-0.071l-0.124-0.066l-0.127-0.061l-0.13-0.055l-0.134-0.051l-0.138-0.044l-0.139-0.039l-0.143-0.035l-0.146-0.027
	l-0.146-0.021l-0.15-0.018l-0.151-0.008l-0.152-0.004v0.779l0.122,0.001l0.118,0.008l0.116,0.012l0.116,0.018l0.112,0.022
	l0.109,0.025l0.108,0.03l0.104,0.036l0.103,0.038l0.1,0.043l0.097,0.046l0.093,0.05l0.09,0.053l0.086,0.055l0.082,0.061l0.08,0.062
	l0.074,0.066l0.07,0.066l0.067,0.07l0.061,0.071l0.058,0.075l0.052,0.076l0.049,0.077l0.044,0.08l0.038,0.08l0.034,0.082
	l0.028,0.083l0.023,0.086l0.02,0.085l0.013,0.088l0.009,0.087l0.002,0.091l0,0H370.22L370.22,24.471z M370.22,64.295V24.471h-0.778
	v39.824l0,0H370.22z M367.163,66.897L367.163,66.897l0.152-0.004l0.151-0.009l0.15-0.017l0.146-0.021l0.146-0.028l0.143-0.035
	l0.139-0.039l0.138-0.044l0.134-0.051l0.13-0.055l0.127-0.061l0.124-0.065l0.119-0.071l0.115-0.075l0.112-0.08l0.106-0.085
	l0.102-0.089l0.098-0.092l0.092-0.097l0.088-0.102l0.082-0.105l0.076-0.109l0.069-0.114l0.063-0.116l0.059-0.12l0.05-0.124
	l0.043-0.126l0.036-0.128l0.028-0.132l0.021-0.133l0.012-0.136l0.005-0.136h-0.778l-0.002,0.091l-0.009,0.087l-0.013,0.088
	l-0.02,0.085l-0.023,0.086l-0.028,0.083l-0.034,0.082l-0.038,0.081l-0.044,0.08l-0.049,0.077l-0.052,0.076l-0.058,0.074
	l-0.061,0.072l-0.067,0.07l-0.07,0.068L368.8,65.56l-0.08,0.062l-0.081,0.059l-0.087,0.057l-0.09,0.053l-0.093,0.05l-0.097,0.046
	l-0.1,0.043l-0.103,0.039l-0.104,0.035l-0.108,0.03l-0.109,0.026l-0.112,0.021l-0.116,0.018l-0.116,0.011l-0.118,0.009l-0.122,0.001
	l0,0V66.897L367.163,66.897z M313.746,66.897h53.417v-0.779h-53.417l0,0V66.897z M310.689,64.295L310.689,64.295l0.005,0.136
	l0.013,0.136l0.021,0.133l0.028,0.132l0.036,0.128l0.044,0.126l0.05,0.124l0.059,0.12l0.062,0.116l0.069,0.114l0.077,0.109
	l0.081,0.105l0.089,0.102l0.091,0.097l0.098,0.092l0.103,0.089l0.106,0.085l0.112,0.08l0.114,0.075l0.12,0.071l0.123,0.065
	l0.127,0.061l0.131,0.055l0.133,0.051l0.138,0.044l0.139,0.039l0.144,0.035l0.146,0.028l0.146,0.021l0.15,0.017l0.151,0.009
	l0.152,0.004v-0.779l-0.121-0.001l-0.119-0.009l-0.116-0.011l-0.115-0.018l-0.112-0.021l-0.109-0.026l-0.108-0.03l-0.104-0.035
	l-0.103-0.039l-0.101-0.043l-0.097-0.046l-0.093-0.05l-0.089-0.053l-0.088-0.057l-0.081-0.059l-0.079-0.062l-0.075-0.064
	l-0.07-0.068l-0.066-0.07l-0.062-0.072l-0.058-0.074l-0.052-0.076l-0.049-0.077l-0.044-0.08l-0.037-0.081l-0.034-0.082l-0.029-0.083
	l-0.023-0.086l-0.02-0.085l-0.012-0.088l-0.009-0.087l-0.002-0.091l0,0H310.689L310.689,64.295z M310.689,24.471v39.824h0.779
	V24.471l0,0H310.689z M313.746,21.869L313.746,21.869l-0.152,0.004l-0.151,0.008l-0.15,0.018l-0.146,0.021l-0.146,0.027
	l-0.144,0.035l-0.139,0.039l-0.138,0.044l-0.133,0.051l-0.131,0.055l-0.127,0.061l-0.123,0.066l-0.12,0.071l-0.116,0.076
	l-0.11,0.079l-0.106,0.085l-0.103,0.087l-0.098,0.094l-0.091,0.097l-0.089,0.102l-0.081,0.105l-0.077,0.109l-0.069,0.114
	l-0.062,0.116l-0.059,0.12l-0.05,0.124l-0.044,0.126l-0.036,0.128l-0.028,0.132l-0.021,0.133l-0.013,0.136l-0.005,0.136h0.779
	l0.002-0.091l0.009-0.087l0.012-0.088l0.02-0.085l0.023-0.086l0.029-0.083l0.034-0.082l0.037-0.08l0.044-0.08l0.049-0.077
	l0.052-0.076l0.058-0.075l0.062-0.071l0.066-0.07l0.07-0.066l0.075-0.066l0.079-0.062l0.083-0.061l0.086-0.055l0.089-0.053
	l0.093-0.05l0.097-0.046l0.101-0.043l0.103-0.038l0.104-0.036l0.108-0.03l0.109-0.025l0.112-0.022l0.115-0.018l0.116-0.012
	l0.119-0.008l0.121-0.001l0,0V21.869L313.746,21.869z"/>
<rect x="6.258" y="91.11" style="fill:#DD137B;" width="16.909" height="3.205"/>
<rect x="73.258" y="91.11" style="fill:#DD137B;" width="185.158" height="3.205"/>
<polygon style="fill:#DD137B;" points="308.258,91.11 434.333,91.11 434.5,94.315 308.258,94.315 "/>
<g>
	<path style="fill:#0A0B0C;" d="M408.699,19.37l8.038,49.355l0.003,0.038l-0.209,42.125l-0.248-42.125l0.003,0.038l-8.573-49.265
		c-0.047-0.272,0.135-0.531,0.407-0.578c0.271-0.047,0.53,0.135,0.578,0.407C408.698,19.364,408.699,19.369,408.699,19.37z"/>
</g>
<g>
	<g>
		<path style="fill:#E1F4FD;" d="M138.796,22.258h53.417c1.468,0,2.668,0.996,2.668,2.213v39.824c0,1.217-1.2,2.213-2.668,2.213
			h-53.417c-1.468,0-2.667-0.996-2.667-2.213V24.471C136.129,23.253,137.328,22.258,138.796,22.258z"/>
		<path style="fill:#000810;" d="M138.796,22.208l12.615-0.081l12.615-0.183c8.41-0.132,16.819-0.149,25.229-0.1l3.169,0.038
			c1.168,0.072,2.382,0.774,2.728,2.015c0.138,0.657,0.041,1.122,0.061,1.662l-0.018,1.577l-0.036,3.154
			c-0.055,4.205-0.097,8.41-0.105,12.615c-0.032,4.205-0.014,8.41,0.003,12.615l0.04,6.307l0.015,1.577
			c-0.022,0.523,0.092,1.036-0.128,1.649c-0.444,1.128-1.644,1.729-2.769,1.73c-16.82,0.153-33.64,0.292-50.459,0.242l-3.175-0.014
			c-1.211-0.065-2.487-0.774-2.873-2.099c-0.092-0.324-0.084-0.683-0.083-0.915l0.001-0.789l0.002-1.577l0.025-3.154l0.147-12.615
			l0.19-12.615l0.052-6.307l0.009-1.577c0.026-0.521-0.066-1.056,0.14-1.586C136.611,22.746,137.742,22.192,138.796,22.208z
			 M138.796,22.308c-1.024-0.005-2.1,0.553-2.477,1.519c-0.184,0.467-0.095,1.016-0.112,1.537l0.009,1.577l0.052,6.307l0.19,12.615
			l0.147,12.615l0.025,3.154l0.002,1.577c0.016,0.499-0.036,1.131,0.051,1.438c0.196,0.758,1.083,1.309,1.939,1.343l3.132,0.003
			c16.819-0.05,33.639,0.088,50.458,0.242c0.953,0.022,1.96-0.489,2.313-1.358c0.171-0.383,0.103-0.956,0.124-1.474l0.015-1.577
			l0.04-6.307c0.017-4.205,0.035-8.41,0.003-12.615c-0.009-4.205-0.05-8.41-0.105-12.615l-0.036-3.154l-0.018-1.577
			c-0.023-0.506,0.031-1.108-0.072-1.479c-0.236-0.842-1.185-1.4-2.085-1.428l-3.137,0.021c-8.41,0.049-16.82,0.032-25.229-0.1
			l-12.615-0.183L138.796,22.308z"/>
	</g>
	<g>
		<path style="fill:#E1F4FD;" d="M77.519,22.258h53.417c1.468,0,2.668,0.996,2.668,2.213v39.824c0,1.217-1.2,2.213-2.668,2.213
			H77.519c-1.468,0-2.667-0.996-2.667-2.213V24.471C74.852,23.253,76.051,22.258,77.519,22.258z"/>
		<path style="fill:#000810;" d="M77.519,22.208l12.615-0.081l12.615-0.183c8.41-0.132,16.819-0.149,25.229-0.1l3.169,0.038
			c1.168,0.072,2.382,0.774,2.728,2.015c0.138,0.657,0.041,1.122,0.061,1.662l-0.018,1.577l-0.036,3.154
			c-0.055,4.205-0.097,8.41-0.105,12.615c-0.033,4.205-0.014,8.41,0.002,12.615l0.04,6.307l0.015,1.577
			c-0.022,0.523,0.092,1.036-0.128,1.649c-0.444,1.128-1.644,1.729-2.769,1.73c-16.82,0.153-33.64,0.292-50.459,0.242l-3.175-0.014
			c-1.211-0.065-2.487-0.774-2.873-2.099c-0.092-0.324-0.084-0.683-0.083-0.915l0.001-0.789l0.002-1.577l0.025-3.154l0.147-12.615
			l0.19-12.615l0.052-6.307l0.009-1.577c0.026-0.521-0.066-1.056,0.14-1.586C75.333,22.746,76.464,22.192,77.519,22.208z
			 M77.519,22.308c-1.024-0.005-2.1,0.553-2.477,1.519c-0.184,0.467-0.095,1.016-0.112,1.537l0.009,1.577l0.052,6.307l0.19,12.615
			l0.147,12.615l0.025,3.154l0.002,1.577c0.016,0.499-0.036,1.131,0.051,1.438c0.196,0.758,1.083,1.309,1.939,1.343l3.132,0.003
			c16.819-0.05,33.639,0.088,50.458,0.242c0.953,0.022,1.96-0.489,2.313-1.358c0.171-0.383,0.103-0.956,0.124-1.474l0.015-1.577
			l0.04-6.307c0.017-4.205,0.035-8.41,0.002-12.615c-0.008-4.205-0.05-8.41-0.105-12.615l-0.036-3.154l-0.018-1.577
			c-0.023-0.506,0.031-1.108-0.072-1.479c-0.237-0.842-1.185-1.4-2.085-1.428l-3.137,0.021c-8.41,0.049-16.82,0.032-25.229-0.1
			l-12.615-0.183L77.519,22.308z"/>
	</g>
	<g>
		<path style="fill:#E1F4FD;" d="M200.403,22.258h53.418c1.468,0,2.667,0.996,2.667,2.213v39.824c0,1.217-1.199,2.213-2.667,2.213
			h-53.418c-1.467,0-2.667-0.996-2.667-2.213V24.471C197.736,23.253,198.937,22.258,200.403,22.258z"/>
		<path style="fill:#000810;" d="M200.403,22.208l12.615-0.081l12.615-0.183c8.41-0.132,16.819-0.149,25.229-0.1l3.17,0.038
			c1.167,0.072,2.382,0.773,2.727,2.014c0.138,0.657,0.041,1.123,0.062,1.663l-0.018,1.577l-0.036,3.154
			c-0.056,4.205-0.097,8.41-0.105,12.615c-0.032,4.205-0.014,8.41,0.003,12.614l0.039,6.308l0.015,1.577
			c-0.022,0.523,0.092,1.036-0.127,1.649c-0.444,1.128-1.645,1.729-2.77,1.73c-16.819,0.153-33.639,0.292-50.458,0.242l-3.175-0.014
			c-1.211-0.065-2.487-0.774-2.873-2.099c-0.092-0.324-0.085-0.683-0.083-0.915l0.001-0.789l0.002-1.577l0.025-3.154l0.147-12.615
			l0.19-12.614l0.052-6.308l0.009-1.577c0.026-0.521-0.067-1.057,0.14-1.586C198.219,22.747,199.349,22.192,200.403,22.208z
			 M200.403,22.308c-1.024-0.005-2.1,0.553-2.477,1.519c-0.184,0.467-0.095,1.017-0.112,1.537l0.009,1.577l0.052,6.308l0.19,12.614
			l0.147,12.615l0.025,3.154l0.002,1.577c0.016,0.5-0.036,1.131,0.051,1.438c0.197,0.758,1.083,1.309,1.94,1.343l3.132,0.003
			c16.82-0.05,33.639,0.088,50.458,0.242c0.953,0.022,1.96-0.489,2.313-1.358c0.17-0.383,0.102-0.956,0.124-1.474l0.015-1.577
			l0.039-6.308c0.017-4.205,0.035-8.41,0.003-12.614c-0.009-4.205-0.05-8.41-0.105-12.615l-0.036-3.154l-0.018-1.577
			c-0.023-0.506,0.03-1.109-0.072-1.479c-0.236-0.842-1.185-1.4-2.085-1.428l-3.137,0.021c-8.41,0.049-16.819,0.032-25.229-0.1
			l-12.615-0.183L200.403,22.308z"/>
	</g>
	<g>
		<path style="fill:#E1F4FD;" d="M313.744,22.258h53.418c1.467,0,2.667,0.996,2.667,2.213v39.824c0,1.217-1.2,2.213-2.667,2.213
			h-53.418c-1.467,0-2.667-0.996-2.667-2.213V24.471C311.077,23.253,312.277,22.258,313.744,22.258z"/>
		<path style="fill:#000810;" d="M313.744,22.208l12.614-0.081l12.615-0.183c8.409-0.132,16.819-0.149,25.229-0.1l3.17,0.038
			c1.167,0.072,2.381,0.774,2.727,2.014c0.138,0.657,0.041,1.123,0.062,1.663l-0.018,1.577l-0.036,3.154
			c-0.056,4.205-0.097,8.41-0.105,12.615c-0.032,4.205-0.014,8.41,0.003,12.615l0.039,6.307l0.015,1.577
			c-0.022,0.523,0.092,1.036-0.127,1.649c-0.444,1.127-1.645,1.729-2.77,1.73c-16.819,0.153-33.639,0.292-50.459,0.242l-3.175-0.014
			c-1.211-0.065-2.487-0.774-2.873-2.099c-0.092-0.324-0.085-0.683-0.083-0.915l0.002-0.789l0.002-1.577l0.024-3.154l0.147-12.615
			l0.19-12.615l0.052-6.307l0.01-1.577c0.026-0.521-0.067-1.057,0.14-1.586C311.56,22.747,312.689,22.192,313.744,22.208z
			 M313.744,22.308c-1.023-0.005-2.1,0.553-2.478,1.519c-0.184,0.467-0.095,1.017-0.112,1.537l0.01,1.577l0.052,6.307l0.19,12.615
			l0.147,12.615l0.024,3.154l0.002,1.577c0.017,0.499-0.035,1.131,0.052,1.438c0.196,0.758,1.083,1.309,1.939,1.343l3.132,0.003
			c16.82-0.05,33.64,0.088,50.459,0.242c0.953,0.022,1.959-0.489,2.312-1.358c0.171-0.383,0.103-0.956,0.125-1.474l0.015-1.577
			l0.039-6.307c0.017-4.205,0.035-8.41,0.003-12.615c-0.009-4.205-0.05-8.41-0.105-12.615l-0.036-3.154l-0.018-1.577
			c-0.023-0.506,0.03-1.109-0.072-1.479c-0.236-0.842-1.185-1.4-2.085-1.428l-3.137,0.021c-8.41,0.049-16.82,0.032-25.229-0.1
			l-12.615-0.183L313.744,22.308z"/>
	</g>
	<g>
		<path style="fill:#E1F4FD;" d="M376.043,64.276l-0.157-34.393c-0.005-1.597,0.575-2.476,2.142-2.147h27.193
			c1.302-0.08,2.129,0.484,2.141,2.156l6.164,34.392c0.841,1.867-0.097,2.44-2.112,2.231l-32.828,0.017
			C377.536,66.105,375.649,67.036,376.043,64.276z"/>
		<path style="fill:#000810;" d="M375.993,64.274l-0.106-9.515l-0.207-9.517c-0.074-3.172-0.148-6.345-0.176-9.518l-0.06-4.759
			c0.015-0.777-0.1-1.597,0.209-2.515c0.153-0.446,0.531-0.923,1.049-1.099c0.503-0.17,0.987-0.127,1.414-0.039l-0.089-0.009
			c5.122-0.001,10.244,0.142,15.365,0.212l7.684,0.064l3.841-0.009c0.593-0.018,1.384-0.064,1.943,0.431
			c0.561,0.494,0.67,1.244,0.686,1.889l-0.003-0.031l3.312,17.155l3.192,17.176l-0.038-0.124c0.153,0.354,0.297,0.726,0.342,1.179
			c0.067,0.427-0.097,1.087-0.565,1.411c-0.439,0.313-0.881,0.373-1.276,0.408c-0.399,0.029-0.778,0.006-1.149-0.032l0.054,0.002
			l-8.207-0.015l-8.207-0.105c-5.472-0.107-10.942-0.292-16.414-0.305c-0.011,0-0.021-0.002-0.03-0.006
			c-0.306-0.122-0.657-0.132-1.004-0.153c-0.346-0.024-0.716-0.036-1.046-0.216c-0.343-0.176-0.506-0.561-0.548-0.909
			C375.915,64.973,375.942,64.62,375.993,64.274z M376.093,64.283c-0.046,0.343-0.066,0.691-0.022,1.028
			c0.047,0.333,0.197,0.663,0.496,0.812c0.606,0.303,1.351,0.079,2.049,0.335l-0.03-0.006c5.472-0.019,10.942-0.208,16.414-0.321
			l8.207-0.113l8.207-0.023c0.017,0,0.037,0.001,0.054,0.002c0.33,0.033,0.659,0.048,0.964,0.025
			c0.302-0.02,0.584-0.097,0.722-0.203c0.12-0.098,0.168-0.211,0.148-0.477c-0.023-0.251-0.128-0.551-0.259-0.84
			c-0.018-0.039-0.03-0.084-0.038-0.125l-2.972-17.216l-2.853-17.237l-0.003-0.032c-0.005-0.606-0.116-1.251-0.546-1.628
			c-0.441-0.391-1.059-0.382-1.714-0.364l-3.841-0.009l-7.684,0.064c-5.121,0.07-10.243,0.213-15.365,0.212
			c-0.029,0-0.061-0.004-0.089-0.009c-0.345-0.073-0.684-0.076-0.935,0.013c-0.245,0.091-0.41,0.286-0.521,0.584
			c-0.219,0.601-0.127,1.408-0.146,2.205l-0.017,4.759c0.002,3.172-0.043,6.345-0.088,9.518l-0.12,9.519l-0.02,9.519
			C376.093,64.278,376.093,64.281,376.093,64.283z"/>
	</g>
	<g>
		<path style="fill:#E1F4FD;" d="M426.411,66.699c-2.21,0-3.479,0.288-5.627-0.191c-1.058-0.236-2.089-1.564-2.321-2.553
			c-2.528-10.782-3.579-21.49-5.705-32.682c-0.847-1.566-0.171-3.741,1.229-3.741l7.611-0.036L426.411,66.699z"/>
		<path style="fill:#000810;" d="M426.411,66.749c-1.752,0.082-3.534,0.398-5.336,0.073c-0.419-0.044-0.965-0.23-1.331-0.522
			c-0.392-0.28-0.713-0.629-0.992-1.009c-0.272-0.384-0.505-0.808-0.629-1.297l-0.323-1.287c-0.799-3.455-1.517-6.928-2.055-10.428
			c-0.582-3.493-0.959-7.012-1.434-10.515s-1.037-6.993-1.735-10.457l0.019,0.053c-0.513-0.95-0.59-2.143-0.064-3.145
			c0.256-0.49,0.784-0.943,1.421-0.956l1.533-0.043l6.112-0.144c0.212-0.005,0.392,0.151,0.419,0.357l0.002,0.014l1.3,9.789
			l1.187,9.803l1.055,9.819c0.33,3.275,0.633,6.555,0.902,9.838c0.002,0.028-0.02,0.053-0.048,0.056H426.411z M426.353,66.648
			c-0.529-3.232-1.026-6.468-1.495-9.707l-1.352-9.783l-1.22-9.799l-1.106-9.812l0.421,0.371l-6.113-0.086l-1.523-0.026
			c-0.407-0.009-0.782,0.261-1.014,0.652c-0.464,0.792-0.468,1.884-0.03,2.727l0.003,0.005c0.009,0.015,0.014,0.032,0.017,0.048
			l1.805,10.458c0.613,3.483,1.276,6.958,1.854,10.441c0.628,3.474,1.168,6.962,1.927,10.405l0.263,1.3
			c0.075,0.375,0.253,0.75,0.477,1.096c0.473,0.69,1.057,1.276,1.906,1.394C422.837,66.753,424.6,66.563,426.353,66.648z"/>
	</g>
	<g>
		<path style="fill:#E1F4FD;" d="M5.514,22.258h13.312c1.468,0,2.667,0.996,2.667,2.213v39.824c0,1.217-1.199,2.213-2.667,2.213
			H5.514V22.258L5.514,22.258z"/>
		<path style="fill:#000810;" d="M5.514,22.208c3.088-0.196,6.177-0.308,9.266-0.348l2.316-0.031
			c0.782,0.017,1.508-0.086,2.395,0.046c0.86,0.166,1.703,0.66,2.154,1.493c0.232,0.388,0.299,0.956,0.278,1.325l-0.005,1.158
			l-0.234,18.531c-0.052,6.177-0.04,12.354,0.04,18.531l0.014,1.158c0.021,0.384-0.034,0.858-0.249,1.241
			c-0.413,0.777-1.207,1.257-2.027,1.422c-0.425,0.09-0.834,0.065-1.208,0.079l-1.158,0.021l-2.316,0.042l-9.266,0.099
			c-0.256,0.003-0.466-0.203-0.469-0.459l0,0v-0.01c-0.017-3.688-0.071-7.375-0.057-11.062l0.043-11.062L5.186,33.32
			c0.062-3.688,0.163-7.375,0.278-11.062C5.464,22.231,5.487,22.209,5.514,22.208z M5.565,22.31c0.114,3.67,0.215,7.34,0.276,11.011
			l0.155,11.062L6.04,55.445C6.054,59.133,6,62.82,5.983,66.508l-0.469-0.469l9.266,0.099l2.316,0.042l1.158,0.021
			c0.397,0.003,0.767,0.035,1.102-0.031c0.686-0.116,1.347-0.505,1.678-1.101c0.172-0.294,0.221-0.613,0.215-0.997l0.014-1.158
			c0.08-6.177,0.092-12.354,0.04-18.531l-0.234-18.531l-0.005-1.158c0.006-0.399-0.032-0.624-0.186-0.913
			c-0.292-0.54-0.904-0.915-1.552-1.03c-0.644-0.085-1.472-0.032-2.231-0.063l-2.316-0.031C11.708,22.616,8.636,22.504,5.565,22.31z
			"/>
	</g>
</g>
<path style="fill:none;stroke:#0A0B0C;stroke-width:0.4859;" d="M393.907,74.669h6.66c0.521,0,0.943,0.422,0.943,0.943v7.271
	c0,0.521-0.422,0.943-0.943,0.943h-6.66c-0.521,0-0.942-0.422-0.942-0.943v-7.271C392.965,75.092,393.387,74.669,393.907,74.669z"/>
<line style="fill:none;stroke:#0A0B0C;stroke-width:1.1248;" x1="420.32" y1="101.817" x2="434.549" y2="101.817"/>
<line style="fill:none;stroke:#0A0B0C;stroke-width:1.1248;" x1="420.32" y1="104.141" x2="434.617" y2="104.141"/>
<line style="fill:none;stroke:#0A0B0C;stroke-width:1.1248;" x1="420.32" y1="106.464" x2="435.068" y2="106.464"/>
<line style="fill:none;stroke:#0A0B0C;stroke-width:1.1248;" x1="420.32" y1="108.787" x2="434.643" y2="108.787"/>
<circle style="fill:#0A0B0C;stroke:#0A0B0C;stroke-width:0.1496;" cx="103.542" cy="129.856" r="22.118"/>
<circle style="fill:#BEC0C2;stroke:#0A0B0C;stroke-width:0.2885;" cx="103.542" cy="129.856" r="11.474"/>
<circle style="fill:#0A0B0C;stroke:#0A0B0C;stroke-width:0.1496;" cx="359.974" cy="129.856" r="22.118"/>
<circle style="fill:#BEC0C2;stroke:#0A0B0C;stroke-width:0.2885;" cx="359.974" cy="129.856" r="11.474"/>
<line style="fill:none;stroke:#0A0B0C;stroke-width:1.1248;" x1="74.852" y1="38.722" x2="133.603" y2="38.392"/>
<line style="fill:none;stroke:#0A0B0C;stroke-width:1.1248;" x1="136.129" y1="38.392" x2="194.88" y2="38.392"/>
<line style="fill:none;stroke:#0A0B0C;stroke-width:1.1248;" x1="197.736" y1="38.392" x2="256.488" y2="38.392"/>
<line style="fill:none;stroke:#0A0B0C;stroke-width:1.1248;" x1="311.079" y1="38.722" x2="369.829" y2="38.392"/>
<rect x="23.187" y="19.453" style="fill:none;stroke:#000810;stroke-linecap:round;stroke-linejoin:round;" width="49.78" height="115.903"/>
<rect x="258.687" y="19.453" style="fill:none;stroke:#000810;stroke-linecap:round;stroke-linejoin:round;" width="49.78" height="115.903"/>
<circle style="fill:#4F4F4F;" cx="103.5" cy="130" r="9"/>
<circle style="fill:#4F4F4F;" cx="360" cy="130" r="9"/>
</svg>
