<?xml version="1.0" encoding="iso-8859-1"?>
<!-- Generator: Adobe Illustrator 16.0.0, SVG Export Plug-In . SVG Version: 6.00 Build 0)  -->
<!DOCTYPE svg PUBLIC "-//W3C//DTD SVG 1.1//EN" "http://www.w3.org/Graphics/SVG/1.1/DTD/svg11.dtd">
<svg version="1.1" id="Layer_1" xmlns="http://www.w3.org/2000/svg" xmlns:xlink="http://www.w3.org/1999/xlink" x="0px" y="0px"
	 width="425px" height="149px" viewBox="0 0 425 149" style="enable-background:new 0 0 425 149;" xml:space="preserve">
<path style="fill-rule:evenodd;clip-rule:evenodd;fill:#333333;" d="M126.681,119.836c-10.667,2.476-20.192,2.882-29.556,2.991
	l-37.69-7.605c-5.11-0.635-8.218,3.344-12.326,5.016c-2.338-55.177,51.498-67.3,74.916-25.373
	C125.856,101.725,124.583,110.032,126.681,119.836L126.681,119.836z"/>
<path style="fill-rule:evenodd;clip-rule:evenodd;fill:#333333;" d="M390.996,123.363c-0.089-8.534,3.335-16.055,1.645-22.366
	c-13.77-51.403-78.564-31.358-80.057,21.831C335.884,119.571,364.859,123.185,390.996,123.363L390.996,123.363z"/>
<g>
	<path style="fill-rule:evenodd;clip-rule:evenodd;fill:#ED2024;" d="M40.58,120.77c-5.163-0.722-24.922-4.006-27.914-12.436
		c-0.917-2.584-4.291-4.235-4.643-5.734c-0.69-2.933-1.357-4.434,1.643-4.933c19.903-3.313,2.667-17.871,2.667-26.334
		c0-3.951,4-20.666,23.333-24.666C43.527,45.041,61,43.333,61,43.333S94.119,16.867,117,12c35.356-7.523,73.851-6.311,116.5,0.75
		c21.354,3.535,42.116,13.393,77.545,33.51c1.974-0.711,3.953-1.545,7.138-1.299c69.211,5.375,95.969,18.705,95.087,37.212
		c3.395,1.669,5.497,1.524,4.655,5.972C417.27,91.597,417.667,95.334,416,96c0,0-1.74,5.258-2,6
		c-3.868,11.074-9.232,18.676-15.933,20.701c-6.406,1.938-9.059,1.855-8.041-4.401c0.307-1.894,0.468-3.839,0.468-5.82
		c0-19.905-16.143-36.048-36.048-36.048c-19.906,0-36.758,16.142-36.758,36.048c0,4.607,0.67,11.295-4.165,11.389H131.744
		c-7.763-0.28-8.416-4.456-8.416-11.389c0-19.906-16.058-36.054-36.048-36.073s-36.2,16.133-36.048,36.073
		C51.318,123.711,53.789,122.618,40.58,120.77L40.58,120.77z"/>
	<path style="fill:#231F20;" d="M40.566,120.868c-5.819-0.837-11.613-2.062-17.142-4.125c-2.744-1.055-5.458-2.318-7.769-4.198
		c-1.143-0.94-2.177-2.064-2.84-3.42c-0.168-0.338-0.29-0.698-0.429-1.026c-0.141-0.317-0.324-0.63-0.529-0.922
		c-0.413-0.586-0.918-1.11-1.446-1.612c-0.528-0.504-1.087-0.979-1.616-1.508c-0.26-0.269-0.52-0.546-0.725-0.885
		c-0.102-0.166-0.189-0.36-0.235-0.558l-0.13-0.534c-0.17-0.715-0.374-1.425-0.448-2.188c-0.029-0.379-0.023-0.79,0.15-1.178
		c0.17-0.392,0.518-0.671,0.868-0.844c0.715-0.35,1.477-0.4,2.182-0.551c0.716-0.14,1.427-0.307,2.127-0.505
		c1.396-0.398,2.763-0.948,3.932-1.773c1.169-0.815,2.069-2.003,2.333-3.387c0.283-1.378,0.033-2.829-0.384-4.2
		c-0.87-2.759-2.345-5.314-3.696-7.925c-0.68-1.308-1.354-2.628-1.913-4.018c-0.545-1.383-1.029-2.869-0.986-4.451
		c0.208-3.068,1.163-5.917,2.409-8.635c2.518-5.419,6.772-10.046,12.035-12.92c2.618-1.455,5.452-2.489,8.354-3.173
		c2.908-0.659,5.816-1.1,8.733-1.533c5.833-0.841,11.674-1.533,17.531-2.159l-0.366,0.148c4.37-3.482,8.853-6.775,13.438-9.945
		c4.583-3.168,9.258-6.207,14.053-9.06c4.796-2.849,9.71-5.519,14.812-7.831c5.081-2.302,10.447-4.272,15.98-5.247
		c21.9-4.402,44.356-5.406,66.581-4.15c11.12,0.625,22.202,1.774,33.221,3.312c5.513,0.772,11.003,1.622,16.491,2.59
		c5.495,1.011,10.901,2.449,16.19,4.215c10.587,3.535,20.686,8.296,30.599,13.324c9.904,5.062,19.613,10.483,29.271,15.982
		l-0.269-0.023c1.134-0.41,2.297-0.849,3.52-1.092c1.22-0.252,2.477-0.308,3.711-0.215l7.265,0.611
		c4.842,0.421,9.679,0.904,14.508,1.466c9.654,1.129,19.286,2.55,28.809,4.572c4.76,1.015,9.49,2.186,14.153,3.608
		c4.658,1.429,9.259,3.1,13.659,5.247c4.376,2.158,8.632,4.781,12.022,8.427c1.68,1.821,3.105,3.92,4.039,6.251
		c0.94,2.327,1.344,4.868,1.229,7.368l-0.323-0.549c0.62,0.302,1.259,0.569,1.918,0.847c0.654,0.287,1.349,0.556,2.013,1.07
		c0.686,0.495,1.147,1.403,1.219,2.208c0.099,0.812,0.004,1.567-0.116,2.298c-0.262,1.372-0.354,2.745-0.484,4.179
		c-0.071,0.715-0.144,1.439-0.322,2.194c-0.092,0.376-0.213,0.766-0.431,1.158c-0.209,0.388-0.58,0.798-1.08,0.999l0.376-0.399
		c-0.846,2.527-1.619,5.054-2.547,7.585c-0.931,2.522-1.99,4.996-3.255,7.383c-1.267,2.383-2.731,4.686-4.535,6.748
		c-1.796,2.053-3.964,3.889-6.559,5.004c-1.323,0.557-2.604,0.88-3.929,1.228c-1.336,0.289-2.689,0.661-4.322,0.331
		c-0.404-0.098-0.83-0.273-1.201-0.562c-0.371-0.287-0.663-0.676-0.844-1.07c-0.36-0.797-0.421-1.57-0.428-2.293
		c-0.009-1.458,0.321-2.805,0.435-4.057c0.575-5.167-0.002-10.455-1.691-15.361c-1.691-4.904-4.474-9.428-8.099-13.137
		c-3.614-3.72-8.062-6.619-12.918-8.423c-4.854-1.809-10.113-2.508-15.274-2.059c-5.163,0.436-10.218,2.025-14.718,4.589
		c-4.501,2.563-8.451,6.091-11.476,10.289c-3.029,4.191-5.12,9.058-6.011,14.143c-0.46,2.56-0.577,5.094-0.495,7.752
		c0.02,1.335,0.036,2.695-0.078,4.09c-0.13,1.387-0.327,2.851-1.142,4.281c-0.417,0.701-1.052,1.374-1.854,1.764
		c-0.782,0.414-1.684,0.504-2.41,0.502l-3.989-0.002l-7.979-0.005l-63.833-0.036l-31.916-0.018l-31.917-0.103l-31.917-0.114
		l-7.979-0.047l-2.027-0.013c-0.666-0.028-1.378-0.089-2.062-0.197c-1.371-0.222-2.799-0.638-4.002-1.55
		c-1.217-0.901-1.988-2.292-2.358-3.652c-0.385-1.372-0.499-2.748-0.556-4.099c-0.062-1.355-0.014-2.694-0.056-3.998
		c-0.042-1.299-0.154-2.609-0.338-3.902c-0.734-5.181-2.646-10.193-5.548-14.563c-2.903-4.368-6.783-8.094-11.29-10.803
		c-8.994-5.489-20.495-6.623-30.455-3.052c-9.998,3.487-18.205,11.714-21.674,21.739c-0.879,2.496-1.474,5.094-1.768,7.726
		c-0.313,2.633-0.247,5.292-0.125,7.946c0.045,1.328,0.183,2.651,0.078,4.005c-0.038,0.337-0.097,0.683-0.259,1.004
		c-0.155,0.325-0.462,0.586-0.799,0.698c-0.678,0.227-1.364,0.163-2.029,0.119C45.809,121.731,43.203,121.222,40.566,120.868z
		 M40.594,120.671c2.637,0.341,5.261,0.842,7.894,1.11c0.651,0.044,1.333,0.092,1.925-0.113c0.62-0.191,0.843-0.862,0.893-1.501
		c0.097-1.303-0.043-2.64-0.096-3.966c-0.133-2.655-0.212-5.334,0.093-7.992c0.286-2.655,0.875-5.279,1.751-7.804
		c1.742-5.055,4.654-9.697,8.417-13.498c3.759-3.81,8.377-6.755,13.405-8.602c10.06-3.729,21.784-2.72,31.056,2.801
		c4.643,2.725,8.664,6.502,11.699,10.961c3.038,4.459,5.071,9.605,5.893,14.951c0.206,1.338,0.337,2.681,0.397,4.039
		c0.058,1.354,0.026,2.677,0.101,3.979c0.069,1.302,0.2,2.596,0.551,3.784c0.346,1.188,0.962,2.234,1.907,2.921
		c0.937,0.698,2.144,1.058,3.386,1.241c0.632,0.092,1.247,0.139,1.91,0.16l1.962-0.013l7.979-0.047l31.917-0.114l31.917-0.103
		l31.916-0.018l63.833-0.036l7.979-0.005l3.989-0.002c1.165,0.025,1.917-0.34,2.451-1.224c0.524-0.892,0.756-2.131,0.862-3.376
		c0.107-1.256,0.099-2.56,0.083-3.883c-0.077-2.657,0.053-5.465,0.549-8.144c0.962-5.395,3.196-10.544,6.41-14.963
		c3.209-4.428,7.386-8.133,12.138-10.82c4.751-2.688,10.086-4.349,15.529-4.792c5.438-0.458,10.981,0.296,16.092,2.217
		c10.257,3.797,18.589,12.378,22.03,22.75c1.742,5.167,2.309,10.714,1.673,16.117c-0.146,1.394-0.457,2.654-0.449,3.866
		c-0.006,0.602,0.067,1.184,0.261,1.604c0.195,0.416,0.477,0.635,0.964,0.761c0.995,0.231,2.328-0.024,3.562-0.311
		c1.246-0.315,2.557-0.648,3.689-1.118c2.32-0.972,4.341-2.633,6.052-4.557c1.718-1.931,3.15-4.133,4.398-6.434
		c1.246-2.304,2.307-4.721,3.238-7.181c0.926-2.455,1.723-5.015,2.581-7.524l0.018-0.051c0.059-0.173,0.197-0.298,0.359-0.35
		c0.32-0.101,0.602-0.628,0.749-1.258c0.155-0.625,0.236-1.315,0.31-2.01c0.14-1.389,0.253-2.852,0.534-4.267
		c0.241-1.332,0.296-2.697-0.639-3.358c-0.955-0.717-2.422-1.143-3.699-1.809l-0.016-0.008c-0.206-0.107-0.32-0.323-0.309-0.541
		c0.124-2.351-0.234-4.718-1.099-6.904c-0.856-2.192-2.196-4.186-3.795-5.939c-3.229-3.513-7.375-6.114-11.674-8.259
		c-4.323-2.139-8.873-3.819-13.491-5.262c-4.623-1.438-9.325-2.628-14.061-3.663c-9.476-2.063-19.08-3.532-28.713-4.71
		c-4.818-0.586-9.646-1.094-14.48-1.539c-2.417-0.229-4.838-0.416-7.257-0.602c-1.187-0.084-2.378-0.026-3.538,0.216
		c-1.163,0.236-2.282,0.66-3.428,1.08c-0.091,0.033-0.19,0.021-0.269-0.023c-9.673-5.463-19.394-10.847-29.298-15.865
		c-9.9-5.009-20.026-9.636-30.563-13.06c-5.266-1.706-10.638-3.084-16.08-4.037c-5.464-0.915-10.964-1.721-16.463-2.446
		c-11.002-1.445-22.055-2.502-33.13-3.036c-22.13-1.052-44.442-0.095-66.141,4.356c-5.423,0.991-10.581,2.847-15.627,5.09
		c-5.034,2.248-9.915,4.862-14.688,7.66c-9.534,5.617-18.682,11.944-27.461,18.674l-0.013,0.01c-0.106,0.081-0.23,0.127-0.354,0.139
		c-5.842,0.555-11.688,1.176-17.503,1.943c-2.901,0.397-5.819,0.796-8.651,1.418c-2.82,0.652-5.564,1.642-8.095,3.035
		c-5.083,2.751-9.198,7.186-11.659,12.421c-1.216,2.601-2.153,5.437-2.351,8.245c-0.06,1.373,0.347,2.767,0.854,4.11
		c0.515,1.349,1.155,2.663,1.809,3.974c1.299,2.625,2.748,5.225,3.603,8.104c0.407,1.432,0.657,2.98,0.321,4.499
		c-0.316,1.527-1.351,2.828-2.601,3.662c-1.252,0.856-2.672,1.375-4.095,1.779c-0.715,0.198-1.438,0.363-2.165,0.5
		c-0.729,0.146-1.466,0.202-2.083,0.507c-0.303,0.15-0.562,0.362-0.689,0.653c-0.132,0.289-0.147,0.638-0.121,0.986
		c0.064,0.703,0.262,1.416,0.43,2.13l0.128,0.537c0.037,0.161,0.102,0.306,0.19,0.454c0.175,0.292,0.418,0.56,0.668,0.817
		c0.509,0.514,1.068,0.994,1.602,1.507c0.534,0.512,1.053,1.053,1.485,1.671c0.216,0.311,0.406,0.634,0.562,0.99
		c0.146,0.349,0.257,0.688,0.416,1.01c0.627,1.298,1.623,2.396,2.738,3.322c2.255,1.853,4.943,3.123,7.665,4.183
		C29.012,118.558,34.791,119.81,40.594,120.671z"/>
</g>
<g>
	<path style="fill-rule:evenodd;clip-rule:evenodd;fill:#E1E1EA;" d="M248.75,17c26.67,8.001,44.414,20.222,61.874,29.234
		l0.421,0.025L315.5,49l-6.43,1.254c-12.385-8.947-24.633-16.062-36.766-21.66C260.273,23.043,252,18.75,252,18.75L248.75,17z"/>
	<path style="fill:#231F20;" d="M248.765,16.952c5.525,1.479,10.954,3.327,16.285,5.421c5.308,2.148,10.547,4.483,15.632,7.115
		c5.109,2.587,10.053,5.476,15.007,8.326c4.956,2.848,9.926,5.672,15.021,8.256l-0.074-0.021c0.142,0,0.283-0.014,0.424-0.02
		c0.032-0.002,0.062,0.007,0.088,0.022l0.02,0.011l4.479,2.699c0.132,0.079,0.174,0.25,0.095,0.381
		c-0.041,0.068-0.107,0.112-0.18,0.128l-0.008,0.002l-6.41,1.35c-0.104,0.021-0.205-0.002-0.285-0.059l-0.008-0.006
		c-9.354-6.656-19.141-12.708-29.375-17.893c-5.088-2.634-10.377-4.896-15.519-7.495c-5.167-2.533-10.223-5.295-15.229-8.127
		c-0.024-0.014-0.033-0.044-0.02-0.068C248.719,16.955,248.743,16.946,248.765,16.952z M248.773,16.956
		c1.28,0.651,2.542,1.349,3.838,1.962l3.914,1.812l7.824,3.62c5.201,2.427,10.473,4.735,15.604,7.379
		c10.248,5.283,20.05,11.41,29.337,18.221l-0.293-0.064l6.448-1.158l-0.093,0.511l-4.43-2.781l0.107,0.033
		c-0.14-0.022-0.278-0.053-0.418-0.07l-0.016-0.002c-0.021-0.003-0.041-0.009-0.059-0.019c-5.062-2.664-10.041-5.477-15.064-8.202
		c-5.023-2.729-10.095-5.357-15.184-7.938c-5.109-2.539-10.247-5.023-15.522-7.198c-5.251-2.23-10.61-4.205-16.033-6.013
		L248.773,16.956z"/>
</g>
<g>
	<g>
		<g>
			<circle style="fill-rule:evenodd;clip-rule:evenodd;" cx="86.93" cy="110.046" r="30.683"/>
			<circle style="fill-rule:evenodd;clip-rule:evenodd;" cx="86.93" cy="110.047" r="29.872"/>
			<circle style="fill-rule:evenodd;clip-rule:evenodd;" cx="86.93" cy="110.047" r="26.576"/>
		</g>
	</g>
	<circle style="fill-rule:evenodd;clip-rule:evenodd;fill:#BCBEC0;" cx="86.93" cy="110.047" r="21.101"/>
	<path style="fill-rule:evenodd;clip-rule:evenodd;fill:#95A0A6;" d="M96.028,91.664l3.504,1.037L86.93,110.047l0,0L74.328,92.701
		l3.508-1.039l7.284,9.376c1.189,1.53,2.262,1.668,3.619,0"/>
	<polyline style="fill-rule:evenodd;clip-rule:evenodd;fill:#95A0A6;" points="107.225,113.019 107.32,116.672 86.93,110.047 
		86.93,110.047 99.532,92.701 101.604,95.717 94.938,105.541 	"/>
	<path style="fill-rule:evenodd;clip-rule:evenodd;fill:#95A0A6;" d="M86.93,110.047l-20.391,6.625l0.096-3.658l11.168-4.029
		c1.822-0.658,2.285-1.636,1.118-3.442l-6.663-9.829l2.069-3.012L86.93,110.047L86.93,110.047z"/>
	<path style="fill-rule:evenodd;clip-rule:evenodd;fill:#95A0A6;" d="M86.93,110.047l20.391,6.625l-2.228,2.903l-11.403-3.305
		c-1.862-0.538-2.811-0.02-2.929,2.128l-0.387,11.868l-3.444,1.22V110.047L86.93,110.047z"/>
	<path style="fill-rule:evenodd;clip-rule:evenodd;fill:#95A0A6;" d="M86.93,110.047v21.439l-3.449-1.221l-0.382-11.867
		c-0.062-1.937-0.849-2.679-2.928-2.127l-11.407,3.299l-2.225-2.898L86.93,110.047L86.93,110.047z"/>
	<g>
		<path style="fill-rule:evenodd;clip-rule:evenodd;fill:#D1D3D4;" d="M86.93,85.992c13.282,0,24.054,10.771,24.054,24.054
			c0,13.282-10.771,24.054-24.054,24.054s-24.054-10.771-24.054-24.054C62.876,96.763,73.647,85.992,86.93,85.992L86.93,85.992z
			 M107.137,113.549c0.196-1.139,0.3-2.309,0.3-3.503c0-5.776-2.391-10.995-6.234-14.723l-8.979,10.424
			c-3.009,3.493-2.943,3.617,1.534,4.667L107.137,113.549L107.137,113.549z M96.506,91.91c-2.858-1.514-6.117-2.371-9.576-2.371
			c-3.467,0-6.73,0.861-9.595,2.38l7.143,11.765c2.392,3.94,2.53,3.917,4.912-0.018L96.506,91.91L96.506,91.91z M72.643,95.338
			c-3.835,3.726-6.22,8.938-6.22,14.708c0,1.202,0.104,2.379,0.303,3.523l13.395-3.156c4.487-1.058,4.508-1.197,1.502-4.678
			L72.643,95.338L72.643,95.338z M68.522,119.09c2.937,5.964,8.687,10.293,15.516,11.258l1.136-13.712
			c0.381-4.595,0.255-4.656-3.983-2.874L68.522,119.09L68.522,119.09z M89.843,130.345c6.828-0.972,12.573-5.307,15.503-11.273
			l-12.691-5.319c-4.252-1.781-4.35-1.681-3.964,2.901L89.843,130.345L89.843,130.345z"/>
		<g>
			<path style="fill:#231F20;" d="M86.93,85.992c0,0,0.589,0.027,1.695,0.08c0.555,0.001,1.231,0.096,2.024,0.224
				c0.396,0.066,0.827,0.108,1.276,0.206c0.446,0.113,0.92,0.233,1.421,0.36c1.98,0.557,4.377,1.427,6.782,3.032
				c2.405,1.576,4.873,3.796,6.865,6.746c1.972,2.95,3.444,6.616,3.941,10.669c0.082,0.503,0.07,1.02,0.11,1.534
				c0.012,0.518,0.091,1.03,0.048,1.562c-0.062,1.04-0.05,2.093-0.255,3.154c-0.25,2.14-0.925,4.241-1.782,6.293
				c-0.879,2.052-2.129,3.963-3.558,5.754c-1.477,1.761-3.23,3.309-5.155,4.644c-1.954,1.3-4.115,2.297-6.372,3.03
				c-2.282,0.688-4.642,1.006-7.051,1.068c-2.343-0.059-4.758-0.379-7.026-1.067c-2.257-0.732-4.418-1.729-6.373-3.029
				c-1.924-1.336-3.679-2.884-5.155-4.645c-1.429-1.792-2.679-3.703-3.558-5.755c-1.79-4.081-2.345-8.507-1.88-12.538
				c0.499-4.062,1.97-7.722,3.942-10.674c1.992-2.95,4.459-5.17,6.865-6.746c2.404-1.606,4.801-2.476,6.782-3.032
				c0.5-0.127,0.975-0.247,1.421-0.36c0.449-0.098,0.88-0.14,1.276-0.206c0.793-0.128,1.469-0.223,2.024-0.224
				C86.34,86.02,86.93,85.992,86.93,85.992z M86.93,85.992c0,0-0.589,0.031-1.694,0.091c-0.555,0.005-1.229,0.104-2.021,0.237
				c-0.395,0.068-0.825,0.114-1.273,0.214c-0.444,0.116-0.917,0.239-1.417,0.369c-1.973,0.569-4.358,1.452-6.742,3.068
				c-2.386,1.586-4.826,3.812-6.786,6.756c-1.94,2.942-3.375,6.597-3.84,10.603c-0.436,4.017,0.146,8.374,1.938,12.394
				c0.88,2.02,2.126,3.896,3.545,5.65c1.466,1.726,3.204,3.236,5.104,4.538c1.93,1.265,4.06,2.229,6.278,2.935
				c2.247,0.661,4.542,0.951,6.92,1.004c2.311-0.048,4.662-0.342,6.895-1.003c2.219-0.705,4.349-1.67,6.278-2.935
				c1.9-1.302,3.638-2.812,5.104-4.538c1.419-1.756,2.666-3.632,3.546-5.651c0.858-2.015,1.541-4.098,1.8-6.195
				c0.21-1.035,0.206-2.099,0.274-3.136c0.046-0.508-0.029-1.028-0.038-1.537c-0.036-0.51-0.021-1.021-0.098-1.521
				c-0.466-4.016-1.901-7.663-3.841-10.607c-1.96-2.944-4.4-5.17-6.786-6.756c-2.384-1.616-4.769-2.499-6.742-3.068
				c-0.5-0.13-0.972-0.253-1.417-0.369c-0.448-0.1-0.878-0.146-1.273-0.214c-0.791-0.133-1.466-0.232-2.021-0.237
				C87.519,86.023,86.93,85.992,86.93,85.992z"/>
			<path style="fill:#231F20;" d="M107.137,113.549l0.138-1.238c0.061-0.412,0.066-0.828,0.074-1.242
				c0.001-0.413,0.042-0.83,0.011-1.238l-0.086-1.243c-0.019-0.416-0.058-0.829-0.144-1.232l-0.209-1.218
				c-0.052-0.409-0.202-0.8-0.298-1.2c-0.115-0.396-0.204-0.8-0.339-1.188l-0.445-1.154c-0.138-0.388-0.298-0.768-0.498-1.129
				l-0.557-1.103c-0.188-0.365-0.433-0.699-0.646-1.051c-0.23-0.34-0.42-0.708-0.682-1.026l-0.754-0.976
				c-0.492-0.659-1.108-1.213-1.655-1.825l0.326-0.015l-5.754,6.715l-2.897,3.341c-0.481,0.556-0.969,1.113-1.426,1.678
				c-0.227,0.283-0.453,0.571-0.635,0.869c-0.191,0.289-0.336,0.624-0.27,0.852c0.073,0.227,0.394,0.412,0.716,0.536
				c0.322,0.137,0.674,0.236,1.024,0.336c0.703,0.197,1.419,0.369,2.135,0.545l4.295,1.052L107.137,113.549z M107.137,113.549
				l-8.643-1.879l-4.315-0.966c-0.719-0.161-1.439-0.318-2.16-0.505c-0.36-0.096-0.72-0.197-1.078-0.345
				c-0.337-0.146-0.769-0.306-0.965-0.796c-0.126-0.51,0.119-0.899,0.306-1.216c0.2-0.332,0.431-0.627,0.662-0.92
				c0.466-0.583,0.946-1.139,1.426-1.7l2.875-3.359l5.789-6.687l0.011-0.013c0.076-0.088,0.208-0.098,0.296-0.021l0.02,0.02
				c0.556,0.629,1.18,1.199,1.679,1.876l0.763,1.001c0.267,0.325,0.452,0.707,0.68,1.059c0.21,0.362,0.453,0.707,0.637,1.083
				l0.545,1.134c0.195,0.372,0.35,0.76,0.483,1.158l0.429,1.181c0.129,0.397,0.212,0.81,0.321,1.213
				c0.089,0.408,0.232,0.804,0.278,1.223l0.175,1.245c0.072,0.414,0.096,0.828,0.101,1.244l0.042,1.245
				c0.017,0.422-0.039,0.835-0.055,1.252c-0.023,0.416-0.043,0.831-0.118,1.24L107.137,113.549z"/>
			<path style="fill:#231F20;" d="M96.506,91.91c-0.763-0.328-1.521-0.668-2.289-0.986c-0.796-0.232-1.585-0.482-2.381-0.698
				c-0.817-0.135-1.63-0.281-2.445-0.406l-2.462-0.127l-2.486,0.179c-0.809,0.146-1.61,0.316-2.413,0.471
				c-0.785,0.241-1.565,0.504-2.348,0.751c-0.751,0.332-1.495,0.685-2.242,1.024l0.086-0.314l4.609,7.549l2.283,3.788
				c0.38,0.629,0.759,1.266,1.155,1.875c0.199,0.304,0.403,0.607,0.63,0.873c0.216,0.271,0.49,0.513,0.727,0.521
				c0.237,0.003,0.513-0.247,0.731-0.514c0.23-0.264,0.433-0.568,0.636-0.87c0.405-0.607,0.789-1.236,1.178-1.862l2.328-3.761
				L96.506,91.91z M96.506,91.91l-4.458,7.641l-2.252,3.806c-0.376,0.634-0.749,1.271-1.148,1.898
				c-0.202,0.313-0.41,0.624-0.661,0.919c-0.244,0.275-0.529,0.638-1.057,0.67c-0.522-0.039-0.818-0.392-1.061-0.668
				c-0.253-0.293-0.463-0.604-0.67-0.913c-0.411-0.624-0.79-1.253-1.176-1.883l-2.308-3.772l-4.571-7.572l-0.008-0.013
				c-0.06-0.1-0.028-0.229,0.072-0.29l0.023-0.012c0.766-0.344,1.528-0.698,2.297-1.032c0.802-0.247,1.599-0.515,2.406-0.74
				c0.831-0.145,1.66-0.302,2.488-0.433l2.489-0.129l2.512,0.178c0.823,0.144,1.639,0.329,2.456,0.491
				c0.798,0.246,1.586,0.527,2.375,0.788C95.009,91.188,95.755,91.556,96.506,91.91z"/>
			<path style="fill:#231F20;" d="M72.643,95.338c-0.54,0.63-1.15,1.205-1.632,1.881l-0.738,0.999
				c-0.256,0.324-0.437,0.702-0.659,1.051c-0.205,0.359-0.442,0.7-0.619,1.074l-0.53,1.12c-0.192,0.365-0.343,0.75-0.475,1.142
				l-0.421,1.163c-0.125,0.392-0.208,0.798-0.314,1.195c-0.087,0.402-0.231,0.792-0.272,1.204l-0.177,1.222
				c-0.075,0.406-0.098,0.816-0.107,1.229l-0.054,1.232c-0.019,0.393,0.028,0.823,0.039,1.233c0.016,0.416,0.033,0.831,0.101,1.232
				l0.162,1.216l-0.272-0.181l8.603-2.05l4.308-1c0.716-0.167,1.438-0.331,2.14-0.519c0.35-0.096,0.702-0.196,1.024-0.33
				c0.326-0.121,0.639-0.308,0.721-0.529c0.078-0.225-0.075-0.564-0.261-0.854c-0.179-0.3-0.407-0.587-0.63-0.873
				c-0.453-0.573-0.932-1.133-1.407-1.695l-2.857-3.376L72.643,95.338z M72.643,95.338l5.888,6.6l2.923,3.318
				c0.487,0.553,0.978,1.104,1.451,1.679c0.235,0.288,0.467,0.582,0.669,0.912c0.187,0.316,0.443,0.7,0.309,1.213
				c-0.199,0.483-0.625,0.655-0.963,0.801c-0.357,0.15-0.717,0.254-1.076,0.354c-0.72,0.198-1.435,0.365-2.153,0.538l-4.301,1.028
				l-8.613,2.007l-0.011,0.002c-0.116,0.027-0.231-0.045-0.258-0.161l-0.004-0.021l-0.159-1.256
				c-0.067-0.421-0.081-0.835-0.094-1.25c-0.008-0.42-0.052-0.819-0.031-1.256l0.074-1.257c0.018-0.42,0.05-0.837,0.134-1.249
				l0.206-1.24c0.05-0.417,0.204-0.812,0.301-1.22c0.116-0.402,0.208-0.812,0.343-1.207l0.451-1.172
				c0.142-0.395,0.302-0.779,0.503-1.147l0.571-1.115c0.191-0.371,0.443-0.708,0.662-1.062c0.236-0.344,0.43-0.716,0.701-1.035
				l0.778-0.979C71.452,96.5,72.081,95.949,72.643,95.338z"/>
			<path style="fill:#231F20;" d="M68.522,119.09l1.273,2.143l1.518,1.963l1.739,1.765c0.644,0.518,1.275,1.049,1.926,1.554
				c0.701,0.435,1.389,0.889,2.097,1.308c0.747,0.346,1.485,0.713,2.237,1.042c0.784,0.251,1.558,0.527,2.341,0.773l2.416,0.488
				l-0.255,0.204l0.708-8.815l0.379-4.405c0.062-0.733,0.13-1.471,0.167-2.196c0.017-0.363,0.031-0.729,0.003-1.076
				c-0.015-0.347-0.096-0.703-0.282-0.849c-0.192-0.141-0.561-0.102-0.895-0.013c-0.34,0.078-0.684,0.206-1.025,0.33
				c-0.685,0.253-1.365,0.536-2.047,0.814l-4.093,1.674L68.522,119.09z M68.522,119.09l8.097-3.561l4.059-1.755
				c0.677-0.292,1.352-0.588,2.044-0.86c0.348-0.135,0.698-0.264,1.075-0.355c0.359-0.08,0.802-0.204,1.249,0.077
				c0.401,0.338,0.432,0.797,0.467,1.164c0.033,0.386,0.02,0.76,0.005,1.133c-0.034,0.746-0.096,1.478-0.154,2.214l-0.351,4.408
				l-0.752,8.812l-0.001,0.015c-0.01,0.116-0.112,0.203-0.229,0.192l-0.025-0.003l-2.465-0.517c-0.798-0.256-1.59-0.538-2.381-0.814
				c-0.761-0.352-1.505-0.739-2.257-1.107c-0.712-0.439-1.403-0.915-2.104-1.37c-0.651-0.525-1.281-1.077-1.921-1.613
				c-0.578-0.603-1.133-1.229-1.698-1.841l-1.459-2.032L68.522,119.09z"/>
			<path style="fill:#231F20;" d="M89.843,130.345l2.431-0.548c0.785-0.266,1.56-0.559,2.336-0.835
				c0.748-0.352,1.476-0.745,2.216-1.107c0.701-0.435,1.381-0.904,2.071-1.353c0.641-0.519,1.26-1.062,1.891-1.592
				c0.569-0.594,1.122-1.205,1.684-1.805l1.46-1.987l1.212-2.146l0.115,0.306l-8.165-3.398l-4.073-1.723
				c-0.677-0.285-1.358-0.577-2.037-0.838c-0.34-0.128-0.683-0.254-1.022-0.335c-0.334-0.094-0.698-0.127-0.895,0.005
				c-0.194,0.137-0.271,0.501-0.29,0.845c-0.031,0.349-0.016,0.714-0.003,1.077c0.03,0.729,0.088,1.464,0.142,2.199l0.327,4.41
				L89.843,130.345z M89.843,130.345l-0.884-8.801l-0.415-4.402c-0.068-0.733-0.142-1.468-0.187-2.21
				c-0.021-0.373-0.036-0.746-0.006-1.132c0.035-0.366,0.053-0.827,0.462-1.163c0.445-0.275,0.892-0.164,1.25-0.083
				c0.377,0.088,0.729,0.216,1.079,0.345c0.699,0.264,1.375,0.548,2.058,0.831l4.083,1.696l8.148,3.438l0.013,0.006
				c0.108,0.045,0.158,0.17,0.113,0.277l-0.011,0.022l-1.253,2.185l-1.513,2.012c-0.584,0.602-1.16,1.212-1.75,1.805
				c-0.652,0.526-1.292,1.066-1.953,1.578c-0.71,0.443-1.409,0.904-2.127,1.33c-0.758,0.353-1.511,0.716-2.275,1.046
				c-0.797,0.253-1.589,0.52-2.384,0.758L89.843,130.345z"/>
		</g>
	</g>
</g>
<g>
	<g>
		<g>
			<circle style="fill-rule:evenodd;clip-rule:evenodd;" cx="353.836" cy="110.046" r="30.683"/>
			<circle style="fill-rule:evenodd;clip-rule:evenodd;" cx="353.836" cy="110.047" r="29.872"/>
			<circle style="fill-rule:evenodd;clip-rule:evenodd;" cx="353.836" cy="110.047" r="26.576"/>
		</g>
	</g>
	<circle style="fill-rule:evenodd;clip-rule:evenodd;fill:#BCBEC0;" cx="353.836" cy="110.047" r="21.101"/>
	<path style="fill-rule:evenodd;clip-rule:evenodd;fill:#95A0A6;" d="M362.935,91.664l3.504,1.037l-12.603,17.346l0,0
		l-12.602-17.346l3.508-1.039l7.284,9.376c1.189,1.53,2.262,1.668,3.619,0"/>
	<path style="fill-rule:evenodd;clip-rule:evenodd;fill:#95A0A6;" d="M353.836,110.047l12.603-17.346l2.072,3.016l-6.666,9.824
		c-1.088,1.604-0.888,2.667,1.118,3.442l11.168,4.035l0.096,3.653L353.836,110.047L353.836,110.047z"/>
	<path style="fill-rule:evenodd;clip-rule:evenodd;fill:#95A0A6;" d="M353.836,110.047l-20.391,6.625l0.096-3.658l11.168-4.029
		c1.822-0.658,2.285-1.636,1.118-3.442l-6.663-9.829l2.069-3.012L353.836,110.047L353.836,110.047z"/>
	<path style="fill-rule:evenodd;clip-rule:evenodd;fill:#95A0A6;" d="M353.836,110.047l20.391,6.625l-2.228,2.903l-11.403-3.305
		c-1.862-0.538-2.811-0.02-2.929,2.128l-0.387,11.868l-3.444,1.22V110.047L353.836,110.047z"/>
	<path style="fill-rule:evenodd;clip-rule:evenodd;fill:#95A0A6;" d="M353.836,110.047v21.439l-3.449-1.221l-0.382-11.867
		c-0.062-1.937-0.849-2.679-2.928-2.127l-11.407,3.299l-2.225-2.898L353.836,110.047L353.836,110.047z"/>
	<g>
		<path style="fill-rule:evenodd;clip-rule:evenodd;fill:#D1D3D4;" d="M353.836,85.992c13.282,0,24.054,10.771,24.054,24.054
			c0,13.282-10.771,24.054-24.054,24.054s-24.054-10.771-24.054-24.054C329.782,96.763,340.554,85.992,353.836,85.992
			L353.836,85.992z M374.043,113.549c0.196-1.139,0.3-2.309,0.3-3.503c0-5.776-2.391-10.995-6.234-14.723l-8.979,10.424
			c-3.009,3.493-2.943,3.617,1.534,4.667L374.043,113.549L374.043,113.549z M363.412,91.91c-2.858-1.514-6.117-2.371-9.576-2.371
			c-3.467,0-6.73,0.861-9.595,2.38l7.143,11.765c2.392,3.94,2.53,3.917,4.912-0.018L363.412,91.91L363.412,91.91z M339.549,95.338
			c-3.835,3.726-6.22,8.938-6.22,14.708c0,1.202,0.104,2.379,0.303,3.523l13.395-3.156c4.487-1.058,4.508-1.197,1.502-4.678
			L339.549,95.338L339.549,95.338z M335.429,119.09c2.937,5.964,8.687,10.293,15.516,11.258l1.136-13.712
			c0.381-4.595,0.255-4.656-3.983-2.874L335.429,119.09L335.429,119.09z M356.749,130.345c6.828-0.972,12.573-5.307,15.503-11.273
			l-12.691-5.319c-4.252-1.781-4.35-1.681-3.964,2.901L356.749,130.345L356.749,130.345z"/>
		<g>
			<path style="fill:#231F20;" d="M353.836,85.992c0,0,0.59,0.027,1.695,0.08c0.555,0.001,1.23,0.096,2.023,0.224
				c0.396,0.066,0.827,0.108,1.276,0.206c0.446,0.113,0.92,0.233,1.421,0.36c1.98,0.557,4.377,1.427,6.781,3.032
				c2.406,1.576,4.873,3.796,6.865,6.746c1.973,2.95,3.444,6.616,3.941,10.669c0.081,0.503,0.07,1.02,0.109,1.534
				c0.013,0.518,0.092,1.03,0.048,1.562c-0.062,1.04-0.049,2.093-0.255,3.154c-0.251,2.14-0.926,4.241-1.782,6.293
				c-0.879,2.052-2.129,3.963-3.558,5.754c-1.477,1.761-3.231,3.309-5.155,4.644c-1.954,1.3-4.115,2.297-6.372,3.03
				c-2.282,0.688-4.643,1.006-7.052,1.068c-2.343-0.059-4.758-0.379-7.026-1.067c-2.257-0.732-4.418-1.729-6.372-3.029
				c-1.925-1.336-3.68-2.884-5.155-4.645c-1.43-1.792-2.68-3.703-3.559-5.755c-1.79-4.081-2.345-8.507-1.88-12.538
				c0.498-4.062,1.97-7.722,3.942-10.674c1.992-2.95,4.459-5.17,6.864-6.746c2.404-1.606,4.802-2.476,6.782-3.032
				c0.501-0.127,0.975-0.247,1.421-0.36c0.449-0.098,0.881-0.14,1.276-0.206c0.793-0.128,1.469-0.223,2.023-0.224
				C353.246,86.02,353.836,85.992,353.836,85.992z M353.836,85.992c0,0-0.589,0.031-1.694,0.091
				c-0.555,0.005-1.229,0.104-2.021,0.237c-0.396,0.068-0.825,0.114-1.273,0.214c-0.444,0.116-0.917,0.239-1.416,0.369
				c-1.974,0.569-4.358,1.452-6.743,3.068c-2.386,1.586-4.825,3.812-6.785,6.756c-1.94,2.942-3.375,6.597-3.841,10.603
				c-0.435,4.017,0.146,8.374,1.938,12.394c0.881,2.02,2.127,3.896,3.546,5.65c1.466,1.726,3.203,3.236,5.104,4.538
				c1.93,1.265,4.06,2.229,6.278,2.935c2.247,0.661,4.542,0.951,6.92,1.004c2.311-0.048,4.662-0.342,6.896-1.003
				c2.218-0.705,4.348-1.67,6.278-2.935c1.9-1.302,3.638-2.812,5.104-4.538c1.419-1.756,2.665-3.632,3.546-5.651
				c0.857-2.015,1.541-4.098,1.8-6.195c0.21-1.035,0.206-2.099,0.274-3.136c0.047-0.508-0.029-1.028-0.037-1.537
				c-0.036-0.51-0.021-1.021-0.099-1.521c-0.467-4.016-1.901-7.663-3.842-10.607c-1.959-2.944-4.399-5.17-6.785-6.756
				c-2.385-1.616-4.77-2.499-6.742-3.068c-0.5-0.13-0.973-0.253-1.417-0.369c-0.448-0.1-0.878-0.146-1.272-0.214
				c-0.791-0.133-1.466-0.232-2.021-0.237C354.426,86.023,353.836,85.992,353.836,85.992z"/>
			<path style="fill:#231F20;" d="M374.043,113.549l0.138-1.238c0.061-0.412,0.066-0.828,0.074-1.242
				c0.001-0.413,0.042-0.83,0.011-1.238l-0.086-1.243c-0.02-0.416-0.058-0.829-0.145-1.232l-0.209-1.218
				c-0.052-0.409-0.202-0.8-0.298-1.2c-0.115-0.396-0.204-0.8-0.34-1.188l-0.444-1.154c-0.139-0.388-0.299-0.768-0.498-1.129
				l-0.557-1.103c-0.188-0.365-0.433-0.699-0.646-1.051c-0.23-0.34-0.42-0.708-0.682-1.026l-0.754-0.976
				c-0.493-0.659-1.108-1.213-1.655-1.825l0.326-0.015l-5.755,6.715l-2.896,3.341c-0.481,0.556-0.969,1.113-1.426,1.678
				c-0.228,0.283-0.453,0.571-0.636,0.869c-0.191,0.289-0.335,0.624-0.27,0.852c0.072,0.227,0.394,0.412,0.716,0.536
				c0.322,0.137,0.675,0.236,1.023,0.336c0.703,0.197,1.42,0.369,2.135,0.545l4.296,1.052L374.043,113.549z M374.043,113.549
				l-8.643-1.879l-4.315-0.966c-0.719-0.161-1.439-0.318-2.16-0.505c-0.36-0.096-0.72-0.197-1.077-0.345
				c-0.338-0.146-0.769-0.306-0.966-0.796c-0.126-0.51,0.119-0.899,0.306-1.216c0.201-0.332,0.431-0.627,0.662-0.92
				c0.466-0.583,0.946-1.139,1.426-1.7l2.875-3.359l5.788-6.687l0.011-0.013c0.076-0.088,0.208-0.098,0.296-0.021l0.02,0.02
				c0.557,0.629,1.18,1.199,1.679,1.876l0.764,1.001c0.267,0.325,0.451,0.707,0.68,1.059c0.211,0.362,0.453,0.707,0.637,1.083
				l0.545,1.134c0.195,0.372,0.351,0.76,0.483,1.158l0.429,1.181c0.129,0.397,0.212,0.81,0.32,1.213
				c0.09,0.408,0.232,0.804,0.278,1.223l0.175,1.245c0.072,0.414,0.097,0.828,0.101,1.244l0.043,1.245
				c0.017,0.422-0.039,0.835-0.055,1.252c-0.023,0.416-0.044,0.831-0.118,1.24L374.043,113.549z"/>
			<path style="fill:#231F20;" d="M363.412,91.91c-0.763-0.328-1.521-0.668-2.288-0.986c-0.797-0.232-1.586-0.482-2.382-0.698
				c-0.816-0.135-1.63-0.281-2.444-0.406l-2.463-0.127l-2.485,0.179c-0.809,0.146-1.609,0.316-2.413,0.471
				c-0.785,0.241-1.565,0.504-2.349,0.751c-0.751,0.332-1.494,0.685-2.241,1.024l0.087-0.314l4.608,7.549l2.283,3.788
				c0.38,0.629,0.759,1.266,1.154,1.875c0.2,0.304,0.403,0.607,0.63,0.873c0.217,0.271,0.49,0.513,0.728,0.521
				c0.237,0.003,0.513-0.247,0.731-0.514c0.229-0.264,0.433-0.568,0.636-0.87c0.405-0.607,0.789-1.236,1.178-1.862l2.328-3.761
				L363.412,91.91z M363.412,91.91l-4.458,7.641l-2.253,3.806c-0.376,0.634-0.748,1.271-1.148,1.898
				c-0.201,0.313-0.409,0.624-0.66,0.919c-0.243,0.275-0.529,0.638-1.058,0.67c-0.522-0.039-0.817-0.392-1.061-0.668
				c-0.253-0.293-0.463-0.604-0.67-0.913c-0.411-0.624-0.79-1.253-1.177-1.883l-2.307-3.772l-4.571-7.572l-0.008-0.013
				c-0.061-0.1-0.028-0.229,0.071-0.29l0.022-0.012c0.767-0.344,1.528-0.698,2.298-1.032c0.802-0.247,1.599-0.515,2.406-0.74
				c0.83-0.145,1.659-0.302,2.487-0.433l2.489-0.129l2.512,0.178c0.823,0.144,1.64,0.329,2.457,0.491
				c0.798,0.246,1.585,0.527,2.375,0.788C361.915,91.188,362.661,91.556,363.412,91.91z"/>
			<path style="fill:#231F20;" d="M339.549,95.338c-0.54,0.63-1.15,1.205-1.632,1.881l-0.738,0.999
				c-0.256,0.324-0.437,0.702-0.658,1.051c-0.204,0.359-0.441,0.7-0.618,1.074l-0.53,1.12c-0.192,0.365-0.343,0.75-0.475,1.142
				l-0.421,1.163c-0.125,0.392-0.208,0.798-0.314,1.195c-0.087,0.402-0.23,0.792-0.271,1.204l-0.178,1.222
				c-0.075,0.406-0.099,0.816-0.107,1.229l-0.054,1.232c-0.019,0.393,0.028,0.823,0.039,1.233c0.016,0.416,0.032,0.831,0.101,1.232
				l0.161,1.216l-0.272-0.181l8.604-2.05l4.307-1c0.716-0.167,1.438-0.331,2.141-0.519c0.351-0.096,0.702-0.196,1.024-0.33
				c0.325-0.121,0.639-0.308,0.721-0.529c0.079-0.225-0.074-0.564-0.261-0.854c-0.18-0.3-0.406-0.587-0.63-0.873
				c-0.452-0.573-0.932-1.133-1.407-1.695l-2.857-3.376L339.549,95.338z M339.549,95.338l5.889,6.6l2.923,3.318
				c0.486,0.553,0.978,1.104,1.45,1.679c0.236,0.288,0.467,0.582,0.67,0.912c0.187,0.316,0.443,0.7,0.309,1.213
				c-0.199,0.483-0.625,0.655-0.963,0.801c-0.357,0.15-0.717,0.254-1.076,0.354c-0.72,0.198-1.435,0.365-2.153,0.538l-4.301,1.028
				l-8.612,2.007l-0.011,0.002c-0.115,0.027-0.231-0.045-0.258-0.161l-0.005-0.021l-0.158-1.256c-0.066-0.421-0.08-0.835-0.094-1.25
				c-0.008-0.42-0.052-0.819-0.031-1.256l0.074-1.257c0.018-0.42,0.05-0.837,0.134-1.249l0.206-1.24
				c0.051-0.417,0.204-0.812,0.301-1.22c0.115-0.402,0.208-0.812,0.343-1.207l0.451-1.172c0.141-0.395,0.301-0.779,0.503-1.147
				l0.57-1.115c0.192-0.371,0.444-0.708,0.663-1.062c0.236-0.344,0.43-0.716,0.7-1.035l0.778-0.979
				C338.358,96.5,338.986,95.949,339.549,95.338z"/>
			<path style="fill:#231F20;" d="M335.429,119.09l1.273,2.143l1.518,1.963l1.739,1.765c0.644,0.518,1.275,1.049,1.926,1.554
				c0.701,0.435,1.39,0.889,2.098,1.308c0.747,0.346,1.484,0.713,2.236,1.042c0.783,0.251,1.558,0.527,2.341,0.773l2.416,0.488
				l-0.255,0.204l0.708-8.815l0.38-4.405c0.062-0.733,0.129-1.471,0.167-2.196c0.018-0.363,0.031-0.729,0.003-1.076
				c-0.015-0.347-0.095-0.703-0.282-0.849c-0.191-0.141-0.561-0.102-0.894-0.013c-0.341,0.078-0.685,0.206-1.026,0.33
				c-0.684,0.253-1.364,0.536-2.047,0.814l-4.094,1.674L335.429,119.09z M335.429,119.09l8.097-3.561l4.059-1.755
				c0.678-0.292,1.353-0.588,2.045-0.86c0.348-0.135,0.698-0.264,1.074-0.355c0.359-0.08,0.803-0.204,1.249,0.077
				c0.401,0.338,0.433,0.797,0.468,1.164c0.032,0.386,0.02,0.76,0.005,1.133c-0.034,0.746-0.097,1.478-0.154,2.214l-0.351,4.408
				l-0.752,8.812l-0.001,0.015c-0.01,0.116-0.112,0.203-0.229,0.192l-0.025-0.003l-2.466-0.517c-0.798-0.256-1.59-0.538-2.381-0.814
				c-0.761-0.352-1.506-0.739-2.257-1.107c-0.713-0.439-1.403-0.915-2.104-1.37c-0.651-0.525-1.281-1.077-1.921-1.613
				c-0.579-0.603-1.133-1.229-1.698-1.841l-1.46-2.032L335.429,119.09z"/>
			<path style="fill:#231F20;" d="M356.749,130.345l2.431-0.548c0.785-0.266,1.56-0.559,2.337-0.835
				c0.747-0.352,1.476-0.745,2.216-1.107c0.701-0.435,1.381-0.904,2.071-1.353c0.641-0.519,1.261-1.062,1.891-1.592
				c0.569-0.594,1.122-1.205,1.684-1.805l1.46-1.987l1.213-2.146l0.114,0.306L364,115.88l-4.072-1.723
				c-0.677-0.285-1.357-0.577-2.036-0.838c-0.34-0.128-0.684-0.254-1.022-0.335c-0.335-0.094-0.698-0.127-0.896,0.005
				c-0.194,0.137-0.27,0.501-0.289,0.845c-0.031,0.349-0.017,0.714-0.004,1.077c0.029,0.729,0.088,1.464,0.142,2.199l0.327,4.41
				L356.749,130.345z M356.749,130.345l-0.884-8.801l-0.415-4.402c-0.068-0.733-0.142-1.468-0.187-2.21
				c-0.021-0.373-0.035-0.746-0.006-1.132c0.035-0.366,0.054-0.827,0.462-1.163c0.445-0.275,0.892-0.164,1.251-0.083
				c0.377,0.088,0.729,0.216,1.078,0.345c0.699,0.264,1.376,0.548,2.059,0.831l4.084,1.696l8.147,3.438l0.014,0.006
				c0.107,0.045,0.157,0.17,0.112,0.277l-0.012,0.022l-1.253,2.185l-1.513,2.012c-0.584,0.602-1.159,1.212-1.75,1.805
				c-0.652,0.526-1.293,1.066-1.953,1.578c-0.71,0.443-1.409,0.904-2.127,1.33c-0.758,0.353-1.511,0.716-2.275,1.046
				c-0.798,0.253-1.589,0.52-2.385,0.758L356.749,130.345z"/>
		</g>
	</g>
</g>
<path style="fill:none;" d="M120.306,22.002c0.263-0.074,0.525-0.151,0.789-0.224l-0.004-0.005
	C120.828,21.846,120.568,21.928,120.306,22.002z"/>
<path style="fill:none;" d="M109.893,25.384c-0.353,0.131-0.708,0.257-1.06,0.391C109.185,25.641,109.54,25.515,109.893,25.384z"/>
<path style="fill:none;" d="M208.403,17.65c-0.403-0.038-0.807-0.08-1.21-0.116C207.598,17.57,208,17.612,208.403,17.65z"/>
<path style="fill:none;" d="M113.776,24.012c-0.418,0.141-0.836,0.281-1.253,0.426C112.94,24.293,113.358,24.152,113.776,24.012z"/>
<path style="fill:none;" d="M201.635,17.072c-0.404-0.03-0.807-0.056-1.211-0.085C200.828,17.017,201.231,17.042,201.635,17.072z"/>
<path style="fill:none;" d="M128.588,19.948c1.041-0.223,2.085-0.438,3.134-0.638c-1.048,0.201-2.092,0.412-3.132,0.635
	L128.588,19.948z"/>
<path style="fill:none;" d="M117.555,22.801c-0.423,0.129-0.844,0.262-1.265,0.395C116.711,23.062,117.132,22.93,117.555,22.801z"/>
<path style="fill:none;" d="M214.439,18.278c-0.513-0.059-1.024-0.114-1.537-0.17C213.415,18.164,213.927,18.22,214.439,18.278z"/>
<path style="fill:none;" d="M195.03,16.643c0.267,0.015,0.534,0.03,0.8,0.046c-0.267-0.016-0.534-0.037-0.802-0.052L195.03,16.643z"
	/>
<path style="fill:none;" d="M184.294,16.182c0.171,0.005,0.343,0.013,0.514,0.018l0-0.002L184.294,16.182z"/>
<path style="fill:#ED2024;" d="M85.605,36.658c6.4-3.41,12.885-6.67,19.585-9.443c1.209-0.5,2.424-0.977,3.643-1.44
	c0.352-0.134,0.707-0.26,1.06-0.391c0.874-0.324,1.75-0.641,2.63-0.946c0.417-0.145,0.835-0.285,1.253-0.426
	c0.835-0.281,1.673-0.553,2.514-0.816c0.421-0.133,0.842-0.266,1.265-0.395c0.914-0.276,1.831-0.541,2.75-0.799
	c0.262-0.074,0.522-0.156,0.785-0.229l0.004,0.005c2.476-0.679,4.973-1.289,7.493-1.83l0.002-0.003
	c1.04-0.223,2.084-0.434,3.132-0.635c8.077-1.539,16.313-2.336,24.518-2.799c9.34-0.529,18.705-0.596,28.055-0.33l0.514,0.016
	l0,0.002c3.408,0.102,6.816,0.251,10.222,0.443l-0.001-0.006c0.268,0.015,0.535,0.036,0.802,0.052
	c1.532,0.09,3.063,0.189,4.594,0.299c0.404,0.029,0.807,0.055,1.211,0.085c1.854,0.139,3.707,0.293,5.558,0.462
	c0.403,0.036,0.807,0.078,1.21,0.116c1.501,0.143,3.001,0.295,4.499,0.458c0.513,0.056,1.024,0.111,1.537,0.17
	c1.861,0.212,3.722,0.434,5.578,0.679c23.091,3.045,46.866,11.639,65.84,25.789l-2.917,6.381l14.817,0.326
	c-20.567-19.664-49.46-31.34-77.406-35.025c-11.904-1.57-23.984-2.453-35.984-2.797c-9.413-0.268-18.869-0.199-28.272,0.332
	c-8.283,0.471-16.697,1.287-24.852,2.842c-9.352,1.783-18.232,4.414-27.028,8.055c-9.4,3.889-18.401,8.734-27.317,13.613
	c-1.821,0.996-3.808,2.35-5.162,3.943c-0.507,0.596-1.448,1.891-1.159,2.746c0.403,1.197,3.241,1.352,4.208,1.363l11.265,0.248
	l-0.119-0.166C74.191,42.406,78.373,40.512,85.605,36.658z"/>
<path style="fill:#ED2024;" d="M108.833,25.774c-1.219,0.464-2.434,0.94-3.643,1.44C106.399,26.715,107.614,26.238,108.833,25.774z"
	/>
<path style="fill:#ED2024;" d="M212.902,18.108c-1.498-0.163-2.998-0.315-4.499-0.458C209.904,17.793,211.404,17.945,212.902,18.108
	z"/>
<path style="fill:#ED2024;" d="M207.193,17.534c-1.852-0.169-3.704-0.323-5.558-0.462C203.489,17.211,205.342,17.365,207.193,17.534
	z"/>
<path style="fill:#ED2024;" d="M220.018,18.957c-1.856-0.245-3.717-0.467-5.578-0.679C216.301,18.49,218.16,18.712,220.018,18.957z"
	/>
<path style="fill:#ED2024;" d="M112.523,24.438c-0.88,0.306-1.756,0.622-2.63,0.946C110.767,25.06,111.643,24.743,112.523,24.438z"
	/>
<path style="fill:#ED2024;" d="M116.29,23.195c-0.84,0.264-1.678,0.535-2.514,0.816C114.612,23.73,115.45,23.459,116.29,23.195z"/>
<path style="fill:#ED2024;" d="M120.306,22.002c-0.919,0.258-1.837,0.522-2.75,0.799C118.469,22.523,119.386,22.26,120.306,22.002z"
	/>
<path style="fill:#ED2024;" d="M200.424,16.987c-1.531-0.109-3.062-0.209-4.594-0.299C197.362,16.778,198.894,16.878,200.424,16.987
	z"/>
<path style="fill:#ED2024;" d="M191.021,49.018l12.528,0.287l-8.519-32.662c-3.406-0.192-6.814-0.342-10.222-0.443L191.021,49.018z"
	/>
<g>
	<path style="fill-rule:evenodd;clip-rule:evenodd;" d="M310.074,45.901c1.055-0.57,2.109-1.219,3.579-1.326
		c5.286,1.238,6.506,7.098-4.068,5.436l-0.643,0.494c0.094-0.701,0.269-1.209,0.883-1.207
		C313.612,49.317,314.353,48.669,310.074,45.901L310.074,45.901z"/>
</g>
<g>
	<path style="fill-rule:evenodd;clip-rule:evenodd;fill:#231F20;" d="M221.034,61.455H208.51c-0.965,0-1.755,0.789-1.755,1.756l0,0
		c0,0.965,0.79,1.754,1.755,1.754h12.524c0.966,0,1.755-0.789,1.755-1.754l0,0C222.789,62.244,222,61.455,221.034,61.455
		L221.034,61.455z"/>
	<path style="fill:#231F20;" d="M221.034,61.505c-1.503-0.016-3.006,0.146-4.508,0.264c-1.503,0.139-3.006,0.163-4.509,0.103
		l-2.254-0.138l-1.127-0.073c-0.375-0.03-0.678,0.03-0.985,0.212c-0.603,0.349-0.875,1.138-0.655,1.781
		c0.189,0.665,0.886,1.085,1.514,1.038c3.006-0.19,6.011-0.258,9.017-0.26c0.751,0.019,1.503,0.018,2.254,0.052
		c0.376,0.013,0.752,0.032,1.127,0.061l0.12,0.009l0.142,0.002c0.079-0.007,0.122,0.002,0.203-0.014
		c0.146-0.02,0.294-0.062,0.43-0.133c0.563-0.264,0.928-0.964,0.782-1.652C222.457,62.062,221.771,61.503,221.034,61.505z
		 M221.034,61.405c0.778-0.017,1.534,0.507,1.815,1.272c0.302,0.76,0.037,1.749-0.69,2.283c-0.178,0.138-0.382,0.242-0.599,0.315
		c-0.1,0.038-0.244,0.066-0.351,0.083l-0.141,0.016l-0.162,0.011c-0.375,0.028-0.751,0.048-1.127,0.061
		c-0.751,0.034-1.503,0.033-2.254,0.052c-3.006-0.002-6.011-0.069-9.017-0.26c-0.888-0.028-1.633-0.69-1.852-1.485
		c-0.228-0.804,0.13-1.704,0.817-2.153c0.322-0.234,0.786-0.352,1.161-0.35l1.127-0.073l2.254-0.138
		c1.503-0.061,3.006-0.036,4.509,0.103C218.028,61.26,219.531,61.421,221.034,61.405z"/>
</g>
<g>
	<path style="fill-rule:evenodd;clip-rule:evenodd;fill:#231F20;" d="M124.704,59.947H112.18c-0.966,0-1.755,0.791-1.755,1.756l0,0
		c0,0.967,0.789,1.756,1.755,1.756h12.524c0.966,0,1.755-0.789,1.755-1.756l0,0C126.459,60.738,125.67,59.947,124.704,59.947
		L124.704,59.947z"/>
	<path style="fill:#231F20;" d="M124.704,59.997c-1.503-0.016-3.006,0.146-4.509,0.264c-1.503,0.139-3.005,0.163-4.508,0.103
		l-2.254-0.138l-1.127-0.073c-0.375-0.03-0.677,0.03-0.984,0.212c-0.603,0.35-0.875,1.139-0.655,1.783
		c0.19,0.665,0.886,1.085,1.514,1.038c3.006-0.19,6.012-0.258,9.017-0.26c0.751,0.019,1.503,0.018,2.254,0.052
		c0.376,0.013,0.751,0.032,1.127,0.061l0.12,0.009l0.141,0.002c0.079-0.007,0.123,0.001,0.204-0.014
		c0.146-0.021,0.293-0.062,0.43-0.134c0.563-0.264,0.927-0.965,0.781-1.652C126.126,60.555,125.441,59.995,124.704,59.997z
		 M124.704,59.897c0.779-0.017,1.534,0.508,1.816,1.272c0.301,0.761,0.037,1.749-0.69,2.285c-0.177,0.137-0.381,0.242-0.599,0.314
		c-0.099,0.039-0.243,0.067-0.351,0.084l-0.14,0.016l-0.162,0.011c-0.376,0.028-0.751,0.048-1.127,0.061
		c-0.751,0.034-1.503,0.033-2.254,0.052c-3.005-0.002-6.011-0.069-9.017-0.26c-0.888-0.028-1.633-0.691-1.852-1.485
		c-0.228-0.805,0.129-1.704,0.817-2.155c0.322-0.233,0.786-0.352,1.16-0.35l1.127-0.073l2.254-0.138
		c1.503-0.061,3.005-0.036,4.508,0.103C121.698,59.752,123.201,59.913,124.704,59.897z"/>
</g>
<g>
	<path style="fill-rule:evenodd;clip-rule:evenodd;fill:#FEED5E;" d="M319.168,63.57h-5.656c-0.529,0-0.961,0.541-0.961,1.203v1.906
		c0,0.662,0.432,1.203,0.961,1.203h5.656c0.529,0,0.961-0.541,0.961-1.203v-1.906C320.129,64.111,319.697,63.57,319.168,63.57
		L319.168,63.57z"/>
	<path style="fill:#231F20;" d="M319.168,63.62c-0.914-0.015-1.828,0.14-2.742,0.264c-0.914,0.139-1.829,0.163-2.743,0.103
		c-0.231-0.022-0.31-0.039-0.444,0.029c-0.132,0.063-0.255,0.197-0.34,0.359c-0.172,0.306-0.149,0.82-0.186,1.266
		c0.001,0.439-0.047,0.955,0.041,1.331c0.093,0.397,0.464,0.687,0.758,0.638c1.828-0.2,3.656-0.251,5.485-0.26
		c0.042,0.002,0.147,0.002,0.138,0.006c0.065,0,0.119-0.007,0.096-0.005c0.022-0.002,0.075-0.019,0.116-0.045
		c0.089-0.054,0.176-0.165,0.243-0.296c0.122-0.22,0.126-0.752,0.21-1.197c0.048-0.442,0.177-0.947,0.158-1.338
		C319.933,64.062,319.614,63.631,319.168,63.62z M319.168,63.521c0.509-0.006,0.901,0.429,1.057,0.893
		c0.132,0.513,0.152,0.93,0.233,1.399c0.032,0.229,0.071,0.457,0.092,0.686c0.035,0.193,0.045,0.562-0.054,0.84
		c-0.09,0.295-0.265,0.584-0.548,0.798c-0.145,0.106-0.302,0.189-0.503,0.239c-0.135,0.028-0.195,0.03-0.243,0.035l-0.205,0.006
		c-1.829-0.009-3.657-0.06-5.485-0.26c-0.661-0.054-1.001-0.631-1.089-1.109c-0.062-0.526-0.001-0.934-0.034-1.406l-0.043-0.686
		c-0.031-0.209-0.046-0.512,0.029-0.771c0.072-0.265,0.211-0.531,0.452-0.735c0.233-0.218,0.634-0.304,0.855-0.295
		c0.914-0.061,1.829-0.036,2.743,0.103C317.34,63.381,318.254,63.535,319.168,63.521z"/>
</g>
<g>
	<path d="M125,18.667c-3.209,4.833-6.256,9.772-9.157,14.794c-2.885,5.028-5.644,10.138-8.017,15.421
		c-1.178,2.644-2.263,5.332-3.1,8.094c-0.414,1.381-0.765,2.781-0.976,4.198c-0.202,1.41-0.29,2.861,0.025,4.219
		c0.159,0.676,0.43,1.308,0.861,1.836c0.45,0.569,0.908,1.116,1.383,1.662c0.947,1.088,1.936,2.142,2.938,3.186
		c2.007,2.086,4.063,4.139,6.043,6.273c3.973,4.253,7.578,8.916,10.45,14.024c1.44,2.55,2.704,5.199,3.793,7.917
		c0.562,1.34,1.01,2.788,1.546,4.045c0.555,1.282,1.269,2.488,2.119,3.587c1.702,2.202,3.978,3.922,6.505,5.121
		c2.529,1.205,5.293,1.929,8.091,2.271c0.694,0.081,1.417,0.153,2.09,0.183l2.153,0.032l4.346,0.016l8.699-0.007
		c23.204-0.033,46.41-0.271,69.615-0.246c23.207-0.018,46.413-0.129,69.62-0.023l-0.677,0.616l3.267-32.488
		c0.254-2.704,0.548-5.424,0.738-8.118c0.157-2.698,0.106-5.414-0.243-8.097c-0.347-2.682-1.006-5.328-2.041-7.832
		c-1.052-2.48-2.451-4.892-4.488-6.71c2.095,1.755,3.582,4.138,4.723,6.608c1.131,2.493,1.842,5.165,2.261,7.869
		c0.418,2.707,0.532,5.456,0.438,8.192c-0.13,2.739-0.359,5.439-0.551,8.159c-0.802,10.86-1.791,21.701-2.743,32.548
		c-0.03,0.348-0.319,0.611-0.661,0.617h-0.016c-23.205,0.323-46.412,0.41-69.618,0.566c-23.207,0.188-46.414,0.125-69.624,0.104
		l-8.705-0.034l-4.356-0.036l-2.198-0.044c-0.776-0.039-1.498-0.109-2.242-0.21c-2.95-0.404-5.863-1.207-8.558-2.537
		c-2.69-1.321-5.146-3.226-6.964-5.65c-0.909-1.208-1.664-2.529-2.242-3.918c-0.578-1.422-0.962-2.76-1.505-4.104
		c-1.033-2.681-2.238-5.296-3.618-7.816c-2.743-5.059-6.247-9.669-10.099-13.974c-1.918-2.162-3.924-4.254-5.894-6.393
		c-0.983-1.07-1.957-2.154-2.89-3.275c-0.465-0.559-0.926-1.135-1.363-1.713c-0.481-0.605-0.789-1.342-0.952-2.077
		c-0.326-1.485-0.211-2.985,0.009-4.433c0.23-1.452,0.602-2.869,1.034-4.262c0.873-2.785,1.99-5.477,3.199-8.119
		c2.433-5.281,5.24-10.372,8.2-15.363C118.616,28.359,121.729,23.459,125,18.667z"/>
</g>
<g>
	<path d="M190.333,14c2.285,8.19,4.046,16.524,5.403,24.921c1.354,8.396,2.178,16.894,2.36,25.4
		c0.5,17.002,0.779,34.004,1.07,51.007c0.005,0.276-0.215,0.504-0.491,0.509c-0.276,0.005-0.504-0.215-0.509-0.491
		c0-0.001,0-0.006,0-0.006c-0.126-17.002-0.241-34.008-0.576-51.005c-0.1-8.497-0.835-16.971-2.105-25.375
		C194.214,30.56,192.537,22.212,190.333,14z"/>
</g>
<g>
	<path style="fill:#E1E1EA;" d="M285.857,44.746c-18.974-14.15-27.202-20.276-50.107-24.496c-9.5-1.75-39.527-3.542-40.72-3.607
		l8.519,32.662l79.392,1.822L285.857,44.746z"/>
	<path style="fill:#231F20;" d="M285.857,44.746c-6.565-4.76-13.064-9.66-20.067-13.731c-3.496-2.038-7.133-3.827-10.906-5.274
		c-3.77-1.456-7.659-2.588-11.596-3.512c-1.968-0.463-3.949-0.876-5.938-1.25c-1.99-0.393-3.968-0.703-5.982-0.944
		c-4.017-0.493-8.056-0.861-12.095-1.206c-8.079-0.676-16.178-1.229-24.27-1.706l0.491-0.601l8.502,32.666l-0.438-0.346
		l19.847,0.488l19.847,0.54l19.845,0.56l19.844,0.634l-0.059,0.037L285.857,44.746z M285.857,44.746l-2.859,6.407
		c-0.011,0.023-0.035,0.037-0.06,0.037l-19.852-0.277l-19.851-0.352l-19.85-0.371l-19.849-0.423
		c-0.211-0.004-0.387-0.151-0.438-0.346l-8.535-32.658c-0.068-0.255,0.083-0.517,0.337-0.585c0.05-0.014,0.104-0.018,0.153-0.016
		c8.108,0.501,16.202,1.076,24.293,1.775c4.046,0.356,8.089,0.736,12.126,1.243c4.051,0.479,8.04,1.354,11.992,2.303
		c3.951,0.975,7.86,2.159,11.646,3.67c3.788,1.505,7.439,3.343,10.924,5.441C272.994,34.829,279.387,39.855,285.857,44.746z"/>
</g>
<g>
	<path style="fill:#E1E1EA;" d="M191.021,49.018L186.75,16c-0.171-0.005-16-1-31.511-0.488C143.339,15.904,130.041,17.777,129,18
		l-15.549,29.238L191.021,49.018z"/>
	<path style="fill:#231F20;" d="M191.021,49.018l-4.555-32.98l0.276,0.25c-9.645-0.486-19.282-0.643-28.917-0.418
		c-4.815,0.102-9.617,0.421-14.415,0.867c-4.78,0.459-9.617,0.99-14.309,1.735l0.325-0.245l-15.568,29.228l-0.396-0.677
		c12.928,0.311,25.855,0.641,38.781,1.026l19.39,0.578L191.021,49.018z M191.021,49.018l-19.396-0.254l-19.396-0.312
		c-12.93-0.207-25.859-0.471-38.788-0.753l-0.747-0.017l0.351-0.661l15.53-29.248l0.113-0.212l0.212-0.033
		c4.839-0.753,9.604-1.252,14.428-1.699c4.812-0.431,9.645-0.733,14.478-0.817c4.832-0.109,9.663-0.052,14.49,0.069
		c4.824,0.127,9.66,0.331,14.463,0.632l0.248,0.016l0.028,0.234L191.021,49.018z"/>
</g>
<g>
	<path style="fill:#E1E1EA;" d="M102.5,47l19-28.5c-5.999,1.222-19.833,5.5-33.167,16.833c-8.301,7.056-14.667,11.334-4.667,12
		L102.5,47z"/>
	<path style="fill:#231F20;" d="M102.5,47l9.307-14.379l9.386-14.326l0.381,0.566c-4.645,1.049-9.175,2.643-13.527,4.596
		c-4.357,1.953-8.515,4.328-12.478,6.984c-1.979,1.334-3.899,2.754-5.753,4.257l-5.527,4.604c-0.916,0.771-1.824,1.548-2.693,2.355
		c-0.853,0.812-1.724,1.649-2.307,2.592c-0.285,0.468-0.442,0.979-0.259,1.328c0.175,0.371,0.688,0.649,1.211,0.83
		c1.075,0.36,2.271,0.492,3.449,0.589l-0.028-0.001l9.419-0.035L102.5,47z M102.5,47l-9.413,0.373l-9.415,0.298h-0.012l-0.017-0.001
		c-1.21-0.079-2.427-0.181-3.642-0.56c-0.584-0.209-1.266-0.468-1.666-1.186c-0.19-0.355-0.206-0.787-0.127-1.134
		c0.075-0.357,0.219-0.664,0.38-0.947c0.664-1.119,1.548-1.966,2.422-2.81c0.884-0.831,1.796-1.621,2.712-2.401l5.509-4.648
		c1.863-1.535,3.796-2.986,5.788-4.351c3.981-2.737,8.243-5.053,12.653-7.013c4.42-1.934,8.998-3.554,13.753-4.482l0.882-0.173
		l-0.501,0.739l-9.614,14.174L102.5,47z"/>
</g>
<g>
	<g>
		<path style="fill-rule:evenodd;clip-rule:evenodd;fill:#ED2024;" d="M275.324,42.121c-0.396,2.01-0.629,4.44-0.45,6.803
			c0.276,3.639,4.05,3.818,6.276,3.506c2.209-0.311,4.021-0.962,5.926-2.273c0.956,0.706,1.719,1.952,2.87,2.118
			c0.985-0.499,1.757-1.266,2.133-2.521c1.211-4.031-1.738-3.632-3.874-3.632c-0.595-4.657-3.329-8.986-7.342-9.253
			C277.57,36.648,276.033,38.515,275.324,42.121L275.324,42.121z"/>
		<path style="fill:#231F20;" d="M275.324,42.121c-0.32,1.757-0.518,3.544-0.464,5.33c0.04,0.885,0.023,1.806,0.345,2.62
			c0.316,0.819,0.979,1.456,1.773,1.788c1.614,0.667,3.45,0.492,5.143,0.101c1.717-0.38,3.301-1.139,4.71-2.159l0.245-0.178
			l0.257,0.186c0.542,0.395,0.956,0.856,1.384,1.24c0.424,0.387,0.862,0.69,1.298,0.749l-0.286,0.047
			c0.704-0.357,1.271-0.885,1.608-1.566c0.178-0.34,0.277-0.7,0.386-1.116c0.093-0.377,0.156-0.78,0.144-1.14
			c-0.01-0.75-0.402-1.17-1.176-1.331c-0.747-0.168-1.608-0.124-2.485-0.138l-0.388-0.006l-0.041-0.371
			c-0.188-1.714-0.641-3.418-1.438-4.958c-0.791-1.528-1.951-2.929-3.519-3.693c-0.776-0.387-1.643-0.571-2.522-0.585
			c-0.873-0.017-1.768,0.162-2.512,0.637c-0.752,0.466-1.3,1.208-1.67,2.009C275.739,40.39,275.501,41.252,275.324,42.121z
			 M275.324,42.121c0.336-1.706,0.903-3.561,2.414-4.615c0.746-0.513,1.663-0.715,2.558-0.742c0.896-0.034,1.817,0.109,2.654,0.474
			c1.693,0.718,2.996,2.132,3.909,3.692c0.917,1.575,1.507,3.332,1.774,5.138l-0.429-0.377c0.846-0.009,1.729-0.1,2.684,0.077
			c0.469,0.091,0.997,0.284,1.394,0.716c0.396,0.43,0.55,1.006,0.564,1.497c0.02,0.506-0.053,0.964-0.16,1.427
			c-0.1,0.42-0.238,0.897-0.467,1.323c-0.438,0.872-1.214,1.564-2.056,1.974l-0.143,0.069l-0.145-0.022
			c-0.778-0.119-1.341-0.604-1.788-1.03c-0.453-0.438-0.841-0.889-1.27-1.217l0.502,0.008c-1.524,1.023-3.283,1.729-5.08,2.033
			c-1.771,0.311-3.704,0.406-5.397-0.398c-0.837-0.4-1.521-1.138-1.805-2.014c-0.294-0.88-0.253-1.79-0.264-2.682
			C274.796,45.661,274.973,43.875,275.324,42.121z"/>
	</g>
	<path style="fill-rule:evenodd;clip-rule:evenodd;fill:#333333;" d="M287.869,50.864c0.635,0.628,1.258,1.292,2.077,1.41
		c0.985-0.499,1.757-1.266,2.133-2.521c1.043-3.47-0.999-3.658-2.951-3.643v0.002c0.524,0.446,0.839,1.003,0.85,1.716
		C289.562,49.304,288.991,50.142,287.869,50.864L287.869,50.864z"/>
</g>
<g>
	<path style="fill:#FEEE00;" d="M419.226,80.131c2.038,7.405,0.475,11.82-3.98,13.047c-4.458,1.227-8.275-0.856-8.912-8.511
		c-0.666-8-0.465-16.605,0.667-16.667C411.616,67.749,417.188,72.724,419.226,80.131z"/>
	<path style="fill:#231F20;" d="M419.273,80.118c0.384,1.304,0.697,2.639,0.868,3.997c0.192,1.354,0.255,2.749,0.014,4.134
		c-0.238,1.371-0.814,2.778-1.896,3.788c-1.06,1.019-2.471,1.612-3.867,1.847c-1.399,0.251-2.963,0.181-4.296-0.531
		c-1.341-0.693-2.307-1.909-2.903-3.197c-1.226-2.615-1.267-5.461-1.426-8.152c-0.133-2.726-0.186-5.454-0.093-8.185
		c0.053-1.366,0.127-2.731,0.343-4.099c0.058-0.343,0.124-0.685,0.227-1.029c0.054-0.172,0.111-0.345,0.209-0.522
		c0.047-0.088,0.106-0.18,0.202-0.27c0.047-0.044,0.11-0.089,0.19-0.118c0.081-0.032,0.186-0.032,0.207-0.03
		c0.682-0.019,1.415,0.078,2.078,0.261c2.713,0.762,4.879,2.676,6.546,4.812C417.335,74.996,418.544,77.492,419.273,80.118z
		 M419.178,80.144c-0.722-2.611-1.923-5.112-3.645-7.207c-1.703-2.071-3.914-3.867-6.509-4.506
		c-0.654-0.152-1.285-0.221-1.962-0.183c-0.066-0.067-0.254,0.299-0.322,0.588c-0.086,0.31-0.145,0.637-0.193,0.966
		c-0.187,1.323-0.237,2.682-0.265,4.032c-0.044,2.707,0.056,5.421,0.236,8.125c0.1,1.348,0.184,2.715,0.385,4.024
		c0.219,1.31,0.555,2.604,1.137,3.758c0.577,1.149,1.423,2.148,2.524,2.7c1.1,0.548,2.395,0.665,3.658,0.446
		c1.271-0.22,2.508-0.639,3.455-1.484c0.945-0.83,1.601-1.993,1.917-3.274C420.245,85.543,419.841,82.756,419.178,80.144z"/>
</g>
<path style="fill:#F14F52;" d="M80.959,68.912c-0.76,0.049-1.521,0.237-2.309,0.383c-29.661,5.479-30.656,33.378-30.656,33.378
	s4.629-23.867,30.646-28.813c0.875-0.165,1.734-0.311,2.571-0.434c24.043-3.517,32.415,10.523,32.415,10.523
	S105.667,67.333,80.959,68.912z"/>
<g>
	<g>
		<path style="fill-rule:evenodd;clip-rule:evenodd;fill:#E9C02B;" d="M7.333,99c-1.012-7.727-2.07-27.038,4.333-30.666
			c0.677-0.384,3.362,3.99,7.667,4c0.687,0,1,16.666-0.588,24.99l-9.489,1.621L7.333,99z"/>
		<path style="fill:#231F20;" d="M7.284,99.006c-0.96-5.434-1.278-10.979-1.029-16.513c0.169-2.762,0.505-5.543,1.329-8.217
			c0.414-1.332,0.932-2.649,1.707-3.831c0.388-0.588,0.838-1.141,1.369-1.613c0.271-0.23,0.556-0.446,0.868-0.621
			c0.034-0.017,0.006-0.01,0.09-0.047l0.062-0.019c0.082-0.015,0.19-0.003,0.23,0.017c0.114,0.034,0.193,0.087,0.273,0.138
			c0.155,0.105,0.291,0.219,0.422,0.334c1.017,0.941,2.046,1.842,3.229,2.506c0.592,0.324,1.221,0.575,1.868,0.729
			c0.322,0.08,0.65,0.13,0.979,0.156c0.165,0.013,0.329,0.021,0.493,0.017h0.124h0.031c-0.015-0.004,0.187,0.03,0.108,0.019
			l0.015,0.006c0.028-0.005,0.194,0.129,0.199,0.169c0.083,0.145,0.094,0.225,0.126,0.324c0.292,1.428,0.329,2.782,0.417,4.17
			c0.069,1.381,0.095,2.761,0.11,4.142c0.028,2.76-0.025,5.521-0.177,8.28c-0.158,2.76-0.375,5.52-0.869,8.271
			c-0.039,0.215-0.205,0.374-0.407,0.414l-0.018,0.003c-0.788,0.152-1.583,0.264-2.374,0.397c-0.793,0.123-1.581,0.271-2.379,0.364
			c-1.59,0.22-3.185,0.413-4.786,0.569l-0.032,0.003L7.335,99.05C7.31,99.05,7.289,99.029,7.284,99.006z M7.381,98.944l1.869-0.227
			l-0.032,0.003c1.562-0.385,3.13-0.73,4.703-1.052c0.784-0.178,1.577-0.299,2.365-0.446c0.791-0.137,1.577-0.296,2.371-0.413
			l-0.425,0.417c0.975-5.35,1.145-10.881,1.255-16.357c0.017-1.372,0.007-2.745-0.018-4.115c-0.04-1.356-0.049-2.771-0.271-4.05
			c-0.015-0.064-0.043-0.154-0.048-0.159c-0.019,0.006,0.121,0.101,0.113,0.076l-0.015-0.006c-0.088-0.016,0.104,0.015,0.078,0.012
			l-0.034-0.003l-0.135-0.009c-0.18-0.007-0.358-0.029-0.536-0.053c-0.355-0.05-0.706-0.125-1.046-0.23
			c-0.684-0.201-1.323-0.515-1.925-0.872c-1.223-0.698-2.219-1.698-3.256-2.578c-0.13-0.108-0.263-0.211-0.396-0.295
			c-0.064-0.04-0.135-0.079-0.187-0.091c-0.041-0.014-0.021,0-0.024-0.017L11.728,68.5c0.045-0.02-0.018,0.014-0.021,0.018
			c-0.286,0.168-0.547,0.375-0.795,0.596c-0.492,0.449-0.903,0.987-1.235,1.571c-0.678,1.163-1.108,2.462-1.443,3.772
			c-0.635,2.641-0.926,5.362-1.096,8.089C6.789,87.989,6.997,93.472,7.381,98.944z"/>
	</g>
	<path style="fill-rule:evenodd;clip-rule:evenodd;fill:#E0E31C;" d="M11.333,70c-2.612-2.177-4,13-4,13s10.59,7.042,11,4.334
		c0.678-4.479-0.074-13.694-0.074-13.694S13.333,71.667,11.333,70z"/>
</g>
</svg>
