<?xml version="1.0" encoding="iso-8859-1"?>
<!-- Generator: Adobe Illustrator 16.0.0, SVG Export Plug-In . SVG Version: 6.00 Build 0)  -->
<!DOCTYPE svg PUBLIC "-//W3C//DTD SVG 1.1//EN" "http://www.w3.org/Graphics/SVG/1.1/DTD/svg11.dtd">
<svg version="1.1" id="Layer_1" xmlns="http://www.w3.org/2000/svg" xmlns:xlink="http://www.w3.org/1999/xlink" x="0px" y="0px"
	 width="450px" height="119px" viewBox="0 0 450 119" style="enable-background:new 0 0 450 119;" xml:space="preserve">
<polygon style="fill:#545456;stroke:#000000;" points="413.93,95.721 357.668,96.254 115.807,97.643 60.908,97.735 49.129,51.891 
	155.483,51.78 360.548,46.262 405.821,50.234 422.574,63.148 "/>
<path style="fill:#00C3FF;stroke:#000000;" d="M106.672,6.311c39.227-1.798,79.689,0.048,119.083,1.085
	c5.822,0.604,8.898,3.767,10.49,5.795h-7.786c0,0,20.911,20.851,32.927,28.659c7.624,4.955,12.337-0.708,14.024,1.898l7.237,0.374
	c0,0,142.877,0.012,153.321,6.222c1.609,0.968,2.973,2.164,4.674,3.224c0.047,0.077,0.033,0.096,0.033,0.096l2.711,0.191
	c4.382,3.712-9.982,28.774-11.119,34.764c-2.924,3.604-5.812,6.113-8.041,6.525c-0.057,0.22-3.776,0.432-10.371,0.623
	c1.15-3.194,1.771-6.639,1.771-10.228c0-16.68-13.537-30.217-30.218-30.217s-30.218,13.537-30.218,30.217
	c0,3.91,0.753,7.643,2.106,11.072c-66.307,0.656-166.684,1.045-241.245,1.261c1.688-3.767,2.632-7.939,2.632-12.333
	c0.001-16.68-13.537-30.217-30.218-30.217c-16.68,0-30.217,13.537-30.217,30.217c0,4.449,0.967,8.673,2.695,12.477
	c-22.312,0.05-39.308,0.08-40.571,0.08c-9.227-3.61-10.577-32.03-11.535-41.96c0.749-6.054,4.372-8.902,4.372-8.902l65.062-3.111
	c0,0,16.348-23.956,21.905-31.765C103.998,6.988,105.871,6.249,106.672,6.311z"/>
<path style="fill:#0096DB;" d="M367.285,47.835c32.553,0.483,61.806,1.279,67.043,2.832c6.566,2.712,5.332,5.333,1.434,5.199
	h-35.547c-4.375-1.413-6.898-2.797-14.806-3.223c-5.749-0.31-10.43,1.81-14.806,3.223h-267.33c-4.376-1.413-4.946-3.25-14.807-3.223
	c-8.473,0.024-10.43,1.81-14.805,3.223H9.994c0-3.532,0.666-4.532,2.333-6.532l43.593-1.499H367.285z"/>
<path style="fill:#E1E1EA;stroke:#231F20;" d="M273.854,44.637c-0.466,0-39.783-31.446-39.783-31.446h-8.99l35.838,31.446H273.854z"
	/>
<g>
	<path style="fill:#231F20;" d="M260.089,44.636c0.148,8.699,0.319,17.397,0.414,26.096l0.283,26.097
		c0.003,0.227-0.179,0.412-0.405,0.414l-0.003,0l-14.506,0.136l-14.506,0.066l-29.014,0.013c-9.671,0.01-19.342,0.027-29.013,0.129
		l-29.011,0.305c-0.155,0.001-0.281-0.123-0.283-0.277v-0.004l-0.196-43.225l-0.053-21.612l0.019-21.612
		c0-0.283,0.23-0.512,0.513-0.512h0.002c12.833,0.071,25.667,0.255,38.5,0.4c12.833,0.16,25.667,0.277,38.499,0.515
		c0.013,0,0.027,0.003,0.038,0.007l3.734,1.571c0.025,0.011,0.037,0.04,0.026,0.065c-0.01,0.025-0.039,0.037-0.064,0.027
		l-3.772-1.476l0.037,0.007c-12.834,0.069-25.668,0.018-38.502,0.01c-12.834-0.023-25.668-0.007-38.502-0.104l0.515-0.512
		l0.019,21.612l-0.053,21.612l-0.196,43.225l-0.283-0.281l29.013-0.085c9.671-0.027,19.341-0.141,29.012-0.26l29.011-0.377
		l14.506-0.128l14.506-0.059l-0.408,0.414l-0.053-26.098c-0.017-8.7,0.042-17.399,0.078-26.099c0-0.028,0.022-0.05,0.05-0.05
		C260.066,44.587,260.089,44.609,260.089,44.636z"/>
</g>
<g>
	<path style="fill:#E1E1EA;" d="M142.191,17.999l0.131,18.779c-0.637,5.792,1.41,8.011-2.5,7.786
		c-13.292,0.081-26.584,0.072-39.875,0.072c-4.014,0-0.543,0-0.485,0c0.057,0-2.234,0.077-1.108-2.869l11.178-26.716
		c1.098-2.946,1.826-1.848,1.826-1.848h1.566h13.818h12.797C142.518,13.093,142.026,16.135,142.191,17.999z"/>
	<path style="fill:#231F20;" d="M142.241,17.997c0.055,3.13,0.066,6.262,0.157,9.391l0.26,9.388l-0.001,0.025l-0.001,0.014
		c-0.167,1.823-0.062,3.613,0.056,5.486c0.009,0.475,0.04,0.963-0.134,1.521c-0.087,0.275-0.271,0.572-0.531,0.766
		c-0.258,0.197-0.542,0.288-0.804,0.346c-0.517,0.112-1.047,0.094-1.468,0.08l-1.385,0c-3.694,0.003-7.388,0.004-11.083-0.065
		c-7.39-0.111-14.778-0.207-22.167-0.131l-5.542,0.062l-1.385,0.018L98.04,44.9h-0.021c-0.009-1.055,0.01-0.292,0.014-0.528l0.043,0
		l0.087-0.001l0.346-0.005l0.693-0.01l0.173-0.003l0.087-0.001c0.715,0.583-0.225,0.581-0.023,0.569l-0.028,0l-0.052-0.002
		c-0.137-0.008-0.268-0.03-0.398-0.064c-0.26-0.068-0.52-0.194-0.732-0.393c-0.442-0.409-0.539-1.031-0.495-1.527
		c0.043-0.514,0.183-0.982,0.363-1.437l0.515-1.286l1.041-2.568l2.088-5.133l4.219-10.249l2.128-5.116l1.062-2.543
		c0.188-0.458,0.38-0.896,0.684-1.342c0.16-0.218,0.328-0.452,0.67-0.645c0.17-0.092,0.426-0.163,0.686-0.103
		c0.266,0.071,0.432,0.186,0.597,0.408l-0.428-0.229c2.877,0.014,5.754-0.007,8.631,0.047c2.877,0.037,5.754,0.073,8.631,0.148
		l8.631,0.185l2.158,0.03c0.7-0.032,1.541,0.092,2.048,0.682c0.506,0.577,0.632,1.345,0.698,2.055
		C142.216,16.56,142.189,17.284,142.241,17.997z M142.142,18.001c-0.065-0.721-0.05-1.44-0.122-2.151
		c-0.075-0.7-0.219-1.438-0.689-1.952c-0.475-0.526-1.213-0.631-1.921-0.591l-2.158,0.03l-8.631,0.185
		c-2.877,0.075-5.754,0.111-8.631,0.148c-2.877,0.054-5.754,0.034-8.631,0.047l-0.428-0.229c-0.02,0.036,0.108,0.022,0.053,0.038
		c-0.064,0.031-0.199,0.167-0.303,0.324c-0.218,0.318-0.404,0.729-0.563,1.125l-1.062,2.575l-2.149,5.107l-4.336,10.199
		l-2.189,5.091l-1.098,2.544c-0.349,0.861-0.824,1.681-0.909,2.498c-0.045,0.407,0.024,0.796,0.271,1.037
		c0.122,0.122,0.286,0.212,0.47,0.267c0.091,0.027,0.189,0.047,0.283,0.055l0.034,0.003l0.016,0
		c0.213-0.012-0.703-0.013,0.014,0.569l-0.087-0.001l-0.173-0.003l-0.693-0.01l-0.346-0.005l-0.087-0.001l-0.043,0
		c-0.004-0.235-0.022,0.527-0.014-0.528h0.021l0.173,0.002l1.385,0.018l5.542,0.062c7.388,0.076,14.777-0.025,22.164-0.174
		c3.693-0.078,7.388-0.128,11.082-0.153l1.385-0.013c0.499,0.021,0.902,0.039,1.292-0.037c0.395-0.08,0.603-0.214,0.712-0.531
		c0.115-0.325,0.121-0.781,0.115-1.224c-0.079-1.812-0.172-3.728,0.099-5.582l-0.002,0.039l0.129-9.391
		C142.163,24.259,142.13,21.131,142.142,18.001z"/>
</g>
<g>
	<path style="fill:#E1E1EA;" d="M255.38,42.705l-28.131-25.737l-4.552-3.777h-2.575h-69.477c-1.815,0.266-4.229-0.363-3.454,3.777
		l0.281,24.913c0.078,1.66-0.412,3.693,3.043,2.756l104.811,0.556C256.639,44.855,258.152,44.595,255.38,42.705z"/>
	<path style="fill:#231F20;" d="M255.346,42.742l-8.153-7.401l-8.191-7.359l-8.208-7.341c-1.367-1.212-2.738-2.473-4.103-3.644
		l-4.255-3.494l0.26,0.094c-6.004,0.048-12.009,0.044-18.013,0.017c-6.004,0-12.009-0.089-18.013-0.13l-18.013-0.12
		c-6.004-0.042-12.008,0.002-18.013,0.03l0.029-0.002c-0.549,0.081-1.088,0.086-1.604,0.147c-0.511,0.061-1.015,0.187-1.338,0.513
		c-0.324,0.326-0.439,0.827-0.459,1.33c-0.014,0.508,0.05,1.028,0.148,1.543l0.004,0.041l0.256,15.168l0.137,7.584
		c0.031,1.24,0.023,2.579,0.1,3.747c0.075,0.592,0.286,0.91,0.793,0.975c0.505,0.074,1.117-0.054,1.694-0.209
		c0.037-0.01,0.077-0.015,0.113-0.015l26.203,0.042l26.203,0.152c8.734,0.066,17.468,0.181,26.201,0.343
		c8.734,0.153,17.467,0.308,26.201,0.371l-0.018,0.002c0.344-0.087,0.689-0.163,1.015-0.284c0.313-0.106,0.668-0.34,0.523-0.673
		c-0.125-0.308-0.396-0.555-0.653-0.785c-0.268-0.228-0.552-0.436-0.842-0.637C255.35,42.745,255.348,42.743,255.346,42.742z
		 M255.412,42.667c0.292,0.198,0.58,0.405,0.852,0.633c0.266,0.235,0.546,0.475,0.695,0.828c0.074,0.176,0.039,0.421-0.113,0.553
		c-0.139,0.136-0.309,0.215-0.477,0.281c-0.338,0.129-0.685,0.208-1.025,0.298l-0.018,0.002c-8.735-0.03-17.47,0.032-26.204,0.093
		c-8.735,0.069-17.47,0.091-26.204,0.065l-26.203-0.126l-26.202-0.236l0.112-0.015c-0.639,0.155-1.294,0.313-2.049,0.202
		c-0.369-0.053-0.801-0.249-1.062-0.604c-0.261-0.35-0.342-0.738-0.383-1.08c-0.072-1.355-0.038-2.549-0.055-3.835l-0.035-7.585
		l-0.086-15.17l0.004,0.04c-0.097-0.537-0.161-1.085-0.141-1.648c0.028-0.551,0.156-1.173,0.603-1.621
		c0.453-0.44,1.062-0.561,1.599-0.623c0.547-0.059,1.083-0.06,1.593-0.13l0.03-0.002c6.004,0.028,12.009,0.072,18.013,0.03
		l18.013-0.12c6.004-0.041,12.009-0.129,18.013-0.13c6.004-0.027,12.008-0.031,18.013,0.017h0.005
		c0.097,0.001,0.186,0.036,0.255,0.094l4.219,3.538c1.395,1.246,2.695,2.506,4.047,3.759l8.04,7.524l8.057,7.506L255.412,42.667z"/>
</g>
<g>
	<path style="fill:#9FA1A0;" d="M444.077,73.89l-24.646,0.092c-0.93,0-1.678,0.581-1.678,1.303v13.06
		c0,0.722,0.748,1.303,1.678,1.303l21.652-0.09c0.931,0,1.679-0.581,1.679-1.303l2.993-13.062
		C445.756,74.471,445.007,73.89,444.077,73.89z"/>
	<path d="M444.077,73.939c-5.534-0.013-11.066,0.455-16.601,0.46l-4.151-0.021c-1.37-0.023-2.796-0.079-4.121-0.083
		c-0.571,0.035-1.188,0.427-1.208,0.974c-0.019,0.684-0.047,1.381-0.049,2.071l-0.04,4.151l0.035,4.15l0.048,2.076
		c0.021,0.329-0.021,0.748,0.085,0.927c0.107,0.243,0.339,0.438,0.606,0.552c0.275,0.12,0.555,0.153,0.887,0.135l1.037-0.032
		l2.075-0.056l4.15-0.085l8.301-0.108l4.15-0.001c0.668-0.007,1.438,0.014,2.021-0.015c0.517-0.049,0.977-0.425,0.976-0.782v-0.059
		l0.013-0.05c0.543-2.167,1.097-4.331,1.694-6.485c0.576-2.159,1.171-4.314,1.703-6.483l-0.002,0.016
		c0.005-0.371-0.223-0.716-0.532-0.927C444.844,74.049,444.459,73.945,444.077,73.939z M444.077,73.84
		c0.399,0,0.807,0.1,1.145,0.327c0.336,0.221,0.601,0.599,0.604,1.025V75.2l-0.002,0.008c-0.466,2.185-0.868,4.383-1.29,6.578
		c-0.4,2.199-0.844,4.389-1.299,6.576l0.013-0.108c0.013,0.518-0.267,1-0.623,1.28c-0.359,0.292-0.771,0.45-1.209,0.506
		c-0.798,0.047-1.413,0.022-2.128,0.037l-4.15,0.033l-8.302-0.04l-4.151-0.051l-2.075-0.039l-1.038-0.023
		c-0.357,0.003-0.782-0.061-1.133-0.244c-0.354-0.177-0.683-0.466-0.842-0.868c-0.165-0.473-0.059-0.772-0.078-1.126l0.048-2.076
		l0.035-4.15l-0.04-4.151l-0.047-2.079c-0.008-0.434,0.229-0.84,0.54-1.095c0.315-0.26,0.689-0.414,1.091-0.469
		c1.439-0.077,2.782-0.097,4.178-0.145l4.15-0.052C433.007,73.468,438.543,73.895,444.077,73.84z"/>
</g>
<g>
	<path style="fill:#9FA1A0;" d="M6.916,73.89l24.646,0.092c0.929,0,1.678,0.581,1.678,1.303v13.06c0,0.722-0.749,1.303-1.678,1.303
		l-21.653-0.09c-0.93,0-1.679-0.581-1.679-1.303L5.238,75.192C5.238,74.471,5.986,73.89,6.916,73.89z"/>
	<path d="M6.916,73.84c5.534,0.055,11.07-0.372,16.604-0.337l4.15,0.052c1.396,0.047,2.739,0.067,4.178,0.145
		c0.402,0.055,0.775,0.209,1.091,0.469c0.312,0.254,0.548,0.661,0.541,1.094l-0.047,2.08l-0.04,4.151l0.036,4.15l0.047,2.076
		c-0.02,0.354,0.087,0.654-0.078,1.126c-0.159,0.403-0.488,0.691-0.842,0.868c-0.35,0.183-0.775,0.247-1.133,0.244l-1.038,0.023
		L28.31,90.02l-4.151,0.051l-8.301,0.04l-4.151-0.033c-0.716-0.015-1.33,0.01-2.129-0.037c-0.438-0.056-0.849-0.213-1.208-0.506
		c-0.356-0.28-0.636-0.762-0.623-1.28l0.012,0.108c-0.454-2.187-0.897-4.376-1.298-6.576c-0.421-2.195-0.824-4.394-1.29-6.578
		L5.169,75.2v-0.007c0.002-0.426,0.267-0.805,0.603-1.025C6.11,73.94,6.517,73.839,6.916,73.84z M6.916,73.939
		c-0.382,0.006-0.766,0.109-1.077,0.326c-0.31,0.211-0.537,0.557-0.531,0.927l-0.001-0.016c0.531,2.169,1.126,4.324,1.703,6.483
		c0.597,2.155,1.15,4.319,1.693,6.485l0.013,0.05v0.059c-0.001,0.356,0.459,0.732,0.976,0.782c0.582,0.029,1.353,0.008,2.021,0.015
		l4.15,0.001l8.301,0.108l4.15,0.085l2.075,0.056l1.038,0.031c0.332,0.018,0.611-0.015,0.887-0.135
		c0.268-0.114,0.499-0.31,0.606-0.552c0.106-0.179,0.065-0.598,0.085-0.927l0.047-2.076l0.036-4.15l-0.04-4.151
		c-0.002-0.69-0.03-1.388-0.05-2.071c-0.02-0.547-0.637-0.939-1.208-0.974c-1.325,0.004-2.751,0.06-4.122,0.083L23.517,74.4
		C17.983,74.394,12.45,73.926,6.916,73.939z"/>
</g>
<path style="fill:#FFFF3E;stroke:#000000;" d="M438.798,58.588l-4.733,13.505c0,0,0.487,0.863-2.528,0.863s-13.05,0.031-13.05,0.031
	s-1.934,0.016-0.474-2.635c1.46-2.651,3.395-13.192,4.138-13.679c0.744-0.486,8.236-0.078,9.697-0.078
	C433.308,56.596,438.825,55.466,438.798,58.588z"/>
<path style="fill:#EDA141;" d="M425.171,57c2.455,0.001,5.657,0.149,6.552,0.149c0.295,0,0.781-0.044,1.329-0.089
	c-1.643,5.302-3.127,10-4.847,15.411c-4.013,0.008-9.586,0.015-9.586,0.015s-1.885,0.018-0.453-2.464
	c1.432-2.48,3.32-12.342,4.05-12.797C422.488,57.053,423.697,56.999,425.171,57z"/>
<g>
	<path style="fill:#D40000;" d="M28.303,57.045c0.929,0,1.676,0.556,1.676,1.244v12.157c0,0.689-0.747,1.245-1.676,1.245H10.339
		c-0.712-5.773-1.097-11.09-1.42-14.646H28.303z"/>
	<path style="fill:#231F20;" d="M28.304,56.995c0.706-0.01,1.57,0.347,1.733,1.149l0.074,2.18l0.185,4.342
		c0.067,1.447,0.114,2.895,0.124,4.342l0.005,1.085c-0.008,0.173,0.013,0.356-0.033,0.614c-0.06,0.29-0.184,0.5-0.344,0.689
		c-0.323,0.367-0.747,0.562-1.168,0.656c-0.208,0.047-0.438,0.059-0.631,0.057l-0.542-0.005c-2.895-0.07-5.789-0.234-8.684-0.243
		c-2.895-0.044-5.789,0.028-8.684,0.114c-0.139,0.004-0.257-0.096-0.279-0.23l-0.003-0.019c-0.779-4.854-1.208-9.759-1.669-14.633
		c-0.028-0.292,0.187-0.551,0.479-0.579c0.016-0.001,0.037-0.002,0.052-0.002c3.23-0.015,6.461,0.036,9.692,0.153l4.846,0.218
		C25.072,56.965,26.688,56.98,28.304,56.995z M28.302,57.095c-1.615,0.015-3.229,0.03-4.845,0.112l-4.846,0.218
		c-3.23,0.117-6.461,0.168-9.692,0.153l0.531-0.582c0.217,2.449,0.363,4.895,0.567,7.336l0.604,7.324l-0.282-0.249
		c2.895,0.086,5.789,0.158,8.684,0.114c2.895-0.009,5.789-0.173,8.684-0.243l0.542-0.005c0.168-0.004,0.302-0.014,0.447-0.049
		c0.28-0.067,0.539-0.208,0.69-0.393c0.075-0.085,0.125-0.204,0.137-0.27c0.022-0.099,0.008-0.28,0.009-0.468l0.005-1.085
		c0.009-1.447,0.056-2.895,0.124-4.342l0.185-4.342c0.032-0.719,0.053-1.458,0.054-2.161C29.79,57.461,28.987,57.091,28.302,57.095z
		"/>
</g>
<circle cx="386.372" cy="85.359" r="26.962"/>
<circle style="fill:#757277;" cx="386.372" cy="85.359" r="19.161"/>
<circle style="fill:#919396;" cx="386.372" cy="85.359" r="18.249"/>
<path style="fill:#DDD8DC;" d="M391.516,67.854c2.826,0.83,5.362,2.322,7.438,4.302c0,0-6.694,6.236-5.149,8.912
	c1.543,2.676,10.3,0,10.3,0c0.333,1.378,0.515,2.814,0.515,4.293c0,1.479-0.182,2.916-0.515,4.294c0,0-8.756-2.675-10.3,0
	c-1.545,2.674,5.141,8.912,5.141,8.912c-2.074,1.977-4.605,3.473-7.43,4.302c0,0-2.06-8.921-5.149-8.921
	c-3.091,0-5.15,8.921-5.15,8.921c-2.821-0.831-5.356-2.333-7.43-4.311c0,0,6.685-6.23,5.142-8.903s-10.292,0-10.292,0
	c-0.333-1.378-0.515-2.814-0.515-4.294c0-1.479,0.182-2.915,0.515-4.293c0,0,8.748,2.674,10.292,0
	c1.544-2.673-5.142-8.912-5.142-8.912c2.072-1.976,4.61-3.471,7.43-4.302c0,0,2.06,8.921,5.15,8.921
	C389.456,76.774,391.516,67.854,391.516,67.854z"/>
<circle cx="87.196" cy="85.359" r="26.962"/>
<circle style="fill:#757277;" cx="87.196" cy="85.359" r="19.161"/>
<circle style="fill:#919396;" cx="87.196" cy="85.359" r="18.249"/>
<path style="fill:#DDD8DC;" d="M92.34,67.854c2.826,0.83,5.363,2.322,7.439,4.302c0,0-6.695,6.236-5.15,8.912
	c1.543,2.676,10.3,0,10.3,0c0.333,1.378,0.515,2.814,0.515,4.293c0,1.479-0.182,2.916-0.515,4.294c0,0-8.755-2.675-10.3,0
	c-1.545,2.674,5.141,8.912,5.141,8.912c-2.074,1.977-4.605,3.473-7.43,4.302c0,0-2.059-8.921-5.149-8.921s-5.15,8.921-5.15,8.921
	c-2.821-0.831-5.356-2.333-7.43-4.311c0,0,6.685-6.23,5.142-8.903s-10.292,0-10.292,0c-0.333-1.378-0.514-2.814-0.514-4.294
	c0-1.479,0.181-2.915,0.514-4.293c0,0,8.748,2.674,10.292,0c1.544-2.673-5.142-8.912-5.142-8.912c2.073-1.976,4.61-3.471,7.43-4.302
	c0,0,2.06,8.921,5.15,8.921S92.34,67.854,92.34,67.854z"/>
<path style="fill:#C6CCC9;" d="M420.332,74.315l23.179-0.092c0.874,0,1.578,0.581,1.578,1.303L443.047,85h-23.91
	c-0.129,0-0.256-0.014-0.383-0.033v-9.35C418.754,74.896,419.457,74.315,420.332,74.315z"/>
<path style="fill:#C6CCC9;" d="M30.842,74.315L7.668,74.223c-0.875,0-1.578,0.581-1.578,1.303L8.131,85h23.907
	c0.129,0,0.256-0.014,0.382-0.033v-9.35C32.42,74.896,31.717,74.315,30.842,74.315z"/>
<g>
	<path style="fill-rule:evenodd;clip-rule:evenodd;fill:#231F20;" d="M150.957,54.614h12.524c0.966,0,1.755,0.791,1.755,1.756l0,0
		c0,0.967-0.789,1.756-1.755,1.756h-12.524c-0.966,0-1.755-0.789-1.755-1.756l0,0C149.202,55.405,149.991,54.614,150.957,54.614
		L150.957,54.614z"/>
	<path style="fill:#231F20;" d="M150.957,54.564c1.503,0.016,3.006-0.145,4.509-0.264c1.503-0.139,3.005-0.163,4.508-0.102
		l2.254,0.138l1.127,0.073c0.375-0.001,0.838,0.116,1.16,0.351c0.688,0.45,1.045,1.351,0.817,2.155
		c-0.219,0.794-0.964,1.457-1.852,1.486c-3.006,0.189-6.012,0.257-9.017,0.259c-0.751-0.018-1.503-0.018-2.254-0.052
		c-0.376-0.012-0.751-0.032-1.127-0.06l-0.162-0.011l-0.14-0.017c-0.107-0.017-0.251-0.045-0.351-0.083
		c-0.217-0.073-0.422-0.178-0.599-0.315c-0.727-0.536-0.992-1.523-0.69-2.284C149.423,55.072,150.178,54.548,150.957,54.564z
		 M150.957,54.664c-0.737-0.001-1.422,0.558-1.549,1.252c-0.146,0.688,0.218,1.389,0.781,1.653c0.136,0.071,0.284,0.113,0.43,0.133
		c0.081,0.015,0.125,0.007,0.204,0.014l0.141-0.002l0.12-0.009c0.376-0.028,0.751-0.048,1.127-0.06
		c0.751-0.034,1.503-0.034,2.254-0.052c3.005,0.002,6.011,0.07,9.017,0.259c0.628,0.047,1.324-0.373,1.514-1.038
		c0.219-0.645-0.053-1.433-0.655-1.783c-0.308-0.182-0.61-0.243-0.984-0.212l-1.127,0.073l-2.254,0.138
		c-1.503,0.061-3.005,0.037-4.508-0.102C153.963,54.809,152.46,54.648,150.957,54.664z"/>
</g>
</svg>
