<?xml version="1.0" encoding="iso-8859-1"?>
<!-- Generator: Adobe Illustrator 16.0.0, SVG Export Plug-In . SVG Version: 6.00 Build 0)  -->
<!DOCTYPE svg PUBLIC "-//W3C//DTD SVG 1.1//EN" "http://www.w3.org/Graphics/SVG/1.1/DTD/svg11.dtd">
<svg version="1.1" id="Layer_1" xmlns="http://www.w3.org/2000/svg" xmlns:xlink="http://www.w3.org/1999/xlink" x="0px" y="0px"
	 width="650px" height="50px" viewBox="0 0 650 50" style="enable-background:new 0 0 650 50;" xml:space="preserve">
<path style="fill:none;stroke:#000000;stroke-width:5;stroke-linecap:round;stroke-linejoin:round;stroke-miterlimit:10;" d="
	M639,37.664c0,3.131-2.538,5.67-5.669,5.67h-22.662c-3.131,0-5.669-2.539-5.669-5.67V13.002c0-3.131,2.538-5.668,5.669-5.668h22.662
	c3.131,0,5.669,2.537,5.669,5.668V37.664z"/>
<g>
	<path style="fill:#7DBF3D;" d="M604.336,10H32.841c-7.828,0-27.173,6.346-27.173,14.174v2.318c0,7.828,19.346,14.174,27.173,14.174
		h571.495c7.826,0,8.172-6.346,8.172-14.174v-2.318C612.508,16.346,612.162,10,604.336,10z M89.667,30.334c-2.761,0-5-2.238-5-5
		s2.239-5,5-5s5,2.238,5,5S92.428,30.334,89.667,30.334z M126.518,30.334c-2.761,0-5-2.238-5-5s2.239-5,5-5s5,2.238,5,5
		S129.279,30.334,126.518,30.334z M163.368,30.334c-2.761,0-5-2.238-5-5s2.239-5,5-5s5,2.238,5,5S166.129,30.334,163.368,30.334z
		 M200.219,30.334c-2.761,0-5-2.238-5-5s2.239-5,5-5s5,2.238,5,5S202.98,30.334,200.219,30.334z M237.069,30.334
		c-2.761,0-5-2.238-5-5s2.239-5,5-5s5,2.238,5,5S239.831,30.334,237.069,30.334z"/>
	<g>
		<path d="M604.336,10.1c0,0-19.536,0.032-53.724,0.089c-34.188,0.144-83.028,0.349-141.636,0.594
			c-14.652,0.031-29.915,0.064-45.711,0.099c-15.797-0.009-32.128-0.018-48.917-0.026c-33.578,0.002-68.986-0.203-105.617-0.316
			c-36.63-0.16-74.48-0.214-112.942-0.222c-19.231,0.038-38.614,0.077-58.074,0.115l-3.65,0.007
			c-1.233-0.008-2.403,0.008-3.593,0.162c-2.382,0.29-4.747,0.83-7.069,1.495c-2.322,0.671-4.604,1.486-6.815,2.456
			c-2.201,0.982-4.352,2.107-6.269,3.529c-1.876,1.401-3.688,3.193-4.09,5.397c-0.026,0.278-0.052,0.53-0.058,0.832l0.002,0.915
			l0.001,0.915c0.003,0.136-0.006,0.345,0.008,0.419l0.036,0.457c0.104,1.052,0.689,2.108,1.397,3.002
			c1.469,1.806,3.491,3.185,5.579,4.352c2.102,1.167,4.33,2.123,6.603,2.945c2.278,0.81,4.607,1.486,6.967,1.993
			c2.372,0.506,4.725,0.854,7.142,0.769c4.883-0.014,9.765-0.027,14.644-0.041c9.758-0.027,19.507-0.056,29.237-0.083
			c19.46-0.055,38.843-0.109,58.074-0.163c38.461-0.055,76.312-0.108,112.942-0.16c36.63,0.006,72.039,0.011,105.616,0.017
			c33.577-0.017,65.323,0.091,94.628,0.187c58.607,0.262,107.447,0.479,141.636,0.632c4.273,0.008,8.317,0.016,12.124,0.022
			c1.902,0.02,3.773,0.054,5.351-0.732c0.799-0.351,1.46-0.911,2.009-1.541c0.51-0.662,0.924-1.39,1.186-2.165
			c0.555-1.54,0.752-3.133,0.872-4.651c0.113-1.524,0.135-2.994,0.14-4.399c0-2.813,0.05-5.372-0.111-7.647
			c-0.143-2.271-0.525-4.284-1.326-5.815c-0.76-1.569-2.053-2.417-3.113-2.846c-0.552-0.19-1.038-0.352-1.48-0.402
			c-0.434-0.09-0.801-0.137-1.101-0.138C604.639,10.116,604.336,10.1,604.336,10.1z M604.336,9.9c0,0,0.308,0.016,0.912,0.046
			c0.305,0.001,0.679,0.046,1.123,0.137c0.451,0.051,0.953,0.213,1.521,0.408c1.097,0.435,2.45,1.322,3.238,2.937
			c0.831,1.576,1.223,3.618,1.376,5.904c0.17,2.294,0.13,4.854,0.14,7.667c0,1.407-0.015,2.883-0.123,4.42
			c-0.116,1.533-0.308,3.147-0.873,4.739c-0.268,0.799-0.694,1.562-1.23,2.263c-0.574,0.668-1.278,1.265-2.117,1.638
			c-0.401,0.224-0.86,0.312-1.294,0.474c-0.455,0.087-0.92,0.18-1.383,0.239c-0.464,0.022-0.931,0.047-1.401,0.07
			c-0.469,0.001-0.94,0.002-1.416,0.003c-3.807,0.007-7.851,0.015-12.124,0.022c-34.188,0.152-83.028,0.37-141.636,0.632
			c-29.305,0.096-61.051,0.203-94.628,0.187c-33.577,0.006-68.986,0.011-105.616,0.017c-36.63-0.052-74.481-0.105-112.942-0.16
			c-19.23-0.054-38.614-0.108-58.074-0.163c-9.729-0.027-19.479-0.056-29.237-0.083c-4.879-0.014-9.761-0.027-14.644-0.041
			c-2.473,0.074-4.989-0.307-7.383-0.836c-2.412-0.532-4.779-1.234-7.098-2.074c-2.315-0.848-4.587-1.831-6.751-3.044
			c-2.149-1.219-4.253-2.641-5.872-4.639c-0.781-1.012-1.462-2.17-1.604-3.568l-0.034-0.457c-0.019-0.229-0.004-0.326-0.008-0.496
			l0.001-0.915c0-0.601-0.013-1.216,0.077-1.907c0.234-1.331,0.915-2.498,1.725-3.476c0.817-0.982,1.775-1.808,2.778-2.548
			c2.012-1.479,4.218-2.618,6.469-3.612c2.259-0.981,4.581-1.8,6.943-2.473c2.364-0.666,4.766-1.206,7.22-1.496
			c1.228-0.155,2.497-0.166,3.696-0.152l3.65,0.007C57.176,9.606,76.56,9.646,95.791,9.684c38.461-0.008,76.312-0.062,112.942-0.222
			c36.63-0.113,72.039-0.318,105.617-0.316c16.789-0.009,33.12-0.018,48.917-0.026c15.796,0.034,31.059,0.067,45.711,0.099
			c58.607,0.245,107.447,0.45,141.636,0.594C584.8,9.868,604.336,9.9,604.336,9.9z"/>
		<path d="M89.657,30.434c0,0-0.122-0.011-0.351-0.031c-0.231-0.041-0.562,0.018-1.001-0.104c-0.217-0.048-0.477-0.074-0.749-0.138
			c-0.266-0.09-0.554-0.188-0.861-0.291c-0.299-0.133-0.601-0.317-0.941-0.506c-0.3-0.227-0.605-0.501-0.907-0.809
			c-0.513-0.673-0.972-1.558-0.995-2.559l-0.011-0.374l-0.004-0.187l-0.002-0.094l0.004-0.096l0.002-0.01l0.003-0.02l0.007-0.04
			c0.049-0.213,0.098-0.428,0.147-0.645c0.031-0.202,0.14-0.46,0.257-0.716c0.117-0.246,0.214-0.507,0.358-0.723
			c0.557-0.876,1.303-1.565,2.119-2.178c0.889-0.554,1.787-0.949,2.988-1.128c0.512,0.004,0.938-0.1,1.565,0.054
			c0.622,0.086,1.117,0.343,1.633,0.592c0.961,0.604,1.768,1.451,2.262,2.454c0.447,1.003,0.67,2.133,0.474,3.115
			c-0.021,0.368-0.21,0.937-0.396,1.411c-0.183,0.48-0.491,0.808-0.737,1.165c-0.307,0.308-0.62,0.579-0.925,0.804
			c-0.342,0.188-0.648,0.369-0.948,0.503c-0.309,0.104-0.598,0.2-0.865,0.289c-0.27,0.062-0.524,0.087-0.741,0.134
			c-0.43,0.119-0.788,0.061-1.018,0.098c-0.234,0.018-0.358,0.026-0.358,0.026H89.657z M89.667,30.234c0,0,0.119-0.016,0.343-0.045
			c0.218-0.051,0.561-0.03,0.936-0.233c0.189-0.09,0.402-0.174,0.606-0.31c0.198-0.154,0.401-0.328,0.606-0.509
			c0.189-0.204,0.353-0.458,0.534-0.687c0.158-0.255,0.274-0.55,0.431-0.809c0.073-0.303,0.235-0.604,0.285-0.882
			c0.041-0.284,0.163-0.484,0.157-0.969c0.091-0.691-0.081-1.362-0.282-2.06c-0.27-0.68-0.732-1.306-1.341-1.825
			c-0.335-0.205-0.666-0.479-1.009-0.608c-0.288-0.225-0.863-0.293-1.32-0.42c-0.762-0.099-1.793,0.05-2.54,0.546
			c-0.754,0.511-1.277,1.296-1.484,2.102c-0.055,0.197-0.047,0.391-0.078,0.569c-0.029,0.173-0.049,0.343-0.029,0.588
			c0.005,0.223,0.011,0.442,0.016,0.66l-0.001,0.041v0.021l0,0.01c-0.001,0.022,0.009-0.152,0.005-0.075l0.015,0.067l0.027,0.132
			l0.053,0.26c0.094,0.693,0.358,1.278,0.58,1.868c0.162,0.259,0.285,0.551,0.449,0.803c0.184,0.229,0.351,0.479,0.542,0.684
			c0.207,0.182,0.411,0.354,0.609,0.508c0.203,0.135,0.41,0.217,0.599,0.306c0.367,0.201,0.735,0.181,0.954,0.229
			c0.228,0.025,0.35,0.039,0.35,0.039H89.667z"/>
		<path d="M126.507,30.434c0,0-0.122-0.011-0.351-0.031c-0.231-0.041-0.562,0.018-1.001-0.104c-0.217-0.048-0.477-0.074-0.749-0.138
			c-0.266-0.09-0.554-0.188-0.861-0.291c-0.299-0.133-0.601-0.317-0.941-0.506c-0.3-0.227-0.605-0.501-0.907-0.809
			c-0.513-0.673-0.972-1.558-0.995-2.559l-0.011-0.374l-0.004-0.187l-0.002-0.094l0.004-0.096l0.002-0.01l0.003-0.02l0.007-0.04
			c0.049-0.213,0.098-0.428,0.147-0.645c0.031-0.202,0.14-0.46,0.257-0.716c0.117-0.246,0.214-0.507,0.358-0.723
			c0.557-0.876,1.303-1.565,2.119-2.178c0.889-0.554,1.787-0.949,2.988-1.128c0.512,0.004,0.938-0.1,1.565,0.054
			c0.622,0.086,1.117,0.343,1.633,0.592c0.961,0.604,1.768,1.451,2.262,2.454c0.447,1.003,0.67,2.133,0.474,3.115
			c-0.021,0.368-0.21,0.937-0.396,1.411c-0.183,0.48-0.491,0.808-0.737,1.165c-0.307,0.308-0.62,0.579-0.925,0.804
			c-0.342,0.188-0.648,0.369-0.948,0.503c-0.309,0.104-0.598,0.2-0.865,0.289c-0.27,0.062-0.524,0.087-0.741,0.134
			c-0.43,0.119-0.788,0.061-1.018,0.098c-0.234,0.018-0.358,0.026-0.358,0.026H126.507z M126.518,30.234
			c0,0,0.119-0.016,0.343-0.045c0.218-0.051,0.561-0.03,0.936-0.233c0.189-0.09,0.402-0.174,0.606-0.31
			c0.198-0.154,0.401-0.328,0.606-0.509c0.189-0.204,0.353-0.458,0.534-0.687c0.158-0.255,0.274-0.55,0.431-0.809
			c0.073-0.303,0.235-0.604,0.285-0.882c0.041-0.284,0.163-0.484,0.157-0.969c0.091-0.691-0.081-1.362-0.282-2.06
			c-0.27-0.68-0.732-1.306-1.341-1.825c-0.335-0.205-0.666-0.479-1.009-0.608c-0.288-0.225-0.863-0.293-1.32-0.42
			c-0.762-0.099-1.793,0.05-2.54,0.546c-0.754,0.511-1.277,1.296-1.484,2.102c-0.055,0.197-0.047,0.391-0.078,0.569
			c-0.029,0.173-0.049,0.343-0.029,0.588c0.005,0.223,0.011,0.442,0.016,0.66l-0.001,0.041v0.021l0,0.01
			c-0.001,0.022,0.009-0.152,0.005-0.075l0.015,0.067l0.027,0.132l0.053,0.26c0.094,0.693,0.358,1.278,0.58,1.868
			c0.162,0.259,0.285,0.551,0.449,0.803c0.184,0.229,0.351,0.479,0.542,0.684c0.207,0.182,0.411,0.354,0.609,0.508
			c0.203,0.135,0.41,0.217,0.599,0.306c0.367,0.201,0.735,0.181,0.954,0.229c0.228,0.025,0.35,0.039,0.35,0.039H126.518z"/>
		<path d="M163.358,30.434c0,0-0.122-0.011-0.351-0.031c-0.231-0.041-0.562,0.018-1.001-0.104c-0.217-0.048-0.477-0.074-0.749-0.138
			c-0.266-0.09-0.554-0.188-0.861-0.291c-0.299-0.133-0.601-0.317-0.941-0.506c-0.3-0.227-0.605-0.501-0.907-0.809
			c-0.513-0.673-0.972-1.558-0.995-2.559l-0.011-0.374l-0.004-0.187l-0.002-0.094l0.004-0.096l0.002-0.01l0.003-0.02l0.007-0.04
			c0.049-0.213,0.098-0.428,0.147-0.645c0.031-0.202,0.14-0.46,0.257-0.716c0.117-0.246,0.214-0.507,0.358-0.723
			c0.557-0.876,1.303-1.565,2.119-2.178c0.889-0.554,1.787-0.949,2.988-1.128c0.512,0.004,0.938-0.1,1.565,0.054
			c0.622,0.086,1.117,0.343,1.633,0.592c0.961,0.604,1.768,1.451,2.262,2.454c0.447,1.003,0.67,2.133,0.474,3.115
			c-0.021,0.368-0.21,0.937-0.396,1.411c-0.183,0.48-0.491,0.808-0.737,1.165c-0.307,0.308-0.62,0.579-0.925,0.804
			c-0.342,0.188-0.648,0.369-0.948,0.503c-0.309,0.104-0.598,0.2-0.865,0.289c-0.27,0.062-0.524,0.087-0.741,0.134
			c-0.43,0.119-0.788,0.061-1.018,0.098c-0.234,0.018-0.358,0.026-0.358,0.026H163.358z M163.368,30.234
			c0,0,0.119-0.016,0.343-0.045c0.218-0.051,0.561-0.03,0.936-0.233c0.189-0.09,0.402-0.174,0.606-0.31
			c0.198-0.154,0.401-0.328,0.606-0.509c0.189-0.204,0.353-0.458,0.534-0.687c0.158-0.255,0.274-0.55,0.431-0.809
			c0.073-0.303,0.235-0.604,0.285-0.882c0.041-0.284,0.163-0.484,0.157-0.969c0.091-0.691-0.081-1.362-0.282-2.06
			c-0.27-0.68-0.732-1.306-1.341-1.825c-0.335-0.205-0.666-0.479-1.009-0.608c-0.288-0.225-0.863-0.293-1.32-0.42
			c-0.762-0.099-1.793,0.05-2.54,0.546c-0.754,0.511-1.277,1.296-1.484,2.102c-0.055,0.197-0.047,0.391-0.078,0.569
			c-0.029,0.173-0.049,0.343-0.029,0.588c0.005,0.223,0.011,0.442,0.016,0.66l-0.001,0.041v0.021l0,0.01
			c-0.001,0.022,0.009-0.152,0.005-0.075l0.015,0.067l0.027,0.132l0.053,0.26c0.094,0.693,0.358,1.278,0.58,1.868
			c0.162,0.259,0.285,0.551,0.449,0.803c0.184,0.229,0.351,0.479,0.542,0.684c0.207,0.182,0.411,0.354,0.609,0.508
			c0.203,0.135,0.41,0.217,0.599,0.306c0.367,0.201,0.735,0.181,0.954,0.229c0.228,0.025,0.35,0.039,0.35,0.039H163.368z"/>
		<path d="M200.208,30.434c0,0-0.122-0.011-0.351-0.031c-0.231-0.041-0.562,0.018-1.001-0.104c-0.217-0.048-0.477-0.074-0.749-0.138
			c-0.266-0.09-0.554-0.188-0.861-0.291c-0.299-0.133-0.601-0.317-0.941-0.506c-0.3-0.227-0.605-0.501-0.907-0.809
			c-0.513-0.673-0.972-1.558-0.995-2.559l-0.011-0.374l-0.004-0.187l-0.002-0.094l0.004-0.096l0.002-0.01l0.003-0.02l0.007-0.04
			c0.048-0.213,0.098-0.428,0.147-0.645c0.031-0.202,0.14-0.46,0.257-0.716c0.117-0.246,0.214-0.507,0.358-0.723
			c0.557-0.876,1.303-1.565,2.119-2.178c0.889-0.554,1.787-0.949,2.988-1.128c0.512,0.004,0.938-0.1,1.565,0.054
			c0.622,0.086,1.117,0.343,1.633,0.592c0.961,0.604,1.768,1.451,2.262,2.454c0.447,1.003,0.67,2.133,0.474,3.115
			c-0.021,0.368-0.21,0.937-0.396,1.411c-0.183,0.48-0.491,0.808-0.737,1.165c-0.307,0.308-0.62,0.579-0.925,0.804
			c-0.342,0.188-0.648,0.369-0.948,0.503c-0.309,0.104-0.598,0.2-0.865,0.289c-0.27,0.062-0.524,0.087-0.741,0.134
			c-0.43,0.119-0.788,0.061-1.018,0.098c-0.234,0.018-0.358,0.026-0.358,0.026H200.208z M200.219,30.234
			c0,0,0.119-0.016,0.343-0.045c0.218-0.051,0.561-0.03,0.936-0.233c0.189-0.09,0.402-0.174,0.606-0.31
			c0.198-0.154,0.401-0.328,0.606-0.509c0.189-0.204,0.353-0.458,0.534-0.687c0.158-0.255,0.274-0.55,0.431-0.809
			c0.073-0.303,0.235-0.604,0.285-0.882c0.041-0.284,0.163-0.484,0.157-0.969c0.091-0.691-0.081-1.362-0.282-2.06
			c-0.27-0.68-0.732-1.306-1.341-1.825c-0.335-0.205-0.666-0.479-1.009-0.608c-0.288-0.225-0.863-0.293-1.32-0.42
			c-0.762-0.099-1.793,0.05-2.54,0.546c-0.754,0.511-1.277,1.296-1.484,2.102c-0.055,0.197-0.047,0.391-0.078,0.569
			c-0.029,0.173-0.049,0.343-0.029,0.588c0.005,0.223,0.011,0.442,0.016,0.66l-0.001,0.041v0.021l0,0.01
			c-0.001,0.022,0.009-0.152,0.005-0.075l0.015,0.067l0.027,0.132l0.052,0.26c0.095,0.693,0.359,1.278,0.58,1.868
			c0.162,0.259,0.285,0.551,0.449,0.803c0.184,0.229,0.351,0.479,0.542,0.684c0.207,0.182,0.411,0.354,0.609,0.508
			c0.203,0.135,0.411,0.217,0.599,0.306c0.367,0.201,0.735,0.181,0.954,0.229c0.228,0.025,0.35,0.039,0.35,0.039H200.219z"/>
		<path d="M237.059,30.434c0,0-0.122-0.011-0.351-0.031c-0.231-0.041-0.562,0.018-1.001-0.104c-0.217-0.048-0.477-0.074-0.749-0.138
			c-0.266-0.09-0.554-0.188-0.861-0.291c-0.299-0.133-0.601-0.317-0.941-0.506c-0.3-0.227-0.605-0.501-0.907-0.809
			c-0.513-0.673-0.972-1.558-0.995-2.559l-0.011-0.374l-0.004-0.187l-0.002-0.094l0.004-0.096l0.002-0.01l0.003-0.02l0.007-0.04
			c0.048-0.213,0.098-0.428,0.147-0.645c0.031-0.202,0.14-0.46,0.257-0.716c0.117-0.246,0.214-0.507,0.358-0.723
			c0.557-0.876,1.303-1.565,2.119-2.178c0.889-0.554,1.787-0.949,2.988-1.128c0.512,0.004,0.938-0.1,1.565,0.054
			c0.622,0.086,1.117,0.343,1.633,0.592c0.961,0.604,1.768,1.451,2.262,2.454c0.447,1.003,0.67,2.133,0.474,3.115
			c-0.021,0.368-0.21,0.937-0.396,1.411c-0.183,0.48-0.491,0.808-0.737,1.165c-0.307,0.308-0.62,0.579-0.925,0.804
			c-0.342,0.188-0.648,0.369-0.948,0.503c-0.309,0.104-0.598,0.2-0.865,0.289c-0.27,0.062-0.524,0.087-0.741,0.134
			c-0.43,0.119-0.788,0.061-1.018,0.098c-0.234,0.018-0.358,0.026-0.358,0.026H237.059z M237.069,30.234
			c0,0,0.119-0.016,0.343-0.045c0.218-0.051,0.561-0.03,0.936-0.233c0.189-0.09,0.402-0.174,0.606-0.31
			c0.198-0.154,0.401-0.328,0.606-0.509c0.189-0.204,0.353-0.458,0.534-0.687c0.158-0.255,0.274-0.55,0.431-0.809
			c0.073-0.303,0.235-0.604,0.285-0.882c0.041-0.284,0.163-0.484,0.157-0.969c0.091-0.691-0.081-1.362-0.282-2.06
			c-0.27-0.68-0.732-1.306-1.341-1.825c-0.335-0.205-0.666-0.479-1.009-0.608c-0.288-0.225-0.863-0.293-1.32-0.42
			c-0.762-0.099-1.793,0.05-2.54,0.546c-0.754,0.511-1.277,1.296-1.484,2.102c-0.055,0.197-0.047,0.391-0.078,0.569
			c-0.029,0.173-0.049,0.343-0.029,0.588c0.005,0.223,0.011,0.442,0.016,0.66l-0.001,0.041v0.021l0,0.01
			c-0.001,0.022,0.009-0.152,0.005-0.075l0.015,0.067l0.027,0.132l0.052,0.26c0.095,0.693,0.359,1.278,0.58,1.868
			c0.162,0.259,0.285,0.551,0.449,0.803c0.184,0.229,0.351,0.479,0.542,0.684c0.207,0.182,0.411,0.354,0.609,0.508
			c0.203,0.135,0.411,0.217,0.599,0.306c0.367,0.201,0.735,0.181,0.954,0.229c0.228,0.025,0.35,0.039,0.35,0.039H237.069z"/>
	</g>
</g>
<path d="M645,25.333c0,1.289-1.045,2.334-2.334,2.334H612c-1.288,0-2.333-1.045-2.333-2.334l0,0c0-1.288,1.045-2.333,2.333-2.333
	h30.666C643.955,23,645,24.045,645,25.333L645,25.333z"/>
<path d="M611.333,27.666c0,1.473-1.194,2.668-2.667,2.668l0,0c-1.473,0-2.666-1.195-2.666-2.668V23c0-1.473,1.193-2.666,2.666-2.666
	l0,0c1.473,0,2.667,1.193,2.667,2.666V27.666z"/>
<path style="opacity:0.55;fill:#878787;" d="M644.333,24.5c0,0.403-1.045,0.73-2.334,0.73h-30.666c-1.288,0-2.333-0.327-2.333-0.73
	l0,0c0-0.402,1.045-0.729,2.333-0.729h30.666C643.288,23.771,644.333,24.098,644.333,24.5L644.333,24.5z"/>
</svg>
