<?xml version="1.0" encoding="iso-8859-1"?>
<!-- Generator: Adobe Illustrator 16.0.0, SVG Export Plug-In . SVG Version: 6.00 Build 0)  -->
<!DOCTYPE svg PUBLIC "-//W3C//DTD SVG 1.1//EN" "http://www.w3.org/Graphics/SVG/1.1/DTD/svg11.dtd">
<svg version="1.1" id="Layer_1" xmlns="http://www.w3.org/2000/svg" xmlns:xlink="http://www.w3.org/1999/xlink" x="0px" y="0px"
	 width="613px" height="55px" viewBox="0 0 613 55" style="enable-background:new 0 0 613 55;" xml:space="preserve">
<g>
	<g>
		<path style="fill:#F7BC60;" d="M12.166,32.583c-3.4,0-6.167-2.766-6.167-6.166s2.766-6.167,6.167-6.167s6.167,2.767,6.167,6.167
			S15.566,32.583,12.166,32.583z M12.166,22.25C9.869,22.25,8,24.119,8,26.417c0,2.297,1.869,4.166,4.167,4.166
			s4.167-1.869,4.167-4.166C16.333,24.119,14.463,22.25,12.166,22.25z"/>
		<g>
			<path style="fill:#231F20;" d="M12.161,32.633c0,0-0.151-0.014-0.433-0.039c-0.28-0.051-0.701,0-1.217-0.174
				c-0.256-0.078-0.557-0.13-0.869-0.232c-0.299-0.136-0.623-0.283-0.969-0.439c-0.327-0.193-0.649-0.446-1.008-0.695
				c-0.32-0.288-0.636-0.628-0.953-0.993c-0.531-0.795-1.016-1.78-1.078-2.899c-0.011-0.294-0.06-0.523-0.037-0.877
				c0.042-0.264,0.084-0.53,0.126-0.8c0.021-0.265,0.12-0.55,0.231-0.835c0.111-0.279,0.191-0.577,0.336-0.836
				c0.564-1.051,1.398-1.939,2.382-2.658c1.026-0.67,2.23-1.058,3.493-1.179c0.666,0.053,1.207-0.013,1.868,0.203
				c0.662,0.128,1.21,0.454,1.783,0.738c1.057,0.714,1.918,1.681,2.451,2.795c0.137,0.273,0.211,0.573,0.308,0.859
				c0.097,0.288,0.184,0.574,0.194,0.873c0.03,0.294,0.059,0.586,0.088,0.875c0,0.06,0.01,0.019,0.003,0.161l-0.012,0.099
				l-0.023,0.196l-0.046,0.39c-0.017,0.496-0.219,1.063-0.399,1.578c-0.181,0.516-0.5,0.914-0.742,1.333
				c-0.323,0.362-0.639,0.703-0.962,0.99c-0.361,0.248-0.686,0.499-1.013,0.692c-0.347,0.156-0.671,0.303-0.971,0.439
				c-0.31,0.101-0.608,0.152-0.865,0.23c-0.511,0.173-0.946,0.121-1.226,0.171c-0.284,0.023-0.436,0.036-0.436,0.036H12.161z
				 M12.166,32.533c0,0,0.149-0.018,0.428-0.051c0.273-0.059,0.702-0.014,1.184-0.239c0.244-0.092,0.521-0.174,0.796-0.318
				c0.26-0.169,0.542-0.352,0.842-0.546c0.276-0.223,0.53-0.509,0.814-0.775c0.249-0.304,0.461-0.661,0.71-0.998
				c0.151-0.394,0.412-0.772,0.52-1.19c0.099-0.421,0.283-0.801,0.284-1.356c0.146-0.96-0.08-1.955-0.422-2.926
				c-0.41-0.96-1.115-1.808-1.993-2.482c-0.476-0.275-0.946-0.607-1.473-0.744c-0.467-0.25-1.162-0.273-1.69-0.382
				c-1.159-0.023-2.332,0.264-3.321,0.889c-0.95,0.669-1.683,1.597-2.062,2.619c-0.103,0.249-0.132,0.512-0.204,0.756
				c-0.068,0.244-0.131,0.484-0.123,0.771c-0.012,0.272-0.024,0.542-0.036,0.809c0.003,0.176,0.061,0.471,0.085,0.694
				c0.083,0.969,0.492,1.797,0.866,2.557c0.256,0.334,0.469,0.692,0.721,0.995c0.286,0.266,0.542,0.549,0.819,0.773
				c0.301,0.195,0.583,0.377,0.844,0.545c0.273,0.144,0.549,0.225,0.792,0.316c0.478,0.224,0.919,0.178,1.192,0.236
				c0.282,0.032,0.432,0.049,0.432,0.049H12.166z"/>
			<path style="fill:#231F20;" d="M12.171,22.3c0,0-0.101,0.012-0.292,0.035c-0.183,0.04-0.485,0.01-0.802,0.169
				c-0.162,0.064-0.344,0.123-0.522,0.228c-0.17,0.119-0.354,0.248-0.55,0.386c-0.178,0.156-0.341,0.353-0.522,0.535
				c-0.159,0.207-0.286,0.451-0.449,0.672c-0.228,0.507-0.492,1.042-0.551,1.672c-0.019,0.139-0.059,0.349-0.065,0.439
				c0.003,0.181,0.006,0.364,0.009,0.548c-0.01,0.197,0.026,0.353,0.066,0.51c0.042,0.16,0.054,0.332,0.117,0.498
				c0.225,0.688,0.706,1.317,1.34,1.766c0.645,0.429,1.483,0.579,2.189,0.553c0.865-0.12,1.478-0.374,2.085-0.792
				c0.564-0.449,1.016-1.003,1.272-1.626c0.212-0.632,0.358-1.267,0.271-1.892c0.001-0.384-0.12-0.611-0.174-0.88
				c-0.061-0.267-0.228-0.519-0.314-0.781c-0.157-0.223-0.283-0.467-0.439-0.675c-0.179-0.183-0.339-0.381-0.518-0.538
				c-0.195-0.138-0.378-0.267-0.548-0.386c-0.18-0.105-0.364-0.165-0.527-0.229c-0.32-0.16-0.609-0.131-0.792-0.172
				c-0.188-0.024-0.288-0.037-0.288-0.037H12.171z M12.166,22.2c0,0,0.103,0.007,0.296,0.022c0.19,0.032,0.485-0.004,0.835,0.105
				c0.175,0.05,0.38,0.08,0.595,0.141c0.209,0.086,0.436,0.18,0.677,0.279c0.229,0.126,0.46,0.29,0.717,0.455
				c0.23,0.19,0.461,0.418,0.691,0.667c0.178,0.287,0.403,0.559,0.538,0.923c0.134,0.362,0.273,0.776,0.288,1.102
				c0.152,0.769-0.032,1.635-0.361,2.418c-0.38,0.777-0.987,1.45-1.73,1.938c-0.754,0.456-1.747,0.658-2.518,0.604
				c-0.93-0.093-1.697-0.399-2.414-0.844c-0.673-0.489-1.251-1.086-1.663-1.8c-0.104-0.177-0.167-0.384-0.249-0.578
				c-0.082-0.199-0.154-0.399-0.173-0.575c-0.034-0.182-0.067-0.362-0.101-0.54c-0.019-0.268,0.012-0.412,0.017-0.622
				c0.04-0.78,0.379-1.471,0.763-2.015c0.224-0.251,0.454-0.478,0.681-0.67c0.255-0.165,0.483-0.331,0.712-0.457
				c0.241-0.1,0.467-0.193,0.675-0.28c0.216-0.062,0.424-0.093,0.6-0.144c0.354-0.109,0.636-0.074,0.826-0.107
				c0.19-0.016,0.292-0.024,0.292-0.024H12.166z"/>
		</g>
	</g>
</g>
<line style="fill:none;stroke:#000000;stroke-width:2;stroke-linecap:round;stroke-linejoin:round;stroke-miterlimit:10;" x1="21.526" y1="26.417" x2="15.666" y2="26.417"/>
<g>
	<path style="fill:#F7BC60;" d="M604.213,22.844c-0.27-0.475-0.603-0.903-0.975-1.293l1.066-1.778
		c0.427-0.71,0.196-1.632-0.515-2.058c-0.708-0.426-1.631-0.196-2.058,0.514l-1.179,1.964c-0.373,0.099-0.706,0.341-0.914,0.701
		c-0.326-0.06-0.658-0.101-0.996-0.101c-0.961,0-1.913,0.252-2.754,0.73c-0.341,0.194-0.652,0.423-0.94,0.676
		c-0.011-0.007-0.02-0.017-0.031-0.023c-0.708-0.43-1.63-0.202-2.06,0.508c-1.232,2.041-1.269,4.595-0.092,6.666
		c0.868,1.529,2.28,2.627,3.976,3.094c0.581,0.16,1.171,0.239,1.758,0.239c1.125,0,2.237-0.292,3.242-0.863
		c1.529-0.869,2.628-2.281,3.095-3.976C605.304,26.148,605.082,24.372,604.213,22.844z M596.384,22.392
		c0.69-0.392,1.472-0.6,2.26-0.6c0.278,0,0.551,0.034,0.818,0.083c0.071,0.442,0.332,0.849,0.755,1.081
		c0.579,0.317,1.06,0.792,1.389,1.37c0.473,0.832,0.594,1.798,0.339,2.721c-0.254,0.923-0.852,1.691-1.685,2.165
		s-1.801,0.594-2.721,0.34c-0.923-0.254-1.691-0.853-2.164-1.684c-0.641-1.128-0.621-2.52,0.052-3.632
		c0.234-0.388,0.266-0.837,0.137-1.237C595.813,22.771,596.083,22.563,596.384,22.392z"/>
	<g>
		<path style="fill:#231F20;" d="M604.17,22.87l-0.453-0.671c-0.176-0.201-0.351-0.403-0.532-0.597
			c-0.022-0.024-0.024-0.062-0.01-0.089l0.544-0.996l0.262-0.504c0.093-0.183,0.171-0.314,0.235-0.497
			c0.068-0.186,0.078-0.299,0.071-0.474c-0.001-0.159-0.038-0.32-0.108-0.459c-0.059-0.143-0.149-0.276-0.264-0.375
			c-0.099-0.108-0.246-0.193-0.364-0.239c-0.203-0.091-0.291-0.083-0.431-0.09c-0.143,0-0.283,0.02-0.414,0.067
			c-0.133,0.047-0.251,0.12-0.354,0.208c-0.104,0.093-0.178,0.194-0.26,0.317c-0.372,0.658-0.764,1.305-1.158,1.949
			c-0.062,0.1-0.155,0.168-0.26,0.198l-0.007,0.002c-0.134,0.039-0.261,0.093-0.379,0.171c-0.113,0.086-0.207,0.189-0.291,0.308
			l-0.017,0.023c-0.097,0.137-0.26,0.199-0.415,0.176l-0.578-0.087l-0.291-0.046c-0.05-0.019-0.195-0.002-0.288-0.005
			c-0.203,0.011-0.435-0.01-0.612,0.032c-0.188,0.033-0.38,0.045-0.572,0.092l-0.577,0.161l-0.556,0.234l-0.07,0.03l-0.018,0.007
			c0.033-0.022,0,0,0.003-0.002l-0.033,0.021l-0.132,0.085l-0.265,0.172l-0.522,0.352l-0.011,0.007
			c-0.06,0.04-0.135,0.037-0.19-0.002c-0.475-0.334-1.11-0.292-1.559,0.066c-0.232,0.174-0.34,0.428-0.484,0.718l-0.208,0.42
			l-0.144,0.428c-0.21,0.56-0.282,1.183-0.293,1.782c-0.016,0.604,0.082,1.202,0.235,1.777c0.08,0.287,0.206,0.559,0.304,0.837
			l0.39,0.752c0.384,0.479,0.727,1.069,1.177,1.379c0.378,0.411,0.904,0.685,1.397,0.988c0.257,0.131,0.542,0.204,0.811,0.311
			l0.375,0.141l0.461,0.086c0.319,0.076,0.601,0.09,0.869,0.094c0.128,0.002,0.296,0.032,0.391,0.016l0.468-0.031
			c0.61-0.049,1.092-0.196,1.661-0.383c0.249-0.094,0.565-0.267,0.746-0.332l0.774-0.529c0.29-0.162,0.465-0.367,0.661-0.563
			c0.182-0.213,0.434-0.354,0.581-0.616l0.515-0.717c0.16-0.248,0.259-0.53,0.394-0.797c0.062-0.124,0.135-0.298,0.187-0.382
			l0.111-0.457c0.062-0.304,0.167-0.613,0.196-0.912c0.018-0.591,0.087-1.209-0.085-1.812
			C604.729,23.987,604.391,23.449,604.17,22.87z M604.256,22.817c0.247,0.578,0.586,1.127,0.701,1.756
			c0.206,0.605,0.237,1.248,0.287,1.908c0.007,0.324-0.057,0.626-0.082,0.941l-0.048,0.468l-0.149,0.495
			c-0.105,0.309-0.177,0.638-0.315,0.938l-0.486,0.871c-0.138,0.306-0.421,0.537-0.639,0.802c-0.233,0.259-0.47,0.53-0.725,0.69
			l-0.759,0.552c-0.386,0.203-0.621,0.329-0.95,0.473c-0.324,0.104-0.625,0.246-0.972,0.311c-0.337,0.058-0.712,0.158-1.008,0.157
			l-0.469,0.029c-0.218,0.021-0.361-0.013-0.546-0.019c-0.358-0.023-0.699-0.063-0.989-0.144l-0.458-0.102
			c-0.222-0.074-0.331-0.127-0.502-0.192c-0.309-0.133-0.633-0.234-0.925-0.396c-0.564-0.367-1.146-0.698-1.611-1.231
			c-0.542-0.479-0.792-1.021-1.16-1.539c-0.177-0.366-0.292-0.619-0.418-0.941c-0.084-0.32-0.191-0.632-0.25-0.955
			c-0.109-0.647-0.155-1.302-0.09-1.948c0.061-0.647,0.201-1.275,0.434-1.884l0.171-0.457l0.221-0.415
			c0.138-0.261,0.299-0.601,0.585-0.801c0.267-0.216,0.598-0.355,0.944-0.381c0.347-0.017,0.712,0.077,0.998,0.245l-0.201,0.005
			l0.5-0.383l0.247-0.196l0.123-0.098l0.031-0.024c0.014-0.01-0.01,0.004,0.035-0.024l0.018-0.01l0.072-0.04l0.578-0.314l0.616-0.24
			c0.21-0.074,0.438-0.115,0.659-0.171c0.23-0.066,0.425-0.062,0.638-0.094c0.117-0.008,0.182-0.032,0.341-0.027l0.336,0.018
			l0.675,0.041l-0.432,0.199c0.129-0.216,0.288-0.411,0.484-0.574c0.202-0.155,0.429-0.272,0.673-0.348l-0.266,0.2
			c0.384-0.651,0.77-1.301,1.176-1.939c0.129-0.191,0.287-0.389,0.485-0.529c0.195-0.141,0.415-0.248,0.646-0.308
			c0.23-0.058,0.471-0.081,0.705-0.044c0.233,0.028,0.52,0.135,0.648,0.223c0.216,0.122,0.387,0.263,0.524,0.447
			c0.146,0.172,0.252,0.379,0.31,0.591c0.068,0.209,0.091,0.435,0.067,0.65c-0.007,0.201-0.09,0.467-0.177,0.622
			c-0.082,0.167-0.215,0.351-0.313,0.494l-0.321,0.468l-0.622,0.949l-0.01-0.089l0.522,0.635L604.256,22.817z"/>
		<path style="fill:#231F20;" d="M596.36,22.348c0.241-0.114,0.464-0.258,0.723-0.346c0.248-0.115,0.508-0.198,0.771-0.273
			c0.131-0.047,0.266-0.073,0.402-0.097l0.206-0.04c0.078-0.011,0.118-0.032,0.229-0.034l0.801-0.02
			c0.124-0.003,0.23,0.075,0.27,0.185l0.035,0.099c0.11,0.311,0.31,0.546,0.556,0.694l0.511,0.324
			c0.178,0.154,0.39,0.307,0.528,0.488c0.145,0.179,0.297,0.351,0.395,0.56c0.058,0.114,0.101,0.168,0.169,0.33l0.099,0.292
			c0.146,0.355,0.22,0.882,0.214,1.301c-0.026,0.218,0,0.435-0.046,0.646c-0.052,0.209-0.084,0.42-0.128,0.629l-0.223,0.589
			c-0.075,0.191-0.211,0.376-0.312,0.569c-0.243,0.356-0.501,0.718-0.858,0.977l-0.257,0.212c-0.138,0.095-0.193,0.113-0.294,0.173
			c-0.191,0.093-0.33,0.218-0.572,0.28c-0.224,0.063-0.458,0.154-0.687,0.185l-0.689,0.047l-0.686-0.096
			c-0.312-0.067-0.421-0.134-0.641-0.201c-0.184-0.042-0.416-0.199-0.627-0.316c-0.229-0.118-0.407-0.271-0.577-0.432
			c-0.177-0.158-0.344-0.322-0.469-0.523l-0.204-0.288c-0.04-0.062-0.054-0.065-0.114-0.176l-0.063-0.14l-0.126-0.281l-0.112-0.356
			c-0.085-0.243-0.099-0.466-0.137-0.699c-0.022-0.465,0.009-0.935,0.167-1.368c0.131-0.426,0.402-0.847,0.626-1.149
			c0.052-0.086,0.119-0.177,0.158-0.259l0.082-0.24l0.031-0.28l-0.037-0.285l-0.004-0.034c-0.004-0.026,0.009-0.051,0.03-0.064
			C595.8,22.746,596.078,22.542,596.36,22.348z M596.407,22.437c-0.265,0.209-0.533,0.41-0.78,0.632l0.026-0.099
			c0.07,0.207,0.121,0.42,0.13,0.65c-0.004,0.116-0.025,0.237-0.039,0.361c-0.022,0.113-0.058,0.202-0.087,0.303
			c-0.157,0.42-0.255,0.742-0.271,1.127c-0.046,0.364-0.004,0.727,0.044,1.074c0.05,0.167,0.064,0.357,0.131,0.498l0.079,0.228
			l0.141,0.273c0.171,0.274,0.354,0.603,0.622,0.819c0.119,0.132,0.242,0.255,0.379,0.332c0.143,0.087,0.229,0.204,0.445,0.274
			c0.167,0.065,0.428,0.194,0.517,0.206l0.524,0.114l0.54,0.016c0.179,0.004,0.338-0.042,0.516-0.055
			c0.17,0.008,0.381-0.106,0.57-0.159c0.083-0.03,0.228-0.073,0.259-0.093l0.246-0.143c0.168-0.092,0.335-0.19,0.469-0.33
			c0.137-0.132,0.312-0.246,0.401-0.413c0.103-0.162,0.234-0.298,0.311-0.487l0.217-0.559c0.026-0.195,0.063-0.388,0.082-0.582
			c0.015-0.193-0.021-0.39-0.041-0.58c-0.006-0.197-0.102-0.362-0.148-0.536c-0.039-0.167-0.139-0.344-0.246-0.525l-0.151-0.269
			l-0.157-0.188c-0.111-0.146-0.241-0.272-0.369-0.4c-0.13-0.128-0.257-0.215-0.385-0.332c-0.177-0.11-0.34-0.212-0.516-0.351
			c-0.439-0.299-0.714-0.812-0.737-1.312l0.305,0.284l-0.783-0.18c-0.022-0.011-0.115-0.011-0.169-0.017l-0.191-0.014
			c-0.129-0.015-0.259-0.016-0.387,0c-0.262,0.008-0.516,0.056-0.765,0.132C596.88,22.185,596.651,22.338,596.407,22.437z"/>
	</g>
</g>
<line style="fill:none;stroke:#000000;stroke-width:2;stroke-linecap:round;stroke-linejoin:round;stroke-miterlimit:10;" x1="587.5" y1="26" x2="594.5" y2="26"/>
<g>
	<circle style="fill:#ED257A;" cx="62.049" cy="25.984" r="19.843"/>
	<path style="fill:#D12678;" d="M72.631,9.014c2.645,3.371,4.226,7.616,4.226,12.233c0,10.959-8.883,19.843-19.843,19.843
		c-3.766,0-7.287-1.049-10.286-2.871c3.632,4.63,9.274,7.608,15.616,7.608c10.959,0,19.843-8.883,19.843-19.843
		C82.187,18.792,78.36,12.493,72.631,9.014z"/>
	
		<ellipse transform="matrix(0.8769 -0.4806 0.4806 0.8769 -0.0525 28.1859)" style="fill:#FFE1FF;" cx="55.012" cy="14.196" rx="4.9" ry="3.418"/>
	
		<ellipse transform="matrix(0.7611 -0.6487 0.6487 0.7611 -1.2679 36.0623)" style="fill:#FFE1FF;" cx="48.319" cy="19.752" rx="2.361" ry="1.647"/>
	<g>
		<path style="fill:#231F20;" d="M81.941,25.985c0.042,5.207-1.985,10.431-5.639,14.252c-1.812,1.923-4.053,3.44-6.492,4.483
			c-2.441,1.055-5.114,1.526-7.761,1.521c-2.651-0.035-5.287-0.609-7.701-1.663c-2.413-1.059-4.606-2.582-6.452-4.44
			c-3.685-3.727-5.904-8.871-5.963-14.153c-0.128-5.273,1.988-10.594,5.752-14.364c1.868-1.893,4.112-3.418,6.569-4.454
			c2.458-1.044,5.126-1.543,7.801-1.541c5.325-0.035,10.638,2.234,14.257,6.094C79.962,15.551,81.992,20.775,81.941,25.985z
			 M81.841,25.984c-0.03-2.588-0.543-5.178-1.585-7.541c-1.042-2.36-2.553-4.499-4.41-6.256c-3.706-3.531-8.722-5.549-13.805-5.528
			C56.99,6.664,51.954,8.704,48.35,12.287c-3.626,3.556-5.798,8.563-5.87,13.699c-0.115,5.126,1.953,10.311,5.66,13.908
			c3.652,3.663,8.829,5.616,13.909,5.52c5.097-0.028,10.109-2.083,13.809-5.62c1.853-1.763,3.363-3.903,4.406-6.264
			C81.305,31.164,81.814,28.574,81.841,25.984z"/>
	</g>
</g>
<g>
	<circle style="fill:#ED257A;" cx="31.788" cy="25.985" r="10.082"/>
	<path style="fill:#D12678;" d="M37.165,17.362c1.344,1.713,2.147,3.87,2.147,6.216c0,5.568-4.514,10.082-10.082,10.082
		c-1.914,0-3.702-0.533-5.226-1.459c1.846,2.353,4.712,3.866,7.934,3.866c5.568,0,10.082-4.514,10.082-10.082
		C42.02,22.331,40.076,19.13,37.165,17.362z"/>
	
		<ellipse transform="matrix(0.877 -0.4806 0.4806 0.877 -6.1376 16.018)" style="fill:#FFE1FF;" cx="28.213" cy="19.995" rx="2.489" ry="1.736"/>
	
		<ellipse transform="matrix(0.7611 -0.6486 0.6486 0.7611 -8.8733 21.5435)" style="fill:#FFE1FF;" cx="24.812" cy="22.819" rx="1.2" ry="0.836"/>
	<g>
		<path style="fill:#231F20;" d="M41.919,25.985c-0.004,2.639-0.926,5.334-2.781,7.351c-1.817,2.04-4.598,3.228-7.351,3.147
			c-5.606-0.128-10.249-5.042-10.356-10.498c-0.112-2.713,0.948-5.493,2.894-7.461c1.925-1.988,4.661-3.182,7.475-3.154
			c2.754,0.001,5.531,1.212,7.348,3.253C40.998,20.649,41.927,23.342,41.919,25.985z M41.82,25.984
			c0.017-2.645-1.229-5.199-3.136-6.896c-1.906-1.714-4.376-2.679-6.91-2.652c-2.474,0.003-4.984,0.986-6.783,2.752
			c-1.808,1.754-2.924,4.221-3.011,6.796c-0.103,2.57,0.92,5.202,2.794,7.014c1.867,1.828,4.491,2.739,7.014,2.651
			c2.536-0.056,5.001-1.044,6.907-2.759C40.595,31.185,41.849,28.633,41.82,25.984z"/>
	</g>
</g>
<g>
	<circle style="fill:#ED257A;" cx="122.71" cy="25.984" r="19.843"/>
	<path style="fill:#D12678;" d="M133.292,9.014c2.645,3.371,4.226,7.616,4.226,12.233c0,10.959-8.883,19.843-19.843,19.843
		c-3.766,0-7.287-1.049-10.286-2.871c3.632,4.63,9.274,7.608,15.616,7.608c10.959,0,19.843-8.883,19.843-19.843
		C142.849,18.792,139.021,12.493,133.292,9.014z"/>
	
		<ellipse transform="matrix(0.8769 -0.4806 0.4806 0.8769 7.4125 57.3399)" style="fill:#FFE1FF;" cx="115.674" cy="14.196" rx="4.9" ry="3.418"/>
	
		<ellipse transform="matrix(0.7611 -0.6487 0.6487 0.7611 13.226 75.4116)" style="fill:#FFE1FF;" cx="108.98" cy="19.752" rx="2.361" ry="1.647"/>
	<g>
		<path style="fill:#231F20;" d="M142.603,25.985c0.042,5.207-1.985,10.431-5.639,14.252c-1.812,1.923-4.053,3.44-6.492,4.483
			c-2.441,1.055-5.114,1.526-7.761,1.521c-2.651-0.035-5.287-0.609-7.701-1.663c-2.413-1.059-4.606-2.582-6.452-4.44
			c-3.685-3.727-5.904-8.871-5.963-14.153c-0.128-5.273,1.988-10.594,5.752-14.364c1.868-1.893,4.112-3.418,6.569-4.454
			c2.458-1.044,5.126-1.543,7.801-1.541c5.325-0.035,10.638,2.234,14.257,6.094C140.624,15.551,142.653,20.775,142.603,25.985z
			 M142.503,25.984c-0.03-2.588-0.543-5.178-1.585-7.541c-1.042-2.36-2.553-4.499-4.41-6.256c-3.706-3.531-8.722-5.549-13.805-5.528
			c-5.051,0.006-10.087,2.046-13.692,5.628c-3.626,3.556-5.798,8.563-5.87,13.699c-0.115,5.126,1.953,10.311,5.66,13.908
			c3.652,3.663,8.829,5.616,13.909,5.52c5.097-0.028,10.109-2.083,13.809-5.62c1.853-1.763,3.363-3.903,4.406-6.264
			C141.967,31.164,142.476,28.574,142.503,25.984z"/>
	</g>
</g>
<g>
	<circle style="fill:#ED257A;" cx="92.449" cy="25.985" r="10.082"/>
	<path style="fill:#D12678;" d="M97.826,17.362c1.344,1.713,2.147,3.87,2.147,6.216c0,5.568-4.514,10.082-10.082,10.082
		c-1.914,0-3.702-0.533-5.226-1.459c1.846,2.353,4.712,3.866,7.934,3.866c5.568,0,10.082-4.514,10.082-10.082
		C102.682,22.331,100.737,19.13,97.826,17.362z"/>
	
		<ellipse transform="matrix(0.877 -0.4806 0.4806 0.877 1.326 45.1692)" style="fill:#FFE1FF;" cx="88.875" cy="19.995" rx="2.489" ry="1.736"/>
	
		<ellipse transform="matrix(0.7611 -0.6486 0.6486 0.7611 5.6166 60.8882)" style="fill:#FFE1FF;" cx="85.474" cy="22.819" rx="1.2" ry="0.836"/>
	<g>
		<path style="fill:#231F20;" d="M102.581,25.985c-0.004,2.639-0.926,5.334-2.781,7.351c-1.817,2.04-4.598,3.228-7.351,3.147
			c-5.606-0.128-10.249-5.042-10.356-10.498c-0.112-2.713,0.948-5.493,2.894-7.461c1.925-1.988,4.661-3.182,7.475-3.154
			c2.754,0.001,5.531,1.212,7.348,3.253C101.659,20.649,102.589,23.342,102.581,25.985z M102.481,25.984
			c0.017-2.645-1.229-5.199-3.136-6.896c-1.906-1.714-4.376-2.679-6.91-2.652c-2.474,0.003-4.984,0.986-6.783,2.752
			c-1.808,1.754-2.924,4.221-3.011,6.796c-0.103,2.57,0.92,5.202,2.794,7.014c1.867,1.828,4.491,2.739,7.014,2.651
			c2.536-0.056,5.001-1.044,6.907-2.759C101.257,31.185,102.51,28.633,102.481,25.984z"/>
	</g>
</g>
<g>
	<circle style="fill:#ED257A;" cx="183.372" cy="25.984" r="19.843"/>
	<path style="fill:#D12678;" d="M193.954,9.014c2.645,3.371,4.226,7.616,4.226,12.233c0,10.959-8.883,19.843-19.843,19.843
		c-3.766,0-7.287-1.049-10.286-2.871c3.632,4.63,9.274,7.608,15.616,7.608c10.959,0,19.843-8.883,19.843-19.843
		C203.51,18.792,199.683,12.493,193.954,9.014z"/>
	
		<ellipse transform="matrix(0.8769 -0.4806 0.4806 0.8769 14.8775 86.4939)" style="fill:#FFE1FF;" cx="176.336" cy="14.196" rx="4.9" ry="3.418"/>
	
		<ellipse transform="matrix(0.7611 -0.6487 0.6487 0.7611 27.7198 114.7608)" style="fill:#FFE1FF;" cx="169.642" cy="19.752" rx="2.361" ry="1.647"/>
	<g>
		<path style="fill:#231F20;" d="M203.264,25.985c0.042,5.207-1.985,10.431-5.639,14.252c-1.812,1.923-4.053,3.44-6.492,4.483
			c-2.441,1.055-5.114,1.526-7.761,1.521c-2.651-0.035-5.287-0.609-7.701-1.663c-2.413-1.059-4.606-2.582-6.452-4.44
			c-3.685-3.727-5.904-8.871-5.963-14.153c-0.128-5.273,1.988-10.594,5.752-14.364c1.868-1.893,4.112-3.418,6.569-4.454
			c2.458-1.044,5.126-1.543,7.801-1.541c5.325-0.035,10.638,2.234,14.257,6.094C201.285,15.551,203.315,20.775,203.264,25.985z
			 M203.165,25.984c-0.03-2.588-0.543-5.178-1.585-7.541c-1.042-2.36-2.553-4.499-4.41-6.256c-3.706-3.531-8.722-5.549-13.805-5.528
			c-5.051,0.006-10.087,2.046-13.692,5.628c-3.626,3.556-5.798,8.563-5.87,13.699c-0.115,5.126,1.953,10.311,5.66,13.908
			c3.652,3.663,8.829,5.616,13.909,5.52c5.097-0.028,10.109-2.083,13.809-5.62c1.853-1.763,3.363-3.903,4.406-6.264
			C202.628,31.164,203.137,28.574,203.165,25.984z"/>
	</g>
</g>
<g>
	<circle style="fill:#ED257A;" cx="153.111" cy="25.985" r="10.082"/>
	<path style="fill:#D12678;" d="M158.488,17.362c1.344,1.713,2.147,3.87,2.147,6.216c0,5.568-4.514,10.082-10.082,10.082
		c-1.914,0-3.702-0.533-5.226-1.459c1.846,2.353,4.712,3.866,7.934,3.866c5.568,0,10.082-4.514,10.082-10.082
		C163.343,22.331,161.399,19.13,158.488,17.362z"/>
	
		<ellipse transform="matrix(0.877 -0.4806 0.4806 0.877 8.7895 74.3205)" style="fill:#FFE1FF;" cx="149.536" cy="19.995" rx="2.489" ry="1.736"/>
	
		<ellipse transform="matrix(0.7611 -0.6486 0.6486 0.7611 20.1066 100.2329)" style="fill:#FFE1FF;" cx="146.135" cy="22.819" rx="1.2" ry="0.836"/>
	<g>
		<path style="fill:#231F20;" d="M163.243,25.985c-0.004,2.639-0.926,5.334-2.781,7.351c-1.817,2.04-4.598,3.228-7.351,3.147
			c-5.606-0.128-10.249-5.042-10.356-10.498c-0.112-2.713,0.948-5.493,2.894-7.461c1.925-1.988,4.661-3.182,7.475-3.154
			c2.754,0.001,5.531,1.212,7.348,3.253C162.321,20.649,163.25,23.342,163.243,25.985z M163.143,25.984
			c0.017-2.645-1.229-5.199-3.136-6.896c-1.906-1.714-4.376-2.679-6.91-2.652c-2.474,0.003-4.984,0.986-6.783,2.752
			c-1.808,1.754-2.924,4.221-3.011,6.796c-0.103,2.57,0.92,5.202,2.794,7.014c1.867,1.828,4.491,2.739,7.014,2.651
			c2.536-0.056,5.001-1.044,6.907-2.759C161.918,31.185,163.172,28.633,163.143,25.984z"/>
	</g>
</g>
<g>
	<circle style="fill:#ED257A;" cx="244.033" cy="25.984" r="19.843"/>
	<path style="fill:#D12678;" d="M254.616,9.014c2.645,3.371,4.226,7.616,4.226,12.233c0,10.959-8.883,19.843-19.843,19.843
		c-3.766,0-7.287-1.049-10.286-2.871c3.632,4.63,9.274,7.608,15.616,7.608c10.959,0,19.843-8.883,19.843-19.843
		C264.172,18.792,260.345,12.493,254.616,9.014z"/>
	
		<ellipse transform="matrix(0.8769 -0.4806 0.4806 0.8769 22.3426 115.6479)" style="fill:#FFE1FF;" cx="236.997" cy="14.196" rx="4.9" ry="3.418"/>
	
		<ellipse transform="matrix(0.7611 -0.6487 0.6487 0.7611 42.2136 154.1101)" style="fill:#FFE1FF;" cx="230.304" cy="19.752" rx="2.361" ry="1.647"/>
	<g>
		<path style="fill:#231F20;" d="M263.926,25.985c0.042,5.207-1.985,10.431-5.639,14.252c-1.812,1.923-4.053,3.44-6.492,4.483
			c-2.441,1.055-5.114,1.526-7.761,1.521c-2.651-0.035-5.287-0.609-7.701-1.663c-2.413-1.059-4.606-2.582-6.452-4.44
			c-3.685-3.727-5.904-8.871-5.963-14.153c-0.128-5.273,1.988-10.594,5.752-14.364c1.868-1.893,4.112-3.418,6.569-4.454
			c2.458-1.044,5.126-1.543,7.801-1.541c5.325-0.035,10.638,2.234,14.257,6.094C261.947,15.551,263.977,20.775,263.926,25.985z
			 M263.826,25.984c-0.03-2.588-0.543-5.178-1.585-7.541c-1.042-2.36-2.553-4.499-4.41-6.256c-3.706-3.531-8.722-5.549-13.805-5.528
			c-5.051,0.006-10.087,2.046-13.692,5.628c-3.626,3.556-5.798,8.563-5.87,13.699c-0.115,5.126,1.953,10.311,5.66,13.908
			c3.652,3.663,8.829,5.616,13.909,5.52c5.097-0.028,10.109-2.083,13.809-5.62c1.853-1.763,3.363-3.903,4.406-6.264
			C263.29,31.164,263.799,28.574,263.826,25.984z"/>
	</g>
</g>
<g>
	<circle style="fill:#ED257A;" cx="213.773" cy="25.985" r="10.082"/>
	<path style="fill:#D12678;" d="M219.149,17.362c1.344,1.713,2.147,3.87,2.147,6.216c0,5.568-4.514,10.082-10.082,10.082
		c-1.914,0-3.702-0.533-5.226-1.459c1.846,2.353,4.712,3.866,7.934,3.866c5.568,0,10.082-4.514,10.082-10.082
		C224.005,22.331,222.061,19.13,219.149,17.362z"/>
	
		<ellipse transform="matrix(0.877 -0.4806 0.4806 0.877 16.253 103.4718)" style="fill:#FFE1FF;" cx="210.198" cy="19.995" rx="2.489" ry="1.736"/>
	
		<ellipse transform="matrix(0.7611 -0.6486 0.6486 0.7611 34.5965 139.5776)" style="fill:#FFE1FF;" cx="206.797" cy="22.819" rx="1.2" ry="0.836"/>
	<g>
		<path style="fill:#231F20;" d="M223.904,25.985c-0.004,2.639-0.926,5.334-2.781,7.351c-1.817,2.04-4.598,3.228-7.351,3.147
			c-5.606-0.128-10.249-5.042-10.356-10.498c-0.112-2.713,0.948-5.493,2.894-7.461c1.925-1.988,4.661-3.182,7.475-3.154
			c2.754,0.001,5.531,1.212,7.348,3.253C222.982,20.649,223.912,23.342,223.904,25.985z M223.805,25.984
			c0.017-2.645-1.229-5.199-3.136-6.896c-1.906-1.714-4.376-2.679-6.91-2.652c-2.474,0.003-4.984,0.986-6.783,2.752
			c-1.808,1.754-2.924,4.221-3.011,6.796c-0.103,2.57,0.92,5.202,2.794,7.014c1.867,1.828,4.491,2.739,7.014,2.651
			c2.536-0.056,5.001-1.044,6.907-2.759C222.58,31.185,223.833,28.633,223.805,25.984z"/>
	</g>
</g>
<g>
	<circle style="fill:#ED257A;" cx="304.695" cy="25.984" r="19.843"/>
	<path style="fill:#D12678;" d="M315.277,9.014c2.645,3.371,4.226,7.616,4.226,12.233c0,10.959-8.883,19.843-19.843,19.843
		c-3.766,0-7.287-1.049-10.286-2.871c3.632,4.63,9.274,7.608,15.616,7.608c10.959,0,19.843-8.883,19.843-19.843
		C324.833,18.792,321.006,12.493,315.277,9.014z"/>
	
		<ellipse transform="matrix(0.8769 -0.4806 0.4806 0.8769 29.8076 144.8019)" style="fill:#FFE1FF;" cx="297.659" cy="14.196" rx="4.9" ry="3.418"/>
	
		<ellipse transform="matrix(0.7611 -0.6487 0.6487 0.7611 56.7074 193.4594)" style="fill:#FFE1FF;" cx="290.965" cy="19.752" rx="2.361" ry="1.647"/>
	<g>
		<path style="fill:#231F20;" d="M324.587,25.985c0.042,5.207-1.985,10.431-5.639,14.252c-1.812,1.923-4.053,3.44-6.492,4.483
			c-2.441,1.055-5.114,1.526-7.761,1.521c-2.651-0.035-5.287-0.609-7.701-1.663c-2.413-1.059-4.606-2.582-6.452-4.44
			c-3.685-3.727-5.904-8.871-5.963-14.153c-0.128-5.273,1.988-10.594,5.752-14.364c1.868-1.893,4.112-3.418,6.569-4.454
			c2.458-1.044,5.126-1.543,7.801-1.541c5.325-0.035,10.638,2.234,14.257,6.094C322.608,15.551,324.638,20.775,324.587,25.985z
			 M324.488,25.984c-0.03-2.588-0.543-5.178-1.585-7.541c-1.042-2.36-2.553-4.499-4.41-6.256c-3.706-3.531-8.722-5.549-13.805-5.528
			c-5.051,0.006-10.087,2.046-13.692,5.628c-3.626,3.556-5.798,8.563-5.87,13.699c-0.115,5.126,1.953,10.311,5.66,13.908
			c3.652,3.663,8.829,5.616,13.909,5.52c5.097-0.028,10.109-2.083,13.809-5.62c1.853-1.763,3.363-3.903,4.406-6.264
			C323.952,31.164,324.46,28.574,324.488,25.984z"/>
	</g>
</g>
<g>
	<circle style="fill:#ED257A;" cx="274.434" cy="25.985" r="10.082"/>
	<path style="fill:#D12678;" d="M279.811,17.362c1.344,1.713,2.147,3.87,2.147,6.216c0,5.568-4.514,10.082-10.082,10.082
		c-1.914,0-3.702-0.533-5.226-1.459c1.846,2.353,4.712,3.866,7.934,3.866c5.568,0,10.082-4.514,10.082-10.082
		C284.667,22.331,282.722,19.13,279.811,17.362z"/>
	
		<ellipse transform="matrix(0.877 -0.4806 0.4806 0.877 23.7166 132.623)" style="fill:#FFE1FF;" cx="270.859" cy="19.995" rx="2.489" ry="1.736"/>
	
		<ellipse transform="matrix(0.7611 -0.6486 0.6486 0.7611 49.0864 178.9223)" style="fill:#FFE1FF;" cx="267.458" cy="22.819" rx="1.2" ry="0.836"/>
	<g>
		<path style="fill:#231F20;" d="M284.566,25.985c-0.004,2.639-0.926,5.334-2.781,7.351c-1.817,2.04-4.598,3.228-7.351,3.147
			c-5.606-0.128-10.249-5.042-10.356-10.498c-0.112-2.713,0.948-5.493,2.894-7.461c1.925-1.988,4.661-3.182,7.475-3.154
			c2.754,0.001,5.531,1.212,7.348,3.253C283.644,20.649,284.574,23.342,284.566,25.985z M284.466,25.984
			c0.017-2.645-1.229-5.199-3.136-6.896c-1.906-1.714-4.376-2.679-6.91-2.652c-2.474,0.003-4.984,0.986-6.783,2.752
			c-1.808,1.754-2.924,4.221-3.011,6.796c-0.103,2.57,0.92,5.202,2.794,7.014c1.867,1.828,4.491,2.739,7.014,2.651
			c2.536-0.056,5.001-1.044,6.907-2.759C283.242,31.185,284.495,28.633,284.466,25.984z"/>
	</g>
</g>
<g>
	<circle style="fill:#ED257A;" cx="365.357" cy="25.984" r="19.843"/>
	<path style="fill:#D12678;" d="M375.939,9.014c2.645,3.371,4.226,7.616,4.226,12.233c0,10.959-8.883,19.843-19.843,19.843
		c-3.766,0-7.287-1.049-10.286-2.871c3.632,4.63,9.274,7.608,15.616,7.608c10.959,0,19.843-8.883,19.843-19.843
		C385.495,18.792,381.668,12.493,375.939,9.014z"/>
	
		<ellipse transform="matrix(0.8769 -0.4806 0.4806 0.8769 37.2726 173.9559)" style="fill:#FFE1FF;" cx="358.321" cy="14.196" rx="4.9" ry="3.418"/>
	
		<ellipse transform="matrix(0.7611 -0.6487 0.6487 0.7611 71.2012 232.8087)" style="fill:#FFE1FF;" cx="351.627" cy="19.752" rx="2.361" ry="1.647"/>
	<g>
		<path style="fill:#231F20;" d="M385.249,25.985c0.042,5.207-1.985,10.431-5.639,14.252c-1.812,1.923-4.053,3.44-6.492,4.483
			c-2.441,1.055-5.114,1.526-7.761,1.521c-2.651-0.035-5.287-0.609-7.701-1.663c-2.413-1.059-4.606-2.582-6.452-4.44
			c-3.685-3.727-5.904-8.871-5.963-14.153c-0.128-5.273,1.988-10.594,5.752-14.364c1.868-1.893,4.112-3.418,6.569-4.454
			c2.458-1.044,5.126-1.543,7.801-1.541c5.325-0.035,10.638,2.234,14.257,6.094C383.27,15.551,385.3,20.775,385.249,25.985z
			 M385.149,25.984c-0.03-2.588-0.543-5.178-1.585-7.541c-1.042-2.36-2.553-4.499-4.41-6.256c-3.706-3.531-8.722-5.549-13.805-5.528
			c-5.051,0.006-10.087,2.046-13.692,5.628c-3.626,3.556-5.798,8.563-5.87,13.699c-0.115,5.126,1.953,10.311,5.66,13.908
			c3.652,3.663,8.829,5.616,13.909,5.52c5.097-0.028,10.109-2.083,13.809-5.62c1.853-1.763,3.363-3.903,4.406-6.264
			C384.613,31.164,385.122,28.574,385.149,25.984z"/>
	</g>
</g>
<g>
	<circle style="fill:#ED257A;" cx="335.096" cy="25.985" r="10.082"/>
	<path style="fill:#D12678;" d="M340.473,17.362c1.344,1.713,2.147,3.87,2.147,6.216c0,5.568-4.514,10.082-10.082,10.082
		c-1.914,0-3.702-0.533-5.226-1.459c1.846,2.353,4.712,3.866,7.934,3.866c5.568,0,10.082-4.514,10.082-10.082
		C345.328,22.331,343.384,19.13,340.473,17.362z"/>
	
		<ellipse transform="matrix(0.877 -0.4806 0.4806 0.877 31.1801 161.7743)" style="fill:#FFE1FF;" cx="331.521" cy="19.995" rx="2.489" ry="1.736"/>
	
		<ellipse transform="matrix(0.7611 -0.6486 0.6486 0.7611 63.5763 218.267)" style="fill:#FFE1FF;" cx="328.12" cy="22.819" rx="1.2" ry="0.836"/>
	<g>
		<path style="fill:#231F20;" d="M345.228,25.985c-0.004,2.639-0.926,5.334-2.781,7.351c-1.817,2.04-4.598,3.228-7.351,3.147
			c-5.606-0.128-10.249-5.042-10.356-10.498c-0.112-2.713,0.948-5.493,2.894-7.461c1.925-1.988,4.661-3.182,7.475-3.154
			c2.754,0.001,5.531,1.212,7.348,3.253C344.306,20.649,345.235,23.342,345.228,25.985z M345.128,25.984
			c0.017-2.645-1.229-5.199-3.136-6.896c-1.906-1.714-4.376-2.679-6.91-2.652c-2.474,0.003-4.984,0.986-6.783,2.752
			c-1.808,1.754-2.924,4.221-3.011,6.796c-0.103,2.57,0.92,5.202,2.794,7.014c1.867,1.828,4.491,2.739,7.014,2.651
			c2.536-0.056,5.001-1.044,6.907-2.759C343.903,31.185,345.157,28.633,345.128,25.984z"/>
	</g>
</g>
<g>
	<circle style="fill:#ED257A;" cx="426.018" cy="25.984" r="19.842"/>
	<path style="fill:#D12678;" d="M436.601,9.014c2.645,3.371,4.226,7.616,4.226,12.233c0,10.959-8.883,19.843-19.842,19.843
		c-3.766,0-7.287-1.049-10.286-2.871c3.632,4.63,9.274,7.608,15.616,7.608c10.959,0,19.842-8.883,19.842-19.843
		C446.156,18.792,442.329,12.493,436.601,9.014z"/>
	
		<ellipse transform="matrix(0.8769 -0.4806 0.4806 0.8769 44.7376 203.1098)" style="fill:#FFE1FF;" cx="418.982" cy="14.196" rx="4.9" ry="3.418"/>
	
		<ellipse transform="matrix(0.7611 -0.6487 0.6487 0.7611 85.695 272.158)" style="fill:#FFE1FF;" cx="412.289" cy="19.752" rx="2.361" ry="1.647"/>
	<g>
		<path style="fill:#231F20;" d="M445.91,25.985c0.042,5.207-1.984,10.431-5.639,14.252c-1.812,1.923-4.053,3.44-6.492,4.483
			c-2.441,1.055-5.114,1.526-7.761,1.521c-2.651-0.035-5.287-0.609-7.701-1.663c-2.413-1.059-4.606-2.582-6.452-4.44
			c-3.685-3.727-5.904-8.871-5.963-14.153c-0.128-5.273,1.988-10.594,5.752-14.364c1.868-1.893,4.112-3.418,6.569-4.454
			c2.458-1.044,5.126-1.543,7.801-1.541c5.325-0.035,10.638,2.234,14.257,6.094C443.932,15.551,445.961,20.775,445.91,25.985z
			 M445.811,25.984c-0.03-2.588-0.543-5.178-1.585-7.541c-1.043-2.36-2.554-4.499-4.409-6.256
			c-3.706-3.531-8.722-5.549-13.805-5.528c-5.051,0.006-10.087,2.046-13.692,5.628c-3.626,3.556-5.798,8.563-5.87,13.699
			c-0.115,5.126,1.953,10.311,5.66,13.908c3.652,3.663,8.829,5.616,13.909,5.52c5.097-0.028,10.109-2.083,13.81-5.62
			c1.853-1.763,3.362-3.903,4.405-6.264C445.274,31.164,445.783,28.574,445.811,25.984z"/>
	</g>
</g>
<g>
	<circle style="fill:#ED257A;" cx="395.758" cy="25.985" r="10.082"/>
	<path style="fill:#D12678;" d="M401.134,17.362c1.344,1.713,2.147,3.87,2.147,6.216c0,5.568-4.514,10.082-10.082,10.082
		c-1.914,0-3.702-0.533-5.226-1.459c1.846,2.353,4.712,3.866,7.934,3.866c5.568,0,10.082-4.514,10.082-10.082
		C405.99,22.331,404.045,19.13,401.134,17.362z"/>
	
		<ellipse transform="matrix(0.877 -0.4806 0.4806 0.877 38.6436 190.9256)" style="fill:#FFE1FF;" cx="392.183" cy="19.995" rx="2.489" ry="1.736"/>
	
		<ellipse transform="matrix(0.7611 -0.6486 0.6486 0.7611 78.0662 257.6117)" style="fill:#FFE1FF;" cx="388.782" cy="22.819" rx="1.2" ry="0.836"/>
	<g>
		<path style="fill:#231F20;" d="M405.889,25.985c-0.004,2.639-0.926,5.334-2.781,7.351c-1.817,2.04-4.598,3.228-7.351,3.147
			c-5.606-0.128-10.249-5.042-10.356-10.498c-0.112-2.713,0.948-5.493,2.894-7.461c1.925-1.988,4.661-3.182,7.475-3.154
			c2.754,0.001,5.531,1.212,7.348,3.253C404.967,20.649,405.897,23.342,405.889,25.985z M405.79,25.984
			c0.017-2.645-1.229-5.199-3.136-6.896c-1.906-1.714-4.376-2.679-6.91-2.652c-2.474,0.003-4.984,0.986-6.783,2.752
			c-1.808,1.754-2.924,4.221-3.011,6.796c-0.103,2.57,0.92,5.202,2.794,7.014c1.867,1.828,4.491,2.739,7.014,2.651
			c2.536-0.056,5.001-1.044,6.907-2.759C404.565,31.185,405.818,28.633,405.79,25.984z"/>
	</g>
</g>
<g>
	<circle style="fill:#ED257A;" cx="486.679" cy="25.984" r="19.842"/>
	<path style="fill:#D12678;" d="M497.262,9.014c2.645,3.371,4.227,7.616,4.227,12.233c0,10.959-8.884,19.843-19.843,19.843
		c-3.766,0-7.287-1.049-10.286-2.871c3.633,4.63,9.274,7.608,15.616,7.608c10.959,0,19.842-8.883,19.842-19.843
		C506.817,18.792,502.99,12.493,497.262,9.014z"/>
	
		<ellipse transform="matrix(0.877 -0.4806 0.4806 0.877 52.1974 232.2535)" style="fill:#FFE1FF;" cx="479.644" cy="14.196" rx="4.9" ry="3.417"/>
	
		<ellipse transform="matrix(0.7611 -0.6487 0.6487 0.7611 100.1888 311.5072)" style="fill:#FFE1FF;" cx="472.95" cy="19.752" rx="2.361" ry="1.647"/>
	<g>
		<path style="fill:#231F20;" d="M506.571,25.985c0.042,5.207-1.984,10.431-5.639,14.252c-1.812,1.923-4.053,3.44-6.492,4.483
			c-2.441,1.054-5.114,1.526-7.761,1.521c-2.651-0.035-5.287-0.609-7.701-1.663c-2.413-1.06-4.606-2.582-6.452-4.44
			c-3.685-3.727-5.904-8.871-5.963-14.153c-0.128-5.273,1.987-10.594,5.752-14.363c1.868-1.893,4.111-3.418,6.569-4.454
			c2.459-1.044,5.126-1.543,7.801-1.541c5.325-0.035,10.638,2.234,14.257,6.094C504.593,15.551,506.622,20.775,506.571,25.985z
			 M506.472,25.984c-0.03-2.588-0.543-5.178-1.585-7.541c-1.043-2.36-2.554-4.499-4.409-6.256
			c-3.706-3.531-8.723-5.549-13.806-5.528c-5.051,0.006-10.087,2.046-13.691,5.629c-3.626,3.556-5.798,8.563-5.87,13.698
			c-0.114,5.126,1.954,10.311,5.661,13.908c3.652,3.663,8.828,5.616,13.908,5.52c5.097-0.028,10.109-2.082,13.809-5.62
			c1.854-1.763,3.363-3.903,4.406-6.264C505.936,31.164,506.444,28.574,506.472,25.984z"/>
	</g>
</g>
<g>
	<circle style="fill:#ED257A;" cx="456.419" cy="25.985" r="10.082"/>
	<path style="fill:#D12678;" d="M461.796,17.362c1.344,1.713,2.147,3.87,2.147,6.216c0,5.568-4.514,10.082-10.082,10.082
		c-1.914,0-3.702-0.533-5.227-1.459c1.846,2.353,4.713,3.866,7.935,3.866c5.568,0,10.082-4.514,10.082-10.082
		C466.651,22.331,464.707,19.13,461.796,17.362z"/>
	
		<ellipse transform="matrix(0.877 -0.4806 0.4806 0.877 46.1072 220.0768)" style="fill:#FFE1FF;" cx="452.844" cy="19.995" rx="2.489" ry="1.736"/>
	
		<ellipse transform="matrix(0.7611 -0.6486 0.6486 0.7611 92.5562 296.9564)" style="fill:#FFE1FF;" cx="449.443" cy="22.819" rx="1.2" ry="0.836"/>
	<g>
		<path style="fill:#231F20;" d="M466.551,25.985c-0.004,2.639-0.927,5.334-2.781,7.351c-1.817,2.04-4.598,3.228-7.351,3.147
			c-5.605-0.128-10.248-5.042-10.355-10.498c-0.112-2.713,0.947-5.493,2.894-7.461c1.925-1.988,4.661-3.182,7.476-3.154
			c2.754,0.001,5.53,1.212,7.348,3.253C465.629,20.649,466.559,23.342,466.551,25.985z M466.451,25.984
			c0.017-2.645-1.229-5.199-3.136-6.896c-1.906-1.714-4.376-2.679-6.91-2.652c-2.474,0.003-4.984,0.986-6.783,2.752
			c-1.808,1.754-2.924,4.221-3.011,6.796c-0.103,2.57,0.92,5.202,2.794,7.014c1.866,1.828,4.49,2.739,7.014,2.651
			c2.536-0.056,5.002-1.044,6.907-2.759C465.227,31.185,466.479,28.633,466.451,25.984z"/>
	</g>
</g>
<g>
	<circle style="fill:#ED257A;" cx="547.34" cy="25.984" r="19.842"/>
	<path style="fill:#D12678;" d="M557.923,9.014c2.645,3.371,4.227,7.616,4.227,12.233c0,10.959-8.884,19.843-19.843,19.843
		c-3.766,0-7.287-1.049-10.286-2.871c3.633,4.63,9.274,7.608,15.616,7.608c10.959,0,19.842-8.883,19.842-19.843
		C567.479,18.792,563.651,12.493,557.923,9.014z"/>
	
		<ellipse transform="matrix(0.877 -0.4806 0.4806 0.877 59.6617 261.4059)" style="fill:#FFE1FF;" cx="540.305" cy="14.196" rx="4.9" ry="3.417"/>
	
		<ellipse transform="matrix(0.7611 -0.6487 0.6487 0.7611 114.6825 350.8562)" style="fill:#FFE1FF;" cx="533.611" cy="19.752" rx="2.361" ry="1.647"/>
	<g>
		<path style="fill:#231F20;" d="M567.232,25.985c0.042,5.207-1.984,10.431-5.639,14.252c-1.812,1.923-4.053,3.44-6.492,4.483
			c-2.441,1.054-5.114,1.526-7.761,1.521c-2.651-0.035-5.287-0.609-7.701-1.663c-2.413-1.06-4.606-2.582-6.452-4.44
			c-3.685-3.727-5.904-8.871-5.963-14.153c-0.128-5.273,1.987-10.594,5.752-14.363c1.868-1.893,4.111-3.418,6.569-4.454
			c2.459-1.044,5.126-1.543,7.801-1.541c5.325-0.035,10.638,2.234,14.257,6.094C565.254,15.551,567.283,20.775,567.232,25.985z
			 M567.133,25.984c-0.03-2.588-0.543-5.178-1.585-7.541c-1.043-2.36-2.554-4.499-4.409-6.256
			c-3.706-3.531-8.723-5.549-13.806-5.528c-5.051,0.006-10.087,2.046-13.691,5.629c-3.626,3.556-5.798,8.563-5.87,13.698
			c-0.114,5.126,1.954,10.311,5.661,13.908c3.652,3.663,8.828,5.616,13.908,5.52c5.097-0.028,10.109-2.082,13.809-5.62
			c1.854-1.763,3.363-3.903,4.406-6.264C566.597,31.164,567.105,28.574,567.133,25.984z"/>
	</g>
</g>
<g>
	<circle style="fill:#ED257A;" cx="517.08" cy="25.985" r="10.082"/>
	<path style="fill:#D12678;" d="M522.457,17.362c1.344,1.713,2.147,3.87,2.147,6.216c0,5.568-4.514,10.082-10.082,10.082
		c-1.914,0-3.702-0.533-5.227-1.459c1.846,2.353,4.713,3.866,7.935,3.866c5.568,0,10.082-4.514,10.082-10.082
		C527.312,22.331,525.368,19.13,522.457,17.362z"/>
	
		<ellipse transform="matrix(0.877 -0.4806 0.4806 0.877 53.5706 249.2278)" style="fill:#FFE1FF;" cx="513.505" cy="19.995" rx="2.489" ry="1.736"/>
	
		<ellipse transform="matrix(0.7611 -0.6486 0.6486 0.7611 107.046 336.3008)" style="fill:#FFE1FF;" cx="510.104" cy="22.819" rx="1.2" ry="0.836"/>
	<g>
		<path style="fill:#231F20;" d="M527.212,25.985c-0.004,2.64-0.927,5.334-2.78,7.351c-1.818,2.04-4.599,3.228-7.352,3.147
			c-5.605-0.128-10.249-5.042-10.355-10.498c-0.112-2.713,0.947-5.493,2.894-7.462c1.919-1.988,4.675-3.181,7.462-3.153
			c2.781,0.001,5.538,1.212,7.361,3.253C526.29,20.649,527.22,23.342,527.212,25.985z M527.112,25.984
			c0.017-2.645-1.229-5.199-3.136-6.896c-1.9-1.714-4.39-2.679-6.896-2.652c-2.501,0.003-4.992,0.986-6.797,2.752
			c-1.808,1.754-2.924,4.221-3.012,6.796c-0.103,2.57,0.921,5.202,2.794,7.014c1.867,1.828,4.491,2.739,7.015,2.651
			c2.536-0.056,5.002-1.044,6.907-2.759C525.888,31.185,527.141,28.633,527.112,25.984z"/>
	</g>
</g>
<g>
	<circle style="fill:#ED257A;" cx="577.741" cy="25.985" r="10.082"/>
	<path style="fill:#D12678;" d="M583.118,17.362c1.344,1.713,2.147,3.87,2.147,6.216c0,5.568-4.514,10.082-10.082,10.082
		c-1.914,0-3.702-0.533-5.227-1.459c1.846,2.353,4.713,3.866,7.935,3.866c5.568,0,10.082-4.514,10.082-10.082
		C587.974,22.331,586.029,19.13,583.118,17.362z"/>
	
		<ellipse transform="matrix(0.877 -0.4806 0.4806 0.877 61.0341 278.3789)" style="fill:#FFE1FF;" cx="574.167" cy="19.995" rx="2.489" ry="1.736"/>
	
		<ellipse transform="matrix(0.7611 -0.6486 0.6486 0.7611 121.5357 375.6452)" style="fill:#FFE1FF;" cx="570.766" cy="22.819" rx="1.2" ry="0.836"/>
	<g>
		<path style="fill:#231F20;" d="M587.873,25.985c-0.004,2.64-0.927,5.334-2.78,7.351c-1.818,2.04-4.599,3.228-7.352,3.147
			c-5.605-0.128-10.249-5.042-10.355-10.498c-0.112-2.713,0.947-5.493,2.894-7.462c1.919-1.988,4.675-3.181,7.462-3.153
			c2.781,0.001,5.538,1.212,7.361,3.253C586.951,20.649,587.881,23.342,587.873,25.985z M587.773,25.984
			c0.018-2.645-1.229-5.199-3.136-6.896c-1.9-1.714-4.39-2.679-6.896-2.652c-2.501,0.003-4.992,0.986-6.797,2.752
			c-1.808,1.754-2.924,4.221-3.012,6.796c-0.103,2.57,0.921,5.202,2.794,7.014c1.867,1.828,4.491,2.739,7.015,2.651
			c2.536-0.056,5.002-1.044,6.907-2.759C586.549,31.185,587.802,28.633,587.773,25.984z"/>
	</g>
</g>
</svg>
