<?xml version="1.0" encoding="iso-8859-1"?>
<!-- Generator: Adobe Illustrator 16.0.0, SVG Export Plug-In . SVG Version: 6.00 Build 0)  -->
<!DOCTYPE svg PUBLIC "-//W3C//DTD SVG 1.1//EN" "http://www.w3.org/Graphics/SVG/1.1/DTD/svg11.dtd">
<svg version="1.1" id="Layer_1" xmlns="http://www.w3.org/2000/svg" xmlns:xlink="http://www.w3.org/1999/xlink" x="0px" y="0px"
	 width="610px" height="57px" viewBox="0 0 610 57" style="enable-background:new 0 0 610 57;" xml:space="preserve">
<g>
	<g>
		<path style="fill:#F7BC60;" d="M16.166,36.25c-3.4,0-6.167-2.766-6.167-6.166s2.766-6.167,6.167-6.167s6.167,2.767,6.167,6.167
			S19.566,36.25,16.166,36.25z M16.166,25.917c-2.297,0-4.167,1.869-4.167,4.167c0,2.297,1.869,4.166,4.167,4.166
			s4.167-1.869,4.167-4.166C20.333,27.786,18.463,25.917,16.166,25.917z"/>
		<g>
			<path style="fill:#231F20;" d="M16.161,36.3c0,0-0.151-0.013-0.433-0.039c-0.28-0.051-0.701,0-1.217-0.174
				c-0.256-0.078-0.557-0.13-0.869-0.232c-0.299-0.136-0.623-0.283-0.969-0.439c-0.327-0.193-0.649-0.446-1.008-0.695
				c-0.32-0.288-0.636-0.628-0.953-0.993c-0.531-0.795-1.016-1.78-1.078-2.899c-0.011-0.294-0.06-0.523-0.037-0.877
				c0.042-0.264,0.084-0.53,0.126-0.8c0.021-0.265,0.12-0.551,0.231-0.836c0.111-0.279,0.191-0.577,0.336-0.836
				c0.564-1.051,1.398-1.939,2.382-2.658c1.026-0.67,2.23-1.058,3.493-1.179c0.666,0.053,1.207-0.013,1.868,0.203
				c0.662,0.128,1.21,0.454,1.783,0.738c1.057,0.714,1.918,1.681,2.451,2.795c0.137,0.273,0.211,0.573,0.308,0.859
				c0.097,0.288,0.184,0.574,0.194,0.873c0.03,0.295,0.059,0.587,0.088,0.875c0,0.06,0.01,0.019,0.003,0.161l-0.012,0.099
				l-0.023,0.196l-0.046,0.39c-0.017,0.496-0.219,1.063-0.399,1.578c-0.181,0.516-0.5,0.914-0.742,1.333
				c-0.323,0.362-0.639,0.703-0.962,0.99c-0.361,0.248-0.686,0.499-1.013,0.692c-0.347,0.157-0.671,0.304-0.971,0.439
				c-0.31,0.101-0.608,0.152-0.865,0.23c-0.511,0.173-0.946,0.121-1.226,0.171c-0.284,0.023-0.436,0.036-0.436,0.036H16.161z
				 M16.166,36.2c0,0,0.149-0.018,0.428-0.051c0.273-0.059,0.702-0.014,1.184-0.239c0.244-0.092,0.521-0.174,0.796-0.318
				c0.26-0.169,0.542-0.352,0.842-0.546c0.276-0.223,0.53-0.509,0.814-0.775c0.249-0.304,0.461-0.661,0.71-0.998
				c0.151-0.394,0.412-0.772,0.52-1.19c0.099-0.421,0.283-0.801,0.284-1.356c0.146-0.96-0.08-1.955-0.422-2.926
				c-0.41-0.96-1.115-1.808-1.993-2.482c-0.476-0.275-0.946-0.607-1.473-0.744c-0.467-0.25-1.162-0.273-1.69-0.382
				c-1.159-0.023-2.332,0.264-3.321,0.889c-0.95,0.669-1.683,1.597-2.062,2.619c-0.103,0.249-0.132,0.512-0.204,0.756
				c-0.068,0.244-0.131,0.484-0.123,0.771c-0.012,0.272-0.024,0.542-0.036,0.809c0.003,0.176,0.061,0.471,0.085,0.694
				c0.083,0.969,0.492,1.797,0.866,2.557c0.256,0.334,0.469,0.692,0.721,0.995c0.286,0.266,0.542,0.549,0.819,0.773
				c0.301,0.195,0.583,0.377,0.844,0.545c0.273,0.144,0.549,0.225,0.792,0.316c0.478,0.224,0.919,0.178,1.192,0.236
				c0.282,0.032,0.432,0.049,0.432,0.049H16.166z"/>
			<path style="fill:#231F20;" d="M16.171,25.967c0,0-0.101,0.012-0.292,0.035c-0.183,0.04-0.485,0.01-0.802,0.169
				c-0.162,0.064-0.344,0.123-0.522,0.228c-0.17,0.119-0.354,0.248-0.55,0.386c-0.178,0.156-0.341,0.353-0.522,0.535
				c-0.159,0.207-0.286,0.451-0.449,0.672c-0.228,0.507-0.492,1.042-0.551,1.672c-0.019,0.139-0.059,0.349-0.065,0.439
				c0.003,0.181,0.006,0.364,0.009,0.548c-0.01,0.197,0.026,0.353,0.066,0.511c0.042,0.16,0.054,0.332,0.117,0.498
				c0.225,0.688,0.706,1.317,1.34,1.766c0.645,0.429,1.483,0.579,2.189,0.553c0.865-0.12,1.478-0.374,2.085-0.792
				c0.564-0.449,1.016-1.003,1.272-1.626c0.212-0.632,0.358-1.267,0.271-1.892c0.001-0.384-0.12-0.611-0.174-0.88
				c-0.061-0.267-0.228-0.519-0.314-0.781c-0.157-0.223-0.283-0.467-0.439-0.675c-0.179-0.183-0.339-0.381-0.518-0.537
				c-0.195-0.138-0.378-0.267-0.548-0.387c-0.18-0.105-0.364-0.165-0.527-0.229c-0.32-0.16-0.609-0.131-0.792-0.172
				c-0.188-0.024-0.288-0.037-0.288-0.037H16.171z M16.166,25.867c0,0,0.103,0.007,0.296,0.022c0.19,0.032,0.485-0.004,0.835,0.105
				c0.175,0.05,0.38,0.08,0.595,0.141c0.209,0.086,0.436,0.18,0.677,0.279c0.229,0.126,0.46,0.29,0.717,0.455
				c0.23,0.19,0.461,0.418,0.691,0.667c0.178,0.287,0.403,0.559,0.538,0.923c0.134,0.362,0.273,0.776,0.288,1.102
				c0.152,0.769-0.032,1.635-0.361,2.418c-0.38,0.777-0.987,1.45-1.73,1.938c-0.754,0.456-1.747,0.658-2.518,0.604
				c-0.93-0.093-1.697-0.399-2.414-0.844c-0.673-0.489-1.251-1.086-1.663-1.8c-0.104-0.177-0.167-0.384-0.249-0.578
				c-0.082-0.199-0.154-0.399-0.173-0.575c-0.034-0.182-0.067-0.362-0.101-0.54c-0.019-0.268,0.012-0.412,0.017-0.622
				c0.04-0.78,0.379-1.471,0.763-2.015c0.224-0.251,0.454-0.478,0.681-0.67c0.255-0.165,0.483-0.331,0.712-0.457
				c0.241-0.1,0.467-0.193,0.675-0.28c0.216-0.062,0.424-0.093,0.6-0.144c0.354-0.109,0.636-0.074,0.826-0.107
				c0.19-0.016,0.292-0.024,0.292-0.024H16.166z"/>
		</g>
	</g>
</g>
<line style="fill:none;stroke:#000000;stroke-width:2;stroke-linecap:round;stroke-linejoin:round;stroke-miterlimit:10;" x1="25.526" y1="30.084" x2="19.666" y2="30.084"/>
<g>
	<path style="fill:#F7BC60;" d="M603.715,25.511c-0.27-0.475-0.603-0.903-0.975-1.293l1.066-1.778
		c0.427-0.71,0.196-1.632-0.515-2.058c-0.708-0.426-1.631-0.196-2.058,0.514l-1.179,1.964c-0.373,0.099-0.706,0.341-0.914,0.701
		c-0.326-0.06-0.658-0.101-0.996-0.101c-0.961,0-1.913,0.252-2.754,0.73c-0.341,0.194-0.652,0.423-0.94,0.676
		c-0.011-0.007-0.02-0.017-0.031-0.023c-0.708-0.43-1.63-0.202-2.06,0.508c-1.232,2.041-1.269,4.595-0.092,6.666
		c0.868,1.529,2.28,2.627,3.976,3.094c0.581,0.16,1.171,0.239,1.758,0.239c1.125,0,2.237-0.292,3.242-0.863
		c1.529-0.869,2.628-2.281,3.095-3.976C604.806,28.815,604.584,27.039,603.715,25.511z M595.886,25.059
		c0.69-0.392,1.472-0.6,2.26-0.6c0.278,0,0.551,0.034,0.818,0.083c0.071,0.442,0.332,0.849,0.755,1.081
		c0.579,0.317,1.06,0.792,1.389,1.37c0.473,0.832,0.594,1.798,0.339,2.721c-0.254,0.923-0.852,1.691-1.685,2.165
		s-1.801,0.594-2.721,0.34c-0.923-0.254-1.691-0.853-2.164-1.684c-0.641-1.128-0.621-2.52,0.052-3.632
		c0.234-0.388,0.266-0.837,0.137-1.237C595.315,25.438,595.585,25.23,595.886,25.059z"/>
	<g>
		<path style="fill:#231F20;" d="M603.672,25.537l-0.453-0.671c-0.176-0.201-0.351-0.403-0.532-0.597
			c-0.022-0.024-0.024-0.062-0.01-0.089l0.544-0.996l0.262-0.504c0.093-0.183,0.171-0.314,0.235-0.497
			c0.068-0.186,0.078-0.299,0.071-0.474c-0.001-0.159-0.038-0.32-0.108-0.459c-0.059-0.143-0.149-0.276-0.264-0.375
			c-0.099-0.108-0.246-0.193-0.364-0.239c-0.203-0.091-0.291-0.083-0.431-0.09c-0.143,0-0.283,0.02-0.414,0.067
			c-0.133,0.047-0.251,0.12-0.354,0.208c-0.104,0.093-0.178,0.194-0.26,0.317c-0.372,0.658-0.764,1.305-1.158,1.949
			c-0.062,0.1-0.155,0.168-0.26,0.198l-0.007,0.002c-0.134,0.039-0.261,0.093-0.379,0.171c-0.113,0.086-0.207,0.189-0.291,0.308
			l-0.017,0.023c-0.097,0.137-0.26,0.199-0.415,0.176l-0.578-0.087l-0.291-0.046c-0.05-0.019-0.195-0.002-0.288-0.005
			c-0.203,0.011-0.435-0.01-0.612,0.032c-0.188,0.033-0.38,0.045-0.572,0.092l-0.577,0.161l-0.556,0.234l-0.07,0.03l-0.018,0.007
			c0.033-0.022,0,0,0.003-0.002l-0.033,0.021l-0.132,0.085l-0.265,0.172l-0.522,0.352l-0.011,0.007
			c-0.06,0.04-0.135,0.037-0.19-0.002c-0.475-0.334-1.11-0.293-1.559,0.066c-0.232,0.174-0.34,0.428-0.484,0.718l-0.208,0.42
			l-0.144,0.428c-0.21,0.56-0.282,1.183-0.293,1.782c-0.016,0.604,0.082,1.202,0.235,1.777c0.08,0.287,0.206,0.559,0.304,0.837
			l0.39,0.752c0.384,0.479,0.727,1.069,1.177,1.379c0.378,0.411,0.904,0.685,1.397,0.988c0.257,0.131,0.542,0.204,0.811,0.311
			l0.375,0.141l0.461,0.086c0.319,0.076,0.601,0.09,0.869,0.094c0.128,0.002,0.296,0.032,0.391,0.016l0.468-0.031
			c0.61-0.049,1.092-0.196,1.661-0.383c0.249-0.094,0.565-0.267,0.746-0.332l0.774-0.53c0.29-0.161,0.465-0.367,0.661-0.563
			c0.182-0.213,0.434-0.354,0.581-0.616l0.515-0.717c0.16-0.248,0.259-0.53,0.394-0.797c0.062-0.124,0.135-0.298,0.187-0.382
			l0.111-0.457c0.062-0.304,0.167-0.613,0.196-0.912c0.018-0.591,0.087-1.209-0.085-1.812
			C604.231,26.654,603.893,26.116,603.672,25.537z M603.758,25.484c0.247,0.578,0.586,1.127,0.701,1.756
			c0.206,0.605,0.237,1.248,0.287,1.908c0.007,0.324-0.057,0.626-0.082,0.941l-0.048,0.468l-0.149,0.495
			c-0.105,0.309-0.177,0.638-0.315,0.938l-0.486,0.871c-0.138,0.306-0.421,0.537-0.639,0.802c-0.233,0.259-0.47,0.53-0.725,0.69
			l-0.759,0.552c-0.386,0.203-0.621,0.329-0.95,0.473c-0.324,0.103-0.625,0.246-0.972,0.31c-0.337,0.058-0.712,0.159-1.008,0.158
			l-0.469,0.029c-0.218,0.021-0.361-0.013-0.546-0.019c-0.358-0.023-0.699-0.063-0.989-0.144l-0.458-0.102
			c-0.222-0.074-0.331-0.127-0.502-0.192c-0.309-0.133-0.633-0.234-0.925-0.396c-0.564-0.367-1.146-0.698-1.611-1.231
			c-0.542-0.479-0.792-1.021-1.16-1.539c-0.177-0.366-0.292-0.619-0.418-0.941c-0.084-0.32-0.191-0.632-0.25-0.955
			c-0.109-0.648-0.155-1.302-0.09-1.948c0.061-0.647,0.201-1.275,0.434-1.884l0.171-0.457l0.221-0.415
			c0.138-0.261,0.299-0.601,0.585-0.801c0.267-0.216,0.598-0.355,0.944-0.381c0.347-0.017,0.712,0.077,0.998,0.245l-0.201,0.005
			l0.5-0.383l0.247-0.196l0.123-0.098l0.031-0.024c0.014-0.01-0.01,0.004,0.035-0.024l0.018-0.01l0.072-0.04l0.578-0.314l0.616-0.24
			c0.21-0.074,0.438-0.115,0.659-0.171c0.23-0.066,0.425-0.062,0.638-0.094c0.117-0.008,0.182-0.032,0.341-0.027l0.336,0.017
			l0.675,0.041l-0.432,0.199c0.129-0.216,0.288-0.411,0.484-0.574c0.202-0.155,0.429-0.272,0.673-0.348l-0.266,0.2
			c0.384-0.651,0.77-1.301,1.176-1.939c0.129-0.191,0.287-0.389,0.485-0.529c0.195-0.141,0.415-0.248,0.646-0.308
			c0.23-0.058,0.471-0.081,0.705-0.044c0.233,0.028,0.52,0.135,0.648,0.223c0.216,0.122,0.387,0.263,0.524,0.447
			c0.146,0.172,0.252,0.379,0.31,0.591c0.068,0.209,0.091,0.435,0.067,0.65c-0.007,0.201-0.09,0.467-0.177,0.622
			c-0.082,0.167-0.215,0.351-0.313,0.494l-0.321,0.468l-0.622,0.949l-0.01-0.089l0.522,0.635L603.758,25.484z"/>
		<path style="fill:#231F20;" d="M595.862,25.015c0.241-0.114,0.464-0.258,0.723-0.346c0.248-0.115,0.508-0.198,0.771-0.273
			c0.131-0.047,0.266-0.073,0.402-0.097l0.206-0.04c0.078-0.011,0.118-0.032,0.229-0.034l0.801-0.02
			c0.124-0.003,0.23,0.075,0.27,0.185l0.035,0.099c0.11,0.311,0.31,0.546,0.556,0.694l0.511,0.324
			c0.178,0.154,0.39,0.307,0.528,0.488c0.145,0.179,0.297,0.351,0.395,0.56c0.058,0.114,0.101,0.168,0.169,0.33l0.099,0.292
			c0.146,0.355,0.22,0.882,0.214,1.301c-0.026,0.218,0,0.436-0.046,0.646c-0.052,0.209-0.084,0.42-0.128,0.629l-0.223,0.589
			c-0.075,0.191-0.211,0.376-0.312,0.569c-0.243,0.356-0.501,0.718-0.858,0.977l-0.257,0.212c-0.138,0.095-0.193,0.113-0.294,0.173
			c-0.191,0.093-0.33,0.218-0.572,0.28c-0.224,0.063-0.458,0.154-0.687,0.185l-0.689,0.047l-0.686-0.096
			c-0.312-0.067-0.421-0.134-0.641-0.201c-0.184-0.042-0.416-0.199-0.627-0.316c-0.229-0.118-0.407-0.271-0.577-0.432
			c-0.177-0.158-0.344-0.322-0.469-0.523l-0.204-0.288c-0.04-0.062-0.054-0.065-0.114-0.176l-0.063-0.14l-0.126-0.281l-0.112-0.356
			c-0.085-0.243-0.099-0.466-0.137-0.699c-0.022-0.465,0.009-0.935,0.167-1.368c0.131-0.426,0.402-0.847,0.626-1.149
			c0.052-0.085,0.119-0.177,0.158-0.258l0.082-0.241l0.031-0.28l-0.037-0.285l-0.004-0.034c-0.004-0.026,0.009-0.051,0.03-0.064
			C595.302,25.413,595.58,25.209,595.862,25.015z M595.909,25.104c-0.265,0.209-0.533,0.41-0.78,0.632l0.026-0.099
			c0.07,0.207,0.121,0.42,0.13,0.65c-0.004,0.116-0.025,0.237-0.039,0.361c-0.022,0.113-0.058,0.202-0.087,0.303
			c-0.157,0.42-0.255,0.742-0.271,1.126c-0.046,0.364-0.004,0.727,0.044,1.074c0.05,0.167,0.064,0.357,0.131,0.498l0.079,0.228
			l0.141,0.273c0.171,0.274,0.354,0.603,0.622,0.819c0.119,0.132,0.242,0.255,0.379,0.332c0.143,0.087,0.229,0.204,0.445,0.274
			c0.167,0.064,0.428,0.194,0.517,0.206l0.524,0.114l0.54,0.016c0.179,0.004,0.338-0.042,0.516-0.055
			c0.17,0.008,0.381-0.106,0.57-0.159c0.083-0.03,0.228-0.073,0.259-0.093l0.246-0.143c0.168-0.092,0.335-0.19,0.469-0.33
			c0.137-0.132,0.312-0.246,0.401-0.413c0.103-0.161,0.234-0.298,0.311-0.487l0.217-0.559c0.026-0.195,0.063-0.388,0.082-0.582
			c0.015-0.193-0.021-0.39-0.041-0.58c-0.006-0.196-0.102-0.362-0.148-0.535c-0.039-0.167-0.139-0.344-0.246-0.525l-0.151-0.269
			l-0.157-0.188c-0.111-0.146-0.241-0.272-0.369-0.4c-0.13-0.127-0.257-0.215-0.385-0.332c-0.177-0.11-0.34-0.212-0.516-0.351
			c-0.439-0.299-0.714-0.812-0.737-1.312l0.305,0.284l-0.783-0.18c-0.022-0.011-0.115-0.011-0.169-0.017l-0.191-0.014
			c-0.129-0.015-0.259-0.016-0.387,0.001c-0.262,0.007-0.516,0.055-0.765,0.131C596.382,24.852,596.153,25.005,595.909,25.104z"/>
	</g>
</g>
<line style="fill:none;stroke:#000000;stroke-width:2;stroke-linecap:round;stroke-linejoin:round;stroke-miterlimit:10;" x1="587.002" y1="28.667" x2="594.002" y2="28.667"/>
<g>
	<circle style="fill:#FFDA00;" cx="66.049" cy="29.15" r="19.843"/>
	<path style="fill:#EDC603;" d="M76.631,12.18c2.645,3.371,4.226,7.617,4.226,12.234c0,10.959-8.883,19.842-19.843,19.842
		c-3.766,0-7.287-1.049-10.286-2.87c3.632,4.63,9.274,7.608,15.616,7.608c10.959,0,19.843-8.884,19.843-19.844
		C86.187,21.959,82.36,15.66,76.631,12.18z"/>
	
		<ellipse transform="matrix(0.877 -0.4806 0.4806 0.877 -1.0828 30.4954)" style="fill:#FFE1FF;" cx="59.012" cy="17.362" rx="4.899" ry="3.418"/>
	
		<ellipse transform="matrix(0.761 -0.6487 0.6487 0.761 -2.3647 39.4178)" style="fill:#FFE1FF;" cx="52.319" cy="22.918" rx="2.361" ry="1.646"/>
	<g>
		<path style="fill:#231F20;" d="M85.941,29.15c0.042,5.207-1.985,10.432-5.639,14.253c-1.812,1.923-4.053,3.44-6.492,4.483
			c-2.441,1.055-5.114,1.526-7.761,1.521c-2.651-0.034-5.287-0.609-7.702-1.663c-2.413-1.06-4.606-2.581-6.452-4.439
			c-3.685-3.728-5.904-8.872-5.964-14.153c-0.128-5.273,1.988-10.595,5.752-14.364c1.868-1.893,4.111-3.418,6.569-4.454
			c2.456-1.044,5.133-1.543,7.794-1.541c5.338-0.035,10.642,2.234,14.264,6.094C83.962,18.717,85.992,23.941,85.941,29.15z
			 M85.841,29.15c-0.03-2.589-0.543-5.179-1.585-7.542c-1.043-2.359-2.553-4.499-4.41-6.256c-3.703-3.531-8.729-5.55-13.799-5.528
			c-5.064,0.006-10.091,2.047-13.698,5.629c-3.626,3.556-5.798,8.563-5.87,13.699c-0.114,5.126,1.954,10.311,5.661,13.908
			c3.652,3.663,8.829,5.615,13.909,5.52c5.097-0.028,10.109-2.083,13.809-5.62c1.854-1.763,3.364-3.903,4.406-6.265
			C85.305,34.33,85.814,31.74,85.841,29.15z"/>
	</g>
	<circle style="fill:#FFDA00;" cx="35.788" cy="29.151" r="10.082"/>
	<path style="fill:#EDC603;" d="M41.165,20.529c1.344,1.713,2.147,3.869,2.147,6.215c0,5.568-4.514,10.082-10.082,10.082
		c-1.914,0-3.702-0.533-5.226-1.459c1.846,2.354,4.712,3.866,7.934,3.866c5.568,0,10.082-4.514,10.082-10.082
		C46.02,25.497,44.076,22.297,41.165,20.529z"/>
	
		<ellipse transform="matrix(0.877 -0.4806 0.4806 0.877 -7.1669 18.3297)" style="fill:#FFE1FF;" cx="32.213" cy="23.161" rx="2.489" ry="1.736"/>
	
		<ellipse transform="matrix(0.761 -0.6487 0.6487 0.761 -9.9719 24.9003)" style="fill:#FFE1FF;" cx="28.812" cy="25.985" rx="1.2" ry="0.836"/>
	<g>
		<path style="fill:#231F20;" d="M45.919,29.152c-0.004,2.639-0.926,5.334-2.781,7.35c-1.817,2.04-4.598,3.228-7.351,3.147
			c-5.605-0.129-10.249-5.042-10.356-10.497c-0.112-2.713,0.948-5.493,2.894-7.462c1.918-1.988,4.674-3.181,7.461-3.153
			c2.781,0.002,5.538,1.212,7.361,3.253C44.998,23.815,45.927,26.508,45.919,29.152z M45.82,29.15
			c0.017-2.644-1.229-5.198-3.136-6.895c-1.9-1.714-4.389-2.679-6.896-2.652c-2.501,0.003-4.992,0.986-6.796,2.752
			c-1.808,1.755-2.924,4.222-3.011,6.797c-0.103,2.569,0.921,5.202,2.794,7.014c1.867,1.828,4.491,2.739,7.014,2.651
			c2.536-0.056,5.001-1.044,6.907-2.759C44.595,34.352,45.849,31.8,45.82,29.15z"/>
	</g>
</g>
<g>
	<circle style="fill:#FFDA00;" cx="126.143" cy="29.15" r="19.843"/>
	<path style="fill:#EDC603;" d="M136.726,12.18c2.645,3.371,4.226,7.617,4.226,12.234c0,10.959-8.883,19.842-19.843,19.842
		c-3.766,0-7.287-1.049-10.286-2.87c3.632,4.63,9.274,7.608,15.616,7.608c10.959,0,19.843-8.884,19.843-19.844
		C146.282,21.959,142.455,15.66,136.726,12.18z"/>
	
		<ellipse transform="matrix(0.877 -0.4806 0.4806 0.877 6.3112 59.3746)" style="fill:#FFE1FF;" cx="119.107" cy="17.362" rx="4.899" ry="3.418"/>
	
		<ellipse transform="matrix(0.761 -0.6487 0.6487 0.761 11.9967 78.4029)" style="fill:#FFE1FF;" cx="112.414" cy="22.918" rx="2.361" ry="1.646"/>
	<g>
		<path style="fill:#231F20;" d="M146.036,29.15c0.042,5.207-1.985,10.432-5.639,14.253c-1.812,1.923-4.053,3.44-6.492,4.483
			c-2.441,1.055-5.114,1.526-7.761,1.521c-2.651-0.034-5.287-0.609-7.702-1.663c-2.413-1.06-4.606-2.581-6.452-4.439
			c-3.685-3.728-5.904-8.872-5.964-14.153c-0.128-5.273,1.988-10.595,5.752-14.364c1.868-1.893,4.111-3.418,6.569-4.454
			c2.456-1.044,5.133-1.543,7.794-1.541c5.338-0.035,10.642,2.234,14.264,6.094C144.057,18.717,146.086,23.941,146.036,29.15z
			 M145.936,29.15c-0.03-2.589-0.543-5.179-1.585-7.542c-1.043-2.359-2.553-4.499-4.41-6.256c-3.703-3.531-8.729-5.55-13.799-5.528
			c-5.064,0.006-10.091,2.047-13.698,5.629c-3.626,3.556-5.798,8.563-5.87,13.699c-0.114,5.126,1.954,10.311,5.661,13.908
			c3.652,3.663,8.829,5.615,13.909,5.52c5.097-0.028,10.109-2.083,13.809-5.62c1.854-1.763,3.364-3.903,4.406-6.265
			C145.4,34.33,145.909,31.74,145.936,29.15z"/>
	</g>
	<circle style="fill:#FFDA00;" cx="95.883" cy="29.151" r="10.082"/>
	<path style="fill:#EDC603;" d="M101.259,20.529c1.344,1.713,2.147,3.869,2.147,6.215c0,5.568-4.514,10.082-10.082,10.082
		c-1.914,0-3.702-0.533-5.226-1.459c1.846,2.354,4.712,3.866,7.934,3.866c5.568,0,10.082-4.514,10.082-10.082
		C106.115,25.497,104.17,22.297,101.259,20.529z"/>
	
		<ellipse transform="matrix(0.877 -0.4806 0.4806 0.877 0.2269 47.2086)" style="fill:#FFE1FF;" cx="92.308" cy="23.161" rx="2.489" ry="1.736"/>
	
		<ellipse transform="matrix(0.761 -0.6487 0.6487 0.761 4.3886 63.8844)" style="fill:#FFE1FF;" cx="88.907" cy="25.985" rx="1.2" ry="0.836"/>
	<g>
		<path style="fill:#231F20;" d="M106.014,29.152c-0.004,2.639-0.926,5.334-2.781,7.35c-1.817,2.04-4.598,3.228-7.351,3.147
			c-5.605-0.129-10.249-5.042-10.356-10.497c-0.112-2.713,0.948-5.493,2.894-7.462c1.918-1.988,4.674-3.181,7.461-3.153
			c2.781,0.002,5.538,1.212,7.361,3.253C105.092,23.815,106.022,26.508,106.014,29.152z M105.915,29.15
			c0.017-2.644-1.229-5.198-3.136-6.895c-1.9-1.714-4.389-2.679-6.896-2.652c-2.501,0.003-4.992,0.986-6.796,2.752
			c-1.808,1.755-2.924,4.222-3.011,6.797c-0.103,2.569,0.921,5.202,2.794,7.014c1.867,1.828,4.491,2.739,7.014,2.651
			c2.536-0.056,5.001-1.044,6.907-2.759C104.69,34.352,105.943,31.8,105.915,29.15z"/>
	</g>
</g>
<g>
	<circle style="fill:#FFDA00;" cx="186.238" cy="29.15" r="19.843"/>
	<path style="fill:#EDC603;" d="M196.82,12.18c2.645,3.371,4.226,7.617,4.226,12.234c0,10.959-8.883,19.842-19.843,19.842
		c-3.766,0-7.287-1.049-10.286-2.87c3.632,4.63,9.274,7.608,15.616,7.608c10.959,0,19.843-8.884,19.843-19.844
		C206.376,21.959,202.549,15.66,196.82,12.18z"/>
	
		<ellipse transform="matrix(0.877 -0.4806 0.4806 0.877 13.7052 88.2539)" style="fill:#FFE1FF;" cx="179.202" cy="17.362" rx="4.899" ry="3.418"/>
	
		<ellipse transform="matrix(0.761 -0.6487 0.6487 0.761 26.3582 117.3881)" style="fill:#FFE1FF;" cx="172.508" cy="22.918" rx="2.361" ry="1.646"/>
	<g>
		<path style="fill:#231F20;" d="M206.13,29.15c0.042,5.207-1.985,10.432-5.639,14.253c-1.812,1.923-4.053,3.44-6.492,4.483
			c-2.441,1.055-5.114,1.526-7.761,1.521c-2.651-0.034-5.287-0.609-7.702-1.663c-2.413-1.06-4.606-2.581-6.452-4.439
			c-3.685-3.728-5.904-8.872-5.964-14.153c-0.128-5.273,1.988-10.595,5.752-14.364c1.868-1.893,4.111-3.418,6.569-4.454
			c2.456-1.044,5.133-1.543,7.794-1.541c5.338-0.035,10.642,2.234,14.264,6.094C204.151,18.717,206.181,23.941,206.13,29.15z
			 M206.031,29.15c-0.03-2.589-0.543-5.179-1.585-7.542c-1.043-2.359-2.553-4.499-4.41-6.256c-3.703-3.531-8.729-5.55-13.799-5.528
			c-5.064,0.006-10.091,2.047-13.698,5.629c-3.626,3.556-5.798,8.563-5.87,13.699c-0.114,5.126,1.954,10.311,5.661,13.908
			c3.652,3.663,8.829,5.615,13.909,5.52c5.097-0.028,10.109-2.083,13.809-5.62c1.854-1.763,3.364-3.903,4.406-6.265
			C205.495,34.33,206.003,31.74,206.031,29.15z"/>
	</g>
	<circle style="fill:#FFDA00;" cx="155.977" cy="29.151" r="10.082"/>
	<path style="fill:#EDC603;" d="M161.354,20.529c1.344,1.713,2.147,3.869,2.147,6.215c0,5.568-4.514,10.082-10.082,10.082
		c-1.914,0-3.702-0.533-5.226-1.459c1.846,2.354,4.712,3.866,7.934,3.866c5.568,0,10.082-4.514,10.082-10.082
		C166.209,25.497,164.265,22.297,161.354,20.529z"/>
	
		<ellipse transform="matrix(0.877 -0.4806 0.4806 0.877 7.6207 76.0874)" style="fill:#FFE1FF;" cx="152.402" cy="23.161" rx="2.489" ry="1.736"/>
	
		<ellipse transform="matrix(0.761 -0.6487 0.6487 0.761 18.7492 102.8685)" style="fill:#FFE1FF;" cx="149.001" cy="25.985" rx="1.2" ry="0.836"/>
	<g>
		<path style="fill:#231F20;" d="M166.109,29.152c-0.004,2.639-0.926,5.334-2.781,7.35c-1.817,2.04-4.598,3.228-7.351,3.147
			c-5.605-0.129-10.249-5.042-10.356-10.497c-0.112-2.713,0.948-5.493,2.894-7.462c1.918-1.988,4.674-3.181,7.461-3.153
			c2.781,0.002,5.538,1.212,7.361,3.253C165.187,23.815,166.117,26.508,166.109,29.152z M166.009,29.15
			c0.017-2.644-1.229-5.198-3.136-6.895c-1.9-1.714-4.389-2.679-6.896-2.652c-2.501,0.003-4.992,0.986-6.796,2.752
			c-1.808,1.755-2.924,4.222-3.011,6.797c-0.103,2.569,0.921,5.202,2.794,7.014c1.867,1.828,4.491,2.739,7.014,2.651
			c2.536-0.056,5.001-1.044,6.907-2.759C164.785,34.352,166.038,31.8,166.009,29.15z"/>
	</g>
</g>
<g>
	<circle style="fill:#FFDA00;" cx="246.333" cy="29.15" r="19.843"/>
	<path style="fill:#EDC603;" d="M256.915,12.18c2.645,3.371,4.226,7.617,4.226,12.234c0,10.959-8.883,19.842-19.843,19.842
		c-3.766,0-7.287-1.049-10.286-2.87c3.632,4.63,9.274,7.608,15.616,7.608c10.959,0,19.843-8.884,19.843-19.844
		C266.471,21.959,262.644,15.66,256.915,12.18z"/>
	
		<ellipse transform="matrix(0.877 -0.4806 0.4806 0.877 21.0992 117.1331)" style="fill:#FFE1FF;" cx="239.297" cy="17.362" rx="4.899" ry="3.418"/>
	
		<ellipse transform="matrix(0.761 -0.6487 0.6487 0.761 40.7196 156.3732)" style="fill:#FFE1FF;" cx="232.603" cy="22.918" rx="2.361" ry="1.646"/>
	<g>
		<path style="fill:#231F20;" d="M266.225,29.15c0.042,5.207-1.985,10.432-5.639,14.253c-1.812,1.923-4.053,3.44-6.492,4.483
			c-2.441,1.055-5.114,1.526-7.761,1.521c-2.651-0.034-5.287-0.609-7.702-1.663c-2.413-1.06-4.606-2.581-6.452-4.439
			c-3.685-3.728-5.904-8.872-5.964-14.153c-0.128-5.273,1.988-10.595,5.752-14.364c1.868-1.893,4.111-3.418,6.569-4.454
			c2.456-1.044,5.133-1.543,7.794-1.541c5.338-0.035,10.642,2.234,14.264,6.094C264.246,18.717,266.276,23.941,266.225,29.15z
			 M266.125,29.15c-0.03-2.589-0.543-5.179-1.585-7.542c-1.043-2.359-2.553-4.499-4.41-6.256c-3.703-3.531-8.729-5.55-13.799-5.528
			c-5.064,0.006-10.091,2.047-13.698,5.629c-3.626,3.556-5.798,8.563-5.87,13.699c-0.114,5.126,1.954,10.311,5.661,13.908
			c3.652,3.663,8.829,5.615,13.909,5.52c5.097-0.028,10.109-2.083,13.809-5.62c1.854-1.763,3.364-3.903,4.406-6.265
			C265.589,34.33,266.098,31.74,266.125,29.15z"/>
	</g>
	<circle style="fill:#FFDA00;" cx="216.072" cy="29.151" r="10.082"/>
	<path style="fill:#EDC603;" d="M221.449,20.529c1.344,1.713,2.147,3.869,2.147,6.215c0,5.568-4.514,10.082-10.082,10.082
		c-1.914,0-3.702-0.533-5.226-1.459c1.846,2.354,4.712,3.866,7.934,3.866c5.568,0,10.082-4.514,10.082-10.082
		C226.304,25.497,224.36,22.297,221.449,20.529z"/>
	
		<ellipse transform="matrix(0.877 -0.4806 0.4806 0.877 15.0145 104.9662)" style="fill:#FFE1FF;" cx="212.497" cy="23.161" rx="2.489" ry="1.736"/>
	
		<ellipse transform="matrix(0.761 -0.6487 0.6487 0.761 33.1097 141.8526)" style="fill:#FFE1FF;" cx="209.096" cy="25.985" rx="1.2" ry="0.836"/>
	<g>
		<path style="fill:#231F20;" d="M226.204,29.152c-0.004,2.639-0.926,5.334-2.781,7.35c-1.817,2.04-4.598,3.228-7.351,3.147
			c-5.605-0.129-10.249-5.042-10.356-10.497c-0.112-2.713,0.948-5.493,2.894-7.462c1.918-1.988,4.674-3.181,7.461-3.153
			c2.781,0.002,5.538,1.212,7.361,3.253C225.282,23.815,226.211,26.508,226.204,29.152z M226.104,29.15
			c0.017-2.644-1.229-5.198-3.136-6.895c-1.9-1.714-4.389-2.679-6.896-2.652c-2.501,0.003-4.992,0.986-6.796,2.752
			c-1.808,1.755-2.924,4.222-3.011,6.797c-0.103,2.569,0.921,5.202,2.794,7.014c1.867,1.828,4.491,2.739,7.014,2.651
			c2.536-0.056,5.001-1.044,6.907-2.759C224.879,34.352,226.133,31.8,226.104,29.15z"/>
	</g>
</g>
<g>
	<circle style="fill:#FFDA00;" cx="306.427" cy="29.15" r="19.843"/>
	<path style="fill:#EDC603;" d="M317.01,12.18c2.645,3.371,4.226,7.617,4.226,12.234c0,10.959-8.883,19.842-19.843,19.842
		c-3.766,0-7.287-1.049-10.286-2.87c3.632,4.63,9.274,7.608,15.616,7.608c10.959,0,19.843-8.884,19.843-19.844
		C326.566,21.959,322.739,15.66,317.01,12.18z"/>
	
		<ellipse transform="matrix(0.877 -0.4806 0.4806 0.877 28.4932 146.0123)" style="fill:#FFE1FF;" cx="299.391" cy="17.362" rx="4.899" ry="3.418"/>
	
		<ellipse transform="matrix(0.761 -0.6487 0.6487 0.761 55.081 195.3584)" style="fill:#FFE1FF;" cx="292.698" cy="22.918" rx="2.361" ry="1.646"/>
	<g>
		<path style="fill:#231F20;" d="M326.32,29.15c0.042,5.207-1.985,10.432-5.639,14.253c-1.812,1.923-4.053,3.44-6.492,4.483
			c-2.441,1.055-5.114,1.526-7.761,1.521c-2.651-0.034-5.287-0.609-7.702-1.663c-2.413-1.06-4.606-2.581-6.452-4.439
			c-3.685-3.728-5.904-8.872-5.964-14.153c-0.128-5.273,1.988-10.595,5.752-14.364c1.868-1.893,4.111-3.418,6.569-4.454
			c2.456-1.044,5.133-1.543,7.794-1.541c5.338-0.035,10.642,2.234,14.264,6.094C324.341,18.717,326.371,23.941,326.32,29.15z
			 M326.22,29.15c-0.03-2.589-0.543-5.179-1.585-7.542c-1.043-2.359-2.553-4.499-4.41-6.256c-3.703-3.531-8.729-5.55-13.799-5.528
			c-5.064,0.006-10.091,2.047-13.698,5.629c-3.626,3.556-5.798,8.563-5.87,13.699c-0.114,5.126,1.954,10.311,5.661,13.908
			c3.652,3.663,8.829,5.615,13.909,5.52c5.097-0.028,10.109-2.083,13.809-5.62c1.854-1.763,3.364-3.903,4.406-6.265
			C325.684,34.33,326.193,31.74,326.22,29.15z"/>
	</g>
	<circle style="fill:#FFDA00;" cx="276.167" cy="29.151" r="10.082"/>
	<path style="fill:#EDC603;" d="M281.543,20.529c1.344,1.713,2.147,3.869,2.147,6.215c0,5.568-4.514,10.082-10.082,10.082
		c-1.914,0-3.702-0.533-5.226-1.459c1.846,2.354,4.712,3.866,7.934,3.866c5.568,0,10.082-4.514,10.082-10.082
		C286.399,25.497,284.455,22.297,281.543,20.529z"/>
	
		<ellipse transform="matrix(0.877 -0.4806 0.4806 0.877 22.4083 133.8451)" style="fill:#FFE1FF;" cx="272.592" cy="23.161" rx="2.489" ry="1.736"/>
	
		<ellipse transform="matrix(0.761 -0.6487 0.6487 0.761 47.4703 180.8367)" style="fill:#FFE1FF;" cx="269.191" cy="25.985" rx="1.2" ry="0.836"/>
	<g>
		<path style="fill:#231F20;" d="M286.298,29.152c-0.004,2.639-0.926,5.334-2.781,7.35c-1.817,2.04-4.598,3.228-7.351,3.147
			c-5.605-0.129-10.249-5.042-10.356-10.497c-0.112-2.713,0.948-5.493,2.894-7.462c1.918-1.988,4.674-3.181,7.461-3.153
			c2.781,0.002,5.538,1.212,7.361,3.253C285.376,23.815,286.306,26.508,286.298,29.152z M286.199,29.15
			c0.017-2.644-1.229-5.198-3.136-6.895c-1.9-1.714-4.389-2.679-6.896-2.652c-2.501,0.003-4.992,0.986-6.796,2.752
			c-1.808,1.755-2.924,4.222-3.011,6.797c-0.103,2.569,0.921,5.202,2.794,7.014c1.867,1.828,4.491,2.739,7.014,2.651
			c2.536-0.056,5.001-1.044,6.907-2.759C284.974,34.352,286.228,31.8,286.199,29.15z"/>
	</g>
</g>
<g>
	<circle style="fill:#FFDA00;" cx="366.522" cy="29.15" r="19.843"/>
	<path style="fill:#EDC603;" d="M377.104,12.18c2.645,3.371,4.226,7.617,4.226,12.234c0,10.959-8.883,19.842-19.843,19.842
		c-3.766,0-7.287-1.049-10.286-2.87c3.632,4.63,9.274,7.608,15.616,7.608c10.959,0,19.843-8.884,19.843-19.844
		C386.661,21.959,382.833,15.66,377.104,12.18z"/>
	
		<ellipse transform="matrix(0.877 -0.4806 0.4806 0.877 35.8872 174.8916)" style="fill:#FFE1FF;" cx="359.486" cy="17.362" rx="4.899" ry="3.418"/>
	
		<ellipse transform="matrix(0.761 -0.6487 0.6487 0.761 69.4424 234.3435)" style="fill:#FFE1FF;" cx="352.792" cy="22.918" rx="2.361" ry="1.646"/>
	<g>
		<path style="fill:#231F20;" d="M386.415,29.15c0.042,5.207-1.985,10.432-5.639,14.253c-1.812,1.923-4.053,3.44-6.492,4.483
			c-2.441,1.055-5.114,1.526-7.761,1.521c-2.651-0.034-5.287-0.609-7.702-1.663c-2.413-1.06-4.606-2.581-6.452-4.439
			c-3.685-3.728-5.904-8.872-5.964-14.153c-0.128-5.273,1.988-10.595,5.752-14.364c1.868-1.893,4.111-3.418,6.569-4.454
			c2.456-1.044,5.133-1.543,7.794-1.541c5.338-0.035,10.642,2.234,14.264,6.094C384.436,18.717,386.465,23.941,386.415,29.15z
			 M386.315,29.15c-0.03-2.589-0.543-5.179-1.585-7.542c-1.043-2.359-2.553-4.499-4.41-6.256c-3.703-3.531-8.729-5.55-13.799-5.528
			c-5.064,0.006-10.091,2.047-13.698,5.629c-3.626,3.556-5.798,8.563-5.87,13.699c-0.114,5.126,1.954,10.311,5.661,13.908
			c3.652,3.663,8.829,5.615,13.909,5.52c5.097-0.028,10.109-2.083,13.809-5.62c1.854-1.763,3.364-3.903,4.406-6.265
			C385.779,34.33,386.288,31.74,386.315,29.15z"/>
	</g>
	<circle style="fill:#FFDA00;" cx="336.261" cy="29.151" r="10.082"/>
	<path style="fill:#EDC603;" d="M341.638,20.529c1.344,1.713,2.147,3.869,2.147,6.215c0,5.568-4.514,10.082-10.082,10.082
		c-1.914,0-3.702-0.533-5.226-1.459c1.846,2.354,4.712,3.866,7.934,3.866c5.568,0,10.082-4.514,10.082-10.082
		C346.494,25.497,344.549,22.297,341.638,20.529z"/>
	
		<ellipse transform="matrix(0.877 -0.4806 0.4806 0.877 29.8021 162.7239)" style="fill:#FFE1FF;" cx="332.687" cy="23.161" rx="2.489" ry="1.736"/>
	
		<ellipse transform="matrix(0.761 -0.6487 0.6487 0.761 61.8308 219.8208)" style="fill:#FFE1FF;" cx="329.286" cy="25.985" rx="1.2" ry="0.836"/>
	<g>
		<path style="fill:#231F20;" d="M346.393,29.152c-0.004,2.639-0.926,5.334-2.781,7.35c-1.817,2.04-4.598,3.228-7.351,3.147
			c-5.605-0.129-10.249-5.042-10.356-10.497c-0.112-2.713,0.948-5.493,2.894-7.462c1.918-1.988,4.674-3.181,7.461-3.153
			c2.781,0.002,5.538,1.212,7.361,3.253C345.471,23.815,346.401,26.508,346.393,29.152z M346.293,29.15
			c0.017-2.644-1.229-5.198-3.136-6.895c-1.9-1.714-4.389-2.679-6.896-2.652c-2.501,0.003-4.992,0.986-6.796,2.752
			c-1.808,1.755-2.924,4.222-3.011,6.797c-0.103,2.569,0.921,5.202,2.794,7.014c1.867,1.828,4.491,2.739,7.014,2.651
			c2.536-0.056,5.001-1.044,6.907-2.759C345.069,34.352,346.322,31.8,346.293,29.15z"/>
	</g>
</g>
<g>
	<circle style="fill:#FFDA00;" cx="426.617" cy="29.15" r="19.842"/>
	<path style="fill:#EDC603;" d="M437.199,12.18c2.645,3.371,4.226,7.617,4.226,12.234c0,10.959-8.883,19.842-19.842,19.842
		c-3.766,0-7.287-1.049-10.286-2.87c3.632,4.63,9.274,7.608,15.616,7.608c10.959,0,19.842-8.884,19.842-19.844
		C446.755,21.959,442.928,15.66,437.199,12.18z"/>
	
		<ellipse transform="matrix(0.877 -0.4806 0.4806 0.877 43.2812 203.7708)" style="fill:#FFE1FF;" cx="419.581" cy="17.362" rx="4.899" ry="3.418"/>
	
		<ellipse transform="matrix(0.761 -0.6487 0.6487 0.761 83.8039 273.3286)" style="fill:#FFE1FF;" cx="412.887" cy="22.918" rx="2.361" ry="1.646"/>
	<g>
		<path style="fill:#231F20;" d="M446.509,29.15c0.042,5.207-1.984,10.432-5.639,14.253c-1.812,1.923-4.053,3.44-6.492,4.483
			c-2.441,1.055-5.114,1.526-7.761,1.521c-2.651-0.034-5.287-0.609-7.702-1.663c-2.413-1.06-4.606-2.581-6.452-4.439
			c-3.685-3.728-5.904-8.872-5.964-14.153c-0.128-5.273,1.988-10.595,5.752-14.364c1.868-1.893,4.111-3.418,6.569-4.454
			c2.456-1.044,5.133-1.543,7.794-1.541c5.338-0.035,10.641,2.234,14.264,6.094C444.53,18.717,446.56,23.941,446.509,29.15z
			 M446.409,29.15c-0.03-2.589-0.543-5.179-1.585-7.542c-1.043-2.359-2.554-4.499-4.41-6.256c-3.703-3.531-8.728-5.55-13.798-5.528
			c-5.064,0.006-10.091,2.047-13.698,5.629c-3.626,3.556-5.798,8.563-5.87,13.699c-0.114,5.126,1.954,10.311,5.661,13.908
			c3.652,3.663,8.829,5.615,13.909,5.52c5.097-0.028,10.109-2.083,13.808-5.62c1.854-1.763,3.364-3.903,4.406-6.265
			C445.873,34.33,446.382,31.74,446.409,29.15z"/>
	</g>
	<circle style="fill:#FFDA00;" cx="396.356" cy="29.151" r="10.082"/>
	<path style="fill:#EDC603;" d="M401.733,20.529c1.344,1.713,2.147,3.869,2.147,6.215c0,5.568-4.514,10.082-10.082,10.082
		c-1.914,0-3.702-0.533-5.226-1.459c1.846,2.354,4.712,3.866,7.934,3.866c5.568,0,10.082-4.514,10.082-10.082
		C406.588,25.497,404.644,22.297,401.733,20.529z"/>
	
		<ellipse transform="matrix(0.877 -0.4806 0.4806 0.877 37.1958 191.6028)" style="fill:#FFE1FF;" cx="392.781" cy="23.161" rx="2.489" ry="1.736"/>
	
		<ellipse transform="matrix(0.761 -0.6487 0.6487 0.761 76.1913 258.8049)" style="fill:#FFE1FF;" cx="389.38" cy="25.985" rx="1.2" ry="0.836"/>
	<g>
		<path style="fill:#231F20;" d="M406.488,29.152c-0.004,2.639-0.926,5.334-2.781,7.35c-1.817,2.04-4.598,3.228-7.351,3.147
			c-5.605-0.129-10.249-5.042-10.356-10.497c-0.112-2.713,0.948-5.493,2.894-7.462c1.918-1.988,4.674-3.181,7.461-3.153
			c2.781,0.002,5.538,1.212,7.361,3.253C405.566,23.815,406.496,26.508,406.488,29.152z M406.388,29.15
			c0.017-2.644-1.229-5.198-3.136-6.895c-1.9-1.714-4.389-2.679-6.896-2.652c-2.501,0.003-4.992,0.986-6.796,2.752
			c-1.808,1.755-2.924,4.222-3.011,6.797c-0.103,2.569,0.921,5.202,2.794,7.014c1.867,1.828,4.491,2.739,7.014,2.651
			c2.536-0.056,5.001-1.044,6.907-2.759C405.164,34.352,406.417,31.8,406.388,29.15z"/>
	</g>
</g>
<g>
	<circle style="fill:#FFDA00;" cx="486.711" cy="29.15" r="19.842"/>
	<path style="fill:#EDC603;" d="M497.294,12.18c2.645,3.371,4.226,7.617,4.226,12.234c0,10.959-8.883,19.842-19.843,19.842
		c-3.766,0-7.286-1.049-10.285-2.87c3.632,4.63,9.274,7.608,15.615,7.608c10.96,0,19.843-8.884,19.843-19.844
		C506.85,21.959,503.022,15.66,497.294,12.18z"/>
	
		<ellipse transform="matrix(0.8769 -0.4806 0.4806 0.8769 50.6804 232.6602)" style="fill:#FFE1FF;" cx="479.675" cy="17.362" rx="4.899" ry="3.418"/>
	
		<ellipse transform="matrix(0.761 -0.6487 0.6487 0.761 98.1652 312.3135)" style="fill:#FFE1FF;" cx="472.981" cy="22.918" rx="2.361" ry="1.646"/>
	<g>
		<path style="fill:#231F20;" d="M506.604,29.151c0.042,5.207-1.984,10.431-5.639,14.252c-1.812,1.923-4.053,3.44-6.492,4.484
			c-2.44,1.054-5.114,1.526-7.761,1.521c-2.651-0.035-5.287-0.609-7.701-1.663c-2.413-1.059-4.606-2.582-6.452-4.44
			c-3.685-3.727-5.904-8.871-5.963-14.153c-0.129-5.273,1.987-10.595,5.752-14.364c1.867-1.893,4.111-3.418,6.568-4.454
			c2.456-1.044,5.133-1.542,7.794-1.541c5.339-0.035,10.642,2.234,14.265,6.094C504.624,18.717,506.654,23.941,506.604,29.151z
			 M506.504,29.15c-0.03-2.588-0.543-5.178-1.585-7.541c-1.043-2.36-2.554-4.499-4.41-6.256c-3.703-3.531-8.729-5.55-13.799-5.528
			c-5.063,0.006-10.091,2.046-13.697,5.629c-3.627,3.556-5.799,8.563-5.87,13.699c-0.114,5.126,1.954,10.311,5.661,13.908
			c3.652,3.663,8.828,5.616,13.908,5.52c5.097-0.028,10.109-2.083,13.809-5.621c1.854-1.763,3.363-3.903,4.406-6.264
			C505.968,34.33,506.477,31.74,506.504,29.15z"/>
	</g>
	<circle style="fill:#FFDA00;" cx="456.451" cy="29.151" r="10.082"/>
	<path style="fill:#EDC603;" d="M461.827,20.529c1.344,1.713,2.147,3.869,2.147,6.215c0,5.568-4.514,10.082-10.082,10.082
		c-1.913,0-3.702-0.533-5.226-1.459c1.846,2.354,4.712,3.866,7.934,3.866c5.568,0,10.082-4.514,10.082-10.082
		C466.683,25.497,464.738,22.297,461.827,20.529z"/>
	
		<ellipse transform="matrix(0.877 -0.4806 0.4806 0.877 44.5896 220.4814)" style="fill:#FFE1FF;" cx="452.875" cy="23.161" rx="2.489" ry="1.736"/>
	
		<ellipse transform="matrix(0.761 -0.6487 0.6487 0.761 90.5518 297.7887)" style="fill:#FFE1FF;" cx="449.475" cy="25.985" rx="1.2" ry="0.836"/>
	<g>
		<path style="fill:#231F20;" d="M466.582,29.152c-0.004,2.639-0.926,5.334-2.78,7.35c-1.817,2.04-4.599,3.228-7.351,3.147
			c-5.605-0.129-10.249-5.042-10.356-10.497c-0.112-2.713,0.948-5.493,2.895-7.462c1.918-1.988,4.674-3.181,7.461-3.153
			c2.781,0.002,5.538,1.212,7.361,3.253C465.66,23.815,466.59,26.508,466.582,29.152z M466.482,29.15
			c0.018-2.644-1.229-5.198-3.136-6.895c-1.9-1.714-4.39-2.679-6.896-2.652c-2.501,0.003-4.992,0.986-6.796,2.752
			c-1.809,1.755-2.925,4.222-3.012,6.797c-0.103,2.569,0.921,5.202,2.794,7.014c1.867,1.828,4.491,2.739,7.015,2.651
			c2.535-0.056,5.001-1.044,6.906-2.759C465.258,34.352,466.512,31.8,466.482,29.15z"/>
	</g>
</g>
<g>
	<circle style="fill:#FFDA00;" cx="546.806" cy="29.15" r="19.842"/>
	<path style="fill:#EDC603;" d="M557.389,12.18c2.645,3.371,4.226,7.617,4.226,12.234c0,10.959-8.883,19.842-19.843,19.842
		c-3.766,0-7.286-1.049-10.285-2.87c3.632,4.63,9.274,7.608,15.615,7.608c10.96,0,19.843-8.884,19.843-19.844
		C566.944,21.959,563.117,15.66,557.389,12.18z"/>
	
		<ellipse transform="matrix(0.8769 -0.4806 0.4806 0.8769 58.0751 261.5407)" style="fill:#FFE1FF;" cx="539.77" cy="17.362" rx="4.899" ry="3.418"/>
	
		<ellipse transform="matrix(0.761 -0.6487 0.6487 0.761 112.5266 351.2986)" style="fill:#FFE1FF;" cx="533.076" cy="22.918" rx="2.361" ry="1.646"/>
	<g>
		<path style="fill:#231F20;" d="M566.698,29.151c0.042,5.207-1.984,10.431-5.639,14.252c-1.812,1.923-4.053,3.44-6.492,4.484
			c-2.44,1.054-5.114,1.526-7.761,1.521c-2.651-0.035-5.287-0.609-7.701-1.663c-2.413-1.059-4.606-2.582-6.452-4.44
			c-3.685-3.727-5.904-8.871-5.963-14.153c-0.128-5.273,1.987-10.595,5.752-14.364c1.867-1.893,4.111-3.418,6.568-4.454
			c2.456-1.044,5.133-1.542,7.794-1.541c5.339-0.035,10.642,2.234,14.265,6.094C564.719,18.717,566.749,23.941,566.698,29.151z
			 M566.599,29.15c-0.03-2.588-0.543-5.178-1.585-7.541c-1.043-2.36-2.554-4.499-4.41-6.256c-3.703-3.531-8.729-5.55-13.799-5.528
			c-5.063,0.006-10.091,2.046-13.697,5.629c-3.627,3.556-5.799,8.563-5.87,13.699c-0.114,5.126,1.954,10.311,5.661,13.908
			c3.652,3.663,8.828,5.616,13.908,5.52c5.097-0.028,10.109-2.083,13.809-5.621c1.854-1.763,3.363-3.903,4.406-6.264
			C566.062,34.33,566.571,31.74,566.599,29.15z"/>
	</g>
	<circle style="fill:#FFDA00;" cx="516.545" cy="29.151" r="10.082"/>
	<path style="fill:#EDC603;" d="M521.922,20.529c1.344,1.713,2.147,3.869,2.147,6.215c0,5.568-4.514,10.082-10.082,10.082
		c-1.913,0-3.702-0.533-5.226-1.459c1.846,2.354,4.712,3.866,7.934,3.866c5.568,0,10.082-4.514,10.082-10.082
		C526.777,25.497,524.833,22.297,521.922,20.529z"/>
	
		<ellipse transform="matrix(0.877 -0.4806 0.4806 0.877 51.9834 249.3602)" style="fill:#FFE1FF;" cx="512.97" cy="23.161" rx="2.489" ry="1.736"/>
	
		<ellipse transform="matrix(0.761 -0.6487 0.6487 0.761 104.9123 336.7728)" style="fill:#FFE1FF;" cx="509.569" cy="25.985" rx="1.2" ry="0.836"/>
	<g>
		<path style="fill:#231F20;" d="M526.677,29.152c-0.004,2.639-0.927,5.334-2.78,7.35c-1.817,2.04-4.599,3.228-7.351,3.147
			c-5.605-0.128-10.248-5.042-10.355-10.497c-0.112-2.713,0.947-5.493,2.894-7.461c1.924-1.988,4.66-3.182,7.475-3.154
			c2.754,0.001,5.531,1.212,7.348,3.253C525.755,23.815,526.685,26.508,526.677,29.152z M526.577,29.151
			c0.017-2.644-1.229-5.198-3.136-6.896c-1.906-1.713-4.376-2.678-6.91-2.652c-2.474,0.003-4.984,0.986-6.782,2.752
			c-1.809,1.755-2.925,4.221-3.012,6.796c-0.103,2.57,0.921,5.202,2.794,7.014c1.867,1.828,4.491,2.739,7.015,2.651
			c2.535-0.056,5.001-1.044,6.906-2.759C525.353,34.352,526.605,31.799,526.577,29.151z"/>
	</g>
</g>
<circle style="fill:#FFDA00;" cx="576.64" cy="29.151" r="10.082"/>
<path style="fill:#EDC603;" d="M582.017,20.529c1.344,1.713,2.147,3.869,2.147,6.215c0,5.568-4.514,10.082-10.082,10.082
	c-1.913,0-3.702-0.533-5.226-1.459c1.846,2.354,4.712,3.866,7.934,3.866c5.568,0,10.082-4.514,10.082-10.082
	C586.872,25.497,584.928,22.297,582.017,20.529z"/>
<ellipse transform="matrix(0.877 -0.4806 0.4806 0.877 59.3771 278.239)" style="fill:#FFE1FF;" cx="573.065" cy="23.161" rx="2.489" ry="1.736"/>
<ellipse transform="matrix(0.761 -0.6487 0.6487 0.761 119.2729 375.757)" style="fill:#FFE1FF;" cx="569.664" cy="25.985" rx="1.2" ry="0.836"/>
<g>
	<path style="fill:#231F20;" d="M586.771,29.152c-0.004,2.639-0.926,5.334-2.78,7.35c-1.817,2.04-4.599,3.228-7.351,3.147
		c-5.605-0.128-10.248-5.042-10.355-10.497c-0.112-2.713,0.947-5.493,2.894-7.461c1.924-1.988,4.66-3.182,7.475-3.154
		c2.754,0.001,5.531,1.212,7.348,3.253C585.85,23.815,586.779,26.508,586.771,29.152z M586.672,29.151
		c0.018-2.644-1.229-5.198-3.136-6.896c-1.906-1.713-4.376-2.678-6.91-2.652c-2.474,0.003-4.984,0.986-6.782,2.752
		c-1.809,1.755-2.925,4.221-3.012,6.796c-0.103,2.57,0.921,5.202,2.794,7.014c1.867,1.828,4.491,2.739,7.015,2.651
		c2.535-0.056,5.001-1.044,6.906-2.759C585.447,34.352,586.7,31.799,586.672,29.151z"/>
</g>
</svg>
