<?xml version="1.0" encoding="utf-8"?>
<!-- Generator: Adobe Illustrator 16.0.4, SVG Export Plug-In . SVG Version: 6.00 Build 0)  -->
<!DOCTYPE svg PUBLIC "-//W3C//DTD SVG 1.1//EN" "http://www.w3.org/Graphics/SVG/1.1/DTD/svg11.dtd">
<svg version="1.1" xmlns="http://www.w3.org/2000/svg" xmlns:xlink="http://www.w3.org/1999/xlink" x="0px" y="0px"
	 width="222.314px" height="241.964px" viewBox="0 0 222.314 241.964" enable-background="new 0 0 222.314 241.964"
	 xml:space="preserve">
<g id="frame1">
	<g>
		<g>
			<g>
				<path d="M167.551,112.947c0,0-0.261-1.187-0.461-3.297c-0.103-1.055-0.197-2.342-0.197-3.821
					c-0.022-1.479,0.02-3.154,0.17-4.977c0.175-1.821,0.44-3.793,0.911-5.851c0.474-2.054,1.111-4.202,2.039-6.33
					c0.932-2.118,2.086-4.25,3.599-6.176c0.695-1.007,1.583-1.876,2.398-2.803c0.931-0.818,1.785-1.726,2.817-2.423
					c1.938-1.557,4.176-2.665,6.39-3.636c0.572-0.198,1.142-0.395,1.708-0.59c0.567-0.192,1.125-0.409,1.707-0.522
					c0.575-0.136,1.146-0.272,1.713-0.406l0.847-0.198l0.854-0.12c2.26-0.386,4.466-0.48,6.551-0.537
					c2.085,0.069,4.054,0.107,5.852,0.362c0.899,0.109,1.768,0.168,2.581,0.308c0.812,0.145,1.583,0.281,2.306,0.41
					c0.723,0.13,1.399,0.251,2.025,0.364c0.618,0.149,1.185,0.286,1.698,0.409c2.047,0.493,3.217,0.775,3.217,0.775l-0.064,0.259
					c0,0-1.177-0.233-3.235-0.641c-0.514-0.102-1.083-0.214-1.703-0.337c-0.625-0.086-1.302-0.179-2.025-0.279
					c-0.723-0.098-1.491-0.203-2.301-0.313c-0.81-0.106-1.671-0.128-2.563-0.2c-1.785-0.18-3.723-0.136-5.767-0.122
					c-2.038,0.122-4.186,0.277-6.36,0.718l-0.822,0.14l-0.811,0.217c-0.542,0.146-1.087,0.293-1.636,0.441
					c-0.556,0.124-1.082,0.35-1.618,0.55c-0.535,0.203-1.073,0.407-1.612,0.611c-2.074,0.994-4.158,2.091-5.922,3.62
					c-0.942,0.686-1.707,1.575-2.546,2.365c-0.727,0.902-1.524,1.735-2.137,2.706c-0.681,0.917-1.23,1.913-1.8,2.877
					c-0.278,0.486-0.5,1.001-0.75,1.495c-0.254,0.492-0.479,0.994-0.686,1.5c-0.922,1.985-1.509,4.035-2.083,5.968
					c-0.527,1.951-0.905,3.834-1.201,5.585c-0.268,1.755-0.504,3.375-0.611,4.823c-0.125,1.446-0.182,2.713-0.238,3.759
					c-0.067,2.093-0.034,3.294-0.034,3.294L167.551,112.947z"/>
				<g>
					<circle cx="216.152" cy="74.028" r="1.73"/>
				</g>
			</g>
		</g>
		<path opacity="0.6" fill="#E6F9FF" stroke="#000000" stroke-miterlimit="10" d="M104.718,35.022
			c-14.644,40.082,14.609,85.774,14.609,85.774s51.566-15.386,66.46-56.16c9.487-25.972-0.971-53.655-23.356-61.833
			C140.046-5.376,114.207,9.05,104.718,35.022z"/>
		<path fill="#FFC60B" stroke="#000000" stroke-miterlimit="10" d="M74.248,204.462c30.701-9.218,48.965-38.753,40.793-65.973
			c-8.168-27.227-39.679-41.825-70.377-32.611c-30.701,9.216-48.967,38.749-40.795,65.975
			C12.037,199.075,43.544,213.675,74.248,204.462z"/>
		<path stroke="#000000" stroke-miterlimit="10" d="M78.66,157.975c4.236,25.314,25.703,42.817,47.947,39.098
			c22.248-3.716,36.848-27.257,32.615-52.571c-4.234-25.313-25.701-42.82-47.947-39.1C89.031,109.122,74.427,132.659,78.66,157.975z
			"/>
		
			<ellipse transform="matrix(-0.9686 0.2485 -0.2485 -0.9686 372.899 257.1103)" fill="#FFC60B" stroke="#000000" stroke-miterlimit="10" cx="170.22" cy="152.093" rx="38.4" ry="56.632"/>
		<path opacity="0.6" fill="#E6F9FF" stroke="#000000" stroke-miterlimit="10" d="M46.441,68.718
			c17.986,38.696,70.98,50.319,70.98,50.319s25.584-47.339,7.283-86.704C113.044,7.261,86.076-4.92,64.466,5.126
			C42.855,15.174,34.783,43.645,46.441,68.718z"/>
		<g>
			<path stroke="#000000" stroke-miterlimit="10" d="M32.44,110.948c3.802-2.051,7.883-3.771,12.224-5.074
				c6.277-1.885,12.588-2.76,18.73-2.746c-21.047,52.594-6.788,84.904,7.705,102.185c-10.66,2.634-21.312,2.447-30.957-0.086
				C26.921,188.043,15.3,157.975,32.44,110.948z"/>
		</g>
		<circle cx="169.182" cy="140.185" r="19.789"/>
		<path fill="#3A3E40" d="M152.37,136.507c-0.429,1.957,0.81,3.889,2.767,4.318c1.957,0.428,3.888-0.812,4.316-2.769
			c0.43-1.954-0.811-3.89-2.767-4.317S152.796,134.55,152.37,136.507z"/>
		<path fill="#3A3E40" d="M160.389,129.782c-0.848,3.879,1.608,7.711,5.483,8.559c3.879,0.85,7.711-1.605,8.56-5.484
			c0.85-3.877-1.606-7.708-5.485-8.557C165.072,123.45,161.238,125.905,160.389,129.782z"/>
		<g>
			<path d="M126.906,187.167c0,0,0.057,1.224,0.373,3.326c0.169,1.048,0.374,2.315,0.708,3.746c0.319,1.432,0.735,3.029,1.282,4.737
				c0.538,1.709,1.204,3.53,2.02,5.402c0.804,1.879,1.773,3.799,2.846,5.746c1.051,1.962,2.295,3.901,3.632,5.831
				c0.672,0.961,1.411,1.89,2.149,2.823c0.794,0.887,1.529,1.838,2.38,2.684c0.838,0.857,1.657,1.737,2.558,2.527l1.319,1.215
				c0.447,0.396,0.916,0.762,1.371,1.143c0.458,0.378,0.914,0.754,1.368,1.128c0.473,0.35,0.944,0.698,1.412,1.045
				c0.469,0.346,0.936,0.689,1.398,1.031c0.469,0.333,0.955,0.635,1.427,0.95c1.87,1.289,3.795,2.353,5.594,3.41
				c1.848,0.968,3.578,1.931,5.251,2.666c0.829,0.386,1.623,0.755,2.378,1.106c0.771,0.317,1.503,0.618,2.19,0.9
				c1.372,0.577,2.578,1.056,3.589,1.405c2.011,0.733,3.16,1.152,3.16,1.152l-0.087,0.287c0,0-1.179-0.341-3.242-0.937
				c-0.516-0.151-1.087-0.319-1.708-0.502c-0.613-0.21-1.275-0.438-1.984-0.682c-0.709-0.244-1.463-0.504-2.259-0.777
				c-0.783-0.31-1.605-0.635-2.464-0.975c-1.734-0.645-3.541-1.514-5.477-2.388c-1.894-0.957-3.895-1.976-5.872-3.198
				c-0.497-0.301-1.009-0.588-1.505-0.907c-0.492-0.328-0.986-0.658-1.484-0.991c-0.498-0.334-0.998-0.671-1.501-1.009
				c-0.485-0.363-0.974-0.729-1.463-1.097c-0.487-0.371-0.989-0.729-1.47-1.115l-1.424-1.194c-0.971-0.777-1.865-1.651-2.779-2.504
				c-0.932-0.836-1.753-1.784-2.634-2.671c-0.822-0.939-1.658-1.866-2.433-2.83c-1.563-1.923-2.93-3.956-4.12-6.003
				c-1.137-2.075-2.122-4.151-2.818-6.207c-0.388-1.013-0.665-2.033-0.974-3.002c-0.239-0.991-0.5-1.938-0.67-2.867
				c-0.393-1.845-0.581-3.565-0.693-5.086c-0.113-1.521-0.096-2.853-0.047-3.942c0.105-2.182,0.402-3.404,0.402-3.404
				L126.906,187.167z"/>
		</g>
		<g>
			<path d="M111.793,191.207c0,0,0.003,1.133-0.271,3.079c-0.127,0.977-0.342,2.15-0.633,3.49c-0.305,1.336-0.688,2.838-1.206,4.446
				c-0.517,1.608-1.135,3.337-1.916,5.113c-0.74,1.795-1.679,3.62-2.725,5.464c-1.084,1.821-2.289,3.656-3.654,5.414
				c-0.65,0.901-1.392,1.746-2.082,2.632c-0.728,0.856-1.464,1.711-2.222,2.544c-1.533,1.653-3.112,3.262-4.777,4.723
				c-0.821,0.742-1.65,1.461-2.507,2.127c-0.422,0.339-0.841,0.677-1.258,1.012c-0.432,0.314-0.861,0.626-1.287,0.936
				c-0.425,0.31-0.847,0.616-1.264,0.919c-0.432,0.283-0.86,0.562-1.284,0.84c-0.843,0.559-1.67,1.099-2.517,1.558
				c-1.65,0.991-3.286,1.785-4.779,2.539c-1.533,0.673-2.914,1.34-4.189,1.807c-1.274,0.468-2.36,0.935-3.298,1.201
				c-1.854,0.582-2.913,0.914-2.913,0.914l-0.093-0.285c0,0,1.025-0.409,2.82-1.126c0.904-0.337,1.949-0.876,3.176-1.414
				c1.227-0.542,2.546-1.289,4.007-2.046c1.419-0.837,2.968-1.718,4.517-2.79c0.793-0.506,1.573-1.076,2.368-1.66
				c0.398-0.29,0.801-0.583,1.207-0.879c0.391-0.316,0.786-0.636,1.184-0.957s0.799-0.646,1.203-0.972
				c0.388-0.346,0.778-0.694,1.17-1.044c0.797-0.687,1.564-1.424,2.322-2.183c1.538-1.494,2.982-3.125,4.377-4.789
				c1.361-1.694,2.669-3.429,3.823-5.227c1.177-1.781,2.226-3.6,3.242-5.354c1.005-1.762,1.949-3.482,2.807-5.139
				c0.861-1.654,1.61-3.255,2.3-4.737c2.699-5.956,4.054-10.204,4.054-10.204L111.793,191.207z"/>
		</g>
		<g>
			<path d="M93.283,181.609c0,0-0.316,1.375-1.093,3.706c-0.748,2.344-2.005,5.627-3.781,9.455
				c-0.901,1.906-1.914,3.959-3.101,6.067c-1.148,2.132-2.499,4.302-3.954,6.509c-1.524,2.16-3.108,4.39-4.897,6.517
				c-1.748,2.157-3.625,4.267-5.552,6.324c-0.983,1.012-1.966,2.022-2.972,3.002c-1.038,0.948-2.017,1.946-3.086,2.836
				c-1.053,0.904-2.08,1.82-3.167,2.642c-0.535,0.42-1.066,0.838-1.594,1.252c-0.537,0.402-1.088,0.779-1.625,1.165
				c-0.539,0.381-1.074,0.759-1.604,1.133c-0.548,0.348-1.091,0.692-1.627,1.034c-0.54,0.336-1.062,0.687-1.598,1
				c-0.544,0.301-1.081,0.598-1.611,0.891c-0.53,0.289-1.054,0.575-1.569,0.857c-0.531,0.253-1.053,0.502-1.567,0.747
				c-1.023,0.498-2.016,0.966-3.005,1.336c-0.985,0.377-1.9,0.807-2.819,1.089c-0.912,0.299-1.776,0.581-2.589,0.847
				c-1.64,0.479-3.095,0.807-4.279,1.109c-2.409,0.429-3.786,0.674-3.786,0.674l-0.05-0.295c0,0,1.352-0.317,3.716-0.871
				c1.158-0.363,2.577-0.764,4.167-1.322c0.786-0.305,1.622-0.63,2.503-0.972c0.887-0.324,1.766-0.798,2.711-1.219
				c0.949-0.413,1.898-0.926,2.874-1.468c0.489-0.267,0.987-0.537,1.492-0.812c0.49-0.303,0.986-0.61,1.49-0.922
				c1.01-0.618,2.039-1.263,3.048-1.991c0.51-0.354,1.026-0.711,1.547-1.072c0.502-0.387,1.01-0.776,1.521-1.17
				c0.508-0.397,1.03-0.785,1.538-1.199c0.498-0.425,1-0.854,1.505-1.285c1.026-0.841,1.993-1.777,2.984-2.7
				c1.005-0.906,1.923-1.923,2.896-2.886c0.942-0.995,1.861-2.02,2.779-3.043c1.78-2.1,3.531-4.224,5.105-6.43
				c1.6-2.185,3.103-4.387,4.524-6.537c1.425-2.149,2.787-4.239,4.051-6.243c0.639-0.997,1.237-1.982,1.809-2.94
				c0.598-0.943,1.13-1.882,1.667-2.77c1.036-1.795,2-3.438,2.814-4.918c0.819-1.481,1.534-2.773,2.122-3.837
				c1.134-2.159,1.782-3.393,1.782-3.393L93.283,181.609z"/>
		</g>
		<g>
			<path d="M151.621,195.82c0,0-0.44-0.39-1.139-1.141c-0.705-0.745-1.649-1.868-2.689-3.292c-0.503-0.723-1.045-1.51-1.572-2.373
				c-0.545-0.854-1.033-1.804-1.537-2.787c-0.462-1.003-0.933-2.046-1.312-3.145c-0.402-1.089-0.735-2.223-1.029-3.364
				c-0.273-1.146-0.52-2.302-0.652-3.455c-0.161-1.149-0.214-2.294-0.214-3.397c0.004-1.104,0.085-2.171,0.231-3.171
				c0.156-0.998,0.344-1.937,0.597-2.78c0.207-0.856,0.531-1.6,0.759-2.274c0.295-0.65,0.532-1.225,0.761-1.682
				c0.485-0.899,0.762-1.413,0.762-1.413l0.087,0.049c0,0-0.253,0.522-0.696,1.437c-0.208,0.463-0.418,1.043-0.682,1.696
				c-0.196,0.679-0.484,1.423-0.651,2.274c-0.213,0.84-0.357,1.77-0.468,2.752c-0.098,0.985-0.153,2.028-0.12,3.106
				c0.034,1.077,0.122,2.189,0.315,3.305c0.165,1.12,0.442,2.238,0.744,3.347c0.333,1.1,0.701,2.189,1.136,3.234
				c0.418,1.051,0.895,2.058,1.368,3.025c0.464,0.973,0.961,1.89,1.431,2.761c0.466,0.874,0.951,1.677,1.403,2.416
				c0.465,0.729,0.873,1.414,1.271,1.997c0.398,0.584,0.745,1.094,1.031,1.513c0.598,0.823,0.939,1.294,0.939,1.294L151.621,195.82z
				"/>
		</g>
		<g>
			<path d="M146.738,164.214c0,0-0.038-0.117-0.117-0.31c-0.071-0.194-0.202-0.46-0.376-0.752c-0.171-0.294-0.398-0.611-0.689-0.893
				c-0.133-0.153-0.309-0.268-0.47-0.4c-0.168-0.122-0.357-0.228-0.546-0.324c-0.202-0.075-0.382-0.199-0.597-0.241
				c-0.21-0.047-0.403-0.147-0.615-0.167c-0.208-0.029-0.405-0.09-0.6-0.112c-0.196-0.014-0.382-0.037-0.555-0.061
				c-0.347-0.045-0.645-0.047-0.854-0.065c-0.21-0.016-0.333-0.034-0.333-0.034s0.112-0.047,0.314-0.11
				c0.205-0.046,0.492-0.181,0.858-0.22c0.364-0.06,0.798-0.101,1.27-0.051c0.236,0.004,0.479,0.069,0.723,0.126
				c0.249,0.044,0.48,0.176,0.723,0.264c0.456,0.249,0.892,0.562,1.178,0.962c0.306,0.38,0.493,0.798,0.589,1.162
				c0.111,0.361,0.113,0.679,0.123,0.891C146.766,164.093,146.738,164.214,146.738,164.214z"/>
		</g>
		<g>
			<g>
				<path d="M153.652,115.632c0,0-0.224-1.141-0.385-3.164c-0.091-1.011-0.158-2.243-0.151-3.659
					c-0.005-1.416,0.031-3.017,0.177-4.761c0.166-1.741,0.391-3.631,0.823-5.601c0.376-1.981,1.009-4.026,1.78-6.1
					c0.781-2.073,1.876-4.11,3.142-6.071c1.312-1.939,2.884-3.743,4.651-5.335c0.452-0.385,0.933-0.738,1.395-1.109l0.7-0.548
					l0.751-0.475l1.499-0.937c0.528-0.256,1.054-0.512,1.579-0.767c1.026-0.561,2.154-0.848,3.213-1.257
					c1.082-0.343,2.188-0.551,3.252-0.824c1.087-0.149,2.156-0.296,3.203-0.439c1.052-0.042,2.081-0.084,3.083-0.125
					c1-0.011,1.97,0.086,2.908,0.121c0.94,0.021,1.838,0.144,2.699,0.267c0.86,0.116,1.685,0.227,2.47,0.333
					c0.773,0.161,1.508,0.313,2.198,0.457c0.688,0.144,1.333,0.278,1.929,0.402c0.587,0.16,1.126,0.307,1.614,0.439
					c1.944,0.539,3.055,0.847,3.055,0.847l-0.075,0.259c0,0-1.118-0.259-3.075-0.713c-0.489-0.111-1.031-0.234-1.62-0.369
					c-0.596-0.098-1.241-0.203-1.93-0.316c-0.688-0.113-1.42-0.233-2.192-0.36c-0.778-0.071-1.596-0.146-2.45-0.224
					c-0.852-0.085-1.74-0.168-2.662-0.149c-0.921,0.005-1.873-0.05-2.847,0.002c-0.972,0.071-1.97,0.143-2.991,0.217
					c-1.005,0.171-2.031,0.345-3.076,0.522c-1.013,0.297-2.064,0.528-3.084,0.888c-0.995,0.425-2.057,0.726-3.007,1.29
					c-0.487,0.255-0.975,0.511-1.465,0.767l-1.378,0.927l-0.69,0.465l-0.638,0.536c-0.422,0.361-0.861,0.704-1.267,1.082
					c-1.59,1.557-2.988,3.296-4.142,5.159c-1.104,1.893-2.092,3.817-2.817,5.791c-0.776,1.95-1.364,3.903-1.846,5.78
					c-0.492,1.875-0.833,3.686-1.12,5.363c-0.265,1.682-0.494,3.233-0.618,4.619c-0.131,1.384-0.215,2.597-0.284,3.598
					c-0.106,2.003-0.11,3.154-0.11,3.154L153.652,115.632z"/>
				<g>
					<circle cx="199.106" cy="77.464" r="1.729"/>
				</g>
			</g>
		</g>
	</g>
</g>
<g id="frame2" display="none">
	<g display="inline">
		<path opacity="0.6" fill="#E6F9FF" stroke="#000000" stroke-miterlimit="10" d="M166.646,67.201
			c-30.704,8.943-57.05,48.259-57.05,48.259s43.339,19.021,74.042,10.079c30.704-8.944,41.837-26.355,37.145-42.464
			C216.09,66.966,197.348,58.255,166.646,67.201z"/>
		<g>
			<g>
				<path d="M177.899,118.833c0,0,0.245-1.125,0.572-3.104c0.149-0.992,0.327-2.194,0.498-3.574
					c0.177-1.379,0.287-2.944,0.391-4.644c0.081-1.7,0.138-3.542,0.061-5.479c-0.065-1.937-0.22-3.971-0.558-6.042
					c-0.283-2.083-0.833-4.175-1.503-6.261c-0.726-2.068-1.717-4.067-2.935-5.93c-0.315-0.457-0.669-0.886-1.004-1.329l-0.508-0.661
					l-0.573-0.603l-1.147-1.202l-1.266-1.065c-0.806-0.755-1.779-1.278-2.659-1.906c-0.918-0.571-1.896-1.022-2.821-1.531
					c-0.981-0.398-1.946-0.789-2.891-1.172c-0.98-0.292-1.939-0.578-2.874-0.856c-0.94-0.261-1.882-0.412-2.78-0.615
					c-0.897-0.217-1.781-0.327-2.632-0.427c-0.851-0.107-1.666-0.21-2.44-0.309c-0.781-0.042-1.522-0.083-2.218-0.121
					c-0.697-0.038-1.35-0.074-1.954-0.106c-0.604,0.004-1.16,0.008-1.661,0.011c-2.009,0.021-3.157,0.034-3.157,0.034l-0.017-0.269
					c0,0,1.151-0.062,3.165-0.169c0.504-0.025,1.062-0.052,1.67-0.083c0.609,0.007,1.267,0.015,1.971,0.023
					c0.705,0.009,1.454,0.018,2.245,0.027c0.789,0.066,1.618,0.135,2.483,0.207c0.867,0.065,1.771,0.139,2.693,0.321
					c0.924,0.167,1.892,0.282,2.866,0.508c0.969,0.255,1.965,0.517,2.983,0.785c0.991,0.366,2.004,0.739,3.034,1.119
					c0.981,0.496,2.016,0.937,2.998,1.505c0.947,0.627,1.986,1.151,2.867,1.919l1.377,1.088l1.262,1.238l0.631,0.625l0.565,0.686
					c0.372,0.461,0.766,0.91,1.124,1.383c1.383,1.935,2.53,4.035,3.393,6.211c0.814,2.187,1.445,4.412,1.761,6.604
					c0.306,2.191,0.484,4.324,0.424,6.34c-0.002,2.017-0.188,3.911-0.402,5.646c-0.233,1.734-0.542,3.306-0.853,4.688
					c-0.298,1.384-0.629,2.573-0.935,3.541c-0.592,1.94-1.057,3.006-1.057,3.006L177.899,118.833z"/>
				<g>
					<circle cx="141.919" cy="71.836" r="1.729"/>
				</g>
			</g>
		</g>
		<path fill="#FFC60B" stroke="#000000" stroke-miterlimit="10" d="M73.606,204.188c30.713-9.172,49.019-38.68,40.889-65.912
			c-8.127-27.238-39.614-41.885-70.33-32.716c-30.715,9.17-49.024,38.676-40.89,65.913
			C11.403,198.708,42.887,213.357,73.606,204.188z"/>
		
			<ellipse transform="matrix(-0.9865 0.1635 -0.1635 -0.9865 259.8589 280.6757)" stroke="#000000" stroke-miterlimit="10" cx="118.379" cy="151.032" rx="40.839" ry="46.471"/>
		<path fill="#FFC60B" stroke="#000000" stroke-miterlimit="10" d="M132.444,161.451c7.729,30.306,30.654,50.629,51.207,45.389
			c20.548-5.243,30.942-34.059,23.215-64.366c-7.727-30.307-30.654-50.63-51.204-45.389
			C135.112,102.325,124.717,131.141,132.444,161.451z"/>
		<g>
			<path stroke="#000000" stroke-miterlimit="10" d="M31.937,110.613c3.804-2.045,7.887-3.759,12.229-5.056
				c6.283-1.875,12.594-2.739,18.734-2.717c-21.123,52.561-6.914,84.895,7.556,102.195c-10.663,2.62-21.317,2.417-30.957-0.131
				C26.306,187.699,14.728,157.612,31.937,110.613z"/>
		</g>
		<circle cx="168.636" cy="140.052" r="19.79"/>
		<circle fill="#3A3E40" cx="155.369" cy="137.129" r="3.626"/>
		<path fill="#3A3E40" d="M159.86,129.639c-0.854,3.876,1.594,7.711,5.47,8.564c3.875,0.855,7.709-1.595,8.564-5.47
			c0.855-3.879-1.594-7.713-5.469-8.565C164.547,123.312,160.715,125.762,159.86,129.639z"/>
		<g>
			<path d="M127.162,189.457c0,0-0.021,0.302-0.112,0.879c-0.073,0.585-0.259,1.407-0.521,2.462
				c-0.152,0.521-0.32,1.097-0.503,1.724c-0.197,0.624-0.464,1.274-0.721,1.987c-0.244,0.72-0.577,1.449-0.94,2.215
				c-0.366,0.763-0.702,1.6-1.165,2.404c-0.457,0.812-0.932,1.657-1.424,2.532c-0.491,0.88-1.122,1.702-1.705,2.598
				c-1.137,1.816-2.627,3.505-4.107,5.3c-0.761,0.879-1.638,1.674-2.469,2.531c-0.424,0.42-0.851,0.843-1.28,1.267
				c-0.425,0.43-0.87,0.84-1.345,1.222c-0.927,0.785-1.861,1.576-2.799,2.371c-0.47,0.396-0.93,0.804-1.409,1.188l-1.486,1.096
				c-1.986,1.454-3.908,2.99-5.986,4.23c-2.053,1.271-3.989,2.656-6.042,3.692c-2.023,1.084-3.94,2.199-5.821,3.131
				c-1.911,0.869-3.717,1.69-5.384,2.448c-0.833,0.376-1.632,0.735-2.392,1.078c-0.779,0.295-1.519,0.576-2.213,0.839
				c-1.389,0.523-2.6,0.98-3.597,1.355c-1.994,0.745-3.133,1.171-3.133,1.171l-0.106-0.281c0,0,1.106-0.502,3.041-1.382
				c0.967-0.436,2.141-0.966,3.488-1.573c0.673-0.302,1.39-0.623,2.145-0.962c0.733-0.385,1.505-0.789,2.31-1.21
				c1.604-0.848,3.341-1.766,5.179-2.736c1.798-1.037,3.651-2.204,5.588-3.369c1.972-1.11,3.811-2.563,5.764-3.9
				c1.979-1.306,3.787-2.898,5.655-4.401l1.389-1.143c0.446-0.398,0.871-0.82,1.306-1.228c0.862-0.823,1.72-1.643,2.571-2.456
				c0.877-0.785,1.587-1.722,2.396-2.538c0.771-0.852,1.587-1.646,2.29-2.511c1.419-1.717,2.891-3.3,4.104-4.941
				c1.297-1.585,2.373-3.186,3.41-4.646c0.514-0.732,0.936-1.475,1.386-2.157c0.219-0.346,0.433-0.682,0.641-1.009
				c0.19-0.336,0.375-0.662,0.555-0.979c0.747-1.257,1.319-2.392,1.8-3.332c0.45-0.946,0.813-1.704,1.021-2.223
				c0.228-0.516,0.327-0.811,0.327-0.811L127.162,189.457z"/>
		</g>
		<g>
			<path d="M113.771,191.151c0,0-0.382,1.097-1.268,2.915c-0.447,0.906-1.006,2.001-1.709,3.22
				c-0.706,1.217-1.518,2.586-2.499,4.013c-0.932,1.467-2.084,2.947-3.275,4.539c-0.605,0.789-1.272,1.561-1.942,2.36
				c-0.667,0.804-1.366,1.608-2.122,2.385c-1.504,1.562-3.081,3.153-4.812,4.633c-0.856,0.749-1.689,1.535-2.57,2.272
				c-0.891,0.727-1.785,1.456-2.679,2.186c-1.745,1.508-3.661,2.803-5.47,4.165c-0.459,0.332-0.904,0.678-1.368,0.994
				c-0.471,0.307-0.939,0.612-1.404,0.915c-0.93,0.606-1.848,1.205-2.752,1.794c-0.452,0.292-0.901,0.582-1.346,0.869
				c-0.46,0.262-0.916,0.521-1.367,0.777c-0.903,0.51-1.786,1.008-2.646,1.493c-1.698,1.007-3.398,1.783-4.952,2.522
				c-1.562,0.721-2.951,1.468-4.254,1.973c-1.298,0.512-2.431,0.957-3.363,1.325c-1.863,0.727-2.928,1.143-2.928,1.143l-0.109-0.279
				c0,0,1.028-0.491,2.829-1.352c0.899-0.427,1.992-0.944,3.244-1.539c1.258-0.579,2.591-1.41,4.089-2.218
				c1.489-0.828,3.114-1.697,4.728-2.798c0.82-0.524,1.663-1.063,2.524-1.615c0.431-0.273,0.867-0.55,1.307-0.83
				c0.423-0.304,0.851-0.611,1.283-0.921c0.859-0.622,1.732-1.255,2.617-1.896c0.441-0.32,0.886-0.643,1.333-0.966
				c0.44-0.332,0.861-0.694,1.295-1.043c1.71-1.426,3.52-2.78,5.156-4.344c0.833-0.762,1.665-1.523,2.494-2.282
				c0.823-0.766,1.584-1.59,2.366-2.377c1.577-1.562,3.024-3.196,4.47-4.733c1.462-1.521,2.785-3.074,4.124-4.476
				c0.637-0.729,1.257-1.439,1.856-2.126c0.623-0.67,1.187-1.346,1.729-1.997c4.397-5.158,7.128-8.845,7.128-8.845L113.771,191.151z
				"/>
		</g>
		<g>
			<path d="M93.844,181.385c0,0-0.369,1.318-1.24,3.536c-0.844,2.231-2.227,5.351-4.167,8.953c-0.97,1.802-2.081,3.723-3.347,5.699
				c-1.244,1.992-2.666,4.023-4.226,6.059c-1.592,2.01-3.289,4.049-5.145,6.003c-0.904,0.997-1.886,1.939-2.824,2.925
				c-0.979,0.947-1.954,1.906-2.962,2.83c-2.023,1.839-4.086,3.636-6.238,5.254c-0.535,0.407-1.068,0.813-1.599,1.217
				c-0.547,0.382-1.09,0.762-1.631,1.14c-1.066,0.775-2.179,1.455-3.262,2.139c-2.176,1.349-4.345,2.55-6.468,3.546
				c-1.042,0.539-2.111,0.945-3.123,1.38c-1.007,0.448-2.009,0.809-2.976,1.139c-1.909,0.728-3.731,1.176-5.318,1.641
				c-1.613,0.375-3.023,0.677-4.186,0.909c-2.345,0.348-3.686,0.547-3.686,0.547l-0.042-0.297c0,0,1.318-0.271,3.625-0.746
				c1.139-0.294,2.517-0.671,4.085-1.127c1.542-0.548,3.306-1.086,5.143-1.906c0.931-0.377,1.893-0.783,2.856-1.278
				c0.968-0.482,1.989-0.935,2.98-1.521c2.015-1.099,4.099-2.332,6.163-3.745c1.028-0.712,2.085-1.418,3.094-2.22
				c0.512-0.39,1.026-0.782,1.543-1.176c0.5-0.415,1.004-0.833,1.509-1.252c2.03-1.662,3.969-3.499,5.863-5.372
				c0.938-0.946,1.843-1.927,2.75-2.894c0.873-1.002,1.773-1.969,2.595-2.993c1.67-2.022,3.282-4.038,4.771-6.044
				c0.777-0.977,1.477-1.987,2.22-2.933c0.71-0.972,1.405-1.923,2.081-2.849c0.67-0.931,1.32-1.839,1.922-2.735
				c0.631-0.879,1.211-1.748,1.774-2.579c1.114-1.67,2.135-3.207,3.008-4.591c0.876-1.387,1.64-2.596,2.268-3.591
				c1.216-2.027,1.911-3.185,1.911-3.185L93.844,181.385z"/>
		</g>
		<g>
			<path d="M150.141,194.565c0,0-0.431-0.399-1.112-1.166c-0.688-0.762-1.606-1.906-2.613-3.354
				c-0.486-0.733-1.01-1.533-1.518-2.408c-0.525-0.865-0.992-1.827-1.473-2.821c-0.439-1.014-0.886-2.066-1.239-3.174
				c-0.376-1.099-0.684-2.239-0.952-3.387c-0.247-1.153-0.466-2.313-0.573-3.47c-0.135-1.152-0.162-2.298-0.135-3.401
				c0.029-1.104,0.135-2.168,0.304-3.165c0.179-0.994,0.388-1.928,0.66-2.766c0.227-0.852,0.568-1.587,0.811-2.257
				c0.31-0.643,0.56-1.212,0.799-1.663c0.505-0.888,0.794-1.396,0.794-1.396l0.086,0.051c0,0-0.265,0.517-0.729,1.42
				c-0.218,0.458-0.442,1.033-0.721,1.681c-0.211,0.674-0.517,1.411-0.704,2.259c-0.232,0.835-0.397,1.761-0.531,2.74
				c-0.12,0.982-0.2,2.024-0.19,3.103s0.071,2.192,0.239,3.312c0.139,1.122,0.391,2.247,0.667,3.361
				c0.307,1.108,0.651,2.205,1.062,3.26c0.395,1.061,0.848,2.078,1.299,3.057c0.442,0.983,0.917,1.911,1.367,2.793
				c0.445,0.885,0.913,1.698,1.347,2.447c0.448,0.74,0.84,1.434,1.225,2.026c0.385,0.593,0.72,1.109,0.996,1.535
				c0.579,0.837,0.91,1.315,0.91,1.315L150.141,194.565z"/>
		</g>
		<g>
			<path d="M145.983,162.854c0,0-0.035-0.118-0.109-0.312c-0.067-0.195-0.191-0.464-0.358-0.76c-0.165-0.298-0.383-0.62-0.668-0.908
				c-0.13-0.156-0.302-0.274-0.461-0.41c-0.166-0.127-0.351-0.236-0.538-0.338c-0.2-0.08-0.378-0.207-0.591-0.254
				c-0.209-0.052-0.4-0.157-0.611-0.182c-0.207-0.033-0.403-0.099-0.597-0.126c-0.195-0.019-0.38-0.047-0.553-0.073
				c-0.346-0.054-0.643-0.062-0.852-0.086c-0.209-0.021-0.333-0.042-0.333-0.042s0.113-0.044,0.317-0.103
				c0.206-0.042,0.496-0.17,0.863-0.2c0.365-0.05,0.8-0.081,1.27-0.021c0.236,0.009,0.477,0.08,0.719,0.143
				c0.248,0.049,0.477,0.187,0.717,0.28c0.45,0.259,0.878,0.583,1.156,0.988c0.297,0.387,0.475,0.809,0.562,1.175
				c0.102,0.363,0.098,0.681,0.103,0.893C146.014,162.734,145.983,162.854,145.983,162.854z"/>
		</g>
		<g>
			<g>
				<path d="M161.867,110.753c0,0,0.292-1.166,0.676-3.224c0.17-1.034,0.387-2.283,0.577-3.722c0.207-1.437,0.326-3.07,0.441-4.841
					c0.087-1.774,0.124-3.694,0.029-5.713c-0.144-2.012-0.276-4.14-0.749-6.277c-0.094-0.54-0.205-1.078-0.347-1.613
					c-0.139-0.536-0.244-1.086-0.411-1.621c-0.349-1.064-0.67-2.155-1.138-3.198c-0.389-1.08-0.989-2.064-1.504-3.102
					c-0.65-0.952-1.205-1.986-1.978-2.858c-1.393-1.873-3.192-3.393-5.003-4.81c-0.483-0.316-0.964-0.631-1.443-0.944
					c-0.48-0.312-0.945-0.645-1.461-0.885c-0.504-0.263-1.005-0.524-1.502-0.783l-0.745-0.387l-0.773-0.313
					c-2.028-0.899-4.092-1.513-6.056-2.071c-1.993-0.454-3.876-0.914-5.658-1.122c-0.887-0.122-1.732-0.285-2.546-0.356
					c-0.815-0.067-1.588-0.13-2.314-0.19c-0.728-0.058-1.408-0.113-2.038-0.163c-0.632-0.014-1.212-0.026-1.736-0.037
					c-2.098-0.045-3.297-0.071-3.297-0.071l-0.007-0.267c0,0,1.203-0.023,3.309-0.064c0.527-0.01,1.11-0.021,1.746-0.034
					c0.635,0.025,1.322,0.052,2.056,0.081c0.734,0.03,1.516,0.062,2.34,0.096c0.824,0.039,1.684,0.168,2.586,0.255
					c1.812,0.138,3.741,0.525,5.792,0.906c2.024,0.504,4.158,1.071,6.282,1.935l0.808,0.3l0.785,0.376
					c0.525,0.253,1.054,0.509,1.586,0.766c0.544,0.235,1.041,0.567,1.554,0.877c0.512,0.313,1.026,0.628,1.542,0.944
					c1.953,1.425,3.899,2.988,5.457,4.926c0.858,0.903,1.497,1.974,2.229,2.972c0.596,1.081,1.276,2.121,1.739,3.253
					c1.062,2.208,1.73,4.538,2.185,6.807c0.448,2.277,0.608,4.512,0.629,6.62c0.017,2.11-0.149,4.094-0.37,5.91
					c-0.246,1.813-0.565,3.457-0.906,4.897c-0.318,1.445-0.688,2.682-1.016,3.689c-0.65,2.018-1.16,3.12-1.16,3.12L161.867,110.753z
					"/>
				<g>
					<circle cx="122.972" cy="62.348" r="1.729"/>
				</g>
			</g>
		</g>
		<path opacity="0.6" fill="#E6F9FF" stroke="#000000" stroke-miterlimit="10" d="M37.822,104.749
			c33.123,18.179,85.327,12.176,85.327,12.176S100.179,69.66,67.057,51.48c-33.123-18.179-55.781-15.1-63.854-0.39
			C-4.87,65.799,4.699,86.569,37.822,104.749z"/>
	</g>
</g>
<g id="frame3" display="none">
	<g display="inline">
		<path opacity="0.6" fill="#E6F9FF" stroke="#000000" stroke-miterlimit="10" d="M104.352,34.889
			c-14.745,40.044,14.385,85.813,14.385,85.813s51.604-15.249,66.607-55.984c9.556-25.946-0.829-53.657-23.191-61.894
			C139.786-5.414,113.909,8.943,104.352,34.889z"/>
		<g>
			<g>
				<path d="M177.829,119.016c0,0,0.246-1.125,0.576-3.104c0.149-0.992,0.33-2.194,0.501-3.574c0.179-1.379,0.29-2.944,0.396-4.643
					c0.083-1.701,0.142-3.542,0.067-5.479c-0.064-1.937-0.215-3.972-0.552-6.043c-0.28-2.083-0.829-4.176-1.497-6.263
					c-0.724-2.069-1.712-4.069-2.928-5.934c-0.315-0.457-0.669-0.886-1.003-1.33l-0.507-0.662l-0.573-0.604l-1.146-1.203
					l-1.264-1.066c-0.805-0.756-1.778-1.28-2.657-1.91c-0.917-0.572-1.895-1.024-2.819-1.535c-0.981-0.399-1.945-0.791-2.89-1.175
					c-0.98-0.293-1.939-0.58-2.873-0.859c-0.94-0.262-1.882-0.414-2.779-0.618c-0.897-0.218-1.781-0.329-2.632-0.43
					c-0.85-0.108-1.665-0.212-2.44-0.312c-0.781-0.043-1.522-0.084-2.218-0.124c-0.697-0.039-1.35-0.075-1.953-0.108
					c-0.604,0.003-1.16,0.006-1.662,0.009c-2.009,0.02-3.157,0.03-3.157,0.03l-0.016-0.269c0,0,1.151-0.06,3.165-0.166
					c0.504-0.024,1.063-0.051,1.67-0.08c0.609,0.008,1.268,0.017,1.971,0.026c0.705,0.009,1.454,0.019,2.245,0.029
					c0.789,0.067,1.618,0.137,2.483,0.21c0.867,0.066,1.77,0.141,2.693,0.324c0.923,0.168,1.892,0.284,2.866,0.511
					c0.969,0.256,1.965,0.52,2.982,0.789c0.991,0.366,2.002,0.741,3.032,1.122c0.98,0.497,2.015,0.939,2.997,1.509
					c0.946,0.628,1.985,1.153,2.865,1.923l1.375,1.089l1.261,1.24l0.63,0.625l0.564,0.687c0.372,0.462,0.765,0.911,1.123,1.385
					c1.381,1.937,2.525,4.038,3.386,6.215c0.812,2.188,1.44,4.414,1.754,6.607c0.304,2.191,0.479,4.325,0.418,6.341
					c-0.004,2.017-0.193,3.911-0.409,5.646c-0.235,1.734-0.546,3.306-0.858,4.687c-0.3,1.384-0.632,2.572-0.939,3.54
					c-0.595,1.939-1.061,3.005-1.061,3.005L177.829,119.016z"/>
				<g>
					<circle cx="141.901" cy="71.975" r="1.729"/>
				</g>
			</g>
		</g>
		<path fill="#FFC60B" stroke="#000000" stroke-miterlimit="10" d="M73.434,204.247c30.724-9.136,49.067-38.62,40.968-65.864
			c-8.096-27.247-39.567-41.93-70.292-32.795c-30.726,9.132-49.07,38.62-40.968,65.865C11.239,198.695,42.705,213.38,73.434,204.247
			z"/>
		
			<ellipse transform="matrix(-0.9867 0.1623 -0.1623 -0.9867 259.506 281.0864)" stroke="#000000" stroke-miterlimit="10" cx="118.27" cy="151.145" rx="40.839" ry="46.472"/>
		<path fill="#FFC60B" stroke="#000000" stroke-miterlimit="10" d="M132.326,161.577c7.691,30.317,30.593,50.667,51.152,45.45
			c20.554-5.219,30.982-34.022,23.29-64.339c-7.693-30.316-30.596-50.666-51.152-45.449
			C135.059,102.457,124.633,131.26,132.326,161.577z"/>
		<path opacity="0.6" fill="#E6F9FF" stroke="#000000" stroke-miterlimit="10" d="M45.983,68.432
			c17.887,38.744,70.853,50.508,70.853,50.508s25.705-47.271,7.507-86.686C112.755,7.151,85.816-5.1,64.179,4.888
			C42.54,14.878,34.396,43.329,45.983,68.432z"/>
		<g>
			<path stroke="#000000" stroke-miterlimit="10" d="M31.874,110.625c3.809-2.04,7.892-3.75,12.235-5.041
				c6.284-1.868,12.597-2.726,18.738-2.697c-21.185,52.537-7.011,84.888,7.437,102.205c-10.667,2.606-21.318,2.395-30.958-0.168
				C26.154,187.705,14.609,157.604,31.874,110.625z"/>
		</g>
		<path d="M149.222,135.939c-2.366,10.672,4.365,21.239,15.036,23.604c10.669,2.365,21.236-4.367,23.602-15.04
			c2.364-10.668-4.368-21.234-15.038-23.601C162.151,118.539,151.586,125.271,149.222,135.939z"/>
		<circle fill="#3A3E40" cx="155.276" cy="137.284" r="3.626"/>
		<path fill="#3A3E40" d="M159.774,129.799c-0.858,3.875,1.585,7.713,5.463,8.572c3.873,0.858,7.709-1.587,8.568-5.462
			c0.859-3.876-1.584-7.714-5.458-8.571C164.469,123.479,160.634,125.923,159.774,129.799z"/>
		<g>
			<path d="M127.01,189.572c0-0.001-0.004,0.304-0.069,0.889c-0.021,0.297-0.071,0.655-0.15,1.068
				c-0.082,0.413-0.131,0.908-0.278,1.43c-0.134,0.53-0.282,1.116-0.443,1.755c-0.208,0.624-0.434,1.3-0.674,2.021
				c-0.219,0.736-0.57,1.463-0.902,2.25c-0.346,0.78-0.667,1.631-1.139,2.438c-0.445,0.827-0.908,1.688-1.387,2.58
				c-0.534,0.857-1.12,1.722-1.707,2.624c-0.298,0.448-0.589,0.911-0.905,1.363c-0.341,0.432-0.687,0.869-1.036,1.312
				c-0.695,0.888-1.429,1.777-2.177,2.678c-0.821,0.833-1.655,1.679-2.5,2.535c-0.425,0.426-0.852,0.853-1.282,1.282
				c-0.442,0.416-0.922,0.794-1.384,1.195c-0.931,0.792-1.869,1.591-2.811,2.393c-0.911,0.837-1.964,1.503-2.943,2.259
				c-0.993,0.737-1.985,1.475-2.974,2.209c-1,0.717-2.06,1.336-3.075,2.002c-1.023,0.652-2.039,1.3-3.042,1.938
				c-0.988,0.664-2.06,1.157-3.06,1.73c-1.013,0.552-2.009,1.095-2.983,1.625c-0.979,0.522-1.91,1.081-2.888,1.487
				c-1.921,0.873-3.737,1.698-5.414,2.46c-0.842,0.369-1.628,0.77-2.413,1.066c-0.783,0.298-1.526,0.581-2.224,0.847
				c-1.396,0.528-2.613,0.988-3.616,1.367c-2.004,0.752-3.149,1.182-3.149,1.182l-0.106-0.281c0,0,1.112-0.506,3.057-1.393
				c0.972-0.439,2.153-0.973,3.508-1.586c0.677-0.304,1.397-0.628,2.157-0.97c0.76-0.34,1.519-0.784,2.332-1.199
				c1.614-0.851,3.363-1.773,5.212-2.749c1.842-0.983,3.685-2.196,5.642-3.353c0.959-0.61,1.99-1.143,2.931-1.84
				c0.955-0.673,1.922-1.354,2.896-2.041c0.965-0.697,1.975-1.35,2.918-2.096c0.931-0.761,1.866-1.524,2.801-2.288
				c1.911-1.479,3.622-3.178,5.322-4.821c0.421-0.415,0.861-0.808,1.26-1.235c0.394-0.432,0.785-0.862,1.174-1.289
				c0.783-0.849,1.557-1.687,2.317-2.511c0.726-0.852,1.409-1.714,2.119-2.525c0.351-0.409,0.698-0.813,1.041-1.214
				c0.318-0.418,0.633-0.831,0.943-1.238c0.616-0.818,1.235-1.604,1.802-2.387c0.541-0.801,1.062-1.573,1.564-2.315
				c0.523-0.734,0.929-1.488,1.36-2.186c0.422-0.702,0.832-1.367,1.159-2.02c0.342-0.648,0.662-1.255,0.958-1.816
				c0.27-0.576,0.517-1.104,0.74-1.583c0.421-0.964,0.751-1.742,0.935-2.271c0.204-0.528,0.288-0.83,0.288-0.83L127.01,189.572z"/>
		</g>
		<g>
			<path d="M113.614,191.261c0,0-0.42,1.109-1.363,2.945c-0.472,0.918-1.071,2.019-1.807,3.254
				c-0.747,1.226-1.592,2.614-2.616,4.055c-0.977,1.479-2.16,2.985-3.402,4.59c-0.613,0.809-1.312,1.581-2.002,2.393
				c-0.697,0.805-1.401,1.636-2.182,2.421c-1.558,1.571-3.16,3.204-4.937,4.704c-0.87,0.768-1.747,1.541-2.627,2.317
				c-0.913,0.738-1.829,1.479-2.745,2.22c-1.792,1.527-3.726,2.878-5.589,4.251c-0.467,0.342-0.932,0.682-1.395,1.021
				c-0.47,0.328-0.957,0.628-1.43,0.94c-0.951,0.618-1.89,1.228-2.813,1.828c-0.917,0.608-1.829,1.192-2.763,1.695
				c-0.923,0.521-1.826,1.029-2.704,1.524c-0.886,0.481-1.723,0.993-2.576,1.408c-0.855,0.409-1.682,0.805-2.476,1.184
				c-1.595,0.739-3.019,1.49-4.343,2.023c-1.327,0.523-2.483,0.979-3.436,1.354c-1.903,0.743-2.991,1.168-2.991,1.168l-0.109-0.279
				c0,0,1.052-0.501,2.893-1.377c0.919-0.435,2.036-0.962,3.316-1.567c1.278-0.608,2.647-1.442,4.177-2.27
				c0.76-0.423,1.552-0.862,2.371-1.318c0.815-0.461,1.613-1.019,2.456-1.547c1.656-1.109,3.497-2.123,5.222-3.447
				c0.88-0.634,1.774-1.278,2.68-1.931c0.45-0.329,0.913-0.646,1.359-0.991c0.438-0.354,0.879-0.711,1.322-1.069
				c1.765-1.438,3.593-2.848,5.278-4.432c0.855-0.774,1.711-1.548,2.563-2.319c0.812-0.812,1.622-1.622,2.425-2.426
				c1.625-1.584,3.1-3.263,4.601-4.812c1.473-1.578,2.897-3.104,4.248-4.551c1.306-1.486,2.595-2.853,3.712-4.176
				c0.569-0.654,1.115-1.282,1.634-1.878c0.51-0.604,0.981-1.188,1.448-1.721c0.911-1.08,1.688-2.04,2.336-2.826
				c1.285-1.581,2.005-2.508,2.005-2.508L113.614,191.261z"/>
		</g>
		<g>
			<path d="M93.702,181.47c0,0-0.369,1.321-1.241,3.545c-0.844,2.236-2.228,5.362-4.169,8.976c-0.971,1.806-2.081,3.733-3.348,5.715
				c-1.243,1.998-2.667,4.035-4.227,6.078c-1.595,2.015-3.289,4.063-5.147,6.022c-0.902,1.003-1.887,1.947-2.825,2.936
				c-0.977,0.954-1.957,1.912-2.963,2.843c-2.025,1.846-4.09,3.65-6.243,5.276c-0.536,0.409-1.069,0.816-1.6,1.222
				c-0.547,0.384-1.092,0.765-1.633,1.144c-1.068,0.778-2.18,1.464-3.266,2.148c-2.178,1.355-4.351,2.562-6.478,3.562
				c-1.043,0.54-2.113,0.951-3.128,1.386c-0.511,0.21-1.005,0.433-1.503,0.621c-0.502,0.178-0.996,0.352-1.479,0.521
				c-1.914,0.729-3.738,1.181-5.33,1.646c-1.616,0.377-3.031,0.677-4.195,0.91c-2.351,0.347-3.694,0.545-3.694,0.545l-0.042-0.297
				c0,0,1.321-0.271,3.633-0.743c1.141-0.296,2.523-0.671,4.095-1.129c1.546-0.548,3.313-1.089,5.154-1.911
				c0.464-0.192,0.938-0.39,1.421-0.591c0.478-0.212,0.952-0.458,1.441-0.691c0.971-0.481,1.993-0.939,2.985-1.526
				c2.019-1.102,4.106-2.341,6.172-3.761c1.032-0.713,2.087-1.424,3.098-2.228c0.512-0.392,1.027-0.785,1.545-1.181
				c0.501-0.417,1.004-0.836,1.51-1.257c2.031-1.671,3.972-3.515,5.868-5.394c1.867-1.912,3.679-3.876,5.347-5.909
				c1.673-2.028,3.282-4.054,4.773-6.063c0.776-0.981,1.478-1.994,2.221-2.944c0.71-0.975,1.405-1.929,2.082-2.857
				c0.671-0.934,1.32-1.845,1.923-2.744c0.631-0.881,1.21-1.753,1.774-2.587c1.114-1.676,2.136-3.217,3.01-4.604
				c0.876-1.391,1.64-2.604,2.27-3.602c1.216-2.032,1.912-3.193,1.912-3.193L93.702,181.47z"/>
		</g>
		<g>
			<path d="M149.982,194.715c0,0-0.431-0.4-1.111-1.168c-0.686-0.762-1.604-1.907-2.608-3.355c-0.485-0.734-1.008-1.534-1.515-2.41
				c-0.524-0.866-0.99-1.828-1.469-2.823c-0.438-1.015-0.883-2.068-1.235-3.176c-0.375-1.099-0.681-2.239-0.948-3.388
				c-0.245-1.153-0.464-2.313-0.568-3.47c-0.133-1.153-0.159-2.299-0.131-3.401c0.031-1.104,0.137-2.168,0.308-3.165
				c0.18-0.994,0.39-1.928,0.663-2.765c0.228-0.852,0.57-1.586,0.813-2.256c0.311-0.643,0.562-1.211,0.802-1.662
				c0.506-0.888,0.795-1.395,0.795-1.395l0.086,0.051c0,0-0.266,0.517-0.73,1.42c-0.219,0.457-0.443,1.032-0.723,1.679
				c-0.212,0.674-0.519,1.41-0.707,2.259c-0.233,0.834-0.399,1.76-0.534,2.739c-0.121,0.982-0.202,2.023-0.194,3.102
				c0.008,1.078,0.068,2.193,0.235,3.312c0.138,1.123,0.388,2.248,0.663,3.363c0.306,1.107,0.648,2.205,1.058,3.261
				c0.393,1.061,0.845,2.079,1.295,3.058c0.44,0.983,0.915,1.912,1.364,2.795c0.444,0.885,0.91,1.698,1.344,2.448
				c0.448,0.741,0.839,1.436,1.222,2.027c0.384,0.594,0.718,1.111,0.994,1.537c0.578,0.838,0.908,1.316,0.908,1.316L149.982,194.715
				z"/>
		</g>
		<g>
			<path d="M145.861,162.998c0,0-0.035-0.118-0.109-0.312c-0.066-0.195-0.19-0.464-0.357-0.76c-0.164-0.298-0.383-0.621-0.667-0.909
				c-0.13-0.155-0.302-0.274-0.46-0.41c-0.166-0.127-0.351-0.236-0.538-0.338c-0.199-0.08-0.377-0.208-0.591-0.255
				c-0.209-0.052-0.4-0.157-0.611-0.182c-0.207-0.034-0.402-0.1-0.597-0.126c-0.195-0.02-0.38-0.048-0.553-0.074
				c-0.345-0.054-0.643-0.063-0.852-0.086c-0.209-0.021-0.333-0.043-0.333-0.043s0.113-0.044,0.317-0.103
				c0.206-0.041,0.496-0.169,0.863-0.199c0.365-0.05,0.799-0.081,1.27-0.02c0.235,0.009,0.476,0.08,0.719,0.144
				c0.248,0.049,0.477,0.187,0.717,0.28c0.449,0.259,0.877,0.583,1.154,0.989c0.297,0.387,0.474,0.809,0.561,1.175
				c0.102,0.363,0.097,0.681,0.102,0.894C145.893,162.878,145.861,162.998,145.861,162.998z"/>
		</g>
		<g>
			<g>
				<path d="M161.803,110.916c0,0,0.293-1.166,0.68-3.224c0.171-1.033,0.39-2.283,0.581-3.721c0.208-1.437,0.329-3.069,0.447-4.841
					c0.09-1.773,0.128-3.694,0.036-5.712c-0.142-2.012-0.271-4.141-0.742-6.278c-0.093-0.54-0.203-1.078-0.345-1.614
					c-0.138-0.536-0.243-1.086-0.409-1.622c-0.347-1.064-0.667-2.156-1.134-3.199c-0.388-1.081-0.987-2.066-1.501-3.104
					c-0.649-0.953-1.203-1.987-1.975-2.86c-1.391-1.875-3.188-3.396-4.998-4.816c-0.482-0.317-0.963-0.632-1.442-0.946
					c-0.48-0.312-0.944-0.646-1.46-0.887c-0.504-0.263-1.004-0.524-1.501-0.784l-0.744-0.387l-0.772-0.315
					c-2.027-0.901-4.091-1.518-6.054-2.078c-1.992-0.456-3.875-0.918-5.657-1.128c-0.887-0.123-1.732-0.288-2.546-0.359
					c-0.815-0.068-1.588-0.132-2.314-0.193c-0.727-0.059-1.408-0.114-2.037-0.166c-0.632-0.014-1.212-0.027-1.736-0.039
					c-2.099-0.047-3.297-0.075-3.297-0.075l-0.007-0.267c0,0,1.203-0.022,3.309-0.061c0.527-0.009,1.111-0.02,1.746-0.032
					c0.635,0.026,1.321,0.054,2.055,0.083c0.735,0.031,1.517,0.064,2.34,0.1c0.824,0.039,1.684,0.17,2.586,0.258
					c1.811,0.14,3.741,0.529,5.792,0.913c2.023,0.506,4.157,1.075,6.28,1.941l0.808,0.302l0.785,0.377
					c0.524,0.254,1.053,0.51,1.584,0.768c0.544,0.236,1.041,0.568,1.553,0.879c0.511,0.313,1.025,0.629,1.541,0.946
					c1.951,1.427,3.896,2.993,5.452,4.933c0.857,0.904,1.495,1.976,2.226,2.975c0.594,1.081,1.273,2.122,1.735,3.255
					c1.06,2.208,1.725,4.54,2.177,6.809c0.446,2.277,0.603,4.513,0.621,6.621c0.015,2.11-0.153,4.094-0.376,5.909
					c-0.248,1.813-0.569,3.457-0.911,4.896c-0.32,1.444-0.691,2.68-1.02,3.688c-0.652,2.017-1.164,3.119-1.164,3.119
					L161.803,110.916z"/>
				<g>
					<circle cx="122.965" cy="62.466" r="1.729"/>
				</g>
			</g>
		</g>
	</g>
</g>
</svg>
