<?xml version="1.0" encoding="utf-8"?>
<!-- Generator: Adobe Illustrator 16.0.4, SVG Export Plug-In . SVG Version: 6.00 Build 0)  -->
<!DOCTYPE svg PUBLIC "-//W3C//DTD SVG 1.1//EN" "http://www.w3.org/Graphics/SVG/1.1/DTD/svg11.dtd">
<svg version="1.1" id="Layer_2" xmlns="http://www.w3.org/2000/svg" xmlns:xlink="http://www.w3.org/1999/xlink" x="0px" y="0px"
	 width="424.689px" height="297.777px" viewBox="0 0 424.689 297.777" enable-background="new 0 0 424.689 297.777"
	 xml:space="preserve">
<g id="frame1">
	<polygon fill="#7C3F15" points="420.843,296.276 43.177,295.941 2.991,210.61 1.696,202.61 335.51,210.61 421.075,286.54 	"/>
	<polygon fill="#8C4A1E" points="420.843,287.276 44.177,287.941 2.991,203.61 335.51,203.61 	"/>
	<g>
		<g>
			<path fill="#AD6636" d="M60.384,266.918c1.237,1.42,1.218,2.568-0.048,2.568H38.877c-1.264,0-2.293-1.148-3.53-2.568l0,0
				c-1.237-1.418-1.219-2.57,0.046-2.57h20.459C57.116,264.347,59.146,265.5,60.384,266.918L60.384,266.918z"/>
			<path fill="#AD6636" d="M108.827,266.918c1.237,1.42,1.218,2.568-0.046,2.568H81.32c-1.264,0-3.293-1.148-4.53-2.568l0,0
				c-1.237-1.418-1.219-2.57,0.045-2.57h27.461C105.561,264.347,107.59,265.5,108.827,266.918L108.827,266.918z"/>
			<path fill="#AD6636" d="M157.271,266.918c1.237,1.42,1.218,2.568-0.046,2.568h-27.461c-1.264,0-3.293-1.148-4.53-2.568l0,0
				c-1.237-1.418-1.218-2.57,0.045-2.57h27.461C154.003,264.347,156.033,265.5,157.271,266.918L157.271,266.918z"/>
			<path fill="#AD6636" d="M205.714,266.918c1.237,1.42,1.218,2.568-0.046,2.568h-27.461c-1.264,0-3.293-1.148-4.53-2.568l0,0
				c-1.237-1.418-1.218-2.57,0.045-2.57h27.462C202.446,264.347,204.477,265.5,205.714,266.918L205.714,266.918z"/>
			<path fill="#AD6636" d="M254.157,266.918c1.236,1.42,1.218,2.568-0.047,2.568h-27.461c-1.265,0-3.291-1.148-4.529-2.568l0,0
				c-1.235-1.418-1.219-2.57,0.046-2.57h27.461C250.89,264.347,252.92,265.5,254.157,266.918L254.157,266.918z"/>
			<path fill="#AD6636" d="M302.601,266.918c1.239,1.42,1.22,2.568-0.046,2.568h-27.46c-1.265,0-3.291-1.148-4.531-2.568l0,0
				c-1.233-1.418-1.219-2.57,0.047-2.57h27.461C299.334,264.347,301.365,265.5,302.601,266.918L302.601,266.918z"/>
			<path fill="#AD6636" d="M351.044,266.918c1.239,1.42,1.218,2.568-0.046,2.568h-27.461c-1.264,0-3.293-1.148-4.53-2.568l0,0
				c-1.237-1.418-1.218-2.57,0.046-2.57h27.46C347.777,264.347,349.809,265.5,351.044,266.918L351.044,266.918z"/>
			<path fill="#AD6636" d="M399.487,266.918c1.235,1.42,1.218,2.568-0.046,2.568H371.98c-1.266,0-3.293-1.148-4.53-2.568l0,0
				c-1.237-1.418-1.218-2.57,0.046-2.57h27.461C396.221,264.347,398.25,265.5,399.487,266.918L399.487,266.918z"/>
			<path fill="#AD6636" d="M89.368,272.757c1.238,1.421,1.216,2.568-0.048,2.568H61.859c-1.263,0-3.29-1.147-4.528-2.568l0,0
				c-1.237-1.418-1.216-2.569,0.046-2.569h27.461C86.102,270.187,88.131,271.339,89.368,272.757L89.368,272.757z"/>
			<path fill="#AD6636" d="M137.812,272.757c1.238,1.421,1.216,2.568-0.047,2.568h-27.462c-1.263,0-3.29-1.147-4.528-2.568l0,0
				c-1.237-1.418-1.216-2.569,0.046-2.569h27.463C134.545,270.187,136.574,271.339,137.812,272.757L137.812,272.757z"/>
			<path fill="#AD6636" d="M186.255,272.757c1.238,1.421,1.216,2.568-0.047,2.568h-27.461c-1.264,0-3.289-1.147-4.528-2.568l0,0
				c-1.236-1.418-1.217-2.569,0.047-2.569h27.461C182.988,270.187,185.018,271.339,186.255,272.757L186.255,272.757z"/>
			<path fill="#AD6636" d="M234.699,272.757c1.239,1.421,1.216,2.568-0.05,2.568H207.19c-1.265,0-3.289-1.147-4.528-2.568l0,0
				c-1.236-1.418-1.219-2.569,0.047-2.569h27.459C231.435,270.187,233.463,271.339,234.699,272.757L234.699,272.757z"/>
			<path fill="#AD6636" d="M283.144,272.757c1.238,1.421,1.215,2.568-0.049,2.568h-27.461c-1.264,0-3.289-1.147-4.527-2.568l0,0
				c-1.235-1.418-1.217-2.569,0.048-2.569h27.459C279.877,270.187,281.906,271.339,283.144,272.757L283.144,272.757z"/>
			<path fill="#AD6636" d="M331.585,272.757c1.238,1.421,1.217,2.568-0.047,2.568h-27.461c-1.266,0-3.291-1.147-4.529-2.568l0,0
				c-1.237-1.418-1.216-2.569,0.048-2.569h27.461C328.32,270.187,330.348,271.339,331.585,272.757L331.585,272.757z"/>
			<path fill="#AD6636" d="M380.028,272.757c1.236,1.421,1.217,2.568-0.047,2.568H352.52c-1.264,0-3.287-1.147-4.526-2.568l0,0
				c-1.236-1.418-1.217-2.569,0.047-2.569h27.46C376.764,270.187,378.791,271.339,380.028,272.757L380.028,272.757z"/>
			<path fill="#AD6636" d="M409.473,272.757c1.239,1.421,1.218,2.568-0.048,2.568h-8.461c-1.264,0-3.289-1.147-4.528-2.568l0,0
				c-1.234-1.418-1.217-2.569,0.049-2.569h8.461C406.207,270.187,408.236,271.339,409.473,272.757L409.473,272.757z"/>
		</g>
		<g>
			<path fill="#AD6636" d="M70.441,278.448c1.238,1.42,1.217,2.568-0.048,2.568H49.935c-1.265,0-3.292-1.148-4.53-2.568l0,0
				c-1.238-1.419-1.218-2.569,0.047-2.569H65.91C67.175,275.877,69.203,277.029,70.441,278.448L70.441,278.448z"/>
			<path fill="#AD6636" d="M118.885,278.448c1.238,1.42,1.218,2.568-0.047,2.568H91.377c-1.264,0-3.291-1.148-4.529-2.568l0,0
				c-1.238-1.419-1.218-2.569,0.046-2.569h27.461C115.619,275.877,117.646,277.029,118.885,278.448L118.885,278.448z"/>
			<path fill="#AD6636" d="M167.328,278.448c1.238,1.42,1.217,2.568-0.047,2.568H139.82c-1.263,0-3.291-1.148-4.529-2.568l0,0
				c-1.238-1.419-1.217-2.569,0.046-2.569h27.461C164.062,275.877,166.09,277.029,167.328,278.448L167.328,278.448z"/>
			<path fill="#AD6636" d="M215.771,278.448c1.238,1.42,1.217,2.568-0.045,2.568h-27.461c-1.263,0-3.291-1.148-4.529-2.568l0,0
				c-1.238-1.419-1.217-2.569,0.046-2.569h27.462C212.505,275.877,214.533,277.029,215.771,278.448L215.771,278.448z"/>
			<path fill="#AD6636" d="M264.215,278.448c1.238,1.42,1.218,2.568-0.046,2.568h-27.461c-1.266,0-3.29-1.148-4.529-2.568l0,0
				c-1.236-1.419-1.219-2.569,0.047-2.569h27.461C260.948,275.877,262.978,277.029,264.215,278.448L264.215,278.448z"/>
			<path fill="#AD6636" d="M312.659,278.448c1.239,1.42,1.217,2.568-0.048,2.568h-27.46c-1.267,0-3.291-1.148-4.529-2.568l0,0
				c-1.237-1.419-1.219-2.569,0.046-2.569h27.46C309.393,275.877,311.422,277.029,312.659,278.448L312.659,278.448z"/>
			<path fill="#AD6636" d="M361.103,278.448c1.239,1.42,1.219,2.568-0.048,2.568h-27.46c-1.264,0-3.292-1.148-4.528-2.568l0,0
				c-1.238-1.419-1.219-2.569,0.047-2.569h27.46C357.836,275.877,359.865,277.029,361.103,278.448L361.103,278.448z"/>
			<path fill="#AD6636" d="M409.545,278.448c1.238,1.42,1.218,2.568-0.046,2.568h-27.461c-1.264,0-3.292-1.148-4.53-2.568l0,0
				c-1.238-1.419-1.217-2.569,0.047-2.569h27.461C406.279,275.877,408.307,277.029,409.545,278.448L409.545,278.448z"/>
			<path fill="#AD6636" d="M99.426,284.287c1.237,1.418,1.218,2.569-0.046,2.569H71.919c-1.263,0-3.293-1.151-4.53-2.569l0,0
				c-1.237-1.418-1.215-2.568,0.049-2.568h27.461C96.162,281.718,98.188,282.869,99.426,284.287L99.426,284.287z"/>
			<path fill="#AD6636" d="M147.869,284.287c1.237,1.418,1.218,2.569-0.045,2.569h-27.462c-1.263,0-3.293-1.151-4.53-2.569l0,0
				c-1.237-1.418-1.215-2.568,0.049-2.568h27.461C144.605,281.718,146.632,282.869,147.869,284.287L147.869,284.287z"/>
			<path fill="#AD6636" d="M196.312,284.287c1.237,1.418,1.218,2.569-0.045,2.569h-27.461c-1.264,0-3.292-1.151-4.531-2.569l0,0
				c-1.236-1.418-1.215-2.568,0.049-2.568h27.461C193.049,281.718,195.075,282.869,196.312,284.287L196.312,284.287z"/>
			<path fill="#AD6636" d="M244.756,284.287c1.239,1.418,1.22,2.569-0.046,2.569h-27.46c-1.265,0-3.292-1.151-4.531-2.569l0,0
				c-1.236-1.418-1.215-2.568,0.049-2.568h27.461C241.492,281.718,243.521,282.869,244.756,284.287L244.756,284.287z"/>
			<path fill="#AD6636" d="M293.199,284.287c1.239,1.418,1.219,2.569-0.046,2.569h-27.461c-1.264,0-3.291-1.151-4.53-2.569l0,0
				c-1.236-1.418-1.215-2.568,0.049-2.568h27.461C289.937,281.718,291.963,282.869,293.199,284.287L293.199,284.287z"/>
			<path fill="#AD6636" d="M341.643,284.287c1.237,1.418,1.221,2.569-0.045,2.569h-27.461c-1.264,0-3.294-1.151-4.529-2.569l0,0
				c-1.237-1.418-1.217-2.568,0.049-2.568h27.461C338.379,281.718,340.405,282.869,341.643,284.287L341.643,284.287z"/>
			<path fill="#AD6636" d="M390.086,284.287c1.237,1.418,1.219,2.569-0.045,2.569H362.58c-1.264,0-3.292-1.151-4.531-2.569l0,0
				c-1.236-1.418-1.215-2.568,0.049-2.568h27.461C386.822,281.718,388.849,282.869,390.086,284.287L390.086,284.287z"/>
			<path fill="#AD6636" d="M420.529,284.287c1.237,1.418,1.219,2.569-0.045,2.569h-9.461c-1.266,0-3.292-1.151-4.531-2.569l0,0
				c-1.236-1.418-1.215-2.568,0.049-2.568h9.461C417.266,281.718,419.293,282.869,420.529,284.287L420.529,284.287z"/>
		</g>
	</g>
	<g>
		<path fill="#AD6636" d="M41.881,244.918c1.238,1.42,1.219,2.568-0.047,2.568H24.708c-1.264,0-1.293-0.148-2.531-1.568l-0.5-1
			c-1.237-1.418-0.719-2.57,0.546-2.57h15.126C38.613,242.347,40.644,243.5,41.881,244.918L41.881,244.918z"/>
		<path fill="#AD6636" d="M90.324,244.918c1.238,1.42,1.219,2.568-0.045,2.568H62.818c-1.264,0-3.293-1.148-4.531-2.568l0,0
			c-1.237-1.418-1.219-2.57,0.045-2.57h27.461C87.058,242.347,89.087,243.5,90.324,244.918L90.324,244.918z"/>
		<path fill="#AD6636" d="M138.768,244.918c1.238,1.42,1.219,2.568-0.045,2.568h-27.461c-1.264,0-3.293-1.148-4.531-2.568l0,0
			c-1.237-1.418-1.218-2.57,0.045-2.57h27.461C135.5,242.347,137.53,243.5,138.768,244.918L138.768,244.918z"/>
		<path fill="#AD6636" d="M187.211,244.918c1.238,1.42,1.219,2.568-0.045,2.568h-27.461c-1.264,0-3.293-1.148-4.531-2.568l0,0
			c-1.237-1.418-1.218-2.57,0.045-2.57h27.462C183.943,242.347,185.974,243.5,187.211,244.918L187.211,244.918z"/>
		<path fill="#AD6636" d="M235.653,244.918c1.238,1.42,1.22,2.568-0.045,2.568h-27.46c-1.264,0-3.291-1.148-4.531-2.568l0,0
			c-1.235-1.418-1.219-2.57,0.046-2.57h27.461C232.388,242.347,234.417,243.5,235.653,244.918L235.653,244.918z"/>
		<path fill="#AD6636" d="M284.099,244.918c1.239,1.42,1.219,2.568-0.045,2.568h-27.462c-1.264,0-3.291-1.148-4.53-2.568l0,0
			c-1.234-1.418-1.22-2.57,0.045-2.57h27.461C280.831,242.347,282.862,243.5,284.099,244.918L284.099,244.918z"/>
		<path fill="#AD6636" d="M332.541,244.918c1.24,1.42,1.219,2.568-0.045,2.568h-27.461c-1.266,0-3.293-1.148-4.531-2.568l0,0
			c-1.237-1.418-1.218-2.57,0.046-2.57h27.46C329.274,242.347,331.306,243.5,332.541,244.918L332.541,244.918z"/>
		<path fill="#AD6636" d="M380.984,244.918c1.236,1.42,1.219,2.568-0.045,2.568h-27.463c-1.264,0-3.293-1.148-4.529-2.568l0,0
			c-1.237-1.418-1.22-2.57,0.046-2.57h27.461C377.718,242.347,379.747,243.5,380.984,244.918L380.984,244.918z"/>
		<path fill="#AD6636" d="M70.866,250.757c1.238,1.421,1.216,2.568-0.048,2.568H43.357c-1.263,0-3.29-1.147-4.528-2.568l0,0
			c-1.237-1.418-1.217-2.569,0.045-2.569h27.461C67.599,248.187,69.629,249.339,70.866,250.757L70.866,250.757z"/>
		<path fill="#AD6636" d="M119.31,250.757c1.238,1.421,1.216,2.568-0.047,2.568H91.801c-1.263,0-3.29-1.147-4.528-2.568l0,0
			c-1.237-1.418-1.217-2.569,0.045-2.569h27.463C116.042,248.187,118.072,249.339,119.31,250.757L119.31,250.757z"/>
		<path fill="#AD6636" d="M167.753,250.757c1.238,1.421,1.216,2.568-0.047,2.568h-27.461c-1.264,0-3.289-1.147-4.528-2.568l0,0
			c-1.236-1.418-1.218-2.569,0.046-2.569h27.461C164.485,248.187,166.516,249.339,167.753,250.757L167.753,250.757z"/>
		<path fill="#AD6636" d="M216.196,250.757c1.24,1.421,1.217,2.568-0.049,2.568h-27.459c-1.265,0-3.289-1.147-4.528-2.568l0,0
			c-1.236-1.418-1.22-2.569,0.046-2.569h27.459C212.931,248.187,214.961,249.339,216.196,250.757L216.196,250.757z"/>
		<path fill="#AD6636" d="M264.642,250.757c1.238,1.421,1.215,2.568-0.05,2.568h-27.46c-1.264,0-3.289-1.147-4.527-2.568l0,0
			c-1.235-1.418-1.219-2.569,0.045-2.569h27.459C261.374,248.187,263.403,249.339,264.642,250.757L264.642,250.757z"/>
		<path fill="#AD6636" d="M313.083,250.757c1.238,1.421,1.217,2.568-0.047,2.568h-27.461c-1.264,0-3.291-1.147-4.529-2.568l0,0
			c-1.236-1.418-1.217-2.569,0.047-2.569h27.461C309.817,248.187,311.846,249.339,313.083,250.757L313.083,250.757z"/>
		<path fill="#AD6636" d="M361.526,250.757c1.236,1.421,1.217,2.568-0.049,2.568h-27.461c-1.264,0-3.289-1.147-4.526-2.568l0,0
			c-1.236-1.418-1.218-2.569,0.046-2.569h27.461C358.261,248.187,360.289,249.339,361.526,250.757L361.526,250.757z"/>
	</g>
	<path fill="#AD6636" d="M51.938,256.448c1.238,1.42,1.218,2.568-0.047,2.568H31.433c-1.265,0-2.293-1.148-3.531-2.568l0,0
		c-1.237-1.419-1.217-2.569,0.048-2.569h19.459C48.673,253.877,50.701,255.029,51.938,256.448L51.938,256.448z"/>
	<path fill="#AD6636" d="M100.382,256.448c1.238,1.42,1.219,2.568-0.046,2.568H72.875c-1.264,0-3.292-1.148-4.53-2.568l0,0
		c-1.237-1.419-1.217-2.569,0.047-2.569h27.461C97.117,253.877,99.145,255.029,100.382,256.448L100.382,256.448z"/>
	<path fill="#AD6636" d="M148.825,256.448c1.238,1.42,1.218,2.568-0.046,2.568h-27.461c-1.263,0-3.292-1.148-4.53-2.568l0,0
		c-1.237-1.419-1.216-2.569,0.047-2.569h27.461C145.56,253.877,147.588,255.029,148.825,256.448L148.825,256.448z"/>
	<path fill="#AD6636" d="M197.269,256.448c1.238,1.42,1.218,2.568-0.045,2.568h-27.462c-1.263,0-3.292-1.148-4.53-2.568l0,0
		c-1.237-1.419-1.216-2.569,0.047-2.569h27.462C194.003,253.877,196.031,255.029,197.269,256.448L197.269,256.448z"/>
	<path fill="#AD6636" d="M245.712,256.448c1.238,1.42,1.219,2.568-0.045,2.568h-27.461c-1.266,0-3.291-1.148-4.53-2.568l0,0
		c-1.237-1.419-1.218-2.569,0.048-2.569h27.461C242.446,253.877,244.476,255.029,245.712,256.448L245.712,256.448z"/>
	<path fill="#AD6636" d="M294.156,256.448c1.239,1.42,1.218,2.568-0.048,2.568h-27.459c-1.267,0-3.291-1.148-4.53-2.568l0,0
		c-1.237-1.419-1.218-2.569,0.047-2.569h27.46C290.892,253.877,292.919,255.029,294.156,256.448L294.156,256.448z"/>
	<path fill="#AD6636" d="M342.6,256.448c1.239,1.42,1.22,2.568-0.047,2.568h-27.46c-1.264,0-3.293-1.148-4.529-2.568l0,0
		c-1.237-1.419-1.218-2.569,0.048-2.569h27.46C339.334,253.877,341.362,255.029,342.6,256.448L342.6,256.448z"/>
	<path fill="#AD6636" d="M391.042,256.448c1.238,1.42,1.219,2.568-0.045,2.568h-27.461c-1.266,0-3.293-1.148-4.531-2.568l0,0
		c-1.237-1.419-1.216-2.569,0.048-2.569h27.461C387.777,253.877,389.805,255.029,391.042,256.448L391.042,256.448z"/>
	<path fill="#AD6636" d="M80.924,262.287c1.236,1.418,1.218,2.569-0.046,2.569H53.417c-1.263,0-3.294-1.151-4.53-2.569l0,0
		c-1.237-1.418-1.216-2.568,0.048-2.568h27.461C77.659,259.718,79.687,260.869,80.924,262.287L80.924,262.287z"/>
	<path fill="#AD6636" d="M129.367,262.287c1.236,1.418,1.218,2.569-0.045,2.569H101.86c-1.263,0-3.294-1.151-4.53-2.569l0,0
		c-1.237-1.418-1.216-2.568,0.048-2.568h27.461C126.103,259.718,128.13,260.869,129.367,262.287L129.367,262.287z"/>
	<path fill="#AD6636" d="M177.811,262.287c1.236,1.418,1.218,2.569-0.045,2.569h-27.461c-1.264,0-3.293-1.151-4.531-2.569l0,0
		c-1.236-1.418-1.216-2.568,0.048-2.568h27.461C174.546,259.718,176.573,260.869,177.811,262.287L177.811,262.287z"/>
	<path fill="#AD6636" d="M226.254,262.287c1.238,1.418,1.22,2.569-0.046,2.569h-27.46c-1.265,0-3.293-1.151-4.531-2.569l0,0
		c-1.236-1.418-1.216-2.568,0.048-2.568h27.46C222.989,259.718,225.019,260.869,226.254,262.287L226.254,262.287z"/>
	<path fill="#AD6636" d="M274.696,262.287c1.238,1.418,1.22,2.569-0.045,2.569H247.19c-1.265,0-3.293-1.151-4.53-2.569l0,0
		c-1.236-1.418-1.216-2.568,0.048-2.568h27.461C271.433,259.718,273.461,260.869,274.696,262.287L274.696,262.287z"/>
	<path fill="#AD6636" d="M323.141,262.287c1.236,1.418,1.221,2.569-0.045,2.569h-27.461c-1.264,0-3.295-1.151-4.53-2.569l0,0
		c-1.236-1.418-1.217-2.568,0.047-2.568h27.463C319.876,259.718,321.903,260.869,323.141,262.287L323.141,262.287z"/>
	<path fill="#AD6636" d="M371.584,262.287c1.236,1.418,1.219,2.569-0.045,2.569h-27.461c-1.264,0-3.293-1.151-4.531-2.569l0,0
		c-1.236-1.418-1.216-2.568,0.048-2.568h27.461C368.319,259.718,370.347,260.869,371.584,262.287L371.584,262.287z"/>
	<path fill="#AD6636" d="M399.027,262.287c1.236,1.418,1.219,2.569-0.045,2.569h-6.461c-1.266,0-3.295-1.151-4.531-2.569l0,0
		c-1.236-1.418-1.216-2.568,0.048-2.568h6.461C395.763,259.718,397.791,260.869,399.027,262.287L399.027,262.287z"/>
	<path fill="#AD6636" d="M40.194,261.648c1.238,1.355,1.219,2.459-0.045,2.459h-6.461c-1.264,0-2.293-1.104-3.531-2.459l0,0
		c-1.236-1.355-1.216-2.457,0.048-2.457h5.461C36.93,259.191,38.958,260.292,40.194,261.648L40.194,261.648z"/>
	<path fill="#AD6636" d="M34.944,250.69c1.238,1.418,1.219,2.569-0.045,2.569h-6.461c-1.264,0-2.293-1.151-3.531-2.569l0,0
		c-1.236-1.418-1.216-2.567,0.048-2.567h5.461C31.68,248.122,33.708,249.272,34.944,250.69L34.944,250.69z"/>
	<path fill="#AD6636" d="M26.177,239.009c1.238,1.418,1.219,2.57-0.045,2.57h-3.433c-1.264,0-2.293-1.152-3.531-2.57l0,0
		c-1.236-1.418-1.216-2.567,0.048-2.567h3.961c1.264,0,2.014,1.149,3.25,2.567H26.177z"/>
	<path fill="#AD6636" d="M57.62,284.509c1.691,1.418,1.664,2.57-0.061,2.57H43.258c-1.727,0-4.337-5.14-2.61-5.14h12.691
		C55.063,281.941,55.933,283.091,57.62,284.509L57.62,284.509z"/>
	<path fill="#AD6636" d="M50.437,272.509c1.78,1.418,1.752,2.57-0.064,2.57h-12.29c-1.818,0-5.264-5.14-3.445-5.14h11.289
		C47.743,269.941,48.659,271.091,50.437,272.509L50.437,272.509z"/>
	<path fill="#AD6636" d="M387.527,250.787c1.236,1.418,1.219,2.569-0.045,2.569h-6.461c-1.266,0-3.295-1.151-4.531-2.569l0,0
		c-1.236-1.418-1.216-2.568,0.048-2.568h6.461C384.263,248.218,386.291,249.369,387.527,250.787L387.527,250.787z"/>
	<path fill="#AD6636" d="M375.027,239.287c1.236,1.418,1.219,2.569-0.045,2.569h-6.461c-1.266,0-3.295-1.151-4.531-2.569l0,0
		c-1.236-1.418-1.216-2.568,0.048-2.568h6.461C371.763,236.718,373.791,237.869,375.027,239.287L375.027,239.287z"/>
	<path fill="#AD6636" d="M363.694,227.44c1.236,1.418,1.219,2.569-0.045,2.569h-6.463c-1.264,0-3.293-1.151-4.529-2.569l0,0
		c-1.236-1.418-1.216-2.567,0.048-2.567h6.461C360.43,224.872,362.458,226.022,363.694,227.44L363.694,227.44z"/>
	<path fill="#AD6636" d="M352.194,215.94c1.236,1.418,1.219,2.569-0.045,2.569h-6.463c-1.264,0-3.293-1.151-4.529-2.569l0,0
		c-1.236-1.418-1.216-2.567,0.048-2.567h6.461C348.93,213.372,350.958,214.522,352.194,215.94L352.194,215.94z"/>
	<path fill="#AD6636" d="M339.499,204.941c0.802,1.418,0.789,2.569-0.028,2.569h-4.183c-0.818,0-2.132-1.151-2.936-2.569l0,0
		c-0.801-1.418-0.785-2.567,0.031-2.567h4.184C337.386,202.373,338.699,203.523,339.499,204.941L339.499,204.941z"/>
	<g>
		<g>
			<path fill="#AD6636" d="M21.943,221.585c1.238,1.42,1.219,2.568-0.047,2.568h-8.72c-1.264,0-1.293-1.148-2.531-2.568l0,0
				c-1.237-1.418-1.219-2.57,0.046-2.57h6.72C18.676,219.014,20.706,220.167,21.943,221.585L21.943,221.585z"/>
			<path fill="#AD6636" d="M71.387,221.585c1.238,1.42,1.219,2.568-0.045,2.568H43.881c-1.264,0-3.293-1.148-4.531-2.568l0,0
				c-1.237-1.418-1.219-2.57,0.045-2.57h27.461C68.12,219.014,70.149,220.167,71.387,221.585L71.387,221.585z"/>
			<path fill="#AD6636" d="M119.83,221.585c1.238,1.42,1.219,2.568-0.045,2.568H92.324c-1.264,0-3.293-1.148-4.531-2.568l0,0
				c-1.237-1.418-1.218-2.57,0.045-2.57h27.461C116.562,219.014,118.593,220.167,119.83,221.585L119.83,221.585z"/>
			<path fill="#AD6636" d="M168.273,221.585c1.238,1.42,1.219,2.568-0.045,2.568h-27.461c-1.264,0-3.293-1.148-4.531-2.568l0,0
				c-1.237-1.418-1.218-2.57,0.045-2.57h27.462C165.006,219.014,167.036,220.167,168.273,221.585L168.273,221.585z"/>
			<path fill="#AD6636" d="M216.717,221.585c1.238,1.42,1.22,2.568-0.045,2.568h-27.461c-1.264,0-3.291-1.148-4.531-2.568l0,0
				c-1.235-1.418-1.219-2.57,0.046-2.57h27.461C213.449,219.014,215.479,220.167,216.717,221.585L216.717,221.585z"/>
			<path fill="#AD6636" d="M265.16,221.585c1.239,1.42,1.219,2.568-0.045,2.568h-27.462c-1.264,0-3.291-1.148-4.53-2.568l0,0
				c-1.235-1.418-1.22-2.57,0.046-2.57h27.46C261.894,219.014,263.925,220.167,265.16,221.585L265.16,221.585z"/>
			<path fill="#AD6636" d="M313.604,221.585c1.24,1.42,1.221,2.568-0.045,2.568h-27.46c-1.265,0-3.293-1.148-4.531-2.568l0,0
				c-1.236-1.418-1.219-2.57,0.045-2.57h27.462C310.337,219.014,312.368,220.167,313.604,221.585L313.604,221.585z"/>
			<path fill="#AD6636" d="M357.047,221.585c1.238,1.42,1.219,2.568-0.045,2.568h-22.461c-1.264,0-3.293-1.148-4.531-2.568l0,0
				c-1.235-1.418-1.218-2.57,0.046-2.57h22.461C353.781,219.014,355.81,220.167,357.047,221.585L357.047,221.585z"/>
			<path fill="#AD6636" d="M51.928,227.424c1.239,1.421,1.217,2.568-0.047,2.568H24.42c-1.263,0-3.29-1.147-4.529-2.568l0,0
				c-1.236-1.418-1.216-2.569,0.046-2.569h27.461C48.661,224.854,50.691,226.006,51.928,227.424L51.928,227.424z"/>
			<path fill="#AD6636" d="M100.371,227.424c1.239,1.421,1.217,2.568-0.046,2.568H72.863c-1.263,0-3.29-1.147-4.529-2.568l0,0
				c-1.236-1.418-1.216-2.569,0.046-2.569h27.463C97.104,224.854,99.135,226.006,100.371,227.424L100.371,227.424z"/>
			<path fill="#AD6636" d="M148.814,227.424c1.239,1.421,1.217,2.568-0.046,2.568h-27.461c-1.264,0-3.289-1.147-4.528-2.568l0,0
				c-1.236-1.418-1.218-2.569,0.046-2.569h27.461C145.548,224.854,147.578,226.006,148.814,227.424L148.814,227.424z"/>
			<path fill="#AD6636" d="M197.26,227.424c1.239,1.421,1.216,2.568-0.049,2.568h-27.46c-1.265,0-3.289-1.147-4.528-2.568l0,0
				c-1.236-1.418-1.22-2.569,0.046-2.569h27.459C193.993,224.854,196.023,226.006,197.26,227.424L197.26,227.424z"/>
			<path fill="#AD6636" d="M245.703,227.424c1.239,1.421,1.216,2.568-0.05,2.568h-27.459c-1.264,0-3.289-1.147-4.528-2.568l0,0
				c-1.236-1.418-1.218-2.569,0.046-2.569h27.459C242.437,224.854,244.467,226.006,245.703,227.424L245.703,227.424z"/>
			<path fill="#AD6636" d="M294.146,227.424c1.238,1.421,1.217,2.568-0.047,2.568h-27.461c-1.264,0-3.291-1.147-4.529-2.568l0,0
				c-1.235-1.418-1.217-2.569,0.049-2.569h27.461C290.88,224.854,292.908,226.006,294.146,227.424L294.146,227.424z"/>
			<path fill="#AD6636" d="M342.588,227.424c1.239,1.421,1.218,2.568-0.046,2.568h-27.461c-1.264,0-3.289-1.147-4.528-2.568l0,0
				c-1.234-1.418-1.218-2.569,0.046-2.569h27.461C339.323,224.854,341.352,226.006,342.588,227.424L342.588,227.424z"/>
		</g>
		<g>
			<path fill="#AD6636" d="M33.001,233.115c1.238,1.42,1.218,2.568-0.048,2.568H19.677c-1.264,0-2.292-1.148-3.53-2.568l0,0
				c-1.237-1.419-1.217-2.569,0.048-2.569h12.276C29.735,230.544,31.764,231.696,33.001,233.115L33.001,233.115z"/>
			<path fill="#AD6636" d="M81.444,233.115c1.238,1.42,1.218,2.568-0.046,2.568h-27.46c-1.264,0-3.292-1.148-4.53-2.568l0,0
				c-1.237-1.419-1.217-2.569,0.047-2.569h27.461C78.18,230.544,80.207,231.696,81.444,233.115L81.444,233.115z"/>
			<path fill="#AD6636" d="M129.888,233.115c1.238,1.42,1.218,2.568-0.046,2.568h-27.461c-1.264,0-3.292-1.148-4.53-2.568l0,0
				c-1.237-1.419-1.216-2.569,0.047-2.569h27.461C126.622,230.544,128.65,231.696,129.888,233.115L129.888,233.115z"/>
			<path fill="#AD6636" d="M178.331,233.115c1.238,1.42,1.218,2.568-0.046,2.568h-27.461c-1.264,0-3.292-1.148-4.53-2.568l0,0
				c-1.237-1.419-1.216-2.569,0.047-2.569h27.462C175.065,230.544,177.094,231.696,178.331,233.115L178.331,233.115z"/>
			<path fill="#AD6636" d="M226.774,233.115c1.238,1.42,1.218,2.568-0.047,2.568h-27.46c-1.264,0-3.29-1.148-4.529-2.568l0,0
				c-1.237-1.419-1.218-2.569,0.047-2.569h27.461C223.509,230.544,225.537,231.696,226.774,233.115L226.774,233.115z"/>
			<path fill="#AD6636" d="M275.219,233.115c1.239,1.42,1.218,2.568-0.047,2.568h-27.461c-1.265,0-3.29-1.148-4.528-2.568l0,0
				c-1.238-1.419-1.219-2.569,0.047-2.569h27.459C271.953,230.544,273.981,231.696,275.219,233.115L275.219,233.115z"/>
			<path fill="#AD6636" d="M323.662,233.115c1.239,1.42,1.217,2.568-0.047,2.568h-27.462c-1.264,0-3.291-1.148-4.529-2.568l0,0
				c-1.236-1.419-1.216-2.569,0.048-2.569h27.46C320.396,230.544,322.425,231.696,323.662,233.115L323.662,233.115z"/>
			<path fill="#AD6636" d="M369.104,233.115c1.238,1.42,1.22,2.568-0.046,2.568h-24.461c-1.264,0-3.292-1.148-4.528-2.568l0,0
				c-1.237-1.419-1.218-2.569,0.048-2.569h24.461C365.84,230.544,367.867,231.696,369.104,233.115L369.104,233.115z"/>
			<path fill="#AD6636" d="M61.986,238.954c1.236,1.418,1.217,2.569-0.047,2.569h-27.46c-1.262,0-3.293-1.151-4.529-2.569l0,0
				c-1.237-1.418-1.216-2.568,0.048-2.568h27.461C58.722,236.385,60.749,237.536,61.986,238.954L61.986,238.954z"/>
			<path fill="#AD6636" d="M110.43,238.954c1.236,1.418,1.217,2.569-0.045,2.569H82.922c-1.262,0-3.293-1.151-4.529-2.569l0,0
				c-1.237-1.418-1.216-2.568,0.048-2.568h27.461C107.165,236.385,109.192,237.536,110.43,238.954L110.43,238.954z"/>
			<path fill="#AD6636" d="M158.873,238.954c1.236,1.418,1.217,2.569-0.045,2.569h-27.461c-1.264,0-3.293-1.151-4.531-2.569l0,0
				c-1.236-1.418-1.216-2.568,0.048-2.568h27.461C155.608,236.385,157.636,237.536,158.873,238.954L158.873,238.954z"/>
			<path fill="#AD6636" d="M207.316,238.954c1.238,1.418,1.219,2.569-0.047,2.569H179.81c-1.266,0-3.293-1.151-4.531-2.569l0,0
				c-1.236-1.418-1.216-2.568,0.048-2.568h27.461C204.052,236.385,206.08,237.536,207.316,238.954L207.316,238.954z"/>
			<path fill="#AD6636" d="M255.76,238.954c1.238,1.418,1.22,2.569-0.047,2.569h-27.459c-1.264,0-3.293-1.151-4.53-2.569l0,0
				c-1.236-1.418-1.217-2.568,0.047-2.568h27.461C252.495,236.385,254.522,237.536,255.76,238.954L255.76,238.954z"/>
			<path fill="#AD6636" d="M304.203,238.954c1.236,1.418,1.219,2.569-0.045,2.569h-27.462c-1.264,0-3.295-1.151-4.53-2.569l0,0
				c-1.237-1.418-1.216-2.568,0.048-2.568h27.461C300.938,236.385,302.966,237.536,304.203,238.954L304.203,238.954z"/>
			<path fill="#AD6636" d="M352.646,238.954c1.234,1.418,1.219,2.569-0.047,2.569h-27.46c-1.264,0-3.293-1.151-4.529-2.569l0,0
				c-1.236-1.418-1.218-2.568,0.048-2.568h27.461C349.382,236.385,351.409,237.536,352.646,238.954L352.646,238.954z"/>
		</g>
	</g>
	<g>
		<g>
			<path fill="#AD6636" d="M32.658,204.091c1.238,1.422,1.215,2.568-0.049,2.568H5.148c-1.262,0-1.289-1.147-2.527-2.568l0,0
				c-1.238-1.418-1.217-2.569,0.045-2.569h25.461C29.391,201.521,31.42,202.673,32.658,204.091L32.658,204.091z"/>
			<path fill="#AD6636" d="M81.102,204.091c1.238,1.422,1.215,2.568-0.047,2.568H53.592c-1.262,0-3.289-1.147-4.527-2.568l0,0
				c-1.238-1.418-1.217-2.569,0.045-2.569h27.463C77.834,201.521,79.863,202.673,81.102,204.091L81.102,204.091z"/>
			<path fill="#AD6636" d="M129.545,204.091c1.238,1.422,1.215,2.568-0.047,2.568h-27.461c-1.264,0-3.289-1.147-4.529-2.568l0,0
				c-1.236-1.418-1.217-2.569,0.047-2.569h27.461C126.277,201.521,128.307,202.673,129.545,204.091L129.545,204.091z"/>
			<path fill="#AD6636" d="M177.988,204.091c1.24,1.422,1.217,2.568-0.049,2.568H150.48c-1.266,0-3.289-1.147-4.529-2.568l0,0
				c-1.236-1.418-1.219-2.569,0.047-2.569h27.459C174.723,201.521,176.752,202.673,177.988,204.091L177.988,204.091z"/>
			<path fill="#AD6636" d="M226.433,204.091c1.239,1.422,1.217,2.568-0.05,2.568h-27.459c-1.264,0-3.289-1.147-4.529-2.568l0,0
				c-1.236-1.418-1.217-2.569,0.047-2.569h27.458C223.166,201.521,225.194,202.673,226.433,204.091L226.433,204.091z"/>
			<path fill="#AD6636" d="M274.875,204.091c1.237,1.422,1.217,2.568-0.047,2.568h-27.461c-1.265,0-3.291-1.147-4.529-2.568l0,0
				c-1.237-1.418-1.217-2.569,0.047-2.569h27.462C271.608,201.521,273.638,202.673,274.875,204.091L274.875,204.091z"/>
			<path fill="#AD6636" d="M323.318,204.091c1.236,1.422,1.217,2.568-0.047,2.568H295.81c-1.264,0-3.289-1.147-4.527-2.568l0,0
				c-1.236-1.418-1.219-2.569,0.047-2.569h27.461C320.053,201.521,322.08,202.673,323.318,204.091L323.318,204.091z"/>
		</g>
		<g>
			<path fill="#AD6636" d="M13.73,209.781c1.238,1.42,1.217,2.568-0.048,2.568H7.677c-1.265,0-1.292-1.148-2.53-2.568l0,0
				c-1.237-1.418-1.217-2.569,0.047-2.569H9.2C10.465,207.211,12.493,208.364,13.73,209.781L13.73,209.781z"/>
			<path fill="#AD6636" d="M62.174,209.781c1.238,1.42,1.218,2.568-0.047,2.568H34.666c-1.264,0-3.291-1.148-4.529-2.568l0,0
				c-1.237-1.418-1.217-2.569,0.047-2.569h27.461C58.908,207.211,60.937,208.364,62.174,209.781L62.174,209.781z"/>
			<path fill="#AD6636" d="M110.617,209.781c1.238,1.42,1.217,2.568-0.047,2.568H83.109c-1.263,0-3.291-1.148-4.529-2.568l0,0
				c-1.237-1.418-1.217-2.569,0.047-2.569h27.461C107.352,207.211,109.38,208.364,110.617,209.781L110.617,209.781z"/>
			<path fill="#AD6636" d="M159.061,209.781c1.238,1.42,1.217,2.568-0.046,2.568h-27.462c-1.263,0-3.291-1.148-4.529-2.568l0,0
				c-1.237-1.418-1.217-2.569,0.047-2.569h27.461C155.795,207.211,157.823,208.364,159.061,209.781L159.061,209.781z"/>
			<path fill="#AD6636" d="M207.504,209.781c1.238,1.42,1.217,2.568-0.046,2.568h-27.461c-1.265,0-3.29-1.148-4.529-2.568l0,0
				c-1.237-1.418-1.218-2.569,0.046-2.569h27.461C204.238,207.211,206.267,208.364,207.504,209.781L207.504,209.781z"/>
			<path fill="#AD6636" d="M255.948,209.781c1.238,1.42,1.217,2.568-0.049,2.568H228.44c-1.267,0-3.291-1.148-4.529-2.568l0,0
				c-1.237-1.418-1.219-2.569,0.046-2.569h27.461C252.683,207.211,254.711,208.364,255.948,209.781L255.948,209.781z"/>
			<path fill="#AD6636" d="M304.392,209.781c1.239,1.42,1.219,2.568-0.048,2.568h-27.46c-1.264,0-3.292-1.148-4.529-2.568l0,0
				c-1.236-1.418-1.217-2.569,0.047-2.569h27.462C301.125,207.211,303.154,208.364,304.392,209.781L304.392,209.781z"/>
			<path fill="#AD6636" d="M345.834,209.781c1.238,1.42,1.218,2.568-0.046,2.568h-20.461c-1.264,0-3.292-1.148-4.53-2.568l0,0
				c-1.237-1.418-1.217-2.569,0.047-2.569h20.461C342.568,207.211,344.597,208.364,345.834,209.781L345.834,209.781z"/>
			<path fill="#AD6636" d="M42.716,215.621c1.236,1.418,1.218,2.569-0.046,2.569H15.209c-1.264,0-3.294-1.151-4.53-2.569l0,0
				c-1.237-1.418-1.216-2.568,0.048-2.568h27.461C39.451,213.052,41.479,214.203,42.716,215.621L42.716,215.621z"/>
			<path fill="#AD6636" d="M91.159,215.621c1.236,1.418,1.218,2.569-0.046,2.569H63.652c-1.264,0-3.294-1.151-4.53-2.569l0,0
				c-1.237-1.418-1.216-2.568,0.048-2.568h27.461C87.895,213.052,89.922,214.203,91.159,215.621L91.159,215.621z"/>
			<path fill="#AD6636" d="M139.603,215.621c1.236,1.418,1.218,2.569-0.046,2.569h-27.461c-1.264,0-3.292-1.151-4.53-2.569l0,0
				c-1.237-1.418-1.216-2.568,0.048-2.568h27.461C136.338,213.052,138.365,214.203,139.603,215.621L139.603,215.621z"/>
			<path fill="#AD6636" d="M188.046,215.621c1.238,1.418,1.218,2.569-0.046,2.569h-27.461c-1.264,0-3.292-1.151-4.53-2.569l0,0
				c-1.237-1.418-1.216-2.568,0.048-2.568h27.461C184.781,213.052,186.809,214.203,188.046,215.621L188.046,215.621z"/>
			<path fill="#AD6636" d="M236.489,215.621c1.238,1.418,1.218,2.569-0.047,2.569h-27.46c-1.264,0-3.292-1.151-4.53-2.569l0,0
				c-1.237-1.418-1.216-2.568,0.048-2.568h27.461C233.226,213.052,235.252,214.203,236.489,215.621L236.489,215.621z"/>
			<path fill="#AD6636" d="M284.933,215.621c1.236,1.418,1.219,2.569-0.045,2.569h-27.462c-1.264,0-3.294-1.151-4.53-2.569l0,0
				c-1.235-1.418-1.215-2.568,0.049-2.568h27.462C281.668,213.052,283.694,214.203,284.933,215.621L284.933,215.621z"/>
			<path fill="#AD6636" d="M333.376,215.621c1.236,1.418,1.218,2.569-0.046,2.569h-27.461c-1.264,0-3.292-1.151-4.53-2.569l0,0
				c-1.237-1.418-1.216-2.568,0.048-2.568h27.461C330.111,213.052,332.139,214.203,333.376,215.621L333.376,215.621z"/>
		</g>
	</g>
	<path fill="none" stroke="#000000" stroke-width="3" stroke-miterlimit="10" d="M420.601,284.287
		c-1.234-1.418-3.264-2.568-4.525-2.568h-0.359l-4.927-4.37l-2.062-2.021h0.771c1.264,0,1.287-1.146,0.048-2.568
		c-1.236-1.418-3.266-2.569-4.529-2.569h-1.527l-5.438-5.33h1.006c1.266,0,1.283-1.151,0.045-2.569
		c-1.234-1.418-3.265-2.567-4.526-2.567h-1.765l-0.979-0.962c0.406-0.413,0.178-1.288-0.714-2.311
		c-1.147-1.314-2.965-2.388-4.231-2.539l-0.562-0.552h1.232c1.266,0,1.283-1.151,0.046-2.569c-1.235-1.418-3.266-2.567-4.527-2.567
		h-1.992l-0.745-0.729h0.678c1.266,0,1.283-1.149,0.046-2.569c-1.236-1.418-3.268-2.57-4.529-2.57h-1.437l-0.5-0.49h0.464
		c1.265,0,1.282-1.151,0.046-2.569s-3.267-2.567-4.528-2.567h-1.222l-1.057-1.035h0.836c1.266,0,1.284-1.148,0.046-2.568
		c-1.235-1.418-3.265-2.568-4.526-2.568h-1.598l-0.545-0.534h1.214c1.266,0,1.283-1.151,0.047-2.57
		c-1.236-1.418-3.267-2.567-4.528-2.567h-1.971l-0.731-0.717h0.538c1.264,0,1.283-1.148,0.045-2.568
		c-1.237-1.418-3.266-2.571-4.53-2.571H351.3l-0.514-0.504h1.441c1.265,0,1.282-1.151,0.046-2.569
		c-1.236-1.419-3.267-2.568-4.528-2.568h-2.2l-1.042-1.021h1.364c1.264,0,1.284-1.148,0.046-2.568
		c-1.237-1.418-3.266-2.568-4.529-2.568h-1.323c0.231-0.43,0.077-1.28-0.48-2.271c-0.8-1.418-2.113-2.567-2.932-2.567h-4.184
		c-0.536,0-0.72,0.498-0.562,1.236h-8.97c-1.236-1.188-2.947-2.089-4.064-2.089h-27.461c-1.117,0-1.259,0.899-0.425,2.089h-16.491
		c-1.238-1.188-2.949-2.089-4.066-2.089h-27.461c-1.116,0-1.26,0.899-0.424,2.089H226.04c-1.236-1.188-2.949-2.089-4.068-2.089
		h-27.458c-1.117,0-1.258,0.899-0.424,2.089h-16.492c-1.237-1.188-2.949-2.089-4.068-2.089h-27.46c-1.119,0-1.258,0.899-0.424,2.089
		h-16.493c-1.238-1.188-2.95-2.089-4.065-2.089H97.626c-1.117,0-1.258,0.899-0.424,2.089H80.709
		c-1.238-1.188-2.95-2.089-4.065-2.089H49.181c-1.115,0-1.258,0.899-0.422,2.089h-5.265l-11.54-0.275
		c-1.202-1.047-2.729-1.812-3.756-1.812H2.737c-0.771,0-1.072,0.434-0.914,1.09l-0.056-0.001l1.295,8l40.186,85.331l377.666,0.335
		l0.228-9.558C421.765,286.382,421.597,285.426,420.601,284.287z"/>
	<g opacity="0.34">
		<path fill="#602C09" d="M220.513,272.228c-0.248-0.095,0.594-1.854,0.35-1.951c-6.127-2.442-1.443-7.602,1.303-9.051
			c5.794-3.059,11.029-2.306,12.104-4.399c3.312-6.499-1.187-14.681-7.151-20.354c-2.078,1.2-6.052-4.95-15.401-7.15
			c-2.604-0.612-12.309,1.718-18.703-0.551c-6.419-2.263-7.005-2.688-4.951-4.399c12.344-10.274,25.72-4.812,33.554-2.75
			c5.84,1.535,10.014,6.103,14.853,9.352c12.526,8.417,22.331,23.729,17.603,33.004c-1.961,3.837-23.853,8.556-26.402,9.899
			C225.028,275.269,226.467,274.445,220.513,272.228z"/>
	</g>
	<g>
		<g>
			<path fill="#602C09" d="M225.472,274.427c-0.158,0-0.312-0.006-0.473-0.016c-3.939-0.257-6.93-3.659-6.672-7.601
				c0.541-8.312,0.938-21.804,0.129-25.778c-2.512-12.321-10.844-24.162-16.636-29.659c-0.132,3.147-0.132,7.02,0.035,10.683
				c0.179,3.944-2.873,7.29-6.818,7.469c-3.952,0.208-7.289-2.873-7.469-6.817c-1.08-23.7,2.789-26.886,7.198-28.249
				c3.285-1.02,6.93-0.361,10.825,1.943c10.088,5.979,23.297,24.19,26.879,41.777c1.481,7.279,0.368,25.901,0.129,29.562
				C232.353,271.524,229.207,274.427,225.472,274.427z"/>
			<path d="M225.469,274.528c-1.513,0.008-3.045-0.471-4.274-1.369c-1.233-0.895-2.188-2.175-2.684-3.625
				c-0.25-0.727-0.376-1.493-0.387-2.263c0.006-0.773,0.072-1.504,0.086-2.259l0.115-4.494c0.054-2.996,0.072-5.992,0.025-8.983
				c-0.055-2.984-0.136-5.995-0.451-8.908c-0.043-0.36-0.092-0.72-0.151-1.065c-0.058-0.333-0.149-0.68-0.235-1.056
				c-0.175-0.735-0.354-1.415-0.568-2.13c-0.409-1.413-0.875-2.812-1.403-4.188c-1.067-2.75-2.31-5.439-3.744-8.028
				c-2.863-5.165-6.235-10.144-10.394-14.342l1.026-0.416c-0.205,3.447-0.257,6.916-0.18,10.377
				c0.119,1.802-0.435,3.688-1.557,5.118c-1.112,1.439-2.744,2.47-4.53,2.808c-1.769,0.336-3.683,0.047-5.246-0.879
				c-1.567-0.913-2.787-2.416-3.342-4.153c-0.293-0.854-0.372-1.812-0.395-2.658l-0.108-2.609c-0.075-1.739-0.126-3.48-0.136-5.226
				c-0.01-3.488,0.087-6.991,0.637-10.488c0.291-1.745,0.693-3.499,1.451-5.182c0.729-1.671,2.04-3.28,3.786-4.135
				c0.845-0.433,1.748-0.729,2.621-0.938c0.946-0.219,1.865-0.306,2.806-0.288c1.872,0.041,3.701,0.5,5.373,1.223
				c3.368,1.44,6.201,3.699,8.794,6.094c5.159,4.86,9.396,10.561,12.917,16.647c3.476,6.109,6.273,12.662,7.771,19.578
				c0.795,3.515,0.809,7.065,0.805,10.546c-0.026,3.493-0.188,6.974-0.383,10.448c-0.195,3.478-0.473,6.938-0.754,10.412
				c-0.217,1.783-1.119,3.435-2.443,4.605C228.994,273.879,227.231,274.543,225.469,274.528z M225.474,274.329
				c1.715-0.005,3.408-0.67,4.67-1.819c1.277-1.136,2.076-2.773,2.234-4.447c0.205-3.457,0.244-6.938,0.288-10.405
				c0.03-3.471-0.009-6.939-0.163-10.395c-0.195-3.45-0.352-6.905-1.215-10.159c-1.645-6.636-4.395-12.989-7.824-18.924
				c-1.707-2.976-3.609-5.838-5.667-8.577c-2.057-2.738-4.29-5.352-6.747-7.712c-2.459-2.341-5.137-4.51-8.164-5.849
				c-1.507-0.667-3.1-1.108-4.704-1.181c-0.794-0.036-1.619,0.028-2.37,0.182c-0.818,0.175-1.582,0.413-2.294,0.754
				c-1.42,0.656-2.459,1.87-3.185,3.337c-0.728,1.466-1.18,3.113-1.518,4.779c-0.659,3.351-0.873,6.815-0.967,10.271
				c-0.044,1.729-0.047,3.462-0.027,5.195l0.075,2.6c0.017,0.889,0.075,1.68,0.333,2.479c0.485,1.583,1.581,2.969,3.006,3.821
				c1.423,0.876,3.167,1.143,4.805,0.811c1.627-0.327,3.129-1.267,4.106-2.607c0.987-1.339,1.448-3.005,1.292-4.672
				c-0.214-3.48-0.298-6.968-0.227-10.463l0.027-1.354l0.999,0.938c4.449,4.173,8.104,9.083,11.107,14.361
				c1.476,2.654,2.802,5.404,3.843,8.271c1.035,2.879,1.916,5.771,2.25,8.908c0.217,3.062,0.112,6.062,0.024,9.07
				c-0.106,3.006-0.269,6.006-0.467,9.002l-0.333,4.492c-0.057,0.743-0.133,1.508-0.16,2.231c-0.012,0.729,0.088,1.464,0.309,2.164
				C219.634,272.287,222.49,274.362,225.474,274.329z"/>
		</g>
	</g>
	<path opacity="0.77" fill="#DD9762" enable-background="new    " d="M204.011,196.318c0,0,9.351,8.802,17.601,23.653
		c8.252,14.853,6.603,26.952,6.603,35.203c0,8.958-0.096,7.39,0.55,13.202c0,0,4.95-11.002,2.2-30.804
		c-1.618-11.647-10.45-28.054-17.603-34.104C206.211,197.418,204.011,196.318,204.011,196.318z"/>
	<path fill="#492005" d="M201.82,211.375c0,0-4.96-5.705-5.51-0.754c-0.55,4.951-1.273,18.904-1.273,18.904s3.473-1.303,5.124-4.053
		C201.811,222.722,201.82,211.375,201.82,211.375z"/>
</g>
<g id="frame2" display="none">
	<g display="inline">
		<polygon fill="#7C3F15" points="418.811,295.316 85.928,195.93 48.603,112.736 47.282,105.583 341.681,199.99 418.797,287.089 		
			"/>
		<polygon fill="#8C4A1E" points="418.607,287.65 86.631,189.38 48.444,106.775 341.528,194.027 		"/>
		<g>
			<g>
				<path fill="#AD6636" d="M100.443,175.734c1.123,1.535,1.131,2.511,0.018,2.178l-18.915-5.63
					c-1.114-0.332-2.046-1.579-3.168-3.115l0,0c-1.124-1.531-1.132-2.508-0.019-2.18l18.033,5.371
					C97.507,172.687,99.322,174.204,100.443,175.734L100.443,175.734z"/>
				<path fill="#AD6636" d="M143.144,188.448c1.124,1.533,1.132,2.507,0.016,2.177l-24.202-7.206
					c-1.116-0.334-2.931-1.843-4.049-3.377l0,0c-1.123-1.529-1.136-2.509-0.02-2.176l24.201,7.206
					C140.207,185.402,142.021,186.917,143.144,188.448L143.144,188.448z"/>
				<path fill="#AD6636" d="M185.843,201.158c1.12,1.535,1.129,2.508,0.015,2.175l-24.201-7.202
					c-1.113-0.333-2.934-1.844-4.053-3.377l0,0c-1.123-1.532-1.129-2.509-0.018-2.177l24.203,7.205
					C182.904,198.114,184.719,199.626,185.843,201.158L185.843,201.158z"/>
				<path fill="#AD6636" d="M228.538,213.871c1.124,1.532,1.132,2.506,0.02,2.174l-24.206-7.205
					c-1.114-0.33-2.929-1.841-4.051-3.377l0,0c-1.123-1.53-1.13-2.506-0.02-2.175l24.204,7.204
					C225.604,210.824,227.418,212.339,228.538,213.871L228.538,213.871z"/>
				<path fill="#AD6636" d="M271.235,226.583c1.123,1.534,1.132,2.505,0.017,2.175l-24.201-7.206
					c-1.114-0.33-2.926-1.841-4.051-3.377l0,0c-1.121-1.528-1.133-2.507-0.019-2.176l24.201,7.205
					C268.301,223.535,270.115,225.049,271.235,226.583L271.235,226.583z"/>
				<path fill="#AD6636" d="M313.933,239.293c1.126,1.535,1.133,2.509,0.021,2.176l-24.201-7.205
					c-1.114-0.329-2.926-1.843-4.051-3.377l0,0c-1.123-1.529-1.132-2.509-0.021-2.18l24.204,7.209
					C310.999,236.248,312.816,237.76,313.933,239.293L313.933,239.293z"/>
				<path fill="#AD6636" d="M356.633,252.002c1.126,1.538,1.131,2.512,0.019,2.181l-24.206-7.208
					c-1.112-0.329-2.929-1.843-4.047-3.377l0,0c-1.125-1.531-1.133-2.509-0.021-2.178l24.203,7.204
					C353.697,248.958,355.51,250.474,356.633,252.002L356.633,252.002z"/>
				<path fill="#AD6636" d="M399.329,264.717c1.124,1.533,1.133,2.506,0.017,2.177l-24.201-7.205
					c-1.109-0.335-2.932-1.846-4.052-3.377l0,0c-1.122-1.534-1.13-2.512-0.017-2.178l24.207,7.206
					C396.393,261.671,398.209,263.186,399.329,264.717L399.329,264.717z"/>
				<path fill="#AD6636" d="M126.122,188.312c1.122,1.535,1.128,2.506,0.015,2.175l-24.203-7.206
					c-1.112-0.331-2.926-1.842-4.049-3.377l0,0c-1.119-1.531-1.128-2.504-0.018-2.175l24.203,7.207
					C123.187,185.267,125.002,186.781,126.122,188.312L126.122,188.312z"/>
				<path fill="#AD6636" d="M168.82,201.024c1.121,1.534,1.127,2.508,0.014,2.176l-24.201-7.207
					c-1.115-0.332-2.926-1.843-4.051-3.377l0,0c-1.121-1.53-1.127-2.506-0.018-2.173l24.205,7.205
					C165.881,197.979,167.694,199.494,168.82,201.024L168.82,201.024z"/>
				<path fill="#AD6636" d="M211.517,213.737c1.124,1.533,1.131,2.506,0.019,2.173l-24.205-7.204
					c-1.115-0.333-2.922-1.842-4.045-3.374l0,0c-1.123-1.533-1.131-2.51-0.021-2.178l24.205,7.206
					C208.58,210.691,210.396,212.204,211.517,213.737L211.517,213.737z"/>
				<path fill="#AD6636" d="M254.219,226.448c1.121,1.534,1.123,2.506,0.013,2.173l-24.207-7.206c-1.11-0.33-2.92-1.837-4.047-3.374
					l0,0c-1.117-1.528-1.131-2.508-0.015-2.173l24.201,7.204C251.28,223.401,253.099,224.917,254.219,226.448L254.219,226.448z"/>
				<path fill="#AD6636" d="M296.914,239.159c1.123,1.531,1.128,2.504,0.015,2.175l-24.201-7.207
					c-1.117-0.334-2.929-1.84-4.051-3.375l0,0c-1.123-1.533-1.128-2.507-0.018-2.174l24.204,7.205
					C293.979,236.115,295.794,237.628,296.914,239.159L296.914,239.159z"/>
				<path fill="#AD6636" d="M339.609,251.871c1.123,1.535,1.133,2.505,0.018,2.171l-24.203-7.202
					c-1.113-0.333-2.925-1.842-4.048-3.377l0,0c-1.122-1.528-1.131-2.506-0.018-2.173l24.206,7.204
					C336.674,248.826,338.488,250.34,339.609,251.871L339.609,251.871z"/>
				<path fill="#AD6636" d="M382.309,264.583c1.125,1.532,1.134,2.507,0.02,2.172l-24.203-7.204
					c-1.117-0.335-2.926-1.84-4.051-3.375l0,0c-1.121-1.53-1.131-2.506-0.019-2.173l24.204,7.204
					C379.376,261.538,381.188,263.051,382.309,264.583L382.309,264.583z"/>
				<path fill="#AD6636" d="M408.262,272.307c1.123,1.536,1.129,2.507,0.02,2.173l-7.459-2.221c-1.117-0.328-2.928-1.841-4.05-3.372
					l0,0c-1.122-1.53-1.131-2.509-0.019-2.177l7.458,2.222C405.324,269.263,407.141,270.778,408.262,272.307L408.262,272.307z"/>
			</g>
			<g>
				<path fill="#AD6636" d="M109.568,188.19c1.124,1.535,1.129,2.509,0.016,2.176l-18.033-5.369
					c-1.115-0.334-2.926-1.843-4.053-3.373l0,0c-1.121-1.535-1.128-2.512-0.014-2.178l18.031,5.366
					C106.631,185.144,108.442,186.658,109.568,188.19L109.568,188.19z"/>
				<path fill="#AD6636" d="M152.266,200.901c1.124,1.536,1.131,2.51,0.014,2.18l-24.201-7.207c-1.113-0.333-2.93-1.843-4.051-3.378
					l0,0c-1.123-1.533-1.129-2.509-0.019-2.177l24.206,7.204C149.332,197.855,151.141,199.367,152.266,200.901L152.266,200.901z"/>
				<path fill="#AD6636" d="M194.963,213.614c1.126,1.534,1.131,2.508,0.016,2.177l-24.2-7.205
					c-1.116-0.332-2.929-1.841-4.052-3.379l0,0c-1.125-1.532-1.131-2.506-0.018-2.176l24.203,7.205
					C192.027,210.568,193.839,212.082,194.963,213.614L194.963,213.614z"/>
				<path fill="#AD6636" d="M237.663,226.326c1.12,1.531,1.128,2.506,0.018,2.174l-24.209-7.205c-1.112-0.333-2.926-1.84-4.05-3.375
					l0,0c-1.121-1.533-1.127-2.51-0.018-2.174l24.208,7.204C234.728,223.279,236.537,224.792,237.663,226.326L237.663,226.326z"/>
				<path fill="#AD6636" d="M280.356,239.038c1.125,1.531,1.134,2.507,0.018,2.175l-24.2-7.207c-1.116-0.333-2.929-1.84-4.051-3.374
					l0,0c-1.125-1.533-1.131-2.507-0.017-2.179l24.205,7.208C277.422,235.993,279.237,237.504,280.356,239.038L280.356,239.038z"/>
				<path fill="#AD6636" d="M323.057,251.75c1.125,1.533,1.129,2.506,0.018,2.174l-24.203-7.207
					c-1.113-0.331-2.927-1.841-4.047-3.373l0,0c-1.128-1.534-1.138-2.509-0.021-2.177l24.2,7.206
					C320.122,248.704,321.938,250.216,323.057,251.75L323.057,251.75z"/>
				<path fill="#AD6636" d="M365.754,264.459c1.122,1.534,1.133,2.507,0.016,2.179l-24.199-7.208
					c-1.114-0.333-2.93-1.844-4.055-3.375l0,0c-1.117-1.533-1.129-2.511-0.014-2.179l24.203,7.206
					C362.822,261.414,364.633,262.928,365.754,264.459L365.754,264.459z"/>
				<path fill="#AD6636" d="M408.453,277.17c1.122,1.534,1.131,2.51,0.018,2.179l-24.205-7.209
					c-1.111-0.329-2.924-1.842-4.051-3.373l0,0c-1.125-1.534-1.129-2.51-0.016-2.177l24.203,7.203
					C405.517,274.127,407.328,275.638,408.453,277.17L408.453,277.17z"/>
				<path fill="#AD6636" d="M135.245,200.766c1.12,1.531,1.132,2.51,0.019,2.176l-24.205-7.203c-1.112-0.331-2.931-1.847-4.05-3.378
					l0,0c-1.126-1.532-1.131-2.505-0.017-2.176l24.205,7.209C132.311,197.725,134.123,199.236,135.245,200.766L135.245,200.766z"/>
				<path fill="#AD6636" d="M177.943,213.479c1.117,1.531,1.128,2.507,0.017,2.178l-24.201-7.205
					c-1.113-0.333-2.931-1.847-4.054-3.377l0,0c-1.121-1.535-1.127-2.51-0.018-2.178l24.207,7.207
					C175.008,210.435,176.82,211.948,177.943,213.479L177.943,213.479z"/>
				<path fill="#AD6636" d="M220.642,226.19c1.125,1.534,1.131,2.51,0.017,2.178l-24.203-7.206c-1.11-0.331-2.93-1.845-4.05-3.377
					l0,0c-1.123-1.533-1.131-2.507-0.019-2.176l24.208,7.205C217.705,223.148,219.521,224.66,220.642,226.19L220.642,226.19z"/>
				<path fill="#AD6636" d="M263.337,238.904c1.126,1.53,1.137,2.509,0.02,2.177l-24.203-7.205
					c-1.111-0.332-2.926-1.849-4.049-3.381l0,0c-1.123-1.529-1.135-2.504-0.019-2.172l24.203,7.205
					C260.406,235.858,262.217,237.373,263.337,238.904L263.337,238.904z"/>
				<path fill="#AD6636" d="M306.035,251.614c1.125,1.533,1.133,2.51,0.019,2.179l-24.203-7.206
					c-1.113-0.331-2.929-1.846-4.054-3.377l0,0c-1.118-1.532-1.127-2.508-0.014-2.174l24.204,7.203
					C303.101,248.573,304.916,250.083,306.035,251.614L306.035,251.614z"/>
				<path fill="#AD6636" d="M348.734,264.325c1.123,1.531,1.133,2.511,0.021,2.176l-24.205-7.204
					c-1.114-0.333-2.932-1.846-4.053-3.378l0,0c-1.123-1.533-1.131-2.505-0.02-2.172l24.207,7.202
					C345.801,261.281,347.611,262.792,348.734,264.325L348.734,264.325z"/>
				<path fill="#AD6636" d="M391.431,277.037c1.124,1.532,1.135,2.508,0.021,2.176l-24.205-7.203
					c-1.111-0.331-2.928-1.849-4.049-3.38l0,0c-1.125-1.527-1.129-2.504-0.021-2.173l24.205,7.204
					C388.496,273.994,390.311,275.506,391.431,277.037L391.431,277.037z"/>
				<path fill="#AD6636" d="M418.266,285.023c1.122,1.533,1.135,2.513,0.02,2.181l-8.336-2.482c-1.115-0.33-2.934-1.845-4.056-3.38
					l0,0c-1.119-1.53-1.131-2.503-0.017-2.173l8.34,2.483C415.33,281.982,417.142,283.495,418.266,285.023L418.266,285.023z"/>
			</g>
		</g>
		<g>
			<path fill="#AD6636" d="M83.645,152.15c1.121,1.535,1.131,2.506,0.016,2.179l-15.096-4.496c-1.111-0.331-1.143-0.466-2.264-2.001
				l-0.463-0.98c-1.123-1.532-0.692-2.378,0.424-2.046l13.332,3.968C80.708,149.104,82.521,150.619,83.645,152.15L83.645,152.15z"/>
			<path fill="#AD6636" d="M126.342,164.862c1.123,1.534,1.131,2.509,0.021,2.176l-24.206-7.206c-1.113-0.33-2.928-1.84-4.051-3.375
				l0,0c-1.121-1.531-1.131-2.509-0.02-2.179l24.209,7.208C123.406,161.816,125.221,163.329,126.342,164.862L126.342,164.862z"/>
			<path fill="#AD6636" d="M169.041,177.574c1.123,1.532,1.129,2.508,0.017,2.176l-24.208-7.208
				c-1.109-0.333-2.923-1.84-4.049-3.376l0,0c-1.119-1.53-1.127-2.504-0.015-2.177l24.206,7.204
				C166.102,174.529,167.918,176.042,169.041,177.574L169.041,177.574z"/>
			<path fill="#AD6636" d="M211.739,190.285c1.124,1.534,1.132,2.508,0.019,2.176l-24.207-7.207
				c-1.113-0.33-2.926-1.843-4.049-3.376l0,0c-1.124-1.527-1.129-2.511-0.02-2.178l24.205,7.207
				C208.803,187.24,210.615,188.753,211.739,190.285L211.739,190.285z"/>
			<path fill="#AD6636" d="M254.437,202.997c1.123,1.533,1.133,2.508,0.02,2.175l-24.202-7.205
				c-1.116-0.332-2.928-1.844-4.055-3.377l0,0c-1.12-1.53-1.132-2.51-0.015-2.177l24.2,7.206
				C251.5,199.949,253.313,201.465,254.437,202.997L254.437,202.997z"/>
			<path fill="#AD6636" d="M297.135,215.707c1.123,1.536,1.131,2.51,0.019,2.18l-24.206-7.208c-1.109-0.33-2.923-1.842-4.05-3.377
				l0,0c-1.121-1.531-1.133-2.51-0.019-2.179l24.207,7.205C294.199,212.661,296.017,214.176,297.135,215.707L297.135,215.707z"/>
			<path fill="#AD6636" d="M339.832,228.42c1.127,1.534,1.131,2.506,0.02,2.177l-24.207-7.206c-1.111-0.333-2.928-1.843-4.051-3.377
				l0,0c-1.122-1.531-1.131-2.511-0.015-2.178l24.204,7.206C336.898,225.372,338.711,226.888,339.832,228.42L339.832,228.42z"/>
			<path fill="#AD6636" d="M382.531,241.131c1.123,1.533,1.129,2.51,0.018,2.177l-24.205-7.204
				c-1.111-0.334-2.928-1.845-4.051-3.377l0,0c-1.123-1.535-1.131-2.511-0.016-2.181l24.201,7.206
				C379.594,238.085,381.407,239.6,382.531,241.131L382.531,241.131z"/>
			<path fill="#AD6636" d="M109.321,164.724c1.126,1.535,1.132,2.508,0.017,2.177l-24.205-7.206c-1.113-0.33-2.922-1.84-4.047-3.375
				l0,0c-1.123-1.531-1.131-2.508-0.018-2.176l24.204,7.204C106.385,161.682,108.201,163.196,109.321,164.724L109.321,164.724z"/>
			<path fill="#AD6636" d="M152.021,177.437c1.123,1.536,1.128,2.505,0.019,2.174l-24.209-7.203
				c-1.108-0.333-2.925-1.843-4.048-3.374l0,0c-1.123-1.531-1.131-2.51-0.018-2.179l24.208,7.209
				C149.082,174.391,150.9,175.908,152.021,177.437L152.021,177.437z"/>
			<path fill="#AD6636" d="M194.72,190.149c1.12,1.536,1.128,2.508,0.017,2.179l-24.205-7.208c-1.113-0.331-2.926-1.843-4.047-3.377
				l0,0c-1.123-1.528-1.129-2.507-0.018-2.175l24.201,7.206C191.781,187.105,193.596,188.619,194.72,190.149L194.72,190.149z"/>
			<path fill="#AD6636" d="M237.416,202.86c1.129,1.537,1.131,2.507,0.019,2.176l-24.205-7.205c-1.11-0.332-2.925-1.837-4.048-3.376
				l0,0c-1.123-1.53-1.133-2.506-0.016-2.174l24.202,7.203C234.479,199.817,236.295,201.332,237.416,202.86L237.416,202.86z"/>
			<path fill="#AD6636" d="M280.114,215.574c1.128,1.532,1.13,2.505,0.015,2.171l-24.202-7.205
				c-1.109-0.331-2.923-1.839-4.049-3.372l0,0c-1.12-1.53-1.131-2.507-0.013-2.177l24.194,7.206
				C277.176,212.529,278.992,214.042,280.114,215.574L280.114,215.574z"/>
			<path fill="#AD6636" d="M322.812,228.284c1.122,1.534,1.132,2.505,0.014,2.175l-24.2-7.206c-1.114-0.329-2.925-1.839-4.052-3.374
				l0,0c-1.123-1.531-1.13-2.51-0.015-2.176l24.199,7.205C319.879,225.24,321.689,226.752,322.812,228.284L322.812,228.284z"/>
			<path fill="#AD6636" d="M365.512,240.998c1.121,1.533,1.13,2.504,0.017,2.173l-24.204-7.206
				c-1.113-0.332-2.922-1.841-4.049-3.375l0,0c-1.121-1.528-1.129-2.506-0.019-2.177l24.205,7.208
				C362.576,237.951,364.385,239.464,365.512,240.998L365.512,240.998z"/>
		</g>
		<path fill="#AD6636" d="M92.768,164.602c1.121,1.535,1.132,2.51,0.016,2.177l-18.031-5.368c-1.117-0.331-2.045-1.578-3.172-3.112
			l0,0c-1.123-1.531-1.129-2.508-0.013-2.175l17.149,5.104C89.832,161.56,91.644,163.073,92.768,164.602L92.768,164.602z"/>
		<path fill="#AD6636" d="M135.465,177.315c1.121,1.533,1.131,2.509,0.016,2.178l-24.202-7.207c-1.114-0.33-2.929-1.844-4.051-3.375
			l0,0c-1.122-1.532-1.127-2.508-0.015-2.177l24.203,7.203C132.531,174.273,134.34,175.784,135.465,177.315L135.465,177.315z"/>
		<path fill="#AD6636" d="M178.162,190.027c1.123,1.533,1.131,2.51,0.016,2.173l-24.203-7.203c-1.113-0.332-2.926-1.843-4.047-3.375
			l0,0c-1.123-1.529-1.131-2.51-0.018-2.177l24.203,7.208C175.229,186.983,177.04,188.494,178.162,190.027L178.162,190.027z"/>
		<path fill="#AD6636" d="M220.86,202.74c1.123,1.533,1.133,2.506,0.019,2.177l-24.209-7.209c-1.109-0.329-2.928-1.841-4.046-3.373
			l0,0c-1.122-1.534-1.128-2.504-0.015-2.178l24.203,7.207C217.925,199.696,219.735,201.207,220.86,202.74L220.86,202.74z"/>
		<path fill="#AD6636" d="M263.562,215.449c1.121,1.534,1.129,2.509,0.017,2.178l-24.203-7.207
			c-1.115-0.332-2.926-1.842-4.051-3.376l0,0c-1.125-1.532-1.134-2.506-0.017-2.175l24.205,7.205
			C260.625,212.408,262.438,213.917,263.562,215.449L263.562,215.449z"/>
		<path fill="#AD6636" d="M306.257,228.162c1.124,1.536,1.133,2.506,0.019,2.175l-24.204-7.204c-1.112-0.33-2.926-1.845-4.051-3.375
			l0,0c-1.123-1.532-1.129-2.509-0.018-2.175l24.206,7.205C303.323,225.117,305.133,226.629,306.257,228.162L306.257,228.162z"/>
		<path fill="#AD6636" d="M348.959,240.873c1.121,1.536,1.125,2.509,0.014,2.177l-24.203-7.206c-1.112-0.33-2.93-1.842-4.054-3.375
			l0,0c-1.118-1.532-1.127-2.508-0.013-2.177l24.205,7.206C346.021,237.829,347.836,239.342,348.959,240.873L348.959,240.873z"/>
		<path fill="#AD6636" d="M391.652,253.585c1.125,1.532,1.131,2.506,0.018,2.176l-24.206-7.205c-1.114-0.333-2.925-1.843-4.05-3.378
			l0,0c-1.119-1.53-1.129-2.507-0.012-2.177l24.202,7.205C388.72,250.541,390.533,252.052,391.652,253.585L391.652,253.585z"/>
		<path fill="#AD6636" d="M118.445,177.181c1.121,1.532,1.133,2.509,0.018,2.178l-24.207-7.206
			c-1.111-0.333-2.928-1.848-4.047-3.376l0,0c-1.125-1.534-1.131-2.508-0.014-2.175l24.203,7.206
			C115.508,174.136,117.322,175.651,118.445,177.181L118.445,177.181z"/>
		<path fill="#AD6636" d="M161.143,189.892c1.119,1.532,1.129,2.511,0.019,2.182l-24.204-7.208c-1.113-0.33-2.93-1.848-4.053-3.381
			l0,0c-1.119-1.528-1.129-2.503-0.016-2.172l24.208,7.206C158.209,186.851,160.021,188.362,161.143,189.892L161.143,189.892z"/>
		<path fill="#AD6636" d="M203.84,202.607c1.123,1.529,1.131,2.506,0.021,2.177l-24.206-7.206c-1.113-0.332-2.925-1.845-4.053-3.378
			l0,0c-1.118-1.531-1.127-2.508-0.016-2.175l24.207,7.206C200.904,199.561,202.721,201.075,203.84,202.607L203.84,202.607z"/>
		<path fill="#AD6636" d="M246.539,215.318c1.123,1.531,1.133,2.51,0.015,2.179l-24.201-7.209c-1.115-0.331-2.927-1.844-4.052-3.377
			l0,0c-1.114-1.531-1.129-2.506-0.016-2.176l24.207,7.208C243.604,212.272,245.418,213.784,246.539,215.318L246.539,215.318z"/>
		<path fill="#AD6636" d="M289.235,228.026c1.127,1.533,1.136,2.512,0.018,2.182L265.049,223c-1.11-0.332-2.93-1.844-4.051-3.379
			l0,0c-1.12-1.529-1.131-2.503-0.015-2.172l24.203,7.203C286.301,224.985,288.115,226.498,289.235,228.026L289.235,228.026z"/>
		<path fill="#AD6636" d="M331.934,240.74c1.122,1.53,1.135,2.508,0.021,2.177l-24.205-7.205c-1.115-0.333-2.928-1.848-4.053-3.377
			l0,0c-1.119-1.533-1.129-2.505-0.012-2.175l24.199,7.204C329,237.699,330.812,239.208,331.934,240.74L331.934,240.74z"/>
		<path fill="#AD6636" d="M374.633,253.451c1.121,1.53,1.133,2.511,0.021,2.177l-24.207-7.207c-1.113-0.33-2.93-1.844-4.053-3.376
			l0,0c-1.121-1.53-1.131-2.505-0.017-2.172l24.202,7.203C371.697,250.409,373.513,251.921,374.633,253.451L374.633,253.451z"/>
		<path fill="#AD6636" d="M398.822,260.651c1.123,1.533,1.133,2.51,0.019,2.18l-5.692-1.695c-1.117-0.333-2.93-1.846-4.057-3.378
			l0,0c-1.12-1.53-1.125-2.505-0.012-2.174l5.692,1.693C395.885,257.612,397.701,259.121,398.822,260.651L398.822,260.651z"/>
		<path fill="#AD6636" d="M82.534,165.951c1.118,1.479,1.126,2.41,0.015,2.084l-5.699-1.699c-1.11-0.331-2.041-1.541-3.163-3.019
			l0,0c-1.12-1.48-1.13-2.415-0.014-2.081l4.812,1.438C79.602,163,81.412,164.469,82.534,165.951L82.534,165.951z"/>
		<path fill="#AD6636" d="M77.659,155.244c1.126,1.532,1.132,2.51,0.021,2.176l-5.693-1.694c-1.119-0.332-2.051-1.585-3.172-3.113
			l0,0c-1.121-1.532-1.133-2.508-0.018-2.174l4.815,1.432C74.725,152.205,76.539,153.714,77.659,155.244L77.659,155.244z"/>
		<path fill="#AD6636" d="M69.672,142.999c1.121,1.532,1.132,2.506,0.019,2.176l-3.026-0.899c-1.115-0.333-2.047-1.584-3.168-3.114
			l0,0c-1.123-1.531-1.132-2.503-0.016-2.174l3.489,1.04c1.114,0.329,1.801,1.508,2.921,3.038L69.672,142.999z"/>
		<path fill="#AD6636" d="M98.402,189.989c1.524,1.646,1.523,2.626,0.004,2.172l-12.607-3.754c-1.518-0.455-3.938-5.513-2.414-5.06
			l11.188,3.328C96.092,187.126,96.884,188.335,98.402,189.989L98.402,189.989z"/>
		<path fill="#AD6636" d="M91.799,177.885c1.604,1.677,1.605,2.649,0.004,2.172l-10.83-3.226c-1.605-0.478-4.756-5.758-3.154-5.279
			l9.952,2.964C89.367,174.992,90.205,176.211,91.799,177.885L91.799,177.885z"/>
		<path fill="#AD6636" d="M388.429,247.844c1.12,1.531,1.13,2.506,0.021,2.177l-5.694-1.693c-1.114-0.332-2.928-1.847-4.05-3.377
			l0,0c-1.121-1.534-1.133-2.508-0.021-2.176l5.701,1.694C385.494,244.799,387.305,246.311,388.429,247.844L388.429,247.844z"/>
		<path fill="#AD6636" d="M377.155,234.773c1.123,1.533,1.13,2.51,0.017,2.176l-5.695-1.694c-1.112-0.332-2.926-1.844-4.051-3.377
			l0,0c-1.121-1.533-1.13-2.505-0.016-2.175l5.691,1.696C374.219,231.73,376.031,233.242,377.155,234.773L377.155,234.773z"/>
		<path fill="#AD6636" d="M366.9,221.712c1.123,1.533,1.131,2.512,0.016,2.178l-5.693-1.697c-1.113-0.328-2.929-1.844-4.052-3.377
			l0,0c-1.122-1.529-1.13-2.502-0.017-2.173l5.697,1.695C363.967,218.668,365.777,220.182,366.9,221.712L366.9,221.712z"/>
		<path fill="#AD6636" d="M356.51,208.904c1.123,1.533,1.129,2.512,0.017,2.177l-5.696-1.692c-1.111-0.331-2.928-1.848-4.05-3.382
			l0,0c-1.12-1.529-1.128-2.501-0.015-2.171l5.695,1.693C353.572,205.86,355.387,207.373,356.51,208.904L356.51,208.904z"/>
		<path fill="#AD6636" d="M345.07,196.209c0.738,1.416,0.754,2.395,0.031,2.178l-3.684-1.095c-0.723-0.216-1.908-1.541-2.645-2.96
			l0,0c-0.74-1.416-0.752-2.395-0.031-2.176l3.687,1.095C343.152,193.467,344.334,194.792,345.07,196.209L345.07,196.209z"/>
		<g>
			<g>
				<path fill="#AD6636" d="M65.554,127.054c1.119,1.53,1.13,2.509,0.013,2.172l-7.682-2.288c-1.117-0.329-1.17-1.313-2.291-2.852
					l0,0c-1.123-1.529-1.133-2.511-0.02-2.176l5.928,1.764C62.615,124.004,64.43,125.517,65.554,127.054L65.554,127.054z"/>
				<path fill="#AD6636" d="M109.132,140.027c1.122,1.535,1.13,2.507,0.017,2.177l-24.205-7.206
					c-1.113-0.334-2.93-1.842-4.052-3.375l0,0c-1.12-1.533-1.131-2.512-0.018-2.181l24.206,7.208
					C106.194,136.98,108.008,138.493,109.132,140.027L109.132,140.027z"/>
				<path fill="#AD6636" d="M151.826,152.736c1.127,1.536,1.131,2.513,0.021,2.18l-24.207-7.205
					c-1.113-0.333-2.926-1.844-4.049-3.379l0,0c-1.121-1.53-1.131-2.507-0.016-2.178l24.201,7.207
					C148.889,149.691,150.707,151.208,151.826,152.736L151.826,152.736z"/>
				<path fill="#AD6636" d="M194.523,165.452c1.127,1.532,1.134,2.504,0.021,2.175l-24.205-7.205
					c-1.113-0.332-2.926-1.844-4.049-3.379l0,0c-1.127-1.528-1.135-2.509-0.021-2.177l24.206,7.208
					C191.587,162.402,193.403,163.919,194.523,165.452L194.523,165.452z"/>
				<path fill="#AD6636" d="M237.224,178.162c1.123,1.535,1.133,2.506,0.021,2.176l-24.204-7.206
					c-1.114-0.333-2.927-1.842-4.049-3.377l0,0c-1.122-1.53-1.132-2.508-0.021-2.176l24.203,7.204
					C234.285,175.116,236.103,176.63,237.224,178.162L237.224,178.162z"/>
				<path fill="#AD6636" d="M279.922,190.871c1.125,1.539,1.132,2.509,0.017,2.179l-24.201-7.206
					c-1.112-0.33-2.924-1.844-4.051-3.378l0,0c-1.123-1.529-1.134-2.509-0.021-2.178l24.203,7.207
					C276.983,187.827,278.804,189.343,279.922,190.871L279.922,190.871z"/>
				<path fill="#AD6636" d="M322.62,203.585c1.127,1.533,1.128,2.507,0.017,2.178l-24.205-7.206
					c-1.112-0.334-2.926-1.845-4.052-3.379l0,0c-1.12-1.53-1.132-2.509-0.013-2.178l24.203,7.207
					C319.682,200.536,321.499,202.054,322.62,203.585L322.62,203.585z"/>
				<path fill="#AD6636" d="M360.91,214.984c1.125,1.535,1.129,2.509,0.02,2.177l-19.801-5.896c-1.109-0.328-2.924-1.84-4.049-3.375
					l0,0c-1.121-1.532-1.129-2.509-0.02-2.18l19.798,5.896C357.973,211.937,359.787,213.452,360.91,214.984L360.91,214.984z"/>
				<path fill="#AD6636" d="M92.111,139.892c1.123,1.531,1.127,2.507,0.016,2.173l-24.205-7.206
					c-1.115-0.33-2.926-1.839-4.051-3.374l0,0c-1.12-1.529-1.127-2.508-0.018-2.175l24.207,7.205
					C89.174,136.849,90.987,138.364,92.111,139.892L92.111,139.892z"/>
				<path fill="#AD6636" d="M134.809,152.604c1.124,1.533,1.127,2.506,0.016,2.173l-24.207-7.204
					c-1.109-0.332-2.924-1.842-4.049-3.377l0,0c-1.123-1.53-1.129-2.507-0.016-2.175l24.206,7.205
					C131.871,149.558,133.684,151.071,134.809,152.604L134.809,152.604z"/>
				<path fill="#AD6636" d="M177.508,165.316c1.123,1.533,1.127,2.505,0.014,2.174l-24.205-7.205
					c-1.111-0.331-2.924-1.843-4.047-3.376l0,0c-1.122-1.529-1.131-2.505-0.02-2.176l24.206,7.204
					C174.568,162.271,176.385,163.783,177.508,165.316L177.508,165.316z"/>
				<path fill="#AD6636" d="M220.204,178.027c1.126,1.534,1.13,2.508,0.013,2.175l-24.201-7.204
					c-1.113-0.332-2.924-1.844-4.049-3.377l0,0c-1.12-1.531-1.133-2.508-0.014-2.175l24.198,7.206
					C217.267,174.983,219.084,176.494,220.204,178.027L220.204,178.027z"/>
				<path fill="#AD6636" d="M262.903,190.737c1.123,1.537,1.128,2.51,0.015,2.176l-24.202-7.205c-1.115-0.33-2.925-1.84-4.052-3.374
					l0,0c-1.12-1.532-1.129-2.51-0.015-2.178l24.199,7.209C259.972,187.693,261.783,189.208,262.903,190.737L262.903,190.737z"/>
				<path fill="#AD6636" d="M305.6,203.451c1.123,1.533,1.132,2.505,0.016,2.174l-24.201-7.206
					c-1.115-0.333-2.926-1.841-4.054-3.375l0,0c-1.119-1.531-1.127-2.507-0.012-2.176l24.202,7.208
					C302.664,200.406,304.474,201.918,305.6,203.451L305.6,203.451z"/>
				<path fill="#AD6636" d="M348.299,216.164c1.122,1.53,1.131,2.504,0.017,2.172l-24.204-7.205
					c-1.113-0.331-2.926-1.841-4.047-3.378l0,0c-1.123-1.527-1.135-2.505-0.021-2.173l24.205,7.205
					C345.361,213.117,347.178,214.63,348.299,216.164L348.299,216.164z"/>
			</g>
			<g>
				<path fill="#AD6636" d="M75.553,139.768c1.125,1.537,1.134,2.511,0.018,2.177l-11.7-3.483c-1.116-0.33-2.047-1.58-3.174-3.112
					l0,0c-1.119-1.533-1.129-2.51-0.015-2.178l10.822,3.225C72.621,136.726,74.432,138.239,75.553,139.768L75.553,139.768z"/>
				<path fill="#AD6636" d="M118.253,152.482c1.122,1.533,1.132,2.508,0.017,2.176l-24.205-7.208
					c-1.114-0.328-2.928-1.842-4.048-3.375l0,0c-1.124-1.529-1.132-2.508-0.019-2.173l24.205,7.202
					C115.315,149.438,117.129,150.951,118.253,152.482L118.253,152.482z"/>
				<path fill="#AD6636" d="M160.95,165.193c1.122,1.533,1.13,2.507,0.018,2.177l-24.203-7.207
					c-1.117-0.333-2.927-1.844-4.054-3.373l0,0c-1.121-1.536-1.128-2.511-0.018-2.179l24.207,7.206
					C158.016,162.148,159.826,163.66,160.95,165.193L160.95,165.193z"/>
				<path fill="#AD6636" d="M203.647,177.904c1.126,1.532,1.131,2.51,0.021,2.173l-24.205-7.202
					c-1.117-0.332-2.93-1.842-4.054-3.375l0,0c-1.12-1.533-1.126-2.509-0.015-2.175l24.203,7.202
					C200.714,174.859,202.527,176.369,203.647,177.904L203.647,177.904z"/>
				<path fill="#AD6636" d="M246.347,190.615c1.122,1.536,1.131,2.508,0.021,2.175l-24.205-7.204
					c-1.114-0.332-2.927-1.844-4.054-3.375l0,0c-1.118-1.533-1.131-2.509-0.014-2.177l24.201,7.207
					C243.412,187.57,245.226,189.084,246.347,190.615L246.347,190.615z"/>
				<path fill="#AD6636" d="M289.042,203.329c1.126,1.532,1.134,2.505,0.021,2.173l-24.205-7.203
					c-1.112-0.334-2.926-1.842-4.051-3.377l0,0c-1.119-1.533-1.129-2.507-0.016-2.174l24.199,7.204
					C286.108,200.285,287.92,201.794,289.042,203.329L289.042,203.329z"/>
				<path fill="#AD6636" d="M331.743,216.04c1.124,1.534,1.131,2.508,0.017,2.175l-24.203-7.206
					c-1.114-0.331-2.928-1.842-4.052-3.376l0,0c-1.12-1.531-1.131-2.508-0.017-2.176l24.205,7.205
					C328.806,212.994,330.621,214.507,331.743,216.04L331.743,216.04z"/>
				<path fill="#AD6636" d="M371.797,227.962c1.123,1.532,1.131,2.508,0.016,2.177l-21.561-6.42
					c-1.112-0.33-2.926-1.844-4.049-3.376l0,0c-1.123-1.53-1.13-2.507-0.02-2.175l21.562,6.419
					C368.861,224.918,370.672,226.429,371.797,227.962L371.797,227.962z"/>
				<path fill="#AD6636" d="M101.229,152.347c1.129,1.532,1.135,2.508,0.023,2.178l-24.205-7.204
					c-1.111-0.334-2.93-1.849-4.052-3.38l0,0c-1.122-1.53-1.128-2.507-0.013-2.173l24.201,7.203
					C98.299,149.302,100.11,150.815,101.229,152.347L101.229,152.347z"/>
				<path fill="#AD6636" d="M143.93,165.058c1.125,1.532,1.129,2.509,0.02,2.176l-24.205-7.205c-1.115-0.329-2.93-1.845-4.053-3.376
					l0,0c-1.119-1.53-1.128-2.506-0.015-2.175l24.206,7.204C140.998,162.015,142.809,163.526,143.93,165.058L143.93,165.058z"/>
				<path fill="#AD6636" d="M186.627,177.771c1.123,1.529,1.133,2.507,0.018,2.177l-24.201-7.203
					c-1.115-0.335-2.932-1.85-4.051-3.382l0,0c-1.123-1.53-1.131-2.503-0.018-2.173l24.205,7.206
					C183.696,174.727,185.505,176.24,186.627,177.771L186.627,177.771z"/>
				<path fill="#AD6636" d="M229.327,190.482c1.122,1.532,1.13,2.509,0.015,2.177l-24.199-7.204
					c-1.119-0.331-2.932-1.848-4.054-3.38l0,0c-1.12-1.531-1.129-2.505-0.015-2.174l24.204,7.205
					C226.392,187.439,228.206,188.949,229.327,190.482L229.327,190.482z"/>
				<path fill="#AD6636" d="M272.022,203.192c1.125,1.533,1.134,2.51,0.017,2.181l-24.203-7.209
					c-1.11-0.331-2.926-1.844-4.049-3.376l0,0c-1.123-1.532-1.131-2.509-0.013-2.176l24.199,7.206
					C269.09,200.152,270.899,201.66,272.022,203.192L272.022,203.192z"/>
				<path fill="#AD6636" d="M314.719,215.903c1.125,1.533,1.133,2.513,0.023,2.181l-24.205-7.207
					c-1.113-0.331-2.931-1.845-4.054-3.376l0,0c-1.121-1.531-1.129-2.506-0.012-2.175l24.2,7.206
					C311.789,212.864,313.601,214.372,314.719,215.903L314.719,215.903z"/>
				<path fill="#AD6636" d="M357.42,228.615c1.121,1.53,1.131,2.51,0.02,2.179l-24.203-7.205c-1.113-0.333-2.93-1.845-4.055-3.376
					l0,0c-1.121-1.535-1.128-2.51-0.014-2.177l24.203,7.207C354.484,225.573,356.299,227.085,357.42,228.615L357.42,228.615z"/>
			</g>
		</g>
		<g>
			<g>
				<path fill="#AD6636" d="M74.605,114.969c1.121,1.535,1.127,2.507,0.014,2.176l-24.203-7.207
					c-1.113-0.332-1.164-1.313-2.285-2.85l0,0c-1.124-1.532-1.129-2.51-0.02-2.177l22.439,6.681
					C71.666,111.922,73.479,113.437,74.605,114.969L74.605,114.969z"/>
				<path fill="#AD6636" d="M117.301,127.681c1.124,1.534,1.127,2.505,0.018,2.175L93.11,122.65
					c-1.108-0.332-2.923-1.84-4.046-3.377l0,0c-1.121-1.528-1.132-2.506-0.018-2.172l24.205,7.203
					C114.363,124.635,116.182,126.152,117.301,127.681L117.301,127.681z"/>
				<path fill="#AD6636" d="M160,140.393c1.121,1.536,1.129,2.506,0.016,2.177l-24.205-7.208c-1.111-0.334-2.924-1.84-4.051-3.373
					l0,0c-1.119-1.532-1.129-2.509-0.012-2.178l24.201,7.206C157.062,137.347,158.876,138.86,160,140.393L160,140.393z"/>
				<path fill="#AD6636" d="M202.701,153.104c1.121,1.535,1.123,2.507,0.012,2.175l-24.203-7.205
					c-1.117-0.331-2.926-1.84-4.05-3.374l0,0c-1.12-1.531-1.131-2.508-0.019-2.179l24.205,7.206
					C199.762,150.058,201.576,151.573,202.701,153.104L202.701,153.104z"/>
				<path fill="#AD6636" d="M245.396,165.818c1.123,1.534,1.129,2.505,0.015,2.172l-24.204-7.205
					c-1.109-0.33-2.922-1.837-4.049-3.372l0,0c-1.119-1.531-1.129-2.509-0.016-2.18l24.201,7.205
					C242.46,162.772,244.274,164.285,245.396,165.818L245.396,165.818z"/>
				<path fill="#AD6636" d="M288.092,178.531c1.123,1.532,1.134,2.504,0.021,2.174l-24.206-7.206
					c-1.111-0.332-2.927-1.84-4.048-3.376l0,0c-1.127-1.532-1.133-2.51-0.019-2.178l24.203,7.207
					C285.157,175.482,286.972,176.995,288.092,178.531L288.092,178.531z"/>
				<path fill="#AD6636" d="M330.793,191.239c1.12,1.535,1.129,2.508,0.015,2.177l-24.204-7.207
					c-1.111-0.329-2.926-1.838-4.051-3.375l0,0c-1.119-1.529-1.13-2.506-0.016-2.178l24.205,7.205
					C327.857,188.196,329.67,189.708,330.793,191.239L330.793,191.239z"/>
			</g>
			<g>
				<path fill="#AD6636" d="M58.049,114.849c1.123,1.53,1.133,2.505,0.014,2.173l-5.291-1.576c-1.115-0.329-1.166-1.315-2.287-2.852
					l0,0c-1.123-1.529-1.133-2.507-0.018-2.176l3.531,1.053C55.113,111.805,56.924,113.314,58.049,114.849L58.049,114.849z"/>
				<path fill="#AD6636" d="M100.745,127.558c1.121,1.532,1.134,2.508,0.019,2.175l-24.205-7.205
					c-1.113-0.33-2.928-1.843-4.048-3.375l0,0c-1.126-1.534-1.13-2.506-0.019-2.175l24.201,7.202
					C97.812,124.514,99.623,126.026,100.745,127.558L100.745,127.558z"/>
				<path fill="#AD6636" d="M143.445,140.27c1.121,1.535,1.131,2.505,0.015,2.176l-24.202-7.207
					c-1.113-0.328-2.929-1.843-4.051-3.373l0,0c-1.123-1.532-1.129-2.509-0.017-2.178l24.204,7.205
					C140.51,137.226,142.322,138.739,143.445,140.27L143.445,140.27z"/>
				<path fill="#AD6636" d="M186.141,152.98c1.123,1.536,1.132,2.51,0.018,2.178l-24.205-7.205c-1.111-0.33-2.924-1.843-4.049-3.378
					l0,0c-1.122-1.529-1.129-2.506-0.016-2.172l24.205,7.203C183.207,149.937,185.02,151.45,186.141,152.98L186.141,152.98z"/>
				<path fill="#AD6636" d="M228.838,165.692c1.125,1.535,1.131,2.51,0.021,2.179l-24.208-7.206
					c-1.114-0.332-2.925-1.844-4.045-3.373l0,0c-1.123-1.536-1.133-2.511-0.018-2.178l24.203,7.206
					C225.908,162.649,227.719,164.161,228.838,165.692L228.838,165.692z"/>
				<path fill="#AD6636" d="M271.539,178.406c1.125,1.534,1.131,2.505,0.019,2.176l-24.207-7.204
					c-1.113-0.332-2.926-1.844-4.047-3.377l0,0c-1.121-1.529-1.134-2.508-0.019-2.178l24.202,7.209
					C268.603,175.361,270.418,176.875,271.539,178.406L271.539,178.406z"/>
				<path fill="#AD6636" d="M314.234,191.119c1.126,1.531,1.131,2.504,0.018,2.172l-24.203-7.204
					c-1.112-0.332-2.927-1.842-4.047-3.376l0,0c-1.127-1.533-1.131-2.509-0.021-2.175l24.202,7.204
					C311.301,188.071,313.115,189.583,314.234,191.119L314.234,191.119z"/>
				<path fill="#AD6636" d="M350.765,201.994c1.125,1.528,1.13,2.504,0.017,2.172l-18.031-5.368
					c-1.115-0.332-2.93-1.844-4.051-3.378l0,0c-1.123-1.531-1.131-2.503-0.021-2.174l18.034,5.37
					C347.83,198.948,349.643,200.459,350.765,201.994L350.765,201.994z"/>
				<path fill="#AD6636" d="M83.726,127.424c1.12,1.534,1.129,2.509,0.017,2.177l-24.201-7.205
					c-1.116-0.332-2.932-1.847-4.052-3.379l0,0c-1.122-1.527-1.129-2.506-0.015-2.171l24.203,7.203
					C80.791,124.381,82.605,125.895,83.726,127.424L83.726,127.424z"/>
				<path fill="#AD6636" d="M126.422,140.135c1.124,1.53,1.133,2.51,0.02,2.178l-24.204-7.204c-1.113-0.333-2.93-1.845-4.053-3.378
					l0,0c-1.124-1.532-1.129-2.507-0.015-2.175l24.206,7.203C123.49,137.091,125.303,138.603,126.422,140.135L126.422,140.135z"/>
				<path fill="#AD6636" d="M169.124,152.848c1.12,1.531,1.129,2.507,0.013,2.177l-24.199-7.206c-1.119-0.33-2.93-1.845-4.053-3.38
					l0,0c-1.123-1.529-1.129-2.502-0.012-2.173l24.201,7.206C166.188,149.805,168.002,151.316,169.124,152.848L169.124,152.848z"/>
				<path fill="#AD6636" d="M211.821,165.558c1.122,1.532,1.128,2.51,0.015,2.177l-24.205-7.206
					c-1.11-0.329-2.924-1.844-4.048-3.375l0,0c-1.124-1.53-1.129-2.506-0.015-2.177l24.203,7.206
					C208.888,162.518,210.695,164.028,211.821,165.558L211.821,165.558z"/>
				<path fill="#AD6636" d="M254.521,178.272c1.125,1.532,1.129,2.507,0.013,2.178l-24.2-7.207
					c-1.111-0.332-2.928-1.847-4.048-3.377l0,0c-1.125-1.532-1.132-2.507-0.019-2.176l24.202,7.206
					C251.586,175.229,253.396,176.739,254.521,178.272L254.521,178.272z"/>
				<path fill="#AD6636" d="M297.216,190.98c1.12,1.533,1.131,2.513,0.02,2.18l-24.207-7.208c-1.114-0.327-2.93-1.844-4.047-3.374
					l0,0c-1.125-1.533-1.135-2.508-0.017-2.174l24.203,7.202C294.28,187.942,296.094,189.449,297.216,190.98L297.216,190.98z"/>
				<path fill="#AD6636" d="M339.914,203.696c1.125,1.528,1.127,2.508,0.016,2.174l-24.201-7.203
					c-1.112-0.335-2.925-1.847-4.054-3.376l0,0c-1.124-1.534-1.128-2.509-0.015-2.175l24.203,7.204
					C336.982,200.654,338.793,202.163,339.914,203.696L339.914,203.696z"/>
			</g>
		</g>
		<g>
			<path d="M418.206,285.133c-0.558-0.751-1.209-1.423-1.919-2.026c-0.356-0.3-0.729-0.581-1.12-0.824
				c-0.401-0.254-0.786-0.423-1.253-0.547l-0.043-0.011l-0.035-0.039l-3.203-3.593c-0.529-0.605-1.077-1.18-1.592-1.812
				l-1.533-1.854l-0.396-0.479l0.607,0.159c0.4,0.104,0.91,0.321,1.143,0.229c0.191-0.042,0.078-0.569-0.105-0.913
				c-0.379-0.751-0.936-1.435-1.525-2.062c-0.604-0.621-1.262-1.198-1.979-1.668c-0.36-0.229-0.727-0.438-1.124-0.546l-1.268-0.374
				l-0.067-0.021l-0.047-0.056l-4.934-5.946l-0.512-0.614l0.785,0.198c0.418,0.104,0.939,0.314,1.232,0.309
				c0.139-0.025,0.123-0.02,0.141-0.196c-0.008-0.163-0.072-0.366-0.161-0.56c-0.359-0.771-0.946-1.486-1.557-2.137
				c-0.622-0.646-1.308-1.241-2.05-1.716c-0.387-0.244-0.735-0.414-1.179-0.528l-1.317-0.388l-0.086-0.025l-0.061-0.07l-0.889-1.072
				l-1.604-1.938l1.661,1.499c0.034,0.029,0.054-0.273-0.06-0.521c-0.096-0.26-0.24-0.521-0.399-0.771
				c-0.322-0.503-0.712-0.976-1.122-1.417c-0.416-0.44-0.862-0.854-1.342-1.228c-0.475-0.368-0.98-0.711-1.504-0.929l-0.078-0.031
				l-0.057-0.066l-0.515-0.612l-0.735-0.88l1.105,0.318l0.688,0.198c0.229,0.062,0.47,0.146,0.633,0.157
				c0.068,0.016,0.127-0.012,0.133-0.01c-0.009,0.001-0.02,0.021-0.007-0.021c0.013-0.1-0.036-0.311-0.116-0.495
				c-0.342-0.776-0.953-1.519-1.585-2.182c-0.643-0.657-1.354-1.27-2.12-1.733c-0.189-0.11-0.386-0.222-0.577-0.296
				c-0.176-0.074-0.396-0.132-0.634-0.2l-1.373-0.396l-0.13-0.038l-0.092-0.108l-0.683-0.812l-0.981-1.167l1.477,0.425l0.598,0.172
				l0.159,0.036l0.072,0.005c0.048,0.001,0.072-0.013,0.031,0.004c-0.033,0.027-0.062,0.07-0.053,0.056
				c0.001-0.021,0.002-0.08-0.017-0.15c-0.026-0.143-0.104-0.317-0.188-0.485c-0.355-0.688-0.898-1.352-1.47-1.947
				c-0.58-0.594-1.22-1.146-1.897-1.589c-0.339-0.218-0.688-0.408-1.019-0.506l-1.249-0.361l-0.158-0.046l-0.113-0.134l-0.456-0.541
				l-1.188-1.409l1.785,0.501l0.301,0.085l0.123,0.032l0.149,0.035c0.034-0.003,0.061-0.003,0.071-0.002
				c-0.018-0.015-0.084,0.037-0.13,0.094c-0.045,0.134-0.005-0.016-0.058-0.145c-0.048-0.144-0.111-0.302-0.2-0.462
				c-0.354-0.646-0.871-1.273-1.415-1.845c-0.556-0.564-1.161-1.096-1.803-1.523c-0.318-0.212-0.656-0.402-0.957-0.505l-1.171-0.344
				l-0.188-0.056l-0.132-0.156l-0.966-1.146l-1.414-1.681l2.124,0.604l0.643,0.183l0.128,0.033c0.043,0.009,0.134,0.036,0.137,0.028
				c0.014-0.002,0.053-0.006-0.006,0.003c-0.037,0.003-0.191,0.121-0.203,0.188c-0.021,0.08-0.012,0.045-0.019,0.008
				c-0.013-0.096-0.074-0.264-0.149-0.423c-0.335-0.668-0.883-1.346-1.463-1.945c-0.586-0.603-1.234-1.16-1.916-1.595
				c-0.353-0.219-0.65-0.383-1.012-0.474l-1.283-0.369l-0.223-0.062l-0.157-0.189l-0.496-0.597l-1.622-1.951l2.453,0.708
				l0.686,0.197c0.221,0.062,0.502,0.147,0.539,0.137c0.008,0.007-0.018-0.021-0.146,0.048c-0.141,0.085-0.22,0.262-0.211,0.285
				c0.001,0.053-0.021-0.13-0.092-0.278c-0.293-0.664-0.892-1.402-1.496-2.035c-0.617-0.633-1.312-1.223-2.025-1.655
				c-0.176-0.103-0.355-0.203-0.52-0.269c-0.09-0.042-0.148-0.054-0.238-0.085l-0.342-0.098l-1.368-0.391l-0.257-0.071l-0.183-0.219
				l-0.666-0.799l-1.837-2.201l2.796,0.769c0.18,0.049,0.46,0.143,0.556,0.155c0.122,0.043,0.016-0.104-0.301,0.182
				c-0.13,0.16-0.127,0.255-0.132,0.278c-0.003,0.017-0.003-0.015-0.019-0.063c-0.029-0.1-0.084-0.242-0.166-0.393
				c-0.322-0.606-0.834-1.232-1.372-1.792c-0.546-0.56-1.148-1.083-1.773-1.496c-0.308-0.203-0.638-0.379-0.886-0.458l-1.188-0.344
				l-0.287-0.082l-0.201-0.242l-0.469-0.561l-2.107-2.521l3.174,0.919l0.71,0.205l0.354,0.104l0.178,0.052l0.021,0.007l0.012,0.003
				c-0.124-0.032-0.033-0.009-0.061-0.017l0.004,0.001l0.006,0.001l0.045,0.011l0.09,0.021c0.096,0.018-0.021-0.02-0.07,0.008
				c-0.113-0.004-0.4,0.188-0.463,0.382c-0.092,0.327-0.014,0.155-0.094,0.034c-0.248-0.615-0.861-1.396-1.475-2.023
				c-0.627-0.643-1.346-1.249-2.057-1.662c-0.377-0.223-0.575-0.271-1.127-0.428l-1.418-0.409l-0.314-0.092l-0.227-0.27
				l-0.957-1.136l-2.408-2.854l3.605,1.049l1.247,0.362c0.18,0.069-0.077-0.163-0.525,0.296c-0.167,0.246-0.153,0.366-0.153,0.408
				c0,0.026-0.005-0.001-0.018-0.044c-0.136-0.46-0.727-1.271-1.234-1.824c-0.558-0.609-1.188-1.184-1.84-1.64
				c-0.316-0.22-0.67-0.429-0.92-0.512l-1.245-0.371l-1.429-0.425l0.768-1.335c-0.13,0.226-0.096,0.275-0.104,0.271
				c0.001-0.002-0.004-0.057-0.018-0.119c-0.025-0.127-0.077-0.298-0.146-0.471c-0.127-0.331-0.352-0.752-0.552-1.067
				c-0.429-0.688-1.021-1.412-1.527-1.772c-0.056-0.037-0.104-0.064-0.126-0.075c-0.01-0.004,0.006,0.006,0.002,0l-0.17-0.05
				l-0.682-0.2l-1.363-0.397l-1.363-0.398l-0.086-0.024l-0.01-0.004l-0.006-0.002h-0.003c0.125,0.033,0.033,0.01,0.06,0.018
				l-0.021-0.006l-0.043-0.012c-0.046-0.01,0.092,0.026,0.131,0.021c0.062,0.005,0.104,0.002,0.184-0.011
				c0.143-0.021,0.357-0.109,0.49-0.25c0.141-0.137,0.193-0.261,0.22-0.337c0.06-0.27,0.015-0.081,0.06,0.026l0.928,2.186
				l-2.474-0.726l-7.915-2.318l-0.357-0.104l-0.252-0.296c-0.767-0.902-1.766-1.79-2.688-2.28c-0.275-0.162-1.092-0.349-1.699-0.542
				l-1.945-0.569l-7.777-2.278l-7.769-2.309l-3.881-1.164l-0.97-0.291l-0.486-0.146c0.074,0.021-0.197-0.055-0.113-0.026
				c0.045,0.01,0.089,0.016,0.166,0.002c0.106-0.01,0.286-0.061,0.488-0.23c0.189-0.185,0.279-0.388,0.295-0.521
				c0.026-0.229-0.002-0.17,0.021-0.124c0.032,0.123,0.149,0.366,0.29,0.591l1.865,2.976l-3.365-1.012l-14.528-4.36l-0.372-0.111
				l-0.248-0.298c-0.759-0.906-1.748-1.803-2.666-2.3c-0.274-0.167-1.089-0.356-1.697-0.557l-1.938-0.582l-7.764-2.329l-7.761-2.338
				l-3.875-1.186l-0.969-0.296l-0.484-0.146c0.06,0.016-0.188-0.052-0.132-0.03c0.029,0.006,0.062,0.011,0.118,0
				c0.087-0.008,0.235-0.051,0.409-0.195c0.164-0.155,0.24-0.331,0.252-0.438c0.019-0.188-0.004-0.114,0.021-0.058
				c0.039,0.146,0.159,0.396,0.304,0.629l1.627,2.635l-2.948-0.9l-14.509-4.431l-0.31-0.096l-0.2-0.24
				c-0.774-0.935-1.763-1.843-2.729-2.375c-0.339-0.196-1.124-0.378-1.737-0.582l-1.938-0.594l-7.75-2.367l-7.75-2.369l-3.875-1.187
				l-0.969-0.296c-0.281-0.099-0.805-0.227-0.641-0.19c0.036-0.001,0.116-0.023,0.223-0.108c0.098-0.098,0.143-0.195,0.145-0.248
				c0.003-0.084-0.002,0.02,0.029,0.106c0.057,0.197,0.188,0.464,0.342,0.714l1.133,1.852l-2.064-0.632l-14.502-4.437l-0.207-0.062
				l-0.135-0.162c-0.806-0.965-1.797-1.885-2.838-2.461c-0.43-0.236-1.178-0.396-1.798-0.606l-1.938-0.593l-7.753-2.363
				l-7.762-2.336l-3.881-1.168l-0.97-0.292c-0.298-0.095-0.746-0.228-0.753-0.193c-0.021,0.038,0.158-0.113,0.123-0.13
				c-0.008,0.004,0.002,0.128,0.04,0.241c0.07,0.239,0.213,0.519,0.374,0.779l0.752,1.225l-1.373-0.413L159.5,140.36l-0.144-0.043
				l-0.098-0.115c-0.829-0.979-1.827-1.902-2.91-2.495c-0.477-0.253-1.208-0.401-1.833-0.61l-1.941-0.584l-7.761-2.338l-7.771-2.303
				l-3.887-1.146l-0.973-0.287c-0.301-0.091-0.732-0.226-0.784-0.19c-0.04,0.036,0.095-0.078,0.062-0.068
				c-0.01,0.024,0.006,0.153,0.045,0.273c0.076,0.251,0.223,0.528,0.387,0.794l0.67,1.076l-1.218-0.359l-14.549-4.297l-0.146-0.043
				l-0.104-0.122c-0.83-0.975-1.834-1.893-2.912-2.475c-0.469-0.245-1.205-0.395-1.83-0.599l-1.943-0.574l-7.773-2.296l-7.775-2.281
				l-3.891-1.133l-0.973-0.283c-0.295-0.091-0.764-0.22-0.729-0.185c0.006,0.005,0.045-0.008,0.107-0.056
				c0.055-0.059,0.082-0.107,0.078-0.128c-0.002-0.02,0.006,0.1,0.043,0.205c0.068,0.229,0.211,0.501,0.373,0.757l0.883,1.407
				l-1.604-0.469l-3.727-1.087c-1.271-0.357-2.48-0.769-3.723-1.147l-7.409-2.326l-0.182-0.058l-0.138-0.149
				c-0.764-0.834-1.67-1.626-2.594-2.116c-0.377-0.202-1.021-0.33-1.594-0.516l-1.744-0.509l-6.977-2.03l-6.978-2.025l-3.489-1.014
				L48.3,105.91l-0.409-0.117c-0.104-0.026-0.073-0.016-0.091-0.02c-0.017-0.003-0.01,0.004,0.035-0.005
				c0.049-0.007,0.148-0.037,0.252-0.132c0.103-0.093,0.148-0.203,0.159-0.26c0.021-0.104,0.001-0.054,0.025,0.017l0.562,1.588
				l-1.703-0.487l-0.049-0.016l1.154-1.041l1.37,7.143l-0.067-0.22l18.9,41.49l18.821,41.525l-0.874-0.768l83.273,24.667
				l83.188,24.947l41.533,12.677l41.487,12.837l41.492,12.813l41.557,12.601l-0.244,0.183l0.021-8.074v-0.126l0.124-0.028
				c0.14-0.033,0.194-0.141,0.185-0.333c-0.012-0.182-0.078-0.377-0.16-0.562C418.684,285.832,418.453,285.475,418.206,285.133z
				 M418.446,284.954c0.257,0.354,0.501,0.72,0.686,1.13c0.09,0.205,0.171,0.42,0.189,0.669c0.05,0.229-0.112,0.614-0.428,0.662
				l0.124-0.155l0.041,8.074l0.001,0.254l-0.244-0.071l-41.662-12.247l-41.729-12.03l-41.731-12.011l-41.687-12.17l-83.25-24.746
				L85.59,197.288l-0.616-0.187l-0.259-0.581L66.21,154.852l-18.425-41.703l-0.05-0.11l-0.02-0.107l-1.271-7.159l-0.261-1.47
				l1.415,0.429l0.051,0.016l-1.142,1.101c-0.049-0.224-0.11-0.479-0.026-0.884c0.047-0.202,0.16-0.454,0.373-0.651
				c0.215-0.197,0.461-0.284,0.658-0.319c0.195-0.034,0.354-0.026,0.488-0.013c0.131,0.014,0.311,0.058,0.354,0.069l0.462,0.14
				l1.737,0.529l3.475,1.062l6.951,2.12l6.951,2.115l1.738,0.527l0.869,0.266c0.252,0.069,0.685,0.211,0.975,0.376
				c1.209,0.667,2.129,1.524,2.992,2.478l-0.319-0.207l7.38,2.414c1.228,0.393,2.468,0.827,3.684,1.187l3.714,1.132l-0.72,0.938
				c-0.19-0.317-0.371-0.646-0.498-1.065c-0.055-0.216-0.123-0.438-0.065-0.792c0.039-0.181,0.124-0.401,0.313-0.563
				c0.185-0.171,0.396-0.228,0.564-0.252c0.719-0.019,0.886,0.163,1.24,0.235l0.969,0.295l3.878,1.181l7.758,2.344l7.763,2.33
				l1.94,0.582c0.651,0.225,1.267,0.313,2.009,0.681c1.296,0.715,2.307,1.674,3.225,2.747l-0.249-0.164l14.529,4.36l-0.548,0.717
				c-0.189-0.312-0.366-0.632-0.488-1.027c-0.054-0.201-0.115-0.413-0.064-0.725c0.034-0.156,0.105-0.347,0.267-0.484
				c0.155-0.146,0.337-0.193,0.486-0.218c0.631-0.022,0.837,0.151,1.184,0.227l0.97,0.291l3.883,1.166l7.764,2.324l7.775,2.29
				l1.943,0.572c0.652,0.221,1.271,0.31,2.006,0.667c1.293,0.704,2.309,1.657,3.231,2.724l-0.241-0.158l14.549,4.287l-0.621,0.812
				c-0.191-0.312-0.372-0.636-0.498-1.042c-0.057-0.208-0.123-0.424-0.07-0.757c0.037-0.169,0.113-0.374,0.289-0.525
				c0.17-0.158,0.367-0.212,0.526-0.237c0.675-0.021,0.864,0.154,1.216,0.227l0.971,0.286l3.889,1.146l7.774,2.29l7.783,2.263
				l1.946,0.562c0.656,0.221,1.26,0.297,2.041,0.674c1.334,0.722,2.358,1.677,3.303,2.759l-0.341-0.226l14.568,4.22l-0.932,1.219
				c-0.201-0.323-0.394-0.658-0.533-1.106c-0.062-0.231-0.146-0.471-0.078-0.892c0.045-0.213,0.146-0.481,0.379-0.684
				c0.229-0.206,0.479-0.274,0.681-0.306c0.185-0.021,0.353-0.015,0.515,0.017c0.186,0.032,0.146,0.028,0.33,0.074l0.485,0.143
				l0.974,0.281l3.894,1.127l7.784,2.256l7.783,2.257l1.946,0.562l0.974,0.282c0.181,0.056,0.285,0.077,0.524,0.157
				c0.228,0.076,0.416,0.165,0.603,0.259c1.408,0.767,2.437,1.732,3.41,2.848l-0.511-0.336l14.568,4.223l-1.322,1.731
				c-0.211-0.342-0.414-0.69-0.571-1.191c-0.066-0.264-0.166-0.531-0.084-1.057c0.055-0.269,0.188-0.61,0.487-0.874
				c0.297-0.266,0.617-0.354,0.867-0.39c0.224-0.023,0.426-0.017,0.622,0.021c0.224,0.043,0.14,0.026,0.361,0.084l0.485,0.142
				l0.974,0.281l3.894,1.129l7.774,2.287l7.771,2.295l1.942,0.573l0.974,0.286c0.184,0.058,0.272,0.075,0.534,0.164
				c0.242,0.082,0.439,0.177,0.635,0.272c1.456,0.802,2.48,1.783,3.472,2.924l-0.62-0.409l14.55,4.295l-1.5,1.964
				c-0.215-0.351-0.422-0.707-0.585-1.231c-0.067-0.274-0.174-0.558-0.087-1.122c0.061-0.291,0.205-0.664,0.531-0.954
				c0.322-0.293,0.676-0.391,0.945-0.431c0.245-0.026,0.459-0.018,0.67,0.021c0.252,0.049,0.142,0.027,0.379,0.089l0.486,0.145
				l0.971,0.287l3.887,1.146l7.768,2.317l7.758,2.347l1.938,0.587l0.971,0.293c0.184,0.06,0.271,0.077,0.534,0.167
				c0.243,0.084,0.438,0.181,0.634,0.276c1.45,0.81,2.472,1.793,3.455,2.938l-0.609-0.401l7.894,2.389l-1.546,1.46
				c-0.053-0.351-0.187-0.647,0.012-1.376c0.064-0.188,0.176-0.42,0.398-0.641c0.222-0.219,0.545-0.367,0.806-0.402
				c0.136-0.021,0.236-0.022,0.358-0.021c0.098,0.003,0.295,0.039,0.308,0.044l0.233,0.064l1.359,0.41l1.358,0.41l0.682,0.206
				l0.171,0.052c0.104,0.035,0.233,0.084,0.332,0.13c0.189,0.093,0.345,0.188,0.482,0.286c1.021,0.772,1.596,1.59,2.177,2.494
				c0.298,0.489,0.517,0.909,0.731,1.462c0.104,0.27,0.195,0.551,0.26,0.889c0.031,0.171,0.061,0.353,0.059,0.587
				c-0.016,0.23-0.013,0.525-0.263,0.958l-0.661-1.761l0.652,0.197l0.326,0.1c0.104,0.031,0.214,0.062,0.39,0.127
				c0.606,0.228,1.032,0.514,1.464,0.81c0.836,0.598,1.553,1.267,2.22,2.006c0.162,0.187,0.327,0.379,0.493,0.59l0.212,0.276
				l0.229,0.327c0.289,0.437,0.57,0.877,0.777,1.537c0.049,0.177,0.092,0.371,0.102,0.627c-0.004,0.265-0.012,0.63-0.328,1.053
				c-0.307,0.407-0.824,0.571-1.092,0.575c-0.153,0.017-0.295,0.01-0.43-0.01l-0.193-0.029l-0.081-0.021l-0.23-0.062l-0.163-0.05
				l-0.327-0.1l-0.651-0.198l1.195-1.809l0.938,1.153l-0.541-0.357l1.408,0.438c0.396,0.105,1.143,0.354,1.602,0.666
				c0.977,0.599,1.752,1.303,2.486,2.075c0.72,0.806,1.393,1.569,1.881,2.787c0.057,0.16,0.107,0.344,0.142,0.562
				c0.018,0.242,0.067,0.486-0.104,0.911c-0.154,0.424-0.658,0.771-1.018,0.817c-0.291,0.062-0.656,0.014-0.802-0.024l-0.241-0.062
				l-0.176-0.056l-0.352-0.108l-0.705-0.22l1.064-1.601l0.457,0.567l-0.485-0.323l1.237,0.385c0.555,0.194,0.96,0.448,1.355,0.715
				c0.773,0.537,1.439,1.146,2.062,1.807c0.615,0.673,1.188,1.367,1.646,2.264c0.113,0.227,0.219,0.477,0.299,0.784
				c0.037,0.153,0.069,0.335,0.064,0.562c-0.018,0.229-0.051,0.548-0.325,0.867c-0.614,0.614-1.218,0.42-1.489,0.385
				c-0.318-0.077-0.436-0.131-0.664-0.196l0.959-1.434l0.652,0.812l-0.438-0.29l1.359,0.415l0.341,0.104
				c0.134,0.046,0.304,0.102,0.429,0.162c0.275,0.116,0.508,0.256,0.738,0.395c0.896,0.572,1.641,1.241,2.334,1.979
				c0.678,0.753,1.314,1.501,1.783,2.579c0.1,0.29,0.229,0.574,0.184,1.103c-0.01,0.118-0.065,0.306-0.148,0.454
				c-0.102,0.173-0.236,0.315-0.408,0.417c-0.336,0.185-0.605,0.188-0.832,0.165c-0.438-0.058-0.604-0.146-0.838-0.209l-0.68-0.211
				l0.83-1.243l0.483,0.605l-0.38-0.253l1.277,0.395c0.506,0.141,0.994,0.413,1.39,0.675c0.812,0.542,1.507,1.17,2.152,1.854
				c0.634,0.696,1.226,1.419,1.679,2.353c0.104,0.247,0.211,0.497,0.258,0.846c0.014,0.183,0.04,0.378-0.07,0.665
				c-0.085,0.273-0.416,0.569-0.676,0.618c-0.268,0.079-0.457,0.058-0.665,0.027c-0.106-0.019-0.123-0.028-0.188-0.043l-0.194-0.056
				l-0.639-0.193l0.709-1.076l0.942,1.164l-0.317-0.212l1.223,0.385c0.484,0.181,0.869,0.42,1.24,0.673
				c0.732,0.514,1.378,1.101,1.978,1.734c0.594,0.646,1.145,1.318,1.575,2.146c0.107,0.207,0.203,0.437,0.277,0.689
				c0.045,0.265,0.182,0.569-0.085,1.07c-0.145,0.253-0.425,0.383-0.64,0.428c-0.191,0.03-0.376,0.02-0.549-0.015l-0.15-0.037
				l-0.182-0.051l-0.299-0.09l0.596-0.908l0.446,0.549l-0.271-0.18l1.239,0.385c0.501,0.161,0.909,0.405,1.297,0.661
				c0.765,0.521,1.433,1.123,2.051,1.778c0.607,0.666,1.175,1.364,1.604,2.226c0.104,0.222,0.202,0.445,0.256,0.73
				c0.027,0.142,0.045,0.302,0.018,0.494c-0.031,0.188-0.147,0.458-0.381,0.59c-0.225,0.139-0.424,0.146-0.594,0.143
				c-0.082-0.008-0.178-0.02-0.248-0.031l-0.155-0.039l-0.647-0.198l0.492-0.743l0.667,0.824l-0.222-0.146l1.363,0.42
				c0.221,0.068,0.459,0.133,0.724,0.246c0.249,0.104,0.468,0.234,0.687,0.365c0.854,0.542,1.582,1.198,2.256,1.912
				c0.658,0.727,1.284,1.479,1.701,2.456c0.09,0.254,0.191,0.516,0.146,0.894c-0.027,0.188-0.153,0.44-0.384,0.555
				c-0.212,0.096-0.396,0.104-0.563,0.081c-0.309-0.043-0.521-0.133-0.746-0.196l-0.684-0.209l0.371-0.561l0.504,0.622l-0.137-0.1
				c0.625,0.273,1.148,0.651,1.648,1.053c0.499,0.402,0.959,0.846,1.395,1.312c0.436,0.473,0.837,0.968,1.184,1.515
				c0.174,0.276,0.334,0.563,0.453,0.891c0.06,0.163,0.105,0.339,0.12,0.542c0.017,0.188-0.029,0.493-0.285,0.681l0.06-0.438
				l0.881,1.079l-0.145-0.097l1.314,0.396c0.449,0.114,0.934,0.348,1.316,0.604c0.8,0.519,1.502,1.142,2.148,1.817
				c0.633,0.688,1.23,1.411,1.646,2.305c0.099,0.227,0.188,0.465,0.202,0.76c-0.002,0.146-0.01,0.327-0.145,0.495
				c-0.122,0.166-0.336,0.242-0.484,0.245c-0.333,0.018-0.549-0.08-0.771-0.14l-0.656-0.196l0.273-0.416l4.896,5.979l-0.114-0.076
				l1.265,0.384c0.455,0.129,0.863,0.364,1.24,0.608c0.755,0.501,1.426,1.101,2.043,1.747c0.609,0.655,1.178,1.354,1.59,2.183
				c0.097,0.213,0.188,0.431,0.229,0.682c0.016,0.128,0.026,0.265-0.018,0.416c-0.025,0.153-0.173,0.312-0.321,0.373
				c-0.312,0.109-0.569,0.024-0.786-0.03l-0.632-0.192l0.212-0.317l1.521,1.863c0.491,0.616,1.05,1.209,1.571,1.812l3.179,3.612
				l-0.077-0.049c0.447,0.116,0.938,0.329,1.329,0.59c0.407,0.258,0.789,0.55,1.152,0.859
				C417.217,283.486,417.883,284.185,418.446,284.954z"/>
		</g>
	</g>
	<g display="inline">
		<g opacity="0.34">
			<path fill="#602C09" d="M242.243,221.868c-0.21-0.158,1.086-1.396,0.88-1.558c-5.133-4.001,0.765-6.938,3.778-7.318
				c6.363-0.8,11.127,1.48,12.731,0.027c4.972-4.514,3-12.902-1.073-19.61c-2.312,0.376-4.355-6.117-12.619-10.922
				c-2.301-1.336-12.174-2.381-17.61-6.315c-5.463-3.938-5.896-4.485-3.465-5.304c14.612-4.912,25.782,3.932,32.644,8.143
				c5.116,3.138,7.797,8.342,11.479,12.628c9.533,11.104,14.545,27.237,7.445,33.678c-2.938,2.663-25.06-0.152-27.859,0.196
				C245.679,225.875,247.274,225.622,242.243,221.868z"/>
		</g>
		<g>
			<g>
				<path fill="#602C09" d="M246.334,225.296c-0.147-0.05-0.295-0.104-0.442-0.16c-3.67-1.451-5.554-5.291-4.201-8.574
					c2.851-6.926,7.018-18.317,7.367-21.968c1.075-11.302-3.513-24.016-7.47-30.521c-1.008,2.646-2.096,5.95-2.969,9.13
					c-0.938,3.425-4.777,5.323-8.574,4.243c-3.812-1.058-6.114-4.73-5.178-8.155c5.633-20.568,10.202-22.079,14.772-21.864
					c3.405,0.158,6.687,1.858,9.735,5.047c7.901,8.257,15.33,27.937,13.79,44.067c-0.637,6.678-6.93,22.228-8.184,25.275
					C253.688,224.969,249.883,226.465,246.334,225.296z"/>
				<path d="M246.301,225.391c-2.655-0.826-4.866-3.202-5.179-6.051c-0.075-0.702-0.03-1.424,0.146-2.112
					c0.18-0.701,0.482-1.314,0.709-1.968l1.41-3.886c0.918-2.599,1.801-5.208,2.615-7.833c0.809-2.62,1.604-5.278,2.107-7.905
					c0.242-1.254,0.24-2.644,0.258-3.976c-0.01-1.35-0.062-2.699-0.188-4.046c-0.262-2.692-0.707-5.375-1.35-8.016
					c-0.623-2.646-1.436-5.248-2.371-7.805c-0.945-2.551-2.049-5.055-3.398-7.402l1.104-0.102c-1.197,2.975-2.241,6-3.17,9.098
					c-0.49,1.649-1.715,3.051-3.221,3.82c-1.504,0.784-3.256,1.026-4.906,0.738c-1.637-0.276-3.225-1.057-4.418-2.233
					c-1.197-1.174-2.008-2.779-2.121-4.487c-0.071-0.842,0.092-1.733,0.324-2.498l0.646-2.335c0.438-1.558,0.891-3.109,1.391-4.651
					c1.008-3.078,2.129-6.142,3.729-9.032c0.812-1.436,1.754-2.843,3.041-4.016c1.258-1.193,3.053-1.97,4.809-2.059
					c1.707-0.118,3.463,0.108,5.092,0.687c1.631,0.564,3.125,1.438,4.451,2.485c2.664,2.102,4.725,4.766,6.504,7.521
					c3.531,5.562,6.029,11.676,7.748,17.983c1.672,6.312,2.604,12.888,2.164,19.462c-0.094,1.622-0.346,3.335-0.756,4.918
					c-0.387,1.6-0.879,3.15-1.391,4.692c-1.029,3.08-2.193,6.099-3.391,9.101c-1.207,3.006-2.445,5.961-3.779,8.938
					c-0.803,1.477-2.225,2.521-3.779,3.022C249.565,225.957,247.849,225.91,246.301,225.391z M246.367,225.202
					c1.514,0.487,3.18,0.51,4.682,0.001c1.507-0.488,2.816-1.562,3.521-2.956c1.232-2.938,2.269-6.021,3.324-9.055
					c1.039-3.047,2.006-6.117,2.851-9.209c0.419-1.546,0.796-3.102,1.11-4.647c0.332-1.56,0.471-3.06,0.521-4.658
					c0.225-6.32-0.709-12.677-2.377-18.804c-0.825-3.067-1.863-6.08-3.068-9.019c-1.211-2.936-2.609-5.795-4.273-8.479
					c-1.666-2.673-3.586-5.208-5.975-7.146c-2.369-1.957-5.268-3.174-8.314-3.015c-1.477,0.047-2.816,0.599-3.959,1.564
					c-1.145,0.958-2.084,2.227-2.907,3.561c-1.64,2.693-2.858,5.682-3.952,8.69c-0.545,1.509-1.053,3.033-1.529,4.568l-0.677,2.315
					c-0.241,0.774-0.376,1.492-0.329,2.267c0.082,1.522,0.791,2.994,1.879,4.088c1.09,1.109,2.535,1.812,4.08,2.06
					c1.522,0.249,3.139,0.022,4.478-0.73c1.337-0.739,2.382-1.979,2.757-3.452c0.793-3.116,1.725-6.236,2.811-9.296l0.424-1.195
					l0.68,1.096c2.959,4.771,5.055,10.004,6.441,15.425c0.668,2.718,1.17,5.485,1.375,8.289c0.199,2.811,0.228,5.609-0.312,8.477
					c-0.661,2.768-1.622,5.352-2.572,7.956c-0.968,2.594-1.982,5.162-3.039,7.716l-1.615,3.813
					c-0.266,0.637-0.578,1.266-0.762,1.896c-0.186,0.642-0.248,1.317-0.195,1.986C241.625,222.045,243.789,224.369,246.367,225.202z
					"/>
			</g>
		</g>
		<path opacity="0.77" fill="#DD9762" enable-background="new    " d="M247.899,151.906c0,0,6.41,10.438,10.074,25.694
			c3.661,15.26-1.308,25.073-3.625,32.116c-2.517,7.648-2.166,6.277-3.188,11.442c0,0,7.795-7.846,10.748-25.608
			c1.733-10.448-2.046-27.217-7.138-34.617C249.683,153.534,247.899,151.906,247.899,151.906z"/>
		<path fill="#492005" d="M241.588,164.074c0,0-3.108-6.422-5.021-2.366c-1.914,4.055-6.521,15.739-6.521,15.739
			s3.664-0.026,6.006-1.856C238.392,173.757,241.588,164.074,241.588,164.074z"/>
	</g>
</g>
<g id="frame3" display="none">
	<polygon display="inline" fill="#7C3F15" points="424.591,291.775 414.592,294.775 317.886,0.6 329.886,1.6 409.592,27.289 	"/>
	<polygon display="inline" fill="#8C4A1E" points="415.592,293.275 401.219,32.267 316.597,0.791 333.886,209.6 	"/>
	<g display="inline">
		<path d="M424.484,291.703l-2.217-32.963l-2.092-33.049c-1.403-22.031-2.639-44.072-3.967-66.108
			c-0.673-11.019-1.225-22.042-1.842-33.062l-0.886-16.533l-0.831-16.536l-1.657-33.073L409.25,27.31l0.235,0.306l-19.917-6.451
			l-19.939-6.384L329.72,2.112l0.12,0.023l-12.005-0.938l0.619-0.785l0.256,0.763c0.105,0.315-0.062,0.656-0.38,0.763
			c-0.135,0.045-0.273,0.04-0.397-0.005l-0.006-0.002l-1.544-0.564l0.822-0.624l4.585,52.18l4.457,52.19l2.21,26.098l2.138,26.104
			l4.237,52.209l-0.27-0.585l39.545,40.865l19.727,20.478l19.679,20.522c0.025,0.025,0.046,0.062,0.059,0.095l1.214,3.815
			l-0.25-0.131L424.484,291.703z M424.618,291.871l-9.969,3.101c-0.104,0.03-0.218-0.029-0.251-0.132l-1.288-3.793l0.057,0.095
			l-20.049-20.163l-20.001-20.208l-39.912-40.505c-0.16-0.163-0.249-0.368-0.267-0.579l-0.001-0.008l-4.407-52.194l-2.187-26.1
			l-2.11-26.104l-4.188-52.213l-4.06-52.225V0.835c-0.026-0.335,0.225-0.629,0.56-0.654c0.092-0.008,0.184,0.007,0.263,0.036
			l1.538,0.581l-0.781,0.754l-0.248-0.766l-0.002-0.006c-0.104-0.313,0.068-0.65,0.385-0.753c0.077-0.024,0.16-0.032,0.234-0.026
			l11.995,1.062h0.005c0.039,0.003,0.079,0.013,0.115,0.022l39.796,13.021l19.914,6.461l19.938,6.395
			c0.137,0.044,0.227,0.169,0.233,0.306l2.006,33.053l2.094,33.049l1.044,16.523l0.989,16.526
			c0.633,11.021,1.329,22.036,1.906,33.06c1.172,22.045,2.438,44.084,3.532,66.134l1.658,33.073l1.528,33.08
			C424.691,291.816,424.661,291.857,424.618,291.871z"/>
	</g>
</g>
</svg>
