<?xml version="1.0" encoding="utf-8"?>
<!-- Generator: Adobe Illustrator 16.0.4, SVG Export Plug-In . SVG Version: 6.00 Build 0)  -->
<!DOCTYPE svg PUBLIC "-//W3C//DTD SVG 1.1//EN" "http://www.w3.org/Graphics/SVG/1.1/DTD/svg11.dtd">
<svg version="1.1" id="Layer_1" xmlns="http://www.w3.org/2000/svg" xmlns:xlink="http://www.w3.org/1999/xlink" x="0px" y="0px"
	 width="130.43px" height="104.191px" viewBox="0 0 130.43 104.191" enable-background="new 0 0 130.43 104.191"
	 xml:space="preserve">
<g id="side">
	<path fill="#3BB34A" stroke="#010101" d="M89.417,16.555c9.754,1.284,21.145,7.283,21.145,7.283 M7.959,101.932l85.101,0.119
		c0.396-0.38,0.688-0.83,0.886-1.33c0.183-0.463,3.659,0.271,3.688-0.258c0.143-2.787,3.1-10.298-4.804-11.103
		c-0.758,0.117-3.021,2.385-3.148,2.34c-1.133-0.432-2.36-0.359-3.546,0.472c-4.939,3.463-19.519,2.701-19.519,2.701l0.056-3.951
		c32.741-2.195,41.97-11.074,52.39-40.553c0.907-2.57,7.054-2.178,7.054-2.178l-0.31-4.188c3.14-0.562,2.586-3.175,2.586-3.175
		c-5.264-9.805-17.828-16.986-17.828-16.986c5.396-4.79,3.276-17.362-7.055-19.612c-12.682-2.329-14.415,6.485-14.415,6.485
		s-2.146-9.564-13.575-9.667C61.091,0.918,61.8,16.926,61.8,16.926C47.88,20.971,37.775,26.52,29.478,33.34L7.959,101.932z
		 M89.713,16.473c0.052-3.856-0.737-6.229-0.737-6.229 M92.936,101.693c0,0,1.918-9.252-4.446-10.242"/>
	<path id="eyesocket_right" fill="#FFFFFF" stroke="#010101" d="M89.288,16.571l-0.028-5.39c0,0,0.188-9.336,16.095-6.597
		c9.06,3.071,10.287,14.92,5.503,19.432C110.856,24.017,95.266,17.252,89.288,16.571z"/>
	<path id="eyesocket_left" fill="#FFFFFF" stroke="#010101" d="M85.282,24.223c5.265-5.383,5.168-14.012-0.215-19.273
		c-5.384-5.266-14.013-5.168-19.273,0.214c-5.264,5.381-5.168,14.011,0.214,19.274C71.393,29.7,80.02,29.603,85.282,24.223"/>
	<path id="eye_left" fill="#010101" d="M77.932,12.115c1.073,1.474,1.104,3.88,0.062,5.379c-1.049,1.497-2.771,1.518-3.847,0.043
		c-1.077-1.478-1.104-3.882-0.062-5.379C75.13,10.659,76.852,10.641,77.932,12.115z"/>
	<path id="eye_right" fill="#010101" d="M102.87,11.742c1.076,1.475,1.104,3.882,0.062,5.379c-1.045,1.5-2.77,1.52-3.846,0.043
		c-1.074-1.476-1.104-3.881-0.062-5.379C100.071,10.288,101.79,10.267,102.87,11.742z"/>
	<path id="belly" fill="#FFFFFF" d="M66.456,90.832c0,0,21.418-0.125,33.668-9.084c7.462-5.457,12.082-13.791,16.875-25.666
		C116.997,56.082,65.981,56.016,66.456,90.832z"/>
	<g id="eyes1">
		<path id="eyelid_left_open" fill="#3BB34A" stroke="#010101" d="M62.239,13.273c0,0,17.538-4.063,26.874,0.181
			c0,0-1.479-13.269-14.312-12.333C62.199,2.232,62.239,13.273,62.239,13.273z"/>
		<path id="eyelid_right_open" fill="#3BB34A" stroke="#010101" d="M89.491,12.49c0,0,14.36-2.318,23.699,1.927
			c0,0-0.957-11.452-13.791-10.521C86.565,4.83,89.491,12.49,89.491,12.49L89.491,12.49z"/>
	</g>
	<g id="eyes2" display="none">
		<path id="eyelid_left_closed" display="inline" fill="#3CB24A" stroke="#010101" d="M62.581,13.211c0,0,13.498,5.419,26.883,0.396
			c0,0-1.83-13.42-14.665-12.485C61.965,2.053,62.581,13.211,62.581,13.211z"/>
		<path id="eyelid_right_closed" display="inline" fill="#3CB24A" stroke="#010101" d="M89.168,14.54c0,0,11.907,1.821,23.692-0.205
			c0,0-0.625-11.371-13.461-10.438C86.562,4.83,89.168,14.54,89.168,14.54z"/>
	</g>
	<path fill="#010101" d="M59.723,38.639c13.976,9.98,64.876,4.323,66.593,4.599l-0.244,1.553
		c-0.412-0.064-40.229,1.812-54.309,0.358C66.329,44.583,59.723,38.639,59.723,38.639z"/>
	<path fill="#0A2014" d="M117.63,35.539c-0.182,0.454-1.416,0.567-2.682,0.062c-1.269-0.506-2.146-1.289-1.965-1.742
		c0.182-0.456,1.354-0.414,2.623,0.097C116.874,34.462,117.811,35.084,117.63,35.539L117.63,35.539z"/>
	<path fill="#010101" d="M66.092,91.382c-0.025-0.28-1.146-5.724,2.66-13.257l-0.087,1.062c-2.729,6.388-1.646,12.119-1.639,12.185
		L66.092,91.382z"/>
</g>
<g id="front" display="none">
	<path display="inline" fill="#3BB34A" stroke="#010101" d="M7.916,101.932l85.101,0.119c0.396-0.379,0.688-0.83,0.886-1.33
		c0.183-0.463,3.659,0.271,3.688-0.258c0.143-2.787,3.1-10.297-4.804-11.102c-0.758,0.117-3.021,2.385-3.148,2.34
		c-1.133-0.432-2.36-0.359-3.546,0.471c-4.939,3.463-19.519,2.701-19.519,2.701l0.056-3.951
		c27.867,0.065,49.528-12.768,51.961-44.028c3.333-0.94,2.981-3.565,2.981-3.565c0.011-8.875-9.828-18.737-9.828-18.737
		c5.103-4.803,7.269-20.137-7.726-23.172c0,0-11.006-3.54-16.593,10.104c-3.579-7.569-9.413-10.689-16.888-9.801
		c0,0-13.691,2.731-10.673,16.019c0,0-22.132,8.778-30.429,15.599L7.916,101.932z M92.893,101.694c0,0,1.918-9.252-4.446-10.242"/>
	<g display="inline">
		<path d="M66.334,90.818c-0.031-0.273-0.619-6.252,3.191-13.729l-0.082,1.055c-2.73,6.333-1.541,12.448-1.532,12.512L66.334,90.818
			L66.334,90.818z"/>
	</g>
	<path display="inline" fill="#FFFFFF" d="M66.897,90.63c10.775-0.611,37.834,0.033,48.431-29.686c0,0-24.677-0.768-29.189,0.214
		C81.628,62.128,66.052,72.657,66.897,90.63z"/>
	<path display="inline" fill="none" stroke="#000000" stroke-width="3" d="M109.946,24.637c0,0-11.303-6.086-21.144-7.328"/>
	<path display="inline" fill="none" stroke="#000000" stroke-width="4" d="M88.335,11.059c0,0,0.805,2.347,0.768,6.167"/>
	<path display="inline" fill="none" stroke="#000000" d="M87.817,91.398"/>
	<path display="inline" fill="none" stroke="#000000" d="M93.046,101.847"/>
	<path display="inline" fill="#FFFFFF" stroke="#000000" d="M86.983,13.831c0.957,7.396-4.373,14.156-11.902,15.095
		c-7.528,0.938-14.407-4.297-15.361-11.694c-0.956-7.397,4.372-14.155,11.9-15.095C79.149,1.198,86.028,6.434,86.983,13.831z"/>
	<path display="inline" d="M76.584,15.267c0.268,2.065-0.732,3.891-2.233,4.077c-1.502,0.188-2.938-1.334-3.202-3.398
		c-0.266-2.065,0.734-3.891,2.235-4.078C74.885,11.681,76.317,13.203,76.584,15.267z"/>
	<path display="inline" fill="#39B24A" stroke="#000000" d="M60.202,15.55c0,0,17.127-5.786,26.971-2.672
		c0,0-3.389-12.996-16.137-10.617C58.29,4.639,60.202,15.55,60.202,15.55z"/>
	<path display="inline" fill="#082014" d="M85.508,37.514c-0.133,0.588-1.068,0.734-2.041,0.074
		c-0.972-0.661-1.648-1.672-1.515-2.259c0.132-0.588,1.023-0.531,1.998,0.13C84.919,36.119,85.641,36.928,85.508,37.514z"/>
	<path display="inline" fill="#082014" d="M92.37,37.905c-0.604-0.103-0.797-1.014-0.178-2c0.625-0.984,1.614-1.701,2.221-1.601
		c0.604,0.101,0.592,0.98-0.03,1.966C93.76,37.256,92.975,38.005,92.37,37.905z"/>
	<path display="inline" fill="#FFFFFF" stroke="#000000" d="M114.803,17.33c-1.26,7.353-8.348,12.312-15.832,11.075
		c-7.485-1.237-12.532-8.2-11.272-15.555c1.256-7.353,8.347-12.312,15.832-11.073C111.015,3.012,116.061,9.977,114.803,17.33z"/>
	<path display="inline" d="M104.424,15.755c-0.353,2.051-1.847,3.516-3.337,3.27c-1.491-0.246-2.419-2.11-2.065-4.162
		c0.352-2.054,1.848-3.518,3.338-3.271C103.851,11.84,104.776,13.703,104.424,15.755z"/>
	<path display="inline" fill="#39B24A" stroke="#000000" d="M88.657,11.379c0,0,18.099-0.681,26.604,5.091
		c0,0,0.576-13.401-12.327-14.74C90.032,0.39,88.657,11.379,88.657,11.379z"/>
	<g id="mouth1" display="inline">
		<path d="M54.523,40.528c19.933,11.822,57.925,6.129,65.773,3.205l-1.855,2.577c-7.05,1.731-20.641,7.893-49.854,1.483
			C60.409,45.999,54.523,40.528,54.523,40.528z"/>
	</g>
	<g id="mouth2" display="inline">
		<g>
			<path d="M54.366,39.753c9.689,11.807,51.952,9.822,66.052,3.409l-1.82,2.604c-0.804,1.288-2.316,1.062-5.689,3.242
				c-0.268,0.171-0.688,2.544-5.104,5.396c-3.843,2.479-19.492,4.688-29.774,0.335c-4.797-2.031-6-3.462-10.377-4.786
				C58.617,47.223,54.366,39.753,54.366,39.753z"/>
		</g>
		<path fill="#ED174B" d="M78.794,53.167c0,0,3.199,2.062,10.871,2.44c12.168,0.606,16.517-2.469,12.908-3.037
			c0,0-2.401-1.524-8.475-0.92C86.553,52.405,78.794,53.167,78.794,53.167z"/>
	</g>
</g>
<path id="leg" fill="#3BB34A" stroke="#010101" d="M28.29,32.517c0,0,17.609,18.26,6.015,59.807c0,0,7.587,3.935,14.881-0.165
	c0.912-0.515,2.812-2.236,4.527-1.074c0.393,0.266,0.777,0.494,1.155,0.701c1.364,0.737,2.603-3.351,3.668-3.114
	c3.94,0.873,6.922,9.623,0.747,13.161L7.83,101.949c0,0-2.461-2.72-4.491-3.099c0,0-1.773-4.469-1.655-13.188
	c0.243-17.876,5.427-43.34,20.37-57.104C22.055,28.559,25.261,28.902,28.29,32.517L28.29,32.517z"/>
</svg>
