<?xml version="1.0" encoding="utf-8"?>
<!-- Generator: Adobe Illustrator 16.0.4, SVG Export Plug-In . SVG Version: 6.00 Build 0)  -->
<!DOCTYPE svg PUBLIC "-//W3C//DTD SVG 1.1//EN" "http://www.w3.org/Graphics/SVG/1.1/DTD/svg11.dtd">
<svg version="1.1" id="Layer_1" xmlns="http://www.w3.org/2000/svg" xmlns:xlink="http://www.w3.org/1999/xlink" x="0px" y="0px"
	 width="253.672px" height="541.796px" viewBox="0 0 253.672 541.796" enable-background="new 0 0 253.672 541.796"
	 xml:space="preserve">
<g id="stick">
	<g>
		<path fill="#B4862D" d="M58.206,541.568V8.098c0-4.181-4.447-7.568-9.936-7.568c-5.487,0-9.936,3.39-9.936,7.568v533.47H58.206
			L58.206,541.568z"/>
		<path fill="#1D1C1A" d="M58.106,541.466l-0.42-68.309l-0.244-68.41l-0.108-68.408c-0.067-22.803,0.028-45.604,0.037-68.407
			l0.478-136.819l0.057-34.205l-0.072-34.206l-0.076-34.205l-0.037-17.104l-0.006-2.139l-0.004-1.068
			c-0.021-0.276-0.021-0.723-0.09-1.004c-0.083-0.604-0.357-1.242-0.654-1.816c-0.343-0.562-0.736-1.104-1.229-1.562
			c-1.947-1.865-4.748-2.748-7.467-2.748c-2.72,0.014-5.513,0.908-7.441,2.775c-0.956,0.926-1.65,2.105-1.854,3.385
			c-0.068,0.32-0.058,0.635-0.081,0.971l0.003,1.069l0.007,2.138l0.054,17.104l0.108,34.204l0.19,68.41l0.117,136.816l-0.038,68.41
			l-0.22,68.41l-0.226,68.408l-0.122,34.205l-0.211,34.205l-0.223-0.227L58.106,541.466z M58.305,541.667l-19.97,0.123l-0.221,0.002
			l-0.001-0.225l-0.211-34.205l-0.122-34.205l-0.226-68.41l-0.22-68.408l-0.038-68.409l0.117-136.817l0.19-68.41l0.108-34.204
			l0.054-17.103l0.007-2.14l0.003-1.067c0.024-0.371,0.021-0.777,0.103-1.155c0.258-1.551,1.101-2.932,2.192-3.979
			c2.209-2.109,5.257-3.041,8.201-3.049c2.943,0.021,5.983,0.965,8.174,3.075c1.084,1.06,1.908,2.399,2.162,3.986
			c0.08,0.414,0.066,0.688,0.094,1.121l-0.002,1.067l-0.006,2.14l-0.037,17.103l-0.077,34.203l-0.072,34.204l0.058,34.205
			l0.477,136.819c0.01,22.804,0.105,45.604,0.037,68.409l-0.109,68.408l-0.244,68.41L58.305,541.667z"/>
	</g>
	<path opacity="0.8" fill="#8E5824" enable-background="new    " d="M52.387,2.043v539.525h5.394V8.098
		C57.781,3.919,57.875,2.043,52.387,2.043z"/>
	<path opacity="0.1" fill="#FFFFFF" enable-background="new    " d="M45.244,1.043v539.525h-6.908V7.098
		C38.335,2.919,39.754,1.043,45.244,1.043z"/>
</g>
<g id="move">
	<g id="hand1" display="none">
		<path display="inline" fill="#000100" d="M83.161,290.5c-0.412,0.146,6.25,1.188,7.155-4.688c0.572-3.705-3.547-9.389-3.717-9.646
			c-0.621-0.955-1.563-1.924-2.938-3.479c-0.706-0.8-3.401,0.646-5.75,1.562c-0.72,0.275-2.249,0.912-1.708,2.353
			c0.314,0.836,1.341,1.084,2.958,0.397l3.138-1.062l0.926,1.791L83.161,290.5z"/>
		<path display="inline" fill="none" stroke="#000100" stroke-width="4.252" stroke-linecap="round" stroke-linejoin="round" d="
			M127.87,240.493c0,0-0.253,38.745-5.253,46.745c-5.934,9.492-34.691-3.576-34.691-3.576"/>
		<g id="rope_4_" display="inline">
			<g>
				<g>
					<path fill="none" stroke="#7B2E00" stroke-width="5" stroke-linecap="round" stroke-linejoin="round" d="M49.507,43.241
						c0,0,0.799-0.021,2.104,0.249"/>
					
						<path fill="none" stroke="#7B2E00" stroke-width="5" stroke-linecap="round" stroke-linejoin="round" stroke-dasharray="5.024,5.024" d="
						M55.62,44.885c6.685,3.256,16.659,12.961,18.17,41.863c3.44,65.766,11.651,196.509,8.878,261.257
						c-3.902,91.105-68.168,92.369-65.469,0c1.636-55.938,11.085-216.063,9.407-266.067c-0.862-25.682,9.598-34.862,15.544-37.993"
						/>
					<path fill="none" stroke="#7B2E00" stroke-width="5" stroke-linecap="round" stroke-linejoin="round" d="M44.091,43.049
						c1.241-0.488,2.016-0.63,2.016-0.63"/>
				</g>
			</g>
		</g>
		<g display="inline">
			
				<line fill="none" stroke="#000000" stroke-width="3" stroke-linecap="round" stroke-linejoin="round" stroke-miterlimit="10" x1="77.898" y1="278.846" x2="81.898" y2="278.557"/>
			
				<line fill="none" stroke="#000000" stroke-width="3" stroke-linecap="round" stroke-linejoin="round" stroke-miterlimit="10" x1="77.898" y1="282.846" x2="83.23" y2="282.557"/>
			
				<line fill="none" stroke="#000000" stroke-width="3" stroke-linecap="round" stroke-linejoin="round" stroke-miterlimit="10" x1="77.898" y1="286.18" x2="81.898" y2="285.889"/>
			
				<line fill="none" stroke="#000000" stroke-width="3" stroke-linecap="round" stroke-linejoin="round" stroke-miterlimit="10" x1="79.314" y1="289.125" x2="81.814" y2="288.943"/>
		</g>
	</g>
	<g id="hand2" display="none">
		<path display="inline" fill="#000100" d="M82.302,253.714c-0.412,0.147,6.25,1.188,7.155-4.688
			c0.572-3.706-3.547-9.388-3.717-9.646c-0.621-0.954-1.563-1.923-2.938-3.479c-0.707-0.8-3.402,0.646-5.75,1.562
			c-0.72,0.28-2.25,0.912-1.709,2.351c0.314,0.837,1.342,1.084,2.959,0.399l3.137-1.059l0.927,1.791L82.302,253.714z"/>
		<path display="inline" fill="none" stroke="#000100" stroke-width="4.252" stroke-linecap="round" stroke-linejoin="round" d="
			M127.87,240.493c0,0-4.283,35.168-9.283,43.168c-5.933,9.488-30.075-34.291-30.075-34.291"/>
		<g id="rope_2_" display="inline">
			<g>
				<g>
					<g>
						
							<path fill="none" stroke="#7B2E00" stroke-width="5" stroke-linecap="round" stroke-linejoin="round" stroke-dasharray="2.1209" d="
							M49.507,42.241c0,0,0.799-0.021,2.104,0.249"/>
					</g>
					<g>
						<g>
							<path fill="none" stroke="#7B2E00" stroke-width="5" stroke-linecap="round" stroke-linejoin="round" d="M55.62,43.885
								c0.694,0.339,1.427,0.746,2.181,1.239"/>
							
								<path fill="none" stroke="#7B2E00" stroke-width="5" stroke-linecap="round" stroke-linejoin="round" stroke-dasharray="5.0265,5.0265" d="
								M61.661,48.323c5.506,5.638,11.035,16.501,12.129,37.425c3.44,65.766,11.651,196.509,8.878,261.257
								c-3.902,91.105-68.168,92.369-65.469,0c1.636-55.938,11.085-216.063,9.407-266.067c-0.683-20.354,5.746-30.344,11.402-35.17"
								/>
							<path fill="none" stroke="#7B2E00" stroke-width="5" stroke-linecap="round" stroke-linejoin="round" d="M40,44.239
								c0.758-0.521,1.481-0.944,2.148-1.296"/>
						</g>
					</g>
					<g>
						
							<path fill="none" stroke="#7B2E00" stroke-width="5" stroke-linecap="round" stroke-linejoin="round" stroke-dasharray="2.1138" d="
							M44.091,42.049c1.241-0.488,2.016-0.63,2.016-0.63"/>
					</g>
				</g>
			</g>
		</g>
		<g display="inline">
			
				<line fill="none" stroke="#000000" stroke-width="3" stroke-linecap="round" stroke-linejoin="round" stroke-miterlimit="10" x1="77.039" y1="239.493" x2="81.039" y2="239.205"/>
			
				<line fill="none" stroke="#000000" stroke-width="3" stroke-linecap="round" stroke-linejoin="round" stroke-miterlimit="10" x1="77.039" y1="243.493" x2="82.372" y2="243.205"/>
			
				<line fill="none" stroke="#000000" stroke-width="3" stroke-linecap="round" stroke-linejoin="round" stroke-miterlimit="10" x1="77.039" y1="246.826" x2="81.039" y2="246.537"/>
			
				<line fill="none" stroke="#000000" stroke-width="3" stroke-linecap="round" stroke-linejoin="round" stroke-miterlimit="10" x1="78.456" y1="249.771" x2="80.956" y2="249.592"/>
		</g>
	</g>
	<g id="hand3" display="none">
		<path display="inline" fill="#000100" d="M80.302,216.146c-0.412,0.146,6.25,1.188,7.155-4.688
			c0.572-3.706-3.547-9.387-3.717-9.646c-0.621-0.954-1.563-1.924-2.938-3.479c-0.707-0.799-3.402,0.647-5.75,1.563
			c-0.72,0.279-2.25,0.912-1.709,2.35c0.314,0.837,1.342,1.084,2.959,0.4l3.137-1.06l0.927,1.791L80.302,216.146z"/>
		<path display="inline" fill="none" stroke="#000100" stroke-width="4.252" stroke-linecap="round" stroke-linejoin="round" d="
			M127.87,240.493c0,0-4.449,25.655-9.449,33.655c-5.933,9.492-33.25-62.467-33.25-62.467"/>
		<g id="rope_3_" display="inline">
			<g>
				<g>
					<path fill="none" stroke="#7B2E00" stroke-width="5" stroke-linecap="round" stroke-linejoin="round" d="M49.507,43.241
						c0,0,0.799-0.021,2.104,0.249"/>
					
						<path fill="none" stroke="#7B2E00" stroke-width="5" stroke-linecap="round" stroke-linejoin="round" stroke-dasharray="5.024,5.024" d="
						M55.62,44.885c6.685,3.256,16.659,12.961,18.17,41.863c3.44,65.766,11.651,196.509,8.878,261.257
						c-3.902,91.105-68.168,92.369-65.469,0c1.636-55.938,11.085-216.063,9.407-266.067c-0.862-25.682,9.598-34.862,15.544-37.993"
						/>
					<path fill="none" stroke="#7B2E00" stroke-width="5" stroke-linecap="round" stroke-linejoin="round" d="M44.091,43.049
						c1.241-0.488,2.016-0.63,2.016-0.63"/>
				</g>
			</g>
		</g>
		<g display="inline">
			
				<line fill="none" stroke="#000000" stroke-width="3" stroke-linecap="round" stroke-linejoin="round" stroke-miterlimit="10" x1="75.039" y1="203.493" x2="79.039" y2="203.205"/>
			
				<line fill="none" stroke="#000000" stroke-width="3" stroke-linecap="round" stroke-linejoin="round" stroke-miterlimit="10" x1="75.039" y1="207.493" x2="80.372" y2="207.205"/>
			
				<line fill="none" stroke="#000000" stroke-width="3" stroke-linecap="round" stroke-linejoin="round" stroke-miterlimit="10" x1="75.039" y1="210.826" x2="79.039" y2="210.537"/>
			
				<line fill="none" stroke="#000000" stroke-width="3" stroke-linecap="round" stroke-linejoin="round" stroke-miterlimit="10" x1="76.456" y1="213.771" x2="78.956" y2="213.592"/>
		</g>
	</g>
	<g id="hand4" display="none">
		<path display="inline" fill="#000100" d="M90.845,207.862c0.033,4.551-2.264,8.351-5.004,9.375
			c-3.514,1.313-9.013-2.239-9.3-2.363l-12.425-8.925c-0.71-0.294-0.992-1.11-0.627-1.826c0.367-0.714,1.24-1.055,1.951-0.764
			l11.979,8.74l0.907-0.238l-14.585-21.729c-0.467-0.593-0.316-1.475,0.336-1.975c0.388-0.298,0.863-0.393,1.291-0.296
			c0.286,0.062,0.545,0.216,0.734,0.455l15.32,22.356c0.104,0.134,0.172,0.294,0.213,0.454c0.418-0.062,0.799-0.139,1.139-0.219
			L66.556,183.84c-0.385-0.645-0.125-1.512,0.578-1.936c0.363-0.223,0.776-0.283,1.139-0.198c0.341,0.077,0.646,0.28,0.832,0.591
			l16.125,26.915c0.594-1.271,0.399-0.077,0.192-0.683l-11.798-23.021c-0.307-0.688-0.107-1.57,0.633-1.922
			c0.33-0.156,0.68-0.191,0.998-0.116c0.393,0.088,0.729,0.341,0.896,0.72l10.984,22.018l0.68-0.201l-6.195-17.039
			c-0.148-0.682-0.037-0.959,0.686-1.163c0.234-0.064,0.469-0.067,0.682-0.021c0.443,0.103,0.796,0.426,0.898,0.889
			C83.884,188.678,90.898,207.301,90.845,207.862z"/>
		<path display="inline" fill="none" stroke="#000100" stroke-width="4.252" stroke-linecap="round" stroke-linejoin="round" d="
			M127.87,240.493c0,0-4.449,25.655-9.449,33.655c-5.933,9.492-33.25-62.467-33.25-62.467"/>
		<g id="rope_5_" display="inline">
			<g>
				<g>
					<path fill="none" stroke="#7B2E00" stroke-width="5" stroke-linecap="round" stroke-linejoin="round" d="M49.507,43.241
						c0,0,0.799-0.021,2.104,0.249"/>
					
						<path fill="none" stroke="#7B2E00" stroke-width="5" stroke-linecap="round" stroke-linejoin="round" stroke-dasharray="5.024,5.024" d="
						M55.62,44.885c6.685,3.256,16.659,12.961,18.17,41.863c3.44,65.766,11.651,196.509,8.878,261.257
						c-3.902,91.105-68.168,92.369-65.469,0c1.636-55.938,11.085-216.063,9.407-266.067c-0.862-25.682,9.598-34.862,15.544-37.993"
						/>
					<path fill="none" stroke="#7B2E00" stroke-width="5" stroke-linecap="round" stroke-linejoin="round" d="M44.091,43.049
						c1.241-0.488,2.016-0.63,2.016-0.63"/>
				</g>
			</g>
		</g>
	</g>
	<g id="hand5" display="none">
		<path display="inline" fill="#000100" d="M89.833,242.579c1.443,4.315,0.438,8.642-1.85,10.465
			c-2.932,2.341-9.262,0.668-9.572,0.64l-14.582-4.629c-0.766-0.06-1.287-0.748-1.162-1.541c0.128-0.793,0.854-1.389,1.618-1.332
			l14.099,4.593l0.789-0.509l-20.607-16.129c-0.627-0.42-0.758-1.306-0.293-1.979c0.277-0.404,0.699-0.642,1.136-0.683
			c0.291-0.028,0.585,0.035,0.84,0.205l21.501,16.5c0.141,0.095,0.254,0.226,0.344,0.364c0.375-0.188,0.717-0.38,1.014-0.562
			l-23.816-20.699c-0.564-0.493-0.588-1.398-0.052-2.021c0.276-0.324,0.651-0.511,1.022-0.541c0.348-0.033,0.701,0.064,0.973,0.303
			l23.681,20.583c0.17-1.395,0.356-0.198-0.028-0.709l-18.357-18.224c-0.506-0.56-0.59-1.459,0.005-2.022
			c0.265-0.251,0.587-0.396,0.913-0.421c0.4-0.038,0.798,0.097,1.074,0.406l17.274,17.521l0.584-0.401L75.202,227.48
			c-0.354-0.602-0.333-0.898,0.29-1.318c0.204-0.135,0.425-0.21,0.643-0.23c0.453-0.04,0.889,0.158,1.131,0.565
			C77.263,226.501,89.708,242.027,89.833,242.579z"/>
		<path display="inline" fill="none" stroke="#000100" stroke-width="4.252" stroke-linecap="round" stroke-linejoin="round" d="
			M127.87,240.493c0,0-4.283,35.168-9.283,43.168c-5.933,9.488-30.647-32.928-30.647-32.928"/>
		<g id="rope_6_" display="inline">
			<g>
				<g>
					<path fill="none" stroke="#7B2E00" stroke-width="5" stroke-linecap="round" stroke-linejoin="round" d="M49.507,43.241
						c0,0,0.799-0.021,2.104,0.249"/>
					
						<path fill="none" stroke="#7B2E00" stroke-width="5" stroke-linecap="round" stroke-linejoin="round" stroke-dasharray="5.024,5.024" d="
						M55.62,44.885c6.685,3.256,16.659,12.961,18.17,41.863c3.44,65.766,11.651,196.509,8.878,261.257
						c-3.902,91.105-68.168,92.369-65.469,0c1.636-55.938,11.085-216.063,9.407-266.067c-0.862-25.682,9.598-34.862,15.544-37.993"
						/>
					<path fill="none" stroke="#7B2E00" stroke-width="5" stroke-linecap="round" stroke-linejoin="round" d="M44.091,43.049
						c1.241-0.488,2.016-0.63,2.016-0.63"/>
				</g>
			</g>
		</g>
	</g>
	<g id="hand6" display="none">
		<path display="inline" fill="#000100" d="M91.631,276.589c3.735,2.601,5.511,6.668,4.767,9.498
			c-0.954,3.627-7.03,6.062-7.297,6.229L74.64,297.31c-0.648,0.406-1.479,0.17-1.853-0.543c-0.37-0.711-0.146-1.621,0.503-2.033
			l14.051-4.736l0.329-0.877l-26.161-0.633c-0.755,0.037-1.389-0.594-1.42-1.414c-0.018-0.488,0.18-0.932,0.504-1.227
			c0.217-0.195,0.49-0.32,0.797-0.34l27.099,0.396c0.169-0.011,0.338,0.026,0.493,0.089c0.188-0.377,0.35-0.732,0.479-1.061
			l-31.465-2.379c-0.748-0.061-1.308-0.771-1.248-1.592c0.028-0.426,0.218-0.797,0.497-1.045c0.26-0.23,0.602-0.363,0.961-0.338
			l31.286,2.366c-0.695-1.221,0.168-0.368-0.446-0.553l-25.607-3.654c-0.739-0.146-1.346-0.815-1.205-1.625
			c0.062-0.356,0.236-0.663,0.482-0.883c0.297-0.271,0.696-0.396,1.104-0.313l24.319,3.735l0.229-0.672l-17.49-4.772
			c-0.645-0.271-0.804-0.521-0.555-1.229c0.083-0.229,0.215-0.425,0.377-0.567c0.34-0.305,0.809-0.406,1.244-0.224
			C71.947,271.198,91.203,276.221,91.631,276.589z"/>
		<g id="rope_1_" display="inline">
			<g>
				<g>
					<path fill="none" stroke="#7B2E00" stroke-width="5" stroke-linecap="round" stroke-linejoin="round" d="M49.507,43.241
						c0,0,0.799-0.021,2.104,0.249"/>
					
						<path fill="none" stroke="#7B2E00" stroke-width="5" stroke-linecap="round" stroke-linejoin="round" stroke-dasharray="5.024,5.024" d="
						M55.62,44.885c6.685,3.256,16.659,12.961,18.17,41.863c3.44,65.766,11.651,196.509,8.878,261.257
						c-3.902,91.105-68.168,92.369-65.469,0c1.636-55.938,11.085-216.063,9.407-266.067c-0.862-25.682,9.598-34.862,15.544-37.993"
						/>
					<path fill="none" stroke="#7B2E00" stroke-width="5" stroke-linecap="round" stroke-linejoin="round" d="M44.091,43.049
						c1.241-0.488,2.016-0.63,2.016-0.63"/>
				</g>
			</g>
		</g>
		<path display="inline" fill="none" stroke="#000100" stroke-width="4.252" stroke-linecap="round" stroke-linejoin="round" d="
			M127.87,240.493c0,0-0.253,38.745-5.253,46.745c-5.934,9.492-34.691-3.576-34.691-3.576"/>
	</g>
</g>
<g id="startrope">
	<g>
		<g>
			<path fill="none" stroke="#7B2E00" stroke-width="5" stroke-linecap="round" stroke-linejoin="round" d="M49.508,43.241
				c0,0,0.799-0.021,2.104,0.249"/>
			
				<path fill="none" stroke="#7B2E00" stroke-width="5" stroke-linecap="round" stroke-linejoin="round" stroke-dasharray="5.024,5.024" d="
				M55.621,44.885c6.685,3.256,16.659,12.961,18.17,41.863c3.44,65.766,11.651,196.509,8.878,261.257
				c-3.902,91.105-68.168,92.369-65.469,0c1.636-55.938,11.085-216.063,9.407-266.067c-0.862-25.682,9.598-34.862,15.544-37.993"/>
			<path fill="none" stroke="#7B2E00" stroke-width="5" stroke-linecap="round" stroke-linejoin="round" d="M44.092,43.049
				c1.241-0.488,2.016-0.63,2.016-0.63"/>
		</g>
	</g>
</g>
<g id="wheel2">
	<path stroke="#000000" stroke-miterlimit="10" d="M48.474,367.615c11.173,0,21.198,7.883,23.793,18.76
		c2.614,10.951-2.805,22.562-12.87,27.594c-10.097,5.053-22.685,2.338-29.838-6.377c-7.16-8.719-7.331-21.616-0.4-30.521
		C33.765,371.146,40.971,367.615,48.474,367.615z"/>
	<g>
		<path fill="#FF3C00" stroke="#000000" stroke-width="2" stroke-miterlimit="10" d="M48.144,344.438
			c-22.386,0-42.193,16.601-46.061,38.662c-1.927,10.983,0.18,22.489,5.91,32.058c5.536,9.242,14.252,16.434,24.396,20.078
			c10.526,3.777,22.318,3.611,32.734-0.457c10.032-3.924,18.545-11.352,23.82-20.736c5.47-9.729,7.256-21.316,5.013-32.254
			c-2.178-10.617-8.135-20.285-16.581-27.062C69.124,348.099,58.728,344.438,48.144,344.438z M85.337,378.83
			c-10.126,2.313-20.253,4.625-30.378,6.938c4.509-9.354,9.017-18.714,13.526-28.067C76.366,362.498,82.416,370.076,85.337,378.83z
			 M61.677,354.41c-4.512,9.361-9.021,18.723-13.533,28.082c-4.512-9.359-9.021-18.721-13.534-28.082
			C43.28,351.205,53.009,351.205,61.677,354.41z M27.806,357.699c4.509,9.356,9.017,18.715,13.526,28.069
			c-10.126-2.313-20.252-4.625-30.378-6.937C13.872,370.076,19.923,362.498,27.806,357.699z M9.271,386.205
			c10.126,2.312,20.254,4.625,30.381,6.938c-8.118,6.474-16.236,12.944-24.354,19.425C10.233,404.802,8.094,395.396,9.271,386.205z
			 M20.02,418.471c8.115-6.472,16.23-12.947,24.345-19.421c0,10.393,0,20.777,0,31.168C35.16,429.335,26.455,425.105,20.02,418.471z
			 M51.925,430.218c0-10.391,0-20.775,0-31.168C60.04,405.524,68.156,412,76.27,418.471
			C69.835,425.105,61.131,429.335,51.925,430.218z M80.991,412.564c-8.117-6.475-16.237-12.949-24.353-19.425
			c10.126-2.312,20.254-4.624,30.379-6.937C88.194,395.393,86.056,404.803,80.991,412.564z"/>
	</g>
</g>
<g id="wheel1">
	<path stroke="#000000" stroke-width="2" stroke-miterlimit="10" d="M48.736,42.107c10.538,0,18.921,9.503,17.641,19.957
		c-1.276,10.434-11.733,17.595-21.926,15.071C35.827,75.001,30.017,66.506,31.094,57.7C32.17,48.904,39.884,42.107,48.736,42.107z"
		/>
	<g>
		<path fill="#FF3C00" stroke="#000000" stroke-width="2" stroke-miterlimit="10" d="M49.235,25.207
			c-10.103,0-19.856,4.533-26.403,12.223c-6.62,7.774-9.499,18.277-7.77,28.342c1.69,9.836,7.733,18.625,16.264,23.792
			c8.764,5.309,19.701,6.443,29.372,3.047c9.371-3.29,17.047-10.65,20.742-19.866c3.816-9.516,3.151-20.506-1.781-29.491
			C73.617,32.247,61.797,25.207,49.235,25.207z M76.813,50.711c-7.51,1.712-15.016,3.427-22.524,5.139
			c3.342-6.938,6.685-13.875,10.028-20.812C70.162,38.6,74.646,44.217,76.813,50.711z M59.271,32.6
			c-3.346,6.941-6.69,13.885-10.035,20.825C45.891,46.482,42.547,39.54,39.202,32.6C45.632,30.229,52.84,30.229,59.271,32.6z
			 M34.155,35.04c3.343,6.938,6.686,13.875,10.028,20.812c-7.508-1.711-15.016-3.427-22.524-5.139
			C23.824,44.217,28.311,38.601,34.155,35.04z M20.412,56.176c7.509,1.714,15.018,3.431,22.527,5.144
			c-6.019,4.8-12.038,9.601-18.057,14.402C21.13,69.969,19.539,62.986,20.412,56.176z M28.382,80.101
			c6.017-4.799,12.035-9.599,18.052-14.398c0,7.704,0,15.406,0,23.11C39.609,88.156,33.152,85.021,28.382,80.101z M52.039,88.812
			c0-7.704,0-15.406,0-23.11c6.018,4.8,12.035,9.599,18.053,14.4C65.32,85.02,58.864,88.156,52.039,88.812z M73.591,75.723
			c-6.018-4.801-12.037-9.602-18.057-14.402c7.509-1.713,15.018-3.428,22.527-5.143C78.932,62.988,77.346,69.967,73.591,75.723z"/>
	</g>
</g>
<g id="mom" display="none">
	<g id="starthand" display="inline">
		<path fill="#000100" d="M111.366,343.062c2.201-3.982,6.066-6.168,8.958-5.717c3.706,0.572,6.757,6.365,6.946,6.613l6.455,13.871
			c0.479,0.604,0.319,1.453-0.351,1.896c-0.67,0.438-1.599,0.312-2.076-0.291l-6.153-13.489l-0.907-0.234l2.061,26.088
			c0.115,0.746-0.448,1.441-1.261,1.562c-0.484,0.062-0.943-0.082-1.271-0.375c-0.218-0.193-0.369-0.453-0.416-0.76l-2.394-26.996
			c-0.024-0.168-0.007-0.34,0.037-0.5c-0.396-0.146-0.767-0.271-1.101-0.363l0.867,31.543c0.019,0.75-0.633,1.379-1.453,1.4
			c-0.427,0.02-0.815-0.139-1.092-0.391c-0.258-0.229-0.425-0.562-0.434-0.922l-0.86-31.359c-1.141,0.812-0.387-0.133-0.503,0.5
			l-1.003,25.848c-0.067,0.75-0.676,1.426-1.492,1.365c-0.364-0.021-0.688-0.166-0.928-0.393c-0.299-0.271-0.47-0.648-0.429-1.062
			l1.219-24.57l-0.691-0.158l-2.951,17.892c-0.205,0.668-0.438,0.854-1.166,0.678c-0.238-0.062-0.443-0.17-0.605-0.312
			c-0.336-0.312-0.484-0.762-0.348-1.215C108.026,363.197,111.043,343.527,111.366,343.062z"/>
		<path fill="none" stroke="#000100" stroke-width="4.252" stroke-linecap="round" stroke-linejoin="round" d="M129.805,235.051
			c0,0-6.892,41.488-8.593,55.143c-1.382,11.106-1.928,49.097-1.928,49.097"/>
	</g>
	<path display="inline" fill="#000100" d="M246.648,342.46c-2.195-3.981-6.062-6.17-8.959-5.717
		c-3.703,0.572-6.752,6.365-6.941,6.611l-6.453,13.871c-0.479,0.604-0.324,1.453,0.348,1.896c0.67,0.438,1.604,0.312,2.072-0.291
		l6.156-13.485l0.908-0.234l-2.062,26.091c-0.115,0.741,0.447,1.438,1.264,1.555c0.482,0.07,0.941-0.082,1.271-0.375
		c0.221-0.191,0.371-0.454,0.42-0.758l2.396-26.996c0.021-0.168,0.007-0.34-0.034-0.5c0.396-0.146,0.765-0.271,1.101-0.365
		l-0.863,31.543c-0.021,0.75,0.633,1.379,1.449,1.402c0.428,0.02,0.816-0.138,1.092-0.388c0.266-0.233,0.427-0.562,0.438-0.924
		l0.854-31.36c1.146,0.812,0.395-0.127,0.504,0.502l1.004,25.846c0.068,0.75,0.68,1.424,1.49,1.365
		c0.361-0.023,0.688-0.166,0.931-0.392c0.304-0.271,0.47-0.649,0.431-1.063l-1.218-24.572l0.688-0.158l2.948,17.895
		c0.203,0.668,0.437,0.854,1.166,0.679c0.236-0.062,0.439-0.171,0.604-0.312c0.33-0.312,0.479-0.767,0.35-1.219
		C249.992,362.596,246.975,342.923,246.648,342.46z"/>
	<path display="inline" fill="none" stroke="#000100" stroke-width="4.252" stroke-linecap="round" stroke-linejoin="round" d="
		M226.982,230.041c0,0,8.896,44.492,10.598,58.146c1.383,11.104,1.93,49.096,1.93,49.096"/>
	
		<line display="inline" fill="none" stroke="#000100" stroke-width="5.6693" stroke-linecap="round" stroke-linejoin="round" x1="160.58" y1="372.167" x2="158.02" y2="505.431"/>
	
		<line display="inline" fill="none" stroke="#000100" stroke-width="5.6693" stroke-linecap="round" stroke-linejoin="round" x1="197.753" y1="376.314" x2="197.734" y2="504.605"/>
	<g display="inline">
		<path fill="#000100" stroke="#000100" stroke-width="4.0304" d="M173.477,183.062c0-3.129-0.138-6.32-0.271-9.404
			c-0.129-3.128-0.271-6.357-0.271-9.564l0,0c0-1.211,1.207-0.184,2.688-0.184c1.482,0,2.688-1.027,2.688,0.184l0,0
			c0,3.135,0.135,6.326,0.271,9.414c0.135,3.123,0.271,6.352,0.271,9.557l0,0c0,1.209-1.201,2.186-2.688,2.186
			C174.68,185.248,173.477,184.271,173.477,183.062L173.477,183.062z"/>
	</g>
	<path display="inline" fill="#FF0000" stroke="#000000" stroke-width="2.8347" stroke-linecap="round" stroke-linejoin="round" d="
		M211.43,246.562c-0.621-7.807-2.354-4.334,1.87-5.772c1.408-0.479,3.841-2.062,6.601-3.605
		c13.353-7.472,16.104-9.163,17.134-14.147c-2.611-5.451-6.847-25.354-27.238-37.189c-5.172-3.001-19.562-8.906-28.951-11.822
		c-2.411,10.552-10.271,4.212-9.521-0.576c-4.438,2.135-29.596,10.499-37.424,16.176c-8.583,6.226-14.792,38.434-16.812,40.92
		c6.966,8.681,18.936,12.05,25.045,15.031c3.514-5.012,3.514-5.012,3.514-5.012c0.438,1.459,0.254,11.504,0,15.521
		c-3.192,50.573-12.729,189.807-13.602,192.252c2.004,0.418,93.941-0.139,97.414,0.713c0.338-2.912,0.17-5.73-0.102-8.586
		C226.223,406.589,215.88,302.535,211.43,246.562z"/>
	
		<line display="inline" fill="none" stroke="#000000" stroke-width="2.8347" stroke-linecap="round" stroke-linejoin="round" x1="207.895" y1="229.712" x2="210.873" y2="242.393"/>
	
		<line display="inline" fill="none" stroke="#000000" stroke-width="2.8347" stroke-linecap="round" stroke-linejoin="round" x1="147.855" y1="229.654" x2="145.416" y2="242.448"/>
	<g display="inline">
		<path id="skin" fill="none" stroke="#000100" stroke-width="3" stroke-miterlimit="10" d="M119.987,107.52
			c0,30.764,24.938,55.701,55.705,55.701c30.769,0,55.707-24.938,55.707-55.701c0-30.77-24.938-55.711-55.707-55.711
			C144.925,51.809,119.987,76.752,119.987,107.52z"/>
		<path fill="#000100" d="M159.816,31.514c36.707-6.596,49.053,10.347,49.904,10.889c14.734,9.353,21.072,16.756,26.176,29.053
			c0.342,0.82,1.166,3.143,1.465,3.956c4.221,9.784-0.623,9.165,2.09,13.368c0.645,1.115,0.1,4.646,0.096,5.154
			c-0.002,0.676-0.021,1.348-0.049,2.021c4.266,8.188-0.955,11.44-5.471,17.462c-0.502,0.501-0.299,3.77,0.635,4.98
			c-0.203,0.549-3.779,5.846-4.104,6.314c-3.289,4.751,2.545,12.756,2.672,12.388c0,0-10.037-3.607-5.646-18.336
			c-0.213-0.604-0.822-1.371-1.488-2.271c-4.906-5.828-4.955-10.235,0.611-14.858c1.822-1.518,1.602-4.952-1.922-10.437
			c0,0,1.314-10.858-4.016-7.314c-6.146,4.094,5.688,6.981,5.688,6.981s-8.357-0.038-8.938-2.822
			c-2.002-9.703,8.301-7.16-8.982-12.041c-5.938-1.671-16.408,2.737-13.152,0.479c4.926-3.41,5.99-8.697,5.99-8.697
			s-8.756,8.281-29.693,12.381c-6.395,1.246-22.178,1.178-31.756,8.178c-9.209,6.729-13.888,10.443-15.842,18.122
			c-0.375,1.478-2.479,9.366-3.221,10.576c0,0-7.184,13.815-4.637,2.501c1.444-6.438-5.889-13.02-5.092-22.964
			c-2.32-12.693,1.071-11.151,2.075-14.663c0.5-1.506,0.091-4.836,0.091-4.836c0.151-0.732,0.318-1.473,0.512-2.229
			c0.578-2.259,1.358-4.602,2.414-7.023c2.112-4.854,4.178-9.064,8.217-13.088c1.97-1.957,4.079-2.744,5.888-5.078
			c4.069-5.253,3.808-5.652,6.045-6.891c1.073-0.598,2.729-4.906,7.565-6.112C149.296,35.319,159.816,31.514,159.816,31.514z"/>
		<path fill="#000100" d="M122.365,117.04c-0.5,0.665-5.994,10.281-0.655,16.302c11.499,12.963,0,20.739,0,20.739
			s8.179-7.806-2.324-17.017c-10.537-9.241-2.22-14.646-1.719-23.96c0.385-7.123-6.578-19.703,0.211-25.505
			c9.446-8.076,19.517,0.342,8.4,12.357C121.257,105.393,122.365,117.04,122.365,117.04z"/>
		<circle fill="#000100" stroke="#000100" stroke-width="3" cx="190.279" cy="98.661" r="2.324"/>
		<circle fill="#000100" stroke="#000100" stroke-width="3" cx="161.083" cy="98.661" r="2.326"/>
		<g>
			<path fill="#000100" d="M169.066,147.312c-19.594-5.448-24.57-21.074-25.881-24.967l0,0c-0.266-0.75-0.045-1.668,0.479-2.039l0,0
				c0.525-0.377,1.17-0.072,1.436,0.684l0,0c1.354,3.759,5.479,17.895,24.377,23.327l0,0c1.854,0.522,3.812,0.794,5.825,0.794l0,0
				c11.472,0,24.243-8.659,28.571-25.981l0,0c0.193-0.792,0.811-1.205,1.357-0.918l0,0c0.559,0.278,0.846,1.151,0.646,1.945l0,0
				c-4.771,18.896-18.437,27.999-30.569,27.999l0,0C173.166,148.156,171.064,147.875,169.066,147.312L169.066,147.312z"/>
		</g>
	</g>
	<path display="inline" fill="#00CFFF" stroke="#000100" stroke-width="4.252" stroke-linecap="round" stroke-linejoin="round" d="
		M174.936,539.675c4.826-11.496-4.808-26.891-16.147-33.553c0,0-38.208,5.234-48.035,14.061c-7.196,6.467-7.815,13.613-3.923,19.49
		L174.936,539.675L174.936,539.675z"/>
	<polygon display="inline" fill="#000100" points="121.587,514.626 129.604,518.634 145.637,514.626 140.626,509.617 	"/>
	<polygon display="inline" fill="#000100" points="176.693,540.677 106.557,540.677 103.551,534.666 176.693,534.666 	"/>
	<path display="inline" fill="#00CFFF" stroke="#000100" stroke-width="4.252" stroke-linecap="round" stroke-linejoin="round" d="
		M181.066,539.675c-4.822-11.496,4.809-26.891,16.146-33.553c0,0,38.209,5.234,48.035,14.061c7.195,6.467,7.812,13.613,3.922,19.49
		L181.066,539.675L181.066,539.675z"/>
	<polygon display="inline" points="234.416,514.626 226.398,518.634 210.371,514.626 215.378,509.617 	"/>
	<polygon display="inline" points="179.311,540.677 250.839,540.677 252.453,534.666 179.311,534.666 	"/>
</g>
</svg>
