<?xml version="1.0" encoding="utf-8"?>
<!-- Generator: Adobe Illustrator 16.0.4, SVG Export Plug-In . SVG Version: 6.00 Build 0)  -->
<!DOCTYPE svg PUBLIC "-//W3C//DTD SVG 1.1//EN" "http://www.w3.org/Graphics/SVG/1.1/DTD/svg11.dtd">
<svg version="1.1" id="plate" xmlns="http://www.w3.org/2000/svg" xmlns:xlink="http://www.w3.org/1999/xlink" x="0px" y="0px"
	 width="566.703px" height="384.351px" viewBox="0 0 566.703 384.351" enable-background="new 0 0 566.703 384.351"
	 xml:space="preserve">
<ellipse cx="283.352" cy="193.872" rx="283.352" ry="190.479"/>
<g>
	<path fill="#EFEFEF" d="M565.104,190.294c0,104.294-126.143,188.84-281.752,188.84c-155.605,0-281.75-84.546-281.75-188.84
		c0-104.29,126.145-188.839,281.75-188.839C438.961,1.455,565.104,86.004,565.104,190.294z"/>
	<path d="M565.245,190.3c0,0-0.052,1.457-0.153,4.28c-0.05,1.412-0.113,3.165-0.188,5.248c-0.227,2.076-0.49,4.48-0.788,7.203
		c-0.202,2.738-0.912,5.719-1.496,9.032c-0.155,0.827-0.313,1.673-0.476,2.537c-0.153,0.867-0.435,1.724-0.653,2.614
		c-0.469,1.774-0.957,3.622-1.465,5.541c-0.441,1.939-1.225,3.852-1.882,5.879c-0.346,1.009-0.696,2.034-1.053,3.077
		c-0.351,1.046-0.708,2.108-1.179,3.146c-0.884,2.098-1.795,4.261-2.733,6.489c-0.438,1.128-1.017,2.211-1.572,3.323
		c-0.558,1.111-1.124,2.237-1.697,3.38c-4.688,9.074-10.716,18.717-18.397,28.367c-7.729,9.605-17.05,19.226-27.944,28.415
		c-21.769,18.39-49.82,35.055-82.672,47.449c-16.419,6.2-34.002,11.39-52.504,15.359c-18.499,3.994-37.947,6.57-58.009,7.823
		c-2.511,0.124-5.028,0.249-7.556,0.375c-2.527,0.119-5.061,0.283-7.608,0.286c-2.546,0.04-5.1,0.079-7.662,0.119
		c-1.281,0.021-2.564,0.04-3.849,0.061c-1.323,0-2.577-0.041-3.872-0.059c-2.57-0.053-5.149-0.105-7.735-0.158
		c-1.294-0.037-2.586-0.034-3.887-0.104c-1.301-0.071-2.603-0.144-3.907-0.216c-2.608-0.144-5.224-0.288-7.847-0.433l-1.968-0.109
		l-1.964-0.175c-1.31-0.117-2.622-0.234-3.936-0.352c-21.014-1.846-42.372-5.226-63.612-10.629
		c-2.645-0.712-5.295-1.425-7.952-2.139c-1.326-0.365-2.662-0.699-3.983-1.089l-3.955-1.218c-2.638-0.812-5.282-1.626-7.931-2.441
		c-2.618-0.909-5.241-1.82-7.868-2.733l-3.943-1.373c-1.311-0.47-2.6-1.003-3.903-1.503c-2.601-1.011-5.207-2.022-7.817-3.037
		c-2.589-1.065-5.151-2.21-7.734-3.313l-3.872-1.672c-1.284-0.575-2.543-1.206-3.817-1.808c-2.542-1.217-5.087-2.436-7.637-3.656
		c-2.499-1.321-5.001-2.645-7.507-3.969c-1.247-0.674-2.52-1.302-3.748-2.014l-3.681-2.146l-3.686-2.148
		c-1.23-0.716-2.468-1.42-3.654-2.211c-9.709-5.979-18.987-12.731-27.933-19.955c-2.19-1.864-4.383-3.729-6.578-5.596
		c-2.144-1.925-4.214-3.937-6.327-5.902c-2.151-1.931-4.089-4.079-6.104-6.153l-3.004-3.133c-0.979-1.065-1.898-2.187-2.851-3.277
		l-2.835-3.297l-1.418-1.649l-1.325-1.727c-1.753-2.312-3.56-4.589-5.271-6.937l-4.889-7.228c-1.563-2.453-2.983-5-4.482-7.499
		c-5.729-10.146-10.356-20.965-13.514-32.238c-3.167-11.267-4.849-22.975-4.935-34.713l0.301-8.771
		c0.005-0.728,0.076-1.458,0.167-2.19l0.241-2.194l0.482-4.389c0.091-0.729,0.14-1.467,0.265-2.19l0.402-2.163l0.805-4.326
		c0.442-2.906,1.326-5.71,2.039-8.554c3.087-11.314,7.647-22.195,13.328-32.411c1.492-2.512,2.905-5.074,4.462-7.543l4.871-7.274
		c1.706-2.363,3.508-4.655,5.256-6.984l1.322-1.738l1.415-1.661l2.83-3.321c0.951-1.099,1.868-2.229,2.846-3.302l3-3.157
		c2.012-2.091,3.948-4.257,6.096-6.203c2.111-1.983,4.18-4.011,6.322-5.952c2.193-1.883,4.385-3.766,6.575-5.646
		c1.078-0.961,2.221-1.839,3.361-2.722l3.409-2.656l3.409-2.649l3.522-2.485l3.52-2.482c1.176-0.822,2.33-1.676,3.551-2.426
		c2.412-1.546,4.822-3.091,7.228-4.634c1.19-0.793,2.432-1.499,3.666-2.216l3.697-2.154l3.692-2.151
		c1.231-0.714,2.508-1.344,3.758-2.019c2.513-1.328,5.023-2.655,7.529-3.979c2.557-1.224,5.109-2.445,7.658-3.665
		c1.278-0.603,2.541-1.235,3.828-1.812l3.882-1.675c2.59-1.106,5.159-2.252,7.755-3.32c2.618-1.013,5.231-2.025,7.84-3.035
		c1.308-0.497,2.602-1.028,3.917-1.495l3.956-1.365c2.636-0.907,5.267-1.812,7.894-2.717c2.656-0.809,5.308-1.617,7.955-2.424
		l3.966-1.208c1.325-0.387,2.665-0.718,3.994-1.08c2.663-0.708,5.321-1.415,7.973-2.12c21.292-5.37,42.703-8.639,63.747-10.384
		c1.315-0.111,2.629-0.223,3.941-0.333l1.966-0.166l1.968-0.099c2.623-0.132,5.238-0.264,7.846-0.396
		c1.304-0.065,2.605-0.131,3.906-0.196c1.3-0.063,2.601-0.054,3.898-0.085c2.595-0.042,5.183-0.085,7.763-0.127
		c1.3-0.016,2.554-0.054,3.887-0.051c1.282,0.022,2.561,0.045,3.838,0.067c2.556,0.044,5.103,0.089,7.642,0.134
		c2.534,0.007,5.079,0.177,7.611,0.301c2.532,0.13,5.057,0.261,7.571,0.39c20.078,1.289,39.521,3.917,58.024,7.93
		c18.504,3.991,36.086,9.201,52.503,15.419c32.846,12.427,60.896,29.097,82.664,47.496c10.895,9.192,20.216,18.814,27.945,28.421
		c7.683,9.652,13.709,19.297,18.395,28.374c0.573,1.142,1.14,2.269,1.697,3.381c0.556,1.112,1.134,2.195,1.571,3.324
		c0.938,2.228,1.849,4.392,2.732,6.49c0.47,1.038,0.827,2.1,1.177,3.146c0.357,1.043,0.708,2.069,1.053,3.078s0.684,2,1.017,2.975
		c0.16,0.489,0.346,0.965,0.48,1.452c0.129,0.489,0.257,0.973,0.384,1.453c0.507,1.919,0.995,3.767,1.463,5.542
		c0.219,0.891,0.5,1.748,0.652,2.615c0.162,0.865,0.32,1.71,0.476,2.538c0.583,3.313,1.292,6.295,1.494,9.032
		c0.297,2.721,0.559,5.124,0.785,7.199c0.074,2.085,0.137,3.841,0.188,5.254c0.1,2.826,0.151,4.285,0.151,4.285V190.3z
		 M564.962,190.294c0,0-0.059-1.455-0.171-4.274c-0.057-1.41-0.126-3.16-0.21-5.24c-0.234-2.068-0.507-4.464-0.815-7.176
		c-0.213-2.727-0.935-5.699-1.53-8.999c-0.158-0.824-0.319-1.666-0.484-2.527c-0.156-0.863-0.44-1.717-0.662-2.604
		c-0.476-1.767-0.97-3.606-1.483-5.517c-0.128-0.478-0.258-0.96-0.389-1.446c-0.136-0.485-0.324-0.959-0.485-1.446
		c-0.336-0.969-0.679-1.956-1.026-2.959c-0.349-1.004-0.702-2.025-1.062-3.062c-0.354-1.041-0.714-2.097-1.188-3.129
		c-0.889-2.086-1.807-4.238-2.751-6.454c-0.44-1.123-1.021-2.199-1.58-3.305c-0.561-1.105-1.13-2.225-1.706-3.36
		c-4.688-9.035-10.766-18.601-18.54-28.107c-7.801-9.478-17.181-18.945-28.115-27.965c-10.928-9.026-23.41-17.59-37.259-25.389
		c-13.844-7.809-29.072-14.806-45.411-20.88c-16.347-6.057-33.844-11.104-52.245-14.933c-18.396-3.835-37.696-6.515-57.631-7.742
		c-39.861-2.476-82.361,0.519-124.698,10.907c-2.633,0.692-5.272,1.385-7.917,2.079c-1.32,0.354-2.65,0.679-3.966,1.059
		l-3.938,1.187c-2.628,0.792-5.261,1.585-7.899,2.38c-2.607,0.889-5.22,1.779-7.837,2.67l-3.929,1.342
		c-1.307,0.459-2.591,0.982-3.889,1.471c-2.591,0.994-5.186,1.989-7.785,2.986c-2.577,1.051-5.127,2.18-7.699,3.269l-3.854,1.649
		c-1.278,0.567-2.531,1.191-3.8,1.785c-2.53,1.201-5.064,2.404-7.603,3.609c-2.487,1.305-4.978,2.612-7.473,3.92
		c-1.241,0.665-2.509,1.285-3.731,1.988l-3.664,2.12l-3.669,2.123c-1.225,0.707-2.457,1.402-3.638,2.184
		c-2.388,1.521-4.779,3.043-7.172,4.567c-1.213,0.739-2.356,1.581-3.523,2.391l-3.491,2.446l-3.495,2.449l-3.384,2.607l-3.391,2.605
		c-1.133,0.866-2.272,1.728-3.343,2.671c-2.178,1.845-4.358,3.692-6.541,5.541c-2.131,1.906-4.188,3.897-6.29,5.844
		c-2.14,1.911-4.064,4.039-6.068,6.091l-2.987,3.102c-0.974,1.054-1.886,2.164-2.833,3.244l-2.818,3.263l-1.41,1.632l-1.316,1.708
		c-1.741,2.289-3.538,4.541-5.238,6.864l-4.858,7.15c-1.553,2.427-2.963,4.946-4.454,7.417
		c-5.674,10.046-10.246,20.75-13.366,31.895c-3.131,11.166-4.785,22.646-4.872,34.303c0.003,11.598,1.582,23.187,4.639,34.367
		c3.049,11.186,7.555,21.951,13.181,32.066c1.483,2.484,2.886,5.019,4.433,7.461l4.84,7.196c1.696,2.338,3.487,4.606,5.224,6.911
		l1.313,1.721l1.407,1.644l2.812,3.287c0.945,1.088,1.855,2.206,2.828,3.269l2.982,3.125c2.001,2.069,3.924,4.215,6.061,6.142
		c2.099,1.963,4.155,3.972,6.285,5.894c2.181,1.865,4.361,3.729,6.538,5.591c1.071,0.952,2.209,1.821,3.343,2.696l3.39,2.63
		l3.392,2.621l3.507,2.457l3.504,2.453c1.17,0.812,2.318,1.657,3.535,2.398c2.401,1.528,4.8,3.056,7.196,4.58
		c1.185,0.784,2.421,1.481,3.649,2.19l3.681,2.128l3.675,2.125c1.226,0.705,2.497,1.327,3.742,1.994c2.502,1.312,5,2.621,7.495,3.93
		c2.545,1.207,5.086,2.413,7.624,3.617c1.272,0.595,2.529,1.22,3.811,1.788l3.865,1.652c2.579,1.091,5.136,2.222,7.72,3.275
		c2.607,0.996,5.209,1.991,7.808,2.984c1.303,0.485,2.592,1.007,3.902,1.463l3.942,1.334c2.625,0.886,5.247,1.771,7.863,2.653
		c2.646,0.789,5.287,1.576,7.923,2.362l3.95,1.178c1.319,0.377,2.653,0.698,3.977,1.049c2.651,0.688,5.297,1.375,7.938,2.061
		c42.437,10.329,85.04,12.932,124.88,10.457c19.951-1.263,39.247-3.994,57.646-7.849c18.403-3.85,35.899-8.917,52.243-14.993
		c16.334-6.098,31.564-13.093,45.407-20.911c13.848-7.805,26.326-16.377,37.255-25.404c10.936-9.021,20.315-18.491,28.116-27.971
		c7.774-9.508,13.853-19.077,18.537-28.114c0.576-1.136,1.145-2.256,1.705-3.361c0.558-1.106,1.139-2.183,1.579-3.306
		c0.944-2.217,1.861-4.369,2.75-6.456c0.474-1.032,0.833-2.089,1.187-3.13c0.359-1.038,0.713-2.059,1.062-3.062
		c0.663-2.018,1.452-3.922,1.898-5.854c0.514-1.91,1.008-3.75,1.482-5.518c0.221-0.887,0.505-1.74,0.661-2.604
		c0.165-0.861,0.326-1.704,0.484-2.527c0.595-3.301,1.315-6.274,1.526-8.998c0.308-2.711,0.58-5.105,0.814-7.173
		c0.082-2.083,0.152-3.835,0.208-5.247c0.112-2.823,0.17-4.279,0.17-4.279V190.294z"/>
</g>
<linearGradient id="SVGID_1_" gradientUnits="userSpaceOnUse" x1="112.0308" y1="132.7368" x2="454.6744" y2="257.4489">
	<stop  offset="0" style="stop-color:#D9D9D9"/>
	<stop  offset="1" style="stop-color:#FFFFFF"/>
</linearGradient>
<path fill="url(#SVGID_1_)" d="M471.855,195.088c0,69.412-84.391,125.672-188.504,125.672c-104.103,0-188.5-56.261-188.5-125.672
	c0-69.399,84.397-125.663,188.5-125.663C387.465,69.425,471.855,125.689,471.855,195.088z"/>
<linearGradient id="SVGID_2_" gradientUnits="userSpaceOnUse" x1="118.126" y1="137.3569" x2="448.5803" y2="257.6324">
	<stop  offset="0" style="stop-color:#C4C4C4"/>
	<stop  offset="0.3177" style="stop-color:#D7D7D7"/>
	<stop  offset="0.7" style="stop-color:#E6E6E6"/>
	<stop  offset="1" style="stop-color:#ECECEC"/>
</linearGradient>
<path fill="url(#SVGID_2_)" d="M465.286,197.49c0,66.094-81.456,119.668-181.935,119.668c-100.476,0-181.93-53.574-181.93-119.668
	c0-66.084,81.454-119.661,181.93-119.661C383.83,77.83,465.286,131.406,465.286,197.49z"/>
<linearGradient id="SVGID_3_" gradientUnits="userSpaceOnUse" x1="127.9521" y1="145.3354" x2="438.75" y2="258.4566">
	<stop  offset="0" style="stop-color:#D4D4D4"/>
	<stop  offset="1" style="stop-color:#FFFFFF"/>
</linearGradient>
<path fill="url(#SVGID_3_)" d="M454.644,201.892c0,61.011-76.686,110.464-171.292,110.464c-94.6,0-171.29-49.453-171.29-110.464
	c0-61,76.69-110.454,171.29-110.454C377.958,91.438,454.644,140.891,454.644,201.892z"/>
<path fill="#F1F2F0" d="M449.678,204.292c0,57.916-74.463,104.86-166.327,104.86c-91.856,0-166.324-46.944-166.324-104.86
	c0-57.907,74.468-104.852,166.324-104.852C375.215,99.441,449.678,146.386,449.678,204.292z"/>
</svg>
