<?xml version="1.0" encoding="utf-8"?>
<!-- Generator: Adobe Illustrator 16.0.4, SVG Export Plug-In . SVG Version: 6.00 Build 0)  -->
<!DOCTYPE svg PUBLIC "-//W3C//DTD SVG 1.1//EN" "http://www.w3.org/Graphics/SVG/1.1/DTD/svg11.dtd">
<svg version="1.1" id="Layer_1" xmlns="http://www.w3.org/2000/svg" xmlns:xlink="http://www.w3.org/1999/xlink" x="0px" y="0px"
	 width="72.254px" height="541.786px" viewBox="0 0 72.254 541.786" enable-background="new 0 0 72.254 541.786"
	 xml:space="preserve">
<g id="stick_1_">
	<g>
		<path fill="#B4862D" d="M44.908,541.561V8.092c0-4.181-4.447-7.568-9.938-7.568c-5.484,0-9.936,3.39-9.936,7.568v533.471
			L44.908,541.561L44.908,541.561z"/>
		<path fill="#1D1C1A" d="M44.809,541.461l-0.422-68.309l-0.242-68.41l-0.107-68.408c-0.068-22.806,0.027-45.605,0.037-68.41
			l0.477-136.818l0.059-34.205l-0.071-34.207L44.46,28.491l-0.037-17.104l-0.006-2.139L44.414,8.18
			c-0.02-0.276-0.02-0.723-0.09-1.004C44.24,6.572,43.967,5.934,43.67,5.36c-0.344-0.562-0.734-1.104-1.229-1.562
			c-1.945-1.865-4.748-2.748-7.467-2.748c-2.721,0.014-5.514,0.908-7.439,2.775c-0.957,0.926-1.65,2.105-1.855,3.385
			c-0.066,0.32-0.057,0.635-0.08,0.971l0.004,1.069l0.006,2.138l0.055,17.104l0.107,34.204l0.189,68.41l0.117,136.816l-0.037,68.411
			l-0.221,68.408l-0.227,68.41l-0.123,34.205l-0.211,34.205l-0.223-0.229L44.809,541.461z M45.005,541.661l-19.971,0.123
			l-0.221,0.002v-0.225l-0.211-34.205l-0.123-34.205l-0.227-68.408l-0.219-68.41l-0.039-68.408l0.117-136.817l0.189-68.41
			l0.107-34.204l0.055-17.103l0.006-2.14l0.004-1.067c0.023-0.371,0.021-0.777,0.104-1.155c0.258-1.551,1.102-2.932,2.191-3.979
			c2.209-2.109,5.258-3.041,8.201-3.049c2.941,0.021,5.982,0.965,8.175,3.075c1.084,1.06,1.907,2.399,2.162,3.986
			c0.079,0.414,0.063,0.688,0.096,1.121V9.25l-0.008,2.14l-0.037,17.103l-0.076,34.203L45.207,96.9l0.059,34.205l0.478,136.818
			c0.01,22.805,0.104,45.605,0.036,68.408l-0.106,68.408l-0.243,68.41L45.005,541.661z"/>
	</g>
	<path opacity="0.8" fill="#8E5824" enable-background="new    " d="M39.087,2.037v539.524h5.396V8.092
		C44.482,3.913,44.578,2.037,39.087,2.037z"/>
	<path opacity="0.1" fill="#FFFFFF" enable-background="new    " d="M31.947,1.037v539.524h-6.908V7.092
		C25.037,2.913,26.457,1.037,31.947,1.037z"/>
</g>
<g id="wheel">
	<path stroke="#000000" stroke-miterlimit="10" d="M35.439,42.102c10.538,0,18.92,9.503,17.641,19.957
		C51.802,72.492,41.346,79.653,31.152,77.13c-8.623-2.134-14.436-10.629-13.355-19.436C18.873,48.898,26.585,42.102,35.439,42.102z"
		/>
	<g>
		<path fill="#FF3C00" stroke="#000000" stroke-width="2" stroke-miterlimit="10" d="M35.937,25.201
			c-10.104,0-19.855,4.533-26.402,12.223c-6.621,7.774-9.498,18.277-7.77,28.342c1.688,9.836,7.73,18.625,16.264,23.792
			c8.763,5.31,19.7,6.442,29.372,3.048c9.371-3.291,17.047-10.65,20.742-19.867c3.813-9.516,3.147-20.506-1.781-29.491
			C60.318,32.241,48.5,25.201,35.937,25.201z M63.516,50.705c-7.513,1.712-15.019,3.427-22.523,5.139
			c3.342-6.938,6.684-13.875,10.027-20.812C56.863,38.594,61.348,44.211,63.516,50.705z M45.971,32.594
			c-3.347,6.941-6.688,13.885-10.034,20.825c-3.346-6.943-6.689-13.885-10.033-20.825C32.333,30.223,39.542,30.223,45.971,32.594z
			 M20.857,35.034c3.344,6.938,6.686,13.875,10.027,20.812c-7.508-1.711-15.016-3.427-22.523-5.139
			C10.527,44.211,15.011,38.595,20.857,35.034z M7.113,56.17c7.51,1.714,15.02,3.431,22.527,5.144
			c-6.02,4.801-12.037,9.602-18.059,14.402C7.832,69.963,6.24,62.98,7.113,56.17z M15.083,80.094
			c6.018-4.799,12.035-9.599,18.053-14.398c0,7.704,0,15.406,0,23.11C26.312,88.15,19.855,85.014,15.083,80.094z M38.74,88.806
			c0-7.704,0-15.406,0-23.11c6.02,4.8,12.035,9.599,18.055,14.4C52.023,85.014,45.566,88.15,38.74,88.806z M60.292,75.717
			c-6.019-4.801-12.037-9.602-18.058-14.402c7.511-1.713,15.019-3.428,22.525-5.143C65.632,62.982,64.046,69.961,60.292,75.717z"/>
	</g>
</g>
</svg>
