<?xml version="1.0" encoding="utf-8"?>
<!-- Generator: Adobe Illustrator 16.0.4, SVG Export Plug-In . SVG Version: 6.00 Build 0)  -->
<!DOCTYPE svg PUBLIC "-//W3C//DTD SVG 1.1//EN" "http://www.w3.org/Graphics/SVG/1.1/DTD/svg11.dtd">
<svg version="1.1" id="Layer_2" xmlns="http://www.w3.org/2000/svg" xmlns:xlink="http://www.w3.org/1999/xlink" x="0px" y="0px"
	 width="2143.112px" height="1181.478px" viewBox="0 0 2143.112 1181.478" enable-background="new 0 0 2143.112 1181.478"
	 xml:space="preserve">
<rect x="-9.912" y="205.478" fill-rule="evenodd" clip-rule="evenodd" fill="#32CDFA" width="2163.412" height="818.216"/>
<path fill-rule="evenodd" clip-rule="evenodd" fill="#AC823A" d="M132.83,105.011c0,0,329.985,52.233,518.229,73.532
	c194.89,22.051,421.976-17.51,662-41c240.024-23.489,448.838-48.701,618-36c91.293,6.855,176.362,6.906,234.583,24.868
	c13.233,4.083,9.712,114.122,0.103,115.382c-113.625,14.902-247.215,21.691-330.742,12.867
	c-170.018-17.963-313.32-56.666-940.095-0.896c-152.063,13.531-287.789-10.398-526.053-27.308
	C234.595,216.928,5.188,271.162-2.813,272.543c-8,1.383-9.687-104.935-9.687-104.935L132.83,105.011z"/>
<path fill="#47D361" d="M2021.101,46.167c-17.646,0-34.287,3.769-48.94,10.433C1952.282,22.977,1912.236,0,1866.068,0
	c-53.445,0-98.688,30.789-113.934,73.244c-21.728-16.689-52.254-27.077-86.066-27.077c-45.499,0-85.053,18.806-105.216,46.473
	c-14.056-8.358-31.908-13.371-51.353-13.371c-45.287,0-82,27.133-82,60.604c0,33.471,36.713,60.604,82,60.604
	c22.218,0,42.358-6.541,57.126-17.147c21.408,23.735,57.952,39.375,99.442,39.375c47.9,0,89.208-20.845,108.24-50.928
	c21.908,23.038,54.88,37.701,91.76,37.701c24.695,0,47.639-6.574,66.682-17.834c19.124,24.887,51.557,41.256,88.351,41.256
	c58.798,0,106.464-41.801,106.464-93.367C2127.564,87.968,2079.898,46.167,2021.101,46.167z"/>
<path fill="#47D361" d="M502.564,103.399c-12.156,0-23.895,1.232-34.982,3.515c-11.072-39.097-60.758-68.593-120.386-68.593
	c-25.232,0-48.682,5.284-68.182,14.339C250.671,23.136,198.358,3.321,138.5,3.321c-90.022,0-163,44.807-163,100.079
	c0,55.271,72.978,100.078,163,100.078c43.49,0,83-10.459,112.228-27.502c22.466,19.792,57.326,32.502,96.469,32.502
	c12.156,0,23.895-1.231,34.981-3.515c11.072,39.097,243.082,30.502,243.082-16.485C625.26,141.49,570.327,103.399,502.564,103.399z"
	/>
<path fill="#8FEB7E" d="M2036.689,111.372c-168.778-16.305-391.969-25.824-631.969-2.909s-457.143,49.665-710.033,45.212
	c-464.32-8.179-554.893-52.883-705-65.244c-0.739-0.061-1.467-0.114-2.188-0.161V247.68
	c90.543-10.927,275.025-30.464,375.188-23.528c238.241,16.496,457.804,22.982,526,18.87
	c626.001-37.741,783.951-13.255,954.002,4.044c95.035,9.667,211.368-2.606,310.811-19.091V120.444
	C2119.427,118.564,2080.708,115.624,2036.689,111.372z"/>
<path opacity="0.6" fill-rule="evenodd" clip-rule="evenodd" fill="#56D2F6" d="M0,807.895c0,0,126.274-36,399-36
	c238.664,0,663.908,20.457,933.578,20.457c131.368,0,180.988,87.516,335.422,48.545c224.16-56.564,473-87.002,473-87.002
	l12.5,269.799c0,0-290.731,43.303-549.5,45.201c-214.772,1.574-361.07,16.152-613,18c-238.919,1.752-640.803-59.75-801-58.574
	C48.594,1029.358,5,1008.62,5,1008.62L0,807.895z"/>
<path opacity="0.7" fill-rule="evenodd" clip-rule="evenodd" fill="#6FDDFC" d="M4.425,695.265c0,0,520-54.115,540,2.352
	c20,56.469,924.792,6.402,936,42.363c22,70.584,665.416-11.033,665.416-11.033s28.466,170.976-28.333,166.009
	c-170.456-14.905-894.084,63.797-826.083-25.612c68-89.408-463.544-79.58-662-19C382.081,925.845-12.5,883.564-12.5,883.564
	L4.425,695.265z"/>
<g>
	
		<linearGradient id="SVGID_1_" gradientUnits="userSpaceOnUse" x1="-46.2432" y1="1061.1704" x2="-33.9007" y2="1061.1704" gradientTransform="matrix(0.9994 -0.0344 0.0344 0.9994 161.2364 -72.3432)">
		<stop  offset="0.2022" style="stop-color:#5B8E13"/>
		<stop  offset="0.9663" style="stop-color:#A2E247"/>
	</linearGradient>
	<path fill="url(#SVGID_1_)" d="M161.663,1030.986c0,0,10.888-59.291-11.566-82.71
		C150.097,948.276,161.284,980.034,161.663,1030.986z"/>
	
		<linearGradient id="SVGID_2_" gradientUnits="userSpaceOnUse" x1="-29.0513" y1="1045.2017" x2="-16.5784" y2="1045.2017" gradientTransform="matrix(0.9994 -0.0344 0.0344 0.9994 161.2364 -72.3432)">
		<stop  offset="0.2022" style="stop-color:#5B8E13"/>
		<stop  offset="0.9663" style="stop-color:#A2E247"/>
	</linearGradient>
	<path fill="url(#SVGID_2_)" d="M179.874,1030.443c0,0-29.414-31.313-1.23-115.189
		C178.644,915.253,163.964,963.952,179.874,1030.443z"/>
	
		<linearGradient id="SVGID_3_" gradientUnits="userSpaceOnUse" x1="-21.9795" y1="1061.3296" x2="10.0701" y2="1061.3296" gradientTransform="matrix(0.9994 -0.0344 0.0344 0.9994 161.2364 -72.3432)">
		<stop  offset="0.2022" style="stop-color:#5B8E13"/>
		<stop  offset="0.9663" style="stop-color:#A2E247"/>
	</linearGradient>
	<path fill="url(#SVGID_3_)" d="M177.177,1030.524c0,0-13.594-67.551,29.21-83.938C206.387,946.586,178.07,962.539,177.177,1030.524
		z"/>
	
		<linearGradient id="SVGID_4_" gradientUnits="userSpaceOnUse" x1="-47.2295" y1="1075.5718" x2="-31.9378" y2="1075.5718" gradientTransform="matrix(0.9994 -0.0344 0.0344 0.9994 161.2364 -72.3432)">
		<stop  offset="0.2022" style="stop-color:#5B8E13"/>
		<stop  offset="0.9663" style="stop-color:#A2E247"/>
	</linearGradient>
	<path fill="url(#SVGID_4_)" d="M167.354,1033.732c0,0-24.684-30.069-15.324-59.646
		C152.03,974.086,147.376,996.459,167.354,1033.732z"/>
	
		<linearGradient id="SVGID_5_" gradientUnits="userSpaceOnUse" x1="-3.7964" y1="1072.1226" x2="3.6577" y2="1072.1226" gradientTransform="matrix(0.9994 -0.0344 0.0344 0.9994 161.2364 -72.3432)">
		<stop  offset="0.2022" style="stop-color:#5B8E13"/>
		<stop  offset="0.9663" style="stop-color:#A2E247"/>
	</linearGradient>
	<path fill="url(#SVGID_5_)" d="M200.453,1024.028c0,0,6.559-35.583-6.988-49.704C193.465,974.324,200.234,993.472,200.453,1024.028
		z"/>
	
		<linearGradient id="SVGID_6_" gradientUnits="userSpaceOnUse" x1="6.5474" y1="1062.5347" x2="14.0233" y2="1062.5347" gradientTransform="matrix(0.9994 -0.0344 0.0344 0.9994 161.2364 -72.3432)">
		<stop  offset="0.2022" style="stop-color:#5B8E13"/>
		<stop  offset="0.9663" style="stop-color:#A2E247"/>
	</linearGradient>
	<path fill="url(#SVGID_6_)" d="M211.385,1023.694c0,0-17.663-18.814-0.769-69.189
		C210.616,954.504,201.833,983.701,211.385,1023.694z"/>
	
		<linearGradient id="SVGID_7_" gradientUnits="userSpaceOnUse" x1="16.5942" y1="1081.0815" x2="25.1674" y2="1081.0815" gradientTransform="matrix(0.9994 -0.0344 0.0344 0.9994 161.2364 -72.3432)">
		<stop  offset="0.2022" style="stop-color:#5B8E13"/>
		<stop  offset="0.9663" style="stop-color:#A2E247"/>
	</linearGradient>
	<path fill="url(#SVGID_7_)" d="M215.422,1025.24c0,0-4.142-28.929,7.548-35.73C222.971,989.509,215.284,996.184,215.422,1025.24z"
		/>
	
		<linearGradient id="SVGID_8_" gradientUnits="userSpaceOnUse" x1="11.3018" y1="1072.2134" x2="30.0915" y2="1072.2134" gradientTransform="matrix(0.9994 -0.0344 0.0344 0.9994 161.2364 -72.3432)">
		<stop  offset="0.2022" style="stop-color:#5B8E13"/>
		<stop  offset="0.9663" style="stop-color:#A2E247"/>
	</linearGradient>
	<path fill="url(#SVGID_8_)" d="M209.747,1023.745c0,0-8.162-40.604,17.593-50.441C227.34,973.303,210.32,982.883,209.747,1023.745z
		"/>
	
		<linearGradient id="SVGID_9_" gradientUnits="userSpaceOnUse" x1="-4.3589" y1="1080.8198" x2="4.8377" y2="1080.8198" gradientTransform="matrix(0.9994 -0.0344 0.0344 0.9994 161.2364 -72.3432)">
		<stop  offset="0.2022" style="stop-color:#5B8E13"/>
		<stop  offset="0.9663" style="stop-color:#A2E247"/>
	</linearGradient>
	<path fill="url(#SVGID_9_)" d="M203.876,1025.75c0,0-14.838-18.115-9.228-35.9C194.648,989.849,191.849,1003.305,203.876,1025.75z"
		/>
	
		<linearGradient id="SVGID_10_" gradientUnits="userSpaceOnUse" x1="22.0718" y1="1052.8726" x2="38.2895" y2="1052.8726" gradientTransform="matrix(0.9994 -0.0344 0.0344 0.9994 161.2364 -72.3432)">
		<stop  offset="0.2022" style="stop-color:#5B8E13"/>
		<stop  offset="0.9663" style="stop-color:#A2E247"/>
	</linearGradient>
	<path fill="url(#SVGID_10_)" d="M232.847,1033.245c0,0,14.268-77.78-15.209-108.607
		C217.638,924.637,232.322,966.444,232.847,1033.245z"/>
	
		<linearGradient id="SVGID_11_" gradientUnits="userSpaceOnUse" x1="43.4258" y1="1031.9312" x2="60.9218" y2="1031.9312" gradientTransform="matrix(0.9994 -0.0344 0.0344 0.9994 161.2364 -72.3432)">
		<stop  offset="0.2022" style="stop-color:#5B8E13"/>
		<stop  offset="0.9663" style="stop-color:#A2E247"/>
	</linearGradient>
	<path fill="url(#SVGID_11_)" d="M256.762,1032.529c0,0-38.63-41.091-1.737-151.192
		C255.025,881.336,235.834,945.168,256.762,1032.529z"/>
	
		<linearGradient id="SVGID_12_" gradientUnits="userSpaceOnUse" x1="66.5747" y1="1072.3989" x2="85.2869" y2="1072.3989" gradientTransform="matrix(0.9994 -0.0344 0.0344 0.9994 161.2364 -72.3432)">
		<stop  offset="0.2022" style="stop-color:#5B8E13"/>
		<stop  offset="0.9663" style="stop-color:#A2E247"/>
	</linearGradient>
	<path fill="url(#SVGID_12_)" d="M265.555,1035.764c0,0-9.051-63.039,16.48-77.913
		C282.035,957.851,265.188,972.463,265.555,1035.764z"/>
	
		<linearGradient id="SVGID_13_" gradientUnits="userSpaceOnUse" x1="52.645" y1="1053.0776" x2="96.0646" y2="1053.0776" gradientTransform="matrix(0.9994 -0.0344 0.0344 0.9994 161.2364 -72.3432)">
		<stop  offset="0.2022" style="stop-color:#5B8E13"/>
		<stop  offset="0.9663" style="stop-color:#A2E247"/>
	</linearGradient>
	<path fill="url(#SVGID_13_)" d="M253.158,1032.632c0,0-17.812-88.733,38.442-110.219
		C291.6,922.414,254.342,943.324,253.158,1032.632z"/>
	
		<linearGradient id="SVGID_14_" gradientUnits="userSpaceOnUse" x1="20.7944" y1="1071.814" x2="40.8688" y2="1071.814" gradientTransform="matrix(0.9994 -0.0344 0.0344 0.9994 161.2364 -72.3432)">
		<stop  offset="0.2022" style="stop-color:#5B8E13"/>
		<stop  offset="0.9663" style="stop-color:#A2E247"/>
	</linearGradient>
	<path fill="url(#SVGID_14_)" d="M240.312,1036.902c0,0-32.368-39.453-20.167-78.359
		C220.145,958.542,214.034,987.939,240.312,1036.902z"/>
</g>
<path fill-rule="evenodd" clip-rule="evenodd" fill="#8FEB7E" d="M2153.5,991.197c-5.582-1.441-11.501-2.929-17.779-4.467
	c-98.307-24.078-420-16-660,18s-544.057,13.293-604,10c-182-10-508-60-754-16c-47.507,8.497-95.266,3.86-130.221-2.563v185.312h2166
	V991.197z"/>
<g>
	<path fill="#91D357" d="M240.709,969.18c3.086-0.533,7.109,0.921,9.504,2.758c2.418-2.886,5.625-4.116,8.31-1.769
		c1.279,1.122,19.209-11.916,16.862,2.576c6.625-0.283,12.444,8.31,4.9,11.104c5.186,2.444,7.095,8.926-0.151,9.806
		c0.981,1.436,1.965,5.447,3.283,6.778c-2.377,0.425-4.518,2.585-6.888,3.086c0.467,1.067,0.937,2.32,1.619,3.215
		c-1.24-1.628-5.53-3-6.957-5.703c-0.406,1.527-1.048,3.305-1.089,4.891c-1.518,0.324-2.906,0.256-4.278-0.2
		c0.079-1.746-0.65-4.28-0.267-5.922c-1.318,1.897-5.735,15.567-9.76,4.271c0.688,4.928-5.928,5.015-6.145-0.501
		c-1.506,4.882-8.262,5.087-9.171-0.11c-4.522,0.379-5.356-2.187-2.717-5.506c1.481,10.981-28.883-7.745-14.868-10.607
		c-4.98,4.978-7.41-6.236,1.575-6.569c-1.846-6.975,6.751-11.255,12.629-9.104C237.855,970.21,239.166,969.445,240.709,969.18z"/>
	<g>
		
			<linearGradient id="SVGID_15_" gradientUnits="userSpaceOnUse" x1="285.6152" y1="1016.856" x2="307.7002" y2="1016.856" gradientTransform="matrix(0.9983 0.0572 -0.0572 0.9983 17.2895 -52.1588)">
			<stop  offset="0.3146" style="stop-color:#FFFFFF"/>
			<stop  offset="0.9775" style="stop-color:#BDE4F5"/>
		</linearGradient>
		<path fill="url(#SVGID_15_)" d="M258.881,980.414c1.36-0.548,2.719-0.985,4.077-1.592c1.126-0.511,2.498-0.314,3.501-0.998
			c-0.802-1.851-4.372-1.135-5.915-1.071c-2.01,0.078-3.777,0.378-5.682,1.157c-1.801,0.73-3.196,1.546-5.124,2.057
			c-1.575,0.414-4.07,0.793-5.511-0.201c0.415,0.288-0.563,2.271,0.531,3.014c0.997,0.67,3.426,0.593,4.583,0.511
			C252.664,983.057,255.827,981.639,258.881,980.414z"/>
		
			<linearGradient id="SVGID_16_" gradientUnits="userSpaceOnUse" x1="273.4531" y1="1027.6372" x2="281.5329" y2="1027.6372" gradientTransform="matrix(0.9983 0.0572 -0.0572 0.9983 17.2895 -52.1588)">
			<stop  offset="0.3146" style="stop-color:#FFFFFF"/>
			<stop  offset="0.9775" style="stop-color:#BDE4F5"/>
		</linearGradient>
		<path fill="url(#SVGID_16_)" d="M231.079,989.803c-1.725,2.689-0.084,4.381,2.605,5.097c0.173-1.892,3.095-3.305,4.321-4.29
			c1.258-1.012,2.115-2.68,1.851-4.335c-0.164-1.021-0.693-1.486-1.618-1.796c-1.49-0.492-1.24,0.196-2.083,0.939
			C234.445,986.9,232.344,987.834,231.079,989.803z"/>
		
			<linearGradient id="SVGID_17_" gradientUnits="userSpaceOnUse" x1="281.749" y1="1024.8755" x2="292.8059" y2="1024.8755" gradientTransform="matrix(0.9983 0.0572 -0.0572 0.9983 17.2895 -52.1588)">
			<stop  offset="0.3146" style="stop-color:#FFFFFF"/>
			<stop  offset="0.9775" style="stop-color:#BDE4F5"/>
		</linearGradient>
		<path fill="url(#SVGID_17_)" d="M246.167,988.956c1.483,1.259,3.945,3.629,4.807,0.237c0.757-2.986-2.111-3.47-4.162-3.916
			c-1.071-0.237-1.985-0.688-3-1.121c-1.021-0.442-4.258-0.347-3.839,1.34C240.453,987.397,244.838,987.826,246.167,988.956z"/>
		
			<linearGradient id="SVGID_18_" gradientUnits="userSpaceOnUse" x1="284.9312" y1="1019.5396" x2="302.7946" y2="1019.5396" gradientTransform="matrix(0.9983 0.0572 -0.0572 0.9983 17.2895 -52.1588)">
			<stop  offset="0.3146" style="stop-color:#FFFFFF"/>
			<stop  offset="0.9775" style="stop-color:#BDE4F5"/>
		</linearGradient>
		<path fill="url(#SVGID_18_)" d="M253.563,984.083c1.529-0.205,3.043-0.429,4.568-0.652c1.085-0.155,2.475,0.023,3.549-0.305
			c1.506-0.461,2.035-1.536,0.581-2.485c-1.019-0.665-2.633-0.651-3.795-0.542c-3.061,0.282-6.12,1.468-9.133,1.97
			c-1.824,0.314-4.267,0.342-6.072-0.128c-0.582-0.15,0.426,1.851,0.556,1.979c0.674,0.656,1.987,0.948,2.875,1.048
			C249,985.236,251.298,984.378,253.563,984.083z"/>
		
			<linearGradient id="SVGID_19_" gradientUnits="userSpaceOnUse" x1="284.9526" y1="1011.1675" x2="304.2103" y2="1011.1675" gradientTransform="matrix(0.9983 0.0572 -0.0572 0.9983 17.2895 -52.1588)">
			<stop  offset="0.3146" style="stop-color:#FFFFFF"/>
			<stop  offset="0.9775" style="stop-color:#BDE4F5"/>
		</linearGradient>
		<path fill="url(#SVGID_19_)" d="M250.865,978.786c1.819-0.848,3.536-1.933,5.215-2.99c1.829-1.149,7.549-3.853,7.39-6.446
			c-0.675-0.359-0.474-1.071-1.212-1.376c-0.697-0.283-1.712,0.305-2.366,0.533c-2.338,0.788-4.125,2.206-6.227,3.441
			c-1.896,1.107-3.605,2.517-5.297,3.993c-1.468,1.281-3.139,2.124-4.823,2.959c-0.361,0.178,0.538,1.23,0.731,1.34
			c0.408,0.228,1.434,0.082,1.878,0.041C247.811,980.13,249.367,979.488,250.865,978.786z"/>
		
			<linearGradient id="SVGID_20_" gradientUnits="userSpaceOnUse" x1="254.6035" y1="1016.563" x2="276.6895" y2="1016.563" gradientTransform="matrix(0.9983 0.0572 -0.0572 0.9983 17.2895 -52.1588)">
			<stop  offset="0.3146" style="stop-color:#FFFFFF"/>
			<stop  offset="0.9775" style="stop-color:#BDE4F5"/>
		</linearGradient>
		<path fill="url(#SVGID_20_)" d="M220.706,977.938c-1.29-0.707-2.59-1.295-3.868-2.052c-1.064-0.638-2.452-0.602-3.369-1.386
			c1.01-1.755,4.476-0.634,6.008-0.392c1.98,0.305,3.699,0.811,5.508,1.801c1.705,0.935,2.998,1.892,4.851,2.621
			c1.516,0.602,3.953,1.253,5.498,0.438c-0.439,0.232,0.306,2.315-0.87,2.931c-1.067,0.552-3.47,0.191-4.606-0.019
			C226.58,981.27,223.596,979.501,220.706,977.938z"/>
		
			<linearGradient id="SVGID_21_" gradientUnits="userSpaceOnUse" x1="258.2002" y1="1020.6089" x2="276.2679" y2="1020.6089" gradientTransform="matrix(0.9983 0.0572 -0.0572 0.9983 17.2895 -52.1588)">
			<stop  offset="0.3146" style="stop-color:#FFFFFF"/>
			<stop  offset="0.9775" style="stop-color:#BDE4F5"/>
		</linearGradient>
		<path fill="url(#SVGID_21_)" d="M224.581,983.486c-1.523-0.246-3.027-0.516-4.549-0.784c-1.076-0.183-2.471-0.051-3.534-0.406
			c-1.495-0.506-1.997-1.596-0.513-2.498c1.042-0.643,2.658-0.578,3.818-0.433c3.043,0.369,6.065,1.637,9.064,2.238
			c1.816,0.359,4.255,0.465,6.07,0.045c0.583-0.132-0.474,1.838-0.614,1.965c-0.69,0.634-2.008,0.885-2.903,0.962
			C229.107,984.78,226.833,983.85,224.581,983.486z"/>
		
			<linearGradient id="SVGID_22_" gradientUnits="userSpaceOnUse" x1="285.9932" y1="1009.9722" x2="299.2387" y2="1009.9722" gradientTransform="matrix(0.9983 0.0572 -0.0572 0.9983 17.2895 -52.1588)">
			<stop  offset="0.3146" style="stop-color:#FFFFFF"/>
			<stop  offset="0.9775" style="stop-color:#BDE4F5"/>
		</linearGradient>
		<path fill="url(#SVGID_22_)" d="M255.989,970.981c0.791-0.839,2.479-2.447,2.621-3.683c0.114-0.976,0.087-0.794-0.625-1.203
			c-0.098-0.06-1.849-0.384-2.058-0.379c-2.856,0.063-5.441,3.929-7.307,5.794c-1.482,1.486-2.802,3.132-4.221,4.686
			c-1.377,1.505-2.088,1.747-0.629,3.552C247.699,976.534,252.383,974.769,255.989,970.981z"/>
		
			<linearGradient id="SVGID_23_" gradientUnits="userSpaceOnUse" x1="281.3066" y1="1009.4214" x2="287.2988" y2="1009.4214" gradientTransform="matrix(0.9983 0.0572 -0.0572 0.9983 17.2895 -52.1588)">
			<stop  offset="0.3146" style="stop-color:#FFFFFF"/>
			<stop  offset="0.9775" style="stop-color:#BDE4F5"/>
		</linearGradient>
		<path fill="url(#SVGID_23_)" d="M246.63,968.032c0.123-1.07,0.332-2.42-0.547-3.173c-0.7-0.602-0.684-0.155-1.331-0.291
			c-0.123-0.028-1.105-0.37-1.263-0.333c-1.89,0.46-2.879,4.608-3.139,6.281c-0.444,2.94-0.221,5.758-0.178,8.693
			c0.786,0.055,1.68-0.123,2.455-0.292c0.045-1.823,1.63-3.346,2.361-5.023C245.805,972.021,246.402,970.06,246.63,968.032z"/>
		
			<linearGradient id="SVGID_24_" gradientUnits="userSpaceOnUse" x1="273.9854" y1="1011.0806" x2="280.1732" y2="1011.0806" gradientTransform="matrix(0.9983 0.0572 -0.0572 0.9983 17.2895 -52.1588)">
			<stop  offset="0.3146" style="stop-color:#FFFFFF"/>
			<stop  offset="0.9775" style="stop-color:#BDE4F5"/>
		</linearGradient>
		<path fill="url(#SVGID_24_)" d="M234.764,974.36c0.791,1.417,1.509,4.471,3.305,5.014c1.563,0.465,1.033-0.721,1.003-1.855
			c-0.019-1.034,0.146-2.056,0.027-3.091c-0.164-1.459-0.398-2.949-0.907-4.335c-0.92-2.534-2.762-4.257-5.524-2.972
			C229.91,968.411,233.789,972.604,234.764,974.36z"/>
		
			<linearGradient id="SVGID_25_" gradientUnits="userSpaceOnUse" x1="262.3301" y1="1013.3315" x2="277.2068" y2="1013.3315" gradientTransform="matrix(0.9983 0.0572 -0.0572 0.9983 17.2895 -52.1588)">
			<stop  offset="0.3146" style="stop-color:#FFFFFF"/>
			<stop  offset="0.9775" style="stop-color:#BDE4F5"/>
		</linearGradient>
		<path fill="url(#SVGID_25_)" d="M229.235,970.981c-2.111-1.608-4.973-2.353-7.729-2.288c-0.378,1.491,0.864,2.106,1.701,3.068
			c1.253,1.422,1.928,2.954,3.417,4.212c1.299,1.089,2.632,2.293,4.189,3.059c1.267,0.615,2.739,1.859,4.1,2.033
			c0.125-0.747,0.748-0.98,0.992-1.637C236.853,976.879,230.974,972.308,229.235,970.981z"/>
		
			<linearGradient id="SVGID_26_" gradientUnits="userSpaceOnUse" x1="262.6719" y1="1024.5562" x2="277.3441" y2="1024.5562" gradientTransform="matrix(0.9983 0.0572 -0.0572 0.9983 17.2895 -52.1588)">
			<stop  offset="0.3146" style="stop-color:#FFFFFF"/>
			<stop  offset="0.9775" style="stop-color:#BDE4F5"/>
		</linearGradient>
		<path fill="url(#SVGID_26_)" d="M226.438,987.383c-1.593,0.313-7.496,2.903-5.773-1.358c2.826-1.414,6.001-1.664,9.103-1.915
			c0.898-0.068,7.658-1.321,6.068,1.048C234.553,987.064,228.469,986.977,226.438,987.383z"/>
		
			<radialGradient id="SVGID_27_" cx="280.4141" cy="1017.9087" r="5.3784" gradientTransform="matrix(0.9983 0.0572 -0.0572 0.9983 17.2895 -52.1588)" gradientUnits="userSpaceOnUse">
			<stop  offset="0" style="stop-color:#FFD531"/>
			<stop  offset="0.5787" style="stop-color:#EBAC11"/>
			<stop  offset="1" style="stop-color:#D1950F"/>
		</radialGradient>
		<path fill="url(#SVGID_27_)" d="M241.853,985.204c1.75-0.87,4.914-3.934,3.405-6.071c-0.055,0.323-0.237,0.602-0.303,0.811
			c0.062-0.701,0.084-1.554-0.352-2.092c-0.057,0.214-0.29,0.598-0.339,0.853c0.1-0.684-0.235-1.29-0.516-1.906
			c-0.043,0.288-0.246,0.83-0.283,1.127c0.078-0.643-0.169-1.281-0.807-1.459c-0.02,0.392-0.159,0.876-0.084,1.267
			c-0.098-0.665-0.408-1.358-1.055-1.627c-0.068,0.492-0.025,1.09,0.155,1.459c-0.023-0.434-0.144-0.912-0.452-1.268
			c0.009,0.251-0.086,0.538-0.086,0.789c-0.718-0.087-0.946-0.734-0.775-1.454c-0.096,0.52-0.201,0.838-0.109,1.349
			c-0.23-0.597-0.506-1.189-0.602-1.841c-0.055,0.619-0.11,1.217,0.031,1.81c-0.209-0.479-0.499-0.779-0.948-0.976
			c0.096,0.347,0.085,0.793,0.21,1.121c-0.26-0.579-0.479-1.172-1.058-1.331c0.078,0.456,0.196,1.021,0.319,1.449
			c-0.146-0.173-0.515-0.392-0.693-0.619c0.013,0.122-0.132,0.697-0.055,1.021c-0.323-0.246-0.688-0.319-0.945-0.624
			c0.068,0.287,0.05,0.66,0.157,0.984c-0.396-0.364-0.707-0.793-0.903-1.285c-0.027,0.537-0.168,0.679,0.034,1.263
			c-0.462-0.133-0.989-0.393-1.365-0.62c0.055,0.524,0.36,1.058,0.734,1.459c-0.561-0.365-1.087-0.602-1.354-1.194
			c-0.098,0.771,0.078,1.6,0.73,2.061c-0.296-0.133-0.688-0.105-0.969-0.196c0.212,0.474,0.436,0.775,0.958,0.943
			c-0.264-0.06-0.946-0.014-1.301-0.05c0.091,0.487,0.542,0.938,0.943,1.135c-1.263-0.256-1.787,0.866-1.313,1.892
			C234.293,986.49,239.282,986.471,241.853,985.204z"/>
	</g>
</g>
<linearGradient id="SVGID_28_" gradientUnits="userSpaceOnUse" x1="-24.2012" y1="428.0347" x2="2157.6865" y2="428.0347">
	<stop  offset="0" style="stop-color:#43D2FB"/>
	<stop  offset="1" style="stop-color:#43D2FB;stop-opacity:0.6"/>
</linearGradient>
<path opacity="0.8" fill-rule="evenodd" clip-rule="evenodd" fill="url(#SVGID_28_)" d="M-24.201,319.882
	c0,0,561.049,118.803,687,89.407c379.588-88.592,732.641,0.351,858,11.765c245.605,22.36,590-37.646,590-37.646
	s63.508,35.554,42.701,43.655c-122.538,47.71-302.958,78.031-446.701,37.819c-213.841-59.822-952.544-56.706-1088,0.875
	C380.799,566.929-12.5,529.367-12.5,529.367L-24.201,319.882z"/>
<linearGradient id="SVGID_29_" gradientUnits="userSpaceOnUse" x1="32.2988" y1="606.3706" x2="2153.5" y2="606.3706">
	<stop  offset="0" style="stop-color:#43D2FB"/>
	<stop  offset="1" style="stop-color:#43D2FB;stop-opacity:0.6"/>
</linearGradient>
<path opacity="0.8" fill-rule="evenodd" clip-rule="evenodd" fill="url(#SVGID_29_)" d="M379.799,664.947
	c0,0,372.601,38.447,477-25.881C1046.559,522.14,2060.092,448.385,2153.5,427.063v262.415l-12.5,64.417
	c0,0-517.587,77.568-776.422-9.658c-88.119-29.695-447.505-12.843-560-1.521c-137.063,13.795-772.279-70.82-772.279-70.82
	L379.799,664.947z"/>
</svg>
