<?xml version="1.0" encoding="utf-8"?>
<!-- Generator: Adobe Illustrator 16.0.4, SVG Export Plug-In . SVG Version: 6.00 Build 0)  -->
<!DOCTYPE svg PUBLIC "-//W3C//DTD SVG 1.1//EN" "http://www.w3.org/Graphics/SVG/1.1/DTD/svg11.dtd">
<svg version="1.1" id="Layer_2" xmlns="http://www.w3.org/2000/svg" xmlns:xlink="http://www.w3.org/1999/xlink" x="0px" y="0px"
	 width="111.742px" height="109.46px" viewBox="0 0 111.742 109.46" enable-background="new 0 0 111.742 109.46"
	 xml:space="preserve">
<path fill="#FFB000" stroke="#000000" stroke-miterlimit="10" d="M7.722,0.092c0,0,31.392,9.998,43.537,9.052
	c12.159-0.958,28.364-5.958,28.364-5.958s3.575,17.632,7.146,30.979c3.576,13.347,4.071,18.538,8.619,28.26
	c9.668,20.668,16.812,31.843,16.092,33.515c-0.707,1.665-6.434,2.865-6.434,2.865s-17.87,3.81-23.592,4.036
	c-5.723,0.234-8.814,0-10.727,1.438c-1.901,1.43-5.477,3.814-8.34,2.146c-2.863-1.674-8.575-2.627-10.721-1.194
	c-2.137,1.427-5.242,2.621-7.864,0.478c-2.631-2.146-4.518-0.955-6.91,0c-2.389,0.949-9.771,2.385-11.673,2.385
	c-1.906,0-15.018,1.425-18.116,0c-3.098-1.436-1.167-3-3.55-3c-2.376,0-2.376,0-2.376,0S0.266,90.4,0.984,75.144
	C1.7,59.906,2.168,41.786,6.705,24.15C11.229,6.518,7.249,5.02,7.249,5.02L7.722,0.092z"/>
<path fill="#3C1212" d="M49.354,47.989h-7.141c0,0,2.607-21.925,3.81-27.646c1.194-5.728,1.194-5.728,1.194-5.728l4.519,0.235
	c0,0-2.616,9.299-2.616,15.738C49.119,37.021,49.354,47.989,49.354,47.989z"/>
<path fill="#3C1212" d="M51.735,14.851c0,0,3.819,17.174,4.538,21.939c0.715,4.767,1.188,11.904,1.188,11.904h-4.283
	c0,0-0.966-6.422-1.443-9.769c-0.476-3.334-2.616-10.247-2.616-10.247L47.69,17L51.735,14.851z"/>
<path fill="#FFA300" d="M12.667,17.958c0,0-3.344,8.823-3.344,13.823c0,5.008,1.67,20.021,1.67,20.021s-1.434-14.06,0-20.021
	C12.42,25.823,12.667,17.958,12.667,17.958z"/>
<path fill="#FFA300" d="M20.041,22.004c0,0-3.807,11.912-4.996,14.786c-1.194,2.856,1.908-0.722,1.908-0.722l0.469,6.204
	C17.421,42.272,20.041,22.963,20.041,22.004z"/>
<polygon fill="#FFA300" points="27.19,25.108 28.387,45.133 25.765,42.507 "/>
<path fill="#FFA300" d="M65.32,27.008l3.342,25.028c0,0,2.382,0.713,1.667-3.812C69.613,43.689,65.32,27.008,65.32,27.008z"/>
<polygon fill="#FFA300" points="74.852,25.352 74.143,43.689 76.053,37.495 79.624,46.315 "/>
<polygon fill="#FFA300" points="80.581,22.493 82.006,42.02 83.434,34.397 "/>
<path fill="#FFA300" d="M14.874,106.71c0,0,1.429-7.621,2.141-13.821c0.713-6.197,0.96-11.207,0.96-16.679c0-5.494,0-6.924,0-6.924
	l2.86,28.85c0,0,1.549,8.574,1.784,9.289c0.238,0.707-8.814,0.596-8.814,0.596L14.874,106.71z"/>
<path fill="#FFA300" d="M43.162,54.897c0,0,3.266,34.837,3.508,40.567c0.235,5.718,0.715,10.191,0.715,10.191l4.641-1.781
	c0,0-0.833,0.877-1.786-4.84C49.283,93.313,44.353,56.567,43.162,54.897z"/>
<path fill="#FFA300" d="M68.589,103.33c0,0-1.055-20.729-0.2-27.57c0.516-4.127,5.447-20.812,5.204-15.803
	c-0.237,5.006-1.671,15.724-0.718,17.862c0.962,2.151,6.913,11.916,6.913,13.829c0,1.908,0.599,10.729,0.599,10.729
	s-4.527-0.369-10.839,2.375C68.613,105.156,68.589,103.33,68.589,103.33z"/>
<path fill="#FF1212" stroke="#000000" stroke-miterlimit="10" d="M49.354,47.989h-7.141c0,0,2.607-21.925,3.81-27.646
	c1.194-5.728,1.194-5.728,1.194-5.728l4.519,0.235c0,0-2.616,9.299-2.616,15.738C49.119,37.021,49.354,47.989,49.354,47.989z"/>
<path fill="#FFA300" d="M12.667,17.958c0,0-3.344,8.823-3.344,13.823c0,5.008,1.67,20.021,1.67,20.021s-1.434-14.06,0-20.021
	C12.42,25.823,12.667,17.958,12.667,17.958z"/>
<path fill="#FFA300" d="M20.041,22.004c0,0-3.807,11.912-4.996,14.786c-1.194,2.856,1.908-0.722,1.908-0.722l0.469,6.204
	C17.421,42.272,20.041,22.963,20.041,22.004z"/>
<polygon fill="#FFA300" points="27.19,25.108 28.387,45.133 25.765,42.507 "/>
<path fill="#FFA300" d="M65.32,27.008l3.342,25.028c0,0,2.382,0.713,1.667-3.812C69.613,43.689,65.32,27.008,65.32,27.008z"/>
<polygon fill="#FFA300" points="74.852,25.352 74.143,43.689 76.053,37.495 79.624,46.315 "/>
<polygon fill="#FFA300" points="80.581,22.493 82.006,42.02 83.434,34.397 "/>
<path fill="#FF1212" stroke="#000000" stroke-miterlimit="10" d="M7.056,4.759c0,0,21.563,6.526,25.378,7.248
	c3.813,0.708,13.349,3.091,14.541,3.091s16.744-0.823,21.748-2.006c5.002-1.193,11.668-4.667,11.668-4.667l1.53,5.521
	c0,0-19.456,5.198-24.223,4.961c-4.769-0.233-14.628,1.575-26.309-2.483c-11.678-4.039-22.667-2.333-22.667-2.333L7.056,4.759z"/>
<path fill="#FF1212" stroke="#000000" stroke-miterlimit="10" d="M51.735,14.851c0,0,3.819,17.174,4.538,21.939
	c0.715,4.767,1.188,11.904,1.188,11.904h-4.283c0,0-0.966-6.422-1.443-9.769c-0.476-3.334-2.616-10.247-2.616-10.247l-2.563-14.085
	L51.735,14.851z"/>
</svg>
