<?xml version="1.0" encoding="utf-8"?>
<!-- Generator: Adobe Illustrator 16.0.4, SVG Export Plug-In . SVG Version: 6.00 Build 0)  -->
<!DOCTYPE svg PUBLIC "-//W3C//DTD SVG 1.1//EN" "http://www.w3.org/Graphics/SVG/1.1/DTD/svg11.dtd">
<svg version="1.1" id="Layer_1" xmlns="http://www.w3.org/2000/svg" xmlns:xlink="http://www.w3.org/1999/xlink" x="0px" y="0px"
	 width="151.006px" height="143.671px" viewBox="0 0 151.006 143.671" enable-background="new 0 0 151.006 143.671"
	 xml:space="preserve">
<path fill="#4A00A9" stroke="#000000" stroke-miterlimit="10" d="M112.321,1.563c0,0,10.492,1.474,20.462,13.368
	c12.5,14.914,17.5,42.753,17.5,42.753l-29.5,4.474l-5.5-8.451l-9-17.399L112.321,1.563z"/>
<path fill="#4A00A9" stroke="#000000" stroke-miterlimit="10" d="M41.745,1.353c0,0-15.462,1.419-23.962,14.177
	c-7.162,10.75-17,42.202-17,42.202l30.75,6.625l7.25-11.532l9-17.175L41.745,1.353z"/>
<path fill="#61812C" stroke="#000000" stroke-miterlimit="10" d="M102.783,1.37c-1.692,10.043,0.028,28.055-2.941,37.692
	c-9.349,30.389-38.891,30.167-45.559,5.16c-2.71-10.258-2.755-31.338-2.893-42.852C76.283,11.335,107.783,0.872,102.783,1.37z"/>
<path fill="#B1CA15" stroke="#000000" stroke-miterlimit="10" d="M86.812,142.75c-10.982,0.334-22.156,0.551-33.118-0.311
	c-6.191-0.486-12.716-1.486-18.159-4.664c-3.186-1.857-2.371-3.762-2.324-7.137c0.117-8.348,0.189-16.695,0.276-25.043
	c0.167-16.113-0.06-32.318,0.827-48.414c0.319-5.781,2.98-11.948,3.953-17.791c2.108-12.676,2.773-25.356,1.621-38.18
	c1.475-0.128,11.86-0.013,11.868,0.179c0.207,5.009,1.308,10.118,3.167,14.766c3.318,8.298,12.231,11.592,20.599,11.595
	c7.883,0.003,15.403-2.358,19.795-9.319c2.945-4.668,4.205-10.192,5.436-15.502c1.01-4.369,7.412-1.054,10.707-1.719
	c0.021,15.169,1.609,30.461,3.307,45.521c0.734,6.531,2.072,12.532,2.195,19.14c0.252,13.594-0.092,27.2-0.154,40.795
	c-0.047,10.469-1.18,22.178,1.115,32.488C106.659,143.123,96.921,142.441,86.812,142.75z"/>
<path fill="#FFFFFF" stroke="#000000" stroke-miterlimit="10" d="M83.783,9.659c0,0-5.044,0.5-6.75,0.5s-6.75-0.5-6.75-0.5v-2.5
	c0,0,4.676,0.737,6.25,0.75c1.821,0.015,7.25-0.75,7.25-0.75V9.659z"/>
</svg>
