<?xml version="1.0" encoding="utf-8"?>
<!-- Generator: Adobe Illustrator 16.0.4, SVG Export Plug-In . SVG Version: 6.00 Build 0)  -->
<!DOCTYPE svg PUBLIC "-//W3C//DTD SVG 1.1//EN" "http://www.w3.org/Graphics/SVG/1.1/DTD/svg11.dtd">
<svg version="1.1" xmlns="http://www.w3.org/2000/svg" xmlns:xlink="http://www.w3.org/1999/xlink" x="0px" y="0px"
	 width="104.236px" height="94.079px" viewBox="0 0 104.236 94.079" enable-background="new 0 0 104.236 94.079"
	 xml:space="preserve">
<g>
	<path fill-rule="evenodd" clip-rule="evenodd" fill="#994A35" d="M61.397,85.674c0-8.334,1.19-6.668,5.896-17.979
		c0.211-0.509-0.962-2.376-0.962-2.376c-4.254,10.701-5.77,5.741-10.213,17.258c-0.027,0.072-1.477,2.223-2.254,0.5
		c-0.677-1.5-0.627-1.17-1.805-4c-2.771-6.657,0.592-13.398,0.592-20.382c0-0.963-1.618-1.891-1.865-0.946
		c-1.77,6.738-3.833,14.29-3.649,21.287c-6.809-2.915-13.355-8.78-16.701-22.707c0,0-1.527-0.188-1.397,0.473
		c2.986,15.221,13.12,23.035,18.684,27.064c-0.173,0.378-0.446,1.127,0.219,9.037c0.023,0.28,2.416,0.939,4.859,0.938
		c2.396-0.001,6.005-0.167,9.048-1.319C62.723,92.191,61.623,92.007,61.397,85.674z"/>
	<path d="M61.348,85.675c-0.004-1.812,0.005-3.645,0.356-5.442c0.098-0.445,0.2-0.893,0.354-1.324
		c0.134-0.438,0.314-0.858,0.489-1.279c0.366-0.836,0.756-1.657,1.146-2.477c0.772-1.643,1.555-3.277,2.206-4.97
		c0.344-0.837,0.65-1.691,0.977-2.536c0.106-0.133-0.098-0.573-0.275-0.953c-0.191-0.384-0.417-0.773-0.649-1.137l0.799-0.073
		l-0.008,0.02c-0.606,1.401-1.211,2.806-1.981,4.142c-0.747,1.341-1.674,2.616-2.752,3.706c-1.08,1.076-2.079,2.163-2.859,3.443
		c-0.809,1.257-1.432,2.634-2.056,4.002l-0.434,1.045l-0.217,0.522l-0.108,0.262c-0.071,0.156-0.123,0.198-0.185,0.289
		c-0.245,0.313-0.516,0.607-0.876,0.833c-0.181,0.108-0.396,0.2-0.646,0.198c-0.253-0.004-0.491-0.14-0.637-0.309
		c-0.837-1.401-1.33-2.757-1.961-4.166c-0.619-1.388-1.004-2.913-1.148-4.43c-0.152-1.524-0.088-3.058,0.082-4.569
		c0.337-3.026,1.067-5.978,1.367-8.98c0.077-0.75,0.129-1.501,0.146-2.253l0.006-0.555c-0.006-0.167-0.059-0.31-0.146-0.458
		c-0.174-0.285-0.46-0.525-0.77-0.643c-0.334-0.117-0.587-0.064-0.636,0.297l-0.286,1.1l-0.566,2.199
		c-1.459,5.856-2.783,11.828-2.622,17.847l0.014,0.52l-0.462-0.216c-0.559-0.262-1.137-0.486-1.682-0.78
		c-0.555-0.275-1.102-0.565-1.63-0.889c-1.074-0.619-2.078-1.353-3.052-2.121c-0.462-0.414-0.95-0.8-1.391-1.238
		c-0.433-0.444-0.899-0.857-1.296-1.335c-0.832-0.92-1.606-1.896-2.297-2.924c-0.348-0.513-0.702-1.023-1.002-1.565
		c-0.31-0.536-0.645-1.06-0.908-1.62c-0.271-0.556-0.577-1.096-0.818-1.666l-0.74-1.7l-0.649-1.734
		c-0.229-0.574-0.386-1.171-0.582-1.756c-0.4-1.168-0.673-2.371-1.003-3.559l0.416,0.372c-0.299-0.032-0.688-0.027-0.875,0.04
		c-0.045,0.013-0.053,0.032-0.021,0c0.033-0.04,0.062-0.13,0.047-0.144l0.111,0.518c0.148,0.729,0.329,1.429,0.509,2.13
		c0.199,0.7,0.395,1.403,0.63,2.093c0.22,0.695,0.479,1.376,0.74,2.056c0.527,1.358,1.144,2.681,1.819,3.97
		c0.678,1.289,1.429,2.539,2.248,3.744c1.637,2.412,3.545,4.637,5.646,6.666c2.102,2.032,4.399,3.851,6.782,5.577l0.339,0.245
		l-0.178,0.364c-0.176,0.357-0.168,1.08-0.188,1.667c-0.008,0.622,0.001,1.248,0.024,1.877c0.042,1.257,0.104,2.518,0.166,3.779
		l0.048,0.946l0.023,0.474l0.003,0.059c-0.024-0.127-0.005-0.03-0.011-0.058l0.003,0.008l0.004,0.014
		c-0.003-0.021-0.017-0.055-0.034-0.076c-0.036-0.04-0.005-0.006,0.009,0.001c0.043,0.027,0.107,0.058,0.169,0.086
		c0.537,0.221,1.159,0.364,1.765,0.481c1.229,0.243,2.458,0.291,3.73,0.281c1.255,0.002,2.517-0.063,3.766-0.211
		c0.628-0.059,1.245-0.185,1.863-0.301c0.61-0.149,1.226-0.287,1.818-0.499c0.268-0.109,0.688-0.152,0.759-0.364
		c0.032-0.261-0.081-0.595-0.136-0.897c-0.135-0.619-0.242-1.246-0.324-1.875C61.467,88.207,61.389,86.94,61.348,85.675z
		 M61.447,85.673c0.054,1.263,0.143,2.523,0.317,3.773c0.088,0.625,0.2,1.245,0.34,1.86c0.054,0.315,0.181,0.596,0.143,0.969
		c-0.056,0.218-0.275,0.286-0.407,0.336l-0.451,0.155c-0.597,0.224-1.215,0.374-1.829,0.536c-0.623,0.125-1.244,0.267-1.873,0.358
		c-1.256,0.205-2.521,0.326-3.796,0.381c-1.255,0.074-2.567,0.043-3.831-0.166c-0.639-0.106-1.263-0.224-1.904-0.465
		c-0.083-0.034-0.164-0.068-0.257-0.123c-0.052-0.035-0.088-0.046-0.177-0.146c-0.029-0.036-0.056-0.087-0.069-0.123l-0.005-0.014
		l-0.003-0.008c-0.006-0.031,0.011,0.061-0.015-0.071l-0.006-0.06l-0.051-0.472l-0.101-0.945c-0.143-1.26-0.249-2.523-0.33-3.794
		c-0.044-0.634-0.075-1.272-0.089-1.916c0.026-0.664-0.09-1.253,0.216-2.082l0.16,0.609c-2.409-1.722-4.756-3.577-6.908-5.645
		c-2.152-2.067-4.115-4.342-5.803-6.813c-1.684-2.471-3.112-5.127-4.172-7.926c-0.265-0.7-0.525-1.401-0.745-2.116
		c-0.237-0.709-0.432-1.431-0.632-2.152c-0.182-0.73-0.363-1.461-0.505-2.181l-0.116-0.566c-0.035-0.193,0.013-0.486,0.182-0.66
		c0.153-0.171,0.314-0.241,0.443-0.286c0.521-0.153,0.89-0.114,1.321-0.08l0.322,0.025l0.095,0.346
		c0.317,1.168,0.577,2.355,0.962,3.503c0.188,0.574,0.338,1.164,0.56,1.726l0.624,1.703l0.712,1.666
		c0.231,0.559,0.527,1.085,0.787,1.629c0.255,0.548,0.572,1.061,0.865,1.587c0.285,0.532,0.621,1.031,0.952,1.535
		c0.655,1.009,1.392,1.965,2.186,2.868c0.377,0.47,0.823,0.875,1.236,1.312c0.42,0.43,0.888,0.811,1.329,1.219
		c0.934,0.757,1.896,1.485,2.933,2.101c0.509,0.323,1.037,0.613,1.574,0.89c0.526,0.295,1.088,0.521,1.631,0.786l-0.447,0.304
		c-0.077-6.138,1.366-12.111,2.906-17.956l0.579-2.197l0.292-1.097c0.03-0.173,0.157-0.474,0.416-0.562
		c0.247-0.093,0.482-0.042,0.68,0.03c0.396,0.157,0.719,0.432,0.939,0.792c0.107,0.175,0.187,0.401,0.189,0.614l-0.008,0.581
		c-0.022,0.762-0.08,1.522-0.161,2.278c-0.335,3.025-1.037,5.983-1.359,8.982c-0.339,2.982-0.179,6.078,1.082,8.82l0.911,2.074
		l0.488,1.025c0.174,0.333,0.305,0.72,0.51,0.94c0.205,0.237,0.486,0.214,0.776,0.027c0.281-0.181,0.532-0.453,0.746-0.74
		c0.047-0.063,0.12-0.167,0.123-0.187l0.104-0.265l0.21-0.53l0.42-1.06c0.607-1.395,1.215-2.797,2.025-4.106
		c0.772-1.332,1.834-2.495,2.859-3.589c2.056-2.175,3.271-4.953,4.36-7.747l0.008-0.019l0.359-0.811l0.439,0.738
		c0.244,0.41,0.461,0.814,0.661,1.249c0.098,0.219,0.191,0.442,0.267,0.69c0.037,0.132,0.069,0.245,0.084,0.436
		c0.006,0.114-0.009,0.253-0.021,0.283l-0.01,0.042l-0.023,0.073l-0.004,0.01l-0.01,0.02l-0.036,0.077
		c-0.396,0.822-0.77,1.652-1.182,2.465c-0.812,1.631-1.609,3.268-2.472,4.867c-0.853,1.599-1.728,3.206-2.096,4.979
		C61.5,82.038,61.467,83.86,61.447,85.673z"/>
</g>
<path fill-rule="evenodd" clip-rule="evenodd" fill="#773032" d="M50.786,57.749c-1.977,7.525-4.328,16.067-3.495,23.716
	c0.949,8.712-0.083,2.715,0.649,11.438c0.019,0.235,1.464,0.75,3.442,0.674c-1.286-6.49-1.297-0.75-2.511-11.237
	c-1.661-14.138,1.822-17.339,3.3-24.575C51.674,57.309,50.946,57.14,50.786,57.749z"/>
<path fill-rule="evenodd" clip-rule="evenodd" fill="#773032" d="M60.854,76.744c-1.277,2.108-5.242,7.371-4.622,5.833
	c3.974-9.875,4.593-4.75,10.099-17.258c0,0,0.914,2.246,1.175,2.758C64.322,75.814,64.688,70.41,60.854,76.744z"/>
<g>
	<path fill="#009247" d="M100.321,47.841c0.259-0.174,0.481-0.339,0.66-0.49c1.856,0.184,3.336-0.075,3.161-0.284
		c-1.479-1.761-0.767-3.647-2.311-5.135c-0.032-0.031-0.066-0.062-0.098-0.093c1.446-0.93,2.285-1.935,1.999-1.984
		c-2.179-0.383-3.185-1.829-4.971-2.3c0.438-0.881,0.828-1.815,1.832-2.604c0.194-0.152-0.858-0.567-2.379-0.764
		c0.603-1.037,0.914-2.226,2.143-3.192c0.216-0.172-1.12-0.669-2.934-0.823c1.419-0.676,2.287-1.438,2.033-1.522
		c-1.381-0.459-2.157-1.309-3.015-2.039c0.308-0.559,0.696-1.109,1.323-1.603c0.286-0.226-2.128-1.019-4.774-0.843
		c0.81-1.125,1.016-2.516,2.419-3.62c0.305-0.242-2.479-1.134-5.331-0.791c0.25-0.361,0.559-0.71,0.973-1.036
		c0.129-0.103-0.305-0.325-1.065-0.518c0.763-1.112,0.992-2.463,2.359-3.539c0.304-0.24-2.43-1.119-5.259-0.801
		c-0.027-0.042-0.055-0.084-0.084-0.126c0.162-0.971,0.237-1.986,0.984-3c0.154-0.211-1.247-0.387-3.01-0.141
		c0.126-0.784,0.298-1.591,0.889-2.395c0.205-0.278-2.306-0.498-4.775,0.239c0.002-0.348-0.071-0.739-0.241-1.177
		c-0.735-1.892-2.993-2.293-4.036-4.271c-0.167-0.314-1.889,1.542-2.461,3.866c-0.04,0.006-0.08,0.013-0.121,0.019
		c-0.129-2.463-1.627-4.644-1.848-4.343c-0.851,1.164-2.084,1.646-3.136,2.297c-0.549-2.434-2.434-4.413-2.598-4.085
		c-0.585,1.157-1.588,1.79-2.462,2.488c-0.867-0.833-1.958-1.532-2.503-2.831c-0.133-0.321-1.992,1.378-2.79,3.626
		c-0.612-0.473-1.201-1.004-1.608-1.773c-0.136-0.256-1.312,0.939-2.049,2.655c0.175-1.273-0.231-2.582,0.521-4.031
		c0.204-0.393-4.166-0.108-6.688,2.069c-0.106,0.092-0.2,0.189-0.281,0.289c-0.737-0.643-1.514-1.295-1.946-2.327
		c-0.135-0.323-2.019,1.402-2.808,3.672c-0.82-1.4-2.576-2.055-3.318-3.824c-0.153-0.367-2.564,1.909-3.062,4.628
		c-0.07,0.018-0.139,0.036-0.209,0.055c-0.76-0.667-1.582-1.329-2.031-2.4c-0.159-0.381-2.749,2.085-3.107,4.938
		c-0.854-0.647-1.8-1.259-2.373-2.351c-0.155-0.292-1.664,1.299-2.332,3.398c-0.792-0.588-1.625-1.185-2.151-2.18
		c-0.186-0.349-2.301,1.995-2.606,4.678c-2.309-0.727-4.588-0.623-4.41-0.349c1.058,1.626,0.503,3.185,1.166,4.624
		c-2.521-1.422-5.737-1.561-5.558-1.223c0.346,0.65,0.456,1.273,0.49,1.879c-2.239-0.892-4.529-0.949-4.377-0.662
		c0.7,1.319,0.432,2.529,0.526,3.699c-1.045-0.257-2.141-0.484-3.147-1.225c-0.287-0.213-0.888,1.853-0.418,4.041
		c-0.981-0.132-1.639-0.078-1.555,0.08c0.439,0.825,0.499,1.607,0.503,2.363c-0.055,0.103-0.102,0.207-0.146,0.312
		c-1.574-0.376-2.827-0.353-2.714-0.139c0.561,1.056,0.5,2.041,0.502,2.993c-0.98,0.552-1.929,1.21-3.346,1.409
		c-0.331,0.045,0.756,1.392,2.554,2.467c-1.306,0.495-2.116,1.066-1.895,1.168c2.222,1.029,2.539,2.994,4.682,3.752
		c0.188,0.067,0.372,0.122,0.547,0.165c-1.065,0.706-1.944,1.656-3.537,2.064c-0.479,0.124,2.593,13.847,6.155,14.075
		c0.088,0.006,0.174,0.009,0.26,0.006c-0.023,0.022-0.048,0.044-0.072,0.066c-1.542,1.486-0.832,3.375-2.311,5.136
		c-0.231,0.276,2.451,0.642,5.059-0.059c-2.104,2.21-2.35,5.505-1.924,5.338c1.391-0.54,2.673-0.396,3.912-0.421
		c-0.226,2.062,0.425,3.875,0.685,3.663c0.597-0.483,1.241-0.765,1.889-0.985c-0.402,1.276-0.388,2.272-0.148,2.182
		c0.932-0.355,1.811-0.402,2.66-0.401c0.014,0.077,0.04,0.149,0.05,0.23c0.008,0.078,0.148,0.062,0.363-0.021
		c-0.382,1.246-0.363,2.21-0.128,2.12c1.479-0.565,2.833-0.36,4.142-0.401c0.411,1.198,1.315,2.263,1.259,3.81
		c-0.009,0.224,1.049-0.125,2.262-0.912c0.403,1.216,1.329,2.288,1.271,3.854c-0.012,0.307,1.975-0.459,3.615-1.95
		c0.267,0.597,0.537,0.924,0.643,0.809c0.92-1,2.096-1.385,3.159-1.873c0.309,0.816,0.663,1.298,0.788,1.163
		c0.865-0.939,1.953-1.337,2.963-1.785c0.177,1.962,1.062,3.539,1.277,3.306c1.41-1.53,3.414-1.621,4.709-2.846
		c0.361,2.661,2.486,4.955,2.665,4.605c0.528-1.033,1.389-1.644,2.193-2.258c0.257,0.451,0.58,0.866,0.939,1.247
		c-0.174,0.644-0.42,1.295-0.952,1.93c-0.185,0.22,1.476,0.496,3.476,0.247c-0.74,1.674-0.776,3.192-0.482,3.079
		c2.307-0.879,4.47-4.824,6.479-5.815c0.286-0.141,0.53-0.29,0.738-0.444c1.797,2.08,4.608-2.955,4.576-3.324
		c-0.088-0.976,0.221-1.772,0.547-2.534c0.283-0.003,0.566-0.001,0.842,0.003c0.449,1.65,1.312,2.84,1.481,2.616
		c0.463-0.607,1.029-1.023,1.618-1.374c0.762,1.621,1.885,2.722,2.012,2.473c0.032-0.064,0.073-0.115,0.107-0.175
		c0.795,0.165,2.211,0.269,3.716,0.062c0.168,0.191,0.336,0.389,0.493,0.595c0.004,0.007,0.008,0.014,0.015,0.019
		c0.374,0.486,0.697,1.025,0.864,1.696c0.072,0.287,1.63-0.762,2.795-2.414c0.1-0.002,0.196-0.006,0.289-0.011
		c0.346,0.466,0.647,0.979,0.806,1.612c0.057,0.223,1.014-0.359,1.983-1.406c0.251,0.276,0.476,0.587,0.661,0.949
		c0.093,0.183,0.722-0.361,1.353-1.303c0.409,0.375,0.782,0.805,1.062,1.354c0.182,0.353,2.355-2.002,2.678-4.703
		c0.747,0.191,1.499,0.446,2.213,0.954c0.271,0.193,0.772-1.587,0.428-3.592c2.673,0.506,5.313-0.061,5.052-0.319
		c-1.649-1.644-1.132-3.576-2.818-4.942l-0.057-0.044c2.139,0.149,3.917-0.277,3.701-0.491c-1.496-1.49-1.215-3.218-2.407-4.545
		c2.761,0.908,5.834,0.518,5.585,0.221c-1.212-1.444-0.953-2.974-1.673-4.298c2.236,0.381,4.23,0.074,4.029-0.165
		C100.917,50.95,101.372,49.252,100.321,47.841z"/>
	<path d="M100.291,47.801l0.656-0.496c0.012-0.009,0.026-0.012,0.04-0.011c0.753,0.064,1.515,0.076,2.263-0.007
		c0.187-0.022,0.373-0.049,0.552-0.094c0.088-0.021,0.179-0.05,0.243-0.087c0.04-0.028,0.018-0.021,0.03,0.011l-0.087-0.113
		c-0.243-0.287-0.441-0.644-0.6-0.991c-0.318-0.711-0.435-1.48-0.637-2.2c-0.103-0.36-0.233-0.708-0.416-1.027
		c-0.176-0.326-0.422-0.593-0.693-0.852c-0.053-0.05-0.055-0.133-0.005-0.186l0.025-0.021c0.579-0.384,1.135-0.814,1.608-1.311
		c0.114-0.125,0.228-0.256,0.309-0.387c0.062-0.044,0.021-0.188,0.083-0.041c0.01,0.012,0.025,0.02,0.039,0.02l-0.03-0.007
		l-0.064-0.013l-0.13-0.026c-0.347-0.068-0.708-0.182-1.038-0.316c-1.351-0.538-2.408-1.572-3.729-1.896
		c-0.107-0.026-0.173-0.135-0.146-0.242l0.013-0.036l0.004-0.009c0.401-0.862,0.857-1.802,1.628-2.48l0.144-0.126l0.071-0.062
		l0.018-0.016l0.01-0.008l0.001-0.001c-0.023,0.026,0.053-0.058-0.051,0.057l0.001-0.002l0.003-0.005
		c0.009,0,0.03-0.068-0.019,0.049c-0.011,0.044,0.005,0.094,0.019,0.115l0.003,0.012c0.003,0.006,0.016,0.014,0.004,0.006
		s-0.019-0.016-0.043-0.028c-0.036-0.023-0.087-0.045-0.134-0.068c-0.203-0.086-0.43-0.154-0.655-0.214
		c-0.455-0.121-0.925-0.204-1.396-0.265c-0.133-0.018-0.227-0.14-0.21-0.273c0.005-0.032,0.016-0.064,0.031-0.09
		c0.282-0.49,0.507-1.033,0.798-1.562c0.148-0.263,0.305-0.525,0.492-0.77c0.185-0.243,0.386-0.483,0.619-0.685l0.173-0.154
		l0.087-0.077l0.021-0.019l0.003-0.002l0.001-0.001c-0.129,0.151-0.035,0.041-0.063,0.075l0.003-0.006l0.008-0.012
		c-0.004,0.006,0.029-0.048-0.008,0.012c-0.023,0.042-0.027,0.107-0.008,0.152c0.059,0.107-0.004,0.009-0.053,0.002
		c-0.049-0.028-0.114-0.053-0.173-0.08c-0.253-0.098-0.529-0.175-0.806-0.241c-0.556-0.13-1.126-0.211-1.698-0.261
		c-0.146-0.013-0.255-0.141-0.242-0.288c0.009-0.096,0.069-0.177,0.15-0.217c0.463-0.225,0.915-0.476,1.331-0.766
		c0.203-0.143,0.414-0.305,0.552-0.46c0.028-0.02,0.06-0.108,0.034-0.018c-0.048,0.099,0.153,0.252,0.119,0.212l-0.093-0.035
		l-0.369-0.141c-1.05-0.45-1.85-1.22-2.627-1.896c-0.104-0.09-0.128-0.239-0.065-0.356c0.291-0.538,0.673-1.052,1.14-1.469
		l0.176-0.157l0.044-0.039l0.022-0.02l0.011-0.009c0.011-0.011-0.092,0.091-0.048,0.047l0.001-0.001l0.003-0.002l0.004-0.005
		c0.014-0.008,0.014-0.035-0.036,0.065c-0.026,0.091-0.005,0.145-0.003,0.157c0.03,0.067,0.027,0.055,0.039,0.069
		c-0.016-0.018-0.171-0.098-0.286-0.139c-0.255-0.096-0.532-0.171-0.811-0.235c-1.12-0.249-2.29-0.336-3.436-0.261
		c-0.17,0.011-0.317-0.118-0.329-0.288c-0.004-0.07,0.016-0.137,0.052-0.191l0.006-0.009c0.216-0.324,0.41-0.665,0.588-1.038
		c0.181-0.365,0.363-0.751,0.581-1.124c0.216-0.376,0.483-0.729,0.781-1.057l0.49-0.448l0.016-0.014l0.008-0.007l0.004-0.003
		l0.001-0.002c0.014-0.013-0.109,0.112-0.057,0.058l0.013-0.015l0.006-0.007c-0.007,0.006-0.03,0.039-0.04,0.063
		c-0.026,0.055-0.028,0.126-0.015,0.172c0.002,0.018,0.008,0.035,0.016,0.052l0.029,0.046c0.021,0.018-0.018-0.011-0.044-0.025
		c-0.067-0.037-0.154-0.073-0.241-0.106c-0.728-0.259-1.546-0.393-2.345-0.467c-0.805-0.071-1.616-0.065-2.411,0.031
		c-0.188,0.022-0.357-0.111-0.38-0.298c-0.01-0.085,0.014-0.169,0.059-0.235c0.269-0.394,0.599-0.755,0.972-1.056l0.035-0.029
		l0.017-0.015l0.009-0.007l0.004-0.004l0.002-0.001l0.001,0c0.049-0.048-0.066,0.065-0.054,0.053v-0.001l0.014-0.016
		c0.02-0.027-0.07,0.085-0.066,0.143c-0.016,0.128,0.023,0.165,0.033,0.193c0.054,0.075,0.023,0.025-0.007,0.016
		c-0.064-0.037-0.159-0.078-0.253-0.113c-0.19-0.071-0.396-0.13-0.604-0.183c-0.188-0.048-0.301-0.238-0.253-0.425
		c0.01-0.04,0.029-0.08,0.051-0.112c0.422-0.628,0.705-1.396,1.143-2.135c0.217-0.371,0.485-0.718,0.782-1.042l0.487-0.441
		l0.008-0.007l0.002-0.001c0.015-0.015-0.121,0.123-0.062,0.063l0.003-0.003l0.012-0.015c0.024-0.03-0.051,0.056-0.06,0.117
		c-0.022,0.058,0.002,0.161,0.001,0.161c0.036,0.106,0.056,0.105,0.064,0.117l-0.059-0.035c-0.062-0.035-0.148-0.07-0.233-0.102
		c-0.71-0.251-1.512-0.384-2.294-0.458c-0.788-0.072-1.583-0.069-2.362,0.019c-0.146,0.017-0.282-0.052-0.359-0.166l-0.004-0.006
		l-0.075-0.112l-0.005-0.006c-0.057-0.084-0.075-0.184-0.061-0.277c0.083-0.506,0.146-1.046,0.297-1.589
		c0.147-0.541,0.386-1.081,0.725-1.544l0.015-0.022l0.008-0.011l0.002-0.003c-0.133,0.286-0.037,0.078-0.066,0.142l0.001-0.001
		l0.001-0.006c0.013-0.002,0.001-0.097-0.005,0.115c0.01,0.077,0.054,0.149,0.097,0.187l0.022,0.022
		c0.006,0.008,0.024,0.016,0.025,0.016c-0.017-0.006-0.058-0.019-0.108-0.03c-0.103-0.021-0.22-0.038-0.341-0.048
		c-0.242-0.021-0.494-0.03-0.746-0.026c-0.505,0.006-1.015,0.05-1.519,0.12c-0.22,0.031-0.424-0.123-0.454-0.343
		c-0.006-0.039-0.004-0.082,0.001-0.119c0.096-0.628,0.245-1.297,0.553-1.915c0.085-0.148,0.158-0.305,0.259-0.444l0.143-0.213
		l0.001-0.002c-0.099,0.176-0.026,0.048-0.049,0.087l0.002-0.003l0.003-0.007l0.006-0.013c-0.049,0.064-0.033,0.265,0.008,0.311
		c0.016,0.036,0.045,0.073,0.071,0.095l0.027,0.023c0.027,0.016,0.009,0.005-0.009,0c-0.2-0.059-0.527-0.083-0.813-0.092
		c-1.193-0.023-2.42,0.148-3.568,0.49c-0.226,0.067-0.463-0.061-0.53-0.287c-0.01-0.033-0.016-0.065-0.018-0.098l-0.001-0.026
		c-0.01-0.206-0.025-0.416-0.09-0.626c-0.021-0.105-0.064-0.21-0.1-0.315c-0.009-0.055-0.092-0.209-0.135-0.309
		c-0.105-0.208-0.202-0.346-0.347-0.53c-0.14-0.17-0.3-0.33-0.471-0.484c-0.69-0.614-1.591-1.12-2.335-1.906
		c-0.183-0.199-0.355-0.409-0.511-0.636c-0.078-0.112-0.144-0.234-0.216-0.351l-0.025-0.044L76.423,3.21L76.42,3.205l-0.002-0.003
		c0.027,0.039-0.062-0.091,0.061,0.087L76.471,3.28c0.009,0.01-0.042-0.047,0.016,0.018c0.051,0.051,0.126,0.089,0.193,0.101
		c0.067,0.016,0.111,0.005,0.135,0.001c0.073-0.023,0.021-0.007,0,0.012c-0.133,0.093-0.302,0.27-0.446,0.439
		c-0.148,0.175-0.289,0.363-0.422,0.556c-0.529,0.778-0.941,1.65-1.17,2.553c-0.042,0.174-0.189,0.298-0.354,0.326l-0.123,0.019
		c-0.237,0.037-0.459-0.125-0.496-0.362l-0.004-0.045c-0.036-0.687-0.182-1.376-0.41-2.038c-0.229-0.651-0.542-1.321-0.937-1.821
		c-0.047-0.057-0.101-0.113-0.13-0.135c-0.006-0.011-0.037-0.01,0.067,0.018c0.029,0.012,0.196,0.001,0.279-0.081
		c0.065-0.066,0.026-0.031,0.026-0.027L72.674,2.84c-0.124,0.143-0.223,0.281-0.367,0.427c-0.15,0.14-0.298,0.305-0.454,0.42
		c-0.155,0.121-0.307,0.25-0.47,0.353c-0.642,0.441-1.316,0.767-1.92,1.135c-0.191,0.118-0.441,0.059-0.56-0.132
		c-0.023-0.038-0.041-0.083-0.051-0.124c-0.147-0.654-0.395-1.293-0.716-1.896c-0.319-0.599-0.71-1.181-1.163-1.654
		c-0.108-0.113-0.239-0.228-0.32-0.275c-0.003-0.007-0.042-0.006,0.062,0.006c0.022,0.006,0.191-0.029,0.25-0.125
		c0.047-0.075-0.006,0.012-0.005,0.011l-0.135,0.231C66.75,1.367,66.607,1.54,66.493,1.7c-0.122,0.159-0.253,0.291-0.382,0.435
		c-0.537,0.541-1.14,0.962-1.686,1.393c-0.149,0.12-0.363,0.106-0.498-0.022c-0.493-0.474-1.067-0.918-1.581-1.469
		c-0.133-0.131-0.249-0.285-0.37-0.433c-0.126-0.142-0.217-0.317-0.326-0.476c-0.105-0.162-0.179-0.345-0.268-0.517l-0.032-0.065
		L61.35,0.545c-0.039-0.069,0.052,0.091,0.042,0.074L61.39,0.616l-0.005-0.007l-0.01-0.014c0.033,0.07,0.156,0.129,0.196,0.129
		c0.137,0.007,0.085-0.005,0.089,0.002c-0.035,0.015-0.101,0.058-0.159,0.101c-0.497,0.387-0.951,0.943-1.336,1.501
		c-0.385,0.568-0.707,1.178-0.938,1.816c-0.064,0.182-0.264,0.278-0.445,0.215c-0.036-0.012-0.072-0.033-0.101-0.054
		c-0.396-0.309-0.788-0.649-1.129-1.051c-0.166-0.205-0.325-0.417-0.457-0.647l-0.1-0.173c0.199,0.209-0.093-0.058,0.116,0.111
		c0.056,0.038,0.176,0.01,0.161,0.012l0.001,0.002c-0.025,0.012-0.124,0.08-0.197,0.153c-0.318,0.299-0.609,0.687-0.863,1.08
		c-0.256,0.396-0.481,0.814-0.67,1.247c-0.071,0.168-0.266,0.248-0.435,0.176c-0.141-0.06-0.218-0.208-0.199-0.352
		c0.128-0.895-0.059-1.91,0.154-2.951c0.055-0.257,0.122-0.515,0.224-0.76c0.044-0.125,0.104-0.243,0.161-0.362l0.021-0.044
		l0.006-0.011l0.001-0.003c0.008-0.023-0.062,0.196-0.032,0.102l0.001-0.005l0.004-0.023c-0.039,0.013,0.044,0.259,0.089,0.25
		c0.01,0.011,0.023,0.02,0.038,0.024l-0.094-0.018c-0.411-0.042-0.913,0.014-1.375,0.083c-0.942,0.147-1.874,0.407-2.753,0.774
		c-0.439,0.185-0.863,0.401-1.265,0.651c-0.201,0.124-0.393,0.26-0.58,0.401l-0.263,0.216c-0.1,0.087-0.169,0.165-0.229,0.235
		l-0.008,0.009c-0.104,0.121-0.288,0.135-0.409,0.03l-0.003-0.002c-0.487-0.433-1.007-0.872-1.425-1.429
		c-0.209-0.275-0.394-0.576-0.535-0.896L46.61,1.072l-0.014-0.03L46.59,1.028L46.586,1.02l-0.001-0.001
		c0.068,0.118,0.019,0.032,0.033,0.058l-0.002-0.003c0.004,0.005-0.035-0.048,0.005,0.006c0.028,0.046,0.129,0.07,0.129,0.07
		c0.038,0.005,0.054-0.001,0.05,0.001c-0.005-0.001-0.076,0.035-0.128,0.07c-0.114,0.078-0.232,0.178-0.345,0.283
		c-0.897,0.869-1.613,1.982-2.04,3.165c-0.048,0.138-0.199,0.21-0.337,0.163c-0.061-0.021-0.11-0.065-0.142-0.116
		c-0.426-0.727-1.148-1.273-1.826-1.894c-0.34-0.312-0.674-0.646-0.957-1.032c-0.14-0.194-0.267-0.397-0.381-0.61l-0.152-0.327
		c0.073,0.121-0.023-0.023,0.034,0.058c0.047,0.054,0.137,0.054,0.122,0.054c0.03-0.003,0.013,0,0.007,0.001
		C40.628,0.979,40.59,1,40.55,1.024c-0.329,0.222-0.642,0.559-0.924,0.89c-0.281,0.338-0.54,0.7-0.771,1.077
		c-0.461,0.753-0.812,1.577-0.977,2.435c-0.017,0.089-0.085,0.157-0.167,0.178l-0.205,0.053c-0.074,0.02-0.152-0.001-0.207-0.048
		c-0.576-0.505-1.187-1.026-1.648-1.696c-0.104-0.173-0.225-0.338-0.305-0.526L35.281,3.25l-0.033-0.069l-0.017-0.034l-0.008-0.017
		l-0.002-0.004l-0.001-0.002c0.062,0.105,0.017,0.028,0.03,0.051l-0.006-0.007c-0.002-0.005-0.033-0.037,0.014,0.015
		c0.032,0.034,0.103,0.033,0.088,0.034c0.015,0,0.014-0.003-0.001,0.003c-0.019,0.006-0.055,0.023-0.088,0.044
		c-0.283,0.177-0.558,0.46-0.805,0.735C33.47,5.13,32.706,6.519,32.5,8.001c-0.014,0.105-0.108,0.179-0.214,0.167
		c-0.033-0.004-0.067-0.019-0.093-0.038c-0.502-0.382-1.032-0.757-1.502-1.217C30.454,6.686,30.242,6.43,30.05,6.16
		c-0.094-0.137-0.172-0.284-0.259-0.426c0.005,0.006-0.032-0.052,0.007,0.007c-0.001-0.001-0.024-0.031-0.007-0.008
		c0.067,0.054,0.085,0.035,0.09,0.038c0.002,0.001-0.021,0.006-0.047,0.022c-0.051,0.029-0.109,0.072-0.164,0.12
		c-0.444,0.4-0.813,0.927-1.134,1.458c-0.319,0.538-0.582,1.109-0.775,1.703c-0.026,0.086-0.119,0.134-0.205,0.107
		c-0.018-0.005-0.035-0.015-0.049-0.025c-0.577-0.431-1.176-0.874-1.654-1.451c-0.124-0.14-0.228-0.297-0.335-0.45l-0.143-0.242
		c-0.015-0.023-0.067-0.118-0.051-0.083c0.083,0.062,0.074,0.02,0.045,0.042c-0.116,0.056-0.255,0.184-0.373,0.305
		c-0.121,0.124-0.236,0.258-0.345,0.398c-0.856,1.123-1.475,2.467-1.643,3.866c-0.011,0.09-0.093,0.154-0.183,0.143l-0.028-0.006
		c-0.735-0.227-1.494-0.384-2.259-0.471c-0.382-0.042-0.767-0.068-1.148-0.067c-0.19,0.001-0.381,0.009-0.562,0.032
		c-0.088,0.012-0.182,0.029-0.242,0.053c-0.048,0,0.003,0.062,0.014-0.115c-0.016-0.036,0.039,0.062,0.055,0.086
		c0.205,0.331,0.382,0.73,0.483,1.114c0.108,0.391,0.166,0.79,0.207,1.182c0.079,0.782,0.113,1.557,0.43,2.228
		c0.045,0.094,0.004,0.207-0.09,0.251c-0.057,0.027-0.124,0.021-0.175-0.007c-1.117-0.618-2.361-1.011-3.624-1.221
		c-0.316-0.051-0.634-0.09-0.95-0.107c-0.158-0.008-0.315-0.013-0.467-0.005c-0.074,0.005-0.151,0.01-0.214,0.023
		c-0.028,0.005-0.065,0.015-0.067,0.019c-0.014,0.004,0.013-0.003,0.023-0.024c0.046-0.043,0.035-0.143,0.022-0.154
		c0.141,0.288,0.27,0.593,0.362,0.944c0.082,0.335,0.127,0.67,0.15,1.006c0.008,0.116-0.079,0.216-0.194,0.224
		c-0.032,0.002-0.067-0.004-0.095-0.015c-0.634-0.249-1.292-0.442-1.96-0.581c-0.663-0.132-1.36-0.237-2.003-0.199
		c-0.073,0.006-0.158,0.021-0.186,0.033c0.002-0.003-0.01,0.012,0.03-0.026c0.033-0.017,0.052-0.17,0.025-0.176l0.054,0.119
		c0.067,0.165,0.153,0.302,0.205,0.489c0.049,0.18,0.125,0.362,0.148,0.54c0.031,0.179,0.072,0.358,0.081,0.538
		c0.074,0.719,0.016,1.421,0.068,2.085c0.01,0.129-0.086,0.243-0.216,0.253c-0.025,0.002-0.05,0-0.074-0.006
		c-0.616-0.149-1.25-0.293-1.866-0.528c-0.309-0.115-0.609-0.259-0.899-0.424c-0.146-0.081-0.28-0.181-0.42-0.271
		c0.001,0-0.076-0.048-0.011-0.01l-0.022-0.01c0.034,0.021,0.091,0.025,0.12,0.016c0.077-0.027,0.05-0.025,0.047-0.016
		c-0.023,0.029-0.055,0.092-0.081,0.154c-0.207,0.533-0.277,1.176-0.297,1.785c-0.016,0.617,0.041,1.237,0.17,1.838
		c0.029,0.138-0.059,0.274-0.197,0.304c-0.029,0.006-0.06,0.007-0.088,0.003c-0.328-0.042-0.659-0.072-0.978-0.069
		c-0.08,0-0.157,0.005-0.23,0.012c-0.065,0.004-0.155,0.029-0.145,0.026c0.006-0.013,0.035,0,0.079-0.11
		c0.01-0.05,0.011-0.087-0.003-0.128l-0.013-0.027l0.008,0.016l0.007,0.015l0.056,0.114c0.036,0.08,0.076,0.146,0.108,0.237
		c0.29,0.687,0.357,1.41,0.362,2.101c0,0.04-0.008,0.077-0.024,0.111l-0.008,0.017l-0.133,0.289l-0.004,0.008
		c-0.055,0.118-0.184,0.179-0.307,0.15c-0.467-0.108-0.94-0.194-1.414-0.242c-0.236-0.024-0.474-0.04-0.702-0.036
		c-0.111,0.003-0.229,0.008-0.315,0.026c-0.029-0.015-0.105,0.078,0.024-0.063c0.016-0.037,0.045-0.116,0.015-0.186
		c-0.017-0.032,0.006,0.015,0.008,0.019l0.039,0.083c0.108,0.209,0.203,0.466,0.284,0.726c0.069,0.253,0.119,0.508,0.15,0.765
		c0.06,0.513,0.048,1.017,0.051,1.5c0,0.107-0.061,0.203-0.147,0.253c-0.523,0.298-1.052,0.631-1.629,0.9
		c-0.288,0.135-0.587,0.253-0.895,0.348c-0.156,0.041-0.309,0.094-0.467,0.124l-0.237,0.045l-0.119,0.022l-0.059,0.011l-0.03,0.005
		l-0.007,0.001l-0.002,0c-0.025,0.008,0.207-0.071,0.108-0.037L0.511,29.59l-0.013,0.007L0.473,29.61
		c0.004,0.002,0.077-0.037,0.101-0.083c0.032-0.047,0.04-0.108,0.036-0.139l0.003-0.007c-0.005-0.019,0,0,0.014,0.023
		c0.017,0.038,0.057,0.098,0.094,0.149c0.079,0.108,0.17,0.218,0.27,0.324c0.198,0.212,0.413,0.415,0.639,0.607
		c0.453,0.383,0.942,0.728,1.452,1.033c0.151,0.09,0.201,0.287,0.11,0.438c-0.038,0.064-0.096,0.11-0.161,0.135
		c-0.339,0.13-0.672,0.277-0.991,0.441C1.881,32.613,1.724,32.7,1.58,32.793c-0.071,0.047-0.14,0.095-0.201,0.143
		c-0.051,0.024-0.123,0.15-0.07,0.033c-0.001-0.004,0.016-0.062-0.002-0.132C1.284,32.772,1.26,32.735,1.223,32.7
		c-0.019-0.017-0.041-0.03-0.062-0.038l0.027,0.014l0.031,0.016l0.125,0.063l0.251,0.13c0.172,0.108,0.356,0.21,0.51,0.332
		c0.326,0.228,0.615,0.499,0.886,0.774c0.542,0.553,0.988,1.153,1.518,1.61c0.265,0.228,0.542,0.433,0.851,0.579
		c0.141,0.084,0.33,0.139,0.457,0.197l0.537,0.16c0.188,0.056,0.294,0.253,0.239,0.44c-0.024,0.082-0.079,0.151-0.145,0.195
		c-0.674,0.453-1.315,1.036-2.095,1.483c-0.389,0.218-0.798,0.42-1.233,0.546l-0.162,0.051l-0.081,0.025l-0.041,0.013l-0.021,0.006
		l-0.005,0.001c0.053-0.024-0.125,0.057,0.117-0.055L2.92,39.25c-0.042,0.027,0.046-0.015,0.089-0.09
		c0.045-0.1,0.024-0.064,0.03-0.071c0-0.008,0,0.013-0.001,0.027l0.002,0.123c0.01,0.185,0.038,0.392,0.068,0.594
		c0.271,1.638,0.707,3.28,1.193,4.887c0.497,1.605,1.065,3.194,1.793,4.69c0.366,0.743,0.773,1.47,1.269,2.096
		c0.246,0.312,0.52,0.596,0.816,0.801c0.147,0.104,0.3,0.185,0.452,0.23c0.165,0.051,0.264,0.054,0.505,0.056
		c0.236,0.002,0.425,0.195,0.423,0.432c-0.001,0.117-0.05,0.223-0.127,0.3l-0.006,0.006c-0.122,0.119-0.333,0.335-0.413,0.467
		c-0.109,0.143-0.218,0.329-0.299,0.511c-0.172,0.37-0.281,0.785-0.381,1.226c-0.187,0.874-0.427,1.893-1.042,2.715l-0.115,0.151
		l-0.057,0.075l-0.015,0.019l-0.007,0.009l-0.003,0.005L7.09,58.512c-0.014,0.021,0.117-0.183,0.061-0.095l-0.01,0.02
		c-0.023,0.052,0.062-0.115,0.042-0.199c-0.003-0.05-0.016-0.098-0.033-0.136l-0.02-0.043c-0.015-0.028-0.035-0.053-0.058-0.074
		c-0.015-0.017-0.026-0.026-0.043-0.036c-0.001-0.003-0.008-0.004,0.009,0.002c0.02,0.009,0.064,0.022,0.106,0.033
		c0.178,0.045,0.396,0.075,0.608,0.096c0.431,0.04,0.875,0.047,1.317,0.031c0.885-0.033,1.77-0.156,2.619-0.382
		c0.241-0.064,0.489,0.079,0.554,0.321c0.042,0.157-0.006,0.318-0.109,0.428c-1.052,1.12-1.745,2.645-1.947,4.164
		c-0.021,0.184-0.033,0.378-0.018,0.523c0.002,0.037,0.009,0.066,0.012,0.08c-0.012,0.011,0.04,0.004-0.111-0.124
		c-0.1-0.093-0.318-0.067-0.327-0.051l0.074-0.024l0.147-0.049c0.187-0.069,0.397-0.129,0.632-0.179
		c0.229-0.061,0.443-0.083,0.662-0.117c0.876-0.113,1.726-0.059,2.526-0.075c0.252-0.005,0.461,0.195,0.466,0.448
		c0,0.018,0,0.042-0.002,0.059c-0.098,0.934-0.033,1.922,0.227,2.8c0.033,0.107,0.07,0.212,0.111,0.304
		c0.024,0.078,0.124,0.2,0.057,0.131c-0.022-0.017-0.148-0.107-0.343-0.042c-0.038,0.012-0.075,0.033-0.105,0.058l0.033-0.024
		l0.038-0.027l0.153-0.11c0.107-0.073,0.191-0.147,0.318-0.219c0.499-0.308,0.983-0.501,1.481-0.679
		c0.238-0.085,0.499,0.039,0.584,0.276c0.035,0.097,0.035,0.197,0.006,0.288l-0.003,0.009c-0.116,0.377-0.211,0.763-0.261,1.142
		c-0.025,0.187-0.04,0.379-0.031,0.536c-0.01,0.055,0.051,0.186-0.021,0.05c-0.002-0.016-0.143-0.144-0.273-0.142
		c-0.046-0.017-0.183,0.028-0.145,0.018l0.037-0.013l0.148-0.051c0.182-0.067,0.441-0.137,0.653-0.184
		c0.22-0.05,0.441-0.084,0.662-0.113c0.441-0.054,0.879-0.066,1.305-0.066c0.221,0,0.404,0.154,0.451,0.36l0.005,0.022l0.032,0.142
		l0.011,0.058l0.006,0.029l0.003,0.015l0.001,0.007v0.004l0.001,0l0,0l-0.027-0.109v0l0.001,0.001l0.006,0.019
		c0.019,0.044-0.04-0.117-0.097-0.154c-0.177-0.132-0.144-0.085-0.211-0.11c-0.104-0.008-0.055,0-0.04-0.009l0.103-0.035
		l0.017-0.006c0.243-0.083,0.507,0.046,0.59,0.289c0.032,0.095,0.032,0.194,0.005,0.284c-0.145,0.481-0.255,0.989-0.274,1.453
		c-0.004,0.109,0.004,0.229,0.015,0.272c0.002,0.019,0.003-0.004-0.013-0.022c-0.019-0.035-0.034-0.053-0.076-0.088
		c-0.065-0.063-0.161-0.083-0.242-0.091c-0.043-0.002-0.089,0.005-0.127,0.02l0.024-0.007l0.048-0.016l0.096-0.031
		c0.242-0.087,0.515-0.164,0.82-0.223c0.295-0.063,0.57-0.092,0.854-0.118C21.143,69.011,21.422,69,21.696,69
		c0.55-0.003,1.083,0.015,1.596,0.001c0.208-0.006,0.391,0.128,0.456,0.315c0.319,0.933,1.027,1.893,1.229,3.123
		c0.025,0.151,0.043,0.304,0.051,0.458c0.008,0.077,0.006,0.154,0.006,0.231v0.115v0.029v0.014v0.007
		c-0.045-0.324-0.012-0.089-0.022-0.161l0.001,0.002l0.001,0.003l0.007,0.024c0.01,0.02-0.036-0.126-0.098-0.173
		c-0.188-0.143-0.182-0.095-0.202-0.112c-0.031-0.004-0.042-0.002-0.033-0.004c-0.003,0,0.008,0,0.031-0.005
		c0.034-0.004,0.092-0.02,0.144-0.035c0.106-0.031,0.225-0.078,0.34-0.124c0.468-0.195,0.93-0.456,1.37-0.739
		c0.218-0.141,0.509-0.079,0.65,0.139c0.021,0.033,0.039,0.072,0.051,0.107c0.198,0.593,0.55,1.188,0.84,1.861
		c0.146,0.336,0.273,0.695,0.355,1.072c0.043,0.188,0.072,0.382,0.087,0.576c0.008,0.097,0.017,0.194,0.015,0.292v0.146v0.037v0.019
		v0.009v0.004c-0.004-0.048,0.009,0.111-0.009-0.108v0.002l0.003,0.016c0,0,0.002,0.013,0,0c-0.005-0.031-0.015-0.064-0.029-0.097
		c-0.029-0.065-0.079-0.123-0.129-0.159c-0.02-0.016-0.039-0.029-0.062-0.04c-0.149-0.061-0.134-0.025-0.123-0.037l0.066-0.012
		c0.059-0.013,0.129-0.034,0.2-0.058c0.143-0.049,0.292-0.11,0.438-0.178c0.296-0.135,0.588-0.292,0.872-0.464
		c0.568-0.342,1.107-0.74,1.597-1.183c0.194-0.176,0.494-0.161,0.67,0.033c0.033,0.037,0.062,0.081,0.081,0.124
		c0.075,0.166,0.158,0.33,0.246,0.465c0.04,0.064,0.093,0.129,0.108,0.143c-0.012,0.017,0.037-0.042-0.23-0.056
		c-0.08,0.004-0.155,0.04-0.209,0.079l-0.04,0.035c0.003-0.004-0.033,0.035,0.004-0.003l0.004-0.003l0.013-0.013l0.054-0.052
		c0.147-0.14,0.271-0.278,0.466-0.424c0.18-0.152,0.36-0.277,0.541-0.391c0.729-0.473,1.51-0.755,2.214-1.082
		c0.238-0.11,0.521-0.007,0.631,0.231l0.014,0.033c0.068,0.181,0.145,0.357,0.229,0.523c0.079,0.159,0.187,0.334,0.253,0.403
		c0.008,0.021,0.038,0.008-0.085-0.036c-0.045-0.024-0.268-0.024-0.371,0.084c-0.026,0.027,0.024-0.023,0.033-0.032l0.222-0.218
		c0.152-0.143,0.358-0.31,0.538-0.439c0.738-0.527,1.551-0.85,2.293-1.177c0.242-0.107,0.525,0.003,0.632,0.246
		c0.021,0.048,0.034,0.1,0.039,0.149c0.067,0.718,0.233,1.438,0.495,2.106c0.065,0.166,0.138,0.328,0.217,0.479
		c0.074,0.145,0.177,0.305,0.232,0.359c-0.001,0.008,0.034,0.008-0.088-0.039c-0.069-0.034-0.251-0.017-0.359,0.07
		c-0.071,0.065,0.009-0.011,0.007-0.01l0.204-0.204c0.155-0.138,0.333-0.299,0.5-0.413c1.362-1.003,2.994-1.265,3.97-2.197
		c0.192-0.184,0.497-0.177,0.682,0.016c0.072,0.076,0.114,0.168,0.128,0.264l0.001,0.006c0.19,1.323,0.822,2.628,1.672,3.684
		c0.106,0.129,0.218,0.255,0.33,0.363c0.056,0.053,0.113,0.106,0.162,0.143c0.025,0.037,0.152,0.072-0.004,0.03
		c-0.022-0.007-0.188-0.004-0.301,0.096c-0.16,0.176-0.061,0.078-0.072,0.075l0.068-0.118l0.141-0.238
		c0.122-0.17,0.244-0.359,0.376-0.501c0.517-0.617,1.142-1.071,1.712-1.508c0.214-0.164,0.52-0.123,0.683,0.091
		c0.013,0.017,0.026,0.038,0.037,0.056c0.235,0.412,0.534,0.796,0.871,1.153l0.006,0.007c0.119,0.126,0.155,0.301,0.11,0.456
		c-0.143,0.487-0.31,0.99-0.588,1.451c-0.125,0.237-0.305,0.44-0.456,0.659l-0.004,0.005l-0.001,0.001
		c0.107-0.157,0.029-0.043,0.053-0.077l-0.001,0.002l-0.006,0.01c-0.029,0.049,0.052-0.067,0.055-0.191
		c0.001-0.209-0.082-0.271-0.103-0.308c-0.075-0.074-0.072-0.059-0.078-0.065l0.086,0.029c0.086,0.023,0.19,0.044,0.296,0.061
		c0.874,0.124,1.827,0.095,2.738-0.015c0.27-0.033,0.515,0.16,0.548,0.43c0.011,0.09-0.005,0.179-0.038,0.256
		c-0.202,0.464-0.367,0.948-0.479,1.438c-0.058,0.244-0.098,0.491-0.119,0.728c-0.013,0.119-0.014,0.234-0.011,0.334
		c0.003,0.042,0.009,0.101,0.013,0.107c-0.028,0.056,0.099-0.064-0.295-0.21c-0.082-0.031-0.236,0.032-0.236,0.032l0.046-0.021
		l0.092-0.042l0.183-0.085c0.135-0.054,0.203-0.12,0.306-0.177c0.187-0.103,0.396-0.279,0.59-0.426
		c0.39-0.322,0.759-0.688,1.121-1.067c0.725-0.765,1.404-1.595,2.162-2.394c0.375-0.401,0.782-0.791,1.245-1.146
		c0.216-0.175,0.522-0.348,0.74-0.47l0.353-0.193l0.277-0.188c0.214-0.147,0.503-0.109,0.676,0.075
		c0.2,0.216,0.393,0.335,0.616,0.327c0.226,0.01,0.515-0.126,0.784-0.307c0.544-0.387,1.03-0.957,1.454-1.552
		c0.212-0.3,0.41-0.613,0.589-0.931c0.088-0.158,0.173-0.321,0.237-0.47c0.032-0.06,0.058-0.18,0.04-0.069l-0.011-0.289
		c-0.006-0.91,0.294-1.708,0.606-2.424l0.005-0.011c0.075-0.171,0.243-0.273,0.419-0.272l0.854,0.006
		c0.211,0.001,0.388,0.147,0.439,0.341c0.107,0.4,0.246,0.794,0.414,1.172c0.165,0.374,0.365,0.752,0.59,1.04
		c0.051,0.071,0.121,0.131,0.123,0.135c-0.033-0.018,0.016,0.001-0.093-0.031c-0.052-0.009-0.089-0.004-0.149,0.01
		c-0.076,0.014-0.159,0.068-0.201,0.13l0.118-0.135c0.142-0.165,0.279-0.33,0.48-0.501c0.369-0.352,0.751-0.588,1.146-0.835
		c0.202-0.127,0.469-0.066,0.596,0.136l0.023,0.043l0.006,0.013c0.237,0.502,0.519,0.988,0.846,1.434
		c0.164,0.221,0.339,0.436,0.522,0.62c0.087,0.09,0.191,0.179,0.251,0.215c0.022,0.017,0.018,0.008-0.002,0.004
		c0.013,0.007-0.054-0.017-0.112-0.006c-0.034,0.008-0.148,0.029-0.23,0.128c-0.018,0.022-0.032,0.046-0.042,0.069l0.01-0.017
		l0.015-0.023l0.029-0.047l0.058-0.093c0.1-0.16,0.279-0.239,0.455-0.217l0.008,0.001c0.293,0.037,0.573,0.109,0.875,0.121
		c0.3,0.016,0.597,0.06,0.898,0.047c0.3-0.008,0.603,0.013,0.901-0.017l0.898-0.077l0.034-0.003c0.13-0.012,0.253,0.045,0.331,0.139
		l0.508,0.618l0.03,0.044c-0.023-0.043-0.061-0.083-0.103-0.11l0.086,0.083c0.304,0.402,0.573,0.851,0.77,1.339l0.118,0.376
		l0.029,0.094l0.008,0.023l0.004,0.012v0.003c-0.154-0.31-0.042-0.085-0.076-0.154l0.001,0.001l0.004,0.004
		c0.003,0.003,0.03,0.042,0.015,0.016c-0.038-0.061-0.125-0.116-0.204-0.123c-0.105-0.001-0.057,0-0.068-0.002
		c0.003-0.004-0.01,0.007,0.015-0.005c0.135-0.052,0.339-0.184,0.512-0.311c0.718-0.539,1.364-1.224,1.896-1.965
		c0.073-0.102,0.19-0.159,0.307-0.163l0.276-0.009l0.019,0c0.126-0.004,0.241,0.059,0.31,0.155c0.218,0.312,0.437,0.633,0.593,0.997
		c0.088,0.177,0.154,0.363,0.209,0.555l0.044,0.142l0.011,0.036l0.006,0.018v0.001c-0.023-0.052,0.052,0.118-0.052-0.117
		l0.001,0.002l0.002,0.003l0.005,0.007c-0.005-0.003,0.041,0.057-0.025-0.035c-0.048-0.06-0.145-0.097-0.196-0.096
		c-0.105,0.006,0.013-0.009,0.058-0.041c0.261-0.131,0.548-0.349,0.807-0.568c0.264-0.223,0.515-0.464,0.753-0.718l0.023-0.025
		c0.127-0.136,0.34-0.143,0.476-0.016c0.014,0.014,0.027,0.029,0.039,0.044c0.168,0.225,0.369,0.425,0.501,0.677l0.108,0.182
		l0.054,0.091l0.027,0.045l0.014,0.023l0.007,0.011v0c-0.025-0.036,0.059,0.083-0.058-0.082l0.001,0.001l0.002,0.002l0.004,0.004
		l0.016,0.017c-0.03-0.04-0.083-0.077-0.139-0.092c-0.07-0.016-0.095-0.01-0.095-0.012l-0.032,0.004
		c-0.023,0.003-0.02,0.009-0.005-0.001c0.022-0.011,0.067-0.042,0.106-0.074c0.339-0.282,0.661-0.694,0.938-1.101l0.006-0.007
		c0.107-0.158,0.323-0.199,0.481-0.091l0.044,0.035c0.234,0.223,0.461,0.458,0.663,0.721c0.093,0.137,0.202,0.262,0.281,0.409
		l0.125,0.216l0.062,0.108c-0.024-0.034,0.055,0.079-0.054-0.076l0.001,0.001l0.003,0.003l0.005,0.005l0.01,0.011
		c0.028,0.03-0.062-0.075-0.113-0.08c-0.08-0.022-0.1-0.015-0.104-0.017c-0.014,0-0.027,0.002-0.039,0.007
		c-0.012,0.01,0.144-0.092,0.228-0.178c0.101-0.092,0.199-0.196,0.294-0.306c0.19-0.217,0.367-0.455,0.532-0.699
		c0.656-0.98,1.141-2.1,1.29-3.254l0.001-0.013c0.022-0.172,0.18-0.293,0.352-0.271l0.047,0.009
		c0.509,0.147,1.029,0.291,1.516,0.546c0.253,0.104,0.476,0.27,0.71,0.411l0.087,0.055c-0.093-0.054-0.013-0.009-0.028-0.019
		c0.031,0.015-0.062-0.032-0.096-0.025c-0.092,0-0.106,0.023-0.129,0.031c-0.054,0.042-0.007,0.005,0.006-0.03
		c0.041-0.08,0.081-0.19,0.113-0.302c0.244-0.927,0.246-1.968,0.09-2.942c-0.028-0.161,0.08-0.314,0.241-0.342
		c0.034-0.006,0.073-0.005,0.106,0.001c0.879,0.168,1.784,0.229,2.684,0.199c0.45-0.016,0.899-0.054,1.338-0.127
		c0.217-0.038,0.438-0.083,0.627-0.147c0.047-0.015,0.092-0.034,0.123-0.05c0.017-0.007,0.026-0.016,0.023-0.012
		c0.005,0.013-0.059,0.001-0.053,0.19c0.063,0.16,0.043,0.076,0.017,0.065l-0.059-0.064l-0.115-0.128
		c-0.149-0.172-0.32-0.389-0.439-0.592c-0.134-0.205-0.244-0.422-0.344-0.641c-0.199-0.438-0.341-0.889-0.485-1.321
		c-0.145-0.433-0.298-0.85-0.515-1.223c-0.214-0.374-0.5-0.697-0.834-0.967l-0.005-0.004c-0.107-0.087-0.124-0.245-0.037-0.352
		c0.054-0.066,0.135-0.098,0.213-0.092c0.736,0.053,1.48,0.046,2.213-0.033c0.364-0.041,0.733-0.097,1.067-0.195
		c0.079-0.024,0.164-0.055,0.213-0.083c0.032,0.012,0.013-0.089-0.027,0.127c0.012,0.06,0.025,0.081,0.048,0.105l-0.025-0.028
		l-0.047-0.052c-0.128-0.132-0.255-0.282-0.379-0.449c-0.479-0.643-0.749-1.395-0.976-2.108c-0.229-0.714-0.486-1.4-0.961-1.935
		c-0.075-0.083-0.068-0.21,0.014-0.285c0.056-0.05,0.134-0.063,0.2-0.042c0.806,0.27,1.648,0.437,2.5,0.522
		c0.848,0.077,1.721,0.101,2.547-0.037c0.197-0.024,0.462-0.153,0.291-0.054c-0.132-0.165-0.264-0.359-0.376-0.555
		c-0.224-0.39-0.381-0.813-0.497-1.238c-0.234-0.85-0.326-1.719-0.723-2.465c-0.033-0.059-0.012-0.132,0.047-0.165
		c0.025-0.013,0.055-0.017,0.08-0.013c0.755,0.133,1.523,0.199,2.291,0.194c0.384-0.004,0.769-0.023,1.144-0.082
		c0.176-0.028,0.398-0.072,0.499-0.143c0.028,0.106-0.067-0.07-0.117-0.121c-0.059-0.077-0.118-0.153-0.17-0.24
		c-0.45-0.664-0.647-1.44-0.812-2.194c-0.162-0.753-0.344-1.516-0.803-2.136C100.265,47.849,100.27,47.818,100.291,47.801z
		 M100.389,47.854c0.461,0.625,0.658,1.39,0.828,2.122c0.175,0.749,0.384,1.503,0.82,2.125c0.048,0.08,0.108,0.156,0.169,0.232
		l0.089,0.114c0.02,0.028,0.021,0.019,0.054,0.077c0.034,0.062-0.008,0.148-0.035,0.164c-0.218,0.155-0.399,0.157-0.598,0.203
		c-0.39,0.066-0.78,0.091-1.171,0.102c-0.781,0.017-1.563-0.038-2.336-0.162l0.128-0.178c0.437,0.795,0.541,1.69,0.781,2.503
		c0.119,0.409,0.273,0.803,0.487,1.164c0.106,0.179,0.22,0.343,0.361,0.516l0.05,0.064c0.006-0.016,0.104,0.167,0.029,0.248
		c-0.096,0.128-0.152,0.123-0.214,0.157c-0.119,0.046-0.229,0.072-0.342,0.095c-0.886,0.161-1.765,0.147-2.643,0.082
		c-0.876-0.074-1.748-0.232-2.594-0.5l0.214-0.327c0.545,0.594,0.836,1.355,1.076,2.064c0.239,0.714,0.498,1.4,0.93,1.969
		c0.101,0.136,0.217,0.274,0.353,0.412l0.049,0.052l0.021,0.024c0.036,0.044,0.067,0.083,0.078,0.167
		c-0.038,0.316-0.163,0.27-0.204,0.33c-0.115,0.065-0.21,0.095-0.31,0.128c-0.39,0.117-0.769,0.175-1.152,0.222
		c-0.766,0.089-1.535,0.103-2.303,0.054l0.171-0.448c0.386,0.305,0.723,0.679,0.97,1.104c0.25,0.422,0.417,0.875,0.568,1.313
		c0.286,0.878,0.598,1.717,1.176,2.354l0.117,0.126l0.059,0.063c0.011,0.032,0.037-0.012,0.118,0.202
		c0.019,0.25-0.1,0.283-0.133,0.333c-0.048,0.039-0.088,0.062-0.122,0.08c-0.071,0.037-0.134,0.062-0.196,0.083
		c-0.246,0.085-0.479,0.132-0.715,0.176c-0.47,0.082-0.939,0.126-1.41,0.146c-0.94,0.04-1.885-0.016-2.816-0.187l0.347-0.341
		c0.174,1.06,0.191,2.134-0.079,3.211c-0.039,0.137-0.082,0.272-0.158,0.422c-0.049,0.077-0.069,0.156-0.23,0.272
		c-0.049,0.025-0.096,0.061-0.219,0.061c-0.05,0.005-0.161-0.036-0.144-0.032l-0.071-0.04l-0.078-0.047
		c-0.21-0.122-0.404-0.268-0.633-0.359c-0.433-0.225-0.918-0.354-1.4-0.489l0.399-0.274c-0.158,1.29-0.671,2.49-1.368,3.553
		c-0.177,0.266-0.365,0.524-0.577,0.771c-0.106,0.124-0.217,0.244-0.342,0.361c-0.143,0.116-0.219,0.232-0.523,0.344
		c-0.03,0.007-0.063,0.012-0.097,0.014c-0.023,0.001-0.062,0.01-0.16-0.021c-0.068-0.014-0.183-0.114-0.164-0.102l-0.01-0.011
		l-0.005-0.005l-0.06-0.083l-0.054-0.091l-0.106-0.182c-0.066-0.125-0.164-0.23-0.243-0.347c-0.175-0.224-0.376-0.43-0.589-0.629
		l0.531-0.063c-0.308,0.45-0.619,0.877-1.076,1.269c-0.062,0.049-0.121,0.097-0.214,0.147c-0.041,0.023-0.1,0.052-0.185,0.072
		l-0.081,0.011c-0.016,0.002-0.056,0.008-0.142-0.014c-0.071-0.02-0.14-0.061-0.186-0.104l-0.019-0.019l-0.071-0.101l-0.012-0.019
		l-0.023-0.038l-0.047-0.076l-0.093-0.152c-0.109-0.212-0.288-0.38-0.43-0.572l0.538,0.002c-0.253,0.276-0.521,0.538-0.808,0.785
		c-0.292,0.246-0.577,0.479-0.96,0.678c-0.118,0.043-0.167,0.112-0.456,0.115c-0.073-0.005-0.191-0.05-0.261-0.118
		c-0.092-0.093-0.052-0.061-0.07-0.081l-0.005-0.007l-0.002-0.003l-0.055-0.122l-0.005-0.014l-0.009-0.029l-0.038-0.116
		c-0.045-0.156-0.101-0.31-0.176-0.457c-0.131-0.3-0.323-0.579-0.521-0.857l0.328,0.154l-0.302,0.012l0.307-0.163
		c-0.576,0.813-1.248,1.542-2.053,2.158c-0.213,0.152-0.404,0.298-0.712,0.425c-0.029,0.016-0.104,0.032-0.158,0.043
		c-0.041,0.003-0.021,0.018-0.156,0.007c-0.108-0.011-0.226-0.07-0.293-0.135c-0.04-0.039-0.027-0.031-0.043-0.048l-0.004-0.004
		l-0.079-0.16l-0.004-0.01l-0.006-0.019l-0.025-0.076l-0.099-0.306c-0.165-0.397-0.391-0.772-0.665-1.13l0.086,0.083
		c-0.052-0.039-0.099-0.092-0.131-0.147l0.029,0.044l-0.478-0.571l0.364,0.136l-0.959,0.092c-0.32,0.033-0.642,0.016-0.963,0.026
		c-0.32,0.015-0.643-0.027-0.964-0.042c-0.32-0.011-0.648-0.086-0.973-0.127l0.463-0.216l-0.057,0.094l-0.029,0.047l-0.014,0.023
		c-0.002,0.001-0.008,0.013-0.005,0.006c-0.017,0.029-0.037,0.059-0.062,0.087c-0.108,0.125-0.249,0.173-0.323,0.171
		c-0.096,0.011-0.199-0.008-0.22-0.02c-0.089-0.027-0.161-0.063-0.199-0.089c-0.19-0.117-0.304-0.227-0.423-0.342
		c-0.232-0.229-0.429-0.468-0.614-0.715c-0.37-0.494-0.682-1.022-0.948-1.576l0.625,0.191c-0.346,0.22-0.709,0.458-0.973,0.716
		c-0.138,0.11-0.282,0.281-0.425,0.45l-0.098,0.113c-0.065,0.077-0.172,0.146-0.271,0.175c-0.084,0.021-0.151,0.017-0.229,0.006
		c-0.165-0.033-0.157-0.058-0.241-0.097c-0.175-0.124-0.258-0.226-0.341-0.327c-0.317-0.404-0.526-0.81-0.722-1.233
		c-0.191-0.422-0.349-0.857-0.472-1.303l0.439,0.341l-0.83,0l0.424-0.283c-0.148,0.349-0.281,0.687-0.373,1.025
		c-0.045,0.169-0.087,0.337-0.105,0.505c-0.028,0.178-0.03,0.313-0.035,0.487l0.014,0.288c-0.005,0.307-0.078,0.364-0.112,0.482
		c-0.087,0.205-0.18,0.383-0.277,0.562c-0.195,0.354-0.407,0.693-0.636,1.023c-0.464,0.655-0.976,1.289-1.683,1.805
		c-0.361,0.241-0.788,0.488-1.342,0.494c-0.27,0.008-0.558-0.062-0.791-0.193c-0.245-0.124-0.424-0.301-0.589-0.477l0.676,0.075
		l-0.393,0.26l-0.354,0.194c-0.251,0.141-0.414,0.23-0.62,0.391c-0.39,0.298-0.765,0.65-1.123,1.034
		c-0.724,0.759-1.409,1.592-2.163,2.388c-0.381,0.397-0.775,0.789-1.215,1.151c-0.233,0.176-0.435,0.352-0.718,0.514
		c-0.13,0.075-0.276,0.177-0.393,0.222l-0.183,0.084l-0.092,0.042l-0.046,0.021c-0.027,0.022-0.22,0.071-0.335,0.045
		c-0.235-0.027-0.409-0.26-0.42-0.31c-0.058-0.104-0.067-0.162-0.082-0.217c-0.03-0.123-0.031-0.199-0.039-0.291
		c-0.007-0.168-0.002-0.322,0.013-0.471c0.027-0.298,0.076-0.583,0.141-0.862c0.129-0.558,0.312-1.096,0.54-1.616l0.51,0.686
		c-0.994,0.116-1.979,0.153-3.011,0.008c-0.131-0.021-0.263-0.045-0.409-0.085c-0.076-0.023-0.15-0.044-0.253-0.093
		c-0.059-0.035-0.11-0.047-0.225-0.167c-0.042-0.057-0.142-0.147-0.141-0.386c0.004-0.139,0.084-0.271,0.065-0.234l0.065-0.097
		c0.117-0.177,0.265-0.335,0.362-0.525c0.222-0.363,0.362-0.779,0.489-1.212l0.116,0.462c-0.378-0.402-0.726-0.846-1.008-1.341
		l0.72,0.146c-0.583,0.443-1.142,0.857-1.561,1.36c-0.116,0.125-0.187,0.247-0.281,0.368l-0.137,0.23l-0.068,0.118
		c-0.034,0.036,0.045-0.021-0.148,0.187c-0.146,0.128-0.362,0.139-0.429,0.123c-0.337-0.072-0.36-0.155-0.479-0.225
		c-0.096-0.073-0.171-0.144-0.248-0.216c-0.148-0.145-0.278-0.292-0.402-0.443c-0.963-1.208-1.649-2.612-1.88-4.171l0.811,0.286
		c-0.644,0.6-1.413,0.946-2.118,1.254c-0.708,0.308-1.386,0.596-1.946,1.015c-0.15,0.104-0.257,0.205-0.391,0.319l-0.204,0.204
		c-0.037,0.034,0.013-0.004-0.098,0.09c-0.145,0.123-0.38,0.136-0.495,0.093c-0.215-0.077-0.253-0.145-0.322-0.203
		c-0.211-0.224-0.3-0.403-0.406-0.597c-0.099-0.19-0.183-0.379-0.259-0.571c-0.298-0.766-0.479-1.56-0.556-2.373l0.671,0.395
		c-0.772,0.337-1.511,0.638-2.126,1.078c-0.154,0.115-0.274,0.206-0.426,0.344l-0.222,0.217l-0.08,0.075
		c-0.141,0.144-0.423,0.151-0.516,0.107c-0.22-0.079-0.272-0.161-0.334-0.216c-0.215-0.236-0.309-0.429-0.419-0.637
		c-0.104-0.205-0.19-0.409-0.269-0.616l0.644,0.264c-0.747,0.342-1.483,0.614-2.101,1.018c-0.158,0.099-0.306,0.202-0.433,0.31
		c-0.131,0.089-0.279,0.247-0.422,0.383L32.704,75.4l-0.074,0.065c-0.073,0.058-0.174,0.096-0.277,0.107
		c-0.37-0.012-0.407-0.142-0.491-0.188c-0.131-0.124-0.195-0.224-0.265-0.326c-0.13-0.202-0.226-0.397-0.316-0.596l0.751,0.157
		c-0.541,0.489-1.125,0.919-1.746,1.292c-0.312,0.187-0.631,0.359-0.968,0.513c-0.169,0.077-0.341,0.148-0.526,0.212
		c-0.094,0.032-0.189,0.062-0.301,0.086c-0.055,0.012-0.113,0.024-0.189,0.03c-0.075-0.002-0.149,0.034-0.379-0.06
		c-0.032-0.016-0.062-0.033-0.09-0.054c-0.058-0.044-0.114-0.111-0.15-0.185c-0.018-0.036-0.031-0.074-0.04-0.109l-0.003-0.015
		l-0.003-0.016l-0.01-0.139v-0.028v-0.114c0.003-0.076-0.006-0.152-0.011-0.228c-0.011-0.151-0.033-0.303-0.068-0.453
		c-0.064-0.301-0.17-0.6-0.299-0.901c-0.256-0.604-0.62-1.21-0.866-1.937l0.701,0.246c-0.482,0.308-0.978,0.59-1.523,0.817
		c-0.139,0.056-0.275,0.11-0.433,0.156c-0.079,0.023-0.154,0.045-0.256,0.061c-0.043,0.009-0.102,0.016-0.173,0.018
		c-0.024,0.002-0.069,0.002-0.135-0.01c-0.054-0.022-0.084,0.023-0.298-0.144c-0.073-0.057-0.142-0.207-0.136-0.204l-0.008-0.025
		l-0.001-0.003l-0.023-0.166v-0.006v-0.011v-0.022l-0.001-0.09c0-0.06,0.003-0.12-0.004-0.18c-0.006-0.12-0.02-0.239-0.04-0.358
		c-0.14-0.967-0.777-1.843-1.188-2.973l0.456,0.315c-0.559,0.013-1.096-0.006-1.618-0.003c-0.26,0-0.517,0.01-0.768,0.03
		c-0.249,0.022-0.508,0.05-0.736,0.1l-0.346,0.073l-0.382,0.124l-0.096,0.031l-0.048,0.016l-0.022,0.007
		c-0.056,0.017-0.118,0.026-0.178,0.025c-0.115,0.006-0.238-0.05-0.334-0.122c-0.065-0.058-0.099-0.106-0.138-0.167
		c-0.042-0.079-0.071-0.163-0.08-0.21c-0.049-0.219-0.044-0.369-0.043-0.527c0.028-0.607,0.155-1.152,0.317-1.696l0.611,0.567
		c-0.061,0.023-0.124,0.046-0.197,0.066c-0.088,0.016-0.143,0.051-0.353,0.029c-0.092-0.034-0.088,0.015-0.283-0.138
		c-0.065-0.046-0.141-0.212-0.124-0.182l-0.007-0.019l-0.037-0.15l-0.037-0.167l0.455,0.382c-0.408-0.001-0.807,0.011-1.194,0.058
		c-0.193,0.024-0.385,0.054-0.572,0.097c-0.195,0.046-0.341,0.079-0.552,0.154l-0.148,0.051l-0.037,0.013
		c0.014-0.001-0.15,0.042-0.222,0.029c-0.18-0.001-0.371-0.163-0.397-0.224c-0.186-0.313-0.134-0.401-0.163-0.551
		c-0.012-0.26,0.009-0.486,0.038-0.712c0.06-0.449,0.167-0.876,0.297-1.297l0.587,0.574c-0.45,0.157-0.898,0.348-1.258,0.565
		c-0.094,0.049-0.202,0.14-0.302,0.207l-0.153,0.11l-0.038,0.027c0,0-0.026,0.02-0.006,0.003c-0.044,0.033-0.095,0.061-0.146,0.081
		c-0.256,0.085-0.446-0.032-0.518-0.085c-0.259-0.233-0.266-0.35-0.348-0.497c-0.061-0.138-0.107-0.271-0.148-0.404
		c-0.307-1.051-0.368-2.109-0.26-3.171l0.463,0.507c-0.852,0.014-1.663-0.035-2.431,0.065c-0.406,0.062-0.706,0.104-1.12,0.255
		l-0.147,0.049l-0.074,0.024c-0.06,0.032-0.33,0.06-0.476-0.062c-0.232-0.194-0.214-0.305-0.254-0.392
		c-0.022-0.087-0.032-0.16-0.038-0.226c-0.024-0.268-0.004-0.488,0.02-0.715c0.109-0.889,0.375-1.718,0.737-2.511
		c0.367-0.789,0.851-1.533,1.459-2.174l0.445,0.749c-0.926,0.246-1.872,0.375-2.821,0.41c-0.476,0.016-0.951,0.009-1.435-0.036
		c-0.244-0.025-0.483-0.054-0.75-0.122c-0.068-0.018-0.135-0.037-0.221-0.072c-0.037-0.013-0.094-0.042-0.146-0.073
		c-0.039-0.026-0.074-0.053-0.111-0.088c-0.031-0.032-0.059-0.069-0.083-0.108l-0.032-0.061c-0.018-0.045-0.032-0.1-0.036-0.157
		c0.026-0.317,0.059-0.231,0.052-0.259l0.074-0.113l0.012-0.016l0.047-0.062l0.094-0.122c0.501-0.662,0.712-1.478,0.913-2.386
		c0.107-0.452,0.231-0.932,0.45-1.395c0.108-0.234,0.232-0.449,0.401-0.67c0.181-0.246,0.298-0.355,0.502-0.559l0.29,0.737
		c-0.182,0-0.511-0.013-0.751-0.101c-0.254-0.081-0.478-0.206-0.677-0.346c-0.398-0.283-0.713-0.624-0.99-0.978
		c-0.553-0.71-0.971-1.479-1.349-2.257c-0.746-1.563-1.311-3.184-1.806-4.821c-0.484-1.643-0.912-3.291-1.183-5.004
		c-0.031-0.217-0.06-0.432-0.071-0.671c-0.003-0.06-0.004-0.122-0.001-0.195c0.003-0.039,0.003-0.071,0.015-0.131
		c0.011-0.034-0.008-0.024,0.05-0.148c0.053-0.101,0.149-0.169,0.132-0.155L2.5,38.638l0.126-0.058l0.004-0.001l0.018-0.005
		l0.035-0.011l0.071-0.022l0.142-0.044c0.383-0.106,0.741-0.282,1.092-0.474c0.701-0.391,1.331-0.952,2.066-1.442l0.094,0.636
		l-0.536-0.164c-0.216-0.09-0.388-0.144-0.571-0.248c-0.365-0.178-0.693-0.424-0.991-0.685c-0.599-0.529-1.043-1.145-1.545-1.66
		c-0.25-0.258-0.507-0.503-0.793-0.706c-0.14-0.112-0.285-0.189-0.426-0.284l-0.245-0.13l-0.125-0.064l-0.031-0.016
		c0,0-0.022-0.011-0.004-0.002c-0.03-0.016-0.061-0.036-0.089-0.061c-0.119-0.053-0.16-0.34-0.12-0.391
		c0.124-0.291,0.209-0.285,0.298-0.38c0.086-0.067,0.172-0.125,0.257-0.18c0.17-0.108,0.342-0.201,0.516-0.29
		c0.347-0.175,0.701-0.326,1.06-0.461l-0.05,0.572c-0.539-0.328-1.052-0.695-1.531-1.108c-0.24-0.207-0.469-0.426-0.688-0.664
		c-0.11-0.118-0.214-0.244-0.315-0.384c-0.05-0.074-0.099-0.141-0.146-0.242c-0.022-0.045-0.048-0.096-0.064-0.192L0,29.412
		c-0.001-0.049,0.012-0.129,0.049-0.195c0.031-0.062,0.102-0.125,0.119-0.134l0.025-0.013l0.013-0.006l0.116-0.041l0.007-0.001
		l0.026-0.005l0.054-0.01l0.107-0.02l0.214-0.039c0.143-0.025,0.281-0.074,0.422-0.109c0.278-0.083,0.552-0.188,0.819-0.311
		c0.537-0.244,1.051-0.561,1.594-0.866l-0.147,0.253c0.002-0.496,0.015-0.975-0.036-1.438c-0.027-0.23-0.069-0.456-0.127-0.677
		c-0.064-0.208-0.132-0.414-0.248-0.643l-0.038-0.083c-0.01-0.025-0.005-0.004-0.027-0.066c-0.033-0.1-0.021-0.212,0.024-0.271
		c0.206-0.239,0.265-0.166,0.352-0.209c0.154-0.029,0.283-0.03,0.417-0.034c0.262-0.002,0.514,0.017,0.765,0.044
		c0.502,0.053,0.995,0.146,1.482,0.262l-0.311,0.159l0.158-0.335l-0.032,0.127c0.002-0.662-0.068-1.317-0.304-1.889
		c-0.021-0.069-0.069-0.151-0.102-0.227l-0.055-0.115l-0.022-0.055c-0.019-0.062-0.029-0.119-0.006-0.189
		c0.052-0.152,0.124-0.165,0.165-0.199C5.637,22,5.72,22.004,5.822,21.988c0.095-0.008,0.188-0.013,0.278-0.013
		c0.36-0.001,0.707,0.033,1.052,0.079l-0.285,0.308c-0.135-0.646-0.19-1.304-0.17-1.96c0.03-0.659,0.091-1.306,0.347-1.964
		c0.038-0.084,0.074-0.167,0.148-0.264c0.051-0.048,0.077-0.113,0.234-0.159c0.049-0.011,0.126-0.006,0.179,0.015l0.032,0.015
		L7.727,18.1c0.127,0.082,0.248,0.175,0.381,0.249c0.264,0.151,0.538,0.286,0.826,0.395c0.574,0.223,1.186,0.367,1.806,0.52
		l-0.29,0.247c-0.05-0.721,0.011-1.413-0.055-2.078c-0.007-0.168-0.044-0.329-0.071-0.492c-0.02-0.168-0.084-0.309-0.123-0.465
		c-0.035-0.151-0.131-0.315-0.194-0.472l-0.053-0.119c-0.043-0.044-0.028-0.249,0.041-0.295c0.066-0.074,0.098-0.075,0.138-0.097
		c0.134-0.051,0.225-0.055,0.323-0.066c0.746-0.039,1.435,0.079,2.131,0.218c0.691,0.147,1.369,0.351,2.027,0.613l-0.289,0.208
		c-0.02-0.314-0.061-0.626-0.132-0.926c-0.07-0.284-0.188-0.58-0.333-0.879c-0.03-0.051-0.042-0.19,0.03-0.27
		c0.041-0.047,0.098-0.083,0.123-0.092c0.071-0.033,0.115-0.039,0.166-0.05c0.098-0.019,0.184-0.023,0.272-0.028
		c0.174-0.007,0.342-0.001,0.51,0.008c0.335,0.021,0.665,0.063,0.992,0.118c1.305,0.225,2.581,0.635,3.744,1.286l-0.265,0.244
		c-0.351-0.761-0.374-1.587-0.45-2.349c-0.037-0.384-0.09-0.761-0.188-1.124c-0.101-0.371-0.238-0.695-0.44-1.029
		c-0.032-0.061-0.035-0.043-0.09-0.168c-0.038-0.11,0.046-0.23,0.085-0.248c0.044-0.035,0.076-0.046,0.109-0.062
		c0.122-0.044,0.224-0.058,0.328-0.073c0.205-0.025,0.406-0.031,0.605-0.032c0.399,0.001,0.795,0.031,1.188,0.076
		c0.786,0.094,1.562,0.259,2.317,0.497l-0.211,0.137c0.188-1.478,0.833-2.851,1.729-4.016c0.115-0.145,0.236-0.285,0.365-0.421
		c0.136-0.134,0.258-0.267,0.466-0.374c0.051-0.01,0.142-0.089,0.302,0.027c0.08,0.1,0.061,0.092,0.096,0.143l0.135,0.224
		c0.102,0.141,0.197,0.287,0.314,0.417c0.451,0.537,1.028,0.96,1.61,1.388l-0.254,0.082c0.196-0.621,0.466-1.216,0.792-1.776
		c0.334-0.558,0.696-1.096,1.197-1.555c0.064-0.057,0.134-0.111,0.221-0.162c0.042-0.025,0.094-0.051,0.173-0.066
		c0.045-0.001,0.103-0.02,0.206,0.056c0.035,0.031,0.021,0.021,0.033,0.035l0.038,0.058c0.081,0.129,0.153,0.264,0.24,0.389
		c0.179,0.248,0.376,0.482,0.601,0.695c0.445,0.43,0.962,0.792,1.476,1.176l-0.306,0.129c0.214-1.593,0.999-3.033,2.021-4.23
		c0.268-0.297,0.528-0.584,0.898-0.824c0.049-0.03,0.099-0.058,0.172-0.083c0.029-0.012,0.076-0.025,0.139-0.026
		c0.011-0.006,0.104,0.006,0.159,0.046c0.073,0.054,0.052,0.048,0.066,0.06l0.006,0.007l0.036,0.061l0.007,0.016L35.64,3.01
		l0.03,0.062l0.06,0.124c0.072,0.168,0.185,0.316,0.278,0.473c0.424,0.605,1.001,1.098,1.589,1.604L37.39,5.224l0.213-0.057
		l-0.167,0.178c0.171-0.928,0.539-1.802,1.018-2.598c0.24-0.399,0.508-0.779,0.804-1.14c0.305-0.357,0.606-0.702,1.027-0.995
		c0.057-0.036,0.117-0.071,0.194-0.103c0.049-0.015,0.085-0.034,0.173-0.035c0.014-0.007,0.129,0.007,0.203,0.07
		c0.085,0.089-0.001-0.022,0.092,0.118l0.137,0.289c0.103,0.187,0.217,0.368,0.344,0.541c0.257,0.345,0.568,0.654,0.898,0.953
		c0.654,0.597,1.428,1.155,1.939,2.003l-0.478,0.047c0.457-1.28,1.185-2.436,2.159-3.396c0.126-0.119,0.256-0.233,0.412-0.341
		c0.085-0.053,0.153-0.107,0.308-0.152c0.035-0.01,0.091-0.021,0.171-0.011c0.021-0.003,0.138,0.038,0.186,0.091
		c0.06,0.062,0.026,0.031,0.045,0.052l0.047,0.085l0.013,0.025l0.025,0.051c0.125,0.278,0.287,0.539,0.476,0.782
		C48,2.173,48.49,2.586,48.983,3.016l-0.42,0.036c0.099-0.117,0.196-0.218,0.281-0.294l0.304-0.254
		c0.202-0.155,0.41-0.305,0.626-0.439c0.43-0.272,0.88-0.505,1.344-0.705c0.928-0.396,1.898-0.673,2.893-0.835
		c0.505-0.074,0.987-0.145,1.554-0.094c0.074,0.01,0.156,0.022,0.265,0.063c0.041,0.02,0.081,0.044,0.117,0.071
		c0.065,0.01,0.169,0.285,0.135,0.325l-0.003,0.022l-0.001,0.006l-0.035,0.109l-0.005,0.01L56.02,1.076
		c-0.047,0.103-0.1,0.204-0.136,0.31c-0.086,0.209-0.141,0.429-0.188,0.651c-0.187,0.895,0.001,1.864-0.128,2.917l-0.634-0.176
		c0.2-0.469,0.438-0.919,0.713-1.349c0.277-0.43,0.572-0.84,0.967-1.217c0.104-0.095,0.198-0.186,0.392-0.282l0.087-0.033
		c0.013-0.011,0.166-0.03,0.252,0.004c0.048,0.014,0.095,0.038,0.124,0.057l0.018,0.015l0.019,0.015l0.088,0.108l0.003,0.005
		l0.005,0.009l0.086,0.146c0.112,0.195,0.251,0.375,0.394,0.551c0.298,0.345,0.651,0.651,1.03,0.942l-0.544,0.161
		c0.249-0.706,0.595-1.367,1.006-1.982c0.423-0.613,0.868-1.188,1.493-1.686C61.15,0.18,61.232,0.12,61.359,0.06
		c0.085-0.023,0.119-0.077,0.347-0.055c0.062,0.004,0.203,0.076,0.257,0.154l0.01,0.014l0.005,0.007l0.048,0.083l0.027,0.054
		c0.078,0.143,0.137,0.295,0.228,0.431c0.096,0.133,0.168,0.279,0.281,0.403c0.105,0.127,0.204,0.259,0.327,0.378
		c0.462,0.491,1.022,0.921,1.562,1.431l-0.498-0.022c0.571-0.456,1.14-0.862,1.606-1.34c0.107-0.123,0.228-0.246,0.321-0.371
		c0.089-0.133,0.186-0.229,0.272-0.398l0.134-0.232c0.025-0.039-0.011,0.005,0.066-0.102c0.082-0.133,0.302-0.186,0.367-0.174
		c0.194,0.013,0.236,0.06,0.312,0.091c0.228,0.136,0.357,0.269,0.5,0.408c0.537,0.557,0.949,1.171,1.308,1.827
		c0.354,0.655,0.633,1.356,0.805,2.094l-0.61-0.256c0.652-0.401,1.307-0.724,1.876-1.123c0.148-0.094,0.275-0.207,0.41-0.312
		c0.141-0.105,0.234-0.222,0.356-0.329c0.116-0.114,0.233-0.277,0.351-0.413l0.021-0.027c0.014-0.014-0.01,0.003,0.074-0.076
		c0.113-0.117,0.336-0.131,0.407-0.109c0.195,0.045,0.241,0.103,0.308,0.146c0.116,0.092,0.187,0.174,0.258,0.257
		c0.521,0.657,0.829,1.349,1.099,2.078c0.256,0.728,0.426,1.492,0.471,2.275l-0.5-0.407l0.119-0.019l-0.354,0.326
		c0.254-1.025,0.699-1.978,1.279-2.845c0.146-0.216,0.303-0.428,0.474-0.633c0.179-0.206,0.346-0.401,0.615-0.6
		c0.081-0.049,0.134-0.104,0.33-0.156c0.053-0.01,0.129-0.021,0.227-0.003c0.082,0.017,0.172,0.061,0.236,0.117
		c0.073,0.068,0.029,0.029,0.05,0.049l0.008,0.009l0.066,0.098l0.011,0.018l0.021,0.036c0.058,0.095,0.108,0.193,0.171,0.285
		c0.125,0.184,0.267,0.358,0.419,0.526c0.618,0.673,1.472,1.163,2.267,1.867c0.196,0.18,0.388,0.373,0.562,0.587
		c0.165,0.203,0.345,0.48,0.458,0.718c0.054,0.129,0.098,0.19,0.159,0.375c0.044,0.13,0.093,0.257,0.122,0.395
		c0.076,0.267,0.104,0.556,0.112,0.845L80.97,8.029c1.251-0.361,2.533-0.534,3.84-0.501c0.336,0.019,0.641,0.024,1.043,0.139
		c0.057,0.02,0.112,0.037,0.205,0.095l0.075,0.057c0.039,0.037,0.08,0.09,0.107,0.141c0.048,0.063,0.065,0.285,0.019,0.368
		l-0.006,0.013l-0.056,0.102l-0.119,0.176c-0.085,0.114-0.143,0.243-0.215,0.364c-0.256,0.505-0.392,1.069-0.487,1.675l-0.453-0.462
		c0.537-0.071,1.078-0.114,1.624-0.118c0.272-0.002,0.547,0.008,0.828,0.035c0.141,0.013,0.284,0.033,0.438,0.066
		c0.077,0.018,0.163,0.041,0.268,0.086c0.03,0.014,0.075,0.042,0.11,0.066c0.021,0.018,0.026,0.016,0.062,0.05
		c0.052,0.052,0.104,0.138,0.123,0.229c0.023,0.237-0.008,0.176-0.003,0.206l-0.002,0.006l-0.068,0.148l-0.007,0.009l-0.012,0.019
		c-0.285,0.385-0.482,0.822-0.615,1.292c-0.134,0.471-0.199,0.977-0.288,1.508l-0.064-0.283l0.092,0.14l-0.363-0.172
		c0.841-0.089,1.684-0.086,2.518-0.005c0.837,0.087,1.655,0.221,2.482,0.518c0.105,0.041,0.209,0.083,0.324,0.146
		c0.058,0.031,0.121,0.068,0.196,0.133c0.044,0.048,0.101,0.083,0.153,0.239c0.054,0.051-0.038,0.362-0.066,0.35l-0.012,0.015
		l-0.078,0.078l-0.421,0.376c-0.254,0.277-0.489,0.572-0.687,0.905c-0.401,0.659-0.689,1.435-1.18,2.162l-0.202-0.537
		c0.227,0.059,0.451,0.124,0.68,0.211c0.115,0.045,0.228,0.09,0.357,0.166c0.065,0.047,0.132,0.061,0.25,0.228
		c0.023,0.052,0.075,0.118,0.055,0.272c-0.001,0.071-0.087,0.199-0.079,0.182l-0.014,0.016l-0.085,0.08l-0.029,0.025
		c-0.326,0.259-0.608,0.564-0.848,0.908l-0.321-0.533c0.852-0.097,1.707-0.097,2.554-0.017c0.849,0.087,1.682,0.222,2.517,0.523
		c0.105,0.042,0.211,0.085,0.325,0.148c0.062,0.04,0.116,0.062,0.207,0.157c0.021,0.025,0.042,0.042,0.074,0.108
		c0.014,0.028,0.024,0.058,0.032,0.087c0.013,0.059,0.01,0.143-0.017,0.21c-0.037,0.087-0.053,0.093-0.049,0.09l-0.013,0.015
		l-0.085,0.084l-0.431,0.388c-0.26,0.286-0.498,0.592-0.698,0.935c-0.406,0.679-0.699,1.473-1.213,2.2l-0.271-0.488
		c1.214-0.071,2.425,0.027,3.61,0.298c0.297,0.071,0.591,0.15,0.89,0.266c0.155,0.071,0.283,0.097,0.491,0.276
		c0.034,0.044,0.062,0.056,0.1,0.16c0.013,0.029,0.034,0.1,0.003,0.21c-0.049,0.121-0.061,0.107-0.061,0.113l-0.067,0.068
		l-0.02,0.017l-0.039,0.035l-0.155,0.138c-0.106,0.09-0.21,0.182-0.298,0.29c-0.089,0.106-0.193,0.199-0.271,0.316
		c-0.17,0.22-0.319,0.459-0.461,0.705l-0.065-0.355c0.407,0.351,0.785,0.712,1.187,1.027c0.398,0.317,0.829,0.587,1.269,0.789
		l0.368,0.144l0.092,0.036c-0.013-0.008,0.102,0.042,0.153,0.105c0.056,0.053,0.086,0.186,0.076,0.249
		c-0.048,0.223-0.112,0.236-0.164,0.318c-0.215,0.237-0.433,0.39-0.659,0.55c-0.451,0.31-0.925,0.568-1.411,0.8l-0.092-0.504
		c0.596,0.055,1.188,0.144,1.774,0.284c0.293,0.072,0.583,0.153,0.877,0.27c0.074,0.034,0.146,0.062,0.226,0.106
		c0.079,0.06,0.149,0.041,0.287,0.27c0.023,0.062,0.025,0.146,0.007,0.205c-0.025,0.078-0.016,0.038-0.025,0.06l-0.007,0.012
		l-0.004,0.005l-0.069,0.081l-0.02,0.018l-0.078,0.069l-0.156,0.137c-0.211,0.18-0.392,0.393-0.562,0.613
		c-0.171,0.22-0.317,0.461-0.458,0.708c-0.279,0.497-0.507,1.039-0.813,1.565l-0.179-0.363c0.489,0.067,0.976,0.155,1.457,0.287
		c0.241,0.066,0.479,0.142,0.721,0.249c0.062,0.031,0.122,0.058,0.188,0.1c0.029,0.016,0.069,0.047,0.104,0.077
		c0.015,0.009,0.044,0.042,0.066,0.072l0.031,0.047c0.018,0.035,0.034,0.101,0.026,0.16c-0.034,0.15-0.041,0.104-0.048,0.129
		l-0.004,0.004l-0.056,0.062l-0.008,0.007l-0.017,0.014l-0.065,0.056l-0.132,0.112c-0.71,0.604-1.143,1.447-1.568,2.323l-0.13-0.286
		c1.449,0.396,2.486,1.461,3.754,1.978c0.32,0.135,0.632,0.241,0.976,0.315l0.129,0.028l0.064,0.014l0.033,0.008
		c0.033,0.01,0.069,0.028,0.098,0.05c0.119,0.128,0.064,0.247,0.05,0.293c-0.021,0.057-0.047,0.105-0.074,0.145
		c-0.107,0.167-0.23,0.3-0.354,0.433c-0.509,0.515-1.083,0.942-1.684,1.327l0.021-0.207c0.272,0.268,0.543,0.572,0.724,0.921
		c0.189,0.345,0.321,0.716,0.42,1.088c0.194,0.745,0.297,1.498,0.592,2.186c0.153,0.344,0.317,0.664,0.562,0.963l0.085,0.114
		c0.082,0.126-0.043,0.216-0.077,0.232c-0.102,0.055-0.196,0.079-0.292,0.102c-0.191,0.045-0.382,0.069-0.573,0.088
		c-0.765,0.071-1.531,0.047-2.291-0.03l0.04-0.011L100.389,47.854z"/>
</g>
</svg>
