<?xml version="1.0" encoding="utf-8"?>
<!-- Generator: Adobe Illustrator 21.0.0, SVG Export Plug-In . SVG Version: 6.00 Build 0)  -->
<svg version="1.1" id="Layer_1" xmlns="http://www.w3.org/2000/svg" xmlns:xlink="http://www.w3.org/1999/xlink" x="0px" y="0px"
	 viewBox="0 0 168 148" enable-background="new 0 0 168 148" width="168px" height="148px" xml:space="preserve">
<g id="Layer_1_1_">
	<g>
		<g>
			<g>
				<defs>
					<rect id="SVGID_1_" width="168" height="148"/>
				</defs>
				<clipPath id="SVGID_2_">
					<use xlink:href="#SVGID_1_"  overflow="visible"/>
				</clipPath>
				<rect id="colour" clip-path="url(#SVGID_2_)" fill="#F48789" width="168" height="148"/>
			</g>
		</g>
	</g>
	<g>
		<g>
			<g>
				<defs>
					<rect id="SVGID_3_" width="168" height="148"/>
				</defs>
				<clipPath id="SVGID_4_">
					<use xlink:href="#SVGID_3_"  overflow="visible"/>
				</clipPath>
				<g id="strokes" clip-path="url(#SVGID_4_)">
					<path  opacity="0.3"  fill="none" stroke="#FFFFFF" stroke-width="2" stroke-linecap="round" stroke-miterlimit="10" d="
					M174.3,142.8v15.9 M154.3,142.8v15.9 M134.3,142.8v15.9 M114.3,142.8v15.9 M94.3,142.8v15.9 M74.3,142.8v15.9 M54.3,142.8v15.9
					 M34.3,142.8v15.9 M14.3,142.8v15.9 M164.3,122.8v15.9 M144.3,122.8v15.9 M124.3,122.8v15.9 M104.3,122.8v15.9 M84.3,122.8v15.9
					 M64.3,122.8v15.9 M44.3,122.8v15.9 M24.3,122.8v15.9 M4.3,122.8v15.9 M174.3,102.8v15.9 M154.3,102.8v15.9 M134.3,102.8v15.9
					 M114.3,102.8v15.9 M94.3,102.8v15.9 M74.3,102.8v15.9 M54.3,102.8v15.9 M34.3,102.8v15.9 M14.3,102.8v15.9 M164.3,82.8v15.9
					 M144.3,82.8v15.9 M124.3,82.8v15.9 M104.3,82.8v15.9 M84.3,82.8v15.9 M64.3,82.8v15.9 M44.3,82.8v15.9 M24.3,82.8v15.9
					 M4.3,82.8v15.9 M174.3,62.8v15.9 M154.3,62.8v15.9 M134.3,62.8v15.9 M114.3,62.8v15.9 M94.3,62.8v15.9 M74.3,62.8v15.9
					 M54.3,62.8v15.9 M34.3,62.8v15.9 M14.3,62.8v15.9 M164.3,42.8v15.9 M144.3,42.8v15.9 M124.3,42.8v15.9 M104.3,42.8v15.9
					 M84.3,42.8v15.9 M64.3,42.8v15.9 M44.3,42.8v15.9 M24.3,42.8v15.9 M4.3,42.8v15.9 M174.3,22.8v15.9 M154.3,22.8v15.9
					 M134.3,22.8v15.9 M114.3,22.8v15.9 M94.3,22.8v15.9 M74.3,22.8v15.9 M54.3,22.8v15.9 M34.3,22.8v15.9 M14.3,22.8v15.9
					 M164.3,2.8v15.9 M144.3,2.8v15.9 M124.3,2.8v15.9 M104.3,2.8v15.9 M84.3,2.8v15.9 M64.3,2.8v15.9 M44.3,2.8v15.9 M24.3,2.8
					v15.9 M4.3,2.8v15.9"/>
					</g>
			</g>
		</g>
	</g>
</g>
</svg>
