<?xml version="1.0" encoding="utf-8"?>
<!-- Generator: Adobe Illustrator 21.0.0, SVG Export Plug-In . SVG Version: 6.00 Build 0)  -->
<svg version="1.1" id="Layer_1" xmlns="http://www.w3.org/2000/svg" xmlns:xlink="http://www.w3.org/1999/xlink" x="0px" y="0px"
	 viewBox="0 0 168 148" enable-background="new 0 0 168 148" width="168px" height="148px" xml:space="preserve">
<g id="Layer_3_1_">
	<g>
		<g>
			<defs>
				<rect id="SVGID_1_" width="168" height="148"/>
			</defs>
			<clipPath id="SVGID_2_">
				<use xlink:href="#SVGID_1_"  overflow="visible"/>
			</clipPath>
			<rect id="colour" clip-path="url(#SVGID_2_)" fill="#F48789" width="168" height="148"/>
		</g>
	</g>
	<g>
		<g>
			<defs>
				<rect id="SVGID_3_" width="168" height="148"/>
			</defs>
			<clipPath id="SVGID_4_">
				<use xlink:href="#SVGID_3_"  overflow="visible"/>
			</clipPath>
			<g id="strokes" clip-path="url(#SVGID_4_)">
				<path opacity="0.3"  fill="none" stroke="#FFFFFF" stroke-width="2" stroke-miterlimit="10" d="
				M167.1,125l8.3,8.3 M167.1,133.3l8.3-8.3 M149.1,125l8.3,8.3 M149.1,133.3l8.3-8.3 M131.1,125l8.3,8.3 M131.1,133.3l8.3-8.3
				 M113.1,125l8.3,8.3 M113.1,133.3l8.3-8.3 M95.1,125l8.3,8.3 M95.1,133.3l8.3-8.3 M77.1,125l8.3,8.3 M77.1,133.3l8.3-8.3
				 M59.1,125l8.3,8.3 M59.1,133.3l8.3-8.3 M41.1,125l8.3,8.3 M41.1,133.3l8.3-8.3 M23.1,125l8.3,8.3 M23.1,133.3l8.3-8.3 M5.1,125
				l8.3,8.3 M5.1,133.3l8.3-8.3 M158.1,142.9l8.3,8.2 M158.1,151.1l8.3-8.2 M140.1,142.9l8.3,8.2 M140.1,151.1l8.3-8.2 M122.1,142.9
				l8.3,8.2 M122.1,151.1l8.3-8.2 M104.1,142.9l8.3,8.2 M104.1,151.1l8.3-8.2 M86.1,142.9l8.3,8.2 M86.1,151.1l8.3-8.2 M68.1,142.9
				l8.3,8.2 M68.1,151.1l8.3-8.2 M50.1,142.9l8.3,8.2 M50.1,151.1l8.3-8.2 M32.1,142.9l8.3,8.2 M32.1,151.1l8.3-8.2 M14.1,142.9
				l8.3,8.2 M14.1,151.1l8.3-8.2 M-3.9,142.9l8.3,8.2 M-3.9,151.1l8.3-8.2 M167.1,89l8.3,8.3 M167.1,97.3l8.3-8.3 M149.1,89l8.3,8.3
				 M149.1,97.3l8.3-8.3 M131.1,89l8.3,8.3 M131.1,97.3l8.3-8.3 M113.1,89l8.3,8.3 M113.1,97.3l8.3-8.3 M95.1,89l8.3,8.3 M95.1,97.3
				l8.3-8.3 M77.1,89l8.3,8.3 M77.1,97.3l8.3-8.3 M59.1,89l8.3,8.3 M59.1,97.3l8.3-8.3 M41.1,89l8.3,8.3 M41.1,97.3l8.3-8.3
				 M23.1,89l8.3,8.3 M23.1,97.3l8.3-8.3 M5.1,89l8.3,8.3 M5.1,97.3l8.3-8.3 M158.1,106.9l8.3,8.2 M158.1,115.1l8.3-8.2
				 M140.1,106.9l8.3,8.2 M140.1,115.1l8.3-8.2 M122.1,106.9l8.3,8.2 M122.1,115.1l8.3-8.2 M104.1,106.9l8.3,8.2 M104.1,115.1
				l8.3-8.2 M86.1,106.9l8.3,8.2 M86.1,115.1l8.3-8.2 M68.1,106.9l8.3,8.2 M68.1,115.1l8.3-8.2 M50.1,106.9l8.3,8.2 M50.1,115.1
				l8.3-8.2 M32.1,106.9l8.3,8.2 M32.1,115.1l8.3-8.2 M14.1,106.9l8.3,8.2 M14.1,115.1l8.3-8.2 M-3.9,106.9l8.3,8.2 M-3.9,115.1
				l8.3-8.2 M167.1,53l8.3,8.3 M167.1,61.3l8.3-8.3 M149.1,53l8.3,8.3 M149.1,61.3l8.3-8.3 M131.1,53l8.3,8.3 M131.1,61.3l8.3-8.3
				 M113.1,53l8.3,8.3 M113.1,61.3l8.3-8.3 M95.1,53l8.3,8.3 M95.1,61.3l8.3-8.3 M77.1,53l8.3,8.3 M77.1,61.3l8.3-8.3 M59.1,53
				l8.3,8.3 M59.1,61.3l8.3-8.3 M41.1,53l8.3,8.3 M41.1,61.3l8.3-8.3 M23.1,53l8.3,8.3 M23.1,61.3l8.3-8.3 M5.1,53l8.3,8.3
				 M5.1,61.3l8.3-8.3 M158.1,70.8l8.3,8.4 M158.1,79.2l8.3-8.4 M140.1,70.8l8.3,8.4 M140.1,79.2l8.3-8.4 M122.1,70.8l8.3,8.4
				 M122.1,79.2l8.3-8.4 M104.1,70.8l8.3,8.4 M104.1,79.2l8.3-8.4 M86.1,70.8l8.3,8.4 M86.1,79.2l8.3-8.4 M68.1,70.8l8.3,8.4
				 M68.1,79.2l8.3-8.4 M50.1,70.8l8.3,8.4 M50.1,79.2l8.3-8.4 M32.1,70.8l8.3,8.4 M32.1,79.2l8.3-8.4 M14.1,70.8l8.3,8.4
				 M14.1,79.2l8.3-8.4 M-3.9,70.8l8.3,8.4 M-3.9,79.2l8.3-8.4 M167.1,17l8.3,8.3 M167.1,25.3l8.3-8.3 M149.1,17l8.3,8.3
				 M149.1,25.3l8.3-8.3 M131.1,17l8.3,8.3 M131.1,25.3l8.3-8.3 M113.1,17l8.3,8.3 M113.1,25.3l8.3-8.3 M95.1,17l8.3,8.3 M95.1,25.3
				l8.3-8.3 M77.1,17l8.3,8.3 M77.1,25.3l8.3-8.3 M59.1,17l8.3,8.3 M59.1,25.3l8.3-8.3 M41.1,17l8.3,8.3 M41.1,25.3l8.3-8.3
				 M23.1,17l8.3,8.3 M23.1,25.3l8.3-8.3 M5.1,17l8.3,8.3 M5.1,25.3l8.3-8.3 M158.1,34.8l8.3,8.4 M158.1,43.2l8.3-8.4 M140.1,34.8
				l8.3,8.4 M140.1,43.2l8.3-8.4 M122.1,34.8l8.3,8.4 M122.1,43.2l8.3-8.4 M104.1,34.8l8.3,8.4 M104.1,43.2l8.3-8.4 M86.1,34.8
				l8.3,8.4 M86.1,43.2l8.3-8.4 M68.1,34.8l8.3,8.4 M68.1,43.2l8.3-8.4 M50.1,34.8l8.3,8.4 M50.1,43.2l8.3-8.4 M32.1,34.8l8.3,8.4
				 M32.1,43.2l8.3-8.4 M14.1,34.8l8.3,8.4 M14.1,43.2l8.3-8.4 M-3.9,34.8l8.3,8.4 M-3.9,43.2l8.3-8.4 M158.1-1.1l8.3,8.3
				 M158.1,7.2l8.3-8.3 M140.1-1.1l8.3,8.3 M140.1,7.2l8.3-8.3 M122.1-1.1l8.3,8.3 M122.1,7.2l8.3-8.3 M104.1-1.1l8.3,8.3
				 M104.1,7.2l8.3-8.3 M86.1-1.1l8.3,8.3 M86.1,7.2l8.3-8.3 M68.1-1.1l8.3,8.3 M68.1,7.2l8.3-8.3 M50.1-1.1l8.3,8.3 M50.1,7.2
				l8.3-8.3 M32.1-1.1l8.3,8.3 M32.1,7.2l8.3-8.3 M14.1-1.1l8.3,8.3 M14.1,7.2l8.3-8.3 M-3.9-1.1l8.3,8.3 M-3.9,7.2l8.3-8.3"/>
				</g>
		</g>
	</g>
</g>
</svg>
