<?xml version="1.0" encoding="utf-8"?>
<!-- Generator: Adobe Illustrator 21.0.0, SVG Export Plug-In . SVG Version: 6.00 Build 0)  -->
<svg version="1.1" id="Layer_1" xmlns="http://www.w3.org/2000/svg" xmlns:xlink="http://www.w3.org/1999/xlink" x="0px" y="0px"
	 width="168.3px" height="148.9px" viewBox="0 0 168.3 148.9" enable-background="new 0 0 168.3 148.9" xml:space="preserve">
<rect id="colour" fill="#54D8ED" width="168.3" height="148.9"/>
<g id="Layer_3">
	<g>
		<g>
			<g>
				<defs>
					<rect id="SVGID_1_" width="168.3" height="148.9"/>
				</defs>
				<clipPath id="SVGID_2_">
					<use xlink:href="#SVGID_1_"  overflow="visible"/>
				</clipPath>
				<g id="strokes" clip-path="url(#SVGID_2_)">
					<path opacity="0.2" fill="none" stroke="#000000" stroke-width="2.5" stroke-miterlimit="10" enable-background="new    " d="
						M5.6,35.3c1.2,0,2.1,0.9,2.1,2.1s-0.9,2.1-2.1,2.1s-2.1-0.9-2.1-2.1S4.4,35.3,5.6,35.3z M56.1,25c0-7-15.2,6.5-21.6,6.5
						c-3.8,0-6.8-3.3-6.5-7.2c0.1-3.8,3.3-6.5,7.2-6.5C41.4,17.9,56.1,32.7,56.1,25z M20.1,25c0-7-15.2,6.5-21.6,6.5
						c-3.8,0-6.8-3.3-6.5-7.2c0.1-3.8,3.3-6.5,7.2-6.5C5.2,17.9,20.1,32.7,20.1,25z M23.7,15.9c1.2,0,2.1,0.9,2.1,2.1
						s-0.9,2.1-2.1,2.1s-2.1-0.9-2.1-2.1S22.5,15.9,23.7,15.9z M38.1,5.8c0-7-15.2,6.5-21.6,6.5c-3.8,0-6.8-3.3-6.7-7.2
						s3.3-6.5,7.2-6.5C23.4-1.4,38.1,13.4,38.1,5.8z M5.6,74c1.2,0,2.1,0.9,2.1,2.1s-0.9,2.1-2.1,2.1s-2.1-0.9-2.1-2.1
						S4.4,74,5.6,74z M56.1,63.7c0-7-15.2,6.5-21.6,6.5c-3.8,0-6.8-3.3-6.5-7.2c0.1-3.8,3.3-6.5,7.2-6.5
						C41.4,56.5,56.1,71.4,56.1,63.7z M20.1,63.7c0-7-15.2,6.5-21.6,6.5c-3.8,0-6.8-3.3-6.5-7.2c0.1-3.8,3.3-6.5,7.2-6.5
						C5.2,56.5,20.1,71.4,20.1,63.7z M23.7,54.6c1.2,0,2.1,0.9,2.1,2.1s-0.9,2.1-2.1,2.1s-2.1-0.9-2.1-2.1S22.5,54.6,23.7,54.6z
						 M38.1,44.4c0-7-15.2,6.5-21.6,6.5c-3.8,0-6.8-3.3-6.5-7.2c0.1-3.8,3.3-6.5,7.2-6.5C23.4,37.3,38.1,52.1,38.1,44.4z M5.6,112.6
						c1.2,0,2.1,0.9,2.1,2.1s-0.9,2.1-2.1,2.1s-2.1-0.9-2.1-2.1S4.4,112.6,5.6,112.6z M56.1,102.4c0-7-15.2,6.5-21.6,6.5
						c-3.8,0-6.8-3.3-6.5-7.2c0.1-3.8,3.3-6.5,7.2-6.5C41.4,95.2,56.1,110,56.1,102.4z M20.1,102.4c0-7-15.2,6.5-21.6,6.5
						c-3.8,0-6.8-3.3-6.5-7.2c0.1-3.8,3.3-6.5,7.2-6.5C5.2,95.2,20.1,110,20.1,102.4z M23.7,93.2c1.2,0,2.1,0.9,2.1,2.1
						s-0.9,2.1-2.1,2.1s-2.1-0.9-2.1-2.1S22.5,93.2,23.7,93.2z M38.1,83.1c0-7-15.2,6.5-21.6,6.5c-3.8,0-6.8-3.3-6.5-7.2
						c0.1-3.8,3.3-6.5,7.2-6.5C23.4,75.9,38.1,90.8,38.1,83.1z M56.1,141c0-7-15.2,6.5-21.6,6.5c-3.8,0-6.8-3.3-6.5-7.2
						c0.1-3.8,3.3-6.5,7.2-6.5C41.4,133.9,56.1,148.7,56.1,141z M20.1,141c0-7-15.2,6.5-21.6,6.5c-3.8,0-6.8-3.3-6.5-7.2
						c0.1-3.8,3.3-6.5,7.2-6.5C5.2,133.9,20.1,148.7,20.1,141z M23.7,131.9c1.2,0,2.1,0.9,2.1,2.1s-0.9,2.1-2.1,2.1
						s-2.1-0.9-2.1-2.1S22.5,131.9,23.7,131.9z M38.1,121.8c0-7-15.2,6.5-21.6,6.5c-3.8,0-6.8-3.3-6.5-7.2c0.1-3.8,3.3-6.5,7.2-6.5
						C23.4,114.6,38.1,129.4,38.1,121.8z M77.9,35.3c1.2,0,2.1,0.9,2.1,2.1s-0.9,2.1-2.1,2.1s-2.1-0.9-2.1-2.1S76.7,35.3,77.9,35.3z
						 M128.5,25c0-7-15.2,6.5-21.6,6.5c-3.8,0-6.8-3.3-6.5-7.2c0.1-3.8,3.3-6.5,7.2-6.5C113.7,17.9,128.5,32.7,128.5,25z M92.3,25
						c0-7-15.2,6.5-21.6,6.5c-3.8,0-6.8-3.3-6.5-7.2c0.1-3.8,3.3-6.5,7.2-6.5C77.6,17.9,92.3,32.7,92.3,25z M95.9,15.9
						c1.2,0,2.1,0.9,2.1,2.1s-0.9,2.1-2.1,2.1s-2.1-0.9-2.1-2.1S94.7,15.9,95.9,15.9z M59.7,15.9c1.2,0,2.1,0.9,2.1,2.1
						s-0.9,2.1-2.1,2.1s-2.1-0.9-2.1-2.1S58.5,15.9,59.7,15.9z M110.4,5.8c0-7-15.2,6.5-21.6,6.5C85,12.3,82,9,82.3,5.1
						c0.1-3.8,3.3-6.5,7.2-6.5C95.7-1.4,110.4,13.4,110.4,5.8z M74.3,5.8c0-7-15.2,6.5-21.6,6.5c-3.8,0-6.8-3.3-6.5-7.2
						c0.1-3.8,3.3-6.5,7.2-6.5C59.5-1.4,74.3,13.4,74.3,5.8z M77.9,74c1.2,0,2.1,0.9,2.1,2.1s-0.9,2.1-2.1,2.1s-2.1-0.9-2.1-2.1
						S76.7,74,77.9,74z M128.5,63.7c0-7-15.2,6.5-21.6,6.5c-3.8,0-6.8-3.3-6.5-7.2c0.1-3.8,3.3-6.5,7.2-6.5
						C113.7,56.5,128.5,71.4,128.5,63.7z M92.3,63.7c0-7-15.2,6.5-21.6,6.5c-3.8,0-6.8-3.3-6.5-7.2c0.1-3.8,3.3-6.5,7.2-6.5
						C77.6,56.5,92.3,71.4,92.3,63.7z M95.9,54.6c1.2,0,2.1,0.9,2.1,2.1s-0.9,2.1-2.1,2.1s-2.1-0.9-2.1-2.1S94.7,54.6,95.9,54.6z
						 M59.7,54.6c1.2,0,2.1,0.9,2.1,2.1s-0.9,2.1-2.1,2.1s-2.1-0.9-2.1-2.1S58.5,54.6,59.7,54.6z M110.4,44.4c0-7-15.2,6.5-21.6,6.5
						c-3.8,0-6.8-3.3-6.5-7.2c0.1-3.8,3.3-6.5,7.2-6.5C95.7,37.3,110.4,52.1,110.4,44.4z M74.3,44.4c0-7-15.2,6.5-21.7,6.5
						c-3.8,0-6.8-3.3-6.5-7.2c0.1-3.8,3.3-6.5,7.2-6.5C59.5,37.3,74.3,52.1,74.3,44.4z M77.9,112.6c1.2,0,2.1,0.9,2.1,2.1
						s-0.9,2.1-2.1,2.1s-2.1-0.9-2.1-2.1S76.7,112.6,77.9,112.6z M128.5,102.4c0-7-15.2,6.5-21.6,6.5c-3.8,0-6.8-3.3-6.5-7.2
						c0.1-3.8,3.3-6.5,7.2-6.5C113.7,95.2,128.5,110,128.5,102.4z M92.3,102.4c0-7-15.2,6.5-21.6,6.5c-3.8,0-6.8-3.3-6.5-7.2
						c0.1-3.8,3.3-6.5,7.2-6.5C77.6,95.2,92.3,110,92.3,102.4z M95.9,93.2c1.2,0,2.1,0.9,2.1,2.1s-0.9,2.1-2.1,2.1s-2.1-0.9-2.1-2.1
						S94.7,93.2,95.9,93.2z M59.7,93.2c1.2,0,2.1,0.9,2.1,2.1s-0.9,2.1-2.1,2.1s-2.1-0.9-2.1-2.1S58.5,93.2,59.7,93.2z M110.4,83.1
						c0-7-15.2,6.5-21.6,6.5c-3.8,0-6.8-3.3-6.5-7.2c0.1-3.8,3.3-6.5,7.2-6.5C95.7,75.9,110.4,90.8,110.4,83.1z M74.3,83.1
						c0-7-15.2,6.5-21.6,6.5c-3.8,0-6.8-3.3-6.5-7.2c0.1-3.8,3.3-6.5,7.2-6.5C59.5,75.9,74.3,90.8,74.3,83.1z M128.5,141
						c0-7-15.2,6.5-21.6,6.5c-3.8,0-6.8-3.3-6.5-7.2c0.1-3.8,3.3-6.5,7.2-6.5C113.7,133.9,128.5,148.7,128.5,141z M92.3,141
						c0-7-15.2,6.5-21.6,6.5c-3.8,0-6.8-3.3-6.5-7.2c0.1-3.8,3.3-6.5,7.2-6.5C77.6,133.9,92.3,148.7,92.3,141z M95.9,131.9
						c1.2,0,2.1,0.9,2.1,2.1s-0.9,2.1-2.1,2.1s-2.1-0.9-2.1-2.1S94.7,131.9,95.9,131.9z M59.7,131.9c1.2,0,2.1,0.9,2.1,2.1
						s-0.9,2.1-2.1,2.1s-2.1-0.9-2.1-2.1S58.5,131.9,59.7,131.9z M110.4,121.8c0-7-15.2,6.5-21.6,6.5c-3.8,0-6.8-3.3-6.5-7.2
						c0.1-3.8,3.3-6.5,7.2-6.5C95.7,114.6,110.4,129.4,110.4,121.8z M74.3,121.8c0-7-15.2,6.5-21.6,6.5c-3.8,0-6.8-3.3-6.5-7.2
						c0.1-3.8,3.3-6.5,7.2-6.5C59.5,114.6,74.3,129.4,74.3,121.8z M150.2,35.3c1.2,0,2.1,0.9,2.1,2.1s-0.9,2.1-2.1,2.1
						s-2.1-0.9-2.1-2.1S149,35.3,150.2,35.3z M164.6,25c0-7-15.2,6.5-21.6,6.5c-3.8,0-6.8-3.3-6.5-7.2c0.1-3.8,3.3-6.5,7.2-6.5
						C149.9,17.9,164.6,32.7,164.6,25z M168.2,15.9c1.2,0,2.1,0.9,2.1,2.1s-0.9,2.1-2.1,2.1s-2.1-0.9-2.1-2.1S167,15.9,168.2,15.9z
						 M132.1,15.9c1.2,0,2.1,0.9,2.1,2.1s-0.9,2.1-2.1,2.1S130,19.2,130,18S130.9,15.9,132.1,15.9z M182.6,5.8
						c0-7-15.2,6.5-21.6,6.5c-3.8,0-6.8-3.3-6.5-7.2c0.1-3.8,3.3-6.5,7.2-6.5C167.9-1.4,182.6,13.4,182.6,5.8z M146.6,5.8
						c0-7-15.2,6.5-21.6,6.5c-3.8,0-6.8-3.3-6.5-7.2c0.1-3.8,3.3-6.5,7.2-6.5C131.7-1.4,146.6,13.4,146.6,5.8z M150.2,74
						c1.2,0,2.1,0.9,2.1,2.1s-0.9,2.1-2.1,2.1s-2.1-0.9-2.1-2.1S149,74,150.2,74z M164.6,63.7c0-7-15.2,6.5-21.6,6.5
						c-3.8,0-6.8-3.3-6.5-7.2c0.1-3.8,3.3-6.5,7.2-6.5C149.9,56.5,164.6,71.4,164.6,63.7z M168.2,54.6c1.2,0,2.1,0.9,2.1,2.1
						s-0.9,2.1-2.1,2.1s-2.1-0.9-2.1-2.1S167,54.6,168.2,54.6z M132.1,54.6c1.2,0,2.1,0.9,2.1,2.1s-0.9,2.1-2.1,2.1
						s-2.1-0.9-2.1-2.1S130.9,54.6,132.1,54.6z M182.6,44.4c0-7-15.2,6.5-21.6,6.5c-3.8,0-6.8-3.3-6.5-7.2c0.1-3.8,3.3-6.5,7.2-6.5
						C167.9,37.3,182.6,52.1,182.6,44.4z M146.6,44.4c0-7-15.2,6.5-21.6,6.5c-3.8,0-6.8-3.3-6.5-7.2c0.1-3.8,3.3-6.5,7.2-6.5
						C131.7,37.3,146.6,52.1,146.6,44.4z M150.2,112.6c1.2,0,2.1,0.9,2.1,2.1s-0.9,2.1-2.1,2.1s-2.1-0.9-2.1-2.1
						S149,112.6,150.2,112.6z M164.6,102.4c0-7-15.2,6.5-21.6,6.5c-3.8,0-6.8-3.3-6.5-7.2c0.1-3.8,3.3-6.5,7.2-6.5
						C149.9,95.2,164.6,110,164.6,102.4z M168.2,93.2c1.2,0,2.1,0.9,2.1,2.1s-0.9,2.1-2.1,2.1s-2.1-0.9-2.1-2.1S167,93.2,168.2,93.2
						z M132.1,93.2c1.2,0,2.1,0.9,2.1,2.1s-0.9,2.1-2.1,2.1s-2.1-0.9-2.1-2.1S130.9,93.2,132.1,93.2z M182.6,83.1
						c0-7-15.2,6.5-21.6,6.5c-3.8,0-6.8-3.3-6.5-7.2c0.1-3.8,3.3-6.5,7.2-6.5C167.9,75.9,182.6,90.8,182.6,83.1z M146.6,83.1
						c0-7-15.2,6.5-21.6,6.5c-3.8,0-6.8-3.3-6.5-7.2c0.1-3.8,3.3-6.5,7.2-6.5C131.7,75.9,146.6,90.8,146.6,83.1z M164.6,141
						c0-7-15.2,6.5-21.6,6.5c-3.8,0-6.8-3.3-6.5-7.2c0.1-3.8,3.3-6.5,7.2-6.5C149.9,133.9,164.6,148.7,164.6,141z M168.2,131.9
						c1.2,0,2.1,0.9,2.1,2.1s-0.9,2.1-2.1,2.1s-2.1-0.9-2.1-2.1S167,131.9,168.2,131.9z M132.1,131.9c1.2,0,2.1,0.9,2.1,2.1
						s-0.9,2.1-2.1,2.1s-2.1-0.9-2.1-2.1S130.9,131.9,132.1,131.9z M182.6,121.8c0-7-15.2,6.5-21.6,6.5c-3.8,0-6.8-3.3-6.5-7.2
						c0.1-3.8,3.3-6.5,7.2-6.5C167.9,114.6,182.6,129.4,182.6,121.8z M146.6,121.8c0-7-15.2,6.5-21.6,6.5c-3.8,0-6.8-3.3-6.5-7.2
						c0.1-3.8,3.3-6.5,7.2-6.5C131.7,114.6,146.6,129.4,146.6,121.8z M41.7,35.3c1.2,0,2.1,0.9,2.1,2.1s-0.9,2.1-2.1,2.1
						s-2.1-0.9-2.1-2.1S40.5,35.3,41.7,35.3z M114,35.3c1.2,0,2.1,0.9,2.1,2.1s-0.9,2.1-2.1,2.1s-2.1-0.9-2.1-2.1
						S112.8,35.3,114,35.3z M41.7,74c1.2,0,2.1,0.9,2.1,2.1s-0.9,2.1-2.1,2.1s-2.1-0.9-2.1-2.1S40.5,74,41.7,74z M114,74
						c1.2,0,2.1,0.9,2.1,2.1s-0.9,2.1-2.1,2.1s-2.1-0.9-2.1-2.1S112.8,74,114,74z M41.7,112.6c1.2,0,2.1,0.9,2.1,2.1
						s-0.9,2.1-2.1,2.1s-2.1-0.9-2.1-2.1S40.5,112.6,41.7,112.6z M114,112.6c1.2,0,2.1,0.9,2.1,2.1s-0.9,2.1-2.1,2.1
						s-2.1-0.9-2.1-2.1S112.8,112.6,114,112.6z"/>
				</g>
			</g>
		</g>
	</g>
</g>
</svg>
