<?xml version="1.0" encoding="utf-8"?>
<!-- Generator: Adobe Illustrator 21.0.0, SVG Export Plug-In . SVG Version: 6.00 Build 0)  -->
<svg version="1.1" id="Layer_1" xmlns="http://www.w3.org/2000/svg" xmlns:xlink="http://www.w3.org/1999/xlink" x="0px" y="0px"
	 viewBox="0 0 168 148" enable-background="new 0 0 168 148"  width="168px" height="148px"  xml:space="preserve">
<g>
	<defs>
		<rect id="SVGID_1_" width="168" height="148"/>
	</defs>
	<clipPath id="SVGID_2_">
		<use xlink:href="#SVGID_1_"  overflow="visible"/>
	</clipPath>
	<g clip-path="url(#SVGID_2_)">
		<rect id="colour" fill="#F48789" width="168" height="148"/>
	</g>
</g>
<g>
	<defs>
		<rect id="SVGID_3_" width="168" height="148"/>
	</defs>
	<clipPath id="SVGID_4_">
		<use xlink:href="#SVGID_3_"  overflow="visible"/>
	</clipPath>
	<g id="strokes" clip-path="url(#SVGID_4_)">
	<path opacity="0.3"  fill="none" stroke="#FFFFFF" stroke-miterlimit="10" d="M141.1,155.9l-4-4v-5.6
		l4-3.9h5.5l4,3.9v5.6l-4,4H141.1z M143.8,147.4c0.9,0,1.7,0.8,1.7,1.7s-0.8,1.7-1.7,1.7s-1.7-0.8-1.7-1.7S142.9,147.4,143.8,147.4z
		 M141.1,135.9l-4-4v-5.6l4-3.9h5.5l4,3.9v5.6l-4,4H141.1z M143.8,127.4c0.9,0,1.7,0.8,1.7,1.7s-0.8,1.7-1.7,1.7s-1.7-0.8-1.7-1.7
		S142.9,127.4,143.8,127.4z M141.1,115.9l-4-4v-5.6l4-3.9h5.5l4,3.9v5.6l-4,4H141.1z M143.8,107.4c0.9,0,1.7,0.8,1.7,1.7
		s-0.8,1.7-1.7,1.7s-1.7-0.8-1.7-1.7S142.9,107.4,143.8,107.4z M141.1,95.9l-4-4v-5.6l4-3.9h5.5l4,3.9v5.6l-4,4H141.1z M143.8,87.4
		c0.9,0,1.7,0.8,1.7,1.7s-0.8,1.7-1.7,1.7s-1.7-0.8-1.7-1.7S142.9,87.4,143.8,87.4z M141.1,75.9l-4-4v-5.6l4-3.9h5.5l4,3.9v5.6l-4,4
		H141.1z M143.8,67.4c0.9,0,1.7,0.8,1.7,1.7s-0.8,1.7-1.7,1.7s-1.7-0.8-1.7-1.7S142.9,67.4,143.8,67.4z M141.1,55.9l-4-4v-5.6l4-3.9
		h5.5l4,3.9v5.6l-4,4H141.1z M143.8,47.4c0.9,0,1.7,0.8,1.7,1.7s-0.8,1.7-1.7,1.7s-1.7-0.8-1.7-1.7S142.9,47.4,143.8,47.4z
		 M141.1,35.9l-4-4v-5.6l4-3.9h5.5l4,3.9v5.6l-4,4H141.1z M143.8,27.4c0.9,0,1.7,0.8,1.7,1.7s-0.8,1.7-1.7,1.7s-1.7-0.8-1.7-1.7
		S142.9,27.4,143.8,27.4z M141.1,15.9l-4-4V6.3l4-3.9h5.5l4,3.9v5.6l-4,4H141.1z M143.8,7.4c0.9,0,1.7,0.8,1.7,1.7s-0.8,1.7-1.7,1.7
		s-1.7-0.8-1.7-1.7S142.9,7.4,143.8,7.4z M111.1,155.9l-3.9-4v-5.6l3.9-3.9h5.6l4,3.9v5.6l-4,4H111.1z M113.9,147.4
		c0.9,0,1.7,0.8,1.7,1.7s-0.8,1.7-1.7,1.7s-1.7-0.8-1.7-1.7S113,147.4,113.9,147.4z M111.1,135.9l-3.9-4v-5.6l3.9-3.9h5.6l4,3.9v5.6
		l-4,4H111.1z M113.9,127.4c0.9,0,1.7,0.8,1.7,1.7s-0.8,1.7-1.7,1.7s-1.7-0.8-1.7-1.7S113,127.4,113.9,127.4z M111.1,115.9l-3.9-4
		v-5.6l3.9-3.9h5.6l4,3.9v5.6l-4,4H111.1z M113.9,107.4c0.9,0,1.7,0.8,1.7,1.7s-0.8,1.7-1.7,1.7s-1.7-0.8-1.7-1.7
		S113,107.4,113.9,107.4z M111.1,95.9l-3.9-4v-5.6l3.9-3.9h5.6l4,3.9v5.6l-4,4H111.1z M113.9,87.4c0.9,0,1.7,0.8,1.7,1.7
		s-0.8,1.7-1.7,1.7s-1.7-0.8-1.7-1.7S113,87.4,113.9,87.4z M111.1,75.9l-3.9-4v-5.6l3.9-3.9h5.6l4,3.9v5.6l-4,4H111.1z M113.9,67.4
		c0.9,0,1.7,0.8,1.7,1.7s-0.8,1.7-1.7,1.7s-1.7-0.8-1.7-1.7S113,67.4,113.9,67.4z M111.1,55.9l-3.9-4v-5.6l3.9-3.9h5.6l4,3.9v5.6
		l-4,4H111.1z M113.9,47.4c0.9,0,1.7,0.8,1.7,1.7s-0.8,1.7-1.7,1.7s-1.7-0.8-1.7-1.7S113,47.4,113.9,47.4z M111.1,35.9l-3.9-4v-5.6
		l3.9-3.9h5.6l4,3.9v5.6l-4,4H111.1z M113.9,27.4c0.9,0,1.7,0.8,1.7,1.7s-0.8,1.7-1.7,1.7s-1.7-0.8-1.7-1.7S113,27.4,113.9,27.4z
		 M111.1,15.9l-3.9-4V6.3l3.9-3.9h5.6l4,3.9v5.6l-4,4H111.1z M113.9,7.4c0.9,0,1.7,0.8,1.7,1.7s-0.8,1.7-1.7,1.7s-1.7-0.8-1.7-1.7
		S113,7.4,113.9,7.4z M81.1,155.9l-3.9-4v-5.6l3.9-3.9h5.6l4,3.9v5.6l-4,4H81.1z M83.9,147.4c0.9,0,1.7,0.8,1.7,1.7
		s-0.8,1.7-1.7,1.7s-1.7-0.8-1.7-1.7S83,147.4,83.9,147.4z M81.1,135.9l-3.9-4v-5.6l3.9-3.9h5.6l4,3.9v5.6l-4,4H81.1z M83.9,127.4
		c0.9,0,1.7,0.8,1.7,1.7s-0.8,1.7-1.7,1.7s-1.7-0.8-1.7-1.7S83,127.4,83.9,127.4z M81.1,115.9l-3.9-4v-5.6l3.9-3.9h5.6l4,3.9v5.6
		l-4,4H81.1z M83.9,107.4c0.9,0,1.7,0.8,1.7,1.7s-0.8,1.7-1.7,1.7s-1.7-0.8-1.7-1.7S83,107.4,83.9,107.4z M81.1,95.9l-3.9-4v-5.6
		l3.9-3.9h5.6l4,3.9v5.6l-4,4H81.1z M83.9,87.4c0.9,0,1.7,0.8,1.7,1.7s-0.8,1.7-1.7,1.7s-1.7-0.8-1.7-1.7S83,87.4,83.9,87.4z
		 M81.1,75.9l-3.9-4v-5.6l3.9-3.9h5.6l4,3.9v5.6l-4,4H81.1z M83.9,67.4c0.9,0,1.7,0.8,1.7,1.7s-0.8,1.7-1.7,1.7s-1.7-0.8-1.7-1.7
		S83,67.4,83.9,67.4z M81.1,55.9l-3.9-4v-5.6l3.9-3.9h5.6l4,3.9v5.6l-4,4H81.1z M83.9,47.4c0.9,0,1.7,0.8,1.7,1.7s-0.8,1.7-1.7,1.7
		s-1.7-0.8-1.7-1.7S83,47.4,83.9,47.4z M81.1,35.9l-3.9-4v-5.6l3.9-3.9h5.6l4,3.9v5.6l-4,4H81.1z M83.9,27.4c0.9,0,1.7,0.8,1.7,1.7
		s-0.8,1.7-1.7,1.7s-1.7-0.8-1.7-1.7S83,27.4,83.9,27.4z M81.1,15.9l-3.9-4V6.3l3.9-3.9h5.6l4,3.9v5.6l-4,4H81.1z M83.9,7.4
		c0.9,0,1.7,0.8,1.7,1.7s-0.8,1.7-1.7,1.7s-1.7-0.8-1.7-1.7S83,7.4,83.9,7.4z M51.1,155.9l-3.9-4v-5.6l3.9-3.9h5.6l4,3.9v5.6l-4,4
		H51.1z M53.9,147.4c0.9,0,1.7,0.8,1.7,1.7s-0.8,1.7-1.7,1.7s-1.7-0.8-1.7-1.7S53,147.4,53.9,147.4z M51.1,135.9l-3.9-4v-5.6
		l3.9-3.9h5.6l4,3.9v5.6l-4,4H51.1z M53.9,127.4c0.9,0,1.7,0.8,1.7,1.7s-0.8,1.7-1.7,1.7s-1.7-0.8-1.7-1.7S53,127.4,53.9,127.4z
		 M51.1,115.9l-3.9-4v-5.6l3.9-3.9h5.6l4,3.9v5.6l-4,4H51.1z M53.9,107.4c0.9,0,1.7,0.8,1.7,1.7s-0.8,1.7-1.7,1.7s-1.7-0.8-1.7-1.7
		S53,107.4,53.9,107.4z M51.1,95.9l-3.9-4v-5.6l3.9-3.9h5.6l4,3.9v5.6l-4,4H51.1z M53.9,87.4c0.9,0,1.7,0.8,1.7,1.7
		s-0.8,1.7-1.7,1.7s-1.7-0.8-1.7-1.7S53,87.4,53.9,87.4z M51.1,75.9l-3.9-4v-5.6l3.9-3.9h5.6l4,3.9v5.6l-4,4H51.1z M53.9,67.4
		c0.9,0,1.7,0.8,1.7,1.7s-0.8,1.7-1.7,1.7s-1.7-0.8-1.7-1.7S53,67.4,53.9,67.4z M51.1,55.9l-3.9-4v-5.6l3.9-3.9h5.6l4,3.9v5.6l-4,4
		H51.1z M53.9,47.4c0.9,0,1.7,0.8,1.7,1.7s-0.8,1.7-1.7,1.7s-1.7-0.8-1.7-1.7S53,47.4,53.9,47.4z M51.1,35.9l-3.9-4v-5.6l3.9-3.9
		h5.6l4,3.9v5.6l-4,4H51.1z M53.9,27.4c0.9,0,1.7,0.8,1.7,1.7s-0.8,1.7-1.7,1.7s-1.7-0.8-1.7-1.7S53,27.4,53.9,27.4z M51.1,15.9
		l-3.9-4V6.3l3.9-3.9h5.6l4,3.9v5.6l-4,4H51.1z M53.9,7.4c0.9,0,1.7,0.8,1.7,1.7s-0.8,1.7-1.7,1.7s-1.7-0.8-1.7-1.7S53,7.4,53.9,7.4
		z M21.1,155.9l-3.9-4v-5.6l3.9-3.9h5.6l4,3.9v5.6l-4,4H21.1z M23.9,147.4c0.9,0,1.7,0.8,1.7,1.7s-0.8,1.7-1.7,1.7s-1.7-0.8-1.7-1.7
		S23,147.4,23.9,147.4z M21.1,135.9l-3.9-4v-5.6l3.9-3.9h5.6l4,3.9v5.6l-4,4H21.1z M23.9,127.4c0.9,0,1.7,0.8,1.7,1.7
		s-0.8,1.7-1.7,1.7s-1.7-0.8-1.7-1.7S23,127.4,23.9,127.4z M21.1,115.9l-3.9-4v-5.6l3.9-3.9h5.6l4,3.9v5.6l-4,4H21.1z M23.9,107.4
		c0.9,0,1.7,0.8,1.7,1.7s-0.8,1.7-1.7,1.7s-1.7-0.8-1.7-1.7S23,107.4,23.9,107.4z M21.1,95.9l-3.9-4v-5.6l3.9-3.9h5.6l4,3.9v5.6
		l-4,4H21.1z M23.9,87.4c0.9,0,1.7,0.8,1.7,1.7s-0.8,1.7-1.7,1.7s-1.7-0.8-1.7-1.7S23,87.4,23.9,87.4z M21.1,75.9l-3.9-4v-5.6
		l3.9-3.9h5.6l4,3.9v5.6l-4,4H21.1z M23.9,67.4c0.9,0,1.7,0.8,1.7,1.7s-0.8,1.7-1.7,1.7s-1.7-0.8-1.7-1.7S23,67.4,23.9,67.4z
		 M21.1,55.9l-3.9-4v-5.6l3.9-3.9h5.6l4,3.9v5.6l-4,4H21.1z M23.9,47.4c0.9,0,1.7,0.8,1.7,1.7s-0.8,1.7-1.7,1.7s-1.7-0.8-1.7-1.7
		S23,47.4,23.9,47.4z M21.1,35.9l-3.9-4v-5.6l3.9-3.9h5.6l4,3.9v5.6l-4,4H21.1z M23.9,27.4c0.9,0,1.7,0.8,1.7,1.7s-0.8,1.7-1.7,1.7
		s-1.7-0.8-1.7-1.7S23,27.4,23.9,27.4z M21.1,15.9l-3.9-4V6.3l3.9-3.9h5.6l4,3.9v5.6l-4,4H21.1z M23.9,7.4c0.9,0,1.7,0.8,1.7,1.7
		s-0.8,1.7-1.7,1.7s-1.7-0.8-1.7-1.7S23,7.4,23.9,7.4z M156.1,145.4l-3.9-4v-5.6l3.9-3.9h5.6l4,3.9v5.6l-4,4H156.1z M158.9,136.9
		c0.9,0,1.7,0.8,1.7,1.7s-0.8,1.7-1.7,1.7s-1.7-0.8-1.7-1.7S158,136.9,158.9,136.9z M156.1,125.4l-3.9-4v-5.6l3.9-3.9h5.6l4,3.9v5.6
		l-4,4H156.1z M158.9,116.9c0.9,0,1.7,0.8,1.7,1.7s-0.8,1.7-1.7,1.7s-1.7-0.8-1.7-1.7S158,116.9,158.9,116.9z M156.1,105.4l-3.9-4
		v-5.6l3.9-3.9h5.6l4,3.9v5.6l-4,4H156.1z M158.9,96.9c0.9,0,1.7,0.8,1.7,1.7s-0.8,1.7-1.7,1.7s-1.7-0.8-1.7-1.7
		S158,96.9,158.9,96.9z M156.1,85.4l-3.9-4v-5.6l3.9-3.9h5.6l4,3.9v5.6l-4,4H156.1z M158.9,76.9c0.9,0,1.7,0.8,1.7,1.7
		s-0.8,1.7-1.7,1.7s-1.7-0.8-1.7-1.7S158,76.9,158.9,76.9z M156.1,65.4l-3.9-4v-5.6l3.9-3.9h5.6l4,3.9v5.6l-4,4H156.1z M158.9,56.9
		c0.9,0,1.7,0.8,1.7,1.7s-0.8,1.7-1.7,1.7s-1.7-0.8-1.7-1.7S158,56.9,158.9,56.9z M156.1,45.4l-3.9-4v-5.6l3.9-3.9h5.6l4,3.9v5.6
		l-4,4H156.1z M158.9,36.9c0.9,0,1.7,0.8,1.7,1.7s-0.8,1.7-1.7,1.7s-1.7-0.8-1.7-1.7S158,36.9,158.9,36.9z M156.1,25.4l-3.9-4v-5.6
		l3.9-3.9h5.6l4,3.9v5.6l-4,4H156.1z M158.9,16.9c0.9,0,1.7,0.8,1.7,1.7s-0.8,1.7-1.7,1.7s-1.7-0.8-1.7-1.7S158,16.9,158.9,16.9z
		 M156.1,5.4l-3.9-4v-5.6l3.9-3.9h5.6l4,3.9v5.6l-4,4H156.1z M158.9-3.1c0.9,0,1.7,0.8,1.7,1.7s-0.8,1.7-1.7,1.7s-1.7-0.8-1.7-1.7
		S158-3.1,158.9-3.1z M126.1,145.4l-3.9-4v-5.6l3.9-3.9h5.6l4,3.9v5.6l-4,4H126.1z M128.9,136.9c0.9,0,1.7,0.8,1.7,1.7
		s-0.8,1.7-1.7,1.7c-0.9,0-1.7-0.8-1.7-1.7S128,136.9,128.9,136.9z M126.1,125.4l-3.9-4v-5.6l3.9-3.9h5.6l4,3.9v5.6l-4,4H126.1z
		 M128.9,116.9c0.9,0,1.7,0.8,1.7,1.7s-0.8,1.7-1.7,1.7c-0.9,0-1.7-0.8-1.7-1.7S128,116.9,128.9,116.9z M126.1,105.4l-3.9-4v-5.6
		l3.9-3.9h5.6l4,3.9v5.6l-4,4H126.1z M128.9,96.9c0.9,0,1.7,0.8,1.7,1.7s-0.8,1.7-1.7,1.7c-0.9,0-1.7-0.8-1.7-1.7
		S128,96.9,128.9,96.9z M126.1,85.4l-3.9-4v-5.6l3.9-3.9h5.6l4,3.9v5.6l-4,4H126.1z M128.9,76.9c0.9,0,1.7,0.8,1.7,1.7
		s-0.8,1.7-1.7,1.7c-0.9,0-1.7-0.8-1.7-1.7S128,76.9,128.9,76.9z M126.1,65.4l-3.9-4v-5.6l3.9-3.9h5.6l4,3.9v5.6l-4,4H126.1z
		 M128.9,56.9c0.9,0,1.7,0.8,1.7,1.7s-0.8,1.7-1.7,1.7c-0.9,0-1.7-0.8-1.7-1.7S128,56.9,128.9,56.9z M126.1,45.4l-3.9-4v-5.6
		l3.9-3.9h5.6l4,3.9v5.6l-4,4H126.1z M128.9,36.9c0.9,0,1.7,0.8,1.7,1.7s-0.8,1.7-1.7,1.7c-0.9,0-1.7-0.8-1.7-1.7
		S128,36.9,128.9,36.9z M126.1,25.4l-3.9-4v-5.6l3.9-3.9h5.6l4,3.9v5.6l-4,4H126.1z M128.9,16.9c0.9,0,1.7,0.8,1.7,1.7
		s-0.8,1.7-1.7,1.7c-0.9,0-1.7-0.8-1.7-1.7S128,16.9,128.9,16.9z M126.1,5.4l-3.9-4v-5.6l3.9-3.9h5.6l4,3.9v5.6l-4,4H126.1z
		 M128.9-3.1c0.9,0,1.7,0.8,1.7,1.7s-0.8,1.7-1.7,1.7c-0.9,0-1.7-0.8-1.7-1.7S128-3.1,128.9-3.1z M96.1,145.4l-3.9-4v-5.6l3.9-3.9
		h5.6l4,3.9v5.6l-4,4H96.1z M98.9,136.9c0.9,0,1.7,0.8,1.7,1.7s-0.8,1.7-1.7,1.7s-1.7-0.8-1.7-1.7S98,136.9,98.9,136.9z M96.1,125.4
		l-3.9-4v-5.6l3.9-3.9h5.6l4,3.9v5.6l-4,4H96.1z M98.9,116.9c0.9,0,1.7,0.8,1.7,1.7s-0.8,1.7-1.7,1.7s-1.7-0.8-1.7-1.7
		S98,116.9,98.9,116.9z M96.1,105.4l-3.9-4v-5.6l3.9-3.9h5.6l4,3.9v5.6l-4,4H96.1z M98.9,96.9c0.9,0,1.7,0.8,1.7,1.7
		s-0.8,1.7-1.7,1.7s-1.7-0.8-1.7-1.7S98,96.9,98.9,96.9z M96.1,85.4l-3.9-4v-5.6l3.9-3.9h5.6l4,3.9v5.6l-4,4H96.1z M98.9,76.9
		c0.9,0,1.7,0.8,1.7,1.7s-0.8,1.7-1.7,1.7s-1.7-0.8-1.7-1.7S98,76.9,98.9,76.9z M96.1,65.4l-3.9-4v-5.6l3.9-3.9h5.6l4,3.9v5.6l-4,4
		H96.1z M98.9,56.9c0.9,0,1.7,0.8,1.7,1.7s-0.8,1.7-1.7,1.7s-1.7-0.8-1.7-1.7S98,56.9,98.9,56.9z M96.1,45.4l-3.9-4v-5.6l3.9-3.9
		h5.6l4,3.9v5.6l-4,4H96.1z M98.9,36.9c0.9,0,1.7,0.8,1.7,1.7s-0.8,1.7-1.7,1.7s-1.7-0.8-1.7-1.7S98,36.9,98.9,36.9z M96.1,25.4
		l-3.9-4v-5.6l3.9-3.9h5.6l4,3.9v5.6l-4,4H96.1z M98.9,16.9c0.9,0,1.7,0.8,1.7,1.7s-0.8,1.7-1.7,1.7s-1.7-0.8-1.7-1.7
		S98,16.9,98.9,16.9z M96.1,5.4l-3.9-4v-5.6l3.9-3.9h5.6l4,3.9v5.6l-4,4H96.1z M98.9-3.1c0.9,0,1.7,0.8,1.7,1.7s-0.8,1.7-1.7,1.7
		s-1.7-0.8-1.7-1.7S98-3.1,98.9-3.1z M66.1,145.4l-3.9-4v-5.6l3.9-3.9h5.6l4,3.9v5.6l-4,4H66.1z M68.9,136.9c0.9,0,1.7,0.8,1.7,1.7
		s-0.8,1.7-1.7,1.7s-1.7-0.8-1.7-1.7S68,136.9,68.9,136.9z M66.1,125.4l-3.9-4v-5.6l3.9-3.9h5.6l4,3.9v5.6l-4,4H66.1z M68.9,116.9
		c0.9,0,1.7,0.8,1.7,1.7s-0.8,1.7-1.7,1.7s-1.7-0.8-1.7-1.7S68,116.9,68.9,116.9z M66.1,105.4l-3.9-4v-5.6l3.9-3.9h5.6l4,3.9v5.6
		l-4,4H66.1z M68.9,96.9c0.9,0,1.7,0.8,1.7,1.7s-0.8,1.7-1.7,1.7s-1.7-0.8-1.7-1.7S68,96.9,68.9,96.9z M66.1,85.4l-3.9-4v-5.6
		l3.9-3.9h5.6l4,3.9v5.6l-4,4H66.1z M68.9,76.9c0.9,0,1.7,0.8,1.7,1.7s-0.8,1.7-1.7,1.7s-1.7-0.8-1.7-1.7S68,76.9,68.9,76.9z
		 M66.1,65.4l-3.9-4v-5.6l3.9-3.9h5.6l4,3.9v5.6l-4,4H66.1z M68.9,56.9c0.9,0,1.7,0.8,1.7,1.7s-0.8,1.7-1.7,1.7s-1.7-0.8-1.7-1.7
		S68,56.9,68.9,56.9z M66.1,45.4l-3.9-4v-5.6l3.9-3.9h5.6l4,3.9v5.6l-4,4H66.1z M68.9,36.9c0.9,0,1.7,0.8,1.7,1.7s-0.8,1.7-1.7,1.7
		s-1.7-0.8-1.7-1.7S68,36.9,68.9,36.9z M66.1,25.4l-3.9-4v-5.6l3.9-3.9h5.6l4,3.9v5.6l-4,4H66.1z M68.9,16.9c0.9,0,1.7,0.8,1.7,1.7
		s-0.8,1.7-1.7,1.7s-1.7-0.8-1.7-1.7S68,16.9,68.9,16.9z M66.1,5.4l-3.9-4v-5.6l3.9-3.9h5.6l4,3.9v5.6l-4,4H66.1z M68.9-3.1
		c0.9,0,1.7,0.8,1.7,1.7s-0.8,1.7-1.7,1.7s-1.7-0.8-1.7-1.7S68-3.1,68.9-3.1z M36.1,145.4l-3.9-4v-5.6l3.9-3.9h5.6l4,3.9v5.6l-4,4
		H36.1z M38.9,136.9c0.9,0,1.7,0.8,1.7,1.7s-0.8,1.7-1.7,1.7s-1.7-0.8-1.7-1.7S38,136.9,38.9,136.9z M36.1,125.4l-3.9-4v-5.6
		l3.9-3.9h5.6l4,3.9v5.6l-4,4H36.1z M38.9,116.9c0.9,0,1.7,0.8,1.7,1.7s-0.8,1.7-1.7,1.7s-1.7-0.8-1.7-1.7S38,116.9,38.9,116.9z
		 M36.1,105.4l-3.9-4v-5.6l3.9-3.9h5.6l4,3.9v5.6l-4,4H36.1z M38.9,96.9c0.9,0,1.7,0.8,1.7,1.7s-0.8,1.7-1.7,1.7s-1.7-0.8-1.7-1.7
		S38,96.9,38.9,96.9z M36.1,85.4l-3.9-4v-5.6l3.9-3.9h5.6l4,3.9v5.6l-4,4H36.1z M38.9,76.9c0.9,0,1.7,0.8,1.7,1.7s-0.8,1.7-1.7,1.7
		s-1.7-0.8-1.7-1.7S38,76.9,38.9,76.9z M36.1,65.4l-3.9-4v-5.6l3.9-3.9h5.6l4,3.9v5.6l-4,4H36.1z M38.9,56.9c0.9,0,1.7,0.8,1.7,1.7
		s-0.8,1.7-1.7,1.7s-1.7-0.8-1.7-1.7S38,56.9,38.9,56.9z M36.1,45.4l-3.9-4v-5.6l3.9-3.9h5.6l4,3.9v5.6l-4,4H36.1z M38.9,36.9
		c0.9,0,1.7,0.8,1.7,1.7s-0.8,1.7-1.7,1.7s-1.7-0.8-1.7-1.7S38,36.9,38.9,36.9z M36.1,25.4l-3.9-4v-5.6l3.9-3.9h5.6l4,3.9v5.6l-4,4
		H36.1z M38.9,16.9c0.9,0,1.7,0.8,1.7,1.7s-0.8,1.7-1.7,1.7s-1.7-0.8-1.7-1.7S38,16.9,38.9,16.9z M36.1,5.4l-3.9-4v-5.6l3.9-3.9h5.6
		l4,3.9v5.6l-4,4H36.1z M38.9-3.1c0.9,0,1.7,0.8,1.7,1.7s-0.8,1.7-1.7,1.7s-1.7-0.8-1.7-1.7S38-3.1,38.9-3.1z M6.1,145.4l-3.9-4
		v-5.6l3.9-3.9h5.6l4,3.9v5.6l-4,4H6.1z M8.9,136.9c0.9,0,1.7,0.8,1.7,1.7s-0.8,1.7-1.7,1.7s-1.7-0.8-1.7-1.7S8,136.9,8.9,136.9z
		 M6.1,125.4l-3.9-4v-5.6l3.9-3.9h5.6l4,3.9v5.6l-4,4H6.1z M8.9,116.9c0.9,0,1.7,0.8,1.7,1.7s-0.8,1.7-1.7,1.7s-1.7-0.8-1.7-1.7
		S8,116.9,8.9,116.9z M6.1,105.4l-3.9-4v-5.6l3.9-3.9h5.6l4,3.9v5.6l-4,4H6.1z M8.9,96.9c0.9,0,1.7,0.8,1.7,1.7s-0.8,1.7-1.7,1.7
		s-1.7-0.8-1.7-1.7S8,96.9,8.9,96.9z M6.1,85.4l-3.9-4v-5.6l3.9-3.9h5.6l4,3.9v5.6l-4,4H6.1z M8.9,76.9c0.9,0,1.7,0.8,1.7,1.7
		s-0.8,1.7-1.7,1.7s-1.7-0.8-1.7-1.7S8,76.9,8.9,76.9z M6.1,65.4l-3.9-4v-5.6l3.9-3.9h5.6l4,3.9v5.6l-4,4H6.1z M8.9,56.9
		c0.9,0,1.7,0.8,1.7,1.7s-0.8,1.7-1.7,1.7s-1.7-0.8-1.7-1.7S8,56.9,8.9,56.9z M6.1,45.4l-3.9-4v-5.6l3.9-3.9h5.6l4,3.9v5.6l-4,4H6.1
		z M8.9,36.9c0.9,0,1.7,0.8,1.7,1.7s-0.8,1.7-1.7,1.7s-1.7-0.8-1.7-1.7S8,36.9,8.9,36.9z M6.1,25.4l-3.9-4v-5.6l3.9-3.9h5.6l4,3.9
		v5.6l-4,4H6.1z M8.9,16.9c0.9,0,1.7,0.8,1.7,1.7s-0.8,1.7-1.7,1.7s-1.7-0.8-1.7-1.7S8,16.9,8.9,16.9z M6.1,5.4l-3.9-4v-5.6l3.9-3.9
		h5.6l4,3.9v5.6l-4,4H6.1z M8.9-3.1c0.9,0,1.7,0.8,1.7,1.7S9.8,0.3,8.9,0.3S7.2-0.5,7.2-1.4S8-3.1,8.9-3.1z"/>
		</g>
</g>
</svg>
