<?xml version="1.0" encoding="iso-8859-1"?>
<!-- Generator: Adobe Illustrator 15.0.0, SVG Export Plug-In . SVG Version: 6.00 Build 0)  -->
<!DOCTYPE svg PUBLIC "-//W3C//DTD SVG 1.1//EN" "http://www.w3.org/Graphics/SVG/1.1/DTD/svg11.dtd">
<svg version="1.1" id="Layer_1" xmlns="http://www.w3.org/2000/svg" xmlns:xlink="http://www.w3.org/1999/xlink" x="0px" y="0px"
	 width="133.299px" height="135.171px" viewBox="0 0 133.299 135.171" style="enable-background:new 0 0 133.299 135.171;"
	 xml:space="preserve">
<g>
	<defs>
		<rect id="SVGID_1_" width="133.299" height="135.171"/>
	</defs>
	<clipPath id="SVGID_2_">
		<use xlink:href="#SVGID_1_"  style="overflow:visible;"/>
	</clipPath>
	<g style="clip-path:url(#SVGID_2_);">
		<defs>
			<rect id="SVGID_3_" width="133.299" height="135.171"/>
		</defs>
		<clipPath id="SVGID_4_">
			<use xlink:href="#SVGID_3_"  style="overflow:visible;"/>
		</clipPath>
		<path style="clip-path:url(#SVGID_4_);fill:#E6458E;" d="M133.148,67.761c0,36.539-29.621,66.158-66.16,66.158
			S0.829,104.3,0.829,67.761s29.621-66.16,66.16-66.16S133.148,31.222,133.148,67.761"/>
		<path style="clip-path:url(#SVGID_4_);fill:#1D1E1C;" d="M133.299,67.761c0.021,8.681-1.635,17.359-4.811,25.474
			c-3.168,8.12-7.975,15.63-14.053,21.974c-6.066,6.35-13.461,11.507-21.619,14.908c-8.141,3.451-17.002,5.145-25.836,5.051
			c-8.808-0.112-17.595-1.999-25.636-5.498c-8.047-3.5-15.352-8.58-21.483-14.783c-6.125-6.207-11.113-13.549-14.5-21.601
			C2.006,85.229,0.098,76.54,0.008,67.754c-0.129-8.75,1.416-17.602,4.742-25.774c3.289-8.182,8.227-15.721,14.459-22
			c6.217-6.292,13.684-11.363,21.857-14.803C49.24,1.72,58.115-0.006,66.998,0.001C75.84,0.048,84.73,1.792,92.865,5.287
			c8.156,3.452,15.539,8.632,21.604,14.994c6.07,6.359,10.875,13.873,14.043,21.996C131.686,50.395,133.334,59.078,133.299,67.761
			 M132.998,67.76c-0.023-8.64-1.777-17.282-5.256-25.163c-3.461-7.884-8.486-15.035-14.67-20.92
			C100.723,9.88,83.947,3.053,66.978,3.2c-8.439-0.005-16.89,1.671-24.714,4.866c-7.832,3.187-15.03,7.949-21.059,13.91
			c-6.021,5.966-10.916,13.092-14.256,20.916C3.625,50.719,1.766,59.193,1.65,67.765c-0.103,8.536,1.391,17.174,4.686,25.116
			c3.242,7.956,8.086,15.278,14.215,21.317c3.06,3.019,6.426,5.723,10.021,8.064c3.606,2.326,7.434,4.293,11.412,5.863
			c7.957,3.154,16.496,4.669,25.012,4.545c8.488-0.082,16.953-1.789,24.811-4.99c7.85-3.227,15.119-7.899,21.296-13.805
			c6.177-5.9,11.202-13.054,14.663-20.942C131.242,85.048,132.988,76.401,132.998,67.76"/>
		<path style="clip-path:url(#SVGID_4_);fill:#FFF208;" d="M89.852,26.808c10.178-0.994,20.174-0.611,29.672,1.039
			C111.838,17.679,101.275,9.81,89.049,5.44c0.025,6.623-0.225,13.375-0.752,20.219C88.814,26.04,89.34,26.413,89.852,26.808"/>
		<path style="clip-path:url(#SVGID_4_);fill:#1D1E1C;" d="M89.852,26.808l7.417-0.646c1.241-0.043,2.484-0.049,3.729-0.077
			l3.734-0.04c0.622,0.007,1.242,0.064,1.863,0.093l1.863,0.107l3.729,0.214c2.473,0.283,4.941,0.624,7.411,0.956l-0.425,0.696
			l-3.021-3.68l-3.279-3.45l-3.519-3.204l-3.723-2.964l-3.922-2.696l-4.108-2.405l-4.273-2.101l-4.407-1.813l0.508-0.358
			l-0.298,10.128l-0.782,10.095l-0.021-0.045L89.852,26.808z M89.852,26.808l-1.585-1.106l-0.022-0.016l0.001-0.03l0.374-10.108
			l0.05-10.105l0.003-0.556l0.505,0.196l4.497,1.746l4.347,2.094l4.186,2.406l4.001,2.702l3.791,2.993l3.544,3.279l3.298,3.526
			l3.033,3.754l0.692,0.857l-1.117-0.161l-7.338-1.064l-3.696-0.302l-1.85-0.151c-0.617-0.044-1.233-0.116-1.852-0.138l-3.708-0.056
			c-1.236-0.023-2.475-0.066-3.715-0.072L89.852,26.808z"/>
		<path style="clip-path:url(#SVGID_4_);fill:#FF0D9D;" d="M37.283,8.589c18.045,0.139,35.984,6.002,51.014,17.07
			c0.527-6.843,0.777-13.595,0.752-20.218c-6.943-2.481-14.416-3.84-22.21-3.84C56.209,1.601,46.176,4.126,37.283,8.589"/>
		<path style="clip-path:url(#SVGID_4_);fill:none;stroke:#1D1E1C;stroke-width:1.417;stroke-miterlimit:10;" d="M37.283,8.589
			c18.045,0.139,35.984,6.002,51.014,17.07c0.527-6.843,0.777-13.595,0.752-20.218c-6.943-2.481-14.416-3.84-22.21-3.84
			C56.209,1.601,46.176,4.126,37.283,8.589z"/>
		<path style="clip-path:url(#SVGID_4_);fill:#C1E52C;" d="M89.852,26.808c6.881,5.303,13.115,11.719,18.412,19.205
			c11.553,16.33,16.83,35.162,16.336,53.549c5.25-9.469,8.248-20.359,8.248-31.953c0-14.932-4.965-28.701-13.324-39.762
			C110.025,26.197,100.029,25.813,89.852,26.808"/>
		<path style="clip-path:url(#SVGID_4_);fill:#1D1E1C;" d="M90.578,26.762l3.604,3.013l1.003,0.838l0.947,0.917l1.892,1.834
			l1.891,1.835l1.75,1.96l1.743,1.965c0.584,0.652,1.174,1.3,1.684,2.014l3.183,4.18c1.039,1.448,1.914,2.925,2.878,4.387
			l1.416,2.197c0.433,0.76,0.832,1.544,1.25,2.314c0.813,1.554,1.682,3.083,2.449,4.657l2.088,4.818
			c0.756,1.582,1.221,3.276,1.81,4.924c0.55,1.66,1.185,3.295,1.555,5.009l1.286,5.088l0.881,5.173
			c0.352,1.717,0.445,3.467,0.609,5.208c0.135,1.742,0.376,3.479,0.331,5.231l0.052,5.245l-0.523-0.144
			c0.709-1.408,1.489-2.782,2.139-4.219c0.615-1.452,1.333-2.862,1.836-4.36l0.82-2.22c0.271-0.74,0.465-1.507,0.701-2.26
			c0.22-0.757,0.467-1.508,0.665-2.271l0.534-2.306c0.4-1.529,0.599-3.098,0.868-4.652c0.148-0.776,0.229-1.562,0.3-2.348
			l0.235-2.357c0.123-1.573,0.129-3.154,0.199-4.731l-0.177-4.74c-0.004-0.794-0.119-1.575-0.215-2.358l-0.288-2.349
			c-0.134-1.575-0.524-3.111-0.831-4.66c-0.165-0.772-0.309-1.551-0.492-2.318l-0.668-2.274l-0.668-2.275
			c-0.219-0.76-0.55-1.481-0.818-2.224c-0.591-1.465-1.067-2.98-1.806-4.381l-1.025-2.139c-0.34-0.714-0.67-1.434-1.09-2.105
			c-0.808-1.358-1.56-2.753-2.414-4.083l-2.7-3.901l0.049,0.029l-3.683-0.519c-1.228-0.168-2.454-0.358-3.685-0.509l-3.71-0.268
			l-1.855-0.134c-0.618-0.038-1.236-0.104-1.855-0.119l-3.721-0.018c-1.24-0.002-2.479-0.023-3.721-0.008L90.578,26.762z
			 M89.126,26.856l8.153-0.547c1.24-0.022,2.481-0.007,3.722-0.013l3.724-0.001c0.62,0.012,1.238,0.075,1.857,0.11l1.857,0.124
			l3.716,0.249c1.231,0.144,2.46,0.328,3.69,0.49l3.691,0.501l0.031,0.004l0.018,0.026l2.729,3.898
			c0.863,1.328,1.625,2.722,2.442,4.082c0.425,0.671,0.76,1.39,1.104,2.104l1.04,2.141c0.748,1.403,1.234,2.921,1.836,4.389
			c0.273,0.744,0.609,1.467,0.832,2.228l0.684,2.281l0.684,2.281c0.188,0.77,0.337,1.55,0.507,2.326
			c0.316,1.555,0.716,3.096,0.86,4.682l0.302,2.367c0.101,0.788,0.221,1.576,0.229,2.368l0.202,4.755
			c-0.062,1.587-0.06,3.177-0.175,4.761l-0.225,2.373c-0.066,0.792-0.145,1.583-0.289,2.364c-0.263,1.567-0.455,3.147-0.85,4.689
			l-0.525,2.325c-0.195,0.77-0.44,1.527-0.658,2.291c-0.234,0.76-0.425,1.533-0.694,2.28l-0.814,2.242
			c-0.5,1.512-1.214,2.938-1.827,4.404c-0.647,1.451-1.427,2.841-2.135,4.266l-0.506,1.018l-0.018-1.161l-0.079-5.21
			c0.036-1.74-0.213-3.466-0.356-5.194c-0.172-1.729-0.272-3.465-0.632-5.168l-0.901-5.129l-1.303-5.042
			c-0.375-1.698-1.016-3.317-1.568-4.962c-0.594-1.63-1.062-3.307-1.821-4.873l-2.095-4.765c-0.768-1.552-1.631-3.054-2.441-4.583
			c-0.416-0.759-0.812-1.528-1.244-2.279l-1.427-2.19c-0.962-1.442-1.878-2.962-2.878-4.338l-3.174-4.123
			c-0.508-0.704-1.096-1.342-1.678-1.986l-1.736-1.935l-1.741-1.931l-1.871-1.796l-1.87-1.796l-0.936-0.897l-1.007-0.833
			L89.126,26.856z"/>
		<path style="clip-path:url(#SVGID_4_);fill:none;stroke:#1D1E1C;stroke-miterlimit:10;" d="M89.852,26.808
			c-0.512-0.395-1.037-0.768-1.555-1.148c-0.035,0.439-0.066,0.878-0.102,1.32C88.748,26.917,89.299,26.861,89.852,26.808z"/>
		<path style="clip-path:url(#SVGID_4_);fill:#00BDFF;" d="M61.492,33.159c8.891-3.156,17.859-5.187,26.703-6.18
			c0.035-0.441,0.066-0.881,0.102-1.32C73.268,14.591,55.328,8.727,37.283,8.589C15.67,19.432,0.828,41.782,0.828,67.608
			c0,4.53,0.459,8.949,1.326,13.221C14.275,60.095,35.021,42.557,61.492,33.159"/>
		<path style="clip-path:url(#SVGID_4_);fill:#1D1E1C;" d="M61.477,33.112l6.525-2.138c2.208-0.606,4.428-1.176,6.641-1.774
			c1.115-0.26,2.239-0.481,3.359-0.724l3.363-0.715c2.263-0.364,4.532-0.699,6.8-1.051l-0.24,0.248l0.085-1.321l0.116,0.254
			l-5.684-3.749l-5.931-3.333c-1.015-0.504-2.055-0.958-3.08-1.44l-3.086-1.426c-1.047-0.432-2.115-0.813-3.172-1.222l-3.178-1.207
			c-1.077-0.352-2.172-0.647-3.258-0.973l-3.262-0.957c-1.101-0.269-2.214-0.488-3.321-0.734l-3.326-0.721
			c-2.244-0.326-4.495-0.616-6.745-0.928L37.281,8.81l0.101-0.024c-1.569,0.863-3.19,1.642-4.708,2.599
			c-1.506,0.971-3.064,1.87-4.48,2.975l-2.172,1.59l-2.058,1.735c-1.401,1.125-2.643,2.425-3.934,3.67
			c-0.661,0.609-1.236,1.299-1.837,1.964L16.4,25.325c-1.085,1.428-2.247,2.801-3.245,4.29c-0.984,1.499-2.039,2.951-2.883,4.535
			l-1.337,2.331l-1.177,2.415c-0.832,1.588-1.447,3.273-2.125,4.929c-0.358,0.82-0.62,1.678-0.894,2.529l-0.827,2.552
			c-0.443,1.732-0.905,3.462-1.267,5.211l-0.458,2.642l-0.229,1.319l-0.14,1.333c-0.177,1.777-0.417,3.55-0.42,5.339l-0.087,2.678
			c0.003,0.872,0.045,1.79,0.065,2.683c0.005,0.904,0.106,1.783,0.169,2.672c0.062,0.887,0.138,1.772,0.27,2.657
			c0.194,1.775,0.528,3.529,0.849,5.286l-0.959-0.16c0.857-1.382,1.682-2.786,2.567-4.151c0.929-1.335,1.814-2.701,2.78-4.01
			c0.992-1.288,1.927-2.623,2.968-3.872c1.052-1.239,2.036-2.538,3.146-3.727c1.107-1.19,2.145-2.446,3.314-3.578
			c1.157-1.141,2.252-2.347,3.475-3.418c1.209-1.088,2.373-2.224,3.641-3.243c1.253-1.034,2.468-2.115,3.777-3.078
			c1.295-0.98,2.556-2.007,3.911-2.902c1.343-0.913,2.647-1.882,4.037-2.722c1.382-0.849,2.72-1.769,4.145-2.548
			c1.417-0.788,2.787-1.658,4.241-2.378c1.447-0.73,2.859-1.529,4.333-2.201c1.477-0.667,2.917-1.411,4.406-2.048
			c1.495-0.624,2.977-1.277,4.48-1.878L61.477,33.112z M61.508,33.206l-4.527,1.742c-1.496,0.614-2.97,1.28-4.455,1.918
			c-1.479,0.655-2.919,1.392-4.372,2.102c-1.455,0.705-2.843,1.536-4.268,2.297c-1.432,0.751-2.777,1.651-4.169,2.468
			c-1.398,0.81-2.707,1.762-4.059,2.642c-1.36,0.87-2.631,1.868-3.941,2.809c-1.319,0.928-2.553,1.97-3.825,2.959
			c-1.284,0.976-2.474,2.068-3.7,3.113c-1.241,1.029-2.378,2.174-3.559,3.268c-1.194,1.083-2.287,2.268-3.427,3.407
			c-1.155,1.123-2.179,2.37-3.273,3.551c-1.097,1.18-2.067,2.469-3.107,3.699c-1.027,1.239-1.948,2.562-2.927,3.839
			c-0.953,1.298-1.825,2.652-2.741,3.976l-2.554,4.097l-0.726,1.162l-0.233-1.321c-0.316-1.785-0.642-3.568-0.827-5.372
			c-0.128-0.897-0.201-1.804-0.258-2.712c-0.059-0.905-0.154-1.817-0.153-2.713c-0.014-0.905-0.05-1.785-0.047-2.71l0.105-2.715
			c0.016-1.814,0.268-3.61,0.463-5.41l0.162-1.348l0.251-1.335l0.502-2.668c0.392-1.765,0.884-3.511,1.357-5.254l0.872-2.569
			c0.29-0.857,0.567-1.718,0.941-2.542c0.708-1.664,1.354-3.355,2.216-4.945L8.45,36.22l1.383-2.329
			c0.875-1.582,1.96-3.031,2.973-4.524c0.491-0.758,1.081-1.443,1.637-2.153l1.677-2.122l1.815-2.008
			c0.608-0.665,1.191-1.355,1.858-1.963c1.305-1.244,2.559-2.544,3.973-3.667l2.06-1.751l2.17-1.614
			c1.416-1.121,2.975-2.036,4.483-3.026c0.745-0.511,1.554-0.914,2.34-1.355l2.366-1.316l0.046-0.026l0.054,0.002l6.849,0.265
			c2.269,0.269,4.542,0.521,6.811,0.809l3.366,0.665c1.12,0.229,2.248,0.43,3.364,0.681l3.3,0.945
			c1.097,0.323,2.206,0.615,3.295,0.963l3.216,1.201c1.069,0.409,2.153,0.783,3.209,1.22l3.104,1.474
			c1.03,0.497,2.074,0.968,3.093,1.487l2.977,1.711c0.988,0.576,1.99,1.129,2.967,1.724l5.633,3.915l0.131,0.091l-0.015,0.164
			l-0.118,1.318l-0.021,0.22l-0.22,0.029c-2.264,0.295-4.531,0.576-6.796,0.887l-3.368,0.633c-1.122,0.216-2.25,0.412-3.368,0.646
			l-3.322,0.848c-1.106,0.287-2.218,0.558-3.321,0.859L61.508,33.206z"/>
		<path style="clip-path:url(#SVGID_4_);fill:#FF0D9D;" d="M107.264,46.013c-5.297-7.486-11.531-13.902-18.412-19.205
			c-0.553,0.053-1.104,0.109-1.656,0.172c-0.118,1.435-0.246,2.873-0.391,4.316c-4.016,40.352-17.186,75.92-35.217,100.764
			c4.592,1.01,9.356,1.559,14.25,1.559c24.864,0,46.506-13.75,57.762-34.057C124.094,81.175,118.816,62.343,107.264,46.013"/>
		<path style="clip-path:url(#SVGID_4_);fill:none;stroke:#1D1E1C;stroke-miterlimit:10;" d="M107.264,46.013
			c-5.297-7.486-11.531-13.902-18.412-19.205c-0.553,0.053-1.104,0.109-1.656,0.172c-0.118,1.435-0.246,2.873-0.391,4.316
			c-4.016,40.352-17.186,75.92-35.217,100.764c4.592,1.01,9.356,1.559,14.25,1.559c24.864,0,46.506-13.75,57.762-34.057
			C124.094,81.175,118.816,62.343,107.264,46.013z"/>
		<path style="clip-path:url(#SVGID_4_);fill:#FFF208;" d="M88.195,26.979c-8.844,0.992-17.812,3.023-26.703,6.18
			C35.021,42.558,14.275,60.095,2.154,80.829c5.186,25.504,25.076,45.648,50.434,51.23c18.031-24.844,31.201-60.412,35.216-100.764
			C87.949,29.853,88.076,28.416,88.195,26.979"/>
		<path style="clip-path:url(#SVGID_4_);fill:#1D1E1C;" d="M88.079,27.099l-6.354,1.051l-6.391,1.429l-6.31,1.745
			c-2.087,0.624-4.133,1.387-6.202,2.071c-1.04,0.33-2.024,0.745-3.054,1.153l-3.05,1.22l-2.977,1.317
			c-0.997,0.425-1.984,0.877-2.955,1.373L47.86,39.9c-0.964,0.5-1.911,1.037-2.867,1.554c-1.928,1.006-3.759,2.185-5.626,3.294
			c-0.927,0.564-1.816,1.191-2.726,1.784c-0.904,0.603-1.82,1.186-2.69,1.837l-2.649,1.894c-0.882,0.633-1.717,1.329-2.577,1.989
			c-1.738,1.304-3.349,2.761-5.007,4.16c-0.814,0.718-1.593,1.473-2.39,2.209c-0.8,0.733-1.589,1.477-2.336,2.264l-2.279,2.322
			l-2.175,2.419c-0.741,0.793-1.424,1.634-2.114,2.469c-0.687,0.839-1.409,1.65-2.066,2.512c-1.313,1.725-2.646,3.437-3.844,5.244
			c-1.272,1.759-2.361,3.636-3.524,5.466l0.113-0.681l1.076,4.556l1.402,4.467l1.715,4.36c0.651,1.418,1.346,2.819,2.016,4.232
			c0.753,1.368,1.545,2.717,2.317,4.079l2.603,3.906l2.864,3.728l3.126,3.517l3.377,3.283l3.61,3.031l3.822,2.767
			c1.338,0.827,2.665,1.676,4.023,2.475l4.201,2.159l4.348,1.852l4.473,1.53l4.583,1.157l-0.34,0.129
			c1.302-1.937,2.678-3.822,3.918-5.8c1.236-1.979,2.519-3.929,3.623-5.986l1.718-3.047c0.557-1.024,1.076-2.069,1.615-3.103
			c0.53-1.039,1.084-2.063,1.59-3.114l1.495-3.16c1.029-2.092,1.914-4.249,2.845-6.385c0.474-1.063,0.913-2.143,1.341-3.227
			l1.31-3.238c0.891-2.152,1.632-4.363,2.454-6.542c0.803-2.187,1.478-4.418,2.261-6.611c0.746-2.207,1.393-4.446,2.095-6.668
			c0.673-2.231,1.255-4.489,1.887-6.732c0.606-2.25,1.119-4.526,1.684-6.788c0.538-2.268,1.017-4.551,1.529-6.827
			c0.514-2.276,0.894-4.579,1.347-6.869c0.471-2.287,0.755-4.605,1.161-6.905c0.42-2.299,0.688-4.619,1.021-6.933
			C87.541,31.659,87.801,29.381,88.079,27.099 M88.295,26.988c-0.135,2.335-0.266,4.675-0.507,7.005
			c-0.226,2.33-0.389,4.671-0.7,6.993c-0.307,2.322-0.548,4.656-0.944,6.967c-0.388,2.311-0.702,4.639-1.149,6.94
			c-0.459,2.299-0.832,4.619-1.363,6.905c-0.54,2.283-1.028,4.579-1.611,6.852c-0.609,2.266-1.168,4.547-1.818,6.803
			c-0.68,2.246-1.306,4.511-2.03,6.744c-0.741,2.229-1.462,4.464-2.291,6.662c-0.851,2.189-1.619,4.409-2.538,6.572
			c-0.923,2.159-1.749,4.36-2.79,6.469c-1.003,2.124-1.962,4.268-3.062,6.343l-1.602,3.136c-0.542,1.04-1.135,2.055-1.699,3.083
			c-0.577,1.022-1.132,2.056-1.725,3.068l-1.824,3.01c-1.189,2.021-2.517,3.958-3.773,5.937c-1.271,1.971-2.678,3.85-4.01,5.778
			l-0.128,0.186l-0.212-0.056l-4.614-1.228l-4.527-1.51l-4.409-1.829l-4.268-2.142l-4.117-2.426l-3.943-2.704l-3.743-2.982
			l-3.529-3.241l-3.291-3.489l-3.035-3.72c-0.917-1.311-1.846-2.617-2.746-3.942c-0.817-1.378-1.656-2.744-2.455-4.134
			c-0.717-1.435-1.456-2.859-2.153-4.304c-0.614-1.481-1.241-2.961-1.828-4.455L2.366,85.7l-1.16-4.678l-0.089-0.356l0.202-0.325
			c1.164-1.88,2.257-3.809,3.533-5.617c1.204-1.858,2.543-3.62,3.865-5.395c0.661-0.888,1.388-1.724,2.078-2.587
			c0.693-0.863,1.406-1.71,2.161-2.519l2.23-2.458l2.334-2.357c0.765-0.798,1.572-1.554,2.39-2.298
			c0.817-0.746,1.614-1.513,2.446-2.24c1.695-1.419,3.343-2.895,5.116-4.216c0.88-0.669,1.733-1.372,2.634-2.013l2.703-1.917
			c0.89-0.655,1.84-1.222,2.768-1.82c0.938-0.584,1.853-1.202,2.808-1.758c1.92-1.09,3.801-2.248,5.778-3.231
			c0.982-0.505,1.951-1.031,2.941-1.519l2.996-1.403c0.99-0.482,2.004-0.921,3.03-1.336l3.061-1.273l3.09-1.122
			c1.02-0.365,2.069-0.766,3.129-1.066c2.112-0.625,4.199-1.326,6.327-1.888c2.142-0.507,4.268-1.072,6.419-1.525l6.498-1.136
			l6.648-0.781L88.295,26.988z"/>
		<path style="clip-path:url(#SVGID_4_);fill:#FFFFFF;" d="M93.715,21.411c5.164,3.695,7.076,9.875,4.266,13.803
			c-2.809,3.929-9.277,4.117-14.441,0.422c-5.166-3.696-7.078-9.877-4.268-13.805C82.08,17.903,88.549,17.718,93.715,21.411"/>
		<path style="clip-path:url(#SVGID_4_);fill:#1D1E1C;" d="M93.758,21.351c2.152,1.557,4.133,3.512,5.316,6.053
			c0.586,1.258,0.957,2.672,0.907,4.128c-0.036,1.461-0.489,2.903-1.366,4.17c-0.834,1.172-2.098,2.141-3.453,2.655
			c-1.367,0.525-2.82,0.701-4.23,0.628c-2.84-0.145-5.492-1.312-7.641-3.021c-2.127-1.693-3.859-3.889-4.879-6.41
			c-0.504-1.259-0.842-2.615-0.84-4.02c0.014-1.407,0.377-2.829,1.202-4.083c0.786-1.178,2.021-2.143,3.362-2.647
			c1.344-0.533,2.797-0.651,4.176-0.507C89.096,18.58,91.58,19.831,93.758,21.351 M93.67,21.472
			c-2.146-1.562-4.834-2.332-7.391-2.234c-2.549,0.112-5.002,1.002-6.514,2.972c-1.508,1.86-1.811,4.737-0.898,7.172
			c0.879,2.475,2.729,4.52,4.916,5.924c2.176,1.375,4.695,2.228,7.195,2.269c2.496,0.047,4.959-0.878,6.367-2.845
			c0.676-0.903,1.08-2.088,1.195-3.282c0.104-1.208-0.035-2.468-0.392-3.695C97.436,25.3,95.832,23.014,93.67,21.472"/>
		<g style="opacity:0.05;clip-path:url(#SVGID_4_);">
			<g>
				<defs>
					<rect id="SVGID_5_" x="2.032" y="26.925" width="129.911" height="106.994"/>
				</defs>
				<clipPath id="SVGID_6_">
					<use xlink:href="#SVGID_5_"  style="overflow:visible;"/>
				</clipPath>
				<path style="clip-path:url(#SVGID_6_);fill:#1D1E1C;" d="M16.159,26.925C14.6,32.556,13.75,38.482,13.75,44.609
					c0,36.539,29.621,66.158,66.16,66.158c21.124,0,39.921-9.911,52.033-25.323c-7.736,27.949-33.339,48.476-63.751,48.476
					c-36.539,0-66.16-29.619-66.16-66.158C2.032,52.345,7.319,38.173,16.159,26.925"/>
			</g>
		</g>
	</g>
</g>
</svg>
