<?xml version="1.0" encoding="iso-8859-1"?>
<!-- Generator: Adobe Illustrator 15.0.0, SVG Export Plug-In . SVG Version: 6.00 Build 0)  -->
<!DOCTYPE svg PUBLIC "-//W3C//DTD SVG 1.1//EN" "http://www.w3.org/Graphics/SVG/1.1/DTD/svg11.dtd">
<svg version="1.1" id="Layer_1" xmlns="http://www.w3.org/2000/svg" xmlns:xlink="http://www.w3.org/1999/xlink" x="0px" y="0px"
	 width="102.694px" height="103.51px" viewBox="0 0 102.694 103.51" style="enable-background:new 0 0 102.694 103.51;"
	 xml:space="preserve">
<g>
	<defs>
		<rect id="SVGID_1_" width="102.694" height="103.51"/>
	</defs>
	<clipPath id="SVGID_2_">
		<use xlink:href="#SVGID_1_"  style="overflow:visible;"/>
	</clipPath>
	<path style="clip-path:url(#SVGID_2_);fill:#F5F5F5;" d="M102.594,51.653c0,28.07-22.842,50.825-51.021,50.825
		c-28.178,0-51.022-22.755-51.022-50.825c0-28.069,22.844-50.824,51.022-50.824C79.752,0.83,102.594,23.584,102.594,51.653"/>
	<path style="clip-path:url(#SVGID_2_);" d="M102.693,51.653c0.023,6.68-1.261,13.361-3.73,19.592
		c-2.465,6.236-6.189,11.992-10.883,16.848c-4.68,4.877-10.402,8.758-16.648,11.42c-6.246,2.682-13.066,3.97-19.859,3.997
		c-6.793,0.004-13.617-1.273-19.892-3.913c-6.28-2.622-12.024-6.491-16.813-11.303c-4.801-4.803-8.613-10.574-11.16-16.85
		c-2.574-6.268-3.787-13.057-3.703-19.79c0.06-6.743,1.517-13.433,4.109-19.621c2.613-6.187,6.459-11.823,11.172-16.598
		c2.365-2.382,4.973-4.522,7.75-6.411c2.771-1.902,5.732-3.535,8.828-4.863c6.193-2.66,12.936-4.091,19.709-4.16
		c6.766-0.017,13.576,1.224,19.832,3.861c6.268,2.596,11.963,6.523,16.651,11.373c4.7,4.846,8.427,10.6,10.892,16.832
		C101.42,38.296,102.707,44.973,102.693,51.653 M102.494,51.653c-0.008-6.653-1.355-13.309-4.029-19.385
		c-2.66-6.076-6.529-11.593-11.293-16.142c-9.52-9.112-22.453-14.434-35.6-14.469C38.465,1.452,25.181,6.536,15.773,15.926
		C11.027,20.549,7.275,26.18,4.764,32.303c-2.553,6.116-3.733,12.761-3.666,19.351c0.08,6.601,1.501,13.146,4.072,19.18
		c2.58,6.035,6.365,11.532,11.023,16.126c9.317,9.23,22.303,14.49,35.379,14.487c13.088,0.057,26.072-5.159,35.58-14.288
		c4.768-4.539,8.637-10.053,11.299-16.127C101.123,64.958,102.477,58.308,102.494,51.653"/>
	<path style="clip-path:url(#SVGID_2_);" d="M91.398,20.777c0,0,7.402,10.042,6.357,15.489c2.27,1.016,2.27,1.016,3,3.55
		C100.027,31.63,94.955,23.313,91.398,20.777"/>
	<path style="clip-path:url(#SVGID_2_);" d="M100.406,67.284c-0.049,0.002,1.51-7.393,1.607-15.711
		c0.066-4.152-0.289-8.093-0.873-10.941c-0.555-2.858-1.318-4.59-1.326-4.58c0.012-0.016,0.996,1.841,1.707,4.8
		c0.744,2.944,1.203,6.936,1.139,10.739C102.625,59.239,100.391,67.304,100.406,67.284"/>
	<path style="clip-path:url(#SVGID_2_);fill:#FFFFFF;" d="M84.568,16.641C54.99,5.512,27.475,22.619,39.211,61.231
		c11.734,38.612,50.167,22.071,59.087,3.764C104.674,51.909,96.423,21.101,84.568,16.641"/>
	<path style="clip-path:url(#SVGID_2_);" d="M33.984,34.714c0,0,9.037,13.614,12.088,16.666c0,0-5.75,6.925-11.383,17.839
		c-5.635-1.995-11.268-2.581-17.84-6.22c-3.99-9.624-2.113-16.9-0.939-22.064C19.49,37.355,27.413,35.653,33.984,34.714"/>
	<path style="clip-path:url(#SVGID_2_);" d="M77.174,33.658c0,0-0.234,5.047-9.623,17.369c7.863,9.624,8.215,12.911,10.68,18.191
		c6.923-1.76,13.379-5.868,14.904-9.741c1.527-3.872,0.822-16.548-0.469-19.364C91.375,37.296,80.93,33.658,77.174,33.658"/>
	<path style="clip-path:url(#SVGID_2_);" d="M44.898,86.941c0,0,8.686,3.638,21.596-0.704c2.934,6.572,3.873,9.036,3.873,9.036
		c-3.17,6.221-23.473,10.915-32.393,0.938C41.32,92.868,44.372,90.521,44.898,86.941"/>
	<path style="clip-path:url(#SVGID_2_);" d="M36.566,7.251c5.34-5.34,20.539-9.741,32.627,0.117c-1.408,4.226-3.99,9.154-3.99,9.154
		s-15.258-2.816-20.891,0.587C41.73,12.65,36.566,7.251,36.566,7.251"/>
	<path style="clip-path:url(#SVGID_2_);" d="M1.709,39.761c-0.41-5.34,10.68-24.998,16.08-24.998
		c-5.869,5.868-9.037,12.91-9.037,16.783C5.23,33.189,3.879,36.24,1.709,39.761"/>
	<path style="clip-path:url(#SVGID_2_);" d="M3.281,67.755c-1.762,1.761,6.924,19.717,15.727,22.416
		c-9.625-8.92-9.86-13.849-9.155-16.666C5.101,73.505,4.218,70.571,3.281,67.755"/>
	<path style="clip-path:url(#SVGID_2_);" d="M100.412,67.459c0,0-0.939,2.112-2.992,2.992c-0.354,2.583-1.762,7.746-3.463,9.448
		C97.654,76.202,100.412,67.459,100.412,67.459"/>
	<path style="clip-path:url(#SVGID_2_);" d="M35.162,7.277c0.01,0.04-4.172,0.719-8.506,2.377c-4.379,1.569-7.846,4.011-7.793,4.071
		c-0.105-0.068,3.467-3.255,7.57-4.677C30.457,7.464,35.185,7.298,35.162,7.277"/>
	<path style="clip-path:url(#SVGID_2_);" d="M86.484,14.956c0.014,0.005-3.033-3.075-7.303-5.054
		c-4.209-2.088-8.473-2.771-8.465-2.742c-0.029-0.072,4.816,0.163,8.75,2.164C83.512,11.144,86.551,14.956,86.484,14.956"/>
	<path style="clip-path:url(#SVGID_2_);fill:none;stroke:#000000;stroke-miterlimit:10;" d="M15.627,16.331c0,0,5.75-6.25,15.75-8.5
		s12.25-1.5,12.25-1.5l18.5,2c0,0,7.75-2.25,13.75-0.25s3.59,1.243,3.59,1.243"/>
	<path style="clip-path:url(#SVGID_2_);fill:none;stroke:#000000;stroke-miterlimit:10;" d="M45.377,15.331
		c0,0-12.25,16.75-13.5,22.75s10.25,13.25,10.25,13.25s22-0.5,28-0.75s11.5-6.25,11-8.75s-2.75-5.75-2.75-5.75s-8.75-18-16.25-22
		S45.377,15.331,45.377,15.331z"/>
	<path style="clip-path:url(#SVGID_2_);fill:none;stroke:#000000;stroke-miterlimit:10;" d="M18.377,62.331c0,0-8.25,9.75-9.5,12.5"
		/>
	<path style="clip-path:url(#SVGID_2_);fill:none;stroke:#000000;stroke-miterlimit:10;" d="M33.877,67.081
		c0,0,5.75,18.75,16.75,23.25"/>
	<path style="clip-path:url(#SVGID_2_);fill:none;stroke:#000000;stroke-miterlimit:10;" d="M79.877,66.331
		c0,0-11.25,19.25-15.25,21.75"/>
	<path style="clip-path:url(#SVGID_2_);fill:none;stroke:#000000;stroke-miterlimit:10;" d="M92.627,59.831c0,0,4.75,5.75,5.5,12"/>
	<path style="clip-path:url(#SVGID_2_);fill:none;stroke:#000000;stroke-miterlimit:10;" d="M99.127,35.581c0,0-6.75,5.25-8.25,5.25
		"/>
	<path style="clip-path:url(#SVGID_2_);fill:none;stroke:#000000;stroke-miterlimit:10;" d="M7.877,28.831c0,0,5.5,12.25,12,14.75"
		/>
	<path style="clip-path:url(#SVGID_2_);fill:none;stroke:#000000;stroke-miterlimit:10;" d="M17.377,89.331c0,0,14,8,24.75,6.75"/>
	<path style="clip-path:url(#SVGID_2_);fill:none;stroke:#000000;stroke-miterlimit:10;" d="M69.127,95.831c0,0,6.75-0.25,9.75-1.5"
		/>
</g>
</svg>
