<?xml version="1.0" encoding="utf-8"?>
<!-- Generator: Adobe Illustrator 16.0.4, SVG Export Plug-In . SVG Version: 6.00 Build 0)  -->
<!DOCTYPE svg PUBLIC "-//W3C//DTD SVG 1.1//EN" "http://www.w3.org/Graphics/SVG/1.1/DTD/svg11.dtd">
<svg version="1.1" id="Layer_1" xmlns="http://www.w3.org/2000/svg" xmlns:xlink="http://www.w3.org/1999/xlink" x="0px" y="0px"
	 width="159.15px" height="156.84px" viewBox="0 0 159.15 156.84" enable-background="new 0 0 159.15 156.84" xml:space="preserve">
<g>
	<path fill="#F7A815" d="M86.09,131.627c-0.532-5.854-2.72-10.352-4.882-10.039c-2.159,0.311-3.479,5.307-2.94,11.16
		c0.326,3.58,4.104,11.645,5,17.307c0.57,3.604-6.842,5.256-6.001,5.138c0.259-0.038,3.178-0.993,6.41-0.487
		c1.014,0.155,3.657,0.301,4.66,0.404c0.872,0.09,3.394,0.068,3.968-0.312c0.902-0.602-6.379-1.197-6.268-2.615
		C86.496,146.338,86.415,135.161,86.09,131.627z"/>
	<path fill="#1D1E1C" d="M86.09,131.627c0,0-0.042-0.364-0.121-1.047c-0.093-0.68-0.246-1.677-0.56-2.918
		c-0.316-1.234-0.799-2.742-1.74-4.242c-0.471-0.711-1.137-1.528-2.056-1.664c-0.95-0.106-1.646,0.818-2.053,1.763
		c-0.816,1.968-1.012,4.366-0.934,6.827c0.058,1.232,0.142,2.525,0.473,3.72c0.334,1.229,0.768,2.504,1.227,3.788
		c0.921,2.574,1.919,5.242,2.727,8.051c0.202,0.701,0.386,1.415,0.55,2.139c0.077,0.365,0.17,0.723,0.229,1.094
		c0.056,0.373,0.152,0.718,0.173,1.185c0.039,0.972-0.428,1.856-0.993,2.466c-0.569,0.625-1.231,1.078-1.905,1.461
		c-0.677,0.383-1.376,0.69-2.086,0.949c-0.354,0.131-0.711,0.25-1.067,0.36l-0.508,0.155c-0.011,0.002-0.002,0,0.005-0.004
		c0.417,0.338-0.056-1.824-0.259-1.084c-0.021,0-0.021,0.002-0.012,0c0.01,0-0.052,0.01-0.009,0.002l0.133-0.031l0.256-0.062
		c1.422-0.352,2.953-0.549,4.443-0.507c1.53,0.071,2.899,0.319,4.295,0.397c0.707,0.06,1.408,0.119,2.104,0.178
		c0.653,0.059,1.343,0.057,2.006,0.031c0.331-0.016,0.661-0.041,0.975-0.084c0.157-0.021,0.309-0.049,0.442-0.082
		c0.067-0.016,0.124-0.038,0.168-0.055c0,0.002,0.058-0.035,0.013,0.002c0.096-0.062-0.091,0.023-0.107,0.246
		c0.004,0.252,0.115,0.293,0.114,0.303c0.012,0.009,0-0.002-0.021-0.014c-0.041-0.023-0.104-0.051-0.172-0.076
		c-0.136-0.053-0.287-0.101-0.44-0.146c-0.317-0.084-0.633-0.168-0.947-0.252c-1.279-0.334-2.553-0.591-3.778-1.161
		c-0.298-0.167-0.63-0.303-0.884-0.742c-0.057-0.113-0.096-0.26-0.083-0.404l0.021-0.231l0.04-0.459
		c0.053-0.608,0.104-1.209,0.154-1.8c0.067-1.178,0.156-2.315,0.2-3.413c0.216-4.388,0.216-8.052,0.163-10.614
		C86.208,133.088,86.09,131.627,86.09,131.627z M86.09,131.627c0,0,0.133,1.459,0.217,4.021c0.077,2.562,0.16,6.225,0.188,10.625
		c0.014,1.1-0.017,2.249-0.023,3.438c-0.021,0.593-0.041,1.195-0.062,1.807l-0.017,0.46l-0.008,0.229
		c0,0.012,0.004,0.021,0.017,0.045c0.057,0.111,0.318,0.281,0.572,0.391c1.083,0.458,2.373,0.686,3.659,0.965
		c0.328,0.075,0.657,0.148,0.989,0.225c0.168,0.043,0.338,0.088,0.519,0.148c0.091,0.031,0.185,0.064,0.293,0.12
		c0.054,0.026,0.115,0.06,0.192,0.121c0.06,0.062,0.236,0.172,0.234,0.512c-0.024,0.308-0.283,0.455-0.254,0.44
		c-0.118,0.078-0.136,0.08-0.211,0.119c-0.11,0.047-0.215,0.086-0.312,0.11c-0.194,0.054-0.376,0.089-0.558,0.115
		c-0.359,0.054-0.713,0.084-1.066,0.106c-0.708,0.035-1.407,0.049-2.146-0.006c-0.692-0.052-1.392-0.104-2.095-0.156
		c-1.428-0.068-2.89-0.307-4.24-0.35c-1.392-0.019-2.771,0.168-4.175,0.53l-0.275,0.069l-0.133,0.033l-0.076,0.015l-0.08,0.008
		c-0.237,0.746-0.713-1.435-0.263-1.106l0.068-0.029l0.533-0.189c0.336-0.121,0.667-0.248,0.993-0.387
		c0.651-0.277,1.288-0.58,1.879-0.934c1.167-0.684,2.226-1.709,2.134-2.74c-0.017-0.262-0.115-0.627-0.171-0.973
		c-0.06-0.348-0.153-0.693-0.23-1.039c-0.166-0.689-0.351-1.377-0.557-2.059c-0.796-2.732-1.771-5.395-2.599-8.025
		c-0.41-1.32-0.826-2.615-1.092-3.961c-0.287-1.384-0.283-2.695-0.268-3.977c0.077-2.553,0.415-5.004,1.417-7.061
		c0.264-0.504,0.576-0.985,1.004-1.362c0.422-0.38,1.019-0.611,1.57-0.505c0.552,0.101,0.981,0.43,1.318,0.775
		c0.342,0.35,0.617,0.731,0.851,1.118c0.912,1.563,1.308,3.095,1.627,4.332c0.299,1.248,0.438,2.248,0.522,2.929
		C86.053,131.263,86.09,131.627,86.09,131.627z"/>
</g>
<g>
	<path id="background" fill="#B2D235" d="M69.62,38.543C69.61,38.297,66.635,19.048,82.6,7.355
		c11.862-8.688,26.801-9.713,40.792,0.382c22.79,16.444,4.491,45.262,4.491,45.262s14.571,26.104-2.475,53.264
		c-17.688,28.183-41.009,31.416-61.79,27.7C13.549,125.014,7.346,64.499,7.346,64.499S40.166,71.606,69.62,38.543z"/>
	<path fill="#1D1E1C" d="M69.62,38.543c-0.356-2.68-0.35-5.403-0.095-8.098c0.26-2.696,0.815-5.368,1.667-7.949
		c0.864-2.575,2.032-5.061,3.532-7.338c1.484-2.287,3.274-4.38,5.316-6.195c4.072-3.621,8.974-6.354,14.252-7.822
		c2.643-0.721,5.38-1.115,8.126-1.14c2.745-0.024,5.493,0.311,8.156,0.98c5.342,1.327,10.276,3.975,14.604,7.315
		c2.184,1.702,4.135,3.695,5.735,5.972c1.601,2.271,2.826,4.815,3.607,7.487c1.582,5.365,1.396,11.083,0.232,16.45
		c-0.581,2.695-1.404,5.328-2.408,7.886c-1.019,2.564-2.167,5.026-3.61,7.448l0.029-1.034c1.162,2.172,2.04,4.345,2.834,6.6
		c0.788,2.244,1.428,4.538,1.938,6.862c1.018,4.646,1.488,9.429,1.296,14.202c-0.181,4.771-1.021,9.52-2.451,14.08
		c-1.479,4.553-3.498,8.899-6.066,12.957c-1.244,1.944-2.578,3.953-4.019,5.842c-1.403,1.914-2.954,3.721-4.538,5.498
		c-3.234,3.492-6.821,6.699-10.822,9.34c-3.978,2.672-8.354,4.759-12.924,6.229c-4.579,1.449-9.352,2.227-14.123,2.424
		c-4.772,0.192-9.543-0.14-14.228-0.873l-1.753-0.291l-0.438-0.076l-0.455-0.088l-0.857-0.172c-1.133-0.207-2.322-0.513-3.487-0.789
		c-2.307-0.605-4.581-1.334-6.811-2.186c-4.452-1.719-8.698-3.975-12.615-6.697c-3.911-2.732-7.491-5.92-10.69-9.436
		c-3.205-3.514-6.019-7.363-8.492-11.401c-2.452-4.054-4.551-8.304-6.349-12.667c-1.792-4.365-3.288-8.846-4.5-13.396
		c-1.202-4.562-2.173-9.148-2.718-13.881l-0.134-1.154l1.163,0.232c1.345,0.268,2.809,0.436,4.234,0.543
		c1.437,0.107,2.881,0.142,4.326,0.139c1.444-0.017,2.892-0.068,4.334-0.191c1.442-0.109,2.882-0.283,4.314-0.491
		c2.866-0.423,5.71-1.025,8.503-1.818c0.702-0.188,1.397-0.395,2.086-0.626c0.689-0.227,1.39-0.428,2.067-0.688l2.047-0.751
		l2.02-0.827c1.331-0.584,2.667-1.166,3.96-1.835l1.944-0.995l1.905-1.072c1.271-0.712,2.495-1.509,3.729-2.285
		c1.198-0.831,2.434-1.613,3.587-2.509l1.757-1.31l1.699-1.383c1.154-0.897,2.229-1.891,3.333-2.851
		c1.103-0.962,2.126-2.009,3.193-3.011C67.6,40.666,68.6,39.596,69.62,38.543z M69.62,38.543c-0.982,1.086-1.947,2.19-2.947,3.263
		c-1.034,1.038-2.025,2.124-3.097,3.125c-1.074,1-2.117,2.036-3.248,2.974l-1.675,1.434l-1.732,1.362
		c-1.139,0.931-2.362,1.75-3.55,2.619c-1.225,0.815-2.439,1.649-3.705,2.402l-1.897,1.132l-1.94,1.057
		c-1.292,0.709-2.63,1.333-3.966,1.96l-2.026,0.891l-2.06,0.815c-0.683,0.283-1.387,0.505-2.083,0.754
		c-0.693,0.252-1.396,0.481-2.105,0.69c-1.409,0.449-2.84,0.827-4.277,1.177c-1.438,0.343-2.89,0.645-4.352,0.885
		c-1.462,0.236-2.932,0.436-4.407,0.57c-1.475,0.149-2.958,0.225-4.442,0.265c-1.483,0.026-2.971,0.013-4.458-0.074
		c-1.496-0.093-2.951-0.229-4.485-0.511l1.029-0.921c0.599,4.537,1.636,9.097,2.888,13.542c1.265,4.453,2.805,8.826,4.629,13.07
		c1.829,4.241,3.948,8.352,6.391,12.253c2.424,3.91,5.168,7.619,8.276,10.99c3.103,3.373,6.558,6.413,10.316,9.01
		c3.767,2.586,7.835,4.72,12.104,6.341c2.137,0.803,4.318,1.489,6.531,2.059c1.107,0.255,2.181,0.529,3.347,0.738l0.859,0.166
		l0.404,0.076l0.426,0.07L66.07,133c4.544,0.684,9.137,0.971,13.694,0.76c4.558-0.217,9.067-0.998,13.409-2.319
		c4.327-1.364,8.473-3.308,12.265-5.821c3.812-2.484,7.256-5.523,10.384-8.859c1.532-1.7,3.039-3.43,4.407-5.275
		c1.401-1.816,2.667-3.691,3.95-5.672c2.448-3.82,4.416-7.997,5.842-12.318c1.385-4.343,2.21-8.865,2.405-13.426
		c0.184-4.558-0.146-9.151-1.074-13.64c-0.455-2.244-1.039-4.465-1.765-6.638c-0.72-2.159-1.575-4.339-2.585-6.3l-0.277-0.537
		l0.306-0.497c1.354-2.201,2.541-4.632,3.547-7.075c1.004-2.457,1.834-4.986,2.428-7.566c1.191-5.141,1.43-10.565,0.014-15.628
		c-0.701-2.523-1.815-4.928-3.297-7.094c-1.484-2.158-3.292-4.125-5.335-5.787c-2.059-1.687-4.319-3.13-6.666-4.378
		c-2.361-1.226-4.843-2.221-7.416-2.891c-2.569-0.675-5.223-1.027-7.881-1.032c-2.659-0.004-5.315,0.349-7.892,1.022
		c-5.155,1.364-9.95,4.005-14.014,7.476c-2.03,1.737-3.82,3.752-5.319,5.969c-1.519,2.207-2.702,4.635-3.62,7.156
		c-0.906,2.528-1.525,5.164-1.851,7.838C69.408,33.142,69.331,35.856,69.62,38.543z"/>
</g>
<g>
	<g>
		<circle fill="#FFFFFF" cx="107.974" cy="26.229" r="15.106"/>
		<path fill="#1D1E1C" d="M112.503,40.535c0,0,0.346-0.133,0.995-0.383c0.333-0.11,0.713-0.3,1.153-0.53
			c0.456-0.203,0.933-0.524,1.46-0.89c1.046-0.733,2.233-1.777,3.233-3.232c1.019-1.434,1.881-3.235,2.375-5.288
			c0.474-2.053,0.625-4.347,0.212-6.716c-0.11-0.575-0.256-1.214-0.41-1.75c-0.21-0.613-0.384-1.285-0.651-1.82
			c-0.451-1.151-1.18-2.289-1.989-3.344c-0.83-1.056-1.852-1.996-2.997-2.795c-1.157-0.788-2.469-1.365-3.834-1.784
			c-1.379-0.389-2.825-0.537-4.264-0.505c-1.442,0.081-2.855,0.398-4.211,0.853c-1.371,0.545-2.591,1.193-3.721,2.039
			c-1.118,0.85-2.126,1.822-2.958,2.919c-0.809,1.111-1.506,2.287-1.997,3.537c-0.458,1.257-0.799,2.543-0.904,3.835
			c-0.232,2.599,0.209,5.057,1.164,7.329c0.92,2.09,2.359,3.957,3.903,5.354c1.569,1.403,3.309,2.384,4.962,2.974
			c1.653,0.615,3.225,0.784,4.499,0.785c0.642-0.003,1.217-0.015,1.708-0.109c0.496-0.064,0.917-0.127,1.248-0.226
			c0.67-0.166,1.027-0.253,1.027-0.253H112.503z M112.569,40.724c0,0-0.359,0.1-1.033,0.287c-0.334,0.109-0.76,0.187-1.262,0.266
			c-0.251,0.036-0.519,0.101-0.808,0.139c-0.291,0.027-0.601,0.055-0.927,0.085c-1.306,0.078-2.931,0.104-4.755-0.301
			c-1.814-0.394-3.857-1.143-5.772-2.519c-1.918-1.389-3.604-3.35-4.793-5.907c-0.159-0.316-0.244-0.601-0.371-0.906l-0.176-0.453
			l-0.089-0.227c-0.062-0.181-0.059-0.195-0.09-0.301c-0.175-0.677-0.387-1.355-0.469-2.069c-0.262-1.41-0.259-2.892-0.089-4.365
			c0.175-1.479,0.61-2.935,1.185-4.341c0.609-1.395,1.423-2.713,2.403-3.906c1.008-1.175,2.195-2.191,3.484-3.051
			c1.316-0.819,2.802-1.43,4.236-1.847c1.491-0.375,3.015-0.586,4.531-0.555c1.515,0.043,3.01,0.254,4.442,0.665
			c1.425,0.434,2.784,1.025,4.05,1.766c1.232,0.783,2.424,1.638,3.42,2.685c0.988,1.055,1.866,2.165,2.524,3.454
			c0.379,0.642,0.597,1.24,0.858,1.845c0.249,0.705,0.417,1.324,0.582,1.99c0.542,2.644,0.343,5.281-0.407,7.499
			c-0.752,2.227-1.985,4.018-3.234,5.386c-1.255,1.383-2.598,2.295-3.707,2.986c-0.284,0.164-0.552,0.319-0.805,0.465
			c-0.258,0.136-0.516,0.238-0.742,0.354c-0.458,0.227-0.849,0.41-1.181,0.513c-0.653,0.237-1.002,0.363-1.002,0.363H112.569z"/>
	</g>
	<path fill="#000100" d="M107.875,24.878c2.112-2.599,5.988-2.944,8.655-0.78c2.672,2.17,3.129,6.039,1.02,8.632
		c-2.112,2.601-5.989,2.946-8.658,0.777C106.219,31.341,105.767,27.476,107.875,24.878z"/>
	<path fill="#FFFFFF" d="M113.218,26.77c0.813-0.997,2.281-1.152,3.284-0.343c0.998,0.81,1.147,2.283,0.337,3.282
		c-0.812,0.996-2.283,1.154-3.282,0.343C112.559,29.24,112.406,27.77,113.218,26.77z"/>
	<path fill="#FFFFFF" d="M113.47,25.355c0.308-0.375,0.858-0.434,1.237-0.129c0.373,0.306,0.431,0.859,0.125,1.234
		c-0.306,0.376-0.857,0.435-1.234,0.129C113.222,26.285,113.165,25.731,113.47,25.355z"/>
</g>
<g>
	<polygon fill="#F7A815" points="159.082,44.687 134.721,30 121.485,39.755 127.801,53.651 	"/>
	<path fill="#1D1E1C" d="M158.89,44.661c-2.027-1.115-4.033-2.263-6.047-3.398c-2.07-1.158-4.109-2.368-6.165-3.549
		c-4.109-2.367-8.197-4.769-12.271-7.192l0.675-0.031c-1.09,0.831-2.186,1.655-3.298,2.454c-1.118,0.793-2.265,1.547-3.408,2.304
		c-1.142,0.762-2.297,1.502-3.426,2.28c-1.133,0.773-2.24,1.579-3.327,2.415l0.073-0.284c0.535,1.154,1.106,2.292,1.699,3.419
		c0.579,1.134,1.197,2.25,1.757,3.393c1.156,2.269,2.228,4.577,3.333,6.868l-0.893-0.412c2.605-0.753,5.21-1.504,7.827-2.219
		c2.608-0.737,5.236-1.416,7.854-2.118c2.618-0.709,5.245-1.385,7.876-2.044C153.722,45.885,156.304,45.264,158.89,44.661z
		 M159.101,44.755c-2.568,0.878-5.144,1.736-7.729,2.555c-2.582,0.834-5.168,1.653-7.765,2.438
		c-2.594,0.792-5.181,1.606-7.785,2.364c-2.598,0.779-5.205,1.522-7.813,2.263l-0.02,0.005c-0.358,0.102-0.731-0.083-0.875-0.418
		c-0.997-2.34-2.032-4.665-2.981-7.027c-0.492-1.173-0.927-2.373-1.401-3.555c-0.46-1.188-0.939-2.367-1.459-3.529l-0.002-0.005
		c-0.045-0.101-0.01-0.217,0.076-0.278c1.12-0.791,2.218-1.61,3.292-2.463c1.078-0.848,2.126-1.734,3.192-2.598
		c1.062-0.869,2.122-1.741,3.21-2.574c1.092-0.827,2.204-1.629,3.319-2.424l0.012-0.008c0.203-0.145,0.464-0.146,0.665-0.023
		c4.045,2.472,8.077,4.965,12.089,7.495c2.004,1.267,4.025,2.505,6.016,3.795c1.995,1.283,3.998,2.552,5.979,3.858
		c0.032,0.022,0.042,0.066,0.021,0.1C159.129,44.74,159.116,44.75,159.101,44.755z"/>
</g>
<g>
	<path fill="#F7A815" d="M77.993,134.534c1.129-5.72,0.729-8.6-1.665-9.345c-2.393-0.741-6.751,0.771-7.88,6.493
		c-0.85,4.291,1.188,12.042,1.814,18.686c0.211,2.217-2.704,3.862-2.02,5.664c0.098,0.252,4.084-1.289,4.963-1.033
		c1.091,0.316,7.793,1.858,8.066,1.262c0.248-0.541-0.128,0.172-2.25-1.723c-2.122-1.896-5.991-3.201-5.703-4.009
		C75.242,145.148,77.358,137.745,77.993,134.534z"/>
	<g>
		<path fill="#1D1E1C" d="M77.993,134.534c0,0,0.06-0.334,0.171-0.961c0.098-0.63,0.259-1.551,0.346-2.736
			c0.041-0.59,0.06-1.25-0.002-1.959c-0.062-0.705-0.188-1.48-0.564-2.191c-0.379-0.712-1.104-1.23-1.985-1.363
			c-0.856-0.156-1.82,0.01-2.706,0.373c-1.798,0.754-3.216,2.506-3.831,4.62c-0.676,2.077-0.564,4.517-0.255,6.999
			c0.279,2.497,0.762,5.081,1.143,7.736c0.192,1.328,0.391,2.671,0.528,4.031l0.092,1.023l0.022,0.285
			c0.003,0.081,0.007,0.164,0.001,0.298c-0.008,0.245-0.044,0.435-0.091,0.646c-0.204,0.814-0.627,1.451-1.018,2.022
			c-0.392,0.569-0.807,1.093-1.016,1.599c-0.104,0.252-0.146,0.481-0.115,0.695c0.006,0.055,0.02,0.107,0.036,0.162l0.005,0.021
			c-0.234-0.364-0.051-0.088-0.098-0.164c-0.068-0.135-0.399-0.176-0.315-0.158c-0.025,0.001,0.012-0.002,0.031-0.004
			c0.12-0.018,0.282-0.055,0.437-0.094c0.649-0.182,1.298-0.36,1.944-0.541c0.669-0.17,1.303-0.359,2.087-0.416
			c0.102-0.002,0.214-0.002,0.341,0.014c0.175,0.031,0.231,0.056,0.312,0.076l0.47,0.125l0.959,0.238
			c0.642,0.146,1.281,0.289,1.917,0.432c1.266,0.261,2.554,0.531,3.748,0.605c0.144,0.006,0.288,0.002,0.384-0.011
			c0.026,0.017,0.089-0.074-0.077,0.095c-0.035,0.071-0.01,0.027-0.005,0.014l0.02-0.041c0.019-0.002-0.014-0.069,0.005,0.148
			c0.115,0.283,0.209,0.227,0.172,0.232l-0.091-0.035l-0.242-0.1c-0.162-0.071-0.314-0.154-0.459-0.242
			c-0.577-0.348-1.071-0.77-1.525-1.188c-0.881-0.787-1.901-1.389-2.908-1.967c-0.509-0.292-1.011-0.579-1.505-0.861
			c-0.248-0.15-0.493-0.304-0.733-0.482c-0.12-0.092-0.24-0.186-0.357-0.311c-0.107-0.125-0.259-0.271-0.278-0.58
			c-0.004-0.063,0.024-0.17,0.035-0.205l0.036-0.096l0.071-0.191l0.141-0.383c0.094-0.252,0.188-0.504,0.279-0.752
			c0.184-0.498,0.364-0.986,0.542-1.464c0.731-1.905,1.276-3.687,1.796-5.258c0.5-1.578,0.889-2.968,1.212-4.112
			c0.32-1.145,0.509-2.06,0.668-2.677C77.913,134.864,77.993,134.534,77.993,134.534z M77.993,134.534c0,0-0.076,0.33-0.218,0.951
			c-0.15,0.618-0.33,1.537-0.635,2.686c-0.304,1.15-0.673,2.547-1.097,4.147c-0.48,1.584-0.907,3.416-1.522,5.358
			c-0.286,0.943-0.583,1.925-0.891,2.941c-0.026-0.016,0.177,0.238,0.381,0.363c0.21,0.15,0.445,0.292,0.685,0.432
			c0.495,0.272,0.997,0.549,1.507,0.828c1.023,0.567,2.099,1.17,3.064,2.002c0.463,0.396,0.936,0.762,1.441,1.041
			c0.125,0.068,0.252,0.131,0.379,0.182l0.198,0.072l0.13,0.047c0.029,0.013,0.062,0.022,0.129,0.065
			c0.055,0.029,0.186,0.149,0.219,0.312c0.033,0.297-0.037,0.307-0.045,0.375l-0.028,0.07c-0.012,0.021,0.001,0.016-0.063,0.113
			c-0.263,0.301-0.375,0.234-0.498,0.288c-0.217,0.034-0.394,0.036-0.567,0.032c-1.352-0.061-2.611-0.314-3.916-0.555
			c-0.646-0.134-1.295-0.269-1.949-0.404l-0.979-0.223l-0.499-0.125l-0.175-0.043c-0.039-0.004-0.094-0.006-0.159-0.002
			c-0.553,0.043-1.22,0.23-1.849,0.405c-0.649,0.188-1.301,0.379-1.952,0.569c-0.173,0.045-0.339,0.092-0.554,0.127
			c-0.064,0.007-0.111,0.018-0.223,0.017c0.042,0.022-0.332-0.032-0.439-0.176c-0.061-0.091,0.1,0.174-0.141-0.21l-0.014-0.04
			c-0.04-0.106-0.074-0.216-0.095-0.328c-0.098-0.455-0.021-0.92,0.111-1.301c0.279-0.767,0.698-1.339,1.05-1.902
			c0.357-0.554,0.663-1.097,0.77-1.612c0.021-0.123,0.042-0.269,0.039-0.363c0.004-0.036-0.001-0.122-0.008-0.211l-0.025-0.221
			l-0.122-0.998c-0.18-1.328-0.367-2.652-0.58-3.969c-0.433-2.632-0.854-5.238-1.123-7.808c-0.224-2.548-0.374-5.185,0.604-7.532
			c0.86-2.307,2.63-4.173,4.687-4.848c1.021-0.328,2.073-0.432,3.036-0.182c0.952,0.211,1.755,0.885,2.093,1.672
			c0.366,0.777,0.455,1.574,0.486,2.291c0.035,0.721-0.03,1.379-0.07,1.973c-0.104,1.186-0.279,2.105-0.388,2.732
			C78.058,134.2,77.993,134.534,77.993,134.534z"/>
	</g>
</g>
<g>
	<path fill="#1D1E1C" d="M99.991,12.979c0,0-0.102,0.104-0.324,0.234c-0.222,0.129-0.572,0.267-1.021,0.324
		c-0.225,0.033-0.47,0.04-0.729,0.016c-0.256-0.025-0.533-0.062-0.801-0.149c-0.546-0.153-1.083-0.433-1.565-0.769
		c-0.25-0.162-0.457-0.367-0.675-0.553c-0.229-0.178-0.397-0.404-0.578-0.604c-0.369-0.396-0.623-0.832-0.85-1.191
		C93.232,9.921,93.1,9.586,93,9.359c-0.096-0.23-0.141-0.366-0.141-0.366s0.456,0.363,1.04,0.937
		c0.317,0.265,0.639,0.613,1.026,0.929c0.185,0.167,0.379,0.335,0.582,0.492c0.203,0.158,0.396,0.336,0.619,0.466
		c0.412,0.312,0.857,0.558,1.287,0.759c0.432,0.186,0.854,0.333,1.237,0.389C99.416,13.101,99.991,12.979,99.991,12.979z"/>
</g>
<g>
	<path fill="#1D1E1C" d="M101.92,13.035c0,0-0.724,0.779-2.147,1.495c-0.361,0.16-0.747,0.367-1.189,0.491
		c-0.434,0.159-0.908,0.28-1.413,0.36c-0.249,0.06-0.511,0.065-0.775,0.086c-0.265,0.011-0.533,0.06-0.806,0.022
		c-0.545-0.051-1.104-0.084-1.644-0.26c-0.553-0.122-1.05-0.394-1.543-0.642c-0.259-0.105-0.466-0.285-0.677-0.453
		c-0.209-0.167-0.416-0.333-0.619-0.495c-0.376-0.352-0.668-0.759-0.969-1.112c-0.293-0.359-0.462-0.771-0.662-1.114
		c-0.198-0.346-0.355-0.671-0.439-0.985c-0.105-0.303-0.183-0.572-0.247-0.791c-0.126-0.438-0.185-0.689-0.185-0.689
		s0.169,0.207,0.438,0.567c0.129,0.181,0.287,0.4,0.468,0.651c0.16,0.262,0.395,0.517,0.642,0.794
		c0.258,0.268,0.484,0.6,0.789,0.878c0.319,0.265,0.628,0.569,0.97,0.845c0.378,0.222,0.729,0.513,1.141,0.698
		c0.411,0.186,0.817,0.4,1.272,0.481c0.43,0.163,0.894,0.199,1.346,0.26c0.455,0.019,0.914,0.057,1.357,0.019
		c0.445-0.04,0.883-0.062,1.293-0.145c0.416-0.054,0.803-0.161,1.171-0.229C100.938,13.408,101.92,13.035,101.92,13.035z"/>
</g>
<g>
	<line fill="none" x1="159.082" y1="44.687" x2="121.485" y2="39.755"/>
	<path d="M159.082,44.687c0,0-0.592-0.042-1.628-0.116c-1.033-0.095-2.516-0.191-4.283-0.377c-1.769-0.188-3.835-0.375-6.042-0.632
		c-2.208-0.247-4.56-0.548-6.91-0.845c-2.349-0.318-4.697-0.633-6.895-0.964c-2.199-0.318-4.244-0.673-6-0.947
		c-1.757-0.275-3.213-0.566-4.235-0.741c-1.021-0.196-1.604-0.309-1.604-0.309s0.593,0.042,1.628,0.115
		c1.034,0.095,2.516,0.189,4.283,0.376c1.769,0.188,3.835,0.373,6.042,0.632c2.208,0.247,4.56,0.548,6.91,0.846
		c2.35,0.319,4.697,0.635,6.896,0.966c2.198,0.32,4.243,0.672,6.001,0.947c1.756,0.276,3.212,0.565,4.234,0.74
		C158.499,44.575,159.082,44.687,159.082,44.687z"/>
</g>
<g id="wing_1_">
</g>
<g id="Layer_3">
</g>
<g>
	<path id="wing" fill="#00AF64" d="M0,54.405c0,0-0.103,33.099,30.522,41.96c33.312,9.639,37.107-53.948,37.107-53.948
		S54.147,53.514,40.417,56.487C26.687,59.458,0,54.405,0,54.405z"/>
	<g>
		<path fill="#1D1E1C" d="M0,54.405c0.141,2.717,0.606,5.4,1.191,8.042c0.6,2.639,1.374,5.235,2.354,7.747
			c1.957,5.023,4.764,9.688,8.33,13.645c3.595,3.93,7.992,7.07,12.84,9.203c2.419,1.076,4.936,1.938,7.521,2.549
			c2.48,0.533,5.12,0.707,7.608,0.287c2.505-0.389,4.883-1.371,6.995-2.793c2.109-1.428,3.969-3.258,5.563-5.316
			c1.611-2.049,2.974-4.314,4.178-6.668c1.213-2.351,2.243-4.811,3.162-7.315c1.821-5.019,3.159-10.235,4.197-15.508
			c0.514-2.639,0.976-5.291,1.349-7.956c0.373-2.656,0.688-5.357,0.879-7.991l2.395,1.22c-1.223,0.976-2.429,1.852-3.67,2.732
			c-1.243,0.864-2.497,1.711-3.789,2.5c-2.57,1.594-5.219,3.07-7.949,4.394l-2.065,0.956l-2.111,0.863
			c-1.424,0.536-2.848,1.075-4.322,1.482c-1.456,0.463-2.946,0.775-4.462,1.091c-0.72,0.137-1.492,0.24-2.265,0.338
			c-0.761,0.077-1.517,0.162-2.274,0.204c-6.055,0.394-12.049-0.058-17.987-0.758C11.729,56.64,5.828,55.692,0,54.405z M0,54.405
			c2.95,0.438,5.914,0.764,8.872,1.103c2.96,0.324,5.925,0.592,8.892,0.784c2.966,0.2,5.936,0.302,8.896,0.326
			c2.959,0.016,5.919-0.053,8.832-0.369c0.729-0.067,1.452-0.178,2.171-0.278c0.702-0.118,1.403-0.235,2.143-0.404
			c1.387-0.349,2.807-0.713,4.172-1.214c1.383-0.446,2.729-1.025,4.069-1.597l1.991-0.917l1.965-0.978
			c2.601-1.346,5.129-2.843,7.583-4.456c1.227-0.806,2.435-1.64,3.635-2.484c1.183-0.854,2.38-1.743,3.479-2.636l2.62-2.129
			l-0.226,3.349C68.907,45.296,68.6,48,68.231,50.729c-0.375,2.721-0.809,5.434-1.355,8.128c-1.087,5.388-2.482,10.732-4.396,15.93
			c-0.967,2.594-2.052,5.156-3.344,7.631c-1.286,2.477-2.783,4.869-4.562,7.074c-1.765,2.209-3.852,4.221-6.27,5.809
			c-2.418,1.58-5.196,2.686-8.077,3.089c-2.894,0.425-5.771,0.157-8.583-0.517C28.955,97.17,26.327,96.198,23.81,95
			c-5.062-2.352-9.558-5.875-13.165-10.086c-3.604-4.238-6.188-9.228-7.95-14.414C0.973,65.298-0.027,59.853,0,54.405z"/>
	</g>
</g>
<path fill="none" stroke="#1D1E1C" stroke-miterlimit="10" d="M123.392,7.737C109.401-2.358,94.462-1.333,82.6,7.355
	C66.634,19.048,69.61,38.297,69.62,38.543l-2.175,6.144"/>
</svg>
