<?xml version="1.0" encoding="utf-8"?>
<!-- Generator: Adobe Illustrator 16.0.4, SVG Export Plug-In . SVG Version: 6.00 Build 0)  -->
<!DOCTYPE svg PUBLIC "-//W3C//DTD SVG 1.1//EN" "http://www.w3.org/Graphics/SVG/1.1/DTD/svg11.dtd">
<svg version="1.1" id="Layer_1" xmlns="http://www.w3.org/2000/svg" xmlns:xlink="http://www.w3.org/1999/xlink" x="0px" y="0px"
	 width="152.484px" height="121.9px" viewBox="0 0 152.484 121.9" enable-background="new 0 0 152.484 121.9" xml:space="preserve">
<g>
	<path id="background_3" fill="#FF7900" d="M112.133,23.706C102.109,11.243,71.876-6.005,66.711,2.718
		c-4.805,8.045-5.979,22.835,5.171,25.685C78.065,29.925,121.844,35.662,112.133,23.706z"/>
	<path d="M112.056,23.77c0,0-0.332-0.387-0.954-1.113c-0.641-0.705-1.586-1.737-2.922-2.92c-1.305-1.214-3.02-2.542-5.022-3.995
		c-2.005-1.456-4.356-2.969-6.948-4.556c-2.596-1.579-5.429-3.247-8.497-4.872c-3.066-1.611-6.342-3.293-9.934-4.463
		c-1.79-0.575-3.663-1.064-5.584-1.136c-0.479-0.024-0.956,0.011-1.434,0.037c-0.466,0.09-0.949,0.128-1.388,0.308
		c-0.895,0.279-1.74,0.792-2.233,1.596c-2.102,3.324-3.147,7.405-3.319,11.371c-0.069,1.992,0.125,3.989,0.667,5.849
		c0.524,1.856,1.415,3.589,2.723,4.884c1.281,1.32,2.938,2.195,4.704,2.65c1.784,0.427,3.765,0.679,5.626,0.938
		c3.77,0.503,7.431,0.895,10.901,1.231c3.473,0.32,6.761,0.532,9.794,0.69c3.033,0.144,5.822,0.204,8.27-0.021
		c1.224-0.108,2.361-0.278,3.381-0.545c1.021-0.254,1.929-0.634,2.586-1.178c0.662-0.535,0.979-1.283,0.917-1.946
		c-0.06-0.66-0.298-1.203-0.527-1.609c-0.229-0.41-0.437-0.709-0.585-0.903C112.131,23.87,112.056,23.77,112.056,23.77z
		 M112.21,23.642c0,0,0.08,0.104,0.232,0.3c0.157,0.194,0.375,0.496,0.621,0.916c0.245,0.417,0.512,0.979,0.591,1.702
		c0.082,0.724-0.219,1.623-0.932,2.25c-1.432,1.235-3.628,1.883-6.096,2.335c-2.484,0.444-5.318,0.722-8.407,0.81
		c-3.091,0.098-6.433-0.037-9.951-0.298c-3.521-0.249-7.219-0.669-11.026-1.26c-1.917-0.319-3.804-0.593-5.839-1.131
		c-2.022-0.578-4.013-1.66-5.474-3.298c-1.488-1.613-2.407-3.653-2.895-5.722c-0.463-2.084-0.517-4.216-0.309-6.292
		c0.194-2.08,0.658-4.117,1.316-6.07c0.659-1.95,1.465-3.85,2.594-5.575c0.17-0.207,0.306-0.447,0.508-0.623l0.607-0.525
		c0.454-0.271,0.911-0.561,1.417-0.697C70.16,0.104,71.195,0.025,72.203,0c2.023,0.012,3.988,0.35,5.874,0.814
		c1.889,0.464,3.697,1.08,5.438,1.748c1.75,0.651,3.41,1.405,5,2.191c3.166,1.597,6.046,3.318,8.565,5.104
		c2.527,1.776,4.716,3.574,6.614,5.203c1.904,1.625,3.452,3.164,4.727,4.421c1.266,1.269,2.215,2.311,2.851,3.03
		C111.883,23.249,112.21,23.642,112.21,23.642z"/>
</g>
<g>
	<path fill="#1D1D1B" d="M71.498,6.237c0,0,1.025,0.192,2.458,0.753c0.718,0.274,1.538,0.638,2.389,1.086
		c0.854,0.438,1.729,0.974,2.582,1.551c0.425,0.29,0.827,0.615,1.231,0.921c0.411,0.298,0.763,0.666,1.129,0.979
		c0.708,0.667,1.311,1.358,1.769,1.993c0.236,0.311,0.409,0.633,0.574,0.902c0.176,0.262,0.277,0.527,0.367,0.736
		c0.177,0.421,0.261,0.661,0.261,0.661s-0.195-0.18-0.508-0.493c-0.153-0.159-0.335-0.351-0.57-0.55
		c-0.227-0.2-0.481-0.427-0.76-0.675c-0.287-0.233-0.597-0.487-0.925-0.756c-0.336-0.257-0.69-0.528-1.059-0.808
		c-0.751-0.539-1.537-1.133-2.363-1.681c-0.801-0.581-1.637-1.118-2.405-1.652c-0.772-0.527-1.499-1.021-2.114-1.46
		C72.31,6.883,71.498,6.237,71.498,6.237z"/>
</g>
<g>
	<path fill="#1D1D1B" d="M68.268,9.625c0,0,1.039,0.097,2.516,0.523c0.74,0.208,1.59,0.494,2.478,0.862
		c0.892,0.359,1.812,0.812,2.714,1.309c0.448,0.25,0.88,0.537,1.31,0.806c0.437,0.259,0.82,0.593,1.214,0.873
		c0.767,0.599,1.428,1.232,1.941,1.822c0.264,0.287,0.465,0.594,0.655,0.847c0.197,0.245,0.323,0.499,0.432,0.7
		c0.214,0.403,0.32,0.635,0.32,0.635s-0.212-0.162-0.551-0.446c-0.167-0.144-0.365-0.318-0.619-0.495
		c-0.242-0.18-0.518-0.382-0.816-0.603c-0.307-0.207-0.639-0.432-0.99-0.669c-0.357-0.226-0.736-0.462-1.127-0.708
		c-0.797-0.469-1.633-0.988-2.506-1.457c-0.851-0.505-1.732-0.964-2.545-1.426c-0.818-0.454-1.585-0.879-2.24-1.261
		C69.136,10.194,68.268,9.625,68.268,9.625z"/>
</g>
<g>
	<path id="background_2" fill="#E26905" d="M104.142,106.781c-10.379,9.334-38.865,20.015-42.113,11.692
		c-3-7.645-1.918-20.633,8.117-21.475C75.658,96.494,114.13,97.73,104.142,106.781z"/>
	<path d="M104.208,106.856c0,0-0.337,0.294-0.968,0.845c-0.649,0.532-1.615,1.3-2.88,2.223c-1.275,0.909-2.818,2.036-4.685,3.183
		c-1.86,1.152-3.994,2.417-6.422,3.608c-2.422,1.201-5.152,2.286-8.114,3.217c-1.485,0.452-3.028,0.866-4.636,1.172
		c-1.601,0.322-3.252,0.593-4.953,0.716c-1.697,0.126-3.444,0.127-5.197-0.159c-0.868-0.178-1.753-0.395-2.559-0.854
		c-0.806-0.427-1.545-1.105-1.927-1.981c-1.345-3.32-1.939-6.973-1.745-10.625c0.087-1.831,0.467-3.664,1.14-5.413
		c0.688-1.733,1.767-3.398,3.303-4.586c1.517-1.192,3.38-1.909,5.234-2.119c1.829-0.221,3.51-0.184,5.208-0.202
		c3.373,0.013,6.625,0.169,9.702,0.456c3.076,0.273,5.981,0.637,8.635,1.179c2.653,0.53,5.058,1.198,7.137,1.956
		c2.062,0.763,3.859,1.662,4.905,2.957c0.521,0.654,0.639,1.482,0.467,2.095c-0.169,0.618-0.477,1.068-0.744,1.396
		c-0.271,0.33-0.499,0.562-0.66,0.709C104.292,106.777,104.208,106.856,104.208,106.856z M104.076,106.706
		c0,0,0.077-0.077,0.229-0.228c0.154-0.146,0.371-0.378,0.624-0.702c0.251-0.32,0.526-0.757,0.666-1.314
		c0.144-0.561-0.017-1.245-0.505-1.799c-0.479-0.564-1.203-1.023-2.046-1.386c-0.84-0.371-1.793-0.681-2.833-0.942
		c-2.077-0.535-4.491-0.861-7.126-1.154c-2.638-0.28-5.501-0.557-8.54-0.765c-3.039-0.192-6.25-0.37-9.567-0.463
		c-1.645-0.031-3.378-0.106-4.974,0.046c-1.579,0.129-3.075,0.691-4.366,1.601c-1.309,0.901-2.31,2.267-3.004,3.789
		c-0.714,1.516-1.21,3.19-1.421,4.917c-0.204,1.727-0.235,3.487-0.055,5.23c0.221,1.728,0.601,3.455,1.262,5.031
		c0.306,0.76,0.956,1.313,1.677,1.687c0.714,0.404,1.547,0.586,2.366,0.701c1.661,0.212,3.343,0.046,4.962-0.203
		c3.256-0.515,6.307-1.524,9.174-2.487c2.87-0.974,5.544-2.015,8.008-2.999c2.461-0.994,4.708-1.951,6.646-2.915
		c1.938-0.963,3.611-1.854,4.907-2.716c1.323-0.826,2.283-1.584,2.936-2.102C103.736,106.992,104.076,106.706,104.076,106.706z"/>
</g>
<g>
	<path id="background_1" fill="#FF7900" d="M147.673,80.852c0.984-1.293-0.395-2.417,0.443-4.271
		c0.836-1.854,4.232-1.393,4.23-5.79c-0.005-8.604-15.548-35.194-28.781-45.314c-26.519-20.295-50.428-10.85-67.4,1.183
		c-7.43,5.228-12.842,9.895-17.221,18.383c-2.359,4.555-2.043,1.729-1.443,0.057c0.887-2.467,2.241-2.271-0.278-4.621
		C24.269,28.408-6.224,20.855,2.026,35.972c8.498,15.57,12.607,26.036,14.43,37.939c2.813,18.377-7.884,30.306-6.015,31.172
		c25.162,11.658,19.162-23.584,35.59-3.374C53.678,111.118,98.033,147.079,147.673,80.852z"/>
	<path d="M147.585,80.804c-0.048-0.009,0.375-0.371,0.339-1.188c-0.002-0.419-0.175-0.94-0.196-1.605
		c-0.024-0.164,0.009-0.337,0.023-0.516c0.007-0.183,0.043-0.363,0.115-0.544c0.106-0.379,0.268-0.75,0.6-1.079
		c0.64-0.621,1.55-0.958,2.326-1.6c0.787-0.63,1.298-1.667,1.366-2.862c0.086-2.419-0.782-5.121-1.911-8.028
		c-0.562-1.463-1.264-2.958-2-4.526c-0.797-1.538-1.604-3.162-2.562-4.792c-1.85-3.295-4.03-6.759-6.55-10.321
		c-2.516-3.562-5.358-7.244-8.661-10.832c-0.852-0.871-1.69-1.775-2.578-2.649c-0.924-0.831-1.81-1.735-2.792-2.535
		c-0.493-0.397-0.988-0.798-1.486-1.2l-0.374-0.302l-0.163-0.129l-0.203-0.138l-0.813-0.559c-1.086-0.748-2.185-1.504-3.294-2.269
		c-4.497-2.791-9.459-5.295-14.964-6.828c-5.489-1.501-11.436-2.057-17.443-1.341c-6.007,0.726-12.009,2.671-17.744,5.471
		c-5.757,2.786-11.217,6.455-16.514,10.526c-2.601,2.053-5.064,4.305-7.218,6.854c-2.199,2.547-3.858,5.42-5.528,8.487
		c-0.224,0.395-0.448,0.785-0.74,1.195c-0.165,0.213-0.263,0.396-0.634,0.698c-0.104,0.068-0.214,0.179-0.554,0.25
		c-0.316,0.135-1.032-0.218-1.104-0.488c-0.255-0.484-0.184-0.625-0.213-0.815c0.01-0.632,0.121-1.062,0.238-1.54
		c0.111-0.448,0.296-0.957,0.47-1.354c0.212-0.49,0.455-0.896,0.671-1.268c0.104-0.176,0.193-0.342,0.214-0.417
		c0.031-0.096,0.021-0.037,0.012-0.087c-0.013-0.094-0.249-0.427-0.509-0.698c-0.133-0.143-0.271-0.286-0.426-0.431l-0.208-0.201
		l-0.245-0.218c-2.543-2.328-5.418-4.229-8.453-5.958c-3.043-1.697-6.245-3.157-9.559-4.328c-3.308-1.155-6.747-2.083-10.212-2.333
		c-1.71-0.101-3.496-0.057-4.961,0.566c-1.487,0.598-2.175,2.056-1.766,3.7c0.31,1.617,1.208,3.153,2.034,4.762
		c0.823,1.598,1.683,3.171,2.476,4.791c3.235,6.44,6.167,13.06,8.213,19.959l0.759,2.585c0.248,0.863,0.422,1.745,0.636,2.615
		c0.193,0.875,0.436,1.739,0.587,2.623l0.469,2.643c0.651,3.51,0.847,7.138,0.558,10.682c-0.294,3.552-0.999,7.053-2.096,10.406
		c-1.057,3.365-2.612,6.553-4.015,9.679c-0.165,0.389-0.315,0.792-0.382,1.146c-0.052,0.194,0.008,0.304-0.008,0.271
		c-0.058-0.022,0.063,0.04,0.168,0.078l0.299,0.125c0.799,0.312,1.588,0.715,2.394,0.945c0.799,0.269,1.595,0.544,2.425,0.703
		c0.814,0.223,1.647,0.303,2.475,0.41c1.656,0.121,3.319-0.002,4.864-0.509c1.547-0.499,2.942-1.375,4.15-2.462
		c1.214-1.086,2.253-2.364,3.256-3.683c1.016-1.312,1.952-2.703,3.208-3.935c0.627-0.613,1.384-1.162,2.278-1.51
		c0.924-0.327,1.933-0.279,2.836-0.05c1.77,0.569,3.139,1.668,4.348,2.803c0.636,0.553,1.167,1.179,1.754,1.763
		c0.533,0.611,1.064,1.223,1.595,1.832l0.792,0.901l0.802,0.826c0.545,0.544,1.117,1.084,1.69,1.607
		c2.311,2.088,4.789,3.946,7.349,5.589c10.263,6.557,21.913,9.584,32.506,8.803c10.623-0.702,19.966-4.536,27.328-9.115
		c7.409-4.593,13.168-9.674,17.583-14.122c1.087-1.132,2.117-2.202,3.085-3.211c0.973-1.005,1.793-2.029,2.605-2.938
		c0.8-0.92,1.541-1.772,2.22-2.553c0.675-0.783,1.234-1.54,1.765-2.193c2.089-2.64,3.202-4.047,3.202-4.047L147.585,80.804z
		 M147.757,80.908l-0.003,0.004c0,0-1.103,1.419-3.171,4.081c-0.523,0.658-1.078,1.422-1.747,2.213
		c-0.673,0.788-1.406,1.647-2.201,2.577c-0.806,0.918-1.619,1.952-2.584,2.97c-0.962,1.02-1.984,2.103-3.064,3.248
		c-4.428,4.458-9.993,9.785-17.391,14.591c-0.463,0.3-0.911,0.628-1.395,0.911c-0.485,0.279-0.974,0.561-1.466,0.844
		c-0.992,0.554-1.97,1.174-3.018,1.7c-1.055,0.514-2.124,1.035-3.208,1.562c-1.085,0.528-2.245,0.929-3.389,1.408
		c-4.627,1.77-9.742,3.119-15.206,3.518c-5.45,0.418-11.224,0.009-16.936-1.512c-2.875-0.689-5.695-1.758-8.479-2.983
		c-2.791-1.224-5.499-2.732-8.127-4.433c-2.625-1.707-5.159-3.632-7.537-5.808c-0.597-0.544-1.164-1.114-1.736-1.705l-0.847-0.91
		l-0.774-0.917c-0.512-0.609-1.022-1.223-1.536-1.836c-0.545-0.562-1.052-1.185-1.633-1.706c-1.11-1.1-2.373-2.093-3.731-2.555
		c-0.68-0.175-1.36-0.228-2.014-0.014c-0.645,0.242-1.267,0.648-1.831,1.183c-2.243,2.191-3.968,5.246-6.634,7.5
		c-1.314,1.136-2.864,2.069-4.565,2.579c-1.699,0.521-3.494,0.612-5.241,0.448c-0.868-0.128-1.741-0.233-2.582-0.481
		c-0.854-0.186-1.685-0.476-2.515-0.764c-0.853-0.256-1.604-0.653-2.411-0.976l-0.298-0.127c-0.093-0.049-0.186-0.046-0.396-0.229
		c-0.317-0.34-0.254-0.73-0.213-0.945c0.099-0.495,0.268-0.904,0.44-1.312c1.458-3.184,2.999-6.272,4.074-9.599
		c1.098-3.301,1.859-6.743,2.105-10.247c0.262-3.508,0.056-7.032-0.614-10.521l-0.479-2.619c-0.156-0.874-0.402-1.729-0.598-2.596
		c-0.219-0.861-0.396-1.734-0.646-2.588l-0.768-2.559c-2.133-6.802-5.156-13.332-8.471-19.671c-0.811-1.595-1.698-3.164-2.545-4.746
		c-0.823-1.562-1.824-3.158-2.231-5.079c-0.141-0.465-0.11-0.99-0.146-1.488c0.075-0.516,0.112-1.044,0.37-1.532
		c0.436-0.987,1.309-1.752,2.225-2.14c1.848-0.805,3.764-0.834,5.598-0.767c3.688,0.213,7.225,1.12,10.647,2.253
		c3.423,1.15,6.726,2.596,9.888,4.295c3.141,1.706,6.182,3.719,8.835,6.106l0.247,0.217l0.268,0.252
		c0.167,0.155,0.333,0.324,0.5,0.5c0.32,0.373,0.695,0.709,0.945,1.457c0.125,0.366,0.093,0.885-0.035,1.197
		c-0.117,0.34-0.25,0.553-0.362,0.756c-0.222,0.382-0.419,0.732-0.552,1.044c-0.171,0.403-0.28,0.717-0.38,1.114
		c-0.095,0.363-0.171,0.792-0.168,1.03c-0.02,0.024,0.061,0.11-0.086-0.183c-0.02-0.18-0.624-0.46-0.831-0.364
		c-0.233,0.052-0.249,0.102-0.269,0.104c-0.027,0.032,0.131-0.144,0.219-0.279c0.21-0.298,0.42-0.661,0.62-1.021
		c1.617-3.026,3.401-6.17,5.675-8.828c2.246-2.697,4.803-5.063,7.473-7.202l2.025-1.573l2.029-1.476
		c1.368-0.991,2.767-1.922,4.157-2.851c2.837-1.773,5.688-3.484,8.67-4.881c5.914-2.868,12.147-4.876,18.42-5.616
		c6.269-0.712,12.517-0.177,18.208,1.495c5.692,1.684,10.799,4.368,15.393,7.335c1.097,0.782,2.182,1.558,3.256,2.323l0.802,0.575
		l0.199,0.144c0.12,0.087,0.143,0.118,0.218,0.179l0.38,0.324c0.504,0.432,1.006,0.86,1.505,1.287
		c0.994,0.855,1.872,1.803,2.794,2.684c0.882,0.917,1.71,1.86,2.55,2.771c3.254,3.734,6.005,7.531,8.45,11.18
		c2.446,3.651,4.55,7.188,6.323,10.548c1.776,3.357,3.292,6.508,4.417,9.457c1.104,2.938,1.969,5.706,1.852,8.202
		c-0.077,1.247-0.651,2.394-1.501,3.054c-0.833,0.667-1.745,0.999-2.327,1.562c-0.279,0.264-0.457,0.631-0.547,0.968
		c-0.07,0.167-0.104,0.335-0.112,0.502c-0.015,0.166-0.05,0.324-0.028,0.481c0.012,0.622,0.18,1.15,0.181,1.604
		c0.022,0.225-0.008,0.428-0.059,0.604c-0.025,0.186-0.096,0.304-0.155,0.396c-0.107,0.192-0.164,0.29-0.164,0.29L147.757,80.908z"
		/>
</g>
<g>
	<circle fill="#FFFFFF" cx="129.047" cy="54.328" r="11.442"/>
	<path fill="#1D1E1C" d="M121.289,62.601c0,0,0.217,0.178,0.623,0.514c0.197,0.178,0.463,0.357,0.777,0.562
		c0.302,0.225,0.693,0.414,1.131,0.622c0.872,0.41,2.006,0.784,3.331,0.874c1.317,0.114,2.807-0.024,4.312-0.474
		c1.499-0.468,3.03-1.202,4.421-2.322c0.333-0.275,0.705-0.607,0.989-0.887c0.331-0.361,0.721-0.726,0.97-1.081
		c0.592-0.695,1.086-1.583,1.492-2.49c0.401-0.922,0.663-1.933,0.774-2.978c0.104-1.048,0-2.123-0.228-3.173
		c-0.253-1.048-0.693-2.049-1.252-2.976c-0.585-0.9-1.354-1.726-2.114-2.396c-0.919-0.726-1.758-1.233-2.736-1.654
		c-0.97-0.395-1.968-0.68-2.98-0.822c-1.014-0.116-2.027-0.133-3.013,0.009c-0.978,0.166-1.93,0.417-2.799,0.822
		c-1.759,0.805-3.167,1.962-4.313,3.412c-1.007,1.325-1.711,2.937-2.085,4.435c-0.368,1.521-0.416,3.015-0.222,4.322
		c0.173,1.313,0.62,2.42,1.082,3.265c0.234,0.423,0.448,0.802,0.692,1.092c0.224,0.305,0.42,0.56,0.605,0.742
		c0.355,0.382,0.544,0.586,0.544,0.586L121.289,62.601z M121.156,62.751L121.156,62.751c0-0.001-0.201-0.201-0.577-0.577
		c-0.197-0.18-0.407-0.432-0.647-0.734c-0.255-0.292-0.526-0.643-0.805-1.059c-0.545-0.832-1.188-1.89-1.629-3.251
		c-0.441-1.35-0.747-2.996-0.569-4.805c0.185-1.821,0.851-3.693,2.133-5.482c0.153-0.229,0.307-0.387,0.461-0.586l0.232-0.285
		l0.117-0.143c0.114-0.128,0.113-0.118,0.176-0.185c0.391-0.375,0.77-0.771,1.22-1.098c0.852-0.709,1.854-1.27,2.915-1.704
		c1.064-0.436,2.212-0.688,3.376-0.827c1.17-0.11,2.362-0.053,3.534,0.16c1.172,0.23,2.301,0.661,3.353,1.223
		c1.027,0.58,2.022,1.393,2.779,2.162c1.672,1.75,2.713,3.857,3.253,6.068c0.5,2.215,0.457,4.507-0.123,6.644
		c-0.32,1.062-0.716,2.068-1.326,3.011c-0.289,0.506-0.593,0.872-0.891,1.274c-0.387,0.445-0.729,0.787-1.114,1.154
		c-1.567,1.367-3.423,2.227-5.2,2.534c-1.784,0.311-3.444,0.12-4.818-0.229c-1.386-0.349-2.48-0.922-3.347-1.408
		c-0.434-0.249-0.801-0.498-1.112-0.731c-0.319-0.22-0.586-0.413-0.775-0.594c-0.397-0.346-0.609-0.53-0.609-0.53L121.156,62.751z"
		/>
</g>
<path fill="#000100" d="M134.593,49.746c2.5,0.432,4.164,2.864,3.722,5.429c-0.443,2.567-2.83,4.302-5.324,3.871
	c-2.5-0.435-4.164-2.866-3.721-5.436C129.71,51.045,132.095,49.316,134.593,49.746z"/>
<path fill="#FFFFFF" d="M133.83,50.525c0.959,0.169,1.605,1.08,1.439,2.043c-0.164,0.959-1.082,1.604-2.043,1.438
	c-0.957-0.165-1.607-1.079-1.441-2.04C131.953,51.004,132.867,50.359,133.83,50.525z"/>
<path fill="#1D1E1C" d="M147.837,80.177c0,0-2.737,0.513-4.653-1.248c-2.838-2.609-2.914-5.68,0.1-4.502
	c6.438,2.514,7.463,0.068,7.463,0.068L147.837,80.177z"/>
<g>
	<path fill="#1D1E1C" d="M121.565,25.006c0,0-0.171,0.108-0.493,0.312c-0.345,0.21-0.851,0.52-1.494,0.911
		c-0.577,0.341-1.241,0.799-2.009,1.322c-0.385,0.261-0.766,0.575-1.186,0.885c-0.42,0.312-0.854,0.646-1.278,1.03
		c-0.434,0.376-0.884,0.768-1.352,1.173c-0.438,0.438-0.892,0.889-1.356,1.354c-0.486,0.449-0.91,0.976-1.36,1.502
		c-0.435,0.537-0.944,1.042-1.35,1.637c-0.831,1.176-1.745,2.368-2.45,3.719c-0.358,0.669-0.812,1.304-1.104,2.02
		c-0.314,0.707-0.631,1.416-0.946,2.125c-0.352,0.699-0.575,1.444-0.81,2.187c-0.238,0.742-0.478,1.48-0.714,2.214
		c-0.375,1.493-0.631,2.997-0.943,4.443c-0.172,1.466-0.277,2.896-0.411,4.253c-0.095,0.679-0.05,1.342-0.046,1.984
		c0.009,0.643,0.018,1.264,0.025,1.859c0.019,1.194,0.002,2.296,0.16,3.257c0.112,0.968,0.21,1.812,0.291,2.506
		c0.162,1.393,0.254,2.188,0.254,2.188s-0.158-0.785-0.435-2.159c-0.14-0.688-0.308-1.525-0.5-2.485
		c-0.238-0.957-0.315-2.061-0.434-3.264c-0.059-0.603-0.12-1.229-0.184-1.88c-0.058-0.65-0.158-1.324-0.12-2.02
		c0.02-1.39,0.007-2.863,0.06-4.388c0.194-1.51,0.333-3.091,0.596-4.68c0.183-0.787,0.366-1.579,0.552-2.375
		c0.182-0.799,0.355-1.604,0.661-2.372c0.271-0.78,0.545-1.559,0.816-2.335c0.252-0.788,0.67-1.5,0.996-2.248
		c0.641-1.509,1.504-2.868,2.303-4.214c0.389-0.68,0.884-1.27,1.31-1.892c0.441-0.61,0.86-1.223,1.342-1.753
		c0.466-0.549,0.919-1.081,1.358-1.598c0.473-0.484,0.929-0.954,1.367-1.404c0.432-0.459,0.876-0.865,1.307-1.244
		c0.43-0.379,0.824-0.76,1.222-1.081c0.794-0.646,1.489-1.212,2.086-1.638c0.632-0.472,0.944-0.686,1.221-0.88
		c0.296-0.223,0.454-0.342,0.454-0.342L121.565,25.006z"/>
</g>
<g>
	<path fill="#1D1E1C" d="M40.602,43.541c0,0-0.08,0.145-0.229,0.415c-0.141,0.266-0.353,0.691-0.604,1.235
		c-0.504,1.096-1.16,2.718-1.788,4.729c-0.312,1.007-0.617,2.111-0.905,3.29c-0.281,1.181-0.531,2.438-0.761,3.748
		c-0.098,0.658-0.196,1.327-0.295,2.004c-0.076,0.681-0.152,1.371-0.229,2.065c-0.118,1.395-0.228,2.816-0.246,4.243
		c-0.068,1.423,0.016,2.851,0.028,4.277c0.066,1.41,0.134,2.785,0.259,4.124c0.13,1.337,0.262,2.631,0.458,3.849
		c0.155,1.226,0.397,2.367,0.584,3.43c0.432,2.112,0.87,3.859,1.192,5.08c0.333,1.217,0.521,1.911,0.521,1.911
		s-0.23-0.683-0.635-1.879c-0.394-1.198-0.937-2.92-1.496-5.017c-0.251-1.055-0.562-2.191-0.792-3.415
		c-0.27-1.216-0.479-2.512-0.691-3.856c-0.207-1.342-0.361-2.753-0.512-4.171c-0.101-1.407-0.257-2.856-0.298-4.317
		c-0.084-1.456-0.074-2.917-0.054-4.356c0.029-0.72,0.057-1.434,0.085-2.139c0.054-0.705,0.106-1.402,0.159-2.087
		c0.142-1.368,0.309-2.689,0.515-3.938c0.212-1.248,0.45-2.423,0.703-3.503c0.511-2.159,1.084-3.933,1.55-5.166
		c0.235-0.619,0.431-1.096,0.583-1.438c0.154-0.333,0.236-0.512,0.236-0.512L40.602,43.541z"/>
</g>
<path d="M31.625,49.753c0.284-0.418-15.768-15.421-21.355-13.865C4.681,37.442,30.665,51.159,31.625,49.753z"/>
<path d="M35.531,84.958c0.328,0.32-11.423,15.81-16.907,15.311C13.139,99.771,34.425,83.876,35.531,84.958z"/>
<path d="M32.323,58.964c0.222-0.313-12.956-7.562-17.416-5.718C10.446,55.092,31.578,60.013,32.323,58.964z"/>
<path d="M34.265,76.607c0.231,0.204-9.561,7.313-13.757,6.521C16.311,82.333,33.476,75.923,34.265,76.607z"/>
<path d="M33.005,68.676c0.082-0.297-11.256-3.704-14.225-1.385C15.81,69.61,32.733,69.67,33.005,68.676z"/>
</svg>
