<?xml version="1.0" encoding="utf-8"?>
<!-- Generator: Adobe Illustrator 16.0.4, SVG Export Plug-In . SVG Version: 6.00 Build 0)  -->
<!DOCTYPE svg PUBLIC "-//W3C//DTD SVG 1.1//EN" "http://www.w3.org/Graphics/SVG/1.1/DTD/svg11.dtd">
<svg version="1.1" id="Layer_1" xmlns="http://www.w3.org/2000/svg" xmlns:xlink="http://www.w3.org/1999/xlink" x="0px" y="0px"
	 width="127.506px" height="127.5px" viewBox="0 0 127.506 127.5" enable-background="new 0 0 127.506 127.5" xml:space="preserve">
<circle id="background_x5F_6" fill="#FF00A4" stroke="#000000" stroke-miterlimit="10" cx="63.753" cy="63.181" r="32.875"/>
<circle opacity="0.5" stroke="#000000" stroke-miterlimit="10" cx="63.753" cy="63.181" r="32.875"/>
<g>
	<path id="background_x5F_5" fill="#FF00A4" stroke="#000000" stroke-miterlimit="10" d="M88.202,6.366
		c-4.951-3.839-13.197-3.581-15.314-3.448c0,0-9.587-4.137-16.358-1.586C26.913,12.507,54.517,45.54,57.088,48.4
		c3.716,4.139,4.533,13.964,4.533,13.964l3.685,0.553c0,0,3.705-8.887,8.478-11.741C77.082,49.198,113.204,25.783,88.202,6.366z"/>
	<path id="background_x5F_4" fill="#FF00A4" stroke="#000000" stroke-miterlimit="10" d="M15.082,22.591
		c-5.185,3.523-7.487,11.443-8.014,13.503c0,0-6.896,7.843-6.556,15.065c1.469,31.616,41.419,15.569,44.934,14.01
		c5.08-2.256,14.679,0.008,14.679,0.008l1.667-3.332c0,0-7.311-6.272-8.551-11.689C52.385,46.403,41.271,4.814,15.082,22.591z"/>
	<path id="background_x5F_3" fill="#FF00A4" stroke="#000000" stroke-miterlimit="10" d="M7.917,97.145
		c1.749,6.021,8.572,10.656,10.366,11.791c0,0,5.322,8.986,12.301,10.898c30.528,8.367,27.614-34.585,27.211-38.408
		c-0.575-5.531,4.539-13.959,4.539-13.959l-2.649-2.613c0,0-8.223,5.013-13.764,4.519C42.094,69.027-0.896,66.744,7.917,97.145z"/>
	<path id="background_x5F_2" fill="#FF00A4" stroke="#000000" stroke-miterlimit="10" d="M76.608,126.995
		c6.264,0.196,12.785-4.859,14.416-6.214c0,0,10.191-2.282,14.166-8.327c17.394-26.446-24.356-36.95-28.117-37.75
		c-5.436-1.163-11.874-8.632-11.874-8.632l-3.303,1.713c0,0,2.228,9.369,0.044,14.484C60.426,85.805,44.972,125.984,76.608,126.995z
		"/>
	<path id="background_x5F_1" fill="#FF00A4" stroke="#000000" stroke-miterlimit="10" d="M126.224,70.891
		c2.127-5.896-0.668-13.659-1.451-15.63c0,0,0.972-10.398-3.543-16.046C101.45,14.501,78.56,50.964,76.636,54.292
		c-2.783,4.814-11.878,8.624-11.878,8.624l0.61,3.675c0,0,9.599,0.775,13.789,4.429C82.052,73.551,115.491,100.667,126.224,70.891z"
		/>
</g>
<g>
	<path d="M62.236,58.461c3.603-30.349,7.283-44.009,7.283-44.009S67.983,30.637,62.236,58.461z"/>
	<path d="M56.588,61.026C28.836,48.223,16.98,40.493,16.98,40.493S31.898,46.96,56.588,61.026z"/>
	<path d="M57.279,67.186C36.525,89.622,25.515,98.512,25.515,98.512S36.269,86.32,57.279,67.186z"/>
	<path d="M63.35,68.436c14.926,26.674,19.976,39.893,19.976,39.893S75.056,94.325,63.35,68.436z"/>
	<path d="M66.415,63.045c29.979-5.952,44.111-6.668,44.111-6.668S94.653,59.916,66.415,63.045z"/>
</g>
<circle fill="#FFBF0B" stroke="#000000" stroke-linecap="round" stroke-linejoin="round" stroke-miterlimit="10" cx="63.753" cy="67.3" r="18"/>
</svg>
