<?xml version="1.0" encoding="utf-8"?>
<!-- Generator: Adobe Illustrator 16.0.4, SVG Export Plug-In . SVG Version: 6.00 Build 0)  -->
<!DOCTYPE svg PUBLIC "-//W3C//DTD SVG 1.1//EN" "http://www.w3.org/Graphics/SVG/1.1/DTD/svg11.dtd">
<svg version="1.1" id="Layer_1" xmlns="http://www.w3.org/2000/svg" xmlns:xlink="http://www.w3.org/1999/xlink" x="0px" y="0px"
	 width="50px" height="50px" viewBox="0 0 50 50" enable-background="new 0 0 50 50" xml:space="preserve">
<path opacity="0.1" d="M50,44c0,3.313-2.687,6-6,6H6c-3.313,0-6-2.687-6-6V6c0-3.313,2.687-6,6-6h38c3.313,0,6,2.687,6,6V44z"/>
<path id="background" fill="#FCB315" d="M49.257,43.435c0,3.215-2.606,5.822-5.821,5.822H6.564c-3.215,0-5.821-2.606-5.821-5.822
	V6.565c0-3.215,2.606-5.822,5.821-5.822h36.871c3.215,0,5.821,2.606,5.821,5.822V43.435z"/>
<path opacity="0.15" fill="#FFFFFF" d="M47.96,6.565c0-3.215-2.468-5.822-5.511-5.822H7.55c-3.043,0-5.511,2.606-5.511,5.822v23.324
	L47.96,13.763V6.565z"/>
</svg>
