<?xml version="1.0" encoding="utf-8"?>
<!-- Generator: Adobe Illustrator 16.0.0, SVG Export Plug-In . SVG Version: 6.00 Build 0)  -->
<!DOCTYPE svg PUBLIC "-//W3C//DTD SVG 1.1//EN" "http://www.w3.org/Graphics/SVG/1.1/DTD/svg11.dtd">
<svg version="1.1" id="Layer_1" xmlns="http://www.w3.org/2000/svg" xmlns:xlink="http://www.w3.org/1999/xlink" x="0px" y="0px"
	 width="59.043px" height="48.604px" viewBox="0 0 59.043 48.604" enable-background="new 0 0 59.043 48.604" xml:space="preserve">
<g id="body">
	<path fill="#E8212B" stroke="#010101" stroke-miterlimit="10" d="M56.823,22.406c0.367,12.593-11.666,28.667-27.146,22.443
		C26.5,45.892,14.241,49.784,6.841,34.3c-7.4-15.48,6.699-28.408,19.5-24.547C46.454-5.708,56.415,8.413,56.823,22.406z"/>
	<path fill="#AB532D" stroke="#010101" stroke-miterlimit="10" d="M27.417,14.871c-0.22-0.46-2.233-4.166-2.384-8.165
		c-0.06-1.583,0.708-4.211,0.708-4.211s0.762-1.065,1.836-0.069c0.637,0.592,0.551,0.673,0.22,1.235
		c-0.332,0.562-0.956,2.838-1.034,4.533c-0.079,1.691,1.258,6.404,1.258,6.404L27.417,14.871z"/>
	<path fill="#111716" d="M27.898,14.085c-1.92,0.736-3.974,1.248-5.778,0.626c1.673,1.361,3.646,2.406,5.804,1.58
		c2.159-0.827,3.944-3.316,4.28-5.448C31.275,12.51,29.817,13.347,27.898,14.085z"/>
	
		<ellipse transform="matrix(0.2737 -0.9618 0.9618 0.2737 -11.1824 29.0582)" fill="#E9826B" cx="13.65" cy="21.934" rx="6.666" ry="4.511"/>
</g>
<g id="frame3" display="none">
	<path display="inline" fill="#22A94A" stroke="#010101" stroke-width="2" stroke-miterlimit="10" d="M11.92,1.152
		c0,0,15.812-1.79,26.084,6.902C48.288,16.757,49.131,32.65,49.131,32.65s-17.016-3.134-27.293-11.837
		C11.565,12.115,11.92,1.152,11.92,1.152z"/>
</g>
<g id="frame2" display="none">
	<path display="inline" fill="#22A94A" stroke="#010101" stroke-width="2" stroke-miterlimit="10" d="M6.037,9.414
		c0,0,15.138-4.901,26.938,1.569c11.811,6.479,15.802,21.888,15.802,21.888s-17.3,0.316-29.104-6.164
		C7.873,20.229,6.037,9.414,6.037,9.414z"/>
</g>
<g id="frame1">
	<path fill="#22A94A" stroke="#010101" stroke-miterlimit="10" d="M2.257,8.605c0,0,6.68-4.027,13.034-2.252
		c6.361,1.776,9.982,8.688,9.982,8.688s-8.222,2.079-14.58,0.3C4.338,13.562,2.257,8.605,2.257,8.605z"/>
</g>
</svg>
