<?xml version="1.0" encoding="utf-8"?>
<!-- Generator: Adobe Illustrator 16.0.0, SVG Export Plug-In . SVG Version: 6.00 Build 0)  -->
<!DOCTYPE svg PUBLIC "-//W3C//DTD SVG 1.1//EN" "http://www.w3.org/Graphics/SVG/1.1/DTD/svg11.dtd">
<svg version="1.1" id="Layer_1" xmlns="http://www.w3.org/2000/svg" xmlns:xlink="http://www.w3.org/1999/xlink" x="0px" y="0px"
	 width="321px" height="265px" viewBox="0 0 321 265" enable-background="new 0 0 321 265" xml:space="preserve">
<path fill="#FFE147" stroke="#1D1E1C" stroke-miterlimit="10" d="M278.638,43.143c-1.913,3.458-13.928,18.014-18.872,28.608
	c-43.029,92.158-136.124,139.095-231.849,95.394c-7.965-3.551-10.526-1.779-19.092,4.631c-4.289,3.211-8.326,14.252-5.09,23.631
	c25.218,52.131,76.464,64.781,126.136,65.842c117.433,4.508,212.619-122.221,180.682-195.035
	c-5.499-10.959-19.642-23.545-21.598-35.418c-1.465-8.866-5.801-24.518-8.625-29.11c-1.999-1.938-10.502,15.778-7.604,24.541
	C273.854,29.636,278.61,35.136,278.638,43.143z"/>
<path fill="#F5E847" d="M289.882,54.008c-5.554-8.739-13.433,11.619-16.06,18.626c-4.32,21.318-6.422,26.061-17.678,44.367
	c-20.019,32.092-43.808,51.588-95.171,71.524c-3.688,1.143-6.963,2.742-10.671,3.975c-3.979,1.32-8.287,2.09-12.073,2.805
	c-5.161,0.98-10.298,2.203-15.537,3.197c-4.834,0.918-9.885,0.094-14.865,0.463c-6.398,0.479-11.963-0.479-18.153-1.578
	c-12.768-2.012-24.213-6.895-36.753-9.887c-7.651-3.68-13.931-4.178-22.014-1.295c-4.603,1.527-2.687,4.85-2.812,7.977
	c-0.165,4.072,8.24,12.041,10.726,14.617c16.763,21.146,58.363,34.742,112.166,30.533c49.439-4.359,69.65-16.543,93.016-43.973
	c23.632-22.465,44.368-55.457,52.408-87.843c-0.365-12.657,1.882-34.758-3.318-49.416C292.239,54.862,291.182,56.046,289.882,54.008
	z"/>
<path fill="#FFCB08" d="M46.526,219.844c14.1,8.824,10.164,4.988,20.164,10.125c31.604,9.795,65.907,13.027,98.176,6.896
	c25.188-2.871,40.053-12.709,60.487-25.828c16.06-12.693,31.538-31.635,43.328-46.791c15.875-19.41,26.005-47.85,30.639-72.235
	c-0.33-10.647-0.07-17.069-1.547-27.72c-0.334-2.255-2.867-9.888-2.663-11.816c0.295-2.659,2.329,2.426,5.278,5.764
	c7.776,9.253,10.981,14.591,13.095,26.103c6.449,50.037-18.688,77.548-30.493,97.316c-35.678,52.904-94.944,73.365-133.296,76.018
	c-42.386,2.891-92.328-4.195-120.909-32.309c-6.06-5.953-10.742-12.332-15.659-19.625c-10.216-15.172-2.781-18.936,6.323-8.656
	C29.971,208.988,41.298,216.48,46.526,219.844z"/>
<path opacity="0.14" fill="#9B4B21" d="M280.216,49.998c-3.951,6.013-11.712,29.419-14.354,35.884
	c-12.533,37.839-37.838,63.251-59.486,76.173c-44.852,26.77-84.504,38.539-129.274,30.045c-52.888-10.039-49.714-11.162,5.495,3.016
	c62.891,13.527,125.448-30.539,128.933-32.732c18.412-13.141,27.983-17.201,47.554-54.183
	C264.451,98.049,278.826,56.196,280.216,49.998z"/>
<path opacity="0.33" fill="#9B4B21" d="M217.447,214.408c-36.93,28.211-102.268,30.312-147.03,15.6
	c-20.282-7.545-33.105-15.377-48.368-31.152c4.45,9.334,25.038,23.801,42.193,31.545c17.262,7.619,45.787,10.424,64.639,10.475
	c32.087-1.928,64.698-5.58,91.059-25.219c30.458-22.697,55.646-46.658,68.453-80.277c4.972-13.071,12.454-35.873,12.812-53.35
	c-0.472-10.983-0.594-18.738-5.412-28.777C304.944,92.938,288.299,160.463,217.447,214.408z"/>
<path fill="#1D1D1B" d="M275.068,14.935c-0.511,1.204-0.413,5.092-0.456,5.591c-0.161,1.985,1.34,3.649,1.826,4.965
	c0.688,1.881,0.778-4.11,1.171-6.167c0.389-2.019,1.139-4.298,1.548-6.451c0.385-2.041,0.565-3.989,0.816-5.876
	C279.545,0.806,275.499,13.847,275.068,14.935z"/>
<path fill="#3D2D21" d="M10.95,173.781c-1.352,0.645-2.239,3.854-1.866,8.484c0.291,3.641,6.559-2.82,9.834-4.227
	C21.987,164.732,14.465,171.637,10.95,173.781z"/>
<path opacity="0.2" fill="#CFAD30" d="M275.307,28.212c0.833,2.349,2.137,6.302,2.632,9.326c0.325,1.964,0.699,3.262,0.482,5.249
	c-0.239,2.172,0.975-0.502,1.807-0.935c2.027-1.045,1.783,0.269,3.261,1.198c1.154,0.729,1.854,2.504,2.662,3.615
	c0.998,1.383,0.22-0.064,1.477-0.424c2.2-0.629-1.838-4.193-2.572-6.355c-0.393-1.141-0.797-2.29-1.131-3.438
	c-0.633-2.233-1.457-4.138-1.964-6.402c-0.601-2.629-3.335-3.979-3.924-6.563c-0.35-1.565,1.74-4.328,1.646-5.831
	c-0.094-1.553,0.652-2.562,0.429-3.906c-0.161-0.944,0.393-2.101,0.385-2.14c-0.707-2.738-2.593,4.469-3.268,7.215
	c-0.499,2.019-0.558,4.106-0.907,6.089C276.218,25.482,275.551,26.828,275.307,28.212z"/>
<path fill="#F5E847" d="M23.84,169.936c2.298-0.105,7.133,1.875,10.302,3.367c25.411,10.627,54.066,16.314,86.484,13.684
	c-3.452,1.383-25.977,4.646-30.253,4.729c-15.808,0.307-36.844-8.186-53.976-11.678c-2.852-0.514-5.369-0.945-7.089-0.51
	c-1.599,0.404-5.247,1.623-6.104,3.031c-0.64,1.049-2.423,0.365-3.637,0.547c-2.737,0.408,3.409-4.406,4.587-6.908
	c0.515-1.104,0.675-2.258,1.057-3.453C25.552,171.68,24.209,170.688,23.84,169.936z"/>
<path fill="#F5E847" d="M275.656,52.865c-2.467,1.011-5.404,6.378-7.254,10.111c-0.955,1.917-2.706,3.706-4.281,5.555
	c-1.712,2.017-2.694,5.825-3.833,8.048c-1.426,2.792-2.553,5.593-3.708,8.605c-1.197,3.136-2.871,6.355-4.387,9.228
	c-1.269,2.394-2.207,4.625-3.527,6.802c-0.919,1.514-1.959,3.208-2.662,4.365c-0.868,1.42,2.435-2.26,3.723-3.311
	c1.305-1.07,2.836-2,4.223-3.193c1.838-1.571,2.446-2.284,3.975-4.306c1.358-1.797,2.015-4.024,3.027-5.862
	c0.979-1.775,1.678-3.645,2.663-5.43c0.959-1.746,1.563-4.21,2.282-6.046c0.907-2.315,1.956-4.522,2.969-6.673
	c0.92-1.963,1.603-3.37,2.593-5.174c0.801-1.459,1.241-2.739,1.854-4.307c0.46-1.163,1.194-2.449,1.614-3.307
	C275.904,55.96,275.527,55.071,275.656,52.865z"/>
</svg>
