<?xml version="1.0" encoding="utf-8"?>
<!-- Generator: Adobe Illustrator 21.0.0, SVG Export Plug-In . SVG Version: 6.00 Build 0)  -->
<svg version="1.1" id="Layer_1" xmlns="http://www.w3.org/2000/svg" xmlns:xlink="http://www.w3.org/1999/xlink" x="0px" y="0px"
	 width="151.4px" height="81.8px" viewBox="0 0 151.4 81.8" enable-background="new 0 0 151.4 81.8" xml:space="preserve">
<path fill="none" stroke="#DCDCDC" stroke-width="7" stroke-linecap="round" stroke-linejoin="round" stroke-miterlimit="10" d="
	M13.5,25.5H8.2c-2.9,0-5.2,2.3-5.2,5.2V51c0,2.9,2.3,5.2,5.2,5.2h5.2"/>
<path fill="none" stroke="#DCDCDC" stroke-width="7" stroke-linecap="round" stroke-linejoin="round" stroke-miterlimit="10" d="
	M147.4,71.2c0,3.9-3.1,7-7,7H22.7c-3.9,0-7-3.1-7-7V10.5c0-3.9,3.1-7,7-7h117.7c3.9,0,7,3.1,7,7L147.4,71.2L147.4,71.2z"/>
<g id="charge">
	<path id="level_low" display="none" fill="#FF0101" d="M140.4,68.7c0,1.7-1.3,3-3,3h-15.7c-1.7,0-3-1.3-3-3V13c0-1.7,1.3-3,3-3
		h15.7c1.7,0,3,1.3,3,3V68.7z"/>
	<path id="level_bar" display="none" fill="#DCDCDC" d="M140.4,68.7c0,1.7-1.3,3-3,3H24.7c-1.7,0-3-1.3-3-3V13c0-1.7,1.3-3,3-3
		h112.7c1.7,0,3,1.3,3,3V68.7L140.4,68.7z"/>
	<polygon id="level_charging" display="none" fill="#F6FC7C" stroke="#FFFFFF" stroke-width="2.4" stroke-miterlimit="10" points="
		88,61.7 36,33.9 74.1,33.9 74.1,20 126.2,47.8 88,47.8 	"/>
</g>
</svg>
