<?xml version="1.0" encoding="utf-8"?>
<!-- Generator: Adobe Illustrator 16.0.0, SVG Export Plug-In . SVG Version: 6.00 Build 0)  -->
<!DOCTYPE svg PUBLIC "-//W3C//DTD SVG 1.1//EN" "http://www.w3.org/Graphics/SVG/1.1/DTD/svg11.dtd">
<svg version="1.1" id="Layer_2" xmlns="http://www.w3.org/2000/svg" xmlns:xlink="http://www.w3.org/1999/xlink" x="0px" y="0px"
	 width="244.946px" height="659.621px" viewBox="0 0 244.946 659.621" enable-background="new 0 0 244.946 659.621"
	 xml:space="preserve">
<g id="liquid">
	
		<path id="colour" fill-rule="evenodd" clip-rule="evenodd" fill="#F49528" stroke="#000000" stroke-width="4" stroke-miterlimit="10" d="
		M218.409,124.567c-30.372,1.464-62.573,2.257-95.938,2.257c-33.363,0-65.564-0.793-95.936-2.257
		C6.942,153.555,0.178,173.342,2.407,221.109c2.255,48.285,0,114.682,0,203.687c0,24.766,0,58.612,0,74.319
		c0,15.706,3.27,104.228,13.081,125.645c9.813,21.418,15.884,20.991,28.032,24.323c55.823,11.255,92.477,8.741,113.176,7.041
		c53.361-4.382,63.534-13.224,72.761-33.365c9.812-21.417,13.081-107.938,13.081-123.644c0-15.707,0-49.553,0-74.319
		c0-89.004-2.254-155.401,0-203.687C244.769,173.342,238.003,153.555,218.409,124.567z"/>
</g>
<ellipse opacity="0.72" fill-rule="evenodd" clip-rule="evenodd" cx="122.474" cy="52.109" rx="29.717" ry="1.399"/>
<g>
	<path fill="#FCCC89" d="M27.394,492.866c-0.004-0.001,0.463-309.391,0.463-309.391c1.405-22.939,6.562-38.118,15.119-57.392
		c-1.401-0.061-9.739-0.407-11.134-0.471c-11.655,18.736-22.804,54.834-22.808,70.525l-0.056,302.42
		c0.041,0.018,0.086,0.037,0.128,0.055c0.67,27.789,4.06,108.03,12.333,126.99c3.963,9.083,13.898,20.974,33.258,20.687
		c-7.96-0.597-14.977-12.329-18.359-28.946C25.493,564.073,27.394,508.958,27.394,492.866z"/>
	<path fill="#F9BD5F" d="M8.978,499.958c0,0.087,0.001,0.189,0.001,0.281v-1.681c0,0-0.001,0-0.001,0V499.958z"/>
</g>
<path fill="none" stroke="#000000" stroke-width="4" stroke-miterlimit="10" d="M218.409,124.567
	c-0.213-0.314-0.418-0.623-0.633-0.939c-20.088-29.507-45.287-37.81-52.558-42.414c-7.273-4.604-11.601-6.207-12.189-9.012
	c-0.35-1.665-0.422-8.131-0.423-13.109c-0.001-3.406,0.031-6.116,0.031-6.116l6.881-0.802l0.393-2.6
	c-0.005-0.001-2.559-1.002-5.111-2.003c-1.277-0.501-1.72-1.503-1.843-2.38c-0.122-0.867,0.067-1.609,0.071-1.625h-61.11
	c0.004,0.016,0.193,0.758,0.071,1.625c-0.123,0.876-0.565,1.879-1.844,2.38c-2.553,1-5.106,2.002-5.111,2.003l0.394,2.6l6.88,0.802
	c0,0,0.032,2.71,0.032,6.116c-0.002,4.978-0.073,11.444-0.423,13.109c-0.59,2.805-4.916,4.407-12.189,9.012
	c-7.271,4.604-32.471,12.907-52.559,42.414c-0.215,0.316-0.42,0.625-0.633,0.939c30.371,1.464,62.572,2.257,95.936,2.257
	C155.836,126.824,188.037,126.031,218.409,124.567z"/>
<g id="cap">
	
		<path id="colour_1_" fill-rule="evenodd" clip-rule="evenodd" fill="#E5242A" stroke="#000000" stroke-width="3" stroke-miterlimit="10" d="
		M122.473,1.5c-16.412,0-34.224,2.392-34.224,2.392L88.45,32l1,14.753c0,0,22.617,1.196,33.022,1.196s33.022-1.196,33.022-1.196
		l1-14.753l0.201-28.108C156.696,3.892,138.886,1.5,122.473,1.5z"/>
</g>
</svg>
