<?xml version="1.0" encoding="utf-8"?>
<!-- Generator: Adobe Illustrator 16.0.0, SVG Export Plug-In . SVG Version: 6.00 Build 0)  -->
<!DOCTYPE svg PUBLIC "-//W3C//DTD SVG 1.1//EN" "http://www.w3.org/Graphics/SVG/1.1/DTD/svg11.dtd">
<svg version="1.1" id="Layer_2" xmlns="http://www.w3.org/2000/svg" xmlns:xlink="http://www.w3.org/1999/xlink" x="0px" y="0px"
	 width="170.639px" height="125.301px" viewBox="0 0 170.639 125.301" enable-background="new 0 0 170.639 125.301"
	 xml:space="preserve">
<g id="antennae">
	<g>
		<path d="M83.96,44.675L83.96,44.675c-0.014-2.471-1.438-5.613-3.848-8.369l0,0c-1.703-1.936-3.587-3.304-5.302-3.956l0,0
			c-0.235-0.09-0.491,0.056-0.568,0.324l0,0c-0.079,0.269,0.049,0.56,0.284,0.647l0,0c1.544,0.586,3.335,1.871,4.949,3.707l0,0
			c2.299,2.604,3.595,5.633,3.583,7.646l0,0L83.96,44.675L83.96,44.675z"/>
	</g>
	<g>
		<path d="M85.983,44.675L85.983,44.675c0.014-2.471,1.438-5.613,3.849-8.369l0,0c1.704-1.936,3.586-3.304,5.302-3.956l0,0
			c0.234-0.089,0.49,0.056,0.569,0.324l0,0c0.079,0.269-0.049,0.56-0.284,0.647l0,0c-1.544,0.586-3.335,1.871-4.95,3.707l0,0
			c-2.298,2.604-3.596,5.633-3.583,7.646l0,0L85.983,44.675L85.983,44.675z"/>
	</g>
</g>
<g id="dark_4">
	<path id="colour_8_" fill="#1FAEC0" stroke="#000000" stroke-width="2" stroke-miterlimit="10" d="M42.732,53.685
		c-7.414,1.627-17.466,10.682-20.917,20.473c-8.168,23.176,25.217,40.75,32.45,43.539c4.479,1.729,10.645-0.037,13.593-8.088
		c4.258-11.625,6.072-29.515,16.573-44.674C87.854,51.945,68.084,48.123,42.732,53.685z"/>
</g>
<g id="light_4">
	<path id="colour_4_" fill="#00F0FF" d="M67.504,101.425c-5.272,19.843-44.614-4.99-39.842-25.665
		c7.795-33.758,60.892-20.151,55.932-13.826C78.004,69.062,71.74,85.482,67.504,101.425z"/>
</g>
<g id="dark_3">
	<path id="colour_7_" fill="#1FAEC0" stroke="#000000" stroke-width="2" stroke-miterlimit="10" d="M80.839,61.005
		c-27.282-6.615-55.874,7.348-62.311-3.863c-6.078-10.595-5.22-28.749-13.256-42.279c-5.709-9.615,21.011-20.451,52.822,6.196
		C75.278,35.453,93.852,64.16,80.839,61.005z"/>
</g>
<g id="light_3">
	<path id="colour_3_" fill="#00F0FF" d="M83.649,59.078c-4.672-0.83-21.477-4.482-42.638-1.02
		C14.334,62.424,8.796,5.93,33.227,9.768C48.794,12.214,77.762,42.945,83.649,59.078z"/>
</g>
<g id="dark_2">
	<path id="colour_6_" fill="#1FAEC0" stroke="#000000" stroke-width="2" stroke-miterlimit="10" d="M127.544,53.685
		c7.416,1.627,17.467,10.682,20.919,20.473c8.168,23.176-25.217,40.75-32.451,43.539c-4.479,1.729-10.644-0.037-13.59-8.088
		c-4.259-11.625-6.073-29.515-16.574-44.674C82.423,51.945,102.194,48.123,127.544,53.685z"/>
</g>
<g id="light_2">
	<path id="colour_2_" fill="#00F0FF" d="M102.774,101.425c5.272,19.843,44.615-4.99,39.842-25.665
		c-7.795-33.758-60.893-20.151-55.931-13.826C92.274,69.062,98.538,85.482,102.774,101.425z"/>
</g>
<g id="dark_1">
	<path id="colour_5_" fill="#1FAEC0" stroke="#000000" stroke-width="2" stroke-miterlimit="10" d="M89.437,61.005
		c27.282-6.615,55.876,7.348,62.311-3.863c6.08-10.595,5.22-28.75,13.256-42.279c5.71-9.615-21.01-20.453-52.824,6.196
		C94.998,35.453,76.426,64.16,89.437,61.005z"/>
</g>
<g id="light_1">
	<path id="colour_1_" fill="#00F0FF" d="M86.63,59.078c4.671-0.83,21.476-4.482,42.638-1.02c26.676,4.366,32.214-52.128,7.784-48.29
		C121.482,12.214,92.517,42.945,86.63,59.078z"/>
</g>
<g id="body">
	<path id="colour" fill="#0D8184" stroke="#000000" stroke-miterlimit="10" d="M89.756,57.183
		c0.092,7.702-1.898,29.995-4.898,29.995s-4.376-21.997-4.338-29.544c0.021-4.396,1.858-16.438,4.338-16.438
		C87.44,41.197,89.702,52.816,89.756,57.183z"/>
</g>
</svg>
