<?xml version="1.0" encoding="utf-8"?>
<!-- Generator: Adobe Illustrator 16.0.0, SVG Export Plug-In . SVG Version: 6.00 Build 0)  -->
<!DOCTYPE svg PUBLIC "-//W3C//DTD SVG 1.1//EN" "http://www.w3.org/Graphics/SVG/1.1/DTD/svg11.dtd">
<svg version="1.1" id="Layer_4" xmlns="http://www.w3.org/2000/svg" xmlns:xlink="http://www.w3.org/1999/xlink" x="0px" y="0px"
	 width="216.511px" height="203.811px" viewBox="0 0 216.511 203.811" enable-background="new 0 0 216.511 203.811"
	 xml:space="preserve">
<path fill-rule="evenodd" clip-rule="evenodd" fill="#CB7429" d="M29.22,159.924c-4.512,0.181-9.926,0.722-14.8,2.166
	c-17.866,5.053-15.159,34.107,4.512,33.025c5.596-0.181,15.881-3.97,19.132-7.58c2.526-2.705,7.216,2.347,17.507,2.707
	c17.683,0.541,34.107-7.578,42.59-24.723c5.593-12.996,2.166-42.413-31.766-28.336C52.319,152.524,53.583,158.842,29.22,159.924z"/>
<path fill-rule="evenodd" clip-rule="evenodd" fill="#F79420" d="M145.985,53.988c-0.36-13.899-5.415-24.907-14.438-35.555
	c-8.844-10.286-20.214-15.159-19.673-16.782c27.792-6.499,62.986,32.664,63.888,51.975
	C166.196,52.725,155.188,53.444,145.985,53.988z"/>
<path fill-rule="evenodd" clip-rule="evenodd" fill="#F79420" d="M70.727,113.724c-28.512,13.353-20.393,44.577-10.647,53.419
	c16.964,15.702,82.657,5.955,122.361-11.911c22.559-10.286,32.845-24.726,33.927-43.133c1.087-18.951-4.871-41.148-20.934-52.699
	c-24.724-17.504-68.94-16.963-74.894,19.132C114.582,114.446,104.837,97.842,70.727,113.724z"/>
<path fill-rule="evenodd" clip-rule="evenodd" fill="#F79420" d="M41.853,168.406c-4.333,0.181-9.747,0.722-14.618,1.985
	c-18.048,5.233-15.341,34.291,4.512,33.207c5.414-0.179,15.881-3.971,18.948-7.581c2.526-2.707,7.402,2.348,17.688,2.71
	c17.686,0.538,33.927-7.763,42.411-24.729c5.596-12.992,2.166-42.41-31.763-28.512C65.131,161.006,66.395,167.143,41.853,168.406z"
	/>
<path fill-rule="evenodd" clip-rule="evenodd" fill="#F79420" d="M130.826,150.899c4.33,13.718,19.852,24.365,6.677,24.365
	c-8.303-0.181-18.77-1.084-25.085,2.705c-23.103,14.077-1.807,27.436,15.7,24.185c5.233-1.082,2.526-1.985,15.882-2.526
	c11.01-0.541,61.722-6.496,45.659-25.988c-15.521-18.589,16.422-23.641,22.38-45.659C226.477,73.298,108.627,80.515,130.826,150.899
	z"/>
<path fill-rule="evenodd" clip-rule="evenodd" fill="#F79420" d="M44.56,85.748c2.346-9.923,7.219-21.115,6.678-32.123
	c-0.181-3.43,28.334,9.563,34.651,34.291C79.393,91.525,61.704,83.763,44.56,85.748z"/>
<path fill-rule="evenodd" clip-rule="evenodd" fill="#F79420" d="M2.149,136.461c17.145-12.452-4.333-55.584,44.937-62.984
	c23.103-3.427,45.48,0.362,56.848,20.396c17.688,31.4,5.055,55.944-27.248,69.662C55.749,172.557,2.69,166.602,2.149,136.461z"/>
<path fill-rule="evenodd" clip-rule="evenodd" fill="#F8C074" d="M19.112,157.757C8.646,157.939-2.725,142.96,1.067,135.379
	c4.509,3.79,25.085-6.499,31.941,5.774C38.424,150.899,28.316,157.579,19.112,157.757z"/>
<g>
	<path fill-rule="evenodd" clip-rule="evenodd" fill="#D7DF23" d="M40.408,116.792c4.333,9.203-10.285,20.936-21.114,15.519
		C17.487,116.61,35.356,106.322,40.408,116.792z"/>
	<path d="M40.431,116.782c0.126,0.314,0.268,0.624,0.381,0.943c0.085,0.329,0.207,0.651,0.261,0.988
		c0.127,0.668,0.19,1.353,0.154,2.033c-0.007,0.684-0.13,1.362-0.294,2.025c-0.166,0.665-0.411,1.308-0.691,1.935
		c-0.292,0.621-0.632,1.219-1.011,1.793c-0.395,0.562-0.819,1.102-1.275,1.615c-0.465,0.506-0.95,0.992-1.473,1.438
		c-0.528,0.439-1.074,0.854-1.642,1.239c-0.571,0.379-1.161,0.729-1.772,1.039c-0.612,0.306-1.236,0.587-1.878,0.825
		c-0.641,0.238-1.293,0.447-1.957,0.605c-0.662,0.163-1.334,0.293-2.011,0.372c-0.337,0.052-0.677,0.083-1.018,0.095
		c-0.341,0.024-0.681,0.04-1.021,0.025c-0.682-0.003-1.363-0.053-2.038-0.148c-0.676-0.09-1.343-0.247-1.997-0.44
		c-0.656-0.197-1.286-0.461-1.909-0.745l-0.062-0.028l-0.006-0.068c-0.061-0.743-0.15-1.485-0.139-2.233
		c-0.031-0.748,0.038-1.495,0.098-2.24l0.148-1.113l0.226-1.101c0.179-0.727,0.364-1.457,0.642-2.154
		c0.246-0.71,0.565-1.392,0.899-2.063c0.338-0.671,0.729-1.312,1.137-1.944c0.429-0.618,0.874-1.224,1.369-1.791
		c0.5-0.562,1.023-1.103,1.585-1.604c1.122-1.001,2.367-1.872,3.727-2.529c0.682-0.324,1.392-0.583,2.115-0.798
		c0.733-0.184,1.478-0.333,2.234-0.353c0.755-0.049,1.514,0.034,2.249,0.194c0.73,0.179,1.443,0.448,2.074,0.856l0.472,0.305
		l0.43,0.361c0.302,0.223,0.533,0.521,0.791,0.79c0.251,0.274,0.44,0.6,0.664,0.896C40.082,116.124,40.251,116.457,40.431,116.782z
		 M40.386,116.801c-0.186-0.32-0.358-0.646-0.552-0.96c-0.227-0.291-0.419-0.609-0.673-0.877c-0.26-0.262-0.491-0.552-0.793-0.766
		l-0.432-0.343l-0.476-0.278c-0.633-0.372-1.336-0.604-2.05-0.746c-0.718-0.121-1.45-0.167-2.175-0.085
		c-0.726,0.057-1.437,0.227-2.138,0.419c-0.692,0.228-1.37,0.495-2.02,0.827c-1.303,0.652-2.512,1.494-3.595,2.474
		c-0.543,0.488-1.05,1.017-1.533,1.564l-0.698,0.846l-0.648,0.884c-0.403,0.61-0.792,1.23-1.129,1.881
		c-0.334,0.65-0.653,1.312-0.901,2.001c-0.274,0.679-0.483,1.383-0.674,2.091l-0.249,1.071l-0.174,1.088
		c-0.077,0.729-0.164,1.462-0.152,2.198c-0.033,0.736,0.046,1.47,0.091,2.206l-0.067-0.097c0.606,0.29,1.221,0.561,1.862,0.767
		c0.641,0.201,1.295,0.368,1.961,0.47c0.663,0.107,1.338,0.172,2.012,0.157c0.338,0.01,0.674-0.01,1.01-0.039
		c0.337-0.016,0.672-0.052,1.004-0.106c0.669-0.082,1.328-0.235,1.975-0.419c0.649-0.178,1.283-0.406,1.904-0.661
		c1.245-0.508,2.419-1.174,3.527-1.924c0.551-0.384,1.08-0.794,1.59-1.228c0.498-0.447,0.99-0.899,1.451-1.387
		c0.454-0.492,0.878-1.009,1.273-1.549l0.561-0.832c0.164-0.291,0.341-0.577,0.496-0.873c0.299-0.599,0.568-1.216,0.757-1.859
		c0.188-0.643,0.338-1.304,0.372-1.976c0.068-0.671,0-1.349-0.11-2.012c-0.048-0.334-0.164-0.652-0.243-0.98
		C40.643,117.429,40.506,117.118,40.386,116.801z"/>
</g>
<path d="M38.244,100.547c-2.168,1.263-2.707-2.164-7.039-2.526c-1.985-0.179-6.137,0.723-7.579-2.525
	C28.679,96.58,36.076,91.525,38.244,100.547z"/>
<path d="M42.754,120.943c-1.264,7.219-9.386,13.174-16.423,13.533c-3.067,0.182-6.137-0.719-8.119-3.066
	c2.345,1.441,5.052,1.985,7.94,1.804c6.315-0.722,13.894-5.774,14.618-12.633C41.49,114.987,43.479,116.25,42.754,120.943z"/>
<path fill-rule="evenodd" clip-rule="evenodd" d="M27.597,119.499c2.526-0.182,5.052,2.707,5.593,6.496
	c0.723,3.792-1.084,7.038-3.61,7.219c-2.526,0.182-5.233-2.707-5.774-6.496S24.89,119.679,27.597,119.499z"/>
<path d="M31.927,141.516c1.082,1.985,1.804,3.971,1.441,6.135c-0.538,3.97-4.148,6.68-7.759,8.122
	c-4.871,1.806-9.385,1.622-13.895-1.082c-4.694-2.708-8.665-7.581-10.469-12.634c-0.723-2.166-1.084-4.511-0.179-6.678
	c-1.266,2.167-1.266,4.692-0.725,6.859c1.444,5.593,5.776,10.826,10.647,13.894c4.874,2.889,9.929,3.069,15.162,1.084
	c4.151-1.443,8.301-4.692,9.204-9.203C35.716,145.666,34.994,141.335,31.927,141.516z"/>
<path d="M55.57,53.988c5.591,8.481,11.367,21.115,12.631,31.041c0.181,2.526,0,3.067-0.901,0.36
	C64.23,74.38,58.997,61.926,51.419,53.266C51.957,52.903,53.401,53.084,55.57,53.988z"/>
<path d="M20.557,160.646c-4.332,0.179-11.911,3.43-14.438,7.037c-2.888,3.611-3.97,9.023-3.61,13.177
	c0.36,6.497,5.415,14.256,14.979,14.256c-0.179-0.54-0.538-1.263-0.72-1.806c-11.191-0.541-16.605-14.797-10.288-23.642
	c4.151-5.955,12.814-7.759,18.41-7.397C23.626,161.549,21.82,161.369,20.557,160.646z"/>
<path d="M145.625,99.106c-11.732,7.76-18.77,19.852-19.132,33.927c-0.181,15.702,5.958,22.74,13.896,35.191
	c0.541,0.903,3.429,5.415,1.446,6.137c-8.122,2.889-24.547-3.789-35.735,8.484c-4.149,4.69-5.233,9.745-0.723,14.256
	c2.889,2.887,5.596,3.789,9.386,4.871c4.514,1.085,9.022,1.264,13.536,0.362c5.414-1.084,5.052-2.166,10.647-2.347
	c11.187-0.539,27.068-2.346,37.537-5.774c5.053-1.805,11.008-4.149,14.439-8.304c3.428-4.509,2.164-8.119-1.265-12.271
	c-4.331-5.053-5.415-10.288-1.442-15.7c3.064-4.151,6.678-7.762,10.467-11.189c3.428-2.707,6.497-5.774,9.204-9.203
	c5.596-7.4,7.94-16.244,8.479-25.447c1.625-29.778-10.467-54.144-40.967-61.722c-2.707-12.814-11.549-24.363-20.934-33.026
	C143.638,7.244,127.938-2.863,112.418,0.748c-2.707,0.541,0.901,3.067,1.982,3.611c14.981,9.923,28.698,23.822,30.682,45.296
	c-12.093,4.152-21.296,12.993-24.363,25.085c-0.179,1.263-0.541,2.529-0.723,3.97c-1.443,9.022-2.525,19.492-11.548,23.822
	c-0.362,0.181,0.359,0.722,0.9,0.541c9.385-3.968,11.37-15.157,12.993-24.363c2.707-15.159,11.729-22.738,25.81-26.889
	c-2.889-22.74-14.438-35.914-35.014-49.629c24.547-5.236,55.585,27.792,59.556,52.337c30.502,8.481,45.118,33.927,39.885,65.329
	c-1.264,7.941-5.053,15.341-10.83,21.296c-5.052,5.233-12.089,10.107-16.601,15.882c-4.692,5.955-1.625,12.092,3.069,17.869
	c2.707,3.246,3.971,5.955,1.082,9.744c-3.25,3.79-8.844,5.956-13.355,7.397c-10.467,3.43-25.988,5.055-36.996,5.596
	c-5.776,0.182-5.596,1.264-11.01,2.346c-4.151,0.722-8.481,0.54-12.631-0.36c-3.432-0.9-5.596-1.625-8.122-4.333
	c-3.612-3.607-2.707-7.938,0.72-11.549c8.844-9.385,23.822-5.776,34.832-7.399c5.596-0.903,0.541-6.496-0.9-8.841
	c-7.221-11.373-12.636-20.396-12.273-34.292c0.182-13.355,7.219-24.723,18.589-31.581C151.76,99.285,149.596,96.58,145.625,99.106z"
	/>
<path d="M83.72,86.654c-2.886-10.288-9.923-19.132-18.226-25.629c-3.07-2.347-6.497-4.692-10.105-6.136
	c-2.168-1.082-3.432-2.164-3.432,0.362c-0.179,10.467-4.509,28.512-7.397,30.498c1.626-6.134,6.315-20.39,5.956-31.038
	c-0.182-3.611,2.886-2.529,5.593-1.444c3.79,1.444,7.4,3.608,10.648,6.134c9.022,6.496,16.784,15.521,20.396,26.348
	C88.053,88.456,84.444,89.177,83.72,86.654z"/>
<path d="M1.246,135.379c4.33-3.069,7.037-8.303,7.94-13.174c1.444-6.499,1.804-12.814,3.248-19.311
	c2.526-11.729,8.484-20.033,19.492-25.085c5.412-2.526,10.288-3.61,16.061-4.511c-0.179,0.722-0.179,0.901-0.36,1.623
	c-16.06,2.348-29.236,11.911-32.847,28.515c-1.442,6.496-1.623,12.814-2.887,19.311c-1.084,5.594-3.791,9.926-8.481,13.536
	C0.343,137.546,1.968,136.102,1.246,135.379L1.246,135.379z M81.375,76.907c-0.541-0.903-0.9-1.263-1.444-2.167
	c18.05,5.774,26.349,18.229,30.5,36.458c0.725,3.789-1.982,3.427-2.707,0.36C103.753,95.135,96.355,81.418,81.375,76.907
	L81.375,76.907z M97.257,151.08c-15.7,13.718-30.682,18.048-51.796,15.882c-11.368-1.082-23.641-3.789-32.845-11.008
	c7.76,4.871,19.311,7.94,33.388,9.022c20.571,1.626,34.651-2.886,49.989-16.422C100.867,144.403,102.13,146.928,97.257,151.08z"/>
<path d="M113.682,173.639c9.385-1.082,18.226-2.526,27.43-4.692c-0.359-0.901-2.526-3.789-3.246-4.871
	c-7.583,3.789-16.243,6.496-25.447,7.578c-5.414,0.723-6.139,3.43-7.76,5.774c-9.387,13.718-18.77,19.13-35.375,18.589
	c-5.233,0-11.187-0.901-15.157-2.164c-1.084-0.362,0.357-3.789-4.514,0.36c-4.692,3.789-11.911,7.399-17.507,7.759
	c-8.301,0.362-14.618-5.052-15.52-13.353c-0.543-3.789,0.182-6.496,1.985-9.929c1.985-3.427,5.233-5.955,9.204-7.218
	c9.204-2.705,21.296-0.36,29.597-4.69c-1.444,0-5.053,0.36-6.497,0.179c-6.678,2.526-16.062,1.263-23.459,3.43
	c-4.333,1.082-7.941,3.789-10.107,7.578c-2.166,3.61-2.889,6.68-2.348,10.829c0.903,9.204,7.94,15.521,17.145,14.98
	c6.496-0.181,14.618-3.251,19.313-8.122c0.359-0.362,0.9-0.541,1.444-0.362c4.509,0.362,8.66,3.433,16.42,3.433
	c16.605-0.184,30.499-5.777,39.885-21.837C110.07,175.264,111.875,173.999,113.682,173.639z"/>
<path d="M108.368,102.59"/>
</svg>
