<?xml version="1.0" encoding="utf-8"?>
<!-- Generator: Adobe Illustrator 16.0.0, SVG Export Plug-In . SVG Version: 6.00 Build 0)  -->
<!DOCTYPE svg PUBLIC "-//W3C//DTD SVG 1.1//EN" "http://www.w3.org/Graphics/SVG/1.1/DTD/svg11.dtd">
<svg version="1.1" id="Layer_1" xmlns="http://www.w3.org/2000/svg" xmlns:xlink="http://www.w3.org/1999/xlink" x="0px" y="0px"
	 width="190.235px" height="116.062px" viewBox="0 0 190.235 116.062" enable-background="new 0 0 190.235 116.062"
	 xml:space="preserve">
<path fill="#FFFFFF" d="M13.167,58.922c4.854-16.677,20.629-28.903,39.353-28.903c0.011,0,0.021,0,0.031,0
	C53.18,17.972,63.437,8.391,75.997,8.391c4.187,0,8.114,1.069,11.517,2.935C94.813,4.325,104.839,0,115.907,0
	c18.537,0,34.146,12.124,38.914,28.65c1.128-0.18,2.285-0.277,3.467-0.277c11.762,0,21.298,9.262,21.298,20.688
	c0,3.46-0.879,6.72-2.426,9.587c7.876,5.045,13.075,13.711,13.075,23.56c0,15.58-13.004,28.211-29.043,28.211
	c-7.434,0-14.212-2.716-19.349-7.177c-6.017,5.483-14.105,8.847-23.007,8.847c-7.588,0-14.587-2.441-20.215-6.557
	c-5.324,6.418-13.478,10.529-22.625,10.529c-7.238,0-13.852-2.578-18.938-6.832c-1.491,0.16-3.004,0.25-4.54,0.25
	c-9.08,0-17.465-2.879-24.251-7.74c-1.547,0.311-3.149,0.477-4.792,0.477C10.511,102.216,0,92.006,0,79.412
	C0,70.411,5.371,62.63,13.167,58.922z"/>
</svg>
