<?xml version="1.0" encoding="utf-8"?>
<!-- Generator: Adobe Illustrator 16.0.0, SVG Export Plug-In . SVG Version: 6.00 Build 0)  -->
<!DOCTYPE svg PUBLIC "-//W3C//DTD SVG 1.1//EN" "http://www.w3.org/Graphics/SVG/1.1/DTD/svg11.dtd">
<svg version="1.1" id="Layer_1" xmlns="http://www.w3.org/2000/svg" xmlns:xlink="http://www.w3.org/1999/xlink" x="0px" y="0px"
	 width="117.701px" height="83.536px" viewBox="0 0 117.701 83.536" enable-background="new 0 0 117.701 83.536"
	 xml:space="preserve">
<path id="base" fill="#8D4915" stroke="#000000" stroke-width="3" stroke-miterlimit="10" d="M16.712,47.026l16.9,33.449
	c0,0,32.872,3.512,56.77,0c1.273-0.188,13.471-32.883,13.471-32.883L16.712,47.026z"/>
<g id="streaks">
	<polygon fill="#BD7F47" points="96.306,45.721 93.321,53.575 90.335,61.428 84.366,77.133 87.365,62.375 90.362,47.618 	"/>
	<polygon fill="#BD7F47" points="83.358,45.139 81.425,53.083 79.494,61.027 75.63,76.917 75.567,75.983 76.644,62.448 
		77.789,48.567 77.994,47.795 	"/>
	<polygon fill="#BD7F47" points="70.41,44.557 69.53,52.592 68.651,60.627 66.896,76.698 66.521,76.051 65.922,62.521 
		65.376,48.731 65.624,47.976 	"/>
	<polygon fill="#BD7F47" points="57.461,43.976 57.636,52.102 57.81,60.227 58.16,76.479 57.475,76.122 55.202,62.594 
		52.962,48.895 53.254,48.154 	"/>
	<polygon fill="#BD7F47" points="44.513,43.394 45.742,51.61 46.969,59.827 49.424,76.26 48.429,76.189 44.48,62.667 40.55,49.058 
		40.884,48.334 	"/>
	<polygon fill="#BD7F47" points="28.136,49.221 33.759,62.739 39.383,76.258 40.689,76.042 36.126,59.426 31.565,42.812 	"/>
</g>
<path id="colour_top" fill="#EA137A" stroke="#000000" stroke-width="2" stroke-miterlimit="10" d="M116.459,41.871
	c1.974-9.656-8.294-20.06-25.714-22.484c-0.273-0.038,5.561-7.771-14.688-16.166C40.689-7.013,7.452,20.753,13.381,32.99
	c0.165,0.032,0.226-0.037,0.178-0.204C4.357,32.931-13.8,59.355,23.751,47.573c-2.035,15.664,37.311,10.418,39.814,3.137
	c3.185,5.233,25.027,6.371,41.015,1.5C109.709,50.648,115.306,47.519,116.459,41.871z"/>
<ellipse transform="matrix(0.4806 0.8769 -0.8769 0.4806 33.879 -20.6988)" opacity="0.4" fill="#FFFFFF" enable-background="new    " cx="34.413" cy="18.251" rx="5.949" ry="8.527"/>
<ellipse transform="matrix(0.6487 0.7611 -0.7611 0.6487 27.9538 -7.9307)" opacity="0.4" fill="#FFFFFF" enable-background="new    " cx="22.567" cy="26.312" rx="2.556" ry="3.664"/>
</svg>
