<?xml version="1.0" encoding="utf-8"?>
<!-- Generator: Adobe Illustrator 16.0.0, SVG Export Plug-In . SVG Version: 6.00 Build 0)  -->
<!DOCTYPE svg PUBLIC "-//W3C//DTD SVG 1.1//EN" "http://www.w3.org/Graphics/SVG/1.1/DTD/svg11.dtd">
<svg version="1.1" id="Layer_2" xmlns="http://www.w3.org/2000/svg" xmlns:xlink="http://www.w3.org/1999/xlink" x="0px" y="0px"
	 width="524.904px" height="396.29px" viewBox="0 0 524.904 396.29" enable-background="new 0 0 524.904 396.29"
	 xml:space="preserve">
<path fill-rule="evenodd" clip-rule="evenodd" fill="#EAA60F" stroke="#000000" stroke-width="6" stroke-miterlimit="10" d="
	M5.114,184.007C20.113,90.675,77.11,48.326,138.607,21.877c97.129-41.772,335.983-6.853,370.157,67.593
	c36.111,78.666-3.478,165.4-103.17,245.039c-106.2,84.836-256.987,62.64-322.983,13.588C9.968,294.104-1.508,225.215,5.114,184.007z
	"/>
<path opacity="0.49" fill-rule="evenodd" clip-rule="evenodd" fill="#DF293C" d="M9.806,169.448
	c60.2,58.818,320.871,193.447,509.339-17.587c2,71-86,187-199.75,222.75c-46.312,14.555-157.5,27.25-240-32.5
	C41.54,314.695-6.355,254.361,9.806,169.448z"/>
<path fill-rule="evenodd" clip-rule="evenodd" d="M23.315,254.679c11.508-2.19,33.281,1.264,34.079,28.355
	c0.605,20.547-16.155,16.312-16.155,16.312s13.104-6.001-2.002-22.001c-10.608-11.236-18.875-1.42-18.875-1.42l-6.284-16.415
	C14.078,259.51,20.23,255.266,23.315,254.679z"/>
<path fill-rule="evenodd" clip-rule="evenodd" d="M17.081,307.199c-10.52,3.544-28.159-30.278-7.516-38.823
	c9.203-3.809,18.953,0.755,26.453,5.255c8.873,5.324,9.957,18.96,2.002,22.585C26.021,301.686,22.359,305.42,17.081,307.199z"/>
<ellipse transform="matrix(0.9808 -0.1948 0.1948 0.9808 -7.8364 34.6149)" opacity="0.28" fill-rule="evenodd" clip-rule="evenodd" fill="#FFFFFF" cx="172.075" cy="57.15" rx="45.698" ry="27.623"/>
<ellipse transform="matrix(0.8629 -0.5054 0.5054 0.8629 -29.3708 61.1317)" opacity="0.28" fill-rule="evenodd" clip-rule="evenodd" fill="#FFFFFF" cx="97.98" cy="84.696" rx="16.645" ry="10.532"/>
<g>
	<g>
		<path d="M4.67,183.936c2.379-14.818,5.97-29.471,11.027-43.631c2.518-7.083,5.425-14.036,8.741-20.795
			c3.33-6.751,7.029-13.33,11.113-19.673c8.194-12.669,17.993-24.331,29.017-34.711C75.6,54.741,87.823,45.637,100.727,37.697
			c6.46-3.961,13.084-7.647,19.821-11.098c3.371-1.722,6.761-3.404,10.19-4.998c3.451-1.593,6.819-3.155,10.432-4.627
			c14.237-5.79,29.116-9.448,44.075-12.013c7.489-1.258,15.012-2.241,22.548-2.997c7.54-0.725,15.092-1.227,22.646-1.546
			c7.554-0.312,15.11-0.467,22.662-0.406c7.553,0.073,15.099,0.31,22.635,0.695c30.143,1.564,60.107,5.64,89.557,12.003
			c14.721,3.201,29.312,7,43.686,11.511c14.354,4.56,28.526,9.763,42.197,16.145c13.609,6.444,26.941,13.811,38.597,23.577
			c5.786,4.895,11.19,10.354,15.533,16.68c2.169,3.135,4.05,6.583,5.538,10.041c1.545,3.471,2.965,6.966,4.243,10.532
			c2.567,7.118,4.64,14.428,6.072,21.875c1.436,7.445,2.265,15.009,2.528,22.598c0.508,15.187-1.513,30.436-5.531,45.094
			c-4.006,14.675-9.923,28.79-17.142,42.15c-7.202,13.384-15.741,26-25.078,37.942c-18.754,23.864-40.712,44.947-64.028,64.13
			c-11.645,9.71-24.271,18.499-37.527,26.023c-13.272,7.534-27.211,13.89-41.581,19.016c-14.385,5.09-29.193,8.93-44.19,11.623
			c-14.999,2.686-30.196,4.235-45.415,4.558c-15.217,0.352-30.448-0.4-45.548-2.23c-7.549-0.918-15.067-2.096-22.529-3.57
			c-7.458-1.494-14.859-3.275-22.183-5.336c-7.322-2.066-14.573-4.405-21.696-7.099c-7.118-2.708-14.125-5.724-20.962-9.105
			c-6.839-3.375-13.514-7.114-19.9-11.326c-3.194-2.103-6.322-4.313-9.362-6.648c-2.991-2.307-5.971-4.716-8.854-7.161
			c-11.578-9.811-22.235-20.725-31.511-32.71c-9.262-11.988-17.15-25.025-23.25-38.84c-6.051-13.827-10.455-28.378-12.641-43.283
			C2.526,214.022,2.234,198.798,4.67,183.936z M5.559,184.08c-2.269,14.767-1.935,29.892,0.519,44.606
			c2.526,14.709,7.069,29.065,13.56,42.464c3.225,6.707,6.882,13.198,10.935,19.426c4.069,6.217,8.519,12.175,13.291,17.853
			c9.55,11.357,20.377,21.585,32.048,30.693c23.053,18.582,50.811,30.047,79.282,37.665c28.577,7.416,58.235,10.838,87.745,9.908
			c14.75-0.484,29.468-1.92,43.982-4.507c14.515-2.578,28.815-6.304,42.716-11.157c13.913-4.814,27.412-10.816,40.282-17.959
			c12.887-7.157,25.04-15.448,36.523-24.813c11.598-9.311,22.816-19.083,33.493-29.404c10.689-10.304,20.848-21.15,30.235-32.617
			c9.402-11.45,18.006-23.555,25.445-36.342c7.418-12.789,13.607-26.319,17.907-40.464c4.282-14.136,6.642-28.887,6.542-43.689
			c-0.054-14.803-2.774-29.578-7.676-43.581c-1.232-3.496-2.619-6.956-4.104-10.34c-1.461-3.433-3.18-6.596-5.257-9.641
			c-4.125-6.066-9.326-11.407-15.019-16.125c-5.698-4.728-11.87-8.896-18.272-12.668c-6.401-3.782-13.06-7.142-19.864-10.171
			c-13.604-6.08-27.719-11.02-42.06-15.121c-14.337-4.129-28.903-7.445-43.569-10.168c-29.341-5.421-59.085-8.518-88.84-9.625
			c-7.439-0.271-14.883-0.395-22.32-0.357c-7.438,0.027-14.872,0.156-22.294,0.499c-7.421,0.336-14.83,0.852-22.209,1.584
			c-7.383,0.698-14.739,1.608-22.041,2.785c-7.306,1.151-14.558,2.582-21.71,4.34c-7.155,1.742-14.212,3.84-21.046,6.443
			c-3.361,1.278-6.835,2.783-10.225,4.252c-3.4,1.491-6.796,2.994-10.152,4.576c-6.72,3.152-13.327,6.535-19.779,10.189
			c-12.912,7.283-25.229,15.668-36.43,25.416c-5.601,4.869-10.922,10.067-15.906,15.583c-4.966,5.532-9.592,11.377-13.831,17.501
			c-8.531,12.223-15.306,25.651-20.61,39.614C11.572,154.719,7.941,169.307,5.559,184.08z"/>
	</g>
</g>
</svg>
