<?xml version="1.0" encoding="utf-8"?>
<!-- Generator: Adobe Illustrator 16.0.0, SVG Export Plug-In . SVG Version: 6.00 Build 0)  -->
<!DOCTYPE svg PUBLIC "-//W3C//DTD SVG 1.1//EN" "http://www.w3.org/Graphics/SVG/1.1/DTD/svg11.dtd">
<svg version="1.1" id="Layer_1" xmlns="http://www.w3.org/2000/svg" xmlns:xlink="http://www.w3.org/1999/xlink" x="0px" y="0px"
	 width="83.5px" height="81.5px" viewBox="0 0 83.5 81.5" enable-background="new 0 0 83.5 81.5" xml:space="preserve">
<g id="orange_1">
	<path fill="#F16724" stroke="#000000" stroke-miterlimit="10" d="M69.751,14.316c4.7,5.359,8.435,11.664,9.91,20.326
		c2.424,14.213-5.31,27.238-8.705,31.233c-6.272,7.378-14.472,13.147-28.837,13.147c-29.796,0-38.844-24.642-39.888-34.059
		c-1.014-9.158,1.41-18.591,5.056-24.275c5.896-9.172,14.272-16.324,27.969-17.471C53.096,1.727,63.954,8.582,69.751,14.316z"/>
	<path fill="#010101" d="M31.881,16.178c-2.493-0.597-5.516-0.251-7.821,0.274c-1.753,0.399-6.729,2.981-6.427,2.737
		c2.717-2.197,6.652-3.967,11.335-4.141c1.188-3.07,4.555-4.672,7.787-4.22c0.435,0.062,1.571,0.78,2.058,1.034
		c2.261-1.995,6.819-3.608,10.74-2.008c0.233,0.092-6.65-1.68-10.579,3.576c-0.871,1.166-2.207,2.133-3.556,2.594
		C34.92,16.197,32.601,16.352,31.881,16.178z"/>
	<path fill="#3CB44A" d="M36.983,11.338c0.173,0.062,1.116,0.838,1.337,1.048c-0.61,0.507-1.404,2.664-5.19,2.562
		c-0.887-0.024-1.973-0.182-3.211,0.104C30.509,13.927,33.313,10.005,36.983,11.338z"/>
	<path opacity="0.1" fill="#FFFFFF" enable-background="new    " d="M26.48,40.395c-2.211,7.77-8.262,12.851-13.521,11.354
		c-5.255-1.496-7.721-9.005-5.513-16.771c2.21-7.767,8.263-12.85,13.518-11.353C26.224,25.121,28.692,32.632,26.48,40.395z"/>
	<path opacity="0.02" fill="#010101" enable-background="new    " d="M71.462,16.613c0.263,0.304,3.688,31.701-24.83,46.287
		c-17.141,8.768-37.176-1.092-37.176-1.092s15.773,23.387,43.299,15.43c27.529-7.961,27.47-32.805,26.683-41.229
		C78.787,29.057,71.462,16.613,71.462,16.613z"/>
</g>
</svg>
