<?xml version="1.0" encoding="utf-8"?>
<!-- Generator: Adobe Illustrator 16.0.0, SVG Export Plug-In . SVG Version: 6.00 Build 0)  -->
<!DOCTYPE svg PUBLIC "-//W3C//DTD SVG 1.1//EN" "http://www.w3.org/Graphics/SVG/1.1/DTD/svg11.dtd">
<svg version="1.1" id="Silverware" xmlns="http://www.w3.org/2000/svg" xmlns:xlink="http://www.w3.org/1999/xlink" x="0px" y="0px"
	 width="90.667px" height="328.667px" viewBox="-5.667 -3.333 90.667 328.667"
	 enable-background="new -5.667 -3.333 90.667 328.667" xml:space="preserve">
<linearGradient id="SVGID_1_" gradientUnits="userSpaceOnUse" x1="-67.0068" y1="474.9043" x2="-223.5383" y2="384.5306" gradientTransform="matrix(1 0 0 1 182 -271)">
	<stop  offset="0" style="stop-color:#F2F2F2"/>
	<stop  offset="1" style="stop-color:#808080"/>
</linearGradient>
<path fill="url(#SVGID_1_)" stroke="#000000" stroke-miterlimit="10" d="M40.638,322.001c-5.652,0-10.25-4.213-10.25-9.392V148.392
	c0-2.037,0.709-3.981,2.051-5.621c2.051-3.093,3.15-6.71,3.15-10.42c0-5.86-3.06-11.564-8.186-15.257
	c-0.972-0.507-2.015-1.135-3.042-1.83c-0.043-0.021-0.083-0.049-0.119-0.081C10.207,105.614,1.138,84.549,1.138,61.5
	c0-32.533,17.72-59,39.5-59c21.781,0,39.5,26.467,39.5,59c0,23.015-9.041,44.052-23.046,53.642
	c-0.036,0.041-0.084,0.076-0.137,0.103l-0.095,0.049c-0.975,0.665-2.021,1.294-3.053,1.838c-5.062,3.658-8.123,9.361-8.123,15.22
	c0,3.708,1.098,7.323,3.172,10.453c1.316,1.602,2.029,3.548,2.029,5.588V312.61C50.889,317.788,46.29,322.001,40.638,322.001z"/>
<g>
	<path fill="#828282" d="M40.186,7.763c20.06-0.061,36.386,24.253,36.466,54.309c0.08,30.055-16.113,54.469-36.174,54.53
		c-20.059,0.061-36.386-24.255-36.467-54.31C3.931,32.237,20.126,7.824,40.186,7.763z"/>
	<path fill="#868686" d="M39.582,10.212c19.523-0.142,35.501,23.417,35.689,52.621c0.188,29.204-15.483,52.994-35.007,53.137
		c-19.521,0.143-35.5-23.417-35.688-52.621C4.388,34.145,20.061,10.355,39.582,10.212z"/>
	<path fill="#8A8A8A" d="M38.979,12.663c18.986-0.224,34.615,22.579,34.912,50.932c0.297,28.354-14.854,51.521-33.839,51.743
		c-18.984,0.224-34.614-22.58-34.911-50.933C4.846,36.052,19.995,12.886,38.979,12.663z"/>
	<path fill="#8E8E8E" d="M38.377,15.113c18.448-0.305,33.729,21.742,34.135,49.245c0.402,27.502-14.224,50.044-32.672,50.349
		C21.393,115.012,6.11,92.964,5.706,65.462C5.303,37.959,19.93,15.418,38.377,15.113z"/>
	<path fill="#929292" d="M37.774,17.562c17.912-0.386,32.844,20.905,33.355,47.557c0.512,26.652-13.592,48.569-31.503,48.955
		c-17.91,0.387-32.844-20.905-33.355-47.556S19.864,17.949,37.774,17.562z"/>
	<path fill="#969696" d="M37.171,20.013c17.374-0.468,31.959,20.068,32.578,45.868c0.62,25.8-12.961,47.094-30.335,47.562
		C22.042,113.91,7.456,93.374,6.836,67.574C6.217,41.774,19.799,20.48,37.171,20.013z"/>
	<path fill="#9A9A9A" d="M36.568,22.463c16.836-0.549,31.073,19.23,31.8,44.18c0.728,24.949-12.33,45.619-29.167,46.168
		C22.366,113.36,8.129,93.58,7.4,68.631C6.674,43.682,19.732,23.012,36.568,22.463z"/>
	<path fill="#9E9E9E" d="M35.966,24.913c16.298-0.631,30.188,18.393,31.022,42.491c0.835,24.099-11.701,44.145-28,44.775
		C22.691,112.811,8.801,93.785,7.966,69.687C7.132,45.589,19.667,25.543,35.966,24.913z"/>
	<path fill="#A2A2A2" d="M35.362,27.362c15.762-0.711,29.302,17.557,30.246,40.804c0.941,23.248-11.068,42.67-26.833,43.382
		C23.016,112.26,9.475,93.99,8.531,70.744C7.589,47.496,19.602,28.074,35.362,27.362z"/>
	<path fill="#A6A6A6" d="M34.76,29.812c15.225-0.793,28.417,16.72,29.467,39.115c1.051,22.396-10.438,41.195-25.663,41.988
		S10.146,94.195,9.096,71.8C8.047,49.403,19.535,30.605,34.76,29.812z"/>
	<path fill="#AAAAAA" d="M34.157,32.263c14.687-0.875,27.53,15.882,28.688,37.427c1.155,21.546-9.812,39.721-24.498,40.595
		S10.819,94.401,9.66,72.855C8.503,51.311,19.47,33.137,34.157,32.263z"/>
	<path fill="#AEAEAE" d="M33.554,34.712C47.703,33.756,60.2,49.757,61.465,70.451c1.268,20.695-9.178,38.245-23.327,39.201
		c-14.149,0.956-26.646-15.045-27.912-35.74C8.961,53.218,19.404,35.668,33.554,34.712z"/>
	<path fill="#B2B2B2" d="M32.951,37.162c13.611-1.037,25.76,14.208,27.133,34.051c1.375,19.845-8.547,36.771-22.159,37.808
		c-13.611,1.037-25.76-14.208-27.134-34.052C9.418,55.125,19.339,38.199,32.951,37.162z"/>
	<path fill="#B6B6B6" d="M32.348,39.612c13.075-1.119,24.875,13.371,26.355,32.363c1.482,18.992-7.916,35.294-20.991,36.413
		c-13.074,1.119-24.875-13.372-26.356-32.364C9.875,57.032,19.272,40.73,32.348,39.612z"/>
	<path fill="#BABABA" d="M31.745,42.062c12.537-1.2,23.989,12.534,25.578,30.675c1.59,18.142-7.287,33.819-19.824,35.02
		C24.962,108.958,13.51,95.223,11.92,77.081C10.332,58.94,19.207,43.262,31.745,42.062z"/>
	<path fill="#BEBEBE" d="M31.143,44.512c12-1.281,23.104,11.696,24.8,28.987c1.697,17.291-6.656,32.345-18.656,33.626
		S14.183,95.428,12.485,78.138C10.789,60.847,19.142,45.792,31.143,44.512z"/>
	<path fill="#C2C2C2" d="M30.539,46.962C42.002,45.6,52.758,57.821,54.562,74.261c1.806,16.439-6.025,30.87-17.488,32.232
		c-11.463,1.363-22.218-10.86-24.023-27.3C11.246,62.755,19.075,48.324,30.539,46.962z"/>
	<path fill="#C6C6C6" d="M29.937,49.412c10.926-1.444,21.333,10.022,23.245,25.61c1.912,15.589-5.396,29.396-16.321,30.839
		c-10.925,1.444-21.333-10.022-23.246-25.611C11.703,64.662,19.01,50.855,29.937,49.412z"/>
	<path fill="#CACACA" d="M29.334,51.862c10.388-1.525,20.447,9.185,22.467,23.922c2.021,14.738-4.765,27.921-15.152,29.445
		c-10.389,1.525-20.447-9.186-22.469-23.923C12.16,66.569,18.944,53.387,29.334,51.862z"/>
	<path fill="#CECECE" d="M28.73,54.312c9.852-1.607,19.562,8.348,21.689,22.234c2.129,13.887-4.135,26.445-13.984,28.052
		c-9.852,1.607-19.562-8.349-21.691-22.234C12.618,68.477,18.879,55.917,28.73,54.312z"/>
	<path fill="#D2D2D2" d="M28.128,56.762c9.313-1.688,18.677,7.511,20.911,20.547c2.236,13.035-3.503,24.97-12.817,26.658
		c-9.312,1.688-18.676-7.513-20.912-20.547C13.075,70.385,18.812,58.449,28.128,56.762z"/>
	<path fill="#D6D6D6" d="M27.524,59.212c8.776-1.77,17.791,6.674,20.134,18.858c2.345,12.185-2.873,23.495-11.648,25.265
		c-8.776,1.769-17.791-6.675-20.136-18.859C13.532,72.291,18.747,60.98,27.524,59.212z"/>
	<path fill="#DADADA" d="M26.922,61.662c8.238-1.851,16.905,5.837,19.355,17.17c2.451,11.334-2.242,22.021-10.48,23.871
		c-8.239,1.851-16.905-5.838-19.357-17.171C13.99,74.198,18.682,63.512,26.922,61.662z"/>
	<path fill="#DEDEDE" d="M26.319,64.112c7.701-1.932,16.02,5,18.578,15.482c2.562,10.482-1.609,20.545-9.312,22.479
		c-7.702,1.932-16.021-5.001-18.58-15.482C14.446,76.106,18.616,66.042,26.319,64.112z"/>
	<path fill="#E2E2E2" d="M25.716,66.562c7.165-2.014,15.135,4.162,17.8,13.793c2.668,9.632-0.979,19.07-8.145,21.084
		c-7.165,2.013-15.135-4.164-17.802-13.795C14.904,78.014,18.55,68.574,25.716,66.562z"/>
	
		<ellipse transform="matrix(0.3013 0.9535 -0.9535 0.3013 102.0172 30.5925)" fill="#E6E6E6" cx="30.134" cy="84.909" rx="16.672" ry="12.585"/>
</g>
</svg>
