<?xml version="1.0" encoding="utf-8"?>
<!-- Generator: Adobe Illustrator 16.0.0, SVG Export Plug-In . SVG Version: 6.00 Build 0)  -->
<!DOCTYPE svg PUBLIC "-//W3C//DTD SVG 1.1//EN" "http://www.w3.org/Graphics/SVG/1.1/DTD/svg11.dtd">
<svg version="1.1" id="Layer_1" xmlns="http://www.w3.org/2000/svg" xmlns:xlink="http://www.w3.org/1999/xlink" x="0px" y="0px"
	 width="122.58px" height="116.584px" viewBox="0 0 122.58 116.584" enable-background="new 0 0 122.58 116.584"
	 xml:space="preserve">
<polygon id="colour_x5F_bottom" fill="#73CFFF" points="61.397,6.5 78.222,40.576 115.823,46.039 88.61,72.567 95.036,110.019 
	61.397,92.337 27.765,110.019 34.189,72.567 6.981,46.039 44.583,40.576 "/>
<polygon id="frame_x5F_bottom" fill="#001421" fill-opacity="0.2" stroke="#000000" stroke-width="2" stroke-miterlimit="10" points="
	61.397,6.5 78.222,40.576 115.823,46.039 88.61,72.567 95.036,110.019 61.397,92.337 27.765,110.019 34.189,72.567 6.981,46.039 
	44.583,40.576 "/>
<polygon id="colour" fill="#73CFFF" points="61.397,12.674 76.215,42.686 110.487,47.493 85.618,71.248 91.62,104.951 
	61.518,89.086 31.16,104.951 36.992,71.163 12.294,47.322 46.683,42.519 "/>
<polygon id="wash_1_" fill="#FFFFFF" fill-opacity="0.1" points="61.346,12.417 61.218,25.28 50.154,47.021 17.225,51.909 
	12.722,47.536 46.811,42.261 "/>
</svg>
