<?xml version="1.0" encoding="utf-8"?>
<!-- Generator: Adobe Illustrator 16.0.0, SVG Export Plug-In . SVG Version: 6.00 Build 0)  -->
<!DOCTYPE svg PUBLIC "-//W3C//DTD SVG 1.1//EN" "http://www.w3.org/Graphics/SVG/1.1/DTD/svg11.dtd">
<svg version="1.1" id="Layer_1" xmlns="http://www.w3.org/2000/svg" xmlns:xlink="http://www.w3.org/1999/xlink" x="0px" y="0px"
	 width="166.667px" height="150.666px" viewBox="0 0 166.667 150.666" enable-background="new 0 0 166.667 150.666"
	 xml:space="preserve">
<g id="collar">
	<path id="colour" fill="#A02A61" stroke="#000000" stroke-miterlimit="10" d="M79.423,32.806c17.683,0,24.452-12.113,26.646-27.242
		c-19.896,3.965-37.074,4.543-50.154-0.688C55.548,12.556,61.675,32.806,79.423,32.806z"/>
</g>
<g id="body">
	<path id="colour_2_" fill="#E83A8D" stroke="#000000" stroke-miterlimit="10" d="M134.428,63.33
		c11.893-5.12,20.323-12.077,28.837-22.772c-7.373-7.619-19.465-18.371-19.549-18.783c-0.778-3.812-15.986-9.084-31.791-14.56
		c-1.981-0.687-3.973-1.377-5.855-2.036C104.015,19.54,97.716,32.24,80.994,32.24c-16.724,0-23.023-12.698-25.077-27.062
		c-1.884,0.659-3.875,1.354-5.857,2.036c-15.808,5.478-29.622,10.738-30.413,14.56c-0.085,0.414-8.938,9.27-16.315,16.893
		c8.514,10.693,11.862,16.82,23.755,21.939c3.285-1.727,2.444-0.416,5.378-3.51c1.786-0.004,0.661,28.866,0.294,39.02
		c-0.83,23.059,0.331,16.996-2.705,40.578c13.078,6.027,23.667,7.804,38.524,8.535c14.292,0.709,38.685,0.662,52.48-2.115
		c6.799-1.371,13.385-3.643,19.326-6.417c-3.035-23.597-9.129-77.173-9.129-77.173S132.686,62.131,134.428,63.33z"/>
</g>
</svg>
