<?xml version="1.0" encoding="utf-8"?>
<!-- Generator: Adobe Illustrator 16.0.4, SVG Export Plug-In . SVG Version: 6.00 Build 0)  -->
<!DOCTYPE svg PUBLIC "-//W3C//DTD SVG 1.1//EN" "http://www.w3.org/Graphics/SVG/1.1/DTD/svg11.dtd">
<svg version="1.1" id="Layer_1" xmlns="http://www.w3.org/2000/svg" xmlns:xlink="http://www.w3.org/1999/xlink" x="0px" y="0px"
	 width="63.694px" height="107.702px" viewBox="-0.25 -0.353 63.694 107.702" enable-background="new -0.25 -0.353 63.694 107.702"
	 xml:space="preserve">
<g id="frame1">
	<path opacity="0.6" fill="#E6F9FF" stroke="#000000" stroke-width="0.5" stroke-miterlimit="10" enable-background="new    " d="
		M21.321,16.75c2.521-1.049,5.36,0.394,7.226,2.072c3.853,3.469,5.805,8.876,7.097,13.755c0.669,2.524,1.146,5.134,1.197,7.752
		c0.036,1.853-0.099,3.922-1.052,5.562c-1.956,3.357-5.771,1.266-7.896-0.698c-2.258-2.081-4.043-4.672-5.567-7.317
		c-1.783-3.103-3.366-6.458-4.17-9.961C17.338,24.36,17.198,18.463,21.321,16.75C24.174,15.563,18.466,17.936,21.321,16.75z"/>
	<path opacity="0.6" fill="#E6F9FF" stroke="#000000" stroke-width="0.5" stroke-miterlimit="10" enable-background="new    " d="
		M44.197,0.213c2.462,0.613,4.278,2.711,5.329,4.922c1.849,3.884,1.812,8.468,1.184,12.631c-0.866,5.717-2.812,11.417-5.352,16.604
		c-1.874,3.83-4.291,8.081-7.937,10.499c-2.604,1.729-5.659,1.576-7.576-1.059c-2.42-3.327-2.708-8.111-2.724-12.069
		c-0.021-5.685,0.833-11.479,2.416-16.937c1.201-4.155,3.04-8.389,6.169-11.47C37.874,1.2,41.064-0.566,44.197,0.213
		C48.448,1.271,39.947-0.844,44.197,0.213z"/>
	<path opacity="0.6" fill="#E6F9FF" stroke="#000000" stroke-width="0.5" stroke-miterlimit="10" enable-background="new    " d="
		M21.321,89.754c2.521,1.052,5.36-0.394,7.226-2.069c3.853-3.471,5.805-8.877,7.097-13.757c0.669-2.524,1.146-5.135,1.197-7.752
		c0.036-1.853-0.099-3.922-1.052-5.562c-1.957-3.356-5.771-1.266-7.896,0.697c-2.258,2.08-4.043,4.672-5.567,7.314
		c-1.783,3.104-3.366,6.458-4.17,9.96C17.338,82.146,17.198,88.042,21.321,89.754C24.174,90.94,18.466,88.567,21.321,89.754z"/>
	<path opacity="0.6" fill="#E6F9FF" stroke="#000000" stroke-width="0.5" stroke-miterlimit="10" enable-background="new    " d="
		M44.197,106.292c2.462-0.611,4.278-2.711,5.329-4.922c1.849-3.887,1.812-8.469,1.184-12.631
		c-0.866-5.719-2.812-11.417-5.352-16.604c-1.874-3.827-4.291-8.079-7.937-10.497c-2.604-1.729-5.659-1.576-7.576,1.059
		c-2.42,3.326-2.708,8.111-2.724,12.07c-0.021,5.687,0.833,11.479,2.416,16.938c1.201,4.152,3.041,8.389,6.169,11.471
		C37.874,105.306,41.064,107.073,44.197,106.292C48.448,105.233,39.947,107.351,44.197,106.292z"/>
</g>
<g id="frame2" display="none">
	
		<path display="inline" opacity="0.6" fill="#E6F9FF" stroke="#000000" stroke-width="0.5" stroke-miterlimit="10" enable-background="new    " d="
		M30.012,15.883c2.729-0.073,4.861,2.292,5.999,4.528c2.349,4.62,2.229,10.367,1.684,15.385c-0.28,2.596-0.771,5.204-1.664,7.666
		c-0.631,1.742-1.5,3.625-2.979,4.812c-3.031,2.432-5.841-0.891-7.121-3.485c-1.356-2.753-2.096-5.812-2.568-8.829
		c-0.551-3.535-0.821-7.236-0.313-10.794C23.564,21.556,25.549,16.001,30.012,15.883C33.103,15.8,26.923,15.965,30.012,15.883z"/>
	
		<path display="inline" opacity="0.6" fill="#E6F9FF" stroke="#000000" stroke-width="0.5" stroke-miterlimit="10" enable-background="new    " d="
		M30.53-0.094c2.537,0.019,4.797,1.632,6.337,3.534c2.708,3.343,3.745,7.808,4.11,12.001c0.499,5.761-0.057,11.76-1.309,17.396
		c-0.924,4.163-2.276,8.862-5.251,12.066c-2.127,2.292-5.132,2.86-7.613,0.749c-3.133-2.667-4.535-7.251-5.478-11.095
		c-1.356-5.52-1.884-11.354-1.623-17.03c0.191-4.32,0.986-8.867,3.307-12.597C24.616,2.347,27.302-0.118,30.53-0.094
		C34.91-0.063,26.15-0.126,30.53-0.094z"/>
	
		<path display="inline" opacity="0.6" fill="#E6F9FF" stroke="#000000" stroke-width="0.5" stroke-miterlimit="10" enable-background="new    " d="
		M29.949,91.121c2.729,0.086,4.869-2.272,6.018-4.504c2.366-4.61,2.269-10.359,1.741-15.379c-0.272-2.601-0.752-5.208-1.634-7.673
		c-0.625-1.743-1.486-3.631-2.963-4.822c-3.021-2.442-5.844,0.867-7.133,3.459c-1.369,2.746-2.118,5.804-2.603,8.816
		c-0.564,3.532-0.853,7.23-0.357,10.791C23.523,85.424,25.487,90.987,29.949,91.121C33.039,91.217,26.86,91.026,29.949,91.121z"/>
	
		<path display="inline" opacity="0.6" fill="#E6F9FF" stroke="#000000" stroke-width="0.5" stroke-miterlimit="10" enable-background="new    " d="
		M30.367,107.099c2.535-0.002,4.807-1.6,6.357-3.49c2.732-3.325,3.802-7.78,4.197-11.974c0.538-5.758,0.022-11.759-1.188-17.405
		c-0.896-4.168-2.215-8.877-5.167-12.103c-2.11-2.308-5.11-2.896-7.606-0.801c-3.151,2.646-4.584,7.219-5.557,11.057
		c-1.395,5.513-1.961,11.343-1.74,17.021c0.164,4.32,0.927,8.875,3.219,12.619C24.471,104.615,27.139,107.099,30.367,107.099
		C34.749,107.097,25.988,107.099,30.367,107.099z"/>
</g>
<g id="body">
	<path d="M50.383,56.118c0.052-0.213,0.103-0.428,0.147-0.641c3.312,0.771,6.511,2.412,9.135,4.564
		c0.631,0.52,1.229,1.07,1.78,1.672c0.377,0.409,0.416,0.371,0.938,0.469c0.353,0.062,0.687,0.241,0.875,0.553
		c0.859,1.396-1.486,2.619-2.182,1.113c-0.157-0.345-0.147-0.752,0.025-1.086c0.229-0.433-0.094-0.568-0.428-0.914
		c-0.605-0.634-1.269-1.211-1.964-1.74c-1.205-0.916-2.518-1.688-3.88-2.344c-1.021-0.488-2.077-0.914-3.153-1.269
		C51.308,56.376,50.788,56.118,50.383,56.118z M50.233,51.321c0.347,0,0.829-0.286,1.143-0.407c1.022-0.403,2.022-0.873,2.989-1.402
		c1.229-0.673,2.41-1.446,3.497-2.333c0.599-0.487,1.164-1.008,1.691-1.566c0.271-0.286,0.532-0.583,0.781-0.889
		c0.125-0.155,0.248-0.312,0.367-0.471c-0.229-0.222-0.357-0.526-0.368-0.842c-0.041-1.584,2.409-1.663,2.459-0.078
		c0.021,0.669-0.521,1.247-1.188,1.267c-0.624,0.734-1.307,1.419-2.021,2.062c-2.619,2.344-5.785,4.271-9.162,5.287
		C50.358,51.74,50.295,51.531,50.233,51.321z"/>
	<path fill="#FFCD03" d="M40.485,41.633c-1.941,0-3.771,0.479-5.383,1.314c-3.04-2.398-7.119-3.879-11.617-3.879
		C14.094,39.068,0,46.611,0,53.361c0,6,14.099,14.292,23.484,14.292c4.498,0,8.575-1.479,11.616-3.877
		c1.611,0.836,3.439,1.314,5.384,1.314c6.479,0,11.729-5.252,11.729-11.731C52.213,46.884,46.961,41.633,40.485,41.633z"/>
	<path d="M46.582,57.271c0.793-1.221,2.708-3.599,4.465-3.01c2.166,0.725,0.261,4.551-0.443,5.633
		c-0.797,1.222-2.71,3.598-4.47,3.008C43.969,62.178,45.877,58.353,46.582,57.271C48.09,54.958,45.073,59.582,46.582,57.271z"/>
	<path d="M46.582,49.5c-0.705-1.081-2.613-4.907-0.448-5.631c1.76-0.588,3.673,1.789,4.47,3.008
		c0.704,1.081,2.609,4.908,0.443,5.632C49.29,53.097,47.375,50.72,46.582,49.5C45.073,47.188,48.09,51.812,46.582,49.5z"/>
	<path fill="#49312F" d="M36.766,38.182L36.766,38.182L36.766,38.182z"/>
	<path fill="#49312F" d="M22.684,39.089c-2.125,0.092-4.453,0.538-6.783,1.251c-0.963,3.11-2.009,7.483-2.009,11.828
		c0,5.479,1.1,10.632,2.074,14.132c2.303,0.75,4.6,1.229,6.698,1.331c-0.812-2.354-2.771-8.729-2.771-15.463
		C19.891,46.797,21.913,41.073,22.684,39.089z"/>
	<path fill="#49312F" d="M10.125,42.658c-3.396,1.702-6.385,3.863-8.22,6.15c-0.153,1.082-0.243,2.204-0.243,3.359
		c0,2.039,0.189,3.956,0.495,5.739c1.857,2.131,4.745,4.231,8.009,5.938c-1.229-2.777-2.503-6.82-2.503-11.68
		C7.663,48.432,8.916,45.054,10.125,42.658z"/>
	<path fill="#49312F" d="M35.127,42.936c-0.009,0.004-0.019,0.007-0.024,0.013c-1.553-1.225-3.375-2.204-5.387-2.875
		c-0.969,3.114-2.032,7.529-2.032,11.912c0,5.74,1.203,11.113,2.211,14.608c1.938-0.669,3.699-1.629,5.207-2.815
		c0.091,0.049,0.188,0.082,0.278,0.125c-0.822-3.09-1.697-7.42-1.697-11.917C33.682,48.808,34.391,45.514,35.127,42.936z"/>
	<path fill="none" stroke="#000000" stroke-width="0.5" stroke-miterlimit="10" d="M40.485,41.633c-1.941,0-3.771,0.479-5.383,1.314
		c-3.04-2.398-7.119-3.879-11.617-3.879C14.094,39.068,0,46.611,0,53.361c0,6,14.099,14.292,23.484,14.292
		c4.498,0,8.575-1.479,11.616-3.877c1.611,0.836,3.439,1.314,5.384,1.314c6.479,0,11.729-5.252,11.729-11.731
		C52.213,46.884,46.961,41.633,40.485,41.633z"/>
</g>
</svg>
