<?xml version="1.0" encoding="utf-8"?>
<!-- Generator: Adobe Illustrator 16.0.0, SVG Export Plug-In . SVG Version: 6.00 Build 0)  -->
<!DOCTYPE svg PUBLIC "-//W3C//DTD SVG 1.1//EN" "http://www.w3.org/Graphics/SVG/1.1/DTD/svg11.dtd">
<svg version="1.1" id="Layer_1" xmlns="http://www.w3.org/2000/svg" xmlns:xlink="http://www.w3.org/1999/xlink" x="0px" y="0px"
	 width="98.576px" height="98.577px" viewBox="0 0 98.576 98.577" enable-background="new 0 0 98.576 98.577" xml:space="preserve">
<path id="colour" fill="#975123" d="M91.576,49.294c0,23.35-18.936,42.283-42.285,42.283C25.934,91.577,7,72.644,7,49.294
	C7,25.935,25.934,7.001,49.291,7.001C72.641,7.001,91.576,25.935,91.576,49.294z"/>
<g id="frame">
	<path fill="#939292" d="M49.312,7C72.179,7,90.998,25.256,91.563,48.254c0.574,23.344-17.889,42.736-41.231,43.311
		c-0.354,0.009-0.708,0.013-1.06,0.013c-22.876,0-41.694-18.253-42.26-41.243C6.438,26.982,24.9,7.588,48.252,7.014
		C48.605,7.005,48.96,7,49.312,7 M49.313,4v3V4h-0.002c-0.376,0-0.756,0.005-1.134,0.014c-12.095,0.297-23.349,5.287-31.69,14.049
		C8.146,26.826,3.716,38.312,4.014,50.408c0.293,11.894,5.147,23.017,13.669,31.317c8.508,8.288,19.727,12.852,31.59,12.852
		c0.376,0,0.755-0.004,1.133-0.014c24.963-0.614,44.771-21.422,44.157-46.383c-0.292-11.896-5.146-23.021-13.668-31.325
		C72.389,8.566,61.173,4,49.313,4L49.313,4z"/>
</g>

</svg>
