<?xml version="1.0" encoding="utf-8"?>
<!-- Generator: Adobe Illustrator 16.0.0, SVG Export Plug-In . SVG Version: 6.00 Build 0)  -->
<!DOCTYPE svg PUBLIC "-//W3C//DTD SVG 1.1//EN" "http://www.w3.org/Graphics/SVG/1.1/DTD/svg11.dtd">
<svg version="1.1" id="Layer_1" xmlns="http://www.w3.org/2000/svg" xmlns:xlink="http://www.w3.org/1999/xlink" x="0px" y="0px"
	 width="250.623px" height="513.988px" viewBox="0 0 250.623 513.988" enable-background="new 0 0 250.623 513.988"
	 xml:space="preserve">
<g id="body">

		<line fill="none" stroke="#000100" stroke-width="5.6693" stroke-linecap="round" stroke-linejoin="round" x1="158.271" y1="391.432" x2="155.713" y2="478.042"/>

		<line fill="none" stroke="#000100" stroke-width="5.6693" stroke-linecap="round" stroke-linejoin="round" x1="195.371" y1="391.414" x2="196.112" y2="478.06"/>
	<path fill="#BED730" stroke="#000100" stroke-width="2.8347" stroke-linecap="round" stroke-linejoin="round" d="M137.914,297.826
		c-1.634-0.113-2.547-0.266-2.535-0.457c-0.131,2.332-0.756,4.225-0.459,6.488c0.371,2.781,0.996,5.473,0.812,8.385
		c-1.119,17.59-3.229,35.021-4.17,52.686c-0.438,8.262-0.903,30.008-1.774,32.449c2,0.418,39.008,1.5,42.646,1.637
		c4.709,0.172,5.865-0.387,6.412-3.479c1.084-6.166,1.141-13.926,1.252-7.418c0.062,3.477,0.965,7.635,2.402,10.852
		c7.877-0.984,45.047-1.729,48.506-0.881c0.34-2.908,0.168-5.725-0.096-8.568c-4.129-44.588-15.057-89.312-14.561-92.364
		C216.461,296.501,150.431,298.697,137.914,297.826z"/>
	<polyline fill="none" stroke="#000100" stroke-linecap="round" stroke-linejoin="round" points="131.817,354.943 141.817,355.277
		140.485,384.943 129.817,384.943 	"/>
	<polyline fill="none" stroke="#000100" stroke-linecap="round" stroke-linejoin="round" points="227.483,354.943 217.483,355.277
		218.817,384.943 229.483,384.943 	"/>

		<line fill="none" stroke="#000100" stroke-width="3" stroke-linecap="round" stroke-linejoin="round" x1="180.099" y1="387.119" x2="179.922" y2="352.173"/>
	<path fill="#000100" d="M242.582,318.824c0.039-0.33,0.035-0.93-0.078-1.457c-0.457-4.268-3.146-4.666-6.012-5.729
		c-3.685-1.355-9.188,0.973-9.472,1.071l-11.533,7.922c-0.688,0.25-0.883,1.011-0.438,1.688c0.441,0.686,1.359,1.035,2.048,0.785
		l11.104-7.767l0.939,0.261l-12.326,19.854c-0.404,0.539-0.158,1.371,0.551,1.857c0.426,0.295,0.914,0.397,1.332,0.323
		c0.279-0.051,0.525-0.186,0.691-0.399l12.995-20.41c0.093-0.123,0.142-0.271,0.166-0.422c0.429,0.078,0.82,0.16,1.166,0.25
		l-13.389,24.797c-0.316,0.592,0.038,1.416,0.791,1.84c0.391,0.225,0.812,0.293,1.168,0.229c0.336-0.061,0.616-0.233,0.771-0.522
		l13.312-24.66c0.731,1.215,0.409,0.092,0.271,0.646l-9.381,21.164c-0.232,0.635,0.062,1.469,0.846,1.824
		c0.351,0.158,0.705,0.203,1.017,0.145c0.389-0.067,0.696-0.293,0.825-0.645l8.673-20.252l0.709,0.215l-4.396,15.756
		c-0.078,0.64,0.062,0.896,0.812,1.117c0.243,0.066,0.479,0.08,0.688,0.043c0.434-0.08,0.758-0.373,0.812-0.803l5.28-18.295
		c0-0.062,0.015-0.107,0.019-0.17L242.582,318.824z"/>
	<path fill="none" stroke="#000100" stroke-width="4.252" stroke-linecap="round" stroke-linejoin="round" d="M230.485,222.61
		c0,0,11.304,32.372,13,46c1.382,11.093-5.5,45.5-5.5,45.5"/>
	<path fill="none" stroke="#000100" stroke-width="4" stroke-linecap="round" stroke-linejoin="round" d="M119.986,218.61
		c0,0-4,51.833-9.5,68.333c-1.768,5.305-40,5.666-40,5.666"/>
	<path fill="#000100" d="M178.317,153.217c0,2.104-2.088,3.81-4.666,3.81l0,0c-2.575,0-4.666-1.706-4.666-3.81v-9.797
		c0-2.104,2.091-1.81,4.666-1.81v-1c2.578,0,4.666,0.706,4.666,2.81V153.217z"/>
	<path fill="#C63EB3" stroke="#000100" stroke-width="2.8347" stroke-linecap="round" stroke-linejoin="round" d="M168.983,149.7
		c-4.428,2.13-33.539,7.477-41.354,13.142c-8.562,6.212-21.122,52.952-23.144,55.437c6.643,2.277,27.928,6.479,34.033,9.455
		c4.119-9.847,4.119-16.227,4.119-16.227c0.44,1.458-0.812,12.58-1.392,16.556c-4.709,32.38-9.115,78.626-9.519,78.607
		c17.854,0.848,29.688,0.168,47.646,0.686c22.316,0.646,30.605-1.237,41.586-0.674c0.127-0.096,1.25-0.188,1.367-0.279
		c-2.381-4.461-4.656-49.55-11.312-79.727c-2.246-10.178-0.646-4.14,2.787,0.926c10.283-5.899,20.52-7.874,31.527-13.102
		c-2.438-1.971-17.594-49.508-37.959-55.427c-5.729-1.667-18.744-6.723-28.895-8.798C176.078,160.806,168.233,154.478,168.983,149.7
		z"/>

		<circle id="colour" fill="#00FF00" stroke="#000100" stroke-width="3" stroke-miterlimit="10" cx="175.953" cy="79.926" r="60.814"/>
	<g>
		<circle fill="#000100" stroke="#000100" stroke-width="3" cx="190.237" cy="65.277" r="2.561"/>
		<circle fill="#000100" stroke="#000100" stroke-width="3" cx="158.06" cy="65.277" r="2.563"/>
	</g>
	<path d="M240.006,77.093c-0.479-6.014,12.39-18.119,2.136-27.963c-0.224-0.212-1.938-5.308-2.236-4.788c-0.271,0.805-0.5,0.87,0,0
		c0.463-1.367,1.037-4.865-1.66-9.568c-1.391-2.423-5.809-5.938-7.742-5.896c-1.385,0.03-2.896-12.303-26.336-16.663
		c-10.604-15.632-47.084-15.799-63.533-3.14c-6.254,4.814-17.416,5.373-17.416,5.373s-1.594,6.468,1.117,4.466
		c-2.711,2.001,0.312,0.212-6.143,5.025c-6.087,4.539-5.583,8.933-11.468,13.504c1.164-0.904,4.456,7.86-2.808,10.507
		c-2.436,0.888,0.616,5.538,0.596,10.966c-1.699,2.336-3.129,4.158-3.129,4.158s3.542-1.266,3.764,3.078
		c0.261,5.039-2.412,7.54,1.436,14.151c2.103,3.612,2.959,4.551,3.273,4.663c0.002,0.051,0.005,0.109,0.008,0.174
		c0.338,5.075,2.817,5.605,4.817,5.633c0.116,0.504,0.237,1.005,0.368,1.502l-0.295-1.501c0.406,0.003-0.253,4.069,0.088,4.069
		c-0.906-1.43-0.274-7.052-0.399-8.604c-0.011-0.8-0.004-1.587,0.011-2.368c0.287-3.545,1.612-6.866,1.605-8.701
		c-0.014-3.167,4.264-1.684,4.925-4.333c0.937-0.58,5.024-18.424,0.559-14.516c8.933-0.559-2.791-6.142,5.022,2.791
		c5.854-5.74,13.938-12.166,22.334-15.074c2.457-0.851,1.031-5.912,3.908-6.142c-2.787,4.293,15.418,3.255,20.1,0
		c7.85-8.606,15.475-7.036,20.656-10.049c-1.564,3.649,2.649,9.679,6.145,12.841c7.75,4.67,16.133,7.284,13.156,3.25
		c5.055,3.368,5.516,4.536,7.496,10.708c1.438-2.343,8.312,4.174,7.262,0c8.211,5.942,8.275,22.127,7.967,29.24
		c-0.135,3.074-0.904,10.467-2.242,12.517c2.92-4.476,6.437-8.543,7.115-12.167C241.979,76.17,240.397,81.994,240.006,77.093z"/>
	<path fill="#EF7822" stroke="#040404" stroke-width="4.252" stroke-linecap="round" stroke-linejoin="round" d="
		M173.258,511.861c4.813-11.478-4.797-26.84-16.123-33.488c0,0-38.133,5.229-47.938,14.037c-7.184,6.451-7.799,13.586-3.913,19.451
		H173.258L173.258,511.861z"/>
	<polygon fill="#040404" points="175.015,512.861 105.014,512.861 102.014,506.861 175.015,506.861 	"/>
	<path fill="#EF7822" stroke="#000100" stroke-width="4.252" stroke-linecap="round" stroke-linejoin="round" d="
		M179.379,511.861c-4.812-11.478,4.797-26.84,16.119-33.488c0,0,38.138,5.229,47.942,14.037c7.181,6.451,7.8,13.586,3.912,19.451
		H179.379L179.379,511.861z"/>
	<polygon fill="#040404" points="177.623,512.861 249.017,512.861 250.623,506.861 177.623,506.861 	"/>

		<path fill="none" stroke="#040404" stroke-width="4.252" stroke-linecap="round" stroke-linejoin="round" stroke-miterlimit="10" d="
		M136.836,479.337c8.188,1.979,10.563,11.049,10.563,11.049"/>

		<path fill="none" stroke="#040404" stroke-width="4.252" stroke-linecap="round" stroke-linejoin="round" stroke-miterlimit="10" d="
		M126.526,483.367c8.345,1.11,10.662,9.988,10.662,9.988"/>

		<path fill="none" stroke="#040404" stroke-width="4.252" stroke-linecap="round" stroke-linejoin="round" stroke-miterlimit="10" d="
		M217.08,479.337c-8.187,1.979-10.562,11.049-10.562,11.049"/>

		<path fill="none" stroke="#040404" stroke-width="4.252" stroke-linecap="round" stroke-linejoin="round" stroke-miterlimit="10" d="
		M227.392,483.367c-8.351,1.11-10.662,9.988-10.662,9.988"/>
</g>
<path id="smile_normal" d="M174.979,121.829c-10.188,0-18.996-5.158-25.726-11.494c-0.646-0.607-0.453-1.678,0.218-2.255
	c0.957-0.824,3.463,1.722,4.184,2.235c6.389,4.557,13.199,8.09,22.197,8.062c7.522-0.023,15.594-4.628,20.096-8.958
	c0.639-0.613,1.48-1.009,2.193-0.483c0.713,0.525,0.223,1.548-0.369,2.209c-5.08,5.683-12.371,10.419-21.818,10.671
	C175.627,121.824,175.304,121.829,174.979,121.829z"/>
<path id="smile_happy" fill="#000100" d="M167.683,120.896c-21.597-6.004-27.08-23.224-28.521-27.51l0,0
	c-0.289-0.829-0.055-1.84,0.523-2.25l0,0c0.584-0.415,1.289-0.076,1.578,0.753l0,0c1.489,4.143,6.036,19.72,26.862,25.709l0,0
	c2.045,0.578,4.207,0.874,6.424,0.874l0,0c12.642,0,26.724-9.541,31.486-28.633l0,0c0.217-0.873,0.894-1.328,1.5-1.013l0,0
	c0.61,0.312,0.93,1.27,0.709,2.147l0,0c-5.254,20.818-20.312,30.856-33.695,30.856l0,0
	C172.199,121.83,169.883,121.518,167.683,120.896L167.683,120.896z"/>
<path id="nothing" fill="#000100" d="M65.995,296.369c0.387-0.117,1.035-0.369,1.536-0.654c4.335-2.027,2.927-3.602,2.11-5.549
	c-1.048-2.496-7.373-4.406-7.677-4.506l-15.537-0.857c-0.745-0.254-1.704-0.041-2.141,0.48c-0.439,0.52-0.192,1.148,0.549,1.4
	l15.073,0.694l0.362,0.604l-30.1,1.877c-0.863,0.014-1.601,0.492-1.649,1.07c-0.029,0.346,0.192,0.646,0.562,0.834
	c0.245,0.125,0.562,0.192,0.912,0.188l31.172-1.763c0.197-0.008,0.39-0.041,0.572-0.09c0.207,0.256,0.388,0.496,0.532,0.719
	l-35.651,2.541c-0.863,0.084-1.515,0.609-1.463,1.188c0.027,0.302,0.242,0.55,0.559,0.707c0.295,0.152,0.346,0.271,1.102,0.188
	l35.446-2.523c-0.817,0.893,0.185,0.254-0.521,0.414l-29.45,2.969c-0.854,0.146-1.56,0.648-1.409,1.209
	c0.065,0.25,0.263,0.455,0.538,0.592c0.342,0.174,0.8,0.242,1.271,0.162l27.969-2.959l-2.823,0.621l-16.156,2.352
	c-0.745,0.23-2.802,0.851-1.556,1.697c0.151,0.105,0.243,0.285,0.427,0.379c0.383,0.191,0.926,0.238,1.428,0.086l23.509-3.914
	c0.065-0.02,0.128-0.032,0.195-0.061L65.995,296.369z"/>
<g id="banana">
	<g>
		<path fill="#FFE147" d="M99.998,236.219c-0.476,0.86-3.463,4.479-4.692,7.113c-10.699,22.915-33.847,34.585-57.648,23.72
			c-1.98-0.883-2.617-0.44-4.747,1.152c-1.066,0.799-2.07,3.543-1.266,5.875c6.271,12.963,19.013,16.104,31.363,16.371
			c29.199,1.121,52.867-30.392,44.926-48.495c-1.367-2.725-4.884-5.854-5.37-8.807c-0.364-2.205-1.442-6.096-2.145-7.238
			c-0.497-0.482-2.611,3.923-1.891,6.102C98.808,232.861,99.991,234.229,99.998,236.219z"/>
		<path fill="#000100" d="M100.025,236.235c-0.236,0.409-0.52,0.783-0.788,1.167l-0.815,1.144c-0.542,0.762-1.079,1.529-1.585,2.315
			c-0.504,0.786-0.988,1.588-1.384,2.428c-0.388,0.852-0.796,1.699-1.225,2.534c-1.721,3.339-3.773,6.511-6.148,9.429
			c-2.37,2.922-5.087,5.571-8.092,7.844c-3.003,2.275-6.304,4.17-9.809,5.566c-3.505,1.395-7.216,2.283-10.975,2.602
			c-3.76,0.328-7.561,0.074-11.252-0.662c-1.846-0.371-3.666-0.858-5.446-1.463c-0.892-0.301-1.772-0.629-2.644-0.979
			c-0.436-0.182-0.868-0.359-1.298-0.553l-0.644-0.283c-0.217-0.104-0.425-0.199-0.638-0.283c-0.424-0.172-0.865-0.312-1.309-0.312
			c-0.446-0.004-0.876,0.154-1.273,0.379c-0.4,0.228-0.779,0.496-1.157,0.771l-0.563,0.418c-0.175,0.131-0.328,0.299-0.465,0.479
			c-0.271,0.363-0.479,0.779-0.642,1.209c-0.162,0.435-0.275,0.884-0.345,1.339c-0.136,0.907-0.089,1.854,0.209,2.727l-0.003-0.012
			c1.174,2.459,2.704,4.75,4.568,6.733c1.859,1.988,4.046,3.666,6.433,4.978c2.388,1.312,4.96,2.265,7.595,2.938
			c2.638,0.683,5.34,1.084,8.055,1.312c1.358,0.109,2.719,0.178,4.082,0.209l1.025,0.023c0.337,0.01,0.678,0.012,1.017,0.012
			c0.68-0.004,1.359-0.021,2.037-0.062c2.713-0.146,5.407-0.578,8.035-1.264c5.262-1.361,10.243-3.734,14.708-6.826
			c2.234-1.545,4.341-3.271,6.306-5.148c1.964-1.875,3.782-3.899,5.424-6.063c1.641-2.164,3.112-4.457,4.352-6.871
			c1.238-2.413,2.242-4.946,2.928-7.57c0.682-2.616,1.03-5.333,0.875-8.03c-0.077-1.347-0.284-2.688-0.639-3.988
			c-0.176-0.651-0.391-1.291-0.64-1.917l-0.095-0.234l-0.094-0.218c-0.079-0.155-0.153-0.293-0.238-0.441
			c-0.166-0.291-0.347-0.574-0.534-0.855c-0.757-1.119-1.617-2.184-2.42-3.298c-0.401-0.558-0.791-1.128-1.14-1.729
			c-0.346-0.6-0.655-1.232-0.852-1.911c-0.048-0.17-0.09-0.341-0.123-0.516l-0.086-0.507c-0.059-0.333-0.126-0.667-0.198-0.999
			c-0.143-0.665-0.303-1.327-0.477-1.985c-0.177-0.659-0.366-1.312-0.578-1.958c-0.105-0.323-0.216-0.643-0.34-0.959
			c-0.124-0.312-0.253-0.627-0.419-0.908l0.021,0.026c-0.003-0.002,0.006,0.001,0.007,0c0,0-0.01,0-0.025,0.006
			c-0.028,0.012-0.07,0.04-0.106,0.075c-0.077,0.068-0.148,0.155-0.215,0.244c-0.136,0.181-0.253,0.38-0.362,0.582
			c-0.221,0.407-0.407,0.835-0.571,1.271c-0.317,0.872-0.558,1.787-0.585,2.711c-0.009,0.461,0.041,0.928,0.234,1.343
			c0.192,0.421,0.435,0.827,0.638,1.253c0.206,0.424,0.386,0.865,0.508,1.323c0.122,0.458,0.187,0.93,0.183,1.403v0.009
			L100.025,236.235z M99.966,236.21c-0.01-0.935-0.31-1.84-0.737-2.664c-0.21-0.418-0.457-0.816-0.664-1.246
			c-0.214-0.439-0.272-0.931-0.271-1.406c0.012-0.957,0.24-1.891,0.549-2.784c0.16-0.447,0.342-0.886,0.561-1.31
			c0.111-0.212,0.23-0.419,0.372-0.619c0.072-0.1,0.149-0.197,0.245-0.288c0.05-0.045,0.103-0.091,0.182-0.125
			c0.037-0.017,0.087-0.032,0.147-0.028c0.059,0.003,0.123,0.034,0.162,0.073l0.013,0.013l0.008,0.014
			c0.188,0.307,0.323,0.623,0.454,0.943c0.13,0.32,0.247,0.644,0.358,0.969c0.222,0.65,0.421,1.308,0.606,1.968
			c0.185,0.661,0.354,1.325,0.509,1.995c0.075,0.334,0.146,0.671,0.212,1.009l0.091,0.503c0.033,0.161,0.074,0.321,0.12,0.479
			c0.193,0.633,0.496,1.235,0.839,1.813c0.345,0.579,0.734,1.134,1.138,1.679c0.808,1.094,1.687,2.144,2.468,3.285
			c0.193,0.286,0.384,0.578,0.559,0.88c0.086,0.147,0.175,0.309,0.252,0.46c-0.001-0.002,0.018,0.034,0.021,0.042l0.013,0.029
			l0.025,0.059l0.052,0.12l0.101,0.24c0.263,0.642,0.487,1.299,0.674,1.966c0.374,1.334,0.598,2.708,0.688,4.089
			c0.182,2.763-0.154,5.541-0.828,8.213c-0.674,2.681-1.695,5.256-2.941,7.711c-1.252,2.455-2.729,4.791-4.393,6.979
			c-3.33,4.384-7.364,8.224-11.903,11.332c-4.532,3.105-9.587,5.492-14.924,6.851c-2.668,0.674-5.402,1.088-8.148,1.217
			c-0.687,0.033-1.374,0.05-2.062,0.045c-0.345,0-0.687-0.006-1.031-0.018l-1.023-0.033c-1.371-0.045-2.74-0.129-4.105-0.258
			c-2.729-0.261-5.448-0.701-8.101-1.41c-2.649-0.709-5.233-1.696-7.629-3.043c-2.396-1.336-4.6-3.028-6.467-5.043
			c-1.871-2.013-3.397-4.326-4.6-6.789l-0.002-0.006l-0.002-0.004c-0.315-0.906-0.369-1.888-0.233-2.824
			c0.069-0.474,0.186-0.938,0.351-1.383c0.166-0.445,0.379-0.882,0.666-1.271c0.144-0.192,0.309-0.381,0.508-0.529l0.564-0.42
			c0.379-0.276,0.76-0.561,1.177-0.791c0.414-0.233,0.891-0.418,1.39-0.42c0.497-0.004,0.971,0.144,1.411,0.312
			c0.224,0.088,0.439,0.188,0.651,0.279l0.643,0.277c0.431,0.184,0.863,0.356,1.298,0.526c0.87,0.34,1.75,0.651,2.638,0.938
			c1.775,0.573,3.587,1.041,5.419,1.389c1.833,0.344,3.687,0.562,5.547,0.652c1.859,0.092,3.726,0.053,5.578-0.117
			c1.854-0.174,3.693-0.479,5.503-0.906c1.81-0.43,3.586-1,5.317-1.684c3.463-1.359,6.73-3.217,9.711-5.447
			c2.984-2.234,5.677-4.85,8.071-7.712c2.39-2.866,4.462-5.998,6.219-9.295c0.442-0.825,0.861-1.658,1.266-2.504
			c0.42-0.848,0.921-1.646,1.441-2.427c0.522-0.779,1.073-1.54,1.632-2.292l0.844-1.124
			C99.437,236.973,99.724,236.604,99.966,236.21z"/>
	</g>
	<path fill="#F5E847" d="M102.793,238.921c-1.381-2.173-3.34,2.889-3.993,4.631c-1.074,5.301-1.597,6.48-4.396,11.033
		c-4.978,7.979-10.893,12.829-23.664,17.784c-0.917,0.283-1.731,0.684-2.653,0.988c-0.989,0.328-2.061,0.521-3.002,0.697
		c-1.283,0.241-2.561,0.547-3.863,0.795c-1.202,0.229-2.458,0.021-3.696,0.112c-1.591,0.117-2.975-0.116-4.514-0.396
		c-3.175-0.5-6.021-1.717-9.139-2.457c-1.902-0.915-3.464-1.038-5.474-0.321c-1.145,0.381-0.668,1.207-0.699,1.979
		c-0.041,1.017,2.049,2.994,2.667,3.64c4.168,5.256,14.512,8.637,27.89,7.59c12.293-1.084,17.318-4.108,23.128-10.938
		c5.876-5.586,11.032-13.787,13.031-21.836c-0.091-3.147,0.468-8.643-0.825-12.287C103.379,239.133,103.117,239.429,102.793,238.921
		z"/>
	<path fill="#FFCB08" d="M42.284,280.158c3.506,2.191,2.527,1.238,5.014,2.518c7.858,2.436,16.388,3.238,24.411,1.715
		c6.263-0.715,9.959-3.16,15.04-6.424c3.993-3.154,7.842-7.865,10.773-11.633c3.947-4.826,6.466-11.899,7.618-17.962
		c-0.082-2.647-0.018-4.244-0.385-6.893c-0.083-0.561-0.713-2.458-0.662-2.938c0.073-0.661,0.579,0.603,1.312,1.433
		c1.934,2.301,2.73,3.628,3.256,6.49c1.604,12.442-4.646,19.284-7.582,24.198c-8.871,13.152-23.607,18.24-33.144,18.9
		c-10.539,0.719-22.957-1.043-30.063-8.031c-1.507-1.482-2.671-3.068-3.894-4.883c-2.54-3.771-0.691-4.707,1.572-2.15
		C38.167,277.457,40.984,279.318,42.284,280.158z"/>
	<path opacity="0.14" fill="#9B4B21" enable-background="new    " d="M100.39,237.924c-0.982,1.495-2.912,7.315-3.569,8.922
		c-3.116,9.408-9.408,15.729-14.791,18.94c-11.152,6.653-21.012,9.582-32.144,7.471c-13.15-2.496-12.361-2.772,1.366,0.75
		c15.638,3.363,31.192-7.592,32.059-8.139c4.578-3.269,6.958-4.277,11.824-13.472C96.47,249.873,100.044,239.465,100.39,237.924z"/>
	<path opacity="0.33" fill="#9B4B21" enable-background="new    " d="M84.783,278.807c-9.183,7.014-25.429,7.534-36.559,3.879
		c-5.043-1.877-8.231-3.824-12.026-7.748c1.106,2.319,6.226,5.918,10.491,7.848c4.292,1.895,11.385,2.592,16.072,2.604
		c7.979-0.479,16.087-1.387,22.642-6.27c7.573-5.646,13.836-11.605,17.021-19.961c1.236-3.25,3.097-8.919,3.186-13.265
		c-0.117-2.731-0.147-4.659-1.346-7.155C106.539,248.602,102.4,265.393,84.783,278.807z"/>
	<path fill="#1D1D1B" d="M99.11,229.207c-0.127,0.299-0.103,1.266-0.113,1.39c-0.04,0.494,0.333,0.907,0.454,1.234
		c0.171,0.468,0.193-1.022,0.291-1.533c0.097-0.502,0.283-1.069,0.385-1.604c0.096-0.507,0.141-0.992,0.203-1.461
		C100.223,225.692,99.217,228.936,99.11,229.207z"/>
	<path fill="#3D2D21" d="M33.438,268.703c-0.336,0.16-0.557,0.959-0.464,2.107c0.072,0.901,1.631-0.701,2.445-1.054
		C36.182,266.455,34.312,268.169,33.438,268.703z"/>
	<path fill="#FFCB08" d="M99.169,232.507c0.207,0.584,0.531,1.567,0.654,2.319c0.081,0.488,0.174,0.811,0.12,1.305
		c-0.06,0.54,0.242-0.125,0.449-0.232c0.504-0.26,0.443,0.067,0.811,0.298c0.287,0.181,0.461,0.623,0.662,0.899
		c0.248,0.344,0.055-0.016,0.367-0.105c0.547-0.156-0.457-1.042-0.64-1.58c-0.098-0.284-0.198-0.569-0.281-0.855
		c-0.157-0.555-0.362-1.029-0.488-1.592c-0.149-0.654-0.829-0.989-0.976-1.632c-0.087-0.389,0.433-1.076,0.409-1.45
		c-0.023-0.386,0.162-0.637,0.106-0.971c-0.04-0.235,0.098-0.522,0.096-0.532c-0.176-0.681-0.645,1.111-0.812,1.794
		c-0.124,0.502-0.139,1.021-0.226,1.514C99.396,231.829,99.23,232.164,99.169,232.507z"/>
	<path fill="#F5E847" d="M36.643,267.748c0.571-0.025,1.773,0.465,2.562,0.836c6.318,2.643,13.443,4.057,21.504,3.4
		c-0.858,0.346-6.459,1.156-7.522,1.178c-3.931,0.076-9.161-2.035-13.421-2.904c-0.709-0.127-1.335-0.234-1.763-0.127
		c-0.397,0.102-1.305,0.404-1.518,0.754c-0.159,0.262-0.603,0.092-0.904,0.137c-0.681,0.104,0.848-1.096,1.141-1.719
		c0.128-0.273,0.168-0.561,0.263-0.857C37.069,268.182,36.735,267.936,36.643,267.748z"/>
	<path fill="#F5E847" d="M99.256,238.638c-0.613,0.251-1.344,1.586-1.804,2.514c-0.237,0.477-0.673,0.921-1.064,1.381
		c-0.426,0.501-0.67,1.448-0.953,2.001c-0.354,0.694-0.635,1.391-0.922,2.14c-0.298,0.78-0.714,1.58-1.091,2.294
		c-0.315,0.595-0.549,1.15-0.877,1.692c-0.229,0.375-0.487,0.797-0.662,1.084c-0.216,0.354,0.605-0.562,0.926-0.822
		c0.324-0.266,0.705-0.498,1.05-0.794c0.457-0.391,0.608-0.568,0.988-1.071c0.338-0.447,0.501-1,0.753-1.458
		c0.243-0.441,0.417-0.906,0.662-1.35c0.238-0.434,0.389-1.047,0.567-1.503c0.226-0.576,0.486-1.125,0.738-1.659
		c0.229-0.488,0.398-0.838,0.645-1.287c0.199-0.363,0.309-0.681,0.461-1.071c0.114-0.289,0.297-0.609,0.401-0.822
		C99.318,239.407,99.224,239.186,99.256,238.638z"/>
	<g>

			<line fill="none" stroke="#231F20" stroke-width="2.5" stroke-linecap="round" stroke-linejoin="round" stroke-miterlimit="10" x1="55.986" y1="286.359" x2="52.259" y2="289.58"/>

			<line fill="none" stroke="#231F20" stroke-width="2.5" stroke-linecap="round" stroke-linejoin="round" stroke-miterlimit="10" x1="49.986" y1="287.109" x2="52.486" y2="285.859"/>

			<line fill="none" stroke="#231F20" stroke-width="2.5" stroke-linecap="round" stroke-linejoin="round" stroke-miterlimit="10" x1="55.155" y1="291.275" x2="57.822" y2="288.609"/>

			<line fill="none" stroke="#231F20" stroke-width="2.5" stroke-linecap="round" stroke-linejoin="round" stroke-miterlimit="10" x1="58.822" y1="291.943" x2="59.736" y2="290.359"/>
	</g>
</g>
<g id="apple">
	<path fill="#E81D28" stroke="#000000" stroke-miterlimit="10" d="M91.692,267.546c0.35,12.039-11.153,27.406-25.954,21.455
		c-3.037,0.996-14.758,4.722-21.83-10.084c-7.075-14.801,6.403-27.161,18.643-23.469C81.776,240.667,91.3,254.167,91.692,267.546z"
		/>
	<path fill="#AA522E" stroke="#000000" stroke-width="0.5" stroke-miterlimit="10" d="M63.578,260.341
		c-0.21-0.438-2.134-3.983-2.279-7.807c-0.057-1.515,0.677-4.026,0.677-4.026s0.729-1.02,1.756-0.066
		c0.609,0.564,0.526,0.642,0.21,1.181c-0.316,0.537-0.914,2.713-0.989,4.334c-0.075,1.617,1.204,6.122,1.204,6.122L63.578,260.341z"
		/>
	<path fill="#0E1514" d="M64.038,259.589c-1.836,0.705-3.8,1.193-5.524,0.601c1.6,1.305,3.485,2.305,5.549,1.514
		c2.062-0.791,3.77-3.174,4.09-5.209C67.267,258.083,65.873,258.884,64.038,259.589z"/>

		<ellipse transform="matrix(-0.9618 -0.2737 0.2737 -0.9618 25.8001 537.7868)" fill="#E9826B" cx="50.413" cy="267.094" rx="4.314" ry="6.372"/>
	<path fill="#20A94A" stroke="#000000" stroke-miterlimit="10" d="M42.233,249.178c0,0,7.095-2.298,12.624,0.736
		c5.535,3.038,7.406,10.257,7.406,10.257s-8.107,0.146-13.641-2.889C43.093,254.247,42.233,249.178,42.233,249.178z"/>
	<g>

			<line fill="none" stroke="#231F20" stroke-width="2.5" stroke-linecap="round" stroke-linejoin="round" stroke-miterlimit="10" x1="50.986" y1="283.359" x2="47.259" y2="286.58"/>

			<line fill="none" stroke="#231F20" stroke-width="2.5" stroke-linecap="round" stroke-linejoin="round" stroke-miterlimit="10" x1="44.986" y1="284.109" x2="47.486" y2="282.859"/>

			<line fill="none" stroke="#231F20" stroke-width="2.5" stroke-linecap="round" stroke-linejoin="round" stroke-miterlimit="10" x1="50.155" y1="288.275" x2="52.822" y2="285.609"/>

			<line fill="none" stroke="#231F20" stroke-width="2.5" stroke-linecap="round" stroke-linejoin="round" stroke-miterlimit="10" x1="53.822" y1="288.943" x2="54.736" y2="287.359"/>
	</g>
</g>
<g id="orange">
	<path fill="#F16522" stroke="#000000" stroke-miterlimit="10" d="M87.342,246.954c3.254,3.709,5.837,8.074,6.859,14.067
		c1.677,9.838-3.676,18.854-6.025,21.617c-4.342,5.104-10.016,9.1-19.959,9.102c-20.622,0-26.885-17.057-27.607-23.572
		c-0.701-6.338,0.975-12.868,3.5-16.803c4.082-6.347,9.879-11.297,19.357-12.091C75.814,238.24,83.33,242.983,87.342,246.954z"/>
	<path d="M61.062,248.988c-1.726-0.414-3.843-0.273-5.415,0.188c-0.715,0.21-1.452,0.225-2.068,0.568
		c-0.772,0.435-1.396,0.89-2.322,1.212c-0.147,0.049-0.195-0.463,0.014-0.63c1.88-1.521,4.074-2.819,7.315-2.938
		c0.821-2.125,3.122-3.997,5.92-2.848c0.281,0.113,1.087,0.54,1.424,0.715c1.563-1.381,4.72-2.497,7.434-1.389
		c0.162,0.062,0.239,0.239,0.196,0.435c-0.083,0.407-0.504,0.127-0.574,0.127c-3.178-0.127-5.162,1.354-7.014,2.658
		c-0.821,0.582-1.528,1.475-2.462,1.794C63.165,249,61.56,249.106,61.062,248.988z"/>
	<path fill="#39B44A" d="M62.666,245.257c0.48-0.021,0.996-0.107,1.449,0.119c0.112,0.057,0.395,0.381,0.547,0.527
		c-0.421,0.35-2.181,1.49-2.666,1.487c-0.613-0.003-1.365-0.126-2.223,0.072c0.408-0.778,0.945-1.417,1.493-1.933
		C61.454,245.35,62.385,245.271,62.666,245.257z"/>

		<ellipse transform="matrix(-0.9618 -0.2737 0.2737 -0.9618 27.6197 530.1127)" opacity="0.5" fill="#EC935C" enable-background="new    " cx="50.785" cy="263.13" rx="6.848" ry="10.119"/>
	<g>

			<line fill="none" stroke="#231F20" stroke-width="2.5" stroke-linecap="round" stroke-linejoin="round" stroke-miterlimit="10" x1="49.986" y1="281.359" x2="46.259" y2="284.58"/>

			<line fill="none" stroke="#231F20" stroke-width="2.5" stroke-linecap="round" stroke-linejoin="round" stroke-miterlimit="10" x1="43.986" y1="282.109" x2="46.486" y2="280.859"/>

			<line fill="none" stroke="#231F20" stroke-width="2.5" stroke-linecap="round" stroke-linejoin="round" stroke-miterlimit="10" x1="49.155" y1="286.275" x2="51.822" y2="283.609"/>

			<line fill="none" stroke="#231F20" stroke-width="2.5" stroke-linecap="round" stroke-linejoin="round" stroke-miterlimit="10" x1="52.822" y1="286.943" x2="53.736" y2="285.359"/>
	</g>
</g>
<g id="bottle">
	<path fill="#FFB849" stroke="#1D1D1B" stroke-miterlimit="10" d="M67.253,234.333c-4.4,0.212-9.065,0.328-13.9,0.328
		c-4.833,0-9.499-0.115-13.898-0.328c-2.84,4.201-3.82,7.067-3.496,13.988c0.326,6.996,0,16.615,0,29.512c0,3.588,0,8.492,0,10.771
		c0,2.274,0.473,19.069,1.896,22.174c1.421,3.104,2.3,3.041,4.062,3.522c8.088,1.632,13.397,1.269,16.396,1.021
		c7.731-0.638,9.206-1.916,10.541-4.837c1.423-3.104,1.896-19.604,1.896-21.885c0-2.272,0-7.18,0-10.77
		c0-12.896-0.326-22.516,0-29.512C71.073,241.4,70.093,238.535,67.253,234.333z"/>
	<path fill="#D6182F" d="M36.412,244.379l-0.397,26.729c0,0,1.706,3.203,17.995,2.779c15.217-0.396,16.275-2.383,16.275-2.383
		v-27.39c0,0-4.103,0.793-17.069,1.058C40.249,245.438,36.412,244.379,36.412,244.379z"/>
	<path fill="#E6E7E8" stroke="#1D1D1B" stroke-miterlimit="10" d="M53.353,216.122c-2.377,0-4.957,0.346-4.957,0.346l0.028,4.073
		l0.145,2.137c0,0,3.277,0.173,4.784,0.173c1.508,0,4.785-0.173,4.785-0.173l0.145-2.137l0.029-4.073
		C58.312,216.467,55.732,216.122,53.353,216.122z"/>
	<ellipse fill="#0D1912" cx="53.355" cy="223.835" rx="4.305" ry="0.203"/>
	<g>
		<path fill="#F8BC5F" d="M36.91,288.725c0,0.012,0,0.024,0,0.041v-0.244l0,0V288.725z"/>
		<path opacity="0.23" fill="#FFFFFF" enable-background="new    " d="M39.578,287.697l0.067-44.828
			c0.204-3.323,0.951-5.522,2.19-8.315c-0.203-0.009-1.41-0.059-1.612-0.068c-1.688,2.714-3.304,7.944-3.304,10.218l-0.01,43.815
			c0.007,0.002,0.013,0.004,0.019,0.008c0.098,4.021,0.588,19.621,1.787,22.367c0.574,1.313,2.015,3.039,4.819,2.998
			c-1.154-0.086-2.17-1.787-2.66-4.193C39.302,301.98,39.578,290.025,39.578,287.697z"/>
	</g>
	<path fill="none" stroke="#1D1D1B" stroke-miterlimit="10" d="M67.253,234.333c-0.031-0.045-0.061-0.09-0.092-0.136
		c-2.91-4.275-6.561-5.479-7.614-6.146c-1.054-0.667-1.682-0.899-1.767-1.306c-0.051-0.242-0.062-1.179-0.062-1.899
		c0-0.494,0.005-0.886,0.005-0.886l0.998-0.116l0.056-0.377c0,0-0.37-0.146-0.74-0.291c-0.185-0.072-0.249-0.218-0.267-0.344
		s0.01-0.234,0.01-0.236h-8.854c0.001,0.002,0.028,0.11,0.011,0.236c-0.018,0.126-0.082,0.272-0.268,0.344
		c-0.369,0.146-0.739,0.291-0.739,0.291l0.057,0.377l0.996,0.116c0,0,0.005,0.392,0.005,0.886c0,0.721-0.01,1.658-0.062,1.899
		c-0.085,0.406-0.712,0.638-1.767,1.306c-1.053,0.667-4.704,1.87-7.613,6.146c-0.031,0.046-0.062,0.091-0.092,0.136
		c4.399,0.212,9.065,0.328,13.898,0.328c4.205,0,8.282-0.087,12.168-0.25C66.102,234.388,66.68,234.361,67.253,234.333z"/>
	<path fill="#C4C6C7" d="M48.849,221.225c0,0,3.043,1.059,6.748-1.455c1.766-1.198,2.25-2.779,2.25-2.779l-0.066,5.608l-9.064-0.315
		L48.849,221.225z"/>
	<path opacity="0.11" fill="#F05A28" enable-background="new    " d="M60.493,234.787c0,0,4.279,1.911,5.854,7.318
		c1.981,6.797,1.305,19.122,0.695,40.12c-0.253,8.695-0.301,20.787-1.047,26.229c-0.541,3.938-3.064,5.196-3.717,5.924
		c-0.266,0.295,2.977-0.198,4.764-2.187c2.435-2.707,2.482-63.2,2.184-69.462c-0.199-4.168-2.978-7.741-2.978-7.741
		S66.808,234.455,60.493,234.787z"/>
	<g>
		<circle fill="#F6921E" cx="46.176" cy="267.032" r="4.341"/>
		<path fill="#F48022" d="M48.511,263.916c0.455,0.65,0.725,1.441,0.725,2.299c0,2.221-1.801,4.021-4.021,4.021
			c-0.855,0-1.646-0.271-2.299-0.728c0.728,1.041,1.931,1.724,3.295,1.724c2.221,0,4.021-1.801,4.021-4.021
			C50.232,265.848,49.549,264.643,48.511,263.916z"/>
		<path fill="#231F20" d="M47.338,262.626c-0.196,0.358-0.253,0.431-0.411,0.64c-0.014,0.021,0.115,0.021,0.132,0
			c0.051-0.056,0.297-0.562,0.297-0.562L47.338,262.626z"/>
		<path fill="#94C83D" d="M49.832,259.505c-0.479,0.052-1.29-0.028-2.268,0.693c-0.945,0.696-0.919,1.571-0.633,2.098
			c0.207,0.381,0.411,0.416,0.411,0.416s0.257,0.681,0.946,0.729c0.522,0.041,2.082-0.566,2.099-1.943
			c0.019-1.379,0.777-2.084,0.777-2.084S50.234,259.462,49.832,259.505z"/>
		<path fill="none" d="M50.949,259.509c0,0-0.596,0.318-1.129,0.673c-1.96,1.303-2.504,2.543-2.504,2.543"/>
		<path opacity="0.88" fill="#78B443" enable-background="new    " d="M50.927,259.58c0,0-0.411,0.203-1.074,0.67
			c-0.662,0.469-1.501,1.201-1.969,1.773c-0.322,0.396-0.478,0.711-0.478,0.711s0.216,0.68,0.927,0.646
			c0.714-0.028,1.482-0.651,1.717-1.289c0.232-0.635,0.201-0.899,0.201-0.899s-0.535-0.027-0.611-0.082
			c-0.077-0.053,0.702-0.24,0.702-0.24s0.122-0.605,0.267-0.861C50.753,259.748,50.927,259.58,50.927,259.58z"/>
		<ellipse fill="#F05A28" cx="46.959" cy="263.191" rx="0.426" ry="0.221"/>
		<g>
			<g>
				<path fill="#F6921E" d="M43.71,254.253c0.384-0.889,0.506-1.639,0.423-2.59c-0.012-0.141-0.261-0.201-0.358-0.207
					c-1.726-0.115-4.018,0.568-5.168,1.938c-1.595,1.898,0.11,3.12,1.982,3.397c1.998,0.293,5.707,1.689,4.056,4.387
					c-0.704,1.15-4.085,3.305-4.86,1.213c-0.216-0.584-2.124-0.002-1.932,0.521c1.243,3.352,7.304-0.057,8.568-1.773
					c1.428-1.938-0.203-3.662-1.874-4.66c-0.909-0.543-2.143-0.528-3.158-0.676c-1.056-0.155-1.699-0.807-1.399-1.901
					c0.3-0.51,0.714-0.89,1.243-1.14c1.694-0.986,0.591,1.709,0.558,1.785C41.581,255.028,43.467,254.818,43.71,254.253
					L43.71,254.253z"/>
			</g>
		</g>
		<g>
			<g>
				<path fill="#F6921E" d="M46.358,257.052c0.175-0.254,0.265-0.537,0.27-0.846c-0.642,0.135-1.284,0.27-1.926,0.403
					c0.153,1.37-0.183,4.668,1.986,4.344c2.215-0.334,2.434-2.932,2.551-4.752c-0.642,0.135-1.284,0.268-1.926,0.403
					c0.006,1.494-0.072,2.805,1.234,3.73c0.437,0.309,1.492,0.047,1.791-0.379c2.494-3.562,2.259-9.459,1.023-13.441
					c-0.187-0.602-1.608,0.001-1.854,0.283c-2.559,2.933-1.636,7.253,0.543,10.125c2.165,2.854,5.688,2.623,8.434,0.854
					c0.863-0.554-1.093-0.464-1.516-0.19c-5.421,3.492-8.694-7.386-5.686-10.834c-0.618,0.094-1.235,0.188-1.854,0.283
					c1.185,3.821,1.532,9.543-0.867,12.971c0.597-0.125,1.194-0.252,1.791-0.379c-1.216-0.858-1.104-2.193-1.109-3.538
					c-0.002-0.477-1.892-0.123-1.926,0.403c-0.074,1.159-0.256,2.297-0.675,3.385c0.51-0.084,0.625-0.336,0.345-0.756
					c-0.079-0.394-0.139-0.783-0.181-1.179c-0.079-0.612-0.105-1.231-0.175-1.847c-0.06-0.532-1.854-0.079-1.926,0.403
					c-0.004,0.309-0.094,0.59-0.27,0.846C44.22,257.794,46.091,257.607,46.358,257.052L46.358,257.052z"/>
			</g>
		</g>
		<g>
			<g>
				<path fill="#F6921E" d="M59.652,251.936c-3.245-1.968-6.047,1.373-5.752,4.576c0.038,0.418,0.873,0.295,1.099,0.238
					c0.912-0.23,1.555-0.597,2.173-1.301c0.603-0.688,0.78-3.064,1.846-2.662c2.349,0.889,5.617-1.41,7.262-2.853
					c0.847-0.743-1.072-0.757-1.555-0.335c-1.271,1.113-3.188,2.589-4.979,1.941c-0.67-0.242-1.259-0.082-1.895,0.16
					c-1.803,0.682-1.469,3.639-3.118,4.057c0.366,0.078,0.732,0.158,1.099,0.236c-0.115-1.254,0.396-4.256,2.285-3.111
					C58.669,253.218,60.451,252.419,59.652,251.936L59.652,251.936z"/>
			</g>
		</g>
		<g>
			<circle fill="#F6921E" cx="59.434" cy="263.301" r="8.072"/>
			<path fill="#F48022" d="M63.776,257.503c0.847,1.213,1.349,2.687,1.349,4.272c0,4.132-3.348,7.479-7.478,7.479
				c-1.591,0-3.062-0.5-4.274-1.348c1.352,1.934,3.59,3.198,6.128,3.198c4.128,0,7.476-3.35,7.476-7.479
				C66.976,261.095,65.708,258.855,63.776,257.503z"/>
			<g>
				<path fill="#231F20" d="M61.597,255.105c-0.366,0.67-0.471,0.8-0.762,1.187c-0.027,0.037,0.21,0.035,0.244-0.002
					c0.09-0.098,0.547-1.043,0.547-1.043L61.597,255.105z"/>
				<path fill="#94C83D" d="M66.233,249.3c-0.89,0.095-2.401-0.056-4.219,1.289c-1.757,1.3-1.708,2.927-1.177,3.904
					c0.385,0.707,0.767,0.771,0.767,0.771s0.478,1.263,1.759,1.359c0.973,0.072,3.871-1.058,3.904-3.622
					c0.034-2.562,1.445-3.875,1.445-3.875S66.982,249.222,66.233,249.3z"/>
				<path fill="none" d="M68.311,249.309c0,0-1.109,0.593-2.1,1.25c-3.646,2.421-4.659,4.729-4.659,4.729"/>
				<path opacity="0.88" fill="#78B443" enable-background="new    " d="M68.27,249.438c0,0-0.765,0.378-1.996,1.248
					c-1.232,0.871-2.792,2.231-3.661,3.301c-0.601,0.739-0.889,1.322-0.889,1.322s0.399,1.259,1.724,1.201
					c1.324-0.057,2.758-1.215,3.191-2.396c0.433-1.181,0.372-1.676,0.372-1.676s-0.992-0.061-1.135-0.154
					c-0.143-0.097,1.307-0.451,1.307-0.451s0.227-1.129,0.496-1.604C67.948,249.75,68.27,249.438,68.27,249.438z"/>
			</g>
			<ellipse fill="#F05A28" cx="60.89" cy="256.156" rx="0.794" ry="0.408"/>
		</g>
	</g>
	<g>

			<line fill="none" stroke="#000000" stroke-width="4" stroke-linecap="round" stroke-linejoin="round" stroke-miterlimit="10" x1="63.153" y1="277.943" x2="70.487" y2="285.277"/>

			<line fill="none" stroke="#000000" stroke-width="3" stroke-linecap="round" stroke-linejoin="round" stroke-miterlimit="10" x1="37.059" y1="272.566" x2="38.129" y2="272.277"/>

			<line fill="none" stroke="#000000" stroke-width="3" stroke-linecap="round" stroke-linejoin="round" stroke-miterlimit="10" x1="37.059" y1="276.566" x2="38.486" y2="276.277"/>

			<line fill="none" stroke="#000000" stroke-width="3" stroke-linecap="round" stroke-linejoin="round" stroke-miterlimit="10" x1="37.059" y1="279.898" x2="38.129" y2="279.609"/>

			<line fill="none" stroke="#000000" stroke-width="3" stroke-linecap="round" stroke-linejoin="round" stroke-miterlimit="10" x1="36.903" y1="282.848" x2="37.572" y2="282.666"/>
	</g>
</g>
<g id="drum">
	<path fill="#B9223B" stroke="#1D1D1B" stroke-width="0.5" stroke-miterlimit="10" d="M106.91,232.14
		c26.899,0.354,48.62,40,48.519,49.528c-0.107,9.531-22,16.973-48.9,16.617c-26.899-0.354-48.621-8.369-48.517-17.898
		C58.117,270.855,80.008,231.787,106.91,232.14z M63.695,278.755c-0.106,7.229,19.119,13.427,42.943,13.843
		c23.825,0.418,43.222-5.104,43.329-12.334c0.104-7.229-19.12-45.059-42.945-45.476C83.199,234.374,63.801,271.527,63.695,278.755z"
		/>
	<path fill="#CFD600" stroke="#000000" stroke-miterlimit="10" d="M59.466,278.273c-0.103,9.301,20.943,17.117,47.009,17.461
		c26.064,0.35,47.277-6.91,47.379-16.209v-53.358L59.5,225.73L59.466,278.273z"/>
	<path opacity="0.1" fill="#000008" enable-background="new    " d="M87.261,237.183c0,0-1.167,8.878,0,29.042
		c0.675,11.65,3.541,21.271,5.563,28.484c0,0-20.061-2.402-29.671-9.805c-2.438-1.879-2.881,1.188-3.201-5.365
		c-0.843-17.203-1.349-53.089-1.349-53.089L87.261,237.183z"/>
	<path fill="#FDC504" stroke="#1D1D1B" stroke-miterlimit="10" d="M155.146,219.409c0.01-0.136-0.219-0.27-0.516-0.301
		c-0.271-0.028-0.494,0.047-0.535,0.165l-0.008-0.001v0.012c0,0.006-0.008,0.011-0.008,0.016c0,0.006,0.008,0.015,0.008,0.02
		l-0.672,64.383l-7.229-54.306l-1.761,0.894l0.068,0.563l-1.688-0.56l-7.084,61.671l-12.675-57.262l-1.54,1.005l-0.919-0.596
		l-11.78,60.96l-13.033-59.771l-1.442,0.891l0.325-1.312l-1.625-1.766l-14.39,58.064l-8.03-63.748l-0.419,0.102l0.007-0.053
		l-1.82-0.718l-7.889,55.79l-1.264-63.431h-0.007c0-0.003,0.007-0.007,0.007-0.012c0.002-0.136-0.234-0.252-0.531-0.26
		c-0.274-0.005-0.491,0.085-0.523,0.207h-0.008v0.013c0,0.005-0.006,0.011-0.006,0.015c0,0.008,0.006,0.013,0.008,0.02l1.298,65.346
		l0.751,0.045l-0.134,0.949l1.821,0.717l7.332-51.857l7.744,61.48l1.323-0.322l1.055,1.145l14.476-58.403l13.383,61.238l1.289-0.812
		l1.896,1.227l11.688-60.483l12.813,57.892l1.938-1.267l-0.041-0.185l0.404,0.138l7.457-64.843l7.43,55.827l1.762-0.896
		l-0.104-0.811l0.696,0.1l0.695-66.903l-0.008-0.001C155.142,219.416,155.146,219.414,155.146,219.409z"/>

		<linearGradient id="SVGID_1_" gradientUnits="userSpaceOnUse" x1="105.8984" y1="1253.1279" x2="105.8984" y2="1239.5829" gradientTransform="matrix(1 0 0 1 0.8408 -956.7119)">
		<stop  offset="0" style="stop-color:#86252F"/>
		<stop  offset="0.5449" style="stop-color:#B9223B"/>
		<stop  offset="1" style="stop-color:#DC3C5E"/>
	</linearGradient>
	<path fill="url(#SVGID_1_)" stroke="#1D1D1B" stroke-width="0.5" stroke-miterlimit="10" d="M106.55,297.761
		c-26.701-0.354-48.29-8.278-48.429-17.737h-0.005v5.233c-0.104,9.531,21.581,17.545,48.433,17.896
		c26.854,0.355,48.711-7.084,48.813-16.614v-5.373C155.228,290.688,133.385,298.115,106.55,297.761z"/>

		<linearGradient id="SVGID_2_" gradientUnits="userSpaceOnUse" x1="-1857.1084" y1="-2406.8818" x2="-1857.1084" y2="-2325.1067" gradientTransform="matrix(0 1 -1 0 -2257.9648 2073.7627)">
		<stop  offset="0" style="stop-color:#86252F"/>
		<stop  offset="0.5449" style="stop-color:#B9223B"/>
		<stop  offset="1" style="stop-color:#DC3C5E"/>
	</linearGradient>
	<path fill="url(#SVGID_2_)" d="M107.172,201.287c25.104,0.325,45.379,7.468,45.283,15.955c-0.097,8.487-20.521,15.104-45.626,14.78
		c-25.104-0.326-45.378-7.47-45.283-15.956C61.64,207.579,82.07,200.961,107.172,201.287z"/>
	<path fill="#B9223B" stroke="#1D1D1B" stroke-miterlimit="10" d="M56.999,221.938c-0.104,9.529,21.916,17.542,49.188,17.896
		s49.468-7.085,49.578-16.614v-5.562l-98.766-0.953V221.938z"/>
	<path fill="#EEECC7" d="M106.87,205.885c24.367,0.316,44.059,6.598,43.977,14.032c-0.084,7.432-19.91,13.202-44.281,12.888
		c-24.369-0.316-44.056-6.598-43.973-14.031C62.676,211.341,82.499,205.573,106.87,205.885z"/>
	<path fill="#B9223B" stroke="#1D1D1B" stroke-width="0.5" stroke-miterlimit="10" d="M106.746,199.926
		c27.362,0.355,49.461,8.366,49.354,17.897c-0.106,9.529-22.381,16.969-49.746,16.614C78.99,234.083,56.894,226.072,57,216.542
		C57.107,207.01,79.378,199.573,106.746,199.926z M62.782,214.91c-0.109,7.231,19.451,13.425,43.687,13.841
		c24.236,0.417,43.971-5.109,44.078-12.337c0.108-7.226-19.448-13.422-43.688-13.838C82.622,202.161,62.89,207.682,62.782,214.91z"
		/>
	<path fill="#FDC504" stroke="#1D1D1B" stroke-linecap="round" stroke-linejoin="round" stroke-miterlimit="10" d="M94.635,232.622
		c1.789,0.096,3.177,1.638,3.097,3.443c-0.079,1.805-1.597,3.191-3.388,3.096c-1.79-0.095-3.178-1.635-3.098-3.44
		C91.326,233.915,92.843,232.528,94.635,232.622z"/>
	<path fill="#FDC504" stroke="#1D1D1B" stroke-linecap="round" stroke-linejoin="round" stroke-miterlimit="10" d="M70.587,227.815
		c1.562,0.632,2.407,2.401,1.886,3.947c-0.521,1.546-2.209,2.287-3.771,1.653c-1.563-0.633-2.405-2.4-1.886-3.946
		C67.335,227.922,69.026,227.182,70.587,227.815z"/>
	<path fill="#FDC504" stroke="#1D1D1B" stroke-linecap="round" stroke-linejoin="round" stroke-miterlimit="10" d="M61.588,284.587
		c1.088,0.906,1.368,2.502,0.634,3.562c-0.736,1.062-2.212,1.188-3.296,0.279c-1.085-0.906-1.37-2.5-0.634-3.561
		C59.027,283.809,60.502,283.686,61.588,284.587z"/>
	<path fill="#FDC504" stroke="#1D1D1B" stroke-linecap="round" stroke-linejoin="round" stroke-miterlimit="10" d="M60.379,225.354
		c0.092,1.589-0.659,2.937-1.672,3.005c-1.017,0.068-1.914-1.162-2.004-2.753c-0.092-1.589,0.657-2.937,1.673-3.006
		C59.393,222.531,60.287,223.763,60.379,225.354z"/>

		<ellipse fill="#FDC504" stroke="#1D1D1B" stroke-linecap="round" stroke-linejoin="round" stroke-miterlimit="10" cx="121.947" cy="236.283" rx="3.507" ry="3.539"/>
	<path fill="#FDC504" stroke="#1D1D1B" stroke-linecap="round" stroke-linejoin="round" stroke-miterlimit="10" d="M144.86,227.681
		c1.55,0,2.804,1.42,2.804,3.175c0,1.751-1.254,3.171-2.804,3.171c-1.545,0-2.801-1.42-2.801-3.171
		C142.062,229.101,143.315,227.681,144.86,227.681z"/>
	<path fill="#FDC504" stroke="#1D1D1B" stroke-linecap="round" stroke-linejoin="round" stroke-miterlimit="10" d="M153.133,284.932
		c1.035-0.013,1.892,1.194,1.902,2.694c0.014,1.502-0.818,2.728-1.854,2.738c-1.037,0.011-1.89-1.197-1.902-2.699
		C151.265,286.166,152.097,284.939,153.133,284.932z"/>

		<ellipse fill="#FDC504" stroke="#1D1D1B" stroke-linecap="round" stroke-linejoin="round" stroke-miterlimit="10" cx="154.69" cy="225.429" rx="1.881" ry="2.675"/>

		<ellipse fill="#FDC504" stroke="#1D1D1B" stroke-linecap="round" stroke-linejoin="round" stroke-miterlimit="10" cx="108.992" cy="299.938" rx="3.301" ry="3.333"/>
	<path fill="#FDC504" stroke="#1D1D1B" stroke-linecap="round" stroke-linejoin="round" stroke-miterlimit="10" d="M136.099,293.646
		c1.694-0.146,3.17,1.127,3.291,2.846c0.118,1.711-1.158,3.215-2.854,3.355c-1.699,0.146-3.177-1.13-3.291-2.843
		C133.123,295.292,134.403,293.791,136.099,293.646z"/>
	<path fill="#FDC504" stroke="#1D1D1B" stroke-linecap="round" stroke-linejoin="round" stroke-miterlimit="10" d="M78.763,293.255
		c1.66,0.441,2.706,2.16,2.338,3.834c-0.369,1.677-2.015,2.679-3.676,2.236c-1.66-0.438-2.709-2.154-2.338-3.83
		C75.457,293.816,77.102,292.814,78.763,293.255z"/>
	<path fill="#E1AC04" stroke="#1D1D1B" stroke-linecap="round" stroke-linejoin="round" stroke-miterlimit="10" d="M149.367,206.183
		l-64.623,6.348c-0.718-2.275-2.769-3.814-5.052-3.59c-2.689,0.264-4.673,2.871-4.433,5.82c0.24,2.952,2.616,5.129,5.306,4.865
		c2.281-0.224,4.053-2.137,4.389-4.516l64.624-6.348L149.367,206.183z"/>
	<path fill="#E1AC04" stroke="#1D1D1B" stroke-linecap="round" stroke-linejoin="round" stroke-miterlimit="10" d="M144.899,199.792
		l-49.513,18.217c-1.237-1.985-3.586-2.875-5.734-1.999c-2.532,1.034-3.818,4.122-2.876,6.899c0.941,2.777,3.756,4.19,6.287,3.157
		c2.146-0.879,3.394-3.238,3.148-5.629l49.515-18.218L144.899,199.792z"/>
	<path fill="#E18D04" d="M91.391,224.417c-1.879,0-3.434-1.5-3.736-3.467c-0.035,0.225-0.057,0.456-0.057,0.692
		c0,2.298,1.699,4.163,3.793,4.163c2.095,0,3.793-1.865,3.793-4.163c0-0.236-0.021-0.467-0.056-0.692
		C94.826,222.917,93.27,224.417,91.391,224.417z"/>
	<path fill="#E18D04" d="M80.013,217.481c-1.88,0-3.435-1.501-3.737-3.468c-0.035,0.226-0.056,0.456-0.056,0.693
		c0,2.299,1.696,4.163,3.793,4.163c2.093,0,3.793-1.864,3.793-4.163c0-0.237-0.022-0.467-0.058-0.693
		C83.447,215.98,81.892,217.481,80.013,217.481z"/>
	<g>

			<line fill="none" stroke="#000100" stroke-width="3" stroke-linecap="round" stroke-linejoin="round" stroke-miterlimit="10" x1="59.909" y1="261.648" x2="70.857" y2="261.648"/>

			<line fill="none" stroke="#000100" stroke-width="3" stroke-linecap="round" stroke-linejoin="round" stroke-miterlimit="10" x1="59.357" y1="264.232" x2="69.107" y2="266.232"/>

			<line fill="none" stroke="#000100" stroke-width="3" stroke-linecap="round" stroke-linejoin="round" stroke-miterlimit="10" x1="59.703" y1="266.85" x2="66.33" y2="269.117"/>

			<line fill="none" stroke="#000100" stroke-width="3" stroke-linecap="round" stroke-linejoin="round" stroke-miterlimit="10" x1="60.103" y1="258.841" x2="68.107" y2="257.982"/>
	</g>
</g>
<g id="balloon">
	<g>
		<path fill="#000100" d="M71.846,284.173c-1.048-2.498-7.373-4.405-7.677-4.508l-3.508-0.19l0.695,1.881l0.757,0.035l0.362,0.604
			l-0.865,0.055l0.817,2.211l0.944-0.053c0.197-0.004,0.39-0.039,0.572-0.088c0.207,0.256,0.388,0.496,0.532,0.715l-1.79,0.127
			l0.754,2.041l1.028-0.072c-0.186,0.201-0.271,0.318-0.31,0.394c-0.039-0.007-0.099-0.005-0.211,0.021l-0.369,0.037L64.914,291
			l2.779-0.463c0.065-0.021,0.128-0.039,0.195-0.062l0.309-0.098c0.387-0.117,1.035-0.369,1.536-0.652
			C74.071,287.693,72.663,286.121,71.846,284.173z"/>

			<line fill="none" stroke="#000000" stroke-width="3" stroke-linecap="round" stroke-linejoin="round" stroke-miterlimit="10" x1="57.236" y1="281.109" x2="61.236" y2="280.824"/>

			<line fill="none" stroke="#000000" stroke-width="3" stroke-linecap="round" stroke-linejoin="round" stroke-miterlimit="10" x1="61.652" y1="279.328" x2="64.33" y2="280.832"/>

			<line fill="none" stroke="#000000" stroke-width="3" stroke-linecap="round" stroke-linejoin="round" stroke-miterlimit="10" x1="57.987" y1="283.896" x2="63.32" y2="283.609"/>

			<line fill="none" stroke="#000000" stroke-width="3" stroke-linecap="round" stroke-linejoin="round" stroke-miterlimit="10" x1="59.487" y1="286.73" x2="63.487" y2="286.441"/>

			<line fill="none" stroke="#000000" stroke-width="3" stroke-linecap="round" stroke-linejoin="round" stroke-miterlimit="10" x1="60.487" y1="289.48" x2="62.986" y2="289.191"/>
	</g>
	<g>
		<path fill="#231F20" d="M63.488,162.888c0,0-0.205,9.022-0.514,22.557c-0.146,6.768-0.281,14.664-0.399,23.125
			c-0.152,8.46-0.205,17.486-0.292,26.511c-0.1,9.026-0.036,18.051-0.062,26.515c-0.024,4.23,0.08,8.32,0.11,12.197
			c0.047,3.879,0.092,7.545,0.133,10.93c0.009,3.387,0.178,6.484,0.249,9.234c0.091,2.748,0.17,5.145,0.235,7.119
			c0.13,3.945,0.204,6.201,0.204,6.201s-0.105-2.254-0.29-6.197c-0.093-1.975-0.205-4.369-0.334-7.117
			c-0.109-2.748-0.321-5.846-0.377-9.23c-0.088-3.385-0.184-7.051-0.284-10.93c-0.084-3.879-0.245-7.969-0.279-12.199
			c-0.092-8.459-0.28-17.494-0.306-26.521c-0.038-9.028-0.11-18.058-0.075-26.522c0.001-8.465,0.027-16.365,0.079-23.137
			c0.121-13.544,0.201-22.573,0.201-22.573L63.488,162.888z"/>
	</g>
	<path fill="#8ADB0B" stroke="#000000" stroke-miterlimit="10" d="M61.533,173.996c0,0,4.983,3.031,6.064,6.753
		c0,0,2.463,8.002-4.477,5.912c-1.368-0.412-3.834-2.123-4.942-1.655c-1.344,0.564-6.775,0.217-3.356-1.726
		c3.417-1.942,5.126-4.03,4.638-9.141L61.533,173.996z"/>
	<path fill="#8ADB0B" stroke="#231F20" stroke-width="1.5" stroke-miterlimit="10" d="M118.997,100.958
		c0.214,34.367-25.81,73.554-58.122,73.756c-32.312,0.201-58.681-38.66-58.896-73.027c-0.214-34.368,25.81-62.39,58.12-62.591
		C92.413,38.895,118.782,66.591,118.997,100.958z"/>
	<g opacity="0.66">
		<path fill="#FFFFFF" d="M22.439,145.181c-7.695-11.516-11.789-26.167-10.585-41.676c0.005-0.045,0.01-0.091,0.014-0.135
			l-4.743,3.3C7.556,121.651,13.299,135.346,22.439,145.181z"/>
		<path fill="#FFFFFF" d="M56.988,49.074C31.432,48.718,9.56,70.675,7.285,99.919c-0.042,0.558-0.058,1.11-0.086,1.664l5.434-4.27
			C16.933,72.037,34.96,52.884,56.988,49.074z"/>
	</g>
</g>
</svg>
