<?xml version="1.0" encoding="utf-8"?>
<!-- Generator: Adobe Illustrator 16.0.0, SVG Export Plug-In . SVG Version: 6.00 Build 0)  -->
<!DOCTYPE svg PUBLIC "-//W3C//DTD SVG 1.1//EN" "http://www.w3.org/Graphics/SVG/1.1/DTD/svg11.dtd">
<svg version="1.1" id="Layer_1" xmlns="http://www.w3.org/2000/svg" xmlns:xlink="http://www.w3.org/1999/xlink" x="0px" y="0px"
	 width="292.902px" height="522.136px" viewBox="0 0 292.902 522.136" enable-background="new 0 0 292.902 522.136"
	 xml:space="preserve">
<g id="body">

		<line fill="none" stroke="#000100" stroke-width="5.6693" stroke-linecap="round" stroke-linejoin="round" x1="197.039" y1="356.498" x2="194.483" y2="486.501"/>

		<line fill="none" stroke="#000100" stroke-width="5.6693" stroke-linecap="round" stroke-linejoin="round" x1="234.14" y1="360.632" x2="234.882" y2="486.519"/>
	<path fill="#000100" stroke="#000100" stroke-width="4.0304" d="M209.91,167.758c0-3.123-0.14-6.308-0.271-9.386
		c-0.132-3.121-0.271-6.345-0.271-9.546l0,0c0-1.207,1.202-1.181,2.684-1.181c1.482,0,2.682-0.026,2.682,1.181l0,0
		c0,3.127,0.139,6.314,0.271,9.395c0.136,3.118,0.271,6.34,0.271,9.538l0,0c0,1.205-1.196,2.181-2.683,2.181
		C211.109,169.94,209.91,168.963,209.91,167.758L209.91,167.758z"/>
	<path fill="none" stroke="#000100" stroke-width="4" stroke-linecap="round" stroke-linejoin="round" d="M165.039,222.195
		c0,0-4,51.833-9.5,68.333c-1.771,5.304-40,5.669-40,5.669"/>
	<path fill="#FFC200" stroke="#000000" stroke-width="2.8347" stroke-linecap="round" stroke-linejoin="round" d="M247.789,231.134
		c-2.246-10.178-0.902-0.902,8.453-9.361c14.305-12.936,14.516-17.067,15.536-22.039c-2.44-1.971-5.271-17.387-25.629-29.199
		c-5.163-2.996-19.528-8.89-28.896-11.799c-2.409,10.53-10.254,4.203-9.504-0.575c-4.429,2.13-29.537,10.479-37.354,16.143
		c-8.562,6.212-14.76,38.357-16.777,40.841c6.951,8.662,18.896,12.024,25,15c1.5-5,2.783-10.178,2.783-10.178
		c0.441,1.458-0.812,12.58-1.391,16.556c-4.709,32.383-10.592,138.872-11.463,141.312c2,0.418,93.764-0.137,97.223,0.711
		c0.338-2.905,0.168-5.723-0.096-8.567C262.55,336.169,254.448,261.306,247.789,231.134z"/>
	<path fill="#000100" d="M279.388,328.023c-1.713-4.205-5.289-6.822-8.21-6.715c-3.74,0.141-7.44,5.521-7.658,5.746l-8.021,12.99
		c-0.543,0.543-0.489,1.404,0.121,1.922c0.609,0.521,1.549,0.5,2.09-0.043l7.684-12.65l0.928-0.125l-5.099,25.619
		c-0.202,0.723,0.274,1.479,1.065,1.688c0.475,0.127,0.945,0.029,1.304-0.225c0.237-0.168,0.418-0.41,0.502-0.703l5.534-26.477
		c0.046-0.166,0.046-0.336,0.021-0.5c0.409-0.098,0.789-0.178,1.134-0.232l-4.556,31.16c-0.104,0.74,0.465,1.441,1.274,1.562
		c0.422,0.063,0.824-0.039,1.127-0.254c0.283-0.203,0.485-0.504,0.537-0.865l4.525-30.984c1.035,0.945,0.398-0.078,0.441,0.557
		l-2.037,25.736c-0.018,0.752,0.504,1.486,1.318,1.527c0.363,0.018,0.703-0.086,0.966-0.275c0.329-0.23,0.54-0.594,0.55-1.01
		l1.672-24.5l0.704-0.074l0.83,18.074c0.123,0.688,0.332,0.898,1.076,0.811c0.241-0.029,0.459-0.117,0.638-0.242
		c0.366-0.266,0.57-0.701,0.487-1.164C280.341,348.375,279.654,328.523,279.388,328.023z"/>

		<circle id="colour" fill="#82FF00" stroke="#000100" stroke-width="3" stroke-miterlimit="10" cx="212.114" cy="85.438" r="61.392"/>

		<line fill="none" stroke="#000000" stroke-width="2.8347" stroke-linecap="round" stroke-linejoin="round" x1="242.121" y1="214.645" x2="247.121" y2="226.645"/>
	<path fill="none" stroke="#000100" stroke-width="4.252" stroke-linecap="round" stroke-linejoin="round" d="M262.121,217.645
		c0,0,10.803,34.372,12.5,48c1.381,11.087-2,56.032-2,56.032"/>
	<path fill="#DF1669" d="M206.621,376.675c-19.219,0-36.223,0.025-36.5,0l0.621-9.409c0.312,0.024,32.521,2.065,51.879,1.409
		c19.475-0.657,41.277,0.082,41.512,0.084l0.488,8.416c-0.229-0.002-20.588-1.155-40-0.5
		C222.447,376.75,209.028,376.675,206.621,376.675z"/>
	<path fill="#000100" d="M171.986,10.648c-0.959,0.531-2.021,2.779-3.199,3.432c-2.473,1.366-2.18,1.807-6.664,7.597
		c-1.992,2.571-4.318,3.439-6.488,5.598c-4.452,4.431-6.729,9.074-9.056,14.421c-1.164,2.668-2.023,5.252-2.659,7.74
		c-0.213,0.83-0.399,1.649-0.565,2.457c0,0,0.453,3.67-0.1,5.329c-1.106,3.871-4.844,2.175-2.287,16.161
		c-0.877,10.958,7.205,18.214,5.609,25.309c-2.805,12.47,5.11-2.76,5.11-2.76c0.819-1.327,3.142-10.028,3.551-11.65
		c2.152-8.468,7.312-12.56,17.456-19.975c10.561-7.717,27.954-7.639,34.998-9.018c23.076-4.516,32.729-13.639,32.729-13.639
		s-1.172,5.825-6.604,9.584c-3.588,2.484,7.954-2.374,14.494-0.528c19.053,5.378,7.693,2.579,9.904,13.269
		c0.637,3.072,9.848,3.11,9.848,3.11s-13.034-3.183-6.266-7.689c5.873-3.91,4.422,8.057,4.422,8.057
		c3.884,6.042,4.13,9.828,2.117,11.501c-6.136,5.096-6.082,9.953-0.674,16.377c0.729,0.994,1.404,1.835,1.639,2.504
		c-4.836,16.229,6.223,20.208,6.223,20.208c-0.137,0.404-6.562-8.423-2.938-13.654c0.355-0.516,4.299-6.356,4.521-6.96
		c-1.025-1.334-1.252-4.936-0.699-5.489c4.979-6.635,10.729-10.222,6.028-19.248c0.032-0.74,0.051-1.483,0.057-2.227
		c0.005-0.557,0.603-4.452-0.106-5.68c-2.987-4.634,2.35-3.951-2.303-14.731c-0.33-0.897-1.234-3.458-1.609-4.362
		c-5.62-13.551-12.604-21.708-28.85-32.017c-0.94-0.598-14.541-19.268-55-12"/>
	<path fill="#000100" d="M153.348,95.933c-0.554,0.734-6.604,11.333-0.722,17.969c12.67,14.289,0,22.856,0,22.856
		s9.012-8.602-2.565-18.755c-11.609-10.184-2.44-16.138-1.892-26.406c0.422-7.85-7.25-21.714,0.23-28.111
		c10.41-8.899,21.51,0.38,9.26,13.625C152.125,83.096,153.348,95.933,153.348,95.933z"/>
	<g>
		<path fill="#FFC200" d="M158.621,39.177c2.871-4.009,6.477-7.471,10.322-10.589c3.887-3.086,8.104-5.781,12.592-7.966
			c8.951-4.426,18.924-6.793,28.92-7.132c5-0.174,10.01,0.181,14.936,0.913c4.971,0.805,9.829,2.165,14.43,4.165
			c2.297,1.003,4.529,2.14,6.676,3.422c2.137,1.296,4.188,2.724,6.135,4.275c3.844,3.145,7.383,6.722,9.994,10.912
			c-3.164-3.763-6.903-6.955-10.9-9.692c-3.999-2.741-8.312-4.978-12.807-6.694c-4.498-1.697-9.188-2.907-13.932-3.538
			c-4.791-0.68-9.617-0.928-14.434-0.781c-9.631,0.272-19.188,2.381-28.053,6.233c-4.424,1.941-8.692,4.279-12.701,7.034
			C165.787,32.488,161.979,35.586,158.621,39.177z"/>
	</g>
	<polygon fill="#FFC200" points="237.121,13.677 231.121,23.677 243.121,23.677 250.121,32.677 256.621,23.677 244.121,21.177 	"/>
	<circle fill="#000100" stroke="#000100" stroke-width="3" cx="229.875" cy="77.344" r="2.561"/>
	<circle fill="#000100" stroke="#000100" stroke-width="3" cx="197.694" cy="77.344" r="2.563"/>
	<path fill="#DC185D" stroke="#000100" stroke-width="4.252" stroke-linecap="round" stroke-linejoin="round" d="
		M214.311,520.007c4.815-11.475-4.796-26.84-16.123-33.488c0,0-38.133,5.23-47.938,14.037c-7.185,6.451-7.799,13.586-3.913,19.451
		H214.311z"/>
	<path fill="#DC185D" stroke="#000100" stroke-width="4.252" stroke-linecap="round" stroke-linejoin="round" d="
		M220.432,520.007c-4.812-11.475,4.797-26.84,16.12-33.488c0,0,38.136,5.23,47.943,14.037c7.18,6.451,7.799,13.586,3.913,19.451
		H220.432z"/>
	<polygon fill="#040404" points="216.067,521.007 146.067,521.007 143.067,515.007 216.067,515.007 	"/>
	<polygon fill="#040404" points="218.676,521.007 290.068,521.007 291.676,515.007 218.676,515.007 	"/>

		<path fill="none" stroke="#040404" stroke-width="4.252" stroke-linecap="round" stroke-linejoin="round" stroke-miterlimit="10" d="
		M177.889,487.484c8.188,1.979,10.566,11.049,10.566,11.049"/>

		<path fill="none" stroke="#040404" stroke-width="4.252" stroke-linecap="round" stroke-linejoin="round" stroke-miterlimit="10" d="
		M167.579,491.513c8.345,1.113,10.662,9.988,10.662,9.988"/>

		<path fill="none" stroke="#040404" stroke-width="4.252" stroke-linecap="round" stroke-linejoin="round" stroke-miterlimit="10" d="
		M258.133,487.484c-8.188,1.979-10.562,11.049-10.562,11.049"/>

		<path fill="none" stroke="#040404" stroke-width="4.252" stroke-linecap="round" stroke-linejoin="round" stroke-miterlimit="10" d="
		M268.443,491.513c-8.348,1.113-10.661,9.988-10.661,9.988"/>
</g>
<path id="smile_normal" d="M213.117,131.896c-10.188,0-18.996-5.158-25.728-11.494c-0.646-0.607-0.452-1.678,0.218-2.255
	c0.957-0.824,3.462,1.722,4.184,2.235c6.389,4.557,13.201,8.09,22.196,8.062c7.523-0.023,15.595-4.628,20.097-8.958
	c0.639-0.613,1.48-1.009,2.193-0.483c0.715,0.525,0.223,1.548-0.367,2.209c-5.08,5.683-12.371,10.419-21.82,10.671
	C213.765,131.891,213.441,131.896,213.117,131.896z"/>
<path id="smile_happy" fill="#000100" d="M205.814,130.961c-21.593-6.004-27.079-23.224-28.52-27.51l0,0
	c-0.289-0.829-0.051-1.84,0.524-2.25l0,0c0.584-0.415,1.29-0.076,1.579,0.753l0,0c1.494,4.143,6.038,19.72,26.867,25.709l0,0
	c2.044,0.578,4.207,0.874,6.421,0.874l0,0c12.642,0,26.724-9.541,31.487-28.633l0,0c0.219-0.873,0.89-1.328,1.5-1.013l0,0
	c0.613,0.312,0.929,1.27,0.711,2.147l0,0c-5.254,20.818-20.315,30.856-33.698,30.856l0,0
	C210.333,131.896,208.018,131.583,205.814,130.961L205.814,130.961z"/>
<path id="nothing" fill="#000100" d="M111.835,300.441c0.387-0.115,1.035-0.367,1.536-0.65c4.335-2.029,2.927-3.604,2.108-5.549
	c-1.048-2.498-7.373-4.406-7.677-4.51l-15.537-0.855c-0.745-0.254-1.704-0.039-2.141,0.48c-0.439,0.521-0.192,1.148,0.549,1.4
	l15.073,0.699l0.36,0.602l-30.1,1.875c-0.863,0.016-1.601,0.492-1.649,1.07c-0.027,0.346,0.192,0.646,0.562,0.834
	c0.245,0.125,0.562,0.195,0.912,0.19l31.172-1.76c0.197-0.007,0.39-0.041,0.572-0.088c0.207,0.254,0.388,0.495,0.53,0.715
	l-35.649,2.541c-0.863,0.084-1.517,0.612-1.463,1.188c0.025,0.297,0.24,0.545,0.559,0.707c0.295,0.149,0.346,0.268,1.104,0.186
	l35.444-2.523c-0.815,0.893,0.187,0.254-0.521,0.414l-29.45,2.969c-0.854,0.146-1.562,0.646-1.409,1.209
	c0.065,0.25,0.263,0.455,0.538,0.592c0.342,0.175,0.8,0.242,1.271,0.162l27.97-2.959L103.677,300l-16.156,2.354
	c-0.745,0.226-2.802,0.845-1.556,1.694c0.151,0.104,0.243,0.285,0.427,0.379c0.383,0.191,0.926,0.238,1.428,0.089l23.511-3.914
	c0.063-0.022,0.128-0.039,0.193-0.062L111.835,300.441z"/>
<g id="lollipop">
	<path fill="#000100" d="M114.898,294.755c-1.048-2.496-7.373-4.403-7.677-4.506l-3.508-0.192l0.695,1.883l0.757,0.035l0.36,0.601
		l-0.863,0.055l0.815,2.211l0.944-0.053c0.197-0.004,0.39-0.039,0.572-0.088c0.207,0.256,0.388,0.495,0.53,0.715l-1.79,0.127
		l0.756,2.041l1.026-0.072c-0.186,0.203-0.271,0.318-0.31,0.393c-0.039-0.006-0.101-0.004-0.211,0.021l-0.369,0.037l1.337,3.621
		l2.779-0.463c0.063-0.023,0.128-0.039,0.193-0.062l0.311-0.096c0.387-0.117,1.035-0.369,1.536-0.654
		C117.123,298.277,115.715,296.707,114.898,294.755z"/>
	<path fill="#FF4A00" stroke="#000000" stroke-width="0.5" stroke-miterlimit="10" d="M134.088,220.695
		c0.049,7.103-2.812,14.185-7.831,19.272c-2.492,2.556-5.517,4.593-8.814,5.977c-3.298,1.394-6.885,2.068-10.461,2.063
		c-3.569-0.018-7.141-0.751-10.422-2.145c-3.283-1.394-6.28-3.433-8.791-5.952c-2.503-2.527-4.526-5.529-5.896-8.813
		c-1.366-3.285-2.104-6.836-2.118-10.403c-0.024-3.564,0.655-7.139,2.008-10.448c1.347-3.31,3.36-6.353,5.888-8.888
		c2.525-2.539,5.553-4.58,8.858-5.96c3.306-1.388,6.896-2.077,10.479-2.075c3.579,0.006,7.169,0.699,10.469,2.098
		c3.3,1.392,6.317,3.437,8.811,5.994C131.28,206.508,134.143,213.591,134.088,220.695z"/>
	<path opacity="0.2" fill="#001B1F" enable-background="new    " d="M133.163,213.608c-0.12-0.479-0.269-0.953-0.398-1.429
		c0.131,0.472,0.263,0.944,0.396,1.417c-2.409-8.639-9.229-15.751-17.769-18.505c7.24,3.486,12.79,10.166,14.924,17.909
		c2.349,8.514,0.422,17.982-5.067,24.901c-0.339,0.207-1.076,1.303-1.466,1.709c-1.101,1.146-2.261,2.22-3.522,3.182
		c-2.832,2.156-6.073,3.785-9.503,4.74c1.874,0.196,3.729-0.506,5.453-1.151c1.887-0.707,3.688-1.549,5.392-2.635
		c3.15-2.01,5.874-4.667,7.96-7.767C133.894,229.536,135.281,221.219,133.163,213.608
		C133.162,213.604,134.476,218.324,133.163,213.608z"/>
	<path fill="#EFE8D1" d="M125.007,238.036c-9.053,5.357-21.497,4.469-29.166-2.99c-4.298-4.18-6.473-10.225-5.859-16.188
		c0.572-5.57,3.533-10.996,8.447-13.845c4.595-2.657,10.19-2.772,14.952-0.482c5.142,2.473,8.189,8.085,7.187,13.752
		c-0.941,5.321-5.393,9.625-10.972,9.296c-5.531-0.327-10.075-5.48-8.167-11.056c0.857-2.505,2.936-4.396,5.604-4.706
		c2.573-0.299,5.313,1.048,6.26,3.538c0.938,2.475-0.188,5.652-2.885,6.382c-2.688,0.731-5.771-1.614-4.633-4.507
		c-1.072,2.421,0.412,4.986,2.83,5.744c2.591,0.812,5.279-0.626,6.356-3.041c1.188-2.666,0.369-5.835-1.874-7.665
		c-1.975-1.611-4.811-2.08-7.229-1.358c-5.582,1.666-7.533,8.6-5.027,13.501c2.479,4.851,8.595,6.83,13.675,5.477
		c5.46-1.463,9.068-6.459,9.767-11.935c0.756-5.929-1.93-11.481-6.651-14.998c-8.776-6.534-22.052-3.462-27.802,5.534
		c-6.495,10.166-4.768,23.713,4.189,31.837c4.18,3.792,9.762,6.187,15.312,7.016c0.444,0.067,0.982,0.217,1.435,0.19
		c0.516-0.144,1.019-0.333,1.529-0.491c1.215-0.374,2.418-0.907,3.545-1.493c2.304-1.197,4.472-2.637,6.389-4.397
		c1.085-0.993,2.115-2.096,3.027-3.25C125.167,237.946,125.087,237.991,125.007,238.036z"/>
	<path fill="#FF4A00" d="M131.243,218.552c-0.394-5.922-2.674-11.652-6.515-16.183c-1.867-2.203-4.05-4.176-6.51-5.699
		c-1.106-0.685-2.263-1.423-3.517-1.793c-1.5-0.443-3.039-0.756-4.596-0.933c-10.146-1.156-20.312,3.682-25.835,12.254
		c-4.167,6.471-5.392,14.547-3.322,21.961c2.222,7.962,8.085,14.579,15.718,17.751c-9.932-6.186-15.023-18.186-12.353-29.622
		c1.312-5.613,4.403-10.917,9.062-14.391c4.597-3.43,10.564-4.936,16.244-4.093c5.722,0.849,11.438,4.031,14.362,9.152
		c2.745,4.807,3.27,10.775,0.974,15.879c-2.382,5.295-7.359,9.143-13.351,8.995c-5.693-0.141-11.183-3.65-12.359-9.465
		c-0.885-4.352,0.943-9.371,5.019-11.46c3.896-1.999,9.346-0.875,11.464,3.161c1.886,3.59,0.33,8.789-3.904,9.733
		c-3.771,0.84-7.917-2.654-6.045-6.585c-0.792,1.996,0.509,3.932,2.431,4.52c2.115,0.647,4.205-0.651,5.022-2.59
		c1.051-2.482-0.084-5.32-2.407-6.583c-2.606-1.417-5.938-0.835-7.912,1.379c-1.879,2.108-2.386,5.238-1.47,7.879
		c0.864,2.492,2.885,4.288,5.334,5.17c5.312,1.91,10.777-0.946,12.972-5.966c2.35-5.38,0.443-11.893-4.312-15.28
		c-4.25-3.028-9.961-3.662-14.805-1.795c-11.32,4.362-13.656,19.604-6.856,28.744c5.659,7.605,16.088,10.244,25.017,7.959
		c1.974-0.505,3.879-1.312,5.653-2.301c1.832-1.024,3.027-3.584,3.949-5.421C130.622,228.499,131.573,223.488,131.243,218.552
		C131.147,217.104,131.312,219.576,131.243,218.552z"/>
	<path fill="#F2ECA2" d="M126.122,215.392c-0.165-5.196-2.729-10.138-6.886-13.257c-3.9-2.918-8.785-4.383-13.646-4.195
		c-8.684,0.334-15.905,5.847-19.392,13.638c-4.084,9.174-2.673,20.418,3.815,28.153c1.468,1.748,3.115,3.326,4.961,4.669
		c1.383,1.005,2.732,1.633,4.372,2.123c3.537,1.068,7.739,1.685,11.33,0.69c-8.368-0.863-16.667-5.284-21.077-12.6
		c-5.545-9.138-4.35-20.937,2.729-28.841c6.25-6.982,17.519-7.795,25.073-2.592c4.247,2.937,7.046,8.129,6.735,13.346
		c-0.269,4.564-2.224,9.055-6.13,11.66c-3.741,2.428-8.962,2.822-12.865,0.497c-2.38-1.417-4.227-3.414-4.98-6.141
		c-0.74-2.67-0.345-5.504,1.067-7.878c2.418-4.065,8.17-5.255,11.872-2.165c2.077,1.747,2.771,4.62,1.864,7.148
		c-0.75,2.088-2.746,3.582-4.984,3.557c-3.189-0.033-5.79-3.37-4.006-6.35c-1.216,2.03-0.618,4.801,1.358,6.118
		c1.964,1.322,4.626,1.243,6.521-0.155c1.864-1.372,2.744-3.842,2.499-6.103c-0.279-2.571-1.915-4.668-4.216-5.765
		c-4.407-2.119-9.179-0.16-11.636,3.816c-3.009,4.869-1.033,11.162,3.268,14.447c4.312,3.294,10.66,3.204,15.183,0.451
		C123.738,226.689,126.32,220.938,126.122,215.392C126.108,214.999,126.134,215.714,126.122,215.392z"/>
	<path opacity="0.2" fill="#FFFFFF" enable-background="new    " d="M108.047,195.132c-4.242-0.187-10.478,0.93-15.984,4.812
		c-3.862,2.702-6.553,6.192-8.268,9.437c-0.735,1.393-1.312,2.744-1.69,3.961c-1.318,4.097-1.199,6.756-1.252,6.738
		c0.019,0.008,0.109-0.326,0.312-0.922c0.179-0.534,0.442-1.277,0.819-2.184c0.289-0.694,0.646-1.483,1.073-2.341
		c0.119-0.238,0.243-0.479,0.374-0.728c0.327-0.629,0.714-1.29,1.135-1.964c0.545-0.87,1.185-1.767,1.887-2.671
		c0.685-0.883,1.416-1.769,2.25-2.644c1.446-1.52,3.118-2.997,5.019-4.324c2.796-1.97,5.734-3.37,8.491-4.312h0.001
		c0.644-0.22,1.271-0.407,1.892-0.579c1.236-0.342,2.409-0.589,3.5-0.756c0.173-0.026,0.355-0.062,0.524-0.083
		c0.86-0.121,1.656-0.201,2.379-0.256c0.991-0.075,1.843-0.1,2.517-0.102c1.146-0.003,1.791,0.056,1.788,0.03
		C114.809,196.3,112.349,195.282,108.047,195.132z"/>
	<path fill="#C0B176" d="M110.961,245.564c-1.019-1.13-3.286-1.133-4.678-1.038c-0.778,0.056-4.538,0.737-3.042,2.136
		c0.92,0.859,2.625,0.985,3.82,0.975C107.726,247.638,112.374,247.143,110.961,245.564
		C110.817,245.405,111.104,245.724,110.961,245.564z"/>
	<path fill="#C3996B" stroke="#000000" stroke-width="0.5" stroke-miterlimit="10" d="M109.077,309.977
		c0,1.114-0.904,2.021-2.021,2.021l0,0c-1.115,0-2.021-0.904-2.021-2.021V247.01c0-1.117,0.903-1.331,2.021-1.331l0,0
		c1.117,0,2.021,0.213,2.021,1.331V309.977z"/>

		<line fill="none" stroke="#000000" stroke-width="3" stroke-linecap="round" stroke-linejoin="round" stroke-miterlimit="10" x1="100.288" y1="291.695" x2="104.288" y2="291.408"/>

		<line fill="none" stroke="#000000" stroke-width="3" stroke-linecap="round" stroke-linejoin="round" stroke-miterlimit="10" x1="104.704" y1="289.914" x2="107.382" y2="291.416"/>

		<line fill="none" stroke="#000000" stroke-width="3" stroke-linecap="round" stroke-linejoin="round" stroke-miterlimit="10" x1="101.039" y1="294.482" x2="106.372" y2="294.193"/>

		<line fill="none" stroke="#000000" stroke-width="3" stroke-linecap="round" stroke-linejoin="round" stroke-miterlimit="10" x1="102.539" y1="297.314" x2="106.539" y2="297.025"/>

		<line fill="none" stroke="#000000" stroke-width="3" stroke-linecap="round" stroke-linejoin="round" stroke-miterlimit="10" x1="103.539" y1="300.064" x2="106.038" y2="299.775"/>
</g>
<g id="book">
	<path fill="#000100" d="M116.481,295.24c-1.048-2.496-7.373-4.406-7.677-4.508l-0.945-0.053c0.138,0.914,0.141,1.863,0.055,2.838
		c0.878,0.891,1.348,2.117,1.407,3.375c0.328,0.4,0.65,0.807,0.941,1.23c0.885,1.301,1.356,2.524,1.453,3.862l1.119-0.547
		c0.387-0.114,1.035-0.366,1.536-0.651C118.706,298.759,117.298,297.188,116.481,295.24z"/>
	<g>
		<path fill="#EC1066" stroke="#000000" stroke-miterlimit="10" d="M13.902,244.187c3.023-5.081,74.368-23.32,74.368-23.32
			s9.872,28.625,13.235,38.445c4.229,12.336,8.195,29.624,12.06,44.713c1.022,3.992,6.224,18.945,6.224,18.945
			s-39.078,12.604-51.055,17.646c-10.603,4.465-28.357,8.19-28.357,8.19L13.902,244.187z"/>
		<path fill="#31A7B4" stroke="#000100" stroke-width="0.25" stroke-miterlimit="10" d="M49.375,279.283l-2.629,9.299
			c0,0,0.008-2.873-1.387-6.479c-0.358-0.939,1.419-2.613,2.092-3.674c1.014-1.598-1.209-4.895-0.477-6.188
			c1.046-1.836,2.965-0.027,4.278-2.127c0.393-0.631,0.001-3.904,1.16-4.431c1.2-0.546,2.126,0.427,4.218,0.606
			c1.911,0.164,2.141-3.533,3.602-3.461c0.766,0.037,2.221,1.215,3.568,1.812c0.777,0.344,1.884-0.889,3.485-0.869
			c1.574,0.02,4.859,2.268,4.859,2.268L49.375,279.283z"/>
		<path fill="#49C3D7" stroke="#000100" stroke-width="0.25" stroke-miterlimit="10" d="M88.405,237.991
			c-0.636-1.479-1.675-2.262-2.975-2.323c-0.837-0.042-1.673-0.029-2.417-0.235c-1.297-0.355-2.629-0.692-4.283-0.304
			c-1.984,0.696-3.241,1.75-4.479,2.828c-0.833,0.73-1.644,1.483-2.224,2.34c-1.263,1.856-1.881,4.02-1.727,6.524
			c0.057,0.892,0.209,1.819,0.517,2.807c0.859,2.758,2.485,4.917,3.49,7.016c1.095,2.294,0.681,4.238,0.242,5.539
			c-0.236,0.704-0.515,1.408-0.991,2c-0.853,1.068-2.21,2.021-3.938,2.594c-1.724,0.45-3.253,0.414-4.743,0.285
			c-2.061-0.297-4.271-0.314-6.914,0.829c-2.403,1.038-4.554,2.222-5.938,3.692c-0.589,0.625-0.991,1.336-1.405,2.037
			c-0.578,0.98-0.869,2.076-1.168,3.174c-0.369,1.354-0.59,2.779-0.87,4.164c-0.246,1.224-0.354,2.492-0.752,3.646
			c-0.414,1.187-3.638,11.008-9.259,15.724c-5.312,4.461-0.09,10.231,8.172,7.684c8.102-2.5,24.775-9.553,25.003-6.77
			c0.062,0.782,8.163-3.896,8.396-4.939c-0.135-1.152-9.688,0.795-9.654,0.855c0.994,1.741-15.013,7.062-19.472,7.614
			c-2.027,0.25-4.23,0.039-5.562-0.937c-0.997-0.729-1.417-2.553-0.188-4.071c1.868-2.312,3.461-3.757,5.293-5.548
			c1.621-1.579,3.883-3.416,5.55-4.381c0.061,0.215,0.101,0.457,0.147,0.687l0.887,3.257c-0.062,0.163,0.02,0.372,0.149,0.403
			c1.337,0.332,2.942,0.405,4.666-0.494c3.297-1.728,4.068-4.073,4.041-4.375l-0.482-0.722c-0.478-0.424-0.999-0.766-1.391-1.418
			c0.944-0.297,3.582-1.996,4.363-2.516c0.061-0.039,0.938,4.174,1.991,4.332c1.631,0.246,4.265-1.154,4.318-1.188
			c2.84-1.73,3.121-3.963,3.086-4.244c-0.19-0.424-2.787-3.166-3.276-3.459c-0.351-0.211-0.834-1.416-0.621-2.242
			c0.308-1.186,0.893-2.053,1.328-3.168c1.023-2.609,2.543-5,3.252-6.488c0.683-1.434,1.328-2.896,1.877-4.392
			c0.426-1.144,0.813-2.343,0.892-3.572c0.228-3.78-2.086-8.243-2.193-10.375c-0.068-1.317,0.337-2.406,1.588-3.091
			c1.292,0.093,6.348-2.119,6.925-2.787c0.741-0.686,0.99-1.599,1.17-2.551C89.008,240.447,88.95,239.255,88.405,237.991z"/>
		<path d="M79.082,239.496c0.479-0.532,1.387-0.647,1.939-0.45c0.065,0.023,0.162-0.021,0.108-0.113
			c-0.075-0.132-0.312-0.167-0.486-0.172c0.15-0.244,0.142-0.574,0.085-0.901c-0.067-0.432-0.271-0.899-0.562-1.143
			c-0.248-0.203-0.646-0.318-1.025-0.028c-0.354,0.416-0.299,1.14,0.107,1.745c0.121,0.179,0.221,0.342,0.388,0.452
			c-0.218,0.156-0.419,0.324-0.531,0.526C79.101,239.427,79.08,239.472,79.082,239.496z"/>
		<path fill="#FFFFFF" d="M79.133,237.628c0.103,0.458,0.349,0.832,0.629,1.094c0.041,0.041,0.114,0.131,0.201,0.068
			c-0.336-0.242-0.503-0.857-0.29-1.171c0.142-0.216,0.522-0.348,0.708-0.231c-0.137-0.396-0.437-0.646-0.781-0.661
			c-0.299-0.011-0.438,0.277-0.474,0.479C79.115,237.289,79.112,237.547,79.133,237.628z"/>
		<path d="M86.684,238.272c-0.031-0.106-0.099-0.245-0.279-0.28c0.021-0.345-0.196-0.786-0.509-0.796
			c-0.075-0.001-0.187-0.013-0.203,0.023c-0.091,0.161-0.174,0.347-0.123,0.548c0.117,0.471,0.468,0.778,0.886,0.709
			c0.025-0.004,0.053-0.013,0.081-0.022C86.623,238.42,86.71,238.353,86.684,238.272z"/>
		<path d="M85.77,237.819c0.105,0.283,0.303,0.491,0.541,0.52c0.062,0.008,0.123-0.042,0.195-0.067
			c-0.26-0.099-0.354-0.463-0.384-0.715c-0.019-0.127-0.243-0.208-0.292-0.139C85.748,237.533,85.716,237.68,85.77,237.819z"/>
		<path fill="#231F20" d="M87.433,244.333c-1.758,0.117-3.628-0.109-4.908-1.454c1.335,1.257,3.149,1.376,4.876,1.145
			C87.41,244.121,87.447,244.239,87.433,244.333z"/>
		<path fill="#231F20" d="M82.716,242.451c-0.069,0.172-0.146,0.305-0.192,0.442c-0.025,0.068-0.049,0.134-0.064,0.209
			c-0.018,0.072-0.023,0.147-0.036,0.242c-0.144-0.127-0.161-0.353-0.092-0.527c0.03-0.088,0.087-0.163,0.147-0.227
			C82.547,242.529,82.621,242.476,82.716,242.451z"/>
		<path fill="#F6D429" stroke="#000100" stroke-width="0.15" stroke-miterlimit="10" d="M70.775,297.255
			c0,0,1.711,0.666,1.979,1.361c0.269,0.689-0.729,2.613-0.729,2.613s3.672-1.656,5.755-3.16c0.823-0.594,2.146-1.535,2.139-1.721
			c-0.021-0.416-2.317-0.332-3.73-0.121C74.873,296.427,70.775,297.255,70.775,297.255z"/>
		<path fill="none" stroke="#231F20" stroke-width="0.5" stroke-miterlimit="10" d="M50.261,325.686c0,0,8.452-3.498,21.094-6.875
			c12.645-3.375,26.829-7.479,26.829-7.479"/>
		<path fill="none" stroke="#231F20" stroke-width="0.5" stroke-miterlimit="10" d="M53.533,333.777c0,0,8.458-3.502,21.096-6.875
			c11.764-3.143,10.838-2.854,26.829-7.479"/>
		<path fill="#FFFFFF" d="M99.296,254.019c-11.298,3.207-19.381,13.121-19.381,25.445c0,14.884,12.062,26.945,26.942,26.945
			c2.354,0,4.472-0.293,6.646-0.861c-1.415-5.155-4.034-16.039-6.88-27.266C103.866,267.412,100.49,258.549,99.296,254.019z"/>
		<path fill="#DED720" d="M45.258,233.221c0,0-21.558,5.472-28.362,9.139c-0.742,0.4-2.68,1.734-2.68,1.734l7.879,30.41
			c0.729,0.056,0.994,0.238,1.734,0.238c15.384,0,27.853-11.925,27.853-26.631C51.682,242.109,48.88,236.844,45.258,233.221z"/>
	</g>

		<polyline fill="none" stroke="#000000" stroke-width="4" stroke-linecap="round" stroke-linejoin="round" stroke-miterlimit="10" points="
		103.454,288.343 110.121,287.009 112.788,294.343 	"/>
</g>
<g id="cake">
	<path fill="#000100" d="M115.48,294.242c-1.048-2.498-7.373-4.406-7.677-4.51l-1.593-0.088c0.064,0.109,0.136,0.219,0.203,0.328
		c0.354,0.578,0.571,1.271,0.65,1.979c1.229,1.545,1.562,3.254,0.954,5.045l0.082-0.006c-0.064,0.071-0.104,0.118-0.146,0.174
		c-0.078,0.211-0.16,0.424-0.268,0.637c-1.56,3.193-5.762,4.643-9.39,5.465c-0.273,0.508-0.642,0.979-1.104,1.383l1.927,0.027
		c0.062-0.02,2.6,0.689,2.666,0.67l10.048-4.902c0.387-0.115,1.034-0.367,1.536-0.652
		C117.705,297.759,116.298,296.188,115.48,294.242z"/>
	<g>
		<path fill="#D6E6E7" stroke="#1D1D1B" stroke-miterlimit="10" d="M0.5,294.08v0.758c0,10.691,24.715,18.601,55.202,18.601
			c30.483,0,55.197-7.907,55.197-18.601v-0.903L0.5,294.08z"/>
		<path fill="#F2F5F6" stroke="#1D1D1B" stroke-width="0.5" stroke-miterlimit="10" d="M110.9,294.307
			c0,9.64-24.713,17.868-55.197,17.868c-30.486,0-55.202-8.229-55.202-17.868c0-7.955,24.716-14.957,55.202-14.957
			C86.187,279.35,110.9,284.667,110.9,294.307z"/>
		<path fill="none" stroke="#F47C44" stroke-width="2" stroke-miterlimit="10" d="M99.409,295.251
			c0,7.345-19.606,14.295-43.79,14.295c-24.188,0-43.792-6.95-43.792-14.295c0-7.346,19.604-11.967,43.792-11.967
			C79.803,283.287,99.409,287.91,99.409,295.251z"/>
		<path fill="#C68346" stroke="#A07441" stroke-width="2" stroke-miterlimit="10" d="M83.736,277.251
			c0.567-3.301,1.336-4.897-0.293-8.25c-0.689-1.42-0.812-3.062-0.949-4.635c-1.412-0.041-2.955-0.697-4.35-0.974
			c-2.855-0.571-5.848-1.028-8.769-1.028c-4.513,0-9.487-0.23-13.854-1.424c-4.452-1.216-9.038-1.579-13.649-1.806
			c-1.938-0.095-3.873,0.107-5.812-0.012c-3.55-0.216-6.892-2.312-10.382-2.312c-4.824,0-1.791,26.791-1.477,30.55
			c0.225,2.676,0.276,5.445,1.588,7.885c2.396,4.476,12.61,3.564,16.752,3.287c12.537-0.846,25.713,2.555,38.061,0.584
			c4.336-0.691,3.406-6.77,3.518-9.959c0.061-1.811,0.184-3.566,0.061-5.383C84.178,283.775,84.178,283.775,83.736,277.251z"/>
		<path fill="#E9DCDA" stroke="#603A17" stroke-miterlimit="10" d="M83.504,278.169c0,0,0.082,0.455-3.552-0.631
			c-3.905-1.168-5.523-0.481-7.149-0.067c-1.627,0.413-2.991-0.828-6.372,0.067c-3.382,0.896-8.45,0.273-9.751,0.066
			c-1.301-0.205-8.388-2.479-11.248-1.377c-2.861,1.104-6.893,0.348-8.324-0.137c-1.426-0.48-2.985-0.967-6.435-1.033
			c-3.446-0.066-6.696-1.031-7.153-0.553c-0.452,0.482-0.909,6.27-0.389,6.408c0.52,0.135,3.186-1.24,5.852-0.761
			c2.664,0.479,5.981,1.861,10.207,1.035c4.226-0.828,6.957-0.968,10.403-0.274c3.445,0.688,8.711-1.172,12.288,0.479
			c3.576,1.651,8.582-0.138,11.764,0.414c3.188,0.551,9.993,0.049,9.993,0.049S84.057,278.318,83.504,278.169z"/>
		<path fill="#754D29" stroke="#603A17" stroke-miterlimit="10" d="M61.121,254.77c0,0,9.814,0.604,14.227,3.339
			c4.41,2.736,9.441,2.28,9.441,3.732c0,1.449,0.605,2.195,0,3.32c-0.609,1.129-1.636-0.137-4.068-0.941
			c-2.434-0.805-8.367-1.611-11.104-1.611c-2.737,0-11.863-0.643-14.144-1.61c-2.28-0.965-12.47-1.612-14.296-1.612
			c-1.824,0-5.016,0.484-9.428-0.968c-4.409-1.447-6.233-1.933-6.689,0c-0.455,1.934-2.587,2.417-1.215,8.055
			c1.365,5.636-0.152,7.568-0.152,10.309c0,2.738,1.215,9.666,1.215,11.92s0.916,6.441,2.13,7.568
			c1.22,1.123,4.407,1.771,4.407,2.578s-0.76,0.32-2.58,0.965c-0.912,0.324-1.521,0.125-2.245-0.08
			c-0.723-0.197-1.561-0.396-2.927-0.078c-2.74,0.645-5.324-0.162-5.627-2.414c-0.305-2.258,1.367-4.25,1.064-7.574
			c-0.305-3.324,1.367-10.791-0.457-14.979c-1.826-4.188-2.739-4.024-1.523-5.638c1.219-1.61,1.369-1.936,1.068-3.543
			c-0.306-1.612-0.156-2.902,0.301-3.381c0.457-0.484,1.828-0.484,1.371-3.546c-0.457-3.058-0.304-3.865,0.608-5.799
			c0.911-1.932,0.322-2.366,2.447-3.011c2.136-0.646,1.604,0.898,2.669,0.092c1.062-0.807,5.395-3.476,8.586-1.701
			c3.193,1.772,7.322,2.066,13.254,4c5.93,1.934,10.197,2.609,10.197,2.609H61.121L61.121,254.77L61.121,254.77z"/>
		<path fill="#603A17" d="M75.348,258.108c-4.411-2.736-13.647-3.34-13.647-3.34s-8.312-0.676-14.241-2.609
			c-5.932-1.933-10.707-1.681-13.902-3.452c-3.188-1.775-6.727,0.204-7.791,1.01c-1.062,0.807-0.68-0.591-2.812,0.054
			c-2.125,0.645-1.537,1.078-2.449,3.01c-0.911,1.933-1.064,2.741-0.609,5.799c0.459,3.062-0.912,3.062-1.369,3.546
			c-0.457,0.479-0.605,1.769-0.301,3.381c0.301,1.607,0.148,1.934-1.067,3.543c-1.217,1.611-0.306,1.449,1.522,5.638
			c1.824,4.188,0.152,11.653,0.457,14.978c0.304,3.324-1.369,5.317-1.063,7.574c0.303,2.252,2.887,3.059,5.625,2.413
			c1.366-0.317,2.205-0.116,2.928,0.08c0.725,0.205,1.333,0.406,2.243,0.084c1.822-0.646,2.584-0.161,2.584-0.967
			c0-0.81-3.189-1.455-4.41-2.578c-1.214-1.127-2.129-5.313-2.129-7.569c0-1.4-0.466-4.597-0.818-7.478
			c0.935-1.638,0.668-2.666,0.575-3.757c-0.194-2.278-0.183-1.723-0.646-3.875c-0.014-0.057,0.091-0.067,0.135-0.104
			c0.297-1.67,0.492-3.699-0.309-7.017c-1.373-5.637,0.76-6.122,1.214-8.054c0.456-1.933,2.28-1.447,6.69,0
			c4.412,1.452,7.604,0.968,9.428,0.968c1.827,0,12.018,0.646,14.295,1.61c2.279,0.967,11.406,1.61,14.145,1.61
			c2.733,0,8.67,0.809,11.104,1.611c2.433,0.807,1.492,1.408,2.756,1.619c0.867,0.143,1.456-1.879,1.456-4.574
			C84.932,259.812,79.758,260.845,75.348,258.108z"/>
		<path fill="#B3A9AD" d="M39.398,253.475c0,0,0.015,0,0.03,0.002c0.001,0.002,0.001,0.003,0.004,0.005
			c-0.011-0.001-0.019-0.003-0.03-0.006C39.398,253.475,39.398,253.475,39.398,253.475L39.398,253.475z"/>
		<polygon fill="#6A4323" points="31.578,252.209 31.579,252.209 31.579,252.209 		"/>
		<g>
			<path fill="#BD2729" stroke="#9C2223" stroke-miterlimit="10" d="M30.857,249.323c0,0-2.792-8.438,5.756-11.779
				c8.551-3.341,14.955,6.456,12.447,10.995C46.549,253.078,30.857,249.323,30.857,249.323L30.857,249.323z"/>
			<path opacity="0.2" fill="#001E22" enable-background="new    " d="M41.934,236.743c4.365,1.059,7.475,5.323,7.857,8.904
				c0.041,0.386,0.051,0.76,0.026,1.118c-0.518-0.086-0.901-0.07-1.027-0.091c-0.304-0.327-0.932-1.445-2.116-1.435
				c-0.002,0-0.005,0-0.008,0.001c-0.493,0.054-0.891,0.441-1.133,0.945c-0.062,0.17-0.213,0.338-0.414,0.492
				C46.391,243.889,44.963,239.57,41.934,236.743L41.934,236.743z"/>
			<path fill="#5B4020" d="M39.744,240.318c0.092-0.642-2.902-8.72,4.059-12.183c0,0,1.354,0.146,0.99-1.075
				c-0.371-1.226-1.184,0.024-2.115-1.328c-0.931-1.355-1.354-0.15-0.867,0.774c0.496,0.915-5.834,5.862-3.135,14.119
				C38.676,240.624,39.584,241.42,39.744,240.318L39.744,240.318z"/>
			<path fill="#BDB3A6" d="M43.872,228.14c0.044,0.001,0.104,0.001,0.175-0.003C43.977,228.141,43.916,228.141,43.872,228.14
				L43.872,228.14z M44.377,228.076c-0.09,0.029-0.186,0.047-0.268,0.056l0,0C44.193,228.123,44.287,228.105,44.377,228.076
				L44.377,228.076z M44.852,227.345L44.852,227.345L44.852,227.345L44.852,227.345z"/>
			<path fill="#8D191C" d="M39.348,240.897c-0.006,0-0.013,0.001-0.018,0.001l0,0C39.335,240.898,39.342,240.897,39.348,240.897
				L39.348,240.897z M38.733,240.671c0.07,0.054,0.198,0.138,0.339,0.188C38.933,240.81,38.804,240.725,38.733,240.671
				L38.733,240.671z M38.651,240.55c0.009,0.025,0.016,0.05,0.024,0.074C38.666,240.599,38.659,240.575,38.651,240.55L38.651,240.55
				z"/>
			<path opacity="0.2" fill="#002D18" enable-background="new    " d="M44.139,226.453c0.273,0.021,0.5,0.107,0.655,0.607l0,0
				c0.003,0.012,0.009,0.026,0.011,0.039c0.023,0.09,0.039,0.17,0.049,0.245l0,0c0.041,0.445-0.208,0.646-0.475,0.731
				c-0.09,0.028-0.186,0.047-0.27,0.055c-0.021,0.001-0.044,0.004-0.062,0.005c-0.07,0.005-0.129,0.005-0.174,0.003
				c-0.046-0.002-0.07-0.004-0.07-0.004c-4.514,2.244-4.841,6.431-4.54,9.271c0.146,1.369,0.438,2.427,0.479,2.802
				c0.006,0.047,0.009,0.084,0.004,0.108c-0.061,0.405-0.22,0.554-0.396,0.58c-0.006,0-0.012,0.001-0.017,0.001
				c-0.085,0.01-0.174-0.008-0.259-0.039c-0.143-0.049-0.271-0.134-0.342-0.188c-0.033-0.029-0.057-0.047-0.057-0.047l0,0
				c-0.011-0.024-0.018-0.049-0.024-0.074c-0.014-0.049-0.022-0.098-0.043-0.143c0.038,0.005,0.079,0.005,0.118,0.003
				c0.186-0.021,0.352-0.164,0.41-0.578c0.094-0.637-2.902-8.721,4.058-12.182c0,0,0.139,0.015,0.312-0.004
				c0.376-0.041,0.928-0.235,0.678-1.069C44.17,226.532,44.152,226.495,44.139,226.453L44.139,226.453z"/>
			<path fill="#7E1416" d="M41.439,239.744c0.041-0.004-0.166,0.413-0.576,0.85c-0.406,0.438-1.019,0.898-1.791,0.979
				c-0.556,0.06-1.194-0.074-1.9-0.549c-0.012-0.007-0.02-0.011-0.02-0.011c0.012,0,0.145,0.058,0.377,0.105
				c0.232,0.048,0.568,0.084,0.985,0.039c0.747-0.081,1.757-0.418,2.917-1.409C41.436,239.747,41.438,239.744,41.439,239.744
				L41.439,239.744z"/>
			<path fill="#F0EBEB" stroke="#B7ADB0" stroke-width="2" stroke-miterlimit="10" d="M29.338,249.875c0,0,0.684-1.727,2.747-1.556
				c2.066,0.167,5.89-0.243,6.68-1.687c0.793-1.444,1.312,0.44,2.149,0.935c0.841,0.495,4.039,0.153,4.751-1.285
				c0.714-1.438,1.844,0.289,2.193,0.639c0.356,0.351,2.931-0.603,4.364,3.224c1.438,3.823-2.305,7.916-7.477,6.722
				c-5.176-1.194-5.966,0.247-9.679-1.296C31.36,254.024,26.562,253.374,29.338,249.875L29.338,249.875z"/>
			<path fill="#BFB0B1" d="M40.349,247.779c0.093,0.082,0.195,0.163,0.31,0.234c0.135,0.071,0.279,0.125,0.435,0.167
				c-0.179,0.479-1.771,4.293-7.084,4.862c-1.202,0.128-2.593,0.091-4.204-0.188c-0.067-0.044-0.129-0.088-0.191-0.133
				c0.104,0.007,0.216,0.012,0.332,0.016c0.692,0.029,1.646,0.029,2.701-0.083c2.793-0.3,6.313-1.39,7.691-4.846
				C40.34,247.797,40.346,247.787,40.349,247.779L40.349,247.779z"/>
			<path fill="#BFB0B1" d="M47.515,247.292c0.274,0.169,0.503,0.231,0.724,0.254c0.012,0.024,0.018,0.049,0.021,0.073l0.027,0.11
				c0.125,4.353-4.209,7-6.867,8.12c-0.208-0.012-0.41-0.021-0.604-0.025c2.121-0.955,5.967-3.146,6.668-7.88l-0.043-0.399
				C47.436,247.433,47.461,247.351,47.515,247.292L47.515,247.292z"/>
			<path fill="#F9EAE9" d="M34.65,240.397c0.188-0.02,0.355,0.017,0.484,0.119c0.404,0.309,0.293,1.117-0.241,1.802
				c-0.356,0.462-0.821,0.75-1.206,0.791c-0.184,0.02-0.352-0.018-0.479-0.116c-0.404-0.315-0.299-1.121,0.233-1.805
				C33.804,240.725,34.267,240.438,34.65,240.397L34.65,240.397z"/>
			<path fill="#F9EAE9" d="M32.887,243.622c0.389-0.041,0.736,0.235,0.777,0.623c0.039,0.388-0.238,0.735-0.627,0.776
				c-0.39,0.042-0.734-0.239-0.777-0.625C32.221,244.008,32.502,243.664,32.887,243.622L32.887,243.622z"/>
		</g>
		<path fill="#D19657" d="M34.421,262.32c2.753,0,5.194-1.005,8.003-0.475c2.345,0.441,4.479,1.217,6.893,1.136
			c5.709-0.214,10.939,1.869,16.723,1.3c3.273-0.324,10.584-0.015,13.482,1.495c1.338-0.913,2.013,5.79,2.2,6.458
			c1.284,4.498-2.469,1.896-5.409,2.029c-5.311,0.234-10.752,1.645-15.98,1.645c-2.854,0-5.479-1.484-7.974-2.689
			c-4.329-2.086-7.401,0.486-11.735,0.486c-2.027,0-13.61-1.16-13.819-2.431c-0.485-2.966,0.245-6.017-0.091-8.995
			C26.305,258.712,32.779,262.32,34.421,262.32z"/>
		<path fill="#D19657" d="M31.506,283.148c3.16,0,6.299-0.355,9.462-0.176c3.278,0.189,6.12,1.275,9.444,0.861
			c3.289-0.408,7.146-1.748,10.318-0.127c3.461,1.766,6.808-0.199,10.352-0.199c2.915,0,5.533,1.115,8.553,0.875
			c1.551-0.123,2.834-0.957,2.639,1.109c-0.23,2.475-0.691,10.014-3.146,10.963c-4.664,1.803-11.104,0.766-15.938,0.303
			c-7.667-0.729-14.346-1.801-22.122-1.176c-5.859,0.469-11.877,0.492-13.445-6.211c-0.377-1.611-0.43-3.441-1.162-4.951
			C24.807,281.027,30.223,283.148,31.506,283.148z"/>
	</g>

		<polyline fill="none" stroke="#000000" stroke-width="4" stroke-linecap="round" stroke-linejoin="round" stroke-miterlimit="10" points="
		102.453,286.343 109.121,285.009 111.787,292.343 	"/>
</g>
<g id="crayons">
	<path fill="#000100" d="M115.481,294.24c-1.048-2.496-7.373-4.406-7.677-4.508l-3.508-0.191l0.337,0.912
		c0.238,0.125,0.452,0.273,0.656,0.438c0.114,0.062,0.206,0.148,0.312,0.221c0.238,0.131,0.441,0.299,0.646,0.465
		c1.802,1.059,2.546,3.248,2.232,5.242c0.014,0.879-0.173,1.76-0.561,2.537l0.631,1.709l2.779-0.463
		c0.063-0.023,0.128-0.039,0.193-0.062l0.311-0.099c0.387-0.116,1.035-0.368,1.536-0.651
		C117.706,297.759,116.298,296.188,115.481,294.24z"/>
	<path fill="#A40613" d="M106.416,252.692l0.685-4.222l-30.143-0.363l-4.168,3.018l0.045,1.305
		C84.033,252.484,95.227,253.123,106.416,252.692z"/>
	<path d="M72.927,252.432l-0.043-1.262l4.103-2.972l30.01,0.362l-0.67,4.135c0.062-0.002,0.124-0.002,0.186-0.005l0.682-4.205
		l0.02-0.104l-30.279-0.364l-4.23,3.064l0.046,1.349C72.805,252.43,72.865,252.432,72.927,252.432z"/>
	<path fill="#F01E2D" stroke="#000100" stroke-width="0.25" stroke-miterlimit="10" d="M83.449,210.127
		c-2.86-0.026-5.754,0.231-8.572,0.76c-0.104-1.415-0.205-2.831-0.31-4.246c2.819-0.569,5.709-0.825,8.573-0.761
		C83.246,207.295,83.348,208.711,83.449,210.127z"/>
	<path fill="#F01E2D" stroke="#000100" stroke-width="0.25" stroke-miterlimit="10" d="M75.034,206.55
		c0.786-3.488,1.583-6.963,2.381-10.392c0.487-0.055,0.979-0.098,1.472-0.129c1.261,3.246,2.524,6.539,3.782,9.844
		C80.119,205.847,77.551,206.074,75.034,206.55z"/>
	<path fill="#F21E17" stroke="#000100" stroke-width="0.5" stroke-miterlimit="10" d="M86.665,252.678
		c-1.066-14.748-2.133-29.496-3.2-44.244c-2.953-0.052-5.939,0.213-8.849,0.786c1.043,14.422,2.085,28.844,3.127,43.266
		C80.718,252.537,83.691,252.61,86.665,252.678z"/>
	<path fill="#1D1D1B" d="M83.791,212.931c-2.951-0.007-5.938,0.257-8.852,0.786c0.023,0.318,0.046,0.637,0.069,0.957
		c2.912-0.521,5.9-0.785,8.851-0.786C83.838,213.569,83.814,213.25,83.791,212.931z"/>
	<path fill="#1D1D1B" d="M75.264,218.182c2.916-0.484,5.903-0.749,8.853-0.784c-0.06-0.809-0.116-1.617-0.176-2.426
		c-2.949,0.012-5.937,0.277-8.851,0.786"/>
	<path fill="#1D1D1B" d="M75.011,214.674c0.003,0.019,0.003,0.037,0.004,0.055C75.014,214.711,75.014,214.693,75.011,214.674
		L75.011,214.674z"/>
	<path fill="#1D1D1B" d="M83.94,214.972c-0.024-0.361-0.054-0.723-0.079-1.083l0,0C83.887,214.249,83.914,214.611,83.94,214.972
		L83.94,214.972z"/>
	<path fill="#1D1D1B" d="M75.264,218.182c0.007,0.089,0.015,0.177,0.021,0.265C75.278,218.359,75.271,218.271,75.264,218.182
		L75.264,218.182z"/>
	<path fill="#1D1D1B" d="M84.114,217.398L84.114,217.398c0.008,0.084,0.015,0.168,0.021,0.253
		C84.127,217.566,84.12,217.482,84.114,217.398z"/>
	<path fill="#1D1D1B" d="M84.177,218.241L84.177,218.241c0.003,0.053,0.007,0.106,0.01,0.158
		C84.184,218.347,84.18,218.294,84.177,218.241z"/>
	<path fill="#1D1D1B" d="M75.326,219.026L75.326,219.026c0.011,0.152,0.021,0.304,0.031,0.456l0,0
		C75.348,219.33,75.337,219.177,75.326,219.026z"/>

		<ellipse transform="matrix(-0.9347 0.3554 -0.3554 -0.9347 221.0096 352.2802)" fill="#F01E2D" stroke="#000100" stroke-width="0.256" stroke-miterlimit="10" cx="78.152" cy="196.438" rx="0.907" ry="0.717"/>
	<path fill="#00B0E3" stroke="#000100" stroke-width="0.25" stroke-miterlimit="10" d="M80.492,233.617
		c-2.088,4.089-5.635,1.2-8.323,2.197c-0.34-1.377-0.682-2.756-1.021-4.134c2.684-1.035,5.489-1.776,8.321-2.196
		C79.81,230.861,80.15,232.239,80.492,233.617z"/>
	<path fill="#00B0E3" stroke="#000100" stroke-width="0.25" stroke-miterlimit="10" d="M71.198,231.876
		c0.188-3.57,0.344-6.827,0.552-10.341c0.474-0.137,1.387-0.931,1.863-1.043c1.791,2.987,5.394,9.064,5.394,9.064
		S76.827,234.603,71.198,231.876z"/>
	<path fill="#009EE2" stroke="#000100" stroke-width="0.5" stroke-miterlimit="10" d="M85.452,252.65
		c-1.734-7.114-3.473-14.215-5.208-21.26c-1.705,4.142-5.245,4.533-8.614,2.824c1.501,6.084,3.001,12.168,4.502,18.252
		C79.239,252.508,82.346,252.577,85.452,252.65z"/>
	<path fill="#00B0E3" stroke="#000100" stroke-width="0.25" stroke-miterlimit="10" d="M72.77,222.688
		c-0.438-0.027-0.912-0.088-0.933-0.631c-0.046-1.247,0.926-1.763,1.366-1.736c0.438,0.026,0.771,0.488,0.737,1.03
		C73.909,221.893,73.21,222.715,72.77,222.688z"/>
	<path fill="#1D1D1B" d="M73.681,243.119c0.005-0.057,0.024-0.112,0.064-0.16c0.098-0.115,0.271-0.129,0.385-0.031
		c0.004,0.003,0.918,0.688,3.886,0.188c2.978-0.499,3.838-3.094,3.873-3.204c0.047-0.144,0.2-0.223,0.343-0.177
		c0.144,0.045,0.225,0.198,0.179,0.341c-0.038,0.124-0.822,3.251-4.137,3.806c-3.217,0.541-4.393-0.451-4.496-0.54
		C73.709,243.286,73.676,243.202,73.681,243.119z"/>
	<path fill="#1D1D1B" d="M74.252,245.701c0.003-0.057,0.034-0.676,0.074-0.723c0.098-0.115,0.258,0.435,0.373,0.532
		c0.006,0.004,0.92,0.688,3.888,0.189c2.977-0.499,3.837-3.094,3.874-3.204c0.043-0.143,0.197-0.222,0.341-0.177
		s0.493,1.852,0.54,1.996c0.41,1.237-0.818,3.56-4.131,4.114c-3.218,0.54-4.33-0.787-4.436-0.875
		C74.709,247.495,74.247,245.783,74.252,245.701z"/>
	<path fill="#2DAB66" stroke="#000100" stroke-width="0.25" stroke-miterlimit="10" d="M105.148,229.707
		c-2.854-0.209-5.755-0.141-8.604,0.206c-0.009-1.419-0.021-2.839-0.031-4.258c2.85-0.385,5.752-0.454,8.604-0.205
		C105.128,226.869,105.138,228.288,105.148,229.707z"/>
	<path fill="#2DAB66" stroke="#000100" stroke-width="0.25" stroke-miterlimit="10" d="M96.982,225.594
		c1.014-3.43,2.029-6.847,3.047-10.217c0.492-0.023,0.984-0.035,1.479-0.034c1.047,3.322,2.097,6.689,3.139,10.068
		C102.102,225.22,99.523,225.281,96.982,225.594z"/>
	<path fill="#77B237" stroke="#000100" stroke-width="0.5" stroke-miterlimit="10" d="M105.458,252.717
		c-0.062-8.233-0.123-16.466-0.187-24.698c-2.941-0.243-5.939-0.172-8.88,0.211c0.062,8.202,0.122,16.404,0.185,24.605
		C99.537,252.851,102.498,252.815,105.458,252.717z"/>
	<path fill="#1D1D1B" d="M105.308,232.528c-2.944-0.2-5.939-0.127-8.882,0.211c0.003,0.32,0.005,0.64,0.007,0.959
		c2.94-0.33,5.938-0.401,8.883-0.212C105.313,233.167,105.312,232.848,105.308,232.528z"/>
	<path fill="#1D1D1B" d="M105.323,234.574c-2.942-0.178-5.939-0.107-8.882,0.211c-0.002-0.342-0.006-0.687-0.008-1.029
		c0.009,1.153,0.02,2.307,0.026,3.462c2.938-0.295,5.938-0.367,8.882-0.212C105.336,236.195,105.329,235.384,105.323,234.574z"/>
	<path fill="#1D1D1B" d="M96.433,233.699c0.001,0.018,0.001,0.037,0.001,0.057C96.434,233.736,96.434,233.717,96.433,233.699
		L96.433,233.699z"/>
	<path fill="#1D1D1B" d="M105.323,234.574c-0.003-0.362-0.006-0.724-0.008-1.087l0,0C105.317,233.85,105.32,234.211,105.323,234.574
		L105.323,234.574z"/>
	<path fill="#1D1D1B" d="M96.46,237.217c0,0.088,0.001,0.176,0.001,0.266C96.461,237.394,96.46,237.305,96.46,237.217L96.46,237.217
		z"/>
	<path fill="#1D1D1B" d="M105.342,237.005L105.342,237.005c0,0.084,0.001,0.169,0.001,0.254
		C105.343,237.175,105.342,237.09,105.342,237.005z"/>
	<path fill="#1D1D1B" d="M105.348,237.851L105.348,237.851c0,0.053,0,0.106,0.002,0.159
		C105.35,237.957,105.348,237.904,105.348,237.851z"/>
	<path fill="#1D1D1B" d="M96.466,238.062L96.466,238.062c0.001,0.153,0.001,0.305,0.004,0.458l0,0
		C96.467,238.367,96.467,238.214,96.466,238.062z"/>
	<path fill="#FAA240" stroke="#000100" stroke-width="0.25" stroke-miterlimit="10" d="M96.883,225.374
		c-2.854-0.17-5.755-0.06-8.6,0.326c-0.03-1.419-0.062-2.838-0.094-4.257c2.846-0.425,5.744-0.534,8.603-0.325
		C96.822,222.536,96.854,223.955,96.883,225.374z"/>
	<path fill="#FAA240" stroke="#000100" stroke-width="0.25" stroke-miterlimit="10" d="M88.661,221.376
		c0.964-3.444,1.931-6.875,2.901-10.259c0.492-0.029,0.985-0.047,1.479-0.054c1.095,3.307,2.188,6.659,3.277,10.023
		C93.773,220.931,91.197,221.029,88.661,221.376z"/>
	<path fill="#FA8800" stroke="#000100" stroke-width="0.5" stroke-miterlimit="10" d="M97.612,252.835
		c-0.209-9.717-0.418-19.434-0.627-29.15c-2.944-0.202-5.941-0.089-8.878,0.335c0.205,9.567,0.411,19.134,0.617,28.701
		C91.688,252.784,94.649,252.83,97.612,252.835z"/>
	<path fill="#1D1D1B" d="M97.082,228.193c-2.945-0.157-5.942-0.044-8.878,0.337c0.009,0.318,0.014,0.639,0.021,0.958
		c2.938-0.371,5.935-0.484,8.879-0.335C97.098,228.833,97.09,228.513,97.082,228.193z"/>
	<path fill="#1D1D1B" d="M88.301,233.005c2.936-0.336,5.933-0.45,8.879-0.336c-0.019-0.81-0.035-1.621-0.053-2.431
		c-2.945-0.138-5.942-0.024-8.879,0.335"/>
	<path fill="#1D1D1B" d="M88.225,229.488c0,0.02,0.002,0.038,0.002,0.056C88.227,229.526,88.225,229.507,88.225,229.488
		L88.225,229.488z"/>
	<path fill="#1D1D1B" d="M97.127,230.239c-0.008-0.362-0.018-0.724-0.023-1.086l0,0C97.111,229.515,97.119,229.876,97.127,230.239
		L97.127,230.239z"/>
	<path fill="#1D1D1B" d="M88.301,233.005c0.001,0.088,0.004,0.177,0.006,0.265C88.305,233.182,88.302,233.094,88.301,233.005
		L88.301,233.005z"/>
	<path fill="#1D1D1B" d="M97.18,232.669L97.18,232.669c0.002,0.085,0.003,0.169,0.005,0.254
		C97.183,232.838,97.182,232.754,97.18,232.669z"/>
	<path fill="#1D1D1B" d="M97.197,233.514L97.197,233.514c0.001,0.054,0.004,0.106,0.004,0.159
		C97.199,233.621,97.198,233.568,97.197,233.514z"/>
	<path fill="#1D1D1B" d="M88.318,233.85L88.318,233.85c0.004,0.153,0.009,0.305,0.014,0.458l0,0
		C88.325,234.155,88.322,234.002,88.318,233.85z"/>
	<path fill="#F2E500" stroke="#000100" stroke-width="0.25" stroke-miterlimit="10" d="M90.635,219.188
		c-2.861-0.059-5.755,0.164-8.581,0.66c-0.087-1.417-0.172-2.834-0.257-4.25c2.825-0.535,5.718-0.757,8.582-0.659
		C90.465,216.356,90.55,217.772,90.635,219.188z"/>
	<path fill="#F2E500" stroke="#000100" stroke-width="0.25" stroke-miterlimit="10" d="M82.264,215.512
		c0.827-3.478,1.664-6.945,2.503-10.363c0.489-0.049,0.982-0.085,1.475-0.112c1.223,3.262,2.445,6.569,3.667,9.889
		C87.354,214.869,84.784,215.067,82.264,215.512z"/>
	<path fill="#FFD400" stroke="#000100" stroke-width="0.5" stroke-miterlimit="10" d="M92.803,252.795
		c-0.711-11.767-1.421-23.533-2.131-35.299c-2.953-0.087-5.943,0.143-8.858,0.68c0.692,11.479,1.388,22.959,2.078,34.438
		C86.862,252.683,89.833,252.75,92.803,252.795z"/>
	<path fill="#1D1D1B" d="M90.945,221.997c-2.95-0.042-5.939,0.186-8.859,0.681c0.021,0.319,0.039,0.638,0.059,0.958
		c2.92-0.485,5.908-0.715,8.859-0.681C90.982,222.635,90.963,222.316,90.945,221.997z"/>
	<path fill="#1D1D1B" d="M91.067,224.04c-2.948-0.022-5.938,0.206-8.857,0.68c-0.021-0.342-0.042-0.686-0.062-1.028
		c0.069,1.151,0.143,2.304,0.21,3.456c2.921-0.45,5.909-0.679,8.857-0.68C91.166,225.658,91.115,224.849,91.067,224.04z"/>
	<path fill="#1D1D1B" d="M82.143,223.635c0.002,0.019,0.003,0.036,0.003,0.056C82.146,223.671,82.145,223.654,82.143,223.635
		L82.143,223.635z"/>
	<path fill="#1D1D1B" d="M91.067,224.04c-0.021-0.361-0.044-0.723-0.063-1.085l0,0C91.023,223.316,91.045,223.678,91.067,224.04
		L91.067,224.04z"/>
	<path fill="#1D1D1B" d="M82.355,227.146c0.004,0.088,0.009,0.176,0.018,0.265C82.364,227.323,82.359,227.235,82.355,227.146
		L82.355,227.146z"/>
	<path fill="#1D1D1B" d="M91.213,226.467L91.213,226.467c0.006,0.084,0.012,0.168,0.016,0.253
		C91.225,226.635,91.219,226.551,91.213,226.467z"/>
	<path fill="#1D1D1B" d="M91.264,227.311L91.264,227.311c0.004,0.053,0.006,0.106,0.011,0.158
		C91.27,227.417,91.268,227.363,91.264,227.311z"/>
	<path fill="#1D1D1B" d="M82.406,227.99L82.406,227.99c0.011,0.152,0.02,0.305,0.026,0.457l0,0
		C82.424,228.295,82.415,228.143,82.406,227.99z"/>
	<path fill="#FFCA00" stroke="#000100" stroke-width="0.5" stroke-miterlimit="10" d="M106.738,250.649
		c0,0-34.341,0.715-34.139,0.364c0.203-0.352,1.453,54.917,1.453,54.917h32.322L106.738,250.649z"/>
	<path opacity="0.26" fill="#FFFFFF" enable-background="new    " d="M105.641,251.527l-32.577,0.687
		c0,0,15.679,8.354,23.424,22.879c4.356,8.171,9.533,30.232,9.533,30.232L105.641,251.527z"/>
	<path fill="#ECB72C" stroke="#000100" stroke-width="0.5" stroke-miterlimit="10" d="M107.103,248.674c0,0-2.727,2.685-2.523,2.334
		c0.201-0.351,1.985,54.492,1.985,54.492l1.89-3.809L107.103,248.674z"/>

		<line fill="none" stroke="#000000" stroke-width="3" stroke-linecap="round" stroke-linejoin="round" stroke-miterlimit="10" x1="105.287" y1="289.395" x2="107.965" y2="290.896"/>
</g>
</svg>
