<?xml version="1.0" encoding="utf-8"?>
<!-- Generator: Adobe Illustrator 16.0.0, SVG Export Plug-In . SVG Version: 6.00 Build 0)  -->
<!DOCTYPE svg PUBLIC "-//W3C//DTD SVG 1.1//EN" "http://www.w3.org/Graphics/SVG/1.1/DTD/svg11.dtd">
<svg version="1.1" id="Layer_1" xmlns="http://www.w3.org/2000/svg" xmlns:xlink="http://www.w3.org/1999/xlink" x="0px" y="0px"
	 width="79.105px" height="172.172px" viewBox="0 0 79.105 172.172" enable-background="new 0 0 79.105 172.172"
	 xml:space="preserve">
<path fill="#F02323" stroke="#010101" stroke-width="0.5" stroke-miterlimit="10" d="M78.854,39.844
	c0.069,10.275-4.067,20.521-11.329,27.88c-3.604,3.698-7.98,6.645-12.751,8.646c-4.771,2.017-9.959,2.991-15.133,2.984
	c-5.166-0.026-10.33-1.086-15.076-3.103c-4.75-2.016-9.085-4.966-12.717-8.61c-3.621-3.656-6.552-7.998-8.533-12.749
	c-1.977-4.752-3.043-9.889-3.064-15.049C0.215,34.688,1.199,29.516,3.155,24.73c1.948-4.788,4.861-9.19,8.517-12.857
	c3.653-3.673,8.03-6.625,12.815-8.622c4.782-2.008,9.977-3.005,15.158-3.001c5.178,0.008,10.371,1.011,15.141,3.035
	c4.773,2.014,9.143,4.972,12.746,8.671C74.792,19.321,78.933,29.567,78.854,39.844z"/>
<path opacity="0.2" fill="#071C20" enable-background="new    " d="M77.516,29.592c-0.175-0.693-0.387-1.378-0.577-2.067
	c0.188,0.683,0.381,1.366,0.57,2.049c-3.484-12.496-13.351-22.785-25.7-26.769C62.283,7.848,70.311,17.51,73.398,28.712
	c3.395,12.317,0.609,26.014-7.333,36.022c-0.49,0.299-1.559,1.884-2.121,2.473c-1.589,1.657-3.269,3.212-5.096,4.604
	c-4.098,3.119-8.785,5.475-13.747,6.856c2.711,0.284,5.395-0.732,7.888-1.666c2.729-1.023,5.339-2.241,7.8-3.812
	c4.559-2.907,8.497-6.75,11.516-11.236C78.573,52.633,80.58,40.602,77.516,29.592C77.514,29.587,79.415,36.414,77.516,29.592z"/>
<path fill="#EEE7D1" d="M65.717,64.929c-13.096,7.75-31.098,6.464-42.191-4.326c-6.217-6.046-9.364-14.791-8.478-23.417
	c0.828-8.058,5.111-15.907,12.221-20.029c6.646-3.844,14.74-4.011,21.63-0.697c7.438,3.577,11.85,11.697,10.396,19.895
	c-1.363,7.698-7.801,13.923-15.871,13.448c-8.002-0.473-14.574-7.928-11.813-15.994c1.24-3.624,4.246-6.36,8.105-6.808
	c3.726-0.432,7.689,1.516,9.056,5.118c1.358,3.58-0.271,8.176-4.173,9.232c-3.888,1.058-8.349-2.335-6.699-6.52
	c-1.554,3.503,0.596,7.213,4.094,8.309c3.748,1.174,7.637-0.906,9.195-4.398c1.722-3.856,0.534-8.44-2.711-11.088
	c-2.855-2.331-6.956-3.009-10.454-1.965c-8.075,2.41-10.9,12.441-7.275,19.531c3.588,7.018,12.434,9.88,19.782,7.922
	c7.898-2.117,13.118-9.344,14.129-17.265c1.093-8.577-2.792-16.608-9.625-21.696c-12.696-9.453-31.896-5.008-40.215,8.006
	c-9.4,14.706-6.898,34.303,6.06,46.055c6.046,5.485,14.121,8.949,22.151,10.149c0.645,0.097,1.423,0.314,2.074,0.275
	c0.746-0.208,1.473-0.482,2.212-0.711c1.757-0.541,3.498-1.312,5.128-2.159c3.333-1.731,6.468-3.814,9.242-6.361
	c1.568-1.437,3.06-3.032,4.38-4.701C65.949,64.799,65.833,64.864,65.717,64.929z"/>
<path fill="#F02323" d="M74.739,36.745c-0.566-8.567-3.865-16.856-9.422-23.411c-2.701-3.186-5.858-6.041-9.417-8.244
	c-1.602-0.991-3.273-2.058-5.087-2.594c-2.17-0.641-4.396-1.093-6.646-1.349C29.488-0.525,14.781,6.473,6.794,18.874
	c-6.027,9.361-7.799,21.044-4.809,31.77C5.2,62.162,13.682,71.733,24.723,76.322C10.359,67.373,2.99,50.015,6.857,33.471
	c1.897-8.12,6.37-15.792,13.104-20.817c6.649-4.962,15.285-7.14,23.499-5.921c8.277,1.228,16.548,5.832,20.779,13.24
	c3.971,6.954,4.727,15.588,1.405,22.971C62.201,50.603,55,56.169,46.336,55.955c-8.238-0.204-16.177-5.281-17.882-13.693
	c-1.277-6.295,1.368-13.556,7.26-16.578c5.633-2.892,13.521-1.266,16.584,4.572c2.727,5.194,0.479,12.714-5.65,14.08
	c-5.456,1.215-11.453-3.84-8.742-9.527c-1.146,2.887,0.733,5.688,3.513,6.538c3.061,0.937,6.083-0.941,7.27-3.747
	c1.517-3.591-0.122-7.696-3.485-9.523c-3.771-2.049-8.591-1.208-11.446,1.995c-2.718,3.05-3.447,7.578-2.123,11.396
	c1.25,3.605,4.171,6.203,7.717,7.479c7.683,2.763,15.59-1.368,18.762-8.63c3.398-7.783,0.645-17.205-6.234-22.104
	c-6.147-4.38-14.409-5.297-21.417-2.597c-16.376,6.31-19.755,28.36-9.918,41.581C28.728,68.2,43.813,72.016,56.728,68.711
	c2.854-0.73,5.61-1.898,8.181-3.328c2.65-1.482,4.38-5.185,5.713-7.842C73.84,51.133,75.216,43.884,74.739,36.745
	C74.6,34.648,74.837,38.225,74.739,36.745z"/>
<path fill="#F1EBA1" d="M67.331,32.172c-0.239-7.517-3.943-14.666-9.958-19.178c-5.646-4.221-12.712-6.341-19.74-6.068
	C25.071,7.41,14.624,15.384,9.581,26.655c-5.908,13.271-3.864,29.538,5.522,40.727c2.124,2.528,4.507,4.812,7.177,6.754
	c2,1.455,3.953,2.362,6.325,3.071c5.117,1.545,11.194,2.437,16.39,0.999c-12.104-1.248-24.111-7.644-30.491-18.227
	C6.482,46.76,8.211,29.692,18.448,18.257c9.042-10.101,25.343-11.276,36.274-3.75c6.144,4.249,10.188,11.76,9.742,19.306
	c-0.389,6.603-3.217,13.099-8.866,16.867c-5.413,3.513-12.966,4.082-18.611,0.719c-3.443-2.05-6.114-4.938-7.208-8.884
	c-1.071-3.863-0.496-7.962,1.547-11.396c3.498-5.88,11.819-7.603,17.174-3.131c3.005,2.526,4.009,6.683,2.697,10.34
	c-1.085,3.02-3.973,5.182-7.21,5.146c-4.617-0.048-8.376-4.875-5.795-9.186c-1.759,2.937-0.896,6.945,1.965,8.851
	c2.841,1.912,6.692,1.798,9.434-0.224c2.697-1.985,3.971-5.559,3.615-8.828c-0.407-3.719-2.771-6.753-6.099-8.339
	c-6.375-3.065-13.278-0.231-16.833,5.52c-4.354,7.043-1.495,16.147,4.727,20.9c6.239,4.765,15.421,4.635,21.96,0.652
	C63.882,48.516,67.617,40.196,67.331,32.172C67.31,31.604,67.347,32.639,67.331,32.172z"/>
<path opacity="0.2" fill="#FFFFFF" enable-background="new    " d="M41.183,2.865C35.046,2.594,26.028,4.21,18.06,9.825
	c-5.59,3.909-9.479,8.958-11.96,13.651c-1.064,2.015-1.896,3.97-2.445,5.731c-1.91,5.927-1.735,9.773-1.811,9.748
	c0.023,0.012,0.157-0.472,0.447-1.334c0.258-0.772,0.644-1.848,1.188-3.159c0.418-1.004,0.931-2.146,1.552-3.386
	c0.172-0.344,0.352-0.694,0.542-1.053c0.473-0.911,1.032-1.866,1.642-2.841c0.788-1.258,1.71-2.556,2.727-3.865
	c0.991-1.277,2.049-2.559,3.255-3.825c2.095-2.198,4.514-4.335,7.26-6.255c4.044-2.85,8.295-4.875,12.283-6.238l0.001-0.001
	c0.931-0.318,1.841-0.589,2.736-0.837c1.789-0.495,3.484-0.852,5.062-1.094c0.25-0.038,0.516-0.088,0.759-0.121
	c1.248-0.175,2.396-0.291,3.441-0.37c1.434-0.108,2.666-0.144,3.641-0.147c1.654-0.004,2.592,0.081,2.586,0.043
	C50.964,4.555,47.405,3.081,41.183,2.865z"/>
<path fill="#C0B176" d="M45.398,75.82c-1.472-1.635-4.753-1.639-6.768-1.501c-1.126,0.082-6.564,1.067-4.4,3.09
	c1.331,1.243,3.797,1.424,5.528,1.411C40.718,78.82,47.442,78.104,45.398,75.82C45.19,75.589,45.604,76.051,45.398,75.82z"/>
<path fill="#C3996B" stroke="#010101" stroke-width="0.5" stroke-miterlimit="10" d="M42.673,168.999
	c0,1.614-1.308,2.924-2.924,2.924l0,0c-1.612,0-2.923-1.31-2.923-2.924V77.911c0-1.616,1.311-1.925,2.923-1.925l0,0
	c1.616,0,2.924,0.309,2.924,1.925V168.999z"/>
</svg>
