<?xml version="1.0" encoding="utf-8"?>
<!-- Generator: Adobe Illustrator 16.0.0, SVG Export Plug-In . SVG Version: 6.00 Build 0)  -->
<!DOCTYPE svg PUBLIC "-//W3C//DTD SVG 1.1//EN" "http://www.w3.org/Graphics/SVG/1.1/DTD/svg11.dtd">
<svg version="1.1" id="Layer_1" xmlns="http://www.w3.org/2000/svg" xmlns:xlink="http://www.w3.org/1999/xlink" x="0px" y="0px"
	 width="326.045px" height="551.457px" viewBox="0 0 326.045 551.457" enable-background="new 0 0 326.045 551.457"
	 xml:space="preserve">
<g id="body">
	<path fill="#1D1E1C" d="M298.397,329.38c-0.384-0.2-1.092-0.481-1.738-0.604c-5.131-1.517-6.076,1.307-7.841,4.021
		c-2.256,3.48-0.473,10.768-0.396,11.128l7.337,16.701c0.175,0.89,1.036,1.465,1.923,1.289c0.889-0.172,1.468-1.036,1.293-1.92
		l-7.229-16.146l0.474-0.934l21.318,23.254c0.564,0.708,1.594,0.828,2.301,0.268c0.424-0.336,0.633-0.834,0.618-1.34
		c-0.011-0.337-0.126-0.677-0.354-0.966l-21.864-24.271c-0.129-0.161-0.294-0.285-0.467-0.387c0.167-0.439,0.336-0.845,0.5-1.191
		l26.983,26.797c0.645,0.635,1.679,0.629,2.315-0.014c0.331-0.334,0.488-0.771,0.474-1.205c-0.012-0.402-0.173-0.805-0.483-1.113
		l-26.834-26.645c1.565-0.248,0.18-0.418,0.812,0.004l23.392,20.576c0.709,0.562,1.749,0.629,2.308-0.082
		c0.25-0.313,0.367-0.695,0.354-1.068c-0.016-0.467-0.227-0.92-0.617-1.234l-22.438-19.344l0.378-0.689l17.871,12.409
		c0.738,0.39,1.075,0.354,1.466-0.383c0.125-0.242,0.182-0.501,0.174-0.755c-0.02-0.521-0.309-1.023-0.807-1.287l-20.719-14.612
		c-0.069-0.028-0.126-0.064-0.196-0.098L298.397,329.38z"/>
	<path fill="none" stroke="#000100" stroke-width="4.252" stroke-linecap="round" stroke-linejoin="round" d="M273.249,227.453
		c0,0,10.771,40.11,12.545,54.355c1.442,11.59,5.457,50.19,5.457,50.19"/>
	
		<line fill="none" stroke="#000100" stroke-width="5.6693" stroke-linecap="round" stroke-linejoin="round" x1="208.7" y1="379.533" x2="206.031" y2="515.433"/>
	
		<line fill="none" stroke="#000100" stroke-width="5.6693" stroke-linecap="round" stroke-linejoin="round" x1="247.486" y1="383.857" x2="248.261" y2="515.45"/>
	<g>
		<path fill="#000100" stroke="#000100" stroke-width="4.0304" d="M222.338,182.24c0-3.265-0.145-6.594-0.281-9.812
			c-0.137-3.262-0.284-6.632-0.284-9.979l0,0c0-1.262,1.261-1.235,2.808-1.235c1.549,0,2.804-0.027,2.804,1.235l0,0
			c0,3.269,0.144,6.6,0.282,9.821c0.142,3.26,0.28,6.627,0.28,9.971l0,0c0,1.26-1.253,2.28-2.803,2.28
			C223.593,184.521,222.338,183.5,222.338,182.24L222.338,182.24z"/>
	</g>
	<path fill="none" stroke="#000100" stroke-width="4" stroke-linecap="round" stroke-linejoin="round" d="M174.511,237.523
		c0,0-4.182,54.18-9.932,71.427c-1.852,5.55-41.812,5.927-41.812,5.927"/>
	<path fill="#FF0092" stroke="#000000" stroke-width="2.8347" stroke-linecap="round" stroke-linejoin="round" d="M261.751,248.489
		c-2.348-10.64-0.941-0.943,8.837-9.785c14.956-13.522,15.175-17.841,16.243-23.038c-2.553-2.061-5.51-18.175-26.791-30.523
		c-5.396-3.132-20.416-9.293-30.204-12.333c-2.521,11.007-10.72,4.394-9.937-0.601c-4.629,2.227-30.876,10.954-39.045,16.875
		c-8.949,6.494-15.429,40.096-17.541,42.692c7.27,9.055,19.753,12.569,26.134,15.68c1.567-5.227,2.911-10.639,2.911-10.639
		c0.461,1.524-0.848,13.15-1.453,17.307c-4.923,33.851-11.072,145.167-11.981,147.72c2.091,0.438,98.014-0.143,101.63,0.743
		c0.354-3.04,0.175-5.981-0.101-8.958C277.184,358.287,268.714,280.027,261.751,248.489z"/>
	<path fill="#000100" d="M292.539,77.633c-8.874,46.536,16.602,79.783,16.602,79.783s-6.451-17.924-6.456-40.184
		C302.677,87.194,296.596,56.368,292.539,77.633z"/>
	
		<circle id="colour" fill="#C5FF00" stroke="#000100" stroke-width="3" stroke-miterlimit="10" cx="224.46" cy="96.188" r="64.175"/>
	<path fill="#000100" d="M291.392,55.629c-13.229-18.224-36.123-35.577-66.869-35.577c-15.738,0-30.194,4.552-44.701,13.831
		c-39.751,25.423-38.44,72.875-29.371,95.975c4.257,10.843,3.043,39.718,9.556,35.92c16.725-9.756,43.903-7.666,43.903-7.666
		s-14.636-6.272-21.432-13.633c-1.537-1.664-5.957-6.827-5.957-6.827c0.346-0.797-1.371-0.866-4.758-4.442
		c-1.215-1.284-1.053-2.852-2.586-4.541c-5.129-7.208-8.593-21.368-6.272-37.33c3.171-21.824,11.688-27.76,15.189-31.507
		c0,0-1.698,2.514-4.821,9.117c-2.122,4.487-3.421,10.836-3.421,10.836s27.37-14.771,52.388-16.688
		c15.268-1.171,28.041,0.257,36.214,2.476c2.198,0.597,25.938,21.555,19.92,52.229c-3.589,18.297-34.043,45.188-34.043,45.188
		c12.544,1.394,47.017,0.609,53.658-2.788c10.32-5.278,2.091-19.513,3.438-32.744C303.348,108.555,306.07,75.856,291.392,55.629z"/>
	<path fill="#000100" d="M143.979,160.9c0,0,22.299-11.15,17.188-94.648c-0.855-14.01-18.584,21.474-14.403,47.957
		C152.111,148.064,143.979,160.9,143.979,160.9z"/>
	
		<line fill="none" stroke="#000000" stroke-width="2.8347" stroke-linecap="round" stroke-linejoin="round" x1="255.828" y1="231.251" x2="261.055" y2="243.795"/>
	<path fill="#FF0092" stroke="#000000" stroke-width="2.8347" stroke-linecap="round" stroke-linejoin="round" d="M237.36,37.551
		c5.472,1.772,9.062-4.182,15.333-0.697c11.999,6.667,19.513,16.517,19.513,16.517s8.608-16.94,0.695-24.182
		c-3.118-2.855-23.326,5.881-25.088,2.09C238.754,11.767,232.801,36.073,237.36,37.551z"/>
	<path fill="#FCEE21" stroke="#000100" stroke-width="4.252" stroke-linecap="round" stroke-linejoin="round" d="M223.113,550.457
		c5.033-11.995-5.014-28.057-16.854-35.006c0,0-39.861,5.467-50.111,14.673c-7.513,6.744-8.154,14.202-4.09,20.333H223.113z"/>
	<polygon fill="#040404" points="224.948,550.457 151.776,550.457 148.64,544.185 224.948,544.185 	"/>
	<path fill="#FCEE21" stroke="#000100" stroke-width="4.252" stroke-linecap="round" stroke-linejoin="round" d="M230.691,549.412
		c-5.031-11.995,5.017-28.057,16.851-35.006c0,0,39.866,5.467,50.112,14.673c7.508,6.744,8.155,14.202,4.091,20.333H230.691z"/>
	<polygon fill="#040404" points="228.855,550.457 303.483,550.457 305.162,544.185 228.855,544.185 	"/>
	
		<path fill="none" stroke="#040404" stroke-width="4.252" stroke-linecap="round" stroke-linejoin="round" stroke-miterlimit="10" d="
		M189.355,517.501c8.559,2.069,11.042,11.55,11.042,11.55"/>
	
		<path fill="none" stroke="#040404" stroke-width="4.252" stroke-linecap="round" stroke-linejoin="round" stroke-miterlimit="10" d="
		M178.577,521.713c8.728,1.164,11.146,10.443,11.146,10.443"/>
	
		<path fill="none" stroke="#040404" stroke-width="4.252" stroke-linecap="round" stroke-linejoin="round" stroke-miterlimit="10" d="
		M271.406,518.547c-9.564,2.312-12.34,12.908-12.34,12.908"/>
	
		<path fill="none" stroke="#040404" stroke-width="4.252" stroke-linecap="round" stroke-linejoin="round" stroke-miterlimit="10" d="
		M280.878,521.713c-8.729,1.164-11.145,10.443-11.145,10.443"/>
	<circle fill="#000100" stroke="#000100" stroke-width="3" cx="243.247" cy="89.633" r="2.677"/>
	<circle fill="#000100" stroke="#000100" stroke-width="3" cx="206.475" cy="89.634" r="2.679"/>
</g>
<path id="smile_normal" d="M225.366,144.963c-10.648,0-19.853-5.392-26.893-12.015c-0.676-0.631-0.472-1.754,0.229-2.356
	c1-0.861,3.618,1.803,4.377,2.335c6.68,4.763,13.794,8.457,23.195,8.427c7.864-0.021,16.309-4.839,21.013-9.365
	c0.671-0.637,1.548-1.054,2.289-0.501c0.743,0.546,0.237,1.619-0.386,2.31c-5.312,5.941-12.926,10.892-22.802,11.155
	C226.048,144.959,225.708,144.963,225.366,144.963z"/>
<path id="smile_happy" fill="#000100" d="M217.736,143.988c-22.571-6.276-28.307-24.28-29.811-28.757l0,0
	c-0.303-0.866-0.062-1.926,0.544-2.352l0,0c0.609-0.433,1.349-0.08,1.649,0.788l0,0c1.562,4.331,6.312,20.613,28.085,26.874l0,0
	c2.136,0.604,4.396,0.913,6.712,0.913l0,0c13.213,0,27.934-9.973,32.915-29.933l0,0c0.229-0.913,0.931-1.386,1.567-1.06l0,0
	c0.632,0.326,0.972,1.329,0.743,2.246l0,0c-5.494,21.757-21.236,32.252-35.227,32.252l0,0
	C222.458,144.963,220.038,144.639,217.736,143.988L217.736,143.988z"/>
<path id="nothing" fill="#000100" d="M118.031,318.801c0.404-0.115,1.075-0.38,1.605-0.678c4.53-2.117,3.061-3.77,2.198-5.8
	c-1.096-2.609-7.707-4.605-8.024-4.718l-16.241-0.893c-0.778-0.266-1.78-0.041-2.238,0.5c-0.458,0.545-0.199,1.203,0.574,1.466
	l15.75,0.728l0.376,0.631l-31.464,1.96c-0.901,0.019-1.677,0.519-1.724,1.119c-0.028,0.36,0.2,0.675,0.588,0.866
	c0.252,0.133,0.587,0.207,0.948,0.197l32.592-1.84c0.197-0.004,0.407-0.041,0.59-0.092c0.217,0.268,0.415,0.518,0.558,0.748
	l-37.268,2.658c-0.895,0.084-1.584,0.64-1.53,1.242c0.029,0.31,0.254,0.568,0.589,0.737c0.309,0.152,0.361,0.282,1.151,0.194
	l37.053-2.637c-0.854,0.938,0.196,0.267-0.545,0.428l-30.777,3.109c-0.895,0.151-1.633,0.674-1.474,1.265
	c0.063,0.261,0.274,0.476,0.562,0.62c0.356,0.183,0.836,0.252,1.328,0.169l29.246-3.095l-2.951,0.648L92.615,320.8
	c-0.779,0.239-2.93,0.888-1.627,1.773c0.151,0.108,0.254,0.296,0.446,0.396c0.399,0.198,0.968,0.247,1.492,0.09l24.582-4.091
	c0.062-0.022,0.137-0.041,0.197-0.065L118.031,318.801z"/>
<g id="flowers">
	<path fill="#000100" d="M123.362,313.688c-1.048-2.498-7.373-4.405-7.677-4.508l-3.508-0.193l0.694,1.884l0.757,0.035l0.362,0.601
		l-0.865,0.055l0.816,2.213l0.944-0.056c0.196-0.004,0.39-0.038,0.571-0.088c0.207,0.256,0.389,0.496,0.531,0.715l-1.789,0.128
		l0.754,2.041l1.027-0.072c-0.187,0.203-0.271,0.317-0.311,0.392c-0.038-0.006-0.1-0.004-0.211,0.021l-0.369,0.037l1.337,3.621
		l2.779-0.463c0.064-0.023,0.128-0.039,0.194-0.061l0.31-0.098c0.387-0.115,1.035-0.369,1.536-0.652
		C125.585,317.209,124.178,315.636,123.362,313.688z"/>
	<g>
		<g>
			
				<path fill="#39A935" stroke="#000000" stroke-width="0.25" stroke-linecap="round" stroke-linejoin="round" stroke-miterlimit="10" d="
				M116.56,337.312c-2.421-10.271-6.798-58.927-10.076-67.746c-1.938-5.189-2.724-10.17-2.354-14.801
				c0.467-5.82,2.78-11.103,6.873-15.706l1.413,0.409c-8.952,10.065-7.284,21.706-4.312,29.699
				c3.237,8.702,10.475,67.773,10.36,67.809C118.106,337.062,116.706,337.941,116.56,337.312z"/>
			<circle fill="#1B4A11" stroke="#000000" stroke-width="0.5" stroke-miterlimit="10" cx="105.663" cy="239.628" r="16.626"/>
			
				<path fill="#E2DE00" stroke="#000000" stroke-width="0.5" stroke-linecap="round" stroke-linejoin="round" stroke-miterlimit="10" d="
				M113.061,209.233c-2.796-1.496-6.887-0.674-7.931-0.428c0,0-5.127-1.253-8.288,0.59c-13.83,8.074,2.729,22.215,4.248,23.424
				c2.205,1.748,3.442,6.582,3.442,6.582l1.879-0.037c0,0,1.101-4.744,3.238-6.569C111.13,231.529,127.167,216.806,113.061,209.233z
				"/>
			
				<path fill="#E2DE00" stroke="#000000" stroke-width="0.5" stroke-linecap="round" stroke-linejoin="round" stroke-miterlimit="10" d="
				M77.968,223.499c-2.287,2.193-2.771,6.336-2.854,7.406c0,0-2.778,4.494-2,8.066c3.398,15.644,21.967,4.266,23.592,3.193
				c2.341-1.554,7.319-1.236,7.319-1.236l0.548-1.803c0,0-4.177-2.51-5.247-5.107C98.578,232.224,89.527,212.421,77.968,223.499z"/>
			
				<path fill="#E2DE00" stroke="#000000" stroke-width="0.5" stroke-linecap="round" stroke-linejoin="round" stroke-miterlimit="10" d="
				M80.691,261.276c1.381,2.854,5.171,4.591,6.161,5.006c0,0,3.416,4.031,7.057,4.396c15.932,1.595,10.852-19.578,10.325-21.447
				c-0.756-2.711,1.085-7.348,1.085-7.348l-1.54-1.079c0,0-3.679,3.195-6.483,3.417C95.359,244.371,73.731,246.862,80.691,261.276z"
				/>
			
				<path fill="#E2DE00" stroke="#000000" stroke-width="0.5" stroke-linecap="round" stroke-linejoin="round" stroke-miterlimit="10" d="
				M117.462,270.362c3.141-0.43,5.966-3.502,6.66-4.314c0,0,4.892-1.998,6.362-5.349c6.442-14.655-15.263-16.368-17.205-16.449
				c-2.812-0.122-6.651-3.302-6.651-3.302l-1.5,1.131c0,0,1.897,4.486,1.246,7.221C105.912,251.19,101.603,272.528,117.462,270.362z
				"/>
			
				<path fill="#E2DE00" stroke="#000000" stroke-width="0.5" stroke-linecap="round" stroke-linejoin="round" stroke-miterlimit="10" d="
				M137.468,238.199c0.56-3.122-1.487-6.756-2.045-7.672c0,0-0.395-5.267-3.121-7.703c-11.952-10.652-20.287,9.463-20.963,11.284
				c-0.985,2.634-5.195,5.301-5.195,5.301l0.614,1.783c0,0,4.852-0.426,7.251,1.043
				C115.662,243.254,134.629,253.952,137.468,238.199z"/>
			<path d="M104.511,237.401c-0.767-15.438-0.085-22.559-0.085-22.559S105.028,223.044,104.511,237.401z"/>
			<path d="M101.909,239.159c-14.919-4.043-21.485-6.896-21.485-6.896S88.41,234.23,101.909,239.159z"/>
			<path d="M102.778,242.171c-8.456,12.941-13.196,18.303-13.196,18.303S93.912,253.486,102.778,242.171z"/>
			<path d="M105.905,242.283c9.7,12.04,13.337,18.204,13.337,18.204S113.928,254.203,105.905,242.283z"/>
			<path d="M106.983,239.335c14.444-5.5,21.43-7.049,21.43-7.049S120.797,235.392,106.983,239.335z"/>
			<g>
				<circle fill="#F22C2C" cx="106.013" cy="241.681" r="9.104"/>
				<path d="M115.014,240.158c0,0,0.027,0.222,0.081,0.638c0.036,0.207,0.045,0.466,0.049,0.771
					c0.021,0.307,0.002,0.656-0.035,1.048c-0.086,0.776-0.225,1.737-0.657,2.755c-0.423,1.014-1.068,2.114-2.055,3.071
					c-0.983,0.948-2.281,1.761-3.8,2.187c-0.385,0.098-0.764,0.186-1.174,0.249c-0.396,0.036-0.783,0.097-1.205,0.079
					c-0.834,0.023-1.663-0.115-2.486-0.326c-0.823-0.219-1.608-0.59-2.366-1.016c-0.75-0.447-1.426-1.021-2.048-1.65
					c-0.612-0.643-1.128-1.384-1.551-2.179c-0.408-0.809-0.683-1.667-0.865-2.569c-0.142-0.871-0.191-1.807-0.096-2.706
					c0.115-0.899,0.338-1.785,0.689-2.616c0.723-1.654,1.918-3.057,3.35-4.017c1.428-0.963,3.102-1.452,4.648-1.537
					c1.604-0.083,3.082,0.267,4.326,0.845c1.243,0.586,2.219,1.413,2.947,2.233c0.745,0.819,1.193,1.681,1.528,2.387
					c0.163,0.358,0.296,0.683,0.377,0.978c0.096,0.289,0.173,0.537,0.207,0.745C114.968,239.938,115.014,240.158,115.014,240.158z
					 M114.965,240.165c0,0-0.052-0.217-0.146-0.623c-0.038-0.205-0.118-0.449-0.221-0.734c-0.086-0.291-0.226-0.609-0.394-0.961
					c-0.644-1.394-2.12-3.248-4.557-4.283c-1.202-0.51-2.637-0.783-4.104-0.717c-1.515,0.087-3.044,0.576-4.414,1.462
					c-1.367,0.887-2.516,2.203-3.235,3.764c-0.357,0.78-0.598,1.62-0.734,2.482c-0.119,0.87-0.104,1.731,0.014,2.629
					c0.156,0.853,0.406,1.714,0.787,2.505c0.396,0.785,0.883,1.522,1.473,2.167c1.2,1.269,2.753,2.147,4.365,2.513
					c1.598,0.381,3.256,0.258,4.681-0.15c1.435-0.443,2.682-1.176,3.649-2.061c1.954-1.787,2.741-4.023,2.887-5.552
					c0.043-0.388,0.068-0.733,0.054-1.035c0.001-0.302-0.002-0.56-0.033-0.767C114.989,240.387,114.965,240.165,114.965,240.165z"/>
			</g>
		</g>
		<g>
			
				<path fill="#39A935" stroke="#000000" stroke-width="0.5" stroke-linecap="round" stroke-linejoin="round" stroke-miterlimit="10" d="
				M116.889,330.544c-0.1,0.002-1.421-30.483-3.009-37.698c-0.936-4.242-1.007-8.199-0.215-11.761
				c0.996-4.473,3.368-8.328,7.053-11.459l1.053,0.473c-8.054,6.851-8.026,16.078-6.587,22.613c1.567,7.115,4.148,37.74,4.057,37.75
				C118.951,330.494,117.393,330.539,116.889,330.544z"/>
			<circle fill="#A2008B" stroke="#000000" stroke-miterlimit="10" cx="116.507" cy="269.486" r="13.049"/>
			
				<path fill="#EB008B" stroke="#000000" stroke-width="0.5" stroke-linecap="round" stroke-linejoin="round" stroke-miterlimit="10" d="
				M125.565,246.665c-2.007-1.467-5.275-1.271-6.114-1.195c0,0-3.851-1.533-6.51-0.443c-11.625,4.77-0.298,17.563,0.754,18.67
				c1.521,1.601,1.956,5.489,1.956,5.489l1.469,0.177c0,0,1.371-3.568,3.23-4.755C121.638,263.786,135.705,254.087,125.565,246.665z
				"/>
			
				<path fill="#EB008B" stroke="#000000" stroke-width="0.5" stroke-linecap="round" stroke-linejoin="round" stroke-miterlimit="10" d="
				M96.736,253.931c-2.018,1.457-2.84,4.625-3.026,5.449c0,0-2.646,3.189-2.432,6.051c0.941,12.529,16.612,5.709,17.99,5.051
				c1.987-0.95,5.822-0.162,5.822-0.162l0.624-1.34c0,0-2.974-2.408-3.525-4.543C111.806,262.958,106.925,246.58,96.736,253.931z"/>
			
				<path fill="#EB008B" stroke="#000000" stroke-width="0.5" stroke-linecap="round" stroke-linejoin="round" stroke-miterlimit="10" d="
				M94.739,283.595c0.762,2.368,3.521,4.132,4.246,4.562c0,0,2.213,3.506,5.006,4.186c12.206,2.974,10.563-14.036,10.36-15.547
				c-0.291-2.188,1.643-5.592,1.643-5.592l-1.081-1.007c0,0-3.204,2.08-5.408,1.949C107.979,272.051,90.896,271.631,94.739,283.595z
				"/>
			
				<path fill="#EB008B" stroke="#000000" stroke-width="0.5" stroke-linecap="round" stroke-linejoin="round" stroke-miterlimit="10" d="
				M122.33,294.66c2.485,0.007,5.019-2.073,5.648-2.628c0,0,4.018-1.021,5.526-3.466c6.6-10.689-10.083-14.386-11.584-14.659
				c-2.171-0.4-4.812-3.29-4.812-3.29l-1.291,0.716c0,0,0.991,3.693,0.184,5.747C115.445,278.501,109.766,294.617,122.33,294.66z"/>
			
				<path fill="#EB008B" stroke="#000000" stroke-width="0.5" stroke-linecap="round" stroke-linejoin="round" stroke-miterlimit="10" d="
				M141.382,271.837c0.775-2.361-0.42-5.412-0.752-6.186c0,0,0.268-4.137-1.59-6.326c-8.127-9.581-16.797,5.146-17.521,6.488
				c-1.05,1.939-4.615,3.556-4.615,3.556l0.283,1.452c0,0,3.817,0.197,5.521,1.6C123.885,273.394,137.46,283.773,141.382,271.837z"
				/>
			
				<circle fill="#F8B133" stroke="#000000" stroke-width="0.5" stroke-linecap="round" stroke-linejoin="round" stroke-miterlimit="10" cx="116.554" cy="271.12" r="7.145"/>
			<path d="M115.853,267.63c1.086-12.083,2.393-17.544,2.393-17.544S117.818,256.524,115.853,267.63z"/>
			<path d="M113.64,268.712c-11.156-4.768-15.949-7.701-15.949-7.701S103.684,263.411,113.64,268.712z"/>
			<path d="M113.984,271.147c-7.979,9.137-12.25,12.789-12.25,12.789S105.864,278.979,113.984,271.147z"/>
			<path d="M116.406,271.575c6.228,10.414,8.379,15.602,8.379,15.602S121.345,281.716,116.406,271.575z"/>
			<path d="M117.562,269.401c11.828-2.701,17.426-3.146,17.426-3.146S128.732,267.841,117.562,269.401z"/>
		</g>
		<g>
			<path fill="#A2008B" stroke="#000000" stroke-miterlimit="10" d="M77.202,280.298c4.792,5.845,13.59,6.612,19.652,1.716
				c6.063-4.897,7.09-13.604,2.303-19.45c-4.792-5.844-13.591-6.61-19.652-1.715C73.443,265.748,72.411,274.453,77.202,280.298z"/>
			
				<path fill="#39A935" stroke="#000000" stroke-width="0.25" stroke-linecap="round" stroke-linejoin="round" stroke-miterlimit="10" d="
				M123.343,331.073c0.081-0.066-13.26-36.183-16.92-43.007c-2.154-4.017-4.818-7.193-7.92-9.457
				c-3.899-2.837-8.506-4.221-13.688-4.11l-0.542,1.113c11.337-0.238,17.67,7.082,20.985,13.266
				c3.609,6.729,16.716,43.271,16.797,43.213C122.659,331.691,122.925,331.426,123.343,331.073z"/>
			
				<path fill="#ED7905" stroke="#000000" stroke-width="0.5" stroke-linecap="round" stroke-linejoin="round" stroke-miterlimit="10" d="
				M65.025,259.737c0.642-2.572,3.461-4.713,4.202-5.239c0,0,2.11-3.919,5.043-4.923c12.841-4.393,12.341,13.686,12.236,15.3
				c-0.148,2.333,2.171,5.718,2.171,5.718l-1.082,1.17c0,0-3.584-1.859-5.931-1.492C80.038,270.524,61.8,272.731,65.025,259.737z"/>
			
				<path fill="#ED7905" stroke="#000000" stroke-width="0.5" stroke-linecap="round" stroke-linejoin="round" stroke-miterlimit="10" d="
				M93.722,245.238c2.661-0.265,5.521,1.662,6.236,2.187c0,0,4.373,0.664,6.166,3.078c7.854,10.574-9.724,16.184-11.309,16.63
				c-2.291,0.646-4.896,3.962-4.896,3.962l-1.438-0.623c0,0,0.788-3.992-0.229-6.067C87.55,262.964,80.285,246.579,93.722,245.238z"
				/>
			
				<path fill="#ED7905" stroke="#000000" stroke-width="0.5" stroke-linecap="round" stroke-linejoin="round" stroke-miterlimit="10" d="
				M115.787,267.304c1.005,2.408-0.052,5.74-0.352,6.59c0,0,0.593,4.329-1.232,6.827c-7.983,10.928-18.346-3.685-19.218-5.021
				c-1.27-1.938-5.2-3.271-5.2-3.271l0.192-1.555c0,0,4.067-0.605,5.79-2.26C96.953,267.472,110.705,255.14,115.787,267.304z"/>
			
				<path fill="#ED7905" stroke="#000000" stroke-width="0.5" stroke-linecap="round" stroke-linejoin="round" stroke-miterlimit="10" d="
				M100.729,295.438c-2.039,1.752-5.552,1.885-6.454,1.888c0,0-4.005,2.015-6.928,1.143c-12.786-3.819-1.619-18.463-0.573-19.733
				c1.51-1.84,1.688-5.982,1.688-5.982l1.553-0.339c0,0,1.729,3.614,3.81,4.674C95.262,277.814,111.025,286.579,100.729,295.438z"/>
			
				<path fill="#ED7905" stroke="#000000" stroke-width="0.5" stroke-linecap="round" stroke-linejoin="round" stroke-miterlimit="10" d="
				M69.357,290.764c-2.266-1.326-3.383-4.578-3.641-5.426c0,0-3.067-3.084-3.054-6.12c0.085-13.285,17.352-7.727,18.87-7.173
				c2.2,0.798,6.239-0.429,6.239-0.429l0.771,1.348c0,0-3.002,2.838-3.438,5.146C84.807,279.704,80.796,297.451,69.357,290.764z"/>
			<path d="M87.44,269.503c-9.21-8.797-14.042-12.203-14.042-12.203S78.181,262.097,87.44,269.503z"/>
			<path d="M90.005,268.805c5.887-11.605,7.808-17.294,7.808-17.294S94.535,257.617,90.005,268.805z"/>
			<path d="M91.399,270.974c12.851,1.625,18.873,1.517,18.873,1.517S103.463,271.466,91.399,270.974z"/>
			<path d="M89.702,273.012c2.054,12.614,3.854,18.231,3.854,18.231S92.624,284.503,89.702,273.012z"/>
			<path d="M87.255,272.106c-11.579,6.166-16.485,9.748-16.485,9.748S77.001,278.714,87.255,272.106z"/>
			
				<path fill="#FCEE21" stroke="#000000" stroke-width="0.5" stroke-linecap="round" stroke-linejoin="round" stroke-miterlimit="10" d="
				M83.258,277.609c2.624,3.201,7.438,3.623,10.759,0.938c3.321-2.684,3.885-7.448,1.262-10.647
				c-2.624-3.2-7.438-3.623-10.762-0.939C81.197,269.644,80.634,274.411,83.258,277.609z"/>
		</g>
		<g>
			
				<path fill="#39A935" stroke="#000000" stroke-width="0.25" stroke-linecap="round" stroke-linejoin="round" stroke-miterlimit="10" d="
				M112.816,327.484c0.475-9.473,8.839-52.565,8.211-61.001c-0.375-4.961,0.188-9.458,1.66-13.363
				c1.857-4.908,5.173-8.892,9.854-11.843l1.117,0.706c-10.24,6.455-11.704,16.92-11.136,24.561
				c0.623,8.32-7.875,61.122-7.979,61.123C114.21,327.652,112.785,328.062,112.816,327.484z"/>
			<path fill="#1B4A11" stroke="#000000" stroke-miterlimit="10" d="M142.636,242.131c-0.937,8.198-8.339,14.085-16.539,13.147
				c-8.199-0.938-14.086-8.341-13.15-16.539c0.938-8.199,8.342-14.084,16.54-13.146
				C137.689,226.528,143.573,233.932,142.636,242.131z"/>
			
				<path fill="#B8FF2B" stroke="#000000" stroke-width="0.5" stroke-linecap="round" stroke-linejoin="round" stroke-miterlimit="10" d="
				M141.763,216.042c-2.041-1.99-5.775-2.299-6.739-2.348c0,0-4.112-2.362-7.302-1.561c-13.953,3.518-3.188,19.859-2.18,21.283
				c1.467,2.058,1.329,6.539,1.329,6.539l1.634,0.438c0,0,2.132-3.82,4.436-4.862C134.531,234.808,152.052,226.1,141.763,216.042z"
				/>
			
				<path fill="#B8FF2B" stroke="#000000" stroke-width="0.5" stroke-linecap="round" stroke-linejoin="round" stroke-miterlimit="10" d="
				M107.908,219.598c-2.521,1.323-3.974,4.78-4.312,5.685c0,0-3.521,3.183-3.739,6.463c-0.972,14.352,17.896,9.166,19.566,8.644
				c2.407-0.756,6.629,0.761,6.629,0.761l0.924-1.418c0,0-2.98-3.21-3.257-5.72C123.524,232.274,120.652,212.921,107.908,219.598z"
				/>
			
				<path fill="#B8FF2B" stroke="#000000" stroke-width="0.5" stroke-linecap="round" stroke-linejoin="round" stroke-miterlimit="10" d="
				M100.829,252.892c0.479,2.807,3.317,5.253,4.068,5.857c0,0,1.943,4.334,4.992,5.557c13.354,5.354,14.254-14.19,14.27-15.938
				c0.024-2.528,2.771-6.072,2.771-6.072l-1.062-1.316c0,0-3.973,1.841-6.452,1.331C117.713,241.958,98.417,238.71,100.829,252.892z
				"/>
			
				<path fill="#B8FF2B" stroke="#000000" stroke-width="0.5" stroke-linecap="round" stroke-linejoin="round" stroke-miterlimit="10" d="
				M130.308,269.913c2.814,0.412,6.021-1.535,6.825-2.062c0,0,4.721-0.505,6.825-3.029c9.221-11.044-9.089-17.94-10.744-18.495
				c-2.396-0.806-4.92-4.51-4.92-4.51l-1.577,0.604c0,0,0.521,4.346-0.729,6.541C125.12,250.48,116.073,267.823,130.308,269.913z"/>
			
				<path fill="#B8FF2B" stroke="#000000" stroke-width="0.5" stroke-linecap="round" stroke-linejoin="round" stroke-miterlimit="10" d="
				M155.603,247.14c1.265-2.554,0.404-6.203,0.152-7.134c0,0,0.974-4.644-0.773-7.427c-7.657-12.18-19.876,3.104-20.914,4.509
				c-1.507,2.026-5.807,3.278-5.807,3.278l0.085,1.691c0,0,4.296,0.844,5.998,2.711C135.521,246.063,149.221,260.03,155.603,247.14z
				"/>
			<path d="M127.352,238.226c3.194-13.518,5.559-19.496,5.559-19.496S131.381,225.958,127.352,238.226z"/>
			<path d="M124.667,239.093c-11.869-7.213-16.824-11.314-16.824-11.314S114.244,231.47,124.667,239.093z"/>
			<path d="M124.664,241.911c-10.528,9.059-15.96,12.504-15.96,12.504S114.189,249.466,124.664,241.911z"/>
			<path d="M127.338,242.787c5.366,12.815,6.967,19.043,6.967,19.043S131.289,255.08,127.338,242.787z"/>
			<path d="M129.005,240.511c13.84-1.142,20.256-0.736,20.256-0.736S141.911,240.556,129.005,240.511z"/>
			
				<circle fill="#F22C2C" stroke="#000000" stroke-width="0.5" stroke-linecap="round" stroke-miterlimit="10" cx="127.579" cy="242.295" r="8.181"/>
		</g>
	</g>
	
		<line fill="none" stroke="#000000" stroke-width="3" stroke-linecap="round" stroke-linejoin="round" stroke-miterlimit="10" x1="108.751" y1="310.626" x2="112.751" y2="310.337"/>
	
		<line fill="none" stroke="#000000" stroke-width="3" stroke-linecap="round" stroke-linejoin="round" stroke-miterlimit="10" x1="114.432" y1="309.023" x2="117.858" y2="311.548"/>
	
		<line fill="none" stroke="#000000" stroke-width="3" stroke-linecap="round" stroke-linejoin="round" stroke-miterlimit="10" x1="109.501" y1="313.413" x2="114.835" y2="313.124"/>
	
		<line fill="none" stroke="#000000" stroke-width="3" stroke-linecap="round" stroke-linejoin="round" stroke-miterlimit="10" x1="111.001" y1="316.246" x2="115.001" y2="315.958"/>
	
		<line fill="none" stroke="#000000" stroke-width="3" stroke-linecap="round" stroke-linejoin="round" stroke-miterlimit="10" x1="112.001" y1="318.996" x2="114.501" y2="318.708"/>
</g>
<g id="football">
	<g>
		
			<ellipse transform="matrix(-0.2857 0.9583 -0.9583 -0.2857 452.4251 228.3873)" fill="#F3F4F4" stroke="#293790" stroke-width="1.5" stroke-miterlimit="10" cx="141.096" cy="282.805" rx="43.121" ry="42.955"/>
		
			<ellipse fill="none" stroke="#293790" stroke-width="1.2" stroke-miterlimit="10" cx="141.09" cy="282.764" rx="43.123" ry="42.957"/>
		<path fill="#293790" d="M174.749,256.668c0,0,6.257,8.487,5.373,13.091c1.92,0.858,1.92,0.858,2.536,3
			C182.042,265.84,177.756,258.812,174.749,256.668z"/>
		<path fill="#293790" d="M182.364,295.977c-0.042,0.002,1.275-6.248,1.358-13.279c0.057-3.51-0.244-6.84-0.737-9.247
			c-0.469-2.415-1.113-3.88-1.122-3.871l0,0c0.011-0.013,0.845,1.557,1.444,4.058c0.629,2.488,1.018,5.862,0.962,9.076
			C184.24,289.175,182.351,295.991,182.364,295.977L182.364,295.977z"/>
		<path fill="#FFFFFF" d="M168.978,253.171c-24.999-9.405-48.256,5.053-38.337,37.688c9.919,32.635,42.401,18.654,49.94,3.181
			C185.971,282.979,178.995,256.94,168.978,253.171z"/>
		<path fill="#293790" d="M98.946,272.712c-0.347-4.513,9.026-21.128,13.591-21.128c-4.959,4.96-7.639,10.912-7.639,14.187
			C101.922,267.157,100.78,269.735,98.946,272.712z"/>
		<path fill="#293790" d="M100.274,296.372c-1.487,1.487,5.854,16.665,13.293,18.944c-8.135-7.539-8.333-11.703-7.736-14.086
			C101.814,301.23,101.068,298.753,100.274,296.372z"/>
		<path fill="#293790" d="M182.367,296.122c0,0-0.795,1.785-2.528,2.528c-0.299,2.185-1.488,6.548-2.927,7.984
			C180.036,303.512,182.367,296.122,182.367,296.122z"/>
		<path d="M127.219,245.258c0.01,0.033-3.524,0.607-7.188,2.009c-3.698,1.326-6.632,3.39-6.587,3.44l0,0
			c-0.088-0.058,2.932-2.75,6.398-3.952C123.241,245.415,127.24,245.275,127.219,245.258L127.219,245.258z"/>
		<path fill="#293790" d="M126.225,268.446c0,0,7.638,11.507,10.217,14.086c0,0-4.859,5.854-9.622,15.075
			c-4.762-1.686-9.521-2.181-15.076-5.256c-3.373-8.135-1.786-14.283-0.794-18.647C113.975,270.679,120.669,269.24,126.225,268.446z
			"/>
		<path fill="#293790" d="M162.728,267.555c0,0-0.198,4.267-8.134,14.681c6.646,8.135,6.942,10.912,9.026,15.375
			c5.853-1.487,11.309-4.959,12.598-8.232c1.29-3.273,0.694-13.986-0.396-16.367C174.731,270.629,165.903,267.555,162.728,267.555z"
			/>
		<path fill="#293790" d="M135.448,312.589c0,0,7.342,3.074,18.253-0.596c2.479,5.556,3.272,7.638,3.272,7.638
			c-2.68,5.26-19.839,9.227-27.378,0.794C132.424,317.6,135.003,315.611,135.448,312.589z"/>
		<path fill="#293790" d="M128.406,245.235c4.514-4.514,17.358-8.233,27.575,0.099c-1.188,3.571-3.372,7.737-3.372,7.737
			s-12.896-2.38-17.655,0.496C132.772,249.799,128.406,245.235,128.406,245.235z"/>
		<path fill="#293790" d="M170.597,251.747c0.012,0.005-2.562-2.599-6.172-4.271c-3.559-1.765-7.161-2.343-7.154-2.318l0,0
			c-0.023-0.061,4.07,0.138,7.396,1.829C168.083,248.526,170.654,251.747,170.597,251.747L170.597,251.747z"/>
		<path fill="none" stroke="#293790" stroke-miterlimit="10" d="M135.854,252.064c0,0-10.354,14.157-11.41,19.229
			c-1.057,5.068,8.663,11.198,8.663,11.198s18.596-0.425,23.665-0.636c5.071-0.211,9.721-5.28,9.298-7.396
			c-0.423-2.112-2.324-4.858-2.324-4.858s-7.396-15.215-13.732-18.596S135.854,252.064,135.854,252.064z"/>
		<g>
			<path fill="none" stroke="#293790" stroke-miterlimit="10" d="M110.708,252.909c0,0,4.858-5.282,13.312-7.184
				s10.354-1.268,10.354-1.268l15.638,1.69c0,0,6.55-1.902,11.621-0.212c5.07,1.69,3.034,1.051,3.034,1.051"/>
			<g>
				<path fill="none" stroke="#293790" stroke-miterlimit="10" d="M113.032,291.788c0,0-6.974,8.239-8.029,10.563"/>
				<path fill="none" stroke="#293790" stroke-miterlimit="10" d="M126.134,295.803c0,0,4.858,15.85,14.156,19.651"/>
				<path fill="none" stroke="#293790" stroke-miterlimit="10" d="M165.013,295.169c0,0-9.51,16.271-12.891,18.383"/>
				<path fill="none" stroke="#293790" stroke-miterlimit="10" d="M175.788,289.676c0,0,4.015,4.859,4.647,10.143"/>
				<path fill="none" stroke="#293790" stroke-miterlimit="10" d="M181.281,269.18c0,0-5.704,4.438-6.973,4.438"/>
				<path fill="none" stroke="#293790" stroke-miterlimit="10" d="M104.158,263.476c0,0,4.647,10.354,10.143,12.467"/>
				<path fill="none" stroke="#293790" stroke-miterlimit="10" d="M112.189,314.607c0,0,11.832,6.763,20.918,5.705"/>
				<path fill="none" stroke="#293790" stroke-miterlimit="10" d="M155.927,320.104c0,0,5.705-0.211,8.24-1.27"/>
			</g>
		</g>
	</g>
	<g>
		
			<line fill="none" stroke="#231F20" stroke-width="3" stroke-linecap="round" stroke-linejoin="round" stroke-miterlimit="10" x1="118.556" y1="313.771" x2="113.617" y2="318.038"/>
		
			<line fill="none" stroke="#231F20" stroke-width="3" stroke-linecap="round" stroke-linejoin="round" stroke-miterlimit="10" x1="110.605" y1="314.768" x2="113.917" y2="313.109"/>
		
			<line fill="none" stroke="#231F20" stroke-width="3" stroke-linecap="round" stroke-linejoin="round" stroke-miterlimit="10" x1="117.454" y1="320.288" x2="120.99" y2="316.754"/>
		
			<line fill="none" stroke="#231F20" stroke-width="3" stroke-linecap="round" stroke-linejoin="round" stroke-miterlimit="10" x1="122.315" y1="321.172" x2="123.527" y2="319.074"/>
	</g>
</g>
<g id="flag">
	<path fill="#000100" d="M122.882,312.585c-1.049-2.497-7.373-4.406-7.678-4.508l-3.509-0.193l0.695,1.884l0.757,0.034l0.362,0.603
		l-0.865,0.054l0.816,2.212l0.943-0.054c0.197-0.005,0.391-0.039,0.572-0.089c0.207,0.257,0.389,0.496,0.532,0.716l-1.79,0.127
		l0.754,2.041l1.027-0.072c-0.187,0.203-0.271,0.318-0.311,0.392c-0.039-0.006-0.1-0.004-0.211,0.021l-0.369,0.037l1.337,3.621
		l2.779-0.464c0.064-0.022,0.128-0.039,0.194-0.062l0.31-0.097c0.388-0.116,1.035-0.369,1.536-0.653
		C125.107,316.105,123.698,314.533,122.882,312.585z"/>
	<g>
		
			<line fill="none" stroke="#8A5D3B" stroke-width="5" stroke-linecap="round" stroke-linejoin="round" stroke-miterlimit="10" x1="84.941" y1="238.091" x2="119.984" y2="329.544"/>
		
			<rect x="18.952" y="251.26" transform="matrix(0.9334 -0.3589 0.3589 0.9334 -95.4404 39.6677)" fill="#D5F900" stroke="#231F20" stroke-width="0.5" stroke-miterlimit="10" width="80.346" height="51.285"/>
		<path opacity="0.1" fill="#231F20" enable-background="new    " d="M83.855,240.689l17,45c0,0-13.5-23-21-30
			c-5.271-4.92-12.5-8.5-12.5-8.5L83.855,240.689z"/>
		<circle fill="#17DEFF" cx="59.855" cy="277.688" r="16"/>
	</g>
	
		<line fill="none" stroke="#000000" stroke-width="3" stroke-linecap="round" stroke-linejoin="round" stroke-miterlimit="10" x1="108.272" y1="309.521" x2="112.272" y2="309.232"/>
	
		<line fill="none" stroke="#000000" stroke-width="3" stroke-linecap="round" stroke-linejoin="round" stroke-miterlimit="10" x1="112.688" y1="307.74" x2="115.365" y2="309.243"/>
	
		<line fill="none" stroke="#000000" stroke-width="3" stroke-linecap="round" stroke-linejoin="round" stroke-miterlimit="10" x1="109.023" y1="312.311" x2="114.356" y2="312.021"/>
	
		<line fill="none" stroke="#000000" stroke-width="3" stroke-linecap="round" stroke-linejoin="round" stroke-miterlimit="10" x1="110.523" y1="315.145" x2="114.523" y2="314.854"/>
	
		<line fill="none" stroke="#000000" stroke-width="3" stroke-linecap="round" stroke-linejoin="round" stroke-miterlimit="10" x1="111.523" y1="317.895" x2="114.022" y2="317.604"/>
</g>
</svg>
