<?xml version="1.0" encoding="utf-8"?>
<!-- Generator: Adobe Illustrator 16.0.0, SVG Export Plug-In . SVG Version: 6.00 Build 0)  -->
<!DOCTYPE svg PUBLIC "-//W3C//DTD SVG 1.1//EN" "http://www.w3.org/Graphics/SVG/1.1/DTD/svg11.dtd">
<svg version="1.1" id="Layer_1" xmlns="http://www.w3.org/2000/svg" xmlns:xlink="http://www.w3.org/1999/xlink" x="0px" y="0px"
	 width="23.211px" height="157.305px" viewBox="0 0 23.211 157.305" enable-background="new 0 0 23.211 157.305"
	 xml:space="preserve">
<g>
	<path fill="#989C9E" stroke="#030303" stroke-width="0.5" stroke-miterlimit="10" d="M13.271,154.441
		c-0.874,0.149-1.778,0.114-2.633-0.121c0.283,0.575,0.963,2.751,1.77,2.735c0.716-0.014,1.601-2.248,1.702-2.829
		C13.838,154.322,13.557,154.393,13.271,154.441C12.401,154.59,13.569,154.39,13.271,154.441z"/>
	<path fill="#D1D2D3" stroke="#030303" stroke-width="0.5" stroke-miterlimit="10" d="M19.746,132.813
		c-1.214,1.071-3.805,1.13-5.332,1.259c-1.97,0.149-4.086,0.168-6.012-0.329l0.001-0.053c-0.858-0.23-1.915-0.576-2.562-0.999
		c-0.103-0.074-0.208-0.139-0.296-0.217l-0.092,3.011c-0.001,0.027,0,0.055,0,0.085c0,0.002,0.001,0.002,0.001,0.002
		c0.006,0.101,0.02,0.22,0.04,0.303l4.341,18.071c0.023,0.083,0.116,0.154,0.223,0.178c0.058,0.025,0.127,0.042,0.189,0.066l0,0
		c0.244,0.121,0.594,0.19,0.862,0.238h-0.001c0.572,0.09,1.142,0.124,1.721,0.068v-0.002c0.291-0.028,0.569-0.076,0.833-0.137
		c0.005-0.002,0.01-0.002,0.018-0.006l0,0c0.309-0.073,0.61-0.174,0.899-0.301c-0.204,0.056,0.193-0.062,0.228-0.187l4.915-18.071
		c0.003-0.011,0.005-0.028,0.01-0.038l0,0c0.028-0.112,0.041-0.232,0.041-0.349L19.746,132.813z"/>
	<polygon fill="#F2F2F2" points="18.661,134.494 19.286,136.261 14.336,153.531 13.82,153.642 15.827,136.546 16.673,134.691 	"/>
	<path fill="#F36E21" stroke="#030303" stroke-width="0.5" stroke-miterlimit="10" d="M20.846,129.125
		c0,4.689-1.128,4.587-8.234,5.027c-5.422,0.333-8.235-0.338-8.235-5.027L2.769,15.141c0-4.691,4.407-5.027,9.843-5.027l0,0
		c5.436,0,9.843,0.335,9.843,5.027L20.846,129.125z"/>
	<path fill="#4475BA" stroke="#030303" stroke-width="0.5" stroke-miterlimit="10" d="M18.267,7.733c0,2.17-1.23,3.929-2.761,3.929
		H9.71c-1.523,0-2.761-1.759-2.761-3.929V4.181c0-2.172,1.238-3.931,2.761-3.931h5.795c1.53,0,2.761,1.759,2.761,3.931V7.733z"/>
	<path fill="#446CB4" stroke="#030303" stroke-width="0.5" stroke-miterlimit="10" d="M22.952,11.969
		c0,2.02,0.217,3.655-1.502,3.655H3.768c-1.717,0-1.5-1.637-1.5-3.655l0,0c0-2.019,1.391-3.654,3.108-3.654h14.469
		C21.562,8.313,22.952,9.95,22.952,11.969L22.952,11.969z"/>
	<path opacity="0.15" fill="#FFFFFF" enable-background="new    " d="M13.177,0.942l0.236,7.095c0,0,5.049-0.563,4.245,7.586
		c-0.802,8.146-1.505,116.849-1.505,116.849s2.473,4.451,3.615-1.434c1.143-5.886,1.533-117.449,1.605-120.086
		c0.076-2.636-2.646-2.636-2.646-2.636s-1.335-5.398-2.41-6.387C15.567,1.239,13.177,0.942,13.177,0.942z"/>
	<path opacity="0.1" fill="#010101" enable-background="new    " d="M10.638,0.791L9.157,8.29c0,0,0.584,1.269,1.615,9.417
		c0.353,2.84-1.324,17.666-1.361,35.771c-0.007,2.238-2.649,4.526-2.645,6.844c0.088,32.732,1.638,73.368,1.638,73.368
		s-4.555-0.028-4.028-4.561c0.691-5.992-0.351-115.54-0.446-118.176C3.833,8.317,7.304,8.317,7.304,8.317S7.248,2.158,8.618,1.17
		C9.577,0.476,10.638,0.791,10.638,0.791z"/>
	<path fill="#4475BA" stroke="#030303" stroke-width="0.5" stroke-miterlimit="10" d="M7.408,48.778
		c0,1.696-1.596,4.976-3.563,4.976l0,0c-1.968,0-3.565-3.279-3.565-4.976V12.967c0-1.698-0.586-4.574,3.487-4.654
		c2.985-0.058,7.005,0,7.005,0c-2.95,0.147-3.365,3.805-3.365,4.654L7.408,48.778L7.408,48.778z"/>
</g>
</svg>
