<?xml version="1.0" encoding="utf-8"?>
<!-- Generator: Adobe Illustrator 16.0.0, SVG Export Plug-In . SVG Version: 6.00 Build 0)  -->
<!DOCTYPE svg PUBLIC "-//W3C//DTD SVG 1.1//EN" "http://www.w3.org/Graphics/SVG/1.1/DTD/svg11.dtd">
<svg version="1.1" id="Layer_1" xmlns="http://www.w3.org/2000/svg" xmlns:xlink="http://www.w3.org/1999/xlink" x="0px" y="0px"
	 width="177.116px" height="127.681px" viewBox="0 0 177.116 127.681" enable-background="new 0 0 177.116 127.681"
	 xml:space="preserve">
<path fill="#EC008C" d="M72.221,126.681C25.83,126.681,1,96.623,1,63.421C1,30.22,29.601,1,75.991,1
	c46.389,0,100.125,29.22,100.125,62.421C176.116,96.623,118.61,126.681,72.221,126.681z"/>
<path fill="#FFC50B" d="M122.485,14.411c0.685-1.368,1.443-2.593,2.165-3.803c-8.296-3.26-17.085-5.797-25.965-7.443
	c-0.485,2.58-0.786,5.238-0.6,8.193c8.482,1.516,16.319,3.844,23.463,6.622C121.582,16.79,121.874,15.633,122.485,14.411z"/>
<path fill="#FFC50B" d="M71.09,6.878c1.105-2.068,2.302-3.951,3.438-5.85C63.89,1.172,54.208,2.856,45.619,5.782
	c-0.222,1.713-0.317,3.481-0.23,5.344c0.033,0.725,0.149,1.447,0.296,2.17c8.429-2.078,16.521-3.236,24.248-3.655
	C70.204,8.753,70.573,7.845,71.09,6.878z"/>
<path fill="#FFC50B" d="M170.393,50.618c-7.663-4.826-15.141-8.709-22.378-11.807c0.11,1.545-0.077,3.021-0.401,4.756
	c-1.059,5.679-5.851,12.768-4.757,19.053c1.315,7.553,6.779,13.789,6.903,21.006c0.1,5.637-4.927,13.17-7.238,19.088
	c-0.772,1.979-1.237,3.467-1.204,4.929c17.771-10.222,31.092-23.655,34.139-38.025c-2.379-2.188-4.936-4.456-4.433-7.712
	c0.448-2.908,2.213-5.555,3.573-8.172c-4.302-13.828-17.416-26.46-34.496-35.893c0.07,1.811,0.363,3.762,1.089,5.998
	c0.565,1.742,1.714,3.6,2.871,5.432C161.015,39.81,170.393,50.618,170.393,50.618z"/>
<path fill="#FFC50B" d="M24.422,89.353c-3.395-6.204-9.358-11.168-8.565-19.14c0.809-8.135,5.691-16.119,7.372-24.464
	c1.809-8.986-5.047-13.592-6.698-21.199c-0.021-0.088-0.037-0.17-0.055-0.258C6.46,35.173,1,48.917,1,63.421
	c0,0.572,0.03,1.139,0.045,1.709C7.922,74.839,15.911,82.795,24.422,89.353z"/>
<path fill="#FFC50B" d="M126.616,114.937c-1.157-1.804-2.386-3.539-2.828-6.1c-0.574-3.325,0.771-6.256,2.82-9.916
	c3.393-6.055,9.429-13.744,8.195-19.877c-1.256-6.237-9.274-10.153-8.362-17.792c0.765-6.425,5.054-12.34,5.884-18.577
	c0.534-4.025-1.781-7.298-4.339-10.7c-8.676-2.22-16.87-3.367-24.469-3.754c0.762,3.72,0.396,6.563-0.379,10.335
	c-1.502,7.316-6.726,16.346-5.677,24.119c1.262,9.34,7.104,17.383,7.696,26.615c0.461,7.21-4.028,16.238-5.726,23.336
	c-0.52,2.171-0.813,3.85-0.681,5.541c6.561,0.835,12.018,1.18,15.789,1.305C118.65,118.12,122.693,116.607,126.616,114.937z"/>
<path fill="#FFC50B" d="M73.463,108.378c2.859-6.922,8.467-15.973,6.83-23.644c-1.664-7.805-10.132-12.644-9.091-21.861
	c0.875-7.753,5.609-15.185,6.966-22.962c0.669-3.836-0.428-6.927-2.02-9.876c-17.991,3.368-28.711,9.88-28.711,9.88l-0.086-0.416
	c-2.366,8.004-7.191,17.392-6.154,25.396c1.348,10.384,7.599,19.613,8.911,30.137c0.377,3.009,0.116,6.228-0.4,9.479
	c7.53,3.451,15.044,6.125,22.216,8.176C72.3,111.312,72.834,109.904,73.463,108.378z"/>
<path fill="#DD008E" d="M71.801,119.984c0.692,2.598,1.885,4.632,3.145,6.632c8.31-0.205,16.915-1.334,25.458-3.252
	c-0.261-0.539-0.517-1.076-0.742-1.617c-0.546-1.301-0.821-2.443-0.909-3.58c-7.699-0.979-16.925-2.646-26.828-5.48
	C71.269,115.081,71.102,117.369,71.801,119.984z"/>
<path fill="#DD008E" d="M23.856,111.542c8.863,7.018,20.244,12.032,34.021,14.088c-3.996-0.602-7.799-1.441-11.393-2.515
	c0.027-0.742,0.085-1.517,0.172-2.368c0.495-4.885,2.159-10.608,3.052-16.236c-8.582-3.936-17.171-8.904-25.286-15.158
	c0.727,1.328,1.342,2.709,1.742,4.191C27.748,99.427,25.81,105.827,23.856,111.542z"/>
<path fill="#F7B82B" d="M21.655,109.718c0.462,0.404,0.938,0.798,1.416,1.189c0.261,0.213,0.521,0.426,0.785,0.635
	c1.953-5.715,3.892-12.115,2.308-17.998c-0.4-1.482-1.016-2.863-1.742-4.191c-8.511-6.558-16.5-14.514-23.377-24.223
	c0.002,0.053,0.003,0.105,0.005,0.158c0.025,0.937,0.07,1.871,0.137,2.802c0.005,0.07,0.011,0.14,0.016,0.21
	c0.368,4.942,1.294,9.783,2.768,14.432c0.02,0.063,0.039,0.128,0.059,0.192c0.258,0.803,0.539,1.598,0.829,2.389
	c0.074,0.2,0.144,0.401,0.22,0.603c0.277,0.729,0.57,1.452,0.875,2.17c0.106,0.252,0.216,0.503,0.326,0.754
	c0.302,0.686,0.613,1.367,0.942,2.041c0.129,0.269,0.267,0.533,0.399,0.8c0.334,0.661,0.674,1.319,1.032,1.969
	c0.14,0.253,0.289,0.5,0.432,0.751c0.377,0.66,0.755,1.318,1.158,1.965c0.069,0.111,0.146,0.218,0.216,0.33
	c0.856,1.355,1.78,2.676,2.753,3.967c0.176,0.234,0.342,0.475,0.522,0.707c0.372,0.479,0.766,0.941,1.154,1.41
	c0.309,0.373,0.612,0.748,0.932,1.115c0.371,0.428,0.759,0.844,1.145,1.262c0.362,0.393,0.727,0.785,1.101,1.17
	c0.381,0.391,0.771,0.775,1.164,1.157c0.409,0.397,0.826,0.792,1.248,1.18C20.865,109.019,21.256,109.371,21.655,109.718z"/>
<path fill="#F7B82B" d="M100.403,123.364c1.129-0.254,2.26-0.502,3.385-0.782c0.334-0.083,0.668-0.177,1.002-0.263
	c1.229-0.315,2.455-0.647,3.678-0.994c0.472-0.133,0.946-0.266,1.416-0.403c1.419-0.417,2.83-0.852,4.233-1.309
	c0.142-0.046,0.282-0.095,0.424-0.142c-3.771-0.125-9.229-0.47-15.789-1.305c0.088,1.137,0.363,2.279,0.909,3.58
	C99.887,122.288,100.143,122.825,100.403,123.364z"/>
<path fill="#F7B82B" d="M46.484,123.115c3.594,1.073,7.396,1.913,11.393,2.515c0.394,0.06,0.781,0.119,1.178,0.174
	c0.679,0.094,1.366,0.174,2.055,0.252c0.574,0.065,1.152,0.125,1.733,0.18c0.594,0.056,1.189,0.109,1.791,0.155
	c0.755,0.056,1.52,0.101,2.289,0.139c0.475,0.025,0.945,0.056,1.425,0.073c1.275,0.048,2.563,0.078,3.873,0.078
	c0.901,0,1.815-0.041,2.725-0.064c-1.26-2-2.452-4.034-3.145-6.632c-0.699-2.615-0.532-4.903,0.123-7.298
	c-7.172-2.051-14.686-4.725-22.216-8.176c-0.893,5.628-2.557,11.352-3.052,16.236C46.569,121.599,46.512,122.373,46.484,123.115z"/>
<path fill="#F578C2" d="M70.487,19.165c1.198,4.086,3.777,7.379,5.661,10.87c7.839-1.467,17.053-2.339,27.369-1.814
	c-0.114-0.562-0.253-1.142-0.422-1.749c-1.066-3.828-3.941-8.014-4.638-11.983c-0.189-1.083-0.308-2.124-0.372-3.13
	c-8.728-1.56-18.132-2.26-28.153-1.718C69,12.692,69.401,15.456,70.487,19.165z"/>
<path fill="#F578C2" d="M48.864,23.962c-0.604-3.497-2.456-7.072-3.18-10.666c-1.175,0.289-2.356,0.596-3.544,0.921l5.211,25.282
	c0.188-0.639,0.366-1.271,0.52-1.889C49.1,32.637,49.743,29.048,48.864,23.962z"/>
<path fill="#F578C2" d="M123.312,24.713c1.149,2.656,2.966,4.987,4.675,7.262c6.428,1.646,13.118,3.881,20.028,6.837
	c-0.104-1.452-0.469-2.963-1.254-4.812c-0.63-1.485-1.668-3.097-2.7-4.729c-6.443-4.006-13.978-7.971-22.512-11.29
	C121.492,19.98,122.169,22.071,123.312,24.713z"/>
<path fill="#FDE3AB" d="M76.148,30.035c-1.884-3.491-4.463-6.784-5.661-10.87c-1.086-3.709-1.487-6.473-0.555-9.524
	c-7.727,0.419-15.819,1.577-24.248,3.655c0.724,3.594,2.575,7.169,3.18,10.666c0.879,5.086,0.235,8.675-0.993,13.648
	c-0.153,0.618-0.331,1.25-0.52,1.889l0.086,0.416C47.438,39.915,58.157,33.403,76.148,30.035z"/>
<path fill="#FDE3AB" d="M103.096,26.472c0.169,0.607,0.308,1.188,0.422,1.749c7.599,0.387,15.793,1.534,24.469,3.754
	c-1.709-2.274-3.525-4.605-4.675-7.262c-1.143-2.642-1.819-4.732-1.763-6.732c-7.144-2.778-14.98-5.106-23.463-6.622
	c0.064,1.006,0.183,2.047,0.372,3.13C99.154,18.458,102.029,22.644,103.096,26.472z"/>
<path fill="#FDE3AB" d="M148.015,38.812c7.237,3.098,14.715,6.98,22.378,11.807c0,0-9.378-10.809-26.332-21.348
	c1.032,1.633,2.07,3.244,2.7,4.729C147.546,35.849,147.911,37.359,148.015,38.812z"/>
<path fill="none" stroke="#231F20" stroke-width="2" stroke-miterlimit="10" d="M72.221,126.681C25.83,126.681,1,96.623,1,63.421
	C1,30.22,29.601,1,75.991,1c46.389,0,100.125,29.22,100.125,62.421C176.116,96.623,118.61,126.681,72.221,126.681z"/>
</svg>
