<?xml version="1.0" encoding="utf-8"?>
<!-- Generator: Adobe Illustrator 16.0.0, SVG Export Plug-In . SVG Version: 6.00 Build 0)  -->
<!DOCTYPE svg PUBLIC "-//W3C//DTD SVG 1.1//EN" "http://www.w3.org/Graphics/SVG/1.1/DTD/svg11.dtd">
<svg version="1.1" id="Red_Robot" xmlns="http://www.w3.org/2000/svg" xmlns:xlink="http://www.w3.org/1999/xlink" x="0px" y="0px"
	 width="336.839px" height="650.402px" viewBox="0 0 336.839 650.402" enable-background="new 0 0 336.839 650.402"
	 xml:space="preserve">
<polygon fill="#969696" stroke="#231F20" stroke-width="2" stroke-miterlimit="10" points="302.795,415.066 279.609,419.441 
	265.511,371.701 214.713,295.787 242.093,292.34 307.898,366.281 "/>
<polygon fill="#B2B2B2" stroke="#231F20" stroke-width="2" stroke-miterlimit="10" points="279.609,419.441 182.453,313.562 
	219.663,296.092 285.324,369.086 "/>
<path fill="#969696" d="M325.027,406.656c0,0-15.838,0.613-15.859,0.561c-0.596-1.543-0.768-3.006-0.551-4.586
	c0,0,0.055-0.4,0.143-1.049c0.869-0.826,1.482-1.93,1.629-3.215c0.139-1.205-0.158-2.35-0.738-3.314
	c0.152-1.113,0.297-2.176,0.414-3.045c0.273,1.131,0.35,2.305,0.191,3.469l-0.051,0.365l8.199,2.027l16.396-0.736
	c0.529-9.078-4.412-19.326-15.129-22.09c-2.303-0.594-14.91-0.789-21.396,0.469c-6.213,1.607-12.246,12.975-12.246,12.975
	l-1.652,12.52c0,0,17.143,22.277,18.74,22.465c6.158,0.141,14.852-0.471,17.195-0.615c13.484-3.504,12.93-14.246,12.93-14.246
	L325.027,406.656z"/>
<linearGradient id="SVGID_1_" gradientUnits="userSpaceOnUse" x1="283.9209" y1="385.2451" x2="317.6846" y2="385.2451" gradientTransform="matrix(0.9935 0.114 -0.114 0.9935 46.3 -17.5618)">
	<stop  offset="0" style="stop-color:#5A5A5A"/>
	<stop  offset="0.3226" style="stop-color:#656565"/>
	<stop  offset="1" style="stop-color:#787878"/>
</linearGradient>
<path fill="url(#SVGID_1_)" d="M292.242,377.68c-3.533,2.281-5.82,6.037-6.439,10.58l-1.736,12.736
	c-1.273,9.34,5.004,19.109,13.99,21.781c4.338,1.289,8.662,0.752,12.168-1.512c3.535-2.281,5.822-6.039,6.441-10.58l0.176-1.289
	l-8.215-1.951l-0.113,0.816c-0.309,2.27-1.455,4.146-3.225,5.289c-1.754,1.133-3.912,1.402-6.078,0.762
	c-2.176-0.648-4.104-2.141-5.424-4.197c-1.346-2.156-1.873-4.486-1.57-6.697l1.736-12.736c0.309-2.268,1.453-4.145,3.223-5.287
	c1.756-1.133,3.914-1.402,6.078-0.76c4.492,1.338,7.631,6.221,6.996,10.893l-0.051,0.365l8.209,1.949
	c1.213-9.299-5.068-19.021-13.998-21.674C300.072,374.877,295.754,375.416,292.242,377.68z"/>
<linearGradient id="SVGID_2_" gradientUnits="userSpaceOnUse" x1="299.4766" y1="378.6318" x2="303.7216" y2="397.7343" gradientTransform="matrix(0.9935 0.114 -0.114 0.9935 46.3 -17.5618)">
	<stop  offset="0" style="stop-color:#3C3C3C"/>
	<stop  offset="0.6278" style="stop-color:#656565"/>
	<stop  offset="1" style="stop-color:#787878"/>
</linearGradient>
<path fill="url(#SVGID_2_)" stroke="#231F20" stroke-miterlimit="10" d="M308.098,400.885c0.758-0.719,1.219-1.629,1.334-2.629
	c0.062-0.533,0.006-1.068-0.137-1.588l-0.17-0.039l0.049-0.352c-0.094-0.25-0.207-0.494-0.348-0.73l-0.174-0.289l-14.367,0.113
	c0.48,1.02,0.709,2.17,0.572,3.369c-0.148,1.301-0.693,2.461-1.492,3.379l14.488-1.004L308.098,400.885z"/>
<linearGradient id="SVGID_3_" gradientUnits="userSpaceOnUse" x1="285.0527" y1="371.8242" x2="316.6436" y2="371.8242" gradientTransform="matrix(0.9935 0.114 -0.114 0.9935 46.3 -17.5618)">
	<stop  offset="0.0056" style="stop-color:#787878"/>
	<stop  offset="0.304" style="stop-color:#7E7E7E"/>
	<stop  offset="0.6841" style="stop-color:#8D8D8D"/>
	<stop  offset="1" style="stop-color:#A0A0A0"/>
</linearGradient>
<path fill="url(#SVGID_3_)" stroke="#231F20" stroke-miterlimit="10" d="M292.473,394.408l0.525-3.857
	c0.35-2.551,1.648-4.67,3.656-5.965c1.996-1.289,4.438-1.598,6.875-0.873c4.764,1.416,8.084,6.471,7.678,11.43
	c1.088,0.258,4.799,1.141,6.293,1.496c0.559-8.512-5.213-17.125-13.365-19.549c-4.064-1.209-8.104-0.711-11.369,1.398
	c-3.295,2.127-5.428,5.645-6.008,9.902l-0.686,5.021c0.934-0.523,2.027-0.777,3.172-0.645
	C290.535,392.916,291.646,393.531,292.473,394.408z"/>
<linearGradient id="SVGID_4_" gradientUnits="userSpaceOnUse" x1="284.9062" y1="398.7354" x2="316.4619" y2="398.7354" gradientTransform="matrix(0.9935 0.114 -0.114 0.9935 46.3 -17.5618)">
	<stop  offset="0.0056" style="stop-color:#787878"/>
	<stop  offset="0.304" style="stop-color:#7E7E7E"/>
	<stop  offset="0.6841" style="stop-color:#8D8D8D"/>
	<stop  offset="1" style="stop-color:#A0A0A0"/>
</linearGradient>
<path fill="url(#SVGID_4_)" stroke="#231F20" stroke-miterlimit="10" d="M305.811,414.361c-1.994,1.287-4.436,1.598-6.873,0.873
	c-2.398-0.717-4.516-2.35-5.961-4.6c-1.461-2.342-2.051-4.879-1.715-7.346l0.102-0.746c-0.967,0.586-2.115,0.881-3.326,0.742
	s-2.264-0.689-3.076-1.48c-0.826,8.676,5.035,17.572,13.371,20.049c4.07,1.211,8.111,0.717,11.369-1.395
	c3.297-2.133,5.43-5.646,6.01-9.902c0,0,0.033-0.238,0.059-0.426c-1.184-0.281-5.031-1.193-6.379-1.514
	C308.994,411.057,307.758,413.104,305.811,414.361z"/>
<linearGradient id="SVGID_5_" gradientUnits="userSpaceOnUse" x1="283.3184" y1="385.2451" x2="292.9434" y2="385.2451" gradientTransform="matrix(0.9935 0.114 -0.114 0.9935 46.3 -17.5618)">
	<stop  offset="0" style="stop-color:#5A5A5A"/>
	<stop  offset="0.3226" style="stop-color:#656565"/>
	<stop  offset="1" style="stop-color:#787878"/>
</linearGradient>
<path fill="url(#SVGID_5_)" stroke="#231F20" stroke-miterlimit="10" d="M283.859,397.479c-0.303,2.637,1.596,5.027,4.232,5.33
	s5.027-1.596,5.33-4.234c0.303-2.637-1.596-5.027-4.232-5.33C286.553,392.943,284.162,394.84,283.859,397.479z"/>
<polygon fill="#D1D1D1" stroke="#231F20" stroke-width="2" stroke-miterlimit="10" points="125.355,600.66 187.557,637.896 
	241.705,629.723 241.679,602.346 224.78,593.828 226.596,433.514 178.703,411.885 125.218,418.324 "/>
<path fill="#8E8E8E" d="M185.631,611.588c-1.788-0.959-16.534-8.863-16.534-8.863l0.883-164.033l49.595-6.234
	c-11.922-5.385-40.417-18.256-41.177-18.598c-1.011,0.123-48.104,5.793-51.253,6.17c0.003,3.336,0.133,177.404,0.136,179.541
	c1.599,0.957,47.452,28.404,58.351,34.93V611.588z"/>
<polygon fill="#D1D1D1" stroke="#231F20" stroke-width="2" stroke-miterlimit="10" points="57.826,426.436 59.212,610.859 
	117.862,648.402 173.177,640.072 173.175,612.205 158.11,603.502 158.603,441.914 113.354,419.691 "/>
<path fill="#8E8E8E" d="M116.061,622.057c-1.559-1.016-14.792-9.646-14.792-9.646l-0.483-165.029l51.218-6.564
	c-11.16-5.48-38.19-18.752-38.986-19.145c-1.077,0.129-50.083,6.082-53.254,6.467c0.025,3.355,1.351,179.617,1.366,181.662
	c1.494,0.955,44.154,28.266,54.777,35.064C115.961,636.904,116.051,623.422,116.061,622.057z"/>
<polygon fill="#D1D1D1" stroke="#231F20" stroke-width="2" stroke-miterlimit="10" points="17.312,177.145 17.312,433.268 
	69.975,468.738 266.085,436.346 266.085,178.789 209.975,154.646 "/>
<path fill="#8E8E8E" d="M68.622,202.852l193.668-23.6c-9.622-4.141-51.777-22.279-52.603-22.633
	c-1.01,0.117-187.115,21.849-190.45,22.238v253.385c1.554,1.045,45.789,30.842,50.726,34.166L68.622,202.852z"/>
<path fill="#8E8E8E" d="M258.627,185.536c-13.479,1.644-182.406,22.981-183.968,23.172c0.016,3.15,0.777,220.185,0.937,251.382
	c8.058-1.332,181.134-31.074,182.624-31.322L258.627,185.536z M74.814,449.547l-0.967-242.053l81.953-10.152l-0.532,239.094
	L74.814,449.547z M246.508,421.566l-77.677,12.66l1.234-238.652l79.385-9.834L246.508,421.566z"/>
<polygon fill="#8E8E8E" stroke="#231F20" stroke-miterlimit="10" points="46.968,17.774 46.954,172.844 89.933,194.014 
	230.729,176.425 230.738,27.073 177.37,2 "/>
<polygon points="176.591,61.921 176.56,103.247 214.245,98.928 214.25,57.627 "/>
<polygon points="108.853,69.339 108.885,110.999 145.958,106.669 145.958,65.199 "/>
<path fill="#FFF75A" d="M139.006,88.076c0-7.844-6.481-14.203-14.476-14.203c-7.994,0-14.475,6.359-14.475,14.203
	c0,5.631,3.349,10.484,8.194,12.78v12.072h12.562v-12.072C135.657,98.56,139.006,93.707,139.006,88.076z"/>
<path fill="#FFF75A" d="M206.63,82.672c0-7.843-6.481-14.203-14.476-14.203c-7.993,0-14.475,6.36-14.475,14.203
	c0,5.63,3.349,10.483,8.194,12.78v12.073h12.562V95.453C203.281,93.155,206.63,88.303,206.63,82.672z"/>
<path fill="#D1D1D1" stroke="#231F20" stroke-width="2" stroke-miterlimit="10" d="M94.264,46.486
	c0,4.039-0.013,137.535-0.014,142.623c5.116-0.639,128.142-16.008,132.146-16.508c0.002-3.982,0.009-135.678,0.009-140.692
	C221.352,32.466,98.335,46.037,94.264,46.486z M108.853,69.339l37.104-4.141v41.471l-37.072,4.33L108.853,69.339z M176.591,61.921
	l37.658-4.294l-0.005,41.302l-37.685,4.319L176.591,61.921z"/>
<path fill="#636363" d="M175.146,60.633l-0.031,44.233l40.574-4.651l0.006-44.207L175.146,60.633z M213.285,98.068l-35.762,4.1
	l0.029-39.387l35.736-4.077L213.285,98.068z"/>
<path fill="#636363" d="M107.408,68.048l0.036,44.573l39.958-4.667V63.585L107.408,68.048z M144.996,105.813l-35.148,4.105
	l-0.031-39.717l35.179-3.925V105.813z"/>
<polygon fill="#636363" stroke="#231F20" stroke-width="2" stroke-miterlimit="10" points="105.957,137.285 105.901,169.505 
	110.308,174.064 208.433,156.121 212.822,129.52 208.405,124.901 "/>
<path fill="#ED1C24" stroke="#231F20" stroke-width="2" stroke-miterlimit="10" d="M112.758,143.958
	c-0.004,2.212-0.043,24.531-0.048,27.346c3.122-0.407,95.298-12.439,97.711-12.754c-0.002-2.188-0.021-23.623-0.025-26.393
	C207.309,132.53,115.19,143.664,112.758,143.958z"/>
<path fill="#B2B2B2" stroke="#231F20" stroke-miterlimit="10" d="M71.522,205.408c0.01,1.683,1.312,257.702,1.323,259.928
	c2.147-0.354,188.763-31.178,190.353-31.441c0-1.615,0-249.696,0-251.845C261.074,182.309,73.2,205.203,71.522,205.408z
	 M78.825,212.587l83.883-10.392l-0.537,241.004l-82.373,13.422L78.825,212.587z M175.05,200.665l81.322-10.074l-2.968,237.739
	l-79.6,12.971L175.05,200.665z"/>
<g>
	<circle fill="#8E8E8E" cx="259.389" cy="186.804" r="3.431"/>
	<circle fill="#8E8E8E" cx="259.389" cy="430.455" r="3.431"/>
	<circle fill="#8E8E8E" cx="259.389" cy="349.24" r="3.431"/>
	<circle fill="#8E8E8E" cx="259.389" cy="268.021" r="3.431"/>
</g>
<g>
	<circle fill="#8E8E8E" cx="75.651" cy="209.262" r="3.431"/>
	<circle fill="#8E8E8E" cx="75.651" cy="460.52" r="3.431"/>
	<circle fill="#8E8E8E" cx="75.651" cy="292.861" r="3.431"/>
</g>
<g>
	<circle fill="#8E8E8E" cx="168.696" cy="198.131" r="3.431"/>
	<path fill="#8E8E8E" d="M171.55,445.018c0,1.896-1.536,3.434-3.432,3.434c-1.895,0-3.431-1.537-3.431-3.434
		c0-1.893,1.537-3.428,3.431-3.428C170.014,441.59,171.55,443.125,171.55,445.018z"/>
	<circle fill="#8E8E8E" cx="168.119" cy="362.105" r="3.431"/>
	<circle fill="#8E8E8E" cx="168.119" cy="280.889" r="3.431"/>
</g>
<polygon fill="#969696" stroke="#231F20" stroke-width="2" stroke-miterlimit="10" points="24.366,345.078 2.408,198.651 
	22.776,196.302 62.869,217.262 63.652,330.82 "/>
<polygon fill="#B2B2B2" stroke="#231F20" stroke-width="2" stroke-miterlimit="10" points="3.979,339.277 2.393,198.896 
	42.487,219.855 43.108,349.5 "/>
<polygon fill="#969696" stroke="#231F20" stroke-width="2" stroke-miterlimit="10" points="124.335,449.158 101.151,453.531 
	87.052,405.791 36.254,329.879 63.634,326.43 129.439,400.371 "/>
<path fill="#B2B2B2" stroke="#231F20" stroke-width="2" stroke-miterlimit="10" d="M48.344,341.719
	c-0.253,2.15-0.787,4.273-1.637,6.322c-2.432,5.857-7.03,10.43-12.947,12.873c-4.123,1.705-8.542,2.215-12.873,1.59
	c24.077,26.238,73.472,80.066,78.469,85.512c0.931-8.217,4.787-42.193,4.996-44.033C103.247,402.754,65.116,360.365,48.344,341.719z
	"/>
<ellipse transform="matrix(0.9236 0.3835 -0.3835 0.9236 131.6919 16.6612)" fill="#636363" stroke="#231F20" stroke-width="2" stroke-miterlimit="10" cx="24.057" cy="338.636" rx="22.118" ry="21.657"/>
<path fill="#B2B2B2" d="M42.238,331.617c-2.021-4.887-5.856-8.709-10.8-10.76c-4.944-2.053-10.36-2.068-15.249-0.049
	c-4.728,1.953-8.399,5.6-10.336,10.27c-1.94,4.67-1.932,9.848,0.022,14.576c2.021,4.889,5.856,8.711,10.799,10.762
	s10.358,2.07,15.248,0.049c4.729-1.953,8.4-5.6,10.34-10.27C44.201,341.523,44.192,336.348,42.238,331.617z M37.816,344.35
	c-1.446,3.482-4.192,6.205-7.733,7.67c-3.7,1.529-7.808,1.51-11.564-0.049c-3.756-1.559-6.666-4.455-8.196-8.154
	c-1.463-3.541-1.472-7.408-0.025-10.893c1.444-3.482,4.189-6.205,7.728-7.67h0.001c3.703-1.529,7.811-1.51,11.566,0.051
	c3.757,1.559,6.668,4.455,8.196,8.152C39.253,336.998,39.263,340.865,37.816,344.35z"/>
<path fill="#969696" stroke="#231F20" stroke-miterlimit="10" d="M146.567,440.748c0,0-15.837,0.611-15.858,0.559
	c-0.595-1.541-0.767-3.006-0.551-4.584c0,0,0.055-0.402,0.143-1.051c0.87-0.824,1.481-1.93,1.628-3.215
	c0.138-1.203-0.158-2.348-0.738-3.314c0.152-1.113,0.297-2.174,0.414-3.045c0.273,1.131,0.349,2.307,0.191,3.471l-0.05,0.365
	l8.2,2.027l16.396-0.738c0.53-9.076-4.413-19.324-15.13-22.09c-2.301-0.594-14.91-0.787-21.396,0.471
	c-6.213,1.607-12.246,12.973-12.246,12.973l-1.652,12.521c0,0,17.142,22.277,18.74,22.463c6.158,0.143,14.851-0.471,17.194-0.615
	c13.485-3.504,12.931-14.244,12.931-14.244L146.567,440.748z"/>
<linearGradient id="SVGID_6_" gradientUnits="userSpaceOnUse" x1="110.5156" y1="439.458" x2="144.2793" y2="439.458" gradientTransform="matrix(0.9935 0.114 -0.114 0.9935 46.3 -17.5618)">
	<stop  offset="0" style="stop-color:#5A5A5A"/>
	<stop  offset="0.3226" style="stop-color:#656565"/>
	<stop  offset="1" style="stop-color:#787878"/>
</linearGradient>
<path fill="url(#SVGID_6_)" d="M113.784,411.77c-3.534,2.281-5.822,6.039-6.44,10.58l-1.736,12.738
	c-1.274,9.338,5.003,19.107,13.99,21.781c4.338,1.289,8.662,0.752,12.167-1.512c3.535-2.281,5.823-6.039,6.441-10.582l0.177-1.287
	l-8.215-1.951l-0.113,0.814c-0.309,2.27-1.455,4.148-3.225,5.291c-1.754,1.131-3.912,1.402-6.077,0.76
	c-2.176-0.646-4.104-2.139-5.424-4.195c-1.346-2.158-1.873-4.488-1.571-6.697l1.736-12.738c0.309-2.268,1.455-4.143,3.224-5.287
	c1.756-1.133,3.914-1.402,6.078-0.758c4.492,1.336,7.631,6.219,6.996,10.893l-0.051,0.365l8.209,1.949
	c1.212-9.301-5.068-19.023-13.999-21.676C121.613,408.969,117.294,409.506,113.784,411.77z"/>
<linearGradient id="SVGID_7_" gradientUnits="userSpaceOnUse" x1="126.0703" y1="432.8447" x2="130.3141" y2="451.942" gradientTransform="matrix(0.9935 0.114 -0.114 0.9935 46.3 -17.5618)">
	<stop  offset="0" style="stop-color:#3C3C3C"/>
	<stop  offset="0.6278" style="stop-color:#656565"/>
	<stop  offset="1" style="stop-color:#787878"/>
</linearGradient>
<path fill="url(#SVGID_7_)" stroke="#231F20" stroke-miterlimit="10" d="M129.638,434.975c0.759-0.719,1.22-1.627,1.335-2.627
	c0.061-0.535,0.006-1.07-0.137-1.588l-0.17-0.041l0.05-0.35c-0.094-0.25-0.207-0.496-0.349-0.73l-0.174-0.291l-14.366,0.115
	c0.48,1.02,0.709,2.17,0.572,3.367c-0.149,1.301-0.692,2.463-1.492,3.381l14.488-1.006L129.638,434.975z"/>
<linearGradient id="SVGID_8_" gradientUnits="userSpaceOnUse" x1="111.6465" y1="426.0352" x2="143.2373" y2="426.0352" gradientTransform="matrix(0.9935 0.114 -0.114 0.9935 46.3 -17.5618)">
	<stop  offset="0.0056" style="stop-color:#787878"/>
	<stop  offset="0.304" style="stop-color:#7E7E7E"/>
	<stop  offset="0.6841" style="stop-color:#8D8D8D"/>
	<stop  offset="1" style="stop-color:#A0A0A0"/>
</linearGradient>
<path fill="url(#SVGID_8_)" stroke="#231F20" stroke-miterlimit="10" d="M114.013,428.498l0.525-3.855
	c0.351-2.553,1.648-4.672,3.656-5.967c1.996-1.287,4.438-1.598,6.876-0.871c4.763,1.416,8.083,6.471,7.678,11.428
	c1.087,0.258,4.798,1.141,6.293,1.496c0.557-8.51-5.214-17.125-13.366-19.549c-4.064-1.209-8.104-0.709-11.37,1.4
	c-3.295,2.127-5.428,5.643-6.008,9.9l-0.685,5.021c0.935-0.521,2.028-0.775,3.173-0.645
	C112.076,427.006,113.187,427.621,114.013,428.498z"/>
<linearGradient id="SVGID_9_" gradientUnits="userSpaceOnUse" x1="111.5" y1="452.9473" x2="143.0557" y2="452.9473" gradientTransform="matrix(0.9935 0.114 -0.114 0.9935 46.3 -17.5618)">
	<stop  offset="0.0056" style="stop-color:#787878"/>
	<stop  offset="0.304" style="stop-color:#7E7E7E"/>
	<stop  offset="0.6841" style="stop-color:#8D8D8D"/>
	<stop  offset="1" style="stop-color:#A0A0A0"/>
</linearGradient>
<path fill="url(#SVGID_9_)" stroke="#231F20" stroke-miterlimit="10" d="M127.352,448.451c-1.995,1.287-4.436,1.6-6.873,0.873
	c-2.4-0.715-4.516-2.348-5.961-4.598c-1.461-2.344-2.052-4.879-1.714-7.346l0.101-0.748c-0.967,0.586-2.116,0.881-3.327,0.744
	c-1.211-0.139-2.264-0.691-3.075-1.482c-0.828,8.678,5.035,17.572,13.371,20.051c4.069,1.209,8.111,0.717,11.368-1.396
	c3.297-2.131,5.43-5.645,6.011-9.902c0,0,0.032-0.236,0.058-0.424c-1.183-0.281-5.032-1.195-6.379-1.516
	C130.535,445.148,129.298,447.195,127.352,448.451z"/>
<linearGradient id="SVGID_10_" gradientUnits="userSpaceOnUse" x1="109.9111" y1="439.4561" x2="119.5381" y2="439.4561" gradientTransform="matrix(0.9935 0.114 -0.114 0.9935 46.3 -17.5618)">
	<stop  offset="0" style="stop-color:#5A5A5A"/>
	<stop  offset="0.3226" style="stop-color:#656565"/>
	<stop  offset="1" style="stop-color:#787878"/>
</linearGradient>
<path fill="url(#SVGID_10_)" stroke="#231F20" stroke-miterlimit="10" d="M105.4,431.568c-0.303,2.639,1.596,5.029,4.233,5.332
	c2.636,0.301,5.027-1.596,5.33-4.234c0.302-2.637-1.596-5.027-4.232-5.332C108.094,427.033,105.703,428.93,105.4,431.568z"/>
<path fill="none" stroke="#000000" stroke-width="4" stroke-linecap="round" stroke-linejoin="round" stroke-miterlimit="10" d="
	M315.522,397.156l2.882,0.713l16.396-0.736c0.529-9.078-4.412-19.326-15.129-22.09c-1.463-0.377-7.082-0.593-12.65-0.378
	l0.877-8.384l-41.813-46.982v-140.51l-35.356-15.212l0.008-136.503L177.37,2L46.968,17.774l-0.014,155.07l1.376,0.678l-31.018,3.622
	v19.788l-14.904,1.719l0.041,0.275l-0.057-0.03L3.87,329.614c-0.081,0.18-0.165,0.356-0.241,0.54
	c-4.587,11.049,0.842,23.801,12.123,28.482c0.517,0.215,1.038,0.401,1.561,0.575v74.056l40.771,27.462l1.128,150.13l58.649,37.543
	l55.315-8.33l0-10.784l14.38,8.608l54.147-8.174l-0.025-27.377l-16.899-8.518l1.71-150.942l39.595-6.54v-31.643l13.524,14.738
	l10.093-1.904c2.297,2.419,5.147,4.287,8.354,5.24c1.688,0.502,3.374,0.719,5.011,0.673c0.015,0.004,0.037,0.019,0.05,0.021
	c6.158,0.141,14.852-0.471,17.195-0.615c13.484-3.504,12.93-14.246,12.93-14.246l-8.215-1.953c0,0-15.838,0.613-15.859,0.561
	c-0.596-1.543-0.768-3.006-0.551-4.586c0,0,0.055-0.4,0.143-1.049c0.869-0.826,1.482-1.93,1.629-3.215
	c0.139-1.205-0.158-2.35-0.738-3.314c0.149-1.095,0.292-2.139,0.408-3c0.271,1.125,0.348,2.295,0.193,3.452l-0.047,0.337h0.001
	l-0.007,0.051L315.522,397.156z"/>
</svg>
