<?xml version="1.0" encoding="utf-8"?>
<!-- Generator: Adobe Illustrator 16.0.0, SVG Export Plug-In . SVG Version: 6.00 Build 0)  -->
<!DOCTYPE svg PUBLIC "-//W3C//DTD SVG 1.1//EN" "http://www.w3.org/Graphics/SVG/1.1/DTD/svg11.dtd">
<svg version="1.1" id="Cupcakes" xmlns="http://www.w3.org/2000/svg" xmlns:xlink="http://www.w3.org/1999/xlink" x="0px" y="0px"
	 width="306.304px" height="365.005px" viewBox="0 0 306.304 365.005" enable-background="new 0 0 306.304 365.005"
	 xml:space="preserve">
<path fill="#D0A68C" d="M268.381,173.015c-3.088-0.617-6.036-0.926-9.16-1.02c-168.91-6.355-240.049,4.238-240.049,4.238
	c-16.918,7.951-17.667,29.875-17.667,29.875c1.689,4.096,3.128,6.83,5.675,10.404c1.559,5.984,293.633,0.207,293.895-2.119
	c4.364-8.01,6.238-17.506,1.09-25.289C295.395,178.873,279.661,175.269,268.381,173.015z"/>
<path fill="#A3694A" d="M222.322,152.412c-46.537-4.627-94.15-6.523-140.918-6.227c-18.068,0.113-39.894,0.832-54.32,13.23
	c-13.366,11.486-22.283,35.248-14.181,52.164c6.591,13.754,17.624,22.312,30.262,29.135c13.71,7.4,39.823,14.318,55.78,15.131
	c37.676,5.104,80.12,5.365,116.694-4.086c15.231-3.938,28.095-8.17,43.136-12.713c8.281-2.5,22.472-9.734,28.731-16.357
	c0.884-0.938,5.602-3.822,6.231-4.982c7.504-13.875-2.477-37.586-12.262-48.131C266.963,153.925,242.512,154.419,222.322,152.412z"
	/>
<path fill="#724422" d="M222.322,152.412c-46.537-4.627-94.15-6.523-140.918-6.227c-18.068,0.113-43.76-1.978-58.188,10.421
	c-26.863,23.086,2.206,43.777,26.035,54.015c17.91,7.69,44.04,13.297,64.631,15.318c21.024,2.064,43.077,3.121,65.334,2.667
	c32.667-0.666,69.334-17.334,68.666-4.667c-10,12.667-4.007,19.607,10.893,15.107c8.281-2.5,22.472-9.734,28.731-16.357
	c0.884-0.938,5.602-3.822,6.231-4.982c7.504-13.875-2.477-37.586-12.262-48.131C266.963,153.925,242.512,154.419,222.322,152.412z"
	/>
<path fill="#F9F6E5" stroke="#231F20" stroke-width="2" stroke-linecap="round" stroke-linejoin="round" stroke-miterlimit="10" d="
	M297.029,208.882c-5.145,4.33-7.335,1.348-12.01-2.016c-0.276,5.168,2.289,15.156-3.246,17.092
	c-6.328,2.213-16.857-10.002-21.02-6.387c-1.587,1.379,0.044,7.609-0.324,9.682c-0.777,4.43-3.188,5.715-7.838,5.463
	c-4.714-0.258-8.006-1.908-12.148-4.238c-2.853-1.607-5.892-5.131-9.455-4.357c-0.315,5.984,0.883,12.701-0.592,18.49
	c-8.108,0.77-11.318-6.105-17.107-10.186c-3.81-2.686-9.141-3.867-10.068,1.604c-0.699,4.107,2.467,10.555-1.14,12.645
	c-11.038,6.396-13.253-18.387-22.845-8.127c-4.342,4.641-3.613,15.014-12.614,9.002c-4.683-3.129-10.147-13.062-15.256-9.467
	c-4.204,2.959-3.411,10.279-9.456,10.52c-7.264,0.283-13.815-9.885-18.555-14.045c-5.44-4.77-8.27-0.725-13.139,3.943
	c-2.566,2.463-4.037,5.002-7.173,3.891c-5.053-1.791-6.761-10.977-11.579-12.615c-6.563-2.234-9.652,10.992-15.857,10.199
	c-8.042-1.027-6.758-19.754-16.315-16.854c-7.022,2.131-9.229,13.191-15.448,3.234c-1.788-2.861-3.4-10.799-6.334-12.348
	c-3.08-1.625-7.525,3.244-10.021,4.729c-10.396,6.186-6.801-4.639-9.148-11.475c-2.727-7.932-7.228,2.662-12.217,0.475
	c-0.936-0.41-1.48-1.516-1.783-2.959c-0.759-3.615,0.001-9.365,0.001-11.68c-5.448,8.564-3.173,18.096-0.606,24.307
	c12.271,29.703,48.828,112.004,55.186,124.268c102.297,49.269,191.297,1.269,191.297,1.269
	c18.221-39.127,34.215-79.106,49.566-119.483c2.244-5.896,6.599-17.986,5.275-24.469
	C301.232,200.443,299.951,206.425,297.029,208.882z"/>
<g>
	<path fill="#EDE8D1" d="M97.311,252.304c-0.635-3.229-1.143-15.645-3.678-16.338c-8.133-2.238-3.861,20.07-3.587,23.592
		c1.588,20.375,4.743,53.043,6.835,73.344c1,9.707,2.139,22.801,6.496,20.736c3.389,0.066,0.967-18.229,0.281-25.529
		C102.955,320.64,99.01,260.937,97.311,252.304z"/>
	<path fill="#EDE8D1" d="M112.078,269.074c0.182,11.227,1.906,40.205,1.859,54.125c-0.037,10.75-1.791,36.502,7.172,34.141
		c4.537,0.818-2.156-112.408-2.24-119.154C108.433,242.812,111.773,250.267,112.078,269.074z"/>
	<path fill="#EDE8D1" d="M159.238,248.572c-0.627-3.555-1.905-6.625-4.588-4.723c-2.293,1.625-1.061,6.383-1.184,8.752
		c-0.299,5.668-0.699,11.322-0.857,17.002c-0.328,11.795-0.109,23.604,0.068,35.4c0.098,6.455,0.191,12.912,0.188,19.369
		c-0.002,6.697-0.098,13.4-0.385,20.09c-0.193,4.492-2.067,12.084,0.703,16.064c3.281,4.713,5.34,0.633,5.658-3.389
		c0.777-9.826,0.592-19.832,0.699-29.682c0.183-16.426,0.205-32.854,0.342-49.279c0.061-7.395,0.422-14.809,0.004-22.197
		C159.836,255.091,159.783,251.648,159.238,248.572z"/>
	<path fill="#EDE8D1" d="M267.486,227.38c-3.144,5.854-16.964,89.314-19.654,101.59c-0.244,1.119-1.367,6.035,0.623,6.676
		c1.951,0.627,4.457-11.75,4.924-13.744c3.398-14.484,14.831-64.307,16.609-72.916c1.385-6.709,4.285-15.104,2.143-21.871
		C271.072,223.767,268.858,224.828,267.486,227.38z"/>
	<path fill="#EDE8D1" d="M64.795,280.906c-2.523-14.539-3.191-30.084-7.227-44.26c-0.59-2.07-1.595-6.096-4.882-4.244
		c-3.279,1.846,1.999,20.814,2.459,23.795c3.827,24.773,7.251,49.617,11.991,74.238c0.238,1.246-0.19,10.104,3.4,7.084
		c1.168-0.979,0.04-4.752-0.099-5.996C68.555,314.757,67.681,297.515,64.795,280.906z"/>
	<path fill="#EDE8D1" d="M211.338,233.814c-0.504,19.863-6.24,100.275-5.952,106.012c0.341,6.746,1.169,12.613,6.302,10.949
		c1.107-14.625,9.116-107.646,6.111-112.451C217.118,237.236,214.4,234.611,211.338,233.814z"/>
	<path fill="#EDE8D1" d="M234.307,240.185c0.228,11.77-6.634,8.965-6.634,8.965s-10.37,99.451-5.221,97.041
		c3.795-1.777,16.06-105.041,15.104-111.725C235.463,230.798,234.213,235.406,234.307,240.185z"/>
	<path fill="#EDE8D1" d="M185.76,241.57c-0.249,24.5-0.438,81.541-0.438,91.58c0,6.301-1.123,25.674,6.526,23.545
		c1.101-21.24,2.498-97.291,1.532-102.055C192.674,251.162,190.93,244.439,185.76,241.57z"/>
	<path fill="#EDE8D1" d="M172.333,253.455c-2.999,3.246-2.254,19.625-2.206,26.102c0.068,9.809-2.293,103.064,4.954,77.08
		c1.769-4.924,1.804-70.051,1.8-80.912C176.877,268.863,176.83,247.957,172.333,253.455z"/>
	<path fill="#EDE8D1" d="M250.512,236.927c-3.909-0.721-5.352-2.785-5.352-2.785c-1.009,7.029-10.223,89.477-11.047,97.576
		c-0.168,1.654-0.01,4.875,1.724,4.904c1.735,0.025,2.434-5.748,3.019-8.414c0.803-3.656,15.912-74.932,18.936-92.406
		C255.94,237.146,254.42,237.648,250.512,236.927z"/>
	<path fill="#EDE8D1" d="M132.48,248.259c-0.127,1.391-0.201,84.504-0.201,95.695c0,3.799,0.329,14.93,0.329,14.93
		s7.745,4.75,8.063-11.213c0.361-18.219,0.54-36.443,0.664-54.664c0.066-10.887,0.883-22.504-0.917-33.299
		C139.646,255.08,136.736,250.525,132.48,248.259z"/>
	<path fill="#EDE8D1" d="M82.26,271.345c-0.861-10.434-0.266-15.664-0.91-27.781c-2.004,2.584-2.926,3.914-7.445,3.322
		c-3.056-0.398-6-1.729-7.25-7.926c-2.693-4.725,1.373,12.17,2.049,17.844c1.128,9.473,2.338,15.432,3.969,26.373
		c1.014,6.805,2.955,24.488,4.061,30.359c0.871,4.629,2.462,39.018,9.943,34.15c0.145-6.162-1.418-33.939-1.887-39.684
		C83.914,297.283,83.576,287.31,82.26,271.345z"/>
	<path fill="#EDE8D1" d="M42.415,240.212c-2.354-8.965-2.364-14.568-6.995-19.488c-3.733-3.965-5.496,2.248-4.527,10.248
		c0.658,5.41,16.357,55.742,17.988,63.57c1.545,7.408,9.233,33.804,12.336,35.397c1.458,0.748,2.123,5.603,2.652,4.46
		c1.483-3.201-4.305-19.49-5.074-24.164C57.9,304.8,44.746,249.08,42.415,240.212z"/>
	<path fill="#EDE8D1" d="M34.158,270.363c-3.123-8.482-5.371-13.225-8.316-21.857c-1.42-4.158-2.732-8.359-4.162-12.449
		c-1.732-4.949-2.891-10.492-4.295-15.521c-0.688-2.467,0.072-9.02-2.439-10.414c-3.692-2.045-5.441,3.912-5.047,6.324
		c0.973,5.957,4.011,12.027,5.446,18c2.259,9.393,6.249,18.217,10.421,26.887c2.705,5.619,5.279,11.268,7.811,16.971
		c0.939,2.072,7.098,11.141,5.217,4.881C38.753,283.15,34.617,271.613,34.158,270.363z"/>
	<path fill="#EDE8D1" d="M292.146,214.22c-3.953,1.256-7.145,11.346-8.769,16.838c-4.54,15.338-8.227,30.133-13.922,45.131
		c-1.013,2.664-9.286,19.209-3.695,19.689c0.028,0.002,21.793-53.346,24.495-60.162C291.533,232.492,303.465,210.621,292.146,214.22
		z"/>
</g>
<path fill="#B5E828" d="M259.525,117.488c17.614-35.154-48.33-52.54-48.33-52.54c1.484-44.046-49.466-40.952-49.466-40.952
	c-90.083-8.139-90.583,58.816-90.583,58.816c-24.484,0-49.967,31.264-35.727,45.596c-39.35,11.262-19.862,54.607-19.862,54.607
	c88.813,65.523,247.966,38.252,271.325,1.021C318.361,133.873,259.525,117.488,259.525,117.488z"/>
<g>
	<path fill="#A4CC11" d="M192.083,30.136c0,0,31.331,31.567-51.866,52.804c-4.748,1.213-23.6,2.87-21.85,6.368
		c0,0,53.465,2.998,92.828-24.36C211.195,64.948,214.305,41.09,192.083,30.136z"/>
	<path fill="#A4CC11" d="M251.781,99.552c-7.994,13.074-15.74,32.979-129.416,39.975c-3.707,0.229-8.495-0.75-10.102,3.229
		c0,0,108.287,13.01,148.012-25.465c0,0,7.744-16.24-5.236-28.798C255.039,88.493,255.223,93.925,251.781,99.552z"/>
	<path fill="#A4CC11" d="M198.565,204.234c-43.565,5.283-89.014,4.275-131.421-7.912c-10.73-3.086-21.708-8.297-28.459-17.527
		c-5.629-7.695-9.494-17.662-6.236-27.061c2.917-8.428,11.658-17.316,20.459-19.078c-7.494-3.498-8.559-5.047-9.618-6.371
		c-2.632-3.285-3.685-6.635-4.356-10.814c-1.043-6.48,1.375-13.518,3.606-19.539c0,0-6.194,7.518-6.745,8.244
		c-3.172,4.174-6.467,11.611-4.89,17.145c0.672,2.359,3.016,5.465,3.016,5.465c-2.498,1.25-9.476,5.602-10.678,6.529
		C7.521,145.445,7.883,164.94,14.808,182.5c0,0,9.661,13.334,34.409,23.94c14,6,32.48,9.117,46.334,11.5
		c59.583,10.238,92.521,3.782,92.521,3.782c45.722-4.246,71.205-16.738,71.205-16.738c24.482-10.992,29.729-23.982,29.729-23.982
		c12.492-20.99,4.497-37.729,4.497-37.729C278.764,190.992,198.565,204.234,198.565,204.234z"/>
</g>
<path fill="none" stroke="#231F20" stroke-width="2" stroke-miterlimit="10" d="M305.249,200.422
	c0.125-3.925-0.756-7.797-3.085-11.317c-2.832-4.28-7.241-7.39-12.229-9.737c3.255-5.905,4.918-11.44,5.634-16.317
	c0.911-5.197,0.69-9.87-0.331-14.061c-0.739-3.623-1.734-5.717-1.734-5.717c-0.033,0.108-0.073,0.214-0.107,0.321
	c-7.882-17.63-30.193-24.99-33.465-25.986c0.112-0.107,0.232-0.209,0.344-0.317c0,0,7.672-16.103-5.08-28.638
	c-14.178-15.842-44-23.705-44-23.705s3.109-23.858-19.112-34.812c0,0,0.033,0.041,0.088,0.114c-11.098-5.77-23.801-6.318-28.531-6.3
	c-0.878-2.082-1.901-4.092-3.072-5.975c-7.679-12.339-26.614-13.312-39.187-8.667c-1.595,0.59-11.251,4.49-11.325,4.523
	c-8.099,3.549-17.005,7.505-22.354,14.889c-4.37,6.032-6.102,14.45-5.443,22.202C71.276,66.475,71.146,82.812,71.146,82.812
	c-10.422,0-21.021,5.665-28.664,13.276c0.019-0.052,0.038-0.105,0.058-0.157c0,0-0.187,0.226-0.48,0.584
	c-2.034,2.074-3.849,4.284-5.381,6.56c-0.449,0.553-0.776,0.959-0.884,1.101c-3.172,4.174-6.467,11.611-4.89,17.145
	c0.672,2.359,3.016,5.465,3.016,5.465c-2.498,1.25-9.476,5.602-10.678,6.529c-13.683,10.557-15.181,26.69-10.775,42.272
	c0.005,1.545,0.212,3.065,0.606,4.557c-0.015,0.039-0.028,0.079-0.043,0.119c-4.297,3.761-7.001,8.539-8.692,12.968
	c0-0.043,0.002-0.092,0.002-0.133c-5.448,8.564-3.173,18.096-0.606,24.307c12.271,29.703,48.828,112.004,55.186,124.268
	c101.297,48.269,189.297,3.269,189.297,3.269c18.221-39.127,36.215-81.106,51.566-121.483
	C301.871,217.97,305.78,207.126,305.249,200.422z"/>
<path fill="none" stroke="#231F20" stroke-miterlimit="10" d="M12.717,176.94c0,0,0.5,11.5,29,26s73.5,21.037,117.5,21.5
	c47.5,0.5,92.508-15.423,105-21.5c18.5-9,25.719-23.572,25.719-23.572"/>
<path fill="#C00E40" stroke="#231F20" stroke-miterlimit="10" d="M160.567,17.975c-5.951-9.995-28.313-16.429-52.351-3.368
	c-5.994,3.256-14.812,4.547-20.667,11.333c-14.126,16.373-1.333,40.667-1.333,40.667c4.045,3.198,28,11.333,45.5,6.833
	c27.918-7.179,35.527-22.195,35.527-22.195S168.884,31.94,160.567,17.975z"/>
<path fill="#EB618A" d="M154.586,14.896c-1.926-1.605-4.188-3.309-6.535-4.222c-1.65-0.641-7.172-0.66-5.377,2.426
	c0.093,0.155,0.201,0.32,0.333,0.494c1.806,2.396,5.667,0.983,7.787,3.396c2.337,2.661,3.47,7.322,1.513,10.485
	c-1.201,1.941-2.893,4.562,0.175,5.642c1.598,0.562,5.241-0.411,6.339-1.639c1.699-1.899,1.094-5.889,0.802-8.151
	C159.176,19.846,157.225,17.097,154.586,14.896z"/>
<path fill="#991129" d="M123.55,21.94c-0.303-1.429,0.145-3.324-0.963-4.862c-1.542-2.143-4.066-0.637-5.729,0.308
	c-1.06,0.604-2.371,0.801-3.581,0.687c-1.086-0.103-1.781-0.833-3.004-0.614c-1.965,0.353-4.146,1.944-4.451,4.026
	c2.673-0.541,3.71,0.099,4.043,0.424c1.866,1.822-5.674,5.012-1.085,8.947c1.104-1.174,2.306-2.301,3.752-3.042
	c1.153-0.591,2.479-1.122,3.798-0.96c1.42,0.173,2.04,1.393,3.005,2.264c1.32,1.19,3.298,1.577,4.972,0.984
	C129.092,28.406,128.543,21.576,123.55,21.94z"/>
<path fill="#A36A39" stroke="#231F20" stroke-miterlimit="10" d="M114.884,22.607l-2.667-10.667c0,0-6.616-6.955-4-9.333
	c7.333-6.667,8.616,4.372,9.769,7.173c1.35,3.28,0.898,14.16,0.898,14.16L114.884,22.607z"/>
</svg>
