<?xml version="1.0" encoding="utf-8"?>
<!-- Generator: Adobe Illustrator 16.0.0, SVG Export Plug-In . SVG Version: 6.00 Build 0)  -->
<!DOCTYPE svg PUBLIC "-//W3C//DTD SVG 1.1//EN" "http://www.w3.org/Graphics/SVG/1.1/DTD/svg11.dtd">
<svg version="1.1" id="Layer_1" xmlns="http://www.w3.org/2000/svg" xmlns:xlink="http://www.w3.org/1999/xlink" x="0px" y="0px"
	 width="341.521px" height="103.549px" viewBox="-0.5 0.5 341.521 103.549" enable-background="new -0.5 0.5 341.521 103.549"
	 xml:space="preserve">
<path id="colour" fill="#FF6417" stroke="#000000" stroke-linecap="round" stroke-linejoin="round" stroke-miterlimit="10" d="
	M335.857,65.296c0.859-1.369-0.393-2.406,0.44-4.254c0.833-1.85,4.176-4.42,4.214-5.768c0.533-19.048-22.856-34.915-48.062-43.459
	c-31.134-10.553-84.158-19.224-176.006,3.418c-36.82,9.077-59.823,20.154-75.861,24.79c-1.835,0.53-2.167,0.187-2.167,0.187
	S13.68,27.636,6.845,7.559c-0.505-1.48-10.32,14.457-5.534,21.347c5.64,8.119,13.16,9.958,5.534,19.665
	c-8.594,10.937-4.203,39.31-3.418,38.021c16.66-27.342,34.386-25.752,34.989-24.744c2.085,3.475,15.419,13.209,41.716,22.594
	C119.239,98.396,296.759,127.507,335.857,65.296z"/>
<circle fill="#FFFFFF" stroke="#000000" stroke-linecap="round" stroke-linejoin="round" stroke-miterlimit="10" cx="310.602" cy="40.813" r="10.994"/>
<circle fill="#171516" cx="311.381" cy="41.111" r="6.24"/>
<circle fill="#FFFFFF" cx="309.325" cy="38.122" r="1.277"/>
<path opacity="0.2" enable-background="new    " d="M271.92,71.437l5.583-0.729c-0.87,1.232-13.104,12.496-24.639,13.777
	c-18.545,2.062-19.863-12.174-19.863-12.174l28.726,1.551L271.92,71.437z"/>
<g id="colour_1_">
	<path fill="#FF6417" d="M278.366,68.746c-16.485,18.643-55.775,12.805-45.399-9.586c3.729-8.045,20.959,1.654,29.489,2.186"/>
	<path d="M278.366,68.746c0,0-0.246,0.281-0.708,0.811c-0.477,0.516-1.177,1.277-2.168,2.141c-0.983,0.871-2.24,1.863-3.782,2.861
		c-1.534,1.008-3.375,1.979-5.464,2.846c-4.175,1.715-9.417,2.994-15.107,2.908c-2.837-0.039-5.781-0.385-8.664-1.223
		c-2.866-0.84-5.727-2.18-7.97-4.344c-1.119-1.072-2.057-2.35-2.696-3.77c-0.631-1.42-0.979-2.963-0.996-4.49
		c-0.029-1.527,0.204-3.031,0.618-4.451c0.212-0.707,0.456-1.398,0.731-2.072l0.451-1c0.151-0.297,0.349-0.666,0.579-0.959
		c0.903-1.24,2.343-1.939,3.715-2.178c1.387-0.266,2.751-0.201,4.045-0.061c2.593,0.309,4.955,0.967,7.114,1.594
		c4.301,1.32,7.824,2.57,10.36,3.211c2.527,0.686,4.031,0.773,4.031,0.773s-1.509-0.021-4.071-0.611
		c-2.562-0.562-6.139-1.705-10.458-2.891c-2.157-0.582-4.517-1.188-7.042-1.439c-1.258-0.113-2.568-0.145-3.837,0.123
		c-1.265,0.252-2.469,0.883-3.216,1.947c-0.197,0.264-0.33,0.521-0.494,0.857l-0.398,0.949c-0.256,0.65-0.486,1.312-0.684,1.99
		c-0.384,1.355-0.588,2.773-0.549,4.191c0.049,2.846,1.335,5.627,3.468,7.582c2.112,1.98,4.812,3.291,7.569,4.129
		c2.773,0.83,5.638,1.193,8.407,1.254c2.771,0.053,5.457-0.203,7.963-0.652c2.508-0.447,4.832-1.127,6.913-1.918
		c4.161-1.605,7.32-3.66,9.33-5.316c1.015-0.822,1.757-1.533,2.259-2.023C278.104,69.015,278.366,68.746,278.366,68.746z"/>
</g>
<path opacity="0.2" enable-background="new    " d="M35.467,48.997c0,0,2.788-7.232,2.563-6.408
	c-2.563,9.398-14.525,5.127-17.088,4.699c-10.113-1.685-11.534,0.428-14.525,6.408c-2.599,5.196-3.17,21.757-2.562,18.798
	C7.272,55.832,23.933,50.706,35.467,48.997z"/>
<g>
	<path d="M40.559,40.375c-4.066,4.5-5.124,10.556-3.719,16.432C34.743,50.882,35.534,38.505,40.559,40.375z"/>
</g>
<g>
	<path d="M340.231,55.054c-8.821,13.106-25.948,18.77-38.946,8.129l0.062-0.08c13.45,10.211,28.731,3.347,38.805-8.104
		L340.231,55.054z"/>
</g>
<path opacity="0.2" enable-background="new    " d="M297.339,15.248c-4.333-1.547-7.262-2.136-7.262-2.136
	s-59.499-20.989-149.946,1.281C55.118,35.327,37.176,46.006,37.176,46.006l-0.427,2.136c0.854-1.709,102.101-24.351,155.926-27.34
	c53.827-2.991,90.14,5.553,90.14,5.553c1.282,0,14.952,4.272,14.952,4.272s2.836-4.615,11.533-5.127
	c7.263-0.427,13.671,3.417,13.671,3.417S309.3,19.521,297.339,15.248z"/>
<g>
	<path d="M292.853,13.017C276.262,30.164,272.9,72.5,293.482,87.988c-21.283-15.385-18.408-58.699-1.958-76.468
		c0.4-0.38,1.034-0.362,1.414,0.039c0.379,0.401,0.361,1.034-0.04,1.414C292.883,12.986,292.867,13.001,292.853,13.017z"/>
</g>
<g>
	
		<path fill-rule="evenodd" clip-rule="evenodd" fill="none" stroke="#000000" stroke-width="0.5" stroke-linecap="round" stroke-linejoin="round" stroke-miterlimit="10" d="
		M255.635,3.274c0,0-8.444,1.317-15.638,22.899c-3.634,10.899-4.111,22.094-4.111,22.094"/>
	
		<path fill-rule="evenodd" clip-rule="evenodd" fill="none" stroke="#000000" stroke-width="0.5" stroke-linecap="round" stroke-linejoin="round" stroke-miterlimit="10" d="
		M269.135,5.274c-3.645,2.659-7.695,7.441-12.182,20.899c-3.633,10.899-4.111,22.094-4.111,22.094"/>
	
		<path fill-rule="evenodd" clip-rule="evenodd" fill="none" stroke="#000000" stroke-width="0.5" stroke-linecap="round" stroke-linejoin="round" stroke-miterlimit="10" d="
		M284.76,9.149c-3.468,3.34-5.197,6.233-8.795,17.024c-3.634,10.899-4.11,22.094-4.11,22.094"/>
	
		<path fill-rule="evenodd" clip-rule="evenodd" fill="none" stroke="#000000" stroke-width="0.5" stroke-linecap="round" stroke-linejoin="round" stroke-miterlimit="10" d="
		M215.011,1.191c0,0-9.442,3.401-16.636,24.982c-3.633,10.899-4.11,22.094-4.11,22.094"/>
	
		<path fill-rule="evenodd" clip-rule="evenodd" fill="none" stroke="#000000" stroke-width="0.5" stroke-linecap="round" stroke-linejoin="round" stroke-miterlimit="10" d="
		M234.885,1.524c0.305-0.076-9.244-0.109-17.496,24.649c-3.635,10.899-4.111,22.094-4.111,22.094"/>
	
		<path fill-rule="evenodd" clip-rule="evenodd" fill="none" stroke="#000000" stroke-width="0.5" stroke-linecap="round" stroke-linejoin="round" stroke-miterlimit="10" d="
		M193.344,2.191c-3.563,2.316-11.71,9.462-16.55,23.982c-3.634,10.899-4.111,22.094-4.111,22.094"/>
	
		<path fill-rule="evenodd" clip-rule="evenodd" fill="none" stroke="#000000" stroke-width="0.5" stroke-linecap="round" stroke-linejoin="round" stroke-miterlimit="10" d="
		M167.511,5.108c-3.469,3.34-8.701,10.274-12.298,21.065c-3.634,10.899-4.11,22.094-4.11,22.094"/>
	
		<path fill-rule="evenodd" clip-rule="evenodd" fill="none" stroke="#000000" stroke-width="0.5" stroke-linecap="round" stroke-linejoin="round" stroke-miterlimit="10" d="
		M141.386,10.28c-2.596,3.58-5.348,8.672-7.754,15.893c-3.633,10.899-4.11,22.094-4.11,22.094"/>
	
		<path fill-rule="evenodd" clip-rule="evenodd" fill="none" stroke="#000000" stroke-width="0.5" stroke-linecap="round" stroke-linejoin="round" stroke-miterlimit="10" d="
		M115.644,15.896c-1.553,2.838-2.555,6.251-3.971,10.354c-3.75,10.861-4.242,22.018-4.242,22.018"/>
	
		<path fill-rule="evenodd" clip-rule="evenodd" fill="none" stroke="#000000" stroke-width="0.5" stroke-linecap="round" stroke-linejoin="round" stroke-miterlimit="10" d="
		M90.47,23.09c-5.138,10.276-5.138,25.178-5.138,25.178"/>
	
		<path fill-rule="evenodd" clip-rule="evenodd" fill="none" stroke="#000000" stroke-width="0.5" stroke-linecap="round" stroke-linejoin="round" stroke-miterlimit="10" d="
		M66.51,30.691c-2.979,10.121-3.273,19.118-3.273,19.118"/>
	
		<path fill-rule="evenodd" clip-rule="evenodd" fill="none" stroke="#000000" stroke-width="0.5" stroke-linecap="round" stroke-linejoin="round" stroke-miterlimit="10" d="
		M42.688,39.218c-1.321,6.845-1.546,12.133-1.546,12.133"/>
</g>
<g>
	
		<path fill-rule="evenodd" clip-rule="evenodd" fill="none" stroke="#000000" stroke-width="0.5" stroke-linecap="round" stroke-linejoin="round" stroke-miterlimit="10" d="
		M140.138,10.269c2.482,3.153,5.117,7.375,7.667,13.024c4.729,10.471,6.349,21.559,6.349,21.559"/>
	
		<path fill-rule="evenodd" clip-rule="evenodd" fill="none" stroke="#000000" stroke-width="0.5" stroke-linecap="round" stroke-linejoin="round" stroke-miterlimit="10" d="
		M124.427,13.441c1.966,2.83,4.536,7.21,6.511,11.585c4.729,10.472,6.347,21.559,6.347,21.559"/>
	
		<path fill-rule="evenodd" clip-rule="evenodd" fill="none" stroke="#000000" stroke-width="0.5" stroke-linecap="round" stroke-linejoin="round" stroke-miterlimit="10" d="
		M107.172,17.914c1.612,2.513,3.25,5.501,4.854,9.055c4.728,10.472,6.348,21.56,6.348,21.56"/>
	
		<path fill-rule="evenodd" clip-rule="evenodd" fill="none" stroke="#000000" stroke-width="0.5" stroke-linecap="round" stroke-linejoin="round" stroke-miterlimit="10" d="
		M89.361,22.826c1.083,1.749,2.169,3.764,3.241,6.137c4.729,10.473,6.348,21.56,6.348,21.56"/>
	
		<path fill-rule="evenodd" clip-rule="evenodd" fill="none" stroke="#000000" stroke-width="0.5" stroke-linecap="round" stroke-linejoin="round" stroke-miterlimit="10" d="
		M179.678,3.524c2.755,3.255,6.651,9.139,9.531,15.514c4.728,10.471,6.347,21.56,6.347,21.56"/>
	
		<path fill-rule="evenodd" clip-rule="evenodd" fill="none" stroke="#000000" stroke-width="0.5" stroke-linecap="round" stroke-linejoin="round" stroke-miterlimit="10" d="
		M161.48,6.56c2.809,3.269,5.867,7.892,8.816,14.422c4.729,10.471,6.348,21.558,6.348,21.558"/>
	
		<path fill-rule="evenodd" clip-rule="evenodd" fill="none" stroke="#000000" stroke-width="0.5" stroke-linecap="round" stroke-linejoin="round" stroke-miterlimit="10" d="
		M201.011,1.524c2.79,3.265,6.741,8.83,9.666,15.308c4.729,10.471,6.347,21.559,6.347,21.559"/>
	
		<path fill-rule="evenodd" clip-rule="evenodd" fill="none" stroke="#000000" stroke-width="0.5" stroke-linecap="round" stroke-linejoin="round" stroke-miterlimit="10" d="
		M224.041,1.618c2.483,3.154,5.552,7.354,8.104,13.008c4.729,10.472,6.348,21.56,6.348,21.56"/>
	
		<path fill-rule="evenodd" clip-rule="evenodd" fill="none" stroke="#000000" stroke-width="0.5" stroke-linecap="round" stroke-linejoin="round" stroke-miterlimit="10" d="
		M248.01,2.399c2.009,2.862,3.581,5.544,5.604,10.021c4.729,10.471,6.347,21.558,6.347,21.558"/>
	
		<path fill-rule="evenodd" clip-rule="evenodd" fill="none" stroke="#000000" stroke-width="0.5" stroke-linecap="round" stroke-linejoin="round" stroke-miterlimit="10" d="
		M273.635,6.274c1.014,1.973,0.679,1.5,1.831,3.979c4.84,10.421,6.471,21.47,6.471,21.47"/>
	
		<path fill-rule="evenodd" clip-rule="evenodd" fill="none" stroke="#000000" stroke-width="0.5" stroke-linecap="round" stroke-linejoin="round" stroke-miterlimit="10" d="
		M70.614,29.147c4.493,9.368,5.675,20.871,5.675,20.871"/>
	
		<path fill-rule="evenodd" clip-rule="evenodd" fill="none" stroke="#000000" stroke-width="0.5" stroke-linecap="round" stroke-linejoin="round" stroke-miterlimit="10" d="
		M49.547,36.854c4.192,6.445,5.02,14.489,5.02,14.489"/>
</g>
</svg>
