<?xml version="1.0" encoding="utf-8"?>
<!-- Generator: Adobe Illustrator 16.0.0, SVG Export Plug-In . SVG Version: 6.00 Build 0)  -->
<!DOCTYPE svg PUBLIC "-//W3C//DTD SVG 1.1//EN" "http://www.w3.org/Graphics/SVG/1.1/DTD/svg11.dtd">
<svg version="1.1" id="Layer_2" xmlns="http://www.w3.org/2000/svg" xmlns:xlink="http://www.w3.org/1999/xlink" x="0px" y="0px"
	 width="207.508px" height="253.027px" viewBox="0 0 207.508 253.027" enable-background="new 0 0 207.508 253.027"
	 xml:space="preserve">
<path fill="#231F20" stroke="#231F20" stroke-width="2" stroke-linecap="round" stroke-linejoin="round" stroke-miterlimit="10" d="
	M202.834,60.334c-4.311-6.29-13.403-11.344-20.302-5.832l-1.078-0.763c1.805-13.601-0.463-27.404-12.834-35.311
	c-5.758-3.68-12.554-5.387-19.105-7.026c-4.123-1.031-17.481-4.577-9.376-10.402c-5.911,1.915-3.704,5.484-6.506,8.095
	c-2.307,2.149-6.806-6.733-6.854-8.093c-2.781,3.271-5.146,8.189-2.349,12.074l-1.456-0.059c-0.098-0.173-0.189-0.348-0.272-0.524
	c-16.592,2.661-25.187,14.189-26.153,30.615l-1.272,0.845c-9.646-9.803-23.622,2.88-26.133,12.793
	c-2.8,11.056,2.135,23.681,13.1,27.998c0.027-0.166,0.074-0.33,0.106-0.495l1.184,0.964c-0.281,1.777-0.299,3.506-0.046,5.342
	c0.028-0.11,0.063-0.218,0.093-0.328c1.016,11.401,12.531,19.587,21.987,24.067l3.737,3.205c-0.198,0.033-0.321,0.057-0.333,0.06
	l-0.167,0.053l-2.497,0.782l-0.291,0.091c0.809-0.61,1.677-1.132,2.604-1.564c-1.299-0.557-2.579-1.113-3.855-1.727
	c-3.285,3.55-7.234,6.506-11.383,8.974l2.252-0.205l0.746-0.068l0.282,0.876c-10.354,5.798-20.285,14.336-27.711,23.513
	c-8.563,10.581-11.967,24.574-16.038,37.363l1.403-0.702l1.37-0.686c0.306-0.152,0.611-0.305,0.916-0.457l-0.248,0.992
	c-1.381,5.755-1.273,12.233,0.24,17.932c1.807,6.802,3.985,13.473-4.175,16.886c0.762,0.341,1.859,0.801,2.979,1.164l0.057,0.019
	l0.082-0.06l0.084,0.112c0.188,0.058,0.373,0.112,0.56,0.164l-0.097,0.065c0.092,0.041,0.195,0.094,0.292,0.14l-1.201,1.03
	l-0.098-0.016c-0.694,0.484-1.378,0.912-2.077,1.282l-0.005,0.002c-13.19,6.967-32.826-4.079-39.078-15.801
	c-10.251-19.22,0.044-35.053,15.196-46.909c8.417-6.581,16.981-13.705,21.421-23.702c7.118-16.03-0.237-33.133-9.694-46.462
	c-6.132-9.606-21.035-1.987-13.602,7.119c7.279,10.26,16.638,24.507,12.431,37.761c-4.954,15.609-23.79,21.414-32.253,34.658
	c-18.999,29.73,7.219,63.692,39.321,63.649h0.076l0.025-0.002l0.049-0.004c0.421-0.024,0.834-0.055,1.24-0.093l0.006-0.001
	c4.882-0.458,9.73-1.977,13.77-4.804l0.015-0.01c-0.089-0.336-0.159-0.653-0.211-0.95l0.965-0.483
	c1.423,2.118,3.483,3.95,5.158,5.84c4.031,3.404,7.069,7.116,12.472,8.418c-1.367-1.02-2.342-2.52-2.715-4.177l-0.287-1.292
	l1.039,0.82c2.529,1.826,5.549,3.036,8.518,3.923l0.017,0.005c0.825,0.245,1.712,0.479,2.654,0.691l0.143,0.034l0.026-0.058
	c1.656,0.777,3.679,1.177,5.457,1.393c1.228,1.304,4.338,1.496,7.65,1.255c5.026,1.396,10.523,0.812,15.675,1.001
	c7.791,0.285,15.074,2.648,22.893,2.548c3.729-0.048,7.51-0.514,11.236-0.325c2.939,0.149,5.293,3.266,8.117,4.118
	c4.984,1.505,6.169-2.07,4.261-5.672l1.108,0.11c5.782,1.408,8.376-3.545,1.406-4.739c-9.433-1.617-17.223-4.916-26.429-7.646
	c1.603,0.673,3.03,1.452,4.102,2.371c-4.877-2.682-11.621-3.707-11.621-3.707l-0.681-0.691c5.693-3.459,11.724-6.366,18.049-8.477
	l4.397-1.436c15.583-5.009,25.372-10.438,30.617-26.698l0.283-0.904l0.552,0.771c1.112,1.561,1.502,3.629,1.777,5.483
	c0.772-2.167,0.673-4.617,0.317-6.844l-0.013-0.081c-0.292-1.805-0.716-3.106-0.726-3.138l-0.207-0.621h0.653
	c1.046,0,2.107,0.337,2.964,0.937c-1.98-6.685-7.555-14.09-14.429-16.447c-0.174,0.301-0.313,0.605-0.467,0.909l-0.808-1.111
	c3.55-5.039,8.712-8.885,12.812-13.456c4.167-4.646,4.129-12.431,9.214-15.905c-1.678-0.369-3.275,1.154-4.223,2.391l-0.039,0.048
	c-0.504,0.642-1.111,1.157-1.812,1.565l0.962-2.02c1.885-6.455,4.942-16.933,4.942-16.933c0.758-2.599-3.458-6.632-4.825-8.36
	l-0.039-0.049c-3.769-4.771-5.154-11.591-8.871-15.852l-0.005-0.005c-0.429-0.485-0.917-0.904-1.466-1.255l0.327-0.9
	c0.409,0.253,0.811,0.53,1.183,0.862c0.903-1.612,1.567-3.319,1.994-5.12c-0.026-0.163-0.064-0.32-0.096-0.481
	c0.646-1.097,1.27-2.565,1.639-4.486c0.081,0.747,0.095,1.496,0.043,2.249C203.105,93.505,211.935,73.615,202.834,60.334z
	 M173.322,144.277c-0.049,0.039-0.082,0.064-0.096,0.074l-0.123,0.093l-0.436,0.327l-0.058-0.22l-0.122-0.455l-0.193-0.725
	l-0.352-1.32l-0.094-0.35l-0.01-0.034l-0.008,0.052c-1.509,9.644-8.761,15.262-10.615,24.534l-0.919,0.026
	c-1.624-6.495-7.515-11.813-11.767-16.673l-0.322-0.353l-0.397-0.437h3.241l-0.021-0.014c-3.647-2.047-6.802-5.349-9.396-8.6
	l-0.671-0.836l0.711,0.048l0.358,0.023l1.93,0.13l0.281,0.019l0.299,0.021l0.018,0.001l-0.01-0.006
	c-0.154-0.1-0.315-0.204-0.48-0.314l-0.045-0.03c-4.245-2.85-7.972-6.519-11.16-10.495c-0.407-0.736-0.576-1.791,0.997-2.601
	c5.75,0.13,11.5-1.362,16.54-4.105l0.036-0.021c0.737-0.401,1.456-0.832,2.157-1.292l1.111,0.883
	c0.988,4.579,5.421,14.132,11.66,8.55c-0.672-0.469-1.328-0.961-1.966-1.477l4.661,2.033c5.143,3.158,5.9,6.561,5.217,12.367
	c0.641-0.539,1.242-1.121,1.805-1.745l-0.83,2.144C173.826,143.88,173.484,144.152,173.322,144.277
	C173.273,144.316,173.484,144.152,173.322,144.277z M158.574,126.224l0.645,0.82l-0.844-0.421L158.574,126.224z M111.824,242.946
	C110.707,243.191,113.854,242.506,111.824,242.946C111.713,242.971,111.973,242.914,111.824,242.946z M138.476,185.339
	c-6.231,5.106-11.957,10.098-19.059,14.054l-0.968,0.541l0.282-1.073l1.459-3.691l0.011-0.041c-1.18,1.727-3.592,4.069-8.223,5.03
	l-0.01,0.002c-0.167,0.034-0.334,0.068-0.506,0.099l-0.014,0.002c-0.163,0.029-0.329,0.057-0.498,0.083l-0.018,0.003
	c-0.311,0.047-0.628,0.089-0.957,0.124l-0.64-1.68c0.162-0.032,0.332-0.076,0.491-0.104l0.02-0.003
	c-3.065-4.838-5.911-10.541-5.648-16.396l0.004-0.064c0.035-0.635,0.116-1.261,0.24-1.884l0.277-1.28l0.001-0.003l0.604,1.169
	c0.361,1.083,1.961,1.838,2.933,2.237c-0.067-0.158-0.141-0.333-0.219-0.521l-0.014-0.033c-4.478-10.997,0.423-18.874,4.816-28.941
	c-0.332-0.17-0.674-0.312-1.026-0.43c0.419-0.186,0.848-0.357,1.272-0.505c0.044,0.02,0.089,0.034,0.133,0.054l0.002,0.002
	c0.143,0.064,0.281,0.138,0.421,0.209l0.003,0.001c5.8,2.92,9.218,9.427,12.808,14.536c4.396,6.257,10.03,10.471,16.501,14.326
	l0.047,0.027c0.254,0.153,0.509,0.304,0.766,0.453l-0.602,1.089c-0.171-0.093-0.341-0.186-0.512-0.278
	C141.177,183.28,139.785,184.266,138.476,185.339z"/>
<path fill="#E7B98A" stroke="#000000" stroke-miterlimit="10" d="M163.611,241.274c-7.703,0-15.081-5.229-22.315-7.374
	c4.619,1.938,7.955,5.794,12.754,7.507c4.039,1.442,10.249-0.172,12.267,4.873C174.836,248.767,171.756,241.274,163.611,241.274z
	 M166.103,248.484c-0.957-3.304-3.133-4.999-6.738-5.28c-6.928-0.541-10.721-4.351-16.536-7.537c-9.263-5.075-12-0.153-20.485,4.002
	c-6.016,2.946-13.042,4.38-19.696,4.732c6.357,1.914,13.118,0.531,19.625,0.965c6.634,0.442,12.524,2.774,19.324,2.688
	c4.758-0.062,10.418-1.636,14.559,1.184C158.292,250.69,167.922,254.766,166.103,248.484z M104.36,200.521
	c1.845-0.705,3.748-1.316,5.697-1.662c-3.03-4.779-5.891-10.569-5.629-16.398c0.031-0.654,0.111-1.308,0.245-1.948l0.277-1.28
	l0.001-0.003c0.662,1.637,1.894,2.728,3.536,3.406c0.189,0,0.116-0.174-0.218-0.521c-4.564-10.955,0.426-18.947,4.802-28.975
	c-8.695-4.076-13.062,7.081-14.321,14.379c-2.203,12.786-2.829,22.133,1.198,34.871C101.396,201.712,102.867,201.09,104.36,200.521
	C104.608,200.426,104.11,200.614,104.36,200.521z M203.062,60.506c-4.27-6.231-18.788-13.725-20.87-2.434
	c-1.13,6.112-2.48,12.451-4.305,18.423c3.083-5.304,7.44-14.286,15.144-13.783c14.01,0.914,5.544,21.011,4.53,20.467
	c0.794,0.426,3.249-10.301,2.777-12.25c-2.098-8.657-10.843-8.159-15.848-2.353c8.576-0.236,5.49,10.199,5.34,10.144
	c-0.908-0.336,0.644-5.729-0.492-7.197c-2.721-3.518-5.851-1.923-7.541,0.62c-4.309,6.483-1.725,5.388,2.161,11.381
	c2.48,3.824,4.064,8.39,3.841,12.987C203.333,93.677,212.163,73.786,203.062,60.506C199.105,54.731,207.645,67.192,203.062,60.506z
	 M86.762,75.518c1.665-2.141,3.866-4.357,6.205-5.784c3.712-2.647,1.246-6.298-0.597-10.111c-1.953,0.771-4.202-1.19-6.207,0.615
	c-1.345,1.211-0.911,6.597-1.931,6.779c0.181-0.032-1.07-10.887,7.454-8.724c-3.32-6.083-10.351-9.308-15.116-2.541
	c-1.423,2.021-2.111,14.342-0.855,13.936c-4.374,1.413-0.716-15.14,2.306-17.3c8.912-6.372,15.368,4.771,17.559,11.946
	c-0.066-4.13,2.031-18.533-1.012-21.073c-7.25-6.047-17.95,0.125-22.248,6.803c-7.576,11.772-3.282,29.571,10.151,34.853
	C83.032,81.499,84.586,78.192,86.762,75.518C87.448,74.636,86.709,75.583,86.762,75.518z M104.905,114.035
	c4.967,2.467,6.688,1.24,12.057,1.284c-12.632-6.719-18.535-20.608-13.089-34.249c0.953,11.413,22.004,13.251,29.833,14.043
	c9.92,1.004,20.8,1.634,30.479-1.333c4.594-1.408,15.683-9.106,4.203-9.44c3.937-0.989,7.435,1.339,9.296,4.765
	c-1.199-1.092-2.497-2.057-3.892-2.896c-0.391,3.124-3.734,5.269-6.204,6.691c-2.985,1.722-6.27,3.043-9.601,3.919
	c1.066,3.771,1.084,7.833-0.175,11.562c-4.071,12.053-17.856,14.096-28.699,11.497c0.527,0.5,1.012,1.027,1.468,1.59
	c0.621,0.84,1.221,1.685,1.822,2.541c3.644,5.174,13.522,0.789,18.229-1.778c3.409-1.907,3.596-6.628,5.803-10.018
	c1.617-2.482,7.684-3.292,10.25-4.08c4.921-1.511,5.802-2.992,9.745-6.41l0.16-0.139c2.658,0.221,5.589,0.942,7.631,2.764
	c4.391-7.901-1.626-15.491-8.213-20.281c-3.045-2.201-6.409-3.938-9.927-5.251c-4.787-1.782-5.474-0.507-3.024-5.886
	c2.659-5.838,4.813-12.121,5.925-18.449c1.678-9.56-0.002-20.446-8.95-25.919c-3.49-2.135-7.524-2.767-11.537-2.122
	c-1.561,0.25-12.096,4.334-12.033,4.651c-3.125-13.748-21.209-8.207-27.325-0.157c-4.43,5.831-4.874,13.943-4.334,20.967
	c0.246,3.2,4.531,21.022,2.731,21.08c-9.293,0.312-17.087,4.396-20.986,13.206C80.881,99.022,94.357,108.853,104.905,114.035
	C105.052,114.108,104.169,113.674,104.905,114.035z M137.111,82.361c0,0,4.334-6.704,12.103-5.484
	C156.98,78.098,137.111,82.361,137.111,82.361z M128.296,29.033c10.998,5.864,6.615,25.894,4.479,35.356
	c1.23-0.06,2.45,0.017,3.657,0.231c-0.369-9.048-0.413-20.044,4.541-28.004c5.277-8.479,17.546-6.48,23.04,0.879
	c5.571,7.463,3.087,18.31-0.521,26.042c-1.701,3.646-3.881,7.167-6.681,10.076c-3.697,3.841-6.212,8.888-11.597,10.759
	c1.315-2.695,8.554-4.172,6.904-9.561c-1.761-5.759-10.555-8.537-15.648-9.383c-9.259-1.545-31.091,8.132-14.452,15.849
	c-2.657,0.632-9.856-4.027-6.992-8.386c1.032-1.579-4.43-8.604-5.402-10.905c-1.655-3.917-2.654-8.13-2.682-12.393
	C106.878,39.755,115.953,22.45,128.296,29.033C138.143,34.283,115.389,22.149,128.296,29.033z M131.039,82.048
	c0,0-17.075-4.766-12.107-7.448C123.899,71.916,131.039,82.048,131.039,82.048z M106.038,79.162
	c1.116-0.075,2.243,0.049,3.332,0.301c-3.35,0.344-7.366,1.279-9.731,3.799C100.894,80.85,103.313,79.344,106.038,79.162
	C106.242,79.148,101.282,79.479,106.038,79.162z M193.089,121.547c-3.912-4.778-5.142-11.599-8.91-15.9
	c-4.431-4.633-8.901-3.089-11.938,1.972l-0.127,0.213c-6.714,1.081-20.275,4.597-18.186,13.938
	c1.192,4.403,5.275,14.302,11.668,8.582c-1.955-1.358-3.804-2.916-5.355-4.728l-0.792,1.587l-0.002,0.006l-0.843-0.421l1.116-2.238
	l0.331-0.663c1.911,2.486,4.336,4.595,6.975,6.281c5.814,3.057,7.233,6.673,6.483,13.1c1.469-1.249,4.101-3.782,3.883-5.956
	c1.994,0.593,2.394,4.79,1.583,7.192c1.624-0.247,5.688-0.924,5.918-3.223l0.056,0.004c1.356,1.209,0.792,5.023-0.37,7.27
	c9.089,2.192,9.612-5.894,11.572-12.608C198.144,129.124,197.788,127.487,193.089,121.547z"/>
<path fill="#8A644A" stroke="#231F20" stroke-miterlimit="10" d="M84.878,87.023c3.718-9.789,12.469-14.915,22.708-15.246
	c-3.899-11.928-7.476-28.984-0.313-40.4c5.954-9.489,25.889-15.903,30.139-1.448c10.802-8.258,26.542-5.527,31.711,7.727
	c4.774,12.24-0.756,27.828-6.455,38.791c9.835,2.692,20.384,9.009,23.874,19.14c-0.014-3.666-1.179-7.226-3.002-10.379
	c-1.362-2.355-6.413-6.035-6.922-8.418c-0.113-0.526-0.002-0.168-0.296-0.692c-0.754-1.341,2.264-7.684,2.689-9.272
	c1.28-4.779,2.326-9.633,2.868-14.556c0.967-8.771,0.632-18.404-4.692-25.838c-4.871-6.802-12.687-10.75-20.55-13.009
	C153.062,12.394,128.853,5.947,140.139,1c-2.134,0.936-4.124,1.979-5.323,3.958c-0.745,1.229-0.163,3.261-0.871,4.214
	c-1.964,2.647-7.344-7.22-7.167-8.17c-0.521,2.798-3.359,4.857-3.459,7.771c-0.057,1.656,3.269,6.134,2.952,6.806
	c-0.806,1.71-3.088-2.934-3.583-2.903c-4.755,0.29-10.114,2.546-14.011,5.201c-8.186,5.577-11.169,15.09-11.848,24.557
	c-0.335,4.667-0.219,9.352,0.024,14.02c0.14,2.677,1.553,11.215-0.975,12.812c-7.325,4.56-13.416,12.39-12.164,21.462
	C84.033,89.47,84.42,88.236,84.878,87.023C84.781,87.279,84.476,88.084,84.878,87.023C86.583,82.535,84.419,88.233,84.878,87.023z
	 M197.928,144.83c-2.508-0.322-3.688,2.406-5.369,3.642c-2.834,2.083-6.646,1.566-9.766,0.526c1.75-1.31,1.745-3.662,1.945-5.674
	c-2.005,1.751-4.991,2.092-7.548,2.323c1.412-1.976,1.243-3.979,0.738-6.298c-1.005,2.319-3.051,4.104-5.032,5.594
	c-0.273-1.035-0.549-2.069-0.828-3.104c-0.629,3.935-1.481,8.494-3.838,11.825c-3.079,4.348-5.609,7.329-6.786,12.761
	c-0.723,0.636-4.159-6.335-4.597-6.949c-2.648-3.708-5.742-7.123-8.808-10.486c1.081,0,2.161,0,3.242,0
	c-4.012-2.213-7.255-5.916-10.089-9.449c1.199,0.081,2.397,0.159,3.596,0.241c-7.066-4.527-11.129-10.95-16.354-17.23
	c-5.23-6.287-15.062-6.117-22.19-3.896c0.805-0.612,1.697-1.12,2.603-1.564c-3.277-1.397-3.142-2.257-5.863,0.289
	c-2.846,2.662-6.031,4.966-9.375,6.958c6.981-0.635-0.571,3.038-2.945,4.709c-6.333,4.457-12.414,9.42-17.736,15.058
	c-11.015,11.671-15.016,26.778-19.789,41.712c0.028-0.014,3.69-1.593,3.69-1.845c-1.667,6.669-1.681,14.012,0.481,20.573
	c2.059,6.25,2.496,12.246-4.665,15.236c1.238,0.555,2.542,1.061,3.761,1.399c-0.032,0.021-0.065,0.044-0.097,0.065
	c1.097,0.489,2.132,1.118,3.119,1.8c-3.601-0.558-3.851-0.407-6.973,1.013c-3.911,1.778-8.296,1.31-12.398,0.604
	c-8.616-1.48-16.422-4.3-22.17-11.197c-12.998-15.597-8.63-35.949,6.093-48.235c12.969-10.822,28.796-21.395,29.665-40.07
	c0.441-9.467-3.036-18.673-7.692-26.759c-3.311-5.75-11.734-19.132-18.946-9.567c-4.876,6.466,5.932,16.953,8.766,22.515
	c4.286,8.413,7.257,18.37,2.908,27.377c-7.631,15.804-27.319,20.902-34.189,37.705c-6.749,16.506-1.513,36.726,12.575,47.709
	c6.793,5.296,15.21,8.266,23.686,9.449c4.582,0.641,9.188,0.476,13.643-0.833c2.027-0.596,3.99-1.411,5.827-2.457
	c2.736-1.56,1.354-1.848,1.559-4.474c3.549,6.508,11.408,14.317,18.747,16.084c-1.854-1.381-2.522-3.312-3.002-5.469
	c1.353,1.067,12.062,6.227,12.199,5.845c0.008-0.049,0.147-0.414,0.197-0.429c7.861,3.667,19.527,1.507,27.351-1.141
	c9.083-3.074,16.555-9.852,25.248-13.89c8.784-4.08,18.446-5.769,27.176-9.955c9.333-4.478,13.761-12.962,16.748-22.514
	c1.354,1.894,2.145,6.267,2.329,6.255c0.378-0.363,0.476-7.369-0.628-10.684c1.298,0,3.022,1.086,3.617,0.937
	c-1.5-5.397-5.146-10.115-9.47-13.581c-5.714-4.577-5.234-1.68-8.028,3.714c-2.71,5.232-7.337,9.065-12.513,11.732
	c-5.793,2.986-10.416,0.345-15.774-2.131c1.718-0.165,3.434-0.319,5.146-0.547c-3.028-0.608-5.575-2.012-8.333-3.33
	c2.477,0.518,5.688,0.919,8.088-0.036c-6.908-3.242-7.688-5.28-13.802,0.26c-5.691,5.158-11.684,9.407-18.397,13.158
	c0.437-1.659,1.181-3.191,1.752-4.806c-4.064,5.949-11.607,4.676-17.509,7.131c-1.964,0.818-3.671,2.831-5.515,3.518
	c-4.05,1.499-8.092,3.021-12.125,4.565c1.542-1.106,12.392-5.897,12.522-7.219c0.432-4.342-2.308-10.172-2.96-14.526
	c-1.014-6.766,1.395-13.295,2.254-19.939c0.849-6.558,3.365-11.966,7.936-16.775c-2.088,0.214-4.264,0.052-6.36,0.047
	c5.573-0.781,10.485-2.332,15.847,0.703c4.693,2.655,7.645,7.595,10.592,11.926c6.996,10.28,17.085,17.238,28.48,22.129
	c-1.926,0.235-3.344,1.35-5.318,1.43c2.706,0.896,5.671,1.499,8.511,1.764c-1.842,0.403-3.652,0.685-5.522,0.934
	c13.644,6.318,19.398-10.396,25.951-18.268c3.982-4.785,8.985-8.615,12.933-13.441c3.594-4.393,3.069-11.094,7.939-14.421
	C198.032,144.847,197.98,144.839,197.928,144.83C196.239,144.613,197.982,144.837,197.928,144.83z"/>
<path fill="#FFFFFF" stroke="#231F20" stroke-miterlimit="10" d="M116.283,71.382c-1.642-1.871-2.554-4.898-2.234-8.209
	c0.506-5.234,3.897-9.192,7.575-8.836c3.679,0.355,6.247,4.89,5.74,10.125c-0.029,0.306-0.071,0.605-0.12,0.901
	c1.855-0.542,3.739-0.89,5.531-0.974c2.266-10.037,5.368-30.106-4.479-35.356c-12.907-6.884-33.037,16.748-12.662,43.048
	C115.832,71.848,116.051,71.614,116.283,71.382z M140.715,65.673c0.666-4.986,3.95-8.689,7.51-8.346
	c3.677,0.357,6.246,4.89,5.74,10.127c-0.204,2.107-0.88,4-1.85,5.495c0.331,0.527,0.592,1.07,0.763,1.63
	c0.212,0.691,0.284,1.377,0.226,2.055c11.008-6.402,24.426-38.623,1.805-45.02c-17.79-5.028-19.008,19.964-18.477,33.007
	C137.771,64.843,139.232,65.2,140.715,65.673z M148.41,60.043c-1.798-0.175-3.423,1.418-3.629,3.556
	c-0.208,2.14,1.081,4.014,2.878,4.188c1.799,0.174,3.424-1.418,3.631-3.557C151.498,62.091,150.208,60.217,148.41,60.043z
	 M147.964,69.019c1.113,0.726,2.11,1.521,2.925,2.375l0.012-0.059c0.113-1.181-0.854-2.24-2.161-2.366
	C148.472,68.943,148.213,68.968,147.964,69.019z M121.809,57.052c-1.798-0.175-3.422,1.418-3.629,3.557
	c-0.207,2.139,1.083,4.013,2.88,4.188c1.797,0.172,3.423-1.42,3.63-3.559C124.897,59.101,123.607,57.226,121.809,57.052z
	 M120.59,93.842c-15.594-3.895-16.513-9.011-16.513-9.011c-1.481,4.564-0.102,7.572,1.505,10.707
	c0.203,0.396,0.514,0.732,0.928,1.024c0.622,0.439,1.478,0.777,2.551,1.067l0.099,0.025c0.163,0.043,0.33,0.085,0.501,0.126
	c0.162,0.038,0.327,0.076,0.498,0.113c0.636,0.139,1.333,0.268,2.085,0.395c0.135,0.022,0.271,0.046,0.41,0.068
	c1.678,0.275,3.623,0.55,5.813,0.897c2.924,0.463,6.282,1.057,10.032,1.961c13.759,3.318,20.033,3.992,23.702,2.627
	c3.668-1.367,5.288-4.336,3.896-7.644C152.45,97.371,136.187,97.736,120.59,93.842z"/>
<path fill="#DE0023" d="M144.914,115.779c-2.585-1.533-5.516-2.275-8.515-2.243c-1.201,0.016-2.401,0.144-3.582,0.364
	c0.309,0.227,0.608,0.464,0.899,0.713c0.569,0.489,1.111,1.008,1.64,1.54c0.658,0.665,1.3,1.348,1.916,2.053
	c-0.726-0.538-1.459-1.065-2.194-1.592c-0.96-0.686-1.926-1.363-2.896-2.034c-4.806-3.307-11.093-3.842-16.669-2.372
	c3.315,3.068,7.538,5.082,11.87,6.257c3.655,1.017,7.48,1.486,11.271,1.452c3.198-0.029,6.627-0.33,9.595-1.616
	C147.231,117.345,146.116,116.491,144.914,115.779C142.816,114.536,146.043,116.448,144.914,115.779z"/>
</svg>
