<?xml version="1.0" encoding="utf-8"?>
<!-- Generator: Adobe Illustrator 16.0.0, SVG Export Plug-In . SVG Version: 6.00 Build 0)  -->
<!DOCTYPE svg PUBLIC "-//W3C//DTD SVG 1.1//EN" "http://www.w3.org/Graphics/SVG/1.1/DTD/svg11.dtd">
<svg version="1.1" id="Layer_1" xmlns="http://www.w3.org/2000/svg" xmlns:xlink="http://www.w3.org/1999/xlink" x="0px" y="0px"
	 width="162.079px" height="536.581px" viewBox="0 0 162.079 536.581" enable-background="new 0 0 162.079 536.581"
	 xml:space="preserve">
<line fill="none" stroke="#000100" stroke-width="5.6693" stroke-linecap="round" stroke-linejoin="round" x1="64.822" y1="397.628" x2="62.267" y2="506.017"/>
<line fill="none" stroke="#000100" stroke-width="5.6693" stroke-linecap="round" stroke-linejoin="round" x1="101.923" y1="397.611" x2="102.666" y2="506.034"/>
<path fill="#1D1E1C" d="M4.732,353.214c0.127-0.394,0.426-1.058,0.791-1.574c2.51-4.458,5.039-3.153,8.059-2.462
	c3.869,0.886,7.5,7.077,7.689,7.375l6.089,16.352c0.473,0.726,0.268,1.697-0.459,2.166c-0.727,0.473-1.699,0.267-2.168-0.458
	l-5.794-15.898l-0.945-0.324l0.859,30.167c0.086,0.862-0.543,1.628-1.402,1.714c-0.514,0.051-0.99-0.15-1.316-0.507
	c-0.217-0.237-0.363-0.548-0.398-0.898l-1.166-31.23c-0.018-0.196,0.012-0.391,0.062-0.577c-0.408-0.189-0.791-0.355-1.137-0.485
	l-0.668,36.375c-0.02,0.867-0.734,1.551-1.6,1.536c-0.449-0.009-0.848-0.206-1.127-0.512c-0.262-0.284-0.418-0.668-0.41-1.087
	l0.666-36.169c-1.238,0.874-0.402-0.168-0.555,0.546l-2.348,29.708c-0.111,0.86-0.779,1.597-1.639,1.482
	c-0.381-0.048-0.713-0.232-0.953-0.498c-0.301-0.33-0.461-0.782-0.398-1.258l2.512-28.228l-0.721-0.224l-3.998,20.427
	c-0.246,0.759-0.502,0.958-1.262,0.712c-0.246-0.082-0.457-0.223-0.621-0.4c-0.334-0.37-0.471-0.909-0.305-1.42l4.486-23.836
	c0.027-0.067,0.043-0.13,0.068-0.199L4.732,353.214z"/>
<path fill="#000100" stroke="#000100" stroke-width="4.0481" d="M77.693,185.211c0-3.21-0.137-6.485-0.27-9.65
	c-0.131-3.208-0.271-6.523-0.271-9.814l0,0c0-1.24,1.205-2.242,2.684-2.242c1.482,0,2.682,1.001,2.682,2.242l0,0
	c0,3.215,0.137,6.491,0.27,9.658c0.135,3.206,0.27,6.518,0.27,9.806l0,0c0,1.239-1.199,2.242-2.682,2.242
	S77.693,186.45,77.693,185.211L77.693,185.211z"/>
<path id="colour" fill="#FF8B00" stroke="#000100" stroke-width="3.5" stroke-miterlimit="10" d="M11.117,94.639
	c0,38.031,30.831,68.86,68.862,68.86c38.027,0,68.859-30.829,68.859-68.86c0-38.032-30.832-68.862-68.859-68.862
	C41.948,25.776,11.117,56.606,11.117,94.639z"/>
<path fill="#000100" stroke="#000100" stroke-width="3" d="M94.219,79.916c0,1.587,1.285,2.875,2.873,2.875
	c1.59,0,2.873-1.289,2.873-2.875c0-1.588-1.283-2.876-2.873-2.876C95.504,77.04,94.219,78.328,94.219,79.916z"/>
<circle fill="#000100" stroke="#000100" stroke-width="3" cx="60.998" cy="79.916" r="2.876"/>
<path fill="#000100" d="M70.866,140.056c-24.219-6.734-30.374-26.049-31.987-30.856l0,0c-0.323-0.93-0.058-2.063,0.591-2.524l0,0
	c0.655-0.464,1.444-0.085,1.769,0.846l0,0c1.679,4.646,6.775,22.118,30.137,28.836l0,0c2.295,0.648,4.72,0.979,7.202,0.979l0,0
	c14.177,0,29.975-10.7,35.319-32.115l0,0c0.243-0.979,0.998-1.489,1.685-1.137l0,0c0.687,0.35,1.04,1.424,0.797,2.408l0,0
	c-5.895,23.35-22.789,34.611-37.801,34.611l0,0C75.934,141.104,73.337,140.755,70.866,140.056L70.866,140.056z"/>
<path fill="none" stroke="#000100" stroke-width="4.252" stroke-linecap="round" stroke-linejoin="round" d="M27.615,231.19
	c0,0-11.748,57.283-13.445,70.91c-1.381,11.088-3.166,46.5-3.166,46.5"/>
<path fill="#1D1E1C" d="M154.884,353.214c-0.127-0.394-0.426-1.058-0.791-1.574c-2.51-4.458-5.039-3.153-8.059-2.462
	c-3.869,0.886-7.5,7.077-7.689,7.375l-6.09,16.352c-0.473,0.726-0.268,1.697,0.459,2.166c0.727,0.473,1.699,0.267,2.168-0.458
	l5.795-15.898l0.945-0.324l-0.859,30.167c-0.086,0.862,0.543,1.628,1.402,1.714c0.514,0.051,0.99-0.15,1.316-0.507
	c0.217-0.237,0.363-0.548,0.398-0.898l1.166-31.23c0.018-0.196-0.012-0.391-0.062-0.577c0.408-0.189,0.791-0.355,1.137-0.485
	l0.668,36.375c0.02,0.867,0.734,1.551,1.6,1.536c0.449-0.009,0.848-0.206,1.127-0.512c0.262-0.284,0.418-0.668,0.41-1.087
	l-0.666-36.169c1.238,0.874,0.402-0.168,0.555,0.546l2.348,29.708c0.111,0.86,0.779,1.597,1.639,1.482
	c0.381-0.048,0.713-0.232,0.953-0.498c0.301-0.33,0.461-0.782,0.398-1.258l-2.512-28.228l0.721-0.224l3.998,20.427
	c0.246,0.759,0.502,0.958,1.262,0.712c0.246-0.082,0.457-0.223,0.621-0.4c0.334-0.37,0.471-0.909,0.305-1.42l-4.486-23.836
	c-0.027-0.067-0.043-0.13-0.068-0.199L154.884,353.214z"/>
<path fill="none" stroke="#000100" stroke-width="4.252" stroke-linecap="round" stroke-linejoin="round" d="M132.001,231.19
	c0,0,11.748,57.283,13.445,70.91c1.381,11.088,3.166,46.5,3.166,46.5"/>
<path fill="#8800FF" stroke="#000000" stroke-width="2.8347" stroke-linecap="round" stroke-linejoin="round" d="M115.572,250.648
	c-0.615-10.404-0.033-4.446,7.453-9.361c15.539-11.425,18.768-12.204,19.791-17.176c-5.271-6.137-5.523-22.25-25.881-34.062
	c-5.162-2.996-21.746-9.725-31.895-11.799c-2.41,10.53-10.254,4.203-9.504-0.575c-4.428,2.13-30.537,9.479-38.352,15.143
	c-8.562,6.212-17.355,32.559-19.375,35.043c6.954,8.662,20.735,18.367,26.838,21.343c5.68-3.528,4.543-9.723,4.543-9.723
	c0.441,1.458-1.193,12.542-1.391,16.556c-1.752,35.758-10.592,166.872-11.463,169.314c2,0.418,56.811,1.665,92.82-0.259
	c0.338-2.908-0.801-32.801-1.064-35.648C124.964,355.638,117.574,284.444,115.572,250.648z"/>
<line fill="#2FAAE1" stroke="#000100" stroke-width="2.8347" stroke-linecap="round" stroke-linejoin="round" x1="115.539" y1="246.203" x2="113.535" y2="239.373"/>
<path fill="#000100" d="M5.125,134.692c0,0,9.003-40.329,14.519-54.654c2.438-6.333,16.296-19.707,37.196-22.722
	c64.364-9.287,54.9-22.279,54.9-22.279s29.385,21.404,33.36,42.386c5.074,26.773-0.709,44.271-0.709,44.271
	s14.865-26.173,14.85-55.829c-0.01-16.5-10.275-41.698-46.04-57.77C70.017-11.313,25.249,6.168,9.112,39.365
	C-7.252,73.027,5.125,134.692,5.125,134.692z"/>
<polygon fill="#FF00FF" stroke="#000100" stroke-width="2.8347" stroke-miterlimit="10" points="5.744,62.5 27.226,77.72 
	33.976,68.95 9.096,58.983 "/>
<path fill="#8CC63F" stroke="#000100" stroke-width="4.252" stroke-linecap="round" stroke-linejoin="round" d="M61.783,500.417
	c0,0-38.757,5.315-48.723,14.268c-7.304,6.556-7.93,13.807-3.976,19.77h69.086l0,0C83.061,522.792,73.295,507.175,61.783,500.417"/>
<polygon fill="#040404" points="79.953,535.471 8.808,535.471 5.758,529.371 79.953,529.371 "/>
<path fill="#8CC63F" stroke="#000100" stroke-width="4.252" stroke-linecap="round" stroke-linejoin="round" d="M104.839,500.417
	c0,0,38.762,5.315,48.723,14.268c7.303,6.556,7.934,13.807,3.979,19.77H88.458l0,0C83.564,522.792,93.332,507.175,104.839,500.417"
	/>
<polygon fill="#040404" points="86.672,535.471 159.228,535.471 160.867,529.371 86.672,529.371 "/>
<path fill="none" stroke="#040404" stroke-width="4.252" stroke-linecap="round" stroke-linejoin="round" stroke-miterlimit="10" d="
	M41.154,501.396c8.318,2.011,10.734,11.229,10.734,11.229"/>
<path fill="none" stroke="#040404" stroke-width="4.252" stroke-linecap="round" stroke-linejoin="round" stroke-miterlimit="10" d="
	M30.673,505.492c8.486,1.13,10.836,10.154,10.836,10.154"/>
<path fill="none" stroke="#040404" stroke-width="4.252" stroke-linecap="round" stroke-linejoin="round" stroke-miterlimit="10" d="
	M126.772,501.396c-8.321,2.011-10.734,11.229-10.734,11.229"/>
<path fill="none" stroke="#040404" stroke-width="4.252" stroke-linecap="round" stroke-linejoin="round" stroke-miterlimit="10" d="
	M137.25,505.492c-8.484,1.13-10.836,10.154-10.836,10.154"/>
</svg>
