<?xml version="1.0" encoding="utf-8"?>
<!-- Generator: Adobe Illustrator 16.0.0, SVG Export Plug-In . SVG Version: 6.00 Build 0)  -->
<!DOCTYPE svg PUBLIC "-//W3C//DTD SVG 1.1//EN" "http://www.w3.org/Graphics/SVG/1.1/DTD/svg11.dtd">
<svg version="1.1" id="cupboard" xmlns="http://www.w3.org/2000/svg" xmlns:xlink="http://www.w3.org/1999/xlink" x="0px" y="0px"
	 width="100.5px" height="145.25px" viewBox="0 0 100.5 145.25" enable-background="new 0 0 100.5 145.25" xml:space="preserve">
<path fill="#B530A5" d="M51.834,103.667c0,0-39.185,9.761-45.421,9.598c7.58,19.644,24.328,30.046,43.77,30.046
	c19.422,0,36.152-10.38,43.742-29.982C88.55,113.457,51.834,103.667,51.834,103.667z"/>
<path fill="#B530A5" d="M49.834,36c5.008,0.074,31-1,34.687-3.533C75.792,15.238,63.632,2.506,50.183,2.506
	c-13.412,0-25.541,12.661-34.264,29.814C18.5,35.667,46.168,35.931,49.834,36z"/>
<path fill="#006EC9" d="M92.372,51.985c-1.068-0.994-2.135-1.989-3.188-2.998c-1.236-1.176-2.465-2.36-3.689-3.548l-1.395,1.424
	c-0.738,0.748-1.477,1.499-2.223,2.24c-1.488,1.487-2.994,2.954-4.525,4.398c-1.535,1.441-3.074,2.875-4.633,4.291
	c-1.551,1.425-3.117,2.832-4.656,4.268l-0.473,0.44l-0.404-0.44c-1.426-1.551-2.871-3.077-4.336-4.59
	c-1.459-1.515-2.951-2.996-4.451-4.473c-0.746-0.74-1.496-1.478-2.258-2.203c-0.76-0.728-1.512-1.465-2.279-2.184l-2.299-2.162
	l-1.748-1.62l-3.801,4.108c-0.713,0.774-1.439,1.535-2.158,2.304s-1.445,1.529-2.174,2.287L37.3,58.071l-4.395,4.53l-0.953,0.982
	l-1.004-0.982c-1.504-1.471-3.02-2.931-4.512-4.412c-1.498-1.477-2.982-2.967-4.463-4.462l-2.213-2.25l-2.197-2.265
	c-1.184-1.216-2.354-2.446-3.527-3.673c-1.215,1.156-2.439,2.304-3.66,3.455c-0.674,0.64-1.355,1.272-2.039,1.903
	C4.36,63.281,2.091,76.382,2.091,88.03c0,2.271,0.086,4.478,0.256,6.616c0.021-0.023,0.041-0.048,0.064-0.071
	c0.711-0.774,1.416-1.56,2.135-2.327c1.439-1.534,2.863-3.085,4.32-4.604c1.449-1.524,2.908-3.04,4.377-4.546l0.816-0.836
	l0.854,0.836l2.254,2.208c0.75,0.737,1.5,1.476,2.242,2.222c1.486,1.487,2.953,2.994,4.398,4.524
	c1.439,1.535,2.873,3.076,4.291,4.634c1.289,1.403,2.566,2.819,3.863,4.217c1.387-1.283,2.76-2.581,4.117-3.896
	c1.514-1.46,2.996-2.952,4.473-4.451c0.74-0.746,1.477-1.497,2.203-2.258s1.465-1.511,2.184-2.279l2.162-2.3l2.148-2.314
	l0.486-0.525l0.568,0.525l4.637,4.289c0.773,0.713,1.533,1.439,2.303,2.158c0.77,0.718,1.529,1.445,2.287,2.175l4.543,4.381
	l3.523,3.418c1.15-1.182,2.299-2.365,3.461-3.535c1.477-1.499,2.967-2.982,4.461-4.463l2.25-2.212l2.264-2.198
	c1.508-1.468,3.037-2.912,4.557-4.369l0.918-0.883l0.852,0.883c1.459,1.515,2.891,3.057,4.336,4.587
	c1.447,1.527,2.865,3.085,4.299,4.627l2.129,2.333c0.275,0.302,0.547,0.606,0.82,0.909c0.217-2.407,0.332-4.897,0.332-7.475
	C98.274,76.723,96.134,64.045,92.372,51.985z M13.706,69.28c-1.848,0-3.346-1.498-3.346-3.346c0-1.849,1.498-3.347,3.346-3.347
	c1.85,0,3.348,1.498,3.348,3.347C17.054,67.782,15.556,69.28,13.706,69.28z M31.741,82.667c-1.848,0-3.346-1.499-3.346-3.347
	c0-1.849,1.498-3.347,3.346-3.347c1.85,0,3.346,1.498,3.346,3.347C35.087,81.168,33.591,82.667,31.741,82.667z M49.776,70.768
	c-1.85,0-3.348-1.498-3.348-3.346c0-1.849,1.498-3.348,3.348-3.348c1.848,0,3.346,1.499,3.346,3.348
	C53.122,69.27,51.624,70.768,49.776,70.768z M67.81,83.163c-1.848,0-3.346-1.499-3.346-3.347c0-1.849,1.498-3.347,3.346-3.347
	c1.85,0,3.348,1.498,3.348,3.347C71.157,81.664,69.659,83.163,67.81,83.163z M85.845,69.776c-1.848,0-3.346-1.498-3.346-3.347
	s1.498-3.347,3.346-3.347s3.346,1.498,3.346,3.347S87.692,69.776,85.845,69.776z"/>
<path fill="#00BEF9" d="M93.802,93.452c-1.541-1.433-3.1-2.85-4.627-4.298c-1.219-1.151-2.443-2.299-3.66-3.455
	c-1.172,1.227-2.344,2.457-3.527,3.674l-2.197,2.264l-2.211,2.25c-1.48,1.495-2.965,2.985-4.465,4.462
	c-1.492,1.481-3.008,2.94-4.512,4.412l-1.004,0.983l-0.953-0.983l-4.395-4.53l-4.381-4.543c-0.729-0.758-1.457-1.518-2.174-2.287
	c-0.719-0.769-1.447-1.529-2.16-2.304l-3.801-4.109l-1.746,1.621l-2.299,2.163c-0.77,0.718-1.52,1.455-2.281,2.182
	c-0.76,0.727-1.51,1.464-2.258,2.205c-1.498,1.476-2.99,2.957-4.451,4.473c-1.463,1.511-2.91,3.039-4.334,4.589l-0.404,0.441
	l-0.473-0.441c-1.539-1.435-3.105-2.843-4.658-4.268c-1.557-1.417-3.098-2.851-4.633-4.29c-1.529-1.444-3.037-2.912-4.525-4.399
	c-0.746-0.741-1.482-1.491-2.221-2.241l-1.395-1.424c-1.225,1.188-2.453,2.373-3.689,3.549c-1.52,1.456-3.07,2.88-4.604,4.32
	c-0.768,0.719-1.553,1.423-2.328,2.135c-0.307,0.281-0.619,0.559-0.926,0.838c0.613,6.01,1.889,11.473,3.73,16.369
	c6.593,1.858,32.897,3.932,43.926,4.191c28.333,0.667,40.333-2.667,43.98-4.254c1.762-4.708,3.004-9.938,3.639-15.674
	c-0.553-0.495-1.104-0.991-1.65-1.49L93.802,93.452z"/>
<path fill="#00BEF9" d="M14.044,42.007l0.92,0.883c1.518,1.456,3.047,2.901,4.555,4.368l2.264,2.199l2.25,2.212
	c1.494,1.48,2.986,2.965,4.461,4.463c1.162,1.17,2.312,2.354,3.461,3.535l3.523-3.418l4.545-4.381
	c0.756-0.729,1.518-1.457,2.287-2.175c0.768-0.719,1.527-1.446,2.303-2.158l4.637-4.289l0.566-0.525l0.488,0.525l2.148,2.314
	l2.162,2.301c0.719,0.769,1.455,1.519,2.182,2.278c0.727,0.762,1.465,1.512,2.205,2.259c1.477,1.498,2.957,2.991,4.473,4.451
	c1.357,1.313,2.729,2.611,4.117,3.895c1.295-1.397,2.572-2.813,3.863-4.217c1.416-1.558,2.852-3.099,4.291-4.633
	c1.443-1.53,2.912-3.038,4.398-4.526c0.74-0.745,1.49-1.483,2.24-2.221l2.254-2.208l0.854-0.836l0.816,0.836
	c1.469,1.506,2.928,3.021,4.379,4.547c0.104,0.108,0.207,0.22,0.311,0.329c-1.795-5.167-3.887-10.174-6.23-14.857
	C79.677,33.116,73.842,33.924,68.75,34c-3.666,0.068-4.832,0.459-8.5,0.5l-12,0.25L36.5,34.5c-3.666-0.04-4.582-0.182-8.25-0.25
	c-3.322-0.049-9.401-1.068-12.726-1.148c-2.1,4.214-3.996,8.687-5.658,13.302c1.105-1.177,2.209-2.353,3.328-3.514L14.044,42.007z"
	/>
<path fill="#FFF200" d="M94.993,92.263c-1.434-1.542-2.852-3.1-4.299-4.627c-1.445-1.53-2.877-3.072-4.336-4.587l-0.852-0.883
	l-0.918,0.883c-1.52,1.457-3.049,2.901-4.557,4.369l-2.264,2.198l-2.25,2.212c-1.494,1.48-2.984,2.964-4.461,4.463
	c-1.162,1.17-2.311,2.354-3.461,3.535l-3.523-3.418l-4.543-4.381c-0.758-0.729-1.518-1.457-2.287-2.175
	c-0.77-0.719-1.529-1.445-2.303-2.158l-4.637-4.289l-0.568-0.525l-0.486,0.525l-2.148,2.314l-2.162,2.3
	c-0.719,0.769-1.457,1.519-2.184,2.279s-1.463,1.512-2.203,2.258c-1.477,1.499-2.959,2.991-4.473,4.451
	c-1.357,1.314-2.73,2.612-4.117,3.896c-1.297-1.397-2.574-2.813-3.863-4.217c-1.418-1.558-2.852-3.099-4.291-4.634
	c-1.445-1.53-2.912-3.037-4.398-4.524c-0.742-0.746-1.492-1.484-2.242-2.222l-2.254-2.208l-0.854-0.836l-0.816,0.836
	c-1.469,1.506-2.928,3.021-4.377,4.546c-1.457,1.519-2.881,3.069-4.32,4.604c-0.719,0.768-1.424,1.553-2.135,2.327
	c-0.023,0.023-0.043,0.048-0.064,0.071c0.047,0.604,0.104,1.2,0.164,1.793c0.307-0.279,0.619-0.557,0.926-0.838
	c0.775-0.712,1.561-1.416,2.328-2.135c1.533-1.44,3.084-2.864,4.604-4.32c1.236-1.176,2.465-2.36,3.689-3.549l1.395,1.424
	c0.738,0.75,1.475,1.5,2.221,2.241c1.488,1.487,2.996,2.955,4.525,4.399c1.535,1.439,3.076,2.873,4.633,4.29
	c1.553,1.425,3.119,2.833,4.658,4.268l0.473,0.441l0.404-0.441c1.424-1.55,2.871-3.078,4.334-4.589
	c1.461-1.516,2.953-2.997,4.451-4.473c0.748-0.741,1.498-1.479,2.258-2.205c0.762-0.727,1.512-1.464,2.281-2.182l2.299-2.163
	l1.746-1.621l3.801,4.109c0.713,0.774,1.441,1.535,2.16,2.304c0.717,0.77,1.445,1.529,2.174,2.287l4.381,4.543l4.395,4.53
	l0.953,0.983l1.004-0.983c1.504-1.472,3.02-2.931,4.512-4.412c1.5-1.477,2.984-2.967,4.465-4.462l2.211-2.25l2.197-2.264
	c1.184-1.217,2.355-2.447,3.527-3.674c1.217,1.156,2.441,2.304,3.66,3.455c1.527,1.448,3.086,2.865,4.627,4.298l2.334,2.13
	c0.547,0.499,1.098,0.995,1.65,1.49c0.059-0.518,0.109-1.041,0.156-1.567c-0.273-0.303-0.545-0.607-0.82-0.909L94.993,92.263z"/>
<path fill="#FFF200" d="M14.036,45.54c1.174,1.227,2.344,2.457,3.527,3.673l2.197,2.265l2.213,2.25
	c1.48,1.495,2.965,2.985,4.463,4.462c1.492,1.481,3.008,2.941,4.512,4.412l1.004,0.982l0.953-0.982l4.395-4.53l4.383-4.543
	c0.729-0.758,1.455-1.519,2.174-2.287s1.445-1.529,2.158-2.304l3.801-4.108l1.748,1.62l2.299,2.162
	c0.768,0.719,1.52,1.456,2.279,2.184c0.762,0.726,1.512,1.463,2.258,2.203c1.5,1.477,2.992,2.958,4.451,4.473
	c1.465,1.513,2.91,3.039,4.336,4.59l0.404,0.44l0.473-0.44c1.539-1.436,3.105-2.843,4.656-4.268c1.559-1.416,3.098-2.85,4.633-4.291
	c1.531-1.444,3.037-2.911,4.525-4.398c0.746-0.741,1.484-1.492,2.223-2.24l1.395-1.424c1.225,1.188,2.453,2.372,3.689,3.548
	c1.053,1.009,2.119,2.004,3.188,2.998c-0.438-1.398-0.895-2.79-1.375-4.17c-0.104-0.109-0.207-0.221-0.311-0.329
	c-1.451-1.526-2.91-3.041-4.379-4.547l-0.816-0.836l-0.854,0.836l-2.254,2.208c-0.75,0.737-1.5,1.476-2.24,2.221
	c-1.486,1.488-2.955,2.996-4.398,4.526c-1.439,1.534-2.875,3.075-4.291,4.633c-1.291,1.403-2.568,2.819-3.863,4.217
	c-1.389-1.283-2.76-2.581-4.117-3.895c-1.516-1.46-2.996-2.953-4.473-4.451c-0.74-0.747-1.479-1.497-2.205-2.259
	c-0.727-0.76-1.463-1.51-2.182-2.278l-2.162-2.301l-2.148-2.314l-0.488-0.525l-0.566,0.525l-4.637,4.289
	c-0.775,0.712-1.535,1.439-2.303,2.158c-0.77,0.718-1.531,1.445-2.287,2.175l-4.545,4.381l-3.523,3.418
	c-1.148-1.182-2.299-2.365-3.461-3.535c-1.475-1.498-2.967-2.982-4.461-4.463l-2.25-2.212l-2.264-2.199
	c-1.508-1.467-3.037-2.912-4.555-4.368l-0.92-0.883l-0.85,0.883c-1.119,1.161-2.223,2.337-3.328,3.514
	c-0.535,1.485-1.043,2.985-1.529,4.495c0.684-0.631,1.365-1.264,2.039-1.903C11.597,47.844,12.821,46.696,14.036,45.54z"/>
<circle fill="#FFC60B" cx="49.776" cy="67.421" r="3.347"/>
<circle fill="#FFC60B" cx="85.845" cy="66.43" r="3.347"/>
<circle fill="#FFC60B" cx="13.706" cy="65.934" r="3.346"/>
<circle fill="#FFC60B" cx="31.741" cy="79.32" r="3.347"/>
<circle fill="#FFC60B" cx="67.81" cy="79.816" r="3.347"/>
<g>
	<path fill="#FFF200" d="M5.834,112.666c3.691,0.852,7.451,1.287,11.211,1.629c3.759,0.362,7.527,0.601,11.298,0.799
		c7.543,0.365,15.097,0.537,22.653,0.564c7.556,0.07,15.1-0.052,22.626-0.535c3.76-0.257,7.516-0.597,11.244-1.144
		c3.72-0.547,7.472-1.188,10.968-2.646c-1.633,0.979-3.453,1.604-5.266,2.173c-1.82,0.562-3.669,1.027-5.529,1.438
		c-3.728,0.784-7.499,1.339-11.283,1.733c-7.568,0.807-15.185,1.015-22.771,0.979c-7.588-0.067-15.183-0.325-22.75-1.013
		c-3.784-0.333-7.56-0.785-11.313-1.383c-1.874-0.315-3.743-0.666-5.6-1.072C9.467,113.783,7.613,113.331,5.834,112.666z"/>
</g>
<g>
	<path fill="#FFF200" d="M15.834,32.958c0,0,1.082,0.068,2.976,0.188c0.945,0.029,2.093,0.064,3.41,0.105
		c1.316,0.025,2.786,0.118,4.41,0.111c1.619,0.019,3.374,0.039,5.229,0.061c1.854,0.015,3.805,0.101,5.83,0.083
		c2.024,0.001,4.116-0.028,6.241-0.003c2.124,0.017,4.282,0.033,6.44,0.05l1.618,0.029c0.259,0.003,0.562,0.016,0.784,0.01
		l0.809-0.013c1.076-0.017,2.149-0.035,3.213-0.051c2.128-0.045,4.224-0.031,6.25-0.049c2.025-0.03,3.992,0.023,5.842-0.016
		c1.842-0.096,3.587-0.162,5.2-0.22c1.616-0.054,3.098-0.103,4.411-0.146c1.307-0.123,2.446-0.229,3.385-0.317
		c0.942-0.09,1.688-0.129,2.182-0.238c0.502-0.082,0.77-0.125,0.77-0.125s-0.259,0.08-0.743,0.23
		c-0.483,0.171-1.209,0.342-2.142,0.517c-0.933,0.187-2.066,0.414-3.366,0.673c-1.308,0.202-2.79,0.37-4.411,0.551
		c-1.62,0.186-3.379,0.384-5.243,0.568c-1.859,0.14-3.814,0.205-5.841,0.284c-2.026,0.069-4.118,0.172-6.246,0.219
		c-1.063,0.028-2.136,0.057-3.213,0.086l-0.808,0.021c-0.317,0.01-0.554,0-0.834,0l-1.624-0.014c-2.165-0.04-4.331-0.081-6.463-0.12
		c-2.132-0.032-4.229-0.116-6.257-0.169c-2.029-0.03-3.99-0.241-5.849-0.354c-1.856-0.144-3.612-0.28-5.233-0.406
		c-1.618-0.097-3.105-0.351-4.416-0.516c-1.31-0.177-2.45-0.331-3.391-0.458c-0.934-0.151-1.659-0.324-2.158-0.417
		C16.1,33.012,15.834,32.958,15.834,32.958z"/>
</g>
<path fill="none" stroke="#231F20" stroke-miterlimit="10" d="M92.349,51.936c-0.438-1.399-0.895-2.791-1.373-4.171
	c-1.797-5.167-3.889-10.173-6.232-14.857c-0.082-0.163-0.164-0.327-0.246-0.49C75.769,15.189,63.608,2.455,50.159,2.455
	c-13.412,0-25.541,12.662-34.264,29.815c-0.131,0.26-0.262,0.521-0.393,0.781c-2.102,4.214-3.998,8.687-5.66,13.301
	c-0.533,1.485-1.045,2.985-1.529,4.496C4.339,63.23,2.067,76.332,2.067,87.979c0,2.272,0.086,4.478,0.256,6.616
	c0.047,0.604,0.104,1.201,0.164,1.794c0.613,6.01,1.889,11.472,3.73,16.368c0.057,0.153,0.115,0.305,0.174,0.456
	c7.58,19.644,24.324,30.046,43.768,30.046c19.422,0,36.15-10.38,43.744-29.982c0.074-0.193,0.146-0.387,0.221-0.582
	c1.764-4.708,3.004-9.938,3.639-15.673c0.057-0.519,0.109-1.041,0.156-1.568c0.217-2.406,0.332-4.896,0.332-7.475
	C98.251,76.672,96.11,63.994,92.349,51.936z"/>
<linearGradient id="SVGID_1_" gradientUnits="userSpaceOnUse" x1="20.8281" y1="133.333" x2="20.8281" y2="10.334">
	<stop  offset="0" style="stop-color:#FFFFFF;stop-opacity:0"/>
	<stop  offset="1" style="stop-color:#FFFFFF"/>
</linearGradient>
<path opacity="0.3" fill="url(#SVGID_1_)" d="M36.5,10.333c0,0-26.091,23.547-30.667,68c-4.667,45.334,16.333,55,16.333,55
	s-11.206-40.234-3-75.666C26.5,26,36.5,10.333,36.5,10.333z"/>
</svg>
