<?xml version="1.0" encoding="utf-8"?>
<!-- Generator: Adobe Illustrator 16.0.0, SVG Export Plug-In . SVG Version: 6.00 Build 0)  -->
<!DOCTYPE svg PUBLIC "-//W3C//DTD SVG 1.1//EN" "http://www.w3.org/Graphics/SVG/1.1/DTD/svg11.dtd">
<svg version="1.1" id="Layer_1" xmlns="http://www.w3.org/2000/svg" xmlns:xlink="http://www.w3.org/1999/xlink" x="0px" y="0px"
	 width="315.143px" height="211.678px" viewBox="0 0 315.143 211.678" enable-background="new 0 0 315.143 211.678"
	 xml:space="preserve">
<path fill-rule="evenodd" clip-rule="evenodd" fill="#D5BCA6" stroke="#4B221B" stroke-miterlimit="10" d="M242.917,3.18
	c-12.45,0.179-60.452,4.246-98.534,10.449C135.39,15.095,96.804,0.884,75.7,0.525C29.28-0.263,11.664,17.626,12.225,33.02
	c0.991,26.921-7.249,60.083-11.564,105.739c-1.437,15.154,7.304,42.338,3.566,50.7c-6.406,14.333,35.543,12.618,46.322,16.503
	c35.913,12.941,71.181-6.367,104.211-1.271c70.058,10.813,114.724,6.026,132.638,0.588c27.287-8.284,31.383-30.951,23.997-60.117
	c-3.004-11.861-0.145-32.155-2.088-52.021c-1.949-19.93-5.795-39.816-13.472-51.884C287.498,28.161,314.136,2.155,242.917,3.18z"/>
</svg>
