<?xml version="1.0" encoding="utf-8"?>
<!-- Generator: Adobe Illustrator 16.0.0, SVG Export Plug-In . SVG Version: 6.00 Build 0)  -->
<!DOCTYPE svg PUBLIC "-//W3C//DTD SVG 1.1//EN" "http://www.w3.org/Graphics/SVG/1.1/DTD/svg11.dtd">
<svg version="1.1" id="Layer_1" xmlns="http://www.w3.org/2000/svg" xmlns:xlink="http://www.w3.org/1999/xlink" x="0px" y="0px"
	 width="299.313px" height="220.092px" viewBox="0 0 299.313 220.092" enable-background="new 0 0 299.313 220.092"
	 xml:space="preserve">
<path fill-rule="evenodd" clip-rule="evenodd" fill="#D4BBA6" stroke="#4A221A" stroke-miterlimit="10" d="M230.162,7.148
	c-10.566,6.656-64.914,14.814-98.294,10.449c-9.013-1.178-43.221,2.567-61.99-6.692C33.632-6.976,13.258,42.988,13.145,43.136
	c-25.803,33.87-4.62,67.401-1.624,97.905c3.021,30.863-1.761,52.945,9.572,66.223c19.432,22.761,69.417,0.093,131.271,7.201
	c139.962,16.09,138.014-5.696,146.11-65.335c3.303-24.326-18.719-73.161-15.521-103.904
	C284.539,29.917,267.936-16.647,230.162,7.148z"/>
</svg>
