<?xml version="1.0" encoding="utf-8"?>
<!-- Generator: Adobe Illustrator 16.0.0, SVG Export Plug-In . SVG Version: 6.00 Build 0)  -->
<!DOCTYPE svg PUBLIC "-//W3C//DTD SVG 1.1//EN" "http://www.w3.org/Graphics/SVG/1.1/DTD/svg11.dtd">
<svg version="1.1" id="Layer_1" xmlns="http://www.w3.org/2000/svg" xmlns:xlink="http://www.w3.org/1999/xlink" x="0px" y="0px"
	 width="107.264px" height="52.438px" viewBox="0 0 107.264 52.438" enable-background="new 0 0 107.264 52.438"
	 xml:space="preserve">
<g>
	
		<linearGradient id="SVGID_1_" gradientUnits="userSpaceOnUse" x1="105.5303" y1="39.5864" x2="120.1215" y2="70.2709" gradientTransform="matrix(-0.8417 -0.54 -0.54 0.8417 220.5208 26.3762)">
		<stop  offset="0" style="stop-color:#8BD62B"/>
		<stop  offset="0.0822" style="stop-color:#81C227"/>
		<stop  offset="0.233" style="stop-color:#72A222"/>
		<stop  offset="0.3599" style="stop-color:#688E1E"/>
		<stop  offset="0.4467" style="stop-color:#65871D"/>
		<stop  offset="1" style="stop-color:#3A5400"/>
	</linearGradient>
	<path fill="url(#SVGID_1_)" d="M105.498,14.525c-1.921,1.193-6.337,0.952-8.948,1.37c-3.027,0.487-5.85,1.224-8.547,2.691
		c-0.613-3.268-1.98-5.603-3.354-8.436c1.564-1.673,4.41-2.671,6.383-3.717c2.902-1.541,5.48-3.75,8.233-5.179
		c0.692,1.263,1.943,2.513,2.581,3.852c-2.861,2.408-5.013,5.78-8.316,7.738c2.272,0.701,11.884-2.743,11.799,1.127L105.498,14.525z
		"/>
	
		<linearGradient id="SVGID_2_" gradientUnits="userSpaceOnUse" x1="140.3809" y1="295.5537" x2="168.3799" y2="285.0194" gradientTransform="matrix(-0.6887 -0.7251 -0.7251 0.6887 362.2612 -56.7957)">
		<stop  offset="0" style="stop-color:#E05B29"/>
		<stop  offset="0.1168" style="stop-color:#F26311"/>
		<stop  offset="0.3262" style="stop-color:#FB7326"/>
		<stop  offset="0.4772" style="stop-color:#FF7B30"/>
		<stop  offset="0.619" style="stop-color:#FD782C"/>
		<stop  offset="0.7622" style="stop-color:#F86E20"/>
		<stop  offset="0.8731" style="stop-color:#F26311"/>
		<stop  offset="1" style="stop-color:#E05B29"/>
	</linearGradient>
	<path fill="url(#SVGID_2_)" d="M2.913,50.802c4.134-1.262,4.887-0.519,9.13,0.45c4.063,0.924,8.059,1.03,12.047-0.113
		c4.225-1.211,9.323-2.329,13.313-4.08c3.602-1.58,7.965-1.87,11.043-2.542c3.234-0.707,14.378-4.056,21.209-6.717
		c6.56-2.552,12.917-1.126,18.341-7.915C98.338,16.942,85.295-1.583,75.689,0.597c-4.084,0.927-7.798,1.912-11.071,3.92
		c-7.893,4.846-13.65,7.904-21.239,13.218c-7.202,5.044-16.823,9.758-23.895,14.702c-3.439,2.404-5.098,3.885-8.312,6.452
		c-3.337,2.665-6.278,7.91-9.515,10.586C-1.237,51.87,2.913,50.802,2.913,50.802z"/>
	<path fill="#91B530" stroke="#000000" stroke-width="0.5" d="M107.264,13.428c-0.33-0.007-0.305-1.245-0.569-1.777
		c-0.523-1.045-0.562-0.81-1.747-0.657c-1.857,0.24-3.72,0.321-5.585,0.497c-2.165,0.205-8.218,0.251-8.041,2.683
		c0.088,1.209,0.109,1.678,0.255,2.876c2.5-1.333,6.768-2.399,9.39-3.125c0.901-0.249,1.975-0.46,2.914-0.446
		c0.771,0.012,2.207-0.115,2.742,0.025L107.264,13.428z"/>
	
		<linearGradient id="SVGID_3_" gradientUnits="userSpaceOnUse" x1="110.9971" y1="40.7446" x2="121.735" y2="70.6736" gradientTransform="matrix(-0.8417 -0.54 -0.54 0.8417 220.5208 26.3762)">
		<stop  offset="0" style="stop-color:#8BD62B"/>
		<stop  offset="0.184" style="stop-color:#81C227"/>
		<stop  offset="0.5216" style="stop-color:#72A222"/>
		<stop  offset="0.8057" style="stop-color:#688E1E"/>
		<stop  offset="1" style="stop-color:#65871D"/>
	</linearGradient>
	<path fill="url(#SVGID_3_)" stroke="#000000" stroke-width="0.5" d="M90.409,12.05c1.141-0.96,2.721-2.682,3.912-3.623
		c1.026-0.812,2.055-1.549,3.077-2.429c1.62-1.392,3.106-2.773,4.136-4.614c1.575,0.896,1.214,1.743,0.113,2.895
		c-1.043,1.094-2.19,1.979-3.363,2.84c-2.376,1.745-4.635,3.56-6.365,5.839c-0.387-0.143-1.026,0.87-1.01,0.425L90.409,12.05z"/>
	<g>
		<path fill="#789628" d="M91.408,15.009c0.02-0.179,4.749-1.956,5.055-2.081c1.314-0.538,2.657-1.068,3.985-1.563
			c0.673-0.249,1.371-0.606,2.067-0.759c0.357-0.078,0.89,0.057,1.21-0.078c0.282-0.119,0.472-0.47,0.67-0.7
			c0.377-0.436,0.894-0.81,1.183-1.311c0.397-0.688,0.087-1.416-0.114-2.116c-0.533,0.165-0.965,0.562-1.455,0.838
			c-0.946,0.531-1.831,1.197-2.804,1.671c-1.317,0.644-2.779,1.107-4.186,1.507c-0.814,0.232-1.625,0.402-2.261,0.941
			c-0.535,0.454-3.695,1.682-3.762,2.303L91.408,15.009z"/>
		<path d="M91.408,15.009c0.623-0.426,1.343-0.694,2.026-1.012l2.08-0.902l4.179-1.754c0.717-0.276,1.359-0.581,2.104-0.861
			c0.185-0.067,0.376-0.128,0.573-0.176c0.209-0.059,0.459-0.058,0.649-0.053c0.408,0.021,0.643,0.007,0.767-0.201l0.344-0.444
			c0.131-0.149,0.273-0.298,0.412-0.432c0.272-0.267,0.527-0.515,0.69-0.783c0.341-0.49,0.104-1.138-0.128-1.886l0.47,0.254
			c-0.504,0.152-1.082,0.664-1.694,0.97l-1.74,1.063c-1.229,0.703-2.524,1.174-3.845,1.561c-0.656,0.19-1.328,0.358-1.977,0.528
			c-0.32,0.089-0.633,0.186-0.917,0.327c-0.285,0.125-0.509,0.357-0.855,0.537c-0.618,0.327-1.242,0.583-1.857,0.872
			c-0.307,0.144-0.611,0.291-0.904,0.456c-0.272,0.163-0.622,0.347-0.72,0.596l-0.002-0.027L91.408,15.009z M91.408,15.009
			l-0.477-1.328l-0.006-0.017l0.004-0.01c0.134-0.408,0.474-0.553,0.743-0.763c0.288-0.191,0.585-0.364,0.883-0.532l1.784-0.977
			c0.258-0.139,0.513-0.414,0.846-0.585c0.319-0.177,0.655-0.297,0.985-0.406c0.66-0.205,1.302-0.397,1.943-0.616
			c1.271-0.429,2.554-0.897,3.677-1.574l1.729-1.093c0.306-0.178,0.561-0.331,0.843-0.531c0.284-0.193,0.601-0.406,0.991-0.534
			l0.363-0.119l0.106,0.373c0.1,0.347,0.232,0.719,0.29,1.148c0.071,0.408-0.019,0.968-0.272,1.325
			c-0.24,0.374-0.543,0.647-0.811,0.904c-0.135,0.127-0.255,0.249-0.375,0.381c-0.102,0.116-0.21,0.28-0.356,0.446
			c-0.072,0.081-0.157,0.167-0.299,0.261c-0.065,0.047-0.25,0.124-0.366,0.138c-0.25,0.041-0.451,0.021-0.636,0.015
			c-0.187-0.007-0.318-0.012-0.476,0.026c-0.17,0.039-0.34,0.09-0.511,0.149c-0.67,0.249-1.406,0.561-2.113,0.79l-4.251,1.558
			C94.228,13.945,92.77,14.384,91.408,15.009z"/>
	</g>
	<path fill="#FF8C3B" d="M88.566,16.207c-0.232-1.867-1.32-4.037-3.142-4.7c-0.463,0.584,0.213,2.568,0.289,3.314
		c-0.115-0.255-0.79-1.596-0.92-1.819c-0.143,0.027,0.041,0.363-0.225,0.39c-0.081-0.052-0.256-0.304-0.353-0.29
		c-0.312,0.798-1.173,2.442-2.262,1.688c-0.067,0.294-0.29,0.515-0.363,0.737c-0.635-1.38-1.528-3.688-3.224-4.146
		c0.218,1.193,0.594,2.346,0.845,3.481c-0.026-0.136-0.097-0.324-0.136-0.459c1.549,0.357,1.07,1.874,1.046,3.157
		c-0.339-0.941-0.982-2.268-1.772-2.983c0.008,0.216-0.093,0.58-0.062,0.866c-0.554-1.076-1.437-2.05-2.199-3.013
		c-0.717,4.642-1.598,3.868-3.466,4.91c-0.486-1.184-1.712,0.014-1.58,0.99c-0.159,0.944-0.67,1.211-1.243,2.163
		c-0.737-0.104-1.436-0.383-2.065-0.156c-0.347,0.126-0.507,1.598-0.854,1.681c-0.34,0.082-1.014-1.181-1.255-1.101
		c-0.633,0.208-1.354,0.761-2.126,0.995c-1.004,0.304-2.182-0.208-3.17-0.236c-2.308-0.064-1.766,1.544-3.439,2.774
		c-0.917,0.673-1.776,0.536-2.613,0.546c-0.133,0.002-0.353-0.444-0.835-0.353c-0.245,0.048-0.404,0.97-0.424,1.186
		c-0.134-0.069-0.182-0.196-0.322-0.263c-1.869,1.928-4.667,2.657-7.166,3.653c-2.168,0.864-5.104,0.903-5.578,3.401
		c-1.028-1.603-1.919,0.026-2.936,0.597c-1.182,0.664-2.781,1.041-4.091,1.39c-1.287,0.342-2.61,0.538-3.913,0.887
		c-1.944,0.519-1.719,1.41-3.071,2.479c-0.085-0.177-0.181-0.355-0.28-0.528c-0.116,1.074,0.532,2.06,0.232,3.082
		c-0.896-0.873-1.495-2.315-2.996-2.148c-0.092,0.555-0.104,1.182-0.142,1.719c-0.135-0.383-0.558-0.637-0.795-0.998
		c-0.263,0.423-0.567,0.67-0.604,1.241c-2.067-0.646-2.772,2.168-4.397,3.019c-0.772,0.404-1.546,0.097-2.348,0.637
		c-0.994,0.67-0.841,1.538-2.141,1.868c-0.765,0.193-1.683-0.001-2.471,0.196c-1.32,0.331-1.627,0.969-2.589,1.827
		c-0.751,0.672-1.601,1.074-2.482,1.451c-0.631,0.271-1.927,0.686-2.327,1.303c1.622-1.083,3.851-0.946,5.373-2.118
		c1.992,0.65,3.733-0.937,4.859-2.528c0.346,0.374,2.285,1.219,2.758,0.951c0.485-0.276-0.271-2.266,0.434-2.469
		c0.691-0.199,1.305,1.849,1.787,1.937c2.229,0.409,3.104-2.538,4.295-4.05c0.748,1.319,1.543,1.722,1.617-0.187
		c0.652,0.318,1.252,0.239,1.534-0.314c0.702,0.658,1.17,0.232,1.872,0.89c0.595-1.107-0.587-3.2-0.159-4.483
		c1.283,0.621,3.276,3.009,4.846,2.328c1.408-0.611,1.74-3.969,3.032-4.732c1.147-0.678,3.535,0.562,4.882,0.337
		c1.778-0.299,1.746-1.422,1.373-3.604c1.655,1.181,2.259,2.483,3.578,1.228c0.853-0.811,1.79-3.525,2.758-4.128
		c1.536-0.956,3.411-1.1,5.41-2.465c1.521,1.318,1.974,1.343,2.61,1.621c1.073-1.397,0.432-3.115,2.371-3.322
		c1.373-0.146,3.572,1.503,5.058,1.158c0.555-0.129,1.34-0.126,1.782-0.489c0.802-0.655-0.418-3.112,0.047-3.646
		c0.539-0.622,1.959,1.257,2.695,0.974c0.778-0.3,1.14-1.153,2.021-0.955c0.331,1.101-0.016,2.623,0.952,3.379
		c0.663-0.854,0.526-2.255,0.122-3.224c0.446-0.48,0.468-1.178,0.46-1.816c0.201,0.324,0.691,0.571,0.919,0.885
		c0.57-0.242,0.793-0.474,0.674-1.078c-0.11,0.115,0.748-2.37,0.627-2.291c1.171,0.76,1.341,3.894,2.776,4.047
		c-0.173-0.063,0.527-0.187,0.404-0.265c0.372-0.434,0.15-4.11,0.496-4.602c0.293,0.396,1.119,3.481,1.443,3.765
		c0.094-0.184-0.368-2.634-0.278-2.82c0.254,0.587,1.25,3.336,1.648,3.794c0.114-0.24,0.286-1.29,0.562-1.469
		c0.29-0.187,1.173,0.02,1.222-0.015c0.756-0.555,0.645-1.567,0.982-2.503c1.27,0.235,2.163,1.75,3.47,1.746
		c0.146-0.601-0.03-2.574,0.29-3.081c0.706,0.31,1.81,2.3,2.368,1.625c0.284-0.343,0.084-1.873,0.064-1.9L88.566,16.207z"/>
	<path fill="#D65727" d="M70.573,21.884c0.215,2.264,0.592,4.319,0.679,5.566c0.122,1.777,0.519,3.646,0.782,5.139
		C72.034,32.588,73.933,26.33,70.573,21.884z"/>
	<path fill="#D65727" d="M79.181,14.617c0.326,1.939,0.756,3.762,0.912,4.82c0.221,1.508,0.651,3.183,0.956,4.503
		C81.049,23.94,81.981,19.406,79.181,14.617z"/>
	<path fill="#ED602B" d="M41.058,32.096c0.399,1.625,0.887,3.121,1.084,4.012c0.28,1.27,0.76,2.637,1.108,3.722
		C43.25,39.83,43.885,35.61,41.058,32.096z"/>
	<path fill="#D65727" d="M77.581,22.645c0.114,0.748,0.276,1.432,0.328,1.844c0.073,0.587,0.239,1.21,0.354,1.706
		C78.263,26.195,78.765,24.171,77.581,22.645z"/>
	<path fill="#D65727" d="M71.036,9.623c0.154,0.742,0.354,1.416,0.428,1.824c0.105,0.583,0.305,1.196,0.446,1.685
		C71.91,13.131,72.302,11.083,71.036,9.623z"/>
	<path fill="#D65727" d="M25.192,29.469c0.354,0.858,0.748,1.615,0.93,2.091c0.262,0.679,0.639,1.361,0.922,1.913
		C27.044,33.473,27.035,30.802,25.192,29.469z"/>
	<path fill="#D65727" d="M24.576,34.472c0.354,0.857,0.749,1.614,0.931,2.092c0.261,0.678,0.639,1.36,0.921,1.911
		C26.428,38.475,26.419,35.806,24.576,34.472z"/>
	<path fill="#E35C29" d="M53.536,28.42c0.303,1.397,0.685,2.612,0.831,3.392c0.21,1.112,0.589,2.2,0.858,3.086
		C55.226,34.897,55.862,30.28,53.536,28.42z"/>
	<path fill="#E35C29" d="M56.418,9.917c0.6,0.992,1.221,1.835,1.538,2.392c0.452,0.794,1.039,1.543,1.486,2.159
		C59.442,14.467,58.814,10.913,56.418,9.917z"/>
	<path fill="#E35C29" d="M64.106,6.621c0.41,0.96,0.853,1.778,1.065,2.316c0.305,0.767,0.728,1.495,1.044,2.092
		C66.216,11.029,66.03,7.631,64.106,6.621z"/>
	<path fill="#D65727" d="M45.038,17.093c0.458,0.806,0.943,1.508,1.184,1.957c0.344,0.642,0.804,1.271,1.152,1.783
		C47.374,20.833,47.032,18.186,45.038,17.093z"/>
	<path fill="#D65727" d="M16.578,44.999c0.153,0.915,0.364,1.743,0.434,2.248c0.102,0.72,0.314,1.47,0.464,2.07
		C17.476,49.316,18.073,46.714,16.578,44.999z"/>
	<path fill="#EC8334" d="M24.451,50.408c6.072-2.628,21.316-6.08,24.227-6.919c6.347-1.831,29.669-7.79,34.902-10.554
		c4.258-2.249,6.278-6.667,7.911-10.58c-0.488,2.589-1.597,5.154-3.495,7.53c-5.424,6.788-11.781,5.362-18.341,7.915
		c-6.831,2.661-17.975,6.011-21.209,6.717c-3.078,0.672-7.441,0.962-11.043,2.542c-3.99,1.751-9.089,2.869-13.313,4.08
		c-3.988,1.143-7.983,1.037-12.047,0.113c-0.164-0.038-0.321-0.075-0.475-0.112C14.001,51.192,22.205,51.38,24.451,50.408z"/>
	<path fill="none" stroke="#231F20" stroke-width="0.5" d="M106.444,11.651c-0.523-1.045-0.562-0.81-1.747-0.657
		c-1.534,0.198-3.071,0.29-4.61,0.415c0.037-0.014,0.074-0.03,0.111-0.043c0.673-0.249,1.371-0.606,2.067-0.759
		c0.357-0.078,0.89,0.057,1.21-0.078c0.282-0.119,0.472-0.47,0.67-0.7c0.377-0.436,0.894-0.81,1.183-1.311
		c0.397-0.688,0.087-1.416-0.114-2.116c-0.533,0.165-0.965,0.562-1.455,0.838c-0.946,0.531-1.831,1.197-2.804,1.671
		c-1.317,0.644-2.779,1.107-4.186,1.507c-0.201,0.057-0.401,0.111-0.599,0.167c1.866-1.777,3.486-3.845,5.426-5.477
		c-0.106-0.224-0.234-0.443-0.369-0.662c0.056-0.057,0.114-0.108,0.17-0.167c1.101-1.152,1.462-1.999-0.113-2.895
		c-0.32,0.572-0.695,1.09-1.094,1.587c-0.434-0.575-0.861-1.144-1.175-1.715c-2.753,1.429-5.331,3.638-8.233,5.179
		c-0.826,0.438-1.805,0.871-2.779,1.345c-3.271-4.973-8.26-8.159-12.563-7.182c-4.084,0.927-7.798,1.912-11.071,3.92
		c-7.893,4.846-13.65,7.904-21.239,13.218c-7.202,5.044-16.823,9.758-23.895,14.702c-3.439,2.404-5.098,3.885-8.312,6.452
		c-3.337,2.665-6.278,7.91-9.515,10.586c-2.896,2.395,1.255,1.327,1.255,1.327c4.134-1.262,4.887-0.519,9.13,0.45
		c4.063,0.924,8.059,1.03,12.047-0.113c4.225-1.211,9.323-2.329,13.313-4.08c3.602-1.58,7.965-1.87,11.043-2.542
		c3.234-0.707,14.378-4.056,21.209-6.717c6.56-2.552,12.917-1.126,18.341-7.915c0.29-0.363,0.556-0.731,0.81-1.103
		c0.074-0.109,0.145-0.219,0.217-0.329c0.182-0.279,0.354-0.561,0.517-0.844c0.062-0.108,0.126-0.215,0.186-0.324
		c0.202-0.371,0.392-0.744,0.562-1.12c0.038-0.084,0.069-0.168,0.105-0.252c0.13-0.3,0.251-0.601,0.362-0.903
		c0.052-0.141,0.1-0.281,0.147-0.422c0.089-0.266,0.171-0.533,0.245-0.8c0.037-0.129,0.077-0.259,0.11-0.389
		c0.089-0.347,0.168-0.695,0.233-1.044c-0.003,0.006-0.006,0.013-0.008,0.019c0.339-1.787,0.385-3.585,0.186-5.343
		c1.573-0.509,3.194-0.864,4.881-1.136c2.611-0.418,7.027-0.177,8.948-1.37l-0.169-0.553c0.004-0.196-0.022-0.368-0.065-0.528
		c0.55-0.015,1.078-0.015,1.358,0.059l0.642-0.075C106.684,13.421,106.709,12.183,106.444,11.651z"/>
	<g>
		<path fill="#231F20" d="M88.432,7.522c0.484,0.911,0.938,1.825,1.37,2.756c0.427,0.933,0.838,1.874,1.148,2.865
			c0.301,1.002,0.437,2.018,0.556,3.03c0.113,1.013,0.19,2.028,0.236,3.044c-0.116-1.01-0.263-2.016-0.444-3.014
			c-0.191-0.993-0.382-1.996-0.755-2.915c-0.796-1.833-1.881-3.565-2.969-5.252L88.432,7.522z"/>
	</g>
</g>
</svg>
