<?xml version="1.0" encoding="utf-8"?>
<!-- Generator: Adobe Illustrator 16.0.0, SVG Export Plug-In . SVG Version: 6.00 Build 0)  -->
<!DOCTYPE svg PUBLIC "-//W3C//DTD SVG 1.1//EN" "http://www.w3.org/Graphics/SVG/1.1/DTD/svg11.dtd">
<svg version="1.1" id="Layer_1" xmlns="http://www.w3.org/2000/svg" xmlns:xlink="http://www.w3.org/1999/xlink" x="0px" y="0px"
	 width="87.674px" height="84.715px" viewBox="0 0 87.674 84.715" enable-background="new 0 0 87.674 84.715" xml:space="preserve">
<path fill="#007231" stroke="#000000" stroke-width="0.5" d="M62.749,0.401c1.323,1.021,2.223,2.138,2.352,3.671
	c0.129,1.556-0.532,3.019-0.386,4.575c0.124,1.331,0.403,2.86-0.532,4.015c-0.539,0.666-1.214,1.01-1.541,1.791
	c-0.255,0.606-0.333,1.299-0.544,1.936c-0.233,0.703-0.501,1.359-0.733,2.038c-0.251,0.736-0.922,1.229-1.18,1.888
	c0.635-1.145,1.039-2.544,1.283-3.826c0.12-0.63,0.274-1.304,0.309-1.957c0.044-0.829-0.228-0.982-0.58-1.719
	c-0.652-1.359-0.924-2.49-1.089-3.945c-0.158-1.396-0.828-2.609-0.698-4.107c0.094-1.076,0.609-1.732,1.345-2.553
	c0.571-0.637,1.709-1.233,1.829-2.059L62.749,0.401z"/>
<path fill="#009345" stroke="#000000" stroke-width="0.75" d="M79.215,23.883c-1.874,2.291-7.17,4.071-10.116,5.779
	c-3.413,1.982-6.504,4.161-9.204,7.133c-1.803-3.528-4.189-5.613-6.746-8.277c1.295-2.684,4.326-5.178,6.309-7.318
	c2.922-3.154,5.235-6.936,8.015-9.89c1.233,1.151,3.125,2.024,4.319,3.29c-2.582,4.146-4.01,9.086-7.265,12.913
	c2.914-0.243,13.129-8.751,14.306-4.196L79.215,23.883z"/>
<path fill="#007231" stroke="#000000" stroke-width="0.5" d="M80.938,21.777c-0.393,0.147-0.771-1.311-1.259-1.807
	c-0.964-0.975-0.932-0.684-2.281,0.049c-2.113,1.148-4.286,2.112-6.431,3.189c-2.489,1.25-6.685,4.673-8.611,6.887
	c-0.998,1.146,0.684,1.906,1.252,3.236c2.512-2.724,7.2-5.961,10.056-8.033c0.983-0.711,2.182-1.459,3.295-1.882
	c0.914-0.347,2.568-1.165,3.246-1.252L80.938,21.777z"/>
<path fill="#00AF4B" stroke="#000000" stroke-width="0.5" d="M58.732,27.992c1.03-1.652,3.173-5.1,4.269-6.754
	c0.944-1.427,1.915-2.768,2.832-4.272c1.453-2.381,2.752-4.687,3.358-7.315c2.158,0.31,2.011,1.467,1.092,3.325
	c-0.87,1.765-1.934,3.332-3.034,4.885c-2.229,3.146-4.976,7.163-6.267,10.632c-0.5,1.25-0.997,2.15-1.125,1.625L58.732,27.992z"/>
<path fill="#009345" stroke="#000000" stroke-width="0.5" d="M62.232,31.742c-0.034-0.219,5.464-5.213,5.785-5.501
	c1.375-1.242,2.785-2.489,4.189-3.687c0.713-0.604,1.418-1.348,2.19-1.852c0.396-0.258,1.069-0.349,1.403-0.656
	c0.293-0.271,0.402-0.77,0.561-1.129c0.301-0.686,0.788-1.363,0.964-2.083c0.241-0.988-0.365-1.692-0.834-2.415
	c-0.576,0.44-0.953,1.107-1.441,1.656c-0.942,1.062-1.768,2.253-2.759,3.261c-1.344,1.366-2.917,2.59-4.446,3.714
	c-0.886,0.651-1.786,1.229-2.359,2.154c-0.482,0.779-4.755,5.031-4.628,5.787L62.232,31.742z"/>
<path fill="#E6DCD7" stroke="#000000" stroke-linecap="round" stroke-linejoin="round" d="M74.079,54.684
	c1.36-8.403-2.805-16.816-6.805-20.816c-1.95-1.95-4.545-0.573-7.159-2.999c-1.76-1.633-3.383-6.501-3.383-6.501
	c-10.5-8.25-28.297-12.213-40.141,0.541c-5.542,5.971-12.781,17.898-0.625,41.104c-0.091,1.12-0.299,2.212-0.481,2.735
	c-0.762,2.186-2.327,3.658-4.353,4.536c3.221-0.101,4.388-3.54,5.261-6.453c2.132,4.097-0.214,7.308-3.716,9.493
	c-1.349-0.303-3.049-0.36-4-0.392c0.854,0.55,2.109,0.433,2.979,0.983c-0.398,0.215-0.807,0.418-1.221,0.609
	c-1.397,0.072-2.897,0.098-4.188-0.158c-2.065-0.41-3.757-0.728-5.748,0.273c1.774-0.357,3.229-0.521,4.902,0.045
	c1.054,0.355,1.984,0.584,3.014,0.66c-1.365,0.488-2.719,0.846-3.918,1.062c0.744,0.522,1.564,0.821,2.412,0.974
	c-0.946,0.464-2.03,0.876-2.737,1.581c1.129-0.429,2.294-0.547,3.369-1.022c0.296-0.131,0.592-0.281,0.89-0.437
	c0.847-0.011,1.692-0.132,2.5-0.317c-1.283,1.301-3.449,1.928-3.712,4.029c0.619-1.557,3.058-2.691,4.269-3.651
	c0.297-0.235,0.612-0.51,0.939-0.793c0.982-0.317,1.851-0.676,2.499-0.95c0.205-0.086,0.396-0.172,0.584-0.256
	c-0.408,0.732-0.705,1.52-1.453,2.189c-0.632,0.565-1.281,1.07-1.92,1.625c1.138-0.872,2.624-1.689,3.577-2.83
	c0.609-0.73,1.262-1.427,1.932-2.052c1.893-0.999,3.051-1.558,6.202-0.829c0.137,0.031,0.279,0.066,0.418,0.1
	c-1.835,1.809-5.523,1.246-7.063,3.736c1.375-1.577,3.119-1.493,5.008-2.066c1.095-0.33,2.094-0.903,3.121-1.416
	c7.3,1.778,16.083,4.426,23.307,3.118C56.675,78.685,70.805,74.904,74.079,54.684z M11.02,83.444
	c0.364-0.394,0.74-0.735,1.118-1.065C11.695,82.719,11.302,83.065,11.02,83.444z"/>
<linearGradient id="SVGID_1_" gradientUnits="userSpaceOnUse" x1="3.46" y1="60.4629" x2="71.0305" y2="38.5079">
	<stop  offset="0" style="stop-color:#FFFFFF;stop-opacity:0"/>
	<stop  offset="1" style="stop-color:#E0368A"/>
</linearGradient>
<path fill="url(#SVGID_1_)" d="M73.732,54.992c1.674-10.797-4.323-17.244-5.625-19.459c-1.691-2.877-2.833-1.666-6.375-3.041
	c-0.702-0.272-2-1.5-3-2.75c-1.382-1.727-2-4.125-2.125-5c-11-8.25-27.294-11.949-39.5,0.459
	C1.982,40.576,47.905,79.963,54.94,77.867C62.774,75.533,71.607,68.701,73.732,54.992z M11.035,83.777
	c0.364-0.393,0.74-0.734,1.118-1.064C11.711,83.053,11.317,83.398,11.035,83.777z"/>
<path fill="#009345" stroke="#000000" stroke-width="0.5" d="M69.649,28.494c2.052-1.443,6.897-1.549,9.349-1.168
	c1.867,0.291,2.965,1.342,4.277,2.457c1.173,0.993,2.539,1.332,3.954,1.944c-2.022,1.614-4.976,3.706-7.264,1.499
	c-2.079-2.005-1.786-5.259-5.356-4.865c0.746,1.051,0.734,1.505,0.885,2.724c0.115,0.935,0.774,1.808,0.723,2.802
	c-0.1,1.883-2.865,3.834-2.291,5.447c-1.377-2.138-1.685-2.99-0.666-5.474c0.334-0.815,0.865-1.732,0.867-2.64
	c0.002-0.379-0.252-0.927-0.267-1.375c-0.016-0.534,0.488-0.576,0.104-1.215c-1.022-0.213-3.463-0.303-4.229,0.455L69.649,28.494z"
	/>
<linearGradient id="SVGID_2_" gradientUnits="userSpaceOnUse" x1="44.9019" y1="82.3828" x2="61.7579" y2="23.5989">
	<stop  offset="0" style="stop-color:#EB008B;stop-opacity:0"/>
	<stop  offset="0.0992" style="stop-color:#D90095;stop-opacity:0.0992"/>
	<stop  offset="0.2468" style="stop-color:#C500A0;stop-opacity:0.2468"/>
	<stop  offset="0.4168" style="stop-color:#B800A7;stop-opacity:0.4168"/>
	<stop  offset="0.6274" style="stop-color:#AF00AC;stop-opacity:0.6274"/>
	<stop  offset="1" style="stop-color:#AD00AD"/>
</linearGradient>
<path opacity="0.1" fill="url(#SVGID_2_)" d="M44.107,19.235c0,0-0.5,1.166,1.333,2.333s5.059,1.473,6.667,2.167
	c0.934,0.403,4.333,4.333,4.333,4.333s4.257,7.33,5.667,8.834c2.5,2.666,6.571,4.02,5.833,12
	c-2.667,28.833-42.775,27.82-42.775,27.82s22.104,6.718,35.608-1.487c13.167-8,16.168-26.001,11.334-34.167
	s-6.167-8.166-8.667-8.035c-2.59,0.137-5.833-5.965-6.875-8.965c-0.454-1.309-5.958-3-6.458-3.666
	C49.607,19.735,44.107,19.235,44.107,19.235z"/>
<path fill="#00AF4B" stroke="#000000" stroke-width="0.5" d="M58.183,28.182c-0.409-1.716,1.072-6.203,1.005-8.075
	c-0.084-2.286-0.504-4.308-2.499-5.417c-2.156-1.197-5.015-1.685-7.357-0.66c-1.448,0.635-5.2,3.053-6.57,1.217
	c-0.795,1.934,1.493,4.226,2.997,4.992c2.006,1.021,4.325,1.334,6.543,0.641c1.743-0.543,3.47-2.403,5.022-0.507
	c1.526,1.866-0.245,4.224,0.249,5.614L58.183,28.182z"/>
</svg>
