<?xml version="1.0" encoding="utf-8"?>
<!-- Generator: Adobe Illustrator 16.0.0, SVG Export Plug-In . SVG Version: 6.00 Build 0)  -->
<!DOCTYPE svg PUBLIC "-//W3C//DTD SVG 1.1//EN" "http://www.w3.org/Graphics/SVG/1.1/DTD/svg11.dtd">
<svg version="1.1" id="Layer_1" xmlns="http://www.w3.org/2000/svg" xmlns:xlink="http://www.w3.org/1999/xlink" x="0px" y="0px"
	 width="52px" height="233px" viewBox="0 0 52 233" enable-background="new 0 0 52 233" xml:space="preserve">
<path id="colour_1_" fill="#AC55FF" stroke="#000000" stroke-width="0.5" stroke-miterlimit="10" d="M6.864,49.06
	c0,0,4.598-2.962,8.215-2.633c3.618,0.33,6.907,1.316,6.907,1.316s8.875-3.312,11.838-3.946c4.605-0.986,11.51,3.29,11.51,3.29
	l-20.061,6.576L6.864,49.06z"/>
<path id="colour_2_" opacity="0.3" stroke="#000000" stroke-width="0.5" stroke-miterlimit="10" d="M6.864,49.06
	c0,0,4.598-2.962,8.215-2.633c3.618,0.33,6.907,1.316,6.907,1.316s8.875-3.312,11.838-3.946c4.605-0.986,11.51,3.29,11.51,3.29
	l-20.061,6.576L6.864,49.06z"/>
<path fill="#FEC000" stroke="#000000" stroke-width="0.75" stroke-miterlimit="10" d="M28.236,221.884
	c0,1.541-1.252,6.739-2.797,6.739l0,0c-1.543,0-2.795-5.198-2.795-6.739v-14.146c0-1.543,1.25-0.821,2.795-0.821l0,0
	c1.543,0,2.797-0.722,2.797,0.821V221.884z"/>
<rect x="23.632" y="30.313" fill="#BF7B00" stroke="#000000" stroke-width="0.75" stroke-miterlimit="10" width="5.427" height="24.172"/>
<path d="M22.478,33.108c0,0-0.596-10.747,0.494-20.553C23.958,3.676,32.874-0.61,40.73,3.676c9.043,4.933,8.223,17.823,3.945,21.048
	c-1.469,1.106-5.121-2.079-4.438-3.783c1.973-4.933-1.48-12.001-6.084-10.687c-4.604,1.314-3.289,22.526-3.289,22.526
	s-0.986,1.15-4.604,1.15C25.025,33.931,22.478,33.108,22.478,33.108z"/>
<path id="colour" fill="#AC55FF" stroke="#000000" stroke-width="0.5" stroke-miterlimit="10" d="M11.463,48.4
	c0,0-10.523-1.314-6.577,9.868c3.945,11.183,9.865,17.102,9.865,17.102s-7.069,17.593-8.386,35.353
	c-1.315,17.759-0.823,46.208,4.439,69.229c5.262,23.021,10.523,27.623,10.523,27.623s2.629,0.987,7.562-0.327
	c3.242-0.865,22.033-49.66,18.088-79.916c-3.947-30.256-9.867-46.701-9.867-46.701s-0.656-5.261,3.947-11.18
	c4.604-5.92,8.549-19.077,6.574-22.365c-1.973-3.288-5.262,0.002-9.865,0.659c-4.604,0.657-3.287-5.919-7.232-5.919
	c-3.947,0-6.25,9.535-10.195,9.535C16.39,51.36,11.463,48.4,11.463,48.4z"/>
<path opacity="0.2" fill="#000006" enable-background="new    " d="M9.489,49.06c0,0-0.987,4.605,3.289,10.853
	c4.276,6.248,6.577,13.156,6.577,13.156s-0.092,6.9,0.658-9.539c0.328-7.237-4.277-11.183-4.277-11.183L9.489,49.06z"/>
<path opacity="0.2" fill="#000006" enable-background="new    " d="M38.102,49.389c0,0,3.946,4.933-1.315,10.194
	c-5.354,5.353-0.656,14.142-0.656,14.142s4.414-8.134,6.576-11.839c2.306-3.949,5.584-12.478,2.631-14.799
	C43.391,45.556,38.102,49.389,38.102,49.389z"/>
<path opacity="0.15" fill="#000006" enable-background="new    " d="M18.368,75.698c0,0.987-8.55,34.202-9.209,51.304
	c-0.435,11.295,10.524,76.301,10.524,76.301s-4.165-83.369-2.96-90.771C21.327,84.246,18.368,75.698,18.368,75.698z"/>
<path opacity="0.2" fill="#000006" enable-background="new    " d="M31.852,90.825c0,0.986,2.707,41.758,2.303,58.868
	c-0.655,27.953-7.833,59.761-5.262,52.291c3.616-10.521,6.578-33.545,7.233-39.793C39.368,131.363,31.852,90.825,31.852,90.825z"/>
<path opacity="0.2" fill="#000006" enable-background="new    " d="M34.484,79.974c0,0.987,12.957,25.014,11.84,52.62
	C44.352,181.268,29.882,203.3,29.882,203.3s14.402-46.685,7.562-89.453c-1.314-8.223,0-12.498-1.975-19.403
	C33.282,86.796,34.484,79.974,34.484,79.974z"/>
<polygon fill="#000003" fill-opacity="0.4" stroke="#000000" stroke-width="0.5" stroke-miterlimit="10" points="13.313,73.725 
	14.415,76.234 13.422,78.974 37.186,78.329 38.488,73.725 "/>
<g opacity="0.5">
	<path d="M27.764,207.427c0,0,1.116-3.252,2.133-6.528c1.03-3.271,2.062-6.541,2.062-6.541c0.035-0.123,0.16-0.191,0.279-0.155
		c0.119,0.032,0.188,0.159,0.158,0.278c0,0-0.904,3.315-1.811,6.631c-0.893,3.324-1.883,6.608-1.883,6.608
		c-0.076,0.267-0.346,0.416-0.609,0.347c-0.264-0.074-0.414-0.351-0.342-0.61C27.757,207.448,27.762,207.434,27.764,207.427z"/>
</g>
<g opacity="0.5">
	<path d="M21.831,207.671l-0.834-6.675l1.801,6.479c0.074,0.267-0.08,0.536-0.342,0.61c-0.262,0.075-0.537-0.078-0.611-0.341
		C21.841,207.723,21.835,207.695,21.831,207.671z"/>
</g>
<g opacity="0.5">
	<path d="M24.13,207.656c0,0-0.096-0.852-0.238-2.123c-0.047-0.639-0.102-1.387-0.16-2.184c-0.01-0.803-0.023-1.654-0.035-2.51
		c-0.002-0.85-0.006-1.693-0.008-2.49c-0.051-0.787-0.098-1.522-0.139-2.156c-0.129-1.265-0.252-2.104-0.25-2.104
		c0,0,0.184,0.826,0.406,2.084c0.09,0.635,0.193,1.371,0.305,2.164c0.061,0.793,0.127,1.639,0.195,2.48
		c0.104,1.699,0.305,3.354,0.518,4.604c0.229,1.246,0.379,2.071,0.379,2.071l0.002,0.021c0.051,0.269-0.127,0.523-0.396,0.572
		c-0.268,0.049-0.525-0.127-0.574-0.396C24.134,207.677,24.132,207.666,24.13,207.656z"/>
</g>
<g opacity="0.5">
	<path d="M31.822,78.577c0,0-0.24,0.596-0.514,1.464c-0.285,0.871-0.68,2.041-0.943,3.249c-0.148,0.605-0.299,1.208-0.436,1.775
		c-0.07,0.574-0.139,1.108-0.191,1.57c-0.113,0.935-0.188,1.559-0.188,1.559s-0.049-0.625-0.123-1.561
		c-0.036-0.476-0.075-1.033-0.12-1.628c0.022-0.594,0.053-1.226,0.082-1.858c0.024-1.274,0.188-2.542,0.301-3.498
		c0.11-0.963,0.222-1.568,0.222-1.568L31.822,78.577z"/>
</g>
<g opacity="0.5">
	<polygon points="33.493,78.587 33.167,88.195 31.527,78.726 	"/>
</g>
<g opacity="0.5">
	<path d="M18.421,73.71c0,0-0.449-2.104-1.072-4.189c-0.309-1.041-0.67-2.06-0.992-2.808c-0.332-0.738-0.618-1.21-0.618-1.21
		s0.381,0.389,0.884,1.054c0.49,0.672,1.089,1.609,1.63,2.576c1.096,1.921,2.037,3.947,2.037,3.947L18.421,73.71z"/>
</g>
<g opacity="0.5">
	<path d="M29.337,73.665c0,0-0.164-0.79-0.407-1.973c-0.263-1.177-0.535-2.786-0.955-4.318c-0.791-3.124-1.583-6.245-1.583-6.245
		s1.264,2.977,2.523,5.954c0.67,1.498,1.176,3.018,1.612,4.149c0.425,1.133,0.703,1.891,0.703,1.891L29.337,73.665z"/>
</g>
<g opacity="0.5">
	<path d="M20.995,78.392c0,0-0.133,0.869-0.332,2.174c-0.105,0.655-0.32,1.436-0.502,2.254c-0.188,0.829-0.4,1.69-0.635,2.532
		c-0.908,3.396-1.814,6.789-1.814,6.789s0.422-3.488,0.846-6.972c0.115-0.873,0.203-1.738,0.268-2.532
		c0.064-0.803,0.164-1.528,0.18-2.181c0.012-1.316,0.023-2.191,0.023-2.191L20.995,78.392z"/>
</g>
<g opacity="0.5">
	<path d="M31.854,73.677c0,0,0.133-1.218,0.332-3.042c0.104-0.914,0.315-1.993,0.5-3.137c0.185-1.15,0.396-2.362,0.631-3.561
		c0.914-4.81,1.826-9.618,1.826-9.618s-0.425,4.875-0.849,9.747c-0.112,1.22-0.201,2.434-0.271,3.559
		c-0.062,1.135-0.168,2.174-0.181,3.087c-0.014,1.835-0.024,3.057-0.024,3.057L31.854,73.677z"/>
</g>
<linearGradient id="SVGID_1_" gradientUnits="userSpaceOnUse" x1="18.1689" y1="1364.6162" x2="36.3862" y2="1345.7518" gradientTransform="matrix(1 0 0 1 0.5605 -1337.5566)">
	<stop  offset="0" style="stop-color:#FFFFFF;stop-opacity:0"/>
	<stop  offset="1" style="stop-color:#FFFFFF;stop-opacity:0.22"/>
</linearGradient>
<path fill="url(#SVGID_1_)" d="M23.632,31.794c0,0-0.49-20.54,1.973-23.926c3.945-5.426,6.661-4.193,6.661-4.193
	s-6.167,1.727-6.415,12.333c-0.115,4.939-0.246,16.279-0.246,16.279L23.632,31.794z"/>
</svg>
