<?xml version="1.0" encoding="utf-8"?>
<!-- Generator: Adobe Illustrator 16.0.0, SVG Export Plug-In . SVG Version: 6.00 Build 0)  -->
<!DOCTYPE svg PUBLIC "-//W3C//DTD SVG 1.1//EN" "http://www.w3.org/Graphics/SVG/1.1/DTD/svg11.dtd">
<svg version="1.1" id="Layer_1" xmlns="http://www.w3.org/2000/svg" xmlns:xlink="http://www.w3.org/1999/xlink" x="0px" y="0px"
	 width="96.672px" height="95.148px" viewBox="0 0 96.672 95.148" enable-background="new 0 0 96.672 95.148" xml:space="preserve">
<path id="colour_5" fill="#516BED" stroke="#010101" stroke-linecap="round" stroke-linejoin="round" stroke-miterlimit="10" d="
	M55.701,1.671c-4.258-1.825-10.107-0.104-11.596,0.386c0,0-7.627-1.175-11.996,1.911C13.003,17.476,38.9,35.965,41.271,37.531
	c3.429,2.27,5.843,9.145,5.843,9.145l2.736-0.29c0,0,0.998-7.048,3.879-9.979C55.723,34.379,77.201,10.906,55.701,1.671z"/>
<path id="colour_4" fill="#516BED" stroke="#010101" stroke-linecap="round" stroke-linejoin="round" stroke-miterlimit="10" d="
	M6.518,27.477c-3.051,3.485-3.224,9.579-3.217,11.15c0,0-3.472,6.895-1.885,12c6.938,22.34,32.527,3.424,34.75,1.654
	c3.212-2.562,10.5-2.73,10.5-2.73l0.574-2.693c0,0-6.4-3.125-8.294-6.77C37.632,37.563,21.939,9.886,6.518,27.477z"/>
<path id="colour_3" fill="#516BED" stroke="#010101" stroke-linecap="round" stroke-linejoin="round" stroke-miterlimit="10" d="
	M15.278,82.14c2.37,3.979,8.114,6.025,9.608,6.502c0,0,5.48,5.438,10.83,5.504c23.394,0.303,13.312-29.879,12.309-32.537
	c-1.438-3.85,0.65-10.83,0.65-10.83l-2.384-1.377c0,0-4.946,5.115-9.003,5.795C34.484,55.664,3.31,62.035,15.278,82.14z"/>
<path id="colour_2" fill="#516BED" stroke="#010101" stroke-linecap="round" stroke-linejoin="round" stroke-miterlimit="10" d="
	M69.968,90.699c4.519-1.025,8.238-5.857,9.153-7.129c0,0,6.861-3.529,8.581-8.596C95.218,52.82,63.4,53.082,60.561,53.209
	c-4.104,0.182-10.103-3.963-10.103-3.963l-2.042,1.84c0,0,3.337,6.287,2.729,10.352C50.723,64.25,47.15,95.869,69.968,90.699z"/>
<path id="colour_1" fill="#516BED" stroke="#010101" stroke-linecap="round" stroke-linejoin="round" stroke-miterlimit="10" d="
	M95.307,41.032c0.424-4.615-3.021-9.647-3.945-10.912c0,0-1.242-7.618-5.524-10.817c-18.75-13.994-28.333,16.35-29.088,19.089
	c-1.097,3.961-6.89,8.379-6.89,8.379l1.119,2.516c0,0,7.01-1.232,10.688,0.6C64.209,51.16,93.177,64.328,95.307,41.032z"/>
<path fill="#010101" d="M46.829,43.769c-3.074-22.379-2.985-32.835-2.985-32.835S45.759,22.797,46.829,43.769z"/>
<path fill="#010101" d="M44.461,46.956c-22.233-3.994-32.154-7.313-32.154-7.313S24.181,41.491,44.461,46.956z"/>
<path fill="#010101" d="M46.103,51.232C35.437,71.146,29.216,79.554,29.216,79.554S34.636,68.832,46.103,51.232z"/>
<path fill="#010101" d="M50.675,50.998c15.647,16.299,21.724,24.811,21.724,24.811S63.872,67.336,50.675,50.998z"/>
<path fill="#010101" d="M52.166,46.27c20.336-9.839,30.311-12.981,30.311-12.981S71.782,38.773,52.166,46.27z"/>
<circle fill="#FF7300" stroke="#010101" stroke-linecap="round" stroke-linejoin="round" stroke-miterlimit="10" cx="48.962" cy="49.212" r="13.305"/>
<path fill="#E7C51F" d="M38.338,55.443c0,0,5.898,5.75,14.574,1.691c8.675-4.061,4.513-16.578,4.513-16.578s7.205,10.158,0,16.916
	C47.816,66.484,38.338,55.443,38.338,55.443z"/>
</svg>
