<?xml version="1.0" encoding="utf-8"?>
<!-- Generator: Adobe Illustrator 16.0.0, SVG Export Plug-In . SVG Version: 6.00 Build 0)  -->
<!DOCTYPE svg PUBLIC "-//W3C//DTD SVG 1.1//EN" "http://www.w3.org/Graphics/SVG/1.1/DTD/svg11.dtd">
<svg version="1.1" id="Layer_1_copy" xmlns="http://www.w3.org/2000/svg" xmlns:xlink="http://www.w3.org/1999/xlink" x="0px"
	 y="0px" width="202px" height="491.562px" viewBox="0 0 202 491.562" enable-background="new 0 0 202 491.562"
	 xml:space="preserve">
<path fill="#000100" d="M54.099,204.124c-2.145,0.889-3.158,4.081-3.331,6.299c-1.87,2.011-4.253,3.784-2.66,6.875
	c-7.758,3.127,3.437,22.533-2.309,26.432c-1.988,6.625,5.318,28.849,15.183,28.849c4.454,1.384,6.442-2.668,0.873-4.375
	c4.26-2.041,2.107-4.409-0.266-5.019c4.714,0.606,1.215-4.272,2.035-4.438c3.563-7.604-5.195-9.903,0.875-17.096
	c8.021-3.083,4.985-11.284,2.859-10.068c2.924,0.265,11.329-15.215,10.596-17.94c6.797,3.879,12.162-1.841,8.841-5.444
	c-0.808-0.938,27.938-4.005,29.76-6.074c2.368-0.129,5.2,0.577,4.871-2.68c3.023,1.807,4.238-0.052,6.364-2.481
	c2.127-2.126,7.593-3.037,8.808,0c1.928,1.377-3.646,2.125,0.909,5.466c8.646,1.53,34.386,6.779,29.31,21.003
	c-0.15,2.016,2.729,0.813,3.863,2.334c-0.697,1.81-0.297,3.489,0.535,5.208c-0.564,1.683,0.191,3.475,0.326,5.198
	c2.836,3.801,4.848,11.497,4.839,16.362c-0.055,10.064,12.338-0.975,8.703-4.049c1.013-3.847,4.25-2.631,4.86-5.062
	c1.004-3.114,1.976-25.438-3.242-24.293c0.305-2.126,1.822-10.629-2.842-10.36c5.031-8.594-9.438-5.517-10.521-7.061
	c-3.474-4.376-3.522-22.201-13.381-20.888c-2.493-3.896-3.625-5.217-9.147-5.053c0.127-6.17-5.807-3.431-9.893-3.654
	c-4.082-6.503-8.354-3.424-14.75-4.812c-3.656-0.25-20.146-4.262-22.064,0.202c-1.815-1.419-4.233-1.687-4.836-0.38
	c-2.241,0.231-14.635,2.009-11.638,7.888c-4.176,1.299-9.746-2.405-9.642,4.639c0.911-0.607-4.09-3.263-5.694,1.594
	c-4.226,0.228-4.631,4.479-5.239,5.087c-1.214,0.607-2.799,0.828-3.946,1.441c-2.525,0.223,2.374,17.203-0.521,18.24
	C59.969,206.954,60.148,201.617,54.099,204.124z"/>
<path fill="#000100" d="M122.693,321.564c0,2.207-2.09,3.998-4.668,3.998l0,0c-2.575,0-4.666-1.791-4.666-3.998v-10.278
	c0-2.208,2.091-2.142,4.666-2.142l0,0c2.578,0,4.668-0.066,4.668,2.142V321.564z"/>
<circle id="colour" fill="none" stroke="#000100" stroke-width="3" stroke-miterlimit="10" cx="119.098" cy="250.478" r="58.365"/>
<path fill="#0099DC" stroke="#000100" stroke-width="2.8347" stroke-linecap="round" stroke-linejoin="round" d="M60.206,190.755
	c0.784-14.872,9.241-23.262,22.73-31.357c19.568-11.741,51.548-7.617,61.833-3.914c9.787,3.522,21.469,8.677,25.768,18.056
	c6.311,13.771,5.477,30.458,5.477,30.458s-9.679-4.735-59.144-0.94c-49.463,3.794-53.502,4.132-53.502,4.132
	S59.685,200.691,60.206,190.755z"/>
<path fill="#0099DC" stroke="#000100" stroke-width="2.8347" stroke-linecap="round" stroke-linejoin="round" d="M61.021,206.409
	c0,0,8.264,25.724,17.22,20.351c46.962-28.179,71.725-0.917,87.663-8.61c2.824-1.363,9.396-14.872,9.396-14.872
	s-33.657-13.306-65.75-10.176C77.459,196.234,61.021,206.409,61.021,206.409z"/>
<line fill="none" stroke="#000100" stroke-width="5" stroke-linecap="round" stroke-linejoin="round" x1="30.35" y1="89.296" x2="36.503" y2="175.726"/>
<g id="hand_0">
	
		<polyline fill="#1D1E1C" stroke="#000000" stroke-width="5.5" stroke-linecap="round" stroke-linejoin="round" stroke-miterlimit="10" points="
		28,70.327 29,60.577 31.25,70.827 	"/>
	
		<polyline fill="#1D1E1C" stroke="#000000" stroke-width="5.5" stroke-linecap="round" stroke-linejoin="round" stroke-miterlimit="10" points="
		36.5,71.577 37.25,59.327 40.25,75.827 	"/>
	
		<line fill="none" stroke="#000000" stroke-width="5.5" stroke-linecap="round" stroke-linejoin="round" stroke-miterlimit="10" x1="42.188" y1="63.344" x2="46.75" y2="77.827"/>
	
		<polyline fill="#1D1E1C" stroke="#000000" stroke-width="5.5" stroke-linecap="round" stroke-linejoin="round" stroke-miterlimit="10" points="
		23.75,71.577 21.75,64.327 23.25,75.827 	"/>
	
		<polyline fill="#1D1E1C" stroke="#000000" stroke-width="5.5" stroke-linecap="round" stroke-linejoin="round" stroke-miterlimit="10" points="
		20.25,74.077 15.75,68.327 18.75,80.327 	"/>
	<path fill="#000100" d="M18.5,87.577c0,0,2.769,6.314,8,6.75c6,0.5,10.5-1.25,13.75-4.25s7.25-6.75,8.75-11
		c0.424-1.202-2.25-8.75-2.25-8.75s-1.75,4.75-4.25,4.25c-0.775-0.155-3.75-7-3.75-7s-3.25,1.25-6.25-0.25
		c-1.703-0.852-5,1.75-7.5,1s-2.75,5-3.5,5s-1.25-0.25-2.5,1.5s-3.5,4.5-3.5,4.5L18.5,87.577z"/>
</g>
<g id="hand_1">
	
		<polyline fill="#1D1E1C" stroke="#000000" stroke-width="5.5" stroke-linecap="round" stroke-linejoin="round" stroke-miterlimit="10" points="
		28,70.327 29,60.577 31.25,70.827 	"/>
	
		<polyline fill="#1D1E1C" stroke="#000000" stroke-width="5.5" stroke-linecap="round" stroke-linejoin="round" stroke-miterlimit="10" points="
		36.5,71.577 37.25,59.327 40.25,75.827 	"/>
	
		<line fill="none" stroke="#000000" stroke-width="5.5" stroke-linecap="round" stroke-linejoin="round" stroke-miterlimit="10" x1="56.75" y1="52.577" x2="46.75" y2="77.827"/>
	
		<polyline fill="#1D1E1C" stroke="#000000" stroke-width="5.5" stroke-linecap="round" stroke-linejoin="round" stroke-miterlimit="10" points="
		23.75,71.577 21.75,64.327 23.25,75.827 	"/>
	
		<polyline fill="#1D1E1C" stroke="#000000" stroke-width="5.5" stroke-linecap="round" stroke-linejoin="round" stroke-miterlimit="10" points="
		20.25,74.077 15.75,68.327 18.75,80.327 	"/>
	<path fill="#000100" d="M18.5,87.577c0,0,2.769,6.314,8,6.75c6,0.5,10.5-1.25,13.75-4.25s7.25-6.75,8.75-11
		c0.424-1.202-2.25-8.75-2.25-8.75s-1.75,4.75-4.25,4.25c-0.775-0.155-3.75-7-3.75-7s-3.25,1.25-6.25-0.25
		c-1.703-0.852-5,1.75-7.5,1s-2.75,5-3.5,5s-1.25-0.25-2.5,1.5s-3.5,4.5-3.5,4.5L18.5,87.577z"/>
</g>
<g id="hand_2">
	
		<polyline fill="#1D1E1C" stroke="#000000" stroke-width="5.5" stroke-linecap="round" stroke-linejoin="round" stroke-miterlimit="10" points="
		28,70.327 29,60.577 31.25,70.827 	"/>
	
		<line fill="none" stroke="#000000" stroke-width="5.5" stroke-linecap="round" stroke-linejoin="round" stroke-miterlimit="10" x1="40" y1="15.577" x2="40" y2="76.327"/>
	
		<line fill="none" stroke="#000000" stroke-width="5.5" stroke-linecap="round" stroke-linejoin="round" stroke-miterlimit="10" x1="56.75" y1="52.577" x2="46.75" y2="77.827"/>
	
		<polyline fill="#1D1E1C" stroke="#000000" stroke-width="5.5" stroke-linecap="round" stroke-linejoin="round" stroke-miterlimit="10" points="
		23.75,71.577 21.75,64.327 23.25,75.827 	"/>
	
		<polyline fill="#1D1E1C" stroke="#000000" stroke-width="5.5" stroke-linecap="round" stroke-linejoin="round" stroke-miterlimit="10" points="
		20.25,74.077 15.75,68.327 18.75,80.327 	"/>
	<path fill="#000100" d="M18.5,87.577c0,0,2.769,6.314,8,6.75c6,0.5,10.5-1.25,13.75-4.25s7.25-6.75,8.75-11
		c0.424-1.202-2.25-8.75-2.25-8.75s-1.75,4.75-4.25,4.25c-0.775-0.155-3.75-7-3.75-7s-3.25,1.25-6.25-0.25
		c-1.703-0.852-5,1.75-7.5,1s-2.75,5-3.5,5s-1.25-0.25-2.5,1.5s-3.5,4.5-3.5,4.5L18.5,87.577z"/>
</g>
<g id="hand_3">
	
		<line fill="none" stroke="#000000" stroke-width="5.5" stroke-linecap="round" stroke-linejoin="round" stroke-miterlimit="10" x1="27.25" y1="7.577" x2="31.25" y2="70.827"/>
	
		<line fill="none" stroke="#000000" stroke-width="5.5" stroke-linecap="round" stroke-linejoin="round" stroke-miterlimit="10" x1="40" y1="15.577" x2="40" y2="76.327"/>
	
		<line fill="none" stroke="#000000" stroke-width="5.5" stroke-linecap="round" stroke-linejoin="round" stroke-miterlimit="10" x1="56.75" y1="52.577" x2="46.75" y2="77.827"/>
	
		<polyline fill="#1D1E1C" stroke="#000000" stroke-width="5.5" stroke-linecap="round" stroke-linejoin="round" stroke-miterlimit="10" points="
		23.75,71.577 21.75,64.327 23.25,75.827 	"/>
	
		<polyline fill="#1D1E1C" stroke="#000000" stroke-width="5.5" stroke-linecap="round" stroke-linejoin="round" stroke-miterlimit="10" points="
		20.25,74.077 15.75,68.327 18.75,80.327 	"/>
	<path fill="#000100" d="M18.5,87.577c0,0,2.769,6.314,8,6.75c6,0.5,10.5-1.25,13.75-4.25s7.25-6.75,8.75-11
		c0.424-1.202-2.25-8.75-2.25-8.75s-1.75,4.75-4.25,4.25c-0.775-0.155-3.75-7-3.75-7s-3.25,1.25-6.25-0.25
		c-1.703-0.852-5,1.75-7.5,1s-2.75,5-3.5,5s-1.25-0.25-2.5,1.5s-3.5,4.5-3.5,4.5L18.5,87.577z"/>
</g>
<g id="hand_4">
	
		<line fill="none" stroke="#000000" stroke-width="5.5" stroke-linecap="round" stroke-linejoin="round" stroke-miterlimit="10" x1="27.25" y1="7.577" x2="31.25" y2="70.827"/>
	
		<line fill="none" stroke="#000000" stroke-width="5.5" stroke-linecap="round" stroke-linejoin="round" stroke-miterlimit="10" x1="40" y1="15.577" x2="40" y2="76.327"/>
	
		<line fill="none" stroke="#000000" stroke-width="5.5" stroke-linecap="round" stroke-linejoin="round" stroke-miterlimit="10" x1="56.75" y1="52.577" x2="46.75" y2="77.827"/>
	
		<line fill="none" stroke="#000000" stroke-width="5.5" stroke-linecap="round" stroke-linejoin="round" stroke-miterlimit="10" x1="22.75" y1="71.577" x2="14.75" y2="19.577"/>
	
		<polyline fill="#1D1E1C" stroke="#000000" stroke-width="5.5" stroke-linecap="round" stroke-linejoin="round" stroke-miterlimit="10" points="
		20.25,74.077 15.75,68.327 18.75,80.327 	"/>
	<path fill="#000100" d="M18.5,87.577c0,0,2.769,6.314,8,6.75c6,0.5,10.5-1.25,13.75-4.25s7.25-6.75,8.75-11
		c0.424-1.202-2.25-8.75-2.25-8.75s-1.75,4.75-4.25,4.25c-0.775-0.155-3.75-7-3.75-7s-3.25,1.25-6.25-0.25
		c-1.703-0.852-5,1.75-7.5,1s-2.75,5-3.5,5s-1.25-0.25-2.5,1.5s-3.5,4.5-3.5,4.5L18.5,87.577z"/>
</g>
<g id="hand_5">
	
		<line fill="none" stroke="#000000" stroke-width="5.5" stroke-linecap="round" stroke-linejoin="round" stroke-miterlimit="10" x1="27.25" y1="7.577" x2="31.25" y2="70.827"/>
	
		<line fill="none" stroke="#000000" stroke-width="5.5" stroke-linecap="round" stroke-linejoin="round" stroke-miterlimit="10" x1="40" y1="15.577" x2="40" y2="76.327"/>
	
		<line fill="none" stroke="#000000" stroke-width="5.5" stroke-linecap="round" stroke-linejoin="round" stroke-miterlimit="10" x1="56.75" y1="52.577" x2="46.75" y2="77.827"/>
	
		<line fill="none" stroke="#000000" stroke-width="5.5" stroke-linecap="round" stroke-linejoin="round" stroke-miterlimit="10" x1="23.25" y1="73.577" x2="14.75" y2="19.077"/>
	
		<line fill="none" stroke="#000000" stroke-width="5.5" stroke-linecap="round" stroke-linejoin="round" stroke-miterlimit="10" x1="7.25" y1="48.327" x2="18.75" y2="80.327"/>
	<path fill="#000100" d="M18.5,87.577c0,0,2.769,6.314,8,6.75c6,0.5,10.5-1.25,13.75-4.25s7.25-6.75,8.75-11
		c0.424-1.202-2.25-8.75-2.25-8.75s-1.75,4.75-4.25,4.25c-0.775-0.155-3.75-7-3.75-7s-3.25,1.25-6.25-0.25
		c-1.703-0.852-5,1.75-7.5,1s-2.75,5-3.5,5s-1.25-0.25-2.5,1.5s-3.5,4.5-3.5,4.5L18.5,87.577z"/>
</g>
<path fill="#654B9F" stroke="#000100" stroke-width="2.8347" stroke-linecap="round" stroke-linejoin="round" d="M154.859,331.812
	c-4.826-3.515-21.852-10.931-31.998-13.002c-0.006,0.026-0.014,0.055-0.021,0.084c-0.104-0.026-0.209-0.063-0.312-0.084
	c-0.938,4.094-2.693,5.631-4.448,5.711c-2.646-0.153-5.159-3.484-4.722-6.287c-0.098,0.047-0.226,0.097-0.35,0.146
	c0.006-0.049,0.008-0.098,0.016-0.146c-2.782,1.34-16.499,1.91-22.899,1.707c-7.173-0.229-14.515-14.633-18.597-22.797
	c-9.067-18.137-28-185-31-196c-6,1-11.666-0.667-21.666,3.333c4-2,24.455,170.748,33,192.333c19,48,18.674,50.043,27.666,75.334
	c0.511,1.436-1.354,103.076-1.752,103.057c9.031,0.429,16.014,0.467,23.032,0.466c1.675,0,3.358-0.002,5.065-0.002
	c5.278,0.001,10.854,0.028,17.555,0.221c2.159,0.062,4.188,0.088,6.104,0.086c13.547,0.016,21.392-1.358,27.729-1.352
	c2.021,0.019,3.893,0.185,5.754,0.592c0.02-0.014,0.062-0.028,0.119-0.042c0.07,0.016,0.145,0.027,0.215,0.042
	c0.127-0.095,1.25-0.188,1.366-0.279c-2.381-4.46-10.521-62.79-13.854-97.456c-0.58-6.035,4.426,10.364,13,42.334
	c7.334,27.332,14.668,58.332,16,70.332c7.334-2.666,6.656,2.562,17.668-2.666C195.086,485.508,175.297,346.684,154.859,331.812z"/>
<g>
	<circle fill="#000100" stroke="#000100" stroke-width="3" cx="136.085" cy="239" r="2.561"/>
	<circle fill="#000100" stroke="#000100" stroke-width="3" cx="103.906" cy="239" r="2.563"/>
	<g>
		<path fill="#000100" d="M112.703,292.617c-21.593-6.004-27.079-23.225-28.519-27.51l0,0c-0.289-0.83-0.051-1.84,0.526-2.25l0,0
			c0.584-0.416,1.29-0.076,1.579,0.752l0,0c1.494,4.144,6.038,19.721,26.867,25.709l0,0c2.044,0.578,4.207,0.875,6.421,0.875l0,0
			c12.64,0,26.722-9.541,31.487-28.633l0,0c0.219-0.873,0.89-1.328,1.5-1.016l0,0c0.61,0.312,0.929,1.271,0.711,2.146l0,0
			c-5.254,20.817-20.315,30.855-33.698,30.855l0,0C117.223,293.551,114.906,293.239,112.703,292.617L112.703,292.617z"/>
	</g>
</g>
</svg>
