<?xml version="1.0" encoding="utf-8"?>
<!-- Generator: Adobe Illustrator 16.0.0, SVG Export Plug-In . SVG Version: 6.00 Build 0)  -->
<!DOCTYPE svg PUBLIC "-//W3C//DTD SVG 1.1//EN" "http://www.w3.org/Graphics/SVG/1.1/DTD/svg11.dtd">
<svg version="1.1" id="Layer_1" xmlns="http://www.w3.org/2000/svg" xmlns:xlink="http://www.w3.org/1999/xlink" x="0px" y="0px"
	 width="224.667px" height="496px" viewBox="0 0 224.667 496" enable-background="new 0 0 224.667 496" xml:space="preserve">
<circle id="colour" fill="none" stroke="#000100" stroke-width="3" stroke-miterlimit="10" cx="115.071" cy="252.499" r="58.365"/>
<g>
	<path fill="#000100" d="M176.046,283.292c0,0-0.039-0.015-0.105-0.042C176,283.301,176.039,283.318,176.046,283.292z"/>
	<path fill="#000100" d="M177.572,263.418c-0.99-1.286-1.207-4.758-0.674-5.292c4.797-6.397,10.344-9.854,5.812-18.556
		c0.029-0.714,0.049-1.43,0.053-2.147c0.004-0.537,0.58-4.292-0.104-5.476c-2.883-4.467,2.264-3.809-2.222-14.202
		c-0.317-0.865-1.19-3.333-1.552-4.205c-5.42-13.064-12.152-20.928-27.812-30.867c-0.906-0.576-14.02-18.575-53.023-11.568
		c-0.698,0.125-10.219,2.559-11.087,3.374c-2.189,2.055-2.408,0.661-10.734,5.274c-0.925,0.512-1.949,2.679-3.087,3.309
		c-2.381,1.317-2.099,1.741-6.425,7.324c-1.921,2.479-4.164,3.315-6.254,5.396c-4.293,4.272-6.486,8.748-8.731,13.903
		c-1.122,2.572-1.951,5.063-2.564,7.462c-0.204,0.8-0.384,1.59-0.545,2.369c0,0,0.438,3.538-0.095,5.137
		c-1.067,3.732-4.671,2.097-2.206,15.581c-0.846,10.564,6.947,17.559,5.408,24.4c0,0.002-0.001,0.005-0.002,0.007
		c-2.182,6.217-4.999,11.275,3.363,18.609c11.161,9.788,2.473,18.081,2.473,18.081s12.216-8.261,0-22.035
		c-5.674-6.397,0.162-16.614,0.695-17.323c0,0-0.17-1.794-0.087-4.332c0.827-2.783,1.679-5.99,1.909-6.898
		c2.075-8.164,7.047-12.109,16.828-19.257c10.18-7.439,26.95-7.364,33.741-8.693c22.246-4.354,31.552-13.149,31.552-13.149
		s-1.132,5.616-6.365,9.24c-3.459,2.395,7.67-2.289,13.975-0.509c18.367,5.185,7.417,2.486,9.549,12.792
		c0.441,2.13,5.146,2.745,7.762,2.923c-0.023,0.269-0.045,0.43-0.045,0.43c3.744,5.826,3.98,9.475,2.041,11.088
		c-5.914,4.915-5.863,9.595-0.647,15.79c0.704,0.959,1.354,1.77,1.577,2.414c-4.393,14.735,4.81,18.993,5.894,19.438
		c-0.815-0.703-5.985-8.418-2.728-13.122C173.558,269.63,177.357,264,177.572,263.418z M162.813,226.751
		c4.714-3.138,4.534,4.328,4.343,6.918C163.968,232.637,157.833,230.067,162.813,226.751z"/>
</g>
<path fill="#000100" d="M118.667,322.585c0,2.207-2.09,3.997-4.668,3.997l0,0c-2.577,0-4.667-1.79-4.667-3.997v-10.278
	c0-2.209,2.09-2.142,4.667-2.142l0,0c2.578,0,4.668-0.067,4.668,2.142V322.585z"/>
<circle fill="#000100" stroke="#000100" stroke-width="3" cx="132.085" cy="245.333" r="2.561"/>
<circle fill="#000100" stroke="#000100" stroke-width="3" cx="99.907" cy="245.333" r="2.563"/>
<g>
	<path d="M115.653,299.658c-10.189,0-18.997-5.158-25.726-11.494c-0.645-0.607-0.452-1.678,0.218-2.255
		c0.957-0.824,3.462,1.722,4.182,2.235c6.388,4.557,13.201,8.09,22.198,8.062c7.523-0.022,15.594-4.628,20.094-8.958
		c0.639-0.613,1.483-1.009,2.196-0.482c0.712,0.524,0.222,1.547-0.369,2.209c-5.081,5.684-12.37,10.418-21.821,10.67
		C116.3,299.652,115.978,299.658,115.653,299.658z"/>
</g>
<g id="frame_1">
	
		<line fill="none" stroke="#000100" stroke-width="5" stroke-linecap="round" stroke-linejoin="round" x1="28.745" y1="89.619" x2="34.898" y2="176.048"/>
	<path fill="#1D1E1C" d="M15.713,85.743c0.277,0.759,0.901,2.036,1.642,3.019c5.181,8.535,10.03,5.828,15.878,4.29
		c7.485-1.971,14.176-14.274,14.524-14.866l9.256-23.718c0.873-1.445,0.41-3.324-1.037-4.195c-1.443-0.876-3.327-0.413-4.196,1.029
		l-8.71,22.812l-1.821,0.695l-0.234-58.883c0.108-1.687-1.162-3.142-2.843-3.253c-1.009-0.068-1.922,0.356-2.535,1.073
		c-0.409,0.476-0.676,1.09-0.724,1.777l0.977,52.068c-0.023,0.385-3.365-0.142-4.028,0.132L28.984,7.741
		c-0.092-1.686-1.529-2.978-3.215-2.889c-0.876,0.044-1.644,0.451-2.165,1.067c-0.491,0.569-0.773,1.33-0.732,2.147l3.466,59.65
		c0,0-2.688,1.605-3.033,0.224l-7.406-48.474c-0.272-1.667-1.624-3.062-3.287-2.786c-0.74,0.12-1.379,0.501-1.828,1.033
		c-0.571,0.661-0.335,4.358,1.404,14.56l6.344,40.283l-1.344,1.851L7.436,47.225c-0.529-1.464-1.041-1.838-2.504-1.309
		c-0.476,0.176-0.878,0.465-1.186,0.824c-0.631,0.741-0.863,1.801-0.508,2.788l12.101,35.225c0.06,0.129,0.093,0.252,0.148,0.384
		L15.713,85.743z"/>
	<path fill="#FFC200" stroke="#000000" stroke-width="2.8347" stroke-linecap="round" stroke-linejoin="round" d="M151.333,333.666
		c-4.826-3.512-21.851-10.928-31.998-13.002c-0.006,0.029-0.016,0.055-0.021,0.084c-0.104-0.025-0.209-0.062-0.312-0.084
		c-0.938,4.094-2.694,5.632-4.449,5.712c-2.643-0.153-5.159-3.485-4.72-6.288c-0.098,0.047-0.225,0.098-0.349,0.146
		c0.006-0.049,0.007-0.1,0.015-0.146c-2.784,1.34-16.498,1.911-22.901,1.708C79.424,321.57,72.082,307.164,68,299
		c-9.067-18.135-28-185-31-196c-6,1-11.666-0.667-21.666,3.333c4-2,24.455,170.747,33,192.333c19,48,18.674,50.042,27.666,75.333
		c0.511,1.437-1.354,103.079-1.752,103.057c9.031,0.431,16.014,0.469,23.032,0.468c1.678,0,3.358-0.004,5.065-0.004
		c5.28,0.003,10.852,0.028,17.555,0.223c2.159,0.062,4.188,0.088,6.104,0.086c13.547,0.013,21.393-1.361,27.729-1.354
		c2.019,0.021,3.89,0.187,5.751,0.594c0.02-0.016,0.064-0.028,0.122-0.042c0.069,0.015,0.142,0.025,0.212,0.042
		c0.127-0.097,1.25-0.188,1.369-0.279c-2.381-4.46-10.521-68.79-13.854-103.456c-0.58-6.036,4.424,16.364,13,48.333
		C167.667,449,175.001,480,176.333,492c7.334-2.667,6.654,2.562,17.668-2.667C191.56,487.362,171.771,348.538,151.333,333.666z"/>
</g>
<g id="frame_2">
	
		<line fill="none" stroke="#000100" stroke-width="5" stroke-linecap="round" stroke-linejoin="round" x1="28.745" y1="90.285" x2="34.898" y2="176.715"/>
	<path fill="#1D1E1C" d="M15.713,86.409c0.277,0.759,0.901,2.036,1.642,3.019c5.181,8.535,10.03,5.828,15.878,4.29
		c7.485-1.971,14.176-14.274,14.524-14.866l9.256-23.718c0.873-1.445,0.41-3.324-1.037-4.195c-1.443-0.876-3.327-0.413-4.196,1.029
		L43.07,74.78l-1.821,0.695l-0.234-58.883c0.108-1.687-1.162-3.142-2.843-3.253c-1.009-0.068-1.922,0.356-2.535,1.073
		c-0.409,0.476-0.676,1.09-0.724,1.777l0.977,52.068c-0.023,0.385-3.365-0.142-4.028,0.132L28.984,8.408
		c-0.092-1.686-1.529-2.978-3.215-2.889c-0.876,0.044-1.644,0.451-2.165,1.067c-0.491,0.569-0.773,1.33-0.732,2.147l3.466,59.65
		c0,0-2.688,1.605-3.033,0.224l-7.406-48.474c-0.272-1.667-1.624-3.062-3.287-2.786c-0.74,0.12-1.379,0.501-1.828,1.033
		c-0.571,0.661-0.335,4.358,1.404,14.56l6.344,40.283l-1.344,1.851L7.436,47.892c-0.529-1.464-1.041-1.838-2.504-1.309
		c-0.476,0.176-0.878,0.465-1.186,0.824c-0.631,0.741-0.863,1.801-0.508,2.788L15.339,85.42c0.06,0.129,0.093,0.252,0.148,0.384
		L15.713,86.409z"/>
	<path fill="#1D1E1C" d="M212.277,82.532c-0.189,0.786-0.665,2.125-1.29,3.185c-4.182,9.066-9.307,6.925-15.29,6.059
		c-7.66-1.112-15.699-12.579-16.111-13.128l-11.881-22.519c-1.031-1.337-0.783-3.256,0.558-4.285
		c1.335-1.034,3.259-0.786,4.284,0.548l11.234,21.68l1.889,0.484l-6.428-58.531c-0.299-1.664,0.799-3.254,2.457-3.555
		c0.993-0.182,1.949,0.137,2.639,0.779c0.461,0.427,0.795,1.007,0.92,1.684l4.921,51.845c0.065,0.38,3.327-0.521,4.019-0.325
		l-3.928-59.921c-0.1-1.686,1.184-3.132,2.868-3.234c0.875-0.055,1.685,0.263,2.271,0.816c0.553,0.51,0.918,1.233,0.971,2.051
		l3.305,59.659c0,0,2.854,1.292,3.039-0.121l1.875-49c0.082-1.687,1.268-3.226,2.949-3.14c0.75,0.036,1.429,0.342,1.936,0.819
		c0.645,0.592,0.826,4.292,0.251,14.625l-1.745,40.742l1.547,1.687l6.611-28.111c0.359-1.515,0.827-1.944,2.34-1.584
		c0.493,0.121,0.928,0.363,1.271,0.685c0.711,0.665,1.062,1.691,0.82,2.712l-8.039,36.368c-0.045,0.135-0.062,0.261-0.104,0.398
		L212.277,82.532z"/>
	
		<line fill="none" stroke="#000100" stroke-width="5" stroke-linecap="round" stroke-linejoin="round" x1="200.444" y1="93.583" x2="197.451" y2="180.18"/>
	<path fill="#FFC200" stroke="#000000" stroke-width="2.8347" stroke-linecap="round" stroke-linejoin="round" d="M109.498,320.755
		c-2.784,1.341-13.094,1.447-19.497,1.245c-7.173-0.229-17.919-14.17-22.001-22.334c-9.067-18.135-28-185-31-196
		c-6,1-11.666-0.667-21.666,3.333c4-2,24.455,170.747,33,192.333c19,48,18.674,50.042,27.666,75.333
		c0.511,1.437-1.354,103.079-1.752,103.057c17.854,0.85,27.693,0.168,45.652,0.687c22.316,0.643,31.043-2.539,39.584-0.674
		c0.127-0.097,1.25-0.188,1.369-0.279c-2.381-4.46-2.854-63.297-2.854-98.123c0-22,15.666-45.333,22-72.667
		c17.188-74.192,25-164,31-199c-7-3-13,1-22-1c-2.441-1.971-5,182-40,213c-4.47,3.958-19.852,3.737-29.998,1.664
		C116.591,331.859,108.748,325.533,109.498,320.755z"/>
</g>
<path id="frame_0" fill="#FFC200" stroke="#000000" stroke-width="2.8347" stroke-linecap="round" stroke-linejoin="round" d="
	M108.998,321.089c-4.428,2.13-27.315,12.084-35.165,19.577c-14.666,14-27.312,148.184-29.333,150.668
	c6.643,2.277,11.896-0.311,18,2.666c1.745-4.171,3.078-32.477,7.494-55.269c6.01-31.015,13.84-59.398,13.84-59.398
	c0.441,1.458-0.756,23.357-1.334,27.333c-4.709,32.383-8.354,71.413-8.752,71.391c17.854,0.848,27.693,0.168,45.652,0.686
	c22.316,0.643,31.043-2.539,39.584-0.674c0.127-0.095,1.25-0.188,1.369-0.279c-2.381-4.46-10.52-67.789-13.854-102.455
	c-0.58-6.037,5.424,15.363,14,47.332C167.833,450,174.167,481,175.5,493c7.334-2.666,6.656,2.562,17.668-2.666
	c-2.441-1.972-22.23-137.796-42.668-152.668c-4.826-3.512-21.85-13.928-31.998-16.002
	C116.091,332.194,108.248,325.867,108.998,321.089z"/>
<path fill="#000100" d="M144.869,323.26c-3.867-6.927-10.25-14.021-10.416-14.521c-0.062,0.024-0.127,0.043-0.188,0.067
	c-1.244-0.062-9.176,0.695-10.6,1.524c-2.738,0.474-5.439,0.417-3.332,1.667c0.349,0.979,7,9.333,5.896,22.152
	c-5.276,16.766-18.208,26.3-14.896,45.848c3.333,19.667,20.043,25.154,20.667,25c0.489,0.086-14.334-16-11.334-28
	c3.531-14.125,15-17.333,19.203-19.33c6.33-3.007,11.019-9.947,11.131-17.67C151.104,333.041,148.259,329.334,144.869,323.26z"/>
</svg>
