<?xml version="1.0" encoding="utf-8"?>
<!-- Generator: Adobe Illustrator 16.0.0, SVG Export Plug-In . SVG Version: 6.00 Build 0)  -->
<!DOCTYPE svg PUBLIC "-//W3C//DTD SVG 1.1//EN" "http://www.w3.org/Graphics/SVG/1.1/DTD/svg11.dtd">
<svg version="1.1" id="Layer_1" xmlns="http://www.w3.org/2000/svg" xmlns:xlink="http://www.w3.org/1999/xlink" x="0px" y="0px"
	 width="109.167px" height="94px" viewBox="0 0 109.167 94" enable-background="new 0 0 109.167 94" xml:space="preserve">
<path fill="#FFFFFF" stroke="#000000" stroke-width="0.75" stroke-miterlimit="10" d="M62.378,9.377l0.074,64.078l24.42-1.481
	l20.511-1.63C107.384,70.344,67.312,10.397,62.378,9.377z"/>
<path fill="#FFFFFF" stroke="#000000" stroke-width="0.75" stroke-miterlimit="10" d="M57.507,9.547
	c0,0-11.227,30.618-15.819,35.381c0,0-15.989,22.624-29.768,28.236l23.984,0.681l21.294-0.107L57.507,9.547z"/>
<path stroke="#000000" stroke-width="0.75" stroke-miterlimit="10" d="M60.203,1.709c0,0,1.346,3.217,1.175,10.64
	c-0.169,7.423-0.937,66.352-0.937,66.352l-0.79-0.268C59.651,78.434,58.347,4.801,60.203,1.709z"/>
<path fill="#0071BC" stroke="#000000" stroke-width="0.75" stroke-miterlimit="10" d="M1.381,74.621c0,0,50.351,8.614,103.823,0.092
	c0,0-11.323,16.586-14.222,17.384c-2.898,0.799-74.51,0.459-74.51,0.459l-2.796-0.368C13.676,92.188,1.6,78.118,1.381,74.621z"/>
<path fill="#F15A24" stroke="#000000" stroke-width="0.5" stroke-miterlimit="10" d="M58.803,3.353
	c0.388-0.216-0.062,3.685-0.21,3.981c-0.148,0.296-2.74,1.629-4.961,1.481c-2.222-0.148-2.663-0.899-5.181-0.899
	c-2.518,0-5.302,1.994-4.816,0.359c1.187-3.988-2.132-7.455,0-5.605c2.224,1.929,5.839,0.047,8.652,0.27
	C55.102,3.16,55.471,5.204,58.803,3.353z"/>
</svg>
