<?xml version="1.0" encoding="utf-8"?>
<!-- Generator: Adobe Illustrator 16.0.0, SVG Export Plug-In . SVG Version: 6.00 Build 0)  -->
<!DOCTYPE svg PUBLIC "-//W3C//DTD SVG 1.1//EN" "http://www.w3.org/Graphics/SVG/1.1/DTD/svg11.dtd">
<svg version="1.1" id="Cupcakes" xmlns="http://www.w3.org/2000/svg" xmlns:xlink="http://www.w3.org/1999/xlink" x="0px" y="0px"
	 width="311.5px" height="370.5px" viewBox="0 0 311.5 370.5" enable-background="new 0 0 311.5 370.5" xml:space="preserve">
<path fill="#D0A68C" stroke="#000000" stroke-width="2" stroke-miterlimit="10" d="M271.164,175.075
	c-3.088-0.617-6.036-0.926-9.16-1.02c-168.91-6.355-240.049,4.238-240.049,4.238c-16.918,7.951-17.667,29.875-17.667,29.875
	c1.689,4.096,3.128,6.83,5.675,10.404c1.559,5.984,293.633,0.207,293.896-2.119c4.363-8.01,6.237-17.506,1.09-25.289
	C298.178,180.933,282.443,177.329,271.164,175.075z"/>
<path fill="#A3694A" d="M225.105,154.472c-46.537-4.627-94.15-6.523-140.918-6.227c-18.068,0.113-39.894,0.832-54.32,13.23
	c-13.366,11.486-22.283,35.248-14.181,52.164c6.591,13.754,17.624,22.312,30.262,29.135c13.71,7.4,39.823,14.318,55.78,15.132
	c37.676,5.104,80.12,5.364,116.694-4.087c15.23-3.938,28.096-8.17,43.137-12.713c8.28-2.5,22.471-9.733,28.73-16.356
	c0.884-0.938,5.602-3.822,6.23-4.981c7.505-13.875-2.477-37.586-12.262-48.132C269.746,155.985,245.295,156.479,225.105,154.472z"/>
<path fill="#724422" d="M225.105,154.472c-46.537-4.627-94.15-6.523-140.918-6.227c-18.068,0.113-43.76-1.978-58.188,10.421
	c-26.863,23.086,2.206,43.777,26.035,54.016c17.91,7.689,44.04,13.297,64.631,15.317c21.024,2.063,43.077,3.121,65.334,2.667
	c32.667-0.666,69.334-17.334,68.666-4.667c-10,12.667-4.007,19.606,10.894,15.106c8.28-2.5,22.471-9.733,28.73-16.356
	c0.884-0.938,5.602-3.822,6.23-4.981c7.505-13.875-2.477-37.586-12.262-48.132C269.746,155.985,245.295,156.479,225.105,154.472z"/>
<path fill="#F6DFD8" stroke="#231F20" stroke-width="2" stroke-linecap="round" stroke-linejoin="round" stroke-miterlimit="10" d="
	M299.812,210.941c-5.146,4.33-7.336,1.349-12.011-2.016c-0.276,5.168,2.289,15.156-3.245,17.092
	c-6.328,2.213-16.857-10.002-21.021-6.387c-1.587,1.379,0.044,7.609-0.324,9.682c-0.776,4.431-3.188,5.715-7.838,5.463
	c-4.714-0.258-8.006-1.907-12.147-4.237c-2.854-1.606-5.893-5.131-9.455-4.356c-0.315,5.983,0.883,12.7-0.592,18.489
	c-8.109,0.771-11.318-6.104-17.107-10.187c-3.811-2.686-9.141-3.866-10.068,1.604c-0.699,4.106,2.467,10.556-1.14,12.646
	c-11.038,6.396-13.253-18.387-22.845-8.127c-4.342,4.641-3.613,15.014-12.614,9.002c-4.683-3.129-10.147-13.062-15.256-9.467
	c-4.204,2.959-3.411,10.278-9.456,10.52c-7.264,0.283-13.815-9.885-18.555-14.045c-5.44-4.77-8.27-0.725-13.139,3.943
	c-2.566,2.463-4.037,5.002-7.173,3.891c-5.053-1.791-6.761-10.977-11.579-12.615c-6.563-2.234-9.652,10.992-15.857,10.199
	c-8.042-1.027-6.758-19.754-16.315-16.854c-7.022,2.131-9.229,13.19-15.448,3.233c-1.788-2.86-3.4-10.799-6.334-12.349
	c-3.08-1.625-7.525,3.244-10.021,4.729c-10.396,6.187-6.801-4.639-9.148-11.475c-2.727-7.933-7.228,2.661-12.217,0.475
	c-0.936-0.41-1.48-1.516-1.783-2.959c-0.759-3.614,0.001-9.364,0.001-11.68c-5.448,8.563-3.173,18.096-0.606,24.307
	c12.271,29.703,48.828,112.004,55.186,124.269C164,393,253,345,253,345c18.221-39.127,34.215-79.105,49.566-119.482
	c2.243-5.896,6.599-17.986,5.274-24.47C304.016,202.503,302.734,208.484,299.812,210.941z"/>
<g>
	<path fill="#EAD0C5" d="M100.094,254.364c-0.635-3.229-1.143-15.646-3.678-16.339c-8.133-2.237-3.861,20.07-3.587,23.593
		c1.588,20.375,4.743,53.043,6.835,73.344c1,9.707,2.139,22.802,6.496,20.736c3.389,0.065,0.967-18.229,0.281-25.529
		C105.738,322.7,101.793,262.997,100.094,254.364z"/>
	<path fill="#EAD0C5" d="M114.861,271.134c0.182,11.228,1.906,40.205,1.859,54.125c-0.037,10.75-1.791,36.502,7.172,34.142
		c4.537,0.817-2.156-112.408-2.24-119.154C111.216,244.872,114.557,252.327,114.861,271.134z"/>
	<path fill="#EAD0C5" d="M162.021,250.632c-0.627-3.555-1.905-6.625-4.588-4.723c-2.293,1.625-1.062,6.383-1.185,8.752
		c-0.299,5.668-0.699,11.321-0.857,17.002c-0.328,11.795-0.109,23.604,0.068,35.399c0.098,6.455,0.191,12.912,0.188,19.369
		c-0.002,6.697-0.098,13.4-0.385,20.09c-0.193,4.492-2.067,12.084,0.703,16.064c3.281,4.713,5.341,0.633,5.658-3.389
		c0.776-9.826,0.592-19.832,0.699-29.682c0.183-16.427,0.204-32.854,0.342-49.279c0.062-7.396,0.422-14.81,0.004-22.197
		C162.619,257.15,162.566,253.708,162.021,250.632z"/>
	<path fill="#EAD0C5" d="M270.27,229.439c-3.144,5.854-16.963,89.314-19.653,101.59c-0.244,1.119-1.367,6.035,0.623,6.677
		c1.95,0.627,4.456-11.75,4.924-13.744c3.397-14.483,14.831-64.307,16.608-72.916c1.386-6.709,4.285-15.104,2.144-21.871
		C273.855,225.827,271.643,226.889,270.27,229.439z"/>
	<path fill="#EAD0C5" d="M67.578,282.966c-2.523-14.539-3.191-30.084-7.227-44.26c-0.59-2.07-1.595-6.097-4.882-4.244
		c-3.279,1.847,1.999,20.813,2.459,23.795c3.827,24.773,7.251,49.617,11.991,74.238c0.238,1.246-0.19,10.104,3.4,7.084
		c1.168-0.979,0.04-4.752-0.099-5.996C71.338,316.816,70.464,299.575,67.578,282.966z"/>
	<path fill="#EAD0C5" d="M214.121,235.874c-0.504,19.862-6.24,100.274-5.952,106.012c0.341,6.746,1.169,12.613,6.302,10.949
		c1.107-14.625,9.116-107.646,6.111-112.451C219.9,239.296,217.184,236.671,214.121,235.874z"/>
	<path fill="#EAD0C5" d="M237.09,242.245c0.229,11.771-6.634,8.965-6.634,8.965s-10.37,99.451-5.222,97.041
		c3.795-1.776,16.061-105.041,15.104-111.726C238.246,232.857,236.996,237.466,237.09,242.245z"/>
	<path fill="#EAD0C5" d="M188.543,243.63c-0.249,24.5-0.438,81.541-0.438,91.58c0,6.302-1.123,25.674,6.525,23.545
		c1.102-21.239,2.498-97.291,1.532-102.055C195.457,253.223,193.713,246.499,188.543,243.63z"/>
	<path fill="#EAD0C5" d="M175.116,255.516c-2.999,3.245-2.255,19.625-2.206,26.102c0.068,9.809-2.293,103.064,4.953,77.08
		c1.77-4.924,1.805-70.051,1.801-80.912C179.66,270.923,179.613,250.018,175.116,255.516z"/>
	<path fill="#EAD0C5" d="M253.295,238.986c-3.909-0.721-5.352-2.784-5.352-2.784c-1.01,7.028-10.223,89.478-11.047,97.575
		c-0.168,1.654-0.01,4.875,1.724,4.904c1.735,0.025,2.435-5.748,3.019-8.414c0.803-3.656,15.912-74.932,18.937-92.406
		C258.725,239.206,257.203,239.708,253.295,238.986z"/>
	<path fill="#EAD0C5" d="M135.264,250.318c-0.127,1.392-0.201,84.505-0.201,95.695c0,3.799,0.329,14.93,0.329,14.93
		s7.745,4.75,8.063-11.213c0.361-18.219,0.54-36.442,0.664-54.664c0.066-10.887,0.883-22.504-0.917-33.299
		C142.43,257.141,139.52,252.585,135.264,250.318z"/>
	<path fill="#EAD0C5" d="M85.043,273.405c-0.861-10.435-0.266-15.664-0.91-27.781c-2.004,2.584-2.926,3.914-7.445,3.321
		c-3.056-0.397-6-1.729-7.25-7.926c-2.693-4.725,1.373,12.17,2.049,17.845c1.128,9.473,2.338,15.432,3.969,26.372
		c1.014,6.806,2.955,24.488,4.061,30.359c0.871,4.629,2.462,39.019,9.943,34.15c0.145-6.162-1.418-33.939-1.887-39.684
		C86.697,299.343,86.359,289.37,85.043,273.405z"/>
	<path fill="#EAD0C5" d="M45.198,242.271c-2.354-8.965-2.364-14.567-6.995-19.487c-3.733-3.966-5.496,2.248-4.527,10.248
		c0.658,5.409,16.357,55.741,17.988,63.569C53.209,304.011,60.897,330.406,64,332c1.458,0.748,2.123,5.604,2.652,4.46
		c1.483-3.201-4.305-19.489-5.074-24.164C60.684,306.859,47.529,251.141,45.198,242.271z"/>
	<path fill="#EAD0C5" d="M36.941,272.423c-3.123-8.481-5.371-13.225-8.316-21.856c-1.42-4.158-2.732-8.359-4.162-12.449
		c-1.732-4.949-2.891-10.492-4.295-15.521c-0.688-2.467,0.072-9.02-2.439-10.414c-3.692-2.045-5.441,3.912-5.047,6.324
		c0.973,5.957,4.011,12.027,5.446,18c2.259,9.393,6.249,18.217,10.421,26.887c2.705,5.619,5.279,11.269,7.811,16.972
		c0.939,2.071,7.098,11.141,5.217,4.881C41.536,285.21,37.4,273.673,36.941,272.423z"/>
	<path fill="#EAD0C5" d="M294.93,216.28c-3.953,1.256-7.145,11.346-8.769,16.838c-4.54,15.338-8.228,30.133-13.923,45.131
		c-1.012,2.664-9.285,19.209-3.694,19.688c0.028,0.002,21.793-53.346,24.495-60.162C294.316,234.552,306.248,212.682,294.93,216.28z
		"/>
</g>
<path fill="#66DFFF" stroke="#000000" stroke-width="2" stroke-miterlimit="10" d="M262.309,119.548
	c17.614-35.154-48.33-52.54-48.33-52.54c1.484-44.046-49.465-40.952-49.465-40.952C74.43,17.917,73.93,84.872,73.93,84.872
	c-24.484,0-49.967,31.264-35.727,45.596c-39.35,11.262-19.862,54.607-19.862,54.607c88.813,65.522,247.966,38.252,271.325,1.021
	C321.145,135.933,262.309,119.548,262.309,119.548z"/>
<g opacity="0.2">
	<path fill="#141414" d="M194.866,32.196c0,0,31.331,31.567-51.866,52.804c-4.748,1.213-23.6,2.87-21.85,6.368
		c0,0,53.465,2.998,92.829-24.36C213.979,67.008,217.088,43.15,194.866,32.196z"/>
	<path fill="#141414" d="M254.564,101.612c-7.994,13.074-15.74,32.979-129.417,39.975c-3.707,0.229-8.495-0.75-10.102,3.229
		c0,0,108.287,13.01,148.013-25.465c0,0,7.743-16.24-5.236-28.798C257.822,90.553,258.006,95.985,254.564,101.612z"/>
	<path fill="#141414" d="M201.35,206.294c-43.565,5.283-89.015,4.274-131.421-7.912c-10.73-3.086-21.708-8.297-28.459-17.527
		c-5.629-7.695-9.494-17.662-6.236-27.061c2.917-8.428,11.658-17.316,20.459-19.078c-7.494-3.498-8.559-5.047-9.618-6.371
		c-2.632-3.285-3.685-6.635-4.356-10.813c-1.043-6.48,1.375-13.518,3.606-19.539c0,0-6.194,7.518-6.745,8.244
		c-3.172,4.174-6.467,11.611-4.89,17.145c0.672,2.359,3.016,5.465,3.016,5.465c-2.498,1.25-9.476,5.602-10.678,6.529
		C10.304,147.505,10.666,167,17.591,184.56c0,0,9.661,13.334,34.409,23.94c14,6,32.48,9.117,46.334,11.5
		c59.583,10.238,92.521,3.782,92.521,3.782c45.722-4.246,71.205-16.738,71.205-16.738c24.481-10.992,29.729-23.982,29.729-23.982
		c12.492-20.99,4.497-37.729,4.497-37.729C281.547,193.052,201.35,206.294,201.35,206.294z"/>
</g>
<g>
	<path fill="#C00E40" stroke="#000000" stroke-miterlimit="10" d="M163.352,20.035C157.398,10.04,135.037,3.606,111,16.667
		C105.006,19.923,96.188,21.214,90.333,28C76.207,44.373,89,68.667,89,68.667C93.045,71.865,117,80,134.5,75.5
		c27.918-7.179,35.527-22.195,35.527-22.195S171.667,34,163.352,20.035z"/>
</g>
<path fill="#EB618A" d="M157.369,16.957c-1.926-1.605-4.188-3.309-6.535-4.222c-1.65-0.641-7.172-0.66-5.377,2.426
	c0.093,0.155,0.201,0.32,0.333,0.494c1.806,2.396,5.667,0.983,7.787,3.396c2.337,2.661,3.47,7.322,1.513,10.485
	c-1.201,1.941-2.893,4.562,0.175,5.642c1.598,0.562,5.241-0.411,6.338-1.639c1.699-1.899,1.095-5.889,0.803-8.151
	C161.959,21.906,160.008,19.157,157.369,16.957z"/>
<path fill="#991129" d="M126.333,24c-0.303-1.429,0.145-3.324-0.963-4.862c-1.542-2.143-4.066-0.637-5.729,0.308
	c-1.06,0.604-2.371,0.801-3.581,0.687c-1.086-0.103-1.781-0.833-3.004-0.614c-1.965,0.353-4.146,1.944-4.451,4.026
	c2.673-0.541,3.71,0.099,4.043,0.424c1.866,1.822-5.674,5.012-1.085,8.947c1.104-1.174,2.306-2.301,3.752-3.042
	c1.153-0.591,2.479-1.122,3.798-0.96c1.42,0.173,2.04,1.393,3.005,2.264c1.32,1.19,3.298,1.577,4.972,0.984
	C131.875,30.466,131.326,23.636,126.333,24z"/>
<path fill="#A36A39" stroke="#231F20" stroke-miterlimit="10" d="M117.667,24.667L115,14c0,0-6.616-6.955-4-9.333
	c7.333-6.667,8.616,4.372,9.769,7.173c1.35,3.28,0.898,14.16,0.898,14.16L117.667,24.667z"/>
</svg>
