<?xml version="1.0" encoding="utf-8"?>
<!-- Generator: Adobe Illustrator 16.0.0, SVG Export Plug-In . SVG Version: 6.00 Build 0)  -->
<!DOCTYPE svg PUBLIC "-//W3C//DTD SVG 1.1//EN" "http://www.w3.org/Graphics/SVG/1.1/DTD/svg11.dtd">
<svg version="1.1" id="Layer_1" xmlns="http://www.w3.org/2000/svg" xmlns:xlink="http://www.w3.org/1999/xlink" x="0px" y="0px"
	 width="232px" height="431.333px" viewBox="0 0 232 431.333" enable-background="new 0 0 232 431.333" xml:space="preserve">
<path fill="#AED63E" stroke="#000000" stroke-width="1.4173" stroke-linecap="round" stroke-linejoin="round" stroke-miterlimit="10" d="
	M77.846,123.896l139.198-18.621c0,0,6.762-2.07,8.623-0.442c2.233,1.954,1.5,14.5,1.5,14.5l-0.321,263.509
	c0,0-0.541,5.942-2.179,7.991c-1.94,2.426-9.94,5.23-9.94,5.23L86.682,425.905c0,0-7.067,2.405-8.836,0.991
	c-1.574-1.259,0-8.063,0-8.063"/>
<path fill="#A3C138" stroke="#000000" stroke-width="1.4173" stroke-linecap="round" stroke-linejoin="round" stroke-miterlimit="10" d="
	M77.846,426.964l-63.499-43.889c0,0-2.854-2.906-3.501-4.111c-1.789-3.334-1.282-14.135-1.282-14.135L4.846,111.964l73,12"/>
<path fill="#AED63E" stroke="#000000" stroke-width="1.4173" stroke-linecap="round" stroke-linejoin="round" stroke-miterlimit="10" d="
	M223.846,103.896c0,0-1.853,0.893-9.295,2.247c-16.613,3.022-46.131,7.847-63.384,10.69c-15.213,2.507-61.497,6.537-61.497,6.537
	s-9.757,1.544-11.503,3.963c-6.09,8.438-7.907,13.376-16.515,27.594c-7.055,11.652-15.492,21.581-19.485,26.906c-3,4-9-0.5-11-5
	c-7.065-15.896-21.983-46.727-26.5-58.5c-0.993-2.587-0.88-5.778,0.5-7c3.276-2.901,19.5-4,19.5-4s66.124-7.255,91-10.5
	c11.5-1.5,36.492-4.02,40.179-3.938c2.606,0.058,10.303,1.597,10.303,1.597L223.846,103.896z"/>
<path fill="#DBE8A6" d="M33.667,179.833c0,0-1.506-40.252-1-53.5c0.364-9.516,9.333-9,9.333-9s56.267-9.438,74-12
	c45.665-6.599,62.667-8.5,62.667-8.5l12.5,2.5c0,0-32.324,3.172-66.065,8.58c-36.935,5.92-73.351,10.863-76.435,12.92
	c-1.858,1.238-4.483,1.824-5,7.5c-1.771,19.448-2,52.5-2,52.5s0,2.833-3,2C35.857,182.053,33.667,179.833,33.667,179.833z"/>
<ellipse transform="matrix(0.9994 -0.0343 0.0343 0.9994 -3.7373 1.8589)" fill="#D6D7D8" stroke="#96B57C" stroke-miterlimit="10" cx="52.254" cy="109.743" rx="12.912" ry="4.411"/>
<path opacity="0.1" d="M75.667,128.333c0,0-47.123-4.554-63.667-12.461c-9.672-4.623-8.502-0.452-8.502-0.452
	S21,158.523,31.843,177.256c1.32,2.28,5.146,10.586,11.323,3.577C55.887,166.403,75.667,128.333,75.667,128.333z"/>
<path opacity="0.1" d="M42.167,183.333c4-1.5,24-28,27-35s8.5-16,8.5-16v-6.5L61.54,154.954L42.167,183.333z"/>
<path opacity="0.1" d="M32.698,180.718c-2.531-1.885-17.572-29.91-19.976-37.137s-7.131-16.655-7.131-16.655l-0.456-6.478
	l13.633,30.369L32.698,180.718z"/>
<path fill="#FF5B00" d="M226.667,109.333c0,0-13.009,62.178-72,127.333C110,286,78.167,291.833,78.167,291.833l-0.5,129.5
	c0,0-1.333,5.501,3.667,5.001c2.611-0.261,38.684-9.103,72.333-17C184.453,402.108,215.333,395,218,394
	c3.31-1.241,8.667-1.999,8-16.333C225.208,360.656,226.667,109.333,226.667,109.333z"/>
<path fill="#FEE72B" d="M222.667,208.407c0,33.968-26.938,64.395-60.167,67.965s-60.167-21.07-60.167-55.036
	s26.937-64.394,60.167-67.964S222.667,174.441,222.667,208.407z"/>
<path fill="#E85105" d="M77.333,291.666c-0.667,2-25.887,7.031-43.333,2.334c-17.333-4.667-25.333-11.334-25.333-11.334l2,84.668
	c0,0-1.677,6.477,1.667,12c1.455,2.403,4.23,4.776,7.667,7c4.25,2.75,12.07,7.98,20.333,13.666C58.39,412.425,78,426,78,426
	L77.333,291.666z"/>
<line fill="none" stroke="#82960E" stroke-width="1.4173" stroke-linecap="round" stroke-linejoin="round" stroke-miterlimit="10" x1="78" y1="129" x2="78" y2="291.667"/>
<line fill="none" stroke="#DD4A00" stroke-width="1.4173" stroke-miterlimit="10" x1="78" y1="292" x2="78" y2="425.104"/>
<path opacity="0.1" d="M40.167,110.833c3.61,3.974,19.75-3.5,21-4.5s-9.75,1.5-14.75,0.75S38.941,109.484,40.167,110.833z"/>
<linearGradient id="SVGID_1_" gradientUnits="userSpaceOnUse" x1="-15.6968" y1="-51.8994" x2="9.0605" y2="-51.8994" gradientTransform="matrix(0.9831 -0.1833 0.1833 0.9831 50.0469 108.8793)">
	<stop  offset="0" style="stop-color:#FFFFFF"/>
	<stop  offset="0.5572" style="stop-color:#FCFBFC"/>
	<stop  offset="0.9325" style="stop-color:#F6F4F7"/>
</linearGradient>
<path fill="url(#SVGID_1_)" stroke="#000000" stroke-width="0.9921" stroke-miterlimit="10" d="M59.135,109.665
	c0.102,0.55-1.802,1.669-5.506,2.131c-7.259,0.905-7.799-2.642-7.9-3.19L33.333,34c0,0-1.026-5.26-1.481-6.106
	c-0.414-0.771-2.655-3.085-2.655-3.085c-0.101-0.546-12.138-10.149-11.591-10.252c0,0-2.219-1.829-1.61-4.574
	c0.473-2.129,1.439-3.061,3.05-4.269c2.439-1.829,6.621,1.62,6.621,1.62c0.548-0.1,14.565,12.453,14.667,13
	c0,0,2.25,1.559,2.667,2.333c0.557,1.032,1.333,6.667,1.333,6.667L59.135,109.665z"/>
<path fill="none" stroke="#FF0000" stroke-width="1.4173" stroke-linecap="round" stroke-linejoin="round" stroke-miterlimit="10" d="
	M19.833,6.333l15.573,12.581c0,0,2.591,2.583,3.594,3.086c0.667,0.334,0.357,2.997,1.333,3.334c0.711,0.246,0.873,3.962,0.873,3.962
	l13.96,81.287"/>
<path opacity="0.1" d="M16.333,9.666c0,0,18.833,13.334,19.5,18.334S51,112,51,112s-3.544-0.718-4.333-1.5
	c-0.517-0.513-0.833-2.5-0.833-2.5L32.5,29.333c0,0-1.667-3.667-5-6.167s-8.126-6.744-10.5-9.333
	C15.167,11.833,16.333,9.666,16.333,9.666z"/>
<path fill="none" stroke="#4A88C7" stroke-width="1.4173" stroke-linecap="round" stroke-linejoin="round" stroke-miterlimit="10" d="
	M50.417,111.083L36.333,31.667c0,0,0.587-4.54-1-5.333c-0.667-0.333-1.576-1.239-2-2c-0.519-0.931-3.133-2.888-3.133-2.888
	L16.833,9.666"/>
<path opacity="0.4" d="M45.417,110.333c1.25,2,4.083,3.5,10.417,2.333c0.707-0.13,6.092-1.648,5.583-3.583
	c-0.417-1.583-3-1.55-3-1.75c0-0.583,1.002,2.474,0.128,3.062c-1.526,1.026-3.168,1.259-6.378,1.438
	C47.667,112.083,44.451,108.787,45.417,110.333z"/>
<path opacity="0.9" fill="#589122" d="M193.167,98.833c0,0-123.5,17-130,18.5s-20,2-20,11c0,19.007-1,53.5-1,53.5
	s2.503-53.582,4.5-56.5c1.559-2.278,19.069-7.211,28.5-8.5C117.369,111.064,193.167,98.833,193.167,98.833z"/>
</svg>
