<?xml version="1.0" encoding="utf-8"?>
<!-- Generator: Adobe Illustrator 16.0.0, SVG Export Plug-In . SVG Version: 6.00 Build 0)  -->
<!DOCTYPE svg PUBLIC "-//W3C//DTD SVG 1.1//EN" "http://www.w3.org/Graphics/SVG/1.1/DTD/svg11.dtd">
<svg version="1.1" id="Layer_1" xmlns="http://www.w3.org/2000/svg" xmlns:xlink="http://www.w3.org/1999/xlink" x="0px" y="0px"
	 width="764.961px" height="920.954px" viewBox="0 0 764.961 920.954" enable-background="new 0 0 764.961 920.954"
	 xml:space="preserve">
<path fill="#21222B" stroke="#000000" stroke-width="3" stroke-miterlimit="10" d="M255.295,195.09
	c6.781-13.769,13.771-23.937,20.127-36.224c-26.27-52.324-36.648-95.751-6.99-117.995c58.255-43.639,92.15-36.859,122.23-19.489
	c12.076,7.204,20.123,14.618,25.42,21.82c10.377-2.331,21.395-3.389,32.623-2.965c52.115,1.059,88.127,16.311,114.814,32.199
	c6.143,3.602,11.652,7.415,16.738,11.44c50.414-5.084,92.783,0.635,114.604,32.412c30.502,44.274,28.387,90.454,0,112.698
	c-16.104,12.499-31.984,16.1-54.018,19.702c1.908,27.539,2.326,49.993-6.145,73.295c-6.355,17.159-23.727,40.039-38.979,50.844
	c-16.102,11.226-37.283,18.004-65.459,20.337c3.18,3.388,6.355,6.775,8.896,11.013c28.389,1.695,63.977,15.042,81.561,56.352
	c24.572,58.468,62.699,105.923,107.189,171.587c49.994,73.51,35.375,129.221-37.07,141.721
	c-11.654,62.072-30.721,105.074-59.953,122.445c-39.822,23.516-70.545,19.486-95.748-18.643
	c-20.551-14.619-36.438-30.295-48.094-47.027c-60.797,32.408-159.085,26.691-223.272-22.67
	c-42.369,13.137-73.723,22.244-94.27,21.818c-25.844,15.891-54.232,22.67-79.651,8.051c-38.13-22.24-66.731-68.002-76.897-148.498
	c-4.447-36.863,0.636-69.062,30.293-84.525c-12.076-13.348-20.759-27.33-25.207-42.58c-8.688-28.596-1.482-46.605,20.547-54.018
	c37.074-6.568,74.145-13.137,111.215-19.914c19.279-3.389,35.588-9.957,45.121-23.727c16.947-24.575,42.795-39.403,71.18-55.924
	c14.828-8.477,27.327-12.076,37.705-10.172c3.816-3.387,7.838-6.564,11.863-9.952c0.848,0,1.486,0,2.331,0
	c-6.568-5.298-12.712-11.654-17.581-18.854c-1.486-0.214-1.061-0.425-2.543-0.425C231.361,331.938,215.685,274.53,255.295,195.09
	L255.295,195.09z M568.18,579.366c3.18,16.314,4.873,34.744,2.121,58.684c-0.213,1.902,9.107-3.178,20.123-5.299
	C585.551,611.569,578.776,592.926,568.18,579.366L568.18,579.366z M205.514,707.104c-8.471-33.893-9.531-70.963-4.023-109.518
	c-19.701,9.109-41.943,16.521-69.061,21.184c16.945,21.818,28.387,47.873,34.53,78.588
	C179.884,700.536,192.595,703.713,205.514,707.104z"/>
<g>
	<path fill="#A56F17" stroke="#000000" stroke-width="0.7087" stroke-miterlimit="10" d="M522,742.059
		c1.484,22.033,4.236,39.824,2.754,55.926c-2.328,25.211-6.355,46.18,6.355,72.232c-22.033-16.52-31.984-29.65-43.428-43.426
		C474.127,778.286,487.045,751.168,522,742.059L522,742.059z M554.2,654.145c-16.734,12.498-32.41,62.918-27.326,108.885
		c6.145,56.35-12.498,65.459,11.018,114.184c24.783,38.133,64.395,41.73,99.352,11.016c51.477-45.334,62.705-148.922,42.369-213.32
		c-9.109-29.021-32.836-38.766-61.648-38.135C598.264,636.987,577.293,636.987,554.2,654.145L554.2,654.145z M15.706,670.67
		c-1.462-93.17,104.457-65.711,113.971-48.51c28.511,51.543,45.121,104.648,41.099,168.619c2.965-29.021,2.753-60.373-2.333-90.451
		c11.441,3.18,26.905,7.627,38.344,10.592c8.898,32.836,26.689,65.246,56.772,95.535c-27.75,9.115-76.896,20.125-93.846,17.797
		c-20.97,15.678-51.266,25.842-74.354,13.77c-17.584-9.32-37.283-29.232-49.782-53.385C28.843,751.805,21.004,724.901,15.706,670.67
		L15.706,670.67z M301.479,401.209c-10.594-1.061-31.353,7.203-51.478,20.547c-17.584,11.866-38.343,23.728-50.842,43.006
		c-10.594,16.521-25.42,22.664-44.486,26.689c-32.623,6.146-65.033,13.771-97.869,18.008c-31.353,4.027-43.216,18.854-38.346,43.852
		c3.604,18.43,12.711,37.707,27.965,51.266c34.105-13.982,69.059-5.299,84.735,12.072c30.083-5.932,55.712-15.252,71.813-26.691
		C217.802,516.874,244.492,448.449,301.479,401.209L301.479,401.209z M539.797,410.321c-23.727,24.786-26.479,78.377,23.723,153.154
		c13.562,20.338,24.998,42.795,30.934,68.85c56.982-7.412,81.555,11.018,88.967,42.795c6.357,27.75,9.746,61.01,8.053,94.053
		c31.777-2.115,97.023-37.283,39.828-122.865c-38.979-58.465-77.957-109.941-113.758-183.451
		C591.276,409.257,544.459,409.895,539.797,410.321L539.797,410.321z M594.028,90.229c10.592,12.923,18.854,27.117,25.416,42.581
		c24.998,1.059,48.301,9.109,62.92,49.782c-6.568-15.464-14.826-26.267-23.941-33.471c7.633,16.735,2.334,33.684-3.178,50.63
		c4.873-17.583,8.264-34.953,0.852-52.536c-10.592-7.625-22.457-10.803-35.375-11.016c12.918,32.835,18.004,70.755,20.336,110.58
		c39.824-8.473,83.25-19.488,71.809-80.499C698.885,90.866,646.776,84.299,594.028,90.229L594.028,90.229z M277.752,154.841
		c24.359-36.437,48.936-65.671,75.205-85.16c-8.264-6.354-21.61-14.829-36.651-16.312c-20.124,11.651-26.691,38.131-22.664,55.714
		c-2.333-15.676-1.695-39.613,17.581-55.079c-6.989-1.483-17.371,1.484-26.479,4.025c23.937-11.862,48.935-7.838,71.811,9.11
		c18.011-12.499,36.651-20.761,56.776-23.302c-27.117-27.751-56.35-40.25-88.973-28.81c-19.067,6.354-37.283,15.251-52.112,28.174
		c-14.828,12.922-19.276,30.505-14.828,56.772C260.381,117.557,267.793,136.622,277.752,154.841L277.752,154.841z M298.725,365.196
		c-81.771-47.239-74.57-112.697-20.973-205.272c36.437-62.703,73.932-102.318,137.696-113.756
		c57.41-10.381,111.639,5.93,163.328,38.977c39.822,25.634,56.559,95.329,59.947,163.329c2.334,50.629-9.959,82.406-27.324,103.378
		c-35.594,42.581-97.873,37.282-138.121,39.403c27.33-17.16,34.742-29.023,37.494-45.971c7.412-44.485-38.129-74.355-72.445-77.956
		c-16.314-2.543-68.636-9.533-84.948-11.863C335.16,252.71,243.859,260.125,298.725,365.196z"/>
	<path fill="#A56F17" stroke="#000000" stroke-width="0.7087" stroke-miterlimit="10" d="M320.121,389.346
		c-96.599,83.887-142.57,210.781-103.379,336.824c32.623,105.92,157.184,139.812,267.764,101.047
		c-16.102-52.748-0.633-79.863,36.438-90.881c4.021-49.781,15.465-83.676,47.662-97.443c4.234-24.996,2.965-50.633-7.414-74.354
		c-48.299-68.215-48.086-122.022-24.359-158.46c-4.027-5.931-7.205-8.048-10.809-12.499c-18.643,1.908-39.398,1.486-55.5,0
		c-0.213,0-0.426,0-0.639,0C415.448,419.851,358.462,415.826,320.121,389.346z"/>
</g>
<path fill="#D7D9DA" d="M387.694,425.147c-27.75-11.438-55.287-9.747-82.827,0.848C174.373,531.28,184.967,882.93,426.672,789.297
	c118.631-45.967,34.957-211.201,20.125-293.605C437.688,445.696,425.403,444.426,387.694,425.147z"/>
<path fill="#CBCFD3" d="M655.245,667.495c-11.223-5.512-23.088-4.873-35.162-4.873c-26.691-0.426-53.172,9.953-61.223,45.965
	c-9.109,40.043,4.24,243.193,76.688,156.553c27.537-33.049,30.926-80.502,30.926-121.383
	C666.473,734.647,670.077,679.78,655.245,667.495z"/>
<path fill="#CBCFD3" d="M103.197,633.387c-26.693-13.561-64.401-3.814-71.177,23.51c-8.476,35.17,8.258,74.779,16.521,108.254
	c5.931,23.301,42.581,74.564,70.331,69.904c38.131-6.143,12.924-97.441,12.924-117.779c0-22.031-2.545-38.979-9.111-59.104
	C121.413,654.358,113.574,638.467,103.197,633.387z"/>
<path fill="#F1EAE3" d="M306.141,267.962c0.209,0,0.209,0,0.209,0c0-0.211,0.214-0.211,0.214-0.211
	c0.422-0.212,0.635-0.424,0.848-0.636h0.213l0,0c11.647-7.415,27.75-11.228,48.299-10.804c32.835,0.848,58.677,4.237,86.853,12.922
	c4.447,1.271,8.684,2.754,12.924,4.448c5.08,5.297,7.838,10.805,7.414,16.735c-1.271,19.702-38.768,33.259-83.465,30.294
	c-40.461-2.967-73.084-18.431-77.957-36.225c-14.404,19.276-16.524,52.959,11.862,95.113c-6.78-6.353-12.498-13.98-16.102-22.453
	C279.022,315.203,283.048,283.85,306.141,267.962L306.141,267.962z"/>
<path fill="#DECFC3" d="M487.684,292.748c11.441,10.592,19.279,25.209,20.338,45.758c0.844,15.252-10.166,27.751-20.338,38.13
	c-33.682,34.955-112.485,41.733-159.302,13.98c69.271,21.609,133.035,6.994,154.003-40.672
	C489.167,334.692,502.303,315.838,487.684,292.748L487.684,292.748z"/>
<path opacity="0.1" enable-background="new    " d="M624.083,141.248c13.137,0,22.883,3.178,34.104,10.803
	c12.293,31.141-4.234,58.892-14.824,73.297C638.276,198.021,632.772,164.974,624.083,141.248L624.083,141.248z M301.666,130.021
	c17.159-22.667,34.74-41.309,53.17-55.079c-11.436-8.473-23.303-15.676-36.646-14.829
	C291.072,76.001,295.102,109.684,301.666,130.021L301.666,130.021z M642.938,236.151c0.424,5.084,0.85,9.956,1.062,15.04
	c32.41-6.991,67.359-15.463,72.871-51.476C705.854,230.644,673.02,237.634,642.938,236.151L642.938,236.151z M615.399,130.445
	c34.316,152.1-33.475,174.13-105.074,183.664c21.188,41.52-7.838,66.727-34.105,81.558c40.248-2.12,102.529,3.178,138.123-39.402
	c17.365-20.972,29.658-52.749,27.324-103.378C639.545,208.4,631.5,163.491,615.399,130.445L615.399,130.445z M412.881,846.668
	c24.785-1.48,49.994-6.35,74.566-15.039c-7.201-23.727-8.051-42.156-3.391-56.561C464.997,806.633,440.631,830.786,412.881,846.668
	L412.881,846.668z M492.747,759.391c7.199-8.471,17.791-14.613,31.141-18.641c4.021-49.783,15.463-83.676,47.66-97.443
	c4.236-24.998,2.965-50.633-7.412-74.354c-22.457-31.566-34.318-60.166-38.348-85.164c-4.447,58.258,1.277,122.66-3.809,172.016
	C517.956,695.209,507.573,729.948,492.747,759.391L492.747,759.391z M260.145,804.305c2.121,2.328,4.025,4.449,6.355,6.562
	c-27.749,9.115-76.896,20.125-93.846,17.797c-20.124,15.039-48.721,24.998-71.389,15.252c31.566,0.426,58.681-9.953,74.566-46.816
	c27.33,8.051,53.385,6.781,78.808,2.965C256.545,801.547,258.449,803.032,260.145,804.305L260.145,804.305z M124.146,612.803
	c3.813,2.328,7.203,5.08,9.956,8.26c30.082-5.932,55.712-15.252,71.813-26.693c4.235-20.336,9.108-40.461,15.677-59.734
	C206.763,562.596,177.527,589.077,124.146,612.803z"/>
<path fill="#D7DCDF" d="M251.06,497.598c-47.874,101.047-39.613,248.271,43.64,293.605
	C246.399,720.241,220.979,630.629,251.06,497.598z"/>
<path fill="#CED0D3" d="M356.344,417.521c13.771,7.413,31.563,13.981,50.842,17.372c-5.508-2.966-12.074-5.931-19.49-9.745
	C377.316,420.912,366.938,418.369,356.344,417.521z"/>
<path d="M345.118,253.346c9.53,0,17.369-7.627,17.369-17.159c0-9.321-7.839-16.948-17.369-16.948
	c-9.533,0-17.371,7.627-17.371,16.948C327.747,245.719,335.585,253.346,345.118,253.346z"/>
<linearGradient id="SVGID_1_" gradientUnits="userSpaceOnUse" x1="336.541" y1="658.312" x2="329.7026" y2="714.0061" gradientTransform="matrix(1 0 0 -1 8.5 896.9541)">
	<stop  offset="0" style="stop-color:#000000"/>
	<stop  offset="1" style="stop-color:#FFFFFF"/>
</linearGradient>
<path fill="url(#SVGID_1_)" d="M331.982,234.068c0.638-13.77,21.396-15.464,24.783-2.542c-4.659-2.33-11.017-0.212-13.343,2.754
	C339.186,239.364,331.77,241.059,331.982,234.068z"/>
<path fill="#FFFFFF" d="M339.186,232.586c1.695,0,2.966-1.483,2.966-2.965c0-1.695-1.271-2.967-2.966-2.967
	c-1.481,0-2.756,1.271-2.756,2.967C336.43,231.103,337.703,232.586,339.186,232.586z"/>
<path d="M361.215,253.558c-13.557,1.483-22.239,10.168-23.512,27.539c-1.062,17.372,11.863,31.777,31.562,45.545
	c-2.541-12.075-1.904-23.937,0-36.225c-0.846,12.075-1.271,24.15,1.061,36.648c29.021-0.211,46.603-6.991,66.519-22.878
	c12.074-9.745,16.096-29.657,4.021-36.859C415.448,252.499,385.368,251.228,361.215,253.558L361.215,253.558z"/>
<path fill="#FFFFFF" d="M409.514,260.548c-2.965-1.482-9.107-0.848-12.918-0.848c-10.807,0-34.318-4.448-43.007,1.271
	c-4.021,2.754-5.505,2.965-7.413,6.99c-3.391,7.204,4.873,9.11,9.533,5.508c9.956-7.415,27.325-4.873,39.614-6.354
	C400.618,266.48,420.956,267.962,409.514,260.548z"/>
<path d="M480.272,241.059c9.107,3.812,13.555,14.405,9.744,23.515c-3.604,8.897-14.193,13.346-23.301,9.532
	c-9.322-3.813-13.562-14.405-9.959-23.514C460.565,241.694,471.163,237.246,480.272,241.059z"/>
<linearGradient id="SVGID_2_" gradientUnits="userSpaceOnUse" x1="464.2046" y1="638.4458" x2="480.22" y2="694.2982" gradientTransform="matrix(1 0 0 -1 8.5 896.9541)">
	<stop  offset="0" style="stop-color:#000000"/>
	<stop  offset="1" style="stop-color:#FFFFFF"/>
</linearGradient>
<path fill="url(#SVGID_2_)" d="M461.629,250.38c6.143-13.134,26.904-6.567,24.783,7.415c-3.391-4.237-10.377-4.661-13.77-2.965
	C466.502,258.218,458.663,256.947,461.629,250.38z"/>
<path fill="#FFFFFF" d="M471.583,245.932c1.695,0.635,2.332,2.542,1.695,4.024c-0.635,1.484-2.328,2.33-4.023,1.695
	c-1.482-0.635-2.334-2.543-1.482-4.025C468.405,246.143,470.098,245.295,471.583,245.932z"/>
<linearGradient id="SVGID_3_" gradientUnits="userSpaceOnUse" x1="385.9077" y1="574.9575" x2="489.2867" y2="652.8591" gradientTransform="matrix(1 0 0 -1 8.5 896.9541)">
	<stop  offset="0" style="stop-color:#000000"/>
	<stop  offset="1" style="stop-color:#FFFFFF"/>
</linearGradient>
<path fill="url(#SVGID_3_)" d="M440.866,288.723c-7.625-2.966-11.016,7.415-14.824,11.228c-6.145,6.143-15.678,11.44-23.729,14.829
	c-1.271,0.635-35.376,9.321-17.795,9.321c14.404,0,29.445-6.99,40.039-14.829c5.932-4.449,17.365-10.379,17.365-19.278
	C441.504,289.993,441.079,288.935,440.866,288.723z"/>
<path fill="#EABE71" d="M387.694,425.147c-27.75-11.438-55.287-9.747-82.827,0.848C174.373,531.28,184.967,882.93,426.672,789.297
	c118.631-45.967,34.957-211.201,20.125-293.605C437.688,445.696,425.403,444.426,387.694,425.147z"/>
<path fill="#EABE71" d="M655.245,667.495c-11.223-5.512-23.088-4.873-35.162-4.873c-26.691-0.426-53.172,9.953-61.223,45.965
	c-9.109,40.043,4.24,243.193,76.688,156.553c27.537-33.049,30.926-80.502,30.926-121.383
	C666.473,734.647,670.077,679.78,655.245,667.495z"/>
<path fill="#EABE71" d="M103.197,633.387c-26.693-13.561-64.401-3.814-71.177,23.51c-8.476,35.17,8.258,74.779,16.521,108.254
	c5.931,23.301,42.581,74.564,70.331,69.904c38.131-6.143,12.924-97.441,12.924-117.779c0-22.031-2.545-38.979-9.111-59.104
	C121.413,654.358,113.574,638.467,103.197,633.387z"/>
<path fill="#DECFC3" d="M487.684,292.748c11.441,10.592,19.279,25.209,20.338,45.758c0.844,15.252-10.166,27.751-20.338,38.13
	c-33.682,34.955-112.485,41.733-159.302,13.98c69.271,21.609,133.035,6.994,154.003-40.672
	C489.167,334.692,502.303,315.838,487.684,292.748L487.684,292.748z"/>
<path d="M345.118,253.346c9.53,0,17.369-7.627,17.369-17.159c0-9.321-7.839-16.948-17.369-16.948
	c-9.533,0-17.371,7.627-17.371,16.948C327.747,245.719,335.585,253.346,345.118,253.346z"/>
<linearGradient id="SVGID_4_" gradientUnits="userSpaceOnUse" x1="336.541" y1="658.312" x2="329.7026" y2="714.0061" gradientTransform="matrix(1 0 0 -1 8.5 896.9541)">
	<stop  offset="0" style="stop-color:#000000"/>
	<stop  offset="1" style="stop-color:#FFFFFF"/>
</linearGradient>
<path fill="url(#SVGID_4_)" d="M331.982,234.068c0.638-13.77,21.396-15.464,24.783-2.542c-4.659-2.33-11.017-0.212-13.343,2.754
	C339.186,239.364,331.77,241.059,331.982,234.068z"/>
<path fill="#FFFFFF" d="M339.186,232.586c1.695,0,2.966-1.483,2.966-2.965c0-1.695-1.271-2.967-2.966-2.967
	c-1.481,0-2.756,1.271-2.756,2.967C336.43,231.103,337.703,232.586,339.186,232.586z"/>
<path d="M361.215,253.558c-13.557,1.483-22.239,10.168-23.512,27.539c-1.062,17.372,11.863,31.777,31.562,45.545
	c-2.541-12.075-1.271-12.075,1.061,0.423c29.021-0.211,46.603-6.991,66.519-22.878c12.074-9.745,16.096-29.657,4.021-36.859
	C415.448,252.499,385.368,251.228,361.215,253.558L361.215,253.558z"/>
<path fill="#FFFFFF" d="M409.514,260.548c-2.965-1.482-9.107-0.848-12.918-0.848c-10.807,0-34.318-4.448-43.007,1.271
	c-4.021,2.754-5.505,2.965-7.413,6.99c-3.391,7.204,4.873,9.11,9.533,5.508c9.956-7.415,27.325-4.873,39.614-6.354
	C400.618,266.48,420.956,267.962,409.514,260.548z"/>
<path d="M480.272,241.059c9.107,3.812,13.555,14.405,9.744,23.515c-3.604,8.897-14.193,13.346-23.301,9.532
	c-9.322-3.813-13.562-14.405-9.959-23.514C460.565,241.694,471.163,237.246,480.272,241.059z"/>
<linearGradient id="SVGID_5_" gradientUnits="userSpaceOnUse" x1="464.2046" y1="638.4458" x2="480.22" y2="694.2982" gradientTransform="matrix(1 0 0 -1 8.5 896.9541)">
	<stop  offset="0" style="stop-color:#000000"/>
	<stop  offset="1" style="stop-color:#FFFFFF"/>
</linearGradient>
<path fill="url(#SVGID_5_)" d="M461.629,250.38c6.143-13.134,26.904-6.567,24.783,7.415c-3.391-4.237-10.377-4.661-13.77-2.965
	C466.502,258.218,458.663,256.947,461.629,250.38z"/>
<path fill="#FFFFFF" d="M471.583,245.932c1.695,0.635,2.332,2.542,1.695,4.024c-0.635,1.484-2.328,2.33-4.023,1.695
	c-1.482-0.635-2.334-2.543-1.482-4.025C468.405,246.143,470.098,245.295,471.583,245.932z"/>
<linearGradient id="SVGID_6_" gradientUnits="userSpaceOnUse" x1="385.9077" y1="574.9575" x2="489.2867" y2="652.8591" gradientTransform="matrix(1 0 0 -1 8.5 896.9541)">
	<stop  offset="0" style="stop-color:#000000"/>
	<stop  offset="1" style="stop-color:#FFFFFF"/>
</linearGradient>
<path fill="url(#SVGID_6_)" d="M440.866,288.723c-7.625-2.966-11.016,7.415-14.824,11.228c-6.145,6.143-15.678,11.44-23.729,14.829
	c-1.271,0.635-35.376,9.321-17.795,9.321c14.404,0,29.445-6.99,40.039-14.829c5.932-4.449,17.365-10.379,17.365-19.278
	C441.504,289.993,441.079,288.935,440.866,288.723z"/>
<path stroke="#000000" stroke-miterlimit="10" d="M345.118,253.346c9.53,0,17.369-7.627,17.369-17.159
	c0-9.321-7.839-16.948-17.369-16.948c-9.533,0-17.371,7.627-17.371,16.948C327.747,245.719,335.585,253.346,345.118,253.346z"/>
<linearGradient id="SVGID_7_" gradientUnits="userSpaceOnUse" x1="336.541" y1="658.312" x2="329.7026" y2="714.0061" gradientTransform="matrix(1 0 0 -1 8.5 896.9541)">
	<stop  offset="0" style="stop-color:#000000"/>
	<stop  offset="1" style="stop-color:#FFFFFF"/>
</linearGradient>
<path fill="url(#SVGID_7_)" d="M331.982,234.068c0.638-13.77,21.396-15.464,24.783-2.542c-4.659-2.33-11.017-0.212-13.343,2.754
	C339.186,239.364,331.77,241.059,331.982,234.068z"/>
<path fill="#FFFFFF" d="M339.186,232.586c1.695,0,2.966-1.483,2.966-2.965c0-1.695-1.271-2.967-2.966-2.967
	c-1.481,0-2.756,1.271-2.756,2.967C336.43,231.103,337.703,232.586,339.186,232.586z"/>
<path stroke="#000000" stroke-miterlimit="10" d="M480.272,241.059c9.107,3.812,13.555,14.405,9.744,23.515
	c-3.604,8.897-14.193,13.346-23.301,9.532c-9.322-3.813-13.562-14.405-9.959-23.514
	C460.565,241.694,471.163,237.246,480.272,241.059z"/>
<linearGradient id="SVGID_8_" gradientUnits="userSpaceOnUse" x1="464.2046" y1="638.4458" x2="480.22" y2="694.2982" gradientTransform="matrix(1 0 0 -1 8.5 896.9541)">
	<stop  offset="0" style="stop-color:#000000"/>
	<stop  offset="1" style="stop-color:#FFFFFF"/>
</linearGradient>
<path fill="url(#SVGID_8_)" d="M461.629,250.38c6.143-13.134,26.904-6.567,24.783,7.415c-3.391-4.237-10.377-4.661-13.77-2.965
	C466.502,258.218,458.663,256.947,461.629,250.38z"/>
<path fill="#FFFFFF" d="M471.583,245.932c1.695,0.635,2.332,2.542,1.695,4.024c-0.635,1.484-2.328,2.33-4.023,1.695
	c-1.482-0.635-2.334-2.543-1.482-4.025C468.405,246.143,470.098,245.295,471.583,245.932z"/>
<path fill="#EABE71" d="M296.939,357.08c-30.272-61.864-5.967-102.778,57.374-101.506c32.836,0.848,64.008,7.847,92.68,14.711
	c35.109,8.406,61.137,25.714,63.258,69.142c0.844,15.252-10.424,29.341-20.596,39.72C446.016,424.48,330.775,426.221,296.939,357.08
	z"/>
<path opacity="0.3" fill="#D19043" enable-background="new    " d="M487.684,292.748c11.441,10.592,19.279,25.209,20.338,45.758
	c0.844,15.252-10.166,27.751-20.338,38.13c-33.682,34.955-112.485,41.733-159.302,13.98c69.271,21.609,133.035,6.994,154.003-40.672
	C489.167,334.692,502.303,315.838,487.684,292.748L487.684,292.748z"/>
<path stroke="#000000" stroke-miterlimit="10" d="M361.215,253.558c-13.557,1.483-22.239,10.168-23.512,27.539
	c-1.062,17.372,11.863,31.777,31.562,45.545c13.734,0.28,47.664-6.567,67.578-22.455c12.074-9.745,16.098-29.657,4.023-36.859
	C415.448,252.499,385.368,251.228,361.215,253.558L361.215,253.558z"/>
<path fill="#FFFFFF" d="M396.596,259.701c-10.807,0-34.318-4.448-43.007,1.271c-4.021,2.754-5.505,2.965-7.413,6.99
	c-3.391,7.204,4.873,9.11,9.533,5.508c9.956-7.415,27.325-4.873,39.614-6.354C400.618,266.48,400.405,259.701,396.596,259.701z"/>
<linearGradient id="SVGID_9_" gradientUnits="userSpaceOnUse" x1="385.9077" y1="574.9575" x2="489.2867" y2="652.8591" gradientTransform="matrix(1 0 0 -1 8.5 896.9541)">
	<stop  offset="0" style="stop-color:#000000"/>
	<stop  offset="1" style="stop-color:#FFFFFF"/>
</linearGradient>
<path fill="url(#SVGID_9_)" d="M440.866,288.723c-7.625-2.966-11.016,7.415-14.824,11.228c-6.145,6.143-15.678,11.44-23.729,14.829
	c-1.271,0.635-35.376,9.321-17.795,9.321c14.404,0,29.445-6.99,40.039-14.829c5.932-4.449,17.365-10.379,17.365-19.278
	C441.504,289.993,441.079,288.935,440.866,288.723z"/>
<g>
	<path d="M325.627,334.277c25.871,37.9,76.918,40.239,108.864,8.827C405.038,378.522,348.015,376.068,325.627,334.277z"/>
</g>
</svg>
