<?xml version="1.0" encoding="utf-8"?>
<!-- Generator: Adobe Illustrator 16.0.4, SVG Export Plug-In . SVG Version: 6.00 Build 0)  -->
<!DOCTYPE svg PUBLIC "-//W3C//DTD SVG 1.1//EN" "http://www.w3.org/Graphics/SVG/1.1/DTD/svg11.dtd">
<svg version="1.1" id="Layer_1" xmlns="http://www.w3.org/2000/svg" xmlns:xlink="http://www.w3.org/1999/xlink" x="0px" y="0px"
	 width="161.503px" height="495.242px" viewBox="0 0 161.503 495.242" enable-background="new 0 0 161.503 495.242"
	 xml:space="preserve">
<g id="stand_1_">
	<g>
		<path fill="#966C46" stroke="#040404" stroke-width="3" stroke-miterlimit="10" d="M27.694,72.365
			c0,29.488,23.907,53.395,53.396,53.395c29.49,0,53.396-23.907,53.396-53.395c0-29.492-23.906-53.398-53.396-53.398
			C51.601,18.967,27.694,42.873,27.694,72.365z"/>
		
			<line fill="none" stroke="#040404" stroke-width="5.6693" stroke-linecap="round" stroke-linejoin="round" x1="65.809" y1="352.975" x2="63.255" y2="458.94"/>
		
			<line fill="none" stroke="#040404" stroke-width="5.6693" stroke-linecap="round" stroke-linejoin="round" x1="102.911" y1="357.114" x2="102.892" y2="458.116"/>
		<g>
			<path fill="#040404" stroke="#040404" stroke-width="4.0304" d="M78.678,146.24c0-3.122-0.135-6.308-0.268-9.386
				c-0.136-3.121-0.271-6.346-0.271-9.547l0,0c0-1.207,1.205-0.181,2.686-0.181c1.481,0,2.682-1.026,2.682,0.181l0,0
				c0,3.127,0.14,6.314,0.271,9.395c0.137,3.118,0.271,6.34,0.271,9.538l0,0c0,1.205-1.201,2.181-2.684,2.181
				C79.877,148.419,78.678,147.445,78.678,146.24L78.678,146.24z"/>
		</g>
		<path id="highlight4" fill="#EF4325" stroke="#040404" stroke-width="4.252" stroke-linecap="round" stroke-linejoin="round" d="
			M80.135,493.116c4.816-11.478-4.797-26.84-16.123-33.488c0,0-38.133,5.229-47.938,14.037c-7.184,6.451-7.801,13.586-3.914,19.451
			H80.135L80.135,493.116z"/>
		<polygon fill="#040404" points="81.891,494.116 11.891,494.116 8.891,488.116 81.891,488.116 		"/>
		<path id="highlight3" fill="#EF4325" stroke="#040404" stroke-width="4.252" stroke-linecap="round" stroke-linejoin="round" d="
			M86.256,493.116c-4.813-11.478,4.798-26.84,16.121-33.488c0,0,38.136,5.229,47.943,14.037c7.18,6.451,7.799,13.586,3.912,19.451
			H86.256L86.256,493.116z"/>
		<polygon fill="#040404" points="84.5,494.116 155.892,494.116 157.5,488.116 84.5,488.116 		"/>
		<circle fill="#040404" stroke="#040404" stroke-width="3" cx="94.25" cy="67.22" r="2.129"/>
		<circle fill="#040404" stroke="#040404" stroke-width="3" cx="67.5" cy="67.219" r="2.13"/>
		
			<path fill="none" stroke="#040404" stroke-width="4.252" stroke-linecap="round" stroke-linejoin="round" stroke-miterlimit="10" d="
			M43.712,460.594c8.184,1.979,10.566,11.043,10.566,11.043"/>
		
			<path fill="none" stroke="#040404" stroke-width="4.252" stroke-linecap="round" stroke-linejoin="round" stroke-miterlimit="10" d="
			M33.403,464.622c8.346,1.113,10.66,9.988,10.66,9.988"/>
		
			<path fill="none" stroke="#040404" stroke-width="4.252" stroke-linecap="round" stroke-linejoin="round" stroke-miterlimit="10" d="
			M123.958,460.594c-8.188,1.979-10.563,11.043-10.563,11.043"/>
		
			<path fill="none" stroke="#040404" stroke-width="4.252" stroke-linecap="round" stroke-linejoin="round" stroke-miterlimit="10" d="
			M134.267,464.622c-8.347,1.113-10.662,9.988-10.662,9.988"/>
		<path id="highlight2" fill="#40C6F4" stroke="#040404" stroke-width="2.8347" stroke-linecap="round" stroke-linejoin="round" d="
			M45.001,288.848c0,0,0.309,1.818,0.137,4.73c-1.055,17.59-3.041,35.021-3.928,52.688c-0.414,8.26-0.854,28.938-1.674,31.381
			c1.883,0.418,36.738,1.5,40.169,1.64c4.434,0.172,5.523-0.39,6.039-3.479c1.021-6.166,0.326-11.858,1.181-7.418
			c0.649,3.406,0.907,7.635,2.266,10.854c7.423-0.986,37.433-1.729,40.688-0.886c0.316-2.905,0.156-5.724-0.092-8.567
			c-3.893-44.588-7.688-78.812-7.225-81.862C122.667,287.271,45.001,288.848,45.001,288.848z"/>
		
			<line fill="none" stroke="#040404" stroke-width="3" stroke-linecap="round" stroke-linejoin="round" x1="86.925" y1="367.386" x2="86.761" y2="333.511"/>
		<g>
			<path fill="#040404" d="M75.351,111.605c-17.951-4.991-22.512-19.306-23.709-22.87l0,0c-0.24-0.688-0.041-1.529,0.438-1.871l0,0
				c0.484-0.343,1.07-0.062,1.312,0.628l0,0c1.242,3.443,5.02,16.395,22.334,21.372l0,0c1.698,0.479,3.498,0.727,5.338,0.727l0,0
				c10.511,0,22.218-7.931,26.181-23.804l0,0c0.182-0.727,0.737-1.104,1.246-0.843l0,0c0.51,0.26,0.771,1.056,0.59,1.786l0,0
				c-4.367,17.307-16.892,25.651-28.017,25.651l0,0C79.106,112.382,77.182,112.123,75.351,111.605L75.351,111.605z"/>
		</g>
		<path fill="#010101" d="M142.493,41.824c-1.115-4.092-3.722-6.323-4.834-7.812c-0.533-0.71,3.273-1.353,3.273-1.353
			c-10.295-14.102-11.244-15.824-23.361-22.083c3.348-1.86-2.232-1.86-7.844-5.318c2.488-0.196-16.949-8.441-32.705-3.238
			c2.65-3.406-14.135-2.231-17.48,1.488c-1.861-2.231-8.005,0.468-6.934,1.539c-8.021,1.958-16.865,8.418-13.436,7.066
			c-8.8,6.264-2.396,6.292-13.434,12.902c-3.217,2.045-7.365,17.912-4.887,16.063c-1.376,2.235-3.627,1.702-4.582,6.511
			c0.668-1.573,2.988-1.051,2.742,1.984c-0.189,2.386-5.014,11.826-5.014,11.826s2.964-1.441,3.156,2.32
			c0.227,4.363-2.131,7.625,1.201,13.351c4.125,7.084,5.424,5.196,5.551,7.082c0.354,5.349,5.344,5.927,7.102,5.927
			c-2.992-4.728-1.457-15.759-1.469-18.388c-0.009-2.402,0.178-4.55,0.607-6.588c0.363,2.652,1.229,6.569,1.763,7.369
			c-0.47-3.173,1.001-13.233,2.351-15.635c3.342-5.568,7.804-7.908,17.48-13.83c-3.827,5.284-6.201,8.756-6.898,14.04
			c2.875-5.59,7.667-9.184,13.209-13.313c-2.352,3.615-4.932,4.951-5.957,9.051c7.008-6.868,13.854-12.16,26.062-14.88
			c-3.94,4.372-4.771,9.17-5.149,14.029c2.264-3.799,4.584-7.567,8.637-10.385c-1.109,3.646-0.279,6.44,0.832,9.109
			c1.822-3.583,3.979-7.047,8.475-9.657c-1.356,3.16-1.188,5.65-0.332,7.835c1.049-3.614,2.935-6.468,6.646-7.651
			c6.711,4.044,13.521,7.468,19.771,14.576c0.523-3.979-1.078-7.621-3.652-11.116c4.375,2.917,7.421,7.045,9.136,12.39
			c0.953-1.544,1.265-3.56,0.957-6.023c4.28,6.287,4.297,5.641,5.262,9.409c-1.112,5.581,2.234,6.325,1.117,12.276
			c0.211-0.137-0.89,3.96-0.745,3.72c0.034,0.397,2.651,2.738,2.604,2.976c-0.26,1.326-0.604-1.217,1.199-0.222
			c-0.002,0.105-0.004,0.214-0.011,0.318c-0.116,2.663-0.63,8.815-1.786,10.59c2.523-3.876,6.355-9.872,6.949-13.009
			c1.316-6.984,3.954-3.082,3.771-5.637c-0.457-6.546,2.52-19.194-0.828-25.518C140.881,45.681,141.499,40.209,142.493,41.824z"/>
		<path id="highlight1" fill="#EC2728" stroke="#040404" stroke-width="2.8347" stroke-linecap="round" stroke-linejoin="round" d="
			M75.84,133.037c-4.428,2.13-29.539,9.478-37.354,15.142c-8.562,6.213-20.863,46.55-22.887,49.035
			c6.645,2.277,21.34,7.748,27.443,10.725c2.555-4.69,5.893-9.637,5.893-9.637c0.441,1.459-2.879,23.191-3.152,27.199
			c-3.314,48.33-2.793,66.524-3.191,66.504c17.854,0.849,25.693,4.169,43.652,4.688c22.313,0.643,38.834-4.861,38.953-4.953
			c3.256,6.096-10.259-90.051-10.259-90.051s1.341,3.746,4.772,8.812c10.287-5.897,18.474-5.433,29.482-10.661
			c-2.439-1.971-14.596-51.508-34.96-57.427c-5.729-1.667-18.745-6.724-28.896-8.798C82.935,144.143,75.09,137.816,75.84,133.037z"
			/>
	</g>
</g>
</svg>
