<?xml version="1.0" encoding="utf-8"?>
<!-- Generator: Adobe Illustrator 16.0.4, SVG Export Plug-In . SVG Version: 6.00 Build 0)  -->
<!DOCTYPE svg PUBLIC "-//W3C//DTD SVG 1.1//EN" "http://www.w3.org/Graphics/SVG/1.1/DTD/svg11.dtd">
<svg version="1.1" id="Layer_1" xmlns="http://www.w3.org/2000/svg" xmlns:xlink="http://www.w3.org/1999/xlink" x="0px" y="0px"
	 width="132px" height="408.396px" viewBox="0 0 132 408.396" enable-background="new 0 0 132 408.396" xml:space="preserve">
<path fill-rule="evenodd" clip-rule="evenodd" fill="#C9C9C9" stroke="#000100" stroke-width="1.5" d="M130.029,66.01
	c0-35.233-28.77-64.003-64.004-64.003c-35.233,0-64.004,28.77-64.004,64.003c0,34.005,26.797,61.979,60.337,63.893v266.285H29.192
	v11.458h73.665v-11.458H69.691V129.903C103.232,127.989,130.029,100.015,130.029,66.01z"/>
<path fill-rule="evenodd" clip-rule="evenodd" fill="#777777" d="M69.17,396.917V132.25h-1.723v265.5c0,0,0.054,0.701,0.637,1.167
	c0.833,0.666,3.833,0.257,3.833,0.257h30.333v-2.257H69.17z"/>
<circle fill-rule="evenodd" clip-rule="evenodd" fill="#0086D8" stroke="#000100" stroke-width="1.5" cx="66" cy="66" r="65.25"/>
<path fill-rule="evenodd" clip-rule="evenodd" fill="#FFFFFF" d="M66.024,9.22c31.239,0,56.792,25.552,56.792,56.789
	c0,31.244-25.553,56.793-56.792,56.793c-31.24,0-56.79-25.55-56.79-56.793C9.234,34.772,34.784,9.22,66.024,9.22z"/>
<circle fill="#FFFFFF" cx="66.025" cy="66.011" r="9.331"/>
<circle fill="#FFFFFF" cx="66.025" cy="66.011" r="9.331"/>
<g>
	<path fill="#ED1C24" d="M102.629,61.596H91.164l0,0V41.544c0-3.623-2.697-6.56-6.318-6.56H32.7c-3.622,0-6.559,2.937-6.559,6.56
		v41.491c0,3.624,2.937,6.56,6.559,6.56h2.473c0.122-5.516,4.63-9.951,10.176-9.951c5.545,0,10.052,4.435,10.175,9.951h19.912
		c0.105-4.724,3.426-8.652,7.861-9.683c0.744-0.173,1.52-0.268,2.314-0.268c2.049,0,3.955,0.608,5.553,1.649v0.001
		c2.666,1.738,4.467,4.688,4.617,8.069h6.848c1.811,0,3.279-1.469,3.279-3.281V64.875C105.908,63.064,104.439,61.596,102.629,61.596
		z M45.349,64.835H29.613V44.472h15.735V64.835z M65.248,64.835H49.513V44.472h15.735V64.835z M85.148,64.835H69.414V44.472h15.734
		V64.835z"/>
	<circle fill="#ED1C24" cx="45.348" cy="89.749" r="7.289"/>
	<circle fill="#ED1C24" cx="85.611" cy="89.749" r="7.289"/>
</g>
<path opacity="0.4" fill-rule="evenodd" clip-rule="evenodd" fill="#FFFFFF" d="M5.128,66.276c0-33.292,27.231-60.526,60.527-60.526
	c16.186,0,30.928,6.448,41.814,16.889C96.521,11.811,81.512,5.083,64.988,5.083c-33.296,0-60.527,27.234-60.527,60.526
	c0,16.523,6.726,31.53,17.55,42.479C11.573,97.201,5.128,82.461,5.128,66.276z"/>
</svg>
