<?xml version="1.0" encoding="utf-8"?>
<!-- Generator: Adobe Illustrator 16.0.4, SVG Export Plug-In . SVG Version: 6.00 Build 0)  -->
<!DOCTYPE svg PUBLIC "-//W3C//DTD SVG 1.1//EN" "http://www.w3.org/Graphics/SVG/1.1/DTD/svg11.dtd">
<svg version="1.1" id="Layer_1" xmlns="http://www.w3.org/2000/svg" xmlns:xlink="http://www.w3.org/1999/xlink" x="0px" y="0px"
	 width="926.918px" height="346.525px" viewBox="0 0 926.918 346.525" enable-background="new 0 0 926.918 346.525"
	 xml:space="preserve">
<path id="wire_1_" fill="none" stroke="#000000" stroke-width="2" stroke-miterlimit="10" d="M35.049,28.09
	c3.006,170.645,279.042,445.091,449.874,138.743c146.748-263.158,368.717-70.891,421.818,59.75"/>
<g id="start">
	<g>
		<g>
			<path fill="#F6BC61" stroke="#000000" stroke-miterlimit="10" d="M34.571,30.09c-7.469,0-13.545-6.074-13.545-13.544
				C21.026,9.077,27.102,3,34.571,3c7.469,0,13.544,6.077,13.544,13.546C48.115,24.015,42.041,30.09,34.571,30.09z M34.571,7.393
				c-5.046,0-9.152,4.104-9.152,9.152c0,5.045,4.105,9.151,9.152,9.151c5.045,0,9.151-4.105,9.151-9.151
				C43.722,11.499,39.616,7.393,34.571,7.393z"/>
		</g>
	</g>
</g>
<g id="end">
	<g>
		<path fill="#F6BC61" stroke="#000000" stroke-miterlimit="10" d="M911.995,254.832c1.436-0.092,2.832-0.39,4.184-0.822l2.984,4.57
			c1.191,1.828,3.643,2.341,5.467,1.149c1.822-1.189,2.338-3.643,1.15-5.467l-3.299-5.054c0.193-0.994,0.006-2.062-0.607-2.969
			c0.516-0.705,0.996-1.443,1.385-2.242c1.104-2.277,1.602-4.824,1.438-7.364c-0.068-1.03-0.25-2.029-0.521-3.005
			c0.029-0.018,0.062-0.025,0.09-0.047c1.832-1.183,2.355-3.626,1.166-5.463c-3.416-5.267-9.426-8.288-15.686-7.883
			c-4.617,0.299-8.842,2.381-11.896,5.859c-1.049,1.192-1.916,2.496-2.592,3.889c-1.293,2.664-1.879,5.636-1.682,8.672
			c0.297,4.621,2.381,8.849,5.859,11.903C902.913,253.616,907.375,255.133,911.995,254.832z M922.067,236.806
			c0.135,2.089-0.271,4.175-1.178,6.042c-0.32,0.659-0.715,1.269-1.137,1.844c-1.131-0.339-2.395-0.189-3.43,0.544
			c-1.418,1.009-3.094,1.602-4.842,1.716c-2.514,0.161-4.943-0.662-6.832-2.326c-1.898-1.664-3.029-3.962-3.195-6.479
			c-0.164-2.519,0.666-4.948,2.324-6.836c1.666-1.894,3.965-3.025,6.48-3.188c3.404-0.224,6.682,1.423,8.541,4.297
			c0.648,1.001,1.678,1.59,2.773,1.746C921.823,235.019,922.01,235.897,922.067,236.806z"/>
	</g>
</g>
<path id="bead_1" fill="#FFFFFF" stroke="#231F20" stroke-width="2" stroke-miterlimit="10" d="M15.377,43.611l40.456-8.595
	c9.803-2.083,19.437,4.175,21.52,13.978l8.595,40.456c2.083,9.802-4.174,19.437-13.978,21.519l-40.455,8.596
	c-9.802,2.083-19.437-4.174-21.52-13.978L1.4,65.13C-0.683,55.329,5.574,45.694,15.377,43.611z"/>
<path id="bead_2" fill="#FFFFFF" stroke="#231F20" stroke-width="2" stroke-miterlimit="10" d="M49.146,143.064l35.924-20.495
	c8.704-4.966,19.785-1.937,24.751,6.769l20.495,35.923c4.966,8.704,1.937,19.785-6.769,24.751l-35.923,20.495
	c-8.704,4.968-19.786,1.938-24.752-6.768l-20.494-35.923C37.412,159.112,40.441,148.031,49.146,143.064z"/>
<path id="bead_3" fill="#FFFFFF" stroke="#231F20" stroke-width="2" stroke-miterlimit="10" d="M103.728,230.342l27.192-31.162
	c6.589-7.552,18.05-8.331,25.602-1.742l31.163,27.192c7.55,6.588,8.331,18.05,1.741,25.602l-27.192,31.162
	c-6.588,7.551-18.05,8.332-25.601,1.742l-31.163-27.192C97.92,249.355,97.139,237.894,103.728,230.342z"/>
<path id="bead_4" fill="#FFFFFF" stroke="#231F20" stroke-width="2" stroke-miterlimit="10" d="M218.814,247.836l39.645,11.782
	c9.606,2.854,15.079,12.955,12.225,22.562l-11.782,39.645c-2.854,9.605-12.954,15.079-22.562,12.224l-39.645-11.78
	c-9.605-2.854-15.08-12.954-12.226-22.562l11.784-39.646C199.107,250.455,209.208,244.981,218.814,247.836z"/>
<path id="bead_5" fill="#FFFFFF" stroke="#231F20" stroke-width="2" stroke-miterlimit="10" d="M301.289,268.26l41.091-4.696
	c9.957-1.139,18.95,6.011,20.088,15.968l4.697,41.091c1.138,9.956-6.009,18.949-15.966,20.088l-41.091,4.697
	c-9.956,1.138-18.95-6.01-20.089-15.967l-4.696-41.092C284.185,278.393,291.333,269.398,301.289,268.26z"/>
<path id="bead_6" fill="#FFFFFF" stroke="#231F20" stroke-width="2" stroke-miterlimit="10" d="M373.067,240.209l32.063-26.124
	c7.77-6.33,19.197-5.163,25.528,2.605l26.124,32.063c6.328,7.77,5.162,19.196-2.606,25.527l-32.062,26.123
	c-7.77,6.33-19.198,5.165-25.528-2.604l-26.124-32.064C364.132,257.969,365.298,246.539,373.067,240.209z"/>
<path id="bead_7" fill="#FFFFFF" stroke="#231F20" stroke-width="2" stroke-miterlimit="10" d="M482.549,136.773l34.393,22.973
	c8.332,5.565,10.574,16.833,5.01,25.166l-22.973,34.395c-5.566,8.333-16.832,10.574-25.17,5.009l-34.389-22.974
	c-8.333-5.565-10.577-16.833-5.011-25.167l22.974-34.392C462.948,133.449,474.215,131.206,482.549,136.773z"/>
<path id="bead_8" fill="#FFFFFF" stroke="#231F20" stroke-width="2" stroke-miterlimit="10" d="M489.93,89.918l27.789-30.629
	c6.734-7.422,18.209-7.979,25.631-1.246l30.633,27.792c7.42,6.734,7.977,18.207,1.242,25.63l-27.791,30.628
	c-6.73,7.423-18.209,7.981-25.629,1.246l-30.631-27.793C483.752,108.816,483.196,97.341,489.93,89.918z"/>
<path id="bead_9" fill="#FFFFFF" stroke="#231F20" stroke-width="2" stroke-miterlimit="10" d="M588.108,11.13l40.223-9.627
	c9.746-2.333,19.537,3.677,21.869,13.422l9.629,40.224c2.332,9.746-3.676,19.536-13.424,21.87l-40.223,9.626
	c-9.744,2.334-19.537-3.676-21.869-13.421L574.688,33C572.354,23.255,578.362,13.463,588.108,11.13z"/>
<path id="bead_10" fill="#FFFFFF" stroke="#231F20" stroke-width="2" stroke-miterlimit="10" d="M706.499,1.978l40.574,8.019
	c9.83,1.942,16.225,11.487,14.281,21.318l-8.02,40.575c-1.943,9.831-11.486,16.224-21.318,14.28l-40.572-8.02
	c-9.83-1.941-16.227-11.486-14.283-21.317l8.021-40.574C687.124,6.429,696.668,0.034,706.499,1.978z"/>
<path id="bead_11" fill="#FFFFFF" stroke="#231F20" stroke-width="2" stroke-miterlimit="10" d="M767.467,89.347l26.264-31.949
	c6.363-7.743,17.797-8.86,25.539-2.496l31.951,26.263c7.74,6.364,8.857,17.796,2.494,25.539l-26.264,31.949
	c-6.363,7.742-17.797,8.859-25.539,2.496l-31.949-26.266C762.221,108.523,761.104,97.089,767.467,89.347z"/>
<path id="bead_12" fill="#FFFFFF" stroke="#231F20" stroke-width="2" stroke-miterlimit="10" d="M838.512,144.356l36.312-19.802
	c8.797-4.8,19.82-1.558,24.617,7.24l19.803,36.311c4.799,8.798,1.557,19.817-7.24,24.617l-36.311,19.802
	c-8.797,4.8-19.82,1.558-24.619-7.24l-19.801-36.311C826.475,160.176,829.717,149.155,838.512,144.356z"/>
</svg>
