<?xml version="1.0" encoding="utf-8"?>
<!-- Generator: Adobe Illustrator 16.0.4, SVG Export Plug-In . SVG Version: 6.00 Build 0)  -->
<!DOCTYPE svg PUBLIC "-//W3C//DTD SVG 1.1//EN" "http://www.w3.org/Graphics/SVG/1.1/DTD/svg11.dtd">
<svg version="1.1" id="Silverware" xmlns="http://www.w3.org/2000/svg" xmlns:xlink="http://www.w3.org/1999/xlink" x="0px" y="0px"
	 width="176.972px" height="319.943px" viewBox="0 0 176.972 319.943" enable-background="new 0 0 176.972 319.943"
	 xml:space="preserve">
<g>
	<linearGradient id="SVGID_1_" gradientUnits="userSpaceOnUse" x1="219.6372" y1="111.2886" x2="63.9432" y2="201.1786">
		<stop  offset="0" style="stop-color:#F2F2F2"/>
		<stop  offset="1" style="stop-color:#808080"/>
	</linearGradient>
	<path fill="url(#SVGID_1_)" d="M176.872,59.029c0-32.309-17.461-58.5-39-58.5c-21.54,0-39,26.19-39,58.5
		c0,23.71,9.408,44.109,22.926,53.297h-0.023c0.034,0.017,0.066,0.036,0.101,0.053c0.997,0.674,2.015,1.289,3.055,1.838
		c4.922,3.547,8.393,9.23,8.393,15.663c0,3.976-1.217,7.655-3.263,10.737c-1.212,1.482-1.938,3.313-1.938,5.304v164.217
		c0,4.913,4.365,8.892,9.75,8.892c5.386,0,9.75-3.979,9.75-8.892V145.92c0-1.994-0.729-3.829-1.945-5.312
		c-2.042-3.081-3.255-6.757-3.255-10.729c0-6.432,3.47-12.114,8.39-15.662c1.042-0.55,2.062-1.167,3.062-1.843
		c0.031-0.015,0.062-0.033,0.094-0.049h-0.021C167.464,103.138,176.872,82.739,176.872,59.029z"/>
	<path d="M176.772,59.03c-0.021-4.479-0.374-8.939-1.074-13.355c-0.696-4.414-1.743-8.774-3.198-12.997
		c-1.438-4.226-3.254-8.331-5.546-12.158c-1.143-1.914-2.387-3.768-3.769-5.513c-1.359-1.763-2.854-3.418-4.467-4.942
		c-1.601-1.538-3.332-2.939-5.189-4.143c-1.852-1.206-3.804-2.267-5.867-3.049c-4.117-1.561-8.587-2.194-12.952-1.575
		c-2.155,0.287-4.299,0.843-6.338,1.637c-2.034,0.818-3.972,1.864-5.796,3.081c-3.65,2.444-6.796,5.604-9.479,9.09
		c-2.705,3.483-4.899,7.351-6.731,11.37c-1.805,4.037-3.203,8.254-4.257,12.552c-1.029,4.307-1.692,8.697-2.065,13.111
		c-0.189,2.208-0.264,4.423-0.291,6.64c0.049,2.182,0.036,4.483,0.242,6.653c0.3,4.397,0.938,8.816,1.985,13.115
		c1.035,4.304,2.393,8.533,4.153,12.594c1.753,4.062,3.968,7.925,6.613,11.459c2.65,3.525,5.777,6.71,9.393,9.225l1.609,1.119
		l-1.949-0.013l-0.023,0l0.265-1.149l0.1,0.053l0.032,0.018l0.042,0.025l2.987,1.825l0.065,0.04l0.003,0.003l1.484,1.209
		c0.508,0.387,0.915,0.888,1.376,1.327c0.22,0.23,0.456,0.446,0.663,0.688l0.596,0.749c0.39,0.504,0.818,0.98,1.131,1.539
		c0.33,0.546,0.696,1.071,0.993,1.634l0.818,1.73c0.255,0.583,0.417,1.206,0.629,1.806c0.232,0.597,0.327,1.231,0.452,1.856
		c0.124,0.626,0.264,1.25,0.269,1.891c0.03,0.643,0.098,1.26,0.093,1.921c-0.036,0.624-0.031,1.232-0.129,1.879
		c-0.061,0.644-0.171,1.271-0.307,1.891c-0.105,0.627-0.321,1.229-0.477,1.844c-0.228,0.593-0.397,1.208-0.673,1.78l-0.385,0.87
		l-0.444,0.841c-0.276,0.572-0.649,1.088-0.971,1.633l-0.007,0.012l-0.017,0.02c-1.177,1.419-1.863,3.229-1.863,5.071l-0.015,5.77
		l-0.03,11.539l-0.015,23.078l0.045,23.078l0.104,23.077l0.233,46.155l0.114,23.078l0.029,5.769
		c0.042,1.954-0.153,3.814,0.562,5.369c0.627,1.61,1.866,2.949,3.339,3.877c0.75,0.45,1.56,0.797,2.403,1.041
		c0.83,0.229,1.768,0.329,2.565,0.349c1.022-0.028,1.769-0.132,2.645-0.363c0.84-0.25,1.646-0.601,2.391-1.055
		c1.462-0.936,2.679-2.281,3.286-3.883c0.305-0.793,0.506-1.634,0.506-2.486c0.021-0.911,0.002-1.909,0.005-2.859l-0.013-5.77
		l-0.053-23.078l-0.019-46.155l0.052-46.155l0.124-23.078l0.062-11.539l0.048-5.77l-0.114-1.369l-0.325-1.207l-0.549-1.198
		l-0.746-1.099l-0.042-0.058c-0.32-0.557-0.691-1.085-0.965-1.668l-0.437-0.859l-0.376-0.887c-0.27-0.584-0.433-1.209-0.653-1.812
		c-0.148-0.625-0.356-1.235-0.453-1.871c-0.127-0.629-0.228-1.262-0.278-1.902c-0.089-0.636-0.076-1.278-0.102-1.918
		c0.009-0.711,0.083-1.264,0.122-1.904c0.013-0.611,0.163-1.255,0.298-1.892c0.134-0.637,0.245-1.283,0.485-1.874
		c0.221-0.6,0.393-1.219,0.658-1.799l0.844-1.718c0.307-0.558,0.68-1.077,1.017-1.616c0.32-0.553,0.755-1.022,1.15-1.519
		l0.604-0.738c0.21-0.237,0.448-0.45,0.67-0.675c0.466-0.431,0.876-0.923,1.388-1.3l1.491-1.181l0.008-0.006l0.044-0.026
		l3.038-1.794l0.039-0.023l0.016-0.008l0.089-0.046l0.178,0.774h-0.021l-1.19-0.01l0.961-0.734c0.984-0.752,2.034-1.422,2.968-2.241
		c0.93-0.823,1.906-1.597,2.749-2.515l1.31-1.33c0.417-0.461,0.81-0.945,1.217-1.417c0.397-0.479,0.822-0.937,1.196-1.435
		l1.111-1.504c0.77-0.983,1.411-2.056,2.091-3.102c0.705-1.032,1.26-2.155,1.88-3.239c0.636-1.077,1.103-2.241,1.663-3.358
		c0.567-1.115,0.973-2.302,1.468-3.45c0.506-1.145,0.848-2.352,1.278-3.525c0.44-1.172,0.735-2.39,1.096-3.587
		c0.374-1.195,0.631-2.42,0.919-3.638c0.137-0.61,0.295-1.216,0.415-1.83l0.333-1.848l0.333-1.848
		c0.098-0.618,0.164-1.241,0.248-1.861c0.15-1.242,0.349-2.48,0.418-3.731c0.083-1.249,0.226-2.495,0.259-3.747L176.772,59.03z
		 M176.972,59.028l-0.081,3.766c-0.025,1.255-0.161,2.505-0.236,3.759c-0.061,1.255-0.251,2.498-0.395,3.745
		c-0.08,0.623-0.142,1.248-0.236,1.869l-0.321,1.856l-0.321,1.856c-0.116,0.617-0.271,1.227-0.404,1.84
		c-0.28,1.225-0.531,2.457-0.898,3.66c-0.354,1.205-0.644,2.431-1.078,3.612c-0.425,1.183-0.761,2.398-1.262,3.553
		c-0.49,1.158-0.891,2.354-1.454,3.48c-0.556,1.128-1.02,2.302-1.652,3.392c-0.617,1.096-1.15,2.241-1.846,3.292
		c-0.669,1.067-1.299,2.161-2.06,3.167l-1.098,1.54c-0.371,0.51-0.793,0.981-1.187,1.473c-0.404,0.485-0.794,0.981-1.21,1.456
		l-1.307,1.373c-0.842,0.946-1.821,1.751-2.755,2.605c-0.938,0.85-1.999,1.555-2.995,2.339l-0.229-0.744h0.021l1.668-0.014
		l-1.49,0.788l-0.098,0.052l0.055-0.031l-3.086,1.892l0.051-0.032l-1.411,1.157c-0.485,0.368-0.868,0.849-1.308,1.267
		c-0.209,0.22-0.434,0.425-0.631,0.656l-0.564,0.714c-0.369,0.481-0.778,0.933-1.072,1.465c-0.311,0.52-0.658,1.018-0.939,1.553
		l-0.77,1.641c-0.241,0.552-0.389,1.141-0.589,1.708c-0.221,0.568-0.304,1.154-0.417,1.734c-0.113,0.58-0.249,1.148-0.252,1.785
		c-0.026,0.6-0.093,1.286-0.086,1.814c0.037,0.601,0.033,1.204,0.128,1.799c0.058,0.599,0.163,1.19,0.293,1.777
		c0.099,0.593,0.308,1.161,0.454,1.741c0.218,0.56,0.377,1.141,0.641,1.681l0.366,0.822l0.422,0.794
		c0.263,0.54,0.622,1.025,0.927,1.54l-0.042-0.057l0.897,1.272c0.229,0.468,0.461,0.934,0.678,1.411
		c0.152,0.521,0.308,1.054,0.435,1.576l0.146,1.503l0.048,5.77l0.062,11.539l0.124,23.078l0.052,46.155l-0.019,46.155l-0.053,23.078
		l-0.013,5.77c-0.007,0.972,0.008,1.898-0.019,2.909c-0.009,1.073-0.262,2.138-0.651,3.13c-0.777,2.006-2.282,3.646-4.054,4.765
		c-0.9,0.545-1.87,0.962-2.876,1.254c-0.983,0.272-2.154,0.404-3.056,0.415c-1.125-0.02-2.107-0.148-3.135-0.425
		c-1.004-0.294-1.971-0.714-2.868-1.26c-1.763-1.125-3.25-2.767-4.012-4.762c-0.212-0.49-0.334-1.002-0.458-1.531l-0.13-0.826
		l-0.041-0.726c-0.023-1.057,0.001-1.949,0-2.933l0.029-5.769l0.114-23.078l0.233-46.155l0.104-23.077l0.045-23.078l-0.015-23.078
		l-0.03-11.539l-0.015-5.77c-0.012-2.02,0.737-4.02,2.011-5.569l-0.023,0.031c0.305-0.527,0.663-1.024,0.924-1.575l0.417-0.812
		l0.358-0.84c0.258-0.551,0.412-1.144,0.623-1.713c0.141-0.591,0.341-1.168,0.433-1.769c0.122-0.597,0.219-1.194,0.267-1.79
		c0.086-0.584,0.075-1.222,0.102-1.839c-0.004-0.58-0.079-1.201-0.114-1.799c-0.011-0.607-0.154-1.197-0.279-1.789
		c-0.125-0.592-0.22-1.19-0.451-1.753c-0.209-0.567-0.368-1.153-0.618-1.704l-0.796-1.63c-0.289-0.53-0.645-1.023-0.963-1.537
		c-0.301-0.527-0.717-0.972-1.092-1.446l-0.573-0.703c-0.199-0.227-0.427-0.429-0.639-0.644c-0.444-0.41-0.832-0.882-1.321-1.241
		l-1.42-1.128l0.068,0.042l-3.122-1.851l0.074,0.042l-0.101-0.052l-2.197-1.133l2.461-0.016l0.023,0l-0.34,1.106
		c-3.778-2.555-7.041-5.8-9.812-9.389c-2.764-3.599-5.083-7.531-6.931-11.665c-1.86-4.13-3.299-8.441-4.36-12.837
		c-1.088-4.397-1.754-8.87-2.082-13.4c-0.22-2.289-0.212-4.471-0.272-6.762c0.018-2.26,0.085-4.521,0.269-6.774
		c0.342-4.509,1.059-8.993,2.148-13.386c1.111-4.387,2.574-8.691,4.456-12.814c1.909-4.107,4.192-8.063,7.009-11.636
		c1.396-1.792,2.914-3.498,4.59-5.042c1.663-1.553,3.436-3.003,5.365-4.226c1.919-1.233,3.958-2.289,6.093-3.106
		c2.148-0.794,4.374-1.334,6.66-1.599c4.528-0.564,9.188,0.176,13.398,1.855c2.114,0.841,4.1,1.962,5.975,3.227
		c1.88,1.262,3.621,2.719,5.222,4.308c1.614,1.576,3.101,3.278,4.447,5.083c1.369,1.787,2.594,3.679,3.714,5.626
		c1.142,1.937,2.121,3.96,3.064,5.997c0.885,2.062,1.739,4.141,2.426,6.277C175.703,41.075,176.964,50.077,176.972,59.028z"/>
</g>
<g>
	<ellipse fill="#808080" cx="137.872" cy="59.029" rx="37.05" ry="55.575"/>
	<path fill="#808080" d="M137.722,4.066c20.329-0.021,36.828,24.672,36.855,55.153c0.027,30.48-16.429,55.207-36.757,55.227
		c-20.328,0.021-36.829-24.673-36.856-55.153C100.937,28.812,117.394,4.087,137.722,4.066z"/>
	<path fill="#818181" d="M137.571,4.679c20.194-0.041,36.607,24.463,36.661,54.731c0.054,30.268-16.272,54.837-36.466,54.878
		c-20.193,0.041-36.607-24.463-36.661-54.731C101.051,29.289,117.377,4.719,137.571,4.679z"/>
	<path fill="#828282" d="M137.419,5.291c20.06-0.061,36.386,24.254,36.467,54.309c0.081,30.055-16.114,54.469-36.174,54.53
		c-20.059,0.061-36.386-24.254-36.467-54.309C101.165,29.766,117.361,5.352,137.419,5.291z"/>
	<path fill="#838383" d="M137.269,5.904c19.926-0.081,36.165,24.044,36.272,53.887c0.108,29.843-15.957,54.101-35.882,54.182
		c-19.924,0.082-36.164-24.044-36.272-53.887C101.28,30.243,117.345,5.985,137.269,5.904z"/>
	<path fill="#848484" d="M137.118,6.516c19.792-0.102,35.943,23.835,36.078,53.465c0.135,29.63-15.799,53.731-35.59,53.833
		c-19.79,0.102-35.943-23.835-36.078-53.465S117.328,6.618,137.118,6.516z"/>
	<path fill="#858585" d="M136.968,7.129c19.657-0.122,35.722,23.625,35.883,53.042c0.162,29.417-15.641,53.363-35.298,53.485
		c-19.656,0.122-35.722-23.626-35.883-53.043C101.508,31.197,117.312,7.251,136.968,7.129z"/>
	<path fill="#868686" d="M136.816,7.742c19.523-0.143,35.501,23.416,35.689,52.62c0.188,29.205-15.484,52.994-35.006,53.137
		c-19.522,0.143-35.5-23.417-35.689-52.621S117.295,7.884,136.816,7.742z"/>
	<path fill="#878787" d="M136.667,8.354c19.388-0.163,35.279,23.207,35.494,52.198s-15.326,52.625-34.714,52.788
		c-19.388,0.163-35.279-23.208-35.495-52.198C101.737,32.15,117.279,8.517,136.667,8.354z"/>
	<path fill="#888888" d="M136.516,8.966c19.254-0.183,35.058,22.998,35.3,51.776c0.243,28.779-15.168,52.257-34.422,52.44
		c-19.253,0.183-35.058-22.999-35.3-51.777C101.851,32.627,117.262,9.149,136.516,8.966z"/>
	<path fill="#898989" d="M136.365,9.579c19.12-0.204,34.836,22.789,35.105,51.354c0.269,28.566-15.011,51.888-34.13,52.091
		c-19.119,0.204-34.836-22.789-35.105-51.355C101.965,33.104,117.246,9.782,136.365,9.579z"/>
	<path fill="#8A8A8A" d="M136.214,10.191c18.985-0.224,34.615,22.579,34.911,50.933c0.296,28.353-14.854,51.519-33.838,51.743
		c-18.984,0.224-34.615-22.58-34.912-50.933C102.08,33.581,117.229,10.415,136.214,10.191z"/>
	<path fill="#8B8B8B" d="M136.063,10.804c18.851-0.244,34.394,22.37,34.716,50.51c0.324,28.141-14.695,51.151-33.546,51.395
		c-18.85,0.244-34.393-22.371-34.717-50.511C102.194,34.057,117.213,11.048,136.063,10.804z"/>
	<path fill="#8C8C8C" d="M135.913,11.416c18.716-0.264,34.172,22.161,34.522,50.088c0.35,27.928-14.538,50.782-33.254,51.046
		c-18.716,0.264-34.172-22.162-34.522-50.089C102.308,34.534,117.196,11.68,135.913,11.416z"/>
	<path fill="#8D8D8D" d="M135.762,12.029c18.583-0.285,33.951,21.952,34.328,49.667c0.377,27.715-14.38,50.413-32.963,50.697
		c-18.581,0.285-33.95-21.952-34.327-49.667S117.18,12.313,135.762,12.029z"/>
	<path fill="#8E8E8E" d="M135.611,12.642c18.448-0.305,33.729,21.742,34.133,49.245c0.404,27.502-14.222,50.044-32.67,50.349
		c-18.447,0.305-33.729-21.742-34.134-49.244C102.537,35.488,117.164,12.947,135.611,12.642z"/>
	<path fill="#8F8F8F" d="M135.46,13.254c18.314-0.325,33.508,21.533,33.939,48.822c0.431,27.29-14.064,49.676-32.379,50.001
		c-18.312,0.325-33.508-21.534-33.939-48.823C102.651,35.965,117.147,13.58,135.46,13.254z"/>
	<path fill="#909090" d="M135.31,13.866c18.18-0.346,33.287,21.324,33.744,48.4c0.458,27.077-13.907,49.307-32.086,49.653
		c-18.179,0.346-33.287-21.325-33.745-48.401C102.765,36.441,117.131,14.211,135.31,13.866z"/>
	<path fill="#919191" d="M135.159,14.479c18.045-0.366,33.065,21.115,33.55,47.979c0.485,26.864-13.75,48.938-31.794,49.304
		c-18.044,0.366-33.065-21.115-33.55-47.979C102.88,36.918,117.115,14.845,135.159,14.479z"/>
	<path fill="#929292" d="M135.009,15.091c17.91-0.386,32.844,20.905,33.355,47.557c0.512,26.651-13.592,48.569-31.502,48.956
		c-17.91,0.387-32.844-20.906-33.356-47.557C102.995,37.396,117.099,15.478,135.009,15.091z"/>
	<path fill="#939393" d="M134.857,15.704c17.776-0.407,32.623,20.696,33.161,47.134c0.539,26.438-13.435,48.201-31.21,48.607
		c-17.775,0.407-32.623-20.696-33.162-47.134C103.108,37.873,117.082,16.11,134.857,15.704z"/>
	<path fill="#949494" d="M134.707,16.316c17.642-0.427,32.401,20.487,32.967,46.712c0.566,26.226-13.276,47.832-30.918,48.259
		c-17.642,0.427-32.401-20.487-32.967-46.712C103.222,38.349,117.065,16.743,134.707,16.316z"/>
	<path fill="#959595" d="M134.556,16.929c17.508-0.448,32.18,20.277,32.772,46.29c0.593,26.013-13.119,47.463-30.626,47.91
		c-17.507,0.447-32.18-20.278-32.772-46.291C103.337,38.826,117.049,17.376,134.556,16.929z"/>
	<path fill="#969696" d="M134.406,17.542c17.373-0.468,31.958,20.068,32.578,45.868c0.62,25.8-12.961,47.094-30.335,47.562
		c-17.372,0.468-31.958-20.068-32.578-45.869C103.452,39.303,117.033,18.009,134.406,17.542z"/>
	<path fill="#979797" d="M134.255,18.154c17.239-0.488,31.737,19.858,32.383,45.446c0.647,25.587-12.804,46.726-30.042,47.214
		c-17.238,0.488-31.737-19.86-32.383-45.447C103.566,39.779,117.016,18.642,134.255,18.154z"/>
	<path fill="#989898" d="M134.104,18.766c17.105-0.509,31.516,19.649,32.189,45.024s-12.646,46.357-29.751,46.865
		c-17.104,0.508-31.516-19.65-32.189-45.024C103.68,40.256,117,19.274,134.104,18.766z"/>
	<path fill="#999999" d="M133.954,19.378c16.97-0.528,31.294,19.44,31.994,44.603c0.701,25.162-12.488,45.988-29.458,46.517
		c-16.97,0.529-31.295-19.441-31.995-44.603C103.794,40.733,116.983,19.907,133.954,19.378z"/>
	<path fill="#9A9A9A" d="M133.803,19.992c16.836-0.549,31.073,19.23,31.8,44.18c0.728,24.949-12.331,45.619-29.167,46.168
		c-16.835,0.549-31.073-19.231-31.8-44.18C103.909,41.21,116.967,20.541,133.803,19.992z"/>
	<path fill="#9B9B9B" d="M133.652,20.604c16.701-0.57,30.851,19.021,31.605,43.758c0.754,24.737-12.174,45.25-28.875,45.82
		c-16.701,0.569-30.852-19.022-31.606-43.759C104.023,41.687,116.95,21.173,133.652,20.604z"/>
	<path fill="#9C9C9C" d="M133.501,21.216c16.567-0.59,30.63,18.812,31.411,43.335c0.781,24.524-12.016,44.883-28.583,45.473
		c-16.566,0.59-30.63-18.813-31.412-43.337C104.137,42.164,116.934,21.805,133.501,21.216z"/>
	<path fill="#9D9D9D" d="M133.351,21.829c16.433-0.61,30.409,18.603,31.217,42.914c0.808,24.312-11.858,44.514-28.291,45.124
		s-30.409-18.604-31.218-42.915C104.251,42.641,116.918,22.439,133.351,21.829z"/>
	<path fill="#9E9E9E" d="M133.2,22.442c16.298-0.631,30.188,18.393,31.022,42.491c0.835,24.099-11.701,44.145-27.999,44.775
		S106.036,91.314,105.2,67.215C104.366,43.118,116.901,23.072,133.2,22.442z"/>
	<path fill="#9F9F9F" d="M133.049,23.054c16.164-0.651,29.966,18.184,30.828,42.069c0.862,23.886-11.542,43.775-27.707,44.426
		s-29.966-18.185-30.828-42.07C104.48,43.594,116.885,23.705,133.049,23.054z"/>
	<path fill="#A0A0A0" d="M132.898,23.666c16.03-0.671,29.745,17.976,30.633,41.648c0.89,23.673-11.385,43.407-27.415,44.078
		c-16.029,0.671-29.744-17.976-30.634-41.648C104.594,44.071,116.868,24.336,132.898,23.666z"/>
	<path fill="#A1A1A1" d="M132.747,24.279c15.896-0.691,29.523,17.766,30.439,41.226s-11.228,43.038-27.123,43.729
		c-15.896,0.692-29.523-17.766-30.44-41.226C104.708,44.548,116.852,24.97,132.747,24.279z"/>
	<path fill="#A2A2A2" d="M132.597,24.891c15.762-0.712,29.303,17.557,30.245,40.804c0.943,23.247-11.07,42.669-26.832,43.381
		c-15.761,0.712-29.302-17.558-30.245-40.805C104.823,45.025,116.835,25.603,132.597,24.891z"/>
	<path fill="#A3A3A3" d="M132.446,25.503c15.627-0.732,29.08,17.348,30.05,40.382c0.97,23.035-10.912,42.301-26.539,43.033
		s-29.081-17.348-30.051-40.383C104.938,45.501,116.819,26.235,132.446,25.503z"/>
	<path fill="#A4A4A4" d="M132.295,26.116c15.493-0.752,28.859,17.138,29.856,39.96c0.997,22.822-10.755,41.932-26.248,42.685
		c-15.492,0.752-28.859-17.139-29.856-39.961C105.052,45.978,116.802,26.868,132.295,26.116z"/>
	<path fill="#A5A5A5" d="M132.145,26.729c15.358-0.773,28.638,16.928,29.661,39.537c1.024,22.609-10.597,41.563-25.955,42.336
		c-15.358,0.773-28.638-16.929-29.662-39.538C105.166,46.455,116.786,27.501,132.145,26.729z"/>
	<path fill="#A6A6A6" d="M131.994,27.341c15.224-0.793,28.416,16.719,29.467,39.115c1.051,22.397-10.439,41.195-25.663,41.988
		s-28.417-16.72-29.468-39.116C105.28,46.932,116.77,28.134,131.994,27.341z"/>
	<path fill="#A7A7A7" d="M131.843,27.954c15.089-0.813,28.195,16.51,29.272,38.693c1.078,22.184-10.281,40.826-25.371,41.64
		c-15.089,0.813-28.195-16.511-29.273-38.694C105.395,47.409,116.753,28.767,131.843,27.954z"/>
	<path fill="#A8A8A8" d="M131.692,28.566c14.955-0.834,27.974,16.301,29.077,38.271c1.105,21.971-10.124,40.457-25.079,41.291
		c-14.955,0.834-27.974-16.302-29.078-38.272C105.509,47.886,116.736,29.399,131.692,28.566z"/>
	<path fill="#A9A9A9" d="M131.542,29.178c14.821-0.854,27.752,16.092,28.883,37.85c1.131,21.758-9.966,40.088-24.788,40.942
		c-14.82,0.854-27.752-16.092-28.884-37.85C105.623,48.363,116.721,30.032,131.542,29.178z"/>
	<path fill="#AAAAAA" d="M131.391,29.792c14.687-0.875,27.531,15.882,28.689,37.427c1.159,21.546-9.809,39.72-24.495,40.595
		c-14.687,0.874-27.531-15.883-28.69-37.428C105.737,48.839,116.704,30.666,131.391,29.792z"/>
	<path fill="#ABABAB" d="M131.24,30.404c14.553-0.895,27.31,15.673,28.495,37.005c1.186,21.333-9.651,39.351-24.204,40.246
		c-14.552,0.895-27.31-15.673-28.495-37.006C105.852,49.316,116.688,31.298,131.24,30.404z"/>
	<path fill="#ACACAC" d="M131.09,31.016c14.417-0.915,27.088,15.463,28.3,36.583c1.212,21.12-9.494,38.982-23.912,39.897
		s-27.088-15.464-28.301-36.584C105.966,49.792,116.671,31.931,131.09,31.016z"/>
	<path fill="#ADADAD" d="M130.939,31.628c14.284-0.936,26.867,15.254,28.105,36.161c1.24,20.908-9.335,38.614-23.619,39.55
		c-14.283,0.935-26.867-15.255-28.106-36.162C106.08,50.27,116.655,32.564,130.939,31.628z"/>
	<path fill="#AEAEAE" d="M130.789,32.242c14.149-0.956,26.646,15.044,27.911,35.739c1.267,20.694-9.178,38.245-23.327,39.2
		c-14.149,0.956-26.646-15.046-27.912-35.74C106.195,50.747,116.639,33.197,130.789,32.242z"/>
	<path fill="#AFAFAF" d="M130.638,32.853c14.015-0.976,26.424,14.836,27.716,35.318c1.293,20.482-9.02,37.875-23.036,38.852
		c-14.015,0.976-26.424-14.836-27.718-35.317C106.309,51.224,116.622,33.829,130.638,32.853z"/>
	<path fill="#B0B0B0" d="M130.486,33.465c13.881-0.996,26.203,14.627,27.522,34.896c1.32,20.269-8.863,37.507-22.744,38.503
		s-26.203-14.627-27.523-34.896C106.423,51.7,116.605,34.461,130.486,33.465z"/>
	<path fill="#B1B1B1" d="M130.336,34.079c13.746-1.017,25.981,14.417,27.328,34.473c1.347,20.057-8.706,37.139-22.452,38.156
		c-13.746,1.017-25.981-14.417-27.329-34.474C106.538,52.177,116.589,35.095,130.336,34.079z"/>
	<path fill="#B2B2B2" d="M130.186,34.691c13.612-1.037,25.76,14.208,27.133,34.051c1.375,19.844-8.547,36.77-22.16,37.807
		c-13.612,1.037-25.76-14.208-27.135-34.052C106.652,52.654,116.573,35.728,130.186,34.691z"/>
	<path fill="#B3B3B3" d="M130.034,35.303c13.479-1.058,25.539,13.999,26.939,33.629c1.401,19.631-8.39,36.401-21.868,37.458
		c-13.477,1.058-25.539-13.999-26.939-33.63C106.766,53.131,116.556,36.361,130.034,35.303z"/>
	<path fill="#B4B4B4" d="M129.884,35.916c13.343-1.078,25.317,13.79,26.744,33.207c1.429,19.418-8.232,36.033-21.575,37.11
		c-13.343,1.078-25.317-13.79-26.745-33.208C106.881,53.608,116.54,36.994,129.884,35.916z"/>
	<path fill="#B5B5B5" d="M129.733,36.529c13.209-1.099,25.096,13.58,26.55,32.785c1.455,19.206-8.074,35.664-21.284,36.762
		c-13.208,1.098-25.096-13.581-26.551-32.786C106.995,54.084,116.523,37.626,129.733,36.529z"/>
	<path fill="#B6B6B6" d="M129.582,37.141c13.075-1.119,24.875,13.37,26.356,32.362c1.481,18.993-7.918,35.295-20.992,36.414
		s-24.875-13.372-26.357-32.364C107.109,54.561,116.507,38.259,129.582,37.141z"/>
	<path fill="#B7B7B7" d="M129.432,37.753c12.94-1.139,24.653,13.162,26.161,31.941c1.509,18.779-7.759,34.926-20.7,36.064
		c-12.939,1.139-24.653-13.162-26.162-31.941C107.224,55.039,116.49,38.892,129.432,37.753z"/>
	<path fill="#B8B8B8" d="M129.281,38.366c12.806-1.159,24.432,12.953,25.967,31.52c1.536,18.567-7.602,34.557-20.408,35.716
		c-12.806,1.159-24.432-12.953-25.968-31.52C107.338,55.515,116.475,39.525,129.281,38.366z"/>
	<path fill="#B9B9B9" d="M129.13,38.979c12.671-1.18,24.21,12.742,25.772,31.097c1.562,18.354-7.444,34.188-20.116,35.368
		s-24.21-12.744-25.773-31.098C107.452,55.992,116.458,40.158,129.13,38.979z"/>
	<path fill="#BABABA" d="M128.979,39.591c12.537-1.2,23.989,12.534,25.578,30.675c1.59,18.142-7.287,33.82-19.824,35.02
		s-23.989-12.534-25.579-30.676C107.566,56.469,116.441,40.79,128.979,39.591z"/>
	<path fill="#BBBBBB" d="M128.829,40.204c12.403-1.22,23.768,12.324,25.383,30.252c1.617,17.929-7.128,33.452-19.532,34.671
		c-12.403,1.221-23.768-12.325-25.384-30.253C107.681,56.946,116.425,41.423,128.829,40.204z"/>
	<path fill="#BCBCBC" d="M128.678,40.816c12.269-1.241,23.547,12.115,25.189,29.831c1.644,17.716-6.972,33.082-19.24,34.323
		s-23.547-12.116-25.19-29.832C107.795,57.422,116.408,42.056,128.678,40.816z"/>
	<path fill="#BDBDBD" d="M128.527,41.429c12.134-1.261,23.325,11.906,24.994,29.409c1.671,17.503-6.813,32.713-18.947,33.975
		c-12.135,1.261-23.325-11.907-24.996-29.41C107.909,57.899,116.393,42.689,128.527,41.429z"/>
	<path fill="#BEBEBE" d="M128.377,42.041c12-1.281,23.104,11.697,24.8,28.987c1.697,17.291-6.656,32.345-18.656,33.626
		s-23.104-11.697-24.801-28.987C108.023,58.376,116.376,43.322,128.377,42.041z"/>
	<path fill="#BFBFBF" d="M128.226,42.654c11.866-1.302,22.882,11.487,24.606,28.564c1.725,17.078-6.499,31.977-18.364,33.277
		c-11.866,1.302-22.883-11.488-24.607-28.565C108.138,58.853,116.359,43.955,128.226,42.654z"/>
	<path fill="#C0C0C0" d="M128.075,43.266c11.731-1.322,22.661,11.278,24.411,28.143c1.751,16.865-6.341,31.607-18.072,32.93
		c-11.731,1.321-22.661-11.279-24.412-28.144C108.252,59.33,116.343,44.587,128.075,43.266z"/>
	<path fill="#C1C1C1" d="M127.924,43.878c11.597-1.342,22.439,11.068,24.217,27.721c1.778,16.652-6.183,31.239-17.78,32.581
		c-11.597,1.343-22.44-11.069-24.218-27.722C108.366,59.807,116.326,45.22,127.924,43.878z"/>
	<path fill="#C2C2C2" d="M127.774,44.491c11.462-1.363,22.218,10.859,24.022,27.299c1.806,16.439-6.025,30.87-17.488,32.232
		c-11.462,1.363-22.218-10.86-24.023-27.299C108.48,60.284,116.31,45.853,127.774,44.491z"/>
	<path fill="#C3C3C3" d="M127.623,45.104c11.328-1.383,21.997,10.65,23.828,26.876c1.833,16.227-5.868,30.501-17.196,31.884
		c-11.328,1.383-21.997-10.651-23.829-26.877C108.595,60.76,116.293,46.485,127.623,45.104z"/>
	<path fill="#C4C4C4" d="M127.472,45.716c11.194-1.403,21.776,10.441,23.633,26.455c1.859,16.015-5.71,30.133-16.904,31.536
		c-11.194,1.403-21.775-10.442-23.635-26.456C108.709,61.237,116.277,47.119,127.472,45.716z"/>
	<path fill="#C5C5C5" d="M127.321,46.329c11.06-1.424,21.555,10.231,23.439,26.032c1.886,15.802-5.553,29.764-16.612,31.188
		c-11.06,1.424-21.554-10.232-23.44-26.033C108.824,61.714,116.261,47.751,127.321,46.329z"/>
	<path fill="#C6C6C6" d="M127.171,46.941c10.926-1.444,21.333,10.022,23.244,25.61c1.914,15.589-5.395,29.396-16.32,30.839
		c-10.925,1.444-21.333-10.022-23.246-25.611C108.938,62.191,116.244,48.384,127.171,46.941z"/>
	<path fill="#C7C7C7" d="M127.021,47.553c10.791-1.464,21.111,9.813,23.05,25.188c1.939,15.376-5.237,29.026-16.028,30.491
		c-10.791,1.464-21.111-9.814-23.052-25.189C109.053,62.667,116.228,49.017,127.021,47.553z"/>
	<path fill="#C8C8C8" d="M126.869,48.166c10.657-1.484,20.89,9.604,22.856,24.767c1.967,15.164-5.08,28.658-15.737,30.143
		c-10.656,1.484-20.89-9.604-22.857-24.768C109.167,63.145,116.211,49.65,126.869,48.166z"/>
	<path fill="#C9C9C9" d="M126.719,48.779c10.522-1.506,20.669,9.394,22.661,24.344c1.994,14.951-4.922,28.289-15.444,29.794
		s-20.669-9.396-22.663-24.345C109.281,63.622,116.195,50.283,126.719,48.779z"/>
	<path fill="#CACACA" d="M126.568,49.391c10.388-1.525,20.447,9.185,22.467,23.922c2.021,14.738-4.764,27.92-15.152,29.446
		s-20.447-9.186-22.468-23.923C109.396,64.098,116.179,50.916,126.568,49.391z"/>
	<path fill="#CBCBCB" d="M126.417,50.003c10.254-1.546,20.227,8.976,22.272,23.5c2.048,14.525-4.606,27.551-14.86,29.097
		c-10.254,1.545-20.227-8.978-22.274-23.501C109.51,64.575,116.162,51.548,126.417,50.003z"/>
	<path fill="#CCCCCC" d="M126.267,50.616c10.12-1.566,20.004,8.767,22.078,23.078c2.075,14.312-4.449,27.183-14.568,28.749
		c-10.119,1.566-20.005-8.768-22.08-23.079C109.624,65.052,116.146,52.181,126.267,50.616z"/>
	<path fill="#CDCDCD" d="M126.116,51.229c9.985-1.586,19.783,8.557,21.883,22.656c2.102,14.1-4.292,26.814-14.276,28.4
		s-19.783-8.558-21.885-22.657C109.738,65.529,116.129,52.814,126.116,51.229z"/>
	<path fill="#CECECE" d="M125.965,51.841c9.851-1.606,19.562,8.348,21.689,22.234c2.128,13.887-4.134,26.445-13.985,28.052
		c-9.851,1.606-19.562-8.349-21.69-22.235C109.853,66.005,116.113,53.447,125.965,51.841z"/>
	<path fill="#CFCFCF" d="M125.814,52.454c9.717-1.627,19.34,8.139,21.495,21.812c2.155,13.675-3.976,26.077-13.693,27.704
		c-9.716,1.627-19.34-8.14-21.496-21.813C109.967,66.483,116.097,54.08,125.814,52.454z"/>
	<path fill="#D0D0D0" d="M125.663,53.066c9.583-1.647,19.119,7.929,21.301,21.39c2.183,13.461-3.818,25.708-13.401,27.355
		c-9.582,1.647-19.119-7.931-21.301-21.391C110.081,66.959,116.08,54.712,125.663,53.066z"/>
	<path fill="#D1D1D1" d="M125.513,53.678c9.448-1.668,18.897,7.72,21.105,20.968c2.209,13.249-3.661,25.339-13.109,27.006
		c-9.448,1.668-18.898-7.721-21.107-20.969C110.195,67.436,116.064,55.345,125.513,53.678z"/>
	<path fill="#D2D2D2" d="M125.362,54.291c9.313-1.688,18.676,7.511,20.911,20.546c2.236,13.036-3.503,24.97-12.817,26.659
		c-9.313,1.688-18.676-7.512-20.913-20.547C110.31,67.913,116.047,55.978,125.362,54.291z"/>
	<path fill="#D3D3D3" d="M125.211,54.903c9.179-1.708,18.455,7.301,20.717,20.124c2.264,12.823-3.345,24.602-12.525,26.31
		c-9.179,1.708-18.455-7.302-20.718-20.125C110.424,68.39,116.03,56.611,125.211,54.903z"/>
	<path fill="#D4D4D4" d="M125.061,55.516c9.045-1.729,18.233,7.092,20.522,19.702c2.291,12.611-3.188,24.233-12.233,25.962
		c-9.044,1.729-18.233-7.093-20.524-19.703C110.539,68.867,116.015,57.244,125.061,55.516z"/>
	<path fill="#D5D5D5" d="M124.91,56.128c8.911-1.749,18.013,6.883,20.329,19.28c2.317,12.397-3.031,23.864-11.941,25.613
		c-8.91,1.749-18.012-6.884-20.329-19.281C110.652,69.343,115.998,57.876,124.91,56.128z"/>
	<path fill="#D6D6D6" d="M124.759,56.741c8.776-1.77,17.791,6.674,20.133,18.858c2.344,12.185-2.873,23.496-11.649,25.265
		c-8.776,1.769-17.791-6.675-20.135-18.859C110.767,69.82,115.981,58.509,124.759,56.741z"/>
	<path fill="#D7D7D7" d="M124.608,57.354c8.642-1.79,17.569,6.464,19.939,18.436c2.371,11.972-2.716,23.126-11.357,24.917
		s-17.569-6.466-19.94-18.437C110.881,70.297,115.965,59.142,124.608,57.354z"/>
	<path fill="#D8D8D8" d="M124.458,57.966c8.507-1.81,17.348,6.255,19.745,18.014c2.398,11.76-2.558,22.758-11.065,24.568
		c-8.508,1.811-17.349-6.256-19.747-18.015C110.996,70.774,115.948,59.775,124.458,57.966z"/>
	<path fill="#D9D9D9" d="M124.307,58.579c8.374-1.831,17.127,6.045,19.55,17.591c2.425,11.547-2.399,22.389-10.773,24.22
		c-8.373,1.83-17.126-6.047-19.552-17.593C111.11,71.251,115.932,60.408,124.307,58.579z"/>
	<path fill="#DADADA" d="M124.157,59.19c8.238-1.851,16.905,5.837,19.355,17.17c2.452,11.333-2.242,22.02-10.481,23.871
		c-8.239,1.851-16.905-5.837-19.357-17.17C111.224,71.728,115.916,61.04,124.157,59.19z"/>
	<path fill="#DBDBDB" d="M124.006,59.803c8.104-1.871,16.684,5.627,19.161,16.748c2.479,11.121-2.085,21.651-10.189,23.522
		c-8.105,1.871-16.685-5.628-19.164-16.749C111.338,72.204,115.899,61.673,124.006,59.803z"/>
	<path fill="#DCDCDC" d="M123.855,60.416c7.97-1.891,16.463,5.418,18.967,16.326c2.506,10.909-1.927,21.283-9.897,23.175
		c-7.971,1.891-16.463-5.419-18.969-16.327C111.453,72.681,115.883,62.306,123.855,60.416z"/>
	<path fill="#DDDDDD" d="M123.704,61.028c7.836-1.912,16.241,5.208,18.772,15.903c2.533,10.696-1.769,20.915-9.605,22.827
		c-7.836,1.911-16.242-5.21-18.774-15.905C111.567,73.158,115.866,62.939,123.704,61.028z"/>
	<path fill="#DEDEDE" d="M123.553,61.641c7.702-1.932,16.02,5,18.579,15.481c2.56,10.484-1.612,20.545-9.313,22.478
		c-7.702,1.932-16.02-5-18.58-15.482C111.682,73.635,115.85,63.572,123.553,61.641z"/>
	<path fill="#DFDFDF" d="M123.403,62.253c7.567-1.953,15.798,4.79,18.383,15.06c2.587,10.27-1.454,20.177-9.021,22.129
		c-7.567,1.952-15.798-4.791-18.385-15.061C111.796,74.112,115.833,64.205,123.403,62.253z"/>
	<path fill="#E0E0E0" d="M123.252,62.866c7.433-1.973,15.577,4.581,18.189,14.638c2.614,10.058-1.296,19.808-8.729,21.781
		c-7.433,1.973-15.577-4.582-18.191-14.639C111.91,74.589,115.817,64.837,123.252,62.866z"/>
	<path fill="#E1E1E1" d="M123.101,63.479c7.299-1.993,15.356,4.371,17.995,14.215c2.641,9.845-1.139,19.439-8.438,21.432
		c-7.298,1.993-15.355-4.373-17.996-14.216C112.024,75.065,115.801,65.47,123.101,63.479z"/>
	<path fill="#E2E2E2" d="M122.951,64.09c7.164-2.013,15.134,4.163,17.8,13.794c2.668,9.632-0.981,19.071-8.145,21.084
		c-7.165,2.014-15.134-4.163-17.802-13.794C112.139,75.542,115.784,66.103,122.951,64.09z"/>
	<path fill="#E3E3E3" d="M122.8,64.703c7.03-2.034,14.913,3.953,17.606,13.371c2.694,9.42-0.824,18.703-7.854,20.736
		c-7.03,2.034-14.913-3.954-17.607-13.373C112.253,76.02,115.768,66.736,122.8,64.703z"/>
	<path fill="#E4E4E4" d="M122.649,65.315c6.896-2.054,14.691,3.744,17.411,12.95c2.721,9.207-0.666,18.333-7.562,20.387
		c-6.896,2.054-14.692-3.745-17.414-12.951C112.367,76.496,115.751,67.369,122.649,65.315z"/>
	<path fill="#E5E5E5" d="M122.499,65.928c6.761-2.075,14.47,3.534,17.217,12.527c2.749,8.994-0.508,17.964-7.27,20.039
		c-6.761,2.075-14.471-3.536-17.219-12.528C112.481,76.973,115.735,68.001,122.499,65.928z"/>
	
		<ellipse transform="matrix(0.9535 -0.3013 0.3013 0.9535 -18.9193 42.2059)" fill="#E6E6E6" cx="127.369" cy="82.438" rx="12.586" ry="16.673"/>
</g>
<g>
	<linearGradient id="SVGID_2_" gradientUnits="userSpaceOnUse" x1="121.6367" y1="111.2886" x2="-34.0573" y2="201.1786">
		<stop  offset="0" style="stop-color:#F2F2F2"/>
		<stop  offset="1" style="stop-color:#808080"/>
	</linearGradient>
	<path fill="url(#SVGID_2_)" d="M78.872,59.029c0-32.309-17.461-58.5-39-58.5c-21.54,0-39,26.19-39,58.5
		c0,23.71,9.408,44.109,22.926,53.297h-0.023c0.034,0.017,0.066,0.036,0.101,0.053c0.997,0.674,2.015,1.289,3.055,1.838
		c4.922,3.547,8.393,9.23,8.393,15.663c0,3.976-1.217,7.655-3.263,10.737c-1.212,1.482-1.938,3.313-1.938,5.304v164.217
		c0,4.913,4.365,8.892,9.75,8.892c5.386,0,9.75-3.979,9.75-8.892V145.92c0-1.994-0.729-3.829-1.945-5.312
		c-2.042-3.081-3.255-6.757-3.255-10.729c0-6.432,3.47-12.114,8.39-15.662c1.042-0.55,2.062-1.167,3.062-1.843
		c0.031-0.015,0.062-0.033,0.094-0.049h-0.021C69.464,103.138,78.872,82.739,78.872,59.029z"/>
	<path d="M78.772,59.029c-0.036-8.94-1.379-17.896-4.263-26.357c-2.869-8.429-7.338-16.463-13.784-22.62
		c-3.211-3.06-6.946-5.594-11.063-7.184c-4.108-1.597-8.6-2.167-12.946-1.586c-4.354,0.565-8.512,2.271-12.146,4.725
		c-3.653,2.445-6.79,5.61-9.483,9.091c-5.371,7.013-8.9,15.341-10.98,23.93C2.062,47.644,1.339,56.58,1.968,65.425
		c0.626,8.839,2.633,17.6,6.158,25.722c1.771,4.053,3.96,7.93,6.609,11.463c2.649,3.527,5.78,6.712,9.402,9.215l1.619,1.119
		l-1.959-0.013h-0.023l0.265-1.149l0.1,0.053l0.054,0.028l0.021,0.015c0.964,0.661,1.96,1.273,2.987,1.825l0.038,0.021l0.03,0.021
		c4.118,3,7.208,7.493,8.178,12.53c0.486,2.513,0.429,5.11-0.101,7.591c-0.521,2.492-1.563,4.855-2.959,6.969l-0.011,0.018
		l-0.013,0.014c-1.175,1.417-1.868,3.226-1.863,5.065l-0.015,5.77l-0.03,11.539l-0.015,23.079l0.149,46.158l0.233,46.158
		l0.114,23.079l0.028,5.77l0.021,2.861c0.022,0.86,0.214,1.711,0.532,2.511c0.647,1.599,1.86,2.958,3.349,3.871
		c1.479,0.922,3.269,1.394,4.989,1.388c1.802-0.005,3.527-0.486,5.014-1.415c1.477-0.923,2.67-2.288,3.295-3.879
		c0.308-0.795,0.489-1.638,0.503-2.489l-0.001-2.859l-0.013-5.77l-0.053-23.079l-0.019-46.158l0.051-46.158l0.124-23.079
		l0.062-11.539l0.048-5.753c0.023-1.783-0.615-3.495-1.734-4.883l-0.025-0.032l-0.018-0.025c-2.817-4.307-3.931-9.706-2.876-14.741
		c1.054-5.042,4.21-9.47,8.34-12.393l0.027-0.02l0.024-0.013c1.043-0.539,2.056-1.142,3.038-1.793l0.021-0.014l0.035-0.019
		l0.089-0.045l0.178,0.773h-0.021l-1.324-0.011l1.096-0.733c4.125-2.761,7.645-6.392,10.568-10.427
		c2.937-4.036,5.273-8.501,7.1-13.155C77.039,79.085,78.733,69.041,78.772,59.029z M78.972,59.028
		c0.027,10.035-1.603,20.125-5.214,29.524c-1.816,4.688-4.125,9.201-7.011,13.339c-2.888,4.126-6.396,7.875-10.571,10.771
		l-0.229-0.744h0.021l1.668-0.014l-1.49,0.788l-0.098,0.052l0.055-0.031c-0.993,0.683-2.021,1.317-3.087,1.891l0.052-0.031
		c-3.924,2.869-6.843,7.156-7.74,11.904c-0.903,4.736,0.235,9.784,2.935,13.743l-0.043-0.057c1.333,1.572,2.149,3.664,2.156,5.738
		l0.048,5.787l0.062,11.539l0.124,23.079l0.051,46.158l-0.019,46.158l-0.053,23.079l-0.013,5.77l-0.014,2.91
		c-0.023,1.072-0.256,2.139-0.647,3.134c-0.797,1.993-2.277,3.653-4.063,4.758c-1.78,1.112-3.91,1.674-5.952,1.669
		c-2.125-0.002-4.191-0.57-5.981-1.685c-1.777-1.109-3.24-2.772-4.021-4.755c-0.384-0.99-0.608-2.048-0.627-3.111l0.008-2.908
		l0.028-5.77l0.114-23.079l0.233-46.158l0.149-46.158l-0.015-23.079l-0.03-11.539l-0.015-5.77c-0.017-2.019,0.739-4.017,2.012-5.563
		l-0.023,0.031c2.696-4.055,3.75-9.199,2.768-13.934c-0.979-4.758-3.969-8.986-7.909-11.777l0.068,0.042
		c-1.075-0.559-2.115-1.181-3.121-1.851l0.074,0.043l-0.102-0.052l-2.196-1.134l2.461-0.017h0.023l-0.341,1.106
		c-3.784-2.544-7.052-5.79-9.82-9.38c-2.77-3.598-5.062-7.543-6.928-11.669c-3.75-8.259-5.768-17.222-6.461-26.227
		c-0.655-9.01-0.037-18.149,2.169-26.937C4.611,29.85,8.28,21.349,13.874,14.157c2.79-3.585,6.127-6.782,9.958-9.269
		c3.821-2.488,8.196-4.2,12.748-4.711c4.543-0.531,9.2,0.149,13.408,1.864c4.22,1.709,7.992,4.367,11.205,7.528
		c3.221,3.166,5.92,6.82,8.159,10.714c2.246,3.894,4.073,8.019,5.494,12.276C77.695,41.076,78.987,50.072,78.972,59.028z"/>
</g>
<g>
	<ellipse fill="#808080" cx="39.872" cy="59.029" rx="37.05" ry="55.575"/>
	<path fill="#808080" d="M39.722,4.066C60.05,4.046,76.55,28.739,76.577,59.219c0.026,30.48-16.43,55.206-36.758,55.227
		S2.99,89.773,2.964,59.293C2.937,28.812,19.394,4.087,39.722,4.066z"/>
	<path fill="#818181" d="M39.57,4.679c20.194-0.041,36.607,24.462,36.661,54.73c0.054,30.268-16.271,54.838-36.466,54.879
		c-20.193,0.04-36.607-24.464-36.661-54.731C3.051,29.289,19.377,4.72,39.57,4.679z"/>
	<path fill="#828282" d="M39.42,5.292C59.479,5.23,75.806,29.545,75.887,59.6c0.08,30.056-16.114,54.469-36.174,54.53
		c-20.06,0.061-36.386-24.254-36.467-54.309S19.361,5.353,39.42,5.292z"/>
	<path fill="#838383" d="M39.27,5.904c19.925-0.081,36.164,24.044,36.271,53.887c0.108,29.842-15.956,54.101-35.882,54.182
		C19.734,114.053,3.495,89.927,3.387,60.085C3.279,30.243,19.345,5.985,39.27,5.904z"/>
	<path fill="#848484" d="M39.118,6.517C58.91,6.415,75.062,30.352,75.196,59.981c0.135,29.63-15.799,53.731-35.59,53.833
		C19.815,113.917,3.663,89.979,3.528,60.349C3.394,30.72,19.328,6.618,39.118,6.517z"/>
	<path fill="#858585" d="M38.968,7.129c19.657-0.122,35.722,23.626,35.883,53.042c0.162,29.417-15.641,53.363-35.298,53.485
		C19.896,113.779,3.831,90.031,3.67,60.613C3.508,31.196,19.312,7.251,38.968,7.129z"/>
	<path fill="#868686" d="M38.817,7.742c19.522-0.143,35.5,23.416,35.688,52.62S59.022,113.356,39.5,113.499
		S3.999,90.082,3.811,60.877S19.295,7.884,38.817,7.742z"/>
	<path fill="#878787" d="M38.666,8.354C58.055,8.191,73.945,31.561,74.16,60.552c0.216,28.992-15.325,52.626-34.714,52.788
		C20.06,113.503,4.168,90.132,3.952,61.142C3.736,32.15,19.278,8.517,38.666,8.354z"/>
	<path fill="#888888" d="M38.516,8.966c19.254-0.183,35.058,22.998,35.3,51.776S58.647,113,39.394,113.182
		C20.141,113.366,4.336,90.184,4.093,61.406C3.851,32.627,19.263,9.149,38.516,8.966z"/>
	<path fill="#898989" d="M38.365,9.579c19.119-0.204,34.836,22.789,35.105,51.354C73.739,89.5,58.46,112.821,39.34,113.025
		C20.222,113.228,4.504,90.236,4.234,61.669C3.965,33.104,19.246,9.782,38.365,9.579z"/>
	<path fill="#8A8A8A" d="M38.214,10.191c18.985-0.224,34.615,22.579,34.911,50.933c0.297,28.353-14.853,51.519-33.838,51.743
		C20.303,113.09,4.672,90.287,4.376,61.934S19.229,10.415,38.214,10.191z"/>
	<path fill="#8B8B8B" d="M38.063,10.804c18.851-0.244,34.394,22.37,34.717,50.511c0.323,28.14-14.695,51.15-33.547,51.394
		c-18.85,0.244-34.394-22.37-34.717-50.511C4.194,34.058,19.213,11.048,38.063,10.804z"/>
	<path fill="#8C8C8C" d="M37.913,11.417c18.716-0.265,34.172,22.161,34.521,50.088c0.351,27.928-14.537,50.782-33.254,51.046
		C20.465,112.815,5.009,90.39,4.658,62.462C4.309,34.534,19.196,11.681,37.913,11.417z"/>
	<path fill="#8D8D8D" d="M37.762,12.029C56.345,11.744,71.713,33.98,72.09,61.695c0.377,27.714-14.38,50.413-32.963,50.698
		C20.546,112.677,5.177,90.441,4.8,62.726S19.181,12.313,37.762,12.029z"/>
	<path fill="#8E8E8E" d="M37.611,12.642c18.448-0.305,33.729,21.742,34.133,49.244c0.404,27.502-14.222,50.044-32.67,50.349
		C20.627,112.54,5.345,90.492,4.94,62.99C4.537,35.488,19.164,12.946,37.611,12.642z"/>
	<path fill="#8F8F8F" d="M37.461,13.254c18.313-0.325,33.508,21.533,33.938,48.822s-14.064,49.675-32.379,50
		C20.708,112.403,5.513,90.543,5.082,63.254C4.651,35.965,19.147,13.579,37.461,13.254z"/>
	<path fill="#909090" d="M37.31,13.866c18.18-0.346,33.287,21.324,33.744,48.4c0.459,27.077-13.906,49.307-32.086,49.653
		C20.789,112.265,5.681,90.595,5.223,63.518C4.766,36.441,19.131,14.212,37.31,13.866z"/>
	<path fill="#919191" d="M37.159,14.479c18.045-0.366,33.065,21.114,33.55,47.978c0.485,26.865-13.75,48.938-31.795,49.304
		C20.87,112.127,5.85,90.646,5.364,63.782C4.88,36.918,19.114,14.845,37.159,14.479z"/>
	<path fill="#929292" d="M37.009,15.091c17.91-0.386,32.844,20.905,33.355,47.556c0.512,26.651-13.593,48.57-31.503,48.956
		C20.951,111.99,6.018,90.698,5.506,64.046C4.994,37.396,19.099,15.478,37.009,15.091z"/>
	<path fill="#939393" d="M36.857,15.704c17.776-0.407,32.623,20.696,33.161,47.134c0.539,26.439-13.435,48.201-31.211,48.607
		C21.032,111.852,6.186,90.75,5.646,64.311C5.108,37.872,19.082,16.11,36.857,15.704z"/>
	<path fill="#949494" d="M36.707,16.316c17.642-0.427,32.401,20.486,32.967,46.712c0.565,26.226-13.277,47.832-30.919,48.259
		C21.113,111.714,6.354,90.8,5.788,64.575S19.065,16.743,36.707,16.316z"/>
	<path fill="#959595" d="M36.557,16.929c17.507-0.447,32.18,20.277,32.771,46.29c0.593,26.013-13.119,47.463-30.626,47.911
		C21.194,111.577,6.521,90.851,5.929,64.839C5.337,38.826,19.049,17.376,36.557,16.929z"/>
	<path fill="#969696" d="M36.405,17.542c17.373-0.468,31.959,20.068,32.578,45.868c0.619,25.8-12.962,47.094-30.335,47.562
		C21.276,111.439,6.69,90.903,6.07,65.103C5.451,39.303,19.032,18.009,36.405,17.542z"/>
	<path fill="#979797" d="M36.255,18.154C53.494,17.666,67.992,38.012,68.638,63.6c0.647,25.587-12.804,46.726-30.042,47.214
		C21.357,111.301,6.858,90.955,6.212,65.367C5.565,39.779,19.016,18.642,36.255,18.154z"/>
	<path fill="#989898" d="M36.104,18.766C53.209,18.258,67.62,38.416,68.293,63.79c0.674,25.375-12.646,46.357-29.751,46.866
		C21.438,111.164,7.026,91.005,6.353,65.63C5.68,40.256,19,19.274,36.104,18.766z"/>
	<path fill="#999999" d="M35.953,19.379c16.971-0.529,31.295,19.44,31.994,44.602c0.701,25.163-12.488,45.989-29.458,46.517
		c-16.97,0.529-31.295-19.44-31.995-44.603C5.794,40.733,18.983,19.907,35.953,19.379z"/>
	<path fill="#9A9A9A" d="M35.803,19.991c16.836-0.549,31.073,19.231,31.8,44.18c0.728,24.949-12.331,45.619-29.167,46.168
		c-16.835,0.55-31.073-19.23-31.801-44.18C5.908,41.21,18.967,20.54,35.803,19.991z"/>
	<path fill="#9B9B9B" d="M35.652,20.604c16.701-0.569,30.851,19.021,31.605,43.758c0.754,24.736-12.174,45.251-28.875,45.82
		S7.531,91.16,6.776,66.423C6.022,41.687,18.95,21.173,35.652,20.604z"/>
	<path fill="#9C9C9C" d="M35.501,21.216c16.567-0.59,30.63,18.812,31.411,43.336c0.781,24.523-12.016,44.882-28.583,45.472
		c-16.566,0.59-30.63-18.813-31.411-43.337S18.934,21.806,35.501,21.216z"/>
	<path fill="#9D9D9D" d="M35.351,21.829c16.433-0.61,30.408,18.603,31.217,42.914c0.808,24.312-11.858,44.513-28.291,45.123
		S7.867,91.262,7.059,66.952C6.251,42.641,18.918,22.438,35.351,21.829z"/>
	<path fill="#9E9E9E" d="M35.199,22.441c16.299-0.631,30.188,18.394,31.022,42.492c0.836,24.098-11.7,44.145-27.999,44.774
		C21.925,110.338,8.035,91.314,7.2,67.215C6.365,43.117,18.901,23.071,35.199,22.441z"/>
	<path fill="#9F9F9F" d="M35.049,23.054c16.164-0.651,29.966,18.184,30.828,42.07S54.334,108.899,38.17,109.55
		c-16.164,0.65-29.966-18.186-30.828-42.07C6.48,43.594,18.885,23.704,35.049,23.054z"/>
	<path fill="#A0A0A0" d="M34.898,23.666c16.03-0.671,29.744,17.975,30.633,41.648c0.89,23.673-11.385,43.407-27.415,44.078
		C22.087,110.063,8.372,91.417,7.482,67.744C6.595,44.071,18.868,24.337,34.898,23.666z"/>
	<path fill="#A1A1A1" d="M34.747,24.279c15.896-0.691,29.523,17.766,30.439,41.226s-11.228,43.038-27.123,43.729
		S8.54,91.468,7.624,68.007C6.709,44.548,18.852,24.97,34.747,24.279z"/>
	<path fill="#A2A2A2" d="M34.597,24.891c15.762-0.712,29.302,17.557,30.244,40.804c0.943,23.248-11.069,42.67-26.831,43.382
		C22.249,109.788,8.708,91.519,7.765,68.272C6.823,45.025,18.835,25.603,34.597,24.891z"/>
	<path fill="#A3A3A3" d="M34.446,25.503c15.627-0.732,29.08,17.348,30.05,40.382s-10.912,42.301-26.539,43.033
		S8.876,91.57,7.906,68.537C6.938,45.501,18.819,26.235,34.446,25.503z"/>
	<path fill="#A4A4A4" d="M34.295,26.116c15.493-0.752,28.859,17.138,29.856,39.959c0.996,22.822-10.755,41.933-26.248,42.685
		C22.412,109.513,9.045,91.622,8.048,68.8C7.052,45.979,18.803,26.868,34.295,26.116z"/>
	<path fill="#A5A5A5" d="M34.145,26.729c15.358-0.772,28.638,16.929,29.661,39.538c1.024,22.609-10.597,41.563-25.955,42.336
		C22.493,109.375,9.213,91.673,8.188,69.064C7.166,46.455,18.786,27.501,34.145,26.729z"/>
	<path fill="#A6A6A6" d="M33.994,27.341c15.224-0.793,28.416,16.719,29.467,39.115c1.051,22.396-10.439,41.194-25.664,41.988
		C22.574,109.238,9.381,91.724,8.33,69.328C7.28,46.932,18.77,28.134,33.994,27.341z"/>
	<path fill="#A7A7A7" d="M33.843,27.954c15.09-0.813,28.195,16.51,29.272,38.693c1.078,22.185-10.281,40.826-25.371,41.64
		C22.655,109.1,9.549,91.776,8.471,69.592C7.395,47.409,18.753,28.767,33.843,27.954z"/>
	<path fill="#A8A8A8" d="M33.692,28.566c14.955-0.833,27.974,16.301,29.078,38.271s-10.124,40.457-25.079,41.291
		S9.717,91.828,8.612,69.857C7.509,47.886,18.737,29.399,33.692,28.566z"/>
	<path fill="#A9A9A9" d="M33.542,29.179c14.821-0.854,27.752,16.091,28.883,37.849c1.132,21.759-9.966,40.089-24.787,40.942
		c-14.82,0.854-27.752-16.092-28.884-37.85C7.623,48.363,18.721,30.032,33.542,29.179z"/>
	<path fill="#AAAAAA" d="M33.391,29.791c14.688-0.875,27.531,15.882,28.689,37.427c1.158,21.546-9.809,39.72-24.495,40.595
		c-14.687,0.874-27.531-15.884-28.69-37.429C7.737,48.839,18.704,30.665,33.391,29.791z"/>
	<path fill="#ABABAB" d="M33.24,30.404c14.553-0.895,27.31,15.673,28.494,37.006c1.186,21.332-9.65,39.351-24.203,40.245
		c-14.552,0.895-27.31-15.674-28.495-37.006C7.852,49.316,18.688,31.298,33.24,30.404z"/>
	<path fill="#ACACAC" d="M33.09,31.016c14.418-0.915,27.088,15.463,28.3,36.583c1.213,21.121-9.493,38.982-23.911,39.897
		S10.39,92.033,9.178,70.913C7.966,49.793,18.671,31.931,33.09,31.016z"/>
	<path fill="#ADADAD" d="M32.938,31.628c14.284-0.936,26.867,15.254,28.106,36.162c1.239,20.906-9.336,38.613-23.62,39.549
		c-14.283,0.935-26.867-15.256-28.106-36.162C8.08,50.27,18.654,32.563,32.938,31.628z"/>
	<path fill="#AEAEAE" d="M32.788,32.241c14.149-0.956,26.646,15.045,27.911,35.739c1.267,20.695-9.178,38.245-23.327,39.201
		S10.727,92.135,9.46,71.441C8.194,50.747,18.639,33.196,32.788,32.241z"/>
	<path fill="#AFAFAF" d="M32.638,32.854c14.015-0.976,26.424,14.836,27.717,35.318c1.293,20.481-9.021,37.875-23.036,38.852
		C23.304,108,10.895,92.187,9.601,71.705C8.309,51.224,18.622,33.829,32.638,32.854z"/>
	<path fill="#B0B0B0" d="M32.486,33.466c13.881-0.996,26.203,14.626,27.522,34.895c1.32,20.27-8.862,37.508-22.743,38.504
		c-13.881,0.997-26.203-14.627-27.523-34.896C8.423,51.7,18.605,34.462,32.486,33.466z"/>
	<path fill="#B1B1B1" d="M32.336,34.079c13.746-1.017,25.981,14.417,27.328,34.474c1.347,20.056-8.705,37.138-22.452,38.155
		C23.466,107.724,11.23,92.289,9.884,72.234C8.537,52.177,18.589,35.095,32.336,34.079z"/>
	<path fill="#B2B2B2" d="M32.186,34.691c13.611-1.037,25.76,14.208,27.133,34.051c1.374,19.844-8.547,36.771-22.159,37.808
		S11.398,92.34,10.024,72.498C8.651,52.654,18.572,35.728,32.186,34.691z"/>
	<path fill="#B3B3B3" d="M32.034,35.304c13.479-1.058,25.539,13.999,26.939,33.629c1.401,19.631-8.39,36.4-21.868,37.458
		c-13.477,1.058-25.538-13.999-26.939-33.63C8.767,53.131,18.557,36.36,32.034,35.304z"/>
	<path fill="#B4B4B4" d="M31.884,35.916c13.344-1.078,25.317,13.79,26.744,33.207c1.429,19.419-8.232,36.033-21.575,37.11
		c-13.343,1.078-25.317-13.79-26.746-33.208C8.881,53.608,18.54,36.993,31.884,35.916z"/>
	<path fill="#B5B5B5" d="M31.733,36.528c13.209-1.098,25.096,13.58,26.55,32.786c1.455,19.205-8.075,35.663-21.284,36.762
		c-13.208,1.098-25.096-13.581-26.551-32.786C8.995,54.084,18.523,37.626,31.733,36.528z"/>
	<path fill="#B6B6B6" d="M31.582,37.141c13.075-1.119,24.875,13.371,26.355,32.362c1.482,18.993-7.917,35.296-20.991,36.414
		S12.071,92.546,10.59,73.554C9.109,54.562,18.507,38.259,31.582,37.141z"/>
	<path fill="#B7B7B7" d="M31.432,37.753c12.94-1.139,24.653,13.162,26.161,31.941c1.509,18.779-7.76,34.926-20.7,36.064
		c-12.939,1.139-24.653-13.162-26.162-31.941C9.224,55.038,18.49,38.892,31.432,37.753z"/>
	<path fill="#B8B8B8" d="M31.281,38.366c12.806-1.159,24.432,12.953,25.967,31.519c1.535,18.568-7.603,34.558-20.408,35.718
		c-12.806,1.159-24.432-12.954-25.968-31.521C9.338,55.515,18.475,39.524,31.281,38.366z"/>
	<path fill="#B9B9B9" d="M31.13,38.979c12.672-1.18,24.211,12.743,25.772,31.097c1.562,18.354-7.444,34.188-20.116,35.368
		c-12.671,1.18-24.21-12.744-25.773-31.099C9.452,55.992,18.458,40.157,31.13,38.979z"/>
	<path fill="#BABABA" d="M30.979,39.591c12.537-1.2,23.989,12.534,25.578,30.674c1.59,18.143-7.287,33.82-19.824,35.021
		S12.744,92.751,11.154,74.61C9.566,56.469,18.441,40.79,30.979,39.591z"/>
	<path fill="#BBBBBB" d="M30.829,40.204c12.402-1.22,23.768,12.324,25.383,30.253c1.617,17.929-7.129,33.451-19.532,34.671
		c-12.402,1.221-23.768-12.325-25.384-30.253C9.681,56.946,18.425,41.423,30.829,40.204z"/>
	<path fill="#BCBCBC" d="M30.678,40.816c12.27-1.241,23.547,12.115,25.189,29.831c1.644,17.716-6.972,33.082-19.24,34.323
		c-12.269,1.24-23.547-12.116-25.19-29.832C9.795,57.422,18.408,42.056,30.678,40.816z"/>
	<path fill="#BDBDBD" d="M30.527,41.428c12.135-1.261,23.325,11.906,24.994,29.409c1.671,17.504-6.813,32.714-18.947,33.975
		c-12.135,1.261-23.325-11.906-24.996-29.41C9.909,57.899,18.392,42.688,30.527,41.428z"/>
	<path fill="#BEBEBE" d="M30.377,42.041c12-1.281,23.104,11.696,24.8,28.987c1.697,17.29-6.656,32.345-18.656,33.626
		S13.417,92.957,11.72,75.667C10.023,58.376,18.376,43.321,30.377,42.041z"/>
	<path fill="#BFBFBF" d="M30.226,42.653c11.866-1.302,22.883,11.487,24.605,28.565c1.725,17.078-6.498,31.977-18.363,33.277
		c-11.866,1.302-22.883-11.488-24.607-28.564C10.138,58.853,18.359,43.954,30.226,42.653z"/>
	<path fill="#C0C0C0" d="M30.075,43.266c11.731-1.322,22.661,11.278,24.411,28.143c1.751,16.865-6.341,31.607-18.072,32.93
		c-11.731,1.321-22.661-11.279-24.412-28.144C10.252,59.33,18.343,44.587,30.075,43.266z"/>
	<path fill="#C1C1C1" d="M29.925,43.878c11.597-1.342,22.439,11.069,24.217,27.721c1.778,16.652-6.184,31.238-17.78,32.581
		c-11.598,1.342-22.44-11.069-24.219-27.722C10.366,59.807,18.326,45.22,29.925,43.878z"/>
	<path fill="#C2C2C2" d="M29.773,44.491C41.236,43.128,51.992,55.35,53.796,71.79c1.806,16.44-6.025,30.87-17.488,32.232
		c-11.462,1.363-22.218-10.86-24.023-27.3C10.48,60.284,18.31,45.853,29.773,44.491z"/>
	<path fill="#C3C3C3" d="M29.623,45.104C40.951,43.72,51.62,55.753,53.451,71.98c1.832,16.227-5.868,30.501-17.196,31.884
		c-11.328,1.384-21.997-10.65-23.829-26.877C10.595,60.76,18.294,46.486,29.623,45.104z"/>
	<path fill="#C4C4C4" d="M29.473,45.716c11.193-1.403,21.775,10.441,23.633,26.455c1.859,16.015-5.71,30.133-16.904,31.536
		c-11.193,1.403-21.775-10.441-23.635-26.455C10.709,61.237,18.277,47.119,29.473,45.716z"/>
	<path fill="#C5C5C5" d="M29.321,46.328c11.06-1.423,21.555,10.232,23.439,26.033c1.886,15.802-5.553,29.764-16.612,31.188
		s-21.555-10.232-23.44-26.033C10.823,61.714,18.261,47.751,29.321,46.328z"/>
	<path fill="#C6C6C6" d="M29.171,46.941c10.926-1.444,21.333,10.022,23.244,25.61c1.913,15.589-5.395,29.396-16.32,30.839
		c-10.925,1.444-21.333-10.023-23.246-25.611C10.938,62.191,18.244,48.384,29.171,46.941z"/>
	<path fill="#C7C7C7" d="M29.021,47.553c10.791-1.464,21.111,9.813,23.05,25.188c1.94,15.377-5.237,29.026-16.028,30.491
		c-10.791,1.464-21.111-9.814-23.052-25.19C11.052,62.667,18.228,49.017,29.021,47.553z"/>
	<path fill="#C8C8C8" d="M28.869,48.166c10.657-1.485,20.891,9.604,22.855,24.766c1.968,15.163-5.079,28.658-15.736,30.143
		c-10.656,1.484-20.89-9.604-22.856-24.768C11.167,63.145,18.211,49.65,28.869,48.166z"/>
	<path fill="#C9C9C9" d="M28.719,48.778c10.522-1.505,20.669,9.395,22.661,24.344c1.994,14.951-4.922,28.289-15.444,29.794
		s-20.669-9.396-22.663-24.345C11.281,63.622,18.195,50.283,28.719,48.778z"/>
	<path fill="#CACACA" d="M28.568,49.391c10.388-1.525,20.447,9.185,22.467,23.922c2.021,14.738-4.765,27.921-15.153,29.445
		c-10.388,1.525-20.447-9.186-22.468-23.923C11.396,64.098,18.179,50.916,28.568,49.391z"/>
	<path fill="#CBCBCB" d="M28.417,50.003c10.254-1.546,20.227,8.976,22.272,23.5c2.048,14.525-4.606,27.552-14.86,29.098
		c-10.254,1.545-20.227-8.977-22.274-23.502C11.51,64.575,18.162,51.548,28.417,50.003z"/>
	<path fill="#CCCCCC" d="M28.267,50.616c10.119-1.566,20.005,8.767,22.078,23.078c2.074,14.312-4.449,27.183-14.569,28.749
		c-10.119,1.565-20.004-8.768-22.079-23.079C11.624,65.052,18.146,52.181,28.267,50.616z"/>
	<path fill="#CDCDCD" d="M28.116,51.228c9.984-1.586,19.783,8.558,21.883,22.656c2.102,14.1-4.291,26.814-14.276,28.4
		c-9.985,1.587-19.783-8.559-21.885-22.656C11.738,65.529,18.129,52.814,28.116,51.228z"/>
	<path fill="#CECECE" d="M27.965,51.841c9.851-1.607,19.562,8.348,21.689,22.235c2.129,13.887-4.134,26.444-13.985,28.051
		c-9.851,1.607-19.562-8.349-21.69-22.234C11.853,66.005,18.113,53.447,27.965,51.841z"/>
	<path fill="#CFCFCF" d="M27.814,52.453c9.717-1.627,19.34,8.139,21.494,21.812c2.156,13.675-3.976,26.077-13.692,27.704
		S16.275,93.83,14.12,80.156C11.967,66.482,18.097,54.08,27.814,52.453z"/>
	<path fill="#D0D0D0" d="M27.663,53.066c9.583-1.647,19.119,7.929,21.301,21.391c2.183,13.461-3.818,25.707-13.401,27.354
		c-9.581,1.647-19.118-7.931-21.301-21.392C12.081,66.959,18.08,54.712,27.663,53.066z"/>
	<path fill="#D1D1D1" d="M27.513,53.678c9.448-1.667,18.897,7.72,21.105,20.968c2.21,13.249-3.66,25.34-13.108,27.007
		c-9.447,1.668-18.897-7.721-21.107-20.969C12.195,67.436,18.063,55.345,27.513,53.678z"/>
	<path fill="#D2D2D2" d="M27.362,54.291c9.313-1.688,18.676,7.511,20.911,20.547c2.236,13.035-3.503,24.97-12.816,26.658
		c-9.313,1.688-18.677-7.512-20.913-20.547C12.31,67.914,18.047,55.978,27.362,54.291z"/>
	<path fill="#D3D3D3" d="M27.211,54.903c9.18-1.708,18.455,7.301,20.718,20.124c2.263,12.824-3.346,24.603-12.525,26.311
		c-9.179,1.708-18.455-7.303-20.719-20.125C12.424,68.39,18.03,56.611,27.211,54.903z"/>
	<path fill="#D4D4D4" d="M27.061,55.516c9.045-1.729,18.233,7.092,20.522,19.703c2.29,12.609-3.188,24.232-12.232,25.961
		s-18.234-7.093-20.524-19.703C12.538,68.867,18.015,57.244,27.061,55.516z"/>
	<path fill="#D5D5D5" d="M26.91,56.128c8.91-1.749,18.012,6.883,20.328,19.279c2.317,12.398-3.03,23.864-11.941,25.613
		c-8.91,1.749-18.012-6.884-20.329-19.281C12.652,69.343,17.998,57.876,26.91,56.128z"/>
	<path fill="#D6D6D6" d="M26.759,56.741c8.776-1.77,17.791,6.674,20.134,18.858c2.345,12.185-2.873,23.495-11.648,25.265
		c-8.776,1.769-17.791-6.675-20.136-18.859C12.767,69.82,17.981,58.509,26.759,56.741z"/>
	<path fill="#D7D7D7" d="M26.608,57.353c8.642-1.79,17.569,6.464,19.939,18.436c2.371,11.973-2.716,23.127-11.357,24.917
		S17.621,94.24,15.25,82.269C12.881,70.297,17.965,59.142,26.608,57.353z"/>
	<path fill="#D8D8D8" d="M26.458,57.966c8.508-1.81,17.348,6.255,19.744,18.014c2.398,11.76-2.558,22.758-11.064,24.567
		c-8.508,1.811-17.349-6.256-19.747-18.015C12.995,70.774,17.948,59.775,26.458,57.966z"/>
	<path fill="#D9D9D9" d="M26.307,58.578c8.374-1.831,17.127,6.046,19.551,17.591c2.425,11.547-2.4,22.39-10.773,24.22
		c-8.373,1.831-17.127-6.046-19.552-17.593C13.109,71.251,17.933,60.408,26.307,58.578z"/>
	<path fill="#DADADA" d="M26.156,59.19c8.239-1.851,16.905,5.837,19.355,17.17c2.452,11.334-2.242,22.021-10.48,23.871
		c-8.239,1.851-16.905-5.838-19.357-17.171C13.224,71.728,17.916,61.041,26.156,59.19z"/>
	<path fill="#DBDBDB" d="M26.006,59.803c8.104-1.871,16.684,5.628,19.161,16.747c2.479,11.122-2.085,21.652-10.189,23.523
		s-16.684-5.628-19.163-16.748C13.338,72.205,17.899,61.673,26.006,59.803z"/>
	<path fill="#DCDCDC" d="M25.854,60.416c7.971-1.891,16.463,5.418,18.967,16.326c2.507,10.908-1.927,21.283-9.896,23.174
		c-7.971,1.892-16.463-5.419-18.969-16.326C13.453,72.681,17.883,62.306,25.854,60.416z"/>
	<path fill="#DDDDDD" d="M25.704,61.028c7.836-1.912,16.241,5.208,18.772,15.903c2.533,10.697-1.77,20.915-9.605,22.827
		c-7.836,1.911-16.241-5.21-18.774-15.905C13.567,73.158,17.866,62.939,25.704,61.028z"/>
	<path fill="#DEDEDE" d="M25.554,61.641c7.701-1.932,16.02,5,18.578,15.482c2.56,10.482-1.612,20.545-9.313,22.478
		c-7.702,1.932-16.021-5.001-18.58-15.483C13.682,73.634,17.851,63.572,25.554,61.641z"/>
	<path fill="#DFDFDF" d="M25.402,62.253c7.567-1.952,15.799,4.791,18.384,15.06c2.587,10.271-1.454,20.177-9.021,22.129
		c-7.566,1.952-15.798-4.791-18.385-15.061C13.796,74.112,17.834,64.205,25.402,62.253z"/>
	<path fill="#E0E0E0" d="M25.252,62.866c7.433-1.973,15.577,4.581,18.189,14.638c2.613,10.058-1.297,19.808-8.729,21.78
		s-15.577-4.581-18.191-14.638C13.91,74.589,17.817,64.837,25.252,62.866z"/>
	<path fill="#E1E1E1" d="M25.102,63.478c7.298-1.993,15.355,4.371,17.994,14.216c2.641,9.845-1.139,19.439-8.438,21.433
		c-7.298,1.993-15.355-4.373-17.996-14.217C14.024,75.066,17.801,65.47,25.102,63.478z"/>
	<path fill="#E2E2E2" d="M24.95,64.09c7.165-2.013,15.135,4.163,17.801,13.794c2.667,9.633-0.981,19.07-8.146,21.084
		s-15.135-4.163-17.802-13.795C14.139,75.542,17.784,66.103,24.95,64.09z"/>
	<path fill="#E3E3E3" d="M24.8,64.703c7.03-2.034,14.913,3.953,17.605,13.372c2.695,9.419-0.823,18.702-7.854,20.735
		c-7.029,2.034-14.913-3.954-17.607-13.373C14.253,76.019,17.768,66.736,24.8,64.703z"/>
	<path fill="#E4E4E4" d="M24.649,65.316c6.896-2.054,14.691,3.743,17.411,12.949c2.722,9.207-0.666,18.333-7.562,20.387
		c-6.896,2.055-14.691-3.744-17.413-12.95C14.367,76.496,17.752,67.369,24.649,65.316z"/>
	<path fill="#E5E5E5" d="M24.498,65.928c6.762-2.075,14.471,3.534,17.217,12.527c2.749,8.994-0.508,17.965-7.27,20.039
		c-6.761,2.074-14.47-3.536-17.219-12.528C14.481,76.972,17.735,68.001,24.498,65.928z"/>
	
		<ellipse transform="matrix(0.9535 -0.3013 0.3013 0.9535 -23.4731 12.6794)" fill="#E6E6E6" cx="29.369" cy="82.438" rx="12.586" ry="16.673"/>
</g>
</svg>
