<?xml version="1.0" encoding="utf-8"?>
<!-- Generator: Adobe Illustrator 16.0.4, SVG Export Plug-In . SVG Version: 6.00 Build 0)  -->
<!DOCTYPE svg PUBLIC "-//W3C//DTD SVG 1.1//EN" "http://www.w3.org/Graphics/SVG/1.1/DTD/svg11.dtd">
<svg version="1.1" id="Ebene_1" xmlns="http://www.w3.org/2000/svg" xmlns:xlink="http://www.w3.org/1999/xlink" x="0px" y="0px"
	 width="404.745px" height="444.648px" viewBox="0 0 404.745 444.648" enable-background="new 0 0 404.745 444.648"
	 xml:space="preserve">
<path fill-rule="evenodd" clip-rule="evenodd" fill="#CCC8C8" d="M156.373,139.964c52.26,61.787,60.317,183.682,25.975,254.829
	c-28.913,59.9-126.554,65.919-163.582,9.574c-37.184-56.581-11.48-154.583,4.924-214.099c10.17-36.9,27.976-63.296,65.699-78.333
	C118.35,100.391,138.631,119.049,156.373,139.964C185.227,174.078,127.469,105.89,156.373,139.964z"/>
<g>
	<path fill="none" d="M37.669,149.623C36.793,148.644,37.424,149.349,37.669,149.623L37.669,149.623z"/>
	<path fill="none" d="M14.01,228.538l-0.636-0.099C13.585,228.473,13.798,228.505,14.01,228.538z"/>
	<path fill="none" d="M178.338,180.211c-11.237-27.862-36.939-73.487-72.368-71.554c-30.045,1.64-64.933,31.116-74.313,57.829
		C9.696,229.026-11.459,316.687,9.058,381.9c18.578,59.048,109.155,82.602,154.261,38.98
		C221.049,364.913,205.193,246.652,178.338,180.211C174.986,171.899,195.561,222.821,178.338,180.211z"/>
	<path fill="#4C4C4C" d="M179.526,179.713c-11.224-27.491-34.863-69.802-68.534-72.249c-27.492-2.066-57.607,23.612-73.323,42.159
		C25.247,168.1,16.588,206.37,14.01,228.538c-21.641,78.273-30.995,203.456,77.144,213.868
		C225.926,455.53,212.646,261.65,179.526,179.713C176.13,171.396,196.827,222.515,179.526,179.713z M163.319,420.881
		C118.213,464.502,27.636,440.948,9.058,381.9c-20.517-65.214,0.638-152.874,22.599-215.415
		c9.38-26.712,44.268-56.189,74.313-57.829c35.428-1.933,61.131,43.692,72.368,71.554
		C205.193,246.652,221.049,364.913,163.319,420.881C146.001,437.629,180.641,404.088,163.319,420.881z"/>
</g>
<path fill-rule="evenodd" clip-rule="evenodd" fill="#036A82" d="M177.794,91.418c-0.611-66.254-138.017-63.312-101.097,6.253
	c12.359,23.287,34.483,33.577,60.4,30.003C153.056,125.474,178.06,110.653,177.794,91.418
	C177.504,59.989,177.859,96.152,177.794,91.418z"/>
<path fill-rule="evenodd" clip-rule="evenodd" fill="#00C9FF" d="M156.284,118.285c1.739-25.567-50.278-36.045-59.589-12.759
	c-9.228,23.076-12.368,50.204-15.604,74.69c-3.82,28.904-6.424,57.979-8.411,87.064c-2.026,29.674-32.797,49.73-59.708,59.7
	c57.531-19.467,120.688-10.454,177.326,7.614c-32.478-20.155-33.065-47.311-34.885-82.265
	C153.089,207.691,153.229,162.887,156.284,118.285C156.697,112.213,151.884,182.52,156.284,118.285z"/>
<path fill-rule="evenodd" clip-rule="evenodd" fill="#036A82" d="M191.631,332.915c-9.003,10.444-35.669-24.882-38.649-32.551
	c-7.918-20.376-5.019-44.371-6.016-65.751c-1.273-27.297-9.647-53.238-14.598-79.914c-5.051-27.215,3.756-26.443,24.644-36.858
	c-17.164,9.311-25.102,11.752-21.965,32.352c3.971,26.081,13.706,51.612,14.653,78.103
	C151.224,268.152,146.954,314.545,191.631,332.915C191.226,333.386,176.668,326.763,191.631,332.915z"/>
<path fill-rule="evenodd" clip-rule="evenodd" fill="#00AEF2" d="M69.797,61.998c-18.193,34.837-27.771,73.379-38.171,110.988
	c-13.158,47.58-30.429,104.946-17.291,154.018c19.87-7.378,51.132-22.446,60.501-43.106c11.963-26.279,12.246-53.438,19.488-80.676
	c5.678-21.354,25.076-57.136,17.03-78.647C102.333,100.483,57.321,94.246,69.797,61.998C65.706,69.831,64.307,76.188,69.797,61.998z
	"/>
<path fill-rule="evenodd" clip-rule="evenodd" fill="#00AEF2" d="M136.549,43.364c4.152-6.892,5.564-15.472,6.157-23.412
	c1.317-17.628-1.31-15.608-16.994-16.892c-15.01-1.229-18.439-5.179-19.827,11.179c-0.739,8.707-1.758,17.67-1.434,26.42
	C114.854,38.616,126.688,39.284,136.549,43.364C142.83,32.938,132.199,41.564,136.549,43.364z"/>
<path fill-rule="evenodd" clip-rule="evenodd" fill="#FFFFFF" d="M30.987,321.816c48.846-23.097,49.116-59.382,60.94-105.627
	c5.216-20.401,37.033-87.352,13.803-101.723c12.4,20.488-2.431,46.853-8.093,67.089c-6.154,21.991-12.157,44.047-16.184,66.552
	c-8.047,44.972-29.419,58.703-68.48,78.874C18.931,325.2,24.806,322.763,30.987,321.816
	C38.009,318.496,25.731,322.621,30.987,321.816z"/>
<path fill-rule="evenodd" clip-rule="evenodd" fill="#FFFFFF" d="M190.298,334.596c-18.086,76.547-130.508,89.587-167.371,21.213
	c-6.934-12.861-16.186-27.441,0.505-32.323c16.076-4.702,32.826-7.174,49.537-8.009
	C110.961,313.578,155.208,318.729,190.298,334.596C181.819,370.484,179.854,329.873,190.298,334.596z"/>
<path fill-rule="evenodd" clip-rule="evenodd" fill="#00AEF2" d="M84.585,99.813c11.06,8.702,23.587,15.83,25.815,30.879
	c-0.042-26.159-33.296-30.592-40.677-53.229c-7.696-23.59,34.788-35.839,50.558-35.022c19.302,1.015,41.833,14.96,51.889,31.263
	c16.707,27.086-9.466,35.742-25.519,48.926c17.587-6.6,38.299-13.979,34.168-36.701c-3.974-22.068-25.57-38.602-45.822-45.022
	C93.515,27.756,39.14,63.903,84.585,99.813C101.739,113.31,68.424,87.043,84.585,99.813z"/>
<path fill="#FFFFFF" d="M200.049,310.562c-3.103,67.846-63.497,117.754-130.309,96.646C-5.985,383.286,0.545,282.148,16.614,220.903
	C7.835,280.166-7.262,372.02,62.636,399.635C127.695,425.34,194.969,379.043,200.049,310.562
	C197.955,356.35,197.304,347.572,200.049,310.562z"/>
<path fill-rule="evenodd" clip-rule="evenodd" fill="#00AEF2" d="M180.032,82.696c11.198,45.555,1.278,92.81,10.776,137.173
	c5.92,27.652,20.148,90.431-0.073,114.992c-51.122-31.727-34.754-81.119-44.353-130.88c-3.651-18.928-21.315-56.179-10.479-73.955
	C148.692,109.049,187.989,120.014,180.032,82.696z"/>
<g>
	<path fill-rule="evenodd" clip-rule="evenodd" fill="#702B44" d="M52.49,228.465c1.915,8.596,13.811,4.958,12.021-3.227
		C62.598,216.684,50.554,220.268,52.49,228.465C53.292,232.066,51.639,224.859,52.49,228.465z"/>
	<path d="M71.388,224.797c-4.225-18.868-29.58-9.744-25.543,6.837C50.116,250.669,75.237,241.408,71.388,224.797
		C70.047,218.809,71.691,226.107,71.388,224.797z M60.245,235.167c-7.756,2.091-10.841-11.001-2.957-13.099
		C65.075,220.156,68.179,233.095,60.245,235.167C59.585,235.345,63.576,234.297,60.245,235.167z"/>
	<path fill="none" d="M59.056,220.148c-8.076-0.679-9.089,12.648-1.115,13.451C65.95,234.262,67.061,220.952,59.056,220.148
		C58.37,220.091,61.604,220.404,59.056,220.148z"/>
	<path fill="#E5E5E5" d="M71.12,223.029c-4.367-18.88-29.07-9.79-25.587,6.834C49.845,248.677,74.555,239.509,71.12,223.029
		C69.734,217.038,71.383,224.292,71.12,223.029z M59.978,233.4c-7.656,2.358-10.909-11.02-2.955-13.099
		C64.782,218.222,67.867,231.3,59.978,233.4C59.271,233.618,63.265,232.525,59.978,233.4z"/>
	<path fill="#B2B2B2" d="M70.167,222.904c-3.496-15.249-23.676-10.558-23.805,3.583C45.693,246.184,73.869,241.038,70.167,222.904
		C68.987,217.757,70.396,224.026,70.167,222.904z M59.978,233.4c-7.656,2.358-10.909-11.02-2.955-13.099
		C64.782,218.222,67.867,231.3,59.978,233.4C59.271,233.618,63.265,232.525,59.978,233.4z"/>
	<path fill="#666666" d="M65.137,224.877c-2.257-9.761-14.805-4.52-12.829,3.572C54.404,237.914,67.18,233.237,65.137,224.877
		C64.292,221.223,65.274,225.438,65.137,224.877z M60.022,232.854c-7.346,2.133-10.345-10.48-2.823-12.494
		C64.628,218.401,67.621,230.862,60.022,232.854C59.41,233.032,63.214,232.018,60.022,232.854z"/>
	<path fill-rule="evenodd" clip-rule="evenodd" fill="#FFFFFF" d="M48.94,221.973c1.741-3.145,4.229-5.463,7.464-6.955
		C54.089,212.283,48.451,220.033,48.94,221.973C50.187,218.587,48.49,220.19,48.94,221.973z"/>
</g>
<g>
	<path fill-rule="evenodd" clip-rule="evenodd" fill="#702B44" d="M41.407,269.145c1.916,8.58,13.701,4.902,11.884-3.239
		C51.378,257.314,39.593,261.017,41.407,269.145C42.211,272.746,40.603,265.543,41.407,269.145z"/>
	<path d="M60.123,265.459c-4.23-19.081-28.558-9.684-25.269,6.861C39.127,291.386,63.562,281.988,60.123,265.459
		C58.786,259.427,60.386,266.722,60.123,265.459z M49.117,275.843c-7.751,1.883-10.719-11.013-2.91-13.097
		C53.75,260.243,56.942,273.721,49.117,275.843C48.413,276.014,52.357,274.964,49.117,275.843z"/>
	<path fill="#FFFFFF" d="M59.811,263.69c-4.252-19.008-28.657-9.689-25.223,6.863C38.77,289.371,63.786,280.007,59.811,263.69
		C58.471,257.701,60.119,264.955,59.811,263.69z M48.803,274.073c-7.712,2.067-10.683-10.989-2.909-13.096
		C53.644,259.086,56.611,271.993,48.803,274.073C48.147,274.249,52.09,273.197,48.803,274.073z"/>
	<path fill="#B2B2B2" d="M58.903,263.569c-3.506-15.286-23.469-10.528-23.532,3.605C35.755,287.277,62.71,281.11,58.903,263.569
		C57.722,258.42,59.136,264.643,58.903,263.569z M48.803,274.073c-7.712,2.067-10.683-10.989-2.909-13.096
		C53.644,259.086,56.611,271.993,48.803,274.073C48.147,274.249,52.09,273.197,48.803,274.073z"/>
	<path fill="#4C4C4C" d="M53.922,265.497c-2.285-9.709-14.729-4.402-12.648,3.59C43.349,278.638,55.751,273.847,53.922,265.497
		C53.073,261.892,54.055,266.105,53.922,265.497z M48.896,273.528c-7.358,1.97-10.211-10.499-2.777-12.488
		C53.466,259.087,56.332,271.543,48.896,273.528C48.239,273.704,52.041,272.688,48.896,273.528z"/>
	<path fill-rule="evenodd" clip-rule="evenodd" fill="#FFFFFF" d="M36.79,266.695c1.356-5.781,5.583-9.496,10.911-11.447
		C42.455,254.446,34.932,260.873,36.79,266.695C38.564,259.13,35.841,263.724,36.79,266.695z"/>
</g>
<path fill="#242225" d="M9.052,303.379c-3.121,51.415,24.332,96.267,77.529,104.437c54.292,8.338,98.898-30.682,109.689-82.69
	c-15.032,54.291-60.234,89.949-117.85,76.553C32.847,391.081,8.108,348.215,9.052,303.379
	C6.534,344.857,8.208,343.481,9.052,303.379z"/>
<g>
	<path fill-rule="evenodd" clip-rule="evenodd" fill="#702B44" d="M69.664,145.822c2.189,8.412,14.962,5.351,12.888-3.157
		C80.454,134.218,67.566,137.357,69.664,145.822C70.604,149.435,68.769,142.212,69.664,145.822z"/>
	<path d="M89.977,142.27c-4.736-18.641-31.555-10.558-27.369,6.687C67.194,167.753,93.95,159.512,89.977,142.27
		C88.452,136.268,90.279,143.581,89.977,142.27z M78.057,152.578c-8.055,1.962-11.81-11.069-3.228-13.123
		C82.876,137.488,86.652,150.517,78.057,152.578C77.355,152.749,81.616,151.725,78.057,152.578z"/>
	<path fill="#FFFFFF" d="M89.617,140.495c-4.599-18.693-32.09-10.377-27.32,6.691C66.82,165.738,93.771,157.543,89.617,140.495
		C88.141,134.496,89.925,141.761,89.617,140.495z M77.744,150.806c-7.922,2.44-11.855-10.925-3.275-13.125
		C82.563,135.878,86.375,148.743,77.744,150.806C77.037,151.023,81.305,149.955,77.744,150.806z"/>
	<path fill="#CCCCCC" d="M88.617,140.366c-3.729-15.122-25.354-11.144-25.536,3.442C63.366,163.914,93.035,158.353,88.617,140.366
		C87.346,135.211,88.893,141.491,88.617,140.366z M77.744,150.806c-7.922,2.44-11.855-10.925-3.275-13.125
		C82.563,135.878,86.375,148.743,77.744,150.806C77.037,151.023,81.305,149.955,77.744,150.806z"/>
	<path fill="#666666" d="M83.223,142.307c-2.449-9.571-15.516-4.943-13.742,3.5C71.816,155.211,85.956,150.819,83.223,142.307
		C82.287,138.649,83.405,142.875,83.223,142.307z M77.835,150.264c-7.708,1.887-11.341-10.521-3.14-12.519
		C82.393,135.855,86.06,148.258,77.835,150.264C77.133,150.436,81.209,149.441,77.835,150.264z"/>
	<path fill-rule="evenodd" clip-rule="evenodd" fill="#FFFFFF" d="M66.193,140.23c1.303-2.701,3.312-4.669,6.029-5.905
		C69.726,131.673,65.553,138.119,66.193,140.23C67.119,137.507,65.651,138.443,66.193,140.23z"/>
</g>
<g>
	<path fill-rule="evenodd" clip-rule="evenodd" fill="#702B44" d="M168.978,154.645c-2.384,8.863-11.547,1.72-9.823-5.039
		C161.54,140.736,170.699,147.884,168.978,154.645C168.048,158.102,169.859,151.182,168.978,154.645z"/>
	<path d="M167.334,140.09c-14.215-7.781-19.186,20.426-6.944,26.744C175.032,174.317,179.509,146.273,167.334,140.09
		C166.545,139.658,173.062,142.999,167.334,140.09z M168.605,156.357c-2.348,8.834-11.648,1.926-9.776-5.034
		C161.064,142.398,170.365,149.396,168.605,156.357C167.805,159.367,169.492,152.851,168.605,156.357z"/>
	<path fill="#FFFFFF" d="M167.662,138.373c-14.195-7.772-19.095,20.242-6.84,26.569
		C175.237,172.693,179.775,144.624,167.662,138.373C166.871,137.939,173.385,141.326,167.662,138.373z M168.978,154.645
		c-2.372,8.912-11.597,1.914-9.823-5.039C161.532,140.684,170.745,147.701,168.978,154.645
		C168.177,157.653,169.859,151.182,168.978,154.645z"/>
	<path fill="#CCCCCC" d="M167.045,139.148c-13.05-6.94-16.936,19.148-6.056,24.888C174.869,170.986,177.965,145.002,167.045,139.148
		C166.431,138.822,171.706,141.646,167.045,139.148z M168.978,154.645c-2.372,8.912-11.597,1.914-9.823-5.039
		C161.532,140.684,170.745,147.701,168.978,154.645C168.177,157.653,169.859,151.182,168.978,154.645z"/>
	<path fill="#666666" d="M165.762,145.24c-7.511-4.112-10.029,10.36-3.589,13.385C169.728,161.862,171.693,148.599,165.762,145.24
		C165.366,145.023,168.611,146.854,165.762,145.24z M168.642,154.248c-2.191,8.484-11.083,1.857-9.334-4.813
		C161.533,140.917,170.281,147.639,168.642,154.248C167.899,157.125,169.467,150.92,168.642,154.248z"/>
	<path fill-rule="evenodd" clip-rule="evenodd" fill="#FFFFFF" d="M170.667,151.983c-0.178-4.268-2.269-7.104-6.274-8.509
		C169.863,143.709,171.954,146.545,170.667,151.983C170.517,148.25,171.298,149.875,170.667,151.983z"/>
</g>
<g>
	<path fill-rule="evenodd" clip-rule="evenodd" fill="#702B44" d="M172.842,196.102c-2.156,8.93-10.811,1.575-9.137-4.981
		C165.874,182.151,174.416,189.604,172.842,196.102C172.006,199.566,173.682,192.635,172.842,196.102z"/>
	<path d="M171.385,181.562c-13.351-7.664-17.964,20.586-6.624,26.771C178.169,215.981,182.714,187.747,171.385,181.562
		C170.64,181.135,176.743,184.487,171.385,181.562z M172.517,197.819c-2.244,8.974-10.862,1.768-9.136-4.981
		C165.5,183.814,174.141,191.101,172.517,197.819C171.764,200.832,173.354,194.354,172.517,197.819z"/>
	<path fill="#FFFFFF" d="M171.71,179.846c-13.951-7.13-17.789,20.568-6.563,26.591C178.613,214.157,183.012,186.012,171.71,179.846
		C170.959,179.462,177.069,182.77,171.71,179.846z M172.842,196.102c-2.247,8.985-10.857,1.759-9.137-4.981
		C165.953,182.143,174.459,189.423,172.842,196.102C172.089,199.114,173.682,192.635,172.842,196.102z"/>
	<path fill="#CCCCCC" d="M171.139,180.624c-12.151-6.857-15.879,19.273-5.826,24.908
		C178.647,212.155,181.136,186.315,171.139,180.624C170.57,180.303,175.482,183.097,171.139,180.624z M172.842,196.102
		c-2.247,8.985-10.857,1.759-9.137-4.981C165.953,182.143,174.459,189.423,172.842,196.102
		C172.089,199.114,173.682,192.635,172.842,196.102z"/>
	<path fill="#666666" d="M169.899,186.767c-6.666-4.411-9.569,10.35-3.407,13.399C173.29,203.78,175.361,190.042,169.899,186.767
		C169.504,186.505,172.565,188.365,169.899,186.767z M172.554,195.711c-2.212,8.552-10.35,1.682-8.746-4.72
		C165.89,182.404,174.171,189.269,172.554,195.711C171.811,198.586,173.378,192.428,172.554,195.711z"/>
	<path fill-rule="evenodd" clip-rule="evenodd" fill="#FFFFFF" d="M174.482,193.482c-0.065-4.178-2.018-7.019-5.858-8.521
		C173.878,185.331,175.831,188.171,174.482,193.482C174.338,189.706,175.075,191.327,174.482,193.482z"/>
</g>
<g>
	<path fill-rule="evenodd" clip-rule="evenodd" d="M137.544,50.757c0.683-0.059,3.344,2.399,3.928,0.785
		C139.612,49.034,136.354,50.162,137.544,50.757z"/>
	<path fill-rule="evenodd" clip-rule="evenodd" fill="#B2B2B2" d="M138.031,50.431c0.714-0.047,3.291,2.46,3.925,0.829
		C140.128,48.791,136.866,49.848,138.031,50.431z"/>
</g>
<g>
	<path fill-rule="evenodd" clip-rule="evenodd" d="M131.291,48.632c0.792-0.12,3.38,2.218,3.999,0.516
		C133.171,46.757,130.176,48.225,131.291,48.632z"/>
	<path fill-rule="evenodd" clip-rule="evenodd" fill="#E5E5E5" d="M131.517,48.147c0.784-0.114,3.36,2.186,3.993,0.56
		C133.389,46.234,130.472,47.765,131.517,48.147z"/>
</g>
<g>
	<path fill-rule="evenodd" clip-rule="evenodd" fill="#191919" d="M125.121,47.203c0.706-0.195,3.738,1.76,4.039,0.013
		C126.658,44.947,124.266,47.044,125.121,47.203z"/>
	<path fill-rule="evenodd" clip-rule="evenodd" fill="#FFFFFF" d="M125.386,46.766c0.85-0.238,3.559,1.8,4.039,0.013
		C126.9,44.53,124.478,46.607,125.386,46.766z"/>
</g>
<g>
	<path fill-rule="evenodd" clip-rule="evenodd" d="M118.687,46.717c0.66-0.323,3.981,1.058,3.962-0.729
		C120.001,44.359,117.432,46.614,118.687,46.717z"/>
	<path fill-rule="evenodd" clip-rule="evenodd" fill="#FFFFFF" d="M118.812,46.314c0.758-0.383,3.818,1.034,3.964-0.729
		C120.105,43.979,117.446,46.201,118.812,46.314z"/>
</g>
<g>
	<path fill-rule="evenodd" clip-rule="evenodd" d="M112.643,47.089c0.728-0.472,3.878,0.626,3.859-1.15
		C113.487,44.545,111.592,47.189,112.643,47.089z"/>
	<path fill-rule="evenodd" clip-rule="evenodd" fill="#FFFFFF" d="M112.632,46.674c0.664-0.417,4.041,0.673,3.859-1.15
		C113.457,44.098,111.706,46.778,112.632,46.674z"/>
</g>
<g>
	<path fill-rule="evenodd" clip-rule="evenodd" d="M106.549,48.052c0.6-0.507,4.039,0.039,3.671-1.669
		C107.122,45.398,105.511,48.272,106.549,48.052z"/>
	<path fill-rule="evenodd" clip-rule="evenodd" fill="#FFFFFF" d="M106.535,47.638c0.662-0.55,4.016,0.161,3.674-1.669
		C107.142,45.037,105.447,47.87,106.535,47.638z"/>
</g>
<g>
	<path fill-rule="evenodd" clip-rule="evenodd" d="M100.691,50.047c0.559-0.599,4.005-0.404,3.477-2.099
		C101.073,47.391,99.491,50.413,100.691,50.047z"/>
	<path fill-rule="evenodd" clip-rule="evenodd" fill="#FFFFFF" d="M100.682,49.586c0.556-0.601,3.955-0.349,3.43-2.057
		C100.867,46.924,99.686,49.945,100.682,49.586z"/>
</g>
<g>
	<path fill-rule="evenodd" clip-rule="evenodd" fill="#666666" d="M95.083,52.338c0.528-0.687,3.902-0.696,3.229-2.396
		C95.239,49.681,93.833,52.836,95.083,52.338z"/>
	<path fill-rule="evenodd" clip-rule="evenodd" fill="#FFFFFF" d="M94.88,51.999c0.479-0.628,3.967-0.764,3.229-2.395
		C95.003,49.332,93.667,52.485,94.88,51.999z"/>
</g>
<g>
	<path fill-rule="evenodd" clip-rule="evenodd" fill="#7F7F7F" d="M89.708,55.152c0.432-0.693,3.839-1.196,2.979-2.738
		C89.525,52.462,88.691,55.71,89.708,55.152z"/>
	<path fill-rule="evenodd" clip-rule="evenodd" fill="#FFFFFF" d="M89.509,54.768c0.445-0.719,3.87-1.12,2.983-2.736
		C89.31,52.081,88.492,55.33,89.509,54.768z"/>
</g>
<g>
	<path fill-rule="evenodd" clip-rule="evenodd" fill="#7F7F7F" d="M85.023,57.932c-0.318,0.65,4.001-4.795,1.241-2.79
		C84.905,55.808,83.502,59.036,85.023,57.932z"/>
	<path fill-rule="evenodd" clip-rule="evenodd" fill="#FFFFFF" d="M84.727,57.633c-0.287,0.609,4.14-4.643,1.195-2.794
		C84.819,55.394,82.881,58.789,84.727,57.633z"/>
</g>
<g>
	<path fill-rule="evenodd" clip-rule="evenodd" fill="#999999" d="M80.755,61.252c-0.215,0.659,3.256-5.307,0.837-2.916
		C80.3,59.204,79.479,62.509,80.755,61.252z"/>
	<path fill-rule="evenodd" clip-rule="evenodd" fill="#FFFFFF" d="M80.4,61.084c-0.238,0.716,3.257-5.303,0.838-2.915
		C79.949,59.036,79.126,62.342,80.4,61.084z"/>
</g>
<g>
	<path fill-rule="evenodd" clip-rule="evenodd" fill="#666666" d="M143.765,53.248C149.793,52.818,143.661,53.183,143.765,53.248
		C143.765,53.248,143.504,53.087,143.765,53.248z"/>
	<path fill-rule="evenodd" clip-rule="evenodd" fill="#B2B2B2" d="M144.108,53C150.133,52.501,143.978,52.92,144.108,53
		C144.108,53,143.846,52.84,144.108,53z"/>
</g>
<g>
	<path fill-rule="evenodd" clip-rule="evenodd" fill="#702B44" d="M61.584,187.943c1.914,8.575,13.849,4.953,12.019-3.229
		C71.693,176.129,59.786,179.744,61.584,187.943C62.388,191.545,60.784,184.296,61.584,187.943z"/>
	<path d="M80.529,184.277c-4.349-18.992-29.053-9.884-25.585,6.789C59.312,210.115,83.992,200.925,80.529,184.277
		C79.146,178.24,80.792,185.54,80.529,184.277z M69.384,194.65c-7.809,1.889-10.882-10.939-2.997-13.149
		C74.208,179.582,77.269,192.439,69.384,194.65C68.681,194.82,72.675,193.728,69.384,194.65z"/>
	<path fill="#FFFFFF" d="M80.215,182.506c-4.206-19.006-29.365-9.795-25.543,6.841C58.893,208.118,84.229,198.919,80.215,182.506
		C78.88,176.474,80.525,183.773,80.215,182.506z M69.073,192.879c-7.755,2.062-10.876-11.033-2.956-13.099
		C73.682,177.232,77.006,190.698,69.073,192.879C68.416,193.054,72.409,191.962,69.073,192.879z"/>
	<path fill="#B2B2B2" d="M79.263,182.383c-3.469-15.307-23.736-10.6-23.804,3.585C55.8,206.016,83.07,200.053,79.263,182.383
		C78.085,177.188,79.494,183.457,79.263,182.383z M69.073,192.879c-7.755,2.062-10.876-11.033-2.956-13.099
		C73.682,177.232,77.006,190.698,69.073,192.879C68.416,193.054,72.409,191.962,69.073,192.879z"/>
	<path fill="#666666" d="M74.236,184.31c-2.25-9.724-14.555-4.563-12.831,3.573C63.641,197.385,76.08,192.718,74.236,184.31
		C73.391,180.656,74.369,184.915,74.236,184.31z M69.163,192.335c-7.409,1.992-10.42-10.522-2.864-12.54
		C73.726,177.806,76.714,190.318,69.163,192.335C68.506,192.512,72.308,191.495,69.163,192.335z"/>
	<path fill-rule="evenodd" clip-rule="evenodd" fill="#FFFFFF" d="M57.671,181.974c1.784-3.718,4.668-6.204,8.652-7.458
		C63.655,171.368,57.077,179.826,57.671,181.974C59.364,178.715,57.176,180.186,57.671,181.974z"/>
</g>
<g>
	<path fill-rule="evenodd" clip-rule="evenodd" fill="#2B120F" d="M146.326,200.838c-21.62-1.047-43.231-2.437-64.755-4.766
		c-20.037-5.664-19.777-15.368,0.756-16.649c16.19-1.01,32.718,0.727,48.846,2.215c10.369,0.956,19.748,3.128,29.818,5.677
		C187.018,194.134,155.601,200.216,146.326,200.838C124.971,199.804,153.668,200.346,146.326,200.838z"/>
	<path fill-rule="evenodd" clip-rule="evenodd" fill="#FFFFFF" d="M146.73,199.86c-21.598-0.753-43.155-2.798-64.647-4.987
		c-10.982-3.225-27.167-14.313-6.095-15.736c17.929-1.212,35.981-0.339,53.854,1.308c10.709,0.986,20.837,2.267,31.103,5.646
		C187.088,194.695,156.592,199.175,146.73,199.86C126.587,199.158,154.256,199.337,146.73,199.86z"/>
	<path fill-rule="evenodd" clip-rule="evenodd" fill="#B2B2B2" d="M147.207,184.657c-23.195-3.685-54.077-8.981-77.471-2.559
		c29.983-1.636,66.214-1.949,94.733,8.12C159.087,187.233,153.333,185.379,147.207,184.657
		C122.465,180.727,153.554,185.642,147.207,184.657z"/>
</g>
<g>
	<path fill-rule="evenodd" clip-rule="evenodd" fill="#702B44" d="M176.562,238.785c-2.089,9.237-9.135,1.079-7.865-4.829
		C170.793,224.783,177.827,232.905,176.562,238.785C175.767,242.302,177.31,235.312,176.562,238.785z"/>
	<path d="M175.465,224.325c-12.111-6.923-15.403,21.021-6.03,26.772C180.71,258.434,185.151,230.262,175.465,224.325
		C174.807,223.949,180.053,227.137,175.465,224.325z M176.237,240.504c-2.017,9.176-9.235,1.375-7.82-4.826
		C170.438,226.487,177.655,234.286,176.237,240.504C175.573,243.524,177.029,237.033,176.237,240.504z"/>
	<path fill="#FFFFFF" d="M175.74,222.649c-10.86-7.485-15.664,20.493-5.965,26.594C181.923,256.167,185.125,228.304,175.74,222.649
		C175.133,222.231,180.333,225.417,175.74,222.649z M176.562,238.785c-2.173,9.246-9.181,1.296-7.865-4.829
		C170.872,224.731,177.875,232.683,176.562,238.785C175.853,241.804,177.31,235.312,176.562,238.785z"/>
	<path fill="#CCCCCC" d="M175.218,223.433c-10.474-6.891-10.921,15.819-8.741,20.534
		C173.832,259.872,189.305,232.359,175.218,223.433C174.739,223.117,178.968,225.809,175.218,223.433z M176.562,238.785
		c-2.173,9.246-9.181,1.296-7.865-4.829C170.872,224.731,177.875,232.683,176.562,238.785
		C175.853,241.804,177.31,235.312,176.562,238.785z"/>
	<path fill="#666666" d="M174.118,229.493c-6.274-3.831-8.135,10.616-3.084,13.427C176.847,246.476,178.593,232.596,174.118,229.493
		C173.769,229.28,176.375,231.058,174.118,229.493z M176.27,238.441c-1.847,8.793-8.769,1.26-7.465-4.659
		C170.784,225.021,177.658,232.51,176.27,238.441C175.663,241.329,177.05,235.108,176.27,238.441z"/>
	<path fill-rule="evenodd" clip-rule="evenodd" fill="#FFFFFF" d="M177.974,236.149c0.163-3.94-1.488-6.74-4.952-8.399
		C177.821,228.346,179.472,231.146,177.974,236.149C177.918,232.379,178.519,233.989,177.974,236.149z"/>
</g>
<g>
	<path fill-rule="evenodd" clip-rule="evenodd" fill="#2B120F" d="M146.764,243.802c-23.781-1.875-47.589-3.391-71.371-5.268
		c-26.695-7.871-18.348-18.69,6.487-17.454c21.673,1.079,44.738,0.373,66.029,4.918c8.401,1.794,16.603,4.389,24.963,6.33
		C176.658,247.836,156.416,242.812,146.764,243.802C123.09,241.936,155.422,242.913,146.764,243.802z"/>
	<path fill-rule="evenodd" clip-rule="evenodd" fill="#FFFFFF" d="M147.222,242.142c-23.759-1.969-47.57-3.251-71.326-5.264
		c-26.784-7.448-18.385-18.056,6.429-16.801c24.972,1.264,51.537,0.399,75.832,6.992c5.521,1.498,16.577,2.521,16.121,10.116
		C173.815,244.901,153.247,241.807,147.222,242.142C123.465,240.173,155.846,241.662,147.222,242.142z"/>
	<path fill-rule="evenodd" clip-rule="evenodd" fill="#B2B2B2" d="M142.782,225.888c-24.829-3.064-54.299-7.522-79.33-2.85
		c34.785,1.055,68.957,2.407,102.987,9.905C160.046,228.855,150.239,226.824,142.782,225.888
		C113.423,222.264,146.009,226.293,142.782,225.888z"/>
</g>
<g>
	<path fill-rule="evenodd" clip-rule="evenodd" fill="#702B44" d="M181.438,281.935c-2.092,9.155-9.167,1.041-7.815-4.871
		C175.716,267.89,182.776,276.019,181.438,281.935C180.645,285.404,182.232,278.42,181.438,281.935z"/>
	<path d="M180.347,267.382c-11.75-7.122-15.389,21.01-5.989,26.866C186.499,301.147,189.594,273.151,180.347,267.382
		C179.733,267.01,184.931,270.242,180.347,267.382z M181.114,283.607c-2.028,9.236-9.148,1.34-7.817-4.827
		C175.458,269.585,182.528,277.425,181.114,283.607C180.451,286.628,181.908,280.138,181.114,283.607z"/>
	<path fill="#FFFFFF" d="M180.668,265.71c-11.334-7.318-15.565,20.658-5.97,26.638C186.902,299.268,189.964,271.406,180.668,265.71
		C180.016,265.289,185.257,268.521,180.668,265.71z M181.438,281.935c-2.027,9.147-9.229,1.312-7.815-4.871
		C175.645,267.853,182.839,275.737,181.438,281.935C180.778,284.909,182.232,278.42,181.438,281.935z"/>
	<path fill="#CCCCCC" d="M180.145,266.492c-10.508-6.913-10.973,15.858-8.776,20.593
		C178.746,302.982,194.099,275.514,180.145,266.492C179.667,266.178,183.892,268.915,180.145,266.492z M181.438,281.935
		c-2.027,9.147-9.229,1.312-7.815-4.871C175.645,267.853,182.839,275.737,181.438,281.935
		C180.778,284.909,182.232,278.42,181.438,281.935z"/>
	<path fill="#333333" d="M178.997,272.596c-5.898-4.052-8.219,10.508-3.085,13.426C182.138,289.354,183.451,275.628,178.997,272.596
		C178.693,272.387,181.301,274.164,178.997,272.596z M181.194,281.546c-1.992,8.817-8.761,1.214-7.467-4.657
		C175.723,268.075,182.483,275.682,181.194,281.546C180.542,284.431,181.928,278.21,181.194,281.546z"/>
	<path fill-rule="evenodd" clip-rule="evenodd" fill="#FFFFFF" d="M182.853,279.251c0.174-3.922-1.461-6.72-4.906-8.395
		C182.687,271.506,184.323,274.304,182.853,279.251C182.839,275.532,183.444,277.096,182.853,279.251z"/>
</g>
<g>
	<path fill-rule="evenodd" clip-rule="evenodd" fill="#2B120F" d="M148.873,285.39c-30.722-2.544-61.428-5.172-92.13-7.943
		c-12.486-1.128-16.529-12.966-3.497-15.144c20.252-3.385,44.487,1.305,64.922,2.712c17.211,1.186,34.069,2.447,50.517,8.018
		C196.374,282.409,157.514,285.208,148.873,285.39z"/>
	<path fill-rule="evenodd" clip-rule="evenodd" fill="#FFFFFF" d="M149.326,284.37c-15.522-1.339-31.045-2.678-46.568-4.017
		c-12.602-1.086-35.025,1.468-46.568-4.016c-15.164-6.429-12.157-13.833,2.217-14.825c17.417-1.203,35.143,0.812,52.534,1.915
		c20.174,1.28,40.384,2.304,59.574,9.242C197.782,282.528,157.103,284.082,149.326,284.37z"/>
	<path fill-rule="evenodd" clip-rule="evenodd" fill="#B2B2B2" d="M144.226,267.787c-28.812-3.385-63.369-9.125-92.116-2.577
		c38.131,0.953,80.31-2.75,117.003,9.738C162.428,269.952,152.196,268.748,144.226,267.787
		C123.036,265.298,152.772,268.817,144.226,267.787z"/>
</g>
<g>
	<path fill-rule="evenodd" clip-rule="evenodd" fill="#2B120F" d="M125.338,147.682c5.282-16.956,29.404-3.047,40.303,1.226
		C167.179,170.753,133.038,155.41,125.338,147.682z"/>
	<path fill-rule="evenodd" clip-rule="evenodd" fill="#E5E5E5" d="M125.86,148.042c3.925-13.471,40.669-8.864,40.212,4.73
		C165.529,168.954,131.896,151.987,125.86,148.042C126.5,145.846,142.673,159.031,125.86,148.042z"/>
</g>
<g>
	<path fill-rule="evenodd" clip-rule="evenodd" fill="#2B120F" d="M115.512,146.042c1.959-16.514-30.382-8.729-40.632-7.223
		C68.152,161.49,106.886,150.75,115.512,146.042z"/>
	<path fill-rule="evenodd" clip-rule="evenodd" fill="#E5E5E5" d="M115.171,146.285c5.206-16.601-41.571-13.69-41.356-2.644
		C74.138,160.172,107.479,148.719,115.171,146.285C115.858,144.092,91.832,153.672,115.171,146.285z"/>
</g>
<g>
	<path fill="#191919" d="M200.076,105.66c-17.613-30.746-43.499,3.597-58.118,18.474c-25.294,25.737-31.061-9.899-50.709-28.201
		c-8.115-7.559-19.295-15.997-31.176-14.448c-11.833,1.542-24.634,16.318-19.239,28.473c10.162,22.896,52.52,27.422,73.482,31.66
		c-10.55,2.051-76.744,11.21-72.415,24.539c15.197-6.519,30.8-8.354,47.052-11.444c11.66-2.216,30.401-0.686,40.435-4.388
		c8.938,3.907,54.761,29.958,57.351,26.561c-15.635-16.07-31.599-22.426-51.296-34.221
		C153.896,144.191,218.479,137.924,200.076,105.66C190.288,88.573,212.543,127.519,200.076,105.66z M81.738,125.879
		c-10.397-3.032-50.862-21.069-22.288-34.077c20.655-9.403,46.311,29.103,54.554,43.083
		C103.58,130.96,92.415,128.991,81.738,125.879C61.744,120.049,93.886,129.42,81.738,125.879z M140.307,135.468
		c8.981-9.021,38.374-48.369,49.832-22.892C199.568,133.379,150.859,135.831,140.307,135.468
		C149.021,126.715,144.199,135.602,140.307,135.468z"/>
	<path fill="#FFFFFF" stroke="#7F7F7F" d="M83.72,88.096C64.274,73.36,21.938,88.97,43.372,112.984
		c16.193,18.142,47.667,21.666,69.983,26.398c-10.709,2.078-76.558,11.006-72.417,24.539c10.362-4.457,72.29-10.282,74.744-18.987
		C121.915,122.821,101.036,101.251,83.72,88.096C70.239,77.881,99.311,99.941,83.72,88.096z M80.779,123.597
		c-10.366-3.023-50.886-21.101-22.288-34.071c20.63-9.356,46.342,29.132,54.549,43.122
		C102.638,128.663,91.453,126.706,80.779,123.597C60.785,117.766,92.928,127.135,80.779,123.597z"/>
	<path fill="#FFFFFF" stroke="#7F7F7F" d="M199.114,103.423c-20.937-36.814-54.542,15.972-71.244,30.312
		c2.512,20.791,16.059,19.052,33.441,29.177c6.461,3.752,21.188,17.358,26.106,11.871c-16.608-14.742-33.216-22.643-52.938-34.355
		C152.915,141.713,217.554,135.797,199.114,103.423C189.456,86.44,211.62,125.379,199.114,103.423z M139.349,133.185
		c8.961-9.002,37.823-48.146,49.262-22.706C198.028,131.472,149.694,132.097,139.349,133.185
		C148.063,124.431,143.841,132.712,139.349,133.185z"/>
	<path fill="#FFFFFF" stroke="#7F7F7F" stroke-width="1.0001" d="M115.052,147.168C146.282,160.146,115.318,109.112,115.052,147.168
		C120.688,149.51,115.052,147.168,115.052,147.168z"/>
</g>
<g>
	<g>
		<path d="M187.275,134.314l1.817-0.908c0.555-0.317,1.084-0.666,1.627-0.996c0.53-0.35,1.024-0.757,1.538-1.132
			c0.504-0.389,0.956-0.842,1.436-1.259c0.916-0.884,1.762-1.836,2.528-2.852c0.76-1.019,1.438-2.096,2.041-3.214
			c0.595-1.122,1.108-2.285,1.541-3.479c0.424-1.196,0.765-2.42,1.024-3.661c0.25-1.243,0.415-2.5,0.5-3.764
			c0.047-0.631,0.031-1.265,0.049-1.897c-0.002-0.632-0.061-1.263-0.087-1.894c-0.054-0.629-0.153-1.253-0.227-1.879
			c-0.11-0.621-0.249-1.236-0.371-1.854l-0.521-1.813c-0.227-0.586-0.431-1.181-0.675-1.758c-0.279-0.561-0.518-1.143-0.829-1.686
			c-0.332-0.53-0.604-1.098-0.981-1.596c-0.71-1.025-1.501-1.998-2.408-2.847c-0.453-0.427-0.898-0.86-1.41-1.215l-0.741-0.563
			c-0.251-0.182-0.527-0.328-0.79-0.493l-0.795-0.483c-0.273-0.146-0.56-0.269-0.838-0.404l-0.841-0.399
			c-0.287-0.118-0.585-0.21-0.876-0.317c-0.583-0.214-1.168-0.422-1.781-0.546c-0.606-0.142-1.203-0.321-1.826-0.383
			c-0.62-0.072-1.229-0.216-1.855-0.237l-1.873-0.103l-0.567-0.031l-0.138-0.554l-1.034-4.145l-1.316-4.061
			c-0.509-1.328-1.067-2.637-1.597-3.956c-0.6-1.288-1.25-2.553-1.872-3.831c-0.694-1.24-1.428-2.458-2.139-3.687l-2.392-3.527
			l-2.633-3.35l-2.858-3.16c-1.022-0.987-2.027-1.991-3.062-2.963c-1.084-0.918-2.148-1.859-3.247-2.759
			c-1.14-0.848-2.259-1.723-3.414-2.549c-1.189-0.777-2.36-1.583-3.563-2.337c-1.233-0.706-2.451-1.439-3.695-2.123
			c-1.272-0.635-2.532-1.292-3.811-1.908l-3.912-1.694l-3.996-1.485l-1.296-0.481l0.708-1.172c2.301-3.813,3.713-8.146,4.596-12.58
			c0.884-4.434,1.236-9.038,1.408-13.586c0.04-2.24,0.05-4.571-0.566-6.452c-0.312-0.937-0.796-1.634-1.54-2.106
			c-0.733-0.49-1.747-0.766-2.803-0.959c-2.138-0.37-4.459-0.467-6.759-0.623l-3.473-0.233c-0.562-0.042-1.186-0.087-1.755-0.147
			c-0.612-0.068-1.221-0.154-1.801-0.25c-2.345-0.39-4.597-0.943-6.813-1.319c-2.175-0.36-4.475-0.596-6.099,0.119
			c-0.797,0.349-1.363,0.941-1.751,1.77c-0.386,0.842-0.559,1.824-0.648,2.92l-0.593,6.91c-0.188,2.302-0.415,4.608-0.572,6.908
			l-0.352,6.888l-0.19,3.443l-0.095,1.722l-0.047,0.861l-0.006,0.107l-0.003,0.054c0.003-0.02-0.036,0.367-0.024,0.229l-0.036,0.213
			l-0.075,0.431c-0.141,0.416-0.328,0.935-0.528,1.239c-0.201,0.292-0.39,0.63-0.614,0.873c-0.434,0.532-0.9,0.974-1.37,1.4
			c-0.953,0.808-1.935,1.521-2.934,2.168c-3.999,2.574-8.129,4.637-12.157,6.878c-4.026,2.222-8,4.518-11.64,7.202
			c-1.813,1.344-3.541,2.79-5.053,4.398c-1.507,1.605-2.799,3.387-3.601,5.333c-0.84,2.086-1.382,4.191-1.901,6.458
			c-0.271,1.123-0.515,2.297-1.01,3.51c-0.474,1.21-1.3,2.398-2.324,3.247c-2.047,1.701-4.455,2.451-6.593,3.157l-1.625,0.588
			l-1.448,0.668l-1.443,0.807c-0.47,0.291-0.925,0.607-1.389,0.908c-3.617,2.559-6.682,5.998-8.666,9.958
			c-0.966,1.987-1.642,4.112-1.859,6.275c-0.099,0.54-0.054,1.081-0.074,1.622l-0.005,0.406l-0.001,0.102l0,0.051
			c-0.012-0.122,0-0.003,0-0.016l0.026,0.215l0.107,0.86c0.082,1.203,0.445,2.149,0.7,3.194c0.744,2.077,1.791,4.055,3.064,5.895
			c1.324,1.805,2.83,3.48,4.515,4.959l0.382,0.335l-0.097,0.483c-1.542,7.674-2.552,15.639-5.517,23.127
			c-0.74,1.868-1.676,3.672-2.8,5.37l-0.91,1.235c-0.327,0.395-0.692,0.763-1.037,1.144c-0.347,0.395-0.709,0.708-1.063,1.057
			c-0.348,0.342-0.628,0.694-0.948,1.04c-2.427,2.969-4.091,6.569-5.468,10.218c-2.736,7.348-4.422,15.076-6.063,22.782
			c-0.817,3.859-1.58,7.732-2.492,11.59l-2.909,11.486c-2.043,7.632-3.648,15.353-5.381,23.047c-0.449,1.92-0.826,3.855-1.192,5.794
			l-1.123,5.809l-1.124,5.809l-0.557,2.904l-0.471,2.921l-1.882,11.68l-0.471,2.92l-0.375,2.933l-0.731,5.869l-0.72,5.87
			c-0.249,1.956-0.49,3.912-0.626,5.879l-0.99,11.783c-0.406,3.923-0.457,7.867-0.648,11.802l-0.246,5.905
			c-0.074,1.968-0.202,3.936-0.152,5.905l0.055,11.815c0.018,1.98-0.018,3.921,0.104,5.896c0.094,1.97,0.144,3.952,0.316,5.898
			c1.089,15.617,4.051,31.307,10.629,45.485c3.285,7.066,7.502,13.696,12.687,19.472c2.583,2.896,5.418,5.557,8.434,7.986
			l2.312,1.761l1.156,0.881l0.289,0.22l0.283,0.19l0.617,0.409c0.823,0.539,1.643,1.105,2.468,1.621l2.476,1.497
			c13.453,7.841,28.755,12.394,44.23,14.189c15.48,1.741,31.404,0.718,46.178-4.102c7.365-2.415,14.406-5.827,20.664-10.332
			c0.759-0.57,1.603-1.124,2.293-1.709l2.291-1.875c0.792-0.614,1.445-1.282,2.166-1.923c0.697-0.661,1.434-1.261,2.1-1.971
			c1.357-1.381,2.733-2.744,3.987-4.224c1.316-1.424,2.5-2.963,3.715-4.474c9.479-12.336,15.799-26.918,20.03-41.952
			c4.27-15.07,6.498-30.691,7.685-46.348c1.142-15.653,1.203-31.479,0.157-47.136c-1.103-15.688-3.257-31.31-6.495-46.713
			l-1.264-5.767l-1.241-5.806c-0.803-3.873-1.391-7.853-1.873-11.778c-0.942-7.888-1.252-15.817-1.356-23.725
			c-0.21-15.817,0.552-31.596-0.44-47.338l-0.018-0.293l0.259-0.103c1.091-0.433,2.312-0.817,3.589-0.518
			c0.625,0.149,1.222,0.5,1.632,0.995c0.423,0.486,0.687,1.065,0.852,1.649c0.329,1.175,0.332,2.379,0.191,3.546
			c-0.151,1.167-0.448,2.316-0.963,3.391c-0.27,0.529-0.577,1.06-1.08,1.472c-0.25,0.199-0.58,0.369-0.953,0.358
			c-0.375-0.008-0.697-0.21-0.92-0.433c-0.458-0.457-0.706-1.011-0.929-1.554c-0.215-0.549-0.378-1.109-0.512-1.674
			c-0.535-2.261-0.739-4.561-0.898-6.855L187.275,134.314z M187.592,134.494c0.198,2.246,0.444,4.501,1,6.671
			c0.141,0.55,0.31,1.091,0.523,1.607c0.215,0.509,0.472,1.021,0.84,1.371c0.367,0.379,0.827,0.365,1.214,0.025
			c0.387-0.324,0.674-0.813,0.91-1.306c0.46-1.006,0.729-2.114,0.851-3.224c0.115-1.108,0.083-2.248-0.23-3.284
			c-0.155-0.516-0.394-1-0.735-1.375c-0.333-0.386-0.78-0.633-1.271-0.744c-0.998-0.226-2.101,0.109-3.104,0.535l0.241-0.396
			c1.275,15.779,0.839,31.616,1.207,47.365c0.202,7.875,0.609,15.743,1.638,23.526c0.531,3.903,1.143,7.733,1.989,11.58l1.307,5.759
			l1.344,5.785c3.447,15.462,5.687,31.188,6.936,46.986c1.177,15.843,1.235,31.675,0.205,47.522
			c-0.517,7.915-1.358,15.817-2.618,23.662c-1.232,7.849-2.877,15.643-5.032,23.31c-4.282,15.303-10.705,30.258-20.491,43.04
			c-1.255,1.566-2.479,3.16-3.841,4.641c-1.298,1.534-2.724,2.954-4.132,4.391c-0.685,0.731-1.479,1.387-2.213,2.084
			c-0.752,0.672-1.49,1.411-2.259,2.009l-2.288,1.879c-0.819,0.688-1.632,1.218-2.449,1.834c-3.281,2.353-6.738,4.469-10.374,6.204
			c-3.624,1.751-7.346,3.311-11.18,4.508c-15.322,4.92-31.645,5.878-47.479,4.032c-7.932-0.929-15.768-2.631-23.383-5.045
			c-3.805-1.217-7.54-2.648-11.209-4.234c-3.66-1.617-7.217-3.448-10.682-5.473l-2.58-1.585c-0.843-0.539-1.642-1.103-2.464-1.652
			l-0.613-0.415l-0.33-0.227l-0.298-0.23l-1.191-0.924l-2.381-1.85c-3.104-2.548-6.016-5.334-8.661-8.354
			c-5.31-6.026-9.588-12.904-12.887-20.177c-3.306-7.279-5.661-14.943-7.313-22.722c-1.651-7.787-2.608-15.68-3.081-23.614
			c-0.156-1.988-0.187-3.954-0.263-5.929c-0.103-1.967-0.05-3.976-0.05-5.942l0.058-11.868c-0.03-1.979,0.117-3.953,0.211-5.929
			l0.305-5.924c0.231-3.948,0.322-7.904,0.768-11.836l1.11-11.807c0.156-1.972,0.417-3.931,0.686-5.889l0.78-5.877l0.768-5.877
			l0.387-2.938l0.482-2.924l1.928-11.696l0.482-2.923l0.568-2.908l1.146-5.814l1.146-5.813c0.374-1.939,0.758-3.877,1.216-5.8
			c1.755-7.705,3.433-15.432,5.408-23.073l2.85-11.486c0.887-3.83,1.631-7.708,2.43-11.576c1.608-7.729,3.257-15.497,6-22.977
			c0.691-1.866,1.46-3.71,2.369-5.497c0.903-1.787,1.934-3.529,3.214-5.118c0.343-0.385,0.682-0.805,1.033-1.158
			c0.345-0.347,0.725-0.688,1.023-1.042c0.311-0.355,0.641-0.692,0.938-1.06l0.832-1.16c1.032-1.605,1.906-3.33,2.598-5.142
			c2.785-7.282,3.699-15.148,5.159-22.939l0.285,0.818c-1.813-1.551-3.433-3.307-4.867-5.215c-1.384-1.946-2.544-4.061-3.385-6.334
			c-0.328-1.188-0.744-2.44-0.826-3.556l-0.117-0.859l-0.029-0.215l-0.014-0.124v-0.058l0-0.115l-0.001-0.461
			c0.011-0.613-0.037-1.233,0.062-1.838c0.217-2.443,0.942-4.799,1.971-6.979c2.115-4.34,5.342-8.044,9.23-10.869
			c0.5-0.335,0.991-0.684,1.5-1.007l1.573-0.903l1.694-0.799l1.628-0.612l1.639-0.569c0.526-0.187,1.021-0.416,1.533-0.62
			c0.97-0.465,1.938-0.953,2.657-1.614c0.743-0.643,1.267-1.407,1.633-2.35c0.375-0.935,0.604-2.036,0.857-3.161
			c0.475-2.245,1.101-4.632,1.981-6.84c0.954-2.341,2.431-4.357,4.073-6.122c1.65-1.767,3.48-3.304,5.373-4.719
			c3.797-2.821,7.846-5.173,11.901-7.433c4.042-2.266,8.188-4.368,11.958-6.818c0.94-0.613,1.826-1.269,2.635-1.957
			c0.384-0.353,0.754-0.709,1.051-1.077c0.171-0.181,0.246-0.365,0.382-0.542c0.115-0.181,0.091-0.227,0.197-0.332l0.072-0.423
			l0.035-0.214c0.018-0.174-0.014,0.177-0.01,0.121l0.003-0.055l0.005-0.108l0.045-0.871l0.089-1.741l0.179-3.482l0.387-6.962
			c0.169-2.311,0.406-4.607,0.605-6.912l0.625-6.907c0.106-1.199,0.311-2.536,0.902-3.799c0.57-1.269,1.705-2.461,3.046-3.016
			c1.329-0.58,2.686-0.69,3.937-0.667c1.26,0.029,2.465,0.192,3.637,0.395c2.341,0.411,4.583,0.973,6.797,1.35
			c0.56,0.095,1.095,0.173,1.632,0.236c0.581,0.063,1.109,0.103,1.699,0.15l3.445,0.248c2.308,0.17,4.621,0.265,7.041,0.69
			c1.203,0.236,2.484,0.542,3.691,1.333c1.226,0.764,2.104,2.105,2.491,3.36c0.42,1.271,0.56,2.513,0.635,3.721
			c0.067,1.209,0.063,2.398,0.027,3.575c-0.201,4.684-0.575,9.333-1.517,13.969c-0.941,4.612-2.443,9.2-4.952,13.311l-0.588-1.654
			l4.093,1.565l4.001,1.788c1.309,0.649,2.598,1.339,3.896,2.007c1.272,0.718,2.517,1.486,3.775,2.227
			c1.229,0.789,2.425,1.632,3.638,2.446c1.179,0.863,2.321,1.777,3.482,2.663c1.121,0.938,2.206,1.919,3.309,2.877
			c1.053,1.013,2.077,2.058,3.115,3.085l2.904,3.285l2.669,3.478l2.419,3.656c0.718,1.272,1.458,2.533,2.155,3.815
			c0.625,1.32,1.277,2.628,1.878,3.958c0.53,1.36,1.086,2.711,1.593,4.079l1.302,4.179l1.01,4.256l-0.706-0.585l1.979,0.13
			c0.661,0.033,1.312,0.186,1.967,0.277c0.659,0.08,1.296,0.28,1.939,0.443c0.649,0.146,1.273,0.377,1.894,0.618
			c0.31,0.12,0.626,0.226,0.931,0.357l0.896,0.443c0.296,0.151,0.6,0.289,0.89,0.451l0.845,0.534
			c0.278,0.182,0.57,0.346,0.836,0.544l0.785,0.618c0.54,0.392,1.011,0.863,1.486,1.328c0.953,0.927,1.777,1.977,2.511,3.078
			c0.389,0.537,0.67,1.141,1.008,1.708c0.317,0.58,0.559,1.196,0.841,1.792c0.246,0.611,0.449,1.238,0.675,1.856l0.51,1.904
			c0.117,0.646,0.25,1.29,0.352,1.937c0.066,0.652,0.157,1.302,0.201,1.955c0.017,0.654,0.065,1.309,0.056,1.962
			c-0.03,0.653-0.026,1.308-0.086,1.958c-0.111,1.303-0.304,2.596-0.584,3.871c-0.291,1.273-0.663,2.525-1.121,3.746
			c-0.466,1.218-1.015,2.403-1.646,3.543c-0.639,1.136-1.365,2.221-2.166,3.247c-0.809,1.021-1.698,1.974-2.654,2.855
			c-0.5,0.415-0.972,0.865-1.495,1.25c-0.533,0.371-1.044,0.772-1.595,1.118c-0.564,0.325-1.119,0.671-1.688,0.978L187.592,134.494z
			"/>
		<path d="M187.175,107.422c0.346,0.583,0.724,1.143,1.139,1.715c0.415,0.564,0.841,1.138,1.251,1.747
			c0.399,0.612,0.759,1.27,1.014,1.977c0.119,0.355,0.203,0.725,0.285,1.094c0.052,0.376,0.083,0.758,0.101,1.14
			c-0.019,0.386-0.037,0.771-0.095,1.152c-0.084,0.38-0.16,0.759-0.298,1.123c-0.145,0.362-0.27,0.724-0.465,1.057
			c-0.2,0.331-0.357,0.672-0.593,0.969c-0.23,0.298-0.405,0.621-0.664,0.886c-0.243,0.273-0.44,0.574-0.692,0.829
			c-0.247,0.257-0.461,0.541-0.708,0.792c-0.246,0.252-0.49,0.506-0.727,0.769l-0.555,0.615l-0.242-0.921
			c-0.084-0.323-0.22-0.776-0.369-1.162c-0.148-0.401-0.309-0.801-0.481-1.199c-0.33-0.8-0.699-1.593-0.993-2.408
			c-0.305-0.812-0.543-1.643-0.781-2.477c-0.241-0.834-0.452-1.679-0.648-2.534c-0.183-0.858-0.328-1.73-0.385-2.631
			c-0.053-0.904-0.093-1.816,0.109-2.83c0.13-0.513,0.225-1.04,0.718-1.708c0.133-0.169,0.31-0.344,0.54-0.492
			c0.244-0.145,0.536-0.236,0.799-0.232c0.529,0.009,0.849,0.218,1.08,0.392c0.465,0.365,0.711,0.767,0.986,1.136l0.731,1.118
			l0.022,0.03l0.077,0.17c0.015,0.039,0.021,0.043,0.048,0.131c0-0.038,0.029,0.147-0.046,0.206
			c-0.019,0.027-0.096,0.08-0.178,0.071c-0.04-0.002-0.072-0.016-0.094-0.029l-0.008-0.005c-0.021-0.015-0.045-0.037-0.047-0.042
			l-0.039-0.046c-0.081-0.105-0.142-0.202-0.208-0.305l-0.096-0.156c-0.02-0.037-0.027-0.033-0.062-0.121l-0.007-0.029
			c0-0.016-0.003,0.016-0.001-0.042c-0.009-0.048,0.081-0.153,0.147-0.147c0.112,0.005,0.072,0.015,0.113,0.028
			c0.034,0.023,0.025,0.02,0.039,0.031l0.038,0.04l0.239,0.286L187.175,107.422z M186.923,107.586l-0.224-0.237l-0.024-0.022
			c0.003,0.002-0.016-0.012,0.006,0.004c0.035,0.011-0.012,0.013,0.094,0.02c0.065,0.008,0.154-0.096,0.144-0.143l0-0.038
			l-0.003-0.019c-0.012-0.034,0.014,0.018,0.026,0.03c0.03,0.043,0.069,0.086,0.105,0.129c0.073,0.084,0.152,0.173,0.224,0.242
			c0.009,0.008,0.017,0.016,0.021,0.018c0.007,0.006-0.004-0.008-0.015-0.014l-0.004-0.002c-0.021-0.012-0.051-0.025-0.089-0.028
			c-0.08-0.009-0.151,0.047-0.169,0.071c-0.076,0.051-0.044,0.229-0.048,0.184c0.008,0.034-0.015-0.013-0.027-0.025l-0.101-0.13
			l0.021,0.03c-0.311-0.288-0.655-0.544-1.011-0.757c-0.343-0.214-0.745-0.385-1.04-0.414c-0.146-0.021-0.25,0.05-0.148,0.102
			c0.123,0.052,0.316-0.059,0.332-0.017c0.067,0.081,0.06,0.428,0.114,0.758c0.085,0.692,0.186,1.489,0.313,2.281
			c0.13,0.796,0.245,1.612,0.354,2.436l0.32,2.495c0.112,0.836,0.242,1.672,0.319,2.524c0.087,0.849,0.114,1.716,0.183,2.577
			c0.027,0.432,0.067,0.862,0.115,1.292c0.041,0.446,0.123,0.82,0.165,1.341l-0.796-0.306c0.241-0.218,0.476-0.444,0.708-0.673
			c0.224-0.236,0.403-0.509,0.592-0.771c0.193-0.26,0.305-0.57,0.446-0.855c0.138-0.289,0.193-0.613,0.285-0.911
			c0.09-0.3,0.093-0.626,0.145-0.925c0.044-0.302,0.017-0.617,0.048-0.91c0.006-0.299-0.025-0.601-0.011-0.89
			c-0.01-0.295-0.032-0.589-0.026-0.881c-0.025-0.295-0.036-0.591-0.04-0.89c-0.027-0.3-0.03-0.604-0.039-0.914
			c-0.026-0.309-0.021-0.627-0.031-0.951l-0.06-0.985c-0.037-0.33-0.069-0.667-0.12-1.003c-0.067-0.33-0.141-0.661-0.224-0.991
			c-0.104-0.318-0.217-0.636-0.352-0.946C187.252,108.167,187.09,107.875,186.923,107.586z"/>
		<path d="M50.445,106.863c-0.246-0.58-0.388-1.157-0.531-1.734c-0.091-0.591-0.136-1.226-0.144-1.854
			c-0.016-0.319,0.045-0.614,0.068-0.924c0.042-0.305,0.073-0.614,0.127-0.918c0.042-0.307,0.148-0.601,0.233-0.899
			c0.085-0.299,0.184-0.594,0.289-0.887c0.247-0.571,0.594-1.102,0.958-1.604c0.188-0.249,0.422-0.468,0.632-0.696l0.644-0.664
			c0.46-0.411,0.912-0.809,1.301-1.25c0.438-0.398,0.835-0.827,1.213-1.282l0.782,0.536c-0.346,1.058-0.514,2.189-0.726,3.3
			c-0.197,1.117-0.532,2.177-0.86,3.24c-0.334,1.06-0.658,2.123-1.098,3.141c-0.428,1.022-0.965,2-1.505,2.979l-2.301,4.173
			l-0.232-4.402c-0.026-0.496-0.016-1,0.076-1.524c0.053-0.262,0.127-0.525,0.246-0.808c0.062-0.143,0.13-0.288,0.239-0.456
			c0.061-0.089,0.122-0.179,0.236-0.295c0.043-0.047,0.151-0.138,0.235-0.189c0.152-0.083,0.277-0.156,0.568-0.162
			c0.23-0.017,0.56,0.151,0.649,0.266c0.156,0.155,0.179,0.237,0.229,0.342c0.063,0.173,0.071,0.292,0.074,0.388
			c0.001,0.195-0.028,0.337-0.062,0.469c-0.065,0.262-0.17,0.477-0.277,0.682c-0.21,0.41-0.48,0.763-0.773,1.091l-0.18,0.201
			L50.445,106.863z M50.455,106.813c-0.002-0.431-0.009-0.852-0.036-1.235c-0.013-0.191-0.047-0.378-0.083-0.523
			c-0.02-0.071-0.048-0.134-0.075-0.141c-0.011-0.004-0.027,0.015-0.005,0.095c0.025,0.061,0.029,0.095,0.143,0.218
			c0.057,0.076,0.332,0.224,0.514,0.21c0.238-0.009,0.319-0.053,0.425-0.114c0.047-0.015,0.111-0.079,0.124-0.084
			c0.046-0.039,0.057-0.041,0.068-0.041c0.017,0.014,0.02,0.062,0.027,0.115c0.012,0.11,0.035,0.254,0.068,0.398
			c0.05,0.29,0.147,0.602,0.27,0.905l-2.533-0.23c0.289-1.082,0.581-2.164,0.982-3.203c0.389-1.043,0.895-2.041,1.39-3.042
			c0.501-0.998,0.996-1.999,1.627-2.943c0.618-0.949,1.279-1.879,1.762-2.882l0.781,0.536c-0.41,0.375-0.8,0.776-1.151,1.208
			c-0.311,0.464-0.559,0.973-0.79,1.474l-0.496,1.581c-0.061,0.267-0.125,0.528-0.205,0.779c-0.076,0.253-0.188,0.488-0.264,0.739
			c-0.08,0.249-0.166,0.496-0.265,0.738c-0.084,0.248-0.213,0.481-0.286,0.735c-0.073,0.253-0.167,0.502-0.252,0.755
			c-0.089,0.25-0.204,0.505-0.277,0.756c-0.074,0.252-0.161,0.506-0.25,0.764c-0.093,0.26-0.213,0.51-0.292,0.792
			c-0.177,0.567-0.353,1.134-0.633,1.698L50.455,106.813z"/>
	</g>
</g>
<path fill-rule="evenodd" clip-rule="evenodd" fill="#CCC8C8" d="M241.787,141.661c-50.339,63.751-54.57,187.734-16.364,257.455
	c32.585,59.465,134.547,58.068,165.737-3.104c30.833-60.473,2.263-155.744-17.311-215.551
	c-10.924-33.376-31.647-56.675-66.061-69.067C278.456,100.831,258.814,120.161,241.787,141.661
	C214.097,176.729,269.526,106.635,241.787,141.661z"/>
<g>
	<path fill="none" d="M360.749,147.319C361.591,146.312,360.988,147.034,360.749,147.319L360.749,147.319z"/>
	<path fill="none" d="M387.05,225.393l0.633-0.119C387.472,225.313,387.261,225.353,387.05,225.393z"/>
	<path fill="none" d="M221.189,182.625c10.293-28.225,34.443-74.689,69.917-73.95c30.086,0.627,65.94,28.912,76.218,55.294
		c24.06,61.76,48.148,148.668,29.839,214.531c-16.578,59.639-106.312,86.23-152.859,44.151
		C184.717,368.664,196.586,249.932,221.189,182.625C224.259,174.206,205.41,225.792,221.189,182.625z"/>
	<path fill="#4C4C4C" d="M206.051,342.081c6.821,36.272,20.621,78.773,57.616,94.431c32.222,13.638,78.55,6.827,106.386-14.173
		c54.079-40.799,33.502-144.23,16.997-196.946c-3.315-22.058-13.269-60.037-26.302-78.073c-40.539-44.721-89.86-53.955-125.2,2.159
		C201.61,203.366,194.564,280.758,206.051,342.081C213.231,380.262,195.766,287.174,206.051,342.081z M207.313,341.843
		c-12.685-67.613-4.589-187.001,62.772-227.381c28.304-16.967,60.232,7.725,81.186,25.412c26.11,22.04,33.217,75.192,39.385,107.623
		c10.308,54.202,30.515,141.576-27.144,177.698c-27.393,17.161-69.202,22.868-99.306,10.161
		C227.613,419.911,214.065,377.66,207.313,341.843C197.054,287.16,214.459,379.749,207.313,341.843z"/>
</g>
<path fill-rule="evenodd" clip-rule="evenodd" fill="#036A82" d="M218.743,93.864c-1.621-66.234,135.807-67.926,101.249,2.847
	c-11.567,23.691-33.332,34.718-59.355,32.02C244.613,127.068,219.124,113.098,218.743,93.864
	C217.974,62.444,218.836,98.598,218.743,93.864z"/>
<path fill-rule="evenodd" clip-rule="evenodd" fill="#00C9FF" d="M241.145,119.992c-2.599-25.494,49.037-37.719,59.126-14.758
	c9.997,22.753,14.05,49.76,18.108,74.123c4.791,28.76,8.373,57.73,11.337,86.731c3.024,29.588,34.453,48.597,61.684,57.655
	c-58.153-17.52-120.971-6.383-176.968,13.58c31.781-21.237,31.455-48.396,32.098-83.392
	C247.35,209.239,245.701,164.466,241.145,119.992C240.528,113.938,247.706,184.042,241.145,119.992z"/>
<path fill-rule="evenodd" clip-rule="evenodd" fill="#036A82" d="M213.044,335.689c9.321,10.152,34.816-26.084,37.531-33.832
	c7.229-20.631,3.522-44.516,3.799-65.916c0.352-27.325,7.849-53.533,11.898-80.36c4.132-27.366-4.643-26.305-25.87-36.008
	c17.469,8.727,25.482,10.901,23.042,31.594c-3.09,26.2-11.959,52.045-12.015,78.553
	C251.247,269.602,257.081,315.831,213.044,335.689C213.466,336.148,227.792,329.039,213.044,335.689z"/>
<path fill-rule="evenodd" clip-rule="evenodd" fill="#00AEF2" d="M325.687,60.825c19.356,34.205,30.229,72.404,41.888,109.641
	c14.751,47.111,33.944,103.86,22.466,153.346c-20.106-6.704-51.861-20.711-61.918-41.045c-12.841-25.861-14.04-52.994-22.194-79.973
	c-6.392-21.151-26.985-56.26-19.667-78.031C294.466,100.383,339.245,92.634,325.687,60.825
	C330.04,68.516,331.653,74.822,325.687,60.825z"/>
<path fill-rule="evenodd" clip-rule="evenodd" fill="#00AEF2" d="M258.176,43.757c-4.292-6.629-5.959-15.005-6.805-22.779
	c-1.876-17.259,0.763-15.364,16.066-17.137c14.646-1.696,17.871-5.686,19.774,10.325c1.014,8.523,2.308,17.288,2.281,25.887
	C279.249,38.384,267.687,39.431,258.176,43.757C251.684,33.729,262.374,41.848,258.176,43.757z"/>
<path fill-rule="evenodd" clip-rule="evenodd" fill="#FFFFFF" d="M373.224,319.188c-49.599-21.424-51.091-57.7-64.461-103.514
	c-5.899-20.215-39.955-86.053-17.222-101.201c-11.703,20.894,4.008,46.744,10.349,66.779c6.89,21.771,13.632,43.612,18.415,65.969
	c9.558,44.675,31.377,57.678,71.095,76.523C385.386,322.164,379.433,319.926,373.224,319.188
	C366.093,316.107,378.504,319.815,373.224,319.188z"/>
<path fill-rule="evenodd" clip-rule="evenodd" fill="#FFFFFF" d="M214.432,337.324c20.655,75.893,133.449,85.146,167.99,15.566
	c6.496-13.086,15.252-27.971-1.593-32.287c-16.226-4.158-33.049-6.064-49.777-6.337
	C293.013,313.648,248.973,320.288,214.432,337.324C224.117,372.908,224.712,332.254,214.432,337.324z"/>
<path fill-rule="evenodd" clip-rule="evenodd" fill="#00AEF2" d="M312.181,99.118c-10.761,9.069-23.041,16.615-24.762,31.73
	c-0.835-26.145,32.247-31.697,38.862-54.569c6.899-23.835-35.976-34.647-51.708-33.299c-19.258,1.662-41.306,16.359-50.807,32.991
	c-15.786,27.634,10.664,35.404,27.151,48.04c-17.797-6.002-38.753-12.682-35.384-35.53c3.229-22.19,24.256-39.441,44.28-46.539
	C300.833,27.4,356.39,61.697,312.181,99.118C295.492,113.183,327.903,85.81,312.181,99.118z"/>
<path fill="#FFFFFF" d="M203.878,313.636c5.384,67.704,67.442,115.545,133.49,92.203c74.874-26.46,64.945-127.32,46.821-187.988
	c10.77,58.932,28.949,150.227-39.977,180.179C280.057,425.909,211.26,381.906,203.878,313.636
	C207.512,359.324,207.868,350.53,203.878,313.636z"/>
<path fill-rule="evenodd" clip-rule="evenodd" fill="#00AEF2" d="M216.212,85.223c-9.656,45.906,1.845,92.8-6.153,137.458
	c-4.985,27.836-17.091,91.059,3.945,114.925c50.025-33.429,32.006-82.243,39.921-132.3c3.011-19.039,19.411-56.866,7.982-74.265
	C248.417,110.499,209.527,122.792,216.212,85.223z"/>
<g>
	<path fill-rule="evenodd" clip-rule="evenodd" fill="#702B44" d="M348.59,226.615c-1.624,8.655-13.638,5.42-12.123-2.821
		C338.086,215.179,350.247,218.358,348.59,226.615C347.91,230.242,349.319,222.983,348.59,226.615z"/>
	<path d="M329.339,227.438c1.641,18.519,27.71,16.457,26.239-1.732C354.136,207.206,327.863,209.368,329.339,227.438z
		 M336.26,225.567c1.609-8.561,13.706-5.605,12.122,2.823C346.778,236.936,334.57,234.01,336.26,225.567
		C336.8,222.695,335.533,229.2,336.26,225.567z"/>
	<path fill="none" d="M341.749,218.524c8.048-0.945,9.51,12.333,1.567,13.405C335.333,232.871,333.774,219.598,341.749,218.524
		C342.43,218.444,339.208,218.866,341.749,218.524z"/>
	<path fill="#E5E5E5" d="M329.534,225.569c1.71,18.227,27.091,16.578,26.302-1.597C354.51,205.517,328.777,207.474,329.534,225.569z
		 M336.467,223.794c1.605-8.544,13.816-5.621,12.123,2.821C346.975,235.224,334.917,232.227,336.467,223.794
		C337.007,220.92,335.792,227.466,336.467,223.794z"/>
	<path fill="#B2B2B2" d="M330.533,225.039c1.4,16.818,25.27,16.592,24.115-0.605C353.925,207.541,329.898,208.106,330.533,225.039z
		 M336.467,223.794c1.605-8.544,13.816-5.621,12.123,2.821C346.975,235.224,334.917,232.227,336.467,223.794
		C337.007,220.92,335.792,227.466,336.467,223.794z"/>
	<path fill="#666666" d="M335.665,225.178c2.176,5.183,11.113,12.1,13.107,1.416C350.737,217.186,335.25,214.016,335.665,225.178z
		 M336.588,223.642c1.612-8.161,13.135-5.407,11.597,2.652C346.694,234.479,335.051,231.677,336.588,223.642
		C337.138,220.858,335.93,227.081,336.588,223.642z"/>
	<path fill-rule="evenodd" clip-rule="evenodd" fill="#FFFFFF" d="M351.918,220.006c-1.847-3.083-4.411-5.316-7.694-6.699
		C346.454,210.501,352.344,218.048,351.918,220.006C350.56,216.665,352.309,218.211,351.918,220.006z"/>
</g>
<g>
	<path fill-rule="evenodd" clip-rule="evenodd" fill="#702B44" d="M361.037,266.897c-1.626,8.64-13.528,5.363-11.987-2.836
		C350.672,255.411,362.573,258.713,361.037,266.897C360.354,270.524,361.717,263.271,361.037,266.897z"/>
	<path d="M341.965,267.697c1.639,18.451,27.393,16.463,25.923-1.692C366.491,247.453,341.15,249.526,341.965,267.697z
		 M348.796,265.841c1.619-8.616,13.532-5.563,11.986,2.838C359.174,277.249,347.223,274.22,348.796,265.841
		C349.336,262.967,348.116,269.467,348.796,265.841z"/>
	<path fill="#FFFFFF" d="M342.208,265.827c1.606,18.277,26.761,16.543,25.933-1.603
		C366.807,245.763,340.761,247.774,342.208,265.827z M349.049,264.062c1.608-8.573,13.561-5.545,11.987,2.836
		C359.424,275.462,347.471,272.457,349.049,264.062C349.588,261.188,348.368,267.688,349.049,264.062z"/>
	<path fill="#B2B2B2" d="M343.205,265.296c1.313,16.804,24.07,16.611,23.797-0.568C366.359,247.819,341.9,248.369,343.205,265.296z
		 M349.049,264.062c1.608-8.573,13.561-5.545,11.987,2.836C359.424,275.462,347.471,272.457,349.049,264.062
		C349.588,261.188,348.368,267.688,349.049,264.062z"/>
	<path fill="#4C4C4C" d="M348.243,265.444c2.157,5.192,10.977,12.066,12.924,1.393C363.268,257.55,347.865,254.235,348.243,265.444z
		 M349.169,263.909c1.489-8.195,12.912-5.344,11.416,2.673C359.088,274.779,347.638,271.908,349.169,263.909
		C349.674,261.131,348.511,267.348,349.169,263.909z"/>
	<path fill-rule="evenodd" clip-rule="evenodd" fill="#FFFFFF" d="M365.568,264.295c-1.549-5.732-5.897-9.304-11.289-11.072
		C359.493,252.244,367.231,258.414,365.568,264.295C363.541,256.793,366.417,261.294,365.568,264.295z"/>
</g>
<path fill="#242225" d="M394.527,300.022c4.851,51.281-21.077,97.032-73.97,106.989c-53.981,10.163-99.874-27.337-112.413-78.95
	c16.854,53.753,63.229,87.871,120.361,72.541C373.698,388.477,396.977,344.802,394.527,300.022
	C398.44,341.395,396.718,340.075,394.527,300.022z"/>
<g>
	<path fill-rule="evenodd" clip-rule="evenodd" fill="#702B44" d="M328.644,144.598c-1.907,8.478-14.775,5.853-12.986-2.722
		C317.463,133.361,330.453,136.067,328.644,144.598C327.825,148.239,329.416,140.958,328.644,144.598z"/>
	<path d="M307.936,145.588c1.983,18.55,29.623,16.434,28.154-1.907C334.599,124.918,307.129,127.313,307.936,145.588z
		 M315.405,143.657c1.717-8.453,14.786-5.968,12.939,2.725C326.618,154.877,313.454,152.332,315.405,143.657
		C315.99,140.778,314.585,147.299,315.405,143.657z"/>
	<path fill="#FFFFFF" d="M308.223,143.712c1.717,15.975,24.514,17.908,27.829,2.001C340.9,125.785,306.537,122.218,308.223,143.712z
		 M315.658,141.876c1.719-8.461,14.828-5.966,12.986,2.722C326.792,153.051,313.835,150.609,315.658,141.876
		C316.243,138.997,314.889,145.559,315.658,141.876z"/>
	<path fill="#CCCCCC" d="M309.267,143.175c1.686,16.935,26.256,16.557,25.887-0.812
		C334.364,125.279,308.627,126.122,309.267,143.175z M315.658,141.876c1.719-8.461,14.828-5.966,12.986,2.722
		C326.792,153.051,313.835,150.609,315.658,141.876C316.243,138.997,314.889,145.559,315.658,141.876z"/>
	<path fill="#666666" d="M314.76,143.271c1.802,6.626,12.005,10.987,14.065,1.306C330.537,134.819,314.429,132.307,314.76,143.271z
		 M315.776,141.724c1.725-8.059,14.111-5.756,12.416,2.558C326.469,152.329,314.008,150.047,315.776,141.724
		C316.373,138.936,315.034,145.219,315.776,141.724z"/>
	<path fill-rule="evenodd" clip-rule="evenodd" fill="#FFFFFF" d="M331.923,138.892c-1.394-2.656-3.469-4.555-6.226-5.698
		C328.11,130.458,332.491,136.76,331.923,138.892C330.906,136.201,332.404,137.086,331.923,138.892z"/>
</g>
<g>
	<path fill-rule="evenodd" clip-rule="evenodd" fill="#702B44" d="M229.684,156.758c2.679,8.778,11.598,1.331,9.646-5.366
		C236.647,142.61,227.731,150.058,229.684,156.758C230.729,160.182,228.684,153.327,229.684,156.758z"/>
	<path d="M224.526,161.09c5.651,19.014,24.669,2.831,20.414-11.367C239.351,130.647,220.357,146.895,224.526,161.09
		C226.418,167.458,222.381,153.787,224.526,161.09z M233.079,149.543c6.193-4.067,9.585,9.195,3.67,12.469
		C229.874,165.546,227.426,152.669,233.079,149.543C233.421,149.318,230.44,151.002,233.079,149.543z"/>
	<path fill="#FFFFFF" d="M224.141,159.386c5.589,18.865,24.521,2.619,20.414-11.369C238.98,128.985,219.977,145.201,224.141,159.386
		C226.041,165.798,221.997,152.081,224.141,159.386z M232.65,147.842c6.559-3.882,9.503,9.261,3.714,12.465
		C229.465,163.853,226.965,150.988,232.65,147.842C233.038,147.612,230.01,149.303,232.65,147.842z"/>
	<path fill="#CCCCCC" d="M224.975,158.644c5.326,18.198,22.667,2.505,18.803-10.582C238.67,130.734,221.368,145.975,224.975,158.644
		C226.813,164.923,222.944,151.51,224.975,158.644z M232.65,147.842c6.559-3.882,9.503,9.261,3.714,12.465
		C229.465,163.853,226.965,150.988,232.65,147.842C233.038,147.612,230.01,149.303,232.65,147.842z"/>
	<path fill="#666666" d="M229.542,156.728c2.814,9.374,12.457,1.539,10.28-5.853C236.85,141.346,227.406,149.425,229.542,156.728
		C230.598,160.243,228.317,152.54,229.542,156.728z M232.833,147.82c6.545-3.365,8.945,8.951,3.514,11.936
		C229.966,163.397,227.484,150.908,232.833,147.82C233.179,147.642,230.33,149.265,232.833,147.82z"/>
	<path fill-rule="evenodd" clip-rule="evenodd" fill="#FFFFFF" d="M227.905,154.155c0.035-4.271,2.029-7.176,5.984-8.715
		C228.431,145.859,226.436,148.764,227.905,154.155C227.93,150.42,227.202,152.071,227.905,154.155z"/>
</g>
<g>
	<path fill-rule="evenodd" clip-rule="evenodd" fill="#702B44" d="M227.215,198.322c2.456,8.852,10.858,1.209,8.965-5.286
		C233.709,184.146,225.426,191.884,227.215,198.322C228.168,201.757,226.26,194.886,227.215,198.322z"/>
	<path d="M222.418,202.613c5.461,19.306,22.887,2.448,19.051-11.21C235.992,172.204,218.486,188.911,222.418,202.613
		C224.222,208.99,220.321,195.304,222.418,202.613z M230.336,191.139c6.36-3.641,8.758,9.426,3.533,12.486
		C227.248,207.029,225.099,194.161,230.336,191.139C230.64,190.965,227.833,192.583,230.336,191.139z"/>
	<path fill="#FFFFFF" d="M221.991,200.913c5.511,19.066,22.883,2.285,19.098-11.214
		C235.594,170.459,218.157,187.253,221.991,200.913C223.845,207.329,219.938,193.598,221.991,200.913z M229.956,189.434
		c6.324-3.635,8.758,9.428,3.529,12.484C227.516,205.84,224.493,192.585,229.956,189.434
		C230.256,189.261,227.452,190.878,229.956,189.434z"/>
	<path fill="#CCCCCC" d="M222.83,200.215c5.112,18.32,21.104,2.163,17.479-10.472C235.452,172.231,219.432,187.956,222.83,200.215
		C224.573,206.462,220.838,193.031,222.83,200.215z M229.956,189.434c6.324-3.635,8.758,9.428,3.529,12.484
		C227.516,205.84,224.493,192.585,229.956,189.434C230.256,189.261,227.452,190.878,229.956,189.434z"/>
	<path fill="#666666" d="M227.079,198.338c2.704,9.429,11.656,1.349,9.549-5.814C233.854,182.86,225.11,191.312,227.079,198.338
		C228.088,201.859,225.891,194.101,227.079,198.338z M230.096,189.463c6.05-3.496,8.415,8.967,3.372,11.906
		C227.404,204.84,225.068,192.393,230.096,189.463C230.397,189.289,227.723,190.846,230.096,189.463z"/>
	<path fill-rule="evenodd" clip-rule="evenodd" fill="#FFFFFF" d="M225.489,195.76c-0.074-4.178,1.781-7.082,5.568-8.713
		C225.821,187.594,223.964,190.498,225.489,195.76C225.506,191.98,224.823,193.625,225.489,195.76z"/>
</g>
<g>
	<path fill-rule="evenodd" clip-rule="evenodd" d="M257.601,51.871c-0.687-0.036-3.261,2.513-3.901,0.917
		C255.477,50.217,258.767,51.239,257.601,51.871z"/>
	<path fill-rule="evenodd" clip-rule="evenodd" fill="#B2B2B2" d="M257.104,51.562c-0.72-0.023-3.203,2.569-3.896,0.961
		C254.952,49.993,258.248,50.94,257.104,51.562z"/>
</g>
<g>
	<path fill-rule="evenodd" clip-rule="evenodd" d="M263.778,49.538c-0.796-0.093-3.301,2.328-3.978,0.649
		C261.838,47.727,264.881,49.092,263.778,49.538z"/>
	<path fill-rule="evenodd" clip-rule="evenodd" fill="#E5E5E5" d="M263.538,49.06c-0.795-0.088-3.277,2.299-3.974,0.693
		C261.601,47.21,264.568,48.644,263.538,49.06z"/>
</g>
<g>
	<path fill-rule="evenodd" clip-rule="evenodd" fill="#191919" d="M269.899,47.901c-0.715-0.171-3.675,1.884-4.037,0.15
		C268.29,45.693,270.737,47.717,269.899,47.901z"/>
	<path fill-rule="evenodd" clip-rule="evenodd" fill="#FFFFFF" d="M269.618,47.474c-0.859-0.209-3.494,1.918-4.037,0.149
		C268.028,45.29,270.521,47.283,269.618,47.474z"/>
</g>
<g>
	<path fill-rule="evenodd" clip-rule="evenodd" d="M276.31,47.198c-0.675-0.303-3.937,1.194-3.985-0.594
		C274.916,44.89,277.566,47.052,276.31,47.198z"/>
	<path fill-rule="evenodd" clip-rule="evenodd" fill="#FFFFFF" d="M276.172,46.8c-0.774-0.359-3.776,1.165-3.985-0.595
		C274.798,44.512,277.54,46.64,276.172,46.8z"/>
</g>
<g>
	<path fill-rule="evenodd" clip-rule="evenodd" d="M282.365,47.366c-0.744-0.448-3.854,0.76-3.896-1.019
		C281.436,44.854,283.416,47.433,282.365,47.366z"/>
	<path fill-rule="evenodd" clip-rule="evenodd" fill="#FFFFFF" d="M282.362,46.952c-0.682-0.396-4.012,0.811-3.896-1.019
		C281.453,44.403,283.284,47.025,282.362,46.952z"/>
</g>
<g>
	<path fill-rule="evenodd" clip-rule="evenodd" d="M288.488,48.125c-0.621-0.49-4.031,0.178-3.727-1.544
		C287.829,45.488,289.525,48.309,288.488,48.125z"/>
	<path fill-rule="evenodd" clip-rule="evenodd" fill="#FFFFFF" d="M288.486,47.71c-0.684-0.531-4.003,0.299-3.728-1.545
		C287.795,45.131,289.579,47.906,288.486,47.71z"/>
</g>
<g>
	<path fill-rule="evenodd" clip-rule="evenodd" d="M294.41,49.921c-0.584-0.583-4.013-0.264-3.548-1.981
		C293.937,47.278,295.618,50.245,294.41,49.921z"/>
	<path fill-rule="evenodd" clip-rule="evenodd" fill="#FFFFFF" d="M294.404,49.46c-0.575-0.582-3.966-0.216-3.498-1.94
		C294.126,46.806,295.413,49.786,294.404,49.46z"/>
</g>
<g>
	<path fill-rule="evenodd" clip-rule="evenodd" fill="#666666" d="M300.091,52.021c-0.547-0.664-3.93-0.569-3.307-2.286
		C299.838,49.373,301.363,52.478,300.091,52.021z"/>
	<path fill-rule="evenodd" clip-rule="evenodd" fill="#FFFFFF" d="M300.283,51.676c-0.502-0.614-3.989-0.626-3.309-2.285
		C300.075,49.014,301.504,52.121,300.283,51.676z"/>
</g>
<g>
	<path fill-rule="evenodd" clip-rule="evenodd" fill="#7F7F7F" d="M305.559,54.653c-0.455-0.678-3.879-1.065-3.071-2.635
		C305.659,51.958,306.577,55.172,305.559,54.653z"/>
	<path fill-rule="evenodd" clip-rule="evenodd" fill="#FFFFFF" d="M305.744,54.263c-0.467-0.701-3.911-0.993-3.073-2.635
		C305.846,51.571,306.789,54.792,305.744,54.263z"/>
</g>
<g>
	<path fill-rule="evenodd" clip-rule="evenodd" fill="#7F7F7F" d="M310.334,57.274c0.34,0.638-4.173-4.649-1.334-2.747
		C310.379,55.147,311.886,58.326,310.334,57.274z"/>
	<path fill-rule="evenodd" clip-rule="evenodd" fill="#FFFFFF" d="M310.619,56.964c0.307,0.599-4.292-4.498-1.288-2.751
		C310.456,54.732,312.497,58.059,310.619,56.964z"/>
</g>
<g>
	<path fill-rule="evenodd" clip-rule="evenodd" fill="#999999" d="M314.71,60.448c0.236,0.652-3.428-5.194-0.935-2.885
		C315.089,58.382,316.04,61.667,314.71,60.448z"/>
	<path fill-rule="evenodd" clip-rule="evenodd" fill="#FFFFFF" d="M315.061,60.269c0.263,0.707-3.435-5.19-0.937-2.885
		C315.45,58.211,316.366,61.478,315.061,60.269z"/>
</g>
<g>
	<path fill-rule="evenodd" clip-rule="evenodd" fill="#666666" d="M251.467,54.569C245.429,54.346,251.566,54.504,251.467,54.569
		C251.467,54.569,251.723,54.401,251.467,54.569z"/>
	<path fill-rule="evenodd" clip-rule="evenodd" fill="#B2B2B2" d="M251.116,54.333C245.082,54.039,251.239,54.254,251.116,54.333
		C251.116,54.333,251.374,54.166,251.116,54.333z"/>
</g>
<g>
	<path fill-rule="evenodd" clip-rule="evenodd" fill="#702B44" d="M338.136,186.422c-1.625,8.637-13.674,5.418-12.121-2.821
		C327.635,174.955,339.658,178.167,338.136,186.422C337.454,190.049,338.813,182.75,338.136,186.422z"/>
	<path d="M318.833,187.204c1.704,18.509,27.04,16.548,26.292-1.69C343.747,166.945,318.044,169.015,318.833,187.204z
		 M325.761,185.381c1.698-8.573,13.754-5.694,12.163,2.771C336.186,196.707,324.167,193.855,325.761,185.381
		C326.34,182.457,325.079,189.008,325.761,185.381z"/>
	<path fill="#FFFFFF" d="M319.076,185.334c1.641,18.284,27.702,16.579,26.257-1.595
		C343.986,165.256,318.348,167.188,319.076,185.334z M326.015,183.601c1.611-8.604,13.678-5.624,12.121,2.821
		C336.53,194.983,324.426,192.032,326.015,183.601C326.553,180.728,325.332,187.228,326.015,183.601z"/>
	<path fill="#B2B2B2" d="M320.074,184.802c1.365,16.825,24.395,16.69,24.119-0.56C343.542,167.309,318.787,167.896,320.074,184.802z
		 M326.015,183.601c1.611-8.604,13.678-5.624,12.121,2.821C336.53,194.983,324.426,192.032,326.015,183.601
		C326.553,180.728,325.332,187.228,326.015,183.601z"/>
	<path fill="#666666" d="M325.208,184.984c2.21,5.285,10.981,11.997,13.104,1.372C340.006,176.803,324.756,173.93,325.208,184.984z
		 M326.129,183.402c1.531-8.204,13.117-5.383,11.601,2.7C336.073,194.275,324.614,191.49,326.129,183.402
		C326.639,180.671,325.476,186.889,326.129,183.402z"/>
	<path fill-rule="evenodd" clip-rule="evenodd" fill="#FFFFFF" d="M341.846,180.323c-1.909-3.654-4.875-6.042-8.898-7.161
		C335.51,169.927,342.367,178.157,341.846,180.323C340.044,177.124,342.28,178.521,341.846,180.323z"/>
</g>
<g>
	<path fill-rule="evenodd" clip-rule="evenodd" fill="#2B120F" d="M253.876,202.164c21.572-1.775,43.125-3.894,64.558-6.944
		c19.836-6.333,19.249-16.027-1.315-16.614c-16.216-0.463-32.676,1.828-48.744,3.857c-10.332,1.306-19.632,3.793-29.61,6.679
		C212.98,196.834,244.588,201.852,253.876,202.164C275.184,200.41,246.522,201.917,253.876,202.164z"/>
	<path fill-rule="evenodd" clip-rule="evenodd" fill="#FFFFFF" d="M253.441,201.199c22.354-1.535,48.587-1.754,69.87-8.978
		c19.364-6.571,8.281-14.131-6.563-14.247c-16.282-0.128-32.612,1.395-48.75,3.463C243.88,184.53,208.609,199.597,253.441,201.199
		C273.549,199.818,245.901,200.93,253.441,201.199z"/>
	<path fill-rule="evenodd" clip-rule="evenodd" fill="#B2B2B2" d="M252.451,186.022c23.049-4.464,53.755-10.808,77.343-5.166
		c-30.019-0.627-66.246,0.277-94.406,11.305C240.665,188.996,246.353,186.95,252.451,186.022
		C277.047,181.259,246.142,187.22,252.451,186.022z"/>
</g>
<g>
	<path fill-rule="evenodd" clip-rule="evenodd" fill="#702B44" d="M224.935,241.106c2.4,9.162,9.166,0.771,7.697-5.091
		C230.228,226.92,223.473,235.274,224.935,241.106C225.849,244.595,224.072,237.661,224.935,241.106z"/>
	<path d="M220.867,245.314c5.12,19.708,19.566,1.689,16.278-10.886C232.002,214.865,217.585,232.76,220.867,245.314
		C222.54,251.754,218.951,237.983,220.867,245.314z M227.513,233.989c5.773-3.325,7.506,9.684,3.258,12.52
		C226.255,250.34,222.807,237.236,227.513,233.989C227.815,233.815,225.422,235.432,227.513,233.989z"/>
	<path fill="#FFFFFF" d="M220.533,243.65c5.065,19.419,19.477,1.516,16.234-10.882C231.758,213.163,217.243,231.06,220.533,243.65
		C222.201,250.044,218.617,236.316,220.533,243.65z M227.18,232.325c4.43-3.807,8.025,9.258,3.213,12.521
		C225,248.354,222.743,235.224,227.18,232.325C227.43,232.11,225.04,233.724,227.18,232.325z"/>
	<path fill="#CCCCCC" d="M221.186,242.929c3.747,14.586,14.714,7.11,15.479-3.438C238.107,219.574,216.007,222.878,221.186,242.929
		C222.793,249.188,219.337,235.772,221.186,242.929z M227.18,232.325c4.43-3.807,8.025,9.258,3.213,12.521
		C225,248.354,222.743,235.224,227.18,232.325C227.43,232.11,225.04,233.724,227.18,232.325z"/>
	<path fill="#666666" d="M224.844,241.117c2.518,9.665,9.943,0.985,8.145-5.604C230.388,225.604,223.174,234.672,224.844,241.117
		C225.764,244.649,223.755,236.915,224.844,241.117z M227.317,232.309c5.147-3.399,7.285,9.192,3.104,11.982
		C225.25,247.686,223.077,235.084,227.317,232.309C227.573,232.14,225.262,233.653,227.317,232.309z"/>
	<path fill-rule="evenodd" clip-rule="evenodd" fill="#FFFFFF" d="M223.436,238.519c-0.296-3.933,1.26-6.786,4.666-8.561
		C223.328,230.717,221.772,233.57,223.436,238.519C223.363,234.75,222.819,236.38,223.436,238.519z"/>
</g>
<g>
	<path fill-rule="evenodd" clip-rule="evenodd" fill="#2B120F" d="M254.887,245.117c23.705-2.676,47.448-4.991,71.153-7.668
		c26.417-8.762,17.702-19.297-7.072-17.226c-21.625,1.809-44.7,1.878-65.826,7.139c-8.337,2.076-16.446,4.947-24.737,7.167
		C225.151,250.155,245.205,244.452,254.887,245.117C278.484,242.454,246.202,244.521,254.887,245.117z"/>
	<path fill-rule="evenodd" clip-rule="evenodd" fill="#FFFFFF" d="M254.372,243.473c23.68-2.767,47.434-4.85,71.108-7.661
		c26.514-8.352,17.769-18.666-6.992-16.574c-24.915,2.104-51.493,2.134-75.553,9.541c-5.467,1.684-16.48,3.077-15.771,10.653
		C227.884,247.127,248.342,243.341,254.372,243.473C278.05,240.706,245.736,243.284,254.372,243.473z"/>
	<path fill-rule="evenodd" clip-rule="evenodd" fill="#B2B2B2" d="M258.261,227.079c24.71-3.899,54.018-9.349,79.189-5.519
		c-34.729,2.223-68.839,4.723-102.595,13.367C241.107,230.626,250.841,228.267,258.261,227.079
		C287.483,222.468,255.051,227.593,258.261,227.079z"/>
</g>
<g>
	<path fill-rule="evenodd" clip-rule="evenodd" fill="#702B44" d="M221.516,284.396c2.401,9.082,9.195,0.73,7.647-5.132
		C226.761,270.166,219.979,278.527,221.516,284.396C222.425,287.837,220.603,280.908,221.516,284.396z"/>
	<path d="M217.442,288.557c5.12,19.708,19.533,1.726,16.24-10.834C228.67,258.05,214.141,275.925,217.442,288.557
		C219.115,294.995,215.526,281.227,217.442,288.557z M224.087,277.232c5.413-3.561,7.534,9.614,3.265,12.563
		C221.557,293.126,219.872,280.088,224.087,277.232C224.344,277.063,221.954,278.678,224.087,277.232z"/>
	<path fill="#FFFFFF" d="M217.064,286.898c5.079,19.461,19.427,1.463,16.28-10.886C228.165,256.325,213.771,274.31,217.064,286.898
		C218.732,293.289,215.146,279.565,217.064,286.898z M223.709,275.571c5.078-3.741,7.696,9.458,3.26,12.518
		C221.182,291.412,219.458,278.406,223.709,275.571C224.006,275.353,221.615,276.968,223.709,275.571z"/>
	<path fill="#CCCCCC" d="M217.763,286.17c3.651,14.664,14.709,7.076,15.475-3.435C234.691,262.82,212.549,266.011,217.763,286.17
		C219.324,292.438,215.913,279.015,217.763,286.17z M223.709,275.571c5.078-3.741,7.696,9.458,3.26,12.518
		C221.182,291.412,219.458,278.406,223.709,275.571C224.006,275.353,221.615,276.968,223.709,275.571z"/>
	<path fill="#333333" d="M221.373,284.366c2.531,9.711,9.911,0.944,8.191-5.608C226.839,268.852,219.711,277.954,221.373,284.366
		C222.293,287.897,220.284,280.162,221.373,284.366z M223.846,275.555c5.195-3.397,7.271,9.206,3.104,11.982
		C221.774,290.942,219.674,278.338,223.846,275.555C224.103,275.387,221.836,276.896,223.846,275.555z"/>
	<path fill-rule="evenodd" clip-rule="evenodd" fill="#FFFFFF" d="M220.011,281.762c-0.306-3.913,1.234-6.765,4.619-8.556
		C219.917,274.017,218.377,276.868,220.011,281.762C219.899,278.044,219.347,279.627,220.011,281.762z"/>
</g>
<g>
	<path fill-rule="evenodd" clip-rule="evenodd" fill="#2B120F" d="M254.177,286.753c30.619-3.577,61.22-7.236,91.812-11.041
		c12.441-1.547,16.084-13.517,2.985-15.254c-20.355-2.7-44.418,2.803-64.795,4.897c-17.162,1.764-33.967,3.593-50.218,9.714
		C206.605,285.373,245.538,286.862,254.177,286.753z"/>
	<path fill-rule="evenodd" clip-rule="evenodd" fill="#FFFFFF" d="M253.692,285.749c15.469-1.86,30.937-3.722,46.405-5.583
		c12.558-1.51,35.054,0.287,46.405-5.582c14.954-6.928,11.674-14.234-2.713-14.741c-17.448-0.614-35.096,1.995-52.44,3.684
		c-20.12,1.959-40.284,3.661-59.229,11.241C205.2,285.539,245.91,285.724,253.692,285.749z"/>
	<path fill-rule="evenodd" clip-rule="evenodd" fill="#B2B2B2" d="M258.231,269.004c28.685-4.354,63.021-11.247,91.976-5.679
		c-38.084,2.246-80.345-0.035-116.608,13.671C240.112,271.779,250.298,270.232,258.231,269.004
		C279.324,265.802,249.723,270.321,258.231,269.004z"/>
</g>
<g>
	<path fill-rule="evenodd" clip-rule="evenodd" fill="#2B120F" d="M273.063,148.331c-5.851-16.769-29.488-2.055-40.238,2.581
		C232.023,172.798,265.627,156.315,273.063,148.331z"/>
	<path fill-rule="evenodd" clip-rule="evenodd" fill="#E5E5E5" d="M272.555,148.708c-4.39-13.313-40.946-7.502-40.032,6.082
		C233.611,170.944,266.656,152.853,272.555,148.708C271.838,146.534,256.12,160.257,272.555,148.708z"/>
</g>
<g>
	<path fill-rule="evenodd" clip-rule="evenodd" fill="#2B120F" d="M282.829,146.36c-2.516-16.436,30.071-9.748,40.365-8.586
		C330.686,160.206,291.607,150.774,282.829,146.36z"/>
	<path fill-rule="evenodd" clip-rule="evenodd" fill="#E5E5E5" d="M283.177,146.592c-5.752-16.417,41.085-15.081,41.243-4.035
		C324.657,159.09,290.946,148.766,283.177,146.592C282.417,144.423,306.751,153.189,283.177,146.592z"/>
</g>
<g>
	<path fill="#191919" d="M233.598,142.548c9.44,1.222,19.675,2.22,29.198,1.107c-19.293,12.45-35.026,19.345-50.116,35.929
		c2.708,3.313,47.613-24.279,56.423-28.476c8.363,2.77,22.378,0.128,32.085,1.686c18.936,3.037,38.052,4.238,55.886,11.192
		c3.895-13.452-62.601-20.396-73.201-22.087c18.209-4.321,74.064-13.074,73.479-39.985c-0.421-19.337-23.159-25.878-37.552-17.77
		c-15.257,8.596-26.804,24.273-35.51,39.079c-6.198,10.542-10.528,17.951-21.844,8.292c-13.082-11.167-24.445-27.663-40.61-34.636
		c-14.808-6.387-31.449,11.311-27.313,26.216C198.596,137.773,221.259,140.962,233.598,142.548
		C246.788,144.255,210.774,139.615,233.598,142.548z M283.96,135.159c7.361-13.505,41.307-64.628,59.611-39.439
		C360.657,119.372,296.292,130.036,283.96,135.159C289.879,124.301,291.21,132.147,283.96,135.159z M232.752,135.306
		c-11.663-1.726-38.785-10.767-21.299-26.591c13.236-11.978,38.398,20.551,46.237,27.913
		C249.464,137.189,240.88,136.496,232.752,135.306C217.47,133.044,243.297,136.85,232.752,135.306z"/>
	<path fill="#FFFFFF" stroke="#7F7F7F" d="M278.815,133.313c0.878,26.484,59.993,20.928,79.147,28.405
		c3.679-13.667-62.428-20.369-73.202-22.087c16.595-4.104,85.237-16.478,71.947-46.343
		C336.028,46.814,288.046,111.558,278.815,133.313z M284.849,132.89c7.323-13.503,41.331-64.629,59.603-39.485
		C361.543,117.063,297.156,127.695,284.849,132.89C290.762,121.986,292.092,129.832,284.849,132.89z"/>
	<path fill="#FFFFFF" stroke="#7F7F7F" d="M234.763,140.295c9.397,1.199,19.441,2.075,28.919,1.094
		c-19.317,12.371-35.652,20.822-51.751,36.119c5.199,5.414,26.056-13.253,33.766-17.446c9.801-5.329,23.009-6.499,23.803-18.225
		c0.798-11.797-11.201-18.136-19.368-26.335c-14.681-14.74-37.821-36.487-52.292-8.921
		C185.23,130.559,217.932,138.147,234.763,140.295C247.856,141.965,211.848,137.371,234.763,140.295z M233.846,132.447
		c-11.729-1.552-38.371-9.936-20.962-25.885c13.087-11.991,37.958,20.491,45.687,27.751
		C250.31,133.725,242.072,133.564,233.846,132.447C218.545,130.422,243.911,133.813,233.846,132.447z"/>
	<path fill="#FFFFFF" stroke="#7F7F7F" stroke-width="1.0001" d="M283.328,147.47C252.551,161.492,281.774,109.447,283.328,147.47
		C277.772,150.001,283.328,147.47,283.328,147.47z"/>
</g>
<g>
	<g>
		<path d="M400.035,296.802l-2.144-14.962l-2.441-14.911c-0.87-4.961-1.842-9.903-2.757-14.855
			c-0.955-4.945-2.068-9.858-3.095-14.788c-0.491-2.471-1.128-4.908-1.718-7.355l-1.792-7.338c-0.571-2.452-1.232-4.881-1.904-7.308
			l-1.986-7.285l-0.994-3.642l-1.094-3.613l-2.191-7.225c-1.395-4.837-3.108-9.572-4.682-14.351l-1.202-3.576l-0.301-0.895
			l-0.146-0.427l-0.169-0.44l-0.679-1.764c-0.469-1.165-0.871-2.375-1.393-3.503l-1.51-3.419c-2.099-4.547-4.389-9.021-6.638-13.546
			c-2.211-4.539-4.453-9.1-6.157-13.922l-0.671-1.793l-0.622-1.772l-1.301-3.518c-0.875-2.366-1.786-4.782-2.287-7.412
			c-0.47-2.627-0.331-5.533,0.717-8.059l0.381-0.945c0.144-0.305,0.306-0.598,0.458-0.897c0.294-0.609,0.646-1.171,1.01-1.725
			c0.641-1.044,1.438-2.144,1.907-3.147c1.075-2.074,1.809-4.382,1.985-6.709c0.173-2.334-0.165-4.693-0.938-6.921
			c-0.77-2.231-1.962-4.33-3.434-6.228c-0.372-0.448-0.781-0.975-1.119-1.358l-1.294-1.376c-0.427-0.491-0.875-0.832-1.312-1.232
			c-0.45-0.38-0.849-0.805-1.354-1.137c-1.869-1.508-4.007-2.59-6.203-3.425c-2.225-0.801-4.579-1.062-6.927-1.054l-0.95,0.003
			l-0.317-0.768l-1.035-2.5c-0.342-0.834-0.714-1.66-0.948-2.526l-0.794-2.564l-0.724-2.492c-0.228-0.838-0.566-1.61-0.843-2.419
			l-0.438-1.201l-0.218-0.6l-0.027-0.075l-0.014-0.038c-0.01-0.026,0.042,0.093,0.012,0.025l-0.07-0.148l-0.142-0.296
			c-0.373-0.85-0.764-1.445-1.188-2.11l-0.721-0.988l-0.799-0.943c-2.211-2.473-4.963-4.539-7.839-6.403
			c-2.888-1.862-5.931-3.528-9.021-5.13l-9.361-4.778c-1.565-0.818-3.117-1.685-4.644-2.654c-0.763-0.484-1.515-1.008-2.25-1.589
			c-0.726-0.603-1.457-1.226-2.067-2.124c-0.157-0.212-0.307-0.438-0.422-0.718c-0.118-0.271-0.263-0.512-0.311-0.842
			c-0.16-0.714-0.142-1.023-0.188-1.489l-0.204-2.618l-0.408-5.235c-0.277-3.489-0.709-6.941-1.056-10.414
			c-0.176-1.741-0.377-3.462-0.664-5.141c-0.292-1.674-0.664-3.355-1.344-4.753c-0.342-0.694-0.772-1.281-1.309-1.68
			c-0.534-0.401-1.215-0.604-1.977-0.694c-1.539-0.16-3.269,0.089-4.975,0.335c-3.437,0.521-6.924,1.141-10.463,1.401
			c-1.803,0.107-3.585,0.104-5.331,0.081c-1.741-0.014-3.479-0.044-5.077,0.236c-1.626,0.24-2.904,1.062-3.55,2.446
			c-0.651,1.385-0.813,3.094-0.807,4.779c0.039,1.699,0.073,3.5,0.2,5.212l0.178,2.594l0.285,2.587
			c0.149,1.733,0.521,3.425,0.785,5.139c0.179,0.846,0.395,1.683,0.59,2.525l0.3,1.263c0.107,0.418,0.26,0.822,0.387,1.234
			l0.8,2.463c0.318,0.799,0.677,1.583,1.018,2.374l0.518,1.184c0.199,0.38,0.427,0.746,0.638,1.12l1.29,2.232l0.361,0.626
			l-0.639,0.245c-7.312,2.794-14.216,6.683-20.372,11.525c-6.148,4.842-11.562,10.666-15.657,17.34
			c-2.102,3.325-3.468,6.946-4.529,10.749c-0.553,1.886-1.092,3.828-2.044,5.636c-0.936,1.814-2.354,3.381-3.999,4.562
			c-0.807,0.623-1.699,1.093-2.572,1.595c-0.793,0.484-1.721,0.971-2.432,1.564c-1.54,1.11-2.927,2.515-4.196,3.969
			c-2.498,2.967-4.58,6.323-5.992,9.939c-0.327,0.913-0.7,1.811-0.93,2.752c-0.125,0.467-0.274,0.929-0.381,1.399l-0.271,1.422
			c-0.108,0.472-0.157,0.95-0.192,1.43c-0.038,0.479-0.099,0.957-0.12,1.435c0.042,0.954-0.023,1.92,0.176,2.853
			c0.092,0.464,0.094,0.953,0.258,1.397l0.413,1.355l0.051,0.169c-0.023-0.037,0.042,0.084,0.058,0.119l0.167,0.33l0.334,0.659
			c0.211,0.457,0.483,0.826,0.722,1.24c1.013,1.612,2.276,3.089,3.728,4.334c0.719,0.634,1.506,1.186,2.31,1.708l1.284,0.768
			l1.228,0.824l0.614,0.412l0.593,0.499c0.389,0.34,0.801,0.661,1.169,1.021l1.032,1.148c0.351,0.377,0.595,0.844,0.896,1.263
			c1.112,1.751,1.74,3.78,1.987,5.801c0.266,2.031,0.159,4.044,0.044,6.027c-0.284,3.966-0.737,7.854-0.683,11.748
			c0.062,3.931,0.33,7.829,0.654,11.757c0.641,7.841,1.553,15.706,1.577,23.667c0.007,3.976-0.213,7.972-0.82,11.93
			c-0.125,0.993-0.323,1.977-0.529,2.958l-0.601,2.901l-1.226,5.786l-1.219,5.787l-0.99,5.804l-0.99,5.802
			c-0.345,1.931-0.535,3.893-0.81,5.837c-2.116,15.566-3.27,31.291-3.165,46.999c0.022,15.704,1.237,31.407,3.828,46.875
			c1.328,7.729,2.993,15.394,5.026,22.96c2.085,7.539,4.562,15.021,7.43,22.24c5.81,14.454,14.833,27.569,26.668,37.607
			c11.877,9.945,26.41,16.676,41.717,19.278c7.642,1.344,15.447,1.782,23.207,1.327c7.76-0.479,15.468-1.803,22.972-3.874
			c7.506-2.064,14.826-4.833,21.834-8.262l1.318-0.633l0.33-0.158c0.038-0.018,0.147-0.072,0.127-0.06l0.162-0.089l0.648-0.354
			l2.595-1.418c0.887-0.457,1.693-0.974,2.501-1.49l2.438-1.537c0.799-0.539,1.572-1.128,2.36-1.688
			c0.774-0.58,1.596-1.103,2.323-1.743c1.484-1.242,3.023-2.426,4.397-3.793c2.891-2.587,5.412-5.547,7.861-8.549l1.716-2.351
			l0.858-1.175l0.79-1.223l1.583-2.445l1.452-2.527c3.863-6.756,6.608-14.126,8.693-21.653c2.052-7.55,3.285-15.321,4.043-23.131
			c0.722-7.818,0.886-15.691,0.721-23.557c-0.18-7.866-0.747-15.726-1.52-23.565c-0.401-3.919-0.841-7.833-1.354-11.742
			l-0.093-0.733c-0.587,0.009,0.769-0.255,0.642-0.126l0.023,0.184l0.047,0.367l0.188,1.467l0.373,2.934l0.748,5.866l1.495,11.734
			l0.748,5.867l0.187,1.467l0.047,0.366c0.424,0.021-0.546,0.214-0.459,0.092l-0.023-0.184l-0.094-0.733l-0.374-2.934
			L400.035,296.802z M400.332,296.761l3.133,23.451l0.392,2.931l0.098,0.732l0.024,0.184c0.116,0.096-0.871,0.158-0.467,0.029
			l-0.049-0.366l-0.196-1.466l-0.783-5.862l-1.565-11.725l-0.783-5.862l-0.392-2.932l-0.196-1.465l-0.049-0.366l-0.024-0.184
			c-0.155-0.093,1.223-0.186,0.652-0.044l0.098,0.732c0.52,3.908,1.046,7.821,1.5,11.742c0.893,7.843,1.58,15.717,1.88,23.616
			c0.58,15.773-0.205,31.752-4.075,47.206c-1.993,7.688-4.67,15.267-8.526,22.28c-1.835,3.558-4.118,6.863-6.471,10.104
			c-2.498,3.129-5.081,6.216-8.046,8.926c-1.412,1.429-2.99,2.672-4.518,3.974c-0.749,0.67-1.591,1.22-2.388,1.829
			c-0.812,0.59-1.603,1.203-2.433,1.774l-2.549,1.643c-0.85,0.553-1.7,1.104-2.564,1.56l-2.58,1.444l-0.646,0.361l-0.161,0.09
			l-0.205,0.104l-0.335,0.165l-1.341,0.66c-7.127,3.561-14.58,6.506-22.273,8.648c-7.692,2.137-15.607,3.511-23.591,4.015
			c-7.983,0.481-16.03,0.045-23.923-1.33c-15.807-2.661-30.89-9.604-43.215-19.897c-6.127-5.186-11.572-11.171-16.156-17.745
			c-0.567-0.826-1.166-1.631-1.707-2.474l-1.582-2.554c-1.095-1.681-2.022-3.455-2.982-5.212c-1-1.729-1.808-3.588-2.688-5.396
			c-0.92-1.816-1.573-3.642-2.354-5.463c-2.923-7.448-5.374-14.972-7.463-22.643c-2.028-7.675-3.681-15.441-4.991-23.263
			c-1.32-7.822-2.182-15.71-2.805-23.607c-0.622-7.9-0.887-15.824-0.833-23.742c0.038-15.839,1.343-31.646,3.615-47.307
			c0.294-1.957,0.503-3.923,0.869-5.871l1.053-5.849l1.054-5.848l1.272-5.776l1.278-5.775l0.625-2.884
			c0.208-0.946,0.408-1.895,0.538-2.857c0.624-3.832,0.876-7.731,0.904-11.639c0.049-7.825-0.786-15.665-1.353-23.543
			c-0.286-3.934-0.52-7.91-0.544-11.866c-0.017-4.002,0.485-7.961,0.8-11.854c0.132-1.945,0.251-3.894,0.019-5.783
			c-0.215-1.888-0.767-3.713-1.753-5.304c-0.271-0.381-0.48-0.807-0.8-1.154l-0.935-1.061c-0.332-0.331-0.701-0.619-1.048-0.933
			l-0.53-0.462l-0.61-0.417l-1.22-0.836l-1.247-0.76c-0.842-0.559-1.667-1.149-2.428-1.821c-1.534-1.328-2.858-2.881-3.935-4.61
			c-0.253-0.439-0.558-0.876-0.759-1.317l-0.333-0.661l-0.166-0.33c-0.035-0.077-0.039-0.061-0.1-0.215l-0.056-0.184l-0.445-1.475
			c-0.172-0.487-0.178-1.005-0.273-1.506c-0.207-1.008-0.138-2.027-0.176-3.041c0.023-0.505,0.087-1.007,0.13-1.51
			c0.04-0.504,0.093-1.006,0.207-1.498l0.288-1.482c0.113-0.489,0.268-0.967,0.4-1.452c0.244-0.976,0.63-1.902,0.972-2.843
			c1.472-3.727,3.616-7.157,6.201-10.206c1.327-1.504,2.729-2.925,4.395-4.12c0.82-0.659,1.651-1.083,2.544-1.619
			c0.836-0.479,1.695-0.926,2.454-1.51c1.556-1.112,2.854-2.538,3.737-4.228c0.898-1.684,1.435-3.569,1.994-5.457
			c0.555-1.892,1.143-3.8,1.896-5.648c0.362-0.928,0.794-1.835,1.24-2.738c0.461-0.896,0.92-1.73,1.457-2.6
			c4.129-6.803,9.596-12.738,15.808-17.678c6.221-4.941,13.199-8.916,20.608-11.788l-0.277,0.871l-1.35-2.308
			c-0.221-0.386-0.457-0.766-0.665-1.159l-0.542-1.218c-0.354-0.815-0.739-1.619-1.075-2.441l-0.853-2.521
			c-0.136-0.422-0.298-0.838-0.412-1.265l-0.323-1.289c-0.211-0.86-0.442-1.716-0.635-2.58c-0.291-1.742-0.69-3.473-0.864-5.23
			l-0.321-2.629l-0.214-2.643c-0.15-1.776-0.202-3.479-0.265-5.277c-0.017-1.795,0.088-3.676,0.901-5.482l0.332-0.667
			c0.142-0.208,0.312-0.403,0.471-0.603c0.292-0.428,0.72-0.718,1.127-1.031c0.409-0.305,0.887-0.468,1.333-0.689
			c0.461-0.125,0.929-0.293,1.39-0.373c1.854-0.344,3.641-0.317,5.395-0.329c1.754,0.003,3.475-0.017,5.166-0.136
			c3.444-0.293,6.855-0.942,10.332-1.511c1.746-0.263,3.516-0.576,5.473-0.406c0.968,0.099,2.034,0.38,2.919,1.024
			c0.884,0.638,1.503,1.511,1.942,2.375c0.868,1.751,1.252,3.535,1.589,5.294c0.323,1.769,0.547,3.525,0.743,5.265
			c0.39,3.489,0.866,6.983,1.184,10.47l0.469,5.23l0.234,2.615c0.076,1.049,0.121,1.286,0.538,1.895
			c0.8,1.126,2.265,2.116,3.667,3.006c1.438,0.893,2.958,1.712,4.495,2.515l9.365,4.736c3.13,1.608,6.244,3.295,9.249,5.217
			c2.994,1.93,5.915,4.082,8.393,6.827l0.901,1.057l0.831,1.13c0.528,0.802,1.065,1.696,1.396,2.453l0.143,0.296l0.07,0.148
			l0.045,0.1l0.015,0.04l0.029,0.079l0.233,0.632l0.466,1.265c0.294,0.845,0.658,1.684,0.894,2.535l0.751,2.549l0.768,2.449
			c0.225,0.827,0.58,1.598,0.905,2.382l0.979,2.349l-1.267-0.764c2.685-0.035,5.396,0.271,7.935,1.173
			c2.505,0.94,4.893,2.208,6.947,3.878c0.547,0.369,1.021,0.863,1.527,1.302c0.488,0.453,1.03,0.899,1.428,1.365l1.284,1.385
			c0.492,0.563,0.847,1.04,1.276,1.564c1.598,2.093,2.92,4.439,3.777,6.979c0.86,2.534,1.237,5.263,1.015,7.956
			c-0.23,2.701-1.066,5.286-2.324,7.668c-0.634,1.268-1.345,2.2-2.027,3.299c-0.333,0.498-0.653,1-0.909,1.527
			c-0.136,0.261-0.282,0.518-0.409,0.781l-0.329,0.806c-0.901,2.149-1.023,4.466-0.643,6.791c0.425,2.331,1.271,4.665,2.129,7.023
			l1.29,3.582l0.602,1.803l0.627,1.755c1.581,4.712,3.724,9.253,5.854,13.8c2.166,4.533,4.399,9.066,6.452,13.702l1.488,3.518
			c0.516,1.169,0.891,2.361,1.344,3.541l0.651,1.774l0.163,0.443l0.152,0.47l0.288,0.901l1.15,3.605
			c1.503,4.816,3.152,9.587,4.478,14.456l2.089,7.272l1.042,3.637l0.941,3.663l1.883,7.327c0.636,2.439,1.262,4.882,1.798,7.346
			c1.1,4.921,2.3,9.818,3.316,14.756c1.001,4.94,2.089,9.863,3.019,14.817c0.891,4.962,1.836,9.912,2.681,14.882l2.363,14.935
			L400.332,296.761z"/>
		<path d="M208.434,113.224c0.211-0.548,0.396-1.105,0.544-1.679c0.238-0.549,0.459-1.135,0.697-1.752l0.475-0.83
			c0.166-0.278,0.324-0.574,0.509-0.847c0.423-0.483,0.866-0.982,1.36-1.428l1.873-1.693l0.062,2.888
			c0.031,1.454-0.144,2.883-0.503,4.297c-0.348,1.415-0.816,2.821-1.022,4.254c-0.218,1.431-0.258,2.879-0.192,4.332
			c0.071,1.454,0.223,2.911,0.222,4.355l0,2.694L210.34,126l-0.924-0.792c-0.308-0.268-0.616-0.535-0.875-0.87l-0.811-0.966
			c-0.242-0.349-0.445-0.733-0.667-1.104l-0.319-0.567l-0.219-0.621c-0.132-0.417-0.306-0.829-0.367-1.263
			c-0.063-0.434-0.102-0.873-0.143-1.308c-0.061-0.436,0.043-0.863,0.065-1.291c0.039-0.427,0.076-0.855,0.219-1.25
			c0.124-0.401,0.259-0.796,0.405-1.182c0.156-0.381,0.392-0.722,0.593-1.072l0.315-0.514l0.161-0.251
			c0.019-0.02,0.053-0.072,0.079-0.107l0.012-0.017c-1.366-0.561,1.865,0.757,1.53,0.624l-0.003,0.005l-0.006,0.008l-0.021,0.03
			l-0.042,0.058c-0.447,0.615-0.874,1.237-1.269,1.873l-0.004,0.008l-0.003,0.007c-1.231-0.481-0.336-0.146-0.612-0.251l0.01-0.018
			l0.018-0.03l0.035-0.06l0.07-0.121l0.139-0.243l0.261-0.491C208.136,113.898,208.287,113.562,208.434,113.224z M208.712,113.335
			c-0.132,0.344-0.26,0.692-0.372,1.045l-0.158,0.533l-0.071,0.27l-0.034,0.135l-0.017,0.068l-0.009,0.034l-0.003,0.015
			c-0.277-0.101,0.618,0.232-0.611-0.251c-0.002,0.005,0-0.001,0-0.001l0.002-0.008c0.164-0.729,0.295-1.474,0.407-2.225l0.011-0.07
			l0.005-0.035l0.001-0.007v-0.003c-0.333-0.138,2.896,1.185,1.529,0.626l-0.002,0.015l-0.025,0.149l-0.024,0.27l-0.055,0.529
			c-0.027,0.351-0.095,0.689-0.107,1.026c-0.003,0.337-0.016,0.665-0.042,0.986c-0.054,0.322-0.014,0.635-0.009,0.944
			c0.025,0.308-0.022,0.623,0.046,0.917c0.054,0.297,0.109,0.59,0.141,0.888c0.042,0.296,0.18,0.568,0.245,0.859l0.118,0.434
			l0.189,0.416c0.133,0.275,0.239,0.565,0.388,0.839l0.523,0.801c0.154,0.282,0.377,0.527,0.6,0.774l0.646,0.768l-2.118,0.88
			c0.253-1.438,0.658-2.864,0.983-4.292c0.319-1.429,0.533-2.864,0.568-4.315c0.047-1.45-0.167-2.925-0.262-4.393
			c-0.106-1.469-0.028-2.922,0.257-4.351l1.936,1.195c-0.436,0.273-0.922,0.494-1.429,0.73l-1.385,0.935
			c-0.375,0.386-0.776,0.799-1.135,1.26C209.164,112.248,208.924,112.787,208.712,113.335z"/>
		<path d="M346.252,105.083c-0.46-0.404-0.824-0.85-1.195-1.293c-0.348-0.454-0.695-0.907-0.995-1.382
			c-0.616-0.942-1.145-1.923-1.602-2.936c-0.458-1.012-0.663-2.135-0.867-3.26c-0.198-1.127-0.511-2.203-1.016-3.194l0.73-0.532
			c0.434,0.396,0.897,0.761,1.393,1.112c0.45,0.394,0.931,0.777,1.404,1.183c0.212,0.221,0.437,0.438,0.643,0.672
			c0.199,0.237,0.432,0.458,0.607,0.714l0.504,0.789c0.157,0.27,0.34,0.531,0.476,0.812l0.399,0.853
			c0.12,0.289,0.274,0.57,0.367,0.869c0.102,0.296,0.196,0.596,0.279,0.898c0.083,0.301,0.182,0.604,0.223,0.912
			c0.085,0.617,0.164,1.237,0.187,1.855c-0.011,0.618-0.048,1.234-0.076,1.843l-2.543,0.544c-0.115-0.44-0.216-0.889-0.279-1.377
			c-0.025-0.245-0.038-0.5-0.027-0.792c0.007-0.147,0.018-0.303,0.06-0.51c0.022-0.102,0.051-0.227,0.135-0.403
			c0.06-0.108,0.093-0.191,0.259-0.348c0.098-0.113,0.438-0.283,0.666-0.26c0.291,0.009,0.41,0.09,0.553,0.175
			c0.075,0.057,0.174,0.148,0.208,0.199c0.095,0.121,0.136,0.215,0.175,0.306c0.067,0.174,0.094,0.32,0.111,0.46
			c0.037,0.278,0.009,0.528-0.028,0.766c-0.071,0.475-0.247,0.901-0.464,1.288l-0.108,0.193L346.252,105.083z M346.241,104.999
			c-0.095-0.417-0.211-0.809-0.353-1.146c-0.071-0.167-0.163-0.322-0.247-0.434c-0.042-0.054-0.089-0.099-0.12-0.103
			c-0.013,0.004-0.025,0.011-0.001,0.058c0.003,0.011,0.057,0.075,0.094,0.099c0.097,0.065,0.171,0.117,0.408,0.131
			c0.182,0.021,0.466-0.126,0.534-0.2c0.125-0.124,0.14-0.158,0.176-0.221c0.046-0.083,0.054-0.106,0.065-0.107
			c0.021-0.004,0.04,0.045,0.067,0.1c0.053,0.113,0.125,0.258,0.207,0.406c0.146,0.298,0.334,0.614,0.536,0.923l-2.543,0.544
			c-0.102-0.534-0.21-1.06-0.293-1.583c-0.039-0.262-0.128-0.513-0.175-0.771c-0.05-0.257-0.114-0.51-0.15-0.769
			c-0.036-0.259-0.133-0.5-0.179-0.755c-0.062-0.25-0.113-0.505-0.156-0.762c-0.041-0.259-0.141-0.497-0.207-0.748l-0.209-0.753
			c-0.07-0.252-0.186-0.484-0.276-0.73l-0.275-0.741c-0.217-0.479-0.429-0.97-0.62-1.493c-0.247-0.483-0.498-0.981-0.777-1.469
			c-0.319-0.452-0.671-0.89-1.054-1.297l0.73-0.532c0.394,1.04,0.979,1.996,1.679,2.901c0.694,0.907,1.388,1.815,1.827,2.835
			c0.44,1.02,0.811,2.07,1.093,3.16c0.149,0.542,0.251,1.104,0.353,1.666c0.077,0.573,0.162,1.143,0.151,1.754L346.241,104.999z"/>
	</g>
</g>
</svg>
