<?xml version="1.0" encoding="utf-8"?>
<!-- Generator: Adobe Illustrator 16.0.4, SVG Export Plug-In . SVG Version: 6.00 Build 0)  -->
<!DOCTYPE svg PUBLIC "-//W3C//DTD SVG 1.1//EN" "http://www.w3.org/Graphics/SVG/1.1/DTD/svg11.dtd">
<svg version="1.1" id="Layer_1" xmlns="http://www.w3.org/2000/svg" xmlns:xlink="http://www.w3.org/1999/xlink" x="0px" y="0px"
	 width="491.667px" height="389.248px" viewBox="0 0 491.667 389.248" enable-background="new 0 0 491.667 389.248"
	 xml:space="preserve">
<path fill="#0AC100" d="M129.629,389.204c-0.413-0.014-14.365-49.597-20.187-109.892c-3.427-35.483-3.255-68.373,0.509-97.754
	c4.729-36.917,15.176-68.381,31.047-93.52l4.376,4.174c-34.713,54.98-35.709,131.656-30.432,186.298
	c5.744,59.482,21.458,110.503,21.057,110.569C134.79,389.276,131.752,389.276,129.629,389.204z"/>
<ellipse transform="matrix(0.8787 0.4773 -0.4773 0.8787 46.6109 -65.8692)" fill="#00CFFF" stroke="#231F20" stroke-width="3" stroke-miterlimit="10" cx="152.942" cy="58.8" rx="17.115" ry="50.909"/>
<ellipse transform="matrix(0.9246 0.3809 -0.3809 0.9246 76.6393 -22.1519)" fill="#0092FF" stroke="#231F20" stroke-width="3" stroke-miterlimit="10" cx="94.285" cy="182.549" rx="17.115" ry="50.911"/>
<ellipse transform="matrix(0.1752 -0.9845 0.9845 0.1752 26.704 297.0477)" fill="#00CFFF" stroke="#231F20" stroke-width="3" stroke-miterlimit="10" cx="190.638" cy="132.586" rx="17.116" ry="50.911"/>
<ellipse transform="matrix(0.1792 -0.9838 0.9838 0.1792 -63.619 140.3604)" fill="#0092FF" stroke="#231F20" stroke-width="3" stroke-miterlimit="10" cx="52.313" cy="108.309" rx="17.115" ry="50.909"/>
<ellipse transform="matrix(0.9824 -0.1867 0.1867 0.9824 -7.8686 20.8829)" fill="#0092FF" stroke="#231F20" stroke-width="3" stroke-miterlimit="10" cx="106.958" cy="52.225" rx="17.116" ry="50.911"/>
<ellipse transform="matrix(-0.9649 0.2625 -0.2625 -0.9649 320.4683 331.024)" fill="#00CFFF" stroke="#231F20" stroke-width="3" stroke-miterlimit="10" cx="138.121" cy="186.92" rx="17.115" ry="50.91"/>
<ellipse transform="matrix(0.3928 0.9196 -0.9196 0.3928 197.7699 -112.0508)" fill="#0092FF" stroke="#231F20" stroke-width="3" stroke-miterlimit="10" cx="183.736" cy="93.738" rx="17.115" ry="50.91"/>
<ellipse transform="matrix(0.4932 0.8699 -0.8699 0.4932 163.192 23.0721)" fill="#00CFFF" stroke="#231F20" stroke-width="3" stroke-miterlimit="10" cx="61.793" cy="151.604" rx="17.115" ry="50.91"/>
<ellipse transform="matrix(0.6806 -0.7326 0.7326 0.6806 -67.8214 178.3019)" fill="#0092FF" stroke="#231F20" stroke-width="3" stroke-miterlimit="10" cx="170.597" cy="166.94" rx="17.115" ry="50.91"/>
<ellipse transform="matrix(0.6806 -0.7327 0.7327 0.6806 -31.3674 73.6252)" fill="#00CFFF" stroke="#231F20" stroke-width="3" stroke-miterlimit="10" cx="68.758" cy="72.788" rx="17.115" ry="50.91"/>
<g>
	<path fill="#FFF100" d="M143.318,124.11c-3.801,12.364-16.906,19.299-29.256,15.501c-12.377-3.806-19.308-16.902-15.506-29.266
		c3.801-12.364,16.893-19.303,29.27-15.497C140.177,98.646,147.12,111.746,143.318,124.11z"/>
	<path fill="#231F20" d="M143.647,124.229c0,0-0.192,0.542-0.551,1.557c-0.098,0.252-0.175,0.54-0.305,0.851
		c-0.136,0.311-0.284,0.65-0.444,1.017c-0.17,0.362-0.317,0.774-0.515,1.188c-0.212,0.407-0.438,0.839-0.677,1.296
		c-0.986,1.805-2.279,4.031-4.315,6.256c-2.02,2.205-4.769,4.508-8.388,5.942c-3.592,1.423-8.01,1.894-12.385,0.919
		c-0.548-0.107-1.08-0.299-1.622-0.454l-0.808-0.26l-0.404-0.131l-0.188-0.064l-0.043-0.02l-0.087-0.039l-0.174-0.077
		c-0.936-0.443-1.806-0.785-2.913-1.479c-0.516-0.314-1.065-0.614-1.533-0.965c-0.46-0.354-0.922-0.71-1.386-1.068
		c-0.473-0.336-0.881-0.767-1.31-1.163c-0.414-0.416-0.872-0.776-1.24-1.239c-1.603-1.711-2.921-3.662-4.107-5.669
		c-1.136-2.047-2.055-4.207-2.781-6.458c-0.682-2.268-1.072-4.63-1.253-7.047c-0.123-2.42,0.047-4.883,0.506-7.342l0.447-1.774
		c0.107-0.539,0.339-1.162,0.572-1.783c0.433-1.278,1.016-2.392,1.594-3.536c1.294-2.196,2.872-4.267,4.795-5.972
		c1.937-1.677,4.083-3.104,6.382-4.188c2.315-1.03,4.736-1.826,7.21-2.167c2.465-0.325,4.958-0.386,7.331,0.028
		c1.2,0.138,2.34,0.482,3.476,0.775l0.211,0.059l0.106,0.03l0.053,0.015l0.227,0.076l0.353,0.138l0.702,0.273l0.697,0.271
		c0.235,0.094,0.444,0.163,0.739,0.314c1.075,0.543,2.228,1.078,3.1,1.708c0.46,0.306,0.917,0.61,1.371,0.912
		c0.434,0.328,0.837,0.69,1.248,1.03c1.653,1.356,2.946,2.984,4.053,4.582c2.132,3.292,3.115,6.74,3.534,9.715
		c0.429,2.995,0.248,5.568,0.04,7.62c-0.062,0.513-0.121,0.998-0.176,1.455c-0.071,0.453-0.183,0.871-0.249,1.264
		c-0.139,0.785-0.286,1.443-0.446,1.968c-0.289,1.055-0.442,1.618-0.442,1.618L143.647,124.229z M142.984,124.007
		c0,0,0.128-0.551,0.368-1.585c0.152-0.509,0.21-1.164,0.282-1.927c0.036-0.381,0.089-0.79,0.091-1.228
		c-0.014-0.438-0.028-0.903-0.043-1.396c-0.123-1.949-0.567-4.326-1.766-6.709c-1.151-2.388-2.9-4.779-5.123-6.851
		c-1.139-1.012-2.319-2.019-3.657-2.879c-0.33-0.218-0.663-0.438-0.998-0.659c-0.352-0.192-0.707-0.386-1.064-0.582
		c-0.719-0.454-1.4-0.622-2.082-0.978c-0.142-0.083-0.408-0.161-0.638-0.241l-0.708-0.24l-0.714-0.241l-0.358-0.121
		c-0.175-0.06,0.188,0.062,0.137,0.048l-0.039-0.009l-0.078-0.017l-0.157-0.034c-0.834-0.181-1.659-0.456-2.529-0.531
		c-1.715-0.325-3.503-0.321-5.314-0.216c-1.818,0.13-3.635,0.572-5.436,1.177c-1.787,0.655-3.486,1.603-5.097,2.731
		c-1.574,1.175-3.049,2.538-4.372,4.096c-0.621,0.807-1.291,1.62-1.771,2.455c-0.554,0.701-1.078,2.023-1.53,2.839
		c-0.789,1.965-1.4,4.061-1.56,6.228c-0.125,2.159,0.081,4.352,0.673,6.433c0.633,2.063,1.562,4.028,2.827,5.716
		c1.3,1.658,2.793,3.112,4.476,4.203c0.389,0.309,0.857,0.512,1.273,0.768c0.431,0.236,0.831,0.506,1.287,0.682
		c0.438,0.195,0.874,0.39,1.308,0.583c0.43,0.188,0.853,0.28,1.26,0.436c0.726,0.292,1.829,0.542,2.789,0.814l0.183,0.052
		l0.091,0.026l0.045,0.013c0.046,0.015-0.235-0.082-0.097-0.038l0.33,0.054l0.652,0.109c0.433,0.068,0.85,0.193,1.28,0.227
		c3.408,0.439,6.627,0.298,9.639-0.233c2.997-0.556,5.789-1.548,8.082-2.896c2.332-1.31,4.038-3.031,5.229-4.583
		c0.287-0.4,0.559-0.779,0.814-1.136c0.242-0.364,0.423-0.728,0.604-1.063c0.362-0.667,0.678-1.241,0.837-1.764
		c0.377-1.009,0.578-1.547,0.578-1.547L142.984,124.007z"/>
</g>
<path fill="#0AC100" d="M373.771,389.204c-0.413-0.014-14.365-49.597-20.188-109.892c-3.427-35.482-3.256-68.373,0.509-97.754
	c4.729-36.916,15.176-68.381,31.048-93.52l4.376,4.174c-34.713,54.98-35.709,131.656-30.432,186.298
	c5.744,59.482,21.458,110.503,21.057,110.569C378.932,389.276,375.895,389.276,373.771,389.204z"/>
<ellipse transform="matrix(0.8787 0.4773 -0.4773 0.8787 76.2153 -182.3979)" fill="#00CFFF" stroke="#231F20" stroke-width="3" stroke-miterlimit="10" cx="397.084" cy="58.8" rx="17.115" ry="50.909"/>
<ellipse transform="matrix(0.9246 0.3809 -0.3809 0.9246 95.0414 -115.1426)" fill="#0092FF" stroke="#231F20" stroke-width="3" stroke-miterlimit="10" cx="338.427" cy="182.549" rx="17.115" ry="50.911"/>
<ellipse transform="matrix(0.1752 -0.9845 0.9845 0.1752 228.0742 537.4141)" fill="#00CFFF" stroke="#231F20" stroke-width="3" stroke-miterlimit="10" cx="434.78" cy="132.586" rx="17.116" ry="50.911"/>
<ellipse transform="matrix(0.1793 -0.9838 0.9838 0.1793 136.7599 380.5472)" fill="#0092FF" stroke="#231F20" stroke-width="3" stroke-miterlimit="10" cx="296.455" cy="108.309" rx="17.115" ry="50.909"/>
<ellipse transform="matrix(0.9824 -0.1867 0.1867 0.9824 -3.5775 66.456)" fill="#0092FF" stroke="#231F20" stroke-width="3" stroke-miterlimit="10" cx="351.1" cy="52.225" rx="17.115" ry="50.911"/>
<ellipse transform="matrix(-0.9649 0.2625 -0.2625 -0.9649 800.1867 266.9393)" fill="#00CFFF" stroke="#231F20" stroke-width="3" stroke-miterlimit="10" cx="382.263" cy="186.919" rx="17.115" ry="50.91"/>
<ellipse transform="matrix(0.3928 0.9196 -0.9196 0.3928 346.0148 -336.5701)" fill="#0092FF" stroke="#231F20" stroke-width="3" stroke-miterlimit="10" cx="427.878" cy="93.738" rx="17.115" ry="50.91"/>
<ellipse transform="matrix(0.4932 0.8699 -0.8699 0.4932 286.9173 -189.3044)" fill="#00CFFF" stroke="#231F20" stroke-width="3" stroke-miterlimit="10" cx="305.935" cy="151.604" rx="17.115" ry="50.91"/>
<ellipse transform="matrix(0.6806 -0.7326 0.7326 0.6806 10.1516 357.1681)" fill="#0092FF" stroke="#231F20" stroke-width="3" stroke-miterlimit="10" cx="414.739" cy="166.94" rx="17.115" ry="50.91"/>
<ellipse transform="matrix(0.6806 -0.7327 0.7327 0.6806 46.6108 252.4954)" fill="#00CFFF" stroke="#231F20" stroke-width="3" stroke-miterlimit="10" cx="312.9" cy="72.788" rx="17.116" ry="50.91"/>
<g>
	<path fill="#FFF100" d="M387.46,124.109c-3.802,12.364-16.905,19.3-29.257,15.502c-12.377-3.806-19.307-16.902-15.506-29.266
		c3.802-12.364,16.893-19.303,29.271-15.497C384.318,98.646,391.262,111.746,387.46,124.109z"/>
	<path fill="#231F20" d="M387.789,124.229c0,0-0.192,0.542-0.552,1.557c-0.098,0.252-0.175,0.54-0.305,0.852
		c-0.136,0.311-0.284,0.65-0.444,1.017c-0.17,0.362-0.316,0.774-0.515,1.188c-0.213,0.407-0.438,0.839-0.677,1.296
		c-0.986,1.805-2.278,4.031-4.315,6.256c-2.02,2.206-4.769,4.508-8.387,5.943c-3.593,1.423-8.011,1.894-12.386,0.919
		c-0.548-0.107-1.08-0.299-1.622-0.454l-0.808-0.26l-0.404-0.131l-0.188-0.065l-0.044-0.019l-0.087-0.039l-0.174-0.078
		c-0.936-0.443-1.806-0.785-2.912-1.479c-0.517-0.314-1.065-0.614-1.533-0.966c-0.46-0.354-0.922-0.71-1.387-1.067
		c-0.474-0.337-0.881-0.767-1.31-1.163c-0.414-0.416-0.871-0.776-1.239-1.239c-1.604-1.71-2.922-3.662-4.107-5.668
		c-1.137-2.047-2.056-4.207-2.781-6.458c-0.682-2.268-1.071-4.629-1.253-7.046c-0.123-2.42,0.047-4.883,0.505-7.342l0.448-1.774
		c0.106-0.54,0.338-1.162,0.572-1.783c0.433-1.278,1.016-2.392,1.593-3.536c1.295-2.196,2.872-4.267,4.795-5.972
		c1.938-1.677,4.083-3.104,6.383-4.188c2.315-1.03,4.736-1.826,7.211-2.167c2.464-0.325,4.957-0.386,7.331,0.028
		c1.199,0.138,2.34,0.481,3.475,0.774l0.212,0.06l0.105,0.029l0.053,0.015l0.228,0.076l0.353,0.137l0.702,0.273l0.697,0.271
		c0.235,0.094,0.443,0.162,0.738,0.314c1.075,0.543,2.228,1.077,3.101,1.708c0.46,0.306,0.917,0.61,1.37,0.911
		c0.435,0.328,0.838,0.69,1.249,1.03c1.652,1.357,2.945,2.984,4.053,4.582c2.132,3.292,3.115,6.74,3.534,9.715
		c0.429,2.995,0.248,5.568,0.04,7.62c-0.062,0.513-0.121,0.998-0.176,1.455c-0.071,0.453-0.183,0.871-0.248,1.264
		c-0.139,0.785-0.286,1.443-0.447,1.968c-0.288,1.055-0.441,1.618-0.441,1.618L387.789,124.229z M387.125,124.006
		c0,0,0.129-0.551,0.369-1.585c0.152-0.509,0.21-1.164,0.281-1.927c0.036-0.381,0.089-0.79,0.091-1.228
		c-0.013-0.438-0.027-0.903-0.042-1.396c-0.123-1.949-0.567-4.326-1.767-6.709c-1.151-2.388-2.9-4.779-5.123-6.851
		c-1.14-1.012-2.319-2.019-3.657-2.879c-0.33-0.218-0.662-0.438-0.997-0.659c-0.353-0.192-0.707-0.386-1.064-0.582
		c-0.719-0.455-1.4-0.622-2.082-0.978c-0.142-0.083-0.408-0.161-0.638-0.241l-0.709-0.24l-0.714-0.241l-0.358-0.122
		c-0.176-0.059,0.188,0.063,0.138,0.048l-0.039-0.008l-0.079-0.017l-0.156-0.034c-0.834-0.181-1.659-0.456-2.529-0.531
		c-1.715-0.325-3.503-0.321-5.314-0.216c-1.817,0.13-3.635,0.572-5.436,1.177c-1.786,0.656-3.486,1.603-5.097,2.731
		c-1.574,1.176-3.049,2.538-4.371,4.096c-0.621,0.807-1.291,1.62-1.772,2.455c-0.553,0.701-1.077,2.023-1.529,2.838
		c-0.789,1.965-1.399,4.061-1.561,6.228c-0.125,2.159,0.081,4.352,0.674,6.432c0.634,2.063,1.562,4.028,2.827,5.716
		c1.3,1.658,2.793,3.112,4.476,4.203c0.389,0.309,0.857,0.511,1.272,0.768c0.432,0.235,0.832,0.505,1.288,0.682
		c0.438,0.195,0.874,0.39,1.308,0.583c0.43,0.187,0.854,0.28,1.261,0.436c0.726,0.292,1.829,0.542,2.788,0.814l0.183,0.052
		l0.092,0.026l0.046,0.013c0.046,0.016-0.235-0.082-0.097-0.037l0.329,0.054l0.652,0.109c0.433,0.067,0.85,0.192,1.279,0.227
		c3.408,0.438,6.627,0.297,9.64-0.234c2.996-0.556,5.789-1.548,8.081-2.897c2.332-1.31,4.039-3.031,5.23-4.583
		c0.286-0.4,0.559-0.779,0.813-1.136c0.242-0.364,0.424-0.728,0.604-1.063c0.361-0.667,0.679-1.241,0.838-1.764
		c0.376-1.009,0.577-1.547,0.577-1.547L387.125,124.006z"/>
</g>
</svg>
