<?xml version="1.0" encoding="utf-8"?>
<!-- Generator: Adobe Illustrator 16.0.4, SVG Export Plug-In . SVG Version: 6.00 Build 0)  -->
<!DOCTYPE svg PUBLIC "-//W3C//DTD SVG 1.1//EN" "http://www.w3.org/Graphics/SVG/1.1/DTD/svg11.dtd">
<svg version="1.1" id="Layer_1" xmlns="http://www.w3.org/2000/svg" xmlns:xlink="http://www.w3.org/1999/xlink" x="0px" y="0px"
	 width="134.947px" height="489.752px" viewBox="0 0 134.947 489.752" enable-background="new 0 0 134.947 489.752"
	 xml:space="preserve">
<g id="walk0">
	<path id="highlight6" fill="#EF4325" stroke="#040404" stroke-width="4.252" stroke-linecap="round" stroke-linejoin="round" d="
		M3.849,481.126c-3.86-5.879-1.592-11.807,10.47-18.774c18.082-10.442,45.295-15.265,45.295-15.265
		c2.392,1.417,5.645,3.595,7.381,2.938c0.578-0.225-1.293-2.834,0.502-2.543c7.959,1.293,11.6,24.928,8.111,33.154L3.849,481.126z"
		/>
	<polygon fill="#040404" points="78.383,474.643 1.601,475.113 3.188,481.119 78.359,480.643 	"/>
	
		<path fill="none" stroke="#040404" stroke-width="4.252" stroke-linecap="round" stroke-linejoin="round" stroke-miterlimit="10" d="
		M54.49,460.527c0,0-0.933-9.332-8.707-12.562"/>
	
		<path fill="none" stroke="#040404" stroke-width="4.252" stroke-linecap="round" stroke-linejoin="round" stroke-miterlimit="10" d="
		M43.938,461.863c0,0-0.899-9.131-8.967-11.535"/>
	
		<line fill="none" stroke="#040404" stroke-width="5.6693" stroke-linecap="round" stroke-linejoin="round" x1="64.518" y1="449.723" x2="63.964" y2="342.758"/>
	
		<line fill="none" stroke="#040404" stroke-width="5.6693" stroke-linecap="round" stroke-linejoin="round" x1="84.518" y1="451.723" x2="83.963" y2="344.758"/>
	<path id="highlight5" fill="#EF4325" stroke="#040404" stroke-width="4.252" stroke-linecap="round" stroke-linejoin="round" d="
		M24.349,487.626c-3.86-5.879-1.592-11.807,10.47-18.774c18.082-10.442,45.295-15.265,45.295-15.265
		c2.391,1.417,5.645,3.595,7.381,2.938c0.578-0.225-1.293-2.834,0.502-2.543c7.959,1.293,11.6,24.928,8.111,33.154L24.349,487.626z"
		/>
	<polygon fill="#040404" points="97.883,482.143 21.101,482.613 22.688,488.619 97.859,488.143 	"/>
	
		<path fill="none" stroke="#040404" stroke-width="4.252" stroke-linecap="round" stroke-linejoin="round" stroke-miterlimit="10" d="
		M74.99,467.027c0,0-0.932-9.332-8.707-12.562"/>
	
		<path fill="none" stroke="#040404" stroke-width="4.252" stroke-linecap="round" stroke-linejoin="round" stroke-miterlimit="10" d="
		M64.438,468.363c0,0-0.898-9.131-8.966-11.535"/>
	<path id="highlight4" fill="#40C6F4" stroke="#040404" stroke-width="2.8347" stroke-linecap="round" stroke-linejoin="round" d="
		M48.521,280.584c-3.861,4.97-10.5,88.494-10.5,88.494s48.997-0.582,50.997-1c-0.871-2.442-5.225-4.271-5.664-12.531
		c-0.942-17.665-3.051-35.096-4.17-52.686c-0.184-2.912-0.303-13.748-0.303-13.748S55.336,271.808,48.521,280.584z"/>
	<g>
		<path fill="#040404" stroke="#040404" stroke-width="2.8347" d="M75.092,142.398c0,0.997-1.2,1.804-2.683,1.804
			s-2.682-0.807-2.682-1.804l0,0c0-2.646,0.135-5.312,0.27-7.89c0.133-2.548,0.27-5.184,0.27-7.771l0,0
			c0-0.998,1.2-0.977,2.682-0.977c1.479,0,2.684-0.021,2.684,0.977l0,0c0,2.647-0.14,5.314-0.271,7.896
			C75.229,137.18,75.092,139.815,75.092,142.398L75.092,142.398z"/>
	</g>
	<path id="highlight3" fill="#40C6F4" stroke="#040404" stroke-width="2.8347" stroke-linecap="round" stroke-linejoin="round" d="
		M53.879,287.613c0.496,3.053-5.567,89.137-0.858,88.965c3.64-0.138,51.108-1.664,53.108-2.082
		c-0.871-2.442-1.338-15.188-1.777-23.449c-0.942-17.665-3.051-35.096-4.17-52.686c-0.184-2.912-0.303-13.748-0.303-13.748
		S53.769,286.963,53.879,287.613z"/>
	<path id="highlight2" fill="#EC2728" stroke="#040404" stroke-width="2.8347" stroke-linecap="round" stroke-linejoin="round" d="
		M42.201,296.614c0,0,29.24,3.324,40.678,3c6.153-0.174,24.434-2,24.434-2s-4.266-66.431-4.434-80.674
		c-0.104-8.844-2.504-35.527-4-46c-3-21-17.203-36.387-21.631-38.517c0.75,4.778-7.369,8.516-9.504,0.575
		c-9.365,2.909-12.836,29.289-18.865,79.941C45.519,241.169,42.201,296.614,42.201,296.614z"/>
	<g>
		<g>
			<path fill="#020202" d="M73.453,343.164c-0.945,0-1.709-0.772-1.709-1.715c0.01-7.552-0.232-19.669-0.945-22.104
				c-0.612-2.088-0.737-2.229-1.258-2.828c-0.17-0.197-0.37-0.422-0.604-0.719c-2.086-2.588-2.131-2.576-4.363-1.771
				c-0.545,0.198-1.162,0.418-1.886,0.638c-1.791,0.545-1.896,0.799-2.391,2.023c-0.281,0.693-0.666,1.643-1.412,2.789l-3.896,8.836
				c-0.383,0.861-1.398,1.255-2.258,0.873c-0.863-0.385-1.26-1.395-0.873-2.256l3.957-8.967c0.037-0.09,0.086-0.176,0.141-0.258
				c0.611-0.916,0.906-1.658,1.176-2.309c0.731-1.809,1.44-3.064,4.562-4.012c0.661-0.201,1.225-0.404,1.725-0.586
				c3.316-1.193,4.883-1.255,8.189,2.854c0.202,0.25,0.369,0.438,0.514,0.604c0.912,1.044,1.223,1.587,1.969,4.119
				c1.076,3.681,1.082,21.095,1.078,23.068c0,0.646-0.357,1.207-0.885,1.5C74.037,343.078,73.756,343.156,73.453,343.164z"/>
		</g>
		<path fill="#020202" d="M67.594,311.881c6.234,0.703,6.417,13.108,6.154,14.046c0,0-2.752-4.472-10.69-5.718
			c-3.271-0.512-1.439-2.989-6.586-0.896C56.472,319.313,62.554,311.312,67.594,311.881z"/>
		<g>
			<path fill="#020202" d="M68.167,347.644c-0.944-0.033-1.683-0.83-1.647-1.772l1.022-27.074c0.035-0.944,0.828-1.68,1.775-1.643
				c0.945,0.032,1.681,0.827,1.646,1.772l-1.023,27.071c-0.022,0.623-0.377,1.158-0.886,1.435
				C68.791,347.578,68.486,347.654,68.167,347.644z"/>
		</g>
		<g>
			<path fill="#020202" d="M62.79,347.729c-0.943-0.082-1.637-0.914-1.553-1.856l1.297-14.543l1.6-14.338
				c0.109-0.94,0.956-1.615,1.896-1.509c0.94,0.104,1.614,0.953,1.51,1.892l-1.604,14.297l-1.291,14.507
				c-0.049,0.59-0.397,1.082-0.876,1.349C63.479,347.687,63.146,347.767,62.79,347.729z"/>
		</g>
		<g>
			<path fill="#020202" d="M58.099,344.738c-0.94-0.125-1.594-0.986-1.469-1.925l3.258-24.44c0.123-0.94,0.982-1.594,1.922-1.472
				c0.938,0.121,1.597,0.986,1.472,1.925l-3.258,24.438c-0.076,0.56-0.414,1.019-0.873,1.274
				C58.843,344.709,58.476,344.785,58.099,344.738z"/>
		</g>
	</g>
	<path fill="none" stroke="#040404" stroke-width="4.252" stroke-linecap="round" stroke-linejoin="round" d="M67.594,311.881
		c0,0,4.05-29.557,5.085-46.827c1.16-19.379,4.252-76.865,4.252-76.865"/>
	
		<polyline id="highlight1" fill="#EC2728" stroke="#040404" stroke-width="2.8347" stroke-linecap="round" stroke-linejoin="round" points="
		61.898,163.769 57.89,204.122 83.65,206.709 85.936,159.869 	"/>
</g>
<g id="Layer_2">
	<path id="skin" fill="#966C46" stroke="#040404" stroke-width="3" stroke-miterlimit="10" d="M20.02,72.365
		c0,29.487,23.907,53.396,53.396,53.396c29.49,0,53.396-23.908,53.396-53.396c0-29.492-23.906-53.398-53.396-53.398
		C43.927,18.967,20.02,42.873,20.02,72.365z"/>
	<circle fill="#040404" stroke="#040404" stroke-width="3" cx="86.576" cy="67.219" r="2.129"/>
	<circle fill="#040404" stroke="#040404" stroke-width="3" cx="59.826" cy="67.218" r="2.13"/>
	<g>
		<path fill="#040404" d="M67.676,111.606c-17.951-4.991-22.512-19.307-23.709-22.87l0,0c-0.24-0.688-0.041-1.529,0.438-1.871l0,0
			c0.486-0.343,1.072-0.062,1.314,0.628l0,0c1.242,3.443,5.018,16.395,22.334,21.372l0,0c1.699,0.481,3.498,0.728,5.338,0.728l0,0
			c10.508,0,22.215-7.932,26.178-23.805l0,0c0.182-0.727,0.74-1.104,1.246-0.843l0,0c0.51,0.26,0.771,1.056,0.59,1.786l0,0
			c-4.367,17.307-16.889,25.65-28.014,25.65l0,0C71.432,112.381,69.507,112.123,67.676,111.606L67.676,111.606z"/>
	</g>
	<path fill="#010101" d="M134.818,41.824c-1.115-4.092-3.72-6.323-4.835-7.812c-0.532-0.71,3.276-1.353,3.276-1.353
		c-10.295-14.102-11.244-15.824-23.363-22.083c3.348-1.86-2.232-1.86-7.842-5.318c2.488-0.196-16.951-8.441-32.705-3.238
		C72-1.386,55.214-0.211,51.868,3.508c-1.861-2.231-8.005,0.468-6.932,1.539c-8.021,1.958-16.867,8.418-13.436,7.066
		c-8.8,6.264-2.395,6.292-13.434,12.902c-3.215,2.045-7.365,17.912-4.885,16.063c-1.376,2.235-3.627,1.702-4.582,6.511
		c0.668-1.573,2.988-1.051,2.742,1.984c-0.191,2.386-5.014,11.826-5.014,11.826s2.964-1.441,3.156,2.32
		c0.227,4.363-2.129,7.625,1.203,13.351c4.125,7.084,5.422,5.196,5.549,7.082c0.354,5.349,5.344,5.927,7.102,5.927
		c-2.992-4.729-1.457-15.759-1.469-18.388c-0.009-2.402,0.178-4.55,0.609-6.589c0.363,2.652,1.227,6.57,1.761,7.369
		c-0.468-3.172,1.001-13.232,2.351-15.635c3.342-5.568,7.804-7.908,17.48-13.83c-3.827,5.284-6.201,8.756-6.898,14.04
		c2.875-5.59,7.667-9.184,13.209-13.313c-2.352,3.615-4.932,4.951-5.957,9.051c7.008-6.868,13.854-12.16,26.059-14.88
		c-3.939,4.372-4.768,9.17-5.148,14.029c2.264-3.799,4.584-7.567,8.637-10.385c-1.111,3.646-0.281,6.44,0.832,9.109
		c1.822-3.583,3.979-7.047,8.472-9.657c-1.356,3.16-1.188,5.65-0.332,7.835c1.05-3.614,2.935-6.468,6.646-7.651
		c6.711,4.044,13.521,7.468,19.771,14.576c0.523-3.979-1.078-7.621-3.65-11.116c4.375,2.917,7.42,7.045,9.135,12.39
		c0.953-1.544,1.262-3.56,0.957-6.023c4.281,6.287,4.297,5.641,5.262,9.409c-1.113,5.581,2.234,6.325,1.117,12.276
		c0.211-0.138-0.889,3.96-0.745,3.72c0.034,0.396,2.651,2.738,2.604,2.977c-0.262,1.326-0.604-1.217,1.197-0.223
		c-0.003,0.105-0.005,0.215-0.009,0.318c-0.118,2.663-0.63,8.814-1.788,10.59c2.523-3.876,6.355-9.872,6.951-13.009
		c1.314-6.984,3.954-3.082,3.771-5.638c-0.457-6.545,2.521-19.193-0.828-25.518C133.207,45.681,133.824,40.209,134.818,41.824z"/>
</g>
</svg>
