<?xml version="1.0" encoding="utf-8"?>
<!-- Generator: Adobe Illustrator 16.0.4, SVG Export Plug-In . SVG Version: 6.00 Build 0)  -->
<!DOCTYPE svg PUBLIC "-//W3C//DTD SVG 1.1//EN" "http://www.w3.org/Graphics/SVG/1.1/DTD/svg11.dtd">
<svg version="1.1" id="Layer_1" xmlns="http://www.w3.org/2000/svg" xmlns:xlink="http://www.w3.org/1999/xlink" x="0px" y="0px"
	 width="218.027px" height="228.297px" viewBox="0 0 218.027 228.297" enable-background="new 0 0 218.027 228.297"
	 xml:space="preserve">
<g id="body">
	<g id="legs">
		<path fill="#FBB03B" stroke="#D18D33" stroke-width="1.1643" stroke-miterlimit="10" d="M78.142,151.116
			c2.68-4.831,5.476-9.597,8.145-14.435c1.087-1.973,4.149-0.291,3.062,1.683c-2.547,4.612-5.204,9.163-7.771,13.766
			c2.124,1.687,4.194,3.356,5.902,5.511c1.379,1.736-1.036,4.271-2.437,2.504c-0.549-0.688-1.137-1.33-1.75-1.938
			c0.567,1.637,1.118,3.277,1.627,4.936c0.665,2.154-2.688,3.127-3.354,0.976c-0.746-2.416-1.571-4.808-2.417-7.188
			c-0.37,1.019-0.637,2.062-0.698,3.142c-0.124,2.235-3.617,2.341-3.492,0.093c0.171-3.1,1.423-5.936,2.877-8.637
			C77.926,151.366,78.03,151.232,78.142,151.116z"/>
		<path fill="#FBB03B" stroke="#D18D33" stroke-width="1.1643" stroke-miterlimit="10" d="M99.617,140.697
			c1.088-1.973,4.149-0.291,3.062,1.682c-2.548,4.613-5.205,9.164-7.771,13.766c2.124,1.688,4.193,3.356,5.902,5.513
			c1.378,1.735-1.036,4.269-2.438,2.506c-0.548-0.69-1.136-1.33-1.749-1.938c0.565,1.637,1.117,3.276,1.626,4.936
			c0.664,2.154-2.688,3.128-3.354,0.975c-0.745-2.416-1.571-4.807-2.417-7.187c-0.371,1.016-0.64,2.062-0.698,3.138
			c-0.125,2.24-3.617,2.344-3.493,0.096c0.173-3.101,1.424-5.936,2.878-8.637c0.086-0.16,0.19-0.296,0.306-0.41
			C94.154,150.3,96.948,145.534,99.617,140.697z"/>
	</g>
	<g id="wing_left_1">
		<path fill="#E1192F" stroke="#B2162D" stroke-width="1.1643" stroke-miterlimit="10" d="M119.822,118.833
			c0,0-19.655,17.062,0.338,26.325c0,0,6.239-11.715,14.997-15.628C135.157,129.53,122.233,121.636,119.822,118.833"/>
		<path fill="#E1192F" stroke="#B2162D" stroke-width="1.1643" stroke-miterlimit="10" d="M122.187,124.43
			c0,0-16.697,21.078-1.42,26.077l9.832-14.187C130.599,136.32,125.118,131.23,122.187,124.43"/>
		<path fill="#E1192F" stroke="#B2162D" stroke-width="1.1643" stroke-miterlimit="10" d="M125.967,132.232
			c0,0-14.541,18.729-0.229,25l9.818-13.973C135.552,143.262,128.891,139.162,125.967,132.232"/>
		<path fill="#E1192F" stroke="#B2162D" stroke-width="1.1643" stroke-miterlimit="10" d="M132.327,138.468
			c0,0-18.284,22.259,2.503,25.224l8.899-14.488C143.729,149.201,135.238,145.609,132.327,138.468"/>
		<path fill="#E1192F" stroke="#B2162D" stroke-width="1.1643" stroke-miterlimit="10" d="M139.454,147.104
			c0,0-13.843,20.679,4.078,23.264l6.38-16.863C149.912,153.502,141.374,149.116,139.454,147.104"/>
		<path fill="#E1192F" stroke="#B2162D" stroke-width="1.1643" stroke-miterlimit="10" d="M146.927,152.239
			c0,0-12.021,23.003,5.427,23.7l5.725-19.455C158.077,156.484,150.056,154.798,146.927,152.239"/>
		<path fill="#E1192F" stroke="#B2162D" stroke-width="1.1643" stroke-miterlimit="10" d="M153.807,155.482
			c0,0-9.561,26.754,8.269,26.25l2.365-23.318C164.441,158.414,155.443,156.723,153.807,155.482"/>
		<path fill="#E1192F" stroke="#B2162D" stroke-width="1.1643" stroke-miterlimit="10" d="M162.624,158.573
			c0,0-8.812,30.114,10.031,28.342l-0.723-27.036L162.624,158.573"/>
		<path fill="#E1192F" stroke="#B2162D" stroke-width="1.1643" stroke-miterlimit="10" d="M170.092,159.932
			c0,0-6.473,35.295,11.931,29.452c0,0-3.958-24.061-5.229-28.677C176.791,160.707,172.437,160.157,170.092,159.932"/>
		<path fill="#F37121" stroke="#CE5C1D" stroke-width="1.1643" stroke-miterlimit="10" d="M141.462,106.348
			c0,0,25.834,11.48,35.329,54.359c0,0-45.547,2.593-56.969-41.874"/>
	</g>
	<g id="wing_left_3">
		<path fill="#E1192F" stroke="#B2162D" stroke-width="1.1643" stroke-miterlimit="10" d="M108.899,103.16
			c0,0-20.01,15.099-23.438-1.415l17.626-8.533C103.089,93.213,105.969,100.584,108.899,103.16"/>
		<path fill="#E1192F" stroke="#B2162D" stroke-width="1.1643" stroke-miterlimit="10" d="M104.096,97.092
			c0,0-23.974,13.343-26.316-3.72l21.84-5.946C99.619,87.426,102.655,95.73,104.096,97.092"/>
		<path fill="#E1192F" stroke="#B2162D" stroke-width="1.1643" stroke-miterlimit="10" d="M100.065,89.467
			c0,0-27.291,13.165-28.587-5.067l25.87-3.594L100.065,89.467"/>
		<path fill="#E1192F" stroke="#B2162D" stroke-width="1.1643" stroke-miterlimit="10" d="M96.135,83.321
			c0,0-33.363,9.366-29.387-8.849c0,0,23.491,1.663,28.042,2.476C94.792,76.948,95.708,81.084,96.135,83.321"/>
		<path fill="#F37121" stroke="#CE5C1D" stroke-width="1.1643" stroke-miterlimit="10" d="M141.03,100.68
			c0,0-15.028-22.791-57.381-25.044c0,0,3.215,29.667,28.975,42.306"/>
	</g>
	<g id="wing_left_4">
		<path fill="#E1192F" stroke="#B2162D" stroke-width="1.1643" stroke-miterlimit="10" d="M118.665,117.486
			c0,0-25.88,2.752-19.031-18.189c0,0,12.823,3.418,21.657-0.323C121.291,98.974,118.258,113.812,118.665,117.486"/>
		<path fill="#E1192F" stroke="#B2162D" stroke-width="1.1643" stroke-miterlimit="10" d="M116.182,111.941
			c0,0-26.806-2.15-20.052-16.736l17.082,2.476C113.215,97.681,113.204,105.16,116.182,111.941"/>
		<path fill="#E1192F" stroke="#B2162D" stroke-width="1.1643" stroke-miterlimit="10" d="M113.046,103.856
			c0,0-23.612-2.125-18.447-16.87l16.918,2.337C111.514,89.324,109.971,96.994,113.046,103.856"/>
		<path fill="#E1192F" stroke="#B2162D" stroke-width="1.1643" stroke-miterlimit="10" d="M112.822,94.953
			c0,0-28.75-1.792-16.75-19.021l16.665,3.361C112.737,79.292,109.58,87.955,112.822,94.953"/>
		<path fill="#E1192F" stroke="#B2162D" stroke-width="1.1643" stroke-miterlimit="10" d="M111.36,83.852
			c0,0-24.565-3.963-14.239-18.84l16.686,6.825C113.804,71.837,111.195,81.075,111.36,83.852"/>
		<path fill="#E1192F" stroke="#B2162D" stroke-width="1.1643" stroke-miterlimit="10" d="M112.697,74.884
			c0,0-25.028-6.883-13.646-20.125l18.138,9.073C117.188,63.832,112.959,70.85,112.697,74.884"/>
		<path fill="#E1192F" stroke="#B2162D" stroke-width="1.1643" stroke-miterlimit="10" d="M115.012,67.639
			c0,0-26.091-11.241-13.571-23.943l18.675,14.165C120.116,57.86,115.219,65.596,115.012,67.639"/>
		<path fill="#E1192F" stroke="#B2162D" stroke-width="1.1643" stroke-miterlimit="10" d="M118.76,59.081
			c0,0-28.042-14.076-13.898-26.657l19.29,18.957L118.76,59.081"/>
		<path fill="#E1192F" stroke="#B2162D" stroke-width="1.1643" stroke-miterlimit="10" d="M122.857,52.691
			c0,0-30.239-19.321-13.421-28.804c0,0,14.905,19.296,17.418,23.374C126.854,47.26,124.291,50.82,122.857,52.691"/>
		<path fill="#F37121" stroke="#CE5C1D" stroke-width="1.1643" stroke-miterlimit="10" d="M142.552,110.162
			c0,0,9.207-26.728-15.695-62.902c0,0-32.943,31.56-8.189,70.227C118.665,117.486,130.316,120.833,142.552,110.162"/>
	</g>
	<path id="tail" fill="#F37121" stroke="#CE5C1D" stroke-width="1.1643" stroke-miterlimit="10" d="M31.261,122.643l4.991,2.092
		c-6.812-7.18-2.761-17.718-2.761-17.718l4.131,3.012c-2.968-6.325-0.303-12.059,1.592-14.962
		c12.347,18.216,28.613,11.088,34.266,7.786c7.186-6.86,18.219-12.067,27.482-13.451c22.079-3.298,41.771,4.697,44.115,18.717
		c2.344,14.021-15.425,37.485-37.73,38.349c-18.648,0.725-31.16-6.809-37.279-16.509C30.806,146.47,31.261,122.643,31.261,122.643z"
		/>
	<g id="wing_right_0">
		<path fill="#E1192F" stroke="#B2162D" stroke-width="1.1643" stroke-miterlimit="10" d="M106.146,113.21
			c0,0-11.235-22.408-21.633-9.132l12.01,15.468C96.524,119.546,102.375,114.218,106.146,113.21"/>
		<path fill="#E1192F" stroke="#B2162D" stroke-width="1.1643" stroke-miterlimit="10" d="M99.148,116.516
			c0,0-15.563-22.593-25.235-8.341l16.936,15.019C90.847,123.191,97.253,117.098,99.148,116.516"/>
		<path fill="#E1192F" stroke="#B2162D" stroke-width="1.1643" stroke-miterlimit="10" d="M92.153,121.561
			c0,0-18.616-23.907-27.868-8.143l21.589,14.699L92.153,121.561"/>
		<path fill="#E1192F" stroke="#B2162D" stroke-width="1.1643" stroke-miterlimit="10" d="M85.904,125.327
			c0,0-25.746-23.198-30.261-5.109c0,0,21.789,8.933,26.229,10.226C81.871,130.441,84.529,127.141,85.904,125.327"/>
		<path fill="#F37121" stroke="#CE5C1D" stroke-width="1.1643" stroke-miterlimit="10" d="M133.84,129.689
			c0,0-23.581,13.756-62.534-3.018c0,0,16.044-25.161,44.736-25.06"/>
	</g>
	<g id="wing_right_1">
		<path fill="#E1192F" stroke="#B2162D" stroke-width="1.1643" stroke-miterlimit="10" d="M106.026,109.997
			c0,0-25.146,6.708-11.246,23.804c0,0,10.746-7.789,20.333-7.463C115.113,126.338,106.964,113.572,106.026,109.997"/>
		<path fill="#E1192F" stroke="#B2162D" stroke-width="1.1643" stroke-miterlimit="10" d="M105.697,116.062
			c0,0-24.253,11.614-12.718,22.812l15.061-8.437C108.04,130.439,105.347,123.461,105.697,116.062"/>
		<path fill="#E1192F" stroke="#B2162D" stroke-width="1.1643" stroke-miterlimit="10" d="M105.669,124.734
			c0,0-21.284,10.451-11.177,22.363l14.954-8.246C109.446,138.852,105.257,132.243,105.669,124.734"/>
		<path fill="#E1192F" stroke="#B2162D" stroke-width="1.1643" stroke-miterlimit="10" d="M108.65,133.127
			c0,0-26.197,11.979-8.817,23.764l14.354-9.113C114.185,147.775,108.131,140.823,108.65,133.127"/>
		<path fill="#E1192F" stroke="#B2162D" stroke-width="1.1643" stroke-miterlimit="10" d="M111.264,144.016
			c0,0-21.514,12.504-6.541,22.69l13.13-12.353C117.853,154.354,112.106,146.667,111.264,144.016"/>
		<path fill="#E1192F" stroke="#B2162D" stroke-width="1.1643" stroke-miterlimit="10" d="M115.726,151.908
			c0,0-20.896,15.396-5.523,23.678l13.681-14.97C123.884,160.616,117.417,155.58,115.726,151.908"/>
		<path fill="#E1192F" stroke="#B2162D" stroke-width="1.1643" stroke-miterlimit="10" d="M120.486,157.84
			c0,0-20.328,19.848-4.086,27.217l12.354-19.916C128.756,165.141,121.411,159.674,120.486,157.84"/>
		<path fill="#E1192F" stroke="#B2162D" stroke-width="1.1643" stroke-miterlimit="10" d="M127.052,164.486
			c0,0-21.131,23.192-3.42,29.869l11.215-24.612L127.052,164.486"/>
		<path fill="#E1192F" stroke="#B2162D" stroke-width="1.1643" stroke-miterlimit="10" d="M133.167,168.982
			c0,0-21.303,28.877-2.203,31.699c0,0,7.001-23.355,7.885-28.062C138.846,172.619,135.177,170.215,133.167,168.982"/>
		<path fill="#F37121" stroke="#CE5C1D" stroke-width="1.1643" stroke-miterlimit="10" d="M130.951,108.272
			c0,0,18.177,21.651,7.896,64.347c0,0-42.066-17.652-32.82-62.622"/>
	</g>
	<g id="wing_right_2">
		<path fill="#E1192F" stroke="#B2162D" stroke-width="1.1643" stroke-miterlimit="10" d="M106.309,121.105
			c0,0-21.009-13.674-23.282,3.035l18.176,7.291C101.203,131.432,103.565,123.879,106.309,121.105"/>
		<path fill="#E1192F" stroke="#B2162D" stroke-width="1.1643" stroke-miterlimit="10" d="M101.939,127.492
			c0,0-24.84-11.65-25.995,5.535l22.199,4.416C98.143,137.443,100.595,128.952,101.939,127.492"/>
		<path fill="#E1192F" stroke="#B2162D" stroke-width="1.1643" stroke-miterlimit="10" d="M98.445,135.377
			c0,0-28.137-11.242-28.166,7.038l26.057,1.791L98.445,135.377"/>
		<path fill="#E1192F" stroke="#B2162D" stroke-width="1.1643" stroke-miterlimit="10" d="M94.952,141.781
			c0,0-33.934-7.03-28.703,10.863c0,0,23.318-3.285,27.803-4.412C94.052,148.232,94.681,144.044,94.952,141.781"/>
		<path fill="#F37121" stroke="#CE5C1D" stroke-width="1.1643" stroke-miterlimit="10" d="M138.537,121.354
			c0,0-13.414,23.778-55.509,28.961c0,0,1.151-29.816,25.972-44.212"/>
	</g>
	<g id="wing_right_3">
		<path fill="#E1192F" stroke="#B2162D" stroke-width="1.1643" stroke-miterlimit="10" d="M96.813,114.843
			c0,0-20.009,15.099-23.438-1.414l17.627-8.533C91.003,104.896,93.882,112.267,96.813,114.843"/>
		<path fill="#E1192F" stroke="#B2162D" stroke-width="1.1643" stroke-miterlimit="10" d="M92.01,108.776
			c0,0-23.972,13.342-26.315-3.72l21.84-5.946C87.533,99.109,90.569,107.413,92.01,108.776"/>
		<path fill="#E1192F" stroke="#B2162D" stroke-width="1.1643" stroke-miterlimit="10" d="M87.979,101.15
			c0,0-27.291,13.164-28.586-5.067l25.869-3.594L87.979,101.15"/>
		<path fill="#E1192F" stroke="#B2162D" stroke-width="1.1643" stroke-miterlimit="10" d="M84.051,95.004
			c0,0-33.363,9.365-29.387-8.849c0,0,23.49,1.663,28.042,2.475C82.706,88.63,83.622,92.768,84.051,95.004"/>
		<path fill="#F37121" stroke="#CE5C1D" stroke-width="1.1643" stroke-miterlimit="10" d="M128.945,112.363
			c0,0-15.029-22.792-57.381-25.044c0,0,3.214,29.667,28.974,42.307"/>
	</g>
	<g id="wing_right_4">
		<path fill="#E1192F" stroke="#B2162D" stroke-width="1.1643" stroke-miterlimit="10" d="M112.244,123.82
			c0,0-21.952,13.981-25.138-7.82c0,0,13.004-2.646,19.25-9.927C106.356,106.073,110.244,120.711,112.244,123.82"/>
		<path fill="#E1192F" stroke="#B2162D" stroke-width="1.1643" stroke-miterlimit="10" d="M107.552,119.958
			c0,0-24.961,10.003-25.401-6.065l16.396-5.384C98.548,108.509,101.866,115.21,107.552,119.958"/>
		<path fill="#E1192F" stroke="#B2162D" stroke-width="1.1643" stroke-miterlimit="10" d="M101.146,114.113
			c0,0-22.096,8.606-24.029-6.896l16.19-5.435C93.307,101.782,95.339,109.337,101.146,114.113"/>
		<path fill="#E1192F" stroke="#B2162D" stroke-width="1.1643" stroke-miterlimit="10" d="M96.983,106.24
			c0,0-26.544,11.189-23.464-9.581l16.421-4.406C89.939,92.254,90.965,101.417,96.983,106.24"/>
		<path fill="#E1192F" stroke="#B2162D" stroke-width="1.1643" stroke-miterlimit="10" d="M90.732,96.95
			c0,0-23.761,7.382-21.134-10.536l17.979-1.312C87.578,85.103,89.351,94.536,90.732,96.95"/>
		<path fill="#E1192F" stroke="#B2162D" stroke-width="1.1643" stroke-miterlimit="10" d="M87.94,88.324
			c0,0-25.478,4.973-21.176-11.951l20.279,0.054C87.046,76.427,86.381,84.595,87.94,88.324"/>
		<path fill="#E1192F" stroke="#B2162D" stroke-width="1.1643" stroke-miterlimit="10" d="M86.79,80.805
			c0,0-28.367,1.543-22.809-15.402l23.026,4.375C87.009,69.777,86.067,78.883,86.79,80.805"/>
		<path fill="#E1192F" stroke="#B2162D" stroke-width="1.1643" stroke-miterlimit="10" d="M86.337,71.474
			c0,0-31.375-0.127-24.31-17.687l25.711,8.393L86.337,71.474"/>
		<path fill="#E1192F" stroke="#B2162D" stroke-width="1.1643" stroke-miterlimit="10" d="M87.162,63.929
			c0,0-35.677-3.847-24.836-19.824c0,0,21.938,10.646,26,13.18C88.327,57.285,87.615,61.615,87.162,63.929"/>
		<path fill="#F37121" stroke="#CE5C1D" stroke-width="1.1643" stroke-miterlimit="10" d="M130.375,106.63
			c0,0-3.647-28.032-42.048-49.345c0,0-15.458,42.923,23.917,66.535"/>
	</g>
</g>
<circle id="joint" fill="#FFFFFF" stroke="#CE5C1D" stroke-miterlimit="10" cx="140.936" cy="103.447" r="3.579"/>
<g id="head">
	<path fill="#F37121" stroke="#CE5C1D" stroke-width="1.1643" stroke-miterlimit="10" d="M169.567,84.856
		c6.512,11.98,1.543,27.262-11.096,34.13c-12.642,6.871-28.165,2.727-34.677-9.255C117.282,97.75,122.25,82.47,134.891,75.6
		C147.531,68.73,163.056,72.875,169.567,84.856"/>
	<g>
		<path fill="#E1192F" stroke="#B2162D" stroke-miterlimit="10" d="M125.047,84.192c0,0,30.582-11.062,42.613,15.907
			c0,0,3.155-2.552,4.823-3.459c0,0,2.756-22.846-25.763-24.844c0,0-8.445-0.195-7.214-6.735c0,0-4.932,3.144-2.781,7.381
			c0,0-7.676-0.77-7.786-5.805c0,0-4.578,6.349,0.095,9.831c0,0-6.243,3.856-9.486,1.296
			C119.548,77.764,118.878,83.067,125.047,84.192"/>
	</g>
	<g>
		<path fill="#FBB03B" stroke="#D18D33" stroke-miterlimit="10" d="M144.864,102.76c-3.03-2.449-3.503-6.892-1.055-9.923
			c2.446-3.03,6.889-3.502,9.92-1.053c3.029,2.449,3.503,6.892,1.054,9.922C152.335,104.736,147.894,105.208,144.864,102.76
			L144.864,102.76z"/>
	</g>
	<path fill="#231F20" d="M147.422,99.593c-1.281-1.036-1.48-2.915-0.443-4.198c1.032-1.28,2.914-1.48,4.193-0.444
		c1.281,1.036,1.481,2.914,0.445,4.195C150.582,100.43,148.701,100.63,147.422,99.593L147.422,99.593z"/>
	<g>
		<path fill="#FBB03B" stroke="#D18D33" stroke-miterlimit="10" d="M165.924,113.146c-1.4-3.141-2.188-12.684,6.23-16.887
			l12.637,12.74L165.924,113.146"/>
	</g>
	<g>
		<path fill="#D18D33" d="M184.29,108.913c0,0-1.145,0.535-3.002,0.867c-0.461,0.097-0.967,0.158-1.504,0.223
			c-0.537,0.043-1.104,0.108-1.695,0.109c-1.18,0.033-2.44-0.038-3.689-0.215c-0.627-0.072-1.24-0.23-1.851-0.348
			c-0.609-0.109-1.187-0.334-1.755-0.488c-0.568-0.152-1.089-0.405-1.593-0.594c-0.508-0.183-0.959-0.428-1.377-0.644
			c-0.416-0.219-0.805-0.401-1.124-0.614c-0.318-0.21-0.596-0.394-0.824-0.544c-0.444-0.312-0.701-0.491-0.701-0.491
			s0.294,0.104,0.811,0.286c0.252,0.096,0.558,0.213,0.909,0.347c0.346,0.142,0.76,0.245,1.188,0.4
			c0.438,0.143,0.9,0.312,1.408,0.441s1.027,0.309,1.584,0.428c0.556,0.12,1.122,0.271,1.708,0.375
			c0.587,0.101,1.177,0.238,1.779,0.296c1.191,0.194,2.399,0.279,3.536,0.344c1.136,0.052,2.2,0.059,3.116,0.03
			C183.05,109.068,184.29,108.913,184.29,108.913z"/>
	</g>
</g>
</svg>
