<?xml version="1.0" encoding="utf-8"?>
<!-- Generator: Adobe Illustrator 16.0.4, SVG Export Plug-In . SVG Version: 6.00 Build 0)  -->
<!DOCTYPE svg PUBLIC "-//W3C//DTD SVG 1.1//EN" "http://www.w3.org/Graphics/SVG/1.1/DTD/svg11.dtd">
<svg version="1.1" id="Layer_1" xmlns="http://www.w3.org/2000/svg" xmlns:xlink="http://www.w3.org/1999/xlink" x="0px" y="0px"
	 width="897.333px" height="43.055px" viewBox="0 0 897.333 43.055" enable-background="new 0 0 897.333 43.055"
	 xml:space="preserve">
<path id="colour" fill="#009AA0" d="M897.333,43.056V26.041c0,0,0,0-13.188,1.934c-13.188,1.932-52.555,7.232-90.053,0
	c-37.498-7.23-41.002-14.768-77-10s-39.502,1.588-68,1c-28.5-0.59-54.002-10.35-93-16s-73.502-1.85-96,0
	c-22.499,1.85-32.5,17.65-58,21s-32.501-18.498-55-11c-22.499,7.5-58.418,4.068-91.416,0.451
	c-32.999-3.615-44.75,15.637-58.25,16.549c-13.5,0.91-33.246-15.932-54.245-16.549c-20.999-0.615-32.998,6.617-47.998,0
	c-14.999-6.615-27.373,3.419-36.424,3.883c-26,1.333-44.666,8.666-58.76,8.732v17.015H897.333z"/>
</svg>
