<?xml version="1.0" encoding="utf-8"?>
<!-- Generator: Adobe Illustrator 16.0.4, SVG Export Plug-In . SVG Version: 6.00 Build 0)  -->
<!DOCTYPE svg PUBLIC "-//W3C//DTD SVG 1.1//EN" "http://www.w3.org/Graphics/SVG/1.1/DTD/svg11.dtd">
<svg version="1.1" id="Layer_1" xmlns="http://www.w3.org/2000/svg" xmlns:xlink="http://www.w3.org/1999/xlink" x="0px" y="0px"
	 width="897.332px" height="46.387px" viewBox="0 0 897.332 46.387" enable-background="new 0 0 897.332 46.387"
	 xml:space="preserve">
<path id="colour" fill="#34FF21" d="M897.332,46.387V12.142c0,0-23.77,0-63.569,0c-23.703,0-55.562,6.033-89.005,6.033
	c-21.856,0-42.979-6.033-67.844-6.033c-28.484,0-58.757,9.48-89.899,9.48c-27.513,0-54.173-4.309-82.751-4.309
	c-59.262,0-122.556,3.447-180.156,3.447c-41.739,0-64.666-6.896-101.713-6.896c-25.042,0-64.665-1.728-86.334-1.728
	C54.244,12.14,0,12.14,0,12.14v34.245h897.332V46.387z"/>
</svg>
