<?xml version="1.0" encoding="utf-8"?>
<!-- Generator: Adobe Illustrator 16.0.4, SVG Export Plug-In . SVG Version: 6.00 Build 0)  -->
<!DOCTYPE svg PUBLIC "-//W3C//DTD SVG 1.1//EN" "http://www.w3.org/Graphics/SVG/1.1/DTD/svg11.dtd">
<svg version="1.1" id="Layer_1" xmlns="http://www.w3.org/2000/svg" xmlns:xlink="http://www.w3.org/1999/xlink" x="0px" y="0px"
	 width="897.332px" height="46.387px" viewBox="0 -0.002 897.332 46.387" enable-background="new 0 -0.002 897.332 46.387"
	 xml:space="preserve">
<path id="colour" fill="#009AA0" d="M897.332,46.385V29.773c0,0-0.002,0-13.188,1.934c-13.184,1.937-49.496-19.933-86.994-27.163
	c-37.498-7.229-43.498-4.769-79.496,0c-35.998,4.771-38.998,1.234-67.496,0.646c-28.5-0.585-58.498,18.587-97.496,12.938
	c-38.998-5.646-68.996-1.851-91.494,0c-22.5,1.854-35.999-3.35-61.498,0c-25.499,3.349-31.498,4.149-53.997,11.648
	s-56.997-8.998-89.996-12.614c-32.999-3.619-40.499-12.885-53.998-11.973s-37.497,12.588-58.496,11.973
	c-20.999-0.616-32.998,6.617-47.998,0c-15-6.619-22.499-6.886-29.999-11.973S8.31,26.777,0,29.776v16.609H897.332z"/>
</svg>
