<?xml version="1.0" encoding="utf-8"?>
<!-- Generator: Adobe Illustrator 16.0.4, SVG Export Plug-In . SVG Version: 6.00 Build 0)  -->
<!DOCTYPE svg PUBLIC "-//W3C//DTD SVG 1.1//EN" "http://www.w3.org/Graphics/SVG/1.1/DTD/svg11.dtd">
<svg version="1.1" id="Layer_1" xmlns="http://www.w3.org/2000/svg" xmlns:xlink="http://www.w3.org/1999/xlink" x="0px" y="0px"
	 width="897.33px" height="129.466px" viewBox="0 0 897.33 129.466" enable-background="new 0 0 897.33 129.466"
	 xml:space="preserve">
<path id="colour" fill="#95CFF2" d="M897.33,129.466v-27.863c-16.793,10.397-37.317-4-53.817-8.5c-16.499-4.5-14.999,1.5-26.998,1.5
	c-20.893,0-31.978-10.401-43.978-19.603s-36.502,7-62,7c-7.611,0-27.501,10.5-62,3c-23.859-5.188-45.012-9.896-58.512-3.896
	c-13.498,6-28.989-0.103-45.488,2.896s-13.002-20-40-17c-28.127,3.125-28.001-36-46-39c-16.54-2.757-14.502-28-37-28
	c-22.5,0-29.502,42.104-55,61.604C354.27,70.985,325.368,57.5,299.87,56c-25.5-1.5-36.167,11.833-52.666,7.333
	c-12.028-3.28-23.94-24.473-47.334-33.333c-8.695-3.295-18.081,3.438-21.333,2c-12-5.311-10.501-20-24-20
	c-13.5,0-55.834,52.334-63.333,55.333s-11.667-11-26.667-8s-34.546,35.253-48.849,39.77c-7.062,2.23-15.688,2.5-15.688,2.5v27.863
	H897.33z"/>
</svg>
