<?xml version="1.0" encoding="utf-8"?>
<!-- Generator: Adobe Illustrator 16.0.4, SVG Export Plug-In . SVG Version: 6.00 Build 0)  -->
<!DOCTYPE svg PUBLIC "-//W3C//DTD SVG 1.1//EN" "http://www.w3.org/Graphics/SVG/1.1/DTD/svg11.dtd">
<svg version="1.1" id="Layer_1" xmlns="http://www.w3.org/2000/svg" xmlns:xlink="http://www.w3.org/1999/xlink" x="0px" y="0px"
	 width="897.329px" height="54.737px" viewBox="0 0 897.329 54.737" enable-background="new 0 0 897.329 54.737"
	 xml:space="preserve">
<path id="colour" fill="#1784A2" d="M897.329,54.737V42.078c-18.736,4.403-21.736,4.403-31.404-1.264
	c-9.057-5.31-36.82-28.595-60.822-33.24c-23.998-4.645-30.514,25.407-54.512,17.907c-24-7.5-38-2.333-67.998,0.667
	c-30,3-34.979,16.695-63.479,20.425c-28.498,3.732-46.156-14.504-61.496-14.999c-20.666-0.667-25.332-17.667-47.998-9
	c-26.619,10.178-29.498-9-61.498-1.5c-32,7.499-41.997-19.354-59.997-12c-17.998,7.353-34.498-10.354-59.997-9
	c-25.498,1.353-39.329,14.332-65.996,20.999c-14.623,3.655-17.999-14.232-37.499-9c-19.498,5.233-26.998,12.767-38.998,12
	c-12-0.767-12.673,10.204-26,8.667c-21.987-2.538-18.997,10.499-30.997,13.832c-24.609,6.836-28.498-7.499-49.497-1.5
	c-20.999,5.999-24.43-16.651-39.453-9.139C21.928,44.814,0,42.078,0,42.078v12.659H897.329z"/>
</svg>
