<?xml version="1.0" encoding="utf-8"?>
<!-- Generator: Adobe Illustrator 16.0.4, SVG Export Plug-In . SVG Version: 6.00 Build 0)  -->
<!DOCTYPE svg PUBLIC "-//W3C//DTD SVG 1.1//EN" "http://www.w3.org/Graphics/SVG/1.1/DTD/svg11.dtd">
<svg version="1.1" id="Layer_1" xmlns="http://www.w3.org/2000/svg" xmlns:xlink="http://www.w3.org/1999/xlink" x="0px" y="0px"
	 width="897.332px" height="118.133px" viewBox="0 0 897.332 118.133" enable-background="new 0 0 897.332 118.133"
	 xml:space="preserve">
<path id="colour" fill="#95CFF2" d="M897.332,118.134V90.27c-12.314,0-35.686-21.999-52.186-26.499s-37.496,0-56.996,7.5
	c-19.498,7.5-10.498,6-25.498,7.5s-15,0-22.5-1.5s-20.998-12-32.998-21.196c-11.998-9.198-12-1.303-19.498,0
	c-7.5,1.301-7.5,7.697-13.5,9.197s-30-29.999-47.998-46.498c-18-16.499-29.998-22.5-43.496-16.5c-13.5,6-18,20.999-34.5,23.999
	c-16.498,3-13.5,9-37.498,23.999S477.666,78.77,462.667,86.27c-15,7.5-37.499,1.5-59.998,1.5s-23.999,7.5-37.498,15
	s-17.999,10.499-43.498,9s-31.499-21-47.998-25.5c-16.499-4.5-28.499-14.999-40.498-20.308c-11.999-5.308-14.999-6.691-28.499-6.691
	s-22.499-20.999-34.498-22.499s-15,12-23.999,22.499s-7.5-4.5-19.499,0s-17.999,13.5-25.499,16.499s-26.999,9-41.998,12
	s-28.499,0-43.498,0S0,90.27,0,90.27v27.863H897.332z"/>
</svg>
