<?xml version="1.0" encoding="utf-8"?>
<!-- Generator: Adobe Illustrator 16.0.4, SVG Export Plug-In . SVG Version: 6.00 Build 0)  -->
<!DOCTYPE svg PUBLIC "-//W3C//DTD SVG 1.1//EN" "http://www.w3.org/Graphics/SVG/1.1/DTD/svg11.dtd">
<svg version="1.1" id="Layer_1" xmlns="http://www.w3.org/2000/svg" xmlns:xlink="http://www.w3.org/1999/xlink" x="0px" y="0px"
	 width="143.5px" height="242.631px" viewBox="0 0 143.5 242.631" enable-background="new 0 0 143.5 242.631" xml:space="preserve">
<path id="colour_2" fill="#2A924D" d="M120.501,57.25c-3.281,0-6.331,0.712-8.9,1.926c-1.455-2.469-4.53-4.176-8.1-4.176
	c-0.718,0-1.412,0.076-2.081,0.206C100.612,48.072,93.795,42.5,85.501,42.5c-1.251,0-2.466,0.254-3.634,0.7
	c-1.43-9.363-14.698-16.7-30.866-16.7c-17.121,0-31,8.227-31,18.375c0,2.311,0.727,4.521,2.04,6.558
	c-4.215,2.209-7.036,6.179-7.036,10.725c0,6.944,6.565,12.574,14.665,12.574c2.164,0,4.212-0.412,6.062-1.134
	c0.86,2.133,3.041,3.652,5.604,3.652c3.312,0,6-2.537,6-5.667c0-2.407-1.592-4.458-3.833-5.28c0.449-1.102,0.721-2.271,0.794-3.488
	c2.16,0.282,4.402,0.436,6.705,0.436c7.088,0,13.615-1.413,18.837-3.785c-0.22,1.104-0.337,2.168-0.337,3.16
	c0,7.783,7.131,8.123,15.939,8.125c1.192,2.395,4.685,4.13,8.811,4.13c4.683,0,8.541-2.235,9.154-5.134
	c0.032,0,0.062,0.004,0.096,0.004c0.177,0,0.35-0.014,0.523-0.021c0.258,6.531,7.524,11.771,16.477,11.771
	c9.111,0,16.5-5.429,16.5-12.125C137.002,62.68,129.612,57.25,120.501,57.25z"/>
<path opacity="0.1" enable-background="new    " d="M120.501,57.25c-3.281,0-6.331,0.712-8.9,1.926
	c-1.455-2.469-4.53-4.176-8.1-4.176c-0.718,0-1.412,0.076-2.081,0.206C100.612,48.072,93.795,42.5,85.501,42.5
	c-1.251,0-2.466,0.254-3.634,0.7c-1.43-9.363-14.698-16.7-30.866-16.7c-17.121,0-31,8.227-31,18.375c0,2.311,0.727,4.521,2.04,6.558
	c-4.215,2.209-7.036,6.179-7.036,10.725c0,6.944,6.565,12.574,14.665,12.574c2.164,0,4.212-0.412,6.062-1.134
	c0.86,2.133,3.041,3.652,5.604,3.652c3.312,0,6-2.537,6-5.667c0-2.407-1.592-4.458-3.833-5.28c0.449-1.102,0.721-2.271,0.794-3.488
	c2.16,0.282,4.402,0.436,6.705,0.436c7.088,0,13.615-1.413,18.837-3.785c-0.22,1.104-0.337,2.168-0.337,3.16
	c0,7.783,7.131,8.123,15.939,8.125c1.192,2.395,4.685,4.13,8.811,4.13c4.683,0,8.541-2.235,9.154-5.134
	c0.032,0,0.062,0.004,0.096,0.004c0.177,0,0.35-0.014,0.523-0.021c0.258,6.531,7.524,11.771,16.477,11.771
	c9.111,0,16.5-5.429,16.5-12.125C137.002,62.68,129.612,57.25,120.501,57.25z"/>
<path fill="#7C582C" d="M58.668,62.725c0,0,3.334,16.858,6.667,22.858s7.166,17.667,7.166,17.667l6.167-8c0,0-7.014-7.583-10-12.333
	c-2.987-4.75-6.333-20.191-6.333-20.191L58.668,62.725L58.668,62.725z"/>
<path fill="#94703D" d="M60.001,238.249c0,0,2-3.75,3.5-9.375s0-8.625,3.5-15.125s4-8.895,5.5-16.196s1.832-28.009,0.916-38.405
	s0.918-16.557,0.918-27.199c0-8.125,1.666-19.356-1.834-25.528c-3.5-6.171-6.167-7.504-10.5-11.17s-13.333-8.667-19.333-13
	S25.334,65.583,25.334,65.583l2.334-2.667c0,0,5.666,9.667,7.332,9.667c1.668,0,1.668,0,1.668,0s2.333,2.697,7,6.682
	s9.107,6.318,9.107,6.318s2.108-3.303,0-6.318c-2.107-3.015-5.44-12.348-5.44-12.348l3.44,1.333c0,0,5.893,14.333,8.893,18.333
	s4.333,6,8.333,7s4,1,4,1s2.333-10-1-13.333c-3.865-3.866-8.869-3.196-13.333-6.442c-4.893-3.558-12.333-9.891-12.333-9.891h3.666
	c0,0,4.667,5.667,10.667,7s11,3.891,11,3.891s-1.999-5.942-7.333-13.083s-9.56-13.141-9.56-13.141l0.56-1.333h1.666l-7.666-17
	l2.333-2c0,0,3.334,9.333,4.667,10.333s1-7.333,1-7.333l3.333-1c0,0-2.043,10.371-0.667,16.333c2,8.666,8.334,12,8.334,12
	l1.666-1.448c0,0,0.667-5.885,0.667-8.552s3-2,3-2s-2.667,11.616-1.667,15.141s0.77,3.859,4.885,4.192s3.448-3.333,5.115-6.333
	s2.334-5.667,2.334-5.667l-1.334-6l1.334-2c0,0,0.333,6.592,2.333,6.629c2,0.037,5.333-2.63,7.333-8.296s2.667-11.667,2.667-11.667
	l3.333,1.438c0,0-0.666,7.562-5.333,14.229s-9.666,11.667-11.333,15.667s-3.333,9.696-3,14.348s0.666,7.318,3.666,7.318
	s4.334-0.667,7.334-5.333s5.999-11.333,8.666-15.667s11.667-20,11.667-20h2c0,0-3,5.592-3,7.963c0,2.371,1.667,0,1.667,0
	s1.332-0.629,3.666-2.963s3-4.667,3-4.667l2.334,1c0,0-2.667,5.333-7.667,8.667c0,0-7.334,3.333-10.667,10
	s-4.666,10.358-4.666,10.358s1.667,2.09,4-0.134s5.666-7.891,7.333-9.224s3.667-3.859,3.667-3.859h3.666
	c0,0-3.333,2.296-6.333,6.411c-3,4.115-3,4.115-3,4.115s5.667-0.667,9-2c0.28-0.112,1.24-0.654,2.403-1.332
	c2.376-1.385,5.597-3.334,5.597-3.334v2.551c0,0-4.334,1.782-3.667,2.782c0,0-13.334,5.666-19,9.333s-15.999,10.332-16.666,19.332
	s-3.668,55.729-0.334,80.032c3.334,24.301,2.334,21.584,5.667,35.442s6.333,18.19,6.333,18.19l2.334,3.334
	c0,0,5.734,2.101,5.333,3.666c-0.705,2.744-6.666,0.666-11.333,0s-0.247-0.979-7-2.666c-1.334-0.332,0,5.277-3.667,3.64
	s-1.835-4.974-6.251-3.306c-4.416,1.666-0.416,0.334-8.416,1.666C59.001,241.915,60.001,238.249,60.001,238.249z"/>
<path id="colour_1" fill="#2A924D" d="M143.501,56.767c0-2.275-1.353-4.325-3.514-5.785c0.003-0.078,0.014-0.154,0.014-0.232
	c0-0.924-0.138-1.816-0.367-2.674c0.068-0.305,0.117-0.62,0.117-0.951c0-1.368-0.636-2.545-1.562-3.162
	c0.039-0.234,0.062-0.472,0.062-0.713c0-0.734-0.193-1.44-0.538-2.102c0.179-0.337,0.288-0.727,0.288-1.148
	c0-1.243-0.896-2.25-2-2.25c-0.177,0-0.345,0.034-0.508,0.083c0-0.028,0.008-0.054,0.008-0.083c0-1.507-0.845-2.804-2.075-3.486
	c0.206-0.602,0.325-1.233,0.325-1.889c0-1.237-0.395-2.4-1.085-3.415c0.056-0.27,0.085-0.549,0.085-0.835
	c0-1.296-0.61-2.439-1.546-3.195c0.023-0.182,0.046-0.365,0.046-0.555c0-1.864-1.231-3.375-2.75-3.375
	c-0.802,0-1.516,0.427-2.019,1.097c-0.09-1.86-1.775-3.347-3.856-3.347c-0.604,0-1.168,0.136-1.677,0.358
	c-0.112-0.884-0.492-1.679-1.071-2.297c0.229-0.66,0.373-1.396,0.373-2.186c0-1.934-0.785-3.589-1.915-4.377
	c-0.548-0.805-1.597-1.372-2.839-1.469c-0.046-3.613-2.6-6.528-5.746-6.528c-1.421,0-2.72,0.597-3.723,1.58
	c-0.558-0.202-1.15-0.33-1.777-0.33c-1.937,0-3.608,1.06-4.52,2.619c-0.579-0.535-1.305-0.869-2.105-0.869
	c-0.796,0-1.519,0.329-2.096,0.858C94.48,5.26,93.174,4.75,91.751,4.75c-1.925,0-3.644,0.923-4.789,2.372
	c-0.612-0.171-1.254-0.286-1.918-0.337c-0.695-0.792-1.632-1.284-2.668-1.284c-0.423,0-0.822,0.101-1.203,0.25
	c-0.358-0.452-0.856-0.783-1.437-0.921c0.004-0.068,0.015-0.135,0.015-0.204c0-2.554-2.688-4.625-6-4.625
	c-1.484,0-2.841,0.418-3.889,1.106c-1.028-0.543-2.182-0.856-3.402-0.856c-3.782,0-6.934,2.918-7.642,6.788
	c-0.821-0.891-2.106-1.476-3.567-1.476c-0.086,0-0.166,0.017-0.251,0.021c-0.795-0.808-1.983-1.333-3.332-1.333
	c-0.469,0-0.911,0.078-1.334,0.193c-0.549-0.708-1.586-1.193-2.791-1.193c-1.329,0-2.471,0.583-2.957,1.414
	c-0.953-0.264-1.976-0.414-3.043-0.414c-5.085,0-9.209,3.246-9.209,7.25c0,0.52,0.072,1.025,0.205,1.514
	c-2.705,0.075-4.871,1.88-4.871,4.111c0,0.829,0.306,1.598,0.818,2.244c-0.347,0.501-0.597,1.071-0.755,1.68
	c-1.049-0.808-2.409-1.299-3.901-1.299c-3.189,0-5.789,2.234-5.978,5.051c-0.198-0.021-0.396-0.051-0.603-0.051
	c-2.622,0-4.748,1.803-4.748,4.026c0,0.289,0.039,0.569,0.107,0.841c-0.767,0.912-1.214,2.007-1.214,3.186
	c0,1.883,1.144,3.55,2.902,4.599c-0.394,0.336-0.632,0.728-0.632,1.151c0,0.229,0.084,0.446,0.209,0.654
	c-2.572,1.124-4.293,3.126-4.293,5.417c0,0.114,0.017,0.226,0.025,0.339c-1.639,0.521-2.775,1.595-2.775,2.849
	c0,0.107,0.033,0.208,0.05,0.313c-1.968,0.702-3.384,2.562-3.384,4.77c0,0.354,0.037,0.7,0.106,1.034
	c-1.543,0.545-2.606,1.625-2.606,2.883c0,1.085,0.791,2.039,1.996,2.633c-0.309,0.597-0.498,1.259-0.498,1.969
	c0,0.505,0.107,0.982,0.271,1.435c-1.677,0.761-2.769,1.976-2.769,3.35c0,0.84,0.41,1.621,1.109,2.276
	c-0.705,0.594-1.109,1.271-1.109,1.989c0,2.356,4.291,4.266,9.585,4.266c0.372,0,0.737-0.012,1.098-0.03
	c0.095,2.987,3.739,5.482,8.312,5.624c1.912,0.059,3.683-0.307,5.123-0.964c0.973,0.604,2.205,0.967,3.551,0.967
	c0.947,0,1.84-0.182,2.625-0.5c0.938,1.832,2.842,3.088,5.041,3.088c3.129,0,5.666-2.537,5.666-5.666
	c0-3.129-2.537-5.666-5.666-5.666c-1.379,0-2.641,0.493-3.623,1.311c-1.028-0.809-2.459-1.311-4.043-1.311
	c-0.504,0-0.987,0.056-1.452,0.15c-0.906-0.902-2.187-1.632-3.695-2.086c0.957-0.543,1.603-1.345,1.745-2.266
	c0.607,0.117,1.245,0.189,1.908,0.201c3.91,0.068,7.117-1.86,7.16-4.306c0.037-2.138-2.354-3.963-5.568-4.435
	c1.191-1.337,1.904-2.98,1.904-4.764c0-2.43-1.312-4.603-3.379-6.084c0.843-0.951,1.342-2.066,1.369-3.265
	c2.539,0.963,5.467,1.52,8.591,1.52c0.015,0,0.026-0.001,0.042-0.001c1.111,2.179,3.158,3.913,5.7,4.815
	c-3.321,1.996-5.492,5.25-5.492,8.937c0,6.075,5.877,11,13.125,11c4.278,0,8.067-1.725,10.465-4.381
	C61.27,66.862,62.541,67,63.874,67c6.006,0,10.875-2.687,10.875-6s-4.869-6-10.875-6c-0.854,0-1.681,0.06-2.478,0.162
	c-0.666-1.137-1.553-2.166-2.624-3.04c0.267,0.027,0.535,0.045,0.811,0.045c3.108,0,5.743-1.815,6.676-4.331
	C70.64,51,76.342,52.917,82.582,52.917c5.4,0,10.396-1.438,14.484-3.875c1.911,5.717,6.194,9.708,11.183,9.708
	c0.817,0,1.616-0.112,2.39-0.316c0.317,0.544,0.72,1.054,1.187,1.527c-0.815,0.613-1.325,1.467-1.325,2.414
	c0,1.864,1.959,3.375,4.375,3.375c2.057,0,3.77-1.099,4.236-2.574c0.455,0.044,0.916,0.074,1.389,0.074
	c0.586,0,1.156-0.044,1.716-0.111c-0.07,0.361-0.114,0.731-0.114,1.111c0,0.604,0.101,1.186,0.273,1.739
	c-1.374,1.228-2.219,2.85-2.219,4.636c0,0.408,0.053,0.806,0.137,1.195c-3.4,0.472-6.049,2.001-6.739,3.929
	c-0.791-0.309-1.698-0.5-2.679-0.5c-2.969,0-5.375,1.623-5.375,3.625s2.406,3.625,5.375,3.625c2.259,0,4.184-0.941,4.979-2.272
	c1.665,0.988,4.022,1.608,6.646,1.608c4.801,0,8.729-2.069,9.09-4.693c1.453-0.417,2.728-1.136,3.7-2.071
	c0.323,0.106,0.665,0.179,1.024,0.179c1.828,0,3.31-1.481,3.31-3.309c0-0.734-0.247-1.406-0.651-1.955
	c1.691-0.448,2.963-2.362,2.963-4.655c0-0.892-0.204-1.716-0.538-2.429C142.73,60.86,143.501,58.592,143.501,56.767z M56.292,40.237
	c-0.468-1.612-1.41-3.058-2.706-4.208c0.098-0.501,0.165-1.009,0.165-1.529c0-0.336-0.033-0.667-0.075-0.997
	c1.403-0.267,2.719-0.66,3.919-1.154c0.049,2.522,0.632,4.936,1.658,7.166C58.188,39.56,57.183,39.812,56.292,40.237z
	 M113.447,13.944c0.007-0.005,0.011-0.01,0.016-0.015c0.027,0.011,0.056,0.024,0.084,0.035c-0.003,0.03-0.004,0.061-0.006,0.091
	C113.51,14.019,113.479,13.98,113.447,13.944z M37.562,18.183c0.016-0.045,0.038-0.087,0.051-0.133
	c0.031,0.011,0.062,0.023,0.093,0.035C37.659,18.118,37.607,18.147,37.562,18.183z M53.065,49.395
	c0.151-0.118,0.309-0.233,0.451-0.358c0.134,0.204,0.279,0.399,0.438,0.588C53.662,49.539,53.365,49.462,53.065,49.395z"/>
<path fill="#8E6638" d="M66.002,234.249c0,0,5-7.332,5.499-11.5c1.47-12.27,4.126-5.653,6.5-1.5c0.696,1.222,3.5,12,3.5,19.5
	c0,3.048-2.425-1.211-1.75-1c-4-1.25,0.25-11-2.25-11.5c-3.468-0.692-4.5,11-4.5,11s0.5,1-3.5,1.5s-6-0.5-6-0.5L66.002,234.249z"/>
<path fill="#8E6638" d="M88.001,210.749c0.5,1.5,2.52,17.83,3.75,22.75c1.25,5-2.75,5.5-2,6.75c1.316,2.195,5.828,1.799,7.75,2
	c6.29,0.662,7.467-0.451,6.5-1.5c-3-3.25-4.75-0.75-7.5-6.5c-0.61-1.275-4.5-9-4.5-9L88.001,210.749z"/>
</svg>
