<?xml version="1.0" encoding="utf-8"?>
<!-- Generator: Adobe Illustrator 16.0.4, SVG Export Plug-In . SVG Version: 6.00 Build 0)  -->
<!DOCTYPE svg PUBLIC "-//W3C//DTD SVG 1.1//EN" "http://www.w3.org/Graphics/SVG/1.1/DTD/svg11.dtd">
<svg version="1.1" id="Layer_1" xmlns="http://www.w3.org/2000/svg" xmlns:xlink="http://www.w3.org/1999/xlink" x="0px" y="0px"
	 width="87.396px" height="135.905px" viewBox="0.5 -0.5 87.396 135.905" enable-background="new 0.5 -0.5 87.396 135.905"
	 xml:space="preserve">
<path fill="#925F34" d="M50.531,65.4c1.252-6.095,9.804-20.892,9.804-20.892l-1.547-2.38c0,0-8.45,18.75-10.545,18.524
	c-1.595-0.172-3.445-21.485-4.444-24.75c-0.444-1.468-1.087,0.53-1.087,0.53s4.604,23.604,1.68,22.756
	c-1.576-0.455-7.198-15.454-10.13-23.393c-0.879-2.382-1.614-0.387-1.614-0.387s6.908,28.017,8.051,30.325
	c0.543,1.093,1.238,7.313,1.5,15.5c0.211,6.607,0.038,14.438,0.069,22.333c0.036,8.966,0.123,12.554-0.069,19.083
	c0.25,3.75-4.585,9.673-3.77,10.15c1.274,0.747,3.77-2.4,7.478-1.15c0.159,0.054-0.553,3.689-0.019,3.75
	c1.396,0.16,4.178-3.917,4.502-4.16c0.89-0.668,1.441-1.601,1.308-2.759c-0.401-3.436-0.862-19.959-1.126-35.247
	c-0.062-3.635-0.113-7.199-0.15-10.502C50.319,73.535,50.331,66.372,50.531,65.4z"/>
<path fill="#8A562D" d="M50.448,72.65c1.252-6.096,10.387-28.142,10.387-28.142l-1.547-2.38c0,0-0.147,0.335-0.413,0.904l0.96,1.476
	c0,0-3.457,4.778-6.623,9.991c-0.696,1.288-1.386,2.484-2.016,3.474c-1.46,2.658-9.794,9.625-10.165,11.427
	c-0.17,0.827,0.527-0.395,1.667,6.834c0.174,1.105,3.901,1.716,4.293,5.416c1.411,13.354,5.122,48.465,1.415,50
	c0.048,0.418-2.648,3.747-2.019,3.75c2.019,0.009,3.799-4.633,4.502-4.16c2.559,1.72,6.136,1.451,4.559,1.561
	c2.708,0.207-2.941-6.241-3.25-8.9c-0.339-2.917-0.128-8.501-0.25-19.75C51.802,90.465,50.046,74.602,50.448,72.65z"/>
<path id="colour_1" fill="#54BA2A" d="M87.896,40.601c0-0.685-0.24-1.317-0.632-1.87c0.198-0.481,0.336-0.988,0.336-1.525
	c0-0.312-0.042-0.615-0.114-0.909c0.07-0.295,0.114-0.597,0.114-0.909c0-1.507-0.86-2.837-2.18-3.726
	c0.259-0.495,0.398-1.038,0.398-1.608c0-1.117-0.548-2.128-1.43-2.87c0.333-0.479,0.541-1.025,0.541-1.616
	c0-0.544-0.182-1.05-0.468-1.501c0.471-0.446,0.764-1.018,0.764-1.651c0-0.248-0.061-0.483-0.143-0.709
	c0.272-0.571,0.438-1.187,0.438-1.837c0-2.812-2.786-5.092-6.224-5.092c-0.156,0-0.311,0.029-0.468,0.039
	c0.266-0.499,0.399-1.045,0.438-1.615c0.396-0.869,0.623-1.806,0.623-2.788c0-4.419-4.378-8.002-9.776-8.002
	c-2.104,0-4.056,0.552-5.652,1.481c-0.07,0.002-0.146,0.005-0.219,0.009C63.068,1.331,60.044-0.5,56.493-0.5
	c-2.557,0-4.841,0.948-6.363,2.437c-0.4,0.011-0.785,0.075-1.148,0.173c-0.729-0.419-1.604-0.67-2.561-0.67
	c-0.371,0-0.724,0.048-1.064,0.118c-1.108-0.964-2.668-1.573-4.413-1.573c-2.731,0-5.018,1.485-5.778,3.516
	c-1.554,0.74-2.607,2.091-2.652,3.661c-0.781-0.683-1.89-1.114-3.12-1.114c-2.373,0-4.298,1.574-4.298,3.516
	c0,0.873,0.401,1.661,1.049,2.276c-1.705,0.962-2.824,2.57-2.824,4.393c0,0.599,0.126,1.173,0.349,1.711
	c-1.305,0.996-2.126,2.411-2.126,3.987c0,0.719,0.174,1.403,0.482,2.032c-1.041,1.028-1.667,2.349-1.667,3.788
	c0,0.375,0.047,0.741,0.128,1.096c-0.043,0-0.085-0.005-0.128-0.005c-1.557,0-2.993,0.393-4.187,1.062
	c-4.503,0.543-7.963,3.71-7.963,7.547c0,1.579,0.585,3.046,1.588,4.264C4.619,41.92,0.5,45.409,0.5,49.694
	c0,4.419,4.377,8.002,9.777,8.002c1.048,0,2.056-0.138,3.003-0.389c0.3,2.268,2.336,4.104,4.999,4.61
	c-1.466,1.225-2.374,2.9-2.374,4.75c0,3.742,3.699,6.772,8.268,6.789c2.108,1.506,4.86,2.426,7.88,2.426
	c2.595,0,4.986-0.68,6.948-1.824c0.359,0.508,1.022,0.854,1.79,0.854c1.146,0,2.074-0.76,2.074-1.697
	c0-0.629-0.422-1.172-1.045-1.465c0.922-1.059,1.595-2.27,1.947-3.582c0.596,0.42,1.357,0.685,2.21,0.685
	c0.153,0,0.31-0.021,0.463-0.039c-0.004,0.058-0.021,0.104-0.021,0.16c0,0.688,0.418,1.299,1.061,1.673
	c-0.651,0.632-1.061,1.438-1.061,2.328c0,2.009,1.989,3.637,4.443,3.637c0.562,0,1.095-0.095,1.591-0.25
	c0.458,0.307,1.034,0.493,1.668,0.493c0.438,0,0.838-0.095,1.2-0.243c0.071,1.752,1.591,3.201,3.621,3.557
	c0.296,1.266,1.456,2.27,2.954,2.609c-0.043,0.162-0.071,0.33-0.071,0.504c0,1.27,1.26,2.307,2.815,2.307
	c1.402,0,2.561-0.85,2.769-1.949c0.842-0.045,1.508-0.605,1.522-1.303c0.542,0.213,1.141,0.342,1.777,0.342
	c2.29,0,4.147-1.521,4.147-3.396c0-0.041-0.015-0.08-0.018-0.123c1.235-0.523,2.092-1.568,2.092-2.787
	c0-1.377-1.089-2.535-2.593-2.965c1.974-0.263,3.479-1.652,3.479-3.34c0-0.854-0.397-1.623-1.033-2.221
	c1.585-0.18,2.812-1.281,2.812-2.628c0-0.254-0.061-0.496-0.143-0.729c1.392-0.004,2.509-0.925,2.509-2.06
	c0-0.442-0.174-0.851-0.464-1.186c2.127-0.382,3.726-1.929,3.726-3.785c0-0.984-0.463-1.874-1.202-2.558
	c-0.086-1.812-1.896-3.261-4.13-3.261c-0.052,0-0.101,0.01-0.146,0.012c-0.189-0.511-0.58-0.95-1.099-1.254
	c0.118,0.011,0.231,0.03,0.354,0.03c1.495,0,2.741-0.83,3.125-1.954c1.89-0.071,3.396-1.335,3.396-2.896
	c0-0.546-0.197-1.051-0.52-1.487C86.7,43.529,87.896,42.182,87.896,40.601z"/>
<path opacity="0.1" enable-background="new    " d="M85.226,57.455c0-0.984-0.463-1.874-1.202-2.558
	c-0.065-1.375-1.125-2.537-2.607-3.02c0.117,0.236,0.188,0.491,0.188,0.761c0.003,1.135-1.118,2.055-2.505,2.06
	c0.082,0.232,0.139,0.474,0.139,0.729c0,1.347-1.225,2.449-2.81,2.63c0.636,0.597,1.029,1.366,1.029,2.219
	c0,1.688-1.509,3.077-3.479,3.34c1.503,0.43,2.59,1.588,2.59,2.965c0,1.217-0.854,2.262-2.089,2.787
	c0.003,0.043,0.016,0.082,0.016,0.123c0,1.83-1.771,3.312-3.988,3.383c1.062-3.938,0.117-8.004-8.014-8.133
	c-6.75-2.25-0.771-7.235-0.347-7.377c1.53-0.509,2.434-1.938,2.017-3.191c-0.009-0.028-0.023-0.051-0.038-0.079
	c0.71-0.625,1.047-1.513,0.777-2.327c-0.307-0.92-1.291-1.453-2.39-1.405c1.258-0.614,1.958-1.878,1.583-3.006
	c-0.189-0.57-0.626-0.996-1.188-1.253c1.021-0.473,1.593-1.482,1.293-2.383c-0.057-0.17-0.146-0.318-0.255-0.455
	c0.926-0.312,1.471-1.176,1.218-1.935c-0.098-0.296-0.305-0.53-0.569-0.69c1.337-0.728,2.059-2.117,1.646-3.357
	c-0.219-0.658-0.726-1.149-1.372-1.442c-0.349-0.904-1.312-1.446-2.414-1.438c0.131,0.132,0.234,0.286,0.294,0.467
	c0.257,0.758-0.288,1.622-1.214,1.934c0.106,0.137,0.198,0.285,0.254,0.456c0.299,0.9-0.271,1.909-1.292,2.382
	c0.561,0.257,0.993,0.683,1.187,1.253c0.375,1.128-0.325,2.392-1.583,3.005c1.101-0.047,2.084,0.486,2.39,1.406
	c0.271,0.814-0.066,1.702-0.776,2.327c0.016,0.027,0.029,0.051,0.038,0.079c0.417,1.253-0.482,2.682-2.017,3.19
	c-0.428,0.143-0.857,0.19-1.27,0.169c0.146,0.468-0.175,0.991-0.728,1.208c0.106,0.783-0.478,1.605-1.418,1.918
	c-1.038,0.346-2.11-0.063-2.393-0.914c-0.039-0.116-0.061-0.233-0.064-0.352c-1.078,0.103-2.076-0.309-2.556-1.09
	c-1.438,0.216-2.773-0.414-3.209-1.57c-0.208,0.182-0.458,0.333-0.748,0.43c-0.425,0.141-0.854,0.142-1.228,0.042
	c-0.297,0.214-0.631,0.396-1.007,0.521c-1.641,0.546-6.155-1.228-8.496,0.932c-1.057,1.201,2.403,7.07-10.066,8.25
	c-2.117,0.201,1.122-6.196-0.622-6.734c-3.06,1.007-3.264-0.1-4.096-2.601c-0.408-1.237-2.471-1.276-1.764-2.421
	c-1.891,0.254-3.661-0.521-4.365-1.969c-0.577,0.378-1.22,0.694-1.92,0.927c-0.263,0.087-0.526,0.16-0.791,0.22
	c-0.024-0.116-0.063-0.228-0.08-0.346c-0.943,0.25-1.954,0.388-3.003,0.388c-0.104,0-0.205-0.012-0.308-0.014
	c-0.532-0.117-1.039-0.286-1.503-0.515c-0.052,0.119-0.08,0.242-0.123,0.363c-2.239-0.368-4.205-1.354-5.606-2.742
	C1.201,46.319,0.5,47.937,0.5,49.694c0,4.419,4.377,8.002,9.777,8.002c1.048,0,2.056-0.138,3.003-0.389
	c0.3,2.268,2.336,4.104,4.999,4.61c-1.466,1.225-2.374,2.9-2.374,4.75c0,3.742,3.699,6.772,8.268,6.789
	c2.108,1.506,4.86,2.426,7.88,2.426c2.595,0,4.986-0.68,6.948-1.824c0.359,0.508,1.022,0.854,1.79,0.854
	c1.146,0,2.074-0.76,2.074-1.697c0-0.629-0.422-1.172-1.045-1.465c0.922-1.059,1.595-2.27,1.947-3.582
	c0.596,0.42,1.357,0.685,2.21,0.685c0.153,0,0.31-0.021,0.463-0.039c-0.004,0.058-0.021,0.104-0.021,0.16
	c0,0.688,0.418,1.299,1.061,1.673c-0.651,0.632-1.061,1.438-1.061,2.328c0,2.009,1.989,3.637,4.443,3.637
	c0.562,0,1.095-0.095,1.591-0.25c0.458,0.307,1.034,0.493,1.668,0.493c0.438,0,0.838-0.095,1.2-0.243
	c0.071,1.752,1.591,3.201,3.621,3.557c0.296,1.266,1.456,2.27,2.954,2.609c-0.043,0.162-0.071,0.33-0.071,0.504
	c0,1.27,1.26,2.307,2.815,2.307c1.402,0,2.561-0.85,2.769-1.949c0.842-0.045,1.508-0.605,1.522-1.303
	c0.542,0.213,1.141,0.342,1.777,0.342c2.29,0,4.147-1.521,4.147-3.396c0-0.041-0.015-0.08-0.018-0.123
	c1.235-0.523,2.092-1.568,2.092-2.787c0-1.377-1.089-2.535-2.593-2.965c1.974-0.263,3.479-1.652,3.479-3.34
	c0-0.854-0.397-1.623-1.033-2.221c1.585-0.18,2.812-1.281,2.812-2.628c0-0.254-0.061-0.496-0.143-0.729
	c1.392-0.004,2.509-0.925,2.509-2.06c0-0.442-0.174-0.851-0.464-1.186C83.629,60.858,85.226,59.311,85.226,57.455z M46.035,65.206
	c0.081-0.079,0.159-0.156,0.211-0.215c0.066,0.138,0.132,0.264,0.197,0.396C46.307,65.327,46.174,65.267,46.035,65.206z"/>
<path opacity="0.1" enable-background="new    " d="M87.896,40.601c0-0.685-0.24-1.317-0.632-1.87
	c0.198-0.481,0.336-0.988,0.336-1.525c0-0.312-0.042-0.615-0.114-0.909c0.07-0.295,0.114-0.597,0.114-0.909
	c0-0.91-0.318-1.753-0.855-2.477c-0.512,0.617-1.24,1.104-2.097,1.386c0.315,0.437,0.516,0.941,0.516,1.487
	c0,1.561-1.506,2.825-3.392,2.896c-0.384,1.124-1.631,1.953-3.126,1.953c-0.121,0-0.237-0.019-0.355-0.029
	c0.521,0.304,0.905,0.743,1.103,1.254c0.048-0.002,0.095-0.012,0.146-0.012c2.234,0,4.044,1.449,4.13,3.261
	c0.645,0.594,1.058,1.347,1.157,2.178c0.437-0.481,0.704-1.069,0.704-1.715c0-0.546-0.197-1.051-0.519-1.487
	C86.7,43.529,87.896,42.182,87.896,40.601z"/>
</svg>
