<?xml version="1.0" encoding="utf-8"?>
<!-- Generator: Adobe Illustrator 16.0.4, SVG Export Plug-In . SVG Version: 6.00 Build 0)  -->
<!DOCTYPE svg PUBLIC "-//W3C//DTD SVG 1.1//EN" "http://www.w3.org/Graphics/SVG/1.1/DTD/svg11.dtd">
<svg version="1.1" id="Layer_1" xmlns="http://www.w3.org/2000/svg" xmlns:xlink="http://www.w3.org/1999/xlink" x="0px" y="0px"
	 width="189.553px" height="151.944px" viewBox="0 0 189.553 151.944" enable-background="new 0 0 189.553 151.944"
	 xml:space="preserve">
<path fill="#A84DFF" stroke="#000000" stroke-width="2" stroke-miterlimit="10" d="M140.21,141.556
	c4.872-2.685,9.469-5.875,13.804-9.378c5.313-4.3,10.259-9.056,14.89-14.092c4.612-5.04,8.991-10.366,12.867-15.939l0.151-0.216
	c0,0-2.942-2.113-4.179-3.28c-0.662-0.628-1.26-1.306-1.801-2.022c-0.544-0.728-1.02-1.44-1.469-2.294l-0.982-1.867l2.109,0.343
	c1.618,0.263,3.244,0.462,4.855,0.516c1.604,0.052,3.213-0.025,4.664-0.416c1.448-0.387,2.67-1.153,3.139-2.321
	c0.508-1.136,0.308-2.761-0.209-4.013l-0.049-0.116l-0.027-0.112c-1.793-7.402-4.615-14.693-8.022-21.577
	c-3.438-6.889-7.601-13.426-12.55-19.299c-4.943-5.87-10.697-11.06-17.158-15.163c-0.968-0.615-1.958-1.192-2.956-1.755
	c-11.576,15.992-22.929,35.285-22.929,58.935C124.358,107.719,131.813,126.382,140.21,141.556z"/>
<path fill="#A84DFF" stroke="#000000" stroke-width="2" stroke-linecap="round" stroke-linejoin="round" stroke-miterlimit="10" d="
	M42.324,81.396c0.691-22.438,2.076-20.252,5.047-27.373c-2.771-2.879-6.015-5.499-9.364-7.819
	c-3.382-2.327-6.965-4.364-10.705-6.043c-3.738-1.678-7.65-2.99-11.632-3.882c-2.012-0.443-4.012-0.793-6.015-0.894
	c-1.984-0.093-4.011,0.032-5.685,0.776c-1.688,0.716-2.739,2.221-2.921,4.074c-0.203,1.829,0.233,3.864,0.952,5.629
	c1.665,3.841,3.227,7.728,4.647,11.666c2.842,7.877,5.152,15.96,6.688,24.202c1.538,8.234,2.314,16.641,1.954,25.03
	c-0.199,4.191-0.68,8.374-1.535,12.487c-0.429,2.055-0.945,4.094-1.587,6.096c-0.319,1.002-0.671,1.995-1.057,2.974
	c-0.403,0.985-0.777,1.891-0.843,2.863c-0.09,0.948,0.221,1.888,1.005,2.335c0.193,0.111,0.386,0.202,0.602,0.229l0.763,0.137
	c0.508,0.101,1.02,0.16,1.53,0.24c2.046,0.278,4.114,0.396,6.179,0.327c4.125-0.13,8.235-1.105,11.938-2.96
	c3.711-1.842,6.979-4.535,9.649-7.714c2.573-3.09,4.681-6.594,6.116-10.366C44.972,105.033,41.956,93.375,42.324,81.396z"/>
<path fill="#A84DFF" stroke="#000000" stroke-width="2" stroke-linecap="round" stroke-linejoin="round" stroke-miterlimit="10" d="
	M75.469,130.41c-0.566-0.289,0.556,10.927,0,10.62c0.081,0.923,0.192,1.844,0.376,2.753c0.275,1.418,0.689,2.845,1.238,4.139
	c0.565,1.254,1.808,2.057,3.131,2.495c2.722,0.836,5.705,0.54,8.54,0.065c2.699-0.476,5.354-1.209,7.971-2.053
	c2.811-5.314,10.105-17.108,7.141-18.024C100.237,129.282,78.85,132.15,75.469,130.41z"/>
<path fill="#A84DFF" stroke="#000000" stroke-width="2" stroke-linecap="round" stroke-linejoin="round" stroke-miterlimit="10" d="
	M105.825,6.605c-2.965-1.521-6.002-2.914-9.146-3.997c-3.123-1.046-6.441-1.927-9.688-1.496c-1.581,0.243-3.161,0.907-4.047,2.228
	c-0.868,1.362-1.603,2.895-2.185,4.444c-1.188,3.108-1.812,6.421-1.955,9.709c-0.086,2.402,0.154,4.812,0.781,7.07
	c1.213-0.599,1.036,9.084,2.281,8.552c2.26-0.975,10.573-2.927,12.925-3.666c1.889-0.594,5.404-2.398,7.336-2.834
	c0.249-0.056,2.489,1.992,2.739,1.938c0.443-0.096,1.555-2.85,2-2.938c1.297-0.255,5.692,7.703,7,7.521
	c0.382-0.054-0.373-9.984,0-9.885c31.256,8.339,16.535-1.477,11.6-5.063C124.701,17.667,111.771,9.623,105.825,6.605z"/>
<path fill="#9320ED" stroke="#000000" stroke-width="2" stroke-linecap="round" stroke-linejoin="round" stroke-miterlimit="10" d="
	M65.496,133.472l0.098,0.082c3.633,3.055,7.599,5.702,11.856,7.782c3.104,1.534,6.338,2.782,9.646,3.79
	c3.236,0.986,6.546,1.743,9.881,2.307c2.211,0.378,4.437,0.666,6.67,0.894c1.174,0.12,2.35,0.228,3.527,0.31
	c3.418,0.204,6.852,0.463,10.222,0.215c1.742-0.123,3.472-0.356,5.184-0.68c-0.012-0.018-0.021-0.037-0.033-0.055
	c0.064-0.014,0.13-0.027,0.195-0.04c2.594-0.497,5.148-1.193,7.648-2.046c2.213-0.784,4.382-1.7,6.492-2.727
	c1.031-0.503,2.046-1.037,3.052-1.587c0.093-0.051,0.183-0.108,0.275-0.16c-8.396-15.174-15.852-33.837-15.852-54.068
	c0-23.649,11.353-42.943,22.929-58.935c-0.148-0.083-0.295-0.17-0.443-0.253c-5.168-2.878-10.707-5.073-16.443-6.525
	c-0.418-0.102-1.602-0.375-1.774-0.413c-0.264,0.327-0.289,0.311-0.031-0.021c-5.882-1.337-11.926-2.008-17.955-1.926
	c-1.42,0.02-2.84,0.065-4.254,0.171c-4.106,0.301-8.18,0.985-12.166,2.013c-3.424,0.881-6.784,2.009-10.038,3.398
	c-4.387,1.863-8.586,4.165-12.554,6.818c-0.131,0.088-0.259,0.18-0.389,0.268c-2.273,1.538-4.471,3.188-6.584,4.94
	c-2.955,2.454-5.751,5.104-8.363,7.923c-2.594,2.812-8.896,9.101-8.896,9.101l-0.024-0.024c-2.971,7.121-4.355,4.936-5.047,27.373
	c-0.368,11.979,2.647,23.637,5.728,32.016c0.048-0.122,0.107-0.239,0.152-0.361c3.826,5.715,7.922,11.287,12.737,16.195
	C62.389,130.73,63.914,132.136,65.496,133.472z M90.817,100.772c-1.357-0.476-2.226-1.849-2.712-3.698
	c-0.576-2.191-0.613-5.053-0.264-7.923c0.635-5.207,2.529-10.418,4.729-11.595c2.807-1.5,9.613,0.383,14.24,1.97
	c2.688,0.922,4.643,1.745,4.643,1.745l-0.104,17.335c0,0-1.788,0.516-4.362,1.099C102.187,100.792,94.646,102.115,90.817,100.772z"
	/>
<path fill="#A84DFF" stroke="#000000" stroke-width="2" stroke-linecap="round" stroke-linejoin="round" stroke-miterlimit="10" d="
	M111.454,81.271c0,0-1.954-0.823-4.643-1.745c-4.627-1.587-11.434-3.47-14.24-1.97c-2.2,1.177-4.095,6.388-4.729,11.595
	c-0.35,2.87-0.312,5.732,0.264,7.923c0.486,1.85,1.354,3.222,2.712,3.698c3.828,1.343,11.369,0.02,16.17-1.067
	c2.574-0.583,4.362-1.099,4.362-1.099L111.454,81.271z"/>
<path fill="#9320ED" stroke="#000000" stroke-width="2" stroke-linecap="round" stroke-linejoin="round" stroke-miterlimit="10" d="
	M147.287,28.553c-0.148-0.083-0.295-0.17-0.443-0.253c-5.168-2.878-10.707-5.073-16.443-6.525
	c-0.418-0.102-13.731-2.441-19.761-2.359c-1.42,0.02-2.84,0.065-4.254,0.171c-4.106,0.301-8.18,0.985-12.166,2.013
	c-3.424,0.881-6.784,2.009-10.038,3.398c-4.387,1.863-8.586,4.165-12.554,6.818c-0.131,0.088-0.259,0.18-0.389,0.268
	c-2.273,1.538-4.471,3.188-6.584,4.94c-2.955,2.454-5.751,5.104-8.363,7.923c-2.594,2.812-8.896,9.101-8.896,9.101l-0.024-0.024
	c-2.971,7.121-4.355,4.936-5.047,27.373c-0.368,11.979,2.647,23.637,5.728,32.016c0.048-0.122,0.107-0.239,0.152-0.361
	c3.826,5.715,7.922,11.287,12.737,16.195c1.447,1.484,2.973,2.891,4.555,4.227l0.098,0.082c3.633,3.055,7.599,5.702,11.856,7.782
	c3.104,1.534,6.338,2.782,9.646,3.79c3.236,0.986,6.546,1.743,9.881,2.307c2.211,0.378,4.437,0.666,6.67,0.894
	c1.174,0.12,2.35,0.228,3.527,0.31c3.418,0.204,6.852,0.463,10.222,0.215c1.742-0.123,3.472-0.356,5.184-0.68
	c-0.012-0.018-0.021-0.037-0.033-0.055c0.064-0.014,0.13-0.027,0.195-0.04c2.594-0.497,5.148-1.193,7.648-2.046
	c2.213-0.784,4.382-1.7,6.492-2.727c1.031-0.503,2.046-1.037,3.052-1.587c0.093-0.051,0.183-0.108,0.275-0.16 M90.817,100.772
	c-1.357-0.476-2.226-1.849-2.712-3.698c-0.576-2.191-0.613-5.053-0.264-7.923c0.635-5.207,2.529-10.418,4.729-11.595
	c2.807-1.5,9.613,0.383,14.24,1.97c2.688,0.922,4.643,1.745,4.643,1.745l-0.104,17.335c0,0-1.788,0.516-4.362,1.099
	C102.187,100.792,94.646,102.115,90.817,100.772z"/>
<path fill="#A84DFF" d="M140.21,140.556c4.872-2.685,7.853-53.547,6.884-59.036c-2.307-13.065,10.264-45.489,3.803-49.593
	c-0.968-0.615-3.188-2.013-4.186-2.575c-11.576,15.992-22.353,34.486-22.353,58.135C124.358,107.719,131.813,125.382,140.21,140.556
	z"/>
<circle fill="#FFFFFF" stroke="#000000" stroke-miterlimit="10" cx="160.716" cy="67.899" r="13.622"/>
<path fill="#000100" d="M164.451,74.164c3.088,0.533,6.044-1.615,6.592-4.793c0.55-3.175-1.511-6.188-4.606-6.722
	c-3.093-0.532-6.046,1.609-6.593,4.785C159.295,70.615,161.355,73.626,164.451,74.164z M162.96,65.397
	c0.207-1.189,1.338-1.989,2.531-1.783c1.188,0.209,1.987,1.337,1.782,2.53c-0.203,1.187-1.341,1.984-2.53,1.779
	C163.559,67.719,162.753,66.587,162.96,65.397z"/>
</svg>
