<?xml version="1.0" encoding="utf-8"?>
<!-- Generator: Adobe Illustrator 16.0.4, SVG Export Plug-In . SVG Version: 6.00 Build 0)  -->
<!DOCTYPE svg PUBLIC "-//W3C//DTD SVG 1.1//EN" "http://www.w3.org/Graphics/SVG/1.1/DTD/svg11.dtd">
<svg version="1.1" id="Layer_1" xmlns="http://www.w3.org/2000/svg" xmlns:xlink="http://www.w3.org/1999/xlink" x="0px" y="0px"
	 width="189.725px" height="399.745px" viewBox="0 0 189.725 399.745" enable-background="new 0 0 189.725 399.745"
	 xml:space="preserve">
<rect id="colour_1" x="14.129" y="27.965" fill="#F9FC8D" stroke="#1D1D1B" stroke-miterlimit="10" width="175.096" height="127.782"/>
<g>
	<path fill="#AA8C6F" d="M28.44,14.27c0-7.798-6.322-14.12-14.119-14.12C6.522,0.15,0.2,6.472,0.2,14.27
		c0,5.778,3.476,10.739,8.447,12.925v371.886h11.346V27.195C24.964,25.01,28.44,20.049,28.44,14.27z"/>
	<path fill="#1D1D1B" d="M28.341,14.271c-0.012-2.516-0.69-5.019-1.991-7.167c-1.291-2.15-3.166-3.943-5.37-5.134
		c-2.207-1.188-4.73-1.765-7.234-1.651c-2.494,0.106-4.967,0.89-7.048,2.273C4.61,3.964,2.896,5.899,1.807,8.146
		c-0.54,1.123-0.946,2.315-1.165,3.542c-0.232,1.235-0.284,2.463-0.185,3.73c0.2,2.473,1.124,4.892,2.581,6.897
		c1.457,2.012,3.458,3.619,5.73,4.604l0.178,0.077l0.002,0.198l0.329,46.486l0.146,23.243l0.075,23.243l0.036,23.243l-0.041,23.243
		c0.001,15.495-0.133,30.991-0.203,46.486l-0.25,46.486l-0.084,46.485l0.098,46.486l0.206,46.485l-0.612-0.612l11.346-0.049
		l-0.661,0.661l-0.197-46.485l-0.114-46.486l-0.09-46.485l0.035-46.486c0.03-15.495-0.018-30.991,0.076-46.486l0.255-46.485
		l0.347-46.486l0.14-23.243l0.066-23.243v-0.09l0.086-0.042l0.911-0.438l0.876-0.502l0.839-0.565l0.796-0.624
		c0.511-0.44,0.996-0.909,1.448-1.411c0.443-0.508,0.855-1.042,1.23-1.604c0.367-0.566,0.698-1.155,0.988-1.765
		c0.282-0.613,0.523-1.245,0.722-1.89c0.191-0.648,0.336-1.308,0.441-1.976l0.112-1.007L28.341,14.271z M28.54,14.269l-0.035,1.029
		l-0.109,1.022c-0.103,0.678-0.245,1.349-0.437,2.009c-0.198,0.657-0.439,1.3-0.724,1.925c-0.291,0.622-0.624,1.222-0.995,1.8
		c-0.378,0.573-0.795,1.119-1.244,1.639c-0.457,0.513-0.948,0.993-1.467,1.445l-0.808,0.64l-0.852,0.58l-0.892,0.518l-0.928,0.452
		l0.086-0.132l0.066,23.243l0.14,23.243l0.347,46.486l0.255,46.485c0.094,15.495,0.046,30.991,0.076,46.486l0.035,46.486
		l-0.09,46.485l-0.114,46.486l-0.197,46.485l-0.003,0.664l-0.658-0.003l-11.346-0.049l-0.615-0.002l0.003-0.61l0.206-46.485
		l0.098-46.486l-0.084-46.485l-0.25-46.486c-0.07-15.495-0.204-30.991-0.203-46.486l-0.041-23.243l0.036-23.243l0.075-23.243
		l0.146-23.243l0.329-46.486l0.18,0.275c-2.357-1.059-4.414-2.758-5.896-4.862c-1.488-2.104-2.388-4.596-2.588-7.17
		c-0.095-1.254-0.037-2.572,0.209-3.823c0.231-1.261,0.654-2.485,1.215-3.636c1.129-2.302,2.898-4.278,5.042-5.674
		c2.143-1.407,4.67-2.197,7.229-2.293c2.55-0.104,5.13,0.498,7.371,1.72c2.242,1.225,4.141,3.059,5.443,5.251
		C27.864,9.172,28.541,11.728,28.54,14.269z"/>
</g>
<path opacity="0.2" fill="#1D1D1B" d="M27.927,14.172c0-4.66-2.341-8.771-5.907-11.231c1.516,2.198,2.407,4.859,2.407,7.73
	c0,7.534-6.107,13.641-13.642,13.641c-2.873,0-5.534-0.893-7.732-2.409c2.46,3.567,6.57,5.909,11.232,5.909
	c0.406,0,0.807-0.026,1.204-0.061v371.328h4.504V26.55C24.673,24.388,27.927,19.666,27.927,14.172z"/>
</svg>
