<?xml version="1.0" encoding="utf-8"?>
<!-- Generator: Adobe Illustrator 16.0.4, SVG Export Plug-In . SVG Version: 6.00 Build 0)  -->
<!DOCTYPE svg PUBLIC "-//W3C//DTD SVG 1.1//EN" "http://www.w3.org/Graphics/SVG/1.1/DTD/svg11.dtd">
<svg version="1.1" id="Layer_1" xmlns="http://www.w3.org/2000/svg" xmlns:xlink="http://www.w3.org/1999/xlink" x="0px" y="0px"
	 width="233.738px" height="173.352px" viewBox="0 0 233.738 173.352" enable-background="new 0 0 233.738 173.352"
	 xml:space="preserve">
<g>
	<path fill="#F7C700" d="M214.385,44.184c-12.58-6.846-25.232-17.748-44.149-26.904c-10.346-5.006-61.089-37.019-117.108,10.821
		C26.433,50.898,21.003,82.448,15.631,85.598c-5.368,3.153-30.719,19.135,0.745,33.104c31.467,13.966,30.885,29.759,66.829,44.42
		c54.143,22.075,100.234-7.154,121.048-42.598c12.592-21.443,19.172-24.327,24.229-32.646
		C238.678,71.109,231.165,53.314,214.385,44.184z"/>
	<path d="M214.265,44.402c-5.592-3.021-10.843-6.61-16.136-10.087c-5.311-3.456-10.61-6.924-16.138-9.988
		c-2.753-1.549-5.547-3.018-8.377-4.407c-1.424-0.693-2.835-1.341-4.295-2.011l-4.287-2.079c-5.672-2.745-11.475-5.15-17.448-6.993
		c-5.965-1.859-12.082-3.136-18.235-3.892c-3.08-0.365-6.173-0.573-9.266-0.613c-3.091-0.069-6.184,0.027-9.261,0.296
		c-6.15,0.555-12.244,1.708-18.162,3.497c-5.909,1.811-11.673,4.147-17.173,7.037c-5.512,2.865-10.815,6.179-15.839,9.903
		c-5.04,3.727-9.812,7.749-14.069,12.327c-4.277,4.554-8.104,9.546-11.504,14.829c-3.38,5.298-6.313,10.888-8.955,16.621
		c-1.316,2.871-2.562,5.776-3.845,8.683c-0.646,1.452-1.298,2.906-2.029,4.344c-0.369,0.717-0.75,1.434-1.191,2.139
		c-0.453,0.698-0.927,1.407-1.695,2.016c-0.099,0.074-0.202,0.146-0.313,0.214l-0.259,0.154l-0.501,0.304l-0.994,0.622
		c-0.658,0.421-1.307,0.856-1.945,1.306c-1.275,0.899-2.51,1.853-3.679,2.874c-2.328,2.034-4.452,4.368-5.762,7.067
		c-0.65,1.344-1.063,2.779-1.112,4.218c-0.057,1.438,0.271,2.865,0.905,4.172c1.294,2.625,3.645,4.699,6.162,6.409
		c2.548,1.716,5.334,3.092,8.214,4.314c2.939,1.257,5.841,2.637,8.671,4.159c5.676,3.017,11.034,6.703,15.972,10.806
		c4.965,4.078,9.534,8.466,14.386,12.368c9.63,7.88,20.882,13.505,32.592,17.692c11.698,4.103,24.119,6.082,36.413,5.351
		c6.14-0.369,12.238-1.352,18.174-2.96c5.937-1.609,11.693-3.868,17.198-6.636c11.043-5.498,20.938-13.242,29.349-22.329
		c2.103-2.276,4.104-4.647,5.999-7.102c1.91-2.442,3.719-4.969,5.403-7.576c0.845-1.296,1.642-2.634,2.51-4.007
		c0.848-1.357,1.734-2.691,2.629-4.021c1.793-2.656,3.664-5.266,5.637-7.802c1.97-2.537,4.052-4.994,6.216-7.353
		c2.154-2.368,4.408-4.605,6.424-6.956c4.023-4.645,6.938-10.38,7.654-16.543c0.792-6.156-0.881-12.526-4.233-17.805
		C224.706,51.656,219.766,47.443,214.265,44.402z M214.505,43.965c5.607,3.005,10.632,7.243,14.186,12.596
		c1.783,2.662,3.178,5.605,4.032,8.719c0.849,3.112,1.18,6.38,0.938,9.62c-0.49,6.503-3.262,12.712-7.234,17.849
		c-1.98,2.571-4.112,4.918-6.097,7.349c-1.997,2.421-3.887,4.907-5.673,7.476c-1.785,2.566-3.475,5.203-5.088,7.89
		c-1.635,2.703-3.11,5.38-4.755,8.205c-1.647,2.783-3.426,5.489-5.321,8.113c-1.915,2.609-3.944,5.137-6.084,7.569
		c-8.542,9.743-18.942,17.892-30.516,23.864c-11.598,5.904-24.471,9.486-37.516,10.043c-13.045,0.602-26.113-1.68-38.259-6.124
		c-6.062-2.241-11.957-4.867-17.609-8.019c-5.651-3.145-11.014-6.871-15.927-11.044c-4.945-4.146-9.407-8.68-14.079-12.834
		c-4.667-4.164-9.677-7.879-15.089-11.01c-2.705-1.564-5.489-2.996-8.337-4.319c-2.91-1.343-5.791-2.871-8.447-4.781
		c-2.625-1.912-5.161-4.238-6.617-7.38c-0.723-1.554-1.098-3.312-0.997-5.044c0.089-1.733,0.614-3.396,1.368-4.888
		c1.53-2.995,3.827-5.39,6.251-7.51c1.224-1.057,2.506-2.034,3.825-2.952c0.66-0.46,1.33-0.902,2.008-1.332l1.972-1.211
		c0.486-0.371,0.939-0.983,1.341-1.61c0.404-0.636,0.774-1.315,1.12-2.012c0.694-1.393,1.329-2.836,1.959-4.283
		c1.254-2.9,2.482-5.83,3.784-8.73c2.572-5.815,5.398-11.547,8.683-17.032c3.252-5.503,6.967-10.761,11.187-15.615
		c2.109-2.426,4.342-4.753,6.696-6.956c2.357-2.196,4.805-4.27,7.309-6.278c5.023-3.999,10.343-7.675,16.003-10.799
		C84.815,5.242,97.488,1.15,110.473,0.246c12.979-1.019,26.064,1.181,38.115,5.619c6.043,2.201,11.862,4.944,17.445,8.019
		l4.155,2.291c1.384,0.725,2.817,1.475,4.205,2.243c2.793,1.532,5.548,3.128,8.25,4.806
		C193.512,29.832,203.461,37.778,214.505,43.965z"/>
</g>
<path fill="#FFDC00" d="M165.611,20.275l-0.046-0.027L165.611,20.275l-2.741-1.404c-14.681-7.666-59.369-30.994-109.193,11.55
	c-17.101,14.608-24.963,32.79-30.166,44.821c-3.165,7.315-4.91,11.344-8.012,13.168c-7.731,4.535-12.586,9.919-12.37,13.712
	c0.197,3.505,4.687,7.377,12.634,10.908c15.625,6.936,23.811,14.397,31.728,21.618c8.666,7.894,16.843,15.36,34.966,22.744
	c23.513,9.586,47.493,9.69,69.335,0.305c18.509-7.953,35.2-22.855,45.791-40.898c8.104-13.8,13.948-20.312,18.21-25.065
	c2.456-2.733,4.389-4.896,6.061-7.639c3.751-6.168,4.844-12.732,3.162-18.98c-1.96-7.274-7.449-13.682-15.461-18.042
	c-5.252-2.856-10.473-6.367-15.994-10.083C185.619,31.649,176.616,25.599,165.611,20.275z"/>
<path fill="#FFEB38" d="M56.289,32.402C40.153,46.44,26.887,69.906,27.896,77.135c2.678,19.24,139.878,40.263,184.347,11.408
	c2.982-1.933,4.09-4.557,5.53-6.932c3.055-5.022,3.968-10.298,2.631-15.26c-1.616-6-6.255-11.396-13.128-15.088
	C185.188,39.417,124.98-27.354,56.289,32.402z"/>
</svg>
