<?xml version="1.0" encoding="utf-8"?>
<!-- Generator: Adobe Illustrator 16.0.4, SVG Export Plug-In . SVG Version: 6.00 Build 0)  -->
<!DOCTYPE svg PUBLIC "-//W3C//DTD SVG 1.1//EN" "http://www.w3.org/Graphics/SVG/1.1/DTD/svg11.dtd">
<svg version="1.1" id="Layer_1" xmlns="http://www.w3.org/2000/svg" xmlns:xlink="http://www.w3.org/1999/xlink" x="0px" y="0px"
	 width="126.843px" height="126.928px" viewBox="0 0 126.843 126.928" enable-background="new 0 0 126.843 126.928"
	 xml:space="preserve">
<g id="background">
	<g id="colour">
		<rect x="1.694" y="2.133" fill="#FF43E0" width="123" height="123"/>
		<path fill="#1D1D1B" d="M124.694,125.333c-5.125,0.204-10.25,0.343-15.375,0.479c-5.125,0.14-10.25,0.295-15.375,0.385
			l-15.375,0.279l-15.375,0.207l-15.375,0.149l-15.375,0.072c-5.125,0.038-10.25,0.023-15.375,0.01
			c-5.125,0.008-10.25-0.073-15.375-0.117L0,126.784l0.03-1.65l0.551-30.75l0.291-15.375l0.174-15.375l0.04-15.375l-0.07-15.375
			c-0.055-10.25-0.28-20.5-0.416-30.75L0.585,1.056l1.109-0.018c10.25-0.161,20.5-0.403,30.75-0.492l15.375-0.178l15.375-0.117
			l30.75-0.203c5.125-0.046,10.25-0.046,15.375-0.048L124.694,0h2.148l-0.016,2.133c-0.072,10.25-0.071,20.5-0.205,30.75
			l-0.364,30.75c-0.044,5.125-0.158,10.25-0.255,15.375l-0.297,15.375c-0.083,5.125-0.232,10.25-0.366,15.375
			c-0.132,5.125-0.266,10.25-0.445,15.375l-0.007,0.192L124.694,125.333z M124.488,124.927c-0.176-5.056-0.31-10.112-0.439-15.168
			c-0.134-5.125-0.283-10.25-0.366-15.375l-0.297-15.375c-0.097-5.125-0.211-10.25-0.255-15.375l-0.364-30.75
			c-0.134-10.25-0.133-20.5-0.205-30.75l2.133,2.133l-15.375-0.001c-5.125-0.002-10.25-0.002-15.375-0.048l-30.75-0.203
			L47.819,3.898L32.444,3.72c-10.25-0.088-20.5-0.331-30.75-0.492l1.095-1.095c-0.135,10.25-0.36,20.5-0.416,30.75l-0.07,15.375
			l0.04,15.375l0.174,15.375l0.291,15.375l0.551,30.75l-1.665-1.665c5.125-0.043,10.25-0.125,15.375-0.117
			c5.125-0.013,10.25-0.028,15.375,0.01l15.375,0.072l15.375,0.149l15.375,0.207l15.375,0.279c5.125,0.089,10.25,0.245,15.375,0.385
			C114.376,124.588,119.432,124.728,124.488,124.927z"/>
	</g>
</g>
</svg>
