<?xml version="1.0" encoding="utf-8"?>
<!-- Generator: Adobe Illustrator 16.0.4, SVG Export Plug-In . SVG Version: 6.00 Build 0)  -->
<!DOCTYPE svg PUBLIC "-//W3C//DTD SVG 1.1//EN" "http://www.w3.org/Graphics/SVG/1.1/DTD/svg11.dtd">
<svg version="1.1" id="Layer_1" xmlns="http://www.w3.org/2000/svg" xmlns:xlink="http://www.w3.org/1999/xlink" x="0px" y="0px"
	 width="80.896px" height="74.861px" viewBox="0 0 80.896 74.861" enable-background="new 0 0 80.896 74.861" xml:space="preserve">
<g id="background">
	<polygon id="colour" fill="#FFFFFF" points="40.547,0.219 52.402,24.24 78.911,28.092 59.728,46.791 64.258,73.192 40.547,60.727 
		16.836,73.192 21.364,46.791 2.185,28.092 28.692,24.24 	"/>
	<g id="frame">
		<path fill="#231F20" d="M40.547,0L52.852,24.02l-0.376-0.273l26.564,3.456l1.856,0.241l-1.357,1.294L60.146,47.221l0.172-0.531
			l4.232,26.452l0.096,0.587l-0.529-0.271l-23.851-12.2h0.559l-23.57,12.731l-1.613,0.873l0.309-1.821l4.479-26.41l0.271,0.843
			L1.486,28.808L0,27.364l2.041-0.262l26.572-3.406l-0.414,0.301L40.547,0z M40.547,0.452L29.187,24.483l-0.12,0.253l-0.294,0.048
			L2.329,29.082l0.554-1.706l19.146,18.735l0.358,0.351l-0.087,0.49l-4.576,26.393l-1.308-0.947l23.853-12.2l0.287-0.146
			l0.271,0.146l23.571,12.729l-0.438,0.316l-4.826-26.351l-0.056-0.306l0.229-0.228l18.974-18.914l0.499,1.535L52.33,24.732
			l-0.267-0.042l-0.109-0.231L40.547,0.452z"/>
	</g>
</g>
</svg>
