<?xml version="1.0" standalone="no"?>
<!DOCTYPE svg PUBLIC "-//W3C//DTD SVG 1.0//EN" "http://www.w3.org/TR/2001/REC-SVG-20010904/DTD/svg10.dtd">
<svg xmlns="http://www.w3.org/2000/svg" xmlns:xlink="http://www.w3.org/1999/xlink" width="1645px" height="656px" viewBox = "0 0 1645 656">
<g transform="translate(0,656) scale(1,-1)">
	<g id="Layer 1" >
		<path id="" d="M1454 294c-33.2 9.5-60 16-104 26c-4.08 0.929-211 48.5-245 62.9c-3.86 1.64-5.5 2.85-4.38 3.52c34.3 20.6 99.7 56.6 168 89.4c2.27 1.1 23.9-16.4 58.6-25.1c47.6-11.9 112-16.3 115-14.8c5.71 2.7-52.6 6.98-96 20c-34.5 10.4-56.5 30-52 32c57.7 25.9 134 56.3 168 60c112 12-28 16-96-12c-59.8-24.6-395-173-416-180c-13.9-4.76-29.1-8.45-45.4-11.2c4.71 8.5 16.7 22.3 41.4 55.2c12 16 41.1 52.7 52 72c13.9 24.7 36 84 96 60c48.4-19.4 124 36 124 36c0 0-56-24-100-24L1075 554.8c4.67 0.504 13.1 4.61 27.2 21.2c44 52 28 80 28 80c0 0 3.86-37-36-72c-27.7-24.3-96-56-124-112c-20-39.9-20-32-84-100c-14-14.8-34-34-66-34c-175-8.59-396 73-476 85.1c-118 14.6-412 28.4-510 34.6L-178 300c18.6 2.37 63.4 4.17 103 5.53c37.2 6.55 338-23.8 341-49.5c4-40 41.3-84.3 42.3-115c1.26-37.8-50.3-117-54.3-141c0 0 21.1 26.2 36.3 57.1c13.3 27.1 39.7 58.9 39.7 58.9L430 84c0 0-80 36-104 68c-24 32-35.7 97.3-38.7 121c-3 24 25.9 35.1 33 36c69 9 64.4-0.794 238-29.1c22.9-1.53 113-16.4 202-15.8c27.3 0.193 54.5 1.86 79.3 5.85c85.1 13.6 172 64.3 197 78.1c4.97 2.74 22.8-1.89 127-21.8c9.2-8.46 48.7-47.8 38.1-90.3c-12-48 8-112 8-112c0 0-10.1 63.5 4 88c26.4 46.1-6.07 106-6.07 106c35.7-6.67 185-33.7 187-33.9c151-16 183-82 203-100c20-18 48.2-16.2 48-15.3c-0.337 1.58-35 6.26-44 27.3c-9 21-84 80-147 98Z" stroke="none" fill="rgb(40%,28.2%,18.8%)"  />
		<path id="" d="M-190 400c0 0 296-16 396-8c147 11.8 321-36.2 348-44c56-16 124-4 124-4c0 0-76 8-212 52c-136 44-648 64-648 64L-190 400Z" fill="rgb(49.8%,34.5%,23.9%)"  />
		<path id="" d="M1190 340c68-20 120-36 172-36c52 0 92-10 92-10c0 0-208 50-260 62c-52 12-89.1 26.9-89.1 26.9c0 0 76.2-40.3 85.1-42.9Z" fill="rgb(49.8%,34.5%,23.9%)"  />
	</g>
</g>
</svg>
