<?xml version="1.0" encoding="iso-8859-1"?>
<!-- Generator: Adobe Illustrator 16.0.0, SVG Export Plug-In . SVG Version: 6.00 Build 0)  -->
<!DOCTYPE svg PUBLIC "-//W3C//DTD SVG 1.1//EN" "http://www.w3.org/Graphics/SVG/1.1/DTD/svg11.dtd">
<svg version="1.1" id="Layer_1" xmlns="http://www.w3.org/2000/svg" xmlns:xlink="http://www.w3.org/1999/xlink" x="0px" y="0px"
	 width="716.512px" height="92px" viewBox="0 0 716.512 92" style="enable-background:new 0 0 716.512 92;" xml:space="preserve">
<path style="fill:#F9F5E5;" d="M715,61c-4-3-4.927-8.686-10-14c-2.483-2.602,10-4,5-10v-8c0.354-1.673-1.794-7.081-2-7l-1-2
	c0.214-0.479,0.534-2.976,1-4c1.255-2.761-4.592-2.947-6-4.649V3h-80.562L595,0l-72,3H421.75L412,2l-18,1L281,2l-7.667,1H128l-16-1
	L89,1L66,3H15.633c-0.754-0.16-1.638-0.18-2.722-0.008C12.897,2.994,12.886,2.998,12.872,3h-0.95h-1.168
	C9.99,2.84,9.097,2.82,8,2.992C7.986,2.994,7.975,2.998,7.96,3H7v0.189C2.003,4.37,6,11,6,11s-5,6.629-2,17
	c3,10.37-4,24.017-4,24.017s1,8.485,2,13.199s1-2.828,1,4.714c0,3.893,1.336,5.021,4,5.202V87l5.452,0.022L84,90l30.765-2.563
	l79.182,0.32L208,91l11,1l23.47-4.047L254,88l21,2l6.272-2.091L282,88l23.5-1h91.738l83.766,1.228L528,90l11.022-0.922L602,90
	l19.8-3h77.362H702c0,0,4.079,0,7.051,0c1.439,0,2.623,0,2.949,0c3.465,0-2-13.229-4-17C706,66.229,721.243,65.683,715,61z"/>
</svg>
