<?xml version="1.0" standalone="no"?>
<!DOCTYPE svg PUBLIC "-//W3C//DTD SVG 1.0//EN" "http://www.w3.org/TR/2001/REC-SVG-20010904/DTD/svg10.dtd">
<svg xmlns="http://www.w3.org/2000/svg" xmlns:xlink="http://www.w3.org/1999/xlink" width="608px" height="701px" viewBox = "0 0 608 701">
<g transform="translate(0,701) scale(1,-1)">
	<g id="tail" >
		<g id="tail1" visibility="hidden" >
			<path id="" d="M548.9 296.1c-10.2 2.52-19.5 1.82-29.3 2c-5.33-25.3-11.3-42-17.6-58.9c9.26-3.48 19.1-8.11 26.9-14.2c10.7 23.8 16 44 20 71.1Z" fill="rgb(0%,0%,0%)"  />
			<path id="" d="M466.9 193.2c-12.1-6.77-27.2-10.4-45.5-11c2.21-10.3 1.71-19.3-0.84-28.9c25.4 0.678 46.9 6.34 64.1 16.9c-2.86 9.31-9.28 17.2-17.8 23Z" fill="rgb(0%,0%,0%)"  />
			<path id="" d="M502 239.2c-3.92-13.2-10.7-24.6-19-33.6c-4.61-4.95-9.95-9.06-16-12.5c8.48-5.78 14.9-13.7 17.8-23c7.19 4.41 13.6 9.65 19.3 15.8c10.4 11.1 19.7 24.4 24.8 39.1c-7.81 6.05-17.6 10.7-26.9 14.2Z" fill="rgb(100%,49.8%,0%)"  />
			<path id="" d="M527.3 530.3c2.09 18 9.71 30.9 16.9 39.4c-6.68 7.03-15.4 12.5-24.5 15.6c-1.98-2.5-3.96-5.21-5.88-8.2c-7.93-12.3-15.6-30.4-16-54.3c9.44 3.61 20.4 7.31 29.4 7.57Z" fill="rgb(100%,49.8%,0%)"  />
			<path id="" d="M544.2 569.7c7.11 8.28 13.8 12.3 14.6 12.8c6.9 3.9 9.37 12.6 5.49 19.6c-3.88 6.97-12.7 9.45-19.6 5.56c-1.52-0.845-13.4-7.8-25-22.4c9.08-3.09 17.8-8.55 24.5-15.6Z" fill="rgb(0%,0%,0%)"  />
			<path id="" d="M532.1 480c-9.7 1.78-22.5-1.88-27.1-5.88c3.68-22.6 5.53-35 8.59-60.7c9.42 2.6 18.9 3.83 28.7 3.16c-2.86 24.1-5.27 43.2-10.1 63.4Z" fill="rgb(100%,49.8%,0%)"  />
			<path id="" d="M549.4 355.2c-9.07 2.37-19.4 2.37-29.1 0.748c2.02-19.2 2.6-40.5-1.41-57.8c9.79-0.184 19.8 0.23 30-2.29c3.33 27.6 2.58 39.3 0.537 59.3Z" fill="rgb(100%,49.8%,0%)"  />
			<path id="" d="M544.4 398.1c-0.782 6.26-1.54 12.5-2.27 18.5c-9.79 0.669-19.3-0.561-28.7-3.16c0.724-6.17 1.51-12.5 2.32-18.9c1.54-12.4 3.14-25.4 4.51-38.6c9.7 1.62 20.1 1.62 29.1-0.748c-1.49 14.4-3.25 28.9-5 42.9Z" fill="rgb(0%,0%,0%)"  />
			<path id="" d="M527.3 530.3c-5.75 2.5-17.1 3.84-29.4-7.57c1.02-18.9 5.7-40.1 7.02-48.6c5.33 4.67 17.4 7.66 27.1 5.88c0.289 5.5-6.06 38.7-4.74 50.3Z" fill="rgb(0%,0%,0%)"  />
		</g>
		<g id="tail0" >
			<path id="" d="M516.6 292.5c-10.2 2.52-19.2 2.45-29 2.64c0.08-21.5-1.79-41.9-6.94-59.3c9.26-3.48 18.1-8.11 25.9-14.2c7.33 21.2 10 45.3 10 70.8Z" fill="rgb(0%,0%,0%)"  />
			<path id="" d="M446.6 189.8c-12.1-6.77-27.2-10.4-45.5-11c2.21-10.3 1.71-19.3-0.84-28.9c25.4 0.678 46.9 6.34 64.1 16.9c-2.86 9.31-9.29 17.2-17.8 23Z" fill="rgb(0%,0%,0%)"  />
			<path id="" d="M480.7 235.8c-3.92-13.2-9.7-24.6-18-33.6c-4.61-4.95-9.95-9.06-16-12.5c8.48-5.78 14.9-13.7 17.8-23c7.19 4.41 13.6 9.65 19.3 15.8c10.4 11.1 17.7 24.4 22.8 39.1c-7.81 6.05-16.6 10.7-25.9 14.2Z" fill="rgb(100%,49.8%,0%)"  />
			<path id="" d="M503.7 491.3c3.89 16.2 9.95 28.5 16.9 37.9c-7.93 4.3-19.3 6.6-29.3 8.23c-6.42-10.6-11.9-23.6-15.7-39.4c-1.44-6.04-2.28-12.8-2.67-20.1c9.49 1.46 19.1 0.444 28.8-1.33c0.289 5.5 0.89 10.5 1.9 14.7Z" fill="rgb(0%,0%,0%)"  />
			<path id="" d="M520.6 529.2c10.9 14.5 23.9 21.9 34.4 25.5c-2.25 9.43-7.04 18.5-13.3 25.7c-2.97-1.17-6.03-2.52-9.2-4.14c-13-6.68-28.8-18.5-41.1-38.9c9.98-1.62 21.3-3.92 29.3-8.22Z" fill="rgb(100%,49.8%,0%)"  />
			<path id="" d="M555 554.7c10.3 3.59 18.1 3.72 19.1 3.71c7.93-0.086 14.4 6.23 14.6 14.2c0.136 7.97-6.21 14.5-14.2 14.7c-1.74 0.033-15.5-0.006-32.8-6.82c6.3-7.24 11.1-16.3 13.3-25.8Z" fill="rgb(0%,0%,0%)"  />
			<path id="" d="M501.8 476.6c-9.7 1.78-19.3 2.79-28.8 1.33c-0.996-19.1 1.21-42.2 4.27-67.9c9.42 2.6 18.9 3.83 28.7 3.16c-2.86 24.1-5.01 46.4-4.12 63.4Z" fill="rgb(100%,49.8%,0%)"  />
			<path id="" d="M513.2 351.8c-9.07 2.37-19.4 2.37-29.1 0.748c2.02-19.2 3.52-38.7 3.57-57.4c9.79-0.184 18.8-0.116 29-2.64c0.058 19.3-1.42 39.4-3.46 59.3Z" fill="rgb(100%,49.8%,0%)"  />
			<path id="" d="M508.2 394.7c-0.783 6.26-1.54 12.5-2.27 18.5c-9.79 0.669-19.3-0.561-28.7-3.16c0.724-6.17 1.51-12.5 2.32-18.9c1.54-12.4 3.14-25.4 4.51-38.6c9.7 1.62 20.1 1.62 29.1-0.748c-1.49 14.4-3.25 28.9-5 42.9Z" fill="rgb(0%,0%,0%)"  />
		</g>
	</g>
	<g id="body" >
		<g id="body" >
			<path id="" d="M437.2 154.9c23.8-5.58 118-30.1 71.6-82.5c-12.7-14.4-42-1.39-71.1 2.53c-3.55 0.34-7.1 0.714-10.6 1.12L427.1 76.09c-14.7 1.68-28.7 3.74-40.2 4.26c-12.9 0.802-26.1 0.78-39.4 0.583c19.5 44 51.5 68 89.7 74Z" fill="rgb(100%,90.6%,75.3%)"  />
			<path id="" d="M463 252c-1.14 4.87-2.69 9.69-4.57 14.4c-2.92 7.31-6.61 14.5-10.7 21.3c-3.36 5.05-6.64 9.59-9.82 13.8c-1.82 2.43-3.62 4.75-5.41 7.01c-12.7 16.1-24.2 28.8-35.6 50.5c-17.4 30.1-18.2 92.3-24.5 126L197.7 402.4L310.6 81.04c12.5 0 25.3 0.385 38.2 0.583c19.5 44 51.5 68 89.7 74c-0.604 0.153-1.19 0.274-1.7 0.407c1.45 11.5 13.2 32.3 19.4 45c1.31 2.66 2.64 5.67 4.01 9.24c0.396 0.956 0.703 1.91 1.03 2.86c4.73 13.1 4.75 26.2 1.83 38.9Z" fill="rgb(100%,49.8%,0%)"  />
			<path id="" d="M137.8 154.9c-23.8-5.58-118-30.1-71.6-82.5c12.7-14.4 42-1.39 71.1 2.53c3.56 0.34 7.1 0.714 10.6 1.12L148 76.09c14.7 1.68 28.7 3.74 40.2 4.26c12.9 0.802 26.1 0.78 39.4 0.583c-19.5 44-51.5 68-89.7 74Z" fill="rgb(100%,90.6%,75.3%)"  />
			<path id="" d="M203 484.7c-6.32-33.2-7.1-95.5-24.5-126c-11.4-21.7-22.9-34.4-35.6-50.5c-1.78-2.26-3.58-4.58-5.41-7.01c-3.19-4.24-6.46-8.78-9.82-13.8c-4.13-6.86-7.8-14-10.7-21.3c-1.89-4.75-3.44-9.57-4.56-14.4c-2.94-12.7-2.92-25.8 1.78-38.9c0.353-0.945 0.66-1.9 1.06-2.86c1.38-3.57 2.72-6.58 4-9.24c6.15-12.7 17.9-33.5 19.4-45c-0.496-0.133-1.08-0.254-1.69-0.407c38.1-5.94 70.2-29.9 89.7-74c12.9-0.198 25.7-0.583 38.2-0.583L203 484.7Z" fill="rgb(100%,49.8%,0%)"  />
			<path id="" d="M369.3 248c0-103-36.6-174-81.7-174c-45.1 0-96.1 72.2-81.7 174c15.4 110 28.8 224 73.9 224c45.1 0 89.5-121 89.5-224Z" fill="rgb(100%,90.6%,75.3%)"  />
			<path id="" d="M255.8 118.4c-22.6 84-35.6 201-24.2 284c0 0-40.7-20.7-47-33.6c-1.64-3.37-13.4-70.1-14.9-93.8c-2.31-34.9 7.02-55.8 2.31-100c-1.96-18.4-5.75-52.5-9.55-65.9c-3.1-7.75-7.69-19.8-10.3-32.1c26.9 44.6 88.4 51.7 120 11.4c-5.75 9.32-13.3 18-16.6 30.2Z" fill="rgb(100%,56.5%,13.3%)"  />
			<path id="" d="M269.9 93.17c-31.3 39.6-91.8 32.6-118-11.2c-2.66-12.6-3.2-25.6 2.36-34.3c4.46-7.12 17-12.5 27.9-12.7c10.8-13.9 33.2-15 48.1-6.58c16.4-2.49 38.9 10.1 45.7 30.7c3.91 14.9-0.044 24.8-5.79 34.1Z" fill="rgb(100%,94.9%,82.4%)"  />
			<path id="" d="M181.4 34.79c0 0-0.125 0.19-0.341 0.593c-0.229 0.398-0.528 0.985-0.903 1.74c-0.364 0.755-0.793 1.68-1.21 2.78c-0.423 1.09-0.901 2.33-1.3 3.73c-0.466 1.38-0.776 2.92-1.2 4.55c-0.166 0.818-0.306 1.67-0.453 2.54c-0.074 0.437-0.148 0.877-0.224 1.32c-0.049 0.448-0.098 0.9-0.147 1.36c-0.093 0.919-0.188 1.85-0.284 2.8c-0.071 0.949-0.047 1.91-0.067 2.88c-0.082 1.95 0.111 3.92 0.236 5.91c0.018 1.01 0.198 1.98 0.295 2.98c0.104 0.999 0.208 1.99 0.311 2.98c0.264 1.97 0.716 3.88 1.27 5.69c0.634 1.78 1.54 3.38 2.42 4.86c0.218 0.373 0.434 0.739 0.664 1.09c0.255 0.336 0.506 0.667 0.754 0.992c0.521 0.635 1 1.25 1.51 1.82c1 1.14 1.9 2.17 2.92 2.92c0.969 0.786 1.87 1.42 2.62 1.91c0.764 0.489 1.38 0.851 1.82 1.08c0.433 0.232 0.681 0.34 0.681 0.34c0.293 0.128 0.634-0.00601 0.762-0.3c0.035-0.08 0.051-0.164 0.048-0.246L191.6 91.05c0 0-0.009-0.279-0.057-0.774c-0.042-0.499-0.134-1.2-0.267-2.07c-0.143-0.861-0.338-1.88-0.62-2.98c-0.324-1.08-0.495-2.38-0.854-3.68c-0.154-0.663-0.363-1.32-0.556-2.01c-0.11-0.336-0.222-0.678-0.336-1.02c-0.076-0.361-0.17-0.721-0.268-1.08c-0.343-1.46-0.887-2.91-1.46-4.4c-0.264-0.752-0.567-1.51-0.912-2.26c-0.327-0.759-0.783-1.5-1.08-2.29c-0.319-0.794-0.639-1.6-0.961-2.4c-0.333-0.807-0.618-1.63-0.819-2.48c-0.414-1.69-0.915-3.38-1.15-5.09c-0.148-0.855-0.296-1.7-0.441-2.55c-0.102-0.85-0.203-1.69-0.301-2.51c-0.048-0.415-0.096-0.828-0.143-1.24c-0.021-0.409-0.042-0.814-0.063-1.22c-0.045-0.809-0.09-1.6-0.134-2.37c0.014-1.54-0.062-3.02 0.049-4.37c0.035-0.683 0.068-1.34 0.099-1.96c0.058-0.621 0.113-1.21 0.164-1.76c0.114-1.11 0.262-2.07 0.373-2.87c0.131-0.795 0.24-1.42 0.333-1.83c0.081-0.416 0.147-0.65 0.148-0.65c0.076-0.267-0.079-0.545-0.346-0.621c-0.217-0.062-0.441 0.029-0.559 0.208L181.4 34.79Z" fill="rgb(93.7%,82%,55.7%)"  />
			<path id="" d="M228.5 29.85c0 0 0.049 0.236 0.14 0.68c0.09 0.434 0.199 1.09 0.333 1.91c0.119 0.833 0.271 1.84 0.415 2.99c0.139 1.16 0.275 2.46 0.384 3.89c0.15 1.41 0.19 2.96 0.274 4.58c0.017 1.63 0.095 3.33 0.052 5.09c-0.054 1.76-0.087 3.57-0.223 5.4c-0.061 0.914-0.1 1.83-0.177 2.75c-0.106 0.916-0.213 1.84-0.319 2.76c-0.166 1.84-0.625 3.65-1.03 5.41c-0.1 0.44-0.198 0.879-0.296 1.32c-0.12 0.432-0.239 0.86-0.357 1.29c-0.218 0.854-0.396 1.7-0.536 2.54c-0.059 0.42-0.128 0.835-0.167 1.25c-0.08 0.408-0.14 0.816-0.196 1.22c-0.114 0.81-0.182 1.61-0.235 2.4c-0.104 1.59-0.203 3.1-0.294 4.49c-0.093 1.4-0.016 2.76-0.059 3.94c-0.041 1.18-0.015 2.25 0.03 3.15c0.055 0.904 0.116 1.63 0.183 2.14c0.06 0.506 0.112 0.787 0.112 0.787L226.6 89.86c0.059 0.312 0.358 0.518 0.671 0.461c0.092-0.018 0.177-0.057 0.246-0.11c0 0 0.221-0.17 0.597-0.511c0.382-0.336 0.906-0.85 1.55-1.53c0.634-0.681 1.38-1.53 2.15-2.55c0.79-1.02 1.48-2.25 2.23-3.61c0.383-0.68 0.728-1.41 1.11-2.15c0.357-0.756 0.641-1.56 0.933-2.39c0.295-0.831 0.585-1.69 0.836-2.58c0.126-0.445 0.251-0.896 0.357-1.36c0.088-0.462 0.148-0.934 0.22-1.41c0.218-1.9 0.399-3.89 0.244-5.91c-0.126-2.02-0.134-4.05-0.309-6.07c-0.061-1.01-0.122-2.01-0.183-3.02c-0.091-0.999-0.221-1.99-0.329-2.98c-0.17-1.97-0.58-3.88-0.917-5.72c-0.152-0.922-0.394-1.82-0.591-2.69c-0.211-0.876-0.39-1.73-0.632-2.56c-0.489-1.65-0.91-3.2-1.41-4.6c-0.453-1.41-0.968-2.68-1.41-3.8c-0.445-1.12-0.874-2.08-1.24-2.86c-0.375-0.779-0.672-1.39-0.895-1.8c-0.217-0.405-0.333-0.621-0.333-0.621c-0.132-0.246-0.437-0.338-0.682-0.207c-0.202 0.107-0.3 0.333-0.256 0.545L228.5 29.85Z" fill="rgb(93.7%,82%,55.7%)"  />
			<path id="" d="M412.9 108.9c-3.8 13.5-6.26 28.4-7.87 44L406.5 150.2L406 156.1c-0.582 6.04-0.999 11.7-1.31 17.3L404.6 174L404.1 174.4c-0.242 0.144-0.505 0.275-0.747 0.418c-0.572 11.5-0.791 23.2-0.747 34.9L403.7 208.3L403.8 211.8c0.022 4.55 0.088 9.09 0.175 13.6L404 226.2L403.4 226.5c-0.197 0.121-0.417 0.209-0.615 0.33c0.22 11.2 0.593 22.3 1.03 33.2L405 258.8L405.1 261.8c0.176 4.42 0.374 8.8 0.55 13.1L405.7 275.7L404.5 276.3c0.165 3.84-11.2 94.4-12.9 97.7c-6.51 12.7-47.8 31.1-47.8 31.1c11.3-83.3-1.57-203-24.2-287c-3.3-12.3-10.8-20.9-16.6-30.2c31.8 40.3 93.3 33.2 120-11.4c-2.61 12.3-7.21 24.4-10.3 32.1Z" fill="rgb(100%,56.5%,13.3%)"  />
			<path id="" d="M307 94.5c31.3 39.6 99.5 36.4 118-11.2c4.74-12 3.2-25.6-2.36-34.3c-4.45-7.12-17-12.5-27.9-12.7c-10.8-13.9-33.2-15-48.1-6.58c-16.4-2.48-38.9 10.1-45.7 30.7c-3.91 14.9 0.044 24.8 5.79 34.1Z" fill="rgb(100%,94.9%,82.4%)"  />
			<path id="" d="M394.3 35.17c0 0 0.067 0.234 0.148 0.65c0.094 0.412 0.202 1.04 0.333 1.83c0.111 0.8 0.259 1.76 0.373 2.87c0.051 0.553 0.105 1.14 0.163 1.76c0.032 0.622 0.065 1.27 0.1 1.96c0.111 1.35 0.035 2.83 0.049 4.37c-0.043 0.77-0.088 1.56-0.134 2.37c-0.021 0.402-0.042 0.808-0.063 1.22c-0.047 0.408-0.095 0.821-0.143 1.24c-0.099 0.826-0.199 1.66-0.301 2.51c-0.146 0.84-0.292 1.69-0.441 2.55c-0.232 1.71-0.732 3.41-1.15 5.09c-0.201 0.845-0.486 1.67-0.818 2.48c-0.322 0.803-0.643 1.6-0.962 2.4c-0.3 0.792-0.756 1.53-1.08 2.29c-0.345 0.754-0.648 1.51-0.913 2.26c-0.574 1.49-1.12 2.94-1.46 4.4c-0.098 0.361-0.192 0.721-0.269 1.08c-0.113 0.348-0.225 0.689-0.335 1.02c-0.193 0.689-0.402 1.35-0.556 2.01c-0.359 1.3-0.529 2.6-0.854 3.68c-0.281 1.1-0.477 2.12-0.619 2.98c-0.133 0.867-0.226 1.57-0.267 2.07c-0.048 0.495-0.057 0.774-0.057 0.774L385 91.09c-0.01 0.32 0.241 0.587 0.561 0.597c0.087 0.00299 0.174-0.015 0.249-0.048c0 0 0.248-0.107 0.681-0.34c0.44-0.229 1.05-0.59 1.82-1.08c0.756-0.495 1.65-1.13 2.62-1.91c1.02-0.755 1.92-1.79 2.92-2.92c0.508-0.564 0.989-1.18 1.51-1.82c0.247-0.325 0.499-0.656 0.754-0.992c0.23-0.351 0.446-0.717 0.664-1.09c0.88-1.48 1.79-3.09 2.42-4.86c0.556-1.81 1.01-3.72 1.27-5.69c0.103-0.987 0.207-1.98 0.312-2.98c0.096-0.995 0.276-1.97 0.294-2.98c0.125-1.99 0.318-3.96 0.236-5.91c-0.021-0.974 0.00299-1.93-0.068-2.88c-0.096-0.945-0.191-1.88-0.284-2.8c-0.05-0.455-0.099-0.907-0.147-1.36c-0.075-0.444-0.15-0.885-0.224-1.32c-0.148-0.87-0.288-1.72-0.453-2.54c-0.42-1.63-0.73-3.17-1.2-4.55c-0.4-1.39-0.878-2.63-1.3-3.73c-0.42-1.09-0.85-2.02-1.21-2.78c-0.375-0.753-0.673-1.34-0.903-1.74c-0.217-0.402-0.341-0.594-0.341-0.594L395.2 34.76c-0.151-0.232-0.463-0.299-0.696-0.146c-0.189 0.122-0.267 0.352-0.209 0.557Z" fill="rgb(93.7%,82%,55.7%)"  />
			<path id="" d="M347.1 29.5c0 0-0.116 0.216-0.333 0.621c-0.222 0.416-0.52 1.02-0.894 1.8c-0.37 0.781-0.799 1.74-1.24 2.86c-0.439 1.12-0.954 2.39-1.41 3.8c-0.502 1.4-0.922 2.96-1.41 4.6c-0.243 0.824-0.421 1.68-0.633 2.56c-0.197 0.878-0.439 1.77-0.591 2.7c-0.336 1.84-0.746 3.75-0.917 5.72c-0.108 0.982-0.238 1.98-0.329 2.98c-0.061 1-0.122 2.01-0.183 3.02c-0.175 2.02-0.184 4.05-0.31 6.07c-0.155 2.02 0.026 4 0.244 5.91c0.071 0.475 0.13 0.946 0.22 1.41c0.105 0.459 0.231 0.91 0.357 1.36c0.251 0.892 0.54 1.75 0.835 2.58c0.292 0.832 0.576 1.64 0.934 2.39c0.381 0.748 0.727 1.48 1.11 2.15c0.752 1.36 1.44 2.59 2.23 3.61c0.78 1.02 1.52 1.87 2.15 2.55c0.644 0.676 1.17 1.19 1.55 1.52c0.375 0.341 0.596 0.511 0.596 0.511c0.251 0.194 0.613 0.147 0.806-0.104c0.058-0.074 0.094-0.158 0.11-0.244L350 89.83c0 0 0.052-0.281 0.112-0.787c0.067-0.51 0.128-1.24 0.183-2.14c0.045-0.899 0.071-1.97 0.03-3.15c-0.043-1.18 0.034-2.54-0.06-3.94c-0.091-1.39-0.189-2.89-0.293-4.48c-0.052-0.788-0.12-1.59-0.235-2.4c-0.056-0.404-0.116-0.812-0.195-1.22c-0.039-0.417-0.108-0.832-0.167-1.25c-0.14-0.836-0.318-1.68-0.536-2.54c-0.118-0.427-0.237-0.855-0.357-1.29c-0.099-0.437-0.197-0.875-0.296-1.32c-0.408-1.76-0.867-3.57-1.03-5.41c-0.106-0.92-0.213-1.84-0.319-2.76c-0.077-0.92-0.116-1.84-0.177-2.75c-0.135-1.83-0.168-3.64-0.223-5.4c-0.043-1.76 0.036-3.46 0.052-5.09c0.084-1.62 0.124-3.17 0.275-4.58c0.109-1.42 0.244-2.73 0.384-3.89c0.144-1.15 0.295-2.16 0.415-2.99c0.133-0.828 0.243-1.48 0.333-1.91c0.091-0.443 0.14-0.68 0.14-0.68L348.1 29.84c0.056-0.273-0.119-0.539-0.392-0.596c-0.221-0.049-0.44 0.062-0.543 0.254Z" fill="rgb(93.7%,82%,55.7%)"  />
		</g>
	</g>
	<g id="head" >
		<g id="earright" >
			<g id="rightear" >
				<path id="" d="M131.4 557.4c-35.9 17.2-41.2 95.7-28.8 114c6.67 9.83 71.2 7.19 96.6-21.4c17.7-19.9 28-85.1 36.1-81.2c18.1-39.9-114-26.9-104-11.4Z" fill="rgb(100%,56.5%,13.3%)"  />
				<path id="" d="M161.4 558c-35.9 17.2-49.2 85.6-42.1 96.1c4.88 7.15 68.4-10.3 61.5-40.7c-5.71-25.2-29.7-70.8-19.4-55.3Z" fill="rgb(100%,94.9%,82.4%)"  />
				<path id="" d="M146.9 675.4c-2.32 0.832-20.6-1.1-37.1-12.8c-8-5.69-12.3-38-12.3-38c0 0-9.13 39.3 5.2 48.7c12.3 8.05 44.2 2.16 44.2 2.16Z" fill="rgb(0%,0%,0%)"  />
			</g>
			<path id="anchor" d="M192.1 577.6c2.17 2.17 2.17 5.69 0 7.86c-2.17 2.17-5.69 2.17-7.86 0c-2.17-2.17-2.17-5.69 0-7.86c2.17-2.17 5.69-2.17 7.86 0" stroke="none" fill="rgb(100%,0%,0%)"  />
			<path id="posspot" d="M112.7 659c2.12 2.12 2.12 5.55 0 7.67c-2.12 2.12-5.55 2.12-7.67 0c-2.12-2.12-2.12-5.55 0-7.67c2.12-2.12 5.55-2.12 7.67 0" stroke="none" fill="rgb(100%,0%,0%)" visibility="hidden"  />
		</g>
		<g id="earleft" >
			<g id="leftear" >
				<path id="" d="M429.1 557.6c35.9 17.2 41.2 95.7 28.8 114c-6.67 9.83-71.2 7.19-96.6-21.4c-17.6-19.9-28-85.1-36.1-81.2c-18.1-39.9 114-26.9 104-11.4Z" fill="rgb(100%,56.5%,13.3%)"  />
				<path id="" d="M399.1 558.3c35.9 17.2 49.2 85.6 42.1 96.1c-4.88 7.15-68.4-10.3-61.5-40.7c5.71-25.1 29.7-70.8 19.4-55.3Z" fill="rgb(100%,94.9%,82.4%)"  />
				<path id="" d="M413.6 675.6c2.32 0.832 20.6-1.1 37.1-12.8c8-5.69 12.3-38 12.3-38c0 0 9.13 39.3-5.21 48.7c-12.3 8.05-44.2 2.16-44.2 2.16Z" fill="rgb(0%,0%,0%)"  />
			</g>
			<path id="anchor" d="M371.7 578.3c2.17 2.17 2.17 5.69 0 7.86c-2.17 2.17-5.69 2.17-7.86 0c-2.17-2.17-2.17-5.69 0-7.86c2.17-2.17 5.69-2.17 7.86 0" stroke="none" fill="rgb(100%,0%,0%)"  />
		</g>
		<path id="anchor" d="M276.4 384.9c2.35 2.35 2.35 6.15 0 8.5c-2.35 2.35-6.15 2.35-8.5 0c-2.35-2.35-2.35-6.15 0-8.5c2.35-2.35 6.15-2.35 8.5 0" stroke="none" fill="rgb(100%,0%,0%)"  />
		<g id="headmain" >
			<path id="" d="M458.3 468.5c-1.99 22.5-19.3 48.8-26.4 86.1c-19.8 104-151 107-157 107c-6.3-0.068-137-2.73-157-107c-7.12-37.3-24.4-63.6-26.4-86.1c-6.08-68.7 47.5-96.9 104-109c2.09-17.7 36.8-31.8 79.4-31.8c42.5 0 77.3 14.1 79.4 31.8c56.7 12 110 40.1 104 109Z" fill="rgb(100%,56.5%,13.3%)"  />
			<path id="" d="M460.9 468.5c-1.07 12.1-42.8-24.1-86.3-5.32c-35.6 15.3-77.2 2.34-94.6 2.52c-0.37-0.004-1.7-0.178-3.81-0.473c-2.12 0.295-3.44 0.469-3.81 0.473c-17.4-0.186-59 12.8-94.6-2.52c-43.5-18.7-85.6 17.4-86.6 5.32c-6.08-68.7 47.2-97.2 104-109c2.09-17.7 37.4-32.4 80-32.4c0.424 0 0.843 0.011 1.26 0.014c0.422-0.00299 0.84-0.014 1.26-0.014c42.5 0 77.9 14.7 80 32.4c56.7 12 110 40.4 104 109Z" fill="rgb(100%,94.9%,82.4%)"  />
			<path id="" d="M307.9 475.7c0 14.8-18.4 8.29-33 8.29c-14.2 0-33 5.99-33-8.51c0-12.3 19.3-28.5 33.3-28.5c19.6 0 32.8 20.9 32.8 28.7Z" fill="rgb(0%,0%,0%)"  />
			<path id="" d="M200.2 622.2c-0.002 0 65.4-9.46 64.2 5.22c-1.18 14.3-64.2-5.22-64.2-5.22Z" fill="rgb(0%,0%,0%)"  />
			<path id="" d="M352.7 623.4c0 0-65.6-10.7-64.1 4.02c1.48 14.4 64.1-4.02 64.1-4.02Z" fill="rgb(0%,0%,0%)"  />
			<path id="" d="M218.3 600.8c0 0 50-8.66 48.9 3.97c-1.01 12.3-48.9-3.97-48.9-3.97Z" fill="rgb(0%,0%,0%)"  />
			<path id="" d="M332.2 600.8c0 0-50-8.66-48.9 3.97c1.01 12.3 48.9-3.97 48.9-3.97Z" fill="rgb(0%,0%,0%)"  />
			<path id="" d="M96.06 481.6c5.11 3.58 14.4-2.2 24.6-3.02c15.4-1.25 32.7 0.789 40 0.19c13.6-1.12-38-18.5-68.8-18.5c0 0-0.372 18.1 4.22 21.3Z" fill="rgb(0%,0%,0%)"  />
			<path id="" d="M107.7 513.9c4.35 2.49 11.4-2.82 19.5-4.23c12.2-2.14 26.2-1.78 32-2.8c10.8-1.9-33.6-12-58.2-9.72c0 0 2.81 14.5 6.72 16.8Z" fill="rgb(0%,0%,0%)"  />
			<path id="" d="M118.7 543.7c3.83 1.52 9.83-3.61 16.2-5.68c9.71-3.15 21.1-4.48 25.7-5.97c9.43-3.07-26.4-6.28-47-1.39c-0.00101 0.002 1.63 11.7 5.06 13Z" fill="rgb(0%,0%,0%)"  />
			<path id="" d="M456.3 481.6c-5.11 3.58-14.5-2.2-24.6-3.02c-15.4-1.25-32.7 0.789-40 0.19c-13.6-1.12 38-18.5 68.8-18.5c0 0 0.372 18.1-4.22 21.3Z" fill="rgb(0%,0%,0%)"  />
			<path id="" d="M444.7 513.9c-4.36 2.49-11.4-2.82-19.5-4.23c-12.2-2.14-26.2-1.78-32-2.8c-10.8-1.9 33.6-12 58.2-9.72c0.000977 0-2.82 14.5-6.72 16.8Z" fill="rgb(0%,0%,0%)"  />
			<path id="" d="M433.7 543.7c-3.83 1.52-9.83-3.61-16.2-5.68c-9.71-3.15-21.1-4.48-25.7-5.97c-9.43-3.07 26.4-6.28 47-1.39c0.000977 0.002-1.63 11.7-5.06 13Z" fill="rgb(0%,0%,0%)"  />
			<path id="" d="M291.4 645c8.16 8.16 45 5.82 45 5.82c0 0-26.8 10.5-61.6 10.5c-32.2 0-61.6-10.5-61.6-10.5c0 0 36.9 2.34 45-5.82c3.31-3.31 9.61-12.4 16.1-12.5c6.45-0.156 13.1 8.62 17 12.5Z" fill="rgb(0%,0%,0%)"  />
		</g>
		<g id="eyesopen" >
			<path id="" d="M324.3 521.3c0-2.97 2.41-5.39 5.39-5.39c2.97 0 5.38 2.42 5.38 5.39c0 2.97-2.41 5.39-5.38 5.39c-2.98 0-5.39-2.42-5.39-5.39Z" fill="rgb(94.5%,94.5%,94.5%)"  />
			<path id="" d="M343.5 538.7c-4.06 5.73-10.7 9.47-18.3 9.47c-7.56 0-14.2-3.74-18.3-9.47c-2.6-3.67-4.12-8.13-4.12-13c0-12.4 10-22.4 22.4-22.4c12.4 0 22.4 10 22.4 22.4c0 4.83-1.54 9.29-4.13 13ZM325.2 504.7c-7.43 0-13.4 6.03-13.4 13.5c0 7.43 6.01 13.5 13.4 13.5c7.43 0 13.5-6.03 13.5-13.5c0-7.43-6.04-13.5-13.5-13.5Z" fill="rgb(100%,100%,100%)"  />
			<path id="" d="M325.2 504.7c7.43 0 13.5 6.03 13.5 13.5c0 7.43-6.04 13.5-13.5 13.5c-7.43 0-13.4-6.03-13.4-13.5c0-7.43 6.01-13.5 13.4-13.5ZM329.7 526.7c2.97 0 5.38-2.42 5.38-5.39c0-2.97-2.41-5.39-5.38-5.39c-2.98 0-5.39 2.42-5.39 5.39c0 2.97 2.41 5.39 5.39 5.39Z" fill="rgb(0%,0%,0%)"  />
			<path id="" d="M216.1 521.3c0-2.97 2.42-5.39 5.39-5.39c2.97 0 5.39 2.42 5.39 5.39c0 2.97-2.42 5.39-5.39 5.39c-2.97 0-5.39-2.42-5.39-5.39Z" fill="rgb(94.5%,94.5%,94.5%)"  />
			<path id="" d="M235.3 538.7c-4.06 5.73-10.8 9.47-18.3 9.47c-7.57 0-14.3-3.74-18.3-9.47c-2.59-3.67-4.13-8.13-4.13-13c0-12.4 10-22.4 22.4-22.4c12.4 0 22.4 10 22.4 22.4c-0.000999 4.83-1.53 9.29-4.12 13ZM217 504.7c-7.43 0-13.5 6.03-13.5 13.5c0 7.43 6.04 13.5 13.5 13.5c7.43 0 13.5-6.03 13.5-13.5c0-7.43-6.03-13.5-13.5-13.5Z" fill="rgb(100%,100%,100%)"  />
			<path id="" d="M217 504.7c7.43 0 13.5 6.03 13.5 13.5c0 7.43-6.03 13.5-13.5 13.5c-7.43 0-13.5-6.03-13.5-13.5c0-7.43 6.04-13.5 13.5-13.5ZM221.5 526.7c2.97 0 5.39-2.42 5.39-5.39c0-2.97-2.42-5.39-5.39-5.39c-2.97 0-5.39 2.42-5.39 5.39c0 2.97 2.42 5.39 5.39 5.39Z" fill="rgb(0%,0%,0%)"  />
		</g>
		<g id="eyeshalf" visibility="hidden" >
			<path id="" d="M237.9 540.3c-4.21 5.94-11.2 9.82-19 9.82c-7.85 0-14.8-3.88-19-9.82c-2.69-3.8-4.28-8.43-4.28-13.4c0-1.01 0.071-1.99 0.195-2.97c7.53-2.12 16.2-1.25 25.4-1.25c7.31 0 21 2.8 21 4.22c0 5.01-1.58 9.63-4.27 13.4Z" fill="rgb(100%,56.5%,13.3%)"  />
			<path id="" d="M326.4 522.3c0-2.97 2.41-5.39 5.39-5.39c2.97 0 5.38 2.42 5.38 5.39c0 2.97-2.41 5.39-5.38 5.39c-2.98 0-5.39-2.42-5.39-5.39Z" fill="rgb(94.5%,94.5%,94.5%)"  />
			<path id="" d="M345.6 539.7c-4.06 5.73-10.7 9.47-18.3 9.47c-7.56 0-14.2-3.74-18.3-9.47c-2.6-3.67-4.12-8.13-4.12-13c0-12.4 10-22.4 22.4-22.4c12.4 0 22.4 10 22.4 22.4c0 4.83-1.54 9.29-4.13 13ZM327.3 505.7c-7.43 0-13.4 6.03-13.4 13.5c0 7.43 6.01 13.5 13.4 13.5c7.43 0 13.5-6.03 13.5-13.5c0-7.43-6.04-13.5-13.5-13.5Z" fill="rgb(100%,100%,100%)"  />
			<path id="" d="M327.3 505.7c7.43 0 13.5 6.03 13.5 13.5c0 7.43-6.04 13.5-13.5 13.5c-7.43 0-13.4-6.03-13.4-13.5c0-7.43 6.01-13.5 13.4-13.5ZM331.8 527.7c2.97 0 5.38-2.42 5.38-5.39c0-2.97-2.41-5.39-5.38-5.39c-2.98 0-5.39 2.42-5.39 5.39c0 2.97 2.41 5.39 5.39 5.39Z" fill="rgb(0%,0%,0%)"  />
			<path id="" d="M218.2 522.3c0-2.97 2.42-5.39 5.39-5.39c2.97 0 5.39 2.42 5.39 5.39c0 2.97-2.42 5.39-5.39 5.39c-2.97 0-5.39-2.42-5.39-5.39Z" fill="rgb(94.5%,94.5%,94.5%)"  />
			<path id="" d="M237.4 539.7c-4.06 5.73-10.8 9.47-18.3 9.47c-7.57 0-14.3-3.74-18.3-9.47c-2.59-3.67-4.13-8.13-4.13-13c0-12.4 10-22.4 22.4-22.4c12.4 0 22.4 10 22.4 22.4c-0.000999 4.83-1.53 9.29-4.12 13ZM219.1 505.7c-7.43 0-13.5 6.03-13.5 13.5c0 7.43 6.04 13.5 13.5 13.5c7.43 0 13.5-6.03 13.5-13.5c0-7.43-6.03-13.5-13.5-13.5Z" fill="rgb(100%,100%,100%)"  />
			<path id="" d="M219.1 505.7c7.43 0 13.5 6.03 13.5 13.5c0 7.43-6.03 13.5-13.5 13.5c-7.43 0-13.5-6.03-13.5-13.5c0-7.43 6.04-13.5 13.5-13.5ZM223.5 527.7c2.97 0 5.39-2.42 5.39-5.39c0-2.97-2.42-5.39-5.39-5.39c-2.97 0-5.39 2.42-5.39 5.39c0 2.97 2.42 5.39 5.39 5.39Z" fill="rgb(0%,0%,0%)"  />
			<path id="" d="M307.6 538.8c3.74 6.25 10.4 10.7 18.2 11.3c7.82 0.603 15-2.73 19.7-8.34c2.97-3.59 4.92-8.08 5.3-13.1c0.077-1 0.082-1.99 0.033-2.97c-7.34-2.69-16-2.49-25.2-3.19c-7.29-0.562-21.1 1.18-21.2 2.6c-0.385 4.99 0.839 9.73 3.23 13.7Z" fill="rgb(100%,56.5%,13.3%)"  />
			<path id="" d="M351.1 525.7c-4.88-2.18-14.2-2.18-22.2-2.85c-7.29-0.606-24.1 0.838-24.2 2.25" stroke="rgb(0%,0%,0%)" stroke-width="4" stroke-linecap="round" fill="none"  />
			<path id="" d="M239.1 538.8c-3.74 6.25-10.4 10.7-18.2 11.3c-7.83 0.603-15-2.73-19.7-8.34c-2.97-3.59-4.92-8.08-5.3-13.1c-0.077-1-0.082-1.99-0.033-2.97c7.34-2.69 16-2.49 25.2-3.19c7.29-0.562 21.1 1.18 21.2 2.6c0.385 4.99-0.84 9.73-3.23 13.7Z" fill="rgb(100%,56.5%,13.3%)"  />
			<path id="" d="M195.7 525.7c4.88-2.18 14.2-2.18 22.2-2.85c7.29-0.606 24.1 0.838 24.2 2.25" stroke="rgb(0%,0%,0%)" stroke-width="4" stroke-linecap="round" fill="none"  />
		</g>
		<g id="eyesclosed" visibility="hidden" >
			<path id="" d="M195.4 526.3c0-12.8 10.4-23.2 23.2-23.2c12.8 0 23.2 10.4 23.2 23.2" stroke="rgb(0%,0%,0%)" stroke-width="4" stroke-linecap="round" fill="none"  />
			<path id="" d="M303.1 526.3c0-12.8 10.4-23.2 23.2-23.2c12.8 0 23.2 10.4 23.2 23.2" stroke="rgb(0%,0%,0%)" stroke-width="4" stroke-linecap="round" fill="none"  />
		</g>
		<g id="whiskers1" visibility="hidden" >
			<g id="whiskersl1" >
				<path id="" d="M208.9 450.9c0 0-92.6-11-141-5.02" stroke="rgb(0%,0%,0%)" stroke-width="3" stroke-linecap="round" stroke-linejoin="round" fill="none"  />
				<path id="" d="M204 445c0 0-89.7-17.2-134-29.1" stroke="rgb(0%,0%,0%)" stroke-width="3" stroke-linecap="round" stroke-linejoin="round" fill="none"  />
				<path id="" d="M202.6 437.1c0 0-71.8-17-108-57.2" stroke="rgb(0%,0%,0%)" stroke-width="3" stroke-linecap="round" stroke-linejoin="round" fill="none"  />
			</g>
			<g id="whiskersr1" >
				<path id="" d="M348.4 451.5c0 0 92.6-11 141-5.02" stroke="rgb(0%,0%,0%)" stroke-width="3" stroke-linecap="round" stroke-linejoin="round" fill="none"  />
				<path id="" d="M353.3 445.6c0 0 89.7-17.2 134-29.1" stroke="rgb(0%,0%,0%)" stroke-width="3" stroke-linecap="round" stroke-linejoin="round" fill="none"  />
				<path id="" d="M354.7 437.7c0 0 71.8-17 108-57.2" stroke="rgb(0%,0%,0%)" stroke-width="3" stroke-linecap="round" stroke-linejoin="round" fill="none"  />
			</g>
		</g>
		<g id="whiskers0" >
			<g id="whiskersl0" >
				<path id="" d="M210.5 452.1c0 0-91.9 6.86-148-19.8" stroke="rgb(0%,0%,0%)" stroke-width="3" stroke-linecap="round" stroke-linejoin="round" fill="none"  />
				<path id="" d="M205.6 446.2c0 0-91.4-2.54-138-38.9" stroke="rgb(0%,0%,0%)" stroke-width="3" stroke-linecap="round" stroke-linejoin="round" fill="none"  />
				<path id="" d="M204.2 438.3c0 0-78.3-6.56-115-46.8" stroke="rgb(0%,0%,0%)" stroke-width="3" stroke-linecap="round" stroke-linejoin="round" fill="none"  />
			</g>
			<g id="whiskersr0" >
				<path id="" d="M348.2 451c0 0 91.9 6.86 148-19.8" stroke="rgb(0%,0%,0%)" stroke-width="3" stroke-linecap="round" stroke-linejoin="round" fill="none"  />
				<path id="" d="M353.2 445.1c0 0 91.4-2.54 138-38.9" stroke="rgb(0%,0%,0%)" stroke-width="3" stroke-linecap="round" stroke-linejoin="round" fill="none"  />
				<path id="" d="M354.5 437.2c0 0 78.3-6.56 115-46.8" stroke="rgb(0%,0%,0%)" stroke-width="3" stroke-linecap="round" stroke-linejoin="round" fill="none"  />
			</g>
		</g>
		<g id="mouth" >
			<g id="mouth0" >
				<path id="" d="M320.9 430.6c0 0-0.225-14.9-23-14.6c-22.8 0.269-22.6 18.7-22.6 18.7L275.7 452.9L275.3 434.6c0 0-0.21-18.4-23-18.2c-22.8 0.281-22.6 15.2-22.6 15.2" stroke="rgb(0%,0%,0%)" stroke-width="6" stroke-linecap="round" stroke-linejoin="round" fill="none"  />
			</g>
			<g id="mouth1" visibility="hidden" >
				<path id="" d="M320.9 430.6c0 0-0.225-14.9-23-14.6c-22.8 0.269-22.6 18.7-22.6 18.7L275.7 452.9L275.3 434.6c0 0-0.21-18.4-23-18.2c-22.8 0.281-22.6 15.2-22.6 15.2" stroke="rgb(0%,0%,0%)" stroke-width="6" stroke-linecap="round" stroke-linejoin="round" fill="none"  />
				<path id="" d="M261 419c0-9.29 6.64-14.6 14.3-14.6c7.63 0 13.4 5.31 13.4 14.6c0 0-3.71-1.41-7.14 0.443c-3.71 2-7.3 7.44-7.3 7.44c0 0-0.585-6.23-6.98-7.34c-1.55-0.267-6.22-0.549-6.22-0.549Z" fill="rgb(0%,0%,0%)"  />
			</g>
			<g id="mouth2" visibility="hidden" >
				<path id="" d="M310.8 418.1c-3.23-1.37-7.53-2.25-13.2-2.18c-22.8 0.269-22.6 18.7-22.6 18.7L275.4 452.9L275 434.6c0 0-0.21-18.4-23-18.2c-5.29 0.064-9.34 0.916-12.4 2.18" stroke="rgb(0%,0%,0%)" stroke-width="6" stroke-linecap="round" stroke-linejoin="round" fill="none"  />
				<path id="" d="M257.7 417.3c0-20.4 9.64-32 17.3-32c7.63 0 16.4 11.7 16.4 32c0 0-6.71-3.09-10.1 0.973c-3.71 4.39-7.3 16.3-7.3 16.3c0 0-0.585-13.7-6.98-16.1c-1.55-0.589-9.22-1.2-9.22-1.2Z" fill="rgb(0%,0%,0%)"  />
			</g>
			<g id="mouth3" visibility="hidden" >
				<path id="" d="M320.9 430.6c0 0-0.225-14.9-23-14.6c-22.8 0.269-22.6 18.7-22.6 18.7L275.7 452.9L275.3 434.6c0 0-0.21-18.4-23-18.2c-22.8 0.281-22.6 15.2-22.6 15.2" stroke="rgb(0%,0%,0%)" stroke-width="6" stroke-linecap="round" stroke-linejoin="round" fill="none"  />
				<path id="" d="M239.6 419.3c0-10.5 17.1-25.3 36.8-25.3c19.7 0 34.5 14.8 34.5 25.3c0 0-9.57-3.59-18.4-1.5c-9.56 2.26-18.8 10.4-18.8 10.4c0 0-1.51-8.03-18-9.28c-4-0.303-16 0.379-16 0.379Z" fill="rgb(0%,0%,0%)"  />
				<path id="" d="M252.5 408.2c0 0 5.05 3.55 15.3 2.21c6.67-0.874 9.33-2.46 9.33-2.46c0 0 4.07 1.9 10.8 2.46c5.62 0.461 12.3-1.67 12.3-1.67c0 0-6.6-11-23.1-11.2c-16.5-0.165-24.6 10.7-24.6 10.7Z" fill="rgb(96.9%,56.1%,64.3%)"  />
			</g>
			<g id="mouth4" visibility="hidden" >
				<path id="" d="M274.5 452.9L274.1 434.6c0 0-1.01-20.3-23.8-20c-8.78 0.107-15 2.24-20.2 4.4" stroke="rgb(0%,0%,0%)" stroke-width="6" stroke-linecap="round" stroke-linejoin="round" fill="none"  />
				<path id="" d="M319.3 419c-5.53-2.28-5.53-4.28-22.6-4.08c-22.8 0.268-22.6 19.7-22.6 19.7L274.5 452.9" stroke="rgb(0%,0%,0%)" stroke-width="6" stroke-linecap="round" stroke-linejoin="round" fill="none"  />
				<path id="" d="M228 419c0-8.04 23.6-20.3 48-20.3c24.5 0 46.3 13.2 46.3 21.2c0 0-15.3-6.05-26.3-4.44c-11.9 1.73-23.4 11.4-23.4 11.4c0 0-3.91-9.15-24.4-10.1c-4.97-0.232-20.2 2.17-20.2 2.17Z" fill="rgb(0%,0%,0%)"  />
				<path id="" d="M256.3 406.5c0 0 4.82 1.91 19.9 2.36c15 0.445 20.4-2.13 20.4-2.13c0 0-5.57-4.57-19.5-4.64c-13.9-0.069-20.8 4.41-20.8 4.41Z" fill="rgb(96.9%,56.1%,64.3%)"  />
			</g>
			<g id="mouth5" visibility="hidden" >
				<path id="" d="M320.9 430.6c0 0-0.225-14.9-23-14.6c-22.8 0.269-22.6 18.7-22.6 18.7L275.7 452.9L275.3 434.6c0 0-0.21-18.4-23-18.2c-22.8 0.281-22.6 15.2-22.6 15.2" stroke="rgb(0%,0%,0%)" stroke-width="6" stroke-linecap="round" stroke-linejoin="round" fill="none"  />
				<path id="" d="M248.6 419c0-9.29 12.3-22.4 26.5-22.4c14.2 0 24.9 13.1 24.9 22.4c0 0-6.89-1.41-13.3 0.443c-6.89 2-13.6 7.44-13.6 7.44c0 0-1.09-6.23-13-7.34c-2.88-0.267-11.6-0.549-11.6-0.549Z" fill="rgb(0%,0%,0%)"  />
				<path id="" d="M260 409c0 0 3.04 2.38 9.18 1.49c4.01-0.587 5.62-1.65 5.62-1.65c0 0 2.45 1.28 6.49 1.65c3.38 0.312 7.39-1.12 7.39-1.12c0 0-3.97-7.43-13.9-7.54c-9.91-0.111-14.8 7.17-14.8 7.17Z" fill="rgb(96.9%,56.1%,64.3%)"  />
			</g>
			<g id="mouth6" visibility="hidden" >
				<path id="" d="M320.9 430.6c0 0-0.225-14.9-23-14.6c-22.8 0.269-22.6 18.7-22.6 18.7L275.7 452.9L275.3 434.6c0 0-0.21-18.4-23-18.2c-22.8 0.281-22.6 15.2-22.6 15.2" stroke="rgb(0%,0%,0%)" stroke-width="6" stroke-linecap="round" stroke-linejoin="round" fill="none"  />
				<path id="" d="M239.6 415.7c0-14.8 17.1-35.7 36.8-35.7c19.7 0 34.5 20.9 34.5 35.7c0 0-9.57-2.24-18.4 0.707c-9.56 3.19-18.8 11.9-18.8 11.9c0 0-1.51-9.92-18-11.7c-4-0.428-16-0.876-16-0.876Z" fill="rgb(0%,0%,0%)"  />
				<path id="" d="M252.5 400c0 0 5.05 5 15.3 3.12c6.67-1.23 9.33-3.47 9.33-3.47c0 0 4.07 2.69 10.8 3.47c5.62 0.651 12.3-2.35 12.3-2.35c0 0-6.6-15.6-23.1-15.8c-16.5-0.233-24.6 15.1-24.6 15.1Z" fill="rgb(96.9%,56.1%,64.3%)"  />
			</g>
		</g>
	</g>
</g>
</svg>
