<?xml version="1.0" encoding="utf-8"?>
<!-- Generator: Adobe Illustrator 16.0.0, SVG Export Plug-In . SVG Version: 6.00 Build 0)  -->
<!DOCTYPE svg PUBLIC "-//W3C//DTD SVG 1.1//EN" "http://www.w3.org/Graphics/SVG/1.1/DTD/svg11.dtd">
<svg version="1.1" id="Layer_3" xmlns="http://www.w3.org/2000/svg" xmlns:xlink="http://www.w3.org/1999/xlink" x="0px" y="0px"
	 width="218.127px" height="78.203px" viewBox="0 0 218.127 78.203" enable-background="new 0 0 218.127 78.203"
	 xml:space="preserve">
<polygon fill="#DADADA" stroke="#000000" stroke-miterlimit="10" points="0.727,77.144 30.06,0.5 112.777,0.5 108.727,77.144 "/>
<polygon fill="#DADADA" stroke="#000000" stroke-miterlimit="10" points="121.394,0.5 121.394,77.144 217.365,77.144 184.06,0.5 "/>
<path d="M85.873,78.001c0,0,9.771-34.225,18.457-28.599c8.686,5.625,4.343,27.371,4.343,27.371L85.873,78.001z"/>
<path d="M16.83,77.333c1.81-6.258,5.105-12.75,7.459-12.57c2.337,0.179,3.199,3.415,2.468,8.778l-0.354,3.421l2.981,0.371
	c0.587-4.484,1.368-15.125-3.757-18.816c-0.741-0.534-1.547-0.804-2.395-0.804c-5.394,0-9.61,12.521-11.566,19.62H16.83z"/>
<g>
	<path fill="#010202" d="M74.517,67.141c-0.062-0.932-0.159-1.876-0.255-2.79l-0.008-0.08c-0.096-0.915-0.193-1.86-0.256-2.808
		c-0.05-0.739,0.539-1.383,1.308-1.435c0.771-0.051,1.438,0.51,1.486,1.25c0.062,0.935,0.162,1.879,0.257,2.792
		c0.106,1.021,0.202,1.946,0.264,2.885c0.049,0.741-0.539,1.384-1.309,1.436C75.234,68.442,74.566,67.882,74.517,67.141z"/>
</g>
<g>
	<g>
		<path fill="#EEC6AF" stroke="#000000" stroke-miterlimit="10" d="M47.398,40.301c2.256,15.134,16.354,25.575,31.487,23.318
			c21.932-3.27,24.296-24.92,23.319-31.486C99.947,17,85.852,6.559,70.716,8.814C55.583,11.069,45.143,25.168,47.398,40.301z"/>
	</g>
	<g>
		<circle fill="#010202" stroke="#000000" stroke-miterlimit="10" cx="73.549" cy="28.732" r="1.157"/>
	</g>
	<g>
		<circle fill="#010202" stroke="#000000" stroke-miterlimit="10" cx="59.262" cy="29.749" r="1.157"/>
	</g>
	<path fill="#010202" d="M83.818,46.353L83.818,46.353c0.107-0.338-0.021-0.719-0.287-0.85l0,0
		c-0.267-0.129-0.571,0.037-0.681,0.375l0,0c-8.06,16.463-24.437,9.252-27.209,0.862l0,0c-0.117-0.327-0.425-0.469-0.688-0.317l0,0
		c-0.263,0.154-0.38,0.542-0.264,0.873l0,0c2.823,7.833,9.815,10.649,14.748,10.417C77.857,57.313,82.51,50.617,83.818,46.353z"/>
	<g>
		<path fill="#010202" d="M97.769,43.775c-0.823-1.058,0.199-2.221-0.057-3.321c-1.032-0.759-1.338-1.646-0.957-2.896
			c0.084-0.286-1.461-0.695-1.682-0.761c1.054-0.775-1.313-1.778-0.916-2.556c0.292-0.571-0.2-0.727-0.614-1.022
			c-0.548-0.39-0.672-1.496-0.813-2.106c-0.158-0.684-0.249-1.401-0.519-2.054c-0.224-0.543-0.636-0.932-0.962-1.409
			c-0.454-0.663-0.626-1.421-0.634-2.215c-0.003-0.367,0.02-0.734,0.011-1.102c-0.004-0.155-0.163-0.678-0.1-0.805
			c-0.956-0.472-1.436-0.614-0.669-1.632c0.312-0.415,1.48-1.421,1.232-2.024c-1.568,0.674-2.996-0.715-3.576-2.059
			c-0.605,0.146-1.245,0.185-1.859,0.072c-0.536-0.099-1.035-0.524-1.558-0.569l-0.071-0.004c-0.219-0.017-0.592,0.311-0.798,0.387
			c-0.712,0.263-1.501,0.218-2.232,0.065c-2.965-0.621-5.48-2.68-8.207-3.909c-0.29,0.214-0.766-0.093-1.032-0.213
			c-0.748-0.336-1.46-0.389-2.256-0.53c-0.71-0.126-0.547,0.485-1.032,0.828c-0.213,0.15-0.874,0.026-1.149,0.068
			c-0.39,0.058-0.781,0.172-1.12,0.378c0.062,1.09-1.337,0.708-1.938,0.618c-1.371-0.203-2.607-0.182-3.882,0.407
			c-0.912,0.421-1.82,0.853-2.741,1.254c-0.302,0.132-0.577,0.212-0.909,0.109c-0.378-0.117-0.836-0.458-1.079,0.048
			c-0.146,1.016-2.177,0.875-2.335,1.963c0.268,0.5,0.469,1.029,0.125,1.564c-0.23,0.359-0.766,0.3-0.944,0.519
			c-0.652,0.729-1.37,1.406-1.953,2.194c-0.423,0.572-0.689,1.35-1.363,1.671c0.438,1.069,0.274,2.618-1.151,2.735
			c-1.14,0.094-2.159-1.178-2.585-2.097c-0.257-0.554-0.265-1.199-0.404-1.789c-0.13-0.549-0.321-1.09-0.395-1.651
			c-0.149-1.146,0.663-2.366,1.66-2.894c0.335-0.224,0.355-1.176,0.391-1.522c0.072-0.692-0.008-1.277-0.14-1.955
			c-0.3-1.534,1.047-1.741,1.727-2.811c0.778-1.223,0.848-2.972,2.16-3.822c1.274-0.826,2.938-0.535,4.22-1.271
			c0.96-0.977,2.002-3.799,3.765-3.505c0.592-0.75,1.281-1.466,2.206-1.786c0.972-0.336,1.868-0.112,2.83,0.091
			c1.281-0.51,2.024-1.576,3.52-1.63c0.766-0.028,1.515,0.18,2.279,0.163c0.711-0.016,1.383-0.587,2.082-0.751
			c0.829-0.196,1.698-0.175,2.521,0.038c0.276,0.071,1.446,0.783,1.253,0.206c-0.28-0.837,0.821,0.45,1.015,0.644
			c0.061,0.002,0.013-0.994,0.08-1.001c0.248-0.023,0.328,0.906,0.646,0.758c0.828-0.387,1.65-0.509,2.563-0.461
			c0.824,0.043,1.638,0.227,2.403,0.534c0.584,0.235,1.245,0.976,1.856,1.049c0.399,0.002,0.823-0.257,1.2-0.365
			c0.468-0.134,0.923-0.139,1.404-0.102c0.577,0.045,1.152,0.123,1.725,0.204c1.259,0.178,2.955,0.268,4.053,0.977
			c1.719,1.11,2.855,3.11,4.813,3.896c1.428,0.573,4.369,0.572,4.589,2.63c1.708,0.533,3.876,1.755,2.36,3.772l-0.059,0.082
			c-0.277,0.386-0.419,0.629-0.426,0.707c0.142,0.403,2.09,1.354,4.788,2.668l0.077,0.036c0.912,0.445,1.369,1.66,1.691,2.545
			c0.511,1.406,0.827,2.883,1.086,4.354c0.208,1.178,0.373,2.365,0.497,3.555c0.024,0.225,0.05,0.45,0.064,0.676
			c0.018,0.286,0.045,0.656-0.109,0.913c-0.029,0.048-0.47,0.457-0.485,0.44c0.065,0.071,0.235,0.002,0.291,0.084
			c0.045,0.067-0.386,0.43-0.424,0.509c-0.14,0.285,0.208,0.516,0.383,0.677c0.311,0.288-0.257,0.227-0.412,0.398
			c-0.113,0.124,0.204,0.267,0.166,0.3c0.257,0.888,1.155,0.973,0.026,1.461c-0.897,0.388-0.428,0.778-0.804,1.596
			c-0.48,1.044-0.17,1.069,0.617,1.667c0.652,0.496-0.622,0.622-0.819,0.723c0.062-0.032,0.565-0.017,0.288,0.046
			c0.544,0.599-0.119,1.715-0.366,2.325c-0.349,0.859-0.945,1.449-1.53,2.145c-0.271,0.719-0.953,1.275-1.38,1.901
			c-0.3,1.059-2.334,1.644-3.288,1.569C102.694,44.316,98.579,44.815,97.769,43.775C97.281,43.148,98.579,44.815,97.769,43.775z"/>
	</g>
</g>
<path fill="#009FE3" stroke="#000000" stroke-width="1.5" stroke-miterlimit="10" d="M70.062,69.939
	c3.517-1.827,8.614-2.537,11.933-0.554c2.499,1.494,6.474,8.019,6.474,8.019H57.254C54.645,78.001,64.293,72.935,70.062,69.939z"/>
<path fill="#010202" d="M19.936,58.617c-0.85,1.318,2.297,1.081,2.534,1.442l4.244,5.225c-0.103-0.001,0.01,0.002-0.103-0.001
	c-2.28-2.986-0.282-0.149-0.338-0.216L19.936,58.617c-0.291-0.343-1.727-0.317-1.657,0.129c0.672,4.301,2.76,5.152,3.049,5.495
	l-0.405-2.392l3.472,5.089l-6.387-3.12c-0.47-0.228-1.097-0.161-1.401,0.153c-0.305,0.313-0.174,0.753,0.297,0.981l7.952,3.886
	c0.198,0.097,0.438,0.144,0.673,0.133l0.067-0.002c0.163,0.171,0.423,0.298,0.735,0.333c0.426,0.043,2.605,0.259,3.675,0.115
	c0.929-0.123,1.657-0.464,2.107-0.985c0.301-0.348,0.448-0.739,0.507-1.116c0.129-0.82-0.16-1.576-0.208-1.693
	c-0.003-0.007-0.009-0.013-0.012-0.021c-0.002-0.006-0.002-0.013-0.006-0.019l-2.669-7.024c-0.186-0.373-0.771-0.61-1.291-0.478
	c-4.088,1.045-0.156,2.64,0.029,3.011l0.499,1.644c0.091,0.23-0.098,0.277-0.254,0.778l-5.161-7.066
	C23.311,56.089,20.193,58.217,19.936,58.617z"/>
<g>
	<line fill="#010202" x1="30.743" y1="68.403" x2="41.438" y2="77.333"/>
	<path d="M41.437,77.333c-0.228,0-1.58-0.08-1.779-0.246l-9.573-7.637c-0.501-0.419-0.613-1.228-0.25-1.806
		c0.364-0.576,1.063-0.708,1.567-0.288l10.695,8.93c0.501,0.419,0.613-0.065,0.25,0.513C42.127,77.147,41.785,77.333,41.437,77.333z
		"/>
</g>
</svg>
