<?xml version="1.0" encoding="utf-8"?>
<!-- Generator: Adobe Illustrator 16.0.0, SVG Export Plug-In . SVG Version: 6.00 Build 0)  -->
<!DOCTYPE svg PUBLIC "-//W3C//DTD SVG 1.1//EN" "http://www.w3.org/Graphics/SVG/1.1/DTD/svg11.dtd">
<svg version="1.1" id="Layer_2" xmlns="http://www.w3.org/2000/svg" xmlns:xlink="http://www.w3.org/1999/xlink" x="0px" y="0px"
	 width="883.743px" height="212.278px" viewBox="0 0 883.743 212.278" enable-background="new 0 0 883.743 212.278"
	 xml:space="preserve">
<polygon id="colback" fill="#FEE505" stroke="#1D120B" stroke-width="4" stroke-miterlimit="10" points="826.262,4.136 
	58.314,3.001 17.845,21.061 865.845,22.811 826.262,4.136 "/>
<polygon id="shadowback" opacity="0.1" fill="#010202" points="826.262,4.136 58.314,3.001 14.965,21.02 869.16,22.655 
	826.262,4.136 "/>
<rect id="colleftfoot" x="69.2" y="189.432" transform="matrix(1 0.0014 -0.0014 1 0.2866 -0.1149)" fill="#FEE505" stroke="#1D120B" stroke-width="4" stroke-miterlimit="10" width="21.737" height="19.759"/>
<rect id="shadowleftfoot" x="69.2" y="189.432" transform="matrix(1 0.0014 -0.0014 1 0.2866 -0.1149)" opacity="0.1" fill="#010202" width="21.737" height="19.759"/>
<polygon id="colrightfoot" fill="#FEE505" stroke="#1D120B" stroke-width="4" stroke-miterlimit="10" points="814.117,210.275 
	792.381,210.24 792.409,190.479 814.145,190.515 814.117,210.275 "/>
<polygon id="shadowrightfoot" opacity="0.1" fill="#010202" points="814.117,210.275 792.381,210.24 792.409,190.479 
	814.145,190.515 814.117,210.275 "/>
<polygon id="colfront" fill="#FFE505" stroke="#1D120B" stroke-width="6" stroke-miterlimit="10" points="37.83,33.271 
	56.41,195.983 827.594,197.123 855.869,34.478 37.83,33.271 "/>
<path id="shadowfront" opacity="0.1" fill="#010202" d="M315.201,45.543c81.952,3.408,348.262,14.554,364.478,83.852
	c10.619,45.383-62.133,65.718-116.388,65.683l262.292,0.187l25.926-149.15l-85.227-0.124c-0.055,0.12-0.104,0.243-0.154,0.367
	c-0.16,0.377-0.525,0.604-0.912,0.604l-0.382-0.076c-0.373-0.153-0.602-0.516-0.604-0.898l-266.076-0.443H315.201z"/>
<line fill="none" stroke="#1D120B" stroke-width="5" stroke-miterlimit="10" x1="60.939" y1="22.6" x2="58.314" y2="3.001"/>
<line fill="none" stroke="#1D120B" stroke-width="5" stroke-miterlimit="10" x1="826.262" y1="4.136" x2="823.815" y2="23.729"/>
<path id="dirt" fill="#D4A957" d="M805.039,14.039c-2.037-1.112-19.076-0.415-20.207,1.506c-9.309-0.136-19.901-0.271-31.597-0.403
	c0.649-0.643-48.556-0.846-48.291-0.476c-18.699-0.161-38.93-0.313-60.274-0.458c0.324-0.471-26.618-5.693-28.747-3.482
	c-2.034-1.115-46.518,3.025-59.937,2.954c0.154-0.331-49.431-0.234-49.431-0.234c-11.8-0.051-23.66-0.104-35.535-0.149l0.008-0.037
	c0.003-3.196-27.17-4.23-29.299-2.018c-2.036-1.113-5.396-1.846-9.212-1.852c-5.709-0.004-68.323,3.551-79.328,3.522
	c-2.232-2.13-25.771-2.175-28.034-0.065c-30.756-0.064-60.024-0.102-86.764-0.119c0,0-57.268-2.849-58.17,0.021
	c-12.794,0.017-24.441,0.042-34.771,0.082c-1.298-2.696-54.218-2.688-54.227,0.507l0.072,0.259
	c-32.114,2.173-53.574,10.087-53.574,10.087l799.279,3.225c0,0,2.16-5.143-3.979-8.517
	C833.023,18.391,807.168,11.829,805.039,14.039z"/>
<polygon id="coltop" fill="#FFE505" stroke="#1D120B" stroke-width="4" stroke-miterlimit="10" points="10.371,21.722 
	10.345,44.122 872.95,45.543 872.981,23.144 10.371,21.722 "/>
</svg>
