<?xml version="1.0" encoding="utf-8"?>
<!-- Generator: Adobe Illustrator 16.0.0, SVG Export Plug-In . SVG Version: 6.00 Build 0)  -->
<!DOCTYPE svg PUBLIC "-//W3C//DTD SVG 1.1//EN" "http://www.w3.org/Graphics/SVG/1.1/DTD/svg11.dtd">
<svg version="1.1" id="Layer_1" xmlns="http://www.w3.org/2000/svg" xmlns:xlink="http://www.w3.org/1999/xlink" x="0px" y="0px"
	 width="339.615px" height="464.143px" viewBox="0 0 339.615 464.143" enable-background="new 0 0 339.615 464.143"
	 xml:space="preserve">
<path fill="#016937" d="M181.392,464.099c-0.413-0.014-14.365-49.597-20.187-109.892c-3.427-35.483-3.255-68.373,0.509-97.754
	c4.729-36.917,15.176-68.381,31.047-93.52l4.376,4.174c-34.713,54.98-35.709,131.656-30.432,186.298
	c5.744,59.482,21.458,110.503,21.057,110.569C186.552,464.171,183.515,464.171,181.392,464.099z"/>
<ellipse transform="matrix(0.8787 0.4773 -0.4773 0.8787 64.7319 -92.4347)" fill="#F06CA8" stroke="#000000" stroke-width="2" stroke-miterlimit="10" cx="214.286" cy="81.181" rx="24.206" ry="72"/>
<ellipse transform="matrix(0.9246 0.3809 -0.3809 0.9246 107.4834 -30.7102)" fill="#EC008C" stroke="#000000" stroke-width="2" stroke-miterlimit="10" cx="131.33" cy="256.196" rx="24.205" ry="72.002"/>
<ellipse transform="matrix(0.1752 -0.9845 0.9845 0.1752 38.0556 416.4946)" fill="#F06CA8" stroke="#000000" stroke-width="2" stroke-miterlimit="10" cx="267.598" cy="185.535" rx="24.206" ry="72.001"/>
<path fill="#EC008C" stroke="#000000" stroke-width="2" stroke-miterlimit="10" d="M76.308,127.387
	c39.123,7.129,68.891,23.568,66.494,36.72c-2.396,13.153-36.05,18.036-75.171,10.907c-39.122-7.128-68.892-23.569-66.495-36.721
	C3.531,125.141,37.187,120.259,76.308,127.387z"/>
<ellipse transform="matrix(0.9824 -0.1867 0.1867 0.9824 -10.7944 29.1225)" fill="#EC008C" stroke="#000000" stroke-width="2" stroke-miterlimit="10" cx="149.251" cy="71.883" rx="24.206" ry="72.002"/>
<ellipse transform="matrix(-0.9649 0.2625 -0.2625 -0.9649 448.7489 464.7999)" fill="#F06CA8" stroke="#000000" stroke-width="2" stroke-miterlimit="10" cx="193.325" cy="262.377" rx="24.205" ry="72.001"/>
<path fill="#EC008C" stroke="#000000" stroke-width="2" stroke-miterlimit="10" d="M267.344,152.853
	c-36.568,15.619-70.468,18.314-75.721,6.022c-5.25-12.297,20.136-34.922,56.706-50.542c36.569-15.619,70.471-18.314,75.722-6.019
	C329.302,114.606,303.914,137.233,267.344,152.853z"/>
<ellipse transform="matrix(0.4933 0.8699 -0.8699 0.4933 228.0551 33.3811)" fill="#F06CA8" stroke="#000000" stroke-width="2" stroke-miterlimit="10" cx="85.376" cy="212.431" rx="24.206" ry="72"/>
<path fill="#EC008C" stroke="#000000" stroke-width="2" stroke-miterlimit="10" d="M255.729,216.388
	c29.135,27.063,45.376,56.943,36.276,66.738c-9.098,9.797-40.091-4.204-69.225-31.271c-29.134-27.062-45.375-56.939-36.278-66.737
	C195.603,175.325,226.597,189.324,255.729,216.388z"/>
<ellipse transform="matrix(0.6806 -0.7327 0.7327 0.6806 -43.5568 102.0174)" fill="#F06CA8" stroke="#000000" stroke-width="2" stroke-miterlimit="10" cx="95.227" cy="100.965" rx="24.206" ry="72"/>
<path fill="#FFF200" stroke="#000000" stroke-width="4" stroke-miterlimit="10" d="M200.676,173.547
	c-5.377,17.485-23.91,27.294-41.377,21.923c-17.504-5.382-27.306-23.904-21.929-41.39c5.376-17.486,23.891-27.299,41.396-21.917
	C196.232,137.535,206.052,156.062,200.676,173.547z"/>
</svg>
