<?xml version="1.0" encoding="utf-8"?>
<!-- Generator: Adobe Illustrator 16.0.0, SVG Export Plug-In . SVG Version: 6.00 Build 0)  -->
<!DOCTYPE svg PUBLIC "-//W3C//DTD SVG 1.1//EN" "http://www.w3.org/Graphics/SVG/1.1/DTD/svg11.dtd">
<svg version="1.1" id="Layer_1" xmlns="http://www.w3.org/2000/svg" xmlns:xlink="http://www.w3.org/1999/xlink" x="0px" y="0px"
	 width="488.091px" height="436.917px" viewBox="0 0 488.091 436.917" enable-background="new 0 0 488.091 436.917"
	 xml:space="preserve">
<path fill="#FF7F00" stroke="#000000" stroke-width="2.5112" stroke-linecap="round" stroke-linejoin="round" d="M2.202,348.667
	c0,0-0.148,3.457,7.431,4.721s16.562,1.391,28.844,3.789c14.308,2.795,38.304,11.811,44.409,14.758s-14.304-14.426-40.682-20.658
	c-6.312-1.491-21.667-4.059-26.088-4.059S2.202,348.667,2.202,348.667z"/>
<path fill="#FFBF00" stroke="#000000" stroke-width="4" stroke-linecap="round" stroke-linejoin="round" d="M426.302,277.625
	c0,0-50.307,78.706-123.52,131.003c-27.942,19.959-51.157,24.949-68.333,26.043c-21.982,1.4-44.446-3.008-74.874-17.561
	s-88.448-56.67-118.33-64.82c-22.32-6.087-30.606-4.213-35.609-3.275c-1.95,0.365-4.178,1.264-3.517-1.383
	c0.661-2.645,93.819-100.32,102.105-109.857c4.295-4.943,19.468-21.979,19.468-21.979s64.498,14.755,94.264,24.677
	s88.62,25.556,109.774,28.94C377.34,277.351,426.302,277.625,426.302,277.625z"/>
<path fill="#BF0000" stroke="#000000" stroke-width="3" stroke-linecap="round" stroke-linejoin="round" d="M481.211,257.573
	c0,0,12.067-65.47,0.058-127.893c-11.4-59.256-58.256-91.269-90.984-102.992c-24.388-8.736-43.341-12.564-61.995-14.763
	c-18.654-2.199-91.204,1.985-123.49,23.241c-32.286,21.254-44.296,48.703-51.471,72.156
	c-7.174,23.453-30.851,108.473-30.851,108.473s108.501,32.494,133.535,40.801c44.98,14.924,103.945,20.764,134.08,22.963
	c30.134,2.199,44.658-0.918,64.293-6.469C474.969,267.272,481.211,257.573,481.211,257.573z"/>
<path fill="#FF0000" stroke="#000000" stroke-width="4" stroke-linecap="round" stroke-linejoin="round" d="M401.229,256.505
	c9.362-74.89,13.936-129.993,5.911-163.379c-11.418-47.504-55.403-78.667-74.418-81.2c-31.253-4.164-95.306,1.434-127.924,23.241
	c-23.987,16.037-40.278,36.523-50.806,72.156c-6.962,23.565-31.516,108.473-31.516,108.473
	c92.309,30.967,92.106,31.332,128.692,42.141c65.865,19.461,113.832,20.995,144.688,21.623
	C398.542,279.614,399.366,271.409,401.229,256.505z"/>
<path fill="#FFFF00" stroke="#000000" stroke-width="3" stroke-linecap="round" stroke-linejoin="round" d="M326.013,11.18
	c-1.636-0.121-3.21-1.906-2.985-3.914c0.171-1.525,0.94-3.133,1.874-3.893c2.066-1.68,3.484-1.679,5.805-1.838
	c3.845-0.265,11.618,1.043,13.375,1.56c3.41,1.001,5.793,1.911,7.304,4.446c0.939,1.578,0.604,3.381,0.266,4.781
	c-0.405,1.68-3.01,2.113-4.176,1.911c-1.424-0.246-3.265-0.708-5.919-1.177c-2.506-0.443-9.719-1.406-12.354-1.662
	C328.183,11.297,327.043,11.256,326.013,11.18z"/>
<g>
	<path d="M125.336,204.825c-0.046,0.117,0.013,0.248,0.13,0.295c5.247,2.054,24.188,8.396,46.119,15.738l24.687,8.28
		c31.365,10.558,93.93,29.601,129.475,34.005c25.149,3.115,51.375,4.851,80.176,5.305c51.305,0.807,76.942-23.213,77.195-23.455
		c0.091-0.088,0.094-0.232,0.007-0.323c-0.088-0.091-0.232-0.094-0.323-0.007c-0.252,0.242-25.768,24.133-76.871,23.328
		c-28.785-0.453-54.995-2.188-80.127-5.301c-35.509-4.399-98.037-23.432-129.385-33.984l-24.688-8.281
		c-21.926-7.34-40.861-13.681-46.099-15.729C125.515,204.649,125.383,204.708,125.336,204.825z"/>
</g>
</svg>
