<?xml version="1.0" encoding="utf-8"?>
<!-- Generator: Adobe Illustrator 16.0.0, SVG Export Plug-In . SVG Version: 6.00 Build 0)  -->
<!DOCTYPE svg PUBLIC "-//W3C//DTD SVG 1.1//EN" "http://www.w3.org/Graphics/SVG/1.1/DTD/svg11.dtd">
<svg version="1.1" id="Layer_2" xmlns="http://www.w3.org/2000/svg" xmlns:xlink="http://www.w3.org/1999/xlink" x="0px" y="0px"
	 width="512.257px" height="325.519px" viewBox="0 0 512.257 325.519" enable-background="new 0 0 512.257 325.519"
	 xml:space="preserve">
<path fill="#FFFFFF" stroke="#000000" stroke-width="0.75" stroke-miterlimit="10" d="M1,87.093C1,53.77,66.84,0.375,256.13,0.375
	c189.287,0,255.127,53.395,255.127,86.718c0,40.467-65.84,102.451-255.127,102.451C66.84,189.544,1,127.56,1,87.093z"/>
<path fill="#EDEDED" stroke="#000000" stroke-linecap="round" stroke-linejoin="round" d="M425.5,219.115
	c0,31.427-56.889,48.697-171.088,48.697c-114.203,0-167.653-17.271-167.653-48.697c0-31.428,53.45-51.042,167.653-51.042
	C368.611,168.073,425.5,187.688,425.5,219.115z"/>
<path opacity="0.03" d="M216.497,7.07c-25.177,4.499-111.412-7.201-189.91,46.756C1.247,71.244,4.764,89.998,8.877,105.95
	c5.012,19.427,106.196,90.977,133.75,99.08c0,0-1.536-21.075,0-49.038C148.487,49.251,219.53,6.532,216.497,7.07z"/>
<g id="orange_2">
	<g>
		<path fill="#F16522" d="M164.581,81.892c9.093,10.368,16.313,22.562,19.168,39.317c4.688,27.49-10.27,52.686-16.835,60.41
			c-12.134,14.273-27.991,25.429-55.779,25.429c-57.628,0.003-75.129-47.659-77.15-65.872c-1.96-17.716,2.727-35.96,9.779-46.956
			c11.408-17.74,27.609-31.573,54.099-33.792C132.368,57.54,153.37,70.799,164.581,81.892z"/>
		<path d="M164.673,81.815c0,0,0.3,0.347,0.886,1.02c0.591,0.666,1.433,1.689,2.525,3.029c1.096,1.338,2.401,3.023,3.887,5.051
			c1.49,2.022,3.109,4.426,4.721,7.248c1.611,2.821,3.267,6.043,4.605,9.744c0.359,0.917,0.678,1.868,0.994,2.841
			c0.336,0.966,0.623,1.969,0.913,2.991c0.538,2.056,0.989,4.21,1.374,6.447c1.689,8.96,1.238,19.468-1.65,30.219
			c-1.452,5.375-3.494,10.82-6.134,16.193c-2.662,5.348-5.734,10.764-9.89,15.634c-4.15,4.789-8.861,9.383-14.314,13.257
			c-5.439,3.887-11.671,6.897-18.319,8.921c-6.652,2.02-13.708,3.043-20.851,3.251c-7.122,0.227-14.427-0.249-21.6-1.708
			c-7.172-1.465-14.223-3.974-20.754-7.547c-6.529-3.581-12.475-8.27-17.582-13.727c-5.114-5.453-9.375-11.681-12.768-18.297
			c-3.386-6.623-5.893-13.663-7.312-20.912c-1.325-7.331-1.334-14.649-0.535-21.823c0.809-7.161,2.539-14.123,5.126-20.649
			c1.298-3.265,2.866-6.401,4.757-9.323c1.861-2.86,3.866-5.64,5.975-8.246c4.235-5.225,9.027-9.837,14.254-13.575
			c5.23-3.729,10.893-6.519,16.597-8.439c5.714-1.923,11.465-2.978,17.001-3.46c11.063-0.963,21.312-0.226,30.11,1.692
			c8.803,1.923,16.146,4.908,21.785,8.05c5.659,3.123,9.679,6.268,12.296,8.517c1.316,1.124,2.28,2.035,2.923,2.649l0.976,0.949
			L164.673,81.815z M164.494,81.972c-0.002-0.001-0.33-0.317-0.969-0.932c-0.647-0.609-1.618-1.509-2.933-2.618
			c-2.628-2.218-6.655-5.32-12.307-8.383c-5.637-3.06-12.944-6.043-21.724-7.787c-8.766-1.738-18.941-2.273-29.866-1.108
			c-5.448,0.59-11.068,1.75-16.606,3.746c-5.537,1.985-10.944,4.851-15.981,8.524c-5.024,3.69-9.619,8.229-13.685,13.372
			c-2.035,2.583-3.929,5.283-5.735,8.126c-1.746,2.8-3.232,5.82-4.489,8.967c-2.486,6.307-4.162,13.086-4.929,20.04
			c-0.385,3.478-0.559,7-0.497,10.534c0.071,1.751,0.122,3.494,0.316,5.307c0.123,1.766,0.396,3.493,0.73,5.242
			c1.378,6.976,3.889,13.803,7.087,20.272c3.244,6.453,7.328,12.531,12.243,17.858c4.904,5.341,10.641,9.899,16.923,13.466
			c6.288,3.562,13.117,6.099,20.113,7.648c7.006,1.577,14.132,2.216,21.206,2.131c7.053-0.087,14.021-0.979,20.612-2.856
			c6.587-1.905,12.74-4.872,18.141-8.667c5.423-3.78,10.104-8.317,14.166-13.137c4.021-4.816,7.058-10.212,9.595-15.544
			c2.479-5.378,4.361-10.801,5.663-16.119c1.284-5.32,1.994-10.536,2.125-15.501c0.055-2.481,0.016-4.902-0.197-7.24
			c-0.062-1.178-0.231-2.302-0.346-3.432c-0.194-1.154-0.309-2.26-0.549-3.34c-0.417-2.177-0.894-4.27-1.452-6.258
			c-0.249-1.003-0.496-1.99-0.792-2.939c-0.27-0.958-0.552-1.897-0.87-2.8c-1.24-3.623-2.536-6.91-3.914-9.795
			c-2.75-5.778-5.657-9.954-7.729-12.699c-1.067-1.35-1.898-2.376-2.481-3.052C164.791,82.322,164.498,81.975,164.494,81.972z"/>
	</g>
	<path d="M91.335,85.494c-4.823-1.156-10.67-0.488-15.13,0.528c-3.391,0.773-13.015,5.768-12.429,5.295
		c5.254-4.251,12.868-7.674,21.925-8.007c2.296-5.939,8.81-9.035,15.062-8.163c0.838,0.118,3.038,1.511,3.979,2.001
		c4.372-3.861,13.19-6.979,20.777-3.883c0.451,0.176-12.865-3.248-20.464,6.918c-1.685,2.252-4.27,4.122-6.877,5.015
		C97.214,85.529,92.727,85.827,91.335,85.494z"/>
	<path fill="#39B44A" d="M101.202,76.131c0.334,0.121,2.161,1.62,2.587,2.027c-1.182,0.98-2.713,5.153-10.039,4.953
		c-1.712-0.048-3.813-0.352-6.208,0.2C88.68,81.137,94.105,73.551,101.202,76.131z"/>
	<path opacity="0.1" fill="#FFFFFF" d="M80.887,132.334c-4.273,15.025-15.981,24.856-26.148,21.96
		c-10.164-2.893-14.935-17.419-10.665-32.436c4.273-15.023,15.981-24.856,26.147-21.958
		C80.393,102.79,85.166,117.317,80.887,132.334z"/>
	<path opacity="0.02" d="M167.892,86.333c0.508,0.588,7.133,61.317-48.029,89.53c-33.153,16.957-71.904-2.113-71.904-2.113
		s30.509,45.236,83.753,29.842c53.242-15.394,53.13-63.45,51.607-79.739C182.062,110.4,167.892,86.333,167.892,86.333z"/>
</g>
<g id="orange_1">
	<g>
		<path fill="#F16522" d="M314.259,102.98c9.091,10.368,16.312,22.562,19.169,39.317c4.688,27.49-10.271,52.684-16.836,60.412
			c-12.133,14.271-27.991,25.43-55.778,25.43c-57.631,0-75.132-47.661-77.151-65.875c-1.96-17.716,2.727-35.959,9.78-46.956
			c11.405-17.74,27.606-31.573,54.098-33.791C282.044,78.628,303.046,91.888,314.259,102.98z"/>
		<path d="M314.349,102.904c0,0,0.302,0.347,0.886,1.021c0.591,0.665,1.436,1.688,2.527,3.028c1.094,1.338,2.399,3.024,3.885,5.051
			c1.49,2.022,3.109,4.426,4.723,7.249c1.609,2.819,3.268,6.042,4.606,9.742c0.359,0.917,0.678,1.868,0.993,2.841
			c0.337,0.967,0.623,1.97,0.914,2.991c0.535,2.056,0.986,4.21,1.373,6.446c1.688,8.96,1.238,19.469-1.65,30.22
			c-1.454,5.375-3.496,10.819-6.133,16.189c-2.665,5.353-5.737,10.77-9.89,15.637c-4.153,4.789-8.864,9.386-14.315,13.259
			c-5.439,3.888-11.671,6.896-18.318,8.919c-6.655,2.02-13.709,3.045-20.852,3.251c-7.121,0.229-14.429-0.247-21.602-1.708
			c-7.172-1.465-14.221-3.974-20.752-7.545c-6.529-3.581-12.475-8.269-17.582-13.727c-5.114-5.453-9.377-11.68-12.77-18.301
			c-3.384-6.62-5.891-13.66-7.312-20.91c-1.326-7.331-1.335-14.649-0.534-21.823c0.809-7.161,2.539-14.123,5.124-20.649
			c1.3-3.263,2.866-6.401,4.759-9.322c1.861-2.862,3.865-5.641,5.976-8.247c4.232-5.223,9.024-9.837,14.253-13.575
			c5.229-3.728,10.893-6.519,16.598-8.439c5.714-1.923,11.465-2.977,16.998-3.459c11.063-0.962,21.315-0.227,30.113,1.691
			c8.8,1.923,16.144,4.908,21.782,8.051c5.659,3.122,9.682,6.268,12.298,8.516c1.314,1.123,2.278,2.034,2.924,2.648l0.973,0.949
			L314.349,102.904z M314.17,103.062c0-0.002-0.327-0.318-0.966-0.933c-0.65-0.608-1.619-1.509-2.936-2.617
			c-2.626-2.219-6.652-5.32-12.307-8.384c-5.637-3.059-12.944-6.042-21.724-7.787c-8.763-1.736-18.939-2.273-29.863-1.107
			c-5.448,0.591-11.068,1.75-16.606,3.746c-5.538,1.984-10.947,4.852-15.981,8.524c-5.025,3.69-9.622,8.229-13.688,13.373
			c-2.035,2.584-3.929,5.283-5.732,8.125c-1.749,2.801-3.232,5.82-4.489,8.968c-2.489,6.306-4.162,13.084-4.932,20.038
			c-0.382,3.478-0.559,7-0.497,10.534c0.074,1.751,0.124,3.494,0.316,5.308c0.126,1.765,0.398,3.495,0.732,5.242
			c1.378,6.976,3.888,13.804,7.088,20.271c3.244,6.453,7.328,12.534,12.243,17.858c4.903,5.344,10.641,9.899,16.92,13.466
			c6.289,3.562,13.117,6.099,20.116,7.65c7.003,1.575,14.129,2.217,21.205,2.13c7.051-0.088,14.022-0.98,20.613-2.857
			c6.586-1.904,12.737-4.872,18.138-8.667c5.426-3.777,10.107-8.315,14.169-13.137c4.018-4.816,7.055-10.21,9.594-15.544
			c2.479-5.38,4.361-10.801,5.662-16.119c1.284-5.32,1.996-10.535,2.126-15.5c0.056-2.481,0.014-4.902-0.199-7.239
			c-0.06-1.179-0.231-2.302-0.346-3.432c-0.192-1.155-0.309-2.261-0.547-3.341c-0.419-2.177-0.896-4.269-1.454-6.258
			c-0.247-1.003-0.494-1.99-0.789-2.939c-0.272-0.958-0.555-1.897-0.87-2.8c-1.241-3.622-2.536-6.91-3.917-9.795
			c-2.75-5.777-5.654-9.954-7.727-12.699c-1.066-1.348-1.897-2.375-2.481-3.051C314.468,103.412,314.175,103.064,314.17,103.062z"/>
	</g>
	<path d="M241.011,106.583c-4.823-1.155-10.668-0.487-15.127,0.53c-3.391,0.772-13.015,5.767-12.431,5.294
		c5.256-4.25,12.867-7.672,21.924-8.007c2.299-5.938,8.81-9.035,15.062-8.161c0.84,0.117,3.038,1.51,3.981,2
		c4.372-3.86,13.19-6.979,20.774-3.881c0.451,0.176-12.865-3.25-20.464,6.917c-1.683,2.252-4.267,4.122-6.877,5.016
		C246.89,106.618,242.405,106.916,241.011,106.583z"/>
	<path fill="#39B44A" d="M250.88,97.22c0.335,0.121,2.159,1.62,2.587,2.027c-1.181,0.98-2.715,5.153-10.038,4.953
		c-1.715-0.048-3.816-0.352-6.211,0.2C238.357,102.228,243.781,94.64,250.88,97.22z"/>
	<path opacity="0.1" fill="#FFFFFF" d="M230.565,153.423c-4.276,15.025-15.981,24.855-26.151,21.96
		c-10.164-2.894-14.935-17.418-10.663-32.436c4.274-15.022,15.981-24.854,26.146-21.958
		C230.07,123.879,234.844,138.407,230.565,153.423z"/>
	<path opacity="0.02" d="M317.569,107.422c0.506,0.588,7.134,61.317-48.029,89.533c-33.153,16.954-71.904-2.115-71.904-2.115
		s30.507,45.236,83.751,29.843c53.245-15.394,53.133-63.451,51.61-79.741C331.738,131.49,317.569,107.422,317.569,107.422z"/>
</g>
<g id="orange_3">
	<g>
		<path fill="#F16522" d="M464.479,68.751c9.091,10.37,16.312,22.563,19.169,39.319c4.688,27.49-10.271,52.683-16.836,60.409
			c-12.133,14.275-27.991,25.429-55.778,25.429c-57.631,0.005-75.132-47.658-77.151-65.872c-1.96-17.715,2.727-35.959,9.777-46.955
			c11.408-17.739,27.609-31.572,54.101-33.792C432.265,44.4,453.267,57.658,464.479,68.751z"/>
		<path d="M464.569,68.674c0,0,0.302,0.348,0.886,1.021c0.591,0.667,1.436,1.689,2.527,3.029c1.094,1.338,2.399,3.023,3.885,5.051
			c1.49,2.023,3.109,4.427,4.721,7.248c1.611,2.82,3.267,6.042,4.605,9.743c0.36,0.917,0.681,1.868,0.996,2.841
			c0.337,0.966,0.621,1.969,0.914,2.991c0.535,2.056,0.986,4.21,1.373,6.445c1.688,8.961,1.238,19.469-1.65,30.22
			c-1.454,5.375-3.496,10.82-6.133,16.192c-2.665,5.349-5.737,10.769-9.893,15.636c-4.15,4.789-8.861,9.382-14.314,13.255
			c-5.438,3.888-11.671,6.896-18.316,8.924c-6.655,2.019-13.709,3.04-20.852,3.246c-7.124,0.229-14.429-0.247-21.602-1.703
			c-7.172-1.465-14.221-3.975-20.752-7.55c-6.531-3.581-12.477-8.265-17.582-13.727c-5.116-5.453-9.377-11.679-12.77-18.296
			c-3.384-6.622-5.891-13.663-7.312-20.912c-1.326-7.33-1.335-14.649-0.536-21.822c0.811-7.161,2.539-14.123,5.126-20.649
			c1.3-3.265,2.866-6.402,4.757-9.323c1.863-2.86,3.867-5.64,5.975-8.246c4.235-5.224,9.027-9.838,14.254-13.574
			c5.23-3.729,10.893-6.519,16.6-8.439c5.712-1.923,11.465-2.979,16.998-3.46c11.063-0.962,21.312-0.227,30.113,1.692
			c8.8,1.923,16.144,4.908,21.782,8.05c5.659,3.123,9.682,6.268,12.298,8.516c1.314,1.124,2.278,2.035,2.924,2.65l0.973,0.949
			L464.569,68.674z M464.391,68.833c-0.002-0.002-0.33-0.317-0.966-0.932c-0.65-0.609-1.619-1.509-2.936-2.618
			c-2.626-2.218-6.652-5.32-12.307-8.383c-5.637-3.06-12.944-6.042-21.724-7.787c-8.766-1.737-18.941-2.273-29.863-1.108
			c-5.448,0.591-11.068,1.75-16.606,3.747c-5.538,1.985-10.947,4.851-15.981,8.524c-5.025,3.69-9.622,8.228-13.688,13.372
			c-2.035,2.583-3.929,5.282-5.732,8.125c-1.749,2.8-3.232,5.821-4.492,8.967c-2.486,6.307-4.159,13.084-4.929,20.04
			c-0.382,3.477-0.559,7-0.497,10.534c0.074,1.75,0.122,3.493,0.316,5.306c0.126,1.765,0.396,3.494,0.732,5.243
			c1.376,6.976,3.888,13.802,7.086,20.271c3.246,6.455,7.327,12.531,12.245,17.861c4.901,5.338,10.641,9.898,16.92,13.465
			c6.289,3.558,13.117,6.099,20.113,7.646c7.006,1.575,14.132,2.216,21.206,2.134c7.054-0.087,14.021-0.979,20.615-2.861
			c6.584-1.9,12.737-4.867,18.138-8.663c5.424-3.782,10.104-8.319,14.166-13.136c4.021-4.818,7.058-10.214,9.597-15.547
			c2.479-5.377,4.361-10.799,5.662-16.118c1.284-5.32,1.996-10.536,2.124-15.5c0.058-2.481,0.016-4.903-0.197-7.24
			c-0.06-1.178-0.23-2.302-0.346-3.432c-0.192-1.153-0.309-2.259-0.549-3.34c-0.417-2.178-0.894-4.27-1.452-6.258
			c-0.247-1.002-0.494-1.989-0.789-2.939c-0.272-0.958-0.555-1.896-0.87-2.8c-1.243-3.623-2.536-6.91-3.917-9.794
			c-2.75-5.778-5.654-9.954-7.727-12.699c-1.069-1.35-1.897-2.376-2.483-3.052C464.688,69.183,464.396,68.836,464.391,68.833z"/>
	</g>
	<path d="M391.231,72.354c-4.823-1.156-10.668-0.488-15.13,0.529c-3.391,0.773-13.012,5.768-12.428,5.295
		c5.254-4.251,12.867-7.674,21.924-8.007c2.299-5.94,8.81-9.036,15.062-8.163c0.838,0.118,3.038,1.511,3.981,2.001
		c4.37-3.861,13.19-6.979,20.774-3.883c0.451,0.176-12.865-3.249-20.464,6.918c-1.683,2.251-4.267,4.122-6.877,5.015
		C397.11,72.39,392.626,72.688,391.231,72.354z"/>
	<path fill="#39B44A" d="M401.101,62.991c0.332,0.12,2.159,1.62,2.587,2.026c-1.181,0.979-2.715,5.154-10.038,4.954
		c-1.715-0.048-3.816-0.351-6.211,0.201C388.578,67.998,394.002,60.411,401.101,62.991z"/>
	<path opacity="0.1" fill="#FFFFFF" d="M380.786,119.194c-4.276,15.026-15.981,24.856-26.151,21.96
		c-10.164-2.891-14.935-17.419-10.665-32.437c4.276-15.022,15.981-24.855,26.147-21.958
		C380.289,89.65,385.064,104.178,380.786,119.194z"/>
	<path opacity="0.02" d="M467.79,73.193c0.506,0.588,7.131,61.317-48.029,89.531c-33.155,16.958-71.904-2.113-71.904-2.113
		s30.507,45.232,83.751,29.84c53.242-15.394,53.133-63.449,51.61-79.737C481.959,97.261,467.79,73.193,467.79,73.193z"/>
</g>
<g>
	<path fill="#00AAFF" stroke="#000000" stroke-width="2" stroke-miterlimit="10" d="M110.518,279.988
		c29.354,25.489,74.915,44.53,145.612,44.53c70.694,0,116.255-19.04,145.608-44.528c-35.688,18.596-82.969,30.637-145.608,30.637
		C193.487,310.627,146.207,298.586,110.518,279.988z"/>
	<path fill="#00B7FF" stroke="#000000" stroke-width="2" stroke-miterlimit="10" d="M511.257,85.918
		c0,40.467-65.84,102.452-255.127,102.452C66.84,188.37,1,126.385,1,85.918c0,30.123,5.58,139.911,109.518,194.07
		c35.689,18.598,82.97,30.639,145.612,30.639c62.64,0,109.92-12.041,145.608-30.637C505.676,225.831,511.257,116.042,511.257,85.918
		z"/>
</g>
</svg>
