<?xml version="1.0" encoding="utf-8"?>
<!-- Generator: Adobe Illustrator 16.0.0, SVG Export Plug-In . SVG Version: 6.00 Build 0)  -->
<!DOCTYPE svg PUBLIC "-//W3C//DTD SVG 1.1//EN" "http://www.w3.org/Graphics/SVG/1.1/DTD/svg11.dtd">
<svg version="1.1" id="Layer_1" xmlns="http://www.w3.org/2000/svg" xmlns:xlink="http://www.w3.org/1999/xlink" x="0px" y="0px"
	 width="577.872px" height="58.14px" viewBox="0 0 577.872 58.14" enable-background="new 0 0 577.872 58.14" xml:space="preserve">
<g>
	<path fill="#8DC641" d="M4.268,26.491c29.158,2.361,57.188-1.611,61.509-0.838c4.32,0.772,127.353-39.839,226.983-18.619
		c98.5,20.979,225,20.979,277,9.5c51.253-11.314-162,43.68-273.734,40.412C135.42,52.249,71.949,31.448,66.394,31.834
		C60.838,32.22,37.26,28.013,6.76,32.938C-4.374,34.736,1.143,26.239,4.268,26.491z"/>
	<path fill="#231F20" d="M4.276,26.391c12.137,0.94,24.33,0.847,36.48,0.252c6.079-0.294,12.142-0.797,18.219-1.221
		c1.521-0.101,3.041-0.2,4.575-0.238c0.763-0.01,1.551-0.029,2.333,0.091c0.231,0.005,0.666-0.063,1.012-0.128l1.104-0.229
		c2.951-0.674,5.896-1.461,8.843-2.217c23.554-6.182,47.344-11.598,71.399-15.571c24.055-3.923,48.362-6.527,72.764-7.062
		c24.376-0.437,48.912,1.168,72.803,6.345c23.776,5.108,47.856,8.789,72.031,11.545c12.09,1.372,24.209,2.5,36.345,3.405
		c12.138,0.877,24.293,1.53,36.455,1.959c24.324,0.882,48.691,0.793,72.993-0.493c12.148-0.657,24.285-1.616,36.349-3.149
		c6.028-0.773,12.04-1.69,17.995-2.877c2.974-0.588,5.932-1.304,8.929-1.904c0.756-0.149,1.488-0.302,2.288-0.411
		c0.119-0.009,0.175-0.031,0.408-0.018c0.695,1.898-0.184,0.757-0.037,1.153c-0.203,0.077-0.386,0.135-0.573,0.195l-1.108,0.329
		c-1.474,0.417-2.948,0.801-4.424,1.182c-11.812,3.01-23.682,5.728-35.57,8.376c-11.891,2.637-23.807,5.155-35.744,7.567
		c-23.879,4.808-47.837,9.249-71.905,13.038c-24.066,3.791-48.229,7.052-72.508,9.28c-12.14,1.104-24.309,1.952-36.505,2.342
		c-6.098,0.185-12.201,0.259-18.308,0.169c-6.113-0.102-12.184-0.342-18.276-0.549c-48.681-1.799-97.363-5.23-145.619-12.17
		c-12.062-1.729-24.084-3.738-36.055-6.014c-5.985-1.141-11.955-2.359-17.908-3.652l-8.918-1.975l-4.454-0.963
		c-0.741-0.148-1.485-0.295-2.218-0.398c-0.36-0.049-0.741-0.096-1.042-0.08c-0.386,0.022-0.8,0.022-1.179,0.014
		c-3.084-0.107-6.095-0.442-9.132-0.671c-3.031-0.246-6.064-0.457-9.1-0.608c-6.072-0.312-12.159-0.375-18.235-0.121
		c-6.076,0.241-12.143,0.761-18.17,1.584l-4.517,0.66c-1.508,0.174-3.092,0.307-4.575-0.246c-0.729-0.263-1.401-0.904-1.497-1.726
		c-0.108-0.804,0.184-1.579,0.569-2.242c0.396-0.667,0.916-1.256,1.528-1.731C2.729,26.752,3.458,26.346,4.276,26.391z M4.26,26.59
		c-0.727-0.041-1.43,0.339-2.013,0.787c-0.588,0.46-1.091,1.033-1.469,1.676c-0.37,0.639-0.636,1.38-0.534,2.102
		c0.091,0.73,0.674,1.291,1.363,1.544c1.398,0.52,2.97,0.395,4.454,0.216l4.513-0.689c6.03-0.864,12.104-1.425,18.191-1.707
		c6.087-0.273,12.186-0.295,18.278-0.098c3.046,0.103,6.09,0.264,9.13,0.46c3.036,0.179,6.086,0.464,9.089,0.519
		c0.382,0.001,0.729-0.004,1.103-0.031c0.46-0.023,0.838,0.029,1.232,0.075c0.774,0.104,1.526,0.244,2.279,0.388l4.48,0.924
		l8.932,1.881c5.958,1.23,11.929,2.385,17.915,3.462c11.971,2.163,23.998,3.999,36.047,5.665
		c24.102,3.329,48.327,5.709,72.583,7.629c24.258,1.904,48.563,3.213,72.884,4.076c6.075,0.201,12.172,0.435,18.231,0.531
		c6.067,0.082,12.141,0.002,18.212-0.188c12.143-0.371,24.277-1.174,36.388-2.247c24.225-2.161,48.358-5.354,72.404-9.079
		c24.042-3.758,48.016-7.984,71.899-12.678c11.942-2.345,23.864-4.795,35.76-7.363c11.893-2.58,23.776-5.229,35.577-8.17
		c1.472-0.374,2.945-0.751,4.401-1.158l1.082-0.315c0.176-0.055,0.354-0.112,0.508-0.17c0.25,0.333-0.212-0.897,0.298,0.897
		c0.044,0.002-0.091,0.005-0.16,0.017c-0.709,0.094-1.468,0.246-2.206,0.39c-2.975,0.583-5.938,1.288-8.938,1.868
		c-5.991,1.167-12.026,2.063-18.075,2.812c-12.102,1.487-24.259,2.396-36.425,3.003c-24.337,1.183-48.713,1.125-73.057,0.392
		c-12.173-0.391-24.338-1.011-36.489-1.845c-12.152-0.811-24.292-1.844-36.406-3.123c-24.227-2.567-48.373-6.075-72.253-11.018
		c-23.754-5.095-48.153-6.64-72.428-6.158c-24.299,0.437-48.545,2.936-72.558,6.755c-24.034,3.756-47.829,8.946-71.425,14.925
		c-2.956,0.731-5.899,1.493-8.889,2.149l-1.133,0.225c-0.403,0.06-0.722,0.145-1.253,0.124c-0.723-0.124-1.465-0.118-2.222-0.12
		c-1.509,0.014-3.028,0.089-4.546,0.166c-6.073,0.338-12.155,0.707-18.239,0.959C28.61,27.576,16.402,27.6,4.26,26.59z"/>
</g>
<g>
	<path fill="#5A7333" d="M73.749,28.938c35.569-8.57,72.573-10.266,108.983-7.467c18.232,1.306,36.386,3.412,54.526,5.533
		c9.068,1.086,18.146,2.09,27.229,3.037c9.082,0.952,18.171,1.845,27.268,2.628c18.195,1.562,36.429,2.634,54.677,3.178
		c18.247,0.541,36.51,0.479,54.755-0.104c18.243-0.626,36.472-1.743,54.657-3.392c18.184-1.657,36.319-3.839,54.408-6.366
		l0.016,0.098c-18.042,2.865-36.172,5.191-54.355,6.989c-18.183,1.812-36.423,3.101-54.691,3.702
		c-36.536,1.321-73.142-0.11-109.515-3.559c-36.383-3.343-72.585-8.548-109.025-10.988c-18.214-1.146-36.486-1.626-54.71-0.602
		c-18.221,1.019-36.351,3.542-54.2,7.411L73.749,28.938z"/>
</g>
</svg>
