<?xml version="1.0" encoding="iso-8859-1"?>
<!-- Generator: Adobe Illustrator 16.0.0, SVG Export Plug-In . SVG Version: 6.00 Build 0)  -->
<!DOCTYPE svg PUBLIC "-//W3C//DTD SVG 1.1//EN" "http://www.w3.org/Graphics/SVG/1.1/DTD/svg11.dtd">
<svg version="1.1" id="Layer_1" xmlns="http://www.w3.org/2000/svg" xmlns:xlink="http://www.w3.org/1999/xlink" x="0px" y="0px"
	 width="207.657px" height="537.157px" viewBox="0 0 207.657 537.157" style="enable-background:new 0 0 207.657 537.157;"
	 xml:space="preserve">
<circle id="skinface" style="fill:#B2CBCE;stroke:#000100;stroke-width:3;stroke-miterlimit:10;" cx="74.936" cy="85.148" r="61.392"/>
<path d="M4.901,316.016c0.127-0.394,0.426-1.058,0.791-1.574c2.51-4.458,5.039-3.153,8.059-2.462c3.869,0.886,7.5,7.077,7.689,7.375
	l6.09,16.352c0.473,0.726,0.268,1.697-0.459,2.166c-0.727,0.473-1.699,0.267-2.168-0.458l-5.795-15.898l-0.945-0.324l0.859,30.167
	c0.086,0.862-0.543,1.628-1.402,1.714c-0.514,0.051-0.99-0.15-1.316-0.507c-0.217-0.237-0.363-0.548-0.398-0.898l-1.166-31.23
	c-0.018-0.196,0.012-0.391,0.062-0.577c-0.408-0.189-0.791-0.355-1.137-0.485l-0.668,36.375c-0.02,0.867-0.734,1.551-1.6,1.536
	c-0.449-0.009-0.848-0.206-1.127-0.512c-0.262-0.284-0.418-0.668-0.41-1.087l0.666-36.169c-1.238,0.874-0.402-0.168-0.555,0.546
	l-2.348,29.708c-0.111,0.86-0.779,1.597-1.639,1.482c-0.381-0.048-0.713-0.232-0.953-0.498c-0.301-0.33-0.461-0.782-0.398-1.258
	l2.512-28.228l-0.721-0.224l-3.998,20.427c-0.246,0.759-0.502,0.958-1.262,0.712c-0.246-0.082-0.457-0.223-0.621-0.4
	c-0.334-0.37-0.471-0.909-0.305-1.42l4.486-23.836c0.027-0.067,0.043-0.13,0.068-0.199L4.901,316.016z"/>
<path style="fill:none;stroke:#000000;stroke-width:4.252;stroke-linecap:round;stroke-linejoin:round;" d="M24.784,213.626
	c0,0-8.748,37.648-10.445,51.275c-1.381,11.088-3.166,46.5-3.166,46.5"/>
<path style="fill:#000100;" d="M10.387,41.709c-1.12,2.051-6.272,5.218-4.67,8.327c-9.101,6.706-2.594,9.162-2.825,11.217
	c-0.545,2.971-0.812,5.612-0.845,7.624c-0.029,2.013-2.235,7.139-1.599,14.684c0.685,8.112,8.398,7.159,6.706,12.452
	c-3.832,11.973,3.353,11.973,7.184,12.931c-2.12,3.276-2.274,2.756-0.479,6.705c2.394,5.268,5.325,4.681,5.746,5.747
	c1.276,3.215-4.31,0.958-1.915,6.226c1.393,3.061,4.177,3.532,4.773,4.993c1.849,4.541-2.859,6.98,1.93,7.459
	c1.503,0.15,3.609-6.491,4.312-8.141c0.775-1.821-4.25-2.943-4.31-4.789c-0.074-2.328,2.643-3.794,0.958-4.311
	c1.903-0.912-1.037-4.503-1.915-8.141c-1.1-4.55-0.959-13.889-4.789-11.494c6.704-5.747,1.092-8.454,1.915-8.621
	c1.925-4.111,4.31-3.832,3.354-10.536c-0.196-1.37-4.788-0.704-4.312-2.874c0.479-2.17,2.396,2.874,3.353-0.958
	c8.986-9.821,0.285-9.234-0.68-12.821c7.184-1.916,14.009-11.042,10.667-14.667c3.83,4.439,16.041-7.27,19.333-6.667
	c7.802,1.429,16.667,3.333,28-6.667c3.23-2.851,23.445-6.389,24.667-3.333c-1.438,6.705,5.177,9.193,9.009,8.235
	c1.843-0.461,2.796,1.109,4.31,2.873c5.747,6.705,0.682,10.225,8.682,14.892c1.056,0.616,3.333-12,1.854,5.223
	c-0.6,6.99,1.361,8.785,2.231,9.438c5.91,4.45,0.294,12.705,0.164,13.071c-2.396,6.705-1.438,14.846,2.395,18.199
	c0.888,0.777,5.747,2.395-0.959,3.832c-2.306,0.494-0.672,10.368,1.917,11.015c1.915,0.479,7.661,6.705,0.957,7.184
	c-4.531,0.324-1.695,11.45-0.479,10.537c0.407-0.305,1.515-2.721,2.875-4.79c2.797-2.241,3.352-15.804-2.396-19.157
	c-1.915-4.789,11.494-3.353,7.184-13.41c-11.016-5.747-0.051-1.462,0.957-3.353c3.831-7.184-1.194-10.406-1.914-11.015
	c1.437-0.479,0.53-1.657,2.394-3.352c5.267-4.79,1.951-7.425,0.959-11.016c-0.991-3.592,3.83-12.93-1.279-17.651
	c0.306-2.138,1.833-10.693-2.86-10.422c1.638-5.159-3.116-6.397-5.341-9.408c-1.03-1.496-1.297-7.266-2.493-8.974
	c-2.159-2.721-5.374-1.013-7.951-3.349c-2.575-2.336-5.382-6.773-8.261-6.39c-2.509-3.919-3.648-5.25-9.205-5.084
	c0.127-6.207-7.471-8.925-15.415-9.129C90.6,4.012,88.57,1.74,86.944,1.388c-2.088-0.143-6.813,0.241-8.91,0.278
	c-3.146,0.054-3.945-2.024-7.09-1.612C67.753,0.376,59.381-0.727,57.61,3.388c-1.825-1.428-6.749,0.315-7.354,1.63
	c-2.257,0.233-15.939,4.986-15.834,12.073c0.916-0.611-4.114-3.284-5.729,1.604c-4.25,0.229-8.089,5.951-9.241,6.569
	C10.025,28.006,11.926,39.049,10.387,41.709z"/>
<line style="fill:none;stroke:#000000;stroke-width:5.6693;stroke-linecap:round;stroke-linejoin:round;" x1="59.86" y1="356.207" x2="57.306" y2="486.212"/>
<line style="fill:none;stroke:#000000;stroke-width:5.6693;stroke-linecap:round;stroke-linejoin:round;" x1="96.962" y1="360.344" x2="97.704" y2="486.23"/>
<path style="fill:#FFF800;stroke:#000100;stroke-width:4.252;stroke-linecap:round;stroke-linejoin:round;" d="M96.46,483.653
	c8.701-0.869,19.225,3.636,26.775,6.228c10.549,3.63,19.758,7.951,25.035,15.432c3.289,4.669,6.562,12.727,3.615,17.729
	c-3.973,6.728-11.223,9.201-21.293,10.715c-16.551,2.484-37.512,2.164-47.871-8.575C68.452,510.38,96.46,483.653,96.46,483.653z"/>
<path style="fill:#FFF800;stroke:#000100;stroke-width:4.252;stroke-linecap:round;stroke-linejoin:round;" d="M57.065,481.899
	c11.369,6.674,24.043,28.184,19.07,39.626c-6.695,15.398-35.668,14.229-51.443,11.432c-18.502-3.285-27.754-18.46-19.568-31.02
	C12.317,490.888,57.065,481.899,57.065,481.899z"/>
<g>
	<path style="fill:#000100;stroke:#000100;stroke-width:4.0304;" d="M72.731,167.468c0-3.123-0.137-6.308-0.27-9.386
		c-0.131-3.121-0.271-6.345-0.271-9.546l0,0c0-1.207,1.205-1.181,2.684-1.181c1.482,0,2.682-0.026,2.682,1.181l0,0
		c0,3.127,0.137,6.314,0.27,9.395c0.135,3.118,0.27,6.34,0.27,9.538l0,0c0,1.205-1.199,2.181-2.682,2.181
		S72.731,168.673,72.731,167.468L72.731,167.468z"/>
</g>
<g>
	<path style="fill:#000100;stroke:#000100;" d="M53.017,502.923c-2.123-1.512-5.361-1.893-9.303-2.01l0,0
		c-0.17-0.016-0.422-0.02-0.74-0.02l0,0c-2.67-0.039-6.637,0.523-7.803,1.235l0,0l0.006,0.003c-1.189,0.635-2.869,0.459-3.758-0.38
		l0,0c-0.893-0.847-0.654-2.04,0.535-2.673l0,0c3.244-1.643,7.602-1.947,11.02-1.995l0,0c0.346,0,0.727,0,1.078,0.021l0,0
		c4.004,0.143,8.9,0.453,12.729,3.1l0,0c1.053,0.734,1.072,1.942,0.033,2.695l0,0c-0.529,0.38-1.227,0.57-1.92,0.57l0,0
		C54.214,503.47,53.536,503.289,53.017,502.923L53.017,502.923z"/>
</g>
<g>
	<path style="fill:#000100;stroke:#000100;" d="M50.343,514.587c-1.273-1.008-6.379-1.963-9.451-2.24l0,0
		c-1.215-0.143-2.504-0.225-3.773-0.225l0,0c-2.205,0-4.295,0.268-5.92,0.869l0,0c-1.309,0.483-2.934,0.116-3.613-0.816l0,0
		c-0.676-0.938-0.162-2.084,1.15-2.572l0,0c2.678-0.978,5.605-1.288,8.383-1.288l0,0c1.594,0,3.154,0.096,4.615,0.267l0,0
		c3.396,0.43,8.809,1.001,12.324,3.258l0,0c1.068,0.728,1.107,1.936,0.08,2.693l0,0c-0.527,0.391-1.232,0.59-1.936,0.59l0,0
		C51.534,515.123,50.866,514.947,50.343,514.587L50.343,514.587z"/>
</g>
<g>
	<path style="fill:#000100;stroke:#000100;" d="M97.065,503.193c-1.26-0.551-1.666-1.725-0.893-2.621l0,0
		c1.77-1.961,4.729-2.928,7.906-3.673l0,0c3.205-0.722,6.725-1.085,9.801-1.091l0,0c2.105,0.016,3.965,0.139,5.668,0.668l0,0
		c1.352,0.43,1.955,1.557,1.348,2.516l0,0c-0.609,0.96-2.195,1.389-3.547,0.96l0,0c-0.408-0.151-1.805-0.343-3.469-0.323l0,0
		c-2.457-0.006-5.586,0.316-8.182,0.9l0,0c-2.611,0.552-4.598,1.51-4.949,2.025l0,0l0.006,0.002
		c-0.502,0.589-1.389,0.914-2.293,0.914l0,0C97.983,503.47,97.501,503.379,97.065,503.193L97.065,503.193z"/>
</g>
<g>
	<path style="fill:#000100;stroke:#000100;" d="M100.886,512.683c-1.08-0.727-1.123-1.933-0.1-2.697l0,0
		c3.934-2.826,10.936-4.377,17.143-4.445l0,0c1.916,0.002,3.777,0.17,5.506,0.623l0,0c1.385,0.372,2.09,1.469,1.57,2.451l0,0
		c-0.525,0.986-2.066,1.484-3.455,1.114l0,0c-0.877-0.237-2.156-0.377-3.621-0.377l0,0c-4.73-0.06-11.242,1.629-13.256,3.261l0,0
		c-0.521,0.391-1.232,0.596-1.943,0.596l0,0C102.067,513.208,101.405,513.032,100.886,512.683L100.886,512.683z"/>
</g>
<path style="fill:#FC29C6;stroke:#000000;stroke-width:2.8347;stroke-linecap:round;stroke-linejoin:round;" d="M110.61,230.844
	c-2.246-10.178-0.902-0.902,8.453-9.361c14.306-12.936,14.516-17.067,15.539-22.039c-2.442-1.971-5.271-17.387-25.629-29.199
	c-5.163-2.996-19.53-8.89-28.895-11.799c-2.41,10.53-10.254,4.203-9.504-0.575c-4.428,2.13-29.537,10.479-37.352,16.143
	c-8.562,6.212-14.76,38.357-16.78,40.841c6.954,8.662,18.896,12.024,25,15c1.5-5,2.786-10.178,2.786-10.178
	c0.441,1.458-0.812,12.58-1.391,16.556c-1.173,8.064-2.418,20.724-3.641,35.228c-3.687,43.739-7.168,104.252-7.822,106.086
	c2,0.418,93.764-0.137,97.223,0.711c0.338-2.908,0.168-5.723-0.096-8.569c-1.981-21.402-5.956-64.258-10.296-96.812
	C115.692,254.006,113.055,241.916,110.61,230.844z"/>
<line style="fill:#64BC46;stroke:#000000;stroke-width:2.8347;stroke-linecap:round;stroke-linejoin:round;" x1="104.943" y1="214.355" x2="109.943" y2="226.355"/>
<circle style="fill:#000100;stroke:#000100;stroke-width:3;" cx="92.381" cy="73.369" r="2.547"/>
<path style="fill:#000100;stroke:#000100;stroke-width:3;" d="M57.821,73.369c0,1.407,1.142,2.551,2.547,2.551
	c1.412,0,2.553-1.144,2.553-2.551c0-1.408-1.141-2.55-2.553-2.55C58.963,70.819,57.821,71.961,57.821,73.369z"/>
<path style="fill:#000100;" d="M69.122,126.702c-21.48-5.971-26.936-23.101-28.367-27.363l0,0c-0.285-0.824-0.052-1.83,0.524-2.239
	l0,0c0.579-0.411,1.279-0.075,1.568,0.75l0,0c1.487,4.121,6.009,19.615,26.726,25.572l0,0c2.036,0.575,4.186,0.869,6.389,0.869l0,0
	c12.573,0,26.579-9.489,31.319-28.48l0,0c0.217-0.868,0.886-1.321,1.493-1.008l0,0c0.608,0.311,0.922,1.263,0.705,2.136l0,0
	c-5.226,20.706-20.207,30.692-33.518,30.692l0,0C73.617,127.631,71.313,127.323,69.122,126.702L69.122,126.702z"/>
<circle cx="75.444" cy="176.554" r="3.5"/>
<circle cx="75.778" cy="192.554" r="3.5"/>
<path style="fill:#FC29C6;stroke:#000000;stroke-width:2.8347;stroke-linecap:round;stroke-linejoin:round;" d="M67.277,157.388
	l-20,8c0,0,6.667,8.667,14,10s14-10.667,14-10.667L67.277,157.388z"/>
<path style="fill:#FC29C6;stroke:#000000;stroke-width:2.8347;stroke-linecap:round;stroke-linejoin:round;" d="M83.61,157.388l20,8
	c0,0-6.667,8.667-14,10s-14-10.667-14-10.667L83.61,157.388z"/>
<path style="fill:none;stroke:#000000;stroke-width:2;stroke-linecap:round;stroke-linejoin:round;" d="M75.61,166.388
	c0,0-0.26,10.663-0.166,13.667c0.166,5.333,0.166,11.667,0.166,18.667"/>
<path style="fill:#FFF800;stroke:#000100;stroke-width:3;stroke-linecap:round;stroke-linejoin:round;" d="M33.339,59.23
	c-1.32,5.552-5.376,4.204-11.286,2.798c-5.911-1.405-11.438-2.335-10.117-7.887c1.32-5.552,6.115,0.194,11.781-1.996
	C35.791,47.479,34.658,53.678,33.339,59.23z"/>
<path style="fill:none;stroke:#000100;stroke-width:4.252;stroke-linecap:round;stroke-linejoin:round;" d="M127.443,214.888
	c0,0,8.441,37.888,10.139,51.516c1.381,11.087,4.168,44.499,4.168,44.499"/>
<path style="fill-rule:evenodd;clip-rule:evenodd;fill:#7F4E06;stroke:#000000;stroke-width:3;stroke-linecap:round;stroke-linejoin:round;stroke-miterlimit:10;" d="
	M191.113,326.812c4.633-3.647,7.217-9.131,7.302-15.465c3.479,1.306,7.969-1.411,7.733-5.673
	c-0.297-5.402-3.247-10.273-10.978-10.978c-1.392-0.127-2.266,0.623-2.658,1.575c-2.146-2.315-4.756-4.324-7.59-5.753
	c3.946-2.213,3.805-8.574-0.569-9.92c-9.595-2.951-16.113,5.468-17.631,9.363c-0.13,0.334-0.224,0.646-0.291,0.939
	c-9.033,4.784-15.055,14.97-11.354,26.736c0.171,0.547,0.374,1.069,0.594,1.57c-3.89-0.876-13.921,2.021-19.924-1.822
	c-0.488-0.312-4.433-0.835-5.122,7.353c0.049,4.061,1.049,8.86,4.367,9.547c3.838,0.794,7.188,0.917,10.009,0.712
	c-5.834,5.794-4.792,12.866-4.792,12.866s-12.386,9.158-8.578,19.664c1.623,4.478,7.043,9.48,10.278,12.173
	c0.437,0.826,1.916,3.583,3.661,6.483c2.074,3.443,4.559,7.146,6.113,7.938c3.08,1.566,10.244,0.374,14.695-2.146
	c2.79-1.579,5.121-3.523,6.308-5.636c4.145,1.864,10.068,4.294,12.193,3.956c3.413-0.542,8.507-5.719,10.627-10.374
	c2.111-4.634,2.756-9.334,0.136-11.842c-1.311-1.255-6.624-2.454-11.528-3.339c-2.367-0.427-4.655-0.784-6.4-1.04
	c3.118-4.729,2.96-14.438,2.497-19.518c5.551,2.508,15.135,4.296,16.572,3.535c3.487-1.842,5.312-6.722,5.883-10.547
	c0.555-3.709-0.704-10.119-3.547-9.482c-3.251,0.729-7.398,1.158-10.545,1.403c0.241-0.167,0.471-0.336,0.683-0.51
	C189.98,327.983,190.592,327.395,191.113,326.812z"/>
<path style="fill:#AF742E;" d="M132.792,323.632l0.157,1.187c0.071,0.494-0.274,0.882-0.771,0.875
	c-0.151-0.004-0.299-0.011-0.444-0.025c0.19,3.859,1.288,7.36,3.728,7.865c3.743,0.774,7.017,0.905,9.761,0.708
	c0.885-0.064,1.226,0.68,0.592,1.306c-2.771,2.763-3.903,5.826-4.343,8.198c-0.22,1.189-0.266,2.202-0.259,2.915
	c0.008,0.687,0.067,1.089,0.067,1.089c0.026,0.171-0.162,0.626-0.301,0.73c-0.144,0.105-11.896,8.902-8.314,18.788
	c1.54,4.25,6.788,9.13,10.047,11.842l0.188,0.23c0.439,0.829,1.909,3.573,3.643,6.447c2.132,3.542,4.494,6.985,5.803,7.652
	c2.733,1.391,9.595,0.345,13.969-2.132c2.738-1.55,4.933-3.405,6.021-5.342c0.176-0.312,0.653-0.47,0.983-0.323
	c4.274,1.923,9.921,4.189,11.757,3.897c3.03-0.48,7.966-5.359,10.049-9.932c2.117-4.651,2.511-8.861,0.304-10.972
	c-1.099-1.05-6.088-2.227-11.137-3.14c-2.344-0.423-3.564-0.986-5.301-1.242c-0.655-0.095-1.944-0.414-1.581-0.969
	c2.932-4.47,2.821-13.892,2.356-19.021c-0.064-0.707,0.435-1.061,1.079-0.77c5.631,2.541,14.844,4.104,15.894,3.546
	c3.14-1.66,4.921-6.2,5.485-9.98c0.259-1.74,0.092-4.157-0.477-6.038c-0.63-2.082-1.464-2.739-2.146-2.585
	c-2.094,0.47-4.579,0.82-6.918,1.075c-0.585,0.033-1.109,0.081-1.478,0.121l-1.696,0.181l-0.554,0.044
	c-0.961,0.078-1.29-0.842-0.498-1.392c0.221-0.155,0.43-0.314,0.63-0.473c0.658-0.545,1.226-1.084,1.707-1.614l0.098-0.091
	c4.482-3.488,7.003-8.779,7.086-14.936c0.008-0.609,0.465-0.921,1.036-0.707c3.113,1.161,5.85-0.258,5.655-3.806
	c-0.277-5.041-5.005-10.188-9.389-11.403c-0.871-0.241-1.446,0.208-1.752,1.065c-0.23,0.648-0.816,0.769-1.283,0.264
	c-2.268-2.44-5.067-4.524-8.087-5.916c-0.578-0.268-0.666-0.828-0.198-1.259c3.239-2.981,2.976-6.578-0.442-7.212
	c-6.145-1.14-14.384,4.315-15.768,7.864c-0.115,0.299-0.2,0.575-0.26,0.829c-0.022,0.095-0.303,0.458-0.389,0.503
	c-8.768,4.642-14.55,14.48-10.979,25.836c0.163,0.519,0.35,1.016,0.559,1.492c0.312,0.71-0.111,1.229-0.87,1.056
	c-3.89-0.877-11.621,0.919-17.741-3c-0.054-0.034-1.637,1.494-2.016,3.575c-0.305,1.665-1.726,3.167-2.717,3.15
	C133.146,323.674,132.965,323.657,132.792,323.632z"/>
<path style="fill-rule:evenodd;clip-rule:evenodd;fill:#EFAC4B;" d="M153.981,359.979c-0.651-1.512-2.516-6.66,0.444-11.659
	c2.959-5,6.674-14.96,11.924-16.279c5.251-1.319,11.669,3.746,12.553,10.085c0.886,6.339,0.805,18.616-1.807,21.337
	c-2.612,2.719-12.816,8.497-12.816,8.497L153.981,359.979z"/>
<path style="fill-rule:evenodd;clip-rule:evenodd;fill:#EFAC4B;" d="M169.472,324.675c1.522,4.318,6.96,7.648,11.296,6.81
	c5.394-1.043,8.739-3.701,10.866-7.486c1.638-2.912,0.707-7.057-1.89-9.559c-3.905-3.763-8.438-5.252-13.874-2.827
	C172.461,313.134,166.766,317.012,169.472,324.675z"/>
<path style="fill-rule:evenodd;clip-rule:evenodd;fill:#EFAC4B;" d="M137.455,317.144c0.676,0.736,3.665,5.797,1.656,10.125
	c-2.009,4.329-3.072,5.19-4.251,3.873c-1.177-1.316-3.971-5.347-3.472-9.337C131.888,317.813,136.49,316.091,137.455,317.144z"/>
<path style="fill-rule:evenodd;clip-rule:evenodd;fill:#EFAC4B;" d="M200.499,329.773c1.729,1.513,2.503,6.181,0.704,9.511
	c-1.798,3.333-4.729,6.735-5.61,5.617c-0.885-1.119-1.22-6.427-0.027-8.847C196.759,333.636,198.771,328.261,200.499,329.773z"/>
<path style="fill-rule:evenodd;clip-rule:evenodd;fill:#AF742E;" d="M197.097,347.716c3.486-1.842,5.312-6.722,5.883-10.547
	c0.555-3.709-0.704-10.119-3.548-9.482c-3.962,0.888-9.278,1.337-12.458,1.54c-0.186,0.12-0.373,0.232-0.568,0.343
	c-0.323,0.183-0.647,0.347-0.974,0.493c1.897,0.467,5.972,1.031,12.426-0.269c1.814-0.362,3.279,1.788,3.079,5.18
	c-0.316,5.37-3.296,9.472-4.426,9.038c-0.911-0.352-0.938-2.25-0.547-4.592c0.189-1.133,0.467-2.315,0.736-3.362
	c0.271-1.048,0.539-1.963,0.705-2.555c0.362-1.28,0.659-1.823,0.841-2.05c0.13-0.164-0.05-0.348-0.215-0.218
	c-0.808,0.637-2.706,2.849-3.564,6.509c-0.9,3.829-0.114,5.972,0,6.617c-1.599-0.062-12.687-0.615-15.116-3.865
	c-0.157-0.212-0.293-0.357-0.414-0.418c-0.191-0.099-0.332,0.015-0.377,0.173c-0.06,0.218,0.004,0.66,0.093,1.108
	c0.094,0.462,0.221,0.988,0.322,1.418l0.123,0.544l0.029,0.171C184.277,346.351,195.53,348.543,197.097,347.716z"/>
<path style="fill-rule:evenodd;clip-rule:evenodd;fill:#AF742E;" d="M137.437,316.833c-0.528-0.237,0.408,1.276-0.121,1.496
	c0.243,0.893,1.95,0.729,2.656,1.094c3.868,1.998,6.911,0.883,18.055,1.929c-0.353-0.631-0.654-1.269-0.9-1.891
	C154.026,318.773,144.51,320.017,137.437,316.833z"/>
<circle style="fill:#1D1D1B;" cx="182.381" cy="306.875" r="3.182"/>
<circle style="fill:#1D1D1B;" cx="192.974" cy="312.647" r="2.487"/>
<circle style="fill:#FFFFFF;" cx="181.001" cy="305.986" r="0.827"/>
<path style="fill:#FFFFFF;" d="M193.186,311.228c-0.189-0.416-0.68-0.6-1.096-0.407c-0.414,0.187-0.595,0.678-0.406,1.093
	c0.189,0.416,0.678,0.599,1.096,0.41C193.193,312.133,193.374,311.643,193.186,311.228z"/>
<path style="fill-rule:evenodd;clip-rule:evenodd;fill:#AF742E;" d="M195.484,294.695c-1.395,0.102-2.266,0.624-2.659,1.575
	c-2.146-2.315-4.755-4.324-7.589-5.753c3.945-2.213,2.795-7.55-1.58-8.896c-9.595-2.951-15.103,4.444-16.62,8.339
	c-0.13,0.334-0.225,0.646-0.292,0.939c-9.033,4.783-15.055,14.969-11.354,26.736c2.629,8.365,11.378,11.278,11.286,11.21
	c-8.289-6.328-11.767-14.583-8.226-26.567c1.082-3.663,5.347-8.15,11.665-10.434c10.465-3.784,22.951,2.673,26.424,11.954
	c1.205,3.221,1.205,4.76,1.641,6.679c3.163,1.64,7.396,0.754,7.733-3.75C206.318,301.333,202.398,294.189,195.484,294.695z
	 M172.799,288.623c-1.036,0.242-2.055,0.554-3.05,0.925c0.369-0.7,0.916-1.434,1.74-2.164c3.833-3.389,12.146-5.783,13.802-2.334
	c0.561,1.167-0.234,3.281-2.838,4.284C179.298,288.229,175.981,287.881,172.799,288.623z M201.909,308.789
	c-0.79,0.781-1.955,0.81-3.252,0.323c-0.065-0.855-0.161-1.719-0.315-2.596c-0.537-3.034-2.108-6.132-4.345-8.897
	c0.234-0.524,0.966-0.451,2.592-0.177C204.078,298.702,204.632,306.099,201.909,308.789z"/>
<g>
	<path style="fill:#1D1D1B;" d="M185.291,327.468c-0.51-0.021-1.058-0.224-1.455-0.645c-0.404-0.423-0.562-1.02-0.606-1.569
		c-0.033-0.558,0.029-1.106,0.158-1.63c0.13-0.528,0.288-1.025,0.532-1.532l0.623,0.668c-0.544,0.223-1.065,0.388-1.614,0.53
		c-0.548,0.13-1.106,0.225-1.675,0.272c-1.125,0.089-2.362-0.031-3.396-0.695c-0.253-0.166-0.487-0.363-0.688-0.588
		c-0.199-0.204-0.392-0.498-0.515-0.72c-0.277-0.468-0.515-1.048-0.616-1.595c-0.203-1.121-0.015-2.307,0.597-3.215
		c-0.398,1.009-0.441,2.119-0.105,3.09c0.157,0.503,0.375,0.922,0.694,1.356c0.162,0.236,0.284,0.388,0.476,0.56
		c0.174,0.164,0.371,0.301,0.581,0.413c0.838,0.472,1.879,0.513,2.888,0.427c0.509-0.051,1.019-0.146,1.521-0.275
		c0.5-0.121,1.016-0.275,1.476-0.455l1.171-0.458l-0.548,1.126c-0.201,0.412-0.401,0.875-0.55,1.329
		c-0.141,0.459-0.27,0.924-0.298,1.389c-0.035,0.462,0.015,0.921,0.234,1.32C184.394,326.979,184.812,327.259,185.291,327.468z"/>
</g>
<g>
	<path style="fill-rule:evenodd;clip-rule:evenodd;fill:#FF0029;" d="M154.633,317.856c0,0,4.585,4.945,10.148,8.306
		c5.562,3.362,10.041,5.405,14.389,5.191c1.987-0.098,9.27-2.054,9.27-2.054s-2.762,4.591-10.076,5.455
		c-11.322,1.336-16.357-5.569-20.102-9.708C152.325,318.484,154.633,317.856,154.633,317.856z"/>
	<path d="M154.669,317.822c0.584,0.542,1.177,1.068,1.771,1.594c0.611,0.507,1.202,1.036,1.819,1.533
		c1.217,1.013,2.479,1.968,3.766,2.879l0.962,0.688l0.998,0.631c0.659,0.428,1.328,0.837,2.023,1.231l2.056,1.177
		c0.691,0.38,1.387,0.752,2.094,1.098c1.41,0.694,2.84,1.36,4.341,1.811c1.494,0.463,3.053,0.748,4.622,0.7
		c0.775-0.057,1.563-0.197,2.331-0.338c0.777-0.157,1.555-0.316,2.324-0.516c1.541-0.38,3.083-0.77,4.605-1.224l0.562-0.168
		l-0.314,0.498c-0.515,0.817-1.148,1.498-1.843,2.131c-0.692,0.632-1.457,1.185-2.27,1.656c-0.806,0.485-1.674,0.856-2.556,1.177
		c-0.889,0.301-1.797,0.561-2.725,0.704c-0.936,0.173-1.835,0.25-2.785,0.305c-0.937,0.033-1.874,0.039-2.811-0.048
		c-1.873-0.148-3.736-0.586-5.468-1.342c-1.736-0.739-3.342-1.763-4.78-2.957c-1.449-1.188-2.7-2.575-3.905-3.961
		c-1.189-1.402-2.421-2.742-3.495-4.272c-0.534-0.756-1.051-1.534-1.44-2.386c-0.186-0.43-0.369-0.867-0.435-1.344
		c-0.033-0.236-0.037-0.483,0.023-0.723c0.06-0.24,0.228-0.465,0.478-0.545l0.026-0.008L154.669,317.822z M154.623,317.92
		c-0.376,0.199-0.375,0.721-0.269,1.111c0.104,0.427,0.32,0.827,0.538,1.215c0.467,0.766,0.994,1.501,1.575,2.197
		c1.151,1.382,2.452,2.698,3.667,4.059c2.448,2.677,5.139,5.17,8.447,6.532c1.638,0.687,3.379,1.11,5.153,1.295
		c0.886,0.099,1.784,0.108,2.678,0.092c0.878-0.033,1.809-0.099,2.677-0.243c0.885-0.124,1.755-0.329,2.609-0.587
		c0.848-0.272,1.68-0.604,2.467-1.025c0.796-0.405,1.552-0.892,2.244-1.459c0.691-0.56,1.34-1.213,1.838-1.923l0.249,0.33
		l-4.647,1.104l-2.332,0.528c-0.793,0.164-1.568,0.322-2.379,0.399c-1.613,0.087-3.239-0.088-4.804-0.495
		c-0.784-0.197-1.554-0.441-2.31-0.721c-0.756-0.279-1.505-0.578-2.229-0.927c-1.452-0.691-2.865-1.441-4.242-2.262
		c-0.682-0.403-1.36-0.838-2.023-1.293l-1.003-0.669l-0.962-0.723l-0.961-0.724l-0.912-0.781c-0.616-0.512-1.204-1.055-1.788-1.599
		c-0.599-0.53-1.146-1.116-1.706-1.683C155.66,319.098,155.123,318.524,154.623,317.92z"/>
</g>
<path style="fill-rule:evenodd;clip-rule:evenodd;fill:#AF742E;" d="M151.104,333.617c0,0-1.846-1.106-3.451,0.087
	c-7.92,5.883-6.648,14.312-6.648,14.312s-12.144,8.978-8.41,19.279c1.018,2.811,3.951,6.498,8.95,11.497
	c2.277,2.276,3.328,4.883,4.875,7.154c2.18,3.201,4.422,5.735,4.422,5.735s-4.151-11.483-7.453-15.049
	c-1.685-1.819-7.527-5.213-8.189-11.747c-0.664-6.529,6.841-14.343,7.389-16.131C145.671,338.698,151.104,333.617,151.104,333.617z"
	/>
<path style="fill-rule:evenodd;clip-rule:evenodd;fill:#AF742E;" d="M134.342,330.787c-0.621,0.055-3.332-3.941-2.146-9.89
	c0.435-2.177,3.651-3.682,5.119-4.13c-0.403,0.09-1.071-0.164-1.99,0.112c-2.228,0.668-5.339,4.128-4.652,8.725
	c0.046,3.791,1.61,7.94,4.708,8.582c5.954,1.231,10.68,0.752,13.899-0.034c1.609-0.393,2.842-0.864,3.659-1.234
	c0.412-0.187,0.719-0.347,0.918-0.461l0.221-0.136c0.207-0.14,0.002-0.311-0.05-0.305c-4.25,0.6-8.341,0.481-11.372,0.215
	c-2.437-0.216-4.187-0.528-4.773-0.642c0.407-0.607-1.363-2.469-1.127-6.342c0.24-3.964,1.093-7.938,1.092-7.939
	c0,0-0.012,0.43-0.063,0.24c-0.745-2.743-2.96,4.036-2.964,5.387C134.811,325.58,136.498,330.596,134.342,330.787z"/>
<g>
	<path style="fill:none;stroke:#000000;stroke-width:3;stroke-linecap:round;stroke-linejoin:round;" d="M136.599,314.722
		c-0.334-0.5,0.334-0.667,2.334-2.167c2.458-1.844,5.229-2.996,7.944-0.167c0.907,0.944,2.011,1.109,2.632,3.375
		c0.726,2.657,1.505,7.804,1.756,10.125c0.204,1.903-6,10.333-6,10.333"/>
	<path d="M135.309,316.329c0,0-1.196-1.472,1.623-1.44c1.822,0.02,0.412,3.764,3.149,3.638c6.651-0.308,10.542,0.049,10.542,0.049
		c0.262-0.792-0.63-7.208-5.506-7.651c-10.364-0.939-10.688,5.91-10.688,5.91L135.309,316.329z"/>
	<path style="fill:none;stroke:#000000;stroke-width:3;stroke-linecap:round;stroke-linejoin:round;" d="M146.711,316.826
		c0,0,0.391,7.578,0.339,10.139c-0.067,3.347-6.118,10.256-6.118,10.256"/>
	<path style="fill:none;stroke:#000000;stroke-width:3;stroke-linecap:round;stroke-linejoin:round;" d="M142.327,316.983
		c0,0,1.51,8.226,0.875,11.185c-0.746,3.465-3.604,8.721-3.604,8.721"/>
	<path style="fill:none;stroke:#000000;stroke-width:3;stroke-linecap:round;stroke-linejoin:round;" d="M138.496,316.933
		c0,0,0.839,8.989,0.315,12.26c-0.332,2.074-1.547,7.695-1.547,7.695"/>
</g>
<g>
	<g>
		<path style="fill-rule:evenodd;clip-rule:evenodd;fill:#AF742E;" d="M167.786,332.782c3.239-0.167,9.133,2.756,9.888,11.351
			c0.901,10.249-0.167,14.199-3.542,18.86c-3.986,5.51-9.678,7.452-10.845,7.803c-0.118,0.035-0.15,0.142-0.08,0.239l0.875,1.172
			c0.023,0.034,0.117,0.067,0.158,0.057c0.431-0.102,2.265-0.575,4.557-1.651c2.632-1.233,5.869-3.261,8.29-6.434
			c3.808-4.991,3.219-16.913,2.66-21.456c-1.055-8.59-7.929-12.938-13.141-11.796C161.396,332.069,162.174,333.073,167.786,332.782z
			"/>
	</g>
</g>
<g>
	<path d="M172.251,386.239c-0.007,0.01,0.028-0.042,0.024-0.039c-0.001,0.002,0.007-0.002,0.033-0.063
		c0.049-0.093,0.113-0.273,0.161-0.529c0.046-0.256,0.071-0.593,0.035-0.998c-0.029-0.404-0.133-0.872-0.291-1.383
		c-0.173-0.509-0.407-1.056-0.706-1.623c-0.161-0.279-0.327-0.565-0.497-0.858c-0.19-0.284-0.386-0.575-0.584-0.87
		c-0.433-0.57-0.873-1.171-1.386-1.734c-0.489-0.574-1.038-1.165-1.564-1.745c-1.066-1.159-2.123-2.334-3.093-3.46
		c-0.492-0.554-0.957-1.1-1.387-1.625c-0.431-0.526-0.854-1.007-1.213-1.481c-0.739-0.927-1.327-1.722-1.712-2.296
		c-0.391-0.571-0.561-0.929-0.561-0.929s0.196,0.343,0.627,0.881c0.426,0.542,1.068,1.286,1.871,2.151
		c0.391,0.441,0.85,0.89,1.315,1.379c0.467,0.489,0.968,0.996,1.498,1.508c1.042,1.04,2.18,2.127,3.334,3.205
		c0.573,0.547,1.146,1.093,1.711,1.631c0.58,0.539,1.098,1.13,1.606,1.698c0.24,0.299,0.476,0.593,0.706,0.881
		c0.214,0.307,0.423,0.606,0.626,0.897c0.386,0.603,0.711,1.209,0.969,1.802c0.245,0.601,0.428,1.182,0.518,1.732
		c0.097,0.547,0.109,1.054,0.07,1.481c-0.041,0.428-0.127,0.773-0.22,1.021c-0.038,0.112-0.094,0.234-0.14,0.321
		c-0.03,0.057-0.046,0.087-0.046,0.087L172.251,386.239z"/>
</g>
<path style="fill-rule:evenodd;clip-rule:evenodd;" d="M184.073,316.486c-3.3,0.944,0.183,6.927,0.183,6.927s3.9-0.435,5.266-2.849
	C190.883,318.149,186.707,315.732,184.073,316.486z"/>
<g>
	<path d="M165.385,290.459c0,0,0.11-0.044,0.303-0.123c0.188-0.081,0.474-0.185,0.82-0.302c0.343-0.118,0.744-0.255,1.173-0.403
		c0.436-0.114,0.9-0.235,1.365-0.356c0.466-0.11,0.917-0.269,1.368-0.31c0.443-0.064,0.857-0.124,1.212-0.175
		c0.704-0.101,1.173-0.168,1.173-0.168s-0.457,0.129-1.143,0.322c-0.341,0.096-0.737,0.208-1.162,0.328
		c-0.43,0.096-0.857,0.312-1.295,0.48c-0.435,0.177-0.868,0.354-1.275,0.519c-0.39,0.195-0.754,0.376-1.066,0.532
		c-0.31,0.152-0.567,0.285-0.748,0.394c-0.181,0.103-0.283,0.161-0.283,0.161L165.385,290.459z"/>
</g>
<path d="M135.194,313.638c-0.379,0.429-0.667,2.583-0.667,2.583s2.167-0.333,2.667,0.167s1.167-1.25,1.167-1.25
	S136.444,312.221,135.194,313.638z"/>
<path style="opacity:0.4;fill-rule:evenodd;clip-rule:evenodd;fill:#AF742E;" d="M156.699,334.733c0,0,2.109,4.921,4.219,4.687
	s6.093-1.641,8.202-0.938s11.249,5.859,11.249,5.859l-4.158-6.275l-10.371-3.1L156.699,334.733z"/>
<g>
	<g>
		<path style="fill-rule:evenodd;clip-rule:evenodd;fill:#FF0029;" d="M172.938,333.731c0,0-4.157-14.71-7.685-16.65
			c-2.91-1.6-2.877,1.385-8.494,9.553c-4.325,6.29,2.771,12.916,6.645,10.34S172.938,333.731,172.938,333.731z"/>
		<path d="M172.869,333.687c-0.076-0.209-0.376-1.027-0.853-2.325c-0.557-1.514-1.366-3.67-2.406-6.217
			c-0.521-1.273-1.134-2.632-1.849-4.02c-0.356-0.694-0.74-1.396-1.179-2.071c-0.45-0.658-0.935-1.34-1.589-1.721
			c-0.362-0.209-0.714-0.371-1.073-0.38c-0.351-0.013-0.696,0.176-1.004,0.461c-0.609,0.586-1.088,1.37-1.559,2.137
			c-0.906,1.577-1.827,3.179-2.747,4.781c-0.468,0.799-0.936,1.6-1.436,2.376c-0.5,0.769-0.857,1.526-1.077,2.357
			c-0.44,1.646-0.139,3.386,0.675,4.768c0.792,1.389,2.031,2.491,3.386,2.985c0.671,0.262,1.377,0.333,2.021,0.218
			c0.317-0.072,0.628-0.168,0.9-0.334c0.311-0.181,0.615-0.359,0.914-0.533c1.273-0.677,2.475-1.108,3.563-1.445
			c1.086-0.336,2.053-0.546,2.851-0.694C171.771,333.773,172.642,333.703,172.869,333.687z M172.944,333.781
			c0,0-0.91,0.151-2.464,0.567c-0.773,0.213-1.707,0.498-2.751,0.882c-1.037,0.386-2.204,0.899-3.341,1.583
			c-0.292,0.186-0.591,0.376-0.895,0.569c-0.334,0.227-0.723,0.378-1.126,0.491c-0.815,0.196-1.705,0.146-2.526-0.122
			c-1.647-0.541-3.096-1.777-3.996-3.397c-0.918-1.61-1.187-3.676-0.625-5.536c0.271-0.921,0.775-1.805,1.318-2.546
			c0.536-0.743,1.074-1.489,1.611-2.235c1.062-1.505,2.021-3.078,2.941-4.646c0.471-0.781,0.895-1.576,1.508-2.291
			c0.307-0.346,0.754-0.68,1.298-0.716c0.528-0.039,1.01,0.154,1.41,0.337c0.882,0.446,1.468,1.166,1.972,1.853
			c0.503,0.699,0.91,1.424,1.279,2.139c0.73,1.434,1.289,2.839,1.789,4.137c0.505,1.297,0.898,2.509,1.229,3.588
			c0.332,1.078,0.614,2.02,0.812,2.805c0.415,1.564,0.599,2.472,0.599,2.472l0.012,0.055L172.944,333.781z"/>
	</g>
	<g>
		<path style="fill-rule:evenodd;clip-rule:evenodd;fill:#FF0029;" d="M173.547,332.689c0,0,3.127,6.207,5.583,9.397
			c2.026,2.629,5.21,5.96,8.483-3.893c3.274-9.853-0.266-9.202-4.846-8.393C178.188,330.611,173.547,332.689,173.547,332.689z"/>
		<path d="M173.623,332.715c0.106,0.162,0.494,0.754,1.095,1.689c0.692,1.111,1.681,2.7,2.866,4.605
			c0.605,0.941,1.234,1.964,1.938,3.029c0.369,0.519,0.761,1.039,1.218,1.511c0.455,0.465,0.993,0.9,1.635,1.059
			c0.641,0.166,1.334-0.057,1.86-0.508c0.527-0.453,0.965-1.034,1.32-1.666c0.704-1.274,1.184-2.691,1.608-4.114
			c0.43-1.433,0.815-2.863,1.053-4.283c0.112-0.707,0.176-1.413,0.128-2.069c-0.031-0.657-0.212-1.252-0.58-1.584
			c-0.356-0.352-0.968-0.475-1.586-0.496c-0.625-0.023-1.271,0.03-1.901,0.106c-1.265,0.145-2.461,0.375-3.557,0.602
			c-1.083,0.233-2.075,0.504-2.951,0.755c-0.872,0.263-1.636,0.489-2.257,0.701C174.465,332.406,173.806,332.648,173.623,332.715z
			 M173.526,332.644c0,0,0.669-0.349,1.881-0.869c1.211-0.531,2.96-1.216,5.163-1.84c1.09-0.311,2.289-0.565,3.574-0.815
			c0.646-0.116,1.32-0.231,2.052-0.237c0.711,0.011,1.578,0.093,2.286,0.711c0.693,0.636,0.884,1.546,0.924,2.313
			c0.031,0.792-0.075,1.554-0.22,2.301c-0.292,1.49-0.764,2.949-1.298,4.358c-0.548,1.415-1.175,2.81-1.994,4.074
			c-0.412,0.628-0.867,1.237-1.459,1.709c-0.588,0.46-1.378,0.759-2.132,0.583c-0.748-0.147-1.357-0.587-1.896-1.025
			c-0.534-0.455-0.993-0.956-1.42-1.452c-0.416-0.502-0.822-0.998-1.189-1.494c-0.35-0.503-0.67-1.002-0.974-1.482
			c-0.578-0.976-1.085-1.882-1.504-2.701c-0.409-0.824-0.75-1.549-1.03-2.146c-0.532-1.208-0.788-1.921-0.788-1.921l-0.018-0.047
			L173.526,332.644z"/>
	</g>
	<g>
		<path style="fill:#C70029;" d="M168.117,331.429c0,0-0.008-0.136-0.021-0.375c-0.019-0.242-0.045-0.592-0.095-1.011
			c-0.098-0.837-0.268-1.959-0.57-3.042c-0.159-0.536-0.335-1.074-0.562-1.544c-0.111-0.237-0.222-0.467-0.357-0.662
			c-0.119-0.211-0.255-0.39-0.399-0.541c-0.128-0.171-0.274-0.292-0.414-0.391c-0.134-0.11-0.256-0.201-0.375-0.237
			c-0.233-0.1-0.366-0.157-0.366-0.157s0.144,0.028,0.396,0.077c0.134,0.012,0.277,0.075,0.44,0.159
			c0.17,0.073,0.356,0.169,0.528,0.316c0.191,0.129,0.379,0.29,0.553,0.483c0.193,0.181,0.362,0.395,0.535,0.621
			c0.351,0.45,0.656,0.97,0.948,1.499c0.564,1.065,0.995,2.188,1.288,3.041c0.148,0.427,0.257,0.788,0.332,1.043
			c0.073,0.26,0.115,0.409,0.115,0.409c0.149,0.535-0.164,1.091-0.699,1.24s-1.091-0.163-1.24-0.699
			c-0.02-0.069-0.031-0.139-0.035-0.208L168.117,331.429z"/>
	</g>
	<g>
		<path style="fill:#C70029;" d="M167.546,333.1c0,0-0.105-0.086-0.291-0.237c-0.191-0.15-0.468-0.367-0.811-0.612
			c-0.685-0.493-1.627-1.124-2.632-1.631c-0.503-0.245-1.019-0.477-1.518-0.627c-0.25-0.078-0.495-0.152-0.73-0.183
			c-0.236-0.055-0.46-0.075-0.668-0.07c-0.213-0.021-0.4,0.006-0.568,0.043c-0.171,0.023-0.32,0.053-0.428,0.117
			c-0.231,0.104-0.363,0.164-0.363,0.164s0.117-0.087,0.323-0.24c0.1-0.091,0.242-0.154,0.415-0.218
			c0.168-0.077,0.365-0.149,0.59-0.177c0.225-0.053,0.47-0.084,0.73-0.082c0.264-0.021,0.535,0,0.818,0.024
			c0.569,0.044,1.16,0.169,1.747,0.311c1.168,0.301,2.287,0.741,3.114,1.101c0.415,0.178,0.755,0.342,0.995,0.458
			c0.241,0.122,0.379,0.192,0.379,0.192c0.496,0.251,0.695,0.856,0.444,1.353s-0.856,0.695-1.353,0.444
			c-0.064-0.033-0.124-0.071-0.178-0.115L167.546,333.1z"/>
	</g>
	<g>
		<path style="fill:#C70029;" d="M178.721,332.432c0,0,0.142-0.009,0.391-0.023c0.244-0.01,0.589-0.022,1.002-0.017
			c0.824,0.009,1.922,0.059,3.006,0.275c0.541,0.113,1.078,0.242,1.56,0.446c0.484,0.181,0.911,0.434,1.231,0.695
			c0.173,0.11,0.285,0.275,0.399,0.393c0.119,0.115,0.193,0.239,0.245,0.347c0.109,0.204,0.173,0.32,0.173,0.32
			s-0.088-0.098-0.242-0.269c-0.07-0.088-0.165-0.185-0.303-0.265c-0.133-0.083-0.257-0.202-0.442-0.264
			c-0.34-0.162-0.76-0.292-1.229-0.348c-0.461-0.077-0.971-0.075-1.472-0.059c-1.007,0.04-2.011,0.235-2.747,0.406
			c-0.369,0.084-0.673,0.17-0.882,0.229c-0.203,0.062-0.319,0.098-0.319,0.098l-0.016,0.005c-0.532,0.164-1.097-0.136-1.26-0.668
			s0.136-1.096,0.668-1.259C178.562,332.451,178.644,332.437,178.721,332.432z"/>
	</g>
	<g>
		<path style="fill:#C70029;" d="M178.88,335.448c0,0,0.1,0.101,0.274,0.279c0.168,0.177,0.405,0.428,0.673,0.742
			c0.537,0.626,1.223,1.485,1.773,2.443c0.271,0.48,0.528,0.97,0.692,1.467c0.183,0.483,0.273,0.971,0.288,1.384
			c0.03,0.203-0.02,0.396-0.033,0.56c-0.008,0.166-0.052,0.303-0.1,0.413c-0.081,0.217-0.127,0.341-0.127,0.341
			s0.016-0.13,0.043-0.359c0.02-0.111,0.029-0.246-0.001-0.402c-0.024-0.155-0.018-0.327-0.092-0.507
			c-0.103-0.362-0.281-0.764-0.548-1.153c-0.246-0.397-0.583-0.78-0.925-1.146c-0.694-0.731-1.502-1.357-2.115-1.799
			c-0.307-0.223-0.571-0.394-0.754-0.512c-0.181-0.112-0.284-0.176-0.284-0.176l-0.014-0.009c-0.474-0.293-0.62-0.914-0.327-1.388
			s0.914-0.62,1.388-0.327C178.76,335.34,178.825,335.394,178.88,335.448z"/>
	</g>
	<g>
		<path style="fill-rule:evenodd;clip-rule:evenodd;fill:#FF0029;" d="M171.15,326.124c-1.483,1.02-0.009,3.606-2.738,6.659
			c-2.728,3.052-2.728,3.052-2.728,3.052l10.557,2.733c0,0,2.791-3.853,2.28-6.841C178.01,328.739,173.058,324.812,171.15,326.124z"
			/>
		<path d="M171.18,326.164c-0.389,0.27-0.595,0.715-0.66,1.179c-0.081,0.463-0.082,0.942-0.113,1.425
			c-0.057,0.962-0.249,1.968-0.699,2.878c-0.228,0.452-0.504,0.878-0.826,1.264c-0.313,0.389-0.635,0.722-0.955,1.082
			c-0.647,0.703-1.334,1.371-2.013,2.046l-0.151-0.501c1.734,0.553,3.472,1.091,5.242,1.504c1.761,0.45,3.549,0.797,5.328,1.176
			l-0.383,0.137c0.365-0.596,0.699-1.24,1.004-1.878c0.303-0.641,0.567-1.298,0.756-1.966c0.085-0.336,0.183-0.666,0.238-1
			c0.053-0.333,0.1-0.667,0.105-0.994c0.016-0.166,0-0.326-0.014-0.487l-0.017-0.224l-0.055-0.266
			c-0.062-0.273-0.186-0.611-0.329-0.908c-0.594-1.22-1.512-2.365-2.602-3.288c-0.551-0.454-1.145-0.877-1.81-1.149
			C172.582,325.923,171.792,325.778,171.18,326.164z M171.121,326.083c0.655-0.435,1.485-0.289,2.174-0.071
			c0.704,0.238,1.378,0.57,2.002,0.981c1.239,0.824,2.395,1.843,3.175,3.208c0.19,0.351,0.354,0.69,0.476,1.125l0.062,0.269
			c0.025,0.135,0.029,0.211,0.045,0.32c0.026,0.203,0.053,0.406,0.045,0.605c0.02,0.806-0.155,1.58-0.393,2.307
			c-0.514,1.449-1.243,2.757-2.174,3.952l-0.017,0.022c-0.089,0.114-0.236,0.155-0.366,0.116c-1.739-0.532-3.471-1.096-5.229-1.557
			c-1.748-0.498-3.529-0.871-5.314-1.229c-0.16-0.032-0.264-0.188-0.231-0.348c0.009-0.047,0.029-0.09,0.058-0.125l0.022-0.028
			c0.595-0.749,1.182-1.506,1.808-2.229l0.947-1.061c0.298-0.341,0.58-0.694,0.826-1.073c0.51-0.748,0.847-1.617,1.038-2.545
			c0.106-0.462,0.177-0.938,0.29-1.412c0.063-0.234,0.141-0.469,0.26-0.686C170.742,326.411,170.924,326.213,171.121,326.083z"/>
	</g>
	<path style="fill-rule:evenodd;clip-rule:evenodd;fill:#C70029;" d="M166.688,335.775l1.495-1.98c0,0,1.838,1.617,4.383,2.138
		c2.546,0.521,5.259-1.818,5.259-1.818l-1.613,3.951L166.688,335.775z"/>
</g>
<g>
	<path d="M150.44,394.52c0,0-0.043-0.083-0.125-0.238c-0.064-0.103-0.249-0.504-0.36-0.933c-0.094-0.415-0.172-0.945-0.086-1.514
		c0.059-0.575,0.261-1.174,0.554-1.751c0.293-0.581,0.689-1.133,1.147-1.658c0.456-0.529,0.985-1.016,1.545-1.494
		c0.568-0.463,1.174-0.908,1.805-1.329c0.637-0.41,1.287-0.815,1.956-1.181l0.515-0.288l0.507-0.242
		c0.331-0.164,0.674-0.321,1.04-0.46c0.714-0.298,1.415-0.527,2.11-0.712c0.691-0.192,1.371-0.333,2.019-0.429
		c0.645-0.107,1.261-0.163,1.828-0.193c2.276-0.126,3.757,0.208,3.757,0.208s-1.51-0.183-3.718,0.165
		c-0.55,0.084-1.143,0.199-1.756,0.365c-0.615,0.155-1.254,0.356-1.896,0.605c-0.642,0.241-1.301,0.534-1.919,0.869
		c-0.607,0.305-1.306,0.747-1.876,1.124c-0.622,0.396-1.216,0.827-1.793,1.256c-0.569,0.439-1.104,0.892-1.596,1.351
		c-0.478,0.469-0.92,0.936-1.273,1.41c-0.357,0.471-0.642,0.939-0.825,1.377c-0.184,0.438-0.285,0.84-0.29,1.177
		c-0.032,0.341,0.045,0.611,0.104,0.828c0.08,0.195,0.096,0.274,0.223,0.467c0.092,0.15,0.142,0.229,0.142,0.229L150.44,394.52z"/>
</g>
<g>
	<path d="M183.07,391.213c0,0-0.103-0.043-0.295-0.124c-0.306-0.14-0.624-0.338-0.976-0.68c-0.712-0.675-1.249-1.887-1.354-3.252
		c-0.25-2.762,0.929-6.056,2.605-8.912c0.412-0.712,0.879-1.428,1.351-2.066c0.462-0.647,0.969-1.302,1.465-1.887
		c0.993-1.187,2.019-2.21,2.969-2.998c0.948-0.791,1.818-1.344,2.453-1.674c0.638-0.329,1.033-0.438,1.033-0.438
		s-0.383,0.148-0.977,0.534c-0.593,0.387-1.391,1.015-2.237,1.876c-0.848,0.859-1.743,1.95-2.589,3.195
		c-0.43,0.625-0.83,1.261-1.231,1.96c-0.402,0.703-0.79,1.371-1.154,2.088c-0.716,1.418-1.303,2.894-1.648,4.306
		c-0.35,1.408-0.454,2.755-0.291,3.812c0.151,1.068,0.586,1.77,0.936,2.051c0.168,0.146,0.343,0.228,0.383,0.244
		c0.163,0.057,0.25,0.087,0.25,0.087L183.07,391.213z"/>
</g>
<g>
	<path d="M192.853,294.873c0,0,0.079,0.104,0.22,0.288c0.142,0.188,0.34,0.458,0.559,0.786c0.229,0.322,0.465,0.719,0.726,1.137
		c0.256,0.421,0.494,0.892,0.745,1.351c0.107,0.239,0.216,0.479,0.322,0.714c0.099,0.238,0.224,0.458,0.295,0.696
		c0.152,0.468,0.314,0.895,0.416,1.271c0.15,0.765,0.25,1.275,0.25,1.275s-0.159-0.49-0.398-1.226
		c-0.144-0.357-0.355-0.757-0.557-1.19c-0.094-0.219-0.244-0.422-0.368-0.641c-0.13-0.215-0.262-0.433-0.394-0.651
		c-0.299-0.416-0.581-0.84-0.877-1.215c-0.3-0.373-0.57-0.725-0.828-1.006c-0.249-0.291-0.463-0.518-0.613-0.674
		c-0.156-0.16-0.245-0.251-0.245-0.251L192.853,294.873z"/>
</g>
</svg>
