<?xml version="1.0" encoding="iso-8859-1"?>
<!-- Generator: Adobe Illustrator 16.0.0, SVG Export Plug-In . SVG Version: 6.00 Build 0)  -->
<!DOCTYPE svg PUBLIC "-//W3C//DTD SVG 1.1//EN" "http://www.w3.org/Graphics/SVG/1.1/DTD/svg11.dtd">
<svg version="1.1" id="Layer_2" xmlns="http://www.w3.org/2000/svg" xmlns:xlink="http://www.w3.org/1999/xlink" x="0px" y="0px"
	 width="241.994px" height="340.219px" viewBox="0 0 241.994 340.219" style="enable-background:new 0 0 241.994 340.219;"
	 xml:space="preserve">
<path style="fill:#9B9B9B;stroke:#000000;stroke-width:2;stroke-linecap:round;stroke-linejoin:round;stroke-miterlimit:10;" d="
	M203.958,155.879c0,0,3.833,18.833,7,27.5c3.365,9.208,6,28,6,28s5.667,6.333,4,12s-3.333,8.333-3.333,8.333s-5.667-7.667-5.333-13
	s1.333-6.666,1.333-6.666s-3.333-16.501-5.667-19.167s-9-15.5-9-15.5L203.958,155.879z"/>
<path style="fill:#9B9B9B;stroke:#000000;stroke-width:2;stroke-linecap:round;stroke-linejoin:round;stroke-miterlimit:10;" d="
	M157.49,211.046l8.667,103.333c0,0,28.666,7.041,28.667-2.666c0-16.667,14.731-120.958,9.667-158.667
	c-2.865-21.333-25.532-33.333-25.532-33.333L157.49,211.046z"/>
<g>
	<g>
		<path style="fill:#C6C091;" d="M183.651,314.546c-0.402-2.035,0.444-7.095-4.688-9.106c-6.344-2.483-8.189,3.841-8.176,6.851
			c0.019,4.164,1.638,5.784,6.156,6.134C183.051,318.895,183.992,316.258,183.651,314.546z"/>
		<path style="fill:#1D1D1B;" d="M183.553,314.564c0,0-0.036-0.164-0.073-0.486c-0.029-0.314-0.071-0.776-0.125-1.364
			c-0.075-0.582-0.15-1.292-0.371-2.065c-0.214-0.772-0.571-1.61-1.152-2.345c-0.579-0.737-1.376-1.337-2.326-1.759
			c-0.476-0.227-0.979-0.368-1.548-0.514c-0.49-0.129-1.048-0.246-1.571-0.279c-1.044-0.091-2.172,0.088-3.133,0.878
			c-0.957,0.774-1.572,2.021-1.831,3.29c-0.131,0.639-0.183,1.296-0.149,1.934c0.008,0.154,0.023,0.327,0.042,0.46l0.076,0.499
			c0.049,0.34,0.126,0.615,0.199,0.916c0.322,1.199,0.807,2.146,1.627,2.646c0.814,0.519,1.905,0.729,2.957,0.901
			c0.269,0.039,0.534,0.078,0.795,0.116c0.269,0.022,0.533,0.045,0.793,0.067c0.55,0.062,0.977,0.075,1.458,0.103
			c0.935,0.034,1.802,0.036,2.512-0.191c0.713-0.204,1.262-0.624,1.536-1.102c0.289-0.473,0.333-0.94,0.325-1.239
			C183.588,314.727,183.553,314.564,183.553,314.564z M183.749,314.527c0,0,0.045,0.168,0.064,0.494
			c0.02,0.321,0.033,0.817-0.188,1.415c-0.221,0.59-0.703,1.264-1.464,1.785c-0.757,0.512-1.732,0.913-2.806,1.091
			c-1.118,0.188-2.221,0.184-3.454,0.07c-1.215-0.153-2.606-0.44-3.856-1.415c-0.61-0.488-1.119-1.153-1.419-1.87
			c-0.304-0.717-0.434-1.463-0.446-2.18c-0.015-1.435,0.208-2.824,0.608-4.158c0.398-1.325,0.916-2.624,1.796-3.773
			c0.438-0.573,1.01-1.081,1.681-1.439c0.67-0.361,1.434-0.528,2.162-0.541c0.738-0.001,1.412,0.108,2.08,0.342
			c0.589,0.214,1.197,0.506,1.738,0.831c1.093,0.668,1.933,1.622,2.419,2.601c0.495,0.979,0.694,1.941,0.801,2.771
			c0.098,0.835,0.136,1.555,0.143,2.146C183.633,313.882,183.75,314.527,183.749,314.527z"/>
	</g>
	<path style="opacity:0.4;fill:#FFFFFF;" d="M174.631,306.317c3.197-1.342,5.032,0.603,6.808,2.784
		c1.846,2.268,0.813,3.681,0.904,5.262c0.027,0.478-2.661-4.428-5.889-4.938c-2.345-0.37-4.141,1.948-4.486,1.283
		C171.22,309.269,173.771,306.679,174.631,306.317z"/>
	<g>
		<path style="fill:#C6C091;" d="M195.171,313.398c0.142-1.958-0.556-7.991-5.766-8.19c-6.441-0.241-6.629,7.53-5.679,10.215
			c1.313,3.712,4.606,2.528,7.737,2.086C195.895,316.881,194.995,315.844,195.171,313.398z"/>
		<path style="fill:#1D1D1B;" d="M195.072,313.392c0,0,0.076-0.627-0.086-1.718c-0.088-0.541-0.237-1.194-0.501-1.904
			c-0.282-0.699-0.676-1.467-1.276-2.126c-0.593-0.662-1.383-1.189-2.292-1.425c-0.456-0.111-0.935-0.186-1.438-0.175
			c-0.174,0.013-0.58,0.024-0.786,0.06c-0.23,0.018-0.471,0.073-0.724,0.11c-0.969,0.22-1.891,0.634-2.674,1.442
			c-0.781,0.8-1.336,1.95-1.547,3.161c-0.223,1.209-0.155,2.487,0.172,3.634c0.079,0.279,0.191,0.571,0.3,0.794
			c0.157,0.297,0.286,0.499,0.456,0.71c0.333,0.419,0.707,0.7,1.095,0.871c0.769,0.354,1.783,0.255,2.784,0.084
			c0.991-0.17,2.064-0.37,3.001-0.445c0.946-0.098,1.699-0.143,2.336-0.253c0.292-0.073,0.51-0.167,0.675-0.354
			c0.173-0.185,0.258-0.468,0.316-0.729c0.099-0.532,0.129-0.982,0.153-1.278C195.06,313.551,195.072,313.392,195.072,313.392z
			 M195.271,313.405c0,0-0.003,0.157-0.009,0.451c0.003,0.299,0.058,0.72,0.122,1.297c0.035,0.287,0.065,0.633-0.04,1.059
			c-0.104,0.43-0.434,0.855-0.816,1.155c-0.742,0.602-1.722,0.908-2.649,1.104c-0.946,0.186-1.892,0.403-3.062,0.52
			c-0.578,0.046-1.197,0.082-1.865,0.003c-0.66-0.073-1.396-0.254-2.038-0.685c-0.649-0.418-1.113-1.066-1.373-1.715
			c-0.138-0.318-0.239-0.689-0.301-0.971c-0.096-0.361-0.132-0.673-0.178-1.006c-0.131-1.307-0.093-2.599,0.058-3.896
			c0.169-1.287,0.426-2.616,1.125-3.84c0.684-1.224,1.991-2.177,3.353-2.425c0.333-0.072,0.673-0.107,1.027-0.118
			c0.375-0.009,0.55,0.014,0.946,0.05c0.638,0.071,1.271,0.21,1.839,0.473c1.154,0.505,1.99,1.388,2.509,2.258
			c0.523,0.881,0.803,1.75,0.986,2.519c0.19,0.768,0.276,1.447,0.324,2.006C195.33,312.76,195.271,313.405,195.271,313.405z"/>
	</g>
	<path style="opacity:0.4;fill:#FFFFFF;" d="M186.351,307.495c0.784-0.845,2.342-1.444,4.608-0.05
		c2.355,1.451,3.183,5.458,3.756,6.843c0.174,0.417-6.552-4.9-9.048-3.002C183.574,312.879,185.696,308.202,186.351,307.495z"/>
</g>
<path style="fill:#9B9B9B;stroke:#000000;stroke-width:2;stroke-linecap:round;stroke-linejoin:round;stroke-miterlimit:10;" d="
	M121.625,213.047l3.537,103.333c0,0,11.699,7.041,11.7-2.666c0-16.667,7.074-122.667,4.081-160.001
	c-0.566-7.062-8.162,11.334-8.162,11.334L121.625,213.047z"/>
<path style="fill:#C0C0C0;stroke:#000000;stroke-width:2;stroke-linecap:round;stroke-linejoin:round;stroke-miterlimit:10;" d="
	M191.625,137.713c-8.38-35.075-27.347-65.8-94.667-46.001c-38.905,11.443-37.466,76.819-34.676,96.691
	c4.676,33.309,20.536,38.145,25.733,83.739c1.11,9.736,4.004,59.841,7.763,60.821c2.98,0.778,27.642,8.486,32.491-1.53l4.295,0.758
	c0.616,3.002,1.546,4.857,2.88,5.18c4.181,1.009,34.973,5.014,34.848-3.325c-0.333-22.334,8.352-52.58,10.667-67.667
	c4.31-28.098,7.492-43.134,13.543-70.924 M127.18,219.915c1.653-2.644,5.619-1.542,10.908-0.66
	c2.403,0.399-3.416,43.517-5.667,77.548c-0.069,0.007-0.139,0.013-0.208,0.019c-0.595-26.261-5.297-56.236-5.584-60.819
	C126.188,228.95,125.527,222.56,127.18,219.915z"/>
<g>
	<path style="fill:#C0C0C0;" d="M98.128,211.571c0,0,16.38,12.487,29.052,14.177c12.671,1.689,27.653-5.744,27.653-5.744"/>
	<path d="M98.128,211.571c0,0,0.799,0.529,2.226,1.405c1.423,0.879,3.463,2.122,5.959,3.516c2.488,1.405,5.438,2.958,8.673,4.416
		c1.623,0.716,3.311,1.423,5.055,2.04c1.742,0.621,3.547,1.126,5.357,1.507c1.812,0.378,3.658,0.537,5.475,0.543
		c1.827,0.023,3.635-0.104,5.377-0.321c3.491-0.4,6.727-1.133,9.477-1.85c2.755-0.714,5.025-1.445,6.615-1.964
		c1.586-0.53,2.49-0.859,2.49-0.859s-3.255,2.098-8.712,4.083c-2.724,0.987-5.996,1.934-9.617,2.485
		c-1.812,0.256-3.706,0.417-5.645,0.421c-1.947-0.017-3.927-0.234-5.857-0.649c-1.933-0.407-3.795-1.028-5.583-1.716
		c-1.787-0.692-3.501-1.463-5.115-2.289c-3.239-1.631-6.109-3.405-8.51-5.001c-2.393-1.61-4.313-3.05-5.631-4.089
		C98.851,212.201,98.128,211.571,98.128,211.571z"/>
</g>
<path style="opacity:0.1;" d="M98.958,212.879c0,0,12,15.5,14,40.167c1.041,12.831,3.458,40.949,4.969,57.032
	c0.287,3.055,2.697,12.802-0.969,11.135c-6.896-3.135-8.987,5.857-10.833,2.167c-1.167-2.333-5.939-3.769-8-3.5
	c-4.689,0.611-3.117,7.96-2.167,8.749c1.521,1.262,23.162,2.39,23.333,2.251c10.5-8.5,12.721-0.598,12.605-0.688
	c0,0-2.938-61.812-3.605-73.812s-4.667-30.667-4.667-30.667L98.958,212.879z"/>
<path style="fill:#C0C0C0;stroke:#000000;stroke-width:2;stroke-linecap:round;stroke-linejoin:round;stroke-miterlimit:10;" d="
	M132.958,334.379c0,0-2.5-10.167-2-21.667c0.252-5.801,0.178-9.939,1.333-23"/>
<g>
	<path d="M217.625,210.546c0,0-0.074,0.028-0.128,0.14c-0.053,0.111-0.085,0.285-0.067,0.517c0.026,0.458,0.2,1.109,0.466,1.877
		c0.27,0.769,0.614,1.655,0.989,2.609c0.201,0.472,0.389,0.969,0.586,1.471c0.214,0.512,0.409,0.976,0.605,1.558
		c0.209,0.65,0.284,1.251,0.282,1.856c-0.004,0.599-0.07,1.172-0.166,1.712c-0.219,1.078-0.557,2.025-0.906,2.806
		c-0.696,1.563-1.411,2.455-1.411,2.455s0.301-1.096,0.648-2.703c0.165-0.805,0.345-1.741,0.412-2.729
		c0.044-0.491,0.057-0.997,0.017-1.492c-0.043-0.485-0.109-1-0.262-1.403c-0.182-0.464-0.415-1.026-0.594-1.535
		c-0.186-0.523-0.37-1.037-0.51-1.55c-0.3-1.018-0.501-2.001-0.591-2.861c-0.091-0.858-0.059-1.61,0.115-2.118
		c0.069-0.253,0.208-0.439,0.319-0.526C217.546,210.536,217.625,210.546,217.625,210.546z"/>
</g>
<g>
	<path style="fill:#D8D3AB;" d="M107.466,333.339c-0.396-2.086,0.104-7.825-5.375-9.967c-6.774-2.645-8.369,4.369-8.409,7.444
		c-0.055,4.253,2.92,5.188,6.505,5.383C106.243,336.528,107.802,335.094,107.466,333.339z"/>
	<path style="fill:#1D1D1B;" d="M107.368,333.356c0,0-0.035-0.169-0.076-0.498c-0.037-0.323-0.091-0.797-0.16-1.4
		c-0.176-1.174-0.441-2.963-1.583-4.601c-0.561-0.809-1.332-1.529-2.275-2.051c-0.462-0.256-0.998-0.502-1.498-0.656
		c-0.642-0.189-1.116-0.297-1.692-0.408c-1.11-0.177-2.231-0.143-3.29,0.48c-1.057,0.624-1.84,1.824-2.229,3.105
		c-0.39,1.285-0.512,2.686-0.281,3.962c0.231,1.257,0.792,2.241,1.61,2.793c0.833,0.569,1.954,0.773,3.037,0.93
		c0.547,0.063,1.098,0.155,1.629,0.184c0.543,0.044,1.068,0.088,1.572,0.129c0.994,0.088,1.915,0.185,2.718,0.142
		c0.799-0.034,1.5-0.2,1.942-0.539c0.446-0.337,0.592-0.794,0.601-1.097C107.409,333.524,107.357,333.356,107.368,333.356z
		 M107.565,333.321c-0.012,0.001,0.051,0.174,0.047,0.517c0.002,0.332-0.089,0.883-0.542,1.388c-0.448,0.496-1.158,0.904-2,1.233
		c-0.847,0.32-1.833,0.579-2.917,0.701c-0.552,0.037-1.121,0.088-1.669,0.067c-0.589-0.007-1.194-0.013-1.829-0.093
		c-1.249-0.172-2.696-0.509-3.933-1.558c-0.61-0.514-1.1-1.215-1.362-1.969c-0.13-0.38-0.207-0.762-0.246-1.146
		c-0.017-0.378-0.048-0.815,0-1.133c0.111-1.451,0.444-2.83,0.87-4.188c0.455-1.34,1.016-2.699,2.097-3.808
		c0.542-0.543,1.238-0.975,1.993-1.203c0.755-0.229,1.546-0.268,2.27-0.156c0.708,0.086,1.466,0.343,1.993,0.595
		c0.665,0.301,1.224,0.613,1.752,1.02c1.047,0.796,1.791,1.823,2.245,2.824c0.458,1.006,0.679,1.974,0.811,2.823
		c0.141,0.849,0.194,1.59,0.234,2.196C107.451,332.651,107.565,333.321,107.565,333.321z"/>
</g>
<path style="opacity:0.4;fill:#FFFFFF;" d="M96.381,325.51c1.352-1.027,5.051-2.094,6.92,0.164c1.943,2.348,2.693,5.839,2.762,7.456
	c0.013,0.294-2.276-1.859-4.535-3.449c-1.491-1.048-4.352-1.027-5.147-0.718C92.576,330.443,95.672,326.049,96.381,325.51z"/>
<g>
	<path style="fill:#D8D3AB;" d="M119.795,333.158c-0.358-1.982,0.546-6.883-4.405-8.919c-6.121-2.514-8.014,3.599-8.05,6.521
		c-0.049,4.043,1.497,5.643,5.878,6.054C119.142,337.371,120.099,334.826,119.795,333.158z"/>
	<path style="fill:#1D1D1B;" d="M119.696,333.175c0,0-0.032-0.159-0.063-0.473c-0.023-0.307-0.057-0.756-0.1-1.327
		c-0.064-0.566-0.126-1.257-0.33-2.012c-0.197-0.752-0.532-1.569-1.086-2.289c-0.551-0.721-1.315-1.312-2.228-1.733
		c-0.458-0.226-0.942-0.369-1.493-0.519c-0.471-0.132-1.009-0.255-1.514-0.295c-1.006-0.107-2.098,0.039-3.046,0.785
		c-0.942,0.731-1.562,1.93-1.832,3.158c-0.298,1.231-0.186,2.539,0.113,3.696c0.298,1.167,0.752,2.084,1.534,2.576
		c0.776,0.51,1.827,0.731,2.843,0.914c0.26,0.043,0.516,0.085,0.769,0.126c0.26,0.027,0.516,0.054,0.768,0.08
		c0.533,0.069,0.944,0.09,1.411,0.127c0.904,0.052,1.745,0.073,2.438-0.133c0.695-0.182,1.235-0.576,1.51-1.034
		c0.289-0.453,0.34-0.905,0.337-1.195C119.729,333.333,119.697,333.175,119.696,333.175z M119.894,333.142
		c0,0,0.041,0.164,0.055,0.48c0.014,0.313,0.02,0.796-0.204,1.374c-0.224,0.57-0.702,1.222-1.45,1.719
		c-0.744,0.489-1.699,0.869-2.747,1.026c-1.092,0.169-2.162,0.147-3.361,0.019c-1.179-0.168-2.53-0.471-3.735-1.444
		c-0.587-0.486-1.074-1.146-1.354-1.851c-0.284-0.704-0.397-1.435-0.395-2.132c0.013-1.397,0.257-2.743,0.669-4.033
		c0.41-1.281,0.932-2.534,1.805-3.643c0.435-0.552,0.999-1.039,1.658-1.379c0.659-0.345,1.406-0.496,2.117-0.497
		c0.72,0.01,1.374,0.128,2.021,0.367c0.569,0.218,1.156,0.514,1.678,0.839c1.052,0.671,1.853,1.615,2.308,2.577
		c0.463,0.963,0.639,1.901,0.728,2.71c0.08,0.813,0.104,1.513,0.101,2.087C119.791,332.513,119.894,333.142,119.894,333.142z"/>
</g>
<path style="opacity:0.4;fill:#FFFFFF;" d="M111.169,325.021c3.126-1.251,4.876,0.667,6.565,2.814
	c1.756,2.231,0.73,3.587,0.793,5.124c0.019,0.463-2.513-4.343-5.639-4.891c-2.271-0.397-4.052,1.824-4.377,1.173
	C107.809,327.833,110.328,325.359,111.169,325.021z"/>
<g>
	<path style="fill:#D8D3AB;" d="M131.618,333.072c-0.783-1.865,0.625-8.2-4.79-9.167c-6.693-1.19-7.017,6.826-6.431,9.693
		c0.812,3.965,3.389,3.158,6.725,3.107C132.208,336.629,132.279,334.641,131.618,333.072z"/>
	<path style="fill:#1D1D1B;" d="M131.524,333.106c0,0-0.066-0.142-0.138-0.452c-0.066-0.302-0.124-0.743-0.183-1.302
		c-0.065-0.559-0.134-1.236-0.27-1.995c-0.154-0.753-0.366-1.605-0.803-2.394c-0.426-0.791-1.081-1.473-1.936-1.839
		c-0.428-0.181-0.894-0.32-1.4-0.38c-0.179-0.016-0.576-0.055-0.802-0.056c-0.236-0.014-0.482-0.001-0.741,0.005
		c-1.004,0.072-1.958,0.351-2.795,1.093c-0.832,0.737-1.439,1.883-1.707,3.095c-0.282,1.214-0.277,2.501-0.062,3.7
		c0.177,1.187,0.816,2.327,1.455,2.785c0.614,0.469,1.6,0.445,2.655,0.368c0.524-0.014,1.06-0.072,1.592-0.066
		c0.518,0.006,1.018,0.012,1.498,0.018c0.865-0.001,1.688,0.04,2.367-0.069c0.673-0.106,1.189-0.416,1.375-0.887
		c0.177-0.465,0.11-0.918,0.036-1.193c-0.077-0.28-0.14-0.426-0.14-0.426L131.524,333.106z M131.71,333.033
		c0,0,0.072,0.146,0.168,0.439c0.09,0.29,0.271,0.732,0.192,1.368c-0.033,0.646-0.581,1.412-1.351,1.88
		c-0.768,0.485-1.703,0.812-2.751,0.939c-0.975,0.093-1.966,0.171-3.106,0.2c-0.576-0.008-1.197-0.023-1.881-0.168
		c-0.67-0.142-1.455-0.455-2.012-1.05c-0.565-0.579-0.836-1.31-0.961-1.979c-0.074-0.351-0.1-0.68-0.128-1.007
		c-0.038-0.335-0.041-0.664-0.053-0.991c-0.011-1.31,0.09-2.606,0.298-3.906c0.228-1.287,0.53-2.626,1.337-3.824
		c0.792-1.207,2.292-1.999,3.682-2.031c0.341-0.028,0.689-0.006,1.042,0.032c0.361,0.048,0.544,0.092,0.931,0.186
		c0.626,0.159,1.246,0.385,1.778,0.743c1.098,0.691,1.748,1.784,2.049,2.756c0.31,0.986,0.385,1.894,0.428,2.684
		c0.051,0.789,0.053,1.471,0.077,2.029c0.027,0.558,0.072,0.992,0.137,1.277c0.059,0.275,0.125,0.428,0.125,0.428L131.71,333.033z"
		/>
</g>
<path style="opacity:0.4;fill:#FFFFFF;" d="M123.291,325.781c0.946-0.743,2.666-1.124,4.822,0.626
	c2.243,1.819,2.502,6.013,2.894,7.503c0.118,0.45-6.108-5.939-9.001-4.377C119.578,330.844,122.5,326.403,123.291,325.781z"/>
<path style="opacity:0.1;" d="M170.63,110.911c0.541-4.326-31.171-0.666-31.171-0.666s-59.212-3.879-71.001,13.134
	c-3.75,5.412-6.173,21.482-6,27.5c0.111,3.861,15.405-10.568,28-10c6.435,0.291,4.776,20.406,15.306,21.321
	c12.476,1.084,56.053,89.62,60.904,76.681c2.5-6.666,12.215-10.262,4-11.666c-19.5-3.334-43.977-59.44-45.212-71.97
	c-1.609-16.338,10.947-19.222,20.669-22c10.5-3,11.167-5.699,18.167,1.801c4.122,4.418,2,8,11.333,14.667
	c14,4,14.793-5.894,16.772-6.491C186.049,120.298,170.519,111.802,170.63,110.911z"/>
<path style="opacity:0.1;" d="M174.458,240.379c-5.099,16.655-11.412,52.436-13.264,75.02c-0.736,8.98-4.892,15.323-10.736,10.73
	c-7-5.5-13.4-1.204-13.5-0.25c-0.601,5.761,22.34,8.139,22.5,9c0.306,1.642,7.459,2.401,10-5c1.381-4.021-0.5-9,1-18
	c1.315-7.892,6.298-31.47,8.5-41.5c3-13.667,8.843-52.2,9-52.75c1.892-6.62,3.44-9.646,5-21.916c0,0-5.396,11.884-7.333,18
	C180.084,231.215,178.185,228.207,174.458,240.379z"/>
<path style="fill:#C0C0C0;stroke:#000000;stroke-width:2;stroke-linecap:round;stroke-linejoin:round;stroke-miterlimit:10;" d="
	M151.368,13.626c-12.242,30.619-18.189,92.461,6.426,105.119c11.666,6,14.498,22.003,20.332,23.334
	c20.005,4.562,25.062-21.766,48.668-54c1.386-1.894,7.716-3.711,8.666-6c6.265-15.087,11.942-56.016-11.133-58.374
	c-17.868-1.826-31.155-25.742-59.056-22.382C159.662,1.999,154.562,5.635,151.368,13.626z"/>
<path style="fill:#C0C0C0;stroke:#000000;stroke-width:2;stroke-linecap:round;stroke-linejoin:round;stroke-miterlimit:10;" d="
	M90.596,13.626c2.31,8.291,6.86,103.619-11.137,110.119c-15.097,5.453-22.815,18.233-29.001,17.634
	c-13.604-1.318-14.593-25.776-34.233-51.026c-2.403-3.088-4.72-2.023-7.1-5.273c-10.697-14.609-13.926-54.3,9.833-56.2
	c12.5-1,20.178-25.741,46.667-27.634C72.625,0.745,88.288,5.335,90.596,13.626z"/>
<path style="fill:#C0C0C0;stroke:#000000;stroke-width:2;stroke-linecap:round;stroke-linejoin:round;stroke-miterlimit:10;" d="
	M68.875,88.495c1.871,8.795,9.538,9.967,16.668,20c13.5,19,12.343,25.008,40,21.334c19.495-2.59,19.752-22.509,29.332-31.334
	c15.969-14.707,21.46-22.307,20.668-33.333c-1.835-25.533-3.585-40.95-29.585-57.45c-7.177-4.555-12.517-2.77-30-1.333
	c-6.457,0.53-17-5.667-29.667,8.001c-4.595,4.959-7.865,13.963-8.833,20.499c-2,13.5-5.5,23.667-5.5,23.667"/>
<path style="opacity:0.1;" d="M113.708,7.629c0,0,30.884,5.98,40.521,28.054c1.836,4.207,2.479,14.862,2.479,20.196
	c0,3.59,10.334,7.426,15.75,20.75c0.819,2.016,8.25-22-7.5-49.5c-10.342-18.057-15.637-15.508-22.75-20
	c-3.167-2-13.162-1.989-12.25-2.25C123.863,6.62,113.708,7.629,113.708,7.629z"/>
<g>
	<path style="fill:#161615;" d="M89.776,43.396c0.184-3.632,2.287-7.094,4.69-7.725c0.625-0.165,1.203-0.116,1.721,0.098
		c0.637,0.26,1.16,0.802,1.56,1.524c0.527,0.967,0.819,2.266,0.741,3.803c-0.186,3.63-2.286,7.09-4.694,7.727
		C91.39,49.454,89.587,47.026,89.776,43.396z"/>
	<path style="fill:#FFFFFF;" d="M94.333,41.88c0.178,1.062,1.021,1.712,1.884,1.454c0.867-0.262,1.424-1.337,1.25-2.399
		c-0.177-1.062-1.019-1.712-1.885-1.451C94.718,39.744,94.158,40.817,94.333,41.88z"/>
</g>
<g>
	<path style="fill:#161615;" d="M145.737,43.396c-0.184-3.632-2.287-7.094-4.69-7.725c-0.625-0.165-1.203-0.116-1.721,0.098
		c-0.637,0.26-1.16,0.802-1.56,1.524c-0.527,0.967-0.819,2.266-0.741,3.803c0.186,3.63,2.286,7.09,4.694,7.727
		C144.123,49.454,145.926,47.026,145.737,43.396z"/>
	<path style="fill:#FFFFFF;" d="M141.18,41.88c-0.178,1.062-1.021,1.712-1.884,1.454c-0.867-0.262-1.424-1.337-1.25-2.399
		c0.177-1.062,1.019-1.712,1.885-1.451C140.794,39.744,141.355,40.817,141.18,41.88z"/>
</g>
<path style="fill:#E3097E;stroke:#000000;stroke-width:1.5;stroke-linecap:round;stroke-linejoin:round;stroke-miterlimit:10;" d="
	M112.222,123.68c0,0,3.903,1.466,17.734-5.267c9.692-4.719,7.334-19.334,7.334-19.334l-17.332-11.334L112.222,123.68z"/>
<g>
	<g>
		<path style="fill:#F7F5C3;" d="M76.096,74.387c-0.766,0.22-1.459,0.475-2.188,0.765c-1.409,3.858-2.997,7.65-4.759,11.305
			c-1.9,3.9-3.798,7.801-5.697,11.668c-1.729,3.584-3.915,6.826-6.63,9.726c1.228,0.542,2.414,0.456,3.556-0.226
			c1.799-1.072,3.528-2.179,5.221-3.424c3.421-2.353,6.664-4.98,9.732-7.747c1.548-1.419,7.325-6.874,8.841-8.292V75.457
			C81.669,73.818,78.978,73.474,76.096,74.387z"/>
		<path style="fill:#FFFFFF;" d="M67.207,82.4c-1.484,3.616-3.25,7.096-5.226,10.405c-2.284,3.766-4.254,7.633-6.012,11.602
			c-0.606,1.439-0.349,2.588,0.853,3.442c2.715-2.899,4.9-6.142,6.63-9.726c1.899-3.867,3.797-7.768,5.697-11.668
			c1.762-3.654,3.35-7.446,4.759-11.305C70.755,76.802,68.521,79.206,67.207,82.4z"/>
	</g>
	<path style="fill:none;stroke:#000000;stroke-width:2;stroke-linecap:round;stroke-linejoin:round;" d="M76.096,74.387
		c-0.766,0.22-1.459,0.475-2.188,0.765c-3.152,1.65-5.387,4.055-6.701,7.249c-1.484,3.616-3.25,7.096-5.226,10.405
		c-2.284,3.766-4.254,7.633-6.012,11.602c-0.606,1.439-0.349,2.588,0.853,3.442c1.228,0.542,2.414,0.456,3.556-0.226
		c1.799-1.072,3.528-2.179,5.221-3.424c3.421-2.353,6.664-4.98,9.732-7.747c1.548-1.419,7.325-6.874,8.841-8.292V75.457
		C81.669,73.818,78.978,73.474,76.096,74.387z"/>
</g>
<g>
	<g>
		<path style="fill:#F7F5C3;" d="M138.738,76.259l4.693,16.346c1.705,1.379,3.49,2.723,5.234,4.103
			c3.453,2.69,7.105,5.245,10.96,7.53c1.906,1.211,3.854,2.287,5.88,3.328c1.286,0.66,2.625,0.742,4.011,0.211
			c-3.057-2.82-5.516-5.976-7.457-9.467c-2.136-3.766-4.266-7.563-6.4-11.361c-1.979-3.559-3.761-7.252-5.342-11.011
			c-0.822-0.281-1.604-0.528-2.467-0.74C144.602,74.312,141.565,74.655,138.738,76.259z"/>
		<path style="fill:#FFFFFF;" d="M150.317,75.938c1.581,3.759,3.363,7.452,5.342,11.011c2.135,3.798,4.265,7.596,6.4,11.361
			c1.941,3.491,4.4,6.646,7.457,9.467c1.355-0.836,1.651-1.955,0.97-3.357c-1.975-3.865-4.187-7.631-6.755-11.297
			c-2.222-3.222-4.208-6.61-5.871-10.133C156.382,79.878,153.868,77.54,150.317,75.938z"/>
	</g>
	<path style="fill:none;stroke:#000000;stroke-width:2;stroke-linecap:round;stroke-linejoin:round;" d="M147.85,75.197
		c0.862,0.212,1.645,0.459,2.467,0.74c3.551,1.603,6.065,3.94,7.543,7.052c1.663,3.522,3.649,6.911,5.871,10.133
		c2.568,3.666,4.78,7.432,6.755,11.297c0.682,1.402,0.386,2.521-0.97,3.357c-1.386,0.531-2.725,0.449-4.011-0.211
		c-2.026-1.041-3.974-2.117-5.88-3.328c-3.854-2.285-7.507-4.84-10.96-7.53c-1.744-1.38-3.529-2.724-5.234-4.103l-13.475-10.859
		C132.784,80.144,144.602,74.312,147.85,75.197z"/>
</g>
<path style="fill:#E3097E;stroke:#000000;stroke-linecap:round;stroke-linejoin:round;stroke-miterlimit:10;" d="M164.651,227.773
	c1.708,0.846,3.009,7.203-2.326,9.953c-3.041,1.567-30.528-33.379-31.531-33.593c-2.538-0.544,25.011,27.013,26.279,27.013
	C158.34,231.146,162.897,226.904,164.651,227.773z"/>
<path style="fill:#C0C0C0;stroke:#000000;stroke-width:2;stroke-linecap:round;stroke-linejoin:round;stroke-miterlimit:10;" d="
	M67.458,64.879c-3.25,5-2.59,10.186-0.002,16.866c-1.498-3.866,7.021-8.176,12.5-6.5c4.367,1.336,5.521,4.207,3.5,34.5
	c-1.334,20,5.906,50.178,11.502,64.634c12,31,46.487,52.809,56.925,59.834c4.36,2.936,2.278,7.668,5.575,8.666
	c4.09,1.238,0.234-5.824,6.586-9.999c3.04-1.999,0.507-8.001-4.562-8.667c-7.845-1.032-39.024-50.334-39.526-67.8
	c-0.422-14.696,2.797-24.096,8-38.668c2.014-5.639,16.5-24.5,16.5-24.5s-2.406-1.771-2.831-5.947
	c-0.669-6.553,2.481-11.877,11.331-8.553c3.549,1.334,9.669,11,9.669,11s18.668-6.666,4-24"/>
<g>
	<path style="fill:#B0B0B0;" d="M85.802,113.171c1.599,0.861,3.379,1.273,5.133,1.646c1.766,0.354,3.553,0.586,5.345,0.749
		c3.585,0.321,7.188,0.374,10.783,0.288c3.591-0.051,7.152-0.143,10.626-0.729c1.732-0.285,3.44-0.673,5.056-1.226
		c0.806-0.277,1.588-0.597,2.316-0.97c0.36-0.188,0.712-0.387,1.033-0.6c0.159-0.107,0.314-0.217,0.453-0.327l0.192-0.162
		c0.044-0.036,0.142-0.138,0.093-0.089l2.25,1.985c-0.203,0.214-0.273,0.265-0.402,0.376l-0.338,0.262
		c-0.222,0.164-0.442,0.309-0.664,0.445c-0.442,0.273-0.891,0.506-1.342,0.719c-0.901,0.421-1.813,0.752-2.729,1.033
		c-1.836,0.556-3.689,0.903-5.54,1.143c-3.7,0.449-7.411,0.535-11.059,0.283c-3.646-0.273-7.286-0.687-10.878-1.371
		c-1.795-0.344-3.58-0.757-5.325-1.29C89.072,114.787,87.315,114.19,85.802,113.171z"/>
</g>
<g>
	<path style="fill:#B0B0B0;" d="M80.458,63.879c0,0,1.021-0.526,2.894-1.255c1.872-0.726,4.597-1.657,7.951-2.474
		c3.348-0.837,7.326-1.564,11.63-1.99c2.152-0.203,4.384-0.371,6.657-0.423c1.136-0.003,2.282-0.005,3.432-0.007
		c1.15,0.008,2.304,0.066,3.458,0.107l0.865,0.044c0.354,0.014,0.587,0.048,0.886,0.071l1.697,0.155
		c1.119,0.082,2.28,0.256,3.419,0.404c1.148,0.128,2.253,0.353,3.35,0.561c1.1,0.191,2.172,0.444,3.229,0.684
		c2.116,0.464,4.125,1.058,6.014,1.652c1.894,0.579,3.649,1.233,5.253,1.868c3.212,1.263,5.788,2.543,7.551,3.5
		c1.764,0.961,2.715,1.602,2.715,1.602s-0.267-0.102-0.768-0.292c-0.505-0.178-1.244-0.438-2.186-0.769
		c-1.884-0.646-4.589-1.512-7.857-2.42c-1.635-0.451-3.415-0.898-5.299-1.343c-1.885-0.445-3.887-0.841-5.957-1.224
		c-2.064-0.392-4.236-0.683-6.4-0.949c-1.087-0.124-2.164-0.274-3.31-0.341l-1.699-0.129c-0.269-0.017-0.602-0.054-0.817-0.054
		l-0.842-0.029c-1.122-0.042-2.242-0.128-3.36-0.149c-1.119-0.016-2.233-0.03-3.339-0.046c-1.105,0.029-2.202,0.048-3.287,0.048
		c-1.084,0.021-2.154,0.079-3.208,0.116c-2.104,0.126-4.143,0.247-6.072,0.432c-1.927,0.192-3.751,0.393-5.432,0.616
		c-3.359,0.459-6.154,0.954-8.105,1.352C81.568,63.591,80.458,63.879,80.458,63.879z"/>
</g>
<g>
	<path style="fill:#B0B0B0;" d="M86.625,126.245c1.139,1.094,2.525,1.871,3.938,2.517c1.424,0.637,2.913,1.105,4.424,1.448
		c3.028,0.682,6.143,0.859,9.228,0.732c1.543-0.057,3.082-0.224,4.615-0.402c1.503-0.172,3.015-0.443,4.481-0.812
		c1.468-0.374,2.906-0.847,4.284-1.433c0.688-0.292,1.36-0.614,2.011-0.964c0.627-0.34,1.316-0.76,1.778-1.113l1.812,2.391
		c-0.82,0.563-1.511,0.913-2.283,1.294c-0.756,0.361-1.521,0.685-2.299,0.97c-1.553,0.572-3.141,1.008-4.743,1.334
		c-1.606,0.322-3.217,0.531-4.85,0.639c-1.605,0.092-3.218,0.059-4.824-0.026c-3.211-0.187-6.417-0.692-9.463-1.705
		c-1.521-0.508-2.998-1.141-4.385-1.934C88.977,128.38,87.654,127.45,86.625,126.245z"/>
</g>
<path style="opacity:0.17;" d="M144.813,92.434c0,0-0.333-8.083,3.644-10.688c3.978-2.604,7.5-1,7.5-1s-9.03-7.514-12.5,0
	C140.457,87.245,144.813,92.434,144.813,92.434z"/>
<path style="fill:#B0B0B0;" d="M122.373,116.672c-7.644,15.488-8.914,25.207-7.914,42.207c2.094,35.601,36.21,63.002,41.71,68.502
	c2.076,2.076,2,11.5,2,11.5s-0.915-1.391,0.925-5.314c0.913-1.94,3.575-4.036,3.575-5.186c0-2.305-4.133-2.303-5.415-2.789
	c-2.388-0.907-37.727-46.67-38.297-69.347c-0.248-9.866-0.287-12.344,3.416-27.943c0.762-3.208,2.37-6.046,3.378-8.407
	c4.708-11.016,10.449-16.377,17.208-26.516c1.491-2.234-8.279,4.903-12.502,9.866C127.988,106.149,126.958,107.379,122.373,116.672z
	"/>
<g>
	<path d="M156.663,226.809c-0.157-0.217-0.22-0.494-0.277-0.758c-0.041-0.27-0.1-0.539-0.075-0.815
		c0.036-0.269,0.105-0.562,0.213-0.828c0.119-0.28,0.225-0.518,0.495-0.81l0.658,0.754c-0.092,0.061-0.255,0.262-0.352,0.434
		c-0.111,0.189-0.191,0.381-0.258,0.605C156.896,225.832,156.635,226.297,156.663,226.809z"/>
</g>
<g>
	<path d="M150.952,225.357c1.1-0.146,2.213-0.5,3.007-1.171c0.394-0.32,0.629-0.769,0.885-1.239
		c0.121-0.232,0.224-0.471,0.299-0.705c0.035-0.116,0.066-0.232,0.084-0.342c0.02-0.09,0.018-0.26,0.015-0.223l0.983-0.178
		c0.024,0.316-0.024,0.427-0.063,0.609c-0.043,0.164-0.102,0.312-0.164,0.459c-0.123,0.288-0.273,0.55-0.436,0.799
		c-0.178,0.264-0.315,0.47-0.533,0.717c-0.216,0.236-0.467,0.428-0.728,0.583C153.241,225.272,152.067,225.397,150.952,225.357z"/>
</g>
<path style="opacity:0.17;" d="M66.133,82.126c0,0,9.821-4.848,13.133-1.592c3.311,3.256,4.025,6.879,4.025,6.879
	s3.667-12.668-3.485-12.194C72.908,75.675,66.133,82.126,66.133,82.126z"/>
<g>
	<path style="fill:#C0C0C0;" d="M79.458,53.379"/>
</g>
<g>
	<path d="M85.958,50.046c0,0-0.311,0.23-0.855,0.633c-0.272,0.201-0.602,0.445-0.981,0.726c-0.382,0.276-0.797,0.609-1.29,0.918
		c-0.972,0.635-2.107,1.399-3.338,2.159c-0.612,0.387-1.253,0.779-1.879,1.202c-0.626,0.424-1.281,0.828-1.899,1.277
		c-0.603,0.462-1.207,0.924-1.801,1.379c-0.577,0.472-1.079,1.006-1.598,1.481c-0.251,0.246-0.514,0.473-0.743,0.722
		c-0.214,0.263-0.422,0.521-0.626,0.771c-0.405,0.498-0.788,0.969-1.142,1.404c-0.339,0.444-0.579,0.911-0.828,1.292
		c-0.24,0.388-0.449,0.727-0.621,1.005c-0.344,0.556-0.54,0.873-0.54,0.873l-1.721-1.02c0,0,0.236-0.323,0.65-0.888
		c0.207-0.281,0.458-0.623,0.746-1.016c0.298-0.384,0.588-0.848,0.989-1.293c0.415-0.434,0.863-0.903,1.337-1.4
		c0.237-0.247,0.48-0.5,0.729-0.76c0.264-0.243,0.561-0.463,0.847-0.7c0.587-0.459,1.161-0.976,1.8-1.416
		c0.651-0.42,1.312-0.847,1.974-1.272c0.668-0.408,1.362-0.763,2.03-1.14c0.668-0.377,1.335-0.714,1.979-1.051
		c1.295-0.662,2.462-1.318,3.481-1.872c0.515-0.266,0.957-0.564,1.359-0.81c0.4-0.249,0.75-0.466,1.037-0.645
		C85.63,50.25,85.958,50.046,85.958,50.046z"/>
</g>
<g>
	<path d="M149.157,51.215c0,0,1.143,0.915,2.876,2.263c0.888,0.646,1.897,1.421,3.019,2.21s2.317,1.632,3.514,2.474
		c0.598,0.425,1.196,0.851,1.785,1.269c0.585,0.427,1.174,0.825,1.719,1.256c0.551,0.422,1.083,0.829,1.588,1.216
		c0.497,0.4,0.951,0.803,1.379,1.162c0.424,0.366,0.828,0.684,1.145,1.017c0.327,0.321,0.613,0.602,0.848,0.832
		c0.471,0.464,0.74,0.729,0.74,0.729l-1.516,1.305c0,0-0.231-0.269-0.635-0.739c-0.202-0.236-0.448-0.523-0.73-0.852
		c-0.271-0.34-0.632-0.678-1.007-1.062c-0.381-0.379-0.783-0.803-1.231-1.23c-0.46-0.419-0.944-0.861-1.446-1.318
		c-0.494-0.465-1.044-0.91-1.585-1.381c-0.548-0.464-1.105-0.937-1.662-1.408c-1.121-0.942-2.242-1.885-3.293-2.769
		c-1.052-0.883-2.005-1.752-2.833-2.471C150.217,52.224,149.157,51.215,149.157,51.215z"/>
</g>
<g>
	<path d="M93.665,46.933c0.016-0.016,0.196-0.131,0.551-0.425c0.352-0.288,0.852-0.723,1.409-1.293
		c0.284-0.28,0.577-0.599,0.876-0.946c0.314-0.337,0.593-0.731,0.914-1.12c0.282-0.413,0.604-0.826,0.875-1.279
		c0.274-0.451,0.564-0.907,0.794-1.395c0.26-0.474,0.479-0.967,0.672-1.464c0.223-0.486,0.365-0.991,0.519-1.478
		c0.173-0.482,0.255-0.969,0.356-1.428c0.114-0.457,0.175-0.897,0.209-1.308c0.039-0.408,0.101-0.785,0.109-1.12
		c0.002-0.336,0.003-0.629,0.005-0.87c0.003-0.484,0.004-0.762,0.004-0.762s0.03,0.275,0.082,0.757
		c0.026,0.242,0.058,0.536,0.094,0.874c0.03,0.338,0.01,0.722,0.018,1.141c0.012,0.421,0,0.876-0.062,1.354
		c-0.05,0.479-0.079,0.993-0.199,1.508c-0.101,0.519-0.192,1.062-0.364,1.593c-0.143,0.54-0.313,1.082-0.528,1.608
		c-0.186,0.541-0.434,1.053-0.67,1.562c-0.232,0.514-0.521,0.985-0.773,1.461c-0.29,0.449-0.544,0.906-0.836,1.303
		c-0.278,0.408-0.554,0.785-0.825,1.122c-0.531,0.683-1.021,1.218-1.38,1.587c-0.352,0.366-0.612,0.588-0.594,0.575L93.665,46.933z"
		/>
</g>
<g>
	<path d="M141.088,48.491c0.018,0.013-0.242-0.209-0.594-0.575c-0.359-0.369-0.849-0.904-1.38-1.587
		c-0.271-0.337-0.547-0.714-0.825-1.122c-0.292-0.396-0.546-0.854-0.836-1.303c-0.252-0.476-0.541-0.947-0.773-1.461
		c-0.236-0.51-0.484-1.021-0.67-1.562c-0.215-0.526-0.385-1.068-0.528-1.608c-0.172-0.53-0.263-1.074-0.364-1.593
		c-0.121-0.515-0.149-1.028-0.199-1.508c-0.063-0.479-0.074-0.934-0.062-1.354c0.008-0.419-0.012-0.803,0.018-1.141
		c0.036-0.338,0.068-0.632,0.094-0.874c0.052-0.481,0.082-0.757,0.082-0.757s0.001,0.277,0.004,0.762
		c0.001,0.241,0.003,0.534,0.005,0.87c0.008,0.335,0.071,0.712,0.109,1.12c0.034,0.41,0.096,0.851,0.209,1.308
		c0.101,0.459,0.183,0.945,0.356,1.428c0.154,0.486,0.296,0.991,0.519,1.478c0.193,0.497,0.412,0.99,0.672,1.464
		c0.23,0.487,0.52,0.943,0.794,1.395c0.27,0.453,0.593,0.866,0.875,1.279c0.32,0.389,0.599,0.783,0.914,1.12
		c0.299,0.348,0.592,0.666,0.876,0.946c0.557,0.57,1.057,1.005,1.409,1.293c0.355,0.294,0.536,0.409,0.551,0.425L141.088,48.491z"/>
</g>
<path style="fill:#C0C0C0;" d="M191.625,144.38c2.082,0.332,5.693,7.986,5.333,19.333c-1.333,42-8.667,35.999-19.333,39.333
	s-6-32.666-6-32.666S185.272,143.365,191.625,144.38z"/>
<g>
	<path style="fill:#D8D3AB;" d="M145.727,334.231c-0.402-2.035,1.232-8.603-5.163-9.671c-6.72-1.123-7.714,4.405-7.702,7.415
		c0.031,6.942,1.684,5.622,8.596,5.903C147.097,338.108,146.067,335.943,145.727,334.231z"/>
	<path style="fill:#1D1D1B;" d="M145.628,334.249c0,0-0.039-0.172-0.062-0.515c-0.021-0.336-0.027-0.824-0.041-1.441
		c-0.024-0.615-0.054-1.365-0.194-2.2c-0.147-0.829-0.413-1.759-0.958-2.574c-0.536-0.82-1.36-1.457-2.378-1.788
		c-0.5-0.167-1.071-0.296-1.618-0.346c-0.673-0.052-1.174-0.074-1.789-0.072c-1.159,0.027-2.363,0.17-3.383,0.951
		c-1.044,0.751-1.638,2.106-1.816,3.451c-0.185,1.352,0.039,2.759,0.237,4.087c0.119,0.655,0.254,1.3,0.464,1.808
		c0.22,0.529,0.465,0.783,0.838,0.938c0.818,0.324,2.191,0.211,3.365,0.214c1.202-0.017,2.402,0.021,3.443,0.108
		c1.005,0.075,1.905,0.147,2.653,0.132c0.744-0.034,1.254-0.301,1.374-0.877c0.116-0.548,0.011-1.054-0.047-1.37
		C145.66,334.426,145.628,334.249,145.628,334.249z M145.825,334.214c0,0,0.044,0.168,0.128,0.486
		c0.065,0.328,0.267,0.772,0.315,1.465c0.027,0.343-0.05,0.793-0.334,1.198c-0.285,0.402-0.716,0.69-1.169,0.912
		c-0.913,0.456-1.978,0.611-3.085,0.628c-1.076,0.004-2.171,0.006-3.396-0.014c-0.61,0.002-1.244-0.041-1.923-0.097
		c-0.677-0.075-1.424-0.147-2.244-0.548c-0.404-0.2-0.801-0.521-1.082-0.901c-0.286-0.38-0.454-0.795-0.564-1.184
		c-0.224-0.786-0.248-1.525-0.242-2.253c0.012-0.73,0.069-1.435,0.131-2.156c0.077-0.729,0.22-1.448,0.378-2.158
		c0.334-1.413,0.813-2.817,1.765-4.038c0.486-0.592,1.108-1.109,1.811-1.455c0.703-0.345,1.466-0.526,2.201-0.565
		c0.708-0.049,1.512,0.03,2.096,0.183c0.71,0.161,1.352,0.352,1.967,0.664c1.232,0.602,2.154,1.649,2.593,2.709
		c0.452,1.062,0.571,2.079,0.61,2.953c0.046,0.877,0.015,1.632-0.008,2.251c-0.017,0.618-0.025,1.102-0.002,1.427
		C145.789,334.039,145.825,334.214,145.825,334.214z"/>
</g>
<path style="opacity:0.4;fill:#FFFFFF;" d="M135.288,326.741c1.24-1.026,4.665-2.128,6.44,0.054c1.846,2.268,2.599,5.672,2.69,7.254
	c0.017,0.287-2.148-1.785-4.275-3.305c-1.404-1.003-4.064-0.938-4.799-0.624C131.827,331.627,134.636,327.279,135.288,326.741z"/>
<g>
	<path style="fill:#D8D3AB;" d="M159.458,336.129c-0.402-2.035,0.105-8.678-5.027-10.689c-6.344-2.483-8.189,3.841-8.176,6.851
		c0.019,4.164,0.703,6.089,6.156,6.134C158.537,338.475,159.8,337.841,159.458,336.129z"/>
	<path style="fill:#1D1D1B;" d="M159.36,336.147c0,0-0.036-0.169-0.076-0.498c-0.034-0.323-0.084-0.796-0.148-1.399
		c-0.155-1.183-0.362-2.949-1.285-4.735c-0.453-0.885-1.103-1.736-1.948-2.372c-0.427-0.312-0.893-0.583-1.403-0.788l-0.368-0.133
		c-0.154-0.036-0.306-0.083-0.458-0.128c-0.303-0.074-0.528-0.14-0.821-0.194c-1.11-0.207-2.23-0.297-3.323,0.22
		c-1.104,0.497-1.973,1.648-2.393,2.91c-0.44,1.281-0.505,2.632-0.265,3.939c0.214,1.309,0.479,2.588,1.087,3.25
		c0.582,0.67,1.632,0.885,2.699,1.032c0.535,0.055,1.077,0.106,1.609,0.137c0.542,0.024,1.084,0.044,1.589,0.086
		c1.019,0.063,1.952,0.206,2.775,0.257c0.819,0.054,1.547,0.036,2.061-0.173c0.529-0.197,0.71-0.631,0.707-0.938
		C159.404,336.315,159.36,336.147,159.36,336.147z M159.557,336.11c0,0,0.054,0.169,0.062,0.514c0.031,0.325-0.127,0.946-0.72,1.308
		c-0.553,0.377-1.298,0.636-2.146,0.886c-0.851,0.24-1.819,0.461-2.874,0.552c-0.533,0.057-1.069,0.076-1.646,0.085
		c-0.585,0.013-1.2,0.01-1.843-0.085c-0.644-0.084-1.324-0.215-2.016-0.519c-0.688-0.28-1.412-0.776-1.904-1.473
		c-0.502-0.691-0.728-1.488-0.823-2.222c-0.085-0.742-0.049-1.454,0.013-2.154c0.093-1.411,0.42-2.849,0.899-4.177
		c0.498-1.321,1.124-2.673,2.311-3.694c1.176-1.058,2.956-1.336,4.35-0.99c0.345,0.063,0.734,0.193,1.037,0.312
		c0.146,0.062,0.293,0.121,0.436,0.191l0.496,0.239c0.619,0.324,1.182,0.732,1.644,1.208c0.943,0.942,1.478,2.071,1.808,3.098
		c0.325,1.037,0.477,2,0.564,2.85c0.105,0.847,0.137,1.585,0.174,2.189C159.438,335.443,159.557,336.11,159.557,336.11z"/>
</g>
<path style="opacity:0.4;fill:#FFFFFF;" d="M150.1,326.317c3.197-1.342,5.032,0.603,6.808,2.784
	c1.846,2.268,0.813,3.681,0.904,5.262c0.027,0.478-2.661-4.428-5.889-4.938c-2.345-0.37-4.141,1.948-4.486,1.283
	C146.688,329.269,149.239,326.679,150.1,326.317z"/>
<g>
	<path style="fill:#D8D3AB;" d="M170.64,333.398c0.142-1.958-0.556-7.991-5.766-8.19c-6.441-0.241-4.141,7.419-4.679,10.215
		c-0.569,2.957,2.967,3.065,6.098,2.623C170.724,337.418,170.463,335.844,170.64,333.398z"/>
	<path style="fill:#1D1D1B;" d="M170.54,333.392c0,0,0.004-0.151,0.013-0.438c0.003-0.285-0.016-0.707-0.093-1.236
		c-0.168-1.034-0.54-2.611-1.685-3.958c-0.561-0.665-1.317-1.207-2.19-1.48c-0.439-0.131-0.902-0.214-1.388-0.233l-0.335-0.001
		c-0.141,0.016-0.282,0.023-0.424,0.03c-0.286,0.029-0.461,0.044-0.709,0.098c-0.946,0.163-1.707,0.537-2.292,1.422
		c-0.58,0.882-0.864,2.117-0.905,3.323c-0.058,1.225,0.107,2.437,0.185,3.7c0.022,0.303,0.005,0.68-0.005,0.966
		c-0.008,0.167,0.012,0.281,0.028,0.382c0.022,0.116,0.052,0.224,0.09,0.32c0.174,0.377,0.405,0.524,0.773,0.681
		c0.763,0.295,1.842,0.255,2.808,0.193c0.983-0.07,1.958-0.142,2.81-0.259c0.808-0.12,1.586-0.192,2.096-0.49
		c0.548-0.267,0.828-0.849,0.974-1.352c0.131-0.51,0.182-0.938,0.211-1.225C170.526,333.546,170.54,333.392,170.54,333.392z
		 M170.739,333.405c0,0-0.006,0.154-0.018,0.442c-0.014,0.291,0.012,0.713,0,1.274c-0.014,0.281-0.009,0.604-0.104,0.966
		c-0.069,0.363-0.238,0.779-0.532,1.141c-0.585,0.763-1.484,1.25-2.463,1.548c-0.958,0.274-1.978,0.478-3.115,0.512
		c-1.131,0.005-2.388-0.027-3.729-0.759c-0.663-0.358-1.282-1.2-1.279-2.021c-0.007-0.198,0.005-0.39,0.031-0.573
		c0.033-0.198,0.076-0.384,0.123-0.513c0.088-0.309,0.148-0.533,0.184-0.839c0.148-1.168,0.089-2.423,0.058-3.669
		c-0.013-1.249-0.106-2.542,0.328-3.888c0.214-0.665,0.643-1.327,1.238-1.792c0.587-0.482,1.306-0.722,1.97-0.836
		c0.32-0.054,0.723-0.07,1.003-0.058c0.142,0.007,0.284,0.015,0.424,0.03l0.502,0.06c0.623,0.095,1.229,0.273,1.769,0.556
		c1.096,0.544,1.863,1.432,2.347,2.286c0.485,0.866,0.755,1.711,0.92,2.463c0.186,0.747,0.258,1.41,0.307,1.954
		C170.796,332.776,170.739,333.405,170.739,333.405z"/>
</g>
<path style="opacity:0.4;fill:#FFFFFF;" d="M161.819,327.495c0.784-0.845,2.342-1.444,4.608-0.05
	c2.355,1.451,3.183,5.458,3.756,6.843c0.174,0.417-6.229-4.808-8.725-2.909C159.366,332.972,161.164,328.202,161.819,327.495z"/>
</svg>
