<?xml version="1.0" encoding="iso-8859-1"?>
<!-- Generator: Adobe Illustrator 16.0.0, SVG Export Plug-In . SVG Version: 6.00 Build 0)  -->
<!DOCTYPE svg PUBLIC "-//W3C//DTD SVG 1.1//EN" "http://www.w3.org/Graphics/SVG/1.1/DTD/svg11.dtd">
<svg version="1.1" id="Layer_1" xmlns="http://www.w3.org/2000/svg" xmlns:xlink="http://www.w3.org/1999/xlink" x="0px" y="0px"
	 width="120.509px" height="231.82px" viewBox="0 0 120.509 231.82" style="enable-background:new 0 0 120.509 231.82;"
	 xml:space="preserve">
<path style="fill:#BFDBE9;stroke:#1D1E1C;stroke-linecap:round;stroke-linejoin:round;stroke-miterlimit:10;" d="M80.897,90.558
	c0.849-0.283,17.063,9.198,30.984,17.485c-1.289-3.393-2.942-6.734-4.984-9.985c-2.647-4.217-2.274-8.547-5-15
	c-1.907-4.516-5.266-5.879-6.001-1.834c-0.319,1.756-1.488-1.828-2.5-0.5c-0.572,0.751-3.413,3.929-4.249,4.584
	c-2.006,1.572-4.486,1.36-8.533,2.091C80.459,89.4,80.518,90.685,80.897,90.558z"/>
<g>
	<path style="fill:#BBDFF0;" d="M56.55,96.058c0,0-15.152,4-23.652,5s2-14.5,2-14.5S3.564,106.725,9.064,124.725
		s11.485,27.333,23.485,27.333"/>
	<path style="fill:#1D1E1C;" d="M56.569,96.13c-3.382,1.023-6.789,1.961-10.22,2.814c-3.435,0.835-6.877,1.653-10.375,2.263
		c-0.874,0.151-1.752,0.292-2.637,0.412c-0.854,0.116-1.939,0.267-2.973-0.258c-0.52-0.256-0.961-0.748-1.175-1.273
		c-0.226-0.528-0.283-1.06-0.284-1.558c0.011-1.001,0.248-1.91,0.521-2.787c0.576-1.745,1.406-3.341,2.303-4.884
		c0.899-1.544,1.865-3.03,2.906-4.479l0.433,0.443c-6.105,3.955-11.761,8.691-16.664,14.071c-2.418,2.718-4.63,5.634-6.363,8.806
		c-1.722,3.161-2.947,6.638-3.024,10.174c-0.034,1.771,0.235,3.494,0.838,5.185c0.574,1.728,1.152,3.453,1.783,5.156
		c1.266,3.402,2.666,6.748,4.357,9.915c1.718,3.132,3.751,6.153,6.584,8.304c2.771,2.222,6.331,3.343,9.971,3.549
		c0.041,0.003,0.073,0.038,0.07,0.079c-0.002,0.039-0.033,0.068-0.07,0.071c-1.832,0.118-3.703-0.013-5.518-0.469
		c-1.812-0.463-3.56-1.246-5.121-2.311c-3.114-2.17-5.474-5.231-7.286-8.466c-1.841-3.242-3.192-6.699-4.375-10.182
		c-0.587-1.745-1.146-3.494-1.651-5.261c-0.565-1.775-0.855-3.722-0.765-5.606c0.148-3.812,1.604-7.381,3.457-10.562
		c1.874-3.196,4.2-6.075,6.703-8.758c2.49-2.698,5.192-5.187,7.998-7.543c2.806-2.359,5.699-4.603,8.734-6.685
		c0.143-0.099,0.338-0.062,0.437,0.081c0.071,0.104,0.071,0.237,0.01,0.339l-0.014,0.023c-1.801,2.991-3.427,6.168-4.463,9.406
		c-0.249,0.805-0.434,1.632-0.445,2.399c-0.021,0.782,0.192,1.408,0.721,1.678c0.264,0.152,0.623,0.222,1.001,0.245
		c0.368,0.025,0.769,0,1.215-0.057c0.866-0.099,1.734-0.218,2.602-0.348c3.468-0.531,6.936-1.169,10.387-1.884
		c3.454-0.706,6.906-1.437,10.354-2.19c0.041-0.01,0.081,0.016,0.09,0.057C56.629,96.08,56.605,96.118,56.569,96.13z"/>
</g>
<g>
	<path style="fill:#FFFFFF;" d="M80.897,90.558c-0.38,0.127-0.438-1.157-0.283-3.159c-0.619,0.112-1.27,0.243-1.967,0.409
		c-5.357,1.275-11.417,4.416-12.75-4.25c-0.408-2.654-1.649-8.705-1-12c2.255-11.438,18.5-17.5,15.5-34
		c-4.989-27.442-17.037-35.416-29.5-36.5c-11.5-1-25.62,11.132-28.25,33.75c-1.25,10.75,3.021,16.16,6,20.75
		c5.48,8.448,10.64,12.104,4.25,26c-1.49,3.24-17.5,20-18.5,34c-1.221,17.092-0.203,27.701,8.5,38.5
		c11.002,13.652,14,29.5,43.894,28.503c22.285-0.743,29.396-11.109,37.261-21.76c11.145-15.092,14.713-34.65,7.83-52.758
		C97.961,99.756,81.746,90.274,80.897,90.558z"/>
	<path style="fill:#1D1E1C;" d="M80.907,90.657c-0.037,0.033-0.241-0.03-0.271-0.112c-0.048-0.074-0.076-0.148-0.098-0.22
		c-0.038-0.145-0.062-0.286-0.075-0.427c-0.028-0.282-0.035-0.562-0.035-0.841c0.003-0.559,0.033-1.114,0.073-1.668l0.134,0.121
		c-2.336,0.402-4.569,1.195-6.896,1.734c-1.162,0.25-2.372,0.438-3.585,0.255c-1.214-0.16-2.359-0.876-3.034-1.902
		c-0.696-1.013-1.058-2.195-1.293-3.366l-0.604-3.513c-0.372-2.346-0.765-4.7-0.778-7.109c-0.021-1.203,0.181-2.44,0.527-3.58
		c0.34-1.179,0.819-2.286,1.396-3.348c1.14-2.129,2.606-4.04,4.095-5.896c2.984-3.685,6.173-7.255,8.009-11.522
		c0.907-2.119,1.474-4.373,1.557-6.661c0.072-1.143-0.021-2.289-0.137-3.428l-0.28-1.698l-0.349-1.744
		c-0.951-4.6-2.219-9.153-3.981-13.482c-1.755-4.329-4.098-8.418-7.16-11.861c-3.055-3.446-7.004-6.056-11.413-7.374
		c-2.194-0.666-4.494-1.069-6.793-1.179c-1.101-0.02-2.227,0.067-3.345,0.262c-1.115,0.206-2.21,0.53-3.28,0.927
		c-4.285,1.641-7.983,4.694-10.912,8.292c-2.95,3.611-5.15,7.824-6.714,12.246c-0.784,2.213-1.403,4.486-1.873,6.793
		c-0.463,2.312-0.832,4.633-0.941,6.99c-0.106,2.323,0.07,4.686,0.601,6.957c0.511,2.281,1.438,4.45,2.58,6.499
		c1.161,2.034,2.515,4.007,3.806,5.981c1.31,1.968,2.756,3.856,3.979,5.923c1.233,2.048,2.152,4.375,2.329,6.81
		c0.186,2.431-0.255,4.851-0.957,7.138c-0.359,1.145-0.759,2.275-1.226,3.376c-0.219,0.557-0.476,1.096-0.712,1.645
		c-0.261,0.561-0.645,1.09-0.977,1.566c-1.396,1.944-2.857,3.804-4.265,5.71c-2.825,3.797-5.521,7.691-7.815,11.807
		c-1.15,2.054-2.186,4.168-3.05,6.343c-0.867,2.171-1.55,4.415-1.892,6.699c-0.185,1.135-0.235,2.285-0.302,3.483
		c-0.076,1.187-0.121,2.364-0.166,3.541c-0.089,2.357-0.112,4.717-0.038,7.065c0.06,2.351,0.278,4.685,0.6,6.996
		c0.354,2.308,0.893,4.574,1.615,6.776c1.477,4.41,3.881,8.407,6.832,12.048c3.014,3.74,5.544,7.817,8.236,11.667
		c2.686,3.848,5.652,7.485,9.396,10.147c3.708,2.698,8.099,4.346,12.648,5.159c4.553,0.845,9.254,0.995,13.932,0.772
		c4.655-0.232,9.304-0.937,13.667-2.454c4.369-1.499,8.374-3.911,11.766-7.054c3.412-3.13,6.24-6.892,9.087-10.677
		c5.773-7.396,9.76-16.11,11.44-25.344c1.692-9.219,0.879-18.913-2.394-27.765l0.141,0.168c-5.058-3.107-10.14-6.173-15.263-9.169
		c-2.559-1.503-5.122-2.997-7.7-4.465c-1.29-0.733-2.583-1.461-3.886-2.169l-1.965-1.038l-0.996-0.486
		c-0.316-0.14-0.719-0.33-0.973-0.351L80.907,90.657z M80.866,90.463c0.281-0.024,0.412,0.075,0.604,0.131
		c0.177,0.067,0.348,0.142,0.519,0.218l1.009,0.479l1.98,1.022c1.312,0.697,2.612,1.412,3.91,2.134
		c2.594,1.444,5.173,2.915,7.746,4.395l15.419,8.914c0.065,0.038,0.112,0.095,0.138,0.16l0.004,0.009
		c3.518,8.88,4.609,18.733,3.127,28.229c-1.42,9.513-5.5,18.59-11.267,26.246c-2.772,3.843-5.658,7.734-9.25,11.035
		c-3.56,3.319-7.847,5.917-12.454,7.507c-4.607,1.613-9.437,2.351-14.246,2.604c-4.789,0.233-9.642,0.115-14.425-0.782
		c-4.766-0.882-9.479-2.674-13.442-5.601c-4.003-2.888-7.091-6.757-9.794-10.683c-2.717-3.942-5.175-7.963-8.097-11.637
		c-1.45-1.889-2.927-3.851-4.074-5.989c-1.164-2.129-2.177-4.352-2.905-6.669c-0.725-2.316-1.25-4.686-1.581-7.075
		c-0.299-2.391-0.488-4.79-0.514-7.184c-0.043-2.395,0.016-4.781,0.14-7.164c0.062-1.192,0.126-2.384,0.218-3.563
		c0.082-1.168,0.152-2.393,0.366-3.598c0.396-2.406,1.14-4.721,2.062-6.939c0.921-2.222,2.006-4.363,3.206-6.43
		c2.393-4.141,5.171-8.023,8.064-11.793c1.438-1.89,2.942-3.736,4.335-5.631c0.346-0.494,0.671-0.926,0.916-1.441
		c0.235-0.539,0.492-1.07,0.71-1.616c0.467-1.081,0.863-2.188,1.221-3.305c0.699-2.231,1.131-4.564,0.968-6.879
		c-0.157-2.317-1.011-4.531-2.206-6.544c-1.186-2.024-2.604-3.93-3.949-5.893c-1.318-1.985-2.669-3.918-3.877-5.997
		c-1.182-2.081-2.156-4.312-2.701-6.662c-0.565-2.347-0.766-4.757-0.673-7.171c0.269-4.773,1.126-9.512,2.632-14.065
		c1.512-4.544,3.681-8.915,6.672-12.717c2.973-3.786,6.772-7.074,11.35-8.928c2.29-0.912,4.726-1.463,7.272-1.406
		c2.438,0.104,4.852,0.513,7.2,1.208c2.346,0.698,4.598,1.731,6.668,3.05c2.055,1.339,3.942,2.937,5.571,4.755
		c3.305,3.617,5.635,7.961,7.409,12.422c1.768,4.481,3.002,9.123,3.922,13.821l0.329,1.749c0.109,0.605,0.175,1.212,0.261,1.818
		c0.098,1.221,0.164,2.45,0.058,3.676c-0.148,2.456-0.819,4.864-1.833,7.078c-2.056,4.459-5.406,7.99-8.445,11.583
		c-1.521,1.806-2.999,3.646-4.149,5.681c-0.58,1.008-1.071,2.081-1.415,3.175c-0.366,1.122-0.576,2.243-0.586,3.417
		c-0.032,2.341,0.266,4.702,0.636,7.037c0.447,2.307,0.485,4.798,1.781,6.747c0.629,0.966,1.655,1.621,2.8,1.787
		c1.142,0.184,2.325,0.015,3.474-0.223c2.299-0.512,4.563-1.292,6.916-1.679c0.062-0.011,0.121,0.029,0.133,0.092l0.001,0.029
		c-0.044,0.551-0.078,1.102-0.086,1.651c-0.002,0.274,0.002,0.549,0.027,0.818c0.012,0.135,0.033,0.267,0.065,0.391
		c0.018,0.062,0.04,0.116,0.066,0.16c0.053,0.03-0.017,0.04,0.087,0.03L80.866,90.463z"/>
</g>
<g>
	<path style="fill:#F7961D;" d="M40.239,170.195c0,0,1.925,18.331,0.046,22.532c-0.297,0.666-2.984,1.742-5.896,3.168
		c-3.541,1.734-10.355,3.702-16.658,5.162c-10.892,2.521-22.388,7.434-13.639,10.867c4.17,1.641,4.938-0.395,6.602,3.758
		c2.424,6.043,12.916,1.35,15.942,1.766c3.761,0.521,2.498,3.367,6.446,3.718c9.902,0.877,11.419-6.747,13.226-9.357
		c5-7.222,7.655-14.772,5.353-17.975c-1.446-2.012-3.076-1.456-3.076-1.456l1.95-22.32L40.239,170.195z"/>
	<path d="M40.314,170.264c0.471,2.955,0.81,5.928,1.045,8.913c0.261,3.01,0.355,6.031,0.251,9.08
		c-0.085,1.529-0.139,3.051-0.762,4.636l-0.052,0.113l-0.034,0.062c-0.059,0.098-0.13,0.186-0.171,0.227
		c-0.099,0.106-0.19,0.183-0.281,0.253c-0.18,0.139-0.354,0.249-0.527,0.353c-0.347,0.206-0.69,0.382-1.034,0.554
		c-0.687,0.34-1.373,0.654-2.055,0.972l-2.034,0.957c-0.688,0.335-1.408,0.633-2.116,0.901c-1.426,0.542-2.867,1.01-4.315,1.447
		c-2.897,0.871-5.823,1.616-8.765,2.291c-2.95,0.644-5.861,1.312-8.716,2.256c-1.423,0.47-2.832,0.983-4.202,1.581
		c-1.363,0.604-2.716,1.271-3.884,2.17c-0.57,0.45-1.118,0.978-1.366,1.619c-0.265,0.648,0.05,1.33,0.587,1.793
		c1.094,0.923,2.566,1.447,3.977,1.8c0.721,0.17,1.448,0.222,2.218,0.332c0.382,0.06,0.796,0.17,1.15,0.405
		c0.353,0.234,0.623,0.555,0.838,0.884c0.438,0.652,0.707,1.396,1.013,2.056c0.312,0.631,0.783,1.191,1.365,1.587
		c1.176,0.809,2.693,0.989,4.149,0.963c1.473-0.034,2.946-0.278,4.413-0.566c1.474-0.281,2.921-0.659,4.468-0.854
		c0.395-0.042,0.778-0.075,1.238-0.02c0.355,0.046,0.797,0.137,1.176,0.271c0.792,0.252,1.513,0.834,1.994,1.451
		c0.494,0.613,0.901,1.145,1.473,1.449c0.568,0.311,1.247,0.439,1.966,0.479c1.461,0.103,2.927,0.02,4.311-0.344
		c1.382-0.361,2.659-1.033,3.709-1.98c1.057-0.942,1.892-2.128,2.591-3.413c0.353-0.642,0.674-1.309,1.013-1.99
		c0.17-0.341,0.344-0.685,0.545-1.033c0.209-0.363,0.437-0.675,0.64-0.982c0.823-1.232,1.604-2.504,2.311-3.806
		c1.403-2.601,2.627-5.35,3.158-8.187c0.244-1.399,0.311-2.873-0.165-4.052c-0.228-0.572-0.661-1.109-1.133-1.46
		c-0.24-0.175-0.499-0.302-0.765-0.367c-0.242-0.069-0.591-0.059-0.726-0.02l-0.038,0.011c-0.37,0.106-0.756-0.107-0.862-0.478
		c-0.024-0.086-0.031-0.175-0.023-0.259c0.352-3.717,0.644-7.44,1.046-11.153c0.393-3.714,0.749-7.432,1.19-11.142l0.418,0.449
		C47.132,170.442,43.724,170.353,40.314,170.264z M40.238,170.128c3.43-0.181,6.859-0.363,10.29-0.483
		c0.224-0.008,0.411,0.167,0.419,0.391v0.036l-0.001,0.022c-0.209,3.73-0.502,7.453-0.76,11.179
		c-0.248,3.727-0.606,7.444-0.904,11.166l-0.924-0.725c1.09-0.291,2.018,0.046,2.771,0.574c0.729,0.552,1.272,1.234,1.613,2.056
		c0.656,1.644,0.51,3.315,0.236,4.85c-0.612,3.09-1.913,5.899-3.381,8.571c-0.742,1.337-1.55,2.627-2.409,3.89
		c-0.875,1.147-1.393,2.529-2.172,3.886c-0.752,1.346-1.672,2.665-2.891,3.707c-1.207,1.049-2.686,1.785-4.223,2.153
		c-1.541,0.372-3.123,0.423-4.659,0.286c-0.776-0.059-1.616-0.216-2.367-0.646c-0.767-0.431-1.275-1.15-1.71-1.707
		c-0.439-0.57-0.933-0.978-1.577-1.207c-0.329-0.12-0.627-0.192-1.017-0.253c-0.287-0.041-0.661-0.029-1.014,0.005
		c-1.445,0.152-2.928,0.502-4.415,0.757c-1.49,0.263-3.004,0.481-4.545,0.486c-1.52-0.008-3.156-0.216-4.479-1.159
		c-0.652-0.467-1.17-1.105-1.508-1.831c-0.307-0.713-0.56-1.394-0.955-2.001c-0.691-1.387-2.432-1.037-3.899-1.447
		c-0.751-0.176-1.472-0.428-2.176-0.731c-0.697-0.312-1.393-0.665-1.983-1.202c-0.293-0.266-0.551-0.599-0.701-0.995
		c-0.146-0.401-0.126-0.855,0.018-1.243c0.298-0.779,0.889-1.334,1.48-1.817c1.214-0.951,2.58-1.64,3.957-2.267
		c1.383-0.621,2.8-1.154,4.23-1.642c2.855-0.977,5.792-1.769,8.708-2.473c2.909-0.748,5.802-1.562,8.648-2.496
		c1.422-0.469,2.834-0.968,4.209-1.53c0.691-0.283,1.356-0.579,2.021-0.903l2.044-0.982c0.68-0.321,1.36-0.641,2.02-0.974
		c0.328-0.167,0.653-0.338,0.952-0.519c0.284-0.166,0.612-0.418,0.588-0.474c0.241-0.599,0.364-1.327,0.462-2.043
		c0.106-0.721,0.173-1.458,0.223-2.197c0.298-5.949-0.073-11.978-0.286-17.992C40.17,170.164,40.2,170.132,40.238,170.128z"/>
</g>
<g>
	<path style="fill:#F7961D;" d="M81.647,177.558c0,0-0.43,18.635,1.81,22.615c0.357,0.631-0.625,0.08,2.383,1.225
		c3.656,1.393,12.717,5.61,19.764,9.566c4.812,2.703,16.689,3.99,10.729,9.178c-3.354,2.921-4.909-0.592-6.613,3.508
		c-2.891,6.967-8.16,2.192-11.111,2.882c-3.669,0.854-4.974,4.103-8.905,4.282c-5.618,0.256-10.134-6.713-12.174-9.112
		c-5.738-6.747-8.374-9.858-5.214-19.401c0.771-2.332,2.908-3.035,2.908-3.035l-2.825-20.957L81.647,177.558z"/>
	<path d="M81.715,177.56c0.069,2.873,0.169,5.745,0.31,8.61c0.132,2.864,0.342,5.728,0.692,8.553
		c0.18,1.406,0.395,2.824,0.795,4.132c0.103,0.324,0.22,0.64,0.362,0.915l0.133,0.253c0.035,0.076,0.062,0.146,0.084,0.242
		c0.013,0.063,0.051,0.277-0.001,0.054c-0.158-0.286-0.217-0.219-0.187-0.229l0.088,0.034l0.245,0.086
		c0.683,0.235,1.365,0.481,2.043,0.738c2.717,1.043,5.32,2.261,7.919,3.512c2.599,1.246,5.169,2.548,7.693,3.939
		c1.264,0.691,2.521,1.396,3.767,2.121c1.199,0.712,2.535,1.217,3.875,1.718c1.344,0.495,2.706,0.965,4.051,1.501
		c1.332,0.546,2.717,1.082,3.831,2.133c0.27,0.268,0.509,0.589,0.653,0.968s0.158,0.808,0.061,1.192
		c-0.212,0.773-0.72,1.362-1.239,1.874c-0.528,0.506-1.104,0.982-1.781,1.314c-0.673,0.34-1.452,0.47-2.184,0.458
		c-0.729-0.007-1.428-0.045-1.916,0.385c-0.495,0.413-0.808,1.061-1.079,1.709c-0.558,1.323-1.341,2.703-2.708,3.474
		c-1.379,0.785-3.024,0.616-4.421,0.301l-2.095-0.503c-0.68-0.146-1.375-0.257-1.964-0.124c-1.323,0.302-2.489,1.059-3.609,1.931
		c-1.118,0.861-2.343,1.829-3.863,2.246c-1.495,0.43-3.125,0.324-4.569-0.192c-1.452-0.507-2.727-1.354-3.862-2.306
		c-2.281-1.899-4.052-4.303-5.828-6.471c-1.845-2.195-3.851-4.321-5.276-6.989c-0.705-1.328-1.205-2.81-1.378-4.327
		c-0.186-1.519-0.058-3.035,0.198-4.494c0.269-1.467,0.662-2.861,1.133-4.274c0.254-0.752,0.7-1.488,1.271-2.065
		c0.587-0.587,1.222-1.029,2.059-1.337l-0.446,0.713l-1.285-10.496l-1.221-10.504l-0.002-0.016c-0.021-0.18,0.107-0.342,0.287-0.362
		l0.021-0.002l9.271-0.481c0.038-0.002,0.071,0.026,0.073,0.064C81.715,177.557,81.715,177.559,81.715,177.56z M81.578,177.633
		l-9.153,1.01l0.306-0.38l1.604,10.453l1.54,10.461c0.045,0.303-0.128,0.587-0.4,0.695l-0.046,0.018
		c-0.507,0.202-1.087,0.591-1.506,1.027c-0.436,0.45-0.754,0.972-0.959,1.581c-0.431,1.315-0.813,2.695-1.055,4.058
		c-0.232,1.368-0.338,2.749-0.167,4.088c0.162,1.34,0.599,2.626,1.245,3.833c1.307,2.412,3.214,4.577,5.045,6.781
		c1.828,2.292,3.474,4.575,5.604,6.396c1.054,0.9,2.205,1.681,3.458,2.163c1.248,0.482,2.618,0.603,3.904,0.272
		c1.291-0.313,2.417-1.132,3.581-1.985c1.158-0.853,2.483-1.682,3.994-1.981c0.832-0.154,1.591,0.019,2.303,0.184l2.083,0.561
		c1.35,0.345,2.791,0.512,3.989-0.129c1.2-0.623,1.993-1.868,2.536-3.159c0.29-0.659,0.613-1.362,1.234-1.877
		c0.311-0.256,0.717-0.405,1.102-0.445c0.387-0.044,0.752-0.02,1.104-0.019c1.413,0.09,2.694-0.611,3.675-1.627
		c0.49-0.49,0.939-1.055,1.098-1.685c0.168-0.633-0.123-1.261-0.616-1.721c-1.002-0.926-2.373-1.459-3.689-1.971
		c-1.34-0.491-2.714-0.904-4.083-1.357c-1.364-0.458-2.752-0.923-4.056-1.635c-1.263-0.678-2.535-1.337-3.815-1.98
		c-2.567-1.277-5.144-2.537-7.736-3.759c-2.598-1.203-5.213-2.401-7.841-3.478c-0.662-0.262-1.328-0.512-2.001-0.754l-0.263-0.096
		l-0.162-0.067c-0.048-0.049-0.199-0.019-0.393-0.392c-0.078-0.309-0.032-0.188-0.044-0.211c0.003,0.009-0.002-0.006-0.005-0.012
		l-0.114-0.226c-0.181-0.366-0.306-0.73-0.415-1.094c-0.416-1.45-0.603-2.893-0.764-4.336
		C81.184,189.09,81.266,183.354,81.578,177.633z"/>
</g>
<g>
	<path style="fill:none;" d="M96.064,107.724"/>
</g>
<path style="fill:#D6EFFB;" d="M26.147,152.558c7.237,8.927,12.202,17.139,27.583,12.833c8.334-2.333,4.584,7.417,8.917,9.417
	s7.917,2.917,7.917,2.917l1.083,3.083c0,0-14.75,2.25-24-2c-11.656-5.355-12.75-10.167-16.75-15.5s-6.552-9.527-9-12.5
	c-7-8.5-7.713-25.835-6.75-25.5C16.11,125.642,18.647,143.308,26.147,152.558z"/>
<g>
	<path style="fill:#D6EFFB;" d="M37.231,171.392c0,0,1.507,7.059,6.666,8.916c6.25,2.25,12.766-1.662,14-3"/>
	<path style="fill:#231F20;" d="M37.231,171.392c0.832,2.06,1.878,4.003,3.247,5.606c0.698,0.785,1.461,1.496,2.338,1.997
		c0.429,0.25,0.901,0.479,1.341,0.627c0.553,0.181,0.994,0.305,1.515,0.399c2.029,0.418,4.168,0.267,6.245-0.214
		c1.039-0.247,2.071-0.572,3.075-0.983c1.005-0.409,2.006-0.864,2.905-1.517c-0.679,0.903-1.625,1.564-2.571,2.174
		c-0.968,0.587-1.998,1.085-3.082,1.45c-2.157,0.753-4.548,1.01-6.865,0.561c-0.565-0.113-1.186-0.304-1.68-0.479
		c-0.601-0.222-1.128-0.479-1.635-0.817c-0.999-0.673-1.849-1.523-2.506-2.48C38.234,175.808,37.466,173.612,37.231,171.392z"/>
</g>
<path style="fill:#D6EFFB;" d="M89.897,144.808c0,0,4.323,4.257,9.5,3.25c9-1.75-2.962,7.981-3.5,10.75c-1.75,9-6.5,13-6.5,13
	l-7,7.25c0,0,11-5.25,16.75-13s13.25-19.25,13.75-27.25s-13.75-7-14.5-6.25S89.897,144.808,89.897,144.808z"/>
<g>
	<path style="fill:#FFFFFF;" d="M70.147,89.308c0,0,11.417-5.071,20.751-0.833c14.499,6.583,22.166-4.084,22.166-4.084
		s10.334,27.417,4.834,45.417s-19.334,15-31.334,15"/>
	<path style="fill:#1D1E1C;" d="M70.107,89.216c1.721-0.856,3.542-1.479,5.397-1.998c1.856-0.519,3.771-0.854,5.711-1.008
		c1.939-0.141,3.912-0.078,5.859,0.265c0.972,0.179,1.935,0.427,2.875,0.753c0.95,0.325,1.834,0.757,2.673,1.053
		c3.444,1.312,7.159,1.813,10.72,1.157c3.545-0.622,6.979-2.525,9.379-5.293l0.037-0.042c0.148-0.172,0.408-0.19,0.579-0.042
		c0.058,0.05,0.099,0.114,0.121,0.182c2.241,6.758,4.038,13.618,5.304,20.614c0.644,3.494,1.101,7.029,1.301,10.596
		c0.192,3.562,0.133,7.171-0.473,10.738c-0.615,3.562-1.661,7.083-3.489,10.311c-1.779,3.225-4.635,6.059-8.132,7.493
		c-3.466,1.509-7.209,1.785-10.773,1.735c-3.592-0.098-7.101-0.51-10.632-0.822c-0.056-0.004-0.096-0.053-0.091-0.108
		c0.004-0.049,0.043-0.087,0.091-0.091c3.547-0.309,7.11-0.225,10.599-0.479c3.48-0.206,6.93-0.735,9.961-2.129
		c1.506-0.705,2.89-1.626,4.109-2.741c1.202-1.134,2.276-2.427,3.156-3.872c0.889-1.436,1.611-3,2.207-4.608
		c0.645-1.631,1.073-3.265,1.418-4.976c1.316-6.822,1.008-13.964,0.012-20.927c-1.064-6.966-2.845-13.863-5.356-20.438l0.737,0.098
		c-2.363,3.176-5.812,5.479-9.718,6.437c-1.95,0.466-3.983,0.54-5.962,0.309c-1.979-0.247-3.897-0.792-5.721-1.52
		c-0.944-0.376-1.758-0.821-2.604-1.136c-0.849-0.327-1.727-0.585-2.623-0.781c-1.789-0.407-3.648-0.557-5.511-0.529
		c-3.728,0.064-7.492,0.763-11.082,1.983c-0.051,0.02-0.109-0.006-0.129-0.058C70.04,89.295,70.063,89.24,70.107,89.216z"/>
</g>
<g>
	<path style="fill:#FFFFFF;" d="M66.397,175.558c0,0,11,12.75,23.25-4.25"/>
	<path style="fill:#231F20;" d="M66.397,175.558c1.805,1.475,3.812,2.625,5.927,3.301c2.115,0.662,4.351,0.771,6.452,0.207
		c2.115-0.524,4.067-1.664,5.854-3.036c1.788-1.386,3.407-3.026,5.018-4.722c-1.105,2.061-2.517,3.977-4.257,5.611
		c-1.728,1.635-3.845,2.975-6.243,3.6c-2.394,0.617-5,0.401-7.227-0.566C69.69,179.001,67.759,177.467,66.397,175.558z"/>
</g>
<path style="fill:#D6EFFB;" d="M36.447,69.861c0,0-0.717,2.058,3.222,5.262s13.604,3.432,16.469-1.373
	c2.865-4.806,14.322-15.33,14.322-15.33l3.938-8.695l-31.506,7.094l-7.161,4.119L36.447,69.861z"/>
<path style="fill:none;" d="M38.589,30.948c0.226-0.299-0.317,0.01-1.917,1.211C37.938,31.21,38.521,30.862,38.589,30.948z"/>
<ellipse style="fill:#231F20;" cx="40.397" cy="25.558" rx="3.197" ry="3.893"/>
<ellipse style="fill:#231F20;" cx="53.897" cy="25.058" rx="3.197" ry="3.893"/>
<g>
	<path style="fill:#F9A620;" d="M27.064,63.391c0,0-2.645,7.983,5.333,8.667c23.333,2,21.001-4.666,25.667-8.333
		s14.868-8.623,16.666-12.667c2.667-6-0.666-6.5-0.666-6.5l-3.834-0.5L27.064,63.391z"/>
	<path d="M27.123,63.438c-0.36,1.454-0.453,3.007-0.093,4.434c0.349,1.448,1.365,2.64,2.703,3.198
		c1.329,0.615,2.841,0.629,4.372,0.697c1.52,0.063,3.041,0.096,4.558,0.118c3.03,0.032,6.07-0.137,8.984-0.725
		c1.45-0.309,2.865-0.75,4.129-1.465c1.274-0.704,2.304-1.759,3.218-2.964c0.905-1.198,1.879-2.497,3.168-3.396
		c1.247-0.913,2.534-1.739,3.826-2.561c2.574-1.65,5.187-3.24,7.638-5.043c2.39-1.842,4.938-3.752,5.333-6.821
		c0.338-1.371,0.336-2.987-0.601-3.522c-0.109-0.066-0.232-0.12-0.346-0.15c-0.008-0.01-0.3-0.038-0.462-0.061l-1.137-0.14
		l-2.274-0.281l0.379-0.056c-7.181,3.252-14.392,6.438-21.634,9.552C41.667,57.397,34.411,60.454,27.123,63.438z M27.037,63.329
		c7.09-3.455,14.212-6.838,21.373-10.134c7.146-3.33,14.324-6.589,21.532-9.781l0.007-0.004c0.12-0.053,0.251-0.068,0.373-0.052
		l2.27,0.312l1.136,0.156c0.215,0.041,0.31,0.018,0.669,0.118c0.253,0.08,0.478,0.194,0.688,0.336
		c0.867,0.574,1.239,1.603,1.274,2.46c0.048,0.881-0.146,1.689-0.381,2.455c-0.24,0.769-0.582,1.474-0.941,2.183
		c-0.388,0.742-0.915,1.348-1.468,1.905c-1.114,1.107-2.36,2.022-3.623,2.896c-2.529,1.745-5.161,3.304-7.735,4.944
		c-1.28,0.827-2.559,1.667-3.744,2.604c-1.219,0.894-2.005,2.17-2.867,3.444c-0.848,1.281-1.923,2.534-3.289,3.397
		c-1.349,0.888-2.882,1.406-4.407,1.757c-3.074,0.684-6.191,0.678-9.261,0.604c-1.539-0.038-3.07-0.167-4.598-0.321
		c-1.494-0.172-3.126-0.219-4.586-0.951c-1.475-0.686-2.551-2.136-2.83-3.691c-0.311-1.554-0.109-3.137,0.373-4.597
		C27.007,63.352,27.021,63.337,27.037,63.329z"/>
</g>
<g>
	<path style="fill:#FDCE07;" d="M74.564,45.225c-3.136-1.995-6.788-1.104-9.646-1.164c-3.396-0.071-5.72-2.853-9.402-5.728
		c-3.545-2.266-7.78-5.111-11.758-4.031c-3.914,0.898-6.627,3.95-11.693,8.423c-8.509,6.635-24.845,6.868-25.667,8.333
		c-2.65,4.715,1.251,10.397,10,14c8.5,3.5,15.564,4.96,22.5,4.5c8.181-0.543,13.5-2,16-4.5c2.318-2.318,5.438-5.358,10.5-8"/>
	<g>
		<path style="fill:#1D1E1C;" d="M74.527,45.29c-0.416-0.167-0.831-0.326-1.229-0.441c-0.414-0.113-0.834-0.181-1.247-0.26
			c-0.419-0.061-0.839-0.1-1.262-0.112c-0.424-0.012-0.848,0.01-1.273,0.016c-0.852,0.031-1.711,0.112-2.592,0.171
			c-0.439,0.036-0.887,0.063-1.341,0.065l-0.72-0.007L64.2,44.664c-1.029-0.139-1.901-0.485-2.731-0.939
			c-0.82-0.454-1.559-0.995-2.254-1.562c-1.388-1.139-2.662-2.33-4.019-3.422l0.04,0.028c-2.208-1.461-4.387-2.974-6.831-3.835
			c-1.212-0.436-2.501-0.642-3.765-0.505c-1.259,0.19-2.527,0.603-3.653,1.232c-2.273,1.286-4.22,3.126-6.174,4.909
			c-0.992,0.892-1.921,1.81-2.988,2.661c-1.082,0.812-2.243,1.484-3.43,2.11c-2.384,1.236-4.919,2.137-7.482,2.893
			c-2.566,0.754-5.18,1.33-7.794,1.824l-3.896,0.754c-0.636,0.138-1.284,0.271-1.844,0.46c-0.137,0.047-0.265,0.101-0.355,0.148
			c-0.042,0.022-0.078,0.048-0.069,0.044c-0.003,0,0.014-0.012,0.04-0.05c-0.009,0.017,0.028-0.056,0.017-0.033L6.997,51.41
			l-0.028,0.056c-0.167,0.313-0.272,0.558-0.368,0.826c-0.401,1.11-0.403,2.323-0.047,3.464c0.351,1.144,1.025,2.205,1.842,3.148
			c1.662,1.887,3.858,3.323,6.166,4.469c1.161,0.58,2.353,1.049,3.602,1.533c1.221,0.471,2.45,0.926,3.697,1.334
			c2.491,0.819,5.014,1.526,7.581,1.997c2.565,0.463,5.165,0.745,7.773,0.722c2.594-0.042,5.262-0.263,7.844-0.63
			c2.586-0.373,5.195-0.894,7.508-2.05c0.583-0.279,1.114-0.638,1.631-1.013c0.486-0.391,0.965-0.878,1.443-1.331
			c0.974-0.912,1.963-1.808,3.008-2.639c2.07-1.683,4.333-3.122,6.714-4.306c0.037-0.019,0.083-0.004,0.101,0.033
			c0.019,0.037,0.004,0.08-0.03,0.1c-2.323,1.274-4.512,2.779-6.513,4.501c-1.007,0.854-1.958,1.771-2.894,2.701
			c-0.469,0.475-0.911,0.944-1.424,1.427c-0.526,0.443-1.086,0.852-1.688,1.174c-2.396,1.336-5.052,1.982-7.679,2.487
			c-1.321,0.247-2.646,0.419-3.981,0.563c-1.33,0.146-2.65,0.262-4.012,0.316c-2.698,0.098-5.411-0.084-8.069-0.547
			c-2.659-0.455-5.275-1.124-7.818-1.986c-2.554-0.864-5.037-1.792-7.486-3.003c-2.417-1.233-4.748-2.767-6.589-4.891
			c-0.904-1.066-1.684-2.295-2.102-3.698c-0.427-1.393-0.414-2.968,0.106-4.353c0.129-0.355,0.3-0.717,0.448-0.986l0.028-0.056
			l0.015-0.027c-0.003,0.003,0.049-0.084,0.052-0.084c0.071-0.109,0.144-0.183,0.206-0.234c0.132-0.114,0.24-0.174,0.344-0.229
			c0.205-0.104,0.388-0.17,0.564-0.228c0.704-0.221,1.359-0.346,2.024-0.467l3.939-0.645c5.201-0.865,10.446-1.818,15.222-4.058
			c1.189-0.553,2.327-1.226,3.383-1.985c1.018-0.788,1.994-1.728,2.984-2.598c1.99-1.746,3.897-3.637,6.246-4.997
			c1.179-0.687,2.461-1.146,3.818-1.382c1.372-0.196,2.778-0.023,4.074,0.39c2.617,0.814,4.905,2.29,7.161,3.666l0.024,0.017
			l0.016,0.012c1.421,1.07,2.759,2.239,4.127,3.288c0.688,0.518,1.38,1.013,2.108,1.396c0.362,0.196,0.734,0.355,1.112,0.484
			c0.382,0.131,0.768,0.208,1.124,0.262l0.651,0.044l0.599-0.01l1.296-0.045c0.875-0.036,1.773-0.06,2.681-0.003
			c0.906,0.056,1.821,0.219,2.698,0.492c0.44,0.136,0.857,0.337,1.261,0.553l0.587,0.359l0.522,0.414
			c0.033,0.026,0.039,0.074,0.014,0.106C74.594,45.293,74.558,45.302,74.527,45.29z"/>
	</g>
</g>
<path style="fill:#1D1E1C;" d="M60.397,59.891c-1.167,0.983-7.253,6.573-6.833,6.167c1.58-1.528,9.778-7.447,13.166-9
	c4-1.833,5.167-4.333,6.167-9c0,0,0.167-2.833-1.332-1.893c-0.428,0.269-1.232,1.446-2.418,5.143
	C67.73,55.725,65.147,55.891,60.397,59.891z"/>
<g>
	<path style="fill:#231F20;" d="M51.647,42.808c-0.361-0.298-0.624-0.651-0.836-1.042c-0.113-0.194-0.189-0.403-0.264-0.642
		c-0.034-0.125-0.057-0.246-0.052-0.437c0.013-0.1,0.007-0.219,0.141-0.412c0.062-0.092,0.177-0.175,0.303-0.221
		c0.093-0.028,0.236-0.039,0.288-0.025c0.286,0.056,0.38,0.149,0.495,0.224c0.108,0.078,0.205,0.16,0.278,0.233
		c0.144,0.155,0.299,0.297,0.43,0.467c0.275,0.324,0.528,0.676,0.717,1.104c-0.455-0.108-0.847-0.293-1.216-0.506
		c-0.19-0.098-0.357-0.226-0.536-0.338c-0.089-0.059-0.152-0.114-0.22-0.151c-0.056-0.043-0.146-0.062-0.068-0.041
		c0.001-0.003,0.092,0.007,0.133-0.02c0.08-0.021,0.146-0.082,0.181-0.126c0.066-0.11,0.048-0.12,0.049-0.117
		c-0.01,0.02,0.002,0.107,0.006,0.188c0.005,0.173,0.053,0.366,0.072,0.568C51.608,41.919,51.664,42.342,51.647,42.808z"/>
</g>
<g>
	<path style="fill:#F37820;" d="M33.897,210.558c-1.932,1.826-12.197,6.771-18.167,6.5c-3.666-0.167-3.438-2.878-2.5-4.167
		c1.732-2.381,5.733-4.776,8.931-6.345c-3.021,1.208-6.938,2.744-9.431,3.679c-5.333,2-10.667-0.334-10.667-0.334
		s3.334,2.167,6,2.167c1.167,0,2.5,1.5,2.5,1.5s1.646,4.357,4,4.5c5.5,0.333,10.758-1.721,11.666-1.667
		c2.833,0.166,3.252,1.7,4.167,2.5c1.799,1.572,9.027,3.792,13.167-4.5c0.666-1.334-3.129,3.265-6.303,4.271
		c-3.656,1.16-7.191,0.523-5.265-3.556c0.679-1.436,1.617-3.062,2.733-4.548C37.511,206.854,38.036,206.645,33.897,210.558z"/>
</g>
<g>
	<path style="fill:#F37820;" d="M87.564,218.558c1.932,1.826,12.197,6.771,18.167,6.5c3.666-0.167,2.604-2.961,1.666-4.25
		c-1.732-2.381-4.899-4.693-8.097-6.262c3.021,1.208,6.938,2.744,9.431,3.679c5.333,2,8.666,0.083,8.666,0.083
		s-1.084,2.25-3.75,2.25c-1.167,0-3,0.25-3,0.25s-1.5,5.25-5,5.5c-5.496,0.393-5.925-1.054-6.833-1
		c-2.833,0.166-5.002,2.7-5.917,3.5c-1.799,1.572-8.86,1.875-13-6.417c-0.666-1.334,2.826,4.161,6,5.167
		c3.656,1.16,7.427,0.329,5.5-3.75c-0.679-1.436-3.55-3.764-4.666-5.25C83.951,214.854,83.426,214.645,87.564,218.558z"/>
</g>
<g>
	<path style="fill:#F37820;" d="M41.647,193.308c0.371,0.492,0.81,0.71,1.271,0.84c0.46,0.136,0.962,0.176,1.486,0.2
		c0.532,0.03,1.068,0.012,1.57-0.094c0.492-0.112,1.007-0.306,1.292-0.827c0.04,0.628-0.515,1.174-1.063,1.444
		c-0.57,0.286-1.184,0.389-1.787,0.442c-0.608,0.033-1.268-0.052-1.851-0.386C41.995,194.604,41.521,193.945,41.647,193.308z"/>
</g>
<g>
	<path style="fill:#F37820;" d="M76.397,200.558c0.371,0.492,0.81,0.71,1.271,0.84c0.46,0.136,0.962,0.176,1.486,0.2
		c0.532,0.03,1.068,0.012,1.57-0.094c0.492-0.112,1.007-0.306,1.292-0.827c0.04,0.628-0.515,1.174-1.063,1.444
		c-0.57,0.286-1.184,0.389-1.787,0.442c-0.608,0.033-1.268-0.052-1.851-0.386C76.745,201.854,76.271,201.195,76.397,200.558z"/>
</g>
<path style="fill:#D6EFFB;" d="M106.897,124.558c0,0-18.892,6.883-11.5,8.5c16,3.5,26-15.5,22.5-22S106.897,124.558,106.897,124.558
	z"/>
<g>
	<path style="fill:#FFFFFF;" d="M93.397,132.391c0.75,0,11.334-1,17.667-8c11.506-12.718,6.666-27.333,6.666-27.333
		s-0.332-4.666-3.666,0.667"/>
	<path style="fill:#1D1E1C;" d="M93.397,132.391c4.073-0.408,8.066-1.641,11.657-3.568c1.789-0.977,3.463-2.168,4.916-3.586
		c1.43-1.429,2.703-3.051,3.808-4.75c2.212-3.41,3.674-7.29,4.254-11.298c0.572-3.99,0.374-8.165-0.743-11.984
		c-0.011-0.035-0.019-0.078-0.022-0.113c-0.043-0.43-0.159-0.931-0.353-1.234c-0.102-0.155-0.189-0.206-0.251-0.208
		c-0.068-0.013-0.23,0.039-0.395,0.151c-0.334,0.227-0.658,0.594-0.951,0.973c-0.294,0.384-0.567,0.796-0.829,1.217
		c-0.145,0.235-0.452,0.31-0.688,0.165s-0.309-0.453-0.164-0.688c0,0,0.003-0.006,0.004-0.006c0.279-0.439,0.573-0.873,0.902-1.292
		c0.336-0.416,0.686-0.83,1.197-1.175c0.256-0.16,0.587-0.338,1.031-0.295c0.457,0.049,0.782,0.382,0.943,0.652
		c0.331,0.572,0.418,1.099,0.479,1.674l-0.022-0.113c1.113,4.074,1.217,8.286,0.566,12.387c-0.666,4.097-2.233,8.035-4.543,11.464
		c-1.161,1.713-2.456,3.318-3.957,4.755c-1.513,1.414-3.235,2.585-5.062,3.533C101.51,130.92,97.481,132.067,93.397,132.391z"/>
</g>
<path style="fill:#D6EFFB;" d="M96.897,112.058c0,0-11.892,6.383-4.5,8c16,3.5,28-16.5,24.5-23S96.897,112.058,96.897,112.058z"/>
<g>
	<path style="fill:#FFFFFF;" d="M89.064,119.391c0.75,0,11.518-2.802,18.333-9.333c16-15.333,7.333-27.333,7.333-27.333
		s-1.666,2.333-5,5.666"/>
	<path style="fill:#1D1E1C;" d="M89.064,119.391c2.082-0.507,4.078-1.313,6.039-2.152c1.964-0.837,3.875-1.794,5.698-2.886
		c1.831-1.075,3.594-2.268,5.186-3.653c1.574-1.38,3.041-2.97,4.413-4.565c2.724-3.227,4.932-6.967,5.854-11.085
		c0.967-4.072,0.494-8.576-1.644-12.238l0.238-0.001c-1.555,2.009-3.298,3.836-5.119,5.581c1.731-1.829,3.409-3.724,4.881-5.751
		l0.003-0.005c0.047-0.063,0.137-0.078,0.2-0.031c0.014,0.01,0.025,0.022,0.035,0.035c2.465,3.637,3.042,8.306,2.205,12.581
		c-0.88,4.314-3.152,8.2-5.899,11.543c-1.393,1.683-2.893,3.216-4.559,4.649c-1.672,1.403-3.49,2.612-5.387,3.659
		C97.382,117.08,93.317,118.705,89.064,119.391z"/>
</g>
<circle style="fill:#FFFFFF;" cx="41.397" cy="24.808" r="1.34"/>
<circle style="fill:#FFFFFF;" cx="54.897" cy="24.058" r="1.34"/>
<path style="fill:none;stroke:#000000;stroke-width:2;stroke-miterlimit:10;" d="M105.604,210.964
	c-7.047-3.956-16.107-8.174-19.764-9.566c-3.008-1.145-2.025-0.594-2.383-1.225c-1.726-3.067-1.866-14.83-1.84-20.068
	c11.278-3.814,16.657-11.479,22.435-19.304c5.223-7.072,8.781-15.126,10.381-23.551c1.359-1.961,2.535-4.395,3.466-7.442
	c2.139-6.999,1.879-15.418,0.769-23.099c0.387-5.643-0.937-9.651-0.937-9.651s-0.136-1.884-1.091-1.887
	c1.621-7.54-1.909-12.446-1.909-12.446s-0.533,0.738-1.562,1.949c-0.066-0.181-0.104-0.283-0.104-0.283s-3.054,4.24-8.944,5.723
	c-0.5-2.085-1.096-4.387-2.223-7.056c-1.907-4.516-5.266-5.879-6.001-1.834c-0.319,1.756-1.488-1.828-2.5-0.5
	c-0.572,0.751-3.413,3.929-4.249,4.584c-1.301,1.021-2.812,1.289-4.811,1.552c-7.393-0.567-14.189,2.448-14.189,2.448l0.01,0.032
	c-2.059-0.337-3.652-1.83-4.26-5.782c-0.408-2.654-1.649-8.705-1-12c2.255-11.438,18.5-17.5,15.5-34
	c-4.989-27.442-17.037-35.416-29.5-36.5c-11.5-1-25.62,11.132-28.25,33.75c-0.587,5.046,0.05,8.905,1.191,12.066
	c-8.033,2.701-16.844,3.118-17.441,4.184c-2.65,4.715,1.251,10.397,10,14c3.784,1.559,7.273,2.689,10.604,3.449
	c0.595,1.714,2.071,3.266,5.396,3.551c1.191,0.103,2.299,0.176,3.36,0.234c-0.268,2.546-1.145,5.534-2.86,9.266
	c-0.841,1.828-6.303,7.96-11.083,15.471c-7.835,7.479-15.742,17.904-12.75,27.696c2.179,7.13,4.44,12.877,7.115,17.246
	c1.394,4.22,3.538,8.143,6.718,12.087c5.627,6.982,9.167,14.534,15.275,20.117c0.572,1.323,1.445,2.88,2.711,4.153
	c0.316,5.468,0.438,12.082-0.599,14.399c-0.297,0.666-2.984,1.742-5.896,3.168c-3.541,1.734-10.355,3.702-16.658,5.162
	c-10.892,2.521-22.388,7.434-13.639,10.867c4.17,1.641,4.938-0.395,6.602,3.758c2.424,6.043,12.916,1.35,15.942,1.766
	c3.761,0.521,2.498,3.367,6.446,3.718c9.902,0.877,11.419-6.747,13.226-9.357c5-7.222,7.655-14.772,5.353-17.975
	c-1.446-2.012-3.076-1.456-3.076-1.456l1.004-11.493c0.161-0.02,0.319-0.048,0.478-0.072c4.447,1.312,9.873,1.977,16.726,1.748
	c2.18-0.072,4.21-0.24,6.114-0.488l2.317,17.192c0,0-2.137,0.703-2.908,3.035c-3.16,9.543-0.524,12.654,5.214,19.401
	c2.04,2.399,6.556,9.368,12.174,9.112c3.932-0.18,5.236-3.428,8.905-4.282c2.951-0.689,8.221,4.085,11.111-2.882
	c1.704-4.1,3.259-0.587,6.613-3.508C122.293,214.954,110.416,213.667,105.604,210.964z"/>
<path style="opacity:0.4;fill:#FFFFFF;" d="M8.897,57.808c0,0,5.259,4.689,16,8c5.234,1.612,20.273,3.295,26-1
	c8-6,14.75-10.5,14.75-10.5s-3.346,1.172-8.66,3.69c-3.42,1.621-7.656,4.637-12.34,6.06C24.897,70.058,8.897,57.808,8.897,57.808z"
	/>
</svg>
