<?xml version="1.0" encoding="iso-8859-1"?>
<!-- Generator: Adobe Illustrator 16.0.0, SVG Export Plug-In . SVG Version: 6.00 Build 0)  -->
<!DOCTYPE svg PUBLIC "-//W3C//DTD SVG 1.1//EN" "http://www.w3.org/Graphics/SVG/1.1/DTD/svg11.dtd">
<svg version="1.1" id="Layer_1" xmlns="http://www.w3.org/2000/svg" xmlns:xlink="http://www.w3.org/1999/xlink" x="0px" y="0px"
	 width="195.06px" height="98.379px" viewBox="0 0 195.06 98.379" style="enable-background:new 0 0 195.06 98.379;"
	 xml:space="preserve">
<linearGradient id="SVGID_1_" gradientUnits="userSpaceOnUse" x1="91.751" y1="40.8359" x2="102.2381" y2="-8.5023">
	<stop  offset="0" style="stop-color:#FFFFFF"/>
	<stop  offset="1" style="stop-color:#EBFFFF"/>
</linearGradient>
<ellipse style="fill:url(#SVGID_1_);stroke:#000000;stroke-linecap:round;stroke-linejoin:round;" cx="96.995" cy="16.167" rx="96.333" ry="15.667"/>
<g>
	<path style="fill:#3EC400;" d="M97.626,68.093c-55.676,0-75.041-20.224-75.041-30.163c0,8.075,0.18,44.739,39.576,56.403
		c9.091,2.691,21.949,3.5,35.465,3.5c11.773,0,24.644-1.472,33.035-3.5c37.958-9.178,42.006-48.087,42.006-56.403
		C172.667,47.87,153.302,68.093,97.626,68.093z"/>
	<g>
		<path d="M97.626,68.193c-7.185,0.039-14.377-0.269-21.532-1.011c-7.157-0.701-14.29-1.855-21.268-3.727
			c-3.489-0.931-6.931-2.061-10.293-3.416c-3.366-1.346-6.619-3-9.706-4.944c-3.074-1.958-5.988-4.236-8.448-7.011
			c-1.227-1.388-2.326-2.912-3.176-4.602c-0.841-1.684-1.477-3.545-1.487-5.552h1.738c-0.04,4.537,0.283,9.052,1.059,13.506
			c0.737,4.457,1.953,8.834,3.661,13.019c1.748,4.161,3.954,8.152,6.752,11.713c2.768,3.577,6.035,6.79,9.744,9.411
			c3.686,2.65,7.723,4.803,11.944,6.494c2.099,0.877,4.284,1.543,6.461,2.184c2.199,0.601,4.419,1.055,6.669,1.431
			c9.002,1.453,18.167,1.648,27.287,1.602c4.566-0.062,9.108-0.277,13.644-0.688c4.533-0.438,9.054-1,13.528-1.783
			c4.472-0.787,8.884-1.815,13.078-3.461c4.198-1.611,8.183-3.759,11.793-6.416c3.606-2.661,6.837-5.826,9.583-9.37
			c2.766-3.532,5.025-7.445,6.898-11.529c1.87-4.088,3.301-8.384,4.33-12.771c1.014-4.379,1.699-8.896,1.768-13.339h2.027
			c-0.021,2.041-0.674,3.914-1.528,5.605c-0.864,1.695-1.976,3.22-3.208,4.61c-2.477,2.778-5.401,5.05-8.485,7.002
			c-3.096,1.939-6.357,3.579-9.726,4.925c-3.365,1.352-6.81,2.479-10.301,3.406c-6.98,1.863-14.114,3.021-21.272,3.719
			C112.005,67.935,104.812,68.237,97.626,68.193z M97.627,67.994c7.179-0.049,14.357-0.421,21.481-1.265
			c7.111-0.916,14.174-2.267,21.014-4.341c3.42-1.029,6.777-2.254,10.031-3.688c3.247-1.448,6.412-3.073,9.362-5.017
			c2.942-1.942,5.697-4.183,7.955-6.82c1.114-1.324,2.123-2.731,2.891-4.238c0.759-1.501,1.287-3.125,1.292-4.694v-0.016
			c0.002-0.56,0.457-1.012,1.018-1.01c0.56,0.002,1.012,0.457,1.01,1.017v0.009c-0.059,4.704-0.749,9.284-1.777,13.809
			c-1.044,4.516-2.502,8.944-4.421,13.179c-1.918,4.232-4.335,8.253-7.229,11.906c-2.885,3.659-6.276,6.927-10.051,9.661
			c-3.778,2.731-7.933,4.926-12.286,6.55c-4.353,1.633-8.907,2.621-13.444,3.357c-9.076,1.469-18.281,2.056-27.444,1.979
			c-4.579-0.051-9.159-0.194-13.731-0.501c-4.57-0.321-9.14-0.743-13.666-1.512c-2.256-0.393-4.518-0.872-6.725-1.492
			c-2.203-0.656-4.385-1.369-6.521-2.219c-4.278-1.667-8.386-3.808-12.151-6.461c-3.77-2.646-7.171-5.821-10.086-9.403
			c-2.939-3.567-5.297-7.594-7.182-11.815c-1.846-4.244-3.193-8.699-4.052-13.246c-0.858-4.545-1.199-9.188-1.199-13.792
			c0-0.48,0.389-0.869,0.869-0.869c0.477,0,0.864,0.384,0.869,0.86v0.009c0.016,1.602,0.561,3.239,1.333,4.746
			c0.782,1.514,1.802,2.921,2.923,4.248c2.274,2.639,5.041,4.875,7.992,6.811c2.958,1.939,6.133,3.55,9.382,4.999
			c3.258,1.431,6.617,2.652,10.039,3.679c6.844,2.065,13.906,3.419,21.019,4.332C83.268,67.583,90.447,67.95,97.627,67.994z"/>
	</g>
</g>
<g>
	<path style="fill:#45E900;" d="M100.661,31.333C43.343,32.691,1.203,27.11,1.203,13.687c0,13.423,3.802,79.539,96.423,79.539
		c92.621,0,96.422-66.116,96.422-79.539C194.049,25.036,163.994,29.833,100.661,31.333z"/>
	<g>
		<path d="M100.664,31.434c-8.749,0.246-17.504,0.333-26.258,0.234c-8.755-0.042-17.514-0.295-26.262-0.877
			c-4.374-0.299-8.745-0.676-13.104-1.198c-4.362-0.507-8.705-1.216-13.016-2.133c-4.303-0.94-8.596-2.078-12.701-3.884
			c-2.041-0.92-4.05-2.013-5.796-3.57c-0.867-0.779-1.661-1.688-2.255-2.758c-0.604-1.062-0.927-2.319-0.936-3.561h1.737
			C2.064,19.5,2.723,25.323,3.91,31.022c1.173,5.706,2.947,11.293,5.346,16.608c2.397,5.313,5.439,10.343,9.075,14.912
			c3.627,4.577,7.87,8.671,12.565,12.163c4.678,3.521,9.812,6.412,15.151,8.82c5.369,2.356,10.966,4.17,16.667,5.536
			c5.696,1.395,11.508,2.292,17.343,2.858c5.837,0.565,11.705,0.791,17.569,0.749c5.878-0.042,11.716-0.354,17.543-1.002
			c5.814-0.661,11.601-1.608,17.261-3.052c2.838-0.688,5.628-1.55,8.396-2.464c2.756-0.95,5.468-2.016,8.135-3.182
			c5.303-2.39,10.398-5.257,15.039-8.746c4.649-3.471,8.872-7.506,12.504-12.02c3.635-4.513,6.68-9.489,9.127-14.744
			c2.439-5.261,4.265-10.808,5.493-16.485c1.228-5.676,1.895-11.488,1.915-17.289h2.021c-0.002,1.191-0.315,2.397-0.886,3.431
			c-0.568,1.035-1.34,1.902-2.175,2.635c-1.688,1.459-3.621,2.429-5.559,3.258c-3.904,1.614-7.953,2.591-12.005,3.416
			c-8.117,1.619-16.327,2.39-24.523,3.03c-8.201,0.614-16.41,1-24.62,1.273C117.085,31.06,108.874,31.282,100.664,31.434z
			 M100.659,31.233c8.208-0.238,16.414-0.541,24.613-0.96c8.195-0.489,16.385-1.073,24.543-1.915
			c4.078-0.422,8.149-0.906,12.2-1.492c4.05-0.597,8.088-1.254,12.071-2.117c3.972-0.875,7.93-1.912,11.597-3.503
			c1.82-0.801,3.567-1.769,4.996-2.999c1.418-1.233,2.392-2.818,2.359-4.559c-0.01-0.558,0.435-1.019,0.992-1.029
			s1.019,0.434,1.029,0.992v0.015v0.022c-0.008,5.963-0.676,11.902-1.918,17.724c-1.244,5.82-3.102,11.518-5.598,16.936
			c-2.484,5.422-5.673,10.527-9.446,15.151c-3.771,4.626-8.146,8.752-12.944,12.284c-4.789,3.553-10.026,6.454-15.457,8.858
			c-5.448,2.376-11.123,4.18-16.887,5.537c-5.761,1.383-11.624,2.258-17.5,2.843c-5.872,0.571-11.8,0.803-17.684,0.763
			c-5.897-0.044-11.795-0.36-17.657-1.017c-5.856-0.679-11.694-1.603-17.418-3.035c-2.87-0.684-5.695-1.541-8.499-2.454
			c-2.795-0.943-5.542-2.024-8.251-3.193c-5.395-2.385-10.594-5.263-15.345-8.783c-4.752-3.512-9.107-7.578-12.883-12.142
			c-3.772-4.567-6.963-9.619-9.498-14.982c-2.538-5.364-4.446-11.021-5.746-16.813C1.047,25.566,0.37,19.638,0.334,13.687
			c-0.003-0.479,0.384-0.871,0.863-0.874c0.48-0.003,0.871,0.383,0.874,0.863v0.01c-0.007,1.907,1.103,3.654,2.637,4.993
			c1.538,1.354,3.418,2.379,5.342,3.285c3.894,1.769,8.096,2.943,12.322,3.915c4.235,0.969,8.539,1.664,12.852,2.307
			c4.316,0.628,8.656,1.114,13.005,1.521c8.701,0.803,17.439,1.261,26.183,1.519C83.159,31.427,91.91,31.397,100.659,31.233z"/>
	</g>
</g>
<g>
	<path d="M0.499,18.742c0.007,0.017-0.061-0.141-0.133-0.361c-0.077-0.227-0.173-0.556-0.253-0.989
		c-0.078-0.433-0.145-0.974-0.095-1.62c0.053-0.636,0.229-1.419,0.741-2.113c0.513-0.7,1.167-1.148,1.849-1.57
		c0.687-0.416,1.425-0.777,2.197-1.11c1.544-0.666,3.221-1.226,4.91-1.724c3.379-0.992,6.809-1.714,9.388-2.194
		c2.58-0.479,4.31-0.727,4.31-0.727s-1.708,0.374-4.24,1.038c-2.53,0.665-5.887,1.633-9.135,2.851
		c-1.622,0.609-3.22,1.279-4.635,2.016c-0.706,0.369-1.366,0.756-1.936,1.162c-0.567,0.399-1.057,0.84-1.287,1.227
		c-0.484,0.781-0.336,1.75-0.187,2.362c0.08,0.313,0.168,0.558,0.233,0.714c0.064,0.145,0.099,0.222,0.099,0.222
		c0.226,0.504,0,1.096-0.504,1.321C1.315,19.472,0.724,19.246,0.499,18.742z"/>
</g>
<g>
	<path d="M193.07,14.856c-0.007,0.009,0.033-0.046,0.036-0.059c-0.021-0.004-0.029,0.09-0.025,0.038
		c0.027-0.031,0.027-0.152-0.051-0.387c-0.034-0.117-0.168-0.265-0.249-0.428c-0.133-0.16-0.315-0.329-0.486-0.519
		c-0.422-0.343-0.911-0.75-1.56-1.096c-0.604-0.393-1.351-0.71-2.118-1.078c-0.777-0.354-1.644-0.651-2.517-1.002
		c-0.901-0.294-1.833-0.598-2.779-0.907c-0.956-0.284-1.94-0.539-2.92-0.812c-0.976-0.287-1.976-0.488-2.95-0.726
		c-0.979-0.22-1.934-0.477-2.874-0.651c-1.876-0.37-3.623-0.755-5.133-1.016c-3.02-0.528-5.033-0.881-5.033-0.881
		s2.032,0.229,5.081,0.572c1.525,0.167,3.294,0.446,5.198,0.702c0.953,0.118,1.927,0.316,2.924,0.477
		c0.993,0.179,2.011,0.32,3.013,0.549c1.005,0.216,2.015,0.413,3.003,0.641c0.984,0.256,1.953,0.508,2.891,0.751
		c0.926,0.306,1.833,0.557,2.676,0.88c0.839,0.34,1.644,0.625,2.356,1.024c0.729,0.336,1.366,0.784,1.928,1.197
		c0.269,0.25,0.525,0.469,0.747,0.711c0.204,0.292,0.411,0.521,0.544,0.817c0.275,0.584,0.351,1.196,0.235,1.627
		c-0.019,0.19-0.143,0.44-0.198,0.554c-0.037,0.068-0.057,0.104-0.057,0.104c-0.3,0.464-0.918,0.598-1.383,0.298
		C192.905,15.939,192.771,15.32,193.07,14.856z"/>
</g>
<path style="opacity:0.3;fill:#FFFFFF;" d="M3.995,22.5c0,0,3.667,33.833,27.667,51.333s65,18.333,65,18.333s-30.833-9.667-45-34
	c-5.964-10.244-10.333-24-10.333-24s-4.333,0.167-17.333-3.333C11.686,27.52,3.995,22.5,3.995,22.5z"/>
</svg>
