<?xml version="1.0" encoding="iso-8859-1"?>
<!-- Generator: Adobe Illustrator 16.0.0, SVG Export Plug-In . SVG Version: 6.00 Build 0)  -->
<!DOCTYPE svg PUBLIC "-//W3C//DTD SVG 1.1//EN" "http://www.w3.org/Graphics/SVG/1.1/DTD/svg11.dtd">
<svg version="1.1" id="cupboard" xmlns="http://www.w3.org/2000/svg" xmlns:xlink="http://www.w3.org/1999/xlink" x="0px" y="0px"
	 width="79.24px" height="74.966px" viewBox="0 0 79.24 74.966" style="enable-background:new 0 0 79.24 74.966;"
	 xml:space="preserve">
<g>
	<g>
		<path style="fill:#F71CAE;" d="M12.607,70.201c0.816,1.264,8.267,4.367,19.101,4.262c10.834,0.105,20.183-2.998,20.999-4.262
			c2.255-3.49,4.693-10.901,5.942-19.95c7.75-0.5,15.75-13.5,19.5-27.5c2.37-8.846-2.921-12.301-6.463-13.346
			c-4.209-1.243-7.183-0.084-9.204,0.479c0.001-4.988-0.211-5.605-0.467-6.949c-0.318-1.67-14.426-2.333-30.358-2.278
			C15.725,0.603,1.616,2.266,1.299,3.936C0.23,9.543-0.059,50.6,12.607,70.201z M60.259,42.593
			c2.234-9.82,2.182-17.053,2.641-26.092c1.373-1.677,0.46-1.229,3.255-1.948c6.995-1.802,7.579,2.414,5.246,11.747
			c-1.047,4.188-2.334,10.834-7.667,15.667C63.026,42.607,60.621,44.329,60.259,42.593z"/>
	</g>
	<g>
		<path style="fill:#1D1E1C;" d="M12.648,70.173c0.4,0.493,1.007,0.788,1.576,1.081c0.582,0.284,1.185,0.529,1.795,0.751
			c1.221,0.443,2.474,0.795,3.739,1.092c2.531,0.594,5.123,0.892,7.713,1.036c1.296,0.068,2.594,0.089,3.89,0.062
			c1.309-0.011,2.595-0.037,3.891-0.123c2.586-0.16,5.159-0.504,7.702-0.98c2.535-0.491,5.067-1.111,7.445-2.05
			c0.586-0.238,1.178-0.506,1.658-0.829c0.109-0.076,0.23-0.174,0.265-0.228c0.049-0.057,0.158-0.256,0.234-0.377
			c0.176-0.279,0.321-0.557,0.469-0.833c0.592-1.121,1.096-2.314,1.55-3.518c1.81-4.835,2.916-9.938,3.652-15.064l0.049-0.342
			l0.346-0.025c2.432-0.172,4.654-1.561,6.514-3.214c1.873-1.676,3.471-3.672,4.881-5.78c2.818-4.23,4.984-8.901,6.628-13.728
			c0.414-1.207,0.796-2.425,1.142-3.653c0.358-1.223,0.649-2.465,0.753-3.726c0.097-1.261,0.022-2.536-0.298-3.752
			c-0.325-1.212-0.91-2.351-1.724-3.301c-1.632-1.919-4.055-3.031-6.528-3.415c-1.24-0.2-2.506-0.208-3.748-0.027
			c-1.247,0.175-2.447,0.554-3.684,0.923l-0.344,0.103l-0.01-0.37c-0.038-1.417-0.018-2.845-0.131-4.247
			c-0.029-0.711-0.137-1.385-0.264-2.083l-0.103-0.521l-0.006-0.033c0.017,0.063-0.002,0,0,0.006
			c-0.007-0.015-0.017-0.058-0.019-0.048c-0.002,0.015,0.006,0.016-0.017-0.008c-0.027-0.032-0.082-0.072-0.139-0.109
			c-0.246-0.151-0.577-0.261-0.902-0.354c-2.697-0.655-5.577-0.796-8.397-0.985c-5.672-0.312-11.363-0.361-17.051-0.38
			c-5.698-0.011-11.37,0.048-17.043,0.417C15.3,1.716,12.472,1.964,9.659,2.294C8.255,2.465,6.853,2.66,5.472,2.92
			c-0.69,0.131-1.376,0.278-2.039,0.461c-0.331,0.093-0.657,0.194-0.96,0.315c-0.29,0.105-0.618,0.295-0.675,0.379
			c0,0.002-0.003,0.003,0.007-0.017C1.81,4.05,1.809,4.036,1.811,4.029L1.8,4.095L1.759,4.358c-0.03,0.178-0.056,0.352-0.07,0.52
			C1.649,5.215,1.612,5.557,1.588,5.91C1.525,6.609,1.489,7.316,1.455,8.022c-0.069,1.413-0.092,2.831-0.108,4.249
			c-0.021,2.837,0.042,5.677,0.153,8.514c0.195,5.677,0.673,11.343,1.377,16.98c0.351,2.819,0.783,5.63,1.313,8.421
			c0.534,2.79,1.14,5.57,1.894,8.311C6.831,57.24,7.73,59.942,8.8,62.576C9.871,65.208,11.118,67.773,12.648,70.173z M12.566,70.229
			c-3.108-4.8-5.116-10.205-6.768-15.65c-0.819-2.732-1.49-5.507-2.089-8.296c-0.601-2.789-1.105-5.599-1.528-8.421
			c-0.864-5.642-1.374-11.334-1.671-17.034c-0.135-2.852-0.194-5.706-0.184-8.563c0.014-1.429,0.033-2.857,0.1-4.289
			c0.033-0.716,0.068-1.431,0.13-2.15C0.581,5.47,0.618,5.104,0.661,4.733c0.018-0.188,0.044-0.365,0.072-0.539l0.04-0.264
			l0.011-0.065C0.792,3.813,0.81,3.759,0.826,3.708c0.035-0.105,0.086-0.179,0.135-0.25c0.405-0.467,0.765-0.563,1.124-0.729
			c0.357-0.143,0.712-0.253,1.066-0.353c0.708-0.197,1.416-0.35,2.124-0.486c1.416-0.27,2.836-0.47,4.257-0.646
			c2.841-0.352,5.69-0.562,8.54-0.729c5.696-0.339,11.419-0.367,17.107-0.323c5.699,0.034,11.4,0.17,17.096,0.549
			c2.848,0.229,5.695,0.389,8.532,1.111c0.354,0.109,0.709,0.22,1.07,0.444c0.091,0.062,0.183,0.126,0.271,0.229
			c0.04,0.041,0.095,0.117,0.137,0.211c0.021,0.047,0.018,0.05,0.027,0.076l0.019,0.069l0.007,0.033l0.097,0.528
			c0.119,0.701,0.226,1.44,0.245,2.152c0.098,1.439,0.059,2.861,0.08,4.29l-0.353-0.268c1.217-0.344,2.469-0.729,3.763-0.894
			c1.292-0.174,2.612-0.151,3.896,0.07c1.292,0.224,2.532,0.606,3.696,1.214c1.157,0.597,2.213,1.409,3.051,2.415
			c0.841,1.003,1.439,2.2,1.763,3.462c0.319,1.266,0.38,2.579,0.268,3.865c-0.116,1.29-0.389,2.555-0.744,3.787
			c-0.337,1.237-0.71,2.464-1.116,3.681c-1.64,4.854-3.683,9.602-6.457,13.948c-1.389,2.166-2.971,4.233-4.879,6.011
			c-0.956,0.881-1.996,1.694-3.159,2.328c-1.165,0.623-2.459,1.065-3.812,1.171l0.395-0.366c-0.729,5.181-1.825,10.329-3.655,15.266
			c-0.471,1.23-0.988,2.439-1.619,3.62c-0.161,0.297-0.321,0.595-0.494,0.866c-0.1,0.152-0.139,0.246-0.286,0.448
			c-0.163,0.207-0.312,0.301-0.466,0.413c-0.606,0.397-1.217,0.655-1.837,0.904c-2.48,0.95-5.041,1.547-7.62,2.022
			c-2.581,0.468-5.193,0.73-7.81,0.846c-2.619,0.098-5.229,0.059-7.841-0.155c-2.607-0.214-5.19-0.65-7.729-1.258
			c-1.268-0.313-2.522-0.681-3.745-1.141c-0.611-0.23-1.214-0.484-1.799-0.778C13.598,71.059,12.988,70.759,12.566,70.229z"/>
		<path style="fill:#1D1E1C;" d="M60.208,42.593l0.517-3.257c0.093-0.54,0.14-1.084,0.223-1.623l0.222-1.619
			c0.148-1.079,0.213-2.172,0.348-3.252c0.119-1.084,0.185-2.174,0.279-3.259l0.391-6.54c0.125-2.185,0.304-4.369,0.465-6.555
			l0.007-0.09l0.049-0.055c0.3-0.333,0.569-0.667,0.862-1.04c0.146-0.191,0.4-0.37,0.632-0.434c0.23-0.075,0.45-0.122,0.671-0.175
			c0.887-0.18,1.741-0.446,2.651-0.597c0.899-0.15,1.834-0.201,2.764,0.013c0.936,0.208,1.775,0.918,2.159,1.811
			c0.409,0.882,0.522,1.837,0.557,2.76c0.019,0.929-0.053,1.847-0.163,2.755c-0.225,1.814-0.626,3.594-1.038,5.351
			c-0.396,1.751-0.821,3.526-1.399,5.261c-0.582,1.732-1.314,3.428-2.254,5.008c-0.466,0.792-0.986,1.551-1.542,2.281
			c-0.582,0.711-1.198,1.391-1.861,2.021c-0.346,0.304-0.665,0.617-1.031,0.911c-0.369,0.282-0.756,0.531-1.166,0.746
			c-0.409,0.209-0.845,0.398-1.329,0.432c-0.238,0.011-0.504-0.04-0.695-0.209c-0.188-0.171-0.275-0.408-0.313-0.635L60.208,42.593z
			 M60.311,42.591c0.054,0.208,0.153,0.405,0.311,0.526c0.163,0.12,0.374,0.146,0.581,0.119c0.418-0.062,0.816-0.27,1.188-0.5
			c0.371-0.234,0.725-0.506,1.049-0.799c0.312-0.3,0.616-0.639,0.924-0.955c0.596-0.66,1.14-1.362,1.646-2.088
			c0.498-0.731,0.967-1.481,1.378-2.265c0.818-1.568,1.466-3.221,2.011-4.91c0.256-0.852,0.521-1.7,0.742-2.566l0.679-2.609
			c0.463-1.738,0.874-3.477,1.167-5.23c0.145-0.875,0.25-1.755,0.271-2.63c0.026-0.869-0.029-1.753-0.333-2.534
			c-0.289-0.788-0.925-1.395-1.747-1.64c-0.821-0.255-1.728-0.203-2.602-0.083c-0.875,0.117-1.752,0.371-2.62,0.601
			c-0.438,0.128-0.873,0.193-1.083,0.523c-0.255,0.343-0.502,0.748-0.779,1.107l0.056-0.145c-0.046,2.188-0.062,4.377-0.124,6.566
			l-0.139,3.286c-0.078,1.096-0.157,2.19-0.258,3.283c-0.119,1.093-0.209,2.188-0.354,3.277l-0.238,1.632
			c-0.087,0.543-0.154,1.087-0.268,1.627c-0.219,1.078-0.389,2.167-0.647,3.232L60.311,42.591z"/>
	</g>
</g>
<path style="fill:#FFFFFF;" d="M61.814,3.004c0.669,2.963-14.2,4.614-30.998,4.797S1.001,6.138,0.985,4.666
	C0.969,3.193,14.572,0.851,31.37,0.668S61.49,1.567,61.814,3.004z"/>
<g>
	<path style="fill:#1D1E1C;" d="M31.529,0.5c-3.813,0.126-7.624,0.266-11.424,0.51c-1.9,0.12-3.795,0.278-5.685,0.487L8.752,2.171
		c-1.862,0.251-3.761,0.55-5.44,1.245c-0.81,0.326-1.627,0.93-1.563,1.513c-0.017-0.026,0.075,0.127,0.236,0.22
		C2.14,5.252,2.337,5.344,2.54,5.424c0.409,0.16,0.854,0.285,1.306,0.392c3.656,0.787,7.493,0.976,11.277,1.204
		c7.595,0.403,15.232,0.524,22.834,0.379c3.806-0.095,7.609-0.304,11.4-0.647c1.896-0.168,3.79-0.374,5.67-0.667
		c0.939-0.147,1.876-0.318,2.803-0.533c0.921-0.222,1.855-0.455,2.69-0.921c-1.665,0.959-3.592,1.309-5.449,1.703
		c-1.877,0.364-3.769,0.643-5.664,0.881c-3.794,0.459-7.606,0.736-11.423,0.924c-3.818,0.204-7.644,0.2-11.458,0.172
		C22.708,8.278,18.89,8.197,15.07,8.012c-1.909-0.098-3.817-0.243-5.725-0.433C7.438,7.378,5.532,7.154,3.631,6.703
		C3.155,6.586,2.681,6.451,2.203,6.26C1.965,6.162,1.727,6.053,1.485,5.892c-0.225-0.17-0.53-0.36-0.622-0.871
		C0.811,4.313,1.212,3.759,1.621,3.405C2.042,3.047,2.503,2.81,2.964,2.609C4.822,1.854,6.74,1.575,8.646,1.321
		c3.796-0.42,7.611-0.758,11.433-0.871C23.898,0.333,27.716,0.378,31.529,0.5z"/>
</g>
<path style="opacity:0.3;fill:#FFFFFF;" d="M3.066,7.967c0,0-0.898,12.445,0.667,27.333c2.418,23,9.667,34,9.667,34
	s8,3.333,7.666,1.667c-0.56-2.793-7.188-16.381-8.751-42.334C11.733,18.967,12.4,9.3,12.4,9.3L3.066,7.967z"/>
<path style="fill:none;stroke:#000000;stroke-miterlimit:10;" d="M71.354,9.405c-4.209-1.243-7.183-0.084-9.204,0.479
	c0.001-4.988-0.211-5.605-0.467-6.949c-0.232-1.222-7.845-1.903-18.149-2.161c-3.359-0.1-7.048-0.145-10.95-0.12
	c-0.099,0.001-0.197,0.001-0.297,0.001L31.196,0.5c-13.096,0-17.278,0.652-21.772,1.125c-1.995,0.209-4.156,0.541-5.796,1.08
	c-1.631,0.392-2.582,0.811-2.662,1.23c-0.02,0.102-0.038,0.24-0.057,0.365C0.744,4.427,0.651,4.55,0.652,4.666
	C0.653,4.763,0.714,4.861,0.824,4.96c-0.925,8.362-0.63,46.547,11.45,65.241c0.816,1.264,8.267,4.367,19.101,4.262
	c10.834,0.105,20.183-2.998,20.999-4.262c2.255-3.49,4.693-10.901,5.942-19.95c7.75-0.5,16.417-11.284,19.5-27.5
	C79.527,13.755,74.896,10.45,71.354,9.405z M71.067,26.3c-1.047,4.188-2.334,11.667-7.667,15.667
	c-0.763,0.572-3.112,2.362-3.475,0.626c2.234-9.82,2.182-17.053,2.641-26.092c1.373-1.677,0.46-1.229,3.255-1.948
	C72.816,12.751,73.4,16.967,71.067,26.3z"/>
</svg>
