<?xml version="1.0" encoding="utf-8"?>
<!-- Generator: Adobe Illustrator 16.0.0, SVG Export Plug-In . SVG Version: 6.00 Build 0)  -->
<!DOCTYPE svg PUBLIC "-//W3C//DTD SVG 1.1//EN" "http://www.w3.org/Graphics/SVG/1.1/DTD/svg11.dtd">
<svg version="1.1" id="Layer_1" xmlns="http://www.w3.org/2000/svg" xmlns:xlink="http://www.w3.org/1999/xlink" x="0px" y="0px"
	 width="91.451px" height="179.262px" viewBox="0 0 91.451 179.262" enable-background="new 0 0 91.451 179.262"
	 xml:space="preserve">
<g>
	<path fill="#754C28" d="M51.857,82.372c0.309-7.771,13.321-31.821,13.321-31.821l-1.728-2.985c0,0-9.423,23.532-11.759,23.248
		c-0.851-0.104-3.152-12.038-2.612-13.141c0.536-1.091,12.55-17.429,12.55-17.429l-2.323,0.72c0,0-8.489,14.176-10.653,14.896
		c-0.611,0.205-1.377-14.128-1.915-16.111c-0.502-1.842-1.214,0.667-1.214,0.667s3.089,25.979,2.008,25.86
		c-0.609-0.069-7.235-15.307-7.089-16.702c0.198-1.882,4.697-11.051,4.697-11.051l-1.288-0.647c0,0-4.09,10.297-4.96,9.9
		c-0.983-0.448-2.005-5.755-2.793-8.16c-0.98-2.989-1.804-0.487-1.804-0.487s9.348,19.271,7.71,20.538
		c-1.109,0.855-16.7-21.746-16.7-21.746l-3.244,0.24c0,0,12.711,15.949,19.223,24.39c4.617,5.984,6.067,10.307,6.407,12.135
		c0.749,4.012-3.451,77.386-4.005,103.419c-0.026,1.251,2.8,0.772,5.7,0.592c2.978-0.185,6.229,0.783,6.353-0.852
		C56.356,169.628,50.174,124.664,51.857,82.372z"/>
	<path fill="#1A171B" d="M51.82,82.37c0.049-0.717,0.14-1.443,0.302-2.147c0.145-0.708,0.332-1.408,0.535-2.101
		c0.406-1.387,0.882-2.752,1.386-4.106c1.02-2.703,2.158-5.359,3.346-7.992c2.388-5.26,4.962-10.433,7.667-15.538l0.002,0.135
		l-1.736-2.98l0.266-0.019c-1.908,4.743-3.894,9.453-6.042,14.095c-1.086,2.315-2.19,4.625-3.507,6.836
		c-0.337,0.549-0.682,1.095-1.095,1.607c-0.21,0.254-0.427,0.507-0.732,0.717c-0.163,0.087-0.342,0.226-0.659,0.129
		c-0.198-0.124-0.198-0.187-0.263-0.271c-0.05-0.08-0.088-0.157-0.125-0.234c-0.52-1.228-0.789-2.47-1.094-3.72
		c-0.561-2.503-1.05-5.014-1.301-7.585c-0.026-0.323-0.047-0.647-0.042-0.984c0.005-0.171,0.008-0.336,0.063-0.547
		c0.042-0.139,0.102-0.205,0.135-0.268l0.124-0.205c0.361-0.553,0.73-1.083,1.093-1.605l2.218-3.128
		c2.979-4.153,5.971-8.295,8.999-12.412l0.367,0.516l-2.325,0.715l0.184-0.145c-1.61,2.652-3.263,5.271-4.985,7.852
		c-0.864,1.288-1.745,2.566-2.674,3.814c-0.467,0.623-0.945,1.238-1.458,1.833c-0.254,0.298-0.526,0.587-0.815,0.866
		c-0.155,0.135-0.293,0.276-0.479,0.397c-0.086,0.063-0.175,0.125-0.292,0.175l-0.083,0.039l-0.042,0.019l-0.01,0.004
		c0.018-0.001-0.193,0.031-0.108,0.017l-0.018,0c-0.006,0.006-0.156-0.028-0.209-0.086c-0.061-0.057-0.046-0.053-0.072-0.083
		c-0.037-0.052-0.042-0.073-0.06-0.11c-0.276-0.856-0.308-1.58-0.42-2.367l-0.238-2.315l-0.404-4.628
		c-0.132-1.542-0.26-3.083-0.421-4.618c-0.091-0.757-0.151-1.553-0.339-2.247c-0.044-0.157-0.136-0.345-0.18-0.372
		c-0.009,0.01,0.08-0.007,0.028,0.012c-0.033,0.023-0.085,0.084-0.128,0.152c-0.178,0.282-0.312,0.652-0.418,0.999l0.007-0.096
		c0.536,4.661,1.037,9.324,1.476,13.996c0.217,2.336,0.422,4.673,0.572,7.017c0.072,1.172,0.138,2.345,0.132,3.528
		c-0.005,0.296-0.013,0.593-0.047,0.898c-0.032,0.163-0.014,0.289-0.144,0.51c-0.031,0.033-0.042,0.061-0.096,0.09
		c-0.067,0.025-0.128,0.052-0.207,0.018c-0.02,0.003-0.158-0.104-0.157-0.12c-0.062-0.069-0.103-0.132-0.147-0.197
		c-0.327-0.515-0.583-1.039-0.848-1.566c-1.035-2.112-1.976-4.261-2.897-6.42c-0.911-2.163-1.806-4.332-2.583-6.553
		c-0.188-0.56-0.38-1.111-0.497-1.709c-0.035-0.132-0.031-0.358,0.009-0.484c0.03-0.144,0.052-0.287,0.101-0.433
		c0.083-0.293,0.176-0.578,0.278-0.853c0.402-1.109,0.867-2.187,1.338-3.262c0.949-2.147,1.957-4.265,2.986-6.375l0.051,0.151
		L43.8,37.978l0.159-0.061c-0.714,1.789-1.456,3.565-2.243,5.325c-0.396,0.878-0.801,1.753-1.243,2.612
		c-0.222,0.429-0.451,0.855-0.713,1.268c-0.133,0.206-0.269,0.41-0.451,0.599c-0.101,0.075-0.182,0.23-0.45,0.187
		c-0.147-0.061-0.252-0.173-0.335-0.274c-0.314-0.417-0.48-0.875-0.656-1.329c-0.169-0.456-0.313-0.917-0.452-1.38
		c-0.274-0.926-0.517-1.858-0.763-2.788c-0.25-0.927-0.484-1.863-0.801-2.759c-0.16-0.408-0.375-0.932-0.69-1.061
		c-0.128-0.054-0.293,0.081-0.418,0.259c-0.124,0.177-0.224,0.395-0.297,0.603l-0.008-0.12c1.8,3.735,3.534,7.5,5.142,11.325
		c0.796,1.915,1.572,3.84,2.208,5.825c0.157,0.497,0.302,0.999,0.421,1.511c0.109,0.516,0.234,1.027,0.167,1.614
		c-0.024,0.144-0.062,0.317-0.219,0.465l-0.028,0.027c-0.108,0.06-0.043,0.021-0.073,0.037c-0.019,0.006-0.021,0.011-0.054,0.017
		c-0.07,0.014-0.193,0.002-0.222-0.016c-0.088-0.03-0.158-0.069-0.218-0.109c-0.247-0.16-0.434-0.342-0.627-0.526
		c-0.378-0.37-0.727-0.758-1.069-1.15c-1.36-1.578-2.623-3.222-3.879-4.872c-1.252-1.653-2.482-3.321-3.702-4.997
		c-2.438-3.353-4.836-6.731-7.206-10.133l0.247,0.118l-3.243,0.249l0.201-0.46l9.976,12.587c3.318,4.206,6.66,8.375,9.93,12.634
		c1.604,2.137,3.08,4.443,4.24,6.88c0.56,1.233,1.091,2.483,1.438,3.813l0.116,0.505c0.019,0.094,0.04,0.147,0.057,0.274l0.024,0.25
		c0.042,0.326,0.037,0.685,0.052,1.029c0.013,0.688,0.014,1.351,0.005,2.025c-0.075,5.364-0.303,10.71-0.514,16.061l-2.865,64.17
		l-0.608,16.042c-0.04,1.311-0.093,2.732-0.101,3.952c-0.001,0.104,0.198,0.249,0.489,0.311c0.283,0.067,0.605,0.085,0.926,0.093
		c0.647,0.008,1.311-0.039,1.976-0.086c1.319-0.104,2.699-0.225,4.048-0.12c0.673,0.035,1.34,0.091,1.997,0.111
		c0.633,0.011,1.359,0.021,1.766-0.264c0.191-0.16,0.233-0.297,0.236-0.684c0.016-0.334,0.035-0.669,0.03-0.997
		c0.01-0.655-0.013-1.324-0.028-1.99c-0.051-1.333-0.117-2.667-0.204-4.001l-0.572-8.005l-1.217-16.013
		C51.941,125.208,50.943,103.774,51.82,82.37z M51.895,82.375c-0.775,21.404,0.322,42.82,1.961,64.158l1.312,16.004l0.621,8.009
		c0.095,1.336,0.169,2.675,0.229,4.016c0.019,0.672,0.046,1.341,0.04,2.024c0.006,0.342-0.011,0.675-0.025,1.009l-0.01,0.25
		c-0.011,0.115-0.023,0.211-0.059,0.32c-0.064,0.212-0.209,0.412-0.383,0.542c-0.733,0.474-1.452,0.377-2.127,0.397
		c-0.681-0.015-1.348-0.066-2.012-0.096c-1.327-0.092-2.623,0.035-3.968,0.151c-0.669,0.053-1.342,0.107-2.034,0.104
		c-0.347-0.006-0.697-0.02-1.068-0.103c-0.185-0.044-0.378-0.104-0.572-0.228c-0.195-0.122-0.378-0.339-0.428-0.625
		c-0.03-0.782,0.016-1.37,0.02-2.065l0.049-2.008c0.135-5.354,0.33-10.705,0.558-16.053l2.905-64.169
		c0.214-5.346,0.445-10.697,0.523-16.039c0.009-0.664,0.008-1.34-0.004-1.989c-0.015-0.324-0.003-0.637-0.047-0.975l-0.024-0.25
		c-0.003-0.038-0.032-0.146-0.047-0.216l-0.108-0.473c-0.328-1.264-0.845-2.487-1.39-3.689c-1.144-2.399-2.563-4.628-4.168-6.771
		c-3.239-4.238-6.61-8.413-9.893-12.635l-9.905-12.637c-0.098-0.123-0.078-0.301,0.044-0.399c0.046-0.037,0.103-0.057,0.157-0.062
		l3.244-0.231c0.101-0.008,0.193,0.041,0.247,0.118c2.348,3.41,4.728,6.8,7.145,10.163c1.209,1.68,2.429,3.354,3.669,5.01
		c1.244,1.652,2.497,3.302,3.834,4.87c0.336,0.39,0.678,0.775,1.04,1.13c0.18,0.174,0.369,0.353,0.558,0.476
		c0.048,0.032,0.092,0.054,0.127,0.067c0.029,0.01-0.026-0.009-0.032,0.018c-0.001,0.006,0.026-0.008,0.037-0.011
		c-0.015,0.01,0.066-0.034-0.027,0.02l0.006-0.009c0.037-0.028,0.077-0.121,0.091-0.229c0.065-0.931-0.283-1.975-0.563-2.942
		c-0.621-1.964-1.387-3.889-2.173-5.802c-1.588-3.82-3.308-7.59-5.09-11.326l-0.002-0.004c-0.018-0.038-0.019-0.079-0.006-0.116
		c0.088-0.244,0.191-0.468,0.343-0.686c0.136-0.192,0.397-0.483,0.767-0.377c0.317,0.117,0.453,0.364,0.584,0.576
		c0.125,0.222,0.22,0.449,0.307,0.683c0.321,0.92,0.551,1.855,0.798,2.786c0.243,0.931,0.481,1.862,0.75,2.782
		c0.136,0.459,0.276,0.917,0.44,1.364c0.167,0.441,0.34,0.899,0.608,1.254c0.067,0.085,0.136,0.149,0.208,0.187
		c-0.02,0.014,0.102-0.041,0.167-0.12c0.153-0.157,0.289-0.354,0.417-0.552c0.256-0.398,0.484-0.82,0.706-1.244
		c0.441-0.851,0.85-1.721,1.247-2.595c0.792-1.751,1.54-3.524,2.259-5.306c0.023-0.06,0.09-0.089,0.15-0.065l0.01,0.004l1.287,0.649
		c0.055,0.028,0.078,0.095,0.051,0.151c-1.021,2.108-2.016,4.232-2.953,6.378c-0.465,1.074-0.924,2.153-1.315,3.25
		c-0.102,0.275-0.188,0.549-0.265,0.82c-0.046,0.132-0.069,0.28-0.097,0.423c-0.04,0.158-0.035,0.229-0.007,0.386
		c0.11,0.554,0.306,1.112,0.494,1.662c0.782,2.203,1.688,4.367,2.607,6.521c0.929,2.15,1.88,4.294,2.919,6.388
		c0.263,0.519,0.528,1.048,0.833,1.522c0.038,0.056,0.079,0.115,0.115,0.155c0.05,0.038-0.039-0.01,0.011,0.019
		c-0.088-0.027-0.134,0.031-0.123,0.02c0.025-0.03,0.059-0.211,0.072-0.334c0.03-0.278,0.037-0.568,0.04-0.857
		c0-1.162-0.071-2.332-0.148-3.499c-0.161-2.336-0.377-4.669-0.605-7.002c-0.462-4.664-0.984-9.324-1.539-13.979l0-0.005
		c-0.004-0.031,0-0.063,0.008-0.091c0.121-0.391,0.244-0.759,0.476-1.136c0.062-0.093,0.128-0.189,0.25-0.283
		c0.096-0.109,0.416-0.152,0.562-0.013c0.256,0.226,0.289,0.43,0.367,0.633c0.218,0.801,0.269,1.561,0.368,2.336
		c0.169,1.543,0.304,3.085,0.443,4.627l0.423,4.621l0.248,2.302c0.1,0.741,0.181,1.579,0.383,2.197
		c-0.377-0.101-0.067-0.069,0.04-0.21c0.14-0.089,0.276-0.227,0.412-0.346c0.266-0.259,0.525-0.536,0.771-0.827
		c0.496-0.579,0.965-1.188,1.423-1.806c0.914-1.239,1.785-2.514,2.64-3.8c1.703-2.576,3.343-5.201,4.934-7.847
		c0.043-0.072,0.11-0.122,0.184-0.145l2.322-0.725c0.175-0.055,0.362,0.043,0.417,0.219c0.033,0.104,0.009,0.215-0.05,0.297
		l-9.059,12.36l-2.234,3.109c-0.37,0.523-0.733,1.041-1.075,1.554l-0.125,0.204c-0.044,0.076-0.089,0.136-0.088,0.153
		c-0.028,0.098-0.041,0.255-0.044,0.402c-0.006,0.302,0.011,0.616,0.035,0.929c0.229,2.517,0.701,5.037,1.241,7.52
		c0.289,1.23,0.566,2.501,1.037,3.631c0.188,0.333,0.081,0.335,0.379,0.189c0.224-0.151,0.437-0.382,0.631-0.619
		c0.392-0.479,0.736-1.014,1.07-1.55c1.312-2.172,2.432-4.472,3.529-6.773c2.175-4.617,4.186-9.315,6.119-14.041
		c0.03-0.076,0.116-0.113,0.192-0.083c0.032,0.012,0.058,0.036,0.074,0.063l1.719,2.99c0.025,0.043,0.023,0.094,0.002,0.135
		c-2.731,5.082-5.334,10.238-7.751,15.479c-1.202,2.623-2.355,5.27-3.389,7.963c-0.511,1.349-0.995,2.708-1.407,4.09
		C52.348,79.532,51.987,80.932,51.895,82.375z"/>
</g>
<g>
	<path fill="#543619" d="M47.653,55.859c0.204-0.068,0.464-0.255,0.768-0.539c-0.564-2.605-1.211-13.833-1.682-15.572
		c-0.326-1.198-0.74-0.557-0.991,0.039C46.284,41.892,47.045,56.063,47.653,55.859z"/>
	<path fill="#543619" d="M54.145,49.112c-1.235,1.844-2.495,3.627-3.541,4.903c-1.376,1.924-2.379,3.359-2.525,3.657
		c-0.54,1.103,1.761,13.038,2.612,13.141c0.188,0.023,0.426-0.123,0.697-0.384c-0.99-2.052-2.794-11.767-2.31-12.757
		c0.536-1.091,12.55-17.429,12.55-17.429l-1.295,0.401C59.461,41.833,56.78,45.487,54.145,49.112z"/>
	<path fill="#543619" d="M44.14,38.521c0,0-4.499,9.169-4.697,11.051c-0.146,1.395,6.479,16.633,7.089,16.702
		c0.144,0.016,0.212-0.438,0.226-1.22c-1.898-3.646-6.436-14.325-6.314-15.482c0.198-1.882,4.697-11.051,4.697-11.051l-1.288-0.647
		c0,0-0.061,0.153-0.168,0.418L44.14,38.521z"/>
	<path fill="#543619" d="M41.005,59.666c0.108-0.083,0.166-0.25,0.184-0.48c-3.438-3.227-15.884-21.266-15.884-21.266l-0.952,0.07
		C25.294,39.351,39.932,60.494,41.005,59.666z"/>
	<path fill="#543619" d="M51.857,82.372c0.309-7.771,13.321-31.821,13.321-31.821l-1.728-2.985c0,0-0.148,0.37-0.412,1.017
		l1.139,1.969c0,0-14.012,24.051-14.321,31.821c-1.684,42.292,2.301,84.362,1.683,92.577c-0.113,1.508-0.485,3.411-2.614,3.688
		c-0.337,0.044-0.719,0.072-1.15,0.084c3.37,0.103,7.818,1.057,7.963-0.878C56.356,169.628,50.174,124.664,51.857,82.372z"/>
	<path fill="#543619" d="M35.099,39.615c0.253,0.772,0.531,1.844,0.823,2.958c0.668,1.442,1.473,3.208,2.283,5.059
		c0.081-0.08,0.171-0.191,0.268-0.326c-0.849-1.433-1.697-5.626-2.374-7.69c-0.619-1.887-1.174-1.585-1.5-1.107
		C34.758,38.737,34.925,39.087,35.099,39.615z"/>
</g>
<path fill="none" stroke="#1A171B" stroke-width="0.5" stroke-linecap="round" stroke-linejoin="round" stroke-miterlimit="10" d="
	M51.857,82.372c0.309-7.771,13.321-31.821,13.321-31.821l-1.728-2.985c0,0-9.423,23.532-11.759,23.248
	c-0.851-0.104-3.152-12.038-2.612-13.141c0.536-1.091,12.55-17.429,12.55-17.429l-2.323,0.72c0,0-8.489,14.176-10.653,14.896
	c-0.611,0.205-1.377-14.128-1.915-16.111c-0.502-1.842-1.214,0.667-1.214,0.667s3.089,25.979,2.008,25.86
	c-0.609-0.069-7.235-15.307-7.089-16.702c0.198-1.882,4.697-11.051,4.697-11.051l-1.288-0.647c0,0-4.09,10.297-4.96,9.9
	c-0.983-0.448-2.005-5.755-2.793-8.16c-0.98-2.989-1.804-0.487-1.804-0.487s9.348,19.271,7.71,20.538
	c-1.109,0.855-16.7-21.746-16.7-21.746l-3.244,0.24c0,0,12.711,15.949,19.223,24.39c4.617,5.984,6.067,10.307,6.407,12.135
	c0.749,4.012-3.451,77.386-4.005,103.419c-0.027,1.266,2.865,0.785,5.799,0.586c2.945-0.199,6.132,0.771,6.253-0.846
	C56.356,169.628,50.174,124.664,51.857,82.372z"/>
<path fill="#5BAA0E" d="M90.652,31.221c0.077,0.135-1.618-2.444-2.798-3.598c0.444-0.4,2.199-1.199,2.199-1.199
	s-2.732-1.914-2.732-3.465c0-1.767,1.4-2.064,1.4-2.064s-3.51-0.856-4.397-1.334c-1.051-0.564-0.467-2.065-0.467-2.065
	s-3.029,0.648-3.73,0.866c-1.217,0.381-3.798,0-1.932-1.731c0.033-0.292-2.866,0.364-2.866,0.067c0-1.788,0.077-1.15-0.932-2.466
	c-0.902-1.175,0.665-1.599,0.665-1.599S71.4,12.1,70.464,12.1c-1.013,0-4.531-2.332-1.465-2.799
	c-1.466-1.465-2.132,0.478-3.066-0.842c-0.426-0.604-5.928-3.621-3.264-4.622c-0.936-1.005-1.739,0.608-2.664-0.133
	c-0.59-0.469-1.733,0.533-1.533-1.398c-0.814-0.576-2.332,0.798-2.332,0.798s-0.333,1.334-1.066-1.064
	c-0.889,0.27-1.627,1.844-2.064,1.998c-1.067,0.374-2.467,0.934-3-1.066c-0.676,0.529-0.301,3.207-0.829,3.885
	C48.35,5.389,45.881,1.24,45.881,1.24s-2.041,0.896-3.132,0.596c-0.685-0.189-0.666-1.46-0.666-1.46s-1.699,1.064-1.822,1.064
	c-0.041,0-0.736-1.067-0.778-1.064c-0.333,0.532-1.186,1.131-1.265,1.131c-1.051,0-2.505-1.017-3.465-0.732
	c-0.472-0.274,1.117,0.665,0.533,0.665c-1.233,0-4.263-0.221-4.797,0.801c-0.318-0.19,1.288,0.621,0.889,0.621
	c-1.176,0-4.553,0.576-4.553,0.576s1.064,1.025,1.066,1.066c-0.223,0.078-2.016-0.408-2.199-0.266
	c1.066,0.867,0.854,1.399,0.8,1.399c-1.294,0-1.599-0.599-2.798-0.267c-0.255-0.239,0.955,1.045,0.577,1.045
	c-0.784,0-2.909,1.753-2.909,1.753s1.616,0.274,1.798,0.513C23.104,8.695,23.055,8.717,23,8.731
	c-0.265-0.117-4.237,0.171-4.237,0.171s1.465,0.199,1.666,0.866c0.025,0.088-2.277,2.91-2.266,2.999
	c1.933-0.532,1.533-0.148,1.533,0.799c0,0.314-3.321,1.299-3.265,1.6c1.798-0.068,1.913,0.563,1.501,1.288
	c-0.248-0.056-5.832,0.245-5.832,0.245s2.786,0.274,2.145,1.199c-0.979,0.188-6.061,1.868-6.81,2.464
	c2.864-0.133,2.838,0.111,2.442,0.997c-0.876,0.055-3.841,1.402-3.841,1.402s1.177,0.802,1.177,1.421
	c0,0.297-2.593-1.289-2.509-1.021c-0.617-0.52,1.248,1.032,0.377,1.021c-1.776-0.022-4.708,4.242-4.708,4.242
	s2.398-1.033,2.398-0.267c0,1.116,0.2,4.265,0.2,4.265s1.264-1.133,2.11-1.133c0.515,0,0.181,2.395,0.623,2.199
	c0.732-1.866,0.951-1.364,1.115-0.83c0.2,0.662,0.493,1.279,0.866,1.842c-0.446,0.531-2.382,3.037-2.581,3.717
	c-0.125,0.429,1.398-1.003,1.398-0.533c0,0.879,0.531,4.75,0.933,5.463c0.339,0.6,0.495-1.927,1.044-1.514
	c0.488,0.367,0.15,2.809,0.755,2.98c-0.043,0.3,0.932,3.063,0.932,3.063s0.745-1.065,1.062-0.616
	c0.204,0.289,1.003,3.014,1.003,3.014s0.395-1.557,0.804-1.298c0.487,0.308,1.794,2.232,1.794,2.232s0.985-1.245,1.622-1.245
	c0.098,0,1.309,2.71,1.643,2.376c0.733-2.264,2.598,0.467,2.598,0.467s0.421-1.466,0.781-1.544c0.248,2.913,3.395,3.66,4.75,4.607
	c0.9,0.63,2.864,3.333,2.864,3.333s-0.333-2.267,1.133-2.533c3.717-0.676,6.795,2.266,6.795,2.266s-1.954-5.897-1.066-8.128
	c0.495-1.243,3.331-1.666,3.331-1.666s-0.998-1.309-0.998-3.532c0-2.575,0.133-3.331,2.999-1.133
	c0.151-0.664,0.044-2.33,0.044-3.041c0-1.106,1.845,3.824,1.487,2.843c0.481-0.365,0.037-2.947,0.6-2.731
	c0.865,0.332,1.732,4.861,1.732,4.861s-0.153-3.597,2.398-3.597c0.689,0,2.876,4.336,3.464,4.065
	c-0.533-2.998,2.665-0.468,2.797-0.934c1.323,2.659,3.4,3.465,3.4,3.465s1.513-1.074,2.397-0.866
	c0.97,0.229,0.534,1.865,0.534,1.865s2.464-2,3.197-0.931c0.745,1.083-2.347,2.658-2.333,2.798c-1.129,0.961,5.13-1.387,5.13,0.066
	c0,1.309,2.532,2.932,2.532,2.932s0.503-3.732,2.465-3.732c2.039,0,2.399,1.533,2.399,1.533s-0.2-2.886-0.2-4.131
	c0-1.163,2.825,1.011,2.065,0.134c0.089-0.37-0.003-1.391,0.2-1.733c1.067-1.798,2.072,1.163,2.066,1.067
	c0.281,0.411,0.854-1.478,1.267-1.2c0.622,0.421,0.798,1.534,0.798,1.534s1.2-2.533,2.199-3.265
	c0.512-0.375,2.731,1.266,2.731,1.266s-0.399-3.465,0.133-3.798c0.933-0.733,1.998,1.066,1.998,1.066s0.178-3.797,1.534-4.796
	c1.244-0.918,2.21,1.251,2.21,1.251s0.544-1.904,0.544-2.94C91.076,35.853,86.255,30.623,90.652,31.221z M73.12,40.653
	c0.026,0.06,0.059,0.118,0.084,0.178c-0.061,0.035-0.126,0.062-0.185,0.101C73.058,40.841,73.086,40.745,73.12,40.653z
	 M71.208,27.801c-0.024-0.033-0.046-0.068-0.074-0.1c0.028-0.001,0.056-0.001,0.082-0.003
	C71.211,27.731,71.211,27.766,71.208,27.801z"/>
<path fill="#579B16" d="M88.473,35.462c0.077,0.134-1.355-1.381-2.534-2.535c0.444-0.4-1.613-1.613-1.613-1.613
	s-1.613,2.473-1.613,0.922c0-1.767,0,6.681,0,6.681s-1.185-2.288-2.073-2.764c-1.051-0.565-1.613,3.455-1.613,3.455
	s-0.22-2.521-0.922-2.304c-1.216,0.381-1.842,0.921-4.146,0.461c-1.382,3.225-2.073,2.602-2.073,2.303
	c0-1.786-5.441-0.986-6.451-2.303c-0.902-1.176-6.19,1.931-5.99,0c-3.226-3.916,2.073,3.917-5.76,2.764
	c-1.066,0.374-8.682-0.535-9.215-2.534c-0.675,0.53,0.051,1.824-7.142-2.073c-5.529-2.995-1.843,9.676-4.146,3.917
	c-0.391-0.976-0.924,4.795-0.922,4.838c-0.223,0.078-0.644-1.946-1.843-1.613c1.843,5.298,1.613,11.058-0.23,7.603
	c-0.369-0.692-1.563-1.621-1.382-1.382c-0.055,0.012-2.273-0.897-2.073-0.23c0.026,0.087-3.281-3.988-3.226-3.687
	c1.798-0.068-2.353-1.417-2.764-0.691c-0.248-0.056-2.304-3.457-2.304-3.457s-0.05,1.842-0.692,2.766
	c-0.978,0.187-3.917,0.38-3.917,0.691c0,0.785-3.661,3-3.661,3s0.745-1.065,1.062-0.616c0.204,0.289,1.003,3.014,1.003,3.014
	s0.395-1.557,0.804-1.298c0.487,0.308,1.794,2.232,1.794,2.232s0.985-1.245,1.622-1.245c0.098,0,1.309,2.71,1.643,2.376
	c0.733-2.264,2.598,0.467,2.598,0.467s0.421-1.466,0.781-1.544c0.248,2.913,3.395,3.66,4.75,4.607c0.9,0.63,2.864,3.333,2.864,3.333
	s-0.333-2.267,1.133-2.533c3.717-0.676,6.795,2.266,6.795,2.266s-1.954-5.897-1.066-8.128c0.495-1.243,3.331-1.666,3.331-1.666
	s-0.998-1.309-0.998-3.532c0-2.575,0.133-3.331,2.999-1.133c0.151-0.664,0.044-2.33,0.044-3.041c0-1.106,1.845,3.824,1.487,2.843
	c0.481-0.365,0.037-2.947,0.6-2.731c0.865,0.332,1.732,4.861,1.732,4.861s-0.153-3.597,2.398-3.597c0.689,0,2.876,4.336,3.464,4.065
	c-0.533-2.998,2.665-0.468,2.797-0.934c1.323,2.659,3.4,3.465,3.4,3.465s1.513-1.074,2.397-0.866
	c0.97,0.229,0.534,1.865,0.534,1.865s2.464-2,3.197-0.931c0.745,1.083-2.347,2.658-2.333,2.798c-1.129,0.961,5.13-1.387,5.13,0.066
	c0,1.309,2.532,2.932,2.532,2.932s0.503-3.732,2.465-3.732c2.039,0,2.399,1.533,2.399,1.533s-0.2-2.886-0.2-4.131
	c0-1.163,2.825,1.011,2.065,0.134c0.089-0.37-0.003-1.391,0.2-1.733c1.067-1.798,2.072,1.163,2.066,1.067
	c0.281,0.411,0.854-1.478,1.267-1.2c0.622,0.421,0.798,1.534,0.798,1.534s1.2-2.533,2.199-3.265
	c0.512-0.375,2.731,1.266,2.731,1.266s-0.399-3.465,0.133-3.798c0.933-0.733,1.998,1.066,1.998,1.066s0.178-3.797,1.534-4.796
	c1.244-0.918,2.21,1.251,2.21,1.251s0.544-1.904,0.544-2.94C91.076,35.853,84.077,34.864,88.473,35.462z M73.12,40.653
	c0.026,0.06,0.059,0.118,0.084,0.178c-0.061,0.035-0.126,0.062-0.185,0.101C73.058,40.841,73.086,40.745,73.12,40.653z
	 M71.208,27.801c-0.024-0.033-0.046-0.068-0.074-0.1c0.028-0.001,0.056-0.001,0.082-0.003
	C71.211,27.731,71.211,27.766,71.208,27.801z"/>
<g>
	<g>
		<path fill="#1A171B" d="M90.675,31.25c-0.154-0.075-0.137-0.156-0.213-0.233l-0.164-0.234l-0.332-0.465l-0.681-0.917
			c-0.465-0.602-0.941-1.2-1.479-1.729c-0.028-0.024-0.03-0.067-0.006-0.094l0.008-0.007c0.339-0.278,0.712-0.465,1.082-0.667
			c0.372-0.196,0.747-0.381,1.127-0.56l-0.014,0.15c-0.497-0.354-0.962-0.742-1.4-1.165c-0.431-0.428-0.841-0.889-1.137-1.439
			c-0.137-0.28-0.25-0.582-0.262-0.912c0-0.306,0.035-0.628,0.138-0.931c0.204-0.61,0.708-1.11,1.351-1.287l-0.004,0.269
			c-1.123-0.273-2.24-0.559-3.349-0.903c-0.276-0.102-0.552-0.171-0.829-0.3c-0.126-0.054-0.298-0.122-0.409-0.206
			c-0.126-0.082-0.265-0.227-0.352-0.357c-0.181-0.284-0.236-0.616-0.232-0.925c0.008-0.314,0.065-0.607,0.17-0.907l0.207,0.243
			c-0.654,0.149-1.316,0.284-1.964,0.445l-1.96,0.484c-0.354,0.078-0.704,0.101-1.058,0.083c-0.353-0.023-0.71-0.076-1.056-0.25
			c-0.168-0.089-0.347-0.219-0.446-0.432c-0.106-0.212-0.079-0.459-0.008-0.643c0.147-0.376,0.403-0.633,0.654-0.877l-0.064,0.126
			c-0.012,0.104,0.065,0.153,0.075,0.156c0.01,0.005,0.011,0.003-0.004,0.001c-0.019-0.003-0.054-0.007-0.089-0.007
			c-0.07-0.002-0.148,0.002-0.227,0.007l-0.479,0.047l-0.977,0.122l-0.501,0.046c-0.087,0.004-0.172,0.009-0.268,0.004
			c-0.049-0.003-0.098-0.006-0.162-0.021c-0.035-0.011-0.069-0.016-0.129-0.056c-0.034-0.031-0.058-0.039-0.088-0.104
			c-0.029-0.064-0.026-0.13-0.026-0.12c-0.002-0.326,0.006-0.663-0.009-0.972c-0.008-0.158-0.027-0.28-0.086-0.376
			c-0.059-0.103-0.176-0.225-0.283-0.349l-0.324-0.381c-0.097-0.119-0.221-0.276-0.306-0.411c-0.095-0.144-0.188-0.357-0.206-0.557
			c-0.028-0.213,0.046-0.441,0.164-0.61c0.25-0.341,0.582-0.498,0.937-0.613l0.026,0.439l-2.41-0.314
			c-0.401-0.044-0.806-0.1-1.204-0.134l-0.594-0.042c-0.201-0.024-0.376-0.009-0.65-0.063c-0.442-0.11-0.817-0.299-1.182-0.515
			c-0.362-0.219-0.707-0.469-1.01-0.79c-0.149-0.163-0.293-0.343-0.388-0.582c-0.107-0.226-0.089-0.596,0.11-0.817
			c0.186-0.221,0.413-0.313,0.623-0.39c0.213-0.077,0.425-0.116,0.636-0.153l-0.14,0.426c-0.281-0.277-0.603-0.493-0.94-0.498
			c-0.17-0.006-0.347,0.031-0.545,0.091C67.139,9.129,66.91,9.217,66.621,9.2c-0.297-0.016-0.55-0.193-0.721-0.372l-0.214-0.257
			c-0.047-0.044-0.119-0.107-0.203-0.171c-0.324-0.251-0.679-0.495-1.024-0.745c-0.693-0.503-1.392-1.01-2.016-1.645
			c-0.299-0.327-0.626-0.66-0.754-1.202c-0.067-0.271,0.028-0.63,0.236-0.831c0.199-0.206,0.427-0.306,0.646-0.4l-0.106,0.451
			c-0.134-0.132-0.271-0.225-0.415-0.241c-0.144-0.021-0.321,0.028-0.519,0.11c-0.198,0.079-0.412,0.189-0.68,0.254
			c-0.263,0.072-0.612,0.042-0.866-0.116c-0.047-0.028-0.156-0.104-0.149-0.097c-0.044-0.025-0.112-0.073-0.119-0.061
			C59.7,3.866,59.582,3.85,59.496,3.849c-0.198-0.01-0.44,0.043-0.766-0.048c-0.165-0.059-0.336-0.188-0.413-0.343
			c-0.084-0.148-0.119-0.296-0.136-0.428c-0.04-0.271-0.019-0.512-0.001-0.753l0.123,0.27c-0.107-0.073-0.25-0.097-0.421-0.074
			c-0.168,0.023-0.352,0.083-0.53,0.171c-0.354,0.172-0.708,0.421-1.009,0.684l0.09-0.15c-0.036,0.126-0.071,0.222-0.15,0.345
			c-0.042,0.059-0.093,0.126-0.19,0.187c-0.095,0.063-0.258,0.086-0.371,0.048c-0.22-0.08-0.289-0.195-0.363-0.284
			c-0.067-0.093-0.121-0.185-0.167-0.274c-0.181-0.359-0.297-0.713-0.41-1.069l0.383,0.204c-0.387,0.132-0.758,0.57-1.086,0.993
			c-0.17,0.218-0.331,0.444-0.535,0.677c-0.102,0.107-0.231,0.26-0.457,0.341l-0.401,0.14c-0.535,0.169-1.181,0.377-1.865,0.107
			c-0.332-0.137-0.59-0.402-0.759-0.676c-0.182-0.277-0.273-0.571-0.363-0.861l0.515,0.172c-0.104,0.073-0.209,0.414-0.249,0.711
			c-0.049,0.312-0.071,0.642-0.094,0.975c-0.022,0.334-0.041,0.673-0.08,1.021c-0.021,0.175-0.046,0.352-0.089,0.536
			c-0.045,0.183-0.099,0.379-0.252,0.591c-0.106,0.147-0.311,0.181-0.458,0.075c-0.038-0.027-0.068-0.062-0.091-0.099L48.89,7.023
			l-3.285-5.619l0.405,0.13c-0.795,0.323-1.592,0.587-2.481,0.666c-0.223,0.016-0.453,0.016-0.693-0.028
			c-0.074-0.017-0.091-0.013-0.21-0.049c-0.057-0.026-0.075-0.021-0.164-0.074c-0.17-0.098-0.253-0.198-0.336-0.311
			c-0.158-0.225-0.228-0.458-0.277-0.683c-0.048-0.229-0.071-0.442-0.072-0.683l0.471,0.265c-0.49,0.303-0.975,0.602-1.482,0.891
			l-0.198,0.108L40.453,1.69c-0.018,0.007-0.033,0.02-0.116,0.04l-0.05,0.008l-0.024,0.002l-0.122-0.025l-0.001,0l-0.001-0.001
			l-0.003-0.002l-0.06-0.041c-0.158-0.142-0.101-0.112-0.147-0.161L39.863,1.42l-0.125-0.179l-0.243-0.353l-0.121-0.172l-0.059-0.08
			l-0.025-0.033l-0.006-0.008C39.234,0.555,39.399,0.71,39.5,0.673l0.236-0.14c-0.293,0.428-0.642,0.722-1.014,1.006
			c-0.103,0.072-0.173,0.129-0.33,0.212c-0.056,0.036-0.218,0.055-0.215,0.046l-0.083-0.005c-0.053-0.002-0.109-0.006-0.178-0.017
			c-0.267-0.035-0.476-0.099-0.701-0.167l-1.25-0.435c-0.399-0.127-0.813-0.214-1.132-0.127l-0.05,0.014
			c-0.063,0.017-0.128,0-0.174-0.041c-0.008-0.007-0.1-0.052-0.037-0.026l0.03,0.008c0.005-0.004,0.003,0.013,0.111,0.002
			c0.301-0.001,0.217-0.616,0.149-0.48l-0.026-0.022c0,0-0.001,0,0.003,0.002l0.018,0.013l0.041,0.027l0.167,0.115
			c0.111,0.079,0.221,0.161,0.333,0.256c0.056,0.048,0.112,0.098,0.173,0.169c0.032,0.044,0.063,0.071,0.103,0.17
			c0.014,0.048,0.043,0.129-0.002,0.248c-0.046,0.11-0.14,0.168-0.188,0.185c-0.208,0.06-0.233,0.024-0.304,0.034l-0.2-0.003
			c-0.527-0.011-1.046-0.026-1.563-0.018c-0.516,0.009-1.031,0.035-1.523,0.119c-0.476,0.08-1.004,0.247-1.169,0.547l-0.019,0.035
			c-0.063,0.114-0.206,0.156-0.32,0.093l-0.034-0.023c-0.033-0.026,0.006,0.018-0.104-0.08c-0.089-0.1-0.082-0.269-0.012-0.339
			c0.084-0.154,0.376-0.083,0.299-0.091l0.029,0.011l0.031,0.013l0.092,0.045l0.17,0.089l0.332,0.188
			c0.111,0.068,0.218,0.132,0.338,0.227c0.033,0.03,0.061,0.047,0.113,0.115c0.004,0.023,0.112,0.098,0.034,0.314
			c-0.051,0.095-0.141,0.138-0.159,0.14c-0.044,0.016-0.075,0.02-0.087,0.021l-0.204,0.01c-0.501,0.013-0.953,0.072-1.447,0.129
			c-0.97,0.119-1.943,0.266-2.909,0.424l0.131-0.428l0.541,0.529l0.269,0.268l0.134,0.137l0.068,0.072l0.038,0.042l0.02,0.023
			c0.028,0.032,0.064,0.107,0.068,0.163l0.001,0.018c0.006,0.107-0.065,0.202-0.166,0.228c-0.119,0.03-0.183,0.02-0.236,0.019
			l-0.155-0.017l-0.285-0.046l-0.55-0.104l-0.54-0.097l-0.26-0.033l-0.116-0.006C25.8,4.45,25.775,4.472,25.84,4.428l0.004-0.376
			c0.304,0.257,0.605,0.535,0.81,0.933c0.05,0.1,0.091,0.21,0.114,0.333c0.01,0.062,0.017,0.128,0.011,0.201
			c-0.003,0.036-0.007,0.074-0.02,0.117c-0.027,0.049,0.008,0.075-0.136,0.199c-0.088,0.053-0.18,0.037-0.154,0.039l-0.018-0.001
			l-0.036-0.002l-0.071-0.004l-0.142-0.008c-0.094-0.005-0.189-0.01-0.295-0.031c-0.424-0.053-0.788-0.204-1.131-0.276
			c-0.171-0.031-0.338-0.056-0.508-0.04C24.1,5.5,23.927,5.565,23.755,5.59L23.71,5.596c-0.065,0.009-0.129-0.016-0.171-0.06
			l-0.007-0.007c0.005,0.003-0.012-0.009,0.011,0.007c0.017,0.005,0.014,0.024,0.116,0.036c0.193,0.034,0.283-0.312,0.222-0.292
			c-0.029-0.073-0.029-0.054-0.027-0.057l0.003,0.003l0.005,0.006l0.042,0.051L23.998,5.4l0.191,0.24l0.186,0.255
			c0.059,0.097,0.119,0.173,0.17,0.321c0.014,0.029,0.023,0.109,0.022,0.162c-0.011,0.114-0.115,0.235-0.197,0.242
			c-0.145,0.035-0.126,0.02-0.197,0.032c-0.097,0.02-0.136,0.034-0.231,0.07c-0.17,0.064-0.342,0.155-0.51,0.25
			c-0.673,0.388-1.318,0.869-1.934,1.361l-0.1-0.375c0.315,0.057,0.624,0.119,0.936,0.194c0.155,0.038,0.311,0.078,0.468,0.129
			c0.079,0.024,0.157,0.052,0.24,0.087c0.083,0.042,0.163,0.057,0.283,0.187c0.073,0.079,0.069,0.202-0.01,0.275
			c-0.022,0.02-0.047,0.035-0.074,0.043l-0.03,0.009l-0.157,0.049l-0.138-0.011c-0.004,0.005-0.106-0.008-0.185-0.009L22.474,8.91
			l-0.525,0.012l-1.056,0.046l-2.115,0.128l0.012-0.387c0.495,0.087,0.973,0.203,1.424,0.501c0.108,0.082,0.219,0.171,0.3,0.303
			c0.023,0.029,0.04,0.065,0.055,0.102l0.023,0.055l0.011,0.028l0.005,0.014l0.001,0.001c0.015,0.137,0.004,0.039,0.007,0.07
			l-0.001,0.002l-0.001,0.005c-0.001,0.014-0.026,0.097-0.047,0.124L20.54,9.958l-0.054,0.078l-0.437,0.576l-0.885,1.125
			l-0.44,0.561l-0.216,0.281l-0.104,0.141l-0.048,0.068l-0.02,0.03c-0.013,0.005,0.002,0.04,0.004-0.074l-0.223-0.149
			c0.252-0.066,0.503-0.134,0.765-0.185c0.131-0.026,0.263-0.049,0.408-0.055c0.134,0,0.32-0.03,0.5,0.15
			c0.144,0.199,0.105,0.362,0.108,0.495l-0.026,0.385c-0.006,0.082,0.003,0.08-0.013,0.229c0.02-0.007-0.086,0.169-0.105,0.16
			c-0.036,0.033-0.066,0.051-0.098,0.073c-0.125,0.08-0.243,0.135-0.364,0.191c-0.48,0.217-0.964,0.395-1.443,0.584l-0.712,0.289
			l-0.341,0.158c-0.054,0.028-0.106,0.057-0.153,0.087c-0.048,0.006-0.074,0.121-0.054-0.021l-0.162-0.129
			c0.453-0.006,0.917-0.015,1.384,0.178c0.231,0.085,0.471,0.338,0.472,0.633c0.001,0.277-0.104,0.506-0.218,0.71
			c-0.026,0.048-0.076,0.075-0.127,0.074L17.9,16.6c-0.417-0.008-0.949,0.016-1.419,0.032l-1.457,0.06l-2.915,0.139l0.006-0.265
			c0.481,0.057,0.952,0.14,1.418,0.287c0.231,0.077,0.464,0.165,0.678,0.327c0.103,0.082,0.21,0.196,0.246,0.358
			c0.038,0.165-0.032,0.32-0.108,0.43c-0.018,0.026-0.044,0.043-0.073,0.05l-0.006,0.001c-1.156,0.275-2.312,0.672-3.453,1.055
			c-0.571,0.197-1.137,0.407-1.699,0.626c-0.551,0.224-1.139,0.445-1.607,0.754l-0.08-0.214c0.577-0.024,1.152-0.054,1.738-0.023
			c0.146,0.007,0.294,0.022,0.444,0.048c0.149,0.036,0.31,0.062,0.458,0.197c0.16,0.157,0.129,0.391,0.086,0.529
			c-0.043,0.154-0.105,0.284-0.163,0.419c-0.018,0.043-0.057,0.07-0.1,0.075l-0.009,0.001c-0.309,0.034-0.64,0.142-0.958,0.246
			c-0.32,0.109-0.638,0.23-0.955,0.354c-0.632,0.251-1.259,0.52-1.879,0.8l0.021-0.239c0.33,0.234,0.636,0.487,0.903,0.803
			c0.129,0.16,0.254,0.334,0.316,0.562c0.01,0.077,0.03,0.074,0.012,0.228c-0.005,0.012,0.004-0.002-0.014,0.031
			c-0.019,0.032-0.057,0.065-0.093,0.078c-0.049,0.015-0.06,0.01-0.092,0.013c-0.037-0.003-0.074-0.008-0.1-0.016
			c-0.113-0.029-0.205-0.067-0.299-0.106c-0.368-0.159-0.714-0.341-1.063-0.517L5.165,23.46l-0.259-0.12l-0.125-0.048
			c-0.021-0.007-0.038-0.011-0.047-0.013c-0.01-0.002,0.012,0.003,0.021-0.003c0.087-0.024,0.114-0.112,0.094-0.16L4.61,23.274
			l-0.098-0.082l-0.02-0.016l-0.001-0.001c0.054-0.012-0.13,0.019,0.169,0.006c0.105-0.388,0-0.149,0.035-0.22l-0.001-0.001
			l-0.002-0.003l0.01,0.01l0.046,0.044l0.185,0.186c0.121,0.127,0.24,0.257,0.348,0.405c0.054,0.075,0.106,0.152,0.148,0.251
			c0.036,0.074,0.101,0.286-0.082,0.419c-0.153,0.084-0.247,0.054-0.326,0.067c-0.092,0.001-0.159,0.02-0.229,0.033
			c-0.607,0.165-1.154,0.606-1.649,1.05c-0.987,0.919-1.847,1.993-2.63,3.097l-0.205-0.25c0.543-0.224,1.086-0.426,1.681-0.535
			c0.15-0.024,0.304-0.042,0.476-0.027c0.145-0.003,0.443,0.106,0.476,0.377l0.022,0.453l0.018,0.431
			c0.041,1.152,0.099,2.299,0.176,3.441L2.85,32.284c0.319-0.277,0.647-0.525,1.008-0.745c0.18-0.109,0.367-0.21,0.57-0.291
			c0.099-0.043,0.206-0.076,0.315-0.104c0.122-0.027,0.2-0.045,0.375-0.043c0.013,0.001,0.055,0.003,0.135,0.043
			c0.054,0.032,0.087,0.064,0.112,0.097c0.056,0.068,0.078,0.128,0.103,0.188c0.043,0.118,0.063,0.226,0.081,0.333
			c0.034,0.214,0.048,0.42,0.062,0.625l0.046,0.6c0.011,0.096,0.024,0.192,0.045,0.27c0.01,0.038,0.025,0.072,0.029,0.077
			c0.022-0.006-0.102-0.048-0.105-0.025l-0.103,0.108c0.133-0.333,0.268-0.664,0.455-0.991c0.052-0.082,0.096-0.163,0.17-0.246
			c0.066-0.071,0.149-0.194,0.374-0.207c0.246,0.028,0.306,0.194,0.357,0.275c0.051,0.098,0.081,0.188,0.11,0.276
			c0.208,0.68,0.485,1.283,0.87,1.863c0.051,0.077,0.041,0.179-0.014,0.247c-0.526,0.649-1.037,1.331-1.525,2.016
			c-0.243,0.344-0.482,0.691-0.698,1.045c-0.107,0.174-0.214,0.36-0.278,0.523l-0.023,0.06c0.007-0.034-0.003,0.016-0.002,0.014
			c0.006-0.041,0.013-0.091-0.062-0.168c-0.168-0.09-0.138-0.027-0.143-0.045l0.044-0.021c0.075-0.039,0.163-0.098,0.249-0.154
			c0.173-0.116,0.347-0.24,0.54-0.357c0.1-0.058,0.19-0.116,0.339-0.163c0.041-0.01,0.079-0.024,0.154-0.02
			c0.059-0.007,0.201,0.05,0.249,0.149c0.077,0.207,0.032,0.199,0.047,0.264c0.017,0.406,0.067,0.828,0.118,1.245
			c0.105,0.835,0.231,1.672,0.393,2.496c0.082,0.41,0.168,0.826,0.289,1.208c0.031,0.094,0.063,0.188,0.1,0.26l0.013,0.029
			c-0.002-0.002,0.014,0.026-0.003-0.002l0.011,0.017c0.024,0.04,0.018,0.013-0.017-0.01c-0.029-0.038-0.163-0.031-0.19-0.003
			c-0.034,0.022-0.027,0.024-0.023,0.016c0.06-0.103,0.127-0.337,0.184-0.53c0.06-0.204,0.118-0.412,0.204-0.628
			c0.045-0.109,0.091-0.219,0.187-0.343c0.048-0.059,0.114-0.136,0.25-0.179c0.133-0.044,0.292,0.007,0.362,0.062
			c0.114,0.094,0.091,0.076,0.156,0.149c0.046,0.062,0.104,0.142,0.124,0.193c0.06,0.115,0.099,0.227,0.133,0.339
			c0.068,0.223,0.106,0.442,0.138,0.661c0.062,0.437,0.085,0.868,0.09,1.303c0.018,0.363,0.147,0.754,0.273,1.155
			c0.263,0.792,0.575,1.581,0.898,2.355l-0.481-0.051c0.125-0.173,0.25-0.325,0.402-0.476c0.161-0.14,0.299-0.316,0.66-0.372
			c0.214-0.019,0.418,0.135,0.489,0.288c0.041,0.088,0.084,0.164,0.122,0.269c0.079,0.2,0.15,0.397,0.208,0.574
			c0.247,0.729,0.471,1.458,0.691,2.191l-0.562,0.01c0.107-0.389,0.215-0.75,0.431-1.136c0.06-0.096,0.122-0.197,0.25-0.302
			c0.066-0.05,0.168-0.11,0.307-0.113c0.067-0.003,0.138,0.015,0.191,0.039c0.031,0.016,0.042,0.017,0.088,0.049l0.028,0.021
			c0.066,0.044,0.178,0.146,0.248,0.218l0.204,0.221c0.512,0.594,0.949,1.208,1.388,1.836l-0.495-0.018
			c0.286-0.349,0.579-0.665,0.94-0.954c0.184-0.141,0.377-0.281,0.651-0.368c0.064-0.024,0.146-0.035,0.229-0.042l0.03-0.003
			l0.007,0l0.004,0c0.054,0.011-0.118-0.024,0.121,0.024l0.001,0l0.008,0.005c0.038,0.004,0.17,0.131,0.162,0.139l0.056,0.087
			l0.162,0.29c0.202,0.376,0.396,0.747,0.604,1.103c0.104,0.178,0.211,0.353,0.324,0.511c0.056,0.077,0.114,0.154,0.167,0.208
			c0.023,0.024,0.053,0.047,0.048,0.042c0.003,0.003-0.024-0.015-0.065-0.014c-0.067-0.005-0.134,0.022-0.174,0.065l-0.079,0.129
			c0.108-0.309,0.235-0.649,0.573-0.92c0.167-0.133,0.407-0.213,0.625-0.204c0.219,0.006,0.407,0.074,0.57,0.154
			c0.636,0.347,1.027,0.83,1.417,1.348l-0.6,0.097c0.088-0.299,0.184-0.581,0.304-0.87c0.061-0.145,0.125-0.288,0.21-0.436
			c0.044-0.075,0.087-0.148,0.157-0.23c0.061-0.071,0.151-0.184,0.36-0.245c0.166-0.049,0.34,0.046,0.389,0.212l0.006,0.024
			l0.014,0.065c0.044,0.211,0.043,0.434,0.121,0.635c0.05,0.21,0.136,0.405,0.228,0.599c0.106,0.185,0.205,0.377,0.349,0.541
			c0.127,0.175,0.286,0.327,0.44,0.483c0.657,0.598,1.475,1.027,2.32,1.452l0.64,0.336c0.215,0.125,0.428,0.234,0.643,0.421
			c0.356,0.276,0.735,0.708,1.035,1.051c0.629,0.729,1.21,1.48,1.779,2.25l-0.618,0.252c-0.056-0.486-0.052-0.941,0.048-1.424
			c0.094-0.463,0.333-1.004,0.834-1.299c0.124-0.072,0.25-0.131,0.385-0.16l0.1-0.027c0.024-0.005,0.015-0.007,0.068-0.015
			l0.041-0.005l0.162-0.02c0.223-0.021,0.419-0.07,0.664-0.065c0.234,0.002,0.478-0.024,0.703,0.004
			c0.227,0.025,0.459,0.024,0.683,0.073c0.905,0.14,1.771,0.444,2.578,0.849c0.404,0.201,0.792,0.431,1.166,0.684
			c0.376,0.254,0.727,0.518,1.079,0.838l-0.572,0.361c-0.61-1.959-1.125-3.936-1.294-6.014c-0.032-0.521-0.039-1.049,0.038-1.591
			c0.046-0.281,0.091-0.522,0.234-0.843l0.089-0.167c0.043-0.065,0.101-0.138,0.154-0.205c0.111-0.144,0.217-0.215,0.33-0.32
			c0.459-0.349,0.958-0.56,1.458-0.734c0.505-0.167,1.003-0.292,1.534-0.38l-0.229,0.565c-0.263-0.366-0.417-0.717-0.576-1.094
			c-0.148-0.375-0.255-0.762-0.343-1.153c-0.071-0.395-0.131-0.79-0.138-1.19c-0.031-0.406-0.011-0.772-0.006-1.168
			c0.02-0.394,0.022-0.783,0.166-1.235c0.07-0.213,0.236-0.523,0.578-0.641c0.329-0.1,0.584-0.02,0.792,0.049
			c0.42,0.154,0.751,0.369,1.082,0.585c0.326,0.219,0.638,0.449,0.944,0.683L40.934,44.2c0.04-0.233,0.063-0.504,0.066-0.782
			c0.009-0.275,0.004-0.558-0.001-0.841l-0.022-0.854l-0.008-0.436l0.004-0.135l0.002-0.028c0.004-0.032,0.011-0.065,0.02-0.098
			c0.01-0.032,0.021-0.064,0.035-0.094c0.028-0.056,0.106-0.141,0.186-0.177c0.12-0.091,0.393,0.008,0.393,0.031
			c0.039,0.025,0.1,0.077,0.11,0.094c0.04,0.045,0.077,0.091,0.098,0.125c0.19,0.291,0.302,0.543,0.43,0.812l0.351,0.795l0.33,0.797
			l0.161,0.399l0.079,0.198l0.019,0.045c0.006,0.015-0.003-0.01-0.02-0.037l-0.024-0.033c-0.015-0.01,0.003-0.011-0.088-0.08
			c-0.029-0.016-0.067-0.046-0.172-0.057c-0.103-0.022-0.295,0.076-0.338,0.184c-0.083,0.198-0.032,0.218-0.038,0.251
			c0.015,0.056,0.008,0.026,0.009,0.032L42.51,44.3l-0.035-0.095l0.122-0.413c-0.041,0.058,0.048-0.102,0.058-0.235
			c0.024-0.144,0.038-0.304,0.046-0.468l0.038-1.024c0.013-0.181,0.021-0.358,0.075-0.577c0.042-0.108,0.038-0.246,0.271-0.434
			c0.14-0.096,0.333-0.092,0.436-0.052c0.158,0.07,0.086,0.035,0.188,0.099c0.266,0.206,0.327,0.352,0.44,0.526
			c0.098,0.167,0.171,0.333,0.245,0.499c0.535,1.326,0.83,2.659,1.114,4.017l-0.725,0.084c-0.009-0.476,0.032-0.913,0.119-1.367
			c0.089-0.448,0.229-0.898,0.464-1.32c0.23-0.421,0.593-0.812,1.055-1.042c0.229-0.118,0.479-0.188,0.725-0.222
			c0.124-0.022,0.246-0.024,0.369-0.029l0.023-0.001c0.03,0.002-0.051-0.006,0.071,0.005l0.01,0.001l0.04,0.007
			c0.015,0,0.118,0.033,0.17,0.06c0.11,0.058,0.152,0.093,0.21,0.14c0.394,0.352,0.623,0.704,0.886,1.061l0.731,1.07
			c0.239,0.355,0.478,0.708,0.726,1.043c0.124,0.167,0.251,0.33,0.38,0.472c0.064,0.073,0.129,0.134,0.187,0.183
			c0.046,0.063,0.126,0.002-0.094,0.052l-0.21,0.402c-0.059-0.368-0.115-0.753,0.01-1.213c0.04-0.118,0.096-0.236,0.183-0.35
			c0.092-0.11,0.21-0.208,0.339-0.263c0.261-0.116,0.506-0.109,0.713-0.086c0.416,0.057,0.76,0.194,1.092,0.326l0.477,0.195
			c0.075,0.029,0.15,0.056,0.205,0.069c0.029,0.008,0.047,0.008,0.037,0.009c0.003-0.009-0.194,0.013-0.251,0.211l0.692-0.063
			c0.354,0.705,0.807,1.358,1.348,1.926c0.271,0.283,0.567,0.542,0.879,0.774c0.155,0.118,0.318,0.224,0.483,0.325
			c0.161,0.096,0.345,0.195,0.491,0.257l-0.352,0.043c0.355-0.242,0.708-0.441,1.094-0.62c0.389-0.167,0.793-0.332,1.302-0.33
			c0.13,0.007,0.253,0.011,0.406,0.069c0.061,0.012,0.263,0.11,0.377,0.217c0.229,0.207,0.333,0.479,0.382,0.715
			c0.085,0.485,0.033,0.902-0.069,1.344l-0.57-0.369c0.527-0.407,1.063-0.762,1.683-1.042c0.313-0.133,0.642-0.256,1.041-0.272
			c0.197-0.005,0.425,0.025,0.635,0.145c0.199,0.1,0.385,0.344,0.446,0.507c0.201,0.534-0.058,0.944-0.255,1.224
			c-0.218,0.29-0.467,0.517-0.721,0.729c-0.255,0.21-0.519,0.4-0.784,0.582l-0.396,0.265l-0.191,0.128l-0.084,0.06l-0.027,0.021
			c-0.004,0.004,0.009-0.007,0.011-0.012c-0.026,0.038,0.089-0.099,0.062-0.223l-0.115,0.285l-0.055,0.051
			c-0.003-0.009,0.031-0.004,0.033-0.159c-0.022-0.185-0.188-0.241-0.18-0.233c-0.04-0.004,0.095,0.001,0.171-0.013
			c0.183-0.021,0.382-0.059,0.579-0.097l1.2-0.246c0.814-0.148,1.613-0.334,2.522-0.278c0.227,0.033,0.488,0.05,0.758,0.294
			c0.131,0.112,0.206,0.373,0.196,0.463c0.015,0.092,0.014,0.225,0.042,0.283c0.074,0.262,0.301,0.62,0.546,0.898
			c0.505,0.581,1.146,1.092,1.794,1.531l-0.453,0.21c0.109-0.682,0.28-1.328,0.536-1.967c0.265-0.624,0.602-1.274,1.24-1.708
			c0.316-0.21,0.728-0.322,1.103-0.291c0.309,0,0.721,0.072,1.046,0.191c0.342,0.124,0.665,0.324,0.924,0.589
			c0.132,0.13,0.243,0.28,0.34,0.438c0.097,0.164,0.172,0.316,0.23,0.527l-0.529,0.08c-0.078-1.155-0.126-2.316-0.162-3.479
			l-0.016-0.436c0.012-0.164-0.057-0.233,0.058-0.541c0.139-0.284,0.466-0.315,0.624-0.292c0.183,0.018,0.334,0.066,0.482,0.118
			c0.292,0.106,0.558,0.238,0.818,0.369l0.377,0.185l0.075,0.03c-0.021-0.002,0.043,0.001-0.047,0
			c-0.016,0.002-0.032,0.007-0.045,0.014c-0.045,0.013-0.108,0.064-0.128,0.123c-0.028,0.102-0.018,0.091-0.01,0.14
			c0.026,0.052-0.043-0.055-0.075-0.086c-0.05-0.049-0.069-0.117-0.059-0.181l0.006-0.036c0.057-0.329,0.035-0.775,0.08-1.2
			c0.008-0.107,0.028-0.222,0.055-0.339c0.023-0.107,0.106-0.289,0.157-0.351c0.049-0.079,0.134-0.194,0.216-0.278
			c0.08-0.089,0.185-0.172,0.307-0.238c0.255-0.145,0.618-0.086,0.818,0.067c0.215,0.144,0.358,0.324,0.488,0.504
			c0.127,0.182,0.233,0.371,0.33,0.562l0.136,0.289l0.062,0.146l0.03,0.071l0.014,0.033l0.006,0.013l-0.003-0.006l-0.002-0.003
			l-0.001-0.001c-0.024,0.002,0.042-0.037-0.17-0.104c-0.359,0.097-0.209,0.254-0.246,0.235c-0.058-0.029-0.082-0.1-0.052-0.159
			c0.025-0.05,0.082-0.074,0.134-0.061l0.332,0.082c0.005,0.001-0.03-0.041-0.098-0.041c-0.061,0.009-0.048,0.017-0.038,0.004
			c0.027-0.022,0.072-0.077,0.11-0.132c0.08-0.114,0.157-0.246,0.237-0.378c0.081-0.133,0.162-0.27,0.261-0.406
			c0.051-0.068,0.104-0.138,0.177-0.207c0.073-0.062,0.169-0.161,0.37-0.159c0.047,0.006,0.098,0.017,0.135,0.038
			c0.023,0.013,0.032,0.015,0.064,0.039l0.023,0.018l0.092,0.073c0.072,0.067,0.141,0.138,0.192,0.205
			c0.108,0.138,0.196,0.284,0.268,0.435c0.143,0.304,0.236,0.608,0.296,0.94l-0.404-0.058c0.263-0.538,0.546-1.056,0.856-1.566
			c0.313-0.507,0.643-1.008,1.07-1.456c0.114-0.118,0.207-0.204,0.375-0.328c0.205-0.12,0.424-0.072,0.573-0.04
			c0.32,0.083,0.589,0.221,0.856,0.362c0.53,0.289,1.022,0.617,1.506,0.969l-0.3,0.173c-0.067-0.647-0.115-1.292-0.132-1.943
			c-0.007-0.326-0.007-0.652,0.016-0.982c0.012-0.166,0.029-0.332,0.064-0.502c0.018-0.085,0.039-0.171,0.075-0.262
			c0.041-0.088,0.076-0.189,0.206-0.279l-0.015,0.01c0.194-0.154,0.475-0.248,0.731-0.199c0.255,0.042,0.468,0.166,0.648,0.306
			c0.362,0.287,0.63,0.634,0.867,1.014l-0.304,0.076c0.046-0.686,0.137-1.358,0.271-2.028c0.14-0.667,0.318-1.334,0.633-1.958
			c0.159-0.309,0.356-0.611,0.639-0.845c0.142-0.118,0.295-0.21,0.485-0.267c0.184-0.054,0.386-0.053,0.568-0.001
			c0.367,0.111,0.641,0.366,0.862,0.633c0.222,0.272,0.4,0.566,0.549,0.885l-0.208,0.015c0.241-0.886,0.479-1.792,0.547-2.7
			c0.07-0.458-0.165-0.853-0.355-1.274c-0.206-0.412-0.437-0.814-0.662-1.219c-0.442-0.812-0.929-1.619-1.156-2.54
			c-0.046-0.231-0.071-0.476-0.008-0.713c0.059-0.241,0.248-0.44,0.471-0.531c0.453-0.185,0.938-0.132,1.396-0.077L90.675,31.25z
			 M90.541,31.251c-0.42-0.043-0.86-0.069-1.242,0.094c-0.204,0.088-0.361,0.259-0.411,0.472c-0.053,0.212-0.029,0.442,0.018,0.663
			c0.23,0.886,0.724,1.688,1.176,2.491c0.23,0.402,0.467,0.801,0.681,1.217c0.108,0.207,0.208,0.42,0.292,0.643
			c0.09,0.22,0.131,0.49,0.1,0.716c-0.059,0.944-0.286,1.848-0.518,2.751c-0.015,0.059-0.075,0.094-0.133,0.079
			c-0.032-0.008-0.056-0.029-0.07-0.056l-0.004-0.008c-0.286-0.565-0.694-1.184-1.275-1.369c-0.143-0.037-0.291-0.035-0.431,0.007
			c-0.134,0.038-0.276,0.125-0.391,0.224c-0.237,0.2-0.417,0.478-0.561,0.768c-0.288,0.587-0.455,1.24-0.583,1.892
			c-0.123,0.654-0.204,1.324-0.239,1.986c-0.005,0.09-0.082,0.16-0.173,0.155c-0.054-0.003-0.104-0.037-0.132-0.079
			c-0.215-0.338-0.484-0.67-0.793-0.909c-0.311-0.248-0.683-0.339-0.955-0.103l-0.004,0.004l-0.011,0.007
			c-0.03,0.013-0.098,0.177-0.12,0.314c-0.029,0.146-0.044,0.3-0.054,0.456c-0.02,0.312-0.018,0.63-0.008,0.948
			c0.021,0.636,0.073,1.277,0.143,1.91c0.012,0.104-0.063,0.197-0.167,0.209c-0.048,0.005-0.096-0.009-0.133-0.036
			c-0.469-0.336-0.961-0.658-1.466-0.928c-0.252-0.132-0.514-0.259-0.766-0.321c-0.13-0.027-0.231-0.04-0.284,0.002
			c-0.064,0.057-0.194,0.162-0.281,0.26c-0.383,0.406-0.705,0.896-1.003,1.391c-0.297,0.497-0.575,1.015-0.825,1.535
			c-0.051,0.107-0.179,0.152-0.286,0.101c-0.063-0.031-0.106-0.094-0.119-0.159c-0.052-0.274-0.143-0.565-0.265-0.818
			c-0.062-0.128-0.135-0.247-0.218-0.351c-0.043-0.056-0.084-0.094-0.123-0.134l-0.089-0.07l-0.023-0.018l0.014,0.011
			c0.004-0.001,0.015,0.007,0.024,0.005c0.042-0.003,0.003-0.001-0.034,0.041c-0.039,0.037-0.082,0.09-0.122,0.146
			c-0.082,0.114-0.159,0.243-0.236,0.375c-0.079,0.132-0.156,0.268-0.252,0.407c-0.051,0.07-0.099,0.141-0.188,0.22
			c-0.048,0.036-0.103,0.093-0.242,0.103c-0.148,0.003-0.248-0.097-0.287-0.156l0.414-0.138c-0.037-0.019,0.112,0.139-0.249,0.236
			c-0.212-0.067-0.147-0.106-0.172-0.104l-0.003-0.006l-0.006-0.012l-0.012-0.024l-0.01-0.022l-0.016-0.038l-0.031-0.071
			l-0.061-0.138l-0.129-0.269c-0.09-0.176-0.188-0.347-0.298-0.501c-0.11-0.153-0.234-0.296-0.366-0.38
			c-0.136-0.087-0.235-0.094-0.35-0.039c-0.058,0.034-0.12,0.077-0.176,0.143c-0.06,0.065-0.101,0.116-0.161,0.211
			c-0.07,0.104-0.062,0.12-0.093,0.209c-0.018,0.084-0.034,0.172-0.041,0.271c-0.02,0.19-0.023,0.396-0.029,0.6
			c-0.01,0.212-0.004,0.409-0.053,0.665l-0.053-0.216c0.057,0.081,0.094,0.079,0.175,0.266c0.008,0.066,0.032,0.076-0.008,0.191
			c-0.026,0.065-0.094,0.124-0.146,0.143c-0.023,0.007-0.048,0.013-0.073,0.016c-0.126,0.005-0.098-0.01-0.153-0.017
			c-0.049-0.016-0.092-0.033-0.128-0.048l-0.403-0.194c-0.257-0.127-0.512-0.25-0.765-0.339c-0.125-0.044-0.252-0.08-0.357-0.088
			c-0.12-0.006-0.136,0.017-0.126,0.015c-0.014-0.042-0.013,0.193-0.002,0.314l0.019,0.431c0.043,1.148,0.099,2.297,0.185,3.45
			c0.011,0.147-0.1,0.276-0.248,0.287c-0.128,0.01-0.243-0.073-0.277-0.193l-0.004-0.014c-0.031-0.106-0.096-0.253-0.17-0.37
			c-0.076-0.121-0.162-0.237-0.265-0.336c-0.202-0.203-0.451-0.356-0.727-0.453c-0.134-0.051-0.285-0.088-0.424-0.11
			c-0.134-0.025-0.29-0.04-0.459-0.042c-0.282-0.02-0.534,0.055-0.767,0.206c-0.463,0.312-0.781,0.878-1.013,1.453
			c-0.229,0.581-0.391,1.214-0.485,1.829l-0.001,0.011c-0.024,0.16-0.173,0.27-0.333,0.245c-0.043-0.007-0.084-0.023-0.119-0.046
			c-0.705-0.472-1.36-0.983-1.935-1.631c-0.142-0.163-0.279-0.334-0.397-0.527c-0.122-0.191-0.225-0.389-0.297-0.665
			c-0.04-0.135-0.032-0.212-0.05-0.321c-0.007-0.113-0.008-0.059-0.021-0.092c-0.034-0.041-0.204-0.097-0.376-0.108
			c-0.729-0.045-1.549,0.13-2.334,0.285l-1.201,0.254c-0.204,0.041-0.407,0.081-0.63,0.109c-0.126,0.006-0.198,0.041-0.438-0.009
			c-0.04-0.004-0.258-0.092-0.285-0.33c-0.002-0.207,0.063-0.247,0.088-0.297c0.065-0.087,0.11-0.12,0.16-0.167l-0.115,0.284
			c-0.019-0.142,0.103-0.298,0.092-0.272l0.053-0.054l0.064-0.053l0.107-0.078l0.201-0.137l0.388-0.263
			c0.254-0.176,0.501-0.357,0.73-0.55c0.229-0.192,0.445-0.397,0.604-0.614c0.078-0.107,0.14-0.218,0.17-0.315
			c0.033-0.091,0.02-0.188,0.01-0.216c-0.058-0.128-0.086-0.138-0.161-0.193c-0.065-0.038-0.161-0.058-0.277-0.054
			c-0.235,0.009-0.511,0.102-0.774,0.219c-0.529,0.241-1.052,0.59-1.518,0.957c-0.156,0.123-0.381,0.096-0.504-0.061
			c-0.07-0.088-0.091-0.2-0.068-0.302l0.001-0.007c0.077-0.327,0.112-0.717,0.051-1.013c-0.031-0.149-0.09-0.262-0.16-0.321
			c-0.037-0.02-0.006-0.03-0.136-0.071c-0.03-0.017-0.111-0.024-0.177-0.025c-0.29-0.004-0.648,0.121-0.979,0.271
			c-0.333,0.155-0.671,0.351-0.969,0.558l-0.01,0.007c-0.103,0.072-0.233,0.081-0.342,0.037c-0.234-0.098-0.413-0.198-0.605-0.312
			c-0.187-0.114-0.37-0.234-0.542-0.365c-0.349-0.26-0.675-0.546-0.974-0.859c-0.597-0.626-1.091-1.344-1.476-2.112l0.692-0.063
			c-0.088,0.288-0.382,0.338-0.463,0.329c-0.098-0.002-0.166-0.018-0.221-0.032c-0.114-0.03-0.203-0.063-0.29-0.097l-0.49-0.2
			c-0.312-0.127-0.625-0.242-0.901-0.278c-0.136-0.018-0.254-0.006-0.312,0.023c-0.056,0.026-0.09,0.058-0.126,0.164
			c-0.062,0.215-0.045,0.544,0.013,0.858l0.002,0.011c0.031,0.167-0.062,0.328-0.212,0.391c-0.198,0.082-0.375,0.029-0.458-0.011
			c-0.103-0.044-0.155-0.089-0.22-0.134c-0.106-0.089-0.197-0.177-0.274-0.265c-0.159-0.176-0.295-0.353-0.427-0.53
			c-0.262-0.356-0.504-0.714-0.744-1.071l-0.72-1.057c-0.24-0.335-0.502-0.699-0.752-0.918c-0.023-0.023-0.07-0.048-0.054-0.042
			c0.002,0.007,0.062,0.006,0.022,0l-0.04-0.007l-0.01-0.002c0.115,0.009,0.027,0.003,0.051,0.005l-0.018,0.001
			c-0.091,0.004-0.184,0.005-0.272,0.021c-0.178,0.024-0.348,0.072-0.501,0.152c-0.308,0.154-0.562,0.415-0.745,0.745
			c-0.365,0.656-0.498,1.513-0.491,2.294v0.007c0.001,0.203-0.161,0.368-0.363,0.37c-0.178,0.001-0.327-0.124-0.362-0.292
			c-0.271-1.312-0.575-2.66-1.064-3.869c-0.064-0.146-0.13-0.293-0.206-0.421c-0.06-0.118-0.188-0.265-0.192-0.271
			c0.038,0.008-0.115-0.061-0.033-0.026c0.021,0.012,0.124,0.02,0.189-0.031c0.095-0.083,0.036-0.044,0.034,0.008
			c-0.029,0.113-0.043,0.278-0.053,0.438l-0.039,1.022c-0.01,0.178-0.024,0.358-0.057,0.551c-0.056,0.193-0.03,0.399-0.334,0.688
			l0.122-0.412l0.038,0.106l0.005,0.014l0.013,0.044c-0.005,0.035,0.046,0.058-0.036,0.258c-0.043,0.109-0.234,0.208-0.337,0.187
			c-0.104-0.009-0.143-0.039-0.171-0.053c-0.13-0.098-0.078-0.076-0.119-0.123l-0.03-0.062l-0.022-0.054l-0.08-0.2l-0.159-0.396
			l-0.325-0.787l-0.34-0.773c-0.115-0.248-0.243-0.516-0.367-0.704l-0.032-0.044c-0.01-0.013,0.018,0.021,0.03,0.023
			c-0.006-0.007,0.033,0.025,0.108,0.04c0.07,0.011,0.121-0.004,0.188-0.027c0.067-0.024,0.131-0.098,0.147-0.141
			c0.009-0.012,0.016-0.027,0.02-0.042s0.006-0.031,0.006-0.046l-0.002,0.025l-0.003,0.053c0.001-0.036,0.001,0.02,0.001,0.025
			l0.008,0.42l0.021,0.859c0.005,0.289,0.009,0.577,0,0.873c-0.005,0.293-0.024,0.593-0.085,0.923
			c-0.035,0.19-0.216,0.315-0.406,0.281c-0.055-0.01-0.104-0.032-0.146-0.063l-0.016-0.012c-0.592-0.444-1.218-0.925-1.826-1.162
			c-0.146-0.057-0.285-0.066-0.325-0.048c-0.031,0.007-0.084,0.058-0.134,0.199c-0.093,0.276-0.114,0.66-0.128,1.024
			c-0.005,0.365-0.025,0.762,0.005,1.116c0.004,0.363,0.06,0.72,0.123,1.076c0.079,0.352,0.174,0.7,0.306,1.034
			c0.133,0.324,0.296,0.673,0.479,0.927c0.117,0.161,0.081,0.386-0.081,0.502c-0.045,0.033-0.098,0.054-0.149,0.063
			c-0.937,0.167-1.946,0.44-2.66,0.967c-0.072,0.068-0.176,0.146-0.216,0.206l-0.082,0.093l-0.089,0.167
			c-0.062,0.142-0.132,0.4-0.162,0.618c-0.066,0.462-0.063,0.952-0.033,1.441c0.155,1.964,0.662,3.939,1.255,5.841
			c0.057,0.185-0.046,0.381-0.23,0.438c-0.123,0.039-0.252,0.004-0.341-0.077c-0.294-0.268-0.64-0.532-0.987-0.765
			c-0.349-0.237-0.712-0.453-1.089-0.64c-0.751-0.377-1.55-0.658-2.371-0.785c-0.204-0.045-0.412-0.042-0.617-0.066
			c-0.208-0.026-0.402,0-0.604-0.006c-0.192-0.011-0.425,0.042-0.637,0.061l-0.162,0.021l-0.041,0.005
			c0.025-0.004-0.009,0.004-0.011,0.006l-0.058,0.017c-0.082,0.015-0.15,0.05-0.217,0.088c-0.539,0.312-0.644,1.275-0.555,2.03
			l0.001,0.007c0.022,0.189-0.113,0.36-0.302,0.382c-0.127,0.015-0.246-0.042-0.317-0.138c-0.555-0.752-1.133-1.501-1.74-2.205
			c-0.327-0.364-0.562-0.662-0.952-0.972c-0.139-0.128-0.35-0.242-0.542-0.354l-0.617-0.325c-0.84-0.426-1.723-0.878-2.472-1.561
			c-0.18-0.18-0.361-0.357-0.515-0.565c-0.167-0.194-0.292-0.426-0.417-0.65c-0.113-0.234-0.215-0.472-0.277-0.725
			c-0.089-0.246-0.095-0.506-0.142-0.758l0.408,0.302c0.025,0.006,0.058-0.028,0.043-0.012c-0.001,0-0.013,0.009-0.028,0.031
			c-0.026,0.028-0.061,0.083-0.09,0.134c-0.062,0.106-0.119,0.232-0.173,0.358c-0.106,0.254-0.201,0.53-0.281,0.795
			c-0.055,0.179-0.244,0.28-0.422,0.226c-0.074-0.022-0.137-0.071-0.179-0.129c-0.318-0.442-0.727-0.91-1.157-1.137
			c-0.224-0.11-0.379-0.117-0.506-0.019c-0.141,0.103-0.267,0.345-0.35,0.598c-0.015,0.049-0.045,0.096-0.08,0.13
			c-0.081,0.08-0.196,0.127-0.318,0.122c-0.093-0.009-0.171-0.04-0.213-0.066c-0.098-0.057-0.146-0.107-0.197-0.157
			c-0.095-0.099-0.163-0.192-0.23-0.286c-0.132-0.188-0.244-0.375-0.352-0.562c-0.216-0.375-0.412-0.755-0.608-1.126l-0.145-0.265
			l-0.029-0.047c-0.023-0.014,0.093,0.092,0.111,0.079l-0.008-0.005l-0.001,0c0.238,0.047,0.065,0.013,0.119,0.023l-0.001,0
			l-0.002,0l-0.009,0.002c-0.023,0.004-0.047,0.001-0.083,0.016c-0.131,0.038-0.294,0.141-0.444,0.257
			c-0.301,0.236-0.591,0.541-0.842,0.845c-0.106,0.133-0.3,0.154-0.433,0.048c-0.022-0.018-0.045-0.043-0.062-0.066
			c-0.421-0.612-0.859-1.233-1.331-1.787l-0.179-0.196c-0.064-0.061-0.085-0.093-0.175-0.158l-0.028-0.021
			c0.027,0.019,0.016,0.012,0.026,0.017s0.034,0.01,0.054,0.01c0.043-0.001,0.057-0.018,0.048-0.011
			c-0.019,0.014-0.067,0.071-0.105,0.136c-0.158,0.272-0.279,0.639-0.372,0.976l-0.001,0.006c-0.043,0.155-0.204,0.246-0.359,0.204
			c-0.101-0.028-0.175-0.106-0.202-0.199c-0.213-0.728-0.433-1.458-0.669-2.173l-0.175-0.503c-0.022-0.077-0.072-0.167-0.111-0.252
			c-0.014-0.012,0.018,0.003,0.033,0.003c-0.023-0.005-0.189,0.091-0.299,0.21c-0.12,0.115-0.239,0.259-0.338,0.394l-0.005,0.007
			c-0.089,0.123-0.261,0.149-0.384,0.06c-0.042-0.031-0.074-0.073-0.093-0.118c-0.324-0.792-0.631-1.584-0.897-2.405
			c-0.123-0.406-0.271-0.831-0.291-1.318c-0.002-0.413-0.022-0.831-0.077-1.234c-0.043-0.378-0.165-0.862-0.321-0.991
			c-0.015-0.008,0.031,0.016,0.063,0.001c0.032-0.014,0.017-0.013,0,0.011c-0.035,0.043-0.079,0.128-0.114,0.215
			c-0.072,0.177-0.131,0.377-0.191,0.58c-0.071,0.21-0.099,0.396-0.251,0.663c-0.025,0.035-0.052,0.08-0.13,0.131
			C7.635,43.5,7.44,43.499,7.368,43.434c-0.077-0.054-0.119-0.122-0.122-0.128l-0.011-0.017c-0.025-0.039-0.013-0.023-0.021-0.038
			l-0.02-0.043c-0.059-0.119-0.093-0.226-0.127-0.333c-0.131-0.427-0.213-0.845-0.295-1.267c-0.159-0.842-0.28-1.685-0.381-2.532
			c-0.048-0.425-0.097-0.847-0.112-1.289c0.006-0.039-0.021-0.158,0.014-0.049C6.4,37.859,6.451,37.8,6.408,37.819
			c-0.054,0.014-0.149,0.065-0.231,0.114c-0.171,0.102-0.344,0.223-0.524,0.341c-0.092,0.06-0.18,0.119-0.293,0.178
			c-0.028,0.015-0.061,0.03-0.101,0.044c-0.054-0.006-0.083,0.082-0.295-0.041c-0.095-0.097-0.088-0.174-0.083-0.242l0.014-0.064
			l0.034-0.089c0.093-0.23,0.205-0.411,0.319-0.598c0.229-0.368,0.474-0.718,0.722-1.065c0.501-0.693,1.013-1.366,1.559-2.031
			l-0.014,0.247c-0.195-0.307-0.374-0.623-0.528-0.954c-0.155-0.343-0.273-0.672-0.38-1.014c-0.026-0.079-0.053-0.157-0.083-0.216
			c-0.027-0.067-0.076-0.081-0.016-0.06c0.046-0.007-0.016,0.005-0.057,0.068c-0.045,0.047-0.088,0.122-0.13,0.188
			c-0.166,0.286-0.301,0.61-0.431,0.932c-0.012,0.029-0.03,0.052-0.053,0.07l-0.05,0.038c-0.098,0.074-0.34-0.01-0.372-0.105
			c-0.053-0.08-0.07-0.143-0.088-0.203c-0.031-0.119-0.043-0.225-0.056-0.331l-0.044-0.617C5.212,32.21,5.199,32.01,5.17,31.822
			c-0.015-0.093-0.033-0.186-0.061-0.26c-0.042-0.087-0.039-0.091-0.049-0.084c-0.028,0.007-0.152,0.012-0.229,0.036
			c-0.087,0.022-0.176,0.048-0.264,0.086c-0.176,0.068-0.349,0.16-0.516,0.261c-0.335,0.201-0.66,0.444-0.956,0.699
			c-0.076,0.068-0.193,0.062-0.261-0.014c-0.028-0.031-0.044-0.073-0.047-0.112c-0.072-1.155-0.125-2.307-0.16-3.456l-0.033-0.841
			c0-0.037-0.036-0.069-0.167-0.084c-0.116-0.011-0.251,0.001-0.384,0.022c-0.539,0.095-1.084,0.292-1.604,0.504l-0.006,0.002
			c-0.085,0.035-0.183-0.006-0.218-0.092c-0.022-0.055-0.013-0.116,0.019-0.161c0.805-1.124,1.671-2.197,2.694-3.141
			c0.52-0.456,1.069-0.917,1.794-1.116c0.098-0.02,0.199-0.039,0.279-0.039c0.089-0.004,0.178-0.009,0.175-0.016
			c-0.008,0.089-0.036-0.131-0.144-0.238c-0.093-0.129-0.204-0.254-0.319-0.375l-0.177-0.179L4.493,23.18L4.48,23.168l-0.014-0.015
			l-0.003-0.003c0.032-0.072-0.071,0.167,0.036-0.221c0.3-0.013,0.118,0.019,0.172,0.008l0.002,0.002l0.03,0.024l0.099,0.083
			l-0.239,0.158C4.539,23.13,4.57,23.02,4.685,22.986c0.033-0.007,0.08-0.005,0.094-0.001c0.039,0.006,0.069,0.016,0.095,0.024
			l0.148,0.059l0.272,0.127l0.525,0.266c0.347,0.178,0.694,0.361,1.042,0.514c0.086,0.036,0.176,0.072,0.252,0.092
			C7.152,24.1,7.2,24.023,7.079,24.14c-0.018,0.059-0.008-0.045-0.021-0.062c-0.039-0.152-0.141-0.308-0.257-0.45
			c-0.236-0.284-0.536-0.536-0.841-0.754c-0.063-0.042-0.08-0.128-0.038-0.191c0.014-0.021,0.037-0.039,0.058-0.049
			c0.627-0.28,1.257-0.546,1.896-0.797c0.32-0.124,0.642-0.245,0.969-0.354C9.176,21.379,9.5,21.27,9.871,21.23l-0.109,0.076
			c0.109-0.245,0.252-0.561,0.132-0.665c-0.152-0.126-0.47-0.159-0.74-0.175c-0.563-0.032-1.139-0.006-1.711,0.016l-0.012,0
			c-0.064,0.002-0.119-0.048-0.121-0.112c-0.002-0.042,0.02-0.081,0.053-0.103c0.544-0.356,1.106-0.552,1.672-0.782
			c0.566-0.22,1.137-0.422,1.708-0.625c1.149-0.393,2.283-0.792,3.48-1.085l-0.079,0.052c0.123-0.17,0.083-0.316-0.09-0.447
			c-0.165-0.125-0.382-0.211-0.6-0.28c-0.438-0.136-0.906-0.217-1.366-0.268c-0.073-0.007-0.127-0.072-0.12-0.146
			c0.006-0.065,0.062-0.116,0.125-0.12l2.915-0.157l1.459-0.069c0.501-0.016,0.941-0.054,1.497-0.034l-0.164,0.072
			c0.102-0.181,0.178-0.377,0.174-0.548c-0.008-0.166-0.114-0.288-0.296-0.365c-0.36-0.15-0.814-0.155-1.243-0.142l-0.043,0.001
			c-0.064,0.002-0.118-0.048-0.12-0.113l0.001-0.018c0.033-0.275,0.141-0.233,0.19-0.302c0.062-0.04,0.122-0.074,0.182-0.105
			c0.12-0.063,0.24-0.117,0.359-0.17l0.721-0.297c0.479-0.192,0.963-0.375,1.422-0.585c0.112-0.053,0.228-0.109,0.32-0.169
			c0.021-0.015,0.045-0.03,0.057-0.042c0.029-0.049-0.028,0.077,0.003,0.005c-0.007,0.02,0-0.111,0-0.158l0.024-0.387
			c0.009-0.119-0.007-0.238-0.025-0.25c-0.001-0.019-0.111-0.043-0.225-0.03c-0.112,0.005-0.236,0.026-0.357,0.052
			c-0.244,0.048-0.492,0.116-0.738,0.183l-0.031,0.008c-0.082,0.022-0.165-0.026-0.187-0.107c-0.004-0.017-0.006-0.034-0.005-0.05
			c0.009-0.142,0.042-0.133,0.043-0.153l0.029-0.044l0.054-0.078l0.108-0.147l0.218-0.287l0.438-0.566l0.876-1.127l0.424-0.566
			c0.089-0.173,0.065,0.053,0.018-0.1c-0.043-0.073-0.122-0.138-0.203-0.198c-0.346-0.232-0.818-0.355-1.256-0.426l-0.006-0.001
			c-0.106-0.017-0.178-0.117-0.161-0.223c0.015-0.091,0.091-0.157,0.179-0.163l2.121-0.142l1.063-0.053l0.536-0.015l0.272,0
			c0.099,0.009,0.174-0.005,0.342,0.043l-0.138-0.011l0.162-0.051l-0.113,0.327c0.012,0.014-0.057-0.036-0.116-0.055
			c-0.062-0.026-0.132-0.051-0.203-0.072c-0.142-0.045-0.291-0.083-0.44-0.118c-0.299-0.07-0.606-0.131-0.909-0.183
			C21.21,8.36,21.131,8.251,21.15,8.136c0.008-0.053,0.038-0.1,0.076-0.132c0.633-0.512,1.274-0.998,1.987-1.416
			c0.181-0.102,0.363-0.202,0.568-0.281c0.089-0.04,0.246-0.083,0.344-0.1c0.028-0.003,0.148-0.02,0.1-0.012
			c-0.024,0.006-0.111,0.073-0.104,0.142c-0.01,0.004,0.003,0.032-0.004,0.015C24.105,6.309,24.047,6.219,24,6.147l-0.169-0.23
			l-0.185-0.229l-0.096-0.115l-0.053-0.065L23.48,5.484l-0.008-0.012c0-0.004,0,0.013-0.028-0.061
			c-0.06,0.019,0.029-0.328,0.223-0.294c0.102,0.011,0.099,0.029,0.117,0.034l0.017,0.012l0.049,0.042L23.633,5.15
			c0.204-0.034,0.397-0.104,0.612-0.1c0.21-0.02,0.424,0.009,0.626,0.046c0.402,0.086,0.751,0.226,1.087,0.263
			c0.08,0.019,0.176,0.023,0.272,0.027l0.143,0.008l0.071,0.004L26.48,5.4l0.018,0.001c0.038,0.004-0.042-0.015-0.121,0.031
			c-0.109,0.092-0.056,0.07-0.071,0.074c0.001-0.002,0.002-0.012,0.003-0.023c0.002-0.022-0.001-0.052-0.006-0.084
			c-0.013-0.064-0.037-0.134-0.073-0.204c-0.146-0.284-0.411-0.542-0.688-0.771l-0.024-0.02c-0.093-0.076-0.106-0.214-0.03-0.307
			c0.017-0.02,0.037-0.037,0.059-0.049c0.149-0.087,0.218-0.069,0.28-0.077l0.162,0.007l0.292,0.036l0.557,0.096l0.545,0.1
			l0.265,0.041c0.064,0.013,0.215,0.011,0.164,0.02l-0.165,0.245c-0.005,0.042,0.022,0.105,0.042,0.124l-0.011-0.012L27.65,4.599
			l-0.062-0.064l-0.13-0.131l-0.267-0.263l-0.54-0.522c-0.1-0.096-0.103-0.254-0.007-0.354c0.039-0.04,0.088-0.064,0.139-0.073
			c0.975-0.165,1.947-0.317,2.93-0.443c0.481-0.059,1.008-0.126,1.491-0.141l0.165-0.008c0.004,0-0.012,0.001-0.042,0.011
			c0,0-0.082,0.032-0.122,0.114c-0.069,0.188,0.024,0.23,0.009,0.231c0.016,0.019-0.005-0.004-0.019-0.014
			c-0.072-0.057-0.176-0.123-0.276-0.181l-0.312-0.174L30.45,2.504l-0.074-0.036l-0.011-0.005l0.008,0.002
			c-0.081-0.009,0.208,0.062,0.288-0.092c0.065-0.071,0.081-0.236-0.007-0.333c-0.086-0.079-0.02-0.02-0.026-0.03l-0.374,0.105
			c0.177-0.322,0.47-0.493,0.734-0.605c0.271-0.115,0.543-0.178,0.814-0.228c0.541-0.096,1.076-0.124,1.608-0.136
			c0.531-0.011,1.061,0.001,1.582,0.009l0.193,0.002c0.06,0.005,0.169-0.009,0.086,0.008c-0.019,0.005-0.083,0.042-0.117,0.122
			c-0.033,0.088-0.01,0.135-0.007,0.153c0.017,0.037,0.005,0.012-0.002,0.005c-0.024-0.028-0.066-0.068-0.109-0.104
			c-0.088-0.075-0.189-0.149-0.292-0.221l-0.158-0.108l-0.041-0.027L34.521,0.97l-0.017-0.012l-0.036-0.03
			c-0.069,0.135-0.153-0.48,0.147-0.483c0.107-0.011,0.103,0.004,0.11,0.001l0.036,0.011c0.121,0.057,0.086,0.046,0.134,0.071
			l-0.223-0.026c0.546-0.143,1.031-0.004,1.465,0.123l1.252,0.428c0.197,0.061,0.413,0.119,0.584,0.14
			c0.04,0.009,0.094,0.012,0.151,0.015l0.083,0.004c0.06,0.006-0.054-0.015-0.059,0.004c0.037-0.023,0.146-0.095,0.222-0.152
			c0.328-0.248,0.655-0.544,0.858-0.848c0.045-0.068,0.114-0.112,0.188-0.128l0.049-0.011c0.114-0.025,0.295,0.138,0.255,0.112
			l0.028,0.033l0.041,0.052l0.069,0.093l0.126,0.178l0.246,0.353l0.122,0.172l0.06,0.083c-0.003,0.008,0.095,0.097-0.016,0.008
			c-0.028-0.013-0.039-0.012-0.022-0.003l0.003,0.002l0.001,0.001l0,0c0.107,0.022-0.146-0.03-0.12-0.024l-0.012-0.001l-0.024,0.001
			c-0.048,0.011-0.031,0.009-0.017,0.001l0.079-0.04L40.465,1c0.485-0.281,0.973-0.584,1.454-0.886
			c0.144-0.09,0.334-0.046,0.424,0.098c0.03,0.049,0.045,0.103,0.047,0.157V0.38c0.005,0.349,0.076,0.767,0.241,0.998
			c0.034,0.055,0.099,0.105,0.106,0.112c-0.007,0.01,0.081,0.035,0.116,0.052c-0.02-0.01,0.065,0.01,0.092,0.015
			c0.164,0.031,0.35,0.031,0.537,0.017c0.755-0.067,1.544-0.326,2.269-0.627l0.007-0.003c0.149-0.062,0.318-0.002,0.398,0.133
			l3.318,5.616l-0.558-0.041c0.104-0.135,0.175-0.487,0.209-0.792c0.038-0.32,0.058-0.652,0.083-0.989
			c0.025-0.338,0.049-0.68,0.106-1.033c0.029-0.177,0.065-0.356,0.128-0.543c0.064-0.184,0.149-0.394,0.368-0.577
			c0.135-0.113,0.335-0.096,0.449,0.039c0.03,0.037,0.051,0.078,0.063,0.121l0.003,0.013c0.133,0.495,0.367,0.958,0.746,1.115
			c0.379,0.167,0.907,0.052,1.414-0.118l0.393-0.135c0.043-0.01,0.111-0.073,0.199-0.167c0.167-0.187,0.334-0.416,0.51-0.639
			C53.949,2.511,54.298,2,54.985,1.747c0.15-0.056,0.317,0.021,0.373,0.171l0.005,0.014l0.005,0.019
			c0.104,0.337,0.217,0.678,0.363,0.97c0.036,0.072,0.076,0.138,0.114,0.192c0.033,0.055,0.091,0.084,0.046,0.064
			C55.866,3.165,55.8,3.176,55.783,3.19c-0.02,0.013-0.01,0.01,0-0.005c0.021-0.028,0.053-0.105,0.066-0.153l0.003-0.012
			c0.015-0.056,0.046-0.104,0.087-0.139c0.358-0.309,0.726-0.566,1.158-0.775c0.214-0.104,0.45-0.186,0.713-0.221
			c0.258-0.035,0.577,0,0.833,0.181c0.088,0.062,0.131,0.164,0.124,0.264l0,0.006c-0.018,0.211-0.034,0.428-0.006,0.608
			c0.027,0.199,0.08,0.276,0.157,0.306c0.116,0.038,0.338,0.02,0.592,0.021c0.14,0.011,0.254,0.003,0.448,0.081
			c0.105,0.039,0.128,0.066,0.183,0.096l0.137,0.09c0.137,0.081,0.271,0.098,0.449,0.057c0.176-0.04,0.374-0.135,0.597-0.225
			c0.221-0.087,0.494-0.184,0.805-0.142c0.313,0.041,0.564,0.229,0.748,0.418c0.106,0.109,0.104,0.283-0.006,0.389
			c-0.025,0.024-0.054,0.043-0.084,0.056l-0.016,0.006c-0.17,0.071-0.339,0.153-0.438,0.257c-0.097,0.104-0.124,0.204-0.098,0.351
			c0.059,0.301,0.329,0.639,0.604,0.925c0.569,0.586,1.252,1.093,1.934,1.592c0.343,0.251,0.691,0.492,1.039,0.765
			c0.084,0.067,0.176,0.141,0.279,0.248l0.192,0.235c0.124,0.123,0.242,0.205,0.379,0.212c0.283,0.031,0.725-0.239,1.244-0.212
			c0.261,0.001,0.505,0.103,0.722,0.215c0.209,0.125,0.386,0.278,0.554,0.436c0.099,0.094,0.104,0.251,0.01,0.35
			c-0.039,0.042-0.089,0.066-0.142,0.075L69.037,9.55c-0.366,0.057-0.781,0.163-0.951,0.361c-0.073,0.091-0.088,0.182-0.033,0.329
			c0.053,0.14,0.161,0.289,0.286,0.423c0.513,0.53,1.24,0.976,1.938,1.173c0.124,0.035,0.359,0.034,0.561,0.055l0.621,0.048
			c0.411,0.038,0.811,0.096,1.216,0.142l2.419,0.33c0.123,0.017,0.208,0.129,0.192,0.252c-0.012,0.09-0.076,0.16-0.158,0.185
			L75.12,12.85c-0.264,0.079-0.554,0.234-0.689,0.432c-0.066,0.099-0.104,0.201-0.089,0.317c0.019,0.125,0.051,0.224,0.132,0.355
			c0.089,0.143,0.171,0.242,0.279,0.379l0.311,0.37c0.105,0.126,0.222,0.238,0.33,0.418c0.111,0.188,0.134,0.402,0.141,0.569
			c0.014,0.346,0.003,0.666,0.004,0.996c-0.002,0.031,0.007-0.016-0.015-0.06c-0.028-0.042-0.027-0.043-0.048-0.06
			c-0.027-0.018-0.021-0.01-0.016-0.011c0.016,0.004,0.049,0.008,0.082,0.009c0.068,0.004,0.146,0.001,0.223-0.002l0.478-0.042
			l0.976-0.116l0.5-0.046c0.086-0.005,0.171-0.009,0.265-0.006c0.047,0.001,0.094,0.003,0.156,0.015
			c0.026,0.004,0.065,0.014,0.113,0.037c0.047,0.021,0.153,0.103,0.142,0.25c-0.004,0.048-0.025,0.09-0.058,0.121l-0.006,0.006
			c-0.23,0.218-0.457,0.462-0.554,0.718c-0.104,0.256-0.003,0.449,0.262,0.587c0.528,0.254,1.238,0.264,1.842,0.143l1.961-0.473
			c0.659-0.159,1.317-0.29,1.975-0.436c0.097-0.021,0.194,0.04,0.215,0.137c0.007,0.034,0.005,0.067-0.005,0.098l-0.003,0.008
			c-0.171,0.491-0.236,1.094,0.018,1.515c0.077,0.106,0.133,0.179,0.246,0.258c0.121,0.091,0.223,0.122,0.359,0.186
			c0.244,0.12,0.529,0.198,0.792,0.299c1.088,0.354,2.201,0.656,3.314,0.943c0.074,0.019,0.118,0.094,0.099,0.168
			c-0.013,0.051-0.056,0.088-0.104,0.101c-0.253,0.064-0.515,0.213-0.716,0.402c-0.206,0.19-0.362,0.431-0.457,0.699
			c-0.043,0.135-0.084,0.273-0.101,0.411c-0.03,0.129-0.028,0.303-0.035,0.434c0.007,0.277,0.101,0.552,0.225,0.813
			c0.562,1.03,1.494,1.849,2.437,2.564c0.04,0.027,0.049,0.082,0.022,0.121c-0.009,0.012-0.023,0.023-0.036,0.029
			c-0.379,0.171-0.757,0.351-1.127,0.541c-0.366,0.191-0.749,0.381-1.061,0.631l0.002-0.102c0.542,0.548,1.009,1.153,1.468,1.764
			l0.669,0.928l0.326,0.471l0.161,0.236c0.028,0.071,0.165,0.175,0.103,0.218L90.541,31.251z"/>
	</g>
</g>
<path fill="none" stroke="#1A171B" stroke-width="0.5" stroke-linecap="round" stroke-linejoin="round" stroke-miterlimit="10" d="
	M90.652,31.221c0.077,0.135-1.618-2.444-2.798-3.598c0.444-0.4,2.199-1.199,2.199-1.199s-2.732-1.914-2.732-3.465
	c0-1.767,1.4-2.064,1.4-2.064s-3.51-0.856-4.397-1.334c-1.051-0.564-0.467-2.065-0.467-2.065s-3.029,0.648-3.73,0.866
	c-1.217,0.381-3.798,0-1.932-1.731c0.033-0.292-2.866,0.364-2.866,0.067c0-1.788,0.077-1.15-0.932-2.466
	c-0.902-1.175,0.665-1.599,0.665-1.599S71.4,12.1,70.464,12.1c-1.013,0-4.531-2.332-1.465-2.799
	c-1.466-1.465-2.132,0.478-3.066-0.842c-0.426-0.604-5.928-3.621-3.264-4.622c-0.936-1.005-1.739,0.608-2.664-0.133
	c-0.59-0.469-1.733,0.533-1.533-1.398c-0.814-0.576-2.332,0.798-2.332,0.798s-0.333,1.334-1.066-1.064
	c-0.889,0.27-1.627,1.844-2.064,1.998c-1.067,0.374-2.467,0.934-3-1.066c-0.676,0.529-0.301,3.207-0.829,3.885
	C48.35,5.389,45.881,1.24,45.881,1.24s-2.041,0.896-3.132,0.596c-0.685-0.189-0.666-1.46-0.666-1.46s-1.699,1.064-1.822,1.064
	c-0.041,0-0.736-1.067-0.778-1.064c-0.333,0.532-1.186,1.131-1.265,1.131c-1.051,0-2.505-1.017-3.465-0.732
	c-0.472-0.274,1.117,0.665,0.533,0.665c-1.233,0-4.263-0.221-4.797,0.801c-0.318-0.19,1.288,0.621,0.889,0.621
	c-1.176,0-4.553,0.576-4.553,0.576s1.064,1.025,1.066,1.066c-0.223,0.078-2.016-0.408-2.199-0.266
	c1.066,0.867,0.854,1.399,0.8,1.399c-1.294,0-1.599-0.599-2.798-0.267c-0.255-0.239,0.955,1.045,0.577,1.045
	c-0.784,0-2.909,1.753-2.909,1.753s1.616,0.274,1.798,0.513C23.104,8.695,23.055,8.717,23,8.731
	c-0.265-0.117-4.237,0.171-4.237,0.171s1.465,0.199,1.666,0.866c0.025,0.088-2.277,2.91-2.266,2.999
	c1.933-0.532,1.533-0.148,1.533,0.799c0,0.314-3.321,1.299-3.265,1.6c1.798-0.068,1.913,0.563,1.501,1.288
	c-0.248-0.056-5.832,0.245-5.832,0.245s2.786,0.274,2.145,1.199c-0.979,0.188-6.061,1.868-6.81,2.464
	c2.864-0.133,2.838,0.111,2.442,0.997c-0.876,0.055-3.841,1.402-3.841,1.402s1.177,0.802,1.177,1.421
	c0,0.297-2.593-1.289-2.509-1.021c-0.617-0.52,1.248,1.032,0.377,1.021c-1.776-0.022-4.708,4.242-4.708,4.242
	s2.398-1.033,2.398-0.267c0,1.116,0.2,4.265,0.2,4.265s1.264-1.133,2.11-1.133c0.515,0,0.181,2.395,0.623,2.199
	c0.732-1.866,0.951-1.364,1.115-0.83c0.2,0.662,0.493,1.279,0.866,1.842c-0.446,0.531-2.382,3.037-2.581,3.717
	c-0.125,0.429,1.398-1.003,1.398-0.533c0,0.879,0.531,4.75,0.933,5.463c0.339,0.6,0.495-1.927,1.044-1.514
	C8.97,42,8.989,43.781,8.989,44.093c0,0.784,1.18,3.584,1.18,3.584s0.745-1.065,1.062-0.616c0.204,0.289,1.003,3.014,1.003,3.014
	s0.395-1.557,0.804-1.298c0.487,0.308,1.794,2.232,1.794,2.232s0.985-1.245,1.622-1.245c0.098,0,1.309,2.71,1.643,2.376
	c0.733-2.264,2.598,0.467,2.598,0.467s0.421-1.466,0.781-1.544c0.248,2.913,3.395,3.66,4.75,4.607c0.9,0.63,2.864,3.333,2.864,3.333
	s-0.333-2.267,1.133-2.533c3.717-0.676,6.795,2.266,6.795,2.266s-1.954-5.897-1.066-8.128c0.495-1.243,3.331-1.666,3.331-1.666
	s-0.998-1.309-0.998-3.532c0-2.575,0.133-3.331,2.999-1.133c0.151-0.664,0.044-2.33,0.044-3.041c0-1.106,1.845,3.824,1.487,2.843
	c0.481-0.365,0.037-2.947,0.6-2.731c0.865,0.332,1.732,4.861,1.732,4.861s-0.153-3.597,2.398-3.597c0.689,0,2.876,4.336,3.464,4.065
	c-0.533-2.998,2.665-0.468,2.797-0.934c1.323,2.659,3.4,3.465,3.4,3.465s1.513-1.074,2.397-0.866
	c0.97,0.229,0.534,1.865,0.534,1.865s2.464-2,3.197-0.931c0.745,1.083-2.347,2.658-2.333,2.798c-1.129,0.961,5.13-1.387,5.13,0.066
	c0,1.309,2.532,2.932,2.532,2.932s0.503-3.732,2.465-3.732c2.039,0,2.399,1.533,2.399,1.533s-0.2-2.886-0.2-4.131
	c0-1.163,2.825,1.011,2.065,0.134c0.089-0.37-0.003-1.391,0.2-1.733c1.067-1.798,2.072,1.163,2.066,1.067
	c0.281,0.411,0.854-1.478,1.267-1.2c0.622,0.421,0.798,1.534,0.798,1.534s1.2-2.533,2.199-3.265
	c0.512-0.375,2.731,1.266,2.731,1.266s-0.399-3.465,0.133-3.798c0.933-0.733,1.998,1.066,1.998,1.066s0.178-3.797,1.534-4.796
	c1.244-0.918,2.21,1.251,2.21,1.251s0.544-1.904,0.544-2.94C91.076,35.853,86.255,30.623,90.652,31.221z"/>
</svg>
