<?xml version="1.0" encoding="iso-8859-1"?>
<!-- Generator: Adobe Illustrator 19.2.1, SVG Export Plug-In . SVG Version: 6.00 Build 0)  -->
<svg version="1.1" id="cupboard" xmlns="http://www.w3.org/2000/svg" xmlns:xlink="http://www.w3.org/1999/xlink" x="0px" y="0px"
	 viewBox="0 0 133.169 134.777" style="enable-background:new 0 0 133.169 134.777;" xml:space="preserve">
<g>
	<circle style="fill:#E6458E;" cx="66.711" cy="67.287" r="66.16"/>
	<path style="fill:#1D1E1C;" d="M132.97,67.289c0.127,17.357-6.792,34.698-19.033,47.225c-6.074,6.299-13.489,11.301-21.57,14.713
		c-8.086,3.439-16.892,5.064-25.661,5.049c-8.759-0.065-17.505-1.896-25.532-5.335c-4.016-1.718-7.855-3.831-11.449-6.296
		c-3.603-2.451-6.977-5.236-10.04-8.33c-6.109-6.198-11.072-13.533-14.437-21.568c-3.346-8.037-5.186-16.717-5.244-25.462
		c-0.087-8.721,1.51-17.51,4.836-25.624c3.298-8.123,8.228-15.593,14.425-21.82C25.45,13.603,32.871,8.584,40.989,5.185
		c8.116-3.419,16.928-5.097,25.729-5.089c8.773,0.023,17.6,1.711,25.682,5.173c8.084,3.438,15.484,8.469,21.559,14.771
		C126.191,32.585,133.115,49.925,132.97,67.289z M132.771,67.287c-0.057-8.643-1.763-17.289-5.178-25.217
		c-3.412-7.923-8.4-15.135-14.565-21.1c-6.171-5.951-13.435-10.752-21.357-13.941c-7.918-3.19-16.417-4.905-24.966-4.87
		C58.184,2.154,49.67,3.879,41.787,7.111c-7.89,3.23-15.132,8.043-21.192,14.059C14.539,27.189,9.636,34.382,6.305,42.267
		C2.98,50.152,1.174,58.688,1.099,67.291c-0.07,8.578,1.492,17.224,4.798,25.186c3.264,7.973,8.133,15.301,14.276,21.348
		c3.062,3.03,6.412,5.771,10.008,8.137c3.604,2.354,7.434,4.352,11.419,5.951c7.972,3.212,16.552,4.783,25.116,4.707
		c4.267-0.016,8.549-0.444,12.735-1.289c4.189-0.846,8.287-2.109,12.251-3.703c7.926-3.217,15.175-8.045,21.347-14.001
		c6.159-5.975,11.147-13.188,14.559-21.114C131.022,84.581,132.72,75.931,132.771,67.287z"/>
</g>
<g>
	<path style="fill:#FFE707;" d="M89.574,26.335c10.179-0.994,20.174-0.611,29.673,1.04C111.56,17.207,100.998,9.337,88.771,4.968
		c0.026,6.623-0.224,13.375-0.752,20.218C88.538,25.568,89.062,25.94,89.574,26.335z"/>
	<path style="fill:#1D1E1C;" d="M89.574,26.335c4.927-0.607,9.906-0.88,14.882-0.768c4.974,0.12,9.954,0.524,14.866,1.376
		l-0.424,0.695c-3.843-5.062-8.451-9.515-13.542-13.3c-5.092-3.796-10.757-6.798-16.712-9.013l0.507-0.359
		c-0.028,3.379-0.128,6.756-0.296,10.128c-0.188,3.372-0.446,6.738-0.784,10.096l-0.021-0.046L89.574,26.335z M89.574,26.335
		l-1.586-1.106l-0.021-0.016l0.001-0.03l0.232-5.054l0.144-5.053c0.085-3.369,0.102-6.738,0.048-10.106l-0.009-0.536l0.517,0.177
		c6.087,2.086,11.825,5.16,17.032,8.945c5.21,3.791,9.797,8.415,13.664,13.555l0.666,0.885l-1.09-0.189
		c-4.869-0.846-9.788-1.443-14.735-1.66C99.49,25.921,94.527,25.98,89.574,26.335z"/>
</g>
<path style="fill:#E3007E;" d="M37.005,8.117C55.05,8.254,72.99,14.118,88.019,25.186c0.528-6.843,0.778-13.595,0.752-20.218
	c-6.942-2.48-14.416-3.841-22.211-3.841C55.931,1.128,45.899,3.654,37.005,8.117z"/>
<g>
	<path style="fill:#A1C519;" d="M89.574,26.335c6.881,5.304,13.115,11.719,18.412,19.205c11.554,16.331,16.831,35.163,16.336,53.549
		c5.25-9.469,8.248-20.358,8.248-31.952c0-14.932-4.964-28.702-13.323-39.762C109.747,25.723,99.752,25.34,89.574,26.335z"/>
	<path style="fill:#1D1E1C;" d="M90.305,26.289c10.886,8.54,19.743,19.633,25.695,32.107c6.049,12.635,9.025,26.715,8.601,40.699
		l-0.524-0.143c3.071-5.511,5.355-11.466,6.724-17.631c1.378-6.162,1.85-12.526,1.425-18.83c-0.421-6.305-1.754-12.553-3.965-18.478
		c-2.198-5.931-5.28-11.53-9.077-16.593l0.049,0.031C109.703,25.771,99.949,25.436,90.305,26.289z M89.574,26.335
		c9.876-0.989,19.892-0.712,29.687,0.962l0.03,0.006l0.019,0.025c3.833,5.054,6.955,10.654,9.193,16.596
		c2.251,5.938,3.624,12.207,4.081,18.543c0.461,6.336,0.02,12.742-1.335,18.955c-1.346,6.215-3.615,12.229-6.683,17.803
		l-0.552,1.003l0.028-1.146c0.349-13.899-2.683-27.855-8.744-40.349c-6.048-12.498-15.016-23.564-26.033-32.004l-0.419-0.32
		L89.574,26.335z"/>
</g>
<path style="fill:none;stroke:#1D1E1C;stroke-miterlimit:10;" d="M89.574,26.335c-0.512-0.395-1.036-0.767-1.555-1.148
	c-0.034,0.439-0.065,0.879-0.102,1.32C88.47,26.444,89.022,26.388,89.574,26.335z"/>
<g>
	<path style="fill:#009FE3;" d="M61.214,32.687c8.891-3.156,17.859-5.188,26.703-6.181c0.036-0.441,0.067-0.881,0.102-1.32
		C72.99,14.118,55.05,8.254,37.005,8.117C15.393,18.961,0.551,41.309,0.551,67.136c0,4.528,0.458,8.948,1.326,13.22
		C13.998,59.623,34.745,42.085,61.214,32.687z"/>
	<path style="fill:#1D1E1C;" d="M61.198,32.64c4.309-1.551,8.708-2.855,13.166-3.916c4.452-1.088,8.97-1.92,13.523-2.488
		l-0.24,0.248l0.085-1.32l0.116,0.254c-3.694-2.643-7.581-5.008-11.611-7.087c-4.04-2.061-8.227-3.829-12.517-5.296
		c-8.593-2.886-17.62-4.56-26.717-4.697l0.101-0.023c-6.426,3.18-12.346,7.422-17.367,12.553
		c-5.05,5.105-9.194,11.082-12.287,17.541C1.24,51.332-0.504,66.269,2.387,80.253l-0.959-0.159
		c3.269-5.63,7.146-10.895,11.447-15.771c4.297-4.885,9.078-9.334,14.207-13.322c5.128-3.992,10.623-7.49,16.338-10.549
		C49.151,37.42,55.082,34.773,61.198,32.64z M61.231,32.734c-6.082,2.203-12.011,4.848-17.632,8.042
		c-5.635,3.167-10.978,6.833-15.998,10.878c-5.018,4.051-9.694,8.517-13.959,13.344C9.383,69.832,5.597,75.074,2.327,80.619
		l-0.692,1.173L1.368,80.46c-1.423-7.112-1.667-14.45-0.749-21.637C1.57,51.64,3.7,44.623,6.92,38.15
		c3.211-6.479,7.501-12.396,12.579-17.517c5.098-5.102,10.97-9.436,17.407-12.713l0.046-0.023h0.055
		c9.133-0.001,18.301,1.406,26.987,4.321c4.351,1.432,8.577,3.238,12.622,5.382c4.057,2.125,7.928,4.595,11.573,7.355l0.13,0.098
		l-0.014,0.156l-0.118,1.32l-0.02,0.226l-0.221,0.023c-4.545,0.454-9.066,1.182-13.534,2.162
		C69.953,29.948,65.551,31.223,61.231,32.734z"/>
</g>
<path style="fill:#E3007E;" d="M107.986,45.54c-5.297-7.486-11.531-13.901-18.412-19.205c-0.552,0.054-1.104,0.109-1.656,0.172
	c-0.119,1.435-0.246,2.874-0.39,4.317c-4.016,40.352-17.187,75.919-35.217,100.763c4.591,1.011,9.354,1.56,14.249,1.56
	c24.863,0,46.506-13.751,57.762-34.058C124.817,80.703,119.539,61.871,107.986,45.54z"/>
<g>
	<path style="fill:#FFE707;" d="M87.917,26.506c-8.844,0.992-17.812,3.024-26.703,6.181c-26.47,9.397-47.062,26.906-59.183,47.639
		c5.185,25.504,24.922,45.679,50.279,51.261c18.03-24.844,31.201-60.411,35.217-100.763C87.671,29.38,87.798,27.942,87.917,26.506z"
		/>
	<path style="fill:#1D1E1C;" d="M87.86,26.566c-8.66,1.086-17.178,3.138-25.399,6.002c-8.238,2.887-16.161,6.66-23.559,11.268
		c-7.388,4.62-14.312,9.994-20.458,16.171C12.303,66.177,6.867,73.064,2.45,80.57l0.057-0.34
		c2.466,12.318,8.505,23.922,17.289,32.968c4.379,4.53,9.43,8.413,14.928,11.503c5.502,3.078,11.446,5.408,17.623,6.724l-0.17,0.064
		c5.478-7.575,10.132-15.723,14.149-24.149c4.008-8.436,7.432-17.142,10.317-26.021c2.92-8.87,5.233-17.934,7.104-27.087
		C85.593,45.093,86.964,35.856,87.86,26.566z M87.967,26.51c-0.64,9.337-1.812,18.646-3.563,27.849
		c-1.729,9.209-4.062,18.305-6.92,27.232c-2.894,8.916-6.373,17.65-10.553,26.043c-4.164,8.395-8.98,16.471-14.485,24.05
		l-0.064,0.089l-0.106-0.024c-6.184-1.404-12.197-3.607-17.754-6.683c-5.563-3.061-10.674-6.941-15.147-11.455
		c-4.475-4.514-8.3-9.678-11.318-15.285c-3.028-5.602-5.21-11.661-6.498-17.902l-0.036-0.181l0.093-0.161
		c4.422-7.602,9.856-14.613,16.092-20.812C23.939,53.07,30.89,47.584,38.417,43.05c7.516-4.551,15.537-8.248,23.851-11.043
		c8.308-2.817,16.932-4.684,25.643-5.551l0.06-0.006L87.967,26.51z"/>
</g>
<g>
	
		<ellipse transform="matrix(0.5818 -0.8133 0.8133 0.5818 14.1317 83.5858)" style="fill:#FFFFFF;" cx="88.349" cy="28.051" rx="8.745" ry="11.502"/>
	<path style="fill:#1D1E1C;" d="M93.497,20.859c0,0,0.202,0.15,0.578,0.429c0.377,0.27,0.912,0.724,1.567,1.318
		c0.659,0.595,1.397,1.387,2.162,2.395c0.742,1.017,1.491,2.295,1.883,3.886c0.407,1.571,0.381,3.505-0.468,5.314
		c-0.088,0.232-0.218,0.445-0.348,0.661c-0.149,0.227-0.213,0.408-0.437,0.676l-0.421,0.514c-0.156,0.178-0.385,0.381-0.58,0.567
		c-0.815,0.711-1.702,1.274-2.719,1.595c-1.999,0.687-4.184,0.696-6.224,0.211c-2.068-0.462-3.92-1.517-5.565-2.829
		c-0.74-0.635-1.542-1.356-2.175-2.155c-0.674-0.765-1.26-1.6-1.765-2.468c-1.01-1.734-1.705-3.651-1.812-5.652
		c-0.062-0.999,0.104-2.01,0.423-2.954c0.303-0.952,0.9-1.813,1.511-2.472c1.418-1.466,3.18-2.104,4.799-2.257
		c1.621-0.17,3.074,0.121,4.273,0.499c1.2,0.395,2.187,0.838,2.963,1.266c0.774,0.427,1.371,0.777,1.756,1.049
		C93.288,20.716,93.497,20.859,93.497,20.859z M93.377,21.019c0,0-0.208-0.132-0.6-0.382c-0.386-0.256-0.981-0.599-1.785-0.917
		c-0.201-0.079-0.412-0.162-0.633-0.249c-0.229-0.063-0.47-0.129-0.721-0.198c-0.496-0.144-1.051-0.233-1.637-0.297
		c-1.173-0.129-2.505-0.078-3.845,0.231c-0.337,0.069-0.671,0.169-1.001,0.289c-0.343,0.087-0.656,0.255-0.987,0.392
		c-0.609,0.328-1.307,0.717-1.773,1.196c-0.585,0.557-1.072,1.135-1.431,1.865c-0.358,0.715-0.652,1.525-0.717,2.403
		c-0.208,1.749,0.273,3.673,1.262,5.312c0.23,0.42,0.533,0.801,0.81,1.194c0.322,0.362,0.617,0.746,0.975,1.075
		c0.69,0.689,1.454,1.225,2.3,1.797c1.624,0.964,3.454,1.666,5.25,1.962c1.798,0.317,3.627,0.199,5.146-0.42
		c0.759-0.287,1.446-0.748,1.983-1.213c0.127-0.127,0.248-0.209,0.386-0.365l0.421-0.514c0.073-0.059,0.191-0.284,0.286-0.416
		c0.102-0.152,0.207-0.302,0.275-0.472c0.671-1.298,0.792-2.762,0.685-4.123c-0.111-1.367-0.488-2.647-0.992-3.712
		c-0.249-0.534-0.511-1.031-0.806-1.453c-0.146-0.215-0.286-0.421-0.419-0.618c-0.153-0.182-0.3-0.355-0.439-0.519
		c-0.559-0.659-1.064-1.109-1.437-1.398C93.57,21.175,93.377,21.019,93.377,21.019z"/>
</g>
<g>
	<path style="fill:#1D1E1C;" d="M129.17,45.096c0,0,0.128,0.387,0.376,1.133c0.233,0.752,0.655,1.84,1.034,3.322
		c0.844,2.932,1.886,7.309,2.355,12.998c0.439,5.67,0.399,12.696-1.395,20.495c-1.763,7.764-5.121,16.36-10.941,24.395
		c-2.917,3.996-6.401,7.846-10.442,11.353c-4.032,3.521-8.723,6.546-13.809,9.091c-1.267,0.646-2.594,1.191-3.908,1.785
		c-1.357,0.505-2.667,1.091-4.089,1.535c-0.681,0.223-1.363,0.446-2.047,0.671c-0.692,0.217-1.427,0.397-2.142,0.598
		c-1.439,0.424-2.894,0.702-4.354,1.026c-2.937,0.55-5.933,1-8.982,1.15c-1.521,0.134-3.056,0.104-4.595,0.129
		c-1.538-0.067-3.087-0.061-4.631-0.23c-12.373-0.976-24.882-5.563-35.24-13.448c-5.168-3.943-9.797-8.663-13.65-13.978
		c-1.928-2.657-3.603-5.492-5.133-8.396c-1.505-2.93-2.749-5.949-3.857-9.072c-1.007-3.063-1.894-6.277-2.489-9.486
		c-0.566-3.223-0.971-6.472-1.078-9.729c-0.279-6.512,0.411-13.027,1.995-19.261c3.085-12.507,9.789-23.804,18.587-32.392
		c8.808-8.611,19.744-14.401,30.782-17.004c5.524-1.28,11.059-1.906,16.399-1.757c5.34,0.131,10.476,0.89,15.254,2.162
		c9.576,2.558,17.612,7.084,23.878,11.993c6.312,4.914,10.776,10.338,14.015,15.01c3.226,4.707,5.186,8.76,6.382,11.56
		c0.642,1.385,1.003,2.5,1.299,3.231C129.025,44.714,129.17,45.096,129.17,45.096z M128.934,45.176c0,0-0.146-0.376-0.43-1.108
		c-0.298-0.726-0.665-1.835-1.312-3.21c-1.205-2.781-3.167-6.822-6.488-11.42c-1.607-2.333-3.645-4.73-6.003-7.186
		c-2.358-2.459-5.136-4.898-8.306-7.213c-6.325-4.636-14.368-8.685-23.712-10.933c-4.669-1.102-9.643-1.778-14.806-1.865
		C62.714,2.15,57.37,2.71,52.015,3.913c-1.345,0.282-2.648,0.673-3.992,1.02c-0.674,0.215-1.35,0.43-2.027,0.647l-1.019,0.325
		l-0.966,0.359C43.349,6.508,42.686,6.753,42.02,7c-0.663,0.253-1.309,0.551-1.968,0.826c-1.327,0.532-2.601,1.196-3.904,1.823
		c-2.556,1.343-5.102,2.797-7.509,4.513c-1.236,0.813-2.385,1.755-3.578,2.653l-1.717,1.444c-0.581,0.476-1.141,0.977-1.683,1.5
		C12.753,27.881,5.99,39.021,2.898,51.363c-1.514,6.175-2.142,12.611-1.813,19.028c0.171,3.209,0.647,6.398,1.273,9.551
		c0.664,3.161,1.573,6.2,2.663,9.284c4.45,12.039,12.516,22.683,22.66,30.108c10.114,7.495,22.21,11.816,34.118,12.63
		c1.486,0.15,2.976,0.126,4.453,0.179c1.478-0.044,2.952-0.021,4.413-0.148c2.928-0.148,5.805-0.585,8.625-1.115
		c1.399-0.313,2.81-0.584,4.152-0.983c0.68-0.192,1.351-0.353,2.033-0.567c0.685-0.223,1.367-0.446,2.048-0.668
		c1.317-0.396,2.618-0.966,3.916-1.435c1.266-0.562,2.548-1.073,3.771-1.687c9.867-4.773,17.907-11.729,23.722-19.344
		c5.826-7.633,9.531-15.834,11.514-23.42c0.999-3.795,1.616-7.438,1.895-10.832c0.28-3.393,0.35-6.537,0.127-9.36
		c-0.323-5.66-1.345-10.036-2.16-12.951c-0.363-1.473-0.779-2.57-1.005-3.322C129.058,45.561,128.934,45.176,128.934,45.176z"/>
</g>
</svg>
