<?xml version="1.0" encoding="iso-8859-1"?>
<!-- Generator: Adobe Illustrator 19.2.1, SVG Export Plug-In . SVG Version: 6.00 Build 0)  -->
<svg version="1.1" id="Layer_1" xmlns="http://www.w3.org/2000/svg" xmlns:xlink="http://www.w3.org/1999/xlink" x="0px" y="0px"
	 viewBox="0 0 160.859 235.074" style="enable-background:new 0 0 160.859 235.074;" xml:space="preserve">
<g>
	<path style="fill:#FF54AC;" d="M15.019,187.861c0.56,19.02-4.43,47.188,14.242,45.652l113.637-20.783
		c13.347-1.097,20.5-17.5,15.293-38.651l-9.779-62.401c-1.625-19.766-13.764-34.897-27.11-33.8l-85.915,7.065
		c-13.347,1.098-16.452,13.44-17.54,39.038L15.019,187.861z"/>
	<path d="M15.118,187.865c0.275,8.979-0.484,17.966,0.114,26.908c0.16,2.231,0.436,4.455,0.896,6.634
		c0.465,2.173,1.124,4.318,2.194,6.233c0.529,0.959,1.178,1.844,1.938,2.608c0.757,0.771,1.653,1.385,2.617,1.85
		c1.95,0.904,4.174,1.111,6.34,0.896l-0.051,0.007l28.357-5.483l28.377-5.374l56.807-10.455l0.061-0.009l0.043-0.005
		c0.914-0.101,1.826-0.229,2.706-0.482c0.89-0.217,1.738-0.567,2.568-0.947c0.816-0.408,1.611-0.87,2.343-1.426
		c0.749-0.532,1.421-1.17,2.067-1.829c0.324-0.329,0.612-0.695,0.922-1.041c0.275-0.374,0.572-0.732,0.834-1.119
		c0.524-0.77,1.019-1.568,1.439-2.409c0.219-0.416,0.426-0.838,0.608-1.273c0.199-0.428,0.374-0.866,0.537-1.311
		c0.341-0.882,0.628-1.788,0.871-2.707c0.251-0.916,0.46-1.848,0.62-2.789c0.178-0.937,0.298-1.888,0.393-2.84
		c0.103-0.952,0.151-1.911,0.189-2.87c0.027-0.96,0.027-1.921-0.004-2.883c-0.041-0.961-0.081-1.924-0.18-2.884
		c-0.074-0.961-0.209-1.917-0.328-2.874c-0.282-1.911-0.658-3.809-1.102-5.691l-0.004-0.016l-0.012-0.062l-9.352-62.468
		l-0.001-0.007l-0.004-0.029c-0.38-5.041-1.471-10.041-3.333-14.748c-0.936-2.351-2.084-4.616-3.443-6.747
		c-1.35-2.137-2.927-4.13-4.734-5.889c-1.804-1.756-3.85-3.284-6.113-4.376c-1.124-0.561-2.308-0.997-3.523-1.304
		c-1.211-0.322-2.463-0.491-3.715-0.506c-1.243-0.034-2.508,0.117-3.784,0.221l-3.812,0.328l-7.626,0.654
		c-10.17,0.848-20.33,1.818-30.494,2.737l-15.246,1.39L46.852,84.84l-7.626,0.648c-2.533,0.251-5.117,0.28-7.384,1.002
		c-2.314,0.675-4.356,2.023-5.906,3.85c-1.585,1.805-2.688,4.043-3.539,6.368c-1.658,4.697-2.398,9.75-2.942,14.783
		c-0.521,5.05-0.839,10.127-1.11,15.226l-1.715,30.57c-0.304,5.094-0.512,10.192-0.771,15.288L15.118,187.865z M14.919,187.856
		l0.613-15.295c0.192-5.1,0.436-10.196,0.583-15.298l0.992-30.602c0.169-5.096,0.298-10.22,0.802-15.325
		c0.5-5.1,1.182-10.238,2.871-15.203c0.873-2.462,2.025-4.902,3.795-6.967c1.75-2.065,4.16-3.622,6.756-4.359
		c2.633-0.802,5.223-0.782,7.754-1.029l7.63-0.605l15.265-1.148l15.268-1.119c10.178-0.754,20.359-1.457,30.531-2.282l7.631-0.6
		l3.815-0.3c1.265-0.093,2.544-0.238,3.853-0.196c1.3,0.021,2.592,0.222,3.848,0.54c1.26,0.311,2.485,0.756,3.647,1.327
		c2.341,1.113,4.448,2.672,6.305,4.46c1.86,1.79,3.48,3.816,4.867,5.985c1.397,2.164,2.575,4.465,3.544,6.848
		c1.963,4.757,3.147,9.824,3.61,14.95l-0.005-0.035l10.207,62.334l-0.016-0.077c0.471,1.934,0.87,3.887,1.174,5.858
		c0.131,0.989,0.275,1.977,0.358,2.973c0.108,0.992,0.157,1.992,0.205,2.991c0.04,1,0.046,2.001,0.024,3.004
		c-0.033,1.002-0.078,2.005-0.179,3.005c-0.093,1-0.214,2.001-0.395,2.993c-0.163,0.994-0.378,1.982-0.639,2.96
		c-0.253,0.98-0.553,1.95-0.913,2.901c-0.172,0.479-0.357,0.952-0.57,1.416c-0.194,0.472-0.415,0.932-0.65,1.387
		c-0.453,0.916-0.987,1.796-1.562,2.649c-0.285,0.429-0.611,0.831-0.917,1.247c-0.34,0.39-0.661,0.797-1.021,1.17
		c-0.72,0.746-1.476,1.468-2.323,2.081c-0.828,0.637-1.732,1.174-2.668,1.646c-0.948,0.442-1.921,0.853-2.939,1.103
		c-1.01,0.286-2.049,0.433-3.085,0.541l0.104-0.014l-56.83,10.328l-28.442,5.018l-28.462,4.908l-0.01,0.002l-0.041,0.005
		c-2.289,0.167-4.692-0.094-6.812-1.138c-1.045-0.532-2.011-1.23-2.81-2.08c-0.804-0.845-1.471-1.805-2.004-2.822
		c-1.077-2.037-1.696-4.251-2.12-6.47c-0.423-2.225-0.63-4.474-0.769-6.72c-0.52-8.998,0.323-17.969,0.129-26.939
		C14.919,187.861,14.919,187.859,14.919,187.856z"/>
</g>
<path style="fill:#E02DA0;" d="M151.144,135.708c1.887-0.081-16.814,14.076-43.75,21.601c-1.047,0.292-5.39,3.494-5.162,5.089
	c1,7-6.014,9.447-9.667,9.333c-10.666-0.333-12.332-9.334-13.666-9.667c-2.655-0.663-5.371-0.158-8.164-0.29
	c-44.067-2.079-47.836-7.71-47.836-7.71l-2.668-27.333l116.827-12.553l11.791,1.037L151.144,135.708z"/>
<path style="fill:#E02DA0;" d="M9.421,99.848c1.61-17.183,7.477-47.617,16.162-62.124C38.344,16.41,54.187,2.418,72.024,0.951
	c17.839-1.467,35.433,8.985,49.54,29.432c8.498,12.313,17.173,35.616,21.568,52.304l-9.121-7.62
	C122.921,34.108,98.458,5.801,72.599,7.927c-25.861,2.127-45.369,34.05-49.617,76.272c0,0-2.715,31.863-2.417,37.531
	c1.049,19.935,3.137,53.565,8.333,75c4,16.5,3.5,22,2.667,32c-1.217,14.605-30.024-4.222-30.667-14.5
	C-0.335,194.465,9.421,99.848,9.421,99.848z"/>
<g>
	<path style="fill:#1D1D1B;" d="M9.321,99.838c0.468-5.049,1.154-10.076,1.969-15.08c0.821-5.003,1.786-9.983,2.896-14.932
		c1.116-4.948,2.399-9.857,3.864-14.718c1.492-4.85,3.188-9.654,5.416-14.242c1.107-2.309,2.443-4.482,3.785-6.633
		c1.352-2.155,2.76-4.272,4.238-6.344c2.961-4.137,6.201-8.09,9.795-11.719c3.593-3.624,7.553-6.923,11.933-9.614
		c4.367-2.694,9.192-4.737,14.268-5.756c5.069-1.033,10.332-1.059,15.419-0.124c5.091,0.92,9.987,2.77,14.485,5.277
		c4.495,2.524,8.605,5.669,12.343,9.175c3.745,3.505,7.098,7.398,10.158,11.487c1.535,2.034,2.98,4.163,4.312,6.331
		c1.337,2.21,2.581,4.433,3.712,6.72c2.3,4.552,4.341,9.217,6.23,13.937c3.757,9.448,6.97,19.102,9.542,28.937
		c0.082,0.306-0.1,0.62-0.405,0.702c-0.186,0.05-0.38-0.002-0.518-0.115l-9.093-7.653c-0.086-0.071-0.145-0.169-0.172-0.269
		c-2.652-10-6.197-19.797-10.957-28.997c-4.749-9.178-10.638-17.873-18.155-24.997c-3.771-3.528-7.966-6.63-12.575-8.945
		C87.214,9.952,82.174,8.46,77.034,8.22c-5.131-0.259-10.313,0.704-15.008,2.788c-4.711,2.062-8.941,5.123-12.617,8.714
		c-3.685,3.596-6.839,7.716-9.559,12.092c-2.726,4.377-5.016,9.023-6.97,13.798c-3.894,9.567-6.441,19.655-7.998,29.864
		c-0.388,2.554-0.713,5.117-0.977,7.688c-0.255,2.547-0.428,5.161-0.636,7.74c-0.398,5.174-0.775,10.351-1.114,15.526l-0.468,7.761
		c-0.125,2.574-0.281,5.198-0.194,7.684c0.287,5.187,0.599,10.359,0.957,15.536c0.712,10.349,1.596,20.684,2.811,30.972
		c0.631,5.14,1.295,10.274,2.128,15.378c0.814,5.121,1.885,10.129,3.092,15.191c1.159,5.094,2.171,10.245,2.533,15.521
		c0.185,2.634,0.179,5.285,0.031,7.904c-0.068,1.311-0.164,2.615-0.27,3.913l-0.159,1.943l-0.041,0.486l-0.057,0.518
		c-0.026,0.295-0.112,0.724-0.191,1.076c-0.318,1.415-1.158,2.919-2.534,3.773c-1.361,0.862-2.921,1.046-4.325,0.976
		c-2.843-0.176-5.388-1.172-7.794-2.312c-4.776-2.374-9.062-5.573-12.696-9.46c-1.782-1.967-3.453-4.12-4.423-6.762
		c-0.228-0.665-0.4-1.365-0.459-2.102c-0.043-0.714-0.052-1.315-0.079-1.979c-0.018-1.307-0.033-2.639,0.005-3.936
		c0.105-5.216,0.405-10.405,0.741-15.593c0.692-10.371,1.569-20.722,2.499-31.066L6.2,130.835
		C7.2,120.498,8.235,110.166,9.321,99.838z M9.521,99.857c-1.022,10.334-1.993,20.673-2.928,31.014
		c-0.952,10.341-1.764,20.693-2.544,31.046c-0.775,10.354-1.477,20.714-1.989,31.076c-0.248,5.18-0.458,10.365-0.476,15.533
		c-0.012,1.299,0.018,2.565,0.045,3.853l0.095,1.911c0.051,0.558,0.192,1.127,0.392,1.687c0.845,2.248,2.423,4.293,4.138,6.131
		c3.491,3.66,7.701,6.73,12.247,8.923c2.271,1.057,4.692,1.932,7.058,2.042c1.168,0.047,2.312-0.126,3.159-0.678
		c0.851-0.536,1.398-1.454,1.656-2.554c0.235-1.04,0.271-2.449,0.392-3.711c0.102-1.29,0.193-2.576,0.258-3.858
		c0.14-2.564,0.14-5.114-0.042-7.661c-0.357-5.092-1.358-10.165-2.511-15.187c-2.532-10.113-4.098-20.473-5.298-30.799
		c-1.162-10.345-1.99-20.714-2.646-31.088c-0.33-5.186-0.612-10.38-0.871-15.563c-0.082-2.705,0.088-5.272,0.22-7.881
		c0.146-2.6,0.315-5.193,0.504-7.785c0.375-5.184,0.788-10.362,1.222-15.539c0.229-2.595,0.411-5.161,0.695-7.778
		c0.291-2.593,0.643-5.179,1.059-7.754c1.668-10.296,4.334-20.463,8.364-30.105c4.048-9.593,9.446-18.812,17.023-26.101
		c3.778-3.619,8.128-6.704,12.965-8.764c4.824-2.07,10.123-3.042,15.365-2.759c5.249,0.264,10.379,1.807,15.036,4.171
		c4.669,2.367,8.897,5.521,12.69,9.094c7.618,7.153,13.588,15.878,18.411,25.089c4.801,9.245,8.531,19.028,11.313,29.065
		l-0.172-0.269l9.149,7.587l-0.923,0.587c-2.661-9.748-5.955-19.334-9.783-28.682c-1.925-4.669-3.997-9.277-6.313-13.749
		c-0.569-1.124-1.169-2.229-1.79-3.322c-0.594-1.112-1.248-2.17-1.887-3.24c-1.327-2.146-2.738-4.208-4.264-6.213
		c-3.025-4.01-6.329-7.815-10-11.225c-3.662-3.412-7.675-6.451-12.029-8.878c-4.332-2.455-9.033-4.266-13.916-5.184
		c-4.873-0.933-9.93-0.943-14.8,0.014c-4.882,0.938-9.539,2.894-13.838,5.43c-4.303,2.55-8.238,5.72-11.833,9.233
		c-3.596,3.518-6.863,7.377-9.864,11.433c-1.496,2.031-2.929,4.114-4.302,6.232c-1.371,2.126-2.726,4.259-3.845,6.507
		c-2.271,4.5-4.034,9.258-5.593,14.067c-1.556,4.815-2.83,9.721-3.979,14.651C12.288,79.778,10.537,89.778,9.521,99.857z"/>
</g>
<g>
	<path style="fill:#FF54AC;" d="M20.898,137.23c5.833,18,35.732,22.107,71.586,18.92c33.32-2.963,58.256-25.351,57.283-37.183
		l-4.92-29.512c-0.974-11.833-11.334-18.008-23.869-17.004l-81.859,8.411c-13.607,1.146-16.5,4.05-17.721,14.367
		C20.076,106.404,20.898,137.23,20.898,137.23z"/>
	<path d="M20.997,137.211c1.024,2.972,2.783,5.645,5.029,7.8c2.246,2.17,4.916,3.855,7.733,5.187
		c5.651,2.675,11.835,4.068,18.027,4.935c12.439,1.649,25.085,1.33,37.602,0.282c1.573-0.14,3.122-0.263,4.689-0.434
		c1.535-0.172,3.086-0.393,4.622-0.647c3.072-0.521,6.119-1.205,9.116-2.062c5.997-1.705,11.805-4.075,17.276-7.05
		c5.476-2.956,10.653-6.521,15.128-10.814c2.223-2.152,4.275-4.49,5.919-7.066c0.814-1.288,1.529-2.636,2.035-4.038
		c0.508-1.396,0.811-2.858,0.713-4.262l0.009,0.072l-2.344-14.774l-2.294-14.784l-0.002-0.015l-0.004-0.034
		c-0.242-3.695-1.576-7.339-4.027-10.144c-2.427-2.821-5.818-4.756-9.439-5.739c-3.635-0.989-7.466-1.155-11.229-0.711
		c-3.799,0.357-7.588,0.805-11.382,1.203l-11.379,1.241l-11.369,1.321l-11.37,1.318c-3.79,0.432-7.578,0.899-11.373,1.288
		L51.306,80.5c-3.793,0.42-7.592,0.774-11.389,1.147c-1.929,0.18-3.781,0.317-5.641,0.613c-1.848,0.287-3.682,0.665-5.365,1.333
		c-1.686,0.657-3.178,1.662-4.195,3.094c-1.027,1.419-1.649,3.168-2.06,4.979c-0.42,1.824-0.666,3.672-0.845,5.581
		c-0.172,1.885-0.286,3.769-0.38,5.674c-0.182,3.802-0.253,7.612-0.333,11.424C20.948,121.963,20.971,129.587,20.997,137.211z
		 M20.798,137.233c-0.336-7.626-0.509-15.257-0.586-22.893c-0.033-3.818,0.004-7.639,0.109-11.462
		c0.134-3.828,0.279-7.665,1.004-11.499c0.386-1.903,0.955-3.876,2.162-5.571c1.182-1.716,2.978-2.939,4.828-3.681
		c3.733-1.474,7.658-1.806,11.426-2.194c3.793-0.406,7.585-0.832,11.383-1.191l11.391-1.123c3.795-0.391,7.598-0.704,11.397-1.053
		l11.4-1.021l11.401-1.018l11.393-1.1c3.795-0.382,7.597-0.714,11.389-1.137c3.801-0.479,7.734-0.35,11.48,0.639
		c3.723,1.004,7.307,2.891,9.94,5.821c2.661,2.903,4.165,6.76,4.524,10.656l-0.006-0.049l2.626,14.728l2.576,14.736l0.008,0.062
		l0.001,0.011c0.15,1.754-0.201,3.454-0.755,5.018c-0.553,1.572-1.315,3.034-2.172,4.419c-1.73,2.764-3.853,5.217-6.138,7.472
		c-4.6,4.492-9.882,8.194-15.475,11.28c-5.621,3.044-11.582,5.442-17.729,7.169c-3.073,0.868-6.195,1.558-9.345,2.081
		c-3.151,0.527-6.35,0.84-9.491,1.055c-6.316,0.443-12.653,0.677-18.993,0.588c-6.336-0.097-12.688-0.486-18.962-1.508
		c-3.135-0.512-6.252-1.169-9.311-2.049c-3.055-0.886-6.066-1.976-8.906-3.438c-2.83-1.463-5.506-3.288-7.725-5.592
		c-2.224-2.289-3.921-5.095-4.843-8.127C20.8,137.255,20.798,137.242,20.798,137.233z"/>
</g>
<path style="fill:#E02DA0;" d="M79.231,156.23c0,0,0.668-6.167,5.001-9.167s8.506-2.44,8.506-2.44l-4.839,7.44
	c0,0-0.001,2.668-2.334,3.334S79.231,156.23,79.231,156.23z"/>
<g>
	
		<ellipse transform="matrix(0.9966 -0.0819 0.0819 0.9966 -12.5685 8.2133)" style="fill:#E6E18B;" cx="93.773" cy="157.22" rx="12" ry="12.64"/>
	<path d="M81.913,158.194c0.143,1.601,0.6,3.164,1.389,4.543c0.775,1.385,1.85,2.566,3.055,3.515
		c2.44,1.869,5.385,2.868,8.385,2.736c2.982-0.069,6.067-1.424,8.063-3.883c2.021-2.429,2.826-5.774,2.384-8.811
		c-0.445-3.1-1.976-5.893-4.209-7.876c-2.243-1.98-5.236-2.966-8.154-2.733c-2.938,0.188-5.712,1.638-7.82,3.855
		C82.895,151.759,81.63,154.982,81.913,158.194z M81.714,158.214c-0.264-3.218,0.363-6.624,2.255-9.484
		c0.937-1.42,2.195-2.678,3.705-3.562c1.496-0.908,3.229-1.429,4.976-1.606c1.753-0.146,3.553,0.071,5.198,0.696
		c1.646,0.618,3.147,1.578,4.402,2.776c2.545,2.374,3.963,5.812,4.027,9.146c0.105,3.393-0.981,6.677-2.963,9.327
		c-0.992,1.32-2.207,2.504-3.639,3.412c-1.431,0.901-3.083,1.509-4.799,1.729c-3.452,0.446-7.085-0.944-9.37-3.47
		C83.162,164.683,82.001,161.42,81.714,158.214z"/>
</g>
<path style="opacity:0.66;fill:#FFFFFF;" d="M101.691,158.954c-0.462-5.616-5.354-9.795-10.928-9.337
	c-2.125,0.175-4.042,1.001-5.576,2.267c1.586-2.88,4.523-4.934,8.028-5.224c5.573-0.459,10.465,3.722,10.927,9.336
	c0.285,3.474-1.193,6.678-3.682,8.729C101.397,163.024,101.862,161.038,101.691,158.954z"/>
<path style="fill:#FF36AE;" d="M22.565,95.063c0,0-1.167-8.833,13.333-11.333c7.447-1.284,27.468-1.414,47.666-3.704
	c19.129-2.169,37.083-8.25,46.001-6.629c4.458,0.811,11.5,5.833,13,9.333s-66.667,8-88.167,15s-31.499,38.667-31.499,38.667
	L22.565,95.063z"/>
</svg>
