<?xml version="1.0" encoding="iso-8859-1"?>
<!-- Generator: Adobe Illustrator 19.2.1, SVG Export Plug-In . SVG Version: 6.00 Build 0)  -->
<svg version="1.1" id="Layer_2" xmlns="http://www.w3.org/2000/svg" xmlns:xlink="http://www.w3.org/1999/xlink" x="0px" y="0px"
	 viewBox="0 0 372.569 340.545" style="enable-background:new 0 0 372.569 340.545;" xml:space="preserve">
<path style="fill:#F94351;stroke:#000000;stroke-width:3;stroke-miterlimit:10;" d="M33.77,304.87
	c18.922,1.648,24.578-6.842,25.959-7.666c0.084-0.236,0.174-0.511,0.25-0.746c4.744-14.547,13.627-18.53,38.008-17.03l-1.938,22.729
	c-14.831-0.913-19.437,0.861-20.617,1.531c-0.076,0.238-0.166,0.511-0.239,0.734c-5.03,15.416-14.774,19.142-43.442,16.648
	c-0.731-0.065-1.475-0.141-2.235-0.224l0,0c-10.848-1.22-24.328-4.973-27.428-20.075c-4.679-22.794,19.159-50.625,52.149-89.141
	c11.349-13.251,23.088-26.944,33.975-40.896c35.319-45.243,42.188-56.39,57.242-80.815c6.412-10.407,14.391-23.355,26.595-42.232
	l12.218,14.325c-12.061,18.649-19.964,31.473-26.311,41.774c-15.533,25.21-22.625,36.719-58.744,82.982
	c-11.205,14.35-23.103,28.239-34.612,41.676c-13.388,15.625-26.03,30.39-34.866,42.83c-11.775,16.576-24.02,18.453-23.301,28.602
	C6.432,299.878,20.391,303.696,33.77,304.87z"/>
<path style="fill:#2AC8FF;stroke:#000000;stroke-width:3;stroke-miterlimit:10;" d="M371.069,290.477
	c0,15.473-12.544,28.009-28.016,28.009l0,0c-15.47,0-69.394,7.551-69.394-7.921l41.382-89.102
	c5.651-12.773,12.542-28.016,28.012-28.016l0,0c15.472,0,28.016,12.543,28.016,28.016V290.477z"/>
<path style="fill:#2AC8FF;stroke:#000000;stroke-width:3;stroke-miterlimit:10;" d="M87.996,290.477
	c0,15.473,12.542,28.009,28.015,28.009l0,0c15.47,0,69.395,7.551,69.395-7.921l-41.382-89.102
	c-5.652-12.773-12.543-28.016-28.013-28.016l0,0c-15.473,0-28.015,12.543-28.015,28.016V290.477z"/>
<path style="fill:#F94351;stroke:#000000;stroke-width:3;stroke-miterlimit:10;" d="M232.027,1.5
	c-24.689,0-43.312,10.835-43.312,25.202c0,14.371,18.623,25.208,43.312,25.208c24.689,0,43.309-10.837,43.309-25.208
	C275.336,12.335,256.717,1.5,232.027,1.5z M232.027,40.276c-17.842,0-31.68-7.292-31.68-13.574c0-6.274,13.838-13.57,31.68-13.57
	c17.837,0,31.676,7.297,31.676,13.57C263.703,32.984,249.864,40.276,232.027,40.276z"/>
<path style="fill:#31CAFF;stroke:#000000;stroke-width:3;stroke-miterlimit:10;" d="M358.112,238.275
	c0,93.13-57.573,100.769-128.594,100.769c-71.017,0-128.594-7.64-128.594-100.769c0-93.129,18.323-209.345,128.594-209.345
	C341.826,28.931,358.112,145.146,358.112,238.275z"/>
<path style="fill:#DA2128;" d="M344.638,244.652c0,78.461-55.288,84.895-115.119,84.895c-59.829,0-115.119-6.434-115.119-84.895
	c0-78.461,22.22-173.65,115.119-173.65C324.135,71.002,344.638,166.191,344.638,244.652z"/>
<rect x="106.582" y="236.355" style="fill:#FFCD51;" width="15.701" height="4.525"/>
<path style="fill:#FFCB05;" d="M349.742,239.463c0-4.212-2.06-6.274-6.277-6.274c-4.215,0-6.273,2.062-6.273,6.274l-1.359,17.981
	c0,4.219,3.418,7.634,7.633,7.634c4.217,0,7.635-3.415,7.635-7.634L349.742,239.463z M343.605,263.61h-0.027
	c-2.404,0-4.356-1.954-4.356-4.36c0-2.399,1.951-4.347,4.356-4.347h0.027c2.406,0,4.354,1.947,4.354,4.347
	C347.96,261.656,346.012,263.61,343.605,263.61z"/>
<path style="fill:#FFCB05;" d="M138.547,221.686c0-3.104-1.516-4.622-4.611-4.622c-3.102,0-4.615,1.518-4.615,4.622l-0.996,13.213
	c0,3.096,2.51,5.611,5.611,5.611c3.096,0,5.608-2.516,5.608-5.611L138.547,221.686z M134.037,239.432h-0.018
	c-1.77,0-3.203-1.436-3.203-3.204c0-1.768,1.434-3.198,3.203-3.198h0.018c1.768,0,3.198,1.43,3.198,3.198
	C137.235,237.995,135.805,239.432,134.037,239.432z"/>
<g>
	<rect x="111.368" y="222.682" style="fill:#FFEE2A;" width="7.237" height="16.283"/>
	
		<rect x="107.479" y="205.073" transform="matrix(0.0573 -0.9984 0.9984 0.0573 -99.3594 312.1541)" style="fill:#FFEE2A;" width="16.282" height="7.239"/>
	
		<rect x="109.548" y="182.06" transform="matrix(0.1234 -0.9924 0.9924 0.1234 -81.0934 279.5587)" style="fill:#FFEE2A;" width="16.284" height="7.24"/>
	
		<rect x="113.316" y="158.86" transform="matrix(0.2001 -0.9798 0.9798 0.2001 -62.0374 248.9743)" style="fill:#FFEE2A;" width="16.286" height="7.24"/>
	
		<rect x="119.037" y="136.16" transform="matrix(0.2924 -0.9563 0.9563 0.2924 -43.6778 220.5287)" style="fill:#FFEE2A;" width="16.288" height="7.239"/>
	
		<rect x="126.973" y="114.649" transform="matrix(0.4037 -0.9149 0.9149 0.4037 -27.6315 194.1431)" style="fill:#FFEE2A;" width="16.283" height="7.239"/>
	
		<rect x="137.376" y="95.015" transform="matrix(0.5363 -0.844 0.844 0.5363 -15.7764 168.5493)" style="fill:#FFEE2A;" width="16.286" height="7.238"/>
	
		<rect x="150.508" y="77.949" transform="matrix(0.6843 -0.7292 0.7292 0.6843 -9.3923 141.4421)" style="fill:#FFEE2A;" width="16.286" height="7.238"/>
	
		<rect x="166.626" y="64.139" transform="matrix(0.8286 -0.5598 0.5598 0.8286 -7.9812 109.4466)" style="fill:#FFEE2A;" width="16.288" height="7.239"/>
	
		<rect x="185.99" y="54.274" transform="matrix(0.9397 -0.342 0.342 0.9397 -8.0936 69.886)" style="fill:#FFEE2A;" width="16.285" height="7.24"/>
	
		<rect x="208.858" y="49.045" transform="matrix(0.9941 -0.108 0.108 0.9941 -4.4189 23.7472)" style="fill:#FFEE2A;" width="16.286" height="7.239"/>
	
		<rect x="239.189" y="44.582" transform="matrix(0.1111 -0.9938 0.9938 0.1111 163.4343 288.1729)" style="fill:#FFEE2A;" width="7.238" height="16.286"/>
	
		<rect x="262.246" y="49.904" transform="matrix(0.3429 -0.9394 0.9394 0.3429 120.1747 287.8931)" style="fill:#FFEE2A;" width="7.241" height="16.289"/>
	
		<rect x="281.672" y="59.825" transform="matrix(0.5607 -0.828 0.828 0.5607 69.0413 266.078)" style="fill:#FFEE2A;" width="7.239" height="16.289"/>
	
		<rect x="297.756" y="73.664" transform="matrix(0.7319 -0.6814 0.6814 0.7319 25.0577 227.3006)" style="fill:#FFEE2A;" width="7.241" height="16.288"/>
	
		<rect x="310.776" y="90.735" transform="matrix(0.8471 -0.5315 0.5315 0.8471 -4.4724 182.2156)" style="fill:#FFEE2A;" width="7.239" height="16.288"/>
	
		<rect x="321.016" y="110.354" transform="matrix(0.9177 -0.3973 0.3973 0.9177 -20.3566 138.746)" style="fill:#FFEE2A;" width="7.243" height="16.285"/>
	
		<rect x="328.762" y="131.831" transform="matrix(0.9585 -0.285 0.285 0.9585 -26.1059 100.5152)" style="fill:#FFEE2A;" width="7.24" height="16.286"/>
	
		<rect x="334.295" y="154.49" transform="matrix(0.9811 -0.1933 0.1933 0.9811 -25.0649 68.3908)" style="fill:#FFEE2A;" width="7.239" height="16.286"/>
	
		<rect x="337.895" y="177.641" transform="matrix(0.9931 -0.1173 0.1173 0.9931 -19.4279 41.3247)" style="fill:#FFEE2A;" width="7.239" height="16.287"/>
	
		<rect x="339.848" y="200.6" transform="matrix(0.9986 -0.0537 0.0537 0.9986 -10.7104 18.739)" style="fill:#FFEE2A;" width="7.238" height="16.281"/>
	<rect x="340.437" y="222.682" style="fill:#FFEE2A;" width="7.238" height="16.283"/>
	<rect x="133.936" y="217.027" style="fill:#FFEE2A;" width="11.582" height="5.654"/>
	<rect x="150.467" y="217.027" style="fill:#FFEE2A;" width="11.584" height="5.654"/>
	<rect x="167" y="217.027" style="fill:#FFEE2A;" width="11.585" height="5.654"/>
	<rect x="183.531" y="217.027" style="fill:#FFEE2A;" width="11.586" height="5.654"/>
	<rect x="200.063" y="217.027" style="fill:#FFEE2A;" width="11.586" height="5.654"/>
	<rect x="216.596" y="217.027" style="fill:#FFEE2A;" width="11.586" height="5.654"/>
	<rect x="233.132" y="217.027" style="fill:#FFEE2A;" width="11.585" height="5.654"/>
	<rect x="249.664" y="217.027" style="fill:#FFEE2A;" width="11.584" height="5.654"/>
	<rect x="266.196" y="217.027" style="fill:#FFEE2A;" width="11.584" height="5.654"/>
	<rect x="282.729" y="217.027" style="fill:#FFEE2A;" width="11.584" height="5.654"/>
	<rect x="299.264" y="217.027" style="fill:#FFEE2A;" width="11.584" height="5.654"/>
	<rect x="315.795" y="217.027" style="fill:#FFEE2A;" width="11.582" height="5.654"/>
	<rect x="324.64" y="214.862" style="fill:#FFEE2A;" width="3.444" height="10.521"/>
</g>
<g>
	<path style="fill:#31CAFF;" d="M216.486,94.858c-0.102,4.981-5.115,8.942-11.189,8.85c-6.076-0.089-10.914-4.206-10.807-9.186
		c0.103-4.979,5.113-8.945,11.193-8.853C211.757,85.762,216.596,89.877,216.486,94.858z"/>
	<path d="M216.586,94.866c0,0-0.017,0.246-0.047,0.707c-0.039,0.46-0.177,1.15-0.429,1.991c-0.306,0.824-0.749,1.819-1.511,2.829
		c-0.755,1.005-1.819,2.025-3.206,2.789c-1.374,0.782-3.066,1.268-4.868,1.366c-0.463-0.002-0.881,0.004-1.394-0.022
		c-0.443-0.06-0.846-0.075-1.336-0.184c-0.963-0.173-1.858-0.467-2.754-0.839c-0.885-0.389-1.742-0.862-2.54-1.436
		c-0.409-0.27-0.776-0.604-1.165-0.909c-0.359-0.343-0.72-0.685-1.044-1.066c-1.317-1.507-2.256-3.42-2.349-5.617
		c-0.041-0.933,0.139-2.135,0.498-3.114c0.357-1.02,0.955-1.933,1.646-2.731c1.395-1.61,3.246-2.686,5.126-3.344
		c1.88-0.632,3.908-0.804,5.634-0.595c1.895,0.219,3.512,0.78,4.879,1.626c1.355,0.833,2.384,1.894,3.107,2.924
		c0.726,1.04,1.133,2.055,1.402,2.894c0.216,0.858,0.318,1.539,0.336,2.008c0.009,0.469,0.014,0.718,0.014,0.718L216.586,94.866z
		 M216.386,94.856c0,0-0.014-0.243-0.042-0.697c-0.035-0.451-0.151-1.116-0.464-1.899c-0.329-0.774-0.888-1.65-1.727-2.438
		c-0.828-0.797-1.932-1.486-3.201-2.009c-1.254-0.513-2.746-0.921-4.222-1.04c-1.645-0.104-3.239,0.029-4.892,0.487
		c-1.618,0.472-3.222,1.311-4.453,2.571c-0.611,0.626-1.181,1.323-1.568,2.125c-0.41,0.824-0.67,1.569-0.781,2.608
		c-0.061,0.847,0.042,1.827,0.32,2.707c0.284,0.895,0.793,1.709,1.397,2.422c1.212,1.442,2.933,2.36,4.641,2.792
		c0.852,0.223,1.734,0.345,2.538,0.374c0.388,0.045,0.869,0.004,1.292,0.016c0.354-0.013,0.795-0.048,1.177-0.076
		c1.578-0.155,3.019-0.549,4.304-1.048c1.278-0.514,2.4-1.172,3.263-1.938c0.865-0.762,1.459-1.616,1.816-2.38
		c0.345-0.776,0.482-1.423,0.534-1.88c0.044-0.459,0.068-0.704,0.068-0.704L216.386,94.856z"/>
</g>
<path style="fill:#FFEE2A;" d="M213.976,96.093c-0.07,3.46-3.505,6.208-7.663,6.147c-4.156-0.063-7.462-2.917-7.392-6.377
	c0.073-3.453,3.505-6.207,7.659-6.146C210.738,89.78,214.053,92.641,213.976,96.093z"/>
<g>
	<path style="fill:#31CAFF;" d="M247.514,95.331c-0.104,4.98,4.734,9.092,10.812,9.188c6.072,0.09,11.086-3.874,11.192-8.853
		c0.104-4.979-4.733-9.097-10.808-9.189C252.635,86.385,247.625,90.349,247.514,95.331z"/>
	<path d="M247.613,95.327c0,0,0.015,0.246,0.04,0.707c0.033,0.459,0.145,1.11,0.456,1.899c0.327,0.777,0.889,1.654,1.728,2.444
		c0.834,0.795,1.934,1.488,3.195,2.039c1.27,0.535,2.698,0.971,4.271,1.166c0.383,0.031,0.818,0.092,1.177,0.104
		c0.425,0.003,0.901,0.054,1.287,0.019c0.806-0.001,1.691-0.115,2.55-0.306c1.721-0.39,3.465-1.254,4.729-2.653
		c0.629-0.692,1.17-1.485,1.489-2.369c0.314-0.868,0.459-1.844,0.436-2.691c-0.068-1.043-0.297-1.798-0.674-2.638
		c-0.356-0.814-0.896-1.533-1.485-2.178c-1.185-1.301-2.762-2.19-4.366-2.702c-1.637-0.503-3.228-0.685-4.874-0.616
		c-1.478,0.084-2.982,0.449-4.253,0.926c-1.285,0.486-2.411,1.142-3.268,1.909c-0.866,0.759-1.459,1.612-1.82,2.372
		c-0.345,0.77-0.489,1.43-0.544,1.879c-0.048,0.453-0.074,0.694-0.074,0.694V95.327z M247.414,95.329c0,0,0.016-0.249,0.045-0.717
		c0.038-0.468,0.169-1.143,0.421-1.992c0.305-0.826,0.75-1.823,1.511-2.837c0.759-1.004,1.819-2.029,3.198-2.822
		c1.389-0.805,3.019-1.32,4.918-1.492c1.731-0.171,3.755,0.059,5.618,0.743c1.862,0.706,3.687,1.842,5.025,3.502
		c0.666,0.823,1.228,1.761,1.546,2.795c0.321,0.993,0.45,2.203,0.37,3.134c-0.186,2.192-1.205,4.059-2.571,5.52
		c-1.363,1.47-3.072,2.522-4.851,3.265c-0.909,0.339-1.806,0.624-2.773,0.764c-0.495,0.097-0.902,0.104-1.346,0.149
		c-0.509,0.022-0.93-0.009-1.392-0.012c-1.798-0.146-3.479-0.679-4.831-1.502c-1.364-0.805-2.398-1.86-3.117-2.892
		c-0.727-1.036-1.133-2.049-1.406-2.884c-0.217-0.852-0.326-1.547-0.347-2.008c-0.012-0.462-0.018-0.708-0.018-0.708V95.329z"/>
</g>
<path style="fill:#FFEE2A;" d="M265.385,96.609c-0.074,3.454-3.504,6.208-7.66,6.145c-4.156-0.061-7.467-2.92-7.392-6.373
	c0.073-3.456,3.509-6.21,7.659-6.147C262.15,90.298,265.462,93.15,265.385,96.609z"/>
<g>
	<path style="fill:#31CAFF;" d="M198.471,140.634c-6.459-0.864-11.119-4.672-10.395-8.508c0.725-3.836,6.55-6.249,13.01-5.388
		c6.469,0.862,21.151,6.006,20.426,9.846C220.789,140.417,204.941,141.5,198.471,140.634z"/>
	<path d="M198.456,140.732c0,0-0.303-0.046-0.867-0.132c-0.561-0.089-1.393-0.266-2.435-0.531c-1.031-0.304-2.294-0.688-3.658-1.403
		c-1.331-0.723-2.894-1.752-3.839-3.652c-0.462-0.949-0.667-2.105-0.381-3.326c0.071-0.409,0.352-1.123,0.68-1.61
		c0.318-0.505,0.705-0.965,1.15-1.351c1.783-1.582,4.143-2.212,6.467-2.469c2.351-0.223,4.767-0.018,7.141,0.444
		c2.367,0.479,4.758,1.018,7.125,1.683c2.368,0.66,4.725,1.417,6.946,2.478c1.112,0.527,2.194,1.12,3.227,1.841
		c0.512,0.377,1.02,0.759,1.483,1.273c0.448,0.508,0.932,1.133,1.059,2.07c0.037,0.224,0.003,0.477-0.014,0.713
		c0.006-0.009-0.06,0.251-0.035,0.152l-0.008,0.025l-0.016,0.051l-0.029,0.103c-0.03,0.082-0.019,0.103-0.082,0.236
		c-0.105,0.223-0.252,0.511-0.376,0.652c-0.128,0.146-0.257,0.318-0.393,0.435c-0.544,0.518-1.107,0.818-1.659,1.094
		c-1.104,0.534-2.193,0.845-3.254,1.089c-2.117,0.484-4.122,0.722-5.978,0.79c-1.854,0.078-3.551,0.01-5.047-0.057
		c-1.497-0.079-2.794-0.184-3.862-0.258c-1.066-0.093-1.903-0.158-2.473-0.227C198.761,140.773,198.456,140.732,198.456,140.732z
		 M198.485,140.535c0,0,0.301,0.028,0.866,0.082c0.565,0.049,1.4,0.1,2.463,0.078c2.124-0.013,5.163-0.355,8.721-0.983
		c1.774-0.317,3.698-0.63,5.649-1.139c0.967-0.266,1.946-0.58,2.829-0.988c0.431-0.208,0.854-0.449,1.122-0.713
		c0.08-0.062,0.111-0.129,0.175-0.189c0.065-0.066,0.025-0.047,0.074-0.061c0.017,0.016,0.044-0.111,0.065-0.16l0.034-0.101
		l0.017-0.051l0.009-0.025c0.03-0.115-0.03,0.128-0.025,0.102c-0.013-0.048,0.02-0.081,0.008-0.139
		c-0.004-0.209-0.19-0.591-0.495-0.947c-0.296-0.366-0.711-0.713-1.131-1.048c-0.864-0.665-1.855-1.255-2.879-1.812
		c-2.064-1.093-4.254-2.117-6.498-3.018c-2.249-0.881-4.555-1.674-6.892-2.122c-2.322-0.477-4.693-0.491-6.855,0.021
		c-1.078,0.246-2.106,0.585-3.039,1.032c-0.92,0.467-1.752,1.016-2.402,1.656c-0.323,0.32-0.615,0.652-0.828,1.014
		c-0.137,0.18-0.177,0.34-0.262,0.498c-0.085,0.12-0.152,0.419-0.224,0.64c-0.186,0.696-0.124,1.52,0.134,2.24
		c0.524,1.483,1.688,2.696,2.832,3.541c1.15,0.868,2.319,1.43,3.307,1.793c0.994,0.367,1.803,0.544,2.364,0.647
		C198.187,140.482,198.485,140.535,198.485,140.535z"/>
</g>
<g>
	<path style="fill:#31CAFF;" d="M264.118,141.637c6.49-0.671,11.311-4.334,10.751-8.189c-0.555-3.856-6.277-6.44-12.766-5.776
		c-6.504,0.66-21.4,5.355-20.84,9.209C241.822,140.736,257.619,142.297,264.118,141.637z"/>
	<path d="M264.106,141.537c0,0,0.3-0.044,0.865-0.126c0.564-0.086,1.379-0.238,2.385-0.575c1-0.332,2.188-0.856,3.368-1.685
		c0.6-0.4,1.168-0.908,1.711-1.466c0.524-0.577,0.965-1.253,1.275-1.969c0.296-0.706,0.401-1.54,0.257-2.227
		c-0.065-0.212-0.112-0.54-0.193-0.663c-0.086-0.162-0.104-0.318-0.234-0.504c-0.198-0.367-0.472-0.711-0.78-1.044
		c-0.622-0.664-1.434-1.242-2.339-1.737c-0.916-0.479-1.935-0.849-3.006-1.127c-2.146-0.577-4.518-0.63-6.857-0.227
		c-2.352,0.377-4.683,1.097-6.962,1.906c-2.273,0.829-4.496,1.783-6.6,2.807c-1.043,0.523-2.056,1.078-2.947,1.712
		c-0.438,0.318-0.863,0.651-1.181,1.006c-0.325,0.346-0.544,0.726-0.565,0.946c-0.027,0.062,0.008,0.099-0.002,0.143l-0.002,0.017
		c0.022,0.112-0.032-0.145-0.023-0.106l0.008,0.025l0.029,0.102l0.061,0.204c0.044,0.033,0.043,0.01,0.062,0.051l0.158,0.191
		c0.251,0.27,0.663,0.526,1.08,0.751c0.865,0.438,1.834,0.785,2.792,1.082c1.933,0.572,3.848,0.944,5.613,1.316
		c3.539,0.738,6.568,1.175,8.692,1.253c1.062,0.056,1.898,0.03,2.466-0.001C263.806,141.557,264.106,141.537,264.106,141.537z
		 M264.13,141.736c0,0-0.307,0.029-0.877,0.085c-0.572,0.051-1.411,0.09-2.48,0.149c-1.07,0.041-2.372,0.105-3.871,0.139
		c-1.499,0.018-3.198,0.036-5.051-0.1c-1.854-0.126-3.852-0.427-5.955-0.98c-1.054-0.279-2.135-0.626-3.223-1.202
		c-0.543-0.302-1.099-0.624-1.623-1.174c-0.129-0.143-0.253-0.306-0.374-0.463c-0.126-0.199-0.256-0.477-0.337-0.695l-0.051-0.206
		l-0.026-0.104l-0.007-0.026c0.003,0.021-0.05-0.254-0.028-0.159l-0.005-0.091c-0.005-0.238-0.019-0.491,0.042-0.706
		c0.195-0.91,0.701-1.494,1.171-1.977c0.483-0.487,1.004-0.854,1.529-1.205c1.059-0.681,2.16-1.236,3.29-1.726
		c2.257-0.983,4.638-1.666,7.027-2.25c2.39-0.59,4.797-1.053,7.18-1.459c2.388-0.388,4.811-0.523,7.156-0.23
		c2.316,0.328,4.662,1.029,6.389,2.689c0.431,0.405,0.797,0.885,1.095,1.405c0.164,0.233,0.275,0.577,0.398,0.868
		c0.07,0.162,0.106,0.295,0.123,0.408l0.076,0.363c0.225,1.256-0.049,2.385-0.555,3.312c-1.036,1.846-2.628,2.813-3.986,3.49
		c-1.389,0.667-2.663,1.011-3.704,1.282c-1.05,0.233-1.888,0.384-2.452,0.456C264.434,141.699,264.13,141.736,264.13,141.736z"/>
</g>
<g>
	<path style="fill:#31CAFF;" d="M241.598,165.452c2.142,5.201,7.421,8.386,11.777,7.117c4.363-1.278,6.162-6.523,4.019-11.727
		c-2.145-5.209-10.75-16.468-15.112-15.191C237.926,146.922,239.454,160.246,241.598,165.452z"/>
	<path d="M241.689,165.412c0,0,0.12,0.254,0.349,0.732c0.232,0.474,0.61,1.141,1.218,1.911c0.612,0.759,1.476,1.593,2.604,2.308
		c0.558,0.364,1.191,0.678,1.864,0.959c0.688,0.244,1.416,0.465,2.182,0.566c1.529,0.219,3.178,0.059,4.643-0.806
		c1.451-0.825,2.645-2.407,3.081-4.37c0.488-1.949,0.217-4.179-0.694-6.162c-0.902-1.991-2.239-3.834-3.635-5.576
		c-1.417-1.734-2.953-3.362-4.512-4.864c-0.787-0.741-1.59-1.445-2.427-2.045c-0.829-0.602-1.708-1.099-2.532-1.338
		c-0.407-0.109-0.784-0.13-1.08-0.085c-0.045,0.014-0.203,0.033-0.159,0.031c-0.104,0.046-0.278,0.101-0.323,0.138
		c-0.031,0.037-0.061,0.052-0.107,0.08c-0.058,0.055-0.116,0.106-0.177,0.156c-0.462,0.483-0.812,1.306-1.036,2.147
		c-0.443,1.713-0.512,3.52-0.59,5.164c-0.133,3.318,0.091,6.159,0.484,8.086c0.184,0.969,0.412,1.709,0.579,2.208
		C241.585,165.154,241.689,165.412,241.689,165.412z M241.506,165.492c0,0-0.454-1.048-1.032-2.955
		c-0.279-0.955-0.621-2.118-0.957-3.476c-0.324-1.358-0.667-2.909-0.845-4.643c-0.175-1.735-0.209-3.645,0.25-5.723
		c0.243-1.027,0.588-2.159,1.554-3.162l0.4-0.348c0.164-0.117,0.359-0.229,0.545-0.331c0.178-0.092,0.256-0.107,0.39-0.163
		l0.046-0.018l0.141-0.048l0.136-0.029l0.274-0.055c0.734-0.119,1.421,0.017,2.027,0.203c1.2,0.414,2.181,1.068,3.086,1.78
		c0.904,0.718,1.738,1.502,2.521,2.337c1.576,1.661,2.918,3.54,4.146,5.472c1.232,1.933,2.347,3.918,3.306,5.974
		c0.917,2.068,1.409,4.338,1.197,6.582c-0.214,2.211-1.306,4.472-3.209,5.676c-1.856,1.212-4.138,1.385-5.899,0.877
		c-1.801-0.48-3.191-1.444-4.246-2.4c-1.059-0.969-1.793-1.958-2.364-2.781c-0.528-0.851-0.914-1.543-1.136-2.025
		C241.622,165.752,241.506,165.492,241.506,165.492z"/>
</g>
<g>
	<path style="fill:#31CAFF;" d="M219.949,165.122c-2.364,5.129-7.77,8.154-12.072,6.751c-4.302-1.404-5.869-6.705-3.508-11.838
		c2.365-5.136,11.447-16.129,15.75-14.722C224.422,146.718,222.322,159.988,219.949,165.122z"/>
	<path d="M220.039,165.166c0,0-0.126,0.256-0.361,0.732c-0.241,0.474-0.655,1.151-1.216,1.983c-0.605,0.801-1.375,1.766-2.466,2.7
		c-1.089,0.919-2.506,1.847-4.322,2.275c-0.901,0.208-1.898,0.302-2.919,0.132c-0.258-0.02-0.511-0.093-0.766-0.158l-0.383-0.103
		l-0.382-0.152c-0.4-0.144-0.979-0.439-1.437-0.762c-1.873-1.274-2.871-3.594-2.979-5.817c-0.104-2.254,0.49-4.503,1.497-6.532
		c1.048-2.018,2.241-3.96,3.55-5.847c1.306-1.886,2.719-3.716,4.355-5.321c0.813-0.808,1.676-1.563,2.604-2.251
		c0.93-0.683,1.927-1.308,3.136-1.688c0.609-0.172,1.294-0.296,2.026-0.167l0.274,0.062l0.136,0.033l0.034,0.009
		c0.051,0.018-0.065-0.029,0.122,0.043l0.045,0.018c0.125,0.056,0.227,0.093,0.369,0.162c0.187,0.106,0.371,0.224,0.545,0.349
		c0.141,0.119,0.267,0.24,0.395,0.363c0.95,1.04,1.246,2.194,1.448,3.232c0.373,2.1,0.254,4.011,0.005,5.74
		c-0.252,1.728-0.662,3.266-1.044,4.611c-0.396,1.344-0.787,2.493-1.109,3.438C220.538,164.136,220.039,165.166,220.039,165.166z
		 M219.859,165.078c0,0,0.115-0.254,0.302-0.748c0.189-0.492,0.449-1.224,0.675-2.186c0.478-1.911,0.824-4.745,0.836-8.073
		c-0.008-1.65,0.003-3.462-0.369-5.193c-0.188-0.851-0.507-1.689-0.951-2.175l-0.167-0.159c-0.039-0.018-0.069-0.043-0.098-0.08
		c-0.088-0.046-0.229-0.102-0.341-0.151l-0.044-0.02c0.173,0.064,0.039,0.017,0.074,0.03l-0.014-0.002l-0.054-0.011l-0.106-0.026
		c-0.298-0.048-0.682-0.034-1.094,0.068c-0.836,0.217-1.733,0.692-2.585,1.269c-0.858,0.573-1.689,1.251-2.503,1.966
		c-1.615,1.448-3.215,3.021-4.701,4.704c-1.465,1.69-2.875,3.483-3.864,5.439c-0.998,1.946-1.37,4.165-0.977,6.14
		c0.184,0.982,0.535,1.9,1.038,2.668c0.507,0.765,1.146,1.382,1.854,1.823c1.441,0.908,3.083,1.113,4.624,0.933
		c1.542-0.172,2.961-0.718,4.102-1.409c1.153-0.679,2.048-1.483,2.69-2.22c0.637-0.75,1.041-1.401,1.294-1.867
		C219.728,165.327,219.859,165.078,219.859,165.078z"/>
</g>
<g>
	<path style="fill:#31CAFF;" d="M251.363,139.441c-0.212,9.893-9.35,17.782-20.411,17.609c-11.06-0.165-19.853-8.327-19.638-18.223
		c0.211-9.9,9.35-17.783,20.41-17.617C242.785,121.38,251.579,129.537,251.363,139.441z"/>
	<g>
		<path d="M251.463,139.449c0,0-0.032,0.465-0.093,1.336c-0.006,0.438-0.125,0.972-0.238,1.602
			c-0.088,0.639-0.305,1.339-0.527,2.134c-0.537,1.549-1.296,3.44-2.683,5.322c-1.368,1.876-3.284,3.785-5.792,5.261
			c-2.494,1.487-5.575,2.487-8.896,2.741c-0.844,0.029-1.646,0.047-2.554,0.018c-0.829-0.098-1.624-0.105-2.512-0.304
			c-0.433-0.082-0.869-0.164-1.307-0.247c-0.423-0.118-0.848-0.237-1.274-0.356c-0.859-0.207-1.674-0.592-2.512-0.899
			c-3.266-1.477-6.309-3.707-8.57-6.687c-1.108-1.497-2.063-3.142-2.703-4.934c-0.636-1.804-0.987-3.663-1.033-5.654
			c-0.002-1.816,0.312-3.858,0.922-5.678c0.651-1.833,1.635-3.524,2.797-5.055c1.166-1.538,2.628-2.795,4.141-3.91
			c1.533-1.105,3.219-1.92,4.915-2.608c3.428-1.248,7.11-1.617,10.345-1.227c3.421,0.419,6.404,1.531,8.87,3.117
			c2.46,1.57,4.311,3.55,5.608,5.48c1.317,1.935,2,3.858,2.471,5.431c0.186,0.806,0.374,1.516,0.431,2.154
			c0.085,0.633,0.179,1.169,0.164,1.611c0.021,0.879,0.032,1.348,0.032,1.348L251.463,139.449z M251.263,139.439
			c0,0-0.02-0.463-0.06-1.33c0.005-0.436-0.1-0.962-0.197-1.582c-0.061-0.629-0.309-1.313-0.53-2.087
			c-0.516-1.525-1.428-3.285-2.834-5c-1.404-1.717-3.364-3.319-5.736-4.569c-2.352-1.239-5.2-2.178-8.15-2.488
			c-3.135-0.28-6.329,0.044-9.508,1.095c-1.553,0.587-3.108,1.28-4.526,2.248c-1.403,0.972-2.751,2.089-3.867,3.436
			c-1.117,1.338-2.088,2.831-2.763,4.475c-0.673,1.668-1.082,3.316-1.23,5.23c-0.061,1.74,0.146,3.6,0.648,5.333
			c0.54,1.737,1.416,3.352,2.481,4.803l0.846,1.053l0.945,0.956c0.302,0.331,0.657,0.604,0.998,0.889
			c0.352,0.272,0.676,0.576,1.058,0.804c1.428,1.048,3.045,1.746,4.631,2.351c0.822,0.229,1.611,0.531,2.438,0.664
			c0.407,0.082,0.814,0.164,1.217,0.245c0.402,0.045,0.802,0.09,1.2,0.134c0.768,0.128,1.648,0.071,2.456,0.116
			c0.733-0.011,1.558-0.057,2.311-0.114c3.066-0.306,5.869-1.194,8.276-2.387c2.407-1.197,4.417-2.74,5.881-4.411
			c1.468-1.667,2.45-3.39,3.027-4.896c0.252-0.765,0.528-1.439,0.614-2.062c0.121-0.614,0.247-1.133,0.26-1.573
			c0.075-0.87,0.115-1.335,0.115-1.335L251.263,139.439z"/>
	</g>
</g>
<path style="fill:#FFEE2A;" d="M248.384,137.22c-0.165,7.822-8.005,12.97-17.28,12.823c-9.271-0.138-16.467-5.512-16.302-13.334
	c0.17-7.814,7.821-14.033,17.101-13.896C241.173,122.959,248.557,129.406,248.384,137.22z"/>
<g>
	<path style="fill:#31CAFF;" d="M196.4,110.698c-0.266,12.192,15.434,22.321,35.062,22.614c19.628,0.301,35.752-9.338,36.017-21.532
		c0.261-12.195-15.439-22.319-35.066-22.62C212.786,88.864,196.662,98.506,196.4,110.698z"/>
	<path d="M196.5,110.692c0,0,0.046,0.715,0.134,2.056c0.086,0.662,0.312,1.451,0.516,2.39c0.182,0.448,0.377,0.929,0.584,1.442
		c0.181,0.525,0.484,1.031,0.805,1.563c1.213,2.165,3.278,4.446,6.064,6.468c2.785,2.032,6.314,3.751,10.33,5.062
		c4.02,1.303,8.529,2.241,13.368,2.616c1.202,0.058,2.456,0.178,3.665,0.188c1.258-0.015,2.561,0.066,3.822-0.015
		c1.264-0.092,2.548-0.084,3.842-0.278c1.297-0.148,2.609-0.292,3.91-0.566c2.628-0.433,5.234-1.201,7.812-2.135
		c1.251-0.555,2.559-1.024,3.755-1.729c0.603-0.341,1.242-0.625,1.818-1.015l1.744-1.154c2.239-1.661,4.294-3.628,5.832-5.969
		c1.515-2.326,2.427-5.129,2.431-7.806l-0.179-2.143c-0.136-0.673-0.327-1.308-0.478-1.96c-0.201-0.642-0.515-1.268-0.762-1.899
		c-0.262-0.63-0.682-1.189-1.008-1.786c-1.474-2.312-3.468-4.259-5.647-5.902c-2.199-1.639-4.631-2.91-7.088-4.022
		c-2.513-0.992-5.038-1.894-7.62-2.428c-5.145-1.189-10.23-1.575-15.12-1.413c-4.781,0.176-9.356,0.956-13.401,2.129
		c-4.051,1.182-7.635,2.78-10.485,4.718c-2.85,1.929-4.991,4.134-6.287,6.248c-0.168,0.261-0.332,0.516-0.491,0.763
		c-0.158,0.247-0.251,0.52-0.375,0.767c-0.23,0.504-0.444,0.976-0.645,1.415c-0.244,0.933-0.508,1.717-0.622,2.371
		c-0.146,1.325-0.224,2.032-0.224,2.032L196.5,110.692z M196.3,110.698v-0.002c0,0,0.069-0.719,0.198-2.067
		c0.106-0.666,0.361-1.467,0.598-2.42c0.425-0.883,0.724-1.997,1.438-3.052c1.27-2.184,3.254-4.625,6.081-6.786
		c2.808-2.17,6.364-4.137,10.5-5.589c4.142-1.467,8.817-2.36,13.882-2.609c4.95-0.259,10.325,0.163,15.637,1.483
		c2.677,0.605,5.303,1.59,7.91,2.678c2.555,1.216,5.098,2.578,7.384,4.387c2.263,1.818,4.337,3.966,5.858,6.524
		c0.334,0.667,0.746,1.291,1.004,1.993c0.244,0.709,0.543,1.389,0.734,2.119c0.146,0.749,0.318,1.505,0.424,2.24l0.078,2.148
		c-0.122,3.082-1.233,5.887-2.901,8.283c-1.639,2.413-3.784,4.398-6.096,6.061c-2.334,1.646-4.86,2.924-7.409,4.057
		c-2.597,1.007-5.2,1.954-7.858,2.525c-1.315,0.348-2.645,0.566-3.964,0.78c-1.31,0.262-2.648,0.323-3.959,0.48
		c-1.316,0.142-2.577,0.132-3.846,0.198c-1.318,0.022-2.558-0.066-3.816-0.094c-4.992-0.314-9.681-1.31-13.773-2.867
		c-4.098-1.545-7.593-3.62-10.331-5.873c-2.757-2.248-4.654-4.757-5.842-6.983c-0.673-1.081-0.93-2.204-1.317-3.103
		c-0.202-0.964-0.423-1.782-0.502-2.449c-0.073-1.342-0.111-2.058-0.111-2.058L196.3,110.698z"/>
</g>
<path style="fill:#FFEE2A;" d="M245.883,121.957c-0.109,5.209-6.547,9.338-14.377,9.221c-7.825-0.118-14.076-4.439-13.968-9.654
	c0.114-5.205,6.548-9.335,14.377-9.218C239.74,112.425,246,116.748,245.883,121.957z"/>
<g>
	<path d="M240.571,118.137c-0.046,2.065-4.007,3.68-8.86,3.606c-4.849-0.073-8.745-1.809-8.697-3.87
		c0.045-2.069,4.012-3.684,8.859-3.606C236.723,114.335,240.615,116.072,240.571,118.137z"/>
	<path d="M227.766,108.326c-0.031,1.619-1.101,2.92-2.387,2.902c-1.29-0.02-2.297-1.352-2.267-2.973
		c0.038-1.625,1.104-2.924,2.392-2.904C226.787,105.374,227.801,106.702,227.766,108.326z"/>
	<path d="M236.23,108.453c-0.038,1.621,0.977,2.956,2.264,2.973c1.285,0.019,2.354-1.276,2.387-2.899
		c0.039-1.619-0.977-2.955-2.264-2.973C237.334,105.534,236.262,106.829,236.23,108.453z"/>
</g>
<path style="fill:#FFCB05;stroke:#000000;stroke-width:3;stroke-miterlimit:10;" d="M290.457,278.105
	c0,17.649-14.305,31.961-31.957,31.961h-51.811c-17.651,0-31.959-14.311-31.959-31.961l0,0c0-17.648,14.308-31.96,31.959-31.96
	H258.5C276.152,246.145,290.457,260.457,290.457,278.105L290.457,278.105z"/>
</svg>
