<?xml version="1.0" encoding="iso-8859-1"?>
<!-- Generator: Adobe Illustrator 19.2.1, SVG Export Plug-In . SVG Version: 6.00 Build 0)  -->
<svg version="1.1" id="Layer_2" xmlns="http://www.w3.org/2000/svg" xmlns:xlink="http://www.w3.org/1999/xlink" x="0px" y="0px"
	 viewBox="0 0 375.486 228.016" style="enable-background:new 0 0 375.486 228.016;" xml:space="preserve">
<polygon points="354.968,134.957 354.922,131.745 354.706,131.785 31.456,136.218 28.703,136.254 28.302,138.975 20.638,190.987 
	20.087,194.769 23.903,194.682 114.917,192.669 268.354,195.085 268.416,195.085 268.489,195.085 352.645,192.265 355.824,192.173 
	355.78,188.996 "/>
<polygon style="fill:#3B3B3C;" points="31.491,139.446 23.832,191.458 114.958,189.443 268.393,191.861 352.549,189.042 
	354.742,135.009 "/>
<path style="fill:#6FEA2F;stroke:#000000;stroke-width:3;stroke-linecap:round;stroke-linejoin:round;stroke-miterlimit:10;" d="
	M362.023,133.887c0,0,2-11-9-18c-31.758-20.21-79.373-26.724-79.373-26.724s-13.841-61.629-28.627-69.276c-7.729-3.996-76-36-141-5
	c-38.348,18.289-49.276,79.8-49.276,79.8s-23.656,15.056-36.023,40.321c-6.404,8.837-9.048,21.967-10.417,29.097
	c0,0-4.633,1.21-5.643,2.826c-1.007,1.615-0.807,5.038,0,6.449c0.803,1.414,4.771,3.563,4.771,3.563s1.614,17.204,19.353,16.13
	c0,0,1.614-45.698,48.387-43.547c33.901,1.554,37.096,41.393,37.096,41.393s2.282,8.873,10.754,8.873
	c8.465,0,133.675,2.017,139.722,1.21c6.05-0.808,7.794-8.471,7.794-8.471s-2.081-43.006,38.776-45.157
	c40.858-2.15,42.804,44.554,42.804,44.554s9.703,2.621,12.93-7.46c0.547-1.706,0.856-4.37,1.012-7.474l-1.213-10.468
	c-0.242-7.959,0.401-16.333,0.401-16.333L362.023,133.887z"/>
<g>
	<path style="fill:#FFEC40;" d="M375.324,154.231c0.552,18.325-7.895,21.595-7.895,21.595s-2.329-12.039-3.125-24.987
		c-0.798-13.011-1.758-21.451-1.758-21.451S374.842,138.103,375.324,154.231z"/>
	<g>
		<path style="fill:#231F20;" d="M375.423,154.229c0.042,1.004,0.037,2.009,0.06,3.02c0.002,1.009,0.006,2.02-0.006,3.035
			c-0.042,2.029-0.243,4.07-0.654,6.102c-0.119,0.503-0.247,1.006-0.398,1.504c-0.14,0.502-0.324,0.99-0.518,1.476
			c-0.385,0.974-0.865,1.917-1.443,2.806c-0.566,0.896-1.26,1.72-2.042,2.455c-0.399,0.36-0.819,0.699-1.269,1.003
			c-0.466,0.306-0.894,0.568-1.49,0.8l-0.76,0.294l-0.109-0.775c-0.275-1.946-0.508-3.88-0.725-5.821
			c-0.247-1.935-0.477-3.871-0.746-5.801l-0.773-5.799l-0.397-2.902l-0.338-2.911c-0.245-1.946-0.43-3.869-0.61-5.814l-0.535-5.814
			l-0.574-5.794l-0.611-5.784l-0.256-2.42l1.938,1.427c0.551,0.406,1.013,0.784,1.482,1.209c0.462,0.419,0.913,0.845,1.348,1.287
			c0.874,0.879,1.696,1.804,2.469,2.768c1.529,1.941,2.839,4.054,3.846,6.298c0.249,0.562,0.493,1.125,0.71,1.699
			c0.23,0.567,0.42,1.151,0.618,1.729c0.382,1.161,0.692,2.341,0.947,3.528c0.222,1.195,0.454,2.384,0.575,3.587
			C375.308,151.819,375.388,153.024,375.423,154.229z M375.224,154.233c-0.074-1.195-0.152-2.392-0.371-3.569
			c-0.096-0.591-0.227-1.174-0.361-1.756c-0.125-0.583-0.321-1.15-0.488-1.722c-0.734-2.269-1.727-4.436-2.949-6.452
			c-0.618-1.004-1.26-1.987-1.95-2.935c-0.69-0.947-1.408-1.873-2.18-2.751c-0.757-0.89-1.552-1.747-2.393-2.552
			c-0.418-0.405-0.852-0.794-1.289-1.172c-0.436-0.367-0.897-0.76-1.314-1.065l1.681-0.993c0.44,3.895,0.678,7.785,0.943,11.685
			c0.142,1.947,0.216,3.889,0.299,5.836c0.092,1.938,0.159,3.901,0.219,5.837l0.104,2.911l0.185,2.909
			c0.107,1.942,0.35,3.872,0.567,5.804c0.118,0.965,0.279,1.925,0.417,2.887c0.133,0.963,0.329,1.916,0.498,2.873
			c0.365,1.908,0.791,3.812,1.223,5.695l-0.868-0.48c0.324-0.171,0.741-0.468,1.081-0.759c0.354-0.3,0.685-0.633,0.996-0.983
			c0.639-0.686,1.18-1.464,1.688-2.264c0.499-0.809,0.936-1.66,1.342-2.533c0.388-0.881,0.753-1.782,1.065-2.708
			c0.336-0.92,0.617-1.867,0.863-2.827c0.244-0.961,0.438-1.938,0.603-2.924c0.165-0.986,0.284-1.982,0.341-2.982
			C375.251,156.243,375.224,155.239,375.224,154.233z"/>
	</g>
</g>
<path style="fill:#FF5500;stroke:#231F20;stroke-width:3;stroke-miterlimit:10;" d="M18.023,134.887c0,0-5.729,0.271-9.951,5.006
	c-4.924,5.521-2.561,25.109-2.561,25.109l8.196,2.049L18.023,134.887z"/>
<path style="fill:#DFFCFF;stroke:#000000;stroke-width:2.5;stroke-miterlimit:10;" d="M143.023,21.887
	c-7.091,1.29-22.477,5.5-25.477,24.5c-0.604,3.824-4.84,32.734-3.553,39.186c1.291,6.448,2.58,9.674,9.029,10.314
	c6.449,0.647,95.906,6.952,126.523-0.5c2.947-0.718-1.576-11.869-6.346-24.607c-3.391-9.056-5.422-18.913-11.654-26.393
	C219.985,30.513,186.234,18.015,143.023,21.887z"/>
<path style="fill:#DFFCFF;stroke:#000000;stroke-width:2;stroke-miterlimit:10;" d="M252.023,26.887
	c8.656,9.364,14.526,31.853,23,60c0,0-4.774,7.925-8,9c-3.225,1.074-6-3-12-17c-6.364-14.85-20.258-46.103-13-47
	C252.39,30.606,249.205,23.841,252.023,26.887z"/>
<g>
	<path style="fill:#231F20;" d="M114.023,81.887l-0.145,6.967l-0.075,3.482l0.003,3.481l0.018,6.955l0.179,6.956
		c0.037,2.318,0.167,4.635,0.276,6.95c0.11,2.316,0.156,4.634,0.312,6.947l0.416,6.941c0.143,2.312,0.35,4.623,0.521,6.934
		c0.167,2.311,0.373,4.62,0.6,6.927c0.227,2.307,0.411,4.616,0.678,6.919c0.482,4.609,1.034,9.21,1.572,13.812l0.89,6.893
		l0.974,6.88c0.68,4.577,1.408,9.164,2.205,13.695l-1.402-1.186l30.697,0.409l30.694,0.499l30.694,0.564l15.347,0.302l15.347,0.362
		l-1.15,1.005c1.049-7.893,2.231-15.749,3.544-23.597c0.673-3.921,1.362-7.838,2.145-11.742c0.396-1.951,0.79-3.903,1.241-5.847
		c0.433-1.945,0.945-3.877,1.468-5.806c0.578-1.931,1.174-3.818,1.788-5.706c0.618-1.891,1.161-3.784,1.728-5.683
		c0.543-1.905,1.078-3.812,1.576-5.732c0.503-1.917,0.984-3.84,1.445-5.77c0.943-3.854,1.768-7.741,2.838-11.576
		c0.538-1.917,1.164-3.811,1.909-5.657c0.78-1.833,1.714-3.596,2.809-5.253c-1.038,1.694-1.907,3.48-2.62,5.328
		c-0.678,1.861-1.235,3.762-1.706,5.686c-0.937,3.849-1.684,7.749-2.523,11.633c-0.414,1.944-0.848,3.885-1.304,5.82
		c-0.45,1.938-0.939,3.865-1.435,5.792c-0.521,1.919-1.025,3.857-1.593,5.756c-0.569,1.902-1.114,3.817-1.617,5.708
		c-0.461,1.918-0.897,3.841-1.285,5.781c-0.411,1.933-0.767,3.881-1.126,5.827c-0.706,3.896-1.321,7.812-1.919,11.73
		c-1.163,7.84-2.2,15.711-3.099,23.58c-0.066,0.579-0.558,1.006-1.127,1.005h-0.023l-15.35-0.096l-15.349-0.155l-30.697-0.352
		l-30.696-0.416l-30.695-0.507h-0.014c-0.699-0.012-1.273-0.523-1.389-1.187c-0.808-4.616-1.482-9.211-2.104-13.829l-0.893-6.925
		l-0.808-6.935l-0.714-6.943l-0.598-6.955c-0.212-2.316-0.342-4.64-0.514-6.96c-0.172-2.319-0.322-4.641-0.434-6.965
		c-0.117-2.323-0.268-4.645-0.355-6.969l-0.25-6.974c-0.099-2.323-0.094-4.65-0.142-6.976c-0.019-2.325-0.056-4.65-0.003-6.977
		l0.096-6.974l0.256-6.973l0.135-3.484c0.061-1.159,0.154-2.316,0.238-3.475L114.023,81.887z"/>
</g>
<path style="opacity:0.6;fill:#FFF100;" d="M374.69,156.389c0.667,4.612-5.333,16.72-5.333,16.72s-0.052-14.989-2.667-19.603
	c-3.596-6.34,1.334-10.377,1.334-10.377S373.745,149.855,374.69,156.389z"/>
<g>
	<path style="fill:#D0D2D3;" d="M152.973,118.282c0,2.803-2.234,5.07-4.982,5.07h-21.932c-2.756,0-4.986-2.268-4.986-5.07l0,0
		c0-2.795,11.686-0.665,14.436-0.826c8-0.469,9.5-2.344,9.5-2.344C149.508,113.237,152.973,115.487,152.973,118.282L152.973,118.282
		z"/>
	<path style="fill:#231F20;" d="M153.074,118.284c0.008,1.32-0.484,2.667-1.377,3.69c-0.877,1.037-2.198,1.769-3.645,1.887
		c-1.318,0.1-2.616,0.239-3.926,0.294c-1.306,0.076-2.611,0.099-3.918,0.092c-1.307-0.003-2.613-0.037-3.92-0.118l-3.918-0.24
		c-1.307-0.088-2.613-0.165-3.92-0.203l-1.959-0.029c-0.324-0.003-0.68-0.004-0.998-0.029c-0.359-0.039-0.703-0.11-1.033-0.208
		c-1.334-0.404-2.501-1.336-3.218-2.567c-0.357-0.616-0.595-1.309-0.698-2.025l-0.055-0.541l0.002-0.163
		c0.004-0.065,0.019-0.158,0.035-0.235c0.035-0.141,0.086-0.268,0.154-0.39c0.289-0.481,0.699-0.699,1.053-0.869
		c0.727-0.312,1.418-0.434,2.104-0.52c0.686-0.082,1.361-0.123,2.031-0.13c1.342-0.024,2.664,0.045,3.979,0.124l3.902,0.253
		c0.625,0.025,1.304,0.066,1.785,0.029l1.952-0.173c0.669-0.023,1.262-0.127,1.885-0.2c0.62-0.067,1.233-0.17,1.849-0.281
		c0.625-0.091,1.21-0.239,1.813-0.377c0.279-0.09,0.585-0.163,0.855-0.267c0.255-0.094,0.569-0.259,0.687-0.32l0.22-0.166
		c1.673-0.571,3.547-0.742,5.219-0.151c0.83,0.282,1.603,0.765,2.161,1.439C152.749,116.545,153.087,117.413,153.074,118.284z
		 M152.872,118.28c-0.011-0.821-0.348-1.614-0.901-2.211c-0.561-0.594-1.31-0.98-2.089-1.18c-1.589-0.378-3.244,0.013-4.661,0.733
		l0.22-0.165c-0.342,0.41-0.6,0.571-0.912,0.801c-0.302,0.207-0.611,0.365-0.924,0.551c-0.634,0.271-1.276,0.589-1.936,0.747
		l-0.987,0.281c-0.331,0.086-0.671,0.127-1.007,0.192c-0.67,0.112-1.361,0.257-2,0.309l-1.951,0.168
		c-0.822,0.059-1.452-0.016-2.129-0.075l-3.906-0.426c-1.289-0.136-2.574-0.249-3.846-0.315c-1.249-0.05-2.581-0.106-3.616,0.183
		c-0.244,0.074-0.438,0.188-0.504,0.268c-0.016,0.019-0.03,0.041-0.041,0.058c0,0-0.005-0.011-0.012,0.004
		c-0.005,0.023-0.012,0.121-0.014,0.082l-0.007,0.438c0.021,0.584,0.157,1.168,0.401,1.711c0.476,1.094,1.438,1.998,2.602,2.384
		c0.294,0.093,0.589,0.158,0.88,0.198c0.332,0.028,0.631,0.047,0.959,0.034l1.959-0.029c1.307-0.038,2.613-0.115,3.92-0.203
		l3.918-0.24c1.307-0.081,2.613-0.115,3.92-0.118c1.307-0.007,2.612,0.016,3.918,0.092c1.305,0.053,2.619,0.2,3.914,0.289
		c1.172,0.11,2.43-0.298,3.356-1.153C152.328,120.831,152.869,119.575,152.872,118.28z"/>
</g>
<path style="opacity:0.1;" d="M52.023,99.887c0,0-10,16-2,25s34,11,53,28c39.123,35.005,67,33,99,31
	c71.037-4.439,53.513-18.38,81-36c39-25,81-1,81-1l1.025,37.582c0,0-3.635,6.924-10.022,6.967
	c-14.396,0.098-39.766-6.197-72.01-2.644c-8.766,0.967-17.816,9.86-26.95,10.619c-49.88,4.142-102.241,3.259-124.043,0.476
	c-20.906-2.669-21.369-9.493-24.125-16.952c-3.439-9.309-7.105-19.607-19.875-24.048c-12.877-4.479-33.795-6.145-45.312,3.818
	c-9.055,7.834-10.391,27.44-10.391,27.44s-18.297,5.741-21.297-4.259s-16.719-11.912-8.359-18.956
	c8.359-7.044,12.359-30.044,16.359-36.044c2.242-3.363,12.338-14.695,20.779-22.248C46.421,102.716,52.023,99.887,52.023,99.887z"/>
<path style="opacity:0.1;fill:#FFFFFF;" d="M318.572,136.624c-4.238-0.778-8.201-1.128-11.891-1.128
	c-32.638,0-35.613,27.338-35.613,27.338s7.758-21.363,35.841-21.363c3.025,0,6.181,0.245,9.467,0.795
	c33.823,5.647,36.974,42.339,36.974,42.339S360.297,144.282,318.572,136.624z"/>
<path style="opacity:0.1;fill:#FFFFFF;" d="M71.005,136.977c-0.918,0-1.854,0.016-2.818,0.048
	c-36.289,1.209-42.338,30.642-42.338,30.642s9.674-24.594,41.531-25.804c1.07-0.038,2.119-0.06,3.139-0.06
	c29.254,0,36.781,16.19,36.781,16.19S104.621,136.977,71.005,136.977z"/>
<g>
	<ellipse cx="69.569" cy="190.146" rx="37.25" ry="37.87"/>
	<circle style="fill:#8E8E8E;" cx="69.971" cy="190.597" r="21.298"/>
	<circle style="fill:#231F20;" cx="69.109" cy="191.173" r="13.636"/>
	<circle style="fill:#A7A7A8;" cx="69.259" cy="191.021" r="11.945"/>
	<path style="fill:#D0D2D3;" d="M75.931,193.815c-0.154-6.416-5.104-11.048-11.053-10.343c-2.2,0.26-4.227,1.218-5.898,2.639
		c1.854-3.36,5.1-5.817,8.849-6.263c5.948-0.705,10.896,3.927,11.053,10.342c0.099,4.043-1.734,7.827-4.591,10.252
		C75.379,198.47,75.988,196.189,75.931,193.815z"/>
</g>
<g>
	<ellipse cx="310.085" cy="190.146" rx="37.25" ry="37.87"/>
	<circle style="fill:#8E8E8E;" cx="310.486" cy="190.597" r="21.298"/>
	<ellipse style="fill:#231F20;" cx="309.624" cy="191.173" rx="13.634" ry="13.637"/>
	<circle style="fill:#A7A7A8;" cx="309.774" cy="191.021" r="11.944"/>
	<path style="fill:#D0D2D3;" d="M317.264,194.482c-0.154-6.416-5.104-11.048-11.053-10.343c-2.2,0.26-4.227,1.218-5.898,2.639
		c1.854-3.36,5.1-5.817,8.849-6.263c5.948-0.705,10.896,3.927,11.053,10.342c0.099,4.043-1.734,7.827-4.591,10.252
		C316.712,199.137,317.321,196.856,317.264,194.482z"/>
</g>
</svg>
