<?xml version="1.0" encoding="iso-8859-1"?>
<!-- Generator: Adobe Illustrator 19.2.1, SVG Export Plug-In . SVG Version: 6.00 Build 0)  -->
<svg version="1.1" id="Layer_6" xmlns="http://www.w3.org/2000/svg" xmlns:xlink="http://www.w3.org/1999/xlink" x="0px" y="0px"
	 viewBox="0 0 533.055 540.641" style="enable-background:new 0 0 533.055 540.641;" xml:space="preserve">
<path style="fill:#EFF42F;stroke:#231F20;stroke-width:7;stroke-linecap:round;stroke-linejoin:round;" d="M220.434,248.37
	c50.041-5.799,168.513,18.347,173.189,17.94c21.347-1.856,42.693-21.812,48.263-31.556c5.568-9.746,20.418-40.838,35.732-45.014
	c15.313-4.178,33.412,5.568,41.765,27.843c8.354,22.275,20.884,98.845-6.96,175.415c-27.844,76.569-68.293,100.065-100.237,114.158
	c-47.335,20.883-125.688,34.191-213.933,28.773c-105.806-6.498-137.825-35.733-162.42-64.506
	C11.953,443.485-5.467,394.39,8.455,348.449c13.921-45.942,40.838-77.034,70.537-95.133c20.795-12.673,38.981-30.628,23.201-78.426
	c-7.535-22.828,0.109-31.871-6.96-56.615c-8.353-29.236,3.645-40.99,22.645-68.99c23.59-34.764,61.175-49.041,97.082-45.169
	c53.472,5.765,87.148,31.285,106.733,63.112c38.982,63.344,20.884,109.286-5.104,142.93
	C283.355,253.185,220.434,248.37,220.434,248.37z"/>
<g>
	<path style="fill:#FF1D1D;" d="M113.377,83.446c3.563,17.932,11.414,25.324,20.062,37.431c7.5,10.499,12.174,12.167,16.271,18.569
		c5.333,8.333-0.051,28.614-19.271,41.428c-7.309,4.873-14.94,4.162-27.818-1.059c-12.877-5.221-37.085-14.961-47.178-18.44
		c-10.094-3.48-20.246-13.483-20.999-17.999c-1.5-9,4.5-7.5,19.5-3c2.784-0.696-49.433-23.492-46.498-37.498
		c1.75-8.352,22.527-10.922,46.498-13.499c13.95-1.499,34.909-7.184,46.395-18.67C106.377,68.779,111.423,73.616,113.377,83.446z"/>
	<path style="fill:#231F20;" d="M113.67,83.381c1.051,5.111,2.566,10.098,4.926,14.726c1.141,2.325,2.502,4.533,3.934,6.687
		c1.45,2.144,3.05,4.188,4.672,6.221c1.615,2.038,3.295,4.036,4.947,6.075l2.449,3.064c0.824,1.02,1.655,2.028,2.487,2.962
		c1.686,1.915,3.482,3.713,5.36,5.436c1.867,1.735,3.898,3.366,5.854,5.344c0.973,0.988,1.893,2.076,2.745,3.208l0.62,0.865
		l0.078,0.108c0.039,0.062-0.033-0.062,0.098,0.152l0.031,0.053l0.128,0.209l0.254,0.418c0.175,0.296,0.389,0.755,0.571,1.132
		c0.178,0.39,0.294,0.736,0.441,1.109c1.019,2.95,1.14,5.95,0.894,8.801c-0.551,5.731-2.671,11.009-5.48,15.756
		c-2.817,4.761-6.532,8.9-10.664,12.454c-1.037,0.887-2.121,1.716-3.223,2.514c-0.558,0.389-1.098,0.803-1.672,1.166l-0.852,0.56
		l-0.425,0.279l-0.106,0.07l-0.175,0.107l-0.212,0.123c-1.023,0.613-2.521,1.425-3.853,1.882c-0.671,0.283-1.396,0.437-2.09,0.653
		c-0.717,0.136-1.426,0.324-2.146,0.393c-2.885,0.375-5.74,0.132-8.426-0.425c-2.689-0.566-5.252-1.403-7.736-2.354
		c-2.485-0.95-4.926-1.982-7.28-3.086c-2.374-1.089-4.776-2.109-7.163-3.167c-2.396-1.034-4.82-1.993-7.23-2.993
		c-2.417-0.978-4.857-1.902-7.283-2.856c-4.885-1.822-9.794-3.603-14.737-5.242l-7.429-2.362c-1.201-0.369-2.556-0.82-3.832-1.367
		c-1.267-0.535-2.498-1.139-3.694-1.795c-2.394-1.314-4.657-2.828-6.796-4.513c-2.135-1.692-4.164-3.526-5.988-5.662
		c-0.911-1.074-1.782-2.203-2.541-3.564c-0.373-0.694-0.733-1.43-0.972-2.405c-0.031-0.142-0.051-0.203-0.088-0.412l-0.042-0.241
		l-0.082-0.482c-0.05-0.362-0.108-0.789-0.137-1.177c-0.065-0.773-0.069-1.616,0.079-2.551c0.148-0.921,0.527-2.038,1.36-2.986
		c0.826-0.955,1.967-1.508,2.912-1.752c0.964-0.254,1.818-0.302,2.622-0.309c1.589,0.016,3.001,0.228,4.366,0.48
		c1.365,0.255,2.682,0.559,3.979,0.888c2.59,0.658,5.115,1.379,7.631,2.097l-1.496-0.035c-0.14,0.033-0.279,0.08-0.412,0.14
		c-0.077,0.035-0.307,0.137-0.605,0.369c-0.252,0.216-0.449,0.402-0.713,0.878c-0.232,0.445-0.302,0.934-0.303,1.219
		c-0.023,0.3,0.102,0.792,0.127,0.854c0.046,0.148,0.108,0.295,0.181,0.431c0.099,0.183,0.148,0.251,0.234,0.361
		c0.187,0.224,0.173,0.188,0.181,0.202l-0.296-0.204c-0.276-0.181-0.612-0.383-0.952-0.582c-0.688-0.4-1.416-0.803-2.148-1.202
		l-4.46-2.398c-2.997-1.599-6.001-3.226-8.982-4.908c-2.982-1.682-5.949-3.413-8.88-5.233c-2.93-1.823-5.835-3.718-8.641-5.819
		c-2.808-2.102-5.561-4.339-8.106-7.029c-1.265-1.356-2.487-2.824-3.532-4.599c-1.008-1.755-1.972-3.952-1.806-6.635
		c0.022-0.328,0.061-0.66,0.123-0.988l0.047-0.247l0.065-0.275c0.034-0.126,0.035-0.154,0.097-0.359l0.183-0.563l0.188-0.464
		c0.131-0.301,0.274-0.596,0.435-0.872c0.633-1.122,1.441-2.018,2.269-2.757c1.673-1.467,3.43-2.383,5.154-3.155
		c3.464-1.499,6.9-2.371,10.322-3.123c3.424-0.726,6.829-1.311,10.238-1.754c3.407-0.455,6.805-0.835,10.198-1.183
		c3.391-0.364,6.784-0.617,10.169-0.902c3.293-0.255,6.579-0.673,9.871-1.191c6.566-1.086,13.078-2.737,19.321-5.128
		c3.122-1.191,6.171-2.593,9.057-4.28c2.905-1.654,5.636-3.622,8.06-5.925l0.107-0.102l0.118-0.036
		c1.748-0.526,3.715-0.549,5.427,0.155c1.72,0.678,3.113,1.933,4.185,3.344c1.075,1.424,1.854,3.024,2.488,4.659
		c0.619,1.644,1.067,3.341,1.403,5.054L113.67,83.381z M113.083,83.504c-0.348-1.683-0.804-3.343-1.423-4.938
		c-0.623-1.589-1.423-3.115-2.471-4.436c-1.043-1.308-2.355-2.439-3.909-2.959c-1.539-0.554-3.232-0.461-4.771,0.069l0.225-0.137
		c-1.193,1.242-2.47,2.402-3.8,3.495c-1.316,1.113-2.704,2.136-4.128,3.106c-1.423,0.972-2.891,1.879-4.392,2.724
		c-1.493,0.861-3.016,1.674-4.566,2.427c-6.202,3.027-12.748,5.316-19.45,7.043c-3.35,0.864-6.765,1.555-10.218,2.029l-10.058,1.36
		c-3.345,0.452-6.677,0.933-9.98,1.481c-3.299,0.565-6.586,1.123-9.786,1.867c-3.187,0.741-6.345,1.622-9.094,2.869
		c-1.359,0.621-2.616,1.355-3.481,2.152c-0.43,0.396-0.753,0.794-0.945,1.158c-0.052,0.091-0.09,0.18-0.127,0.268l-0.05,0.126
		c-0.001,0.015-0.006,0.029-0.015,0.041c-0.007-0.004-0.044,0.177-0.065,0.256l-0.018,0.077l-0.009,0.039
		c-0.026,0.114,0.024-0.109,0.02-0.082l-0.01,0.066c-0.017,0.088-0.023,0.179-0.027,0.275c-0.043,0.735,0.285,1.85,0.966,3.003
		c0.673,1.156,1.615,2.329,2.662,3.45c2.112,2.25,4.63,4.331,7.247,6.294c5.268,3.92,10.94,7.502,16.733,10.898
		c2.899,1.701,5.831,3.362,8.78,5.029l4.448,2.523c0.747,0.43,1.494,0.864,2.262,1.336c0.387,0.238,0.774,0.48,1.2,0.773
		c0.216,0.149,0.436,0.303,0.729,0.548c0.168,0.152,0.316,0.255,0.637,0.644c0.116,0.154,0.198,0.265,0.322,0.493
		c0.084,0.161,0.156,0.331,0.213,0.505c0.04,0.084,0.158,0.604,0.14,0.931c0.007,0.312-0.077,0.824-0.32,1.294
		c-0.271,0.503-0.49,0.704-0.763,0.936c-0.318,0.252-0.57,0.367-0.675,0.409c-0.157,0.068-0.321,0.124-0.485,0.167l-0.762,0.196
		l-0.736-0.231c-2.482-0.778-4.958-1.554-7.408-2.245c-2.421-0.665-4.94-1.343-7.022-1.439c-0.498-0.016-0.957,0.012-1.259,0.08
		c-0.315,0.072-0.388,0.137-0.429,0.164c-0.045,0.025-0.15,0.173-0.231,0.529c-0.076,0.35-0.121,0.82-0.099,1.349
		c0.007,0.263,0.025,0.485,0.047,0.771l0.058,0.486l0.029,0.242c-0.007-0.049,0.013,0.049,0.016,0.065
		c0.053,0.299,0.23,0.765,0.461,1.225c0.476,0.941,1.159,1.924,1.904,2.863c3.047,3.77,6.964,7.123,11.194,9.723
		c1.062,0.647,2.152,1.245,3.266,1.776c1.097,0.544,2.217,0.932,3.461,1.472l7.263,3.046c2.426,0.996,4.807,2.064,7.217,3.077
		l7.241,2.994c2.421,0.977,4.83,1.984,7.26,2.939l7.307,2.817c4.883,1.802,9.838,3.642,14.684,5.23
		c4.861,1.498,9.94,2.556,14.513,1.642c0.575-0.089,1.12-0.286,1.679-0.421c0.535-0.217,1.092-0.357,1.607-0.624l0.785-0.359
		c0.25-0.126,0.481-0.267,0.723-0.396c0.449-0.22,1.029-0.623,1.569-0.973l0.204-0.134l0.052-0.033
		c0.032-0.02-0.098,0.061-0.021,0.01l0.095-0.069l0.378-0.279l0.757-0.556c0.512-0.361,0.986-0.77,1.479-1.153
		c0.975-0.782,1.919-1.599,2.829-2.448c3.695-3.343,6.817-7.254,9.342-11.464c2.458-4.232,4.254-8.891,4.801-13.566
		c0.293-2.325,0.175-4.656-0.403-6.686c-0.084-0.236-0.16-0.516-0.243-0.723c-0.1-0.211-0.127-0.36-0.269-0.636l-0.232-0.43
		l-0.117-0.216l-0.029-0.054c0.11,0.181,0.014,0.023,0.031,0.051l-0.06-0.094l-0.475-0.757c-0.658-0.994-1.366-1.952-2.169-2.877
		c-1.587-1.856-3.45-3.712-5.25-5.689c-1.814-1.965-3.479-4.084-5.038-6.256c-0.794-1.106-1.514-2.197-2.226-3.286
		c-0.743-1.11-1.429-2.175-2.173-3.254l-4.454-6.443c-1.492-2.153-2.948-4.345-4.293-6.609c-1.358-2.253-2.643-4.558-3.696-6.97
		c-2.155-4.79-3.677-9.873-4.704-14.981L113.083,83.504z"/>
</g>
<circle style="fill:#231F20;" cx="165.211" cy="96.279" r="24.5"/>
<circle style="fill:#FFFFFF;" cx="156.211" cy="87.279" r="8.5"/>
<g>
	<path style="fill:#231F20;" d="M138.798,152.066c0,0-0.374,0.141-1.115,0.362c-0.74,0.221-1.815,0.524-3.21,0.823
		c-0.697,0.141-1.468,0.329-2.313,0.475c-0.849,0.132-1.767,0.275-2.747,0.429c-0.982,0.151-2.034,0.231-3.142,0.36
		c-0.555,0.059-1.123,0.119-1.705,0.182c-0.584,0.034-1.181,0.068-1.79,0.104c-1.22,0.061-2.493,0.168-3.812,0.199
		c-1.318,0.013-2.682,0.025-4.083,0.039c-1.407,0.047-2.841-0.057-4.312-0.116c-1.469-0.081-2.979-0.102-4.502-0.237
		c-1.523-0.143-3.072-0.289-4.64-0.436c-0.785-0.076-1.576-0.14-2.367-0.236c-0.787-0.117-1.578-0.235-2.372-0.354
		c-1.589-0.238-3.191-0.479-4.801-0.72c-1.614-0.222-3.198-0.606-4.804-0.903c-1.605-0.308-3.21-0.616-4.809-0.923
		c-1.596-0.32-3.164-0.718-4.735-1.065c-1.567-0.362-3.129-0.706-4.66-1.088c-1.548-0.331-3.004-0.879-4.473-1.312
		c-1.448-0.495-2.884-0.946-4.264-1.465c-1.38-0.513-2.754-0.955-4.026-1.55c-2.578-1.105-4.98-2.231-7.19-3.278
		c-2.227-1.004-4.188-2.106-5.913-3.101c-1.726-0.995-3.217-1.882-4.429-2.642c-2.429-1.511-3.766-2.463-3.766-2.463l0.248-0.547
		c0,0,1.625,0.321,4.38,1.038c1.379,0.355,3.035,0.819,4.919,1.376c0.949,0.264,1.934,0.6,2.984,0.922
		c1.057,0.301,2.168,0.616,3.327,0.946c2.311,0.67,4.807,1.404,7.408,2.267c2.618,0.819,5.4,1.589,8.228,2.544
		c2.811,1.017,5.748,1.93,8.721,2.935c1.49,0.487,2.983,1.025,4.505,1.474c1.53,0.416,3.066,0.834,4.603,1.251
		c1.544,0.387,3.073,0.863,4.627,1.176c1.551,0.333,3.096,0.665,4.628,0.994c0.768,0.164,1.532,0.328,2.292,0.492
		c0.766,0.132,1.526,0.263,2.283,0.393c1.516,0.262,3.014,0.52,4.486,0.773c1.476,0.246,2.937,0.378,4.363,0.567
		c1.429,0.165,2.826,0.378,4.192,0.459c1.367,0.109,2.697,0.216,3.983,0.318c1.288,0.085,2.533,0.091,3.731,0.138
		c0.6,0.019,1.187,0.037,1.76,0.055c0.572-0.01,1.132-0.019,1.677-0.028c1.09-0.029,2.131-0.015,3.102-0.077
		c1.943-0.117,3.639-0.236,5.027-0.408c1.39-0.149,2.48-0.338,3.207-0.475c0.727-0.136,1.122-0.239,1.121-0.239L138.798,152.066z"/>
</g>
<g>
	<path style="fill:#231F20;" d="M438.611,389.726c0,0-0.626,1.729-2.09,4.854c-1.472,3.116-3.747,7.653-7.176,13.125
		c-3.414,5.475-7.908,11.938-13.773,18.796c-5.838,6.872-13.035,14.156-21.701,21.165c-4.326,3.511-9.006,6.963-14.031,10.271
		c-5.031,3.3-10.426,6.422-16.123,9.34c-11.396,5.828-24.068,10.745-37.595,14.263c-13.515,3.546-27.835,5.849-42.456,6.71
		c-14.621,0.929-29.52,0.523-44.293-0.863c-14.793-1.473-29.581-4.199-43.585-9.028c-7-2.4-13.769-5.404-20.106-9.061
		c-6.339-3.642-12.242-7.962-17.387-12.959c-5.15-4.982-9.517-10.665-12.77-16.783c-3.277-6.107-5.462-12.605-6.617-19.066
		c-1.153-6.465-1.34-12.886-0.712-18.981c0.632-6.099,1.972-11.88,3.811-17.217c3.656-10.701,9.257-19.586,15.294-26.398
		c6.044-6.841,12.651-11.523,18.544-14.295c5.904-2.824,11.059-3.628,14.491-3.825c1.729-0.097,3.054-0.036,3.942,0.009
		c0.887,0.073,1.345,0.11,1.345,0.11s-0.459-0.005-1.348-0.015c-0.888,0.019-2.206,0.053-3.905,0.27
		c-3.387,0.416-8.334,1.634-13.901,4.678c-5.559,3.021-11.628,7.941-17.145,14.779c-5.487,6.841-10.408,15.63-13.528,25.908
		c-3.092,10.247-4.255,22.108-1.798,33.99c1.23,5.924,3.393,11.804,6.535,17.291c3.148,5.478,7.176,10.609,11.997,15.113
		c9.628,9.076,22.124,15.555,35.444,20.07c13.365,4.529,27.667,7.103,42.073,8.455c14.449,1.386,28.984,1.898,43.219,1.062
		c14.225-0.834,28.171-2.688,41.334-5.946c13.158-3.246,25.566-7.637,36.795-12.977c11.217-5.364,21.276-11.574,29.99-18.09
		c8.697-6.541,16.094-13.32,22.181-19.778c6.072-6.476,10.909-12.562,14.612-17.775c3.689-5.224,6.33-9.522,8.002-12.523
		C437.861,391.406,438.611,389.726,438.611,389.726z"/>
</g>
</svg>
