<?xml version="1.0" encoding="iso-8859-1"?>
<!-- Generator: Adobe Illustrator 19.2.1, SVG Export Plug-In . SVG Version: 6.00 Build 0)  -->
<svg version="1.1" id="Layer_2" xmlns="http://www.w3.org/2000/svg" xmlns:xlink="http://www.w3.org/1999/xlink" x="0px" y="0px"
	 viewBox="0 0 305.196 267.29" style="enable-background:new 0 0 305.196 267.29;" xml:space="preserve">
<path style="fill:#E9F7FE;stroke:#000000;stroke-width:3;stroke-miterlimit:10;" d="M153.427,24.595l0.211,184.409
	c0,0,48.279-1.362,64.336-2.476c15.891-1.105,27.48-2.844,27.48-2.844C245.454,201.84,249.549,90.872,153.427,24.595z"/>
<path style="fill:#E9F7FE;stroke:#000000;stroke-width:3;stroke-miterlimit:10;" d="M139.201,41.384c0,0-3.823,48.118-39.832,95.498
	c-16.862,22.186-51.022,54.014-91.902,68.616c0,0,50.791,2.912,67.739,3.397c16.646,0.475,64.995-0.512,64.995-0.512L139.201,41.384
	z"/>
<path d="M145.801,3.862c0,0,0.982,9.145,0.497,30.248c-0.57,25.037-0.467,24.653,0.181,188.619l-2.249-0.761
	C144.23,221.969,140.521,12.651,145.801,3.862z"/>
<g>
	<path style="fill:#ED1C24;" d="M2.749,213.974c0,0,148.815,18.802,300.822-5.425c0,0-37.874,52.837-46.113,55.105
		c-8.237,2.271-211.809,1.305-211.809,1.305l-7.948-1.047C37.7,263.912,5.456,224.056,2.749,213.974z"/>
	<g>
		<path d="M2.774,213.775c6.258,0.567,12.523,1.054,18.788,1.512c6.267,0.451,12.539,0.807,18.808,1.191
			c6.268,0.383,12.541,0.711,18.813,0.996c6.273,0.279,12.549,0.518,18.824,0.71c6.274,0.225,12.551,0.399,18.826,0.547l18.83,0.312
			c6.276,0.058,12.554,0.118,18.83,0.075c6.276,0.021,12.553-0.04,18.829-0.096c6.275-0.09,12.554-0.125,18.828-0.288
			c6.277-0.075,12.553-0.267,18.829-0.439l9.411-0.35c3.138-0.116,6.275-0.237,9.41-0.409l9.408-0.473l9.402-0.589l4.701-0.302
			l4.695-0.383l9.391-0.773c6.249-0.63,12.506-1.197,18.741-1.958c3.121-0.355,6.236-0.751,9.353-1.141l9.332-1.293l4.666-0.65
			l4.654-0.722l9.309-1.443l1.743-0.27l-1.018,1.443c-6.83,9.683-13.809,19.247-20.995,28.678
			c-3.597,4.713-7.25,9.386-11.056,13.958c-1.907,2.284-3.847,4.546-5.893,6.742c-1.027,1.094-2.08,2.172-3.193,3.219
			c-1.131,1.042-2.252,2.066-3.751,2.968c-0.375,0.224-0.809,0.437-1.342,0.607c0.051-0.01-0.184,0.051-0.18,0.05l-0.067,0.014
			l-0.136,0.028l-0.271,0.056l-0.657,0.095c-0.861,0.107-1.559,0.162-2.328,0.221c-1.501,0.111-2.987,0.19-4.474,0.263
			c-2.971,0.142-5.934,0.247-8.896,0.343c-5.924,0.194-11.845,0.317-17.766,0.414c-11.84,0.201-23.676,0.338-35.513,0.452
			l-17.754,0.151l-17.754,0.048l-17.753-0.004l-17.752-0.084l-17.752-0.129l-17.752-0.201l-17.751-0.217l-17.752-0.252l-0.108-0.002
			l-0.073-0.011l-7.933-1.164l-0.545-0.08l-0.312-0.4c-3.146-4.028-6.235-8.079-9.299-12.159c-3.057-4.083-6.096-8.179-9.045-12.343
			c-2.944-4.167-5.839-8.371-8.601-12.667c-1.379-2.149-2.731-4.317-3.986-6.547c-0.625-1.117-1.223-2.25-1.785-3.402
			c-0.535-1.167-1.069-2.339-1.398-3.603l-0.071-0.276L2.774,213.775z M3.059,214.215c0.373,1.082,0.889,2.12,1.422,3.145
			c0.612,1.107,1.259,2.196,1.933,3.27c1.343,2.151,2.767,4.256,4.226,6.334c2.919,4.159,5.971,8.229,9.072,12.259
			c3.099,4.032,6.223,8.046,9.398,12.02c3.172,3.974,6.38,7.93,9.621,11.836l-0.857-0.48l7.964,0.93l-0.182-0.013l35.499-0.218
			l17.749-0.119l17.749-0.075l17.748-0.064l17.748-0.02l35.494,0.012c11.831,0.006,23.661-0.011,35.487-0.092l17.73-0.173
			c2.952-0.043,5.904-0.097,8.846-0.185c1.47-0.045,2.939-0.098,4.39-0.18c0.708-0.039,1.485-0.093,2.094-0.156l0.443-0.047
			l0.431-0.081c0.17-0.056,0.413-0.15,0.674-0.305c1.055-0.601,2.175-1.543,3.225-2.49c1.06-0.962,2.093-1.983,3.108-3.028
			c2.038-2.086,4.014-4.264,5.956-6.474c3.881-4.425,7.639-8.98,11.343-13.581c3.706-4.6,7.333-9.267,10.933-13.956
			c3.594-4.692,7.159-9.413,10.662-14.17l0.725,1.172l-9.336,1.369l-4.668,0.684l-4.678,0.613l-9.356,1.217l-9.37,1.097
			c-6.237,0.809-12.502,1.377-18.751,2.095c-6.26,0.615-12.516,1.273-18.782,1.824l-9.398,0.854l-9.409,0.737
			c-3.136,0.26-6.274,0.472-9.415,0.673l-9.42,0.604c-6.283,0.343-12.568,0.704-18.857,0.95c-6.289,0.271-12.581,0.403-18.874,0.565
			c-6.294,0.069-12.588,0.166-18.882,0.143c-6.294-0.001-12.588-0.106-18.88-0.207l-9.438-0.202l-9.436-0.308
			c-6.288-0.243-12.576-0.506-18.86-0.833c-6.283-0.356-12.562-0.76-18.839-1.204c-6.276-0.449-12.549-0.941-18.816-1.488
			c-6.268-0.534-12.523-1.223-18.776-1.907C15.304,215.879,9.172,215.125,3.059,214.215z"/>
	</g>
</g>
<g>
	<path style="fill:#ED1C24;" d="M145.61,4.273c1.104-0.616-0.178,10.472-0.6,11.315c-0.42,0.841-7.787,4.63-14.102,4.208
		c-6.313-0.419-7.567-2.554-14.728-2.554c-7.156,0-15.071,5.666-13.688,1.019c3.373-11.335-6.063-21.192,0-15.935
		c6.318,5.482,16.595,0.136,24.596,0.767C135.088,3.724,136.137,9.534,145.61,4.273z"/>
	<g>
		<path d="M145.572,4.181c0.017,0.001-0.009-0.015,0.119-0.031c0.128-0.006,0.23,0.115,0.275,0.23
			c0.103,0.242,0.146,0.59,0.174,1.043c0.059,0.906-0.01,2.225-0.098,3.901c-0.047,0.839-0.127,1.764-0.211,2.773
			c-0.09,1.016-0.166,2.091-0.382,3.287c-0.017,0.077-0.033,0.153-0.062,0.245c-0.019,0.051-0.021,0.086-0.081,0.182
			c-0.024,0.036-0.025,0.053-0.071,0.106c-0.176,0.214-0.268,0.272-0.405,0.392c-0.254,0.206-0.516,0.384-0.784,0.561
			c-0.54,0.345-1.106,0.666-1.7,0.975c-1.186,0.616-2.476,1.179-3.865,1.67c-1.396,0.462-2.892,0.876-4.496,1.065
			c-0.8,0.099-1.626,0.157-2.472,0.144c-0.415-0.013-0.87-0.045-1.262-0.086c-0.395-0.03-0.819-0.082-1.253-0.143
			c-1.702-0.231-3.401-0.736-5.021-1.312c-1.624-0.568-3.256-1.039-5.003-1.274c-1.748-0.24-3.553-0.378-5.342-0.095
			c-1.805,0.236-3.591,0.768-5.385,1.321c-0.895,0.289-1.789,0.596-2.71,0.866c-0.461,0.136-0.929,0.258-1.42,0.349
			c-0.487,0.061-1.018,0.199-1.637-0.139c-0.313-0.188-0.471-0.566-0.495-0.857c-0.03-0.3,0.008-0.568,0.059-0.824
			c0.12-0.506,0.242-0.942,0.331-1.399c0.181-0.916,0.298-1.846,0.333-2.778c0.177-3.757-0.9-7.404-2.304-10.818l-0.54-1.313
			c-0.09-0.233-0.181-0.45-0.264-0.761c-0.021-0.076-0.041-0.174-0.056-0.289c0.021-0.16-0.104-0.261,0.185-0.771
			c0.057-0.093,0.202-0.222,0.343-0.292c0.164-0.083,0.231-0.083,0.354-0.102c0.131-0.013,0.196-0.002,0.245,0.006
			c0.058,0.008,0.117,0.02,0.172,0.035c0.146,0.046,0.253,0.097,0.329,0.138c0.573,0.328,0.889,0.609,1.278,0.917l0.545,0.454
			l0.519,0.406c1.31,0.977,2.93,1.531,4.576,1.722c3.336,0.351,6.727-0.339,9.967-0.834c3.24-0.51,6.45-1.001,9.471-0.552
			c1.498,0.185,2.894,0.644,4.137,1.166c1.245,0.531,2.336,1.152,3.369,1.648c1.031,0.495,2.021,0.869,2.987,1.007
			c0.963,0.166,1.88,0.087,2.686-0.061c1.625-0.303,2.826-0.878,3.63-1.252c0.805-0.387,1.222-0.619,1.222-0.619L145.572,4.181z
			 M145.658,4.36c0,0-0.414,0.244-1.218,0.651c-0.808,0.396-2.002,0.987-3.653,1.413c-0.827,0.191-1.778,0.343-2.826,0.277
			c-1.049-0.048-2.162-0.353-3.274-0.766c-1.113-0.416-2.249-0.903-3.461-1.278c-1.211-0.377-2.502-0.616-3.865-0.696
			c-2.719-0.131-5.724,0.38-8.951,0.964c-1.615,0.304-3.302,0.577-5.064,0.774c-1.762,0.195-3.619,0.253-5.524-0.022
			c-1.902-0.281-3.841-0.978-5.461-2.271l-0.56-0.467l-0.513-0.449c-0.328-0.279-0.72-0.614-0.952-0.76
			c-0.026-0.016-0.025-0.013,0.01-0.005c0.026,0.009,0.057,0.016,0.086,0.019c0.02,0,0.058,0.007,0.158,0.002
			c0.095-0.013,0.13-0.021,0.271-0.081c0.119-0.053,0.23-0.174,0.278-0.237c0.22-0.41,0.111-0.384,0.135-0.43
			c0,0,0,0.017,0.009,0.056c0.029,0.144,0.103,0.367,0.174,0.573l0.476,1.318c1.345,3.572,2.136,7.557,1.741,11.475
			c-0.094,0.977-0.273,1.944-0.518,2.892l-0.396,1.373c-0.106,0.422-0.101,0.847,0.102,0.949c0.223,0.158,0.721,0.142,1.151,0.074
			c0.448-0.066,0.9-0.188,1.351-0.312c0.902-0.256,1.801-0.554,2.702-0.835c1.793-0.592,3.608-1.111,5.455-1.45
			c0.921-0.167,1.867-0.262,2.798-0.283c0.922-0.027,1.843-0.037,2.759,0.02c1.832,0.084,3.646,0.451,5.325,0.89
			c1.683,0.425,3.256,0.819,4.822,0.993c1.604,0.202,3.087,0.272,4.569,0.12c1.474-0.155,2.906-0.406,4.262-0.762
			c1.36-0.331,2.65-0.747,3.842-1.221c0.596-0.237,1.168-0.49,1.703-0.765c0.264-0.139,0.523-0.282,0.753-0.435
			c0.264-0.209,0.321-0.148,0.4-0.459c0.548-2.206,0.799-4.263,0.978-5.912c0.188-1.661,0.22-2.978,0.189-3.864
			c-0.019-0.441-0.064-0.785-0.143-0.973c-0.04-0.098-0.085-0.117-0.083-0.111c0.01-0.013-0.064,0.023-0.05,0.016L145.658,4.36z"/>
	</g>
</g>
<path style="fill:#CE181E;" d="M32.461,253.904c0,0,132.186,11.371,194.727-8.528c55.585-17.686,73.91-35.533,73.91-35.533
	s-37.666,50.696-44.772,52.828c-7.106,2.133-207.519,1.184-216.046,0.473C38.039,262.957,32.461,253.904,32.461,253.904z"/>
<path style="fill:#FFFFFF;" d="M158.145,32.173c0,0,63.961,69.646,71.778,166.299c0.351,4.309,9.95,0,9.95,0
	s0.416-16.981-9.239-53.301C215.71,89.027,158.145,32.173,158.145,32.173z"/>
<g>
	<g>
		<path d="M143.424,17.818c4.028,1.154,6.557,4.617,9.876,6.927c0.519,0.36,2.251-0.41,1.803-0.723
			c-3.399-2.364-5.998-5.892-10.124-7.073C144.445,16.796,142.705,17.613,143.424,17.818L143.424,17.818z"/>
	</g>
</g>
<g>
	<g>
		<path d="M135.65,208.058c6.425,3.354,14.594,1.174,21.475,1.064c1.123-0.018,1.466-1.497,0.154-1.477
			c-6.567,0.105-14.427,2.249-20.525-0.936C135.927,206.278,134.549,207.482,135.65,208.058L135.65,208.058z"/>
	</g>
</g>
<g>
	<g>
		<path d="M144.238,18.517c-2.318,8.166-2.459,17.235-6,25c-0.243,0.533,1.656,0.326,1.926-0.266c3.54-7.764,3.682-16.833,6-25
			C146.344,17.617,144.412,17.902,144.238,18.517L144.238,18.517z"/>
	</g>
</g>
</svg>
