<?xml version="1.0" encoding="iso-8859-1"?>
<!-- Generator: Adobe Illustrator 16.0.0, SVG Export Plug-In . SVG Version: 6.00 Build 0)  -->
<!DOCTYPE svg PUBLIC "-//W3C//DTD SVG 1.1//EN" "http://www.w3.org/Graphics/SVG/1.1/DTD/svg11.dtd">
<svg version="1.1" id="animals" xmlns="http://www.w3.org/2000/svg" xmlns:xlink="http://www.w3.org/1999/xlink" x="0px" y="0px"
	 width="130.962px" height="66.501px" viewBox="0 0 130.962 66.501" style="enable-background:new 0 0 130.962 66.501;"
	 xml:space="preserve">
<g>
	<path style="fill:#F9EC31;" d="M120.495,2.564c0,0-24.89,3.512-35.624,3.627c-10.734,0.113-34.18-1.376-48.719,4.359
		c-14.54,5.737-23.72,15.133-26.582,20.582c-2.249,4.271-4.514,6.695-6.094,8.383c-1.524,1.623,2.357,1.936,1.816,3.77
		c-0.186,0.63-5.205-2.589-3.229,2.113c1.919,4.566,20.006,13.827,44.134,14.66c20.906,0.721,35.465,4.086,52.249,3.424
		C110.549,63.008,124,60.32,124,60.32s-18.477-14.802-18.116-32.232C106.244,10.656,116.402,5.835,120.495,2.564z"/>
	
		<radialGradient id="SVGID_1_" cx="42.5986" cy="10.8188" r="58.1738" gradientTransform="matrix(0.9998 0.0206 -0.0206 0.9998 1.0709 -0.6506)" gradientUnits="userSpaceOnUse">
		<stop  offset="0" style="stop-color:#FFFFFF"/>
		<stop  offset="0.6044" style="stop-color:#F9ED37"/>
		<stop  offset="1" style="stop-color:#F9EC31"/>
	</radialGradient>
	<path style="fill:url(#SVGID_1_);" d="M120.495,2.564c0,0-24.89,3.512-35.624,3.627c-10.734,0.113-34.18-1.376-48.719,4.359
		c-14.54,5.737-23.72,15.133-26.582,20.582c-2.249,4.271-4.514,6.695-6.094,8.383c-1.375,1.464,1.643,1.865,1.848,3.277
		c1.264-1.509,2.7-3.476,4.133-6.197c2.863-5.447,12.041-14.843,26.582-20.58c14.54-5.736,37.985-4.246,48.721-4.361
		c6.895-0.073,19.627-1.549,27.855-2.594C115.501,5.875,118.629,4.057,120.495,2.564z"/>
	<path style="fill:#231F20;" d="M19.869,39.906c3.561-3.034,5.259-7.268,6.225-9.128c1.677-3.235,2.973-7.731,2.76-10.013
		c-0.161-1.736-0.981-4.347-1.85-5.768c-5.644,3.294-10.063,7.001-13.15,10.349L12.17,40.919
		C12.17,40.919,15.136,43.941,19.869,39.906z"/>
	
		<linearGradient id="SVGID_2_" gradientUnits="userSpaceOnUse" x1="60.2773" y1="31.5342" x2="129.7812" y2="31.5342" gradientTransform="matrix(0.9998 0.0206 -0.0206 0.9998 1.0709 -0.6506)">
		<stop  offset="0" style="stop-color:#2B388F"/>
		<stop  offset="1" style="stop-color:#1C216B"/>
	</linearGradient>
	<path style="fill:url(#SVGID_2_);" d="M130.24,17.858c-1.605-5.903-3.291,0.017-15.5,5.133c-2.609,1.095-5.754,1.314-8.613,1.179
		c1.257-13.339,10.489-18.507,14.368-21.605c0,0-24.89,3.512-35.624,3.627c-3.995,0.042-9.746-0.137-16.147-0.085
		c-1.4,1.116-5.048,3.337-6.137,7.337c-1.815,6.671-2.071,19.075-1.929,28.469c0.141,9.393-0.367,17.767,11.661,20.026
		c0.802,0.151,1.657,0.302,2.55,0.452c7.978,0.799,15.52,1.41,23.577,1.092C110.549,63.008,124,60.32,124,60.32
		s-12.264-9.823-16.614-22.892c2.974,0.151,6.476,1.253,9.991,4.456c3.537,3.221,4.672,5.367,6.678,7.461
		c2.199,2.289,5.112,1.297,4.904-2.001C127.953,31.225,131.31,21.791,130.24,17.858z"/>
	<path style="fill:#2B388F;" d="M9.57,31.133c2.143-4.075,7.818-10.357,16.624-15.668c0.822,1.176,1.81,3.184,1.602,5.899
		c-0.343,4.519-6.053,12.954-7.384,16.447c-1.328,3.494-7.927,6.376-9.573,0.809c-0.575-1.948-1.043-4.603-1.41-7.23
		C9.475,31.302,9.521,31.221,9.57,31.133z"/>
	<path style="fill:#231F20;" d="M37.814,9.943l-3.405,10.514c0,0,3.29,1.336,5.935-1.391c2.643-2.728,3.055-6.186,3.229-7.549
		c0.111-0.873,0.477-2.36,0.725-3.317C42.025,8.672,39.848,9.246,37.814,9.943z"/>
	<path style="fill:#182460;" d="M119.565,56.192c-4.971,0.831-13.268,2.042-21.019,2.347c-11.996,0.473-22.869-1.109-35.725-2.314
		c1.605,2.73,4.441,4.764,9.497,5.714c0.802,0.151,1.657,0.302,2.55,0.452c7.978,0.799,15.52,1.41,23.577,1.092
		C110.549,63.008,124,60.32,124,60.32S122.117,58.81,119.565,56.192z"/>
	
		<linearGradient id="SVGID_3_" gradientUnits="userSpaceOnUse" x1="1.4463" y1="52.5459" x2="75.0645" y2="52.5459" gradientTransform="matrix(0.9998 0.0206 -0.0206 0.9998 1.0709 -0.6506)">
		<stop  offset="0" style="stop-color:#F9EC31"/>
		<stop  offset="1" style="stop-color:#F9B831"/>
	</linearGradient>
	<path style="fill:url(#SVGID_3_);" d="M62.822,56.225c0.025-0.014,0.047-0.024,0.071-0.038c-5.149-0.479-10.604-0.894-16.595-1.071
		C8.483,53.988,2.449,42.482,1.862,42.98c-0.355,0.3-0.396,0.997,0.201,2.418c1.919,4.566,20.006,13.827,44.134,14.66
		c10.867,0.375,20.014,1.461,28.652,2.327c-0.887-0.147-1.732-0.298-2.53-0.447C67.264,60.988,64.428,58.955,62.822,56.225z"/>
	<path style="fill:#2B388F;" d="M31.517,12.594c0.64,1.176,1.131,2.804,0.981,4.992c-0.206,3.039,4.336,4.384,6.739,1.44
		c2.403-2.944,2.192-5.421,2.918-8.921c0.108-0.52,0.141-1.003,0.133-1.456c-2.166,0.523-4.229,1.149-6.136,1.901
		C34.537,11.188,32.999,11.877,31.517,12.594z"/>
	<g>
		
			<linearGradient id="SVGID_4_" gradientUnits="userSpaceOnUse" x1="21.7148" y1="39.2944" x2="34.041" y2="39.2944" gradientTransform="matrix(0.9998 0.0206 -0.0206 0.9998 1.0709 -0.6506)">
			<stop  offset="0" style="stop-color:#F9EC31"/>
			<stop  offset="1" style="stop-color:#F9B831"/>
		</linearGradient>
		<path style="fill:url(#SVGID_4_);" d="M33.137,42.071c0.412-3.325,0.322-6.712,0.006-10.042c-0.097-1.032-0.804-2.6-1.131-3.586
			c-0.734-2.228,1.424-2.639,2.035-0.739c0.576,2.7,0.09,6.103,0.135,8.852c0.059,3.567,0.57,7.852-1.775,10.769
			c-1.57,1.953-7.243,4.211-8.748,4.569c-1.762,0.158-2.677-0.592-1.21-1.262C24.352,49.761,32.389,48.168,33.137,42.071z"/>
	</g>
	<path style="fill:#231F20;" d="M130.24,17.858c-1.287-4.731-2.629-1.868-9.396,2.09c1.125-0.394,4.473-1.543,5.611-1.693
		c1.271-0.169,2.035,0.725,2.093,2.581c0.062,1.854-1.243,9.346-1.457,13.83c-0.341,7.217,0.926,11.929-0.361,12.879
		c-1.179,0.867-2.985,0.812-4.386-0.193c0.551,0.689,1.091,1.344,1.711,1.994c2.199,2.289,5.112,1.297,4.904-2.001
		C127.953,31.225,131.31,21.791,130.24,17.858z"/>
	<g>
		<path style="fill:#5164BF;" d="M73.387,16.489c0.105-1.768-1.184-2.7-1.184-2.7c0.045,0.003,1.943,0.407,1.967,2.695l0,0
			c0,0.041,0,0.08-0.002,0.116l0,0c-0.061,2.299-2.176,2.638-2.202,2.639l0,0C71.966,19.239,73.285,18.254,73.387,16.489z"/>
	</g>
	<g>
		<path style="fill:#5164BF;" d="M73.056,21.948c0.103-1.767-1.185-2.699-1.185-2.699c0.047,0.002,1.942,0.407,1.965,2.695l0,0
			c0.001,0.04,0,0.08-0.002,0.114l0,0c-0.061,2.299-2.174,2.64-2.199,2.641l0,0C71.635,24.699,72.953,23.714,73.056,21.948z"/>
	</g>
	<g>
		<path style="fill:#5164BF;" d="M72.918,27.387c0.104-1.766-1.183-2.699-1.183-2.699c0.046,0.003,1.942,0.408,1.965,2.696l0,0
			c0.002,0.04-0.001,0.081-0.003,0.115l0,0c-0.061,2.3-2.172,2.638-2.2,2.64l0,0C71.497,30.139,72.818,29.153,72.918,27.387z"/>
	</g>
	<g>
		<path style="fill:#5164BF;" d="M72.735,32.857c0.101-1.767-1.187-2.699-1.187-2.699c0.048,0.002,1.943,0.41,1.966,2.695l0,0
			c0,0.041-0.002,0.08-0.003,0.115l0,0c-0.06,2.299-2.174,2.64-2.199,2.64l0,0C71.312,35.608,72.629,34.623,72.735,32.857z"/>
	</g>
	<g>
		<path style="fill:#5164BF;" d="M75.66,29.729c0.105-1.766-1.184-2.699-1.184-2.699c0.048,0.003,1.943,0.408,1.965,2.695l0,0
			c0,0.043-0.002,0.082-0.003,0.115l0,0c-0.06,2.3-2.173,2.639-2.2,2.641l0,0C74.238,32.48,75.557,31.495,75.66,29.729z"/>
	</g>
	<g>
		<path style="fill:#5164BF;" d="M75.838,24.331c0.102-1.767-1.187-2.7-1.187-2.7c0.05,0.003,1.944,0.41,1.966,2.696l0,0
			c0.002,0.042-0.001,0.082-0.002,0.115l0,0c-0.061,2.299-2.176,2.638-2.199,2.64l0,0C74.416,27.082,75.734,26.098,75.838,24.331z"
			/>
	</g>
	<g>
		<path style="fill:#5164BF;" d="M66.692,38.655c0.101-1.767-1.186-2.7-1.186-2.7c0.048,0.003,1.943,0.408,1.967,2.696l0,0
			c0.001,0.041-0.001,0.081-0.003,0.114l0,0c-0.061,2.3-2.174,2.639-2.2,2.641l0,0C65.271,41.406,66.59,40.421,66.692,38.655z"/>
	</g>
	<g>
		<path style="fill:#5164BF;" d="M66.867,33.257c0.105-1.767-1.184-2.699-1.184-2.699c0.048,0.003,1.943,0.408,1.967,2.696l0,0
			c0,0.041-0.002,0.08-0.003,0.114l0,0c-0.06,2.299-2.173,2.639-2.2,2.64l0,0C65.447,36.008,66.768,35.023,66.867,33.257z"/>
	</g>
	<g>
		<path style="fill:#FFFFFF;" d="M41.713,38.141c0.102-1.767-1.184-2.7-1.184-2.7c0.046,0.003,1.941,0.408,1.966,2.695l0,0
			c0,0.042-0.001,0.081-0.001,0.114l0,0c-0.062,2.3-2.176,2.64-2.203,2.641l0,0C40.291,40.891,41.611,39.906,41.713,38.141z"/>
	</g>
	<g>
		<path style="fill:#FFFFFF;" d="M41.89,32.742c0.102-1.768-1.185-2.699-1.185-2.699c0.047,0.002,1.941,0.408,1.965,2.695l0,0
			c0.001,0.041-0.001,0.08-0.002,0.115l0,0c-0.06,2.298-2.174,2.639-2.201,2.639l0,0C40.467,35.492,41.785,34.509,41.89,32.742z"/>
	</g>
	<g>
		<path style="fill:#5164BF;" d="M72.498,38.36c0.103-1.767-1.185-2.7-1.185-2.7c0.048,0.003,1.94,0.408,1.967,2.697l0,0
			c0,0.039-0.003,0.079-0.001,0.114l0,0c-0.063,2.299-2.178,2.639-2.201,2.639l0,0C71.078,41.11,72.395,40.126,72.498,38.36z"/>
	</g>
	<g>
		<path style="fill:#5164BF;" d="M92.041,27.781c0.105-1.766-1.184-2.7-1.184-2.7c0.047,0.004,1.943,0.409,1.967,2.696l0,0
			c0.002,0.041-0.002,0.081-0.002,0.115l0,0c-0.061,2.3-2.174,2.64-2.2,2.64l0,0C90.622,30.532,91.941,29.549,92.041,27.781z"/>
	</g>
	<g>
		<path style="fill:#5164BF;" d="M91.857,33.252c0.102-1.768-1.183-2.7-1.183-2.7c0.044,0.003,1.94,0.409,1.963,2.697l0,0
			c0,0.04-0.002,0.079-0.003,0.114l0,0c-0.059,2.299-2.172,2.639-2.199,2.64l0,0C90.436,36.003,91.754,35.018,91.857,33.252z"/>
	</g>
	<g>
		<path style="fill:#5164BF;" d="M91.621,38.754c0.102-1.766-1.184-2.699-1.184-2.699c0.047,0.003,1.942,0.407,1.966,2.696l0,0
			c0.001,0.041,0,0.08-0.002,0.114l0,0c-0.062,2.3-2.176,2.64-2.2,2.64l0,0C90.201,41.505,91.518,40.521,91.621,38.754z"/>
	</g>
	<g>
		<path style="fill:#5164BF;" d="M81.584,24.954c0.103-1.767-1.183-2.699-1.183-2.699c0.044,0.003,1.94,0.408,1.964,2.697l0,0
			c0.001,0.039-0.002,0.08-0.004,0.113l0,0c-0.061,2.301-2.174,2.639-2.199,2.64l0,0C80.162,27.705,81.48,26.721,81.584,24.954z"/>
	</g>
	<g>
		<path style="fill:#5164BF;" d="M81.446,30.393c0.104-1.766-1.183-2.698-1.183-2.698c0.045,0.003,1.941,0.409,1.965,2.695l0,0
			c0.001,0.042-0.002,0.081-0.003,0.114l0,0c-0.06,2.301-2.174,2.641-2.2,2.641l0,0C80.025,33.145,81.346,32.16,81.446,30.393z"/>
	</g>
	<g>
		<path style="fill:#5164BF;" d="M81.262,35.865c0.104-1.768-1.184-2.701-1.184-2.701c0.045,0.004,1.939,0.408,1.965,2.696l0,0
			c0.001,0.042-0.003,0.081-0.003,0.116l0,0c-0.06,2.298-2.173,2.638-2.2,2.639l0,0C79.84,38.615,81.158,37.63,81.262,35.865z"/>
	</g>
	<g>
		<path style="fill:#5164BF;" d="M81.027,41.366c0.102-1.767-1.187-2.699-1.187-2.699c0.048,0.003,1.943,0.408,1.966,2.695l0,0
			c0.002,0.041-0.002,0.081-0.003,0.115l0,0c-0.061,2.3-2.173,2.64-2.2,2.64l0,0C79.604,44.117,80.922,43.133,81.027,41.366z"/>
	</g>
	<g>
		<path style="fill:#5164BF;" d="M70.008,24.553c0.104-1.766-1.184-2.699-1.184-2.699c0.047,0.002,1.943,0.407,1.965,2.695l0,0
			c0.001,0.042-0.002,0.081-0.002,0.115l0,0c-0.059,2.299-2.174,2.639-2.201,2.641l0,0C68.586,27.305,69.906,26.32,70.008,24.553z"
			/>
	</g>
	<g>
		<path style="fill:#5164BF;" d="M69.871,29.992c0.105-1.766-1.182-2.701-1.182-2.701c0.045,0.004,1.941,0.409,1.964,2.698l0,0
			c0.002,0.04-0.001,0.08-0.003,0.114l0,0c-0.061,2.3-2.171,2.64-2.2,2.64l0,0C68.45,32.743,69.77,31.758,69.871,29.992z"/>
	</g>
	<g>
		<path style="fill:#5164BF;" d="M69.686,35.462c0.102-1.766-1.182-2.699-1.182-2.699c0.045,0.003,1.939,0.409,1.963,2.696l0,0
			c0,0.041-0.001,0.08-0.003,0.115l0,0c-0.061,2.298-2.175,2.638-2.196,2.64l0,0C68.268,38.214,69.584,37.229,69.686,35.462z"/>
	</g>
	<g>
		<path style="fill:#5164BF;" d="M69.451,40.965c0.103-1.767-1.184-2.699-1.184-2.699c0.045,0.002,1.941,0.408,1.965,2.695l0,0
			c0.001,0.042-0.002,0.082-0.002,0.116l0,0c-0.062,2.299-2.175,2.639-2.202,2.639l0,0C68.028,43.716,69.349,42.731,69.451,40.965z"
			/>
	</g>
	<g>
		<path style="fill:#FFFFFF;" d="M48.019,15.966c0.104-1.768-1.185-2.7-1.185-2.7c0.047,0.003,1.943,0.407,1.967,2.696l0,0
			c0,0.041-0.002,0.08-0.002,0.115l0,0c-0.062,2.298-2.176,2.638-2.202,2.64l0,0C46.597,18.717,47.917,17.731,48.019,15.966z"/>
	</g>
	<g>
		<path style="fill:#FFFFFF;" d="M47.688,21.425c0.102-1.767-1.186-2.699-1.186-2.699c0.047,0.002,1.941,0.407,1.965,2.695l0,0
			c0.002,0.042-0.002,0.08-0.002,0.114l0,0c-0.061,2.299-2.174,2.64-2.201,2.641l0,0C46.264,24.176,47.583,23.19,47.688,21.425z"/>
	</g>
	<g>
		<path style="fill:#FFFFFF;" d="M47.55,26.863c0.104-1.766-1.182-2.699-1.182-2.699c0.044,0.003,1.94,0.408,1.962,2.696l0,0
			c0.002,0.04,0,0.081-0.001,0.116l0,0c-0.06,2.299-2.175,2.638-2.198,2.639l0,0C46.131,29.615,47.447,28.631,47.55,26.863z"/>
	</g>
	<g>
		<path style="fill:#FFFFFF;" d="M47.365,32.334c0.103-1.766-1.186-2.7-1.186-2.7c0.049,0.004,1.94,0.41,1.966,2.697l0,0
			c0.001,0.041-0.001,0.079-0.003,0.114l0,0c-0.061,2.3-2.175,2.64-2.199,2.64l0,0C45.943,35.085,47.263,34.101,47.365,32.334z"/>
	</g>
	<g>
		<path style="fill:#FFFFFF;" d="M47.129,37.837c0.104-1.768-1.184-2.699-1.184-2.699c0.047,0.003,1.942,0.407,1.965,2.695l0,0
			c0,0.041-0.003,0.08-0.003,0.115l0,0c-0.06,2.298-2.173,2.639-2.2,2.639l0,0C45.707,40.587,47.025,39.602,47.129,37.837z"/>
	</g>
	<g>
		<path style="fill:#FFFFFF;" d="M44.639,24.029c0.104-1.766-1.184-2.699-1.184-2.699c0.047,0.002,1.943,0.407,1.965,2.696l0,0
			c0,0.041-0.002,0.081-0.002,0.115l0,0c-0.059,2.298-2.173,2.638-2.201,2.64l0,0C43.217,26.781,44.537,25.797,44.639,24.029z"/>
	</g>
	<g>
		<path style="fill:#FFFFFF;" d="M44.505,29.469c0.102-1.767-1.187-2.7-1.187-2.7c0.049,0.003,1.941,0.409,1.965,2.698l0,0
			c0.004,0.039,0,0.08-0.002,0.114l0,0c-0.06,2.3-2.172,2.639-2.201,2.639l0,0C43.08,32.22,44.401,31.235,44.505,29.469z"/>
	</g>
	<g>
		<path style="fill:#FFFFFF;" d="M44.318,34.939c0.103-1.766-1.185-2.699-1.185-2.699c0.048,0.002,1.942,0.408,1.965,2.695l0,0
			c0.001,0.042-0.001,0.08-0.003,0.115l0,0c-0.061,2.299-2.173,2.639-2.199,2.639l0,0C42.896,37.689,44.214,36.705,44.318,34.939z"
			/>
	</g>
	<g>
		<path style="fill:#FFFFFF;" d="M44.083,40.441c0.105-1.766-1.186-2.699-1.186-2.699c0.048,0.003,1.944,0.409,1.967,2.696l0,0
			c0.001,0.041-0.004,0.081-0.003,0.115l0,0c-0.061,2.3-2.174,2.639-2.201,2.64l0,0C42.66,43.193,43.979,42.208,44.083,40.441z"/>
	</g>
	<g>
		<path style="fill:#FFFFFF;" d="M39.274,23.919c0.102-1.766-1.185-2.7-1.185-2.7c0.047,0.004,1.94,0.408,1.965,2.697l0,0
			c0.001,0.041-0.001,0.08-0.003,0.114l0,0c-0.06,2.299-2.175,2.638-2.202,2.641l0,0C37.85,26.671,39.171,25.686,39.274,23.919z"/>
	</g>
	<g>
		<path style="fill:#FFFFFF;" d="M39.137,29.357c0.103-1.766-1.184-2.7-1.184-2.7c0.045,0.004,1.943,0.409,1.966,2.698l0,0
			c0,0.039-0.003,0.08-0.002,0.114l0,0c-0.06,2.3-2.174,2.64-2.201,2.64l0,0C37.716,32.109,39.034,31.124,39.137,29.357z"/>
	</g>
	<g>
		<path style="fill:#FFFFFF;" d="M38.952,34.829c0.102-1.767-1.187-2.7-1.187-2.7c0.048,0.004,1.943,0.409,1.965,2.695l0,0
			c0.003,0.042-0.002,0.082-0.002,0.116l0,0c-0.061,2.298-2.172,2.639-2.199,2.639l0,0C37.529,37.579,38.848,36.595,38.952,34.829z"
			/>
	</g>
	<g>
		<path style="fill:#FFFFFF;" d="M38.715,40.331c0.104-1.766-1.184-2.699-1.184-2.699c0.047,0.002,1.943,0.408,1.965,2.695l0,0
			c0,0.042-0.002,0.082-0.002,0.116l0,0c-0.061,2.299-2.175,2.638-2.201,2.639l0,0C37.293,43.082,38.611,42.098,38.715,40.331z"/>
	</g>
	<g>
		<path style="fill:#5164BF;" d="M78.934,22.069c0.104-1.767-1.184-2.699-1.184-2.699c0.045,0.002,1.943,0.408,1.966,2.695l0,0
			c-0.001,0.042-0.003,0.08-0.003,0.114l0,0c-0.059,2.299-2.174,2.64-2.2,2.641l0,0C77.513,24.82,78.831,23.835,78.934,22.069z"/>
	</g>
	<g>
		<path style="fill:#5164BF;" d="M78.6,27.528c0.105-1.766-1.182-2.699-1.182-2.699c0.046,0.003,1.941,0.408,1.966,2.696l0,0
			c0,0.041-0.001,0.08-0.002,0.114l0,0c-0.063,2.3-2.173,2.639-2.201,2.641l0,0C77.181,30.28,78.5,29.294,78.6,27.528z"/>
	</g>
	<g>
		<path style="fill:#5164BF;" d="M78.466,32.969c0.104-1.768-1.185-2.701-1.185-2.701c0.047,0.004,1.941,0.408,1.965,2.697l0,0
			c0.002,0.04-0.002,0.08-0.004,0.113l0,0c-0.059,2.301-2.17,2.641-2.198,2.641l0,0C77.044,35.719,78.364,34.733,78.466,32.969z"/>
	</g>
	<g>
		<path style="fill:#5164BF;" d="M78.279,38.438c0.104-1.766-1.185-2.699-1.185-2.699c0.048,0.004,1.942,0.409,1.967,2.696l0,0
			c0.001,0.041-0.003,0.08-0.003,0.114l0,0c-0.062,2.301-2.173,2.639-2.201,2.641l0,0C76.857,41.189,78.177,40.205,78.279,38.438z"
			/>
	</g>
	<g>
		<path style="fill:#5164BF;" d="M78.045,43.94c0.104-1.767-1.186-2.699-1.186-2.699c0.047,0.003,1.941,0.408,1.967,2.695l0,0
			c0,0.042-0.002,0.08-0.003,0.116l0,0c-0.062,2.298-2.175,2.639-2.199,2.639l0,0C76.624,46.691,77.94,45.707,78.045,43.94z"/>
	</g>
	<g>
		<path style="fill:#5164BF;" d="M89.632,19.264c0.104-1.767-1.184-2.7-1.184-2.7c0.046,0.003,1.942,0.409,1.967,2.697l0,0
			c-0.001,0.04-0.002,0.08-0.003,0.113l0,0c-0.061,2.3-2.174,2.64-2.201,2.642l0,0C88.211,22.016,89.531,21.03,89.632,19.264z"/>
	</g>
	<g>
		<path style="fill:#5164BF;" d="M89.301,24.723c0.103-1.766-1.186-2.699-1.186-2.699c0.047,0.003,1.944,0.409,1.966,2.695l0,0
			c0.001,0.042-0.002,0.082-0.003,0.115l0,0c-0.059,2.301-2.172,2.639-2.199,2.641l0,0C87.879,27.475,89.197,26.489,89.301,24.723z"
			/>
	</g>
	<g>
		<path style="fill:#5164BF;" d="M89.162,30.163c0.104-1.768-1.184-2.7-1.184-2.7c0.048,0.003,1.942,0.408,1.964,2.697l0,0
			c0.001,0.04,0,0.079-0.001,0.113l0,0c-0.061,2.3-2.174,2.639-2.197,2.641l0,0C87.744,32.914,89.062,31.929,89.162,30.163z"/>
	</g>
	<g>
		<path style="fill:#5164BF;" d="M88.976,35.632c0.104-1.767-1.182-2.698-1.182-2.698c0.048,0.002,1.94,0.408,1.965,2.695l0,0
			c0,0.041-0.002,0.08-0.001,0.115l0,0c-0.063,2.3-2.175,2.639-2.203,2.64l0,0C87.555,38.384,88.873,37.399,88.976,35.632z"/>
	</g>
	<g>
		<path style="fill:#5164BF;" d="M88.742,41.135c0.102-1.767-1.186-2.698-1.186-2.698c0.047,0.002,1.945,0.407,1.968,2.696l0,0
			c0,0.04-0.003,0.079-0.002,0.113l0,0c-0.063,2.3-2.177,2.639-2.203,2.641l0,0C87.319,43.887,88.641,42.902,88.742,41.135z"/>
	</g>
	
		<linearGradient id="SVGID_5_" gradientUnits="userSpaceOnUse" x1="33.75" y1="45.4551" x2="49.7559" y2="45.4551" gradientTransform="matrix(0.9998 0.0206 -0.0206 0.9998 1.0709 -0.6506)">
		<stop  offset="0" style="stop-color:#F9EC31"/>
		<stop  offset="1" style="stop-color:#F9B831"/>
	</linearGradient>
	<path style="fill:url(#SVGID_5_);" d="M33.906,44.036c0,0,4.58-1.272,8.871-0.989c4.285,0.284,7.117,1.97,7.117,1.97
		s-3.65,1.909-5.518,2.456c-1.865,0.547-3.502-0.56-3.502-0.56l0.266,1.372C41.141,48.285,36.274,47.501,33.906,44.036z"/>
	
		<linearGradient id="SVGID_6_" gradientUnits="userSpaceOnUse" x1="7.0518" y1="28.8936" x2="118.4941" y2="-4.0903" gradientTransform="matrix(0.9998 0.0206 -0.0206 0.9998 1.0709 -0.6506)">
		<stop  offset="0" style="stop-color:#373C7D"/>
		<stop  offset="0.2637" style="stop-color:#A99DE0"/>
		<stop  offset="1" style="stop-color:#373C7D"/>
	</linearGradient>
	<path style="fill:url(#SVGID_6_);" d="M27.788,19.949c-0.153-2.002-0.922-3.525-1.594-4.484
		C17.389,20.775,11.713,27.058,9.57,31.133c-0.05,0.088-0.096,0.169-0.142,0.257c0.194,1.393,0.417,2.792,0.672,4.092
		C12.787,31.154,18.813,24.996,27.788,19.949z"/>
	
		<linearGradient id="SVGID_7_" gradientUnits="userSpaceOnUse" x1="6.1094" y1="21.8916" x2="119.1182" y2="-11.1187" gradientTransform="matrix(0.9998 0.0206 -0.0206 0.9998 1.0709 -0.6506)">
		<stop  offset="0" style="stop-color:#A99DE0"/>
		<stop  offset="1" style="stop-color:#373C7D"/>
	</linearGradient>
	<path style="fill:url(#SVGID_7_);" d="M32.502,17.543c1.144-0.528,2.314-1.046,3.537-1.527c1.686-0.665,3.496-1.231,5.393-1.715
		c0.264-1.283,0.401-2.639,0.724-4.195c0.108-0.52,0.141-1.003,0.133-1.456c-2.166,0.523-4.229,1.149-6.136,1.901
		c-1.615,0.638-3.153,1.326-4.636,2.043C32.151,13.763,32.639,15.378,32.502,17.543z"/>
	<g>
		
			<linearGradient id="SVGID_8_" gradientUnits="userSpaceOnUse" x1="7.5869" y1="30.7158" x2="119.0422" y2="-2.2719" gradientTransform="matrix(0.9998 0.0206 -0.0206 0.9998 1.0709 -0.6506)">
			<stop  offset="0" style="stop-color:#373C7D"/>
			<stop  offset="0.2637" style="stop-color:#A99DE0"/>
			<stop  offset="1" style="stop-color:#373C7D"/>
		</linearGradient>
		<path style="fill:url(#SVGID_8_);" d="M84.76,11.654c6.939-0.073,19.788-1.566,28.009-2.613c2.831-3.062,5.884-5.005,7.727-6.477
			c0,0-24.89,3.512-35.624,3.627c-3.995,0.042-9.746-0.137-16.147-0.085c-1.178,0.939-3.942,2.665-5.438,5.569
			C71.759,11.404,79.682,11.709,84.76,11.654z"/>
	</g>
	<path style="fill:#231F20;" d="M103.367,6.457c6.266-0.472,7.493,1.129,5.963,4.319c-4.117,8.585-3.203,13.403-3.203,13.403
		c1.252-13.348,10.49-18.516,14.368-21.615c0,0-24.89,3.512-35.624,3.627c-3.995,0.042-9.746-0.137-16.147-0.085
		C68.724,6.106,84.988,7.832,103.367,6.457z"/>
	<path style="fill:#1B75BB;" d="M116.791,26.158c0,0,10.35-0.113,11.646,0.174c0.562,0.125,1.005,0.307,1.334,0.476
		c0.09-0.706,0.174-1.386,0.252-2.021c-0.455,0.237-1.643,0.806-2.877,0.935C125.58,25.882,116.791,26.158,116.791,26.158z
		 M116.609,28.562c0,0,10.396,0.8,11.692,1.087c0.411,0.091,0.783,0.181,1.105,0.261c0.077-0.687,0.152-1.345,0.229-1.979
		c-0.892,0.322-0.991,0.373-2.354,0.722C126.103,28.953,116.609,28.562,116.609,28.562z M127.543,31.779
		c-1.567,0.164-10.592-0.804-10.592-0.804s10,1.118,10.774,1.46c0.433,0.189,0.978,0.502,1.382,0.744
		c0.058-0.75,0.122-1.475,0.193-2.174C129.232,31.142,128.894,31.641,127.543,31.779z M130.436,19.393
		c-0.021-0.578-0.077-1.096-0.195-1.534c-0.196-0.72-0.393-1.259-0.609-1.649c-0.262,0.746-1.043,2.023-3.397,3.246
		c-1.831,0.952-9.777,3.961-9.777,3.961s9.698-3.248,11.337-3.734C129.086,19.297,130.076,19.353,130.436,19.393z M125.781,35.127
		c-1.89,0.158-9.214-1.36-9.214-1.36s8.293,1.863,9.583,2.346c0.984,0.366,2.18,1.109,2.697,1.447
		c0.044-1.175,0.1-2.315,0.178-3.388C128.869,34.259,127.557,34.98,125.781,35.127z M126.94,38.926
		c-1.36-0.288-10.146-3.528-10.146-3.528s7.749,3.153,8.642,3.889c0.851,0.698,2.621,1.823,3.342,2.671
		c-0.01-1.161,0.003-2.278,0.031-3.355C128.691,38.717,128.136,39.18,126.94,38.926z M128.664,21.586
		c-1.244,0.365-11.836,2.75-11.836,2.75s8.042-1.652,9.799-1.75c2.541-0.145,3.427,1.111,3.427,1.111l0.117-0.158
		c0.16-1.358,0.262-2.527,0.272-3.521C130.393,20.125,129.848,21.238,128.664,21.586z M128.744,42.998c0,0-0.202,0.256-1.881-0.364
		c-1.678-0.621-10.5-5.292-10.5-5.292s8.168,4.854,8.994,5.781c0.662,0.744,2.756,2.682,3.565,3.426
		c-0.058-1.061-0.097-2.09-0.12-3.09L128.744,42.998z M115.879,38.762c0,0,8.314,7.136,9,8.517c0.365,0.729,0.622,2.051,0.788,3.139
		c1.332,0.464,2.604-0.072,3.093-1.435c-0.543-0.327-2.82-1.729-4.049-3.008C123.311,44.513,115.879,38.762,115.879,38.762z"/>
	
		<linearGradient id="SVGID_9_" gradientUnits="userSpaceOnUse" x1="125.1045" y1="31.4199" x2="129.7734" y2="31.4199" gradientTransform="matrix(0.9998 0.0206 -0.0206 0.9998 1.0709 -0.6506)">
		<stop  offset="0" style="stop-color:#2B388F"/>
		<stop  offset="1" style="stop-color:#1C216B"/>
	</linearGradient>
	<path style="fill:url(#SVGID_9_);" d="M125.194,48.13c0.204,0.696,0.359,1.546,0.473,2.287c0.656,0.229,1.3,0.213,1.839-0.024
		c0.021-0.009,0.041-0.021,0.062-0.031c0.108-0.052,0.211-0.111,0.31-0.18c0.027-0.02,0.052-0.039,0.078-0.06
		c0.091-0.068,0.176-0.147,0.254-0.231c0.023-0.027,0.051-0.051,0.072-0.079c0.081-0.093,0.152-0.194,0.221-0.302
		c0.016-0.027,0.035-0.051,0.048-0.079c0.079-0.138,0.151-0.286,0.21-0.448c-0.309-0.188-1.188-0.728-2.106-1.392
		C126.225,47.886,125.727,48.068,125.194,48.13z M128.664,21.586c-0.039,0.012-0.095,0.025-0.143,0.038
		c-0.022,0.323-0.06,0.704-0.104,1.13c1.172,0.314,1.636,0.943,1.636,0.943l0.117-0.158c0.034-0.28,0.063-0.55,0.09-0.814
		c0.013-0.097,0.021-0.192,0.03-0.288c0.088-0.897,0.145-1.706,0.152-2.419C130.393,20.125,129.848,21.238,128.664,21.586z
		 M128.744,42.998c0,0-0.188,0.208-1.519-0.24c0.052,0.875,0.089,1.645,0.094,2.299c0.63,0.594,1.243,1.161,1.604,1.492
		c-0.058-1.061-0.097-2.09-0.119-3.091L128.744,42.998z M127.575,29.519c0.288,0.045,0.54,0.089,0.727,0.13
		c0.411,0.091,0.783,0.181,1.105,0.261c0.068-0.608,0.134-1.19,0.202-1.755c0.009-0.066,0.015-0.132,0.022-0.197
		c0.003-0.01,0.003-0.018,0.004-0.027c-0.79,0.285-0.962,0.359-1.938,0.614C127.656,28.868,127.617,29.193,127.575,29.519z
		 M127.055,38.943c0.014,0.551,0.031,1.084,0.056,1.587c0.656,0.485,1.298,0.993,1.667,1.426c-0.004-0.394-0.002-0.776,0-1.162
		c0.004-0.366,0.005-0.729,0.01-1.089c0.008-0.367,0.013-0.734,0.021-1.093c0-0.004,0-0.008,0-0.011
		C128.697,38.713,128.168,39.143,127.055,38.943z M128.848,37.524c0.021-0.544,0.043-1.081,0.072-1.603
		c0.029-0.6,0.065-1.185,0.105-1.75c-0.116,0.064-0.856,0.47-1.941,0.739c-0.023,0.548-0.038,1.078-0.045,1.598
		c0.729,0.369,1.44,0.811,1.809,1.051C128.848,37.547,128.848,37.536,128.848,37.524z M127.986,26.258
		c0.174,0.023,0.331,0.048,0.451,0.074c0.562,0.125,1.005,0.307,1.334,0.476c0.004-0.012,0.003-0.024,0.006-0.036
		c0.086-0.693,0.168-1.361,0.246-1.985c-0.336,0.178-1.08,0.534-1.944,0.759C128.048,25.78,128.019,26.018,127.986,26.258z
		 M130.436,19.393c-0.009-0.285-0.029-0.557-0.058-0.811c-0.037-0.258-0.077-0.502-0.138-0.724c-0.047-0.169-0.094-0.326-0.14-0.476
		c-0.01-0.033-0.021-0.064-0.03-0.098c-0.037-0.115-0.072-0.226-0.11-0.329c-0.014-0.031-0.023-0.062-0.036-0.092
		c-0.037-0.104-0.078-0.203-0.119-0.294c-0.006-0.021-0.016-0.041-0.023-0.061c-0.051-0.108-0.1-0.209-0.15-0.301
		c-0.197,0.562-0.689,1.426-1.928,2.34c0.28,0.217,0.498,0.55,0.64,0.992C129.361,19.314,130.127,19.359,130.436,19.393z
		 M127.543,31.779c-0.07,0.008-0.148,0.014-0.223,0.02c-0.019,0.166-0.031,0.327-0.048,0.49c0.191,0.051,0.35,0.1,0.453,0.146
		c0.433,0.189,0.978,0.502,1.382,0.744c0-0.004-0.001-0.008-0.001-0.01c0.059-0.734,0.122-1.444,0.19-2.13
		c-0.001-0.009,0.004-0.021,0.004-0.034C129.232,31.142,128.894,31.641,127.543,31.779z"/>
	<g>
		
			<linearGradient id="SVGID_10_" gradientUnits="userSpaceOnUse" x1="34.125" y1="45.79" x2="45.6523" y2="45.79" gradientTransform="matrix(0.9998 0.0206 -0.0206 0.9998 1.0709 -0.6506)">
			<stop  offset="0" style="stop-color:#F9EC31"/>
			<stop  offset="1" style="stop-color:#F69220"/>
		</linearGradient>
		<path style="fill:url(#SVGID_10_);" d="M45.75,46.973c-0.055-0.2-0.154-0.441-0.342-0.585c-0.48-0.367-3.947-1.156-5.89-1.455
			c-1.447-0.223-4.016-0.362-5.247-0.419c0.012,0.018,0.027,0.036,0.039,0.054c1.43,0.163,4.521,0.542,5.554,0.86
			c1.358,0.419,3.134,1.139,3.808,1.543c0.676,0.404,1.133,0.348,1.133,0.348l-0.093,0.049C45.03,47.26,45.383,47.125,45.75,46.973z
			"/>
		
			<linearGradient id="SVGID_11_" gradientUnits="userSpaceOnUse" x1="34.04" y1="44.8765" x2="47.6895" y2="44.8765" gradientTransform="matrix(0.9998 0.0206 -0.0206 0.9998 1.0709 -0.6506)">
			<stop  offset="0" style="stop-color:#F9EC31"/>
			<stop  offset="1" style="stop-color:#F69220"/>
		</linearGradient>
		<path style="fill:url(#SVGID_11_);" d="M46.768,45.18c-1.42-0.681-3.983-0.995-6.354-1.14c-1.856-0.113-4.924,0.214-6.225,0.368
			c0.015,0.018,0.028,0.035,0.042,0.053c1.096-0.033,3.356-0.068,5.132,0.111c2.106,0.211,5.706,0.995,6.577,1.338
			c0.586,0.231,1.197,0.285,1.541,0.297c0.109-0.053,0.221-0.104,0.326-0.154C47.739,45.942,47.441,45.501,46.768,45.18z"/>
		
			<linearGradient id="SVGID_12_" gradientUnits="userSpaceOnUse" x1="33.75" y1="43.8984" x2="49.7559" y2="43.8984" gradientTransform="matrix(0.9998 0.0206 -0.0206 0.9998 1.0709 -0.6506)">
			<stop  offset="0" style="stop-color:#F9EC31"/>
			<stop  offset="1" style="stop-color:#F69220"/>
		</linearGradient>
		<path style="fill:url(#SVGID_12_);" d="M41.104,43.631c2.505,0.148,5.162,0.692,6.616,1.145c0.663,0.207,1.225,0.428,1.546,0.562
			c0.387-0.195,0.629-0.321,0.629-0.321s-2.832-1.686-7.117-1.97c-4.291-0.283-8.871,0.989-8.871,0.989
			c0.08,0.118,0.171,0.226,0.255,0.338C35.561,44.115,39.122,43.512,41.104,43.631z"/>
		
			<linearGradient id="SVGID_13_" gradientUnits="userSpaceOnUse" x1="34.2178" y1="46.3447" x2="43.1523" y2="46.3447" gradientTransform="matrix(0.9998 0.0206 -0.0206 0.9998 1.0709 -0.6506)">
			<stop  offset="0" style="stop-color:#F9EC31"/>
			<stop  offset="1" style="stop-color:#F69220"/>
		</linearGradient>
		<path style="fill:url(#SVGID_13_);" d="M43.217,47.613c0.01-0.044,0.014-0.084,0.021-0.131c0.074-0.422-2.507-1.482-3.932-1.84
			c-1.043-0.259-3.633-0.76-4.945-1.009l0.002,0.001c2.69,0.613,5.29,2.287,5.754,2.652c0.513,0.402,1.023,0.998,1.023,0.998
			l-0.266-1.372C40.875,46.913,41.887,47.583,43.217,47.613z"/>
		
			<linearGradient id="SVGID_14_" gradientUnits="userSpaceOnUse" x1="34.334" y1="46.207" x2="39.3838" y2="46.207" gradientTransform="matrix(0.9998 0.0206 -0.0206 0.9998 1.0709 -0.6506)">
			<stop  offset="0" style="stop-color:#F9EC31"/>
			<stop  offset="1" style="stop-color:#F69220"/>
		</linearGradient>
		<path style="fill:url(#SVGID_14_);" d="M35.688,45.227c-0.463-0.205-0.867-0.352-1.212-0.467c1.483,1.69,3.55,2.619,4.986,3.092
			C38.801,46.664,36.602,45.632,35.688,45.227z"/>
	</g>
	<path style="fill:#1B75BB;" d="M96.224,63.539c0.738-0.014,1.474-0.027,2.223-0.057c0.054-0.002,0.108-0.004,0.166-0.007
		c-2.253-3.987-4.353-9.423-4.353-9.423C94.516,57.524,95.353,60.857,96.224,63.539z M111.878,53.828
		c5.739,3.113,9.984,5.256,11.604,6.062c-1.121-0.956-3.924-3.465-6.971-7.053c-1.959-0.374-4.1-0.904-6.025-1.651
		c-5.329-2.073-8.094-4.955-8.094-4.955S104.234,49.686,111.878,53.828z M112.526,47.6c-4.433-0.892-8.308-3.138-8.308-3.138
		c3.373,3.123,7.025,4.593,9.83,5.278C113.534,49.052,113.025,48.339,112.526,47.6z M97.715,50.938
		c1.178,5.08,3.594,9.654,5.172,12.283c1.312-0.101,2.617-0.221,3.898-0.354c-0.055-0.038-0.109-0.074-0.174-0.114
		C103.373,60.762,97.715,50.938,97.715,50.938z M110.93,62.391c3.229-0.406,6.14-0.854,8.392-1.23
		c-8.212-3.342-18.664-12.59-18.664-12.59C104.135,55.109,108.096,59.647,110.93,62.391z"/>
	<path style="fill:#1B52BB;" d="M102.502,58.312c-0.714,0.052-1.429,0.099-2.143,0.139c0.885,1.91,1.797,3.551,2.527,4.77
		c0.002-0.002,0.006-0.001,0.008-0.001c1.311-0.1,2.611-0.221,3.891-0.353c-0.055-0.038-0.109-0.074-0.174-0.114
		C105.434,62.028,103.934,60.263,102.502,58.312z M106.848,57.928c1.481,1.818,2.886,3.303,4.082,4.463
		c0.385-0.047,0.762-0.096,1.133-0.146c0.072-0.009,0.146-0.019,0.216-0.028c0.302-0.04,0.604-0.081,0.897-0.122
		c0.09-0.011,0.176-0.024,0.264-0.036c0.279-0.039,0.554-0.076,0.823-0.115c0.093-0.014,0.185-0.027,0.273-0.04
		c0.267-0.038,0.529-0.077,0.786-0.114c0.085-0.014,0.171-0.025,0.254-0.038c0.273-0.04,0.541-0.081,0.803-0.121
		c0.062-0.011,0.127-0.019,0.189-0.028c0.648-0.1,1.268-0.199,1.854-0.293c0.048-0.009,0.096-0.016,0.145-0.024
		c0.236-0.039,0.471-0.075,0.693-0.113c0.021-0.005,0.042-0.007,0.062-0.011c-2.298-0.936-4.771-2.334-7.142-3.862
		C110.486,57.523,108.694,57.737,106.848,57.928z M123.454,59.867c-0.114-0.101-0.248-0.216-0.398-0.347
		c-0.05-0.046-0.106-0.094-0.159-0.143c-0.146-0.129-0.3-0.267-0.469-0.419c-0.065-0.059-0.131-0.119-0.198-0.181
		c-0.169-0.157-0.351-0.323-0.539-0.502c-0.074-0.067-0.146-0.136-0.22-0.205c-0.204-0.193-0.416-0.397-0.638-0.612
		c-0.071-0.072-0.146-0.144-0.219-0.217c-0.239-0.232-0.485-0.479-0.739-0.736c-0.065-0.066-0.131-0.134-0.199-0.201
		c-0.035-0.038-0.07-0.074-0.11-0.112c-0.758,0.127-1.603,0.264-2.503,0.403c3.08,1.62,5.337,2.756,6.42,3.294
		C123.475,59.883,123.463,59.873,123.454,59.867z M94.914,58.617c0.367,1.779,0.83,3.451,1.31,4.922
		c0.738-0.014,1.474-0.027,2.223-0.057c0.054-0.002,0.108-0.004,0.166-0.007c-0.872-1.541-1.717-3.294-2.429-4.869
		C95.758,58.613,95.338,58.615,94.914,58.617z"/>
	<path style="fill:#231F20;" d="M98.446,63.482C110.549,63.008,124,60.32,124,60.32s-12.287-9.841-16.626-22.926
		c-0.146,9.064,11.312,21.404,11.312,21.404s-3.015,1.312-9.132,2.643c-7.648,1.666-26.334,1.302-33.075,1.105
		C83.867,63.266,90.938,63.779,98.446,63.482z"/>
	<g>
		<circle style="fill:#FCBA63;" cx="16.284" cy="33.516" r="4.913"/>
		<path style="fill:#231F20;" d="M19.679,31.353c1.192,1.874,0.642,4.363-1.232,5.558c-1.874,1.195-4.361,0.645-5.558-1.232
			c-1.193-1.874-0.644-4.363,1.23-5.558C15.995,28.927,18.48,29.477,19.679,31.353z"/>
		<path style="fill:#FFFFFF;" d="M14.119,30.12c-0.105,0.066-0.191,0.151-0.287,0.228c1.83-0.945,4.106-0.375,5.232,1.396
			c1.128,1.768,0.684,4.072-0.945,5.331c0.109-0.057,0.222-0.099,0.327-0.164c1.874-1.194,2.425-3.684,1.232-5.558
			C18.48,29.477,15.995,28.927,14.119,30.12z"/>
		<path style="fill:#FFFFFF;" d="M16.577,34.821c0.444,0.7,0.239,1.63-0.461,2.075c-0.697,0.446-1.629,0.24-2.073-0.46
			c-0.449-0.701-0.242-1.628,0.459-2.075C15.203,33.916,16.13,34.122,16.577,34.821z"/>
		<path style="fill:#FFFFFF;" d="M15.811,31.441c0.283,0.449,0.15,1.042-0.295,1.326c-0.446,0.284-1.041,0.154-1.327-0.293
			c-0.284-0.447-0.152-1.041,0.297-1.325C14.93,30.864,15.523,30.994,15.811,31.441z"/>
	</g>
	<g>
		<path d="M129.866,25.648c0.169-1.395,0.345-2.789,0.451-4.188c0.058-0.699,0.078-1.4,0.058-2.099c0-0.175-0.027-0.347-0.04-0.521
			c-0.017-0.174-0.027-0.348-0.07-0.517c-0.059-0.339-0.15-0.679-0.258-1.01l0.003,0.009c-0.006-0.013-0.01-0.029-0.011-0.043
			l0.003,0.021l-0.104-0.3l-0.002-0.01l-0.005-0.015l0.007,0.013c-0.028-0.067-0.014-0.039-0.025-0.069l0.004,0.01
			c-0.098-0.239-0.181-0.457-0.304-0.677l-0.009-0.034l-0.002-0.006l0.008,0.033l-0.009-0.021l0.007,0.015
			c-0.071-0.115-0.146-0.245-0.233-0.349l0.004,0.005c-0.099-0.122-0.233-0.242-0.36-0.312c-0.092-0.04-0.13-0.074-0.22-0.085
			l-0.111-0.025l-0.122-0.002c-0.092-0.001-0.148,0.002-0.24,0.021l-0.121,0.023c-0.044,0.007-0.062,0.021-0.111,0.037l-0.476,0.183
			l-0.003,0l-0.338,0.177l0.004-0.002c-2.092,1.39-4.219,2.751-6.346,4.115l-0.051-0.188h0.002l0.396-0.001l-0.345,0.188
			l-1.709,0.936l-0.853,0.472c-0.28,0.167-0.584,0.284-0.875,0.428l-1.765,0.827l-0.883,0.414l-0.932,0.313l-0.923,0.307
			c-0.302,0.117-0.64,0.137-0.958,0.209l-0.971,0.181c-0.322,0.072-0.647,0.11-0.973,0.126l-0.977,0.076
			c-0.326,0.017-0.651,0.069-0.978,0.056l-1.958-0.009l-0.225-0.001l0.033-0.224l0.345-2.279c0.085-0.766,0.331-1.501,0.489-2.254
			c0.099-0.372,0.158-0.754,0.289-1.118l0.366-1.096c0.126-0.364,0.236-0.734,0.375-1.094l0.464-1.06
			c0.163-0.356,0.293-0.701,0.483-1.067l0.562-0.999c0.178-0.336,0.391-0.661,0.608-0.984c0.217-0.322,0.422-0.655,0.649-0.969
			c0.47-0.613,0.92-1.243,1.439-1.816c0.248-0.285,0.506-0.602,0.774-0.868l0.793-0.827l0.067-0.054
			c-0.078,0.055-0.021,0.015-0.022,0.011l0.033-0.031l0.067-0.063l0.133-0.125l0.266-0.252l0.533-0.503l-0.033,0.036
			c0.026-0.032,0.059-0.061,0.093-0.085l-0.038,0.029l0.531-0.463l0.266-0.231l0.133-0.116l0.066-0.058
			c0.034-0.028,0.016-0.018,0.095-0.078l-0.027,0.021c1.468-1.238,3.02-2.329,4.504-3.494l0.292,0.688
			c-3.444,0.485-6.889,0.952-10.339,1.384l-5.178,0.633c-1.729,0.192-3.452,0.419-5.186,0.574l-5.195,0.488l-5.209,0.384
			l-2.616,0.098c-0.869,0.022-1.749,0.087-2.616,0.074l-5.219-0.052l-0.067-0.007L78.92,6.519l0.056,0.005
			c-3.419-0.055-6.833-0.104-10.249-0.09L69.06,6.1v0.002L69.059,6.43l-0.331,0.006l-6.555,0.126L55.63,6.924l-6.511,0.701
			c-1.075,0.177-2.146,0.388-3.219,0.58l-3.219,0.59l-0.024,0.004l-0.001,0l-0.055,0.005l0.058-0.007L42.34,8.872l0.021-0.006
			L42.35,8.87l-0.009,0.003L42.33,8.875l-1.334,0.334l0.016-0.004L40.726,9.28l0.011-0.002c-0.788,0.227-1.566,0.436-2.344,0.701
			c-0.396,0.127-0.77,0.245-1.155,0.393c-0.38,0.142-0.779,0.279-1.144,0.426l-2.264,0.94l-2.223,1.018l-0.002,0.001l-0.007,0.004
			l-5.317,2.844l-0.084,0.045L26.12,15.61l-0.002-0.001l0.161-0.006c-1.217,0.75-2.42,1.504-3.595,2.326
			c-1.165,0.819-2.308,1.676-3.41,2.585c-1.106,0.9-2.179,1.842-3.204,2.833c-1.034,0.98-2.013,2.019-2.946,3.094
			c-0.451,0.536-0.926,1.1-1.34,1.658c-0.434,0.575-0.836,1.138-1.222,1.75c-0.383,0.573-0.716,1.224-1.075,1.846l-1.088,1.85
			c-0.341,0.627-0.769,1.212-1.188,1.8c-0.422,0.587-0.82,1.193-1.297,1.733c-0.465,0.549-0.901,1.125-1.397,1.644l-0.726,0.795
			c-0.052,0.06-0.14,0.147-0.162,0.184l-0.164,0.212l-0.08,0.182c0.002-0.053-0.017,0.105-0.011,0.054l-0.008,0.134l-0.002-0.042
			l0.01,0.052c0.002,0.007-0.007-0.024-0.001-0.002l0.006,0.019l0.012,0.037l0.011,0.037l0.006,0.018
			c-0.002-0.005,0.014,0.037-0.004-0.006l0.034,0.069l-0.012-0.022c0.074,0.12,0.135,0.187,0.251,0.298
			c0.075,0.064,0.221,0.19,0.325,0.264c0.222,0.165,0.48,0.342,0.723,0.533c0.238,0.203,0.494,0.41,0.666,0.727
			c0.104,0.149,0.135,0.315,0.186,0.528l0.011,0.226L5.543,43.31l-0.008,0.037v0.002l-0.047,0.088l-0.002,0.003l-0.004,0.005
			l-0.01,0.011c-0.014,0.015-0.02,0.026-0.039,0.045c-0.07,0.065-0.23,0.119-0.293,0.113c-0.103-0.002-0.203-0.01-0.279-0.029
			c-0.167-0.03-0.312-0.074-0.46-0.116l-0.856-0.251c-0.281-0.074-0.562-0.138-0.834-0.164c-0.135-0.008-0.265-0.009-0.384,0.008
			c-0.119,0.019-0.211,0.062-0.287,0.11l-0.067,0.04C2,43.202,2.027,43.184,2.048,43.161l-0.019,0.017l-0.017,0.021
			c0.042-0.042-0.003,0.004,0,0.002l-0.024,0.027c0.001-0.002-0.037,0.044-0.004,0.003l-0.021,0.031l-0.01,0.016
			c0.025-0.045,0.002-0.003,0.006-0.009l-0.032,0.067l-0.008,0.017c0.025-0.061,0.003-0.007,0.007-0.016l-0.015,0.034
			c0.002-0.006-0.013,0.039,0.001-0.01l-0.004,0.019l-0.007,0.036l-0.016,0.073c0.001-0.01-0.012,0.074-0.001-0.013l-0.007,0.037
			l-0.001,0.009l-0.001,0.016c-0.021,0.664,0.296,1.505,0.653,2.167c0.386,0.62,0.97,1.218,1.568,1.733
			c1.207,1.054,2.582,1.927,3.982,2.736c2.818,1.6,5.812,2.896,8.866,4.005c6.117,2.206,12.491,3.682,18.934,4.549
			c3.223,0.426,6.465,0.707,9.713,0.835c3.266,0.128,6.532,0.267,9.797,0.506c1.628,0.099,3.271,0.258,4.889,0.414l4.876,0.46
			l9.753,0.92l0.318,0.147c-0.08-0.087-0.234-0.151-0.352-0.147l0.044,0.002c6.22,0.6,12.441,1.15,18.667,1.166
			c0.779-0.004,1.561,0.014,2.329-0.01l2.344-0.058l4.658-0.311l2.339-0.16c0.776-0.068,1.546-0.171,2.32-0.255l4.606-0.525
			l0.042-0.006l0.984-0.131l-0.043,0.008l0.609-0.088l0.6-0.083l-0.03,0.003l0.855-0.122l-0.077,0.018
			c0.055-0.015,0.112-0.024,0.168-0.03l-0.036,0.004l8.662-1.446l-0.225,0.851l0.032,0.021l-0.06-0.042
			c-0.543-0.475-1.096-0.942-1.619-1.43l-0.786-0.736l-0.76-0.737l-0.021-0.019c-1.44-1.422-2.834-2.929-4.146-4.48
			c-1.321-1.562-2.553-3.176-3.707-4.86c-0.582-0.848-1.129-1.695-1.657-2.576c-0.253-0.439-0.521-0.861-0.768-1.332l-0.704-1.345
			c-0.225-0.445-0.489-0.897-0.697-1.37c-0.205-0.455-0.429-0.929-0.623-1.391c-0.397-0.944-0.757-1.91-1.076-2.861l-0.155-0.462
			l0.46,0.048c0.421,0.044,0.844,0.073,1.262,0.13c0.416,0.08,0.836,0.138,1.246,0.237c0.406,0.115,0.819,0.21,1.221,0.341
			l1.187,0.44l1.143,0.541c0.374,0.193,0.729,0.421,1.094,0.63c0.372,0.199,0.7,0.464,1.046,0.703
			c0.343,0.242,0.688,0.482,0.998,0.765l0.962,0.822l0.883,0.875l0.882,0.875c0.295,0.292,0.558,0.622,0.838,0.931
			c0.563,0.621,1.095,1.261,1.604,1.916l1.558,1.943l-0.006-0.008l0.845,0.954c0.14,0.132,0.306,0.294,0.46,0.429
			c0.168,0.112,0.316,0.251,0.499,0.345c0.179,0.1,0.357,0.202,0.553,0.263c0.188,0.085,0.39,0.111,0.587,0.156
			c0.199,0.008,0.404,0.043,0.602,0.001c0.098-0.019,0.202-0.013,0.295-0.053l0.286-0.092l0.053-0.012
			c-0.048-0.019-0.151,0.084-0.132,0.133l0.041-0.095c0.013-0.011,0.026-0.02,0.041-0.027l0.013-0.006l0.021-0.011l0.011-0.005
			l0.042-0.017l-0.044,0.02l0.31-0.18l0.007-0.004l0.004-0.002c0.02-0.009,0.043-0.015,0.064-0.016l-0.12,0.076
			c-0.009,0.017-0.013,0.036-0.012,0.054l0.059-0.11c0.089-0.058,0.208-0.18,0.311-0.267l0.016-0.012l-0.014,0.01l-0.016,0.02
			c0.028-0.039,0.02-0.022,0.031-0.037l0.02-0.021l0.021-0.021c0.002-0.002,0.022-0.024,0.011-0.01l0.068-0.094l0.137-0.188
			l0.014-0.016c-0.006,0.005-0.011,0.012-0.014,0.02l0.024-0.033l0.004-0.005l-0.021,0.028l0.058-0.087l-0.008,0.013l0.185-0.396
			l0.004-0.009c0.01-0.001,0.023-0.087,0.035-0.126l0.037-0.152l0.073-0.303c0.069-0.203,0.039-0.401,0.056-0.601
			c0.028-0.393-0.008-0.816-0.027-1.23l-0.01-0.198l0.17,0.094l0.036,0.026l-0.188,0.084l-0.11-3.093l0.001,0.011l-0.01-0.073
			l-0.001-0.006v-0.005l-0.018-1.433l-0.001-0.092l0.101-0.006c0.029-0.002,0.077,0.028,0.088,0.056l-0.184,0.045
			c0.005-1.118,0.011-2.242,0.041-3.359l0.015-0.517l0.161,0.522c0.01,0.032-0.055,0.096-0.086,0.086l-0.094-0.029l0.002-0.061
			l0.037-1.049l0.004-0.088l0.082,0.007c0.014,0.001,0.03,0.006,0.043,0.012l-0.121,0.074c0.047-1.132,0.11-2.261,0.188-3.389
			l0.127,0.057l-0.001,0.001l-0.144,0.143l0.017-0.201l0.079-0.998l0.011-0.135l0.111,0.09l0.005,0.004l-0.122,0.045l0.194-2.115
			v0.006l0.006-0.064l0.111,0.054c-0.013,0.012-0.034,0.021-0.051,0.022l-0.074,0.003l0.008-0.076l0.219-1.979v0.007l0.006-0.037
			l-0.002,0.008l0.267-2.202l0.001-0.007l0.007-0.04l-0.002,0.007L129.866,25.648z M129.966,25.661l-0.136,1.113l-0.002,0.008
			l-0.005,0.032l0.001-0.006l-0.253,2.201l-0.001,0.005l-0.001,0.003l-0.002,0.008v0.007l-0.207,1.979l-0.066-0.072
			c-0.013-0.002-0.03,0.005-0.039,0.015l0.111,0.054l-0.006,0.049v0.006l-0.183,2.115l-0.011,0.134l-0.111-0.088l-0.005-0.004
			l0.122-0.045l-0.073,0.998l-0.127-0.058l0.001-0.001l0.14-0.141l-0.013,0.199c-0.071,1.128-0.128,2.257-0.168,3.384l-0.122,0.074
			c0.009,0.004,0.02,0.006,0.03,0.005l0.085-0.081l-0.031,1.047l-0.091-0.09c-0.03-0.011-0.094,0.052-0.083,0.083l0.176,0.005
			c-0.024,1.12-0.023,2.235-0.021,3.355l-0.184,0.045c0.009,0.026,0.053,0.053,0.08,0.049l0.1-0.099l0.025,1.43l-0.001-0.011
			l0.01,0.073l0.001,0.004v0.007l0.128,3.085l-0.188,0.085l0.021,0.014l0.16-0.104c0.022,0.417,0.06,0.823,0.037,1.262
			c-0.014,0.213,0.012,0.44-0.053,0.637l-0.069,0.304l-0.034,0.152c-0.018,0.06-0.009,0.081-0.049,0.172l0.004-0.009l-0.195,0.434
			l-0.001,0.001l-0.008,0.012l-0.04,0.063l-0.004,0.006l-0.018,0.022l-0.004,0.005l0.024-0.033c-0.01,0.017-0.021,0.033-0.035,0.047
			l0.014-0.016l-0.135,0.19l-0.066,0.095l-0.049,0.054l-0.02,0.021c-0.001,0.001-0.026,0.028-0.008,0.007l-0.017,0.021L128.275,50
			l0.016-0.012c-0.114,0.099-0.189,0.189-0.336,0.295l0.059-0.11c0,0.021-0.006,0.043-0.016,0.062l-0.12,0.076
			c0.018,0,0.037-0.004,0.053-0.012l0.011-0.006l-0.151,0.09l-0.076,0.045l-0.037,0.022l-0.02,0.011
			c0.003-0.001-0.028,0.018-0.014,0.008l0.001,0l-0.046,0.02l-0.003,0.001c0.012-0.004-0.032,0.012,0.026-0.009l-0.009,0.004
			l-0.018,0.008l-0.034,0.017l0.013-0.005c0.011-0.006,0.021-0.014,0.029-0.023l0.041-0.095c0.017,0.049-0.089,0.154-0.14,0.137
			l0.053-0.011l-0.323,0.109c-0.105,0.045-0.222,0.043-0.333,0.065c-0.224,0.048-0.451,0.017-0.676,0.008
			c-0.22-0.044-0.445-0.073-0.651-0.162c-0.217-0.065-0.411-0.172-0.607-0.278c-0.199-0.1-0.372-0.251-0.559-0.377
			c-0.168-0.144-0.311-0.279-0.483-0.439l-0.87-0.954l-0.006-0.008l-1.58-1.913c-0.518-0.646-1.054-1.272-1.613-1.871
			c-0.28-0.301-0.538-0.617-0.836-0.905l-0.896-0.862l-0.896-0.862l-0.939-0.778c-0.307-0.272-0.645-0.502-0.982-0.733
			c-0.339-0.228-0.66-0.483-1.023-0.671c-0.356-0.198-0.703-0.415-1.066-0.597l-1.11-0.509l-1.148-0.41
			c-0.387-0.122-0.784-0.208-1.176-0.314c-0.396-0.09-0.8-0.14-1.198-0.213c-0.402-0.05-0.808-0.072-1.211-0.11l0.305-0.414
			c0.339,0.964,0.696,1.893,1.097,2.81c0.203,0.469,0.419,0.907,0.635,1.373c0.206,0.452,0.46,0.871,0.697,1.328l0.721,1.336
			c0.228,0.424,0.507,0.855,0.765,1.29c0.524,0.85,1.086,1.696,1.66,2.512c1.155,1.642,2.403,3.236,3.717,4.75
			c1.322,1.524,2.699,2.977,4.157,4.382l-0.02-0.019l0.785,0.742l0.784,0.717c0.526,0.479,1.069,0.925,1.605,1.383l-0.06-0.042
			l0.085,0.061l0.918,0.655l-1.143,0.196l-8.691,1.492l-0.037,0.004c0.023,0,0.048-0.005,0.069-0.014l-0.077,0.018l-0.857,0.124
			l-0.03,0.004c0.034-0.003-0.032,0.005-0.042,0.007l-0.072,0.01l-0.143,0.021l-0.285,0.041l-0.531,0.075l-0.044,0.008l-1.008,0.136
			l0.042-0.006l-4.711,0.547c-0.78,0.086-1.561,0.19-2.341,0.26l-2.339,0.164l-4.699,0.32l-2.344,0.062
			c-0.795,0.026-1.576,0.009-2.361,0.014c-0.777,0.006-1.576-0.007-2.353-0.03c-0.788-0.021-1.563-0.028-2.354-0.068
			c-1.567-0.064-3.13-0.145-4.696-0.254c-3.128-0.206-6.249-0.509-9.356-0.823l0.044,0.002c-0.123,0.003-0.281-0.062-0.366-0.151
			l0.317,0.147l-9.75-0.959l-4.874-0.479c-1.632-0.164-3.239-0.326-4.871-0.432c-3.248-0.25-6.506-0.403-9.766-0.543
			c-3.276-0.139-6.547-0.439-9.793-0.903c-6.491-0.931-12.901-2.474-19.055-4.753c-3.072-1.146-6.083-2.48-8.932-4.128
			c-1.415-0.836-2.807-1.733-4.052-2.839c-0.627-0.558-1.208-1.135-1.681-1.909c-0.092-0.195-0.187-0.335-0.277-0.574
			C1.697,45.2,1.61,44.98,1.553,44.783c-0.124-0.387-0.243-0.839-0.202-1.316l-0.002,0.024l0.021-0.123l0.016-0.073l0.008-0.036
			l0.004-0.019c0.018-0.061,0.009-0.027,0.015-0.044l0.044-0.102l0.033-0.067l0.033-0.057l0.021-0.031
			c0.045-0.062,0.026-0.033,0.043-0.054l0.025-0.028l0.083-0.088l-0.019,0.017c0.028-0.026,0.063-0.049,0.099-0.063l-0.067,0.04
			c0.35-0.26,0.731-0.25,1.049-0.229c0.324,0.034,0.628,0.106,0.924,0.186l0.864,0.259c0.14,0.042,0.282,0.083,0.409,0.107
			c0.07,0.017,0.119,0.017,0.166,0.022c0.011-0.008-0.076,0.018-0.074,0.068c0.008-0.003,0.022-0.026,0.033-0.038l0.009-0.011
			l0.005-0.006l0.002-0.002c-0.02,0.038,0.046-0.087-0.044,0.085v-0.001l0.003-0.019c0.007-0.05,0.017-0.098,0.031-0.148
			l-0.011-0.223c-0.036-0.069-0.04-0.215-0.119-0.308c-0.109-0.217-0.326-0.404-0.539-0.586l-0.72-0.537
			c-0.136-0.102-0.218-0.172-0.367-0.305c-0.101-0.096-0.241-0.251-0.319-0.391l-0.007-0.014l-0.005-0.009l-0.032-0.069L2.95,40.553
			l-0.006-0.018l-0.011-0.037l-0.027-0.094l-0.019-0.098l-0.003-0.02l0.001-0.022l0.009-0.134c0.022-0.138-0.004-0.075,0.043-0.207
			c0.036-0.072,0.061-0.165,0.148-0.302l0.165-0.211c0.084-0.108,0.128-0.143,0.193-0.218l0.726-0.785
			c0.496-0.514,0.928-1.078,1.392-1.617c0.476-0.532,0.866-1.122,1.283-1.694c0.415-0.573,0.839-1.14,1.187-1.771l1.099-1.843
			c0.359-0.613,0.682-1.24,1.096-1.855c0.381-0.597,0.814-1.196,1.246-1.76c0.442-0.588,0.895-1.117,1.367-1.672
			c0.949-1.08,1.94-2.121,2.99-3.103c1.038-0.991,2.124-1.933,3.242-2.831c1.109-0.906,2.266-1.756,3.442-2.581
			c1.165-0.828,2.38-1.604,3.594-2.364l0.076-0.048l0.085,0.042l0.002,0.001l-0.161,0.006l5.323-2.9l-0.009,0.004l2.238-1.047
			l2.27-0.963c0.395-0.162,0.77-0.293,1.155-0.441c0.378-0.148,0.784-0.281,1.169-0.408c0.771-0.269,1.574-0.493,2.358-0.725
			l0.012-0.002l0.261-0.07l0.016-0.004l1.318-0.341l-0.02,0.005l0.012-0.004l0.009-0.003l0.013-0.003l0.31-0.075l0.058-0.007
			L42.598,8.33l-0.025,0.004l3.235-0.619c1.079-0.202,2.155-0.422,3.237-0.609l6.538-0.755l6.565-0.413l6.573-0.172L68.39,6.102V6.1
			l-0.001-0.331l0.334-0.004c3.422-0.039,6.845-0.013,10.262,0.018l0.014,0l0.044,0.005l0.026,0.003l-0.067-0.007l5.205,0.016
			c0.872,0.008,1.727-0.063,2.594-0.092l2.592-0.115l5.185-0.419l5.18-0.523l5.177-0.563l5.174-0.598
			c3.448-0.409,6.895-0.852,10.335-1.314l1.422-0.191l-1.13,0.879c-1.506,1.171-3.072,2.25-4.526,3.434l-0.028,0.021
			c0.033-0.025-0.028,0.025-0.038,0.034l-0.066,0.056l-0.132,0.112l-0.264,0.223L115.15,7.19l-0.038,0.03
			c0.023-0.015,0.046-0.035,0.062-0.058l-0.034,0.036l-0.54,0.496l-0.271,0.248l-0.135,0.124l-0.067,0.062l-0.033,0.031
			c-0.023,0.017,0.011-0.001-0.091,0.072l0.067-0.053l-0.805,0.815c-0.278,0.268-0.505,0.544-0.763,0.831
			c-0.517,0.553-0.964,1.161-1.433,1.752c-0.225,0.302-0.426,0.617-0.641,0.925c-0.214,0.307-0.425,0.617-0.61,0.955l-0.576,0.99
			c-0.165,0.309-0.315,0.677-0.475,1.014l-0.47,1.031c-0.142,0.351-0.255,0.712-0.384,1.068l-0.376,1.071
			c-0.134,0.354-0.197,0.731-0.3,1.095c-0.165,0.739-0.42,1.459-0.513,2.215l-0.372,2.247l-0.191-0.225l1.932,0.036
			c0.322,0.018,0.642-0.03,0.963-0.042l0.963-0.061c0.323-0.011,0.643-0.044,0.954-0.11l0.944-0.161
			c0.313-0.067,0.635-0.077,0.941-0.19l0.927-0.294l0.916-0.293l0.884-0.399l1.768-0.799c0.291-0.139,0.597-0.252,0.877-0.414
			l0.855-0.458l1.707-0.923l0.051,0.188h-0.002l-0.346-0.001l0.295-0.187c2.125-1.348,4.252-2.695,6.369-4.084l0,0l0.005-0.002
			l0.356-0.182l-0.002,0l0.477-0.18c0.031-0.012,0.09-0.037,0.13-0.042l0.13-0.024c0.075-0.017,0.188-0.025,0.267-0.022l0.133,0.003
			l0.137,0.029c0.082,0.009,0.191,0.069,0.253,0.098c0.171,0.097,0.289,0.212,0.407,0.352l0.004,0.005
			c0.094,0.115,0.16,0.232,0.237,0.358l0.007,0.015l0.001,0.001l0.008,0.033l0.002,0.006l-0.008-0.034
			c0.12,0.216,0.216,0.464,0.305,0.688l0.004,0.01v0.001c0,0,0.02,0.063,0.006,0.026l0.007,0.013l0.011,0.04l-0.002-0.01
			l0.104,0.305l0.003,0.022c0.001-0.007,0-0.015-0.004-0.02l0.004,0.009c0.108,0.338,0.198,0.677,0.259,1.031
			c0.042,0.174,0.053,0.351,0.068,0.527c0.012,0.177,0.039,0.353,0.038,0.529c0.018,0.707-0.008,1.412-0.069,2.113
			C130.324,22.872,130.141,24.267,129.966,25.661z"/>
	</g>
</g>
</svg>
