<?xml version="1.0" encoding="iso-8859-1"?>
<!-- Generator: Adobe Illustrator 16.0.0, SVG Export Plug-In . SVG Version: 6.00 Build 0)  -->
<!DOCTYPE svg PUBLIC "-//W3C//DTD SVG 1.1//EN" "http://www.w3.org/Graphics/SVG/1.1/DTD/svg11.dtd">
<svg version="1.1" id="animals" xmlns="http://www.w3.org/2000/svg" xmlns:xlink="http://www.w3.org/1999/xlink" x="0px" y="0px"
	 width="192.648px" height="102.345px" viewBox="0 0 192.648 102.345" style="enable-background:new 0 0 192.648 102.345;"
	 xml:space="preserve">
<g>
	<path style="fill:#231F20;" d="M8.073,54.045c4.637-3.244,9.008-9.104,12.051-12.979c5.099-6.487,9.806-10.983,16.686-17.611
		c12.516-12.053,24.412-13.443,34.918-17.77c13.376-5.508,45.729-5.562,61.798-3.09c16.774,2.581,24.101,12.979,21.013,27.195
		c-1.28,5.885-8.036,9.267-8.036,9.267s4.327,0.62,14.217-1.852c4.518-1.13,17.721-5.568,24.103,1.234
		c9.269,9.889,12.357,21.63-3.092,30.283c-5.634,3.154-12.794-3.264-19.156-4.326c-7.418-1.237-11.744,1.237-11.744,1.237
		s3.245,0.463,8.343,7.415c2.868,3.912,6.49,9.27,4.636,21.011c-0.898,5.69-12.669,6.875-19.159,7.416
		c-10.086,0.842-65.66-2.935-80.029-2.935c-9.831,0-31.209-7.453-40.786-12.978C11.783,78.609-0.268,71.194,0.659,66.096
		c0.529-2.919,4.171-4.171,4.171-4.171s-2.116-2.336-1.854-4.171C3.438,54.51,4.657,56.436,8.073,54.045z"/>
	<g>
		<linearGradient id="SVGID_1_" gradientUnits="userSpaceOnUse" x1="43.7734" y1="82.3984" x2="62.498" y2="82.3984">
			<stop  offset="0" style="stop-color:#AEDEE4"/>
			<stop  offset="1" style="stop-color:#00B0D8"/>
		</linearGradient>
		<path style="fill:url(#SVGID_1_);" d="M43.773,75.74c0,0,0.979,3.117,1.429,4.619c0.449,1.502,2.254,7.172,6.647,8.375
			s9.349-1.165,10.326-3.566c0.977-2.404-0.15-4.244-4.996-5.708C52.336,77.994,43.773,75.74,43.773,75.74z"/>
		<path style="fill:#00B0D8;" d="M62.448,83.21c-0.814,0.45-2.401-0.25-3.991-0.897c-1.839-0.752-14.684-6.573-14.684-6.573
			s15.586,8.15,16.601,8.9c0.832,0.617,0.93,1.479,0.938,1.769c0.393-0.4,0.691-0.82,0.864-1.242
			C62.461,84.467,62.559,83.818,62.448,83.21z M57.933,87.194c0.674,1.127,0,1.202,0,1.202s0.043-0.002,0.103-0.005
			c0.935-0.335,1.771-0.777,2.458-1.282c-1.156-0.225-5.126-3.227-6.729-4.271c-1.614-1.052-9.99-7.098-9.99-7.098
			s2.143,1.689,3.907,2.967C49.445,79.984,57.255,86.066,57.933,87.194z M54.004,89.043c0.989,0.03,1.97-0.08,2.889-0.305
			c-1.642-0.4-2.966-2.434-4.219-3.684c-1.277-1.277-8.9-9.314-8.9-9.314s9.878,10.704,10.403,12.093
			C54.431,88.503,54.253,88.855,54.004,89.043z M50.473,88.166c0.43,0.235,0.885,0.435,1.377,0.567
			c0.154,0.042,0.31,0.07,0.468,0.105c-0.386-0.9-1.131-2.52-2.008-3.784c-1.277-1.842-6.536-9.314-6.536-9.314
			s6.01,9.652,6.573,10.892C50.652,87.304,50.592,87.824,50.473,88.166z"/>
	</g>
	<linearGradient id="SVGID_2_" gradientUnits="userSpaceOnUse" x1="0.6094" y1="36.5312" x2="155.1992" y2="36.5312">
		<stop  offset="0" style="stop-color:#4D4D4D"/>
		<stop  offset="0.8901" style="stop-color:#333333"/>
	</linearGradient>
	<path style="fill:url(#SVGID_2_);" d="M154.728,28.698c2.481-13.648-4.865-23.589-21.202-26.102
		c-16.068-2.472-48.422-2.418-61.798,3.09c-10.506,4.326-22.402,5.716-34.918,17.77c-6.88,6.628-11.587,11.124-16.686,17.611
		c-3.043,3.875-7.414,9.734-12.051,12.979c-3.416,2.391-4.636,0.465-5.098,3.708c-0.262,1.835,1.854,4.171,1.854,4.171
		s-3.642,1.252-4.171,4.171c-0.317,1.744,0.887,3.761,3.089,5.938c0.616-0.334,1.082-0.497,1.082-0.497s-2.116-2.334-1.854-4.172
		c0.462-3.244,1.682-1.315,5.098-3.706c4.637-3.244,9.008-9.104,12.051-12.978c5.099-6.488,9.806-10.987,16.686-17.615
		c12.516-12.05,24.412-13.44,34.918-17.766c13.376-5.509,45.729-5.563,61.798-3.092C145.714,14.086,152.889,20.102,154.728,28.698z"
		/>
	<path style="fill:#FFFFFF;" d="M39.963,20.631c0.161,4.758,0.517,7.239,1.433,11.636c2.319,11.124,5.235,18.642,3.905,28.841
		C43.95,71.472,38.092,83.94,42.187,93.47c1.703,0.584,3.414,1.139,5.112,1.654c-1.194-5.863-2.052-13.128-1.218-20.223
		c1.853-15.758,2.779-20.391,1.389-31.517c-1.051-8.425-1.289-18.179,0.059-28.056C45.041,16.77,42.515,18.499,39.963,20.631z"/>
	<path style="fill:#FFFFFF;" d="M30.132,78.232c-0.465-6.953-4.443-13.99-5.836-19.089c-1.389-5.098,0.462-10.658,4.171-15.295
		c3.709-4.636,6.953-11.588,3.243-9.269c-1.964,1.227-6.021,8.805-7.414,10.659c-1.389,1.854-6.025,9.271-3.709,14.832
		c2.32,5.563,6.075,12.339,6.541,16.51c0.231,2.104-1.556,5.71-1.497,9.969c1.225,0.642,2.584,1.305,4.038,1.97
		C29.411,85.512,30.328,81.198,30.132,78.232z"/>
	<path style="fill:#FFFFFF;" d="M17.663,77.33c-0.762-2.032-1.125-5.168-2.637-5.67c-2.781-0.93-2.781-2.784-3.243-7.88
		c-0.466-5.098-4.637-5.562-4.172-3.244c0.462,2.317,0.928,7.877,2.778,10.194c1.21,1.512,3.397,5.968,5.163,9.92
		c2.128,1.316,4.36,2.639,6.613,3.949C20.842,81.593,18.476,79.497,17.663,77.33z"/>
	<path style="fill:#00B0D8;" d="M169.006,35.246c6.853,2.577,11.21,4.249,10.562,17.872c-0.465,9.734-3.709,12.051-8.234,14.56
		c3.671,1.594,7.27,2.797,10.396,1.045c15.449-8.652,12.36-20.394,3.092-30.283C180.917,34.279,174.467,34.324,169.006,35.246z"/>
	<g>
		<path style="fill:#FFFFFF;" d="M102.532,55.7c-2.704-0.9,2.189-8.252,2.765-13.688l0,0c0.582-5.463,1.269-11.269,2.469-15.125l0,0
			c1.245-3.954,4.342-8.075,7.777-11.346l0,0c7.013-8.155,15.75-4.139,17.19-2.427l0,0c1.446,1.731,3.55,3.499,3.573,3.543
			l-1.323-0.083l-3.158,3.944c0.775-3.089-2.316-5.719-2.316-5.719c-1.285-1.544-7.725-4.323-12.686,2.084l0,0
			c-3.283,3.102-6.216,7.091-7.287,10.554l0,0c-1.115,3.559-1.82,9.339-2.396,14.768l0,0
			C106.554,47.662,105.677,56.746,102.532,55.7z"/>
	</g>
	<path style="fill:#FFFFFF;" d="M169.833,44.311c-0.882-2.642-2.491-5.598-3.793-8.472c-1.48,0.337-2.808,0.697-3.897,0.99
		c0.857,2.117,1.918,4.301,3.054,5.631c2.782,3.244,3.71,6.487,2.782,9.732c-0.927,3.244-2.316,4.635-2.316,7.417
		c0,1.557-0.583,3.694-1.096,5.276c0.965,0.297,1.942,0.677,2.925,1.095c0.064-3.274,0.425-8.045,1.879-10.08
		C171.688,52.655,171.688,49.874,169.833,44.311z"/>
	<g>
		<path style="fill:#FFFFFF;" d="M126.169,93.844c-5.46-1.342-9.815-9.154-9.815-9.154c-2.997-4.999-4.372-8.308-5.858-14.271
			c-1.228-4.913-3.402-16.029,0.75-16.971c3.306-0.753,0.149,6.008,1.651,13.068c1.144,5.356,4.658,13.817,4.658,13.817
			c2.867,4.813,6.895,11.756,10.1,11.834c4.751,0.115,7.625-3.872,8.807-6.838l1.885,1.904l1.329,1.289
			c-0.089,0.028-4.72,3.876-7.964,4.804C128.466,94.251,126.989,94.154,126.169,93.844L126.169,93.844z"/>
	</g>
	<path style="fill:#FFFFFF;" d="M155,47.092c0.465,3.244,1.854,5.563,1.854,10.661c0,2.439,0.32,4.661,0.649,6.321
		c0.966-0.043,2.032-0.021,3.183,0.084c-0.443-3.738-1.194-10.181-1.515-13.358c-0.463-4.636-0.463-5.098,0-9.734
		c0.109-1.084,0.14-2.302,0.124-3.521c-1.358,0.315-2.609,0.575-3.738,0.78C155.183,40.912,154.698,44.98,155,47.092z"/>
	<g>
		<path style="fill:#FFFFFF;" d="M136.087,86.644c-1.772-2.1-10.17-13.596-10.17-13.596c-6.838-9.966-5.91-20.973-5.91-20.973
			c0.475-10.852,6.111-24.917,6.111-24.917c4.027-8.947,9.301-12.164,14.629-12.743c5.332-0.58,5.882,4.128,5.873,5.28l0,0
			c-0.057,3.547-2.461,7.43-3.846,9.995l0,0c-7.935,18.214,0.72,31.91,3.589,35.55l0,0c3.121,4.129,7.843,8.635,7.952,17.982l0,0
			c0.04,1.554-0.729,2.659-2.371,4.616c-1.643,1.96-6.423,2.82-9.216,2.389c-2.794-0.429-0.042,0-0.062,0l0,0
			C139.893,90.228,137.803,88.716,136.087,86.644L136.087,86.644z M130.313,27.731c-2.479,5.505-4.988,14.051-5.441,24.521l0,0
			c-0.029,0.655-0.045,1.3-0.045,1.935l0,0c0.013,9.349,3.007,16.317,7.658,22.672l0,0c2.462,3.366,4.176,6.168,5.723,7.987l0,0
			c1.593,1.834,2.657,2.104,6.016,2.337c3.361,0.232,6.508-0.505,7.311-3.961c0.802-3.454-4.033-12.105-7.363-16.275l0,0
			c-2.921-3.803-8.174-7.572-8.984-16.841c-0.812-9.272,2.59-17.022,5.156-21.766l0,0c1.434-2.507,3.556-6.428,3.499-8.645l0,0
			c-0.007-0.707-1.355-3.774-4.369-2.499C136.461,18.472,134.034,19.446,130.313,27.731L130.313,27.731z"/>
	</g>
	<g>
		<path style="fill:#FFFFFF;" d="M53.077,59.268c-1.201,0.022-1.24-8.15-1.016-14.383c0.226-6.235,1.353-15.023,4.507-22.532
			c3.889-9.26,10.199-13.698,10.216-13.73l1.308-0.19h0.002L73.89,7.23c-6.952,3.554-11.115,8.887-14.523,15.763
			c-3.901,7.873-4.9,21.291-4.9,21.291C54.063,51.193,54.096,59.246,53.077,59.268z"/>
	</g>
	<g>
		<path style="fill:#FFFFFF;" d="M115.381,96.448c-4.537-2.054-18.494-10.017-24.769-25.616c-4.152-10.327-4.487-21.406,2.59-40.425
			c7.079-19.021,28.713-26.102,28.737-26.111l2.834,0.445l2.881,0.79c-0.007,0.008-23.857,4.976-31.882,24.935
			C87.75,50.42,90.399,62.357,93.67,70.27c8.264,19.979,30.88,27.854,30.891,27.858l0,0l-0.606,1.751
			C123.936,99.875,119.899,98.478,115.381,96.448L115.381,96.448z"/>
	</g>
	<g>
		<path style="fill:#FFFFFF;" d="M87.337,96.176c-4.533-2.082-19.351-9.06-24.158-24.405c-3.157-10.064-3.167-16.802-2.035-26.801
			s4.739-17.059,4.739-17.059C75.306,6.956,93.875,2.915,93.898,2.904l2.834,0.452l2.88,0.799
			c-0.008,0.008-22.164,5.729-31.179,25.558c-3.743,8.237-4.506,13.518-5.105,18.476c-0.58,4.781-0.603,13.069,1.652,21.931
			c4.09,16.092,18.69,22.36,23.117,24.345l0,0c4.436,2.014,8.41,3.406,8.419,3.411l0,0l-0.604,1.771
			C95.896,99.643,91.859,98.23,87.337,96.176L87.337,96.176z"/>
	</g>
	<linearGradient id="SVGID_3_" gradientUnits="userSpaceOnUse" x1="52.7139" y1="20.043" x2="155.2275" y2="20.043">
		<stop  offset="0" style="stop-color:#AEDEE4"/>
		<stop  offset="1" style="stop-color:#00B0D8"/>
	</linearGradient>
	<path style="fill:url(#SVGID_3_);" d="M146.502,39.057c0,0,4.189-2.262,5.603-4.363c1.41-2.1,2.118-3.457,2.434-4.903
		c3.088-14.215-4.238-24.614-21.013-27.195c-16.068-2.472-48.422-2.418-61.798,3.09c-5.94,2.447-12.324,3.954-19.014,6.98
		c0.013-0.002,20.713-3.119,27.666-5.898c6.951-2.782,24.564-1.854,33.372-1.854c8.804,0,31.517,2.782,34.76,10.662
		c3.245,7.88,4.171,11.124,1.855,14.832C148.049,34.114,146.502,39.057,146.502,39.057z"/>
	<g>
		<path style="fill:#FFFFFF;" d="M73.243,51.793c0.954-28.693,25.383-45.365,30.792-45.515c4.123-0.115-4.656,5.108-8.562,8.712
			c-3.356,3.102-17.316,12.778-18.175,35.301c-0.751,19.678,5.646,27.23,10.215,32.296c4.566,5.066,17.549,11.244,15.609,13.358
			c-1.941,2.114-13.647-4.408-18.464-9.152C79.336,81.553,72.49,74.326,73.243,51.793z"/>
	</g>
	<path style="fill:#231F20;" d="M184.821,38.44c-0.525-0.56-1.101-1.037-1.707-1.452c-1.367,1.502-2.84,3.582-2.313,5.161
		c0.543,1.625,3.294-0.23,5.493-2.052C185.822,39.54,185.332,38.987,184.821,38.44z"/>
	<path style="fill:#231F20;" d="M188.754,43.329c-2.062,0.607-4.305,1.452-5.79,2.529c-3.019,2.197-0.925,5.251,3.401,4.943
		c1.766-0.127,3.739-0.667,5.459-1.262C191.179,47.452,190.126,45.37,188.754,43.329z"/>
	<path style="fill:#231F20;" d="M184.201,53.583c-0.928,0.927-3.089,2.162-0.619,4.326c1.469,1.282,4.89,1.912,7.432,2.211
		c1.164-2.202,1.624-4.478,1.504-6.78C189.264,53.148,184.783,53,184.201,53.583z"/>
	<path style="fill:#231F20;" d="M187.124,64.941c-2.184-1.447-5.008-2.901-6.632-2.089c-1.909,0.955-0.13,3.384,1.489,5.723
		C184.016,67.413,185.718,66.199,187.124,64.941z"/>
	<g>
		<path style="fill:#F9DB31;" d="M42.026,44.772c2.754,4.132,1.637,9.714-2.495,12.467c-4.13,2.755-9.706,1.636-12.462-2.496
			c-2.752-4.131-1.639-9.712,2.492-12.462C33.692,39.527,39.271,40.646,42.026,44.772z"/>
		<path style="fill:#231F20;" d="M40.67,45.676c2.26,3.383,1.342,7.953-2.042,10.208c-3.381,2.256-7.951,1.344-10.207-2.039
			c-2.253-3.383-1.342-7.957,2.042-10.213C33.844,41.377,38.419,42.294,40.67,45.676z"/>
		<path style="fill:#FFFFFF;" d="M30.463,43.632c-0.188,0.125-0.345,0.284-0.519,0.426c3.311-1.794,7.493-0.839,9.619,2.354
			c2.131,3.193,1.406,7.424-1.527,9.787c0.195-0.109,0.404-0.191,0.592-0.315c3.384-2.255,4.302-6.825,2.042-10.208
			C38.419,42.294,33.844,41.377,30.463,43.632z"/>
		<path style="fill:#FFFFFF;" d="M35.136,52.136c0.837,1.265,0.498,2.97-0.767,3.813c-1.261,0.844-2.965,0.502-3.809-0.762
			c-0.845-1.265-0.503-2.969,0.762-3.813C32.582,50.532,34.291,50.875,35.136,52.136z"/>
		<path style="fill:#FFFFFF;" d="M33.603,45.986c0.539,0.809,0.318,1.898-0.489,2.437c-0.805,0.538-1.894,0.319-2.432-0.487
			c-0.544-0.809-0.32-1.898,0.486-2.437C31.973,44.962,33.065,45.178,33.603,45.986z"/>
	</g>
	<linearGradient id="SVGID_4_" gradientUnits="userSpaceOnUse" x1="-4.8018" y1="85.1187" x2="168.2377" y2="83.3926">
		<stop  offset="0" style="stop-color:#AEDEE4"/>
		<stop  offset="1" style="stop-color:#00B0D8"/>
	</linearGradient>
	<path style="fill:url(#SVGID_4_);" d="M159.172,73.048c-1.993-2.716-4.682-5.278-6.025-6.373l-2.317-1.042
		c0,0,6.49,8.805,7.415,12.514c0.928,3.708,1.392,9.269-0.925,12.051c-2.319,2.779-16.222,8.805-26.883,7.877
		c-10.659-0.924-42.147,0.14-49.085-0.317c-3.054-0.2-7.56,0-8.04-2.067c-0.008,0-0.014,0-0.023,0
		c-0.09-4.134,19.672-2.434,30.314-5.678c-30.41,2.239-37.823,3.841-60.706,0.265c-9.319-2.676-19.535-6.755-25.374-10.124
		c-5.303-3.059-10.607-6.21-14.807-9.215c3.866,4.434,12.491,9.647,21.117,14.623c5.836,3.367,16.053,7.448,25.372,10.124
		c1.83,0.612,3.876,1.13,5.98,1.54c3.64,0.82,6.918,1.314,9.434,1.314c14.369,0,69.943,3.776,80.029,2.935
		c6.49-0.54,18.261-1.725,19.159-7.416C165.662,82.318,162.04,76.96,159.172,73.048z"/>
	<g>
		<path d="M191.657,58.199l0.438-1.485l0.251-1.516c0.021-0.514,0.06-1.028,0.065-1.542l-0.049-0.77
			c-0.022-0.256-0.019-0.515-0.062-0.769l-0.128-0.761c-0.05-0.252-0.071-0.51-0.144-0.758l-0.201-0.746
			c-0.073-0.247-0.122-0.501-0.214-0.742c-0.18-0.482-0.347-0.971-0.537-1.449l-0.644-1.407l-0.005-0.011l-0.008-0.015l0.005,0.011
			l-0.851-1.551l-0.948-1.497l0.01,0.015l0.003,0l-0.021-0.024l-1.716-2.302c-0.292-0.378-0.626-0.725-0.937-1.089l-0.947-1.08
			c-0.303-0.375-0.652-0.675-1.007-1.013c-0.345-0.312-0.715-0.584-1.127-0.835c-0.417-0.258-0.791-0.537-1.223-0.704
			c-0.432-0.181-0.893-0.424-1.303-0.554c-0.456-0.131-0.933-0.284-1.373-0.396c-0.444-0.098-0.939-0.166-1.407-0.25
			c-0.455-0.085-0.931-0.091-1.414-0.136c-0.246-0.018-0.474-0.039-0.7-0.044l-0.722,0.001c-0.486,0-0.957-0.004-1.423,0.038
			c-0.473,0.037-0.975,0.054-1.423,0.107c-0.964,0.11-1.89,0.235-2.843,0.403l0.13-0.591l-0.027-0.017l-0.092,0.611l-2.944,0.622
			l-0.438-0.34c-0.011,0.104,0.09,0.267,0.188,0.305l0.247,0.032c-1.295,0.31-2.586,0.67-3.876,1.029l0.232-0.611l0.001,0.001
			l0.316,0.464l-0.547,0.146c-0.636,0.17-1.284,0.365-1.925,0.518l-0.976,0.243l-0.969,0.213l-1.937,0.426
			c-0.337,0.067-0.615,0.149-0.999,0.206l-0.979,0.155l-1.958,0.31c-0.646,0.12-1.312,0.189-1.99,0.233l-1.01,0.083
			c-0.338,0.02-0.672,0.071-1.012,0.065c-0.69-0.013-1.333,0.041-2.072-0.04l-1.698-0.185l1.519-0.902
			c0.724-0.43,1.438-0.863,2.173-1.371c0.359-0.246,0.683-0.506,1.025-0.757c0.351-0.24,0.638-0.545,0.958-0.815
			c0.337-0.266,0.583-0.576,0.832-0.882c0.122-0.155,0.264-0.294,0.373-0.46l0.35-0.558l0.715-1.111
			c0.193-0.365,0.386-0.705,0.553-1.077c0.135-0.385,0.338-0.75,0.418-1.148l0.159-0.587c0.051-0.135,0.077-0.411,0.116-0.609
			l0.219-1.298c0.089-0.438,0.102-0.85,0.146-1.272c0.038-0.42,0.089-0.837,0.117-1.259l0.024-1.277
			c0.052-0.853-0.077-1.697-0.104-2.545l-0.004-0.077v-0.004l0.004,0.075l-0.328-2.119l0.024,0.092l-0.467-1.727
			c-0.09-0.466-0.365-0.996-0.564-1.546l-0.311-0.77l-0.386-0.717l-0.415-0.765c-0.163-0.31-0.216-0.376-0.411-0.653
			c-0.326-0.45-0.69-1-0.986-1.369l-1.131-1.261l-0.146-0.162c0.027,0.022-0.085-0.078-0.12-0.111l-0.29-0.263l-0.653-0.577
			c-0.203-0.173-0.467-0.425-0.62-0.535l-0.67-0.482c-0.968-0.731-1.822-1.193-2.88-1.784c-0.414-0.231-1.064-0.499-1.501-0.701
			l-0.795-0.355c-0.183-0.094-0.522-0.191-0.775-0.288l-1.605-0.57c-0.471-0.17-1.096-0.308-1.637-0.464
			c-0.479-0.121-1.139-0.326-1.613-0.41l-1.71-0.329l-0.854-0.165c-0.194-0.037-0.549-0.079-0.816-0.118l-1.725-0.239
			c-1.151-0.168-2.286-0.257-3.43-0.391c-2.29-0.222-4.598-0.41-6.905-0.534c-2.306-0.149-4.619-0.221-6.931-0.285
			c-2.312-0.063-4.625-0.098-6.939-0.097c-2.312,0.021-4.628,0.025-6.938,0.126c-2.313,0.062-4.621,0.214-6.93,0.356
			c-2.304,0.19-4.608,0.387-6.899,0.682c-1.15,0.115-2.285,0.317-3.427,0.487c-1.146,0.156-2.273,0.386-3.401,0.618
			c-1.138,0.202-2.248,0.492-3.357,0.792c-1.125,0.255-2.191,0.666-3.274,1.035c-2.173,0.8-4.363,1.639-6.581,2.337
			c-2.209,0.722-4.419,1.44-6.601,2.208c-2.207,0.753-4.313,1.609-6.468,2.537l-0.202-0.68l0.004-0.001l2.491-0.489l-2.274,1.163
			l-5.17,2.644l-0.484-0.405c-0.013,0.031-0.019,0.066-0.019,0.099l0.505,0.291c-0.651,0.398-1.322,0.785-1.96,1.195l-0.968,0.632
			l-0.945,0.647c-0.321,0.217-0.617,0.431-0.935,0.665l-0.934,0.682l-1.801,1.426l0.111-0.234v0.018l-0.001,0.136l-0.108,0.097
			l-2.681,2.39c-0.891,0.796-1.733,1.666-2.603,2.495c-1.736,1.669-3.447,3.359-5.13,5.072c-0.843,0.856-1.709,1.69-2.507,2.587
			l-2.438,2.648c-0.837,0.862-1.55,1.831-2.33,2.741c-0.761,0.927-1.538,1.84-2.285,2.779c-1.474,1.901-2.933,3.823-4.493,5.672
			c-0.764,0.937-1.585,1.831-2.399,2.729c-0.842,0.876-1.688,1.749-2.608,2.554c-0.438,0.424-0.919,0.804-1.406,1.178
			c-0.472,0.368-0.979,0.783-1.485,1.093c-0.551,0.333-1.128,0.63-1.731,0.84c-0.598,0.217-1.256,0.328-1.72,0.492
			c-0.219,0.088-0.341,0.186-0.452,0.346c-0.11,0.161-0.193,0.406-0.254,0.666c-0.037,0.125-0.058,0.265-0.08,0.404L3.519,57.54
			L3.51,57.592c0.011-0.145,0.003-0.032,0.005-0.061l0.001,0.014v0.028l0.002,0.113l0.006,0.452
			c-0.003,0.157,0.062,0.233,0.083,0.353c0.238,0.929,0.93,1.997,1.646,2.815l0.551,0.627l-0.788,0.295
			c-0.388,0.146-0.816,0.36-1.198,0.586c-0.389,0.23-0.76,0.486-1.089,0.779c-0.661,0.577-1.194,1.286-1.394,2.079l-0.074,0.297
			c0.007,0.011-0.012,0.21-0.018,0.307l-0.012,0.181l-0.003,0.045l-0.001,0.006v0.002c0.001-0.037-0.002,0.087,0.002-0.082v0.012
			l0.002,0.022l0.005,0.09l0.04,0.308c0.005,0.041,0.022,0.163,0.018,0.137l0.017,0.089l0.008,0.044l0.003,0.011l0.001,0.005
			c-0.007-0.025,0.015,0.061-0.015-0.056l0.001,0.002l0.007,0.022l0.107,0.345c0.032,0.09,0.082,0.286,0.1,0.29l0.143,0.302
			c0.12,0.254,0.156,0.336,0.309,0.574c0.132,0.208,0.25,0.421,0.362,0.56l0.435,0.579l0.441,0.523l-0.445-0.229
			c0.101,0.006,0.272,0.052,0.407,0.188c0.137,0.135,0.183,0.307,0.188,0.408l-0.163-0.381l0.486,0.52l0.494,0.505l0.034,0.036
			l1.169,1.055l0.306,0.276l0.287,0.241l0.639,0.521c0.39,0.325,0.859,0.665,1.285,0.996l1.316,0.959
			c0.881,0.625,1.788,1.242,2.695,1.838c0.923,0.605,1.826,1.181,2.769,1.766c1.844,1.147,3.744,2.277,5.631,3.373l2.851,1.642
			c0.473,0.264,0.965,0.561,1.421,0.799l1.452,0.783l0.425,0.229l0.004,0.499v0.002l-0.426-0.726l1.979,0.979l2.015,0.936
			l-1.224,0.782v-0.001l-0.009-1.332l1.225,0.546l0.76,0.339l0.773,0.33l1.538,0.653l3.107,1.247l1.562,0.595l1.562,0.581
			l3.166,1.12l0.615,0.218l0.002,0.653v0.001l-0.642-0.879l2.55,0.837l2.538,0.792l-1.197,0.904v-0.002l-0.004-1.253l1.216,0.354
			l4.51,1.312c1.507,0.355,2.943,0.687,4.509,0.982l2.308,0.452c0.765,0.132,1.512,0.201,2.268,0.306l1.131,0.146l0.273,0.034
			c0.033,0.003,0.13,0.015,0.113,0.011l0.146,0.006l0.587,0.024l1.175,0.049l1.152,0.024c3.136,0.063,6.268,0.1,9.413,0.247
			l9.42,0.382l18.794,0.938c6.262,0.309,12.524,0.64,18.784,0.899c3.129,0.119,6.262,0.287,9.388,0.366l4.688,0.12l2.345,0.06
			c0.78,0.017,1.545-0.024,2.318-0.025l2.314-0.029c0.771-0.005,1.544-0.01,2.324-0.092c1.553-0.124,3.099-0.273,4.634-0.47
			c3.054-0.408,6.131-0.957,8.873-2.131c1.347-0.591,2.632-1.378,3.372-2.466c0.372-0.556,0.576-1.105,0.639-1.824l0.274-2.336
			l0.142-1.167c0.044-0.388,0.02-0.759,0.034-1.139l0.034-2.271c-0.027-0.758-0.144-1.515-0.209-2.273
			c-0.05-0.377-0.054-0.764-0.14-1.134l-0.257-1.109c-0.647-2.979-2.06-5.715-3.861-8.239c-0.882-1.24-1.857-2.528-2.86-3.653
			c-0.504-0.576-1.055-1.12-1.604-1.651l-1.751-1.548l0.107,0.068l-0.487-0.227l-0.011-0.004l-0.04-0.022
			c-0.278-0.152-0.552-0.327-0.834-0.463l-0.427-0.191c-0.129-0.041-0.306-0.109-0.395-0.126l-1.231-0.229l1.084-0.564
			c0.33-0.172,0.66-0.307,0.987-0.417c0.33-0.113,0.652-0.259,0.988-0.344l2.021-0.481l2.058-0.212
			c0.348-0.026,0.675-0.091,1.038-0.084l1.016,0.003c0.73,0.012,1.343,0.076,2.069,0.131c0.683,0.104,1.314,0.152,2.04,0.302
			l1.988,0.526c0.624,0.228,1.296,0.446,1.912,0.72c1.266,0.513,2.475,1.107,3.72,1.646c1.236,0.563,2.47,1.089,3.741,1.534
			c0.635,0.207,1.283,0.417,1.933,0.544c0.637,0.152,1.319,0.228,1.978,0.258c0.665-0.006,1.305-0.034,1.97-0.216l0.457-0.112
			l0.466-0.202c0.32-0.149,0.615-0.237,0.901-0.427l0.246-0.162l-0.002,0.304v0.001l-0.24-0.144l1.422-0.847l1.38-0.914
			l-0.021,0.018l2.354-1.851l-0.051,0.106l0.001-0.003l0.029-0.085l0.017-0.016l1.423-1.397c0.245-0.226,0.429-0.507,0.646-0.758
			l0.628-0.773c0.227-0.247,0.368-0.552,0.555-0.826l0.527-0.845c0.18-0.28,0.286-0.598,0.433-0.896L191.657,58.199z
			 M191.843,58.272l-0.408,0.922c-0.146,0.303-0.252,0.628-0.431,0.914l-0.528,0.862c-0.186,0.281-0.328,0.592-0.555,0.843
			l-0.63,0.791c-0.218,0.256-0.402,0.543-0.648,0.774l-1.429,1.428l0.046-0.101l-0.001,0.003l-0.029,0.088l-0.022,0.018l-2.313,1.85
			l-0.021,0.018l-1.385,0.934l-1.429,0.868l-0.239,0.146l-0.001-0.29v-0.001l0.243,0.142c-0.278,0.188-0.635,0.311-0.927,0.45
			l-0.464,0.206c-0.208,0.062-0.321,0.088-0.526,0.138c-0.645,0.185-1.364,0.233-2.052,0.241c-0.694-0.026-1.363-0.095-2.046-0.249
			c-0.681-0.128-1.325-0.331-1.979-0.539c-2.591-0.874-4.998-2.125-7.518-3.097c-0.628-0.262-1.251-0.447-1.903-0.669l-1.949-0.468
			c-0.601-0.112-1.325-0.162-1.981-0.246c-0.623-0.033-1.362-0.089-1.984-0.082l-1.016,0.02c-0.314-0.001-0.656,0.072-0.982,0.104
			l-1.979,0.247l-1.92,0.502c-0.317,0.087-0.612,0.231-0.92,0.343c-0.312,0.113-0.606,0.242-0.874,0.388l-0.148-0.793
			c0.242,0.042,0.377,0.104,0.569,0.16l0.496,0.208c0.323,0.148,0.622,0.328,0.934,0.493l-0.05-0.027l0.492,0.216l0.056,0.024
			l0.052,0.043l1.808,1.529c0.588,0.543,1.168,1.092,1.71,1.681c1.11,1.194,2.059,2.387,3.026,3.678
			c1.899,2.523,3.5,5.426,4.26,8.573l0.301,1.175c0.1,0.392,0.116,0.796,0.179,1.194c0.091,0.8,0.229,1.597,0.278,2.402l0.021,2.432
			c-0.006,0.403,0.023,0.819-0.011,1.211l-0.114,1.17l-0.238,2.34c-0.051,0.846-0.365,1.827-0.874,2.57
			c-1.034,1.535-2.562,2.428-4.044,3.117c-3.022,1.339-6.188,1.928-9.325,2.399c-1.573,0.225-3.146,0.399-4.718,0.547
			c-0.78,0.093-1.574,0.111-2.372,0.129l-2.388,0.066c-1.601,0.068-3.173,0.029-4.742-0.015l-4.716-0.109
			c-3.144-0.072-6.274-0.232-9.412-0.344c-6.272-0.246-12.537-0.562-18.803-0.856l-18.789-0.915l-9.377-0.438
			c-3.118-0.166-6.258-0.222-9.392-0.304l-1.199-0.032l-1.175-0.056l-0.587-0.028l-0.146-0.007c-0.115-0.005-0.116-0.011-0.18-0.016
			l-0.311-0.039l-1.2-0.161c-0.797-0.114-1.612-0.2-2.391-0.34l-2.306-0.466c-1.515-0.294-3.135-0.674-4.674-1.052l-4.515-1.344
			l1.212-0.899v0.002l-0.004,1.284l-1.193-0.38l-2.586-0.824l-2.55-0.854l-0.645-0.216l0.002-0.664v-0.001l0.617,0.871l-3.175-1.146
			l-1.59-0.602l-1.579-0.613c-1.064-0.422-2.073-0.852-3.127-1.295l-1.552-0.684l-0.77-0.34l-0.773-0.357l1.216-0.785v0.001
			l-0.009,1.366l-1.215-0.584l-2.048-0.985l-2.033-1.041l-0.43-0.22l0.003-0.506v-0.002l0.429,0.728l-1.438-0.8
			c-0.514-0.279-0.958-0.557-1.44-0.835l-2.839-1.686c-1.897-1.137-3.76-2.276-5.632-3.476c-0.916-0.586-1.857-1.203-2.764-1.815
			c-0.922-0.622-1.822-1.253-2.725-1.911l-1.334-1c-0.437-0.349-0.854-0.657-1.305-1.04l-0.632-0.529L4.78,73.652l-0.303-0.28
			l-1.256-1.175l0.033,0.035l-0.519-0.544l-0.502-0.552l-0.163-0.381c0.006,0.101,0.051,0.272,0.188,0.407
			c0.134,0.136,0.306,0.182,0.406,0.187L2.22,71.119l-0.483-0.591L1.31,69.943c-0.183-0.244-0.293-0.459-0.418-0.659
			c-0.112-0.167-0.289-0.519-0.367-0.705l-0.161-0.355c-0.09-0.212-0.085-0.258-0.132-0.395l-0.104-0.347l-0.025-0.103l-0.008-0.045
			l-0.016-0.089L0.05,67.022c-0.016-0.143-0.029-0.188-0.045-0.411l-0.004-0.09L0,66.499l0.002-0.107l0.004-0.045l0.015-0.18
			l0.037-0.416l0.104-0.405c0.294-1.085,1.008-1.976,1.799-2.647c0.397-0.343,0.828-0.632,1.273-0.888
			c0.453-0.256,0.893-0.475,1.411-0.662l-0.237,0.923c-0.826-1.01-1.527-1.995-1.881-3.408c-0.108-0.392-0.094-0.684-0.09-0.98
			V57.57v-0.028l0.006-0.103l0.01-0.059l0.043-0.237c0.028-0.158,0.055-0.314,0.104-0.479c0.084-0.32,0.187-0.66,0.417-0.998
			c0.226-0.341,0.611-0.607,0.958-0.727c0.678-0.221,1.219-0.288,1.756-0.479c0.537-0.179,1.038-0.43,1.521-0.709
			c0.525-0.313,0.951-0.662,1.435-1.026c0.474-0.352,0.942-0.71,1.376-1.119c0.904-0.768,1.745-1.612,2.584-2.46
			c0.813-0.873,1.635-1.741,2.405-2.66c1.568-1.81,3.055-3.697,4.547-5.587c0.756-0.94,1.544-1.857,2.314-2.786
			c0.79-0.913,1.514-1.884,2.359-2.746l2.467-2.651c0.808-0.898,1.68-1.73,2.53-2.585c1.7-1.712,3.423-3.396,5.165-5.054
			c0.876-0.828,1.714-1.685,2.622-2.488l2.713-2.41l-0.109,0.233v-0.018V20.25l0.111-0.09l1.814-1.457l0.929-0.688
			c0.301-0.227,0.629-0.465,0.944-0.683l0.958-0.665l0.964-0.639c0.655-0.429,1.318-0.816,1.979-1.227l0.513-0.318l-0.008,0.609
			c-0.001,0.042-0.009,0.088-0.022,0.128l-0.483-0.404l5.213-2.711l0.217,0.673l-0.004,0.001l-3.257,0.663l3.054-1.343
			c2.104-0.924,4.295-1.832,6.479-2.593c2.191-0.796,4.4-1.507,6.591-2.272c2.199-0.736,4.332-1.597,6.502-2.438
			c1.107-0.4,2.205-0.842,3.344-1.122c1.127-0.327,2.258-0.642,3.404-0.867c1.143-0.256,2.285-0.51,3.439-0.688
			c1.151-0.192,2.3-0.417,3.458-0.554c2.31-0.34,4.629-0.576,6.95-0.808c2.323-0.183,4.646-0.375,6.975-0.477
			c2.326-0.141,4.656-0.186,6.985-0.246c2.33-0.035,4.66-0.056,6.99-0.009c2.33,0.051,4.66,0.111,6.988,0.249
			c2.33,0.113,4.653,0.289,6.985,0.503c2.365,0.238,4.607,0.47,6.982,0.896l1.711,0.32c0.669,0.124,1.117,0.275,1.764,0.436
			c0.575,0.163,1.091,0.264,1.715,0.479l1.679,0.59c0.288,0.113,0.513,0.167,0.853,0.328l0.791,0.363
			c0.613,0.292,1.044,0.458,1.645,0.791c0.966,0.547,2.14,1.22,3.015,1.91l0.738,0.543c0.31,0.241,0.457,0.401,0.693,0.606
			l0.647,0.583l0.351,0.326c0.068,0.068,0.072,0.058,0.194,0.19l0.144,0.163l1.18,1.345c0.42,0.543,0.686,0.973,1.036,1.465
			c0.144,0.194,0.411,0.613,0.508,0.824l0.407,0.769l0.429,0.822c0.146,0.343,0.22,0.562,0.334,0.848l0.313,0.812l0.166,0.44
			l0.127,0.477l0.423,1.64l0.024,0.092l0.33,2.287l0.004,0.027v0.048v0.004l-0.004-0.076c0.024,0.905,0.146,1.81,0.086,2.713
			l-0.042,1.355c-0.033,0.453-0.093,0.908-0.14,1.361c-0.058,0.449-0.09,0.917-0.187,1.338l-0.247,1.293
			c-0.052,0.231-0.061,0.397-0.146,0.681l-0.199,0.679c-0.11,0.462-0.343,0.874-0.513,1.311c-0.2,0.423-0.45,0.846-0.681,1.247
			l-0.734,1.087l-0.362,0.549c-0.137,0.198-0.309,0.371-0.462,0.556c-0.312,0.371-0.63,0.734-0.991,1.008
			c-0.355,0.29-0.686,0.616-1.065,0.866c-0.37,0.26-0.741,0.54-1.111,0.781c-0.721,0.476-1.515,0.939-2.313,1.384l-0.18-1.086
			c0.576,0.078,1.26,0.048,1.891,0.073c0.32,0.014,0.644-0.03,0.966-0.042l0.969-0.057l0.97-0.056l0.981-0.127l1.965-0.265
			l0.982-0.133c0.272-0.029,0.634-0.118,0.946-0.174l1.945-0.384l0.973-0.192l0.954-0.216c0.648-0.14,1.27-0.313,1.915-0.471
			l-0.23,0.61l-0.001-0.001l-0.308-0.473l0.54-0.138c1.301-0.332,2.6-0.664,3.919-0.95l0.107-0.023l0.14,0.056
			c0.1,0.039,0.202,0.205,0.192,0.311l-0.437-0.34l2.995-0.565l-0.091,0.61l-0.041-0.022l-0.802-0.447l0.932-0.144
			c0.944-0.146,1.928-0.258,2.878-0.345c0.509-0.048,0.969-0.051,1.455-0.079c0.493-0.033,0.986-0.018,1.461-0.007l0.721,0.014
			c0.254,0.012,0.505,0.04,0.738,0.062c0.472,0.055,0.963,0.071,1.452,0.172c0.477,0.097,0.935,0.167,1.427,0.286l1.394,0.419
			c0.504,0.169,0.895,0.39,1.347,0.582c0.468,0.188,0.87,0.492,1.269,0.742c0.406,0.252,0.814,0.552,1.179,0.89
			c0.339,0.328,0.716,0.661,1.017,1.039l0.947,1.096c0.311,0.369,0.643,0.721,0.936,1.105l1.714,2.337l-0.02-0.024l0.021,0.027
			l0.007,0.008l0.005,0.007l0.943,1.515l0.847,1.574l0.005,0.011l0.008,0.015l-0.005-0.011l0.641,1.43
			c0.19,0.486,0.355,0.983,0.534,1.474c0.091,0.245,0.139,0.504,0.211,0.755l0.198,0.759c0.071,0.251,0.092,0.515,0.14,0.771
			l0.125,0.775c0.042,0.258,0.037,0.521,0.058,0.782l0.043,0.784c-0.01,0.523-0.054,1.046-0.079,1.568l-0.271,1.553L191.843,58.272z
			"/>
	</g>
</g>
</svg>
