<?xml version="1.0" encoding="utf-8"?>
<!-- Generator: Adobe Illustrator 16.0.4, SVG Export Plug-In . SVG Version: 6.00 Build 0)  -->
<!DOCTYPE svg PUBLIC "-//W3C//DTD SVG 1.1//EN" "http://www.w3.org/Graphics/SVG/1.1/DTD/svg11.dtd">
<svg version="1.1" id="Layer_1" xmlns="http://www.w3.org/2000/svg" xmlns:xlink="http://www.w3.org/1999/xlink" x="0px" y="0px"
	 width="581.984px" height="35.232px" viewBox="0 0 581.984 35.232" enable-background="new 0 0 581.984 35.232"
	 xml:space="preserve">
<path fill="#FFFFFF" d="M558.759,10.946c0-3.08,2.496-5.576,5.576-5.576h12.072c3.08,0,5.576,2.496,5.576,5.576v13.339
	c0,3.08-2.496,5.576-5.576,5.576h-12.072c-3.08,0-5.576-2.496-5.576-5.576V10.946z"/>
<polyline fill="#FFFFFF" points="0,12.939 558.759,12.939 558.759,22.292 0,22.292 "/>
<path fill="#FFFFFF" d="M541.138,35.232h27.131c2.426,0,4.393-1.967,4.393-4.394V19v-2.769V4.394c0-2.427-1.967-4.394-4.393-4.394
	h-27.131c-10.734,0-10.734,11.578-21.059,11.837v4.395V19v4.395C530.404,23.653,530.404,35.232,541.138,35.232z"/>
</svg>
