<?xml version="1.0" encoding="utf-8"?>
<!-- Generator: Adobe Illustrator 16.0.0, SVG Export Plug-In . SVG Version: 6.00 Build 0)  -->
<!DOCTYPE svg PUBLIC "-//W3C//DTD SVG 1.1//EN" "http://www.w3.org/Graphics/SVG/1.1/DTD/svg11.dtd">
<svg version="1.1" id="Layer_1" xmlns="http://www.w3.org/2000/svg" xmlns:xlink="http://www.w3.org/1999/xlink" x="0px" y="0px"
	 width="76.993px" height="99.209px" viewBox="0 0 76.993 99.209" enable-background="new 0 0 76.993 99.209" xml:space="preserve">
<rect id="colour" x="0.5" y="0.5" fill="#CFB7D7" width="75.993" height="98.21"/>
<g>
	<path fill="#FFFFFF" d="M3.616,2.24c0-0.442-0.098-0.861-0.266-1.241H1v4.267C2.479,5.042,3.616,3.78,3.616,2.24z"/>
	<path fill="#FFFFFF" d="M14.368,5.311c1.695,0,3.072-1.375,3.072-3.071c0-0.442-0.098-0.861-0.267-1.241h-5.611
		c-0.169,0.38-0.267,0.799-0.267,1.241C11.294,3.936,12.671,5.311,14.368,5.311z"/>
	<path fill="#FFFFFF" d="M28.19,5.311c1.695,0,3.072-1.375,3.072-3.071c0-0.442-0.098-0.861-0.267-1.241h-5.612
		c-0.168,0.38-0.266,0.799-0.266,1.241C25.12,3.936,26.495,5.311,28.19,5.311z"/>
	<path fill="#FFFFFF" d="M42.014,5.311c1.695,0,3.07-1.375,3.07-3.071c0-0.442-0.099-0.861-0.267-1.241h-5.61
		c-0.168,0.38-0.267,0.799-0.267,1.241C38.944,3.936,40.317,5.311,42.014,5.311z"/>
	<path fill="#FFFFFF" d="M55.836,5.311c1.697,0,3.072-1.375,3.072-3.071c0-0.442-0.099-0.861-0.269-1.241h-5.609
		c-0.168,0.38-0.266,0.799-0.266,1.241C52.768,3.936,54.141,5.311,55.836,5.311z"/>
	<path fill="#FFFFFF" d="M69.663,5.311c1.697,0,3.072-1.375,3.072-3.071c0-0.442-0.098-0.861-0.27-1.241h-5.609
		c-0.168,0.38-0.268,0.799-0.268,1.241C66.588,3.936,67.963,5.311,69.663,5.311z"/>
	<circle fill="#FFFFFF" cx="7.456" cy="10.797" r="3.072"/>
	<circle fill="#FFFFFF" cx="21.278" cy="10.797" r="3.072"/>
	<circle fill="#FFFFFF" cx="35.104" cy="10.797" r="3.072"/>
	<circle fill="#FFFFFF" cx="48.924" cy="10.797" r="3.072"/>
	<circle fill="#FFFFFF" cx="62.75" cy="10.797" r="3.072"/>
	<path fill="#FFFFFF" d="M73.5,10.797c0,1.497,1.071,2.74,2.49,3.013V7.784C74.575,8.057,73.5,9.299,73.5,10.797z"/>
	<path fill="#FFFFFF" d="M3.616,19.354c0-1.541-1.137-2.804-2.615-3.026v6.052C2.479,22.158,3.616,20.894,3.616,19.354z"/>
	<circle fill="#FFFFFF" cx="14.368" cy="19.355" r="3.072"/>
	<circle fill="#FFFFFF" cx="28.19" cy="19.355" r="3.072"/>
	<circle fill="#FFFFFF" cx="42.014" cy="19.355" r="3.072"/>
	<circle fill="#FFFFFF" cx="55.836" cy="19.355" r="3.072"/>
	<circle fill="#FFFFFF" cx="69.663" cy="19.355" r="3.072"/>
	<circle fill="#FFFFFF" cx="7.456" cy="27.911" r="3.072"/>
	<circle fill="#FFFFFF" cx="21.278" cy="27.911" r="3.072"/>
	<circle fill="#FFFFFF" cx="35.104" cy="27.911" r="3.072"/>
	<circle fill="#FFFFFF" cx="48.924" cy="27.911" r="3.072"/>
	<circle fill="#FFFFFF" cx="62.75" cy="27.911" r="3.072"/>
	<path fill="#FFFFFF" d="M73.5,27.911c0,1.497,1.071,2.741,2.49,3.014v-6.027C74.575,25.17,73.5,26.415,73.5,27.911z"/>
	<path fill="#FFFFFF" d="M3.616,36.977c0-1.54-1.137-2.803-2.615-3.025v6.051C2.479,39.781,3.616,38.518,3.616,36.977z"/>
	<circle fill="#FFFFFF" cx="14.368" cy="36.977" r="3.071"/>
	<circle fill="#FFFFFF" cx="28.19" cy="36.977" r="3.071"/>
	<circle fill="#FFFFFF" cx="42.014" cy="36.977" r="3.071"/>
	<circle fill="#FFFFFF" cx="55.836" cy="36.977" r="3.071"/>
	<circle fill="#FFFFFF" cx="69.663" cy="36.977" r="3.071"/>
	<circle fill="#FFFFFF" cx="7.456" cy="45.534" r="3.072"/>
	<circle fill="#FFFFFF" cx="21.278" cy="45.534" r="3.072"/>
	<circle fill="#FFFFFF" cx="35.104" cy="45.534" r="3.072"/>
	<circle fill="#FFFFFF" cx="48.924" cy="45.534" r="3.072"/>
	<circle fill="#FFFFFF" cx="62.75" cy="45.534" r="3.072"/>
	<path fill="#FFFFFF" d="M73.5,45.535c0,1.499,1.071,2.74,2.49,3.014v-6.027C74.575,42.793,73.5,44.037,73.5,45.535z"/>
	<path fill="#FFFFFF" d="M3.616,54.091c0-1.539-1.137-2.803-2.615-3.025v6.056C2.479,56.897,3.616,55.63,3.616,54.091z"/>
	<circle fill="#FFFFFF" cx="14.368" cy="54.093" r="3.072"/>
	<circle fill="#FFFFFF" cx="28.19" cy="54.093" r="3.072"/>
	<circle fill="#FFFFFF" cx="42.014" cy="54.093" r="3.072"/>
	<circle fill="#FFFFFF" cx="55.836" cy="54.093" r="3.072"/>
	<circle fill="#FFFFFF" cx="69.663" cy="54.093" r="3.072"/>
	<circle fill="#FFFFFF" cx="7.456" cy="62.649" r="3.072"/>
	<circle fill="#FFFFFF" cx="21.278" cy="62.649" r="3.072"/>
	<circle fill="#FFFFFF" cx="35.104" cy="62.649" r="3.072"/>
	<circle fill="#FFFFFF" cx="48.924" cy="62.649" r="3.072"/>
	<circle fill="#FFFFFF" cx="62.75" cy="62.649" r="3.072"/>
	<path fill="#FFFFFF" d="M73.5,62.649c0,1.498,1.071,2.742,2.49,3.014V59.64C74.575,59.909,73.5,61.151,73.5,62.649z"/>
	<path fill="#FFFFFF" d="M3.616,71.714c0-1.539-1.137-2.803-2.615-3.023v6.052C2.479,74.519,3.616,73.255,3.616,71.714z"/>
	<circle fill="#FFFFFF" cx="14.368" cy="71.716" r="3.072"/>
	<circle fill="#FFFFFF" cx="28.19" cy="71.716" r="3.072"/>
	<circle fill="#FFFFFF" cx="42.014" cy="71.716" r="3.072"/>
	<circle fill="#FFFFFF" cx="55.836" cy="71.716" r="3.072"/>
	<circle fill="#FFFFFF" cx="69.663" cy="71.716" r="3.072"/>
	<circle fill="#FFFFFF" cx="7.456" cy="80.273" r="3.071"/>
	<circle fill="#FFFFFF" cx="21.278" cy="80.273" r="3.071"/>
	<circle fill="#FFFFFF" cx="35.104" cy="80.273" r="3.071"/>
	<circle fill="#FFFFFF" cx="48.924" cy="80.273" r="3.071"/>
	<circle fill="#FFFFFF" cx="62.75" cy="80.273" r="3.071"/>
	<path fill="#FFFFFF" d="M73.5,80.272c0,1.498,1.071,2.742,2.49,3.014v-6.021C74.575,77.534,73.5,78.774,73.5,80.272z"/>
	<path fill="#FFFFFF" d="M3.616,88.831c0-1.541-1.137-2.805-2.615-3.023v6.051C2.479,91.634,3.616,90.37,3.616,88.831z"/>
	<circle fill="#FFFFFF" cx="14.368" cy="88.831" r="3.072"/>
	<circle fill="#FFFFFF" cx="28.19" cy="88.831" r="3.072"/>
	<circle fill="#FFFFFF" cx="42.014" cy="88.831" r="3.072"/>
	<circle fill="#FFFFFF" cx="55.836" cy="88.831" r="3.072"/>
	<circle fill="#FFFFFF" cx="69.663" cy="88.831" r="3.072"/>
	<path fill="#FFFFFF" d="M7.456,94.315c-1.695,0-3.07,1.375-3.07,3.072c0,0.286,0.052,0.561,0.126,0.823h5.89
		c0.074-0.269,0.126-0.537,0.126-0.823C10.526,95.69,9.151,94.315,7.456,94.315z"/>
	<path fill="#FFFFFF" d="M21.278,94.315c-1.697,0-3.072,1.375-3.072,3.072c0,0.286,0.052,0.561,0.126,0.823h5.892
		c0.074-0.269,0.126-0.537,0.126-0.823C24.353,95.69,22.978,94.315,21.278,94.315z"/>
	<path fill="#FFFFFF" d="M35.104,94.315c-1.697,0-3.072,1.375-3.072,3.072c0,0.286,0.052,0.561,0.126,0.823h5.89
		c0.074-0.269,0.126-0.537,0.126-0.823C38.173,95.69,36.798,94.315,35.104,94.315z"/>
	<path fill="#FFFFFF" d="M48.924,94.315c-1.693,0-3.07,1.375-3.07,3.072c0,0.286,0.053,0.561,0.127,0.823h5.893
		c0.072-0.269,0.125-0.537,0.125-0.823C51.999,95.69,50.624,94.315,48.924,94.315z"/>
	<path fill="#FFFFFF" d="M62.75,94.315c-1.695,0-3.072,1.375-3.072,3.072c0,0.286,0.053,0.561,0.127,0.823h5.891
		c0.074-0.269,0.129-0.537,0.129-0.823C65.823,95.69,64.446,94.315,62.75,94.315z"/>
	<path fill="#FFFFFF" d="M73.5,97.388c0,0.287,0.055,0.562,0.125,0.824h2.365v-3.84C74.575,94.646,73.5,95.89,73.5,97.388z"/>
</g>
<path id="frame" fill="#A386BE" d="M75.993,1v97.21H1V1H75.993 M76.993,0h-1H1H0v1v97.21v1h1h74.993h1v-1V1V0L76.993,0z"/>
</svg>
