<?xml version="1.0" encoding="utf-8"?>
<!-- Generator: Adobe Illustrator 16.0.4, SVG Export Plug-In . SVG Version: 6.00 Build 0)  -->
<!DOCTYPE svg PUBLIC "-//W3C//DTD SVG 1.1//EN" "http://www.w3.org/Graphics/SVG/1.1/DTD/svg11.dtd">
<svg version="1.1" id="Layer_1" xmlns="http://www.w3.org/2000/svg" xmlns:xlink="http://www.w3.org/1999/xlink" x="0px" y="0px"
	 width="203.077px" height="93.446px" viewBox="0 0 203.077 93.446" enable-background="new 0 0 203.077 93.446"
	 xml:space="preserve">
<path fill="#D6C5B3" d="M7.5,31.525l17.629-0.441h17.017l2.199,10.203c9.591-3.719,19.527-3.862,32.38-0.436l84.816,11.406
	l16.937-6.189l22.234,3.457v14.986c0,5.25,0.132,6.472-1,7.207l-39.706,17.906c-13.534,6.768-26.57,2.998-33.692,0.438L5.118,54.238
	c-1.295-0.466-1.963-0.975-2.157-1.511H2.896V37.525L7.5,31.525z"/>
<path fill="#C6B3A1" d="M7.5,20.858l17.629-0.441h17.017l2.199,10.203c9.591-3.719,19.527-3.862,32.38-0.436l84.816,11.406
	l16.937-6.189l22.234,3.457v14.986c0,5.25,0.132,17.139-1,17.874l-44.045,19.641c-2.666,1.666-3.791,1.438-7,2
	c-1.528,0.268-1.576-10.703-3.044-10.629c-7.895,0.4-14.792-1.711-19.31-3.335L4.118,45.571c-1.295-0.466-0.963-2.975-1.157-3.511
	H2.896V26.858L7.5,20.858z"/>
<path fill="#BC9264" d="M0.529,17.011h21.964h17.602l2.274,10.554c9.921-3.846,20.199-3.994,33.493-0.45l87.732,11.799l17.519-6.402
	l21.964,3v7.514c0,0-0.979,4.092-0.958,5.566c0.019,1.368,0.958,5.113,0.958,5.113c0,4.321-0.829,6.1-2,6.86
	c0,0-1.044-5.032-3.077-5.54c-3.089-0.772-27.815,8.537-40,14c-1.188,0.595-3.401,4.104-4.58,7.188
	c-0.475,1.242-2.119,3.679-2.881,4.033c-7.039,3.278-17.334-0.054-23.383-2.229L2.828,43.065c-1.339-0.481-2.03-1.008-2.23-1.562
	H0.529l1.596-10.493L0.5,24.025L0.529,17.011z"/>
<path fill="#BC9264" d="M0.529,41.502h0.068c0.2,0.555,0.892,1.081,2.23,1.562l124.328,34.953
	c6.049,2.175,16.344,5.507,23.383,2.229c0.762-0.354,2.406-2.791,2.881-4.033c0.764-1.997,1.959-4.167,3.03-5.614L2.041,31.558
	L0.529,41.502z"/>
<path opacity="0.4" fill="#AF8358" d="M158,69.025c12.185-5.463,32.411-30.272,35.5-29.5c2.033,0.508,7.577,21.04,7.577,21.04
	c1.171-0.761,2-2.539,2-6.86c0,0-0.939-3.745-0.958-5.113c-0.021-1.475,0.958-5.566,0.958-5.566l-4.577-8l-17.387-2.514
	l-17.519,6.402L144.5,36.025c-13.294-3.544,10.421,15.654,0.5,19.5L0,19.025l2.125,11.984l-0.084,0.549L154.5,74.025
	C155.084,73.237,157.581,69.235,158,69.025z"/>
<path fill="#AF8358" d="M153.42,76.213c0.62-3.243,3.392-6.594,4.58-7.188c12.185-5.463,36.911-14.772,40-14c2.033,0.508,2,7,2,7
	c1.171-0.761,3.077-3.999,3.077-8.32c0,0-0.939-3.745-0.958-5.113c-0.021-1.475,0.958-5.566,0.958-5.566l-2.577-8l-19.387-2.514
	l-17.519,6.402L147,36.077l-0.59,26.778l1.795,7.303L146,81.42C148.38,81.361,152.5,81.025,153.42,76.213z"/>
<path fill="#D8AF87" d="M14.961,10.333c-8,2.5-19.999,6.52-12.633,9.168l124.328,33.953C134.022,56.102,147.507,60,161.507,53
	l40.07-16c3.23-2.098,1.047-6-14.373-8.899L75.362,2.55C62.068-0.994,51.79-0.845,41.869,3L14.961,10.333z"/>
</svg>
