<?xml version="1.0" encoding="utf-8"?>
<!-- Generator: Adobe Illustrator 16.0.0, SVG Export Plug-In . SVG Version: 6.00 Build 0)  -->
<!DOCTYPE svg PUBLIC "-//W3C//DTD SVG 1.1//EN" "http://www.w3.org/Graphics/SVG/1.1/DTD/svg11.dtd">
<svg version="1.1" id="Layer_1" xmlns="http://www.w3.org/2000/svg" xmlns:xlink="http://www.w3.org/1999/xlink" x="0px" y="0px"
	 width="154px" height="150px" viewBox="0 0 154 150" enable-background="new 0 0 154 150" xml:space="preserve">
<circle fill="#E955FF" cx="76.652" cy="75.182" r="70.303"/>
<path fill="#CE2FEA" d="M76.651,141.242c-38.117,0-69.125-30.338-70.249-68.182c-0.021,0.706-0.054,1.41-0.054,2.121
	c0,38.827,31.475,70.303,70.303,70.303s70.303-31.476,70.303-70.303c0-0.711-0.032-1.415-0.054-2.121
	C145.776,110.904,114.769,141.242,76.651,141.242z"/>
<path id="selected" display="none" opacity="0.3" d="M76.651,4.878c-38.828,0-70.303,31.476-70.303,70.303
	c0,2.427,0.123,4.825,0.363,7.188c0.24,2.363,0.597,4.692,1.065,6.98c0.234,1.144,0.496,2.278,0.785,3.401
	c7.802,30.325,35.328,52.733,68.089,52.733c4.854,0,9.592-0.492,14.169-1.428c32.036-6.556,56.134-34.901,56.134-68.875
	C146.955,36.354,115.479,4.878,76.651,4.878z"/>
<path id="inactive" display="none" opacity="0.5" fill="#FFFFFF" d="M76.651,4.878c-38.828,0-70.303,31.476-70.303,70.303
	c0,2.427,0.123,4.825,0.363,7.188c0.24,2.363,0.597,4.692,1.065,6.98c0.234,1.144,0.496,2.278,0.785,3.401
	c7.802,30.325,35.328,52.733,68.089,52.733c4.854,0,9.592-0.492,14.169-1.428c32.036-6.556,56.134-34.901,56.134-68.875
	C146.955,36.354,115.479,4.878,76.651,4.878z"/>
</svg>
