<?xml version="1.0" encoding="utf-8"?>
<!-- Generator: Adobe Illustrator 16.0.0, SVG Export Plug-In . SVG Version: 6.00 Build 0)  -->
<!DOCTYPE svg PUBLIC "-//W3C//DTD SVG 1.1//EN" "http://www.w3.org/Graphics/SVG/1.1/DTD/svg11.dtd">
<svg version="1.1" id="_x31_" xmlns="http://www.w3.org/2000/svg" xmlns:xlink="http://www.w3.org/1999/xlink" x="0px" y="0px"
	 width="201.333px" height="468.821px" viewBox="0 0 201.333 468.821" enable-background="new 0 0 201.333 468.821"
	 xml:space="preserve">
<g id="body">
	<g>
		<path id="colour_arm_1_" fill="#9B6D5D" d="M36.819,422.526c0.338-14.513,0.377-14.009,0.521-16.57
			c0.67-11.957,3.514-60.256,3.514-60.256s6.391-38.164,9.158-48.269c6.839-24.972,3.719-45.64,0.886-51
			c-12.681-24-28.014,20-26.872,62.358c0.303,11.229,2.429,36.338,0.929,53.812c-1.481,17.261,4.937,51.836,2.097,59.6
			c-1.514,4.131,3.07,23.559,3.07,23.559L36.819,422.526z"/>
		<path fill="none" stroke="#000100" stroke-width="2" stroke-linecap="round" stroke-linejoin="round" stroke-miterlimit="10" d="
			M26.827,423.25c-0.09-2.152,1.433-5.223,1.67-10.021c0.297-6.018-2.562-26.189-3.105-32.995
			c-0.546-6.804,0.865-45.265,0.865-45.265s-1.182-27.408-1.039-50.541"/>
		<path fill="none" stroke="#000100" stroke-width="2" stroke-linecap="round" stroke-linejoin="round" stroke-miterlimit="10" d="
			M36.905,421.2c-0.221-0.826,4.688-57.613,3.949-75.5c-0.184-4.521,1.459-7.996,1.5-9.562l7.658-44.705"/>
		
			<path id="colour_hand_4" fill="#9B6D5D" stroke="#000100" stroke-width="2" stroke-linecap="round" stroke-linejoin="round" stroke-miterlimit="10" d="
			M27.375,419.907c0,0-1.684,4.605-1.123,10.127c0.398,3.92,1.365,9.428,0.988,13.754c-0.359,4.109,0.647,5.355,1.67,8.342
			c0.64,1.867,1.502,5.102,2.255,6.215c0.751,1.119,1.772,2.918,1.772,2.918s5.172,5.707,7.1,5.668
			c1.533-0.027,1.189-2.164,0.654-3.521c-0.533-1.359-2.867-1.701-3.863-3.041c-0.996-1.336-4.293-6.82-4.293-6.82"/>
		
			<path id="colour_hand_2_1_" fill="#9B6D5D" stroke="#000100" stroke-width="2" stroke-linecap="round" stroke-linejoin="round" stroke-miterlimit="10" d="
			M34.291,450.75c0,0,2.82,1.98,2.826,3.432c0.004,1.457-1.395,0.812-2.924,0.191"/>
		
			<path id="colour_hand_1_1_" fill="#9B6D5D" stroke="#000100" stroke-width="2" stroke-linecap="round" stroke-linejoin="round" stroke-miterlimit="10" d="
			M34.302,456.438c0,0,2.481-0.359,3.839,1c1.795,1.795,1.775,4.385,0.105,4.938c-1.67,0.551-2.933-2.918-2.933-2.918"/>
		
			<path id="colour_hand_3" fill="#9B6D5D" stroke="#000100" stroke-width="2" stroke-linecap="round" stroke-linejoin="round" stroke-miterlimit="10" d="
			M35.914,417.722c-0.13,0.471,2.356,6.667,4.234,10.12c1.879,3.455,3.705,7.883,3.305,13.061c-0.283,3.67-0.354,8.117-0.377,10.484
			c-0.025,2.486-1.121,5.562-2.419,4.705c-1.294-0.857-2.358-4.943-2.327-7.262c0.018-1.189,1.074-4.785,0.232-7.014
			c-0.623-1.646-1.384-2.848-2.232-1.346c-0.848,1.504-2.865,7.48-2.408,8.689c0.455,1.211,1.365,8.854,3.879,13.535
			c1.062,1.979,1.618,4.395,0.752,5.52c-0.867,1.127-5.488-4.604-6.123-7.84c-0.633-3.229-1.711-6.145-2.315-8.318
			c-0.533-1.904-0.417-5.559,0.007-6.303"/>
		
			<path fill="none" stroke="#000100" stroke-width="0.5" stroke-linecap="round" stroke-linejoin="round" stroke-miterlimit="10" d="
			M42.975,450.391c0,0-2.095-1.203-2.467,0.557c-0.371,1.764,0.149,5.145,0.149,5.145"/>
	</g>
	
		<path id="colour_body" fill="#9B6D5D" stroke="#000100" stroke-width="2.5" stroke-linecap="round" stroke-linejoin="round" stroke-miterlimit="10" d="
		M91.086,188.182c0,0,5.781,13.961-2.699,16.312c-1.75,0.485-43.822,6.938-28.844,12.438s13.673,122.5,93.52,7.917
		c5.262-7.548-11.084-13.775-16.938-15.354c-6.633-1.79-26.104-3.637-26.396-9.668c-0.293-6.03-0.48-11.645-0.48-11.645H91.086
		L91.086,188.182z"/>
	
		<path fill="#A640FF" stroke="#000000" stroke-width="2.5" stroke-linecap="round" stroke-linejoin="round" stroke-miterlimit="10" d="
		M163.386,245.931c-6.884-17.231-7.66-30.075-15.744-33.708c-5.763-2.592-16.086-3.729-16.086-3.729s5.329,30.604-30.871,30.604
		c-28.468,0-28.318-31.896-28.318-31.896s-9.431,1-19.263,4.746c0,0-13.679,21.93-11.43,42.523
		c2.012,18.418-6.695,19.32-4.137,18.467c-0.049,2.16,7.188,5.199,12.475,9.021c3.073,2.223,3.887,14.289,3.843,16.453
		c-1.655,81.604-1.507,162.781-2.843,169.438c2.361,0.184,4.727,0.404,7.061,0.566c13.201,0.189,71.728,0.189,84.929,0
		c2.336-0.162,4.144,0.551,6.504,0.373c-0.271-25.75-0.271-130.781-3.322-180.229C154.213,302.167,165.808,251.993,163.386,245.931z
		"/>
	<g>
		
			<path fill="#A640FF" stroke="#000000" stroke-width="2.5" stroke-linecap="round" stroke-linejoin="round" stroke-miterlimit="10" d="
			M54.519,211.186c-12.234,5.059-25.177,15.399-29.741,46.71c-0.817,5.604-4.221,23.293-4.221,23.293
			c9.201,5.11,17.341,10.25,31.328,9.242c0,0,2.332,2.666,2.035,0.817c-1.33-8.274,0.153-21.304,0.406-24.015"/>
	</g>
	<path fill="none" stroke="#000000" stroke-width="2.5" stroke-linecap="round" stroke-linejoin="round" stroke-miterlimit="10" d="
		M52.938,286.135c0.581-7.598-3.926-10.182-3.926-10.182"/>
	<g>
		<path id="colour_arm" fill="#9B6D5D" d="M162.431,422.526c-0.337-14.513-0.377-14.009-0.521-16.57
			c-0.676-11.957-3.52-60.256-3.52-60.256s-6.395-38.164-9.158-48.269c-6.838-24.972,0-45-0.885-51
			c-2.104-14.277,15.928,5.086,24.796,31.771c3.208,9.651,0.871,20.266,2.075,30.588c1.301,11.156-2.432,36.34-0.932,53.815
			c1.479,17.261-4.938,51.836-2.098,59.599c1.514,4.131-3.07,23.559-3.07,23.559L162.431,422.526z"/>
		<path fill="none" stroke="#000100" stroke-width="2" stroke-linecap="round" stroke-linejoin="round" stroke-miterlimit="10" d="
			M172.422,423.25c0.091-2.152-1.432-5.223-1.67-10.021c-0.297-6.018,2.562-26.189,3.104-32.995
			c0.546-6.804-0.861-45.265-0.861-45.265s2-26.076,1.854-49.209"/>
		<path fill="none" stroke="#000100" stroke-width="2" stroke-linecap="round" stroke-linejoin="round" stroke-miterlimit="10" d="
			M162.345,421.2c0.222-0.826-4.687-57.613-3.949-75.5c0.185-4.521-1.458-7.996-1.5-9.562l-7.657-43.705"/>
		
			<path id="colour_hand_4_1_" fill="#9B6D5D" stroke="#000100" stroke-width="2" stroke-linecap="round" stroke-linejoin="round" stroke-miterlimit="10" d="
			M171.875,419.907c0,0,1.683,4.605,1.121,10.127c-0.396,3.92-1.365,9.428-0.988,13.754c0.359,4.109-0.646,5.355-1.67,8.342
			c-0.639,1.867-1.5,5.102-2.254,6.215c-0.752,1.119-1.771,2.918-1.771,2.918s-5.173,5.707-7.1,5.668
			c-1.533-0.027-1.19-2.164-0.655-3.521c0.532-1.359,2.868-1.701,3.862-3.041c0.996-1.336,4.293-6.82,4.293-6.82"/>
		
			<path id="colour_hand_2" fill="#9B6D5D" stroke="#000100" stroke-width="2" stroke-linecap="round" stroke-linejoin="round" stroke-miterlimit="10" d="
			M164.959,450.75c0,0-2.821,1.98-2.828,3.432c-0.004,1.457,1.396,0.812,2.925,0.191"/>
		
			<path id="colour_hand_1" fill="#9B6D5D" stroke="#000100" stroke-width="2" stroke-linecap="round" stroke-linejoin="round" stroke-miterlimit="10" d="
			M164.95,456.438c0,0-2.482-0.359-3.842,1c-1.794,1.795-1.773,4.385-0.104,4.938c1.67,0.551,2.934-2.918,2.934-2.918"/>
		
			<path id="colour_hand_3_1_" fill="#9B6D5D" stroke="#000100" stroke-width="2" stroke-linecap="round" stroke-linejoin="round" stroke-miterlimit="10" d="
			M163.334,417.722c0.131,0.471-2.354,6.667-4.233,10.12c-1.878,3.455-3.705,7.883-3.306,13.061
			c0.283,3.67,0.354,8.117,0.379,10.484c0.025,2.486,1.121,5.562,2.418,4.705c1.294-0.857,2.359-4.943,2.326-7.262
			c-0.021-1.189-1.073-4.785-0.231-7.014c0.624-1.646,1.386-2.848,2.231-1.346c0.85,1.504,2.867,7.48,2.408,8.689
			c-0.453,1.211-1.365,8.854-3.877,13.535c-1.062,1.979-1.619,4.395-0.758,5.52c0.868,1.127,5.489-4.604,6.123-7.84
			c0.637-3.229,1.711-6.145,2.312-8.318c0.533-1.904,0.416-5.559-0.008-6.303"/>
		
			<path fill="none" stroke="#000100" stroke-width="0.5" stroke-linecap="round" stroke-linejoin="round" stroke-miterlimit="10" d="
			M156.275,450.391c0,0,2.097-1.203,2.468,0.557c0.37,1.764-0.146,5.145-0.146,5.145"/>
	</g>
	<g>
		
			<path fill="#A640FF" stroke="#000000" stroke-width="2.5" stroke-linecap="round" stroke-linejoin="round" stroke-miterlimit="10" d="
			M144.731,211.186c12.234,5.059,25.178,15.399,29.74,46.71c0.816,5.604,4.221,24.201,4.221,24.201
			c-9.199,5.11-16.34,10.25-30.326,9.241c0,0-3.13-14.67-3.635-20.104"/>
	</g>
	<path fill="none" stroke="#000000" stroke-width="2.5" stroke-linecap="round" stroke-linejoin="round" stroke-miterlimit="10" d="
		M149.238,275.776c0,0-3.202,3.941-3.056,12.788"/>
	
		<path fill="#FF9D3F" stroke="#000000" stroke-width="2.5" stroke-linecap="round" stroke-linejoin="round" stroke-miterlimit="10" d="
		M53.084,259.821"/>
</g>
<path id="colour_x5F_skin_11_" fill="#9B6D5D" stroke="#000100" stroke-width="2.5" stroke-miterlimit="10" d="M25.495,113.729
	c-0.619,41.832,32.793,76.248,74.626,76.868c60.624,0.897,76.596-56.474,76.867-74.623c0.617-41.833-32.793-76.249-74.625-76.87
	C60.532,38.488,26.118,71.896,25.495,113.729z"/>
<g id="earrings">
	
		<ellipse transform="matrix(0.176 -0.9844 0.9844 0.176 -2.3631 287.9191)" fill="#F700BD" stroke="#000000" stroke-width="2" stroke-linecap="round" stroke-linejoin="round" stroke-miterlimit="10" cx="170.804" cy="145.371" rx="5.653" ry="3.479"/>
	
		<ellipse transform="matrix(0.1759 0.9844 -0.9844 0.1759 167.7596 90.3685)" fill="#F700BD" stroke="#000000" stroke-width="2" stroke-linecap="round" stroke-linejoin="round" stroke-miterlimit="10" cx="29.906" cy="145.381" rx="5.653" ry="3.478"/>
	
		<ellipse transform="matrix(0.1759 -0.9844 0.9844 0.1759 -13.5148 297.3032)" fill="#F700BD" stroke="#000000" stroke-width="2" stroke-linecap="round" stroke-linejoin="round" stroke-miterlimit="10" cx="170.803" cy="156.723" rx="5.653" ry="3.477"/>
	
		<ellipse transform="matrix(0.17 0.9854 -0.9854 0.17 179.2773 100.6041)" fill="#F700BD" stroke="#000000" stroke-width="2" stroke-linecap="round" stroke-linejoin="round" stroke-miterlimit="10" cx="29.914" cy="156.732" rx="5.653" ry="3.477"/>
	
		<path fill="#F700BD" stroke="#000000" stroke-width="2" stroke-linecap="round" stroke-linejoin="round" stroke-miterlimit="10" d="
		M178.892,173.869c0.171,6.59-2.979,12.018-7.03,12.123c-4.057,0.104-7.48-5.154-7.652-11.744c-0.17-6.592,2.98-12.018,7.035-12.121
		C175.297,162.021,178.723,167.278,178.892,173.869z"/>
	
		<ellipse transform="matrix(-0.0258 0.9997 -0.9997 -0.0258 205.6743 147.6712)" fill="#F700BD" stroke="#000000" stroke-width="2" stroke-linecap="round" stroke-linejoin="round" stroke-miterlimit="10" cx="30.883" cy="174.052" rx="11.94" ry="7.343"/>
</g>
<g id="eyes">
	<path fill="#000100" d="M121.679,101.019c-0.366-2.388-2.3-4.178-4.702-4.357c-0.387-0.029-0.779-0.015-1.166,0.044
		c-1.361,0.207-2.562,0.934-3.373,2.044c-0.812,1.107-1.145,2.467-0.938,3.829c0.365,2.386,2.299,4.178,4.701,4.357
		c0.389,0.029,0.774,0.012,1.166-0.047c1.358-0.208,2.561-0.935,3.375-2.044C121.555,103.738,121.887,102.379,121.679,101.019z"/>
	<path fill="#000100" d="M78.163,98.658c-0.386-0.029-0.78-0.013-1.165,0.045c-1.363,0.207-2.557,0.935-3.375,2.043
		c-0.811,1.11-1.148,2.469-0.938,3.829c0.366,2.384,2.3,4.178,4.706,4.358c0.387,0.029,0.78,0.012,1.164-0.047
		c2.809-0.43,4.742-3.062,4.316-5.87C82.506,100.631,80.571,98.838,78.163,98.658z"/>
</g>
<g id="glasses">
	
		<line fill="none" stroke="#FAAF40" stroke-width="2.5" stroke-miterlimit="10" x1="143.551" y1="97.513" x2="173.217" y2="105.514"/>
	
		<line fill="none" stroke="#FAAF40" stroke-width="2.5" stroke-miterlimit="10" x1="24.626" y1="118.198" x2="50.439" y2="103.157"/>
	<path fill="none" stroke="#FAAF40" stroke-width="2.5" stroke-miterlimit="10" d="M92.217,104.014c0,10.77-9.178,19.5-20.5,19.5
		c-11.322,0-20.5-8.731-20.5-19.5s9.178-16.5,20.5-16.5C83.039,87.514,92.217,93.244,92.217,104.014z"/>
	<path fill="none" stroke="#FAAF40" stroke-width="2.5" stroke-miterlimit="10" d="M143.217,101.014c0,10.77-9.178,19.5-20.5,19.5
		s-20.5-8.731-20.5-19.5s10.679-16.167,22-16.167C135.54,84.847,143.217,90.244,143.217,101.014z"/>
	<path fill="none" stroke="#FAAF40" stroke-width="2.5" stroke-miterlimit="10" d="M91.794,99.724c0-2.718,2.203-4.922,4.922-4.922
		c2.719,0,4.922,2.204,4.922,4.922"/>
	<g>
		<path fill="#000100" d="M106.223,94c-0.668,0-1.332-0.264-1.822-0.788c-0.938-1.002-0.9-2.565,0.094-3.511
			c0.23-0.221,5.814-5.415,17.769-6.02c13.879-0.702,19.17,4.172,19.729,4.729c0.979,0.977,0.979,2.56,0,3.536
			c-0.979,0.976-2.562,0.976-3.533,0c-0.015-0.007-4.301-3.86-15.938-3.271c-9.955,0.504-14.541,4.621-14.586,4.662
			C107.443,93.781,106.833,94,106.223,94z"/>
	</g>
	<g>
		<path fill="#000100" d="M87.513,93.754c0.658-0.112,1.271-0.483,1.665-1.082c0.758-1.144,0.459-2.679-0.679-3.446
			c-0.265-0.179-6.639-4.366-18.521-2.965c-13.801,1.628-18.203,7.318-18.66,7.961c-0.799,1.126-0.533,2.687,0.592,3.486
			c1.127,0.798,2.688,0.534,3.486-0.592c0.009-0.009,3.593-4.524,15.167-5.89c9.898-1.167,15.108,2.125,15.159,2.158
			C86.271,93.741,86.912,93.855,87.513,93.754z"/>
	</g>
</g>
<g id="hair">
	<path fill="#000100" d="M27.025,132.581c2.008-3.353,0.041-6.521,0.445-13.841c0.237-4.289,1.288-10.002,4.427-18.014
		c1.417-3.617,3.125-7.006,5.041-10.168c1.413-2.33,2.938-4.537,4.544-6.622c4.59-5.96,5.631-13.668,12.068-14.544
		c7.105-0.967,11.526-6.441,15.245-8.438c4.418-2.373,8.052-3.774,10.108-4.228c10.125-2.235,18.981-2.739,26.428-2.344
		c17.553,0.931,27.269,6.855,27.269,6.855s8.062,6.354,16.626,15.482c2.979,3.179,6.021,6.695,8.812,10.396
		c1.938,2.58,3.756,5.25,5.338,7.959c1.604,2.752,2.972,5.545,3.979,8.323c2.075,5.706,3.521,10.462,4.516,14.411
		c3.646,14.519,1.137,18.16,1.137,18.16s6.974-7.372,6.957-38.268c-0.01-17.193-7.955-47.921-45.217-64.666
		C89.75,12.817,43.536,34.789,26.294,65.613c-7.027,12.568-10.068,23.555-9.641,37.434
		C17.106,117.892,27.025,132.581,27.025,132.581z"/>
	<g>
		<g>
			<path fill="#000100" d="M96.8,27.314c-5.116-1.273-9.928-2.912-15.249-3.089c-2.914-0.097-3.279,4.07-0.665,4.911
				c8.296,2.667,17.563,3.549,25.26-1.252c1.374-0.857,1.655-2.75,0.506-3.926c-6.56-6.721-17.461-6.27-25.766-3.643
				c-2.224,0.704-2.546,4.29,0,4.821c8.454,1.765,19.259,2.024,25.766-4.643c1.212-1.241,0.819-3.845-1.103-4.178
				c-6.493-1.126-12.357-1.624-18.833,0c-2.917,0.731-1.993,4.637,0.665,4.911c7.094,0.73,11.707-2.446,17.303-6.341
				c1.663-1.158,1.668-4.042-0.6-4.569c-6.682-1.557-11.603-2.883-17.965,0.252c-2.099,1.034-1.271,3.906,0.597,4.569
				c6.044,2.146,10.142-0.366,14.598-4.643c2.33-2.236-1.21-5.767-3.535-3.535c-3.248,3.116-5.469,4.871-9.734,3.357
				c0.199,1.523,0.398,3.046,0.597,4.569c4.942-2.434,8.988-0.942,14.11,0.252c-0.194-1.523-0.396-3.046-0.596-4.569
				c-4.849,3.374-8.57,6.298-14.78,5.659c0.222,1.637,0.443,3.274,0.665,4.911c5.598-1.404,10.561-0.973,16.169,0
				c-0.366-1.393-0.734-2.786-1.104-4.178c-5.167,5.293-14.258,4.744-20.904,3.357c0,1.607,0,3.214,0,4.821
				c6.545-2.07,15.623-3.05,20.904,2.357c0.169-1.309,0.337-2.618,0.509-3.926c-6.584,4.108-14.368,3.012-21.413,0.748
				c-0.222,1.637-0.443,3.274-0.665,4.911c4.867,0.163,9.249,1.748,13.919,2.911C98.6,32.915,99.927,28.093,96.8,27.314L96.8,27.314
				z"/>
		</g>
	</g>
	<g>
		<g>
			<path fill="#000100" d="M139.641,38.608c-4.666-3.814-8.883-7.901-14.209-10.822c-2.459-1.349-5.114,1.911-3.029,3.926
				c6.915,6.686,14.773,17.171,25.348,17.265c1.029,0.009,2.229-0.761,2.412-1.835c2.176-12.553-13.258-20.947-23.494-23.165
				c-2.924-0.633-4.121,2.887-1.928,4.569c7.518,5.763,18.075,11.615,27.881,9.118c2.267-0.576,2.26-3.374,0.602-4.569
				c-5.898-4.244-11.604-7.68-18.688-9.568c-2.789-0.743-4.311,3.064-1.93,4.569c6.725,4.249,12.91,4.038,20.596,3.547
				c1.93-0.123,3.631-2.789,1.768-4.268c-2.57-2.042-5.117-4.417-8.068-5.91c-2.513-1.272-5.544-1.204-8.279-1.362
				c-2.307-0.133-3.14,2.757-1.77,4.268c1.559,1.717,1.641,4.034,3.996,5.122c3.758,1.735,8.29-1.391,11.309-3.274
				c2.729-1.702,0.221-6.029-2.523-4.317c-1.174,0.732-5.938,4.422-7.053,2.533c-0.742-1.256-1.188-2.494-2.188-3.598
				c-0.593,1.422-1.183,2.845-1.771,4.268c5.812,0.337,8.227,2.162,12.814,5.808c0.589-1.422,1.18-2.845,1.77-4.268
				c-6.724,0.429-12.117,0.9-18.069-2.864c-0.642,1.523-1.281,3.046-1.927,4.569c6.688,1.782,11.944,5.073,17.496,9.064
				c0.197-1.523,0.396-3.046,0.597-4.569c-8.384,2.135-17.681-3.748-24.024-8.614c-0.645,1.523-1.283,3.046-1.927,4.569
				c6.958,1.507,21.606,7.74,20.002,17.014c0.804-0.612,1.604-1.224,2.408-1.835c-8.784-0.078-16.05-10.229-21.812-15.8
				c-1.011,1.309-2.021,2.618-3.027,3.926c4.945,2.713,8.865,6.501,13.195,10.04C138.579,44.165,142.139,40.648,139.641,38.608
				L139.641,38.608z"/>
		</g>
	</g>
	<g>
		<g>
			<path fill="#000100" d="M175.295,70.061c-2.566-6.42-6.594-12.104-10.197-17.967c-1.482-2.413-5.305-0.845-4.568,1.926
				c2.475,9.317,4.822,21.47,13.76,26.864c1.357,0.819,3.291,0.066,3.674-1.494c0.979-3.993,2.229-7.858,1.619-12.024
				c-1.057-7.29-6.271-13.018-11.457-17.857c-1.688-1.576-5.135-0.047-4.178,2.432c3.494,9.047,9.348,19.762,19.262,22.852
				c1.662,0.518,3.826-1.29,3.076-3.075c-2.904-6.9-6.008-13.012-11.219-18.491c-2.053-2.159-5.126,0.575-3.926,3.029
				c3.479,7.121,8.955,10.148,15.715,13.717c1.791,0.946,4.465-0.628,3.674-2.823c-1.061-2.935-1.836-6.082-3.262-8.87
				c-1.15-2.249-3.807-3.67-5.789-5.047c-1.836-1.274-4.268,0.82-3.673,2.823c0.772,2.604,1.896,5.063,2.668,7.667
				c0.915,3.084,5.741,1.77,4.821-1.329c-0.771-2.604-1.896-5.063-2.668-7.667c-1.229,0.941-2.448,1.882-3.672,2.823
				c1.351,0.938,3.1,1.823,3.994,3.254c1.362,2.182,1.891,5.275,2.756,7.675c1.226-0.941,2.445-1.882,3.674-2.823
				c-5.979-3.155-10.826-5.588-13.922-11.923c-1.312,1.01-2.617,2.021-3.926,3.029c4.611,4.854,7.355,10.175,9.93,16.285
				c1.021-1.025,2.052-2.05,3.076-3.075c-8.043-2.507-12.949-12.061-15.771-19.36c-1.396,0.811-2.786,1.622-4.18,2.432
				c4.42,4.128,8.807,8.693,10.05,14.81c0.692,3.421-0.696,6.937-1.499,10.207c1.225-0.498,2.447-0.996,3.673-1.494
				c-7.563-4.566-9.375-16.02-11.462-23.876c-1.521,0.642-3.049,1.284-4.566,1.926c3.352,5.455,7.305,10.798,9.689,16.773
				C171.657,74.346,176.495,73.057,175.295,70.061L175.295,70.061z"/>
		</g>
	</g>
	<path id="colour_hair_5" fill="#9B6D5D" d="M32.217,103.726c0-5.667-8-9-8-9s9,3,14,0C40.25,93.506,32.217,106.097,32.217,103.726z
		"/>
	<path id="colour_hair_4" fill="#9B6D5D" d="M43.551,81.392c7.334-9.333-0.816-14.32-0.816-14.32s8.207,4.758,13.711,2.831
		C58.684,69.119,39.432,86.635,43.551,81.392z"/>
	<path id="colour_hair_3" fill="#9B6D5D" d="M75.021,59.187c4.309-3.68,1.649-11.928,1.649-11.928s2.233,9.467,10.214,8.133
		C89.223,55.002,73.218,60.727,75.021,59.187z"/>
	<path id="colour_hair_2" fill="#9B6D5D" d="M96.885,54.059c10.667,1.333,16.319-7.507,16.319-7.507s-3.652,9.507,4.348,10.841
		C119.891,57.783,94.532,53.765,96.885,54.059z"/>
	<path id="colour_hair_1" fill="#9B6D5D" d="M135.029,63.81c5.392,1.742,11.022-4.845,11.022-4.845s-5.622,7.642-4.307,13.322
		C142.282,74.598,132.771,63.08,135.029,63.81z"/>
	<g>
		<g>
			<path fill="#000100" d="M173.393,94.131c-2.475,3.41-2.152,9.474-0.919,13.26c0.397,1.222,1.747,2.216,3.075,1.746
				c8.145-2.884,4.834-16.231,1.494-21.673c-0.834-1.358-2.778-1.679-3.926-0.506c-5.787,5.913,1.406,18.884,4.938,24.362
				c0.568,0.889,1.748,1.541,2.82,1.149c3.797-1.386,4.658-6.018,5.146-9.565c0.614-4.466,0.828-10.118-1.649-14.107
				c-1.068-1.722-3.203-1.485-4.314,0c-3.465,4.619-5.766,14.223,1.576,16.756c8.471,2.924,9.992-9.491,9.748-14.827
				c-0.111-2.46-3.338-3.444-4.656-1.262c-3.145,5.188-3.729,11.568,0.393,16.362c1.021,1.188,3.229,0.864,3.926-0.506
				c1.768-3.451,3.357-6.679,3.677-10.595c-1.668,0-3.333,0-5,0c-0.241,1.627,0.663,1.972,2.717,1.035
				c-0.421,1.553-0.842,3.105-1.263,4.658c0.131-0.031,0.258-0.015,0.381,0.051c3.146,0.657,4.482-4.162,1.328-4.822
				c-0.538-0.112-1.153-0.297-1.709-0.229c-2.336,0.29-3.582,3.274-1.264,4.659c3.489,2.085,5.002-2.941,4.81-5.353
				c-0.265-3.219-4.741-3.221-5,0c-0.239,2.976-1.66,5.469-2.99,8.071c1.312-0.169,2.617-0.337,3.927-0.506
				c-2.604-3.034-1.477-7.222,0.393-10.304c-1.553-0.421-3.104-0.841-4.656-1.262c0.051,1.111,0.154,11.648-3.188,10.088
				c-3.677-1.716-0.248-7.591,1.178-9.493c-1.438,0-2.879,0-4.315,0c1.449,2.332,1.345,5.451,1.282,8.097
				c-0.031,1.321-0.305,7.688-1.789,8.23c0.939,0.384,1.883,0.767,2.822,1.149c-1.703-2.643-3.062-5.513-4.229-8.429
				c-0.824-2.076-3.438-7.892-1.496-9.875c-1.311-0.169-2.615-0.337-3.928-0.506c1.32,2.155,5.256,12.996,1.493,14.327
				c1.022,0.582,2.051,1.164,3.073,1.746c-0.853-2.606-1.31-7.033,0.412-9.406C179.606,94.039,175.266,91.549,173.393,94.131
				L173.393,94.131z"/>
		</g>
	</g>
	<g>
		<g>
			<path fill="#000100" d="M24.558,111.642c2.233-3.934,1.109-9.993-0.714-13.854c-0.609-1.29-2.287-1.461-3.42-0.896
				c-7.683,3.824-2.095,17.054,1.679,21.793c1.111,1.396,3.052,0.63,3.926-0.506c2.531-3.286,0.669-8.231-0.83-11.541
				c-1.942-4.289-4.425-8.396-7.444-12.018c-0.741-0.89-2.089-0.865-3.029-0.391c-3.605,1.819-3.663,7.385-3.66,10.815
				c0.004,4.464,0.714,9.642,3.597,13.206c1.026,1.27,3.184,0.782,3.926-0.506c3.054-5.301,4.158-14.277-3.165-16.649
				c-9.088-2.944-8.924,11.366-8.103,16.2c0.351,2.062,3.706,2.516,4.569,0.597c2.437-5.417,2.685-11.98-2.009-16.265
				c-1.075-0.981-3.246-1.044-3.926,0.506c-1.226,2.793-3.059,4.354-2.922,7.622c1.637-0.222,3.274-0.443,4.911-0.665
				c-0.045-0.181-0.09-0.362-0.135-0.543c-0.582,0.582-1.164,1.164-1.746,1.746c-0.176-1.013-0.353-2.025-0.53-3.038
				c-3.217,0.094-3.226,5.094,0,5c3.139-0.091,4.677-3.526,2.33-5.848c-3.259-3.224-5.409,0.93-4.741,4.013
				c0.599,2.763,5.028,2.144,4.911-0.665c-0.086-2.065,1.441-3.28,2.239-5.099c-1.309,0.169-2.618,0.337-3.926,0.506
				c2.937,2.682,2.764,6.79,1.227,10.206c1.523,0.199,3.046,0.398,4.569,0.597c-0.209-1.232-1.526-10.8,1.953-10.049
				c3.894,0.842,1.214,7.504,0.177,9.305c1.309-0.169,2.618-0.337,3.926-0.506c-1.792-2.217-1.956-6.07-2.106-8.762
				c-0.083-1.492-0.487-6.577,1.158-7.408c-1.01-0.13-2.02-0.26-3.029-0.391c2.129,2.555,3.849,5.477,5.41,8.402
				c1.117,2.094,3.852,6.8,2.082,9.098c1.309-0.169,2.618-0.337,3.926-0.506c-1.772-2.227-6.45-12.069-2.69-13.941
				c-1.14-0.299-2.28-0.598-3.42-0.896c1.021,2.162,1.986,6.565,0.714,8.807C18.646,111.927,22.966,114.445,24.558,111.642
				L24.558,111.642z"/>
		</g>
	</g>
	<g>
		<g>
			<path fill="#000100" d="M50.955,32.567c-5.104,3.03-7.776,8.752-10.897,13.564c-0.863,1.331-0.033,3.309,1.494,3.672
				c8.946,2.128,17.487-8.812,20.823-15.816c0.649-1.362,0.2-3.324-1.494-3.672c-9.184-1.886-17.353,4.908-23.098,11.31
				c-1.202,1.338-0.819,3.722,1.103,4.178c6.986,1.66,24.953-6.563,20.823-15.672c-4.525-9.982-20.601,1.649-23.235,7.93
				c-0.609,1.452,0.919,3.28,2.411,3.165c6.257-0.482,17.947-7.598,15.077-15.165c-3.784-9.977-16.262,1.476-19.235,6.07
				c-1.058,1.634,0.339,3.732,2.159,3.762c5.616,0.091,10.98-3.2,11.462-9.158c0.543-6.716-7.5-5.84-11.392-4.168
				c-2.955,1.27-0.405,5.576,2.523,4.317c1.393-0.598,4.823-1.852,3.588,0.948c-1.073,2.434-3.775,3.1-6.182,3.061
				c0.72,1.254,1.439,2.508,2.159,3.762c0.974-1.505,8.995-10.17,10.363-6.562c1.221,3.221-8.115,7.947-10.522,8.133
				c0.804,1.055,1.607,2.11,2.411,3.165c1.016-2.422,13.45-11.204,14.041-6.783c0.558,4.179-11.896,9.141-15.121,8.375
				c0.368,1.393,0.735,2.786,1.103,4.178c4.344-4.839,11.088-11.491,18.234-10.024c-0.498-1.224-0.996-2.448-1.494-3.672
				c-2.167,4.548-9.016,14.984-15.177,13.518c0.498,1.224,0.996,2.448,1.494,3.672c2.608-4.021,4.846-9.242,9.103-11.77
				C56.248,35.24,53.734,30.917,50.955,32.567L50.955,32.567z"/>
		</g>
	</g>
	<g>
		<g>
			<path fill="#000100" d="M24.221,64.314c-5.175,0.919-8.117,9.38-6.414,13.742c0.546,1.4,2.219,2.479,3.672,1.494
				c5.92-4.013,9.434-11.075,7.149-18.157c-0.386-1.197-1.763-2.251-3.075-1.746C17.937,62.58,12.424,71.211,13.807,79.39
				c0.317,1.875,2.972,2.375,4.178,1.103c3.655-3.854,11.354-15.552,5.065-20.065c-7.246-5.2-13.667,8.048-13.999,13.631
				c-0.137,2.317,2.754,3.12,4.268,1.768c4.521-4.04,7.677-10.869,3.725-16.363c-0.72-1.001-2.26-1.773-3.42-0.897
				c-3.42,2.582-6.172,5.021-6.572,9.492c-0.216,2.418,3.652,3.508,4.659,1.262c1.159-2.586,1.629-5.184,2.252-7.931
				c0.429-1.892-1.175-3.517-3.075-3.075c-1.646,0.382-3.081,0.961-3.926,2.504c-0.837,1.528-0.045,3.013,0.091,4.574
				c0.277,3.187,5.279,3.214,5,0c-0.027-0.423-0.074-0.844-0.141-1.263c-0.235-1.121-0.499-0.806,0.306-0.993
				c-1.025-1.025-2.05-2.05-3.075-3.075c-0.516,2.274-0.785,4.588-1.748,6.736c1.553,0.42,3.106,0.841,4.659,1.262
				c0.216-2.414,2.332-3.843,4.096-5.175c-1.14-0.299-2.28-0.598-3.42-0.897c2.648,3.681-0.041,7.71-2.943,10.304
				c1.422,0.589,2.845,1.178,4.268,1.768c0.118-1.987,1.267-4.09,2.182-5.806c0.193-0.363,3.388-5.075,3.932-3.786
				c1.433,3.398-3.52,10.174-5.716,12.491c1.393,0.368,2.786,0.735,4.178,1.103c-0.892-5.277,3.389-11.718,8.254-13.591
				c-1.025-0.582-2.05-1.164-3.075-1.746c1.575,4.883-0.72,9.709-4.851,12.51c1.224,0.498,2.448,0.996,3.672,1.494
				c-0.764-1.958,0.344-7.134,2.922-7.592C28.721,68.573,27.373,63.755,24.221,64.314L24.221,64.314z"/>
		</g>
	</g>
</g>
<g id="mouth">
	<path id="mouth_a" display="none" d="M103.154,152.218c-8.386,0-22.033,0.242-22.033,7.209c0,6.969,13.25,12.616,21.637,12.616
		c8.387,0,21.639-5.647,21.639-12.616C124.396,152.459,111.543,152.218,103.154,152.218z"/>
	<path id="mouth_e" display="none" d="M102.225,157.345c-13.466,0-24.378,1.407-24.378,4.378c0,2.971,10.916,10.378,24.378,10.378
		c13.464,0,24.38-7.407,24.38-10.378C126.604,158.753,115.688,157.345,102.225,157.345z"/>
	<path id="mouth_i" display="none" d="M103.477,159.778c-10.445,0-20.958-0.67-20.958,2.489c0,3.16,9.346,3.678,19.792,3.678
		c10.443,0,20.641-0.518,20.641-3.678C122.948,159.108,113.922,159.778,103.477,159.778z"/>
	<circle id="mouth_o" display="none" cx="102.284" cy="161.62" r="10.75"/>
	<path id="mouth_u" display="none" d="M102.238,162.611c-4.424,0-8.841,0.875-8.841,4.309c0,3.433,4.417,4.941,8.841,4.941
		c4.427,0,8.843-1.51,8.843-4.941C111.081,163.487,106.665,162.611,102.238,162.611z"/>
	<path id="mouth_5" display="none" d="M122.366,161.226c0.889-1.5,1.448-3.149,1.448-3.149c0.121-3-1.799-1.65-4.028-0.211
		c-3.271,2.109-5.539,3.52-15.802,4.5c-8.099,0.771-13.898-0.145-17.198-0.761c-1.52-0.29-4.29-1.819-5.42-0.778
		c-0.972,0.894,1.02,3.449,2.41,4.64c5,4.29,12.1,7.75,22.398,6.21c10.4-1.55,15.301-8.95,16.201-10.5L122.366,161.226z"/>
	<path id="mouth_4" display="none" d="M113.109,161.921c-1.909-1.85-2.562-1.979-5.629-3.189c-1.271-0.5-5.435-1.35-8.531-1.03
		c-4.02,0.411-5.57,1.24-6.69,2.21c-0.538,0.469-1.69,2.41-1.24,4.01c1.29,4.551,5,7.76,10.301,8.101
		c6.011,0.383,10.8-3.37,12.101-5.78c0.326-0.633,1.301-2.77-0.299-4.32h-0.013V161.921z"/>
	<path id="mouth_3" display="none" d="M114.672,165.65c2.721-5.1,0.773-8.399-2.58-10.7c-2.51-1.71-5.381-2.83-13.5-1.67
		c-6.09,0.867-11.9,5.65-8.721,12.6c2.45,5.38,7.841,6.74,13.699,5.97c7.933-1.04,10.202-4.52,11.103-6.21V165.65L114.672,165.65z"
		/>
	<path id="mouth_2" d="M120.73,164.089c1.722-1.96,1.565-2.06,2.5-3.699c0.972-1.681-0.719-3.221-2.278-1.53
		c-2.472,2.66-8.261,6.56-17.4,6.77c-5.398,0.125-8.588-0.312-12.398-1.46c-1.74-0.522-4.37-1.83-5.52-2.46
		c-1.27-0.699-2.86-2.72-4-1.85c-0.979,0.748,1.59,4.07,2.78,5.289c4.28,4.41,10.8,7.32,19.798,6.851c9.33-0.487,15-6.12,16.5-7.91
		L120.73,164.089L120.73,164.089z"/>
	<path id="mouth_1" display="none" d="M116.75,160.181c-3.23-1.54-4.186-1.569-8.832-2.31c-1.92-0.304-7.97-0.509-12.202,0.281
		c-5.46,1.02-7.36,2.09-8.61,3.22c-0.604,0.547-1.6,2.649-0.477,4.159c3.2,4.32,9.369,6.94,16.902,6.461
		c8.479-0.538,13.999-4.99,14.999-7.58c0.261-0.674,0.952-2.95-1.75-4.24L116.75,160.181z"/>
	<path id="mouth_0" display="none" d="M142.252,136.442L142.252,136.442c0.143-0.941-0.396-1.92-1.184-2.18
		c-0.793-0.26-1.551,0.287-1.688,1.23c-14.5,46.7-62.699,32.7-74.099,11.2c-0.471-0.842-1.38-1.12-2.03-0.626
		c-0.649,0.495-0.789,1.57-0.319,2.42c11.3,20,31.8,25.301,45.2,23.1c22.9-3.81,32.5-23.199,34.102-35.1L142.252,136.442z"/>
	<path id="mouth_a_end" display="none" d="M103.09,153.884c-6.979,0-18.333,0.202-18.333,5.997c0,5.796,11.022,10.494,18,10.494
		c6.978,0,17.998-4.698,17.998-10.494C120.758,154.086,110.066,153.884,103.09,153.884z"/>
	<path id="mouth_e_end" display="none" d="M102.225,158.679c-11.032,0-19.975,1.153-19.975,3.587c0,2.433,8.942,8.502,19.975,8.502
		c11.031,0,19.977-6.069,19.977-8.502C122.198,159.833,113.254,158.679,102.225,158.679z"/>
	<path id="mouth_i_end" display="none" d="M103.316,160.431c-8.209,0-16.47-0.526-16.47,1.957c0,2.483,7.344,2.89,15.554,2.89
		c8.209,0,16.22-0.407,16.22-2.89C118.62,159.905,111.527,160.431,103.316,160.431z"/>
	<circle id="mouth_o_end" display="none" cx="102.284" cy="161.62" r="8.083"/>
	<path id="mouth_u_end" display="none" d="M102.238,163.82c-3.27,0-6.531,0.646-6.531,3.182c0,2.535,3.262,3.651,6.531,3.651
		c3.269,0,6.531-1.116,6.531-3.651C108.77,164.465,105.508,163.82,102.238,163.82z"/>
</g>
</svg>
