<?xml version="1.0" encoding="utf-8"?>
<!-- Generator: Adobe Illustrator 16.0.4, SVG Export Plug-In . SVG Version: 6.00 Build 0)  -->
<!DOCTYPE svg PUBLIC "-//W3C//DTD SVG 1.1//EN" "http://www.w3.org/Graphics/SVG/1.1/DTD/svg11.dtd">
<svg version="1.1" id="Layer_1" xmlns="http://www.w3.org/2000/svg" xmlns:xlink="http://www.w3.org/1999/xlink" x="0px" y="0px"
	 width="281px" height="563px" viewBox="0 0 281 563" enable-background="new 0 0 281 563" xml:space="preserve">
<g>
	<path fill="#B2D235" d="M281,143c0,78.977-62.902,206-140.5,206C62.903,349,0,221.977,0,143S62.904,0,140.5,0
		C218.096,0,281,64.023,281,143z"/>
	<g>
		<g>
			<circle cx="81" cy="157" r="55"/>
			<circle fill="#FFFFFF" cx="99" cy="136" r="19"/>
			<circle fill="#FFFFFF" cx="80.5" cy="160.5" r="8.5"/>
		</g>
		<g>
			<circle cx="200" cy="157" r="55"/>
			<circle fill="#FFFFFF" cx="218" cy="136" r="19"/>
			<circle fill="#FFFFFF" cx="199.5" cy="160.5" r="8.5"/>
		</g>
	</g>
	<path fill="#B2D235" d="M58,562V461.5c0-45.564,36.937-82.5,82.5-82.5c45.562,0,82.5,36.936,82.5,82.5V563L58,562z"/>
	<rect x="129.5" y="339" fill="#B2D235" width="22" height="45"/>
</g>
<g id="mouth">
	<g id="mouth_1">
		<path d="M137.49,313.243c-5.417-0.022-13.406-4.099-20.47-10.284c-0.538-0.472-0.441-1.668-0.64-2.527
			c0.819,0.104,1.777-0.035,2.432,0.349c3.302,1.927,6.368,4.314,9.802,5.938c11.453,5.42,22.163,3.727,32.06-3.978
			c0.36-0.28,0.658-0.71,1.062-0.851c0.936-0.326,1.918-0.518,2.883-0.764c-0.381,0.923-0.533,2.066-1.178,2.73
			C157.509,309.977,150.309,313.273,137.49,313.243z"/>
	</g>
	<path id="mouth_2" display="none" fill="#000100" d="M132.913,312.202c-24.049-6.688-30.16-25.865-31.762-30.641l0,0
		c-0.322-0.922-0.058-2.047,0.585-2.506l0,0c0.651-0.461,1.434-0.084,1.757,0.84l0,0c1.666,4.613,6.728,21.962,29.925,28.635l0,0
		c2.278,0.643,4.687,0.971,7.152,0.971l0,0c14.077,0,29.762-10.623,35.071-31.889l0,0c0.242-0.973,0.991-1.48,1.672-1.129l0,0
		c0.683,0.348,1.032,1.414,0.791,2.393l0,0c-5.853,23.185-22.627,34.367-37.534,34.367l0,0
		C137.946,313.243,135.367,312.895,132.913,312.202L132.913,312.202z"/>
</g>
<g id="blink">
	<g id="blink_1" display="none">
	</g>
	<g id="blink_2" display="none">
		<g display="inline">
			<g>
				<path fill="#83D16B" stroke="#75B333" stroke-miterlimit="10" d="M136.425,157.937c0-30.893-25.044-55.937-55.938-55.937
					s-55.938,25.044-55.938,55.937c0,0,19.85-13.705,55.938-13.705C116.575,144.232,136.425,157.937,136.425,157.937z"/>
			</g>
		</g>
		<g display="inline">
			<path fill="#83D16B" stroke="#75B333" stroke-miterlimit="10" d="M256.452,157.937c0-30.893-25.045-55.937-55.938-55.937
				c-30.893,0-55.938,25.044-55.938,55.937c0,0,19.85-13.705,55.938-13.705S256.452,157.937,256.452,157.937z"/>
		</g>
	</g>
	<g id="blink_3" display="none">
		<g display="inline">
			<g>
				<path fill="#83D16B" stroke="#75B333" stroke-miterlimit="10" d="M136.425,157.937c0-30.893-25.044-55.937-55.938-55.937
					s-55.938,25.044-55.938,55.937c0,0,19.863,18.646,55.951,18.646S136.425,157.937,136.425,157.937z"/>
			</g>
		</g>
		<g display="inline">
			<path fill="#83D16B" stroke="#75B333" stroke-miterlimit="10" d="M256.452,157.937c0-30.893-25.045-55.937-55.938-55.937
				c-30.893,0-55.938,25.044-55.938,55.937c0,0,19.85,18.646,55.938,18.646S256.452,157.937,256.452,157.937z"/>
		</g>
	</g>
	<g id="blink_4" display="none">
		<g display="inline">
			<g>
				<path fill="#83D16B" stroke="#75B333" stroke-miterlimit="10" d="M136.425,157.937c0-30.893-25.044-55.937-55.938-55.937
					s-55.292,24.292-55.938,55.937S44.399,212,80.487,212C116.575,212,136.425,188.83,136.425,157.937z"/>
			</g>
		</g>
		<g display="inline">
			<path fill="#83D16B" stroke="#75B333" stroke-miterlimit="10" d="M256.452,157.937C256.904,129.916,231.407,102,200.514,102
				c-30.893,0-56.599,25.625-55.938,55.937c0.66,30.312,19.85,54.063,55.938,54.063S256,185.958,256.452,157.937z"/>
		</g>
	</g>
</g>
</svg>
