<?xml version="1.0" encoding="utf-8"?>
<!-- Generator: Adobe Illustrator 16.0.4, SVG Export Plug-In . SVG Version: 6.00 Build 0)  -->
<!DOCTYPE svg PUBLIC "-//W3C//DTD SVG 1.1//EN" "http://www.w3.org/Graphics/SVG/1.1/DTD/svg11.dtd">
<svg version="1.1" id="Layer_1" xmlns="http://www.w3.org/2000/svg" xmlns:xlink="http://www.w3.org/1999/xlink" x="0px" y="0px"
	 width="340.195px" height="409.936px" viewBox="0 0 340.195 409.936" enable-background="new 0 0 340.195 409.936"
	 xml:space="preserve">
<g>
	<path fill="none" d="M206.892,19.405c0,0-49.167-17.66-68.076,16.59c24.54-0.155,55.449,0.332,87.547,2.54
		C222.333,30.993,216.214,23.756,206.892,19.405z"/>
	<g>
		<path fill="#E6E6E6" d="M336.521,142.256c0.5-7.18,0.5-73.858,2-87.194c0,0-2.312-0.067-15-3.078
			c-25.199-5.979-53.537-9.825-81.613-12.246C226.992-1.99,186.794-2.381,156.807,5.405c-17.375,4.511-27.25,18.016-32.814,30.766
			c-6.158,0.109-11.712,0.25-16.529,0.4C65.456,37.884,6.021,47.879,3.021,50.958c0,0,1.5,131.308,2.5,144.131
			c1,12.822-8,189.781-1,201.064c7,11.285,16,10.258,27.5,10.258s256.5-9.232,278.5-5.641c22,3.59,28-1.539,27.5-13.336
			C337.521,375.636,336.021,149.438,336.521,142.256z M138.816,35.995c18.909-34.25,68.076-16.59,68.076-16.59
			c9.322,4.352,15.441,11.588,19.471,19.13C194.265,36.327,163.356,35.839,138.816,35.995z"/>
		<g>
			<path d="M336.373,142.248l0.158-5.447l0.068-5.447l0.117-10.901l0.217-21.807c0.084-7.27,0.186-14.538,0.342-21.808
				c0.047-3.635,0.199-7.27,0.301-10.903c0.059-1.818,0.078-3.636,0.217-5.455l0.34-5.461l0.377,0.437
				c-2.119-0.229-4.078-0.646-6.098-1.04c-2.012-0.377-3.992-0.864-5.99-1.29l-2.992-0.662l-2.986-0.608l-5.996-1.226l-5.996-1.225
				l-2.998-0.612l-1.498-0.306l-1.51-0.24l-12.062-1.922l-6.03-0.96c-2.015-0.295-4.043-0.509-6.062-0.77l-12.133-1.488
				l-3.033-0.372l-3.043-0.291l-6.086-0.565l-12.172-1.131l-0.617-0.058l-0.25-0.61c-0.576-1.418-1.097-2.859-1.717-4.256
				c-0.66-1.377-1.232-2.8-1.99-4.125l-1.076-2.019l-1.191-1.949c-0.76-1.322-1.695-2.524-2.553-3.779
				c-1.855-2.4-3.786-4.76-6.036-6.798c-2.22-2.06-4.582-3.979-7.161-5.572c-2.561-1.613-5.242-3.054-8.064-4.17
				c-2.815-1.127-5.703-2.099-8.676-2.76c-2.967-0.674-5.975-1.202-9.016-1.476c-3.039-0.275-6.094-0.426-9.154-0.366
				c-3.059,0.06-6.119,0.228-9.166,0.564c-3.047,0.34-6.083,0.78-9.1,1.354c-2.996,0.564-6.064,1.242-8.947,1.983
				c-3.057,0.852-5.754,1.831-8.477,3.188c-2.672,1.381-5.209,3.017-7.568,4.894c-2.33,1.914-4.479,4.051-6.439,6.357
				c-1.973,2.298-3.699,4.81-5.273,7.409c-1.57,2.604-2.965,5.322-4.197,8.116l-0.326,0.74l-0.811,0.02l-15.261,0.346
				c-2.526,0.063-5.093,0.159-7.614,0.271c-2.531,0.108-5.072,0.244-7.605,0.404c-10.144,0.626-20.274,1.562-30.383,2.698
				c-10.108,1.138-20.198,2.473-30.249,4.039c-5.024,0.787-10.04,1.634-15.03,2.585c-2.492,0.482-4.982,0.984-7.449,1.554
				c-1.232,0.289-2.459,0.592-3.668,0.929c-0.594,0.184-1.206,0.346-1.772,0.56c-0.294,0.099-0.577,0.202-0.827,0.325
				c-0.121,0.059-0.283,0.114-0.37,0.173c-0.075,0.058-0.153,0.105-0.24,0.149l0.207-0.518l0.228,29.291l0.335,29.29l0.4,29.289
				c0.136,9.763,0.288,19.526,0.495,29.286l0.9,29.285c0.002,9.794-0.366,19.542-0.631,29.307L3.87,285.26
				c-0.477,19.521-0.885,39.042-0.975,58.559c-0.035,9.757-0.002,19.516,0.297,29.252c0.157,4.864,0.367,9.732,0.83,14.541
				c0.252,2.374,0.517,4.846,1.15,6.955c0.086,0.247,0.163,0.523,0.266,0.688l0.124,0.261l0.258,0.379l1.032,1.512
				c0.716,0.882,1.41,1.765,2.256,2.557c1.641,1.597,3.563,2.844,5.691,3.644c2.127,0.81,4.435,1.191,6.791,1.364
				c2.361,0.173,4.775,0.152,7.211,0.133c2.443-0.019,4.875-0.044,7.297-0.128l29.266-0.966l58.555-1.976
				c19.52-0.63,39.04-1.274,58.564-1.798c19.524-0.513,39.052-0.99,58.584-1.344c9.767-0.183,19.533-0.319,29.306-0.409
				c9.772-0.075,19.541-0.127,29.344,0.116c2.453,0.07,4.908,0.151,7.385,0.322c1.207,0.048,2.559,0.257,3.748,0.378l3.623,0.53
				c4.697,0.613,9.58,0.929,14.049,0.039c2.199-0.499,4.244-1.397,5.652-2.911c1.434-1.492,2.102-3.638,2.367-5.875
				c0.039-0.57,0.104-1.135,0.125-1.71l-0.004-1.743l-0.029-3.678l-0.061-7.324l-0.236-29.293l-0.029-29.304l-0.035-58.601
				c0.004-19.529,0.092-39.06,0.004-58.588C336.166,181.318,336.316,161.777,336.373,142.248z M336.669,142.265
				c0.045,19.527-0.006,39.044,0.201,58.574c0.115,19.528,0.406,39.057,0.611,58.583l0.818,58.569l0.904,58.568l0.119,7.32
				l0.059,3.646l0.021,1.917c-0.02,0.644-0.084,1.296-0.127,1.941c-0.049,0.648-0.213,1.307-0.314,1.957
				c-0.115,0.653-0.379,1.299-0.568,1.945c-0.232,0.641-0.586,1.254-0.883,1.877c-0.406,0.569-0.795,1.167-1.26,1.688
				c-1.93,2.109-4.572,3.226-7.098,3.818c-5.137,1.051-10.15,0.713-15.109,0.121l-3.625-0.521c-1.236-0.124-2.303-0.298-3.535-0.352
				c-2.396-0.162-4.82-0.238-7.248-0.307c-9.721-0.229-19.484-0.164-29.238-0.075c-9.757,0.104-19.516,0.253-29.273,0.447
				c-19.52,0.38-39.037,0.884-58.557,1.422l-58.557,1.632l-58.557,1.771l-29.293,0.863c-2.458,0.073-4.908,0.076-7.347,0.076
				c-2.444,0.001-4.919,0.006-7.428-0.195c-2.501-0.202-5.062-0.634-7.498-1.58c-2.437-0.935-4.679-2.415-6.518-4.236
				c-0.935-0.888-1.751-1.927-2.554-2.955l-1.021-1.521l-0.255-0.38c-0.141-0.223-0.193-0.365-0.291-0.555
				c-0.197-0.371-0.279-0.687-0.391-1.017c-0.39-1.301-0.61-2.538-0.781-3.777c-0.182-1.239-0.311-2.469-0.422-3.699
				c-0.436-4.916-0.607-9.81-0.729-14.704c-0.226-9.786-0.184-19.56-0.075-29.33c0.239-19.54,0.792-39.065,1.422-58.588l2.08-58.552
				c0.294-9.754,0.691-19.525,0.718-29.261l-0.813-29.274L2.291,50.966l-0.006-0.352l0.214-0.167
				c0.174-0.138,0.358-0.271,0.543-0.396c0.182-0.112,0.324-0.158,0.489-0.24c0.322-0.159,0.635-0.276,0.944-0.385
				c0.624-0.24,1.242-0.41,1.863-0.607c1.24-0.359,2.484-0.68,3.729-0.985c2.49-0.601,4.99-1.129,7.492-1.641
				c5.007-1.007,10.029-1.906,15.061-2.746c10.064-1.675,20.164-3.106,30.291-4.347c10.125-1.236,20.279-2.275,30.465-3.003
				c2.549-0.187,5.093-0.348,7.65-0.481c2.564-0.144,5.088-0.247,7.652-0.317l15.291-0.394l-1.137,0.759
				c1.263-2.889,2.697-5.709,4.322-8.423c1.63-2.71,3.424-5.337,5.487-7.758c2.05-2.428,4.309-4.689,6.771-6.724
				c2.492-1.996,5.184-3.744,8.021-5.222c2.826-1.436,5.984-2.576,8.905-3.39c3.126-0.816,6.118-1.486,9.22-2.075
				c3.086-0.567,6.195-1,9.318-1.33c3.125-0.328,6.268-0.483,9.412-0.525c3.147-0.041,6.299,0.13,9.438,0.435
				c3.141,0.301,6.258,0.864,9.336,1.583c3.084,0.706,6.094,1.733,9.027,2.931c2.943,1.186,5.746,2.708,8.422,4.415
				c2.691,1.689,5.162,3.716,7.473,5.886c2.344,2.151,4.35,4.626,6.268,7.143c0.877,1.315,1.834,2.584,2.604,3.965l1.209,2.038
				l1.089,2.103c0.764,1.384,1.336,2.854,1.996,4.284c0.621,1.446,1.137,2.935,1.71,4.397l-0.866-0.668l12.188,1.292l6.092,0.646
				l3.045,0.331l3.037,0.412L278.5,43.06c2.021,0.284,4.049,0.525,6.067,0.849l6.044,1.041l12.086,2.079l1.51,0.26l1.496,0.324
				l2.99,0.648l5.979,1.301l5.98,1.299l3,0.652l2.977,0.695c1.984,0.449,3.963,0.961,5.955,1.36c1.98,0.414,4.014,0.86,5.947,1.099
				l0.408,0.05l-0.029,0.388l-0.402,5.418c-0.16,1.803-0.203,3.622-0.283,5.436c-0.139,3.63-0.293,7.259-0.357,10.894
				c-0.189,7.265-0.322,14.531-0.439,21.8l-0.312,21.805l-0.166,10.905l-0.096,5.454L336.669,142.265z"/>
			<path d="M138.579,36.128l1.203-2.333l0.562-1.052l0.657-1.011c0.444-0.672,0.874-1.361,1.337-2.026l1.494-1.908
				c0.479-0.655,1.071-1.21,1.625-1.803c0.568-0.578,1.104-1.196,1.732-1.711l1.846-1.601l1.976-1.439
				c0.646-0.506,1.369-0.883,2.057-1.324l1.05-0.633c0.357-0.197,0.727-0.37,1.09-0.557c0.734-0.353,1.446-0.765,2.203-1.066
				l2.262-0.94c1.537-0.539,3.086-1.062,4.668-1.444l1.182-0.312l1.195-0.243c0.799-0.152,1.59-0.353,2.396-0.454l2.413-0.327
				l2.422-0.218c1.616-0.101,3.235-0.143,4.85-0.11c0.809-0.008,1.615,0.031,2.42,0.09c0.805,0.05,1.609,0.093,2.408,0.18
				c1.604,0.14,3.199,0.341,4.789,0.566c3.176,0.467,6.313,1.113,9.414,1.889c1.557,0.36,3.096,0.786,4.633,1.22
				c1.539,0.428,3.061,0.883,4.584,1.421l0.024,0.009l0.015,0.007l3.113,1.624c0.522,0.267,0.992,0.621,1.491,0.928l1.481,0.944
				c0.512,0.293,0.949,0.687,1.422,1.033l1.396,1.072c0.48,0.341,0.902,0.747,1.344,1.137l1.314,1.176
				c0.453,0.378,0.841,0.82,1.249,1.244l1.216,1.281c0.422,0.415,0.77,0.892,1.146,1.343l1.121,1.368
				c0.389,0.446,0.695,0.951,1.049,1.424l1.025,1.444c0.336,0.485,0.627,0.997,0.942,1.496l0.933,1.509l1.041,1.684l-2.084-0.07
				l-10.937-0.368l-10.925-0.481c-1.819-0.097-3.645-0.12-5.467-0.164c-1.822-0.034-3.645-0.085-5.465-0.153
				c-3.645-0.114-7.287-0.242-10.928-0.427c-1.82-0.093-3.643-0.164-5.465-0.202l-5.467-0.197l-10.933-0.453
				c-3.646-0.213-7.292-0.3-10.94-0.455c-1.823-0.063-3.647-0.182-5.473-0.27c-1.824-0.09-3.648-0.188-5.475-0.312L138.579,36.128z
				 M139.118,35.828c1.723-0.111,3.447-0.204,5.172-0.285c1.826-0.084,3.652-0.196,5.479-0.257c3.652-0.114,7.306-0.302,10.96-0.355
				l10.964-0.082l5.482-0.014c1.828,0,3.654,0.033,5.48,0.088c3.654,0.075,7.309,0.204,10.961,0.348
				c1.825,0.06,3.651,0.138,5.477,0.231c1.826,0.09,3.652,0.16,5.476,0.305l10.94,0.762l10.93,0.872l-1.043,1.612l-0.796-1.505
				c-0.271-0.498-0.519-1.013-0.81-1.499l-0.892-1.451c-0.308-0.478-0.571-0.986-0.914-1.438l-0.993-1.386
				c-0.339-0.457-0.646-0.94-1.029-1.361l-1.102-1.305c-0.369-0.434-0.721-0.886-1.137-1.274l-1.206-1.213
				c-0.407-0.398-0.789-0.83-1.244-1.175l-1.323-1.087c-0.447-0.354-0.863-0.752-1.352-1.052l-1.424-0.957
				c-0.482-0.305-0.938-0.656-1.444-0.923l-3.03-1.609l0.039,0.016c-2.972-1.001-6.062-1.753-9.158-2.336
				c-3.107-0.561-6.24-0.954-9.375-1.188c-1.566-0.111-3.135-0.198-4.701-0.223c-1.565-0.035-3.131-0.015-4.689,0.036
				c-1.561,0.02-3.113,0.158-4.664,0.26l-2.318,0.228l-2.305,0.326c-0.771,0.082-1.525,0.26-2.289,0.391l-1.142,0.212l-1.126,0.275
				c-1.514,0.327-2.976,0.822-4.454,1.27l-2.169,0.808c-0.729,0.258-1.41,0.62-2.119,0.926c-0.35,0.163-0.706,0.312-1.051,0.484
				l-1.015,0.554c-0.671,0.378-1.384,0.692-2.017,1.136l-1.953,1.252l-1.852,1.401c-0.641,0.441-1.191,0.989-1.779,1.5
				c-0.575,0.521-1.182,1.017-1.699,1.599l-1.635,1.684c-0.51,0.589-0.988,1.201-1.488,1.807l-0.745,0.912l-0.673,0.983
				L139.118,35.828z"/>
		</g>
	</g>
</g>
</svg>
