<?xml version="1.0" encoding="utf-8"?>
<!-- Generator: Adobe Illustrator 16.0.4, SVG Export Plug-In . SVG Version: 6.00 Build 0)  -->
<!DOCTYPE svg PUBLIC "-//W3C//DTD SVG 1.1//EN" "http://www.w3.org/Graphics/SVG/1.1/DTD/svg11.dtd">
<svg version="1.1" id="Layer_1" xmlns="http://www.w3.org/2000/svg" xmlns:xlink="http://www.w3.org/1999/xlink" x="0px" y="0px"
	 width="39.141px" height="302.617px" viewBox="0 0 39.141 302.617" enable-background="new 0 0 39.141 302.617"
	 xml:space="preserve">
<g>
	<path id="colour" fill="#99CDEA" d="M1.193,92.029c0,0-1.647-12.455,9.637-11.253c4.475,0.475,9.375-3.514,12.415-5.415
		c4.213-2.633,13.185-2.857,13.104,2.597c-0.028,1.816-0.14,4.295-0.14,7.641c0,12.849-0.431,93.85,1.109,103.881
		c1.726,11.225,2.29,29.691-0.78,46.044l0.319,56.86c0.323,13.925-34.061,10.703-34.061,2.143
		C2.474,268.826,1.193,92.029,1.193,92.029z"/>
	<path fill="#1D1E1C" d="M1.093,92.027c-0.211-2.132-0.057-4.319,0.66-6.356c0.686-2.039,2.245-3.86,4.327-4.58
		c1.021-0.38,2.11-0.531,3.189-0.542c1.074-0.035,2.161,0.205,3.181,0.044c2.087-0.267,4.032-1.215,5.854-2.28
		c1.844-1.067,3.488-2.409,5.363-3.518c1.956-1.025,4.122-1.507,6.307-1.566c1.092-0.017,2.201,0.079,3.273,0.407
		c1.059,0.32,2.135,0.899,2.809,1.897c0.334,0.49,0.546,1.062,0.635,1.64c0.096,0.596,0.054,1.145,0.053,1.666L36.71,82.04
		c-0.031,4.255,0.058,8.536,0.082,12.803l0.122,12.81l0.144,25.615l0.104,25.61c0.089,8.533,0.062,17.078,0.396,25.588
		c0.05,1.061,0.095,2.125,0.181,3.175c0.065,1.047,0.219,2.075,0.356,3.149c0.278,2.123,0.485,4.271,0.64,6.403
		c0.312,4.274,0.438,8.56,0.401,12.839c-0.054,8.559-0.692,17.129-2.29,25.549l0.005-0.061l0.137,18.811l0.194,18.809l0.247,18.809
		c0.005,0.395,0.011,0.797-0.009,1.199c-0.027,0.439-0.089,0.861-0.179,1.273c-0.188,0.83-0.523,1.631-0.981,2.348
		c-0.919,1.443-2.273,2.514-3.707,3.299c-2.91,1.547-6.128,2.169-9.305,2.436c-3.189,0.244-6.396,0.094-9.554-0.432
		c-1.578-0.266-3.146-0.631-4.683-1.141c-1.534-0.514-3.05-1.161-4.443-2.143c-0.689-0.498-1.349-1.097-1.874-1.867
		c-0.249-0.395-0.478-0.819-0.606-1.299c-0.136-0.449-0.173-1.049-0.166-1.389l-0.067-4.701l-0.104-9.404l-0.421-37.616
		l-0.26-37.618c-0.03-6.271-0.109-12.54-0.092-18.811l-0.004-18.811l0.162-37.623c0.029-6.271,0.055-12.54,0.018-18.811l-0.06-18.81
		L1.093,92.027L1.093,92.027z M1.293,92.024l0.238,18.812c0.062,6.27,0.187,12.539,0.314,18.808l0.758,37.613l0.294,18.808
		c0.117,6.271,0.138,12.539,0.206,18.81l0.338,37.617l0.176,37.618l0.043,9.405l0.007,4.701c-0.007,0.443,0.014,0.635,0.085,0.941
		c0.067,0.281,0.213,0.555,0.374,0.825c0.353,0.533,0.854,1.022,1.429,1.446c1.162,0.847,2.547,1.479,3.975,1.975
		c1.433,0.498,2.922,0.869,4.431,1.145c3.019,0.547,6.12,0.738,9.185,0.547c3.05-0.209,6.133-0.779,8.801-2.153
		c1.315-0.696,2.506-1.626,3.295-2.829c0.395-0.6,0.684-1.261,0.852-1.959c0.081-0.352,0.137-0.706,0.165-1.048
		c0.024-0.379,0.025-0.763,0.025-1.151l0.034-18.81l-0.018-18.81l-0.075-18.811v-0.029l0.005-0.029
		c1.522-8.381,2.118-16.918,2.082-25.434c-0.041-4.259-0.244-8.516-0.628-12.752c-0.192-2.121-0.434-4.223-0.747-6.326l-0.233-1.582
		c-0.073-0.545-0.146-1.091-0.188-1.625c-0.106-1.076-0.17-2.146-0.24-3.216c-0.248-4.276-0.389-8.549-0.515-12.821
		c-0.122-4.271-0.226-8.541-0.273-12.812l-0.138-12.813c-0.028-4.271-0.084-8.541-0.065-12.812l0.128-25.622l0.175-12.81
		c0.076-4.272,0.085-8.532,0.217-12.815l0.107-3.202c0.017-0.544,0.061-1.068-0.012-1.53c-0.064-0.477-0.226-0.932-0.486-1.328
		c-0.519-0.805-1.421-1.332-2.383-1.639c-0.967-0.314-2.011-0.427-3.049-0.427c-2.073,0.02-4.195,0.462-6.041,1.393
		c-1.817,1.033-3.57,2.309-5.43,3.373c-1.857,1.06-3.849,2.011-6.024,2.266c-1.111,0.152-2.154-0.101-3.214-0.07
		c-1.052,0.003-2.107,0.144-3.093,0.502c-2.003,0.68-3.509,2.404-4.197,4.394c-0.717,1.986-0.886,4.161-0.689,6.262L1.293,92.024z"
		/>
</g>
<path opacity="0.4" enable-background="new    " d="M6.391,83.788c0.006-1.835,1.804-1.959,6.847-1.054
	c5.042,0.905,11.587-5.793,13.692-5.793c2.106,0,7.373-1.054-0.526,3.687c-7.898,4.741-6.847,7.373-13.166,5.793
	C6.917,84.841,6.385,85.623,6.391,83.788z"/>
<path opacity="0.6" fill="#FFFFFF" enable-background="new    " d="M4.315,101.173c0.053-5.245-2.195-16.916,6.816-14.752
	c8.658,2.078-0.527,0-2.107,11.586c-2.144,15.718,1.829,102.139,0.897,146.935c-0.901,43.284-3.53,53.325-3.53,47.397
	c0-6.846-1.179-65.729-0.438-115.418C6.43,145.177,4.132,119.475,4.315,101.173z"/>
<g>
	<path fill="#F8DE46" d="M13.567,69.972c0,0-24.992-31.311-5.901-47.324c8.731-7.324,7.262-23.175,10.312-21.543
		c5.711,3.053,13.938,30.944,13.166,42.132c-1.053,15.272-6.334,25.676-10.625,27.278C16.235,72.119,13.567,69.972,13.567,69.972z"
		/>
	<path fill="#1D1E1C" d="M13.567,69.972c-2.048-2.63-3.888-5.419-5.579-8.292c-1.708-2.863-3.242-5.836-4.536-8.919
		c-1.307-3.075-2.365-6.277-2.963-9.597c-0.593-3.31-0.712-6.766,0.013-10.126c0.704-3.357,2.337-6.55,4.665-9.114
		c0.579-0.644,1.194-1.252,1.842-1.824c0.307-0.267,0.62-0.548,0.88-0.807c0.277-0.279,0.551-0.563,0.807-0.864
		c1.035-1.193,1.889-2.553,2.6-3.989c1.42-2.887,2.261-6.057,2.975-9.277c0.373-1.622,0.644-3.237,1.185-4.961
		c0.155-0.438,0.303-0.882,0.667-1.4c0.186-0.247,0.479-0.584,1.014-0.741c0.26-0.079,0.537-0.071,0.773-0.028
		c0.236,0.058,0.387,0.114,0.599,0.232c0.887,0.499,1.542,1.234,2.097,1.922c1.104,1.418,1.915,2.93,2.677,4.456
		c0.752,1.528,1.415,3.085,2.03,4.656c1.231,3.141,2.269,6.341,3.161,9.578c1.759,6.476,3.194,13.066,3.402,19.859
		c0.013,0.851-0.003,1.702-0.073,2.566c-0.077,0.825-0.171,1.674-0.275,2.503c-0.212,1.667-0.478,3.326-0.807,4.973
		c-0.659,3.291-1.557,6.538-2.795,9.654c-1.275,3.079-2.746,6.178-5.12,8.573c-0.604,0.577-1.271,1.107-2.04,1.45
		c-0.775,0.314-1.592,0.527-2.422,0.623C16.687,71.264,14.933,70.942,13.567,69.972z M13.567,69.972
		c1.376,0.957,3.126,1.259,4.767,1.058c0.824-0.104,1.634-0.323,2.397-0.642c0.756-0.34,1.407-0.877,1.983-1.469
		c2.271-2.436,3.675-5.539,4.762-8.651c1.075-3.138,1.808-6.383,2.3-9.654c0.245-1.637,0.43-3.282,0.559-4.931
		c0.063-0.828,0.115-1.641,0.152-2.478c0.042-0.798,0.035-1.615,0-2.43c-0.154-3.267-0.704-6.538-1.37-9.771
		c-0.67-3.236-1.478-6.449-2.415-9.621c-0.945-3.169-1.991-6.31-3.203-9.371c-0.608-1.528-1.263-3.036-1.989-4.494
		c-0.729-1.45-1.526-2.881-2.477-4.094c-0.481-0.604-0.968-1.138-1.545-1.456c0.029,0.018-0.016-0.003,0.02,0.006
		c0.032,0.014,0.096,0.006,0.155-0.007c0.129-0.046,0.104-0.076,0.045,0.01c-0.122,0.161-0.273,0.509-0.392,0.854
		c-0.47,1.454-0.775,3.132-1.154,4.755c-0.733,3.273-1.657,6.594-3.245,9.673c-0.793,1.535-1.749,3.009-2.922,4.314
		c-0.29,0.329-0.601,0.642-0.914,0.947c-0.339,0.321-0.65,0.591-0.979,0.865c-0.623,0.507-1.218,1.047-1.776,1.62
		c-2.25,2.284-3.886,5.16-4.685,8.302c-0.815,3.141-0.852,6.479-0.404,9.739c0.448,3.269,1.361,6.479,2.532,9.587
		C6.17,58.836,9.549,64.659,13.567,69.972z"/>
</g>
<path fill="#FFC210" d="M17.853,30.407C10.274,29.626,5.612,43.991,7.647,52.393c0.851,3.519,6.805,14.949,6.805,14.949
	s4.252,7.916,9.355-7.034C28.91,45.357,26.358,31.289,17.853,30.407z"/>
<path fill="#F8991D" d="M17.471,53.763c-3.213-0.32-5.188,5.571-4.326,9.017c0.36,1.442,2.884,6.131,2.884,6.131
	s1.806,3.246,3.97-2.884C22.16,59.896,21.08,54.123,17.471,53.763z"/>
<path fill="#1D1E1C" d="M17.767,82.907c0,0-2.142-11.783-1.616-14.988c0.541-2.146,0-2.686,0-2.686l1.08-1.067
	c0,0,1.063,0.537,0.536,4.281c-0.536,2.677,1.072,13.93,1.604,13.93L17.767,82.907z"/>
<path opacity="0.2" enable-background="new    " d="M35.883,236.516c0,0-4.74,22.601-4.74,35.284c0,12.641,6.176,2.175,2.634,21.066
	c-2.72,14.504-25.806,4.739-25.806,4.739s0.376,2.114,7.899,2.634c15.271,1.053,20.013-3.688,20.013-6.847
	c0-3.16-0.526-29.492-0.526-29.492L35.883,236.516z"/>
</svg>
