<?xml version="1.0" encoding="utf-8"?>
<!-- Generator: Adobe Illustrator 16.0.4, SVG Export Plug-In . SVG Version: 6.00 Build 0)  -->
<!DOCTYPE svg PUBLIC "-//W3C//DTD SVG 1.1//EN" "http://www.w3.org/Graphics/SVG/1.1/DTD/svg11.dtd">
<svg version="1.1" id="Layer_1" xmlns="http://www.w3.org/2000/svg" xmlns:xlink="http://www.w3.org/1999/xlink" x="0px" y="0px"
	 width="85.961px" height="84.371px" viewBox="0 0 85.961 84.371" enable-background="new 0 0 85.961 84.371" xml:space="preserve">
<path id="colour_x5F_1" fill="#A83C96" stroke="#1D1D1B" stroke-miterlimit="10" d="M73.211,81.425
	c1.693-1.408,0.064-4.561,0.064-8.454l0,0c0-3.892-1.371-7.046-3.064-7.046H38.091c-1.693,0-3.064,3.154-3.064,7.046l0,0
	c0,3.894-1.647,7.407,0.046,8.817C35.073,81.789,50.907,86.705,73.211,81.425z"/>
<g>
	<path id="colour_x5F_2_1_" fill="#A83C96" d="M84.526,5.926c-0.704-3.264-14.803-4.979-30.734-4.925
		C37.858,0.947,24.031,2.496,23.433,5.28c-0.256,1.344-0.468,4.961-0.467,9.949c-3.723-1.038-22.137-4.953-21.965,15.084
		C1.114,43.667,13.238,59.171,29.14,63.021c1.502,4.736,3.347,9.034,5.602,12.523c0.816,1.265,8.623,1.908,19.458,1.804
		c10.834,0.104,17.825-0.539,18.643-1.804C85.506,55.944,85.646,11.524,84.526,5.926z M23.562,55.582
		c-5.309-3.293-13.5-9.252-15.695-20.691c-2.354-12.252,5.446-18.646,11.428-14.992c2.463,1.505,2.574,4.04,3.947,5.717
		c0.459,9.039,1.561,19.773,3.795,29.593C26.674,56.944,24.372,56.083,23.562,55.582z"/>
	<g>
		<path fill="#1D1D1B" d="M84.429,5.949c-0.187-0.707-0.869-1.155-1.511-1.503c-0.664-0.349-1.375-0.609-2.098-0.833
			c-1.447-0.441-2.936-0.756-4.432-0.996c-2.998-0.473-6.026-0.756-9.059-0.903c-6.064-0.317-12.148-0.221-18.213,0.001
			c-3.031,0.129-6.059,0.303-9.076,0.534c-3.014,0.245-6.024,0.564-8.973,1.078c-1.468,0.27-2.937,0.552-4.312,0.978
			c-0.678,0.213-1.355,0.468-1.862,0.783c-0.248,0.147-0.446,0.342-0.466,0.401c0.023-0.168-0.083,0.483-0.108,0.765
			c-0.149,1.403-0.215,2.953-0.262,4.445c-0.048,1.506-0.053,3.019-0.057,4.53L24,16.576l-1.313-0.347
			c-3.02-0.799-6.236-1.149-9.307-0.821c-1.529,0.188-3.039,0.509-4.414,1.121c-1.372,0.609-2.611,1.47-3.615,2.567
			c-1.01,1.094-1.753,2.431-2.288,3.86c-0.532,1.435-0.819,2.977-0.983,4.535c-0.167,1.559-0.176,3.16-0.047,4.724
			c0.134,1.543,0.436,3.114,0.85,4.636c0.825,3.06,2.169,5.99,3.845,8.71c1.675,2.726,3.705,5.237,5.975,7.509
			c4.564,4.512,10.263,7.969,16.526,9.586l0.208,0.055l0.062,0.197c0.764,2.453,1.647,4.869,2.699,7.209
			c0.525,1.168,1.089,2.321,1.719,3.436c0.297,0.568,0.648,1.103,0.975,1.652c0.136,0.273,0.303,0.369,0.585,0.504
			c0.269,0.123,0.569,0.209,0.87,0.289c2.461,0.568,5.062,0.696,7.622,0.828c2.57,0.105,5.146,0.152,7.724,0.11
			c2.574-0.065,5.171-0.063,7.733-0.153c2.57-0.089,5.143-0.219,7.679-0.494c1.263-0.144,2.533-0.312,3.714-0.613
			c0.292-0.077,0.581-0.161,0.834-0.264c0.246-0.093,0.498-0.242,0.534-0.295l0.89-1.533c1.228-2.197,2.279-4.504,3.201-6.883
			c1.788-4.773,3.115-9.729,4.217-14.738c1.088-5.012,1.973-10.083,2.652-15.187c0.684-5.104,1.16-10.241,1.458-15.389
			c0.14-2.575,0.208-5.154,0.224-7.733C84.797,11.08,84.799,8.482,84.429,5.949z M84.625,5.907c0.396,2.575,0.408,5.161,0.459,7.744
			c0.053,2.583,0.024,5.167-0.021,7.751c-0.077,5.169-0.346,10.338-0.801,15.496c-0.223,2.58-0.508,5.156-0.846,7.727
			c-0.328,2.574-0.783,5.129-1.258,7.684c-0.512,2.547-1.109,5.08-1.785,7.595c-0.728,2.503-1.537,4.984-2.49,7.421
			c-0.975,2.422-2.072,4.82-3.416,7.102l-0.514,0.82l-0.257,0.41c-0.106,0.148-0.104,0.221-0.37,0.53
			c-0.426,0.405-0.785,0.517-1.135,0.657c-0.35,0.127-0.686,0.211-1.02,0.287c-1.334,0.291-2.635,0.416-3.939,0.522
			c-2.605,0.196-5.197,0.241-7.788,0.24c-2.599,0.003-5.165-0.086-7.753-0.108c-2.586-0.052-5.173-0.092-7.758-0.246
			c-2.585-0.17-5.173-0.324-7.742-0.951c-0.321-0.09-0.64-0.189-0.962-0.328c-0.305-0.118-0.71-0.4-0.855-0.725
			c-0.338-0.556-0.701-1.098-1.009-1.67c-0.651-1.127-1.235-2.291-1.78-3.47c-1.09-2.358-2.004-4.792-2.804-7.259l0.27,0.251
			c-6.454-1.479-12.396-4.869-17.259-9.366c-2.42-2.268-4.607-4.805-6.401-7.615c-1.805-2.799-3.28-5.836-4.225-9.068
			c-0.474-1.618-0.804-3.264-0.976-4.972C0.035,30.681,0.024,29,0.182,27.311c0.158-1.686,0.45-3.384,1.034-5.023
			c0.586-1.631,1.437-3.216,2.629-4.542c1.184-1.33,2.67-2.385,4.273-3.116c1.608-0.728,3.321-1.138,5.029-1.328
			c1.711-0.181,3.421-0.157,5.106,0.008c1.687,0.169,3.343,0.469,4.991,0.921l-1.316,1c0.01-1.531,0.022-3.061,0.079-4.596
			c0.058-1.548,0.12-3.041,0.301-4.663c0.021-0.211,0.051-0.396,0.081-0.583l0.06-0.351c0.046-0.193,0.118-0.37,0.203-0.524
			c0.355-0.61,0.789-0.89,1.178-1.145c0.794-0.48,1.563-0.742,2.333-0.987c1.536-0.466,3.062-0.76,4.595-0.985
			c3.061-0.447,6.117-0.685,9.173-0.85c3.056-0.17,6.11-0.22,9.163-0.195C55.196,0.42,61.293,0.573,67.372,1.14
			c3.035,0.295,6.068,0.623,9.069,1.179c1.498,0.287,2.995,0.594,4.454,1.062c0.729,0.234,1.447,0.504,2.129,0.87
			c0.652,0.365,1.389,0.839,1.6,1.649v0.006L84.625,5.907z"/>
		<path fill="#1D1D1B" d="M23.508,55.667c-1.032-0.619-2.042-1.285-3.059-1.938c-1.003-0.674-2.009-1.354-2.977-2.095
			c-0.974-0.73-1.933-1.496-2.825-2.344c-0.461-0.408-0.894-0.847-1.321-1.295c-0.445-0.432-0.836-0.912-1.231-1.391
			c-0.798-0.952-1.501-1.984-2.135-3.061c-0.34-0.524-0.599-1.094-0.879-1.652c-0.293-0.554-0.531-1.131-0.763-1.713
			c-0.248-0.575-0.472-1.159-0.645-1.76c-0.181-0.599-0.384-1.191-0.505-1.805c-0.131-0.627-0.296-1.176-0.398-1.868l-0.236-1.791
			c-0.08-1.269-0.131-2.577,0-3.828c0.107-1.262,0.353-2.523,0.752-3.743c0.151-0.623,0.492-1.191,0.734-1.783
			c0.301-0.57,0.647-1.124,1.013-1.654c0.788-1.033,1.733-1.969,2.892-2.604c1.157-0.611,2.448-0.999,3.758-0.963
			c1.3,0.062,2.558,0.452,3.632,1.121c1.07,0.636,1.952,1.696,2.495,2.792c0.559,1.096,0.972,2.239,1.687,3.11l0.063,0.077
			l0.011,0.116c0.119,1.238,0.238,2.476,0.395,3.709l0.219,1.852c0.08,0.616,0.132,1.235,0.23,1.849
			c0.182,1.229,0.385,2.455,0.548,3.684l0.238,1.844c0.073,0.615,0.117,1.234,0.214,1.846c0.098,0.611,0.17,1.226,0.247,1.84
			c0.072,0.614,0.165,1.228,0.221,1.845l0.187,1.852c0.053,0.619,0.088,1.24,0.153,1.857c0.326,2.456,0.602,4.934,0.989,7.393
			l0.008,0.054l-0.008,0.024c-0.058,0.182-0.114,0.361-0.228,0.524c-0.041,0.088-0.125,0.149-0.188,0.224
			c-0.062,0.076-0.157,0.116-0.234,0.174c-0.342,0.19-0.725,0.215-1.078,0.188C24.774,56.283,24.113,56.026,23.508,55.667z
			 M23.615,55.498c0.577,0.33,1.234,0.564,1.89,0.617c0.325,0.024,0.662-0.021,0.91-0.193c0.251-0.166,0.388-0.445,0.444-0.75v0.078
			c-0.571-2.424-1.254-4.834-1.887-7.263c-0.286-1.219-0.516-2.448-0.74-3.679c-0.121-0.614-0.206-1.234-0.311-1.851
			c-0.1-0.618-0.205-1.235-0.284-1.855c-0.306-2.482-0.412-4.986-0.546-7.48c-0.039-0.623-0.03-1.25-0.046-1.874l-0.03-1.874
			c-0.01-1.25-0.057-2.495-0.104-3.741l0.074,0.193c-0.801-1.026-1.147-2.222-1.717-3.245c-0.543-1.05-1.283-1.888-2.316-2.447
			c-1.011-0.555-2.151-0.771-3.254-0.744c-1.116,0.054-2.16,0.502-3.074,1.092l-0.651,0.505c-0.219,0.163-0.385,0.396-0.583,0.585
			c-0.413,0.365-0.695,0.858-1.031,1.293c-0.283,0.477-0.551,0.969-0.78,1.475c-0.176,0.535-0.438,1.03-0.554,1.587
			c-0.312,1.081-0.492,2.207-0.546,3.344C8.4,30.424,8.49,31.525,8.59,32.657l0.286,1.784c0.072,0.5,0.248,1.111,0.365,1.661
			c0.112,0.57,0.306,1.117,0.475,1.67l0.25,0.832l0.306,0.812c0.198,0.544,0.402,1.086,0.66,1.606
			c0.241,0.527,0.477,1.057,0.762,1.563c0.522,1.038,1.129,2.034,1.767,3.013c0.649,0.972,1.32,1.944,2.081,2.851
			c0.737,0.928,1.556,1.795,2.401,2.639c0.855,0.834,1.759,1.625,2.713,2.354C21.597,54.188,22.606,54.835,23.615,55.498z"/>
	</g>
</g>
<path opacity="0.4" enable-background="new    " d="M84.526,5.926c-0.704-3.264-14.803-4.979-30.734-4.925
	C37.858,0.947,24.031,2.496,23.433,5.28c-0.256,1.344-0.468,4.961-0.467,9.949c-3.723-1.038-22.137-4.953-21.965,15.084
	C1.114,43.667,13.238,59.171,29.14,63.021c1.502,4.736,3.347,9.034,5.602,12.523c0.816,1.265,8.623,1.908,19.458,1.804
	c10.834,0.104,17.825-0.539,18.643-1.804C85.506,55.944,85.646,11.524,84.526,5.926z M23.562,55.582
	c-5.309-3.293-13.5-9.252-15.695-20.691c-2.354-12.252,5.446-18.646,11.428-14.992c2.463,1.505,2.574,4.04,3.947,5.717
	c0.459,9.039,1.561,19.773,3.795,29.593C26.674,56.944,24.372,56.083,23.562,55.582z"/>
<g>
	<path id="colour_x5F_3" fill="#A83C96" d="M84.526,5.926c0,0-14.938,2.683-30.869,2.737C37.724,8.609,23.615,4.705,23.433,5.28
		c-0.413,1.304-0.468,4.961-0.467,9.949c-3.723-1.038-22.137-4.953-21.965,15.084C1.114,43.667,13.238,59.171,29.14,63.021
		c1.502,4.736,3.347,9.034,5.602,12.523c0.816,1.265,8.165,1.736,18.999,1.631c10.834,0.105,18.284-0.366,19.102-1.631
		C85.506,55.944,84.526,5.926,84.526,5.926z M23.562,55.582c-5.309-3.293-13.5-9.252-15.695-20.691
		c-2.354-12.252,5.446-18.646,11.428-14.992c2.463,1.505,2.574,4.04,3.947,5.717c0.459,9.039,1.561,19.773,3.795,29.593
		C26.674,56.944,24.372,56.083,23.562,55.582z"/>
	<g>
		<path fill="#1D1D1B" d="M84.42,6.047C83,6.335,81.575,6.61,80.145,6.846c-1.469,0.262-2.947,0.461-4.421,0.693
			c-1.476,0.22-2.957,0.398-4.437,0.6c-1.48,0.2-2.97,0.311-4.455,0.471c-1.484,0.166-2.976,0.256-4.465,0.366
			c-1.492,0.107-2.98,0.229-4.477,0.265L53.4,9.405c-1.498,0.006-3-0.03-4.497-0.092C42.91,9.064,36.949,8.347,31.048,7.371
			c-1.476-0.235-2.944-0.521-4.405-0.795C25.914,6.44,25.181,6.3,24.47,6.186l-0.517-0.072l-0.226-0.021
			c-0.045-0.012-0.168,0.014,0.003-0.021c0.053-0.014,0.126-0.043,0.181-0.08c0.012-0.01,0.063-0.037,0.154-0.124
			c0.074-0.074,0.134-0.167,0.17-0.261c0.077-0.247,0.019-0.059,0.035-0.109l-0.004,0.017L24.259,5.55l-0.032,0.136l-0.064,0.271
			c-0.052,0.19-0.048,0.325-0.077,0.49c-0.173,1.332-0.213,2.871-0.252,4.329l-0.071,4.453l-0.017,1.05l-0.993-0.283
			c-3.036-0.865-6.271-1.284-9.418-1.011c-1.569,0.157-3.127,0.481-4.566,1.098c-1.435,0.617-2.75,1.506-3.82,2.65
			c-1.072,1.142-1.88,2.534-2.437,4.022c-0.555,1.494-0.851,3.083-1.02,4.679c-0.171,1.599-0.182,3.225-0.052,4.829
			c0.143,1.595,0.432,3.197,0.878,4.748c0.892,3.108,2.303,6.057,4.042,8.784c1.723,2.74,3.849,5.215,6.202,7.424
			c4.721,4.396,10.519,7.664,16.755,9.076l0.401,0.092l0.135,0.408c0.799,2.424,1.71,4.809,2.787,7.104
			c0.538,1.147,1.11,2.276,1.748,3.363c0.302,0.555,0.653,1.075,0.983,1.608l0.062,0.101l0.031,0.05l0.016,0.025
			c0.056,0.078-0.058-0.078-0.039-0.053l0.078,0.092c0.026,0.029,0-0.021-0.004-0.021c-0.039-0.031,0.103,0.059,0.188,0.092
			c0.214,0.092,0.489,0.176,0.768,0.246c2.34,0.521,4.958,0.614,7.49,0.721c2.556,0.082,5.121,0.092,7.688,0.07l7.72-0.061
			c2.562-0.057,5.125-0.125,7.651-0.312c1.257-0.102,2.522-0.229,3.692-0.471c0.289-0.062,0.574-0.131,0.82-0.217
			c0.238-0.07,0.48-0.211,0.48-0.211c0.006-0.021-0.07,0.096-0.033,0.041l0.125-0.207l0.248-0.414l0.497-0.829
			c1.228-2.167,2.246-4.462,3.14-6.843c1.719-4.773,2.993-9.733,4.014-14.748c1.022-5.019,1.762-10.103,2.354-15.204
			c0.618-5.1,1.078-10.225,1.399-15.36C84.09,16.265,84.354,11.158,84.42,6.047z M84.625,5.924c0.102,2.579,0.143,5.157,0.158,7.737
			c0.008,2.58,0.006,5.161-0.072,7.741c-0.144,5.16-0.424,10.32-0.866,15.472c-0.487,5.147-1.121,10.288-2.048,15.392
			c-0.448,2.555-0.998,5.095-1.614,7.622c-0.64,2.523-1.413,5.018-2.286,7.484c-0.904,2.446-1.967,4.883-3.273,7.203l-0.492,0.832
			l-0.248,0.416l-0.123,0.207c-0.041,0.086-0.227,0.324-0.336,0.415c-0.49,0.419-0.861,0.522-1.227,0.662
			c-0.363,0.125-0.707,0.208-1.047,0.283c-1.354,0.286-2.658,0.416-3.967,0.528c-2.609,0.215-5.203,0.285-7.793,0.297l-7.74-0.03
			c-2.586-0.009-5.174-0.05-7.77-0.165c-2.604-0.148-5.171-0.24-7.864-0.867c-0.343-0.094-0.688-0.193-1.062-0.363
			c-0.205-0.106-0.354-0.162-0.64-0.401c-0.063-0.056-0.159-0.147-0.184-0.181l-0.076-0.094c0.005,0.01-0.118-0.164-0.073-0.104
			l-0.016-0.026l-0.032-0.053l-0.063-0.106c-0.335-0.568-0.694-1.125-0.997-1.709c-0.643-1.15-1.211-2.334-1.743-3.529
			c-1.062-2.395-1.943-4.853-2.705-7.338l0.536,0.5c-6.479-1.686-12.322-5.263-17.029-9.875c-2.338-2.33-4.429-4.904-6.174-7.701
			c-1.743-2.793-3.15-5.812-4.028-8.993c-0.442-1.59-0.785-3.205-0.947-4.86c-0.155-1.646-0.167-3.302-0.013-4.951
			c0.152-1.646,0.436-3.298,0.997-4.879c0.563-1.572,1.351-3.102,2.48-4.381c1.119-1.283,2.529-2.31,4.069-3.033
			c1.544-0.723,3.208-1.13,4.877-1.351c1.673-0.208,3.359-0.215,5.027-0.083c1.671,0.137,3.319,0.404,4.958,0.822l-1.01,0.767
			c-0.028-1.492-0.032-2.983-0.011-4.482c0.03-1.517,0.034-2.963,0.229-4.588c0.032-0.202,0.051-0.442,0.096-0.612l0.062-0.272
			l0.031-0.136l0.008-0.034l0.004-0.017c0.02-0.062-0.04,0.113,0.046-0.142c0.043-0.103,0.111-0.206,0.192-0.288
			c0.097-0.098,0.158-0.131,0.181-0.145c0.076-0.045,0.17-0.085,0.245-0.107c0.353-0.079,0.418-0.043,0.559-0.047l0.331,0.026
			l0.59,0.076c0.762,0.113,1.493,0.246,2.229,0.375L31.35,5.62c5.838,1.043,11.719,1.827,17.628,2.149
			c1.478,0.082,2.953,0.129,4.435,0.153l4.44-0.023c1.483,0.01,2.966-0.063,4.45-0.124c1.482-0.062,2.968-0.105,4.449-0.224
			c2.965-0.191,5.928-0.422,8.891-0.696c1.479-0.159,2.962-0.286,4.438-0.475c1.479-0.174,2.955-0.34,4.43-0.549l0.113-0.016
			L84.625,5.924z"/>
		<path fill="#1D1D1B" d="M23.508,55.667c-1.03-0.623-2.036-1.293-3.052-1.949c-1.001-0.678-2.006-1.357-2.973-2.098
			c-0.973-0.731-1.931-1.498-2.817-2.35c-0.459-0.41-0.889-0.85-1.313-1.299c-0.443-0.434-0.829-0.916-1.219-1.396
			c-0.789-0.957-1.475-1.998-2.091-3.078c-0.332-0.527-0.577-1.102-0.845-1.663c-0.281-0.556-0.509-1.135-0.711-1.723
			c-0.223-0.581-0.423-1.168-0.569-1.772c-0.153-0.602-0.327-1.196-0.418-1.81c-0.101-0.62-0.24-1.188-0.308-1.847l-0.171-1.8
			c-0.042-1.245-0.03-2.496,0.108-3.713c0.018-0.615,0.185-1.215,0.281-1.821c0.072-0.611,0.292-1.193,0.452-1.786
			c0.148-0.598,0.444-1.148,0.657-1.726c0.265-0.556,0.585-1.091,0.905-1.62c0.38-0.491,0.707-1.03,1.181-1.449
			c0.228-0.215,0.421-0.471,0.676-0.659l0.76-0.575c1.071-0.682,2.312-1.177,3.64-1.248c1.312-0.04,2.663,0.234,3.832,0.872
			l0.113,0.054l0.056,0.026l0.106,0.071l0.186,0.129l0.371,0.258c0.24,0.136,0.515,0.433,0.773,0.687
			c0.283,0.261,0.463,0.535,0.664,0.809c0.214,0.271,0.363,0.556,0.528,0.839c0.638,1.125,1.032,2.25,1.664,2.983l0.185,0.214
			l0.029,0.339l0.626,7.407c0.125,1.232,0.265,2.461,0.376,3.695l0.161,1.85c0.061,0.616,0.092,1.236,0.177,1.849
			c0.157,1.227,0.288,2.458,0.413,3.69l0.168,1.854c0.05,0.619,0.082,1.241,0.145,1.858c0.311,2.458,0.589,4.935,0.972,7.396
			l0.009,0.058l-0.008,0.026c-0.058,0.183-0.116,0.365-0.23,0.528c-0.042,0.089-0.127,0.152-0.19,0.226
			c-0.063,0.078-0.159,0.117-0.237,0.176c-0.345,0.191-0.731,0.215-1.085,0.188C24.772,56.289,24.111,56.029,23.508,55.667z
			 M23.615,55.498c0.578,0.326,1.236,0.56,1.89,0.608c0.324,0.022,0.658-0.024,0.903-0.194c0.248-0.166,0.382-0.441,0.437-0.744
			v0.084c-0.576-2.424-1.255-4.834-1.904-7.26c-0.289-1.22-0.528-2.447-0.767-3.677c-0.23-1.229-0.453-2.464-0.65-3.701
			c-0.103-0.618-0.153-1.242-0.233-1.862l-0.217-1.864c-0.141-1.243-0.253-2.49-0.381-3.734c-0.118-1.245-0.142-2.498-0.214-3.746
			l-0.185-3.746l0.213,0.552c-0.884-1.165-1.25-2.378-1.741-3.372c-0.495-1.019-1.046-1.749-2.014-2.367
			c-0.916-0.586-1.963-0.919-3.054-0.993c-1.099-0.053-2.192,0.288-3.193,0.808c-1.002,0.545-1.837,1.376-2.539,2.303
			c-0.329,0.479-0.624,0.989-0.889,1.509c-0.206,0.549-0.512,1.062-0.631,1.644c-0.34,1.127-0.532,2.301-0.565,3.48
			c-0.071,1.187,0.082,2.345,0.22,3.5L8.452,34.5c0.106,0.533,0.308,1.125,0.456,1.682c0.142,0.57,0.364,1.116,0.562,1.666
			l0.288,0.827l0.343,0.806c0.439,1.079,0.943,2.131,1.507,3.149c0.539,1.034,1.164,2.02,1.811,2.997
			c0.662,0.965,1.334,1.938,2.101,2.84c0.743,0.925,1.563,1.789,2.41,2.634c0.857,0.833,1.761,1.625,2.717,2.351
			C21.59,54.199,22.604,54.839,23.615,55.498z"/>
	</g>
</g>
<path opacity="0.4" fill="#FFFFFF" enable-background="new    " d="M74.991,43.769c-2.15,20.102-6.768,30.134-7.152,30.881
	l2.563-0.994c0,0,6.736-7.654,10.345-34.042c1.389-10.151,1.715-28.859,1.715-28.859c-0.338-3.392-3.045-3.168-4.5-2.78
	C73.032,9.289,76.75,27.316,74.991,43.769z"/>
</svg>
