<?xml version="1.0" encoding="utf-8"?>
<!-- Generator: Adobe Illustrator 16.0.4, SVG Export Plug-In . SVG Version: 6.00 Build 0)  -->
<!DOCTYPE svg PUBLIC "-//W3C//DTD SVG 1.1//EN" "http://www.w3.org/Graphics/SVG/1.1/DTD/svg11.dtd">
<svg version="1.1" id="Layer_1" xmlns="http://www.w3.org/2000/svg" xmlns:xlink="http://www.w3.org/1999/xlink" x="0px" y="0px"
	 width="125.685px" height="243.552px" viewBox="0 0 125.685 243.552" enable-background="new 0 0 125.685 243.552"
	 xml:space="preserve">
<g>
	<g>
		<g>
			<path fill="#BFDBE9" stroke="#1D1E1C" stroke-linecap="round" stroke-linejoin="round" stroke-miterlimit="10" d="M84.361,95.263
				c0.894-0.299,17.974,9.688,32.638,18.418c-1.358-3.574-3.1-7.094-5.25-10.519c-2.789-4.441-2.396-9.003-5.267-15.8
				c-2.009-4.757-5.547-6.193-6.321-1.932c-0.336,1.849-1.568-1.926-2.633-0.527c-0.603,0.791-3.595,4.139-4.476,4.829
				c-2.113,1.656-4.726,1.433-8.988,2.202C83.899,94.043,83.961,95.396,84.361,95.263z"/>
			<g>
				<path fill="#BBDFF0" d="M58.714,101.056c0,0-15.961,4.214-24.914,5.267c-8.954,1.054,2.106-15.273,2.106-15.273
					S2.902,112.292,8.695,131.252c5.793,18.961,12.098,28.792,24.739,28.792"/>
				<path fill="#1D1E1C" d="M58.733,101.128c-3.564,1.071-7.154,2.053-10.768,2.947c-3.618,0.877-7.245,1.734-10.928,2.374
					c-0.921,0.159-1.846,0.306-2.776,0.433c-0.901,0.122-2.036,0.276-3.112-0.27c-0.54-0.267-0.999-0.777-1.222-1.325
					c-0.234-0.55-0.294-1.104-0.295-1.626c0.011-1.049,0.26-2.004,0.546-2.926c0.604-1.835,1.476-3.517,2.417-5.143
					c0.943-1.627,1.958-3.194,3.05-4.721l0.433,0.442c-6.429,4.173-12.387,9.159-17.555,14.826
					c-2.549,2.862-4.882,5.933-6.712,9.274c-1.816,3.33-3.114,6.995-3.196,10.727c-0.039,1.869,0.247,3.69,0.881,5.473
					c0.603,1.82,1.211,3.64,1.875,5.435c1.331,3.586,2.805,7.113,4.591,10.451c1.812,3.302,3.962,6.485,6.953,8.751
					c2.929,2.339,6.687,3.514,10.521,3.718c0.042,0.002,0.073,0.038,0.071,0.079c-0.002,0.039-0.033,0.068-0.071,0.071
					c-1.93,0.118-3.898-0.024-5.807-0.509c-1.905-0.49-3.741-1.317-5.382-2.439c-3.273-2.285-5.75-5.509-7.656-8.913
					c-1.935-3.413-3.36-7.052-4.607-10.719c-0.621-1.836-1.21-3.679-1.743-5.537c-0.597-1.868-0.902-3.913-0.808-5.896
					c0.154-4.008,1.682-7.765,3.629-11.114c1.971-3.366,4.417-6.4,7.052-9.227c2.622-2.842,5.467-5.464,8.422-7.945
					c2.955-2.485,6.003-4.847,9.201-7.037c0.143-0.099,0.338-0.062,0.437,0.081c0.072,0.105,0.071,0.238,0.01,0.34l-0.013,0.022
					c-1.903,3.148-3.625,6.489-4.721,9.907c-0.263,0.85-0.458,1.723-0.471,2.537c-0.023,0.828,0.206,1.507,0.779,1.798
					c0.284,0.164,0.667,0.237,1.068,0.262c0.392,0.026,0.816-0.002,1.285-0.061c0.914-0.104,1.828-0.23,2.742-0.368
					c3.654-0.562,7.306-1.238,10.941-1.994c3.637-0.748,7.272-1.522,10.903-2.324c0.041-0.01,0.081,0.016,0.09,0.057
					C58.794,101.078,58.771,101.116,58.733,101.128z"/>
			</g>
			<g>
				<path fill="#FFFFFF" d="M84.361,95.263c-0.4,0.133-0.462-1.22-0.298-3.328c-0.652,0.118-1.337,0.256-2.072,0.431
					c-5.643,1.344-12.026,4.651-13.43-4.477c-0.43-2.796-1.738-9.17-1.054-12.641C69.883,63.2,86.995,56.814,83.834,39.435
					C78.579,10.527,65.774,3.058,52.76,0.986C41.173-0.856,25.773,12.713,23.003,36.537c-1.317,11.324,3.183,17.022,6.32,21.857
					c5.773,8.899,11.208,12.751,4.477,27.388c-1.57,3.413-18.434,21.066-19.487,35.813c-1.286,18.004-0.214,29.18,8.954,40.555
					c11.589,14.381,14.747,31.074,46.235,30.023c23.474-0.782,30.964-11.702,39.249-22.921
					c11.739-15.896,15.498-36.499,8.248-55.572C102.335,104.951,85.255,94.964,84.361,95.263z"/>
				<path fill="#1D1E1C" d="M84.371,95.362c-0.04,0.034-0.248-0.031-0.28-0.117c-0.05-0.077-0.079-0.154-0.102-0.229
					c-0.041-0.151-0.065-0.3-0.079-0.448c-0.03-0.297-0.037-0.592-0.037-0.886c0.003-0.587,0.035-1.172,0.078-1.756l0.133,0.121
					c-2.462,0.412-4.811,1.265-7.262,1.826c-1.224,0.265-2.497,0.461-3.773,0.271c-1.278-0.165-2.482-0.919-3.195-1.998
					c-0.729-1.067-1.11-2.31-1.358-3.543l-0.634-3.699c-0.394-2.469-0.804-4.949-0.818-7.484c-0.057-2.569,0.836-5.066,2.019-7.29
					c1.204-2.237,2.746-4.251,4.316-6.201c3.144-3.879,6.507-7.636,8.452-12.134c0.973-2.23,1.552-4.611,1.662-7.023
					c0.054-1.206-0.002-2.416-0.15-3.617c-0.152-1.185-0.41-2.406-0.656-3.625c-1.007-4.85-2.338-9.646-4.236-14.19
					c-1.89-4.54-4.404-8.825-7.71-12.39c-3.298-3.57-7.515-6.221-12.152-7.718c-1.157-0.38-2.337-0.698-3.532-0.963
					c-1.188-0.249-2.429-0.509-3.572-0.591c-2.345-0.16-4.74,0.298-6.971,1.189c-4.485,1.803-8.318,5.11-11.358,8.943
					c-3.054,3.854-5.365,8.294-7.008,12.957c-0.822,2.333-1.48,4.728-1.977,7.156c-0.487,2.424-0.887,4.902-0.986,7.357
					c-0.1,2.465,0.078,4.945,0.656,7.339c0.56,2.399,1.527,4.688,2.748,6.84c1.225,2.142,2.657,4.217,4.014,6.296
					c1.383,2.072,2.905,4.062,4.189,6.239c1.292,2.16,2.251,4.612,2.418,7.176c0.191,2.558-0.293,5.1-1.032,7.507
					c-0.372,1.206-0.812,2.39-1.295,3.551c-0.242,0.586-0.491,1.146-0.759,1.737c-0.299,0.604-0.671,1.115-1.033,1.633
					c-1.473,2.042-3.012,4.001-4.496,6.008c-2.975,3.999-5.816,8.101-8.232,12.437c-2.388,4.326-4.452,8.919-5.198,13.749
					c-0.187,1.192-0.237,2.421-0.312,3.674l-0.176,3.729c-0.089,2.485-0.119,4.969-0.041,7.444
					c0.158,4.942,0.771,9.879,2.344,14.515c1.55,4.646,4.089,8.882,7.216,12.685c3.182,3.953,5.831,8.237,8.669,12.297
					c2.828,4.055,5.961,7.888,9.91,10.698c3.919,2.839,8.553,4.567,13.349,5.435c4.804,0.889,9.755,1.037,14.69,0.803
					c4.901-0.248,9.808-0.987,14.405-2.597c4.604-1.588,8.833-4.13,12.406-7.448c3.595-3.306,6.573-7.271,9.569-11.259
					c6.085-7.792,10.284-16.982,12.043-26.715c1.772-9.717,0.908-19.93-2.546-29.252l0.141,0.168
					c-5.33-3.27-10.685-6.496-16.082-9.651c-2.695-1.583-5.396-3.156-8.112-4.701c-1.358-0.772-2.721-1.538-4.093-2.284
					c-0.687-0.371-1.375-0.739-2.071-1.093c-0.348-0.176-0.697-0.349-1.05-0.512c-0.334-0.147-0.754-0.348-1.028-0.369h-0.007
					C84.38,95.356,84.375,95.358,84.371,95.362z M84.33,95.168c0.292-0.025,0.432,0.079,0.632,0.138
					c0.186,0.07,0.366,0.149,0.546,0.229c0.358,0.161,0.711,0.332,1.062,0.506c0.702,0.348,1.395,0.71,2.086,1.077
					c1.381,0.734,2.752,1.488,4.118,2.248c2.732,1.522,5.448,3.072,8.159,4.631l16.237,9.396c0.065,0.038,0.113,0.096,0.138,0.16
					l0.003,0.009c3.698,9.351,4.841,19.723,3.279,29.716c-1.498,10.011-5.79,19.564-11.869,27.617
					c-2.921,4.045-5.956,8.141-9.731,11.615c-3.74,3.496-8.25,6.224-13.094,7.902c-4.844,1.707-9.925,2.478-14.989,2.747
					c-5.035,0.245-10.145,0.128-15.176-0.812c-5.013-0.937-9.968-2.809-14.145-5.875c-4.207-3.037-7.462-7.103-10.308-11.235
					c-2.858-4.146-5.453-8.396-8.52-12.253c-3.203-3.917-5.829-8.435-7.374-13.307c-1.578-4.869-2.132-9.973-2.225-15.003
					c-0.045-2.521,0.019-5.034,0.143-7.541l0.228-3.754c0.092-1.239,0.16-2.51,0.376-3.786c0.86-5.07,3.043-9.719,5.526-14.077
					c2.514-4.362,5.438-8.452,8.481-12.425c1.515-1.99,3.095-3.936,4.568-5.93c0.356-0.502,0.722-1.008,0.979-1.524
					c0.25-0.545,0.512-1.124,0.749-1.691c0.483-1.143,0.921-2.302,1.291-3.48c0.736-2.352,1.212-4.808,1.042-7.249
					c-0.148-2.446-1.042-4.784-2.295-6.908c-1.248-2.135-2.74-4.143-4.157-6.207c-1.388-2.094-2.813-4.124-4.087-6.312
					c-1.259-2.183-2.274-4.534-2.868-7.002c-0.613-2.462-0.814-5.014-0.729-7.537c0.264-5.045,1.203-10.017,2.782-14.813
					c1.591-4.782,3.869-9.375,6.958-13.414c3.079-4.016,6.995-7.554,11.787-9.582c2.385-0.994,5.008-1.58,7.66-1.415
					c1.351,0.095,2.564,0.352,3.82,0.605c1.246,0.269,2.483,0.594,3.702,0.986c4.883,1.543,9.415,4.352,12.921,8.113
					c3.553,3.734,6.067,8.283,7.977,12.962c1.906,4.701,3.207,9.596,4.18,14.535c0.236,1.23,0.488,2.459,0.619,3.757
					c0.128,1.282,0.158,2.577,0.07,3.865c-0.176,2.58-0.859,5.116-1.938,7.44c-2.165,4.688-5.689,8.406-8.888,12.193
					c-1.603,1.9-3.156,3.844-4.371,5.986c-1.194,2.135-2.098,4.494-2.097,6.953c-0.032,2.468,0.285,4.954,0.675,7.413
					c0.475,2.429,0.507,5.054,1.877,7.111c0.666,1.017,1.751,1.711,2.959,1.882c1.206,0.19,2.453,0.015,3.662-0.239
					c2.423-0.534,4.803-1.374,7.283-1.77c0.062-0.011,0.121,0.029,0.133,0.092l0.001,0.029c-0.046,0.58-0.082,1.16-0.09,1.74
					c-0.002,0.289,0.002,0.578,0.029,0.862c0.012,0.143,0.035,0.282,0.069,0.413c0.019,0.064,0.042,0.123,0.071,0.17
					c0.055,0.033-0.011,0.045,0.097,0.034L84.33,95.168z"/>
			</g>
			<g>
				<path fill="#F7961D" d="M41.534,179.149c0,0,2.027,19.309,0.048,23.734c-0.313,0.701-3.144,1.835-6.211,3.337
					c-3.729,1.827-10.908,3.899-17.547,5.438c-11.473,2.656-23.582,7.83-14.366,11.447c4.393,1.728,5.201-0.416,6.954,3.958
					c2.553,6.365,13.605,1.422,16.793,1.859c3.961,0.549,2.631,3.547,6.791,3.917c10.431,0.923,12.028-7.107,13.931-9.857
					c5.267-7.606,8.064-15.561,5.638-18.934c-1.523-2.119-3.24-1.533-3.24-1.533l2.054-23.512L41.534,179.149z"/>
				<path d="M41.609,179.218c0.487,3.115,0.838,6.248,1.082,9.394c0.27,3.17,0.37,6.353,0.257,9.562
					c-0.091,1.609-0.149,3.213-0.801,4.872l-0.053,0.117l-0.036,0.065c-0.061,0.1-0.134,0.189-0.177,0.232
					c-0.102,0.109-0.197,0.189-0.292,0.263c-0.188,0.145-0.371,0.26-0.553,0.369c-0.364,0.216-0.725,0.401-1.086,0.582
					c-0.723,0.358-1.445,0.689-2.164,1.023l-2.143,1.009c-0.724,0.353-1.48,0.667-2.227,0.949c-1.5,0.571-3.018,1.065-4.542,1.527
					c-3.051,0.919-6.132,1.705-9.229,2.418c-3.107,0.68-6.174,1.387-9.181,2.383c-1.5,0.495-2.984,1.036-4.428,1.667
					c-1.437,0.637-2.861,1.341-4.093,2.288c-0.601,0.476-1.179,1.031-1.441,1.711c-0.28,0.688,0.054,1.412,0.622,1.901
					c0.56,0.504,1.264,0.861,1.976,1.171c0.717,0.304,1.462,0.558,2.218,0.728c0.76,0.18,1.528,0.234,2.337,0.351
					c0.402,0.062,0.835,0.179,1.206,0.426c0.369,0.245,0.653,0.581,0.879,0.927c0.459,0.687,0.743,1.469,1.065,2.164
					c0.329,0.667,0.827,1.259,1.442,1.679c1.243,0.854,2.844,1.045,4.379,1.019c1.554-0.035,3.107-0.292,4.652-0.595
					c1.553-0.296,3.079-0.693,4.705-0.897c0.415-0.044,0.818-0.078,1.299-0.021c0.375,0.049,0.836,0.144,1.234,0.285
					c0.83,0.265,1.583,0.873,2.089,1.521c0.519,0.645,0.95,1.21,1.558,1.534c0.603,0.33,1.323,0.467,2.081,0.509
					c1.541,0.108,3.088,0.022,4.549-0.361c1.46-0.381,2.811-1.09,3.921-2.091c1.117-0.996,1.999-2.248,2.737-3.603
					c0.373-0.678,0.711-1.38,1.067-2.098c0.179-0.358,0.362-0.721,0.573-1.086c0.219-0.381,0.458-0.709,0.673-1.033
					c0.868-1.299,1.69-2.639,2.437-4.011c1.479-2.741,2.771-5.639,3.333-8.634c0.258-1.478,0.33-3.035-0.176-4.29
					c-0.243-0.608-0.703-1.178-1.206-1.554c-0.257-0.187-0.533-0.321-0.818-0.392c-0.262-0.074-0.631-0.063-0.785-0.02l-0.039,0.011
					c-0.371,0.106-0.756-0.108-0.863-0.479c-0.024-0.085-0.031-0.174-0.024-0.258c0.37-3.916,0.679-7.837,1.098-11.749
					c0.41-3.913,0.784-7.829,1.243-11.737l0.417,0.449C48.792,179.392,45.201,179.304,41.609,179.218z M41.533,179.082
					c3.613-0.183,7.226-0.368,10.839-0.491c0.224-0.008,0.412,0.167,0.419,0.392l0,0.036l-0.001,0.021
					c-0.226,3.929-0.537,7.85-0.811,11.774c-0.266,3.926-0.641,7.841-0.956,11.762l-0.925-0.725c1.129-0.302,2.1,0.047,2.885,0.599
					c0.76,0.576,1.33,1.292,1.686,2.15c0.687,1.719,0.534,3.475,0.248,5.087c-0.644,3.248-2.012,6.205-3.556,9.019
					c-0.781,1.407-1.631,2.766-2.536,4.095c-0.923,1.212-1.469,2.671-2.288,4.097c-0.791,1.415-1.758,2.802-3.037,3.896
					c-1.268,1.103-2.819,1.876-4.435,2.264c-1.618,0.393-3.282,0.447-4.897,0.304c-0.817-0.062-1.698-0.227-2.484-0.677
					c-0.802-0.45-1.335-1.204-1.794-1.792c-0.464-0.602-0.99-1.035-1.672-1.278c-0.349-0.126-0.666-0.203-1.075-0.267
					c-0.307-0.043-0.701-0.03-1.074,0.006c-1.525,0.161-3.085,0.53-4.652,0.8c-1.569,0.277-3.163,0.509-4.783,0.515
					c-1.6-0.007-3.32-0.226-4.709-1.216c-0.686-0.49-1.229-1.16-1.585-1.922c-0.323-0.749-0.589-1.469-1.007-2.109
					c-0.733-1.468-2.574-1.099-4.116-1.529c-0.79-0.185-1.549-0.449-2.29-0.769c-0.734-0.328-1.466-0.699-2.086-1.264
					c-0.308-0.28-0.579-0.629-0.735-1.044c-0.153-0.42-0.133-0.896,0.018-1.303c0.312-0.817,0.934-1.4,1.556-1.908
					c1.277-1.002,2.715-1.726,4.166-2.386c1.456-0.653,2.948-1.215,4.455-1.728c3.007-1.027,6.101-1.858,9.173-2.599
					c3.065-0.786,6.113-1.643,9.113-2.624c1.499-0.493,2.986-1.018,4.437-1.609c0.729-0.299,1.431-0.609,2.132-0.952l2.152-1.033
					c0.716-0.34,1.433-0.675,2.128-1.026c0.346-0.176,0.689-0.356,1.006-0.548c0.3-0.176,0.648-0.438,0.632-0.512
					c0.256-0.636,0.386-1.405,0.489-2.16c0.112-0.761,0.182-1.537,0.234-2.317c0.31-6.271-0.086-12.62-0.329-18.954
					C41.464,179.118,41.495,179.085,41.533,179.082z"/>
			</g>
			<g>
				<path fill="#F7961D" d="M85.151,186.904c0,0-0.453,19.629,1.906,23.822c0.377,0.664-0.658,0.084,2.51,1.29
					c3.851,1.467,13.395,5.909,20.818,10.076c5.069,2.848,17.58,4.203,11.301,9.668c-3.534,3.076-5.171-0.624-6.966,3.694
					c-3.045,7.339-8.596,2.31-11.704,3.036c-3.865,0.9-5.239,4.321-9.38,4.511c-5.918,0.27-10.674-7.071-12.823-9.599
					c-6.044-7.107-8.821-10.385-5.492-20.437c0.812-2.457,3.063-3.197,3.063-3.197l-2.976-22.075L85.151,186.904z"/>
				<path d="M85.218,186.906c0.067,3.026,0.167,6.052,0.312,9.07c0.136,3.018,0.353,6.034,0.72,9.012
					c0.188,1.482,0.414,2.977,0.836,4.358c0.108,0.342,0.232,0.676,0.383,0.968l0.139,0.266c0.036,0.078,0.064,0.149,0.087,0.248
					c0.013,0.066,0.051,0.282,0,0.062c-0.157-0.284-0.213-0.216-0.18-0.226l0.094,0.037l0.258,0.091
					c0.719,0.248,1.437,0.507,2.15,0.778c2.859,1.1,5.603,2.382,8.34,3.698c2.736,1.312,5.444,2.682,8.104,4.145
					c1.332,0.727,2.657,1.468,3.97,2.23c1.265,0.749,2.674,1.28,4.086,1.807c1.416,0.521,2.851,1.015,4.268,1.577
					c1.403,0.575,2.861,1.14,4.031,2.242c0.284,0.281,0.535,0.619,0.686,1.015c0.151,0.397,0.166,0.846,0.063,1.25
					c-0.222,0.811-0.754,1.43-1.301,1.969c-0.555,0.532-1.163,1.034-1.874,1.382c-0.707,0.357-1.525,0.493-2.294,0.48
					c-0.766-0.007-1.508-0.049-2.026,0.407c-0.525,0.438-0.855,1.122-1.141,1.805c-0.587,1.394-1.413,2.843-2.848,3.651
					c-1.448,0.822-3.175,0.646-4.646,0.312l-2.206-0.531c-0.717-0.153-1.451-0.273-2.078-0.133
					c-1.399,0.318-2.631,1.117-3.812,2.035c-1.179,0.907-2.467,1.923-4.062,2.359c-1.569,0.45-3.279,0.338-4.795-0.204
					c-1.525-0.534-2.864-1.425-4.058-2.426c-2.398-1.998-4.26-4.526-6.133-6.814c-0.985-1.147-1.98-2.297-2.937-3.496
					c-0.955-1.199-1.882-2.454-2.614-3.86c-0.741-1.396-1.266-2.951-1.448-4.545c-0.195-1.595-0.061-3.188,0.208-4.723
					c0.282-1.543,0.696-3.012,1.19-4.496c0.267-0.789,0.733-1.56,1.332-2.163c0.614-0.614,1.281-1.079,2.154-1.4l-0.446,0.713
					l-1.36-11.055l-1.296-11.063l-0.001-0.015c-0.021-0.18,0.107-0.343,0.287-0.363l0.021-0.002l9.765-0.522
					c0.038-0.002,0.07,0.027,0.072,0.065C85.218,186.903,85.218,186.905,85.218,186.906z M85.082,186.979l-9.647,1.05l0.306-0.38
					l1.68,11.012l1.616,11.021c0.044,0.303-0.128,0.588-0.401,0.695l-0.045,0.018c-0.542,0.216-1.155,0.627-1.601,1.09
					c-0.462,0.478-0.801,1.033-1.018,1.679c-0.455,1.388-0.858,2.842-1.113,4.28c-0.246,1.443-0.358,2.901-0.177,4.316
					c0.17,1.417,0.632,2.776,1.314,4.051c1.379,2.548,3.392,4.827,5.321,7.149c1.924,2.411,3.661,4.819,5.91,6.739
					c1.111,0.949,2.327,1.774,3.653,2.282c1.319,0.509,2.77,0.636,4.129,0.285c1.366-0.333,2.555-1.199,3.78-2.098
					c1.219-0.899,2.61-1.771,4.197-2.086c0.87-0.162,1.667,0.018,2.417,0.191l2.194,0.589c1.423,0.361,2.948,0.538,4.214-0.141
					c1.269-0.661,2.104-1.977,2.676-3.336c0.304-0.695,0.645-1.434,1.296-1.974c0.325-0.268,0.75-0.425,1.154-0.466
					c0.406-0.047,0.79-0.021,1.162-0.021c1.492,0.095,2.845-0.646,3.878-1.717c0.517-0.518,0.992-1.112,1.161-1.78
					c0.179-0.67-0.131-1.338-0.652-1.823c-1.059-0.979-2.503-1.54-3.89-2.08c-1.412-0.519-2.859-0.956-4.3-1.435
					c-1.437-0.483-2.896-0.974-4.268-1.724c-1.329-0.716-2.669-1.41-4.018-2.091c-2.703-1.348-5.416-2.676-8.147-3.964
					c-2.737-1.269-5.491-2.531-8.261-3.664c-0.698-0.275-1.4-0.538-2.109-0.793l-0.276-0.102l-0.168-0.069
					c-0.05-0.05-0.204-0.021-0.398-0.396c-0.078-0.311-0.033-0.192-0.045-0.218c0.002,0.007-0.003-0.011-0.007-0.019l-0.122-0.238
					c-0.189-0.385-0.321-0.767-0.435-1.147c-0.438-1.524-0.635-3.043-0.806-4.562C84.686,199.051,84.766,193.008,85.082,186.979z"/>
			</g>
			<g>
				<path fill="none" d="M100.337,113.344"/>
			</g>
			<path fill="#D6EFFB" d="M26.69,160.57c7.624,9.403,12.853,18.053,29.055,13.518c8.779-2.457,4.829,7.812,9.393,9.92
				c4.564,2.106,8.34,3.072,8.34,3.072l1.141,3.247c0,0-15.537,2.37-25.281-2.106c-12.278-5.641-13.43-10.709-17.644-16.327
				c-4.213-5.617-6.901-10.035-9.48-13.167c-7.374-8.953-8.125-27.213-7.11-26.86C16.117,132.218,18.79,150.827,26.69,160.57z"/>
			<g>
				<path fill="#D6EFFB" d="M38.365,180.409c0,0,1.587,7.436,7.022,9.392c6.583,2.37,13.446-1.751,14.747-3.16"/>
				<path fill="#231F20" d="M38.365,180.409c0.86,2.173,1.955,4.227,3.396,5.925c0.734,0.831,1.54,1.584,2.467,2.116
					c0.454,0.266,0.952,0.508,1.42,0.666c0.58,0.19,1.05,0.322,1.6,0.423c2.145,0.441,4.405,0.278,6.595-0.234
					c1.096-0.265,2.183-0.61,3.239-1.049c1.057-0.437,2.109-0.922,3.051-1.615c-0.721,0.944-1.719,1.636-2.718,2.272
					c-1.02,0.613-2.105,1.133-3.246,1.516c-2.27,0.785-4.781,1.054-7.215,0.58c-0.594-0.118-1.243-0.316-1.764-0.502
					c-0.628-0.232-1.183-0.502-1.715-0.856c-1.049-0.704-1.941-1.597-2.635-2.601C39.445,185.05,38.628,182.744,38.365,180.409z"/>
			</g>
			<path fill="#D6EFFB" d="M93.841,152.407c0,0,4.554,4.483,10.007,3.423c9.48-1.843-3.12,8.407-3.687,11.323
				c-1.843,9.48-6.847,13.694-6.847,13.694l-7.374,7.637c0,0,11.587-5.53,17.644-13.693c6.057-8.164,13.957-20.277,14.484-28.704
				c0.526-8.427-14.484-7.374-15.274-6.584S93.841,152.407,93.841,152.407z"/>
			<g>
				<path fill="#FFFFFF" d="M73.038,93.945c0,0,12.026-5.342,21.858-0.877c15.272,6.934,23.349-4.302,23.349-4.302
					s10.885,28.88,5.092,47.84c-5.793,18.961-20.366,15.801-33.006,15.801"/>
				<path fill="#1D1E1C" d="M72.997,93.854c1.815-0.896,3.734-1.548,5.688-2.09c1.956-0.541,3.97-0.892,6.012-1.049
					c2.042-0.145,4.116-0.077,6.163,0.286c1.021,0.188,2.033,0.449,3.021,0.794c0.998,0.342,1.927,0.797,2.813,1.111
					c3.633,1.386,7.557,1.919,11.318,1.22c3.743-0.664,7.362-2.679,9.889-5.605l0.036-0.041c0.148-0.172,0.408-0.191,0.58-0.043
					c0.058,0.05,0.099,0.114,0.122,0.182c2.368,7.114,4.26,14.342,5.588,21.709c0.673,3.681,1.152,7.404,1.358,11.159
					c0.199,3.751,0.131,7.55-0.508,11.303c-0.65,3.747-1.756,7.45-3.68,10.841c-0.967,1.682-2.134,3.295-3.592,4.641
					c-1.445,1.354-3.132,2.466-4.95,3.229c-3.639,1.586-7.574,1.884-11.327,1.838c-3.78-0.093-7.478-0.518-11.198-0.831
					c-0.055-0.004-0.096-0.053-0.092-0.107c0.004-0.05,0.044-0.088,0.092-0.092c3.736-0.309,7.487-0.211,11.165-0.469
					c3.668-0.211,7.31-0.762,10.514-2.232c1.593-0.743,3.056-1.717,4.346-2.896c1.271-1.198,2.403-2.567,3.331-4.093
					c0.937-1.518,1.698-3.169,2.324-4.866c0.676-1.72,1.129-3.445,1.49-5.249c1.383-7.195,1.045-14.719-0.01-22.054
					c-1.126-7.339-3.002-14.604-5.641-21.533l0.737,0.098c-2.49,3.334-6.124,5.75-10.227,6.75c-2.049,0.486-4.186,0.563-6.265,0.32
					c-2.08-0.26-4.098-0.831-6.016-1.596c-0.992-0.394-1.851-0.862-2.744-1.194c-0.896-0.344-1.824-0.614-2.769-0.821
					c-1.89-0.428-3.851-0.583-5.815-0.551c-3.931,0.074-7.896,0.818-11.673,2.116c-0.052,0.02-0.11-0.006-0.13-0.058
					C72.93,93.933,72.954,93.878,72.997,93.854z"/>
			</g>
			<g>
				<path fill="#FFFFFF" d="M69.087,184.798c0,0,11.587,13.43,24.491-4.478"/>
				<path fill="#231F20" d="M69.087,184.798c1.89,1.564,4.001,2.787,6.232,3.505c2.231,0.707,4.596,0.824,6.818,0.229
					c2.235-0.556,4.296-1.762,6.176-3.213c1.882-1.467,3.582-3.203,5.265-4.998c-1.178,2.161-2.67,4.172-4.504,5.888
					c-1.821,1.715-4.046,3.12-6.565,3.775c-2.514,0.649-5.249,0.426-7.592-0.586C72.57,188.403,70.533,186.798,69.087,184.798z"/>
			</g>
			<path fill="#D6EFFB" d="M37.54,73.462c0,0-0.755,2.167,3.394,5.542c4.148,3.375,14.33,3.615,17.347-1.446
				c3.018-5.062,15.086-16.147,15.086-16.147l4.147-9.16l-33.187,7.473l-7.543,4.339L37.54,73.462z"/>
			<path fill="none" d="M39.795,32.473c0.237-0.315-0.334,0.01-2.02,1.275C39.109,32.748,39.723,32.382,39.795,32.473z"/>
			<ellipse fill="#231F20" cx="41.7" cy="26.794" rx="3.368" ry="4.101"/>
			<ellipse fill="#231F20" cx="55.921" cy="26.268" rx="3.368" ry="4.1"/>
			<g>
				<path fill="#F9A620" d="M27.656,66.646c0,0-2.786,8.409,5.618,9.13c24.578,2.106,22.122-4.915,27.037-8.778
					c4.915-3.862,15.661-9.083,17.555-13.343c2.809-6.319-0.702-6.847-0.702-6.847l-4.039-0.526L27.656,66.646z"/>
				<path d="M27.714,66.693c-0.382,1.532-0.483,3.168-0.105,4.675c0.365,1.528,1.438,2.791,2.851,3.383
					c1.403,0.651,2.999,0.667,4.611,0.742c1.601,0.068,3.204,0.104,4.802,0.129c3.193,0.035,6.397-0.139,9.471-0.76
					c1.529-0.326,3.024-0.793,4.356-1.551c1.345-0.746,2.431-1.862,3.392-3.135c0.953-1.264,1.973-2.631,3.329-3.578
					c1.312-0.963,2.667-1.833,4.027-2.699c2.711-1.737,5.465-3.411,8.048-5.309c2.519-1.935,5.209-3.953,5.637-7.189
					c0.175-0.744,0.268-1.504,0.195-2.191c-0.066-0.69-0.353-1.27-0.835-1.557c-0.118-0.072-0.251-0.131-0.374-0.163
					c-0.018-0.013-0.319-0.042-0.491-0.065l-1.198-0.147l-2.396-0.296l0.38-0.057c-7.565,3.424-15.16,6.781-22.786,10.067
					C43.026,60.309,35.386,63.537,27.714,66.693z M27.628,66.584c7.474-3.627,14.98-7.182,22.525-10.649
					c7.53-3.502,15.092-6.933,22.683-10.297l0.007-0.004c0.121-0.053,0.251-0.068,0.373-0.053l2.392,0.328l1.196,0.164
					c0.225,0.043,0.331,0.02,0.7,0.123c0.263,0.083,0.496,0.201,0.715,0.349c0.902,0.597,1.292,1.667,1.329,2.564
					c0.051,0.922-0.151,1.771-0.396,2.576c-0.251,0.808-0.608,1.551-0.984,2.297c-0.406,0.778-0.96,1.416-1.541,2.003
					c-1.171,1.166-2.482,2.131-3.812,3.052c-2.662,1.84-5.434,3.482-8.145,5.21c-1.349,0.872-2.695,1.756-3.947,2.743
					c-1.285,0.941-2.118,2.286-3.028,3.627c-0.894,1.347-2.025,2.662-3.462,3.567c-1.418,0.93-3.03,1.475-4.636,1.843
					c-3.234,0.717-6.515,0.716-9.747,0.64c-1.621-0.039-3.233-0.173-4.842-0.333c-1.574-0.178-3.29-0.227-4.825-0.996
					c-1.549-0.719-2.682-2.238-2.978-3.875c-0.328-1.634-0.119-3.3,0.385-4.838C27.598,66.606,27.613,66.592,27.628,66.584z"/>
			</g>
			<g>
				<path fill="#FDCE07" d="M77.69,47.511c-3.303-2.102-7.15-1.164-10.161-1.227c-3.577-0.075-6.025-3.005-9.904-6.033
					c-3.734-2.387-8.195-5.384-12.385-4.246c-4.123,0.946-6.98,4.161-12.317,8.872c-8.962,6.989-26.17,7.234-27.036,8.777
					c-2.792,4.967,1.317,10.952,10.533,14.747c8.954,3.687,16.395,5.225,23.701,4.74c8.617-0.572,14.22-2.106,16.854-4.74
					c2.442-2.441,5.729-5.645,11.06-8.427"/>
				<g>
					<path fill="#1D1E1C" d="M77.653,47.576c-0.436-0.179-0.871-0.35-1.292-0.474c-0.435-0.122-0.878-0.197-1.314-0.282
						c-0.442-0.064-0.885-0.107-1.331-0.124c-0.447-0.016-0.895,0.01-1.343,0.008c-0.899,0.014-1.807,0.095-2.734,0.172
						c-0.462,0.044-0.933,0.075-1.41,0.066l-0.753-0.017l-0.699-0.058c-1.071-0.141-1.99-0.501-2.862-0.974
						c-0.862-0.475-1.642-1.038-2.373-1.635c-1.461-1.196-2.806-2.451-4.236-3.601l0.04,0.028c-2.327-1.537-4.625-3.13-7.204-4.035
						c-1.279-0.458-2.64-0.675-3.974-0.528c-1.327,0.207-2.661,0.648-3.845,1.316c-2.393,1.355-4.458,3.277-6.513,5.159
						c-1.045,0.938-2.025,1.905-3.148,2.801c-1.139,0.855-2.361,1.562-3.612,2.22c-2.51,1.3-5.181,2.245-7.881,3.038
						c-2.703,0.791-5.455,1.395-8.208,1.913l-4.106,0.791c-0.67,0.145-1.354,0.285-1.947,0.485c-0.145,0.049-0.281,0.105-0.38,0.157
						c-0.046,0.024-0.085,0.053-0.08,0.052c-0.005,0.002,0.011-0.009,0.036-0.046c-0.009,0.018,0.027-0.054,0.016-0.03L6.484,54.01
						l-0.03,0.058c-0.175,0.329-0.288,0.59-0.39,0.874c-0.426,1.178-0.428,2.465-0.051,3.673c0.371,1.212,1.084,2.334,1.946,3.332
						c1.756,1.993,4.074,3.508,6.507,4.718c1.225,0.612,2.481,1.106,3.796,1.618c1.285,0.501,2.579,0.986,3.893,1.422
						c2.619,0.885,5.288,1.607,7.995,2.096c2.708,0.474,5.447,0.775,8.197,0.747c1.362-0.013,2.761-0.096,4.142-0.211
						c1.378-0.106,2.758-0.262,4.125-0.46c2.725-0.396,5.475-0.947,7.913-2.171c0.615-0.295,1.174-0.674,1.72-1.069
						c0.514-0.413,1.017-0.926,1.521-1.403c1.025-0.96,2.066-1.903,3.167-2.777c2.183-1.77,4.561-3.289,7.062-4.547
						c0.037-0.019,0.082-0.004,0.101,0.033c0.019,0.036,0.004,0.08-0.031,0.1c-2.453,1.331-4.764,2.912-6.87,4.73
						c-1.062,0.898-2.064,1.866-3.048,2.847c-0.495,0.5-0.961,0.995-1.5,1.502c-0.553,0.466-1.142,0.895-1.775,1.233
						c-2.521,1.401-5.317,2.079-8.084,2.607c-1.391,0.259-2.787,0.439-4.191,0.591c-1.401,0.153-2.792,0.273-4.224,0.33
						c-2.84,0.1-5.696-0.088-8.491-0.59c-2.798-0.487-5.543-1.214-8.225-2.101c-2.692-0.896-5.312-1.866-7.887-3.144
						c-2.543-1.296-4.995-2.908-6.93-5.139c-0.95-1.121-1.768-2.41-2.207-3.881c-0.447-1.461-0.434-3.11,0.11-4.562
						c0.136-0.371,0.314-0.749,0.47-1.034l0.03-0.059l0.016-0.028c-0.003,0.002,0.048-0.084,0.052-0.086
						c0.073-0.11,0.146-0.186,0.21-0.239c0.135-0.117,0.248-0.179,0.355-0.236c0.212-0.107,0.403-0.178,0.589-0.238
						C7.209,52.313,7.9,52.182,8.6,52.054l4.148-0.682c5.479-0.915,11.004-1.928,16.035-4.292c1.253-0.584,2.452-1.293,3.565-2.095
						c1.073-0.832,2.1-1.82,3.143-2.737c2.101-1.835,4.094-3.844,6.57-5.275c1.244-0.719,2.597-1.195,4.025-1.438
						c1.443-0.203,2.92-0.021,4.284,0.414c2.751,0.859,5.159,2.414,7.534,3.866l0.025,0.017l0.015,0.012
						c1.496,1.127,2.903,2.359,4.345,3.467c0.726,0.546,1.452,1.072,2.221,1.481c0.382,0.208,0.776,0.379,1.176,0.517
						c0.404,0.141,0.813,0.226,1.194,0.284l0.687,0.05l0.636-0.02c0.449-0.03,0.903-0.043,1.366-0.05
						c0.923-0.022,1.867-0.053,2.821-0.012c0.954,0.048,1.915,0.222,2.838,0.504c0.463,0.143,0.902,0.351,1.327,0.574l0.619,0.375
						l0.554,0.432c0.033,0.025,0.039,0.073,0.014,0.106C77.721,47.579,77.684,47.588,77.653,47.576z"/>
				</g>
			</g>
			<path fill="#1D1E1C" d="M62.768,62.959c-1.229,1.036-7.64,6.924-7.198,6.496c1.665-1.61,10.3-7.845,13.869-9.48
				c4.213-1.931,5.442-4.564,6.496-9.48c0,0,0.176-2.983-1.403-1.993c-0.451,0.283-1.298,1.523-2.547,5.417
				C70.492,58.57,67.771,58.745,62.768,62.959z"/>
			<g>
				<path fill="#231F20" d="M53.55,44.965c-0.371-0.318-0.642-0.693-0.86-1.104c-0.118-0.205-0.197-0.425-0.273-0.674
					c-0.035-0.131-0.059-0.258-0.053-0.453c0.013-0.104,0.008-0.225,0.143-0.421c0.062-0.093,0.179-0.176,0.306-0.223
					c0.094-0.028,0.239-0.039,0.292-0.025c0.292,0.056,0.391,0.153,0.511,0.23c0.113,0.081,0.213,0.166,0.292,0.243
					c0.151,0.163,0.315,0.312,0.456,0.488c0.292,0.34,0.562,0.706,0.768,1.148c-0.473-0.123-0.881-0.322-1.268-0.549
					c-0.199-0.105-0.375-0.24-0.562-0.36c-0.093-0.062-0.161-0.121-0.232-0.161c-0.061-0.046-0.156-0.067-0.083-0.048
					c0-0.004,0.089,0.006,0.128-0.02c0.079-0.02,0.143-0.081,0.177-0.124c0.065-0.107,0.045-0.114,0.046-0.109
					c-0.01,0.026,0.002,0.119,0.007,0.205c0.007,0.185,0.058,0.389,0.082,0.602C53.493,44.035,53.558,44.479,53.55,44.965z"/>
			</g>
			<g>
				<path fill="#F37820" d="M34.854,221.665c-2.035,1.924-12.848,7.133-19.136,6.847c-3.862-0.176-3.622-3.031-2.634-4.39
					c1.825-2.508,6.04-5.031,9.407-6.683c-3.182,1.272-7.308,2.891-9.934,3.875c-5.618,2.106-11.236-0.353-11.236-0.353
					s3.513,2.283,6.321,2.283c1.229,0,2.633,1.58,2.633,1.58s1.734,4.59,4.213,4.74c5.793,0.351,11.332-1.812,12.289-1.756
					c2.984,0.175,3.425,1.791,4.389,2.633c1.895,1.656,9.509,3.994,13.87-4.74c0.702-1.404-3.296,3.439-6.639,4.499
					c-3.851,1.222-7.575,0.551-5.545-3.745c0.715-1.513,1.704-3.226,2.879-4.791C38.66,217.765,39.213,217.543,34.854,221.665z"/>
			</g>
			<g>
				<path fill="#F37820" d="M91.384,230.092c2.035,1.924,12.848,7.133,19.136,6.847c3.862-0.176,2.744-3.119,1.755-4.477
					c-1.825-2.508-5.161-4.943-8.528-6.596c3.182,1.272,7.308,2.891,9.934,3.875c5.618,2.106,9.128,0.087,9.128,0.087
					s-1.142,2.37-3.95,2.37c-1.229,0-3.16,0.264-3.16,0.264s-1.58,5.53-5.267,5.793c-5.789,0.414-6.241-1.109-7.197-1.053
					c-2.984,0.175-5.269,2.844-6.233,3.687c-1.895,1.656-9.333,1.976-13.693-6.759c-0.702-1.405,2.977,4.383,6.32,5.442
					c3.852,1.222,7.823,0.347,5.793-3.95c-0.715-1.512-3.739-3.965-4.915-5.53C87.578,226.191,87.024,225.97,91.384,230.092z"/>
			</g>
			<g>
				<path fill="#F37820" d="M43.017,203.495c0.377,0.522,0.841,0.763,1.329,0.906c0.488,0.147,1.021,0.19,1.576,0.215
					c0.562,0.03,1.129,0.008,1.66-0.107c0.52-0.123,1.062-0.336,1.354-0.889c0.034,0.658-0.55,1.225-1.126,1.505
					c-0.599,0.297-1.243,0.403-1.877,0.457c-0.639,0.034-1.329-0.055-1.94-0.401C43.396,204.846,42.896,204.163,43.017,203.495z"/>
			</g>
			<g>
				<path fill="#F37820" d="M79.621,211.132c0.377,0.522,0.841,0.763,1.329,0.906c0.488,0.147,1.021,0.19,1.576,0.215
					c0.562,0.03,1.128,0.008,1.66-0.107c0.52-0.123,1.063-0.336,1.354-0.889c0.034,0.658-0.55,1.225-1.126,1.505
					c-0.599,0.297-1.243,0.403-1.877,0.457c-0.638,0.034-1.329-0.055-1.94-0.401C80,212.482,79.5,211.8,79.621,211.132z"/>
			</g>
			<path fill="#D6EFFB" d="M111.749,131.076c0,0-19.899,7.25-12.114,8.954c16.854,3.687,27.387-16.327,23.701-23.174
				C119.649,110.009,111.749,131.076,111.749,131.076z"/>
			<g>
				<path fill="#FFFFFF" d="M97.528,139.327c0.79,0,11.938-1.053,18.609-8.427c12.12-13.396,7.022-28.791,7.022-28.791
					s-0.35-4.915-3.862,0.702"/>
				<path fill="#1D1E1C" d="M97.528,139.327c4.291-0.428,8.498-1.723,12.282-3.753c1.886-1.027,3.65-2.282,5.182-3.775
					c1.508-1.506,2.85-3.213,4.015-5.003c2.333-3.594,3.875-7.682,4.489-11.906c0.605-4.206,0.399-8.604-0.778-12.634
					c-0.01-0.035-0.018-0.078-0.022-0.113c-0.046-0.456-0.167-0.984-0.375-1.312c-0.108-0.168-0.207-0.229-0.282-0.231
					c-0.083-0.014-0.258,0.043-0.433,0.163c-0.356,0.242-0.7,0.63-1.009,1.029c-0.311,0.405-0.6,0.84-0.875,1.284
					c-0.145,0.235-0.453,0.31-0.688,0.164c-0.235-0.145-0.309-0.452-0.165-0.688c0.001-0.001,0.004-0.006,0.004-0.006
					c0.293-0.462,0.603-0.918,0.949-1.359c0.353-0.438,0.72-0.872,1.254-1.231c0.267-0.168,0.611-0.352,1.069-0.307
					c0.471,0.051,0.807,0.394,0.975,0.676c0.346,0.596,0.438,1.149,0.502,1.751l-0.022-0.112c1.173,4.284,1.285,8.719,0.602,13.036
					c-0.699,4.312-2.348,8.46-4.778,12.07c-1.222,1.805-2.585,3.496-4.164,5.009c-1.591,1.49-3.405,2.724-5.329,3.724
					C106.072,137.773,101.83,138.984,97.528,139.327z"/>
			</g>
			<path fill="#D6EFFB" d="M101.215,117.909c0,0-12.526,6.724-4.74,8.427c16.854,3.687,29.494-17.38,25.808-24.227
				C118.595,95.263,101.215,117.909,101.215,117.909z"/>
			<g>
				<path fill="#FFFFFF" d="M92.964,125.634c0.79,0,12.132-2.951,19.311-9.831C129.129,99.651,120,87.011,120,87.011
					s-1.755,2.458-5.267,5.969"/>
				<path fill="#1D1E1C" d="M92.964,125.634c2.195-0.527,4.299-1.374,6.367-2.254c2.07-0.88,4.085-1.886,6.008-3.033
					c1.93-1.132,3.789-2.389,5.467-3.85c1.661-1.455,3.206-3.127,4.652-4.811c2.87-3.402,5.197-7.347,6.168-11.689
					c1.015-4.295,0.515-9.044-1.746-12.9l0.238-0.001c-1.635,2.116-3.47,4.043-5.386,5.884c1.826-1.925,3.596-3.919,5.147-6.054
					l0.003-0.005c0.046-0.064,0.136-0.078,0.2-0.031c0.014,0.01,0.025,0.022,0.035,0.035c2.587,3.832,3.193,8.745,2.308,13.243
					c-0.928,4.539-3.319,8.629-6.213,12.146c-1.466,1.771-3.045,3.387-4.798,4.896c-1.759,1.478-3.673,2.75-5.669,3.854
					C101.719,123.185,97.441,124.9,92.964,125.634z"/>
			</g>
		</g>
	</g>
</g>
</svg>
