<?xml version="1.0" encoding="utf-8"?>
<!-- Generator: Adobe Illustrator 16.0.4, SVG Export Plug-In . SVG Version: 6.00 Build 0)  -->
<!DOCTYPE svg PUBLIC "-//W3C//DTD SVG 1.1//EN" "http://www.w3.org/Graphics/SVG/1.1/DTD/svg11.dtd">
<svg version="1.1" id="Layer_1" xmlns="http://www.w3.org/2000/svg" xmlns:xlink="http://www.w3.org/1999/xlink" x="0px" y="0px"
	 width="189.553px" height="151.943px" viewBox="0 0 189.553 151.943" enable-background="new 0 0 189.553 151.943"
	 xml:space="preserve">
<path id="colour_x5F_4" fill="#F27606" stroke="#000000" stroke-width="2" stroke-miterlimit="10" d="M42.324,81.396
	c0.691-22.438,2.076-20.252,5.047-27.373c-2.771-2.879-6.015-5.499-9.364-7.818c-3.382-2.327-6.965-4.364-10.705-6.043
	c-3.738-1.679-7.65-2.99-11.632-3.883c-2.012-0.442-4.012-0.793-6.015-0.896c-1.984-0.093-4.011,0.032-5.685,0.776
	c-1.688,0.716-2.739,2.221-2.921,4.073c-0.203,1.829,0.233,3.864,0.952,5.63c1.665,3.841,3.227,7.728,4.647,11.666
	c2.842,7.877,5.152,15.96,6.688,24.201c1.538,8.232,2.314,16.642,1.954,25.028c-0.199,4.191-0.68,8.374-1.535,12.487
	c-0.429,2.055-0.945,4.094-1.587,6.096c-0.319,1.003-0.671,1.995-1.057,2.976c-0.403,0.983-0.777,1.892-0.843,2.863
	c-0.09,0.946,0.221,1.888,1.005,2.335c0.193,0.109,0.386,0.2,0.602,0.229l0.763,0.137c0.508,0.103,1.02,0.16,1.53,0.24
	c2.046,0.277,4.114,0.396,6.179,0.327c4.125-0.131,8.235-1.105,11.938-2.96c3.711-1.843,6.979-4.535,9.649-7.715
	c2.573-3.09,4.681-6.594,6.116-10.365C44.972,105.033,41.956,93.375,42.324,81.396z"/>
<path fill="#FFFFFF" fill-opacity="0.3" stroke="#000000" stroke-width="2" stroke-linecap="round" stroke-linejoin="round" stroke-miterlimit="10" d="
	M42.324,81.396c0.691-22.438,2.076-20.252,5.047-27.373c-2.771-2.879-6.015-5.499-9.364-7.818
	c-3.382-2.327-6.965-4.364-10.705-6.043c-3.738-1.679-7.65-2.99-11.632-3.883c-2.012-0.442-4.012-0.793-6.015-0.896
	c-1.984-0.093-4.011,0.032-5.685,0.776c-1.688,0.716-2.739,2.221-2.921,4.073c-0.203,1.829,0.233,3.864,0.952,5.63
	c1.665,3.841,3.227,7.728,4.647,11.666c2.842,7.877,5.152,15.96,6.688,24.201c1.538,8.232,2.314,16.642,1.954,25.028
	c-0.199,4.191-0.68,8.374-1.535,12.487c-0.429,2.055-0.945,4.094-1.587,6.096c-0.319,1.003-0.671,1.995-1.057,2.976
	c-0.403,0.983-0.777,1.892-0.843,2.863c-0.09,0.946,0.221,1.888,1.005,2.335c0.193,0.109,0.386,0.2,0.602,0.229l0.763,0.137
	c0.508,0.103,1.02,0.16,1.53,0.24c2.046,0.277,4.114,0.396,6.179,0.327c4.125-0.131,8.235-1.105,11.938-2.96
	c3.711-1.843,6.979-4.535,9.649-7.715c2.573-3.09,4.681-6.594,6.116-10.365C44.972,105.033,41.956,93.375,42.324,81.396z"/>
<path id="colour_x5F_3" fill="#F27606" stroke="#000000" stroke-width="2" stroke-miterlimit="10" d="M75.469,130.41
	c-0.566-0.289,0.556,10.927,0,10.62c0.081,0.923,0.192,1.844,0.376,2.753c0.275,1.418,0.689,2.845,1.238,4.139
	c0.565,1.254,1.808,2.059,3.131,2.495c2.722,0.836,5.705,0.54,8.54,0.064c2.699-0.478,5.354-1.209,7.972-2.055
	c2.812-5.312,10.104-17.106,7.143-18.021C100.237,129.282,78.85,132.15,75.469,130.41z"/>
<path fill="#FFFFFF" fill-opacity="0.2" stroke="#000000" stroke-width="2" stroke-linecap="round" stroke-linejoin="round" stroke-miterlimit="10" d="
	M75.469,130.41c-0.566-0.289,0.556,10.927,0,10.62c0.081,0.923,0.192,1.844,0.376,2.753c0.275,1.418,0.689,2.845,1.238,4.139
	c0.565,1.254,1.808,2.059,3.131,2.495c2.722,0.836,5.705,0.54,8.54,0.064c2.699-0.478,5.354-1.209,7.972-2.055
	c2.812-5.312,10.104-17.106,7.143-18.021C100.237,129.282,78.85,132.15,75.469,130.41z"/>
<path id="colour_x5F_2" fill="#F27606" stroke="#000000" stroke-width="2" stroke-miterlimit="10" d="M105.825,6.605
	c-2.965-1.521-6.002-2.914-9.146-3.997c-3.123-1.046-6.441-1.927-9.688-1.496C85.41,1.355,83.83,2.019,82.944,3.34
	c-0.868,1.362-1.603,2.896-2.185,4.444c-1.188,3.107-1.812,6.421-1.955,9.709c-0.086,2.401,0.154,4.812,0.781,7.069
	c0.41,1.612,1.036,9.084,2.281,8.553c2.26-0.976,31.627-9.962,32-9.864c31.256,8.339,16.535-1.478,11.6-5.062
	C124.701,17.667,111.771,9.623,105.825,6.605z"/>
<path fill="#FFFFFF" fill-opacity="0.2" stroke="#000000" stroke-width="2" stroke-linecap="round" stroke-linejoin="round" stroke-miterlimit="10" d="
	M105.825,6.605c-2.965-1.521-6.002-2.914-9.146-3.997c-3.123-1.046-6.441-1.927-9.688-1.496C85.41,1.355,83.83,2.019,82.944,3.34
	c-0.868,1.362-1.603,2.896-2.185,4.444c-1.188,3.107-1.812,6.421-1.955,9.709c-0.086,2.401,0.154,4.812,0.781,7.069
	c0.41,1.612,1.036,9.084,2.281,8.553c2.26-0.976,31.627-9.962,32-9.864c31.256,8.339,16.535-1.478,11.6-5.062
	C124.701,17.667,111.771,9.623,105.825,6.605z"/>
<path id="colour_x5F_1" fill="#F27606" stroke="#000000" stroke-width="2" stroke-miterlimit="10" d="M188.046,86.58l-0.05-0.116
	l-0.026-0.11c-1.812-7.401-4.669-14.692-8.115-21.577c-3.479-6.891-7.688-13.426-12.695-19.299
	c-5.001-5.87-10.822-11.062-17.358-15.163c-0.871-0.547-1.76-1.062-2.656-1.565c0.047-0.064-11.011-5.521-16.745-6.973
	c-0.418-0.104,0,0-1.805-0.435c-5.882-1.337-11.926-2.008-17.955-1.926c-1.42,0.021-2.84,0.064-4.254,0.171
	c-4.104,0.303-8.18,0.984-12.166,2.015c-3.424,0.881-6.784,2.009-10.038,3.396c-4.387,1.862-8.586,4.165-12.554,6.817
	c-0.131,0.088-4.86,3.457-6.973,5.208c-2.955,2.454-5.751,5.104-8.363,7.924c-2.594,2.812-8.92,9.078-8.92,9.078
	c-2.012,4.905-4.355,4.937-5.047,27.373c-0.368,11.979,2.647,23.638,5.728,32.017c0.048-0.122,8.074,10.926,12.889,15.834
	c1.447,1.481,2.972,2.886,4.554,4.224l0.098,0.082c3.633,3.055,7.599,5.7,11.856,7.78c3.104,1.534,6.338,2.782,9.646,3.79
	c3.236,0.985,6.546,1.743,9.881,2.309c2.211,0.378,4.437,0.666,6.67,0.895c1.174,0.12,2.35,0.229,3.524,0.312
	c3.418,0.202,6.854,0.463,10.224,0.215c1.742-0.123,5.164-0.719,5.151-0.736c0.063-0.015,5.343-1.233,7.843-2.086
	c2.213-0.784,4.383-1.7,6.49-2.728c1.031-0.505,2.049-1.037,3.055-1.589c0.092-0.051,9.42-6.137,13.678-9.539
	c5.373-4.3,10.379-9.056,15.062-14.092c4.667-5.04,9.098-10.366,13.02-15.938l0.152-0.216c0,0-2.979-2.113-4.229-3.28
	c-0.67-0.628-1.274-1.308-1.822-2.021c-0.551-0.729-1.031-1.438-1.484-2.294l-0.994-1.867l2.135,0.345
	c1.636,0.264,3.281,0.462,4.91,0.517c1.623,0.052,3.252-0.023,4.72-0.416c1.465-0.388,2.701-1.153,3.175-2.321
	C188.772,89.457,188.569,87.832,188.046,86.58z"/>
<path fill="#FFFFFF" fill-opacity="0.2" stroke="#000000" stroke-width="2" stroke-linecap="round" stroke-linejoin="round" stroke-miterlimit="10" d="
	M111.454,81.271c0,0-1.954-0.822-4.643-1.745c-4.627-1.587-11.437-3.47-14.243-1.97c-2.2,1.177-4.095,6.388-4.729,11.595
	c-0.35,2.87-0.312,5.73,0.264,7.924c0.486,1.85,1.354,3.222,2.712,3.697c3.828,1.344,11.371,0.021,16.167-1.066
	c2.574-0.583,4.363-1.1,4.363-1.1L111.454,81.271z"/>
<path opacity="0.2" fill="#FFFFFF" d="M187.047,86.699l-0.084-0.271c-1.812-7.401-4.574-14.343-8.021-21.228
	c-3.479-6.891-7.347-12.959-12.354-18.833c-5.001-5.87-10.609-11.003-17.146-15.104c-0.979-0.615-3.522-2.059-3.645-2.127
	c-11.576,15.992-22.44,34.7-22.44,58.348c0,15.388,4.39,29.489,10.184,42.037c1.906,4.21,3.521,7.667,5.649,11.47
	c4.708-3.146,9-5.875,13.563-9.418c5.436-4.22,10.357-9.006,15.041-14.042c4.667-5.04,8.558-9.531,12.479-15.103l0.209-0.25
	c0,0-2.312-1.687-3.562-2.854c-0.67-0.628-1.265-1.224-1.812-1.938c-0.551-0.729-1.297-1.874-1.75-2.729l-1.834-3.479l2.812,0.417
	c1.636,0.264,2.83,0.591,4.459,0.646c1.623,0.052,3.532,0.33,5-0.062c1.465-0.388,3.005-0.665,3.479-1.833
	C187.791,89.21,187.57,87.951,187.047,86.699z"/>
<circle fill="#FFFFFF" stroke="#000000" stroke-miterlimit="10" cx="160.716" cy="67.899" r="13.622"/>
<path fill="#000100" d="M164.451,74.164c3.088,0.533,6.044-1.615,6.592-4.793c0.55-3.176-1.511-6.188-4.606-6.723
	c-3.093-0.531-6.045,1.607-6.593,4.785C159.295,70.615,161.354,73.626,164.451,74.164z M162.96,65.397
	c0.207-1.188,1.338-1.988,2.531-1.782c1.188,0.209,1.986,1.337,1.781,2.529c-0.203,1.188-1.34,1.982-2.529,1.777
	C163.56,67.719,162.753,66.587,162.96,65.397z"/>
</svg>
