<?xml version="1.0" encoding="utf-8"?>
<!-- Generator: Adobe Illustrator 16.0.4, SVG Export Plug-In . SVG Version: 6.00 Build 0)  -->
<!DOCTYPE svg PUBLIC "-//W3C//DTD SVG 1.1//EN" "http://www.w3.org/Graphics/SVG/1.1/DTD/svg11.dtd">
<svg version="1.1" id="Layer_1" xmlns="http://www.w3.org/2000/svg" xmlns:xlink="http://www.w3.org/1999/xlink" x="0px" y="0px"
	 width="191.594px" height="151.878px" viewBox="0 0 191.594 151.878" enable-background="new 0 0 191.594 151.878"
	 xml:space="preserve">
<g>
	<g>
		<path fill="#D0ECF4" d="M108.222,88.65c0,3.704,0.175,7.348,0.481,10.936c-0.297-3.748-0.452-7.568-0.472-11.444
			C108.23,88.312,108.222,88.479,108.222,88.65z"/>
		<path fill="#F190AC" d="M140.794,141.598c4.976-2.716,9.661-5.969,14.079-9.538c5.313-4.3,10.259-9.056,14.89-14.092
			c4.612-5.04,8.991-10.366,12.867-15.939l0.151-0.216l0.222-0.118c0.158-0.083,0.283-0.18,0.335-0.24l0.027-0.007l-0.06-0.118
			l-0.174-0.198c-1.764-0.448-3.293-1.432-4.529-2.599c-0.662-0.628-1.26-1.306-1.801-2.022c-0.544-0.728-1.02-1.44-1.469-2.294
			l-0.982-1.867l2.109,0.343c1.618,0.263,3.244,0.462,4.855,0.516c1.604,0.052,3.213-0.025,4.664-0.416
			c1.448-0.387,2.67-1.153,3.139-2.321c0.508-1.136,0.308-2.761-0.209-4.013l-0.049-0.116l-0.027-0.112
			c-1.793-7.402-4.615-14.693-8.022-21.577c-3.438-6.889-7.601-13.426-12.55-19.299c-4.943-5.87-10.697-11.06-17.158-15.163
			c-1.111-0.706-2.25-1.368-3.399-2.008c-11.212,16.041-22.265,35.414-22.265,59.188
			C125.438,107.671,132.67,126.396,140.794,141.598z M146.053,62.79c0.626-1.914,1.729-3.677,3.073-5.177
			c2.742-3.007,6.793-4.713,10.803-4.732c2.007-0.025,4.014,0.353,5.844,1.134c1.827,0.764,3.478,1.969,4.793,3.346
			c2.728,2.841,4.211,6.566,4.424,10.37c0.102,1.9-0.091,3.843-0.656,5.709c-0.563,1.852-1.548,3.66-2.797,5.137
			c-2.623,3.073-6.681,4.806-10.622,4.564c-3.949-0.18-7.537-1.99-10.255-4.508c-2.717-2.536-4.739-6.007-5.204-9.942
			C145.221,66.74,145.396,64.694,146.053,62.79z"/>
		<path fill="#F190AC" d="M43.184,81.277c0.691-22.438,2.076-20.252,5.047-27.373c-2.771-2.879-6.015-5.499-9.364-7.819
			c-3.382-2.327-6.965-4.364-10.705-6.043c-3.738-1.678-7.65-2.99-11.632-3.882c-2.012-0.443-4.012-0.793-6.015-0.894
			c-1.984-0.093-4.011,0.032-5.685,0.776c-1.688,0.716-2.739,2.221-2.921,4.074c-0.203,1.829,0.233,3.864,0.952,5.629
			c1.665,3.841,3.227,7.728,4.647,11.666c2.842,7.877,5.152,15.96,6.688,24.202c1.538,8.234,2.314,16.641,1.954,25.03
			c-0.199,4.191-0.68,8.374-1.535,12.487c-0.429,2.055-0.945,4.094-1.587,6.096c-0.319,1.002-0.671,1.995-1.057,2.974
			c-0.403,0.985-0.777,1.891-0.843,2.863c-0.09,0.948,0.221,1.888,1.005,2.335c0.193,0.111,0.386,0.202,0.602,0.229l0.763,0.137
			c0.508,0.101,1.02,0.16,1.53,0.24c2.046,0.278,4.114,0.396,6.179,0.327c4.125-0.13,8.235-1.105,11.938-2.96
			c3.711-1.842,6.979-4.535,9.649-7.714c2.573-3.09,4.681-6.594,6.116-10.366C45.831,104.914,42.815,93.256,43.184,81.277z
			 M43.073,95.788c0.288,0.253-11.836,9.056-17.031,8.073C20.844,102.879,42.098,94.941,43.073,95.788z M41.515,85.97
			c-0.338,1.23-21.291,1.155-17.613-1.715C27.578,81.383,41.616,85.602,41.515,85.97z M13.363,45.372
			c6.919-1.926,26.794,16.65,26.442,17.168C38.616,64.279,6.444,47.297,13.363,45.372z M19.106,66.864
			c5.521-2.283,21.838,6.691,21.562,7.08C39.746,75.243,13.582,69.149,19.106,66.864z M44.642,106.129
			c0.405,0.397-14.145,19.575-20.934,18.957C16.915,124.469,43.272,104.789,44.642,106.129z"/>
		<path fill="#D0ECF4" d="M118.446,39.591c-3.996,8.772-6.953,18.549-8.63,28.997c1.748-10.397,4.849-20.26,8.829-28.994
			C118.58,39.593,118.514,39.592,118.446,39.591z"/>
		<path fill="#F190AC" d="M88.557,146.088c-3.629-1.123-7.175-2.518-10.556-4.258c-0.566-0.289-1.117-0.611-1.673-0.919
			c0.081,0.923,0.192,1.844,0.376,2.753c0.275,1.418,0.689,2.845,1.238,4.139c0.565,1.254,1.808,2.057,3.131,2.495
			c2.722,0.836,5.705,0.54,8.54,0.065c2.699-0.476,5.354-1.209,7.971-2.053C94.541,147.741,91.521,147.004,88.557,146.088z"/>
		<path fill="#D0ECF4" d="M119.714,37.338c2.914-6.021,6.244-11.462,9.836-16.095l-0.096-0.021
			c-3.742,4.809-7.074,10.217-9.936,16.104C119.583,37.33,119.647,37.333,119.714,37.338z"/>
		<path fill="#F190AC" d="M124.026,16.523c-5.648-3.609-11.396-7.02-17.342-10.037c-2.965-1.521-6.002-2.914-9.146-3.997
			c-3.123-1.046-6.441-1.927-9.688-1.496c-1.581,0.243-3.161,0.907-4.047,2.228c-0.868,1.362-1.603,2.895-2.185,4.444
			c-1.188,3.108-1.812,6.421-1.955,9.709c-0.086,2.402,0.154,4.812,0.781,7.07c1.213-0.599,2.436-1.178,3.681-1.71
			c2.26-0.975,4.579-1.818,6.931-2.557c1.889-0.594,3.802-1.099,5.733-1.535c-0.986-0.601-1.968-1.208-2.982-1.768
			c-2.84-1.627-5.76-3.123-8.632-4.95c1.702,0.201,3.336,0.662,4.926,1.231c1.596,0.562,3.131,1.283,4.619,2.102
			c1.462,0.845,2.883,1.79,4.149,2.941c1.297-0.255,2.599-0.477,3.906-0.658c-0.493-0.42-0.991-0.828-1.5-1.227
			c-1.291-0.989-2.605-1.947-3.957-2.865c-2.681-1.88-5.451-3.638-8.146-5.719c1.676,0.356,3.262,0.965,4.794,1.678
			c1.538,0.704,2.999,1.563,4.407,2.515c1.387,0.98,2.723,2.057,3.885,3.327c0.609,0.658,1.179,1.375,1.663,2.142
			c1.046-0.128,2.093-0.242,3.143-0.322c2.18-0.167,4.364-0.226,6.549-0.199c4.261,0.051,8.515,0.461,12.712,1.199
			C125.561,17.548,124.794,17.032,124.026,16.523z"/>
		<path d="M119.714,37.338c-0.066-0.005-0.131-0.008-0.195-0.012c-0.363,0.75-0.723,1.501-1.072,2.265
			c0.067,0.001,0.134,0.002,0.199,0.003C118.993,38.83,119.353,38.082,119.714,37.338z"/>
		<path fill="#1D1D1B" d="M98.374,11.923c-1.408-0.951-2.869-1.811-4.407-2.515c-1.532-0.713-3.118-1.321-4.794-1.678
			c2.694,2.081,5.465,3.839,8.146,5.719c1.352,0.918,2.666,1.876,3.957,2.865c0.509,0.398,1.007,0.807,1.5,1.227
			c0.382-0.054,0.764-0.102,1.146-0.149c-0.484-0.767-1.054-1.483-1.663-2.142C101.097,13.979,99.761,12.903,98.374,11.923z"/>
		<path fill="#1D1D1B" d="M90.101,13.156c-1.59-0.569-3.224-1.03-4.926-1.231c2.872,1.827,5.792,3.323,8.632,4.95
			c1.015,0.56,1.996,1.167,2.982,1.768c0.249-0.056,0.494-0.125,0.744-0.179c0.443-0.096,0.891-0.177,1.336-0.265
			c-1.267-1.151-2.688-2.097-4.149-2.941C93.231,14.439,91.696,13.719,90.101,13.156z"/>
		<path fill="#FFFFFF" d="M150.826,78.45c1.354,1.253,2.971,2.207,4.72,2.716c1.743,0.526,3.575,0.621,5.318,0.421
			c3.485-0.451,6.701-2.008,9.133-4.382c1.285-1.231,2.306-2.627,3.046-4.25c0.741-1.604,1.162-3.393,1.144-5.199
			c-0.023-1.803-0.442-3.607-1.234-5.224c-0.768-1.625-1.969-3.04-3.287-4.16c-2.771-2.277-6.256-3.334-9.66-3.163
			c-3.416,0.189-6.639,1.771-8.952,4.21c-2.353,2.429-3.711,5.721-3.969,9.219c-0.1,1.749,0.111,3.569,0.746,5.271
			C148.447,75.619,149.501,77.177,150.826,78.45z M160.703,67.315c0.547-3.176,3.5-5.317,6.593-4.785
			c3.096,0.534,5.156,3.547,4.606,6.722c-0.548,3.178-3.504,5.326-6.592,4.793C162.215,73.508,160.154,70.496,160.703,67.315z"/>
		<path fill="#1D1E1C" d="M150.659,78.633c2.718,2.518,6.306,4.328,10.255,4.508c3.941,0.241,7.999-1.491,10.622-4.564
			c1.249-1.477,2.233-3.285,2.797-5.137c0.565-1.866,0.758-3.809,0.656-5.709c-0.213-3.804-1.696-7.529-4.424-10.37
			c-1.315-1.377-2.966-2.582-4.793-3.346c-1.83-0.781-3.837-1.159-5.844-1.134c-4.01,0.02-8.061,1.726-10.803,4.732
			c-1.344,1.5-2.447,3.263-3.073,5.177c-0.656,1.904-0.832,3.95-0.598,5.9C145.92,72.626,147.942,76.097,150.659,78.633z
			 M147.084,68.638c0.258-3.498,1.616-6.79,3.969-9.219c2.313-2.438,5.536-4.021,8.952-4.21c3.404-0.171,6.889,0.886,9.66,3.163
			c1.318,1.12,2.52,2.535,3.287,4.16c0.792,1.616,1.211,3.421,1.234,5.224c0.019,1.807-0.402,3.595-1.144,5.199
			c-0.74,1.623-1.761,3.019-3.046,4.25c-2.432,2.374-5.647,3.931-9.133,4.382c-1.743,0.2-3.575,0.105-5.318-0.421
			c-1.749-0.509-3.365-1.463-4.72-2.716c-1.325-1.273-2.379-2.831-2.996-4.541C147.195,72.207,146.984,70.387,147.084,68.638z"/>
		<path fill="#000100" d="M165.311,74.045c3.088,0.533,6.044-1.615,6.592-4.793c0.55-3.175-1.511-6.188-4.606-6.722
			c-3.093-0.532-6.046,1.609-6.593,4.785C160.154,70.496,162.215,73.508,165.311,74.045z M163.819,65.278
			c0.207-1.189,1.338-1.989,2.531-1.783c1.188,0.209,1.987,1.337,1.782,2.53c-0.203,1.187-1.341,1.984-2.53,1.779
			C164.418,67.601,163.612,66.469,163.819,65.278z"/>
		<path fill="#FFFFFF" d="M165.603,67.805c1.189,0.205,2.327-0.593,2.53-1.779c0.205-1.193-0.595-2.321-1.782-2.53
			c-1.193-0.206-2.324,0.594-2.531,1.783C163.612,66.469,164.418,67.601,165.603,67.805z"/>
		<path d="M39.806,62.54c0.352-0.518-19.523-19.094-26.442-17.168C6.444,47.297,38.616,64.279,39.806,62.54z"/>
		<path d="M23.708,125.086c6.789,0.618,21.339-18.56,20.934-18.957C43.272,104.789,16.915,124.469,23.708,125.086z"/>
		<path d="M40.669,73.944c0.275-0.389-16.042-9.363-21.562-7.08C13.582,69.149,39.746,75.243,40.669,73.944z"/>
		<path d="M26.042,103.861c5.195,0.982,17.319-7.82,17.031-8.073C42.098,94.941,20.844,102.879,26.042,103.861z"/>
		<path d="M23.901,84.255c-3.678,2.87,17.275,2.945,17.613,1.715C41.616,85.602,27.578,81.383,23.901,84.255z"/>
		<path fill="#941B80" d="M55.975,42.837c-2.4,2.267-4.58,4.729-6.438,7.554c-0.05,0.145-0.095,0.273-0.143,0.413
			c1.893-2.648,3.945-5.104,6.124-7.486C55.668,43.154,55.823,42.999,55.975,42.837z"/>
		<path fill="#E9187E" d="M66.355,133.354c-5.321-13.232-8.367-28.469-8.367-44.703c0-21.395,5.278-41.068,14.11-56.686
			c-2.273,1.538-4.471,3.188-6.584,4.94c-2.955,2.454-5.751,5.104-8.363,7.923c-2.594,2.812-5.083,5.818-7.159,8.945l-0.771,1.16
			l-0.967-1.005l-0.024-0.024c-2.971,7.121-4.355,4.936-5.047,27.373c-0.368,11.979,2.647,23.637,5.728,32.016
			c0.048-0.122,0.107-0.239,0.152-0.361c3.826,5.715,7.922,11.287,12.737,16.195C63.248,130.611,64.773,132.018,66.355,133.354z"/>
		<path fill="#9C298C" d="M66.355,133.354l0.098,0.082c3.633,3.055,7.599,5.702,11.856,7.782c3.104,1.534,6.338,2.782,9.646,3.79
			c-8.724-15.561-13.935-35.104-13.935-56.357c0-26.526,8.107-50.404,21.058-67.17c-3.424,0.881-6.784,2.009-10.038,3.398
			c-4.387,1.863-8.586,4.165-12.554,6.818c-0.131,0.088-0.259,0.18-0.389,0.268c-8.832,15.617-14.11,35.291-14.11,56.686
			C57.988,104.885,61.034,120.121,66.355,133.354z"/>
		<path fill="#E9187E" d="M74.021,88.65c0,21.254,5.211,40.797,13.935,56.357c3.236,0.986,6.546,1.743,9.881,2.307
			c2.211,0.378,4.437,0.666,6.67,0.894c-9.853-16.037-15.812-36.822-15.812-59.558c0-27.7,8.842-52.511,22.804-69.354
			c-1.42,0.02-2.84,0.065-4.254,0.171c-4.106,0.301-8.18,0.985-12.166,2.013C82.129,38.246,74.021,62.124,74.021,88.65z"/>
		<path fill="#9C298C" d="M88.695,88.65c0,22.735,5.959,43.521,15.812,59.558c1.174,0.12,2.35,0.228,3.527,0.31
			c3.418,0.204,6.852,0.463,10.222,0.215c1.742-0.123,3.472-0.356,5.184-0.68c-8.06-12.725-12.839-28.572-14.52-46.069
			c-0.035-0.334-0.066-0.669-0.099-1.004c-0.041-0.464-0.081-0.928-0.118-1.394c-0.307-3.588-0.481-7.231-0.481-10.936
			c0-0.171,0.009-0.338,0.01-0.509c-0.001-0.258-0.01-0.514-0.01-0.772c0-6.363,0.564-12.664,1.595-18.781
			c1.677-10.448,4.634-20.225,8.63-28.997c0.35-0.764,0.709-1.515,1.072-2.265c2.861-5.887,6.193-11.295,9.936-16.104
			c-5.882-1.337-11.926-2.008-17.955-1.926C97.537,36.14,88.695,60.95,88.695,88.65z"/>
		<path fill="#E9187E" d="M118.646,39.594c-3.98,8.734-7.081,18.597-8.829,28.994c-1.03,6.117-1.595,12.418-1.595,18.781
			c0,0.259,0.009,0.515,0.01,0.772c0.02,3.876,0.175,7.696,0.472,11.444c0.037,0.466,0.077,0.93,0.118,1.394
			c0.032,0.335,0.063,0.67,0.099,1.004c1.681,17.497,6.46,33.345,14.52,46.069c0.148-0.028,0.294-0.065,0.442-0.095
			c4.795-0.953,9.454-2.628,13.86-4.773c1.031-0.503,2.046-1.037,3.052-1.587c-8.124-15.202-15.355-33.927-15.355-54.229
			c0-23.773,11.053-43.146,22.265-59.188c-5.531-3.08-11.483-5.39-17.651-6.83c-0.166-0.039-0.335-0.07-0.502-0.108
			c-3.592,4.633-6.922,10.074-9.836,16.095C119.353,38.082,118.993,38.83,118.646,39.594z"/>
		<path fill="none" stroke="#35A8E0" stroke-width="0" stroke-linecap="round" stroke-linejoin="round" d="M108.703,99.586
			c0.037,0.466,0.077,0.93,0.118,1.394"/>
		<path d="M190.956,85.7c-1.85-7.706-4.668-15.007-8.12-22.055c-3.49-7.042-7.722-13.744-12.79-19.795
			c-5.059-6.044-10.977-11.422-17.651-15.688c-1.077-0.689-2.178-1.338-3.291-1.967c-5.583-3.158-11.602-5.548-17.829-7.083
			l-0.074-0.02c-0.193-0.047-0.384-0.104-0.579-0.149c-0.543-0.127-1.094-0.221-1.641-0.336c-1.324-1.145-2.675-2.261-4.049-3.346
			c-5.321-4.223-11.149-7.823-17.361-10.635c-3.118-1.378-6.327-2.568-9.631-3.457c-1.655-0.436-3.337-0.789-5.044-0.988
			c-1.705-0.201-3.447-0.287-5.175,0.02c-1.707,0.275-3.481,1.071-4.532,2.582c-0.967,1.465-1.678,2.997-2.352,4.571
			c-1.281,3.162-2.205,6.491-2.526,9.929c-0.249,2.631-0.196,5.363,0.442,8.008c-5.238,2.749-10.156,6.094-14.686,9.877
			c-2.854,2.386-5.553,4.952-8.093,7.669c-0.151,0.162-0.307,0.317-0.457,0.48c-2.179,2.383-4.231,4.838-6.124,7.486
			c-0.165,0.232-0.327,0.47-0.49,0.705c-2.748-2.696-5.693-5.039-8.819-7.198c-3.492-2.387-7.19-4.476-11.062-6.199
			c-3.873-1.722-7.905-3.072-12.07-3.954c-2.059-0.433-4.184-0.787-6.348-0.877c-2.154-0.069-4.419,0.039-6.578,1.007
			c-1.066,0.484-2.078,1.254-2.779,2.269c-0.715,1.009-1.078,2.203-1.199,3.354c-0.213,2.332,0.299,4.495,1.153,6.567
			c1.687,3.792,3.269,7.631,4.713,11.52c2.886,7.776,5.247,15.757,6.842,23.893c3.177,16.245,3.407,33.264-2.448,49.123
			c-0.031,0.562,0.022,1.156,0.258,1.713c0.229,0.557,0.656,1.042,1.179,1.34c0.257,0.146,0.551,0.271,0.854,0.31l0.777,0.128
			c0.518,0.092,1.041,0.145,1.562,0.218c2.087,0.248,4.195,0.334,6.296,0.229c4.2-0.202,8.372-1.267,12.099-3.211
			c3.734-1.93,6.987-4.708,9.62-7.949c2.537-3.147,4.588-6.693,5.962-10.487c0.045-0.126,0.105-0.245,0.148-0.371
			c-0.045,0.122-0.104,0.239-0.152,0.361c-1.436,3.772-3.543,7.276-6.116,10.366c-2.671,3.179-5.938,5.872-9.649,7.714
			c-3.702,1.854-7.812,2.83-11.938,2.96c-2.064,0.069-4.133-0.049-6.179-0.327c-0.511-0.08-1.022-0.14-1.53-0.24l-0.763-0.137
			c-0.216-0.027-0.408-0.118-0.602-0.229c-0.784-0.447-1.095-1.387-1.005-2.335c0.065-0.973,0.439-1.878,0.843-2.863
			c0.386-0.979,0.737-1.972,1.057-2.974c0.642-2.002,1.158-4.041,1.587-6.096c0.855-4.113,1.336-8.296,1.535-12.487
			c0.36-8.39-0.416-16.796-1.954-25.03c-1.536-8.242-3.847-16.325-6.688-24.202c-1.421-3.938-2.982-7.825-4.647-11.666
			c-0.719-1.765-1.155-3.8-0.952-5.629c0.182-1.854,1.232-3.358,2.921-4.074c1.674-0.744,3.7-0.869,5.685-0.776
			c2.003,0.101,4.003,0.45,6.015,0.894c3.981,0.892,7.894,2.204,11.632,3.882c3.74,1.679,7.323,3.716,10.705,6.043
			c3.35,2.32,6.594,4.94,9.364,7.819l0.024,0.024l0.967,1.005l0.771-1.16c2.076-3.127,4.565-6.133,7.159-8.945
			c2.612-2.818,5.408-5.469,8.363-7.923c2.113-1.753,4.311-3.402,6.584-4.94c0.13-0.088,0.258-0.18,0.389-0.268
			c3.968-2.653,8.167-4.955,12.554-6.818c3.254-1.39,6.614-2.518,10.038-3.398c3.986-1.027,8.06-1.712,12.166-2.013
			c1.414-0.105,2.834-0.151,4.254-0.171c6.029-0.082,12.073,0.589,17.955,1.926l0.096,0.021c0.167,0.038,0.336,0.069,0.502,0.108
			c6.168,1.44,12.12,3.75,17.651,6.83c1.149,0.64,2.288,1.302,3.399,2.008c6.461,4.104,12.215,9.293,17.158,15.163
			c4.949,5.873,9.111,12.41,12.55,19.299c3.407,6.884,6.229,14.175,8.022,21.577l0.027,0.112l0.049,0.116
			c0.517,1.252,0.717,2.877,0.209,4.013c-0.469,1.168-1.69,1.935-3.139,2.321c-1.451,0.391-3.061,0.468-4.664,0.416
			c-1.611-0.054-3.237-0.253-4.855-0.516l-2.109-0.343l0.982,1.867c0.449,0.854,0.925,1.566,1.469,2.294
			c0.541,0.717,1.139,1.395,1.801,2.022c1.236,1.167,2.766,2.15,4.529,2.599l0.174,0.198l0.06,0.118l-0.027,0.007
			c-0.052,0.061-0.177,0.157-0.335,0.24l-0.222,0.118l-0.151,0.216c-3.876,5.573-8.255,10.899-12.867,15.939
			c-4.631,5.036-9.576,9.792-14.89,14.092c-4.418,3.569-9.104,6.822-14.079,9.538c-1.006,0.55-2.021,1.084-3.052,1.587
			c-4.406,2.146-9.065,3.82-13.86,4.773c-0.148,0.029-0.294,0.066-0.442,0.095c-1.712,0.323-3.441,0.557-5.184,0.68
			c-3.37,0.248-6.804-0.011-10.222-0.215c-1.178-0.082-2.354-0.189-3.527-0.31c-2.233-0.228-4.459-0.516-6.67-0.894
			c-3.335-0.563-6.645-1.32-9.881-2.307c-3.309-1.008-6.542-2.256-9.646-3.79c-4.258-2.08-8.224-4.728-11.856-7.782l-0.098-0.082
			c-1.582-1.336-3.107-2.742-4.555-4.227c-4.815-4.908-8.911-10.48-12.737-16.195c3.732,5.777,7.735,11.421,12.491,16.433
			c1.628,1.725,3.356,3.358,5.168,4.896l0.093,0.082c2.644,2.234,5.474,4.249,8.466,5.993c0.147,1.18,0.341,2.352,0.602,3.507
			c0.36,1.457,0.756,2.881,1.382,4.288c0.691,1.466,2.105,2.436,3.548,2.925c1.452,0.523,2.972,0.708,4.474,0.785
			c1.508,0.082,3.014,0.021,4.507-0.112c2.984-0.283,5.933-0.844,8.825-1.584c1.221-0.324,2.431-0.691,3.63-1.084
			c1.013,0.141,2.026,0.277,3.044,0.389c0.881,0.099,1.764,0.186,2.646,0.263c1.72,0.156,3.455,0.266,5.177,0.339
			c1.725,0.094,3.488,0.099,5.229-0.011c2.121-0.13,4.221-0.429,6.295-0.843c4.764-0.952,9.388-2.581,13.754-4.657
			c6.288-2.993,12.11-6.854,17.542-11.157c5.432-4.312,10.479-9.081,15.213-14.131c4.67-5.012,9.057-10.24,13.061-15.857
			c0.218-0.133,0.438-0.285,0.656-0.516c0.292-0.293,0.573-0.795,0.592-1.342c0.021-0.546-0.171-0.986-0.372-1.313
			c-0.221-0.34-0.414-0.562-0.741-0.838l-0.177-0.148l-0.26-0.056c-1.411-0.291-2.729-1.115-3.852-2.183
			c-0.562-0.537-1.083-1.129-1.56-1.765l-0.082-0.119c0.934,0.111,1.875,0.198,2.826,0.233c1.736,0.058,3.513-0.003,5.308-0.475
			c0.892-0.248,1.795-0.6,2.621-1.18c0.822-0.573,1.549-1.403,1.951-2.373c0.414-0.966,0.525-2,0.457-2.963
			C191.501,87.426,191.314,86.598,190.956,85.7z M107.064,17.069c-1.05,0.08-2.097,0.194-3.143,0.322
			c-0.383,0.048-0.765,0.096-1.146,0.149c-1.308,0.182-2.609,0.403-3.906,0.658c-0.445,0.088-0.893,0.169-1.336,0.265
			c-0.25,0.054-0.495,0.123-0.744,0.179c-1.932,0.437-3.845,0.941-5.733,1.535c-2.352,0.738-4.671,1.582-6.931,2.557
			c-1.245,0.532-2.468,1.111-3.681,1.71c-0.627-2.259-0.867-4.668-0.781-7.07c0.143-3.288,0.768-6.601,1.955-9.709
			c0.582-1.55,1.316-3.082,2.185-4.444c0.886-1.32,2.466-1.984,4.047-2.228c3.247-0.431,6.565,0.45,9.688,1.496
			c3.145,1.083,6.182,2.477,9.146,3.997c5.945,3.018,11.693,6.428,17.342,10.037c0.768,0.509,1.534,1.024,2.299,1.546
			c-4.197-0.738-8.451-1.148-12.712-1.199C111.429,16.844,109.244,16.902,107.064,17.069z M89.613,150.363
			c-2.835,0.475-5.818,0.771-8.54-0.065c-1.323-0.438-2.565-1.241-3.131-2.495c-0.549-1.294-0.963-2.721-1.238-4.139
			c-0.184-0.909-0.295-1.83-0.376-2.753c0.556,0.308,1.106,0.63,1.673,0.919c3.381,1.74,6.927,3.135,10.556,4.258
			c2.964,0.916,5.984,1.653,9.027,2.223C94.968,149.154,92.312,149.888,89.613,150.363z"/>
		<g>
			<path fill="#F190AC" d="M112.313,81.152c0,0-14.445-6.087-18.883-3.715c-4.438,2.373-7.635,21.152-1.754,23.216
				s20.532-2.166,20.532-2.166"/>
			<path d="M112.313,81.152c-2.625-0.845-5.247-1.674-7.912-2.303c-2.646-0.64-5.355-1.207-7.97-1.206
				c-0.646,0.013-1.285,0.072-1.851,0.227c-0.268,0.07-0.573,0.197-0.729,0.29l-0.209,0.135l-0.123,0.099
				c-0.101,0.084-0.199,0.18-0.298,0.28c-0.781,0.852-1.364,2.063-1.828,3.278c-0.923,2.464-1.503,5.114-1.765,7.766
				c-0.275,2.629-0.293,5.385,0.467,7.751c0.403,1.173,1.021,2.135,2.058,2.437c1.144,0.373,2.491,0.521,3.815,0.557
				c2.675,0.054,5.404-0.216,8.114-0.583c2.72-0.34,5.419-0.861,8.126-1.392c-2.595,0.946-5.266,1.661-7.958,2.314
				c-2.704,0.603-5.449,1.098-8.282,1.177c-1.42,0.021-2.855,0-4.35-0.439c-0.774-0.194-1.596-0.749-2.11-1.377
				c-0.541-0.635-0.901-1.347-1.172-2.058c-0.542-1.429-0.722-2.888-0.809-4.32c-0.077-1.437-0.027-2.861,0.112-4.272
				c0.33-2.815,0.92-5.597,2.02-8.256c0.573-1.319,1.219-2.637,2.341-3.789c0.147-0.141,0.302-0.278,0.471-0.408
				c0.087-0.067,0.195-0.139,0.294-0.205l0.232-0.132c0.451-0.232,0.803-0.33,1.202-0.423c0.774-0.165,1.521-0.185,2.249-0.162
				c2.901,0.144,5.582,0.949,8.214,1.822C107.275,78.894,109.846,79.911,112.313,81.152z"/>
		</g>
		<g>
			<path d="M96.938,83.01c1.855-0.079,3.659,0.144,5.45,0.437c1.786,0.323,3.56,0.721,5.28,1.421
				c-1.856,0.081-3.659-0.141-5.45-0.437C100.433,84.104,98.66,83.708,96.938,83.01z"/>
		</g>
		<g>
			<path d="M93.327,89.304c2.425-0.291,4.836-0.276,7.244-0.189c2.407,0.117,4.811,0.31,7.201,0.809
				c-2.425,0.293-4.836,0.278-7.244,0.189C98.121,89.992,95.718,89.801,93.327,89.304z"/>
		</g>
		<g>
			<path d="M97.454,96.217c1.729-0.665,3.503-1.027,5.289-1.319c1.791-0.261,3.593-0.448,5.441-0.332
				c-1.729,0.667-3.503,1.03-5.289,1.319C101.104,96.144,99.303,96.331,97.454,96.217z"/>
		</g>
	</g>
</g>
</svg>
