<?xml version="1.0" encoding="utf-8"?>
<!-- Generator: Adobe Illustrator 16.0.4, SVG Export Plug-In . SVG Version: 6.00 Build 0)  -->
<!DOCTYPE svg PUBLIC "-//W3C//DTD SVG 1.1//EN" "http://www.w3.org/Graphics/SVG/1.1/DTD/svg11.dtd">
<svg version="1.1" id="Layer_1" xmlns="http://www.w3.org/2000/svg" xmlns:xlink="http://www.w3.org/1999/xlink" x="0px" y="0px"
	 width="337.434px" height="326.314px" viewBox="0 0 337.434 326.314" enable-background="new 0 0 337.434 326.314"
	 xml:space="preserve">
<g>
	<g>
		<path fill="#B78709" d="M337.317,11.884c0,0-7.258,20.91-11.062,34.338c-5.93,20.936-8.387,44.703-11.381,67.393
			c-0.219,1.661,11.496-4.976,11.496-4.976s4.229,5.137,4.113,5.953c-0.328,2.331-17.287,11.088-17.643,13.381
			c-1.553,10.053-14.607,152.354-14.607,152.354s-1.751,42.586-1.751,39.912s-22.399,5.068-22.399,5.068
			s18.99-167.283,21.756-185.574c2.764-18.291,8.279-59.692,12.396-79.341c1.496-7.138,5.557-21.165,7.717-28.13
			c2.172-6.997,9.611-27.688,9.611-27.688L337.317,11.884z"/>
		<path d="M337.434,11.841l-2.312,7.043c-0.748,2.328-1.531,4.645-2.25,6.981l-2.191,6.998c-0.752,2.327-1.412,4.679-2.1,7.022
			c-0.676,2.347-1.383,4.69-2.031,7.035l-0.932,3.547l-0.857,3.553c-0.541,2.378-1.066,4.76-1.539,7.153
			c-0.479,2.393-0.934,4.791-1.346,7.196c-1.689,9.617-2.916,19.312-4.146,29.011l-1.836,14.558l-0.223,1.726v0.029
			c0.002-0.007,0.002-0.075-0.004-0.11c-0.012-0.088-0.049-0.168-0.08-0.224c-0.07-0.123-0.178-0.201-0.244-0.233
			c-0.148-0.061-0.131-0.039-0.131-0.044c0.039,0.001,0.156-0.013,0.273-0.042c0.238-0.054,0.512-0.144,0.779-0.239
			c1.088-0.398,2.189-0.922,3.271-1.448c2.17-1.068,4.322-2.228,6.438-3.414l0.594-0.333l0.426,0.521
			c0.824,1.006,1.621,2.017,2.398,3.062c0.389,0.523,0.771,1.053,1.137,1.618c0.184,0.284,0.361,0.57,0.531,0.915
			c0.082,0.204,0.184,0.312,0.236,0.766c0.004,0.07,0.002,0.143-0.004,0.212l-0.027,0.137l-0.016,0.061l-0.045,0.135
			c-0.08,0.208-0.129,0.27-0.193,0.384c-0.498,0.718-1.008,1.107-1.525,1.553c-0.521,0.424-1.047,0.813-1.578,1.192
			c-1.062,0.758-2.139,1.47-3.217,2.175l-6.457,4.177c-1.059,0.705-2.111,1.423-3.088,2.185c-0.48,0.378-0.967,0.783-1.303,1.173
			c-0.074,0.092-0.146,0.189-0.172,0.241c-0.01,0.021-0.014,0.035-0.004-0.001c0-0.021-0.018,0.132-0.025,0.188l-0.115,0.955
			c-0.617,5.087-1.092,10.168-1.605,15.281l-1.49,15.318l-6.047,61.274l-3.045,30.638l-1.496,15.32l-0.725,7.662l-0.363,3.831
			l-0.172,1.898l-0.084,1.923l-1.33,30.76L297,317.003l-0.09,1.923l-0.051,0.965c-0.015,0.185-0.007,0.27-0.045,0.545
			c-1.314-0.021-0.377-0.122-0.667-0.119l-0.001-0.067c0.004,0.054-0.008-0.054-0.012-0.072c-0.01-0.009-0.01,0.025,0.003,0.026
			c-0.009-0.004-0.017-0.011-0.019-0.021c-0.106-0.091-0.428-0.153-0.713-0.161c-0.297-0.015-0.605-0.001-0.916,0.025
			c-0.621,0.056-1.248,0.152-1.871,0.267c-1.248,0.229-2.492,0.523-3.73,0.84c-4.948,1.286-9.838,2.855-14.684,4.507l-0.56,0.19
			l0.063-0.586l8.861-80.931l4.534-40.453l4.706-40.438l1.197-10.108l1.303-10.112c0.42-3.378,0.939-6.721,1.438-10.078
			l1.469-10.066l2.951-20.141c1.031-6.708,2.086-13.413,3.215-20.109c0.541-3.351,1.133-6.695,1.738-10.038
			c0.572-3.346,1.23-6.683,1.93-10.012c0.629-3.338,1.49-6.645,2.359-9.937c0.877-3.283,1.809-6.549,2.76-9.809
			c0.957-3.258,1.93-6.51,2.947-9.751c1.051-3.245,2.145-6.441,3.271-9.647c2.287-6.397,4.604-12.773,6.955-19.139l0.1-0.269
			l0.238,0.15L337.434,11.841z M337.196,11.927L325.442,4.77l0.338-0.117c-2.23,6.406-4.426,12.827-6.584,19.249
			c-1.057,3.216-2.129,6.45-3.123,9.674c-0.975,3.245-1.902,6.505-2.814,9.769c-0.904,3.266-1.793,6.536-2.625,9.817
			c-0.809,3.28-1.652,6.548-2.188,9.897c-0.605,3.329-1.23,6.653-1.752,10.004c-0.559,3.341-1.102,6.685-1.596,10.04
			c-1.039,6.697-1.979,13.415-2.943,20.127l-2.891,20.144l-1.439,10.078c-0.488,3.354-0.998,6.717-1.41,10.073l-1.328,10.067
			l-1.241,10.1l-4.884,40.406l-4.846,40.415l-9.658,80.836l-0.494-0.396c4.871-1.642,9.768-3.197,14.757-4.477
			c1.249-0.312,2.505-0.605,3.778-0.837c0.64-0.114,1.281-0.214,1.938-0.27c0.329-0.026,0.662-0.041,1.006-0.023
			c0.345,0.033,0.703,0.023,1.118,0.327c0.05,0.052,0.098,0.104,0.141,0.16c0.043,0.074,0.086,0.181,0.1,0.246
			c0.007,0.062,0.01,0.032,0.02,0.166v0.053c-0.285,0.027,0.646,0.017-0.652-0.033l0.025-0.414l0.055-0.958l0.096-1.921l0.183-3.844
			l0.675-15.379l0.602-15.382l0.076-1.923l0.164-1.936l0.344-3.833l0.688-7.665l1.338-15.337l2.658-30.674l2.713-30.669
			l2.875-30.656c0.471-5.108,1.014-10.214,1.529-15.319c0.535-5.094,1.041-10.23,1.686-15.328l0.121-0.955
			c0.014-0.102,0.008-0.109,0.041-0.288c0.041-0.194,0.102-0.326,0.164-0.449c0.123-0.232,0.25-0.389,0.377-0.546
			c0.508-0.579,1.023-0.987,1.549-1.404c1.047-0.814,2.119-1.538,3.195-2.257l6.477-4.175c1.07-0.696,2.135-1.397,3.162-2.13
			c0.514-0.365,1.02-0.739,1.494-1.126c0.461-0.376,0.953-0.815,1.182-1.161c0.018-0.023,0.055-0.099,0.029-0.042v0.023l0.014-0.058
			c0,0.017,0.025-0.115,0,0.021c-0.006,0.029-0.01,0.061-0.008,0.092c0.023,0.132-0.021-0.055-0.072-0.14
			c-0.113-0.23-0.271-0.492-0.436-0.747c-0.33-0.514-0.697-1.026-1.07-1.534c-0.75-1.015-1.541-2.021-2.34-3.002l1.021,0.188
			c-2.152,1.203-4.311,2.362-6.527,3.451c-1.115,0.54-2.227,1.069-3.436,1.515c-0.309,0.107-0.615,0.213-0.973,0.294
			c-0.182,0.04-0.367,0.077-0.633,0.08c-0.152-0.013-0.293,0.006-0.578-0.129c-0.133-0.064-0.305-0.19-0.412-0.383
			c-0.055-0.086-0.1-0.205-0.121-0.329c-0.01-0.055-0.016-0.141-0.016-0.166v-0.028l0.01-0.15l0.008-0.058l0.016-0.113l0.031-0.227
			l0.061-0.455l0.121-0.908l1.902-14.545c0.633-4.853,1.318-9.697,2.047-14.539c0.727-4.842,1.525-9.675,2.426-14.491
			c0.441-2.409,0.924-4.812,1.436-7.208c0.502-2.398,1.061-4.785,1.631-7.168l0.908-3.568l0.979-3.534
			c0.701-2.355,1.455-4.679,2.18-7.02c0.734-2.334,1.445-4.677,2.242-6.99l2.334-6.958c0.766-2.322,1.594-4.625,2.389-6.938
			L337.196,11.927z"/>
	</g>
	<path fill="#91570A" d="M332.237,9.739c0,0-18.254,47.646-25.693,114.599c-5.336,48.013-19.611,195.342-19.611,195.342l5.749-2.264
		c0,0,14.218-172.535,19.274-204.235c10.43-65.381,24.346-100.281,24.346-100.281L332.237,9.739z"/>
	<g>
		<path fill="#3AAA35" d="M304.717,326.288c0,0-7.41-16.396,15.133-36.574c0,0-21.754,0-28.375,24.593
			c0,0,5.359-38.623,2.838-35.155c-6.127,8.421-11.666,21.283-11.035,32.004c0,0-3.469-28.535-11.982-33.265
			c0,0,4.416,28.219-0.629,35.155c0,0-3.467-23.332-18.602-27.748c0,0,11.664,22.073,9.771,25.225c0,0-7.565-8.985-16.235-11.822
			c0,0,10.76,14.997,8.868,27.607"/>
		<path d="M304.67,326.308c-0.668-1.628-0.992-3.37-1.16-5.113c-0.074-0.874-0.111-1.752-0.09-2.63
			c0.01-0.878,0.08-1.755,0.184-2.627c0.102-0.873,0.246-1.74,0.434-2.601c0.186-0.857,0.395-1.715,0.664-2.552
			c0.246-0.845,0.561-1.667,0.875-2.487c0.326-0.816,0.678-1.624,1.062-2.413c0.375-0.796,0.799-1.566,1.223-2.338
			c0.443-0.758,0.879-1.521,1.369-2.252c0.467-0.746,0.979-1.46,1.488-2.175c0.5-0.724,1.066-1.396,1.598-2.097
			c0.553-0.683,1.127-1.349,1.693-2.019l1.789-1.933l1.861-1.862l1.924-1.796l0.268,0.695c-0.799,0.02-1.637,0.109-2.449,0.229
			c-0.818,0.124-1.633,0.271-2.439,0.465c-1.615,0.371-3.193,0.89-4.725,1.518c-1.531,0.631-3.01,1.385-4.416,2.255
			c-0.703,0.438-1.383,0.905-2.049,1.396c-0.65,0.508-1.312,1.007-1.922,1.563c-0.633,0.532-1.209,1.129-1.795,1.712
			c-0.559,0.609-1.123,1.213-1.631,1.867c-0.541,0.628-0.997,1.32-1.49,1.985c-0.438,0.702-0.922,1.378-1.312,2.109
			c-0.414,0.717-0.811,1.445-1.16,2.199c-0.383,0.736-0.686,1.511-1.012,2.273c-0.332,0.762-0.582,1.557-0.877,2.333
			c-0.262,0.788-0.49,1.59-0.738,2.385l-0.732-0.149c0.837-5.811,1.625-11.633,2.337-17.462c0.354-2.915,0.692-5.832,0.955-8.755
			c0.132-1.462,0.252-2.924,0.336-4.387c0.058-1.449,0.195-2.961-0.051-4.341c-0.021-0.078-0.052-0.159-0.081-0.2
			c-0.048-0.03,0.027-0.018-0.021-0.006c-0.088,0.055-0.195,0.23-0.302,0.378l-0.635,0.899c-0.435,0.596-0.812,1.219-1.22,1.828
			c-0.779,1.238-1.512,2.509-2.209,3.797c-1.385,2.582-2.602,5.255-3.621,7.999c-1.018,2.744-1.844,5.562-2.393,8.433
			c-0.272,1.435-0.469,2.883-0.591,4.336c-0.063,0.726-0.065,1.455-0.103,2.183c-0.004,0.729,0.033,1.455,0.051,2.182L283,311.188
			c-0.402-2.973-0.922-5.938-1.519-8.88c-0.603-2.942-1.291-5.867-2.12-8.749c-0.834-2.877-1.792-5.727-3.048-8.427
			c-0.63-1.347-1.339-2.655-2.185-3.854c-0.84-1.193-1.84-2.297-3.059-2.985l0.68-0.475c0.881,5.896,1.506,11.816,1.764,17.779
			c0.117,2.979,0.14,5.97-0.084,8.964c-0.123,1.496-0.303,2.993-0.629,4.479c-0.338,1.478-0.776,2.979-1.713,4.312l-0.732,1.046
			l-0.206-1.276c-0.228-1.405-0.551-2.832-0.911-4.229c-0.361-1.401-0.777-2.79-1.246-4.159c-0.945-2.734-2.08-5.409-3.519-7.909
			c-1.423-2.504-3.153-4.838-5.242-6.79c-0.534-0.472-1.06-0.96-1.642-1.37c-0.562-0.44-1.168-0.812-1.77-1.194
			c-0.625-0.335-1.24-0.693-1.9-0.959c-0.641-0.311-1.323-0.508-1.992-0.745l0.568-0.695c2.096,4.062,4.092,8.164,5.943,12.345
			c0.92,2.092,1.805,4.201,2.58,6.361c0.386,1.08,0.745,2.174,1.027,3.299c0.142,0.562,0.262,1.135,0.33,1.728
			c0.041,0.595,0.137,1.213-0.223,1.91l-0.24,0.472l-0.363-0.423c-1.084-1.262-2.27-2.471-3.486-3.625
			c-0.613-0.573-1.23-1.144-1.874-1.685c-0.632-0.555-1.294-1.072-1.952-1.594c-0.672-0.503-1.342-1.009-2.043-1.472
			c-0.684-0.486-1.412-0.902-2.127-1.342l-1.104-0.6c-0.362-0.211-0.752-0.365-1.129-0.548c-0.748-0.378-1.543-0.639-2.32-0.941
			l0.304-0.416c1.41,2.055,2.649,4.194,3.791,6.395c1.138,2.197,2.132,4.473,2.966,6.804c0.829,2.333,1.484,4.73,1.864,7.18
			c0.082,0.613,0.179,1.227,0.22,1.844c0.063,0.615,0.082,1.234,0.104,1.854c-0.007,0.618,0.006,1.237-0.05,1.854
			c-0.026,0.618-0.121,1.231-0.196,1.846l-0.101-0.017c0.065-0.61,0.147-1.221,0.164-1.837c0.045-0.612,0.021-1.229,0.018-1.843
			c-0.032-0.614-0.061-1.229-0.135-1.839c-0.053-0.612-0.159-1.219-0.25-1.825c-0.42-2.423-1.111-4.793-1.977-7.093
			c-0.863-2.302-1.904-4.533-3.047-6.709c-1.15-2.169-2.41-4.295-3.812-6.296l-0.504-0.723l0.809,0.307
			c0.801,0.303,1.62,0.562,2.388,0.939c0.388,0.184,0.788,0.338,1.159,0.55l1.132,0.601c0.729,0.438,1.478,0.855,2.177,1.343
			c0.717,0.463,1.402,0.969,2.09,1.474c0.672,0.521,1.35,1.04,1.994,1.596c0.656,0.542,1.289,1.112,1.916,1.688
			c1.248,1.16,2.447,2.358,3.582,3.651l-0.604,0.049c0.184-0.329,0.169-0.918,0.107-1.439c-0.068-0.539-0.188-1.083-0.326-1.624
			c-0.282-1.083-0.645-2.154-1.033-3.217c-0.782-2.124-1.68-4.213-2.611-6.283c-1.875-4.141-3.902-8.222-6.021-12.24l-0.572-1.086
			l1.141,0.391c0.711,0.243,1.436,0.449,2.115,0.771c0.702,0.272,1.354,0.651,2.014,1.007c0.635,0.398,1.273,0.792,1.863,1.254
			c0.613,0.432,1.164,0.94,1.725,1.435c2.187,2.038,3.978,4.453,5.441,7.022c1.48,2.566,2.643,5.296,3.609,8.08
			c0.48,1.395,0.904,2.808,1.275,4.233c0.369,1.432,0.696,2.856,0.938,4.337l-0.939-0.23c0.781-1.109,1.217-2.518,1.527-3.924
			c0.311-1.416,0.48-2.875,0.602-4.337c0.234-2.93,0.229-5.89,0.129-8.843c-0.225-5.907-0.818-11.82-1.662-17.675l-0.135-0.941
			l0.814,0.468c1.411,0.811,2.466,2.018,3.348,3.275c0.877,1.271,1.592,2.631,2.221,4.017c1.256,2.776,2.19,5.665,3.002,8.576
			c0.805,2.915,1.467,5.862,2.039,8.826c0.567,2.965,1.056,5.938,1.429,8.938l-0.56,0.051c-0.008-0.74-0.037-1.482-0.029-2.224
			c0.043-0.738,0.053-1.48,0.123-2.217c0.137-1.475,0.348-2.938,0.636-4.387c0.579-2.896,1.435-5.729,2.481-8.482
			c1.051-2.754,2.295-5.433,3.709-8.016c0.713-1.289,1.457-2.559,2.254-3.799c0.404-0.614,0.785-1.251,1.215-1.846l0.629-0.904
			c0.111-0.144,0.177-0.309,0.392-0.469c0.054-0.037,0.146-0.073,0.249-0.055c0.107,0.022,0.164,0.09,0.207,0.143
			c0.077,0.108,0.104,0.206,0.135,0.304c0.176,0.768,0.152,1.497,0.16,2.238c-0.006,0.739-0.033,1.476-0.07,2.21
			c-0.076,1.47-0.188,2.938-0.312,4.401c-0.256,2.929-0.54,5.854-0.851,8.775c-0.623,5.847-1.324,11.681-2.078,17.512l-0.733-0.149
			c0.239-0.812,0.461-1.629,0.716-2.437c0.289-0.796,0.532-1.609,0.86-2.393c0.329-0.782,0.636-1.574,1.022-2.33
			c0.354-0.771,0.756-1.521,1.18-2.259c0.396-0.751,0.891-1.447,1.337-2.17c0.503-0.687,0.971-1.399,1.522-2.049
			c0.52-0.675,1.098-1.3,1.67-1.93c0.602-0.604,1.191-1.221,1.842-1.772c0.627-0.576,1.301-1.1,1.979-1.615
			c0.688-0.503,1.393-0.98,2.119-1.428c1.453-0.888,2.979-1.655,4.557-2.295c1.576-0.636,3.201-1.158,4.861-1.53
			c0.826-0.194,1.666-0.341,2.51-0.464c0.848-0.117,1.682-0.205,2.562-0.223l1.041-0.021l-0.775,0.715l-1.914,1.767l-1.854,1.831
			l-1.779,1.897l-1.701,1.971c-0.531,0.684-1.104,1.34-1.605,2.047c-0.514,0.696-1.029,1.395-1.5,2.124
			c-0.494,0.712-0.934,1.46-1.383,2.2c-0.428,0.752-0.857,1.508-1.236,2.285c-0.395,0.773-0.75,1.562-1.084,2.362
			c-0.32,0.804-0.643,1.61-0.896,2.438c-0.541,1.646-0.957,3.334-1.203,5.052c-0.121,0.857-0.213,1.723-0.242,2.59
			c-0.045,0.867-0.029,1.735,0.023,2.604c0.123,1.729,0.4,3.469,1.021,5.09L304.67,326.308z"/>
	</g>
</g>
<g>
	<g>
		<path fill="#B78709" d="M41.263,4.144c0,0-1.304,22.095-1.317,36.051c-0.026,26.41,6.005,55.446,9.297,82.321
			c1.235,10.096,27.323,150.594,27.323,150.594s9.883,41.459,9.156,38.887c-0.727-2.574-20.181,10.961-20.181,10.961
			s-27.163-166.149-29.47-184.505c-2.309-18.354-9.162-57.906-10.329-64.59c-1.167-6.686-24.581-35.03-24.581-35.03l6.49-6.88
			l18.801,26.774c0,0-0.403-21.877-0.214-29.167c0.188-7.325,1.728-29.258,1.728-29.258L41.263,4.144z"/>
		<path d="M41.362,4.15c-0.328,6.984-0.592,13.973-0.776,20.962c-0.174,6.99-0.298,13.977-0.046,20.948
			c0.521,13.949,2.413,27.812,4.488,41.629l3.117,20.748c0.509,3.462,1.002,6.928,1.461,10.398c0.244,1.736,0.421,3.482,0.697,5.179
			l0.863,5.159l7.385,41.296l14.725,82.618c1.252,6.871,2.476,13.783,3.792,20.615l4.801,20.424l2.431,10.205l1.203,5.105
			c0.197,0.858,0.399,1.688,0.583,2.578c0.493,0.147-0.885,0.467-0.662,0.155c-0.004-0.014-0.033-0.104-0.01-0.043
			c-0.017-0.035-0.059-0.143-0.048-0.088c0.035,0.033-0.025-0.012-0.074-0.02c-0.13-0.025-0.326-0.015-0.519,0.026
			c-0.39,0.072-0.794,0.218-1.189,0.369c-3.166,1.338-6.143,3.23-9.101,5.062c-2.95,1.862-5.86,3.801-8.729,5.787l-0.485,0.336
			l-0.098-0.584l-12.205-72.789l-6.043-36.404l-5.9-36.429c-1.935-12.151-3.923-24.282-5.689-36.479
			c-1.545-12.206-3.492-24.326-5.458-36.47l-3.027-18.194l-1.553-9.09l-0.392-2.271c-0.065-0.354-0.133-0.815-0.196-1.078
			c-0.07-0.291-0.185-0.627-0.314-0.953c-0.535-1.322-1.279-2.652-2.047-3.949c-3.143-5.191-6.806-10.143-10.48-15.046
			c-3.7-4.894-7.503-9.724-11.377-14.479L0,38.788l0.527-0.553l6.525-6.847l0.698-0.733l0.574,0.825L27.01,58.335l-1.238,0.404
			l-0.114-14.625c-0.009-4.877-0.038-9.747,0.093-14.639c0.185-4.888,0.545-9.744,0.885-14.608l1.102-14.582L27.758,0l0.271,0.081
			l13.337,3.99L41.362,4.15z M41.158,4.219L27.902,0.522l0.293-0.205L27.37,14.913c-0.247,4.864-0.509,9.735-0.641,14.59
			c-0.066,4.854,0.026,9.731,0.099,14.601l0.305,14.611l0.046,2.217l-1.284-1.812L6.979,32.425l1.271,0.093L1.795,39.43l0.038-1.152
			c3.926,4.757,7.763,9.568,11.514,14.463c3.729,4.913,7.43,9.841,10.695,15.155c0.801,1.345,1.587,2.695,2.211,4.225
			c0.154,0.388,0.294,0.779,0.405,1.236c0.109,0.486,0.145,0.788,0.221,1.189l0.396,2.273l1.568,9.093l3.061,18.202
			c1.986,12.137,3.963,24.308,5.528,36.508c1.75,12.152,3.655,24.312,5.544,36.463L65.91,322.897l-0.583-0.246
			c2.889-1.984,5.808-3.914,8.776-5.777c2.987-1.83,5.946-3.709,9.234-5.088c0.419-0.158,0.842-0.312,1.313-0.4
			c0.234-0.043,0.481-0.077,0.783-0.021c0.158,0.049,0.318,0.082,0.484,0.295c0.095,0.129,0.075,0.137,0.108,0.199l0.036,0.113
			c0.243-0.228-1.111,0.098-0.639,0.155c-0.167-0.821-0.374-1.694-0.565-2.541l-1.184-5.106l-2.392-10.213l-4.9-20.4
			c-1.373-6.893-2.597-13.752-3.92-20.627l-7.871-41.217c-2.623-13.74-5.224-27.483-7.731-41.244l-3.772-20.641L49.49,129.46
			l-0.843-5.188c-0.276-1.758-0.443-3.494-0.678-5.222c-0.441-3.464-0.917-6.924-1.408-10.384l-3.017-20.762
			c-1.919-13.857-3.649-27.789-4.01-41.813c-0.185-7.012,0.132-14.015,0.43-21.001C40.29,18.127,40.692,11.171,41.158,4.219z"/>
	</g>
	<path fill="#91570A" d="M33.791,3.46c0,0-4.625,50.813,6.401,117.269c7.906,47.656,34.185,193.324,34.185,193.324l9.345-4.88
		c0,0-27.385-124.667-38.052-202C36.35,39.601,38.562,5.396,38.562,5.396L33.791,3.46z"/>
	<g>
		<path fill="#3AAA35" d="M51.778,326.288c0,0-7.503-30.64-20.634-36.267c0,0,17.507,0.626,28.138,24.386
			c0,0-4.376-31.891-5.002-35.016c-0.625-3.128,13.756,21.26,13.131,31.89c0,0,2.501-28.765,7.503-31.89
			c0,0-0.001,26.887,5.002,33.766c0,0,2.501-18.758,9.379-21.261c0,0-2.5,15.634-0.625,18.759c0,0,6.877-9.38,13.756-8.13
			c0,0-8.324,11.276-6.448,23.781"/>
		<path d="M51.73,326.299c-0.929-3.439-2.04-6.833-3.27-10.175c-1.244-3.337-2.604-6.631-4.164-9.826
			c-1.566-3.188-3.329-6.29-5.461-9.109c-2.131-2.783-4.654-5.417-7.848-6.801l0.171-0.765c0.863,0.052,1.663,0.189,2.476,0.359
			c0.809,0.17,1.605,0.385,2.39,0.634c1.572,0.493,3.097,1.124,4.562,1.87c2.936,1.485,5.637,3.416,8.028,5.663
			c2.396,2.247,4.496,4.789,6.317,7.508c0.473,0.669,0.886,1.375,1.322,2.067c0.434,0.692,0.815,1.417,1.224,2.125l1.119,2.181
			l1.027,2.223l-0.714,0.204l-2.305-17.562l-1.195-8.775c-0.397-2.929-0.865-5.829-1.299-8.757
			c-0.007-0.053-0.016-0.109-0.009-0.183c0.007-0.037,0.003-0.084,0.065-0.156c0.063-0.077,0.195-0.075,0.226-0.057
			c0.167,0.067,0.209,0.141,0.288,0.212c0.136,0.143,0.252,0.289,0.366,0.439c0.225,0.3,0.434,0.606,0.638,0.916
			c0.409,0.62,0.79,1.254,1.173,1.887c0.762,1.27,1.486,2.559,2.188,3.858c1.401,2.604,2.711,5.257,3.916,7.958
			c1.201,2.703,2.304,5.455,3.199,8.282c0.444,1.415,0.837,2.849,1.125,4.311c0.285,1.46,0.477,2.952,0.406,4.467l-0.56-0.041
			c0.488-5.521,1.148-11.02,2.07-16.488c0.469-2.732,1.003-5.458,1.723-8.151c0.363-1.346,0.772-2.684,1.301-3.993
			c0.269-0.652,0.569-1.3,0.938-1.924c0.38-0.615,0.812-1.238,1.505-1.698l0.696-0.462l0.009,0.854
			c0.064,5.717,0.348,11.451,0.935,17.138c0.304,2.842,0.688,5.676,1.259,8.462c0.284,1.393,0.62,2.772,1.048,4.112
			c0.212,0.67,0.452,1.33,0.737,1.96c0.271,0.641,0.613,1.23,0.985,1.786l-0.941,0.237c0.291-2.009,0.675-3.977,1.129-5.941
			c0.457-1.962,0.991-3.909,1.647-5.823c0.661-1.91,1.433-3.797,2.475-5.569c0.524-0.882,1.117-1.736,1.842-2.501
			c0.721-0.762,1.596-1.437,2.637-1.812l0.779-0.282l-0.13,0.817c-0.494,3.098-0.898,6.225-1.168,9.352
			c-0.131,1.563-0.228,3.13-0.232,4.689c-0.001,0.778,0.018,1.559,0.094,2.322c0.077,0.755,0.208,1.537,0.521,2.126l-0.62-0.028
			c0.871-1.131,1.813-2.164,2.822-3.152c1.008-0.982,2.085-1.899,3.249-2.705c1.165-0.799,2.416-1.502,3.777-1.948
			c1.351-0.461,2.83-0.626,4.257-0.369l0.42,0.074l-0.25,0.354c-1.198,1.685-2.234,3.519-3.146,5.393
			c-0.898,1.884-1.698,3.821-2.299,5.822c-0.609,1.998-1.052,4.052-1.259,6.134c-0.224,2.08-0.186,4.188,0.087,6.265l-0.099,0.016
			c-0.317-2.08-0.4-4.2-0.217-6.301c0.166-2.103,0.569-4.185,1.143-6.213c0.57-2.032,1.321-4.015,2.218-5.926
			c0.904-1.909,1.918-3.759,3.136-5.512l0.169,0.428c-1.323-0.22-2.695-0.055-3.971,0.398c-1.284,0.438-2.48,1.127-3.598,1.914
			c-1.117,0.793-2.157,1.699-3.13,2.672c-0.969,0.972-1.894,2.014-2.708,3.099l-0.352,0.47l-0.268-0.497
			c-0.437-0.811-0.549-1.624-0.65-2.428c-0.089-0.805-0.118-1.604-0.127-2.4c-0.015-1.595,0.064-3.182,0.177-4.761
			c0.234-3.162,0.602-6.302,1.063-9.438l0.648,0.535c-0.845,0.314-1.592,0.901-2.243,1.586c-0.653,0.688-1.207,1.489-1.702,2.326
			c-0.985,1.682-1.736,3.518-2.377,5.387c-0.638,1.872-1.16,3.79-1.606,5.725c-0.443,1.935-0.821,3.897-1.1,5.85l-0.191,1.341
			l-0.75-1.103c-0.431-0.635-0.807-1.292-1.098-1.974c-0.307-0.677-0.559-1.368-0.781-2.063c-0.448-1.395-0.796-2.806-1.085-4.226
			c-0.566-2.841-0.938-5.704-1.229-8.568c-0.561-5.736-0.814-11.481-0.848-17.242l0.705,0.392c-0.471,0.303-0.875,0.832-1.214,1.387
			c-0.338,0.563-0.627,1.174-0.887,1.798c-0.521,1.249-0.94,2.556-1.312,3.876c-0.74,2.643-1.303,5.345-1.801,8.057
			c-0.98,5.429-1.705,10.914-2.254,16.406l-0.56-0.041c0.087-1.438-0.09-2.899-0.357-4.335c-0.271-1.438-0.647-2.859-1.076-4.266
			c-0.864-2.811-1.939-5.559-3.113-8.26c-1.178-2.701-2.462-5.356-3.838-7.965c-0.689-1.303-1.401-2.594-2.149-3.862
			c-0.373-0.636-0.765-1.259-1.171-1.871c-0.204-0.306-0.412-0.606-0.632-0.896c-0.11-0.145-0.224-0.285-0.343-0.409
			c-0.051-0.057-0.14-0.125-0.146-0.124c-0.011,0,0.066,0.011,0.099-0.033c0.03-0.038,0.017-0.037,0.021-0.027
			c-0.002,0.018,0,0.054,0.007,0.092c0.449,2.911,0.94,5.837,1.354,8.758l1.298,8.763l2.571,17.528l-0.714,0.204l-1.047-2.181
			l-1.135-2.135c-0.408-0.693-0.786-1.406-1.216-2.087c-0.432-0.679-0.842-1.372-1.31-2.026c-1.803-2.664-3.874-5.146-6.226-7.329
			c-2.348-2.184-4.953-4.1-7.807-5.557c-1.422-0.733-2.902-1.356-4.425-1.844c-0.76-0.247-1.531-0.459-2.31-0.627
			c-0.773-0.169-1.578-0.307-2.334-0.357l0.171-0.764c1.694,0.733,3.193,1.821,4.526,3.047c1.337,1.229,2.516,2.607,3.58,4.06
			c2.131,2.905,3.862,6.062,5.394,9.296c1.531,3.235,2.844,6.566,3.997,9.948c1.153,3.381,2.183,6.803,3.029,10.271L51.73,326.299z"
			/>
	</g>
</g>
<path fill="none" stroke="#000000" stroke-width="2" stroke-linecap="round" d="M25.883,51.926c0,0-4.07,2.148,6.71,4.744
	c9.91,2.387,9.244-1.498,9.244-1.498s107.352,12.715,209.558,9.275c33.533-1.128,56.59-2.84,56.59-2.84s10.131,6.128,13.873,2.84"/>
</svg>
