<?xml version="1.0" encoding="utf-8"?>
<!-- Generator: Adobe Illustrator 16.0.4, SVG Export Plug-In . SVG Version: 6.00 Build 0)  -->
<!DOCTYPE svg PUBLIC "-//W3C//DTD SVG 1.1//EN" "http://www.w3.org/Graphics/SVG/1.1/DTD/svg11.dtd">
<svg version="1.1" id="Layer_1" xmlns="http://www.w3.org/2000/svg" xmlns:xlink="http://www.w3.org/1999/xlink" x="0px" y="0px"
	 width="142.777px" height="271.752px" viewBox="0 0 142.777 271.752" enable-background="new 0 0 142.777 271.752"
	 xml:space="preserve">
<g>
	<g>
		<path fill="#37A6DE" stroke="#000000" stroke-width="1.9028" stroke-miterlimit="10" d="M63.535,210.646
			c0,0-11.052,29.836-0.516,32.467c10.537,2.631,32.443-0.071,34.158-1.173c1.713-1.101,6.314-3.354-2.595-33.067"/>
		<path fill="#37A6DE" stroke="#000000" stroke-width="1.9028" stroke-miterlimit="10" d="M81.51,199.629
			c-4.387-3.591-20.359-6.808-26.673,0.601c-2.015,2.364-16.182,29.975-14.896,33.013c1.284,3.037,22.95,9.299,24.618,6.007
			c1.671-3.289,0.026-27.931-0.144-29.662c-0.172-1.732,1.521,22.979,2.911,25.578"/>
		<path fill="#37A6DE" stroke="#000000" stroke-width="1.9028" stroke-miterlimit="10" d="M72.812,200.15
			c4.061-3.954,19.701-8.529,26.626-1.688c2.21,2.183,18.69,28.478,17.671,31.615c-1.021,3.136-22.069,11.231-24.016,8.095
			c-1.945-3.136-2.419-27.827-2.396-29.566c0.021-1.741,0.454,23.025-0.709,25.733"/>
		<path fill="#1D70B6" stroke="#000000" stroke-width="1.9585" stroke-miterlimit="10" d="M77.426,191.69
			c-5.287-2.624-22.536-2.516-27.598,6.031c-1.615,2.727-14.958,29.817-13.006,32.53c1.951,2.714,28.141,3.893,29.211,0.327
			c1.07-3.566-3.83-23.983-4.358-25.645c-0.528-1.663,8.657,24.645,10.628,26.908"/>
		<path fill="#1D70B6" stroke="#000000" stroke-width="1.9585" stroke-miterlimit="10" d="M86.18,230.953
			c1.768-2.424,8.666-29.422,8.281-27.72c-0.383,1.699-3.518,22.462-2.145,25.924c1.371,3.461,27.365,0.042,29.076-2.83
			c1.713-2.87-13.904-28.719-15.746-31.297c-5.775-8.08-22.969-6.71-28.012-3.642"/>
		<path fill="#1D70B6" stroke="#000000" stroke-width="1.9585" stroke-miterlimit="10" d="M62.473,203.863
			c0,0-11.052,29.838-0.514,32.468c10.537,2.631,32.441-0.07,34.156-1.173c1.715-1.101,6.314-3.353-2.595-33.067"/>
	</g>
	<g>
		<path fill="#E0912F" d="M47.446,264.267c-1.333,0-2.221-0.354-2.501-0.995c-0.113-0.26-0.216-0.788,0.366-1.415
			c1.292-1.391,4.334-3.379,6.898-4.935c-1.8,0.547-3.687,1.064-4.735,1.189c-0.527,0.062-1.059,0.095-1.579,0.095
			c-2.784,0-4.935-0.899-5.544-1.746c-0.264-0.366-0.217-0.677-0.166-0.829c0.251-0.748,2.436-1.49,5.057-2.125
			c-1.795-0.283-3.37-0.962-3.671-2.43c-0.055-0.265,0.015-0.532,0.194-0.753c0.513-0.631,2.211-1.358,10.863-1.387
			c0.003,0,0.005,0,0.007,0c0.707,0,1.477,0.023,2.318,0.048c1.008,0.03,2.12,0.063,3.201,0.063c1.854,0,3.165-0.102,4.006-0.312
			l0.229-0.055c0.573-0.132,1.287-0.297,1.609-0.892c1.351-2.488,7.808-20.77,9.277-27.818c1.393-6.683,1.771-19.873,1.773-20.005
			l0.014-0.494l2.414,0.002l-0.013,0.52c-0.019,0.715-0.462,17.562-1.615,22.423c-0.273,1.15-1.029,3.016-1.903,5.176
			c-1.022,2.524-2.182,5.387-2.867,7.834c-0.245,0.874-0.481,1.691-0.703,2.457c-1.359,4.692-2.107,7.276-0.814,9.105
			c0.528,0.748,3.641,1.214,5.734,1.313c0.438-0.124,2.464-0.673,3.87-0.673c1.522,0,1.75,0.7,1.75,1.117
			c0.003,1.992-4.268,3.25-5.684,3.304l-0.188,0.004c-0.929,0-2.028-0.241-3.191-0.497c-1.119-0.246-2.276-0.5-3.193-0.5
			c-0.241,0-0.458,0.019-0.646,0.054c-3.416,0.645-6.437,3.761-9.358,6.774c-2.312,2.387-4.497,4.641-6.734,5.46
			C49.842,264.107,48.34,264.267,47.446,264.267z"/>
		<path d="M75.558,199.98l1.399,0.001c0,0-0.447,17.453-1.602,22.318c-0.577,2.429-3.485,8.424-4.766,12.99
			c-1.765,6.303-3.107,9.638-1.443,11.992c0.92,1.302,6.209,1.531,6.209,1.531s2.314-0.676,3.811-0.676
			c0.715,0,1.242,0.154,1.242,0.609c0.002,1.465-3.682,2.739-5.195,2.797c-0.055,0.002-0.111,0.003-0.168,0.003
			c-1.778,0-4.476-0.997-6.385-0.997c-0.263,0-0.512,0.02-0.74,0.062c-6.354,1.198-11.309,10.475-16.174,12.257
			c-1.727,0.632-3.203,0.89-4.3,0.89c-1.792,0-2.569-0.688-1.763-1.557c2.349-2.528,10.9-7.232,10.9-7.232s-6.831,2.359-9.169,2.638
			c-0.528,0.062-1.035,0.091-1.52,0.091c-3.259,0-5.438-1.279-5.229-1.906c0.371-1.106,9.029-2.697,9.029-2.697
			s-0.804,0.083-1.893,0.083c-2.131,0-5.349-0.318-5.735-2.203c-0.298-1.452,7.89-1.521,10.562-1.53c0.028,0,0.057,0,0.086,0
			c1.361,0,3.453,0.111,5.439,0.111c1.585,0,3.103-0.071,4.128-0.327c0.606-0.152,1.675-0.3,2.161-1.196
			c1.354-2.494,7.831-20.777,9.328-27.957C75.191,213.271,75.558,199.98,75.558,199.98 M74.57,198.965l-0.027,0.987
			c-0.004,0.133-0.381,13.279-1.764,19.916c-1.463,7.019-7.885,25.207-9.227,27.68c-0.197,0.365-0.675,0.5-1.277,0.64l-0.238,0.057
			c-0.799,0.199-2.069,0.297-3.881,0.297c-1.071,0-2.195-0.034-3.188-0.063c-0.833-0.025-1.62-0.049-2.252-0.049h-0.09
			c-8.791,0.029-10.604,0.774-11.256,1.574c-0.277,0.342-0.383,0.759-0.297,1.176c0.166,0.813,0.723,1.719,2.195,2.323
			c-3.223,0.947-3.448,1.619-3.565,1.967c-0.082,0.245-0.16,0.738,0.235,1.287c0.7,0.973,2.971,1.958,5.956,1.958
			c0.541,0,1.093-0.033,1.64-0.099c0.401-0.048,0.92-0.15,1.508-0.29c-1.694,1.124-3.258,2.275-4.104,3.186
			c-0.808,0.87-0.591,1.663-0.46,1.963c0.259,0.594,0.983,1.301,2.967,1.301c1.341,0,2.948-0.329,4.649-0.952
			c2.346-0.859,4.569-3.153,6.924-5.583c2.867-2.957,5.83-6.015,9.089-6.629c0.156-0.03,0.343-0.045,0.552-0.045
			c0.861,0,1.991,0.248,3.084,0.488c1.191,0.262,2.317,0.509,3.301,0.509c0.07,0,0.139-0.001,0.207-0.004
			c1.438-0.055,6.175-1.351,6.172-3.812c0-0.38-0.163-1.623-2.258-1.623c-1.395-0.001-3.345,0.508-3.928,0.668
			c-2.409-0.123-4.893-0.637-5.265-1.098c-1.149-1.627-0.425-4.128,0.89-8.669c0.222-0.767,0.459-1.585,0.704-2.461
			c0.679-2.42,1.832-5.268,2.85-7.78c0.882-2.18,1.645-4.062,1.927-5.249c1.165-4.911,1.61-21.81,1.628-22.526l0.027-1.041
			l-1.041-0.001l-1.399-0.001H74.57L74.57,198.965z"/>
	</g>
	<g>
		<g>
			<path fill="#E0912F" d="M100.603,269.158c-0.55,0-1.118-0.286-1.642-0.827c-1.051-1.084-1.836-3.088-1.789-4.561l0.036-1.064
				c0.116-3.415,0.378-11.078-0.556-13.37c-0.227,0.319-0.541,0.811-0.848,1.292c-0.887,1.39-2.228,3.489-4.062,5.726
				c-3.218,3.924-5.053,5.669-7.014,6.668c-1.247,0.635-2.588,0.984-3.775,0.984c-0.676,0-1.271-0.11-1.77-0.33
				c-0.429-0.187-0.714-0.509-0.802-0.907c-0.067-0.306-0.044-0.786,0.45-1.341c0.624-0.699,1.6-1.383,2.834-2.248
				c1.949-1.365,4.619-3.235,7.814-6.455c1.606-1.618,2.905-3.073,3.877-4.343c-0.303,0.036-0.596,0.055-0.878,0.055
				c-0.591,0-1.135-0.081-1.614-0.241l-0.097-0.03c-0.611-0.188-2.47-0.762-2.243-2.233c0.154-0.985,1.622-1.121,3.186-1.121
				c0.476,0,0.96,0.015,1.407,0.027c0.358,0.011,0.69,0.021,0.974,0.021l0.068-0.05c0.376-0.269,0.868-0.62,1.311-0.902
				c-0.007-0.075-0.041-0.381-0.041-0.381c-0.379-5.345-2.128-15.134-3.639-22.515c-1.154-5.651-5.477-22.562-5.521-22.731
				l-0.12-0.47l3.035-0.929l0.113,0.545c0.035,0.17,3.557,17.088,4.803,22.521c0.277,1.211,0.661,2.955,1.101,4.953
				c1.33,6.039,3.807,17.281,4.432,18.16c0.465,0.545,1.595,1.166,2.792,1.824c0.375,0.206,0.757,0.416,1.132,0.631
				c2.35,1.347,5.301,2.765,8.155,4.137c4.36,2.096,8.127,3.906,9.124,5.149c0.201,0.252,0.236,0.576,0.096,0.868
				c-0.4,0.833-2.127,1.282-3.549,1.282l0,0c-0.6,0-1.179-0.072-1.72-0.217c-4.211-1.12-8.613-4.521-11.526-6.772
				c-0.995-0.77-2.021-1.562-2.445-1.769c-1.287,1.479,0.049,7.299,0.943,11.191c0.414,1.806,0.772,3.365,0.886,4.414
				c0.031,0.292,0.271,2.888-0.942,4.377c-0.469,0.574-1.083,0.901-1.826,0.973C100.702,269.155,100.652,269.158,100.603,269.158z"
				/>
			<path d="M88.803,197.53c0,0,3.543,17.03,4.805,22.531c1.271,5.554,4.793,22.334,5.635,23.321
				c0.689,0.811,2.447,1.647,4.063,2.574c5.868,3.362,15.587,7.231,17.136,9.163c0.429,0.537-1.164,1.325-3.057,1.325
				c-0.52,0-1.062-0.059-1.59-0.199c-6.22-1.655-13.12-8.604-14.193-8.604c-0.039,0-0.07,0.01-0.094,0.028
				c-2.44,1.982,1.118,12.557,1.51,16.185c0.115,1.071,0.115,4.557-2.312,4.79c-0.034,0.003-0.068,0.005-0.103,0.005
				c-1.479,0-2.983-2.964-2.923-4.863c0.123-3.952,0.58-13.417-0.876-15.207c-0.019-0.023-0.041-0.034-0.067-0.034
				c-0.462,0-2.121,3.505-5.386,7.485c-3.163,3.857-4.957,5.572-6.852,6.538c-1.218,0.62-2.477,0.93-3.545,0.93
				c-0.595,0-1.13-0.097-1.565-0.288c-0.537-0.233-0.77-0.779-0.177-1.445c1.515-1.698,5.375-3.389,10.63-8.684
				c2.323-2.34,3.77-4.097,4.677-5.438c-0.589,0.152-1.309,0.285-2.038,0.285c-0.492,0-0.989-0.061-1.454-0.215
				c-0.353-0.117-2.172-0.579-1.998-1.705c0.091-0.576,1.348-0.69,2.684-0.69c0.872,0,1.778,0.049,2.416,0.049
				c0.044,0,0.087-0.001,0.128-0.001c0.467-0.332,1.176-0.849,1.731-1.182c0.007-0.315-0.039-0.537-0.051-0.695
				c-0.424-5.979-2.442-16.691-3.647-22.579c-1.17-5.729-5.525-22.756-5.525-22.756L88.803,197.53 M89.57,196.233l-1.064,0.326
				l-2.039,0.624l-0.927,0.283l0.24,0.939c0.043,0.17,4.362,17.068,5.514,22.707c1.508,7.365,3.253,17.129,3.63,22.448
				c0.002,0.029,0.005,0.06,0.008,0.092c-0.349,0.232-0.705,0.486-1,0.697c-0.24-0.004-0.511-0.012-0.797-0.02
				c-0.452-0.014-0.942-0.028-1.423-0.028c-0.003,0-0.006,0-0.01,0c-1.206,0-3.435,0.005-3.677,1.549
				c-0.195,1.267,0.678,2.207,2.594,2.799l0.087,0.027c0.472,0.156,0.995,0.245,1.559,0.263c-0.856,1.035-1.907,2.182-3.144,3.426
				c-3.163,3.188-5.812,5.043-7.745,6.397c-1.262,0.885-2.259,1.583-2.922,2.326c-0.671,0.753-0.644,1.443-0.567,1.788
				c0.122,0.554,0.521,1.015,1.098,1.265c0.559,0.246,1.224,0.371,1.97,0.371c1.266,0,2.688-0.369,4.006-1.039
				c2.03-1.036,3.908-2.815,7.176-6.8c1.854-2.259,3.203-4.374,4.097-5.774c0.076-0.119,0.154-0.241,0.232-0.362
				c0.548,2.993,0.32,9.67,0.235,12.15l-0.035,1.067c-0.052,1.618,0.778,3.737,1.931,4.929c0.622,0.642,1.315,0.981,2.007,0.981
				c0.066,0,0.132-0.003,0.198-0.01c0.872-0.084,1.623-0.484,2.173-1.158c1.343-1.648,1.087-4.438,1.054-4.751
				c-0.117-1.079-0.478-2.652-0.896-4.475c-0.66-2.876-1.967-8.568-1.27-10.381c0.496,0.337,1.266,0.932,1.968,1.475
				c2.945,2.275,7.396,5.714,11.705,6.861c0.585,0.155,1.207,0.233,1.851,0.233c1.566,0,3.488-0.491,4.007-1.569
				c0.228-0.473,0.169-0.998-0.157-1.405c-1.018-1.27-4.197-2.838-9.301-5.29c-2.846-1.368-5.789-2.783-8.123-4.12
				c-0.377-0.217-0.762-0.428-1.14-0.636c-1.076-0.591-2.188-1.202-2.623-1.679c-0.67-1.265-3.06-12.118-4.349-17.97
				c-0.44-2-0.824-3.745-1.102-4.957c-1.246-5.429-4.766-22.342-4.801-22.512L89.57,196.233L89.57,196.233z"/>
		</g>
		<path d="M120.771,255.894c1.123,0.667,1.361,2.434,0.715,2.702c-0.668,0.278-1.265-1.33-2.42-1.595
			C118.57,256.888,120.771,255.894,120.771,255.894z"/>
		<path d="M101.699,269.303c0.322,1.266-0.76,2.683-1.406,2.417c-0.67-0.276,0.047-1.836-0.583-2.84
			C99.44,268.448,101.699,269.303,101.699,269.303z"/>
		<path d="M78.646,263.236c-1.068,0.753-1.17,2.531-0.506,2.751c0.688,0.227,1.16-1.424,2.292-1.776
			C80.917,264.06,78.646,263.236,78.646,263.236z"/>
	</g>
	<path fill="#009639" stroke="#000000" stroke-width="2" stroke-miterlimit="10" d="M20.709,139.135
		c2.475-2.409,9.004-5.915,10.994-6.559c1.991-0.658-5.851,1.875-1.047,2.638c4.793,0.757,11.553,2.286,21.477,4.552
		c12.547,2.884-12.459,79.69-12.051,80.747c-3.772-1.265-36.284-8.429-32.986-52.954C7.94,156.183,16.549,143.129,20.709,139.135z"
		/>
	<path fill="#009639" stroke="#000000" stroke-width="2" stroke-miterlimit="10" d="M125.436,135.178
		c-1.992-0.658-3.846,3.126-8.649,3.889c-4.792,0.757-11.553,2.286-21.478,4.552c-12.545,2.885,12.461,79.69,12.051,80.747
		c3.773-1.265,31.582-17.584,31.721-55.752C139.133,154.064,127.426,135.821,125.436,135.178z"/>
	<path fill="#FDE92B" stroke="#000000" stroke-width="2" stroke-miterlimit="10" d="M120.741,202.509
		c-6.161,16.387-10.391,29.77-43.724,30.182c-22.81,0.282-52.982-15.249-49.617-42.939c-1.816,1.967-1.362,2.287-3.171,4.324
		c-4.141-24.282,7.474-47.779,24.128-53.791c16.494-5.953,17.904-3.822,42.277-3.826c27.353-0.006,34.801,47.255,34.801,47.255
		l-9.095-8.233C116.341,175.479,126.387,187.49,120.741,202.509z"/>
	<g>
		<path fill="#E10717" stroke="#000000" stroke-width="2" stroke-miterlimit="10" d="M127.768,79.684
			c-4.021-4.023-2.438-35.847-17.777-46.055c-11.943-7.947-29.455-6.202-34.132-23.305c0,3.31-2.3,14.809-4.507,17.015
			c-1.102-5.516-5.435-19.091-6.538-24.606c-3.31,5.516-4.737,24.692,0.778,30.208c-7.721,0-9.604-19.176-8.5-24.692
			c-6.619,2.206-4.412,11.032-6.619,15.444c-1.104,2.205-3.805,0.757-15.072,8.396C15.91,45.304,13.411,82.526,11.219,86.185
			c-2.195,3.658-12.912,11.384-9.583,29.206c4.148,22.205,30.32,24.269,36.171,25c5.852,0.731,13.88,14.498,29.464,14.947
			c19.148,0.553,15.329-12.447,34.168-9.098c5.413,0.963,21.21-4.753,21.21-4.753C160.044,116.867,131.791,83.706,127.768,79.684z"
			/>
	</g>
	<polygon fill="none" points="93.473,121.265 94.541,120.656 93.445,121.293 93.445,121.29 93.49,121.265 	"/>
	<g>
		
			<ellipse transform="matrix(0.9923 -0.1242 0.1242 0.9923 -11.6245 11.8029)" fill="#FFFFFF" cx="88.881" cy="99.164" rx="11.385" ry="15.278"/>
		<path fill="#231F20" d="M100.178,97.75c0,0,0.031,0.327,0.089,0.941c0.069,0.611,0.104,1.521,0.055,2.671
			c-0.028,1.152-0.236,2.546-0.645,4.1c-0.423,1.549-1.136,3.25-2.294,4.871c-1.152,1.604-2.832,3.146-5.059,3.866
			c-0.27,0.112-0.556,0.172-0.845,0.229c-0.294,0.05-0.563,0.148-0.885,0.158c-0.289,0.022-0.58,0.044-0.873,0.065
			c-0.298,0.008-0.612-0.027-0.921-0.041c-1.225-0.121-2.458-0.436-3.588-1.033c-1.125-0.589-2.196-1.339-3.124-2.262
			c-0.91-0.933-1.755-1.964-2.414-3.119c-1.381-2.283-2.201-4.878-2.588-7.576c-0.119-1.285-0.205-2.675-0.073-4.011
			c0.088-1.339,0.342-2.661,0.719-3.934c0.354-1.282,0.921-2.488,1.569-3.619c0.671-1.123,1.525-2.114,2.472-2.962
			c1.906-1.687,4.435-2.551,6.729-2.354c2.356,0.149,4.35,1.23,5.866,2.502c1.521,1.286,2.631,2.76,3.423,4.157
			c0.778,1.404,1.323,2.705,1.635,3.814c0.331,1.104,0.521,1.991,0.604,2.602C100.127,97.425,100.178,97.75,100.178,97.75z
			 M100.178,97.75c0,0-0.056-0.324-0.159-0.932c-0.092-0.609-0.295-1.494-0.64-2.589c-0.326-1.103-0.887-2.391-1.68-3.776
			c-0.809-1.371-1.917-2.84-3.471-4.037c-1.524-1.198-3.528-2.168-5.728-2.228c-2.228-0.107-4.521,0.788-6.26,2.427
			c-1.741,1.642-2.963,3.891-3.651,6.31c-0.341,1.214-0.565,2.475-0.631,3.751c-0.109,1.278-0.01,2.526,0.122,3.857
			c0.327,2.503,1.08,5.043,2.36,7.212c1.265,2.175,3.001,4.057,5.095,5.217c1.034,0.599,2.188,0.931,3.311,1.084
			c0.282,0.021,0.556,0.068,0.845,0.071c0.293-0.012,0.585-0.023,0.875-0.034c0.261,0.005,0.548-0.083,0.818-0.119
			c0.275-0.044,0.549-0.091,0.808-0.189c2.138-0.605,3.827-2.034,5.014-3.573c1.211-1.544,1.922-3.24,2.367-4.769
			c0.428-1.538,0.654-2.925,0.698-4.073c0.064-1.146,0.043-2.054-0.019-2.667C100.204,98.078,100.178,97.75,100.178,97.75z"/>
	</g>
	<g>
		
			<ellipse transform="matrix(0.9403 0.3403 -0.3403 0.9403 36.5948 -10.8393)" fill="#FFFFFF" cx="49.198" cy="98.904" rx="11.385" ry="15.28"/>
		<path fill="#231F20" d="M59.903,102.778c0,0-0.121,0.306-0.349,0.879c-0.217,0.576-0.599,1.401-1.165,2.403
			c-0.549,1.014-1.368,2.161-2.438,3.36c-1.08,1.188-2.488,2.378-4.257,3.296c-1.755,0.906-3.952,1.518-6.263,1.146
			c-0.291-0.022-0.572-0.099-0.856-0.179c-0.284-0.09-0.568-0.125-0.86-0.262l-0.807-0.339c-0.269-0.128-0.533-0.302-0.802-0.454
			c-1.036-0.665-1.992-1.506-2.726-2.552c-0.735-1.036-1.349-2.191-1.756-3.435c-0.387-1.244-0.671-2.547-0.733-3.875
			c-0.195-2.654,0.263-5.363,1.13-7.908c0.946-2.485,2.351-4.903,4.191-6.801c0.897-0.981,1.951-1.798,3.042-2.511
			c1.109-0.695,2.32-1.19,3.548-1.516c2.466-0.636,5.11-0.258,7.065,0.96c2.031,1.204,3.315,3.072,4.088,4.895
			c0.771,1.837,1.09,3.654,1.161,5.258c0.055,1.605-0.051,3.012-0.277,4.142c-0.206,1.133-0.44,2.011-0.644,2.593
			C60.006,102.466,59.903,102.778,59.903,102.778z M59.903,102.778c0,0,0.098-0.313,0.282-0.902
			c0.194-0.584,0.416-1.465,0.605-2.597c0.211-1.131,0.296-2.533,0.22-4.128c-0.097-1.588-0.417-3.399-1.257-5.173
			c-0.813-1.761-2.158-3.534-4.091-4.587c-1.936-1.107-4.386-1.352-6.679-0.682c-2.297,0.671-4.407,2.119-6.12,3.961
			c-0.854,0.927-1.628,1.947-2.267,3.056c-0.674,1.081-1.163,2.263-1.637,3.474c-0.858,2.414-1.332,4.993-1.18,7.515
			c0.138,2.512,0.829,4.978,2.167,6.962c0.648,1.004,1.527,1.824,2.456,2.471c0.242,0.147,0.465,0.313,0.721,0.447l0.795,0.366
			c0.229,0.123,0.525,0.175,0.783,0.267c0.266,0.086,0.53,0.168,0.805,0.198c2.18,0.432,4.334-0.074,6.09-0.906
			c1.78-0.825,3.185-2.014,4.276-3.172c1.079-1.177,1.911-2.309,2.473-3.312c0.578-0.992,0.972-1.81,1.195-2.384
			C59.777,103.082,59.903,102.778,59.903,102.778z"/>
	</g>
	<path d="M95.018,98.561c0.775,5.016-1.238,9.488-4.508,9.992c-3.266,0.505-6.541-3.149-7.314-8.165
		c-0.777-5.016,1.238-9.492,4.502-9.998C90.965,89.886,94.242,93.545,95.018,98.561z"/>
	
		<ellipse transform="matrix(0.9832 -0.1824 0.1824 0.9832 -16.1342 18.2263)" fill="#F4FAFF" cx="91.037" cy="96.842" rx="1.505" ry="1.74"/>
	<path d="M54.67,100.13c-1.098,4.521-4.434,7.658-7.455,7.007c-3.019-0.651-4.577-4.843-3.48-9.365
		c1.097-4.521,4.438-7.664,7.456-7.013C54.211,91.411,55.766,95.606,54.67,100.13z"/>
	<path fill="#F4FAFF" d="M53.45,96.593c0.007,1.005-0.7,1.838-1.583,1.852c-0.882,0.014-1.602-0.792-1.605-1.799
		c-0.01-1.011,0.699-1.841,1.582-1.854C52.727,94.775,53.443,95.584,53.45,96.593z"/>
	<g>
		<path d="M88.297,80.773c0,0,0.513-0.422,1.457-0.738c0.471-0.154,1.05-0.273,1.688-0.271c0.318-0.005,0.648,0.045,0.979,0.114
			c0.327,0.067,0.669,0.214,0.948,0.342c0.287,0.129,0.618,0.307,0.878,0.501c0.274,0.189,0.524,0.404,0.744,0.632
			c0.44,0.459,0.746,0.975,0.928,1.439c0.357,0.942,0.274,1.606,0.274,1.606s-0.027-0.16-0.114-0.425
			c-0.081-0.265-0.229-0.634-0.471-1.03c-0.236-0.398-0.569-0.824-0.998-1.195c-0.218-0.181-0.444-0.365-0.702-0.516
			c-0.259-0.16-0.498-0.283-0.794-0.413c-0.304-0.137-0.561-0.22-0.848-0.298c-0.283-0.069-0.569-0.111-0.851-0.131
			c-0.562-0.043-1.102-0.002-1.564,0.061C88.923,80.577,88.297,80.773,88.297,80.773z"/>
	</g>
	<g>
		<path d="M43.671,84.098c0,0,0-0.663,0.356-1.595c0.181-0.461,0.456-0.983,0.864-1.474c0.199-0.249,0.447-0.472,0.711-0.684
			c0.26-0.21,0.591-0.38,0.866-0.515c0.282-0.14,0.631-0.282,0.946-0.358c0.319-0.092,0.646-0.147,0.961-0.173
			c0.634-0.048,1.226,0.045,1.7,0.199c0.955,0.324,1.414,0.811,1.414,0.811s-0.141-0.081-0.4-0.182
			c-0.256-0.106-0.635-0.228-1.095-0.293c-0.458-0.07-0.998-0.085-1.557,0.011c-0.278,0.052-0.564,0.11-0.845,0.214
			c-0.288,0.098-0.535,0.204-0.823,0.35c-0.299,0.147-0.526,0.293-0.769,0.465c-0.234,0.174-0.448,0.368-0.643,0.573
			c-0.391,0.406-0.702,0.85-0.948,1.246C43.917,83.489,43.671,84.098,43.671,84.098z"/>
	</g>
	<path fill="#FFD801" d="M106.288,149.926c2.86-0.377,16.265,22.417,12.524,22.286s-6.097,1.669-6.266,4.467
		c-0.318,5.303,17.282,23.414-10.789,46.036c-21.078,16.986,14.65-40.733-7.772-72.789
		C92.767,148.185,101.229,150.592,106.288,149.926z"/>
	<path fill="#026633" d="M119.84,145.669c-1.756-0.376,6.844-2.101,7.503-3.801c0.66-1.699,22.441,31.742-2.963,64.548
		C99.066,239.104,160.345,154.334,119.84,145.669z"/>
	<path fill="#026633" d="M30.893,142.91c1.679-0.638-6.844-2.101-7.504-3.801c-0.66-1.699-29.19,32.639-3.785,65.444
		C44.917,237.241-16.698,160.991,30.893,142.91z"/>
	<g>
		<path fill="#E0912F" d="M57.791,135.085c0,0-3.896,16.457,7.645,16.55c11.541,0.093,11.969-16.67,11.969-16.67L57.791,135.085z"/>
		<g>
			<path d="M57.791,135.085c-0.309,1.809-0.467,3.641-0.449,5.463c0.029,1.818,0.226,3.645,0.778,5.348
				c0.548,1.69,1.528,3.272,3.017,4.174c0.732,0.456,1.555,0.749,2.403,0.939c0.435,0.054,0.861,0.151,1.305,0.151
				c0.212,0.008,0.458,0.026,0.642,0.026l0.688-0.03c0.886-0.062,1.725-0.209,2.552-0.519c0.819-0.292,1.598-0.699,2.287-1.234
				c1.406-1.042,2.462-2.504,3.302-4.066c0.828-1.577,1.429-3.287,1.854-5.039c0.422-1.749,0.704-3.563,0.798-5.344l0.44,0.448
				c-3.27-0.001-6.539-0.064-9.808-0.094c-1.635-0.011-3.27-0.058-4.904-0.093S59.426,135.145,57.791,135.085z M57.791,135.085
				c1.634-0.079,3.269-0.136,4.902-0.191c1.634-0.055,3.269-0.121,4.902-0.152c3.269-0.069,6.537-0.173,9.806-0.214l0.459-0.006
				l-0.019,0.455c-0.078,1.885-0.345,3.716-0.76,5.538c-0.42,1.816-1.02,3.604-1.879,5.287c-0.866,1.674-2.057,3.233-3.616,4.376
				c-0.768,0.581-1.641,1.027-2.551,1.339c-0.896,0.329-1.886,0.489-2.827,0.54l-0.688,0.021c-0.274,0-0.486-0.023-0.732-0.035
				c-0.477-0.007-0.95-0.115-1.425-0.184c-0.94-0.211-1.857-0.577-2.664-1.122c-0.809-0.542-1.495-1.258-2.008-2.068
				c-0.52-0.808-0.888-1.691-1.15-2.594c-0.53-1.81-0.643-3.689-0.555-5.533C57.075,138.696,57.329,136.863,57.791,135.085z"/>
		</g>
	</g>
	<g>
		<path fill="#E0912F" d="M50.308,148.879c0,0,1.583-11.667,9.868-9.485c8.284,2.182,22.075,3.091,20.593-14.014
			c-0.262-18.932-11.39-34.344-26.327-22.413C43.507,113.948,43.872,133.292,50.308,148.879z"/>
		<g>
			<path d="M50.308,148.879c0.271-1.931,0.798-3.845,1.689-5.605c0.456-0.873,1.006-1.71,1.699-2.433
				c0.699-0.71,1.542-1.319,2.509-1.653c0.963-0.339,2.009-0.421,3.014-0.297c1.021,0.138,1.939,0.416,2.89,0.584
				c1.895,0.377,3.816,0.618,5.733,0.64c1.912,0.017,3.833-0.186,5.606-0.798c1.781-0.584,3.358-1.663,4.479-3.11
				c1.122-1.459,1.737-3.255,2.049-5.099c0.086-0.46,0.116-0.934,0.179-1.399l0.068-1.417l-0.02-1.426l-0.093-1.429l-0.002-0.032
				l-0.001-0.016c-0.072-3.727-0.552-7.453-1.548-11.03c-0.994-3.563-2.503-7.026-4.777-9.876c-1.143-1.407-2.465-2.673-4.009-3.563
				c-1.532-0.901-3.272-1.408-5.043-1.435c-1.771-0.026-3.55,0.4-5.209,1.128c-1.663,0.727-3.214,1.736-4.665,2.876l0.057-0.051
				l-1.018,1.078c-0.317,0.38-0.646,0.749-0.954,1.137c-0.608,0.78-1.185,1.586-1.708,2.428s-1.006,1.71-1.439,2.604
				c-0.442,0.889-0.844,1.801-1.19,2.734c-0.36,0.928-0.669,1.879-0.933,2.842c-0.275,0.959-0.502,1.935-0.689,2.918
				c-0.381,1.966-0.611,3.964-0.71,5.971c-0.053,1.003-0.07,2.01-0.053,3.016c0.011,1.006,0.053,2.013,0.13,3.017
				c0.064,1.006,0.157,2.01,0.281,3.012c0.116,1.002,0.267,2.001,0.441,2.995c0.346,1.99,0.794,3.966,1.34,5.915
				c0.274,0.975,0.571,1.942,0.88,2.908C49.609,146.974,49.95,147.929,50.308,148.879z M50.308,148.879
				c-0.817-1.857-1.562-3.753-2.178-5.691c-0.622-1.937-1.15-3.905-1.576-5.899c-0.861-3.984-1.293-8.076-1.182-12.174
				c0.053-2.048,0.239-4.096,0.584-6.123c0.169-1.014,0.378-2.023,0.638-3.02c0.25-1,0.546-1.99,0.896-2.962
				c0.336-0.977,0.731-1.935,1.171-2.872c0.437-0.939,0.939-1.849,1.479-2.734c0.54-0.887,1.139-1.737,1.771-2.562
				c0.32-0.41,0.663-0.802,0.994-1.202l1.062-1.144l0.02-0.021l0.037-0.029c1.511-1.204,3.143-2.29,4.941-3.094
				c1.792-0.802,3.767-1.304,5.783-1.288c2.014,0.013,4.023,0.584,5.756,1.586c1.741,0.997,3.221,2.368,4.442,3.901
				c2.43,3.096,3.961,6.731,4.968,10.437c1.004,3.718,1.467,7.555,1.513,11.384l-0.003-0.048l0.086,1.493l0.009,1.5l-0.085,1.505
				c-0.069,0.501-0.106,1.004-0.204,1.502c-0.347,1.99-1.095,3.973-2.397,5.597c-1.307,1.614-3.126,2.777-5.067,3.361
				c-1.938,0.617-3.962,0.774-5.944,0.712c-1.985-0.072-3.947-0.358-5.867-0.799c-0.964-0.211-1.913-0.531-2.821-0.687
				c-0.923-0.149-1.874-0.111-2.766,0.164c-1.808,0.556-3.185,2.069-4.12,3.737C51.317,145.101,50.669,146.963,50.308,148.879z"/>
		</g>
	</g>
	<path fill="#FFC60B" d="M49.757,138.198c0,0-6.5-28.25,12-37c0,0,3-0.5,2,2S48.257,107.448,49.757,138.198z"/>
</g>
</svg>
