<?xml version="1.0" encoding="utf-8"?>
<!-- Generator: Adobe Illustrator 16.0.4, SVG Export Plug-In . SVG Version: 6.00 Build 0)  -->
<!DOCTYPE svg PUBLIC "-//W3C//DTD SVG 1.1//EN" "http://www.w3.org/Graphics/SVG/1.1/DTD/svg11.dtd">
<svg version="1.1" id="Layer_1" xmlns="http://www.w3.org/2000/svg" xmlns:xlink="http://www.w3.org/1999/xlink" x="0px" y="0px"
	 width="8.623px" height="32.91px" viewBox="0 0 8.623 32.91" enable-background="new 0 0 8.623 32.91" xml:space="preserve">
<g>
	<polygon fill="#CFA768" points="2.586,0.614 8.025,0.624 7.029,20.97 7.015,21.209 6.214,32.179 0.867,32.058 1.653,20.789 	"/>
	<path fill="#010101" d="M2.586,0.515C4.398,0.29,6.212,0.148,8.025,0.035L8.605,0l0.008,0.651c0.023,2.64,0.01,5.275-0.098,7.908
		c-0.068,2.633-0.271,5.261-0.594,7.883c-0.281,2.615-0.619,5.254-0.828,7.877c-0.219,2.625-0.281,5.263-0.328,7.899l-0.008,0.493
		l-0.557,0.021c-1.785,0.062-3.568,0.137-5.353,0.163L0,32.91L0.03,32c0.088-2.625,0.239-5.244,0.356-7.867
		c0.045-1.301,0.16-2.646,0.222-3.905c0.046-1.312,0.157-2.62,0.233-3.931c0.176-2.618,0.397-5.234,0.666-7.851l0.434-3.921
		C2.119,3.22,2.271,1.914,2.484,0.61l0.014-0.085L2.586,0.515z M2.69,0.724c0.087,1.283,0.12,2.563,0.175,3.845l0.07,3.944
		c0.025,2.627,0.005,5.254-0.062,7.878c-0.045,1.312-0.055,2.624-0.13,3.936c-0.074,1.358-0.176,2.632-0.302,3.948
		c-0.248,2.613-0.462,5.229-0.738,7.842l-0.817-0.897c1.781,0.109,3.561,0.264,5.339,0.407l-0.564,0.513
		c0.336-2.616,0.658-5.233,0.824-7.863c0.076-1.31,0.168-2.639,0.148-3.938l-0.053-3.959c-0.064-2.642-0.01-5.275,0.18-7.902
		c0.15-2.631,0.395-5.256,0.676-7.879l0.586,0.617C6.246,1.095,4.469,0.946,2.69,0.724z"/>
</g>
</svg>
