<?xml version="1.0" encoding="utf-8"?>
<!-- Generator: Adobe Illustrator 16.0.4, SVG Export Plug-In . SVG Version: 6.00 Build 0)  -->
<!DOCTYPE svg PUBLIC "-//W3C//DTD SVG 1.1//EN" "http://www.w3.org/Graphics/SVG/1.1/DTD/svg11.dtd">
<svg version="1.1" id="Layer_1" xmlns="http://www.w3.org/2000/svg" xmlns:xlink="http://www.w3.org/1999/xlink" x="0px" y="0px"
	 width="127.507px" height="219.543px" viewBox="0 0 127.507 219.543" enable-background="new 0 0 127.507 219.543"
	 xml:space="preserve">
<g>
	<path fill="#39A935" stroke="#000000" stroke-miterlimit="10" d="M58.229,196.417c-0.211-23.647-0.92-45.785-2.679-52.467
		c-3.894-14.822-4.032-35.816,17.507-51.657l-2.828-1.039c-9.844,7.243-16.18,16.088-18.822,26.297
		c-2.092,8.121-1.884,17.119,0.66,26.744c1.118,4.256,1.617,13.308,1.782,24.699c-2.79-6.025-8.852-12.9-21.801-17.336
		c0,0-8.096,19.754,21.864,29.133c-0.061,31.862-1.663,25.498-0.29,37.771c0.128,1.145,3.289-0.104,4.059-0.18
		c0.139-0.02,0.838,0.922,0.572-18.897c5.175,3.378,22.375,11.248,41.866-16.438C100.119,183.047,79.412,171.478,58.229,196.417z"/>
</g>
<g id="Layer_2">
	<circle id="colour_x5F_6" fill="#A2008B" stroke="#000000" stroke-miterlimit="10" cx="63.753" cy="65.18" r="32.875"/>
	<circle opacity="0.3" stroke="#000000" stroke-miterlimit="10" cx="63.753" cy="65.18" r="32.875"/>
	<g>
		<path id="colour_x5F_5" fill="#FF00A4" stroke="#000000" stroke-miterlimit="10" d="M88.203,6.365
			c-4.951-3.839-13.197-3.581-15.314-3.448c0,0-9.587-4.137-16.358-1.586c-29.616,11.175-2.012,44.208,0.559,47.068
			c3.717,4.139,4.533,13.964,4.533,13.964l3.685,0.553c0,0,3.705-8.887,8.478-11.741C77.082,49.197,113.205,25.782,88.203,6.365z"/>
		<path id="colour_x5F_4" fill="#FF00A4" stroke="#000000" stroke-miterlimit="10" d="M15.082,22.59
			c-5.186,3.523-7.486,11.443-8.014,13.503c0,0-6.896,7.843-6.557,15.065c1.469,31.616,41.42,15.569,44.934,14.01
			c5.08-2.256,14.68,0.008,14.68,0.008l1.667-3.332c0,0-7.312-6.271-8.551-11.688C52.385,46.402,41.271,4.813,15.082,22.59z"/>
		<path id="colour_x5F_3" fill="#FF00A4" stroke="#000000" stroke-miterlimit="10" d="M7.917,97.144
			c1.749,6.021,8.571,10.656,10.366,11.791c0,0,5.322,8.985,12.301,10.897c30.527,8.367,27.614-34.584,27.211-38.408
			c-0.574-5.531,4.539-13.959,4.539-13.959l-2.648-2.613c0,0-8.224,5.013-13.765,4.519C42.094,69.026-0.896,66.743,7.917,97.144z"/>
		<path id="colour_x5F_2" fill="#FF00A4" stroke="#000000" stroke-miterlimit="10" d="M76.608,126.995
			c6.265,0.195,12.785-4.859,14.416-6.215c0,0,10.19-2.281,14.166-8.326c17.394-26.447-24.356-36.951-28.116-37.75
			c-5.437-1.163-11.875-8.632-11.875-8.632l-3.303,1.713c0,0,2.228,9.369,0.043,14.484C60.426,85.804,44.973,125.983,76.608,126.995
			z"/>
		<path id="colour_x5F_1" fill="#FF00A4" stroke="#000000" stroke-miterlimit="10" d="M126.224,70.89
			c2.127-5.896-0.668-13.659-1.451-15.63c0,0,0.973-10.398-3.543-16.046C101.451,14.5,78.56,50.963,76.636,54.291
			c-2.783,4.814-11.879,8.624-11.879,8.624l0.611,3.675c0,0,9.598,0.775,13.789,4.429C82.052,73.55,115.492,100.666,126.224,70.89z"
			/>
	</g>
	<g>
		<path d="M62.236,58.46c3.604-30.349,7.282-44.009,7.282-44.009S67.983,30.636,62.236,58.46z"/>
		<path d="M56.588,61.025C28.836,48.222,16.98,40.492,16.98,40.492S31.898,46.959,56.588,61.025z"/>
		<path d="M57.279,67.185C36.525,89.621,25.516,98.511,25.516,98.511S36.27,86.319,57.279,67.185z"/>
		<path d="M63.35,68.435c14.927,26.674,19.978,39.893,19.978,39.893S75.056,94.324,63.35,68.435z"/>
		<path d="M66.416,63.044c29.979-5.952,44.11-6.668,44.11-6.668S94.653,59.915,66.416,63.044z"/>
	</g>
	
		<circle fill="#FFBF0B" stroke="#000000" stroke-linecap="round" stroke-linejoin="round" stroke-miterlimit="10" cx="63.753" cy="67.299" r="18"/>
</g>
</svg>
