<?xml version="1.0" encoding="utf-8"?>
<!-- Generator: Adobe Illustrator 16.0.4, SVG Export Plug-In . SVG Version: 6.00 Build 0)  -->
<!DOCTYPE svg PUBLIC "-//W3C//DTD SVG 1.1//EN" "http://www.w3.org/Graphics/SVG/1.1/DTD/svg11.dtd">
<svg version="1.1" id="Layer_1" xmlns="http://www.w3.org/2000/svg" xmlns:xlink="http://www.w3.org/1999/xlink" x="0px" y="0px"
	 width="886.96px" height="431.497px" viewBox="0 0 886.96 431.497" enable-background="new 0 0 886.96 431.497"
	 xml:space="preserve">
<g>
	<polygon fill="#D3B798" points="874.513,123.44 28.727,123.44 1.378,68.31 52.824,3.195 835.319,3.195 885.949,67.213 	"/>
	<path d="M874.756,123.737l-26.674,0.358l-26.431,0.271l-52.861,0.532l-105.725,0.703c-70.481,0.342-140.964,0.542-211.446,0.518
		c-70.482-0.004-140.964-0.655-211.446-1.118c-70.482-0.599-140.964-0.762-211.447-0.604l-0.591,0.002l-0.267-0.533L0.33,68.83
		L0,68.172l0.459-0.589L51.536,2.177l0.483-0.618l0.806-0.006l97.812-0.66l97.812-0.431L444.072,0l97.812,0.064l97.812,0.312
		l97.812,0.466l48.905,0.315l48.906,0.38l0.814,0.007l0.485,0.622l25.077,32.197l24.99,32.265l0.274,0.354l-0.09,0.418
		L874.756,123.737z M874.266,123.137l10.761-56.111l0.184,0.771l-25.639-31.752l-25.553-31.82l1.3,0.629l-48.906,0.38l-48.905,0.315
		l-97.812,0.466l-97.812,0.312l-97.812,0.064L248.448,5.929l-97.812-0.431l-97.812-0.66l1.289-0.624L2.297,69.035l0.13-1.246
		l27.157,55.226l-0.858-0.531c70.482,0.157,140.964-0.006,211.447-0.604c70.482-0.463,140.964-1.114,211.446-1.118
		c70.482-0.024,140.965,0.176,211.446,0.518l105.725,0.703l52.861,0.532l26.431,0.271L874.266,123.137z"/>
</g>
<line fill="none" stroke="#000000" stroke-width="4" stroke-miterlimit="10" x1="52.12" y1="3.195" x2="52.12" y2="124.056"/>
<line fill="none" stroke="#000000" stroke-width="4" stroke-miterlimit="10" x1="830.507" y1="4.93" x2="830.507" y2="125.789"/>
<g>
	<path fill="#937963" d="M16.618,81.89c0,0,2.547-7.873,7.003-8.589c0,0-0.637-20.755,10.823-24.333c0,0,3.82-17.177,17.826-15.029
		c0,0,14.644-17.177,59.211-5.727c0,0,10.186-9.78,21.647,0.239c0,0,17.826-8.827,40.109-3.102c0,0,28.015-10.735,72.582,0.716
		c0,0,7.64-4.294,14.643-1.432c0,0,50.298-8.588,77.673,0.716c0,0,11.461-6.441,19.737,0c0,0,33.744-11.451,80.222-0.716
		c0,0,8.913-6.441,20.373,0.716c0,0,48.388-27.196,91.044-3.579c0,0,9.55-2.862,15.916,0.716c0,0,18.464-10.734,43.932-3.578
		c0,0,26.104-13.599,56.663,1.432c0,0,23.557-5.726,35.017,1.431c0,0,33.744-7.872,54.117,0.716c0,0,5.094-4.294,10.824-0.716
		c0,0,33.742-10.019,48.386,2.147c0,0,12.097-5.01,21.647,10.735c0,0,7.004,1.432,8.914,10.735c0,0,19.1,3.579,25.891,32.684
		l-1.803,76.348l-851.013,5.976C18.002,160.396,0.064,88.331,16.618,81.89z"/>
	<path d="M16.421,81.709c0.619-1.813,1.417-3.553,2.483-5.161c0.548-0.813,1.175-1.589,1.935-2.249
		c0.754-0.656,1.676-1.196,2.72-1.376l-0.322,0.39c-0.059-2.398,0.08-4.768,0.367-7.138c0.293-2.365,0.752-4.721,1.478-7.014
		c0.734-2.285,1.738-4.526,3.225-6.49c1.469-1.96,3.533-3.581,5.938-4.341l-0.453,0.492c0.526-2.184,1.305-4.219,2.302-6.196
		c1.004-1.964,2.254-3.832,3.836-5.435c1.578-1.597,3.526-2.905,5.711-3.622c2.182-0.731,4.532-0.835,6.764-0.514l-0.815,0.304
		c0.991-1.088,2.005-1.874,3.102-2.663c1.089-0.77,2.227-1.455,3.396-2.076c2.339-1.239,4.801-2.215,7.315-2.985
		c5.036-1.54,10.271-2.268,15.49-2.48c5.227-0.213,10.451,0.129,15.613,0.796c5.164,0.675,10.271,1.697,15.309,2.959l-1.266,0.333
		c0.873-0.803,1.696-1.385,2.615-1.963c0.907-0.563,1.86-1.055,2.854-1.464c1.984-0.817,4.15-1.297,6.344-1.289
		c2.192-0.004,4.381,0.489,6.363,1.358c1.991,0.863,3.778,2.079,5.374,3.453l-1.628-0.211c3.301-1.54,6.581-2.565,9.991-3.42
		c3.395-0.831,6.854-1.395,10.339-1.684c6.969-0.583,14.053-0.041,20.86,1.673l-1.035,0.06c3.094-1.112,6.062-1.828,9.136-2.48
		c3.055-0.632,6.13-1.118,9.218-1.486c6.175-0.735,12.393-0.996,18.596-0.849c12.409,0.288,24.743,2.137,36.743,5.178l-1.485,0.194
		c1.344-0.718,2.543-1.186,3.873-1.621c1.309-0.418,2.659-0.733,4.048-0.915c2.762-0.369,5.744-0.164,8.486,0.952l-1.125-0.124
		c6.536-1.077,13.021-1.873,19.567-2.504c6.539-0.613,13.101-1.031,19.684-1.179c6.582-0.144,13.187-0.027,19.793,0.559
		c6.598,0.607,13.229,1.623,19.685,3.78l-1.791,0.165c0.943-0.509,1.741-0.857,2.631-1.218c0.871-0.347,1.757-0.653,2.661-0.917
		c1.806-0.526,3.683-0.889,5.618-0.995c1.932-0.106,3.931,0.049,5.875,0.586c1.943,0.529,3.81,1.46,5.407,2.702l-2.093-0.353
		c3.435-1.094,6.716-1.849,10.108-2.533c3.371-0.666,6.76-1.201,10.161-1.626c6.801-0.848,13.646-1.253,20.489-1.26
		c13.686-0.017,27.361,1.587,40.668,4.718l-1.75,0.354c0.562-0.386,0.948-0.593,1.423-0.846c0.456-0.236,0.916-0.449,1.382-0.644
		c0.932-0.389,1.886-0.705,2.86-0.947c1.946-0.486,3.968-0.681,5.969-0.574c4.019,0.2,7.851,1.645,11.11,3.703l-2.132-0.049
		c3.664-1.956,7.292-3.53,11.051-5c3.745-1.446,7.555-2.717,11.416-3.808c7.721-2.179,15.662-3.643,23.691-4.178
		c8.023-0.532,16.144-0.113,24.055,1.492c7.908,1.599,15.583,4.412,22.615,8.363l-1.21-0.13c1.458-0.4,2.808-0.646,4.233-0.838
		c1.411-0.184,2.84-0.28,4.281-0.264c2.865,0.044,5.873,0.516,8.573,2.036l-1.462,0.011c1.814-0.983,3.551-1.695,5.377-2.376
		c1.812-0.664,3.654-1.232,5.517-1.712c3.725-0.959,7.532-1.568,11.361-1.833c7.661-0.538,15.394,0.346,22.741,2.459l-0.88,0.091
		c2.337-1.129,4.642-1.943,7.03-2.683c2.377-0.724,4.793-1.31,7.23-1.764c4.877-0.908,9.848-1.292,14.801-1.13
		c4.951,0.165,9.887,0.854,14.682,2.084c4.797,1.225,9.451,2.979,13.877,5.175l-0.616-0.068c2.972-0.67,5.922-1.148,8.915-1.517
		c2.987-0.359,5.995-0.583,9.016-0.606c3.018-0.023,6.053,0.154,9.058,0.677c2.994,0.529,5.997,1.424,8.669,3.078l-0.608-0.102
		c4.519-0.989,9.04-1.703,13.604-2.261c4.56-0.546,9.146-0.9,13.745-0.995c4.598-0.09,9.212,0.074,13.794,0.662
		c4.572,0.599,9.143,1.583,13.455,3.385l-0.794,0.121c0.872-0.688,1.745-1.159,2.714-1.56c0.959-0.387,1.979-0.646,3.025-0.737
		c2.099-0.2,4.252,0.392,5.998,1.499l-0.643-0.087c4.068-1.153,8.158-2.017,12.305-2.697c4.144-0.668,8.33-1.119,12.542-1.235
		c4.208-0.107,8.456,0.106,12.632,0.962c4.148,0.863,8.309,2.403,11.693,5.199l-0.897-0.136c2.308-0.826,4.593-0.967,6.905-0.721
		c2.295,0.266,4.521,1.027,6.516,2.155c4.016,2.272,7.037,5.836,9.354,9.633l-0.605-0.427c1.422,0.357,2.541,0.953,3.65,1.703
		c1.086,0.752,2.05,1.671,2.868,2.697c1.643,2.062,2.644,4.54,3.167,7.045l-0.777-0.765c1.98,0.444,3.672,1.166,5.375,2.019
		c1.681,0.859,3.273,1.873,4.773,3.007c2.999,2.268,5.609,5.016,7.812,8.036c4.414,6.063,7.191,13.125,8.909,20.312l0.033,0.142
		l-0.003,0.157l-1.405,76.356l-0.029,1.53l-1.546,0.019l-106.373,1.232l-106.374,1.046l-212.751,1.799l-106.377,0.592l-106.38,0.374
		c-70.919,0.288-141.84,0.328-212.761,0.327h-0.785l-0.173-0.744c-1.55-6.648-2.883-13.312-4.07-20.017
		c-1.176-6.703-2.186-13.438-2.906-20.21c-0.699-6.771-1.183-13.589-0.872-20.417c0.173-3.407,0.525-6.832,1.432-10.155
		c0.46-1.654,1.072-3.288,1.995-4.769C13.519,83.626,14.805,82.347,16.421,81.709z M16.708,82.123
		c-1.527,0.605-2.726,1.841-3.562,3.259c-0.848,1.423-1.41,3.015-1.825,4.635c-0.817,3.255-1.098,6.638-1.198,10.006
		c-0.158,6.754,0.407,13.519,1.223,20.237c0.829,6.721,1.946,13.408,3.228,20.062c1.291,6.648,2.735,13.285,4.379,19.838
		l-0.958-0.744c70.915-0.997,141.829-1.952,212.745-2.66l106.374-1.121l106.375-0.901l212.756-1.188l106.379-0.448l106.379-0.262
		l-1.574,1.549l2.2-76.339l0.03,0.299c-1.596-6.982-4.211-13.787-8.349-19.585c-2.064-2.889-4.507-5.508-7.308-7.667
		c-1.398-1.079-2.884-2.044-4.442-2.86c-1.54-0.802-3.237-1.512-4.814-1.881l-0.655-0.153l-0.122-0.611
		c-0.455-2.284-1.33-4.476-2.732-6.271c-0.697-0.896-1.524-1.688-2.45-2.334c-0.904-0.636-2.001-1.178-2.958-1.42l-0.411-0.104
		l-0.194-0.322c-2.196-3.636-5.031-6.957-8.659-9.022c-1.804-1.027-3.791-1.713-5.838-1.957c-2.018-0.244-4.21-0.069-6.024,0.576
		l-0.515,0.183l-0.383-0.318c-3.062-2.555-6.949-4.036-10.92-4.875c-3.994-0.834-8.125-1.062-12.24-0.97
		c-4.121,0.099-8.241,0.526-12.327,1.17c-4.078,0.653-8.159,1.503-12.112,2.608l-0.352,0.099l-0.292-0.186
		c-1.51-0.959-3.271-1.442-5.03-1.286c-0.877,0.073-1.748,0.29-2.58,0.622c-0.816,0.326-1.654,0.791-2.299,1.298l-0.377,0.296
		l-0.418-0.175c-4.127-1.735-8.567-2.741-13.049-3.308c-4.487-0.565-9.032-0.717-13.569-0.615
		c-4.539,0.104-9.076,0.466-13.589,1.018c-4.506,0.561-9.02,1.288-13.428,2.265l-0.328,0.072l-0.281-0.174
		c-2.417-1.489-5.235-2.339-8.098-2.835c-2.873-0.497-5.818-0.638-8.759-0.598c-2.942,0.045-5.889,0.284-8.817,0.659
		c-2.922,0.379-5.861,0.88-8.702,1.544l-0.323,0.075l-0.293-0.144c-8.656-4.232-18.193-6.658-27.811-6.838
		c-4.805-0.099-9.617,0.331-14.324,1.267c-2.354,0.468-4.682,1.062-6.965,1.787c-2.264,0.725-4.561,1.584-6.607,2.604l-0.431,0.215
		l-0.45-0.124c-7.118-1.955-14.557-2.71-21.891-2.106c-3.665,0.298-7.302,0.926-10.844,1.884c-1.771,0.479-3.519,1.04-5.227,1.69
		c-1.688,0.646-3.424,1.399-4.904,2.227l-0.736,0.411l-0.726-0.4c-2.073-1.146-4.61-1.561-7.151-1.562
		c-1.275,0-2.563,0.102-3.844,0.284c-1.265,0.18-2.59,0.447-3.748,0.78l-0.638,0.184l-0.573-0.313
		c-6.79-3.712-14.16-6.316-21.756-7.761c-7.598-1.451-15.4-1.766-23.131-1.162c-7.733,0.604-15.4,2.107-22.857,4.306
		c-3.729,1.1-7.406,2.375-11.015,3.816c-3.585,1.438-7.206,3.04-10.501,4.829l-1.096,0.596l-1.036-0.645
		c-2.809-1.745-5.932-2.868-9.107-3.006c-1.584-0.074-3.174,0.09-4.707,0.483c-0.767,0.195-1.518,0.451-2.241,0.757
		c-0.361,0.154-0.715,0.321-1.055,0.5c-0.318,0.165-0.714,0.402-0.891,0.526l-0.809,0.566l-0.942-0.213
		c-13.018-2.949-26.354-4.489-39.69-4.467c-6.667,0.016-13.333,0.42-19.937,1.252c-3.302,0.416-6.588,0.94-9.843,1.588
		c-3.228,0.648-6.541,1.407-9.547,2.357l-1.177,0.373l-0.916-0.726c-2.278-1.804-5.223-2.559-8.296-2.382
		c-1.534,0.079-3.093,0.368-4.621,0.81c-0.764,0.221-1.521,0.479-2.265,0.773c-0.723,0.285-1.515,0.642-2.101,0.956l-0.881,0.474
		l-0.91-0.308c-5.928-2.005-12.284-3.021-18.659-3.621c-6.39-0.586-12.85-0.723-19.31-0.601c-6.462,0.126-12.93,0.519-19.382,1.104
		c-6.442,0.586-12.92,1.337-19.265,2.343l-0.599,0.095l-0.527-0.219c-1.951-0.809-4.176-1.01-6.414-0.727
		c-1.119,0.14-2.241,0.391-3.341,0.735c-1.076,0.334-2.236,0.802-3.125,1.271l-0.738,0.389l-0.747-0.194
		c-11.719-3.05-23.755-4.93-35.841-5.287c-6.041-0.171-12.092,0.017-18.089,0.659c-2.998,0.323-5.981,0.762-8.931,1.338
		c-2.922,0.577-5.927,1.29-8.609,2.221l-0.544,0.188l-0.491-0.129c-6.418-1.692-13.124-2.284-19.765-1.805
		c-3.32,0.238-6.625,0.739-9.87,1.495c-3.217,0.758-6.491,1.767-9.394,3.082l-0.917,0.416l-0.712-0.628
		c-1.402-1.235-2.937-2.295-4.594-3.034c-1.653-0.746-3.425-1.162-5.216-1.181c-1.79-0.026-3.591,0.344-5.291,1.021
		c-1.675,0.666-3.363,1.685-4.643,2.812l-0.58,0.512l-0.686-0.179c-9.865-2.581-20.023-4.263-30.179-4.036
		c-5.066,0.118-10.13,0.736-14.978,2.126c-2.42,0.696-4.783,1.587-7.016,2.721c-1.116,0.566-2.198,1.194-3.225,1.894
		c-1.008,0.688-2.04,1.493-2.799,2.299l-0.356,0.378l-0.459-0.074c-2.007-0.323-4.065-0.263-5.98,0.341
		c-1.918,0.593-3.66,1.709-5.124,3.137c-1.466,1.433-2.669,3.154-3.651,4.996c-0.973,1.837-1.769,3.833-2.283,5.817l-0.1,0.388
		l-0.353,0.105c-2.129,0.634-3.986,2.022-5.378,3.808c-1.402,1.785-2.404,3.897-3.149,6.088c-0.746,2.196-1.252,4.484-1.591,6.798
		c-0.335,2.311-0.525,4.666-0.521,6.99v0.342l-0.322,0.048c-0.867,0.128-1.685,0.568-2.39,1.154
		c-0.709,0.586-1.322,1.306-1.866,2.074c-1.079,1.545-1.927,3.281-2.571,5.06l-0.041,0.114L16.708,82.123z"/>
</g>
<g>
	<g>
		<rect x="1.988" y="189.228" fill="#D3B798" width="883.338" height="120.244"/>
		<path d="M885.525,309.67l-55.408,0.431l-55.208,0.355l-110.417,0.477l-110.418,0.215l-110.417,0.104
			c-36.806-0.023-73.611-0.144-110.417-0.325l-110.417-0.505c-73.611-0.311-147.223-0.399-220.834-0.238l-0.708,0.001l-0.002-0.712
			l-0.16-60.122l-0.225-60.122l-0.004-1.09l1.099-0.005c73.611-0.348,147.223-0.591,220.834-0.738l220.834-0.3l110.417,0.066
			l110.418,0.241l110.416,0.32l110.418,0.518l0.994,0.005l-0.007,0.982L885.525,309.67z M885.125,309.271l-0.786-120.043
			l0.987,0.987l-110.418,0.518l-110.416,0.32l-110.418,0.241l-110.417,0.066l-220.834-0.3
			c-73.611-0.147-147.223-0.391-220.834-0.738l1.095-1.095L2.858,249.35l-0.16,60.122l-0.71-0.711
			c73.611,0.161,147.223,0.072,220.834-0.238l110.417-0.505c36.806-0.182,73.611-0.302,110.417-0.325l110.417,0.104l110.418,0.215
			l110.417,0.477l55.208,0.355L885.125,309.271z"/>
	</g>
	<g>
		<rect x="1.988" y="309.472" fill="#D3B798" width="883.338" height="120.245"/>
		<path d="M885.525,429.915l-55.408,0.431l-55.208,0.354l-110.417,0.479l-110.418,0.214l-110.417,0.104
			c-36.806-0.023-73.611-0.145-110.417-0.326l-110.417-0.505c-73.611-0.311-147.223-0.399-220.834-0.239l-0.708,0.002l-0.002-0.712
			l-0.16-60.122l-0.225-60.123l-0.004-1.09l1.099-0.005c73.611-0.348,147.223-0.591,220.834-0.737l220.834-0.301l110.417,0.066
			l110.418,0.241l110.416,0.32l110.418,0.518l0.994,0.005l-0.007,0.982L885.525,429.915z M885.125,429.516l-0.786-120.044
			l0.987,0.987l-110.418,0.518l-110.416,0.32l-110.418,0.241l-110.417,0.066l-220.834-0.301
			c-73.611-0.146-147.223-0.39-220.834-0.737l1.095-1.095l-0.225,60.123l-0.16,60.122l-0.71-0.71
			c73.611,0.16,147.223,0.071,220.834-0.239l110.417-0.505c36.806-0.182,73.611-0.303,110.417-0.326l110.417,0.104l110.418,0.214
			l110.417,0.479l55.208,0.354L885.125,429.516z"/>
	</g>
	<g>
		<rect x="1.988" y="69.982" fill="#D3B798" width="883.338" height="120.245"/>
		<path d="M885.525,190.426l-55.408,0.431l-55.208,0.355l-110.417,0.477l-110.418,0.215l-110.417,0.104
			c-36.806-0.023-73.611-0.144-110.417-0.325l-110.417-0.505c-73.611-0.311-147.223-0.399-220.834-0.238l-0.708,0.001l-0.002-0.712
			l-0.16-60.123L0.893,69.982l-0.004-1.09l1.099-0.005c73.611-0.348,147.223-0.592,220.834-0.738l220.834-0.3l110.417,0.066
			l110.418,0.241l110.416,0.32l110.418,0.518L886.32,69l-0.007,0.982L885.525,190.426z M885.125,190.026l-0.786-120.044l0.987,0.987
			l-110.418,0.518l-110.416,0.32l-110.418,0.241l-110.417,0.066l-220.834-0.3c-73.611-0.146-147.223-0.391-220.834-0.738
			l1.095-1.095l-0.225,60.122l-0.16,60.123l-0.71-0.711c73.611,0.161,147.223,0.072,220.834-0.238l110.417-0.505
			c36.806-0.182,73.611-0.302,110.417-0.325l110.417,0.104l110.418,0.215l110.417,0.477l55.208,0.355L885.125,190.026z"/>
	</g>
</g>
</svg>
