<?xml version="1.0" encoding="utf-8"?>
<!-- Generator: Adobe Illustrator 16.0.4, SVG Export Plug-In . SVG Version: 6.00 Build 0)  -->
<!DOCTYPE svg PUBLIC "-//W3C//DTD SVG 1.1//EN" "http://www.w3.org/Graphics/SVG/1.1/DTD/svg11.dtd">
<svg version="1.1" id="Layer_1" xmlns="http://www.w3.org/2000/svg" xmlns:xlink="http://www.w3.org/1999/xlink" x="0px" y="0px"
	 width="133.458px" height="296.843px" viewBox="0 0 133.458 296.843" enable-background="new 0 0 133.458 296.843"
	 xml:space="preserve">
<path id="colour" fill="#0083CA" stroke="#1D1D1B" stroke-width="2" stroke-miterlimit="10" d="M122.918,184.617
	c-8.053-2.105-17.406-5.451-25.318-10.726c-18.21-12.14-24.299-28.495-16.409-44.882c4.335-8.998,16.269-19.093,26.159-26.371
	C94.568,77.483,72.19,15.505,67.317,5.227C61.73-6.56,42.259,6.765,36.108,23.624C29.961,40.485,1.876,50.733,1.876,50.733
	l-1.125,3.515c-1.935,16.785,5.736,16.42,10.349,31.23c4.612,14.812,15.835,62.368,22.958,75.639
	c5.916,11.021-13.146,46.924-21.262,72.524c8.558-0.558,20.79-0.22,29.429,4.817c10.867,6.338,29.822,22.459,38.766,30.25
	c1.34-2.058,2.426-3.972,3.116-5.568C88.02,254.052,109.612,211.636,122.918,184.617z"/>
<path fill="#EAC300" stroke="#1D1D1B" stroke-width="2" stroke-miterlimit="10" d="M12.796,233.641
	c-1.656,5.237-2.869,10.05-3.305,14.125c-2.562,23.983,21.914,46.53,33.746,48.051c13.032,1.673,30.098-15.383,37.752-27.108
	c-8.941-7.791-27.897-23.912-38.765-30.248C33.586,233.421,21.354,233.083,12.796,233.641z"/>
<path fill="#EAC300" stroke="#1D1D1B" stroke-width="2" stroke-miterlimit="10" d="M81.19,129.01
	c-7.891,16.387-1.801,32.742,16.409,44.882c7.911,5.273,17.267,8.619,25.319,10.727c2.381-4.828,4.502-9.175,6.201-12.74
	c11.223-23.521-6.101-46.529-16.859-60.83c-1.373-1.826-3.043-4.728-4.911-8.409C97.458,109.917,85.525,120.012,81.19,129.01z"/>
<path fill="none" stroke="#1D1D1B" stroke-width="2" stroke-miterlimit="10" d="M1.876,50.733c0,0,28.085-10.248,34.232-27.109
	C42.259,6.765,61.73-6.56,67.317,5.227c5.585,11.786,34.182,91.524,44.943,105.821c10.76,14.3,28.082,37.31,16.859,60.831
	c-11.224,23.521-40.402,80.551-45.015,91.262c-4.612,10.712-25.549,34.64-40.869,32.677c-11.832-1.521-36.309-24.065-33.746-48.051
	c2.562-23.981,31.692-73.377,24.566-86.649c-7.123-13.271-18.346-60.827-22.958-75.639C6.487,70.668-1.184,71.033,0.751,54.248
	L1.876,50.733z"/>
</svg>
