<?xml version="1.0" encoding="utf-8"?>
<!-- Generator: Adobe Illustrator 16.0.4, SVG Export Plug-In . SVG Version: 6.00 Build 0)  -->
<!DOCTYPE svg PUBLIC "-//W3C//DTD SVG 1.1//EN" "http://www.w3.org/Graphics/SVG/1.1/DTD/svg11.dtd">
<svg version="1.1" id="Layer_1" xmlns="http://www.w3.org/2000/svg" xmlns:xlink="http://www.w3.org/1999/xlink" x="0px" y="0px"
	 width="852.614px" height="42.347px" viewBox="0 0 852.614 42.347" enable-background="new 0 0 852.614 42.347"
	 xml:space="preserve">
<g>
	<path fill="#937963" d="M847.52,38.5c-1.925-0.872-3.959-1.5-6.012-2.026c-4.116-1.039-8.332-1.672-12.554-2.16
		c-4.226-0.479-8.472-0.79-12.723-0.997c-4.248-0.198-8.512-0.312-12.751-0.311l-0.198,0l-0.181-0.107
		c-4.407-2.597-9.537-3.863-14.643-4.686c-5.135-0.798-10.356-1.091-15.574-1.132c-5.221-0.035-10.447,0.197-15.658,0.609
		c-5.204,0.417-10.43,0.971-15.56,1.766l-0.705,0.109l-0.436-0.571c-1.207-1.583-3.051-2.749-5.02-3.63
		c-1.982-0.883-4.121-1.506-6.294-1.993c-4.36-0.96-8.875-1.393-13.391-1.614c-4.522-0.211-9.066-0.185-13.605-0.012
		c-1.055,0.042-2.112,0.093-3.168,0.149c0.328,0.363,0.644,0.736,0.931,1.134c-2.063-0.8-3.981-1.596-5.921-2.14
		c-1.93-0.558-3.852-0.879-5.772-0.913c-1.92-0.033-3.842,0.23-5.762,0.761c-1.927,0.526-3.833,1.299-5.795,2.292
		c1.127-1.928,2.915-3.408,4.921-4.475c0.051-0.026,0.104-0.049,0.155-0.075c-1.056-0.512-2.148-0.97-3.26-1.377
		c-3.334-1.207-6.858-1.997-10.421-2.562c-7.143-1.108-14.456-1.353-21.748-1.237c-7.299,0.13-14.604,0.655-21.883,1.429
		c-7.27,0.784-14.558,1.794-21.717,3.104l-0.602,0.11l-0.527-0.317c-0.791-0.476-1.903-0.806-3.04-1.022
		c-1.146-0.218-2.349-0.344-3.563-0.419c-2.433-0.154-4.919-0.117-7.404,0.002c-2.487,0.123-4.981,0.336-7.471,0.606
		c-2.484,0.272-4.989,0.6-7.434,0.993l-0.502,0.081l-0.44-0.221c-3.536-1.773-7.44-2.895-11.417-3.633
		c-3.984-0.734-8.061-1.087-12.148-1.201c-4.089-0.111-8.196,0.019-12.291,0.33c-0.24,0.019-0.48,0.043-0.72,0.063
		c1.328,0.645,2.598,1.397,3.76,2.321c-2.385-0.347-4.641-0.798-6.891-1.125c-2.244-0.338-4.463-0.588-6.681-0.697
		c-2.217-0.109-4.431-0.079-6.658,0.129c-2.231,0.206-4.462,0.559-6.771,1.192c1.178-1.197,2.632-2.067,4.182-2.725
		c-2.925-0.783-5.916-1.365-8.931-1.774c-5.405-0.739-10.895-0.956-16.378-0.815c-5.485,0.143-10.969,0.643-16.415,1.419
		c-5.435,0.784-10.882,1.825-16.156,3.203l-0.442,0.116l-0.375-0.201c-1.743-0.934-3.596-1.679-5.451-1.878
		c-0.922-0.097-1.838-0.046-2.671,0.206c-0.415,0.126-0.809,0.3-1.164,0.523c-0.337,0.201-0.714,0.544-0.86,0.737l-0.52,0.687
		l-0.725-0.323c-7.136-3.183-15.134-4.221-23.009-4.058c-1.966,0.042-3.931,0.162-5.892,0.348c3.134,1.037,6.14,2.429,8.89,4.203
		c-4.161-1.211-8.28-2.199-12.446-2.808c-4.162-0.618-8.35-0.85-12.536-0.783c-2.095,0.013-4.188,0.147-6.278,0.347
		c-2.096,0.165-4.177,0.479-6.266,0.787c-4.168,0.686-8.32,1.587-12.473,2.791c3.408-2.184,7.21-3.7,11.112-4.822
		c-1.633-0.247-3.279-0.436-4.929-0.571c-2.943-0.233-5.901-0.307-8.859-0.276c-2.954,0.036-5.924,0.165-8.853,0.438l-0.157,0.015
		l-0.134-0.068c-6.369-3.246-13.207-5.549-20.22-6.969c-7.015-1.44-14.207-1.955-21.367-1.781
		c-7.164,0.174-14.307,1.024-21.333,2.429c-1.947,0.395-3.891,0.83-5.825,1.304c3.346,1.029,6.547,2.447,9.481,4.302
		c-3.625-0.835-7.163-1.675-10.713-2.251c-3.551-0.557-7.097-0.888-10.62-0.792c-3.521,0.088-7.008,0.61-10.38,1.649
		c-3.352,1.079-6.622,2.606-9.537,4.894c1.481-2.32,3.61-4.186,6.001-5.641c-3.946-0.584-7.938-0.765-11.902-0.425
		c-3.766,0.321-7.49,1.095-11.04,2.351c-1.773,0.629-3.503,1.375-5.162,2.247c-1.639,0.865-3.293,1.881-4.642,2.994l-0.479,0.396
		l-0.565-0.215c-4.5-1.713-9.184-2.931-13.94-3.684c-4.757-0.757-9.585-1.032-14.404-0.942c-4.82,0.086-9.635,0.571-14.386,1.41
		c-1.512,0.271-3.022,0.589-4.529,0.93c0.539,0.327,1.062,0.678,1.549,1.08c-2.059-0.169-3.967-0.367-5.853-0.413
		c-1.881-0.054-3.721,0.021-5.551,0.228s-3.648,0.549-5.48,1.009c-1.836,0.459-3.672,1.013-5.616,1.676
		c0.916-1.254,2.104-2.262,3.41-3.088c-1.782-0.439-3.579-0.815-5.393-1.083c-4.297-0.629-8.661-0.827-12.995-0.487
		c-4.333,0.331-8.63,1.158-12.783,2.453c-2.076,0.648-4.116,1.412-6.102,2.293c-1.966,0.877-3.956,1.892-5.683,3.015l-0.726,0.472
		l-0.666-0.46c-1.271-0.879-2.997-0.96-4.708-0.529c-0.856,0.212-1.709,0.534-2.536,0.93c-0.815,0.39-1.659,0.876-2.352,1.367
		l-0.558,0.395l-0.604-0.243c-5.849-2.349-12.16-3.658-18.397-3.141c-3.111,0.252-6.176,0.966-9.068,2.116
		c-0.726,0.29-1.44,0.608-2.141,0.954c1.223,0.573,2.342,1.328,3.301,2.286c-1.8-0.142-3.447-0.384-5.052-0.492
		c-1.6-0.123-3.137-0.122-4.623,0.06c-2.977,0.36-5.736,1.533-8.576,3.683c0.306-1.4,1.087-2.658,2.112-3.702
		c-1.925-0.547-3.892-0.951-5.882-1.202c-4.102-0.521-8.286-0.419-12.4,0.186c-4.117,0.605-8.167,1.701-12.079,3.171
		c-3.894,1.483-7.728,3.293-11.224,5.504l-0.254,0.16l-0.259-0.067c-3.07-0.802-6.192-1.42-9.344-1.695
		c-3.146-0.27-6.341-0.21-9.41,0.491c-3.06,0.688-5.986,2.102-8.221,4.32c-2.223,2.198-3.761,5.152-4.217,8.268l852.001,0.816
		C851.291,40.473,849.378,39.371,847.52,38.5z M80.181,24.854l-0.575-0.271l1.054-0.188L80.181,24.854z M179.133,25.07
		c-1.401-0.233-2.809-0.385-4.211-0.424c-1.4-0.065-2.799-0.024-4.178,0.128c-2.76,0.282-5.448,0.989-7.953,2.102
		c-1.257,0.544-2.466,1.197-3.606,1.945c-0.57,0.375-1.121,0.776-1.651,1.194c-0.521,0.399-1.079,0.877-1.466,1.269l-0.672,0.68
		l-0.848-0.268c-2.333-0.739-4.727-1.242-7.14-1.575c-2.417-0.31-4.865-0.373-7.306-0.202c-2.438,0.201-4.875,0.62-7.249,1.349
		c-2.373,0.721-4.705,1.679-6.873,3.013c1.804-1.819,4.039-3.196,6.38-4.303c2.359-1.08,4.879-1.87,7.47-2.279
		c2.588-0.439,5.238-0.527,7.858-0.309c2.331,0.163,4.625,0.63,6.869,1.244c0.967-0.902,1.947-1.621,3.021-2.304
		c1.301-0.822,2.668-1.529,4.086-2.114c2.841-1.156,5.887-1.783,8.921-1.872c1.518-0.036,3.031,0.051,4.522,0.25
		c1.49,0.213,2.95,0.558,4.377,0.973c2.842,0.887,5.541,2.123,7.995,3.715C184.717,26.328,181.943,25.518,179.133,25.07z
		 M342.085,23.411c-2.13-0.428-4.319-0.375-6.476-0.111c-2.161,0.269-4.293,0.805-6.392,1.438c-1.048,0.326-2.084,0.694-3.105,1.099
		c-1.016,0.384-2.064,0.814-2.992,1.262l-0.677,0.327l-0.666-0.358c-1.296-0.699-2.659-1.202-4.024-1.503
		c-1.366-0.297-2.755-0.317-4.079-0.01c-1.318,0.314-2.596,0.888-3.732,1.739c-1.12,0.828-2.176,1.961-2.927,3.057l-0.819,1.195
		l-0.954-0.842c-1.815-1.602-4.069-2.688-6.539-2.704c-1.229-0.039-2.484,0.186-3.705,0.581c-1.217,0.403-2.417,0.959-3.518,1.701
		c0.895-0.99,1.981-1.82,3.184-2.475c1.202-0.656,2.543-1.106,3.954-1.296c1.412-0.168,2.883-0.037,4.273,0.376
		c0.961,0.289,1.864,0.725,2.713,1.239c0.752-1.121,1.637-2.067,2.674-2.942c1.346-1.114,2.953-2.022,4.721-2.444
		c1.759-0.444,3.617-0.441,5.349-0.096c1.497,0.287,2.887,0.852,4.19,1.519c1.961-0.85,3.915-1.496,5.954-2.006
		c2.263-0.583,4.595-0.945,6.954-1.016c2.352-0.068,4.762,0.188,7,1.004c2.233,0.801,4.25,2.241,5.534,4.138
		C346.263,24.763,344.209,23.828,342.085,23.411z M496.211,27.849c-0.696,0.315-1.324,0.762-1.87,1.302
		c-0.525,0.529-1.071,1.173-1.386,1.75l-0.477,0.874l-1.059-0.482c-2.299-1.046-4.691-1.773-7.151-2.107
		c-2.458-0.343-4.969-0.31-7.47,0.015c-2.499,0.333-5.004,0.901-7.468,1.701c-2.472,0.788-4.916,1.747-7.351,2.878
		c1.905-1.914,4.183-3.435,6.597-4.694c2.431-1.228,5.038-2.194,7.775-2.695c2.729-0.514,5.582-0.593,8.367-0.127
		c2.478,0.415,4.871,1.297,7.023,2.547c0.427-0.442,0.875-0.826,1.389-1.174c0.8-0.535,1.691-0.964,2.642-1.17
		c0.951-0.195,1.938-0.185,2.832,0.07c0.897,0.248,1.697,0.688,2.375,1.243C499.315,27.222,497.594,27.169,496.211,27.849z
		 M649.935,26.9c-1.083-0.205-2.184-0.22-3.271-0.083c-1.086,0.145-2.161,0.381-3.208,0.722c-1.034,0.337-2.094,0.77-3.012,1.228
		l-0.56,0.279l-0.581-0.412c-2.07-1.466-4.292-2.667-6.63-3.488c-2.347-0.786-4.787-1.26-7.26-1.26
		c-2.465-0.006-4.953,0.31-7.355,1.014c-2.388,0.662-4.811,1.655-6.874,2.885l-0.543,0.323l-0.458-0.138
		c-2.425-0.734-5.139-0.563-7.733,0.199c-1.302,0.375-2.587,0.884-3.832,1.5c-1.247,0.612-2.473,1.304-3.638,2.111
		c0.939-1.068,2.019-2.018,3.176-2.873c1.165-0.844,2.414-1.598,3.755-2.198c1.345-0.587,2.776-1.043,4.278-1.262
		c1.307-0.178,2.661-0.164,3.997,0.048c1.053-0.724,2.102-1.283,3.207-1.829c1.242-0.593,2.518-1.127,3.841-1.532
		c2.642-0.801,5.42-1.292,8.223-1.223c2.793,0.072,5.606,0.583,8.187,1.66c1.29,0.531,2.536,1.159,3.712,1.886
		c0.995,0.634,1.931,1.342,2.83,2.087c0.943-0.333,1.868-0.566,2.833-0.751c1.18-0.218,2.384-0.358,3.594-0.307
		c1.205,0.048,2.424,0.233,3.542,0.7c1.123,0.443,2.115,1.181,2.827,2.093C652.07,27.559,651.01,27.118,649.935,26.9z
		 M727.097,33.62c-0.819,0.223-1.604,0.522-2.436,0.836c-0.829,0.316-1.69,0.658-2.614,0.984c-0.931,0.321-1.9,0.634-3.067,0.84
		c0.353-1.145,1.023-2.047,1.804-2.822c0.792-0.764,1.732-1.389,2.802-1.802c1.063-0.411,2.286-0.612,3.505-0.395
		c1.208,0.21,2.395,0.917,2.888,2.019C728.783,33.24,727.92,33.395,727.097,33.62z"/>
	<path fill="#331F01" d="M850.484,39.761c-0.862-0.659-1.804-1.198-2.772-1.668c-1.942-0.935-3.986-1.617-6.049-2.198
		c-4.134-1.146-8.361-1.882-12.597-2.472c-4.239-0.582-8.498-0.993-12.763-1.301c-4.201-0.301-8.399-0.502-12.624-0.562
		c-4.602-2.761-9.797-4.109-14.943-5.029c-5.24-0.9-10.536-1.281-15.822-1.408c-5.288-0.12-10.574,0.03-15.845,0.361
		c-5.047,0.329-10.059,0.826-15.092,1.529c-1.525-1.774-3.489-2.965-5.458-3.879c-2.191-1.001-4.464-1.68-6.746-2.216
		c-4.572-1.053-9.198-1.536-13.812-1.808c-4.617-0.261-9.231-0.28-13.836-0.149c-2.103,0.063-4.198,0.157-6.294,0.28
		c-0.289-0.18-0.572-0.368-0.874-0.532c-1.995-1.063-4.29-1.698-6.622-1.73c-0.903-0.016-1.805,0.062-2.69,0.221
		c-1.925-1.212-3.987-2.16-6.067-2.92c-3.587-1.306-7.278-2.134-10.976-2.73c-7.407-1.165-14.86-1.421-22.273-1.321
		c-7.417,0.117-14.806,0.633-22.161,1.399c-7.179,0.76-14.302,1.729-21.438,3.003c-1.19-0.601-2.366-0.909-3.516-1.143
		c-1.339-0.257-2.658-0.394-3.968-0.479c-2.619-0.155-5.2-0.096-7.766,0.04c-2.565,0.14-5.114,0.373-7.652,0.663
		c-2.382,0.275-4.738,0.598-7.12,0.985c-3.774-1.797-7.777-2.901-11.792-3.625c-4.185-0.747-8.405-1.085-12.613-1.18
		c-4.208-0.091-8.408,0.066-12.588,0.407c-2.38,0.199-4.742,0.455-7.104,0.771c-1.009-0.178-2.028-0.307-3.056-0.354
		c-1.468-0.071-2.947,0.011-4.406,0.223c-4.414-1.508-8.979-2.482-13.563-3.077c-5.589-0.709-11.215-0.874-16.809-0.678
		c-5.596,0.2-11.165,0.763-16.685,1.604c-5.381,0.838-10.696,1.883-15.987,3.327c-1.808-0.898-3.754-1.635-5.888-1.838
		c-1.138-0.102-2.333-0.032-3.485,0.334c-0.574,0.184-1.134,0.439-1.652,0.775c-0.32,0.218-0.604,0.434-0.883,0.704
		c-3.562-1.456-7.294-2.426-11.065-2.989c-4.018-0.599-8.078-0.764-12.112-0.62c-3.278,0.117-6.539,0.444-9.774,0.932
		c-3.992-0.939-8.111-1.387-12.217-1.304c-3.687,0.095-7.357,0.548-10.938,1.365c-2.57-0.482-5.163-0.785-7.757-0.965
		c-2.984-0.209-5.973-0.279-8.958-0.232c-2.936,0.05-5.858,0.191-8.794,0.474c-6.436-3.226-13.324-5.505-20.371-6.897
		c-7.101-1.391-14.347-1.958-21.572-1.836c-7.228,0.13-14.435,0.942-21.528,2.313c-2.613,0.506-5.205,1.113-7.785,1.771
		c-3.162-0.795-6.452-1.199-9.757-1.111c-3.809,0.104-7.652,0.874-11.135,2.47c-0.196,0.089-0.388,0.19-0.583,0.284
		c-4.643-0.916-9.397-1.299-14.15-0.968c-3.906,0.272-7.792,1.012-11.521,2.267c-1.864,0.629-3.688,1.382-5.451,2.274
		c-1.59,0.818-3.098,1.694-4.579,2.811c-9.083-3.532-18.874-5.1-28.589-4.996c-4.958,0.064-9.904,0.539-14.786,1.376
		c-2.729,0.48-5.421,1.06-8.098,1.765c-2.003-0.512-4.125-0.644-6.19-0.408c-1.254,0.144-2.484,0.438-3.673,0.842
		c-2.836-0.864-5.728-1.555-8.664-2.004c-4.495-0.694-9.074-0.829-13.604-0.459c-4.532,0.373-9.016,1.265-13.343,2.643
		c-2.164,0.69-4.289,1.5-6.362,2.436c-1.847,0.844-3.618,1.746-5.386,2.852c-0.827-0.415-1.735-0.662-2.624-0.735
		c-1.159-0.101-2.282,0.044-3.335,0.309c-1.055,0.269-2.049,0.656-2.996,1.115c-0.761,0.374-1.468,0.77-2.184,1.243
		c-5.955-2.269-12.416-3.536-18.871-2.962c-3.323,0.296-6.62,1.059-9.709,2.346c-1.41,0.587-2.772,1.286-4.082,2.076
		c-1.283-0.275-2.627-0.362-3.969-0.193c-1.472,0.178-2.916,0.683-4.183,1.452c-2.47-0.756-5.007-1.284-7.568-1.568
		c-4.298-0.482-8.644-0.308-12.883,0.379c-4.242,0.688-8.382,1.876-12.362,3.438c-3.894,1.54-7.631,3.394-11.156,5.718
		c-3.055-0.711-6.161-1.247-9.304-1.449c-3.229-0.202-6.516-0.067-9.683,0.733c-3.151,0.789-6.194,2.323-8.448,4.708
		C1.849,35.152,0.371,38.219,0,41.451l0.299,0.026c0-0.004,0.002-0.009,0.002-0.013c0.456-3.116,1.994-6.07,4.217-8.268
		c2.235-2.219,5.162-3.633,8.221-4.32c3.069-0.701,6.264-0.761,9.41-0.491c3.152,0.275,6.274,0.893,9.344,1.695l0.259,0.067
		l0.254-0.16c3.496-2.211,7.33-4.021,11.224-5.504c3.911-1.47,7.962-2.565,12.079-3.171c4.114-0.604,8.298-0.707,12.4-0.186
		c1.99,0.251,3.958,0.654,5.882,1.202c-1.025,1.043-1.806,2.302-2.112,3.702c2.839-2.149,5.599-3.322,8.576-3.683
		c1.486-0.182,3.023-0.182,4.623-0.06c1.604,0.108,3.252,0.35,5.052,0.492c-0.959-0.958-2.079-1.713-3.301-2.286
		c0.701-0.346,1.416-0.664,2.141-0.954c2.893-1.15,5.958-1.864,9.068-2.116c6.238-0.518,12.548,0.792,18.397,3.141l0.604,0.243
		l0.558-0.395c0.693-0.491,1.537-0.978,2.352-1.367c0.827-0.396,1.68-0.717,2.536-0.93c1.711-0.432,3.437-0.35,4.708,0.529
		l0.666,0.46l0.726-0.472c1.727-1.123,3.717-2.137,5.683-3.015c1.985-0.881,4.026-1.645,6.102-2.293
		c4.153-1.295,8.45-2.122,12.783-2.453c4.334-0.339,8.698-0.142,12.995,0.487c1.814,0.268,3.611,0.644,5.393,1.083
		c-1.307,0.827-2.495,1.834-3.41,3.088c1.943-0.663,3.779-1.217,5.616-1.676c1.832-0.46,3.65-0.802,5.48-1.009
		s3.669-0.281,5.551-0.228c1.886,0.046,3.794,0.244,5.853,0.413c-0.487-0.402-1.01-0.753-1.549-1.08
		c1.507-0.341,3.018-0.659,4.529-0.93c4.751-0.839,9.566-1.324,14.386-1.41c4.818-0.09,9.647,0.185,14.404,0.942
		c4.756,0.752,9.44,1.971,13.94,3.684l0.565,0.215l0.479-0.396c1.349-1.113,3.003-2.129,4.642-2.994
		c1.659-0.872,3.389-1.618,5.162-2.247c3.549-1.255,7.273-2.029,11.04-2.351c3.963-0.34,7.956-0.159,11.902,0.425
		c-2.391,1.455-4.52,3.321-6.001,5.641c2.916-2.288,6.186-3.815,9.537-4.894c3.372-1.039,6.859-1.561,10.38-1.649
		c3.523-0.096,7.069,0.235,10.62,0.792c3.551,0.576,7.089,1.416,10.713,2.251c-2.935-1.855-6.136-3.273-9.481-4.302
		c1.935-0.474,3.878-0.909,5.825-1.304c7.027-1.404,14.17-2.254,21.333-2.429c7.16-0.174,14.352,0.34,21.367,1.781
		c7.013,1.419,13.852,3.723,20.22,6.969l0.134,0.068l0.157-0.015c2.929-0.273,5.898-0.403,8.853-0.438
		c2.958-0.031,5.916,0.043,8.859,0.276c1.65,0.136,3.296,0.325,4.929,0.571c-3.902,1.122-7.705,2.639-11.112,4.822
		c4.153-1.204,8.305-2.105,12.473-2.791c2.089-0.309,4.17-0.623,6.266-0.787c2.09-0.199,4.184-0.333,6.278-0.347
		c4.186-0.066,8.375,0.166,12.536,0.783c4.166,0.609,8.286,1.597,12.446,2.808c-2.75-1.774-5.755-3.166-8.89-4.203
		c1.96-0.187,3.926-0.307,5.892-0.348c7.875-0.163,15.873,0.875,23.009,4.058l0.725,0.323l0.52-0.687
		c0.146-0.193,0.523-0.536,0.86-0.737c0.355-0.223,0.75-0.397,1.164-0.523c0.833-0.251,1.749-0.303,2.671-0.206
		c1.855,0.199,3.708,0.944,5.451,1.878l0.375,0.201l0.442-0.116c5.274-1.378,10.721-2.419,16.156-3.203
		c5.446-0.777,10.93-1.276,16.415-1.419c5.483-0.14,10.973,0.076,16.378,0.815c3.015,0.409,6.005,0.991,8.931,1.774
		c-1.549,0.658-3.003,1.528-4.182,2.725c2.309-0.633,4.539-0.987,6.771-1.192c2.227-0.208,4.441-0.238,6.658-0.129
		c2.218,0.109,4.437,0.358,6.681,0.697c2.25,0.327,4.505,0.777,6.891,1.125c-1.162-0.924-2.433-1.677-3.76-2.321
		c0.24-0.02,0.48-0.044,0.72-0.063c4.095-0.311,8.201-0.441,12.291-0.33c4.087,0.114,8.164,0.467,12.148,1.201
		c3.977,0.738,7.881,1.86,11.417,3.633l0.44,0.221l0.502-0.081c2.445-0.393,4.95-0.721,7.434-0.993
		c2.49-0.271,4.983-0.484,7.471-0.606c2.485-0.119,4.972-0.156,7.404-0.002c1.214,0.075,2.417,0.201,3.563,0.419
		c1.136,0.216,2.249,0.546,3.04,1.022l0.527,0.317l0.602-0.11c7.16-1.31,14.447-2.319,21.717-3.104
		c7.278-0.774,14.583-1.299,21.883-1.429c7.292-0.115,14.605,0.129,21.748,1.237c3.563,0.565,7.086,1.355,10.421,2.562
		c1.111,0.407,2.204,0.865,3.26,1.377c-0.051,0.026-0.104,0.048-0.155,0.075c-2.006,1.066-3.794,2.547-4.921,4.475
		c1.962-0.993,3.868-1.766,5.795-2.292c1.92-0.531,3.842-0.794,5.762-0.761c1.92,0.034,3.842,0.355,5.772,0.913
		c1.939,0.544,3.858,1.34,5.921,2.14c-0.287-0.397-0.603-0.771-0.931-1.134c1.057-0.057,2.113-0.107,3.168-0.149
		c4.539-0.173,9.083-0.199,13.605,0.012c4.516,0.221,9.03,0.654,13.391,1.614c2.173,0.487,4.312,1.109,6.294,1.993
		c1.968,0.881,3.813,2.047,5.02,3.63l0.436,0.571l0.705-0.109c5.13-0.794,10.356-1.349,15.56-1.766
		c5.211-0.412,10.438-0.644,15.658-0.609c5.217,0.041,10.438,0.334,15.574,1.132c5.105,0.823,10.236,2.089,14.643,4.686l0.181,0.107
		l0.198,0c4.24-0.001,8.504,0.112,12.751,0.311c4.25,0.207,8.497,0.518,12.723,0.997c4.223,0.488,8.438,1.122,12.554,2.16
		c2.053,0.526,4.087,1.154,6.012,2.026c1.858,0.871,3.771,1.974,4.783,3.78c0.013,0.023,0.03,0.044,0.042,0.067l0.269-0.135
		C852.128,41.218,851.336,40.424,850.484,39.761z"/>
	<polygon fill="#331F01" points="80.181,24.854 80.66,24.395 79.606,24.583 	"/>
	<path fill="#331F01" d="M175.107,22.592c-1.491-0.199-3.004-0.286-4.522-0.25c-3.034,0.089-6.08,0.716-8.921,1.872
		c-1.418,0.585-2.785,1.292-4.086,2.114c-1.073,0.683-2.053,1.401-3.021,2.304c-2.244-0.614-4.538-1.081-6.869-1.244
		c-2.62-0.218-5.271-0.13-7.858,0.309c-2.591,0.409-5.111,1.199-7.47,2.279c-2.342,1.106-4.577,2.483-6.38,4.303
		c2.168-1.334,4.5-2.292,6.873-3.013c2.373-0.729,4.811-1.147,7.249-1.349c2.441-0.171,4.888-0.108,7.306,0.202
		c2.414,0.333,4.807,0.836,7.14,1.575l0.848,0.268l0.672-0.68c0.388-0.392,0.946-0.869,1.466-1.269
		c0.53-0.418,1.081-0.82,1.651-1.194c1.141-0.748,2.349-1.401,3.606-1.945c2.505-1.112,5.193-1.819,7.953-2.102
		c1.379-0.152,2.777-0.194,4.178-0.128c1.403,0.039,2.81,0.191,4.211,0.424c2.811,0.448,5.584,1.258,8.347,2.21
		c-2.454-1.592-5.152-2.828-7.995-3.715C178.057,23.15,176.597,22.805,175.107,22.592z"/>
	<path fill="#331F01" d="M342.446,22.142c-2.238-0.816-4.648-1.072-7-1.004c-2.359,0.071-4.691,0.433-6.954,1.016
		c-2.04,0.511-3.993,1.157-5.954,2.006c-1.304-0.667-2.694-1.231-4.19-1.519c-1.732-0.345-3.59-0.348-5.349,0.096
		c-1.768,0.422-3.375,1.33-4.721,2.444c-1.037,0.875-1.921,1.821-2.674,2.942c-0.849-0.514-1.752-0.95-2.713-1.239
		c-1.391-0.414-2.862-0.545-4.273-0.376c-1.411,0.19-2.752,0.641-3.954,1.296c-1.202,0.654-2.289,1.484-3.184,2.475
		c1.102-0.742,2.301-1.297,3.518-1.701c1.22-0.395,2.476-0.62,3.705-0.581c2.47,0.016,4.724,1.102,6.539,2.704l0.954,0.842
		l0.819-1.195c0.751-1.096,1.808-2.229,2.927-3.057c1.136-0.851,2.415-1.425,3.732-1.739c1.324-0.307,2.713-0.287,4.079,0.01
		c1.365,0.301,2.728,0.804,4.024,1.503l0.666,0.358l0.677-0.327c0.928-0.448,1.976-0.878,2.992-1.262
		c1.021-0.405,2.057-0.772,3.105-1.099c2.099-0.633,4.23-1.17,6.392-1.438c2.157-0.264,4.346-0.316,6.476,0.111
		c2.124,0.417,4.178,1.352,5.895,2.869C346.695,24.383,344.679,22.943,342.446,22.142z"/>
	<path fill="#331F01" d="M495.772,26.467c-0.951,0.206-1.841,0.635-2.642,1.17c-0.514,0.348-0.961,0.731-1.389,1.174
		c-2.153-1.25-4.546-2.132-7.023-2.547c-2.785-0.465-5.637-0.386-8.367,0.127c-2.737,0.501-5.344,1.467-7.775,2.695
		c-2.414,1.259-4.692,2.78-6.597,4.694c2.435-1.131,4.879-2.09,7.351-2.878c2.464-0.8,4.969-1.368,7.468-1.701
		c2.501-0.324,5.013-0.358,7.47-0.015c2.46,0.334,4.852,1.062,7.151,2.107l1.059,0.482l0.477-0.874
		c0.315-0.577,0.861-1.221,1.386-1.75c0.545-0.541,1.174-0.987,1.87-1.302c1.382-0.68,3.104-0.627,4.768-0.069
		c-0.678-0.555-1.479-0.996-2.375-1.243C497.709,26.282,496.723,26.272,495.772,26.467z"/>
	<path fill="#331F01" d="M650.153,26.187c-1.118-0.467-2.338-0.652-3.542-0.7c-1.21-0.051-2.414,0.088-3.594,0.307
		c-0.964,0.185-1.889,0.418-2.833,0.751c-0.898-0.745-1.835-1.453-2.83-2.087c-1.176-0.727-2.422-1.355-3.712-1.886
		c-2.581-1.077-5.393-1.588-8.187-1.66c-2.803-0.069-5.582,0.422-8.223,1.223c-1.323,0.404-2.599,0.939-3.841,1.532
		c-1.105,0.546-2.154,1.105-3.207,1.829c-1.336-0.212-2.69-0.226-3.997-0.048c-1.502,0.218-2.933,0.675-4.278,1.262
		c-1.342,0.6-2.591,1.354-3.755,2.198c-1.157,0.855-2.237,1.805-3.176,2.873c1.165-0.807,2.391-1.499,3.638-2.111
		c1.245-0.616,2.529-1.125,3.832-1.5c2.594-0.763,5.309-0.934,7.733-0.199l0.458,0.138l0.543-0.323
		c2.063-1.23,4.486-2.223,6.874-2.885c2.403-0.704,4.89-1.02,7.355-1.014c2.473,0,4.914,0.474,7.26,1.26
		c2.337,0.821,4.56,2.021,6.63,3.488l0.581,0.412l0.56-0.279c0.917-0.458,1.978-0.891,3.012-1.228
		c1.047-0.34,2.122-0.577,3.208-0.722c1.087-0.137,2.189-0.122,3.271,0.083c1.076,0.218,2.135,0.659,3.045,1.38
		C652.268,27.368,651.276,26.63,650.153,26.187z"/>
	<path fill="#331F01" d="M727.091,31.261c-1.22-0.217-2.442-0.016-3.505,0.395c-1.07,0.413-2.01,1.038-2.802,1.802
		c-0.781,0.775-1.451,1.678-1.804,2.822c1.167-0.206,2.136-0.519,3.067-0.84c0.923-0.326,1.785-0.668,2.614-0.984
		c0.832-0.313,1.617-0.613,2.436-0.836c0.824-0.225,1.687-0.38,2.883-0.34C729.486,32.177,728.299,31.471,727.091,31.261z"/>
</g>
</svg>
