<?xml version="1.0" encoding="utf-8"?>
<!-- Generator: Adobe Illustrator 16.0.4, SVG Export Plug-In . SVG Version: 6.00 Build 0)  -->
<!DOCTYPE svg PUBLIC "-//W3C//DTD SVG 1.1//EN" "http://www.w3.org/Graphics/SVG/1.1/DTD/svg11.dtd">
<svg version="1.1" id="Layer_1" xmlns="http://www.w3.org/2000/svg" xmlns:xlink="http://www.w3.org/1999/xlink" x="0px" y="0px"
	 width="173.066px" height="164.594px" viewBox="0 0 173.066 164.594" enable-background="new 0 0 173.066 164.594"
	 xml:space="preserve">
<g>
	<polygon id="colour" fill="#FF4E00" points="86.533,0 113.273,54.181 173.066,62.87 129.8,105.043 140.013,164.594 86.533,136.479 
		33.052,164.594 43.266,105.043 0,62.87 59.793,54.181 	"/>
	
		<linearGradient id="SVGID_1_" gradientUnits="userSpaceOnUse" x1="-151.4607" y1="220.7124" x2="-69.9704" y2="79.5672" gradientTransform="matrix(1 0 0 -1 202.5 244.5947)">
		<stop  offset="0" style="stop-color:#FFFFFF;stop-opacity:0"/>
		<stop  offset="1" style="stop-color:#000000;stop-opacity:0.35"/>
	</linearGradient>
	<polygon fill="url(#SVGID_1_)" points="86.533,3.391 112.283,55.562 169.814,63.907 128.174,104.532 138.017,161.86 
		86.533,134.797 35.033,161.86 44.877,104.516 3.189,63.922 60.783,55.579 	"/>
	<polygon opacity="0.4" enable-background="new    " points="138.017,161.86 140.013,164.594 129.8,105.043 173.066,62.87 
		169.814,63.907 128.174,104.532 	"/>
	<polygon opacity="0.3" enable-background="new    " points="112.283,55.562 113.273,54.181 86.533,0 86.533,3.391 	"/>
	<polygon opacity="0.3" enable-background="new    " points="86.533,134.797 86.533,136.479 33.052,164.594 35.033,161.86 	"/>
	<polygon opacity="0.3" fill="#FFFFFF" enable-background="new    " points="86.533,0 86.533,3.391 60.783,55.579 59.793,54.181 	
		"/>
	<polygon opacity="0.3" fill="#FFFFFF" enable-background="new    " points="43.266,105.043 44.877,104.516 35.033,161.86 
		33.052,164.594 	"/>
	<polygon opacity="0.2" fill="#FFFFFF" enable-background="new    " points="60.783,55.579 59.793,54.181 0,62.87 43.266,105.043 
		44.877,104.516 3.189,63.922 	"/>
	<polygon opacity="0.25" enable-background="new    " points="86.533,136.479 86.533,134.797 138.017,161.86 140.013,164.594 	"/>
</g>
<g id="Layer_2">
</g>
</svg>
