<?xml version="1.0" encoding="utf-8"?>
<!-- Generator: Adobe Illustrator 16.0.4, SVG Export Plug-In . SVG Version: 6.00 Build 0)  -->
<!DOCTYPE svg PUBLIC "-//W3C//DTD SVG 1.1//EN" "http://www.w3.org/Graphics/SVG/1.1/DTD/svg11.dtd">
<svg version="1.1" id="cupboard" xmlns="http://www.w3.org/2000/svg" xmlns:xlink="http://www.w3.org/1999/xlink" x="0px" y="0px"
	 width="778.913px" height="494.536px" viewBox="0 0 778.913 494.536" enable-background="new 0 0 778.913 494.536"
	 xml:space="preserve">
<polygon fill="#E0C9B3" stroke="#000000" stroke-miterlimit="10" points="47.946,132.5 47.946,478.5 36.946,493.5 20.946,451.5 
	21.946,120.5 "/>
<polygon fill="#E0C9B3" stroke="#000000" stroke-miterlimit="10" points="730.946,132.5 730.946,478.5 741.946,493.5 757.946,451.5 
	756.946,120.5 "/>
<rect x="0.946" y="137.5" fill="#EFDECE" stroke="#000000" stroke-miterlimit="10" width="36" height="356"/>
<rect x="741.946" y="137.5" fill="#EFDECE" stroke="#000000" stroke-miterlimit="10" width="36" height="356"/>
<g>
	<polygon fill="#D1B49D" stroke="#000000" stroke-miterlimit="10" points="678.66,94.527 678.66,343.703 686.917,354.964 
		698.93,323.431 698.179,85.518 	"/>
	<rect x="686.917" y="98.28" fill="#E2CEBA" stroke="#000000" stroke-miterlimit="10" width="27.028" height="256.684"/>
</g>
<polygon fill="#D1B49D" stroke="#000000" stroke-miterlimit="10" points="102.947,95.063 102.947,344.239 94.689,355.5 
	82.676,323.967 83.427,86.054 "/>
<rect x="67.661" y="98.816" fill="#E2CEBA" stroke="#000000" stroke-miterlimit="10" width="27.028" height="256.684"/>
<polygon fill="#D3B798" stroke="#000000" stroke-miterlimit="10" points="777.946,108.5 244.946,122.5 0.946,108.5 79.946,0.5 
	698.946,0.5 "/>
<rect x="0.946" y="108.5" fill="#EFDECE" stroke="#000000" stroke-miterlimit="10" width="777" height="33"/>
</svg>
