<?xml version="1.0" encoding="utf-8"?>
<!-- Generator: Adobe Illustrator 16.0.4, SVG Export Plug-In . SVG Version: 6.00 Build 0)  -->
<!DOCTYPE svg PUBLIC "-//W3C//DTD SVG 1.1//EN" "http://www.w3.org/Graphics/SVG/1.1/DTD/svg11.dtd">
<svg version="1.1" id="cupboard" xmlns="http://www.w3.org/2000/svg" xmlns:xlink="http://www.w3.org/1999/xlink" x="0px" y="0px"
	 width="116.477px" height="188.88px" viewBox="0 0 116.477 188.88" enable-background="new 0 0 116.477 188.88"
	 xml:space="preserve">
<linearGradient id="SVGID_1_" gradientUnits="userSpaceOnUse" x1="1.1514" y1="173.4619" x2="115.8781" y2="174.7435">
	<stop  offset="0" style="stop-color:#4B4747"/>
	<stop  offset="1" style="stop-color:#D9D9DB"/>
</linearGradient>
<path fill-rule="evenodd" clip-rule="evenodd" fill="url(#SVGID_1_)" stroke="#000000" d="M3.225,165.823l110.345-0.197
	c1.589,1.258,2.407,2.58,2.407,3.903c0,7.533-25.734,13.648-57.459,13.648c-31.726,0-57.455-6.115-57.455-13.648
	C1.062,168.277,1.794,167.024,3.225,165.823z"/>
<linearGradient id="SVGID_2_" gradientUnits="userSpaceOnUse" x1="1.1548" y1="177.957" x2="115.8653" y2="179.3283">
	<stop  offset="0" style="stop-color:#777576"/>
	<stop  offset="1" style="stop-color:#EEEFF0"/>
</linearGradient>
<path fill-rule="evenodd" clip-rule="evenodd" fill="url(#SVGID_2_)" stroke="#000000" d="M115.977,169.574v5.63
	c0,7.278-25.734,13.176-57.459,13.176c-31.726,0-57.455-5.897-57.455-13.176v-5.63c0,7.278,25.729,13.177,57.455,13.177
	C90.242,182.751,115.977,176.853,115.977,169.574z"/>
<linearGradient id="SVGID_3_" gradientUnits="userSpaceOnUse" x1="1.0918" y1="176.8232" x2="115.9999" y2="176.3289">
	<stop  offset="0" style="stop-color:#C8C6C8"/>
	<stop  offset="1" style="stop-color:#FFFFFF"/>
</linearGradient>
<path fill-rule="evenodd" clip-rule="evenodd" fill="url(#SVGID_3_)" d="M1.067,169.888c-0.027-0.249,0.044-0.192,0.065,0
	c0,3.298,6.728,6.741,16.862,9.067c10.364,2.377,24.692,3.488,40.522,3.488c31.436,0,57.312-5.744,57.312-12.556
	c0.006-0.255,0.143-0.249,0.143,0c0,7.616-25.435,13.79-57.454,13.79c-15.896,0-30.295-1.477-40.725-3.873
	C7.135,177.363,1.067,173.862,1.067,169.888z"/>
<g>
	<path id="colour" fill-rule="evenodd" clip-rule="evenodd" fill="#00A651" d="M115.055,15.441
		c-1.229,4.02-25.643,8.868-56.789,8.956c-30.654-0.17-46.151-2.955-56.095-7.427l0.055,150.413
		c-0.065,5.45,25.314,12.238,56.084,12.03c18.932,0.787,55.396-5.073,55.871-12.238L115.055,15.441z"/>
	<path d="M115.101,15.459c-0.2,0.597-0.711,1.003-1.192,1.352c-0.499,0.345-1.034,0.627-1.579,0.885
		c-1.092,0.513-2.228,0.918-3.372,1.289c-2.294,0.73-4.634,1.297-6.985,1.796c-4.707,0.987-9.465,1.705-14.24,2.262
		c-9.554,1.084-19.167,1.588-28.779,1.668c-9.61-0.023-19.231-0.261-28.816-1.123c-2.396-0.225-4.788-0.486-7.175-0.808
		c-2.386-0.324-4.765-0.714-7.131-1.178c-2.36-0.493-4.719-1.016-7.032-1.726c-2.311-0.707-4.593-1.523-6.804-2.517l0.603-0.39
		L2.476,69.455L2.408,95.696c-0.007,8.747-0.08,17.495-0.034,26.242l0.07,26.242l0.035,13.121l0.009,3.28l0.004,1.641
		c0.02,0.538-0.041,1.124,0.057,1.572c0.261,0.93,1.138,1.669,1.992,2.27c0.882,0.604,1.845,1.103,2.827,1.554
		c3.963,1.767,8.212,2.87,12.462,3.813c4.262,0.922,8.576,1.61,12.907,2.141c8.674,1.069,17.384,1.442,26.15,1.411
		c8.701,0.228,17.436-0.564,26.067-1.785c4.316-0.632,8.614-1.402,12.854-2.399c4.218-1.025,8.472-2.169,12.3-4.114
		c0.938-0.5,1.857-1.062,2.587-1.768c0.361-0.352,0.672-0.743,0.85-1.16c0.093-0.197,0.137-0.443,0.155-0.609l0.004-0.819
		l0.035-6.561l0.07-13.121l0.146-26.241l0.483-52.482l0.245-26.241l0.32-26.241L115.101,15.459z M115.104,15.442l0.018,26.242
		l-0.058,26.242l-0.122,52.484l-0.156,26.241l-0.082,13.121l-0.041,6.56l-0.005,0.82c-0.028,0.379-0.101,0.673-0.231,0.976
		c-0.254,0.591-0.647,1.064-1.066,1.474c-0.848,0.814-1.823,1.398-2.809,1.925c-3.991,2.02-8.267,3.151-12.529,4.187
		c-4.276,1.001-8.598,1.772-12.937,2.402c-8.68,1.219-17.437,2.008-26.233,1.771c-8.725,0.023-17.525-0.444-26.212-1.564
		c-4.347-0.561-8.676-1.281-12.958-2.236c-4.271-0.979-8.535-2.112-12.562-3.938c-1-0.468-1.984-0.983-2.904-1.622
		c-0.887-0.651-1.844-1.391-2.2-2.606c-0.122-0.626-0.041-1.146-0.063-1.697l0.003-1.64l0.007-3.28l0.025-13.121l0.051-26.242
		c0.04-8.748-0.039-17.495-0.053-26.242L1.904,69.455L1.743,16.971c0-0.236,0.19-0.428,0.426-0.428c0.061,0,0.125,0.015,0.177,0.038
		c4.358,1.924,8.983,3.193,13.658,4.173c2.343,0.472,4.703,0.873,7.073,1.207c2.371,0.332,4.75,0.605,7.135,0.842
		c9.544,0.909,19.146,1.199,28.738,1.273c9.593-0.029,19.19-0.481,28.729-1.511c4.768-0.515,9.528-1.148,14.234-2.074
		c2.352-0.465,4.692-0.999,6.985-1.694c1.144-0.353,2.28-0.741,3.369-1.235c0.543-0.249,1.077-0.521,1.571-0.853
		c0.479-0.337,0.975-0.722,1.17-1.285c0.009-0.026,0.037-0.04,0.063-0.031C115.092,15.399,115.104,15.421,115.104,15.442z"/>
</g>
<path fill-rule="evenodd" clip-rule="evenodd" fill="#D2D3D4" stroke="#000000" d="M58.075,0.5c31.725,0,57.454,4.592,57.454,10.249
	S89.8,20.998,58.075,20.998c-31.731,0-57.461-4.592-57.461-10.249S26.344,0.5,58.075,0.5z"/>
<linearGradient id="SVGID_4_" gradientUnits="userSpaceOnUse" x1="0.5845" y1="16.9136" x2="115.3253" y2="18.1448">
	<stop  offset="0" style="stop-color:#777576"/>
	<stop  offset="1" style="stop-color:#EEEFF0"/>
</linearGradient>
<path fill-rule="evenodd" clip-rule="evenodd" fill="url(#SVGID_4_)" stroke="#000000" d="M115.409,10.617v4.319
	c0,5.576-25.729,10.103-57.454,10.103C26.224,25.039,0.5,20.513,0.5,14.937v-4.319c0,5.581,25.724,10.108,57.455,10.108
	C89.68,20.726,115.409,16.198,115.409,10.617z"/>
<linearGradient id="SVGID_5_" gradientUnits="userSpaceOnUse" x1="0.5161" y1="16.1226" x2="115.4234" y2="15.6643">
	<stop  offset="0" style="stop-color:#C8C6C8"/>
	<stop  offset="1" style="stop-color:#FFFFFF"/>
</linearGradient>
<path fill-rule="evenodd" clip-rule="evenodd" fill="url(#SVGID_5_)" d="M0.5,10.782c-0.027-0.191,0.044-0.147,0.071,0
	c0,2.533,6.721,5.17,16.855,6.951c10.364,1.823,24.693,2.681,40.528,2.681c31.436,0,57.307-4.313,57.307-9.632
	c0.005-0.197,0.142-0.191,0.142,0c0,5.842-25.435,10.576-57.448,10.576c-15.896,0-30.301-1.136-40.729-2.971
	C6.566,16.516,0.5,13.829,0.5,10.782z"/>
<linearGradient id="SVGID_6_" gradientUnits="userSpaceOnUse" x1="111.6143" y1="11.2109" x2="5.1527" y2="10.4993">
	<stop  offset="0" style="stop-color:#777576"/>
	<stop  offset="1" style="stop-color:#AEAEAF"/>
</linearGradient>
<path fill-rule="evenodd" clip-rule="evenodd" fill="url(#SVGID_6_)" d="M57.955,2.515c30.026,0,54.38,3.734,54.38,8.338
	s-24.354,8.339-54.38,8.339c-30.032,0-54.387-3.735-54.387-8.339S27.923,2.515,57.955,2.515z"/>
<path fill-rule="evenodd" clip-rule="evenodd" fill="none" d="M57.955,2.515c30.026,0,54.38,3.734,54.38,8.338
	s-24.354,8.339-54.38,8.339c-30.032,0-54.387-3.735-54.387-8.339S27.923,2.515,57.955,2.515z"/>
<path fill-rule="evenodd" clip-rule="evenodd" d="M57.955,2.121c14.923,0,28.443,0.934,38.233,2.446
	c9.588,1.48,15.655,3.582,16.124,5.99c-0.546-1.965-6.432-3.8-15.671-5.209C86.154,3.752,72.415,2.913,57.955,2.913
	c-15.115,0-28.793,0.929-38.693,2.436C10.022,6.758,4.137,8.593,3.591,10.558c0.47-2.408,6.541-4.51,16.124-5.99
	C29.506,3.055,43.025,2.121,57.955,2.121z"/>
<linearGradient id="SVGID_7_" gradientUnits="userSpaceOnUse" x1="23.6655" y1="11.4399" x2="103.7162" y2="13.4063">
	<stop  offset="0" style="stop-color:#D9D9DB"/>
	<stop  offset="1" style="stop-color:#888587"/>
</linearGradient>
<path fill-rule="evenodd" clip-rule="evenodd" fill="url(#SVGID_7_)" d="M57.955,19.306c-27.216,0-49.767-3.068-53.759-7.066
	l-0.07-0.087l0.377-0.268C10.563,8.09,32.007,5.272,57.528,5.25c26.467-0.021,48.587,2.981,53.726,6.979l0.229,0.201l-0.252,0.219
	C106.159,16.443,84.229,19.306,57.955,19.306z"/>
<linearGradient id="SVGID_8_" gradientUnits="userSpaceOnUse" x1="24.6758" y1="12.0049" x2="108.2243" y2="12.0819">
	<stop  offset="0" style="stop-color:#EEEFF0"/>
	<stop  offset="1" style="stop-color:#AEAEAF"/>
</linearGradient>
<path fill-rule="evenodd" clip-rule="evenodd" fill="url(#SVGID_8_)" stroke="#000000" stroke-width="0.25" d="M57.955,19.306
	c-27.216,0-49.767-3.068-53.759-7.066l-0.295-0.36l0.055-0.049c5.09-4.013,27.171-7.044,53.639-7.065
	c26.467-0.018,48.586,2.98,53.725,6.983l0.459,0.404l-0.071,0.087C107.722,16.237,85.164,19.306,57.955,19.306z"/>
<path fill-rule="evenodd" clip-rule="evenodd" fill="#959899" d="M100.716,16.116l-0.76-0.529c-2.758-2.305-2.233-6.044-9.189-9.048
	c4.63,0.677,8.513,1.229,11.559,1.917c4.872,1.233,7.81,2.402,9.163,3.544l0.241,0.218l-0.022,0.021
	c-1.376,1.376-4.958,2.648-10.179,3.719L100.716,16.116z"/>
<linearGradient id="SVGID_9_" gradientUnits="userSpaceOnUse" x1="76.4487" y1="13.5757" x2="28.8303" y2="13.5316">
	<stop  offset="0" style="stop-color:#EEEFF0"/>
	<stop  offset="1" style="stop-color:#AEAEAF"/>
</linearGradient>
<path fill-rule="evenodd" clip-rule="evenodd" fill="url(#SVGID_9_)" d="M57.682,18.568c-17.238,0.011-31.239-2.223-31.261-4.985
	c-0.017-2.769,13.962-5.023,31.201-5.034c17.238-0.012,31.244,2.223,31.261,4.985C88.899,16.302,74.92,18.558,57.682,18.568z"/>
<path fill-rule="evenodd" clip-rule="evenodd" fill="#D2D3D4" d="M57.682,18.187c-15.923,0.011-28.864-2.048-28.88-4.604
	c-0.017-2.556,12.897-4.642,28.82-4.652C73.55,8.92,86.49,10.978,86.507,13.534C86.523,16.089,73.61,18.175,57.682,18.187z"/>
<linearGradient id="SVGID_10_" gradientUnits="userSpaceOnUse" x1="84.853" y1="11.9707" x2="15.9426" y2="11.907">
	<stop  offset="0" style="stop-color:#EEEFF0"/>
	<stop  offset="1" style="stop-color:#AEAEAF"/>
</linearGradient>
<path fill-rule="evenodd" clip-rule="evenodd" fill="url(#SVGID_10_)" d="M90.772,17.612l0.359-0.07
	c5.204-1.125,8.284-2.513,8.272-4.014c0-0.464-0.295-0.912-0.856-1.349C94.633,9.133,77.775,6.845,57.61,6.861
	c-23.043,0.016-41.729,3.03-41.707,6.727c0.011,1.388,2.648,2.676,7.159,3.741l0.344,0.076l-0.044-0.006
	c-2.686-0.338-5.154-0.715-7.371-1.13l-0.596-0.114l-0.18-0.071c-1.78-0.775-2.752-1.616-2.758-2.49
	C12.431,9.592,32.662,6.326,57.605,6.31c21.831-0.017,40.079,2.458,44.316,5.755c0.606,0.47,0.923,0.961,0.929,1.458
	c0.005,1.005-1.256,1.955-3.539,2.823l-0.163,0.061l-0.945,0.169c-1.752,0.295-3.647,0.573-5.662,0.824L90.772,17.612z"/>
<path fill-rule="evenodd" clip-rule="evenodd" fill="none" stroke="#2C2623" stroke-width="3" stroke-linecap="round" d="M4.126,7.5
	"/>
<path opacity="0.19" fill-rule="evenodd" clip-rule="evenodd" fill="#2C2623" d="M106.351,20.469
	C28.49,51.98,47.479,139.831,35.582,167.713c-3.297,7.727-20.667,5.334-33.08,0.334L2.513,17.665L106.351,20.469z"/>
</svg>
