<?xml version="1.0" encoding="utf-8"?>
<!-- Generator: Adobe Illustrator 16.0.4, SVG Export Plug-In . SVG Version: 6.00 Build 0)  -->
<!DOCTYPE svg PUBLIC "-//W3C//DTD SVG 1.1//EN" "http://www.w3.org/Graphics/SVG/1.1/DTD/svg11.dtd">
<svg version="1.1" id="Layer_1" xmlns="http://www.w3.org/2000/svg" xmlns:xlink="http://www.w3.org/1999/xlink" x="0px" y="0px"
	 width="101.718px" height="107.401px" viewBox="0 0 101.718 107.401" enable-background="new 0 0 101.718 107.401"
	 xml:space="preserve">
<g>
	<g>
		
			<ellipse transform="matrix(-0.9788 -0.2047 0.2047 -0.9788 87.6528 131.4719)" fill="#CA2027" cx="50.627" cy="61.202" rx="50.66" ry="44.308"/>
		<path d="M0.894,50.798c1.254-6.122,3.984-11.919,7.776-16.922c3.79-5.021,8.734-9.171,14.27-12.263
			c5.535-3.104,11.708-5.119,18.03-5.914c6.321-0.842,12.784-0.467,18.983,0.91c6.193,1.426,12.147,3.847,17.511,7.191
			c5.359,3.348,10.135,7.59,14.041,12.514c3.91,4.914,6.926,10.566,8.626,16.637c1.692,6.061,2.1,12.54,0.887,18.789
			c-1.168,6.242-3.845,12.254-7.812,17.285c-3.933,5.06-9.014,9.197-14.675,12.18c-5.658,3.002-11.872,4.914-18.218,5.74
			c-6.35,0.84-12.832,0.49-19.085-0.809c-6.237-1.369-12.302-3.662-17.749-7.011c-5.463-3.309-10.297-7.651-14.12-12.724
			c-3.822-5.066-6.688-10.852-8.147-16.977C-0.256,63.317-0.425,56.91,0.894,50.798z M1.187,50.861
			c-1.251,6.074-0.967,12.447,0.83,18.348c1.777,5.907,4.892,11.342,8.879,15.954c8.018,9.218,19.125,15.44,30.988,17.841
			c11.827,2.458,24.538,1.211,35.345-4.302c5.372-2.754,10.268-6.501,14.122-11.167c3.838-4.662,6.699-10.178,8.06-16.131
			c1.358-5.938,1.312-12.238-0.263-18.188c-1.534-5.959-4.5-11.529-8.399-16.293c-3.91-4.77-8.782-8.702-14.134-11.686
			c-5.348-3.006-11.189-5.047-17.172-6.185c-11.946-2.323-24.59-1.044-35.634,4.229c-5.499,2.645-10.53,6.379-14.527,11.084
			c-2.015,2.337-3.693,4.961-5.078,7.727C2.838,44.874,1.841,47.828,1.187,50.861z"/>
	</g>
	
		<ellipse transform="matrix(0.8369 -0.5473 0.5473 0.8369 -18.793 20.2057)" fill="#D94C4F" cx="24.509" cy="41.638" rx="14.264" ry="10.971"/>
	<g>
		<polygon fill="none" points="32.63,12.639 32.63,12.639 32.63,12.639 		"/>
		<path fill="#106A36" d="M61.935,16.771c-0.053,1.568,0.112,3.272,0.572,5.115c0.641-0.344,1.423-0.709,2.371-1.1
			c0.078-0.043,0.673-0.379,1.625-0.775c0.374-1.768,1.087-3.062,1.951-3.993c0.87-0.937,1.887-1.503,2.85-1.839
			c0.624-0.217,1.223-0.338,1.751-0.404c-0.287-0.078-0.578-0.162-0.855-0.221c-3.81-0.793-6.603,0.314-8.507,1.668
			C62.979,15.732,62.393,16.279,61.935,16.771z"/>
		<path fill="#106A36" d="M71.855,21.475c-1.848,1.156-3.593,2.014-5.041,2.631c0.456,0.258,0.895,0.596,1.299,1.033
			c0.024,0.025,0.047,0.057,0.071,0.082c1.407-1.369,2.81-2.24,4.161-2.73c1.752-0.639,3.411-0.645,4.86-0.342
			c1.775,0.375,3.235,1.199,4.232,1.904c-1.092-1.615-2.321-2.721-3.606-3.455C77.028,20.24,75.153,19.846,71.855,21.475z"/>
		<path fill="#106A36" d="M74.256,19.406c-3.286-0.438-6.454,0.703-8.035,1.418C69.717,19.488,72.354,19.23,74.256,19.406z"/>
		<path fill="#16A751" d="M66.221,20.824c-1.104,0.422-2.292,0.953-3.571,1.611c0.096,0.344,0.197,0.691,0.314,1.045
			c0.735-0.1,1.527-0.113,2.324,0.053c0.515,0.107,1.03,0.293,1.525,0.572c1.448-0.617,3.193-1.475,5.041-2.631
			c3.298-1.629,5.173-1.234,5.977-0.877c0.32,0.144,0.476,0.279,0.476,0.279s-1.213-1.211-4.051-1.471
			C72.354,19.23,69.717,19.488,66.221,20.824z"/>
		<path fill="#106A36" d="M50.88,15.647c1.676,1.843,2.813,3.564,3.216,4.204c0.554-0.518,0.978-1.188,1.236-2.123
			c0.28-1.016,0.57-2.151,0.899-3.342c-0.946-2.193-2.36-3.722-3.85-4.783c-1.49-1.062-3.043-1.658-4.24-1.99
			c1.401,1.016,2.179,2.375,2.537,3.764c0.391,1.499,0.333,3.021,0.163,4.229C50.855,15.62,50.869,15.633,50.88,15.647z"/>
		<path fill="#106A36" d="M42.221,10.703c-0.241-0.051-0.482-0.092-0.727-0.121c-3.429-0.428-5.638,0.091-6.994,0.708
			c-0.317,0.146-0.584,0.296-0.813,0.44c0.86-0.164,2.056-0.247,3.469,0.049c3.072,0.639,7.102,3.083,10.82,10.164
			c0.729-0.137,1.444-0.264,2.123-0.404c-0.939-0.873-2.583-2.604-3.958-5.118c-2.054-3.756-4.33-5.286-7.532-5.875
			c0,0,7.821-1.44,14.779,9.849c0.072-0.045,0.145-0.09,0.214-0.137c-0.032-0.05-0.067-0.105-0.11-0.174
			c-0.147-0.231-0.367-0.564-0.651-0.969c-0.568-0.81-1.396-1.904-2.43-3.041C48.344,13.801,45.455,11.375,42.221,10.703z"/>
		<path fill="#16A751" d="M38.609,10.546c3.202,0.589,5.479,2.119,7.532,5.875c1.375,2.515,3.019,4.245,3.958,5.118
			c1.202-0.25,2.296-0.551,3.167-1.064c0.042-0.026,0.082-0.055,0.122-0.08C46.43,9.105,38.609,10.546,38.609,10.546z"/>
		<path fill="#16A751" d="M77.913,38.846c-0.912-0.373-1.903-0.863-2.892-1.523c-2.341-1.561-4.632-4.051-5.548-7.934
			c-0.423-1.791-1.075-3.006-1.827-3.818c-0.752-0.812-1.607-1.23-2.487-1.416c-1.226-0.258-2.505-0.043-3.516,0.268
			c-1.012,0.31-1.751,0.711-1.901,0.795l-0.028,0.016l-0.321-0.547c0.007-0.005,0.26-0.152,0.678-0.342
			c-1.467,0.375-2.956,0.756-1.98,0.498c1.718-0.451,2.039-1.602,2.039-1.602C58.883,9.027,66.95,3.818,67.582,2.734
			c0.633-1.085-1.544-1.541-1.544-1.541l0.984-0.411c-3.82,1.301-6.173,4.054-7.779,7.222c-1.671,3.297-2.507,7.019-3.297,9.894
			c-0.41,1.505-1.267,2.488-2.358,3.124c-1.091,0.64-2.403,0.957-3.794,1.229c-2.785,0.537-5.882,0.896-8.2,2.934
			c-1.403,1.23-2.955,1.84-4.443,2.076c-1.389,0.219-2.717,0.111-3.854-0.104c0.899,0.386,1.93,0.749,3.009,0.975
			c1.487,0.312,3.058,0.36,4.491-0.127c1.918-0.65,3.412-1.394,4.807-1.915c1.39-0.52,2.7-0.816,4.178-0.506
			c0.724,0.151,1.48,0.445,2.304,0.913c1.646,0.937,3.451,1.49,4.998,1.813c1.905,0.398,3.417,0.449,3.755,0.455h0.047
			c0.147-0.021,0.832-0.109,1.791,0.091c1.396,0.288,3.363,1.212,4.969,3.792c1.023,1.64,2.109,2.881,3.5,3.838
			c1.392,0.955,3.099,1.633,5.376,2.109C76.958,38.686,77.428,38.768,77.913,38.846z"/>
		<path fill="#16A751" d="M62.227,23.613c0.035-0.008,0.072-0.016,0.107-0.022c-1.213-3.724-1.273-6.978-0.697-9.733
			c0.378-1.804,1.027-3.387,1.79-4.76C59.623,15.812,61.821,22.512,62.227,23.613z"/>
		<path fill="#16A751" d="M69.182,2.719c0.053-0.035,0.088-0.059,0.127-0.086c-0.112-0.74-0.396-1.186-0.704-1.473
			c-0.189-0.174-0.39-0.287-0.576-0.365C69.036,1.297,69.167,2.379,69.182,2.719z"/>
		<path d="M81.784,39.291l-0.044-0.006c-0.092-0.014-0.325-0.049-0.665-0.119c-1.135-0.238-3.458-0.873-5.7-2.371
			c-2.243-1.502-4.405-3.848-5.284-7.553c-0.354-1.506-0.877-2.654-1.508-3.521c1.367-1.342,2.708-2.172,3.98-2.634
			c1.631-0.593,3.158-0.599,4.513-0.315c1.582,0.33,2.924,1.061,3.867,1.709c0.472,0.324,0.844,0.629,1.096,0.85
			c0.126,0.111,0.224,0.201,0.287,0.264l0.072,0.069l0.021,0.022l1.524,1.584l-1.014-1.951c-2.082-4.018-4.952-5.82-7.776-6.406
			c-3.026-0.627-5.969,0.093-7.929,0.816c0.371-1.451,0.979-2.506,1.694-3.277c1.18-1.272,2.666-1.793,3.869-1.996
			c0.601-0.1,1.128-0.12,1.504-0.115c0.187,0.002,0.336,0.012,0.437,0.02l0.115,0.01l0.034,0.004l2.529,0.34l-2.369-0.948
			c-0.948-0.38-1.852-0.652-2.709-0.831c-4.123-0.865-7.193,0.416-9.196,1.912c-0.428,0.318-0.806,0.646-1.14,0.965
			c0.058-0.63,0.144-1.24,0.266-1.824c0.757-3.621,2.646-6.355,4.353-8.186c0.853-0.914,1.658-1.604,2.249-2.061
			c0.295-0.229,0.536-0.399,0.702-0.514c0.084-0.057,0.148-0.098,0.191-0.127l0.062-0.039l0.172-0.104l-0.02-0.199
			c-0.1-0.987-0.483-1.652-0.934-2.064c-0.449-0.414-0.945-0.578-1.265-0.646c-0.204-0.042-0.339-0.046-0.354-0.046L67.368,0
			L67.32,0.016c-4.312,1.283-6.933,4.312-8.646,7.701c-0.947,1.873-1.623,3.857-2.176,5.743c-0.985-1.952-2.338-3.372-3.748-4.374
			c-1.995-1.422-4.08-2.044-5.371-2.314c-0.776-0.162-1.266-0.197-1.277-0.197l-2.296-0.159l2.167,0.774
			c2.506,0.902,3.617,2.564,4.092,4.348c0.311,1.183,0.314,2.412,0.209,3.467c-2.057-2.124-4.784-4.262-7.923-4.923
			c-0.256-0.054-0.516-0.097-0.778-0.13c-3.579-0.447-5.938,0.105-7.404,0.793c-1.469,0.686-2.038,1.5-2.062,1.536l-0.688,1.005
			l1.092-0.541l0.015-0.007c0.184-0.086,1.969-0.868,4.502-0.337c2.832,0.595,6.655,2.832,10.296,9.67
			c-2.116,0.427-4.326,1.041-6.147,2.635c-1.307,1.145-2.732,1.705-4.125,1.926c-1.39,0.221-2.745,0.096-3.881-0.142
			c-0.89-0.187-1.645-0.44-2.175-0.649c-0.265-0.104-0.475-0.195-0.616-0.261c-0.07-0.032-0.124-0.06-0.16-0.077l-0.051-0.025
			l-0.328,0.543c0.019,0.01,2.898,2.01,6.336,2.732c1.56,0.326,3.244,0.389,4.825-0.146c1.961-0.666,3.478-1.42,4.824-1.923
			c1.351-0.503,2.508-0.753,3.826-0.479c0.649,0.137,1.342,0.402,2.119,0.844c1.727,0.982,3.591,1.551,5.183,1.883
			c2.24,0.469,3.941,0.47,3.956,0.471h0.029l0.029-0.006h0.001c0.053-0.01,0.682-0.105,1.577,0.082
			c1.255,0.266,3.036,1.069,4.56,3.506c1.053,1.688,2.201,3.01,3.681,4.025c1.477,1.016,3.272,1.719,5.604,2.207
			c1.523,0.318,3.278,0.546,5.333,0.709L81.784,39.291z M67.643,32.646c-1.605-2.58-3.572-3.504-4.969-3.792
			c-0.959-0.2-1.644-0.112-1.791-0.091h-0.047c-0.338-0.006-1.85-0.057-3.755-0.455c-1.547-0.323-3.353-0.877-4.998-1.813
			c-0.823-0.468-1.58-0.762-2.304-0.913c-1.478-0.311-2.788-0.014-4.178,0.506c-1.395,0.521-2.889,1.265-4.807,1.915
			c-1.434,0.487-3.004,0.438-4.491,0.127c-1.079-0.226-2.109-0.589-3.009-0.975c1.138,0.216,2.466,0.323,3.854,0.104
			c1.488-0.236,3.04-0.846,4.443-2.076c2.318-2.038,5.415-2.396,8.2-2.934c1.391-0.271,2.703-0.589,3.794-1.229
			c1.092-0.636,1.948-1.619,2.358-3.124c0.79-2.875,1.626-6.597,3.297-9.894c1.606-3.168,3.959-5.921,7.779-7.222L67.459,0.6
			c0.217,0.045,0.404,0.112,0.569,0.195c0.187,0.078,0.387,0.191,0.576,0.365c0.309,0.287,0.592,0.732,0.704,1.473
			c-0.039,0.027-0.074,0.051-0.127,0.086c0.003,0.066,0.003,0.107,0.003,0.107c-2.71,1.969-4.538,4.121-5.758,6.271
			c-0.763,1.373-1.412,2.956-1.79,4.76c-0.576,2.756-0.516,6.01,0.697,9.733c-0.035,0.007-0.072,0.015-0.107,0.022
			c0.037,0.103,0.062,0.16,0.062,0.16s-1.104,0.283-2.219,0.57c-0.418,0.189-0.671,0.337-0.678,0.342l0.321,0.547l0.028-0.016
			c0.15-0.084,0.89-0.485,1.901-0.795c1.011-0.311,2.29-0.525,3.516-0.268c0.88,0.186,1.735,0.604,2.487,1.416
			c0.752,0.812,1.404,2.027,1.827,3.818c0.916,3.883,3.207,6.373,5.548,7.934c0.988,0.66,1.979,1.15,2.892,1.523
			c-0.484-0.078-0.954-0.16-1.394-0.252c-2.277-0.477-3.984-1.154-5.376-2.109C69.752,35.527,68.667,34.286,67.643,32.646z
			 M48.142,7.613c1.197,0.332,2.75,0.928,4.24,1.99c1.489,1.062,2.903,2.59,3.85,4.783c-0.329,1.19-0.619,2.326-0.899,3.342
			c-0.259,0.935-0.683,1.605-1.236,2.123c-0.402-0.64-1.54-2.361-3.216-4.204c-0.012-0.015-0.025-0.027-0.038-0.041
			c0.17-1.208,0.228-2.73-0.163-4.229C50.321,9.988,49.543,8.629,48.142,7.613z M52.84,19.115c0.284,0.404,0.504,0.737,0.651,0.969
			c0.043,0.068,0.078,0.124,0.11,0.174c-0.069,0.047-0.142,0.092-0.214,0.137c-0.04,0.025-0.08,0.054-0.122,0.08
			c-0.871,0.514-1.965,0.814-3.167,1.064c-0.679,0.141-1.394,0.268-2.123,0.404c-3.719-7.081-7.748-9.525-10.82-10.164
			c-1.413-0.296-2.608-0.213-3.469-0.049c0.229-0.145,0.496-0.295,0.813-0.44c1.356-0.617,3.565-1.136,6.994-0.708
			c0.244,0.029,0.485,0.07,0.727,0.121c3.233,0.672,6.123,3.098,8.189,5.371C51.444,17.211,52.272,18.306,52.84,19.115z
			 M72.2,13.555c0.277,0.059,0.568,0.143,0.855,0.221c-0.528,0.066-1.127,0.188-1.751,0.404c-0.963,0.336-1.979,0.902-2.85,1.839
			c-0.864,0.931-1.577,2.226-1.951,3.993c-0.952,0.396-1.547,0.732-1.625,0.775c-0.948,0.391-1.73,0.756-2.371,1.1
			c-0.46-1.843-0.625-3.547-0.572-5.115c0.458-0.492,1.044-1.039,1.758-1.549C65.597,13.869,68.39,12.762,72.2,13.555z
			 M78.307,20.877c0,0-0.155-0.136-0.476-0.279c1.285,0.734,2.515,1.84,3.606,3.455c-0.997-0.705-2.457-1.529-4.232-1.904
			c-1.449-0.303-3.108-0.297-4.86,0.342c-1.352,0.49-2.754,1.361-4.161,2.73c-0.024-0.025-0.047-0.057-0.071-0.082
			c-0.404-0.438-0.843-0.775-1.299-1.033c-0.495-0.279-1.011-0.465-1.525-0.572c-0.797-0.166-1.589-0.152-2.324-0.053
			c-0.117-0.354-0.219-0.701-0.314-1.045c1.279-0.658,2.468-1.189,3.571-1.611c1.581-0.715,4.749-1.855,8.035-1.418
			C77.094,19.666,78.307,20.877,78.307,20.877z M32.63,12.639L32.63,12.639L32.63,12.639L32.63,12.639z"/>
		<path fill="#167251" d="M67.582,2.734c-0.632,1.084-8.698,6.293-7.453,20.506c0,0-0.321,1.15-2.039,1.602
			c-0.976,0.258,0.514-0.123,1.98-0.498c1.114-0.287,2.219-0.57,2.219-0.57s-0.024-0.058-0.062-0.16
			c-0.406-1.102-2.604-7.801,1.2-14.516c1.22-2.15,3.048-4.303,5.758-6.271c0,0,0-0.041-0.003-0.107
			c-0.016-0.34-0.146-1.422-1.153-1.924c-0.165-0.083-0.353-0.15-0.569-0.195l-0.438,0.183l-0.984,0.411
			C66.038,1.193,68.214,1.649,67.582,2.734z"/>
	</g>
</g>
</svg>
