<?xml version="1.0" encoding="utf-8"?>
<!-- Generator: Adobe Illustrator 16.0.4, SVG Export Plug-In . SVG Version: 6.00 Build 0)  -->
<!DOCTYPE svg PUBLIC "-//W3C//DTD SVG 1.1//EN" "http://www.w3.org/Graphics/SVG/1.1/DTD/svg11.dtd">
<svg version="1.1" id="_x2014_ÎÓÈ_5" xmlns="http://www.w3.org/2000/svg" xmlns:xlink="http://www.w3.org/1999/xlink" x="0px"
	 y="0px" width="97.319px" height="103.82px" viewBox="0 0 97.319 103.82" enable-background="new 0 0 97.319 103.82"
	 xml:space="preserve">
<g>
	<path fill-rule="evenodd" clip-rule="evenodd" fill="#994A35" d="M72.321,102.626c-5.277-3.539-9.232-6.827-12.403-10.227
		c-2.96-5.056-0.036-18.771,5.123-30.077c0.231-0.508-1.055-2.375-1.055-2.375c-4.664,10.695-5.047,12.912-9.919,24.423
		c-0.03,0.072-0.047,0.154-0.056,0.239c-1.481-2.417-2.797-4.989-4.089-7.817c-3.039-6.653-0.935-16.485-0.935-23.465
		c0-0.962-1.773-1.89-2.044-0.946c-1.941,6.734-4.203,14.282-4.001,21.275c-7.466-2.914-14.644-8.775-18.312-22.695
		c0,0-1.676-0.188-1.533,0.473c3.274,15.212,14.385,23.022,20.485,27.049c1.975,7.686,8.423,14.462,9.151,22.368
		c0.026,0.28,2.689,1.561,5.329,0.938c3.263-0.771,6.712,0.991,9.82,1.645C71.089,104.11,73.882,103.673,72.321,102.626z"/>
	<path d="M72.293,102.667l-3.305-2.302c-0.56-0.37-1.072-0.81-1.609-1.212l-1.595-1.233c-0.543-0.398-1.034-0.858-1.545-1.295
		L62.717,95.3c-0.517-0.432-0.965-0.936-1.457-1.395l-1.444-1.411l-0.012-0.012l-0.006-0.013l-0.468-0.976
		c-0.131-0.333-0.214-0.684-0.323-1.026c-0.123-0.34-0.153-0.698-0.222-1.049c-0.06-0.352-0.134-0.704-0.148-1.06
		c-0.065-0.71-0.116-1.421-0.1-2.133c-0.021-0.713,0.034-1.421,0.072-2.131c0.027-0.711,0.137-1.413,0.201-2.121
		c0.081-0.706,0.205-1.404,0.305-2.107c0.24-1.398,0.525-2.789,0.853-4.168c0.159-0.691,0.353-1.374,0.527-2.062
		c0.171-0.688,0.395-1.362,0.593-2.042c0.195-0.682,0.433-1.351,0.653-2.024c0.216-0.676,0.46-1.342,0.705-2.007
		c0.477-1.336,1.008-2.652,1.562-3.958l0.422-0.977l0.105-0.245l0.053-0.122l0.026-0.061l0.013-0.03l0.007-0.016l0.003-0.007
		c-0.011,0.029,0.028-0.077-0.023,0.064c0.005-0.032,0.031-0.11,0.019-0.105c-0.015,0.003-0.01,0.034-0.012,0.016
		c-0.012-0.054-0.023-0.112-0.049-0.183c-0.201-0.563-0.593-1.18-0.957-1.736l0.78-0.075L59.32,72.404l-2.542,6.154l-1.271,3.076
		l-0.635,1.538c-0.19,0.5-0.473,1.053-0.587,1.509l-0.174,0.695l-0.341-0.618l-1.732-3.143c-0.592-1.04-1.046-2.147-1.575-3.217
		l-0.765-1.629c-0.207-0.561-0.466-1.091-0.615-1.686c-0.382-1.158-0.567-2.342-0.733-3.53c-0.143-1.191-0.212-2.387-0.227-3.583
		c-0.012-1.195,0.011-2.39,0.076-3.581c0.107-2.384,0.31-4.76,0.462-7.133c0.071-1.187,0.139-2.374,0.142-3.56
		c0.011-0.309,0.017-0.567-0.121-0.772c-0.129-0.223-0.34-0.413-0.571-0.55c-0.229-0.134-0.504-0.227-0.72-0.19
		c-0.22,0.036-0.264,0.209-0.348,0.538c-0.64,2.295-1.288,4.585-1.858,6.893c-0.297,1.151-0.539,2.314-0.802,3.471
		c-0.202,1.168-0.48,2.325-0.617,3.501l-0.247,1.758l-0.142,1.767c-0.137,1.177-0.054,2.357-0.088,3.535l-0.015,0.53l-0.46-0.195
		c-0.589-0.25-1.192-0.467-1.77-0.744c-0.582-0.27-1.165-0.536-1.725-0.851c-0.573-0.29-1.121-0.624-1.667-0.962
		c-0.559-0.319-1.065-0.719-1.599-1.076c-0.519-0.379-1.013-0.792-1.518-1.19c-0.472-0.437-0.964-0.853-1.42-1.307
		c-0.439-0.469-0.913-0.909-1.324-1.404c-0.406-0.498-0.854-0.965-1.221-1.494c-0.37-0.525-0.784-1.021-1.118-1.571
		c-0.338-0.545-0.71-1.072-1.02-1.634c-0.308-0.562-0.629-1.119-0.926-1.688l-0.83-1.735c-0.261-0.584-0.491-1.183-0.738-1.773
		c-0.257-0.587-0.447-1.198-0.663-1.801c-0.45-1.2-0.766-2.438-1.135-3.662l0.431,0.372c-0.321-0.029-0.713-0.031-0.957,0.032
		c-0.053,0.014-0.107,0.038-0.091,0.033c-0.003,0.011,0.083-0.096,0.075-0.159c-0.019-0.112,0.018,0.065,0.04,0.139l0.072,0.278
		l0.572,2.221L25,56.136c0.22,0.714,0.566,1.394,0.837,2.095c0.268,0.706,0.619,1.373,0.956,2.047l0.506,1.01l0.572,0.975
		c0.374,0.655,0.759,1.303,1.197,1.918c0.419,0.626,0.835,1.256,1.309,1.844c0.458,0.6,0.909,1.205,1.414,1.768
		c0.489,0.576,0.978,1.151,1.51,1.688c0.514,0.554,1.041,1.095,1.596,1.609c0.537,0.532,1.101,1.036,1.673,1.532
		c1.134,1.003,2.33,1.936,3.542,2.846c1.225,0.895,2.464,1.773,3.732,2.621l0.146,0.098l0.051,0.179l0.384,1.347l0.464,1.328
		c0.339,0.876,0.706,1.745,1.109,2.6c0.801,1.713,1.71,3.385,2.588,5.08c0.882,1.693,1.758,3.401,2.505,5.173
		c0.375,0.885,0.707,1.791,1,2.708c0.128,0.465,0.271,0.926,0.386,1.394l0.291,1.418l0.171,1.372
		c0.034,0.082,0.046,0.019,0.052,0.045l0.13,0.088c0.097,0.055,0.193,0.111,0.298,0.159c0.204,0.101,0.421,0.186,0.64,0.264
		c0.878,0.301,1.814,0.473,2.746,0.446c0.926-0.009,1.864-0.321,2.831-0.299c0.488,0.01,0.977,0.01,1.45,0.1
		c0.479,0.054,0.952,0.14,1.416,0.26c0.937,0.206,1.848,0.5,2.76,0.775c0.911,0.283,1.826,0.547,2.75,0.753
		c0.933,0.188,1.876,0.314,2.825,0.311c0.471-0.004,0.953-0.023,1.399-0.156c0.213-0.061,0.463-0.178,0.476-0.374
		C72.698,102.955,72.462,102.807,72.293,102.667z M72.35,102.585c0.178,0.154,0.431,0.275,0.467,0.573
		c-0.029,0.311-0.335,0.414-0.548,0.486c-0.469,0.143-0.954,0.166-1.432,0.175c-0.959,0.014-1.919-0.107-2.855-0.286
		c-0.939-0.2-1.86-0.457-2.774-0.731c-0.915-0.267-1.826-0.551-2.754-0.745c-0.461-0.115-0.927-0.195-1.398-0.243
		c-0.469-0.087-0.936-0.067-1.401-0.07c-0.462-0.038-0.94,0.117-1.409,0.165c-0.447,0.082-0.949,0.196-1.431,0.203
		c-0.976,0.05-1.952-0.104-2.882-0.398c-0.232-0.078-0.462-0.161-0.688-0.266c-0.114-0.049-0.225-0.11-0.337-0.17l-0.168-0.109
		c-0.077-0.057-0.18-0.179-0.189-0.213l-0.005-0.01c-0.009-0.032,0.012,0.058-0.021-0.074l-0.003-0.021l-0.007-0.044l-0.013-0.087
		l-0.026-0.175l-0.052-0.349l-0.104-0.698l-0.316-1.377c-0.123-0.455-0.276-0.902-0.413-1.353c-0.31-0.891-0.658-1.77-1.049-2.631
		c-0.78-1.725-1.69-3.392-2.615-5.058c-0.928-1.664-1.856-3.338-2.701-5.066c-0.423-0.864-0.813-1.748-1.176-2.645L43.547,80
		l-0.422-1.398l0.197,0.277c-1.284-0.837-2.564-1.691-3.807-2.603c-1.234-0.922-2.454-1.868-3.613-2.889
		c-0.584-0.504-1.161-1.018-1.712-1.56c-0.568-0.524-1.109-1.077-1.637-1.642c-0.545-0.548-1.048-1.137-1.55-1.725
		c-0.519-0.575-0.984-1.194-1.455-1.809c-0.487-0.603-0.917-1.248-1.349-1.891c-0.45-0.631-0.848-1.295-1.235-1.968l-0.59-1.001
		l-0.524-1.038c-0.348-0.692-0.71-1.379-0.989-2.104c-0.285-0.722-0.627-1.417-0.855-2.166l-0.728-2.223l-0.557-2.225l-0.07-0.278
		c-0.016-0.113-0.058-0.115-0.069-0.421c-0.009-0.253,0.185-0.544,0.345-0.633c0.169-0.122,0.302-0.154,0.432-0.193
		c0.502-0.111,0.887-0.086,1.325-0.05l0.329,0.026l0.102,0.346c0.355,1.202,0.657,2.423,1.089,3.599
		c0.207,0.591,0.389,1.192,0.637,1.767c0.238,0.579,0.458,1.165,0.71,1.737l0.798,1.697c0.285,0.556,0.594,1.098,0.89,1.648
		c0.297,0.549,0.655,1.062,0.979,1.594c0.321,0.536,0.719,1.018,1.074,1.53c0.354,0.515,0.783,0.969,1.167,1.458
		c0.391,0.486,0.843,0.916,1.262,1.377c0.435,0.446,0.905,0.855,1.356,1.285c0.483,0.393,0.956,0.799,1.454,1.174
		c0.513,0.353,0.998,0.75,1.536,1.066c0.526,0.336,1.054,0.668,1.608,0.958c0.541,0.314,1.106,0.582,1.669,0.854
		c0.56,0.279,1.147,0.5,1.72,0.752l-0.475,0.334c0.05-1.202-0.015-2.411,0.141-3.603l0.169-1.792l0.275-1.776
		c0.156-1.189,0.452-2.35,0.674-3.524c0.282-1.161,0.543-2.328,0.858-3.478c0.607-2.309,1.292-4.593,1.966-6.876
		c0.048-0.146,0.066-0.27,0.162-0.463c0.102-0.172,0.292-0.308,0.483-0.334c0.378-0.055,0.696,0.081,0.976,0.24
		c0.277,0.168,0.525,0.389,0.696,0.683c0.199,0.31,0.175,0.679,0.165,0.958c-0.01,1.197-0.085,2.388-0.163,3.578
		c-0.333,4.745-0.885,9.517-0.291,14.229c0.171,1.165,0.367,2.345,0.742,3.45c0.143,0.563,0.411,1.109,0.621,1.663
		c0.242,0.522,0.523,1.061,0.783,1.591c0.547,1.054,1.019,2.148,1.626,3.168l1.775,3.082l-0.515,0.077
		c0.158-0.618,0.392-1.06,0.584-1.599l0.606-1.547l1.213-3.095l2.424-6.188l5.011-12.342l0.315-0.777l0.464,0.702
		c0.41,0.62,0.786,1.205,1.06,1.974c0.033,0.096,0.06,0.21,0.08,0.33c0.012,0.069,0.012,0.189,0.003,0.28
		c-0.011,0.093-0.021,0.1-0.031,0.154l-0.032,0.087l-0.007,0.015l-0.013,0.03l-0.027,0.06l-0.053,0.12l-0.107,0.241L64.8,63.946
		c-0.562,1.286-1.103,2.583-1.589,3.9c-0.25,0.656-0.499,1.313-0.72,1.98c-0.226,0.665-0.468,1.325-0.669,1.998
		c-0.203,0.672-0.432,1.337-0.621,2.013c-0.189,0.676-0.397,1.348-0.571,2.028c-0.358,1.358-0.674,2.727-0.945,4.104
		c-0.116,0.691-0.256,1.38-0.352,2.075c-0.08,0.696-0.206,1.389-0.25,2.088c-0.054,0.699-0.125,1.397-0.12,2.097
		c-0.033,0.701,0,1.398,0.048,2.095c0.005,0.351,0.071,0.693,0.121,1.038c0.06,0.342,0.081,0.695,0.191,1.024
		c0.098,0.332,0.17,0.675,0.289,0.998l0.425,0.944l-0.018-0.024l1.403,1.437c0.476,0.471,0.918,0.978,1.43,1.411l1.505,1.333
		c0.505,0.439,0.991,0.903,1.529,1.304l1.58,1.243c0.533,0.406,1.039,0.848,1.597,1.223L72.35,102.585z"/>
</g>
<path fill-rule="evenodd" clip-rule="evenodd" fill="#773032" d="M59.796,101.598c2.642,0.006,5.342,1.215,7.835,1.781
	c-5.551-5.251-9.028-9.034-8.44-6.179C59.642,99.393,59.781,100.124,59.796,101.598z"/>
<path fill-rule="evenodd" clip-rule="evenodd" fill="#773032" d="M46.942,52.382c-2.167,7.521-4.746,16.059-3.832,23.703
	c1.04,8.707,8.82,16.049,9.623,24.768c0.021,0.235,1.909,1.178,4.078,1.102c-1.411-6.487-9.286-17.056-11.967-24.995
	c-2.242-6.637,1.997-17.329,3.617-24.562C47.916,51.943,47.117,51.774,46.942,52.382z"/>
<path fill-rule="evenodd" clip-rule="evenodd" fill="#773032" d="M54.693,86.548c-0.542-0.905-0.83-1.692-0.626-2.176
	c4.872-11.511,5.255-13.728,9.919-24.423c0,0,0.305,0.441,0.591,0.954C61.086,68.635,57.849,77.417,54.693,86.548z"/>
<g>
	<path fill="#009247" d="M93.66,47.811c0.243-0.174,0.449-0.339,0.617-0.49c1.733,0.184,3.112-0.075,2.949-0.284
		c-1.38-1.76-0.715-3.646-2.156-5.132c-0.03-0.031-0.062-0.062-0.092-0.092c1.351-0.93,2.134-1.934,1.866-1.983
		c-2.033-0.383-2.972-1.828-4.638-2.299c0.408-0.88,0.773-1.814,1.709-2.603c0.181-0.152-0.8-0.567-2.22-0.763
		c0.563-1.037,0.853-2.224,2-3.19c0.202-0.172-1.046-0.669-2.737-0.823c1.324-0.676,2.135-1.437,1.897-1.521
		c-1.289-0.459-2.014-1.308-2.814-2.037c0.289-0.559,0.649-1.109,1.235-1.602c0.267-0.225-1.986-1.019-4.456-0.843
		c0.756-1.125,0.947-2.515,2.257-3.618c0.285-0.241-2.314-1.133-4.977-0.791c0.235-0.361,0.523-0.71,0.908-1.035
		c0.121-0.103-0.284-0.325-0.994-0.518c0.712-1.111,0.925-2.462,2.203-3.537c0.283-0.24-2.27-1.118-4.909-0.8
		c-0.025-0.042-0.052-0.084-0.079-0.126c0.151-0.97,0.223-1.985,0.918-2.998c0.145-0.21-1.164-0.387-2.808-0.141
		c0.116-0.784,0.276-1.59,0.829-2.394c0.191-0.278-2.151-0.497-4.458,0.239c0.002-0.348-0.066-0.739-0.225-1.176
		C74.8,5.362,72.693,4.96,71.719,2.984c-0.155-0.314-1.762,1.541-2.296,3.864c-0.038,0.006-0.075,0.013-0.113,0.019
		c-0.12-2.462-1.519-4.641-1.724-4.34c-0.794,1.163-1.946,1.645-2.927,2.295c-0.513-2.432-2.272-4.411-2.426-4.083
		c-0.544,1.156-1.481,1.789-2.297,2.487c-0.81-0.833-1.828-1.531-2.337-2.83c-0.125-0.321-1.858,1.377-2.604,3.624
		c-0.571-0.473-1.121-1.004-1.5-1.772c-0.126-0.256-1.226,0.939-1.913,2.653c0.164-1.272-0.214-2.581,0.487-4.029
		c0.191-0.393-3.889-0.108-6.241,2.068c-0.1,0.092-0.188,0.189-0.265,0.289c-0.687-0.643-1.412-1.294-1.816-2.326
		c-0.126-0.323-1.883,1.401-2.62,3.67c-0.766-1.399-2.405-2.054-3.097-3.822c-0.144-0.367-2.394,1.908-2.857,4.625
		c-0.066,0.018-0.13,0.036-0.196,0.055C34.267,4.766,33.5,4.104,33.08,3.034c-0.149-0.381-2.565,2.084-2.901,4.935
		c-0.798-0.647-1.679-1.258-2.214-2.35c-0.145-0.292-1.553,1.299-2.178,3.396c-0.739-0.587-1.516-1.184-2.007-2.179
		c-0.173-0.349-2.147,1.993-2.433,4.676c-2.156-0.727-4.283-0.623-4.116-0.349c0.987,1.625,0.468,3.183,1.088,4.622
		c-2.353-1.421-5.355-1.56-5.188-1.223c0.323,0.65,0.425,1.272,0.457,1.878c-2.089-0.892-4.227-0.948-4.085-0.661
		c0.654,1.318,0.403,2.527,0.491,3.697c-0.975-0.257-1.998-0.484-2.938-1.225c-0.268-0.213-0.829,1.852-0.391,4.039
		c-0.915-0.131-1.529-0.078-1.45,0.08c0.409,0.825,0.465,1.606,0.469,2.362c-0.051,0.102-0.096,0.207-0.136,0.312
		c-1.469-0.375-2.639-0.352-2.533-0.139c0.524,1.056,0.467,2.04,0.469,2.991c-0.915,0.552-1.8,1.21-3.123,1.409
		c-0.309,0.045,0.706,1.391,2.384,2.465c-1.219,0.495-1.975,1.066-1.769,1.167c2.074,1.029,2.37,2.993,4.369,3.75
		c0.176,0.067,0.348,0.122,0.512,0.165c-0.995,0.706-1.814,1.655-3.302,2.063C2.109,39.039,5,41.707,8.324,41.934
		c0.083,0.006,0.162,0.009,0.242,0.006c-0.022,0.022-0.044,0.044-0.067,0.066c-1.44,1.486-0.776,3.374-2.156,5.133
		c-0.217,0.276,2.288,0.641,4.722-0.059c-1.964,2.208-2.194,5.501-1.796,5.335c1.298-0.54,2.495-0.396,3.651-0.421
		c-0.211,2.061,0.396,3.873,0.64,3.661c0.558-0.483,1.159-0.764,1.763-0.985c-0.375,1.276-0.362,2.271-0.137,2.181
		c0.869-0.355,1.689-0.402,2.483-0.401c0.012,0.077,0.037,0.149,0.046,0.23c0.008,0.078,0.14,0.062,0.339-0.021
		c-0.356,1.245-0.339,2.208-0.12,2.119c1.382-0.565,2.644-0.36,3.865-0.401c0.385,1.198,1.228,2.261,1.175,3.808
		c-0.008,0.223,0.979-0.125,2.111-0.912c0.377,1.215,1.242,2.287,1.186,3.851c-0.009,0.307,1.843-0.458,3.374-1.949
		c0.25,0.596,0.502,0.923,0.601,0.808c0.859-1,1.956-1.384,2.949-1.872c0.288,0.816,0.619,1.297,0.736,1.162
		c0.808-0.939,1.823-1.336,2.766-1.784c0.165,1.961,0.992,3.537,1.192,3.304c1.316-1.53,3.186-1.62,4.394-2.844
		c0.337,2.66,2.321,4.952,2.489,4.603c0.492-1.033,1.295-1.643,2.046-2.257c0.24,0.451,0.542,0.866,0.876,1.247
		c-0.162,0.643-0.391,1.294-0.889,1.929c-0.172,0.219,1.378,0.496,3.245,0.247c-0.69,1.673-0.725,3.191-0.452,3.078
		c2.154-0.878,4.018,0.109,5.892-0.881c0.267-0.141,0.495-0.29,0.689-0.444c1.677,2.079,4.434,3.165,4.405,2.795
		c-0.082-0.975,0.207-1.771,0.51-2.533c0.265-0.003,0.527-0.001,0.786,0.003c0.419,1.649,1.223,2.838,1.382,2.615
		c0.433-0.607,0.961-1.023,1.51-1.373c0.711,1.62,1.76,2.72,1.878,2.471c0.03-0.064,0.069-0.115,0.101-0.175
		c0.742,0.165,2.064,0.269,3.468,0.062c0.156,0.191,0.312,0.389,0.46,0.594c0.004,0.007,0.007,0.014,0.014,0.019
		c0.349,0.486,0.651,1.025,0.807,1.696c0.067,0.287,1.521-0.762,2.607-2.413c0.093-0.002,0.184-0.006,0.271-0.011
		c0.323,0.466,0.604,0.979,0.752,1.611c0.051,0.223,0.945-0.359,1.852-1.405c0.233,0.276,0.444,0.586,0.616,0.949
		c0.087,0.183,0.674-0.361,1.262-1.302c0.381,0.375,0.73,0.805,0.992,1.353c0.169,0.352,2.198-2.001,2.5-4.701
		c0.697,0.191,1.398,0.446,2.064,0.954c0.254,0.193,0.722-1.586,0.4-3.59c2.495,0.506,4.959-0.061,4.716-0.319
		c-1.54-1.643-1.057-3.574-2.632-4.94l-0.052-0.044c1.995,0.149,3.656-0.277,3.454-0.491c-1.396-1.49-1.135-3.216-2.247-4.542
		c2.577,0.908,5.445,0.517,5.213,0.22c-1.132-1.443-0.89-2.972-1.561-4.295c2.087,0.381,3.948,0.074,3.759-0.165
		C94.217,50.917,94.64,49.221,93.66,47.811z"/>
	<path d="M93.595,47.799l0.646-0.523l0.018-0.014l0.023,0.002c0.729,0.067,1.466,0.077,2.188-0.016
		c0.179-0.025,0.359-0.057,0.525-0.111c0.075-0.01,0.182-0.1,0.158-0.065c-0.01-0.004-0.09-0.133-0.131-0.194l-0.303-0.461
		l-0.229-0.521c-0.086-0.172-0.124-0.354-0.181-0.532c-0.054-0.178-0.107-0.357-0.144-0.538l-0.252-1.072l-0.167-0.514
		c-0.049-0.175-0.153-0.322-0.226-0.484c-0.069-0.167-0.176-0.308-0.292-0.442c-0.117-0.135-0.206-0.285-0.344-0.408L94.765,41.8
		l0.138-0.098c0.539-0.383,1.054-0.81,1.489-1.296c0.105-0.123,0.209-0.25,0.287-0.377c0.038-0.049,0.063-0.162,0.062-0.112
		c0.011,0.026,0.029,0.053,0.062,0.065c0.001-0.003-0.035-0.01-0.05-0.015l-0.122-0.031c-0.325-0.075-0.649-0.164-0.975-0.314
		c-0.644-0.272-1.213-0.655-1.768-1.024c-0.282-0.175-0.554-0.369-0.847-0.506c-0.146-0.067-0.284-0.162-0.438-0.206l-0.451-0.162
		l-0.216-0.077l0.088-0.202c0.185-0.426,0.385-0.852,0.611-1.276c0.114-0.21,0.265-0.404,0.396-0.607
		c0.121-0.213,0.321-0.364,0.482-0.547l0.127-0.131l0.064-0.066l0.032-0.033l0.016-0.017l0.008-0.008l0.004-0.004l0.002-0.002
		l0.001-0.001c0.044-0.052-0.059,0.069-0.048,0.056c-0.001,0.001,0.036-0.055,0.003-0.006c-0.049,0.064,0.012,0.185,0,0.16
		c0.013,0.021,0.01,0.014-0.005,0.003c-0.024-0.018-0.066-0.043-0.111-0.065c-0.181-0.09-0.399-0.161-0.613-0.223
		c-0.432-0.125-0.881-0.211-1.332-0.273l-0.328-0.045l0.148-0.311l0.726-1.521c0.129-0.256,0.3-0.502,0.45-0.753
		c0.131-0.266,0.383-0.45,0.571-0.677l0.153-0.162l0.077-0.081l0.038-0.041l0.019-0.021l0.01-0.01l0.002-0.003l0.001-0.001
		c0.055-0.067-0.073,0.09-0.059,0.073l0.003-0.005c0.01-0.002,0.028-0.079-0.017,0.054c-0.008,0.049,0.011,0.102,0.028,0.125
		l0.001,0.007c0.016,0.014-0.01-0.006-0.024-0.016c-0.039-0.025-0.092-0.055-0.149-0.08c-0.229-0.104-0.494-0.184-0.756-0.253
		c-0.529-0.134-1.075-0.22-1.623-0.27l-0.901-0.082l0.804-0.418c0.435-0.226,0.859-0.479,1.246-0.768
		c0.188-0.143,0.384-0.304,0.508-0.455c0.026-0.021,0.052-0.1,0.032-0.022c-0.048,0.069,0.132,0.244,0.107,0.204l-0.086-0.04
		l-0.342-0.159l-0.342-0.16c-0.115-0.042-0.225-0.14-0.337-0.21c-0.216-0.158-0.461-0.302-0.649-0.476
		c-0.394-0.341-0.764-0.683-1.125-1.025l-0.171-0.162l0.11-0.18l0.457-0.751c0.066-0.132,0.184-0.23,0.28-0.342l0.305-0.327
		l0.153-0.163l0.077-0.081l0.019-0.02l0.005-0.005l0.002-0.002l0.001-0.001c-0.037,0.053,0.085-0.119-0.083,0.117l0.005-0.012
		c-0.005,0.008,0.041-0.085-0.005,0.005c-0.029,0.066-0.001,0.165,0.04,0.199c0.011,0.012-0.007-0.002-0.009-0.002
		c-0.009-0.007-0.017-0.017-0.047-0.031c-0.045-0.026-0.096-0.052-0.156-0.076c-0.231-0.097-0.49-0.178-0.752-0.242
		c-1.05-0.257-2.157-0.346-3.237-0.272l-0.621,0.042l0.344-0.521c0.407-0.618,0.667-1.367,1.056-2.095
		c0.088-0.185,0.209-0.358,0.318-0.536c0.104-0.182,0.254-0.336,0.38-0.505c0.128-0.168,0.297-0.302,0.444-0.454l0.057-0.056
		l0.029-0.027l0.014-0.014l0.004-0.003l0.001-0.002c0.05-0.054-0.066,0.072-0.053,0.059l0.005-0.008l0.011-0.015
		c-0.011,0.009-0.053,0.079-0.055,0.129c0,0.138,0.012,0.113,0.027,0.158c0.02,0.039,0.032,0.039,0.023,0.036
		c-0.021-0.019-0.104-0.065-0.179-0.098c-0.665-0.274-1.453-0.415-2.209-0.495c-0.765-0.075-1.539-0.072-2.294,0.025l-0.793,0.103
		l0.465-0.625l0.411-0.552c0.158-0.167,0.325-0.327,0.488-0.49l0.062-0.061c-0.186,0.279,0.015-0.078-0.096,0.158
		c-0.018,0.08,0.016,0.173,0.056,0.214c0.007,0.01-0.001,0.004,0,0.006c-0.003,0,0.006,0-0.016-0.011
		c-0.053-0.034-0.141-0.076-0.228-0.11c-0.176-0.074-0.375-0.13-0.569-0.186l-0.45-0.129l0.248-0.395
		c0.385-0.613,0.642-1.351,1.032-2.068c0.191-0.36,0.428-0.707,0.7-1.026c0.132-0.164,0.296-0.298,0.443-0.447l0.057-0.054
		l0.028-0.027l0.002-0.002c0.055-0.06-0.074,0.08-0.06,0.065l0.002-0.003l0.006-0.007c-0.002,0.003,0.021-0.027-0.002,0.003
		c-0.127,0.279,0.013,0.328-0.002,0.345c0.019,0.023,0.017,0.019,0.012,0.016c-0.024-0.02-0.105-0.062-0.178-0.094
		c-0.646-0.265-1.419-0.404-2.16-0.484c-0.749-0.076-1.506-0.076-2.247,0.014l-0.238,0.029l-0.134-0.211l-0.072-0.114l-0.076-0.119
		l0.02-0.146c0.065-0.496,0.149-1.007,0.261-1.532l0.252-0.778c0.123-0.246,0.26-0.487,0.392-0.73l0.05-0.091l0.013-0.022
		l0.003-0.006l0.001-0.001c-0.118,0.269-0.032,0.074-0.059,0.133l0.001-0.002l0.003-0.012l0.006-0.023
		c-0.016,0.042-0.024,0.123-0.001,0.19c0.015,0.065,0.081,0.135,0.089,0.141l0.014,0.015c0.005,0.007,0.035,0.018,0.023,0.015
		l-0.035-0.012c-0.074-0.024-0.194-0.041-0.302-0.056c-0.227-0.026-0.469-0.034-0.71-0.032c-0.484,0.002-0.973,0.048-1.456,0.12
		l-0.55,0.082l0.094-0.537c0.054-0.305,0.09-0.607,0.178-0.917c0.061-0.311,0.19-0.613,0.306-0.916
		c0.06-0.151,0.154-0.287,0.231-0.431l0.122-0.212l0.031-0.053l0.016-0.026l0.004-0.007l0.001-0.003
		c-0.14,0.383-0.039,0.105-0.07,0.19l0-0.002l0.002-0.014c0.009-0.017-0.005-0.076-0.002,0.085
		c-0.001,0.117,0.153,0.233,0.147,0.221c0.012,0-0.167-0.043-0.277-0.057c-0.133-0.015-0.269-0.027-0.41-0.032
		c-1.128-0.032-2.298,0.138-3.382,0.484l-0.454,0.145l-0.101-0.552c-0.037-0.207-0.012-0.411-0.089-0.619L75.11,7.496l-0.021-0.078
		c0.032,0.061-0.015-0.03-0.018-0.038L74.99,7.218c-0.108-0.213-0.21-0.457-0.346-0.582c-0.122-0.153-0.237-0.312-0.418-0.466
		c-0.312-0.319-0.698-0.594-1.079-0.91c-0.376-0.309-0.782-0.633-1.116-1.043c-0.184-0.188-0.34-0.402-0.471-0.638l-0.209-0.342
		l-0.026-0.043l-0.006-0.011c0.061,0.072-0.138-0.165,0.136,0.161l-0.002-0.002L71.447,3.34l-0.019-0.013l-0.018-0.014
		c0.003,0.005,0.045,0.042,0.077,0.057c0.071,0.039,0.17,0.046,0.237,0.025c0.093-0.034,0.021-0.001,0.039-0.008
		c0-0.003-0.015,0.009-0.032,0.024c-0.124,0.104-0.282,0.276-0.416,0.452c-0.139,0.174-0.268,0.365-0.392,0.557
		c-0.49,0.777-0.861,1.64-1.076,2.526l-0.069,0.286l-0.283,0.047l-0.113,0.019l-0.485,0.08l-0.023-0.489
		c-0.033-0.672-0.162-1.347-0.369-1.998c-0.208-0.644-0.488-1.298-0.851-1.817c-0.044-0.06-0.092-0.121-0.13-0.159
		c-0.018-0.019-0.035-0.032-0.03-0.029c0.017,0.009,0.005,0.009,0.078,0.029c0.033,0.02,0.222,0.003,0.306-0.085l-0.316,0.366
		c-0.123,0.134-0.223,0.273-0.365,0.403l-0.468,0.375c-0.317,0.27-0.627,0.431-0.94,0.633l-0.904,0.556L64.381,5.47L64.26,4.906
		c-0.275-1.274-0.892-2.537-1.729-3.522c-0.102-0.114-0.223-0.234-0.305-0.289c-0.016-0.014-0.039-0.018,0.004-0.005
		c0.032,0.001,0.071,0.028,0.205-0.027c0.053-0.031,0.098-0.064,0.13-0.116l0.02-0.038l-0.023,0.041l-0.008,0.014l-0.137,0.222
		L62.145,1.63c-0.083,0.148-0.243,0.293-0.363,0.438c-0.255,0.308-0.527,0.544-0.798,0.775c-0.271,0.243-0.534,0.446-0.802,0.671
		l-0.265,0.223l-0.254-0.246l-0.737-0.714c-0.25-0.257-0.52-0.476-0.744-0.778l-0.35-0.429c-0.123-0.137-0.188-0.323-0.284-0.483
		l-0.263-0.5L57.27,0.556l-0.008-0.016l-0.004-0.008c0.045,0.063-0.102-0.145,0.1,0.141l-0.001-0.001L57.354,0.67l-0.024-0.021
		l-0.012-0.011c0.008,0.011,0.025,0.029,0.042,0.042c0.065,0.065,0.212,0.056,0.236,0.037l-0.017,0.011
		c-0.023,0.01-0.092,0.057-0.144,0.101c-0.466,0.396-0.887,0.953-1.243,1.508c-0.353,0.566-0.65,1.168-0.864,1.795l-0.17,0.5
		l-0.387-0.339c-0.37-0.324-0.752-0.654-1.058-1.07c-0.168-0.194-0.296-0.419-0.423-0.644l-0.097-0.167l-0.006-0.01
		c0.167,0.215,0.045,0.059,0.083,0.107l-0.001-0.001l-0.002-0.002l-0.004-0.004l-0.017-0.015c-0.042-0.041,0.052,0.068,0.129,0.071
		c0.041,0.008,0.081,0.004,0.111-0.004c0.014-0.004,0.006,0,0.01,0L53.5,2.551c-0.032,0.02-0.121,0.085-0.19,0.161
		c-0.298,0.304-0.567,0.69-0.803,1.081C52.27,4.186,52.062,4.6,51.89,5.025L50.945,7.35l0.306-2.491
		c0.107-0.871-0.034-1.836,0.129-2.836c0.031-0.248,0.113-0.493,0.176-0.737L51.7,0.933l0.072-0.177l0.009-0.022
		c0.007-0.022-0.055,0.185-0.029,0.096l0-0.002l0.001-0.006l0.002-0.011c0.009-0.078-0.032,0.129,0.056,0.202
		c0.062,0.071,0.076,0.054,0.064,0.057c-0.101-0.031-0.371-0.036-0.579-0.021c-0.222,0.013-0.448,0.04-0.674,0.074
		c-0.902,0.142-1.794,0.406-2.629,0.777c-0.418,0.186-0.818,0.405-1.196,0.656c-0.189,0.125-0.369,0.262-0.544,0.403l-0.235,0.208
		l-0.24,0.26l-0.207,0.225l-0.21-0.208c-0.231-0.228-0.471-0.431-0.693-0.681c-0.234-0.231-0.447-0.487-0.638-0.768
		c-0.22-0.257-0.335-0.587-0.497-0.884l-0.028-0.057l-0.014-0.029l-0.007-0.014l-0.001-0.003c0.156,0.221,0.042,0.06,0.077,0.109
		l-0.001-0.001L43.553,1.11c0.002,0.005-0.067-0.067-0.007,0.001c0.043,0.043,0.125,0.053,0.166,0.034
		c-0.014,0.009-0.067,0.034-0.122,0.078c-0.107,0.078-0.217,0.182-0.323,0.286c-0.84,0.88-1.494,1.987-1.889,3.147l-0.184,0.541
		l-0.3-0.496c-0.212-0.351-0.462-0.683-0.768-0.988l-0.949-0.921c-0.318-0.314-0.638-0.653-0.889-1.046
		c-0.142-0.185-0.248-0.394-0.346-0.607L37.82,0.885c-0.034-0.045,0.045,0.076,0.111,0.072c0.042,0.006,0.034,0.006,0.053,0.002
		c0.004,0.002,0.001-0.002-0.016,0.008c-0.026,0.012-0.066,0.037-0.103,0.064C37.554,1.264,37.262,1.602,37,1.936
		c-0.262,0.34-0.501,0.701-0.713,1.077c-0.424,0.75-0.743,1.562-0.894,2.402l-0.025,0.142l-0.139,0.039l-0.191,0.053l-0.125,0.035
		l-0.091-0.087c-0.274-0.262-0.553-0.515-0.816-0.803c-0.28-0.265-0.497-0.602-0.735-0.913L33.001,3.35l-0.066-0.133l-0.033-0.066
		l-0.017-0.033c0.055,0.095,0.003,0.01,0.01,0.024c0.177,0.128,0.132,0.039,0.12,0.072c-0.025,0.012-0.056,0.029-0.089,0.052
		c-0.269,0.19-0.526,0.473-0.757,0.753c-0.919,1.143-1.61,2.521-1.8,3.973l-0.045,0.345l-0.266-0.219
		c-0.24-0.198-0.484-0.383-0.722-0.591c-0.234-0.213-0.486-0.401-0.691-0.652C28.425,6.641,28.213,6.4,28.06,6.112L27.805,5.7
		l-0.001-0.002c-0.045-0.056,0.062,0.075,0.05,0.062l-0.002-0.002l-0.006-0.004l-0.011-0.009c-0.006-0.004-0.019-0.017-0.019-0.013
		c0.015,0.031,0.064,0.048,0.091,0.037c0.009-0.001-0.031,0.019-0.046,0.027c-0.051,0.04-0.104,0.078-0.155,0.131
		c-0.414,0.41-0.756,0.933-1.05,1.46c-0.291,0.534-0.534,1.096-0.711,1.677l-0.072,0.235l-0.187-0.154
		c-0.274-0.226-0.556-0.439-0.818-0.689c-0.129-0.125-0.275-0.232-0.388-0.377l-0.357-0.412c-0.115-0.141-0.197-0.308-0.296-0.46
		L23.683,6.97c-0.012-0.044-0.09-0.095,0.017-0.017c0.055,0.007,0.01-0.001-0.013,0.022c-0.242,0.161-0.474,0.456-0.672,0.728
		c-0.793,1.13-1.352,2.458-1.504,3.827l-0.022,0.201l-0.193-0.063c-0.705-0.23-1.435-0.394-2.172-0.477
		c-0.368-0.041-0.739-0.065-1.105-0.058c-0.182,0.002-0.366,0.017-0.528,0.049c-0.039,0.009-0.083,0.018-0.102,0.029
		c-0.043,0.003-0.001,0.041,0.015-0.094c-0.006-0.02,0.072,0.139,0.104,0.2c0.079,0.175,0.185,0.321,0.238,0.521
		c0.059,0.19,0.136,0.38,0.177,0.571c0.086,0.381,0.139,0.762,0.176,1.142c0.031,0.378,0.069,0.75,0.115,1.115l0.107,0.535
		l0.173,0.508l0.17,0.501l-0.443-0.263c-1.044-0.619-2.223-1.018-3.422-1.226c-0.3-0.051-0.603-0.087-0.901-0.103
		c-0.149-0.007-0.299-0.008-0.438,0.003c-0.065,0.007-0.14,0.017-0.177,0.031c-0.015-0.009-0.01,0.048,0.047-0.092
		c0.003-0.026,0.005-0.053-0.007-0.078c-0.002-0.002,0.006,0.015,0.008,0.021l0.023,0.054c0.13,0.274,0.236,0.582,0.319,0.913
		c0.065,0.319,0.108,0.638,0.127,0.958l0.021,0.338l-0.315-0.132c-0.604-0.253-1.235-0.449-1.875-0.591
		c-0.321-0.067-0.644-0.123-0.968-0.16c-0.318-0.034-0.662-0.057-0.935-0.014c-0.041,0.003-0.047,0.014-0.07,0.017
		c-0.014,0.004,0.104-0.031,0.049-0.205l0.101,0.24c0.067,0.151,0.131,0.307,0.176,0.488c0.108,0.35,0.163,0.692,0.188,1.039
		c0.059,0.691,0.009,1.366,0.057,2.009l0.024,0.332l-0.319-0.087c-0.301-0.083-0.6-0.149-0.903-0.245
		c-0.302-0.098-0.608-0.175-0.9-0.319c-0.3-0.118-0.589-0.262-0.854-0.455L6.96,18.479c-0.047-0.013,0.074,0.038,0.111,0.003
		c0.063-0.04,0.044-0.035,0.041-0.022c-0.008,0.013-0.019,0.021-0.033,0.055c-0.027,0.049-0.05,0.114-0.073,0.179
		c-0.172,0.542-0.236,1.159-0.248,1.755C6.75,21.05,6.8,21.652,6.917,22.24l0.071,0.353l-0.359-0.049
		c-0.316-0.043-0.638-0.074-0.943-0.067c-0.075,0.002-0.15,0.006-0.214,0.017c-0.032,0.004-0.063,0.011-0.079,0.017
		c-0.026-0.008-0.01,0.048,0.067-0.096c0.007-0.252,0.004-0.069,0.028-0.067l0.046,0.115l0.093,0.229
		c0.069,0.145,0.113,0.319,0.153,0.497c0.041,0.175,0.092,0.353,0.103,0.522c0.05,0.344,0.062,0.683,0.069,1.021l0.001,0.053
		l-0.029,0.068L5.8,25.14l-0.095,0.219l-0.223-0.055c-0.449-0.111-0.904-0.2-1.36-0.246c-0.227-0.023-0.456-0.037-0.67-0.029
		c-0.102,0.002-0.223,0.018-0.262,0.034c0.017-0.016-0.011,0.03,0.074-0.077c0.016-0.039,0.04-0.106,0.017-0.171
		c-0.011-0.021,0.006,0.018,0.008,0.024l0.063,0.167l0.127,0.332c0.037,0.116,0.097,0.209,0.114,0.345
		c0.048,0.253,0.103,0.511,0.139,0.764c0.037,0.495,0.049,0.978,0.043,1.449l-0.002,0.164l-0.138,0.086L2.89,28.606
		c-0.263,0.146-0.512,0.31-0.788,0.439L1.681,29.23c-0.143,0.056-0.275,0.137-0.43,0.165l-0.45,0.113l-0.225,0.056l-0.113,0.028
		l-0.028,0.007L0.42,29.603l-0.007,0.002l-0.004,0l-0.001,0c-0.102,0.037,0.136-0.049,0.111-0.04c0,0.001-0.068,0.036-0.012,0.008
		c0.092-0.031,0.117-0.217,0.106-0.207c0.003-0.003,0.003-0.006,0.001-0.009l0.022,0.048c0.026,0.046,0.053,0.098,0.093,0.151
		c0.071,0.105,0.159,0.213,0.249,0.316c0.182,0.208,0.381,0.408,0.59,0.598c0.418,0.379,0.873,0.723,1.35,1.028l0.517,0.331
		l-0.569,0.235c-0.32,0.132-0.634,0.28-0.933,0.444c-0.148,0.083-0.294,0.171-0.427,0.264c-0.066,0.047-0.13,0.095-0.183,0.141
		c-0.052,0.022-0.101,0.152-0.054,0.007c0.019-0.102-0.04-0.222-0.124-0.269l0.053,0.033l0.115,0.069l0.23,0.138
		c0.153,0.096,0.307,0.169,0.458,0.309c0.313,0.246,0.6,0.506,0.839,0.783c0.259,0.268,0.475,0.557,0.708,0.824
		c0.222,0.276,0.455,0.528,0.696,0.759c0.112,0.13,0.255,0.208,0.382,0.312c0.129,0.102,0.258,0.202,0.41,0.262l0.419,0.209
		l0.51,0.162l0.639,0.203l-0.542,0.425l-1.066,0.837c-0.188,0.141-0.353,0.298-0.565,0.421l-0.611,0.388
		c-0.206,0.125-0.448,0.193-0.671,0.291l-0.342,0.135l-0.085,0.034L2.68,39.263l-0.021,0.008l-0.003,0.001
		c-0.09,0.04,0.12-0.053,0.098-0.043l-0.004,0.003l-0.009,0.005c-0.001,0.001-0.022,0.013-0.008,0.005
		c0.048-0.026,0.099-0.079,0.125-0.139c0.045-0.157,0.023-0.112,0.026-0.16c-0.014-0.058-0.005-0.029-0.008-0.038
		c0.051,0.095,0.224,0.275,0.372,0.409c0.157,0.143,0.326,0.28,0.5,0.411c0.702,0.522,1.484,0.953,2.3,1.273
		c0.408,0.161,0.827,0.289,1.25,0.382c0.212,0.047,0.425,0.086,0.64,0.111c0.233,0.03,0.398,0.044,0.637,0.046l0.974,0.005
		L8.852,42.22c-0.094,0.091-0.259,0.326-0.385,0.482c-0.163,0.178-0.173,0.339-0.274,0.504c-0.092,0.147-0.131,0.375-0.199,0.561
		c-0.069,0.188-0.102,0.413-0.153,0.618c-0.097,0.423-0.178,0.87-0.319,1.32c-0.052,0.226-0.157,0.446-0.249,0.667
		c-0.082,0.227-0.205,0.435-0.342,0.636l-0.197,0.306L6.684,47.39l-0.006,0.01c-0.048,0.08,0.064-0.106,0.052-0.086l-0.001,0.002
		L6.727,47.32L6.72,47.335c0.034-0.065,0.047-0.164,0.027-0.243c-0.03-0.096-0.025-0.075-0.045-0.114
		c-0.12-0.146-0.084-0.073-0.065-0.082c0.125,0.046,0.345,0.085,0.542,0.107c0.409,0.047,0.835,0.055,1.258,0.042
		c0.849-0.032,1.697-0.158,2.505-0.393l1.445-0.419l-0.99,1.142c-0.974,1.123-1.599,2.605-1.802,4.083
		c-0.022,0.182-0.036,0.366-0.031,0.528c0,0.08,0.013,0.161,0.019,0.178c-0.024,0.022,0.071-0.038-0.229-0.189
		c-0.077-0.017-0.143-0.024-0.216-0.002c-0.013,0.006,0.017-0.004,0.023-0.006l0.072-0.021l0.574-0.176
		c0.181-0.067,0.388-0.112,0.619-0.133l0.666-0.084l0.621-0.016l1.197-0.009l0.523-0.003l-0.05,0.517
		c-0.089,0.918-0.029,1.878,0.201,2.751c0.032,0.105,0.062,0.211,0.1,0.305c0.031,0.091,0.088,0.192,0.092,0.196
		c-0.024-0.021,0.032,0.021-0.088-0.062c-0.06-0.027-0.076-0.026-0.176-0.036c-0.049-0.002-0.105,0.008-0.154,0.03
		c-0.024,0.011-0.047,0.023-0.067,0.038l-0.028,0.022l-0.012,0.012l0.044-0.034l0.152-0.104l0.304-0.208
		c0.208-0.136,0.383-0.289,0.654-0.393l0.755-0.335l0.902-0.401l-0.281,0.984c-0.104,0.365-0.19,0.738-0.237,1.104
		c-0.024,0.182-0.039,0.367-0.035,0.527c0,0.076,0.015,0.161,0.015,0.161c-0.018,0.034,0.044-0.133-0.334-0.223
		c-0.239,0.017-0.117,0.021-0.112,0.006l0.071-0.024c0.194-0.062,0.374-0.13,0.58-0.187l0.673-0.133
		c0.431-0.049,0.854-0.073,1.268-0.073l0.399,0l0.081,0.41l0.032,0.164l0.016,0.082l0.001,0.005v0.001l0,0v0l-0.083-0.224
		l0.001,0.002l0.005,0.008l0.011,0.016l0.011,0.016c-0.014-0.028-0.037-0.062-0.066-0.091c-0.059-0.062-0.152-0.103-0.229-0.109
		c-0.104-0.002-0.066,0.001-0.073-0.002c0.001-0.002,0.001-0.002,0.003-0.001l0.086-0.032l0.913-0.335l-0.256,0.918
		c-0.129,0.463-0.229,0.946-0.251,1.396c-0.005,0.109-0.005,0.222,0.006,0.295c-0.001,0.033,0.025,0.072-0.016-0.006
		c-0.031-0.045-0.018-0.034-0.104-0.109c-0.087-0.062-0.183-0.083-0.288-0.079c-0.026,0.002-0.052,0.008-0.077,0.015l-0.035,0.013
		l-0.009,0.003l0.049-0.017l0.003-0.001l0.023-0.007l0.046-0.013l0.736-0.216c0.227-0.089,0.546-0.092,0.822-0.133
		c0.29-0.037,0.573-0.061,0.828-0.052l1.527-0.005l0.375-0.001l0.116,0.348c0.153,0.458,0.383,0.924,0.606,1.426
		c0.225,0.497,0.438,1.048,0.53,1.64c0.065,0.292,0.056,0.596,0.069,0.896l0,0.014v0.002c0.005,0.037-0.042-0.316-0.022-0.166
		l0.001,0.003l0.001,0.006l0.007,0.024c-0.008-0.049-0.062-0.165-0.138-0.223c-0.082-0.069-0.169-0.088-0.158-0.087
		c-0.083-0.021-0.095-0.013-0.09-0.015c0.007,0,0.054-0.01,0.099-0.023c0.096-0.03,0.205-0.069,0.314-0.119
		c0.441-0.194,0.883-0.46,1.298-0.748l0.572-0.395l0.208,0.664c0.181,0.576,0.502,1.163,0.771,1.822
		c0.135,0.33,0.25,0.681,0.334,1.045c0.082,0.37,0.11,0.748,0.11,1.13l0,0.018v0.004c0.042,0.211-0.057-0.284-0.046-0.232
		l0.001,0.001l0.003,0.007l0.013,0.029c0.017-0.029-0.167-0.274-0.312-0.268c-0.086-0.02-0.064-0.004-0.059-0.011
		c0.036-0.006,0.095-0.023,0.159-0.044c0.129-0.044,0.269-0.104,0.407-0.171c0.279-0.133,0.556-0.293,0.823-0.466
		c0.539-0.343,1.041-0.749,1.499-1.188l0.542-0.521l0.311,0.695c0.07,0.156,0.142,0.319,0.221,0.446
		c0.037,0.063,0.08,0.121,0.097,0.139c0.011,0.016-0.012-0.017-0.021-0.018l-0.032-0.017c-0.042-0.024-0.093-0.042-0.144-0.046
		c-0.043,0-0.097-0.006-0.204,0.021c-0.046,0.015-0.091,0.038-0.128,0.067c-0.019,0.014-0.036,0.03-0.051,0.046l-0.021,0.024
		l0.036-0.037l0.052-0.049l0.417-0.395l0.208-0.198l0.272-0.186l0.552-0.362c0.18-0.098,0.357-0.182,0.536-0.273
		c0.364-0.188,0.693-0.332,1.04-0.498l0.532-0.255l0.201,0.555c0.063,0.173,0.13,0.342,0.204,0.504
		c0.073,0.15,0.163,0.321,0.228,0.398c0.004,0.003,0.002-0.001,0.001,0c-0.007-0.001,0.021,0.016-0.062-0.037
		c-0.09-0.027-0.067-0.049-0.312-0.021c-0.049,0.013-0.098,0.037-0.137,0.065c-0.02,0.015-0.038,0.03-0.053,0.046l-0.021,0.024
		c0.011-0.012-0.04,0.043,0.023-0.022l0.001-0.002l0.027-0.025l0.215-0.206c0.148-0.136,0.277-0.276,0.442-0.41l0.567-0.388
		c0.193-0.14,0.375-0.217,0.561-0.317c0.375-0.202,0.73-0.358,1.092-0.529l0.682-0.323l0.068,0.754
		c0.062,0.693,0.204,1.39,0.438,2.041c0.111,0.316,0.264,0.66,0.407,0.856c0.003,0.002,0.043,0.054,0.013,0.018
		c0.006,0.03-0.079-0.145-0.441-0.026c-0.042,0.021-0.08,0.048-0.11,0.078c0-0.002-0.062,0.068-0.005,0.008l0.006-0.006l0.025-0.024
		l0.049-0.049l0.1-0.098c0.14-0.13,0.247-0.261,0.414-0.392c0.345-0.273,0.695-0.51,1.038-0.688
		c0.342-0.189,0.697-0.352,1.026-0.508c0.167-0.078,0.336-0.156,0.489-0.237c0.152-0.083,0.325-0.153,0.458-0.249
		c0.3-0.167,0.544-0.376,0.786-0.586l0.758-0.66l0.127,0.959c0.171,1.293,0.741,2.58,1.525,3.641
		c0.099,0.131,0.202,0.256,0.306,0.367c0.077,0.1,0.275,0.237,0.196,0.195l-0.069-0.015c-0.044-0.002-0.047-0.005-0.146,0.01
		c-0.083,0.019-0.148,0.062-0.21,0.116c-0.031,0.029-0.057,0.063-0.077,0.099l-0.013,0.027l0.022-0.04l0.004-0.007l0.069-0.114
		l0.137-0.228c0.104-0.154,0.155-0.3,0.303-0.461l0.401-0.471c0.135-0.163,0.276-0.264,0.415-0.398
		c0.278-0.265,0.556-0.475,0.833-0.707l0.449-0.375l0.329,0.532l0.367,0.593l0.441,0.556l0.179,0.226l-0.067,0.237
		c-0.131,0.466-0.269,0.952-0.525,1.401c-0.104,0.235-0.272,0.434-0.411,0.649l-0.027,0.04l-0.014,0.02l-0.003,0.005l-0.002,0.002
		l0,0.001c0.041-0.084-0.094,0.19,0.092-0.188l-0.003,0.01l-0.006,0.021l-0.003,0.01c0.008-0.022,0.018-0.059,0.021-0.093
		c0.033-0.143-0.097-0.343-0.14-0.363c-0.061-0.053-0.047-0.035-0.022-0.026c0.066,0.021,0.157,0.044,0.254,0.062
		c0.81,0.133,1.723,0.108,2.583-0.003l0.869-0.111l-0.332,0.809c-0.298,0.728-0.517,1.521-0.569,2.268
		c-0.005,0.091-0.006,0.177-0.002,0.256c0.004,0.028,0.006,0.075,0.01,0.087c0.002,0.004,0.003,0.014,0.001,0.015
		c-0.011-0.035-0.007-0.03-0.053-0.09c-0.082-0.096-0.2-0.171-0.411-0.15c-0.023,0.004-0.044,0.011-0.064,0.019
		c0.009-0.003-0.063,0.024,0.015-0.003l0.004-0.001l0.019-0.006l0.038-0.012l0.15-0.047l0.301-0.094
		c0.188-0.071,0.412-0.119,0.657-0.151c0.232-0.033,0.481-0.088,0.695-0.086c0.896-0.069,1.738,0.027,2.505-0.054
		c0.199-0.001,0.376-0.053,0.56-0.088c0.188-0.025,0.363-0.081,0.526-0.161l0.254-0.102c0.025-0.009,0.124-0.049,0.089-0.034
		l0.132-0.085l0.529-0.341l0.379-0.244l0.285,0.349c0.786,0.963,1.827,1.765,2.949,2.339c0.277,0.139,0.575,0.269,0.83,0.337
		c0.053,0.015,0.129,0.025,0.11,0.023c-0.031,0.003-0.003-0.004-0.093,0.021c-0.028-0.002-0.217,0.124-0.248,0.278
		c-0.011,0.039-0.017,0.08-0.015,0.119l0.002,0.028l-0.001-0.041v-0.008V72.22l0-0.062l0.004-0.5
		c-0.002-0.164,0.049-0.377,0.075-0.563c0.027-0.199,0.07-0.38,0.127-0.546c0.096-0.352,0.224-0.668,0.348-0.99l0.115-0.299
		l0.317,0.003l0.798,0.006l0.358,0.002l0.087,0.349c0.098,0.393,0.225,0.78,0.377,1.153c0.152,0.37,0.334,0.743,0.542,1.038
		c0.046,0.064,0.113,0.145,0.128,0.153c0.015,0.016-0.018-0.017-0.034-0.017c0.006,0.006-0.053-0.024-0.111-0.027
		c-0.061-0.001-0.097,0.004-0.191,0.037c-0.041,0.018-0.08,0.045-0.11,0.077c-0.015,0.016-0.028,0.033-0.039,0.049l0.037-0.045
		l0.027-0.029l0.054-0.059l0.433-0.472c0.128-0.162,0.309-0.31,0.509-0.451l0.578-0.425l0.422-0.311l0.224,0.507
		c0.219,0.496,0.478,0.979,0.783,1.423c0.152,0.221,0.315,0.437,0.486,0.622l0.127,0.129c0.037,0.033,0.088,0.079,0.106,0.087
		c0.021,0.016,0.018,0.009-0.01,0.001c0.012,0.007-0.058-0.02-0.131-0.007c-0.043,0.009-0.169,0.04-0.244,0.146
		c-0.044,0.071-0.026,0.053-0.023,0.043l0.014-0.023l0.027-0.046l0.054-0.092l0.157-0.269l0.32,0.043
		c0.271,0.037,0.529,0.107,0.81,0.119c0.278,0.016,0.553,0.059,0.833,0.047c0.279-0.008,0.56,0.012,0.837-0.017l0.833-0.077
		l0.25-0.023l0.131,0.171l0.473,0.616l0.023,0.036c-0.021-0.04-0.055-0.077-0.092-0.103l0.083,0.086l0.387,0.638
		c0.146,0.201,0.206,0.457,0.298,0.693l0.126,0.359l0.031,0.09l0.016,0.045l0.004,0.011l0.002,0.006l0,0.001
		c-0.033-0.069,0.074,0.157-0.074-0.154l0.002,0.002l0.013,0.018l0.013,0.017c-0.008-0.016-0.042-0.062-0.077-0.086
		c-0.065-0.062-0.202-0.067-0.22-0.059c-0.003-0.004-0.012-0.001-0.01,0c0.114-0.045,0.312-0.179,0.474-0.306
		c0.676-0.543,1.278-1.23,1.771-1.965l0.112-0.167l0.204-0.007l0.256-0.009l0.236-0.008L74.695,73l0.286,0.483
		c0.093,0.163,0.199,0.316,0.251,0.504l0.191,0.541l0.047,0.135l0.023,0.068c-0.121-0.249,0.068,0.074-0.09-0.154
		c-0.051-0.062-0.197-0.08-0.184-0.077c-0.012-0.002-0.024-0.002-0.036,0c-0.033,0.008-0.004-0.002-0.008,0
		c0.007,0,0.041-0.017,0.064-0.027c0.242-0.127,0.515-0.349,0.758-0.568c0.248-0.224,0.483-0.466,0.705-0.719l0.31-0.354l0.25,0.357
		c0.156,0.224,0.344,0.425,0.465,0.673l0.1,0.18l0.05,0.09l0.025,0.045l0.012,0.022l0.006,0.011l0.003,0.005l0.001,0.001l0,0.001
		c0.05,0.076-0.068-0.103-0.056-0.084l0.002,0.002c-0.004,0.01,0.072,0.053-0.077-0.058c-0.157-0.054-0.151-0.026-0.181-0.029
		c-0.042,0.009-0.034,0.014-0.024,0.005c0.018-0.009,0.06-0.041,0.097-0.072c0.317-0.283,0.617-0.695,0.874-1.098l0.255-0.4
		l0.295,0.335l0.317,0.361c0.101,0.125,0.223,0.231,0.304,0.373l0.253,0.417l0.125,0.209l0.031,0.052l0.016,0.026l0.008,0.013
		l0.002,0.003c0.047,0.071-0.063-0.096-0.051-0.078l0.001,0.001l0.004,0.005c-0.005-0.006,0.038,0.044-0.007-0.008
		c-0.046-0.051-0.129-0.083-0.188-0.082c-0.026-0.009-0.084,0.012-0.075,0.007c-0.008,0.011,0.142-0.102,0.22-0.188
		c0.094-0.096,0.187-0.201,0.275-0.312c0.178-0.221,0.343-0.459,0.497-0.705c0.611-0.983,1.051-2.092,1.189-3.228l0.047-0.386
		l0.36,0.109c0.495,0.151,1.001,0.309,1.471,0.574c0.243,0.112,0.453,0.288,0.679,0.43c-0.25-0.098,0.104,0.014-0.133-0.047
		c-0.067-0.009-0.155,0.065-0.149,0.062v-0.004c0.004,0,0.032-0.056,0.048-0.095c0.038-0.093,0.071-0.202,0.099-0.314
		c0.211-0.919,0.214-1.928,0.07-2.882l-0.064-0.424l0.417,0.085c0.839,0.172,1.707,0.232,2.567,0.196
		c0.43-0.02,0.86-0.062,1.274-0.144c0.202-0.041,0.418-0.094,0.568-0.163c0.028-0.005,0.068-0.061,0.01,0.019
		c-0.009,0.017-0.036,0.081-0.018,0.152c0.007,0.029,0.013,0.05,0.028,0.072l0.024,0.029l-0.021-0.025l-0.051-0.065l-0.203-0.263
		c-0.138-0.169-0.272-0.347-0.38-0.572c-0.112-0.212-0.241-0.424-0.31-0.638c-0.178-0.426-0.301-0.859-0.437-1.275
		c-0.072-0.203-0.124-0.422-0.212-0.611c-0.09-0.188-0.144-0.403-0.263-0.571c-0.118-0.167-0.193-0.37-0.342-0.512
		c-0.144-0.148-0.272-0.305-0.424-0.448l-0.525-0.495l0.707,0.052c0.707,0.053,1.423,0.046,2.125-0.042
		c0.345-0.046,0.708-0.104,1.005-0.214c0.062-0.003,0.164-0.118,0.09-0.005c-0.017,0.01-0.002,0.171,0.029,0.167l-0.042-0.054
		L89.99,61.28l-0.335-0.432c-0.2-0.338-0.394-0.679-0.519-1.029c-0.144-0.345-0.246-0.704-0.355-1.046
		c-0.054-0.173-0.105-0.347-0.167-0.511c-0.064-0.164-0.108-0.341-0.19-0.492c-0.132-0.325-0.325-0.607-0.523-0.887l-0.381-0.539
		l0.604,0.217c0.766,0.275,1.573,0.444,2.389,0.526c0.81,0.074,1.657,0.096,2.429-0.07c0.082-0.016,0.206-0.074,0.197-0.069
		c-0.005-0.004-0.035,0.096,0.002,0.12l-0.044-0.069l-0.086-0.13c-0.111-0.178-0.239-0.336-0.324-0.545
		c-0.201-0.394-0.334-0.8-0.433-1.211c-0.108-0.411-0.174-0.822-0.27-1.223c-0.088-0.403-0.218-0.787-0.384-1.156l-0.098-0.218
		l0.229,0.042c0.726,0.135,1.467,0.204,2.206,0.192c0.369-0.007,0.74-0.031,1.097-0.1c0.087-0.019,0.178-0.038,0.255-0.069
		c0.044-0.013,0.069-0.033,0.099-0.047c-0.017-0.029,0.023,0.072-0.016-0.002l-0.304-0.471c-0.109-0.151-0.166-0.344-0.25-0.514
		c-0.087-0.173-0.141-0.354-0.193-0.536c-0.122-0.359-0.185-0.731-0.269-1.094c-0.075-0.366-0.156-0.729-0.268-1.081
		c-0.107-0.355-0.279-0.68-0.468-0.998L93.595,47.799z M93.724,47.824c0.19,0.31,0.364,0.629,0.475,0.976
		c0.119,0.357,0.208,0.725,0.289,1.089c0.089,0.362,0.158,0.729,0.282,1.077c0.055,0.177,0.11,0.353,0.194,0.514
		c0.085,0.162,0.133,0.336,0.247,0.488l0.312,0.466c0.01,0.019,0.029,0.026,0.044,0.111c0.008,0.065-0.035,0.092-0.062,0.131
		c-0.05,0.033-0.103,0.066-0.149,0.08c-0.097,0.04-0.189,0.06-0.284,0.082c-0.376,0.079-0.753,0.109-1.131,0.122
		c-0.755,0.024-1.51-0.034-2.255-0.16l0.131-0.176c0.183,0.389,0.326,0.794,0.422,1.205c0.104,0.408,0.177,0.819,0.289,1.213
		c0.102,0.397,0.24,0.785,0.422,1.131c0.071,0.18,0.208,0.349,0.321,0.522l0.088,0.129l0.042,0.062
		c0.066,0.067,0.036,0.23-0.011,0.262c-0.159,0.151-0.25,0.142-0.365,0.186c-0.857,0.197-1.701,0.181-2.546,0.12
		c-0.843-0.071-1.682-0.232-2.49-0.507l0.223-0.322c0.23,0.309,0.45,0.624,0.599,0.974c0.093,0.168,0.14,0.347,0.211,0.52
		c0.069,0.175,0.123,0.348,0.18,0.521c0.117,0.348,0.221,0.688,0.358,1.012c0.124,0.336,0.296,0.623,0.463,0.912l0.336,0.426
		l0.085,0.106l0.042,0.053c0.042,0.036,0.101,0.242,0.045,0.291c-0.172,0.265-0.257,0.217-0.358,0.283
		c-0.384,0.145-0.746,0.198-1.118,0.253c-0.74,0.099-1.483,0.112-2.225,0.063l0.182-0.443c0.171,0.157,0.329,0.34,0.493,0.51
		c0.171,0.167,0.263,0.391,0.397,0.584c0.137,0.196,0.196,0.42,0.297,0.629c0.099,0.212,0.151,0.426,0.229,0.64
		c0.142,0.423,0.266,0.841,0.433,1.23c0.069,0.208,0.179,0.372,0.272,0.552c0.079,0.179,0.21,0.354,0.355,0.526l0.206,0.261
		l0.051,0.065c-0.004-0.004,0.019,0.022-0.008-0.008l0.034,0.046c0.021,0.035,0.038,0.066,0.047,0.108
		c0.019,0.099-0.009,0.19-0.036,0.23c-0.119,0.173-0.184,0.169-0.251,0.215c-0.253,0.117-0.472,0.164-0.701,0.214
		c-0.453,0.093-0.905,0.141-1.358,0.166c-0.906,0.046-1.817-0.008-2.713-0.184l0.353-0.338c0.161,1.032,0.175,2.076-0.054,3.125
		c-0.031,0.132-0.069,0.265-0.125,0.406c-0.034,0.075-0.055,0.139-0.129,0.237l-0.058,0.07c-0.013,0.022-0.134,0.105-0.227,0.114
		c-0.046,0.008-0.103,0.006-0.127,0.002l-0.022-0.006l-0.023-0.006l-0.12-0.058l-0.004-0.003l-0.009-0.006
		c-0.202-0.121-0.382-0.275-0.6-0.372c-0.412-0.23-0.876-0.371-1.343-0.509l0.407-0.276c-0.144,1.261-0.608,2.448-1.255,3.513
		c-0.164,0.267-0.34,0.526-0.538,0.776c-0.098,0.125-0.204,0.247-0.32,0.367c-0.136,0.122-0.202,0.234-0.49,0.361
		c-0.024,0.014-0.123,0.031-0.186,0.028c-0.076-0.004-0.177-0.042-0.241-0.098c-0.063-0.058-0.028-0.028-0.047-0.047l-0.109-0.167
		l-0.109-0.176l-0.217-0.354c-0.068-0.121-0.182-0.214-0.27-0.322l-0.281-0.316l0.549-0.065c-0.285,0.447-0.572,0.872-1.004,1.27
		c-0.059,0.05-0.116,0.099-0.208,0.152c-0.043,0.025-0.095,0.056-0.198,0.078c-0.06,0.002-0.086,0.039-0.273-0.029
		c-0.184-0.112-0.124-0.1-0.149-0.114l-0.079-0.122l-0.021-0.038l-0.043-0.075l-0.086-0.15c-0.1-0.209-0.268-0.378-0.398-0.569
		l0.559,0.003c-0.237,0.276-0.488,0.539-0.758,0.788c-0.277,0.248-0.542,0.484-0.919,0.69c-0.055,0.026-0.1,0.05-0.177,0.075
		c-0.047,0.012-0.058,0.023-0.135,0.031l-0.101,0.004c-0.009,0.008-0.175-0.026-0.246-0.094c-0.203-0.236-0.025,0.03-0.165-0.254
		l-0.021-0.056l-0.042-0.112l-0.163-0.449c-0.04-0.154-0.138-0.29-0.22-0.43l-0.251-0.42l0.338,0.165l-0.284,0.013l0.315-0.174
		c-0.534,0.807-1.158,1.539-1.922,2.165c-0.204,0.155-0.381,0.304-0.696,0.437c-0.054,0.018-0.119,0.033-0.179,0.043
		c-0.046,0.011-0.211-0.003-0.306-0.067c-0.049-0.027-0.099-0.072-0.119-0.094l-0.013-0.017l-0.013-0.018l-0.082-0.174l-0.014-0.037
		l-0.028-0.073l-0.109-0.294c-0.08-0.194-0.119-0.402-0.253-0.578l-0.338-0.549l0.083,0.086c-0.046-0.038-0.088-0.088-0.119-0.14
		l0.023,0.036l-0.448-0.572l0.381,0.148l-0.9,0.092c-0.3,0.033-0.602,0.016-0.903,0.026c-0.301,0.015-0.603-0.027-0.905-0.043
		c-0.301-0.011-0.609-0.086-0.914-0.128l0.477-0.226l-0.053,0.093l-0.027,0.046l-0.013,0.023c-0.005,0.006,0.003,0.002-0.055,0.085
		c-0.101,0.131-0.25,0.193-0.333,0.192c-0.109,0.014-0.215-0.011-0.235-0.022c-0.096-0.032-0.163-0.07-0.199-0.097
		c-0.104-0.064-0.158-0.118-0.228-0.178c-0.062-0.058-0.123-0.115-0.175-0.173c-0.218-0.232-0.401-0.472-0.574-0.719
		c-0.344-0.493-0.631-1.017-0.877-1.562l0.646,0.196l-0.452,0.336c-0.154,0.1-0.307,0.217-0.445,0.394l-0.429,0.476l-0.054,0.06
		l-0.027,0.03c0.011-0.015-0.035,0.042,0.023-0.03l-0.055,0.061c-0.041,0.039-0.091,0.074-0.143,0.1
		c-0.114,0.056-0.179,0.05-0.266,0.047c-0.084-0.006-0.172-0.036-0.187-0.048c-0.06-0.029-0.145-0.081-0.167-0.104
		c-0.152-0.126-0.213-0.22-0.296-0.325c-0.287-0.403-0.479-0.804-0.657-1.221c-0.174-0.416-0.317-0.841-0.43-1.276l0.445,0.351
		l-0.773,0l0.431-0.296c-0.113,0.302-0.232,0.605-0.308,0.9c-0.052,0.152-0.083,0.295-0.098,0.428
		c-0.016,0.144-0.063,0.256-0.06,0.426l0,0.5v0.063l0,0.031v0.008c-0.001-0.015,0.001,0.04-0.001-0.033l0,0.036
		c0,0.049-0.007,0.101-0.021,0.149c-0.038,0.194-0.266,0.351-0.333,0.359c-0.127,0.045-0.143,0.033-0.215,0.043
		c-0.186,0.002-0.274-0.027-0.383-0.049c-0.391-0.103-0.707-0.246-1.028-0.401c-1.253-0.634-2.39-1.476-3.295-2.583l0.663,0.105
		l-0.529,0.342l-0.132,0.085c-0.121,0.076-0.127,0.061-0.197,0.095l-0.33,0.136c-0.218,0.101-0.441,0.171-0.672,0.206
		c-0.229,0.046-0.459,0.104-0.682,0.108c-0.907,0.09-1.749-0.008-2.529,0.06c-0.208-0.001-0.37,0.046-0.553,0.067
		c-0.173,0.016-0.36,0.051-0.567,0.128l-0.3,0.095l-0.15,0.047l-0.038,0.012l-0.019,0.006l-0.004,0.001
		c0.075-0.027-0.001,0,0.005-0.003l-0.084,0.02c-0.268,0.039-0.427-0.071-0.546-0.205c-0.077-0.1-0.089-0.147-0.125-0.229
		l-0.035-0.138c-0.019-0.091-0.02-0.149-0.028-0.225c-0.006-0.131-0.005-0.255,0.001-0.373c0.067-0.931,0.309-1.774,0.641-2.6
		l0.537,0.698c-0.957,0.119-1.898,0.158-2.902-0.001c-0.128-0.023-0.261-0.053-0.413-0.104c-0.083-0.034-0.175-0.06-0.327-0.184
		c-0.063-0.04-0.205-0.268-0.188-0.434c0-0.041,0.004-0.083,0.01-0.112l0.003-0.01l0.006-0.021l0.003-0.01l0.096-0.193l0.003-0.004
		l0.01-0.016l0.021-0.032c0.105-0.172,0.244-0.324,0.323-0.513c0.202-0.35,0.317-0.757,0.434-1.17l0.112,0.463l-0.508-0.64
		l-0.437-0.704l0.778,0.156c-0.267,0.224-0.555,0.444-0.79,0.671c-0.115,0.113-0.264,0.224-0.353,0.338l-0.295,0.335
		c-0.104,0.093-0.186,0.288-0.28,0.427l-0.137,0.228l-0.068,0.114l-0.004,0.007c0.008-0.015-0.021,0.039,0.018-0.033l-0.019,0.033
		c-0.027,0.044-0.061,0.087-0.098,0.125c-0.074,0.076-0.164,0.119-0.267,0.146c-0.119,0.027-0.146,0.015-0.211,0.011
		c-0.065-0.007-0.112-0.021-0.133-0.03c-0.408-0.184-0.458-0.316-0.627-0.468c-0.138-0.148-0.261-0.297-0.376-0.45
		c-0.897-1.219-1.521-2.609-1.733-4.135l0.885,0.3c-0.314,0.285-0.64,0.552-0.993,0.75c-0.172,0.118-0.347,0.188-0.52,0.283
		c-0.176,0.093-0.344,0.171-0.514,0.25c-0.342,0.162-0.664,0.311-0.972,0.481c-0.318,0.167-0.578,0.353-0.822,0.534
		c-0.129,0.093-0.263,0.251-0.395,0.374l-0.099,0.098l-0.05,0.049l-0.024,0.025l-0.006,0.006c0.052-0.056-0.016,0.016-0.021,0.017
		c-0.041,0.035-0.088,0.068-0.141,0.094c-0.246,0.107-0.35,0.055-0.491,0.014c-0.15-0.065-0.126-0.076-0.195-0.121
		c-0.108-0.088-0.115-0.121-0.175-0.186c-0.291-0.409-0.422-0.761-0.565-1.142c-0.269-0.749-0.426-1.52-0.499-2.307l0.75,0.431
		c-0.356,0.169-0.729,0.335-1.053,0.512c-0.163,0.088-0.349,0.17-0.476,0.269l-0.423,0.276c-0.143,0.114-0.287,0.269-0.431,0.4
		l-0.215,0.206l-0.027,0.026l-0.001,0.001c0.062-0.064,0.009-0.01,0.019-0.021l-0.03,0.028l-0.07,0.053
		c-0.051,0.034-0.111,0.062-0.171,0.08c-0.291,0.065-0.312-0.006-0.448-0.047c-0.132-0.067-0.136-0.092-0.179-0.127l-0.104-0.106
		c-0.186-0.233-0.271-0.423-0.375-0.627c-0.092-0.2-0.171-0.4-0.244-0.6l0.733,0.299c-0.343,0.165-0.715,0.33-1.031,0.496
		l-0.487,0.249l-0.41,0.265l-0.208,0.129l-0.209,0.197l-0.418,0.394l-0.052,0.049c0.014-0.014-0.034,0.036,0.029-0.031l-0.029,0.028
		l-0.066,0.054c-0.048,0.034-0.104,0.063-0.16,0.083c-0.128,0.044-0.204,0.038-0.271,0.026c-0.074-0.011-0.148-0.035-0.212-0.066
		c-0.052-0.027-0.059-0.038-0.09-0.059c-0.044-0.033-0.112-0.089-0.128-0.112c-0.113-0.124-0.177-0.225-0.238-0.326
		c-0.121-0.2-0.203-0.389-0.288-0.583l0.853,0.174c-0.515,0.492-1.07,0.935-1.67,1.314c-0.299,0.191-0.607,0.369-0.938,0.525
		c-0.166,0.079-0.336,0.152-0.526,0.217c-0.096,0.032-0.198,0.063-0.329,0.085c-0.077,0.009-0.141,0.025-0.31,0.001
		c-0.182-0.011-0.416-0.258-0.424-0.316l-0.013-0.029L25.8,65.343l-0.048-0.242l0-0.014c-0.002-0.294-0.02-0.587-0.083-0.879
		c-0.066-0.292-0.16-0.584-0.279-0.878c-0.234-0.591-0.567-1.193-0.792-1.906l0.78,0.269c-0.464,0.317-0.941,0.606-1.479,0.841
		c-0.134,0.059-0.277,0.113-0.437,0.161c-0.083,0.023-0.167,0.046-0.292,0.059c-0.062,0.004-0.14,0.014-0.289-0.024
		c-0.006,0.001-0.107-0.029-0.203-0.108c-0.089-0.068-0.159-0.192-0.178-0.252l-0.007-0.024l-0.001-0.006l-0.023-0.173l0-0.011
		c-0.015-0.233,0.001-0.468-0.054-0.699c-0.069-0.466-0.239-0.925-0.452-1.399c-0.207-0.476-0.453-0.969-0.637-1.526l0.492,0.346
		h-1.542c-0.258-0.009-0.484,0.014-0.703,0.039c-0.229,0.036-0.433,0.004-0.689,0.101l-0.737,0.213l-0.046,0.013l-0.023,0.007
		l-0.002,0.001c0.021-0.007-0.048,0.017,0.045-0.016l-0.011,0.004l-0.047,0.014c-0.032,0.009-0.066,0.015-0.101,0.018
		c-0.138,0.016-0.262-0.022-0.376-0.102c-0.117-0.088-0.112-0.113-0.165-0.181c-0.101-0.19-0.1-0.28-0.117-0.373
		c-0.022-0.181-0.018-0.325-0.012-0.471c0.033-0.573,0.148-1.097,0.294-1.618l0.658,0.583c-0.067,0.024-0.126,0.048-0.2,0.071
		l-0.145,0.029c-0.031,0.002-0.018,0.014-0.147,0.005c-0.102-0.009-0.221-0.054-0.304-0.118c-0.042-0.031-0.078-0.066-0.104-0.096
		l-0.011-0.016l-0.011-0.016l-0.005-0.008l-0.001-0.002l-0.084-0.227l-0.001-0.004l-0.014-0.067l-0.027-0.134l0.48,0.41
		c-0.39-0.002-0.769,0.019-1.138,0.06l-0.51,0.094c-0.182,0.047-0.379,0.121-0.568,0.181l-0.072,0.023
		c-0.042,0.001,0.032,0.022-0.257,0.041c-0.2,0-0.398-0.185-0.417-0.242c-0.071-0.103-0.074-0.14-0.097-0.198
		c-0.055-0.192-0.056-0.311-0.061-0.435c-0.004-0.242,0.017-0.458,0.045-0.675c0.057-0.431,0.155-0.842,0.272-1.249l0.621,0.583
		l-0.594,0.255c-0.198,0.057-0.403,0.227-0.605,0.358l-0.304,0.208l-0.152,0.104c0.018-0.014-0.043,0.033,0.04-0.031l-0.018,0.014
		l-0.039,0.026c-0.027,0.017-0.057,0.033-0.089,0.045c-0.063,0.026-0.134,0.041-0.198,0.044c-0.129,0.004-0.172-0.028-0.259-0.063
		c-0.183-0.102-0.154-0.122-0.222-0.185c-0.143-0.192-0.186-0.319-0.242-0.457c-0.052-0.134-0.089-0.264-0.128-0.395
		c-0.264-1.029-0.319-2.06-0.218-3.095l0.473,0.513l-1.201,0.004l-0.578,0.012l-0.525,0.062l-0.263,0.027l-0.287,0.086l-0.574,0.173
		L9.43,52.846l-0.049,0.013c-0.097,0.022-0.189,0.031-0.288-0.003c-0.228-0.081-0.265-0.188-0.321-0.262
		c-0.032-0.06-0.06-0.129-0.068-0.165c-0.047-0.176-0.052-0.295-0.055-0.415c-0.006-0.238,0.013-0.453,0.04-0.667
		c0.244-1.68,0.913-3.271,2.044-4.562l0.455,0.723c-0.892,0.25-1.806,0.378-2.724,0.405c-0.46,0.011-0.919-0.001-1.389-0.058
		c-0.24-0.035-0.461-0.061-0.752-0.167c-0.081-0.051-0.153-0.023-0.34-0.257c-0.026-0.051-0.035-0.039-0.064-0.15
		c-0.022-0.092-0.01-0.205,0.022-0.283l0.011-0.023l0.063-0.105l0.041-0.063l0.163-0.251c0.115-0.163,0.221-0.333,0.289-0.525
		c0.078-0.186,0.17-0.364,0.218-0.571c0.127-0.393,0.209-0.817,0.312-1.254c0.058-0.223,0.089-0.439,0.171-0.667
		c0.084-0.228,0.118-0.446,0.252-0.682c0.12-0.215,0.227-0.5,0.37-0.648c0.154-0.185,0.235-0.321,0.449-0.547l0.28,0.681
		c-0.218-0.001-0.508-0.025-0.728-0.058c-0.239-0.031-0.475-0.076-0.708-0.13c-0.467-0.107-0.923-0.251-1.363-0.429
		c-0.881-0.355-1.71-0.819-2.469-1.394c-0.189-0.145-0.375-0.296-0.554-0.463c-0.181-0.18-0.349-0.316-0.525-0.62
		c-0.024-0.061-0.047-0.083-0.066-0.198c0.003-0.076-0.033-0.061,0.029-0.244c0.031-0.074,0.087-0.139,0.14-0.178l0.027-0.018
		l0.009-0.005l0.109-0.049l0.019-0.007l0.037-0.015l0.074-0.029l0.295-0.116c0.194-0.085,0.402-0.135,0.586-0.246l0.548-0.343
		c0.187-0.103,0.357-0.26,0.536-0.392l1.096-0.845l0.097,0.628l-0.509-0.167l-0.541-0.267c-0.182-0.078-0.335-0.196-0.487-0.316
		c-0.149-0.122-0.32-0.226-0.442-0.368c-0.274-0.267-0.522-0.542-0.747-0.825c-0.234-0.272-0.444-0.56-0.681-0.807
		c-0.228-0.268-0.471-0.485-0.715-0.687C1.519,33.64,1.349,33.554,1.2,33.459l-0.229-0.14l-0.114-0.07l-0.06-0.038
		c-0.126-0.071-0.2-0.232-0.179-0.381c0.101-0.318,0.195-0.312,0.273-0.408c0.082-0.071,0.162-0.129,0.242-0.185
		c0.161-0.11,0.323-0.205,0.487-0.295c0.328-0.177,0.663-0.332,1.005-0.469l-0.052,0.565c-0.505-0.329-0.983-0.697-1.428-1.106
		c-0.222-0.205-0.435-0.422-0.635-0.655c-0.101-0.118-0.198-0.237-0.29-0.375c-0.047-0.065-0.09-0.142-0.133-0.224
		c-0.021-0.052-0.042-0.083-0.062-0.154l-0.022-0.116c-0.019-0.025,0.027-0.247,0.124-0.313c0.07-0.06,0.047-0.032,0.075-0.052
		L0.328,29l0.013-0.003l0.025-0.006l0.1-0.024l0.2-0.049l0.401-0.096c0.137-0.021,0.259-0.097,0.388-0.146l0.384-0.164
		c0.254-0.115,0.497-0.273,0.746-0.408l0.749-0.456l-0.14,0.25c0.009-0.477,0-0.942-0.03-1.394c-0.03-0.216-0.073-0.423-0.105-0.637
		c-0.004-0.104-0.071-0.22-0.105-0.33L2.83,25.202l-0.062-0.167c-0.007-0.022-0.006-0.009-0.02-0.06
		c-0.025-0.094-0.015-0.193,0.027-0.254c0.111-0.164,0.15-0.133,0.216-0.177c0.186-0.062,0.305-0.06,0.439-0.067
		c0.259-0.007,0.504,0.011,0.749,0.037c0.488,0.052,0.965,0.148,1.436,0.268l-0.317,0.164l0.147-0.333l-0.028,0.121
		c-0.006-0.322-0.015-0.643-0.059-0.952C5.35,23.62,5.305,23.48,5.274,23.333c-0.03-0.145-0.061-0.292-0.133-0.447l-0.092-0.229
		l-0.046-0.115L4.98,22.484c0.01,0.016-0.064-0.109-0.013-0.243c0.113-0.218,0.216-0.197,0.266-0.228
		c0.062-0.02,0.113-0.029,0.163-0.035c0.099-0.015,0.188-0.018,0.278-0.021c0.355-0.005,0.691,0.031,1.028,0.079L6.414,22.34
		c-0.122-0.628-0.171-1.266-0.158-1.901c0.019-0.638,0.08-1.268,0.285-1.906c0.029-0.081,0.058-0.161,0.105-0.248
		c0.016-0.039,0.052-0.091,0.091-0.141c0.019-0.021,0.021-0.046,0.122-0.103c0.072-0.046,0.221-0.045,0.213-0.038L7.1,18.01
		l0.007,0.002l0.003,0.001l0.098,0.047l0.012,0.007l0.046,0.03l0.092,0.06l0.184,0.121c0.236,0.176,0.5,0.309,0.777,0.419
		c0.264,0.134,0.56,0.21,0.846,0.305c0.287,0.093,0.592,0.163,0.887,0.246L9.76,19.494c-0.046-0.694,0.008-1.362-0.045-2.006
		c-0.021-0.321-0.074-0.646-0.162-0.935c-0.031-0.146-0.092-0.3-0.161-0.456L9.3,15.873c-0.081-0.267,0.11-0.36,0.171-0.392
		c0.058-0.021,0.128-0.046,0.172-0.049c0.39-0.057,0.721-0.021,1.067,0.014c0.342,0.041,0.679,0.101,1.012,0.173
		c0.666,0.151,1.319,0.358,1.948,0.626l-0.294,0.206c-0.017-0.302-0.055-0.598-0.112-0.889c-0.067-0.273-0.156-0.555-0.292-0.844
		l-0.022-0.054l-0.013-0.033c-0.014-0.043-0.023-0.09-0.015-0.134c0.075-0.222,0.17-0.192,0.221-0.232
		c0.11-0.037,0.192-0.042,0.28-0.052c0.17-0.013,0.333-0.01,0.494-0.001c0.321,0.019,0.637,0.059,0.949,0.114
		c1.245,0.224,2.458,0.641,3.551,1.297l-0.273,0.238l-0.188-0.564l-0.112-0.575c-0.047-0.383-0.083-0.762-0.111-1.136
		c-0.034-0.372-0.083-0.737-0.161-1.093c-0.037-0.178-0.104-0.339-0.153-0.51c-0.038-0.169-0.153-0.337-0.228-0.506
		c-0.046-0.11-0.075-0.113-0.136-0.31c-0.008-0.232,0.159-0.25,0.191-0.277c0.066-0.031,0.116-0.038,0.169-0.051
		c0.208-0.04,0.401-0.052,0.596-0.054c0.388-0.006,0.771,0.022,1.152,0.066c0.761,0.091,1.51,0.263,2.237,0.505l-0.215,0.138
		c0.171-1.442,0.754-2.798,1.585-3.97c0.106-0.146,0.218-0.288,0.339-0.425c0.125-0.137,0.241-0.271,0.426-0.388
		c0.051-0.023,0.093-0.069,0.235-0.055c0.043,0.004,0.117,0.062,0.108,0.06c0.017,0.024-0.007-0.018,0.043,0.06l0.034,0.054
		l0.135,0.217c0.094,0.142,0.169,0.296,0.279,0.427l0.339,0.385c0.105,0.135,0.249,0.239,0.374,0.358
		c0.25,0.236,0.534,0.449,0.807,0.669L25.63,8.968c0.18-0.606,0.427-1.19,0.726-1.747c0.305-0.554,0.641-1.086,1.105-1.555
		c0.057-0.059,0.128-0.114,0.2-0.169c0.052-0.028,0.079-0.051,0.16-0.078c0.065-0.017,0.153-0.004,0.207,0.021
		c0.017,0.009,0.018,0.013,0.027,0.02l0.011,0.009l0.006,0.004l0.003,0.002l0.053,0.065l0.238,0.376
		c0.141,0.263,0.34,0.486,0.549,0.702c0.188,0.231,0.439,0.415,0.664,0.618c0.23,0.199,0.482,0.387,0.722,0.582l-0.311,0.126
		c0.193-1.553,0.902-2.982,1.857-4.191c0.249-0.301,0.497-0.59,0.842-0.841c0.044-0.031,0.096-0.062,0.155-0.09
		c0.042-0.014,0.061-0.029,0.125-0.037c0.037-0.002,0.044-0.01,0.105,0c0.062,0.005,0.156,0.082,0.158,0.092l0.011,0.014
		l0.005,0.007l0.035,0.061l0.016,0.03l0.031,0.06l0.062,0.12l0.245,0.478c0.226,0.284,0.418,0.588,0.691,0.842
		c0.247,0.268,0.53,0.521,0.803,0.778l-0.216-0.052l0.2-0.057l-0.164,0.18c0.155-0.904,0.487-1.765,0.927-2.556
		c0.22-0.397,0.467-0.777,0.743-1.14c0.282-0.361,0.564-0.708,0.959-1.011c0.052-0.038,0.105-0.074,0.179-0.11
		c0.031-0.017,0.083-0.036,0.14-0.048c0.046-0.003,0.066-0.011,0.135,0c0.089,0.008,0.203,0.129,0.18,0.112l0.012,0.017l0.042,0.077
		l0.018,0.035l0.035,0.07l0.069,0.14c0.087,0.189,0.182,0.375,0.313,0.541c0.227,0.352,0.522,0.662,0.833,0.964l0.962,0.921
		c0.324,0.319,0.614,0.69,0.861,1.097l-0.484,0.045c0.42-1.252,1.083-2.402,1.995-3.375c0.12-0.12,0.24-0.237,0.39-0.349
		c0.071-0.055,0.155-0.112,0.289-0.163c0.08-0.024,0.202-0.019,0.285,0.02c0.103,0.049,0.054,0.036,0.089,0.057l0.005,0.005
		l0.001,0.001l0.08,0.112l0.002,0.003l0.006,0.013l0.013,0.024l0.026,0.05c0.148,0.258,0.241,0.546,0.444,0.774
		c0.169,0.248,0.365,0.479,0.587,0.696c0.202,0.227,0.452,0.436,0.676,0.654l-0.417,0.016l0.238-0.262
		c0.12-0.121,0.192-0.176,0.292-0.265c0.19-0.156,0.386-0.308,0.59-0.444c0.407-0.275,0.835-0.514,1.278-0.715
		c0.888-0.402,1.82-0.685,2.782-0.843c0.241-0.038,0.484-0.069,0.733-0.085c0.261-0.007,0.473-0.042,0.829,0.051
		c0.045,0.019,0.112,0.03,0.217,0.141c0.1,0.099,0.087,0.329,0.083,0.282l-0.001,0.011l-0.001,0.005l-0.03,0.104l-0.007,0.019
		l-0.06,0.152l-0.121,0.304c-0.051,0.212-0.123,0.419-0.147,0.64c-0.144,0.872,0,1.81-0.108,2.818l-0.638-0.167
		c0.184-0.46,0.403-0.904,0.655-1.331c0.256-0.427,0.529-0.835,0.897-1.218c0.096-0.096,0.189-0.189,0.363-0.29l0.087-0.038
		l0.051-0.018c0.045-0.009,0.1-0.013,0.155-0.005c0.105,0.006,0.235,0.098,0.212,0.087l0.017,0.015l0.004,0.004l0.002,0.002
		l0.085,0.11l0.005,0.009l0.085,0.141c0.11,0.19,0.217,0.382,0.366,0.548c0.262,0.355,0.612,0.653,0.96,0.955l-0.558,0.16
		c0.229-0.689,0.546-1.34,0.923-1.954c0.391-0.61,0.803-1.185,1.391-1.695c0.082-0.065,0.152-0.125,0.284-0.192l0.101-0.046
		c0.065-0.03,0.256-0.039,0.365,0.02c0.028,0.012,0.056,0.028,0.074,0.04l0.012,0.011l0.024,0.021l0.003,0.002l0.001,0.001
		l0.102,0.145l0.004,0.006l0.007,0.013l0.014,0.026l0.228,0.418c0.083,0.135,0.129,0.29,0.242,0.41l0.312,0.375
		c0.189,0.258,0.464,0.48,0.698,0.719l0.762,0.729l-0.519-0.024c0.263-0.224,0.548-0.45,0.794-0.673
		c0.257-0.222,0.507-0.447,0.694-0.677c0.099-0.124,0.217-0.205,0.304-0.361l0.27-0.446l0.135-0.223l0.009-0.014
		c-0.007,0.013,0.021-0.039-0.015,0.027l0.03-0.051c0.046-0.067,0.101-0.124,0.177-0.158c0.173-0.078,0.259-0.042,0.332-0.032
		c0.127,0.035,0.181,0.076,0.237,0.11c0.206,0.142,0.327,0.276,0.459,0.417c0.499,0.563,0.879,1.176,1.207,1.825
		c0.324,0.648,0.578,1.336,0.734,2.056l-0.624-0.255l0.924-0.577c0.288-0.188,0.613-0.368,0.84-0.571l0.376-0.291
		c0.124-0.109,0.235-0.265,0.354-0.395c0.134-0.153,0.194-0.234,0.39-0.446c0.112-0.123,0.355-0.142,0.429-0.111
		c0.117,0.027,0.144,0.054,0.2,0.083c0.08,0.052,0.13,0.1,0.175,0.144c0.089,0.089,0.15,0.17,0.214,0.254
		c0.462,0.656,0.748,1.339,0.987,2.054c0.232,0.714,0.381,1.458,0.423,2.218l-0.508-0.409l0.112-0.019L68.997,6.75
		c0.236-0.998,0.635-1.94,1.171-2.805c0.137-0.215,0.279-0.428,0.439-0.634c0.161-0.208,0.323-0.404,0.572-0.609
		c0.029-0.024,0.062-0.05,0.115-0.081c0.071-0.034,0.047-0.043,0.198-0.093c0.188-0.083,0.53,0.091,0.465,0.075l0.018,0.014
		l0.004,0.003l0.002,0.001l0.139,0.166l0.005,0.009l0.021,0.035l0.17,0.277c0.102,0.192,0.229,0.369,0.386,0.529
		c0.274,0.346,0.629,0.637,0.998,0.942c0.361,0.305,0.767,0.596,1.132,0.971c0.189,0.163,0.368,0.389,0.539,0.622
		c0.198,0.234,0.276,0.447,0.386,0.665l0.08,0.163c0.02,0.048,0.011,0.007,0.055,0.128l0.027,0.097l0.107,0.388
		c0.086,0.252,0.072,0.546,0.106,0.817l-0.553-0.407c1.193-0.369,2.421-0.542,3.678-0.5c0.158,0.007,0.319,0.021,0.482,0.042
		c0.182,0.04,0.307,0.027,0.585,0.167c0.028,0.003,0.203,0.154,0.23,0.294c0.042,0.183,0.016,0.164,0.02,0.184l-0.002,0.014
		l-0.072,0.198L80.501,8.43l-0.013,0.022l-0.025,0.044l-0.101,0.175C80.3,8.79,80.217,8.899,80.167,9.026
		c-0.096,0.255-0.209,0.501-0.264,0.778c-0.078,0.264-0.116,0.556-0.167,0.838l-0.456-0.455c0.52-0.073,1.042-0.119,1.572-0.119
		c0.266,0,0.531,0.009,0.807,0.043c0.142,0.021,0.275,0.036,0.443,0.089c0.039,0.01,0.096,0.036,0.142,0.055
		c0.019,0.006,0.072,0.041,0.104,0.064l0.053,0.042c0.021,0.016,0.092,0.102,0.115,0.18c0.03,0.081,0.031,0.176,0.022,0.231
		l-0.006,0.023l-0.003,0.011l-0.063,0.145l-0.01,0.019l-0.041,0.076l-0.332,0.606l-0.221,0.666
		c-0.102,0.466-0.188,0.954-0.257,1.462l-0.057-0.265l0.085,0.138l-0.371-0.182c0.807-0.092,1.616-0.086,2.416,0
		c0.803,0.097,1.582,0.229,2.378,0.56c0.104,0.049,0.2,0.09,0.331,0.188c0.034,0.027,0.069,0.054,0.117,0.117
		c0.016,0.053,0.176,0.151,0.039,0.479l-0.022,0.033l-0.005,0.007l-0.067,0.073l-0.024,0.023l-0.048,0.046
		c-0.125,0.128-0.268,0.239-0.381,0.379c-0.234,0.272-0.441,0.568-0.618,0.896c-0.361,0.646-0.623,1.393-1.069,2.101l-0.202-0.524
		c0.217,0.064,0.431,0.125,0.651,0.219c0.111,0.047,0.22,0.094,0.347,0.176c0.026,0.013,0.073,0.053,0.111,0.087l0.06,0.06
		c0.052,0.065,0.098,0.183,0.091,0.287c-0.011,0.129-0.028,0.132-0.029,0.138l-0.009,0.018l-0.002,0.004l-0.098,0.131l-0.006,0.006
		l-0.053,0.052c-0.14,0.141-0.285,0.276-0.423,0.418l-0.361,0.478l-0.328-0.522c0.817-0.101,1.639-0.097,2.449-0.012
		c0.814,0.096,1.606,0.23,2.408,0.565c0.104,0.051,0.202,0.091,0.334,0.199c0.031,0.026,0.076,0.066,0.122,0.146
		c0.023,0.068,0.053,0.064,0.046,0.228c-0.004,0.062-0.044,0.146-0.06,0.166l-0.011,0.015l-0.067,0.074l-0.013,0.012l-0.024,0.024
		l-0.05,0.048c-0.128,0.132-0.277,0.244-0.389,0.392c-0.11,0.149-0.243,0.277-0.336,0.441c-0.099,0.159-0.207,0.31-0.291,0.483
		c-0.366,0.666-0.631,1.429-1.101,2.138l-0.278-0.479c1.154-0.07,2.305,0.029,3.428,0.312c0.281,0.071,0.559,0.157,0.842,0.279
		c0.07,0.028,0.144,0.066,0.22,0.11c0.034,0.017,0.08,0.05,0.125,0.088c0.025,0.022,0.037,0.027,0.072,0.064
		c0.058,0.065,0.104,0.193,0.093,0.29c-0.013,0.121-0.016,0.061-0.024,0.101l-0.005,0.012l-0.089,0.123l-0.004,0.004l-0.017,0.018
		l-0.067,0.072l-0.134,0.144l-0.27,0.285c-0.086,0.099-0.193,0.18-0.252,0.302l-0.421,0.68l-0.061-0.342
		c0.368,0.353,0.735,0.696,1.1,1.017c0.182,0.169,0.377,0.277,0.563,0.421c0.1,0.064,0.175,0.147,0.298,0.194l0.341,0.162
		l0.341,0.162l0.085,0.041c-0.004-0.001,0.024,0.01-0.006-0.002l0.056,0.031c0.037,0.023,0.07,0.054,0.096,0.086
		c0.046,0.059,0.068,0.18,0.059,0.231c-0.041,0.204-0.1,0.228-0.148,0.306c-0.199,0.236-0.401,0.39-0.613,0.55
		c-0.422,0.311-0.868,0.572-1.328,0.808l-0.097-0.5c0.574,0.056,1.144,0.149,1.707,0.296c0.282,0.076,0.559,0.159,0.843,0.29
		c0.071,0.032,0.143,0.07,0.222,0.123c0.042,0.032,0.078,0.05,0.135,0.121l0.036,0.046c0.023,0.04,0.046,0.11,0.043,0.176
		c-0.024,0.168-0.037,0.121-0.043,0.149l-0.003,0.005l-0.064,0.08l-0.009,0.009L93.829,31.2l-0.034,0.036l-0.068,0.073l-0.137,0.145
		c-0.169,0.205-0.399,0.358-0.52,0.605c-0.139,0.233-0.295,0.449-0.421,0.695l-0.741,1.525l-0.18-0.356
		c0.471,0.068,0.938,0.161,1.4,0.297c0.231,0.072,0.458,0.146,0.692,0.268c0.059,0.03,0.118,0.063,0.186,0.117
		c0.032,0.025,0.071,0.057,0.116,0.128c0.012-0.004,0.067,0.15,0.025,0.242c-0.03,0.077-0.022,0.042-0.035,0.068l-0.063,0.072
		l-0.015,0.015l-0.029,0.029l-0.058,0.059l-0.117,0.118c-0.147,0.165-0.334,0.294-0.447,0.49c-0.124,0.186-0.265,0.358-0.376,0.555
		c-0.219,0.394-0.423,0.808-0.616,1.233l-0.128-0.279l0.493,0.185c0.169,0.053,0.311,0.154,0.467,0.229
		c0.312,0.154,0.586,0.358,0.871,0.54c0.553,0.384,1.101,0.761,1.689,1.022c0.282,0.141,0.601,0.236,0.93,0.317l0.121,0.033
		c0.024,0.008,0.031,0.006,0.07,0.021c0.075,0.027,0.125,0.079,0.14,0.152c0.018,0.218-0.061,0.257-0.1,0.352
		c-0.099,0.158-0.212,0.288-0.327,0.418c-0.469,0.506-1.001,0.932-1.562,1.315l0.019-0.203c0.136,0.125,0.239,0.295,0.36,0.441
		c0.122,0.148,0.233,0.302,0.305,0.48c0.076,0.174,0.183,0.336,0.231,0.519l0.166,0.539l0.235,1.082
		c0.034,0.181,0.083,0.356,0.132,0.53c0.052,0.173,0.086,0.355,0.165,0.515l0.205,0.495l0.295,0.466
		c0.052,0.097,0.093,0.112,0.154,0.277c-0.064,0.216-0.19,0.178-0.273,0.228c-0.186,0.057-0.37,0.085-0.556,0.108
		c-0.741,0.083-1.484,0.059-2.219-0.021l0.042-0.012L93.724,47.824z"/>
</g>
</svg>
