<?xml version="1.0" encoding="utf-8"?>
<!-- Generator: Adobe Illustrator 16.0.4, SVG Export Plug-In . SVG Version: 6.00 Build 0)  -->
<!DOCTYPE svg PUBLIC "-//W3C//DTD SVG 1.1//EN" "http://www.w3.org/Graphics/SVG/1.1/DTD/svg11.dtd">
<svg version="1.1" id="Layer_1" xmlns="http://www.w3.org/2000/svg" xmlns:xlink="http://www.w3.org/1999/xlink" x="0px" y="0px"
	 width="88.266px" height="112px" viewBox="0 0 88.266 112" enable-background="new 0 0 88.266 112" xml:space="preserve">
<path fill="#925F34" d="M53.568,75.803C54.82,72.567,65.206,64.95,65.206,64.95l-1.547-1.264c0,0-8.45,9.954-10.545,9.833
	c-1.595-0.091-3.445-11.405-4.444-13.139c-0.448-0.779-1.087,0.281-1.087,0.281s4.604,12.53,1.676,12.08
	c-1.576-0.241-7.198-8.204-10.127-12.417c-0.878-1.265-1.617-0.206-1.617-0.206s9.378,13.196,10.522,14.42
	c1.475,1.58,0.031,25.217-0.539,35.517c-0.135,2.437,9.588,1.845,9.068-0.53C55.805,106.061,52.994,77.282,53.568,75.803z"/>
<g>
	<path fill="#664321" d="M38.13,60.325c2.929,4.214,8.551,12.176,10.127,12.417c0.257,0.04,0.453-0.026,0.602-0.169
		c-1.968-1.192-7.009-8.335-9.729-12.249c-0.589-0.849-1.114-0.651-1.397-0.429C37.861,59.993,37.993,60.128,38.13,60.325z"/>
	<path fill="#664321" d="M49.17,65.585c0.242,0.853,0.47,1.734,0.653,2.577c0.744,2.821,1.545,5.314,2.29,5.357
		c0.178,0.01,0.404-0.057,0.664-0.18c-1.512-1.443-3.178-11.346-4.108-12.959c-0.322-0.56-0.741-0.17-0.953,0.093
		C48.103,61.236,48.606,63.307,49.17,65.585z"/>
	<path fill="#664321" d="M53.568,75.803C54.82,72.567,65.206,64.95,65.206,64.95l-1.547-1.264c0,0-0.151,0.178-0.413,0.48
		l0.96,0.784c0,0-3.457,2.536-6.623,5.303c-0.7,0.684-1.386,1.319-2.016,1.844c-1.46,1.411-3.629,2.75-4,3.706
		c-0.574,1.479,2.237,30.258,2.997,33.724c0.272,1.241-1.254,1.994-3.709,2.083c2.708,0.11,6.018-0.672,5.709-2.083
		C55.805,106.061,52.994,77.282,53.568,75.803z"/>
</g>
<g>
	<path d="M53.533,75.789c0.55-1.239,1.518-2.21,2.431-3.174c0.938-0.953,1.927-1.853,2.933-2.73c2.02-1.749,4.085-3.444,6.215-5.062
		l-0.006,0.25l-1.563-1.245l0.255-0.023c-1.611,1.925-3.266,3.807-4.999,5.628c-0.872,0.905-1.768,1.789-2.717,2.626
		c-0.478,0.416-0.967,0.822-1.506,1.185c-0.271,0.181-0.553,0.352-0.885,0.483c-0.169,0.062-0.352,0.119-0.584,0.114
		c-0.123-0.016-0.071-0.002-0.188-0.036c-0.09-0.027-0.139-0.059-0.189-0.089c-0.099-0.063-0.175-0.134-0.242-0.205
		c-0.482-0.572-0.688-1.168-0.93-1.765c-0.228-0.597-0.411-1.203-0.588-1.808c-0.351-1.211-0.655-2.429-0.955-3.646l-0.906-3.639
		c-0.164-0.598-0.322-1.205-0.531-1.765c-0.089-0.28-0.275-0.553-0.293-0.505c-0.066-0.027-0.34,0.211-0.462,0.422l0.023-0.24
		c0.852,2.464,1.618,4.95,2.177,7.502c0.241,1.28,0.543,2.57,0.319,3.938c-0.073,0.322-0.236,0.746-0.666,0.888
		c-0.405,0.127-0.798-0.077-1.059-0.271c-0.548-0.401-0.995-0.879-1.439-1.359c-1.741-1.946-3.26-4.054-4.792-6.149l-2.279-3.157
		l-1.122-1.586c-0.179-0.246-0.408-0.47-0.663-0.509c-0.248-0.048-0.518,0.128-0.68,0.346l0-0.18
		c2.388,3.312,4.774,6.625,7.204,9.905l1.832,2.451l0.93,1.211l0.474,0.588l0.12,0.137l0.029,0.032l0.046,0.059
		c0.02,0.029,0.036,0.042,0.061,0.088c0.103,0.176,0.136,0.292,0.18,0.431c0.28,1.053,0.318,2.071,0.388,3.1
		c0.055,1.026,0.079,2.05,0.091,3.074c0.043,4.094-0.108,8.179-0.259,12.262c-0.163,4.083-0.356,8.164-0.597,12.24l-0.175,3.058
		l-0.079,1.502c-0.001,0.213,0.351,0.526,0.78,0.675c0.866,0.327,1.887,0.401,2.87,0.397c0.99-0.015,1.99-0.126,2.932-0.382
		c0.466-0.13,0.929-0.299,1.295-0.541c0.182-0.118,0.336-0.261,0.406-0.401c0.07-0.163,0.073-0.208,0.007-0.513
		c-0.178-1.037-0.29-2.042-0.411-3.061c-0.233-2.032-0.436-4.065-0.631-6.099c-0.389-4.067-0.736-8.137-1.035-12.21l-0.431-6.112
		l-0.168-3.059C53.479,77.838,53.37,76.823,53.533,75.789z M53.603,75.817c-0.143,0.985-0.03,2.027,0.001,3.039l0.199,3.055
		c0.149,2.036,0.326,4.069,0.532,6.101c0.405,4.062,0.841,8.122,1.312,12.176c0.238,2.027,0.484,4.053,0.759,6.072
		c0.141,1.004,0.279,2.028,0.467,3c0.061,0.184,0.131,0.681-0.053,0.979c-0.159,0.32-0.403,0.527-0.64,0.694
		c-0.484,0.328-1,0.501-1.512,0.65c-1.029,0.281-2.075,0.397-3.124,0.417c-1.049,0.002-2.108-0.053-3.163-0.442
		c-0.262-0.103-0.526-0.235-0.772-0.441c-0.243-0.212-0.471-0.509-0.499-0.938c0.014-0.564,0.052-1.035,0.076-1.557l0.167-3.058
		c0.429-8.151,0.947-16.307,1.005-24.456c0.003-1.018-0.006-2.036-0.045-3.049c-0.05-1.004-0.086-2.045-0.32-2.972
		c-0.07-0.25-0.104-0.315-0.324-0.56l-0.478-0.61l-0.917-1.232l-1.798-2.482l-7.092-9.992l-0.004-0.005
		c-0.038-0.054-0.035-0.125,0.003-0.175c0.219-0.289,0.572-0.532,0.984-0.465c0.399,0.076,0.654,0.369,0.85,0.635l1.108,1.603
		l2.243,3.178c1.537,2.085,3.101,4.163,4.843,6.066c0.441,0.466,0.896,0.933,1.401,1.292c0.251,0.182,0.512,0.288,0.752,0.212
		c0.218-0.068,0.349-0.334,0.409-0.625c0.188-1.211-0.111-2.522-0.37-3.767c-0.579-2.512-1.398-4.979-2.286-7.401
		c-0.031-0.081-0.018-0.172,0.023-0.241c0.101-0.162,0.202-0.292,0.34-0.426c0.138-0.122,0.308-0.276,0.609-0.284
		c0.317,0.002,0.52,0.243,0.609,0.392c0.104,0.17,0.165,0.316,0.228,0.471c0.24,0.609,0.411,1.212,0.579,1.821l0.931,3.645
		c0.307,1.212,0.617,2.422,0.97,3.614c0.176,0.596,0.368,1.185,0.576,1.762c0.21,0.562,0.449,1.168,0.778,1.558
		c0.104,0.328,0.809-0.047,1.268-0.35c0.503-0.331,0.985-0.72,1.456-1.12c0.94-0.806,1.833-1.677,2.715-2.558
		c1.765-1.763,3.466-3.601,5.118-5.475l0.004-0.004c0.065-0.074,0.177-0.082,0.251-0.019l1.532,1.283
		c0.068,0.055,0.078,0.154,0.023,0.222c-0.008,0.01-0.02,0.021-0.03,0.028c-2.153,1.567-4.28,3.184-6.308,4.916
		c-1.012,0.868-2.006,1.757-2.95,2.698C55.124,73.643,54.152,74.605,53.603,75.817z"/>
</g>
<g>
	<path fill="#81BB27" d="M87.51,30.41c-0.124-0.599-0.481-1.103-0.978-1.505c0.118-0.463,0.163-0.936,0.066-1.406
		c-0.056-0.272-0.153-0.53-0.279-0.773c0.018-0.272,0.008-0.547-0.048-0.82c-0.271-1.319-1.383-2.305-2.879-2.81
		c0.169-0.486,0.217-0.991,0.114-1.492c-0.201-0.979-0.939-1.75-1.967-2.215c0.252-0.489,0.364-1.011,0.257-1.528
		c-0.098-0.477-0.369-0.882-0.741-1.218c0.393-0.488,0.588-1.05,0.474-1.605c-0.044-0.217-0.145-0.412-0.269-0.593
		c0.173-0.557,0.228-1.13,0.111-1.699c-0.507-2.463-3.743-3.879-7.23-3.163c-0.16,0.033-0.308,0.09-0.465,0.131
		c0.175-0.492,0.217-1,0.15-1.506c0.247-0.843,0.308-1.711,0.13-2.571c-0.796-3.871-5.883-6.096-11.359-4.97
		c-2.14,0.44-4.016,1.329-5.468,2.476c-0.074,0.018-0.149,0.035-0.221,0.054c-1.663-2.003-5.059-2.976-8.663-2.234
		c-2.593,0.533-4.74,1.839-6.017,3.461c-0.407,0.094-0.784,0.229-1.137,0.392c-0.811-0.215-1.746-0.252-2.715-0.053
		c-0.376,0.078-0.727,0.193-1.062,0.326c-1.298-0.612-2.991-0.82-4.761-0.456c-2.771,0.569-4.819,2.346-5.229,4.284
		c-1.443,0.972-2.271,2.377-2.033,3.76c-0.917-0.434-2.117-0.582-3.369-0.324c-2.407,0.495-4.075,2.274-3.725,3.976
		c0.157,0.764,0.707,1.37,1.471,1.774c-1.557,1.199-2.402,2.84-2.074,4.437c0.108,0.524,0.339,1.001,0.662,1.426
		c-1.145,1.144-1.723,2.556-1.439,3.935c0.129,0.629,0.429,1.193,0.855,1.679c-0.871,1.118-1.269,2.405-1.009,3.666
		c0.067,0.329,0.181,0.64,0.328,0.934c-0.044,0.009-0.088,0.013-0.131,0.022c-1.575,0.324-2.966,0.968-4.053,1.802
		c-4.471,1.416-7.411,4.912-6.72,8.272c0.285,1.382,1.142,2.545,2.379,3.402c-5.209,1.262-8.761,5.176-7.989,8.93
		c0.796,3.871,5.882,6.096,11.36,4.97c1.063-0.219,2.061-0.55,2.977-0.967c0.713,1.924,3.11,3.108,5.902,2.996
		c-1.267,1.379-1.886,3.035-1.553,4.655c0.674,3.278,4.974,5.164,9.611,4.222c2.41,0.88,5.367,1.111,8.43,0.481
		c2.63-0.541,4.937-1.636,6.722-3.047c0.456,0.37,1.191,0.535,1.97,0.375c1.161-0.239,1.967-1.098,1.798-1.92
		c-0.113-0.55-0.64-0.938-1.324-1.065c0.745-1.119,1.209-2.32,1.33-3.542c0.68,0.243,1.503,0.313,2.365,0.136
		c0.159-0.033,0.31-0.083,0.462-0.13c0.005,0.048,0,0.096,0.009,0.144c0.125,0.605,0.658,1.05,1.374,1.245
		c-0.547,0.689-0.813,1.48-0.653,2.26c0.362,1.76,2.673,2.771,5.163,2.259c0.571-0.118,1.094-0.312,1.569-0.551
		c0.52,0.17,1.137,0.216,1.781,0.083c0.44-0.09,0.834-0.255,1.173-0.463c0.387,1.519,2.19,2.472,4.313,2.357
		c0.528,1.047,1.886,1.683,3.467,1.672c-0.014,0.151-0.013,0.303,0.019,0.455c0.229,1.114,1.694,1.755,3.271,1.431
		c1.427-0.293,2.447-1.276,2.458-2.285c0.847-0.214,1.421-0.845,1.31-1.458c0.587,0.073,1.219,0.061,1.869-0.073
		c2.323-0.478,3.935-2.196,3.597-3.839c-0.007-0.036-0.027-0.068-0.038-0.104c1.16-0.717,1.837-1.811,1.618-2.877
		c-0.248-1.207-1.56-1.994-3.162-2.057c1.953-0.641,3.232-2.173,2.929-3.651c-0.154-0.747-0.695-1.339-1.448-1.728
		c1.576-0.489,2.62-1.71,2.377-2.89c-0.046-0.224-0.147-0.423-0.272-0.609c1.407-0.293,2.378-1.333,2.174-2.328
		c-0.08-0.387-0.329-0.708-0.683-0.942c2.089-0.778,3.429-2.466,3.095-4.092c-0.177-0.862-0.807-1.544-1.68-1.989
		c-0.414-1.569-2.511-2.461-4.778-1.995c-0.051,0.01-0.096,0.03-0.146,0.041c-0.288-0.408-0.759-0.711-1.34-0.87
		c0.122-0.015,0.243-0.023,0.365-0.048c1.517-0.312,2.632-1.298,2.82-2.362c1.901-0.457,3.201-1.877,2.92-3.246
		c-0.098-0.478-0.389-0.879-0.791-1.195C86.824,33.225,87.795,31.795,87.51,30.41z"/>
	<path fill="#81BB27" d="M81.376,14.644c-0.028-0.053-0.057-0.104-0.089-0.156c-0.012,0.037-0.012,0.075-0.025,0.111
		C81.302,14.612,81.338,14.63,81.376,14.644z"/>
	<path fill="#81BB27" d="M81.377,13.107c0.039,0.19,0.037,0.38,0.033,0.57c0.031-0.31,0.025-0.621-0.038-0.931
		c-0.203-0.984-0.846-1.797-1.762-2.377c-0.05,0.177-0.114,0.353-0.201,0.523C80.437,11.358,81.176,12.129,81.377,13.107z"/>
	<path fill="#81BB27" d="M81.287,14.488c0.082-0.266,0.12-0.537,0.124-0.811c-0.024,0.258-0.069,0.515-0.149,0.768
		C81.271,14.459,81.277,14.475,81.287,14.488z"/>
	<g>
		<g>
			<path d="M87.474,30.419l-0.138-0.434c-0.073-0.13-0.141-0.262-0.216-0.39l-0.282-0.352l-0.332-0.307
				c-0.012-0.011-0.017-0.028-0.014-0.043l0.087-0.547c0.05-0.182-0.004-0.366-0.005-0.549c-0.003-0.187-0.026-0.362-0.092-0.541
				c-0.041-0.186-0.138-0.339-0.205-0.51l-0.005-0.025c0-0.207,0.014-0.415-0.024-0.618c-0.011-0.207-0.092-0.397-0.146-0.603
				c-0.15-0.381-0.356-0.744-0.642-1.045c-0.134-0.159-0.285-0.299-0.45-0.426c-0.152-0.142-0.336-0.242-0.507-0.358
				c-0.354-0.217-0.738-0.379-1.129-0.521c-0.029-0.011-0.044-0.046-0.037-0.076c0.048-0.181,0.112-0.359,0.128-0.546
				c0.038-0.184,0.026-0.372,0.028-0.558l-0.037-0.277c-0.003-0.095-0.048-0.165-0.078-0.263c-0.069-0.177-0.12-0.366-0.204-0.533
				l-0.321-0.451c-0.094-0.16-0.27-0.256-0.4-0.388c-0.138-0.128-0.28-0.25-0.452-0.33l-0.491-0.278
				c-0.035-0.017-0.048-0.061-0.034-0.096c0.106-0.224,0.194-0.453,0.244-0.693c0.025-0.119,0.024-0.242,0.039-0.363
				c0.007-0.121-0.021-0.242-0.028-0.362c-0.008-0.107-0.066-0.238-0.097-0.355c-0.042-0.116-0.107-0.214-0.159-0.322
				c-0.13-0.206-0.292-0.391-0.472-0.56c-0.027-0.025-0.032-0.066-0.014-0.097l0.005-0.01c0.097-0.165,0.238-0.308,0.299-0.49
				l0.112-0.264l0.049-0.28c0.027-0.092,0.016-0.187,0.006-0.28l-0.011-0.141c-0.005-0.056,0-0.082-0.022-0.13
				c-0.053-0.199-0.145-0.361-0.242-0.513c-0.015-0.023-0.018-0.054-0.012-0.078c0.052-0.216,0.115-0.43,0.132-0.651
				c0.038-0.218,0.024-0.441,0.013-0.659c-0.023-0.224-0.061-0.426-0.135-0.646c-0.061-0.222-0.161-0.405-0.26-0.601
				c-0.437-0.771-1.164-1.342-1.971-1.709c-0.805-0.38-1.7-0.55-2.589-0.594c-0.445-0.026-0.894-0.002-1.336,0.048
				c-0.223,0.015-0.442,0.064-0.662,0.101c-0.222,0.027-0.429,0.108-0.652,0.167c-0.085,0.022-0.173-0.029-0.195-0.114
				c-0.006-0.025-0.007-0.05-0.002-0.073l0.006-0.027l0.151-0.705l-0.019-0.724l0-0.019c0-0.018,0.002-0.036,0.006-0.053
				c0.113-0.438,0.193-0.882,0.208-1.332c0.007-0.445-0.032-0.904-0.145-1.324c-0.113-0.464-0.285-0.862-0.496-1.25
				c-0.221-0.391-0.496-0.747-0.796-1.082l-0.488-0.468l-0.538-0.413c-0.377-0.249-0.762-0.49-1.177-0.675
				c-0.404-0.206-0.838-0.354-1.269-0.493c-0.435-0.138-0.878-0.24-1.328-0.32c-0.449-0.072-0.902-0.138-1.358-0.157
				c-0.456-0.032-0.912-0.033-1.369-0.01c-0.457,0.011-0.911,0.073-1.364,0.125c-0.462,0.086-0.884,0.134-1.335,0.275
				c-0.442,0.133-0.915,0.216-1.331,0.39C60.46,1.6,60.034,1.749,59.624,1.938l-1.202,0.647l-1.115,0.781l-0.015,0.01
				c-0.029,0.021-0.062,0.035-0.094,0.043l-0.216,0.054c-0.101,0.025-0.202-0.006-0.271-0.073L56.69,3.379l-0.696-0.68l-0.806-0.558
				l-0.886-0.435l-0.939-0.315c-0.315-0.098-0.649-0.136-0.972-0.208c-0.322-0.082-0.659-0.078-0.989-0.109
				c-0.331-0.035-0.663-0.046-0.996-0.019c-0.332,0.024-0.667,0.003-0.996,0.063l-0.988,0.152c-0.304,0.056-0.656,0.16-0.982,0.238
				l-0.937,0.309c-0.304,0.134-0.616,0.251-0.915,0.396c-0.289,0.162-0.598,0.292-0.872,0.479c-0.279,0.178-0.563,0.35-0.818,0.562
				c-0.27,0.193-0.513,0.415-0.751,0.643c-0.251,0.215-0.443,0.484-0.668,0.723c-0.049,0.052-0.115,0.091-0.178,0.113l-1.078,0.367
				l-0.011,0.003c-0.066,0.023-0.136,0.026-0.201,0.015c-0.297-0.056-0.589-0.138-0.895-0.147c-0.302-0.042-0.606-0.019-0.911-0.012
				c-0.152,0.002-0.303,0.039-0.454,0.056l-0.227,0.032c-0.026,0.004-0.102,0.013-0.088,0.014l-0.115,0.035l-0.921,0.28
				c-0.063,0.019-0.128,0.016-0.186-0.005l-0.03-0.011l-0.669-0.246c-0.219-0.097-0.449-0.156-0.688-0.188l-0.706-0.133
				c-0.239-0.02-0.48-0.016-0.72-0.026c-0.24,0.004-0.482-0.039-0.721,0.01l-0.718,0.09L32.621,4.91l-0.362,0.095
				c-0.238,0.068-0.491,0.118-0.716,0.2l-0.661,0.262c-0.223,0.08-0.425,0.22-0.64,0.327c-0.218,0.105-0.418,0.236-0.608,0.384
				c-0.19,0.145-0.401,0.267-0.563,0.443c-0.167,0.169-0.359,0.318-0.507,0.503c-0.143,0.188-0.296,0.37-0.432,0.563l-0.335,0.619
				L27.583,8.97l-0.006,0.017c-0.02,0.061-0.057,0.111-0.104,0.146l-0.434,0.323c-0.142,0.11-0.265,0.241-0.399,0.36
				c-0.251,0.253-0.48,0.529-0.662,0.832c-0.109,0.143-0.158,0.312-0.24,0.468c-0.084,0.155-0.104,0.33-0.162,0.494
				c-0.047,0.167-0.043,0.341-0.07,0.511c-0.002,0.171,0.022,0.342,0.03,0.513v0.01c0.006,0.143-0.104,0.265-0.248,0.271
				c-0.035,0.001-0.07-0.005-0.102-0.016l-0.654-0.242c-0.226-0.057-0.459-0.089-0.689-0.137c-0.23-0.05-0.47-0.024-0.704-0.041
				c-0.236-0.022-0.471,0.015-0.706,0.046c-0.25,0.036-0.449,0.038-0.691,0.121c-0.233,0.071-0.484,0.12-0.702,0.208l-0.635,0.281
				l-0.598,0.375c-0.193,0.133-0.354,0.306-0.533,0.455c-0.174,0.156-0.292,0.358-0.443,0.534c-0.133,0.188-0.208,0.405-0.318,0.605
				c-0.051,0.217-0.114,0.438-0.134,0.658c0.033,0.213-0.013,0.465,0.075,0.647l0.12,0.349c0.047,0.107,0.119,0.18,0.175,0.273
				c0.095,0.187,0.287,0.333,0.446,0.494c0.168,0.155,0.383,0.259,0.571,0.393l0.011,0.008c0.097,0.069,0.12,0.204,0.05,0.301
				l-0.032,0.036c-0.204,0.181-0.425,0.344-0.615,0.538c-0.184,0.2-0.388,0.384-0.539,0.609c-0.174,0.21-0.317,0.438-0.443,0.677
				c-0.148,0.228-0.215,0.491-0.321,0.737c-0.051,0.261-0.145,0.517-0.14,0.785c-0.002,0.132-0.031,0.266-0.013,0.397l0.044,0.396
				c-0.011,0.089,0.073,0.254,0.104,0.378l0.132,0.4c0.051,0.127,0.133,0.225,0.196,0.339l0.201,0.334l0.007,0.012
				c0.044,0.074,0.032,0.166-0.023,0.226c-0.344,0.371-0.688,0.752-0.924,1.2c-0.07,0.106-0.122,0.22-0.172,0.335
				c-0.048,0.116-0.113,0.226-0.147,0.346c-0.078,0.238-0.153,0.478-0.181,0.726c-0.027,0.123-0.038,0.247-0.035,0.371
				c0.002,0.124-0.018,0.25,0.001,0.373l0.046,0.371c0.013,0.102,0.063,0.245,0.093,0.366c0.078,0.251,0.165,0.46,0.295,0.679
				c0.117,0.222,0.276,0.417,0.431,0.615c0.046,0.059,0.044,0.143,0.006,0.202l-0.326,0.5c-0.104,0.169-0.236,0.325-0.294,0.516
				l-0.224,0.55c-0.096,0.178-0.09,0.382-0.134,0.574c-0.022,0.195-0.09,0.388-0.076,0.584l0.044,0.588
				c0.013,0.094,0.002,0.206,0.033,0.286l0.082,0.296c0.051,0.201,0.146,0.361,0.214,0.545l0.006,0.015
				c0.026,0.072-0.01,0.151-0.082,0.178l-0.022,0.006c-0.36,0.069-0.74,0.185-1.108,0.275c-0.369,0.102-0.708,0.259-1.063,0.385
				c-0.349,0.141-0.676,0.337-1.016,0.503c-0.169,0.085-0.317,0.205-0.477,0.306l-0.471,0.315l-0.006,0.004l-0.032,0.016
				c-0.621,0.208-1.237,0.436-1.823,0.731c-0.591,0.283-1.152,0.626-1.68,1.012c-1.054,0.769-1.972,1.749-2.572,2.9
				c-0.152,0.288-0.278,0.586-0.376,0.895c-0.097,0.307-0.181,0.622-0.217,0.941c-0.052,0.319-0.052,0.641-0.042,0.963
				c0.004,0.161,0.041,0.318,0.059,0.478c0.013,0.163,0.053,0.291,0.112,0.46c0.12,0.302,0.163,0.657,0.345,0.916
				c0.173,0.266,0.286,0.566,0.503,0.807c0.217,0.238,0.408,0.501,0.646,0.718l0.752,0.612l0.007,0.005
				c0.065,0.053,0.075,0.148,0.022,0.212c-0.021,0.026-0.049,0.043-0.079,0.051c-0.598,0.157-1.188,0.338-1.765,0.561
				c-0.573,0.23-1.131,0.493-1.67,0.793c-0.535,0.307-1.044,0.653-1.53,1.031c-0.471,0.395-0.925,0.811-1.317,1.281
				c-0.395,0.467-0.749,0.971-1.017,1.518c-0.278,0.541-0.475,1.122-0.569,1.718c-0.115,0.595-0.074,1.204,0.02,1.796
				c0.143,0.591,0.337,1.17,0.669,1.665c0.301,0.524,0.732,0.959,1.173,1.371c0.474,0.378,0.974,0.73,1.524,0.995
				c0.542,0.277,1.116,0.5,1.707,0.657c0.586,0.172,1.193,0.284,1.802,0.35c0.608,0.072,1.224,0.098,1.837,0.072
				c0.308,0,0.613-0.024,0.918-0.061c0.306-0.026,0.611-0.061,0.913-0.121c0.609-0.079,1.183-0.27,1.798-0.428
				c0.606-0.158,1.142-0.43,1.716-0.637c0.129-0.046,0.271,0.012,0.332,0.131l0.004,0.009l0.187,0.365
				c0.07,0.117,0.104,0.255,0.203,0.354c0.187,0.202,0.314,0.454,0.545,0.617c0.215,0.174,0.407,0.377,0.661,0.503l0.359,0.215
				c0.115,0.081,0.254,0.117,0.382,0.175c0.262,0.104,0.515,0.229,0.794,0.284c0.276,0.062,0.542,0.166,0.827,0.186
				c0.282,0.029,0.561,0.091,0.846,0.095l0.853,0.011c0.157,0.002,0.282,0.131,0.28,0.288c-0.001,0.066-0.026,0.129-0.065,0.177
				c-0.211,0.26-0.439,0.506-0.615,0.79c-0.199,0.269-0.344,0.568-0.494,0.861c-0.132,0.303-0.247,0.61-0.319,0.93
				c-0.066,0.318-0.127,0.642-0.114,0.966c-0.018,0.318,0.045,0.66,0.102,0.948l0.144,0.5l0.193,0.426
				c0.155,0.276,0.319,0.563,0.537,0.806c0.194,0.262,0.448,0.478,0.692,0.694c1.021,0.84,2.319,1.317,3.638,1.544
				c0.334,0.032,0.665,0.101,1.003,0.105c0.336,0.022,0.672,0.032,1.01,0.014c0.675-0.009,1.345-0.107,2.009-0.226
				c0.055-0.01,0.109-0.006,0.16,0.007l0.023,0.007l1.875,0.522l1.937,0.253c0.651,0.013,1.304-0.004,1.956-0.003
				c0.327,0.02,0.648-0.071,0.972-0.102l0.97-0.135l0.485-0.067c0.124-0.021,0.312-0.08,0.464-0.118l0.966-0.256
				c0.328-0.077,0.643-0.173,0.935-0.303l0.901-0.354c0.609-0.214,1.159-0.587,1.742-0.872c0.298-0.136,0.542-0.357,0.816-0.532
				l0.801-0.556c0.125-0.087,0.285-0.087,0.408-0.014l0.027,0.017l0.29,0.174c0.105,0.047,0.225,0.072,0.336,0.112
				c0.108,0.051,0.24,0.031,0.358,0.052c0.121,0.019,0.243,0.022,0.367-0.001c0.114-0.015,0.267-0.023,0.35-0.041
				c0.132-0.04,0.279-0.073,0.399-0.118c0.206-0.087,0.424-0.198,0.611-0.352c0.175-0.153,0.349-0.327,0.42-0.525
				c0.064-0.094,0.051-0.195,0.086-0.292l-0.01-0.143l-0.001-0.036l0-0.018V68.45v-0.005v-0.002v-0.001
				c-0.004-0.014,0.037,0.119,0.019,0.062l-0.041-0.097c-0.058-0.109-0.099-0.312-0.176-0.324c-0.079-0.045-0.082-0.121-0.205-0.171
				c-0.103-0.048-0.184-0.128-0.3-0.158l-0.342-0.103l-0.019-0.005c-0.193-0.058-0.303-0.261-0.245-0.454
				c0.008-0.029,0.021-0.057,0.035-0.082l0.467-0.79c0.131-0.275,0.25-0.556,0.377-0.833c0.099-0.287,0.18-0.579,0.272-0.868
				c0.057-0.296,0.101-0.595,0.154-0.892c0.037-0.206,0.233-0.342,0.438-0.306l0.013,0.002l0.02,0.004
				c0.213,0.047,0.415,0.138,0.636,0.154c0.218,0.032,0.436,0.063,0.658,0.049c0.222,0.011,0.442-0.017,0.662-0.052l0.165-0.022
				c0.058-0.004,0.081-0.017,0.153-0.036l0.346-0.097l0.016-0.005c0.178-0.05,0.364,0.054,0.414,0.232
				c0.007,0.025,0.011,0.053,0.012,0.078l0.004,0.102c-0.007-0.021,0.017,0.067-0.016-0.045l0.006,0.015l0.012,0.03l0.024,0.061
				l0.096,0.243c0.026,0.102,0.082,0.103,0.117,0.152c0.04,0.039,0.074,0.081,0.108,0.126c0.112,0.079,0.234,0.159,0.352,0.239
				l0.419,0.161l0.006,0.002c0.196,0.075,0.293,0.294,0.219,0.49c-0.01,0.026-0.024,0.052-0.038,0.074l-0.322,0.484
				c-0.067,0.176-0.152,0.348-0.212,0.524c-0.019,0.182-0.085,0.362-0.077,0.542c0.03,0.165-0.004,0.394,0.065,0.507
				c0.082,0.183,0.124,0.445,0.239,0.563c0.117,0.128,0.175,0.279,0.32,0.403c0.148,0.119,0.281,0.255,0.438,0.365l0.511,0.282
				c0.181,0.075,0.374,0.128,0.56,0.194c0.182,0.08,0.389,0.084,0.584,0.124c0.391,0.094,0.801,0.052,1.202,0.066l0.603-0.081
				c0.09-0.015,0.224-0.023,0.278-0.042l0.31-0.087c0.199-0.064,0.432-0.101,0.598-0.191l0.54-0.233l0.005-0.002
				c0.089-0.039,0.185-0.042,0.272-0.019c0.218,0.061,0.438,0.111,0.667,0.127c0.228,0.01,0.46,0.021,0.687-0.022l0.172-0.023
				c0.015-0.002,0.087-0.012,0.056-0.007l0.092-0.027l0.367-0.11c0.255-0.069,0.4-0.196,0.609-0.282l0.012-0.005
				c0.208-0.085,0.445,0.014,0.53,0.222l0.002,0.004l0.104,0.262c0.042,0.084,0.049,0.184,0.115,0.257
				c0.122,0.147,0.188,0.333,0.347,0.456c0.145,0.13,0.268,0.283,0.448,0.378l0.249,0.164c0.078,0.062,0.181,0.087,0.271,0.133
				c0.186,0.08,0.365,0.174,0.568,0.216c0.199,0.048,0.391,0.126,0.599,0.14c0.206,0.021,0.408,0.07,0.616,0.07l0.624,0.005
				c0.133,0.001,0.251,0.067,0.324,0.167l0.024,0.035c0.083,0.116,0.144,0.244,0.237,0.354c0.106,0.1,0.182,0.225,0.308,0.307
				c0.12,0.086,0.225,0.192,0.364,0.257c0.133,0.072,0.257,0.157,0.405,0.205c0.279,0.123,0.581,0.204,0.887,0.262
				c0.155,0.02,0.308,0.055,0.465,0.062l0.472,0.021c0.192,0.009,0.346,0.158,0.365,0.344l0.006,0.061
				c0.011,0.108,0.013,0.294,0.014,0.337c0.062,0.132,0.1,0.368,0.182,0.415c0.067,0.082,0.117,0.177,0.239,0.262
				c0.094,0.096,0.209,0.173,0.339,0.234c0.242,0.139,0.531,0.228,0.823,0.267c0.145,0.033,0.293,0.043,0.445,0.038
				c0.15,0.003,0.3,0.01,0.45-0.02c0.143-0.025,0.317-0.029,0.433-0.069c0.155-0.047,0.334-0.082,0.468-0.139
				c0.261-0.102,0.527-0.236,0.769-0.41c0.107-0.098,0.242-0.172,0.329-0.285c0.095-0.107,0.201-0.207,0.263-0.33
				c0.085-0.113,0.136-0.236,0.177-0.362c0.065-0.122,0.04-0.251,0.074-0.376l0.028-0.104c0.035-0.128,0.135-0.221,0.254-0.254
				c0.29-0.08,0.564-0.217,0.766-0.407c0.104-0.091,0.18-0.202,0.226-0.309c0.038-0.053,0.028-0.107,0.048-0.16
				c0.011-0.053-0.005-0.102,0.002-0.155l0.015-0.101c0.028-0.194,0.198-0.333,0.39-0.327c0.303,0.01,0.606,0.04,0.91,0.037
				l0.453-0.052c0.141-0.019,0.325-0.028,0.431-0.055c0.302-0.094,0.649-0.153,0.914-0.276c0.266-0.126,0.546-0.216,0.794-0.398
				l0.381-0.244l0.335-0.297c0.121-0.092,0.217-0.204,0.302-0.324c0.086-0.118,0.192-0.226,0.264-0.351l0.19-0.387
				c0.078-0.125,0.069-0.271,0.112-0.405l0.048-0.205l-0.014-0.207c-0.022-0.137,0.018-0.279-0.049-0.413
				c-0.056-0.112-0.017-0.246,0.085-0.312l0.057-0.037c0.248-0.16,0.483-0.333,0.695-0.532c0.208-0.203,0.387-0.426,0.536-0.667
				c0.055-0.127,0.131-0.248,0.174-0.378c0.03-0.132,0.096-0.26,0.095-0.396c0.018-0.134,0.032-0.268,0.007-0.401
				c-0.006-0.054-0.012-0.163-0.017-0.171l-0.072-0.225c-0.04-0.169-0.115-0.263-0.178-0.368c-0.048-0.11-0.157-0.209-0.247-0.312
				c-0.083-0.112-0.208-0.187-0.317-0.275c-0.105-0.095-0.239-0.155-0.365-0.225c-0.251-0.138-0.533-0.239-0.819-0.304
				c-0.145-0.026-0.285-0.079-0.435-0.085l-0.444-0.046c-0.154-0.016-0.266-0.154-0.25-0.307c0.011-0.104,0.077-0.188,0.166-0.228
				l0.009-0.003c0.269-0.118,0.558-0.196,0.812-0.344c0.259-0.139,0.517-0.28,0.74-0.469c0.248-0.161,0.427-0.39,0.635-0.591
				c0.156-0.237,0.347-0.459,0.433-0.728c0.06-0.128,0.116-0.257,0.127-0.396c0.013-0.136,0.075-0.271,0.052-0.408
				c-0.008-0.123-0.026-0.304-0.02-0.379l-0.15-0.439c-0.046-0.153-0.145-0.224-0.209-0.342c-0.059-0.114-0.164-0.21-0.27-0.306
				c-0.188-0.214-0.452-0.346-0.69-0.507l-0.012-0.008c-0.109-0.074-0.138-0.223-0.064-0.332c0.029-0.042,0.069-0.073,0.114-0.09
				l0.528-0.198l0.495-0.265c0.306-0.211,0.6-0.446,0.816-0.74c0.106-0.148,0.215-0.294,0.273-0.464
				c0.029-0.083,0.088-0.159,0.093-0.248l0.049-0.258c0.029-0.086-0.004-0.173-0.001-0.259l-0.008-0.13
				c0.001-0.012-0.008-0.066,0.002-0.042l-0.023-0.07c-0.052-0.206-0.138-0.35-0.22-0.487c-0.061-0.099-0.03-0.229,0.069-0.29
				c0.018-0.011,0.041-0.02,0.06-0.025c0.358-0.089,0.715-0.203,1.027-0.397c0.159-0.093,0.311-0.195,0.438-0.324
				c0.148-0.11,0.238-0.267,0.354-0.402c0.071-0.157,0.178-0.307,0.194-0.479c0.016-0.083,0.05-0.167,0.032-0.25l-0.012-0.234
				c-0.031-0.091-0.057-0.192-0.092-0.274l-0.125-0.201c-0.107-0.137-0.239-0.253-0.384-0.358c-0.082-0.06-0.1-0.175-0.041-0.257
				c0.018-0.025,0.042-0.044,0.067-0.057l0.01-0.005c0.3-0.146,0.625-0.245,0.905-0.427c0.292-0.165,0.572-0.345,0.82-0.567
				c0.134-0.1,0.258-0.21,0.363-0.338c0.108-0.125,0.231-0.239,0.328-0.372l0.267-0.414c0.092-0.137,0.129-0.299,0.197-0.447
				c0.076-0.148,0.098-0.308,0.121-0.468c0.03-0.16,0.062-0.319,0.033-0.48c-0.023-0.152,0-0.34-0.058-0.464l-0.168-0.487
				c-0.082-0.137-0.177-0.26-0.262-0.393c-0.071-0.14-0.216-0.237-0.33-0.354c-0.119-0.113-0.233-0.232-0.382-0.31l-0.42-0.266
				c-0.027-0.017-0.048-0.041-0.062-0.067l-0.011-0.022c-0.101-0.202-0.146-0.435-0.286-0.615c-0.144-0.177-0.258-0.381-0.455-0.512
				c-0.172-0.156-0.356-0.296-0.572-0.392c-0.2-0.124-0.417-0.21-0.645-0.273c-0.22-0.087-0.45-0.135-0.686-0.163
				c-0.232-0.048-0.467-0.073-0.705-0.063c-0.237-0.003-0.475-0.017-0.709,0.028c-0.234,0.04-0.474,0.04-0.704,0.112
				c-0.038,0.012-0.077,0-0.101-0.027l-0.017-0.019c-0.086-0.094-0.163-0.196-0.254-0.286c-0.103-0.077-0.198-0.165-0.307-0.233
				c-0.115-0.06-0.227-0.128-0.345-0.181l-0.37-0.132c-0.057-0.018-0.089-0.078-0.072-0.135c0.012-0.04,0.049-0.067,0.087-0.075
				c0.177-0.027,0.336-0.029,0.509-0.085c0.167-0.051,0.352-0.077,0.505-0.149c0.32-0.117,0.634-0.271,0.919-0.466
				c0.136-0.106,0.288-0.194,0.403-0.322c0.125-0.118,0.25-0.237,0.345-0.381c0.113-0.131,0.192-0.282,0.267-0.436
				c0.09-0.147,0.105-0.321,0.164-0.48l0.003-0.01c0.011-0.03,0.035-0.051,0.062-0.061c0.243-0.08,0.493-0.143,0.731-0.235
				c0.226-0.118,0.476-0.197,0.683-0.348l0.319-0.212c0.111-0.065,0.192-0.167,0.29-0.249c0.089-0.091,0.199-0.163,0.27-0.269
				l0.23-0.304c0.087-0.095,0.117-0.224,0.179-0.333c0.055-0.114,0.117-0.226,0.13-0.353c0.023-0.124,0.057-0.246,0.072-0.37
				l-0.022-0.376c0.008-0.128-0.059-0.237-0.09-0.368c-0.037-0.126-0.113-0.221-0.167-0.334c-0.138-0.211-0.316-0.394-0.512-0.558
				c-0.025-0.021-0.029-0.06-0.007-0.085l0.017-0.014l0.493-0.29c0.164-0.098,0.307-0.226,0.461-0.338
				c0.16-0.106,0.279-0.259,0.42-0.387c0.145-0.125,0.246-0.289,0.365-0.437c0.127-0.144,0.201-0.322,0.295-0.486
				c0.106-0.161,0.136-0.353,0.204-0.53c0.066-0.179,0.058-0.374,0.091-0.56C87.519,30.795,87.485,30.608,87.474,30.419z
				 M87.546,30.401c0.015,0.194,0.051,0.392,0.046,0.586c-0.031,0.192-0.022,0.394-0.088,0.579
				c-0.068,0.182-0.099,0.381-0.205,0.547c-0.095,0.17-0.17,0.354-0.298,0.502c-0.12,0.153-0.224,0.321-0.37,0.451
				c-0.143,0.132-0.264,0.29-0.426,0.4c-0.156,0.115-0.302,0.247-0.467,0.349l-0.5,0.301l0.009-0.099
				c0.206,0.17,0.395,0.359,0.544,0.584c0.061,0.12,0.147,0.237,0.184,0.362c0.029,0.122,0.103,0.249,0.098,0.387l0.028,0.404
				c-0.014,0.133-0.049,0.264-0.073,0.396c-0.015,0.136-0.078,0.255-0.135,0.377c-0.064,0.117-0.097,0.253-0.187,0.354l-0.239,0.322
				c-0.074,0.112-0.187,0.188-0.279,0.284c-0.101,0.086-0.186,0.193-0.3,0.262l-0.329,0.223c-0.215,0.158-0.471,0.242-0.704,0.367
				c-0.246,0.098-0.503,0.166-0.754,0.25l0.066-0.07c-0.059,0.174-0.078,0.366-0.172,0.525c-0.079,0.167-0.164,0.331-0.282,0.471
				c-0.102,0.154-0.231,0.282-0.363,0.408c-0.123,0.137-0.28,0.232-0.423,0.344c-0.298,0.208-0.623,0.373-0.968,0.501
				c-0.169,0.078-0.341,0.102-0.512,0.156c-0.166,0.057-0.364,0.069-0.537,0.096l0.015-0.21l0.398,0.138
				c0.128,0.057,0.251,0.129,0.377,0.194c0.12,0.075,0.228,0.17,0.342,0.255c0.103,0.099,0.192,0.213,0.289,0.32l-0.118-0.046
				c0.232-0.075,0.485-0.08,0.727-0.123c0.244-0.048,0.492-0.037,0.739-0.036c0.249-0.011,0.495,0.012,0.739,0.059
				c0.248,0.028,0.491,0.077,0.726,0.166c0.242,0.065,0.474,0.155,0.691,0.286c0.231,0.102,0.434,0.251,0.625,0.42
				c0.213,0.142,0.35,0.366,0.51,0.564c0.157,0.202,0.218,0.464,0.328,0.694l-0.072-0.09l0.455,0.28
				c0.159,0.083,0.287,0.21,0.419,0.333c0.127,0.128,0.278,0.227,0.372,0.395c0.103,0.154,0.215,0.309,0.306,0.467l0.173,0.486
				c0.081,0.196,0.051,0.367,0.08,0.552c0.031,0.183-0.001,0.362-0.032,0.542c-0.025,0.181-0.051,0.361-0.131,0.525
				c-0.072,0.165-0.116,0.346-0.214,0.496l-0.288,0.455c-0.104,0.145-0.233,0.27-0.35,0.405c-0.113,0.14-0.245,0.258-0.386,0.367
				c-0.264,0.241-0.56,0.435-0.867,0.612c-0.296,0.195-0.636,0.305-0.953,0.461l0.036-0.318c0.175,0.124,0.338,0.264,0.476,0.437
				c0.067,0.091,0.124,0.199,0.181,0.3c0.041,0.097,0.064,0.187,0.098,0.281c0.028,0.144,0.022,0.231,0.033,0.35
				c0.018,0.113-0.017,0.219-0.037,0.328c-0.026,0.224-0.146,0.409-0.239,0.604c-0.132,0.166-0.246,0.353-0.412,0.482
				c-0.149,0.151-0.32,0.27-0.499,0.378c-0.353,0.225-0.749,0.357-1.148,0.459l0.128-0.315c0.126,0.201,0.229,0.404,0.276,0.585
				l0.024,0.07c0.016,0.073,0.009,0.068,0.014,0.105l0.014,0.166c0,0.11,0.034,0.224,0.004,0.331L83.7,54.561
				c-0.01,0.113-0.074,0.204-0.109,0.307c-0.072,0.209-0.196,0.384-0.32,0.559c-0.251,0.348-0.58,0.617-0.923,0.857L81.8,56.585
				l-0.581,0.226l0.038-0.429c0.277,0.178,0.575,0.326,0.806,0.577c0.125,0.112,0.249,0.223,0.342,0.384
				c0.09,0.147,0.223,0.303,0.267,0.448l0.156,0.437c0.037,0.231,0.036,0.359,0.053,0.545c0.023,0.172-0.04,0.338-0.058,0.508
				c-0.017,0.173-0.081,0.329-0.149,0.484c-0.107,0.327-0.318,0.587-0.502,0.865c-0.229,0.234-0.438,0.497-0.71,0.68
				c-0.25,0.215-0.532,0.375-0.817,0.532c-0.28,0.166-0.594,0.257-0.89,0.388l-0.076-0.538l0.497,0.045
				c0.167,0.007,0.328,0.062,0.492,0.091c0.326,0.071,0.65,0.181,0.951,0.341c0.15,0.081,0.307,0.151,0.441,0.265
				c0.137,0.107,0.285,0.198,0.398,0.338c0.119,0.132,0.247,0.247,0.338,0.424c0.101,0.165,0.201,0.336,0.233,0.479l0.075,0.224
				c0.041,0.142,0.029,0.194,0.046,0.296c0.031,0.181,0.018,0.36-0.003,0.54c-0.004,0.184-0.078,0.348-0.12,0.522
				c-0.054,0.169-0.143,0.321-0.215,0.481c-0.179,0.3-0.392,0.571-0.634,0.812c-0.246,0.236-0.515,0.439-0.796,0.625l0.143-0.349
				c0.076,0.165,0.047,0.364,0.072,0.545l0.015,0.279l-0.054,0.27c-0.047,0.175-0.053,0.371-0.141,0.528l-0.234,0.488
				c-0.087,0.156-0.208,0.286-0.312,0.43c-0.104,0.146-0.218,0.279-0.354,0.389l-0.389,0.352c-0.14,0.101-0.289,0.191-0.433,0.286
				c-0.277,0.206-0.616,0.33-0.937,0.477c-0.325,0.146-0.626,0.195-0.941,0.297c-0.208,0.054-0.352,0.053-0.531,0.081l-0.513,0.063
				c-0.343,0.008-0.688-0.02-1.032-0.031l0.405-0.428c0.007,0.125,0.026,0.256,0.007,0.378c-0.027,0.119-0.04,0.251-0.097,0.353
				c-0.092,0.221-0.23,0.409-0.389,0.557c-0.315,0.305-0.701,0.493-1.099,0.599l0.282-0.359c-0.034,0.2-0.026,0.419-0.112,0.601
				c-0.063,0.193-0.144,0.374-0.258,0.532c-0.095,0.174-0.229,0.307-0.357,0.448c-0.122,0.148-0.283,0.245-0.424,0.367
				c-0.3,0.215-0.628,0.385-0.991,0.52c-0.174,0.068-0.325,0.094-0.488,0.144c-0.202,0.061-0.366,0.059-0.551,0.091
				c-0.179,0.033-0.362,0.027-0.544,0.023c-0.183,0.004-0.365-0.009-0.547-0.047c-0.363-0.051-0.728-0.161-1.061-0.35
				c-0.172-0.084-0.333-0.19-0.478-0.332c-0.154-0.111-0.289-0.294-0.41-0.487c-0.149-0.205-0.138-0.327-0.215-0.494
				c-0.065-0.279-0.039-0.433-0.053-0.656l0.371,0.405l-0.538-0.024c-0.179-0.01-0.357-0.049-0.536-0.073
				c-0.354-0.067-0.708-0.162-1.045-0.311c-0.173-0.06-0.332-0.162-0.494-0.251c-0.167-0.082-0.309-0.213-0.459-0.326
				c-0.155-0.107-0.27-0.271-0.404-0.406c-0.124-0.147-0.216-0.324-0.322-0.486l0.348,0.201l-0.702-0.006
				c-0.234-0.001-0.466-0.054-0.7-0.08c-0.235-0.019-0.46-0.104-0.689-0.162c-0.232-0.05-0.448-0.158-0.667-0.255
				c-0.107-0.054-0.224-0.085-0.322-0.16l-0.305-0.2c-0.213-0.118-0.379-0.308-0.56-0.476c-0.192-0.157-0.301-0.398-0.451-0.597
				c-0.08-0.098-0.104-0.23-0.157-0.344l-0.135-0.356l0.543,0.221c-0.256,0.121-0.54,0.295-0.78,0.357l-0.368,0.11l-0.092,0.027
				c-0.092,0.026-0.085,0.016-0.133,0.025l-0.208,0.03c-0.276,0.049-0.561,0.04-0.841,0.025c-0.283-0.02-0.56-0.082-0.835-0.162
				l0.276-0.021l-0.643,0.274c-0.219,0.105-0.417,0.132-0.626,0.199l-0.31,0.086c-0.152,0.042-0.235,0.038-0.356,0.059l-0.674,0.088
				c-0.454-0.012-0.911,0.028-1.361-0.075c-0.225-0.045-0.455-0.055-0.671-0.145c-0.218-0.076-0.441-0.14-0.654-0.23l-0.616-0.341
				c-0.193-0.134-0.367-0.305-0.549-0.458c-0.18-0.157-0.314-0.407-0.462-0.613c-0.156-0.22-0.168-0.409-0.259-0.615
				c-0.12-0.281-0.071-0.504-0.107-0.76c-0.007-0.247,0.069-0.485,0.105-0.727c0.076-0.229,0.18-0.446,0.271-0.667l0.391-0.588
				l0.186,0.566l-0.556-0.213c-0.173-0.109-0.344-0.221-0.51-0.349c-0.079-0.087-0.156-0.179-0.229-0.272
				c-0.065-0.091-0.163-0.198-0.177-0.272l-0.096-0.243l-0.024-0.061l-0.012-0.03l-0.006-0.015c-0.037-0.122-0.011-0.045-0.02-0.078
				l-0.013-0.159l0.442,0.305l-0.346,0.097c-0.043,0.012-0.134,0.041-0.196,0.045l-0.191,0.027c-0.254,0.041-0.51,0.071-0.769,0.06
				c-0.259,0.013-0.516-0.021-0.773-0.06c-0.259-0.023-0.506-0.125-0.759-0.187l0.471-0.299c-0.056,0.33-0.106,0.662-0.171,0.99
				c-0.1,0.318-0.191,0.64-0.301,0.954c-0.137,0.302-0.268,0.608-0.412,0.906l-0.505,0.853l-0.229-0.541l0.467,0.138
				c0.156,0.044,0.297,0.155,0.444,0.234c0.146,0.061,0.286,0.252,0.413,0.395c0.156,0.168,0.146,0.275,0.219,0.412l0.041,0.097
				l0.02,0.067l0,0.004l0.001,0.009l0.001,0.017l0.003,0.035l0.005,0.069c0.006,0.093,0.013,0.187,0.012,0.278
				c-0.041,0.174-0.054,0.368-0.144,0.517c-0.133,0.332-0.375,0.571-0.619,0.784c-0.25,0.203-0.535,0.355-0.851,0.478
				c-0.145,0.051-0.273,0.08-0.411,0.121c-0.191,0.043-0.322,0.043-0.487,0.064c-0.156,0.026-0.314,0.022-0.474,0
				c-0.158-0.024-0.319-0.009-0.474-0.071c-0.155-0.052-0.313-0.09-0.463-0.158l-0.432-0.264l0.435,0.003l-0.841,0.584
				c-0.287,0.183-0.546,0.414-0.856,0.556c-0.612,0.3-1.179,0.681-1.829,0.912l-0.96,0.374c-0.32,0.138-0.641,0.235-0.963,0.31
				l-0.966,0.255c-0.17,0.042-0.301,0.086-0.504,0.126l-0.504,0.07l-1.009,0.139c-0.337,0.033-0.67,0.124-1.012,0.104
				c-0.68,0-1.361,0.016-2.04,0l-2.026-0.268L28.661,72.8l0.184,0.014c-0.702,0.125-1.411,0.229-2.126,0.236
				c-0.357,0.015-0.715,0.002-1.072-0.024c-0.358-0.008-0.711-0.082-1.067-0.121c-1.406-0.255-2.8-0.773-3.929-1.714
				c-0.271-0.244-0.549-0.487-0.769-0.784c-0.243-0.279-0.427-0.599-0.605-0.928l-0.227-0.528l-0.141-0.502
				c-0.078-0.388-0.134-0.74-0.116-1.116c-0.01-0.371,0.06-0.738,0.139-1.095c0.085-0.359,0.214-0.701,0.364-1.034
				c0.166-0.323,0.331-0.65,0.547-0.939c0.195-0.306,0.441-0.57,0.671-0.847l0.215,0.464l-0.908-0.019
				c-0.302-0.007-0.602-0.074-0.902-0.109c-0.303-0.025-0.592-0.136-0.887-0.207c-0.299-0.063-0.576-0.199-0.858-0.315
				c-0.139-0.064-0.288-0.106-0.415-0.195l-0.394-0.24c-0.274-0.142-0.494-0.369-0.731-0.567c-0.251-0.185-0.406-0.472-0.611-0.705
				c-0.108-0.114-0.153-0.272-0.231-0.408l-0.208-0.423l0.336,0.14c-0.6,0.214-1.194,0.499-1.798,0.651
				c-0.595,0.147-1.214,0.344-1.847,0.422c-0.312,0.06-0.627,0.093-0.944,0.117c-0.315,0.035-0.632,0.057-0.95,0.055
				c-0.634,0.022-1.271-0.01-1.9-0.09c-0.63-0.073-1.258-0.194-1.867-0.378c-0.613-0.168-1.209-0.405-1.776-0.699
				c-0.574-0.281-1.1-0.653-1.598-1.058c-0.467-0.439-0.922-0.905-1.243-1.469c-0.359-0.55-0.566-1.175-0.708-1.794
				c-0.1-0.637-0.137-1.292-0.012-1.928c0.104-0.636,0.317-1.25,0.613-1.817c0.285-0.574,0.658-1.098,1.071-1.581
				c0.411-0.487,0.883-0.914,1.371-1.318c0.502-0.387,1.028-0.74,1.579-1.051c0.555-0.305,1.128-0.572,1.715-0.803
				c0.591-0.225,1.195-0.406,1.807-0.563l-0.05,0.269l-0.783-0.645c-0.248-0.229-0.449-0.507-0.675-0.758
				c-0.225-0.253-0.356-0.586-0.536-0.877c-0.193-0.295-0.226-0.625-0.346-0.936c-0.121-0.302-0.142-0.687-0.177-1.007
				c-0.01-0.34-0.007-0.68,0.049-1.016c0.041-0.335,0.13-0.666,0.234-0.986c0.105-0.322,0.238-0.632,0.397-0.93
				c0.629-1.193,1.58-2.191,2.661-2.97c0.543-0.389,1.115-0.739,1.713-1.034c0.595-0.304,1.22-0.542,1.852-0.758l-0.038,0.02
				l0.482-0.329c0.164-0.105,0.316-0.229,0.489-0.318c0.348-0.173,0.681-0.376,1.041-0.525c0.366-0.133,0.727-0.301,1.097-0.405
				c0.375-0.094,0.73-0.208,1.123-0.287l-0.098,0.2c-0.079-0.197-0.187-0.397-0.238-0.594l-0.083-0.295
				c-0.04-0.115-0.027-0.214-0.042-0.322l-0.051-0.635c-0.016-0.212,0.052-0.419,0.076-0.629c0.044-0.206,0.042-0.427,0.14-0.617
				l0.234-0.588c0.063-0.205,0.199-0.369,0.307-0.549l0.341-0.53l0.006,0.201c-0.169-0.212-0.342-0.422-0.472-0.663
				c-0.14-0.225-0.256-0.506-0.332-0.751c-0.033-0.132-0.076-0.236-0.102-0.392l-0.054-0.407c-0.021-0.136-0.002-0.273-0.005-0.41
				c-0.003-0.137,0.007-0.273,0.036-0.407c0.03-0.273,0.108-0.534,0.192-0.793c0.037-0.131,0.104-0.25,0.156-0.375
				c0.054-0.125,0.109-0.249,0.183-0.362c0.251-0.482,0.611-0.889,0.973-1.284l-0.016,0.237c-0.154-0.256-0.329-0.514-0.458-0.776
				l-0.135-0.399c-0.039-0.147-0.104-0.234-0.121-0.431l-0.052-0.441c-0.02-0.147,0.008-0.295,0.01-0.443
				c-0.004-0.299,0.093-0.582,0.15-0.871c0.111-0.27,0.187-0.561,0.343-0.808c0.135-0.261,0.289-0.508,0.473-0.735
				c0.163-0.243,0.376-0.441,0.571-0.655c0.202-0.208,0.433-0.383,0.649-0.575l0.029,0.344c-0.215-0.146-0.451-0.262-0.646-0.438
				c-0.189-0.186-0.398-0.341-0.539-0.595c-0.072-0.116-0.165-0.235-0.215-0.352l-0.123-0.349c-0.117-0.274-0.067-0.539-0.103-0.809
				c0.02-0.265,0.091-0.528,0.154-0.785c0.12-0.233,0.212-0.488,0.36-0.702c0.165-0.201,0.304-0.429,0.493-0.604
				c0.195-0.168,0.375-0.359,0.585-0.506l0.65-0.415l0.714-0.319c0.238-0.096,0.474-0.143,0.711-0.216
				c0.226-0.081,0.522-0.107,0.759-0.14c0.253-0.035,0.507-0.075,0.764-0.054c0.255,0.015,0.515-0.011,0.768,0.041
				c0.253,0.049,0.509,0.083,0.759,0.146l0.732,0.266l-0.349,0.265c-0.014-0.204-0.042-0.409-0.041-0.612
				c0.026-0.201,0.026-0.41,0.078-0.605c0.062-0.192,0.091-0.399,0.184-0.578c0.09-0.179,0.152-0.375,0.271-0.537
				c0.204-0.344,0.457-0.652,0.733-0.934c0.145-0.132,0.282-0.276,0.436-0.398l0.469-0.354l-0.11,0.163l0.241-0.763l0.373-0.7
				c0.149-0.216,0.316-0.418,0.474-0.627c0.164-0.205,0.368-0.369,0.551-0.555c0.178-0.193,0.402-0.327,0.608-0.484
				c0.205-0.161,0.421-0.303,0.653-0.418c0.23-0.118,0.443-0.266,0.689-0.358l0.73-0.292c0.243-0.088,0.482-0.137,0.724-0.207
				l0.361-0.098l0.399-0.056l0.767-0.101c0.254-0.052,0.515-0.011,0.773-0.016C34.67,4.194,34.93,4.19,35.188,4.21l0.767,0.138
				c0.258,0.035,0.51,0.097,0.752,0.2l0.737,0.268l-0.215-0.016l0.919-0.285l0.115-0.036c0.089-0.027,0.096-0.019,0.148-0.03
				l0.25-0.038c0.167-0.021,0.331-0.06,0.5-0.065c0.337-0.012,0.673-0.036,1.011,0.006c0.338,0.01,0.669,0.097,1.002,0.16
				L40.961,4.53l1.197-0.416L41.98,4.227c0.241-0.262,0.452-0.556,0.719-0.79c0.255-0.248,0.517-0.489,0.803-0.697
				c0.272-0.229,0.573-0.415,0.871-0.606c0.292-0.202,0.617-0.343,0.924-0.516c0.316-0.157,0.645-0.284,0.967-0.427
				c0.336-0.113,0.677-0.236,1.014-0.334c0.341-0.078,0.647-0.168,1.016-0.235l1.044-0.15c0.347-0.059,0.703-0.036,1.053-0.057
				c0.352-0.024,0.704-0.009,1.055,0.031c0.351,0.037,0.705,0.038,1.049,0.127c0.345,0.079,0.697,0.124,1.034,0.232l1.004,0.348
				l0.954,0.48l0.877,0.619c0.262,0.246,0.511,0.509,0.765,0.763L56.838,2.92l0.225-0.054L56.955,2.92l1.178-0.809l1.261-0.664
				c0.434-0.195,0.89-0.351,1.334-0.527c0.446-0.177,0.899-0.25,1.349-0.38c0.439-0.134,0.945-0.197,1.397-0.274
				c0.47-0.05,0.941-0.11,1.414-0.117c0.473-0.019,0.946-0.013,1.419,0.025c0.473,0.025,0.943,0.097,1.409,0.177
				c1.85,0.352,3.69,1.131,5.013,2.544c0.318,0.361,0.608,0.745,0.842,1.168c0.23,0.429,0.416,0.896,0.517,1.338
				c0.124,0.479,0.157,0.956,0.145,1.439c-0.02,0.481-0.112,0.954-0.239,1.416L74,8.186l0.01,0.801L73.831,9.77L73.64,9.556
				c0.217-0.054,0.438-0.136,0.669-0.162c0.229-0.035,0.455-0.082,0.687-0.095c0.459-0.046,0.923-0.063,1.384-0.031
				c0.92,0.058,1.845,0.246,2.681,0.654c0.837,0.394,1.599,1.005,2.053,1.833c0.104,0.206,0.216,0.433,0.271,0.65
				c0.07,0.212,0.114,0.456,0.133,0.686c0.009,0.232,0.02,0.47-0.022,0.699c-0.022,0.233-0.09,0.457-0.148,0.681l-0.012-0.078
				c0.116,0.185,0.21,0.372,0.257,0.561c0.02,0.043,0.027,0.117,0.027,0.16l0.01,0.157c0.008,0.104,0.018,0.208-0.012,0.31
				l-0.059,0.306l-0.123,0.283c-0.069,0.196-0.216,0.346-0.321,0.521l-0.009-0.106c0.189,0.179,0.359,0.374,0.498,0.597
				c0.057,0.119,0.129,0.237,0.172,0.357c0.032,0.126,0.083,0.23,0.099,0.374c0.009,0.13,0.037,0.26,0.029,0.39
				c-0.015,0.129-0.016,0.262-0.043,0.388c-0.055,0.256-0.148,0.497-0.26,0.73l-0.033-0.096l0.505,0.289
				c0.177,0.084,0.324,0.211,0.467,0.344c0.137,0.139,0.313,0.236,0.417,0.409l0.338,0.487c0.085,0.172,0.133,0.358,0.202,0.536
				c0.025,0.084,0.079,0.186,0.082,0.284l0.038,0.291c-0.002,0.195,0.008,0.392-0.032,0.583c-0.019,0.195-0.085,0.379-0.136,0.567
				l-0.037-0.076c0.397,0.146,0.788,0.313,1.149,0.537c0.175,0.12,0.362,0.223,0.518,0.369c0.168,0.13,0.323,0.276,0.46,0.44
				c0.154,0.148,0.259,0.336,0.382,0.509c0.065,0.085,0.098,0.191,0.148,0.285c0.042,0.098,0.102,0.192,0.127,0.293
				c0.052,0.2,0.136,0.402,0.147,0.618c0.038,0.211,0.023,0.424,0.022,0.637l-0.005-0.024c0.07,0.176,0.171,0.346,0.209,0.528
				c0.064,0.175,0.091,0.369,0.093,0.558c0,0.188,0.054,0.38,0.002,0.565l-0.092,0.559l-0.014-0.042l0.338,0.316
				c0.099,0.119,0.192,0.242,0.289,0.363c0.078,0.135,0.149,0.274,0.223,0.411L87.546,30.401z"/>
		</g>
	</g>
</g>
</svg>
