<?xml version="1.0" encoding="utf-8"?>
<!-- Generator: Adobe Illustrator 16.0.4, SVG Export Plug-In . SVG Version: 6.00 Build 0)  -->
<!DOCTYPE svg PUBLIC "-//W3C//DTD SVG 1.1//EN" "http://www.w3.org/Graphics/SVG/1.1/DTD/svg11.dtd">
<svg version="1.1" id="Layer_1" xmlns="http://www.w3.org/2000/svg" xmlns:xlink="http://www.w3.org/1999/xlink" x="0px" y="0px"
	 width="116.857px" height="99.732px" viewBox="0 0 116.857 99.732" enable-background="new 0 0 116.857 99.732"
	 xml:space="preserve">
<g>
	<g id="body">
		<path fill="#0E1514" d="M116.764,48.825c-1.818-29.754-19.183-57.531-65.669-26.58c-35.657-6.002-53.667,21.42-37.299,54.097
			c15.678,31.301,40.086,22.48,46.852,20.261C93.611,109.856,118.584,78.57,116.764,48.825z M59.407,94.115
			c-6.178,2.028-30.011,8.734-44.396-21.372C0.624,42.644,28.035,17.51,52.925,25.017c39.097-30.06,58.466-2.604,59.261,24.602
			C112.898,74.101,89.504,106.221,59.407,94.115z"/>
		<path fill="#E81D28" d="M115.442,49.152c0.747,25.688-23.799,58.48-55.379,45.78c-6.48,2.128-31.489,10.073-46.583-21.517
			C-1.617,41.834,27.145,15.461,53.261,23.339C94.284-8.201,114.608,20.605,115.442,49.152z"/>
		<path fill="#0E1514" d="M54.783,35.444c-0.602-1.043-5.69-9.432-5.804-18.619c-0.037-3.637,2.44-10.704,2.44-10.704
			s3.226-2.501,6.2-0.229c2.97,2.271,2.596,2.888,1.587,4.212c-1.016,1.322-2.31,6.356-2.678,10.265
			c-0.375,3.909,1.362,13.494,1.362,13.494L54.783,35.444z"/>
		<path fill="#AA522E" d="M55.454,33.779c-0.449-0.937-4.555-8.497-4.864-16.657c-0.122-3.229,1.444-8.589,1.444-8.589
			s1.554-2.176,3.745-0.141c1.3,1.205,1.123,1.37,0.448,2.519c-0.676,1.146-1.951,5.79-2.11,9.249
			c-0.16,3.451,2.567,13.063,2.567,13.063L55.454,33.779z"/>
		<path fill="#0E1514" d="M56.434,32.176c-3.917,1.502-8.107,2.546-11.787,1.276c3.413,2.778,7.437,4.909,11.839,3.225
			c4.402-1.689,8.043-6.767,8.729-11.116C63.324,28.964,60.35,30.67,56.434,32.176z"/>
		
			<ellipse transform="matrix(0.2737 -0.9618 0.9618 0.2737 -26.4672 61.3274)" fill="#E9826B" cx="27.374" cy="48.189" rx="13.599" ry="9.203"/>
	</g>
	<g id="frame3" display="none">
		<path display="inline" fill="#0E1514" d="M11.404,0.181c0,0,18.549-2.11,30.604,8.092c12.051,10.207,11.082,28.11,11.082,28.11
			S32.73,31.895,20.676,21.696C8.622,11.49,11.404,0.181,11.404,0.181z"/>
		<path display="inline" fill="#20A94A" d="M14.79,2.699c0,0,15.812-1.79,26.085,6.902c10.283,8.703,11.126,24.596,11.126,24.596
			S34.985,31.063,24.708,22.36C14.435,13.662,14.79,2.699,14.79,2.699z"/>
	</g>
	<g id="frame2">
		<g>
			<path fill="#0E1514" d="M5.087,9.168c0,0,17.757-5.762,31.602,1.834c13.844,7.604,16.459,25.342,16.459,25.342
				S32.303,36,18.46,28.406C4.614,20.805,5.087,9.168,5.087,9.168z"/>
			<path fill="#20A94A" d="M8.907,10.961c0,0,15.138-4.902,26.937,1.57c11.811,6.479,15.802,21.887,15.802,21.887
				s-17.3,0.317-29.104-6.164C10.743,21.776,8.907,10.961,8.907,10.961z"/>
		</g>
	</g>
	<g id="frame1" display="none">
		<path display="inline" fill="#0E1514" d="M0,20.117c0,0,15.98-9.647,31.19-5.396C46.4,18.979,52.979,35.658,52.979,35.658
			s-20.378,4.402-35.585,0.154C2.184,31.557,0,20.117,0,20.117z"/>
		<path display="inline" fill="#20A94A" d="M4.127,20.996c0,0,13.628-8.215,26.589-4.594c12.975,3.626,20.363,17.722,20.363,17.722
			s-16.774,4.241-29.743,0.612C8.373,31.109,4.127,20.996,4.127,20.996z"/>
	</g>
</g>
</svg>
