<?xml version="1.0" encoding="utf-8"?>
<!-- Generator: Adobe Illustrator 16.0.4, SVG Export Plug-In . SVG Version: 6.00 Build 0)  -->
<!DOCTYPE svg PUBLIC "-//W3C//DTD SVG 1.1//EN" "http://www.w3.org/Graphics/SVG/1.1/DTD/svg11.dtd">
<svg version="1.1" id="Layer_1" xmlns="http://www.w3.org/2000/svg" xmlns:xlink="http://www.w3.org/1999/xlink" x="0px" y="0px"
	 width="445.676px" height="216.176px" viewBox="0 0 445.676 216.176" enable-background="new 0 0 445.676 216.176"
	 xml:space="preserve">
<g id="back">
	<path fill="#FFFFFF" stroke="#231F20" stroke-width="3" stroke-miterlimit="10" d="M442.82,22.468
		c8.301,8.678-6.607,109.731-224,64.246c-119.198-24.94-217-52.237-217-64.246c0-12.009,101.663-23.742,223.393-20.27
		c51.895,1.48,89.114,9.744,122.999,12C404.75,17.96,428.572,7.576,442.82,22.468z"/>
	<g>
		<path fill="#FFFFFF" d="M442.82,22.468c8.301,8.678-6.607,109.731-224,64.246c-119.198-24.94-217-52.237-217-64.246
			c0-12.009,101.663-23.742,223.393-20.27c51.895,1.48,89.114,9.744,122.999,12C404.75,17.96,428.572,7.576,442.82,22.468z"/>
		<path fill="#231F20" d="M442.936,22.371c0,0,0.164,0.151,0.432,0.559c0.248,0.396,0.555,1.025,0.782,1.898
			c0.479,1.741,0.718,4.435,0.325,7.877c-0.381,3.438-1.364,7.633-3.289,12.267c-1.911,4.632-4.779,9.694-8.809,14.744
			c-8.01,10.123-20.848,19.941-37.508,26.771c-16.631,6.917-36.771,11.052-58.834,12.507c-5.521,0.384-11.166,0.576-16.92,0.596
			c-5.752,0.033-11.613-0.084-17.566-0.354c-11.904-0.546-24.193-1.585-36.744-3.259c-12.551-1.672-25.375-3.84-38.399-6.439
			c-6.52-1.295-13.067-2.713-19.675-4.18c-6.604-1.481-13.272-2.977-19.996-4.483c-26.876-6.116-54.55-12.852-82.567-20.095
			c-7.001-1.822-14.013-3.719-21.041-5.635c-7.031-1.906-14.069-3.872-21.098-5.929c-7.029-2.057-14.048-4.198-21.03-6.486
			s-13.95-4.663-20.792-7.414c-3.42-1.379-6.811-2.845-10.109-4.548c-1.648-0.856-3.273-1.771-4.828-2.844
			c-0.776-0.54-1.533-1.123-2.245-1.794c-0.696-0.688-1.397-1.437-1.809-2.517c-0.2-0.529-0.275-1.206-0.142-1.794
			c0.139-0.644,0.435-1.135,0.768-1.567c0.68-0.847,1.486-1.442,2.302-1.965c1.644-1.032,3.374-1.772,5.116-2.44
			c3.492-1.314,7.059-2.291,10.636-3.165c14.333-3.399,28.847-5.286,43.242-6.906c28.814-3.146,57.308-4.558,84.875-5.312
			c27.578-0.747,54.235-0.545,79.522,0.276c12.621,0.419,24.959,1.27,36.797,2.396c11.854,1.117,23.26,2.625,34.188,4.088
			c10.932,1.476,21.382,2.957,31.33,4.195c9.949,1.238,19.418,2.077,28.35,2.549c17.854,0.939,33.469,0.469,46.316,0.066
			c6.429-0.198,12.186-0.29,17.188,0.031c4.991,0.329,9.235,1.145,12.465,2.434c3.233,1.27,5.432,2.853,6.783,4.015
			c0.702,0.557,1.157,1.062,1.489,1.373c0.325,0.317,0.489,0.479,0.489,0.479L442.936,22.371z M442.711,22.572
			c0,0-0.164-0.158-0.484-0.47c-0.329-0.304-0.784-0.8-1.48-1.343c-1.347-1.136-3.521-2.675-6.72-3.899
			c-3.188-1.244-7.394-2.018-12.354-2.303c-4.973-0.278-10.709-0.14-17.129,0.111c-6.422,0.226-13.533,0.654-21.287,0.849
			c-7.754,0.223-16.149,0.252-25.121-0.014c-8.967-0.265-18.51-0.911-28.52-1.942c-10.021-0.992-20.494-2.382-31.432-3.713
			c-21.867-2.655-45.562-5.252-70.761-6.022c-12.588-0.396-25.562-0.593-38.804-0.646c-13.245-0.028-26.778,0.001-40.537,0.299
			c-27.513,0.583-55.943,1.928-84.688,4.739C56.211,8.94,49.011,9.773,41.82,10.791c-7.189,1.015-14.386,2.176-21.48,3.782
			c-3.541,0.812-7.068,1.727-10.458,2.948c-1.686,0.616-3.354,1.312-4.832,2.213c-0.732,0.448-1.42,0.968-1.898,1.551
			c-0.483,0.603-0.621,1.125-0.4,1.779c0.229,0.655,0.78,1.32,1.381,1.916c0.617,0.596,1.311,1.146,2.034,1.663
			c1.455,1.032,3.025,1.944,4.626,2.801c3.208,1.707,6.551,3.202,9.928,4.612c13.544,5.594,27.587,9.995,41.592,14.19
			c7.012,2.086,14.035,4.082,21.053,6.019c7.021,1.922,14.05,3.738,21.056,5.528c28.017,7.184,55.812,13.355,82.75,19.09
			c13.468,2.857,26.75,5.575,39.725,8.184c12.986,2.537,25.77,4.645,38.261,6.257c12.489,1.618,24.687,2.847,36.517,3.447
			c11.828,0.634,23.281,0.625,34.246,0.097c21.912-1.073,41.943-4.828,58.537-11.419c8.293-3.272,15.692-7.244,22.008-11.688
			c6.322-4.436,11.479-9.406,15.502-14.381c4.021-4.988,6.9-9.993,8.822-14.577c1.936-4.585,2.938-8.739,3.332-12.14
			c0.401-3.403,0.182-6.062-0.271-7.753c-0.219-0.851-0.51-1.449-0.736-1.819c-0.227-0.355-0.396-0.523-0.396-0.523v0.004H442.711z"
			/>
	</g>
	<path fill="#F2F2F2" d="M195.777,4.722c0,0-46.501,64.486-28.499,136.491c18.002,72.01-105.204,74.963-105.204,74.963L6.342,41.343
		c0,0-10.063-22.123,55.942-28.123C128.29,7.218,195.777,4.722,195.777,4.722z"/>
</g>
</svg>
