<?xml version="1.0" encoding="utf-8"?>
<!-- Generator: Adobe Illustrator 16.0.4, SVG Export Plug-In . SVG Version: 6.00 Build 0)  -->
<!DOCTYPE svg PUBLIC "-//W3C//DTD SVG 1.1//EN" "http://www.w3.org/Graphics/SVG/1.1/DTD/svg11.dtd">
<svg version="1.1" id="Layer_2" xmlns="http://www.w3.org/2000/svg" xmlns:xlink="http://www.w3.org/1999/xlink" x="0px" y="0px"
	 width="340.974px" height="309.483px" viewBox="0 0 340.974 309.483" enable-background="new 0 0 340.974 309.483"
	 xml:space="preserve">
<path fill="#894518" stroke="#1D1D1B" stroke-width="6" stroke-miterlimit="10" d="M3.302,252.483c0,25,77.499,54,166.836,54
	c116.088,0,167.988-38.401,167.836-52.268l-1.796-66.71l-3.455-58.536c-1.478-11.429,5.251-98.485-94.716-118.443
	C150.421-6.96,46.637,3.595,25.638,68.092C9.278,118.338,5.818,203.419,3.32,238.564C2.611,248.532,3.302,252.483,3.302,252.483z"/>
<g>
	<path fill="#FF7DC1" d="M212.15,13.391c111.234,21.728,125.789,75.244,34.96,91.87c-72.663,13.3-158.067,0.113-190.754-29.456
		c-26.147-23.656-0.223-51.458,57.91-62.098c46.505-8.512,101.164-0.072,122.081,18.852c16.736,15.139,0.143,32.931-37.061,39.742
		c-29.764,5.448-64.746,0.046-78.134-12.064c-10.711-9.689-0.09-21.077,23.721-25.436c19.047-3.487,41.436-0.03,50.004,7.721
		c6.855,6.201,0.06,13.49-15.18,16.279c-12.191,2.231-26.52,0.02-32.003-4.942"/>
	<path fill="#894518" d="M212.238,12.95c0,0,0.898,0.144,2.639,0.423c1.743,0.292,4.329,0.719,7.692,1.345
		c3.365,0.617,7.498,1.476,12.337,2.597c4.84,1.121,10.378,2.546,16.508,4.439c6.125,1.9,12.875,4.196,20,7.346
		c7.108,3.16,14.697,7.019,22.05,12.586c3.643,2.814,7.228,6.081,10.302,10.15c1.524,2.04,2.912,4.291,3.988,6.794
		c1.074,2.498,1.82,5.268,1.998,8.175c0.193,2.902-0.241,5.91-1.214,8.712c-0.978,2.809-2.487,5.389-4.272,7.689
		c-3.6,4.611-8.218,8.167-13.125,11.145c-9.888,5.916-21.073,9.685-32.728,12.514c-2.918,0.707-5.873,1.344-8.858,1.929
		c-1.487,0.277-2.98,0.556-4.479,0.836c-1.51,0.259-3.025,0.519-4.546,0.78c-6.076,0.971-12.263,1.854-18.567,2.421
		c-6.299,0.606-12.699,1.033-19.183,1.288c-6.486,0.209-13.054,0.213-19.687,0.042c-13.263-0.382-26.786-1.59-40.387-3.754
		c-13.597-2.166-27.291-5.229-40.791-9.536c-13.458-4.344-26.88-9.837-38.918-18.075c-2.99-2.07-5.865-4.363-8.517-6.893
		c-2.679-2.583-5.118-5.447-6.922-8.807c-1.793-3.333-2.92-7.176-2.796-11.076c0.083-3.898,1.324-7.693,3.212-11.003
		c1.891-3.328,4.387-6.223,7.123-8.783c2.743-2.565,5.754-4.785,8.862-6.827c6.247-4.049,12.996-7.178,19.87-9.87
		c27.631-10.431,57.563-14.204,86.617-12.234c14.536,1.007,28.936,3.403,42.747,7.947c6.882,2.336,13.648,5.182,19.928,9.248
		c1.574,1,3.102,2.114,4.581,3.308c0.729,0.625,1.476,1.194,2.182,1.871c0.288,0.255,0.706,0.675,1.076,1.043
		c0.367,0.377,0.702,0.734,1.044,1.118c1.354,1.526,2.596,3.256,3.58,5.233c0.966,1.982,1.677,4.224,1.846,6.575
		c0.185,2.341-0.14,4.73-0.875,6.862c-0.718,2.149-1.794,4.049-3.004,5.731c-2.456,3.346-5.421,5.868-8.467,7.984
		c-3.055,2.118-6.249,3.804-9.474,5.253c-3.227,1.447-6.492,2.659-9.767,3.695c-6.551,2.067-13.136,3.519-19.662,4.517
		c-6.656,1.041-13.164,1.411-19.634,1.461c-6.457,0.004-12.822-0.364-19.058-1.178c-6.235-0.802-12.348-2.014-18.271-3.793
		c-5.902-1.826-11.66-4.138-16.929-7.696c-1.319-0.875-2.583-1.892-3.803-2.974c-0.438-0.391-0.507-0.468-0.887-0.844
		c-0.345-0.342-0.641-0.669-0.931-0.994c-0.582-0.67-1.136-1.394-1.64-2.188c-1.004-1.576-1.809-3.485-2.064-5.575
		c-0.274-2.085,0.079-4.248,0.815-6.053c0.733-1.822,1.786-3.325,2.912-4.596c1.135-1.266,2.355-2.325,3.608-3.235
		c2.508-1.825,5.113-3.148,7.711-4.253c5.209-2.173,10.419-3.456,15.505-4.35c10.263-1.77,20.117-1.562,29.192-0.178
		c4.54,0.713,8.9,1.751,13.009,3.255c2.054,0.753,4.037,1.646,5.926,2.709c1.886,1.074,3.681,2.293,5.265,3.897l0.251,0.256
		l0.317,0.361c0.211,0.244,0.423,0.489,0.59,0.735c0.359,0.483,0.689,1.012,0.963,1.589c0.556,1.142,0.876,2.508,0.788,3.849
		c-0.073,1.348-0.556,2.577-1.16,3.578c-0.612,1.006-1.349,1.826-2.115,2.519c-1.547,1.373-3.19,2.338-4.827,3.097
		c-1.637,0.764-3.266,1.341-4.862,1.811c-6.381,1.825-12.265,2.23-17.312,2.048c-5.051-0.188-9.302-0.937-12.651-1.898
		c-3.349-0.976-5.787-2.166-7.312-3.158c-0.77-0.486-1.307-0.932-1.663-1.229c-0.344-0.315-0.519-0.475-0.519-0.475l0.604-0.667
		c0,0,0.172,0.134,0.511,0.397c0.352,0.248,0.877,0.619,1.634,1.015c1.497,0.811,3.893,1.755,7.167,2.43
		c3.267,0.675,7.398,1.156,12.241,1.014c4.824-0.133,10.395-0.905,16.158-2.967c1.427-0.521,2.851-1.138,4.207-1.883
		c1.354-0.743,2.657-1.61,3.687-2.641c1.027-1.025,1.688-2.215,1.66-3.2c0.01-0.965-0.605-2.076-1.737-3.1
		c-2.398-2.161-5.894-3.735-9.587-4.917c-3.729-1.186-7.796-1.978-12.039-2.456c-8.486-0.921-17.745-0.684-27.046,1.222
		c-4.671,0.98-9.385,2.34-13.756,4.347c-2.171,1.008-4.259,2.188-6.024,3.575c-1.76,1.366-3.195,3-3.709,4.462
		c-0.263,0.729-0.331,1.366-0.226,2.017c0.103,0.649,0.39,1.36,0.899,2.114c0.253,0.375,0.557,0.756,0.902,1.133
		c0.182,0.191,0.361,0.379,0.518,0.526c0.118,0.117,0.557,0.525,0.653,0.591c0.906,0.755,1.86,1.499,2.925,2.164
		c4.219,2.713,9.35,4.693,14.708,6.192c5.371,1.523,11.044,2.588,16.865,3.253c5.821,0.683,11.798,0.948,17.843,0.864
		c6.029-0.113,12.196-0.609,18.227-1.5c6.156-0.926,12.292-2.276,18.266-4.149c5.951-1.874,11.788-4.34,16.777-7.652
		c2.475-1.653,4.699-3.575,6.277-5.672c1.579-2.11,2.377-4.289,2.235-6.385c-0.113-2.102-1.21-4.383-3.058-6.501
		c-0.225-0.261-0.476-0.534-0.704-0.777c-0.239-0.239-0.417-0.442-0.767-0.766c-0.527-0.527-1.153-1.007-1.724-1.517
		c-1.192-0.986-2.442-1.942-3.776-2.821c-5.295-3.579-11.434-6.332-17.79-8.612c-6.392-2.233-13.049-4.016-19.854-5.358
		c-6.799-1.369-13.732-2.376-20.738-3.015c-14.008-1.324-28.29-1.362-42.51-0.069c-7.081,0.673-14.208,1.731-21.232,3.158
		c-7.031,1.43-13.999,3.224-20.781,5.535c-6.779,2.305-13.376,5.173-19.471,8.82c-3.036,1.833-5.941,3.88-8.548,6.228
		c-2.608,2.336-4.953,4.958-6.708,7.903c-0.876,1.47-1.6,3.019-2.121,4.624c-0.513,1.608-0.79,3.276-0.846,4.947
		c-0.131,3.351,0.807,6.688,2.395,9.699c3.214,6.074,8.819,10.713,14.593,14.684c5.824,3.961,12.109,7.229,18.596,9.91
		c6.482,2.695,13.112,4.973,19.827,6.792c13.417,3.705,27.026,5.988,40.458,7.449c26.898,2.846,53.122,2.48,77.699,0.167
		c12.268-1.248,24.234-2.9,35.452-5.488c5.612-1.295,11.048-2.841,16.238-4.657c5.188-1.813,10.131-3.94,14.605-6.515
		c4.458-2.569,8.483-5.611,11.396-9.2c2.921-3.577,4.553-7.694,4.414-11.828c-0.107-4.146-1.903-8.207-4.381-11.734
		c-2.498-3.542-5.628-6.62-8.912-9.32c-6.585-5.431-13.728-9.495-20.49-12.839c-6.795-3.315-13.262-5.984-19.197-8.151
		c-11.886-4.312-21.524-6.961-28.1-8.705c-3.291-0.872-5.829-1.49-7.537-1.909c-1.715-0.409-2.6-0.62-2.6-0.62L212.238,12.95z"/>
</g>
<path opacity="0.3" fill="#643526" d="M333.688,173.983c-0.325,2.208,3.385,60.206,4.286,80.232
	c0.214,4.768-23.566,23.31-49.786,31.768c-114.701,37-239.203,8.971-271.188-16C60.471,297.621,312.949,268.504,333.688,173.983z"/>
</svg>
