<?xml version="1.0" encoding="utf-8"?>
<!-- Generator: Adobe Illustrator 16.0.4, SVG Export Plug-In . SVG Version: 6.00 Build 0)  -->
<!DOCTYPE svg PUBLIC "-//W3C//DTD SVG 1.1//EN" "http://www.w3.org/Graphics/SVG/1.1/DTD/svg11.dtd">
<svg version="1.1" id="Layer_1" xmlns="http://www.w3.org/2000/svg" xmlns:xlink="http://www.w3.org/1999/xlink" x="0px" y="0px"
	 width="250.585px" height="200.697px" viewBox="0.64 -0.197 250.585 200.697" enable-background="new 0.64 -0.197 250.585 200.697"
	 xml:space="preserve">
<g transform="translate(0,197) scale(1,-1)">
	<g id="Layer_1_1_">
		<path id="body" fill="#3BB34A" d="M44.091,139.494c3.849,4.189,12.671-6.489,12.671-6.489c0.404,0.342,0.951-1.147,1.361-0.807
			c15.784,13.06,35.434,23.539,61.963,31.333c0,0-1.446,30.531,26.073,30.372c21.799-0.126,25.951-18.361,25.951-18.361
			s3.608,17.725,27.456,12.456c19.239-4.251,23.839-28.201,13.569-37.369c0,0,24.012-13.63,34.104-32.301
			c0,0,1.071-4.984-4.916-6.07l0.613-7.993c0,0-11.88,0.208-13.44-4.19c-22.352-62.893-36.874-73.395-99.32-77.781l0.459-7.265
			c0,0,27.809-1.367,37.215,5.268c1.602,1.13,3.223,1.491,4.777,1.287c2.838-0.375,8.677,8.766,15.797,0.644
			c1.825-2.082,0.52-15.404,0.864-17.957c0.233-1.73-6.269,0.757-6.761-0.61c-0.307-0.85-0.772-1.592-1.408-2.178l-34.376-0.362
			c0,0-4.448-3.562-12.489-0.676L17.878,1.066c0,0-3.569,4.95-8.583,5.879C5.67,7.616-0.402,91.068,44.091,139.494z"/>
		<path id="eyesocket_right" fill="#FFFFFF" stroke="#010101" stroke-width="2" d="M211.936,151.671
			c0,0-29.579,12.907-38.791,12.608l-0.082,11.005c0,0,5.9,19.33,29.251,11.49C219.604,180.971,220.332,159.399,211.936,151.671
			L211.936,151.671z"/>
		<path id="eyesocket_left" fill="#FFFFFF" stroke="#010101" stroke-width="2" d="M165.549,149.664
			c10.007,10.297,9.775,26.757-0.521,36.766c-10.298,10.009-26.758,9.776-36.765-0.521c-10.011-10.297-9.778-26.757,0.521-36.766
			C139.078,139.133,155.539,139.367,165.549,149.664"/>
		<path id="eye_left" fill="#010101" d="M151.449,172.716c2.064-2.806,2.127-7.398,0.147-10.261
			c-1.985-2.862-5.268-2.909-7.331-0.104c-2.063,2.804-2.129,7.398-0.145,10.261C146.104,175.474,149.386,175.521,151.449,172.716z"
			/>
		<g id="eyelid_left">
			<path id="eyelid_left_open" fill="#3BB34A" stroke="#010101" d="M122.182,170.532c0,0,33.447,7.449,51.281-0.593
				c0,0-3.568,25.586-28.048,23.73C120.938,191.814,122.182,170.532,122.182,170.532z"/>
			<path id="eyelid_left_closed" display="none" fill="#3CB24A" stroke="#010101" d="M122.182,170.532
				c0,0,25.778-10.254,51.281-0.593c0,0-3.568,25.587-28.047,23.731C120.938,191.815,122.182,170.532,122.182,170.532z"/>
		</g>
		<path id="eye_right" fill="#010101" d="M191.392,173.549c2.062-2.807,2.129-7.4,0.146-10.263c-1.983-2.862-5.266-2.909-7.33-0.103
			c-2.062,2.804-2.128,7.397-0.146,10.261C186.045,176.307,189.327,176.354,191.392,173.549z"/>
		<path id="belly" fill="#FFFFFF" d="M129.511,22.105c0,0,77.16-1.987,97.517,66.976C227.027,89.081,128.401,88.517,129.511,22.105z
			"/>
		<g id="eyelid_right">
			<path id="eyelid_right_open" fill="#3BB34A" stroke="#010101" d="M173.508,172.068c0,0,26.759,4.657,44.592-3.384
				c0,0-1.261,21.688-25.74,19.833C167.882,186.662,173.508,172.068,173.508,172.068L173.508,172.068z"/>
			<path id="eyelid_right_closed" display="none" fill="#3CB24A" stroke="#010101" d="M172.902,168.155
				c0,0,22.727-3.408,45.195,0.53c0,0-1.259,21.687-25.738,19.832C167.883,186.661,172.902,168.155,172.902,168.155z"/>
		</g>
		<path id="leg" fill="#3BB34A" stroke="#010101" stroke-width="3" d="M56.881,133.507c0,0,33.697-34.728,11.818-114.046
			c0,0,14.496-7.462,28.385,0.402c1.737,0.983,5.351,4.279,8.632,2.074c0.747-0.502,1.485-0.941,2.207-1.329
			c2.607-1.405,4.944,6.402,6.979,5.959c7.524-1.642,13.262-18.312,1.503-25.1L18.256,0.946c0,0-4.711,5.169-8.584,5.879
			c0,0-3.412,8.511-3.235,25.151c0.361,34.101,10.1,82.703,38.525,109.044C44.963,141.021,51.082,140.385,56.881,133.507
			L56.881,133.507z"/>
		<path fill="#010101" d="M116.873,122.014c26.715-18.956,123.781-7.867,127.061-8.381l-0.462-2.963
			c-0.785,0.121-76.727-3.691-103.589-0.999C129.511,110.711,116.873,122.014,116.873,122.014z"/>
		<path fill="#0A2014" d="M227.316,128.265c-0.345-0.868-2.696-1.096-5.116-0.134c-2.418,0.961-4.1,2.444-3.755,3.313
			c0.344,0.868,2.586,0.795,5.003-0.167C225.867,130.317,227.661,129.134,227.316,128.265L227.316,128.265z"/>
		<path fill="#010101" d="M128.275,20.305c-0.056,0.536-1.166,12.048,6.051,26.441l-0.155-2.03
			c-5.177-12.195-2.928-23.969-2.912-24.093L128.275,20.305L128.275,20.305z"/>
		<path fill="none" stroke="#010101" stroke-width="3" d="M173.145,164.279c18.613-2.396,39.992-14.125,39.992-14.125 M9.672,6.825
			c5.013-0.93,8.584-5.879,8.584-5.879l162.325,0.265c0.761,0.727,1.311,1.59,1.679,2.545c0.344,0.886,6.987-0.489,7.03,0.514
			c0.243,5.315,5.19,20.479-9.875,21.964c-0.266,0.023-5.097-5.381-5.34-5.289c-2.161,0.808-4.507,0.67-6.76-0.92
			c-9.407-6.636-37.214-5.267-37.214-5.267l0.078,7.537c62.446,4.386,79.992,21.374,99.697,77.659
			c1.719,4.91,13.441,4.192,13.441,4.192l-0.614,7.992c5.987,1.085,4.916,6.071,4.916,6.071
			c-10.093,18.671-34.104,32.301-34.104,32.301c10.268,9.167,5.668,33.117-13.57,37.367c-23.846,5.27-27.458-12.454-27.458-12.454
			s-4.149,18.234-25.949,18.36c-27.519,0.159-26.073-30.373-26.073-30.373c-26.531-7.793-45.774-18.441-61.56-31.5
			c0,0-11.523,12.322-15.614,7.904C-1.592,91.334,6.037,7.497,9.672,6.825z M173.705,164.437c0.073,7.361-1.443,11.877-1.443,11.877
			 M181.316,3.206c0,0,1.314,14.488-10.081,17.91 M109.411,2.321c8.672,11.541-2.261,18.387-2.261,18.387"/>
		<path fill="#010101" d="M31.615,0.197l-0.721,1.865l0.361-0.934l-0.37,0.931c0.129,0.053,12.863,5.789,14.682,47.835l0.41-1.825
			C44.086,4.387,32.188,0.418,31.615,0.197L31.615,0.197z"/>
	</g>
</g>
</svg>
