<?xml version="1.0" encoding="utf-8"?>
<!-- Generator: Adobe Illustrator 16.0.4, SVG Export Plug-In . SVG Version: 6.00 Build 0)  -->
<!DOCTYPE svg PUBLIC "-//W3C//DTD SVG 1.1//EN" "http://www.w3.org/Graphics/SVG/1.1/DTD/svg11.dtd">
<svg version="1.1" id="Layer_1" xmlns="http://www.w3.org/2000/svg" xmlns:xlink="http://www.w3.org/1999/xlink" x="0px" y="0px"
	 width="120px" height="101px" viewBox="0 0 120 101" enable-background="new 0 0 120 101" xml:space="preserve">
<g transform="translate(0,101) scale(1,-1)">
	<g id="body">
		<path fill="#1D1D1B" d="M95.91,22.611c-7.317-6.766-12.693,7.367-13.489,15.238c1.843-7.625,7.399-13.113,10.584-13.361
			c3.185-0.247,3.062,0.308,4.466,1.15c1.5-4.406,3.022-8.875,4.575-13.394c-1.485,0.073-2.999,0.141-4.517,0.222
			C96.969,15.898,96.434,19.277,95.91,22.611L95.91,22.611z M72.555,0.044c-6.484,0.736-7.607,7.894-6.232,16.108
			c1.312,7.844,4.869,16.345,7.918,21.354c-5.113-11.309-5.252-25.736-2.588-30.597c2.664-4.859,3.107-4.054,5.255-4.966
			C75.463,1.324,74.021,0.686,72.555,0.044L72.555,0.044z M29.387,6.27c14.588,1.318,14.335,25.873,11.352,36.77
			c1.514-11.699-3.245-25.417-7.855-29.986c-4.61-4.564-5.051-3.939-7.95-4.833C26.419,7.571,27.903,6.921,29.387,6.27z M50.611,99
			c5.156-1.932,5.909-6.5,4.663-11.497c-1.288-5.168-4.779-11.026-7.957-14.704c5.296,8.155,5.864,18.078,3.797,21.757
			c-2.064,3.679-2.478,3.261-4.279,4.328C48.093,98.927,49.352,98.966,50.611,99z M98.913,73.241
			c-5.343,6.584-11.755-2.062-13.761-8.039c2.787,5.367,9.534,10.168,14.826,5.367c1.666,2.854,3.272,5.627,4.869,8.312
			c-1.238,0.317-2.477,0.642-3.716,0.975C100.41,77.699,99.665,75.497,98.913,73.241L98.913,73.241z M83.3,93.167
			c0.984-0.681,1.978-1.351,2.951-2.02c-1.729-0.039-1.833,0.614-4.716-1.689c-2.881-2.304-5.562-11.783-3.564-21.64
			c-1.576,4.731-2.766,11.765-2.221,17.239C76.275,90.363,78.41,94.179,83.3,93.167C84.284,92.486,78.41,94.179,83.3,93.167z"/>
		<path fill="#1D1D1B" d="M96.688,49.936c-1.345-21.746-22.969-35.682-43.361-33.019c-21.702,2.835-44.285,22.708-37.044,46.18
			C28.733,103.486,99.367,92.966,96.688,49.936C96.262,43.048,97.116,56.82,96.688,49.936z"/>
		<path fill="#1D1D1B" d="M41.293,78.637c-2.867,0.369-5.489-1.243-5.84-3.638c-0.339-2.426,1.803-4.679,4.756-4.996
			c2.902-0.307,5.43,1.412,5.689,3.77C46.158,76.127,44.104,78.278,41.293,78.637C38.426,79.006,44.104,78.278,41.293,78.637z"/>
		<path fill="#1D1D1B" d="M63.214,82.965c-4.247,0.631-8.025-1.83-8.336-5.611c-0.306-3.882,3.125-7.509,7.57-8.004
			c4.345-0.479,7.884,2.269,7.991,5.95C70.551,78.979,67.367,82.332,63.214,82.965C58.967,83.596,67.367,82.332,63.214,82.965z"/>
		<path fill="#1D1D1B" d="M36.338,50.271c-3.204,0.467-6.421-1.477-7.166-4.38c-0.771-2.964,1.345-5.726,4.628-6.109
			c3.26-0.385,6.368,1.713,7.009,4.574C41.448,47.217,39.444,49.812,36.338,50.271C33.134,50.738,39.444,49.812,36.338,50.271z"/>
		<path fill="#1D1D1B" d="M59.758,44.802c-4.805,0.688-9.567-2.598-10.499-7.45c-0.968-5.006,2.473-9.55,7.584-10.013
			c4.968-0.44,9.458,3.229,10.118,7.941C67.617,39.996,64.439,44.136,59.758,44.802C54.953,45.49,64.439,44.136,59.758,44.802z"/>
		<path fill="#C3C3C3" d="M94.777,63.521c-0.278,0.024-0.641,0.083-1.129,0.188c-1.955,0.419-5.114,4.357-4.889,6.853
			c0.108,1.176,0.379,1.973,0.779,2.555C91.777,70.204,93.545,66.963,94.777,63.521L94.777,63.521z M92.512,36.291
			c-1.85-3.585-4.253-7.014-7.095-9.645c-0.312,0.903-0.437,1.998-0.304,3.463c0.285,3.139,4.391,6.554,6.519,6.306
			C91.982,36.374,92.268,36.337,92.512,36.291C90.662,32.706,92.268,36.337,92.512,36.291z"/>
		<path fill="#1D1D1B" d="M95.055,62.71c-1.718,5.192-4.642,10.059-8.623,13.827C85.4,71.06,83.51,63.68,73.79,56.246
			c3.685-5.112,5.728-11.266,6.512-17.479c0.617-4.895-0.921-10.857,0.837-15.466C93.676,31.684,99.785,48.4,95.055,62.71
			C93.752,66.648,96.372,58.725,95.055,62.71z"/>
		<path fill="#1D1D1B" d="M90.674,50.943c-0.244-3.108,0.186-6.108,1.109-8.307c0.922-2.194,2.342-3.581,3.957-3.679
			c1.611-0.098,3.101,1.066,4.228,2.929c2.604,4.312,3.761,16.652-2.888,18.455c-1.496,0.405-2.988-0.372-4.13-2.015
			C91.773,56.633,90.92,54.053,90.674,50.943C90.43,47.835,90.92,54.053,90.674,50.943z"/>
		<path fill="#1D1D1B" d="M90.725,50.94c-0.252-3.292,0.479-6.779,2.24-9.586c2.642-3.67,6.678-1.446,7.713,2.352
			c1.444,3.873,1.914,15.5-4.144,16.202C92.629,60.371,90.935,53.542,90.725,50.94z M90.624,50.946
			c0.236,3.062,0.787,7.64,3.778,9.439c3.229,2.037,6.025-1.547,6.963-4.279c1.407-4.095,0.296-22.221-7.622-16.858
			C90.292,41.761,90.342,47.135,90.624,50.946z"/>
		<path fill="#FFFFFF" d="M92.645,41.032c0.844-1.261,1.869-2.003,3.094-2.075c1.229-0.068,2.467,0.625,3.468,1.857
			c-0.474,1.426-1.474,2.51-2.966,2.727C94.746,43.757,93.17,42.716,92.645,41.032L92.645,41.032z M100.117,57.663
			c-0.827,1.386-1.904,2.378-3.038,2.679c-1.132,0.296-2.167-0.024-3.112-0.865c0.277-1.648,1.618-3.08,3.059-3.35
			C98.464,55.86,99.525,56.528,100.117,57.663C99.29,59.049,99.525,56.528,100.117,57.663z"/>
	</g>
	<g id="frame3" display="none">
		<path display="inline" fill="#EA1903" d="M79.671,48.161c1.024-1.405,3.56-1.677,4.567-3.099c0.469,1.176,0.891,2.359,1.257,3.551
			c4.959,16.151,1.149,35.593-17.444,45.548c-17.043,9.08-40.962,8.566-54.739-6.264c-0.402-0.435-0.44-1.308-0.312-1.866
			c1.398-2.072,15.922-4.766,18.392-6.314c6.183-3.878,13.258-6.092,19.771-9.369C61.271,65.262,72.924,57.429,79.671,48.161
			C80.695,46.756,75.268,54.21,79.671,48.161z"/>
		<path display="inline" fill="#1D1D1B" d="M79.749,48.225c1.161-1.54,3.432-1.527,4.601-3.082l-0.234-0.028
			c6.71,17.811,0.927,38.296-16.056,47.833c-16.434,9.228-41.387,9.626-54.696-5.477c-0.471-0.634-0.04-1.905,0.659-2.058
			c23.336-5.604,51.027-17.035,65.73-37.192L79.749,48.225z M79.59,48.104c-9.87,12.846-25.914,20.229-40.116,27.048
			c-5.927,2.918-11.965,5.533-18.247,7.587c-1.895,0.62-7.906,1.125-8.566,3.355c-0.18,0.506-0.159,1.22,0.205,1.721
			c13.542,15.552,38.146,16.328,55.48,7.368c18.782-9.708,23.678-31.402,16.02-50.168C84.377,45.043,80.021,47.711,79.59,48.104z"/>
		<path display="inline" fill="#1D1D1B" d="M43.567,90.402c-2.624,1.214-5.609,0.467-6.664-1.712
			c-1.055-2.211,0.31-5.003,3.031-6.195c2.675-1.167,5.603-0.287,6.559,1.881C47.45,86.544,46.139,89.214,43.567,90.402
			C40.943,91.616,46.139,89.214,43.567,90.402z"/>
		<path display="inline" fill="#1D1D1B" d="M65.773,87.93c-3.86,1.881-8.205,0.672-9.639-2.841
			c-1.461-3.611,0.719-8.101,4.811-9.912c3.998-1.765,8.199-0.21,9.412,3.269C71.57,81.921,69.543,86.077,65.773,87.93
			C61.913,89.811,69.543,86.077,65.773,87.93z"/>
		<path display="inline" fill="#EA1903" d="M2.075,40.646c-0.606-0.274-1.184-0.531-1.551-1.09c-0.368-0.558-0.491-1.15-0.334-1.72
			c-0.002-5.806,8.924-16.946,17.693-22.131c10.966-6.468,24.906-8.642,38.482-4.988c23.4,6.259,29.482,27.083,25.917,44.444
			C56.589,65.158,25.237,51.134,2.075,40.646C1.469,40.372,22.54,49.913,2.075,40.646z"/>
		<path display="inline" fill="#1D1D1B" d="M2.119,40.549c-0.612-0.273-1.229-0.574-1.55-1.144
			c-1.862-2.962,3.659-10.364,5.349-12.541c2.881-3.692,6.454-6.781,10.418-9.262c9.569-5.987,21.197-8.671,32.425-7.689
			c23.743,2.197,37.432,21.714,32.571,45.053l0.6-0.71C56.471,62.571,25.242,50.783,2.119,40.549z M2.031,40.742
			c11.871,5.469,23.609,11.342,36.338,14.554c10.218,2.578,20.708,4.906,31.27,3.294c3.709-0.566,7.525-1.175,11.177-2.013
			c4.417-1.014,3.364-7.875,3.241-11.516C83.303,22.686,64.756,8.878,43.438,8.209C32.684,7.872,21.8,11.143,13.354,17.897
			C10.256,20.375-5.611,37.417,2.031,40.742z"/>
		<path display="inline" fill="#1D1D1B" d="M28.557,36.99c-3.144-0.778-5.386-3.795-4.979-6.766
			c0.405-3.033,3.408-4.789,6.592-3.906c3.165,0.877,5.25,3.992,4.762,6.886C34.443,36.096,31.607,37.742,28.557,36.99
			C25.413,36.212,31.607,37.742,28.557,36.99z"/>
		<path display="inline" fill="#1D1D1B" d="M52.307,40.779c-4.708-1.178-7.877-6.021-6.904-10.867c0.995-5,5.898-7.905,10.805-6.403
			c4.767,1.47,7.537,6.563,6.365,11.177C61.4,39.3,56.894,41.934,52.307,40.779C47.599,39.602,56.894,41.934,52.307,40.779z"/>
		<path display="inline" fill="#1D1D1B" d="M92.406,62.708c-1.718,5.193-4.644,10.056-8.623,13.827
			c-1.032-5.477-2.924-12.856-12.643-20.29c3.684-5.112,5.727-11.266,6.511-17.479c0.617-4.894-0.921-10.858,0.837-15.466
			C91.029,31.676,97.132,48.402,92.406,62.708C91.104,66.646,93.723,58.723,92.406,62.708z"/>
		<path display="inline" fill="none" stroke="#1C1C1B" d="M99.109,52.907c5.751,2.052,9.463,6.443,15.963,5.156"/>
		<path display="inline" fill="#1C1C1B" d="M119.342,57.531c-0.135-1.932-9.755-0.811-9.645,0.678
			C109.803,59.72,119.485,59.46,119.342,57.531C119.296,56.875,119.391,58.188,119.342,57.531z"/>
		<path display="inline" fill="none" stroke="#1C1C1B" d="M97.701,44.26c4.6-4.017,6.443-9.463,12.962-10.648"/>
		<path display="inline" fill="#1C1C1B" d="M114.832,32.541c0.578,1.839-8.772,4.337-9.225,2.902
			C105.155,34,114.249,30.694,114.832,32.541C115.029,33.169,114.634,31.913,114.832,32.541z"/>
	</g>
	<g id="frame2" display="none">
		<path display="inline" fill="#EA1903" d="M85.176,48.729c1.325-1.125,3.854-0.793,5.167-1.938
			c0.181,1.252,0.312,2.503,0.388,3.746C91.762,67.4,83.499,85.405,63.087,90.72c-18.689,4.826-41.831-1.282-51.74-18.934
			c-0.29-0.517,0.039-1.618,0.293-2.13c2.75-0.906,15.929-1.104,19.199-1.581c7.222-1.054,14.317-2.811,21.418-4.468
			C63.278,61.036,76.442,56.155,85.176,48.729C86.501,47.604,79.475,53.576,85.176,48.729z"/>
		<path display="inline" fill="#1D1D1B" d="M85.236,48.811c1.487-1.229,3.697-0.676,5.195-1.918l-0.222-0.082
			c2.339,18.891-8.08,37.443-26.83,42.731c-18.147,5.118-42.48-0.357-51.885-18.157c-0.31-0.728,0.408-1.861,1.123-1.846
			c24.024,0.023,53.564-4.596,72.62-20.73L85.236,48.811z M85.111,48.652C72.504,58.825,55.173,62.238,39.769,65.535
			c-6.447,1.444-12.929,2.569-19.517,3.095c-1.985,0.158-7.954-0.763-9.115,1.251c-0.294,0.45-0.441,1.149-0.204,1.722
			c9.509,18.278,33.255,24.829,52.202,20.181c20.57-5.046,30.389-24.935,27.342-45.01C90.48,46.798,85.62,48.375,85.111,48.652z"/>
		<path display="inline" fill="#EA1903" d="M9.961,60.312c-0.663-0.053-1.293-0.099-1.828-0.5c-0.536-0.398-0.851-0.916-0.896-1.504
			C5.031,55.984,9.89,39.34,16.384,31.492c8.125-9.803,20.504-16.57,34.515-17.734c24.138-2.041,36.917,15.492,39.444,33.033
			C69.612,64.886,35.54,62.351,9.961,60.312C9.298,60.259,32.357,62.097,9.961,60.312z"/>
		<path display="inline" fill="#1D1D1B" d="M9.97,60.206c-0.669-0.05-1.352-0.125-1.846-0.552
			c-2.756-2.146-0.065-10.999,0.784-13.612c1.46-4.45,3.775-8.567,6.664-12.243c6.502-8.274,15.67-14.46,25.7-17.589
			c23.775-7.417,44.663,6.279,48.111,30.72l0.322-0.871C70.119,63.02,33.957,61.915,9.97,60.206z M9.953,60.417
			c13.504,1.167,26.927,2.586,40.471,1.246c8.267-0.818,16.708-2.08,24.555-4.863c4.047-1.435,8.401-3.241,11.938-5.736
			c4.961-3.042,4.582-5.213,3.021-10.468C83.237,18.029,60.966,8.883,39.2,15.369c-9.999,2.98-19.073,9.117-25.043,17.744
			C11.847,36.45,0.982,59.846,9.953,60.417z"/>
		<path display="inline" fill="#1D1D1B" d="M44.427,76.149c-0.421-2.332-3.062-3.874-5.935-3.367
			c-2.925,0.521-4.906,2.914-4.4,5.312c0.514,2.364,3.241,3.792,6.076,3.227C42.948,80.77,44.848,78.481,44.427,76.149
			L44.427,76.149z M38.354,42.177c-0.52-2.887-3.538-5.112-6.812-4.862c-3.296,0.246-5.526,2.916-4.879,5.908
			c0.623,2.934,3.755,5.01,6.976,4.678C36.763,47.573,38.874,45.062,38.354,42.177L38.354,42.177z M64.861,34.204
			c-0.461-4.737-4.794-8.593-9.774-8.358c-5.126,0.249-8.754,4.646-7.997,9.688c0.728,4.889,5.349,8.369,10.178,7.884
			C61.975,42.945,65.322,38.941,64.861,34.204L64.861,34.204z M69.016,75.983c-0.361-3.666-4.082-6.163-8.383-5.386
			c-4.401,0.801-7.573,4.654-7.001,8.507c0.569,3.751,4.509,5.945,8.702,5.023C66.434,83.211,69.379,79.646,69.016,75.983
			L69.016,75.983z M71.188,56.246c9.721,7.434,11.61,14.813,12.644,20.29c15.737-14.896,12.454-41.372-5.293-53.234
			c-1.76,4.605-0.222,10.572-0.839,15.465C76.915,44.98,74.872,51.134,71.188,56.246C80.908,63.68,77.411,47.611,71.188,56.246z"/>
		<path display="inline" fill="none" stroke="#1C1C1B" d="M99.156,52.909c5.751,2.052,9.463,6.443,15.963,5.156"/>
		<path display="inline" fill="#1C1C1B" d="M119.389,57.533c-0.135-1.932-9.755-0.811-9.645,0.678
			C109.85,59.722,119.532,59.462,119.389,57.533C119.343,56.877,119.438,58.19,119.389,57.533z"/>
		<path display="inline" fill="none" stroke="#1C1C1B" d="M97.748,44.262c4.6-4.017,6.443-9.462,12.962-10.648"/>
		<path display="inline" fill="#1C1C1B" d="M114.878,32.543c0.579,1.842-8.777,4.332-9.224,2.902
			C105.2,34.002,114.301,30.696,114.878,32.543C115.075,33.171,114.682,31.915,114.878,32.543z"/>
		<path id="_copy" display="inline" fill="#1C1C1B" d="M119.389,57.533c-0.135-1.932-9.755-0.811-9.645,0.678
			C109.85,59.722,119.532,59.462,119.389,57.533C119.343,56.877,119.438,58.19,119.389,57.533z"/>
		<path id="_copy_1_" display="inline" fill="#1C1C1B" d="M114.878,32.543c0.579,1.842-8.777,4.332-9.224,2.902
			C105.2,34.002,114.301,30.696,114.878,32.543C115.075,33.171,114.682,31.915,114.878,32.543z"/>
		<path id="_copy_copy" display="inline" fill="#1C1C1B" d="M119.389,57.533c-0.135-1.932-9.755-0.811-9.645,0.678
			C109.85,59.722,119.532,59.462,119.389,57.533C119.343,56.877,119.438,58.19,119.389,57.533z"/>
		<path id="_copy_copy_1_" display="inline" fill="#1C1C1B" d="M114.878,32.543c0.579,1.842-8.777,4.332-9.224,2.902
			C105.2,34.002,114.301,30.696,114.878,32.543C115.075,33.171,114.682,31.915,114.878,32.543z"/>
	</g>
	<g id="frame1">
		<path fill="#1D1D1B" d="M94.688,49.936c-1.345-21.746-22.969-35.682-43.361-33.019c-21.702,2.835-44.285,22.708-37.044,46.18
			C26.733,103.486,97.367,92.966,94.688,49.936C94.262,43.048,95.116,56.82,94.688,49.936z"/>
		<path fill="#EA1903" d="M86.439,49.225c1.399-1.031,3.898-0.525,5.289-1.578c0.092,1.262,0.139,2.519,0.129,3.764
			c-0.135,16.896-9.619,34.288-30.348,38.184c-19.488,3.621-42.452-4.759-51.312-23.454c-0.253-0.536-0.233-1.059,0.056-1.552
			c1.461-2.486,15.605-0.269,18.791-0.351c7.898-0.202,15.738-1.178,23.531-2.438C63.746,59.991,77.214,56.031,86.439,49.225
			C87.839,48.193,80.418,53.667,86.439,49.225z"/>
		<path fill="#1D1D1B" d="M86.493,49.309c1.57-1.121,3.734-0.42,5.315-1.556l-0.216-0.098c1.111,20.169-11.945,38.037-32.156,41.232
			c-18.497,2.472-40.967-4.86-49.059-23.128c-0.266-0.752,0.529-1.855,1.268-1.773c24.644,1.896,53.972,0.66,74.853-14.681
			L86.493,49.309z M86.38,49.145c-13.265,9.261-31.269,11.987-46.979,13.521c-6.642,0.755-13.304,1.104-19.987,1.028
			c-1.975-0.022-8.006-1.416-9.293,0.527c-0.33,0.434-0.525,1.13-0.319,1.724c8.334,18.912,30.57,27.303,49.973,24.982
			c21.678-3.13,33.822-22.117,32.086-43.291C91.863,47.664,86.908,48.9,86.38,49.145z"/>
		<path fill="#1D1D1B" d="M39.293,78.637c-2.867,0.369-5.489-1.243-5.84-3.638c-0.339-2.426,1.803-4.679,4.756-4.996
			c2.902-0.307,5.43,1.412,5.689,3.77C44.158,76.127,42.104,78.278,39.293,78.637C36.426,79.006,42.104,78.278,39.293,78.637z"/>
		<path fill="#1D1D1B" d="M61.214,82.965c-4.247,0.631-8.025-1.83-8.336-5.611c-0.306-3.882,3.125-7.509,7.57-8.004
			c4.345-0.479,7.884,2.269,7.991,5.95C68.551,78.979,65.367,82.332,61.214,82.965C56.967,83.596,65.367,82.332,61.214,82.965z"/>
		<path fill="#EA1903" d="M11.199,63.663c-0.664-0.025-1.296-0.045-1.847-0.424C8.8,62.864,8.463,62.36,8.393,61.774
			C5.75,59.844,10.25,42.712,16.411,34.6c7.708-10.135,19.793-17.414,33.741-19.164c23.411-2.373,37.534,13.934,40.793,31.354
			C70.951,65.72,36.869,64.63,11.199,63.663C10.535,63.638,33.65,64.509,11.199,63.663z"/>
		<path fill="#1D1D1B" d="M11.204,63.557c-0.671-0.021-1.355-0.068-1.867-0.474c-3.28-2.339-0.153-12.729,0.812-15.55
			c1.515-4.431,3.87-8.504,6.744-12.188c6.622-8.341,15.736-14.627,25.917-17.78c22.953-6.972,42.889,6.13,47.183,29.404
			l0.287-0.884C71.42,63.858,35.242,64.251,11.204,63.557z M11.195,63.77c13.089,0.579,26.204,1.574,39.234-0.271
			c7.709-1.091,15.797-2.353,23.103-5.115c4.796-1.77,9.286-4.068,13.593-6.813c4.268-2.72,5.177-4.276,3.787-8.981
			C84.482,20.827,63.993,10.9,42.467,16.346c-10.052,2.642-19.166,8.189-25.658,16.368c-3.35,4.221-5.893,9.108-7.38,14.29
			C8.568,50.001,5.777,60.99,9.197,63.269C9.779,63.718,10.535,63.754,11.195,63.77z"/>
		<path fill="#1D1D1B" d="M34.338,50.271c-3.204,0.467-6.421-1.477-7.166-4.38c-0.771-2.964,1.345-5.726,4.628-6.109
			c3.26-0.385,6.368,1.713,7.009,4.574C39.448,47.217,37.444,49.812,34.338,50.271C31.134,50.738,37.444,49.812,34.338,50.271z"/>
		<path fill="#1D1D1B" d="M57.758,44.802c-4.805,0.688-9.567-2.598-10.499-7.45c-0.968-5.006,2.473-9.55,7.584-10.013
			c4.967-0.44,9.458,3.229,10.118,7.941C65.617,39.996,62.439,44.136,57.758,44.802C52.953,45.49,62.439,44.136,57.758,44.802z"/>
		<path fill="#1D1D1B" d="M93.055,63.409c-1.718,5.191-4.642,10.06-8.623,13.827C83.4,71.759,81.51,64.379,71.79,56.945
			c3.685-5.112,5.728-11.265,6.512-17.48c0.617-4.894-0.921-10.856,0.837-15.465C91.68,32.376,97.783,49.104,93.055,63.409
			C91.752,67.347,94.372,59.424,93.055,63.409z"/>
		<path fill="none" stroke="#1C1C1B" d="M98.752,50.639c5.115,3.335,7.703,8.469,14.324,8.73"/>
		<path fill="#1C1C1B" d="M117.354,59.846c0.318-1.907-9.295-3.062-9.537-1.585C107.569,59.756,117.041,61.754,117.354,59.846
			C117.462,59.197,117.247,60.496,117.354,59.846z"/>
		<path fill="none" stroke="#1C1C1B" d="M97.234,46.291c3.391-5.079,3.747-10.817,9.73-13.665"/>
		<path fill="#1C1C1B" d="M110.709,30.503c1.037,1.63-7.334,6.476-8.145,5.213C101.75,34.443,109.663,28.87,110.709,30.503
			C111.062,31.059,110.354,29.948,110.709,30.503z"/>
		<path id="_copy_2_" fill="none" stroke="#1C1C1B" d="M98.752,50.639c5.115,3.335,7.703,8.469,14.324,8.73"/>
		<path id="_copy_3_" fill="#1C1C1B" d="M117.354,59.846c0.318-1.907-9.295-3.062-9.537-1.585
			C107.569,59.756,117.041,61.754,117.354,59.846C117.462,59.197,117.247,60.496,117.354,59.846z"/>
		<path id="_copy_4_" fill="none" stroke="#1C1C1B" d="M97.234,46.291c3.391-5.079,3.747-10.817,9.73-13.665"/>
		<path id="_copy_5_" fill="#1C1C1B" d="M110.709,30.503c1.037,1.63-7.334,6.476-8.145,5.213
			C101.75,34.443,109.663,28.87,110.709,30.503C111.062,31.059,110.354,29.948,110.709,30.503z"/>
		<path id="_copy_copy_2_" fill="#1C1C1B" d="M117.354,59.846c0.318-1.907-9.295-3.062-9.537-1.585
			C107.569,59.756,117.041,61.754,117.354,59.846C117.462,59.197,117.247,60.496,117.354,59.846z"/>
		<path id="_copy_copy_3_" fill="#1C1C1B" d="M110.709,30.503c1.037,1.63-7.334,6.476-8.145,5.213
			C101.75,34.443,109.663,28.87,110.709,30.503C111.062,31.059,110.354,29.948,110.709,30.503z"/>
	</g>
</g>
</svg>
