<?xml version="1.0" encoding="utf-8"?>
<!-- Generator: Adobe Illustrator 16.0.4, SVG Export Plug-In . SVG Version: 6.00 Build 0)  -->
<!DOCTYPE svg PUBLIC "-//W3C//DTD SVG 1.1//EN" "http://www.w3.org/Graphics/SVG/1.1/DTD/svg11.dtd">
<svg version="1.1" id="Layer_1" xmlns="http://www.w3.org/2000/svg" xmlns:xlink="http://www.w3.org/1999/xlink" x="0px" y="0px"
	 width="2007.668px" height="1023.082px" viewBox="0 0 2007.668 1023.082" enable-background="new 0 0 2007.668 1023.082"
	 xml:space="preserve">
<g id="frame2" display="none">
	<path display="inline" fill="#2CA4EF" d="M0.001,39.081v925.258h1920V38.89c0,0-116.254,18.002-182.26,6.001
		c-29.963-5.448-110.701-34.321-195.943-37.551c-102.537-3.885-213.381,20.357-274,33.763
		c-111.01,24.549-212.104,3.009-392.124-24.541c-180.019-27.551-413.51,30.184-535.876,32.541c-125.092,2.409-163.859-13.625-216-24
		C63.565,13.116,0.001,39.081,0.001,39.081z"/>
	
		<linearGradient id="SVGID_1_" gradientUnits="userSpaceOnUse" x1="986.8345" y1="821.8008" x2="986.8344" y2="-164.9043" gradientTransform="matrix(1 0 0 1 17 182.0811)">
		<stop  offset="0" style="stop-color:#4184F0"/>
		<stop  offset="0.3602" style="stop-color:#439FF3"/>
		<stop  offset="0.7538" style="stop-color:#44B6F5"/>
		<stop  offset="1" style="stop-color:#45BFF6"/>
	</linearGradient>
	<path display="inline" fill="url(#SVGID_1_)" d="M0,70.081l0.001,933.801l2007.667-3.604V17.276c0,0-103.896-2.108-155.77,13.049
		c-83.791,24.481-170.761-0.771-256-4c-102.537-3.885-161,39-272,24c-62.654-8.467-170-46-300-20
		c-87.936,17.586-173.922,9.138-264,0c-181.187-18.381-217.635,13.643-340.003,16c-125.089,2.408-206.584-26.57-259.745-27.135
		C20.958,17.711,0,70.081,0,70.081z"/>
	<path display="inline" fill="#2CA4EF" d="M2007.668,64.804v949.275h-1920V83.632c0,0,116.254,9.001,182.26-3
		c29.963-5.447,110.701-20.321,195.943-23.551c102.537-3.885,236.605,9.757,297.797,20.246c140,24,303.982,15.551,484-12
		c180.02-27.55,297.836,18.16,420.203,20.517c125.092,2.409,163.859-12.624,216-23C1944.104,50.858,2007.668,64.804,2007.668,64.804
		z"/>
	
		<linearGradient id="SVGID_2_" gradientUnits="userSpaceOnUse" x1="986.8345" y1="841" x2="986.8344" y2="-117.2778" gradientTransform="matrix(1 0 0 1 17 182.0811)">
		<stop  offset="0" style="stop-color:#4184F0"/>
		<stop  offset="0.1982" style="stop-color:#4499F4"/>
		<stop  offset="0.5126" style="stop-color:#47B4FA"/>
		<stop  offset="0.7902" style="stop-color:#49C5FD"/>
		<stop  offset="1" style="stop-color:#4ACBFE"/>
	</linearGradient>
	<path display="inline" fill="url(#SVGID_2_)" d="M0,70.081v953h2007.668V92.925c0,0-189.4,0.206-255.406-11.795
		c-29.963-5.447-76.76-12.818-162-16.049c-102.537-3.885-172,34.049-270,42.049c-141.57,11.557-253.896-40.033-436-42.049
		c-210-2.322-319.633,37.691-442,40.049c-125.092,2.409-220.289-24.494-286-35.049C85.011,58.638,0,70.081,0,70.081z"/>
</g>
<g id="frame1">
	<path fill="#2CA4EF" d="M0,26.683v996.401h2007.668V1.06c0,0-55.357-3.807-133.789,3.006
		c-31.717,2.754-136.527,19.405-241.574,37.648c-100.701,17.488-175.688-25.826-272.942-11.024
		c-75.027,11.419-192.851,19.05-355.527,5.011c-91.901-7.931-224.872,17.045-334.677,17.045c-150.803,0-150.59-50.685-316.867-43.1
		C221.611,15.61,211.649,20.433,116.993,39.71C54.179,52.503,0,26.683,0,26.683z"/>
	
		<linearGradient id="SVGID_3_" gradientUnits="userSpaceOnUse" x1="986.8345" y1="841.0029" x2="986.8344" y2="-166.3286" gradientTransform="matrix(1 0 0 1 17 182.0811)">
		<stop  offset="0" style="stop-color:#4184F0"/>
		<stop  offset="0.3602" style="stop-color:#439FF3"/>
		<stop  offset="0.7538" style="stop-color:#44B6F5"/>
		<stop  offset="1" style="stop-color:#45BFF6"/>
	</linearGradient>
	<path fill="url(#SVGID_3_)" d="M0,55.656v967.428l2007.668-3.379V15.791c0,0-65.795-0.212-120.037,14.975
		c-87.615,24.529-225.885-15.014-332.553,2.103c-174.156,27.947-194.523,12.927-310.592-2.103
		c-65.517-8.484-130.734-1.162-266.67,24.89c-91.948,17.621-134.829-15.734-229.022-24.89
		C559.337,12.35,559.882,37.52,431.927,39.883c-130.803,2.414-217.358-23.526-272.945-24.092C13.433,14.309,0,55.656,0,55.656z"/>
	<path fill="#2CA4EF" d="M2007.668,47.877v975.205H0V74.758c0,0,121.562,24.049,190.582,12.024
		c31.331-5.458,198.065-32.387,287.2-35.623c107.219-3.893,205.823,10.254,269.807,20.766
		c146.395,24.047,277.14,28.129,465.376,0.524c188.238-27.605,311.438,4.168,439.391,6.53
		c130.806,2.414,171.343,3.383,225.863-7.014C1941.202,59.956,2007.668,47.877,2007.668,47.877z"/>
	
		<linearGradient id="SVGID_4_" gradientUnits="userSpaceOnUse" x1="986.8364" y1="841.0029" x2="986.8364" y2="-119.0557" gradientTransform="matrix(1 0 0 1 17 182.0811)">
		<stop  offset="0" style="stop-color:#4184F0"/>
		<stop  offset="0.1982" style="stop-color:#4499F4"/>
		<stop  offset="0.5126" style="stop-color:#47B4FA"/>
		<stop  offset="0.7902" style="stop-color:#49C5FD"/>
		<stop  offset="1" style="stop-color:#4ACBFE"/>
	</linearGradient>
	<path fill="url(#SVGID_4_)" d="M0.003,1023.084l2007.666-2.462V96.519c0,0-162.024,13.145-243.793-11.375
		c-30.391-9.114-109.606-24.423-222.276-21.826c-107.267,2.472-179.854,34.116-282.328,42.132
		c-148.035,11.58-265.49-40.114-455.908-42.132c-219.589-2.328-334.229,37.766-462.185,40.128
		C210.376,105.858,110.832,78.902,42.12,68.327c-13.765-2.119-42.117-4.225-42.117-4.225V1023.084z"/>
</g>
</svg>
