<?xml version="1.0" encoding="utf-8"?>
<!-- Generator: Adobe Illustrator 16.0.4, SVG Export Plug-In . SVG Version: 6.00 Build 0)  -->
<!DOCTYPE svg PUBLIC "-//W3C//DTD SVG 1.1//EN" "http://www.w3.org/Graphics/SVG/1.1/DTD/svg11.dtd">
<svg version="1.1" id="Layer_1" xmlns="http://www.w3.org/2000/svg" xmlns:xlink="http://www.w3.org/1999/xlink" x="0px" y="0px"
	 width="102.221px" height="98.579px" viewBox="-0.129 -0.672 102.221 98.579"
	 enable-background="new -0.129 -0.672 102.221 98.579" xml:space="preserve">
<path fill="#EF2111" stroke="#1D1D1B" stroke-width="2" stroke-miterlimit="10" d="M25.615,91.026
	c-9.916-5.23-24.424-20.039-24.738-41.084C0.562,28.899,11.602,9.657,32.448,3.009c20.846-6.648,47.613-1.113,60.562,18.619
	s10.115,48.064-6.91,63.176C70.457,98.688,54.413,96.989,47.853,96.675C41.293,96.36,30.688,93.703,25.615,91.026z"/>
<path fill="#5C9D29" stroke="#1D1D1B" stroke-miterlimit="10" d="M46.675,30.866c-0.044-0.087-3.052-3.542-4.844-5.173
	c-1.575-1.434-5.125-2.5-6.123-6.889c-0.045-0.167-0.711-6.907-0.711-6.907s7.245,6.252,9.959,10.671
	c0.003,0.005,3.764,1.655,4.992,1.895c1.214-0.952,9.312-6.371,12.154-7.77c2.088-1.025,6.729-3.375,12.779-4.33
	c0.777-0.123,3.794-0.477,3.823-0.466l0.094,0.035L78.792,12c0,0-0.006,0.046-0.028,0.13c-0.035,0.129-2.052,2.863-2.183,3.063
	c-1.219,1.859-5.989,4.66-8.375,6.125c-3.863,2.371-4.416,5.176-4.416,5.176s4.291,3.824,10.254,4.416l0.021,0.005
	c0.018,0.003,0.033,0.008,0.048,0.01c5.47,0.769,14.849,4.562,14.865,4.568l0.232,0.083c0,0-10.754,3.117-15.727,3.048
	c-1.679-0.023-4.238-0.25-6.693-0.492c-1.86-0.184-3.771-0.415-5.682-0.469c-0.187,0.271-0.812,5.812,0.128,8.003
	c1.575,3.669,7.445,10.293,7.319,10.493c-0.06,0.094-10.976-3.837-13.226-9.591c-0.034-0.087-3.101-6.34-3.294-6.385
	c0,0-5.011,1.068-8.204,0.922v0.006c-0.018,0-0.409-0.002-1.066-0.073c-0.656-0.071-1.331-0.184-2.007-0.334
	c-1.146-0.255-2.703-0.78-3.636-1.438c-1.008-0.712-2.834-3.091-1.839-2.847C38.957,37.318,47.082,35.568,46.675,30.866z"/>
<ellipse transform="matrix(0.5623 -0.8269 0.8269 0.5623 -2.2359 60.1568)" fill="#5C9D29" stroke="#1D1D1B" stroke-miterlimit="10" cx="55.706" cy="32.19" rx="3.5" ry="4.616"/>
<path opacity="0.24" fill="#FFFFFF" enable-background="new    " d="M14.626,24.443c-3.899,4.159-10.232,13.161-7.042,32.75
	c5.292,32.5,40.792,35.002,40.792,35.002s-27.651-9.967-29.25-30.252c-1.833-23.25,10.432-29.914,12-34
	C33.25,22.41,22.126,16.443,14.626,24.443z"/>
</svg>
