<?xml version="1.0" encoding="utf-8"?>
<!-- Generator: Adobe Illustrator 21.0.0, SVG Export Plug-In . SVG Version: 6.00 Build 0)  -->
<svg version="1.1"
	 id="svg2"  x="0px" y="0px" viewBox="0 0 45.7 45.7"
	 enable-background="new 0 0 45.7 45.7" xml:space="preserve">
<g>
	<g>

		<g id="g14" >
			<path fill="#FF0000" d="M44.6,3.8L41.9,1c-1.4-1.4-3.6-1.4-5,0L1,36.9c-1.4,1.4-1.4,3.6,0,5l2.8,2.8c1.4,1.4,3.6,1.4,5,0
				L44.6,8.8C46,7.4,46,5.2,44.6,3.8z"/>
			<path fill="#FF0000" d="M44.7,36.9L8.8,1c-1.4-1.4-3.6-1.4-5,0L1.1,3.8c-1.4,1.4-1.4,3.6,0,5L37,44.7c1.4,1.4,3.6,1.4,5,0
				l2.8-2.8C46.1,40.5,46.1,38.3,44.7,36.9z"/>
		</g>
	</g>
</g>
</svg>
