<?xml version="1.0" encoding="iso-8859-1"?>
<!-- Generator: Adobe Illustrator 16.0.0, SVG Export Plug-In . SVG Version: 6.00 Build 0)  -->
<!DOCTYPE svg PUBLIC "-//W3C//DTD SVG 1.1//EN" "http://www.w3.org/Graphics/SVG/1.1/DTD/svg11.dtd">
<svg version="1.1" id="Layer_1" xmlns="http://www.w3.org/2000/svg" xmlns:xlink="http://www.w3.org/1999/xlink" x="0px" y="0px"
	 width="1353px" height="1171.851px" viewBox="0 0 1353 1171.851" style="enable-background:new 0 0 1353 1171.851;"
	 xml:space="preserve">
<rect x="1.5" y="309.351" style="fill:#C69C6D;stroke:#000100;stroke-width:3;stroke-linecap:round;stroke-linejoin:round;" width="1350" height="861"/>
<polygon style="fill:#F47B50;stroke:#000100;stroke-width:3;stroke-linecap:round;stroke-linejoin:round;" points="1.5,309.351 
	684.867,1.5 1350.99,309.351 "/>
<g>
	<g>
		<rect x="99" y="447.851" style="fill:#FFDE7E;" width="326" height="326"/>
		
			<rect x="253.5" y="430.351" style="fill:#736357;stroke:#000100;stroke-width:3;stroke-linecap:round;stroke-linejoin:round;" width="17" height="359"/>
		
			<rect x="83.5" y="601.351" style="fill:#736357;stroke:#000100;stroke-width:3;stroke-linecap:round;stroke-linejoin:round;" width="357" height="17"/>
		<g>
			<path style="fill:#736357;stroke:#000100;stroke-width:3;stroke-linecap:round;stroke-linejoin:round;" d="M81.5,429.351v361h361
				v-361H81.5z M425.5,773.351h-326v-326h326V773.351z"/>
		</g>
	</g>
	<g>
		<rect x="942" y="447.851" style="fill:#FFDE7E;" width="326" height="326"/>
		
			<rect x="1096.5" y="430.351" style="fill:#736357;stroke:#000100;stroke-width:3;stroke-linecap:round;stroke-linejoin:round;" width="17" height="359"/>
		
			<rect x="926.5" y="601.351" style="fill:#736357;stroke:#000100;stroke-width:3;stroke-linecap:round;stroke-linejoin:round;" width="357" height="17"/>
		<g>
			<path style="fill:#736357;stroke:#000100;stroke-width:3;stroke-linecap:round;stroke-linejoin:round;" d="M924.5,429.351v361
				h361v-361H924.5z M1268.5,773.351h-326v-326h326V773.351z"/>
		</g>
	</g>
	<g>
		
			<rect x="504.5" y="429.351" style="fill:#ED1C24;stroke:#000100;stroke-width:3;stroke-linecap:round;stroke-linejoin:round;" width="357" height="741"/>
		<g>
			
				<circle style="fill:#FBB03B;stroke:#000100;stroke-width:3;stroke-linecap:round;stroke-linejoin:round;" cx="807.844" cy="800.306" r="24.748"/>
			
				<ellipse transform="matrix(0.8139 0.581 -0.581 0.8139 611.705 -325.814)" style="fill:#FCEE21;" cx="814.5" cy="792.062" rx="12.334" ry="7"/>
		</g>
	</g>
</g>
</svg>
