<?xml version="1.0" encoding="iso-8859-1"?>
<!-- Generator: Adobe Illustrator 16.0.0, SVG Export Plug-In . SVG Version: 6.00 Build 0)  -->
<!DOCTYPE svg PUBLIC "-//W3C//DTD SVG 1.1//EN" "http://www.w3.org/Graphics/SVG/1.1/DTD/svg11.dtd">
<svg version="1.1" id="Layer_1" xmlns="http://www.w3.org/2000/svg" xmlns:xlink="http://www.w3.org/1999/xlink" x="0px" y="0px"
	 width="741.409px" height="748.746px" viewBox="0 0 741.409 748.746" style="enable-background:new 0 0 741.409 748.746;"
	 xml:space="preserve">
<g>
	<path style="fill:#FF1D25;" d="M314.356,215.607c-16.328-10.222-27.194-24.77-29.055-41.115
		c-61.726,5.059-130.247,17.425-189.598,44.336c-42.14,19.105-66.648,40.119-73.994,48.841
		C11.293,301.91,6.014,337.486,6.014,373.872c0,49.271,9.649,97.065,28.68,142.059c14.701,34.757,34.49,66.671,58.966,95.208
		c32.982-114.119,78.718-213.437,135.986-295.231C255.586,278.857,283.912,245.337,314.356,215.607z"/>
	<path style="fill:#ED1E79;" d="M24.41,259.174c9.52-8.995,30.975-26.411,69.298-43.834c31.566-14.351,68.07-25.679,108.5-33.668
		c26.001-5.139,53.686-8.886,82.817-11.245c-0.007-0.316-0.034-0.628-0.034-0.945c0-15.545,8.157-29.748,21.556-40.572
		C229.154,84.499,168.986,75.621,161.87,74.7c-17.385,12.178-33.747,25.892-48.961,41.106
		c-33.519,33.518-59.833,72.548-78.215,116.007C30.883,240.824,27.466,249.951,24.41,259.174z"/>
	<path style="fill:#0066CA;" d="M371.222,108.124c23.561,0.048,44.921,6.891,60.429,17.925
		c70.721-40.776,127.517-52.201,143.488-54.767c-19.489-13.176-40.235-24.44-62.106-33.69
		C468.115,18.593,420.405,8.947,371.222,8.915V108.124z"/>
	<path style="fill:#93278F;" d="M367.222,108.187V8.958c-47.943,0.479-94.458,10.087-138.307,28.634
		c-21.922,9.271-42.713,20.568-62.242,33.784c16.765,2.749,73.239,14.425,143.307,54.903
		C324.745,115.664,344.893,108.875,367.222,108.187z"/>
	<path style="fill:#8CC63F;" d="M735.934,373.872c0-36.374-5.276-71.94-15.687-106.173c-2.547-2.761-23.93-24.888-73.993-47.022
		c-59.403-26.264-127.984-39.053-189.751-44.874c-2.299,15.959-13.217,30.111-29.35,40.075
		c30.34,29.664,58.574,63.092,84.435,100.029c57.374,81.945,103.172,181.477,136.169,295.86
		c24.724-28.695,44.689-60.826,59.497-95.837C726.285,470.937,735.934,423.142,735.934,373.872z"/>
	<path style="fill:#FFDE00;" d="M508.312,318.201c-25.941-37.051-54.274-70.551-84.733-100.23
		c-14.492,8.025-32.648,12.831-52.356,12.871v507.987c49.183-0.032,96.893-9.679,141.811-28.677
		c43.459-18.381,82.489-44.696,116.007-78.215c5.39-5.39,10.572-10.938,15.587-16.607
		C611.701,500.337,565.842,400.371,508.312,318.201z"/>
	<path style="fill:#3FA9F5;" d="M456.958,169.482c0,0.785-0.042,1.562-0.083,2.34c62.252,5.868,131.418,18.785,191.349,45.352
		c38.522,17.076,60.004,33.852,69.443,42.398c-3.089-9.359-6.547-18.619-10.412-27.759c-18.382-43.459-44.696-82.489-78.215-116.007
		c-15.246-15.246-31.645-28.984-49.069-41.182c-2.863,0.334-64.572,8.084-144.858,54.047
		C448.686,139.525,456.958,153.825,456.958,169.482z"/>
	<path style="fill:#FF8B00;" d="M367.222,230.778c-18.558-0.571-35.597-5.365-49.303-13.06
		c-30.602,29.784-59.061,63.42-85.105,100.639c-57.378,81.994-103.138,181.702-136.03,296.367
		c5.179,5.883,10.542,11.631,16.124,17.213c33.518,33.519,72.548,59.834,116.007,78.215c43.849,18.547,90.363,28.155,138.307,28.634
		V230.778z"/>
	<path d="M710.939,230.255c-18.584-43.936-45.187-83.395-79.07-117.278c-33.885-33.884-73.342-60.486-117.278-79.07
		C469.177,14.699,420.943,4.946,371.222,4.914c-0.083,0-0.165-0.002-0.248-0.002c-0.584,0-1.168,0.008-1.752,0.011
		c-0.667,0.003-1.333,0.006-2,0.013c-48.483,0.478-95.519,10.215-139.864,28.972c-43.936,18.584-83.394,45.187-117.278,79.07
		c-33.884,33.884-60.486,73.343-79.07,117.278C11.77,275.744,2.014,324.063,2.014,373.872S11.77,472,31.009,517.488
		c18.584,43.936,45.187,83.395,79.07,117.278c33.884,33.884,73.342,60.486,117.278,79.07
		c44.345,18.756,91.381,28.494,139.864,28.972c0.667,0.007,1.333,0.01,2,0.013c0.584,0.003,1.167,0.011,1.752,0.011
		c0.083,0,0.165-0.002,0.248-0.002c49.721-0.032,97.955-9.785,143.368-28.993c43.937-18.584,83.394-45.187,117.278-79.07
		c33.884-33.884,60.486-73.343,79.07-117.278c19.24-45.488,28.995-93.808,28.995-143.616S730.179,275.744,710.939,230.255z
		 M513.033,710.152c-44.918,18.998-92.628,28.645-141.811,28.677V230.841c19.708-0.04,37.865-4.846,52.356-12.871
		c30.459,29.68,58.792,63.18,84.733,100.23c57.53,82.17,103.389,182.137,136.314,297.129c-5.015,5.67-10.197,11.218-15.587,16.607
		C595.522,665.456,556.492,691.771,513.033,710.152z M112.909,631.937c-5.582-5.582-10.945-11.33-16.124-17.213
		c32.892-114.665,78.651-214.373,136.03-296.367c26.044-37.219,54.503-70.854,85.105-100.639
		c13.706,7.694,30.745,12.488,49.303,13.06v508.008c-47.943-0.479-94.458-10.087-138.307-28.634
		C185.457,691.771,146.426,665.456,112.909,631.937z M34.694,515.93c-19.03-44.993-28.68-92.788-28.68-142.059
		c0-36.386,5.279-71.962,15.695-106.203c7.346-8.722,31.854-29.735,73.994-48.841c59.351-26.911,127.872-39.277,189.598-44.336
		c1.861,16.346,12.727,30.894,29.055,41.115c-30.445,29.73-58.77,63.25-84.71,100.3C172.378,397.702,126.643,497.019,93.66,611.138
		C69.184,582.601,49.395,550.687,34.694,515.93z M161.87,74.7c7.117,0.921,67.285,9.799,144.678,54.21
		c-13.399,10.824-21.556,25.027-21.556,40.572c0,0.317,0.027,0.629,0.034,0.945c-29.131,2.359-56.816,6.106-82.817,11.245
		c-40.429,7.989-76.934,19.317-108.5,33.668c-38.323,17.423-59.778,34.839-69.298,43.834c3.057-9.224,6.473-18.351,10.284-27.361
		c18.381-43.459,44.696-82.489,78.215-116.007C128.123,100.591,144.485,86.877,161.87,74.7z M228.916,37.591
		c43.849-18.547,90.363-28.155,138.307-28.634v99.229c-22.33,0.688-42.478,7.477-57.241,18.092
		C239.913,85.8,183.438,74.125,166.674,71.375C186.203,58.16,206.994,46.863,228.916,37.591z M575.139,71.282
		c-15.972,2.565-72.768,13.99-143.488,54.767c-15.507-11.034-36.868-17.877-60.429-17.925V8.915
		c49.183,0.032,96.893,9.679,141.811,28.677C534.904,46.841,555.65,58.106,575.139,71.282z M629.04,115.806
		c33.519,33.518,59.833,72.548,78.215,116.007c3.865,9.14,7.323,18.399,10.412,27.759c-9.439-8.547-30.921-25.322-69.443-42.398
		c-59.931-26.566-129.097-39.483-191.349-45.352c0.041-0.777,0.083-1.555,0.083-2.34c0-15.657-8.271-29.957-21.845-40.811
		c80.286-45.963,141.995-53.713,144.858-54.047C597.395,86.822,613.793,100.56,629.04,115.806z M452.886,171.451
		c-0.065,1.338-0.175,2.668-0.37,3.982c-2.22,15.002-12.749,28.295-28.288,37.608c-1.182,0.709-2.389,1.397-3.627,2.06
		c-13.726,7.328-30.834,11.701-49.379,11.74c-0.083,0-0.165,0.004-0.248,0.004c-0.587,0-1.167-0.021-1.752-0.031
		c-0.667-0.01-1.336-0.014-2-0.035c-17.399-0.551-33.392-4.92-46.33-11.928c-1.233-0.668-2.436-1.36-3.611-2.075
		c-15.728-9.562-26.206-23.231-27.993-38.604c-0.156-1.34-0.252-2.691-0.274-4.056c-0.003-0.212-0.023-0.422-0.023-0.635
		c0-14.781,8.036-28.273,21.207-38.455c1.14-0.881,2.327-1.73,3.542-2.561c13.95-9.532,32.718-15.623,53.483-16.281
		c0.664-0.021,1.333-0.025,2-0.035c0.584-0.008,1.165-0.031,1.752-0.031c0.083,0,0.165,0.005,0.248,0.005
		c21.987,0.046,41.951,6.187,56.652,16.12c1.223,0.826,2.421,1.672,3.569,2.549c13.353,10.209,21.514,23.794,21.514,38.689
		C452.958,170.142,452.918,170.796,452.886,171.451z M511.588,315.907c-25.861-36.938-54.095-70.365-84.435-100.029
		c16.133-9.964,27.051-24.116,29.35-40.075c61.767,5.821,130.348,18.61,189.751,44.874c50.063,22.135,71.446,44.262,73.993,47.022
		c10.41,34.232,15.687,69.799,15.687,106.173c0,49.271-9.649,97.065-28.68,142.059c-14.808,35.011-34.773,67.142-59.497,95.837
		C614.76,497.383,568.962,397.852,511.588,315.907z"/>
	<g>
		<path style="fill:#FFFFFF;" d="M431.444,130.792c-1.148-0.877-2.346-1.723-3.569-2.549c-14.701-9.934-34.666-16.074-56.652-16.12
			c-0.083,0-0.165-0.005-0.248-0.005c-0.587,0-1.167,0.023-1.752,0.031c-0.667,0.01-1.336,0.015-2,0.035
			c-20.765,0.658-39.533,6.749-53.483,16.281c-1.215,0.83-2.402,1.68-3.542,2.561c-13.171,10.182-21.207,23.674-21.207,38.455
			c0,0.213,0.02,0.423,0.023,0.635c0.021,1.364,0.118,2.716,0.274,4.056c1.788,15.372,12.266,29.042,27.993,38.604
			c1.176,0.715,2.378,1.407,3.611,2.075c12.938,7.008,28.93,11.377,46.33,11.928c0.664,0.021,1.333,0.025,2,0.035
			c0.584,0.01,1.165,0.031,1.752,0.031c0.083,0,0.165-0.004,0.248-0.004c18.545-0.039,35.654-4.412,49.379-11.74
			c1.239-0.662,2.445-1.351,3.627-2.06c15.539-9.313,26.067-22.606,28.288-37.608c0.194-1.314,0.305-2.645,0.37-3.982
			c0.032-0.654,0.071-1.309,0.071-1.969C452.958,154.586,444.796,141.001,431.444,130.792z"/>
		<path d="M431.359,130.906c0,0-0.35-0.248-1.03-0.731c-0.686-0.465-1.678-1.237-3.02-2.095c-1.378-0.843-3.077-1.882-5.075-3.104
			c-1.023-0.564-2.16-1.097-3.356-1.698c-0.599-0.297-1.217-0.604-1.854-0.919c-0.636-0.315-1.283-0.655-1.991-0.915
			c-2.795-1.11-5.84-2.465-9.34-3.425c-3.426-1.176-7.271-1.967-11.34-2.875c-8.192-1.595-17.683-2.217-27.846-1.786
			c-1.288,0.099-2.59,0.2-3.905,0.301c-0.657,0.051-1.318,0.102-1.982,0.153l-0.998,0.076l-0.981,0.135
			c-1.31,0.18-2.633,0.362-3.967,0.546c-1.334,0.176-2.682,0.349-4.027,0.664c-2.69,0.588-5.464,1.016-8.188,1.842
			c-1.372,0.371-2.754,0.744-4.146,1.121c-1.363,0.468-2.736,0.94-4.119,1.416c-0.692,0.235-1.387,0.47-2.084,0.707
			s-1.363,0.559-2.049,0.835c-1.365,0.575-2.739,1.153-4.122,1.735c-1.361,0.626-2.691,1.339-4.053,2.011
			c-0.678,0.341-1.359,0.683-2.041,1.026c-0.663,0.376-1.309,0.786-1.968,1.179c-5.285,3-10.416,6.874-14.837,11.431
			c-4.459,4.549-8.257,9.969-10.694,16.082c-2.471,6.078-3.464,12.9-2.618,19.538c0.833,6.709,3.38,13.114,7.104,18.801
			c1.896,2.821,4.089,5.44,6.465,7.877c1.174,1.234,2.45,2.366,3.709,3.512c1.314,1.086,2.611,2.191,3.996,3.189
			c5.458,4.099,11.528,7.3,17.81,9.912c6.233,2.587,12.761,4.556,19.336,5.84c6.587,1.265,13.224,1.944,19.787,2.138l2.469,0.031
			l0.609,0.006l0.577-0.019l1.239-0.045c1.651-0.06,3.296-0.12,4.935-0.18c1.616-0.121,3.204-0.299,4.797-0.443
			c0.795-0.083,1.589-0.134,2.38-0.243l2.368-0.368c6.314-0.887,12.42-2.399,18.23-4.321c5.836-1.875,11.293-4.384,16.39-7.197
			c10.149-5.666,18.458-13.317,23.789-21.892c2.581-4.322,4.534-8.813,5.504-13.323c0.116-0.564,0.231-1.125,0.346-1.682
			l0.086-0.417l0.046-0.388l0.098-0.858c0.065-0.57,0.129-1.136,0.193-1.698l0.096-0.84c0.029-0.164,0.035-0.528,0.054-0.78
			c0.021-0.538,0.088-1.153,0.069-1.616c-0.007-0.55-0.015-1.096-0.022-1.637c0.016-1.098-0.148-2.099-0.208-3.131
			c-0.423-4.112-1.521-7.883-2.868-11.215c-0.365-0.822-0.691-1.644-1.067-2.422c-0.392-0.771-0.774-1.525-1.148-2.263
			c-0.421-0.712-0.833-1.408-1.234-2.087c-0.408-0.675-0.858-1.301-1.268-1.929c-3.388-4.966-6.864-8.244-9.243-10.397
			c-1.192-1.085-2.159-1.854-2.811-2.373C431.692,131.175,431.359,130.906,431.359,130.906z M431.528,130.679
			c0,0,0.34,0.269,0.995,0.789c0.658,0.516,1.636,1.28,2.844,2.359c0.621,0.521,1.288,1.13,2,1.827
			c0.36,0.343,0.737,0.703,1.13,1.077c0.375,0.393,0.765,0.802,1.17,1.227c1.627,1.693,3.394,3.746,5.166,6.203
			c1.775,2.454,3.535,5.335,5.05,8.678c1.499,3.343,2.771,7.154,3.37,11.388c0.105,1.059,0.314,2.169,0.338,3.241
			c0.03,0.541,0.06,1.085,0.089,1.635c0.042,0.635-0.003,1.127,0,1.704c-0.011,0.304,0.004,0.502-0.026,0.896l-0.061,0.844
			c-0.041,0.564-0.082,1.132-0.123,1.705l-0.062,0.861l-0.039,0.475l-0.071,0.438c-0.095,0.586-0.191,1.177-0.288,1.771
			c-0.831,4.746-2.638,9.567-5.235,14.177c-5.282,9.208-13.916,17.299-24.386,23.245c-0.642,0.369-1.286,0.738-1.933,1.109
			c-0.732,0.386-1.374,0.689-2.069,1.04c-1.374,0.66-2.722,1.405-4.144,2.005c-1.426,0.59-2.861,1.183-4.305,1.78
			c-1.445,0.592-2.954,1.036-4.44,1.564c-0.747,0.254-1.496,0.508-2.247,0.764c-0.764,0.209-1.531,0.419-2.299,0.63
			c-1.542,0.401-3.071,0.889-4.645,1.223c-1.575,0.327-3.157,0.656-4.746,0.986c-1.587,0.34-3.214,0.496-4.829,0.753
			c-0.81,0.117-1.621,0.233-2.434,0.351c-0.816,0.104-1.646,0.15-2.471,0.228c-1.651,0.133-3.316,0.297-4.971,0.402
			c-1.64,0.043-3.286,0.085-4.937,0.128l-1.239,0.032l-0.664,0.014l-0.632-0.013l-2.51-0.058c-6.726-0.277-13.507-1.01-20.226-2.422
			c-13.387-2.922-26.607-8.351-37.585-16.965c-1.388-1.052-2.688-2.214-4.001-3.354c-1.26-1.203-2.533-2.389-3.703-3.679
			c-2.369-2.546-4.538-5.277-6.409-8.198c-3.748-5.815-6.308-12.46-7.085-19.247l-0.168-2.573l-0.086-1.266
			c-0.028-0.469-0.061-0.859-0.038-1.297l0.086-2.556l0.251-2.54c0.451-3.369,1.308-6.662,2.495-9.806
			c2.409-6.28,6.087-11.963,10.527-16.761c4.44-4.848,9.44-8.857,14.865-12.165c0.664-0.422,1.317-0.862,1.986-1.268
			c0.688-0.372,1.375-0.743,2.059-1.113c1.376-0.726,2.718-1.508,4.104-2.176c1.408-0.62,2.808-1.236,4.198-1.848
			c0.7-0.294,1.38-0.636,2.09-0.889c0.71-0.254,1.418-0.507,2.124-0.759c1.414-0.498,2.818-0.992,4.213-1.483
			c1.425-0.391,2.839-0.778,4.243-1.163c2.789-0.853,5.623-1.314,8.385-1.87c1.375-0.305,2.77-0.471,4.152-0.639
			c1.38-0.174,2.748-0.346,4.104-0.517l1.013-0.126l1-0.053c0.665-0.035,1.327-0.069,1.985-0.104
			c1.317-0.069,2.621-0.137,3.911-0.205c10.494-0.169,19.998,0.938,28.244,2.831c8.228,1.952,15.125,4.561,20.632,7.048
			c0.704,0.275,1.351,0.632,1.985,0.963c0.634,0.331,1.25,0.653,1.847,0.965c1.188,0.632,2.322,1.192,3.348,1.758
			c1.99,1.234,3.683,2.284,5.056,3.135c1.373,0.89,2.334,1.651,3.025,2.126C431.177,130.426,431.528,130.679,431.528,130.679z"/>
	</g>
</g>
<g>
	<path d="M710.317,230.489c0,0-0.934-2.063-2.742-6.059c-1.839-3.98-4.353-10.003-8.341-17.473
		c-7.648-15.072-20.037-36.837-39.893-61.475c-1.235-1.542-2.486-3.105-3.754-4.688c-1.274-1.578-2.685-3.077-4.046-4.649
		c-2.756-3.115-5.58-6.308-8.472-9.577c-3.051-3.119-6.174-6.311-9.365-9.573c-0.798-0.815-1.6-1.635-2.405-2.459
		c-0.743-0.789-1.671-1.581-2.504-2.377c-1.714-1.593-3.445-3.202-5.194-4.828s-3.516-3.269-5.301-4.927
		c-1.804-1.631-3.707-3.158-5.582-4.765c-1.885-1.591-3.788-3.197-5.709-4.818c-0.96-0.81-1.925-1.624-2.894-2.442
		c-1.011-0.77-2.027-1.544-3.048-2.321c-2.041-1.552-4.102-3.119-6.179-4.699c-1.039-0.79-2.082-1.583-3.129-2.379l-1.574-1.197
		l-1.634-1.131c-4.378-2.999-8.83-6.049-13.354-9.148c-18.381-11.962-39.05-22.958-61.779-32.199
		c-5.761-2.184-11.596-4.396-17.503-6.635c-5.964-1.893-11.957-3.891-18.076-5.766c-3.105-0.83-6.229-1.664-9.37-2.503
		c-1.569-0.42-3.143-0.841-4.722-1.263l-2.369-0.635l-2.403-0.53c-3.21-0.697-6.438-1.398-9.682-2.103
		c-1.622-0.353-3.248-0.706-4.878-1.061c-1.629-0.362-3.293-0.568-4.944-0.861c-26.419-4.718-54.393-6.781-83.323-5.58
		c-7.397,0.102-14.491,0.973-21.785,1.504l-2.729,0.224l-2.737,0.358c-1.827,0.24-3.657,0.481-5.491,0.723
		c-1.834,0.241-3.672,0.482-5.513,0.725c-1.838,0.259-3.694,0.433-5.521,0.809c-3.669,0.662-7.352,1.327-11.048,1.993
		c-1.845,0.351-3.71,0.618-5.548,1.038c-1.837,0.423-3.677,0.847-5.521,1.272c-3.687,0.854-7.386,1.71-11.099,2.57
		c-3.67,1.027-7.354,2.058-11.05,3.092c-1.849,0.515-3.701,1.031-5.557,1.547c-1.828,0.606-3.659,1.214-5.493,1.823
		c-3.668,1.219-7.349,2.442-11.042,3.669c-3.631,1.401-7.273,2.807-10.928,4.217c-1.827,0.708-3.656,1.416-5.489,2.126
		c-0.321,0.133-0.333,0.114-0.583,0.23l-0.683,0.303l-1.366,0.607l-2.735,1.215c-3.654,1.611-7.319,3.227-10.995,4.848
		c-3.533,1.755-7.077,3.515-10.63,5.28c-1.776,0.884-3.555,1.77-5.337,2.657c-1.746,0.979-3.495,1.958-5.246,2.939
		c-3.497,1.973-7.032,3.907-10.529,5.927c-3.426,2.141-6.86,4.287-10.305,6.439l-2.589,1.611c-0.867,0.532-1.732,1.07-2.558,1.665
		c-1.675,1.159-3.352,2.319-5.032,3.481c-1.68,1.162-3.362,2.326-5.047,3.491c-1.681,1.17-3.395,2.3-5,3.583
		c-3.262,2.498-6.532,5.001-9.81,7.511l-2.461,1.884l-2.369,2.002c-1.582,1.336-3.165,2.674-4.749,4.013
		c-3.156,2.695-6.412,5.296-9.406,8.204c-3.056,2.842-6.118,5.69-9.188,8.544l-0.576,0.536c-0.207,0.186-0.276,0.266-0.509,0.502
		l-1.109,1.134l-2.22,2.271l-4.447,4.549l-4.452,4.562l-4.189,4.72l-4.195,4.736l-2.101,2.374c-0.709,0.784-1.401,1.584-2.053,2.425
		c-2.659,3.314-5.323,6.634-7.993,9.96l-2.004,2.497l-1.89,2.587l-3.77,5.193c-2.511,3.47-5.096,6.9-7.377,10.547
		c-2.347,3.604-4.698,7.213-7.053,10.829c-4.289,7.486-8.886,14.842-12.726,22.644l-3.008,5.788
		c-0.493,0.97-1.023,1.922-1.486,2.908l-1.365,2.969c-1.82,3.962-3.644,7.929-5.469,11.902l-0.34,0.746
		c-0.077,0.164-0.196,0.485-0.292,0.72l-0.609,1.532l-1.22,3.065l-2.443,6.137c-0.806,2.049-1.65,4.091-2.426,6.149l-2.121,6.223
		c-5.907,16.512-10.241,33.749-13.547,51.158c-0.758,4.371-1.517,8.747-2.275,13.125c-0.542,4.412-1.083,8.828-1.626,13.247
		c-0.638,4.41-0.872,8.863-1.204,13.311l-0.483,6.675c-0.076,1.113-0.172,2.225-0.231,3.34l-0.064,3.349
		c-0.086,4.465-0.173,8.934-0.259,13.406l-0.028,1.63l0.05,1.686l0.1,3.371l0.201,6.746l0.204,6.75l0.533,6.682l0.531,6.684
		l0.265,3.343c0.047,0.557,0.081,1.114,0.14,1.671l0.217,1.668c0.589,4.445,1.179,8.893,1.769,13.342
		c0.156,1.11,0.278,2.227,0.46,3.333l0.61,3.312l1.221,6.622l1.22,6.623c0.411,2.206,1.006,4.376,1.5,6.566
		c1.056,4.365,2.026,8.752,3.15,13.1l3.787,12.935l0.947,3.233c0.324,1.075,0.728,2.125,1.087,3.189l2.219,6.363
		c1.487,4.239,2.882,8.511,4.663,12.64l5.036,12.416c7.409,16.661,15.67,32.34,25.081,47.656
		c9.535,15.174,20.206,29.565,31.671,43.223c2.947,3.346,5.894,6.688,8.838,10.03c1.437,1.702,3.024,3.267,4.568,4.869l4.646,4.79
		l4.564,4.712l4.919,4.613l4.917,4.61c1.642,1.527,3.259,3.117,4.956,4.496c3.348,2.86,6.693,5.719,10.036,8.574
		c1.632,1.464,3.436,2.766,5.168,4.134l5.234,4.062l5.237,4.047l5.415,3.796l5.408,3.793l2.701,1.896
		c0.894,0.642,1.85,1.188,2.771,1.787c3.717,2.348,7.43,4.692,11.14,7.034l1.39,0.879l1.43,0.812l2.859,1.621l5.713,3.241
		c1.909,1.069,3.792,2.184,5.718,3.216l5.85,2.953l5.841,2.951l2.917,1.475c0.97,0.497,1.983,0.902,2.972,1.357
		c3.977,1.774,7.949,3.546,11.916,5.316l1.487,0.663c0.27,0.126,0.278,0.115,0.641,0.261l0.769,0.3l3.077,1.198l6.146,2.394
		l6.138,2.391l6.104,2.041l6.091,2.034l3.042,1.017l1.52,0.509l1.554,0.436c4.143,1.161,8.28,2.321,12.41,3.479l3.097,0.865
		l3.132,0.714c2.087,0.476,4.173,0.951,6.257,1.427c2.083,0.476,4.165,0.951,6.245,1.426l1.561,0.352l1.575,0.279l3.146,0.56
		c4.193,0.747,8.379,1.492,12.558,2.236c4.21,0.538,8.413,1.075,12.607,1.611l3.144,0.403c1.046,0.144,2.094,0.271,3.148,0.334
		c2.104,0.166,4.206,0.331,6.306,0.496s4.197,0.331,6.293,0.496l3.142,0.248c1.046,0.085,2.098,0.078,3.146,0.121
		c4.194,0.128,8.38,0.254,12.557,0.381c2.104,0.086,4.131,0.095,6.274,0.092c2.062-0.058,4.123-0.114,6.181-0.172
		c4.225-0.122,8.44-0.244,12.647-0.365c4.095-0.322,8.181-0.645,12.257-0.966c2.039-0.166,4.073-0.286,6.109-0.487
		c2.04-0.258,4.076-0.517,6.111-0.774c4.066-0.532,8.135-0.986,12.172-1.578c4.018-0.714,8.026-1.427,12.024-2.138
		c1.994-0.379,4.006-0.655,5.979-1.116c1.973-0.454,3.944-0.908,5.912-1.361c3.929-0.935,7.88-1.736,11.767-2.75
		c3.867-1.089,7.724-2.176,11.569-3.26l2.883-0.811c0.962-0.268,1.923-0.53,2.861-0.868c1.888-0.636,3.773-1.271,5.656-1.906
		c3.758-1.289,7.538-2.484,11.249-3.837c3.677-1.445,7.344-2.886,10.999-4.322l2.742-1.072l1.369-0.535l0.684-0.267
		c0.258-0.096,0.202-0.088,0.549-0.237c1.816-0.815,3.629-1.629,5.439-2.441c3.61-1.633,7.253-3.227,10.805-4.876
		c3.43-1.744,6.848-3.482,10.255-5.215c1.701-0.874,3.412-1.709,5.098-2.609c1.668-0.951,3.334-1.901,4.996-2.85
		c3.325-1.896,6.64-3.787,9.942-5.67c3.212-2.036,6.412-4.064,9.601-6.086c1.595-1.01,3.187-2.019,4.776-3.025
		c1.54-1.079,3.078-2.157,4.612-3.232c3.066-2.157,6.121-4.307,9.164-6.448c2.986-2.22,5.874-4.547,8.8-6.801
		c2.906-2.279,5.864-4.473,8.594-6.922c2.783-2.386,5.556-4.762,8.316-7.128l2.071-1.771l1.98-1.862
		c1.318-1.242,2.634-2.481,3.946-3.718c1.313-1.237,2.624-2.471,3.932-3.702l1.96-1.845l0.979-0.921
		c-0.019,0.037,0.267-0.271,0.385-0.391l0.473-0.489c2.524-2.609,5.037-5.208,7.539-7.794c1.253-1.292,2.503-2.58,3.75-3.866
		c1.204-1.3,2.325-2.623,3.488-3.93c2.308-2.618,4.604-5.225,6.891-7.819c0.566-0.654,1.155-1.283,1.702-1.956l1.625-2.033
		c1.086-1.352,2.17-2.699,3.251-4.044c2.146-2.701,4.354-5.338,6.426-8.056c2.012-2.765,4.014-5.516,6.005-8.252
		c1.992-2.738,4.019-5.434,5.8-8.274c14.949-22.266,27.011-45.13,36.228-67.879c0.591-1.431,1.18-2.856,1.768-4.278
		c0.574-1.422,1.213-2.835,1.68-4.256c1.008-2.837,2.01-5.656,3.005-8.456c0.973-2.811,2.04-5.563,2.919-8.372
		c0.847-2.823,1.688-5.627,2.522-8.411c0.827-2.787,1.684-5.547,2.473-8.303c0.684-2.783,1.362-5.547,2.035-8.289
		c0.673-2.745,1.341-5.469,2.004-8.172c0.614-2.714,1.07-5.439,1.607-8.126c4.212-21.506,6.459-42.025,6.739-61.045
		c0.045-1.188,0.09-2.371,0.134-3.547l0.033-0.881c0.015-0.215-0.002-0.567-0.001-0.843l-0.021-1.759
		c-0.027-2.339-0.054-4.653-0.081-6.943c-0.084-4.574,0.002-9.075-0.364-13.404c-0.279-4.348-0.552-8.594-0.818-12.737
		c-0.048-1.038-0.152-2.065-0.281-3.084c-0.117-1.02-0.233-2.034-0.349-3.041c-0.23-2.015-0.459-4.004-0.684-5.966
		c-3.724-31.421-10.719-55.465-16.209-71.463c-1.351-4.017-2.481-7.588-3.733-10.571c-1.179-3.009-2.171-5.542-2.969-7.581
		c-1.598-4.079-2.422-6.184-2.422-6.184L710.317,230.489z M711.356,230.035c0,0,0.835,2.108,2.453,6.192
		c0.809,2.042,1.813,4.579,3.008,7.593c1.268,2.988,2.416,6.565,3.787,10.591c5.586,16.03,12.82,40.073,17.103,71.597
		c0.265,1.969,0.533,3.965,0.805,5.987c0.136,1.011,0.273,2.029,0.41,3.053c0.15,1.022,0.275,2.055,0.345,3.102
		c0.351,4.179,0.71,8.461,1.078,12.846c0.481,4.392,0.509,8.862,0.713,13.439c0.086,2.288,0.173,4.601,0.26,6.938l0.066,1.758
		c0.007,0.312,0.03,0.548,0.024,0.922l-0.01,0.888c-0.014,1.187-0.028,2.379-0.042,3.578c-0.069,4.795-0.081,9.693-0.203,14.685
		c-0.303,4.985-0.611,10.065-0.926,15.239c-0.095,2.595-0.438,5.188-0.713,7.813c-0.286,2.625-0.573,5.272-0.863,7.943
		c-0.462,5.36-1.472,10.735-2.318,16.229c-0.459,2.74-0.836,5.521-1.372,8.292c-0.585,2.763-1.175,5.548-1.769,8.354
		c-0.594,2.808-1.191,5.638-1.794,8.487c-0.708,2.825-1.483,5.655-2.231,8.517c-0.756,2.859-1.518,5.74-2.285,8.641
		c-0.803,2.894-1.805,5.768-2.71,8.686c-0.931,2.913-1.868,5.847-2.812,8.8c-0.443,1.499-1.024,2.903-1.554,4.351
		c-0.54,1.44-1.082,2.885-1.625,4.334c-8.717,23.397-20.23,47.276-35.11,70.436c-1.764,2.959-3.774,5.773-5.754,8.633
		c-1.98,2.858-3.972,5.731-5.973,8.619c-2.063,2.843-4.265,5.605-6.407,8.434c-1.081,1.408-2.164,2.819-3.25,4.233l-1.637,2.12
		c-0.554,0.703-1.159,1.376-1.736,2.066c-2.341,2.747-4.692,5.507-7.055,8.279c-1.187,1.376-2.358,2.798-3.565,4.146
		c-1.226,1.307-2.453,2.616-3.685,3.929c-2.465,2.622-4.94,5.256-7.427,7.9l-0.467,0.496c-0.199,0.205-0.214,0.24-0.565,0.586
		l-0.995,0.961l-1.993,1.926c-1.331,1.284-2.665,2.571-4.002,3.861c-1.337,1.291-2.677,2.583-4.02,3.879l-2.02,1.942l-2.11,1.853
		c-2.821,2.468-5.653,4.946-8.497,7.436c-2.798,2.546-5.826,4.837-8.805,7.213c-2.998,2.351-5.961,4.773-9.023,7.089
		c-3.123,2.236-6.257,4.481-9.403,6.734c-1.575,1.123-3.154,2.248-4.736,3.375c-1.632,1.054-3.267,2.108-4.904,3.166
		c-3.276,2.113-6.565,4.235-9.865,6.363c-3.399,1.966-6.812,3.938-10.235,5.917c-1.713,0.987-3.43,1.976-5.148,2.967
		c-1.753,0.946-3.553,1.839-5.332,2.763c-3.571,1.832-7.153,3.67-10.748,5.514c-3.592,1.688-7.192,3.284-10.806,4.938
		c-1.807,0.821-3.616,1.644-5.429,2.467c-0.109,0.048-0.609,0.283-0.819,0.359l-0.705,0.28l-1.412,0.56l-2.827,1.122
		c-3.775,1.491-7.562,2.986-11.359,4.485c-3.834,1.401-7.739,2.646-11.624,3.979c-1.946,0.657-3.895,1.314-5.847,1.973
		c-0.97,0.349-1.964,0.623-2.957,0.9l-2.979,0.843c-3.976,1.123-7.963,2.249-11.961,3.379c-0.994,0.302-2.009,0.527-3.023,0.757
		l-3.043,0.697c-2.03,0.464-4.064,0.928-6.1,1.392c-2.036,0.462-4.076,0.925-6.117,1.388c-2.041,0.469-4.121,0.753-6.184,1.139
		c-4.135,0.723-8.281,1.446-12.437,2.172c-4.174,0.602-8.379,1.062-12.583,1.599c-2.103,0.26-4.209,0.52-6.317,0.779
		c-2.123,0.204-4.269,0.328-6.406,0.495c-4.279,0.303-8.569,0.605-12.868,0.91c-4.208,0.092-8.426,0.185-12.652,0.277
		c-2.168,0.044-4.338,0.088-6.51,0.133c-2.094-0.013-4.307-0.036-6.445-0.138c-4.308-0.161-8.625-0.321-12.952-0.482
		c-1.081-0.053-2.165-0.055-3.244-0.148l-3.24-0.277c-2.161-0.185-4.324-0.37-6.49-0.556c-2.165-0.186-4.332-0.372-6.501-0.559
		c-1.086-0.074-2.167-0.212-3.246-0.367l-3.242-0.437c-4.323-0.584-8.655-1.169-12.994-1.755c-4.306-0.797-8.619-1.595-12.94-2.394
		l-3.241-0.602l-1.622-0.301l-1.607-0.376c-2.141-0.508-4.284-1.017-6.429-1.525c-2.144-0.509-4.291-1.019-6.438-1.529l-3.222-0.766
		l-3.186-0.919c-4.247-1.231-8.5-2.466-12.76-3.701l-1.597-0.464l-1.585-0.545l-3.172-1.09l-6.349-2.186l-6.35-2.196l-6.117-2.444
		l-6.125-2.448l-3.066-1.226l-0.767-0.307c-0.147-0.061-0.659-0.257-0.886-0.369l-1.524-0.695
		c-4.065-1.856-8.136-3.716-12.211-5.578c-1.013-0.478-2.05-0.904-3.044-1.424l-2.989-1.542l-5.983-3.089l-5.988-3.093
		c-1.972-1.079-3.9-2.24-5.854-3.357l-5.845-3.386l-2.924-1.694l-1.462-0.849l-1.42-0.919c-3.786-2.451-7.575-4.905-11.369-7.361
		c-0.94-0.626-1.915-1.201-2.826-1.87l-2.754-1.979l-5.512-3.959l-5.515-3.964c-1.792-1.385-3.554-2.812-5.333-4.216l-5.326-4.231
		c-1.766-1.428-3.583-2.773-5.275-4.32c-3.432-3.013-6.867-6.027-10.305-9.044c-1.759-1.49-3.32-3.078-4.941-4.637l-4.839-4.692
		l-4.842-4.695l-4.751-5.056l-4.674-4.984c-1.552-1.667-3.148-3.295-4.592-5.062c-2.956-3.47-5.913-6.941-8.872-10.415
		c-11.448-14.212-22.028-29.152-31.428-44.834c-9.226-15.713-17.503-32.325-24.458-48.93l-4.921-12.862
		c-1.72-4.23-3.052-8.6-4.474-12.935l-2.119-6.506c-0.343-1.087-0.729-2.16-1.036-3.258l-0.895-3.302l-3.58-13.195
		c-1.068-4.427-1.981-8.892-2.978-13.332c-0.464-2.228-1.029-4.434-1.41-6.677l-1.127-6.729l-1.126-6.726l-0.562-3.36
		c-0.166-1.123-0.272-2.256-0.411-3.382c-0.526-4.512-1.052-9.021-1.577-13.526l-0.201-1.689l-0.125-1.7l-0.235-3.402l-0.469-6.8
		l-0.467-6.794l-0.134-6.752l-0.13-6.748l-0.065-3.372L0,374.031l0.044-1.74c0.134-4.515,0.268-9.027,0.402-13.536l0.101-3.38
		l0.247-3.372l0.511-6.738c0.35-4.489,0.604-8.984,1.262-13.435c0.563-4.46,1.126-8.916,1.688-13.368
		c0.782-4.419,1.562-8.833,2.342-13.244c3.446-17.577,7.697-34.919,13.642-51.714l2.11-6.329c0.765-2.075,1.592-4.115,2.384-6.172
		l2.398-6.154l1.198-3.074l0.599-1.536c0.11-0.274,0.177-0.471,0.322-0.809l0.338-0.756c1.792-4.038,3.58-8.069,5.366-12.095
		l1.339-3.02c0.454-1.002,0.977-1.972,1.461-2.959l2.959-5.893c3.775-7.943,8.316-15.446,12.557-23.083
		c4.718-7.348,9.091-14.896,14.205-21.918l3.711-5.344l1.862-2.663l1.977-2.573c2.637-3.431,5.269-6.855,7.896-10.272
		c0.642-0.866,1.33-1.697,2.039-2.515l2.096-2.472l4.186-4.938c1.393-1.647,2.785-3.292,4.175-4.937l4.339-4.672l4.333-4.658
		l2.163-2.325l1.081-1.162c0.134-0.145,0.419-0.456,0.604-0.627l0.571-0.559c3.049-2.98,6.092-5.954,9.128-8.921
		c2.978-3.034,6.221-5.765,9.369-8.589c1.582-1.404,3.162-2.806,4.74-4.207l2.367-2.1l2.46-1.982
		c3.281-2.642,6.555-5.276,9.821-7.905c1.607-1.349,3.327-2.545,5.013-3.783c1.691-1.231,3.379-2.461,5.066-3.69
		c1.688-1.229,3.373-2.456,5.056-3.681c0.831-0.629,1.7-1.2,2.572-1.766l2.605-1.711c3.477-2.274,6.945-4.542,10.404-6.805
		c3.536-2.138,7.112-4.19,10.653-6.28c1.774-1.04,3.546-2.078,5.315-3.114c1.828-0.957,3.652-1.912,5.474-2.865
		c3.649-1.899,7.287-3.793,10.914-5.682c3.647-1.685,7.283-3.366,10.908-5.041l2.72-1.248L224.454,30l0.679-0.312
		c0.2-0.099,0.66-0.278,0.799-0.335c1.871-0.751,3.738-1.501,5.603-2.25c3.733-1.492,7.455-2.979,11.164-4.461
		c3.776-1.306,7.541-2.608,11.292-3.905c1.877-0.647,3.75-1.293,5.622-1.938c1.899-0.554,3.795-1.108,5.688-1.661
		c3.788-1.101,7.563-2.198,11.326-3.291c3.812-0.904,7.611-1.804,11.396-2.702c1.894-0.446,3.784-0.891,5.67-1.334
		c1.888-0.44,3.804-0.728,5.699-1.097c3.799-0.695,7.585-1.387,11.356-2.077c1.879-0.385,3.787-0.566,5.677-0.833
		c1.893-0.249,3.782-0.498,5.668-0.746c1.886-0.248,3.768-0.495,5.646-0.742l2.815-0.367l2.842-0.235
		c3.786-0.306,7.557-0.611,11.313-0.914c3.783-0.373,7.436-0.424,11.097-0.542c29.606-1.113,58.401,1.438,85.36,6.791
		c1.686,0.337,3.384,0.587,5.045,0.993c1.664,0.398,3.322,0.795,4.977,1.191c3.307,0.793,6.596,1.581,9.868,2.366l2.447,0.596
		l2.41,0.713c1.604,0.476,3.202,0.95,4.797,1.422c3.187,0.946,6.356,1.887,9.507,2.822c6.255,2.102,12.399,4.337,18.479,6.461
		c5.9,2.424,11.729,4.817,17.485,7.181c22.857,10.143,43.485,21.992,61.729,34.679c4.482,3.279,8.894,6.506,13.23,9.679l1.616,1.194
		l1.555,1.261c1.035,0.838,2.064,1.673,3.09,2.504c2.05,1.662,4.082,3.309,6.096,4.941c1.007,0.815,2.01,1.626,3.008,2.434
		c0.962,0.855,1.92,1.706,2.874,2.553c1.906,1.693,3.794,3.371,5.664,5.033c1.854,1.673,3.752,3.28,5.519,4.962
		c1.742,1.704,3.467,3.391,5.174,5.061s3.397,3.323,5.069,4.958c0.836,0.841,1.668,1.58,2.495,2.493
		c0.791,0.851,1.578,1.697,2.36,2.539c3.129,3.365,6.188,6.657,9.18,9.875c2.848,3.344,5.628,6.61,8.342,9.796
		c1.339,1.606,2.727,3.14,3.979,4.75c1.244,1.616,2.473,3.21,3.686,4.785c19.557,25.086,31.798,46.975,39.447,62.147
		c3.998,7.526,6.493,13.536,8.326,17.522c1.802,4,2.731,6.064,2.731,6.064L711.356,230.035z"/>
</g>
</svg>
