<?xml version="1.0" encoding="iso-8859-1"?>
<!-- Generator: Adobe Illustrator 16.0.0, SVG Export Plug-In . SVG Version: 6.00 Build 0)  -->
<!DOCTYPE svg PUBLIC "-//W3C//DTD SVG 1.1//EN" "http://www.w3.org/Graphics/SVG/1.1/DTD/svg11.dtd">
<svg version="1.1" id="Layer_1" xmlns="http://www.w3.org/2000/svg" xmlns:xlink="http://www.w3.org/1999/xlink" x="0px" y="0px"
	 width="306.415px" height="243.667px" viewBox="0 0 306.415 243.667" style="enable-background:new 0 0 306.415 243.667;"
	 xml:space="preserve">
<path style="fill:#29ABE2;stroke:#000000;stroke-width:2;stroke-linejoin:round;stroke-miterlimit:10;" d="M175.29,242.667
	l-164-136.333c0,0-21-23-3-74L119.957,1L304.29,82.667"/>
<path style="fill:#E6E6E6;stroke:#000000;stroke-width:2;stroke-linejoin:round;stroke-miterlimit:10;" d="M302.623,87
	c0,0-17.833,23.167-8.833,78.167l-117.833,73.5L165.623,208l0.334-21.333l5.666-21.333l6-19.334L302.623,87z"/>
<path style="fill:#0071BC;stroke:#000000;stroke-width:2;stroke-linejoin:round;stroke-miterlimit:10;" d="M175.29,242.667
	c0,0-12-15-12-45s10-53,16-54s125-61,125-61s2,0.334,0.667,3.667c-1.334,3.333-125.667,62-125.667,62s-22.667,45.666-1.667,88
	l117.667-72.667c0,0,2.792,0.292,1.75,2.75C295.991,168.892,175.29,242.667,175.29,242.667z"/>
<line style="fill:#FF9C6D;stroke:#000000;stroke-width:2;stroke-linejoin:round;stroke-miterlimit:10;" x1="175.29" y1="143.667" x2="9.29" y2="34.667"/>
<line style="fill:none;stroke:#999999;stroke-linecap:round;stroke-linejoin:round;stroke-miterlimit:10;" x1="278.29" y1="112.668" x2="188.29" y2="158.668"/>
<line style="fill:none;stroke:#999999;stroke-linecap:round;stroke-linejoin:round;stroke-miterlimit:10;" x1="284.29" y1="162.334" x2="186.29" y2="217.334"/>
<line style="fill:none;stroke:#999999;stroke-linecap:round;stroke-linejoin:round;stroke-miterlimit:10;" x1="291.29" y1="149.334" x2="207.29" y2="196.668"/>
<line style="fill:none;stroke:#999999;stroke-linecap:round;stroke-linejoin:round;stroke-miterlimit:10;" x1="292.29" y1="113.334" x2="219.29" y2="151.668"/>
<line style="fill:none;stroke:#999999;stroke-linecap:round;stroke-linejoin:round;stroke-miterlimit:10;" x1="278.957" y1="137.334" x2="186.623" y2="183.668"/>
</svg>
