<?xml version="1.0" encoding="iso-8859-1"?>
<!-- Generator: Adobe Illustrator 16.0.0, SVG Export Plug-In . SVG Version: 6.00 Build 0)  -->
<!DOCTYPE svg PUBLIC "-//W3C//DTD SVG 1.1//EN" "http://www.w3.org/Graphics/SVG/1.1/DTD/svg11.dtd">
<svg version="1.1" id="Layer_1" xmlns="http://www.w3.org/2000/svg" xmlns:xlink="http://www.w3.org/1999/xlink" x="0px" y="0px"
	 width="146.705px" height="253.186px" viewBox="0 0 146.705 253.186" style="enable-background:new 0 0 146.705 253.186;"
	 xml:space="preserve">
<g>
	<path style="fill:#E6E6E6;stroke:#000100;" d="M73.353,64.873c37.061,0,67.637-7.861,72.233-18.029l0.119-6.209l0.5-19.449
		c0,11.424-32.618,20.688-72.853,20.688C33.117,41.873,0.5,32.609,0.5,21.186l0.625,18.609l0.188,7.482
		C6.569,57.234,36.818,64.873,73.353,64.873z"/>
	<path style="fill:#E6E6E6;stroke:#000100;" d="M73.353,41.873c40.234,0,72.853-9.264,72.853-20.688S113.587,0.5,73.353,0.5
		C33.117,0.5,0.5,9.762,0.5,21.186S33.117,41.873,73.353,41.873z M36.324,13.918c6.298-0.433,29.56-1.78,37.836,2.01
		c2.945-0.99,7.176-1.84,13.272-2.229c20.003-1.268,24.046,0.129,25.981,2.58c1.934,2.448,2.654,10.355-5.248,10.896
		c-6.295,0.434-29.553,1.779-37.832-2.01c-2.944,0.991-7.173,1.84-13.267,2.229c-20.008,1.27-24.053-0.125-25.987-2.584
		C29.144,22.36,28.425,14.468,36.324,13.918z"/>
	<path style="fill:#E6E6E6;stroke:#000100;" d="M73.006,236.316c-30.586,0-56.734-9.012-67.426-21.761l0.19,5.649
		c0,17.939,30.534,32.48,68.202,32.48c37.667,0,68.201-14.541,68.201-32.48l0.212-8.261
		C133.247,226.06,105.645,236.316,73.006,236.316z"/>
	<path style="fill:#4D4D4D;stroke:#000100;" d="M77.057,19.896c0,0-0.002,3.007-6.723,5.269c8.279,3.789,31.537,2.443,37.832,2.01
		c7.902-0.54,7.182-8.447,5.248-10.896c-1.936-2.451-5.979-3.848-25.981-2.58c-6.097,0.39-10.327,1.239-13.272,2.229
		C76.258,16.889,77.408,18.175,77.057,19.896z"/>
	<path style="fill:#CCCCCC;stroke:#000100;" d="M57.067,27.394c6.094-0.39,10.322-1.238,13.267-2.229
		c-2.1-0.961-3.252-2.246-2.9-3.968c0,0,0.001-3.006,6.727-5.269c-8.276-3.79-31.538-2.442-37.836-2.01
		c-7.899,0.55-7.181,8.442-5.244,10.892C33.015,27.269,37.06,28.663,57.067,27.394z M44.15,16.311
		c4.454-0.005,8.072,1.705,8.072,3.839c-0.006,2.147-3.6,3.897-8.056,3.9c-4.457,0.005-8.074-1.731-8.079-3.862
		C36.074,18.054,39.698,16.316,44.15,16.311z"/>
	<path style="fill:#CCCCCC;stroke:#000100;" d="M67.434,21.196c-0.352,1.722,0.801,3.007,2.9,3.968
		c6.721-2.262,6.723-5.269,6.723-5.269c0.352-1.721-0.799-3.007-2.896-3.968C67.435,18.19,67.434,21.196,67.434,21.196z"/>
	<path style="fill:#E6E6E6;stroke:#000100;" d="M44.167,24.05c4.456-0.003,8.05-1.753,8.056-3.9c0-2.134-3.618-3.844-8.072-3.839
		c-4.452,0.006-8.076,1.743-8.062,3.877C36.093,22.318,39.71,24.055,44.167,24.05z"/>
	<g>
		<path style="fill:#FF931E;stroke:#000100;" d="M143.598,150.098l-21.754,6.096l21.8-8.492l1.942-100.857
			c-4.597,10.168-35.173,18.029-72.233,18.029c-36.534,0-66.783-7.639-72.04-17.596l2.236,88.664l24.234,13.625L3.625,138.954
			l1.391,55.184l20.023-5.61L5.07,196.307l0.311,12.297l0.014,0.4c11.063,0.246,25.046-0.093,40.398-1.946
			c-10.189-8.13-16.727-20.646-16.727-34.695c0-24.508,19.867-44.375,44.375-44.375s44.373,19.867,44.373,44.375
			c0,5.185-0.897,10.157-2.531,14.782c9.71-4.869,19.139-10.757,27.945-17.902L143.598,150.098z M37.646,73.579l5.039-1.684
			l14.588,52.062L37.646,73.579z M96.235,126.703l21.745-49.502l4.753,2.373L96.235,126.703z"/>
		<path style="fill:#FBAE17;stroke:#000100;" d="M73.441,216.735c19.323,0,35.752-12.354,41.842-29.591
			c-23.025,11.545-47.646,17.276-69.49,19.913C53.379,213.109,62.983,216.735,73.441,216.735z"/>
		<path style="fill:#FBAE17;stroke:#000100;" d="M73.441,127.987c-24.508,0-44.375,19.867-44.375,44.375
			c0,14.05,6.537,26.565,16.727,34.695c21.844-2.637,46.465-8.368,69.49-19.913c1.634-4.625,2.531-9.598,2.531-14.782
			C117.814,147.854,97.949,127.987,73.441,127.987z"/>
		<polygon style="fill:#FBAE17;stroke:#000100;" points="117.98,77.201 96.235,126.703 122.733,79.574 		"/>
		<polygon style="fill:#FBAE17;stroke:#000100;" points="3.549,135.941 3.625,138.954 27.783,149.566 		"/>
		<polygon style="fill:#FBAE17;stroke:#000100;" points="143.598,150.098 143.644,147.701 121.844,156.193 		"/>
		<polygon style="fill:#FBAE17;stroke:#000100;" points="5.016,194.138 5.07,196.307 25.039,188.527 		"/>
		<polygon style="fill:#FBAE17;stroke:#000100;" points="37.646,73.579 57.273,123.957 42.686,71.896 		"/>
	</g>
	<path style="fill:#F15A24;stroke:#000100;" d="M5.395,209.004l0.186,5.552c10.691,12.749,36.84,21.761,67.426,21.761
		c32.639,0,60.241-10.257,69.38-24.372l0.079-3.075l0.764-39.627C98.861,205.24,38.836,209.747,5.395,209.004z"/>
</g>
</svg>
