<?xml version="1.0" encoding="iso-8859-1"?>
<!-- Generator: Adobe Illustrator 16.0.0, SVG Export Plug-In . SVG Version: 6.00 Build 0)  -->
<!DOCTYPE svg PUBLIC "-//W3C//DTD SVG 1.1//EN" "http://www.w3.org/Graphics/SVG/1.1/DTD/svg11.dtd">
<svg version="1.1" id="Layer_1" xmlns="http://www.w3.org/2000/svg" xmlns:xlink="http://www.w3.org/1999/xlink" x="0px" y="0px"
	 width="124.287px" height="227.732px" viewBox="0 0 124.287 227.732" style="enable-background:new 0 0 124.287 227.732;"
	 xml:space="preserve">
<path style="fill:#C69C6D;stroke:#000000;stroke-miterlimit:10;" d="M40.892,9.161C42.284,8.36,43.2,6.861,43.2,5.14
	c0-2-1.278-3.698-3.052-4.351c-0.499-0.184-1.042-0.29-1.606-0.29c-0.494,0-0.972,0.079-1.418,0.221
	c-1.87,0.599-3.226,2.35-3.226,4.419c0,1.792,0.917,3.343,2.403,4.116c-1.846,26.674-3.228,84.095-3.228,141.953v70.67
	c0,2.957,2.543,5.354,5.5,5.354s5.5-2.397,5.5-5.354v-70.67C44.074,93.284,42.741,35.794,40.892,9.161z"/>
<path style="fill:#C69C6D;stroke:#000000;stroke-miterlimit:10;" d="M9.023,23.571c0.767-1.411,0.881-3.241-0.021-4.707
	c-1.047-1.704-2.967-2.517-4.819-2.145c-0.521,0.104-1.01,0.281-1.49,0.576c-0.421,0.259-0.771,0.567-1.077,0.922
	c-1.279,1.489-1.51,3.687-0.427,5.45c0.938,1.526,2.725,2.249,4.396,2.128c12.397,23.69,41.485,73.212,71.787,122.501l37.011,60.203
	c1.548,2.519,4.544,3.49,7.063,1.941c2.52-1.548,3.004-4.66,1.456-7.179L85.891,143.06C55.554,93.713,24.547,45.291,9.023,23.571z"
	/>
</svg>
