<?xml version="1.0" encoding="iso-8859-1"?>
<!-- Generator: Adobe Illustrator 16.0.0, SVG Export Plug-In . SVG Version: 6.00 Build 0)  -->
<!DOCTYPE svg PUBLIC "-//W3C//DTD SVG 1.1//EN" "http://www.w3.org/Graphics/SVG/1.1/DTD/svg11.dtd">
<svg version="1.1" id="Layer_1" xmlns="http://www.w3.org/2000/svg" xmlns:xlink="http://www.w3.org/1999/xlink" x="0px" y="0px"
	 width="477px" height="421.567px" viewBox="0 0 477 421.567" style="enable-background:new 0 0 477 421.567;" xml:space="preserve"
	>
<g>
	
		<line style="fill:none;stroke:#000100;stroke-width:3;stroke-linecap:round;stroke-linejoin:round;" x1="157.253" y1="96.806" x2="239.75" y2="14.31"/>
	
		<line style="fill:none;stroke:#000100;stroke-width:3;stroke-linecap:round;stroke-linejoin:round;" x1="320.745" y1="96.806" x2="238.249" y2="14.31"/>
</g>
<rect x="1.5" y="68.067" style="fill:#A67C52;stroke:#000100;stroke-width:3;stroke-linecap:round;stroke-linejoin:round;" width="474" height="352"/>
<rect x="39.834" y="105.067" style="fill:#7BE6FF;stroke:#000100;stroke-width:3;stroke-linecap:round;stroke-linejoin:round;" width="396" height="274"/>
<rect x="308.016" y="216.487" style="fill:#9A7000;stroke:#000100;stroke-width:2;stroke-linecap:round;stroke-linejoin:round;" width="26.998" height="104.995"/>
<path style="fill:#56D300;stroke:#000100;stroke-width:2;stroke-linecap:round;stroke-linejoin:round;" d="M435.834,307.987v71.08
	h-396v-84.584c0,0,92.67-34.498,200.665,0C348.495,328.981,435.834,307.987,435.834,307.987z"/>
<path style="fill:#56A100;stroke:#000100;stroke-width:2;stroke-linecap:round;stroke-linejoin:round;" d="M255.246,211.7
	c0,0-27.212-0.736-23.534-23.535c3.677-22.799,30.153-20.592,30.153-20.592s-12.286-21.768,3.678-30.89
	c15.444-8.825,27.947,8.09,27.947,8.09s0.735-22.063,30.153-22.8c29.418-0.734,30.89,22.064,30.89,22.064s6.619-5.884,16.181,0
	c9.561,5.883,3.677,13.238,3.677,13.238s23.534-1.472,30.153,12.502c6.619,13.975,6.62,29.42-13.973,35.303
	c0,0,5.883,13.974-11.033,12.502c0,0-5.147,27.213-33.095,15.445c0,0-10.297,19.122-36.772,11.032
	c-20.782-6.35-15.445-23.535-15.445-23.535s-4.156,13.444-20.593,13.974C250.833,235.234,255.981,215.378,255.246,211.7z"/>
<circle style="fill:#FCEE21;stroke:#000100;stroke-width:2;stroke-linecap:round;stroke-linejoin:round;" cx="120.525" cy="171.489" r="41.998"/>
<circle style="fill:#E6E6E6;stroke:#000100;stroke-width:3;stroke-linecap:round;stroke-linejoin:round;" cx="239" cy="14.999" r="13.499"/>
<path style="opacity:0.2;" d="M238.573,21.645c-5.28,0-9.69-3.699-10.798-8.646c-0.175,0.782-0.275,1.592-0.275,2.427
	c0,6.115,4.957,11.073,11.073,11.073c6.115,0,11.072-4.958,11.072-11.073c0-0.834-0.1-1.645-0.274-2.427
	C248.263,17.945,243.854,21.645,238.573,21.645z"/>
<g>
	<line style="fill:#A67C52;" x1="39.834" y1="105.067" x2="9.63" y2="78.607"/>
	<path style="fill:#000100;" d="M38.846,106.196L9.63,78.607l31.192,25.332c0.644,0.523,0.742,1.468,0.219,2.112
		c-0.523,0.644-1.468,0.741-2.112,0.219C38.901,106.247,38.872,106.22,38.846,106.196z"/>
</g>
<g>
	<line style="fill:#A67C52;" x1="435.631" y1="105.067" x2="465.835" y2="78.607"/>
	<path style="fill:#000100;" d="M434.643,103.939l31.192-25.332l-29.216,27.588c-0.603,0.569-1.553,0.542-2.122-0.061
		c-0.569-0.603-0.542-1.553,0.062-2.122C434.585,103.988,434.615,103.962,434.643,103.939z"/>
</g>
<g>
	<line style="fill:#A67C52;" x1="39.834" y1="378.606" x2="9.63" y2="405.066"/>
	<path style="fill:#000100;" d="M40.822,379.734L9.63,405.066l29.216-27.588c0.603-0.569,1.553-0.542,2.122,0.061
		c0.569,0.603,0.542,1.553-0.061,2.122C40.88,379.686,40.85,379.712,40.822,379.734z"/>
</g>
<g>
	<line style="fill:#A67C52;" x1="435.631" y1="378.606" x2="465.835" y2="405.066"/>
	<path style="fill:#000100;" d="M436.62,377.479l29.216,27.588l-31.192-25.332c-0.644-0.522-0.742-1.468-0.219-2.111
		c0.522-0.644,1.468-0.741,2.111-0.219C436.564,377.428,436.593,377.454,436.62,377.479z"/>
</g>
</svg>
