<?xml version="1.0" encoding="iso-8859-1"?>
<!-- Generator: Adobe Illustrator 16.0.0, SVG Export Plug-In . SVG Version: 6.00 Build 0)  -->
<!DOCTYPE svg PUBLIC "-//W3C//DTD SVG 1.1//EN" "http://www.w3.org/Graphics/SVG/1.1/DTD/svg11.dtd">
<svg version="1.1" id="Layer_2" xmlns="http://www.w3.org/2000/svg" xmlns:xlink="http://www.w3.org/1999/xlink" x="0px" y="0px"
	 width="226.094px" height="228.612px" viewBox="0 0 226.094 228.612" style="enable-background:new 0 0 226.094 228.612;"
	 xml:space="preserve">
<linearGradient id="SVGID_1_" gradientUnits="userSpaceOnUse" x1="113.0469" y1="227.9028" x2="113.0469" y2="1.4873">
	<stop  offset="0" style="stop-color:#F77800"/>
	<stop  offset="1" style="stop-color:#F7B21E"/>
</linearGradient>
<path style="fill:url(#SVGID_1_);stroke:#000000;stroke-width:1.4173;stroke-miterlimit:10;" d="M225.231,208.393L224.477,207
	L113.049,1.487L1.624,206.993l-0.77,1.42c-0.098,0.316-0.146,0.637-0.146,0.957c0,1.779,1.519,3.5,4.358,5.129
	c13.481,7.74,56.72,13.404,107.979,13.404c0.633,0,0.836-0.001,0.822-0.003c29.979-0.036,57.164-2.007,77.188-5.196h0.004
	c0.01-0.002,0.021-0.004,0.03-0.005c0.458-0.073,0.902-0.148,1.353-0.223c0.506-0.083,1.012-0.167,1.508-0.251
	c0.475-0.082,0.938-0.164,1.402-0.246c0.459-0.082,0.915-0.164,1.365-0.247c0.459-0.084,0.913-0.169,1.362-0.255
	c0.45-0.086,0.892-0.173,1.333-0.26c0.426-0.085,0.855-0.169,1.273-0.255c0.508-0.104,1.003-0.211,1.498-0.317
	c0.57-0.123,1.132-0.246,1.684-0.371c0.514-0.116,1.025-0.232,1.522-0.351c0.356-0.085,0.702-0.171,1.051-0.257
	c0.414-0.103,0.825-0.205,1.228-0.308c0.344-0.089,0.683-0.179,1.018-0.268c0.396-0.106,0.783-0.212,1.166-0.319
	c0.312-0.088,0.626-0.175,0.931-0.264c0.421-0.121,0.827-0.245,1.231-0.369c0.243-0.074,0.494-0.148,0.731-0.224
	c0.61-0.193,1.201-0.389,1.771-0.586c0.197-0.068,0.381-0.138,0.572-0.206c0.391-0.14,0.775-0.279,1.145-0.42
	c0.215-0.083,0.422-0.166,0.631-0.249c0.331-0.132,0.655-0.265,0.969-0.398c0.195-0.083,0.39-0.167,0.578-0.251
	c0.322-0.144,0.63-0.288,0.932-0.434c0.151-0.072,0.309-0.146,0.455-0.219c0.434-0.219,0.852-0.438,1.237-0.66
	c2.832-1.627,4.351-3.344,4.351-5.123C225.385,209.042,225.333,208.717,225.231,208.393z"/>
<line style="fill:none;stroke:#000000;stroke-width:1.4173;stroke-miterlimit:10;" x1="113.049" y1="227.9" x2="113.049" y2="1.487"/>
<path style="fill:#82370D;stroke:#000000;stroke-miterlimit:10;" d="M113.049,4.343c0,0,3.854,102.667,10.599,140.667
	c10.095,56.869,24.03,81.989,24.03,81.989l-34.629,0.9V4.343z"/>
<path style="fill:#561F04;stroke:#000000;stroke-miterlimit:10;" d="M133.111,191.399c-6.51-0.194-13.215-0.295-20.063-0.295v36.799
	c10.996,0.018,23.188-0.531,34.603-1.278C170.992,225.099,145.697,191.775,133.111,191.399z"/>
<linearGradient id="SVGID_2_" gradientUnits="userSpaceOnUse" x1="113.0493" y1="115.6714" x2="174.2349" y2="115.6714">
	<stop  offset="0" style="stop-color:#FF6500"/>
	<stop  offset="0.7441" style="stop-color:#FE6700"/>
	<stop  offset="1" style="stop-color:#F77800"/>
</linearGradient>
<path style="fill:url(#SVGID_2_);stroke:#000000;stroke-width:1.4173;stroke-miterlimit:10;" d="M113.049,4.343
	c0,0,9.187,149.666,61.186,202.668c0,0-9.499,14.498-26.557,19.988c0,0-18.864-27.921-25.608-85.456
	C115.736,87.509,113.049,4.343,113.049,4.343z"/>
</svg>
