<?xml version="1.0" encoding="iso-8859-1"?>
<!-- Generator: Adobe Illustrator 16.0.0, SVG Export Plug-In . SVG Version: 6.00 Build 0)  -->
<!DOCTYPE svg PUBLIC "-//W3C//DTD SVG 1.1//EN" "http://www.w3.org/Graphics/SVG/1.1/DTD/svg11.dtd">
<svg version="1.1" id="Layer_1" xmlns="http://www.w3.org/2000/svg" xmlns:xlink="http://www.w3.org/1999/xlink" x="0px" y="0px"
	 width="61.146px" height="173.717px" viewBox="0 0 61.146 173.717" style="enable-background:new 0 0 61.146 173.717;"
	 xml:space="preserve">
<path style="fill:#925F34;" d="M38.115,105.877c1.252-6.095,11.638-20.445,11.638-20.445l-1.547-2.38c0,0-8.45,18.75-10.545,18.524
	c-1.595-0.172-3.445-21.485-4.444-24.75c-0.448-1.468-1.087,0.53-1.087,0.53s4.604,23.604,1.676,22.756
	c-1.576-0.455-7.198-15.454-10.127-23.393c-0.878-2.382-1.617-0.387-1.617-0.387s9.378,24.858,10.522,27.166
	c1.475,2.977,0.031,47.503-0.539,66.906c-0.135,4.59,9.588,3.475,9.068-0.999C40.352,162.876,37.542,108.665,38.115,105.877z"/>
<g>
	<path style="fill:#664321;" d="M22.677,76.72c2.929,7.938,8.551,22.938,10.127,23.393c0.257,0.074,0.453-0.049,0.602-0.318
		c-1.968-2.245-7.009-15.701-9.729-23.074c-0.589-1.598-1.114-1.226-1.397-0.808C22.408,76.094,22.541,76.349,22.677,76.72z"/>
	<path style="fill:#664321;" d="M33.717,86.629c0.242,1.606,0.47,3.267,0.653,4.855c0.744,5.314,1.545,10.011,2.29,10.092
		c0.178,0.019,0.404-0.107,0.664-0.338c-1.512-2.718-3.178-21.374-4.108-24.412c-0.322-1.055-0.741-0.321-0.953,0.176
		C32.65,78.437,33.154,82.337,33.717,86.629z"/>
	<path style="fill:#664321;" d="M38.115,105.877c1.252-6.095,11.638-20.445,11.638-20.445l-1.547-2.38c0,0-0.151,0.335-0.413,0.904
		l0.96,1.476c0,0-3.457,4.778-6.623,9.991c-0.7,1.288-1.386,2.484-2.016,3.474c-1.46,2.658-3.629,5.18-4,6.98
		c-0.574,2.788,2.237,57,2.997,63.528c0.272,2.338-1.254,3.756-3.709,3.925c2.708,0.207,6.018-1.266,5.709-3.925
		C40.352,162.876,37.542,108.665,38.115,105.877z"/>
</g>
<g>
	<path d="M38.079,105.869c0.434-1.933,1.302-3.727,2.182-5.484c0.899-1.754,1.882-3.463,2.902-5.148
		c2.054-3.363,4.214-6.658,6.482-9.883l-0.004,0.151l-1.564-2.369l0.269-0.021c-1.661,3.72-3.404,7.4-5.273,11.023
		c-0.943,1.807-1.907,3.605-3.02,5.331c-0.281,0.43-0.573,0.855-0.898,1.264c-0.164,0.204-0.332,0.405-0.527,0.596
		c-0.204,0.184-0.387,0.387-0.746,0.495c-0.093,0.023-0.182,0.044-0.333,0.005c-0.024,0.013-0.266-0.137-0.276-0.182
		c-0.124-0.134-0.188-0.26-0.252-0.387c-0.122-0.251-0.211-0.5-0.291-0.75c-0.16-0.499-0.282-0.998-0.398-1.499
		c-0.851-4.009-1.386-8.045-1.903-12.083l-0.792-6.049c-0.143-1.005-0.287-2.011-0.475-3c-0.046-0.247-0.099-0.492-0.158-0.729
		c-0.057-0.233-0.138-0.492-0.216-0.579c-0.016-0.017-0.007,0.001,0.037,0.004c0.042,0,0.042-0.013,0.021,0.005
		c-0.045,0.034-0.112,0.125-0.166,0.219c-0.11,0.192-0.207,0.424-0.281,0.643l0.008-0.14c0.79,4.243,1.493,8.497,2.033,12.779
		c0.261,2.142,0.491,4.291,0.544,6.459c0.01,0.542,0.007,1.086-0.03,1.633c-0.047,0.546-0.086,1.097-0.332,1.651
		c-0.076,0.135-0.151,0.281-0.312,0.39c-0.154,0.113-0.379,0.139-0.548,0.087c-0.377-0.15-0.505-0.396-0.688-0.614
		c-0.329-0.452-0.591-0.927-0.849-1.406c-1.962-3.864-3.484-7.898-5.053-11.912l-2.279-6.049l-1.135-3.025
		c-0.194-0.501-0.347-1.032-0.659-1.418c-0.163-0.197-0.346-0.262-0.517-0.111c-0.172,0.143-0.304,0.385-0.395,0.612l0-0.094
		l7.756,20.123l1.998,5.005l0.518,1.241l0.27,0.609c0.106,0.191,0.195,0.467,0.237,0.684c0.182,0.914,0.238,1.811,0.304,2.713
		c0.214,3.602,0.232,7.199,0.252,10.796c0.027,7.194-0.103,14.384-0.265,21.573l-0.562,21.562l-0.157,5.39l-0.079,2.695
		l-0.039,1.347c-0.019,0.478-0.028,0.842,0.101,1.208c0.233,0.732,0.914,1.251,1.7,1.499c0.787,0.258,1.662,0.301,2.507,0.201
		c0.846-0.104,1.683-0.354,2.409-0.771c0.721-0.413,1.33-1.027,1.535-1.778c0.111-0.387,0.103-0.735,0.041-1.196l-0.125-1.351
		l-0.202-2.693l-0.32-5.386l-0.558-10.772l-0.955-21.549l-0.388-10.778l-0.14-5.391C38.013,109.468,37.918,107.673,38.079,105.869z
		 M38.152,105.885c-0.139,1.777-0.029,3.587,0.002,5.379l0.193,5.388l0.496,10.771c0.355,7.18,0.765,14.357,1.204,21.533
		l0.693,10.759l0.387,5.375l0.206,2.684l0.122,1.333c0.062,0.426,0.085,0.997-0.066,1.477c-0.281,1.005-1.058,1.747-1.88,2.217
		c-0.835,0.479-1.757,0.749-2.692,0.862c-0.935,0.107-1.9,0.066-2.825-0.236c-0.909-0.282-1.84-0.95-2.164-1.966
		c-0.174-0.489-0.155-1.044-0.136-1.459l0.041-1.348l0.082-2.695l0.163-5.389c0.434-14.371,0.818-28.745,0.954-43.115
		c0.012-3.591,0.025-7.188-0.156-10.765c-0.055-0.889-0.108-1.792-0.271-2.645c-0.046-0.224-0.09-0.381-0.198-0.586l-0.271-0.625
		l-0.51-1.252l-1.959-5.027L21.935,76.38l-0.002-0.005c-0.011-0.03-0.01-0.062,0.001-0.089c0.113-0.267,0.24-0.519,0.482-0.726
		c0.117-0.099,0.311-0.177,0.49-0.124c0.176,0.048,0.296,0.163,0.39,0.274c0.365,0.466,0.502,1.003,0.695,1.5l1.116,3.032
		c0.753,2.018,1.531,4.026,2.316,6.031c1.597,3.994,3.158,8.026,5.129,11.833c0.255,0.468,0.521,0.935,0.829,1.353
		c0.145,0.196,0.346,0.425,0.482,0.466c0.17,0.048,0.289-0.053,0.4-0.273c0.351-0.918,0.305-2.052,0.296-3.101
		c-0.069-2.139-0.316-4.279-0.59-6.41c-0.568-4.262-1.301-8.508-2.118-12.73c-0.01-0.047-0.005-0.098,0.008-0.141
		c0.088-0.263,0.185-0.504,0.325-0.755c0.075-0.125,0.148-0.25,0.3-0.38c0.076-0.061,0.195-0.138,0.366-0.132
		c0.173,0.008,0.293,0.106,0.362,0.182c0.245,0.313,0.276,0.571,0.354,0.823c0.065,0.255,0.121,0.508,0.17,0.761
		c0.198,1.01,0.351,2.017,0.501,3.026l0.836,6.051c0.579,4.024,1.002,8.083,1.822,12.043c0.108,0.492,0.223,0.982,0.369,1.455
		c0.072,0.236,0.155,0.468,0.252,0.675c0.049,0.1,0.106,0.202,0.156,0.254c0.014,0.018,0.028,0.028,0.01,0.016
		c-0.021-0.005-0.025,0.006,0.021,0.016c-0.031-0.005,0.016,0.005,0.042-0.009c0.312-0.102,0.695-0.529,0.993-0.894
		c0.312-0.385,0.603-0.796,0.882-1.215c1.112-1.683,2.093-3.467,3.051-5.256c1.904-3.589,3.674-7.255,5.392-10.94
		c0.034-0.078,0.125-0.113,0.202-0.079c0.027,0.012,0.051,0.035,0.067,0.058l1.53,2.391c0.031,0.047,0.027,0.108-0.004,0.151
		c-2.307,3.185-4.526,6.441-6.582,9.798c-1.027,1.678-2.019,3.379-2.924,5.125C39.467,102.183,38.592,103.967,38.152,105.885z"/>
</g>
<g>
	<path style="fill:#81BB27;" d="M60.771,46.569c0-0.769-0.166-1.48-0.437-2.102c0.14-0.541,0.232-1.11,0.232-1.714
		c0-0.35-0.029-0.691-0.079-1.022c0.048-0.332,0.079-0.671,0.079-1.022c0-1.694-0.594-3.188-1.504-4.188
		c0.176-0.556,0.275-1.166,0.275-1.808c0-1.255-0.379-2.391-0.988-3.226c0.23-0.538,0.374-1.152,0.374-1.816
		c0-0.612-0.123-1.18-0.321-1.687c0.323-0.501,0.525-1.144,0.525-1.856c0-0.278-0.039-0.542-0.096-0.797
		c0.188-0.642,0.301-1.334,0.301-2.064c0-3.161-1.925-5.723-4.3-5.723c-0.109,0-0.213,0.033-0.322,0.043
		c0.181-0.561,0.276-1.175,0.301-1.815c0.274-0.977,0.431-2.03,0.431-3.133c0-4.967-3.025-8.994-6.756-8.994
		c-1.457,0-2.803,0.62-3.906,1.664c-0.051,0.003-0.102,0.005-0.151,0.01c-0.817-2.887-2.907-4.944-5.361-4.944
		c-1.767,0-3.345,1.066-4.397,2.739c-0.279,0.013-0.543,0.084-0.796,0.195c-0.501-0.471-1.107-0.753-1.767-0.753
		c-0.256,0-0.5,0.054-0.738,0.133c-0.766-1.083-1.844-1.768-3.05-1.768c-1.887,0-3.465,1.669-3.993,3.951
		c-1.074,0.832-1.804,2.351-1.833,4.114c-0.542-0.767-1.305-1.252-2.158-1.252c-1.64,0-2.968,1.77-2.968,3.952
		c0,0.98,0.278,1.867,0.723,2.558c-1.178,1.081-1.951,2.888-1.951,4.937c0,0.673,0.087,1.319,0.241,1.923
		c-0.902,1.119-1.469,2.71-1.469,4.481c0,0.808,0.12,1.577,0.333,2.283c-0.719,1.156-1.152,2.64-1.152,4.258
		c0,0.421,0.033,0.833,0.089,1.232c-0.03,0-0.059-0.006-0.089-0.006c-1.073,0-2.068,0.441-2.891,1.193
		c-3.112,0.611-5.503,4.17-5.503,8.482c0,1.775,0.404,3.423,1.098,4.792c-3.574,0.234-6.421,4.155-6.421,8.971
		c0,4.967,3.025,8.994,6.756,8.994c0.725,0,1.421-0.155,2.075-0.437c0.208,2.548,1.615,4.613,3.455,5.181
		c-1.013,1.377-1.64,3.259-1.64,5.339c0,4.207,2.556,7.616,5.713,7.63c1.457,1.693,3.358,2.727,5.445,2.727
		c1.792,0,3.446-0.765,4.802-2.051c0.248,0.571,0.707,0.96,1.237,0.96c0.791,0,1.433-0.854,1.433-1.908
		c0-0.707-0.292-1.317-0.722-1.646c0.637-1.189,1.102-2.55,1.345-4.025c0.412,0.472,0.94,0.767,1.527,0.767
		c0.108,0,0.214-0.023,0.32-0.043c-0.003,0.061-0.013,0.118-0.013,0.18c0,0.776,0.289,1.459,0.73,1.88
		c-0.45,0.71-0.73,1.616-0.73,2.617c0,2.258,1.375,4.088,3.071,4.088c0.389,0,0.757-0.106,1.099-0.281
		c0.317,0.341,0.714,0.554,1.153,0.554c0.3,0,0.579-0.104,0.829-0.273c0.049,1.969,1.099,3.598,2.502,3.994
		c0.205,1.423,1.006,2.55,2.042,2.937c-0.03,0.182-0.049,0.37-0.049,0.565c0,1.43,0.871,2.589,1.945,2.589
		c0.972,0,1.77-0.951,1.914-2.19c0.582-0.05,1.042-0.681,1.052-1.463c0.374,0.238,0.789,0.383,1.231,0.383
		c1.583,0,2.866-1.708,2.866-3.815c0-0.047-0.009-0.091-0.011-0.138c0.854-0.589,1.444-1.764,1.444-3.133
		c0-1.548-0.751-2.85-1.79-3.332c1.362-0.296,2.405-1.857,2.405-3.754c0-0.958-0.274-1.824-0.714-2.494
		c1.095-0.203,1.942-1.442,1.942-2.956c0-0.286-0.04-0.557-0.096-0.819c0.959-0.005,1.733-1.039,1.733-2.315
		c0-0.497-0.12-0.956-0.32-1.333c1.47-0.429,2.572-2.168,2.572-4.254c0-1.106-0.32-2.106-0.831-2.875
		c-0.06-2.037-1.31-3.666-2.854-3.666c-0.035,0-0.067,0.012-0.101,0.014c-0.133-0.574-0.4-1.068-0.759-1.41
		c0.082,0.012,0.162,0.033,0.246,0.033c1.033,0,1.895-0.932,2.16-2.195c1.303-0.08,2.344-1.501,2.344-3.255
		c0-0.614-0.136-1.181-0.356-1.672C59.945,49.86,60.771,48.346,60.771,46.569z"/>
	<path style="fill:#81BB27;" d="M58.881,25.605c-0.011-0.072-0.023-0.144-0.038-0.214c-0.012,0.042-0.018,0.089-0.031,0.131
		C58.837,25.548,58.858,25.578,58.881,25.605z"/>
	<path style="fill:#73A724;" d="M54.692,62.412c0.057,0.262,0.096,0.533,0.096,0.819c0,1.514-0.847,2.753-1.942,2.956
		c0.439,0.67,0.714,1.536,0.714,2.494c0,1.896-1.043,3.458-2.405,3.754c1.039,0.482,1.79,1.784,1.79,3.332
		c0,1.369-0.589,2.543-1.443,3.133c0.002,0.047,0.011,0.091,0.011,0.138c0,2.107-1.284,3.815-2.866,3.815
		c-0.442,0-0.857-0.145-1.231-0.383c-0.01,0.782-0.47,1.413-1.052,1.463c-0.144,1.239-0.942,2.19-1.914,2.19
		c-1.074,0-1.945-1.16-1.945-2.589c0-0.195,0.019-0.383,0.049-0.565c-1.035-0.387-1.837-1.514-2.042-2.937
		c-1.403-0.396-2.454-2.025-2.502-3.994c-0.25,0.169-0.53,0.273-0.829,0.273c-0.438,0-0.836-0.213-1.153-0.554
		c-0.342,0.175-0.71,0.281-1.099,0.281c-1.696,0-5.35-4.959-8.198-2.868c-1.356,1.286-3.011,2.051-4.802,2.051
		c-2.086,0-4.164-3.448-5.621-5.142c-3.158-0.014-3.005-1.793-3.005-6c0-2.08-1.905-3.177-0.892-4.554
		c-1.84-0.568-3.247-2.633-3.455-5.181c-0.654,0.281-1.351,0.437-2.075,0.437c-2.097,0-3.971-1.272-5.21-3.268
		c-0.811,1.481-1.295,3.3-1.295,5.274c0,4.967,3.025,8.994,6.756,8.994c0.725,0,1.421-0.155,2.075-0.437
		c0.208,2.548,1.615,4.613,3.455,5.181c-1.013,1.377-1.64,3.259-1.64,5.339c0,4.207,2.556,7.616,5.713,7.63
		c1.457,1.693,3.358,2.727,5.445,2.727c1.792,0,3.446-0.765,4.802-2.051c0.248,0.571,0.707,0.96,1.237,0.96
		c0.791,0,1.433-0.854,1.433-1.908c0-0.707-0.292-1.317-0.722-1.646c0.637-1.189,1.102-2.55,1.345-4.025
		c0.412,0.472,0.94,0.767,1.527,0.767c0.108,0,0.214-0.023,0.32-0.043c-0.003,0.061-0.013,0.118-0.013,0.18
		c0,0.776,0.289,1.459,0.73,1.88c-0.45,0.71-0.73,1.616-0.73,2.617c0,2.258,1.375,4.088,3.071,4.088
		c0.389,0,0.757-0.106,1.099-0.281c0.317,0.341,0.714,0.554,1.153,0.554c0.3,0,0.579-0.104,0.829-0.273
		c0.049,1.969,1.099,3.598,2.502,3.994c0.205,1.423,1.006,2.55,2.042,2.937c-0.03,0.182-0.049,0.37-0.049,0.565
		c0,1.43,0.871,2.589,1.945,2.589c0.972,0,1.77-0.951,1.914-2.19c0.582-0.05,1.042-0.681,1.052-1.463
		c0.374,0.238,0.789,0.383,1.231,0.383c1.583,0,2.866-1.708,2.866-3.815c0-0.047-0.009-0.091-0.011-0.138
		c0.854-0.589,1.444-1.764,1.444-3.133c0-1.548-0.751-2.85-1.79-3.332c1.362-0.296,2.405-1.857,2.405-3.754
		c0-0.958-0.274-1.824-0.714-2.494c1.095-0.203,1.942-1.442,1.942-2.956c0-0.286-0.04-0.557-0.096-0.819
		c0.959-0.005,1.733-1.039,1.733-2.315c0-0.497-0.12-0.956-0.32-1.333c1.47-0.429,2.572-2.168,2.572-4.254
		c0-1.106-0.32-2.106-0.831-2.875c-0.045-1.545-0.777-2.852-1.802-3.394c0.081,0.266,0.129,0.552,0.129,0.856
		C56.426,61.373,55.651,62.407,54.692,62.412z"/>
	<path style="fill:#81BB27;" d="M59.088,23.714c0,0.244-0.027,0.477-0.055,0.71c0.062-0.374,0.1-0.758,0.1-1.157
		c0-1.263-0.311-2.426-0.832-3.373C58.246,20.1,58.18,20.3,58.1,20.488C58.709,21.323,59.088,22.458,59.088,23.714z"/>
	<path style="fill:#81BB27;" d="M60.771,46.569c0-0.769-0.166-1.48-0.437-2.102c0.14-0.541,0.232-1.11,0.232-1.714
		c0-0.35-0.029-0.691-0.079-1.022c0.048-0.332,0.079-0.671,0.079-1.022c0-1.023-0.22-1.971-0.591-2.783
		c-0.354,0.693-0.857,1.241-1.449,1.558c0.221,0.491,0.356,1.058,0.356,1.672c0,1.754-1.041,3.175-2.344,3.255
		c-0.266,1.263-1.127,2.195-2.16,2.195c-0.083,0-0.164-0.021-0.246-0.033c0.359,0.342,0.625,0.835,0.759,1.41
		c0.034-0.002,0.066-0.014,0.101-0.014c1.544,0,2.795,1.629,2.854,3.666c0.443,0.667,0.729,1.514,0.8,2.448
		c0.301-0.541,0.486-1.201,0.486-1.927c0-0.614-0.136-1.181-0.356-1.672C59.945,49.86,60.771,48.346,60.771,46.569z"/>
	<path style="fill:#81BB27;" d="M58.844,25.391c0.09-0.308,0.151-0.631,0.19-0.966c-0.051,0.311-0.115,0.616-0.201,0.908
		C58.838,25.351,58.839,25.372,58.844,25.391z"/>
	<g>
		<g>
			<path d="M60.734,46.571L60.618,45.5c-0.042-0.172-0.106-0.339-0.159-0.509l-0.164-0.507c-0.003-0.008-0.003-0.02-0.002-0.028
				l0.134-0.672c0.057-0.223,0.043-0.454,0.068-0.68c0.026-0.23,0.028-0.451-0.002-0.682l-0.055-0.687v-0.006v-0.005l0.052-0.689
				c0.031-0.23,0.022-0.451-0.008-0.687l-0.062-0.693c-0.002-0.236-0.105-0.446-0.153-0.67c-0.064-0.22-0.111-0.445-0.19-0.66
				l-0.298-0.621l-0.149-0.311l-0.205-0.276l-0.409-0.552c-0.014-0.018-0.018-0.042-0.014-0.063l0.146-0.633
				c0.063-0.209,0.066-0.427,0.083-0.643c0.006-0.214,0.053-0.436,0.027-0.645l-0.051-0.655c-0.013-0.22-0.089-0.422-0.129-0.633
				c-0.04-0.212-0.101-0.418-0.193-0.615c-0.09-0.196-0.142-0.411-0.262-0.591l-0.336-0.552c-0.014-0.023-0.016-0.052-0.009-0.077
				l0.263-0.841l0.087-0.876c0.014-0.074-0.003-0.131-0.009-0.213l-0.023-0.223l-0.046-0.446c-0.021-0.147-0.079-0.28-0.116-0.42
				l-0.125-0.416c-0.009-0.031-0.004-0.065,0.009-0.092c0.102-0.198,0.222-0.386,0.285-0.601c0.089-0.205,0.121-0.427,0.168-0.645
				c0.022-0.109,0.018-0.222,0.028-0.332l0.011-0.167c0.008-0.058-0.003-0.089-0.01-0.157l-0.087-0.684l0-0.026l0.004-0.021
				c0.071-0.417,0.214-0.823,0.228-1.246l0.042-0.632c0.026-0.198-0.009-0.425-0.011-0.636c-0.053-0.836-0.265-1.672-0.62-2.43
				c-0.349-0.762-0.871-1.445-1.532-1.939c-0.171-0.113-0.338-0.236-0.525-0.32c-0.181-0.097-0.372-0.168-0.567-0.228
				c-0.195-0.054-0.395-0.1-0.597-0.114l-0.294-0.019l-0.32,0.044c-0.098,0.013-0.188-0.055-0.201-0.152
				c-0.003-0.021-0.002-0.043,0.002-0.063l0.008-0.034c0.065-0.291,0.136-0.579,0.199-0.87l0.083-0.895l0.006-0.038l0.001-0.008
				l0.245-1.2c0.108-0.396,0.074-0.812,0.119-1.216c0.036-0.413,0.053-0.804,0.019-1.224c-0.003-0.422-0.08-0.81-0.12-1.214
				c-0.086-0.397-0.14-0.803-0.265-1.191c-0.098-0.396-0.243-0.775-0.385-1.156c-0.167-0.369-0.318-0.748-0.53-1.092
				c-0.188-0.359-0.427-0.686-0.658-1.015c-0.255-0.312-0.512-0.621-0.809-0.892c-0.293-0.27-0.598-0.535-0.94-0.736
				c-0.329-0.224-0.691-0.393-1.059-0.533c-0.369-0.143-0.755-0.224-1.144-0.283l-0.588-0.037l-0.589,0.064
				c-0.435,0.013-0.781,0.162-1.143,0.28c-0.37,0.086-0.695,0.358-1.046,0.525c-0.331,0.214-0.622,0.492-0.936,0.733l-0.026,0.021
				C44.716,5.59,44.658,5.61,44.6,5.614l-0.142,0.01c-0.144,0.01-0.271-0.078-0.317-0.207l-0.005-0.015l-0.268-0.752
				c-0.075-0.257-0.212-0.486-0.328-0.724c-0.119-0.237-0.23-0.479-0.392-0.688c-0.155-0.212-0.285-0.446-0.459-0.641l-0.532-0.578
				l-0.609-0.484c-0.203-0.162-0.448-0.253-0.668-0.385c-0.217-0.146-0.477-0.179-0.714-0.271c-0.238-0.102-0.496-0.107-0.748-0.137
				l-0.357-0.038l-0.412,0.029c-0.293,0.001-0.491,0.1-0.743,0.138c-0.235,0.093-0.486,0.162-0.711,0.287
				c-0.459,0.232-0.888,0.535-1.261,0.901c-0.203,0.166-0.354,0.386-0.533,0.577c-0.167,0.203-0.308,0.428-0.464,0.64
				c-0.06,0.081-0.146,0.13-0.239,0.144l-0.011,0.001l-0.346,0.05L34,3.591c-0.11,0.038-0.227,0.018-0.315-0.044l-0.02-0.014
				c-0.166-0.116-0.305-0.28-0.49-0.36c-0.17-0.112-0.355-0.183-0.546-0.236c-0.092-0.042-0.192-0.041-0.289-0.053l-0.147-0.017
				l-0.073-0.009c0.032-0.005-0.04,0.003-0.055,0.004c-0.109,0.013-0.233,0.017-0.331,0.037l-0.268,0.072l-0.015,0.004
				c-0.125,0.034-0.253-0.016-0.324-0.115c-0.445-0.616-1.021-1.152-1.711-1.429c-0.172-0.067-0.346-0.13-0.529-0.159
				c-0.178-0.053-0.364-0.044-0.547-0.064l-0.571,0.059c-0.204,0.019-0.342,0.109-0.518,0.154c-0.17,0.036-0.328,0.156-0.491,0.243
				c-0.169,0.082-0.319,0.194-0.458,0.325c-0.142,0.125-0.299,0.232-0.413,0.389c-0.121,0.147-0.253,0.286-0.366,0.44l-0.306,0.49
				c-0.11,0.158-0.167,0.349-0.253,0.521c-0.181,0.344-0.253,0.732-0.378,1.101l-0.006,0.02c-0.018,0.053-0.05,0.097-0.089,0.13
				c-0.277,0.23-0.536,0.486-0.75,0.784c-0.214,0.296-0.396,0.618-0.54,0.958c-0.146,0.339-0.251,0.696-0.329,1.059
				c-0.077,0.364-0.108,0.735-0.128,1.108c-0.007,0.139-0.125,0.245-0.264,0.238c-0.071-0.004-0.134-0.037-0.177-0.087l-0.009-0.011
				l-0.405-0.475l-0.485-0.376c-0.188-0.073-0.366-0.173-0.557-0.231c-0.188-0.015-0.416-0.08-0.571-0.065
				c-0.207,0.045-0.478,0.022-0.631,0.123c-0.172,0.082-0.357,0.124-0.518,0.267c-0.169,0.116-0.339,0.233-0.468,0.401
				c-0.146,0.149-0.284,0.305-0.384,0.494c-0.115,0.176-0.229,0.354-0.297,0.558c-0.077,0.197-0.177,0.387-0.211,0.6
				c-0.04,0.209-0.119,0.412-0.128,0.626l-0.051,0.626l0.044,0.669c0.035,0.21,0.086,0.41,0.125,0.616
				c0.059,0.203,0.143,0.401,0.212,0.603c0.091,0.192,0.199,0.375,0.297,0.564l0.002,0.005c0.046,0.088,0.028,0.193-0.037,0.261
				c-0.203,0.215-0.422,0.414-0.591,0.661c-0.193,0.227-0.332,0.493-0.489,0.746c-0.264,0.534-0.504,1.089-0.622,1.679
				c-0.085,0.289-0.104,0.591-0.155,0.888c-0.021,0.148-0.019,0.3-0.03,0.45c-0.003,0.146-0.025,0.31-0.013,0.441l0.058,0.922
				l0.164,0.876c0.01,0.055-0.002,0.108-0.031,0.152l-0.003,0.005l-0.478,0.718c-0.181,0.228-0.248,0.52-0.378,0.776
				c-0.124,0.262-0.234,0.529-0.287,0.816c-0.066,0.282-0.149,0.561-0.204,0.845l-0.072,0.868c-0.006,0.141-0.038,0.299-0.023,0.424
				l0.031,0.444c0.032,0.291,0.013,0.601,0.096,0.875l0.185,0.842c0.009,0.041,0.003,0.082-0.013,0.117l-0.003,0.007
				c-0.198,0.419-0.476,0.803-0.602,1.256l-0.235,0.659l-0.142,0.686c-0.125,0.453-0.109,0.926-0.155,1.391
				c-0.012,0.125-0.016,0.222-0.002,0.343l0.024,0.355l0.048,0.71l0.001,0.014c0.004,0.064-0.044,0.12-0.108,0.125l-0.023,0
				c-0.069-0.009-0.109-0.004-0.189,0.004l-0.205,0.02l-0.409,0.041c-0.135,0.017-0.251,0.072-0.378,0.106l-0.375,0.115
				c-0.238,0.116-0.471,0.247-0.708,0.368l-0.636,0.49l-0.004,0.003c-0.016,0.012-0.034,0.021-0.052,0.025
				c-0.313,0.078-0.628,0.151-0.926,0.283c-0.3,0.119-0.588,0.272-0.859,0.448c-0.277,0.169-0.528,0.375-0.777,0.583
				c-0.233,0.226-0.475,0.444-0.676,0.701c-0.852,0.986-1.418,2.198-1.767,3.451c-0.167,0.631-0.283,1.275-0.334,1.926
				c-0.036,0.321-0.027,0.66-0.044,0.97L5.9,44.008c0.003,0.335,0.084,0.647,0.135,0.967c0.053,0.319,0.106,0.639,0.214,0.948
				c0.103,0.309,0.167,0.631,0.3,0.928l0.389,0.895c0.037,0.083,0,0.18-0.083,0.217c-0.015,0.007-0.033,0.011-0.048,0.013
				c-0.533,0.062-1.069,0.154-1.563,0.374c-0.506,0.188-0.961,0.489-1.399,0.804c-0.418,0.343-0.814,0.717-1.15,1.144
				c-0.34,0.422-0.649,0.874-0.896,1.359c-0.263,0.477-0.473,0.983-0.645,1.5c-0.177,0.516-0.311,1.047-0.401,1.585
				c-0.096,0.537-0.156,1.082-0.166,1.627c-0.028,0.539,0.003,1.101,0.06,1.64c0.113,1.075,0.381,2.151,0.814,3.146
				c0.219,0.497,0.472,0.979,0.774,1.428c0.301,0.448,0.634,0.879,1.025,1.249c0.374,0.388,0.812,0.704,1.267,0.981
				C4.988,65.078,5.482,65.286,6,65.4c0.259,0.053,0.518,0.112,0.784,0.113c0.122,0.005,0.288,0.024,0.372,0.018l0.414-0.045
				c0.579-0.016,1.044-0.225,1.537-0.375l0.012-0.003c0.142-0.043,0.292,0.036,0.335,0.178l0.009,0.04l0.116,0.787
				c0.043,0.262,0.134,0.512,0.197,0.769c0.055,0.261,0.191,0.491,0.281,0.739c0.086,0.251,0.243,0.465,0.368,0.695
				c0.117,0.237,0.301,0.426,0.457,0.635c0.146,0.219,0.362,0.369,0.544,0.553c0.18,0.188,0.42,0.292,0.625,0.445
				c0.102,0.081,0.231,0.104,0.345,0.161l0.351,0.147c0.156,0.065,0.23,0.244,0.166,0.4l-0.021,0.041l-0.502,0.835
				c-0.191,0.266-0.273,0.589-0.403,0.887c-0.115,0.305-0.263,0.598-0.312,0.925l-0.216,0.956c-0.052,0.322-0.053,0.652-0.083,0.977
				c-0.025,0.336-0.055,0.636-0.025,0.98c0.02,0.677,0.125,1.291,0.279,1.936c0.32,1.262,0.914,2.46,1.792,3.396
				c0.22,0.233,0.455,0.448,0.708,0.639c0.257,0.184,0.518,0.366,0.805,0.493c0.277,0.148,0.579,0.242,0.88,0.318
				c0.303,0.08,0.613,0.1,0.924,0.119l0.008,0c0.099,0.005,0.186,0.05,0.248,0.118c0.316,0.344,0.637,0.683,0.997,0.979
				c0.167,0.164,0.37,0.28,0.552,0.422c0.182,0.146,0.388,0.251,0.587,0.369c0.195,0.125,0.406,0.217,0.618,0.308
				c0.208,0.103,0.424,0.179,0.645,0.24c0.217,0.076,0.438,0.136,0.666,0.167c0.225,0.045,0.45,0.088,0.68,0.09l0.343,0.021
				l0.086,0.006c-0.044,0.005,0.04-0.004,0.053-0.005l0.181-0.019l0.723-0.077c0.119-0.015,0.244-0.021,0.358-0.043l0.317-0.107
				l0.635-0.208c0.218-0.045,0.409-0.201,0.614-0.3l0.606-0.334c0.195-0.124,0.365-0.287,0.548-0.427l0.542-0.437
				c0.159-0.128,0.392-0.103,0.52,0.056l0.031,0.045l0.007,0.012l0.158,0.275c0.051,0.093,0.137,0.147,0.199,0.226
				c0.06,0.09,0.159,0.1,0.232,0.158c0.075,0.068,0.169,0.044,0.251,0.072l0.064,0.015c-0.074,0.015,0.034-0.003,0.042-0.003
				l0.19-0.025c0.088-0.043,0.125-0.047,0.208-0.104c0.157-0.102,0.3-0.252,0.401-0.438c0.109-0.179,0.175-0.389,0.218-0.603
				c0.025-0.106,0.02-0.219,0.033-0.328c0.013-0.037-0.019-0.229-0.026-0.337l-0.02-0.19l-0.052-0.139
				c-0.042-0.09-0.041-0.19-0.109-0.277c-0.058-0.086-0.102-0.186-0.164-0.265l-0.21-0.213l-0.015-0.015
				c-0.115-0.117-0.142-0.288-0.081-0.43l0.407-0.951l0.205-0.475c0.064-0.16,0.145-0.313,0.197-0.478l0.497-2.014
				c0.049-0.197,0.249-0.318,0.446-0.269c0.059,0.015,0.111,0.042,0.153,0.08l0.017,0.014c0.112,0.099,0.211,0.218,0.33,0.304
				c0.126,0.068,0.235,0.182,0.373,0.214c0.13,0.057,0.262,0.103,0.402,0.105l0.103,0.014l0.052,0.008
				c-0.046,0.001,0.024-0.005,0.031-0.007l0.258-0.035c0.188-0.025,0.36,0.106,0.386,0.293c0.003,0.024,0.003,0.054,0.001,0.077
				l-0.01,0.127l-0.002,0.032c-0.003-0.056,0.001,0.004,0.001,0.001l0.006,0.07l0.026,0.28c0.009,0.092,0.012,0.194,0.042,0.258
				l0.066,0.217c0.023,0.149,0.133,0.285,0.195,0.43c0.029,0.077,0.089,0.128,0.137,0.189l0.147,0.18l0.014,0.017
				c0.103,0.126,0.114,0.297,0.042,0.433l-0.258,0.484c-0.074,0.167-0.128,0.344-0.194,0.515c-0.07,0.17-0.084,0.359-0.13,0.537
				c-0.049,0.178-0.055,0.364-0.067,0.549l-0.02,0.277c-0.014,0.036,0.009,0.181,0.012,0.266l0.045,0.594l0.125,0.518
				c0.025,0.175,0.115,0.342,0.18,0.512c0.066,0.172,0.134,0.342,0.241,0.489c0.104,0.146,0.172,0.324,0.303,0.447
				c0.124,0.127,0.233,0.271,0.365,0.387l0.424,0.305l0.472,0.195l0.499,0.071c0.089,0.006,0.364-0.043,0.537-0.062l0.439-0.173
				c0.151-0.06,0.316-0.024,0.431,0.076c0.112,0.1,0.219,0.21,0.346,0.274c0.059,0.045,0.124,0.069,0.189,0.089
				c0.064,0.024,0.128,0.054,0.196,0.052l0.1,0.012l0.05,0.008l0.006,0.001c-0.117,0.01-0.028,0.002-0.051,0.004l0.017-0.003
				l0.034-0.006l0.271-0.046c0.039-0.011,0.104-0.008,0.122-0.03l0.076-0.049c0.051-0.031,0.103-0.057,0.158-0.081l0.046-0.02
				c0.191-0.082,0.412,0.007,0.493,0.198c0.016,0.037,0.025,0.076,0.029,0.114l0.053,0.584c0.019,0.195,0.079,0.382,0.115,0.573
				c0.029,0.195,0.123,0.368,0.182,0.552c0.054,0.188,0.162,0.349,0.249,0.52c0.079,0.178,0.207,0.319,0.317,0.473
				c0.102,0.164,0.254,0.274,0.384,0.409c0.125,0.143,0.3,0.21,0.445,0.323c0.072,0.061,0.164,0.073,0.245,0.112l0.25,0.103
				l0.028,0.012c0.126,0.052,0.211,0.165,0.235,0.289c0.053,0.284,0.111,0.565,0.211,0.834c0.099,0.268,0.22,0.526,0.375,0.761
				c0.151,0.237,0.334,0.448,0.539,0.629c0.205,0.182,0.44,0.313,0.682,0.418c0.16,0.069,0.25,0.231,0.236,0.395l-0.001,0.01
				l-0.035,0.407c-0.026,0.072,0.013,0.282,0.016,0.416c0.003,0.164,0.041,0.28,0.07,0.401c0.021,0.123,0.063,0.246,0.12,0.369
				c0.044,0.127,0.102,0.246,0.178,0.352c0.062,0.117,0.139,0.22,0.231,0.307c0.079,0.104,0.178,0.176,0.279,0.243
				c0.092,0.087,0.209,0.11,0.314,0.161c0.106,0.054,0.226,0.034,0.336,0.064c0.034-0.004,0.302-0.02,0.373-0.058
				c0.087-0.044,0.178-0.06,0.281-0.142c0.106-0.056,0.195-0.144,0.283-0.233c0.099-0.076,0.156-0.202,0.238-0.299
				c0.072-0.107,0.121-0.233,0.185-0.348l0.13-0.379l0.074-0.398c0.031-0.167,0.16-0.292,0.316-0.325l0.023-0.005
				c0.092-0.019,0.185-0.043,0.271-0.108c0.086-0.062,0.168-0.146,0.231-0.251c0.131-0.207,0.201-0.47,0.208-0.735
				c0.005-0.209,0.179-0.374,0.388-0.368c0.063,0.001,0.123,0.019,0.175,0.048l0.014,0.008c0.209,0.119,0.422,0.237,0.65,0.279
				c0.111,0.038,0.227,0.035,0.34,0.049c0.025,0.009,0.246-0.028,0.359-0.04l0.208-0.026l0.146-0.069
				c0.097-0.049,0.197-0.071,0.297-0.131l0.296-0.212c0.107-0.059,0.181-0.166,0.268-0.254c0.184-0.169,0.315-0.387,0.448-0.604
				c0.146-0.209,0.208-0.468,0.319-0.698c0.063-0.25,0.133-0.502,0.176-0.757l0.031-0.39c0.008-0.137,0.032-0.248,0.013-0.393
				c-0.013-0.1,0.03-0.194,0.104-0.251l0.04-0.03c0.219-0.166,0.43-0.352,0.596-0.583c0.171-0.225,0.319-0.476,0.422-0.747
				c0.115-0.265,0.194-0.549,0.238-0.838c0.03-0.144,0.048-0.289,0.051-0.437c0.01-0.162,0.021-0.269,0.005-0.435
				c-0.014-0.152-0.005-0.327-0.037-0.459l-0.078-0.417c-0.078-0.283-0.175-0.557-0.308-0.816c-0.138-0.254-0.301-0.492-0.496-0.7
				c-0.197-0.206-0.426-0.367-0.67-0.498c-0.142-0.076-0.196-0.253-0.12-0.396c0.037-0.068,0.096-0.116,0.164-0.139l0.016-0.005
				l0.386-0.129c0.126-0.049,0.238-0.137,0.359-0.202c0.126-0.058,0.215-0.175,0.324-0.262c0.111-0.086,0.204-0.193,0.287-0.311
				c0.083-0.116,0.188-0.215,0.248-0.348l0.209-0.378c0.095-0.274,0.226-0.537,0.269-0.828c0.078-0.283,0.099-0.576,0.116-0.869
				c0.021-0.146,0-0.267-0.008-0.437c-0.015-0.151-0.011-0.316-0.04-0.456l-0.09-0.417c-0.018-0.141-0.087-0.275-0.132-0.413
				c-0.083-0.283-0.243-0.528-0.377-0.787c-0.065-0.126-0.016-0.282,0.111-0.348l0.023-0.011l0.023-0.009
				c0.156-0.062,0.33-0.073,0.471-0.177c0.156-0.072,0.29-0.181,0.417-0.301c0.138-0.107,0.228-0.269,0.346-0.399
				c0.082-0.159,0.188-0.305,0.252-0.475c0.057-0.171,0.144-0.333,0.17-0.514c0.039-0.178,0.086-0.354,0.089-0.538l0.021-0.273
				c0.009-0.045-0.016-0.178-0.022-0.263l-0.064-0.577c-0.013-0.112,0.067-0.214,0.178-0.229l0.03-0.004l0.238-0.032
				c0.083,0,0.152-0.056,0.229-0.079c0.079-0.023,0.149-0.066,0.214-0.12c0.064-0.054,0.145-0.085,0.196-0.156
				c0.121-0.121,0.231-0.251,0.314-0.407c0.105-0.14,0.145-0.319,0.22-0.477c0.031-0.174,0.102-0.342,0.105-0.521l0.022-0.267
				c0.011-0.043-0.016-0.175-0.021-0.258c-0.03-0.183-0.022-0.393-0.084-0.553l-0.181-0.48c-0.041-0.101,0.011-0.218,0.11-0.262
				l0.45-0.184c0.145-0.072,0.273-0.178,0.412-0.264c0.145-0.08,0.243-0.222,0.367-0.329c0.126-0.107,0.224-0.242,0.32-0.378
				c0.214-0.256,0.348-0.568,0.502-0.864c0.108-0.318,0.241-0.629,0.29-0.965c0.029-0.166,0.083-0.328,0.083-0.498l0.036-0.505
				c0.015-0.146-0.016-0.339-0.021-0.506c-0.019-0.17-0.006-0.354-0.054-0.511l-0.105-0.488c-0.027-0.165-0.109-0.317-0.161-0.477
				c-0.097-0.327-0.289-0.606-0.444-0.905l-0.003-0.007c-0.011-0.021-0.018-0.045-0.02-0.068l-0.062-0.63
				c-0.024-0.209-0.096-0.41-0.141-0.616c-0.038-0.209-0.153-0.391-0.225-0.589c-0.067-0.202-0.208-0.363-0.312-0.544
				c-0.098-0.189-0.269-0.318-0.401-0.479c-0.135-0.161-0.329-0.25-0.49-0.381c-0.082-0.066-0.187-0.084-0.279-0.13
				c-0.096-0.037-0.189-0.083-0.287-0.114l-0.305-0.041c-0.106-0.009-0.197-0.044-0.308-0.017c-0.048,0.012-0.098-0.018-0.11-0.066
				l-0.006-0.024c-0.066-0.253-0.149-0.5-0.266-0.733c-0.061-0.115-0.136-0.22-0.203-0.331c-0.079-0.102-0.168-0.195-0.251-0.293
				l-0.008-0.009c-0.038-0.046-0.032-0.114,0.013-0.152c0.024-0.021,0.056-0.029,0.085-0.024l0.207,0.03
				c0.047,0.005,0.141-0.012,0.208-0.017c0.156-0.004,0.282-0.053,0.409-0.099c0.132-0.029,0.246-0.131,0.371-0.192
				c0.118-0.078,0.218-0.182,0.328-0.271c0.194-0.211,0.36-0.447,0.492-0.705c0.126-0.261,0.216-0.537,0.287-0.819
				c0.009-0.037,0.039-0.063,0.074-0.07l0.009-0.001l0.358-0.067c0.124-0.007,0.226-0.088,0.339-0.13
				c0.114-0.045,0.222-0.102,0.314-0.185c0.095-0.078,0.203-0.141,0.287-0.231l0.245-0.278c0.089-0.087,0.135-0.208,0.206-0.31
				c0.145-0.204,0.22-0.444,0.316-0.674c0.052-0.114,0.063-0.241,0.097-0.361c0.023-0.123,0.067-0.242,0.075-0.367l0.03-0.375
				c0.018-0.125,0.017-0.236-0.004-0.37l-0.039-0.38c-0.02-0.125-0.013-0.258-0.053-0.375l-0.231-0.709
				c-0.01-0.03,0.002-0.062,0.026-0.078c0.154-0.106,0.322-0.194,0.466-0.315c0.134-0.132,0.293-0.24,0.406-0.393
				c0.114-0.15,0.253-0.283,0.341-0.452c0.095-0.164,0.209-0.316,0.277-0.495c0.167-0.341,0.283-0.705,0.366-1.075
				c0.03-0.188,0.077-0.373,0.093-0.562L60.734,46.571z M60.809,46.567l-0.031,0.58c-0.014,0.192-0.06,0.381-0.089,0.572
				c-0.081,0.377-0.195,0.749-0.362,1.099c-0.067,0.183-0.183,0.341-0.278,0.509c-0.089,0.174-0.229,0.312-0.346,0.468
				c-0.115,0.158-0.278,0.271-0.415,0.41c-0.148,0.126-0.322,0.22-0.482,0.332l0.027-0.078l0.248,0.741
				c0.042,0.124,0.037,0.252,0.057,0.378l0.043,0.379c0.052,0.249-0.015,0.528-0.018,0.778c-0.007,0.129-0.05,0.254-0.074,0.381
				c-0.034,0.125-0.044,0.256-0.097,0.376c-0.097,0.241-0.174,0.491-0.323,0.708c-0.072,0.108-0.12,0.233-0.213,0.328l-0.257,0.297
				c-0.088,0.097-0.203,0.167-0.304,0.25c-0.099,0.09-0.214,0.152-0.338,0.204c-0.123,0.048-0.233,0.133-0.369,0.145l-0.393,0.077
				l0.083-0.072c-0.07,0.297-0.162,0.588-0.293,0.866c-0.137,0.274-0.312,0.529-0.52,0.759c-0.119,0.1-0.227,0.213-0.355,0.3
				c-0.14,0.073-0.256,0.18-0.417,0.221c-0.154,0.057-0.309,0.11-0.454,0.114c-0.08,0.006-0.135,0.023-0.235,0.021l-0.235-0.03
				l0.09-0.185c0.093,0.106,0.192,0.208,0.28,0.319c0.074,0.119,0.157,0.234,0.224,0.358c0.129,0.25,0.221,0.514,0.294,0.785
				l-0.117-0.09c0.104-0.028,0.229,0.005,0.338,0.015l0.341,0.044c0.108,0.033,0.213,0.081,0.32,0.121
				c0.103,0.048,0.22,0.072,0.31,0.142c0.178,0.138,0.392,0.24,0.54,0.411c0.146,0.17,0.332,0.312,0.439,0.512
				c0.114,0.192,0.265,0.367,0.339,0.579c0.08,0.208,0.202,0.403,0.245,0.624c0.051,0.217,0.128,0.43,0.156,0.651l0.071,0.666
				l-0.023-0.074c0.17,0.314,0.375,0.613,0.482,0.957c0.057,0.169,0.143,0.328,0.176,0.507l0.118,0.53
				c0.051,0.179,0.039,0.349,0.06,0.523c0.007,0.179,0.039,0.332,0.027,0.533l-0.033,0.535c0,0.179-0.053,0.353-0.083,0.528
				c-0.049,0.356-0.186,0.69-0.299,1.031c-0.161,0.32-0.303,0.655-0.533,0.938c-0.103,0.149-0.208,0.296-0.346,0.418
				c-0.136,0.121-0.243,0.274-0.404,0.368c-0.154,0.1-0.298,0.217-0.461,0.301l-0.513,0.214l0.11-0.262l0.224,0.589
				c0.07,0.197,0.061,0.38,0.094,0.571c0.008,0.106,0.032,0.163,0.028,0.31l-0.021,0.303c-0.002,0.204-0.076,0.398-0.113,0.598
				c-0.082,0.187-0.129,0.39-0.25,0.562c-0.097,0.184-0.228,0.346-0.376,0.497c-0.063,0.084-0.165,0.134-0.246,0.202
				c-0.083,0.068-0.174,0.125-0.279,0.161c-0.103,0.035-0.196,0.101-0.308,0.108l-0.328,0.046l0.208-0.233l0.071,0.576
				c0.009,0.107,0.031,0.167,0.028,0.314l-0.019,0.305c-0.002,0.205-0.05,0.404-0.092,0.605c-0.029,0.204-0.122,0.392-0.187,0.587
				c-0.071,0.193-0.19,0.368-0.285,0.552c-0.136,0.16-0.241,0.345-0.406,0.481c-0.153,0.148-0.318,0.284-0.514,0.381
				c-0.177,0.126-0.403,0.16-0.608,0.233l0.157-0.367c0.157,0.287,0.338,0.563,0.436,0.876c0.053,0.155,0.128,0.3,0.155,0.467
				l0.108,0.49c0.033,0.163,0.029,0.311,0.046,0.467c0.009,0.139,0.034,0.327,0.015,0.489c-0.015,0.325-0.035,0.649-0.117,0.967
				c-0.046,0.324-0.186,0.626-0.293,0.936l-0.233,0.437c-0.068,0.151-0.188,0.273-0.283,0.409c-0.096,0.137-0.204,0.264-0.336,0.373
				c-0.129,0.108-0.235,0.244-0.391,0.323c-0.148,0.085-0.286,0.19-0.445,0.256l-0.492,0.17l0.06-0.539
				c0.316,0.16,0.605,0.362,0.848,0.61c0.24,0.25,0.438,0.531,0.604,0.829c0.159,0.302,0.277,0.619,0.37,0.944
				c0.04,0.167,0.068,0.34,0.101,0.51c0.037,0.175,0.028,0.319,0.045,0.48c0.017,0.149,0.011,0.356,0,0.509
				c-0.002,0.168-0.021,0.335-0.052,0.501c-0.046,0.333-0.134,0.664-0.264,0.978c-0.25,0.63-0.656,1.221-1.236,1.638l0.144-0.281
				c0.021,0.134-0.001,0.302-0.008,0.444l-0.032,0.446c-0.045,0.294-0.12,0.587-0.193,0.877c-0.123,0.275-0.197,0.572-0.366,0.829
				c-0.154,0.264-0.312,0.525-0.537,0.745c-0.107,0.112-0.198,0.239-0.335,0.324l-0.383,0.279c-0.138,0.084-0.311,0.142-0.468,0.208
				l-0.242,0.091l-0.208,0.029c-0.164,0.017-0.22,0.046-0.473,0.052c-0.164-0.014-0.332-0.015-0.489-0.062
				c-0.325-0.062-0.614-0.211-0.888-0.368l0.576-0.312c-0.01,0.388-0.107,0.781-0.327,1.129c-0.107,0.174-0.253,0.333-0.433,0.461
				c-0.179,0.131-0.403,0.21-0.635,0.24l0.339-0.329l-0.093,0.5l-0.166,0.485c-0.081,0.153-0.147,0.312-0.244,0.458
				c-0.11,0.139-0.19,0.295-0.33,0.414c-0.25,0.261-0.542,0.466-0.961,0.588c-0.216,0.056-0.262,0.053-0.527,0.07
				c-0.186-0.031-0.386-0.026-0.557-0.103c-0.354-0.125-0.673-0.335-0.902-0.604c-0.128-0.127-0.233-0.268-0.317-0.42
				c-0.1-0.145-0.175-0.3-0.233-0.461c-0.138-0.292-0.217-0.707-0.243-0.995c-0.004-0.169-0.04-0.264-0.018-0.495l0.045-0.503
				l0.235,0.405c-0.332-0.139-0.644-0.319-0.906-0.553c-0.263-0.232-0.49-0.498-0.674-0.786c-0.188-0.287-0.333-0.597-0.449-0.914
				c-0.117-0.319-0.187-0.647-0.246-0.979l0.264,0.301l-0.333-0.132c-0.107-0.051-0.229-0.078-0.322-0.151
				c-0.189-0.137-0.412-0.24-0.569-0.412c-0.162-0.164-0.349-0.311-0.473-0.504c-0.134-0.185-0.285-0.361-0.379-0.567
				c-0.103-0.201-0.226-0.395-0.291-0.61c-0.069-0.213-0.173-0.418-0.209-0.639c-0.043-0.219-0.109-0.435-0.131-0.657l-0.059-0.666
				l0.568,0.292c-0.108,0.059-0.219,0.115-0.332,0.167l-0.169,0.074c-0.061,0.03-0.095,0.021-0.144,0.034l-0.271,0.046l-0.034,0.005
				l-0.017,0.003l-0.068,0.006l-0.011-0.001l-0.086-0.009l-0.173-0.021c-0.118-0.006-0.224-0.048-0.332-0.088
				c-0.109-0.037-0.214-0.08-0.305-0.145c-0.199-0.108-0.353-0.259-0.51-0.407l0.43,0.076c-0.221,0.088-0.456,0.183-0.675,0.246
				c-0.221,0.021-0.34,0.062-0.645,0.068c-0.227-0.029-0.457-0.053-0.679-0.098l-0.629-0.26l-0.544-0.39
				c-0.166-0.146-0.302-0.318-0.452-0.478c-0.157-0.156-0.241-0.358-0.364-0.537c-0.125-0.179-0.206-0.377-0.284-0.577
				c-0.077-0.2-0.174-0.39-0.212-0.61l-0.145-0.643l-0.044-0.594c-0.003-0.113-0.024-0.166-0.014-0.329l0.022-0.317
				c0.014-0.212,0.023-0.424,0.079-0.631c0.051-0.206,0.072-0.42,0.151-0.62c0.075-0.2,0.14-0.404,0.227-0.599l0.304-0.567
				l0.055,0.449l-0.212-0.252c-0.067-0.086-0.147-0.166-0.189-0.265c-0.091-0.195-0.219-0.366-0.267-0.59l-0.089-0.323
				c-0.037-0.114-0.036-0.2-0.046-0.294l-0.025-0.28l-0.006-0.07l-0.004-0.068l0.003-0.039l0.011-0.153l0.388,0.371l-0.258,0.035
				c-0.036,0.003-0.009,0.005-0.098,0.01l-0.078-0.008l-0.155-0.018c-0.212-0.011-0.408-0.075-0.598-0.158
				c-0.203-0.06-0.352-0.199-0.525-0.302c-0.16-0.119-0.29-0.268-0.434-0.402l0.615-0.175l-0.526,2.12
				c-0.055,0.173-0.139,0.337-0.208,0.506l-0.216,0.503l-0.435,1.004l-0.096-0.444l0.331,0.332c0.095,0.12,0.162,0.256,0.241,0.385
				c0.087,0.122,0.113,0.29,0.167,0.436c0.056,0.159,0.083,0.298,0.086,0.418c0.009,0.147,0.036,0.209,0.03,0.427
				c-0.015,0.145-0.013,0.292-0.044,0.435c-0.057,0.287-0.147,0.571-0.303,0.831c-0.147,0.262-0.359,0.5-0.632,0.675
				c-0.123,0.091-0.34,0.163-0.488,0.205l-0.19,0.025c-0.055,0.002-0.011,0.012-0.148,0.009l-0.125-0.019
				c-0.163-0.036-0.344-0.04-0.478-0.137c-0.135-0.086-0.303-0.146-0.398-0.27c-0.103-0.114-0.23-0.218-0.305-0.348l-0.222-0.392
				l0.557,0.114l-0.589,0.476c-0.2,0.153-0.385,0.327-0.598,0.462l-0.666,0.369c-0.229,0.111-0.428,0.271-0.688,0.333l-0.748,0.239
				l-0.375,0.116c-0.122,0.023-0.241,0.028-0.362,0.043l-0.723,0.076l-0.181,0.019c-0.046,0.003-0.023,0.007-0.127,0.009
				l-0.095-0.006l-0.383-0.023c-0.256-0.005-0.507-0.051-0.758-0.102c-0.254-0.037-0.5-0.104-0.741-0.188
				c-0.246-0.069-0.485-0.155-0.714-0.267c-0.234-0.101-0.466-0.204-0.681-0.34c-0.218-0.129-0.443-0.247-0.642-0.404
				c-0.199-0.154-0.419-0.285-0.601-0.46c-0.389-0.322-0.734-0.686-1.073-1.058l0.256,0.118c-0.364-0.019-0.727-0.046-1.08-0.138
				c-0.35-0.088-0.7-0.2-1.018-0.369c-0.33-0.148-0.627-0.354-0.917-0.563c-0.286-0.216-0.548-0.457-0.792-0.716
				c-0.967-1.047-1.589-2.35-1.921-3.703c-0.157-0.667-0.268-1.394-0.28-2.067c-0.026-0.331,0.005-0.704,0.035-1.041
				c0.034-0.346,0.041-0.695,0.099-1.037l0.239-1.017c0.058-0.345,0.216-0.661,0.342-0.985c0.142-0.318,0.235-0.659,0.441-0.947
				l0.551-0.894l0.145,0.44l-0.408-0.172c-0.132-0.065-0.281-0.101-0.397-0.191c-0.235-0.172-0.507-0.302-0.709-0.512
				c-0.204-0.206-0.442-0.383-0.603-0.623c-0.171-0.231-0.37-0.445-0.497-0.704c-0.135-0.252-0.302-0.489-0.395-0.76
				c-0.097-0.268-0.238-0.521-0.297-0.8c-0.067-0.276-0.16-0.547-0.204-0.827l-0.116-0.842l0.356,0.214
				c-0.566,0.18-1.141,0.393-1.687,0.399l-0.414,0.042c-0.192,0.01-0.303-0.014-0.458-0.02c-0.292-0.006-0.576-0.071-0.86-0.132
				c-0.566-0.131-1.103-0.362-1.6-0.653c-0.489-0.304-0.955-0.648-1.349-1.063c-0.412-0.397-0.76-0.855-1.072-1.329
				c-0.313-0.475-0.574-0.981-0.797-1.502c-0.442-1.046-0.71-2.149-0.823-3.282c-0.055-0.563-0.083-1.116-0.051-1.685
				c0.014-0.563,0.08-1.126,0.182-1.68c0.097-0.556,0.239-1.104,0.425-1.637c0.181-0.534,0.402-1.057,0.678-1.551
				c0.26-0.502,0.584-0.971,0.942-1.41c0.354-0.443,0.771-0.833,1.213-1.191c0.462-0.33,0.945-0.644,1.484-0.841
				c0.526-0.229,1.097-0.325,1.665-0.386l-0.131,0.23l-0.396-0.927c-0.135-0.308-0.2-0.64-0.303-0.958
				c-0.108-0.318-0.163-0.651-0.215-0.984c-0.051-0.332-0.131-0.666-0.131-0.995l-0.053-0.99c0.018-0.35,0.012-0.674,0.051-1.01
				c0.057-0.667,0.18-1.327,0.355-1.973c0.365-1.283,0.955-2.525,1.84-3.539c0.209-0.263,0.461-0.489,0.704-0.72
				c0.259-0.215,0.521-0.426,0.811-0.601c0.283-0.181,0.584-0.339,0.898-0.461c0.31-0.136,0.638-0.219,0.966-0.301l-0.056,0.028
				l0.662-0.518c0.249-0.131,0.493-0.271,0.746-0.395l0.41-0.129c0.137-0.038,0.274-0.097,0.411-0.115l0.408-0.043l0.204-0.022
				c0.056-0.008,0.152-0.016,0.22-0.007l-0.13,0.138l-0.054-0.71L13.972,32.3c-0.015-0.116-0.013-0.255-0.001-0.368
				c0.042-0.479,0.024-0.967,0.148-1.437l0.142-0.71l0.238-0.685c0.128-0.47,0.412-0.875,0.618-1.313L15.1,27.911l-0.203-0.893
				c-0.088-0.299-0.069-0.592-0.104-0.889l-0.034-0.443c-0.018-0.171,0.015-0.307,0.02-0.462l0.069-0.904
				c0.054-0.297,0.137-0.59,0.205-0.885c0.054-0.3,0.167-0.582,0.294-0.858c0.134-0.271,0.205-0.576,0.393-0.82l0.502-0.766
				l-0.034,0.156l-0.182-0.94l-0.066-0.923c-0.015-0.177,0.007-0.321,0.01-0.482c0.01-0.157,0.006-0.316,0.028-0.472
				c0.05-0.312,0.068-0.629,0.155-0.934c0.12-0.623,0.367-1.213,0.646-1.783c0.165-0.272,0.312-0.556,0.517-0.803
				c0.18-0.266,0.415-0.486,0.635-0.72l-0.034,0.266c-0.111-0.206-0.232-0.408-0.333-0.619c-0.079-0.22-0.171-0.435-0.238-0.661
				c-0.049-0.232-0.107-0.468-0.145-0.698l-0.049-0.669l0.048-0.712c0.01-0.233,0.092-0.458,0.135-0.687
				c0.038-0.232,0.143-0.445,0.227-0.664c0.075-0.224,0.199-0.425,0.327-0.625c0.111-0.21,0.266-0.392,0.433-0.564
				c0.147-0.19,0.343-0.333,0.543-0.471c0.179-0.159,0.434-0.242,0.67-0.339c0.247-0.12,0.45-0.086,0.677-0.137
				c0.289-0.026,0.503,0.047,0.758,0.072c0.234,0.068,0.455,0.184,0.681,0.278c0.195,0.142,0.39,0.289,0.579,0.44l0.469,0.543
				l-0.451,0.139c0.018-0.402,0.048-0.803,0.129-1.2c0.082-0.395,0.193-0.785,0.351-1.159c0.155-0.375,0.354-0.732,0.592-1.065
				c0.237-0.334,0.528-0.629,0.847-0.896l-0.096,0.15c0.129-0.4,0.207-0.817,0.4-1.196c0.092-0.189,0.154-0.394,0.272-0.571
				l0.333-0.542c0.124-0.172,0.271-0.331,0.405-0.496c0.127-0.173,0.304-0.302,0.465-0.445c0.158-0.148,0.33-0.278,0.525-0.378
				c0.192-0.104,0.363-0.236,0.591-0.295c0.213-0.063,0.444-0.169,0.644-0.188c0.216-0.022,0.369-0.048,0.636-0.066
				c0.219,0.02,0.443,0.013,0.657,0.071c0.219,0.035,0.427,0.107,0.632,0.186c0.822,0.325,1.48,0.938,1.982,1.623l-0.338-0.111
				l0.388-0.102c0.124-0.024,0.229-0.026,0.343-0.041c0.042-0.002,0.027-0.007,0.114-0.008l0.096,0.009l0.191,0.019
				c0.127,0.015,0.257,0.019,0.376,0.067c0.249,0.067,0.485,0.159,0.699,0.294c0.233,0.107,0.402,0.293,0.604,0.44l-0.335-0.058
				l0.438-0.152l0.468-0.071l-0.25,0.146c0.167-0.233,0.319-0.478,0.5-0.702c0.195-0.213,0.36-0.452,0.583-0.64
				c0.411-0.409,0.889-0.754,1.411-1.022c0.256-0.143,0.541-0.229,0.817-0.335c0.29-0.057,0.616-0.168,0.878-0.168l0.412-0.032
				c0.192-0.001,0.307,0.024,0.465,0.035c0.294,0.032,0.594,0.042,0.871,0.154c0.276,0.102,0.58,0.145,0.827,0.31
				c0.251,0.15,0.529,0.264,0.757,0.447l0.678,0.552l0.582,0.644c0.19,0.217,0.33,0.471,0.496,0.705
				c0.173,0.232,0.292,0.493,0.417,0.75c0.123,0.258,0.266,0.508,0.345,0.783l0.278,0.809l-0.321-0.222l0.161-0.009l-0.192,0.083
				c0.345-0.264,0.666-0.561,1.032-0.792c0.397-0.189,0.735-0.466,1.182-0.576c0.43-0.138,0.864-0.29,1.271-0.295l0.651-0.061
				l0.656,0.047c0.432,0.069,0.86,0.166,1.267,0.327c0.404,0.159,0.799,0.351,1.155,0.597c0.371,0.225,0.698,0.514,1.01,0.807
				c0.315,0.295,0.587,0.627,0.854,0.962c0.243,0.352,0.491,0.701,0.686,1.081c0.219,0.367,0.375,0.765,0.545,1.154
				c0.145,0.4,0.292,0.798,0.39,1.212c0.125,0.407,0.178,0.829,0.263,1.244c0.039,0.423,0.113,0.856,0.111,1.267
				c0.03,0.411,0.009,0.849-0.032,1.265c-0.05,0.419-0.022,0.85-0.137,1.259l-0.267,1.24l0.007-0.046l-0.097,0.941
				c-0.069,0.309-0.148,0.617-0.223,0.925l-0.19-0.25l0.32-0.041l0.349,0.024c0.226,0.019,0.45,0.071,0.666,0.134
				c0.217,0.068,0.428,0.149,0.626,0.258c0.204,0.096,0.387,0.231,0.57,0.358c0.712,0.548,1.252,1.284,1.608,2.09
				c0.361,0.806,0.568,1.67,0.612,2.552c-0.001,0.219,0.031,0.422,0.002,0.653l-0.054,0.655c-0.021,0.439-0.173,0.857-0.254,1.286
				l0.004-0.047l0.077,0.685c0.005,0.046,0.019,0.128,0.009,0.186l-0.014,0.177c-0.012,0.118-0.011,0.237-0.035,0.353
				c-0.053,0.231-0.092,0.466-0.189,0.684c-0.07,0.228-0.201,0.428-0.313,0.637l0.009-0.092l0.127,0.446
				c0.037,0.148,0.094,0.296,0.113,0.445l0.041,0.447l0.02,0.223c0.004,0.067,0.022,0.159,0.007,0.233l-0.103,0.908l-0.28,0.869
				l-0.009-0.077l0.345,0.572c0.123,0.187,0.176,0.408,0.267,0.61c0.094,0.203,0.155,0.416,0.196,0.637
				c0.042,0.218,0.117,0.435,0.129,0.654l0.048,0.655c0.025,0.229-0.023,0.444-0.031,0.667c-0.019,0.221-0.023,0.443-0.089,0.657
				l-0.153,0.647l-0.014-0.063l0.417,0.568l0.208,0.284l0.151,0.318l0.3,0.635c0.08,0.22,0.127,0.452,0.192,0.678
				c0.047,0.229,0.15,0.451,0.151,0.685l0.059,0.693c0.029,0.227,0.037,0.468,0.005,0.701l-0.056,0.699v-0.011l0.052,0.688
				c0.029,0.228,0.026,0.465-0.001,0.694c-0.026,0.229-0.015,0.464-0.072,0.689l-0.14,0.679l-0.002-0.028l0.166,0.521
				c0.052,0.174,0.117,0.346,0.158,0.521L60.809,46.567z"/>
		</g>
	</g>
</g>
</svg>
