<?xml version="1.0" encoding="iso-8859-1"?>
<!-- Generator: Adobe Illustrator 16.0.0, SVG Export Plug-In . SVG Version: 6.00 Build 0)  -->
<!DOCTYPE svg PUBLIC "-//W3C//DTD SVG 1.1//EN" "http://www.w3.org/Graphics/SVG/1.1/DTD/svg11.dtd">
<svg version="1.1" id="Layer_1" xmlns="http://www.w3.org/2000/svg" xmlns:xlink="http://www.w3.org/1999/xlink" x="0px" y="0px"
	 width="374.258px" height="278.972px" viewBox="0 0 374.258 278.972" style="enable-background:new 0 0 374.258 278.972;"
	 xml:space="preserve">
<polygon style="fill:#FFC000;stroke:#000000;stroke-width:2;stroke-linejoin:round;stroke-miterlimit:10;" points="1,120.971 
	6.184,241.684 247.609,277.972 247.609,152.815 "/>
<polygon style="fill:#FFDE00;stroke:#000000;stroke-width:2;stroke-linejoin:round;stroke-miterlimit:10;" points="166.146,1 
	373.258,22.229 247.609,152.815 1,120.971 "/>
<polygon style="fill:#FF931E;stroke:#000000;stroke-width:2;stroke-linejoin:round;stroke-miterlimit:10;" points="369.803,128.377 
	373.258,22.229 247.609,152.815 247.609,277.972 "/>
<polygon style="fill:#FF0100;stroke:#000000;stroke-width:3;stroke-miterlimit:10;" points="299.634,98.15 69.69,70.629 
	107.156,43.775 329.271,68.072 330.452,175.865 302.055,210.629 "/>
<line style="fill:#FF00FF;stroke:#000000;stroke-width:2;stroke-linejoin:round;stroke-miterlimit:10;" x1="89.316" y1="133.246" x2="136.714" y2="138.184"/>
<line style="fill:#FF00FF;stroke:#000000;stroke-width:2;stroke-linejoin:round;stroke-miterlimit:10;" x1="301.622" y1="96.216" x2="326.309" y2="70.541"/>
<polygon style="fill:#FF0100;stroke:#000000;stroke-width:3;stroke-miterlimit:10;" points="140.199,138.945 281.951,12.996 
	236.747,8.362 85.859,132.752 87.367,254.531 141.661,262.047 "/>
</svg>
