<?xml version="1.0" encoding="utf-8"?>
<!-- Generator: Adobe Illustrator 16.0.0, SVG Export Plug-In . SVG Version: 6.00 Build 0)  -->
<!DOCTYPE svg PUBLIC "-//W3C//DTD SVG 1.1//EN" "http://www.w3.org/Graphics/SVG/1.1/DTD/svg11.dtd">
<svg version="1.1" id="Layer_1" xmlns="http://www.w3.org/2000/svg" xmlns:xlink="http://www.w3.org/1999/xlink" x="0px" y="0px"
	 width="64.501px" height="69.546px" viewBox="0 0 64.501 69.546" enable-background="new 0 0 64.501 69.546" xml:space="preserve">
<path fill="#00C9FF" stroke="#1D1E1C" stroke-miterlimit="10" d="M61.518,4.215C61.2,2.699,49.092,1.189,33.159,1.239
	c-15.933-0.05-30.04,1.46-30.358,2.976C2.66,4.884,9.478,62.963,11.926,66.833c0.749,1.185,8.509,2.246,21.183,2.212
	c10.834-0.029,18.618-1.976,19.076-3.276C54.754,58.464,62.23,7.612,61.518,4.215z"/>
<path fill="#00C9FF" stroke="#1D1E1C" stroke-miterlimit="10" d="M64.001,9.065c0,1.712-1.304,3.101-2.911,3.101H3.411
	c-1.607,0-2.911-1.389-2.911-3.101V3.601C0.5,1.889,1.804,0.5,3.411,0.5H61.09c1.607,0,2.911,1.389,2.911,3.101V9.065z"/>
</svg>
