<?xml version="1.0" encoding="utf-8"?>
<!-- Generator: Adobe Illustrator 16.0.0, SVG Export Plug-In . SVG Version: 6.00 Build 0)  -->
<!DOCTYPE svg PUBLIC "-//W3C//DTD SVG 1.1//EN" "http://www.w3.org/Graphics/SVG/1.1/DTD/svg11.dtd">
<svg version="1.1" id="Layer_2" xmlns="http://www.w3.org/2000/svg" xmlns:xlink="http://www.w3.org/1999/xlink" x="0px" y="0px"
	 width="208px" height="354.667px" viewBox="0 0 208 354.667" enable-background="new 0 0 208 354.667" xml:space="preserve">
<g id="end">
	<path id="colour_1_" fill="#E8308A" stroke="#231F20" stroke-width="3" stroke-miterlimit="10" d="M108.379,212.014
		c0,0,16.382,9.967,19.938,22.206c0,0,8.097,26.308-14.721,19.433c-4.497-1.354-12.603-6.978-16.25-5.443
		c-4.413,1.857-22.27,0.721-11.034-5.67c11.236-6.387,16.852-13.25,15.245-30.051L108.379,212.014z"/>
</g>
<g>
	<path fill="#231F20" d="M111.2,251.45c0.554,2.415,0.858,4.622,1.107,6.936c0.235,2.29,0.361,4.584,0.377,6.879
		c0.032,4.588-0.38,9.185-1.348,13.673c-0.961,4.481-2.517,8.864-4.707,12.87c-2.016,3.854-3.652,7.899-4.273,12.133
		c-0.656,4.227-0.062,8.563,1.434,12.644c1.476,4.096,3.617,7.986,5.711,11.889c2.112,3.9,4.211,7.826,6.073,11.863
		c1.869,4.032,3.515,8.166,4.897,12.381c-1.547-4.158-3.348-8.214-5.364-12.154c-2.011-3.945-4.247-7.764-6.51-11.579
		c-2.244-3.822-4.56-7.646-6.263-11.846c-0.846-2.098-1.512-4.296-1.873-6.567c-0.365-2.27-0.412-4.6-0.166-6.889
		c0.492-4.592,2.078-8.955,4.006-13.022c1.773-3.935,2.895-8.104,3.471-12.354c0.578-4.249,0.633-8.563,0.272-12.835
		c-0.18-2.136-0.462-4.263-0.845-6.364c-0.379-2.075-0.868-4.24-1.455-6.112L111.2,251.45z"/>
</g>
<g id="body">
	<path id="colour" fill="#E8308A" stroke="#231F20" stroke-width="4" stroke-miterlimit="10" d="M203.759,109.724
		c0.365,58.483-43.921,106.171-98.91,106.514C49.862,216.58,4.989,169.447,4.624,110.963C4.26,52.477,48.545,4.79,103.529,4.447
		C158.521,4.105,203.395,51.237,203.759,109.724z"/>
</g>
<g>
	<path fill="#231F20" d="M120.987,217.383c0.087-0.043,0.207-0.199,0.318-0.075c0.011,0.136-0.059,0.238-0.105,0.347
		c-0.111,0.21-0.242,0.408-0.379,0.602c-0.275,0.385-0.578,0.749-0.894,1.102c-0.634,0.703-1.324,1.357-2.059,1.962
		c-1.469,1.209-3.118,2.228-4.923,2.946c-1.803,0.717-3.771,1.113-5.765,1.067c-0.995-0.006-1.992-0.185-2.969-0.343
		c-1.037-0.151-2.092-0.394-3.157-1.057c-0.525-0.33-1.032-0.791-1.433-1.341c-0.401-0.541-0.679-1.177-0.876-1.636
		c-0.094-0.218-0.196-0.413-0.213-0.346c-0.003,0.033,0.027,0.16,0.196,0.355c0.164,0.192,0.464,0.356,0.642,0.407
		c0.371,0.098,0.345,0.074,0.28,0.144l-0.357,0.237c-0.063,0.039-0.174,0.119-0.21,0.137l-0.297,0.146
		c-0.123,0.067-0.277,0.153-0.424,0.245c-0.288,0.181-0.544,0.375-0.758,0.576c-0.432,0.405-0.676,0.822-0.77,1.214
		c-0.203,0.743,0.142,1.733,0.986,2.506c0.834,0.764,2.012,1.177,3.181,1.112v5.67c-2.583-0.045-5.163-1.117-6.972-3.031
		c-0.905-0.956-1.635-2.128-2.029-3.483c-0.4-1.343-0.412-2.902,0.074-4.3c0.475-1.404,1.395-2.551,2.389-3.356
		c0.499-0.407,1.021-0.745,1.547-1.029c0.262-0.141,0.524-0.27,0.824-0.403l0.345-0.145c0.177-0.078,0.284-0.087,0.439-0.132
		c0.29-0.073,0.597-0.146,0.978-0.204c0.388-0.041,0.838-0.146,1.671,0.047c0.408,0.097,0.926,0.37,1.257,0.729
		c0.341,0.356,0.49,0.69,0.585,0.937c0.174,0.496,0.181,0.76,0.213,0.993c0.043,0.445,0.061,0.711,0.13,0.982
		c0.068,0.264,0.187,0.522,0.39,0.783c0.398,0.523,1.12,1.002,1.878,1.37c0.83,0.349,1.69,0.494,2.566,0.613
		c1.753,0.209,3.566,0.029,5.309-0.478c1.744-0.508,3.417-1.325,4.951-2.362c0.769-0.519,1.503-1.092,2.189-1.722
		c0.342-0.315,0.673-0.645,0.979-0.996c0.152-0.176,0.299-0.357,0.426-0.552c0.057-0.097,0.131-0.203,0.131-0.306
		C121.229,217.232,121.072,217.336,120.987,217.383z"/>
</g>
<g opacity="0.66">
	<path fill="#FFFFFF" d="M39.441,176.03c-13.096-19.599-20.062-44.531-18.011-70.924c0.006-0.076,0.015-0.154,0.021-0.23
		l-8.071,5.615C14.113,135.989,23.889,159.293,39.441,176.03z"/>
	<path fill="#FFFFFF" d="M98.238,12.479C54.745,11.875,17.524,49.24,13.655,99.006c-0.074,0.949-0.099,1.89-0.149,2.833l9.246-7.266
		C30.073,51.557,60.751,18.964,98.238,12.479z"/>
</g>
</svg>
