<?xml version="1.0" encoding="utf-8"?>
<!-- Generator: Adobe Illustrator 16.0.4, SVG Export Plug-In . SVG Version: 6.00 Build 0)  -->
<!DOCTYPE svg PUBLIC "-//W3C//DTD SVG 1.1//EN" "http://www.w3.org/Graphics/SVG/1.1/DTD/svg11.dtd">
<svg version="1.1" id="Layer_1" xmlns="http://www.w3.org/2000/svg" xmlns:xlink="http://www.w3.org/1999/xlink" x="0px" y="0px"
	 width="140.606px" height="144.606px" viewBox="0 0 140.606 144.606" enable-background="new 0 0 140.606 144.606"
	 xml:space="preserve">
<path opacity="0.2" d="M70.303,140.364c-38.117,0-69.125-30.338-70.249-68.182C0.033,72.888,0,73.592,0,74.303
	c0,38.827,31.475,70.303,70.303,70.303s70.303-31.476,70.303-70.303c0-0.711-0.032-1.415-0.054-2.121
	C139.428,110.025,108.42,140.364,70.303,140.364z"/>
<circle fill="#E83166" cx="70.303" cy="70.303" r="70.303"/>
<path fill="#BC0F5E" d="M70.303,136.364c-38.117,0-69.125-30.338-70.249-68.182C0.033,68.888,0,69.592,0,70.303
	c0,38.827,31.475,70.303,70.303,70.303s70.303-31.476,70.303-70.303c0-0.711-0.032-1.415-0.054-2.121
	C139.428,106.025,108.42,136.364,70.303,136.364z"/>
</svg>
